<svg xmlns="http://www.w3.org/2000/svg" width="284pt" height="284pt" viewBox="0 -284 284 284"><g id="page1"><g fill="#ccc"><path d="M106.191-247.453h35.317v-35.317h-35.317Z"/><path d="M141.508-247.453h35.312v-35.317h-35.312Zm35.312 0h35.317v-35.317H176.82Zm35.317 0h35.312v-35.317h-35.312Z"/><path d="M106.191-212.141h35.317v-35.316h-35.317Z"/><path d="M141.508-212.141h35.312v-35.316h-35.312Zm35.312 0h35.317v-35.316H176.82Zm35.317 0h35.312v-35.316h-35.312Z"/><path d="M106.191-176.824h35.317v-35.317h-35.317Z"/><path d="M141.508-176.824h35.312v-35.317h-35.312Zm35.312 0h35.317v-35.317H176.82Zm35.317 0h35.312v-35.317h-35.312Zm-105.946 35.312h35.317v-35.312h-35.317Z"/><path d="M141.508-141.512h35.312v-35.312h-35.312Zm35.312 0h35.317v-35.312H176.82Zm35.317 0h35.312v-35.312h-35.312Zm-70.629 70.629h35.312v-35.316h-35.312Z"/></g><g fill="none" stroke="#000" stroke-linecap="round" stroke-linejoin="round"><path stroke-width="1.4" d="M106.191-282.77h141.258v141.258H106.191z"/><path stroke-width=".5" d="M.25-.254V-282.77M.25-.254h282.516m-247.2 0V-282.77M.25-35.57h282.516M70.879-.254V-282.77M.25-70.883h282.516M106.191-.254V-282.77M.25-106.199h282.516M141.508-.254V-282.77M.25-141.512h282.516M176.82-.254V-282.77M.25-176.824h282.516M212.137-.254V-282.77M.25-212.141h282.516M247.449-.254V-282.77M.25-247.453h282.516m0 247.199V-282.77m-282.516 0h282.516"/></g><path d="M12.445-265.52c0-3.796 1.844-4.394 2.657-4.394.539 0 1.078.16 1.363.613-.18 0-.75 0-.75.613 0 .333.226.618.617.618.375 0 .629-.227.629-.66 0-.782-.57-1.547-1.875-1.547-1.89 0-3.871 1.937-3.871 5.238 0 4.125 1.8 5.055 3.074 5.055 1.637 0 3.031-1.426 3.031-3.375 0-1.996-1.394-3.332-2.894-3.332-1.336 0-1.832 1.156-1.98 1.574zm1.844 5.129c-.945 0-1.394-.839-1.527-1.156-.137-.387-.285-1.125-.285-2.172 0-1.187.539-2.672 1.89-2.672.824 0 1.258.555 1.485 1.067.238.554.238 1.304.238 1.949 0 .766 0 1.441-.285 2.008-.375.722-.914.976-1.516.976M24.5-262.82h-.328c-.047.254-.164 1.078-.317 1.32-.105.133-.96.133-1.41.133h-2.773c.402-.344 1.32-1.305 1.707-1.664 2.281-2.098 3.121-2.879 3.121-4.364 0-1.726-1.363-2.882-3.105-2.882-1.739 0-2.762 1.488-2.762 2.777 0 .766.664.766.707.766.316 0 .707-.227.707-.707 0-.418-.285-.704-.707-.704-.137 0-.164 0-.211.012.285-1.015 1.098-1.707 2.07-1.707 1.278 0 2.055 1.067 2.055 2.445 0 1.274-.735 2.383-1.59 3.344l-3.031 3.391v.359h5.476zm26.816-7.246c0-.286 0-.36-.21-.36-.122 0-.165 0-.286.18l-4.515 7.004v.437h3.945v1.364c0 .558-.031.707-1.125.707h-.3v.433c.347-.027 1.53-.027 1.948-.027.422 0 1.621 0 1.97.027v-.433h-.302c-1.082 0-1.125-.149-1.125-.707v-1.364h1.516v-.437h-1.516zm-.992 1.171v5.653H46.68zm7.348 3.18c.75-.406 1.844-1.098 1.844-2.355 0-1.309-1.262-2.207-2.641-2.207-1.484 0-2.656 1.097-2.656 2.461 0 .511.152 1.019.57 1.531.164.195.18.211 1.23.945-1.453.676-2.203 1.68-2.203 2.774 0 1.589 1.512 2.582 3.043 2.582 1.664 0 3.063-1.231 3.063-2.805 0-1.531-1.082-2.207-2.25-2.926m-2.043-1.351c-.191-.133-.793-.524-.793-1.258 0-.977 1.02-1.59 2.023-1.59 1.082 0 2.04.777 2.04 1.859 0 .914-.657 1.649-1.528 2.129zm.707 1.937 1.812 1.184c.391.254 1.082.718 1.082 1.632 0 1.141-1.156 1.922-2.355 1.922-1.273 0-2.371-.929-2.371-2.175 0-1.168.855-2.114 1.832-2.563m27.624-.559c-.257.016-.316.032-.316.168 0 .149.075.149.348.149h.688c1.273 0 1.843 1.051 1.843 2.492 0 1.965-1.02 2.488-1.754 2.488-.718 0-1.949-.343-2.386-1.336.484.079.918-.195.918-.734a.71.71 0 0 0-.735-.734c-.363 0-.75.211-.75.781 0 1.336 1.332 2.43 3 2.43 1.786 0 3.106-1.368 3.106-2.883 0-1.379-1.11-2.457-2.55-2.711 1.304-.379 2.144-1.473 2.144-2.641 0-1.187-1.23-2.058-2.688-2.058-1.5 0-2.61.918-2.61 2.011 0 .602.466.719.692.719.317 0 .676-.223.676-.672 0-.48-.36-.691-.692-.691-.09 0-.12 0-.163.015.57-1.019 1.98-1.019 2.054-1.019.496 0 1.469.223 1.469 1.695 0 .281-.043 1.125-.48 1.77-.45.66-.958.703-1.364.719zm11.142 2.868h-.333c-.042.254-.163 1.078-.312 1.32-.105.133-.96.133-1.41.133h-2.778c.407-.344 1.32-1.305 1.712-1.664 2.28-2.098 3.12-2.879 3.12-4.364 0-1.726-1.367-2.882-3.105-2.882-1.742 0-2.762 1.488-2.762 2.777 0 .766.66.766.707.766.313 0 .703-.227.703-.707 0-.418-.285-.704-.703-.704a.8.8 0 0 0-.21.012c.285-1.015 1.093-1.707 2.07-1.707 1.273 0 2.055 1.067 2.055 2.445 0 1.274-.735 2.383-1.59 3.344l-3.032 3.391v.359h5.477zm31.699 0h-.332c-.043.254-.164 1.078-.313 1.32-.105.133-.961.133-1.41.133h-2.777c.406-.344 1.32-1.305 1.711-1.664 2.281-2.098 3.121-2.879 3.121-4.364 0-1.726-1.363-2.882-3.106-2.882s-2.761 1.488-2.761 2.777c0 .766.66.766.707.766.312 0 .703-.227.703-.707 0-.418-.281-.704-.703-.704-.137 0-.164 0-.211.012.285-1.015 1.093-1.707 2.07-1.707 1.273 0 2.055 1.067 2.055 2.445 0 1.274-.735 2.383-1.59 3.344l-3.031 3.391v.359h5.476zm35.824-6.797v-.344h-3.613c-1.817 0-1.848-.195-1.907-.48h-.332l-.464 3h.332c.043-.27.179-1.2.375-1.364.117-.09 1.246-.09 1.453-.09h3.179l-1.585 2.278c-.407.586-1.922 3.047-1.922 5.867 0 .164 0 .766.613.766.633 0 .633-.586.633-.782v-.75c0-2.234.359-3.976 1.062-4.98zm30.094.722a4.6 4.6 0 0 0 1.336.223c1.695 0 2.777-1.242 2.777-1.457 0-.059-.031-.133-.121-.133-.031 0-.063 0-.195.059a4.9 4.9 0 0 1-3.93-.012c-.106-.047-.137-.047-.152-.047-.118 0-.118.09-.118.332v4.453c0 .274 0 .36.18.36.074 0 .09-.012.238-.196a2.27 2.27 0 0 1 1.875-.972c.797 0 1.188.734 1.305.988.258.586.274 1.32.274 1.891 0 .57 0 1.426-.422 2.101-.328.539-.914.914-1.575.914a2.324 2.324 0 0 1-2.238-1.769.7.7 0 0 0 .242.043c.254 0 .66-.149.66-.656 0-.422-.285-.665-.66-.665-.269 0-.66.137-.66.723 0 1.274 1.02 2.731 2.684 2.731 1.695 0 3.179-1.426 3.179-3.332 0-1.786-1.199-3.27-2.773-3.27-.855 0-1.516.375-1.906.797zm34.101-1.019c0-.348 0-.363-.3-.363-.36.406-1.11.961-2.653.961v.433c.344 0 1.094 0 1.918-.387v7.817c0 .539-.043.719-1.363.719h-.469v.433c.406-.027 1.863-.027 2.36-.027.492 0 1.933 0 2.335.027v-.433h-.46c-1.321 0-1.368-.18-1.368-.719zm9.7 4.812c0-1.242-.075-2.461-.614-3.597-.617-1.246-1.695-1.578-2.429-1.578-.872 0-1.938.437-2.493 1.683-.418.946-.57 1.875-.57 3.492 0 1.457.106 2.551.645 3.618a2.67 2.67 0 0 0 2.402 1.5c1.305 0 2.055-.782 2.488-1.649.543-1.129.571-2.597.571-3.469m-3.059 4.817c-.481 0-1.457-.27-1.742-1.906-.164-.899-.164-2.039-.164-3.09 0-1.231 0-2.34.242-3.227.254-1.004 1.019-1.469 1.664-1.469.57 0 1.437.344 1.727 1.637.195.856.195 2.039.195 3.059 0 1.008 0 2.144-.168 3.062-.285 1.649-1.231 1.934-1.754 1.934m27.102-5.403c-.258.016-.317.032-.317.168 0 .149.074.149.344.149h.691c1.274 0 1.844 1.051 1.844 2.492 0 1.965-1.02 2.488-1.754 2.488-.723 0-1.949-.343-2.387-1.336.481.079.914-.195.914-.734a.707.707 0 0 0-.734-.734c-.359 0-.75.211-.75.781 0 1.336 1.336 2.43 3 2.43 1.785 0 3.106-1.368 3.106-2.883 0-1.379-1.11-2.457-2.551-2.711 1.304-.379 2.148-1.473 2.148-2.641 0-1.187-1.23-2.058-2.687-2.058-1.5 0-2.61.918-2.61 2.011 0 .602.465.719.688.719.316 0 .68-.223.68-.672 0-.48-.364-.691-.692-.691-.09 0-.121 0-.168.015.57-1.019 1.985-1.019 2.059-1.019.492 0 1.468.223 1.468 1.695 0 .281-.042 1.125-.48 1.77-.449.66-.961.703-1.363.719zm11.257.586c0-1.242-.074-2.461-.613-3.597-.617-1.246-1.695-1.578-2.434-1.578-.867 0-1.933.437-2.488 1.683-.418.946-.57 1.875-.57 3.492 0 1.457.105 2.551.644 3.618a2.67 2.67 0 0 0 2.403 1.5c1.304 0 2.054-.782 2.488-1.649.539-1.129.57-2.597.57-3.469m-3.058 4.817c-.481 0-1.457-.27-1.742-1.906-.165-.899-.165-2.039-.165-3.09 0-1.231 0-2.34.239-3.227.258-1.004 1.023-1.469 1.668-1.469.566 0 1.437.344 1.722 1.637.196.856.196 2.039.196 3.059 0 1.008 0 2.144-.164 3.062-.286 1.649-1.231 1.934-1.754 1.934M12.445-230.219c0-3.797 1.844-4.398 2.657-4.398.539 0 1.078.164 1.363.617-.18 0-.75 0-.75.613 0 .332.226.617.617.617.375 0 .629-.226.629-.66 0-.781-.57-1.547-1.875-1.547-1.89 0-3.871 1.938-3.871 5.235 0 4.125 1.8 5.058 3.074 5.058 1.637 0 3.031-1.425 3.031-3.379 0-1.992-1.394-3.328-2.894-3.328-1.336 0-1.832 1.157-1.98 1.575zm1.844 5.129c-.945 0-1.394-.84-1.527-1.156-.137-.387-.285-1.125-.285-2.176 0-1.183.539-2.668 1.89-2.668.824 0 1.258.555 1.485 1.067.238.554.238 1.304.238 1.949 0 .761 0 1.441-.285 2.008-.375.722-.914.976-1.516.976m9.027-9.676c0-.285 0-.363-.21-.363-.122 0-.165 0-.286.184l-4.515 7.004v.437h3.945v1.363c0 .555-.031.707-1.125.707h-.3v.434c.347-.031 1.53-.031 1.948-.031.422 0 1.622 0 1.97.031v-.434h-.302c-1.082 0-1.125-.152-1.125-.707v-1.363h1.516v-.437h-1.516zm-.992 1.172v5.653H18.68zm25.496 0a4.5 4.5 0 0 0 1.336.223c1.696 0 2.774-1.246 2.774-1.457 0-.059-.032-.133-.117-.133-.032 0-.063 0-.196.059a4.9 4.9 0 0 1-1.953.406c-.988 0-1.695-.301-1.98-.418-.106-.047-.133-.047-.149-.047-.12 0-.12.09-.12.328v4.457c0 .27 0 .36.179.36.078 0 .09-.012.242-.196a2.26 2.26 0 0 1 1.875-.972c.793 0 1.184.734 1.305.988.254.586.27 1.32.27 1.891 0 .57 0 1.425-.419 2.101-.332.539-.918.914-1.578.914a2.32 2.32 0 0 1-2.234-1.769.7.7 0 0 0 .242.043c.254 0 .656-.149.656-.661 0-.418-.281-.66-.656-.66-.274 0-.664.137-.664.723 0 1.273 1.023 2.73 2.687 2.73 1.696 0 3.18-1.425 3.18-3.332 0-1.785-1.2-3.269-2.773-3.269-.856 0-1.516.375-1.907.793zm11.98 6.074h-.331c-.043.254-.164 1.079-.313 1.321-.105.133-.96.133-1.41.133H54.97c.406-.344 1.32-1.305 1.71-1.664 2.282-2.098 3.122-2.879 3.122-4.364 0-1.726-1.364-2.883-3.106-2.883s-2.761 1.485-2.761 2.778c0 .761.66.761.707.761.312 0 .703-.222.703-.703 0-.422-.282-.703-.703-.703-.137 0-.164 0-.211.012.285-1.02 1.093-1.707 2.07-1.707 1.273 0 2.055 1.062 2.055 2.445 0 1.274-.735 2.383-1.59 3.344l-3.031 3.391v.359h5.476zm26.817-7.246c0-.285 0-.363-.21-.363-.122 0-.165 0-.286.184l-4.515 7.004v.437h3.945v1.363c0 .555-.032.707-1.125.707h-.301v.434c.344-.031 1.531-.031 1.95-.031.421 0 1.62 0 1.964.031v-.434h-.297c-1.082 0-1.125-.152-1.125-.707v-1.363h1.516v-.437h-1.516zm-.992 1.172v5.653h-3.644zm7.195-1.023c0-.344 0-.36-.3-.36-.36.407-1.11.961-2.653.961v.434c.344 0 1.094 0 1.918-.387v7.813c0 .539-.043.722-1.363.722h-.469v.434c.406-.031 1.863-.031 2.36-.031.492 0 1.933 0 2.335.031v-.434h-.46c-1.32 0-1.368-.183-1.368-.722zm31.7 0c0-.344 0-.36-.301-.36-.36.407-1.11.961-2.653.961v.434c.344 0 1.094 0 1.918-.387v7.813c0 .539-.043.722-1.363.722h-.465v.434c.407-.031 1.86-.031 2.356-.031.492 0 1.933 0 2.34.031v-.434h-.465c-1.321 0-1.367-.183-1.367-.722zm33.742 4.23c-.258.016-.317.032-.317.168 0 .149.075.149.344.149h.691c1.274 0 1.844 1.05 1.844 2.492 0 1.961-1.019 2.488-1.754 2.488-.718 0-1.949-.344-2.386-1.336.48.074.918-.195.918-.734a.71.71 0 0 0-.735-.735c-.363 0-.75.207-.75.778 0 1.336 1.332 2.433 3 2.433 1.781 0 3.102-1.367 3.102-2.882 0-1.379-1.11-2.457-2.547-2.715 1.305-.375 2.144-1.469 2.144-2.641 0-1.183-1.23-2.055-2.687-2.055-1.5 0-2.609.914-2.609 2.012 0 .598.464.719.691.719.312 0 .676-.223.676-.676 0-.476-.364-.687-.692-.687-.09 0-.121 0-.164.015.571-1.023 1.981-1.023 2.055-1.023.492 0 1.469.226 1.469 1.695 0 .285-.043 1.125-.481 1.774-.449.656-.957.703-1.363.718zm37.953-4.379c0-.285 0-.363-.211-.363-.117 0-.164 0-.285.184l-4.516 7.004v.437h3.945v1.363c0 .555-.027.707-1.125.707h-.296v.434c.343-.031 1.527-.031 1.949-.031.418 0 1.621 0 1.965.031v-.434h-.301c-1.078 0-1.125-.152-1.125-.707v-1.363h1.515v-.437h-1.515zm-.988 1.172v5.653h-3.649zm31.593-1.023c0-.344 0-.36-.3-.36-.36.407-1.11.961-2.653.961v.434c.344 0 1.094 0 1.918-.387v7.813c0 .539-.043.722-1.363.722h-.469v.434c.406-.031 1.863-.031 2.36-.031.492 0 1.933 0 2.335.031v-.434h-.46c-1.321 0-1.368-.183-1.368-.722zm5.743 4.23c-.258.016-.317.032-.317.168 0 .149.074.149.344.149h.691c1.274 0 1.844 1.05 1.844 2.492 0 1.961-1.02 2.488-1.754 2.488-.723 0-1.949-.344-2.387-1.336.481.074.914-.195.914-.734a.71.71 0 0 0-.734-.735c-.359 0-.75.207-.75.778 0 1.336 1.336 2.433 3 2.433 1.785 0 3.106-1.367 3.106-2.882 0-1.379-1.11-2.457-2.551-2.715 1.304-.375 2.148-1.469 2.148-2.641 0-1.183-1.23-2.055-2.687-2.055-1.5 0-2.61.914-2.61 2.012 0 .598.465.719.688.719.316 0 .68-.223.68-.676 0-.476-.364-.687-.692-.687-.09 0-.121 0-.168.015.57-1.023 1.985-1.023 2.059-1.023.492 0 1.468.226 1.468 1.695 0 .285-.042 1.125-.48 1.774-.449.656-.961.703-1.363.718zm31.835 2.867h-.328c-.047.254-.164 1.079-.312 1.321-.11.133-.961.133-1.414.133h-2.774c.407-.344 1.321-1.305 1.711-1.664 2.282-2.098 3.117-2.879 3.117-4.364 0-1.726-1.363-2.883-3.101-2.883-1.742 0-2.762 1.485-2.762 2.778 0 .761.66.761.707.761.313 0 .703-.222.703-.703 0-.422-.285-.703-.703-.703-.137 0-.168 0-.211.012.285-1.02 1.094-1.707 2.071-1.707 1.273 0 2.054 1.062 2.054 2.445 0 1.274-.734 2.383-1.59 3.344l-3.031 3.391v.359h5.477zm2.547-2.699c0-3.797 1.844-4.398 2.657-4.398.539 0 1.078.164 1.363.617-.18 0-.75 0-.75.613 0 .332.226.617.617.617.375 0 .629-.226.629-.66 0-.781-.57-1.547-1.875-1.547-1.891 0-3.871 1.938-3.871 5.235 0 4.125 1.801 5.058 3.074 5.058 1.637 0 3.031-1.425 3.031-3.379 0-1.992-1.394-3.328-2.894-3.328-1.336 0-1.832 1.157-1.981 1.575zm1.844 5.129c-.945 0-1.394-.84-1.527-1.156-.137-.387-.285-1.125-.285-2.176 0-1.183.539-2.668 1.89-2.668.824 0 1.258.555 1.485 1.067.238.554.238 1.304.238 1.949 0 .761 0 1.441-.285 2.008-.375.722-.914.976-1.516.976M16.016-199.465c0-.289 0-.363-.211-.363-.117 0-.164 0-.285.183l-4.516 7.004v.438h3.945v1.363c0 .555-.027.707-1.125.707h-.3v.434c.347-.031 1.53-.031 1.953-.031.418 0 1.617 0 1.964.031v-.434h-.3c-1.078 0-1.125-.152-1.125-.707v-1.363h1.515v-.438h-1.515zm-.993 1.168v5.656H11.38zm8.293-1.168c0-.289 0-.363-.21-.363-.122 0-.165 0-.286.183l-4.515 7.004v.438h3.945v1.363c0 .555-.031.707-1.125.707h-.3v.434c.347-.031 1.53-.031 1.948-.031.422 0 1.622 0 1.97.031v-.434h-.302c-1.082 0-1.125-.152-1.125-.707v-1.363h1.516v-.438h-1.516zm-.992 1.168v5.656H18.68zm28.992-1.168c0-.289 0-.363-.21-.363-.122 0-.165 0-.286.183l-4.515 7.004v.438h3.945v1.363c0 .555-.031.707-1.125.707h-.3v.434c.347-.031 1.53-.031 1.948-.031.422 0 1.621 0 1.97.031v-.434h-.302c-1.082 0-1.125-.152-1.125-.707v-1.363h1.516v-.438h-1.516zm-.992 1.168v5.656H46.68zm5.636 3.211c-.257.016-.316.031-.316.164 0 .152.075.152.348.152h.688c1.273 0 1.843 1.051 1.843 2.489 0 1.965-1.02 2.492-1.754 2.492-.718 0-1.949-.344-2.386-1.336.484.074.918-.195.918-.734a.71.71 0 0 0-.735-.735c-.363 0-.75.207-.75.778 0 1.336 1.332 2.433 3 2.433 1.786 0 3.106-1.367 3.106-2.883 0-1.379-1.11-2.461-2.55-2.714 1.304-.375 2.144-1.469 2.144-2.641 0-1.184-1.23-2.055-2.688-2.055-1.5 0-2.61.914-2.61 2.012 0 .598.466.719.692.719.317 0 .676-.227.676-.676 0-.481-.36-.692-.691-.692-.09 0-.122 0-.165.016.57-1.019 1.98-1.019 2.055-1.019.496 0 1.469.226 1.469 1.695 0 .285-.043 1.125-.48 1.769-.45.661-.958.707-1.364.719zm28 0c-.257.016-.316.031-.316.164 0 .152.075.152.348.152h.688c1.273 0 1.843 1.051 1.843 2.489 0 1.965-1.02 2.492-1.754 2.492-.718 0-1.949-.344-2.386-1.336.484.074.918-.195.918-.734a.71.71 0 0 0-.735-.735c-.363 0-.75.207-.75.778 0 1.336 1.332 2.433 3 2.433 1.786 0 3.106-1.367 3.106-2.883 0-1.379-1.11-2.461-2.55-2.714 1.304-.375 2.144-1.469 2.144-2.641 0-1.184-1.23-2.055-2.688-2.055-1.5 0-2.61.914-2.61 2.012 0 .598.466.719.692.719.317 0 .676-.227.676-.676 0-.481-.36-.692-.692-.692-.09 0-.12 0-.163.016.57-1.019 1.98-1.019 2.054-1.019.496 0 1.469.226 1.469 1.695 0 .285-.043 1.125-.48 1.769-.45.661-.958.707-1.364.719zm6.384.164c0-3.793 1.847-4.394 2.656-4.394.54 0 1.082.164 1.367.617-.18 0-.75 0-.75.613 0 .328.223.617.614.617.375 0 .628-.226.628-.664 0-.777-.57-1.543-1.875-1.543-1.89 0-3.867 1.934-3.867 5.235 0 4.125 1.797 5.058 3.074 5.058 1.633 0 3.028-1.426 3.028-3.379 0-1.992-1.395-3.328-2.895-3.328-1.332 0-1.828 1.152-1.98 1.574zm1.847 5.133c-.945 0-1.394-.84-1.53-1.156-.138-.391-.286-1.125-.286-2.176 0-1.184.54-2.668 1.89-2.668.825 0 1.258.555 1.485 1.062.242.555.242 1.305.242 1.954 0 .761 0 1.437-.289 2.007-.375.719-.914.977-1.512.977m32.481-5.328c.75-.403 1.844-1.094 1.844-2.352 0-1.308-1.262-2.207-2.641-2.207-1.484 0-2.656 1.094-2.656 2.461 0 .508.152 1.02.57 1.527.164.196.18.211 1.231.946-1.454.676-2.204 1.679-2.204 2.777 0 1.59 1.512 2.582 3.043 2.582 1.664 0 3.063-1.234 3.063-2.808 0-1.528-1.082-2.204-2.25-2.926m-2.043-1.348c-.191-.137-.793-.527-.793-1.262 0-.972 1.019-1.589 2.023-1.589 1.082 0 2.039.781 2.039 1.859 0 .918-.656 1.652-1.527 2.133zm.707 1.934 1.812 1.187c.391.254 1.082.719 1.082 1.633 0 1.141-1.156 1.922-2.355 1.922-1.273 0-2.371-.93-2.371-2.176 0-1.172.855-2.113 1.832-2.566m32.785-4.785c0-.344 0-.36-.301-.36-.359.406-1.109.961-2.656.961v.434c.344 0 1.098 0 1.922-.391v7.817c0 .539-.047.722-1.367.722h-.465v.434c.406-.031 1.863-.031 2.355-.031.496 0 1.938 0 2.34.031v-.434h-.465c-1.32 0-1.363-.183-1.363-.722zm7.399 0c0-.344 0-.36-.301-.36-.36.406-1.11.961-2.653.961v.434c.344 0 1.094 0 1.918-.391v7.817c0 .539-.043.722-1.363.722h-.465v.434c.407-.031 1.86-.031 2.356-.031.492 0 1.933 0 2.34.031v-.434h-.465c-1.321 0-1.367-.183-1.367-.722zm32.769 5.25c0 3.543-1.574 4.277-2.473 4.277-.363 0-1.156-.047-1.531-.57h.09c.105.031.645-.063.645-.618 0-.328-.223-.613-.614-.613-.39 0-.633.254-.633.645 0 .929.75 1.562 2.055 1.562 1.875 0 3.692-1.996 3.692-5.254 0-4.035-1.68-5.039-3-5.039-1.649 0-3.106 1.379-3.106 3.36s1.399 3.332 2.899 3.332c1.109 0 1.679-.813 1.976-1.579zm-1.918.781c-.945 0-1.351-.766-1.484-1.051-.242-.57-.242-1.289-.242-1.965 0-.84 0-1.558.39-2.176.27-.406.676-.839 1.485-.839.855 0 1.293.75 1.441 1.097.301.735.301 2.008.301 2.235 0 1.257-.571 2.699-1.891 2.699m33.574-1.637c0-3.793 1.844-4.394 2.657-4.394.539 0 1.078.164 1.363.617-.18 0-.75 0-.75.613 0 .328.226.617.617.617.375 0 .629-.226.629-.664 0-.777-.57-1.543-1.875-1.543-1.891 0-3.871 1.934-3.871 5.235 0 4.125 1.801 5.058 3.074 5.058 1.637 0 3.031-1.426 3.031-3.379 0-1.992-1.394-3.328-2.894-3.328-1.336 0-1.832 1.152-1.981 1.574zm1.844 5.133c-.945 0-1.394-.84-1.527-1.156-.137-.391-.285-1.125-.285-2.176 0-1.184.539-2.668 1.89-2.668.824 0 1.258.555 1.485 1.062.238.555.238 1.305.238 1.954 0 .761 0 1.437-.285 2.007-.375.719-.914.977-1.516.977m34.609-2.43h-.328c-.047.254-.164 1.078-.312 1.321-.11.132-.961.132-1.414.132h-2.774c.407-.343 1.321-1.304 1.711-1.664 2.282-2.101 3.117-2.883 3.117-4.367 0-1.723-1.363-2.879-3.101-2.879-1.742 0-2.762 1.485-2.762 2.778 0 .761.66.761.707.761.313 0 .703-.222.703-.703 0-.422-.285-.707-.703-.707-.137 0-.168 0-.211.016.285-1.02 1.094-1.711 2.071-1.711 1.273 0 2.054 1.066 2.054 2.445 0 1.277-.734 2.387-1.59 3.348l-3.031 3.39v.36h5.477zm5.172-2.898c.75-.403 1.844-1.094 1.844-2.352 0-1.308-1.258-2.207-2.641-2.207-1.484 0-2.652 1.094-2.652 2.461 0 .508.149 1.02.57 1.527.164.196.18.211 1.231.946-1.457.676-2.207 1.679-2.207 2.777 0 1.59 1.515 2.582 3.047 2.582 1.664 0 3.058-1.234 3.058-2.808 0-1.528-1.078-2.204-2.25-2.926m-2.039-1.348c-.195-.137-.797-.527-.797-1.262 0-.972 1.02-1.589 2.028-1.589 1.078 0 2.039.781 2.039 1.859 0 .918-.66 1.652-1.531 2.133zm.703 1.934 1.817 1.187c.39.254 1.082.719 1.082 1.633 0 1.141-1.156 1.922-2.36 1.922-1.273 0-2.367-.93-2.367-2.176 0-1.172.856-2.113 1.828-2.566M12.52-162.895a4.5 4.5 0 0 0 1.335.223c1.696 0 2.778-1.242 2.778-1.457 0-.059-.031-.133-.121-.133-.032 0-.063 0-.196.059a4.9 4.9 0 0 1-1.949.406c-.992 0-1.695-.297-1.984-.418-.102-.047-.133-.047-.149-.047-.117 0-.117.09-.117.332v4.453c0 .274 0 .36.18.36.074 0 .086-.012.238-.196a2.26 2.26 0 0 1 1.875-.972c.793 0 1.184.734 1.305.988.254.586.27 1.32.27 1.891 0 .57 0 1.426-.419 2.101-.332.539-.918.914-1.574.914a2.32 2.32 0 0 1-2.238-1.769.7.7 0 0 0 .242.043c.254 0 .66-.149.66-.656 0-.422-.285-.665-.66-.665-.27 0-.66.137-.66.723 0 1.274 1.02 2.731 2.684 2.731 1.695 0 3.18-1.426 3.18-3.332 0-1.786-1.2-3.27-2.774-3.27-.856 0-1.516.375-1.906.797zm10.87 4.231c0 3.539-1.574 4.273-2.476 4.273-.36 0-1.152-.043-1.531-.57h.094c.101.031.644-.059.644-.613 0-.332-.226-.617-.617-.617-.387 0-.629.257-.629.644 0 .93.75 1.563 2.055 1.563 1.875 0 3.691-1.996 3.691-5.25 0-4.036-1.68-5.043-3-5.043-1.652 0-3.105 1.382-3.105 3.363 0 1.976 1.394 3.328 2.894 3.328 1.11 0 1.68-.809 1.98-1.574zm-1.921.777c-.946 0-1.348-.761-1.485-1.051-.238-.566-.238-1.289-.238-1.96 0-.844 0-1.563.39-2.176.27-.406.677-.84 1.485-.84.856 0 1.29.75 1.442 1.094.296.734.296 2.007.296 2.234 0 1.262-.57 2.699-1.89 2.699m26.351-5.008a4.5 4.5 0 0 0 1.336.223c1.696 0 2.774-1.242 2.774-1.457 0-.059-.032-.133-.117-.133-.032 0-.063 0-.196.059a4.9 4.9 0 0 1-3.933-.012c-.106-.047-.133-.047-.149-.047-.12 0-.12.09-.12.332v4.453c0 .274 0 .36.179.36.078 0 .09-.012.242-.196a2.26 2.26 0 0 1 1.875-.972c.793 0 1.184.734 1.305.988.254.586.27 1.32.27 1.891 0 .57 0 1.426-.419 2.101-.332.539-.918.914-1.578.914a2.32 2.32 0 0 1-2.234-1.769.7.7 0 0 0 .242.043c.254 0 .656-.149.656-.656 0-.422-.281-.665-.656-.665-.274 0-.664.137-.664.723 0 1.274 1.023 2.731 2.687 2.731 1.696 0 3.18-1.426 3.18-3.332 0-1.786-1.2-3.27-2.773-3.27-.856 0-1.516.375-1.907.797zm7.227 3.375c0-3.796 1.844-4.394 2.652-4.394.543 0 1.082.16 1.367.613-.18 0-.75 0-.75.613 0 .333.223.618.614.618.375 0 .633-.227.633-.66 0-.782-.57-1.547-1.876-1.547-1.89 0-3.87 1.937-3.87 5.238 0 4.125 1.8 5.055 3.074 5.055 1.632 0 3.03-1.426 3.03-3.375 0-1.996-1.398-3.332-2.898-3.332-1.332 0-1.828 1.156-1.976 1.574zm1.844 5.129c-.946 0-1.395-.839-1.532-1.156-.132-.387-.285-1.125-.285-2.172 0-1.187.543-2.672 1.89-2.672.825 0 1.263.555 1.485 1.067.242.554.242 1.304.242 1.949 0 .766 0 1.441-.285 2.008-.375.722-.914.976-1.515.976m27.069-5.297c-.257.016-.316.032-.316.168 0 .149.075.149.348.149h.688c1.273 0 1.843 1.051 1.843 2.492 0 1.965-1.02 2.488-1.754 2.488-.718 0-1.949-.343-2.386-1.336.484.079.918-.195.918-.734a.71.71 0 0 0-.735-.734c-.363 0-.75.211-.75.781 0 1.336 1.332 2.43 3 2.43 1.786 0 3.106-1.368 3.106-2.883 0-1.379-1.11-2.457-2.55-2.711 1.304-.379 2.144-1.473 2.144-2.641 0-1.187-1.23-2.058-2.688-2.058-1.5 0-2.61.918-2.61 2.011 0 .602.466.719.692.719.317 0 .676-.223.676-.672 0-.48-.36-.691-.692-.691-.09 0-.12 0-.163.015.57-1.019 1.98-1.019 2.054-1.019.496 0 1.469.223 1.469 1.695 0 .281-.043 1.125-.48 1.77-.45.66-.958.703-1.364.719zm10.032 1.024c0 3.539-1.578 4.273-2.476 4.273-.36 0-1.157-.043-1.532-.57h.09c.106.031.645-.059.645-.613 0-.332-.223-.617-.613-.617-.391 0-.63.257-.63.644 0 .93.75 1.563 2.055 1.563 1.875 0 3.688-1.996 3.688-5.25 0-4.036-1.68-5.043-3-5.043-1.649 0-3.102 1.382-3.102 3.363 0 1.976 1.395 3.328 2.895 3.328 1.11 0 1.68-.809 1.98-1.574zm-1.922.777c-.945 0-1.351-.761-1.484-1.051-.242-.566-.242-1.289-.242-1.96 0-.844 0-1.563.39-2.176.27-.406.676-.84 1.485-.84.855 0 1.293.75 1.441 1.094.3.734.3 2.007.3 2.234 0 1.262-.57 2.699-1.89 2.699m28.75-6.027c0-.348 0-.363-.3-.363-.36.406-1.11.961-2.653.961v.433c.344 0 1.094 0 1.918-.387v7.817c0 .539-.043.719-1.363.719h-.469v.433c.406-.027 1.863-.027 2.36-.027.492 0 1.933 0 2.335.027v-.433h-.46c-1.321 0-1.368-.18-1.368-.719zm9.68 7.094h-.328c-.047.254-.164 1.078-.317 1.32-.105.133-.96.133-1.41.133h-2.773c.402-.344 1.32-1.305 1.707-1.664 2.281-2.098 3.121-2.879 3.121-4.364 0-1.726-1.363-2.882-3.105-2.882-1.739 0-2.762 1.488-2.762 2.777 0 .766.664.766.707.766.316 0 .707-.227.707-.707 0-.418-.285-.704-.707-.704-.137 0-.164 0-.211.012.285-1.015 1.098-1.707 2.07-1.707 1.278 0 2.055 1.067 2.055 2.445 0 1.274-.734 2.383-1.59 3.344l-3.031 3.391v.359h5.476zm25.621-7.094c0-.348 0-.363-.301-.363-.359.406-1.109.961-2.656.961v.433c.344 0 1.098 0 1.922-.387v7.817c0 .539-.047.719-1.367.719h-.465v.433c.406-.027 1.863-.027 2.355-.027.496 0 1.938 0 2.34.027v-.433h-.465c-1.32 0-1.363-.18-1.363-.719zm4.926 4.394c0-3.796 1.844-4.394 2.652-4.394.543 0 1.082.16 1.367.613-.179 0-.75 0-.75.613 0 .333.223.618.614.618.375 0 .633-.227.633-.66 0-.782-.571-1.547-1.875-1.547-1.891 0-3.872 1.937-3.872 5.238 0 4.125 1.801 5.055 3.075 5.055 1.632 0 3.031-1.426 3.031-3.375 0-1.996-1.399-3.332-2.899-3.332-1.332 0-1.828 1.156-1.976 1.574zm1.844 5.129c-.946 0-1.395-.839-1.532-1.156-.132-.387-.285-1.125-.285-2.172 0-1.187.543-2.672 1.891-2.672.824 0 1.262.555 1.484 1.067.242.554.242 1.304.242 1.949 0 .766 0 1.441-.285 2.008-.375.722-.914.976-1.515.976m28.531-9.523c0-.348 0-.363-.301-.363-.359.406-1.109.961-2.656.961v.433c.344 0 1.098 0 1.922-.387v7.817c0 .539-.047.719-1.367.719h-.465v.433c.406-.027 1.859-.027 2.355-.027s1.934 0 2.34.027v-.433h-.465c-1.32 0-1.363-.18-1.363-.719zm10.203.297v-.344h-3.613c-1.817 0-1.848-.195-1.907-.48h-.332l-.464 3h.332c.043-.27.179-1.2.375-1.364.117-.09 1.246-.09 1.453-.09h3.179l-1.585 2.278c-.407.586-1.922 3.047-1.922 5.867 0 .164 0 .766.613.766.633 0 .633-.586.633-.782v-.75c0-2.234.359-3.976 1.062-4.98zm25.195-.297c0-.348 0-.363-.3-.363-.36.406-1.11.961-2.653.961v.433c.344 0 1.094 0 1.918-.387v7.817c0 .539-.043.719-1.363.719h-.469v.433c.406-.027 1.863-.027 2.36-.027.492 0 1.933 0 2.335.027v-.433h-.46c-1.321 0-1.368-.18-1.368-.719zm8.395-.152c0-.286 0-.36-.211-.36-.117 0-.164 0-.285.18l-4.516 7.004v.437h3.945v1.364c0 .558-.027.707-1.125.707h-.296v.433c.343-.027 1.527-.027 1.949-.027.418 0 1.621 0 1.965.027v-.433h-.301c-1.078 0-1.125-.149-1.125-.707v-1.364h1.515v-.437h-1.515zm-.988 1.171v5.653h-3.649zm26.336 3.207c-.258.016-.317.032-.317.168 0 .149.074.149.344.149h.691c1.274 0 1.844 1.051 1.844 2.492 0 1.965-1.02 2.488-1.754 2.488-.723 0-1.949-.343-2.387-1.336.481.079.914-.195.914-.734a.707.707 0 0 0-.734-.734c-.359 0-.75.211-.75.781 0 1.336 1.336 2.43 3 2.43 1.785 0 3.106-1.368 3.106-2.883 0-1.379-1.11-2.457-2.551-2.711 1.304-.379 2.148-1.473 2.148-2.641 0-1.187-1.23-2.058-2.687-2.058-1.5 0-2.61.918-2.61 2.011 0 .602.465.719.688.719.316 0 .68-.223.68-.672 0-.48-.364-.691-.692-.691-.09 0-.121 0-.168.015.57-1.019 1.985-1.019 2.059-1.019.492 0 1.468.223 1.468 1.695 0 .281-.042 1.125-.48 1.77-.449.66-.961.703-1.363.719zm8.859-4.226c0-.348 0-.363-.301-.363-.359.406-1.109.961-2.656.961v.433c.344 0 1.098 0 1.922-.387v7.817c0 .539-.047.719-1.367.719h-.465v.433c.406-.027 1.859-.027 2.355-.027s1.934 0 2.34.027v-.433h-.465c-1.32 0-1.363-.18-1.363-.719zM12.445-124.219c0-3.797 1.844-4.398 2.657-4.398.539 0 1.078.164 1.363.617-.18 0-.75 0-.75.613 0 .332.226.617.617.617.375 0 .629-.226.629-.66 0-.781-.57-1.547-1.875-1.547-1.89 0-3.871 1.938-3.871 5.235 0 4.125 1.8 5.058 3.074 5.058 1.637 0 3.031-1.425 3.031-3.379 0-1.992-1.394-3.328-2.894-3.328-1.336 0-1.832 1.157-1.98 1.575zm1.844 5.129c-.945 0-1.394-.84-1.527-1.156-.137-.387-.285-1.125-.285-2.176 0-1.183.539-2.668 1.89-2.668.824 0 1.258.555 1.485 1.067.238.554.238 1.304.238 1.949 0 .761 0 1.441-.285 2.008-.375.722-.914.976-1.516.976m7.93-9.527c0-.344 0-.36-.297-.36-.36.407-1.11.961-2.656.961v.434c.343 0 1.093 0 1.922-.387v7.813c0 .539-.047.722-1.368.722h-.465v.434c.407-.031 1.86-.031 2.356-.031.492 0 1.934 0 2.34.031v-.434h-.465c-1.32 0-1.367-.183-1.367-.722zm29.097-.149c0-.285 0-.363-.21-.363-.122 0-.165 0-.286.184l-4.515 7.004v.437h3.945v1.363c0 .555-.031.707-1.125.707h-.3v.434c.347-.031 1.53-.031 1.948-.031.422 0 1.621 0 1.97.031v-.434h-.302c-1.082 0-1.125-.152-1.125-.707v-1.363h1.516v-.437h-1.516zm-.992 1.172v5.653H46.68zm10-.722v-.344h-3.613c-1.816 0-1.844-.195-1.906-.481h-.328l-.47 3h.333c.043-.269.18-1.199.375-1.367.12-.086 1.246-.086 1.457-.086h3.18l-1.59 2.278c-.407.586-1.922 3.046-1.922 5.867 0 .164 0 .765.613.765.633 0 .633-.586.633-.781v-.75c0-2.234.36-3.976 1.062-4.98zm26.293-.45c0-.285 0-.363-.21-.363-.122 0-.165 0-.286.184l-4.515 7.004v.437h3.945v1.363c0 .555-.032.707-1.125.707h-.301v.434c.344-.031 1.531-.031 1.95-.031.421 0 1.62 0 1.964.031v-.434h-.297c-1.082 0-1.125-.152-1.125-.707v-1.363h1.516v-.437h-1.516zm-.992 1.172v5.653h-3.644zm9.594 3.793c0-1.246-.075-2.461-.613-3.597-.614-1.247-1.696-1.579-2.43-1.579-.871 0-1.934.438-2.492 1.68-.418.945-.567 1.875-.567 3.496 0 1.457.102 2.551.64 3.617a2.68 2.68 0 0 0 2.403 1.5c1.305 0 2.055-.781 2.488-1.652.543-1.125.57-2.594.57-3.465m-3.059 4.817c-.48 0-1.457-.27-1.738-1.907-.168-.898-.168-2.039-.168-3.089 0-1.231 0-2.34.242-3.227.254-1.004 1.02-1.469 1.664-1.469.57 0 1.442.344 1.727 1.637.195.851.195 2.039.195 3.059 0 1.003 0 2.144-.168 3.058-.285 1.652-1.227 1.938-1.754 1.938m30.943-2.536h-.332c-.043.254-.165 1.079-.313 1.321-.105.133-.961.133-1.41.133h-2.777c.406-.344 1.32-1.305 1.71-1.664 2.282-2.098 3.122-2.879 3.122-4.364 0-1.726-1.368-2.883-3.106-2.883-1.742 0-2.762 1.485-2.762 2.778 0 .761.661.761.707.761.313 0 .704-.222.704-.703 0-.422-.286-.703-.704-.703-.136 0-.168 0-.211.012.286-1.02 1.094-1.707 2.071-1.707 1.273 0 2.054 1.062 2.054 2.445 0 1.274-.734 2.383-1.589 3.344l-3.032 3.391v.359h5.477zm7.519-2.281c0-1.246-.074-2.461-.613-3.597-.617-1.247-1.695-1.579-2.434-1.579-.871 0-1.933.438-2.488 1.68-.422.945-.57 1.875-.57 3.496 0 1.457.105 2.551.644 3.617a2.68 2.68 0 0 0 2.403 1.5c1.304 0 2.054-.781 2.488-1.652.539-1.125.57-2.594.57-3.465m-3.058 4.817c-.485 0-1.458-.27-1.743-1.907-.164-.898-.164-2.039-.164-3.089 0-1.231 0-2.34.239-3.227.253-1.004 1.019-1.469 1.668-1.469.566 0 1.437.344 1.722 1.637.195.851.195 2.039.195 3.059 0 1.003 0 2.144-.164 3.058-.285 1.652-1.23 1.938-1.753 1.938m30.835-2.536h-.328c-.047.254-.164 1.079-.312 1.321-.11.133-.961.133-1.414.133h-2.774c.407-.344 1.321-1.305 1.711-1.664 2.282-2.098 3.117-2.879 3.117-4.364 0-1.726-1.363-2.883-3.101-2.883-1.742 0-2.762 1.485-2.762 2.778 0 .761.66.761.707.761.313 0 .703-.222.703-.703 0-.422-.285-.703-.703-.703-.137 0-.168 0-.211.012.285-1.02 1.094-1.707 2.071-1.707 1.273 0 2.054 1.062 2.054 2.445 0 1.274-.734 2.383-1.59 3.344l-3.031 3.391v.359h5.477zm5.122-7.097c0-.344 0-.36-.301-.36-.36.407-1.11.961-2.653.961v.434c.344 0 1.094 0 1.918-.387v7.813c0 .539-.043.722-1.363.722h-.465v.434c.407-.031 1.86-.031 2.356-.031.492 0 1.933 0 2.34.031v-.434h-.465c-1.321 0-1.367-.183-1.367-.722zm27.902 0c0-.344 0-.36-.301-.36-.359.407-1.109.961-2.656.961v.434c.344 0 1.098 0 1.922-.387v7.813c0 .539-.047.722-1.367.722h-.465v.434c.406-.031 1.859-.031 2.355-.031s1.934 0 2.34.031v-.434h-.465c-1.32 0-1.363-.183-1.363-.722zm8.57 5.25c0 3.543-1.578 4.277-2.476 4.277-.36 0-1.157-.043-1.532-.57h.09c.106.031.645-.059.645-.613 0-.332-.223-.618-.614-.618-.39 0-.628.258-.628.645 0 .93.75 1.562 2.054 1.562 1.875 0 3.688-1.996 3.688-5.254 0-4.031-1.68-5.039-3-5.039-1.649 0-3.102 1.383-3.102 3.36 0 1.98 1.395 3.332 2.895 3.332 1.109 0 1.679-.809 1.98-1.574zm-1.922.781c-.945 0-1.351-.766-1.484-1.051-.242-.566-.242-1.289-.242-1.965 0-.839 0-1.558.39-2.171.27-.407.676-.844 1.485-.844.855 0 1.293.75 1.441 1.097.301.735.301 2.008.301 2.235 0 1.262-.57 2.699-1.891 2.699m28.75-6.031c0-.344 0-.36-.3-.36-.36.407-1.11.961-2.653.961v.434c.344 0 1.094 0 1.918-.387v7.813c0 .539-.043.722-1.363.722h-.469v.434c.406-.031 1.863-.031 2.36-.031.492 0 1.933 0 2.335.031v-.434h-.46c-1.321 0-1.368-.183-1.368-.722zm7.45 4.203c.75-.406 1.847-1.098 1.847-2.356 0-1.308-1.262-2.207-2.64-2.207-1.485 0-2.657 1.094-2.657 2.461 0 .508.149 1.02.571 1.532.164.195.179.211 1.23.945-1.457.672-2.207 1.68-2.207 2.773 0 1.59 1.516 2.582 3.047 2.582 1.664 0 3.059-1.23 3.059-2.808 0-1.528-1.079-2.203-2.25-2.922m-2.04-1.352c-.195-.132-.796-.523-.796-1.257 0-.977 1.019-1.594 2.027-1.594 1.078 0 2.039.781 2.039 1.859 0 .918-.66 1.653-1.531 2.133zm.708 1.938 1.812 1.183c.391.254 1.082.719 1.082 1.633 0 1.141-1.156 1.922-2.355 1.922-1.278 0-2.372-.93-2.372-2.176 0-1.172.856-2.113 1.833-2.562m31.46 2.308h-.328c-.047.254-.164 1.079-.312 1.321-.11.133-.961.133-1.414.133h-2.774c.407-.344 1.321-1.305 1.711-1.664 2.282-2.098 3.117-2.879 3.117-4.364 0-1.726-1.363-2.883-3.101-2.883-1.742 0-2.762 1.485-2.762 2.778 0 .761.66.761.707.761.313 0 .703-.222.703-.703 0-.422-.285-.703-.703-.703-.137 0-.168 0-.211.012.285-1.02 1.094-1.707 2.071-1.707 1.273 0 2.054 1.062 2.054 2.445 0 1.274-.734 2.383-1.59 3.344l-3.031 3.391v.359h5.477zm7.829-6.796v-.344h-3.618c-1.812 0-1.843-.195-1.906-.481h-.328l-.465 3h.332c.043-.269.18-1.199.375-1.367.117-.086 1.242-.086 1.453-.086h3.18l-1.59 2.278c-.406.586-1.918 3.046-1.918 5.867 0 .164 0 .765.613.765.629 0 .629-.586.629-.781v-.75c0-2.234.36-3.976 1.067-4.98zM12.445-88.922c0-3.793 1.844-4.394 2.657-4.394.539 0 1.078.164 1.363.617-.18 0-.75 0-.75.613 0 .328.226.617.617.617.375 0 .629-.226.629-.664 0-.777-.57-1.543-1.875-1.543-1.89 0-3.871 1.934-3.871 5.235 0 4.125 1.8 5.058 3.074 5.058 1.637 0 3.031-1.426 3.031-3.379 0-1.992-1.394-3.328-2.894-3.328-1.336 0-1.832 1.153-1.98 1.574zm1.844 5.133c-.945 0-1.394-.84-1.527-1.156-.137-.39-.285-1.125-.285-2.176 0-1.184.539-2.668 1.89-2.668.824 0 1.258.555 1.485 1.062.238.555.238 1.305.238 1.954 0 .761 0 1.437-.285 2.007-.375.72-.914.977-1.516.977M24.621-88.5c0-1.246-.074-2.46-.613-3.602-.617-1.242-1.695-1.574-2.434-1.574-.87 0-1.933.434-2.488 1.68-.422.945-.57 1.875-.57 3.496 0 1.453.105 2.55.644 3.617a2.68 2.68 0 0 0 2.403 1.5c1.304 0 2.054-.781 2.488-1.652.539-1.125.57-2.594.57-3.465m-3.058 4.816c-.485 0-1.457-.27-1.743-1.906-.164-.902-.164-2.039-.164-3.09 0-1.23 0-2.34.239-3.226.253-1.004 1.02-1.469 1.668-1.469.566 0 1.437.344 1.722 1.633.195.855.195 2.043.195 3.062 0 1.004 0 2.145-.164 3.059-.285 1.652-1.23 1.937-1.753 1.937m26.257-8.613a4.4 4.4 0 0 0 1.336.227c1.696 0 2.774-1.246 2.774-1.457 0-.059-.032-.133-.117-.133-.032 0-.063 0-.196.058a5 5 0 0 1-1.953.407c-.988 0-1.695-.301-1.98-.422-.106-.043-.133-.043-.149-.043-.12 0-.12.09-.12.328v4.457c0 .27 0 .36.179.36.078 0 .09-.016.242-.196a2.27 2.27 0 0 1 1.875-.977c.793 0 1.184.739 1.305.993.254.586.27 1.32.27 1.89s0 1.426-.419 2.102c-.332.539-.918.914-1.578.914a2.32 2.32 0 0 1-2.234-1.773.7.7 0 0 0 .242.046c.254 0 .656-.148.656-.66 0-.418-.281-.66-.656-.66-.274 0-.664.137-.664.719 0 1.277 1.023 2.734 2.687 2.734 1.696 0 3.18-1.426 3.18-3.332 0-1.785-1.2-3.27-2.773-3.27-.856 0-1.516.376-1.907.794zm8.14 3.211c-.257.016-.316.031-.316.164 0 .153.075.153.348.153h.688c1.273 0 1.843 1.05 1.843 2.488 0 1.965-1.02 2.492-1.754 2.492-.718 0-1.949-.344-2.386-1.336.484.074.918-.195.918-.734a.71.71 0 0 0-.735-.735c-.363 0-.75.207-.75.778 0 1.335 1.332 2.433 3 2.433 1.786 0 3.106-1.367 3.106-2.883 0-1.378-1.11-2.46-2.55-2.715 1.304-.375 2.144-1.468 2.144-2.64 0-1.184-1.23-2.055-2.688-2.055-1.5 0-2.61.914-2.61 2.012 0 .598.466.719.692.719.317 0 .676-.227.676-.676 0-.48-.36-.692-.691-.692-.09 0-.122 0-.165.016.57-1.02 1.98-1.02 2.055-1.02.496 0 1.469.227 1.469 1.696 0 .285-.043 1.125-.48 1.77-.45.66-.958.707-1.364.718zm28 0c-.257.016-.316.031-.316.164 0 .153.075.153.348.153h.688c1.273 0 1.843 1.05 1.843 2.488 0 1.965-1.02 2.492-1.754 2.492-.718 0-1.949-.344-2.386-1.336.484.074.918-.195.918-.734a.71.71 0 0 0-.735-.735c-.363 0-.75.207-.75.778 0 1.335 1.332 2.433 3 2.433 1.786 0 3.106-1.367 3.106-2.883 0-1.378-1.11-2.46-2.55-2.715 1.304-.375 2.144-1.468 2.144-2.64 0-1.184-1.23-2.055-2.688-2.055-1.5 0-2.61.914-2.61 2.012 0 .598.466.719.692.719.317 0 .676-.227.676-.676 0-.48-.36-.692-.692-.692-.09 0-.12 0-.163.016.57-1.02 1.98-1.02 2.054-1.02.496 0 1.469.227 1.469 1.696 0 .285-.043 1.125-.48 1.77-.45.66-.958.707-1.364.718zm11.665-3.93v-.343h-3.613c-1.817 0-1.848-.196-1.906-.48h-.333l-.464 3h.332c.043-.27.18-1.2.375-1.368.117-.09 1.246-.09 1.453-.09h3.18l-1.587 2.281c-.406.586-1.921 3.047-1.921 5.868 0 .164 0 .765.613.765.633 0 .633-.586.633-.781v-.75c0-2.234.36-3.977 1.062-4.98zm27.477 6.797h-.332c-.043.254-.165 1.078-.313 1.32-.105.133-.961.133-1.41.133h-2.777c.406-.343 1.32-1.304 1.71-1.664 2.282-2.101 3.122-2.882 3.122-4.367 0-1.722-1.368-2.879-3.106-2.879-1.742 0-2.762 1.485-2.762 2.778 0 .761.661.761.707.761.313 0 .704-.222.704-.703 0-.422-.286-.707-.704-.707-.136 0-.168 0-.211.016.286-1.02 1.094-1.711 2.071-1.711 1.273 0 2.054 1.066 2.054 2.445 0 1.278-.734 2.387-1.589 3.348l-3.032 3.39v.36h5.477zm6.214-7.246c0-.285 0-.363-.211-.363-.121 0-.164 0-.285.184l-4.515 7.003v.438h3.945v1.363c0 .555-.031.707-1.125.707h-.301v.434c.348-.032 1.531-.032 1.949-.032.422 0 1.622 0 1.969.032v-.434h-.301c-1.082 0-1.125-.152-1.125-.707v-1.363h1.516v-.438h-1.516zm-.992 1.168v5.656h-3.644zm27.797-1.019c0-.344 0-.36-.301-.36-.359.407-1.109.961-2.656.961v.434c.344 0 1.098 0 1.922-.39v7.816c0 .539-.047.722-1.367.722h-.465v.434c.406-.032 1.863-.032 2.355-.032.496 0 1.938 0 2.34.032v-.434h-.465c-1.32 0-1.363-.183-1.363-.723zm5 1.019a4.4 4.4 0 0 0 1.332.227c1.695 0 2.777-1.246 2.777-1.457 0-.059-.031-.133-.121-.133-.027 0-.058 0-.195.058-.84.36-1.559.407-1.949.407-.988 0-1.695-.301-1.981-.422-.105-.043-.132-.043-.148-.043-.121 0-.121.09-.121.328v4.457c0 .27 0 .36.18.36.074 0 .089-.016.242-.196a2.27 2.27 0 0 1 1.875-.977c.793 0 1.183.739 1.304.993.254.586.27 1.32.27 1.89s0 1.426-.422 2.102c-.328.539-.914.914-1.574.914a2.32 2.32 0 0 1-2.235-1.773.7.7 0 0 0 .239.046c.258 0 .66-.148.66-.66 0-.418-.285-.66-.66-.66-.27 0-.66.137-.66.719 0 1.277 1.019 2.734 2.687 2.734 1.695 0 3.18-1.426 3.18-3.332 0-1.785-1.199-3.27-2.778-3.27a2.6 2.6 0 0 0-1.902.794zm32.578 6.078h-.328c-.047.254-.164 1.078-.316 1.32-.106.133-.961.133-1.41.133h-2.774c.402-.343 1.32-1.304 1.707-1.664 2.281-2.101 3.121-2.882 3.121-4.367 0-1.722-1.363-2.879-3.105-2.879-1.739 0-2.758 1.485-2.758 2.778 0 .761.66.761.703.761.316 0 .707-.222.707-.703 0-.422-.285-.707-.707-.707-.133 0-.164 0-.211.016.289-1.02 1.098-1.711 2.07-1.711 1.278 0 2.055 1.066 2.055 2.445 0 1.278-.734 2.387-1.586 3.348l-3.031 3.39v.36h5.477zm2.723-6.078a4.4 4.4 0 0 0 1.332.227c1.695 0 2.777-1.246 2.777-1.457 0-.059-.031-.133-.121-.133-.027 0-.058 0-.195.058-.84.36-1.559.407-1.949.407-.993 0-1.696-.301-1.981-.422-.105-.043-.137-.043-.152-.043-.117 0-.117.09-.117.328v4.457c0 .27 0 .36.179.36.075 0 .09-.016.243-.196a2.27 2.27 0 0 1 1.875-.977c.792 0 1.183.739 1.304.993.254.586.27 1.32.27 1.89s0 1.426-.422 2.102c-.328.539-.914.914-1.574.914a2.316 2.316 0 0 1-2.235-1.773.7.7 0 0 0 .239.046c.253 0 .66-.148.66-.66 0-.418-.285-.66-.66-.66-.27 0-.661.137-.661.719 0 1.277 1.02 2.734 2.688 2.734 1.695 0 3.18-1.426 3.18-3.332 0-1.785-1.204-3.27-2.778-3.27-.855 0-1.511.376-1.902.794zm32.68 6.078h-.332c-.043.254-.165 1.078-.313 1.32-.105.133-.961.133-1.41.133h-2.777c.406-.343 1.32-1.304 1.71-1.664 2.282-2.101 3.122-2.882 3.122-4.367 0-1.722-1.368-2.879-3.106-2.879-1.742 0-2.762 1.485-2.762 2.778 0 .761.661.761.707.761.313 0 .704-.222.704-.703 0-.422-.286-.707-.704-.707-.136 0-.168 0-.211.016.286-1.02 1.094-1.711 2.071-1.711 1.273 0 2.054 1.066 2.054 2.445 0 1.278-.734 2.387-1.589 3.348l-3.032 3.39v.36h5.477zm3.461-2.867c-.258.016-.317.031-.317.164 0 .153.074.153.344.153h.691c1.274 0 1.844 1.05 1.844 2.488 0 1.965-1.02 2.492-1.754 2.492-.723 0-1.949-.344-2.387-1.336.481.074.914-.195.914-.734 0-.438-.312-.735-.734-.735-.359 0-.75.207-.75.778 0 1.335 1.336 2.433 3 2.433 1.785 0 3.106-1.367 3.106-2.883 0-1.378-1.11-2.46-2.551-2.715 1.304-.375 2.148-1.468 2.148-2.64 0-1.184-1.23-2.055-2.687-2.055-1.5 0-2.61.914-2.61 2.012 0 .598.465.719.688.719.316 0 .68-.227.68-.676 0-.48-.364-.692-.692-.692-.09 0-.121 0-.168.016.57-1.02 1.985-1.02 2.059-1.02.492 0 1.468.227 1.468 1.696 0 .285-.042 1.125-.48 1.77-.449.66-.961.707-1.363.718zm31.835 2.867h-.328c-.047.254-.164 1.078-.312 1.32-.11.133-.961.133-1.414.133h-2.774c.407-.343 1.321-1.304 1.711-1.664 2.282-2.101 3.117-2.882 3.117-4.367 0-1.722-1.363-2.879-3.101-2.879-1.742 0-2.762 1.485-2.762 2.778 0 .761.66.761.707.761.313 0 .703-.222.703-.703 0-.422-.285-.707-.703-.707-.137 0-.168 0-.211.016.285-1.02 1.094-1.711 2.071-1.711 1.273 0 2.054 1.066 2.054 2.445 0 1.278-.734 2.387-1.59 3.348l-3.031 3.39v.36h5.477zm7.301 0h-.328c-.047.254-.164 1.078-.316 1.32-.106.133-.961.133-1.41.133h-2.774c.402-.343 1.32-1.304 1.707-1.664 2.281-2.101 3.121-2.882 3.121-4.367 0-1.722-1.363-2.879-3.105-2.879-1.739 0-2.758 1.485-2.758 2.778 0 .761.66.761.703.761.316 0 .707-.222.707-.703 0-.422-.285-.707-.707-.707-.133 0-.164 0-.211.016.289-1.02 1.098-1.711 2.07-1.711 1.278 0 2.055 1.066 2.055 2.445 0 1.278-.734 2.387-1.586 3.348l-3.031 3.39v.36h5.477zM12.445-53.621c0-3.793 1.844-4.395 2.657-4.395.539 0 1.078.164 1.363.618-.18 0-.75 0-.75.613 0 .328.226.613.617.613.375 0 .629-.223.629-.66 0-.777-.57-1.543-1.875-1.543-1.89 0-3.871 1.934-3.871 5.234 0 4.125 1.8 5.055 3.074 5.055 1.637 0 3.031-1.422 3.031-3.375 0-1.992-1.394-3.328-2.894-3.328-1.336 0-1.832 1.152-1.98 1.574zm1.844 5.129c-.945 0-1.394-.836-1.527-1.153-.137-.39-.285-1.124-.285-2.175 0-1.184.539-2.672 1.89-2.672.824 0 1.258.554 1.485 1.066.238.555.238 1.305.238 1.95 0 .765 0 1.44-.285 2.011-.375.719-.914.973-1.516.973m6.371-5.293c-.254.015-.316.031-.316.164 0 .152.078.152.347.152h.688c1.277 0 1.848 1.047 1.848 2.489 0 1.964-1.024 2.488-1.758 2.488-.719 0-1.95-.344-2.383-1.332.48.074.914-.196.914-.739a.71.71 0 0 0-.734-.734c-.36 0-.75.211-.75.781 0 1.336 1.336 2.43 3 2.43 1.785 0 3.105-1.363 3.105-2.879 0-1.379-1.11-2.46-2.55-2.715 1.304-.375 2.144-1.468 2.144-2.64 0-1.188-1.23-2.055-2.684-2.055-1.5 0-2.61.914-2.61 2.008 0 .601.462.722.688.722.317 0 .676-.226.676-.675 0-.48-.36-.692-.691-.692-.09 0-.117 0-.164.016.57-1.02 1.98-1.02 2.054-1.02.496 0 1.47.227 1.47 1.696 0 .285-.044 1.125-.477 1.77-.454.66-.961.706-1.368.718zm30.656-4.379c0-.29 0-.363-.21-.363-.122 0-.165 0-.286.183l-4.515 7.004v.434h3.945v1.367c0 .555-.031.703-1.125.703h-.3v.438c.347-.032 1.53-.032 1.948-.032.422 0 1.621 0 1.97.032v-.438h-.302c-1.082 0-1.125-.148-1.125-.703v-1.367h1.516v-.434h-1.516zm-.992 1.168v5.656H46.68zm4.723 3.375c0-3.793 1.844-4.395 2.652-4.395.543 0 1.082.164 1.367.618-.18 0-.75 0-.75.613 0 .328.223.613.614.613.375 0 .633-.223.633-.66 0-.777-.57-1.543-1.876-1.543-1.89 0-3.87 1.934-3.87 5.234 0 4.125 1.8 5.055 3.074 5.055 1.632 0 3.03-1.422 3.03-3.375 0-1.992-1.398-3.328-2.898-3.328-1.332 0-1.828 1.152-1.976 1.574zm1.844 5.129c-.946 0-1.395-.836-1.532-1.153-.132-.39-.285-1.124-.285-2.175 0-1.184.543-2.672 1.89-2.672.825 0 1.263.554 1.485 1.066.242.555.242 1.305.242 1.95 0 .765 0 1.44-.285 2.011-.375.719-.914.973-1.515.973m30.909-2.43h-.331c-.043.258-.164 1.082-.313 1.32-.105.137-.96.137-1.41.137H82.97c.406-.344 1.32-1.304 1.71-1.664 2.282-2.102 3.122-2.883 3.122-4.367 0-1.723-1.364-2.879-3.106-2.879s-2.761 1.484-2.761 2.773c0 .766.66.766.707.766.312 0 .703-.227.703-.703 0-.422-.281-.707-.703-.707-.137 0-.164 0-.211.016.285-1.02 1.093-1.711 2.07-1.711 1.273 0 2.055 1.066 2.055 2.445 0 1.277-.735 2.387-1.59 3.348l-3.031 3.39v.36h5.476zm6.192-1.844c0 3.54-1.578 4.274-2.476 4.274-.36 0-1.157-.043-1.532-.567h.09c.106.028.645-.062.645-.617 0-.328-.223-.613-.613-.613-.391 0-.63.254-.63.645 0 .93.75 1.558 2.055 1.558 1.875 0 3.688-1.992 3.688-5.25 0-4.035-1.68-5.039-3-5.039-1.649 0-3.102 1.379-3.102 3.36s1.395 3.328 2.895 3.328c1.11 0 1.68-.81 1.98-1.575zm-1.922.782c-.945 0-1.351-.766-1.484-1.051-.242-.57-.242-1.29-.242-1.965 0-.84 0-1.562.39-2.176.27-.406.676-.84 1.485-.84.855 0 1.293.75 1.441 1.094.3.734.3 2.012.3 2.234 0 1.262-.57 2.704-1.89 2.704m27.192-1.801c-.258.015-.317.031-.317.164 0 .152.075.152.344.152h.691c1.274 0 1.844 1.047 1.844 2.489 0 1.964-1.019 2.488-1.754 2.488-.718 0-1.949-.344-2.386-1.332.48.074.918-.196.918-.739a.71.71 0 0 0-.735-.734c-.363 0-.75.211-.75.781 0 1.336 1.332 2.43 3 2.43 1.781 0 3.102-1.363 3.102-2.879 0-1.379-1.11-2.46-2.547-2.715 1.305-.375 2.144-1.468 2.144-2.64 0-1.188-1.23-2.055-2.687-2.055-1.5 0-2.609.914-2.609 2.008 0 .601.464.722.691.722.312 0 .676-.226.676-.675 0-.48-.364-.692-.692-.692-.09 0-.121 0-.164.016.571-1.02 1.981-1.02 2.055-1.02.492 0 1.469.227 1.469 1.696 0 .285-.043 1.125-.481 1.77-.449.66-.957.706-1.363.718zm7.398 0c-.254.015-.316.031-.316.164 0 .152.078.152.347.152h.688c1.277 0 1.848 1.047 1.848 2.489 0 1.964-1.024 2.488-1.758 2.488-.719 0-1.949-.344-2.383-1.332.48.074.914-.196.914-.739a.71.71 0 0 0-.734-.734c-.36 0-.75.211-.75.781 0 1.336 1.336 2.43 3 2.43 1.785 0 3.105-1.363 3.105-2.879 0-1.379-1.109-2.46-2.551-2.715 1.305-.375 2.145-1.468 2.145-2.64 0-1.188-1.231-2.055-2.684-2.055-1.5 0-2.609.914-2.609 2.008 0 .601.461.722.687.722.317 0 .676-.226.676-.675 0-.48-.359-.692-.691-.692-.09 0-.117 0-.164.016.57-1.02 1.98-1.02 2.054-1.02.496 0 1.469.227 1.469 1.696 0 .285-.043 1.125-.476 1.77-.454.66-.961.706-1.368.718zm27.903 0c-.258.015-.317.031-.317.164 0 .152.074.152.344.152h.691c1.274 0 1.844 1.047 1.844 2.489 0 1.964-1.02 2.488-1.754 2.488-.723 0-1.949-.344-2.387-1.332.481.074.914-.196.914-.739a.707.707 0 0 0-.734-.734c-.359 0-.75.211-.75.781 0 1.336 1.336 2.43 3 2.43 1.785 0 3.106-1.363 3.106-2.879 0-1.379-1.11-2.46-2.551-2.715 1.304-.375 2.148-1.468 2.148-2.64 0-1.188-1.23-2.055-2.687-2.055-1.5 0-2.61.914-2.61 2.008 0 .601.465.722.688.722.316 0 .68-.226.68-.675 0-.48-.364-.692-.692-.692-.09 0-.121 0-.168.016.57-1.02 1.985-1.02 2.059-1.02.492 0 1.468.227 1.468 1.696 0 .285-.042 1.125-.48 1.77-.449.66-.961.706-1.363.718zm6.558-3.211c.645.21 1.168.227 1.332.227 1.695 0 2.777-1.247 2.777-1.458 0-.058-.031-.132-.121-.132-.027 0-.058 0-.195.058-.84.36-1.559.407-1.949.407-.988 0-1.695-.301-1.981-.422-.105-.043-.132-.043-.148-.043-.121 0-.121.09-.121.328v4.457c0 .27 0 .36.18.36.074 0 .089-.017.242-.196a2.27 2.27 0 0 1 1.875-.977c.793 0 1.183.739 1.304.992.254.583.27 1.32.27 1.891 0 .566 0 1.426-.422 2.098-.328.539-.914.914-1.574.914a2.32 2.32 0 0 1-2.235-1.77.7.7 0 0 0 .239.047c.258 0 .66-.152.66-.66 0-.422-.285-.66-.66-.66-.27 0-.66.137-.66.719 0 1.277 1.019 2.73 2.687 2.73 1.695 0 3.18-1.422 3.18-3.328 0-1.785-1.199-3.273-2.778-3.273-.851 0-1.511.374-1.902.796zm28.738 3.211c-.254.015-.312.031-.312.164 0 .152.074.152.344.152h.687c1.277 0 1.848 1.047 1.848 2.489 0 1.964-1.02 2.488-1.754 2.488-.723 0-1.953-.344-2.387-1.332.481.074.914-.196.914-.739a.71.71 0 0 0-.734-.734c-.36 0-.75.211-.75.781 0 1.336 1.336 2.43 3 2.43 1.785 0 3.105-1.363 3.105-2.879 0-1.379-1.109-2.46-2.55-2.715 1.304-.375 2.144-1.468 2.144-2.64 0-1.188-1.226-2.055-2.684-2.055-1.5 0-2.609.914-2.609 2.008 0 .601.465.722.688.722.316 0 .675-.226.675-.675 0-.48-.359-.692-.687-.692-.094 0-.121 0-.168.016.57-1.02 1.98-1.02 2.059-1.02.492 0 1.468.227 1.468 1.696 0 .285-.047 1.125-.48 1.77-.449.66-.961.706-1.363.718zm9.11-.031c.75-.403 1.847-1.094 1.847-2.356 0-1.305-1.261-2.203-2.64-2.203-1.485 0-2.656 1.094-2.656 2.46 0 .509.152 1.02.57 1.528.164.196.18.211 1.23.946-1.453.675-2.203 1.68-2.203 2.777 0 1.59 1.512 2.578 3.043 2.578 1.664 0 3.059-1.23 3.059-2.805 0-1.53-1.078-2.203-2.25-2.925m-2.039-1.348c-.196-.137-.797-.527-.797-1.262 0-.972 1.023-1.59 2.027-1.59 1.082 0 2.039.782 2.039 1.86 0 .914-.66 1.648-1.527 2.133zm.707 1.934 1.812 1.183c.391.258 1.082.723 1.082 1.637 0 1.14-1.156 1.918-2.355 1.918-1.278 0-2.371-.93-2.371-2.172 0-1.172.855-2.117 1.832-2.566m30.277-4.934c0-.29 0-.363-.211-.363-.117 0-.164 0-.281.183l-4.516 7.004v.434h3.946v1.367c0 .555-.032.703-1.125.703h-.301v.438c.344-.032 1.527-.032 1.949-.032s1.621 0 1.965.032v-.438h-.301c-1.078 0-1.125-.148-1.125-.703v-1.367h1.516v-.434h-1.516zm-.988 1.168v5.656h-3.645zm9.472 6.074h-.328c-.047.258-.164 1.082-.312 1.32-.11.137-.961.137-1.414.137h-2.774c.407-.344 1.321-1.304 1.711-1.664 2.282-2.102 3.117-2.883 3.117-4.367 0-1.723-1.363-2.879-3.101-2.879-1.742 0-2.762 1.484-2.762 2.773 0 .766.66.766.707.766.313 0 .703-.227.703-.703 0-.422-.285-.707-.703-.707-.137 0-.168 0-.211.016.285-1.02 1.094-1.711 2.071-1.711 1.273 0 2.054 1.066 2.054 2.445 0 1.277-.734 2.387-1.59 3.348l-3.031 3.39v.36h5.477zm24.165-2.863c-.258.015-.317.031-.317.164 0 .152.074.152.344.152h.691c1.274 0 1.844 1.047 1.844 2.489 0 1.964-1.02 2.488-1.754 2.488-.723 0-1.949-.344-2.387-1.332.481.074.914-.196.914-.739a.707.707 0 0 0-.734-.734c-.359 0-.75.211-.75.781 0 1.336 1.336 2.43 3 2.43 1.785 0 3.106-1.363 3.106-2.879 0-1.379-1.11-2.46-2.551-2.715 1.304-.375 2.148-1.468 2.148-2.64 0-1.188-1.23-2.055-2.687-2.055-1.5 0-2.61.914-2.61 2.008 0 .601.465.722.688.722.316 0 .68-.226.68-.675 0-.48-.364-.692-.692-.692-.09 0-.121 0-.168.016.57-1.02 1.985-1.02 2.059-1.02.492 0 1.468.227 1.468 1.696 0 .285-.042 1.125-.48 1.77-.449.66-.961.706-1.363.718zm9.953-4.379c0-.29 0-.363-.211-.363-.117 0-.164 0-.285.183l-4.516 7.004v.434h3.945v1.367c0 .555-.027.703-1.125.703h-.301v.438c.348-.032 1.532-.032 1.954-.032.418 0 1.617 0 1.964.032v-.438h-.3c-1.078 0-1.125-.148-1.125-.703v-1.367h1.515v-.434h-1.515zm-.993 1.168v5.656h-3.644zM12.52-21.695a4.5 4.5 0 0 0 1.335.226c1.696 0 2.778-1.246 2.778-1.457 0-.058-.031-.137-.121-.137-.032 0-.063 0-.196.063a4.9 4.9 0 0 1-1.949.406c-.992 0-1.695-.3-1.984-.422-.102-.047-.133-.047-.149-.047-.117 0-.117.094-.117.332v4.458c0 .27 0 .359.18.359.074 0 .086-.016.238-.195a2.26 2.26 0 0 1 1.875-.977c.793 0 1.184.734 1.305.992.254.582.27 1.32.27 1.89 0 .567 0 1.423-.419 2.099-.332.539-.918.914-1.574.914a2.32 2.32 0 0 1-2.238-1.77.7.7 0 0 0 .242.047c.254 0 .66-.152.66-.66 0-.422-.285-.66-.66-.66-.27 0-.66.132-.66.718 0 1.274 1.02 2.73 2.684 2.73 1.695 0 3.18-1.425 3.18-3.331 0-1.781-1.2-3.27-2.774-3.27-.856 0-1.516.375-1.906.797zm9.851 3.179c.75-.406 1.844-1.093 1.844-2.355 0-1.305-1.262-2.207-2.64-2.207-1.485 0-2.653 1.098-2.653 2.46 0 .512.148 1.024.57 1.532.164.195.18.211 1.227.945-1.453.676-2.203 1.68-2.203 2.774 0 1.594 1.515 2.582 3.047 2.582 1.664 0 3.058-1.23 3.058-2.805 0-1.531-1.082-2.207-2.25-2.926m-2.043-1.351c-.191-.133-.793-.524-.793-1.258 0-.977 1.02-1.59 2.027-1.59 1.079 0 2.04.777 2.04 1.86 0 .914-.66 1.648-1.532 2.128zm.707 1.937 1.817 1.184c.39.254 1.078.723 1.078 1.637 0 1.14-1.157 1.918-2.356 1.918-1.273 0-2.37-.93-2.37-2.176 0-1.168.858-2.113 1.831-2.563m26.785-3.765a4.5 4.5 0 0 0 1.336.226c1.696 0 2.774-1.246 2.774-1.457 0-.058-.032-.137-.117-.137-.032 0-.063 0-.196.063a5 5 0 0 1-1.953.406c-.988 0-1.695-.3-1.98-.422-.106-.047-.133-.047-.149-.047-.12 0-.12.094-.12.332v4.458c0 .27 0 .359.179.359.078 0 .09-.016.242-.195a2.26 2.26 0 0 1 1.875-.977c.793 0 1.184.734 1.305.992.254.582.27 1.32.27 1.89 0 .567 0 1.423-.419 2.099-.332.539-.918.914-1.578.914a2.32 2.32 0 0 1-2.234-1.77.7.7 0 0 0 .242.047c.254 0 .656-.152.656-.66 0-.422-.281-.66-.656-.66-.274 0-.664.132-.664.718 0 1.274 1.023 2.73 2.687 2.73 1.696 0 3.18-1.425 3.18-3.331 0-1.781-1.2-3.27-2.773-3.27-.856 0-1.516.375-1.907.797zm9.7-1.02c0-.348 0-.363-.301-.363-.36.406-1.11.96-2.653.96v.438c.344 0 1.094 0 1.918-.39v7.816c0 .54-.043.719-1.363.719h-.465v.433c.407-.027 1.86-.027 2.356-.027.492 0 1.933 0 2.34.027v-.433h-.465c-1.32 0-1.367-.18-1.367-.719zm29.097-.152c0-.285 0-.36-.21-.36-.122 0-.165 0-.286.18l-4.515 7.008v.434h3.945v1.363c0 .558-.032.707-1.125.707h-.301v.433c.344-.027 1.531-.027 1.95-.027.421 0 1.62 0 1.964.027v-.433h-.297c-1.082 0-1.125-.149-1.125-.707v-1.363h1.516v-.434h-1.516zm-.992 1.172v5.656h-3.644zm8.367 4.23c0 3.54-1.578 4.274-2.476 4.274-.36 0-1.157-.043-1.532-.567h.09c.106.027.645-.062.645-.617 0-.328-.223-.617-.613-.617-.391 0-.63.258-.63.648 0 .93.75 1.559 2.055 1.559 1.875 0 3.688-1.996 3.688-5.25 0-4.035-1.68-5.043-3-5.043-1.649 0-3.102 1.383-3.102 3.363s1.395 3.328 2.895 3.328c1.11 0 1.68-.808 1.98-1.574zm-1.922.777c-.945 0-1.351-.761-1.484-1.046-.242-.57-.242-1.29-.242-1.965 0-.84 0-1.563.39-2.176.27-.406.676-.84 1.485-.84.855 0 1.293.75 1.441 1.094.3.734.3 2.012.3 2.234 0 1.262-.57 2.7-1.89 2.7m26.352-5.008c.644.21 1.168.226 1.332.226 1.695 0 2.777-1.246 2.777-1.457 0-.058-.031-.137-.121-.137-.027 0-.058 0-.195.063a4.87 4.87 0 0 1-3.93-.016c-.105-.047-.137-.047-.152-.047-.117 0-.117.094-.117.332v4.458c0 .27 0 .359.179.359.075 0 .09-.016.243-.195a2.26 2.26 0 0 1 1.875-.977c.792 0 1.183.734 1.304.992.254.582.27 1.32.27 1.89 0 .567 0 1.423-.422 2.099-.328.539-.914.914-1.574.914a2.32 2.32 0 0 1-2.235-1.77.7.7 0 0 0 .239.047c.253 0 .66-.152.66-.66 0-.422-.285-.66-.66-.66-.27 0-.661.132-.661.718 0 1.274 1.02 2.73 2.688 2.73 1.695 0 3.18-1.425 3.18-3.331 0-1.781-1.204-3.27-2.778-3.27-.855 0-1.511.375-1.902.797zm10.894-1.172c0-.285 0-.36-.211-.36-.121 0-.164 0-.285.18l-4.515 7.008v.434h3.945v1.363c0 .558-.031.707-1.125.707h-.301v.433c.348-.027 1.531-.027 1.949-.027.422 0 1.622 0 1.969.027v-.433h-.301c-1.082 0-1.125-.149-1.125-.707v-1.363h1.516v-.434h-1.516zm-.992 1.172v5.656h-3.644zm25.395 0c.648.21 1.172.226 1.336.226 1.695 0 2.777-1.246 2.777-1.457 0-.058-.031-.137-.121-.137-.031 0-.063 0-.195.063a4.87 4.87 0 0 1-3.93-.016c-.106-.047-.137-.047-.152-.047-.118 0-.118.094-.118.332v4.458c0 .27 0 .359.18.359.074 0 .09-.016.238-.195a2.26 2.26 0 0 1 1.875-.977c.797 0 1.188.734 1.305.992.258.582.274 1.32.274 1.89 0 .567 0 1.423-.422 2.099-.328.539-.914.914-1.575.914a2.325 2.325 0 0 1-2.238-1.77.7.7 0 0 0 .242.047c.254 0 .66-.152.66-.66 0-.422-.285-.66-.66-.66-.269 0-.66.132-.66.718 0 1.274 1.02 2.73 2.684 2.73 1.695 0 3.179-1.425 3.179-3.331 0-1.781-1.199-3.27-2.773-3.27-.855 0-1.516.375-1.906.797zm12.605-.719v-.348h-3.613c-1.816 0-1.844-.195-1.906-.48h-.328l-.469 3h.332c.043-.27.18-1.2.375-1.363.121-.09 1.246-.09 1.457-.09h3.18l-1.59 2.28c-.407.583-1.922 3.044-1.922 5.864 0 .168 0 .766.613.766.633 0 .633-.586.633-.781v-.75c0-2.235.359-3.973 1.062-4.98zm22.696.719a4.5 4.5 0 0 0 1.335.226c1.696 0 2.778-1.246 2.778-1.457 0-.058-.031-.137-.121-.137-.032 0-.063 0-.196.063a4.95 4.95 0 0 1-1.949.406c-.992 0-1.695-.3-1.984-.422-.102-.047-.133-.047-.149-.047-.117 0-.117.094-.117.332v4.458c0 .27 0 .359.18.359.074 0 .086-.016.238-.195a2.26 2.26 0 0 1 1.875-.977c.793 0 1.184.734 1.305.992.254.582.269 1.32.269 1.89 0 .567 0 1.423-.418 2.099-.332.539-.918.914-1.574.914a2.32 2.32 0 0 1-2.238-1.77.7.7 0 0 0 .242.047c.254 0 .66-.152.66-.66 0-.422-.285-.66-.66-.66-.269 0-.66.132-.66.718 0 1.274 1.019 2.73 2.684 2.73 1.695 0 3.179-1.425 3.179-3.331 0-1.781-1.199-3.27-2.773-3.27-.856 0-1.516.375-1.906.797zm7.402 0c.644.21 1.168.226 1.332.226 1.695 0 2.777-1.246 2.777-1.457 0-.058-.031-.137-.121-.137-.027 0-.058 0-.195.063a4.87 4.87 0 0 1-3.93-.016c-.105-.047-.137-.047-.152-.047-.117 0-.117.094-.117.332v4.458c0 .27 0 .359.179.359.075 0 .09-.016.243-.195a2.26 2.26 0 0 1 1.875-.977c.792 0 1.183.734 1.304.992.254.582.27 1.32.27 1.89 0 .567 0 1.423-.422 2.099-.328.539-.914.914-1.574.914a2.32 2.32 0 0 1-2.235-1.77.7.7 0 0 0 .239.047c.253 0 .66-.152.66-.66 0-.422-.285-.66-.66-.66-.27 0-.661.132-.661.718 0 1.274 1.02 2.73 2.688 2.73 1.695 0 3.18-1.425 3.18-3.331 0-1.781-1.204-3.27-2.778-3.27-.855 0-1.511.375-1.902.797zm31.492-1.172c0-.285 0-.36-.211-.36-.117 0-.164 0-.281.18l-4.516 7.008v.434h3.946v1.363c0 .558-.032.707-1.125.707h-.301v.433c.344-.027 1.527-.027 1.949-.027s1.621 0 1.965.027v-.433h-.301c-1.078 0-1.125-.149-1.125-.707v-1.363h1.516v-.434h-1.516zm-.988 1.172v5.656h-3.645zm4.793 0c.648.21 1.172.226 1.336.226 1.695 0 2.777-1.246 2.777-1.457 0-.058-.031-.137-.121-.137-.031 0-.063 0-.195.063a4.87 4.87 0 0 1-3.93-.016c-.106-.047-.137-.047-.152-.047-.118 0-.118.094-.118.332v4.458c0 .27 0 .359.18.359.074 0 .09-.016.238-.195a2.26 2.26 0 0 1 1.875-.977c.797 0 1.188.734 1.305.992.258.582.274 1.32.274 1.89 0 .567 0 1.423-.422 2.099-.328.539-.914.914-1.575.914a2.325 2.325 0 0 1-2.238-1.77.7.7 0 0 0 .242.047c.254 0 .66-.152.66-.66 0-.422-.285-.66-.66-.66-.269 0-.66.132-.66.718 0 1.274 1.02 2.73 2.684 2.73 1.695 0 3.179-1.425 3.179-3.331 0-1.781-1.199-3.27-2.773-3.27-.855 0-1.516.375-1.906.797zm28 0c.648.21 1.172.226 1.336.226 1.695 0 2.777-1.246 2.777-1.457 0-.058-.031-.137-.121-.137-.031 0-.063 0-.195.063a4.87 4.87 0 0 1-3.93-.016c-.106-.047-.137-.047-.152-.047-.118 0-.118.094-.118.332v4.458c0 .27 0 .359.18.359.074 0 .09-.016.238-.195a2.26 2.26 0 0 1 1.875-.977c.797 0 1.188.734 1.305.992.258.582.274 1.32.274 1.89 0 .567 0 1.423-.422 2.099-.328.539-.914.914-1.575.914a2.325 2.325 0 0 1-2.238-1.77.7.7 0 0 0 .242.047c.254 0 .66-.152.66-.66 0-.422-.285-.66-.66-.66-.269 0-.66.132-.66.718 0 1.274 1.02 2.73 2.684 2.73 1.695 0 3.179-1.425 3.179-3.331 0-1.781-1.199-3.27-2.773-3.27-.855 0-1.516.375-1.906.797zm12.101 3.797c0-1.247-.074-2.461-.613-3.602-.617-1.246-1.695-1.578-2.434-1.578-.867 0-1.933.437-2.488 1.683-.418.946-.57 1.875-.57 3.497 0 1.453.105 2.546.644 3.613a2.67 2.67 0 0 0 2.403 1.5c1.304 0 2.054-.781 2.488-1.649.539-1.129.57-2.597.57-3.464m-3.058 4.812c-.481 0-1.457-.27-1.742-1.906-.165-.899-.165-2.04-.165-3.086 0-1.235 0-2.344.239-3.227.258-1.008 1.023-1.472 1.668-1.472.566 0 1.437.347 1.722 1.636.196.856.196 2.04.196 3.063 0 1.004 0 2.14-.164 3.058-.286 1.649-1.231 1.934-1.754 1.934"/></g></svg>