<svg xmlns="http://www.w3.org/2000/svg" width="904pt" height="596" viewBox="0 -447 904 447"><g id="page1" transform="scale(1 -1)"><path fill="#cc9c6f" d="M143.008 392.828a7150 7150 0 0 1 617.555-86.793l2.367 16.844a7141 7141 0 0 1-307.832 50.133 7144 7144 0 0 1-309.723 36.66z"/><path fill="none" stroke="#000" stroke-linecap="round" stroke-linejoin="round" stroke-width="2" d="M143.008 392.828a7150 7150 0 0 1 617.555-86.793l2.367 16.844a7141 7141 0 0 1-307.832 50.133 7144 7144 0 0 1-309.723 36.66z"/><path fill="#fff" d="M176.746 397.387a5.668 5.668 0 1 1-11.336 0 5.667 5.667 0 1 1 11.336 0"/><path fill="none" stroke="#000" stroke-linecap="round" stroke-linejoin="round" stroke-width="2" d="M176.746 397.387a5.668 5.668 0 1 1-11.336 0 5.667 5.667 0 1 1 11.336 0"/><path fill="#fff" d="M738.16 318.484a5.67 5.67 0 1 1-11.341.003 5.67 5.67 0 0 1 11.341-.003"/><path fill="none" stroke="#000" stroke-linecap="round" stroke-linejoin="round" stroke-width="2" d="M738.16 318.484a5.67 5.67 0 1 1-11.341.003 5.67 5.67 0 0 1 11.341-.003"/><path fill="#d3ae37" d="M341.156 150.773c0 15.657-76.144 28.348-170.078 28.348C77.148 179.121 1 166.43 1 150.773s76.148-28.347 170.078-28.347c93.934 0 170.078 12.691 170.078 28.347"/><path fill="none" stroke="#000" stroke-linecap="round" stroke-linejoin="round" stroke-width="2" d="M341.156 150.773c0 15.657-76.144 28.348-170.078 28.348C77.148 179.121 1 166.43 1 150.773s76.148-28.347 170.078-28.347c93.934 0 170.078 12.691 170.078 28.347M171.078 377.547l161.41-217.813m-161.41 217.813L117.32 177.676m53.758 199.871L19.984 137.746m151.094 239.801v19.84"/><path fill="#865b52" d="M57.809 132.559c-.797 7.933 2.629 16.105 8.77 21.129a40.5 40.5 0 0 0 7.413 4.343c1.313.559 2.668 1.039 3.824 1.914 3.59 2.59 6.262 6.18 9.45 9.207 3.187 3.192 6.894 5.981 11.199 7.575 5.305 2.035 11.242 2.671 16.781 1.199 4.906-1.399 9.09-4.867 11.641-9.211 2.91-4.942 3.59-10.883 3.109-16.5a14.7 14.7 0 0 0-1.594-6.102c-2.429-4.824-6.179-8.847-10.004-12.554-6.859-6.5-14.468-12.161-22.484-17.145-3.187-1.871-6.418-3.785-9.965-5.019-1.87-.68-3.867-.282-5.781.039-5.418 1.195-10.602 3.629-14.867 7.214-3.785 3.231-6.578 7.696-7.336 12.676-.078.399-.117.836-.156 1.235"/><path fill="#513531" d="M99.422 135.91c-2.113-1.437-4.024-3.109-6.098-4.547-4.984-3.586-10.562-6.656-16.703-7.574-3.308-.476-6.695-.238-9.965.481-3.027.757-6.219 2.152-8.012 4.863-.238.316-.558 1.273-.32.359 1.356-5.66 4.227-11.082 8.61-15.027 4.265-3.828 9.925-6.02 15.668-6.18 4.105-.199 8.132.598 12.039 1.754 4.863 1.555 9.246 4.227 13.75 6.574 6.101 3.391 12 7.336 16.586 12.641 2.828 3.226 4.742 7.215 6.097 11.277 1.953 5.703 2.313 11.961.68 17.782-1.078 3.867-2.871 7.574-5.106 10.921-.875 1.317-1.793 2.59-2.949 3.668.797-4.945.957-10.047.16-14.988-.597-3.59-1.875-7.098-4.226-9.926-3.309-4.304-7.692-7.972-12.836-9.808-2.192-.875-4.543-1.196-6.777-1.992a4 4 0 0 1-.598-.278"/><path fill="#30201d" d="M94.8 123.152c.556-.875 1.91-.558 2.829-.597 1.676.082 3.348.359 4.984.636.996.043 1.754 1.118.797 1.836-1.078 1.196-2.472 2.231-4.066 2.512-.996.117-1.793-.719-2.512-1.355-.797-.84-1.715-1.754-2.031-2.911zm14.548-1.515c.718-.516 1.636.203 2.234.597.836.719 1.434 1.754 1.555 2.871-.16.918-1.516.719-2.196.52-1.351-.437-1.91-2.074-1.793-3.391.04-.199.082-.437.2-.597m19.093 38.187c-.796.797-1.394-.875-1.671-1.472-.399-.836-.442-2.075.515-2.59.758-.602 2.074-.282 2.153.797.121 1.156-.477 2.269-.997 3.265m-54.929-42.851c-.559-1.035.68-1.832 1.437-2.313.797-.355 1.793-.637 2.59-.195.559.754-.52 1.473-.996 1.992-.68.598-1.555 1.434-2.512.996a1.2 1.2 0 0 1-.52-.48"/><path fill="#513531" d="M66.258 131.203c-.598-.637-.36-1.633-.277-2.39-.043-.997.675-1.512 1.632-1.395.797 0 2.23-.199 2.39.879-.237 1.113-1.194 1.953-2.03 2.668-.48.359-1.196.64-1.715.238m5.539 5.582c.48-.758 1.516-.515 2.074.039.719.602 1.356 1.836.637 2.711-.797.719-1.953 0-2.469-.715-.36-.597-.68-1.394-.242-2.035m12.398 24.793c-.957.52-1.714-.437-1.992-1.273-.398-1.157-1.277-2.114-1.516-3.309.2-.957 1.594-.598 2.313-.558.797.082 1.793.437 1.953 1.355.278 1.156.36 2.473-.36 3.469-.077.16-.237.238-.398.316"/><path fill="#c3ada8" d="M62.95 134.156c.956-.32 1.792.559 2.433 1.196 1.633 1.671 2.707 3.785 4.383 5.421 2.351 2.313 5.062 4.262 7.972 5.821 3.586 1.871 7.614 2.469 11.52 3.386 2.035.477 4.144 1.278 5.582 2.911 3.148 3.347 4.703 7.812 7.453 11.48 1.637 2.192 4.105 3.785 6.855 4.027 1.399.2 2.832-.082 4.188.317 1.074.359 1.156 1.836.758 2.75-.879 1.797-2.871 2.672-4.703 3.109-4.028.879-8.371-.039-11.641-2.551-2.95-2.152-5.023-5.222-6.856-8.332-1.597-2.468-2.992-5.101-5.062-7.214-1.437-1.434-3.351-2.114-5.262-2.668-4.11-1.317-8.093-3.231-11.324-6.141-2.152-1.832-4.023-4.027-5.34-6.535-.879-1.754-1.793-3.59-1.754-5.582 0-.559.239-1.156.797-1.395"/><path fill="#513531" d="M106.957 162.617c.32-1.715 2.074-2.633 3.629-2.988 1.273-.359 2.91-.043 3.508 1.273.398.875-.399 1.676-1.117 1.993-.997.48-2.114.718-2.95 1.515-.597.637-1.636.836-2.351.238-.598-.476-.758-1.312-.719-2.031"/><path fill="#79ac14" d="M189.578 157.738c1.949 3.367 4.606 7.266 6.555 9.742 0 .711-.18 1.418-.18 2.305-.707 3.543-3.719 6.199-6.906 5.668-3.192-.531-5.317-3.894-4.606-7.617.176-1.594 1.414-5.316 2.832-9.035.711-.176 1.594-.531 2.305-1.063"/><path fill="none" stroke="#000" stroke-linecap="round" stroke-linejoin="round" stroke-width="2.25" d="M189.578 157.738c1.949 3.367 4.606 7.266 6.555 9.742 0 .711-.18 1.418-.18 2.305-.707 3.543-3.719 6.199-6.906 5.668-3.192-.531-5.317-3.894-4.606-7.617.176-1.594 1.414-5.316 2.832-9.035.711-.176 1.594-.531 2.305-1.063"/><path fill="#79ac14" d="M194.359 152.953c3.368 1.949 7.266 4.61 9.746 6.559.708 0 1.418-.18 2.301-.18 3.547-.707 6.203-3.719 5.672-6.91-.531-3.188-3.898-5.137-7.617-4.606-1.598.176-5.316 1.418-9.035 2.836-.18.707-.531 1.594-1.067 2.301"/><path fill="none" stroke="#000" stroke-linecap="round" stroke-linejoin="round" stroke-width="2.25" d="M194.359 152.953c3.368 1.949 7.266 4.61 9.746 6.559.708 0 1.418-.18 2.301-.18 3.547-.707 6.203-3.719 5.672-6.91-.531-3.188-3.898-5.137-7.617-4.606-1.598.176-5.316 1.418-9.035 2.836-.18.707-.531 1.594-1.067 2.301"/><path fill="#a4cd34" d="M192.234 155.613a7.85 7.85 0 0 0 2.125-2.66c4.43 2.305 9.922 6.379 11.52 7.973 2.656 2.66 2.832 6.554.527 8.859-2.125 2.305-6.199 1.949-8.855-.531-1.598-1.594-5.492-7.086-7.973-11.516a7.85 7.85 0 0 0 2.656-2.125"/><path fill="none" stroke="#000" stroke-linecap="round" stroke-linejoin="round" stroke-width="2.25" d="M192.234 155.613a7.85 7.85 0 0 0 2.125-2.66c4.43 2.305 9.922 6.379 11.52 7.973 2.656 2.66 2.832 6.554.527 8.859-2.125 2.305-6.199 1.949-8.855-.531-1.598-1.594-5.492-7.086-7.973-11.516a7.85 7.85 0 0 0 2.656-2.125"/><path fill="#f26d21" d="M192.234 155.613c-5.492 5.492-14.527 5.137-20.195-.711-8.859-8.855-29.234-35.609-22.68-42.164s33.309 13.821 42.168 22.676c5.844 5.848 6.2 14.707.707 20.199"/><path fill="#ce5c1c" d="M192.234 155.613c2.305-5.14 1.063-11.695-3.367-16.125-8.324-8.324-32.418-26.574-40.746-23.562 0-1.414.356-2.481 1.238-3.188 6.555-6.554 33.309 13.821 42.168 22.676 5.844 5.672 6.2 14.707.707 20.199"/><g fill="none" stroke="#000" stroke-linecap="round" stroke-linejoin="round" stroke-width="2.25"><path d="M190.465 134.176s-5.317 1.769-10.629 7.086m-10.453-5.668s-3.367 3.011-6.91 7.972m20.55-15.593s-4.429 1.242-7.265 4.078m1.418-8.328s-4.606.886-9.391 5.668m-12.222 3.722s1.949-3.722 5.843-6.91m6.559 24.27s1.062-3.188 4.074-6.2m-15.414-26.043s2.48-2.835 5.492-4.074m38.27 49.606-8.153-8.149m-1.769 11.336 1.062-6.023m12.047-7.086-6.023 1.062"/><path d="M192.234 155.613c-5.492 5.492-14.527 5.137-20.195-.711-8.859-8.855-29.234-35.609-22.68-42.164s33.309 13.821 42.168 22.676c5.844 5.848 6.2 14.707.707 20.199"/></g><path fill="#79ac14" d="M264.395 157.738c1.949 3.367 4.605 7.266 6.554 9.742 0 .711-.179 1.418-.179 2.305-.707 3.543-3.719 6.199-6.907 5.668-3.191-.531-5.316-3.894-4.609-7.617.18-1.594 1.418-5.316 2.836-9.035.707-.176 1.594-.531 2.305-1.063"/><path fill="none" stroke="#000" stroke-linecap="round" stroke-linejoin="round" stroke-width="2.25" d="M264.395 157.738c1.949 3.367 4.605 7.266 6.554 9.742 0 .711-.179 1.418-.179 2.305-.707 3.543-3.719 6.199-6.907 5.668-3.191-.531-5.316-3.894-4.609-7.617.18-1.594 1.418-5.316 2.836-9.035.707-.176 1.594-.531 2.305-1.063"/><path fill="#79ac14" d="M269.176 152.953c3.367 1.949 7.265 4.61 9.746 6.559.707 0 1.418-.18 2.301-.18 3.543-.707 6.203-3.719 5.672-6.91-.532-3.188-3.899-5.137-7.622-4.606-1.593.176-5.312 1.418-9.035 2.836-.175.707-.531 1.594-1.062 2.301"/><path fill="none" stroke="#000" stroke-linecap="round" stroke-linejoin="round" stroke-width="2.25" d="M269.176 152.953c3.367 1.949 7.265 4.61 9.746 6.559.707 0 1.418-.18 2.301-.18 3.543-.707 6.203-3.719 5.672-6.91-.532-3.188-3.899-5.137-7.622-4.606-1.593.176-5.312 1.418-9.035 2.836-.175.707-.531 1.594-1.062 2.301"/><path fill="#a4cd34" d="M267.051 155.613a7.85 7.85 0 0 0 2.125-2.66c4.429 2.305 9.922 6.379 11.515 7.973 2.661 2.66 2.836 6.554.532 8.859-2.125 2.305-6.2 1.949-8.856-.531-1.597-1.594-5.496-7.086-7.972-11.516a7.9 7.9 0 0 0 2.656-2.125"/><path fill="none" stroke="#000" stroke-linecap="round" stroke-linejoin="round" stroke-width="2.25" d="M267.051 155.613a7.85 7.85 0 0 0 2.125-2.66c4.429 2.305 9.922 6.379 11.515 7.973 2.661 2.66 2.836 6.554.532 8.859-2.125 2.305-6.2 1.949-8.856-.531-1.597-1.594-5.496-7.086-7.972-11.516a7.9 7.9 0 0 0 2.656-2.125"/><path fill="#f26d21" d="M267.051 155.613c-5.492 5.492-14.528 5.137-20.196-.711-8.859-8.855-29.234-35.609-22.679-42.164 6.554-6.554 33.308 13.821 42.168 22.676 5.844 5.848 6.199 14.707.707 20.199"/><path fill="#ce5c1c" d="M267.051 155.613c2.304-5.14 1.062-11.695-3.367-16.125-8.325-8.324-32.422-26.574-40.746-23.562 0-1.414.351-2.481 1.238-3.188 6.554-6.554 33.308 13.821 42.168 22.676 5.844 5.672 6.199 14.707.707 20.199"/><g fill="none" stroke="#000" stroke-linecap="round" stroke-linejoin="round" stroke-width="2.25"><path d="M265.277 134.176s-5.312 1.769-10.629 7.086m-10.453-5.668s-3.367 3.011-6.91 7.972m20.555-15.593s-4.43 1.242-7.266 4.078m1.418-8.328s-4.605.886-9.39 5.668m-12.223 3.722s1.945-3.722 5.844-6.91m6.554 24.27s1.067-3.188 4.078-6.2m-15.414-26.043s2.481-2.835 5.493-4.074m38.265 49.606-8.148-8.149m-1.774 11.336 1.067-6.023m12.047-7.086-6.024 1.062"/><path d="M267.051 155.613c-5.492 5.492-14.528 5.137-20.196-.711-8.859-8.855-29.234-35.609-22.679-42.164 6.554-6.554 33.308 13.821 42.168 22.676 5.844 5.848 6.199 14.707.707 20.199"/></g><path fill="#bc9a16" d="M1 150.773c0-68.597 90.55-70.867 170.078-70.867 79.527 0 170.078 2.27 170.078 70.867 0-15.656-76.144-28.347-170.078-28.347C77.148 122.426 1 135.117 1 150.773"/><path fill="none" stroke="#000" stroke-linecap="round" stroke-linejoin="round" stroke-width="2" d="M1 150.773c0-68.597 90.55-70.867 170.078-70.867 79.527 0 170.078 2.27 170.078 70.867 0-15.656-76.144-28.347-170.078-28.347C77.148 122.426 1 135.117 1 150.773"/><path fill="#d3ae37" d="M902.57 71.871c0 15.656-76.148 28.348-170.078 28.348-93.933 0-170.082-12.692-170.082-28.348 0-15.652 76.149-28.344 170.082-28.344 93.93 0 170.078 12.692 170.078 28.344"/><path fill="none" stroke="#000" stroke-linecap="round" stroke-linejoin="round" stroke-width="2" d="M902.57 71.871c0 15.656-76.148 28.348-170.078 28.348-93.933 0-170.082-12.692-170.082-28.348 0-15.652 76.149-28.344 170.082-28.344 93.93 0 170.078 12.692 170.078 28.344M732.492 298.645 893.898 80.832M732.492 298.645 678.73 98.773m53.762 199.872L581.395 58.844m151.097 239.801v19.839"/><path fill="#662d90" d="M701.258 53.8c-.621 4.52-2.879 8.86-6.336 11.872-6.82 6.469-12.223 14.527-15.059 23.562-2.39.313-4.738 1.063-6.597 2.57-1.641 1.106-3.102 2.524-4.871 3.454-1.11.71-1.684-.707-1.551-1.594-.09-2.656.219-5.316.664-7.93-2.481.18-4.43 2.215-5.317 4.387-.707 1.508-1.503 3.012-2.523 4.34-.797.844-2.172-.043-2.039-1.152-.531-2.965-1.02-5.934-2.082-8.77-.973-2.168-2.746-3.852-4.563-5.36 1.418-8.28 2.883-16.609 5.407-24.624 1.285-3.899 2.746-7.707 4.961-11.16 3.054-4.606 7.441-8.418 12.578-10.586 3.988-1.727 8.593-2.215 12.8-1.063 5.891 1.55 10.942 5.934 13.243 11.559 1.375 3.277 1.816 6.953 1.285 10.496"/><path fill="#39b44a" d="M678.848 93.356c-.711 5.003-3.813 9.699-8.461 11.871a14.2 14.2 0 0 1-7.75 1.281c-.797 3.191-1.641 6.422-2.438 9.656-1.152-1.371-2.48-2.656-3.011-4.43-.579-1.636-.489-3.453.042-5.093.133-.532.266-1.106.399-1.637-5.313-2.656-8.68-8.594-8.414-14.485.133-2.257.664-4.43.973-6.644.265-1.55.535-3.144.796-4.695 2.129 1.773 4.297 3.898 5.008 6.644.84 2.657 1.285 5.403 1.727 8.149.355 1.152 1.992.976 2.347-.043 1.063-1.461 1.774-3.145 2.571-4.739 1.015-1.773 2.789-3.277 4.871-3.457-.445 2.836-.84 5.672-.621 8.551-.09 1.153 1.195 1.418 1.949.754 2.258-1.418 4.164-3.367 6.555-4.562 1.418-.665 2.922-1.02 4.472-1.243a25 25 0 0 0-1.015 4.122"/><path fill-rule="evenodd" d="M703.027 54.066c-.707 4.918-3.144 9.614-6.906 12.891-6.691 6.379-12.004 14.352-14.707 23.207-.574 1.73-.797 3.5-1.195 5.273-1.196 5.137-4.871 9.743-9.789 11.739a16.1 16.1 0 0 1-6.465 1.191c-.711 2.793-1.375 5.625-2.125 8.461-.445 1.195-2.219 1.508-2.969.488-1.242-1.461-2.656-2.878-3.277-4.738-.754-2.039-.711-4.297-.09-6.379.223-.711-1.106-.886-1.461-1.418-4.918-3.851-7.441-10.496-6.332-16.61 1.547-9.523 3.055-19.042 5.402-28.39 1.461-5.715 3.278-11.425 6.242-16.52 2.704-4.429 6.559-8.105 11.075-10.718 4.562-2.613 10.054-3.855 15.238-2.836 5.801 1.063 11.07 4.652 14.215 9.656 2.793 4.297 3.898 9.61 3.144 14.703m-44.601 49.344c.887.442 1.152 1.504.844 2.391-.399 1.551-.973 3.144-.579 4.738.09.445.489 1.859.711 1.551.532-2.082 1.02-4.117 1.551-6.199.352-1.067 1.551-1.332 2.524-1.11 4.164.313 8.371-1.636 10.851-5.004 1.641-2.125 2.524-4.695 2.879-7.308.043-.442.398-1.153-.309-.707-1.906.707-3.414 2.125-5.05 3.277-1.243.883-2.481 2.035-4.032 2.168-1.328.09-2.433-1.062-2.613-2.348-.308-2.035-.086-4.164.133-6.246-1.461 1.332-1.859 3.325-2.922 4.875-.711 1.153-1.328 2.567-2.746 2.965-1.641.531-3.5-.707-3.723-2.39-.484-2.97-.972-5.934-1.992-8.77-.441-.973-1.062-1.816-1.769-2.613-.399 2.437-.887 4.87-1.153 7.308-.488 5.45 2.524 10.985 7.395 13.422m37.695-63.293c-3.5-4.785-9.57-7.664-15.547-7.176-5.226.442-10.011 3.188-13.777 6.73-2.524 2.349-4.606 5.185-5.977 8.372-3.101 6.645-4.742 13.82-6.203 20.95a352 352 0 0 0-1.726 9.48c2.172 1.859 4.121 4.164 4.828 6.996.664 2.172 1.105 4.387 1.461 6.601 1.152-1.773 1.683-3.898 3.144-5.449 1.375-1.55 3.324-2.613 5.406-2.613 1.239.09 1.86 1.508 1.415 2.613-.309 2.125-.575 4.297-.575 6.469 2.082-1.461 3.985-3.234 6.289-4.344 1.153-.484 2.391-.84 3.633-1.105 1.949-5.668 4.871-10.985 8.504-15.77-.976.27-2.262.668-3.012-.308-.886-.973-.265-2.657 1.02-2.88a17.9 17.9 0 0 0 9.434-5.003c4.605-4.473 6.375-11.473 4.605-17.63-.574-2.124-1.594-4.116-2.922-5.933"/><path fill-rule="evenodd" d="M679.777 72.45c-.976-.044-2.261-.134-2.66-1.286-.484-1.152.664-2.57 1.906-2.348.973.09 2.168.133 2.524 1.196.574 1.152-.442 2.613-1.77 2.437"/><path fill="#662d90" d="M765.57 53.8c-.621 4.52-2.879 8.86-6.336 11.872-6.82 6.469-12.222 14.527-15.058 23.562-2.391.313-4.738 1.063-6.598 2.57-1.64 1.106-3.101 2.524-4.875 3.454-1.105.71-1.683-.707-1.551-1.594-.086-2.656.223-5.316.668-7.93-2.48.18-4.429 2.215-5.316 4.387-.707 1.508-1.508 3.012-2.524 4.34-.796.844-2.171-.043-2.039-1.152-.531-2.965-1.019-5.934-2.082-8.77-.972-2.168-2.746-3.852-4.562-5.36 1.418-8.28 2.879-16.609 5.406-24.624 1.281-3.899 2.746-7.707 4.961-11.16 3.055-4.606 7.438-8.418 12.578-10.586 3.985-1.727 8.594-2.215 12.801-1.063 5.891 1.55 10.937 5.934 13.242 11.559 1.371 3.277 1.817 6.953 1.285 10.496"/><path fill="#39b44a" d="M743.156 93.356c-.707 5.003-3.808 9.699-8.457 11.871a14.2 14.2 0 0 1-7.754 1.281c-.797 3.191-1.636 6.422-2.433 9.656-1.153-1.371-2.481-2.656-3.012-4.43-.578-1.636-.488-3.453.043-5.093.133-.532.266-1.106.398-1.637-5.312-2.656-8.679-8.594-8.414-14.485.133-2.257.664-4.43.973-6.644.266-1.55.531-3.144.797-4.695 2.129 1.773 4.297 3.898 5.008 6.644.84 2.657 1.285 5.403 1.726 8.149.356 1.152 1.992.976 2.348-.043 1.062-1.461 1.769-3.145 2.566-4.739 1.02-1.773 2.793-3.277 4.875-3.457-.445 2.836-.843 5.672-.621 8.551-.09 1.153 1.196 1.418 1.949.754 2.258-1.418 4.165-3.367 6.555-4.562 1.418-.665 2.922-1.02 4.473-1.243a25.7 25.7 0 0 0-1.02 4.122"/><path fill-rule="evenodd" d="M767.34 54.066c-.707 4.918-3.145 9.614-6.91 12.891-6.688 6.379-12 14.352-14.703 23.207-.579 1.73-.797 3.5-1.196 5.273-1.195 5.137-4.871 9.743-9.789 11.739a16.1 16.1 0 0 1-6.469 1.191c-.707 2.793-1.371 5.625-2.125 8.461-.441 1.195-2.214 1.508-2.964.488-1.243-1.461-2.661-2.878-3.282-4.738-.75-2.039-.707-4.297-.086-6.379.223-.711-1.105-.886-1.461-1.418-4.917-3.851-7.441-10.496-6.335-16.61 1.55-9.523 3.058-19.042 5.406-28.39 1.461-5.715 3.277-11.425 6.242-16.52 2.703-4.429 6.555-8.105 11.074-10.718 4.563-2.613 10.055-3.855 15.235-2.836 5.804 1.063 11.074 4.652 14.218 9.656 2.789 4.297 3.899 9.61 3.145 14.703m-44.602 49.344c.887.442 1.153 1.504.84 2.391-.394 1.551-.973 3.144-.574 4.738.09.445.488 1.859.711 1.551.531-2.082 1.015-4.117 1.551-6.199.351-1.067 1.547-1.332 2.523-1.11 4.164.313 8.371-1.636 10.852-5.004 1.636-2.125 2.523-4.695 2.879-7.308.043-.442.398-1.153-.309-.707-1.906.707-3.414 2.125-5.051 3.277-1.242.883-2.48 2.035-4.031 2.168-1.328.09-2.438-1.062-2.613-2.348-.313-2.035-.09-4.164.132-6.246-1.46 1.332-1.859 3.325-2.921 4.875-.711 1.153-1.332 2.567-2.747 2.965-1.64.531-3.5-.707-3.722-2.39-.488-2.97-.973-5.934-1.992-8.77-.442-.973-1.063-1.816-1.774-2.613-.398 2.437-.883 4.87-1.148 7.308-.489 5.45 2.523 10.985 7.394 13.422m37.692-63.293c-3.496-4.785-9.567-7.664-15.543-7.176-5.227.442-10.012 3.188-13.778 6.73-2.523 2.349-4.605 5.185-5.976 8.372-3.102 6.645-4.742 13.82-6.203 20.95a352 352 0 0 0-1.727 9.48c2.168 1.859 4.117 4.164 4.828 6.996.664 2.172 1.106 4.387 1.461 6.601 1.153-1.773 1.684-3.898 3.145-5.449 1.375-1.55 3.324-2.613 5.402-2.613 1.242.09 1.859 1.508 1.418 2.613-.309 2.125-.574 4.297-.574 6.469 2.082-1.461 3.984-3.234 6.289-4.344 1.152-.484 2.391-.84 3.633-1.105 1.949-5.668 4.871-10.985 8.504-15.77-.977.27-2.262.668-3.012-.308-.887-.973-.27-2.657 1.016-2.88a17.84 17.84 0 0 0 9.433-5.003c4.609-4.473 6.379-11.473 4.609-17.63-.578-2.124-1.593-4.116-2.925-5.933"/><path fill-rule="evenodd" d="M744.09 72.45c-.977-.044-2.262-.134-2.66-1.286-.489-1.152.664-2.57 1.906-2.348.973.09 2.168.133 2.523 1.196.575 1.152-.441 2.613-1.769 2.437"/><path fill="#79ac14" d="M824.363 87.887c1.95 3.367 4.606 7.265 6.555 9.746 0 .707-.18 1.414-.18 2.3-.707 3.544-3.718 6.204-6.906 5.672-3.191-.535-5.316-3.898-4.605-7.62.175-1.594 1.414-5.313 2.832-9.036.711-.176 1.593-.531 2.304-1.062"/><path fill="none" stroke="#000" stroke-linecap="round" stroke-linejoin="round" stroke-width="2.25" d="M824.363 87.887c1.95 3.367 4.606 7.265 6.555 9.746 0 .707-.18 1.414-.18 2.3-.707 3.544-3.718 6.204-6.906 5.672-3.191-.535-5.316-3.898-4.605-7.62.175-1.594 1.414-5.313 2.832-9.036.711-.176 1.593-.531 2.304-1.062"/><path fill="#79ac14" d="M829.145 83.106c3.367 1.945 7.265 4.605 9.746 6.554.707 0 1.418-.18 2.3-.18 3.543-.707 6.204-3.718 5.672-6.906-.531-3.191-3.898-5.14-7.621-4.61-1.594.18-5.312 1.419-9.031 2.837-.18.707-.535 1.593-1.066 2.305"/><path fill="none" stroke="#000" stroke-linecap="round" stroke-linejoin="round" stroke-width="2.25" d="M829.145 83.106c3.367 1.945 7.265 4.605 9.746 6.554.707 0 1.418-.18 2.3-.18 3.543-.707 6.204-3.718 5.672-6.906-.531-3.191-3.898-5.14-7.621-4.61-1.594.18-5.312 1.419-9.031 2.837-.18.707-.535 1.593-1.066 2.305"/><path fill="#a4cd34" d="M827.02 85.762a7.9 7.9 0 0 0 2.125-2.656c4.429 2.3 9.921 6.375 11.515 7.972 2.66 2.656 2.836 6.555.531 8.856-2.125 2.304-6.199 1.949-8.855-.532-1.598-1.593-5.492-7.086-7.973-11.515a7.8 7.8 0 0 0 2.657-2.125"/><path fill="none" stroke="#000" stroke-linecap="round" stroke-linejoin="round" stroke-width="2.25" d="M827.02 85.762a7.9 7.9 0 0 0 2.125-2.656c4.429 2.3 9.921 6.375 11.515 7.972 2.66 2.656 2.836 6.555.531 8.856-2.125 2.304-6.199 1.949-8.855-.532-1.598-1.593-5.492-7.086-7.973-11.515a7.8 7.8 0 0 0 2.657-2.125"/><path fill="#f26d21" d="M827.02 85.762c-5.493 5.492-14.528 5.136-20.196-.711-8.859-8.856-29.234-35.61-22.679-42.164 6.554-6.555 33.308 13.82 42.168 22.68 5.843 5.843 6.199 14.703.707 20.195"/><path fill="#ce5c1c" d="M827.02 85.762c2.304-5.137 1.062-11.692-3.368-16.121-8.324-8.329-32.422-26.575-40.746-23.563 0-1.418.356-2.48 1.239-3.191 6.554-6.555 33.308 13.82 42.168 22.68 5.843 5.667 6.199 14.703.707 20.195"/><g fill="none" stroke="#000" stroke-linecap="round" stroke-linejoin="round" stroke-width="2.25"><path d="M825.25 64.324s-5.316 1.774-10.633 7.086m-10.449-5.668s-3.367 3.012-6.91 7.973m20.551-15.59s-4.43 1.238-7.266 4.074m1.418-8.328s-4.606.887-9.391 5.668m-12.222 3.723s1.949-3.723 5.843-6.91m6.555 24.273s1.067-3.191 4.078-6.203M791.41 48.379s2.481-2.836 5.492-4.074m38.27 49.605-8.152-8.148m-1.77 11.34 1.063-6.024m12.046-7.09-6.023 1.063"/><path d="M827.02 85.762c-5.493 5.492-14.528 5.136-20.196-.711-8.859-8.856-29.234-35.61-22.679-42.164 6.554-6.555 33.308 13.82 42.168 22.68 5.843 5.843 6.199 14.703.707 20.195"/></g><path fill="#bc9a16" d="M562.41 71.871c0-68.598 90.555-70.863 170.082-70.863 79.528 0 170.078 2.265 170.078 70.863 0-15.652-76.148-28.344-170.078-28.344-93.933 0-170.082 12.692-170.082 28.344"/><path fill="none" stroke="#000" stroke-linecap="round" stroke-linejoin="round" stroke-width="2" d="M562.41 71.871c0-68.598 90.555-70.863 170.082-70.863 79.528 0 170.078 2.265 170.078 70.863 0-15.652-76.148-28.344-170.078-28.344-93.933 0-170.082 12.692-170.082 28.344"/><path fill="#cc9c6f" d="M458.871 357.938c0 3.914-3.172 7.085-7.086 7.085s-7.086-3.171-7.086-7.085 3.172-7.086 7.086-7.086 7.086 3.171 7.086 7.086"/><path fill="none" stroke="#000" stroke-linecap="round" stroke-linejoin="round" stroke-width="2" d="M458.871 357.938c0 3.914-3.172 7.085-7.086 7.085s-7.086-3.171-7.086-7.085 3.172-7.086 7.086-7.086 7.086 3.171 7.086 7.086"/><circle cx="451.785" cy="357.938" r="1"/><path fill="#cc9c6f" d="M437.609 54.629h28.348v340.156h-28.348Z"/><path fill="none" stroke="#000" stroke-linecap="round" stroke-linejoin="round" stroke-width="2" d="M437.609 54.629h28.348v340.156h-28.348z"/><path fill="#cc9c6f" d="M458.871 357.938c0 3.914-3.172 7.085-7.086 7.085s-7.086-3.171-7.086-7.085 3.172-7.086 7.086-7.086 7.086 3.171 7.086 7.086"/><path fill="none" stroke="#000" stroke-linecap="round" stroke-linejoin="round" stroke-width="2" d="M458.871 357.938c0 3.914-3.172 7.085-7.086 7.085s-7.086-3.171-7.086-7.085 3.172-7.086 7.086-7.086 7.086 3.171 7.086 7.086"/><path fill="#cc9c6f" d="M454.617 394.785c3.641 3.824 5.672 8.899 5.672 14.176s-2.031 10.352-5.672 14.172h-5.668c-3.636-3.82-5.668-8.895-5.668-14.172s2.032-10.352 5.668-14.176z"/><path fill="none" stroke="#000" stroke-linecap="round" stroke-linejoin="round" stroke-width="2" d="M454.617 394.785c3.641 3.824 5.672 8.899 5.672 14.176s-2.031 10.352-5.672 14.172h-5.668c-3.636-3.82-5.668-8.895-5.668-14.172s2.032-10.352 5.668-14.176z"/><path fill="#cc9c6f" d="M463.121 434.473c0 6.261-5.074 11.34-11.336 11.34s-11.34-5.079-11.34-11.34 5.078-11.34 11.34-11.34 11.336 5.078 11.336 11.34"/><path fill="none" stroke="#000" stroke-linecap="round" stroke-linejoin="round" stroke-width="2" d="M463.121 434.473c0 6.261-5.074 11.34-11.336 11.34s-11.34-5.079-11.34-11.34 5.078-11.34 11.34-11.34 11.336 5.078 11.336 11.34"/><path fill="#cc9c6f" d="M494.305 26.281c-13.692 0-22.676 13.625-22.676 28.348h-39.688c0-14.723-8.988-28.348-22.675-28.348z"/><path fill="none" stroke="#000" stroke-linecap="round" stroke-linejoin="round" stroke-width="2" d="M494.305 26.281c-13.692 0-22.676 13.625-22.676 28.348h-39.688c0-14.723-8.988-28.348-22.675-28.348z"/></g></svg>