<svg xmlns="http://www.w3.org/2000/svg" width="802pt" height="884" viewBox="0 -663 802 663"><g id="page1"><path fill="#ffffb2" d="M10.004-8.945h5.953c1.633 0 3.2.648 4.355 1.804l4.895 4.895a2.553 2.553 0 0 0 3.61 0l4.894-4.895a6.16 6.16 0 0 1 4.355-1.804h742.586a2.55 2.55 0 0 0 2.551-2.551V-577.72c0-1.41-1.14-2.551-2.551-2.551H38.066a6.16 6.16 0 0 0-4.355 1.805l-4.895 4.895a2.554 2.554 0 0 1-3.609 0l-4.895-4.895a6.16 6.16 0 0 0-4.355-1.805H4.051A2.55 2.55 0 0 0 1.5-577.72v566.223c0 1.41 1.14 2.55 2.55 2.55z"/><path fill="none" stroke="#b2b200" stroke-linecap="round" stroke-linejoin="round" stroke-width="3" d="M10.004-8.945h5.953c1.633 0 3.2.648 4.355 1.804l4.895 4.895a2.553 2.553 0 0 0 3.61 0l4.894-4.895a6.16 6.16 0 0 1 4.355-1.804h742.586a2.55 2.55 0 0 0 2.551-2.551V-577.72c0-1.41-1.14-2.551-2.551-2.551H38.066a6.16 6.16 0 0 0-4.355 1.805l-4.895 4.895a2.554 2.554 0 0 1-3.609 0l-4.895-4.895a6.16 6.16 0 0 0-4.355-1.805H4.051A2.55 2.55 0 0 0 1.5-577.72v566.223c0 1.41 1.14 2.55 2.55 2.55z"/><path fill="#ffffb2" d="M35.516-25.953h5.953c1.633 0 3.199.648 4.355 1.805l4.895 4.894a2.553 2.553 0 0 0 3.61 0l4.894-4.894a6.16 6.16 0 0 1 4.355-1.805h725.578c1.41 0 2.555-1.14 2.555-2.55v-219.45a2.556 2.556 0 0 0-2.555-2.551H63.578a6.16 6.16 0 0 0-4.355 1.805l-4.895 4.894a2.553 2.553 0 0 1-3.61 0l-4.894-4.894a6.16 6.16 0 0 0-4.355-1.805H29.562a2.55 2.55 0 0 0-2.55 2.551v219.45c0 1.41 1.14 2.55 2.55 2.55z"/><path fill="none" stroke="#b2b200" stroke-linecap="round" stroke-linejoin="round" stroke-width="3" d="M35.516-25.953h5.953c1.633 0 3.199.648 4.355 1.805l4.895 4.894a2.553 2.553 0 0 0 3.61 0l4.894-4.894a6.16 6.16 0 0 1 4.355-1.805h725.578c1.41 0 2.555-1.14 2.555-2.55v-219.45a2.556 2.556 0 0 0-2.555-2.551H63.578a6.16 6.16 0 0 0-4.355 1.805l-4.895 4.894a2.553 2.553 0 0 1-3.61 0l-4.894-4.894a6.16 6.16 0 0 0-4.355-1.805H29.562a2.55 2.55 0 0 0-2.55 2.551v219.45c0 1.41 1.14 2.55 2.55 2.55z"/><path fill="#ffd9b2" d="M61.027-42.96h5.954a6.16 6.16 0 0 1 4.355 1.804l4.895 4.894a2.553 2.553 0 0 0 3.609 0l4.894-4.894a6.16 6.16 0 0 1 4.356-1.805h708.57c1.41 0 2.555-1.14 2.555-2.55v-73.157a2.553 2.553 0 0 0-2.555-2.551H89.09a6.16 6.16 0 0 0-4.356 1.805l-4.894 4.894a2.55 2.55 0 0 1-3.61 0l-4.894-4.894a6.16 6.16 0 0 0-4.355-1.805H55.074a2.55 2.55 0 0 0-2.55 2.551v73.156a2.55 2.55 0 0 0 2.55 2.551z"/><path fill="none" stroke="#b25900" stroke-linecap="round" stroke-linejoin="round" stroke-width="3" d="M61.027-42.96h5.954a6.16 6.16 0 0 1 4.355 1.804l4.895 4.894a2.553 2.553 0 0 0 3.609 0l4.894-4.894a6.16 6.16 0 0 1 4.356-1.805h708.57c1.41 0 2.555-1.14 2.555-2.55v-73.157a2.553 2.553 0 0 0-2.555-2.551H89.09a6.16 6.16 0 0 0-4.356 1.805l-4.894 4.894a2.55 2.55 0 0 1-3.61 0l-4.894-4.894a6.16 6.16 0 0 0-4.355-1.805H55.074a2.55 2.55 0 0 0-2.55 2.551v73.156a2.55 2.55 0 0 0 2.55 2.551z"/><path fill="#d9b2b2" d="M149.781-82.09c0 14.41 11.262 26.371 25.512 26.371h68.285c14.25 0 25.512-11.96 25.512-26.37 0-14.415-11.262-26.376-25.512-26.376h-68.285c-14.25 0-25.512 11.961-25.512 26.375"/><path fill="none" stroke="#590000" stroke-linecap="round" stroke-linejoin="round" stroke-width="3" d="M149.781-82.09c0 14.41 11.262 26.371 25.512 26.371h68.285c14.25 0 25.512-11.96 25.512-26.37 0-14.415-11.262-26.376-25.512-26.376h-68.285c-14.25 0-25.512 11.961-25.512 26.375"/><path fill="#b2ffb2" d="m76.727-157.168 11.117 20.348a10.76 10.76 0 0 0 9.437 5.597h487.145a10.75 10.75 0 0 0 9.433-5.597l22.231-40.692a11.67 11.67 0 0 0 0-11.195l-22.231-40.691a10.75 10.75 0 0 0-9.433-5.598H97.281a10.75 10.75 0 0 0-9.437 5.598l-22.23 40.691a11.67 11.67 0 0 0 0 11.195z"/><path fill="none" stroke="#00b200" stroke-linecap="round" stroke-linejoin="round" stroke-width="3" d="m76.727-157.168 11.117 20.348a10.76 10.76 0 0 0 9.437 5.597h487.145a10.75 10.75 0 0 0 9.433-5.597l22.231-40.692a11.67 11.67 0 0 0 0-11.195l-22.231-40.691a10.75 10.75 0 0 0-9.433-5.598H97.281a10.75 10.75 0 0 0-9.437 5.598l-22.23 40.691a11.67 11.67 0 0 0 0 11.195z"/><path fill="#d9b2b2" d="M78.145-183.109c0 19.515 8.261 39.129 25.511 39.129h377.035c17.25 0 25.512-19.614 25.512-39.129 0-19.516-8.262-39.129-25.512-39.129H103.656c-17.25 0-25.512 19.613-25.512 39.129"/><path fill="none" stroke="#590000" stroke-linecap="round" stroke-linejoin="round" stroke-width="3" d="M78.145-183.109c0 19.515 8.261 39.129 25.511 39.129h377.035c17.25 0 25.512-19.614 25.512-39.129 0-19.516-8.262-39.129-25.512-39.129H103.656c-17.25 0-25.512 19.613-25.512 39.129"/><path fill="#d9b2b2" d="M332.785-183.109c0 14.41 11.262 26.375 25.512 26.375h30.848c14.25 0 25.511-11.965 25.511-26.375s-11.261-26.375-25.511-26.375h-30.848c-14.25 0-25.512 11.964-25.512 26.375"/><path fill="none" stroke="#590000" stroke-linecap="round" stroke-linejoin="round" stroke-width="3" d="M332.785-183.109c0 14.41 11.262 26.375 25.512 26.375h30.848c14.25 0 25.511-11.965 25.511-26.375s-11.261-26.375-25.511-26.375h-30.848c-14.25 0-25.512 11.964-25.512 26.375"/><path fill="#d9b2b2" d="M457.156-183.109c0 13.578 7.793 26.375 20.274 26.375 12.476 0 20.269-12.797 20.269-26.375 0-13.579-7.793-26.375-20.269-26.375-12.481 0-20.274 12.796-20.274 26.375"/><path fill="none" stroke="#590000" stroke-linecap="round" stroke-linejoin="round" stroke-width="3" d="M457.156-183.109c0 13.578 7.793 26.375 20.274 26.375 12.476 0 20.269-12.797 20.269-26.375 0-13.579-7.793-26.375-20.269-26.375-12.481 0-20.274 12.796-20.274 26.375"/><path fill="#d9b2b2" d="M568.863-183.109c0 13.171 5.684 26.375 17.348 26.375s17.348-13.204 17.348-26.375c0-13.172-5.684-26.375-17.348-26.375s-17.348 13.203-17.348 26.375"/><path fill="none" stroke="#590000" stroke-linecap="round" stroke-linejoin="round" stroke-width="3" d="M568.863-183.109c0 13.171 5.684 26.375 17.348 26.375s17.348-13.204 17.348-26.375c0-13.172-5.684-26.375-17.348-26.375s-17.348 13.203-17.348 26.375"/><path fill="#ffb2ff" d="M35.516-253.449h5.953c1.633 0 3.199.648 4.355 1.804l4.895 4.895a2.553 2.553 0 0 0 3.61 0l4.894-4.895a6.16 6.16 0 0 1 4.355-1.804h725.578a2.553 2.553 0 0 0 2.555-2.551v-219.449a2.556 2.556 0 0 0-2.555-2.551H63.578c-1.633 0-3.2.648-4.355 1.805l-4.895 4.894c-.996 1-2.613 1-3.61 0l-4.894-4.894A6.16 6.16 0 0 0 41.47-478H29.562a2.55 2.55 0 0 0-2.55 2.551V-256a2.55 2.55 0 0 0 2.55 2.551z"/><path fill="none" stroke="#b200b2" stroke-linecap="round" stroke-linejoin="round" stroke-width="3" d="M35.516-253.449h5.953c1.633 0 3.199.648 4.355 1.804l4.895 4.895a2.553 2.553 0 0 0 3.61 0l4.894-4.895a6.16 6.16 0 0 1 4.355-1.804h725.578a2.553 2.553 0 0 0 2.555-2.551v-219.449a2.556 2.556 0 0 0-2.555-2.551H63.578c-1.633 0-3.2.648-4.355 1.805l-4.895 4.894c-.996 1-2.613 1-3.61 0l-4.894-4.894A6.16 6.16 0 0 0 41.47-478H29.562a2.55 2.55 0 0 0-2.55 2.551V-256a2.55 2.55 0 0 0 2.55 2.551z"/><path fill="#ffd9b2" d="M61.027-270.457h5.954c1.632 0 3.199.648 4.355 1.805l4.895 4.894a2.553 2.553 0 0 0 3.609 0l4.894-4.894a6.16 6.16 0 0 1 4.356-1.805h708.57a2.553 2.553 0 0 0 2.555-2.551v-73.156a2.553 2.553 0 0 0-2.555-2.551H89.09a6.16 6.16 0 0 0-4.356 1.805l-4.894 4.894a2.553 2.553 0 0 1-3.61 0l-4.894-4.894a6.16 6.16 0 0 0-4.355-1.805H55.074a2.55 2.55 0 0 0-2.55 2.551v73.156a2.55 2.55 0 0 0 2.55 2.551z"/><path fill="none" stroke="#b25900" stroke-linecap="round" stroke-linejoin="round" stroke-width="3" d="M61.027-270.457h5.954c1.632 0 3.199.648 4.355 1.805l4.895 4.894a2.553 2.553 0 0 0 3.609 0l4.894-4.894a6.16 6.16 0 0 1 4.356-1.805h708.57a2.553 2.553 0 0 0 2.555-2.551v-73.156a2.553 2.553 0 0 0-2.555-2.551H89.09a6.16 6.16 0 0 0-4.356 1.805l-4.894 4.894a2.553 2.553 0 0 1-3.61 0l-4.894-4.894a6.16 6.16 0 0 0-4.355-1.805H55.074a2.55 2.55 0 0 0-2.55 2.551v73.156a2.55 2.55 0 0 0 2.55 2.551z"/><path fill="#c6c6ff" d="M177.602-283.211h18.113a2.55 2.55 0 0 0 2.551-2.555v-47.644a2.55 2.55 0 0 0-2.551-2.551h-36.231a2.554 2.554 0 0 0-2.55 2.551v47.644a2.554 2.554 0 0 0 2.55 2.555z"/><path fill="none" stroke="#2d2db2" stroke-linecap="round" stroke-linejoin="round" stroke-width="3" d="M177.602-283.211h18.113a2.55 2.55 0 0 0 2.551-2.555v-47.644a2.55 2.55 0 0 0-2.551-2.551h-36.231a2.554 2.554 0 0 0-2.55 2.551v47.644a2.554 2.554 0 0 0 2.55 2.555z"/><path fill="#d9b2b2" d="M232.965-309.586c0 14.41 11.262 26.375 25.512 26.375h30.847c14.25 0 25.512-11.965 25.512-26.375s-11.262-26.375-25.512-26.375h-30.847c-14.25 0-25.512 11.965-25.512 26.375"/><path fill="none" stroke="#590000" stroke-linecap="round" stroke-linejoin="round" stroke-width="3" d="M232.965-309.586c0 14.41 11.262 26.375 25.512 26.375h30.847c14.25 0 25.512-11.965 25.512-26.375s-11.262-26.375-25.512-26.375h-30.847c-14.25 0-25.512 11.965-25.512 26.375"/><path fill="#c6c6ff" d="M165.875-384.23h58.043a2.55 2.55 0 0 0 2.551-2.551v-47.649a2.55 2.55 0 0 0-2.551-2.55H107.832a2.55 2.55 0 0 0-2.551 2.55v47.649a2.55 2.55 0 0 0 2.551 2.551z"/><path fill="none" stroke="#2d2db2" stroke-linecap="round" stroke-linejoin="round" stroke-width="3" d="M165.875-384.23h58.043a2.55 2.55 0 0 0 2.551-2.551v-47.649a2.55 2.55 0 0 0-2.551-2.55H107.832a2.55 2.55 0 0 0-2.551 2.55v47.649a2.55 2.55 0 0 0 2.551 2.551z"/><path fill="#b2ffb2" d="m242.063-384.66 11.113 20.344a10.76 10.76 0 0 0 9.437 5.597h446.602c3.933 0 7.551-2.148 9.437-5.597l22.231-40.692a11.7 11.7 0 0 0 0-11.195l-22.231-40.692a10.77 10.77 0 0 0-9.437-5.597H262.613c-3.933 0-7.55 2.148-9.437 5.597l-22.231 40.692a11.67 11.67 0 0 0 0 11.195z"/><path fill="none" stroke="#00b200" stroke-linecap="round" stroke-linejoin="round" stroke-width="3" d="m242.063-384.66 11.113 20.344a10.76 10.76 0 0 0 9.437 5.597h446.602c3.933 0 7.551-2.148 9.437-5.597l22.231-40.692a11.7 11.7 0 0 0 0-11.195l-22.231-40.692a10.77 10.77 0 0 0-9.437-5.597H262.613c-3.933 0-7.55 2.148-9.437 5.597l-22.231 40.692a11.67 11.67 0 0 0 0 11.195z"/><path fill="#d9b2b2" d="M243.477-410.605c0 19.515 8.261 39.128 25.511 39.128H605.48c17.25 0 25.512-19.613 25.512-39.128s-8.262-39.129-25.512-39.129H268.988c-17.25 0-25.511 19.613-25.511 39.129"/><path fill="none" stroke="#590000" stroke-linecap="round" stroke-linejoin="round" stroke-width="3" d="M243.477-410.605c0 19.515 8.261 39.128 25.511 39.128H605.48c17.25 0 25.512-19.613 25.512-39.128s-8.262-39.129-25.512-39.129H268.988c-17.25 0-25.511 19.613-25.511 39.129"/><path fill="#d9b2b2" d="M498.117-410.605c0 13.636 8.063 26.375 20.664 26.375s20.668-12.739 20.668-26.375c0-13.637-8.066-26.375-20.668-26.375s-20.664 12.738-20.664 26.375"/><path fill="none" stroke="#590000" stroke-linecap="round" stroke-linejoin="round" stroke-width="3" d="M498.117-410.605c0 13.636 8.063 26.375 20.664 26.375s20.668-12.739 20.668-26.375c0-13.637-8.066-26.375-20.668-26.375s-20.664 12.738-20.664 26.375"/><path fill="#d9b2b2" d="M581.949-410.605c0 13.578 7.789 26.375 20.27 26.375s20.269-12.797 20.269-26.375c0-13.579-7.789-26.375-20.269-26.375-12.481 0-20.27 12.796-20.27 26.375"/><path fill="none" stroke="#590000" stroke-linecap="round" stroke-linejoin="round" stroke-width="3" d="M581.949-410.605c0 13.578 7.789 26.375 20.27 26.375s20.269-12.797 20.269-26.375c0-13.579-7.789-26.375-20.269-26.375-12.481 0-20.27 12.796-20.27 26.375"/><path fill="#d9b2b2" d="M693.652-410.605c0 13.171 5.684 26.375 17.348 26.375 11.668 0 17.348-13.204 17.348-26.375 0-13.172-5.68-26.375-17.348-26.375-11.664 0-17.348 13.203-17.348 26.375"/><path fill="none" stroke="#590000" stroke-linecap="round" stroke-linejoin="round" stroke-width="3" d="M693.652-410.605c0 13.171 5.684 26.375 17.348 26.375 11.668 0 17.348-13.204 17.348-26.375 0-13.172-5.68-26.375-17.348-26.375-11.664 0-17.348 13.203-17.348 26.375"/><path fill="#b2ffb2" d="m51.215-507.566 10.433 14.398a12.5 12.5 0 0 0 10.121 5.164h267.297c4.008 0 7.77-1.918 10.122-5.164l20.863-28.801a8.81 8.81 0 0 0 0-10.328l-20.863-28.801a12.5 12.5 0 0 0-10.122-5.164H71.77a12.5 12.5 0 0 0-10.122 5.164l-20.863 28.801a8.79 8.79 0 0 0 0 10.328z"/><path fill="none" stroke="#00b200" stroke-linecap="round" stroke-linejoin="round" stroke-width="3" d="m51.215-507.566 10.433 14.398a12.5 12.5 0 0 0 10.121 5.164h267.297c4.008 0 7.77-1.918 10.122-5.164l20.863-28.801a8.81 8.81 0 0 0 0-10.328l-20.863-28.801a12.5 12.5 0 0 0-10.122-5.164H71.77a12.5 12.5 0 0 0-10.122 5.164l-20.863 28.801a8.79 8.79 0 0 0 0 10.328z"/><path fill="#d9b2b2" d="M52.633-527.133c0 13.637 8.066 26.375 20.668 26.375s20.664-12.738 20.664-26.375-8.063-26.375-20.664-26.375-20.668 12.738-20.668 26.375"/><path fill="none" stroke="#590000" stroke-linecap="round" stroke-linejoin="round" stroke-width="3" d="M52.633-527.133c0 13.637 8.066 26.375 20.668 26.375s20.664-12.738 20.664-26.375-8.063-26.375-20.664-26.375-20.668 12.738-20.668 26.375"/><path fill="#d9b2b2" d="M273.035-527.133c0 14.41 11.262 26.375 25.512 26.375h34.141c14.25 0 25.511-11.965 25.511-26.375s-11.261-26.375-25.511-26.375h-34.141c-14.25 0-25.512 11.965-25.512 26.375"/><path fill="none" stroke="#590000" stroke-linecap="round" stroke-linejoin="round" stroke-width="3" d="M273.035-527.133c0 14.41 11.262 26.375 25.512 26.375h34.141c14.25 0 25.511-11.965 25.511-26.375s-11.261-26.375-25.511-26.375h-34.141c-14.25 0-25.512 11.965-25.512 26.375"/><path fill="#ffd9b2" d="M10.004-583.215h5.953c1.633 0 3.2.649 4.355 1.805l4.895 4.894a2.554 2.554 0 0 0 3.61 0l4.894-4.894a6.16 6.16 0 0 1 4.355-1.805h742.586a2.55 2.55 0 0 0 2.551-2.551v-73.156c0-1.41-1.14-2.555-2.551-2.555H38.066a6.18 6.18 0 0 0-4.355 1.805l-4.895 4.899a2.554 2.554 0 0 1-3.609 0l-4.895-4.899a6.18 6.18 0 0 0-4.355-1.805H4.051a2.553 2.553 0 0 0-2.551 2.555v73.156a2.55 2.55 0 0 0 2.55 2.551z"/><path fill="none" stroke="#b25900" stroke-linecap="round" stroke-linejoin="round" stroke-width="3" d="M10.004-583.215h5.953c1.633 0 3.2.649 4.355 1.805l4.895 4.894a2.554 2.554 0 0 0 3.61 0l4.894-4.894a6.16 6.16 0 0 1 4.355-1.805h742.586a2.55 2.55 0 0 0 2.551-2.551v-73.156c0-1.41-1.14-2.555-2.551-2.555H38.066a6.18 6.18 0 0 0-4.355 1.805l-4.895 4.899a2.554 2.554 0 0 1-3.609 0l-4.895-4.899a6.18 6.18 0 0 0-4.355-1.805H4.051a2.553 2.553 0 0 0-2.551 2.555v73.156a2.55 2.55 0 0 0 2.55 2.551z"/><path fill="#c6c6ff" d="M126.578-595.973h18.113a2.55 2.55 0 0 0 2.551-2.55v-47.645c0-1.41-1.14-2.551-2.551-2.551h-36.226a2.553 2.553 0 0 0-2.555 2.551v47.645c0 1.41 1.145 2.55 2.555 2.55z"/><path fill="none" stroke="#2d2db2" stroke-linecap="round" stroke-linejoin="round" stroke-width="3" d="M126.578-595.973h18.113a2.55 2.55 0 0 0 2.551-2.55v-47.645c0-1.41-1.14-2.551-2.551-2.551h-36.226a2.553 2.553 0 0 0-2.555 2.551v47.645c0 1.41 1.145 2.55 2.555 2.55z"/><path fill="#d9b2b2" d="M181.938-622.344c0 13.172 5.683 26.371 17.351 26.371 11.664 0 17.348-13.199 17.348-26.371 0-13.176-5.684-26.375-17.348-26.375-11.668 0-17.351 13.199-17.351 26.375"/><path fill="none" stroke="#590000" stroke-linecap="round" stroke-linejoin="round" stroke-width="3" d="M181.938-622.344c0 13.172 5.683 26.371 17.351 26.371 11.664 0 17.348-13.199 17.348-26.371 0-13.176-5.684-26.375-17.348-26.375-11.668 0-17.351 13.199-17.351 26.375"/><path d="M71.836-86.207c0-.434 0-.55-.238-.55-.192 0-.645.523-.813.741-.738-.597-1.48-.742-2.246-.742-2.89 0-3.75 1.578-3.75 2.89 0 .266 0 1.102.906 1.938.766.668 1.578.836 2.68 1.051 1.313.262 1.625.332 2.219.813.43.359.742.882.742 1.55 0 1.032-.598 2.176-2.7 2.176-1.577 0-2.722-.906-3.25-3.297-.097-.43-.097-.453-.12-.476-.047-.098-.141-.098-.215-.098-.262 0-.262.121-.262.55v3.25c0 .43 0 .552.238.552.121 0 .145-.024.551-.528.117-.168.117-.215.477-.597.906 1.125 2.199 1.125 2.605 1.125 2.508 0 3.75-1.387 3.75-3.274 0-1.293-.785-2.058-1.004-2.273-.86-.738-1.504-.883-3.082-1.172-.715-.14-2.46-.477-2.46-1.91 0-.739.503-1.84 2.652-1.84 2.605 0 2.75 2.222 2.796 2.965.024.191.192.191.262.191.262 0 .262-.121.262-.55zm5.379.5h3.37v-.691h-3.37v-4.399h-.528c-.023 2.246-.882 4.54-3.058 4.613v.477h2.031v6.644c0 2.653 1.77 3.204 3.035 3.204 1.508 0 2.297-1.485 2.297-3.204v-1.363h-.527v1.317c0 1.718-.692 2.722-1.625 2.722-1.625 0-1.625-2.222-1.625-2.629zm14.41 3.227c0-1.29 0-2.247-1.05-3.18-.84-.762-1.915-1.098-2.966-1.098-1.96 0-3.465 1.29-3.465 2.844 0 .691.454 1.027 1.004 1.027.575 0 .98-.406.98-.98 0-.98-.862-.98-1.218-.98.55-1.005 1.696-1.434 2.653-1.434 1.097 0 2.507.91 2.507 3.058v.957c-4.804.07-6.617 2.079-6.617 3.918 0 1.891 2.195 2.489 3.656 2.489 1.575 0 2.653-.957 3.106-2.106.094 1.125.836 1.984 1.863 1.984.5 0 1.887-.335 1.887-2.246v-1.34h-.524v1.34c0 1.364-.574 1.555-.91 1.555-.906 0-.906-1.27-.906-1.625zm-1.555 3.01c0 2.34-1.742 3.13-2.773 3.13-1.168 0-2.149-.86-2.149-2.009 0-3.152 4.063-3.441 4.922-3.488zm21.164-2.436c0-2.223 0-2.89-.55-3.656-.692-.934-1.817-1.079-2.629-1.079-1.985 0-2.985 1.438-3.367 2.368-.336-1.84-1.625-2.368-3.133-2.368-2.317 0-3.227 1.985-3.414 2.465h-.028v-2.465l-3.25.266v.691c1.625 0 1.817.168 1.817 1.34v6.477c0 1.074-.262 1.074-1.817 1.074v.691c.621-.046 1.914-.046 2.582-.046.696 0 1.985 0 2.606.046v-.691c-1.532 0-1.817 0-1.817-1.074v-4.445c0-2.508 1.649-3.848 3.129-3.848 1.485 0 1.817 1.219 1.817 2.676v5.617c0 1.074-.262 1.074-1.817 1.074v.691c.621-.046 1.914-.046 2.582-.046.696 0 1.985 0 2.606.046v-.691c-1.531 0-1.817 0-1.817-1.074v-4.445c0-2.508 1.649-3.848 3.129-3.848 1.481 0 1.817 1.219 1.817 2.676v5.617c0 1.074-.262 1.074-1.817 1.074v.691c.621-.046 1.914-.046 2.582-.046.696 0 1.985 0 2.606.046v-.691c-1.196 0-1.793 0-1.817-.715zm8.219 9.75c-1.527 0-1.812 0-1.812-1.078v-4.157c.429.598 1.406 1.532 2.937 1.532 2.75 0 5.16-2.32 5.16-5.403 0-3.035-2.246-5.379-4.847-5.379-2.106 0-3.227 1.508-3.301 1.602v-1.602l-3.32.266v.691c1.671 0 1.816.168 1.816 1.22v11.23c0 1.078-.266 1.078-1.816 1.078v.691c.621-.047 1.91-.047 2.582-.047.691 0 1.98 0 2.601.047zm-1.812-11.567c0-.453 0-.48.261-.859a3.44 3.44 0 0 1 2.793-1.531c1.793 0 3.227 2.175 3.227 4.851 0 2.844-1.625 4.922-3.465 4.922a2.82 2.82 0 0 1-1.91-.762c-.551-.55-.906-1.03-.906-1.699zm18.183 1.243c0-1.29 0-2.247-1.051-3.18-.835-.762-1.914-1.098-2.964-1.098-1.957 0-3.465 1.29-3.465 2.844 0 .691.453 1.027 1.004 1.027.574 0 .98-.406.98-.98 0-.98-.859-.98-1.219-.98.551-1.005 1.696-1.434 2.653-1.434 1.097 0 2.508.91 2.508 3.058v.957c-4.801.07-6.618 2.079-6.618 3.918 0 1.891 2.2 2.489 3.657 2.489 1.574 0 2.652-.957 3.105-2.106.094 1.125.836 1.984 1.863 1.984.504 0 1.887-.335 1.887-2.246v-1.34h-.523v1.34c0 1.364-.575 1.555-.907 1.555-.91 0-.91-1.27-.91-1.625zm-1.554 3.011c0 2.34-1.743 3.13-2.774 3.13-1.168 0-2.148-.86-2.148-2.009 0-3.152 4.062-3.441 4.922-3.488zm34.222-8.171c.406-2.274 1.863-3.754 2.582-4.352.36-.336.383-.36.383-.43 0-.094-.098-.238-.215-.238-.406 0-3.273 2.797-3.273 5.52 0 .55.14 1.41 1.074 1.41.766 0 1.41-.668 1.41-1.41 0-.669-.504-.907-.957-.907-.621 0-.836.238-1.004.406m4.184 0c.406-2.274 1.863-3.754 2.582-4.352.355-.336.379-.36.379-.43 0-.094-.094-.238-.215-.238-.406 0-3.274 2.797-3.274 5.52 0 .55.145 1.41 1.079 1.41.761 0 1.406-.668 1.406-1.41 0-.669-.5-.907-.953-.907-.621 0-.836.238-1.004.406m6.64 1.935h1.985c.406 0 .644 0 .644-.43 0-.261-.164-.261-.574-.261h-1.887l.957-3.754c.024-.047.047-.262.047-.309a.59.59 0 0 0-.621-.574c-.597 0-.812.527-.906.883l-.934 3.754h-2.031c-.43 0-.644 0-.644.453 0 .238.191.238.574.238h1.933l-1.718 6.883c-.121.476-.121.765-.121.86 0 1.1.644 2.105 1.96 2.105 2.34 0 3.536-3.54 3.536-3.657 0-.218-.215-.218-.313-.218-.262 0-.285.05-.406.312-.285.742-1.219 3.082-2.77 3.082-.359 0-.691-.168-.691-.957 0-.355.094-.906.187-1.266zm7.707 2.773c.071-.289 1.145-3.226 3.153-3.226.121 0 .789 0 1.316.332-.359.097-.812.457-.812 1.055 0 .5.383.691.738.691.43 0 1.074-.309 1.074-1.172 0-1.219-1.625-1.387-2.293-1.387-1.097 0-2.008.528-2.89 1.77-.215-1.41-1.243-1.77-1.887-1.77-.551 0-1.172.243-1.676 1.27-.453.883-.762 2.316-.762 2.363 0 .192.118.242.336.242.262 0 .285-.023.426-.574.359-1.41.817-2.82 1.625-2.82.621 0 .621.691.621.98 0 .453-.094.977-.187 1.313l-1.746 6.976c-.094.336-.094.36-.094.457 0 .286.191.575.621.575.547 0 .785-.457.883-.836zm14.555.168c0-2.488-1.531-3.875-3.324-3.875-2.914 0-5.926 3.372-5.926 6.907 0 2.582 1.602 3.875 3.32 3.875 2.918 0 5.93-3.418 5.93-6.907m-5.906 6.426c-1 0-1.813-.86-1.813-2.484 0-1.098.571-3.727 1.36-5.09.886-1.531 2.105-2.246 2.988-2.246 1.219 0 1.84 1.12 1.84 2.484 0 1.028-.574 3.73-1.336 5.043-.981 1.695-2.199 2.293-3.039 2.293m17.492-8.77c0-1.218-.476-1.53-.906-1.53-.453 0-1.051.456-1.051 1.007 0 .211.047.332.262.57.551.649.621 1.532.621 1.915 0 .62-1.098 6.808-3.895 6.808-1.218 0-1.554-1.05-1.554-2.008 0-1.386.812-3.605 1.363-5.066.191-.57.312-.883.312-1.36 0-.957-.574-1.867-1.746-1.867-2.175 0-2.988 3.516-2.988 3.657 0 .218.215.218.336.218.285 0 .309-.074.406-.406.192-.719.813-2.988 2.199-2.988.286 0 .547.12.547.691 0 .598-.238 1.219-.738 2.606-.957 2.652-1.051 3.511-1.051 4.183 0 2.438 1.817 2.82 2.821 2.82 3.964 0 5.062-8.628 5.062-9.25m10.59-.117c.066-.265.066-.335.066-.382 0-.266-.187-.575-.617-.575-.765 0-.933.93-.933.93l-.024.027c-.457-1.125-1.266-1.414-1.91-1.414-2.606 0-5.356 3.657-5.356 7.149 0 2.125 1.125 3.633 2.75 3.633.981 0 1.958-.625 2.868-1.7.261 1.457 1.336 1.7 1.886 1.7.93 0 1.411-.696 1.719-1.387.406-.836.695-2.2.695-2.27 0-.218-.214-.218-.308-.218-.289 0-.313.027-.457.574-.477 1.984-.93 2.82-1.602 2.82-.523 0-.644-.5-.644-.957 0-.355.097-.906.191-1.266zm-3.012 6.235c-.144.62-1.578 2.652-2.965 2.652-1.265 0-1.312-1.863-1.312-2.148 0-1.196.762-4.016 1.144-4.973.621-1.48 1.696-2.7 2.727-2.7 1.43 0 1.598 2.126 1.598 2.294 0 .023-.071.289-.071.336zm9.676-6.715h1.984c.407 0 .645 0 .645-.43 0-.261-.168-.261-.574-.261h-1.887l.953-3.754c.024-.047.051-.262.051-.309a.59.59 0 0 0-.621-.574c-.598 0-.813.527-.91.883l-.93 3.754h-2.035c-.43 0-.645 0-.645.453 0 .238.192.238.574.238h1.938l-1.723 6.883c-.117.476-.117.765-.117.86 0 1.1.645 2.105 1.957 2.105 2.344 0 3.539-3.54 3.539-3.657 0-.218-.215-.218-.312-.218-.262 0-.285.05-.407.312-.285.742-1.218 3.082-2.769 3.082-.359 0-.695-.168-.695-.957 0-.355.097-.906.191-1.266zm13.559 2.941c0-2.488-1.532-3.875-3.321-3.875-2.918 0-5.929 3.372-5.929 6.907 0 2.582 1.601 3.875 3.324 3.875 2.914 0 5.926-3.418 5.926-6.907m-5.903 6.426c-1.004 0-1.816-.86-1.816-2.484 0-1.098.574-3.727 1.363-5.09.883-1.531 2.102-2.246 2.988-2.246 1.219 0 1.836 1.12 1.836 2.484 0 1.028-.574 3.73-1.336 5.043-.98 1.695-2.199 2.293-3.035 2.293m13.121-14.433c-.429 2.367-1.933 3.824-2.699 4.468-.238.215-.262.239-.262.313 0 .117.118.238.239.238.336 0 3.25-2.723 3.25-5.543 0-.266 0-1.387-1.051-1.387-.883 0-1.434.762-1.434 1.41 0 .524.332.907.957.907.621 0 .836-.215 1-.406m4.184 0c-.43 2.367-1.934 3.824-2.699 4.468-.239.215-.266.239-.266.313 0 .117.121.238.242.238.332 0 3.25-2.723 3.25-5.543 0-.266 0-1.387-1.054-1.387-.883 0-1.43.762-1.43 1.41 0 .524.332.907.953.907s.84-.215 1.004-.406M46.336-187.207c0-.434 0-.551-.238-.551-.192 0-.645.524-.813.742-.738-.597-1.48-.742-2.246-.742-2.89 0-3.75 1.578-3.75 2.891 0 .265 0 1.101.906 1.937.766.668 1.578.836 2.68 1.051 1.313.262 1.625.332 2.219.813.43.359.742.882.742 1.55 0 1.032-.598 2.176-2.7 2.176-1.577 0-2.722-.906-3.25-3.297-.097-.429-.097-.453-.12-.476-.047-.098-.141-.098-.215-.098-.262 0-.262.121-.262.551v3.25c0 .43 0 .551.238.551.121 0 .145-.024.551-.528.117-.168.117-.215.477-.597.906 1.125 2.199 1.125 2.605 1.125 2.508 0 3.75-1.387 3.75-3.274 0-1.293-.785-2.058-1.004-2.273-.86-.739-1.504-.883-3.082-1.172-.715-.141-2.46-.477-2.46-1.91 0-.739.503-1.84 2.652-1.84 2.605 0 2.75 2.223 2.797 2.965.023.191.19.191.261.191.262 0 .262-.121.262-.551zm10.516 4.562c.527 0 .574 0 .574-.453 0-2.414-1.29-4.66-4.184-4.66-2.722 0-4.824 2.461-4.824 5.426 0 3.152 2.438 5.473 5.09 5.473 2.844 0 3.918-2.582 3.918-3.086 0-.145-.121-.239-.262-.239-.191 0-.242.121-.289.239-.621 2.007-2.219 2.558-3.227 2.558-1 0-3.414-.668-3.414-4.804v-.454zm-6.594-.453c.191-3.754 2.293-4.183 2.96-4.183 2.56 0 2.704 3.371 2.727 4.183zm43.452-10.586-3.32.262v.695c1.626 0 1.813.164 1.813 1.336v12.524c0 1.074-.262 1.074-1.812 1.074v.691c.668-.046 1.836-.046 2.554-.046.72 0 1.914 0 2.582.046v-.691c-1.53 0-1.816 0-1.816-1.074zm6.595 1.84c.023.168.047.285.047.598 0 .332 0 2.269-1.649 3.918-.215.215-.215.262-.215.336 0 .121.121.238.239.238.218 0 2.105-1.769 2.105-4.492 0-1.481-.551-2.438-1.504-2.438-.695 0-1.148.528-1.148 1.145 0 .648.453 1.172 1.172 1.172.644 0 .953-.453.953-.477m11.449 9.199c.523 0 .574 0 .574-.453 0-2.414-1.293-4.66-4.183-4.66-2.723 0-4.829 2.461-4.829 5.426 0 3.152 2.438 5.473 5.09 5.473 2.844 0 3.922-2.582 3.922-3.086 0-.145-.121-.239-.265-.239-.192 0-.239.121-.286.239-.621 2.007-2.222 2.558-3.226 2.558s-3.418-.668-3.418-4.804v-.454zm-6.598-.453c.192-3.754 2.297-4.183 2.965-4.183 2.555 0 2.699 3.371 2.723 4.183zm11.953-10.586-3.32.262v.695c1.625 0 1.816.164 1.816 1.336v12.524c0 1.074-.261 1.074-1.816 1.074v.691c.668-.046 1.84-.046 2.555-.046.719 0 1.914 0 2.582.046v-.691c-1.528 0-1.817 0-1.817-1.074zm11.645 11.039c.523 0 .574 0 .574-.453 0-2.414-1.293-4.66-4.183-4.66-2.723 0-4.829 2.461-4.829 5.426 0 3.152 2.438 5.473 5.09 5.473 2.844 0 3.922-2.582 3.922-3.086 0-.145-.121-.239-.265-.239-.192 0-.239.121-.286.239-.621 2.007-2.222 2.558-3.226 2.558s-3.418-.668-3.418-4.804v-.454zm-6.598-.453c.192-3.754 2.297-4.183 2.965-4.183 2.555 0 2.699 3.371 2.723 4.183zm24.977.192c0-2.223 0-2.891-.547-3.657-.695-.933-1.816-1.078-2.629-1.078-1.984 0-2.988 1.438-3.371 2.368-.332-1.84-1.625-2.368-3.129-2.368-2.32 0-3.227 1.985-3.418 2.465h-.023v-2.465l-3.25.266v.691c1.625 0 1.816.168 1.816 1.34v6.477c0 1.074-.262 1.074-1.816 1.074v.691c.621-.046 1.91-.046 2.578-.046.695 0 1.984 0 2.605.046v-.691c-1.527 0-1.816 0-1.816-1.074v-4.446c0-2.507 1.648-3.847 3.133-3.847 1.48 0 1.816 1.219 1.816 2.676v5.617c0 1.074-.266 1.074-1.816 1.074v.691c.621-.046 1.91-.046 2.578-.046.695 0 1.984 0 2.605.046v-.691c-1.527 0-1.816 0-1.816-1.074v-4.446c0-2.507 1.648-3.847 3.133-3.847 1.48 0 1.816 1.219 1.816 2.676v5.617c0 1.074-.266 1.074-1.816 1.074v.691c.621-.046 1.91-.046 2.578-.046.695 0 1.984 0 2.605.046v-.691c-1.195 0-1.793 0-1.816-.715zm11.519.261c.528 0 .575 0 .575-.453 0-2.414-1.289-4.66-4.184-4.66-2.723 0-4.824 2.461-4.824 5.426 0 3.152 2.437 5.473 5.086 5.473 2.843 0 3.922-2.582 3.922-3.086 0-.145-.122-.239-.262-.239-.192 0-.242.121-.289.239-.621 2.007-2.223 2.558-3.227 2.558s-3.418-.668-3.418-4.804v-.454zm-6.597-.453c.191-3.754 2.297-4.183 2.965-4.183 2.558 0 2.699 3.371 2.722 4.183zm18.48.192c0-2.223 0-2.891-.551-3.657-.695-.933-1.816-1.078-2.629-1.078-2.316 0-3.226 1.985-3.417 2.465h-.024v-2.465l-3.25.266v.691c1.625 0 1.816.168 1.816 1.34v6.477c0 1.074-.261 1.074-1.816 1.074v.691c.621-.046 1.914-.046 2.582-.046.692 0 1.984 0 2.606.046v-.691c-1.532 0-1.817 0-1.817-1.074v-4.446c0-2.507 1.649-3.847 3.129-3.847 1.484 0 1.816 1.219 1.816 2.676v5.617c0 1.074-.261 1.074-1.816 1.074v.691c.621-.046 1.914-.046 2.582-.046.692 0 1.981 0 2.606.046v-.691c-1.196 0-1.793 0-1.817-.715zm5.68-3.801h3.371v-.691h-3.371v-4.399h-.527c-.024 2.246-.883 4.539-3.059 4.613v.477h2.031v6.644c0 2.653 1.77 3.204 3.035 3.204 1.508 0 2.297-1.485 2.297-3.204v-1.363h-.527v1.317c0 1.718-.692 2.722-1.625 2.722-1.625 0-1.625-2.222-1.625-2.629zm16.055 4.492c0-3.082-2.344-5.543-5.114-5.543-2.867 0-5.14 2.531-5.14 5.543 0 3.059 2.39 5.356 5.117 5.356 2.816 0 5.137-2.344 5.137-5.356m-5.114 4.828c-.886 0-1.961-.383-2.652-1.554-.649-1.075-.672-2.485-.672-3.489 0-.91 0-2.367.742-3.441a3.06 3.06 0 0 1 2.559-1.41c.93 0 1.933.429 2.578 1.363.742 1.098.742 2.605.742 3.488 0 .836 0 2.321-.621 3.442-.668 1.148-1.769 1.601-2.676 1.601m17.801-14.433c0-.621-.5-1.172-1.168-1.172-.625 0-1.148.504-1.148 1.148 0 .715.574 1.172 1.148 1.172.738 0 1.168-.625 1.168-1.148m-3.297 4.445v.691c1.528 0 1.746.145 1.746 1.317v6.5c0 1.074-.265 1.074-1.816 1.074v.691c.668-.046 1.816-.046 2.508-.046.261 0 1.648 0 2.461.046v-.691c-1.551 0-1.649-.121-1.649-1.051v-8.797zm16.274 4.469c0-2.223 0-2.891-.551-3.657-.692-.933-1.813-1.078-2.625-1.078-2.32 0-3.227 1.985-3.418 2.465h-.027v-2.465l-3.25.266v.691c1.625 0 1.82.168 1.82 1.34v6.477c0 1.074-.266 1.074-1.82 1.074v.691c.625-.046 1.914-.046 2.582-.046.695 0 1.984 0 2.605.046v-.691c-1.531 0-1.816 0-1.816-1.074v-4.446c0-2.507 1.648-3.847 3.129-3.847 1.484 0 1.82 1.219 1.82 2.676v5.617c0 1.074-.266 1.074-1.82 1.074v.691c.625-.046 1.914-.046 2.582-.046.695 0 1.984 0 2.605.046v-.691c-1.195 0-1.793 0-1.816-.715zm16.019 9.75c-1.527 0-1.812 0-1.812-1.078v-4.157c.429.598 1.406 1.532 2.937 1.532 2.75 0 5.16-2.321 5.16-5.403 0-3.035-2.246-5.379-4.847-5.379-2.106 0-3.227 1.508-3.301 1.602v-1.602l-3.32.266v.691c1.671 0 1.816.168 1.816 1.219v11.231c0 1.078-.266 1.078-1.816 1.078v.691c.621-.047 1.91-.047 2.582-.047.691 0 1.98 0 2.601.047zm-1.812-11.567c0-.453 0-.48.261-.859a3.44 3.44 0 0 1 2.793-1.531c1.793 0 3.227 2.175 3.227 4.851 0 2.844-1.625 4.922-3.465 4.922a2.8 2.8 0 0 1-1.91-.762c-.551-.55-.906-1.031-.906-1.699zm20.629 2.508c0-3.082-2.344-5.543-5.114-5.543-2.867 0-5.14 2.531-5.14 5.543 0 3.059 2.39 5.356 5.117 5.356 2.816 0 5.137-2.344 5.137-5.356m-5.114 4.828c-.886 0-1.961-.383-2.652-1.554-.649-1.075-.672-2.485-.672-3.489 0-.91 0-2.367.742-3.441a3.06 3.06 0 0 1 2.559-1.41c.93 0 1.933.429 2.578 1.363.742 1.098.742 2.605.742 3.488 0 .836 0 2.321-.621 3.442-.668 1.148-1.769 1.601-2.676 1.601m13.684-9.82c0-.434 0-.551-.242-.551-.192 0-.645.524-.813.742-.738-.597-1.48-.742-2.246-.742-2.891 0-3.75 1.578-3.75 2.891 0 .265 0 1.101.906 1.937.766.668 1.578.836 2.676 1.051 1.317.262 1.625.332 2.223.813.429.359.742.882.742 1.55 0 1.032-.598 2.176-2.699 2.176-1.578 0-2.723-.906-3.25-3.297-.098-.429-.098-.453-.121-.476-.047-.098-.145-.098-.215-.098-.262 0-.262.121-.262.551v3.25c0 .43 0 .551.238.551.121 0 .145-.024.551-.528.117-.168.117-.215.477-.597.91 1.125 2.199 1.125 2.605 1.125 2.508 0 3.75-1.387 3.75-3.274 0-1.293-.789-2.058-1.004-2.273-.859-.739-1.504-.883-3.082-1.172-.715-.141-2.461-.477-2.461-1.91 0-.739.504-1.84 2.653-1.84 2.605 0 2.75 2.223 2.797 2.965.023.191.191.191.261.191.266 0 .266-.121.266-.551zm5.519-4.613c0-.621-.504-1.172-1.171-1.172a1.15 1.15 0 0 0-1.149 1.148c0 .715.574 1.172 1.149 1.172.742 0 1.171-.625 1.171-1.148m-3.296 4.445v.691c1.527 0 1.742.145 1.742 1.317v6.5c0 1.074-.262 1.074-1.817 1.074v.691c.668-.046 1.817-.046 2.508-.046.266 0 1.652 0 2.465.046v-.691c-1.555 0-1.648-.121-1.648-1.051v-8.797zm14.742.645c.215-.262.215-.309.215-.407 0-.261-.168-.261-.575-.261h-7.504l-.261 3.796h.527c.141-2.437.598-3.32 3.199-3.32h2.774l-6.836 9.391c0 .429.051.429.574.429h7.793l.379-4.394h-.524c-.214 2.723-.621 3.871-3.464 3.871h-2.891zm5.453-5.09c0-.621-.5-1.172-1.168-1.172-.625 0-1.149.504-1.149 1.148 0 .715.575 1.172 1.149 1.172.738 0 1.168-.625 1.168-1.148m-3.297 4.445v.691c1.527 0 1.742.145 1.742 1.317v6.5c0 1.074-.262 1.074-1.812 1.074v.691c.668-.046 1.812-.046 2.507-.046.262 0 1.649 0 2.461.046v-.691c-1.554 0-1.648-.121-1.648-1.051v-8.797zm16.707 5.16c0-3.082-2.34-5.543-5.113-5.543-2.867 0-5.137 2.531-5.137 5.543 0 3.059 2.387 5.356 5.113 5.356 2.821 0 5.137-2.344 5.137-5.356m-5.113 4.828c-.883 0-1.961-.383-2.653-1.554-.644-1.075-.668-2.485-.668-3.489 0-.91 0-2.367.739-3.441a3.06 3.06 0 0 1 2.558-1.41c.934 0 1.938.429 2.578 1.363.743 1.098.743 2.605.743 3.488 0 .836 0 2.321-.622 3.442-.667 1.148-1.765 1.601-2.675 1.601m16.48-5.519c0-2.223 0-2.891-.551-3.657-.695-.933-1.816-1.078-2.629-1.078-2.316 0-3.226 1.985-3.417 2.465h-.024v-2.465l-3.25.266v.691c1.625 0 1.816.168 1.816 1.34v6.477c0 1.074-.261 1.074-1.816 1.074v.691c.621-.046 1.914-.046 2.582-.046.692 0 1.984 0 2.606.046v-.691c-1.532 0-1.817 0-1.817-1.074v-4.446c0-2.507 1.649-3.847 3.129-3.847 1.484 0 1.816 1.219 1.816 2.676v5.617c0 1.074-.261 1.074-1.816 1.074v.691c.621-.046 1.914-.046 2.582-.046.692 0 1.981 0 2.606.046v-.691c-1.196 0-1.793 0-1.817-.715zm11.52.261c.523 0 .574 0 .574-.453 0-2.414-1.293-4.66-4.184-4.66-2.726 0-4.828 2.461-4.828 5.426 0 3.152 2.438 5.473 5.09 5.473 2.844 0 3.922-2.582 3.922-3.086 0-.145-.121-.239-.266-.239-.191 0-.242.121-.285.239-.625 2.007-2.223 2.558-3.226 2.558s-3.418-.668-3.418-4.804v-.454zm-6.598-.453c.191-3.754 2.297-4.183 2.965-4.183 2.555 0 2.699 3.371 2.723 4.183zm37.914-1.601h4.016c3.301 0 6.597-2.438 6.597-5.16 0-1.868-1.578-3.563-4.589-3.563h-7.383c-.453 0-.668 0-.668.453 0 .242.215.242.57.242 1.457 0 1.457.188 1.457.454 0 .046 0 .191-.094.546l-3.226 12.86c-.215.836-.262 1.074-1.934 1.074-.453 0-.695 0-.695.43 0 .261.215.261.359.261.453 0 .934-.046 1.387-.046h2.797c.453 0 .953.046 1.406.046.192 0 .457 0 .457-.453 0-.238-.215-.238-.574-.238-1.434 0-1.457-.168-1.457-.406 0-.121.023-.285.047-.406zm1.723-7.098c.215-.883.312-.93 1.242-.93h2.367c1.793 0 3.274.571 3.274 2.364 0 .621-.313 2.652-1.411 3.754-.406.429-1.554 1.336-3.726 1.336h-3.371zm24.34 9.176h6.597c.332 0 .766 0 .766-.43 0-.453-.406-.453-.766-.453h-6.597v-6.598c0-.332 0-.761-.43-.761-.453 0-.453.406-.453.761v6.598h-6.598c-.332 0-.762 0-.762.43 0 .453.407.453.762.453h6.598v6.598c0 .332 0 .765.429.765.454 0 .454-.406.454-.765zm20.847-9.797c0-.551 0-.574-.476-.574-.575.648-1.77 1.527-4.231 1.527v.695c.551 0 1.746 0 3.059-.621v12.45c0 .863-.07 1.148-2.172 1.148h-.742v.691c.644-.046 2.961-.046 3.75-.046s3.086 0 3.726.046v-.691h-.738c-2.102 0-2.176-.285-2.176-1.148zm34.989-1.004v.695c1.625 0 1.816.164 1.816 1.336v5.282c-.504-.692-1.531-1.532-2.988-1.532-2.77 0-5.16 2.344-5.16 5.403 0 3.035 2.269 5.379 4.898 5.379 1.816 0 2.867-1.196 3.203-1.649v1.649l3.367-.243v-.691c-1.625 0-1.816-.168-1.816-1.34v-14.551zm1.769 13.527c0 .43 0 .5-.336 1.028-.574.836-1.555 1.527-2.75 1.527-.621 0-3.199-.238-3.199-4.875 0-1.719.285-2.676.812-3.465.477-.742 1.43-1.48 2.629-1.48 1.481 0 2.317 1.074 2.555 1.457.289.406.289.457.289.883zm8.32-11.925c0-.621-.504-1.172-1.171-1.172-.622 0-1.145.504-1.145 1.148 0 .715.57 1.172 1.145 1.172.742 0 1.171-.625 1.171-1.148m-3.296 4.445v.691c1.527 0 1.742.145 1.742 1.317v6.5c0 1.074-.262 1.074-1.817 1.074v.691c.668-.046 1.817-.046 2.508-.046.266 0 1.652 0 2.465.046v-.691c-1.555 0-1.648-.121-1.648-1.051v-8.797zm32.601 7.621c-.836 1.41-1.648 1.891-2.797 1.961-.265.023-.453.023-.453.453 0 .145.117.238.285.238.43 0 1.504-.046 1.934-.046.695 0 1.461.046 2.129.046.144 0 .429 0 .429-.453 0-.215-.191-.238-.332-.238-.55-.047-1.007-.238-1.007-.812 0-.336.144-.598.457-1.122l1.812-3.011h6.098c.023.215.023.406.047.621.074.621.355 3.105.355 3.558 0 .719-1.215.766-1.598.766-.265 0-.527 0-.527.43 0 .261.219.261.359.261.407 0 .883-.046 1.29-.046h1.363c1.457 0 2.508.046 2.535.046.164 0 .426 0 .426-.453 0-.238-.211-.238-.571-.238-1.316 0-1.339-.215-1.41-.934l-1.457-14.91c-.047-.476-.144-.527-.41-.527-.238 0-.379.051-.594.406zm2.867-3.68 4.801-8.031.813 8.031zm51.918-1.695c.219-.527.621-1.555 2.153-1.578v-.691c-.696.046-1.028.046-1.77.046-.504 0-.859 0-1.961-.046v.691c1.008.047 1.125.766 1.125 1.027 0 .215-.047.336-.168.621l-2.437 6.168-2.676-6.742c-.121-.332-.145-.332-.145-.453 0-.621.91-.621 1.34-.621v-.691c-.597.046-1.84.046-2.484.046-.789 0-.836 0-2.297-.046v.691c1.34 0 1.578.098 1.863.836l3.418 8.555c.121.336.168.457.457.457.164 0 .309-.051.477-.457zm10.574 1.649c0-1.29 0-2.247-1.05-3.18-.836-.762-1.91-1.098-2.965-1.098-1.957 0-3.465 1.289-3.465 2.844 0 .691.453 1.027 1.004 1.027.574 0 .98-.406.98-.98 0-.981-.859-.981-1.218-.981.55-1.004 1.699-1.433 2.652-1.433 1.102 0 2.508.91 2.508 3.058v.957c-4.801.071-6.617 2.078-6.617 3.918 0 1.891 2.199 2.489 3.656 2.489 1.578 0 2.652-.957 3.105-2.106.098 1.125.836 1.985 1.864 1.985.503 0 1.89-.336 1.89-2.247v-1.339h-.527v1.339c0 1.364-.574 1.555-.906 1.555-.911 0-.911-1.269-.911-1.625zm-1.554 3.011c0 2.34-1.742 3.129-2.77 3.129-1.172 0-2.152-.859-2.152-2.008 0-3.152 4.062-3.441 4.922-3.488zm8.14-13.215-3.32.262v.695c1.625 0 1.816.164 1.816 1.336v12.524c0 1.074-.261 1.074-1.816 1.074v.691c.668-.046 1.84-.046 2.555-.046.719 0 1.914 0 2.582.046v-.691c-1.528 0-1.817 0-1.817-1.074zm11.543 11.039c.528 0 .575 0 .575-.453 0-2.414-1.289-4.66-4.184-4.66-2.723 0-4.824 2.461-4.824 5.426 0 3.152 2.437 5.473 5.086 5.473 2.843 0 3.922-2.582 3.922-3.086 0-.145-.122-.239-.262-.239-.192 0-.242.121-.289.239-.621 2.007-2.223 2.558-3.227 2.558s-3.418-.668-3.418-4.804v-.454zm-6.597-.453c.191-3.754 2.297-4.183 2.965-4.183 2.558 0 2.699 3.371 2.722 4.183zm37.726-9.32c0-.551 0-.574-.476-.574-.575.648-1.77 1.527-4.231 1.527v.695c.551 0 1.746 0 3.059-.621v12.45c0 .863-.07 1.148-2.172 1.148h-.742v.691c.644-.046 2.961-.046 3.75-.046s3.086 0 3.726.046v-.691h-.738c-2.102 0-2.176-.285-2.176-1.148zm40.43 5.711h2.699v-.691h-2.746v-2.797c0-2.149 1.098-3.25 2.078-3.25.192 0 .551.047.836.191-.094.024-.695.238-.695.934 0 .547.383.929.933.929.575 0 .957-.382.957-.953 0-.886-.859-1.578-2.007-1.578-1.672 0-3.563 1.289-3.563 3.727v2.797h-1.863v.691h1.863v7.84c0 1.074-.262 1.074-1.812 1.074v.691c.668-.046 1.98-.046 2.699-.046.644 0 2.34 0 2.89.046v-.691h-.476c-1.746 0-1.793-.262-1.793-1.121zm12.211 3.227c0-1.29 0-2.247-1.051-3.18-.836-.762-1.91-1.098-2.961-1.098-1.961 0-3.465 1.289-3.465 2.844 0 .691.453 1.027 1.004 1.027.574 0 .981-.406.981-.98 0-.981-.864-.981-1.219-.981.547-1.004 1.695-1.433 2.648-1.433 1.102 0 2.512.91 2.512 3.058v.957c-4.805.071-6.617 2.078-6.617 3.918 0 1.891 2.195 2.489 3.652 2.489 1.578 0 2.657-.957 3.11-2.106.093 1.125.836 1.985 1.863 1.985.5 0 1.887-.336 1.887-2.247v-1.339h-.524v1.339c0 1.364-.574 1.555-.91 1.555-.91 0-.91-1.269-.91-1.625zm-1.551 3.011c0 2.34-1.742 3.129-2.773 3.129-1.168 0-2.149-.859-2.149-2.008 0-3.152 4.063-3.441 4.922-3.488zm8.188-11.351c0-.621-.504-1.172-1.172-1.172-.621 0-1.145.504-1.145 1.148 0 .715.571 1.172 1.145 1.172.742 0 1.172-.625 1.172-1.148m-3.297 4.445v.691c1.527 0 1.742.145 1.742 1.317v6.5c0 1.074-.262 1.074-1.816 1.074v.691c.671-.046 1.816-.046 2.511-.046.262 0 1.649 0 2.461.046v-.691c-1.555 0-1.648-.121-1.648-1.051v-8.797zm10.035 1.121c0-.644-.551-1.144-1.149-1.144-.691 0-1.168.546-1.168 1.144 0 .719.598 1.172 1.149 1.172.644 0 1.168-.5 1.168-1.172m0 7.984c0-.644-.551-1.148-1.149-1.148-.691 0-1.168.551-1.168 1.148 0 .715.598 1.168 1.149 1.168.644 0 1.168-.5 1.168-1.168M68.156-318.32c0-.621-.5-1.172-1.168-1.172a1.15 1.15 0 0 0-1.148 1.148c0 .715.574 1.172 1.148 1.172.739 0 1.168-.625 1.168-1.148m-3.297 4.445v.691c1.532 0 1.747.145 1.747 1.317v6.5c0 1.074-.262 1.074-1.817 1.074v.691c.668-.046 1.817-.046 2.508-.046.266 0 1.648 0 2.46.046v-.691c-1.55 0-1.648-.121-1.648-1.051v-8.797zm22.774 4.469c0-2.223 0-2.891-.547-3.657-.695-.933-1.817-1.078-2.629-1.078-1.984 0-2.988 1.438-3.371 2.368-.336-1.84-1.625-2.368-3.129-2.368-2.32 0-3.226 1.985-3.418 2.465h-.023v-2.465l-3.25.266v.691c1.625 0 1.816.168 1.816 1.34v6.477c0 1.074-.262 1.074-1.816 1.074v.691c.62-.046 1.91-.046 2.578-.046.695 0 1.984 0 2.605.046v-.691c-1.527 0-1.816 0-1.816-1.074v-4.446c0-2.507 1.648-3.847 3.133-3.847 1.48 0 1.816 1.219 1.816 2.676v5.617c0 1.074-.266 1.074-1.816 1.074v.691c.62-.046 1.91-.046 2.578-.046.695 0 1.984 0 2.605.046v-.691c-1.527 0-1.816 0-1.816-1.074v-4.446c0-2.507 1.648-3.847 3.133-3.847 1.48 0 1.816 1.219 1.816 2.676v5.617c0 1.074-.266 1.074-1.816 1.074v.691c.62-.046 1.91-.046 2.578-.046.695 0 1.984 0 2.605.046v-.691c-1.195 0-1.793 0-1.816-.715zm8.223 9.75c-1.532 0-1.817 0-1.817-1.078v-4.157c.43.598 1.41 1.532 2.938 1.532 2.75 0 5.164-2.321 5.164-5.403 0-3.035-2.247-5.379-4.852-5.379-2.102 0-3.227 1.508-3.297 1.602v-1.602l-3.324.266v.691c1.676 0 1.816.168 1.816 1.219v11.231c0 1.078-.261 1.078-1.816 1.078v.691c.621-.047 1.914-.047 2.582-.047.691 0 1.984 0 2.606.047zm-1.817-11.567c0-.453 0-.48.262-.859.718-1.078 1.886-1.531 2.797-1.531 1.793 0 3.226 2.175 3.226 4.851 0 2.844-1.625 4.922-3.465 4.922a2.82 2.82 0 0 1-1.914-.762c-.547-.55-.906-1.031-.906-1.699zm20.629 2.508c0-3.082-2.34-5.543-5.113-5.543-2.867 0-5.137 2.531-5.137 5.543 0 3.059 2.387 5.356 5.113 5.356 2.821 0 5.137-2.344 5.137-5.356m-5.113 4.828c-.883 0-1.961-.383-2.653-1.554-.644-1.075-.668-2.485-.668-3.489 0-.91 0-2.367.739-3.441a3.06 3.06 0 0 1 2.558-1.41c.934 0 1.938.429 2.578 1.363.743 1.098.743 2.605.743 3.488 0 .836 0 2.321-.622 3.442-.667 1.148-1.765 1.601-2.675 1.601m13.683-9.82c0-.434 0-.551-.242-.551-.187 0-.641.524-.808.742-.743-.597-1.485-.742-2.247-.742-2.894 0-3.753 1.578-3.753 2.891 0 .265 0 1.101.91 1.937.761.668 1.574.836 2.675 1.051 1.317.262 1.625.332 2.223.813.43.359.738.882.738 1.55 0 1.032-.593 2.176-2.699 2.176-1.574 0-2.722-.906-3.25-3.297-.094-.429-.094-.453-.117-.476-.051-.098-.145-.098-.215-.098-.265 0-.265.121-.265.551v3.25c0 .43 0 .551.242.551.117 0 .14-.024.547-.528.121-.168.121-.215.476-.597.91 1.125 2.199 1.125 2.606 1.125 2.511 0 3.754-1.387 3.754-3.274 0-1.293-.79-2.058-1.004-2.273-.86-.739-1.504-.883-3.082-1.172-.719-.141-2.461-.477-2.461-1.91 0-.739.5-1.84 2.652-1.84 2.605 0 2.746 2.223 2.797 2.965.019.191.187.191.262.191.261 0 .261-.121.261-.551zm5.375.5h3.371v-.691h-3.371v-4.399h-.523c-.024 2.246-.887 4.539-3.059 4.613v.477h2.032v6.644c0 2.653 1.765 3.204 3.035 3.204 1.504 0 2.293-1.485 2.293-3.204v-1.363h-.528v1.317c0 1.718-.691 2.722-1.625 2.722-1.625 0-1.625-2.222-1.625-2.629zm14.309 3.227c0-1.29 0-2.247-1.051-3.18-.836-.762-1.91-1.098-2.961-1.098-1.961 0-3.465 1.289-3.465 2.844 0 .691.453 1.027 1.004 1.027.574 0 .981-.406.981-.98 0-.981-.864-.981-1.219-.981.547-1.004 1.695-1.433 2.648-1.433 1.102 0 2.512.91 2.512 3.058v.957c-4.805.071-6.617 2.078-6.617 3.918 0 1.891 2.195 2.489 3.652 2.489 1.578 0 2.657-.957 3.11-2.106.093 1.125.836 1.985 1.863 1.985.5 0 1.887-.336 1.887-2.247v-1.339h-.524v1.339c0 1.364-.574 1.555-.91 1.555-.91 0-.91-1.269-.91-1.625zm-1.551 3.011c0 2.34-1.742 3.129-2.773 3.129-1.168 0-2.149-.859-2.149-2.008 0-3.152 4.063-3.441 4.922-3.488zm34.102-4.23h4.015c3.297 0 6.594-2.438 6.594-5.16 0-1.868-1.574-3.563-4.586-3.563h-7.387c-.453 0-.668 0-.668.453 0 .242.215.242.575.242 1.457 0 1.457.188 1.457.454 0 .046 0 .191-.094.546l-3.227 12.86c-.214.836-.261 1.074-1.937 1.074-.453 0-.692 0-.692.43 0 .261.215.261.36.261.453 0 .93-.046 1.383-.046h2.797c.453 0 .957.046 1.41.046.191 0 .457 0 .457-.453 0-.238-.215-.238-.575-.238-1.433 0-1.457-.168-1.457-.406 0-.121.024-.285.047-.406zm1.722-7.098c.215-.883.309-.93 1.243-.93h2.367c1.789 0 3.273.571 3.273 2.364 0 .621-.312 2.652-1.414 3.754-.406.429-1.551 1.336-3.726 1.336h-3.368zm41.828 8.317c0-1.29 0-2.247-1.05-3.18-.836-.762-1.91-1.098-2.965-1.098-1.957 0-3.465 1.289-3.465 2.844 0 .691.453 1.027 1.004 1.027.574 0 .98-.406.98-.98 0-.981-.859-.981-1.218-.981.55-1.004 1.699-1.433 2.652-1.433 1.102 0 2.508.91 2.508 3.058v.957c-4.801.071-6.617 2.078-6.617 3.918 0 1.891 2.199 2.489 3.656 2.489 1.578 0 2.652-.957 3.105-2.106.098 1.125.836 1.985 1.864 1.985.503 0 1.89-.336 1.89-2.247v-1.339h-.527v1.339c0 1.364-.574 1.555-.906 1.555-.911 0-.911-1.269-.911-1.625zm-1.554 3.011c0 2.34-1.742 3.129-2.77 3.129-1.172 0-2.152-.859-2.152-2.008 0-3.152 4.062-3.441 4.922-3.488zm34.105-4.23h4.016c3.297 0 6.594-2.438 6.594-5.16 0-1.868-1.579-3.563-4.59-3.563h-7.383c-.453 0-.668 0-.668.453 0 .242.215.242.574.242 1.457 0 1.457.188 1.457.454 0 .046 0 .191-.097.546l-3.223 12.86c-.219.836-.266 1.074-1.938 1.074-.453 0-.695 0-.695.43 0 .261.219.261.359.261.458 0 .934-.046 1.387-.046h2.797c.453 0 .953.046 1.41.046.192 0 .453 0 .453-.453 0-.238-.214-.238-.574-.238-1.433 0-1.457-.168-1.457-.406 0-.121.024-.285.047-.406zm1.719-7.098c.215-.883.312-.93 1.242-.93h2.367c1.793 0 3.274.571 3.274 2.364 0 .621-.309 2.652-1.41 3.754-.407.429-1.551 1.336-3.727 1.336h-3.371zm24.34 9.176h6.597c.333 0 .766 0 .766-.43 0-.453-.406-.453-.766-.453h-6.597v-6.598c0-.332 0-.761-.43-.761-.453 0-.453.406-.453.761v6.598h-6.594c-.336 0-.765 0-.765.43 0 .453.406.453.765.453h6.594v6.598c0 .332 0 .765.43.765.453 0 .453-.406.453-.765zm20.851-9.797c0-.551 0-.574-.48-.574-.574.648-1.77 1.527-4.231 1.527v.695c.551 0 1.747 0 3.059-.621v12.45c0 .863-.07 1.148-2.172 1.148h-.742v.691c.645-.046 2.965-.046 3.754-.046.785 0 3.082 0 3.726.046v-.691h-.742c-2.101 0-2.172-.285-2.172-1.148zm-255.992-91.25c0-2.316.953-4.492 2.793-4.492.192 0 .238 0 .336.023-.191.094-.574.239-.574.883 0 .695.55.957.934.957.476 0 .956-.312.956-.957 0-.715-.648-1.387-1.675-1.387-2.032 0-2.723 2.2-2.867 2.657h-.024v-2.657l-3.203.266v.691c1.625 0 1.816.168 1.816 1.34v6.477c0 1.074-.261 1.074-1.816 1.074v.691c.668-.046 1.984-.046 2.7-.046.648 0 2.343 0 2.894.046v-.691h-.48c-1.743 0-1.79-.262-1.79-1.121zm9.266-9.152c0-.621-.5-1.172-1.172-1.172-.621 0-1.145.504-1.145 1.148 0 .715.575 1.172 1.145 1.172.742 0 1.172-.625 1.172-1.148m-3.297 4.445v.691c1.527 0 1.742.145 1.742 1.317v6.5c0 1.074-.262 1.074-1.812 1.074v.691c.668-.046 1.812-.046 2.507-.046.262 0 1.649 0 2.461.046v-.691c-1.554 0-1.648-.121-1.648-1.051v-8.797zm11.492 14.219c-1.527 0-1.812 0-1.812-1.078v-4.157c.43.598 1.406 1.532 2.937 1.532 2.75 0 5.16-2.321 5.16-5.403 0-3.035-2.246-5.379-4.847-5.379-2.106 0-3.227 1.508-3.301 1.602v-1.602l-3.32.266v.691c1.671 0 1.816.168 1.816 1.219v11.231c0 1.078-.266 1.078-1.816 1.078v.691c.62-.047 1.91-.047 2.582-.047.691 0 1.98 0 2.601.047zm-1.812-11.567c0-.453 0-.48.261-.859a3.44 3.44 0 0 1 2.793-1.531c1.793 0 3.227 2.175 3.227 4.851 0 2.844-1.625 4.922-3.465 4.922a2.8 2.8 0 0 1-1.91-.762c-.55-.55-.906-1.031-.906-1.699zm18.812 2.078c.524 0 .574 0 .574-.453 0-2.414-1.293-4.66-4.183-4.66-2.723 0-4.828 2.461-4.828 5.426 0 3.152 2.437 5.473 5.09 5.473 2.843 0 3.921-2.582 3.921-3.086 0-.145-.12-.239-.265-.239-.192 0-.239.121-.285.239-.621 2.007-2.223 2.558-3.227 2.558s-3.418-.668-3.418-4.804v-.454zm-6.597-.453c.19-3.754 2.296-4.183 2.964-4.183 2.555 0 2.7 3.371 2.723 4.183zm11.859-3.609h3.37v-.691h-3.37v-4.399h-.528c-.023 2.246-.882 4.539-3.058 4.613v.477h2.031v6.644c0 2.653 1.77 3.204 3.035 3.204 1.508 0 2.297-1.485 2.297-3.204v-1.363h-.527v1.317c0 1.718-.692 2.722-1.625 2.722-1.625 0-1.625-2.222-1.625-2.629zm9.242-5.113c0-.621-.5-1.172-1.168-1.172-.625 0-1.148.504-1.148 1.148 0 .715.574 1.172 1.148 1.172.738 0 1.168-.625 1.168-1.148m-3.297 4.445v.691c1.528 0 1.746.145 1.746 1.317v6.5c0 1.074-.265 1.074-1.816 1.074v.691c.668-.046 1.816-.046 2.508-.046.261 0 1.648 0 2.46.046v-.691c-1.55 0-1.648-.121-1.648-1.051v-8.797zm36.238-.098c-.14 0-.382.028-.429.051-.047.024-.098.024-.43.024h-2.797v-2.704c0-2.437 2.078-3.343 3.488-3.343.239 0 1.387.023 2.106.836-1.004 0-1.078.742-1.078 1.004 0 .691.574 1.003.98 1.003.43 0 1.004-.289 1.004-1.027 0-1.219-1.121-2.293-2.961-2.293-2.176 0-4.996 1.195-4.996 3.774v2.75h-1.863v.691h1.863v7.84c0 1.074-.262 1.074-1.816 1.074v.691c.668-.046 1.84-.046 2.558-.046.715 0 1.911 0 2.578.046v-.691c-1.527 0-1.816 0-1.816-1.074v-7.84h3.754c1.098 0 1.242.312 1.242 1.289v6.551c0 1.074-.262 1.074-1.816 1.074v.691c.668-.046 1.84-.046 2.558-.046.715 0 1.911 0 2.578.046v-.691c-1.527 0-1.816 0-1.816-1.074v-8.797zm16.036 4.567c0-2.223 0-2.891-.551-3.657-.692-.933-1.813-1.078-2.625-1.078-2.32 0-3.227 1.985-3.418 2.465h-.027v-2.465l-3.25.266v.691c1.625 0 1.82.168 1.82 1.34v6.477c0 1.074-.266 1.074-1.82 1.074v.691c.625-.046 1.914-.046 2.582-.046.695 0 1.984 0 2.605.046v-.691c-1.531 0-1.816 0-1.816-1.074v-4.446c0-2.507 1.648-3.847 3.129-3.847 1.484 0 1.82 1.219 1.82 2.676v5.617c0 1.074-.266 1.074-1.82 1.074v.691c.625-.046 1.914-.046 2.582-.046.695 0 1.984 0 2.605.046v-.691c-1.195 0-1.793 0-1.816-.715zm13.336.691c0-3.082-2.344-5.543-5.114-5.543-2.867 0-5.14 2.531-5.14 5.543 0 3.059 2.39 5.356 5.117 5.356 2.816 0 5.137-2.344 5.137-5.356m-5.114 4.828c-.886 0-1.961-.383-2.652-1.554-.649-1.075-.672-2.485-.672-3.489 0-.91 0-2.367.742-3.441a3.06 3.06 0 0 1 2.559-1.41c.93 0 1.933.429 2.578 1.363.742 1.098.742 2.605.742 3.488 0 .836 0 2.321-.621 3.442-.668 1.148-1.769 1.601-2.676 1.601m22.867-6.093c0-1.29 0-2.247-1.05-3.18-.836-.762-1.91-1.098-2.965-1.098-1.957 0-3.465 1.289-3.465 2.844 0 .691.453 1.027 1.004 1.027.574 0 .98-.406.98-.98 0-.981-.859-.981-1.218-.981.55-1.004 1.699-1.433 2.652-1.433 1.102 0 2.508.91 2.508 3.058v.957c-4.801.071-6.617 2.078-6.617 3.918 0 1.891 2.199 2.489 3.656 2.489 1.578 0 2.652-.957 3.105-2.106.098 1.125.836 1.985 1.864 1.985.503 0 1.89-.336 1.89-2.247v-1.339h-.527v1.339c0 1.364-.574 1.555-.906 1.555-.911 0-.911-1.269-.911-1.625zm-1.554 3.011c0 2.34-1.742 3.129-2.77 3.129-1.172 0-2.152-.859-2.152-2.008 0-3.152 4.062-3.441 4.922-3.488zm20.48-5.472c-.285 0-1.168 0-1.168.976 0 .574.407.981.977.981.551 0 1.004-.332 1.004-1.024 0-1.601-1.672-2.75-3.606-2.75-2.797 0-5.019 2.485-5.019 5.496 0 3.059 2.293 5.403 4.996 5.403 3.152 0 3.871-2.868 3.871-3.086 0-.215-.168-.215-.242-.215-.215 0-.239.07-.309.359-.527 1.699-1.816 2.414-3.109 2.414-1.457 0-3.391-1.265-3.391-4.898 0-3.969 2.031-4.949 3.227-4.949.906 0 2.222.363 2.769 1.293m11.684 3.035c0-2.223 0-2.891-.547-3.657-.695-.933-1.816-1.078-2.629-1.078-2.059 0-3.012 1.555-3.348 2.297h-.023v-8.34l-3.32.262v.695c1.625 0 1.816.164 1.816 1.336v12.524c0 1.074-.262 1.074-1.816 1.074v.691c.621-.046 1.91-.046 2.578-.046.695 0 1.984 0 2.605.046v-.691c-1.527 0-1.816 0-1.816-1.074v-4.446c0-2.507 1.648-3.847 3.133-3.847 1.48 0 1.816 1.219 1.816 2.676v5.617c0 1.074-.266 1.074-1.816 1.074v.691c.621-.046 1.91-.046 2.578-.046.695 0 1.984 0 2.605.046v-.691c-1.195 0-1.793 0-1.816-.715zm11.621.261c.523 0 .574 0 .574-.453 0-2.414-1.293-4.66-4.183-4.66-2.723 0-4.829 2.461-4.829 5.426 0 3.152 2.438 5.473 5.09 5.473 2.844 0 3.922-2.582 3.922-3.086 0-.145-.121-.239-.265-.239-.192 0-.239.121-.286.239-.621 2.007-2.222 2.558-3.226 2.558s-3.418-.668-3.418-4.804v-.454zm-6.598-.453c.192-3.754 2.297-4.183 2.965-4.183 2.555 0 2.699 3.371 2.723 4.183zm51.953-10.586-3.32.262v.695c1.625 0 1.816.164 1.816 1.336v12.524c0 1.074-.261 1.074-1.816 1.074v.691c.668-.046 1.84-.046 2.555-.046.719 0 1.914 0 2.582.046v-.691c-1.528 0-1.817 0-1.817-1.074zm6.598 1.84c.023.168.047.285.047.598 0 .332 0 2.269-1.649 3.918-.214.215-.214.262-.214.336 0 .121.117.238.238.238.215 0 2.101-1.769 2.101-4.492 0-1.481-.55-2.438-1.503-2.438-.696 0-1.149.528-1.149 1.145 0 .648.453 1.172 1.172 1.172.645 0 .957-.453.957-.477m11.445 9.199c.528 0 .575 0 .575-.453 0-2.414-1.289-4.66-4.184-4.66-2.723 0-4.824 2.461-4.824 5.426 0 3.152 2.437 5.473 5.086 5.473 2.843 0 3.922-2.582 3.922-3.086 0-.145-.122-.239-.262-.239-.192 0-.242.121-.289.239-.621 2.007-2.223 2.558-3.227 2.558s-3.418-.668-3.418-4.804v-.454zm-6.597-.453c.191-3.754 2.297-4.183 2.965-4.183 2.558 0 2.699 3.371 2.722 4.183zm11.957-10.586-3.324.262v.695c1.625 0 1.816.164 1.816 1.336v12.524c0 1.074-.262 1.074-1.816 1.074v.691c.671-.046 1.839-.046 2.558-.046s1.91 0 2.582.046v-.691c-1.531 0-1.816 0-1.816-1.074zm11.543 11.039c.523 0 .574 0 .574-.453 0-2.414-1.293-4.66-4.184-4.66-2.726 0-4.828 2.461-4.828 5.426 0 3.152 2.438 5.473 5.09 5.473 2.844 0 3.922-2.582 3.922-3.086 0-.145-.121-.239-.266-.239-.191 0-.242.121-.285.239-.625 2.007-2.223 2.558-3.226 2.558s-3.418-.668-3.418-4.804v-.454zm-6.598-.453c.191-3.754 2.297-4.183 2.965-4.183 2.555 0 2.699 3.371 2.723 4.183zm24.977.192c0-2.223 0-2.891-.551-3.657-.692-.933-1.813-1.078-2.625-1.078-1.985 0-2.988 1.438-3.371 2.368-.336-1.84-1.625-2.368-3.129-2.368-2.32 0-3.227 1.985-3.418 2.465h-.027v-2.465l-3.25.266v.691c1.625 0 1.82.168 1.82 1.34v6.477c0 1.074-.266 1.074-1.82 1.074v.691c.625-.046 1.914-.046 2.582-.046.695 0 1.984 0 2.605.046v-.691c-1.531 0-1.816 0-1.816-1.074v-4.446c0-2.507 1.648-3.847 3.129-3.847 1.484 0 1.82 1.219 1.82 2.676v5.617c0 1.074-.266 1.074-1.82 1.074v.691c.625-.046 1.914-.046 2.582-.046.695 0 1.984 0 2.605.046v-.691c-1.531 0-1.816 0-1.816-1.074v-4.446c0-2.507 1.648-3.847 3.129-3.847 1.484 0 1.82 1.219 1.82 2.676v5.617c0 1.074-.266 1.074-1.82 1.074v.691c.625-.046 1.914-.046 2.582-.046.695 0 1.984 0 2.605.046v-.691c-1.195 0-1.793 0-1.816-.715zm11.519.261c.524 0 .574 0 .574-.453 0-2.414-1.293-4.66-4.183-4.66-2.723 0-4.828 2.461-4.828 5.426 0 3.152 2.437 5.473 5.089 5.473 2.844 0 3.922-2.582 3.922-3.086 0-.145-.121-.239-.265-.239-.192 0-.239.121-.285.239-.622 2.007-2.223 2.558-3.227 2.558s-3.418-.668-3.418-4.804v-.454zm-6.598-.453c.192-3.754 2.297-4.183 2.965-4.183 2.559 0 2.7 3.371 2.723 4.183zm18.481.192c0-2.223 0-2.891-.551-3.657-.695-.933-1.816-1.078-2.629-1.078-2.316 0-3.226 1.985-3.418 2.465h-.023v-2.465l-3.25.266v.691c1.625 0 1.816.168 1.816 1.34v6.477c0 1.074-.261 1.074-1.816 1.074v.691c.621-.046 1.914-.046 2.582-.046.691 0 1.984 0 2.601.046v-.691c-1.527 0-1.812 0-1.812-1.074v-4.446c0-2.507 1.648-3.847 3.129-3.847 1.48 0 1.816 1.219 1.816 2.676v5.617c0 1.074-.265 1.074-1.816 1.074v.691c.621-.046 1.914-.046 2.582-.046.691 0 1.98 0 2.601.046v-.691c-1.195 0-1.789 0-1.812-.715zm5.777-3.801h3.371v-.691h-3.371v-4.399h-.523c-.024 2.246-.887 4.539-3.059 4.613v.477h2.032v6.644c0 2.653 1.765 3.204 3.035 3.204 1.504 0 2.293-1.485 2.293-3.204v-1.363h-.528v1.317c0 1.718-.691 2.722-1.625 2.722-1.625 0-1.625-2.222-1.625-2.629zm16.055 4.492c0-3.082-2.34-5.543-5.113-5.543-2.867 0-5.137 2.531-5.137 5.543 0 3.059 2.387 5.356 5.113 5.356 2.821 0 5.137-2.344 5.137-5.356m-5.113 4.828c-.883 0-1.961-.383-2.653-1.554-.644-1.075-.668-2.485-.668-3.489 0-.91 0-2.367.739-3.441a3.06 3.06 0 0 1 2.558-1.41c.934 0 1.938.429 2.578 1.363.743 1.098.743 2.605.743 3.488 0 .836 0 2.321-.622 3.442-.667 1.148-1.765 1.601-2.675 1.601m17.804-14.433c0-.621-.504-1.172-1.171-1.172a1.15 1.15 0 0 0-1.149 1.148c0 .715.574 1.172 1.149 1.172.742 0 1.171-.625 1.171-1.148m-3.296 4.445v.691c1.527 0 1.742.145 1.742 1.317v6.5c0 1.074-.262 1.074-1.817 1.074v.691c.668-.046 1.817-.046 2.508-.046.266 0 1.652 0 2.465.046v-.691c-1.555 0-1.648-.121-1.648-1.051v-8.797zm16.273 4.469c0-2.223 0-2.891-.551-3.657-.695-.933-1.816-1.078-2.629-1.078-2.316 0-3.226 1.985-3.418 2.465h-.023v-2.465l-3.25.266v.691c1.625 0 1.816.168 1.816 1.34v6.477c0 1.074-.261 1.074-1.816 1.074v.691c.621-.046 1.914-.046 2.582-.046.691 0 1.984 0 2.601.046v-.691c-1.527 0-1.812 0-1.812-1.074v-4.446c0-2.507 1.648-3.847 3.129-3.847 1.48 0 1.816 1.219 1.816 2.676v5.617c0 1.074-.265 1.074-1.816 1.074v.691c.621-.046 1.914-.046 2.582-.046.691 0 1.98 0 2.601.046v-.691c-1.195 0-1.789 0-1.812-.715zm16.019 9.75c-1.531 0-1.816 0-1.816-1.078v-4.157c.43.598 1.41 1.532 2.938 1.532 2.75 0 5.164-2.321 5.164-5.403 0-3.035-2.246-5.379-4.852-5.379-2.101 0-3.226 1.508-3.297 1.602v-1.602l-3.324.266v.691c1.676 0 1.816.168 1.816 1.219v11.231c0 1.078-.261 1.078-1.816 1.078v.691c.621-.047 1.914-.047 2.582-.047.691 0 1.984 0 2.605.047zm-1.816-11.567c0-.453 0-.48.262-.859.719-1.078 1.887-1.531 2.797-1.531 1.793 0 3.226 2.175 3.226 4.851 0 2.844-1.625 4.922-3.465 4.922a2.83 2.83 0 0 1-1.914-.762c-.547-.55-.906-1.031-.906-1.699zm20.629 2.508c0-3.082-2.34-5.543-5.113-5.543-2.867 0-5.137 2.531-5.137 5.543 0 3.059 2.387 5.356 5.113 5.356 2.821 0 5.137-2.344 5.137-5.356m-5.113 4.828c-.883 0-1.961-.383-2.653-1.554-.644-1.075-.668-2.485-.668-3.489 0-.91 0-2.367.739-3.441a3.06 3.06 0 0 1 2.558-1.41c.934 0 1.938.429 2.578 1.363.743 1.098.743 2.605.743 3.488 0 .836 0 2.321-.622 3.442-.667 1.148-1.765 1.601-2.675 1.601m13.582-9.82c0-.434 0-.551-.239-.551-.191 0-.644.524-.812.742-.742-.597-1.481-.742-2.246-.742-2.891 0-3.75 1.578-3.75 2.891 0 .265 0 1.101.906 1.937.766.668 1.578.836 2.676 1.051 1.316.262 1.625.332 2.223.813.429.359.742.882.742 1.55 0 1.032-.598 2.176-2.699 2.176-1.579 0-2.723-.906-3.25-3.297-.098-.429-.098-.453-.122-.476-.046-.098-.144-.098-.214-.098-.262 0-.262.121-.262.551v3.25c0 .43 0 .551.238.551.117 0 .141-.024.551-.528.117-.168.117-.215.476-.597.907 1.125 2.2 1.125 2.606 1.125 2.508 0 3.75-1.387 3.75-3.274 0-1.293-.789-2.058-1.004-2.273-.859-.739-1.504-.883-3.082-1.172-.719-.141-2.461-.477-2.461-1.91 0-.739.504-1.84 2.652-1.84 2.606 0 2.747 2.223 2.797 2.965.024.191.192.191.262.191.262 0 .262-.121.262-.551zm5.621-4.613c0-.621-.5-1.172-1.168-1.172-.625 0-1.149.504-1.149 1.148 0 .715.575 1.172 1.149 1.172.738 0 1.168-.625 1.168-1.148m-3.297 4.445v.691c1.527 0 1.742.145 1.742 1.317v6.5c0 1.074-.262 1.074-1.812 1.074v.691c.668-.046 1.812-.046 2.507-.046.262 0 1.649 0 2.461.046v-.691c-1.554 0-1.648-.121-1.648-1.051v-8.797zm14.742.645c.219-.262.219-.313.219-.407 0-.261-.168-.261-.574-.261h-7.504l-.266 3.796h.527c.141-2.437.598-3.32 3.204-3.32h2.769l-6.832 9.391c0 .429.047.429.574.429h7.789l.383-4.394h-.527c-.215 2.723-.621 3.871-3.465 3.871h-2.891zm5.453-5.09c0-.621-.5-1.172-1.168-1.172a1.15 1.15 0 0 0-1.148 1.148c0 .715.574 1.172 1.148 1.172.739 0 1.168-.625 1.168-1.148m-3.297 4.445v.691c1.532 0 1.746.145 1.746 1.317v6.5c0 1.074-.261 1.074-1.816 1.074v.691c.668-.046 1.816-.046 2.508-.046.266 0 1.648 0 2.461.046v-.691c-1.551 0-1.649-.121-1.649-1.051v-8.797zm16.61 5.16c0-3.082-2.34-5.543-5.114-5.543-2.867 0-5.136 2.531-5.136 5.543 0 3.059 2.386 5.356 5.113 5.356 2.816 0 5.137-2.344 5.137-5.356m-5.114 4.828c-.886 0-1.96-.383-2.652-1.554-.648-1.075-.672-2.485-.672-3.489 0-.91 0-2.367.742-3.441a3.06 3.06 0 0 1 2.559-1.41c.93 0 1.934.429 2.578 1.363.742 1.098.742 2.605.742 3.488 0 .836 0 2.321-.621 3.442-.668 1.148-1.769 1.601-2.676 1.601m16.481-5.519c0-2.223 0-2.891-.551-3.657-.695-.933-1.816-1.078-2.629-1.078-2.316 0-3.226 1.985-3.418 2.465h-.023v-2.465l-3.25.266v.691c1.625 0 1.816.168 1.816 1.34v6.477c0 1.074-.261 1.074-1.816 1.074v.691c.621-.046 1.914-.046 2.582-.046.691 0 1.984 0 2.601.046v-.691c-1.527 0-1.812 0-1.812-1.074v-4.446c0-2.507 1.648-3.847 3.129-3.847 1.48 0 1.816 1.219 1.816 2.676v5.617c0 1.074-.265 1.074-1.816 1.074v.691c.621-.046 1.914-.046 2.582-.046.691 0 1.98 0 2.601.046v-.691c-1.195 0-1.789 0-1.812-.715zm11.516.261c.527 0 .574 0 .574-.453 0-2.414-1.289-4.66-4.184-4.66-2.722 0-4.824 2.461-4.824 5.426 0 3.152 2.437 5.473 5.09 5.473 2.844 0 3.918-2.582 3.918-3.086 0-.145-.121-.239-.262-.239-.191 0-.242.121-.285.239-.625 2.007-2.223 2.558-3.231 2.558-1 0-3.414-.668-3.414-4.804v-.454zm-6.594-.453c.191-3.754 2.293-4.183 2.961-4.183 2.558 0 2.703 3.371 2.726 4.183zm37.914-1.601h4.016c3.296 0 6.593-2.438 6.593-5.16 0-1.868-1.574-3.563-4.586-3.563h-7.382c-.454 0-.672 0-.672.453 0 .242.218.242.574.242 1.457 0 1.457.188 1.457.454 0 .046 0 .191-.094.546l-3.226 12.86c-.215.836-.262 1.074-1.934 1.074-.453 0-.695 0-.695.43 0 .261.215.261.359.261.453 0 .934-.046 1.387-.046h2.797c.453 0 .953.046 1.406.046.191 0 .457 0 .457-.453 0-.238-.215-.238-.574-.238-1.434 0-1.457-.168-1.457-.406 0-.121.023-.285.047-.406zm1.723-7.098c.214-.883.308-.93 1.242-.93h2.367c1.793 0 3.273.571 3.273 2.364 0 .621-.312 2.652-1.41 3.754-.406.429-1.554 1.336-3.726 1.336h-3.371zm39.675-1.625v.695c1.625 0 1.817.164 1.817 1.336v5.282c-.504-.692-1.532-1.532-2.989-1.532-2.769 0-5.164 2.344-5.164 5.403 0 3.035 2.274 5.379 4.903 5.379 1.816 0 2.867-1.196 3.203-1.649v1.649l3.367-.243v-.691c-1.625 0-1.816-.168-1.816-1.34v-14.551zm1.77 13.527c0 .43 0 .5-.336 1.028-.574.836-1.555 1.527-2.75 1.527-.621 0-3.199-.238-3.199-4.875 0-1.719.285-2.676.812-3.465.477-.742 1.43-1.48 2.625-1.48 1.485 0 2.321 1.074 2.559 1.457.289.406.289.457.289.883zm8.219-11.925c0-.621-.504-1.172-1.172-1.172-.621 0-1.145.504-1.145 1.148 0 .715.571 1.172 1.145 1.172.742 0 1.172-.625 1.172-1.148m-3.297 4.445v.691c1.527 0 1.742.145 1.742 1.317v6.5c0 1.074-.262 1.074-1.816 1.074v.691c.671-.046 1.816-.046 2.511-.046.262 0 1.649 0 2.461.046v-.691c-1.555 0-1.648-.121-1.648-1.051v-8.797zm32.703 7.621c-.836 1.41-1.652 1.891-2.797 1.961-.266.023-.453.023-.453.453 0 .145.117.238.285.238.43 0 1.504-.046 1.934-.046.695 0 1.457.046 2.129.046.14 0 .429 0 .429-.453 0-.215-.191-.238-.336-.238-.547-.047-1.004-.238-1.004-.812 0-.336.145-.598.457-1.122l1.813-3.011h6.094c.027.215.027.406.05.621.071.621.356 3.105.356 3.558 0 .719-1.219.766-1.602.766-.261 0-.523 0-.523.43 0 .261.215.261.359.261.407 0 .883-.046 1.289-.046h1.364c1.457 0 2.507.046 2.531.046.168 0 .43 0 .43-.453 0-.238-.215-.238-.575-.238-1.312 0-1.336-.215-1.406-.934l-1.461-14.91c-.047-.476-.14-.527-.406-.527-.238 0-.379.051-.594.406zm2.863-3.68 4.805-8.031.812 8.031zm51.922-1.695c.215-.527.621-1.555 2.148-1.578v-.691c-.691.046-1.027.046-1.765.046-.504 0-.86 0-1.961-.046v.691c1.004.047 1.125.766 1.125 1.027 0 .215-.051.336-.168.621l-2.438 6.168-2.675-6.742c-.121-.332-.145-.332-.145-.453 0-.621.91-.621 1.34-.621v-.691c-.598.046-1.844.046-2.484.046-.789 0-.84 0-2.297-.046v.691c1.34 0 1.578.098 1.863.836l3.418 8.555c.121.336.168.457.457.457.164 0 .309-.051.477-.457zm10.473 1.649c0-1.29 0-2.247-1.051-3.18-.836-.762-1.91-1.098-2.961-1.098-1.961 0-3.469 1.289-3.469 2.844 0 .691.457 1.027 1.004 1.027.574 0 .981-.406.981-.98 0-.981-.86-.981-1.219-.981.551-1.004 1.699-1.433 2.652-1.433 1.102 0 2.512.91 2.512 3.058v.957c-4.805.071-6.621 2.078-6.621 3.918 0 1.891 2.199 2.489 3.656 2.489 1.578 0 2.652-.957 3.106-2.106.097 1.125.835 1.985 1.867 1.985.5 0 1.886-.336 1.886-2.247v-1.339h-.523v1.339c0 1.364-.574 1.555-.91 1.555-.91 0-.91-1.269-.91-1.625zm-1.551 3.011c0 2.34-1.746 3.129-2.774 3.129-1.171 0-2.152-.859-2.152-2.008 0-3.152 4.067-3.441 4.926-3.488zm8.238-13.215-3.32.262v.695c1.625 0 1.816.164 1.816 1.336v12.524c0 1.074-.265 1.074-1.816 1.074v.691c.668-.046 1.84-.046 2.555-.046.718 0 1.914 0 2.582.046v-.691c-1.532 0-1.817 0-1.817-1.074zm11.543 11.039c.524 0 .574 0 .574-.453 0-2.414-1.293-4.66-4.183-4.66-2.723 0-4.828 2.461-4.828 5.426 0 3.152 2.437 5.473 5.089 5.473 2.844 0 3.922-2.582 3.922-3.086 0-.145-.121-.239-.265-.239-.192 0-.239.121-.285.239-.622 2.007-2.223 2.558-3.227 2.558s-3.418-.668-3.418-4.804v-.454zm-6.598-.453c.192-3.754 2.297-4.183 2.965-4.183 2.559 0 2.7 3.371 2.723 4.183zm41.45-1.648c0-1.984-.117-3.922-.977-5.738-.98-1.981-2.703-2.508-3.875-2.508-1.383 0-3.082.695-3.965 2.676-.668 1.507-.91 2.988-.91 5.57 0 2.316.168 4.062 1.031 5.758.93 1.816 2.579 2.39 3.821 2.39 2.078 0 3.273-1.242 3.968-2.629.86-1.793.907-4.132.907-5.519m-4.875 7.668c-.762 0-2.317-.43-2.77-3.031-.265-1.438-.265-3.25-.265-4.926 0-1.957 0-3.727.382-5.137.407-1.601 1.625-2.344 2.653-2.344.91 0 2.297.551 2.75 2.606.308 1.363.308 3.25.308 4.875 0 1.601 0 3.418-.261 4.875-.454 2.629-1.961 3.082-2.797 3.082m41.48-9.629h2.699v-.691h-2.746v-2.797c0-2.149 1.098-3.25 2.078-3.25.192 0 .551.047.836.191-.093.024-.691.238-.691.934 0 .547.383.929.93.929.574 0 .957-.382.957-.953 0-.886-.86-1.578-2.008-1.578-1.672 0-3.559 1.289-3.559 3.727v2.797h-1.863v.691h1.863v7.84c0 1.074-.265 1.074-1.816 1.074v.691c.668-.046 1.98-.046 2.699-.046.645 0 2.344 0 2.891.046v-.691h-.477c-1.746 0-1.793-.262-1.793-1.121zm12.313 3.227c0-1.29 0-2.247-1.051-3.18-.836-.762-1.91-1.098-2.961-1.098-1.961 0-3.469 1.289-3.469 2.844 0 .691.457 1.027 1.004 1.027.574 0 .981-.406.981-.98 0-.981-.86-.981-1.219-.981.551-1.004 1.699-1.433 2.652-1.433 1.102 0 2.512.91 2.512 3.058v.957c-4.805.071-6.621 2.078-6.621 3.918 0 1.891 2.199 2.489 3.656 2.489 1.578 0 2.652-.957 3.106-2.106.097 1.125.835 1.985 1.867 1.985.5 0 1.886-.336 1.886-2.247v-1.339h-.523v1.339c0 1.364-.574 1.555-.91 1.555-.91 0-.91-1.269-.91-1.625zm-1.551 3.011c0 2.34-1.746 3.129-2.774 3.129-1.171 0-2.152-.859-2.152-2.008 0-3.152 4.067-3.441 4.926-3.488zm8.187-11.351c0-.621-.504-1.172-1.171-1.172-.622 0-1.145.504-1.145 1.148 0 .715.57 1.172 1.145 1.172.742 0 1.171-.625 1.171-1.148m-3.296 4.445v.691c1.527 0 1.742.145 1.742 1.317v6.5c0 1.074-.262 1.074-1.817 1.074v.691c.668-.046 1.817-.046 2.508-.046.266 0 1.652 0 2.465.046v-.691c-1.555 0-1.648-.121-1.648-1.051v-8.797zm10.035 1.121c0-.644-.551-1.144-1.149-1.144-.691 0-1.168.546-1.168 1.144 0 .719.598 1.172 1.145 1.172.644 0 1.172-.5 1.172-1.172m0 7.984c0-.644-.551-1.148-1.149-1.148-.691 0-1.168.551-1.168 1.148a1.158 1.158 0 1 0 2.317 0M20.836-531.309c0-.429 0-.55-.238-.55-.192 0-.645.527-.813.742-.738-.598-1.48-.742-2.246-.742-2.89 0-3.75 1.578-3.75 2.89 0 .266 0 1.102.906 1.938.766.672 1.578.836 2.68 1.051 1.313.261 1.625.335 2.219.812.43.359.742.887.742 1.555 0 1.027-.598 2.175-2.7 2.175-1.577 0-2.722-.91-3.25-3.296-.097-.434-.097-.457-.12-.481-.047-.098-.141-.098-.215-.098-.262 0-.262.122-.262.551v3.25c0 .43 0 .551.238.551.121 0 .145-.023.551-.527.117-.168.117-.215.477-.598.906 1.125 2.199 1.125 2.605 1.125 2.508 0 3.75-1.387 3.75-3.273 0-1.289-.785-2.059-1.004-2.27-.86-.742-1.504-.887-3.082-1.172-.715-.144-2.46-.48-2.46-1.914 0-.738.503-1.84 2.652-1.84 2.605 0 2.75 2.227 2.797 2.965.023.192.19.192.261.192.262 0 .262-.118.262-.551zm10.516 4.567c.527 0 .574 0 .574-.457 0-2.41-1.29-4.66-4.184-4.66-2.722 0-4.824 2.461-4.824 5.425 0 3.153 2.438 5.473 5.09 5.473 2.844 0 3.918-2.582 3.918-3.082 0-.145-.121-.238-.262-.238-.191 0-.242.117-.289.238-.621 2.008-2.219 2.555-3.227 2.555-1 0-3.414-.668-3.414-4.805v-.449zm-6.594-.457c.191-3.75 2.293-4.18 2.96-4.18 2.56 0 2.704 3.367 2.727 4.18zm46.414-1.598h4.016c3.296 0 6.593-2.437 6.593-5.164 0-1.863-1.574-3.562-4.586-3.562h-7.382c-.454 0-.672 0-.672.457 0 .238.218.238.574.238 1.457 0 1.457.191 1.457.453 0 .047 0 .191-.094.551l-3.226 12.855c-.215.836-.262 1.074-1.938 1.074-.453 0-.691 0-.691.43 0 .266.215.266.359.266.453 0 .934-.047 1.387-.047h2.797c.453 0 .953.047 1.406.047.191 0 .457 0 .457-.457 0-.239-.215-.239-.574-.239-1.434 0-1.457-.168-1.457-.406 0-.117.023-.285.046-.406zm1.722-7.101c.215-.883.31-.93 1.243-.93h2.367c1.793 0 3.273.574 3.273 2.363 0 .625-.312 2.656-1.41 3.754-.406.43-1.555 1.34-3.726 1.34h-3.372zm38.383 2.488.379-.36-2.843-3.679c-.118-.145-.333-.406-.668-.406-.407 0-.813.359-.813.789 0 .238.098.453.336.644zm3.375 6.668c.528 0 .575 0 .575-.457 0-2.41-1.289-4.66-4.184-4.66-2.723 0-4.824 2.461-4.824 5.425 0 3.153 2.437 5.473 5.086 5.473 2.843 0 3.922-2.582 3.922-3.082 0-.145-.122-.238-.262-.238-.192 0-.242.117-.289.238-.621 2.008-2.223 2.555-3.227 2.555s-3.418-.668-3.418-4.805v-.449zm-6.597-.457c.191-3.75 2.297-4.18 2.965-4.18 2.558 0 2.699 3.367 2.722 4.18zm21.5 9.941c-1.532 0-1.817 0-1.817-1.074v-4.16c.43.597 1.41 1.531 2.942 1.531 2.746 0 5.16-2.32 5.16-5.398 0-3.039-2.246-5.379-4.852-5.379-2.101 0-3.226 1.504-3.297 1.601v-1.601l-3.324.261v.696c1.676 0 1.821.164 1.821 1.218v11.231c0 1.074-.266 1.074-1.821 1.074v.695c.625-.05 1.914-.05 2.582-.05.692 0 1.985 0 2.606.05zm-1.817-11.566c0-.453 0-.477.266-.86.715-1.074 1.887-1.531 2.793-1.531 1.793 0 3.226 2.176 3.226 4.856 0 2.839-1.625 4.921-3.464 4.921a2.82 2.82 0 0 1-1.911-.765c-.55-.551-.91-1.027-.91-1.695zm13.121-7.098c0-.621-.504-1.168-1.171-1.168-.622 0-1.149.5-1.149 1.145 0 .718.574 1.172 1.149 1.172.742 0 1.171-.622 1.171-1.149m-3.296 4.445v.696c1.527 0 1.742.14 1.742 1.312v6.5c0 1.074-.262 1.074-1.817 1.074v.696c.668-.047 1.817-.047 2.508-.047.266 0 1.652 0 2.465.047v-.696c-1.555 0-1.648-.117-1.648-1.05v-8.793zm12.714-1.933.379-.36-2.843-3.679c-.118-.145-.333-.406-.668-.406-.407 0-.813.359-.813.789 0 .238.098.453.336.644zm.188 1.933v.696c1.625 0 1.816.164 1.816 1.336v4.277c0 2.031-1.078 3.73-2.867 3.73-1.961 0-2.078-1.125-2.078-2.39v-7.91l-3.371.261v.696c1.816 0 1.816.07 1.816 2.195V-525c0 1.48 0 2.344.715 3.133.574.621 1.555.906 2.774.906.406 0 1.171 0 1.984-.695.691-.547 1.074-1.457 1.074-1.457v2.152l3.32-.238v-.696c-1.625 0-1.812-.168-1.812-1.335v-8.508zm19.39 14.219c-1.531 0-1.816 0-1.816-1.074v-4.16c.43.597 1.41 1.531 2.938 1.531 2.75 0 5.164-2.32 5.164-5.398 0-3.039-2.246-5.379-4.852-5.379-2.101 0-3.226 1.504-3.297 1.601v-1.601l-3.324.261v.696c1.676 0 1.816.164 1.816 1.218v11.231c0 1.074-.261 1.074-1.816 1.074v.695c.621-.05 1.914-.05 2.582-.05.691 0 1.984 0 2.605.05zm-1.816-11.566c0-.453 0-.477.262-.86.719-1.074 1.887-1.531 2.797-1.531 1.793 0 3.226 2.176 3.226 4.856 0 2.839-1.625 4.921-3.465 4.921a2.83 2.83 0 0 1-1.914-.765c-.547-.551-.906-1.027-.906-1.695zm13.117-7.098c0-.621-.5-1.168-1.168-1.168-.621 0-1.148.5-1.148 1.145 0 .718.574 1.172 1.148 1.172.739 0 1.168-.622 1.168-1.149m-3.297 4.445v.696c1.532 0 1.746.14 1.746 1.312v6.5c0 1.074-.261 1.074-1.816 1.074v.696c.668-.047 1.816-.047 2.508-.047.266 0 1.648 0 2.461.047v-.696c-1.551 0-1.649-.117-1.649-1.05v-8.793zm14.289 1.434c-.285 0-1.168 0-1.168.98 0 .575.407.981.981.981.547 0 1.004-.336 1.004-1.027 0-1.602-1.676-2.75-3.61-2.75-2.796 0-5.019 2.488-5.019 5.5 0 3.054 2.293 5.398 4.996 5.398 3.152 0 3.871-2.867 3.871-3.082s-.168-.215-.238-.215c-.219 0-.242.07-.313.36-.523 1.695-1.816 2.41-3.105 2.41-1.457 0-3.395-1.266-3.395-4.899 0-3.965 2.032-4.945 3.227-4.945.906 0 2.223.359 2.769 1.289m10.403 0c-.285 0-1.172 0-1.172.98 0 .575.406.981.98.981.551 0 1.004-.336 1.004-1.027 0-1.602-1.672-2.75-3.609-2.75-2.793 0-5.02 2.488-5.02 5.5 0 3.054 2.297 5.398 4.996 5.398 3.157 0 3.872-2.867 3.872-3.082s-.168-.215-.239-.215c-.215 0-.242.07-.308.36-.528 1.695-1.821 2.41-3.11 2.41-1.457 0-3.39-1.266-3.39-4.899 0-3.965 2.031-4.945 3.222-4.945.911 0 2.227.359 2.774 1.289m12.719 3.73c0-3.085-2.344-5.546-5.114-5.546-2.867 0-5.14 2.535-5.14 5.546 0 3.059 2.39 5.352 5.117 5.352 2.816 0 5.137-2.344 5.137-5.352m-5.114 4.825c-.886 0-1.961-.379-2.652-1.555-.649-1.074-.672-2.48-.672-3.488 0-.907 0-2.364.742-3.438a3.06 3.06 0 0 1 2.559-1.41c.93 0 1.933.43 2.578 1.363.742 1.098.742 2.602.742 3.485 0 .84 0 2.32-.621 3.441-.668 1.149-1.769 1.602-2.676 1.602m9.953-16.297-3.32.262v.695c1.625 0 1.816.168 1.816 1.336v12.523c0 1.074-.261 1.074-1.816 1.074v.696c.668-.047 1.84-.047 2.555-.047.719 0 1.914 0 2.582.047v-.696c-1.528 0-1.817 0-1.817-1.074zm13.36 11.472c0-3.085-2.34-5.546-5.114-5.546-2.867 0-5.136 2.535-5.136 5.546 0 3.059 2.386 5.352 5.113 5.352 2.816 0 5.137-2.344 5.137-5.352m-5.114 4.825c-.886 0-1.96-.379-2.652-1.555-.648-1.074-.672-2.48-.672-3.488 0-.907 0-2.364.742-3.438a3.06 3.06 0 0 1 2.559-1.41c.93 0 1.934.43 2.578 1.363.742 1.098.742 2.602.742 3.485 0 .84 0 2.32-.621 3.441-.668 1.149-1.769 1.602-2.676 1.602m20.813-16.035v.695c1.625 0 1.816.168 1.816 1.336v5.281c-.5-.691-1.527-1.527-2.988-1.527-2.769 0-5.16 2.34-5.16 5.398 0 3.035 2.269 5.379 4.898 5.379 1.817 0 2.868-1.195 3.204-1.648v1.648l3.367-.238v-.696c-1.625 0-1.813-.168-1.813-1.335v-14.555zm1.77 13.527c0 .43 0 .504-.336 1.027-.571.836-1.551 1.531-2.747 1.531-.621 0-3.203-.242-3.203-4.875 0-1.722.286-2.679.813-3.468.476-.739 1.433-1.481 2.629-1.481 1.48 0 2.316 1.074 2.554 1.457.29.407.29.457.29.887zm8.218-11.926c0-.621-.5-1.168-1.168-1.168-.621 0-1.148.5-1.148 1.145 0 .718.574 1.172 1.148 1.172.739 0 1.168-.622 1.168-1.149m-3.297 4.445v.696c1.532 0 1.746.14 1.746 1.312v6.5c0 1.074-.261 1.074-1.816 1.074v.696c.668-.047 1.816-.047 2.508-.047.266 0 1.648 0 2.461.047v-.696c-1.551 0-1.649-.117-1.649-1.05v-8.793zm46.325-3.535c.261-1.031.644-1.746 2.461-1.816.074 0 .359-.024.359-.43 0-.265-.215-.265-.313-.265-.476 0-1.695.05-2.171.05h-1.149c-.336 0-.766-.05-1.098-.05-.144 0-.429 0-.429.457 0 .238.187.238.355.238 1.434.047 1.531.598 1.531 1.027 0 .215-.023.285-.097.621l-2.699 10.778-5.114-12.715c-.168-.379-.191-.406-.718-.406h-2.914c-.477 0-.696 0-.696.457 0 .238.168.238.625.238.117 0 1.528 0 1.528.215 0 .047-.047.238-.071.308l-3.179 12.668c-.286 1.168-.86 1.672-2.438 1.742-.117 0-.355.028-.355.457 0 .239.238.239.308.239.477 0 1.695-.047 2.176-.047h1.144c.336 0 .743.047 1.075.047.168 0 .433 0 .433-.457 0-.211-.242-.239-.336-.239-.789-.023-1.554-.168-1.554-1.027 0-.191.05-.406.097-.598l3.227-12.785c.141.242.141.289.238.504l5.688 14.172c.121.285.168.43.382.43.239 0 .262-.074.36-.481zm24.664 8.317c.406 0 .836 0 .836-.477 0-.48-.43-.48-.836-.48h-12.926c-.406 0-.84 0-.84.48 0 .477.434.477.84.477zm15.035-9.821c0-.55 0-.574-.477-.574-.574.645-1.769 1.527-4.23 1.527v.696c.551 0 1.742 0 3.058-.625v12.449c0 .863-.074 1.148-2.175 1.148h-.739v.696c.645-.047 2.961-.047 3.75-.047s3.082 0 3.727.047v-.696h-.742c-2.102 0-2.172-.285-2.172-1.148zm40.43 5.711h2.699v-.695h-2.75v-2.797c0-2.148 1.097-3.25 2.082-3.25.187 0 .547.051.836.192-.098.027-.696.238-.696.933 0 .551.383.93.934.93.574 0 .953-.379.953-.953 0-.883-.859-1.578-2.004-1.578-1.676 0-3.562 1.289-3.562 3.726v2.797h-1.864v.695h1.864v7.836c0 1.074-.262 1.074-1.817 1.074v.696c.668-.047 1.985-.047 2.7-.047.648 0 2.343 0 2.89.047v-.696h-.476c-1.743 0-1.789-.261-1.789-1.121zm12.21 3.227c0-1.293 0-2.25-1.05-3.18-.836-.765-1.91-1.101-2.965-1.101-1.957 0-3.465 1.293-3.465 2.843 0 .696.453 1.032 1.004 1.032.574 0 .98-.407.98-.985 0-.976-.859-.976-1.218-.976.55-1.004 1.699-1.434 2.652-1.434 1.102 0 2.508.906 2.508 3.059v.953c-4.801.074-6.617 2.082-6.617 3.922 0 1.886 2.199 2.484 3.656 2.484 1.578 0 2.652-.957 3.105-2.102.098 1.122.836 1.981 1.864 1.981.503 0 1.89-.336 1.89-2.246v-1.34h-.527v1.34c0 1.363-.574 1.555-.906 1.555-.911 0-.911-1.27-.911-1.625zm-1.554 3.008c0 2.343-1.742 3.132-2.77 3.132-1.172 0-2.152-.863-2.152-2.007 0-3.157 4.062-3.442 4.922-3.493zm8.289-11.352c0-.621-.5-1.168-1.168-1.168-.625 0-1.149.5-1.149 1.145 0 .718.575 1.172 1.149 1.172.738 0 1.168-.622 1.168-1.149m-3.297 4.445v.696c1.527 0 1.742.14 1.742 1.312v6.5c0 1.074-.262 1.074-1.812 1.074v.696c.668-.047 1.812-.047 2.507-.047.262 0 1.649 0 2.461.047v-.696c-1.554 0-1.648-.117-1.648-1.05v-8.793zm10.035 1.125c0-.644-.551-1.148-1.144-1.148-.696 0-1.172.551-1.172 1.148 0 .715.597 1.172 1.148 1.172.645 0 1.168-.504 1.168-1.172m0 7.981c0-.645-.551-1.149-1.144-1.149-.696 0-1.172.551-1.172 1.149 0 .715.597 1.172 1.148 1.172.645 0 1.168-.504 1.168-1.172m-390.84-108.75c0-.621-.5-1.172-1.168-1.172a1.15 1.15 0 0 0-1.148 1.148c0 .715.574 1.172 1.148 1.172.739 0 1.168-.621 1.168-1.148m-3.297 4.445v.692c1.532 0 1.746.144 1.746 1.316v6.5c0 1.074-.261 1.074-1.816 1.074v.696c.668-.051 1.816-.051 2.508-.051.265 0 1.648 0 2.46.051v-.696c-1.55 0-1.648-.121-1.648-1.051v-8.793zm22.774 4.469c0-2.223 0-2.891-.547-3.656-.695-.934-1.816-1.075-2.629-1.075-1.984 0-2.988 1.434-3.371 2.364-.336-1.84-1.625-2.364-3.129-2.364-2.32 0-3.227 1.985-3.418 2.461h-.023v-2.461l-3.25.262v.692c1.625 0 1.816.168 1.816 1.339v6.477c0 1.074-.262 1.074-1.816 1.074v.696c.62-.051 1.91-.051 2.578-.051.695 0 1.984 0 2.605.051v-.696c-1.527 0-1.816 0-1.816-1.074v-4.445c0-2.508 1.648-3.848 3.133-3.848 1.48 0 1.816 1.219 1.816 2.676v5.617c0 1.074-.266 1.074-1.816 1.074v.696c.62-.051 1.91-.051 2.578-.051.695 0 1.984 0 2.605.051v-.696c-1.527 0-1.816 0-1.816-1.074v-4.445c0-2.508 1.648-3.848 3.133-3.848 1.48 0 1.816 1.219 1.816 2.676v5.617c0 1.074-.266 1.074-1.816 1.074v.696c.62-.051 1.91-.051 2.578-.051.695 0 1.984 0 2.605.051v-.696c-1.195 0-1.793 0-1.816-.715zm8.223 9.75c-1.532 0-1.817 0-1.817-1.074v-4.16c.43.597 1.41 1.531 2.938 1.531 2.75 0 5.164-2.32 5.164-5.403 0-3.035-2.246-5.375-4.852-5.375-2.102 0-3.227 1.504-3.297 1.598v-1.598l-3.324.262v.692c1.676 0 1.816.168 1.816 1.218v11.235c0 1.074-.261 1.074-1.816 1.074v.691c.621-.047 1.914-.047 2.582-.047.691 0 1.984 0 2.605.047zm-1.817-11.566c0-.454 0-.481.262-.86.718-1.078 1.886-1.531 2.797-1.531 1.793 0 3.226 2.176 3.226 4.851 0 2.844-1.625 4.922-3.465 4.922a2.83 2.83 0 0 1-1.914-.761c-.547-.551-.906-1.028-.906-1.7zm20.629 2.507c0-3.082-2.34-5.543-5.113-5.543-2.867 0-5.137 2.536-5.137 5.543 0 3.063 2.387 5.356 5.113 5.356 2.82 0 5.137-2.344 5.137-5.356m-5.113 4.828c-.883 0-1.961-.382-2.653-1.554-.644-1.074-.668-2.485-.668-3.488 0-.907 0-2.364.739-3.442a3.07 3.07 0 0 1 2.558-1.406c.93 0 1.938.43 2.578 1.359.743 1.102.743 2.606.743 3.489 0 .839 0 2.32-.621 3.441-.669 1.148-1.77 1.601-2.676 1.601m13.683-9.82c0-.43 0-.551-.238-.551-.191 0-.644.528-.812.743-.743-.598-1.485-.743-2.247-.743-2.894 0-3.754 1.579-3.754 2.891 0 .266 0 1.102.91 1.938.762.667 1.575.835 2.676 1.05 1.313.262 1.625.336 2.223.813.43.359.738.883.738 1.554 0 1.028-.593 2.172-2.699 2.172-1.574 0-2.722-.906-3.25-3.297-.094-.429-.094-.453-.117-.476-.05-.098-.145-.098-.215-.098-.266 0-.266.121-.266.551v3.25c0 .43 0 .551.243.551.117 0 .14-.024.547-.528.12-.167.12-.214.476-.597.91 1.125 2.2 1.125 2.606 1.125 2.511 0 3.754-1.387 3.754-3.274 0-1.293-.79-2.058-1.004-2.269-.86-.742-1.504-.887-3.082-1.176-.72-.141-2.461-.476-2.461-1.91 0-.738.5-1.84 2.652-1.84 2.605 0 2.746 2.223 2.793 2.965.023.191.191.191.266.191.261 0 .261-.121.261-.55zm5.375.5h3.371v-.691h-3.37v-4.399h-.524c-.024 2.246-.887 4.543-3.059 4.614v.476h2.031v6.645c0 2.652 1.766 3.203 3.036 3.203 1.504 0 2.293-1.481 2.293-3.203v-1.364h-.528v1.317c0 1.719-.691 2.722-1.625 2.722-1.625 0-1.625-2.222-1.625-2.628zm14.309 3.227c0-1.289 0-2.246-1.047-3.18-.84-.762-1.914-1.098-2.965-1.098-1.96 0-3.465 1.293-3.465 2.844 0 .692.453 1.027 1.004 1.027.574 0 .98-.406.98-.98 0-.98-.863-.98-1.218-.98.547-1 1.695-1.43 2.648-1.43 1.102 0 2.512.906 2.512 3.055v.957c-4.805.074-6.621 2.082-6.621 3.918 0 1.89 2.2 2.488 3.656 2.488 1.578 0 2.656-.957 3.11-2.106.093 1.125.836 1.985 1.863 1.985.5 0 1.887-.336 1.887-2.246v-1.34h-.524v1.34c0 1.363-.574 1.554-.91 1.554-.91 0-.91-1.269-.91-1.625zm-1.55 3.011c0 2.34-1.747 3.129-2.774 3.129-1.168 0-2.149-.859-2.149-2.007 0-3.153 4.063-3.442 4.922-3.489zm34.101-4.226h4.015c3.297 0 6.594-2.442 6.594-5.164 0-1.863-1.574-3.563-4.586-3.563h-7.387c-.453 0-.668 0-.668.457 0 .239.215.239.575.239 1.457 0 1.457.187 1.457.453 0 .047 0 .191-.094.551l-3.227 12.855c-.214.836-.261 1.074-1.937 1.074-.453 0-.692 0-.692.43 0 .266.215.266.36.266.453 0 .93-.051 1.383-.051h2.797c.453 0 .957.051 1.41.051.191 0 .457 0 .457-.457 0-.239-.215-.239-.575-.239-1.433 0-1.457-.168-1.457-.406 0-.117.024-.285.047-.406zm1.722-7.102c.215-.882.309-.929 1.243-.929h2.367c1.789 0 3.273.574 3.273 2.363 0 .621-.312 2.656-1.414 3.754-.406.43-1.551 1.336-3.726 1.336h-3.368zm41.727 8.317c0-1.289 0-2.246-1.051-3.18-.836-.762-1.91-1.098-2.961-1.098-1.961 0-3.465 1.293-3.465 2.844 0 .692.453 1.027 1.004 1.027.574 0 .981-.406.981-.98 0-.98-.864-.98-1.219-.98.547-1 1.695-1.43 2.648-1.43 1.102 0 2.512.906 2.512 3.055v.957c-4.805.074-6.617 2.082-6.617 3.918 0 1.89 2.195 2.488 3.652 2.488 1.578 0 2.657-.957 3.11-2.106.093 1.125.836 1.985 1.863 1.985.5 0 1.887-.336 1.887-2.246v-1.34h-.524v1.34c0 1.363-.574 1.554-.91 1.554-.91 0-.91-1.269-.91-1.625zm-1.551 3.011c0 2.34-1.742 3.129-2.773 3.129-1.168 0-2.149-.859-2.149-2.007 0-3.153 4.063-3.442 4.922-3.489zm37.734-4.277c0-1.984-.121-3.918-.976-5.734-.981-1.985-2.703-2.512-3.875-2.512-1.387 0-3.082.695-3.965 2.676-.672 1.508-.91 2.988-.91 5.57 0 2.317.168 4.063 1.027 5.758.934 1.816 2.582 2.391 3.824 2.391 2.079 0 3.274-1.243 3.965-2.629.864-1.793.91-4.133.91-5.52m-4.875 7.668c-.765 0-2.316-.426-2.769-3.031-.266-1.434-.266-3.25-.266-4.926 0-1.957 0-3.727.383-5.137.406-1.597 1.625-2.34 2.652-2.34.911 0 2.293.547 2.75 2.602.309 1.363.309 3.25.309 4.875 0 1.602 0 3.418-.262 4.875-.453 2.633-1.961 3.082-2.797 3.082"/></g></svg>