<svg xmlns="http://www.w3.org/2000/svg" width="454pt" height="152" viewBox="0 -114 454 114"><g id="page1"><path fill="none" stroke="#000" stroke-linecap="round" stroke-linejoin="round" stroke-width=".5" d="M.25-.25v-113.262M56.879-.25v-113.262M113.512-.25v-113.262M170.141-.25v-113.262M.25-.25h169.891M.25-56.883h169.891M.25-113.512h169.891M283.402-.25v-113.262M340.031-.25v-113.262M396.664-.25v-113.262M453.293-.25v-113.262M283.402-.25h169.891M283.402-56.883h169.891m-169.891-56.629h169.891"/><path d="M29.316-91.574c0-.418-.02-.442-.3-.442-.778.942-1.957 1.243-3.078 1.282-.06 0-.157 0-.18.039-.02.039-.02.078-.02.5.621 0 1.66-.121 2.461-.602v10.54c0 .698-.043.937-1.762.937h-.597v.52c.957-.02 1.957-.04 2.918-.04.96 0 1.96.02 2.918.04v-.52h-.598c-1.719 0-1.762-.22-1.762-.938zm55.704 5.976c1.777 0 2.558 1.54 2.558 3.32 0 2.4-1.281 3.317-2.441 3.317-1.059 0-2.778-.52-3.317-2.058.098.038.2.038.297.038.48 0 .844-.316.844-.84 0-.577-.442-.835-.844-.835-.336 0-.86.156-.86.898 0 1.84 1.802 3.277 3.923 3.277 2.218 0 3.918-1.738 3.918-3.777 0-1.941-1.602-3.34-3.5-3.558 1.52-.32 2.98-1.68 2.98-3.5 0-1.559-1.582-2.7-3.379-2.7-1.82 0-3.418 1.122-3.418 2.72 0 .702.52.82.778.82.422 0 .78-.258.78-.782 0-.515-.358-.777-.78-.777-.078 0-.18 0-.258.039.578-1.317 2.156-1.559 2.855-1.559.703 0 2.02.34 2.02 2.258 0 .563-.078 1.563-.758 2.441-.602.778-1.281.817-1.941.88-.098 0-.559.038-.637.038-.14.02-.223.04-.223.18s.024.16.422.16zm54.3-.097c0-4.782 2.239-5.86 3.539-5.86.418 0 1.438.078 1.836.86-.316 0-.918 0-.918.699 0 .543.442.723.719.723.18 0 .723-.083.723-.762 0-1.262-1-1.98-2.379-1.98-2.379 0-4.879 2.48-4.879 6.898 0 5.437 2.258 6.636 3.859 6.636 1.938 0 3.778-1.738 3.778-4.417 0-2.5-1.621-4.317-3.66-4.317-1.219 0-2.118.797-2.618 2.2zm2.5 6.734c-2.461 0-2.461-3.68-2.461-4.418 0-1.437.68-3.52 2.539-3.52.34 0 1.321 0 1.981 1.383.359.778.359 1.598.359 2.598 0 1.078 0 1.879-.422 2.68-.437.816-1.078 1.277-1.996 1.277M32.336-25.2h-.36c-.199 1.419-.359 1.66-.437 1.782-.102.16-1.543.16-1.82.16h-3.84c.719-.781 2.121-2.199 3.816-3.84 1.223-1.16 2.64-2.52 2.64-4.496 0-2.36-1.878-3.718-3.976-3.718-2.199 0-3.539 1.937-3.539 3.734 0 .781.578.883.82.883.2 0 .797-.121.797-.82 0-.622-.519-.801-.796-.801a.8.8 0 0 0-.32.058c.378-1.695 1.538-2.539 2.757-2.539 1.738 0 2.879 1.383 2.879 3.203 0 1.739-1.02 3.235-2.16 4.535l-3.977 4.5v.457h7.035zm50.543-8.597c.2.082 1.02.344 1.86.344 1.859 0 2.878-1 3.456-1.582 0-.16 0-.258-.117-.258-.023 0-.062 0-.222.078-.7.3-1.52.54-2.52.54a6 6 0 0 1-2.477-.52c-.218-.098-.261-.098-.28-.098-.098 0-.118.02-.118.418v5.797c0 .36 0 .46.2.46.097 0 .136-.038.237-.179.641-.898 1.52-1.281 2.52-1.281.7 0 2.2.441 2.2 3.86 0 .64 0 1.8-.602 2.718-.5.82-1.278 1.242-2.137 1.242-1.32 0-2.66-.922-3.02-2.46.079.019.243.058.32.058.258 0 .758-.137.758-.758 0-.539-.378-.762-.757-.762-.461 0-.758.282-.758.84 0 1.738 1.375 3.559 3.496 3.559 2.059 0 4.02-1.778 4.02-4.356 0-2.402-1.563-4.261-3.5-4.261-1.02 0-1.88.382-2.56 1.101zm61.039-1.238c0-.418-.02-.442-.379-.442l-5.937 9.457v.52h5.156v1.96c0 .72-.039.919-1.438.919h-.382v.52c.64-.04 1.718-.04 2.402-.04.676 0 1.758 0 2.394.04v-.52h-.379c-1.398 0-1.437-.2-1.437-.918V-25.5h2.039v-.52h-2.039zm-1.102 1.32v7.696H138zm172.622-48.183h-.36c-.199 1.417-.359 1.66-.441 1.78-.098.157-1.539.157-1.821.157h-3.836c.719-.777 2.118-2.195 3.817-3.836 1.219-1.16 2.641-2.52 2.641-4.5 0-2.36-1.879-3.719-3.981-3.719-2.199 0-3.535 1.942-3.535 3.739 0 .78.578.879.816.879.2 0 .801-.118.801-.817 0-.62-.519-.8-.801-.8a.8.8 0 0 0-.32.058c.383-1.7 1.543-2.54 2.762-2.54 1.738 0 2.875 1.38 2.875 3.2 0 1.742-1.016 3.238-2.157 4.54l-3.976 4.5v.456h7.035zm52.781-3.7c1.777 0 2.558 1.54 2.558 3.32 0 2.4-1.281 3.317-2.437 3.317-1.063 0-2.781-.52-3.32-2.058a.8.8 0 0 0 .3.038c.477 0 .84-.316.84-.84 0-.577-.441-.835-.84-.835-.34 0-.859.156-.859.898 0 1.84 1.797 3.277 3.918 3.277 2.219 0 3.918-1.738 3.918-3.777 0-1.941-1.602-3.34-3.5-3.558 1.519-.32 2.98-1.68 2.98-3.5 0-1.559-1.582-2.7-3.379-2.7-1.82 0-3.418 1.122-3.418 2.72 0 .702.52.82.778.82.422 0 .781-.258.781-.782 0-.515-.359-.777-.781-.777-.078 0-.18 0-.258.039.578-1.317 2.156-1.559 2.859-1.559.7 0 2.02.34 2.02 2.258 0 .563-.082 1.563-.762 2.441-.601.778-1.277.817-1.937.88-.102 0-.563.038-.641.038-.141.02-.219.04-.219.18s.02.16.418.16zm58.898-6.136c0-.422-.019-.442-.379-.442l-5.937 9.457v.52h5.156v1.96c0 .72-.039.919-1.437.919h-.379v.52c.636-.04 1.718-.04 2.398-.04s1.758 0 2.399.04v-.52h-.383c-1.399 0-1.438-.2-1.438-.918V-82.2h2.039v-.52h-2.039zm-1.101 1.32v7.695h-4.817zM312.418-34.875c0-.418-.02-.437-.301-.437-.777.937-1.957 1.238-3.078 1.277-.059 0-.16 0-.18.039-.019.043-.019.082-.019.5.621 0 1.656-.121 2.457-.598v10.535c0 .7-.039.938-1.758.938h-.601v.52c.96-.02 1.96-.04 2.921-.04.957 0 1.957.02 2.918.04v-.52h-.601c-1.719 0-1.758-.219-1.758-.938zm53.66 1.078c.203.082 1.02.344 1.86.344 1.859 0 2.878-1 3.46-1.582 0-.16 0-.258-.121-.258-.019 0-.058 0-.222.078a6.2 6.2 0 0 1-2.516.54c-.601 0-1.5-.079-2.48-.52-.219-.098-.262-.098-.278-.098-.101 0-.121.02-.121.418v5.797c0 .36 0 .46.199.46.102 0 .137-.038.239-.179.64-.898 1.519-1.281 2.519-1.281.699 0 2.199.441 2.199 3.86 0 .64 0 1.8-.597 2.718-.5.82-1.281 1.242-2.141 1.242-1.32 0-2.66-.922-3.019-2.46.082.019.242.058.32.058.262 0 .762-.137.762-.758 0-.539-.383-.762-.762-.762-.461 0-.758.282-.758.84 0 1.738 1.375 3.559 3.496 3.559 2.059 0 4.02-1.778 4.02-4.356 0-2.402-1.559-4.261-3.5-4.261-1.02 0-1.879.382-2.559 1.101zm56.442 4.801c0-4.777 2.238-5.86 3.539-5.86.418 0 1.437.083 1.839.86-.32 0-.921 0-.921.7 0 .542.441.722.718.722.184 0 .723-.082.723-.762 0-1.258-1-1.977-2.379-1.977-2.379 0-4.879 2.477-4.879 6.895 0 5.438 2.258 6.637 3.86 6.637 1.937 0 3.777-1.739 3.777-4.418 0-2.496-1.621-4.317-3.66-4.317-1.219 0-2.117.797-2.617 2.2zm2.5 6.738c-2.461 0-2.461-3.68-2.461-4.422 0-1.437.679-3.515 2.539-3.515.34 0 1.32 0 1.98 1.379.36.777.36 1.597.36 2.597 0 1.078 0 1.88-.422 2.68-.438.82-1.078 1.281-1.996 1.281"/></g></svg>