<svg xmlns="http://www.w3.org/2000/svg" width="457pt" height="257pt" viewBox="0 -257 457 257"><g id="page1"><path fill="#ffd9b2" d="M10.004-69.344h5.953c1.633 0 3.2.653 4.355 1.805l4.895 4.898a2.553 2.553 0 0 0 3.61 0l4.894-4.898a6.18 6.18 0 0 1 4.355-1.805h67.766a2.55 2.55 0 0 0 2.551-2.55v-47.645a2.55 2.55 0 0 0-2.551-2.551H38.066a6.16 6.16 0 0 0-4.355 1.805l-4.895 4.894a2.554 2.554 0 0 1-3.609 0l-4.895-4.894a6.16 6.16 0 0 0-4.355-1.805H4.051a2.55 2.55 0 0 0-2.551 2.551v47.645c0 1.41 1.14 2.55 2.55 2.55z"/><path fill="none" stroke="#b25900" stroke-linecap="round" stroke-linejoin="round" stroke-width="3" d="M10.004-69.344h5.953c1.633 0 3.2.653 4.355 1.805l4.895 4.898a2.553 2.553 0 0 0 3.61 0l4.894-4.898a6.18 6.18 0 0 1 4.355-1.805h67.766a2.55 2.55 0 0 0 2.551-2.55v-47.645a2.55 2.55 0 0 0-2.551-2.551H38.066a6.16 6.16 0 0 0-4.355 1.805l-4.895 4.894a2.554 2.554 0 0 1-3.609 0l-4.895-4.894a6.16 6.16 0 0 0-4.355-1.805H4.051a2.55 2.55 0 0 0-2.551 2.551v47.645c0 1.41 1.14 2.55 2.55 2.55z"/><path fill="#b2ffff" d="M1.5-125.035h14.457c1.633 0 3.2.648 4.355 1.805l4.895 4.894a2.554 2.554 0 0 0 3.61 0l4.894-4.894a6.16 6.16 0 0 1 4.355-1.805h70.317v-52.746c-15.625-11.067-34.297-17.008-53.442-17.008S17.125-188.848 1.5-177.781z"/><path fill="none" stroke="#00b2b2" stroke-linecap="round" stroke-linejoin="round" stroke-width="3" d="M1.5-125.035h14.457c1.633 0 3.2.648 4.355 1.805l4.895 4.894a2.554 2.554 0 0 0 3.61 0l4.894-4.894a6.16 6.16 0 0 1 4.355-1.805h70.317v-52.746c-15.625-11.067-34.297-17.008-53.442-17.008S17.125-188.848 1.5-177.781z"/><path fill="#ffffb2" d="M153.738-8.953h5.953c1.633 0 3.2.648 4.356 1.805l4.894 4.894a2.554 2.554 0 0 0 3.61 0l4.894-4.894a6.16 6.16 0 0 1 4.356-1.805h262.558a2.55 2.55 0 0 0 2.551-2.55v-168.423c0-1.41-1.14-2.551-2.551-2.551H181.801a6.18 6.18 0 0 0-4.356 1.801l-4.894 4.899a2.554 2.554 0 0 1-3.61 0l-4.894-4.899a6.17 6.17 0 0 0-4.356-1.801h-11.906a2.55 2.55 0 0 0-2.551 2.551v168.422a2.55 2.55 0 0 0 2.551 2.55z"/><path fill="none" stroke="#b2b200" stroke-linecap="round" stroke-linejoin="round" stroke-width="3" d="M153.738-8.953h5.953c1.633 0 3.2.648 4.356 1.805l4.894 4.894a2.554 2.554 0 0 0 3.61 0l4.894-4.894a6.16 6.16 0 0 1 4.356-1.805h262.558a2.55 2.55 0 0 0 2.551-2.55v-168.423c0-1.41-1.14-2.551-2.551-2.551H181.801a6.18 6.18 0 0 0-4.356 1.801l-4.894 4.899a2.554 2.554 0 0 1-3.61 0l-4.894-4.899a6.17 6.17 0 0 0-4.356-1.801h-11.906a2.55 2.55 0 0 0-2.551 2.551v168.422a2.55 2.55 0 0 0 2.551 2.55z"/><path fill="#ffd9b2" d="M179.25-25.96h5.953c1.633 0 3.199.648 4.356 1.804l4.894 4.894c.996.996 2.61.996 3.61 0l4.894-4.894a6.16 6.16 0 0 1 4.356-1.805h245.55a2.55 2.55 0 0 0 2.551-2.55v-47.645a2.55 2.55 0 0 0-2.551-2.551h-245.55a6.16 6.16 0 0 0-4.356 1.805l-4.894 4.894c-1 .996-2.614.996-3.61 0l-4.894-4.894a6.16 6.16 0 0 0-4.356-1.805h-11.906a2.55 2.55 0 0 0-2.551 2.55v47.645a2.55 2.55 0 0 0 2.551 2.551z"/><path fill="none" stroke="#b25900" stroke-linecap="round" stroke-linejoin="round" stroke-width="3" d="M179.25-25.96h5.953c1.633 0 3.199.648 4.356 1.804l4.894 4.894c.996.996 2.61.996 3.61 0l4.894-4.894a6.16 6.16 0 0 1 4.356-1.805h245.55a2.55 2.55 0 0 0 2.551-2.55v-47.645a2.55 2.55 0 0 0-2.551-2.551h-245.55a6.16 6.16 0 0 0-4.356 1.805l-4.894 4.894c-1 .996-2.614.996-3.61 0l-4.894-4.894a6.16 6.16 0 0 0-4.356-1.805h-11.906a2.55 2.55 0 0 0-2.551 2.55v47.645a2.55 2.55 0 0 0 2.551 2.551z"/><path fill="#b2ffb2" d="m194.949-108.277 10.434 14.398A12.49 12.49 0 0 0 215.5-88.71h148.914a12.49 12.49 0 0 0 10.121-5.168l20.863-28.797a8.81 8.81 0 0 0 0-10.332l-20.863-28.797a12.5 12.5 0 0 0-10.121-5.168H215.5c-4.004 0-7.77 1.922-10.117 5.168l-20.863 28.797a8.8 8.8 0 0 0 0 10.332z"/><path fill="none" stroke="#00b200" stroke-linecap="round" stroke-linejoin="round" stroke-width="3" d="m194.949-108.277 10.434 14.398A12.49 12.49 0 0 0 215.5-88.71h148.914a12.49 12.49 0 0 0 10.121-5.168l20.863-28.797a8.81 8.81 0 0 0 0-10.332l-20.863-28.797a12.5 12.5 0 0 0-10.121-5.168H215.5c-4.004 0-7.77 1.922-10.117 5.168l-20.863 28.797a8.8 8.8 0 0 0 0 10.332z"/><path fill="#b2ffb2" d="m255.66-114.652 9.504 8.839c3 2.793 6.945 4.344 11.047 4.344h79.699c4.102 0 8.047-1.551 11.051-4.344l19.008-17.683c2.519-2.348 2.519-6.344 0-8.688l-19.008-17.687a16.24 16.24 0 0 0-11.051-4.344h-79.699a16.23 16.23 0 0 0-11.047 4.344l-19.008 17.687c-2.523 2.344-2.523 6.34 0 8.688z"/><path fill="none" stroke="#00b200" stroke-linecap="round" stroke-linejoin="round" stroke-width="3" d="m255.66-114.652 9.504 8.839c3 2.793 6.945 4.344 11.047 4.344h79.699c4.102 0 8.047-1.551 11.051-4.344l19.008-17.683c2.519-2.348 2.519-6.344 0-8.688l-19.008-17.687a16.24 16.24 0 0 0-11.051-4.344h-79.699a16.23 16.23 0 0 0-11.047 4.344l-19.008 17.687c-2.523 2.344-2.523 6.34 0 8.688z"/><path fill="#b2ffff" d="M145.234-185.426h14.457c1.633 0 3.2.653 4.356 1.805l4.894 4.898a2.554 2.554 0 0 0 3.61 0l4.894-4.898a6.18 6.18 0 0 1 4.356-1.805H446.91v-52.746a677.3 677.3 0 0 0-150.84-17.008 677.2 677.2 0 0 0-150.836 17.008z"/><path fill="none" stroke="#00b2b2" stroke-linecap="round" stroke-linejoin="round" stroke-width="3" d="M145.234-185.426h14.457c1.633 0 3.2.653 4.356 1.805l4.894 4.898a2.554 2.554 0 0 0 3.61 0l4.894-4.898a6.18 6.18 0 0 1 4.356-1.805H446.91v-52.746a677.3 677.3 0 0 0-150.84-17.008 677.2 677.2 0 0 0-150.836 17.008z"/><path d="M22.223-96.078c0-1.293 0-2.25-1.051-3.18-.836-.765-1.91-1.101-2.961-1.101-1.961 0-3.469 1.293-3.469 2.843 0 .696.457 1.032 1.008 1.032.57 0 .977-.407.977-.985 0-.976-.86-.976-1.22-.976.552-1.004 1.7-1.434 2.653-1.434 1.102 0 2.512.906 2.512 3.059v.953c-4.805.074-6.621 2.082-6.621 3.922 0 1.886 2.199 2.484 3.656 2.484 1.578 0 2.652-.957 3.105-2.102.098 1.122.836 1.981 1.868 1.981.5 0 1.886-.332 1.886-2.246v-1.336h-.527v1.336c0 1.363-.57 1.555-.906 1.555-.91 0-.91-1.266-.91-1.625zm-1.551 3.008c0 2.343-1.746 3.132-2.774 3.132-1.171 0-2.148-.863-2.148-2.007 0-3.157 4.063-3.442 4.922-3.493zm13.18-4.66c.214-.524.62-1.551 2.148-1.575V-100c-.691.047-1.027.047-1.766.047-.504 0-.863 0-1.96-.047v.695c1.003.047 1.12.762 1.12 1.024 0 .219-.046.336-.167.625l-2.438 6.164-2.676-6.739c-.117-.335-.14-.335-.14-.457 0-.617.906-.617 1.336-.617V-100c-.598.047-1.84.047-2.485.047-.789 0-.836 0-2.293-.047v.695c1.336 0 1.578.094 1.864.836l3.418 8.555c.117.332.164.453.453.453.168 0 .312-.047.476-.453zm10.472 1.652c0-1.293 0-2.25-1.05-3.18-.837-.765-1.915-1.101-2.965-1.101-1.957 0-3.465 1.293-3.465 2.843 0 .696.453 1.032 1.004 1.032.574 0 .98-.407.98-.985 0-.976-.86-.976-1.219-.976.551-1.004 1.696-1.434 2.653-1.434 1.097 0 2.508.906 2.508 3.059v.953c-4.801.074-6.618 2.082-6.618 3.922 0 1.886 2.2 2.484 3.657 2.484 1.574 0 2.652-.957 3.105-2.102.094 1.122.836 1.981 1.863 1.981.504 0 1.887-.332 1.887-2.246v-1.336h-.523v1.336c0 1.363-.575 1.555-.907 1.555-.91 0-.91-1.266-.91-1.625zM42.77-93.07c0 2.343-1.743 3.132-2.77 3.132-1.172 0-2.152-.863-2.152-2.007 0-3.157 4.062-3.442 4.922-3.493zm14.664-2.438c0-2.223 0-2.89-.551-3.656-.692-.93-1.813-1.074-2.625-1.074-2.32 0-3.227 1.984-3.418 2.46h-.028v-2.46l-3.25.261v.696c1.626 0 1.82.164 1.82 1.336v6.476c0 1.075-.265 1.075-1.82 1.075v.695c.626-.051 1.915-.051 2.583-.051.695 0 1.984 0 2.605.05v-.694c-1.531 0-1.816 0-1.816-1.075v-4.445c0-2.508 1.648-3.848 3.129-3.848 1.484 0 1.82 1.219 1.82 2.676v5.617c0 1.075-.266 1.075-1.82 1.075v.695c.624-.051 1.914-.051 2.581-.051.696 0 1.985 0 2.606.05v-.694c-1.195 0-1.793 0-1.816-.715zm11.472-3.82c.215-.266.215-.313.215-.406 0-.266-.168-.266-.574-.266h-7.504l-.262 3.8h.524c.144-2.437.597-3.323 3.203-3.323h2.773l-6.836 9.394c0 .43.047.43.575.43h7.789l.382-4.399h-.527c-.215 2.723-.621 3.871-3.465 3.871h-2.89zm10.516 3.25c0-1.293 0-2.25-1.047-3.18-.84-.765-1.914-1.101-2.965-1.101-1.96 0-3.465 1.293-3.465 2.843 0 .696.453 1.032 1.004 1.032.574 0 .98-.407.98-.985 0-.976-.863-.976-1.218-.976.547-1.004 1.695-1.434 2.648-1.434 1.102 0 2.512.906 2.512 3.059v.953c-4.805.074-6.621 2.082-6.621 3.922 0 1.886 2.2 2.484 3.656 2.484 1.578 0 2.656-.957 3.11-2.102.093 1.122.836 1.981 1.863 1.981.5 0 1.887-.332 1.887-2.246v-1.336h-.524v1.336c0 1.363-.574 1.555-.91 1.555-.91 0-.91-1.266-.91-1.625zm-1.55 3.008c0 2.343-1.747 3.132-2.774 3.132-1.168 0-2.149-.863-2.149-2.007 0-3.157 4.063-3.442 4.922-3.493zm-60.88-68.914-3.324.261v.696c1.625 0 1.816.168 1.816 1.336v14.293h.528a70 70 0 0 1 .86-1.555c.55.883 1.577 1.793 3.105 1.793 2.75 0 5.164-2.32 5.164-5.403 0-3.035-2.246-5.375-4.899-5.375-1.316 0-2.437.598-3.25 1.598zm.047 8.937c0-.43 0-.476.262-.859.574-.86 1.625-1.555 2.797-1.555.715 0 3.226.289 3.226 4.875 0 1.602-.238 2.606-.812 3.465-.48.742-1.434 1.48-2.63 1.48-1.288 0-2.128-.836-2.534-1.48-.309-.5-.309-.598-.309-1.004zm13.071-8.937-3.32.261v.696c1.624 0 1.816.168 1.816 1.336v12.523c0 1.074-.262 1.074-1.817 1.074v.696c.668-.051 1.84-.051 2.555-.051.718 0 1.914 0 2.582.051v-.696c-1.528 0-1.817 0-1.817-1.074zm13.359 11.468c0-3.082-2.344-5.543-5.114-5.543-2.867 0-5.136 2.536-5.136 5.543 0 3.063 2.386 5.356 5.113 5.356 2.816 0 5.137-2.344 5.137-5.356m-5.114 4.828c-.886 0-1.96-.382-2.652-1.554-.648-1.074-.672-2.485-.672-3.488 0-.907 0-2.364.742-3.442a3.07 3.07 0 0 1 2.559-1.406c.93 0 1.934.43 2.578 1.359.742 1.102.742 2.606.742 3.489 0 .839 0 2.32-.62 3.441-.669 1.148-1.77 1.601-2.676 1.601m15.194-8.554c-.284 0-1.171 0-1.171.98 0 .574.406.981.98.981.551 0 1.004-.336 1.004-1.028 0-1.601-1.672-2.75-3.61-2.75-2.792 0-5.019 2.485-5.019 5.496 0 3.059 2.297 5.403 4.996 5.403 3.157 0 3.872-2.867 3.872-3.082 0-.219-.168-.219-.239-.219-.215 0-.238.074-.308.359-.528 1.7-1.82 2.414-3.11 2.414-1.457 0-3.39-1.265-3.39-4.898 0-3.969 2.03-4.945 3.222-4.945.91 0 2.223.359 2.774 1.289m10.399 0c-.286 0-1.169 0-1.169.98 0 .574.407.981.977.981.55 0 1.004-.336 1.004-1.028 0-1.601-1.672-2.75-3.606-2.75-2.797 0-5.02 2.485-5.02 5.496 0 3.059 2.294 5.403 4.997 5.403 3.152 0 3.867-2.867 3.867-3.082 0-.219-.164-.219-.238-.219-.215 0-.239.074-.309.359-.527 1.7-1.816 2.414-3.11 2.414-1.456 0-3.39-1.265-3.39-4.898 0-3.969 2.031-4.945 3.227-4.945.906 0 2.222.359 2.77 1.289m12.718 3.726c0-3.082-2.34-5.543-5.113-5.543-2.868 0-5.137 2.536-5.137 5.543 0 3.063 2.387 5.356 5.113 5.356 2.82 0 5.137-2.344 5.137-5.356m-5.113 4.828c-.883 0-1.961-.382-2.653-1.554-.644-1.074-.668-2.485-.668-3.488 0-.907 0-2.364.739-3.442a3.07 3.07 0 0 1 2.558-1.406c.93 0 1.938.43 2.578 1.359.743 1.102.743 2.606.743 3.489 0 .839 0 2.32-.621 3.441-.668 1.148-1.77 1.601-2.676 1.601m22.273-15.269c0-.453 0-.574-.336-.574-.191 0-.261 0-.453.289l-7.195 11.156v.695h6.285v2.176c0 .883-.047 1.121-1.793 1.121h-.477v.696c.551-.051 2.438-.051 3.11-.051.668 0 2.578 0 3.129.051v-.696h-.48c-1.72 0-1.79-.238-1.79-1.121v-2.176h2.414v-.695h-2.414zm-1.578 1.863v9.008h-5.809zm95.805 116.637c-1.532 0-1.817 0-1.817-1.074v-4.16c.43.597 1.41 1.53 2.942 1.53 2.746 0 5.16-2.32 5.16-5.401 0-3.036-2.246-5.376-4.852-5.376-2.101 0-3.226 1.504-3.297 1.602v-1.602l-3.324.262v.692c1.676 0 1.821.168 1.821 1.218v11.235c0 1.074-.266 1.074-1.821 1.074v.691c.625-.047 1.914-.047 2.582-.047.692 0 1.985 0 2.606.047zm-1.817-11.566c0-.454 0-.477.266-.86a3.44 3.44 0 0 1 2.793-1.531c1.793 0 3.226 2.176 3.226 4.852 0 2.843-1.625 4.921-3.464 4.921a2.8 2.8 0 0 1-1.911-.761c-.55-.551-.91-1.028-.91-1.7zm12.953 2.054c0-2.316.957-4.492 2.793-4.492.196 0 .243 0 .336.023-.191.098-.574.243-.574.883 0 .696.551.957.934.957.476 0 .957-.308.957-.957 0-.715-.645-1.383-1.672-1.383-2.035 0-2.727 2.196-2.871 2.653h-.024v-2.653l-3.203.262v.692c1.625 0 1.821.168 1.821 1.34v6.476c0 1.074-.266 1.074-1.821 1.074v.696c.672-.051 1.985-.051 2.703-.051.645 0 2.34 0 2.891.05v-.695h-.477c-1.746 0-1.793-.261-1.793-1.12zm14.262.024c.524 0 .574 0 .574-.453 0-2.414-1.293-4.66-4.183-4.66-2.723 0-4.828 2.46-4.828 5.425 0 3.153 2.437 5.473 5.089 5.473 2.844 0 3.922-2.582 3.922-3.082 0-.145-.121-.242-.265-.242-.192 0-.239.12-.285.242-.622 2.008-2.223 2.554-3.227 2.554s-3.418-.667-3.418-4.804v-.453zm-6.598-.453c.192-3.75 2.297-4.18 2.965-4.18 2.559 0 2.7 3.367 2.723 4.18zm25.079.191c0-2.223 0-2.89-.551-3.656-.692-.934-1.813-1.075-2.625-1.075-1.985 0-2.988 1.434-3.371 2.364-.336-1.84-1.625-2.364-3.129-2.364-2.32 0-3.227 1.985-3.418 2.461h-.027v-2.46l-3.25.261v.692c1.625 0 1.82.168 1.82 1.34v6.476c0 1.074-.266 1.074-1.82 1.074v.696c.625-.051 1.914-.051 2.582-.051.695 0 1.984 0 2.605.05v-.695c-1.531 0-1.816 0-1.816-1.074v-4.445c0-2.508 1.648-3.848 3.129-3.848 1.484 0 1.82 1.219 1.82 2.676v5.617c0 1.074-.266 1.074-1.82 1.074v.696c.625-.051 1.914-.051 2.582-.051.695 0 1.984 0 2.605.05v-.695c-1.531 0-1.816 0-1.816-1.074v-4.445c0-2.508 1.648-3.848 3.129-3.848 1.484 0 1.82 1.219 1.82 2.676v5.617c0 1.074-.266 1.074-1.82 1.074v.696c.625-.051 1.914-.051 2.582-.051.695 0 1.984 0 2.605.05v-.695c-1.195 0-1.793 0-1.816-.715zm6.523-8.914c0-.621-.5-1.168-1.168-1.168-.625 0-1.148.5-1.148 1.145 0 .714.574 1.171 1.148 1.171.738 0 1.168-.62 1.168-1.148m-3.297 4.445v.692c1.528 0 1.746.144 1.746 1.316v6.5c0 1.074-.265 1.074-1.816 1.074v.696c.668-.051 1.816-.051 2.508-.051.261 0 1.648 0 2.461.05v-.695c-1.551 0-1.649-.117-1.649-1.05v-8.794zm17.598-4.445c0-.621-.5-1.168-1.168-1.168-.625 0-1.149.5-1.149 1.145 0 .714.575 1.171 1.149 1.171.738 0 1.168-.62 1.168-1.148m-3.297 4.445v.692c1.527 0 1.742.144 1.742 1.316v6.5c0 1.074-.262 1.074-1.812 1.074v.696c.668-.051 1.812-.051 2.507-.051.262 0 1.649 0 2.461.05v-.695c-1.554 0-1.648-.117-1.648-1.05v-8.794zm16.273 4.469c0-2.223 0-2.89-.55-3.656-.692-.934-1.817-1.075-2.629-1.075-2.317 0-3.227 1.985-3.414 2.461h-.028v-2.46l-3.25.261v.692c1.625 0 1.817.168 1.817 1.34v6.476c0 1.074-.262 1.074-1.817 1.074v.696c.621-.051 1.914-.051 2.582-.051.696 0 1.985 0 2.606.05v-.695c-1.531 0-1.817 0-1.817-1.074v-4.445c0-2.508 1.649-3.848 3.129-3.848 1.485 0 1.817 1.219 1.817 2.676v5.617c0 1.074-.262 1.074-1.817 1.074v.696c.621-.051 1.914-.051 2.582-.051.696 0 1.985 0 2.606.05v-.695c-1.196 0-1.793 0-1.817-.715zm5.68-3.801h3.371v-.691h-3.371v-4.399h-.523c-.024 2.246-.887 4.543-3.063 4.614v.476h2.031v6.645c0 2.652 1.77 3.203 3.039 3.203 1.504 0 2.293-1.48 2.293-3.203v-1.364h-.527v1.317c0 1.719-.691 2.722-1.625 2.722-1.625 0-1.625-2.222-1.625-2.628zm14.238 4.063c.528 0 .575 0 .575-.453 0-2.414-1.289-4.66-4.184-4.66-2.723 0-4.824 2.46-4.824 5.425 0 3.153 2.437 5.473 5.086 5.473 2.843 0 3.922-2.582 3.922-3.082 0-.145-.122-.242-.262-.242-.192 0-.242.12-.289.242-.621 2.008-2.223 2.554-3.227 2.554s-3.418-.667-3.418-4.804v-.453zm-6.597-.453c.191-3.75 2.297-4.18 2.965-4.18 2.558 0 2.699 3.367 2.722 4.18zm11.836.429c0-2.316.957-4.492 2.797-4.492.191 0 .238 0 .335.023-.195.098-.574.243-.574.883 0 .696.547.957.93.957.48 0 .957-.308.957-.957 0-.715-.645-1.383-1.672-1.383-2.031 0-2.726 2.196-2.867 2.653h-.024v-2.653l-3.203.262v.692c1.625 0 1.817.168 1.817 1.34v6.476c0 1.074-.266 1.074-1.817 1.074v.696c.668-.051 1.985-.051 2.7-.051.644 0 2.339 0 2.89.05v-.695h-.476c-1.746 0-1.793-.261-1.793-1.12zm9.101 0c0-2.316.953-4.492 2.793-4.492.192 0 .238 0 .336.023-.191.098-.574.243-.574.883 0 .696.551.957.933.957.477 0 .958-.308.958-.957 0-.715-.649-1.383-1.676-1.383-2.032 0-2.723 2.196-2.867 2.653h-.024v-2.653l-3.203.262v.692c1.625 0 1.816.168 1.816 1.34v6.476c0 1.074-.261 1.074-1.816 1.074v.696c.672-.051 1.984-.051 2.699-.051.649 0 2.344 0 2.895.05v-.695h-.481c-1.742 0-1.789-.261-1.789-1.12zm12.371-4.707v.692c1.625 0 1.817.168 1.817 1.34v4.277c0 2.031-1.075 3.726-2.867 3.726-1.961 0-2.079-1.12-2.079-2.386v-7.91l-3.371.261v.692c1.817 0 1.817.074 1.817 2.199v3.586c0 1.48 0 2.34.718 3.129.575.62 1.555.91 2.774.91.406 0 1.168 0 1.98-.696.696-.546 1.075-1.456 1.075-1.456v2.152l3.324-.238v-.696c-1.625 0-1.817-.168-1.817-1.336v-8.507zm9.852.668h3.371v-.691h-3.371v-4.399h-.527c-.024 2.246-.883 4.543-3.059 4.614v.476h2.031v6.645c0 2.652 1.77 3.203 3.035 3.203 1.508 0 2.297-1.48 2.297-3.203v-1.364h-.527v1.317c0 1.719-.692 2.722-1.625 2.722-1.625 0-1.625-2.222-1.625-2.628zm9.098 0h3.371v-.691h-3.371v-4.399h-.524c-.023 2.246-.883 4.543-3.059 4.614v.476h2.032v6.645c0 2.652 1.769 3.203 3.035 3.203 1.504 0 2.293-1.48 2.293-3.203v-1.364h-.527v1.317c0 1.719-.692 2.722-1.625 2.722-1.625 0-1.625-2.222-1.625-2.628zm16.054 4.492c0-3.082-2.34-5.543-5.113-5.543-2.867 0-5.137 2.536-5.137 5.543 0 3.063 2.391 5.356 5.113 5.356 2.821 0 5.137-2.344 5.137-5.356m-5.113 4.828c-.883 0-1.957-.382-2.652-1.554-.645-1.074-.668-2.485-.668-3.489 0-.906 0-2.363.738-3.44a3.07 3.07 0 0 1 2.558-1.407c.934 0 1.938.43 2.583 1.36.742 1.1.742 2.605.742 3.488 0 .84 0 2.32-.625 3.44-.668 1.15-1.766 1.602-2.676 1.602m9.836-5.281c0-2.316.957-4.492 2.797-4.492.191 0 .238 0 .336.023-.192.098-.575.243-.575.883 0 .696.547.957.93.957.481 0 .957-.308.957-.957 0-.715-.644-1.383-1.672-1.383-2.031 0-2.722 2.196-2.867 2.653h-.023v-2.653l-3.203.262v.692c1.625 0 1.816.168 1.816 1.34v6.476c0 1.074-.266 1.074-1.816 1.074v.696c.668-.051 1.984-.051 2.699-.051.644 0 2.344 0 2.89.05v-.695h-.476c-1.742 0-1.793-.261-1.793-1.12zm14.262.024c.527 0 .574 0 .574-.453 0-2.414-1.289-4.66-4.184-4.66-2.722 0-4.824 2.46-4.824 5.425 0 3.153 2.437 5.473 5.09 5.473 2.844 0 3.918-2.582 3.918-3.082 0-.145-.121-.242-.262-.242-.191 0-.242.12-.285.242-.625 2.008-2.223 2.554-3.231 2.554-1 0-3.414-.667-3.414-4.804v-.453zm-6.594-.453c.191-3.75 2.293-4.18 2.961-4.18 2.558 0 2.703 3.367 2.726 4.18zm-195.219-79.61c0-.43 0-.551-.242-.551-.188 0-.641.528-.813.743-.738-.598-1.48-.743-2.242-.743-2.894 0-3.754 1.579-3.754 2.891 0 .266 0 1.102.91 1.938.762.667 1.575.835 2.676 1.05 1.313.262 1.625.336 2.223.813.43.359.738.883.738 1.554 0 1.028-.597 2.172-2.699 2.172-1.578 0-2.723-.906-3.25-3.297-.094-.429-.094-.453-.117-.476-.051-.098-.145-.098-.215-.098-.266 0-.266.121-.266.551v3.25c0 .43 0 .551.239.551.121 0 .144-.024.55-.528.121-.167.121-.214.477-.597.91 1.125 2.199 1.125 2.605 1.125 2.508 0 3.75-1.387 3.75-3.274 0-1.293-.785-2.058-1-2.269-.863-.742-1.507-.887-3.086-1.176-.714-.141-2.46-.476-2.46-1.91 0-.738.503-1.84 2.656-1.84 2.601 0 2.746 2.223 2.793 2.965.023.191.191.191.261.191.266 0 .266-.121.266-.55zm10.613 4.563c.528 0 .575 0 .575-.453 0-2.415-1.289-4.661-4.184-4.661-2.723 0-4.824 2.461-4.824 5.426 0 3.153 2.437 5.473 5.086 5.473 2.843 0 3.922-2.582 3.922-3.082 0-.145-.122-.242-.262-.242-.192 0-.242.121-.289.242-.621 2.008-2.223 2.554-3.227 2.554s-3.418-.667-3.418-4.804v-.453zm-6.597-.453c.191-3.75 2.297-4.18 2.965-4.18 2.558 0 2.699 3.367 2.722 4.18zm41.48.191c0-2.223 0-2.891-.551-3.656-.695-.934-1.816-1.075-2.629-1.075-2.316 0-3.226 1.985-3.417 2.461h-.024v-2.461l-3.25.262v.692c1.625 0 1.816.168 1.816 1.339v6.477c0 1.074-.261 1.074-1.816 1.074v.696c.621-.051 1.914-.051 2.582-.051.692 0 1.984 0 2.606.051v-.696c-1.532 0-1.817 0-1.817-1.074v-4.445c0-2.508 1.649-3.848 3.129-3.848 1.484 0 1.816 1.219 1.816 2.676v5.617c0 1.074-.261 1.074-1.816 1.074v.696c.621-.051 1.914-.051 2.582-.051.692 0 1.981 0 2.606.051v-.696c-1.196 0-1.793 0-1.817-.715zm13.332.691c0-3.082-2.34-5.543-5.113-5.543-2.867 0-5.137 2.536-5.137 5.543 0 3.063 2.391 5.356 5.113 5.356 2.821 0 5.137-2.344 5.137-5.356m-5.113 4.828c-.883 0-1.957-.382-2.652-1.554-.645-1.074-.668-2.485-.668-3.488 0-.907 0-2.364.738-3.442a3.08 3.08 0 0 1 2.558-1.406c.934 0 1.938.43 2.583 1.359.742 1.102.742 2.606.742 3.489 0 .839 0 2.32-.625 3.441-.668 1.148-1.766 1.601-2.676 1.601m16.48-5.519c0-2.223 0-2.891-.55-3.656-.692-.934-1.817-1.075-2.629-1.075-2.317 0-3.227 1.985-3.414 2.461h-.028v-2.461l-3.25.262v.692c1.625 0 1.817.168 1.817 1.339v6.477c0 1.074-.262 1.074-1.817 1.074v.696c.621-.051 1.914-.051 2.582-.051.696 0 1.985 0 2.606.051v-.696c-1.531 0-1.817 0-1.817-1.074v-4.445c0-2.508 1.649-3.848 3.129-3.848 1.485 0 1.817 1.219 1.817 2.676v5.617c0 1.074-.262 1.074-1.817 1.074v.696c.621-.051 1.914-.051 2.582-.051.696 0 1.985 0 2.606.051v-.696c-1.196 0-1.793 0-1.817-.715zm29.477-10.777-3.32.261v.696c1.625 0 1.812.168 1.812 1.336v12.523c0 1.074-.262 1.074-1.812 1.074v.696c.668-.051 1.836-.051 2.554-.051.719 0 1.914 0 2.582.051v-.696c-1.531 0-1.816 0-1.816-1.074zm9.652 6.308v.692c1.625 0 1.817.168 1.817 1.339v4.278c0 2.031-1.075 3.726-2.867 3.726-1.961 0-2.079-1.121-2.079-2.386v-7.911l-3.371.262v.692c1.817 0 1.817.074 1.817 2.199v3.586c0 1.48 0 2.34.718 3.129.575.621 1.555.91 2.774.91.406 0 1.168 0 1.98-.695.696-.547 1.075-1.458 1.075-1.458v2.153l3.324-.238v-.696c-1.625 0-1.817-.168-1.817-1.336v-8.508zm14.387 1.434c-.285 0-1.172 0-1.172.98 0 .574.406.981.981.981.55 0 1.004-.336 1.004-1.028 0-1.601-1.672-2.75-3.61-2.75-2.793 0-5.015 2.485-5.015 5.496 0 3.059 2.292 5.403 4.992 5.403 3.156 0 3.871-2.867 3.871-3.082 0-.219-.168-.219-.238-.219-.215 0-.239.074-.309.359-.527 1.7-1.816 2.414-3.109 2.414-1.457 0-3.391-1.265-3.391-4.898 0-3.969 2.031-4.945 3.223-4.945.91 0 2.226.359 2.773 1.289m10.902 3.297c.528 0 .575 0 .575-.453 0-2.415-1.289-4.661-4.184-4.661-2.723 0-4.824 2.461-4.824 5.426 0 3.153 2.437 5.473 5.086 5.473 2.843 0 3.922-2.582 3.922-3.082 0-.145-.122-.242-.262-.242-.192 0-.242.121-.289.242-.621 2.008-2.223 2.554-3.227 2.554s-3.418-.667-3.418-4.804v-.453zm-6.597-.453c.191-3.75 2.297-4.18 2.965-4.18 2.558 0 2.699 3.367 2.722 4.18zm24.867-.383c0-1.289 0-2.246-1.051-3.18-.836-.762-1.91-1.098-2.961-1.098-1.961 0-3.465 1.293-3.465 2.844 0 .692.453 1.027 1.004 1.027.574 0 .981-.406.981-.98 0-.98-.864-.98-1.219-.98.547-1 1.695-1.43 2.648-1.43 1.102 0 2.512.906 2.512 3.055v.957c-4.805.074-6.617 2.082-6.617 3.918 0 1.89 2.195 2.488 3.652 2.488 1.578 0 2.657-.957 3.11-2.106.093 1.125.836 1.985 1.863 1.985.5 0 1.887-.336 1.887-2.246v-1.34h-.524v1.34c0 1.363-.574 1.554-.91 1.554-.91 0-.91-1.269-.91-1.625zm-1.551 3.011c0 2.34-1.742 3.129-2.773 3.129-1.168 0-2.149-.859-2.149-2.007 0-3.153 4.063-3.442 4.922-3.489zm12.68-5.472c-.285 0-1.172 0-1.172.98 0 .574.406.981.98.981.551 0 1.004-.336 1.004-1.028 0-1.601-1.672-2.75-3.609-2.75-2.793 0-5.02 2.485-5.02 5.496 0 3.059 2.297 5.403 4.996 5.403 3.157 0 3.872-2.867 3.872-3.082 0-.219-.168-.219-.239-.219-.215 0-.242.074-.308.359-.528 1.7-1.821 2.414-3.11 2.414-1.457 0-3.39-1.265-3.39-4.898 0-3.969 2.031-4.945 3.222-4.945.911 0 2.227.359 2.774 1.289m10.398 0c-.285 0-1.168 0-1.168.98 0 .574.407.981.977.981.551 0 1.004-.336 1.004-1.028 0-1.601-1.672-2.75-3.606-2.75-2.797 0-5.019 2.485-5.019 5.496 0 3.059 2.293 5.403 4.996 5.403 3.152 0 3.871-2.867 3.871-3.082 0-.219-.168-.219-.242-.219-.215 0-.239.074-.309.359-.527 1.7-1.816 2.414-3.109 2.414-1.457 0-3.391-1.265-3.391-4.898 0-3.969 2.031-4.945 3.227-4.945.906 0 2.222.359 2.769 1.289m10.903 3.297c.527 0 .574 0 .574-.453 0-2.415-1.289-4.661-4.184-4.661-2.722 0-4.824 2.461-4.824 5.426 0 3.153 2.437 5.473 5.09 5.473 2.844 0 3.918-2.582 3.918-3.082 0-.145-.121-.242-.262-.242-.191 0-.242.121-.285.242-.625 2.008-2.223 2.554-3.231 2.554-1 0-3.414-.667-3.414-4.804v-.453zm-6.594-.453c.191-3.75 2.293-4.18 2.961-4.18 2.558 0 2.703 3.367 2.726 4.18zm15.68-4.11c0-.43 0-.551-.239-.551-.191 0-.644.528-.812.743-.742-.598-1.481-.743-2.246-.743-2.895 0-3.75 1.579-3.75 2.891 0 .266 0 1.102.906 1.938.766.667 1.574.835 2.676 1.05 1.316.262 1.625.336 2.222.813.43.359.743.883.743 1.554 0 1.028-.598 2.172-2.704 2.172-1.574 0-2.722-.906-3.25-3.297-.093-.429-.093-.453-.117-.476-.047-.098-.144-.098-.215-.098-.261 0-.261.121-.261.551v3.25c0 .43 0 .551.238.551.117 0 .141-.024.547-.528.121-.167.121-.214.48-.597.907 1.125 2.196 1.125 2.602 1.125 2.512 0 3.754-1.387 3.754-3.274 0-1.293-.789-2.058-1.004-2.269-.86-.742-1.504-.887-3.082-1.176-.719-.141-2.461-.476-2.461-1.91 0-.738.5-1.84 2.652-1.84 2.606 0 2.746 2.223 2.797 2.965.024.191.188.191.262.191.262 0 .262-.121.262-.55zm10.585 3.727c0-1.289 0-2.246-1.05-3.18-.836-.762-1.91-1.098-2.965-1.098-1.957 0-3.465 1.293-3.465 2.844 0 .692.453 1.027 1.004 1.027.574 0 .98-.406.98-.98 0-.98-.859-.98-1.218-.98.55-1 1.699-1.43 2.652-1.43 1.102 0 2.508.906 2.508 3.055v.957c-4.801.074-6.617 2.082-6.617 3.918 0 1.89 2.199 2.488 3.656 2.488 1.578 0 2.652-.957 3.105-2.106.098 1.125.836 1.985 1.864 1.985.503 0 1.89-.336 1.89-2.246v-1.34h-.527v1.34c0 1.363-.574 1.554-.906 1.554-.911 0-.911-1.269-.911-1.625zm-1.554 3.011c0 2.34-1.742 3.129-2.77 3.129-1.172 0-2.152-.859-2.152-2.007 0-3.153 4.062-3.442 4.922-3.489zm39.64-6.238h2.704v-.691h-2.75v-2.797c0-2.149 1.097-3.25 2.078-3.25.191 0 .55.051.836.191-.094.024-.692.239-.692.934 0 .551.383.93.934.93.574 0 .953-.379.953-.954 0-.886-.859-1.578-2.004-1.578-1.676 0-3.563 1.289-3.563 3.727v2.797h-1.863v.691h1.863v7.84c0 1.074-.261 1.074-1.816 1.074v.696c.668-.051 1.984-.051 2.699-.051.645 0 2.344 0 2.891.051v-.696h-.477c-1.746 0-1.793-.261-1.793-1.121zm12.313 3.227c0-1.289 0-2.246-1.051-3.18-.836-.762-1.91-1.098-2.961-1.098-1.961 0-3.465 1.293-3.465 2.844 0 .692.453 1.027 1.004 1.027.574 0 .981-.406.981-.98 0-.98-.864-.98-1.219-.98.547-1 1.695-1.43 2.648-1.43 1.102 0 2.512.906 2.512 3.055v.957c-4.805.074-6.617 2.082-6.617 3.918 0 1.89 2.195 2.488 3.652 2.488 1.578 0 2.657-.957 3.11-2.106.093 1.125.836 1.985 1.863 1.985.5 0 1.887-.336 1.887-2.246v-1.34h-.524v1.34c0 1.363-.574 1.554-.91 1.554-.91 0-.91-1.269-.91-1.625zm-1.551 3.011c0 2.34-1.742 3.129-2.773 3.129-1.168 0-2.149-.859-2.149-2.007 0-3.153 4.063-3.442 4.922-3.489zm8.188-11.351c0-.621-.504-1.168-1.172-1.168-.621 0-1.145.5-1.145 1.144 0 .715.571 1.172 1.145 1.172.742 0 1.172-.621 1.172-1.148m-3.297 4.445v.692c1.527 0 1.742.144 1.742 1.316v6.5c0 1.074-.262 1.074-1.816 1.074v.696c.671-.051 1.816-.051 2.511-.051.262 0 1.649 0 2.461.051v-.696c-1.555 0-1.648-.121-1.648-1.051v-8.793zm10.035 1.121c0-.64-.551-1.144-1.149-1.144-.691 0-1.168.551-1.168 1.144 0 .719.598 1.172 1.149 1.172.644 0 1.168-.5 1.168-1.172m0 7.985c0-.645-.551-1.149-1.149-1.149-.691 0-1.168.551-1.168 1.149a1.17 1.17 0 0 0 1.149 1.172c.644 0 1.168-.504 1.168-1.172m-272.606-99.313-3.324.262v.691c1.625 0 1.821.168 1.821 1.34v14.289h.523c.094-.191.766-1.387.859-1.551.551.883 1.578 1.789 3.11 1.789 2.746 0 5.16-2.316 5.16-5.398 0-3.035-2.246-5.379-4.899-5.379-1.312 0-2.437.598-3.25 1.602zm.047 8.938c0-.434 0-.481.266-.864.57-.859 1.625-1.55 2.793-1.55.719 0 3.226.285 3.226 4.875 0 1.601-.238 2.601-.812 3.464-.477.739-1.434 1.481-2.629 1.481-1.289 0-2.129-.836-2.535-1.481-.309-.503-.309-.597-.309-1.003zm13.075-8.938-3.325.262v.691c1.625 0 1.817.168 1.817 1.34v12.52c0 1.078-.262 1.078-1.817 1.078v.691c.668-.047 1.84-.047 2.559-.047.715 0 1.91 0 2.582.047v-.691c-1.531 0-1.816 0-1.816-1.078zm13.355 11.469c0-3.082-2.34-5.543-5.113-5.543-2.867 0-5.137 2.531-5.137 5.543 0 3.059 2.387 5.351 5.113 5.351 2.821 0 5.137-2.339 5.137-5.351m-5.113 4.824c-.883 0-1.961-.379-2.653-1.551-.644-1.074-.668-2.484-.668-3.488 0-.91 0-2.367.739-3.441a3.06 3.06 0 0 1 2.558-1.41c.934 0 1.938.429 2.578 1.363.743 1.097.743 2.605.743 3.488 0 .836 0 2.316-.622 3.441-.667 1.149-1.765 1.598-2.675 1.598m15.195-8.551c-.285 0-1.172 0-1.172.977 0 .574.406.98.981.98.55 0 1.004-.332 1.004-1.027 0-1.602-1.672-2.746-3.61-2.746-2.793 0-5.015 2.484-5.015 5.496 0 3.059 2.292 5.398 4.992 5.398 3.156 0 3.871-2.867 3.871-3.082s-.168-.214-.238-.214c-.215 0-.239.07-.309.359-.527 1.695-1.816 2.41-3.109 2.41-1.457 0-3.391-1.262-3.391-4.894 0-3.969 2.031-4.95 3.223-4.95.91 0 2.226.36 2.773 1.293m10.398 0c-.285 0-1.168 0-1.168.977 0 .574.407.98.981.98.547 0 1.004-.332 1.004-1.027 0-1.602-1.676-2.746-3.61-2.746-2.796 0-5.019 2.484-5.019 5.496 0 3.059 2.293 5.398 4.996 5.398 3.152 0 3.871-2.867 3.871-3.082s-.168-.214-.238-.214c-.219 0-.242.07-.313.359-.523 1.695-1.816 2.41-3.105 2.41-1.457 0-3.395-1.262-3.395-4.894 0-3.969 2.032-4.95 3.227-4.95.906 0 2.223.36 2.769 1.293m12.719 3.727c0-3.082-2.34-5.543-5.113-5.543-2.867 0-5.137 2.531-5.137 5.543 0 3.059 2.391 5.351 5.113 5.351 2.821 0 5.137-2.339 5.137-5.351m-5.113 4.824c-.883 0-1.957-.379-2.652-1.551-.645-1.074-.668-2.484-.668-3.488 0-.91 0-2.367.738-3.441a3.07 3.07 0 0 1 2.558-1.41c.934 0 1.938.429 2.583 1.363.742 1.097.742 2.605.742 3.488 0 .836 0 2.316-.625 3.441-.668 1.149-1.766 1.598-2.676 1.598m16.707-13.402a7 7 0 0 0 2.125.359c2.699 0 4.422-1.984 4.422-2.32 0-.094-.047-.215-.192-.215-.05 0-.097 0-.312.098a7.8 7.8 0 0 1-3.106.644c-1.578 0-2.699-.48-3.156-.668-.164-.074-.215-.074-.238-.074-.191 0-.191.145-.191.527v7.098c0 .43 0 .574.289.574.117 0 .14-.027.382-.312a3.6 3.6 0 0 1 2.985-1.555c1.265 0 1.89 1.172 2.078 1.578.406.934.433 2.102.433 3.012 0 .906 0 2.269-.671 3.344-.524.863-1.457 1.457-2.508 1.457a3.69 3.69 0 0 1-3.559-2.817c.117.047.262.071.379.071.406 0 1.051-.239 1.051-1.051 0-.672-.453-1.051-1.051-1.051-.43 0-1.051.215-1.051 1.145 0 2.031 1.625 4.351 4.278 4.351 2.699 0 5.066-2.273 5.066-5.305 0-2.843-1.91-5.211-4.422-5.211-1.359 0-2.414.598-3.031 1.266z"/></g></svg>