<svg xmlns="http://www.w3.org/2000/svg" width="668" height="676" viewBox="0 -507 501 507"><g id="page1"><path fill="#cc9c6f" d="M69.61-360.766a2570 2570 0 0 0 182.476-41.851 2570 2570 0 0 0 178.949-54.992l-4.402-16.426a2568 2568 0 0 0-182.473 41.847 2571 2571 0 0 0-178.95 54.993z"/><path fill="none" stroke="#000" stroke-linecap="round" stroke-linejoin="round" stroke-width="2" d="M69.61-360.766a2570 2570 0 0 0 182.476-41.851 2570 2570 0 0 0 178.949-54.992l-4.402-16.426a2568 2568 0 0 0-182.473 41.847 2571 2571 0 0 0-178.95 54.993z"/><path fill="#fff" d="M91.707-373.672c0-3.129-2.535-5.668-5.668-5.668s-5.668 2.539-5.668 5.668c0 3.133 2.535 5.668 5.668 5.668s5.668-2.535 5.668-5.668"/><path fill="none" stroke="#000" stroke-linecap="round" stroke-linejoin="round" stroke-width="2" d="M91.707-373.672c0-3.129-2.535-5.668-5.668-5.668s-5.668 2.539-5.668 5.668c0 3.133 2.535 5.668 5.668 5.668s5.668-2.535 5.668-5.668"/><path fill="#fff" d="M420.273-461.711a5.665 5.665 0 0 0-5.668-5.668c-3.128 0-5.667 2.535-5.667 5.668s2.539 5.668 5.667 5.668a5.665 5.665 0 0 0 5.668-5.668"/><path fill="none" stroke="#000" stroke-linecap="round" stroke-linejoin="round" stroke-width="2" d="M420.273-461.711a5.665 5.665 0 0 0-5.668-5.668c-3.128 0-5.667 2.535-5.667 5.668s2.539 5.668 5.667 5.668a5.665 5.665 0 0 0 5.668-5.668"/><path fill="#cc9c6f" d="M236.148-29.344h28.348v-425.195h-28.348Z"/><path fill="none" stroke="#000" stroke-linecap="round" stroke-linejoin="round" stroke-width="2" d="M236.148-29.344h28.348v-425.199h-28.348z"/><path fill="#cc9c6f" d="M257.41-417.691a7.089 7.089 0 0 0-14.176 0 7.089 7.089 0 0 0 14.176 0"/><path fill="none" stroke="#000" stroke-linecap="round" stroke-linejoin="round" stroke-width="2" d="M257.41-417.691a7.089 7.089 0 0 0-14.176 0 7.089 7.089 0 0 0 14.176 0"/><path fill="#cc9c6f" d="M253.156-454.543a20.54 20.54 0 0 0 0-28.344h-5.668c-3.64 3.821-5.668 8.895-5.668 14.172s2.028 10.352 5.668 14.172z"/><path fill="none" stroke="#000" stroke-linecap="round" stroke-linejoin="round" stroke-width="2" d="M253.156-454.543a20.54 20.54 0 0 0 0-28.344h-5.668c-3.64 3.821-5.668 8.895-5.668 14.172s2.028 10.352 5.668 14.172z"/><path fill="#cc9c6f" d="M261.66-494.227c0-6.261-5.074-11.339-11.336-11.339-6.261 0-11.34 5.078-11.34 11.339s5.079 11.34 11.34 11.34 11.336-5.078 11.336-11.34"/><path fill="none" stroke="#000" stroke-linecap="round" stroke-linejoin="round" stroke-width="2" d="M261.66-494.227c0-6.261-5.074-11.339-11.336-11.339-6.261 0-11.34 5.078-11.34 11.339s5.079 11.34 11.34 11.34 11.336-5.078 11.336-11.34"/><path fill="#cc9c6f" d="M292.844-1c-13.692 0-22.68-13.621-22.68-28.344H230.48C230.48-14.62 221.492-1 207.805-1z"/><path fill="none" stroke="#000" stroke-linecap="round" stroke-linejoin="round" stroke-width="2" d="M292.844-1c-13.692 0-22.68-13.621-22.68-28.344H230.48C230.48-14.62 221.492-1 207.805-1z"/><path fill="#d3ae37" d="M171.078-127.059c0-15.652-38.074-28.343-85.039-28.343S1-142.711 1-127.059c0 15.657 38.074 28.348 85.04 28.348s85.038-12.691 85.038-28.348"/><path fill="none" stroke="#000" stroke-linecap="round" stroke-linejoin="round" stroke-width="2" d="M171.078-127.059c0-15.652-38.074-28.343-85.039-28.343S1-142.711 1-127.059c0 15.657 38.074 28.348 85.04 28.348s85.038-12.691 85.038-28.348M86.04-353.828l80.702 217.812M86.04-353.828 59.16-153.961m26.88-199.867L10.491-114.031M86.04-353.828v-19.844"/><path fill="#79ac14" d="M110.934-193.246c4.218-7.289 9.972-15.727 14.191-21.098 0-1.535-.383-3.066-.383-4.984-1.535-7.676-8.054-13.426-14.961-12.277-6.902 1.152-11.504 8.441-9.972 16.496.386 3.449 3.07 11.507 6.136 19.562 1.535.383 3.453 1.149 4.989 2.301"/><path fill="none" stroke="#000" stroke-linecap="round" stroke-linejoin="round" stroke-width="4.871" d="M110.934-193.246c4.218-7.289 9.972-15.727 14.191-21.098 0-1.535-.383-3.066-.383-4.984-1.535-7.676-8.054-13.426-14.961-12.277-6.902 1.152-11.504 8.441-9.972 16.496.386 3.449 3.07 11.507 6.136 19.562 1.535.383 3.453 1.149 4.989 2.301"/><path fill="#79ac14" d="M121.289-182.891c7.289-4.218 15.727-9.972 21.098-14.191 1.535 0 3.066.383 4.984.383 7.676 1.535 13.426 8.054 12.277 14.961-1.152 6.902-8.437 11.121-16.496 9.972-3.449-.382-11.507-3.07-19.562-6.136-.383-1.536-1.149-3.453-2.301-4.989"/><path fill="none" stroke="#000" stroke-linecap="round" stroke-linejoin="round" stroke-width="4.871" d="M121.289-182.891c7.289-4.218 15.727-9.972 21.098-14.191 1.535 0 3.066.383 4.984.383 7.676 1.535 13.426 8.054 12.277 14.961-1.152 6.902-8.437 11.121-16.496 9.972-3.449-.382-11.507-3.07-19.562-6.136-.383-1.536-1.149-3.453-2.301-4.989"/><path fill="#a4cd34" d="M116.688-188.645q2.877 2.304 4.601 5.754c9.59-4.988 21.481-13.808 24.934-17.261 5.754-5.754 6.136-14.192 1.148-19.176-4.601-4.988-13.422-4.223-19.176 1.148-3.453 3.453-11.89 15.344-17.261 24.934q3.45 1.723 5.754 4.601"/><path fill="none" stroke="#000" stroke-linecap="round" stroke-linejoin="round" stroke-width="4.871" d="M116.688-188.645q2.877 2.304 4.601 5.754c9.59-4.988 21.481-13.808 24.934-17.261 5.754-5.754 6.136-14.192 1.148-19.176-4.601-4.988-13.422-4.223-19.176 1.148-3.453 3.453-11.89 15.344-17.261 24.934q3.45 1.723 5.754 4.601"/><path fill="#f94616" d="M116.688-188.645c-11.891-11.89-31.454-11.125-43.727 1.536C53.78-167.93 9.668-110.012 23.863-95.82c14.192 14.191 72.11-29.918 91.289-49.094 12.661-12.66 13.426-31.84 1.536-43.731"/><path fill="#d43b13" d="M116.688-188.645c4.988 11.125 2.3 25.317-7.29 34.907-18.027 18.027-70.191 57.535-88.222 51.015 0 3.067.77 5.371 2.687 6.903 14.192 14.191 72.11-29.918 91.289-49.094 12.661-12.277 13.426-31.84 1.536-43.731"/><path fill="none" stroke="#bf0000" stroke-linecap="round" stroke-linejoin="round" stroke-width="4.871" d="M112.852-142.23s-11.508-3.836-23.016-15.344m-22.629 12.273s-7.289-6.519-14.96-17.262m44.495 33.758s-9.59-2.687-15.726-8.824m3.066 18.027s-9.973-1.918-20.328-12.273M37.29-139.93s4.218 8.055 12.655 14.957m14.192-52.547s2.3 6.903 8.824 13.426M39.59-107.711s5.37 6.137 11.89 8.824"/><path fill="none" stroke="#000" stroke-linecap="round" stroke-linejoin="round" stroke-width="4.871" d="m134.332-206.289-17.644 17.644m-3.836-24.546 2.3 13.039m26.082 15.343-13.039-2.3m-11.507-1.536c-11.891-11.89-31.454-11.125-43.727 1.536C53.78-167.93 9.668-110.012 23.863-95.82c14.192 14.191 72.11-29.918 91.289-49.094 12.661-12.66 13.426-31.84 1.536-43.731"/><path fill="#bc9a16" d="M1-127.059c0 36.18 43.398 49.61 85.04 49.61 41.644 0 85.038-13.43 85.038-49.61 0 15.657-38.074 28.348-85.039 28.348S1-111.402 1-127.059"/><path fill="none" stroke="#000" stroke-linecap="round" stroke-linejoin="round" stroke-width="2" d="M1-127.059c0 36.18 43.398 49.61 85.04 49.61 41.644 0 85.038-13.43 85.038-49.61 0 15.657-38.074 28.348-85.039 28.348S1-111.402 1-127.059"/><path fill="#d3ae37" d="M499.645-215.098c0-15.656-38.075-28.343-85.04-28.343-46.964 0-85.039 12.687-85.039 28.343s38.075 28.348 85.039 28.348c46.965 0 85.04-12.691 85.04-28.348"/><path fill="none" stroke="#000" stroke-linecap="round" stroke-linejoin="round" stroke-width="2" d="M499.645-215.098c0-15.656-38.075-28.343-85.04-28.343-46.964 0-85.039 12.687-85.039 28.343s38.075 28.348 85.039 28.348c46.965 0 85.04-12.691 85.04-28.348m-85.04-226.769 80.704 217.812m-80.704-217.812-26.878 199.871m26.878-199.871L339.059-202.07m75.546-239.797v-19.844"/><path fill="#79ac14" d="M440.961-246.766c2.434-4.207 5.758-9.078 8.191-12.179 0-.887-.218-1.77-.218-2.879-.887-4.43-4.653-7.75-8.637-7.086-3.988.664-6.645 4.871-5.758 9.523.219 1.992 1.77 6.645 3.543 11.293.883.223 1.992.664 2.879 1.328"/><path fill="none" stroke="#000" stroke-linecap="round" stroke-linejoin="round" stroke-width="2.813" d="M440.961-246.766c2.434-4.207 5.758-9.078 8.191-12.179 0-.887-.218-1.77-.218-2.879-.887-4.43-4.653-7.75-8.637-7.086-3.988.664-6.645 4.871-5.758 9.523.219 1.992 1.77 6.645 3.543 11.293.883.223 1.992.664 2.879 1.328"/><path fill="#79ac14" d="M446.938-240.785c4.207-2.438 9.082-5.758 12.179-8.195.887 0 1.774.222 2.879.222 4.43.887 7.754 4.653 7.09 8.637s-4.871 6.422-9.523 5.758c-1.993-.223-6.645-1.774-11.293-3.543-.223-.887-.665-1.992-1.332-2.879"/><path fill="none" stroke="#000" stroke-linecap="round" stroke-linejoin="round" stroke-width="2.813" d="M446.938-240.785c4.207-2.438 9.082-5.758 12.179-8.195.887 0 1.774.222 2.879.222 4.43.887 7.754 4.653 7.09 8.637s-4.871 6.422-9.523 5.758c-1.993-.223-6.645-1.774-11.293-3.543-.223-.887-.665-1.992-1.332-2.879"/><path fill="#a4cd34" d="M444.281-244.105c1.11.882 1.992 1.992 2.657 3.32 5.539-2.879 12.402-7.973 14.398-9.965 3.32-3.324 3.543-8.195.66-11.074-2.656-2.879-7.75-2.438-11.07.664-1.992 1.996-6.867 8.859-9.965 14.394a9.8 9.8 0 0 1 3.32 2.661"/><path fill="none" stroke="#000" stroke-linecap="round" stroke-linejoin="round" stroke-width="2.813" d="M444.281-244.105c1.11.882 1.992 1.992 2.657 3.32 5.539-2.879 12.402-7.973 14.398-9.965 3.32-3.324 3.543-8.195.66-11.074-2.656-2.879-7.75-2.438-11.07.664-1.992 1.996-6.867 8.859-9.965 14.394a9.8 9.8 0 0 1 3.32 2.661"/><path fill="#f94616" d="M444.281-244.105c-6.863-6.868-18.16-6.422-25.246.882-11.07 11.075-36.539 44.512-28.347 52.707 8.195 8.196 41.636-17.273 52.707-28.343 7.308-7.309 7.75-18.383.886-25.246"/><path fill="#d43b13" d="M444.281-244.105c2.879 6.421 1.328 14.613-4.207 20.152-10.41 10.406-40.527 33.219-50.933 29.453 0 1.77.441 3.102 1.547 3.984 8.195 8.196 41.636-17.273 52.707-28.343 7.308-7.09 7.75-18.383.886-25.246"/><path fill="none" stroke="#bf0000" stroke-linecap="round" stroke-linejoin="round" stroke-width="2.813" d="M442.066-217.313s-6.644-2.21-13.285-8.855m-13.066 7.086s-4.207-3.766-8.637-9.965m25.688 19.488s-5.536-1.55-9.078-5.093m1.769 10.406s-5.758-1.106-11.738-7.086m-15.278-4.648s2.434 4.648 7.305 8.636m8.195-30.34s1.329 3.985 5.094 7.75m-19.265 32.555s3.097 3.543 6.863 5.094"/><path fill="none" stroke="#000" stroke-linecap="round" stroke-linejoin="round" stroke-width="2.813" d="m454.469-254.293-10.188 10.188m-2.215-14.176 1.329 7.531m15.058 8.855-7.527-1.328m-6.645-.882c-6.863-6.868-18.16-6.422-25.246.882-11.07 11.075-36.539 44.512-28.347 52.707 8.195 8.196 41.636-17.273 52.707-28.343 7.308-7.309 7.75-18.383.886-25.246"/><path fill="#bc9a16" d="M329.566-215.098c0 36.18 43.399 49.61 85.039 49.61 41.645 0 85.04-13.43 85.04-49.61 0 15.657-38.075 28.348-85.04 28.348-46.964 0-85.039-12.691-85.039-28.348"/><path fill="none" stroke="#000" stroke-linecap="round" stroke-linejoin="round" stroke-width="2" d="M329.566-215.098c0 36.18 43.399 49.61 85.039 49.61 41.645 0 85.04-13.43 85.04-49.61 0 15.657-38.075 28.348-85.04 28.348-46.964 0-85.039-12.691-85.039-28.348"/><path fill="#fff" d="M62.156-138.18c3.805-3.804 8.16-2.816 10.133-.843 2.414 2.418 2.563 6.808-.66 10.027-3.656 3.656-7.277 3.328-7.79 2.816a.37.37 0 0 1-.108-.258c-.114-.402-.294-.804-.622-1.132-.77-.77-2.05-.875-2.93 0-.765.769-1.023 1.976.11 3.109 3.184 3.184 9 2.051 13.461-2.41 4.613-4.613 4.43-11.016.957-14.492-1.867-1.864-5.488-3.442-10.098-1.61.844-3.621-.363-6.808-2.265-8.707-2.742-2.746-7.867-2.379-11.817 1.571-4.062 4.062-5.16 8.671-2.453 11.379 1.207 1.207 2.489.66 3.074.074.657-.657.95-1.977-.039-2.961-.586-.586-1.203-.625-1.242-.66-.289-2.489 2.16-5.086 2.781-5.707 2.489-2.493 5.637-3.004 7.356-1.282 1.059 1.059 3.398 4.793-.188 8.891-1.28 1.426-1.793 2.086-1.937 2.23-.66.805-.367 1.465.144 1.977 1.063 1.063 1.829.297 2.454-.328zm21.438-18.066.219-8.856 1.097-1.101c.512-.512 1.465-1.461.403-2.524-1.06-1.058-2.008-.109-2.524.403l-5.34 5.344c-.511.511-1.5 1.5-.441 2.558 1.062 1.063 2.047.074 2.562-.437l1.278-1.282-.293 11.563-12.836-12.844c-1.137-1.133-1.723-1.277-2.965-.035l-2.23 2.23c-.516.512-1.5 1.5-.442 2.563 1.063 1.062 2.05.074 2.562-.438l1.645-1.648 18.105 18.113-1.648 1.645c-.512.515-1.5 1.5-.437 2.562 1.058 1.063 2.047.075 2.558-.437l5.344-5.344c.512-.512 1.5-1.5.437-2.562-1.058-1.059-2.046-.071-2.558.441l-1.649 1.644-3.07-3.07.145-5.562 10.132 1.425c-1.167 1.172-2.046 2.051-.984 3.11 1.059 1.062 2.047.074 2.559-.438l4.097-4.097c.512-.512 1.465-1.465.403-2.524-1.059-1.062-2.012-.109-2.524.399l-.988.992zm22.625-8.336c-.438.437-2.121 2.121-4.098.144-.691-.695-.73-.953-.875-1.39 1.242-.219 2.926-.953 4.246-2.27 3.328-3.328 3.219-8.558.074-11.707-.914-.914-2.269-1.828-4.242-2.269.438-1.465 1.207-2.449 1.719-3.035 1.355.914 2.449-.11 2.488-.149.438-.437 1.059-1.644-.039-2.742-.695-.695-2.449-1.355-4.496.695-.66.657-2.16 2.45-2.488 5.196-2.051.367-3.586 1.316-4.614 2.343-3.328 3.328-3.218 8.559-.074 11.707a8.1 8.1 0 0 0 4.72 2.305 6.77 6.77 0 0 0 1.753 3.363c1.281 1.282 2.926 1.688 3.551 1.723-.918 3.109.328 5.816 1.754 7.246 3.035 3.035 9.035 1.645 13.679-3.004 4.649-4.644 6.075-10.609 3.004-13.683-5.265-5.27-11.742 1.211-12.949 2.414zm-2.778-5.563c-1.828 1.829-5.085 1.868-7.242-.293-2.16-2.156-2.082-5.453-.293-7.246 1.942-1.937 5.196-1.828 7.282.258 2.085 2.086 2.195 5.34.253 7.281m13.789 11.672c-3.585 3.586-7.863 4.645-9.546 2.965-.551-.551-1.649-2.015-1.137-4.211.297-1.39.66-1.754 3.187-4.277 3.219-3.223 7.243-7.246 10.461-4.027 1.684 1.683.621 5.964-2.965 9.55m290.61-63.441c-.32-.32-.867-.867-1.481-.254-.359.359-.296.676-.148 1.074.508 1.313.93 3.129-.109 4.332-.293.34-.696.824-.149 1.375.36.36.828.399 1.289-.066 1.184-1.18 1.203-2.977 1.227-3.082l9.054 9.062-1.855 1.86c-.297.293-.867.867-.258 1.476.613.614 1.184.043 1.481-.254l5.089-5.089c.297-.297.868-.868.254-1.481-.613-.609-1.179-.043-1.476.258l-1.86 1.855zm17.332-3.527.133-5.114.633-.633c.292-.296.843-.843.234-1.457-.613-.613-1.164-.062-1.457.231l-3.086 3.086c-.297.297-.867.863-.254 1.476.609.614 1.18.043 1.477-.25l.742-.742-.172 6.672-7.41-7.414c-.653-.652-.992-.734-1.711-.019l-1.289 1.289c-.293.296-.864.867-.254 1.476.613.613 1.183.043 1.48-.25l.95-.949 10.449 10.453-.949.953c-.297.293-.868.863-.258 1.477.613.613 1.183.043 1.48-.254l3.082-3.082c.297-.297.867-.867.254-1.481-.609-.613-1.18-.043-1.476.254l-.95.949-1.773-1.773.086-3.211 5.847.824c-.675.676-1.183 1.184-.57 1.797.613.61 1.184.039 1.477-.254l2.367-2.367c.293-.293.844-.844.23-1.457-.609-.613-1.16-.062-1.453.234l-.57.571zm13.055-4.762c-.254.254-1.227 1.226-2.368.086-.398-.399-.421-.551-.504-.805.715-.125 1.688-.547 2.45-1.308 1.922-1.922 1.859-4.942.047-6.758-.532-.528-1.309-1.059-2.454-1.309a4.7 4.7 0 0 1 .993-1.754c.785.528 1.418-.066 1.437-.086.254-.254.613-.949-.019-1.582-.403-.402-1.414-.785-2.598.399a5.22 5.22 0 0 0-1.438 3c-1.179.211-2.07.761-2.66 1.351-1.922 1.922-1.859 4.946-.043 6.762a4.66 4.66 0 0 0 2.723 1.328 3.94 3.94 0 0 0 1.012 1.945c.738.739 1.687.969 2.047.993a4.26 4.26 0 0 0 1.011 4.183c1.754 1.75 5.215.949 7.899-1.734 2.683-2.68 3.508-6.125 1.734-7.899-3.039-3.043-6.777.696-7.473 1.395zm-1.606-3.211c-1.055 1.059-2.933 1.078-4.18-.168s-1.203-3.148-.168-4.184c1.122-1.117 3-1.054 4.204.149s1.265 3.086.144 4.203m7.957 6.742c-2.07 2.07-4.535 2.68-5.508 1.707a2.55 2.55 0 0 1-.656-2.426c.168-.804.379-1.015 1.84-2.472 1.855-1.86 4.18-4.184 6.039-2.325.973.973.355 3.446-1.715 5.516"/></g></svg>