<svg xmlns="http://www.w3.org/2000/svg" width="868" height="46pt" viewBox="0 -46 651 46"><g id="page1"><path fill="none" stroke="#000" stroke-linecap="round" stroke-linejoin="round" d="M.5-.504h649.629M.5-44.746h649.629M.5-.504v-44.242M46.902-.504v-44.242M93.305-.504v-44.242M139.707-.504v-44.242M186.109-.504v-44.242M232.508-.504v-44.242M278.91-.504v-44.242M325.313-.504v-44.242M371.715-.504v-44.242M418.117-.504v-44.242M464.52-.504v-44.242M510.922-.504v-44.242M557.324-.504v-44.242M603.727-.504v-44.242M650.129-.504v-44.242"/><path d="M29.152-31.441v-.547h-5.761c-2.891 0-2.938-.313-3.035-.766h-.524l-.742 4.777h.527c.07-.43.285-1.91.598-2.171.191-.145 1.98-.145 2.316-.145h5.067l-2.535 3.633c-.645.933-3.055 4.851-3.055 9.344 0 .261 0 1.218.976 1.218 1.004 0 1.004-.933 1.004-1.242v-1.195c0-3.563.575-6.332 1.7-7.934zm45.661 10.828h-.524c-.07.406-.262 1.718-.5 2.101-.168.215-1.531.215-2.25.215h-4.418c.645-.55 2.102-2.078 2.723-2.652 3.633-3.348 4.969-4.59 4.969-6.953 0-2.75-2.172-4.59-4.946-4.59s-4.398 2.367-4.398 4.422c0 1.218 1.054 1.218 1.125 1.218.5 0 1.125-.359 1.125-1.125 0-.668-.457-1.12-1.125-1.12-.215 0-.262 0-.336.023.457-1.625 1.746-2.723 3.3-2.723 2.032 0 3.274 1.695 3.274 3.895 0 2.03-1.172 3.8-2.535 5.328l-4.828 5.402v.57h8.726zm36.871-11.305c0-.55 0-.574-.481-.574-.57.648-1.765 1.531-4.226 1.531v.691c.546 0 1.742 0 3.054-.62v12.449c0 .863-.07 1.148-2.172 1.148h-.742v.691c.645-.046 2.965-.046 3.754-.046.785 0 3.082 0 3.727.046v-.691h-.743c-2.101 0-2.171-.285-2.171-1.148zm16.168.477v-.547h-5.758c-2.895 0-2.942-.313-3.039-.766h-.524l-.742 4.777h.527c.071-.43.286-1.91.598-2.171.191-.145 1.984-.145 2.316-.145h5.067l-2.531 3.633c-.649.933-3.059 4.851-3.059 9.344 0 .261 0 1.218.981 1.218 1 0 1-.933 1-1.242v-1.195c0-3.563.574-6.332 1.699-7.934zm30.23-.477c0-.55 0-.574-.477-.574-.574.648-1.769 1.531-4.23 1.531v.691c.551 0 1.742 0 3.059-.62v12.449c0 .863-.075 1.148-2.176 1.148h-.738v.691c.644-.046 2.96-.046 3.75-.046.789 0 3.082 0 3.726.046v-.691h-.738c-2.102 0-2.176-.285-2.176-1.148zm9.215 6.738c-.406.024-.5.047-.5.266 0 .238.117.238.547.238h1.101c2.032 0 2.938 1.672 2.938 3.965 0 3.133-1.625 3.969-2.793 3.969-1.149 0-3.11-.551-3.801-2.13.766.122 1.457-.308 1.457-1.167 0-.695-.504-1.172-1.172-1.172-.57 0-1.195.332-1.195 1.242 0 2.125 2.129 3.871 4.781 3.871 2.844 0 4.945-2.175 4.945-4.59 0-2.195-1.765-3.918-4.062-4.324 2.078-.597 3.418-2.34 3.418-4.207 0-1.886-1.957-3.273-4.277-3.273-2.391 0-4.161 1.457-4.161 3.203 0 .957.743 1.148 1.102 1.148.504 0 1.074-.359 1.074-1.078 0-.765-.57-1.097-1.097-1.097-.145 0-.192 0-.262.023.906-1.625 3.152-1.625 3.269-1.625.789 0 2.344.36 2.344 2.7 0 .452-.07 1.792-.765 2.82-.715 1.05-1.528 1.125-2.172 1.148zm43.086-6.738c0-.55 0-.574-.477-.574-.574.648-1.769 1.531-4.23 1.531v.691c.551 0 1.742 0 3.058-.62v12.449c0 .863-.074 1.148-2.175 1.148h-.739v.691c.645-.046 2.961-.046 3.75-.046s3.082 0 3.727.046v-.691h-.742c-2.102 0-2.172-.285-2.172-1.148zm40.5 0c0-.55 0-.574-.477-.574-.574.648-1.769 1.531-4.23 1.531v.691c.551 0 1.742 0 3.058-.62v12.449c0 .863-.074 1.148-2.175 1.148h-.739v.691c.645-.046 2.961-.046 3.75-.046s3.082 0 3.727.046v-.691h-.742c-2.102 0-2.172-.285-2.172-1.148zm11.937 6.691c1.196-.644 2.942-1.746 2.942-3.75 0-2.082-2.008-3.515-4.207-3.515-2.367 0-4.231 1.746-4.231 3.922 0 .812.239 1.625.91 2.437.262.309.286.332 1.957 1.504-2.316 1.074-3.511 2.676-3.511 4.422 0 2.531 2.414 4.11 4.851 4.11 2.653 0 4.875-1.962 4.875-4.47 0-2.437-1.718-3.511-3.586-4.66m-3.25-2.152c-.308-.215-1.265-.836-1.265-2.004 0-1.555 1.625-2.535 3.226-2.535 1.723 0 3.25 1.242 3.25 2.965 0 1.457-1.051 2.625-2.437 3.39zm1.125 3.082 2.891 1.89c.621.407 1.719 1.15 1.719 2.606 0 1.817-1.836 3.059-3.75 3.059-2.032 0-3.774-1.485-3.774-3.465 0-1.863 1.36-3.371 2.914-4.09m40-.883c-.406.024-.5.047-.5.266 0 .238.118.238.551.238h1.098c2.031 0 2.937 1.672 2.937 3.965 0 3.133-1.625 3.969-2.793 3.969-1.148 0-3.105-.551-3.8-2.13.765.122 1.457-.308 1.457-1.167 0-.695-.5-1.172-1.168-1.172-.575 0-1.196.332-1.196 1.242 0 2.125 2.125 3.871 4.778 3.871 2.843 0 4.949-2.175 4.949-4.59 0-2.195-1.77-3.918-4.063-4.324 2.078-.597 3.414-2.34 3.414-4.207 0-1.886-1.957-3.273-4.277-3.273-2.387 0-4.156 1.457-4.156 3.203 0 .957.738 1.148 1.097 1.148.504 0 1.079-.359 1.079-1.078 0-.765-.575-1.097-1.102-1.097-.145 0-.191 0-.262.023.907-1.625 3.153-1.625 3.274-1.625.789 0 2.34.36 2.34 2.7 0 .452-.071 1.792-.762 2.82-.719 1.05-1.531 1.125-2.176 1.148zm53.356-6.261v-.547h-5.758c-2.895 0-2.941-.313-3.035-.766h-.528l-.738 4.777h.524c.074-.43.289-1.91.597-2.171.192-.145 1.985-.145 2.317-.145h5.066l-2.531 3.633c-.645.933-3.059 4.851-3.059 9.344 0 .261 0 1.218.981 1.218 1.004 0 1.004-.933 1.004-1.242v-1.195c0-3.563.574-6.332 1.695-7.934zm39.664 10.828h-.527c-.071.406-.262 1.718-.5 2.101-.168.215-1.532.215-2.247.215h-4.421c.644-.55 2.101-2.078 2.722-2.652 3.637-3.348 4.973-4.59 4.973-6.953 0-2.75-2.176-4.59-4.949-4.59-2.77 0-4.395 2.367-4.395 4.422 0 1.218 1.051 1.218 1.121 1.218.504 0 1.125-.359 1.125-1.125 0-.668-.453-1.12-1.125-1.12-.211 0-.262 0-.332.023.453-1.625 1.746-2.723 3.297-2.723 2.031 0 3.273 1.695 3.273 3.895 0 2.03-1.167 3.8-2.531 5.328l-4.828 5.402v.57h8.723zm11.89-3.633c0-1.985-.121-3.918-.976-5.738-.981-1.98-2.703-2.508-3.875-2.508-1.387 0-3.082.695-3.965 2.676-.672 1.507-.91 2.988-.91 5.57 0 2.316.168 4.062 1.027 5.758.934 1.816 2.582 2.39 3.824 2.39 2.079 0 3.274-1.242 3.965-2.629.864-1.793.91-4.132.91-5.52m-4.875 7.668c-.765 0-2.316-.43-2.769-3.031-.266-1.438-.266-3.25-.266-4.926 0-1.957 0-3.727.383-5.137.406-1.601 1.625-2.344 2.652-2.344.911 0 2.293.551 2.75 2.606.309 1.363.309 3.25.309 4.875 0 1.601 0 3.418-.262 4.875-.453 2.629-1.961 3.082-2.797 3.082m39.383-4.034h-.523c-.074.406-.262 1.718-.5 2.101-.168.215-1.531.215-2.25.215h-4.418c.644-.55 2.101-2.078 2.723-2.652 3.632-3.348 4.968-4.59 4.968-6.953 0-2.75-2.172-4.59-4.945-4.59s-4.398 2.367-4.398 4.422c0 1.218 1.05 1.218 1.125 1.218.5 0 1.121-.359 1.121-1.125 0-.668-.453-1.12-1.121-1.12-.215 0-.262 0-.336.023.457-1.625 1.746-2.723 3.3-2.723 2.032 0 3.274 1.695 3.274 3.895 0 2.03-1.172 3.8-2.535 5.328l-4.828 5.402v.57h8.722zm11.895-3.633c0-1.985-.121-3.918-.981-5.738-.98-1.98-2.703-2.508-3.871-2.508-1.386 0-3.086.695-3.968 2.676-.668 1.507-.907 2.988-.907 5.57 0 2.316.164 4.062 1.028 5.758.929 1.816 2.578 2.39 3.824 2.39 2.078 0 3.273-1.242 3.965-2.629.859-1.793.91-4.132.91-5.52m-4.875 7.668c-.766 0-2.32-.43-2.774-3.031-.265-1.438-.265-3.25-.265-4.926 0-1.957 0-3.727.383-5.137.406-1.601 1.625-2.344 2.656-2.344.906 0 2.293.551 2.746 2.606.309 1.363.309 3.25.309 4.875 0 1.601 0 3.418-.262 4.875-.453 2.629-1.957 3.082-2.793 3.082m35.75-15.339c0-.55 0-.574-.477-.574-.574.648-1.769 1.531-4.23 1.531v.691c.551 0 1.742 0 3.058-.62v12.449c0 .863-.074 1.148-2.175 1.148h-.739v.691c.645-.046 2.961-.046 3.75-.046s3.082 0 3.727.046v-.691h-.742c-2.102 0-2.172-.285-2.172-1.148zm11.937 6.691c1.196-.644 2.942-1.746 2.942-3.75 0-2.082-2.008-3.515-4.207-3.515-2.367 0-4.231 1.746-4.231 3.922 0 .812.239 1.625.91 2.437.262.309.286.332 1.957 1.504-2.316 1.074-3.511 2.676-3.511 4.422 0 2.531 2.414 4.11 4.851 4.11 2.653 0 4.875-1.962 4.875-4.47 0-2.437-1.718-3.511-3.586-4.66m-3.25-2.152c-.308-.215-1.265-.836-1.265-2.004 0-1.555 1.625-2.535 3.226-2.535 1.723 0 3.25 1.242 3.25 2.965 0 1.457-1.051 2.625-2.437 3.39zm1.125 3.082 2.891 1.89c.621.407 1.719 1.15 1.719 2.606 0 1.817-1.836 3.059-3.75 3.059-2.032 0-3.774-1.485-3.774-3.465 0-1.863 1.36-3.371 2.914-4.09m42.489-7.621c0-.55 0-.574-.481-.574-.57.648-1.765 1.531-4.226 1.531v.691c.546 0 1.742 0 3.054-.62v12.449c0 .863-.07 1.148-2.172 1.148h-.742v.691c.645-.046 2.965-.046 3.754-.046.785 0 3.082 0 3.727.046v-.691h-.743c-2.101 0-2.171-.285-2.171-1.148zm40.5 0c0-.55 0-.574-.481-.574-.57.648-1.765 1.531-4.226 1.531v.691c.546 0 1.742 0 3.054-.62v12.449c0 .863-.07 1.148-2.172 1.148h-.742v.691c.645-.046 2.965-.046 3.754-.046.785 0 3.082 0 3.727.046v-.691h-.743c-2.101 0-2.171-.285-2.171-1.148zm11.937 6.691c1.195-.644 2.942-1.746 2.942-3.75 0-2.082-2.008-3.515-4.208-3.515-2.367 0-4.23 1.746-4.23 3.922 0 .812.238 1.625.906 2.437.266.309.289.332 1.961 1.504-2.316 1.074-3.512 2.676-3.512 4.422 0 2.531 2.415 4.11 4.852 4.11 2.652 0 4.875-1.962 4.875-4.47 0-2.437-1.723-3.511-3.586-4.66m-3.25-2.152c-.308-.215-1.266-.836-1.266-2.004 0-1.555 1.625-2.535 3.227-2.535 1.719 0 3.25 1.242 3.25 2.965 0 1.457-1.051 2.625-2.437 3.39zm1.121 3.082 2.895 1.89c.621.407 1.718 1.15 1.718 2.606 0 1.817-1.839 3.059-3.75 3.059-2.031 0-3.777-1.485-3.777-3.465 0-1.863 1.363-3.371 2.914-4.09m36.59-7.621c0-.55 0-.574-.477-.574-.574.648-1.769 1.531-4.23 1.531v.691c.551 0 1.742 0 3.059-.62v12.449c0 .863-.075 1.148-2.176 1.148h-.738v.691c.644-.046 2.96-.046 3.75-.046.789 0 3.082 0 3.726.046v-.691h-.738c-2.102 0-2.176-.285-2.176-1.148zm11.941 6.691c1.192-.644 2.938-1.746 2.938-3.75 0-2.082-2.008-3.515-4.207-3.515-2.363 0-4.231 1.746-4.231 3.922 0 .812.243 1.625.911 2.437.261.309.285.332 1.957 1.504-2.317 1.074-3.512 2.676-3.512 4.422 0 2.531 2.414 4.11 4.851 4.11 2.653 0 4.875-1.962 4.875-4.47 0-2.437-1.718-3.511-3.582-4.66m-3.25-2.152c-.312-.215-1.269-.836-1.269-2.004 0-1.555 1.625-2.535 3.226-2.535 1.723 0 3.25 1.242 3.25 2.965 0 1.457-1.05 2.625-2.437 3.39zm1.122 3.082 2.89 1.89c.621.407 1.723 1.15 1.723 2.606 0 1.817-1.84 3.059-3.754 3.059-2.031 0-3.774-1.485-3.774-3.465 0-1.863 1.36-3.371 2.915-4.09"/></g></svg>