<svg xmlns="http://www.w3.org/2000/svg" width="56pt" height="176pt" viewBox="0 -176 56 176"><g id="page1"><path fill="#933" d="M26.574-1.008v-138.187l27.637-33.164v105.023z"/><path fill="none" stroke="#000" stroke-linecap="round" stroke-linejoin="round" stroke-width="2" d="M26.574-1.008v-138.187l27.637-33.164v105.023z"/><path fill="#b26666" d="M29.34-18.14v-110.551l22.11-26.536v84.02z"/><path fill="none" stroke="#000" stroke-linecap="round" stroke-linejoin="round" d="M29.34-18.14v-110.551l22.11-26.536v84.02z"/><path fill="maroon" d="M26.574-1.008v-138.187L9.566-141.32V-3.133z"/><path fill="none" stroke="#000" stroke-linecap="round" stroke-linejoin="round" stroke-width="2" d="M26.574-1.008v-138.187L9.566-141.32V-3.133z"/><path fill="maroon" d="m9.566-141.32 17.008 2.125 27.637-33.164-13.605-1.704z"/><path fill="none" stroke="#000" stroke-linecap="round" stroke-linejoin="round" stroke-width="2" d="m9.566-141.32 17.008 2.125 27.637-33.164-13.605-1.704z"/><path fill="#ff0" d="M9.566-65.316v-13.82c-4.007-.966-7.972 1.757-8.503 5.847-.637 4.867 3.687 8.918 8.503 7.973"/><path fill="none" stroke="#000" stroke-linecap="round" stroke-linejoin="round" stroke-width="2" d="M9.566-65.316v-13.82c-4.007-.966-7.972 1.757-8.503 5.847-.637 4.867 3.687 8.918 8.503 7.973"/></g></svg>