<svg xmlns="http://www.w3.org/2000/svg" width="3088" height="415pt" viewBox="0 -415 2316 415"><g id="page1"><path fill="#00bf00" d="M57.691-54.863H2257.38l56.69 51.023H1z"/><path fill="none" stroke="#004000" stroke-linecap="round" stroke-linejoin="round" stroke-width="2" d="M57.691-54.863H2257.38l56.69 51.023H1z"/><path fill="#bfffbf" d="M69.031-44.66H2246.04l34.02 30.617H35.016z"/><path fill="none" stroke="#004000" stroke-linecap="round" stroke-linejoin="round" stroke-width="2" d="M69.031-44.66H2246.04l34.02 30.617H35.016z"/><path fill="#ededed" d="M23.676-71.871h226.773v-340.156H23.676Z"/><path fill="none" stroke="#000" stroke-linecap="round" stroke-linejoin="round" stroke-width="4" d="M23.676-71.871v-340.156h226.773v340.156z"/><path fill="#bfbfbf" d="M173.914-199.43a5.67 5.67 0 0 0-5.672 5.668v39.688a5.67 5.67 0 0 0 5.672 5.668h39.684a5.67 5.67 0 0 0 5.672-5.668v-39.688a5.67 5.67 0 0 0-5.672-5.668z"/><path fill="none" stroke="#000" stroke-linecap="round" stroke-linejoin="round" stroke-width="3" d="M173.914-199.43a5.67 5.67 0 0 0-5.672 5.668v39.688a5.67 5.67 0 0 0 5.672 5.668h39.684a5.67 5.67 0 0 0 5.672-5.668v-39.688a5.67 5.67 0 0 0-5.672-5.668z"/><path fill="#fff" d="m186.668-188.094 4.254 24.098h14.172l-4.25-24.098z"/><path fill="none" stroke="#000" stroke-linecap="round" stroke-linejoin="round" d="m186.668-188.094 4.254 24.098h14.172l-4.25-24.098z"/><path fill="#999" d="M186.668-159.746h14.176l4.25-4.25h-14.172z"/><path fill="none" stroke="#000" stroke-linecap="round" stroke-linejoin="round" d="M186.668-159.746h14.176l4.25-4.25h-14.172z"/><path fill="#ccc" d="M186.668-188.094v28.348l4.254-4.25z"/><path fill="none" stroke="#000" stroke-linecap="round" stroke-linejoin="round" d="M186.668-188.094v28.348l4.254-4.25z"/><path fill="#ff0" d="M117.02-296.012c-5.129 5.133-8.305 12.219-8.305 20.047 0 15.656 12.691 28.348 28.348 28.348s28.347-12.692 28.347-28.348c0-7.828-3.172-14.914-8.305-20.047a28.26 28.26 0 0 1-8.3-20.043 2.836 2.836 0 0 0-2.836-2.832h-17.813a2.836 2.836 0 0 0-2.836 2.832 28.26 28.26 0 0 1-8.3 20.043"/><path fill="none" stroke="#000" stroke-linecap="round" stroke-linejoin="round" d="M117.02-296.012c-5.129 5.133-8.305 12.219-8.305 20.047 0 15.656 12.691 28.348 28.348 28.348s28.347-12.692 28.347-28.348c0-7.828-3.172-14.914-8.305-20.047a28.26 28.26 0 0 1-8.3-20.043 2.836 2.836 0 0 0-2.836-2.832h-17.813a2.836 2.836 0 0 0-2.836 2.832 28.26 28.26 0 0 1-8.3 20.043"/><path fill="gray" d="M145.566-318.887v-5.672a2.84 2.84 0 0 0-2.339-2.793l-5.672-.996a2.6 2.6 0 0 0-.492-.043 2.6 2.6 0 0 0-.493.043l-5.668.996a2.84 2.84 0 0 0-2.343 2.793v5.672z"/><path fill="none" stroke="#000" stroke-linecap="round" stroke-linejoin="round" d="M145.566-318.887v-5.672a2.84 2.84 0 0 0-2.339-2.793l-5.672-.996a2.6 2.6 0 0 0-.492-.043 2.6 2.6 0 0 0-.493.043l-5.668.996a2.84 2.84 0 0 0-2.343 2.793v5.672zm-2.836 0c0 14.582 13.989 25.524 14.176 40.086.055 4.231-1.883 8.43-5.672 8.504-2.945.059-5.011-2.637-5.668-5.668-.597-2.754.457-5.621 2.836-5.672 2.426-.051 3.692 2.879 2.832 5.672-.828 2.707-2.964 4.809-5.668 5.668-4.753 1.516-9.878-.961-11.336-5.668-.855-2.762.399-5.672 2.833-5.672 2.437 0 3.691 2.91 2.835 5.672-1.46 4.707-6.585 7.184-11.339 5.668-2.704-.859-4.84-2.961-5.668-5.668-.86-2.793.406-5.723 2.836-5.672 2.378.051 3.429 2.918 2.832 5.672-.657 3.031-2.723 5.727-5.668 5.668-3.789-.074-5.727-4.273-5.672-8.504.187-14.562 14.176-25.504 14.176-40.086"/><path fill="#333" d="M250.449-71.871h226.77v-340.156h-226.77Z"/><path fill="none" stroke="#000" stroke-linecap="round" stroke-linejoin="round" stroke-width="4" d="M250.449-71.871v-340.156h226.77v340.156z"/><path fill="#595959" d="M400.684-148.406a5.67 5.67 0 0 1-5.668-5.668v-39.688a5.67 5.67 0 0 1 5.668-5.668h39.687a5.67 5.67 0 0 1 5.668 5.668v39.688a5.67 5.67 0 0 1-5.668 5.668z"/><path fill="none" stroke="#000" stroke-linecap="round" stroke-linejoin="round" stroke-width="3" d="M400.684-148.406a5.67 5.67 0 0 1-5.668-5.668v-39.688a5.67 5.67 0 0 1 5.668-5.668h39.687a5.67 5.67 0 0 1 5.668 5.668v39.688a5.67 5.67 0 0 1-5.668 5.668z"/><path fill="#bfbfbf" d="m413.441-159.746 4.25-24.094h14.176l-4.254 24.094z"/><path fill="none" stroke="#000" stroke-linecap="round" stroke-linejoin="round" d="m413.441-159.746 4.25-24.094h14.176l-4.254 24.094z"/><path fill="#737373" d="M413.441-188.094h14.172l4.254 4.254h-14.176z"/><path fill="none" stroke="#000" stroke-linecap="round" stroke-linejoin="round" d="M413.441-188.094h14.172l4.254 4.254h-14.176z"/><path fill="#999" d="M413.441-159.746v-28.348l4.25 4.254z"/><path fill="none" stroke="#000" stroke-linecap="round" stroke-linejoin="round" d="M413.441-159.746v-28.348l4.25 4.254z"/><path fill="gray" d="M343.789-296.012c-5.129 5.133-8.301 12.219-8.301 20.047 0 15.656 12.692 28.348 28.348 28.348 15.652 0 28.344-12.692 28.344-28.348 0-7.828-3.172-14.914-8.301-20.047-5.129-5.129-8.305-12.215-8.305-20.043a2.83 2.83 0 0 0-2.832-2.832H354.93a2.835 2.835 0 0 0-2.836 2.832 28.24 28.24 0 0 1-8.305 20.043"/><path fill="none" stroke="#000" stroke-linecap="round" stroke-linejoin="round" d="M343.789-296.012c-5.129 5.133-8.301 12.219-8.301 20.047 0 15.656 12.692 28.348 28.348 28.348 15.652 0 28.344-12.692 28.344-28.348 0-7.828-3.172-14.914-8.301-20.047-5.129-5.129-8.305-12.215-8.305-20.043a2.83 2.83 0 0 0-2.832-2.832H354.93a2.835 2.835 0 0 0-2.836 2.832 28.24 28.24 0 0 1-8.305 20.043"/><path fill="gray" d="M372.34-318.887v-5.672a2.84 2.84 0 0 0-2.344-2.793l-5.668-.996q-.24-.045-.492-.043a2.2 2.2 0 0 0-.492.043l-5.672.996a2.84 2.84 0 0 0-2.34 2.793v5.672z"/><path fill="none" stroke="#000" stroke-linecap="round" stroke-linejoin="round" d="M372.34-318.887v-5.672a2.84 2.84 0 0 0-2.344-2.793l-5.668-.996q-.24-.045-.492-.043a2.2 2.2 0 0 0-.492.043l-5.672.996a2.84 2.84 0 0 0-2.34 2.793v5.672zm-2.836 0c0 14.582 13.988 25.524 14.172 40.086.054 4.231-1.879 8.43-5.668 8.504-2.945.059-5.012-2.637-5.668-5.668-.598-2.754.453-5.621 2.832-5.672 2.43-.051 3.691 2.879 2.836 5.672-.832 2.707-2.969 4.809-5.668 5.668-4.754 1.516-9.883-.961-11.34-5.668-.855-2.762.398-5.672 2.836-5.672 2.434 0 3.687 2.91 2.832 5.672-1.457 4.707-6.582 7.184-11.336 5.668-2.703-.859-4.84-2.961-5.672-5.668-.855-2.793.406-5.723 2.836-5.672 2.379.051 3.43 2.918 2.836 5.672-.656 3.031-2.727 5.727-5.672 5.668-3.789-.074-5.722-4.273-5.668-8.504.188-14.562 14.172-25.504 14.172-40.086"/><path fill="#ededed" d="M477.219-71.871h226.773v-340.156H477.219Z"/><path fill="none" stroke="#000" stroke-linecap="round" stroke-linejoin="round" stroke-width="4" d="M477.219-71.871v-340.156h226.773v340.156z"/><path fill="#bfbfbf" d="M627.457-199.43a5.667 5.667 0 0 0-5.668 5.668v39.688a5.667 5.667 0 0 0 5.668 5.668h39.684a5.67 5.67 0 0 0 5.672-5.668v-39.688a5.67 5.67 0 0 0-5.672-5.668z"/><path fill="none" stroke="#000" stroke-linecap="round" stroke-linejoin="round" stroke-width="3" d="M627.457-199.43a5.667 5.667 0 0 0-5.668 5.668v39.688a5.667 5.667 0 0 0 5.668 5.668h39.684a5.67 5.67 0 0 0 5.672-5.668v-39.688a5.67 5.67 0 0 0-5.672-5.668z"/><path fill="#fff" d="m640.215-188.094 4.25 24.098h14.172l-4.25-24.098z"/><path fill="none" stroke="#000" stroke-linecap="round" stroke-linejoin="round" d="m640.215-188.094 4.25 24.098h14.172l-4.25-24.098z"/><path fill="#999" d="M640.215-159.746h14.172l4.25-4.25h-14.172z"/><path fill="none" stroke="#000" stroke-linecap="round" stroke-linejoin="round" d="M640.215-159.746h14.172l4.25-4.25h-14.172z"/><path fill="#ccc" d="M640.215-188.094v28.348l4.25-4.25z"/><path fill="none" stroke="#000" stroke-linecap="round" stroke-linejoin="round" d="M640.215-188.094v28.348l4.25-4.25z"/><path fill="#ff0" d="M570.563-296.012c-5.129 5.133-8.301 12.219-8.301 20.047 0 15.656 12.687 28.348 28.343 28.348s28.348-12.692 28.348-28.348c0-7.828-3.172-14.914-8.305-20.047a28.26 28.26 0 0 1-8.3-20.043 2.836 2.836 0 0 0-2.836-2.832h-17.813a2.836 2.836 0 0 0-2.836 2.832 28.26 28.26 0 0 1-8.3 20.043"/><path fill="none" stroke="#000" stroke-linecap="round" stroke-linejoin="round" d="M570.563-296.012c-5.129 5.133-8.301 12.219-8.301 20.047 0 15.656 12.687 28.348 28.343 28.348s28.348-12.692 28.348-28.348c0-7.828-3.172-14.914-8.305-20.047a28.26 28.26 0 0 1-8.3-20.043 2.836 2.836 0 0 0-2.836-2.832h-17.813a2.836 2.836 0 0 0-2.836 2.832 28.26 28.26 0 0 1-8.3 20.043"/><path fill="gray" d="M599.109-318.887v-5.672a2.84 2.84 0 0 0-2.339-2.793l-5.672-.996a2.6 2.6 0 0 0-.493-.043q-.251-.002-.492.043l-5.668.996a2.84 2.84 0 0 0-2.343 2.793v5.672z"/><path fill="none" stroke="#000" stroke-linecap="round" stroke-linejoin="round" d="M599.109-318.887v-5.672a2.84 2.84 0 0 0-2.339-2.793l-5.672-.996a2.6 2.6 0 0 0-.493-.043q-.251-.002-.492.043l-5.668.996a2.84 2.84 0 0 0-2.343 2.793v5.672zm-2.832 0c0 14.582 13.985 25.524 14.172 40.086.055 4.231-1.883 8.43-5.668 8.504-2.945.059-5.015-2.637-5.672-5.668-.593-2.754.457-5.621 2.836-5.672 2.43-.051 3.692 2.879 2.836 5.672-.832 2.707-2.968 4.809-5.672 5.668-4.754 1.516-9.879-.961-11.339-5.668-.852-2.762.402-5.672 2.835-5.672 2.438 0 3.692 2.91 2.836 5.672-1.457 4.707-6.586 7.184-11.339 5.668-2.7-.859-4.836-2.961-5.668-5.668-.856-2.793.406-5.723 2.836-5.672 2.375.051 3.429 2.918 2.832 5.672-.657 3.031-2.723 5.727-5.668 5.668-3.789-.074-5.723-4.273-5.668-8.504.183-14.562 14.172-25.504 14.172-40.086"/><path fill="#333" d="M703.992-71.871h226.774v-340.156H703.992Z"/><path fill="none" stroke="#000" stroke-linecap="round" stroke-linejoin="round" stroke-width="4" d="M703.992-71.871v-340.156h226.774v340.156z"/><path fill="#595959" d="M854.23-199.43a5.67 5.67 0 0 0-5.671 5.668v39.688a5.67 5.67 0 0 0 5.671 5.668h39.684a5.667 5.667 0 0 0 5.668-5.668v-39.688a5.667 5.667 0 0 0-5.668-5.668z"/><path fill="none" stroke="#000" stroke-linecap="round" stroke-linejoin="round" stroke-width="3" d="M854.23-199.43a5.67 5.67 0 0 0-5.671 5.668v39.688a5.67 5.67 0 0 0 5.671 5.668h39.684a5.667 5.667 0 0 0 5.668-5.668v-39.688a5.667 5.667 0 0 0-5.668-5.668z"/><path fill="#bfbfbf" d="m866.984-188.094 4.25 24.098h14.176l-4.254-24.098z"/><path fill="none" stroke="#000" stroke-linecap="round" stroke-linejoin="round" d="m866.984-188.094 4.25 24.098h14.176l-4.254-24.098z"/><path fill="#737373" d="M866.984-159.746h14.172l4.254-4.25h-14.176z"/><path fill="none" stroke="#000" stroke-linecap="round" stroke-linejoin="round" d="M866.984-159.746h14.172l4.254-4.25h-14.176z"/><path fill="#999" d="M866.984-188.094v28.348l4.25-4.25z"/><path fill="none" stroke="#000" stroke-linecap="round" stroke-linejoin="round" d="M866.984-188.094v28.348l4.25-4.25z"/><path fill="gray" d="M797.336-296.012c-5.133 5.133-8.305 12.219-8.305 20.047 0 15.656 12.692 28.348 28.348 28.348 15.652 0 28.348-12.692 28.348-28.348 0-7.828-3.176-14.914-8.305-20.047a28.26 28.26 0 0 1-8.301-20.043 2.835 2.835 0 0 0-2.836-2.832h-17.812a2.835 2.835 0 0 0-2.836 2.832 28.26 28.26 0 0 1-8.301 20.043"/><path fill="none" stroke="#000" stroke-linecap="round" stroke-linejoin="round" d="M797.336-296.012c-5.133 5.133-8.305 12.219-8.305 20.047 0 15.656 12.692 28.348 28.348 28.348 15.652 0 28.348-12.692 28.348-28.348 0-7.828-3.176-14.914-8.305-20.047a28.26 28.26 0 0 1-8.301-20.043 2.835 2.835 0 0 0-2.836-2.832h-17.812a2.835 2.835 0 0 0-2.836 2.832 28.26 28.26 0 0 1-8.301 20.043"/><path fill="gray" d="M825.883-318.887v-5.672a2.84 2.84 0 0 0-2.344-2.793l-5.668-.996q-.24-.045-.492-.043a2.2 2.2 0 0 0-.492.043l-5.672.996a2.84 2.84 0 0 0-2.34 2.793v5.672z"/><path fill="none" stroke="#000" stroke-linecap="round" stroke-linejoin="round" d="M825.883-318.887v-5.672a2.84 2.84 0 0 0-2.344-2.793l-5.668-.996q-.24-.045-.492-.043a2.2 2.2 0 0 0-.492.043l-5.672.996a2.84 2.84 0 0 0-2.34 2.793v5.672zm-2.836 0c0 14.582 13.988 25.524 14.176 40.086.05 4.231-1.883 8.43-5.672 8.504-2.946.059-5.012-2.637-5.668-5.668-.598-2.754.457-5.621 2.832-5.672 2.43-.051 3.691 2.879 2.836 5.672-.828 2.707-2.965 4.809-5.668 5.668-4.754 1.516-9.879-.961-11.34-5.668-.855-2.762.398-5.672 2.836-5.672 2.434 0 3.687 2.91 2.836 5.672-1.461 4.707-6.586 7.184-11.34 5.668-2.703-.859-4.84-2.961-5.672-5.668-.855-2.793.406-5.723 2.836-5.672 2.379.051 3.434 2.918 2.836 5.672-.656 3.031-2.723 5.727-5.672 5.668-3.785-.074-5.723-4.273-5.668-8.504.188-14.562 14.176-25.504 14.176-40.086"/><path fill="#333" d="M930.766-71.871h226.774v-340.156H930.766Z"/><path fill="none" stroke="#000" stroke-linecap="round" stroke-linejoin="round" stroke-width="4" d="M930.766-71.871v-340.156h226.774v340.156z"/><path fill="#595959" d="M1081-148.406a5.67 5.67 0 0 1-5.67-5.668v-39.688a5.67 5.67 0 0 1 5.67-5.668h39.69c3.13 0 5.66 2.539 5.66 5.668v39.688a5.66 5.66 0 0 1-5.66 5.668z"/><path fill="none" stroke="#000" stroke-linecap="round" stroke-linejoin="round" stroke-width="3" d="M1081-148.406a5.67 5.67 0 0 1-5.67-5.668v-39.688a5.67 5.67 0 0 1 5.67-5.668h39.69c3.13 0 5.66 2.539 5.66 5.668v39.688a5.66 5.66 0 0 1-5.66 5.668z"/><path fill="#bfbfbf" d="m1093.76-159.746 4.25-24.094h14.17l-4.25 24.094z"/><path fill="none" stroke="#000" stroke-linecap="round" stroke-linejoin="round" d="m1093.76-159.746 4.25-24.094h14.17l-4.25 24.094z"/><path fill="#737373" d="M1093.76-188.094h14.17l4.25 4.254h-14.17z"/><path fill="none" stroke="#000" stroke-linecap="round" stroke-linejoin="round" d="M1093.76-188.094h14.17l4.25 4.254h-14.17z"/><path fill="#999" d="M1093.76-159.746v-28.348l4.25 4.254z"/><path fill="none" stroke="#000" stroke-linecap="round" stroke-linejoin="round" d="M1093.76-159.746v-28.348l4.25 4.254z"/><path fill="gray" d="M1024.11-296.012c-5.13 5.133-8.31 12.219-8.31 20.047 0 15.656 12.69 28.348 28.35 28.348s28.35-12.692 28.35-28.348c0-7.828-3.18-14.914-8.31-20.047a28.25 28.25 0 0 1-8.3-20.043 2.834 2.834 0 0 0-2.83-2.832h-17.82c-1.56 0-2.83 1.27-2.83 2.832a28.25 28.25 0 0 1-8.3 20.043"/><path fill="none" stroke="#000" stroke-linecap="round" stroke-linejoin="round" d="M1024.11-296.012c-5.13 5.133-8.31 12.219-8.31 20.047 0 15.656 12.69 28.348 28.35 28.348s28.35-12.692 28.35-28.348c0-7.828-3.18-14.914-8.31-20.047a28.25 28.25 0 0 1-8.3-20.043 2.834 2.834 0 0 0-2.83-2.832h-17.82c-1.56 0-2.83 1.27-2.83 2.832a28.25 28.25 0 0 1-8.3 20.043"/><path fill="gray" d="M1052.65-318.887v-5.672a2.84 2.84 0 0 0-2.34-2.793l-5.67-.996c-.16-.031-.32-.043-.49-.043s-.33.012-.49.043l-5.67.996a2.84 2.84 0 0 0-2.34 2.793v5.672z"/><path fill="none" stroke="#000" stroke-linecap="round" stroke-linejoin="round" d="M1052.65-318.887v-5.672a2.84 2.84 0 0 0-2.34-2.793l-5.67-.996c-.16-.031-.32-.043-.49-.043s-.33.012-.49.043l-5.67.996a2.84 2.84 0 0 0-2.34 2.793v5.672zm-2.83 0c0 14.582 13.99 25.524 14.17 40.086.06 4.231-1.88 8.43-5.67 8.504-2.94.059-5.01-2.637-5.67-5.668-.59-2.754.46-5.621 2.84-5.672 2.43-.051 3.69 2.879 2.83 5.672-.83 2.707-2.96 4.809-5.67 5.668-4.75 1.516-9.88-.961-11.34-5.668-.85-2.762.4-5.672 2.84-5.672s3.69 2.91 2.83 5.672c-1.45 4.707-6.58 7.184-11.33 5.668-2.71-.859-4.84-2.961-5.67-5.668-.86-2.793.4-5.723 2.83-5.672 2.38.051 3.43 2.918 2.84 5.672-.66 3.031-2.73 5.727-5.67 5.668-3.79-.074-5.73-4.273-5.67-8.504.18-14.562 14.17-25.504 14.17-40.086"/><path fill="#ededed" d="M1157.54-71.871h226.77v-340.156h-226.77Z"/><path fill="none" stroke="#000" stroke-linecap="round" stroke-linejoin="round" stroke-width="4" d="M1157.54-71.871v-340.156h226.77v340.156z"/><path fill="#bfbfbf" d="M1307.77-148.406a5.67 5.67 0 0 1-5.67-5.668v-39.688a5.67 5.67 0 0 1 5.67-5.668h39.69a5.67 5.67 0 0 1 5.67 5.668v39.688a5.67 5.67 0 0 1-5.67 5.668z"/><path fill="none" stroke="#000" stroke-linecap="round" stroke-linejoin="round" stroke-width="3" d="M1307.77-148.406a5.67 5.67 0 0 1-5.67-5.668v-39.688a5.67 5.67 0 0 1 5.67-5.668h39.69a5.67 5.67 0 0 1 5.67 5.668v39.688a5.67 5.67 0 0 1-5.67 5.668z"/><path fill="#fff" d="m1320.53-159.746 4.25-24.094h14.17l-4.25 24.094z"/><path fill="none" stroke="#000" stroke-linecap="round" stroke-linejoin="round" d="m1320.53-159.746 4.25-24.094h14.17l-4.25 24.094z"/><path fill="#999" d="M1320.53-188.094h14.17l4.25 4.254h-14.17z"/><path fill="none" stroke="#000" stroke-linecap="round" stroke-linejoin="round" d="M1320.53-188.094h14.17l4.25 4.254h-14.17z"/><path fill="#ccc" d="M1320.53-159.746v-28.348l4.25 4.254z"/><path fill="none" stroke="#000" stroke-linecap="round" stroke-linejoin="round" d="M1320.53-159.746v-28.348l4.25 4.254z"/><path fill="#ff0" d="M1250.88-296.012c-5.13 5.133-8.31 12.219-8.31 20.047 0 15.656 12.7 28.348 28.35 28.348 15.66 0 28.35-12.692 28.35-28.348 0-7.828-3.18-14.914-8.3-20.047-5.13-5.129-8.31-12.215-8.31-20.043a2.834 2.834 0 0 0-2.83-2.832h-17.82c-1.56 0-2.83 1.27-2.83 2.832a28.25 28.25 0 0 1-8.3 20.043"/><path fill="none" stroke="#000" stroke-linecap="round" stroke-linejoin="round" d="M1250.88-296.012c-5.13 5.133-8.31 12.219-8.31 20.047 0 15.656 12.7 28.348 28.35 28.348 15.66 0 28.35-12.692 28.35-28.348 0-7.828-3.18-14.914-8.3-20.047-5.13-5.129-8.31-12.215-8.31-20.043a2.834 2.834 0 0 0-2.83-2.832h-17.82c-1.56 0-2.83 1.27-2.83 2.832a28.25 28.25 0 0 1-8.3 20.043"/><path fill="gray" d="M1279.43-318.887v-5.672a2.85 2.85 0 0 0-2.35-2.793l-5.67-.996c-.16-.031-.32-.043-.49-.043s-.33.012-.49.043l-5.67.996a2.84 2.84 0 0 0-2.34 2.793v5.672z"/><path fill="none" stroke="#000" stroke-linecap="round" stroke-linejoin="round" d="M1279.43-318.887v-5.672a2.85 2.85 0 0 0-2.35-2.793l-5.67-.996c-.16-.031-.32-.043-.49-.043s-.33.012-.49.043l-5.67.996a2.84 2.84 0 0 0-2.34 2.793v5.672zm-2.84 0c0 14.582 13.99 25.524 14.17 40.086.06 4.231-1.88 8.43-5.67 8.504-2.94.059-5.01-2.637-5.66-5.668-.6-2.754.45-5.621 2.83-5.672 2.43-.051 3.69 2.879 2.83 5.672-.83 2.707-2.96 4.809-5.66 5.668-4.76 1.516-9.89-.961-11.34-5.668-.86-2.762.4-5.672 2.83-5.672 2.44 0 3.69 2.91 2.84 5.672-1.46 4.707-6.59 7.184-11.34 5.668-2.7-.859-4.84-2.961-5.67-5.668-.86-2.793.4-5.723 2.83-5.672 2.38.051 3.43 2.918 2.84 5.672-.66 3.031-2.73 5.727-5.67 5.668-3.79-.074-5.73-4.273-5.67-8.504.18-14.562 14.17-25.504 14.17-40.086"/><path fill="#ededed" d="M1384.31-71.871h226.77v-340.156h-226.77Z"/><path fill="none" stroke="#000" stroke-linecap="round" stroke-linejoin="round" stroke-width="4" d="M1384.31-71.871v-340.156h226.77v340.156z"/><path fill="#bfbfbf" d="M1534.54-148.406a5.67 5.67 0 0 1-5.67-5.668v-39.688a5.67 5.67 0 0 1 5.67-5.668h39.69a5.67 5.67 0 0 1 5.67 5.668v39.688a5.67 5.67 0 0 1-5.67 5.668z"/><path fill="none" stroke="#000" stroke-linecap="round" stroke-linejoin="round" stroke-width="3" d="M1534.54-148.406a5.67 5.67 0 0 1-5.67-5.668v-39.688a5.67 5.67 0 0 1 5.67-5.668h39.69a5.67 5.67 0 0 1 5.67 5.668v39.688a5.67 5.67 0 0 1-5.67 5.668z"/><path fill="#fff" d="m1547.3-159.746 4.25-24.094h14.17l-4.25 24.094z"/><path fill="none" stroke="#000" stroke-linecap="round" stroke-linejoin="round" d="m1547.3-159.746 4.25-24.094h14.17l-4.25 24.094z"/><path fill="#999" d="M1547.3-188.094h14.17l4.25 4.254h-14.17z"/><path fill="none" stroke="#000" stroke-linecap="round" stroke-linejoin="round" d="M1547.3-188.094h14.17l4.25 4.254h-14.17z"/><path fill="#ccc" d="M1547.3-159.746v-28.348l4.25 4.254z"/><path fill="none" stroke="#000" stroke-linecap="round" stroke-linejoin="round" d="M1547.3-159.746v-28.348l4.25 4.254z"/><path fill="#ff0" d="M1477.65-296.012c-5.13 5.133-8.3 12.219-8.3 20.047 0 15.656 12.69 28.348 28.34 28.348 15.66 0 28.35-12.692 28.35-28.348 0-7.828-3.17-14.914-8.3-20.047-5.13-5.129-8.31-12.215-8.31-20.043a2.83 2.83 0 0 0-2.83-2.832h-17.81c-1.57 0-2.84 1.27-2.84 2.832a28.25 28.25 0 0 1-8.3 20.043"/><path fill="none" stroke="#000" stroke-linecap="round" stroke-linejoin="round" d="M1477.65-296.012c-5.13 5.133-8.3 12.219-8.3 20.047 0 15.656 12.69 28.348 28.34 28.348 15.66 0 28.35-12.692 28.35-28.348 0-7.828-3.17-14.914-8.3-20.047-5.13-5.129-8.31-12.215-8.31-20.043a2.83 2.83 0 0 0-2.83-2.832h-17.81c-1.57 0-2.84 1.27-2.84 2.832a28.25 28.25 0 0 1-8.3 20.043"/><path fill="gray" d="M1506.2-318.887v-5.672a2.84 2.84 0 0 0-2.35-2.793l-5.66-.996a2.7 2.7 0 0 0-.5-.043c-.16 0-.33.012-.49.043l-5.67.996a2.84 2.84 0 0 0-2.34 2.793v5.672z"/><path fill="none" stroke="#000" stroke-linecap="round" stroke-linejoin="round" d="M1506.2-318.887v-5.672a2.84 2.84 0 0 0-2.35-2.793l-5.66-.996a2.7 2.7 0 0 0-.5-.043c-.16 0-.33.012-.49.043l-5.67.996a2.84 2.84 0 0 0-2.34 2.793v5.672zm-2.84 0c0 14.582 13.99 25.524 14.18 40.086.05 4.231-1.89 8.43-5.67 8.504-2.95.059-5.02-2.637-5.67-5.668-.6-2.754.45-5.621 2.83-5.672 2.43-.051 3.69 2.879 2.84 5.672-.83 2.707-2.97 4.809-5.67 5.668-4.76 1.516-9.88-.961-11.34-5.668-.86-2.762.4-5.672 2.83-5.672 2.44 0 3.69 2.91 2.84 5.672-1.46 4.707-6.59 7.184-11.34 5.668-2.7-.859-4.84-2.961-5.67-5.668-.86-2.793.41-5.723 2.83-5.672 2.38.051 3.44 2.918 2.84 5.672-.66 3.031-2.72 5.727-5.67 5.668-3.79-.074-5.72-4.273-5.67-8.504.19-14.562 14.17-25.504 14.17-40.086"/><path fill="#ededed" d="M1611.08-71.871h226.77v-340.156h-226.77Z"/><path fill="none" stroke="#000" stroke-linecap="round" stroke-linejoin="round" stroke-width="4" d="M1611.08-71.871v-340.156h226.77v340.156z"/><path fill="#bfbfbf" d="M1761.32-199.43a5.664 5.664 0 0 0-5.67 5.668v39.688a5.664 5.664 0 0 0 5.67 5.668H1801a5.67 5.67 0 0 0 5.67-5.668v-39.688a5.67 5.67 0 0 0-5.67-5.668z"/><path fill="none" stroke="#000" stroke-linecap="round" stroke-linejoin="round" stroke-width="3" d="M1761.32-199.43a5.664 5.664 0 0 0-5.67 5.668v39.688a5.664 5.664 0 0 0 5.67 5.668H1801a5.67 5.67 0 0 0 5.67-5.668v-39.688a5.67 5.67 0 0 0-5.67-5.668z"/><path fill="#fff" d="m1774.07-188.094 4.25 24.098h14.18l-4.26-24.098z"/><path fill="none" stroke="#000" stroke-linecap="round" stroke-linejoin="round" d="m1774.07-188.094 4.25 24.098h14.18l-4.26-24.098z"/><path fill="#999" d="M1774.07-159.746h14.17l4.26-4.25h-14.18z"/><path fill="none" stroke="#000" stroke-linecap="round" stroke-linejoin="round" d="M1774.07-159.746h14.17l4.26-4.25h-14.18z"/><path fill="#ccc" d="M1774.07-188.094v28.348l4.25-4.25z"/><path fill="none" stroke="#000" stroke-linecap="round" stroke-linejoin="round" d="M1774.07-188.094v28.348l4.25-4.25z"/><path fill="#ff0" d="M1704.42-296.012c-5.13 5.133-8.3 12.219-8.3 20.047 0 15.656 12.69 28.348 28.34 28.348 15.66 0 28.35-12.692 28.35-28.348 0-7.828-3.17-14.914-8.3-20.047a28.25 28.25 0 0 1-8.3-20.043 2.836 2.836 0 0 0-2.84-2.832h-17.81c-1.57 0-2.84 1.27-2.84 2.832a28.25 28.25 0 0 1-8.3 20.043"/><path fill="none" stroke="#000" stroke-linecap="round" stroke-linejoin="round" d="M1704.42-296.012c-5.13 5.133-8.3 12.219-8.3 20.047 0 15.656 12.69 28.348 28.34 28.348 15.66 0 28.35-12.692 28.35-28.348 0-7.828-3.17-14.914-8.3-20.047a28.25 28.25 0 0 1-8.3-20.043 2.836 2.836 0 0 0-2.84-2.832h-17.81c-1.57 0-2.84 1.27-2.84 2.832a28.25 28.25 0 0 1-8.3 20.043"/><path fill="gray" d="M1732.97-318.887v-5.672a2.84 2.84 0 0 0-2.34-2.793l-5.67-.996a2.7 2.7 0 0 0-.5-.043c-.16 0-.33.012-.49.043l-5.67.996a2.84 2.84 0 0 0-2.34 2.793v5.672z"/><path fill="none" stroke="#000" stroke-linecap="round" stroke-linejoin="round" d="M1732.97-318.887v-5.672a2.84 2.84 0 0 0-2.34-2.793l-5.67-.996a2.7 2.7 0 0 0-.5-.043c-.16 0-.33.012-.49.043l-5.67.996a2.84 2.84 0 0 0-2.34 2.793v5.672zm-2.84 0c0 14.582 13.99 25.524 14.18 40.086.05 4.231-1.88 8.43-5.67 8.504-2.95.059-5.01-2.637-5.67-5.668-.6-2.754.45-5.621 2.83-5.672 2.43-.051 3.69 2.879 2.84 5.672-.83 2.707-2.97 4.809-5.67 5.668-4.76 1.516-9.88-.961-11.34-5.668-.85-2.762.4-5.672 2.83-5.672 2.44 0 3.69 2.91 2.84 5.672-1.46 4.707-6.59 7.184-11.34 5.668-2.7-.859-4.84-2.961-5.67-5.668-.86-2.793.41-5.723 2.84-5.672 2.38.051 3.43 2.918 2.83 5.672-.66 3.031-2.72 5.727-5.67 5.668-3.79-.074-5.72-4.273-5.67-8.504.19-14.562 14.18-25.504 14.18-40.086"/><path fill="#333" d="M1837.85-71.871h226.77v-340.156h-226.77Z"/><path fill="none" stroke="#000" stroke-linecap="round" stroke-linejoin="round" stroke-width="4" d="M1837.85-71.871v-340.156h226.77v340.156z"/><path fill="#595959" d="M1988.09-199.43a5.67 5.67 0 0 0-5.67 5.668v39.688a5.67 5.67 0 0 0 5.67 5.668h39.68a5.67 5.67 0 0 0 5.67-5.668v-39.688a5.67 5.67 0 0 0-5.67-5.668z"/><path fill="none" stroke="#000" stroke-linecap="round" stroke-linejoin="round" stroke-width="3" d="M1988.09-199.43a5.67 5.67 0 0 0-5.67 5.668v39.688a5.67 5.67 0 0 0 5.67 5.668h39.68a5.67 5.67 0 0 0 5.67-5.668v-39.688a5.67 5.67 0 0 0-5.67-5.668z"/><path fill="#bfbfbf" d="m2000.84-188.094 4.25 24.098h14.18l-4.25-24.098z"/><path fill="none" stroke="#000" stroke-linecap="round" stroke-linejoin="round" d="m2000.84-188.094 4.25 24.098h14.18l-4.25-24.098z"/><path fill="#737373" d="M2000.84-159.746h14.18l4.25-4.25h-14.18z"/><path fill="none" stroke="#000" stroke-linecap="round" stroke-linejoin="round" d="M2000.84-159.746h14.18l4.25-4.25h-14.18z"/><path fill="#999" d="M2000.84-188.094v28.348l4.25-4.25z"/><path fill="none" stroke="#000" stroke-linecap="round" stroke-linejoin="round" d="M2000.84-188.094v28.348l4.25-4.25z"/><path fill="gray" d="M1931.19-296.012c-5.13 5.133-8.3 12.219-8.3 20.047 0 15.656 12.69 28.348 28.35 28.348 15.65 0 28.34-12.692 28.34-28.348 0-7.828-3.17-14.914-8.3-20.047a28.25 28.25 0 0 1-8.3-20.043 2.836 2.836 0 0 0-2.84-2.832h-17.81c-1.57 0-2.84 1.27-2.84 2.832a28.25 28.25 0 0 1-8.3 20.043"/><path fill="none" stroke="#000" stroke-linecap="round" stroke-linejoin="round" d="M1931.19-296.012c-5.13 5.133-8.3 12.219-8.3 20.047 0 15.656 12.69 28.348 28.35 28.348 15.65 0 28.34-12.692 28.34-28.348 0-7.828-3.17-14.914-8.3-20.047a28.25 28.25 0 0 1-8.3-20.043 2.836 2.836 0 0 0-2.84-2.832h-17.81c-1.57 0-2.84 1.27-2.84 2.832a28.25 28.25 0 0 1-8.3 20.043"/><path fill="gray" d="M1959.74-318.887v-5.672a2.84 2.84 0 0 0-2.34-2.793l-5.67-.996a2.6 2.6 0 0 0-.49-.043c-.17 0-.34.012-.5.043l-5.67.996a2.84 2.84 0 0 0-2.34 2.793v5.672z"/><path fill="none" stroke="#000" stroke-linecap="round" stroke-linejoin="round" d="M1959.74-318.887v-5.672a2.84 2.84 0 0 0-2.34-2.793l-5.67-.996a2.6 2.6 0 0 0-.49-.043c-.17 0-.34.012-.5.043l-5.67.996a2.84 2.84 0 0 0-2.34 2.793v5.672zm-2.83 0c0 14.582 13.98 25.524 14.17 40.086.05 4.231-1.88 8.43-5.67 8.504-2.95.059-5.01-2.637-5.67-5.668-.6-2.754.46-5.621 2.84-5.672 2.42-.051 3.69 2.879 2.83 5.672-.83 2.707-2.97 4.809-5.67 5.668-4.75 1.516-9.88-.961-11.34-5.668-.85-2.762.4-5.672 2.84-5.672 2.43 0 3.69 2.91 2.83 5.672-1.46 4.707-6.58 7.184-11.34 5.668-2.7-.859-4.84-2.961-5.67-5.668-.85-2.793.41-5.723 2.84-5.672 2.38.051 3.43 2.918 2.83 5.672-.65 3.031-2.72 5.727-5.67 5.668-3.78-.074-5.72-4.273-5.67-8.504.19-14.562 14.18-25.504 14.18-40.086"/><path fill="#333" d="M2064.62-71.871h226.77v-340.156h-226.77Z"/><path fill="none" stroke="#000" stroke-linecap="round" stroke-linejoin="round" stroke-width="4" d="M2064.62-71.871v-340.156h226.77v340.156z"/><path fill="#595959" d="M2214.86-199.43a5.67 5.67 0 0 0-5.67 5.668v39.688a5.67 5.67 0 0 0 5.67 5.668h39.68a5.67 5.67 0 0 0 5.67-5.668v-39.688a5.67 5.67 0 0 0-5.67-5.668z"/><path fill="none" stroke="#000" stroke-linecap="round" stroke-linejoin="round" stroke-width="3" d="M2214.86-199.43a5.67 5.67 0 0 0-5.67 5.668v39.688a5.67 5.67 0 0 0 5.67 5.668h39.68a5.67 5.67 0 0 0 5.67-5.668v-39.688a5.67 5.67 0 0 0-5.67-5.668z"/><path fill="#bfbfbf" d="m2227.61-188.094 4.26 24.098h14.17l-4.25-24.098z"/><path fill="none" stroke="#000" stroke-linecap="round" stroke-linejoin="round" d="m2227.61-188.094 4.26 24.098h14.17l-4.25-24.098z"/><path fill="#737373" d="M2227.61-159.746h14.18l4.25-4.25h-14.17z"/><path fill="none" stroke="#000" stroke-linecap="round" stroke-linejoin="round" d="M2227.61-159.746h14.18l4.25-4.25h-14.17z"/><path fill="#999" d="M2227.61-188.094v28.348l4.26-4.25z"/><path fill="none" stroke="#000" stroke-linecap="round" stroke-linejoin="round" d="M2227.61-188.094v28.348l4.26-4.25z"/><path fill="gray" d="M2157.96-296.012c-5.13 5.133-8.3 12.219-8.3 20.047 0 15.656 12.69 28.348 28.35 28.348 15.65 0 28.34-12.692 28.34-28.348 0-7.828-3.17-14.914-8.3-20.047a28.25 28.25 0 0 1-8.3-20.043 2.836 2.836 0 0 0-2.84-2.832h-17.81c-1.56 0-2.83 1.27-2.83 2.832 0 7.828-3.18 14.914-8.31 20.043"/><path fill="none" stroke="#000" stroke-linecap="round" stroke-linejoin="round" d="M2157.96-296.012c-5.13 5.133-8.3 12.219-8.3 20.047 0 15.656 12.69 28.348 28.35 28.348 15.65 0 28.34-12.692 28.34-28.348 0-7.828-3.17-14.914-8.3-20.047a28.25 28.25 0 0 1-8.3-20.043 2.836 2.836 0 0 0-2.84-2.832h-17.81c-1.56 0-2.83 1.27-2.83 2.832 0 7.828-3.18 14.914-8.31 20.043"/><path fill="gray" d="M2186.51-318.887v-5.672a2.84 2.84 0 0 0-2.34-2.793l-5.67-.996c-.16-.031-.32-.043-.49-.043s-.33.012-.49.043l-5.67.996a2.85 2.85 0 0 0-2.35 2.793v5.672z"/><path fill="none" stroke="#000" stroke-linecap="round" stroke-linejoin="round" d="M2186.51-318.887v-5.672a2.84 2.84 0 0 0-2.34-2.793l-5.67-.996c-.16-.031-.32-.043-.49-.043s-.33.012-.49.043l-5.67.996a2.85 2.85 0 0 0-2.35 2.793v5.672zm-2.83 0c0 14.582 13.98 25.524 14.17 40.086.05 4.231-1.88 8.43-5.67 8.504-2.94.059-5.01-2.637-5.67-5.668-.59-2.754.46-5.621 2.84-5.672 2.43-.051 3.69 2.879 2.83 5.672-.83 2.707-2.97 4.809-5.67 5.668-4.75 1.516-9.88-.961-11.34-5.668-.85-2.762.4-5.672 2.84-5.672 2.43 0 3.69 2.91 2.83 5.672-1.46 4.707-6.58 7.184-11.34 5.668-2.7-.859-4.83-2.961-5.67-5.668-.85-2.793.41-5.723 2.84-5.672 2.38.051 3.43 2.918 2.83 5.672-.65 3.031-2.72 5.727-5.67 5.668-3.78-.074-5.72-4.273-5.66-8.504.18-14.562 14.17-25.504 14.17-40.086"/><path fill="#933" d="M233.441-1.004v-138.191l27.637-33.164v105.023z"/><path fill="none" stroke="#000" stroke-linecap="round" stroke-linejoin="round" stroke-width="2" d="M233.441-1.004v-138.191l27.637-33.164v105.023z"/><path fill="#b26666" d="M236.203-18.14v-110.551l22.113-26.532v84.016z"/><path fill="none" stroke="#000" stroke-linecap="round" stroke-linejoin="round" d="M236.203-18.14v-110.551l22.113-26.532v84.016z"/><path fill="maroon" d="M233.441-1.004v-138.191l-17.007-2.125V-3.133z"/><path fill="none" stroke="#000" stroke-linecap="round" stroke-linejoin="round" stroke-width="2" d="M233.441-1.004v-138.191l-17.007-2.125V-3.133z"/><path fill="maroon" d="m216.434-141.32 17.007 2.125 27.637-33.164-13.605-1.7z"/><path fill="none" stroke="#000" stroke-linecap="round" stroke-linejoin="round" stroke-width="2" d="m216.434-141.32 17.007 2.125 27.637-33.164-13.605-1.7z"/><path fill="#ff0" d="M216.434-65.316v-13.82c-4.008-.966-7.969 1.757-8.504 5.847-.637 4.867 3.687 8.922 8.504 7.973"/><path fill="none" stroke="#000" stroke-linecap="round" stroke-linejoin="round" stroke-width="2" d="M216.434-65.316v-13.82c-4.008-.966-7.969 1.757-8.504 5.847-.637 4.867 3.687 8.922 8.504 7.973"/><path fill="#933" d="M477.219-60.531v-138.192l82.914-16.582v121.606z"/><path fill="none" stroke="#000" stroke-linecap="round" stroke-linejoin="round" stroke-width="2" d="M477.219-60.531v-138.192l82.914-16.582v121.606z"/><path fill="#b26666" d="M485.512-76.012v-110.551l66.332-13.265v97.285z"/><path fill="none" stroke="#000" stroke-linecap="round" stroke-linejoin="round" d="M485.512-76.012v-110.551l66.332-13.265v97.285z"/><path fill="maroon" d="M477.219-60.531v-138.192l-8.504-6.379V-66.91z"/><path fill="none" stroke="#000" stroke-linecap="round" stroke-linejoin="round" stroke-width="2" d="M477.219-60.531v-138.192l-8.504-6.379V-66.91z"/><path fill="maroon" d="m468.715-205.102 8.504 6.379 82.914-16.582-6.801-5.101z"/><path fill="none" stroke="#000" stroke-linecap="round" stroke-linejoin="round" stroke-width="2" d="m468.715-205.102 8.504 6.379 82.914-16.582-6.801-5.101z"/><path fill="#ff0" d="M566.512-154.5a6.38 6.38 0 0 0-6.379-6.379c-3.524 0-6.375 2.856-6.375 6.379s2.851 6.379 6.375 6.379a6.38 6.38 0 0 0 6.379-6.379"/><path fill="none" stroke="#000" stroke-linecap="round" stroke-linejoin="round" stroke-width="2" d="M566.512-154.5a6.38 6.38 0 0 0-6.379-6.379c-3.524 0-6.375 2.856-6.375 6.379s2.851 6.379 6.375 6.379a6.38 6.38 0 0 0 6.379-6.379"/><path fill="#933" d="M686.984-1.004v-138.191l27.637-33.164v105.023z"/><path fill="none" stroke="#000" stroke-linecap="round" stroke-linejoin="round" stroke-width="2" d="M686.984-1.004v-138.191l27.637-33.164v105.023z"/><path fill="#b26666" d="M689.746-18.14v-110.551l22.113-26.532v84.016z"/><path fill="none" stroke="#000" stroke-linecap="round" stroke-linejoin="round" d="M689.746-18.14v-110.551l22.113-26.532v84.016z"/><path fill="maroon" d="M686.984-1.004v-138.191l-17.007-2.125V-3.133z"/><path fill="none" stroke="#000" stroke-linecap="round" stroke-linejoin="round" stroke-width="2" d="M686.984-1.004v-138.191l-17.007-2.125V-3.133z"/><path fill="maroon" d="m669.977-141.32 17.007 2.125 27.637-33.164-13.605-1.7z"/><path fill="none" stroke="#000" stroke-linecap="round" stroke-linejoin="round" stroke-width="2" d="m669.977-141.32 17.007 2.125 27.637-33.164-13.605-1.7z"/><path fill="#ff0" d="M669.977-65.316v-13.82c-4.008-.966-7.969 1.757-8.504 5.847-.633 4.867 3.687 8.922 8.504 7.973"/><path fill="none" stroke="#000" stroke-linecap="round" stroke-linejoin="round" stroke-width="2" d="M669.977-65.316v-13.82c-4.008-.966-7.969 1.757-8.504 5.847-.633 4.867 3.687 8.922 8.504 7.973"/><path fill="#933" d="M930.766-60.531v-138.192l82.914-16.582v121.606z"/><path fill="none" stroke="#000" stroke-linecap="round" stroke-linejoin="round" stroke-width="2" d="M930.766-60.531v-138.192l82.914-16.582v121.606z"/><path fill="#b26666" d="M939.055-76.012v-110.551l66.335-13.265v97.285z"/><path fill="none" stroke="#000" stroke-linecap="round" stroke-linejoin="round" d="M939.055-76.012v-110.551l66.335-13.265v97.285z"/><path fill="maroon" d="M930.766-60.531v-138.192l-8.504-6.379V-66.91z"/><path fill="none" stroke="#000" stroke-linecap="round" stroke-linejoin="round" stroke-width="2" d="M930.766-60.531v-138.192l-8.504-6.379V-66.91z"/><path fill="maroon" d="m922.262-205.102 8.504 6.379 82.914-16.582-6.81-5.101z"/><path fill="none" stroke="#000" stroke-linecap="round" stroke-linejoin="round" stroke-width="2" d="m922.262-205.102 8.504 6.379 82.914-16.582-6.81-5.101z"/><path fill="#ff0" d="M1020.06-154.5a6.38 6.38 0 0 0-6.38-6.379c-3.53 0-6.38 2.856-6.38 6.379s2.85 6.379 6.38 6.379c3.52 0 6.38-2.856 6.38-6.379"/><path fill="none" stroke="#000" stroke-linecap="round" stroke-linejoin="round" stroke-width="2" d="M1020.06-154.5a6.38 6.38 0 0 0-6.38-6.379c-3.53 0-6.38 2.856-6.38 6.379s2.85 6.379 6.38 6.379c3.52 0 6.38-2.856 6.38-6.379"/><path fill="#933" d="M1140.53-1.004v-138.191l27.64-33.164v105.023z"/><path fill="none" stroke="#000" stroke-linecap="round" stroke-linejoin="round" stroke-width="2" d="M1140.53-1.004v-138.191l27.64-33.164v105.023z"/><path fill="#b26666" d="M1143.29-18.14v-110.551l22.11-26.532v84.016z"/><path fill="none" stroke="#000" stroke-linecap="round" stroke-linejoin="round" d="M1143.29-18.14v-110.551l22.11-26.532v84.016z"/><path fill="maroon" d="M1140.53-1.004v-138.191l-17.01-2.125V-3.133z"/><path fill="none" stroke="#000" stroke-linecap="round" stroke-linejoin="round" stroke-width="2" d="M1140.53-1.004v-138.191l-17.01-2.125V-3.133z"/><path fill="maroon" d="m1123.52-141.32 17.01 2.125 27.64-33.164-13.61-1.7z"/><path fill="none" stroke="#000" stroke-linecap="round" stroke-linejoin="round" stroke-width="2" d="m1123.52-141.32 17.01 2.125 27.64-33.164-13.61-1.7z"/><path fill="#ff0" d="M1123.52-65.316v-13.82c-4.01-.966-7.97 1.757-8.5 5.847-.64 4.867 3.69 8.922 8.5 7.973"/><path fill="none" stroke="#000" stroke-linecap="round" stroke-linejoin="round" stroke-width="2" d="M1123.52-65.316v-13.82c-4.01-.966-7.97 1.757-8.5 5.847-.64 4.867 3.69 8.922 8.5 7.973"/><path fill="#933" d="M1384.31-60.531v-138.192l82.91-16.582v121.606z"/><path fill="none" stroke="#000" stroke-linecap="round" stroke-linejoin="round" stroke-width="2" d="M1384.31-60.531v-138.192l82.91-16.582v121.606z"/><path fill="#b26666" d="M1392.6-76.012v-110.551l66.33-13.265v97.285z"/><path fill="none" stroke="#000" stroke-linecap="round" stroke-linejoin="round" d="M1392.6-76.012v-110.551l66.33-13.265v97.285z"/><path fill="maroon" d="M1384.31-60.531v-138.192l-8.51-6.379V-66.91z"/><path fill="none" stroke="#000" stroke-linecap="round" stroke-linejoin="round" stroke-width="2" d="M1384.31-60.531v-138.192l-8.51-6.379V-66.91z"/><path fill="maroon" d="m1375.8-205.102 8.51 6.379 82.91-16.582-6.8-5.101z"/><path fill="none" stroke="#000" stroke-linecap="round" stroke-linejoin="round" stroke-width="2" d="m1375.8-205.102 8.51 6.379 82.91-16.582-6.8-5.101z"/><path fill="#ff0" d="M1473.6-154.5c0-3.523-2.86-6.379-6.38-6.379s-6.38 2.856-6.38 6.379 2.86 6.379 6.38 6.379 6.38-2.856 6.38-6.379"/><path fill="none" stroke="#000" stroke-linecap="round" stroke-linejoin="round" stroke-width="2" d="M1473.6-154.5c0-3.523-2.86-6.379-6.38-6.379s-6.38 2.856-6.38 6.379 2.86 6.379 6.38 6.379 6.38-2.856 6.38-6.379"/><path fill="#933" d="M1594.07-1.004v-138.191l27.64-33.164v105.023z"/><path fill="none" stroke="#000" stroke-linecap="round" stroke-linejoin="round" stroke-width="2" d="M1594.07-1.004v-138.191l27.64-33.164v105.023z"/><path fill="#b26666" d="M1596.83-18.14v-110.551l22.11-26.532v84.016z"/><path fill="none" stroke="#000" stroke-linecap="round" stroke-linejoin="round" d="M1596.83-18.14v-110.551l22.11-26.532v84.016z"/><path fill="maroon" d="M1594.07-1.004v-138.191l-17.01-2.125V-3.133z"/><path fill="none" stroke="#000" stroke-linecap="round" stroke-linejoin="round" stroke-width="2" d="M1594.07-1.004v-138.191l-17.01-2.125V-3.133z"/><path fill="maroon" d="m1577.06-141.32 17.01 2.125 27.64-33.164-13.61-1.7z"/><path fill="none" stroke="#000" stroke-linecap="round" stroke-linejoin="round" stroke-width="2" d="m1577.06-141.32 17.01 2.125 27.64-33.164-13.61-1.7z"/><path fill="#ff0" d="M1577.06-65.316v-13.82c-4.01-.966-7.97 1.757-8.5 5.847-.64 4.867 3.69 8.922 8.5 7.973"/><path fill="none" stroke="#000" stroke-linecap="round" stroke-linejoin="round" stroke-width="2" d="M1577.06-65.316v-13.82c-4.01-.966-7.97 1.757-8.5 5.847-.64 4.867 3.69 8.922 8.5 7.973"/><path fill="#933" d="M1837.85-60.531v-138.192l82.91-16.582v121.606z"/><path fill="none" stroke="#000" stroke-linecap="round" stroke-linejoin="round" stroke-width="2" d="M1837.85-60.531v-138.192l82.91-16.582v121.606z"/><path fill="#b26666" d="M1846.14-76.012v-110.551l66.33-13.265v97.285z"/><path fill="none" stroke="#000" stroke-linecap="round" stroke-linejoin="round" d="M1846.14-76.012v-110.551l66.33-13.265v97.285z"/><path fill="maroon" d="M1837.85-60.531v-138.192l-8.5-6.379V-66.91z"/><path fill="none" stroke="#000" stroke-linecap="round" stroke-linejoin="round" stroke-width="2" d="M1837.85-60.531v-138.192l-8.5-6.379V-66.91z"/><path fill="maroon" d="m1829.35-205.102 8.5 6.379 82.91-16.582-6.8-5.101z"/><path fill="none" stroke="#000" stroke-linecap="round" stroke-linejoin="round" stroke-width="2" d="m1829.35-205.102 8.5 6.379 82.91-16.582-6.8-5.101z"/><path fill="#ff0" d="M1927.14-154.5a6.375 6.375 0 0 0-6.38-6.379c-3.52 0-6.37 2.856-6.37 6.379s2.85 6.379 6.37 6.379c3.53 0 6.38-2.856 6.38-6.379"/><path fill="none" stroke="#000" stroke-linecap="round" stroke-linejoin="round" stroke-width="2" d="M1927.14-154.5a6.375 6.375 0 0 0-6.38-6.379c-3.52 0-6.37 2.856-6.37 6.379s2.85 6.379 6.37 6.379c3.53 0 6.38-2.856 6.38-6.379"/><path fill="#933" d="M2047.61-1.004v-138.191l27.64-33.164v105.023z"/><path fill="none" stroke="#000" stroke-linecap="round" stroke-linejoin="round" stroke-width="2" d="M2047.61-1.004v-138.191l27.64-33.164v105.023z"/><path fill="#b26666" d="M2050.38-18.14v-110.551l22.11-26.532v84.016z"/><path fill="none" stroke="#000" stroke-linecap="round" stroke-linejoin="round" d="M2050.38-18.14v-110.551l22.11-26.532v84.016z"/><path fill="maroon" d="M2047.61-1.004v-138.191l-17-2.125V-3.133z"/><path fill="none" stroke="#000" stroke-linecap="round" stroke-linejoin="round" stroke-width="2" d="M2047.61-1.004v-138.191l-17-2.125V-3.133z"/><path fill="maroon" d="m2030.61-141.32 17 2.125 27.64-33.164-13.6-1.7z"/><path fill="none" stroke="#000" stroke-linecap="round" stroke-linejoin="round" stroke-width="2" d="m2030.61-141.32 17 2.125 27.64-33.164-13.6-1.7z"/><path fill="#ff0" d="M2030.61-65.316v-13.82c-4.01-.966-7.97 1.757-8.51 5.847-.63 4.867 3.69 8.922 8.51 7.973"/><path fill="none" stroke="#000" stroke-linecap="round" stroke-linejoin="round" stroke-width="2" d="M2030.61-65.316v-13.82c-4.01-.966-7.97 1.757-8.51 5.847-.63 4.867 3.69 8.922 8.51 7.973"/><path fill="#933" d="M2274.39-1.004v-138.191l27.63-33.164v105.023z"/><path fill="none" stroke="#000" stroke-linecap="round" stroke-linejoin="round" stroke-width="2" d="M2274.39-1.004v-138.191l27.63-33.164v105.023z"/><path fill="#b26666" d="M2277.15-18.14v-110.551l22.11-26.532v84.016z"/><path fill="none" stroke="#000" stroke-linecap="round" stroke-linejoin="round" d="M2277.15-18.14v-110.551l22.11-26.532v84.016z"/><path fill="maroon" d="M2274.39-1.004v-138.191l-17.01-2.125V-3.133z"/><path fill="none" stroke="#000" stroke-linecap="round" stroke-linejoin="round" stroke-width="2" d="M2274.39-1.004v-138.191l-17.01-2.125V-3.133z"/><path fill="maroon" d="m2257.38-141.32 17.01 2.125 27.63-33.164-13.6-1.7z"/><path fill="none" stroke="#000" stroke-linecap="round" stroke-linejoin="round" stroke-width="2" d="m2257.38-141.32 17.01 2.125 27.63-33.164-13.6-1.7z"/><path fill="#ff0" d="M2257.38-65.316v-13.82c-4.01-.966-7.97 1.757-8.51 5.847-.63 4.867 3.69 8.922 8.51 7.973"/><path fill="none" stroke="#000" stroke-linecap="round" stroke-linejoin="round" stroke-width="2" d="M2257.38-65.316v-13.82c-4.01-.966-7.97 1.757-8.51 5.847-.63 4.867 3.69 8.922 8.51 7.973"/><path fill="#fff" d="M74.383-221.879c-14.707 4.309-25.938 17.859-28.027 32.938-1.118 7.246-.872 14.808 1.488 21.789 1.558 4.058 4.96 6.468 7.937 9.605-13.289 13.234-22.89 32.883-22.96 51.856-.215 21.898 9.972 44.007 27.742 57.082 13.023 9.656 29.269 14.757 45.46 14.582 9.903.015 19.915-1.934 28.739-6.54 16.492-8.413 30.312-22.675 36.617-40.234 3.758-10.453 3.988-21.828 3.031-32.793-1.187-12.703-6.058-25.14-14.297-34.953-6.629-7.726-14.386-14.672-23.422-19.473-1.664-1.382-4.89-1.308-6.043-3.312.372-1.664.817-3.578 1.028-5.773 1.082-12.704-3.578-25.938-12.965-34.708-8.328-8.042-20.04-12.882-31.695-11.871-4.254.301-8.489.848-12.633 1.805"/><path fill-rule="evenodd" d="M72.7-240.23c-.106 6.023 2.09 12.402 1.769 17.89-3.082 1.297-6.324 2.34-8.98 4.43-1.419 2.144 3.171 2.039 4.464 2.215 6.82.09 13.64-1.293 20.035-3.578 2.215-.973 4.91-1.825 6.098-4.09-5.281-2.325-13.023-.766-18.11-.285-2.745-4.926-3.027-11.536-4.69-16.497-.11-.265-.446-.371-.587-.085m32.827 19.699c-10.949 8.539-33.875 13.129-47.355 10.293-.977-.301-1.348-.957-2.04-.266-.956 1.027-1.538 2.34-2.37 3.457 5.562 4.27 13.355 2.16 19.293 2.707.386 1.793-1.809 3.563-3.723 3.031-5.828.176-12.277-.32-17.875-2.16-7.191 8.024-6.539 28.078-4.059 34.918 28.594 4.801 61.086-4.074 82.915-16.953 2.39-1.613.335-4.82.175-7.051-2.425-9.16-8.234-17.398-15.996-22.91-5.758 4.91-11.871 7.426-18.55 9.426-1.876-.09-4.766-2.977-1.239-3.242 4.871-1.789 10.098-3.258 14.102-6.715 1.328-1.008 2.675-2.906.215-3.363-1.082-.375-2.465-1.332-3.493-1.172m-22.27 13.359c-6.308.777-10.683 7.567-9.425 13.676 1.027 6.094 7.652 10.277 13.625 9 5.918-.918 10.629-7.156 9.09-12.969-1.719-6.445-7.125-10.629-13.29-9.707m-5.26 6.359c-1.79 1.665-2.216 5.618.054 5.512 3.629-.09 3.117-7.972-.055-5.512m24.589 13.766c.426 3.508 3.312 6.91 7.086 6.75 4.043 0 6.965-3.824 7.211-7.617.515-4.289-2.336-9.246-6.891-9.656-5.387-.321-7.953 6.66-7.406 10.523m-7.988 20.375c-15.414 2.711-29.66 4.746-43.938 2.41-2.781-.25.125 2.41 1.574 2.09 11.29 1.508 24.485 1.348 34.672-.496 14.192-2.16 30.278-7.867 42.61-15.289 1.754-1.137 3.222-1.313 2.285-3.563-11.992 6.344-25.723 12.297-37.203 14.848m24.093 3.082c1.895 5.192 10.008 9.586 14.243 11.906 1.527-1.824 2.355-4.129 3.492-6.203 1.914-.14 3.578.942 5.101 1.934.371 2.781.196 5.613.657 8.359 5.808 3.778 14.687 5.246 20.871 5.086 2.906-.246-.461-3.137-1.012-4.355-9.301-11.2-19.047-19.403-31.395-24.469-3.628 3.402-8.183 5.672-11.957 7.742m-11.711 3.934C91.795-157 69.4-152.57 55.779-157.547c-8.77 8.414-15.238 18.531-18.746 27.953-4.27 11.5-4.96 23.602-3.754 34.867 2.782 15.93 10.223 31.29 22.215 42.29 18.637 15.042 36.992 20.96 61.723 17.593-4.887-6.308-4.43-19.984-2.762-27.21 6.68-20.5 20.391-41.813 40.375-47.27 10.789-1.789 17.523 2.871 19.859 12.472.887-9.902.11-21.578-2.496-29.726-.797-1.649-.621-4.996-3.261-4.485-24.36-2.515-46.149-15.449-61.954-28.593m-69.91 46.488c-2.09 24.45 15.54 51.5 38.286 46.613 26.042-6.343 32.953-37.117 26.964-57.968-3.117-10.368-10.082-19.95-20.11-24.504-25.917-7.813-42.89 13.73-45.14 35.859m13.235-21.031c-4.82 5.211 2.48 8.804 1.593 12.066-.937 1.504-2.09 4.996-4.164 2.727-1.449-.442-3.347-3.063-4.605-2.02-2.727 12.067-1.93 24.824 5.492 33.77 1.258-.957 1.754-3.102 2.871-4.43.692-1.558 2.16-2.836 3.403-1.008 2.144 1.063 1.574 3.153 1.203 5.047-.211 2.41-.797 5.137.46 7.352 8.294 5.12 19.454 1.879 25.567-3.664 1.309-1.258 4.285-3.122 1.488-4.52-2.586-2.465-5.261-4.855-7.441-7.687.14-1.438 1.117-4.45 2.71-4.52 3.634 1.473 7.212 3.117 10.805 4.676 2.626-6.641 3.403-27.617-5.261-35.875-2.922 2.25-5.614 4.73-8.38 7.125-1.487-.039-3.984-1.703-3.984-3.332 1.645-3.332 4.075-6.203 5.915-9.426-7.883-7.953-21.86-2.305-27.672 3.719m99.922 40.765c-.055 4.27 1.699 8.559 1.683 12.528-1.453.812-2.781 1.93-4.359 2.46-2.711-2.62-4.926-10.628-6.856-7.777-7.847 8.133-13.64 18.41-15.804 29.551 2.906 2.36 8.468-2.25 11.285-.848-.196.833.496 2.301-.281 2.868-3.403 1.984-6.965 3.722-10.489 5.511-1.984 4.48 4.09 12.082 6.981 9.852 18.09-8.078 33.058-23.637 39.328-42.574.605-1.098.5-3.438-.688-1.313-1.453 1.985-2.64 4.219-4.609 5.707-1.434.426-1.168-1.738-1.453-2.64 1.773-3.95 6.644-10.543 3.687-12.844-5.297-4.926-13.449-4.43-18.425-.48"/><path d="M140.152-394.063c0-1.652 0-1.722-1.433-1.722-1.723 1.937-5.309 4.59-12.696 4.59v2.078c1.653 0 5.235 0 9.18-1.863v37.359c0 2.582-.215 3.441-6.523 3.441h-2.227v2.078c1.938-.14 8.895-.14 11.262-.14 2.363 0 9.25 0 11.183.14v-2.078h-2.222c-6.309 0-6.524-.859-6.524-3.441z"/><path fill="#fff" d="M377.852-360.148h-1.579c-.214 1.218-.789 5.164-1.507 6.312-.5.645-4.586.645-6.739.645h-13.265c1.933-1.649 6.308-6.239 8.176-7.957 10.898-10.04 14.914-13.77 14.914-20.868 0-8.246-6.528-13.769-14.844-13.769-8.32 0-13.195 7.097-13.195 13.265 0 3.661 3.156 3.661 3.371 3.661 1.504 0 3.371-1.079 3.371-3.371 0-2.008-1.364-3.372-3.371-3.372-.645 0-.789 0-1.004.071 1.363-4.875 5.234-8.172 9.894-8.172 6.098 0 9.824 5.09 9.824 11.687 0 6.094-3.511 11.399-7.601 15.989l-14.484 16.207v1.718h26.171z"/><path d="M586.195-373.844c-1.218.074-1.507.145-1.507.789 0 .719.359.719 1.652.719h3.297c6.093 0 8.82 5.02 8.82 11.902 0 9.395-4.879 11.903-8.391 11.903-3.445 0-9.324-1.649-11.402-6.383 2.297.359 4.375-.93 4.375-3.512 0-2.078-1.508-3.512-3.516-3.512-1.718 0-3.582 1-3.582 3.727 0 6.383 6.379 11.617 14.34 11.617 8.532 0 14.84-6.523 14.84-13.765 0-6.598-5.305-11.762-12.187-12.981 6.238-1.793 10.254-7.027 10.254-12.621 0-5.664-5.879-9.824-12.836-9.824-7.168 0-12.473 4.375-12.473 9.609 0 2.867 2.219 3.442 3.297 3.442 1.504 0 3.226-1.075 3.226-3.227 0-2.293-1.722-3.297-3.3-3.297-.43 0-.571 0-.789.07 2.726-4.875 9.468-4.875 9.824-4.875 2.367 0 7.027 1.075 7.027 8.102 0 1.363-.215 5.379-2.293 8.461-2.152 3.156-4.59 3.371-6.527 3.441z"/><path fill="#fff" d="M825.688-394.781c0-1.36 0-1.723-1.008-1.723-.571 0-.785 0-1.36.863l-21.586 33.485v2.082h18.86v6.523c0 2.653-.141 3.371-5.375 3.371h-1.438v2.078c1.649-.14 7.317-.14 9.324-.14 2.008 0 7.743 0 9.395.14v-2.078h-1.437c-5.161 0-5.375-.718-5.375-3.371v-6.523h7.242v-2.082h-7.242zm-4.735 5.593v27.032h-17.426zm214.827 0c3.08 1.004 5.59 1.079 6.38 1.079 8.1 0 13.27-5.954 13.27-6.957 0-.289-.15-.649-.58-.649-.14 0-.28 0-.93.289-4.02 1.723-7.46 1.938-9.32 1.938-4.73 0-8.1-1.434-9.47-2.008-.5-.219-.64-.219-.71-.219-.58 0-.58.434-.58 1.582v21.293c0 1.293 0 1.723.86 1.723.36 0 .43-.071 1.15-.934 2.01-2.937 5.38-4.66 8.96-4.66 3.8 0 5.67 3.516 6.24 4.734 1.22 2.797 1.29 6.309 1.29 9.032 0 2.726 0 6.812-2.01 10.039-1.57 2.582-4.37 4.375-7.53 4.375-4.73 0-9.39-3.227-10.68-8.461.36.144.79.215 1.15.215 1.22 0 3.15-.715 3.15-3.153 0-2.008-1.36-3.156-3.15-3.156-1.29 0-3.16.645-3.16 3.441 0 6.094 4.88 13.051 12.84 13.051 8.1 0 15.2-6.812 15.2-15.918 0-8.535-5.74-15.633-13.27-15.633-4.08 0-7.24 1.793-9.1 3.801z"/><path d="M1262.22-373.055c0-18.14 8.82-21.008 12.69-21.008 2.58 0 5.17.79 6.53 2.942-.86 0-3.59 0-3.59 2.937 0 1.579 1.08 2.942 2.94 2.942 1.79 0 3.01-1.078 3.01-3.156 0-3.731-2.72-7.387-8.96-7.387-9.04 0-18.5 9.25-18.5 25.027 0 19.719 8.61 24.164 14.7 24.164 7.82 0 14.48-6.812 14.48-16.133 0-9.539-6.66-15.921-13.84-15.921-6.38 0-8.74 5.523-9.46 7.531zm8.82 24.524c-4.52 0-6.67-4.016-7.31-5.52-.65-1.863-1.37-5.379-1.37-10.398 0-5.664 2.59-12.766 9.04-12.766 3.94 0 6.02 2.656 7.1 5.094 1.14 2.652 1.14 6.238 1.14 9.32 0 3.66 0 6.887-1.36 9.61-1.79 3.441-4.37 4.66-7.24 4.66m243.12-44.098v-1.648h-17.28c-8.68 0-8.82-.934-9.11-2.297h-1.57l-2.23 14.344h1.58c.21-1.293.86-5.739 1.79-6.528.58-.43 5.95-.43 6.96-.43h15.2l-7.6 10.899c-1.94 2.797-9.18 14.559-9.18 28.035 0 .789 0 3.66 2.94 3.66 3.01 0 3.01-2.797 3.01-3.73v-3.582c0-10.688 1.72-19.004 5.09-23.809zm214.11 18.645c3.58-1.938 8.82-5.235 8.82-11.258 0-6.238-6.03-10.543-12.62-10.543-7.1 0-12.69 5.234-12.69 11.762 0 2.437.71 4.875 2.72 7.312.79.934.86 1.004 5.88 4.516-6.95 3.23-10.54 8.031-10.54 13.265 0 7.602 7.24 12.336 14.56 12.336 7.96 0 14.62-5.879 14.62-13.41 0-7.312-5.16-10.539-10.75-13.98m-9.75-6.454c-.94-.648-3.8-2.511-3.8-6.027 0-4.656 4.87-7.598 9.68-7.598 5.16 0 9.75 3.727 9.75 8.891 0 4.375-3.16 7.887-7.32 10.184zm3.37 9.25 8.67 5.665c1.87 1.218 5.17 3.441 5.17 7.816 0 5.449-5.53 9.176-11.26 9.176-6.1 0-11.33-4.446-11.33-10.399 0-5.59 4.09-10.109 8.75-12.258"/><path fill="#fff" d="M1959.94-368.965c0 16.922-7.52 20.434-11.83 20.434-1.72 0-5.52-.215-7.31-2.723h.43c.5.145 3.08-.289 3.08-2.941 0-1.578-1.07-2.938-2.94-2.938-1.86 0-3.01 1.219-3.01 3.082 0 4.446 3.59 7.457 9.82 7.457 8.97 0 17.64-9.539 17.64-25.097 0-19.289-8.03-24.094-14.34-24.094-7.88 0-14.84 6.597-14.84 16.062s6.67 15.918 13.84 15.918c5.31 0 8.03-3.871 9.46-7.527zm-9.17 3.727c-4.52 0-6.46-3.657-7.1-5.02-1.15-2.722-1.15-6.164-1.15-9.39 0-4.016 0-7.461 1.86-10.399 1.3-1.937 3.23-4.016 7.1-4.016 4.09 0 6.17 3.586 6.89 5.235 1.43 3.512 1.43 9.609 1.43 10.683 0 6.024-2.72 12.907-9.03 12.907m212.78-28.825c0-1.652 0-1.722-1.43-1.722-1.72 1.937-5.31 4.59-12.69 4.59v2.078c1.65 0 5.23 0 9.17-1.863v37.359c0 2.582-.21 3.441-6.52 3.441h-2.23v2.078c1.94-.14 8.9-.14 11.26-.14 2.37 0 9.25 0 11.19.14v-2.078h-2.22c-6.31 0-6.53-.859-6.53-3.441zm46.57 23.016c0-5.949-.35-11.758-2.94-17.207-2.94-5.953-8.1-7.531-11.61-7.531-4.16 0-9.25 2.082-11.91 8.031-2 4.52-2.72 8.965-2.72 16.707 0 6.957.5 12.192 3.08 17.281 2.8 5.45 7.75 7.172 11.48 7.172 6.23 0 9.82-3.73 11.9-7.886 2.58-5.379 2.72-12.407 2.72-16.567m-14.62 23.02c-2.3 0-6.96-1.293-8.32-9.106-.79-4.305-.79-9.754-.79-14.773 0-5.879 0-11.188 1.15-15.418 1.22-4.805 4.87-7.028 7.96-7.028 2.72 0 6.88 1.649 8.24 7.817.94 4.09.94 9.754.94 14.629 0 4.804 0 10.254-.79 14.629-1.37 7.886-5.88 9.25-8.39 9.25"/></g></svg>