<svg xmlns="http://www.w3.org/2000/svg" width="796" height="488" viewBox="0 -366 597 366"><g id="page1"><path fill="#ffffb2" d="M10.004-48.8h5.953c1.633 0 3.2.648 4.355 1.804l4.895 4.894a2.553 2.553 0 0 0 3.61 0l4.894-4.894a6.16 6.16 0 0 1 4.355-1.805H245.72a2.55 2.55 0 0 0 2.551-2.55v-197.106a2.55 2.55 0 0 0-2.551-2.551H38.066a6.16 6.16 0 0 0-4.355 1.805l-4.895 4.894a2.554 2.554 0 0 1-3.609 0l-4.895-4.894a6.16 6.16 0 0 0-4.355-1.805H4.051a2.55 2.55 0 0 0-2.551 2.551v197.105a2.55 2.55 0 0 0 2.55 2.551z"/><path fill="none" stroke="#b2b200" stroke-linecap="round" stroke-linejoin="round" stroke-width="3" d="M10.004-48.8h5.953c1.633 0 3.2.648 4.355 1.804l4.895 4.894a2.553 2.553 0 0 0 3.61 0l4.894-4.894a6.16 6.16 0 0 1 4.355-1.805H245.72a2.55 2.55 0 0 0 2.551-2.55v-197.106a2.55 2.55 0 0 0-2.551-2.551H38.066a6.16 6.16 0 0 0-4.355 1.805l-4.895 4.894a2.554 2.554 0 0 1-3.609 0l-4.895-4.894a6.16 6.16 0 0 0-4.355-1.805H4.051a2.55 2.55 0 0 0-2.551 2.551v197.105a2.55 2.55 0 0 0 2.55 2.551z"/><path fill="#ffd9b2" d="M35.516-65.809h5.953c1.633 0 3.199.649 4.355 1.805l4.895 4.895a2.553 2.553 0 0 0 3.61 0l4.894-4.895a6.16 6.16 0 0 1 4.355-1.805h190.645a2.55 2.55 0 0 0 2.55-2.55v-47.649a2.55 2.55 0 0 0-2.55-2.551H63.578c-1.633 0-3.2.653-4.355 1.805l-4.895 4.899a2.553 2.553 0 0 1-3.61 0l-4.894-4.899a6.18 6.18 0 0 0-4.355-1.805H29.562a2.55 2.55 0 0 0-2.55 2.551v47.649a2.55 2.55 0 0 0 2.55 2.55z"/><path fill="none" stroke="#b25900" stroke-linecap="round" stroke-linejoin="round" stroke-width="3" d="M35.516-65.809h5.953c1.633 0 3.199.649 4.355 1.805l4.895 4.895a2.553 2.553 0 0 0 3.61 0l4.894-4.895a6.16 6.16 0 0 1 4.355-1.805h190.645a2.55 2.55 0 0 0 2.55-2.55v-47.649a2.55 2.55 0 0 0-2.55-2.551H63.578c-1.633 0-3.2.653-4.355 1.805l-4.895 4.899a2.553 2.553 0 0 1-3.61 0l-4.894-4.899a6.18 6.18 0 0 0-4.355-1.805H29.562a2.55 2.55 0 0 0-2.55 2.551v47.649a2.55 2.55 0 0 0 2.55 2.55z"/><path fill="#ffd9b2" d="M35.516-121.504h5.953c1.633 0 3.199.649 4.355 1.805l4.895 4.894c.996 1 2.613 1 3.61 0l4.894-4.894a6.16 6.16 0 0 1 4.355-1.805h190.645c1.41 0 2.55-1.141 2.55-2.551v-47.644c0-1.41-1.14-2.551-2.55-2.551H63.578c-1.633 0-3.2.648-4.355 1.805l-4.895 4.894a2.553 2.553 0 0 1-3.61 0l-4.894-4.894a6.16 6.16 0 0 0-4.355-1.805H29.562a2.55 2.55 0 0 0-2.55 2.551v47.644a2.55 2.55 0 0 0 2.55 2.551z"/><path fill="none" stroke="#b25900" stroke-linecap="round" stroke-linejoin="round" stroke-width="3" d="M35.516-121.504h5.953c1.633 0 3.199.649 4.355 1.805l4.895 4.894c.996 1 2.613 1 3.61 0l4.894-4.894a6.16 6.16 0 0 1 4.355-1.805h190.645c1.41 0 2.55-1.141 2.55-2.551v-47.644c0-1.41-1.14-2.551-2.55-2.551H63.578c-1.633 0-3.2.648-4.355 1.805l-4.895 4.894a2.553 2.553 0 0 1-3.61 0l-4.894-4.894a6.16 6.16 0 0 0-4.355-1.805H29.562a2.55 2.55 0 0 0-2.55 2.551v47.644a2.55 2.55 0 0 0 2.55 2.551z"/><path fill="#b2ffb2" d="m51.215-197.441 9.504 8.843a16.22 16.22 0 0 0 11.05 4.344h94.008c4.098 0 8.047-1.551 11.047-4.344l19.008-17.683a5.937 5.937 0 0 0 0-8.692l-19.008-17.683A16.2 16.2 0 0 0 165.777-237H71.77a16.22 16.22 0 0 0-11.051 4.344l-19.004 17.683a5.936 5.936 0 0 0 0 8.692z"/><path fill="none" stroke="#00b200" stroke-linecap="round" stroke-linejoin="round" stroke-width="3" d="m51.215-197.441 9.504 8.843a16.22 16.22 0 0 0 11.05 4.344h94.008c4.098 0 8.047-1.551 11.047-4.344l19.008-17.683a5.937 5.937 0 0 0 0-8.692l-19.008-17.683A16.2 16.2 0 0 0 165.777-237H71.77a16.22 16.22 0 0 0-11.051 4.344l-19.004 17.683a5.936 5.936 0 0 0 0 8.692z"/><path fill="#b2ffff" d="M1.5-253.953h14.457c1.633 0 3.2.648 4.355 1.801l4.895 4.898a2.554 2.554 0 0 0 3.61 0l4.894-4.898a6.17 6.17 0 0 1 4.355-1.801H248.27v-52.75a456.06 456.06 0 0 0-246.77 0z"/><path fill="none" stroke="#00b2b2" stroke-linecap="round" stroke-linejoin="round" stroke-width="3" d="M1.5-253.953h14.457c1.633 0 3.2.648 4.355 1.801l4.895 4.898a2.554 2.554 0 0 0 3.61 0l4.894-4.898a6.17 6.17 0 0 1 4.355-1.801H248.27v-52.75a456.06 456.06 0 0 0-246.77 0z"/><path fill="#ffffb2" d="M293.625-8.95h5.953c1.633 0 3.199.65 4.356 1.805l4.894 4.895a2.554 2.554 0 0 0 3.61 0l4.894-4.895a6.16 6.16 0 0 1 4.356-1.804h262.558a2.55 2.55 0 0 0 2.551-2.551v-276.813a2.55 2.55 0 0 0-2.551-2.55H321.688a6.16 6.16 0 0 0-4.356 1.804l-4.894 4.899a2.554 2.554 0 0 1-3.61 0l-4.894-4.899a6.16 6.16 0 0 0-4.356-1.804h-11.906a2.55 2.55 0 0 0-2.551 2.55V-11.5a2.55 2.55 0 0 0 2.551 2.55z"/><path fill="none" stroke="#b2b200" stroke-linecap="round" stroke-linejoin="round" stroke-width="3" d="M293.625-8.95h5.953c1.633 0 3.199.65 4.356 1.805l4.894 4.895a2.554 2.554 0 0 0 3.61 0l4.894-4.895a6.16 6.16 0 0 1 4.356-1.804h262.558a2.55 2.55 0 0 0 2.551-2.551v-276.813a2.55 2.55 0 0 0-2.551-2.55H321.688a6.16 6.16 0 0 0-4.356 1.804l-4.894 4.899a2.554 2.554 0 0 1-3.61 0l-4.894-4.899a6.16 6.16 0 0 0-4.356-1.804h-11.906a2.55 2.55 0 0 0-2.551 2.55V-11.5a2.55 2.55 0 0 0 2.551 2.55z"/><path fill="#ffd9b2" d="M319.137-25.957h5.953c1.633 0 3.199.648 4.355 1.805l4.895 4.894a2.553 2.553 0 0 0 3.609 0l4.895-4.894a6.16 6.16 0 0 1 4.355-1.805H592.75a2.55 2.55 0 0 0 2.551-2.55v-47.645a2.55 2.55 0 0 0-2.551-2.551H347.199a6.17 6.17 0 0 0-4.355 1.8l-4.895 4.9a2.553 2.553 0 0 1-3.609 0l-4.895-4.9a6.17 6.17 0 0 0-4.355-1.8h-11.906a2.55 2.55 0 0 0-2.551 2.55v47.645c0 1.41 1.14 2.551 2.551 2.551z"/><path fill="none" stroke="#b25900" stroke-linecap="round" stroke-linejoin="round" stroke-width="3" d="M319.137-25.957h5.953c1.633 0 3.199.648 4.355 1.805l4.895 4.894a2.553 2.553 0 0 0 3.609 0l4.895-4.894a6.16 6.16 0 0 1 4.355-1.805H592.75a2.55 2.55 0 0 0 2.551-2.55v-47.645a2.55 2.55 0 0 0-2.551-2.551H347.199a6.17 6.17 0 0 0-4.355 1.8l-4.895 4.9a2.553 2.553 0 0 1-3.609 0l-4.895-4.9a6.17 6.17 0 0 0-4.355-1.8h-11.906a2.55 2.55 0 0 0-2.551 2.55v47.645c0 1.41 1.14 2.551 2.551 2.551z"/><path fill="#ffd9b2" d="M319.137-81.648h5.953a6.17 6.17 0 0 1 4.355 1.8l4.895 4.899a2.553 2.553 0 0 0 3.609 0l4.895-4.899a6.17 6.17 0 0 1 4.355-1.8H592.75a2.553 2.553 0 0 0 2.551-2.555v-47.645c0-1.41-1.141-2.55-2.551-2.55H347.199a6.16 6.16 0 0 0-4.355 1.804l-4.895 4.895c-.996 1-2.613 1-3.609 0l-4.895-4.895a6.16 6.16 0 0 0-4.355-1.804h-11.906a2.55 2.55 0 0 0-2.551 2.55v47.645c0 1.41 1.14 2.555 2.551 2.555z"/><path fill="none" stroke="#b25900" stroke-linecap="round" stroke-linejoin="round" stroke-width="3" d="M319.137-81.648h5.953a6.17 6.17 0 0 1 4.355 1.8l4.895 4.899a2.553 2.553 0 0 0 3.609 0l4.895-4.899a6.17 6.17 0 0 1 4.355-1.8H592.75a2.553 2.553 0 0 0 2.551-2.555v-47.645c0-1.41-1.141-2.55-2.551-2.55H347.199a6.16 6.16 0 0 0-4.355 1.804l-4.895 4.895c-.996 1-2.613 1-3.609 0l-4.895-4.895a6.16 6.16 0 0 0-4.355-1.804h-11.906a2.55 2.55 0 0 0-2.551 2.55v47.645c0 1.41 1.14 2.555 2.551 2.555z"/><path fill="#ffd9b2" d="M319.137-137.344h5.953c1.633 0 3.199.649 4.355 1.805l4.895 4.894a2.55 2.55 0 0 0 3.609 0l4.895-4.894a6.16 6.16 0 0 1 4.355-1.805H592.75c1.41 0 2.551-1.14 2.551-2.551v-47.644a2.55 2.55 0 0 0-2.551-2.551H347.199a6.16 6.16 0 0 0-4.355 1.805l-4.895 4.894a2.553 2.553 0 0 1-3.609 0l-4.895-4.894a6.16 6.16 0 0 0-4.355-1.805h-11.906a2.55 2.55 0 0 0-2.551 2.551v47.644a2.55 2.55 0 0 0 2.551 2.551z"/><path fill="none" stroke="#b25900" stroke-linecap="round" stroke-linejoin="round" stroke-width="3" d="M319.137-137.344h5.953c1.633 0 3.199.649 4.355 1.805l4.895 4.894a2.55 2.55 0 0 0 3.609 0l4.895-4.894a6.16 6.16 0 0 1 4.355-1.805H592.75c1.41 0 2.551-1.14 2.551-2.551v-47.644a2.55 2.55 0 0 0-2.551-2.551H347.199a6.16 6.16 0 0 0-4.355 1.805l-4.895 4.894a2.553 2.553 0 0 1-3.609 0l-4.895-4.894a6.16 6.16 0 0 0-4.355-1.805h-11.906a2.55 2.55 0 0 0-2.551 2.551v47.644a2.55 2.55 0 0 0 2.551 2.551z"/><path fill="#b2ffb2" d="m334.84-219.66 10.43 14.398a12.49 12.49 0 0 0 10.121 5.168h148.914a12.49 12.49 0 0 0 10.117-5.168l20.863-28.797a8.8 8.8 0 0 0 0-10.332l-20.863-28.797a12.49 12.49 0 0 0-10.117-5.167H355.391a12.49 12.49 0 0 0-10.121 5.167l-20.864 28.797a8.815 8.815 0 0 0 0 10.332z"/><path fill="none" stroke="#00b200" stroke-linecap="round" stroke-linejoin="round" stroke-width="3" d="m334.84-219.66 10.43 14.398a12.49 12.49 0 0 0 10.121 5.168h148.914a12.49 12.49 0 0 0 10.117-5.168l20.863-28.797a8.8 8.8 0 0 0 0-10.332l-20.863-28.797a12.49 12.49 0 0 0-10.117-5.167H355.391a12.49 12.49 0 0 0-10.121 5.167l-20.864 28.797a8.815 8.815 0 0 0 0 10.332z"/><path fill="#b2ffb2" d="m395.547-226.039 9.504 8.844c3 2.793 6.949 4.343 11.047 4.343h79.703c4.097 0 8.047-1.55 11.047-4.343l19.007-17.684a5.934 5.934 0 0 0 0-8.691l-19.007-17.684c-3-2.793-6.95-4.344-11.047-4.344h-79.703a16.2 16.2 0 0 0-11.047 4.344l-19.008 17.684a5.936 5.936 0 0 0 0 8.691z"/><path fill="none" stroke="#00b200" stroke-linecap="round" stroke-linejoin="round" stroke-width="3" d="m395.547-226.039 9.504 8.844c3 2.793 6.949 4.343 11.047 4.343h79.703c4.097 0 8.047-1.55 11.047-4.343l19.007-17.684a5.934 5.934 0 0 0 0-8.691l-19.007-17.684c-3-2.793-6.95-4.344-11.047-4.344h-79.703a16.2 16.2 0 0 0-11.047 4.344l-19.008 17.684a5.936 5.936 0 0 0 0 8.691z"/><path fill="#b2ffff" d="M285.121-293.809h14.457c1.633 0 3.199.649 4.356 1.805l4.894 4.899a2.554 2.554 0 0 0 3.61 0l4.894-4.899a6.16 6.16 0 0 1 4.356-1.805h265.109v-52.746c-49.484-11.3-100.078-17.008-150.836-17.008s-101.356 5.708-150.84 17.008z"/><path fill="none" stroke="#00b2b2" stroke-linecap="round" stroke-linejoin="round" stroke-width="3" d="M285.121-293.809h14.457c1.633 0 3.199.649 4.356 1.805l4.894 4.899a2.554 2.554 0 0 0 3.61 0l4.894-4.899a6.16 6.16 0 0 1 4.356-1.805h265.109v-52.746c-49.484-11.3-100.078-17.008-150.836-17.008s-101.356 5.708-150.84 17.008z"/><path d="M47.723-92.578c0-1.293 0-2.25-1.051-3.18-.836-.765-1.91-1.101-2.961-1.101-1.961 0-3.469 1.293-3.469 2.843 0 .696.457 1.032 1.008 1.032.57 0 .977-.407.977-.985 0-.976-.86-.976-1.22-.976.552-1.004 1.7-1.434 2.653-1.434 1.102 0 2.512.906 2.512 3.059v.953c-4.805.074-6.621 2.082-6.621 3.922 0 1.886 2.199 2.484 3.656 2.484 1.578 0 2.652-.957 3.105-2.102.098 1.122.836 1.981 1.868 1.981.5 0 1.886-.332 1.886-2.246v-1.336h-.527v1.336c0 1.363-.57 1.555-.906 1.555-.91 0-.91-1.266-.91-1.625zm-1.551 3.008c0 2.343-1.746 3.132-2.774 3.132-1.171 0-2.148-.863-2.148-2.007 0-3.157 4.063-3.442 4.922-3.493zm9.883 7.312c-1.532 0-1.817 0-1.817-1.074v-4.16c.43.598 1.41 1.531 2.942 1.531 2.746 0 5.16-2.32 5.16-5.398 0-3.04-2.246-5.38-4.852-5.38-2.101 0-3.226 1.505-3.297 1.602v-1.601l-3.324.261v.696c1.676 0 1.82.164 1.82 1.219v11.23c0 1.074-.265 1.074-1.82 1.074v.695c.625-.05 1.914-.05 2.582-.05.692 0 1.985 0 2.606.05zm-1.817-11.566c0-.453 0-.477.262-.86.719-1.074 1.89-1.527 2.797-1.527 1.793 0 3.226 2.172 3.226 4.852 0 2.84-1.625 4.921-3.464 4.921a2.8 2.8 0 0 1-1.91-.765c-.551-.55-.91-1.028-.91-1.695zm12.953 2.058c0-2.32.957-4.496 2.793-4.496.196 0 .243 0 .336.028-.191.093-.57.238-.57.882 0 .692.547.954.93.954.476 0 .957-.309.957-.954 0-.718-.645-1.386-1.676-1.386-2.031 0-2.723 2.199-2.867 2.652h-.024v-2.652l-3.203.261v.696c1.625 0 1.82.164 1.82 1.336v6.476c0 1.075-.265 1.075-1.82 1.075v.695c.672-.051 1.985-.051 2.703-.051.645 0 2.34 0 2.89.05v-.694h-.476c-1.746 0-1.793-.262-1.793-1.122zm9.266-9.156c0-.621-.5-1.168-1.168-1.168-.625 0-1.148.5-1.148 1.145 0 .718.574 1.172 1.148 1.172.738 0 1.168-.622 1.168-1.149m-3.297 4.445v.696c1.528 0 1.746.14 1.746 1.312v6.5c0 1.075-.265 1.075-1.816 1.075v.695c.668-.051 1.816-.051 2.508-.051.261 0 1.648 0 2.46.05v-.694c-1.55 0-1.648-.118-1.648-1.051v-8.793zm19.293 14.219c-1.527 0-1.812 0-1.812-1.074v-4.16c.43.598 1.406 1.531 2.937 1.531 2.75 0 5.16-2.32 5.16-5.398 0-3.04-2.246-5.38-4.847-5.38-2.106 0-3.227 1.505-3.301 1.602v-1.601l-3.32.261v.696c1.671 0 1.816.164 1.816 1.219v11.23c0 1.074-.266 1.074-1.817 1.074v.695c.622-.05 1.91-.05 2.583-.05.691 0 1.98 0 2.601.05zm-1.812-11.566c0-.453 0-.477.261-.86a3.44 3.44 0 0 1 2.793-1.527c1.793 0 3.227 2.172 3.227 4.852 0 2.84-1.625 4.921-3.465 4.921a2.82 2.82 0 0 1-1.91-.765c-.55-.55-.906-1.028-.906-1.695zm20.629 2.512c0-3.086-2.344-5.547-5.114-5.547-2.867 0-5.14 2.535-5.14 5.546 0 3.06 2.39 5.352 5.117 5.352 2.816 0 5.137-2.344 5.137-5.352m-5.114 4.824c-.886 0-1.961-.38-2.652-1.551-.649-1.078-.672-2.484-.672-3.492 0-.906 0-2.363.742-3.438a3.06 3.06 0 0 1 2.559-1.41c.93 0 1.933.43 2.578 1.363.742 1.098.742 2.602.742 3.485 0 .84 0 2.32-.621 3.445-.668 1.145-1.769 1.598-2.676 1.598m9.836-5.277c0-2.32.953-4.496 2.793-4.496.192 0 .238 0 .336.028-.191.093-.574.238-.574.882 0 .692.551.954.933.954.477 0 .958-.309.958-.954 0-.718-.649-1.386-1.676-1.386-2.032 0-2.723 2.199-2.867 2.652h-.024v-2.652l-3.203.261v.696c1.625 0 1.816.164 1.816 1.336v6.476c0 1.075-.261 1.075-1.816 1.075v.695c.672-.051 1.984-.051 2.699-.051.649 0 2.344 0 2.895.05v-.694h-.481c-1.742 0-1.789-.262-1.789-1.122zm9.121-4.039h3.371v-.695h-3.371v-4.398h-.523c-.024 2.25-.887 4.542-3.059 4.613v.48h2.032v6.64c0 2.653 1.765 3.204 3.035 3.204 1.504 0 2.293-1.48 2.293-3.203v-1.36h-.528v1.313c0 1.719-.691 2.723-1.625 2.723-1.625 0-1.625-2.223-1.625-2.63zm14.309 3.227c0-1.293 0-2.25-1.051-3.18-.836-.765-1.91-1.101-2.961-1.101-1.961 0-3.465 1.293-3.465 2.843 0 .696.453 1.032 1.004 1.032.574 0 .981-.407.981-.985 0-.976-.864-.976-1.219-.976.547-1.004 1.695-1.434 2.648-1.434 1.102 0 2.512.906 2.512 3.059v.953c-4.805.074-6.617 2.082-6.617 3.922 0 1.886 2.195 2.484 3.652 2.484 1.578 0 2.657-.957 3.11-2.102.093 1.122.836 1.981 1.863 1.981.5 0 1.887-.332 1.887-2.246v-1.336h-.524v1.336c0 1.363-.574 1.555-.91 1.555-.91 0-.91-1.266-.91-1.625zm-1.551 3.008c0 2.343-1.742 3.132-2.773 3.132-1.168 0-2.149-.863-2.149-2.007 0-3.157 4.063-3.442 4.922-3.493zm-93.515-48.387c-1.532 0-1.817 0-1.817-1.074v-4.16c.43.597 1.41 1.531 2.938 1.531 2.75 0 5.164-2.32 5.164-5.403 0-3.035-2.246-5.375-4.852-5.375-2.102 0-3.227 1.504-3.297 1.598v-1.598l-3.324.262v.692c1.676 0 1.816.168 1.816 1.218v11.235c0 1.074-.261 1.074-1.816 1.074v.691c.621-.047 1.914-.047 2.582-.047.691 0 1.984 0 2.605.047zm-1.817-11.566c0-.454 0-.481.262-.86.718-1.078 1.886-1.531 2.797-1.531 1.793 0 3.226 2.176 3.226 4.851 0 2.844-1.625 4.922-3.465 4.922a2.83 2.83 0 0 1-1.914-.761c-.547-.551-.906-1.028-.906-1.7zm12.953 2.054c0-2.316.953-4.492 2.793-4.492.192 0 .238 0 .336.023-.191.098-.574.243-.574.883 0 .696.55.957.934.957.476 0 .956-.308.956-.957 0-.715-.648-1.383-1.675-1.383-2.032 0-2.723 2.196-2.867 2.653h-.024v-2.653l-3.203.262v.692c1.625 0 1.816.168 1.816 1.339v6.477c0 1.074-.261 1.074-1.816 1.074v.696c.668-.051 1.984-.051 2.7-.051.648 0 2.343 0 2.894.051v-.696h-.48c-1.743 0-1.79-.261-1.79-1.121zm14.262.024c.523 0 .574 0 .574-.453 0-2.415-1.293-4.661-4.184-4.661-2.722 0-4.828 2.461-4.828 5.426 0 3.153 2.438 5.473 5.09 5.473 2.844 0 3.922-2.582 3.922-3.082 0-.145-.121-.242-.266-.242-.19 0-.238.121-.285.242-.62 2.008-2.222 2.554-3.226 2.554s-3.418-.667-3.418-4.804v-.453zm-6.598-.453c.192-3.75 2.297-4.18 2.965-4.18 2.555 0 2.7 3.367 2.723 4.18zm24.977.191c0-2.223 0-2.891-.547-3.656-.695-.934-1.817-1.075-2.629-1.075-1.984 0-2.988 1.434-3.371 2.364-.336-1.84-1.625-2.364-3.129-2.364-2.32 0-3.226 1.985-3.418 2.461h-.023v-2.461l-3.25.262v.692c1.625 0 1.816.168 1.816 1.339v6.477c0 1.074-.262 1.074-1.816 1.074v.696c.62-.051 1.91-.051 2.578-.051.695 0 1.984 0 2.605.051v-.696c-1.527 0-1.816 0-1.816-1.074v-4.445c0-2.508 1.648-3.848 3.133-3.848 1.48 0 1.816 1.219 1.816 2.676v5.617c0 1.074-.266 1.074-1.816 1.074v.696c.62-.051 1.91-.051 2.578-.051.695 0 1.984 0 2.605.051v-.696c-1.527 0-1.816 0-1.816-1.074v-4.445c0-2.508 1.648-3.848 3.133-3.848 1.48 0 1.816 1.219 1.816 2.676v5.617c0 1.074-.266 1.074-1.816 1.074v.696c.62-.051 1.91-.051 2.578-.051.695 0 1.984 0 2.605.051v-.696c-1.195 0-1.793 0-1.816-.715zm6.523-8.914c0-.621-.5-1.168-1.168-1.168-.62 0-1.148.5-1.148 1.144 0 .715.574 1.172 1.148 1.172.739 0 1.168-.621 1.168-1.148m-3.297 4.445v.692c1.532 0 1.747.144 1.747 1.316v6.5c0 1.074-.262 1.074-1.817 1.074v.696c.668-.051 1.817-.051 2.508-.051.266 0 1.648 0 2.46.051v-.696c-1.55 0-1.648-.121-1.648-1.051v-8.793zm17.598-4.445c0-.621-.5-1.168-1.168-1.168-.625 0-1.148.5-1.148 1.144 0 .715.574 1.172 1.148 1.172.738 0 1.168-.621 1.168-1.148m-3.297 4.445v.692c1.528 0 1.746.144 1.746 1.316v6.5c0 1.074-.265 1.074-1.816 1.074v.696c.668-.051 1.816-.051 2.508-.051.261 0 1.648 0 2.461.051v-.696c-1.551 0-1.649-.121-1.649-1.051v-8.793zm16.274 4.469c0-2.223 0-2.891-.551-3.656-.692-.934-1.813-1.075-2.625-1.075-2.32 0-3.227 1.985-3.418 2.461h-.027v-2.461l-3.25.262v.692c1.625 0 1.82.168 1.82 1.339v6.477c0 1.074-.266 1.074-1.82 1.074v.696c.625-.051 1.914-.051 2.582-.051.695 0 1.984 0 2.605.051v-.696c-1.531 0-1.816 0-1.816-1.074v-4.445c0-2.508 1.648-3.848 3.129-3.848 1.484 0 1.82 1.219 1.82 2.676v5.617c0 1.074-.266 1.074-1.82 1.074v.696c.625-.051 1.914-.051 2.582-.051.695 0 1.984 0 2.605.051v-.696c-1.195 0-1.793 0-1.816-.715zm5.781-3.801h3.371v-.691h-3.371v-4.399h-.527c-.024 2.246-.883 4.543-3.059 4.614v.476h2.031v6.645c0 2.652 1.77 3.203 3.035 3.203 1.508 0 2.297-1.481 2.297-3.203v-1.364h-.527v1.317c0 1.719-.692 2.722-1.625 2.722-1.625 0-1.625-2.222-1.625-2.628zm14.238 4.063c.524 0 .574 0 .574-.453 0-2.415-1.293-4.661-4.183-4.661-2.723 0-4.828 2.461-4.828 5.426 0 3.153 2.437 5.473 5.089 5.473 2.844 0 3.922-2.582 3.922-3.082 0-.145-.121-.242-.265-.242-.192 0-.239.121-.285.242-.622 2.008-2.223 2.554-3.227 2.554s-3.418-.667-3.418-4.804v-.453zm-6.598-.453c.192-3.75 2.297-4.18 2.965-4.18 2.559 0 2.7 3.367 2.723 4.18zm11.836.429c0-2.316.957-4.492 2.793-4.492.196 0 .243 0 .336.023-.191.098-.574.243-.574.883 0 .696.551.957.934.957.476 0 .957-.308.957-.957 0-.715-.645-1.383-1.672-1.383-2.035 0-2.727 2.196-2.871 2.653h-.024v-2.653l-3.203.262v.692c1.625 0 1.821.168 1.821 1.339v6.477c0 1.074-.266 1.074-1.821 1.074v.696c.672-.051 1.985-.051 2.703-.051.645 0 2.34 0 2.891.051v-.696h-.477c-1.746 0-1.793-.261-1.793-1.121zm9.098 0c0-2.316.957-4.492 2.797-4.492.191 0 .238 0 .336.023-.192.098-.574.243-.574.883 0 .696.55.957.933.957.477 0 .953-.308.953-.957 0-.715-.644-1.383-1.671-1.383-2.032 0-2.723 2.196-2.868 2.653h-.023v-2.653l-3.203.262v.692c1.625 0 1.816.168 1.816 1.339v6.477c0 1.074-.262 1.074-1.816 1.074v.696c.668-.051 1.984-.051 2.699-.051.645 0 2.344 0 2.895.051v-.696h-.481c-1.742 0-1.793-.261-1.793-1.121zm12.375-4.707v.692c1.625 0 1.816.168 1.816 1.339v4.278c0 2.031-1.074 3.726-2.867 3.726-1.961 0-2.078-1.121-2.078-2.386v-7.911l-3.371.262v.692c1.816 0 1.816.074 1.816 2.199v3.586c0 1.48 0 2.34.719 3.129.574.621 1.555.91 2.77.91.41 0 1.172 0 1.984-.695.695-.547 1.074-1.458 1.074-1.458v2.153l3.325-.238v-.696c-1.625 0-1.817-.168-1.817-1.336v-8.508zm9.75.668h3.371v-.691h-3.371v-4.399h-.523c-.024 2.246-.887 4.543-3.063 4.614v.476h2.031v6.645c0 2.652 1.77 3.203 3.039 3.203 1.504 0 2.293-1.481 2.293-3.203v-1.364h-.527v1.317c0 1.719-.691 2.722-1.625 2.722-1.625 0-1.625-2.222-1.625-2.628zm9.102 0h3.367v-.691h-3.367v-4.399h-.528c-.023 2.246-.883 4.543-3.058 4.614v.476h2.031v6.645c0 2.652 1.769 3.203 3.035 3.203 1.508 0 2.293-1.481 2.293-3.203v-1.364h-.523v1.317c0 1.719-.696 2.722-1.625 2.722-1.625 0-1.625-2.222-1.625-2.628zm16.054 4.492c0-3.082-2.343-5.543-5.117-5.543-2.863 0-5.137 2.536-5.137 5.543 0 3.063 2.391 5.356 5.114 5.356 2.82 0 5.14-2.344 5.14-5.356m-5.117 4.828c-.883 0-1.957-.382-2.652-1.554-.645-1.074-.668-2.485-.668-3.488 0-.907 0-2.364.738-3.442a3.08 3.08 0 0 1 2.559-1.406c.933 0 1.937.43 2.582 1.359.742 1.102.742 2.606.742 3.489 0 .839 0 2.32-.621 3.441-.668 1.148-1.77 1.601-2.68 1.601m9.836-5.281c0-2.316.957-4.492 2.797-4.492.191 0 .238 0 .336.023-.192.098-.574.243-.574.883 0 .696.55.957.933.957.477 0 .953-.308.953-.957 0-.715-.644-1.383-1.671-1.383-2.032 0-2.723 2.196-2.868 2.653h-.023v-2.653l-3.203.262v.692c1.625 0 1.816.168 1.816 1.339v6.477c0 1.074-.262 1.074-1.816 1.074v.696c.668-.051 1.984-.051 2.699-.051.645 0 2.344 0 2.895.051v-.696h-.481c-1.742 0-1.793-.261-1.793-1.121zm14.266.024c.523 0 .574 0 .574-.453 0-2.415-1.293-4.661-4.184-4.661-2.726 0-4.828 2.461-4.828 5.426 0 3.153 2.438 5.473 5.09 5.473 2.844 0 3.922-2.582 3.922-3.082 0-.145-.121-.242-.266-.242-.191 0-.242.121-.285.242-.625 2.008-2.223 2.554-3.226 2.554s-3.418-.667-3.418-4.804v-.453zm-6.598-.453c.191-3.75 2.297-4.18 2.965-4.18 2.555 0 2.699 3.367 2.723 4.18zM20.836-214.809c0-.429 0-.55-.238-.55-.192 0-.645.527-.813.742-.738-.598-1.48-.742-2.246-.742-2.89 0-3.75 1.578-3.75 2.89 0 .266 0 1.102.906 1.938.766.672 1.578.836 2.68 1.051 1.313.261 1.625.335 2.219.812.43.359.742.887.742 1.555 0 1.027-.598 2.175-2.7 2.175-1.577 0-2.722-.91-3.25-3.296-.097-.434-.097-.457-.12-.481-.047-.098-.141-.098-.215-.098-.262 0-.262.122-.262.551v3.25c0 .43 0 .551.238.551.121 0 .145-.023.551-.527.117-.168.117-.215.477-.598.906 1.125 2.199 1.125 2.605 1.125 2.508 0 3.75-1.387 3.75-3.273 0-1.289-.785-2.055-1.004-2.27-.86-.742-1.504-.887-3.082-1.172-.715-.144-2.46-.48-2.46-1.914 0-.738.503-1.84 2.652-1.84 2.605 0 2.75 2.227 2.797 2.965.023.192.19.192.261.192.262 0 .262-.118.262-.551zm10.516 4.567c.527 0 .574 0 .574-.457 0-2.41-1.29-4.66-4.184-4.66-2.722 0-4.824 2.461-4.824 5.425 0 3.153 2.438 5.473 5.09 5.473 2.844 0 3.918-2.582 3.918-3.082 0-.145-.121-.238-.262-.238-.191 0-.242.117-.289.238-.621 2.008-2.219 2.555-3.227 2.555-1 0-3.414-.668-3.414-4.801v-.453zm-6.594-.457c.191-3.75 2.293-4.18 2.96-4.18 2.56 0 2.704 3.367 2.727 4.18zm36.695 10.043c-1.527 0-1.812 0-1.812-1.078v-4.157c.43.598 1.406 1.532 2.937 1.532 2.75 0 5.16-2.321 5.16-5.403 0-3.035-2.246-5.379-4.847-5.379-2.106 0-3.227 1.508-3.301 1.602v-1.602l-3.32.266v.691c1.671 0 1.816.168 1.816 1.219v11.231c0 1.078-.266 1.078-1.816 1.078v.691c.62-.047 1.91-.047 2.582-.047.691 0 1.98 0 2.601.047zm-1.812-11.567c0-.453 0-.48.261-.859a3.44 3.44 0 0 1 2.793-1.531c1.793 0 3.227 2.175 3.227 4.851 0 2.844-1.625 4.922-3.465 4.922a2.8 2.8 0 0 1-1.91-.762c-.55-.55-.906-1.031-.906-1.699zm20.629 2.508c0-3.082-2.344-5.543-5.114-5.543-2.867 0-5.14 2.531-5.14 5.543 0 3.059 2.39 5.356 5.117 5.356 2.816 0 5.136-2.344 5.136-5.356m-5.114 4.828c-.887 0-1.96-.383-2.656-1.554-.644-1.075-.668-2.485-.668-3.489 0-.91 0-2.367.742-3.441a3.06 3.06 0 0 1 2.559-1.41c.93 0 1.933.429 2.578 1.363.742 1.098.742 2.605.742 3.488 0 .836 0 2.321-.621 3.442-.668 1.148-1.77 1.601-2.676 1.601m9.837-5.281c0-2.316.953-4.492 2.793-4.492.192 0 .238 0 .336.023-.191.098-.574.239-.574.883 0 .695.55.957.934.957.476 0 .957-.312.957-.957 0-.715-.649-1.387-1.676-1.387-2.031 0-2.723 2.2-2.868 2.657h-.023v-2.657l-3.203.266v.691c1.625 0 1.816.168 1.816 1.34v6.477c0 1.074-.261 1.074-1.816 1.074v.691c.668-.046 1.984-.046 2.7-.046.648 0 2.343 0 2.894.046v-.691h-.48c-1.743 0-1.79-.262-1.79-1.121zm9.121-4.039h3.371v-.691h-3.37v-4.399h-.524c-.024 2.246-.887 4.539-3.059 4.613v.477h2.031v6.644c0 2.653 1.766 3.204 3.036 3.204 1.504 0 2.293-1.485 2.293-3.204v-1.363h-.528v1.317c0 1.718-.691 2.722-1.625 2.722-1.625 0-1.625-2.222-1.625-2.629zm14.309 3.227c0-1.29 0-2.247-1.051-3.18-.836-.762-1.91-1.098-2.961-1.098-1.961 0-3.465 1.289-3.465 2.844 0 .691.453 1.027 1.004 1.027.574 0 .981-.406.981-.98 0-.981-.864-.981-1.219-.981.547-1.004 1.695-1.433 2.648-1.433 1.102 0 2.512.91 2.512 3.058v.957c-4.805.071-6.617 2.078-6.617 3.918 0 1.891 2.195 2.489 3.652 2.489 1.578 0 2.657-.957 3.11-2.106.093 1.125.836 1.985 1.863 1.985.5 0 1.887-.336 1.887-2.247v-1.339h-.524v1.339c0 1.364-.574 1.555-.91 1.555-.91 0-.91-1.269-.91-1.625zm-1.551 3.011c0 2.34-1.742 3.129-2.773 3.129-1.168 0-2.149-.859-2.149-2.008 0-3.152 4.063-3.441 4.922-3.488zm20.481-5.472c-.289 0-1.172 0-1.172.976 0 .574.406.981.98.981.551 0 1.004-.332 1.004-1.024 0-1.601-1.672-2.75-3.609-2.75-2.797 0-5.02 2.485-5.02 5.496 0 3.059 2.293 5.403 4.996 5.403 3.157 0 3.871-2.868 3.871-3.086 0-.215-.168-.215-.238-.215-.215 0-.242.07-.312.359-.524 1.699-1.817 2.414-3.106 2.414-1.457 0-3.394-1.265-3.394-4.898 0-3.969 2.031-4.949 3.226-4.949.906 0 2.223.363 2.774 1.293m11.781 3.035c0-2.223 0-2.891-.547-3.657-.695-.933-1.816-1.078-2.629-1.078-2.059 0-3.012 1.555-3.348 2.297h-.023v-8.34l-3.32.262v.695c1.625 0 1.816.164 1.816 1.336v12.524c0 1.074-.262 1.074-1.816 1.074v.691c.621-.046 1.91-.046 2.578-.046.695 0 1.984 0 2.605.046v-.691c-1.527 0-1.816 0-1.816-1.074v-4.446c0-2.507 1.648-3.847 3.133-3.847 1.48 0 1.816 1.219 1.816 2.676v5.617c0 1.074-.266 1.074-1.816 1.074v.691c.621-.046 1.91-.046 2.578-.046.695 0 1.984 0 2.605.046v-.691c-1.195 0-1.793 0-1.816-.715zm6.523-8.914c0-.621-.5-1.172-1.168-1.172a1.15 1.15 0 0 0-1.148 1.148c0 .715.574 1.172 1.148 1.172.739 0 1.168-.625 1.168-1.148m-3.297 4.445v.691c1.532 0 1.746.145 1.746 1.317v6.5c0 1.074-.261 1.074-1.816 1.074v.691c.668-.046 1.816-.046 2.508-.046.266 0 1.648 0 2.461.046v-.691c-1.551 0-1.649-.121-1.649-1.051v-8.797zm12.907 0v.691c1.625 0 1.816.168 1.816 1.34v4.278c0 2.031-1.078 3.726-2.867 3.726-1.961 0-2.082-1.125-2.082-2.387v-7.914l-3.367.266v.691c1.816 0 1.816.075 1.816 2.2v3.586c0 1.48 0 2.339.715 3.128.574.622 1.555.911 2.773.911.407 0 1.172 0 1.985-.696.691-.547 1.074-1.457 1.074-1.457v2.153l3.32-.243v-.691c-1.625 0-1.816-.168-1.816-1.34v-8.508zm13.574.168c0-.434 0-.551-.242-.551-.192 0-.645.524-.813.742-.738-.597-1.48-.742-2.246-.742-2.891 0-3.75 1.578-3.75 2.891 0 .265 0 1.101.906 1.937.766.668 1.578.836 2.676 1.051 1.317.262 1.625.332 2.223.813.429.359.742.882.742 1.55 0 1.032-.598 2.176-2.699 2.176-1.578 0-2.723-.906-3.25-3.297-.098-.429-.098-.453-.121-.476-.047-.098-.145-.098-.215-.098-.262 0-.262.121-.262.551v3.25c0 .43 0 .551.238.551.121 0 .145-.024.551-.528.117-.168.117-.215.477-.597.91 1.125 2.199 1.125 2.605 1.125 2.508 0 3.75-1.387 3.75-3.274 0-1.293-.789-2.058-1.004-2.273-.859-.739-1.504-.883-3.082-1.172-.715-.141-2.461-.477-2.461-1.91 0-.739.504-1.84 2.653-1.84 2.605 0 2.75 2.223 2.797 2.965.023.191.191.191.261.191.266 0 .266-.121.266-.551zm10.582 3.727c0-1.29 0-2.247-1.051-3.18-.836-.762-1.91-1.098-2.961-1.098-1.961 0-3.465 1.289-3.465 2.844 0 .691.453 1.027 1.004 1.027.574 0 .981-.406.981-.98 0-.981-.864-.981-1.219-.981.547-1.004 1.695-1.433 2.648-1.433 1.102 0 2.512.91 2.512 3.058v.957c-4.805.071-6.617 2.078-6.617 3.918 0 1.891 2.195 2.489 3.652 2.489 1.578 0 2.657-.957 3.11-2.106.093 1.125.836 1.985 1.863 1.985.5 0 1.887-.336 1.887-2.247v-1.339h-.524v1.339c0 1.364-.574 1.555-.91 1.555-.91 0-.91-1.269-.91-1.625zm-1.551 3.011c0 2.34-1.742 3.129-2.773 3.129-1.168 0-2.149-.859-2.149-2.008 0-3.152 4.063-3.441 4.922-3.488zm31.141-6.238h2.699v-.691h-2.746v-2.797c0-2.149 1.098-3.25 2.078-3.25.191 0 .547.047.836.191-.098.024-.695.238-.695.934 0 .547.382.929.933.929.574 0 .957-.382.957-.953 0-.886-.859-1.578-2.008-1.578-1.675 0-3.562 1.289-3.562 3.727v2.797h-1.863v.691h1.863v7.84c0 1.074-.262 1.074-1.816 1.074v.691c.671-.046 1.984-.046 2.703-.046.644 0 2.339 0 2.89.046v-.691h-.476c-1.746 0-1.793-.262-1.793-1.121zm12.312 3.227c0-1.29 0-2.247-1.051-3.18-.835-.762-1.914-1.098-2.964-1.098-1.957 0-3.465 1.289-3.465 2.844 0 .691.453 1.027 1.004 1.027.574 0 .98-.406.98-.98 0-.981-.859-.981-1.219-.981.551-1.004 1.696-1.433 2.653-1.433 1.097 0 2.508.91 2.508 3.058v.957c-4.801.071-6.618 2.078-6.618 3.918 0 1.891 2.2 2.489 3.657 2.489 1.574 0 2.652-.957 3.105-2.106.094 1.125.836 1.985 1.863 1.985.504 0 1.887-.336 1.887-2.247v-1.339h-.523v1.339c0 1.364-.575 1.555-.907 1.555-.91 0-.91-1.269-.91-1.625zm-1.554 3.011c0 2.34-1.743 3.129-2.774 3.129-1.168 0-2.148-.859-2.148-2.008 0-3.152 4.062-3.441 4.922-3.488zm8.187-11.351c0-.621-.5-1.172-1.168-1.172-.625 0-1.148.504-1.148 1.148 0 .715.574 1.172 1.148 1.172.738 0 1.168-.625 1.168-1.148m-3.297 4.445v.691c1.528 0 1.746.145 1.746 1.317v6.5c0 1.074-.265 1.074-1.816 1.074v.691c.668-.046 1.816-.046 2.508-.046.261 0 1.648 0 2.461.046v-.691c-1.551 0-1.649-.121-1.649-1.051v-8.797zm10.035 1.121c0-.644-.547-1.144-1.144-1.144-.696 0-1.172.546-1.172 1.144 0 .719.598 1.172 1.148 1.172.645 0 1.168-.5 1.168-1.172m0 7.984c0-.644-.547-1.148-1.144-1.148-.696 0-1.172.551-1.172 1.148 0 .715.598 1.168 1.148 1.168.645 0 1.168-.5 1.168-1.168M16.992-290.984l-3.324.261v.696c1.625 0 1.816.168 1.816 1.336v14.293h.528a70 70 0 0 1 .86-1.555c.55.883 1.577 1.793 3.105 1.793 2.75 0 5.164-2.32 5.164-5.403 0-3.035-2.246-5.375-4.899-5.375-1.316 0-2.437.598-3.25 1.598zm.047 8.937c0-.43 0-.476.262-.859.574-.86 1.625-1.555 2.797-1.555.715 0 3.226.289 3.226 4.875 0 1.602-.238 2.606-.812 3.465-.48.742-1.434 1.48-2.63 1.48-1.288 0-2.128-.836-2.534-1.48-.309-.5-.309-.598-.309-1.004zm13.071-8.937-3.32.261v.696c1.624 0 1.816.168 1.816 1.336v12.523c0 1.074-.262 1.074-1.817 1.074v.696c.668-.051 1.84-.051 2.555-.051.718 0 1.914 0 2.582.051v-.696c-1.528 0-1.817 0-1.817-1.074zm13.359 11.468c0-3.082-2.344-5.543-5.114-5.543-2.867 0-5.136 2.536-5.136 5.543 0 3.063 2.386 5.356 5.113 5.356 2.816 0 5.137-2.344 5.137-5.356m-5.114 4.828c-.886 0-1.96-.382-2.652-1.554-.648-1.074-.672-2.485-.672-3.488 0-.907 0-2.364.742-3.442a3.07 3.07 0 0 1 2.559-1.406c.93 0 1.934.43 2.578 1.359.742 1.102.742 2.606.742 3.489 0 .839 0 2.32-.62 3.441-.669 1.148-1.77 1.601-2.676 1.601m15.194-8.554c-.284 0-1.171 0-1.171.98 0 .574.406.981.98.981.551 0 1.004-.336 1.004-1.028 0-1.601-1.672-2.75-3.61-2.75-2.792 0-5.019 2.485-5.019 5.496 0 3.059 2.297 5.403 4.996 5.403 3.157 0 3.872-2.867 3.872-3.082 0-.219-.168-.219-.239-.219-.215 0-.238.074-.308.359-.528 1.7-1.82 2.414-3.11 2.414-1.457 0-3.39-1.265-3.39-4.898 0-3.969 2.03-4.945 3.222-4.945.91 0 2.223.359 2.774 1.289m10.399 0c-.286 0-1.169 0-1.169.98 0 .574.407.981.977.981.55 0 1.004-.336 1.004-1.028 0-1.601-1.672-2.75-3.606-2.75-2.797 0-5.02 2.485-5.02 5.496 0 3.059 2.294 5.403 4.997 5.403 3.152 0 3.867-2.867 3.867-3.082 0-.219-.164-.219-.238-.219-.215 0-.239.074-.309.359-.527 1.7-1.816 2.414-3.11 2.414-1.456 0-3.39-1.265-3.39-4.898 0-3.969 2.031-4.945 3.227-4.945.906 0 2.222.359 2.77 1.289m12.718 3.726c0-3.082-2.34-5.543-5.113-5.543-2.868 0-5.137 2.536-5.137 5.543 0 3.063 2.387 5.356 5.113 5.356 2.82 0 5.137-2.344 5.137-5.356m-5.113 4.828c-.883 0-1.961-.382-2.653-1.554-.644-1.074-.668-2.485-.668-3.488 0-.907 0-2.364.739-3.442a3.07 3.07 0 0 1 2.558-1.406c.93 0 1.938.43 2.578 1.359.743 1.102.743 2.606.743 3.489 0 .839 0 2.32-.621 3.441-.668 1.148-1.77 1.601-2.676 1.601m24.16-3.726h-.528c-.07.406-.261 1.719-.5 2.101-.168.215-1.53.215-2.246.215H88.02c.645-.55 2.106-2.078 2.723-2.648 3.633-3.348 4.973-4.594 4.973-6.957 0-2.75-2.176-4.586-4.95-4.586-2.769 0-4.394 2.363-4.394 4.418 0 1.219 1.05 1.219 1.121 1.219.504 0 1.125-.356 1.125-1.121 0-.672-.453-1.125-1.125-1.125-.21 0-.261 0-.332.027.453-1.625 1.746-2.727 3.297-2.727 2.031 0 3.274 1.696 3.274 3.895 0 2.031-1.168 3.801-2.532 5.332l-4.828 5.398v.575h8.723zM331.324-52.781c0-1.29 0-2.246-1.051-3.18-.835-.762-1.914-1.098-2.964-1.098-1.957 0-3.465 1.293-3.465 2.844 0 .692.453 1.028 1.004 1.028.574 0 .98-.407.98-.981 0-.98-.859-.98-1.219-.98.551-1 1.696-1.43 2.653-1.43 1.097 0 2.508.906 2.508 3.055v.957c-4.801.074-6.618 2.082-6.618 3.918 0 1.89 2.2 2.488 3.657 2.488 1.574 0 2.652-.957 3.105-2.106.094 1.125.836 1.985 1.863 1.985.504 0 1.887-.336 1.887-2.246v-1.34h-.523v1.34c0 1.363-.575 1.554-.907 1.554-.91 0-.91-1.27-.91-1.625zm-1.554 3.011c0 2.34-1.743 3.13-2.774 3.13-1.168 0-2.148-.86-2.148-2.008 0-3.153 4.062-3.438 4.922-3.489zm13.179-4.66c.215-.523.621-1.554 2.153-1.578v-.691c-.696.047-1.028.047-1.77.047-.504 0-.859 0-1.961-.047v.691c1.008.047 1.125.766 1.125 1.028 0 .214-.047.335-.168.62l-2.437 6.169-2.676-6.739c-.121-.336-.145-.336-.145-.457 0-.62.91-.62 1.34-.62v-.692c-.597.047-1.84.047-2.484.047-.789 0-.836 0-2.297-.047v.691c1.34 0 1.578.098 1.863.836l3.418 8.555c.121.336.168.457.457.457.164 0 .309-.05.477-.457zm10.473 1.649c0-1.29 0-2.246-1.051-3.18-.836-.762-1.91-1.098-2.961-1.098-1.961 0-3.465 1.293-3.465 2.844 0 .692.453 1.028 1.004 1.028.574 0 .981-.407.981-.981 0-.98-.864-.98-1.219-.98.547-1 1.695-1.43 2.648-1.43 1.102 0 2.512.906 2.512 3.055v.957c-4.805.074-6.617 2.082-6.617 3.918 0 1.89 2.195 2.488 3.652 2.488 1.578 0 2.657-.957 3.11-2.106.093 1.125.836 1.985 1.863 1.985.5 0 1.887-.336 1.887-2.246v-1.34h-.524v1.34c0 1.363-.574 1.554-.91 1.554-.91 0-.91-1.27-.91-1.625zm-1.551 3.011c0 2.34-1.742 3.13-2.773 3.13-1.168 0-2.149-.86-2.149-2.008 0-3.153 4.063-3.438 4.922-3.489zm14.664-2.437c0-2.223 0-2.89-.551-3.656-.695-.934-1.816-1.075-2.629-1.075-2.316 0-3.226 1.985-3.417 2.461h-.024v-2.46l-3.25.261v.692c1.625 0 1.816.168 1.816 1.34v6.476c0 1.074-.261 1.074-1.816 1.074v.696c.621-.051 1.914-.051 2.582-.051.692 0 1.984 0 2.606.05v-.695c-1.532 0-1.817 0-1.817-1.074v-4.445c0-2.508 1.649-3.848 3.129-3.848 1.484 0 1.816 1.219 1.816 2.676v5.617c0 1.074-.261 1.074-1.816 1.074v.696c.621-.051 1.914-.051 2.582-.051.692 0 1.981 0 2.606.05v-.695c-1.196 0-1.793 0-1.817-.715zm11.469-3.824c.215-.262.215-.309.215-.407 0-.261-.164-.261-.571-.261h-7.507l-.262 3.8h.527c.141-2.437.598-3.324 3.203-3.324h2.77l-6.832 9.395c0 .43.047.43.57.43h7.793l.379-4.399h-.523c-.215 2.723-.621 3.871-3.465 3.871h-2.891zm10.519 3.25c0-1.29 0-2.246-1.05-3.18-.836-.762-1.91-1.098-2.965-1.098-1.957 0-3.465 1.293-3.465 2.844 0 .692.453 1.028 1.004 1.028.574 0 .98-.407.98-.981 0-.98-.859-.98-1.218-.98.55-1 1.699-1.43 2.652-1.43 1.102 0 2.508.906 2.508 3.055v.957c-4.801.074-6.617 2.082-6.617 3.918 0 1.89 2.199 2.488 3.656 2.488 1.578 0 2.652-.957 3.105-2.106.098 1.125.836 1.985 1.864 1.985.503 0 1.89-.336 1.89-2.246v-1.34h-.527v1.34c0 1.363-.574 1.554-.906 1.554-.911 0-.911-1.27-.911-1.625zm-1.554 3.011c0 2.34-1.742 3.13-2.77 3.13-1.172 0-2.152-.86-2.152-2.008 0-3.153 4.062-3.438 4.922-3.489zm-59.016-48.289c-1.527 0-1.812 0-1.812-1.074v-4.156c.429.594 1.406 1.527 2.937 1.527 2.75 0 5.16-2.316 5.16-5.398 0-3.035-2.246-5.379-4.847-5.379-2.106 0-3.227 1.508-3.301 1.601v-1.601l-3.32.266v.691c1.671 0 1.816.168 1.816 1.219v11.23c0 1.074-.266 1.074-1.816 1.074v.696c.621-.051 1.91-.051 2.582-.051.691 0 1.98 0 2.601.05zm-1.812-11.562c0-.457 0-.481.261-.863a3.44 3.44 0 0 1 2.793-1.528c1.793 0 3.227 2.172 3.227 4.852 0 2.84-1.625 4.922-3.465 4.922a2.82 2.82 0 0 1-1.91-.766c-.551-.551-.906-1.027-.906-1.695zm12.949 2.055c0-2.321.957-4.497 2.797-4.497.191 0 .238 0 .336.028-.192.094-.575.238-.575.883 0 .691.547.957.93.957.481 0 .957-.313.957-.957 0-.715-.644-1.387-1.672-1.387-2.031 0-2.722 2.199-2.867 2.652h-.023v-2.652l-3.203.266v.691c1.625 0 1.816.168 1.816 1.34v6.472c0 1.075-.266 1.075-1.816 1.075v.695c.668-.047 1.984-.047 2.699-.047.644 0 2.344 0 2.89.047v-.695h-.476c-1.742 0-1.793-.262-1.793-1.121zm14.262.023c.527 0 .574 0 .574-.453 0-2.414-1.289-4.66-4.184-4.66-2.722 0-4.824 2.461-4.824 5.422 0 3.156 2.437 5.472 5.09 5.472 2.844 0 3.918-2.582 3.918-3.082 0-.144-.121-.238-.262-.238-.191 0-.242.117-.285.238-.625 2.008-2.223 2.555-3.231 2.555-1 0-3.414-.668-3.414-4.801v-.453zm-6.594-.453c.191-3.754 2.293-4.184 2.961-4.184 2.558 0 2.703 3.367 2.726 4.184zm24.976.191c0-2.226 0-2.894-.55-3.66-.692-.93-1.817-1.074-2.629-1.074-1.985 0-2.985 1.434-3.367 2.367-.336-1.84-1.625-2.367-3.133-2.367-2.317 0-3.227 1.984-3.414 2.461h-.028v-2.461l-3.25.266v.691c1.625 0 1.817.168 1.817 1.34v6.472c0 1.075-.262 1.075-1.817 1.075v.695c.621-.047 1.914-.047 2.582-.047.696 0 1.985 0 2.606.047v-.695c-1.531 0-1.817 0-1.817-1.075v-4.445c0-2.508 1.649-3.848 3.129-3.848 1.485 0 1.817 1.219 1.817 2.68v5.613c0 1.075-.262 1.075-1.817 1.075v.695c.621-.047 1.914-.047 2.582-.047.696 0 1.985 0 2.606.047v-.695c-1.531 0-1.817 0-1.817-1.075v-4.445c0-2.508 1.649-3.848 3.129-3.848 1.481 0 1.817 1.219 1.817 2.68v5.613c0 1.075-.262 1.075-1.817 1.075v.695c.621-.047 1.914-.047 2.582-.047.696 0 1.985 0 2.606.047v-.695c-1.196 0-1.793 0-1.817-.715zm6.625-8.914c0-.625-.504-1.172-1.171-1.172-.622 0-1.149.5-1.149 1.149 0 .715.574 1.168 1.149 1.168.742 0 1.171-.621 1.171-1.145m-3.296 4.446v.691c1.527 0 1.742.144 1.742 1.312v6.5c0 1.075-.262 1.075-1.817 1.075v.695c.668-.047 1.817-.047 2.508-.047.266 0 1.652 0 2.465.047v-.695c-1.555 0-1.648-.118-1.648-1.047v-8.797zm17.593-4.446c0-.625-.5-1.172-1.168-1.172-.621 0-1.148.5-1.148 1.149a1.15 1.15 0 0 0 1.148 1.168c.739 0 1.168-.621 1.168-1.145m-3.297 4.446v.691c1.532 0 1.746.144 1.746 1.312v6.5c0 1.075-.261 1.075-1.816 1.075v.695c.668-.047 1.816-.047 2.508-.047.266 0 1.648 0 2.461.047v-.695c-1.551 0-1.649-.118-1.649-1.047v-8.797zm16.274 4.468c0-2.226 0-2.894-.547-3.66-.695-.93-1.816-1.074-2.629-1.074-2.32 0-3.227 1.984-3.418 2.461h-.023v-2.461l-3.25.266v.691c1.625 0 1.816.168 1.816 1.34v6.472c0 1.075-.262 1.075-1.816 1.075v.695c.621-.047 1.91-.047 2.578-.047.695 0 1.984 0 2.605.047v-.695c-1.527 0-1.816 0-1.816-1.075v-4.445c0-2.508 1.648-3.848 3.133-3.848 1.48 0 1.816 1.219 1.816 2.68v5.613c0 1.075-.266 1.075-1.816 1.075v.695c.621-.047 1.91-.047 2.578-.047.695 0 1.984 0 2.605.047v-.695c-1.195 0-1.793 0-1.816-.715zm5.68-3.8h3.371v-.696h-3.371v-4.394h-.524c-.023 2.246-.883 4.539-3.059 4.609v.481h2.032v6.64c0 2.652 1.769 3.203 3.035 3.203 1.504 0 2.293-1.48 2.293-3.203v-1.359h-.527v1.312c0 1.723-.692 2.723-1.625 2.723-1.625 0-1.625-2.219-1.625-2.625zm14.242 4.062c.523 0 .574 0 .574-.453 0-2.414-1.293-4.66-4.184-4.66-2.726 0-4.828 2.461-4.828 5.422 0 3.156 2.438 5.472 5.09 5.472 2.844 0 3.922-2.582 3.922-3.082 0-.144-.121-.238-.266-.238-.191 0-.242.117-.285.238-.625 2.008-2.223 2.555-3.226 2.555s-3.418-.668-3.418-4.801v-.453zm-6.598-.453c.191-3.754 2.297-4.184 2.965-4.184 2.555 0 2.699 3.367 2.723 4.184zm11.836.43c0-2.321.953-4.497 2.793-4.497.191 0 .238 0 .336.028-.192.094-.574.238-.574.883 0 .691.55.957.933.957.477 0 .953-.313.953-.957 0-.715-.644-1.387-1.671-1.387-2.032 0-2.723 2.199-2.868 2.652h-.023v-2.652l-3.203.266v.691c1.625 0 1.816.168 1.816 1.34v6.472c0 1.075-.262 1.075-1.816 1.075v.695c.668-.047 1.984-.047 2.699-.047.645 0 2.344 0 2.895.047v-.695h-.481c-1.742 0-1.789-.262-1.789-1.121zm9.098 0c0-2.321.957-4.497 2.797-4.497.191 0 .238 0 .335.028-.195.094-.574.238-.574.883 0 .691.547.957.93.957.48 0 .957-.313.957-.957 0-.715-.645-1.387-1.672-1.387-2.031 0-2.726 2.199-2.867 2.652h-.024v-2.652l-3.203.266v.691c1.625 0 1.817.168 1.817 1.34v6.472c0 1.075-.266 1.075-1.817 1.075v.695c.668-.047 1.985-.047 2.7-.047.644 0 2.339 0 2.89.047v-.695h-.476c-1.746 0-1.793-.262-1.793-1.121zm12.375-4.707v.691c1.625 0 1.816.168 1.816 1.34v4.273c0 2.031-1.078 3.731-2.867 3.731-1.961 0-2.082-1.125-2.082-2.391v-7.91l-3.367.266v.691c1.816 0 1.816.07 1.816 2.199v3.582c0 1.481 0 2.344.715 3.133.574.621 1.555.906 2.773.906.407 0 1.172 0 1.985-.691.691-.551 1.074-1.461 1.074-1.461v2.152l3.32-.238v-.695c-1.625 0-1.816-.164-1.816-1.336v-8.508zm9.75.668h3.367v-.696h-3.367v-4.394h-.528c-.023 2.246-.883 4.539-3.058 4.609v.481h2.031v6.64c0 2.652 1.769 3.203 3.035 3.203 1.508 0 2.297-1.48 2.297-3.203v-1.359h-.527v1.312c0 1.723-.696 2.723-1.625 2.723-1.625 0-1.625-2.219-1.625-2.625zm9.097 0h3.371v-.696h-3.371v-4.394h-.523c-.024 2.246-.887 4.539-3.059 4.609v.481h2.032v6.64c0 2.652 1.765 3.203 3.035 3.203 1.504 0 2.293-1.48 2.293-3.203v-1.359h-.528v1.312c0 1.723-.691 2.723-1.625 2.723-1.625 0-1.625-2.219-1.625-2.625zm16.157 4.492c0-3.082-2.344-5.543-5.114-5.543-2.867 0-5.14 2.531-5.14 5.543 0 3.058 2.39 5.351 5.117 5.351 2.816 0 5.137-2.34 5.137-5.351m-5.114 4.824c-.886 0-1.961-.379-2.652-1.551-.649-1.074-.672-2.484-.672-3.488 0-.91 0-2.367.742-3.442a3.06 3.06 0 0 1 2.559-1.41c.93 0 1.933.43 2.578 1.364.742 1.097.742 2.601.742 3.488 0 .836 0 2.316-.621 3.441-.668 1.145-1.769 1.598-2.676 1.598m9.836-5.277c0-2.321.953-4.497 2.793-4.497.192 0 .238 0 .336.028-.191.094-.574.238-.574.883 0 .691.551.957.933.957.477 0 .958-.313.958-.957 0-.715-.645-1.387-1.676-1.387-2.032 0-2.723 2.199-2.867 2.652h-.024v-2.652l-3.203.266v.691c1.625 0 1.816.168 1.816 1.34v6.472c0 1.075-.261 1.075-1.816 1.075v.695c.672-.047 1.984-.047 2.699-.047.649 0 2.344 0 2.895.047v-.695h-.481c-1.742 0-1.789-.262-1.789-1.121zm14.262.023c.523 0 .574 0 .574-.453 0-2.414-1.293-4.66-4.183-4.66-2.723 0-4.829 2.461-4.829 5.422 0 3.156 2.438 5.472 5.09 5.472 2.844 0 3.922-2.582 3.922-3.082 0-.144-.121-.238-.265-.238-.192 0-.239.117-.286.238-.621 2.008-2.222 2.555-3.226 2.555s-3.418-.668-3.418-4.801v-.453zm-6.598-.453c.192-3.754 2.297-4.184 2.965-4.184 2.555 0 2.699 3.367 2.723 4.184zm-168.332-56.082c0-1.293 0-2.25-1.051-3.18-.835-.765-1.914-1.101-2.964-1.101-1.957 0-3.465 1.293-3.465 2.843 0 .696.453 1.032 1.004 1.032.574 0 .98-.407.98-.985 0-.976-.859-.976-1.219-.976.551-1.004 1.696-1.434 2.653-1.434 1.097 0 2.508.906 2.508 3.059v.953c-4.801.074-6.618 2.082-6.618 3.922 0 1.886 2.2 2.484 3.657 2.484 1.574 0 2.652-.957 3.105-2.102.094 1.122.836 1.981 1.863 1.981.504 0 1.887-.332 1.887-2.246v-1.336h-.523v1.336c0 1.363-.575 1.555-.907 1.555-.91 0-.91-1.266-.91-1.625zm-1.554 3.008c0 2.343-1.743 3.132-2.774 3.132-1.168 0-2.148-.863-2.148-2.007 0-3.157 4.062-3.442 4.922-3.493zm8.019-2.196c0-2.32.957-4.496 2.797-4.496.191 0 .238 0 .336.028-.192.093-.574.238-.574.882 0 .692.55.954.933.954.477 0 .953-.309.953-.954 0-.718-.644-1.386-1.671-1.386-2.032 0-2.723 2.199-2.868 2.652h-.023v-2.652l-3.203.261v.696c1.625 0 1.816.164 1.816 1.336v6.476c0 1.074-.262 1.074-1.816 1.074v.696c.668-.047 1.984-.047 2.699-.047.645 0 2.344 0 2.895.047v-.696h-.481c-1.742 0-1.793-.261-1.793-1.121zm9.102 0c0-2.32.957-4.496 2.797-4.496.191 0 .238 0 .335.028-.195.093-.574.238-.574.882 0 .692.547.954.93.954.48 0 .957-.309.957-.954 0-.718-.645-1.386-1.672-1.386-2.031 0-2.726 2.199-2.867 2.652h-.024v-2.652l-3.203.261v.696c1.625 0 1.817.164 1.817 1.336v6.476c0 1.074-.266 1.074-1.817 1.074v.696c.668-.047 1.985-.047 2.7-.047.644 0 2.339 0 2.89.047v-.696h-.476c-1.746 0-1.793-.261-1.793-1.121zm14.261.024c.528 0 .575 0 .575-.457 0-2.41-1.289-4.66-4.184-4.66-2.723 0-4.824 2.461-4.824 5.425 0 3.153 2.437 5.473 5.086 5.473 2.843 0 3.922-2.582 3.922-3.082 0-.145-.122-.238-.262-.238-.192 0-.242.117-.289.238-.621 2.008-2.223 2.555-3.227 2.555s-3.418-.668-3.418-4.801v-.453zm-6.597-.457c.191-3.75 2.297-4.18 2.965-4.18 2.558 0 2.699 3.367 2.722 4.18zm11.859-3.606h3.371V-168h-3.371v-4.398h-.523c-.024 2.25-.887 4.543-3.063 4.613v.48h2.031v6.641c0 2.652 1.77 3.203 3.039 3.203 1.504 0 2.293-1.48 2.293-3.203v-1.359h-.527v1.312c0 1.719-.691 2.723-1.625 2.723-1.625 0-1.625-2.223-1.625-2.629zm9.176 4.039c0-2.32.957-4.496 2.797-4.496.191 0 .238 0 .336.028-.192.093-.575.238-.575.882 0 .692.547.954.93.954.481 0 .957-.309.957-.954 0-.718-.644-1.386-1.672-1.386-2.031 0-2.722 2.199-2.867 2.652h-.023v-2.652l-3.203.261v.696c1.625 0 1.816.164 1.816 1.336v6.476c0 1.074-.266 1.074-1.816 1.074v.696c.668-.047 1.984-.047 2.699-.047.644 0 2.344 0 2.89.047v-.696h-.476c-1.742 0-1.793-.261-1.793-1.121zm14.332-.812c0-1.293 0-2.25-1.051-3.18-.836-.765-1.91-1.101-2.961-1.101-1.961 0-3.465 1.293-3.465 2.843 0 .696.453 1.032 1.004 1.032.574 0 .981-.407.981-.985 0-.976-.864-.976-1.219-.976.547-1.004 1.695-1.434 2.648-1.434 1.102 0 2.512.906 2.512 3.059v.953c-4.805.074-6.617 2.082-6.617 3.922 0 1.886 2.195 2.484 3.652 2.484 1.578 0 2.657-.957 3.11-2.102.093 1.122.836 1.981 1.863 1.981.5 0 1.887-.332 1.887-2.246v-1.336h-.524v1.336c0 1.363-.574 1.555-.91 1.555-.91 0-.91-1.266-.91-1.625zm-1.551 3.008c0 2.343-1.742 3.132-2.773 3.132-1.168 0-2.149-.863-2.149-2.007 0-3.157 4.063-3.442 4.922-3.493zm-83.933-82.239c0-.429 0-.55-.239-.55-.191 0-.644.527-.812.742-.742-.598-1.481-.742-2.246-.742-2.895 0-3.75 1.578-3.75 2.89 0 .266 0 1.102.906 1.938.766.672 1.574.836 2.676 1.051 1.316.261 1.625.335 2.222.812.43.359.743.887.743 1.555 0 1.027-.598 2.175-2.704 2.175-1.574 0-2.722-.91-3.25-3.296-.093-.434-.093-.457-.117-.481-.047-.098-.144-.098-.215-.098-.261 0-.261.122-.261.551v3.25c0 .43 0 .551.238.551.117 0 .141-.023.547-.527.121-.168.121-.215.48-.598.907 1.125 2.196 1.125 2.602 1.125 2.512 0 3.754-1.387 3.754-3.273 0-1.289-.789-2.055-1.004-2.27-.86-.742-1.504-.887-3.082-1.172-.719-.144-2.461-.48-2.461-1.914 0-.738.5-1.84 2.652-1.84 2.606 0 2.746 2.227 2.797 2.965.024.192.188.192.262.192.262 0 .262-.118.262-.551zm10.515 4.567c.524 0 .574 0 .574-.457 0-2.41-1.293-4.66-4.183-4.66-2.723 0-4.828 2.461-4.828 5.425 0 3.153 2.437 5.473 5.089 5.473 2.844 0 3.922-2.582 3.922-3.082 0-.145-.121-.238-.265-.238-.192 0-.239.117-.285.238-.622 2.008-2.223 2.555-3.227 2.555s-3.418-.668-3.418-4.801v-.453zm-6.598-.457c.192-3.75 2.297-4.18 2.965-4.18 2.559 0 2.7 3.367 2.723 4.18zm41.481.191c0-2.222 0-2.89-.551-3.656-.695-.93-1.816-1.074-2.629-1.074-2.316 0-3.226 1.984-3.418 2.461h-.023v-2.461l-3.25.261v.696c1.625 0 1.816.164 1.816 1.336v6.476c0 1.074-.261 1.074-1.816 1.074v.696c.621-.047 1.914-.047 2.582-.047.691 0 1.984 0 2.601.047v-.696c-1.527 0-1.812 0-1.812-1.074v-4.445c0-2.508 1.648-3.848 3.129-3.848 1.48 0 1.816 1.219 1.816 2.676v5.617c0 1.074-.265 1.074-1.816 1.074v.696c.621-.047 1.914-.047 2.582-.047.691 0 1.98 0 2.601.047v-.696c-1.195 0-1.789 0-1.812-.714zm13.434.695c0-3.085-2.344-5.546-5.114-5.546-2.867 0-5.14 2.535-5.14 5.546 0 3.059 2.39 5.352 5.117 5.352 2.816 0 5.137-2.344 5.137-5.352m-5.114 4.825c-.886 0-1.961-.379-2.652-1.551-.649-1.078-.672-2.484-.672-3.492 0-.907 0-2.364.742-3.438a3.06 3.06 0 0 1 2.559-1.41c.93 0 1.933.43 2.578 1.363.742 1.098.742 2.602.742 3.485 0 .84 0 2.32-.621 3.441-.668 1.149-1.769 1.602-2.676 1.602m16.477-5.52c0-2.222 0-2.89-.547-3.656-.695-.93-1.816-1.074-2.629-1.074-2.32 0-3.227 1.984-3.418 2.461h-.023v-2.461l-3.25.261v.696c1.625 0 1.816.164 1.816 1.336v6.476c0 1.074-.262 1.074-1.816 1.074v.696c.621-.047 1.91-.047 2.578-.047.695 0 1.984 0 2.605.047v-.696c-1.527 0-1.816 0-1.816-1.074v-4.445c0-2.508 1.648-3.848 3.133-3.848 1.48 0 1.816 1.219 1.816 2.676v5.617c0 1.074-.266 1.074-1.816 1.074v.696c.621-.047 1.91-.047 2.578-.047.695 0 1.984 0 2.605.047v-.696c-1.195 0-1.793 0-1.816-.714zm29.476-10.777-3.32.262v.695c1.625 0 1.816.168 1.816 1.336v12.523c0 1.074-.261 1.074-1.816 1.074v.696c.668-.047 1.84-.047 2.555-.047.719 0 1.914 0 2.582.047v-.696c-1.528 0-1.817 0-1.817-1.074zm9.657 6.308v.696c1.625 0 1.816.164 1.816 1.336v4.277c0 2.031-1.078 3.73-2.867 3.73-1.961 0-2.082-1.125-2.082-2.39v-7.91l-3.367.261v.696c1.816 0 1.816.07 1.816 2.195V-237c0 1.48 0 2.344.715 3.133.574.621 1.555.906 2.773.906.407 0 1.172 0 1.985-.695.691-.547 1.074-1.457 1.074-1.457v2.152l3.32-.238v-.696c-1.625 0-1.816-.168-1.816-1.335v-8.508zm14.382 1.434c-.285 0-1.168 0-1.168.98 0 .575.407.981.981.981.547 0 1.004-.336 1.004-1.027 0-1.602-1.672-2.75-3.61-2.75-2.796 0-5.019 2.488-5.019 5.5 0 3.054 2.293 5.398 4.996 5.398 3.152 0 3.871-2.867 3.871-3.082s-.168-.215-.238-.215c-.219 0-.242.07-.313.36-.523 1.695-1.816 2.41-3.105 2.41-1.457 0-3.395-1.266-3.395-4.899 0-3.965 2.032-4.945 3.227-4.945.906 0 2.223.359 2.769 1.289m10.907 3.301c.523 0 .574 0 .574-.457 0-2.41-1.293-4.66-4.184-4.66-2.726 0-4.828 2.461-4.828 5.425 0 3.153 2.438 5.473 5.09 5.473 2.844 0 3.922-2.582 3.922-3.082 0-.145-.121-.238-.266-.238-.191 0-.242.117-.285.238-.625 2.008-2.223 2.555-3.226 2.555s-3.418-.668-3.418-4.801v-.453zm-6.598-.457c.191-3.75 2.297-4.18 2.965-4.18 2.555 0 2.699 3.367 2.723 4.18zm24.867-.379c0-1.293 0-2.25-1.051-3.18-.835-.765-1.914-1.101-2.964-1.101-1.957 0-3.465 1.293-3.465 2.843 0 .696.453 1.032 1.004 1.032.574 0 .98-.407.98-.985 0-.976-.859-.976-1.219-.976.551-1.004 1.696-1.434 2.653-1.434 1.097 0 2.508.906 2.508 3.059v.953c-4.801.074-6.618 2.082-6.618 3.922 0 1.886 2.2 2.484 3.657 2.484 1.574 0 2.652-.957 3.105-2.102.094 1.122.836 1.981 1.863 1.981.504 0 1.891-.332 1.891-2.246v-1.336h-.527v1.336c0 1.363-.575 1.555-.907 1.555-.91 0-.91-1.266-.91-1.625zm-1.554 3.008c0 2.343-1.743 3.132-2.774 3.132-1.168 0-2.148-.863-2.148-2.007 0-3.157 4.062-3.442 4.922-3.493zm12.679-5.473c-.285 0-1.168 0-1.168.98 0 .575.407.981.977.981.551 0 1.004-.336 1.004-1.027 0-1.602-1.672-2.75-3.606-2.75-2.797 0-5.019 2.488-5.019 5.5 0 3.054 2.293 5.398 4.996 5.398 3.152 0 3.871-2.867 3.871-3.082s-.168-.215-.242-.215c-.215 0-.239.07-.309.36-.527 1.695-1.816 2.41-3.109 2.41-1.457 0-3.391-1.266-3.391-4.899 0-3.965 2.031-4.945 3.227-4.945.906 0 2.222.359 2.769 1.289m10.403 0c-.289 0-1.172 0-1.172.98 0 .575.406.981.98.981.551 0 1.004-.336 1.004-1.027 0-1.602-1.672-2.75-3.609-2.75-2.797 0-5.02 2.488-5.02 5.5 0 3.054 2.293 5.398 4.996 5.398 3.157 0 3.871-2.867 3.871-3.082s-.168-.215-.238-.215c-.215 0-.242.07-.312.36-.524 1.695-1.817 2.41-3.106 2.41-1.457 0-3.394-1.266-3.394-4.899 0-3.965 2.031-4.945 3.226-4.945.906 0 2.223.359 2.774 1.289m10.902 3.301c.523 0 .574 0 .574-.457 0-2.41-1.293-4.66-4.183-4.66-2.723 0-4.829 2.461-4.829 5.425 0 3.153 2.438 5.473 5.09 5.473 2.844 0 3.922-2.582 3.922-3.082 0-.145-.121-.238-.265-.238-.192 0-.239.117-.286.238-.621 2.008-2.222 2.555-3.226 2.555s-3.418-.668-3.418-4.801v-.453zm-6.598-.457c.192-3.75 2.297-4.18 2.965-4.18 2.555 0 2.699 3.367 2.723 4.18zm15.684-4.11c0-.429 0-.55-.242-.55-.192 0-.645.527-.813.742-.738-.598-1.48-.742-2.242-.742-2.895 0-3.754 1.578-3.754 2.89 0 .266 0 1.102.906 1.938.766.672 1.578.836 2.676 1.051 1.317.261 1.625.335 2.223.812.429.359.742.887.742 1.555 0 1.027-.598 2.175-2.699 2.175-1.578 0-2.723-.91-3.25-3.296-.094-.434-.094-.457-.121-.481-.047-.098-.145-.098-.215-.098-.262 0-.262.122-.262.551v3.25c0 .43 0 .551.238.551.121 0 .145-.023.551-.527.117-.168.117-.215.477-.598.91 1.125 2.199 1.125 2.605 1.125 2.508 0 3.75-1.387 3.75-3.273 0-1.289-.789-2.055-1.004-2.27-.859-.742-1.504-.887-3.082-1.172-.715-.144-2.461-.48-2.461-1.914 0-.738.504-1.84 2.653-1.84 2.605 0 2.75 2.227 2.797 2.965.023.192.191.192.261.192.266 0 .266-.118.266-.551zm10.582 3.731c0-1.293 0-2.25-1.051-3.18-.836-.765-1.91-1.101-2.961-1.101-1.961 0-3.465 1.293-3.465 2.843 0 .696.453 1.032 1.004 1.032.574 0 .981-.407.981-.985 0-.976-.864-.976-1.219-.976.547-1.004 1.695-1.434 2.648-1.434 1.102 0 2.512.906 2.512 3.059v.953c-4.805.074-6.617 2.082-6.617 3.922 0 1.886 2.195 2.484 3.652 2.484 1.578 0 2.657-.957 3.11-2.102.093 1.122.836 1.981 1.863 1.981.5 0 1.887-.332 1.887-2.246v-1.336h-.524v1.336c0 1.363-.574 1.555-.91 1.555-.91 0-.91-1.266-.91-1.625zm-1.551 3.008c0 2.343-1.742 3.132-2.773 3.132-1.168 0-2.149-.863-2.149-2.007 0-3.157 4.063-3.442 4.922-3.493zm39.641-6.235h2.699v-.695h-2.746v-2.797c0-2.148 1.098-3.25 2.078-3.25.191 0 .547.051.836.192-.098.027-.695.238-.695.933 0 .551.382.93.933.93.574 0 .957-.379.957-.953 0-.883-.859-1.578-2.008-1.578-1.675 0-3.562 1.289-3.562 3.726v2.797h-1.863v.695h1.863v7.836c0 1.074-.262 1.074-1.816 1.074v.696c.671-.047 1.984-.047 2.703-.047.644 0 2.339 0 2.89.047v-.696h-.476c-1.746 0-1.793-.261-1.793-1.121zm12.312 3.227c0-1.293 0-2.25-1.051-3.18-.835-.765-1.914-1.101-2.964-1.101-1.957 0-3.465 1.293-3.465 2.843 0 .696.453 1.032 1.004 1.032.574 0 .98-.407.98-.985 0-.976-.859-.976-1.219-.976.551-1.004 1.696-1.434 2.653-1.434 1.097 0 2.508.906 2.508 3.059v.953c-4.801.074-6.618 2.082-6.618 3.922 0 1.886 2.2 2.484 3.657 2.484 1.574 0 2.652-.957 3.105-2.102.094 1.122.836 1.981 1.863 1.981.504 0 1.891-.332 1.891-2.246v-1.336h-.527v1.336c0 1.363-.575 1.555-.907 1.555-.91 0-.91-1.266-.91-1.625zm-1.554 3.008c0 2.343-1.743 3.132-2.774 3.132-1.168 0-2.148-.863-2.148-2.007 0-3.157 4.062-3.442 4.922-3.493zm8.187-11.352c0-.621-.5-1.168-1.168-1.168-.621 0-1.148.5-1.148 1.145 0 .718.574 1.172 1.148 1.172.738 0 1.168-.622 1.168-1.149m-3.297 4.445v.696c1.528 0 1.746.14 1.746 1.312v6.5c0 1.074-.265 1.074-1.816 1.074v.696c.668-.047 1.816-.047 2.508-.047.261 0 1.648 0 2.461.047v-.696c-1.551 0-1.649-.117-1.649-1.05v-8.793zm10.035 1.125c0-.644-.547-1.148-1.144-1.148-.696 0-1.172.551-1.172 1.148a1.17 1.17 0 0 0 1.148 1.172c.645 0 1.168-.504 1.168-1.172m0 7.981c0-.645-.547-1.149-1.144-1.149-.696 0-1.172.551-1.172 1.149a1.17 1.17 0 0 0 1.148 1.172c.645 0 1.168-.504 1.168-1.172M300.59-330.785l-3.32.262v.695c1.625 0 1.816.168 1.816 1.336v14.293h.523c.098-.192.766-1.387.864-1.555.547.887 1.574 1.793 3.105 1.793 2.75 0 5.16-2.32 5.16-5.398 0-3.039-2.246-5.379-4.898-5.379-1.313 0-2.438.597-3.25 1.601zm.051 8.937c0-.429 0-.476.261-.859.575-.859 1.625-1.555 2.793-1.555.719 0 3.227.289 3.227 4.875 0 1.602-.238 2.606-.813 3.465-.476.742-1.433 1.484-2.625 1.484-1.293 0-2.129-.835-2.535-1.484-.308-.5-.308-.598-.308-1.004zm13.07-8.937-3.32.262v.695c1.625 0 1.812.168 1.812 1.336v12.523c0 1.074-.262 1.074-1.812 1.074v.696c.668-.047 1.836-.047 2.554-.047.719 0 1.914 0 2.582.047v-.696c-1.531 0-1.816 0-1.816-1.074zm13.359 11.472c0-3.085-2.343-5.546-5.117-5.546-2.863 0-5.137 2.535-5.137 5.546 0 3.059 2.391 5.352 5.114 5.352 2.82 0 5.14-2.344 5.14-5.352m-5.117 4.825c-.883 0-1.957-.379-2.652-1.551-.645-1.078-.668-2.484-.668-3.492 0-.907 0-2.364.738-3.438a3.07 3.07 0 0 1 2.559-1.41c.933 0 1.937.43 2.582 1.363.742 1.098.742 2.602.742 3.485 0 .84 0 2.32-.621 3.441-.668 1.149-1.77 1.602-2.68 1.602m15.195-8.555c-.285 0-1.168 0-1.168.98 0 .575.407.981.981.981.547 0 1.004-.336 1.004-1.027 0-1.602-1.676-2.75-3.61-2.75-2.796 0-5.019 2.488-5.019 5.5 0 3.054 2.293 5.398 4.996 5.398 3.152 0 3.871-2.867 3.871-3.082s-.168-.215-.238-.215c-.219 0-.242.07-.313.36-.523 1.695-1.816 2.41-3.105 2.41-1.457 0-3.395-1.266-3.395-4.899 0-3.965 2.032-4.945 3.227-4.945.906 0 2.223.359 2.769 1.289m10.403 0c-.285 0-1.172 0-1.172.98 0 .575.406.981.98.981.551 0 1.004-.336 1.004-1.027 0-1.602-1.672-2.75-3.609-2.75-2.793 0-5.02 2.488-5.02 5.5 0 3.054 2.297 5.398 4.996 5.398 3.157 0 3.872-2.867 3.872-3.082s-.168-.215-.239-.215c-.215 0-.242.07-.308.36-.528 1.695-1.821 2.41-3.11 2.41-1.457 0-3.39-1.266-3.39-4.899 0-3.965 2.031-4.945 3.222-4.945.911 0 2.227.359 2.774 1.289m12.719 3.73c0-3.085-2.344-5.546-5.114-5.546-2.867 0-5.14 2.535-5.14 5.546 0 3.059 2.39 5.352 5.117 5.352 2.816 0 5.137-2.344 5.137-5.352m-5.114 4.825c-.886 0-1.961-.379-2.652-1.551-.649-1.078-.672-2.484-.672-3.492 0-.907 0-2.364.742-3.438a3.06 3.06 0 0 1 2.559-1.41c.93 0 1.933.43 2.578 1.363.742 1.098.742 2.602.742 3.485 0 .84 0 2.32-.621 3.441-.668 1.149-1.769 1.602-2.676 1.602m18.039-8.293c-.406.027-.5.051-.5.265 0 .239.118.239.551.239h1.098c2.031 0 2.937 1.672 2.937 3.964 0 3.133-1.625 3.969-2.793 3.969-1.148 0-3.105-.551-3.8-2.125.765.117 1.457-.312 1.457-1.172 0-.695-.5-1.172-1.168-1.172-.575 0-1.196.336-1.196 1.243 0 2.129 2.125 3.871 4.778 3.871 2.843 0 4.949-2.172 4.949-4.586 0-2.199-1.77-3.918-4.063-4.324 2.078-.602 3.414-2.344 3.414-4.207 0-1.887-1.957-3.274-4.277-3.274-2.387 0-4.156 1.457-4.156 3.199 0 .957.738 1.149 1.097 1.149.504 0 1.079-.36 1.079-1.074 0-.766-.575-1.102-1.102-1.102-.145 0-.191 0-.262.027.907-1.625 3.153-1.625 3.274-1.625.789 0 2.34.356 2.34 2.7 0 .453-.071 1.793-.762 2.82-.719 1.051-1.531 1.121-2.176 1.144z"/></g></svg>