<svg xmlns="http://www.w3.org/2000/svg" width="115pt" height="115pt" viewBox="0 -115 115 115"><g id="page1"><path fill="#d9d9d9" d="M.75-.746h113.387v-113.387H.75Z"/><path fill="#f9b9b9" d="M.75-57.437h56.691v-56.696H.75Z"/><g fill="none" stroke="#000" stroke-linecap="round" stroke-linejoin="round"><path stroke-width=".5" d="M.75-57.437h56.691v-56.696H.75z"/><path stroke-width="1.5" d="M.75-.746h113.387v-113.387H.75z"/><path stroke-dasharray="7.55906 7.55906" d="M.75-57.437h113.387M57.441-.746v-113.387"/></g><path fill="none" stroke="maroon" stroke-linecap="round" stroke-linejoin="round" d="M82.129-85.785H57.44"/><path fill="maroon" d="m97.129-85.785-15-4.02v8.04z"/><path fill="none" stroke="maroon" stroke-linecap="round" stroke-linejoin="round" d="m97.129-85.785-15-4.02v8.04zM29.098-32.754v-24.684"/><path fill="maroon" d="m29.098-17.754 4.02-15h-8.04z"/><path fill="none" stroke="maroon" stroke-linecap="round" stroke-linejoin="round" d="m29.098-17.754 4.02-15h-8.04zM75.184-39.7 57.44-57.436"/><path fill="maroon" d="m85.79-29.094-7.767-13.445-5.683 5.684z"/><path fill="none" stroke="maroon" stroke-linecap="round" stroke-linejoin="round" d="m85.79-29.094-7.767-13.445-5.683 5.684z"/></g></svg>