<svg xmlns="http://www.w3.org/2000/svg" width="632pt" height="358pt" viewBox="0 -358 632 358"><g id="page1"><path fill="#ffffb2" d="M10.004-122.699h5.953c1.633 0 3.2.648 4.355 1.804L25.208-116a2.554 2.554 0 0 0 3.61 0l4.894-4.895a6.16 6.16 0 0 1 4.355-1.804h234.106a2.555 2.555 0 0 0 2.551-2.551v-142.914a2.555 2.555 0 0 0-2.551-2.551H38.066a6.16 6.16 0 0 0-4.355 1.805l-4.895 4.894a2.554 2.554 0 0 1-3.609 0l-4.895-4.894a6.16 6.16 0 0 0-4.355-1.805H4.051a2.55 2.55 0 0 0-2.551 2.551v142.914a2.55 2.55 0 0 0 2.55 2.551z"/><path fill="none" stroke="#b2b200" stroke-linecap="round" stroke-linejoin="round" stroke-width="3" d="M10.004-122.699h5.953c1.633 0 3.2.648 4.355 1.804L25.208-116a2.554 2.554 0 0 0 3.61 0l4.894-4.895a6.16 6.16 0 0 1 4.355-1.804h234.106a2.555 2.555 0 0 0 2.551-2.551v-142.914a2.555 2.555 0 0 0-2.551-2.551H38.066a6.16 6.16 0 0 0-4.355 1.805l-4.895 4.894a2.554 2.554 0 0 1-3.609 0l-4.895-4.894a6.16 6.16 0 0 0-4.355-1.805H4.051a2.55 2.55 0 0 0-2.551 2.551v142.914a2.55 2.55 0 0 0 2.55 2.551z"/><path fill="#ffd9b2" d="M35.516-139.707h5.953c1.633 0 3.199.648 4.355 1.805l4.895 4.894a2.553 2.553 0 0 0 3.61 0l4.894-4.894a6.16 6.16 0 0 1 4.355-1.805h217.098a2.55 2.55 0 0 0 2.551-2.551v-47.644a2.55 2.55 0 0 0-2.551-2.551H63.578c-1.633 0-3.2.648-4.355 1.801l-4.895 4.898a2.553 2.553 0 0 1-3.61 0l-4.894-4.898a6.17 6.17 0 0 0-4.355-1.801H29.562c-1.41 0-2.55 1.14-2.55 2.551v47.644a2.55 2.55 0 0 0 2.55 2.551z"/><path fill="none" stroke="#b25900" stroke-linecap="round" stroke-linejoin="round" stroke-width="3" d="M35.516-139.707h5.953c1.633 0 3.199.648 4.355 1.805l4.895 4.894a2.553 2.553 0 0 0 3.61 0l4.894-4.894a6.16 6.16 0 0 1 4.355-1.805h217.098a2.55 2.55 0 0 0 2.551-2.551v-47.644a2.55 2.55 0 0 0-2.551-2.551H63.578c-1.633 0-3.2.648-4.355 1.801l-4.895 4.898a2.553 2.553 0 0 1-3.61 0l-4.894-4.898a6.17 6.17 0 0 0-4.355-1.801H29.562c-1.41 0-2.55 1.14-2.55 2.551v47.644a2.55 2.55 0 0 0 2.55 2.551z"/><path fill="#b2ffb2" d="m51.215-215.645 9.504 8.84a16.22 16.22 0 0 0 11.05 4.344h94.008c4.098 0 8.047-1.551 11.047-4.344l19.008-17.683a5.93 5.93 0 0 0 0-8.688l-19.008-17.687a16.23 16.23 0 0 0-11.047-4.344H71.77a16.24 16.24 0 0 0-11.051 4.344l-19.004 17.687a5.93 5.93 0 0 0 0 8.688z"/><path fill="none" stroke="#00b200" stroke-linecap="round" stroke-linejoin="round" stroke-width="3" d="m51.215-215.645 9.504 8.84a16.22 16.22 0 0 0 11.05 4.344h94.008c4.098 0 8.047-1.551 11.047-4.344l19.008-17.683a5.93 5.93 0 0 0 0-8.688l-19.008-17.687a16.23 16.23 0 0 0-11.047-4.344H71.77a16.24 16.24 0 0 0-11.051 4.344l-19.004 17.687a5.93 5.93 0 0 0 0 8.688z"/><path fill="#b2ffff" d="M1.5-273.66h14.457c1.633 0 3.2.648 4.355 1.805l4.895 4.894a2.554 2.554 0 0 0 3.61 0l4.894-4.894a6.16 6.16 0 0 1 4.355-1.805h236.657v-52.746a557 557 0 0 0-136.614-17.008A557 557 0 0 0 1.5-326.406z"/><path fill="none" stroke="#00b2b2" stroke-linecap="round" stroke-linejoin="round" stroke-width="3" d="M1.5-273.66h14.457c1.633 0 3.2.648 4.355 1.805l4.895 4.894a2.554 2.554 0 0 0 3.61 0l4.894-4.894a6.16 6.16 0 0 1 4.355-1.805h236.657v-52.746a557 557 0 0 0-136.614-17.008A557 557 0 0 0 1.5-326.406z"/><path fill="#ffffb2" d="M320.078-109.613h5.949c1.637 0 3.203.648 4.356 1.804l4.898 4.899a2.55 2.55 0 0 0 3.606 0l4.898-4.899a6.15 6.15 0 0 1 4.356-1.804h271.015a2.55 2.55 0 0 0 2.551-2.551v-168.422a2.55 2.55 0 0 0-2.551-2.551H348.141a6.17 6.17 0 0 0-4.356 1.801l-4.898 4.898a2.55 2.55 0 0 1-3.606 0l-4.898-4.898a6.16 6.16 0 0 0-4.356-1.801h-11.902a2.553 2.553 0 0 0-2.555 2.551v168.422a2.553 2.553 0 0 0 2.555 2.551z"/><path fill="none" stroke="#b2b200" stroke-linecap="round" stroke-linejoin="round" stroke-width="3" d="M320.078-109.613h5.949c1.637 0 3.203.648 4.356 1.804l4.898 4.899a2.55 2.55 0 0 0 3.606 0l4.898-4.899a6.15 6.15 0 0 1 4.356-1.804h271.015a2.55 2.55 0 0 0 2.551-2.551v-168.422a2.55 2.55 0 0 0-2.551-2.551H348.141a6.17 6.17 0 0 0-4.356 1.801l-4.898 4.898a2.55 2.55 0 0 1-3.606 0l-4.898-4.898a6.16 6.16 0 0 0-4.356-1.801h-11.902a2.553 2.553 0 0 0-2.555 2.551v168.422a2.553 2.553 0 0 0 2.555 2.551z"/><path fill="#ffd9b2" d="M345.59-126.617h5.949a6.14 6.14 0 0 1 4.356 1.801l4.898 4.898a2.55 2.55 0 0 0 3.605 0l4.899-4.898a6.15 6.15 0 0 1 4.355-1.801H627.66a2.556 2.556 0 0 0 2.551-2.555v-47.644a2.55 2.55 0 0 0-2.551-2.551H373.652a6.15 6.15 0 0 0-4.355 1.804l-4.899 4.895a2.55 2.55 0 0 1-3.605 0l-4.898-4.895a6.15 6.15 0 0 0-4.356-1.804h-11.902a2.55 2.55 0 0 0-2.551 2.551v47.644a2.553 2.553 0 0 0 2.551 2.555z"/><path fill="none" stroke="#b25900" stroke-linecap="round" stroke-linejoin="round" stroke-width="3" d="M345.59-126.617h5.949a6.14 6.14 0 0 1 4.356 1.801l4.898 4.898a2.55 2.55 0 0 0 3.605 0l4.899-4.898a6.15 6.15 0 0 1 4.355-1.801H627.66a2.556 2.556 0 0 0 2.551-2.555v-47.644a2.55 2.55 0 0 0-2.551-2.551H373.652a6.15 6.15 0 0 0-4.355 1.804l-4.899 4.895a2.55 2.55 0 0 1-3.605 0l-4.898-4.895a6.15 6.15 0 0 0-4.356-1.804h-11.902a2.55 2.55 0 0 0-2.551 2.551v47.644a2.553 2.553 0 0 0 2.551 2.555z"/><path fill="#b2ffb2" d="m361.289-208.938 10.43 14.403a12.5 12.5 0 0 0 10.121 5.164h148.914c4.008 0 7.769-1.922 10.121-5.164l20.863-28.801a8.805 8.805 0 0 0 0-10.328l-20.863-28.801a12.5 12.5 0 0 0-10.121-5.164H381.84c-4.004 0-7.77 1.918-10.121 5.164l-20.86 28.801a8.8 8.8 0 0 0 0 10.328z"/><path fill="none" stroke="#00b200" stroke-linecap="round" stroke-linejoin="round" stroke-width="3" d="m361.289-208.938 10.43 14.403a12.5 12.5 0 0 0 10.121 5.164h148.914c4.008 0 7.769-1.922 10.121-5.164l20.863-28.801a8.805 8.805 0 0 0 0-10.328l-20.863-28.801a12.5 12.5 0 0 0-10.121-5.164H381.84c-4.004 0-7.77 1.918-10.121 5.164l-20.86 28.801a8.8 8.8 0 0 0 0 10.328z"/><path fill="#b2ffb2" d="m421.996-215.313 9.508 8.84c3 2.793 6.945 4.344 11.047 4.344h79.699c4.102 0 8.047-1.551 11.047-4.344l19.008-17.683a5.93 5.93 0 0 0 0-8.688l-19.008-17.687a16.23 16.23 0 0 0-11.047-4.344h-79.699a16.23 16.23 0 0 0-11.047 4.344l-19.008 17.687a5.93 5.93 0 0 0 0 8.688z"/><path fill="none" stroke="#00b200" stroke-linecap="round" stroke-linejoin="round" stroke-width="3" d="m421.996-215.313 9.508 8.84c3 2.793 6.945 4.344 11.047 4.344h79.699c4.102 0 8.047-1.551 11.047-4.344l19.008-17.683a5.93 5.93 0 0 0 0-8.688l-19.008-17.687a16.23 16.23 0 0 0-11.047-4.344h-79.699a16.23 16.23 0 0 0-11.047 4.344l-19.008 17.687a5.93 5.93 0 0 0 0 8.688z"/><path fill="#b2ffff" d="M311.57-286.086h14.457c1.637 0 3.203.652 4.356 1.805l4.898 4.898a2.55 2.55 0 0 0 3.606 0l4.898-4.898a6.17 6.17 0 0 1 4.356-1.805h273.566v-52.746a715.4 715.4 0 0 0-310.137 0z"/><path fill="none" stroke="#00b2b2" stroke-linecap="round" stroke-linejoin="round" stroke-width="3" d="M311.57-286.086h14.457c1.637 0 3.203.652 4.356 1.805l4.898 4.898a2.55 2.55 0 0 0 3.606 0l4.898-4.898a6.17 6.17 0 0 1 4.356-1.805h273.566v-52.746a715.4 715.4 0 0 0-310.137 0z"/><path d="M14.441-24.687c.5 0 .957 0 .957-.883 0-2.797-1.578-5.043-4.566-5.043-2.77 0-4.996 2.386-4.996 5.304a5.33 5.33 0 0 0 5.355 5.352c3.082 0 4.207-2.125 4.207-2.746 0-.145-.05-.672-.789-.672-.453 0-.597.168-.742.527-.598 1.387-2.148 1.504-2.605 1.504-1.98 0-3.559-1.504-3.825-3.343zm-6.98-1.317c.312-2.031 1.867-3.223 3.371-3.223 2.39 0 2.89 2.032 2.988 3.223zm19.329-1.098c0-2.343-1.102-3.441-3.06-3.441a4.18 4.18 0 0 0-3.082 1.363c0-.886 0-1.218-.957-1.218h-1.578c-.332 0-.957 0-.957.691s.625.691.957.691h.98v7.532h-.98c-.332 0-.957 0-.957.691s.625.691.957.691h3.512c.336 0 .957 0 .957-.691s-.621-.691-.957-.691h-.977v-4.328c0-2.317 1.625-3.344 2.915-3.344 1.386 0 1.671.789 1.671 2.148v5.524h-.976c-.336 0-.957 0-.957.691s.62.691.957.691h3.512c.332 0 .957 0 .957-.691s-.625-.691-.957-.691h-.98zm12.3-6.621c0-.738-.145-.98-.957-.98h-1.578c-.332 0-.953 0-.953.695 0 .692.62.692.953.692h.98v3.968c-.383-.383-1.363-1.195-2.82-1.195-2.531 0-4.73 2.293-4.73 5.305 0 2.941 2.054 5.281 4.515 5.281 1.555 0 2.582-.934 3.035-1.457 0 1.004 0 1.312.957 1.312h1.578c.332 0 .953 0 .953-.691s-.62-.691-.953-.691h-.98zm-1.555 9.082c0 1.34-1.097 3.297-2.89 3.297-1.723 0-3.106-1.742-3.106-3.894 0-2.293 1.625-3.918 3.32-3.918 1.555 0 2.676 1.41 2.676 2.652zm23.383-9.007c0-.598-.48-1.079-1.074-1.079-.602 0-1.078.48-1.078 1.079a1.07 1.07 0 0 0 1.078 1.074c.593 0 1.074-.477 1.074-1.074m-4.113 3.25c-.332 0-.953 0-.953.691s.62.691.953.691h2.558v7.532h-2.722c-.336 0-.98 0-.98.691s.644.691.98.691h6.64c.336 0 .957 0 .957-.691s-.62-.691-.957-.691h-2.363v-7.938c0-.738-.145-.976-.957-.976zm15.097 1.382h2.891c.336 0 .957 0 .957-.691s-.621-.691-.957-.691h-2.89v-1.196c0-1.863 1.671-1.863 2.437-1.863 0 .047.191.93.98.93.383 0 .93-.285.93-.957 0-1.36-1.812-1.36-2.172-1.36-1.816 0-3.73 1.028-3.73 3.153v1.293h-2.364c-.336 0-.98 0-.98.691s.621.691.957.691h2.387v7.532h-2.27c-.336 0-.953 0-.953.691s.617.691.953.691h6.094c.336 0 .957 0 .957-.691s-.621-.691-.957-.691h-2.27zm-8.308-25.769c0-1.817-1.364-3.73-4.59-3.73-1.004 0-3.32 0-3.32 1.648 0 .648.453 1.004.98 1.004.14 0 .93-.047.953-1.051 0-.117.024-.14.528-.191.285-.024.597-.024.886-.024.547 0 1.36 0 2.149.598.86.668.86 1.34.86 2.031-1.411.047-2.798.145-4.278.621-1.196.406-2.723 1.266-2.723 2.89 0 1.7 1.504 3.133 3.727 3.133.765 0 2.246-.12 3.488-.98.48.79 1.676.836 2.582.836.574 0 1.148 0 1.148-.695 0-.692-.625-.692-.957-.692-.62 0-1.097-.047-1.433-.191zm-1.555 3.629c0 .55 0 1.054-.977 1.508-.84.406-1.96.406-2.03.406-1.415 0-2.438-.766-2.438-1.746 0-1.41 2.554-2.223 5.445-2.223zm8.789 8.461c.332 0 .953 0 .953-.692 0-.695-.62-.695-.953-.695h-.98v-5.113c.574.644 1.457 1.34 2.796 1.34 2.532 0 4.754-2.27 4.754-5.305 0-2.942-2.007-5.281-4.492-5.281-1.746 0-2.844 1.05-3.058 1.289 0-.79 0-1.149-.957-1.149h-1.579c-.331 0-.953 0-.953.696 0 .69.622.69.954.69h.98v12.833h-.98c-.332 0-.954 0-.954.695 0 .692.622.692.954.692zm-.98-11.66c0-1.364 1.34-2.7 2.89-2.7 1.723 0 3.106 1.742 3.106 3.895 0 2.293-1.625 3.918-3.32 3.918-1.793 0-2.676-2.031-2.676-3.227zm13.612 1.839c0-2.843 2.009-4.539 4.04-4.539.121 0 .262 0 .383.024.07.86.742.93.906.93.55 0 .934-.407.934-.93 0-1.032-1.004-1.41-2.2-1.41-1.601 0-2.96.714-4.062 2.054v-.933c0-.742-.14-.98-.953-.98h-2.414c-.336 0-.957 0-.957.694 0 .692.62.692.957.692h1.812v7.527h-1.812c-.336 0-.957 0-.957.692 0 .695.62.695.957.695h5.875c.336 0 .957 0 .957-.695 0-.692-.621-.692-.957-.692H83.46zm14.356-9.034c0-.598-.476-1.075-1.074-1.075s-1.078.477-1.078 1.074.48 1.078 1.078 1.078 1.074-.48 1.074-1.078m-4.109 3.25c-.336 0-.957 0-.957.694 0 .692.621.692.957.692h2.559v7.527h-2.727c-.336 0-.98 0-.98.692 0 .695.644.695.98.695h6.645c.332 0 .957 0 .957-.695 0-.692-.625-.692-.957-.692h-2.368v-7.933c0-.742-.144-.98-.957-.98z"/><path fill="none" stroke="#000" stroke-width=".796" d="M104.395-48.367h7.382"/><path d="M116.629-42.695c.332 0 .953 0 .953-.692 0-.695-.621-.695-.953-.695h-.981v-5.113c.571.644 1.457 1.34 2.797 1.34 2.532 0 4.754-2.27 4.754-5.305 0-2.942-2.008-5.281-4.492-5.281-1.746 0-2.844 1.05-3.059 1.289 0-.79 0-1.149-.957-1.149h-1.578c-.332 0-.957 0-.957.696 0 .69.625.69.957.69h.981v12.833h-.981c-.332 0-.957 0-.957.695 0 .692.625.692.957.692zm-.981-11.66c0-1.364 1.336-2.7 2.891-2.7 1.719 0 3.106 1.742 3.106 3.895 0 2.293-1.625 3.918-3.321 3.918-1.793 0-2.676-2.031-2.676-3.227zm19.348 1.195c0-2.988-2.176-5.356-4.754-5.356-2.582 0-4.758 2.368-4.758 5.356 0 3.012 2.2 5.304 4.758 5.304 2.555 0 4.754-2.292 4.754-5.304m-4.754 3.918c-1.722 0-3.203-1.817-3.203-4.086 0-2.223 1.531-3.8 3.203-3.8s3.203 1.577 3.203 3.8c0 2.293-1.48 4.086-3.203 4.086m11.321-3.274c0-2.843 2.007-4.539 4.039-4.539.117 0 .261 0 .382.024.071.86.739.93.907.93.55 0 .929-.407.929-.93 0-1.032-1-1.41-2.199-1.41-1.598 0-2.961.714-4.058 2.054v-.933c0-.742-.145-.98-.958-.98h-2.414c-.332 0-.957 0-.957.694 0 .692.625.692.957.692h1.817v7.527h-1.817c-.332 0-.957 0-.957.692 0 .695.625.695.957.695h5.879c.336 0 .957 0 .957-.695 0-.692-.621-.692-.957-.692h-2.507zm12.296-4.398h3.875c.332 0 .954 0 .954-.691 0-.696-.622-.696-.954-.696h-3.875v-1.957c0-.43 0-.98-.761-.98-.789 0-.789.55-.789.98v1.957h-2.032c-.336 0-.98 0-.98.696 0 .69.621.69.957.69h2.055v6.024c0 2.223 1.531 3.035 3.25 3.035 1.289 0 3.656-.644 3.656-3.081 0-.481 0-1.004-.789-1.004-.766 0-.766.523-.766 1.027-.023 1.434-1.387 1.672-1.933 1.672-1.868 0-1.868-1.196-1.868-1.77zm17.036 2.129c0-1.817-1.364-3.73-4.59-3.73-1.004 0-3.321 0-3.321 1.648 0 .648.454 1.004.981 1.004.14 0 .93-.047.953-1.051 0-.117.023-.14.527-.191.285-.024.598-.024.883-.024.551 0 1.363 0 2.152.598.86.668.86 1.34.86 2.031-1.41.047-2.797.145-4.277.621-1.196.406-2.723 1.266-2.723 2.89 0 1.7 1.504 3.133 3.726 3.133.766 0 2.247-.12 3.489-.98.476.79 1.672.836 2.582.836.574 0 1.144 0 1.144-.695 0-.692-.621-.692-.953-.692-.621 0-1.101-.047-1.433-.191zm-1.555 3.629c0 .55 0 1.054-.981 1.508-.836.406-1.961.406-2.031.406-1.41 0-2.437-.766-2.437-1.746 0-1.41 2.558-2.223 5.449-2.223zm14.187 4.519c0-.312-.168-.406-.5-.644-3.3-2.274-4.113-5.688-4.113-8.008 0-2.27.766-5.711 4.113-8.027.332-.239.5-.336.5-.645 0-.242-.121-.625-.691-.625-.598 0-2.367 1.387-3.465 2.941-1.34 1.864-2.008 4.086-2.008 6.356 0 2.652.957 4.875 1.957 6.285 1.102 1.527 2.844 2.988 3.516 2.988.57 0 .691-.406.691-.62m10.293-8.654a10.93 10.93 0 0 0-2.175-6.593c-.813-1.101-2.579-2.703-3.297-2.703-.551 0-.692.406-.692.625 0 .285.164.406.598.691 2.914 2.055 4.012 5.258 4.012 7.958 0 2.152-.692 5.664-4.11 8.03-.308.212-.5.333-.5.645 0 .215.141.621.692.621.597 0 2.367-1.386 3.465-2.941a10.96 10.96 0 0 0 2.007-6.332M11.719-89.45c0-.597-.48-1.073-1.078-1.073s-1.075.476-1.075 1.074a1.07 1.07 0 0 0 1.075 1.074c.597 0 1.078-.477 1.078-1.074M7.605-86.2c-.332 0-.957 0-.957.692 0 .695.625.695.957.695h2.56v7.528H7.437c-.333 0-.977 0-.977.691 0 .696.644.696.976.696h6.645c.336 0 .957 0 .957-.696 0-.691-.621-.691-.957-.691h-2.363v-7.934c0-.742-.145-.98-.957-.98zm15.098 1.388h2.89c.337 0 .958 0 .958-.696 0-.691-.621-.691-.957-.691h-2.89v-1.195c0-1.864 1.671-1.864 2.437-1.864 0 .047.191.93.98.93.379 0 .93-.285.93-.953 0-1.363-1.817-1.363-2.176-1.363-1.812 0-3.727 1.027-3.727 3.152v1.293h-2.367c-.332 0-.976 0-.976.691 0 .695.62.695.953.695h2.39v7.528h-2.27c-.335 0-.956 0-.956.691 0 .696.621.696.957.696h6.094c.336 0 .957 0 .957-.696 0-.691-.621-.691-.957-.691h-2.27zm23.524 14.218c.336 0 .957 0 .957-.695 0-.692-.621-.692-.957-.692h-.98v-5.113c.573.645 1.456 1.336 2.796 1.336 2.535 0 4.754-2.27 4.754-5.305 0-2.937-2.008-5.28-4.492-5.28-1.742 0-2.844 1.054-3.059 1.288 0-.785 0-1.144-.953-1.144h-1.578c-.336 0-.957 0-.957.691 0 .695.62.695.957.695h.98v12.832h-.98c-.336 0-.957 0-.957.692 0 .695.62.695.957.695zm-.98-11.664c0-1.36 1.339-2.699 2.894-2.699 1.718 0 3.105 1.746 3.105 3.894 0 2.297-1.625 3.922-3.324 3.922-1.79 0-2.676-2.03-2.676-3.226zm19.351 1.196c0-2.985-2.176-5.352-4.754-5.352-2.582 0-4.758 2.367-4.758 5.352 0 3.011 2.2 5.304 4.758 5.304 2.554 0 4.754-2.293 4.754-5.305m-4.754 3.921c-1.723 0-3.203-1.82-3.203-4.09 0-2.222 1.527-3.796 3.203-3.796 1.672 0 3.199 1.574 3.199 3.796 0 2.297-1.48 4.09-3.2 4.09m11.317-3.276c0-2.844 2.008-4.539 4.04-4.539.12 0 .26 0 .382.023.074.86.742.934.91.934.547 0 .93-.406.93-.934 0-1.027-1.004-1.41-2.2-1.41-1.597 0-2.96.719-4.062 2.055v-.93c0-.742-.14-.98-.953-.98h-2.414c-.336 0-.957 0-.957.691 0 .695.621.695.957.695h1.816v7.528h-1.816c-.336 0-.957 0-.957.691 0 .696.621.696.957.696h5.879c.332 0 .953 0 .953-.696 0-.691-.621-.691-.953-.691H71.16zm12.3-4.394h3.872c.336 0 .957 0 .957-.696 0-.691-.621-.691-.957-.691h-3.871v-1.961c0-.43 0-.98-.766-.98-.789 0-.789.55-.789.98v1.96h-2.031c-.332 0-.977 0-.977.692 0 .695.621.695.954.695h2.054v6.02c0 2.223 1.531 3.035 3.25 3.035 1.293 0 3.656-.644 3.656-3.082 0-.476 0-1.004-.785-1.004-.765 0-.765.528-.765 1.028-.024 1.433-1.387 1.675-1.938 1.675-1.863 0-1.863-1.195-1.863-1.77zm17.032 2.125c0-1.817-1.36-3.727-4.586-3.727-1.004 0-3.324 0-3.324 1.648 0 .645.457 1.004.98 1.004.145 0 .934-.047.957-1.05 0-.122.024-.145.528-.192.285-.023.594-.023.883-.023.547 0 1.36 0 2.148.597.863.668.863 1.336.863 2.032-1.41.046-2.797.14-4.277.62-1.195.407-2.727 1.266-2.727 2.891 0 1.696 1.508 3.13 3.727 3.13.766 0 2.25-.118 3.492-.977.477.785 1.672.836 2.578.836.575 0 1.149 0 1.149-.696 0-.691-.621-.691-.957-.691-.621 0-1.098-.05-1.434-.192zm-1.55 3.632c0 .551 0 1.051-.981 1.508-.836.406-1.961.406-2.031.406-1.41 0-2.438-.765-2.438-1.746 0-1.41 2.555-2.222 5.45-2.222z"/><path fill="none" stroke="#000" stroke-width=".796" d="M104.398-76.266h7.379"/><path d="M122.695-78.504c0-.621-.593-.621-.789-.621-.547 0-.644.191-.761.523-.528 1.317-1.7 1.461-2.274 1.461-2.027 0-3.75-1.699-3.75-3.921 0-1.22.692-3.965 3.824-3.965.645 0 1.149.046 1.364.07.168.047.187.07.187.191.074.98.817 1.004.957 1.004.527 0 .981-.36.981-1.004 0-1.648-2.414-1.648-3.465-1.648-4.086 0-5.399 3.344-5.399 5.352 0 2.914 2.219 5.304 5.086 5.304 3.203 0 4.039-2.363 4.039-2.746m11.395-4.398c0-2.34-1.102-3.442-3.059-3.442a4.2 4.2 0 0 0-3.086 1.363v-4.542c0-.739-.14-.977-.953-.977h-1.578c-.336 0-.957 0-.957.691s.621.692.957.692h.981v11.832h-.981c-.336 0-.957 0-.957.691 0 .696.621.696.957.696h3.512c.336 0 .957 0 .957-.696 0-.691-.621-.691-.957-.691h-.981v-4.324c0-2.32 1.625-3.348 2.918-3.348 1.383 0 1.672.789 1.672 2.152v5.52h-.98c-.332 0-.953 0-.953.691 0 .696.621.696.953.696h3.515c.332 0 .953 0 .953-.696 0-.691-.621-.691-.953-.691h-.98zm9.527-6.548c0-.597-.476-1.073-1.074-1.073s-1.078.476-1.078 1.074c0 .597.48 1.074 1.078 1.074s1.074-.477 1.074-1.074m-4.109 3.25c-.336 0-.957 0-.957.692 0 .695.621.695.957.695h2.555v7.528h-2.723c-.336 0-.981 0-.981.691 0 .696.645.696.981.696h6.644c.332 0 .954 0 .954-.696 0-.691-.622-.691-.954-.691h-2.367v-7.934c0-.742-.144-.98-.957-.98zm19.18.98c0-.742-.141-.98-.954-.98h-1.578c-.336 0-.957 0-.957.691 0 .695.621.695.957.695h.981v5.184c0 1.961-1.625 2.488-2.699 2.488-1.891 0-1.891-.863-1.891-1.601v-6.477c0-.742-.141-.98-.953-.98h-1.578c-.336 0-.957 0-.957.691 0 .695.621.695.957.695h.976v6.188c0 2.2 1.438 2.867 3.274 2.867 1.461 0 2.367-.598 2.843-1.004 0 .864.579.864.981.864h1.578c.336 0 .957 0 .957-.696 0-.691-.621-.691-.957-.691h-.98zm12.347-.289c0-.383 0-.906-.668-.906-.574 0-.719.547-.719.574-.953-.574-2.054-.574-2.531-.574-3.894 0-4.422 1.984-4.422 2.797 0 .976.575 1.648 1.387 2.101.766.43 1.457.551 3.418.86.93.168 2.844.476 2.844 1.793 0 .882-.813 1.722-3.035 1.722-1.528 0-2.536-.601-3.036-2.32-.117-.336-.191-.598-.789-.598-.789 0-.789.453-.789.934v2.46c0 .384 0 .907.672.907.285 0 .5 0 .86-.976 1.097.906 2.339.976 3.082.976 4.421 0 4.421-2.867 4.421-3.105 0-2.485-2.964-2.989-4.113-3.153-2.101-.359-3.535-.601-3.535-1.601 0-.649.742-1.41 2.988-1.41 2.27 0 2.368 1.074 2.414 1.695.047.476.477.55.762.55.789 0 .789-.429.789-.91zm12.16 2.821c0-1.817-1.363-3.727-4.59-3.727-1.003 0-3.324 0-3.324 1.648 0 .645.457 1.004.981 1.004.144 0 .933-.047.957-1.05 0-.122.023-.145.527-.192.285-.023.598-.023.883-.023.551 0 1.363 0 2.152.597.86.668.86 1.336.86 2.032-1.411.046-2.797.14-4.278.62-1.195.407-2.726 1.266-2.726 2.891 0 1.696 1.508 3.13 3.73 3.13.766 0 2.246-.118 3.488-.977.477.785 1.672.836 2.583.836.57 0 1.144 0 1.144-.696 0-.691-.621-.691-.953-.691-.621 0-1.102-.05-1.434-.192zm-1.554 3.632c0 .551 0 1.051-.981 1.508-.836.406-1.961.406-2.031.406-1.41 0-2.438-.765-2.438-1.746 0-1.41 2.555-2.222 5.45-2.222zm14.187 4.515c0-.308-.168-.405-.5-.644-3.301-2.27-4.113-5.687-4.113-8.004 0-2.273.765-5.71 4.113-8.03.332-.239.5-.333.5-.645 0-.239-.121-.621-.695-.621-.594 0-2.363 1.386-3.461 2.937-1.34 1.867-2.008 4.086-2.008 6.36 0 2.652.953 4.874 1.957 6.285 1.102 1.527 2.844 2.984 3.512 2.984.574 0 .695-.406.695-.621m10.293-8.648c0-1.868-.453-4.278-2.176-6.598-.812-1.098-2.578-2.7-3.297-2.7-.55 0-.695.407-.695.622 0 .285.168.406.602.691 2.914 2.055 4.011 5.258 4.011 7.961 0 2.148-.695 5.664-4.109 8.027-.309.215-.504.336-.504.645 0 .215.145.621.695.621.598 0 2.368-1.387 3.465-2.937a11 11 0 0 0 2.008-6.332m21.539-1.625h3.871c.336 0 .957 0 .957-.696 0-.691-.621-.691-.957-.691h-3.871v-1.961c0-.43 0-.98-.762-.98-.789 0-.789.55-.789.98v1.96h-2.031c-.336 0-.98 0-.98.692 0 .695.621.695.957.695h2.054v6.02c0 2.223 1.528 3.035 3.25 3.035 1.289 0 3.657-.644 3.657-3.082 0-.476 0-1.004-.789-1.004-.766 0-.766.528-.766 1.028-.023 1.433-1.387 1.675-1.938 1.675-1.863 0-1.863-1.195-1.863-1.77zm17.129 1.91c0-2.34-1.101-3.442-3.059-3.442a4.18 4.18 0 0 0-3.082 1.363v-4.542c0-.739-.144-.977-.957-.977h-1.578c-.332 0-.957 0-.957.691s.625.692.957.692h.981v11.832h-.981c-.332 0-.957 0-.957.691 0 .696.625.696.957.696h3.516c.332 0 .953 0 .953-.696 0-.691-.621-.691-.953-.691h-.981v-4.324c0-2.32 1.625-3.348 2.915-3.348 1.386 0 1.671.789 1.671 2.152v5.52h-.976c-.336 0-.957 0-.957.691 0 .696.621.696.957.696h3.512c.332 0 .957 0 .957-.696 0-.691-.625-.691-.957-.691h-.981zm12.25 2.414c.504 0 .957 0 .957-.883 0-2.797-1.574-5.043-4.562-5.043-2.774 0-4.996 2.39-4.996 5.305a5.327 5.327 0 0 0 5.351 5.351c3.082 0 4.207-2.125 4.207-2.746 0-.144-.047-.668-.789-.668-.453 0-.598.164-.738.524-.598 1.386-2.153 1.507-2.606 1.507-1.984 0-3.562-1.507-3.824-3.347zm-6.976-1.317c.308-2.03 1.863-3.222 3.371-3.222 2.386 0 2.89 2.03 2.988 3.222zm19.328-1.097c0-2.34-1.102-3.442-3.063-3.442-1.625 0-2.676.91-3.082 1.363 0-.886 0-1.218-.953-1.218h-1.578c-.336 0-.957 0-.957.691 0 .695.621.695.957.695h.98v7.528h-.98c-.336 0-.957 0-.957.691 0 .696.621.696.957.696h3.512c.336 0 .957 0 .957-.696 0-.691-.621-.691-.957-.691h-.981v-4.324c0-2.32 1.625-3.348 2.918-3.348 1.383 0 1.672.789 1.672 2.152v5.52h-.981c-.332 0-.957 0-.957.691 0 .696.625.696.957.696h3.512c.336 0 .957 0 .957-.696 0-.691-.621-.691-.957-.691h-.976zM47.723-166.48c0-1.29 0-2.247-1.051-3.18-.836-.762-1.91-1.098-2.961-1.098-1.961 0-3.469 1.289-3.469 2.844 0 .691.457 1.027 1.008 1.027.57 0 .977-.406.977-.98 0-.981-.86-.981-1.22-.981.552-1.004 1.7-1.433 2.653-1.433 1.102 0 2.512.91 2.512 3.058v.957c-4.805.071-6.621 2.078-6.621 3.918 0 1.891 2.199 2.489 3.656 2.489 1.578 0 2.652-.957 3.105-2.106.098 1.125.836 1.985 1.868 1.985.5 0 1.886-.336 1.886-2.247v-1.339h-.527v1.339c0 1.364-.57 1.555-.906 1.555-.91 0-.91-1.269-.91-1.625zm-1.551 3.011c0 2.34-1.746 3.129-2.774 3.129-1.171 0-2.148-.859-2.148-2.008 0-3.152 4.063-3.441 4.922-3.488zm9.883 7.313c-1.532 0-1.817 0-1.817-1.078v-4.157c.43.598 1.41 1.532 2.942 1.532 2.746 0 5.16-2.321 5.16-5.403 0-3.035-2.246-5.379-4.852-5.379-2.101 0-3.226 1.508-3.297 1.602v-1.602l-3.324.266v.691c1.676 0 1.82.168 1.82 1.219v11.231c0 1.078-.265 1.078-1.82 1.078v.691c.625-.047 1.914-.047 2.582-.047.692 0 1.985 0 2.606.047zm-1.817-11.567c0-.453 0-.48.262-.859.719-1.078 1.89-1.531 2.797-1.531 1.793 0 3.226 2.175 3.226 4.851 0 2.844-1.625 4.922-3.464 4.922a2.8 2.8 0 0 1-1.91-.762c-.551-.55-.91-1.031-.91-1.699zm12.953 2.055c0-2.316.957-4.492 2.793-4.492.196 0 .243 0 .336.023-.191.098-.57.239-.57.883 0 .695.547.957.93.957.476 0 .957-.312.957-.957 0-.715-.645-1.387-1.676-1.387-2.031 0-2.723 2.2-2.867 2.657h-.024v-2.657l-3.203.266v.691c1.625 0 1.82.168 1.82 1.34v6.477c0 1.074-.265 1.074-1.82 1.074v.691c.672-.046 1.985-.046 2.703-.046.645 0 2.34 0 2.89.046v-.691h-.476c-1.746 0-1.793-.262-1.793-1.121zm9.266-9.152c0-.621-.5-1.172-1.168-1.172-.625 0-1.148.504-1.148 1.148 0 .715.574 1.172 1.148 1.172.738 0 1.168-.625 1.168-1.148m-3.297 4.445v.691c1.528 0 1.746.145 1.746 1.317v6.5c0 1.074-.265 1.074-1.816 1.074v.691c.668-.046 1.816-.046 2.508-.046.261 0 1.648 0 2.46.046v-.691c-1.55 0-1.648-.121-1.648-1.051v-8.797zm19.293 14.219c-1.527 0-1.812 0-1.812-1.078v-4.157c.43.598 1.406 1.532 2.937 1.532 2.75 0 5.16-2.321 5.16-5.403 0-3.035-2.246-5.379-4.847-5.379-2.106 0-3.227 1.508-3.301 1.602v-1.602l-3.32.266v.691c1.671 0 1.816.168 1.816 1.219v11.231c0 1.078-.266 1.078-1.817 1.078v.691c.622-.047 1.91-.047 2.583-.047.691 0 1.98 0 2.601.047zm-1.812-11.567c0-.453 0-.48.261-.859a3.44 3.44 0 0 1 2.793-1.531c1.793 0 3.227 2.175 3.227 4.851 0 2.844-1.625 4.922-3.465 4.922a2.8 2.8 0 0 1-1.91-.762c-.55-.55-.906-1.031-.906-1.699zm20.629 2.508c0-3.082-2.344-5.543-5.114-5.543-2.867 0-5.14 2.531-5.14 5.543 0 3.059 2.39 5.356 5.117 5.356 2.816 0 5.137-2.344 5.137-5.356m-5.114 4.828c-.886 0-1.961-.383-2.652-1.554-.649-1.075-.672-2.485-.672-3.489 0-.91 0-2.367.742-3.441a3.06 3.06 0 0 1 2.559-1.41c.93 0 1.933.429 2.578 1.363.742 1.098.742 2.605.742 3.488 0 .836 0 2.321-.621 3.442-.668 1.148-1.769 1.601-2.676 1.601m9.836-5.281c0-2.316.953-4.492 2.793-4.492.192 0 .238 0 .336.023-.191.098-.574.239-.574.883 0 .695.551.957.933.957.477 0 .958-.312.958-.957 0-.715-.649-1.387-1.676-1.387-2.032 0-2.723 2.2-2.867 2.657h-.024v-2.657l-3.203.266v.691c1.625 0 1.816.168 1.816 1.34v6.477c0 1.074-.261 1.074-1.816 1.074v.691c.672-.046 1.984-.046 2.699-.046.649 0 2.344 0 2.895.046v-.691h-.481c-1.742 0-1.789-.262-1.789-1.121zm9.121-4.039h3.371v-.691h-3.371v-4.399h-.523c-.024 2.246-.887 4.539-3.059 4.613v.477h2.032v6.644c0 2.653 1.765 3.204 3.035 3.204 1.504 0 2.293-1.485 2.293-3.204v-1.363h-.528v1.317c0 1.718-.691 2.722-1.625 2.722-1.625 0-1.625-2.222-1.625-2.629zm14.309 3.227c0-1.29 0-2.247-1.051-3.18-.836-.762-1.91-1.098-2.961-1.098-1.961 0-3.465 1.289-3.465 2.844 0 .691.453 1.027 1.004 1.027.574 0 .981-.406.981-.98 0-.981-.864-.981-1.219-.981.547-1.004 1.695-1.433 2.648-1.433 1.102 0 2.512.91 2.512 3.058v.957c-4.805.071-6.617 2.078-6.617 3.918 0 1.891 2.195 2.489 3.652 2.489 1.578 0 2.657-.957 3.11-2.106.093 1.125.836 1.985 1.863 1.985.5 0 1.887-.336 1.887-2.247v-1.339h-.524v1.339c0 1.364-.574 1.555-.91 1.555-.91 0-.91-1.269-.91-1.625zm-1.551 3.011c0 2.34-1.742 3.129-2.773 3.129-1.168 0-2.149-.859-2.149-2.008 0-3.152 4.063-3.441 4.922-3.488zM20.836-233.008c0-.43 0-.551-.238-.551-.192 0-.645.528-.813.743-.738-.598-1.48-.743-2.246-.743-2.89 0-3.75 1.579-3.75 2.891 0 .266 0 1.102.906 1.938.766.667 1.578.835 2.68 1.05 1.313.262 1.625.336 2.219.813.43.359.742.883.742 1.554 0 1.028-.598 2.172-2.7 2.172-1.577 0-2.722-.906-3.25-3.297-.097-.429-.097-.453-.12-.476-.047-.098-.141-.098-.215-.098-.262 0-.262.121-.262.551v3.25c0 .43 0 .551.238.551.121 0 .145-.024.551-.528.117-.167.117-.214.477-.597.906 1.125 2.199 1.125 2.605 1.125 2.508 0 3.75-1.387 3.75-3.274 0-1.293-.785-2.058-1.004-2.269-.86-.742-1.504-.887-3.082-1.176-.715-.141-2.46-.476-2.46-1.91 0-.738.503-1.84 2.652-1.84 2.605 0 2.75 2.223 2.797 2.965.023.191.19.191.261.191.262 0 .262-.121.262-.55zm10.516 4.563c.527 0 .574 0 .574-.453 0-2.415-1.29-4.661-4.184-4.661-2.722 0-4.824 2.461-4.824 5.426 0 3.153 2.438 5.473 5.09 5.473 2.844 0 3.918-2.582 3.918-3.082 0-.145-.121-.242-.262-.242-.191 0-.242.121-.289.242-.621 2.008-2.219 2.554-3.227 2.554-1 0-3.414-.667-3.414-4.804v-.453zm-6.594-.453c.191-3.75 2.293-4.18 2.96-4.18 2.56 0 2.704 3.367 2.727 4.18zm36.695 9.941c-1.527 0-1.812 0-1.812-1.074v-4.16c.43.597 1.406 1.531 2.937 1.531 2.75 0 5.16-2.32 5.16-5.403 0-3.035-2.246-5.375-4.847-5.375-2.106 0-3.227 1.504-3.301 1.598v-1.598l-3.32.262v.692c1.671 0 1.816.168 1.816 1.218v11.235c0 1.074-.266 1.074-1.816 1.074v.691c.62-.047 1.91-.047 2.582-.047.691 0 1.98 0 2.601.047zm-1.812-11.566c0-.454 0-.481.261-.86a3.44 3.44 0 0 1 2.793-1.531c1.793 0 3.227 2.176 3.227 4.851 0 2.844-1.625 4.922-3.465 4.922a2.82 2.82 0 0 1-1.91-.761c-.55-.551-.906-1.028-.906-1.7zm20.629 2.507c0-3.082-2.344-5.543-5.114-5.543-2.867 0-5.14 2.536-5.14 5.543 0 3.063 2.39 5.356 5.117 5.356 2.816 0 5.136-2.344 5.136-5.356m-5.114 4.828c-.887 0-1.96-.382-2.656-1.554-.644-1.074-.668-2.485-.668-3.488 0-.907 0-2.364.742-3.442a3.07 3.07 0 0 1 2.559-1.406c.93 0 1.933.43 2.578 1.359.742 1.102.742 2.606.742 3.489 0 .839 0 2.32-.621 3.441-.668 1.148-1.77 1.601-2.676 1.601m9.837-5.281c0-2.316.953-4.492 2.793-4.492.192 0 .238 0 .336.023-.191.098-.574.243-.574.883 0 .696.55.957.934.957.476 0 .957-.308.957-.957 0-.715-.649-1.383-1.676-1.383-2.031 0-2.723 2.196-2.868 2.653h-.023v-2.653l-3.203.262v.692c1.625 0 1.816.168 1.816 1.339v6.477c0 1.074-.261 1.074-1.816 1.074v.696c.668-.051 1.984-.051 2.7-.051.648 0 2.343 0 2.894.051v-.696h-.48c-1.743 0-1.79-.261-1.79-1.121zm9.121-4.039h3.371v-.691h-3.37v-4.399h-.524c-.024 2.246-.887 4.543-3.059 4.614v.476h2.031v6.645c0 2.652 1.766 3.203 3.036 3.203 1.504 0 2.293-1.481 2.293-3.203v-1.364h-.528v1.317c0 1.719-.691 2.722-1.625 2.722-1.625 0-1.625-2.222-1.625-2.628zm14.309 3.227c0-1.289 0-2.246-1.051-3.18-.836-.762-1.91-1.098-2.961-1.098-1.961 0-3.465 1.293-3.465 2.844 0 .692.453 1.027 1.004 1.027.574 0 .981-.406.981-.98 0-.98-.864-.98-1.219-.98.547-1 1.695-1.43 2.648-1.43 1.102 0 2.512.906 2.512 3.055v.957c-4.805.074-6.617 2.082-6.617 3.918 0 1.89 2.195 2.488 3.652 2.488 1.578 0 2.657-.957 3.11-2.106.093 1.125.836 1.985 1.863 1.985.5 0 1.887-.336 1.887-2.246v-1.34h-.524v1.34c0 1.363-.574 1.554-.91 1.554-.91 0-.91-1.269-.91-1.625zm-1.551 3.011c0 2.34-1.742 3.129-2.773 3.129-1.168 0-2.149-.859-2.149-2.007 0-3.153 4.063-3.442 4.922-3.489zm20.481-5.472c-.289 0-1.172 0-1.172.98 0 .574.406.981.98.981.551 0 1.004-.336 1.004-1.028 0-1.601-1.672-2.75-3.609-2.75-2.797 0-5.02 2.485-5.02 5.496 0 3.059 2.293 5.403 4.996 5.403 3.157 0 3.871-2.867 3.871-3.082 0-.219-.168-.219-.238-.219-.215 0-.242.074-.312.359-.524 1.7-1.817 2.414-3.106 2.414-1.457 0-3.394-1.265-3.394-4.898 0-3.969 2.031-4.945 3.226-4.945.906 0 2.223.359 2.774 1.289m11.781 3.035c0-2.223 0-2.891-.547-3.656-.695-.934-1.816-1.075-2.629-1.075-2.059 0-3.012 1.551-3.348 2.293h-.023v-8.339l-3.32.261v.696c1.625 0 1.816.168 1.816 1.336v12.523c0 1.074-.262 1.074-1.816 1.074v.696c.621-.051 1.91-.051 2.578-.051.695 0 1.984 0 2.605.051v-.696c-1.527 0-1.816 0-1.816-1.074v-4.445c0-2.508 1.648-3.848 3.133-3.848 1.48 0 1.816 1.219 1.816 2.676v5.617c0 1.074-.266 1.074-1.816 1.074v.696c.621-.051 1.91-.051 2.578-.051.695 0 1.984 0 2.605.051v-.696c-1.195 0-1.793 0-1.816-.715zm6.523-8.914c0-.621-.5-1.168-1.168-1.168-.621 0-1.148.5-1.148 1.144 0 .715.574 1.172 1.148 1.172.739 0 1.168-.621 1.168-1.148m-3.297 4.445v.692c1.532 0 1.746.144 1.746 1.316v6.5c0 1.074-.261 1.074-1.816 1.074v.696c.668-.051 1.816-.051 2.508-.051.266 0 1.648 0 2.461.051v-.696c-1.551 0-1.649-.121-1.649-1.051v-8.793zm12.907 0v.692c1.625 0 1.816.168 1.816 1.339v4.278c0 2.031-1.078 3.726-2.867 3.726-1.961 0-2.082-1.121-2.082-2.386v-7.911l-3.367.262v.692c1.816 0 1.816.074 1.816 2.199v3.586c0 1.48 0 2.34.715 3.129.574.621 1.555.91 2.773.91.407 0 1.172 0 1.985-.695.691-.547 1.074-1.458 1.074-1.458v2.153l3.32-.238v-.696c-1.625 0-1.816-.168-1.816-1.336v-8.508zm13.574.168c0-.43 0-.551-.242-.551-.192 0-.645.528-.813.743-.738-.598-1.48-.743-2.246-.743-2.891 0-3.75 1.579-3.75 2.891 0 .266 0 1.102.906 1.938.766.667 1.578.835 2.676 1.05 1.317.262 1.625.336 2.223.813.429.359.742.883.742 1.554 0 1.028-.598 2.172-2.699 2.172-1.578 0-2.723-.906-3.25-3.297-.098-.429-.098-.453-.121-.476-.047-.098-.145-.098-.215-.098-.262 0-.262.121-.262.551v3.25c0 .43 0 .551.238.551.121 0 .145-.024.551-.528.117-.167.117-.214.477-.597.91 1.125 2.199 1.125 2.605 1.125 2.508 0 3.75-1.387 3.75-3.274 0-1.293-.789-2.058-1.004-2.269-.859-.742-1.504-.887-3.082-1.176-.715-.141-2.461-.476-2.461-1.91 0-.738.504-1.84 2.653-1.84 2.605 0 2.75 2.223 2.797 2.965.023.191.191.191.261.191.266 0 .266-.121.266-.55zm10.582 3.727c0-1.289 0-2.246-1.051-3.18-.836-.762-1.91-1.098-2.961-1.098-1.961 0-3.465 1.293-3.465 2.844 0 .692.453 1.027 1.004 1.027.574 0 .981-.406.981-.98 0-.98-.864-.98-1.219-.98.547-1 1.695-1.43 2.648-1.43 1.102 0 2.512.906 2.512 3.055v.957c-4.805.074-6.617 2.082-6.617 3.918 0 1.89 2.195 2.488 3.652 2.488 1.578 0 2.657-.957 3.11-2.106.093 1.125.836 1.985 1.863 1.985.5 0 1.887-.336 1.887-2.246v-1.34h-.524v1.34c0 1.363-.574 1.554-.91 1.554-.91 0-.91-1.269-.91-1.625zm-1.551 3.011c0 2.34-1.742 3.129-2.773 3.129-1.168 0-2.149-.859-2.149-2.007 0-3.153 4.063-3.442 4.922-3.489zm31.141-6.238h2.699v-.691h-2.746v-2.797c0-2.149 1.098-3.25 2.078-3.25.191 0 .547.051.836.191-.098.024-.695.239-.695.934 0 .551.382.93.933.93.574 0 .957-.379.957-.954 0-.886-.859-1.578-2.008-1.578-1.675 0-3.562 1.289-3.562 3.727v2.797h-1.863v.691h1.863v7.84c0 1.074-.262 1.074-1.816 1.074v.696c.671-.051 1.984-.051 2.703-.051.644 0 2.339 0 2.89.051v-.696h-.476c-1.746 0-1.793-.261-1.793-1.121zm12.312 3.227c0-1.289 0-2.246-1.051-3.18-.835-.762-1.914-1.098-2.964-1.098-1.957 0-3.465 1.293-3.465 2.844 0 .692.453 1.027 1.004 1.027.574 0 .98-.406.98-.98 0-.98-.859-.98-1.219-.98.551-1 1.696-1.43 2.653-1.43 1.097 0 2.508.906 2.508 3.055v.957c-4.801.074-6.618 2.082-6.618 3.918 0 1.89 2.2 2.488 3.657 2.488 1.574 0 2.652-.957 3.105-2.106.094 1.125.836 1.985 1.863 1.985.504 0 1.887-.336 1.887-2.246v-1.34h-.523v1.34c0 1.363-.575 1.554-.907 1.554-.91 0-.91-1.269-.91-1.625zm-1.554 3.011c0 2.34-1.743 3.129-2.774 3.129-1.168 0-2.148-.859-2.148-2.007 0-3.153 4.062-3.442 4.922-3.489zm8.187-11.351c0-.621-.5-1.168-1.168-1.168-.625 0-1.148.5-1.148 1.144 0 .715.574 1.172 1.148 1.172.738 0 1.168-.621 1.168-1.148m-3.297 4.445v.692c1.528 0 1.746.144 1.746 1.316v6.5c0 1.074-.265 1.074-1.816 1.074v.696c.668-.051 1.816-.051 2.508-.051.261 0 1.648 0 2.461.051v-.696c-1.551 0-1.649-.121-1.649-1.051v-8.793zm10.035 1.121c0-.64-.547-1.144-1.144-1.144-.696 0-1.172.551-1.172 1.144 0 .719.598 1.172 1.148 1.172.645 0 1.168-.5 1.168-1.172m0 7.985c0-.645-.547-1.149-1.144-1.149-.696 0-1.172.551-1.172 1.149a1.17 1.17 0 0 0 1.148 1.172c.645 0 1.168-.504 1.168-1.172M16.992-310.684l-3.324.262v.695c1.625 0 1.816.164 1.816 1.336v14.289h.528c.093-.187.761-1.382.86-1.55.55.882 1.577 1.793 3.105 1.793 2.75 0 5.164-2.321 5.164-5.403 0-3.035-2.246-5.379-4.899-5.379-1.316 0-2.437.602-3.25 1.602zm.047 8.938c0-.43 0-.481.262-.863.574-.86 1.625-1.551 2.797-1.551.715 0 3.226.289 3.226 4.875 0 1.601-.238 2.605-.812 3.465-.48.742-1.434 1.48-2.63 1.48-1.288 0-2.128-.836-2.534-1.48-.309-.5-.309-.598-.309-1.004zm13.071-8.938-3.32.262v.695c1.624 0 1.816.164 1.816 1.336v12.524c0 1.074-.262 1.074-1.817 1.074v.691c.668-.046 1.84-.046 2.555-.046.718 0 1.914 0 2.582.046v-.691c-1.528 0-1.817 0-1.817-1.074zm13.359 11.469c0-3.082-2.344-5.543-5.114-5.543-2.867 0-5.136 2.531-5.136 5.543 0 3.059 2.386 5.356 5.113 5.356 2.816 0 5.137-2.344 5.137-5.356m-5.114 4.828c-.886 0-1.96-.383-2.652-1.554-.648-1.075-.672-2.485-.672-3.489 0-.91 0-2.367.742-3.441a3.06 3.06 0 0 1 2.559-1.41c.93 0 1.934.429 2.578 1.363.742 1.098.742 2.605.742 3.488 0 .836 0 2.321-.62 3.442-.669 1.148-1.77 1.601-2.676 1.601m15.194-8.554c-.284 0-1.171 0-1.171.976 0 .574.406.981.98.981.551 0 1.004-.332 1.004-1.024 0-1.601-1.672-2.75-3.61-2.75-2.792 0-5.019 2.485-5.019 5.496 0 3.059 2.297 5.403 4.996 5.403 3.157 0 3.872-2.868 3.872-3.086 0-.215-.168-.215-.239-.215-.215 0-.238.07-.308.359-.528 1.699-1.82 2.414-3.11 2.414-1.457 0-3.39-1.265-3.39-4.898 0-3.969 2.03-4.949 3.222-4.949.91 0 2.223.363 2.774 1.293m10.399 0c-.286 0-1.169 0-1.169.976 0 .574.407.981.977.981.55 0 1.004-.332 1.004-1.024 0-1.601-1.672-2.75-3.606-2.75-2.797 0-5.02 2.485-5.02 5.496 0 3.059 2.294 5.403 4.997 5.403 3.152 0 3.867-2.868 3.867-3.086 0-.215-.164-.215-.238-.215-.215 0-.239.07-.309.359-.527 1.699-1.816 2.414-3.11 2.414-1.456 0-3.39-1.265-3.39-4.898 0-3.969 2.031-4.949 3.227-4.949.906 0 2.222.363 2.77 1.293m12.718 3.726c0-3.082-2.34-5.543-5.113-5.543-2.868 0-5.137 2.531-5.137 5.543 0 3.059 2.387 5.356 5.113 5.356 2.82 0 5.137-2.344 5.137-5.356m-5.113 4.828c-.883 0-1.961-.383-2.653-1.554-.644-1.075-.668-2.485-.668-3.489 0-.91 0-2.367.739-3.441a3.07 3.07 0 0 1 2.558-1.41c.93 0 1.938.429 2.578 1.363.743 1.098.743 2.605.743 3.488 0 .836 0 2.321-.621 3.442-.668 1.148-1.77 1.601-2.676 1.601m24.16-3.726h-.528c-.07.406-.261 1.718-.5 2.101-.168.215-1.53.215-2.246.215H88.02c.645-.551 2.106-2.078 2.723-2.652 3.633-3.348 4.973-4.59 4.973-6.953 0-2.75-2.176-4.59-4.95-4.59-2.769 0-4.394 2.367-4.394 4.422 0 1.218 1.05 1.218 1.121 1.218.504 0 1.125-.359 1.125-1.125 0-.668-.453-1.121-1.125-1.121-.21 0-.261 0-.332.024.453-1.625 1.746-2.723 3.297-2.723 2.031 0 3.274 1.695 3.274 3.895 0 2.031-1.168 3.8-2.532 5.328l-4.828 5.402v.57h8.723zM324.539-12.187c.504 0 .957 0 .957-.883 0-2.797-1.574-5.043-4.562-5.043-2.774 0-4.996 2.386-4.996 5.304a5.327 5.327 0 0 0 5.351 5.352c3.082 0 4.207-2.125 4.207-2.746 0-.145-.047-.672-.789-.672-.453 0-.598.168-.738.527-.598 1.387-2.153 1.504-2.606 1.504-1.984 0-3.562-1.504-3.824-3.344zm-6.976-1.317c.308-2.031 1.863-3.223 3.371-3.223 2.386 0 2.89 2.032 2.988 3.223zm19.328-1.098c0-2.343-1.102-3.441-3.063-3.441-1.625 0-2.676.91-3.082 1.363 0-.886 0-1.218-.953-1.218h-1.578c-.336 0-.957 0-.957.691s.621.691.957.691h.98v7.532h-.98c-.336 0-.957 0-.957.691s.621.691.957.691h3.512c.336 0 .957 0 .957-.691s-.621-.691-.957-.691h-.981v-4.328c0-2.317 1.625-3.344 2.918-3.344 1.383 0 1.672.789 1.672 2.148v5.524h-.981c-.332 0-.957 0-.957.691s.625.691.957.691h3.512c.336 0 .957 0 .957-.691s-.621-.691-.957-.691h-.976zm12.297-6.621c0-.738-.141-.98-.954-.98h-1.578c-.336 0-.957 0-.957.695 0 .692.621.692.957.692h.981v3.968c-.383-.383-1.364-1.195-2.821-1.195-2.535 0-4.73 2.293-4.73 5.305 0 2.941 2.055 5.281 4.516 5.281 1.554 0 2.578-.934 3.035-1.457 0 1.004 0 1.312.953 1.312h1.578c.336 0 .957 0 .957-.691s-.621-.691-.957-.691h-.98zm-1.551 9.082c0 1.34-1.102 3.297-2.895 3.297-1.719 0-3.105-1.742-3.105-3.894 0-2.293 1.625-3.918 3.324-3.918 1.551 0 2.676 1.41 2.676 2.652zm23.379-9.007c0-.598-.477-1.079-1.075-1.079-.597 0-1.074.48-1.074 1.079a1.07 1.07 0 0 0 1.074 1.074 1.07 1.07 0 0 0 1.075-1.074m-4.11 3.25c-.336 0-.957 0-.957.691s.621.691.957.691h2.559v7.532h-2.727c-.332 0-.98 0-.98.691s.648.691.98.691h6.645c.336 0 .957 0 .957-.691s-.621-.691-.957-.691h-2.367v-7.938c0-.738-.145-.976-.953-.976zm15.098 1.382h2.891c.332 0 .957 0 .957-.691s-.625-.691-.957-.691h-2.891v-1.196c0-1.863 1.672-1.863 2.437-1.863 0 .047.192.93.981.93.379 0 .93-.285.93-.957 0-1.36-1.817-1.36-2.176-1.36-1.817 0-3.727 1.028-3.727 3.153v1.293h-2.367c-.336 0-.98 0-.98.691s.625.691.957.691h2.39v7.532h-2.269c-.336 0-.957 0-.957.691s.621.691.957.691h6.093c.336 0 .954 0 .954-.691s-.618-.691-.954-.691h-2.269zm-13.375-13.679c.332 0 .953 0 .953-.692 0-.695-.621-.695-.953-.695h-.981v-5.113c.571.644 1.457 1.34 2.797 1.34 2.532 0 4.754-2.27 4.754-5.305 0-2.942-2.008-5.281-4.492-5.281-1.746 0-2.844 1.05-3.059 1.289 0-.79 0-1.149-.957-1.149h-1.578c-.332 0-.957 0-.957.696 0 .69.625.69.957.69h.981v12.833h-.981c-.332 0-.957 0-.957.695 0 .692.625.692.957.692zm-.981-11.66c0-1.364 1.336-2.7 2.891-2.7 1.719 0 3.106 1.742 3.106 3.895 0 2.293-1.625 3.918-3.321 3.918-1.793 0-2.676-2.031-2.676-3.227zm13.614 1.839c0-2.843 2.008-4.539 4.039-4.539.121 0 .262 0 .383.024.07.86.738.93.906.93a.904.904 0 0 0 .933-.93c0-1.032-1.003-1.41-2.199-1.41-1.601 0-2.965.714-4.062 2.054v-.933c0-.742-.145-.98-.957-.98h-2.414c-.332 0-.953 0-.953.694 0 .692.621.692.953.692h1.816v7.527h-1.816c-.332 0-.953 0-.953.692 0 .695.621.695.953.695h5.879c.335 0 .957 0 .957-.695 0-.692-.622-.692-.957-.692h-2.508zm17.078-.07c.504 0 .957 0 .957-.887 0-2.797-1.578-5.043-4.563-5.043-2.773 0-4.996 2.391-4.996 5.305a5.33 5.33 0 0 0 5.352 5.355c3.082 0 4.207-2.128 4.207-2.75 0-.144-.051-.667-.789-.667-.453 0-.598.168-.742.523-.594 1.387-2.149 1.508-2.602 1.508-1.984 0-3.562-1.508-3.824-3.344zm-6.977-1.316c.309-2.032 1.864-3.227 3.371-3.227 2.387 0 2.887 2.031 2.985 3.227zm20.16-1.34c0-.524 0-3.2-2.101-3.2-.836 0-1.649.38-2.293 1.266-.145-.36-.668-1.265-1.816-1.265-1.079 0-1.817.691-2.008.906-.024-.766-.524-.766-.957-.766h-.715c-.336 0-.957 0-.957.696 0 .69.551.69 1.293.69v7.528c-.766 0-1.293 0-1.293.692 0 .695.621.695.957.695h2.008c.332 0 .953 0 .953-.695 0-.692-.547-.692-1.289-.692v-4.394c0-2.008.859-3.274 1.914-3.274.668 0 .859.836.859 1.957v5.711c-.406 0-1.055 0-1.055.692 0 .695.649.695.981.695h1.746c.336 0 .953 0 .953-.695 0-.692-.547-.692-1.289-.692v-4.394c0-2.008.859-3.274 1.914-3.274.668 0 .86.836.86 1.957v5.711c-.407 0-1.051 0-1.051.692 0 .695.644.695.98.695h1.742c.336 0 .957 0 .957-.695 0-.692-.55-.692-1.293-.692zm8.696-6.308c0-.598-.481-1.075-1.078-1.075a1.07 1.07 0 0 0-1.075 1.074c0 .598.477 1.078 1.075 1.078.597 0 1.078-.48 1.078-1.078m-4.114 3.25c-.332 0-.957 0-.957.694 0 .692.625.692.957.692h2.559v7.527h-2.726c-.333 0-.977 0-.977.692 0 .695.644.695.977.695h6.644c.336 0 .957 0 .957-.695 0-.692-.621-.692-.957-.692h-2.363v-7.933c0-.742-.145-.98-.957-.98z"/><path fill="none" stroke="#000" stroke-width=".796" d="M426.773-35.945h7.379"/><path d="M441.418-49.05a1.07 1.07 0 0 0-1.074-1.075 1.07 1.07 0 0 0-1.078 1.074c0 .598.476 1.078 1.078 1.078.594 0 1.074-.48 1.074-1.078m-4.113 3.25c-.332 0-.953 0-.953.694 0 .692.621.692.953.692h2.558v7.527h-2.722c-.336 0-.981 0-.981.692 0 .695.645.695.981.695h6.64c.336 0 .957 0 .957-.695 0-.692-.621-.692-.957-.692h-2.363v-7.933c0-.742-.145-.98-.957-.98zm19.183 3.301c0-2.344-1.097-3.441-3.058-3.441a4.18 4.18 0 0 0-3.082 1.359c0-.883 0-1.219-.957-1.219h-1.578c-.333 0-.954 0-.954.696 0 .69.621.69.954.69h.98v7.528h-.98c-.333 0-.954 0-.954.692 0 .695.621.695.954.695h3.515c.332 0 .953 0 .953-.695 0-.692-.621-.692-.953-.692h-.98v-4.324c0-2.32 1.625-3.344 2.914-3.344 1.386 0 1.676.785 1.676 2.149v5.52h-.981c-.336 0-.957 0-.957.69 0 .696.621.696.957.696h3.512c.336 0 .957 0 .957-.695 0-.692-.621-.692-.957-.692h-.981zm7.473-1.914h3.871c.336 0 .957 0 .957-.691 0-.696-.621-.696-.957-.696h-3.871v-1.957c0-.43 0-.98-.766-.98-.789 0-.789.55-.789.98v1.957h-2.027c-.336 0-.981 0-.981.696 0 .69.622.69.954.69h2.054v6.024c0 2.223 1.532 3.035 3.25 3.035 1.293 0 3.657-.644 3.657-3.081 0-.481 0-1.004-.786-1.004-.765 0-.765.523-.765 1.027-.024 1.434-1.387 1.672-1.938 1.672-1.863 0-1.863-1.196-1.863-1.77zm17.082 4.328c.5 0 .953 0 .953-.887 0-2.797-1.574-5.043-4.562-5.043-2.774 0-4.996 2.391-4.996 5.305a5.33 5.33 0 0 0 5.355 5.355c3.078 0 4.203-2.128 4.203-2.75 0-.144-.047-.667-.789-.667-.453 0-.598.168-.738.523-.598 1.387-2.153 1.508-2.606 1.508-1.984 0-3.562-1.508-3.824-3.344zm-6.98-1.316c.308-2.032 1.863-3.227 3.371-3.227 2.386 0 2.89 2.031 2.988 3.227zm14.5 1.386c0-2.843 2.007-4.539 4.039-4.539.117 0 .261 0 .382.024.071.86.739.93.907.93.55 0 .929-.407.929-.93 0-1.032-1-1.41-2.199-1.41-1.598 0-2.961.714-4.058 2.054v-.933c0-.742-.145-.98-.958-.98h-2.414c-.332 0-.957 0-.957.694 0 .692.625.692.957.692h1.817v7.527h-1.817c-.332 0-.957 0-.957.692 0 .695.625.695.957.695h5.879c.336 0 .957 0 .957-.695 0-.692-.621-.692-.957-.692h-2.507zm12.296 0c0-2.843 2.008-4.539 4.039-4.539.122 0 .266 0 .383.024.074.86.742.93.91.93.551 0 .93-.407.93-.93 0-1.032-1.004-1.41-2.199-1.41-1.598 0-2.961.714-4.063 2.054v-.933c0-.742-.14-.98-.953-.98h-2.414c-.336 0-.957 0-.957.694 0 .692.621.692.957.692h1.817v7.527h-1.817c-.336 0-.957 0-.957.692 0 .695.621.695.957.695h5.879c.332 0 .957 0 .957-.695 0-.692-.625-.692-.957-.692h-2.512zm17.129-4.804c0-.742-.144-.98-.957-.98h-1.574c-.336 0-.957 0-.957.694 0 .692.621.692.957.692h.981v5.187c0 1.957-1.625 2.485-2.704 2.485-1.886 0-1.886-.86-1.886-1.602v-6.476c0-.742-.145-.98-.957-.98h-1.578c-.333 0-.954 0-.954.694 0 .692.621.692.954.692h.98v6.187c0 2.204 1.434 2.871 3.273 2.871 1.457 0 2.368-.597 2.844-1.003 0 .859.574.859.981.859h1.578c.336 0 .957 0 .957-.695 0-.692-.621-.692-.957-.692h-.981zm7.473.406h3.871c.336 0 .957 0 .957-.691 0-.696-.621-.696-.957-.696h-3.871v-1.957c0-.43 0-.98-.766-.98-.789 0-.789.55-.789.98v1.957h-2.027c-.336 0-.981 0-.981.696 0 .69.622.69.954.69h2.054v6.024c0 2.223 1.532 3.035 3.25 3.035 1.293 0 3.657-.644 3.657-3.081 0-.481 0-1.004-.786-1.004-.765 0-.765.523-.765 1.027-.024 1.434-1.387 1.672-1.938 1.672-1.863 0-1.863-1.196-1.863-1.77zm12.301 0h3.871c.336 0 .957 0 .957-.691 0-.696-.621-.696-.957-.696h-3.871v-1.957c0-.43 0-.98-.766-.98-.789 0-.789.55-.789.98v1.957h-2.031c-.332 0-.981 0-.981.696 0 .69.625.69.957.69h2.055v6.024c0 2.223 1.531 3.035 3.25 3.035 1.289 0 3.656-.644 3.656-3.081 0-.481 0-1.004-.785-1.004-.765 0-.765.523-.765 1.027-.024 1.434-1.387 1.672-1.938 1.672-1.863 0-1.863-1.196-1.863-1.77zm18.035 3.754c0-2.988-2.176-5.356-4.754-5.356-2.582 0-4.758 2.368-4.758 5.356 0 3.012 2.199 5.304 4.758 5.304 2.555 0 4.754-2.292 4.754-5.304m-4.754 3.918c-1.723 0-3.203-1.817-3.203-4.086 0-2.223 1.527-3.8 3.203-3.8 1.672 0 3.199 1.577 3.199 3.8 0 2.293-1.48 4.086-3.199 4.086m11.316-3.274c0-2.843 2.008-4.539 4.039-4.539.122 0 .266 0 .383.024.074.86.742.93.91.93.551 0 .93-.407.93-.93 0-1.032-1.004-1.41-2.199-1.41-1.598 0-2.961.714-4.063 2.054v-.933c0-.742-.14-.98-.953-.98h-2.414c-.336 0-.957 0-.957.694 0 .692.621.692.957.692h1.817v7.527h-1.817c-.336 0-.957 0-.957.692 0 .695.621.695.957.695h5.879c.332 0 .957 0 .957-.695 0-.692-.625-.692-.957-.692h-2.512zm17.082-.07c.5 0 .957 0 .957-.887 0-2.797-1.578-5.043-4.566-5.043-2.769 0-4.992 2.391-4.992 5.305a5.33 5.33 0 0 0 5.351 5.355c3.082 0 4.207-2.128 4.207-2.75 0-.144-.05-.667-.789-.667-.453 0-.597.168-.742.523-.597 1.387-2.148 1.508-2.605 1.508-1.981 0-3.559-1.508-3.824-3.344zm-6.976-1.316c.308-2.032 1.863-3.227 3.367-3.227 2.391 0 2.891 2.031 2.988 3.227zm19.562 7.265c0-.312-.168-.406-.5-.644-3.3-2.274-4.109-5.688-4.109-8.008 0-2.27.762-5.711 4.109-8.027.332-.239.5-.336.5-.645 0-.242-.121-.625-.691-.625-.598 0-2.367 1.387-3.465 2.941-1.34 1.864-2.008 4.086-2.008 6.356 0 2.652.957 4.875 1.957 6.285 1.102 1.527 2.848 2.988 3.516 2.988.57 0 .691-.406.691-.62m10.293-8.654a10.93 10.93 0 0 0-2.175-6.593c-.813-1.101-2.579-2.703-3.297-2.703-.551 0-.692.406-.692.625 0 .285.164.406.598.691 2.914 2.055 4.012 5.258 4.012 7.958 0 2.152-.692 5.664-4.11 8.03-.308.212-.5.333-.5.645 0 .215.141.621.692.621.597 0 2.367-1.386 3.465-2.941a10.96 10.96 0 0 0 2.007-6.332M321.816-76.352a1.07 1.07 0 0 0-1.074-1.074c-.597 0-1.078.48-1.078 1.074 0 .602.481 1.079 1.078 1.079a1.07 1.07 0 0 0 1.074-1.079m-4.109 3.25c-.336 0-.957 0-.957.696 0 .691.621.691.957.691h2.559v7.528h-2.727c-.336 0-.98 0-.98.695 0 .691.644.691.98.691h6.645c.332 0 .957 0 .957-.691 0-.696-.625-.696-.957-.696h-2.368v-7.933c0-.738-.144-.98-.957-.98zm15.098 1.387h2.89c.332 0 .953 0 .953-.691 0-.696-.621-.696-.953-.696h-2.89v-1.191c0-1.863 1.672-1.863 2.437-1.863 0 .047.188.93.977.93.383 0 .933-.286.933-.958 0-1.359-1.816-1.359-2.175-1.359-1.817 0-3.731 1.027-3.731 3.152v1.29h-2.363c-.336 0-.981 0-.981.695 0 .691.621.691.957.691h2.387v7.528h-2.266c-.335 0-.957 0-.957.695 0 .691.622.691.957.691h6.094c.332 0 .953 0 .953-.691 0-.696-.621-.696-.953-.696h-2.269zm28.683 1.915c0-2.344-1.097-3.442-3.058-3.442a4.18 4.18 0 0 0-3.082 1.36c0-.884 0-1.22-.957-1.22h-1.578c-.333 0-.954 0-.954.696 0 .691.621.691.954.691h.98v7.528h-.98c-.333 0-.954 0-.954.695 0 .691.621.691.954.691h3.515c.332 0 .953 0 .953-.691 0-.696-.621-.696-.953-.696h-.98v-4.324c0-2.316 1.625-3.344 2.914-3.344 1.386 0 1.676.786 1.676 2.149v5.52h-.981c-.336 0-.957 0-.957.695 0 .691.621.691.957.691h3.512c.336 0 .957 0 .957-.691 0-.696-.621-.696-.957-.696h-.981zm13.207 1.84c0-2.99-2.172-5.353-4.754-5.353s-4.753 2.364-4.753 5.352c0 3.012 2.195 5.305 4.753 5.305 2.555 0 4.754-2.293 4.754-5.305m-4.754 3.917c-1.722 0-3.203-1.816-3.203-4.086 0-2.223 1.532-3.8 3.203-3.8 1.672 0 3.204 1.577 3.204 3.8 0 2.293-1.481 4.086-3.204 4.086m11.321-7.671h3.871c.336 0 .957 0 .957-.691 0-.696-.621-.696-.957-.696h-3.871v-1.957c0-.43 0-.98-.766-.98-.789 0-.789.55-.789.98v1.957h-2.031c-.332 0-.981 0-.981.696 0 .691.625.691.957.691h2.055v6.024c0 2.222 1.531 3.035 3.25 3.035 1.289 0 3.656-.645 3.656-3.082 0-.48 0-1.004-.785-1.004-.765 0-.765.523-.765 1.027-.024 1.434-1.387 1.672-1.938 1.672-1.863 0-1.863-1.195-1.863-1.77zm26.367-4.707c0-.742-.145-.98-.957-.98h-3.512c-.332 0-.953 0-.953.695 0 .691.621.691.953.691h2.918v11.829h-2.918c-.332 0-.953 0-.953.695 0 .691.621.691.953.691h7.387c.332 0 .957 0 .957-.691 0-.696-.625-.696-.957-.696h-2.918zm15.359 4.301c0-.738-.144-.98-.957-.98h-1.574c-.336 0-.957 0-.957.695 0 .691.621.691.957.691h.981v5.188c0 1.957-1.625 2.484-2.704 2.484-1.886 0-1.886-.86-1.886-1.601v-6.477c0-.738-.145-.98-.957-.98h-1.578c-.333 0-.954 0-.954.695 0 .691.621.691.954.691h.98v6.192c0 2.199 1.434 2.867 3.273 2.867 1.457 0 2.368-.598 2.844-1.004 0 .86.574.86.981.86h1.578c.336 0 .957 0 .957-.692 0-.696-.621-.696-.957-.696h-.981zm13.207 6.715c0-.621-.593-.621-.789-.621-.547 0-.644.191-.761.527-.528 1.313-1.7 1.457-2.274 1.457-2.027 0-3.75-1.695-3.75-3.918 0-1.219.692-3.969 3.824-3.969.645 0 1.149.047 1.364.075.168.046.187.07.187.19.074.978.817 1 .957 1 .527 0 .981-.354.981-1 0-1.647-2.414-1.647-3.465-1.647-4.086 0-5.399 3.343-5.399 5.351 0 2.914 2.223 5.305 5.086 5.305 3.203 0 4.039-2.367 4.039-2.75m11.348-1.981c.5 0 .953 0 .953-.886 0-2.797-1.574-5.04-4.562-5.04-2.774 0-4.996 2.387-4.996 5.305a5.33 5.33 0 0 0 5.355 5.352c3.078 0 4.203-2.125 4.203-2.75 0-.14-.047-.668-.789-.668-.453 0-.598.168-.738.527-.598 1.383-2.153 1.504-2.606 1.504-1.984 0-3.562-1.504-3.824-3.344zm-6.98-1.316c.308-2.031 1.863-3.227 3.371-3.227 2.386 0 2.89 2.032 2.988 3.227z"/><path fill="none" stroke="#000" stroke-width=".796" d="M451.379-63.18h7.383"/><path d="M468.695-69.586c0-1.816-1.363-3.727-4.59-3.727-1.003 0-3.324 0-3.324 1.649 0 .645.457 1 .981 1 .144 0 .933-.047.957-1.05 0-.118.023-.142.527-.192.285-.024.598-.024.883-.024.551 0 1.363 0 2.152.598.86.668.86 1.34.86 2.031-1.411.051-2.797.145-4.278.621-1.195.407-2.726 1.266-2.726 2.89 0 1.7 1.508 3.134 3.73 3.134.766 0 2.246-.121 3.488-.98.477.788 1.672.835 2.583.835.57 0 1.144 0 1.144-.691 0-.696-.621-.696-.953-.696-.621 0-1.102-.046-1.434-.187zm-1.554 3.633c0 .547 0 1.05-.981 1.504-.836.406-1.961.406-2.031.406-1.41 0-2.438-.766-2.438-1.746 0-1.406 2.555-2.219 5.45-2.219zm14.855.547c0-.621-.598-.621-.789-.621-.547 0-.644.191-.762.527-.527 1.313-1.699 1.457-2.273 1.457-2.031 0-3.75-1.695-3.75-3.918 0-1.219.691-3.969 3.824-3.969.645 0 1.145.047 1.363.075.164.046.188.07.188.19.074.978.812 1 .957 1 .527 0 .98-.354.98-1 0-1.647-2.414-1.647-3.464-1.647-4.086 0-5.403 3.343-5.403 5.351 0 2.914 2.223 5.305 5.09 5.305 3.203 0 4.039-2.367 4.039-2.75m12.301 0c0-.621-.598-.621-.789-.621-.547 0-.645.191-.766.527-.523 1.313-1.695 1.457-2.269 1.457-2.032 0-3.75-1.695-3.75-3.918 0-1.219.691-3.969 3.824-3.969.644 0 1.144.047 1.359.075.168.046.192.07.192.19.074.978.812 1 .957 1 .523 0 .98-.354.98-1 0-1.647-2.414-1.647-3.465-1.647-4.086 0-5.402 3.343-5.402 5.351 0 2.914 2.223 5.305 5.09 5.305 3.203 0 4.039-2.367 4.039-2.75m11.344-1.981c.5 0 .957 0 .957-.886 0-2.797-1.578-5.04-4.567-5.04-2.769 0-4.992 2.387-4.992 5.305a5.33 5.33 0 0 0 5.352 5.352c3.082 0 4.207-2.125 4.207-2.75 0-.14-.051-.668-.789-.668-.454 0-.598.168-.743.527-.597 1.383-2.148 1.504-2.601 1.504-1.985 0-3.563-1.504-3.824-3.344zm-6.977-1.316c.309-2.031 1.863-3.227 3.367-3.227 2.391 0 2.891 2.032 2.989 3.227zm19.371-3.703c0-.383 0-.906-.668-.906-.574 0-.719.546-.719.57-.953-.57-2.054-.57-2.531-.57-3.894 0-4.422 1.98-4.422 2.793 0 .98.575 1.648 1.387 2.105.766.43 1.461.547 3.418.86.93.167 2.844.476 2.844 1.792 0 .883-.813 1.719-3.035 1.719-1.528 0-2.536-.598-3.036-2.316-.117-.336-.191-.598-.789-.598-.789 0-.789.453-.789.93v2.465c0 .378 0 .906.672.906.285 0 .5 0 .86-.98 1.097.91 2.339.98 3.082.98 4.421 0 4.421-2.867 4.421-3.106 0-2.488-2.964-2.988-4.113-3.156-2.101-.36-3.535-.598-3.535-1.601 0-.645.742-1.41 2.988-1.41 2.27 0 2.368 1.077 2.414 1.698.047.477.477.547.762.547.789 0 .789-.43.789-.906zm12.16 2.82c0-1.816-1.363-3.727-4.59-3.727-1.003 0-3.324 0-3.324 1.649 0 .645.457 1 .981 1 .144 0 .933-.047.957-1.05 0-.118.023-.142.527-.192.285-.024.598-.024.883-.024.551 0 1.363 0 2.152.598.86.668.86 1.34.86 2.031-1.411.051-2.797.145-4.278.621-1.195.407-2.726 1.266-2.726 2.89 0 1.7 1.508 3.134 3.73 3.134.766 0 2.246-.121 3.488-.98.477.788 1.672.835 2.583.835.57 0 1.144 0 1.144-.691 0-.696-.621-.696-.953-.696-.621 0-1.102-.046-1.434-.187zm-1.554 3.633c0 .547 0 1.05-.981 1.504-.836.406-1.961.406-2.031.406-1.41 0-2.438-.766-2.438-1.746 0-1.406 2.555-2.219 5.45-2.219zm14.187 4.516c0-.313-.168-.407-.5-.645-3.301-2.27-4.113-5.687-4.113-8.008 0-2.27.765-5.71 4.113-8.027.332-.239.5-.336.5-.645 0-.238-.121-.62-.695-.62-.594 0-2.363 1.382-3.461 2.937-1.34 1.863-2.008 4.086-2.008 6.355 0 2.653.953 4.875 1.957 6.285 1.102 1.532 2.844 2.989 3.512 2.989.574 0 .695-.407.695-.621m10.293-8.653c0-1.863-.453-4.277-2.176-6.594-.812-1.097-2.578-2.699-3.297-2.699-.55 0-.695.406-.695.621 0 .285.168.406.602.692 2.914 2.054 4.011 5.257 4.011 7.957 0 2.152-.695 5.664-4.109 8.031-.309.215-.504.332-.504.645 0 .214.145.62.695.62.598 0 2.368-1.386 3.465-2.94a11 11 0 0 0 2.008-6.333m21.539-1.625h3.871c.336 0 .957 0 .957-.691 0-.696-.621-.696-.957-.696h-3.871v-1.957c0-.43 0-.98-.762-.98-.789 0-.789.55-.789.98v1.957h-2.031c-.336 0-.98 0-.98.696 0 .691.621.691.957.691h2.054v6.024c0 2.222 1.528 3.035 3.25 3.035 1.289 0 3.657-.645 3.657-3.082 0-.48 0-1.004-.789-1.004-.766 0-.766.523-.766 1.027-.023 1.434-1.387 1.672-1.938 1.672-1.863 0-1.863-1.195-1.863-1.77zm17.129 1.915c0-2.344-1.101-3.442-3.059-3.442a4.18 4.18 0 0 0-3.082 1.36v-4.54c0-.742-.144-.98-.957-.98h-1.578c-.332 0-.957 0-.957.695 0 .691.625.691.957.691h.981v11.829h-.981c-.332 0-.957 0-.957.695 0 .691.625.691.957.691h3.516c.332 0 .953 0 .953-.691 0-.696-.621-.696-.953-.696h-.981v-4.324c0-2.316 1.625-3.344 2.915-3.344 1.386 0 1.671.786 1.671 2.149v5.52h-.976c-.336 0-.957 0-.957.695 0 .691.621.691.957.691h3.512c.332 0 .957 0 .957-.691 0-.696-.625-.696-.957-.696h-.981zm12.254 2.413c.5 0 .953 0 .953-.886 0-2.797-1.574-5.04-4.562-5.04-2.774 0-4.996 2.387-4.996 5.305a5.33 5.33 0 0 0 5.355 5.352c3.078 0 4.203-2.125 4.203-2.75 0-.14-.047-.668-.789-.668-.453 0-.598.168-.738.527-.598 1.383-2.153 1.504-2.606 1.504-1.984 0-3.562-1.504-3.824-3.344zm-6.98-1.316c.308-2.031 1.863-3.227 3.371-3.227 2.386 0 2.89 2.032 2.988 3.227zm19.328-1.097c0-2.344-1.102-3.442-3.063-3.442a4.18 4.18 0 0 0-3.082 1.36c0-.884 0-1.22-.953-1.22h-1.578c-.336 0-.957 0-.957.696 0 .691.621.691.957.691h.98v7.528h-.98c-.336 0-.957 0-.957.695 0 .691.621.691.957.691h3.512c.336 0 .957 0 .957-.691 0-.696-.621-.696-.957-.696h-.981v-4.324c0-2.316 1.625-3.344 2.918-3.344 1.383 0 1.672.786 1.672 2.149v5.52h-.981c-.332 0-.957 0-.957.695 0 .691.625.691.957.691h3.512c.336 0 .957 0 .957-.691 0-.696-.621-.696-.957-.696h-.976zm-261.938-73.259c-1.527 0-1.812 0-1.812-1.074v-4.156c.429.594 1.406 1.527 2.937 1.527 2.75 0 5.16-2.316 5.16-5.398 0-3.035-2.246-5.379-4.847-5.379-2.106 0-3.227 1.508-3.301 1.601v-1.601l-3.32.266v.691c1.671 0 1.816.168 1.816 1.219v11.23c0 1.074-.266 1.074-1.816 1.074v.696c.621-.051 1.91-.051 2.582-.051.691 0 1.98 0 2.601.051zm-1.812-11.562c0-.457 0-.481.261-.863a3.44 3.44 0 0 1 2.793-1.528c1.793 0 3.227 2.172 3.227 4.852 0 2.84-1.625 4.922-3.465 4.922a2.82 2.82 0 0 1-1.91-.766c-.551-.551-.906-1.027-.906-1.695zm12.949 2.055c0-2.321.957-4.497 2.797-4.497.191 0 .238 0 .336.028-.192.094-.575.238-.575.883 0 .691.547.957.93.957.481 0 .957-.313.957-.957 0-.715-.644-1.387-1.672-1.387-2.031 0-2.722 2.199-2.867 2.652h-.023v-2.652l-3.203.266v.691c1.625 0 1.816.168 1.816 1.34v6.472c0 1.075-.266 1.075-1.816 1.075v.695c.668-.047 1.984-.047 2.699-.047.644 0 2.344 0 2.89.047v-.695h-.476c-1.742 0-1.793-.262-1.793-1.121zm14.262.023c.527 0 .574 0 .574-.453 0-2.414-1.289-4.66-4.184-4.66-2.722 0-4.824 2.461-4.824 5.422 0 3.156 2.437 5.472 5.09 5.472 2.844 0 3.918-2.582 3.918-3.082 0-.144-.121-.238-.262-.238-.191 0-.242.117-.285.238-.625 2.008-2.223 2.555-3.231 2.555-1 0-3.414-.668-3.414-4.801v-.453zm-6.594-.453c.191-3.754 2.293-4.184 2.961-4.184 2.558 0 2.703 3.367 2.726 4.184zm24.976.191c0-2.226 0-2.894-.55-3.66-.692-.93-1.817-1.074-2.629-1.074-1.985 0-2.985 1.434-3.367 2.367-.336-1.84-1.625-2.367-3.133-2.367-2.317 0-3.227 1.984-3.414 2.461h-.028v-2.461l-3.25.266v.691c1.625 0 1.817.168 1.817 1.34v6.472c0 1.075-.262 1.075-1.817 1.075v.695c.621-.047 1.914-.047 2.582-.047.696 0 1.985 0 2.606.047v-.695c-1.531 0-1.817 0-1.817-1.075v-4.445c0-2.508 1.649-3.848 3.129-3.848 1.485 0 1.817 1.219 1.817 2.68v5.613c0 1.075-.262 1.075-1.817 1.075v.695c.621-.047 1.914-.047 2.582-.047.696 0 1.985 0 2.606.047v-.695c-1.531 0-1.817 0-1.817-1.075v-4.445c0-2.508 1.649-3.848 3.129-3.848 1.481 0 1.817 1.219 1.817 2.68v5.613c0 1.075-.262 1.075-1.817 1.075v.695c.621-.047 1.914-.047 2.582-.047.696 0 1.985 0 2.606.047v-.695c-1.196 0-1.793 0-1.817-.715zm6.524-8.914c0-.625-.5-1.172-1.168-1.172-.625 0-1.149.5-1.149 1.149 0 .715.575 1.168 1.149 1.168.738 0 1.168-.621 1.168-1.145m-3.297 4.446v.691c1.527 0 1.742.144 1.742 1.312v6.5c0 1.075-.262 1.075-1.812 1.075v.695c.668-.047 1.812-.047 2.507-.047.262 0 1.649 0 2.461.047v-.695c-1.554 0-1.648-.118-1.648-1.047v-8.797zm17.598-4.446c0-.625-.504-1.172-1.172-1.172-.621 0-1.145.5-1.145 1.149 0 .715.571 1.168 1.145 1.168.742 0 1.172-.621 1.172-1.145m-3.297 4.446v.691c1.527 0 1.742.144 1.742 1.312v6.5c0 1.075-.262 1.075-1.816 1.075v.695c.671-.047 1.816-.047 2.511-.047.262 0 1.649 0 2.461.047v-.695c-1.555 0-1.648-.118-1.648-1.047v-8.797zm16.273 4.468c0-2.226 0-2.894-.551-3.66-.691-.93-1.816-1.074-2.629-1.074-2.316 0-3.226 1.984-3.417 2.461h-.024v-2.461l-3.25.266v.691c1.625 0 1.816.168 1.816 1.34v6.472c0 1.075-.261 1.075-1.816 1.075v.695c.621-.047 1.914-.047 2.582-.047.692 0 1.984 0 2.606.047v-.695c-1.532 0-1.817 0-1.817-1.075v-4.445c0-2.508 1.649-3.848 3.129-3.848 1.484 0 1.816 1.219 1.816 2.68v5.613c0 1.075-.261 1.075-1.816 1.075v.695c.621-.047 1.914-.047 2.582-.047.692 0 1.981 0 2.606.047v-.695c-1.196 0-1.793 0-1.817-.715zm5.778-3.8h3.371v-.696h-3.371v-4.394h-.524c-.023 2.246-.883 4.539-3.059 4.609v.481h2.032v6.64c0 2.652 1.769 3.203 3.035 3.203 1.504 0 2.293-1.48 2.293-3.203v-1.359h-.527v1.312c0 1.723-.692 2.723-1.625 2.723-1.625 0-1.625-2.219-1.625-2.625zm14.242 4.062c.523 0 .574 0 .574-.453 0-2.414-1.293-4.66-4.184-4.66-2.726 0-4.828 2.461-4.828 5.422 0 3.156 2.438 5.472 5.09 5.472 2.844 0 3.922-2.582 3.922-3.082 0-.144-.121-.238-.266-.238-.191 0-.242.117-.285.238-.625 2.008-2.223 2.555-3.226 2.555s-3.418-.668-3.418-4.801v-.453zm-6.598-.453c.191-3.754 2.297-4.184 2.965-4.184 2.555 0 2.699 3.367 2.723 4.184zm11.836.43c0-2.321.953-4.497 2.793-4.497.191 0 .238 0 .336.028-.192.094-.574.238-.574.883 0 .691.55.957.933.957.477 0 .953-.313.953-.957 0-.715-.644-1.387-1.671-1.387-2.032 0-2.723 2.199-2.868 2.652h-.023v-2.652l-3.203.266v.691c1.625 0 1.816.168 1.816 1.34v6.472c0 1.075-.262 1.075-1.816 1.075v.695c.668-.047 1.984-.047 2.699-.047.645 0 2.344 0 2.895.047v-.695h-.481c-1.742 0-1.789-.262-1.789-1.121zm9.098 0c0-2.321.957-4.497 2.797-4.497.191 0 .238 0 .335.028-.195.094-.574.238-.574.883 0 .691.547.957.93.957.48 0 .957-.313.957-.957 0-.715-.645-1.387-1.672-1.387-2.031 0-2.726 2.199-2.867 2.652h-.024v-2.652l-3.203.266v.691c1.625 0 1.817.168 1.817 1.34v6.472c0 1.075-.266 1.075-1.817 1.075v.695c.668-.047 1.985-.047 2.7-.047.644 0 2.339 0 2.89.047v-.695h-.476c-1.746 0-1.793-.262-1.793-1.121zm12.375-4.707v.691c1.625 0 1.816.168 1.816 1.34v4.273c0 2.031-1.078 3.731-2.867 3.731-1.961 0-2.082-1.125-2.082-2.391v-7.91l-3.367.266v.691c1.816 0 1.816.07 1.816 2.199v3.582c0 1.481 0 2.344.715 3.133.574.621 1.555.906 2.773.906.407 0 1.172 0 1.985-.691.691-.551 1.074-1.461 1.074-1.461v2.152l3.32-.238v-.695c-1.625 0-1.816-.164-1.816-1.336v-8.508zm9.75.668h3.367v-.696h-3.367v-4.394h-.528c-.023 2.246-.883 4.539-3.058 4.609v.481h2.031v6.64c0 2.652 1.769 3.203 3.035 3.203 1.508 0 2.297-1.48 2.297-3.203v-1.359h-.527v1.312c0 1.723-.696 2.723-1.625 2.723-1.625 0-1.625-2.219-1.625-2.625zm9.097 0h3.371v-.696h-3.371v-4.394h-.523c-.024 2.246-.887 4.539-3.059 4.609v.481h2.032v6.64c0 2.652 1.765 3.203 3.035 3.203 1.504 0 2.293-1.48 2.293-3.203v-1.359h-.528v1.312c0 1.723-.691 2.723-1.625 2.723-1.625 0-1.625-2.219-1.625-2.625zm16.055 4.492c0-3.082-2.34-5.543-5.113-5.543-2.867 0-5.137 2.531-5.137 5.543 0 3.058 2.387 5.351 5.113 5.351 2.821 0 5.137-2.34 5.137-5.351m-5.113 4.824c-.883 0-1.961-.379-2.653-1.551-.644-1.074-.668-2.484-.668-3.488 0-.91 0-2.367.739-3.442a3.06 3.06 0 0 1 2.558-1.41c.934 0 1.938.43 2.578 1.364.743 1.097.743 2.601.743 3.488 0 .836 0 2.316-.622 3.441-.667 1.145-1.765 1.598-2.675 1.598m9.836-5.277c0-2.321.957-4.497 2.797-4.497.191 0 .238 0 .335.028-.195.094-.574.238-.574.883 0 .691.547.957.93.957.48 0 .957-.313.957-.957 0-.715-.645-1.387-1.672-1.387-2.031 0-2.726 2.199-2.867 2.652h-.024v-2.652l-3.203.266v.691c1.625 0 1.817.168 1.817 1.34v6.472c0 1.075-.266 1.075-1.817 1.075v.695c.668-.047 1.985-.047 2.7-.047.644 0 2.339 0 2.89.047v-.695h-.476c-1.746 0-1.793-.262-1.793-1.121zm14.261.023c.528 0 .575 0 .575-.453 0-2.414-1.289-4.66-4.184-4.66-2.723 0-4.824 2.461-4.824 5.422 0 3.156 2.437 5.472 5.086 5.472 2.843 0 3.922-2.582 3.922-3.082 0-.144-.122-.238-.262-.238-.192 0-.242.117-.289.238-.621 2.008-2.223 2.555-3.227 2.555s-3.418-.668-3.418-4.801v-.453zm-6.597-.453c.191-3.754 2.297-4.184 2.965-4.184 2.558 0 2.699 3.367 2.722 4.184zm-195.117-79.613c0-.43 0-.547-.239-.547-.191 0-.644.523-.812.738-.742-.598-1.481-.738-2.246-.738-2.895 0-3.75 1.574-3.75 2.89 0 .262 0 1.098.906 1.934.766.672 1.574.84 2.676 1.051 1.316.265 1.625.336 2.222.812.43.36.743.887.743 1.555 0 1.027-.598 2.176-2.704 2.176-1.574 0-2.722-.91-3.25-3.297-.093-.434-.093-.457-.117-.481-.047-.093-.144-.093-.215-.093-.261 0-.261.117-.261.546v3.25c0 .43 0 .551.238.551.117 0 .141-.023.547-.527.121-.164.121-.215.48-.594.907 1.121 2.196 1.121 2.602 1.121 2.512 0 3.754-1.386 3.754-3.273 0-1.289-.789-2.055-1.004-2.27-.86-.742-1.504-.883-3.082-1.172-.719-.14-2.461-.476-2.461-1.91 0-.742.5-1.84 2.652-1.84 2.606 0 2.746 2.223 2.797 2.961.024.192.188.192.262.192.262 0 .262-.117.262-.547zm10.515 4.566c.524 0 .574 0 .574-.453 0-2.414-1.293-4.66-4.183-4.66-2.723 0-4.828 2.461-4.828 5.422 0 3.156 2.437 5.472 5.089 5.472 2.844 0 3.922-2.582 3.922-3.082 0-.144-.121-.238-.265-.238-.192 0-.239.117-.285.238-.622 2.008-2.223 2.555-3.227 2.555s-3.418-.668-3.418-4.801v-.453zm-6.598-.453c.192-3.754 2.297-4.184 2.965-4.184 2.559 0 2.7 3.367 2.723 4.184zm41.481.191c0-2.226 0-2.894-.551-3.66-.695-.93-1.816-1.074-2.629-1.074-2.316 0-3.226 1.984-3.418 2.461h-.023v-2.461l-3.25.266v.691c1.625 0 1.816.168 1.816 1.34v6.472c0 1.075-.261 1.075-1.816 1.075v.695c.621-.047 1.914-.047 2.582-.047.691 0 1.984 0 2.601.047v-.695c-1.527 0-1.812 0-1.812-1.075v-4.445c0-2.508 1.648-3.848 3.129-3.848 1.48 0 1.816 1.219 1.816 2.68v5.613c0 1.075-.265 1.075-1.816 1.075v.695c.621-.047 1.914-.047 2.582-.047.691 0 1.98 0 2.601.047v-.695c-1.195 0-1.789 0-1.812-.715zm13.332.692c0-3.082-2.34-5.543-5.113-5.543-2.867 0-5.137 2.531-5.137 5.543 0 3.058 2.387 5.351 5.113 5.351 2.821 0 5.137-2.34 5.137-5.351m-5.113 4.824c-.883 0-1.961-.379-2.653-1.551-.644-1.074-.668-2.484-.668-3.488 0-.91 0-2.367.739-3.442a3.06 3.06 0 0 1 2.558-1.41c.934 0 1.938.43 2.578 1.364.743 1.097.743 2.601.743 3.488 0 .836 0 2.316-.622 3.441-.667 1.145-1.765 1.598-2.675 1.598m16.48-5.516c0-2.226 0-2.894-.551-3.66-.695-.93-1.816-1.074-2.629-1.074-2.316 0-3.226 1.984-3.417 2.461h-.024v-2.461l-3.25.266v.691c1.625 0 1.816.168 1.816 1.34v6.472c0 1.075-.261 1.075-1.816 1.075v.695c.621-.047 1.914-.047 2.582-.047.692 0 1.984 0 2.606.047v-.695c-1.532 0-1.817 0-1.817-1.075v-4.445c0-2.508 1.649-3.848 3.129-3.848 1.484 0 1.816 1.219 1.816 2.68v5.613c0 1.075-.261 1.075-1.816 1.075v.695c.621-.047 1.914-.047 2.582-.047.692 0 1.981 0 2.606.047v-.695c-1.196 0-1.793 0-1.817-.715zm29.477-10.781-3.324.266v.691c1.625 0 1.816.168 1.816 1.34v12.519c0 1.075-.262 1.075-1.816 1.075v.695c.671-.047 1.839-.047 2.558-.047s1.91 0 2.582.047v-.695c-1.531 0-1.816 0-1.816-1.075zm9.652 6.313v.691c1.625 0 1.816.168 1.816 1.34v4.273c0 2.031-1.074 3.731-2.867 3.731-1.961 0-2.078-1.125-2.078-2.391v-7.91l-3.371.266v.691c1.816 0 1.816.07 1.816 2.199v3.582c0 1.481 0 2.344.719 3.133.574.621 1.555.906 2.77.906.41 0 1.172 0 1.984-.691.695-.551 1.074-1.461 1.074-1.461v2.152l3.325-.238v-.695c-1.625 0-1.817-.164-1.817-1.336v-8.508zm14.387 1.429c-.285 0-1.172 0-1.172.981 0 .574.406.98.98.98.551 0 1.004-.336 1.004-1.027 0-1.602-1.672-2.746-3.609-2.746-2.793 0-5.02 2.484-5.02 5.496 0 3.058 2.297 5.398 4.996 5.398 3.157 0 3.872-2.867 3.872-3.082s-.168-.215-.239-.215c-.215 0-.242.071-.308.36-.528 1.695-1.821 2.41-3.11 2.41-1.457 0-3.39-1.266-3.39-4.899 0-3.964 2.031-4.945 3.222-4.945.911 0 2.227.36 2.774 1.289m10.902 3.301c.524 0 .574 0 .574-.453 0-2.414-1.293-4.66-4.183-4.66-2.723 0-4.828 2.461-4.828 5.422 0 3.156 2.437 5.472 5.089 5.472 2.844 0 3.922-2.582 3.922-3.082 0-.144-.121-.238-.265-.238-.192 0-.239.117-.285.238-.622 2.008-2.223 2.555-3.227 2.555s-3.418-.668-3.418-4.801v-.453zm-6.598-.453c.192-3.754 2.297-4.184 2.965-4.184 2.559 0 2.7 3.367 2.723 4.184zm24.868-.383c0-1.293 0-2.25-1.051-3.18-.836-.765-1.91-1.097-2.961-1.097-1.961 0-3.469 1.289-3.469 2.843 0 .692.457 1.028 1.004 1.028.574 0 .981-.406.981-.981 0-.98-.86-.98-1.219-.98.551-1.004 1.699-1.434 2.652-1.434 1.102 0 2.512.907 2.512 3.059v.957c-4.805.07-6.621 2.078-6.621 3.918 0 1.887 2.199 2.484 3.656 2.484 1.578 0 2.652-.957 3.106-2.101.097 1.121.835 1.98 1.867 1.98.5 0 1.886-.332 1.886-2.246v-1.336h-.523v1.336c0 1.363-.574 1.555-.91 1.555-.91 0-.91-1.266-.91-1.625zm-1.551 3.012c0 2.34-1.746 3.129-2.774 3.129-1.171 0-2.152-.864-2.152-2.008 0-3.152 4.067-3.442 4.926-3.488zm12.68-5.477c-.289 0-1.172 0-1.172.981 0 .574.406.98.98.98.551 0 1.004-.336 1.004-1.027 0-1.602-1.672-2.746-3.609-2.746-2.797 0-5.02 2.484-5.02 5.496 0 3.058 2.293 5.398 4.996 5.398 3.157 0 3.871-2.867 3.871-3.082s-.168-.215-.238-.215c-.215 0-.242.071-.312.36-.524 1.695-1.817 2.41-3.106 2.41-1.457 0-3.394-1.266-3.394-4.899 0-3.964 2.031-4.945 3.226-4.945.906 0 2.223.36 2.774 1.289m10.398 0c-.285 0-1.172 0-1.172.981 0 .574.406.98.981.98.55 0 1.004-.336 1.004-1.027 0-1.602-1.672-2.746-3.61-2.746-2.793 0-5.015 2.484-5.015 5.496 0 3.058 2.292 5.398 4.992 5.398 3.156 0 3.871-2.867 3.871-3.082s-.168-.215-.238-.215c-.215 0-.239.071-.309.36-.527 1.695-1.816 2.41-3.109 2.41-1.457 0-3.391-1.266-3.391-4.899 0-3.964 2.031-4.945 3.223-4.945.91 0 2.226.36 2.773 1.289m10.902 3.301c.528 0 .575 0 .575-.453 0-2.414-1.289-4.66-4.184-4.66-2.723 0-4.824 2.461-4.824 5.422 0 3.156 2.437 5.472 5.086 5.472 2.843 0 3.922-2.582 3.922-3.082 0-.144-.122-.238-.262-.238-.192 0-.242.117-.289.238-.621 2.008-2.223 2.555-3.227 2.555s-3.418-.668-3.418-4.801v-.453zm-6.597-.453c.191-3.754 2.297-4.184 2.965-4.184 2.558 0 2.699 3.367 2.722 4.184zm15.683-4.113c0-.43 0-.547-.242-.547-.187 0-.641.523-.808.738-.743-.598-1.485-.738-2.247-.738-2.894 0-3.753 1.574-3.753 2.89 0 .262 0 1.098.91 1.934.761.672 1.574.84 2.675 1.051 1.317.265 1.625.336 2.223.812.43.36.738.887.738 1.555 0 1.027-.593 2.176-2.699 2.176-1.574 0-2.722-.91-3.25-3.297-.094-.434-.094-.457-.117-.481-.051-.093-.145-.093-.215-.093-.265 0-.265.117-.265.546v3.25c0 .43 0 .551.242.551.117 0 .14-.023.547-.527.121-.164.121-.215.476-.594.91 1.121 2.199 1.121 2.606 1.121 2.511 0 3.754-1.386 3.754-3.273 0-1.289-.79-2.055-1.004-2.27-.86-.742-1.504-.883-3.082-1.172-.719-.14-2.461-.476-2.461-1.91 0-.742.5-1.84 2.652-1.84 2.605 0 2.746 2.223 2.797 2.961.019.192.187.192.262.192.261 0 .261-.117.261-.547zm10.684 3.73c0-1.293 0-2.25-1.051-3.18-.836-.765-1.91-1.097-2.961-1.097-1.961 0-3.465 1.289-3.465 2.843 0 .692.453 1.028 1.004 1.028.574 0 .981-.406.981-.981 0-.98-.864-.98-1.219-.98.547-1.004 1.695-1.434 2.648-1.434 1.102 0 2.512.907 2.512 3.059v.957c-4.805.07-6.617 2.078-6.617 3.918 0 1.887 2.195 2.484 3.652 2.484 1.578 0 2.657-.957 3.11-2.101.093 1.121.836 1.98 1.863 1.98.5 0 1.887-.332 1.887-2.246v-1.336h-.524v1.336c0 1.363-.574 1.555-.91 1.555-.91 0-.91-1.266-.91-1.625zm-1.551 3.012c0 2.34-1.742 3.129-2.773 3.129-1.168 0-2.149-.864-2.149-2.008 0-3.152 4.063-3.442 4.922-3.488zm39.641-6.238h2.699v-.696h-2.746v-2.793c0-2.152 1.098-3.25 2.078-3.25.191 0 .547.047.836.188-.098.027-.695.242-.695.933 0 .551.382.934.933.934.574 0 .957-.383.957-.957 0-.883-.859-1.578-2.008-1.578-1.675 0-3.562 1.293-3.562 3.73v2.793h-1.863v.696h1.863v7.835c0 1.075-.262 1.075-1.816 1.075v.695c.671-.047 1.984-.047 2.703-.047.644 0 2.339 0 2.89.047v-.695h-.476c-1.746 0-1.793-.262-1.793-1.121zm12.211 3.226c0-1.293 0-2.25-1.051-3.18-.836-.765-1.91-1.097-2.961-1.097-1.961 0-3.469 1.289-3.469 2.843 0 .692.457 1.028 1.004 1.028.574 0 .981-.406.981-.981 0-.98-.86-.98-1.219-.98.551-1.004 1.699-1.434 2.652-1.434 1.102 0 2.512.907 2.512 3.059v.957c-4.805.07-6.621 2.078-6.621 3.918 0 1.887 2.199 2.484 3.656 2.484 1.578 0 2.652-.957 3.106-2.101.097 1.121.835 1.98 1.867 1.98.5 0 1.886-.332 1.886-2.246v-1.336h-.523v1.336c0 1.363-.574 1.555-.91 1.555-.91 0-.91-1.266-.91-1.625zm-1.551 3.012c0 2.34-1.746 3.129-2.774 3.129-1.171 0-2.152-.864-2.152-2.008 0-3.152 4.067-3.442 4.926-3.488zm8.187-11.352c0-.625-.504-1.172-1.171-1.172-.622 0-1.145.5-1.145 1.149 0 .715.57 1.168 1.145 1.168.742 0 1.171-.621 1.171-1.145m-3.296 4.446v.691c1.527 0 1.742.144 1.742 1.312v6.5c0 1.075-.262 1.075-1.817 1.075v.695c.668-.047 1.817-.047 2.508-.047.266 0 1.652 0 2.465.047v-.695c-1.555 0-1.648-.118-1.648-1.047v-8.797zm10.132 1.121c0-.645-.547-1.149-1.144-1.149-.696 0-1.172.551-1.172 1.149a1.17 1.17 0 0 0 1.148 1.172c.645 0 1.168-.504 1.168-1.172m0 7.98c0-.644-.547-1.148-1.144-1.148-.696 0-1.172.55-1.172 1.148 0 .719.598 1.172 1.148 1.172.645 0 1.168-.504 1.168-1.172M327.09-323.086l-3.32.266v.691c1.625 0 1.816.168 1.816 1.34v14.289h.523c.098-.191.766-1.387.864-1.555.547.887 1.574 1.793 3.105 1.793 2.75 0 5.16-2.316 5.16-5.398 0-3.035-2.246-5.379-4.898-5.379-1.313 0-2.438.598-3.25 1.601zm.051 8.938c0-.43 0-.477.261-.86.575-.859 1.625-1.555 2.793-1.555.719 0 3.227.29 3.227 4.875 0 1.602-.238 2.606-.813 3.469-.476.739-1.433 1.481-2.625 1.481-1.293 0-2.129-.836-2.535-1.481-.308-.504-.308-.601-.308-1.008zm13.07-8.938-3.32.266v.691c1.625 0 1.812.168 1.812 1.34v12.519c0 1.075-.262 1.075-1.812 1.075v.695c.668-.047 1.836-.047 2.554-.047.719 0 1.914 0 2.582.047v-.695c-1.531 0-1.816 0-1.816-1.075zm13.359 11.473c0-3.082-2.343-5.543-5.117-5.543-2.863 0-5.137 2.531-5.137 5.543 0 3.058 2.391 5.351 5.114 5.351 2.82 0 5.14-2.34 5.14-5.351m-5.117 4.824c-.883 0-1.957-.379-2.652-1.551-.645-1.074-.668-2.484-.668-3.488 0-.91 0-2.367.738-3.442a3.07 3.07 0 0 1 2.559-1.41c.933 0 1.937.43 2.582 1.364.742 1.097.742 2.601.742 3.488 0 .836 0 2.316-.621 3.441-.668 1.145-1.77 1.598-2.68 1.598m15.098-8.555c-.285 0-1.172 0-1.172.981 0 .574.406.98.98.98.551 0 1.004-.336 1.004-1.027 0-1.602-1.672-2.746-3.609-2.746-2.793 0-5.02 2.484-5.02 5.496 0 3.058 2.297 5.398 4.996 5.398 3.157 0 3.872-2.867 3.872-3.082s-.168-.215-.239-.215c-.215 0-.242.071-.308.36-.528 1.695-1.821 2.41-3.11 2.41-1.457 0-3.39-1.266-3.39-4.899 0-3.964 2.031-4.945 3.222-4.945.911 0 2.227.36 2.774 1.289m10.398 0c-.285 0-1.168 0-1.168.981 0 .574.407.98.977.98.551 0 1.004-.336 1.004-1.027 0-1.602-1.672-2.746-3.606-2.746-2.797 0-5.019 2.484-5.019 5.496 0 3.058 2.293 5.398 4.996 5.398 3.152 0 3.871-2.867 3.871-3.082s-.168-.215-.242-.215c-.215 0-.239.071-.309.36-.527 1.695-1.816 2.41-3.109 2.41-1.457 0-3.391-1.266-3.391-4.899 0-3.964 2.031-4.945 3.227-4.945.906 0 2.222.36 2.769 1.289m12.719 3.731c0-3.082-2.34-5.543-5.113-5.543-2.867 0-5.137 2.531-5.137 5.543 0 3.058 2.387 5.351 5.113 5.351 2.821 0 5.137-2.34 5.137-5.351m-5.113 4.824c-.883 0-1.961-.379-2.653-1.551-.644-1.074-.668-2.484-.668-3.488 0-.91 0-2.367.739-3.442a3.06 3.06 0 0 1 2.558-1.41c.934 0 1.938.43 2.578 1.364.743 1.097.743 2.601.743 3.488 0 .836 0 2.316-.622 3.441-.667 1.145-1.765 1.598-2.675 1.598m18.043-8.289c-.407.023-.504.047-.504.262 0 .238.121.238.551.238h1.097c2.031 0 2.942 1.672 2.942 3.969 0 3.129-1.625 3.964-2.797 3.964-1.145 0-3.106-.55-3.797-2.125.762.122 1.457-.312 1.457-1.171 0-.692-.504-1.172-1.172-1.172-.574 0-1.195.336-1.195 1.246 0 2.125 2.125 3.871 4.781 3.871 2.844 0 4.945-2.176 4.945-4.59 0-2.199-1.769-3.918-4.062-4.324 2.078-.598 3.418-2.344 3.418-4.207 0-1.887-1.961-3.274-4.278-3.274-2.39 0-4.16 1.457-4.16 3.203 0 .954.742 1.145 1.102 1.145.5 0 1.074-.355 1.074-1.074 0-.766-.574-1.102-1.102-1.102-.14 0-.187 0-.261.028.91-1.625 3.156-1.625 3.273-1.625.789 0 2.344.355 2.344 2.699 0 .453-.074 1.793-.766 2.82-.715 1.051-1.527 1.121-2.175 1.149z"/></g></svg>