<svg xmlns="http://www.w3.org/2000/svg" width="876" height="506pt" viewBox="0 -506 657 506"><g id="page1"><path fill="none" stroke="#000" stroke-linecap="round" stroke-linejoin="round" d="M.5-.5h655.41M.5-84.594h655.41M.5-168.688h655.41M.5-252.777h655.41M.5-336.867h655.41M.5-420.961h655.41M.5-505.051h655.41M.5-.5v-504.551M82.426-.5v-504.551M164.352-.5v-504.551M246.277-.5v-504.551M328.203-.5v-504.551M410.133-.5v-504.551M492.059-.5v-504.551M573.984-.5v-504.551M655.91-.5v-504.551"/><path fill="#ebb8b8" d="M27.29-6.672h28.347l-4.414-46.351h-19.52z"/><path fill="none" stroke="#600" stroke-linecap="round" stroke-linejoin="round" stroke-width=".5" d="M27.29-6.672h28.347l-4.414-46.351h-19.52z"/><path fill="#fff" d="M38.793-6.672h5.395v-8.39h-5.395Z"/><path fill="none" stroke="#a65959" stroke-linecap="round" stroke-linejoin="round" stroke-width=".5" d="M38.793-6.672h5.398v-8.39h-5.398z"/><path fill="#fff" d="M39.555-18.258h3.597v-3.785h-3.597Z"/><path fill="none" stroke="#a65959" stroke-linecap="round" stroke-linejoin="round" stroke-width=".5" d="M39.555-18.258h3.597v-3.785h-3.597z"/><path fill="#fff" d="M47.297-29.848h4.941v-5.492h-4.941Z"/><path fill="none" stroke="#a65959" stroke-linecap="round" stroke-linejoin="round" stroke-width=".5" d="M47.297-29.848h4.937v-5.492h-4.937z"/><path fill="#fff" d="M35.469-41.434h3.894v-4.695H35.47Z"/><path fill="none" stroke="#a65959" stroke-linecap="round" stroke-linejoin="round" stroke-width=".5" d="M35.469-41.434h3.894v-4.695H35.47z"/><path fill="#ebb8eb" d="M109.215-6.672h28.348l-1.883-34.324h-24.582z"/><path fill="none" stroke="#606" stroke-linecap="round" stroke-linejoin="round" stroke-width=".5" d="M109.215-6.672h28.348l-1.883-34.324h-24.582zm14.176-34.324v-4.34"/><path fill="#606" d="M124.582-45.336a1.193 1.193 0 0 0-2.387 0c0 .66.535 1.191 1.196 1.191a1.19 1.19 0 0 0 1.191-1.19"/><path fill="#fff" d="M133.383-6.672h3.332v-5.414h-3.332Z"/><path fill="none" stroke="#a659a6" stroke-linecap="round" stroke-linejoin="round" stroke-width=".5" d="M133.383-6.672h3.332v-5.414h-3.332z"/><path fill="#fff" d="M111.523-12.39h4.461v-5.227h-4.461Z"/><path fill="none" stroke="#a659a6" stroke-linecap="round" stroke-linejoin="round" stroke-width=".5" d="M111.523-12.39h4.461v-5.227h-4.461z"/><path fill="#fff" d="M118.664-18.113h4.731v-5.309h-4.731Z"/><path fill="none" stroke="#a659a6" stroke-linecap="round" stroke-linejoin="round" stroke-width=".5" d="M118.664-18.113h4.731v-5.309h-4.731z"/><path fill="#fff" d="M120.703-23.836h5.496v-9.676h-5.496Z"/><path fill="none" stroke="#a659a6" stroke-linecap="round" stroke-linejoin="round" stroke-width=".5" d="M120.703-23.836h5.496v-9.676h-5.496z"/><path fill="#fff" d="M113.176-29.555h4.523v-7.879h-4.523Z"/><path fill="none" stroke="#a659a6" stroke-linecap="round" stroke-linejoin="round" stroke-width=".5" d="M113.176-29.555h4.523v-7.879h-4.523z"/><path fill="#fff" d="M118.965-35.277h3.57v-5.149h-3.57Z"/><path fill="none" stroke="#a659a6" stroke-linecap="round" stroke-linejoin="round" stroke-width=".5" d="M118.965-35.277h3.57v-5.149h-3.57z"/><path fill="#ebd1b8" d="M191.141-6.672h28.347l-7.652-34.316h-13.043z"/><path fill="none" stroke="#630" stroke-linecap="round" stroke-linejoin="round" stroke-width=".5" d="M191.141-6.672h28.347l-7.652-34.316h-13.043zm14.175-34.316v-12.528"/><path fill="#630" d="M206.934-53.516a1.62 1.62 0 1 0-3.238-.004 1.62 1.62 0 0 0 3.238.004"/><path fill="#fff" d="M208.047-6.672h5.187v-6.23h-5.187Z"/><path fill="none" stroke="#a68059" stroke-linecap="round" stroke-linejoin="round" stroke-width=".5" d="M208.047-6.672h5.187v-6.23h-5.187z"/><path fill="#fff" d="M195.691-15.25h5.239v-7.223h-5.239Z"/><path fill="none" stroke="#a68059" stroke-linecap="round" stroke-linejoin="round" stroke-width=".5" d="M195.691-15.25h5.239v-7.223h-5.239z"/><path fill="#fff" d="M197.504-23.832h4.773v-5.312h-4.773Z"/><path fill="none" stroke="#a68059" stroke-linecap="round" stroke-linejoin="round" stroke-width=".5" d="M197.504-23.832h4.773v-5.312h-4.773z"/><path fill="#fff" d="M200.219-32.41h2.976v-4.606h-2.976Z"/><path fill="none" stroke="#a68059" stroke-linecap="round" stroke-linejoin="round" stroke-width=".5" d="M200.219-32.41h2.976v-4.606h-2.976z"/><path fill="#ebb8b8" d="M273.066-6.672h28.348l2.582-52.254h-33.512z"/><path fill="none" stroke="#600" stroke-linecap="round" stroke-linejoin="round" stroke-width=".5" d="M273.066-6.672h28.348l2.582-52.254h-33.512zm14.176-52.254v-6.57"/><path fill="#600" d="M288.805-65.496a1.563 1.563 0 1 0-3.125 0 1.563 1.563 0 0 0 3.125 0"/><path fill="#fff" d="M296.305-6.672h4.777v-5.351h-4.777Z"/><path fill="none" stroke="#a65959" stroke-linecap="round" stroke-linejoin="round" stroke-width=".5" d="M296.305-6.672h4.773v-5.351h-4.773z"/><path fill="#fff" d="M293.883-19.734h4.101v-8.184h-4.101Z"/><path fill="none" stroke="#a65959" stroke-linecap="round" stroke-linejoin="round" stroke-width=".5" d="M293.883-19.734h4.101v-8.184h-4.101z"/><path fill="#fff" d="M282.504-32.8h3.281v-5.067h-3.281Z"/><path fill="none" stroke="#a65959" stroke-linecap="round" stroke-linejoin="round" stroke-width=".5" d="M282.504-32.8h3.281v-5.067h-3.281z"/><path fill="#fff" d="M280.23-45.863h2.95v-4.82h-2.95Z"/><path fill="none" stroke="#a65959" stroke-linecap="round" stroke-linejoin="round" stroke-width=".5" d="M280.23-45.863h2.95v-4.82h-2.95z"/><path fill="#ebd1b8" d="M354.996-6.672h28.344l-5.992-50.82h-16.36z"/><path fill="none" stroke="#630" stroke-linecap="round" stroke-linejoin="round" stroke-width=".5" d="M354.996-6.672h28.344l-5.992-50.82h-16.36zm14.172-50.82v-4.606"/><path fill="#630" d="M370.414-62.098c0-.691-.559-1.25-1.246-1.25a1.247 1.247 0 0 0 0 2.496c.687 0 1.246-.558 1.246-1.246"/><path fill="#fff" d="M368.43-6.672h3.828v-6.398h-3.828Z"/><path fill="none" stroke="#a68059" stroke-linecap="round" stroke-linejoin="round" stroke-width=".5" d="M368.43-6.672h3.828v-6.398h-3.828z"/><path fill="#fff" d="M372.113-19.375h4.391v-4.84h-4.391Z"/><path fill="none" stroke="#a68059" stroke-linecap="round" stroke-linejoin="round" stroke-width=".5" d="M372.113-19.375h4.395v-4.84h-4.395z"/><path fill="#fff" d="M365.434-32.082h3.953v-7.664h-3.953Z"/><path fill="none" stroke="#a68059" stroke-linecap="round" stroke-linejoin="round" stroke-width=".5" d="M365.434-32.082h3.953v-7.664h-3.953z"/><path fill="#fff" d="M363.961-44.785h4.977v-5.496h-4.977Z"/><path fill="none" stroke="#a68059" stroke-linecap="round" stroke-linejoin="round" stroke-width=".5" d="M363.961-44.785h4.977v-5.496h-4.977z"/><path fill="#ebb8eb" d="M436.922-6.672h28.344L458.16-62.07h-14.133z"/><path fill="none" stroke="#606" stroke-linecap="round" stroke-linejoin="round" stroke-width=".5" d="M436.922-6.672h28.344L458.16-62.07h-14.133zm14.172-55.398v-7.246"/><path fill="#606" d="M452.648-69.316c0-.86-.695-1.559-1.554-1.559a1.557 1.557 0 0 0 0 3.113c.859 0 1.554-.695 1.554-1.554"/><path fill="#fff" d="M451.863-6.672h4.946v-5.14h-4.946Z"/><path fill="none" stroke="#a659a6" stroke-linecap="round" stroke-linejoin="round" stroke-width=".5" d="M451.863-6.672h4.946v-5.14h-4.946z"/><path fill="#fff" d="M441.691-13.598h4.09v-7.336h-4.09Z"/><path fill="none" stroke="#a659a6" stroke-linecap="round" stroke-linejoin="round" stroke-width=".5" d="M441.691-13.598h4.09v-7.336h-4.09z"/><path fill="#fff" d="M454.887-20.52h4.429v-5.644h-4.429Z"/><path fill="none" stroke="#a659a6" stroke-linecap="round" stroke-linejoin="round" stroke-width=".5" d="M454.887-20.52h4.429v-5.644h-4.429z"/><path fill="#fff" d="M455.156-27.445h5.035v-7.606h-5.035Z"/><path fill="none" stroke="#a659a6" stroke-linecap="round" stroke-linejoin="round" stroke-width=".5" d="M455.156-27.445h5.035v-7.606h-5.035z"/><path fill="#fff" d="M445.875-34.371h3.875v-5.945h-3.875Z"/><path fill="none" stroke="#a659a6" stroke-linecap="round" stroke-linejoin="round" stroke-width=".5" d="M445.875-34.371h3.879v-5.945h-3.879z"/><path fill="#fff" d="M450.262-41.293h3.972v-7.062h-3.972Z"/><path fill="none" stroke="#a659a6" stroke-linecap="round" stroke-linejoin="round" stroke-width=".5" d="M450.262-41.293h3.972v-7.062h-3.972z"/><path fill="#fff" d="M444.488-48.219h4.325v-7.761h-4.325Z"/><path fill="none" stroke="#a659a6" stroke-linecap="round" stroke-linejoin="round" stroke-width=".5" d="M444.488-48.219h4.325v-7.761h-4.325z"/><path fill="#fff" d="M449.332-55.144h5.121v-6.024h-5.121Z"/><path fill="none" stroke="#a659a6" stroke-linecap="round" stroke-linejoin="round" stroke-width=".5" d="M449.332-55.144h5.121v-6.024h-5.121z"/><path fill="#b8dede" d="M518.848-6.672h28.343l-6.527-28.637h-15.285z"/><path fill="none" stroke="#004d4d" stroke-linecap="round" stroke-linejoin="round" stroke-width=".5" d="M518.848-6.672h28.343l-6.527-28.637h-15.285z"/><path fill="#fff" d="M534.277-6.672h3.043v-5.633h-3.043Z"/><path fill="none" stroke="#599292" stroke-linecap="round" stroke-linejoin="round" stroke-width=".5" d="M534.277-6.672h3.043v-5.633h-3.043z"/><path fill="#fff" d="M527.172-13.832h4.305v-8.273h-4.305Z"/><path fill="none" stroke="#599292" stroke-linecap="round" stroke-linejoin="round" stroke-width=".5" d="M527.172-13.832h4.305v-8.273h-4.305z"/><path fill="#fff" d="M530.191-20.988h4.332v-4.559h-4.332Z"/><path fill="none" stroke="#599292" stroke-linecap="round" stroke-linejoin="round" stroke-width=".5" d="M530.191-20.988h4.332v-4.559h-4.332z"/><path fill="#fff" d="M526.215-28.148h3.433v-5.305h-3.433Z"/><path fill="none" stroke="#599292" stroke-linecap="round" stroke-linejoin="round" stroke-width=".5" d="M526.215-28.148h3.433v-5.305h-3.433z"/><path fill="#b8b8b8" d="M600.773-6.672h28.348L621.008-33.3h-12.121z"/><path fill="none" stroke="#000" stroke-linecap="round" stroke-linejoin="round" stroke-width=".5" d="M600.773-6.672h28.348L621.008-33.3h-12.121z"/><path fill="#fff" d="M616.512-6.672h4.562v-5.082h-4.562Z"/><path fill="none" stroke="#595959" stroke-linecap="round" stroke-linejoin="round" stroke-width=".5" d="M616.512-6.672h4.562v-5.082h-4.562z"/><path fill="#fff" d="M609.738-15.547h3.625v-4.281h-3.625Z"/><path fill="none" stroke="#595959" stroke-linecap="round" stroke-linejoin="round" stroke-width=".5" d="M609.738-15.547h3.625v-4.281h-3.625z"/><path fill="#fff" d="M615.711-24.422h5.047v-7.293h-5.047Z"/><path fill="none" stroke="#595959" stroke-linecap="round" stroke-linejoin="round" stroke-width=".5" d="M615.711-24.422h5.047v-7.293h-5.047z"/><path fill="#b8b8b8" d="M27.29-90.762h28.347l-8.133-34.711H35.422z"/><path fill="none" stroke="#000" stroke-linecap="round" stroke-linejoin="round" stroke-width=".5" d="M27.29-90.762h28.347l-8.133-34.711H35.422z"/><path fill="#fff" d="M40.82-90.762h3.703v-6.414H40.82Z"/><path fill="none" stroke="#595959" stroke-linecap="round" stroke-linejoin="round" stroke-width=".5" d="M40.82-90.762h3.703v-6.414H40.82z"/><path fill="#fff" d="M31.898-96.547h3.274v-4.023h-3.274Z"/><path fill="none" stroke="#595959" stroke-linecap="round" stroke-linejoin="round" stroke-width=".5" d="M31.898-96.547h3.274v-4.023h-3.274z"/><path fill="#fff" d="M31.867-102.332h4.11v-5.578h-4.11Z"/><path fill="none" stroke="#595959" stroke-linecap="round" stroke-linejoin="round" stroke-width=".5" d="M31.867-102.332h4.11v-5.578h-4.11z"/><path fill="#fff" d="M36.465-108.117h4.77v-7.043h-4.77Z"/><path fill="none" stroke="#595959" stroke-linecap="round" stroke-linejoin="round" stroke-width=".5" d="M36.465-108.117h4.77v-7.043h-4.77z"/><path fill="#fff" d="M43.164-113.902h2.855v-3.086h-2.855Z"/><path fill="none" stroke="#595959" stroke-linecap="round" stroke-linejoin="round" stroke-width=".5" d="M43.164-113.902h2.855v-3.086h-2.855z"/><path fill="#fff" d="M36.89-119.688h2.981v-3.082h-2.98Z"/><path fill="none" stroke="#595959" stroke-linecap="round" stroke-linejoin="round" stroke-width=".5" d="M36.89-119.688h2.981v-3.082h-2.98z"/><path fill="#b8ebb8" d="M109.215-90.762h28.348l-2.192-55.207h-23.965z"/><path fill="none" stroke="#060" stroke-linecap="round" stroke-linejoin="round" stroke-width=".5" d="M109.215-90.762h28.348l-2.192-55.207h-23.965zm14.176-55.207v-14.047"/><path fill="#060" d="M124.402-160.016a1.012 1.012 0 1 0-2.027 0 1.013 1.013 0 0 0 2.027 0"/><path fill="#fff" d="M115.617-90.762h5.18v-5.777h-5.18Z"/><path fill="none" stroke="#59a659" stroke-linecap="round" stroke-linejoin="round" stroke-width=".5" d="M115.617-90.762h5.18v-5.773h-5.18z"/><path fill="#fff" d="M118.945-97.664h3.305v-6.391h-3.305Z"/><path fill="none" stroke="#59a659" stroke-linecap="round" stroke-linejoin="round" stroke-width=".5" d="M118.945-97.664h3.301v-6.391h-3.301z"/><path fill="#fff" d="M111.625-104.563h4.035v-5.597h-4.035Z"/><path fill="none" stroke="#59a659" stroke-linecap="round" stroke-linejoin="round" stroke-width=".5" d="M111.625-104.563h4.035v-5.597h-4.035z"/><path fill="#fff" d="M122.324-111.465h5.258v-8.242h-5.258Z"/><path fill="none" stroke="#59a659" stroke-linecap="round" stroke-linejoin="round" stroke-width=".5" d="M122.324-111.465h5.254v-8.238h-5.254z"/><path fill="#fff" d="M119.965-118.363h4.297v-5.973h-4.297Z"/><path fill="none" stroke="#59a659" stroke-linecap="round" stroke-linejoin="round" stroke-width=".5" d="M119.965-118.363h4.297v-5.973h-4.297z"/><path fill="#fff" d="M118.961-125.266h3.566v-6.574h-3.566Z"/><path fill="none" stroke="#59a659" stroke-linecap="round" stroke-linejoin="round" stroke-width=".5" d="M118.961-125.266h3.566v-6.574h-3.566z"/><path fill="#fff" d="M111.652-132.164h2.836v-4.524h-2.836Z"/><path fill="none" stroke="#59a659" stroke-linecap="round" stroke-linejoin="round" stroke-width=".5" d="M111.652-132.164h2.836v-4.524h-2.836z"/><path fill="#fff" d="M124.297-138.715h4.867v-7.254h-4.867Z"/><path fill="none" stroke="#59a659" stroke-linecap="round" stroke-linejoin="round" stroke-width=".5" d="M124.297-138.715h4.867v-7.254h-4.867z"/><path fill="#b8dede" d="M191.141-90.762h28.347l2.403-41.636h-33.149z"/><path fill="none" stroke="#004d4d" stroke-linecap="round" stroke-linejoin="round" stroke-width=".5" d="M191.141-90.762h28.347l2.403-41.636h-33.149zm14.175-41.636v-13.11"/><path fill="#004d4d" d="M206.375-145.508a1.058 1.058 0 0 0-2.117 0 1.06 1.06 0 0 0 1.058 1.063c.582 0 1.059-.477 1.059-1.063"/><path fill="#fff" d="M201.148-90.762h3.657v-5.68h-3.657Z"/><path fill="none" stroke="#599292" stroke-linecap="round" stroke-linejoin="round" stroke-width=".5" d="M201.148-90.762h3.657v-5.68h-3.657z"/><path fill="#fff" d="M195.871-95.969h4.367v-7.41h-4.367Z"/><path fill="none" stroke="#599292" stroke-linecap="round" stroke-linejoin="round" stroke-width=".5" d="M195.871-95.969h4.367v-7.41h-4.367z"/><path fill="#fff" d="M203.758-101.172h2.851v-3.523h-2.851Z"/><path fill="none" stroke="#599292" stroke-linecap="round" stroke-linejoin="round" stroke-width=".5" d="M203.758-101.172h2.851v-3.523h-2.851z"/><path fill="#fff" d="M194.828-106.379h4.781v-5.68h-4.781Z"/><path fill="none" stroke="#599292" stroke-linecap="round" stroke-linejoin="round" stroke-width=".5" d="M194.828-106.379h4.781v-5.68h-4.781z"/><path fill="#fff" d="M201.578-111.582h4.988v-8.664h-4.988Z"/><path fill="none" stroke="#599292" stroke-linecap="round" stroke-linejoin="round" stroke-width=".5" d="M201.578-111.582h4.988v-8.664h-4.988z"/><path fill="#fff" d="M194.488-116.785h3.942v-5.969h-3.942Z"/><path fill="none" stroke="#599292" stroke-linecap="round" stroke-linejoin="round" stroke-width=".5" d="M194.488-116.785h3.942v-5.969h-3.942z"/><path fill="#fff" d="M196.914-121.992h4.316v-4.625h-4.316Z"/><path fill="none" stroke="#599292" stroke-linecap="round" stroke-linejoin="round" stroke-width=".5" d="M196.914-121.992h4.316v-4.625h-4.316z"/><path fill="#fff" d="M210.844-127.195h3.359v-4.114h-3.359Z"/><path fill="none" stroke="#599292" stroke-linecap="round" stroke-linejoin="round" stroke-width=".5" d="M210.844-127.195h3.359v-4.114h-3.359z"/><path fill="#b8dede" d="M273.066-90.762h28.348l2.395-24.761h-33.133z"/><path fill="none" stroke="#004d4d" stroke-linecap="round" stroke-linejoin="round" stroke-width=".5" d="M273.066-90.762h28.348l2.395-24.761h-33.133zm14.176-24.761v-8.704"/><path fill="#004d4d" d="M288.801-124.227a1.558 1.558 0 1 0-3.115-.001 1.558 1.558 0 0 0 3.115.001"/><path fill="#fff" d="M282.109-90.762h3.477v-5.851h-3.477Z"/><path fill="none" stroke="#599292" stroke-linecap="round" stroke-linejoin="round" stroke-width=".5" d="M282.109-90.762h3.477v-5.851h-3.477z"/><path fill="#fff" d="M291.125-96.953h5.168v-10.301h-5.168Z"/><path fill="none" stroke="#599292" stroke-linecap="round" stroke-linejoin="round" stroke-width=".5" d="M291.125-96.953h5.168v-10.301h-5.168z"/><path fill="#fff" d="M293.918-103.145h2.984v-4.156h-2.984Z"/><path fill="none" stroke="#599292" stroke-linecap="round" stroke-linejoin="round" stroke-width=".5" d="M293.918-103.145h2.984v-4.156h-2.984z"/><path fill="#fff" d="M286.992-109.336h4.242v-4.422h-4.242Z"/><path fill="none" stroke="#599292" stroke-linecap="round" stroke-linejoin="round" stroke-width=".5" d="M286.992-109.336h4.242v-4.422h-4.242z"/><path fill="#b8ebb8" d="M354.996-90.762h28.344l1.648-58.972h-31.64z"/><path fill="none" stroke="#060" stroke-linecap="round" stroke-linejoin="round" stroke-width=".5" d="M354.996-90.762h28.344l1.648-58.972h-31.64z"/><path fill="#fff" d="M368.43-90.762h3.297v-4.23h-3.297Z"/><path fill="none" stroke="#59a659" stroke-linecap="round" stroke-linejoin="round" stroke-width=".5" d="M368.43-90.762h3.297v-4.23h-3.297z"/><path fill="#fff" d="M376.965-95.676h5.18v-8.863h-5.18Z"/><path fill="none" stroke="#59a659" stroke-linecap="round" stroke-linejoin="round" stroke-width=".5" d="M376.965-95.676h5.18v-8.863h-5.18z"/><path fill="#fff" d="M357.328-100.594h5.61v-7.254h-5.61Z"/><path fill="none" stroke="#59a659" stroke-linecap="round" stroke-linejoin="round" stroke-width=".5" d="M357.328-100.594h5.61v-7.254h-5.61z"/><path fill="#fff" d="M371.863-105.508h3.508v-5.672h-3.508Z"/><path fill="none" stroke="#59a659" stroke-linecap="round" stroke-linejoin="round" stroke-width=".5" d="M371.863-105.508h3.508v-5.672h-3.508z"/><path fill="#fff" d="M363.836-110.422h4.312v-8.105h-4.312Z"/><path fill="none" stroke="#59a659" stroke-linecap="round" stroke-linejoin="round" stroke-width=".5" d="M363.836-110.422h4.312v-8.105h-4.312z"/><path fill="#fff" d="M361.488-115.336h5.668v-11.125h-5.668Z"/><path fill="none" stroke="#59a659" stroke-linecap="round" stroke-linejoin="round" stroke-width=".5" d="M361.488-115.336h5.668v-11.125h-5.668z"/><path fill="#fff" d="M366.824-120.25h4.36v-7.555h-4.36Z"/><path fill="none" stroke="#59a659" stroke-linecap="round" stroke-linejoin="round" stroke-width=".5" d="M366.824-120.25h4.36v-7.555h-4.36z"/><path fill="#fff" d="M377.82-125.164h3.848v-5.184h-3.848Z"/><path fill="none" stroke="#59a659" stroke-linecap="round" stroke-linejoin="round" stroke-width=".5" d="M377.82-125.164h3.848v-5.184h-3.848z"/><path fill="#fff" d="M365.555-130.078h3.457v-3.731h-3.457Z"/><path fill="none" stroke="#59a659" stroke-linecap="round" stroke-linejoin="round" stroke-width=".5" d="M365.555-130.078h3.457v-3.731h-3.457z"/><path fill="#fff" d="M364.188-134.992h3.98v-4.965h-3.98Z"/><path fill="none" stroke="#59a659" stroke-linecap="round" stroke-linejoin="round" stroke-width=".5" d="M364.188-134.992h3.976v-4.969h-3.976z"/><path fill="#fff" d="M362.348-139.906h4.914v-8.426h-4.914Z"/><path fill="none" stroke="#59a659" stroke-linecap="round" stroke-linejoin="round" stroke-width=".5" d="M362.348-139.906h4.914v-8.426h-4.914z"/><path fill="#fff" d="M377.992-142.559h5.567v-7.175h-5.567Z"/><path fill="none" stroke="#59a659" stroke-linecap="round" stroke-linejoin="round" stroke-width=".5" d="M377.992-142.559h5.567v-7.175h-5.567z"/><path fill="#ebb8eb" d="M436.922-90.762h28.344l-3.457-48.324h-21.43z"/><path fill="none" stroke="#606" stroke-linecap="round" stroke-linejoin="round" stroke-width=".5" d="M436.922-90.762h28.344l-3.457-48.324h-21.43zm14.172-48.324v-11.629"/><path fill="#606" d="M452.012-150.715a.92.92 0 0 0-.918-.922.92.92 0 0 0 0 1.84.92.92 0 0 0 .918-.918"/><path fill="#fff" d="M438.617-90.762h5.571v-9.476h-5.571Z"/><path fill="none" stroke="#a659a6" stroke-linecap="round" stroke-linejoin="round" stroke-width=".5" d="M438.617-90.762h5.571v-9.476h-5.571z"/><path fill="#fff" d="M448.625-96.805h3.219v-4.004h-3.219Z"/><path fill="none" stroke="#a659a6" stroke-linecap="round" stroke-linejoin="round" stroke-width=".5" d="M448.625-96.805h3.219v-4.004h-3.219z"/><path fill="#fff" d="M460.031-102.844h3.504v-5.531h-3.504Z"/><path fill="none" stroke="#a659a6" stroke-linecap="round" stroke-linejoin="round" stroke-width=".5" d="M460.031-102.844h3.504v-5.531h-3.504z"/><path fill="#fff" d="M445.559-108.883h3.617v-5.762h-3.617Z"/><path fill="none" stroke="#a659a6" stroke-linecap="round" stroke-linejoin="round" stroke-width=".5" d="M445.559-108.883h3.617v-5.762h-3.617z"/><path fill="#fff" d="M449.641-114.926h5.261v-8.418h-5.261Z"/><path fill="none" stroke="#a659a6" stroke-linecap="round" stroke-linejoin="round" stroke-width=".5" d="M449.641-114.926h5.261v-8.418h-5.261z"/><path fill="#fff" d="M445.359-120.965h3.887v-4.57h-3.887Z"/><path fill="none" stroke="#a659a6" stroke-linecap="round" stroke-linejoin="round" stroke-width=".5" d="M445.359-120.965h3.887v-4.57h-3.887z"/><path fill="#fff" d="M448.98-127.004h4.891v-5.023h-4.891Z"/><path fill="none" stroke="#a659a6" stroke-linecap="round" stroke-linejoin="round" stroke-width=".5" d="M448.98-127.004h4.891v-5.023h-4.891z"/><path fill="#fff" d="M441.629-133.047h3.965v-5.441h-3.965Z"/><path fill="none" stroke="#a659a6" stroke-linecap="round" stroke-linejoin="round" stroke-width=".5" d="M441.629-133.047h3.965v-5.441h-3.965z"/><path fill="#b8b8b8" d="M518.848-90.762h28.343l-7.492-31.836h-13.355z"/><path fill="none" stroke="#000" stroke-linecap="round" stroke-linejoin="round" stroke-width=".5" d="M518.848-90.762h28.343l-7.492-31.836h-13.355zm14.172-31.836v-4.906"/><path d="M534.121-127.504a1.1 1.1 0 1 0-2.199 0c0 .606.492 1.102 1.098 1.102.609 0 1.101-.496 1.101-1.102"/><path fill="#fff" d="M540.453-90.762h3.699v-6.078h-3.699Z"/><path fill="none" stroke="#595959" stroke-linecap="round" stroke-linejoin="round" stroke-width=".5" d="M540.453-90.762h3.699v-6.078h-3.699z"/><path fill="#fff" d="M528.02-96.07h2.992v-4.399h-2.992Z"/><path fill="none" stroke="#595959" stroke-linecap="round" stroke-linejoin="round" stroke-width=".5" d="M528.02-96.07h2.992v-4.399h-2.992z"/><path fill="#fff" d="M536.832-101.375h4.023v-5.941h-4.023Z"/><path fill="none" stroke="#595959" stroke-linecap="round" stroke-linejoin="round" stroke-width=".5" d="M536.832-101.375h4.023v-5.941h-4.023z"/><path fill="#fff" d="M524.969-106.68h2.91v-3.922h-2.91Z"/><path fill="none" stroke="#595959" stroke-linecap="round" stroke-linejoin="round" stroke-width=".5" d="M524.969-106.68h2.91v-3.922h-2.91z"/><path fill="#fff" d="M530.805-111.984h3.418v-3.629h-3.418Z"/><path fill="none" stroke="#595959" stroke-linecap="round" stroke-linejoin="round" stroke-width=".5" d="M530.805-111.984h3.418v-3.629h-3.418z"/><path fill="#fff" d="M527.523-117.293h2.883v-4.176h-2.883Z"/><path fill="none" stroke="#595959" stroke-linecap="round" stroke-linejoin="round" stroke-width=".5" d="M527.523-117.293h2.883v-4.176h-2.883z"/><path fill="#d1b8eb" d="M600.773-90.762h28.348l2.082-27.926h-32.515z"/><path fill="none" stroke="#306" stroke-linecap="round" stroke-linejoin="round" stroke-width=".5" d="M600.773-90.762h28.348l2.082-27.926h-32.515zm14.172-27.926v-4.496"/><path fill="#306" d="M616.488-123.184a1.544 1.544 0 1 0-3.088.002 1.544 1.544 0 0 0 3.088-.002"/><path fill="#fff" d="M615.805-90.762h4.086v-6.375h-4.086Z"/><path fill="none" stroke="#8059a6" stroke-linecap="round" stroke-linejoin="round" stroke-width=".5" d="M615.805-90.762h4.086v-6.375h-4.086z"/><path fill="#fff" d="M605.945-97.742h5.34v-9.758h-5.34Z"/><path fill="none" stroke="#8059a6" stroke-linecap="round" stroke-linejoin="round" stroke-width=".5" d="M605.945-97.742h5.34v-9.758h-5.34z"/><path fill="#fff" d="M622.816-104.727h2.938v-5.281h-2.938Z"/><path fill="none" stroke="#8059a6" stroke-linecap="round" stroke-linejoin="round" stroke-width=".5" d="M622.816-104.727h2.938v-5.281h-2.938z"/><path fill="#fff" d="M601.523-111.707h3.047v-5.762h-3.047Z"/><path fill="none" stroke="#8059a6" stroke-linecap="round" stroke-linejoin="round" stroke-width=".5" d="M601.523-111.707h3.047v-5.762h-3.047z"/><path fill="#ebded1" d="m75.48-175.355-3.25-7.211-1.722-8.942-3.739-7.851-.492-8.996-9.316-.684-14.09 2.605L28.97-205l-9.223-1.824-5.676 10.648-1.234 3.883-4.773 6.891-.614 10.047z"/><path fill="none" stroke="#664d33" stroke-linecap="round" stroke-linejoin="round" d="m75.48-175.355-3.25-7.211-1.722-8.942-3.739-7.851-.492-8.996-9.316-.684-14.09 2.605L28.97-205l-9.223-1.824-5.676 10.648-1.234 3.883-4.773 6.891-.614 10.047z"/><path fill="#ccbfb2" d="m23.356-177.008 8.68-3.125-3.427-3.07-8.55 1.937zm19.718-6.086 15.875 2.992-3.578-7.296-12.277 2.128zm-7.687-3.492 2.246-2.453-.266-6.039-1.742 3.277zm11.375-5.676 6.754 2.606-.36-10.293-9.32.449z"/><path fill="none" stroke="#664d33" stroke-linecap="round" stroke-linejoin="round" d="M41.465-213.262c4.754-2.656 5.574-8.211 1.73-11.75-2.41-2.218-6.406-3.054-8.082-5.75-1.629-2.625-.453-5.851 2.653-7.277m10.5 24.777c4.297-.008 7.578-3.191 6.945-6.73-.398-2.223-2.473-4.129-2.176-6.391.293-2.203 2.637-3.812 5.29-3.625m-27.067 16.746c1.765-2.453.504-5.644-2.668-6.746-1.988-.687-4.414-.293-6.149-1.398-1.691-1.074-2.046-3.078-.796-4.516"/><path fill="gray" d="M32.563-186.582c-.368.527-.368.605-.368 1.34 0 1.426.528 1.586 1.63 1.586h9.952v4.468H41.34c-.57 0-1.63 0-1.63 1.18s1.06 1.18 1.63 1.18h7.152c.57 0 1.625 0 1.625-1.18s-1.054-1.18-1.625-1.18h-2.441v-4.468h3.05c.57 0 1.63 0 1.63-1.176 0-1.18-1.06-1.18-1.63-1.18h-3.05v-14.554c0-1.336-.282-1.661-1.66-1.661h-.938c-.976 0-1.18.036-1.668.813zm2.355.57 8.86-14.226v14.226z"/><path fill="none" stroke="#000" stroke-linecap="round" stroke-linejoin="round" d="M32.563-186.582c-.368.527-.368.605-.368 1.34 0 1.426.528 1.586 1.63 1.586h9.952v4.468H41.34c-.57 0-1.63 0-1.63 1.18s1.06 1.18 1.63 1.18h7.152c.57 0 1.625 0 1.625-1.18s-1.054-1.18-1.625-1.18h-2.441v-4.468h3.05c.57 0 1.63 0 1.63-1.176 0-1.18-1.06-1.18-1.63-1.18h-3.05v-14.554c0-1.336-.282-1.661-1.66-1.661h-.938c-.976 0-1.18.036-1.668.813z"/><path fill="none" stroke="#000" stroke-linecap="round" stroke-linejoin="round" d="m34.918-186.012 8.86-14.226v14.226z"/><path fill="#ebd1b8" d="M109.215-174.855h28.348l-6.102-37.684h-16.145z"/><path fill="none" stroke="#630" stroke-linecap="round" stroke-linejoin="round" stroke-width=".5" d="M109.215-174.855h28.348l-6.102-37.684h-16.145zm14.176-37.684v-8.906"/><path fill="#630" d="M124.508-221.445a1.119 1.119 0 1 0-2.239-.005 1.119 1.119 0 0 0 2.239.005"/><path fill="#fff" d="M118.234-174.855h3.098v-3.829h-3.098Z"/><path fill="none" stroke="#a68059" stroke-linecap="round" stroke-linejoin="round" stroke-width=".5" d="M118.234-174.855h3.098v-3.829h-3.098z"/><path fill="#fff" d="M119.406-179.566h4.481v-8.082h-4.481Z"/><path fill="none" stroke="#a68059" stroke-linecap="round" stroke-linejoin="round" stroke-width=".5" d="M119.406-179.566h4.481v-8.082h-4.481z"/><path fill="#fff" d="M115.203-184.277h4.133v-4.766h-4.133Z"/><path fill="none" stroke="#a68059" stroke-linecap="round" stroke-linejoin="round" stroke-width=".5" d="M115.203-184.277h4.133v-4.766h-4.133z"/><path fill="#fff" d="M125.391-188.988h4.035v-7.293h-4.035Z"/><path fill="none" stroke="#a68059" stroke-linecap="round" stroke-linejoin="round" stroke-width=".5" d="M125.391-188.988h4.035v-7.293h-4.035z"/><path fill="#fff" d="M125.898-193.699h4.192v-5.203h-4.192Z"/><path fill="none" stroke="#a68059" stroke-linecap="round" stroke-linejoin="round" stroke-width=".5" d="M125.898-193.699h4.192v-5.203h-4.192z"/><path fill="#fff" d="M123.492-198.406h4.961v-7.418h-4.961Z"/><path fill="none" stroke="#a68059" stroke-linecap="round" stroke-linejoin="round" stroke-width=".5" d="M123.492-198.406h4.957v-7.418h-4.957z"/><path fill="#fff" d="M115.98-203.117h5.028v-6.281h-5.028Z"/><path fill="none" stroke="#a68059" stroke-linecap="round" stroke-linejoin="round" stroke-width=".5" d="M115.98-203.117h5.028v-6.281h-5.028z"/><path fill="#fff" d="M122.902-206.078h4.981v-6.461h-4.981Z"/><path fill="none" stroke="#a68059" stroke-linecap="round" stroke-linejoin="round" stroke-width=".5" d="M122.902-206.078h4.981v-6.461h-4.981z"/><path fill="#d1b8eb" d="M191.141-174.855h28.347l.649-33.098h-29.645z"/><path fill="none" stroke="#306" stroke-linecap="round" stroke-linejoin="round" stroke-width=".5" d="M191.141-174.855h28.347l.649-33.098h-29.645zm14.175-33.098v-7.637"/><path fill="#306" d="M206.438-215.59c0-.621-.5-1.125-1.122-1.125-.621 0-1.125.504-1.125 1.125a1.125 1.125 0 0 0 2.247 0"/><path fill="#fff" d="M215.355-174.855h2.887v-4.395h-2.887Z"/><path fill="none" stroke="#8059a6" stroke-linecap="round" stroke-linejoin="round" stroke-width=".5" d="M215.355-174.855h2.887v-4.395h-2.887z"/><path fill="#fff" d="M202.859-183.129h3.45V-190h-3.45Z"/><path fill="none" stroke="#8059a6" stroke-linecap="round" stroke-linejoin="round" stroke-width=".5" d="M202.859-183.129h3.45V-190h-3.45z"/><path fill="#fff" d="M211.672-191.406h4.695v-5.184h-4.695Z"/><path fill="none" stroke="#8059a6" stroke-linecap="round" stroke-linejoin="round" stroke-width=".5" d="M211.672-191.406h4.695v-5.184h-4.695z"/><path fill="#fff" d="M209.531-198.441h4.778v-9.512h-4.778Z"/><path fill="none" stroke="#8059a6" stroke-linecap="round" stroke-linejoin="round" stroke-width=".5" d="M209.531-198.441h4.778v-9.512h-4.778z"/><path fill="#ebb8b8" d="M273.066-174.855h28.348l1.852-33.852h-32.047z"/><path fill="none" stroke="#600" stroke-linecap="round" stroke-linejoin="round" stroke-width=".5" d="M273.066-174.855h28.348l1.852-33.852h-32.047zm14.176-33.852v-5.441"/><path fill="#600" d="M288.145-214.148a.901.901 0 1 0-1.805 0 .903.903 0 1 0 1.805 0"/><path fill="#fff" d="M281.898-174.855h5.407v-8.364h-5.407Z"/><path fill="none" stroke="#a65959" stroke-linecap="round" stroke-linejoin="round" stroke-width=".5" d="M281.898-174.855h5.407v-8.364h-5.407z"/><path fill="#fff" d="M295.832-180.496h5.094v-9.871h-5.094Z"/><path fill="none" stroke="#a65959" stroke-linecap="round" stroke-linejoin="round" stroke-width=".5" d="M295.832-180.496h5.094v-9.871h-5.094z"/><path fill="#fff" d="M274.172-186.141h4.367v-8.136h-4.367Z"/><path fill="none" stroke="#a65959" stroke-linecap="round" stroke-linejoin="round" stroke-width=".5" d="M274.172-186.141h4.367v-8.136h-4.367z"/><path fill="#fff" d="M292.703-191.781h5.606v-6.571h-5.606Z"/><path fill="none" stroke="#a65959" stroke-linecap="round" stroke-linejoin="round" stroke-width=".5" d="M292.703-191.781h5.606v-6.571h-5.606z"/><path fill="#fff" d="M289.484-197.422h3.496v-6.848h-3.496Z"/><path fill="none" stroke="#a65959" stroke-linecap="round" stroke-linejoin="round" stroke-width=".5" d="M289.484-197.422h3.496v-6.848h-3.496z"/><path fill="#fff" d="M274.262-202.594h3.347v-6.113h-3.347Z"/><path fill="none" stroke="#a65959" stroke-linecap="round" stroke-linejoin="round" stroke-width=".5" d="M274.262-202.594h3.347v-6.113h-3.347z"/><path fill="#ebb8eb" d="M354.996-174.855h28.344l-2.215-30.215h-23.914z"/><path fill="none" stroke="#606" stroke-linecap="round" stroke-linejoin="round" stroke-width=".5" d="M354.996-174.855h28.344l-2.215-30.215h-23.914zm14.172-30.215v-5.125"/><path fill="#606" d="M370.695-210.195c0-.84-.683-1.528-1.527-1.528s-1.527.688-1.527 1.528a1.527 1.527 0 1 0 3.054 0"/><path fill="#fff" d="M373.027-174.855h4.196v-8.208h-4.196Z"/><path fill="none" stroke="#a659a6" stroke-linecap="round" stroke-linejoin="round" stroke-width=".5" d="M373.027-174.855h4.196v-8.208h-4.196z"/><path fill="#fff" d="M360.246-179.891h4.465v-7.406h-4.465Z"/><path fill="none" stroke="#a659a6" stroke-linecap="round" stroke-linejoin="round" stroke-width=".5" d="M360.246-179.891h4.465v-7.406h-4.465z"/><path fill="#fff" d="M366.852-184.926h5.433v-8.371h-5.433Z"/><path fill="none" stroke="#a659a6" stroke-linecap="round" stroke-linejoin="round" stroke-width=".5" d="M366.852-184.926h5.433v-8.371h-5.433z"/><path fill="#fff" d="M367.164-189.965h2.867v-3.555h-2.867Z"/><path fill="none" stroke="#a659a6" stroke-linecap="round" stroke-linejoin="round" stroke-width=".5" d="M367.164-189.965h2.867v-3.555h-2.867z"/><path fill="#fff" d="M363.57-194.996h5.098v-5.934h-5.098Z"/><path fill="none" stroke="#a659a6" stroke-linecap="round" stroke-linejoin="round" stroke-width=".5" d="M363.57-194.996h5.098v-5.934h-5.098z"/><path fill="#fff" d="M368.129-200.035h4.937v-4.969h-4.937Z"/><path fill="none" stroke="#a659a6" stroke-linecap="round" stroke-linejoin="round" stroke-width=".5" d="M368.129-200.035h4.937v-4.969h-4.937z"/><path fill="#ebded1" d="m484.914-175.355.391-6.395-1.7-11.883-4.96-3.414-2.649-9.336-11.508 1.477-9.586-.614-11.199 2.727-11.652 2.016-4.711 4.261-.945 7.321-7.485 6.011-2.027 7.829z"/><path fill="none" stroke="#664d33" stroke-linecap="round" stroke-linejoin="round" d="m484.914-175.355.391-6.395-1.7-11.883-4.96-3.414-2.649-9.336-11.508 1.477-9.586-.614-11.199 2.727-11.652 2.016-4.711 4.261-.945 7.321-7.485 6.011-2.027 7.829z"/><g fill="#ccbfb2"><path d="m451.348-178.566 12.535.058 1.121-7.43-11.93.524z"/><path d="m450.137-178.668 12.16-2.434-1.348-5.668-5.34 2.754zm-10.918-4.285 3.652-2.254 4.109-.613-8.914 3.429z"/><path d="m444.336-186.535 5.004 2.539-.016-3.527-5.367 1.265zm9.809 1.722 4.621-3.656-.61-5.515-2.886 3.175zm-16.387-5.113h9.644l-5.371-2.097-7.402-.442z"/><path d="m437.105-189.887.665-.519-.008-7.332-2.907 5.004z"/><path d="m430.617-190.766 4.828-3.097.414.203-7.98-2.516z"/></g><path fill="none" stroke="#664d33" stroke-linecap="round" stroke-linejoin="round" d="M450.898-209.246c5.516-1.281 8.383-6.348 6.063-10.707-1.453-2.738-4.934-4.578-5.512-7.574-.562-2.914 1.766-5.676 5.254-6.219m1 24.5c4.258-.465 7.035-3.965 5.871-7.41-.73-2.16-3.074-3.836-3.121-6.114-.043-2.214 2.039-4.054 4.695-4.148m-24.453 17.672c1.723-2.481.41-5.652-2.781-6.719-2-.664-4.418-.242-6.176-1.324-1.707-1.059-2.093-3.055-.871-4.508"/><path fill="gray" d="M452.324-200.523c0-.61 0-1.665-1.179-1.665-.692 0-.938.368-1.18.891-.774 1.75-2.113 3.902-4.27 4.067-.605.042-1.461.125-1.461 1.179 0 .692.403 1.176 1.301 1.176 2.278 0 4.024-1.707 4.149-1.785v17.433h-3.579c-.57 0-1.667 0-1.667 1.18s1.097 1.18 1.667 1.18h9.793c.571 0 1.665 0 1.665-1.18s-1.094-1.18-1.665-1.18h-3.574z"/><path fill="none" stroke="#000" stroke-linecap="round" stroke-linejoin="round" d="M452.324-200.523c0-.61 0-1.665-1.179-1.665-.692 0-.938.368-1.18.891-.774 1.75-2.113 3.902-4.27 4.067-.605.042-1.461.125-1.461 1.179 0 .692.403 1.176 1.301 1.176 2.278 0 4.024-1.707 4.149-1.785v17.433h-3.579c-.57 0-1.667 0-1.667 1.18s1.097 1.18 1.667 1.18h9.793c.571 0 1.665 0 1.665-1.18s-1.094-1.18-1.665-1.18h-3.574z"/><path fill="#d1b8eb" d="M518.848-174.855h28.343l.137-41.231h-28.613z"/><path fill="none" stroke="#306" stroke-linecap="round" stroke-linejoin="round" stroke-width=".5" d="M518.848-174.855h28.343l.137-41.231h-28.613zm14.172-41.231v-7.781"/><path fill="#306" d="M534.449-223.867a1.43 1.43 0 0 0-1.429-1.426c-.79 0-1.426.641-1.426 1.426 0 .789.636 1.429 1.426 1.429a1.43 1.43 0 0 0 1.429-1.429"/><path fill="#fff" d="M542.633-174.855h3.101v-4.766h-3.101Z"/><path fill="none" stroke="#8059a6" stroke-linecap="round" stroke-linejoin="round" stroke-width=".5" d="M542.633-174.855h3.101v-4.766h-3.101z"/><path fill="#fff" d="M532.363-180.008h3.75v-7.293h-3.75Z"/><path fill="none" stroke="#8059a6" stroke-linecap="round" stroke-linejoin="round" stroke-width=".5" d="M532.363-180.008h3.75v-7.293h-3.75z"/><path fill="#fff" d="M538.371-185.164h4.57v-8.336h-4.57Z"/><path fill="none" stroke="#8059a6" stroke-linecap="round" stroke-linejoin="round" stroke-width=".5" d="M538.371-185.164h4.57v-8.336h-4.57z"/><path fill="#fff" d="M520.824-190.316h3.246v-4.329h-3.246Z"/><path fill="none" stroke="#8059a6" stroke-linecap="round" stroke-linejoin="round" stroke-width=".5" d="M520.824-190.316h3.246v-4.329h-3.246z"/><path fill="#fff" d="M533.07-195.473h5.532v-10.879h-5.532Z"/><path fill="none" stroke="#8059a6" stroke-linecap="round" stroke-linejoin="round" stroke-width=".5" d="M533.07-195.473h5.532v-10.879h-5.532z"/><path fill="#fff" d="M520.969-200.625h4.336v-5.715h-4.336Z"/><path fill="none" stroke="#8059a6" stroke-linecap="round" stroke-linejoin="round" stroke-width=".5" d="M520.969-200.625h4.336v-5.715h-4.336z"/><path fill="#fff" d="M542.176-205.777h4.234v-6.485h-4.234Z"/><path fill="none" stroke="#8059a6" stroke-linecap="round" stroke-linejoin="round" stroke-width=".5" d="M542.176-205.777h4.234v-6.485h-4.234z"/><path fill="#fff" d="M526.617-210.934h3.653v-5.097h-3.653Z"/><path fill="none" stroke="#8059a6" stroke-linecap="round" stroke-linejoin="round" stroke-width=".5" d="M526.617-210.934h3.653v-5.097h-3.653z"/><path fill="#b8dede" d="M600.773-174.855h28.348l-3.242-36.446h-21.867z"/><path fill="none" stroke="#004d4d" stroke-linecap="round" stroke-linejoin="round" stroke-width=".5" d="M600.773-174.855h28.348l-3.242-36.446h-21.867zm14.172-36.446v-11.715"/><path fill="#004d4d" d="M615.996-223.016c0-.578-.473-1.05-1.051-1.05s-1.047.472-1.047 1.05.469 1.047 1.047 1.047 1.051-.469 1.051-1.047"/><path fill="#fff" d="M620.34-174.855h3.707v-6.165h-3.707Z"/><path fill="none" stroke="#599292" stroke-linecap="round" stroke-linejoin="round" stroke-width=".5" d="M620.34-174.855h3.707v-6.165h-3.707z"/><path fill="#fff" d="M609.141-180.93h5.172v-7.215h-5.172Z"/><path fill="none" stroke="#599292" stroke-linecap="round" stroke-linejoin="round" stroke-width=".5" d="M609.141-180.93h5.172v-7.215h-5.172z"/><path fill="#fff" d="M607.688-187.004h5.296v-9.199h-5.296Z"/><path fill="none" stroke="#599292" stroke-linecap="round" stroke-linejoin="round" stroke-width=".5" d="M607.688-187.004h5.296v-9.199h-5.296z"/><path fill="#fff" d="M619.809-193.078h4.742v-6.547h-4.742Z"/><path fill="none" stroke="#599292" stroke-linecap="round" stroke-linejoin="round" stroke-width=".5" d="M619.809-193.078h4.742v-6.547h-4.742z"/><path fill="#fff" d="M615.527-199.152h5.153v-7.153h-5.153Z"/><path fill="none" stroke="#599292" stroke-linecap="round" stroke-linejoin="round" stroke-width=".5" d="M615.527-199.152h5.153v-7.153h-5.153z"/><path fill="#fff" d="M604.809-205.227h4.761v-5.269h-4.761Z"/><path fill="none" stroke="#599292" stroke-linecap="round" stroke-linejoin="round" stroke-width=".5" d="M604.809-205.227h4.761v-5.269h-4.761z"/><path fill="#ebb8eb" d="M27.29-258.945h28.347l.043-53.282H27.246z"/><path fill="none" stroke="#606" stroke-linecap="round" stroke-linejoin="round" stroke-width=".5" d="M27.29-258.945h28.347l.043-53.282H27.246z"/><path fill="#fff" d="M49.398-258.945h5v-6.16h-5Z"/><path fill="none" stroke="#a659a6" stroke-linecap="round" stroke-linejoin="round" stroke-width=".5" d="M49.398-258.945h5v-6.16h-5z"/><path fill="#fff" d="M43.578-267.828h3.492v-5.094h-3.492Z"/><path fill="none" stroke="#a659a6" stroke-linecap="round" stroke-linejoin="round" stroke-width=".5" d="M43.578-267.828h3.492v-5.094h-3.492z"/><path fill="#fff" d="M35.71-276.707h5.36v-6.324h-5.36Z"/><path fill="none" stroke="#a659a6" stroke-linecap="round" stroke-linejoin="round" stroke-width=".5" d="M35.71-276.707h5.36v-6.324h-5.36z"/><path fill="#fff" d="M30.856-285.586h3.671v-6.559h-3.672Z"/><path fill="none" stroke="#a659a6" stroke-linecap="round" stroke-linejoin="round" stroke-width=".5" d="M30.856-285.586h3.671v-6.559h-3.672z"/><path fill="#fff" d="M39.805-294.465h4.18v-5.07h-4.18Z"/><path fill="none" stroke="#a659a6" stroke-linecap="round" stroke-linejoin="round" stroke-width=".5" d="M39.805-294.465h4.18v-5.07h-4.18z"/><path fill="#fff" d="M37.223-303.348h4.316v-6.066h-4.316Z"/><path fill="none" stroke="#a659a6" stroke-linecap="round" stroke-linejoin="round" stroke-width=".5" d="M37.223-303.348h4.316v-6.066h-4.316z"/><path fill="#ebded1" d="m157.406-259.445-1.402-10.817-3.262-6.293-5.074-7.152-4.23-11.359-7.887 1.171-11.422-.656-11.785 5.754-6.492-.461-5.98 10.145-4.544 7.281-3.637 4.355-2.316 8.032z"/><path fill="none" stroke="#664d33" stroke-linecap="round" stroke-linejoin="round" d="m157.406-259.445-1.402-10.817-3.262-6.293-5.074-7.152-4.23-11.359-7.887 1.171-11.422-.656-11.785 5.754-6.492-.461-5.98 10.145-4.544 7.281-3.637 4.355-2.316 8.032z"/><g fill="#ccbfb2"><path d="m127.23-261.797 3.348-2.605-4.082-2.34-5.375 1.512z"/><path d="m121.938-266.598 7.21 1.094-2.089-1.879-4.934.594z"/><path d="m120.336-266.285 8.414.781-1.414-11.855-10.008 2.187z"/><path d="m128.117-268.945 6.871-3.586-1.609 1.429-.578-.738zm-7.769-5.485 14.664 1.2 1.843-9.227-14.523.031z"/><path d="m132.602-273.816 2.402-4.743-.953-3.609-4.633 1.637z"/></g><path fill="none" stroke="#664d33" stroke-linecap="round" stroke-linejoin="round" d="M123.391-297.832c5.519-1.262 8.414-6.313 6.117-10.684-1.445-2.742-4.91-4.593-5.477-7.589-.547-2.918 1.797-5.672 5.285-6.204m.875 24.477c4.289-.227 7.336-3.566 6.446-7.07-.559-2.196-2.766-3.996-2.633-6.27.133-2.211 2.355-3.933 5.016-3.883m-25.836 17.223c2.254-2.16 1.679-5.484-1.211-7.031-1.817-.969-4.285-.93-5.762-2.27-1.441-1.308-1.371-3.332.16-4.562"/><path fill="gray" d="M123.352-273.438c4.222 0 6.093 2.965 6.093 5.161 0 2.683-2.359 5.203-5.937 5.203-4.059 0-5.895-2.196-5.895-2.766 0-.078.043-.156.086-.199.16-.289.281-.613.281-.981 0-.847-.648-1.621-1.625-1.621-.851 0-1.664.528-1.664 1.786 0 3.535 3.86 6.14 8.817 6.14 5.125 0 8.578-3.656 8.578-7.519 0-2.075-1.137-4.961-4.715-6.5 2.481-1.547 3.578-3.989 3.578-6.098 0-3.051-3.051-5.691-7.441-5.691-4.512 0-7.68 1.949-7.68 4.957 0 1.339 1.016 1.75 1.664 1.75.735 0 1.625-.571 1.625-1.668 0-.649-.32-1.016-.32-1.059 1.219-1.543 4.019-1.629 4.711-1.629 2.765 0 4.801 1.469 4.801 3.375 0 1.184-.778 4.559-5.043 4.84-1.504.078-2.153.164-2.321.164-.804.078-1.011.605-1.011 1.18 0 1.175.855 1.175 1.546 1.175z"/><path fill="none" stroke="#000" stroke-linecap="round" stroke-linejoin="round" d="M123.352-273.438c4.222 0 6.093 2.965 6.093 5.161 0 2.683-2.359 5.203-5.937 5.203-4.059 0-5.895-2.196-5.895-2.766 0-.078.043-.156.086-.199.16-.289.281-.613.281-.981 0-.847-.648-1.621-1.625-1.621-.851 0-1.664.528-1.664 1.786 0 3.535 3.86 6.14 8.817 6.14 5.125 0 8.578-3.656 8.578-7.519 0-2.075-1.137-4.961-4.715-6.5 2.481-1.547 3.578-3.989 3.578-6.098 0-3.051-3.051-5.691-7.441-5.691-4.512 0-7.68 1.949-7.68 4.957 0 1.339 1.016 1.75 1.664 1.75.735 0 1.625-.571 1.625-1.668 0-.649-.32-1.016-.32-1.059 1.219-1.543 4.019-1.629 4.711-1.629 2.765 0 4.801 1.469 4.801 3.375 0 1.184-.778 4.559-5.043 4.84-1.504.078-2.153.164-2.321.164-.804.078-1.011.605-1.011 1.18 0 1.175.855 1.175 1.546 1.175z"/><path fill="#b8b8b8" d="M191.141-258.945h28.347l.078-32.094h-28.503z"/><path fill="none" stroke="#000" stroke-linecap="round" stroke-linejoin="round" stroke-width=".5" d="M191.141-258.945h28.347l.078-32.094h-28.503z"/><path fill="#fff" d="M201.543-258.945h3.203v-5.344h-3.203Z"/><path fill="none" stroke="#595959" stroke-linecap="round" stroke-linejoin="round" stroke-width=".5" d="M201.543-258.945h3.203v-5.344h-3.203z"/><path fill="#fff" d="M191.945-266.969h4.84v-5.726h-4.84Z"/><path fill="none" stroke="#595959" stroke-linecap="round" stroke-linejoin="round" stroke-width=".5" d="M191.945-266.969h4.84v-5.726h-4.84z"/><path fill="#fff" d="M195.512-274.992h3.965v-4.422h-3.965Z"/><path fill="none" stroke="#595959" stroke-linecap="round" stroke-linejoin="round" stroke-width=".5" d="M195.512-274.992h3.965v-4.422h-3.965z"/><path fill="#fff" d="M201.078-283.016h4.91v-6.824h-4.91Z"/><path fill="none" stroke="#595959" stroke-linecap="round" stroke-linejoin="round" stroke-width=".5" d="M201.078-283.016h4.91v-6.824h-4.91z"/><path fill="#b8ebb8" d="M273.066-258.945h28.348l-2.449-40.535h-23.449z"/><path fill="none" stroke="#060" stroke-linecap="round" stroke-linejoin="round" stroke-width=".5" d="M273.066-258.945h28.348l-2.449-40.535h-23.449zm14.176-40.535v-7.094"/><path fill="#060" d="M288.746-306.574a1.506 1.506 0 1 0-3.011-.005 1.506 1.506 0 0 0 3.011.005"/><path fill="#fff" d="M287.77-258.945h5.023v-5.641h-5.023Z"/><path fill="none" stroke="#59a659" stroke-linecap="round" stroke-linejoin="round" stroke-width=".5" d="M287.77-258.945h5.023v-5.641h-5.023z"/><path fill="#fff" d="M287.715-264.012h4.242v-6.297h-4.242Z"/><path fill="none" stroke="#59a659" stroke-linecap="round" stroke-linejoin="round" stroke-width=".5" d="M287.715-264.012h4.238v-6.297h-4.238z"/><path fill="#fff" d="M280.965-269.078h4.254v-6.832h-4.254Z"/><path fill="none" stroke="#59a659" stroke-linecap="round" stroke-linejoin="round" stroke-width=".5" d="M280.965-269.078h4.254v-6.832h-4.254z"/><path fill="#fff" d="M281.688-274.148h3.269v-6.305h-3.269Z"/><path fill="none" stroke="#59a659" stroke-linecap="round" stroke-linejoin="round" stroke-width=".5" d="M281.688-274.148h3.269v-6.305h-3.269z"/><path fill="#fff" d="M293.227-279.215h3.418v-3.828h-3.418Z"/><path fill="none" stroke="#59a659" stroke-linecap="round" stroke-linejoin="round" stroke-width=".5" d="M293.227-279.215h3.418v-3.824h-3.418z"/><path fill="#fff" d="M280.719-284.281h4.933v-8.004h-4.933Z"/><path fill="none" stroke="#59a659" stroke-linecap="round" stroke-linejoin="round" stroke-width=".5" d="M280.719-284.281h4.933v-8.004h-4.933z"/><path fill="#fff" d="M282.605-289.348h3.922v-4.465h-3.922Z"/><path fill="none" stroke="#59a659" stroke-linecap="round" stroke-linejoin="round" stroke-width=".5" d="M282.605-289.348h3.922v-4.465h-3.922z"/><path fill="#fff" d="M281.688-292.133h5.019v-7.347h-5.019Z"/><path fill="none" stroke="#59a659" stroke-linecap="round" stroke-linejoin="round" stroke-width=".5" d="M281.688-292.133h5.019v-7.347h-5.019z"/><path fill="#ebd1b8" d="M354.996-258.945h28.344l-.254-41.047h-27.832z"/><path fill="none" stroke="#630" stroke-linecap="round" stroke-linejoin="round" stroke-width=".5" d="M354.996-258.945h28.344l-.254-41.047h-27.832z"/><path fill="#fff" d="M367.578-258.945h5.574v-7.801h-5.574Z"/><path fill="none" stroke="#a68059" stroke-linecap="round" stroke-linejoin="round" stroke-width=".5" d="M367.578-258.945h5.574v-7.801h-5.574z"/><path fill="#fff" d="M373.242-264.078h3.574v-5.477h-3.574Z"/><path fill="none" stroke="#a68059" stroke-linecap="round" stroke-linejoin="round" stroke-width=".5" d="M373.242-264.078h3.574v-5.477h-3.574z"/><path fill="#fff" d="M358.457-269.207h5.637v-7.941h-5.637Z"/><path fill="none" stroke="#a68059" stroke-linecap="round" stroke-linejoin="round" stroke-width=".5" d="M358.457-269.207h5.637v-7.941h-5.637z"/><path fill="#fff" d="M368.91-274.34h4.274v-5.105h-4.274Z"/><path fill="none" stroke="#a68059" stroke-linecap="round" stroke-linejoin="round" stroke-width=".5" d="M368.91-274.34h4.274v-5.105h-4.274z"/><path fill="#fff" d="M367.734-279.469h3.563v-6.211h-3.563Z"/><path fill="none" stroke="#a68059" stroke-linecap="round" stroke-linejoin="round" stroke-width=".5" d="M367.734-279.469h3.563v-6.211h-3.563z"/><path fill="#fff" d="M359.074-284.602h4.91v-5.906h-4.91Z"/><path fill="none" stroke="#a68059" stroke-linecap="round" stroke-linejoin="round" stroke-width=".5" d="M359.074-284.602h4.91v-5.906h-4.91z"/><path fill="#fff" d="M358.766-289.73h3.07v-5.809h-3.07Z"/><path fill="none" stroke="#a68059" stroke-linecap="round" stroke-linejoin="round" stroke-width=".5" d="M358.766-289.73h3.07v-5.805h-3.07z"/><path fill="#fff" d="M369.266-290.629h5.582v-9.363h-5.582Z"/><path fill="none" stroke="#a68059" stroke-linecap="round" stroke-linejoin="round" stroke-width=".5" d="M369.266-290.629h5.582v-9.363h-5.582z"/><path fill="#ebb8eb" d="M436.922-258.945h28.344l-5.793-58.676h-16.754z"/><path fill="none" stroke="#606" stroke-linecap="round" stroke-linejoin="round" stroke-width=".5" d="M436.922-258.945h28.344l-5.793-58.676h-16.754zm14.172-58.676v-12.133"/><path fill="#606" d="M452.539-329.754a1.445 1.445 0 1 0-2.891 0c0 .797.649 1.441 1.446 1.441s1.445-.644 1.445-1.441"/><path fill="#fff" d="M449.734-258.945h4.481v-4.629h-4.481Z"/><path fill="none" stroke="#a659a6" stroke-linecap="round" stroke-linejoin="round" stroke-width=".5" d="M449.734-258.945h4.481v-4.629h-4.481z"/><path fill="#fff" d="M455.355-268.727h3.235v-4.918h-3.235Z"/><path fill="none" stroke="#a659a6" stroke-linecap="round" stroke-linejoin="round" stroke-width=".5" d="M455.355-268.727h3.235v-4.918h-3.235z"/><path fill="#fff" d="M440.926-278.504h4.969v-6.613h-4.969Z"/><path fill="none" stroke="#a659a6" stroke-linecap="round" stroke-linejoin="round" stroke-width=".5" d="M440.926-278.504h4.969v-6.613h-4.969z"/><path fill="#fff" d="M443.656-288.285h4.227v-4.617h-4.227Z"/><path fill="none" stroke="#a659a6" stroke-linecap="round" stroke-linejoin="round" stroke-width=".5" d="M443.656-288.285h4.227v-4.617h-4.227z"/><path fill="#fff" d="M447.484-298.063h3.696v-5.222h-3.696Z"/><path fill="none" stroke="#a659a6" stroke-linecap="round" stroke-linejoin="round" stroke-width=".5" d="M447.484-298.063h3.696v-5.222h-3.696z"/><path fill="#fff" d="M455.617-307.844h2.856v-3.09h-2.856Z"/><path fill="none" stroke="#a659a6" stroke-linecap="round" stroke-linejoin="round" stroke-width=".5" d="M455.617-307.844h2.856v-3.09h-2.856z"/><path fill="#ebded1" d="m567.035-259.445-4-4.645-8.461-8.648-2.754-11.207-3.757-5.321-7.989 1.219-12.047-.91-6.695-4.606-9.379 1.778-2.816 9.152-6.801 5.367-2.672 11.528-.66 6.293z"/><path fill="none" stroke="#664d33" stroke-linecap="round" stroke-linejoin="round" d="m567.035-259.445-4-4.645-8.461-8.648-2.754-11.207-3.757-5.321-7.989 1.219-12.047-.91-6.695-4.606-9.379 1.778-2.816 9.152-6.801 5.367-2.672 11.528-.66 6.293z"/><g fill="#ccbfb2"><path d="m500.227-260.609 15.57-1.348-.449-7.703-14.395-1.371zm44.742-7.305 3.922 5.559 1.589-9.629-8.039 3.156zm-24.571.668 13.399 1.984-6.192-9.023-9.21-4.363z"/><path d="m512.527-268.609 10.977-1.133-3.57-9.946-7.586-.113zm20.211-2.789 8.18-3-1.176-.762-10.461-4.395z"/><path d="m532.344-276.012 7.703-1.726-2.5-.239-9.203-.046z"/></g><path fill="none" stroke="#664d33" stroke-linecap="round" stroke-linejoin="round" d="M533.02-296.195c5.464-1.422 8.14-6.559 5.66-10.86-1.559-2.695-5.106-4.445-5.793-7.422-.672-2.902 1.551-5.722 5.015-6.355m1.922 24.637c4.293-.09 7.489-3.336 6.758-6.864-.461-2.214-2.586-4.082-2.352-6.347.231-2.207 2.532-3.86 5.188-3.727m-26.602 16.938c2.141-2.239 1.399-5.539-1.574-6.981-1.863-.902-4.328-.777-5.875-2.066-1.504-1.25-1.539-3.278-.07-4.563"/><path fill="gray" d="M536.719-269.898c.566-.489 4.676-3.989 4.676-8.5 0-4.629-3.825-7.883-8.903-7.883-4.715 0-7.847 3.535-7.847 6.953 0 1.707 1.425 1.828 1.671 1.828.727 0 1.622-.566 1.622-1.668 0-.77-.282-1.016-.485-1.18.567-2.152 2.434-3.578 4.793-3.578 3.457 0 6.5 1.992 6.5 5.528 0 3.171-2.394 5.613-4.59 7.519l-8.941 7.766c-.445.367-.57.484-.57.972 0 1.18 1.097 1.18 1.671 1.18h14.18c.899-.242.899-1.055.899-1.668v-.851c0-.731 0-1.668-1.301-1.668-1.348 0-1.348.855-1.348 1.828h-9.789z"/><path fill="none" stroke="#000" stroke-linecap="round" stroke-linejoin="round" d="M536.719-269.898c.566-.489 4.676-3.989 4.676-8.5 0-4.629-3.825-7.883-8.903-7.883-4.715 0-7.847 3.535-7.847 6.953 0 1.707 1.425 1.828 1.671 1.828.727 0 1.622-.566 1.622-1.668 0-.77-.282-1.016-.485-1.18.567-2.152 2.434-3.578 4.793-3.578 3.457 0 6.5 1.992 6.5 5.528 0 3.171-2.394 5.613-4.59 7.519l-8.941 7.766c-.445.367-.57.484-.57.972 0 1.18 1.097 1.18 1.671 1.18h14.18c.899-.242.899-1.055.899-1.668v-.851c0-.731 0-1.668-1.301-1.668-1.348 0-1.348.855-1.348 1.828h-9.789z"/><path fill="#b8dede" d="M600.773-258.945h28.348l-5.887-51.434H606.66z"/><path fill="none" stroke="#004d4d" stroke-linecap="round" stroke-linejoin="round" stroke-width=".5" d="M600.773-258.945h28.348l-5.887-51.434H606.66zm14.172-51.434v-13.75"/><path fill="#004d4d" d="M616-324.129a1.052 1.052 0 1 0-2.105 0 1.052 1.052 0 0 0 2.105 0"/><path fill="#fff" d="M617.551-258.945h4.023v-4.922h-4.023Z"/><path fill="none" stroke="#599292" stroke-linecap="round" stroke-linejoin="round" stroke-width=".5" d="M617.551-258.945h4.023v-4.922h-4.023z"/><path fill="#fff" d="M611.855-267.52h5.09v-5.773h-5.09Z"/><path fill="none" stroke="#599292" stroke-linecap="round" stroke-linejoin="round" stroke-width=".5" d="M611.855-267.52h5.09v-5.769h-5.09z"/><path fill="#fff" d="M617.672-276.09h3.754v-5.355h-3.754Z"/><path fill="none" stroke="#599292" stroke-linecap="round" stroke-linejoin="round" stroke-width=".5" d="M617.672-276.09h3.754v-5.355h-3.754z"/><path fill="#fff" d="M617.324-284.66h4.211v-4.309h-4.211Z"/><path fill="none" stroke="#599292" stroke-linecap="round" stroke-linejoin="round" stroke-width=".5" d="M617.324-284.66h4.211v-4.309h-4.211z"/><path fill="#fff" d="M614.477-293.234h3.906v-7.7h-3.906Z"/><path fill="none" stroke="#599292" stroke-linecap="round" stroke-linejoin="round" stroke-width=".5" d="M614.477-293.234h3.906v-7.7h-3.906z"/><path fill="#fff" d="M611.164-301.805h3.297v-5.05h-3.297Z"/><path fill="none" stroke="#599292" stroke-linecap="round" stroke-linejoin="round" stroke-width=".5" d="M611.164-301.805h3.301v-5.05h-3.301z"/><path fill="#ebded1" d="m75.48-343.539-2.472-9.274-.219-10.214-6.332-9.426.652-7.137-13.21 2-10.56-.969-12.19.469-14.79-.187.45 6.582-7.532 8.347-1.78 8.696-.048 11.113z"/><path fill="none" stroke="#664d33" stroke-linecap="round" stroke-linejoin="round" d="m75.48-343.539-2.472-9.274-.219-10.214-6.332-9.426.652-7.137-13.21 2-10.56-.969-12.19.469-14.79-.187.45 6.582-7.532 8.347-1.78 8.696-.048 11.113z"/><g fill="#ccbfb2"><path d="m23.059-346.566 9.691-.512 2.344-6.754-6.512 3.269zm34.636-.684 3.492-2.805 2.188-5.238-9.82 4.078z"/><path d="m26.895-350.875 6.523-2.016-.129-3.488-4.5 2.699zm-9.571-7.387 5.793 1.602 1.574-1.805-10 .77zm32.321-2.367 6.265-1.437-2.527-1.586-5.61 4.293z"/></g><path fill="none" stroke="#664d33" stroke-linecap="round" stroke-linejoin="round" d="M41.465-384.605c5.254-1.891 7.273-7.231 4.265-11.29-1.886-2.546-5.632-3.976-6.69-6.878-1.032-2.829.827-5.825 4.19-6.758m5.036 24.926c4.293-.075 7.507-3.309 6.793-6.836-.446-2.215-2.563-4.09-2.317-6.356.242-2.211 2.551-3.851 5.203-3.707m-26.687 16.899c2.27-2.149 1.723-5.473-1.156-7.036-1.809-.976-4.282-.953-5.747-2.3-1.43-1.317-1.343-3.34.196-4.563"/><path fill="gray" d="M42.887-368.707c0-.606 0-1.664-1.18-1.664-.691 0-.934.367-1.18.891-.77 1.75-2.109 3.902-4.265 4.066-.61.043-1.465.125-1.465 1.18 0 .691.406 1.175 1.305 1.175 2.273 0 4.023-1.707 4.144-1.785v17.434h-3.578c-.566 0-1.668 0-1.668 1.18s1.102 1.179 1.668 1.179h9.797c.566 0 1.664 0 1.664-1.179s-1.098-1.18-1.664-1.18h-3.578z"/><path fill="none" stroke="#000" stroke-linecap="round" stroke-linejoin="round" d="M42.887-368.707c0-.606 0-1.664-1.18-1.664-.691 0-.934.367-1.18.891-.77 1.75-2.109 3.902-4.265 4.066-.61.043-1.465.125-1.465 1.18 0 .691.406 1.175 1.305 1.175 2.273 0 4.023-1.707 4.144-1.785v17.434h-3.578c-.566 0-1.668 0-1.668 1.18s1.102 1.179 1.668 1.179h9.797c.566 0 1.664 0 1.664-1.179s-1.098-1.18-1.664-1.18h-3.578z"/><path fill="#b8b8eb" d="M109.215-343.039h28.348l-2.254-31.305h-23.836z"/><path fill="none" stroke="#006" stroke-linecap="round" stroke-linejoin="round" stroke-width=".5" d="M109.215-343.039h28.348l-2.254-31.305h-23.836z"/><path fill="#fff" d="M125.586-343.039h3.754v-6.094h-3.754Z"/><path fill="none" stroke="#5959a6" stroke-linecap="round" stroke-linejoin="round" stroke-width=".5" d="M125.586-343.039h3.754v-6.094h-3.754z"/><path fill="#fff" d="M130.406-350.863h3.34v-6.555h-3.34Z"/><path fill="none" stroke="#5959a6" stroke-linecap="round" stroke-linejoin="round" stroke-width=".5" d="M130.406-350.863h3.34v-6.559h-3.34z"/><path fill="#fff" d="M120.945-358.691h5.469v-6.688h-5.469Z"/><path fill="none" stroke="#5959a6" stroke-linecap="round" stroke-linejoin="round" stroke-width=".5" d="M120.945-358.691h5.469v-6.688h-5.469z"/><path fill="#fff" d="M124.918-366.516h5.605v-5.664h-5.605Z"/><path fill="none" stroke="#5959a6" stroke-linecap="round" stroke-linejoin="round" stroke-width=".5" d="M124.918-366.516h5.605v-5.664h-5.605z"/><path fill="#ebded1" d="m239.332-343.539-5.586-10.199-3.023-7.082-2.266-3.746.363-9.942-12.16-2.988-15.519 1.902-8.516 1.031-14.445-2.199-1.117 7.582-3.204 7.926-2.07 6.617-.488 11.098z"/><path fill="none" stroke="#664d33" stroke-linecap="round" stroke-linejoin="round" d="m239.332-343.539-5.586-10.199-3.023-7.082-2.266-3.746.363-9.942-12.16-2.988-15.519 1.902-8.516 1.031-14.445-2.199-1.117 7.582-3.204 7.926-2.07 6.617-.488 11.098z"/><g fill="#ccbfb2"><path d="m204.285-345.246 6.957-1.586-.371-8.008-9.066 1.031z"/><path d="m202.363-351.254 4.68 3.512-2.145-3.149-6.234-.703zm18.192.652 6.101 1.543-1.375-6.554-4.25-1.547zm-41.598-4.789.156.684 2.817 1.711-8.121-3.551zm31.527.118 9.692 1.777-3.391-7.445-4.113-1.45z"/><path d="m178.066-354.66 8.969-1.766 1.313-4.437-12.571-1.563zm28.082-7.164 10.215 3.82.981-10.43-10.539 1.161zm15.879-.156 4.649 2.542 4.597-6.14-9.832 3.492z"/></g><path fill="none" stroke="#664d33" stroke-linecap="round" stroke-linejoin="round" d="M205.316-381.305c4.786-2.617 5.672-8.164 1.868-11.734-2.383-2.238-6.368-3.109-8.012-5.816-1.602-2.637-.387-5.856 2.734-7.258m10.211 24.808c4.289-.199 7.367-3.523 6.508-7.031-.539-2.199-2.73-4.012-2.578-6.281.152-2.215 2.391-3.922 5.047-3.856m-25.985 17.168c1.653-2.508.246-5.656-2.976-6.652-2.02-.629-4.426-.152-6.211-1.199-1.738-1.024-2.188-3.012-1.004-4.489"/><path fill="gray" d="M206.738-368.707c0-.606 0-1.664-1.179-1.664-.692 0-.934.367-1.18.891-.77 1.75-2.109 3.902-4.266 4.066-.605.043-1.465.125-1.465 1.18 0 .691.407 1.175 1.305 1.175 2.274 0 4.024-1.707 4.145-1.785v17.434h-3.578c-.567 0-1.668 0-1.668 1.18s1.101 1.179 1.668 1.179h9.796c.571 0 1.664 0 1.664-1.179s-1.093-1.18-1.664-1.18h-3.578z"/><path fill="none" stroke="#000" stroke-linecap="round" stroke-linejoin="round" d="M206.738-368.707c0-.606 0-1.664-1.179-1.664-.692 0-.934.367-1.18.891-.77 1.75-2.109 3.902-4.266 4.066-.605.043-1.465.125-1.465 1.18 0 .691.407 1.175 1.305 1.175 2.274 0 4.024-1.707 4.145-1.785v17.434h-3.578c-.567 0-1.668 0-1.668 1.18s1.101 1.179 1.668 1.179h9.796c.571 0 1.664 0 1.664-1.179s-1.093-1.18-1.664-1.18h-3.578z"/><path fill="#b8b8b8" d="M273.066-343.039h28.348l-2.769-31.867H275.84z"/><path fill="none" stroke="#000" stroke-linecap="round" stroke-linejoin="round" stroke-width=".5" d="M273.066-343.039h28.348l-2.769-31.867H275.84zm14.176-31.867v-6.289"/><path d="M288.883-381.195a1.64 1.64 0 1 0-3.281 0 1.64 1.64 0 0 0 3.281 0"/><path fill="#fff" d="M281.867-343.039h4.305v-6.629h-4.305Z"/><path fill="none" stroke="#595959" stroke-linecap="round" stroke-linejoin="round" stroke-width=".5" d="M281.867-343.039h4.305v-6.625h-4.305z"/><path fill="#fff" d="M282.113-347.023h3.262v-6.008h-3.262Z"/><path fill="none" stroke="#595959" stroke-linecap="round" stroke-linejoin="round" stroke-width=".5" d="M282.113-347.023h3.262v-6.008h-3.262z"/><path fill="#fff" d="M283.914-351.004h2.848v-2.926h-2.848Z"/><path fill="none" stroke="#595959" stroke-linecap="round" stroke-linejoin="round" stroke-width=".5" d="M283.914-351.004h2.848v-2.926h-2.848z"/><path fill="#fff" d="M296.527-354.988h3.219v-5.696h-3.219Z"/><path fill="none" stroke="#595959" stroke-linecap="round" stroke-linejoin="round" stroke-width=".5" d="M296.527-354.988h3.219v-5.696h-3.219z"/><path fill="#fff" d="M293.547-358.973h4.613v-7.347h-4.613Z"/><path fill="none" stroke="#595959" stroke-linecap="round" stroke-linejoin="round" stroke-width=".5" d="M293.547-358.973h4.613v-7.347h-4.613z"/><path fill="#fff" d="M276.551-362.953h3.199v-6.356h-3.199Z"/><path fill="none" stroke="#595959" stroke-linecap="round" stroke-linejoin="round" stroke-width=".5" d="M276.551-362.953h3.199v-6.356h-3.199z"/><path fill="#fff" d="M293.781-366.938h3.059v-4.785h-3.059Z"/><path fill="none" stroke="#595959" stroke-linecap="round" stroke-linejoin="round" stroke-width=".5" d="M293.781-366.938h3.059v-4.785h-3.059z"/><path fill="#fff" d="M289.438-368.434h3.511v-6.472h-3.511Z"/><path fill="none" stroke="#595959" stroke-linecap="round" stroke-linejoin="round" stroke-width=".5" d="M289.438-368.434h3.511v-6.472h-3.511z"/><path fill="#ebb8eb" d="M354.996-343.039h28.344l-7.867-46.813h-12.61z"/><path fill="none" stroke="#606" stroke-linecap="round" stroke-linejoin="round" stroke-width=".5" d="M354.996-343.039h28.344l-7.867-46.813h-12.61zm14.172-46.813v-12.082"/><path fill="#606" d="M370.051-401.934a.88.88 0 0 0-.883-.879.882.882 0 1 0 0 1.762.88.88 0 0 0 .883-.883"/><path fill="#fff" d="M368.012-343.039h3.031v-4.188h-3.031Z"/><path fill="none" stroke="#a659a6" stroke-linecap="round" stroke-linejoin="round" stroke-width=".5" d="M368.012-343.039h3.031v-4.188h-3.031z"/><path fill="#fff" d="M365.152-354.742h4.2v-7.367h-4.2Z"/><path fill="none" stroke="#a659a6" stroke-linecap="round" stroke-linejoin="round" stroke-width=".5" d="M365.152-354.742h4.2v-7.367h-4.2z"/><path fill="#fff" d="M364.48-366.445h4.215v-4.895h-4.215Z"/><path fill="none" stroke="#a659a6" stroke-linecap="round" stroke-linejoin="round" stroke-width=".5" d="M364.48-366.445h4.215v-4.895h-4.215z"/><path fill="#fff" d="M366.41-378.148h4.567v-6.223h-4.567Z"/><path fill="none" stroke="#a659a6" stroke-linecap="round" stroke-linejoin="round" stroke-width=".5" d="M366.41-378.148h4.567v-6.223h-4.567z"/><path fill="#b8b8eb" d="M436.922-343.039h28.344l-1.27-25.098h-25.805z"/><path fill="none" stroke="#006" stroke-linecap="round" stroke-linejoin="round" stroke-width=".5" d="M436.922-343.039h28.344l-1.27-25.098h-25.805z"/><path fill="#fff" d="M444.004-343.039h5.086v-5.809h-5.086Z"/><path fill="none" stroke="#5959a6" stroke-linecap="round" stroke-linejoin="round" stroke-width=".5" d="M444.004-343.039h5.086v-5.809h-5.086z"/><path fill="#fff" d="M446.992-351.402h2.957v-3.907h-2.957Z"/><path fill="none" stroke="#5959a6" stroke-linecap="round" stroke-linejoin="round" stroke-width=".5" d="M446.992-351.402h2.957v-3.907h-2.957z"/><path fill="#fff" d="M438.875-359.441h5.602v-8.696h-5.602Z"/><path fill="none" stroke="#5959a6" stroke-linecap="round" stroke-linejoin="round" stroke-width=".5" d="M438.875-359.441h5.602v-8.696h-5.602z"/><path fill="#ebb8eb" d="M518.848-343.039h28.343l-6.16-32.899h-16.023z"/><path fill="none" stroke="#606" stroke-linecap="round" stroke-linejoin="round" stroke-width=".5" d="M518.848-343.039h28.343l-6.16-32.899h-16.023zm14.172-32.899v-13.542"/><path fill="#606" d="M534.078-389.48a1.057 1.057 0 1 0-2.117 0 1.057 1.057 0 1 0 2.117 0"/><path fill="#fff" d="M521.891-343.039h5.293v-8.246h-5.293Z"/><path fill="none" stroke="#a659a6" stroke-linecap="round" stroke-linejoin="round" stroke-width=".5" d="M521.891-343.039h5.293v-8.246h-5.293z"/><path fill="#fff" d="M521.531-348.523h5.317v-8.368h-5.317Z"/><path fill="none" stroke="#a659a6" stroke-linecap="round" stroke-linejoin="round" stroke-width=".5" d="M521.531-348.523h5.317v-8.368h-5.317z"/><path fill="#fff" d="M530.984-354.004h2.875v-4.812h-2.875Z"/><path fill="none" stroke="#a659a6" stroke-linecap="round" stroke-linejoin="round" stroke-width=".5" d="M530.984-354.004h2.875v-4.812h-2.875z"/><path fill="#fff" d="M527.703-359.488h3.504v-4.356h-3.504Z"/><path fill="none" stroke="#a659a6" stroke-linecap="round" stroke-linejoin="round" stroke-width=".5" d="M527.703-359.488h3.508v-4.356h-3.508z"/><path fill="#fff" d="M536.508-364.973h3.972v-7.593h-3.972Z"/><path fill="none" stroke="#a659a6" stroke-linecap="round" stroke-linejoin="round" stroke-width=".5" d="M536.508-364.973h3.972v-7.593h-3.972z"/><path fill="#fff" d="M529.91-368.188h4.137v-7.75h-4.137Z"/><path fill="none" stroke="#a659a6" stroke-linecap="round" stroke-linejoin="round" stroke-width=".5" d="M529.91-368.188h4.137v-7.75h-4.137z"/><path fill="#b8b8eb" d="M600.773-343.039h28.348l-8.223-47.113h-11.906z"/><path fill="none" stroke="#006" stroke-linecap="round" stroke-linejoin="round" stroke-width=".5" d="M600.773-343.039h28.348l-8.223-47.113h-11.906zm14.172-47.113v-7.52"/><path fill="#006" d="M616.391-397.672a1.444 1.444 0 1 0-2.888.006 1.444 1.444 0 0 0 2.888-.006"/><path fill="#fff" d="M603.824-343.039h3.395v-3.977h-3.395Z"/><path fill="none" stroke="#5959a6" stroke-linecap="round" stroke-linejoin="round" stroke-width=".5" d="M603.824-343.039h3.395v-3.977h-3.395z"/><path fill="#fff" d="M609.988-354.816h3.364v-4.34h-3.364Z"/><path fill="none" stroke="#5959a6" stroke-linecap="round" stroke-linejoin="round" stroke-width=".5" d="M609.988-354.816h3.364v-4.34h-3.364z"/><path fill="#fff" d="M615.191-366.594h3.856v-5.566h-3.856Z"/><path fill="none" stroke="#5959a6" stroke-linecap="round" stroke-linejoin="round" stroke-width=".5" d="M615.191-366.594h3.856v-5.566h-3.856z"/><path fill="#fff" d="M611.137-378.371h3.699v-6.883h-3.699Z"/><path fill="none" stroke="#5959a6" stroke-linecap="round" stroke-linejoin="round" stroke-width=".5" d="M611.137-378.371h3.699v-6.883h-3.699z"/><path fill="#ebded1" d="m75.2-427.629.558-5.633-6.168-10.582-2.633-6.133-.734-7.039-10.551-2.449-11.168-1.062-6.402-4-13.473.64-3.442 7.832-7.726 9.692-5.219 11.125-1.074 7.609z"/><path fill="none" stroke="#664d33" stroke-linecap="round" stroke-linejoin="round" d="m75.2-427.629.558-5.633-6.168-10.582-2.633-6.133-.734-7.039-10.551-2.449-11.168-1.062-6.402-4-13.473.64-3.442 7.832-7.726 9.692-5.219 11.125-1.074 7.609z"/><g fill="#ccbfb2"><path d="m18.438-428.727 6.91.114-2.215-5.016-6.184-1.93zm36.425-4.613 11.98 1.699-3.175-5.484-6.441-1.992zm-11.238-2.625 4.277 1.344 1.04-2.348.695-.472z"/><path d="m56.137-439.109 11.031 3.261-3.977-12.16-8.527 1.629zm-11.375 1.789 9.902-2.813-3.273-5.914-6.012 1.34zm-26.289-1.379 4.828-.469 2.445-7.828-6.812.012zm10.887-6.989 2.785 2.727 5.84-5.629-10.864 4.77zm8.87-1.781 2.325-.398 2.867-4.254-3.988 1.43z"/></g><path fill="none" stroke="#664d33" stroke-linecap="round" stroke-linejoin="round" d="M41.184-466.121c5.144-2.102 6.847-7.516 3.609-11.449-2.031-2.469-5.855-3.746-7.082-6.602-1.191-2.781.492-5.851 3.797-6.918m6.48 24.969c4.293-.031 7.555-3.234 6.895-6.77-.418-2.218-2.504-4.117-2.227-6.379.278-2.203 2.61-3.824 5.258-3.652M30.98-466.121c2.09-2.274 1.27-5.563-1.73-6.953-1.887-.875-4.348-.711-5.922-1.973-1.535-1.226-1.613-3.25-.18-4.558"/><path fill="gray" d="M42.61-452.801c0-.605 0-1.664-1.18-1.664-.692 0-.938.367-1.18.895-.77 1.75-2.11 3.898-4.27 4.066-.605.043-1.46.121-1.46 1.18 0 .691.402 1.176 1.304 1.176 2.274 0 4.02-1.707 4.145-1.79v17.434H36.39c-.567 0-1.668 0-1.668 1.18s1.101 1.179 1.668 1.179h9.797c.566 0 1.664 0 1.664-1.179s-1.098-1.18-1.664-1.18h-3.579z"/><path fill="none" stroke="#000" stroke-linecap="round" stroke-linejoin="round" d="M42.61-452.801c0-.605 0-1.664-1.18-1.664-.692 0-.938.367-1.18.895-.77 1.75-2.11 3.898-4.27 4.066-.605.043-1.46.121-1.46 1.18 0 .691.402 1.176 1.304 1.176 2.274 0 4.02-1.707 4.145-1.79v17.434H36.39c-.567 0-1.668 0-1.668 1.18s1.101 1.179 1.668 1.179h9.797c.566 0 1.664 0 1.664-1.179s-1.098-1.18-1.664-1.18h-3.579z"/><path fill="#d1b8eb" d="M109.215-427.129h28.348l-6.633-26.582h-15.078z"/><path fill="none" stroke="#306" stroke-linecap="round" stroke-linejoin="round" stroke-width=".5" d="M109.215-427.129h28.348l-6.633-26.582h-15.078zm14.176-26.582v-10.375"/><path fill="#306" d="M124.656-464.086a1.267 1.267 0 1 0-1.265 1.27c.699 0 1.265-.567 1.265-1.27"/><path fill="#fff" d="M120.266-427.129h3.175v-3.328h-3.175Z"/><path fill="none" stroke="#8059a6" stroke-linecap="round" stroke-linejoin="round" stroke-width=".5" d="M120.266-427.129h3.175v-3.328h-3.175z"/><path fill="#fff" d="M124.133-435.988h5.461v-8.969h-5.461Z"/><path fill="none" stroke="#8059a6" stroke-linecap="round" stroke-linejoin="round" stroke-width=".5" d="M124.133-435.988h5.461v-8.965h-5.461z"/><path fill="#fff" d="M125.645-444.852h3.878v-5.453h-3.878Z"/><path fill="none" stroke="#8059a6" stroke-linecap="round" stroke-linejoin="round" stroke-width=".5" d="M125.645-444.852h3.878v-5.453h-3.878z"/><path fill="#b8b8b8" d="M191.141-427.129h28.347l-7.64-39.984h-13.067z"/><path fill="none" stroke="#000" stroke-linecap="round" stroke-linejoin="round" stroke-width=".5" d="M191.141-427.129h28.347l-7.64-39.984h-13.067zm14.175-39.984v-12.176"/><path d="M206.969-479.289a1.653 1.653 0 0 0-3.309 0 1.654 1.654 0 1 0 3.309 0"/><path fill="#fff" d="M199.496-427.129h3.813v-4.582h-3.813Z"/><path fill="none" stroke="#595959" stroke-linecap="round" stroke-linejoin="round" stroke-width=".5" d="M199.496-427.129h3.813v-4.582h-3.813z"/><path fill="#fff" d="M201.563-433.793h4.64v-6.855h-4.64Z"/><path fill="none" stroke="#595959" stroke-linecap="round" stroke-linejoin="round" stroke-width=".5" d="M201.563-433.793h4.64v-6.855h-4.64z"/><path fill="#fff" d="M208.227-440.457h4.168v-7.012h-4.168Z"/><path fill="none" stroke="#595959" stroke-linecap="round" stroke-linejoin="round" stroke-width=".5" d="M208.227-440.457h4.168v-7.012h-4.168z"/><path fill="#fff" d="M203.809-447.121h4.664v-7.629h-4.664Z"/><path fill="none" stroke="#595959" stroke-linecap="round" stroke-linejoin="round" stroke-width=".5" d="M203.809-447.121h4.664v-7.629h-4.664z"/><path fill="#fff" d="M201.66-453.785h2.953v-5.789h-2.953Z"/><path fill="none" stroke="#595959" stroke-linecap="round" stroke-linejoin="round" stroke-width=".5" d="M201.66-453.785h2.953v-5.789h-2.953z"/><path fill="#fff" d="M204.086-460.051h4.871v-7.062h-4.871Z"/><path fill="none" stroke="#595959" stroke-linecap="round" stroke-linejoin="round" stroke-width=".5" d="M204.086-460.051h4.871v-7.062h-4.871z"/><path fill="#ebb8b8" d="M273.066-427.129h28.348l-2.394-20.867h-23.559z"/><path fill="none" stroke="#600" stroke-linecap="round" stroke-linejoin="round" stroke-width=".5" d="M273.066-427.129h28.348l-2.394-20.867h-23.559zm14.176-20.867v-4.754"/><path fill="#600" d="M288.926-452.75a1.684 1.684 0 1 0-3.368 0 1.684 1.684 0 0 0 3.368 0"/><path fill="#fff" d="M293.391-427.129h3.945v-4.859h-3.945Z"/><path fill="none" stroke="#a65959" stroke-linecap="round" stroke-linejoin="round" stroke-width=".5" d="M293.391-427.129h3.949v-4.859h-3.949z"/><path fill="#fff" d="M275.863-437.563h4.457v-6.914h-4.457Z"/><path fill="none" stroke="#a65959" stroke-linecap="round" stroke-linejoin="round" stroke-width=".5" d="M275.863-437.563h4.457v-6.914h-4.457z"/><path fill="#d1b8eb" d="M354.996-427.129h28.344l2.637-35.656h-33.618z"/><path fill="none" stroke="#306" stroke-linecap="round" stroke-linejoin="round" stroke-width=".5" d="M354.996-427.129h28.344l2.637-35.656h-33.618zm14.172-35.656v-9.25"/><path fill="#306" d="M370.199-472.035c0-.57-.461-1.035-1.031-1.035a1.034 1.034 0 0 0 0 2.066 1.03 1.03 0 0 0 1.031-1.031"/><path fill="#fff" d="M372.215-427.129h3.875v-4.945h-3.875Z"/><path fill="none" stroke="#8059a6" stroke-linecap="round" stroke-linejoin="round" stroke-width=".5" d="M372.215-427.129h3.875v-4.945h-3.875z"/><path fill="#fff" d="M369.391-431.586h4.187v-4.348h-4.187Z"/><path fill="none" stroke="#8059a6" stroke-linecap="round" stroke-linejoin="round" stroke-width=".5" d="M369.391-431.586h4.187v-4.348h-4.187z"/><path fill="#fff" d="M354.691-436.043h3.61v-4.246h-3.61Z"/><path fill="none" stroke="#8059a6" stroke-linecap="round" stroke-linejoin="round" stroke-width=".5" d="M354.691-436.043h3.61v-4.246h-3.61z"/><path fill="#fff" d="M379.598-440.5h2.929v-4.492h-2.929Z"/><path fill="none" stroke="#8059a6" stroke-linecap="round" stroke-linejoin="round" stroke-width=".5" d="M379.598-440.5h2.929v-4.492h-2.929z"/><path fill="#fff" d="M355.887-444.957h3.379v-5.125h-3.379Z"/><path fill="none" stroke="#8059a6" stroke-linecap="round" stroke-linejoin="round" stroke-width=".5" d="M355.887-444.957h3.379v-5.125h-3.379z"/><path fill="#fff" d="M357.781-449.414h3.153v-6.149h-3.153Z"/><path fill="none" stroke="#8059a6" stroke-linecap="round" stroke-linejoin="round" stroke-width=".5" d="M357.781-449.414h3.153v-6.149h-3.153z"/><path fill="#fff" d="M377.039-453.871h4.313v-7.801h-4.313Z"/><path fill="none" stroke="#8059a6" stroke-linecap="round" stroke-linejoin="round" stroke-width=".5" d="M377.039-453.871h4.313v-7.801h-4.313z"/><path fill="#fff" d="M360.309-456.793h4.816v-5.992h-4.816Z"/><path fill="none" stroke="#8059a6" stroke-linecap="round" stroke-linejoin="round" stroke-width=".5" d="M360.309-456.793h4.816v-5.992h-4.816z"/><path fill="#ebded1" d="m485.109-427.629-3.492-12.351-4.82-8.622-4.067-7.441-6.316-11.18-10.449 3.192-7.168.125-4.938 2.051-11.019 4.074-6.637 6.301 2.125 10.55-5.922 4.094-5.328 9.207z"/><path fill="none" stroke="#664d33" stroke-linecap="round" stroke-linejoin="round" d="m485.109-427.629-3.492-12.351-4.82-8.622-4.067-7.441-6.316-11.18-10.449 3.192-7.168.125-4.938 2.051-11.019 4.074-6.637 6.301 2.125 10.55-5.922 4.094-5.328 9.207z"/><g fill="#ccbfb2"><path d="m439.887-429.996 3.734-.734 1.008-2.926-3.289 1.707zm4.73-4.027 7.113 1.937 4.758-4.691-11.578 2.816zm-6.902-2.239 4.121-1.246.711-6.086-3.367.879z"/><path d="m433.672-438.531 12.82-3.84-.156-10.66-11.945 5.113z"/><path d="m444.656-445.352 8.215 2.997-3.055-10.395-7.261 2.078z"/></g><path fill="none" stroke="#664d33" stroke-linecap="round" stroke-linejoin="round" d="M451.094-468.172c5.332-1.742 7.566-7.019 4.726-11.164-1.785-2.598-5.468-4.137-6.406-7.066-.918-2.856 1.063-5.797 4.465-6.633m4.019 24.863c4.286-.219 7.344-3.555 6.465-7.058-.554-2.196-2.758-4-2.617-6.274.137-2.211 2.367-3.934 5.027-3.875m-25.882 17.207c2.304-2.125 1.812-5.457-1.043-7.051-1.789-1-4.262-1.004-5.707-2.367-1.407-1.332-1.286-3.351.273-4.558"/><path fill="gray" d="M451.055-441.621c4.226 0 6.093 2.965 6.093 5.16 0 2.684-2.355 5.203-5.933 5.203-4.063 0-5.895-2.195-5.895-2.765 0-.079.043-.161.082-.2.161-.289.286-.613.286-.98 0-.848-.649-1.621-1.629-1.621-.848 0-1.664.527-1.664 1.789 0 3.531 3.859 6.137 8.82 6.137 5.121 0 8.578-3.657 8.578-7.52 0-2.074-1.137-4.961-4.715-6.504 2.477-1.543 3.578-3.984 3.578-6.094 0-3.05-3.051-5.691-7.441-5.691-4.516 0-7.68 1.949-7.68 4.957 0 1.34 1.016 1.75 1.66 1.75.735 0 1.629-.57 1.629-1.672 0-.644-.324-1.012-.324-1.055 1.223-1.543 4.023-1.628 4.715-1.628 2.762 0 4.797 1.468 4.797 3.375 0 1.183-.774 4.558-5.043 4.839-1.504.078-2.153.164-2.317.164-.808.079-1.015.606-1.015 1.18 0 1.176.855 1.176 1.547 1.176z"/><path fill="none" stroke="#000" stroke-linecap="round" stroke-linejoin="round" d="M451.055-441.621c4.226 0 6.093 2.965 6.093 5.16 0 2.684-2.355 5.203-5.933 5.203-4.063 0-5.895-2.195-5.895-2.765 0-.079.043-.161.082-.2.161-.289.286-.613.286-.98 0-.848-.649-1.621-1.629-1.621-.848 0-1.664.527-1.664 1.789 0 3.531 3.859 6.137 8.82 6.137 5.121 0 8.578-3.657 8.578-7.52 0-2.074-1.137-4.961-4.715-6.504 2.477-1.543 3.578-3.984 3.578-6.094 0-3.05-3.051-5.691-7.441-5.691-4.516 0-7.68 1.949-7.68 4.957 0 1.34 1.016 1.75 1.66 1.75.735 0 1.629-.57 1.629-1.672 0-.644-.324-1.012-.324-1.055 1.223-1.543 4.023-1.628 4.715-1.628 2.762 0 4.797 1.468 4.797 3.375 0 1.183-.774 4.558-5.043 4.839-1.504.078-2.153.164-2.317.164-.808.079-1.015.606-1.015 1.18 0 1.176.855 1.176 1.547 1.176z"/><path fill="#ebb8b8" d="M518.848-427.129h28.343l2.028-35.457H516.82z"/><path fill="none" stroke="#600" stroke-linecap="round" stroke-linejoin="round" stroke-width=".5" d="M518.848-427.129h28.343l2.028-35.457H516.82zm14.172-35.457v-12.262"/><path fill="#600" d="M534.125-474.848c0-.613-.496-1.105-1.105-1.105a1.104 1.104 0 1 0 0 2.211c.609 0 1.105-.496 1.105-1.106"/><path fill="#fff" d="M536.297-427.129h5.266v-6.269h-5.266Z"/><path fill="none" stroke="#a65959" stroke-linecap="round" stroke-linejoin="round" stroke-width=".5" d="M536.297-427.129h5.266v-6.269h-5.266z"/><path fill="#fff" d="M526.004-433.039h4.25v-8.438h-4.25Z"/><path fill="none" stroke="#a65959" stroke-linecap="round" stroke-linejoin="round" stroke-width=".5" d="M526.004-433.039h4.25v-8.438h-4.25z"/><path fill="#fff" d="M536.637-438.949h5.57v-6.75h-5.57Z"/><path fill="none" stroke="#a65959" stroke-linecap="round" stroke-linejoin="round" stroke-width=".5" d="M536.637-438.949h5.57v-6.75h-5.57z"/><path fill="#fff" d="M517.672-444.859h4.074v-6.243h-4.074Z"/><path fill="none" stroke="#a65959" stroke-linecap="round" stroke-linejoin="round" stroke-width=".5" d="M517.672-444.859h4.07v-6.243h-4.07z"/><path fill="#fff" d="M541.539-450.77h4.649v-8.902h-4.649Z"/><path fill="none" stroke="#a65959" stroke-linecap="round" stroke-linejoin="round" stroke-width=".5" d="M541.539-450.77h4.649v-8.902h-4.649z"/><path fill="#fff" d="M537.781-456.555h3.879v-6.031h-3.879Z"/><path fill="none" stroke="#a65959" stroke-linecap="round" stroke-linejoin="round" stroke-width=".5" d="M537.781-456.555h3.879v-6.031h-3.879z"/><path fill="#b8b8eb" d="M600.773-427.129h28.348l-3.973-35.805h-20.406z"/><path fill="none" stroke="#006" stroke-linecap="round" stroke-linejoin="round" stroke-width=".5" d="M600.773-427.129h28.348l-3.973-35.805h-20.406zm14.172-35.805v-6.863"/><path fill="#006" d="M616.629-469.797a1.682 1.682 0 1 0-3.362-.002 1.682 1.682 0 0 0 3.362.002"/><path fill="#fff" d="M617.648-427.129h5.149v-6.434h-5.149Z"/><path fill="none" stroke="#5959a6" stroke-linecap="round" stroke-linejoin="round" stroke-width=".5" d="M617.648-427.129h5.149v-6.434h-5.149z"/><path fill="#fff" d="M604.742-436.082h5.641v-6.434h-5.641Z"/><path fill="none" stroke="#5959a6" stroke-linecap="round" stroke-linejoin="round" stroke-width=".5" d="M604.742-436.082h5.641v-6.434h-5.641z"/><path fill="#fff" d="M610.582-445.031h4.109v-7.965h-4.109Z"/><path fill="none" stroke="#5959a6" stroke-linecap="round" stroke-linejoin="round" stroke-width=".5" d="M610.582-445.031h4.109v-7.961h-4.109z"/><path fill="#fff" d="M618.531-453.98h3.262v-3.805h-3.262Z"/><path fill="none" stroke="#5959a6" stroke-linecap="round" stroke-linejoin="round" stroke-width=".5" d="M618.531-453.98h3.262v-3.805h-3.262z"/></g></svg>