<svg xmlns="http://www.w3.org/2000/svg" width="455pt" height="46pt" viewBox="0 -46 455 46"><g id="page1"><path fill="none" stroke="#000" stroke-linecap="round" stroke-linejoin="round" stroke-width=".5" d="M.25-45.61h45.356V-.253H.25zm45.356 0h45.351V-.253H45.606zm45.351 0h45.356V-.253H90.957zm45.356 0h45.355V-.253h-45.355zm45.355 0h45.352V-.253h-45.352zm45.352 0h45.355V-.253H227.02zm45.355 0h45.355V-.253h-45.355zm45.355 0h45.356V-.253H317.73zm45.356 0h45.352V-.253h-45.352zm45.352 0h45.355V-.253h-45.355z"/><path d="M27.516-29.172v-.453h-4.852c-2.418 0-2.46-.266-2.543-.66h-.371l-.602 3.863h.375c.063-.39.204-1.445.454-1.84.125-.164 1.652-.164 2.003-.164h4.543l-2.289 3.41c-1.53 2.29-2.586 5.391-2.586 8.094 0 .25 0 .953.747.953.742 0 .742-.703.742-.972v-.95c0-3.386.578-5.617 1.527-7.043zm41.601 5.434c1.305-.66 2.625-1.653 2.625-3.242 0-1.88-1.816-2.973-3.492-2.973-1.879 0-3.531 1.363-3.531 3.242 0 .516.125 1.406.93 2.188.207.207 1.074.828 1.632 1.218-.93.477-3.101 1.614-3.101 3.887 0 2.125 2.027 3.45 4.03 3.45 2.212 0 4.071-1.59 4.071-3.7 0-1.879-1.262-2.746-2.086-3.305zm-2.703-1.817c-.168-.101-.992-.742-.992-1.715 0-1.261 1.3-2.21 2.789-2.21 1.633 0 2.828 1.156 2.828 2.5 0 1.921-2.148 3.015-2.25 3.015-.023 0-.043 0-.207-.12zm3.8 4.235c.31.226 1.302.91 1.302 2.172 0 1.527-1.532 2.683-3.266 2.683-1.879 0-3.305-1.344-3.305-2.976 0-1.63 1.262-2.997 2.688-3.633zm48.005-7.852v-.453h-4.856c-2.418 0-2.461-.266-2.543-.66h-.371l-.597 3.863h.371c.062-.39.207-1.445.453-1.84.125-.164 1.652-.164 2.004-.164h4.547l-2.293 3.41c-1.532 2.29-2.582 5.391-2.582 8.094 0 .25 0 .953.742.953.746 0 .746-.703.746-.972v-.95c0-3.386.574-5.617 1.527-7.043zm45.297 0v-.453h-4.852c-2.418 0-2.461-.266-2.543-.66h-.371l-.602 3.863h.375c.063-.39.204-1.445.454-1.84.125-.164 1.652-.164 2.003-.164h4.543l-2.289 3.41c-1.531 2.29-2.586 5.391-2.586 8.094 0 .25 0 .953.747.953.742 0 .742-.703.742-.972v-.95c0-3.386.578-5.617 1.527-7.043zm41.703 5.434c1.301-.66 2.625-1.653 2.625-3.242 0-1.88-1.821-2.973-3.492-2.973-1.879 0-3.532 1.363-3.532 3.242 0 .516.121 1.406.926 2.188.207.207 1.074.828 1.633 1.218-.93.477-3.098 1.614-3.098 3.887 0 2.125 2.024 3.45 4.028 3.45 2.211 0 4.07-1.59 4.07-3.7 0-1.879-1.262-2.746-2.086-3.305zm-2.707-1.817c-.164-.101-.989-.742-.989-1.715 0-1.261 1.297-2.21 2.786-2.21 1.632 0 2.832 1.156 2.832 2.5 0 1.921-2.149 3.015-2.25 3.015-.024 0-.043 0-.211-.12zm3.801 4.235c.308.226 1.304.91 1.304 2.172 0 1.527-1.531 2.683-3.265 2.683-1.879 0-3.305-1.344-3.305-2.976 0-1.63 1.258-2.997 2.683-3.633zm45.96-1.094c0 4.543-1.882 5.95-3.429 5.95-.477 0-1.633-.063-2.11-.868.539.082.93-.207.93-.723 0-.558-.453-.746-.742-.746-.188 0-.742.082-.742.785 0 1.407 1.218 2.047 2.703 2.047 2.375 0 4.793-2.601 4.793-7.148 0-5.66-2.313-6.836-3.883-6.836-2.047 0-4.008 1.797-4.008 4.562 0 2.563 1.672 4.465 3.781 4.465 1.735 0 2.5-1.613 2.707-2.293zm-2.668 1.156c-.558 0-1.339-.101-1.984-1.344-.433-.804-.433-1.753-.433-2.765 0-1.219 0-2.067.582-2.977.289-.433.824-1.136 2.023-1.136 2.437 0 2.437 3.738 2.437 4.566 0 1.469-.66 3.656-2.625 3.656m45.262-2.066c1.836 0 2.641 1.59 2.641 3.43 0 2.48-1.32 3.43-2.52 3.43-1.093 0-2.871-.54-3.429-2.13a.8.8 0 0 0 .312.043c.496 0 .867-.332.867-.867 0-.602-.457-.871-.867-.871-.351 0-.891.168-.891.93 0 1.902 1.86 3.39 4.051 3.39 2.293 0 4.047-1.797 4.047-3.906 0-2.004-1.652-3.45-3.613-3.676 1.57-.332 3.078-1.734 3.078-3.613 0-1.613-1.633-2.79-3.492-2.79-1.879 0-3.531 1.157-3.531 2.81 0 .722.535.847.804.847.434 0 .805-.27.805-.808 0-.536-.371-.805-.805-.805-.082 0-.183 0-.269.043.601-1.363 2.234-1.613 2.953-1.613.726 0 2.09.351 2.09 2.335 0 .579-.082 1.61-.785 2.52-.622.805-1.325.848-2.004.91-.106 0-.579.04-.661.04-.144.019-.23.042-.23.187s.023.164.434.164zm49.446 3.824h-.372c-.207 1.465-.371 1.71-.453 1.836-.105.164-1.59.164-1.879.164h-3.968c.746-.805 2.191-2.27 3.949-3.965 1.258-1.2 2.723-2.601 2.723-4.648 0-2.438-1.942-3.84-4.11-3.84-2.273 0-3.656 2-3.656 3.86 0 .808.598.91.848.91.207 0 .824-.122.824-.848 0-.64-.535-.825-.824-.825-.125 0-.25.02-.332.063.394-1.758 1.593-2.625 2.851-2.625 1.797 0 2.977 1.426 2.977 3.305 0 1.797-1.055 3.347-2.235 4.691l-4.109 4.649v.472h7.273zm45.3 0h-.371c-.207 1.465-.371 1.71-.453 1.836-.105.164-1.594.164-1.883.164h-3.965c.747-.805 2.192-2.27 3.946-3.965 1.261-1.2 2.726-2.601 2.726-4.648 0-2.438-1.941-3.84-4.109-3.84-2.274 0-3.656 2-3.656 3.86 0 .808.597.91.847.91.203 0 .825-.122.825-.848 0-.64-.536-.825-.825-.825-.125 0-.25.02-.332.063.395-1.758 1.59-2.625 2.852-2.625 1.797 0 2.973 1.426 2.973 3.305 0 1.797-1.051 3.347-2.231 4.691l-4.109 4.649v.472h7.269zm42.407-4.238c1.3-.66 2.621-1.653 2.621-3.242 0-1.88-1.817-2.973-3.489-2.973-1.879 0-3.535 1.363-3.535 3.242 0 .516.125 1.406.93 2.188.207.207 1.074.828 1.633 1.218-.93.477-3.098 1.614-3.098 3.887 0 2.125 2.023 3.45 4.027 3.45 2.211 0 4.071-1.59 4.071-3.7 0-1.879-1.262-2.746-2.086-3.305zm-2.707-1.817c-.165-.101-.993-.742-.993-1.715 0-1.261 1.301-2.21 2.789-2.21 1.633 0 2.832 1.156 2.832 2.5 0 1.921-2.148 3.015-2.253 3.015-.02 0-.04 0-.208-.12zm3.8 4.235c.309.226 1.305.91 1.305 2.172 0 1.527-1.531 2.683-3.266 2.683-1.879 0-3.308-1.344-3.308-2.976 0-1.63 1.261-2.997 2.687-3.633z"/></g></svg>