<svg xmlns="http://www.w3.org/2000/svg" width="715pt" height="396" viewBox="0 -297 715 297"><g id="page1"><path fill="#fff" d="M374.422-279.488c0-9.395-7.613-17.008-17.008-17.008-9.391 0-17.008 7.613-17.008 17.008 0 9.39 7.617 17.008 17.008 17.008 9.395 0 17.008-7.618 17.008-17.008"/><path fill="none" stroke="#000" stroke-linecap="round" stroke-linejoin="round" stroke-width=".5" d="M374.422-279.488c0-9.395-7.613-17.008-17.008-17.008-9.391 0-17.008 7.613-17.008 17.008 0 9.39 7.617 17.008 17.008 17.008 9.395 0 17.008-7.618 17.008-17.008"/><path fill="#fff" d="M261.039-194.449c0-9.395-7.617-17.008-17.008-17.008-9.394 0-17.011 7.613-17.011 17.008 0 9.39 7.617 17.008 17.011 17.008 9.391 0 17.008-7.618 17.008-17.008"/><path fill="none" stroke="#000" stroke-linecap="round" stroke-linejoin="round" stroke-width=".5" d="M261.039-194.449c0-9.395-7.617-17.008-17.008-17.008-9.394 0-17.011 7.613-17.011 17.008 0 9.39 7.617 17.008 17.011 17.008 9.391 0 17.008-7.618 17.008-17.008"/><path fill="#fff" d="M90.957-109.41c0-9.395-7.613-17.008-17.008-17.008-9.39 0-17.008 7.613-17.008 17.008 0 9.39 7.618 17.008 17.008 17.008 9.395 0 17.008-7.618 17.008-17.008"/><path fill="none" stroke="#000" stroke-linecap="round" stroke-linejoin="round" stroke-width=".5" d="M90.957-109.41c0-9.395-7.613-17.008-17.008-17.008-9.39 0-17.008 7.613-17.008 17.008 0 9.39 7.618 17.008 17.008 17.008 9.395 0 17.008-7.618 17.008-17.008"/><path fill="#fff" d="M34.266-24.371c0-9.395-7.614-17.008-17.008-17.008C7.863-41.379.25-33.766.25-24.37S7.863-7.363 17.258-7.363s17.008-7.614 17.008-17.008"/><path fill="none" stroke="#000" stroke-linecap="round" stroke-linejoin="round" stroke-width=".5" d="M34.266-24.371c0-9.395-7.614-17.008-17.008-17.008C7.863-41.379.25-33.766.25-24.37S7.863-7.363 17.258-7.363s17.008-7.614 17.008-17.008"/><path fill="#fff" d="M147.652-24.371c0-9.395-7.617-17.008-17.007-17.008-9.395 0-17.008 7.613-17.008 17.008s7.613 17.008 17.008 17.008c9.39 0 17.007-7.614 17.007-17.008"/><path fill="none" stroke="#000" stroke-linecap="round" stroke-linejoin="round" stroke-width=".5" d="M147.652-24.371c0-9.395-7.617-17.008-17.007-17.008-9.395 0-17.008 7.613-17.008 17.008s7.613 17.008 17.008 17.008c9.39 0 17.007-7.614 17.007-17.008"/><path fill="#fff" d="M204.344-109.41c0-9.395-7.614-17.008-17.008-17.008-9.395 0-17.008 7.613-17.008 17.008 0 9.39 7.613 17.008 17.008 17.008s17.008-7.618 17.008-17.008"/><path fill="none" stroke="#000" stroke-linecap="round" stroke-linejoin="round" stroke-width=".5" d="M204.344-109.41c0-9.395-7.614-17.008-17.008-17.008-9.395 0-17.008 7.613-17.008 17.008 0 9.39 7.613 17.008 17.008 17.008s17.008-7.618 17.008-17.008"/><path fill="#fff" d="M317.73-109.41c0-9.395-7.613-17.008-17.007-17.008s-17.008 7.613-17.008 17.008c0 9.39 7.613 17.008 17.008 17.008s17.007-7.618 17.007-17.008"/><path fill="none" stroke="#000" stroke-linecap="round" stroke-linejoin="round" stroke-width=".5" d="M317.73-109.41c0-9.395-7.613-17.008-17.007-17.008s-17.008 7.613-17.008 17.008c0 9.39 7.613 17.008 17.008 17.008s17.007-7.618 17.007-17.008"/><path fill="#fff" d="M374.422-194.449c0-9.395-7.613-17.008-17.008-17.008-9.391 0-17.008 7.613-17.008 17.008 0 9.39 7.617 17.008 17.008 17.008 9.395 0 17.008-7.618 17.008-17.008"/><path fill="none" stroke="#000" stroke-linecap="round" stroke-linejoin="round" stroke-width=".5" d="M374.422-194.449c0-9.395-7.613-17.008-17.008-17.008-9.391 0-17.008 7.613-17.008 17.008 0 9.39 7.617 17.008 17.008 17.008 9.395 0 17.008-7.618 17.008-17.008"/><path fill="#fff" d="M431.117-109.41c0-9.395-7.613-17.008-17.008-17.008s-17.007 7.613-17.007 17.008c0 9.39 7.613 17.008 17.007 17.008s17.008-7.618 17.008-17.008"/><path fill="none" stroke="#000" stroke-linecap="round" stroke-linejoin="round" stroke-width=".5" d="M431.117-109.41c0-9.395-7.613-17.008-17.008-17.008s-17.007 7.613-17.007 17.008c0 9.39 7.613 17.008 17.007 17.008s17.008-7.618 17.008-17.008"/><path fill="#fff" d="M261.039-24.371c0-9.395-7.617-17.008-17.008-17.008-9.394 0-17.011 7.613-17.011 17.008s7.617 17.008 17.011 17.008c9.391 0 17.008-7.614 17.008-17.008"/><path fill="none" stroke="#000" stroke-linecap="round" stroke-linejoin="round" stroke-width=".5" d="M261.039-24.371c0-9.395-7.617-17.008-17.008-17.008-9.394 0-17.011 7.613-17.011 17.008s7.617 17.008 17.011 17.008c9.391 0 17.008-7.614 17.008-17.008"/><path fill="#fff" d="M374.422-24.371c0-9.395-7.613-17.008-17.008-17.008-9.391 0-17.008 7.613-17.008 17.008s7.617 17.008 17.008 17.008c9.395 0 17.008-7.614 17.008-17.008"/><path fill="none" stroke="#000" stroke-linecap="round" stroke-linejoin="round" stroke-width=".5" d="M374.422-24.371c0-9.395-7.613-17.008-17.008-17.008-9.391 0-17.008 7.613-17.008 17.008s7.617 17.008 17.008 17.008c9.395 0 17.008-7.614 17.008-17.008"/><path fill="#fff" d="M544.504-109.41c0-9.395-7.617-17.008-17.012-17.008-9.39 0-17.008 7.613-17.008 17.008 0 9.39 7.618 17.008 17.008 17.008 9.395 0 17.012-7.618 17.012-17.008"/><path fill="none" stroke="#000" stroke-linecap="round" stroke-linejoin="round" stroke-width=".5" d="M544.504-109.41c0-9.395-7.617-17.008-17.012-17.008-9.39 0-17.008 7.613-17.008 17.008 0 9.39 7.618 17.008 17.008 17.008 9.395 0 17.012-7.618 17.012-17.008"/><path fill="#fff" d="M487.809-194.449c0-9.395-7.614-17.008-17.008-17.008-9.395 0-17.008 7.613-17.008 17.008 0 9.39 7.613 17.008 17.008 17.008s17.008-7.618 17.008-17.008"/><path fill="none" stroke="#000" stroke-linecap="round" stroke-linejoin="round" stroke-width=".5" d="M487.809-194.449c0-9.395-7.614-17.008-17.008-17.008-9.395 0-17.008 7.613-17.008 17.008 0 9.39 7.613 17.008 17.008 17.008s17.008-7.618 17.008-17.008"/><path fill="#fff" d="M657.887-109.41c0-9.395-7.614-17.008-17.008-17.008-9.391 0-17.008 7.613-17.008 17.008 0 9.39 7.617 17.008 17.008 17.008 9.394 0 17.008-7.618 17.008-17.008"/><path fill="none" stroke="#000" stroke-linecap="round" stroke-linejoin="round" stroke-width=".5" d="M657.887-109.41c0-9.395-7.614-17.008-17.008-17.008-9.391 0-17.008 7.613-17.008 17.008 0 9.39 7.617 17.008 17.008 17.008 9.394 0 17.008-7.618 17.008-17.008"/><path fill="#fff" d="M487.809-24.371c0-9.395-7.614-17.008-17.008-17.008-9.395 0-17.008 7.613-17.008 17.008s7.613 17.008 17.008 17.008 17.008-7.614 17.008-17.008"/><path fill="none" stroke="#000" stroke-linecap="round" stroke-linejoin="round" stroke-width=".5" d="M487.809-24.371c0-9.395-7.614-17.008-17.008-17.008-9.395 0-17.008 7.613-17.008 17.008s7.613 17.008 17.008 17.008 17.008-7.614 17.008-17.008"/><path fill="#fff" d="M601.195-24.371c0-9.395-7.617-17.008-17.007-17.008-9.395 0-17.008 7.613-17.008 17.008s7.613 17.008 17.008 17.008c9.39 0 17.007-7.614 17.007-17.008"/><path fill="none" stroke="#000" stroke-linecap="round" stroke-linejoin="round" stroke-width=".5" d="M601.195-24.371c0-9.395-7.617-17.008-17.007-17.008-9.395 0-17.008 7.613-17.008 17.008s7.613 17.008 17.008 17.008c9.39 0 17.007-7.614 17.007-17.008"/><path fill="#fff" d="M714.582-24.371c0-9.395-7.617-17.008-17.008-17.008-9.394 0-17.008 7.613-17.008 17.008s7.614 17.008 17.008 17.008c9.391 0 17.008-7.614 17.008-17.008"/><g fill="none" stroke-linecap="round" stroke-linejoin="round"><path stroke="#000" stroke-width=".5" d="M714.582-24.371c0-9.395-7.617-17.008-17.008-17.008-9.394 0-17.008 7.613-17.008 17.008s7.614 17.008 17.008 17.008c9.391 0 17.008-7.614 17.008-17.008"/><path stroke="gray" stroke-width="1.5" d="M343.809-269.285a1042 1042 0 0 0-86.172 64.629m-28.821 17.812a1342 1342 0 0 0-70.843 32.875 1340 1340 0 0 0-68.809 36.953m145.43-63.285a408.5 408.5 0 0 1-37.824 56.738m56.695-56.738a688 688 0 0 1 19.625 27.895 682 682 0 0 1 18.199 28.843m-119.164 21.758a613909 613909 0 0 0-69.828 34.914c-23.274 11.637-46.55 23.278-69.828 34.914m253.043-69.828a11421 11421 0 0 1-139.657 69.828M357.414-262.48v51.023m9.438 31.156a290 290 0 0 0 37.824 56.738m-32.047-63.281a1341 1341 0 0 1 70.844 32.875 1340 1340 0 0 1 68.808 36.953m-113.386 15.211a1515 1515 0 0 0-70.723 33.118 1515 1515 0 0 0-68.93 36.71m145.434-63.281a256.5 256.5 0 0 1-37.824 56.735m4.168-230.762a1041 1041 0 0 1 86.175 64.629m28.821 17.812a2189 2189 0 0 1 139.652 69.828m0 15.211a3445 3445 0 0 0-70.223 34.125 3430 3430 0 0 0-69.429 35.703m145.429-63.281a410 410 0 0 1-17.726 29.156 410 410 0 0 1-20.098 27.579m56.692-56.735a669 669 0 0 1 19.625 27.895 680 680 0 0 1 18.203 28.84"/></g><g fill-rule="evenodd"><path fill="#f2f2f2" d="M73.934-112.414c-.407.219-.375.844.03 1.031.47.188.876-.25.72-.719a.523.523 0 0 0-.75-.312m-5.907.156c-.25.094-.312.438-.156.625.219.281.656.156.688-.187 0-.344-.25-.563-.532-.438m1.438 2.531c-1.813.157-3.281.594-4.375 1.282l-.313.218.094.219c1.781 4.469 11.188 5.906 15.969 2.406.187-.125.312-.25.312-.281-2.75-2.437-8-4.156-11.687-3.844m.031.5c-.625.157-.687.469-.156 1l.312.313-.062.344c-.031.25-.031.437 0 .593.062.282.031.313-.094.375-.219.125-.594.032-.906-.218-.219-.157-.25-.157-.156.062.25.438.843.656 1.25.438.156-.063.187-.063.218-.032.407.469 1.72.438 2.25-.093.282-.282.313-.438.032-.219-.907.687-2.25.312-2.25-.625.03-.563.03-.594.375-.719.5-.187 1-.562 1-.781 0-.313-1.188-.594-1.813-.438m2.719 6.063c-.719 1-1.813 3.156-2.313 4.5l-.125.281.375.25c1.563 1 1.032 3.719-.75 3.938l-.218.03.062.345c.813 5.156 7.031 5.218 7.844.093l.031-.187-.25.156c-3.25 1.781-5.437-2.437-2.25-4.406.5-.313 1-.688 1.375-1.031l.219-.188-.125-.75a30 30 0 0 1-.313-2.562l-.03-.563-.376.031c-.406.032-2.812 0-2.969-.031-.093-.031-.125 0-.187.094"/><path fill="#ccc" d="M75.027-133.32c-.656.125-1.312.593-1.437 1.281-.188.906-.031 1.844.219 2.719.78 2.25 2.406 4.125 3.093 6.437.22.75.22 1.531.125 2.281.157.063.75.282.344.219-2.156-.312-4.5-.437-6.562.469-1.75.75-3.032 2.375-3.782 4.125-.562 1.437-1.25 2.844-1.843 4.281-.375.969-.782 2.031-.47 3.063 0 .343.22.093.376 0 1.875-1.188 4.187-1.438 6.375-1.282 3.437.282 6.812 1.594 9.531 3.75.219.094.031.375.281.125.813-.843 1.563-1.75 1.97-2.843 1.062-2.5.655-5.438-.782-7.688-.906-1.5-2.219-2.687-3.719-3.562-.187-.219.563.281.625-.125 1.438-1.907 2.594-4.219 2.531-6.688-.062-2.094-1.093-4.125-2.78-5.375-1.157-.844-2.626-1.469-4.095-1.187m.157 2.125c-.25.062-.907.437-.313.281.594-.25.438.531.469.906.031 1.156.437 2.25.937 3.25.625 1.344 1.407 2.625 1.782 4.063.03.25.093.531.125.781-.125.312-.282.594-.344.906.562-.687.937-1.531 1.219-2.406.593-1.969.5-4.188-.438-6.063-.5-.968-1.437-1.875-2.594-1.843-.28 0-.593.031-.843.125m-11.22 1.375c-1.218.25-2.5.843-3.155 1.968a1.54 1.54 0 0 0 .03 1.594c.657 1.188 1.938 1.75 3.126 2.25 2.094.844 4.344 1.25 6.344 2.281.5.282.906.625 1.28 1.032a32 32 0 0 1 1.688-.313c-.03-1.594-.375-3.219-1.125-4.625-1.156-2.219-3.375-3.937-5.906-4.25a8 8 0 0 0-2.281.063m.47 1.843c-.907.188-1.875.782-2.032 1.75-.093.344.188-.25.282-.312.156-.25.28-.063.406.094.75.781 1.625 1.468 2.656 1.875 1.531.625 3.188 1.062 4.656 1.937.5.281.844.781 1.032 1.344.156.219-.032-.438-.032-.563-.468-2.343-2-4.5-4.125-5.625-.875-.437-1.875-.687-2.843-.5m8.812 14.938c-1.031.344-1.469 1.687-.969 2.594.375.843 1.532 1.25 2.282.656.937-.688.968-2.281.03-2.969-.374-.312-.905-.437-1.343-.281m-5.937.281c-.875.531-.938 1.844-.344 2.594.375.531 1.281.562 1.687.031.657-.781.532-2.187-.406-2.656a1 1 0 0 0-.937.031m10.937 8.938c-.719.25-1.469.375-2.219.5 0 1.187.157 2.375.344 3.53.188.376.5-.405.656-.562.47-.75.875-1.531 1.157-2.375.125.063-.094.75-.157 1.032-.468 1.718-1.843 3.03-3.28 3.968-.657.438-1.313 1.063-1.282 1.907 0 .156-.063.375.187.406.375.25.875.25 1.282.031-.157.219-.625.375-.97.375-.468-.156-.374.156-.124.375.344.5 1.094.656 1.625.344.375-.031-.938.469-.25.437 1.219.094 2.281-.75 3.031-1.656 1.406-1.656 2.063-3.969 1.5-6.062-.219-.813-.562-1.625-1.094-2.282-.125-.093-.28 0-.406.032m-7.062.843c-1.563 1.282-2.97 2.875-3.594 4.813-.281 1-.344 2.25.375 3.094.219.28.562.437.906.5a2.1 2.1 0 0 1-.531-.657c.375.407.969.657 1.5.438.187-.094.469-.344.531-.5-.531 0-1-.313-1.187-.781.312.28.75.625 1.218.437.407-.281.344-.875.282-1.281-.125-.531-.594-.875-1-1.156-.5-.375-.844-1-.782-1.625.157.312.313.687.563.937.594-1.5 1.344-2.937 2.187-4.344.407-.687-.312.032-.468.125m9.156 3.532c-.188 1.875-1.063 3.687-2.469 4.968-.5.22-.562.72-.625 1.22-.281 1.468-1.312 2.874-2.781 3.343-.875.312-1.844.25-2.688-.063a9.3 9.3 0 0 0 3.375 1.344c.438-.125.407-.812.657-1.156.625-1.281 1.375-2.594 2.562-3.375.5-.344 1.156-.469 1.688-.188.593-.062 1.28-.187 1.812.282a1.56 1.56 0 0 1 .688 1.687c.125.188.25 1 .437.469.656-1.156.656-2.563.219-3.781-.5-1.532-1.563-2.75-2.313-4.157-.156-.218-.406-.906-.53-.843 0 .062-.032.156-.032.25m4.219 2.468c-.438.125-.75.438-.97.813-.187-.156-.655-.781-.874-.563.937 1.438 1.469 3.22 1.062 4.907-.062.468-.406.906-.468 1.343.468.094.906-.125 1.218-.468.282 0 .563.125.844.03.75-.155 1.25-1.03.969-1.75-.313-.593.687-.218.812-.718.344-.469.032-1.219-.562-1.281-.219 0-.531.062-.313-.219.407-.844-.156-2-1.093-2.125a1.4 1.4 0 0 0-.625.031m-19.75 2.532c-.5.03-1 .468-1.032 1-.062.28.157.906.063.937-.25-.344-.25-.812-.313-1.219-.343.563-.156 1.282.063 1.875.312.688.781 1.282 1.25 1.875.219-.28.625-.343.937-.187.907.344 1.657 1.031 2.157 1.875.28.312-.094 1.156.593.812.594-.187.97-.718 1.532-.906.78-.344 1.625-.5 2.437-.687-1.562-.782-2.969-2.094-3.469-3.813-.187-.375-.375.438-.53.625-.345.438-.032.969.03 1.469.063.187.094.625-.062.219-.438-.97-.844-2-1.625-2.782-.344-.375-1-.343-1.281.063-.25.312-.25.687-.22 1.062.095-.562.813-.312.845.157.187.625-.688.593-.75.062-.188-.344.125.594-.125.125-.344-.594-.438-1.469.156-1.937.125-.22.969-.25.406-.47-.344-.124-.687-.25-1.062-.155m-.813.968c-.312.375-.094 1.063.313 1.282.593.093.437-.813.187-1.125-.125-.125-.312-.282-.5-.157m14.75.532c-.906.53-1.5 1.468-2.062 2.375-.657 1.218-1.282 2.53-1.407 3.937-.062.469.032 1.156.625 1.188.97.125 1.875-.313 2.75-.72 1.313-.687 2.594-1.593 3.407-2.874.343-.563.53-1.25.25-1.875-.313.437-.844.719-1.375.875.5-.5 1.156-.969 1.187-1.75-.062-.781-.906-1.469-1.687-1.156-.625.218-.97.78-1.25 1.312-.063-.25.218-.906.468-1.25.157-.469-.687-.156-.906-.062m-.281.375c-.469.28-.094 1.093.375.687.5-.219.312-1.187-.281-.75l-.032.031zm2 .343c-.469.22-.844.844-.563 1.313.375.406 1.032.094 1.22-.344.25-.344.187-.969-.345-.969a.53.53 0 0 0-.312 0m1.156 2.188c-.656.312-.094 1.25.438.687.5-.375.062-1.125-.438-.687m-3.656.25a3.36 3.36 0 0 0-2.031 2.406c-.125.531.125 1.219.75 1.313.812.062 1.562-.532 2.062-1.125.469-.563.844-1.313.656-2.063-.156-.625-.906-.75-1.437-.531"/><path fill="#f8b2b0" d="M75.777-130.164c.032 1.344.22 2 .97 3.562 1.062 2.188 1.437 3.157 1.562 4l.03.282.22-.625c1.28-3.875.093-7.532-2.594-7.969l-.219-.031zm-11.375 2.656c-.343.063-1.093.375-1.187.5-.031.063.594.719 1.062 1.094.75.625 1.282.906 2.532 1.375 2.375.906 3.187 1.281 4 1.937l.125.094-.094-.281c-1.5-3.406-3.938-5.188-6.438-4.719m-.406 34.188c-.25.343.25 1.312.531.968.157-.187.063-.687-.187-.937-.125-.156-.25-.156-.344-.031m14.563.875c-.22.218-.22.5 0 .53.218.032.53-.405.406-.624-.063-.125-.25-.094-.406.094m-13 .03c-.094.063-.063.345.03.532.22.281.5.25.5-.062 0-.344-.343-.657-.53-.47m14.906.376c-.094.062-.25.156-.313.25-.562.625.032 1.281.657.719.593-.532.312-1.313-.344-.97m-15.188 1.875a.6.6 0 0 0-.218.187l-.094.094.5.5c.844.813 2.156 1.813 2.437 1.813.125 0-.125-.625-.437-1.063-.719-1.031-1.656-1.687-2.188-1.531m16.407.25c-.375.281-.22.75.187.5a.53.53 0 0 0 .281-.406c0-.22-.25-.282-.468-.094m-3.563.219c-1.125.343-2.187 1.75-2.062 2.718.156 1.375 2.218.72 3.03-.968.532-1.188.063-2.063-.968-1.75"/><path d="M75.09-133.727c-1.406.219-1.969.938-1.969 2.532 0 1.5.375 2.562 1.875 5.156 1.344 2.406 1.688 3.312 1.688 4.594 0 .75 0 .75-.5.625-.657-.157-1.032-.188-1.782-.219h-.718l-.032-.5c-.28-4.406-2.656-7.531-6.437-8.5-4.406-1.125-8.563 1.719-6.406 4.406 1 1.219 2.156 1.844 5.468 2.844 2.844.844 3.875 1.312 4.625 1.969l.282.281-.407.156c-2.03.875-3.312 2.281-4.312 4.75-.219.5-.531 1.219-.688 1.625-1 2.219-1.343 3.063-1.468 3.688-.688 3.062 1.78 5.687 6.25 6.718l.53.125-.405.313c-3.813 3.187-5.063 8.187-2.188 8.906.406.094.406.406.094.969-.125.219-.281.5-.344.625-.156.312-.156.312-.281.031-.875-1.844-2.719-2.75-3.906-1.906-.094.062-.25.156-.344.156-1.656.344-.688 3.344 1.781 5.594 2.094 1.906 3 2.156 4.125 1.125.406-.375 1.594-.781 3.063-1.031l.5-.063.53.156c.282.094.72.22.97.282.28.062.5.093.5.093s-.063.25-.125.532c-.188.718-.25 1.375-.188 1.718.438 2.563 7.031-.593 7.906-3.75.125-.406.157-.437.344-.375.438.094 1.063 0 1.375-.28.125-.095.156-.126.531-.126 1.063 0 1.782-.719 1.782-1.75v-.375l.25-.125c.875-.469.812-1.812-.094-2.219-.156-.03-.219-.093-.188-.125.47-1.687-1.75-3.062-3.062-1.875l-.156.157-.188-.125c-.25-.157-.594-.282-.812-.282-.22 0-.344-.156-1.094-1.468-.875-1.563-1.125-2.063-1.219-2.594a8.3 8.3 0 0 0-1.031-2.5l-.188-.313.22-.093c6.312-2.563 6.687-12.313.624-15.375l-.25-.125c-.031 0 .125-.188.281-.438 2.907-3.937 3.188-8.094.75-11.094-1.437-1.781-3.75-2.812-5.562-2.5m-.063.407c-1.218.281-1.656 1.062-1.5 2.625.157 1.312.47 2.125 1.782 4.406 1.53 2.687 1.875 3.781 1.75 5.406l-.032.281.282.125c.375.157.343.157-.313.063-5.312-.781-8.406.75-10.125 5-.344.844-.5 1.187-1.125 2.594-1.094 2.406-1.312 3.25-1.031 4.406 1.031 4.156 9.187 6.219 14.656 3.687 6.156-2.812 5.906-11.343-.437-15.062-.344-.219-.375-.25-.063-.156.344.093.344.093.625-.313 2.5-3.344 3.063-6.656 1.625-9.469-1.187-2.406-3.969-4.031-6.094-3.593m.157 2.125c-.22.062-.625.281-.625.343 0 0 .125-.031.312-.062.469-.094.438-.125.469.625.062 1.531.281 2.219 1.344 4.375 1.03 2.031 1.343 2.781 1.437 3.625l.063.344-.188.5c-.25.562-.219.562.094.125 2.844-4.25.812-11.063-2.906-9.875m.593 1.031c.032 1.344.22 2 .97 3.562 1.062 2.188 1.437 3.157 1.562 4l.03.282.22-.625c1.28-3.875.093-7.532-2.594-7.969l-.219-.031zm-11.812.344c-2.188.406-3.781 2-3.281 3.25.593 1.406 2 2.25 5.75 3.406 3.125.969 4.218 1.469 4.968 2.25l.188.219.531-.094c.313-.063.625-.125.719-.156a1 1 0 0 0 .312-.063h.125l-.03-.562c-.282-5.344-4.532-9.125-9.282-8.25m.469 1.843c-1.063.219-1.938.938-2.032 1.719l-.03.188.124-.219c.094-.094.188-.25.25-.281l.125-.125.375.406c1.094 1.062 1.813 1.5 3.594 2.125 3.281 1.187 4.094 1.656 4.469 2.562.218.563.25.563.125-.093-.625-3.719-4.125-6.844-7-6.282m-.032.469c-.343.063-1.093.375-1.187.5-.031.063.594.719 1.062 1.094.75.625 1.282.906 2.532 1.375 2.375.906 3.187 1.281 4 1.937l.125.094-.094-.281c-1.5-3.406-3.938-5.188-6.438-4.719m8.844 14.469c-1.625.594-1.531 3.062.094 3.469 1.094.281 2.094-.782 1.937-2.032-.156-1.031-1.156-1.75-2.03-1.437m-5.937.281c-1.22.688-.813 3 .5 3 .968.031 1.562-1.312 1.062-2.375-.312-.687-1-.937-1.562-.625m6.593.344a.58.58 0 0 0-.28.531c0 .5.562.75.937.406.5-.437-.094-1.281-.657-.937m-5.968.187c-.157.094-.22.344-.125.532.156.375.687.281.75-.157.062-.343-.344-.593-.625-.375m1.78 3c-.812.125-.905.594-.25 1.125l.157.125v.657c0 .625 0 .656-.094.718-.218.157-.656.063-.968-.218-.188-.157-.188-.125-.063.093.25.438.781.594 1.25.375.125-.062.156-.062.219 0 .531.469 1.937.375 2.281-.187.156-.25.125-.281-.031-.125-.5.437-1.688.469-2.094.031-.187-.219-.25-.469-.187-1.062l.03-.219.25-.094c1.5-.469 1.095-1.469-.5-1.219m8.532 5.407c-.437.156-1.25.343-1.75.437l-.469.063v.468c0 .75.313 3.094.407 3.188.156.187 1.312-1.813 1.625-2.781q.28-.75.093.187c-.28 1.719-1.343 3.156-3.218 4.406-1.063.688-1.47 1.25-1.47 1.97v.374l.25.156c.345.157.75.157 1.095.032.25-.125.187-.032-.094.125a1.7 1.7 0 0 1-.938.187c-.218-.062-.25-.062-.062.219.406.625 1.062.844 1.687.531.22-.094.22-.094.125 0a3 3 0 0 0-.343.219c-.344.156-.282.187.28.187 1.75 0 3.782-2.25 4.313-4.75a6.46 6.46 0 0 0-.937-5c-.219-.343-.219-.343-.594-.218m-7.062.843c-2.75 2.25-4.188 4.97-3.688 6.97.156.75.656 1.312 1.219 1.405l.156.032-.187-.188c-.094-.094-.22-.219-.25-.312l-.094-.157.187.157c.5.468 1.25.468 1.688 0l.156-.188-.219-.062a1.14 1.14 0 0 1-.812-.5c-.219-.282-.219-.344 0-.125.5.5 1.187.468 1.312-.032.22-.75-.03-1.468-.687-1.875-.688-.437-1.063-1.062-1.063-1.656v-.187l.094.187c.188.406.438.781.469.75s.125-.281.25-.594c.312-.75 1.125-2.375 1.656-3.25.563-.968.563-1-.187-.375m.656.407c-.844 1.343-1.344 2.343-1.813 3.5-.312.78-.312.687.094.937 1.563 1 1.094 3.594-.687 3.938-.313.03-.313 0-.188.593.281 1.407 1.156 2.75 2.031 3.157 2.75 1.312 5.438-.188 5.813-3.22l.031-.25-.375.188c-3.344 1.563-5.187-2.406-2.062-4.437.656-.438 1.156-.844 1.406-1.094l.125-.125-.094-.719c-.187-1.125-.281-1.718-.281-2.468l-.031-.719-.47.031c-.593.063-1.968.063-2.593 0l-.5-.031zm8.5 3.125c-.188 2.03-1.375 4.218-2.875 5.28-.063.063-.094.126-.125.407-.375 3-2.875 4.719-5.531 3.781-.22-.062.437.313.937.563.625.281 1.375.531 2 .687.594.125.563.157.75-.312 1.219-3.094 3.063-4.906 4.406-4.375.25.094.282.094.438.062 1.125-.406 2.469.688 2.219 1.782-.032.156-.032.218.03.312.063.063.126.25.157.375.094.281.125.281.375-.312.75-1.594.438-3.47-.969-5.594a52 52 0 0 1-1.406-2.375l-.344-.625c-.03 0-.03.125-.062.344m4.219 2.468a1.68 1.68 0 0 0-.844.625c-.188.25-.156.25-.313 0a1.02 1.02 0 0 0-.593-.406c-.157-.062-.157-.062.093.344 1.125 1.844 1.313 3.937.532 5.531-.22.438-.22.406.125.406.312 0 .562-.093.812-.343l.188-.157.25.063c.75.156 1.5-.375 1.593-1.156.032-.188 0-.344-.125-.844-.03-.094 0-.094.157-.094.5 0 .843-.375.843-.844s-.343-.812-.875-.812h-.218l.125-.281c.468-1.157-.563-2.375-1.75-2.032m-19.75 2.532c-.875.125-1.22.78-.938 1.906.031.125.031.125-.031.031-.125-.156-.281-.656-.281-.969s-.063-.312-.157 0c-.218.813.188 1.907 1.125 3.094l.313.406.187-.156c.72-.656 3.344 1.563 3.032 2.563-.094.375.78.093 1.343-.438.375-.344 1.344-.687 2.75-.969l.344-.093-.312-.157c-1.532-.843-2.657-2.093-3.125-3.5-.125-.437-.094-.437-.438.25-.344.657-.344.625-.219 1.094.125.406.22 1.063.188 1-.031 0-.125-.219-.219-.437-1.031-2.313-1.781-3.125-2.562-2.688q-.516.282-.47 1.031v.25l.063-.156c.22-.531.97.063.782.594-.157.375-.594.219-.75-.219-.063-.219-.094-.094-.032.156.063.22-.03.094-.187-.218-.406-.938-.125-1.75.687-1.97.125-.03.22-.093.188-.093-.063-.125-.813-.375-1-.344 0 0-.125 0-.281.032m-.813.968c-.25.157-.187.813.094 1.125.375.407.75.063.594-.468-.125-.532-.438-.813-.688-.657m0 .157c-.25.343.25 1.312.531.968.157-.187.063-.687-.187-.937-.125-.156-.25-.156-.344-.031m14.75.375c-1.937.968-4.375 6.687-3.156 7.406.937.531 3.781-.688 5.5-2.344 1.125-1.062 1.531-2.062 1.281-2.906l-.062-.125-.157.187c-.218.25-.53.47-.906.594l-.312.094.468-.438c.813-.812.938-1.437.344-2.093-.719-.813-1.781-.5-2.406.687-.125.25-.219.344-.188.281.094-.53.22-.906.47-1.187.28-.375-.25-.469-.876-.156m-.281.375c-.344.343-.281.75.094.78.28.032.687-.437.593-.75-.093-.28-.406-.28-.687-.03m.094.125c-.22.218-.22.5 0 .53.218.032.53-.405.406-.624-.063-.125-.25-.094-.406.094m-13 .03c-.094.063-.063.345.03.532.22.281.5.25.5-.062 0-.344-.343-.657-.53-.47m14.906.188c-.781.344-.906 1.5-.156 1.5.906 0 1.343-1.437.468-1.5-.125-.03-.25 0-.312 0m0 .188c-.094.062-.25.156-.313.25-.562.625.032 1.281.657.719.593-.532.312-1.313-.344-.97m-15.188 1.875a.6.6 0 0 0-.218.187l-.094.094.5.5c.844.813 2.156 1.813 2.437 1.813.125 0-.125-.625-.437-1.063-.719-1.031-1.656-1.687-2.188-1.531m16.344.125c-.187.125-.344.437-.281.594.125.5.875.218.937-.344.032-.344-.312-.5-.656-.25m.063.125c-.375.281-.22.75.187.5a.53.53 0 0 0 .281-.406c0-.22-.25-.282-.468-.094m-3.72.125c-1.343.469-2.405 2.281-1.937 3.219.657 1.312 3.094-.188 3.407-2.063.156-.937-.532-1.5-1.47-1.156m.157.094c-1.125.343-2.187 1.75-2.062 2.718.156 1.375 2.218.72 3.03-.968.532-1.188.063-2.063-.968-1.75"/><path fill="#f2f2f2" d="M17.238-27.375c-.402.219-.375.844.035 1.031.465.188.875-.25.715-.718a.522.522 0 0 0-.75-.313m-5.902.156c-.25.094-.313.438-.16.625.222.282.66.157.687-.187 0-.344-.25-.563-.527-.438m1.437 2.532c-1.812.156-3.285.593-4.378 1.28l-.313.22.094.218c1.781 4.469 11.187 5.907 15.972 2.407.188-.125.313-.25.313-.282-2.75-2.437-8-4.156-11.688-3.843m.028.5c-.625.156-.688.468-.153 1l.313.312-.063.344c-.035.25-.035.437 0 .593.063.282.028.313-.097.375-.215.125-.59.032-.903-.218-.222-.157-.25-.157-.16.062.25.438.848.657 1.25.438.16-.063.188-.063.223-.032.402.47 1.715.438 2.25-.093.277-.282.312-.438.027-.219-.902.688-2.25.313-2.25-.625.035-.562.035-.594.375-.719.5-.187 1-.562 1-.781 0-.312-1.187-.594-1.812-.437m2.722 6.062c-.722 1-1.812 3.156-2.312 4.5l-.125.281.375.25c1.562 1 1.027 3.719-.75 3.938l-.223.031.063.344c.812 5.156 7.035 5.219 7.847.094l.028-.188-.25.156c-3.25 1.781-5.438-2.437-2.25-4.406.5-.312 1-.687 1.375-1.031l.222-.188-.125-.75c-.16-.937-.25-1.781-.312-2.562l-.035-.563-.375.032c-.403.03-2.813 0-2.965-.032-.098-.031-.125 0-.188.094"/><path fill="#ccc" d="M18.336-48.281c-.66.125-1.313.593-1.438 1.281-.187.906-.035 1.844.215 2.719.785 2.25 2.41 4.125 3.098 6.437.215.75.215 1.532.125 2.282.152.062.75.28.34.218-2.153-.312-4.5-.437-6.563.469-1.75.75-3.027 2.375-3.777 4.125-.566 1.438-1.254 2.844-1.848 4.281-.375.969-.781 2.032-.468 3.063 0 .343.218.093.375 0 1.878-1.188 4.19-1.438 6.378-1.282 3.438.282 6.813 1.594 9.528 3.75.222.094.035.375.285.125.812-.843 1.562-1.75 1.965-2.843 1.062-2.5.66-5.438-.778-7.688-.91-1.5-2.222-2.687-3.722-3.562-.188-.219.562.281.625-.125 1.437-1.907 2.597-4.219 2.535-6.688-.063-2.093-1.098-4.125-2.785-5.375-1.153-.843-2.625-1.468-4.09-1.187m.152 2.125c-.25.062-.902.437-.312.281.597-.25.437.531.472.906.028 1.157.438 2.25.938 3.25.625 1.344 1.402 2.625 1.777 4.063.035.25.098.531.125.781-.125.313-.277.594-.34.906.563-.687.938-1.531 1.215-2.406.598-1.969.5-4.187-.437-6.062-.5-.97-1.438-1.876-2.59-1.844-.285 0-.598.031-.848.125M7.27-44.781c-1.22.25-2.5.843-3.157 1.968a1.54 1.54 0 0 0 .032 1.594c.656 1.188 1.937 1.75 3.125 2.25 2.093.844 4.343 1.25 6.343 2.282.5.28.91.624 1.285 1.03a33 33 0 0 1 1.688-.312c-.035-1.593-.375-3.218-1.125-4.625-1.16-2.218-3.375-3.937-5.91-4.25a8 8 0 0 0-2.281.063m.468 1.843c-.906.188-1.875.782-2.031 1.75-.094.344.188-.25.281-.312.157-.25.282-.062.407.094.75.781 1.625 1.468 2.656 1.875 1.535.625 3.187 1.062 4.66 1.937.5.282.84.782 1.027 1.344.16.219-.027-.437-.027-.562-.473-2.344-2-4.5-4.125-5.626-.879-.437-1.879-.687-2.848-.5M16.551-28c-1.028.344-1.465 1.688-.965 2.594.375.843 1.527 1.25 2.277.656.938-.687.973-2.281.035-2.969-.375-.312-.91-.437-1.347-.281m-5.938.281c-.875.532-.937 1.844-.34 2.594.375.531 1.278.563 1.688.031.652-.781.527-2.187-.41-2.656a1 1 0 0 0-.938.031m10.938 8.938c-.715.25-1.465.375-2.215.5 0 1.187.152 2.375.34 3.531.187.375.5-.406.66-.562.465-.75.875-1.532 1.152-2.376.125.063-.09.75-.152 1.032-.473 1.718-1.848 3.031-3.285 3.968-.653.438-1.313 1.063-1.278 1.907 0 .156-.062.375.188.406.375.25.875.25 1.277.031-.152.219-.625.375-.965.375-.472-.156-.375.156-.125.375.34.5 1.09.656 1.625.344.375-.031-.937.469-.25.438 1.215.093 2.278-.75 3.028-1.657 1.41-1.656 2.062-3.969 1.5-6.062-.215-.813-.563-1.625-1.09-2.282-.125-.093-.285 0-.41.032m-7.063.843c-1.562 1.282-2.965 2.875-3.59 4.813-.285 1-.347 2.25.375 3.094.215.281.563.437.903.5a2.2 2.2 0 0 1-.528-.656c.375.406.965.656 1.5.437.188-.094.465-.344.528-.5-.528 0-1-.312-1.188-.781.313.281.75.625 1.223.437.402-.281.34-.875.277-1.281-.125-.531-.59-.875-1-1.156-.5-.375-.84-1-.777-1.625.152.312.312.687.562.937.59-1.5 1.34-2.937 2.188-4.344.402-.687-.313.032-.473.125m9.16 3.532c-.187 1.875-1.062 3.687-2.472 4.969-.5.218-.563.718-.625 1.218-.278 1.469-1.313 2.875-2.778 3.344-.875.313-1.847.25-2.687-.062a9.3 9.3 0 0 0 3.375 1.343c.437-.125.402-.812.652-1.156.625-1.281 1.375-2.594 2.563-3.375.5-.344 1.16-.469 1.687-.187.598-.063 1.285-.188 1.813.28.562.345.847 1.032.687 1.688.125.188.25 1 .438.469.66-1.156.66-2.562.222-3.781-.5-1.531-1.562-2.75-2.312-4.156-.16-.22-.41-.907-.535-.844 0 .062-.028.156-.028.25m4.215 2.469c-.437.124-.75.437-.965.812-.187-.156-.66-.781-.875-.562.938 1.437 1.465 3.218 1.063 4.906-.063.468-.41.906-.473 1.343.473.094.91-.125 1.223-.468.277 0 .562.125.84.031.75-.156 1.25-1.031.972-1.75-.312-.594.688-.219.813-.719.34-.469.027-1.219-.563-1.281-.222 0-.535.063-.312-.219.402-.844-.16-2-1.098-2.125a1.4 1.4 0 0 0-.625.031m-19.75 2.53c-.5.032-1 .47-1.031 1-.062.282.156.907.063.938-.25-.343-.25-.812-.313-1.218-.344.562-.156 1.28.063 1.874.312.688.78 1.282 1.25 1.875.218-.28.625-.343.937-.187.906.344 1.656 1.031 2.156 1.875.285.313-.09 1.156.598.813.59-.188.965-.72 1.527-.907.785-.344 1.625-.5 2.438-.687-1.563-.782-2.965-2.094-3.465-3.813-.188-.375-.375.438-.535.625-.34.438-.028.969.035 1.469.062.188.09.625-.063.219-.437-.969-.847-2-1.625-2.782-.347-.374-1.003-.343-1.285.063-.25.313-.25.688-.218 1.063.093-.563.812-.313.843.156.188.625-.687.593-.75.062-.187-.343.125.594-.125.125-.343-.593-.437-1.468.157-1.937.125-.219.968-.25.406-.469-.344-.125-.688-.25-1.063-.156m-.812.97c-.313.374-.094 1.062.312 1.28.594.095.438-.812.188-1.124-.125-.125-.313-.281-.5-.156m14.75.53c-.903.532-1.5 1.47-2.063 2.376-.652 1.218-1.277 2.531-1.402 3.937-.063.469.027 1.157.625 1.188.965.125 1.875-.313 2.75-.719 1.312-.687 2.59-1.594 3.402-2.875.348-.562.535-1.25.25-1.875-.312.438-.84.719-1.375.875.5-.5 1.16-.969 1.188-1.75-.063-.781-.903-1.469-1.688-1.156-.625.218-.965.781-1.25 1.312-.062-.25.223-.906.473-1.25.152-.468-.688-.156-.91-.062m-.278.376c-.472.281-.097 1.093.375.687.5-.218.313-1.187-.285-.75l-.027.032zm2 .343c-.472.22-.847.844-.562 1.313.375.406 1.027.094 1.215-.344.25-.343.187-.968-.34-.968a.53.53 0 0 0-.313 0M24.926-5c-.653.313-.09 1.25.437.688.5-.375.063-1.125-.437-.688m-3.653.25a3.37 3.37 0 0 0-2.035 2.406c-.125.531.125 1.219.75 1.313.813.062 1.563-.532 2.063-1.125.472-.563.847-1.313.66-2.063-.16-.625-.91-.75-1.438-.531"/><path fill="#f8b2b0" d="M19.086-45.125c.027 1.344.215 2 .965 3.563 1.062 2.187 1.437 3.156 1.562 4l.035.28.215-.624c1.285-3.875.098-7.532-2.59-7.969l-.222-.031zM7.707-42.469c-.344.063-1.094.375-1.187.5-.032.063.593.719 1.062 1.094.75.625 1.281.906 2.531 1.375 2.375.906 3.188 1.281 4 1.938l.125.093-.09-.281c-1.5-3.406-3.937-5.187-6.441-4.719M7.301-8.28c-.25.344.25 1.312.531.969.156-.188.063-.688-.187-.938-.125-.156-.25-.156-.344-.031m14.562.875c-.215.218-.215.5 0 .531.223.031.535-.406.41-.625-.062-.125-.25-.094-.41.094m-13 .031c-.093.063-.062.344.032.531.218.282.5.25.5-.062 0-.344-.344-.657-.532-.469M23.773-7c-.097.063-.25.156-.312.25-.563.625.027 1.281.652.719.598-.532.313-1.313-.34-.969M8.582-5.125a.6.6 0 0 0-.219.188l-.093.093.5.5c.843.813 2.156 1.813 2.44 1.813.126 0-.124-.625-.437-1.063-.722-1.031-1.66-1.687-2.191-1.531m16.406.25c-.375.281-.215.75.188.5a.52.52 0 0 0 .285-.406c0-.219-.25-.282-.473-.094m-3.562.219c-1.125.343-2.188 1.75-2.063 2.718.16 1.376 2.223.72 3.035-.968.528-1.188.063-2.063-.972-1.75"/><path d="M18.398-48.687c-1.41.218-1.972.937-1.972 2.53 0 1.5.375 2.563 1.875 5.157 1.347 2.406 1.687 3.313 1.687 4.594 0 .75 0 .75-.5.625-.652-.157-1.027-.188-1.777-.219h-.723l-.027-.5c-.285-4.406-2.66-7.531-6.438-8.5-4.41-1.125-8.566 1.719-6.41 4.406 1 1.219 2.157 1.844 5.469 2.844 2.844.844 3.879 1.313 4.629 1.969l.277.281-.402.156c-2.035.875-3.313 2.282-4.316 4.75-.22.5-.532 1.219-.688 1.625-1 2.219-1.344 3.063-1.469 3.688-.687 3.062 1.782 5.687 6.25 6.718l.535.125-.41.313c-3.812 3.188-5.062 8.188-2.187 8.906.41.094.41.406.097.969-.125.219-.285.5-.347.625-.153.313-.153.313-.278.031-.875-1.843-2.722-2.75-3.91-1.906-.093.063-.25.156-.343.156C5.363-9 6.332-6 8.8-3.75c2.098 1.906 3 2.156 4.126 1.125.41-.375 1.597-.781 3.062-1.031l.5-.063.535.156c.278.094.715.22.965.282.285.062.5.094.5.094s-.062.25-.125.53c-.187.72-.25 1.376-.187 1.72.437 2.562 7.035-.594 7.91-3.75.125-.407.152-.438.34-.375.437.093 1.062 0 1.375-.282.125-.093.16-.125.535-.125 1.062 0 1.777-.718 1.777-1.75v-.375l.25-.125c.875-.468.813-1.812-.09-2.218-.16-.032-.222-.094-.187-.126.465-1.687-1.75-3.062-3.063-1.874l-.16.156-.187-.125c-.25-.156-.59-.281-.813-.281-.215 0-.34-.157-1.09-1.47-.875-1.562-1.125-2.062-1.222-2.593a8.4 8.4 0 0 0-1.028-2.5l-.187-.312.215-.094c6.312-2.563 6.687-12.313.625-15.375l-.25-.125c-.028 0 .125-.188.285-.438 2.902-3.937 3.187-8.093.75-11.093-1.438-1.782-3.75-2.813-5.563-2.5m-.062.406c-1.223.281-1.66 1.062-1.5 2.625.152 1.312.465 2.125 1.777 4.406 1.535 2.688 1.875 3.781 1.75 5.406l-.027.282.277.124c.375.157.348.157-.312.063-5.313-.781-8.403.75-10.125 5-.344.844-.5 1.188-1.125 2.594-1.094 2.406-1.313 3.25-1.031 4.406 1.03 4.156 9.19 6.219 14.656 3.688 6.16-2.813 5.91-11.344-.438-15.063-.34-.219-.375-.25-.062-.156.347.093.347.093.625-.313 2.5-3.343 3.062-6.656 1.625-9.468-1.188-2.407-3.965-4.032-6.09-3.594m.152 2.125c-.215.062-.625.281-.625.343 0 0 .125-.03.313-.062.472-.094.437-.125.472.625.063 1.531.278 2.219 1.34 4.375 1.035 2.031 1.348 2.781 1.438 3.625l.062.344-.187.5c-.25.562-.215.562.097.125 2.84-4.25.813-11.063-2.91-9.875m.598 1.031c.027 1.344.215 2 .965 3.563 1.062 2.187 1.437 3.156 1.562 4l.035.28.215-.624c1.285-3.875.098-7.532-2.59-7.969l-.222-.031zm-11.816.344c-2.188.406-3.782 2-3.282 3.25.594 1.406 2 2.25 5.75 3.406 3.125.969 4.223 1.469 4.973 2.25l.187.219.528-.094c.312-.062.625-.125.722-.156.09 0 .25-.032.313-.063h.125l-.035-.562c-.278-5.344-4.528-9.125-9.281-8.25m.468 1.843c-1.062.22-1.937.938-2.031 1.72l-.031.187.125-.219c.094-.094.187-.25.25-.281l.125-.125.375.406c1.094 1.063 1.812 1.5 3.597 2.125 3.278 1.188 4.09 1.656 4.465 2.563.223.562.25.562.125-.094-.625-3.719-4.125-6.844-7-6.282m-.031.47c-.344.062-1.094.374-1.187.5-.032.062.593.718 1.062 1.093.75.625 1.281.906 2.531 1.375 2.375.906 3.188 1.281 4 1.938l.125.093-.09-.281c-1.5-3.406-3.937-5.187-6.441-4.719M16.551-28c-1.625.594-1.528 3.063.097 3.469 1.09.281 2.09-.782 1.938-2.032-.16-1.03-1.16-1.75-2.035-1.437m-5.938.281c-1.218.688-.812 3 .5 3 .973.032 1.563-1.312 1.063-2.375-.313-.687-1-.937-1.563-.625m6.598.344a.58.58 0 0 0-.285.531c0 .5.562.75.937.407.5-.438-.09-1.282-.652-.938m-5.973.188c-.152.093-.215.343-.125.53.16.376.688.282.75-.155.063-.344-.34-.594-.625-.375m1.785 3c-.812.125-.91.593-.25 1.125l.153.125v.656c0 .625 0 .656-.09.718-.223.157-.66.063-.973-.218-.187-.157-.187-.125-.062.093.25.438.785.594 1.25.375.125-.062.16-.062.222 0 .528.47 1.938.375 2.278-.187.16-.25.125-.281-.028-.125-.5.438-1.687.469-2.097.031-.188-.218-.25-.468-.188-1.062l.035-.219.25-.094c1.5-.468 1.09-1.468-.5-1.218m8.528 5.406c-.438.156-1.25.343-1.75.437l-.465.063v.468c0 .75.312 3.094.402 3.188.16.188 1.313-1.812 1.625-2.781q.284-.75.098.187c-.285 1.719-1.348 3.157-3.223 4.407-1.062.687-1.465 1.25-1.465 1.968v.375l.25.156c.34.157.75.157 1.09.032.25-.125.188-.031-.09.125-.285.156-.66.219-.937.187-.223-.062-.25-.062-.063.219.403.625 1.063.844 1.688.531.215-.094.215-.094.125 0a3 3 0 0 0-.348.219c-.34.156-.277.188.285.188 1.75 0 3.778-2.25 4.313-4.75a6.46 6.46 0 0 0-.938-5c-.222-.344-.222-.344-.597-.22m-7.063.843c-2.75 2.25-4.187 4.97-3.687 6.97.16.75.66 1.312 1.222 1.406l.153.03-.188-.187c-.09-.094-.215-.219-.25-.312l-.09-.156.188.156c.5.469 1.25.469 1.687 0l.153-.188-.215-.062a1.14 1.14 0 0 1-.813-.5c-.222-.281-.222-.344 0-.125.5.5 1.188.469 1.313-.031.215-.75-.035-1.47-.688-1.876-.687-.437-1.062-1.062-1.062-1.656v-.187l.09.187c.187.406.437.781.472.75.028-.031.125-.281.25-.594a33 33 0 0 1 1.653-3.25c.562-.968.562-1-.188-.375m.66.407c-.847 1.343-1.347 2.343-1.812 3.5-.313.781-.313.687.09.937 1.562 1 1.097 3.594-.688 3.938-.312.031-.312 0-.187.594.285 1.406 1.16 2.75 2.035 3.156 2.75 1.312 5.437-.188 5.812-3.219l.028-.25-.375.188c-3.34 1.562-5.188-2.407-2.063-4.438.66-.437 1.16-.844 1.41-1.094l.125-.125-.097-.719c-.188-1.124-.278-1.718-.278-2.468l-.035-.719-.465.031c-.597.063-1.972.063-2.597 0l-.5-.031zm8.5 3.125c-.187 2.031-1.375 4.219-2.875 5.281-.062.063-.097.125-.125.406-.375 3-2.875 4.719-5.535 3.781-.215-.062.438.313.938.563.625.281 1.375.531 2 .688.597.124.562.156.75-.313 1.222-3.094 3.062-4.906 4.41-4.375.25.094.277.094.437.063 1.125-.407 2.465.687 2.215 1.78-.027.157-.027.22.035.313.063.063.125.25.153.375.097.282.125.282.375-.312.75-1.594.437-3.469-.965-5.594a56 56 0 0 1-1.41-2.375l-.34-.625c-.035 0-.035.125-.063.344m4.215 2.469a1.67 1.67 0 0 0-.84.624c-.187.25-.16.25-.312 0a1.03 1.03 0 0 0-.598-.406c-.152-.062-.152-.062.098.344 1.125 1.844 1.312 3.938.527 5.531-.215.438-.215.407.125.407.313 0 .563-.094.813-.344l.187-.157.25.063a1.35 1.35 0 0 0 1.598-1.156c.027-.188 0-.344-.125-.844-.035-.094 0-.094.152-.094.5 0 .848-.375.848-.843s-.348-.813-.875-.813h-.223l.125-.281c.473-1.156-.562-2.375-1.75-2.031m-19.75 2.53c-.875.126-1.218.782-.937 1.907.031.125.031.125-.031.031-.125-.156-.282-.656-.282-.968s-.062-.313-.156 0c-.219.812.188 1.906 1.125 3.093l.313.407.187-.157c.719-.656 3.344 1.563 3.031 2.563-.09.375.785.094 1.348-.438.375-.344 1.34-.687 2.75-.969l.34-.093-.313-.157c-1.527-.843-2.652-2.093-3.125-3.5-.125-.437-.09-.437-.437.25-.34.657-.34.625-.215 1.094.125.407.215 1.063.187 1-.035 0-.125-.218-.222-.437-1.028-2.313-1.781-3.125-2.563-2.688q-.515.282-.468 1.031v.25l.062-.156c.219-.531.969.063.781.594-.156.375-.593.219-.75-.219-.062-.218-.093-.093-.031.157.063.218-.031.093-.187-.22-.407-.937-.125-1.75.687-1.968.125-.031.219-.094.188-.094-.063-.125-.813-.375-1-.344 0 0-.125 0-.282.032m-.812.97c-.25.156-.188.812.094 1.124.375.407.75.063.593-.468-.125-.532-.437-.813-.687-.657m0 .156c-.25.344.25 1.312.531.969.156-.188.063-.688-.187-.938-.125-.156-.25-.156-.344-.031m14.75.375c-1.938.968-4.375 6.687-3.153 7.406.938.531 3.778-.687 5.5-2.344 1.125-1.062 1.528-2.062 1.278-2.906l-.063-.125-.152.188c-.223.25-.535.468-.91.593L24.238-5l.473-.437c.812-.813.937-1.438.34-2.094-.715-.813-1.778-.5-2.403.687-.125.25-.222.344-.187.282.09-.532.215-.907.465-1.188.285-.375-.25-.469-.875-.156m-.278.375c-.347.343-.285.75.09.781.285.031.688-.437.598-.75-.098-.281-.41-.281-.688-.031m.09.125c-.215.218-.215.5 0 .531.223.031.535-.406.41-.625-.062-.125-.25-.094-.41.094m-13 .031c-.093.063-.062.344.032.531.218.282.5.25.5-.062 0-.344-.344-.657-.532-.469m14.91.188c-.785.343-.91 1.5-.16 1.5.91 0 1.348-1.438.473-1.5-.125-.032-.25 0-.313 0m0 .187c-.097.063-.25.156-.312.25-.563.625.027 1.281.652.719.598-.532.313-1.313-.34-.969M8.582-5.125a.6.6 0 0 0-.219.188l-.093.093.5.5c.843.813 2.156 1.813 2.44 1.813.126 0-.124-.625-.437-1.063-.722-1.031-1.66-1.687-2.191-1.531M24.926-5c-.188.125-.34.438-.278.594.125.5.875.218.938-.344.027-.344-.313-.5-.66-.25m.062.125c-.375.281-.215.75.188.5a.52.52 0 0 0 .285-.406c0-.219-.25-.282-.473-.094m-3.715.125c-1.347.469-2.41 2.281-1.937 3.219.652 1.312 3.09-.188 3.402-2.063.16-.937-.527-1.5-1.465-1.156m.153.094c-1.125.343-2.188 1.75-2.063 2.718.16 1.376 2.223.72 3.035-.968.528-1.188.063-2.063-.972-1.75"/></g><path fill="#79ac14" d="M135.148-31.156c.93-1.602 2.196-3.461 3.125-4.64 0-.337-.085-.677-.085-1.099-.336-1.687-1.774-2.953-3.29-2.699-1.519.254-2.531 1.856-2.195 3.63.086.757.676 2.53 1.352 4.3.336.086.758.254 1.093.508"/><path fill="none" stroke="#000" stroke-linecap="round" stroke-linejoin="round" stroke-width="1.688" d="M135.148-31.156c.93-1.602 2.196-3.461 3.125-4.64 0-.337-.085-.677-.085-1.099-.336-1.687-1.774-2.953-3.29-2.699-1.519.254-2.531 1.856-2.195 3.63.086.757.676 2.53 1.352 4.3.336.086.758.254 1.093.508"/><path fill="#79ac14" d="M137.43-28.879c1.601-.926 3.457-2.191 4.64-3.121.336 0 .672.086 1.094.086 1.691.336 2.953 1.77 2.703 3.289-.254 1.52-1.855 2.445-3.629 2.195-.758-.086-2.531-.675-4.304-1.351a3.2 3.2 0 0 0-.504-1.098"/><path fill="none" stroke="#000" stroke-linecap="round" stroke-linejoin="round" stroke-width="1.688" d="M137.43-28.879c1.601-.926 3.457-2.191 4.64-3.121.336 0 .672.086 1.094.086 1.691.336 2.953 1.77 2.703 3.289-.254 1.52-1.855 2.445-3.629 2.195-.758-.086-2.531-.675-4.304-1.351a3.2 3.2 0 0 0-.504-1.098"/><path fill="#a4cd34" d="M136.414-30.144q.637.51 1.016 1.265c2.109-1.098 4.722-3.035 5.484-3.797 1.266-1.265 1.348-3.12.25-4.218-1.012-1.098-2.949-.926-4.219.253-.757.758-2.613 3.375-3.797 5.485q.762.38 1.266 1.011"/><path fill="none" stroke="#000" stroke-linecap="round" stroke-linejoin="round" stroke-width="1.688" d="M136.414-30.144q.637.51 1.016 1.265c2.109-1.098 4.722-3.035 5.484-3.797 1.266-1.265 1.348-3.12.25-4.218-1.012-1.098-2.949-.926-4.219.253-.757.758-2.613 3.375-3.797 5.485q.762.38 1.266 1.011"/><path fill="#f26d21" d="M136.414-30.144c-2.613-2.614-6.918-2.446-9.617.34-4.219 4.214-13.922 16.956-10.801 20.077 3.121 3.125 15.863-6.578 20.082-10.8 2.785-2.782 2.953-7 .336-9.617"/><path fill="#ce5c1c" d="M136.414-30.144c1.098 2.449.508 5.57-1.601 7.68-3.965 3.964-15.442 12.655-19.407 11.222 0 .672.168 1.18.59 1.515 3.121 3.125 15.863-6.578 20.082-10.8 2.785-2.7 2.953-7 .336-9.617"/><g fill="none" stroke="#000" stroke-linecap="round" stroke-linejoin="round" stroke-width="1.688"><path d="M135.57-19.934s-2.531-.843-5.058-3.375m-4.981 2.699s-1.601-1.433-3.289-3.796m9.785 7.426s-2.109-.59-3.457-1.942m.672 3.965s-2.191-.422-4.469-2.7m-5.824-1.773s.93 1.774 2.785 3.293m3.121-11.558s.508 1.515 1.942 2.953m-7.34 12.402s1.18 1.348 2.613 1.938m18.227-23.625-3.883 3.883m-.844-5.399.508 2.867m5.738 3.376-2.871-.505"/><path d="M136.414-30.144c-2.613-2.614-6.918-2.446-9.617.34-4.219 4.214-13.922 16.956-10.801 20.077 3.121 3.125 15.863-6.578 20.082-10.8 2.785-2.782 2.953-7 .336-9.617"/></g><path fill="#cfcfcf" d="M362.379-193.188c-.738.012-1.43-.578-1.527-1.312-.039-.418-.008-.836-.02-1.254-.004-1.324.004-2.648-.004-3.969-.051-1.285-.898-2.484-2.082-2.972-1.156-.504-2.582-.289-3.535.535a3.45 3.45 0 0 0-1.215 2.762c0 1.578.008 3.16 0 4.738-.019.758-.672 1.426-1.43 1.469-.738.07-1.468-.469-1.625-1.196-.07-.363-.027-.738-.043-1.101.004-1.422-.003-2.848.004-4.274.047-1.871.969-3.691 2.434-4.859a6.47 6.47 0 0 1 5.066-1.363c1.953.285 3.719 1.515 4.68 3.226a6.6 6.6 0 0 1 .848 3.461c-.004 1.547 0 3.09-.004 4.637-.024.754-.668 1.426-1.426 1.469z"/><path fill-rule="evenodd" d="M352.449-193.188c.742.012 1.434-.578 1.531-1.312.036-.418.008-.836.016-1.254v-2.43h-3.098c.004 1.176 0 2.352.004 3.524.028.758.672 1.426 1.426 1.469zm8.383-4.996c0 1.176-.004 2.352 0 3.524.023.754.676 1.426 1.43 1.469.742.07 1.472-.469 1.629-1.196.07-.363.027-.738.039-1.101v-2.696z"/><path fill="#ffd681" d="M364.133-196.637c-4.504 0-9.004-.008-13.512 0-.699.024-1.324.625-1.363 1.328-.008 1.274 0 2.543-.004 3.813q-.001 3.644.004 7.289c.019.707.625 1.324 1.332 1.367 1.265.012 2.535 0 3.805 0 3.273 0 6.543.004 9.812 0 .703-.015 1.328-.629 1.363-1.332.012-1.269 0-2.539.004-3.805 0-2.433 0-4.859-.004-7.293-.023-.75-.687-1.382-1.437-1.367"/><g fill-rule="evenodd"><path d="M359.191-190.77c.02-.835-.636-1.617-1.461-1.753-.792-.157-1.652.308-1.957 1.058-.312.719-.078 1.621.543 2.094v3.383h2.196v-3.383c.426-.328.683-.859.679-1.399"/><path d="M356.316-185.598c.747 0 1.493.004 2.239 0 .238-.019.379-.269.347-.496v-3.101c.719-.653.891-1.813.395-2.653-.457-.812-1.465-1.257-2.367-1.031-.961.207-1.7 1.129-1.68 2.109-.004.59.246 1.176.68 1.575 0 1.082 0 2.168.004 3.25a.387.387 0 0 0 .382.347m1.098-6.562c.695-.016 1.328.562 1.383 1.25.058.48-.168.976-.559 1.265-.172.172-.097.434-.109.657v2.617h-1.426c0-1.016.004-2.031 0-3.043-.043-.274-.351-.371-.465-.609-.375-.571-.242-1.399.289-1.821.25-.207.571-.316.887-.316"/><path d="M364.316-197.02c-.003-.945.008-1.89-.003-2.839-.079-1.954-1.047-3.848-2.575-5.067a6.9 6.9 0 0 0-5.289-1.457c-2.023.27-3.883 1.508-4.933 3.258a6.95 6.95 0 0 0-1 3.828v2.277c-.848.071-1.571.801-1.641 1.653-.016.394-.004.785-.004 1.183.012.313.449.465.66.235.172-.176.094-.434.114-.656.011-.383-.067-.797.148-1.137.211-.356.633-.543 1.035-.508 4.453 0 8.906-.004 13.356 0 .578.016 1.054.559 1.004 1.129q0 3.95.003 7.887c.016.312.446.468.657.234.172-.176.097-.438.113-.656 0-2.543.004-5.082 0-7.629-.027-.879-.766-1.653-1.645-1.735m-3.875-.007h-6.054c0-.907-.008-1.809.004-2.715.062-1.176.879-2.258 1.984-2.653a3.05 3.05 0 0 1 3.133.653c.637.597.976 1.484.933 2.355zm.782 0c-.004-.907.004-1.809-.004-2.719-.059-1.379-.946-2.676-2.196-3.25-1.238-.594-2.793-.434-3.882.398a3.83 3.83 0 0 0-1.532 3.18v2.391h-2.32c.004-.934-.012-1.868.004-2.797a6.14 6.14 0 0 1 2.43-4.61 6.1 6.1 0 0 1 5-1.101c1.867.398 3.504 1.726 4.273 3.469.406.871.574 1.843.547 2.796v2.243zm4.351 10.918c-.246-.012-.426.238-.386.472 0 .489.007.977-.004 1.461-.043.563-.586 1.004-1.141.953h-13.398c-.575-.019-1.051-.562-1-1.129q.001-4.182-.004-8.363c-.016-.312-.45-.469-.661-.234-.171.179-.097.437-.109.656 0 2.703-.008 5.406 0 8.105.027.864.738 1.629 1.598 1.723.48.031.969.012 1.453.016h12.258c.855-.004 1.644-.699 1.761-1.551.043-.434.016-.863.02-1.297-.016-.203.035-.422-.047-.613a.38.38 0 0 0-.34-.199"/><path fill="#f2f2f2" d="M244.012-27.375c-.407.219-.375.844.031 1.031.469.188.875-.25.719-.718-.094-.313-.438-.47-.75-.313m-5.907.156c-.25.094-.312.438-.156.625.219.282.656.157.688-.187 0-.344-.25-.563-.532-.438m1.438 2.532c-1.813.156-3.281.593-4.375 1.28l-.313.22.094.218c1.781 4.469 11.188 5.907 15.969 2.407.187-.125.312-.25.312-.282-2.75-2.437-8-4.156-11.687-3.843m.031.5c-.625.156-.687.468-.156 1l.312.312-.062.344c-.031.25-.031.437 0 .593.062.282.031.313-.094.375-.219.125-.594.032-.906-.218-.219-.157-.25-.157-.156.062.25.438.843.657 1.25.438.156-.063.187-.063.218-.032.407.47 1.719.438 2.25-.093.282-.282.313-.438.032-.219-.907.688-2.25.313-2.25-.625.031-.562.031-.594.375-.719.5-.187 1-.562 1-.781 0-.312-1.188-.594-1.813-.437m2.719 6.062c-.719 1-1.813 3.156-2.313 4.5l-.125.281.375.25c1.563 1 1.032 3.719-.75 3.938l-.218.031.062.344c.813 5.156 7.031 5.219 7.844.094l.031-.188-.25.156c-3.25 1.781-5.437-2.437-2.25-4.406.5-.312 1-.687 1.375-1.031l.219-.188-.125-.75a30 30 0 0 1-.313-2.562l-.031-.563-.375.032c-.406.03-2.812 0-2.969-.032-.093-.031-.125 0-.187.094"/><path fill="#ccc" d="M245.105-48.281c-.656.125-1.312.593-1.437 1.281-.188.906-.031 1.844.219 2.719.781 2.25 2.406 4.125 3.093 6.437.219.75.219 1.532.125 2.282.157.062.75.28.344.218-2.156-.312-4.5-.437-6.562.469-1.75.75-3.032 2.375-3.782 4.125-.562 1.438-1.25 2.844-1.843 4.281-.375.969-.782 2.032-.469 3.063 0 .343.219.093.375 0 1.875-1.188 4.187-1.438 6.375-1.282a17.8 17.8 0 0 1 9.531 3.75c.219.094.031.375.281.125.813-.843 1.563-1.75 1.969-2.843 1.063-2.5.656-5.438-.781-7.688-.906-1.5-2.219-2.687-3.719-3.562-.187-.219.563.281.625-.125 1.438-1.907 2.594-4.219 2.531-6.688-.062-2.093-1.093-4.125-2.781-5.375-1.156-.843-2.625-1.468-4.094-1.187m.157 2.125c-.25.062-.907.437-.313.281.594-.25.438.531.469.906.031 1.157.437 2.25.937 3.25.625 1.344 1.407 2.625 1.782 4.063.031.25.093.531.125.781-.125.313-.282.594-.344.906.562-.687.937-1.531 1.219-2.406.593-1.969.5-4.187-.438-6.062-.5-.97-1.437-1.876-2.594-1.844-.281 0-.593.031-.843.125m-11.219 1.375c-1.219.25-2.5.843-3.156 1.968a1.54 1.54 0 0 0 .031 1.594c.656 1.188 1.937 1.75 3.125 2.25 2.094.844 4.344 1.25 6.344 2.282.5.28.906.624 1.281 1.03.562-.124 1.125-.218 1.687-.312-.031-1.593-.375-3.218-1.125-4.625-1.156-2.218-3.375-3.937-5.906-4.25a8 8 0 0 0-2.281.063m.469 1.843c-.907.188-1.875.782-2.032 1.75-.093.344.188-.25.282-.312.156-.25.281-.062.406.094.75.781 1.625 1.468 2.656 1.875 1.531.625 3.188 1.062 4.656 1.937.5.282.844.782 1.032 1.344.156.219-.032-.437-.032-.562-.468-2.344-2-4.5-4.125-5.626-.875-.437-1.875-.687-2.843-.5M243.324-28c-1.031.344-1.469 1.688-.969 2.594.375.843 1.532 1.25 2.282.656.937-.687.968-2.281.031-2.969-.375-.312-.906-.437-1.344-.281m-5.937.281c-.875.532-.938 1.844-.344 2.594.375.531 1.281.563 1.687.031.657-.781.532-2.187-.406-2.656a1 1 0 0 0-.937.031m10.937 8.938c-.719.25-1.469.375-2.219.5 0 1.187.157 2.375.344 3.531.188.375.5-.406.656-.562.469-.75.875-1.532 1.157-2.376.125.063-.094.75-.157 1.032-.468 1.718-1.843 3.031-3.281 3.968-.656.438-1.312 1.063-1.281 1.907 0 .156-.063.375.187.406.375.25.875.25 1.282.031-.157.219-.625.375-.969.375-.469-.156-.375.156-.125.375.344.5 1.094.656 1.625.344.375-.031-.938.469-.25.438 1.219.093 2.281-.75 3.031-1.657 1.406-1.656 2.063-3.969 1.5-6.062-.219-.813-.562-1.625-1.094-2.282-.125-.093-.281 0-.406.032m-7.062.843c-1.563 1.282-2.969 2.875-3.594 4.813-.281 1-.344 2.25.375 3.094.219.281.562.437.906.5a2.1 2.1 0 0 1-.531-.656c.375.406.969.656 1.5.437.187-.094.469-.344.531-.5-.531 0-1-.312-1.187-.781.312.281.75.625 1.218.437.407-.281.344-.875.282-1.281-.125-.531-.594-.875-1-1.156-.5-.375-.844-1-.782-1.625.157.312.313.687.563.937.594-1.5 1.344-2.937 2.187-4.344.407-.687-.312.032-.468.125m9.156 3.532c-.188 1.875-1.063 3.687-2.469 4.969-.5.218-.562.718-.625 1.218-.281 1.469-1.312 2.875-2.781 3.344-.875.313-1.844.25-2.688-.062a9.3 9.3 0 0 0 3.375 1.343c.438-.125.407-.812.657-1.156.625-1.281 1.375-2.594 2.562-3.375.5-.344 1.156-.469 1.688-.187.593-.063 1.281-.188 1.812.28a1.56 1.56 0 0 1 .688 1.688c.125.188.25 1 .437.469.656-1.156.656-2.562.219-3.781-.5-1.531-1.563-2.75-2.313-4.156-.156-.22-.406-.907-.531-.844 0 .062-.031.156-.031.25m4.219 2.469c-.438.124-.75.437-.969.812-.188-.156-.656-.781-.875-.562.937 1.437 1.469 3.218 1.062 4.906-.062.468-.406.906-.468 1.343.468.094.906-.125 1.218-.468.282 0 .563.125.844.031.75-.156 1.25-1.031.969-1.75-.313-.594.687-.219.812-.719.344-.469.032-1.219-.562-1.281-.219 0-.531.063-.313-.219.407-.844-.156-2-1.093-2.125a1.4 1.4 0 0 0-.625.031m-19.75 2.53c-.5.032-1 .47-1.032 1-.062.282.157.907.063.938-.25-.343-.25-.812-.313-1.218-.343.562-.156 1.28.063 1.874.312.688.781 1.282 1.25 1.875.219-.28.625-.343.937-.187.907.344 1.657 1.031 2.157 1.875.281.313-.094 1.156.593.813.594-.188.969-.72 1.532-.907.781-.344 1.625-.5 2.437-.687-1.562-.782-2.969-2.094-3.469-3.813-.187-.375-.375.438-.531.625-.344.438-.031.969.031 1.469.063.188.094.625-.062.219-.438-.969-.844-2-1.625-2.782-.344-.374-1-.343-1.281.063-.25.313-.25.688-.219 1.063.094-.563.812-.313.844.156.187.625-.688.593-.75.062-.188-.343.125.594-.125.125-.344-.593-.438-1.468.156-1.937.125-.219.969-.25.406-.469-.344-.125-.687-.25-1.062-.156m-.813.97c-.312.374-.094 1.062.313 1.28.593.095.437-.812.187-1.124-.125-.125-.312-.281-.5-.156m14.75.53c-.906.532-1.5 1.47-2.062 2.376-.657 1.218-1.282 2.531-1.407 3.937-.062.469.032 1.157.625 1.188.969.125 1.875-.313 2.75-.719 1.313-.687 2.594-1.594 3.407-2.875.343-.562.531-1.25.25-1.875-.313.438-.844.719-1.375.875.5-.5 1.156-.969 1.187-1.75-.062-.781-.906-1.469-1.687-1.156-.625.218-.969.781-1.25 1.312-.063-.25.218-.906.468-1.25.157-.468-.687-.156-.906-.062m-.281.376c-.469.281-.094 1.093.375.687.5-.218.312-1.187-.281-.75l-.032.032zm2 .343c-.469.22-.844.844-.563 1.313.375.406 1.032.094 1.219-.344.25-.343.188-.968-.344-.968a.53.53 0 0 0-.312 0M251.699-5c-.656.313-.094 1.25.438.688.5-.375.062-1.125-.438-.688m-3.656.25a3.36 3.36 0 0 0-2.031 2.406c-.125.531.125 1.219.75 1.313.812.062 1.562-.532 2.062-1.125.469-.563.844-1.313.656-2.063-.156-.625-.906-.75-1.437-.531"/><path fill="#f8b2b0" d="M245.855-45.125c.032 1.344.219 2 .969 3.563 1.063 2.187 1.438 3.156 1.563 4l.031.28.219-.624c1.281-3.875.093-7.532-2.594-7.969l-.219-.031zm-11.375 2.656c-.343.063-1.093.375-1.187.5-.031.063.594.719 1.062 1.094.75.625 1.282.906 2.532 1.375 2.375.906 3.187 1.281 4 1.938l.125.093-.094-.281c-1.5-3.406-3.938-5.187-6.438-4.719m-.406 34.188c-.25.344.25 1.312.531.969.157-.188.063-.688-.187-.938-.125-.156-.25-.156-.344-.031m14.563.875c-.219.218-.219.5 0 .531.218.031.531-.406.406-.625-.063-.125-.25-.094-.406.094m-13 .031c-.094.063-.063.344.031.531.219.282.5.25.5-.062 0-.344-.344-.657-.531-.469M250.543-7c-.094.063-.25.156-.313.25-.562.625.032 1.281.657.719.593-.532.312-1.313-.344-.969m-15.188 1.875a.6.6 0 0 0-.218.188l-.094.093.5.5c.844.813 2.156 1.813 2.437 1.813.125 0-.125-.625-.437-1.063-.719-1.031-1.656-1.687-2.188-1.531m16.407.25c-.375.281-.219.75.187.5.156-.062.281-.281.281-.406 0-.219-.25-.282-.468-.094m-3.563.219c-1.125.343-2.187 1.75-2.062 2.718.156 1.376 2.218.72 3.031-.968.531-1.188.062-2.063-.969-1.75"/><path d="M245.168-48.687c-1.406.218-1.969.937-1.969 2.53 0 1.5.375 2.563 1.875 5.157 1.344 2.406 1.688 3.313 1.688 4.594 0 .75 0 .75-.5.625-.657-.157-1.032-.188-1.782-.219h-.718l-.032-.5c-.281-4.406-2.656-7.531-6.437-8.5-4.406-1.125-8.563 1.719-6.406 4.406 1 1.219 2.156 1.844 5.468 2.844 2.844.844 3.875 1.313 4.625 1.969l.282.281-.407.156c-2.031.875-3.312 2.282-4.312 4.75a51 51 0 0 0-.688 1.625c-1 2.219-1.343 3.063-1.468 3.688-.688 3.062 1.781 5.687 6.25 6.718l.531.125-.406.313c-3.813 3.188-5.063 8.188-2.188 8.906.406.094.406.406.094.969-.125.219-.281.5-.344.625-.156.313-.156.313-.281.031-.875-1.843-2.719-2.75-3.906-1.906-.094.063-.25.156-.344.156-1.656.344-.688 3.344 1.781 5.594 2.094 1.906 3 2.156 4.125 1.125.406-.375 1.594-.781 3.063-1.031l.5-.063.531.156c.281.094.719.22.969.282.281.062.5.094.5.094s-.063.25-.125.53c-.188.72-.25 1.376-.188 1.72.438 2.562 7.031-.594 7.906-3.75.125-.407.157-.438.344-.375.438.093 1.063 0 1.375-.282.125-.093.156-.125.531-.125 1.063 0 1.782-.718 1.782-1.75v-.375l.25-.125c.875-.468.812-1.812-.094-2.218-.156-.032-.219-.094-.188-.126.469-1.687-1.75-3.062-3.062-1.874l-.156.156-.188-.125c-.25-.156-.594-.281-.812-.281s-.344-.157-1.094-1.47c-.875-1.562-1.125-2.062-1.219-2.593a8.3 8.3 0 0 0-1.031-2.5l-.188-.312.219-.094c6.313-2.563 6.688-12.313.625-15.375l-.25-.125c-.031 0 .125-.188.281-.438 2.907-3.937 3.188-8.093.75-11.093-1.437-1.782-3.75-2.813-5.562-2.5m-.063.406c-1.218.281-1.656 1.062-1.5 2.625.157 1.312.469 2.125 1.782 4.406 1.531 2.688 1.875 3.781 1.75 5.406l-.032.282.282.124c.375.157.343.157-.313.063-5.312-.781-8.406.75-10.125 5-.344.844-.5 1.188-1.125 2.594-1.094 2.406-1.312 3.25-1.031 4.406 1.031 4.156 9.187 6.219 14.656 3.688 6.156-2.813 5.906-11.344-.437-15.063-.344-.219-.375-.25-.063-.156.344.093.344.093.625-.313 2.5-3.343 3.063-6.656 1.625-9.468-1.187-2.407-3.969-4.032-6.094-3.594m.157 2.125c-.219.062-.625.281-.625.343 0 0 .125-.03.312-.062.469-.094.438-.125.469.625.062 1.531.281 2.219 1.344 4.375 1.031 2.031 1.343 2.781 1.437 3.625l.063.344-.188.5c-.25.562-.219.562.094.125 2.844-4.25.812-11.063-2.906-9.875m.593 1.031c.032 1.344.219 2 .969 3.563 1.063 2.187 1.438 3.156 1.563 4l.031.28.219-.624c1.281-3.875.093-7.532-2.594-7.969l-.219-.031zm-11.812.344c-2.188.406-3.781 2-3.281 3.25.593 1.406 2 2.25 5.75 3.406 3.125.969 4.218 1.469 4.968 2.25l.188.219.531-.094c.313-.062.625-.125.719-.156.094 0 .25-.032.312-.063h.125l-.031-.562c-.281-5.344-4.531-9.125-9.281-8.25m.469 1.843c-1.063.22-1.938.938-2.032 1.72l-.031.187.125-.219c.094-.094.188-.25.25-.281l.125-.125.375.406c1.094 1.063 1.813 1.5 3.594 2.125 3.281 1.188 4.094 1.656 4.469 2.563.218.562.25.562.125-.094-.625-3.719-4.125-6.844-7-6.282m-.032.47c-.343.062-1.093.374-1.187.5-.031.062.594.718 1.062 1.093.75.625 1.282.906 2.532 1.375 2.375.906 3.187 1.281 4 1.938l.125.093-.094-.281c-1.5-3.406-3.938-5.187-6.438-4.719M243.324-28c-1.625.594-1.531 3.063.094 3.469 1.094.281 2.094-.782 1.937-2.032-.156-1.03-1.156-1.75-2.031-1.437m-5.937.281c-1.219.688-.813 3 .5 3 .968.032 1.562-1.312 1.062-2.375-.312-.687-1-.937-1.562-.625m6.593.344a.58.58 0 0 0-.281.531c0 .5.563.75.938.407.5-.438-.094-1.282-.657-.938m-5.968.188c-.157.093-.219.343-.125.53.156.376.687.282.75-.155.062-.344-.344-.594-.625-.375m1.781 3c-.813.125-.906.593-.25 1.125l.156.125v.656c0 .625 0 .656-.094.718-.218.157-.656.063-.968-.218-.188-.157-.188-.125-.063.093.25.438.781.594 1.25.375.125-.062.156-.062.219 0 .531.47 1.937.375 2.281-.187.156-.25.125-.281-.031-.125-.5.438-1.688.469-2.094.031-.187-.218-.25-.468-.187-1.062l.031-.219.25-.094c1.5-.468 1.094-1.468-.5-1.218m8.531 5.406c-.437.156-1.25.343-1.75.437l-.469.063v.468c0 .75.313 3.094.407 3.188.156.188 1.312-1.812 1.625-2.781q.28-.75.093.187c-.281 1.719-1.343 3.157-3.218 4.407-1.063.687-1.469 1.25-1.469 1.968v.375l.25.156c.344.157.75.157 1.094.032.25-.125.187-.031-.094.125a1.7 1.7 0 0 1-.938.187c-.218-.062-.25-.062-.062.219.406.625 1.062.844 1.687.531.219-.094.219-.094.125 0a3 3 0 0 0-.343.219c-.344.156-.282.188.281.188 1.75 0 3.781-2.25 4.312-4.75a6.46 6.46 0 0 0-.937-5c-.219-.344-.219-.344-.594-.22m-7.062.843c-2.75 2.25-4.188 4.97-3.688 6.97.156.75.656 1.312 1.219 1.406l.156.03-.187-.187c-.094-.094-.219-.219-.25-.312l-.094-.156.187.156c.5.469 1.25.469 1.688 0l.156-.188-.219-.062a1.14 1.14 0 0 1-.812-.5c-.219-.281-.219-.344 0-.125.5.5 1.187.469 1.312-.031.219-.75-.031-1.47-.687-1.876-.688-.437-1.063-1.062-1.063-1.656v-.187l.094.187c.188.406.438.781.469.75s.125-.281.25-.594c.312-.75 1.125-2.374 1.656-3.25.563-.968.563-1-.187-.375m.656.407c-.844 1.343-1.344 2.343-1.813 3.5-.312.781-.312.687.094.937 1.563 1 1.094 3.594-.687 3.938-.313.031-.313 0-.188.594.281 1.406 1.156 2.75 2.031 3.156 2.75 1.312 5.438-.188 5.813-3.219l.031-.25-.375.188c-3.344 1.562-5.187-2.407-2.062-4.438.656-.437 1.156-.844 1.406-1.094l.125-.125-.094-.719c-.187-1.124-.281-1.718-.281-2.468l-.031-.719-.469.031c-.594.063-1.969.063-2.594 0l-.5-.031zm8.5 3.125c-.188 2.031-1.375 4.219-2.875 5.281-.063.063-.094.125-.125.406-.375 3-2.875 4.719-5.531 3.781-.219-.062.437.313.937.563.625.281 1.375.531 2 .688.594.124.563.156.75-.313 1.219-3.094 3.063-4.906 4.406-4.375.25.094.282.094.438.063 1.125-.407 2.469.687 2.219 1.78-.032.157-.032.22.031.313.062.063.125.25.156.375.094.282.125.282.375-.312.75-1.594.438-3.469-.969-5.594a53 53 0 0 1-1.406-2.375l-.344-.625c-.031 0-.031.125-.062.344m4.219 2.469a1.67 1.67 0 0 0-.844.624c-.188.25-.156.25-.313 0a1.02 1.02 0 0 0-.593-.406c-.157-.062-.157-.062.093.344 1.125 1.844 1.313 3.938.532 5.531-.219.438-.219.407.125.407.312 0 .562-.094.812-.344l.188-.157.25.063c.75.156 1.5-.375 1.593-1.156.032-.188 0-.344-.125-.844-.031-.094 0-.094.157-.094.5 0 .843-.375.843-.843s-.343-.813-.875-.813h-.218l.125-.281c.468-1.156-.563-2.375-1.75-2.031m-19.75 2.53c-.875.126-1.219.782-.938 1.907.031.125.031.125-.031.031-.125-.156-.281-.656-.281-.968s-.063-.313-.157 0c-.218.812.188 1.906 1.125 3.093l.313.407.187-.157c.719-.656 3.344 1.563 3.032 2.563-.094.375.781.094 1.343-.438.375-.344 1.344-.687 2.75-.969l.344-.093-.312-.157c-1.532-.843-2.657-2.093-3.125-3.5-.125-.437-.094-.437-.438.25-.344.657-.344.625-.219 1.094.125.407.219 1.063.188 1-.031 0-.125-.218-.219-.437-1.031-2.313-1.781-3.125-2.562-2.688q-.516.282-.469 1.031v.25l.062-.156c.219-.531.969.063.782.594-.157.375-.594.219-.75-.219-.063-.218-.094-.093-.032.157.063.218-.031.093-.187-.22-.406-.937-.125-1.75.687-1.968.125-.031.219-.094.188-.094-.063-.125-.813-.375-1-.344 0 0-.125 0-.281.032m-.813.97c-.25.156-.187.812.094 1.124.375.407.75.063.594-.468-.125-.532-.438-.813-.688-.657m0 .156c-.25.344.25 1.312.531.969.157-.188.063-.688-.187-.938-.125-.156-.25-.156-.344-.031m14.75.375c-1.937.968-4.375 6.687-3.156 7.406.937.531 3.781-.687 5.5-2.344 1.125-1.062 1.531-2.062 1.281-2.906l-.062-.125-.157.188c-.218.25-.531.468-.906.593l-.312.094.468-.437c.813-.813.938-1.438.344-2.094-.719-.813-1.781-.5-2.406.687-.125.25-.219.344-.188.282.094-.532.219-.907.469-1.188.281-.375-.25-.469-.875-.156m-.281.375c-.344.343-.281.75.094.781.281.031.687-.437.593-.75-.093-.281-.406-.281-.687-.031m.094.125c-.219.218-.219.5 0 .531.218.031.531-.406.406-.625-.063-.125-.25-.094-.406.094m-13 .031c-.094.063-.063.344.031.531.219.282.5.25.5-.062 0-.344-.344-.657-.531-.469m14.906.188c-.781.343-.906 1.5-.156 1.5.906 0 1.343-1.438.468-1.5-.125-.032-.25 0-.312 0m0 .187c-.094.063-.25.156-.313.25-.562.625.032 1.281.657.719.593-.532.312-1.313-.344-.969m-15.188 1.875a.6.6 0 0 0-.218.188l-.094.093.5.5c.844.813 2.156 1.813 2.437 1.813.125 0-.125-.625-.437-1.063-.719-1.031-1.656-1.687-2.188-1.531M251.699-5c-.187.125-.344.438-.281.594.125.5.875.218.937-.344.032-.344-.312-.5-.656-.25m.063.125c-.375.281-.219.75.187.5.156-.062.281-.281.281-.406 0-.219-.25-.282-.468-.094m-3.719.125c-1.344.469-2.406 2.281-1.938 3.219.657 1.312 3.094-.188 3.407-2.063.156-.937-.532-1.5-1.469-1.156m.156.094c-1.125.343-2.187 1.75-2.062 2.718.156 1.376 2.218.72 3.031-.968.531-1.188.062-2.063-.969-1.75"/><path fill="#f2f2f2" d="M357.398-27.375c-.406.219-.375.844.032 1.031.468.188.875-.25.718-.718a.522.522 0 0 0-.75-.313m-5.906.156c-.25.094-.312.438-.156.625.219.282.656.157.687-.187 0-.344-.25-.563-.531-.438m1.438 2.532c-1.813.156-3.282.593-4.375 1.28l-.313.22.094.218c1.781 4.469 11.187 5.907 15.969 2.407.187-.125.312-.25.312-.282-2.75-2.437-8-4.156-11.687-3.843m.031.5c-.625.156-.688.468-.156 1l.312.312-.062.344c-.032.25-.032.437 0 .593.062.282.031.313-.094.375-.219.125-.594.032-.906-.218-.219-.157-.25-.157-.157.062.25.438.844.657 1.25.438.157-.063.188-.063.219-.032.406.47 1.719.438 2.25-.093.281-.282.313-.438.031-.219-.906.688-2.25.313-2.25-.625.032-.562.032-.594.375-.719.5-.187 1-.562 1-.781 0-.312-1.187-.594-1.812-.437m2.719 6.062c-.719 1-1.813 3.156-2.313 4.5l-.125.281.375.25c1.563 1 1.031 3.719-.75 3.938l-.219.031.063.344c.812 5.156 7.031 5.219 7.844.094l.031-.188-.25.156c-3.25 1.781-5.438-2.437-2.25-4.406.5-.312 1-.687 1.375-1.031l.219-.188-.125-.75a30 30 0 0 1-.313-2.562l-.031-.563-.375.032c-.406.03-2.813 0-2.969-.032-.094-.031-.125 0-.187.094"/><path fill="#ccc" d="M358.492-48.281c-.656.125-1.312.593-1.437 1.281-.188.906-.032 1.844.218 2.719.782 2.25 2.407 4.125 3.094 6.437.219.75.219 1.532.125 2.282.156.062.75.28.344.218-2.156-.312-4.5-.437-6.563.469-1.75.75-3.031 2.375-3.781 4.125-.562 1.438-1.25 2.844-1.844 4.281-.375.969-.781 2.032-.468 3.063 0 .343.218.093.375 0 1.875-1.188 4.187-1.438 6.375-1.282a17.8 17.8 0 0 1 9.531 3.75c.219.094.031.375.281.125.813-.843 1.563-1.75 1.969-2.843 1.062-2.5.656-5.438-.781-7.688-.907-1.5-2.219-2.687-3.719-3.562-.188-.219.562.281.625-.125 1.437-1.907 2.594-4.219 2.531-6.688-.062-2.093-1.094-4.125-2.781-5.375-1.156-.843-2.625-1.468-4.094-1.187m.156 2.125c-.25.062-.906.437-.312.281.594-.25.437.531.469.906.031 1.157.437 2.25.937 3.25.625 1.344 1.406 2.625 1.781 4.063.032.25.094.531.125.781-.125.313-.281.594-.343.906.562-.687.937-1.531 1.218-2.406.594-1.969.5-4.187-.437-6.062-.5-.97-1.438-1.876-2.594-1.844-.281 0-.594.031-.844.125m-11.218 1.375c-1.219.25-2.5.843-3.157 1.968-.281.47-.281 1.126.032 1.594.656 1.188 1.937 1.75 3.125 2.25 2.093.844 4.343 1.25 6.343 2.282.5.28.907.624 1.282 1.03.562-.124 1.125-.218 1.687-.312-.031-1.593-.375-3.218-1.125-4.625-1.156-2.218-3.375-3.937-5.906-4.25a8 8 0 0 0-2.281.063m.468 1.843c-.906.188-1.875.782-2.031 1.75-.094.344.188-.25.281-.312.157-.25.282-.062.407.094.75.781 1.625 1.468 2.656 1.875 1.531.625 3.187 1.062 4.656 1.937.5.282.844.782 1.031 1.344.157.219-.031-.437-.031-.562-.469-2.344-2-4.5-4.125-5.626-.875-.437-1.875-.687-2.844-.5M356.711-28c-1.031.344-1.469 1.688-.969 2.594.375.843 1.531 1.25 2.281.656.938-.687.969-2.281.032-2.969-.375-.312-.907-.437-1.344-.281m-5.938.281c-.875.532-.937 1.844-.343 2.594.375.531 1.281.563 1.687.031.656-.781.531-2.187-.406-2.656a1 1 0 0 0-.938.031m10.938 8.938c-.719.25-1.469.375-2.219.5 0 1.187.156 2.375.344 3.531.187.375.5-.406.656-.562.469-.75.875-1.532 1.156-2.376.125.063-.093.75-.156 1.032-.469 1.718-1.844 3.031-3.281 3.968-.656.438-1.313 1.063-1.281 1.907 0 .156-.063.375.187.406.375.25.875.25 1.281.031-.156.219-.625.375-.968.375-.469-.156-.375.156-.125.375.343.5 1.093.656 1.625.344.375-.031-.938.469-.25.438 1.218.093 2.281-.75 3.031-1.657 1.406-1.656 2.062-3.969 1.5-6.062-.219-.813-.563-1.625-1.094-2.282-.125-.093-.281 0-.406.032m-7.063.843c-1.562 1.282-2.968 2.875-3.593 4.813-.282 1-.344 2.25.375 3.094.218.281.562.437.906.5a2.1 2.1 0 0 1-.531-.656c.375.406.968.656 1.5.437.187-.094.468-.344.531-.5-.531 0-1-.312-1.188-.781.313.281.75.625 1.219.437.406-.281.344-.875.281-1.281-.125-.531-.593-.875-1-1.156-.5-.375-.843-1-.781-1.625.156.312.313.687.563.937.593-1.5 1.343-2.937 2.187-4.344.406-.687-.312.032-.469.125m9.157 3.532c-.188 1.875-1.063 3.687-2.469 4.969-.5.218-.563.718-.625 1.218-.281 1.469-1.313 2.875-2.781 3.344-.875.313-1.844.25-2.688-.062a9.3 9.3 0 0 0 3.375 1.343c.438-.125.406-.812.656-1.156.625-1.281 1.375-2.594 2.563-3.375.5-.344 1.156-.469 1.687-.187.594-.063 1.282-.188 1.813.28a1.56 1.56 0 0 1 .687 1.688c.125.188.25 1 .438.469.656-1.156.656-2.562.219-3.781-.5-1.531-1.563-2.75-2.313-4.156-.156-.22-.406-.907-.531-.844 0 .062-.031.156-.031.25m4.218 2.469c-.437.124-.75.437-.968.812-.188-.156-.657-.781-.875-.562.937 1.437 1.468 3.218 1.062 4.906-.062.468-.406.906-.469 1.343.469.094.907-.125 1.219-.468.281 0 .563.125.844.031.75-.156 1.25-1.031.969-1.75-.313-.594.687-.219.812-.719.344-.469.031-1.219-.562-1.281-.219 0-.532.063-.313-.219.406-.844-.156-2-1.094-2.125a1.4 1.4 0 0 0-.625.031m-19.75 2.53c-.5.032-1 .47-1.031 1-.062.282.156.907.063.938-.25-.343-.25-.812-.313-1.218-.344.562-.156 1.28.063 1.874.312.688.781 1.282 1.25 1.875.218-.28.625-.343.937-.187.906.344 1.656 1.031 2.156 1.875.282.313-.093 1.156.594.813.594-.188.969-.72 1.531-.907.782-.344 1.625-.5 2.438-.687-1.563-.782-2.969-2.094-3.469-3.813-.187-.375-.375.438-.531.625-.344.438-.031.969.031 1.469.063.188.094.625-.062.219-.438-.969-.844-2-1.625-2.782-.344-.374-1-.343-1.282.063-.25.313-.25.688-.218 1.063.093-.563.812-.313.843.156.188.625-.687.593-.75.062-.187-.343.125.594-.125.125-.343-.593-.437-1.468.157-1.937.125-.219.968-.25.406-.469-.344-.125-.688-.25-1.063-.156m-.812.97c-.313.374-.094 1.062.312 1.28.594.095.438-.812.188-1.124-.125-.125-.313-.281-.5-.156m14.75.53c-.906.532-1.5 1.47-2.063 2.376-.656 1.218-1.281 2.531-1.406 3.937-.062.469.031 1.157.625 1.188.969.125 1.875-.313 2.75-.719 1.313-.687 2.594-1.594 3.406-2.875.344-.562.532-1.25.25-1.875-.312.438-.843.719-1.375.875.5-.5 1.157-.969 1.188-1.75-.063-.781-.906-1.469-1.688-1.156-.625.218-.968.781-1.25 1.312-.062-.25.219-.906.469-1.25.156-.468-.687-.156-.906-.062m-.281.376c-.469.281-.094 1.093.375.687.5-.218.312-1.187-.282-.75l-.031.032zm2 .343c-.469.22-.844.844-.563 1.313.375.406 1.031.094 1.219-.344.25-.343.187-.968-.344-.968a.53.53 0 0 0-.312 0M365.086-5c-.656.313-.094 1.25.437.688.5-.375.063-1.125-.437-.688m-3.656.25a3.36 3.36 0 0 0-2.032 2.406c-.125.531.125 1.219.75 1.313.813.062 1.563-.532 2.063-1.125.469-.563.844-1.313.656-2.063-.156-.625-.906-.75-1.437-.531"/><path fill="#f8b2b0" d="M359.242-45.125c.031 1.344.219 2 .969 3.563 1.062 2.187 1.437 3.156 1.562 4l.032.28.218-.624c1.282-3.875.094-7.532-2.593-7.969l-.219-.031zm-11.375 2.656c-.344.063-1.094.375-1.187.5-.032.063.593.719 1.062 1.094.75.625 1.281.906 2.531 1.375 2.375.906 3.188 1.281 4 1.938l.125.093-.093-.281c-1.5-3.406-3.938-5.187-6.438-4.719m-.406 34.188c-.25.344.25 1.312.531.969.156-.188.063-.688-.187-.938-.125-.156-.25-.156-.344-.031m14.562.875c-.218.218-.218.5 0 .531.219.031.532-.406.407-.625-.063-.125-.25-.094-.407.094m-13 .031c-.093.063-.062.344.032.531.218.282.5.25.5-.062 0-.344-.344-.657-.532-.469M363.93-7c-.094.063-.25.156-.313.25-.562.625.031 1.281.656.719.594-.532.313-1.313-.343-.969m-15.188 1.875a.6.6 0 0 0-.219.188l-.093.093.5.5c.843.813 2.156 1.813 2.437 1.813.125 0-.125-.625-.437-1.063-.719-1.031-1.657-1.687-2.188-1.531m16.406.25c-.375.281-.218.75.188.5.156-.062.281-.281.281-.406 0-.219-.25-.282-.469-.094m-3.562.219c-1.125.343-2.188 1.75-2.063 2.718.157 1.376 2.219.72 3.032-.968.531-1.188.062-2.063-.969-1.75"/><path d="M358.555-48.687c-1.407.218-1.969.937-1.969 2.53 0 1.5.375 2.563 1.875 5.157 1.344 2.406 1.687 3.313 1.687 4.594 0 .75 0 .75-.5.625-.656-.157-1.031-.188-1.781-.219h-.719l-.031-.5c-.281-4.406-2.656-7.531-6.437-8.5-4.407-1.125-8.563 1.719-6.407 4.406 1 1.219 2.157 1.844 5.469 2.844 2.844.844 3.875 1.313 4.625 1.969l.281.281-.406.156c-2.031.875-3.312 2.282-4.312 4.75-.219.5-.532 1.219-.688 1.625-1 2.219-1.344 3.063-1.469 3.688-.687 3.062 1.782 5.687 6.25 6.718l.532.125-.407.313c-3.812 3.188-5.062 8.188-2.187 8.906.406.094.406.406.094.969-.125.219-.282.5-.344.625-.156.313-.156.313-.281.031-.875-1.843-2.719-2.75-3.907-1.906-.093.063-.25.156-.343.156-1.657.344-.688 3.344 1.781 5.594 2.094 1.906 3 2.156 4.125 1.125.406-.375 1.594-.781 3.062-1.031l.5-.063.532.156c.281.094.718.22.968.282.282.062.5.094.5.094s-.062.25-.125.53c-.187.72-.25 1.376-.187 1.72.437 2.562 7.031-.594 7.906-3.75.125-.407.156-.438.344-.375.437.093 1.062 0 1.375-.282.125-.093.156-.125.531-.125 1.063 0 1.781-.718 1.781-1.75v-.375l.25-.125c.875-.468.813-1.812-.093-2.218-.157-.032-.219-.094-.188-.126.469-1.687-1.75-3.062-3.062-1.874l-.157.156-.187-.125c-.25-.156-.594-.281-.813-.281s-.343-.157-1.093-1.47c-.875-1.562-1.125-2.062-1.219-2.593a8.3 8.3 0 0 0-1.031-2.5l-.188-.312.219-.094c6.312-2.563 6.687-12.313.625-15.375l-.25-.125c-.031 0 .125-.188.281-.438 2.906-3.937 3.188-8.093.75-11.093-1.437-1.782-3.75-2.813-5.562-2.5m-.063.406c-1.219.281-1.656 1.062-1.5 2.625.156 1.312.469 2.125 1.781 4.406 1.532 2.688 1.875 3.781 1.75 5.406l-.031.282.281.124c.375.157.344.157-.312.063-5.313-.781-8.406.75-10.125 5-.344.844-.5 1.188-1.125 2.594-1.094 2.406-1.313 3.25-1.031 4.406 1.031 4.156 9.187 6.219 14.656 3.688 6.156-2.813 5.906-11.344-.438-15.063-.343-.219-.375-.25-.062-.156.344.093.344.093.625-.313 2.5-3.343 3.062-6.656 1.625-9.468-1.188-2.407-3.969-4.032-6.094-3.594m.156 2.125c-.218.062-.625.281-.625.343 0 0 .125-.03.313-.062.469-.094.437-.125.469.625.062 1.531.281 2.219 1.343 4.375 1.032 2.031 1.344 2.781 1.438 3.625l.062.344-.187.5c-.25.562-.219.562.094.125 2.843-4.25.812-11.063-2.907-9.875m.594 1.031c.031 1.344.219 2 .969 3.563 1.062 2.187 1.437 3.156 1.562 4l.032.28.218-.624c1.282-3.875.094-7.532-2.593-7.969l-.219-.031zm-11.812.344c-2.188.406-3.782 2-3.282 3.25.594 1.406 2 2.25 5.75 3.406 3.125.969 4.219 1.469 4.969 2.25l.188.219.531-.094c.312-.062.625-.125.719-.156.093 0 .25-.032.312-.063h.125l-.031-.562c-.281-5.344-4.531-9.125-9.281-8.25m.468 1.843c-1.062.22-1.937.938-2.031 1.72l-.031.187.125-.219c.094-.094.187-.25.25-.281l.125-.125.375.406c1.094 1.063 1.812 1.5 3.594 2.125 3.281 1.188 4.093 1.656 4.468 2.563.219.562.25.562.125-.094-.625-3.719-4.125-6.844-7-6.282m-.031.47c-.344.062-1.094.374-1.187.5-.032.062.593.718 1.062 1.093.75.625 1.281.906 2.531 1.375 2.375.906 3.188 1.281 4 1.938l.125.093-.093-.281c-1.5-3.406-3.938-5.187-6.438-4.719M356.711-28c-1.625.594-1.531 3.063.094 3.469 1.093.281 2.093-.782 1.937-2.032-.156-1.03-1.156-1.75-2.031-1.437m-5.938.281c-1.218.688-.812 3 .5 3 .969.032 1.563-1.312 1.063-2.375-.313-.687-1-.937-1.563-.625m6.594.344a.58.58 0 0 0-.281.531c0 .5.562.75.937.407.5-.438-.093-1.282-.656-.938m-5.969.188c-.156.093-.218.343-.125.53.157.376.688.282.75-.155.063-.344-.343-.594-.625-.375m1.782 3c-.813.125-.907.593-.25 1.125l.156.125v.656c0 .625 0 .656-.094.718-.219.157-.656.063-.969-.218-.187-.157-.187-.125-.062.093.25.438.781.594 1.25.375.125-.062.156-.062.219 0 .531.47 1.937.375 2.281-.187.156-.25.125-.281-.031-.125-.5.438-1.688.469-2.094.031-.188-.218-.25-.468-.188-1.062l.032-.219.25-.094c1.5-.468 1.093-1.468-.5-1.218m8.531 5.406c-.438.156-1.25.343-1.75.437l-.469.063v.468c0 .75.313 3.094.406 3.188.157.188 1.313-1.812 1.625-2.781q.282-.75.094.187c-.281 1.719-1.344 3.157-3.219 4.407-1.062.687-1.468 1.25-1.468 1.968v.375l.25.156c.343.157.75.157 1.093.032.25-.125.188-.031-.093.125a1.7 1.7 0 0 1-.938.187c-.219-.062-.25-.062-.062.219.406.625 1.062.844 1.687.531.219-.094.219-.094.125 0a3 3 0 0 0-.344.219c-.343.156-.281.188.282.188 1.75 0 3.781-2.25 4.312-4.75a6.46 6.46 0 0 0-.937-5c-.219-.344-.219-.344-.594-.22m-7.063.843c-2.75 2.25-4.187 4.97-3.687 6.97.156.75.656 1.312 1.219 1.406l.156.03-.188-.187c-.093-.094-.218-.219-.25-.312l-.093-.156.187.156c.5.469 1.25.469 1.688 0l.156-.188-.219-.062a1.14 1.14 0 0 1-.812-.5c-.219-.281-.219-.344 0-.125.5.5 1.187.469 1.312-.031.219-.75-.031-1.47-.687-1.876-.688-.437-1.063-1.062-1.063-1.656v-.187l.094.187c.187.406.437.781.469.75s.125-.281.25-.594c.312-.75 1.125-2.374 1.656-3.25.562-.968.562-1-.188-.375m.657.407c-.844 1.343-1.344 2.343-1.813 3.5-.312.781-.312.687.094.937 1.562 1 1.094 3.594-.688 3.938-.312.031-.312 0-.187.594.281 1.406 1.156 2.75 2.031 3.156 2.75 1.312 5.438-.188 5.813-3.219l.031-.25-.375.188c-3.344 1.562-5.188-2.407-2.063-4.438.657-.437 1.157-.844 1.407-1.094l.125-.125-.094-.719c-.188-1.124-.281-1.718-.281-2.468l-.032-.719-.468.031c-.594.063-1.969.063-2.594 0l-.5-.031zm8.5 3.125c-.188 2.031-1.375 4.219-2.875 5.281-.063.063-.094.125-.125.406-.375 3-2.875 4.719-5.532 3.781-.218-.062.438.313.938.563.625.281 1.375.531 2 .688.594.124.562.156.75-.313 1.219-3.094 3.062-4.906 4.406-4.375.25.094.281.094.438.063 1.125-.407 2.468.687 2.218 1.78-.031.157-.031.22.032.313.062.063.125.25.156.375.094.282.125.282.375-.312.75-1.594.437-3.469-.969-5.594a53 53 0 0 1-1.406-2.375c-.188-.344-.344-.625-.344-.625-.031 0-.031.125-.062.344m4.218 2.469a1.67 1.67 0 0 0-.843.624c-.188.25-.157.25-.313 0a1.02 1.02 0 0 0-.594-.406c-.156-.062-.156-.062.094.344 1.125 1.844 1.313 3.938.531 5.531-.218.438-.218.407.125.407.313 0 .563-.094.813-.344l.187-.157.25.063c.75.156 1.5-.375 1.594-1.156.031-.188 0-.344-.125-.844-.031-.094 0-.094.156-.094.5 0 .844-.375.844-.843s-.344-.813-.875-.813h-.219l.125-.281c.469-1.156-.562-2.375-1.75-2.031m-19.75 2.53c-.875.126-1.218.782-.937 1.907.031.125.031.125-.031.031-.125-.156-.282-.656-.282-.968s-.062-.313-.156 0c-.219.812.188 1.906 1.125 3.093l.313.407.187-.157c.719-.656 3.344 1.563 3.031 2.563-.093.375.782.094 1.344-.438.375-.344 1.344-.687 2.75-.969l.344-.093-.313-.157c-1.531-.843-2.656-2.093-3.125-3.5-.125-.437-.093-.437-.437.25-.344.657-.344.625-.219 1.094.125.407.219 1.063.188 1-.032 0-.125-.218-.219-.437-1.031-2.313-1.781-3.125-2.563-2.688q-.515.282-.468 1.031v.25l.062-.156c.219-.531.969.063.781.594-.156.375-.593.219-.75-.219-.062-.218-.093-.093-.031.157.063.218-.031.093-.187-.22-.407-.937-.125-1.75.687-1.968.125-.031.219-.094.188-.094-.063-.125-.813-.375-1-.344 0 0-.125 0-.282.032m-.812.97c-.25.156-.188.812.094 1.124.375.407.75.063.593-.468-.125-.532-.437-.813-.687-.657m0 .156c-.25.344.25 1.312.531.969.156-.188.063-.688-.187-.938-.125-.156-.25-.156-.344-.031m14.75.375c-1.938.968-4.375 6.687-3.156 7.406.937.531 3.781-.687 5.5-2.344 1.125-1.062 1.531-2.062 1.281-2.906l-.063-.125-.156.188a2.1 2.1 0 0 1-.906.593l-.313.094.469-.437c.813-.813.938-1.438.344-2.094-.719-.813-1.781-.5-2.406.687-.125.25-.219.344-.188.282.094-.532.219-.907.469-1.188.281-.375-.25-.469-.875-.156m-.281.375c-.344.343-.282.75.093.781.282.031.688-.437.594-.75-.094-.281-.406-.281-.687-.031m.093.125c-.218.218-.218.5 0 .531.219.031.532-.406.407-.625-.063-.125-.25-.094-.407.094m-13 .031c-.093.063-.062.344.032.531.218.282.5.25.5-.062 0-.344-.344-.657-.532-.469m14.907.188c-.782.343-.907 1.5-.157 1.5.907 0 1.344-1.438.469-1.5-.125-.032-.25 0-.312 0m0 .187c-.094.063-.25.156-.313.25-.562.625.031 1.281.656.719.594-.532.313-1.313-.343-.969m-15.188 1.875a.6.6 0 0 0-.219.188l-.093.093.5.5c.843.813 2.156 1.813 2.437 1.813.125 0-.125-.625-.437-1.063-.719-1.031-1.657-1.687-2.188-1.531M365.086-5c-.188.125-.344.438-.281.594.125.5.875.218.937-.344.031-.344-.312-.5-.656-.25m.062.125c-.375.281-.218.75.188.5.156-.062.281-.281.281-.406 0-.219-.25-.282-.469-.094m-3.718.125c-1.344.469-2.407 2.281-1.938 3.219.656 1.312 3.094-.188 3.406-2.063.157-.937-.531-1.5-1.468-1.156m.156.094c-1.125.343-2.188 1.75-2.063 2.718.157 1.376 2.219.72 3.032-.968.531-1.188.062-2.063-.969-1.75"/></g><path fill="#79ac14" d="M532-116.195c.93-1.606 2.195-3.461 3.121-4.641 0-.34-.082-.676-.082-1.098-.34-1.687-1.773-2.953-3.293-2.699-1.516.254-2.531 1.856-2.191 3.629.082.758.675 2.531 1.347 4.301.34.086.762.254 1.098.508"/><path fill="none" stroke="#000" stroke-linecap="round" stroke-linejoin="round" stroke-width="1.688" d="M532-116.195c.93-1.606 2.195-3.461 3.121-4.641 0-.34-.082-.676-.082-1.098-.34-1.687-1.773-2.953-3.293-2.699-1.516.254-2.531 1.856-2.191 3.629.082.758.675 2.531 1.347 4.301.34.086.762.254 1.098.508"/><path fill="#79ac14" d="M534.277-113.918c1.606-.93 3.461-2.195 4.645-3.121.336 0 .672.086 1.094.086 1.687.336 2.953 1.769 2.699 3.289-.25 1.519-1.856 2.445-3.625 2.191-.762-.082-2.531-.672-4.305-1.347a3.3 3.3 0 0 0-.508-1.098"/><path fill="none" stroke="#000" stroke-linecap="round" stroke-linejoin="round" stroke-width="1.688" d="M534.277-113.918c1.606-.93 3.461-2.195 4.645-3.121.336 0 .672.086 1.094.086 1.687.336 2.953 1.769 2.699 3.289-.25 1.519-1.856 2.445-3.625 2.191-.762-.082-2.531-.672-4.305-1.347a3.3 3.3 0 0 0-.508-1.098"/><path fill="#a4cd34" d="M533.266-115.184q.634.504 1.011 1.266c2.11-1.098 4.727-3.035 5.485-3.797 1.265-1.265 1.351-3.121.254-4.219-1.012-1.097-2.953-.929-4.219.254-.758.758-2.613 3.375-3.797 5.485q.762.38 1.266 1.011"/><path fill="none" stroke="#000" stroke-linecap="round" stroke-linejoin="round" stroke-width="1.688" d="M533.266-115.184q.634.504 1.011 1.266c2.11-1.098 4.727-3.035 5.485-3.797 1.265-1.265 1.351-3.121.254-4.219-1.012-1.097-2.953-.929-4.219.254-.758.758-2.613 3.375-3.797 5.485q.762.38 1.266 1.011"/><path fill="#f26d21" d="M533.266-115.184c-2.614-2.617-6.918-2.445-9.618.336-4.218 4.219-13.921 16.961-10.8 20.082s15.863-6.582 20.082-10.8c2.785-2.782 2.953-7 .336-9.618"/><path fill="#ce5c1c" d="M533.266-115.184c1.097 2.446.507 5.571-1.602 7.68-3.965 3.965-15.441 12.656-19.406 11.219 0 .676.168 1.183.59 1.52 3.121 3.12 15.863-6.583 20.082-10.801 2.785-2.7 2.953-7 .336-9.618"/><g fill="none" stroke="#000" stroke-linecap="round" stroke-linejoin="round" stroke-width="1.688"><path d="M532.422-104.973s-2.531-.843-5.063-3.375m-4.976 2.7s-1.606-1.434-3.293-3.797m9.789 7.425s-2.109-.593-3.457-1.941m.672 3.965s-2.192-.422-4.473-2.699m-5.82-1.774s.929 1.774 2.785 3.293m3.121-11.562s.508 1.519 1.941 2.957m-7.339 12.402s1.179 1.348 2.613 1.938m18.226-23.625-3.882 3.882m-.844-5.398.508 2.867m5.738 3.375-2.871-.508"/><path d="M533.266-115.184c-2.614-2.617-6.918-2.445-9.618.336-4.218 4.219-13.921 16.961-10.8 20.082s15.863-6.582 20.082-10.8c2.785-2.782 2.953-7 .336-9.618"/></g><path fill="#79ac14" d="M475.309-31.156c.925-1.602 2.195-3.461 3.121-4.64 0-.337-.086-.677-.086-1.099-.336-1.687-1.77-2.953-3.289-2.699s-2.532 1.856-2.196 3.63c.086.757.676 2.53 1.352 4.3.336.086.758.254 1.098.508"/><path fill="none" stroke="#000" stroke-linecap="round" stroke-linejoin="round" stroke-width="1.688" d="M475.309-31.156c.925-1.602 2.195-3.461 3.121-4.64 0-.337-.086-.677-.086-1.099-.336-1.687-1.77-2.953-3.289-2.699s-2.532 1.856-2.196 3.63c.086.757.676 2.53 1.352 4.3.336.086.758.254 1.098.508"/><path fill="#79ac14" d="M477.586-28.879c1.602-.926 3.461-2.191 4.641-3.121.336 0 .675.086 1.097.086 1.688.336 2.953 1.77 2.699 3.289-.253 1.52-1.855 2.445-3.628 2.195-.758-.086-2.532-.675-4.301-1.351a3.3 3.3 0 0 0-.508-1.098"/><path fill="none" stroke="#000" stroke-linecap="round" stroke-linejoin="round" stroke-width="1.688" d="M477.586-28.879c1.602-.926 3.461-2.191 4.641-3.121.336 0 .675.086 1.097.086 1.688.336 2.953 1.77 2.699 3.289-.253 1.52-1.855 2.445-3.628 2.195-.758-.086-2.532-.675-4.301-1.351a3.3 3.3 0 0 0-.508-1.098"/><path fill="#a4cd34" d="M476.574-30.144q.632.51 1.012 1.265c2.109-1.098 4.727-3.035 5.484-3.797 1.266-1.265 1.352-3.12.254-4.218-1.011-1.098-2.953-.926-4.219.253-.761.758-2.617 3.375-3.796 5.485q.756.38 1.265 1.011"/><path fill="none" stroke="#000" stroke-linecap="round" stroke-linejoin="round" stroke-width="1.688" d="M476.574-30.144q.632.51 1.012 1.265c2.109-1.098 4.727-3.035 5.484-3.797 1.266-1.265 1.352-3.12.254-4.218-1.011-1.098-2.953-.926-4.219.253-.761.758-2.617 3.375-3.796 5.485q.756.38 1.265 1.011"/><path fill="#f26d21" d="M476.574-30.144c-2.617-2.614-6.918-2.446-9.621.34-4.219 4.214-13.922 16.956-10.797 20.077 3.121 3.125 15.86-6.578 20.078-10.8 2.786-2.782 2.954-7 .34-9.617"/><path fill="#ce5c1c" d="M476.574-30.144c1.098 2.449.504 5.57-1.605 7.68-3.965 3.964-15.438 12.655-19.406 11.222 0 .672.171 1.18.593 1.515 3.121 3.125 15.86-6.578 20.078-10.8 2.786-2.7 2.954-7 .34-9.617"/><g fill="none" stroke="#000" stroke-linecap="round" stroke-linejoin="round" stroke-width="1.688"><path d="M475.73-19.934s-2.531-.843-5.062-3.375m-4.98 2.699s-1.602-1.433-3.29-3.796m9.79 7.426s-2.11-.59-3.461-1.942m.675 3.965s-2.195-.422-4.472-2.7m-5.821-1.773s.926 1.774 2.782 3.293m3.125-11.558s.504 1.515 1.937 2.953m-7.34 12.402s1.184 1.348 2.617 1.938m18.223-23.625-3.879 3.883m-.844-5.399.504 2.867m5.739 3.376-2.868-.505"/><path d="M476.574-30.144c-2.617-2.614-6.918-2.446-9.621.34-4.219 4.214-13.922 16.956-10.797 20.077 3.121 3.125 15.86-6.578 20.078-10.8 2.786-2.782 2.954-7 .34-9.617"/></g><path fill="#79ac14" d="M588.695-31.156c.926-1.602 2.192-3.461 3.121-4.64 0-.337-.086-.677-.086-1.099-.335-1.687-1.769-2.953-3.289-2.699-1.519.254-2.531 1.856-2.195 3.63.086.757.676 2.53 1.352 4.3.336.086.757.254 1.097.508"/><path fill="none" stroke="#000" stroke-linecap="round" stroke-linejoin="round" stroke-width="1.688" d="M588.695-31.156c.926-1.602 2.192-3.461 3.121-4.64 0-.337-.086-.677-.086-1.099-.335-1.687-1.769-2.953-3.289-2.699-1.519.254-2.531 1.856-2.195 3.63.086.757.676 2.53 1.352 4.3.336.086.757.254 1.097.508"/><path fill="#79ac14" d="M590.973-28.879c1.601-.926 3.457-2.191 4.64-3.121.336 0 .676.086 1.098.086 1.687.336 2.953 1.77 2.699 3.289s-1.855 2.445-3.629 2.195c-.758-.086-2.531-.675-4.304-1.351a3.2 3.2 0 0 0-.504-1.098"/><path fill="none" stroke="#000" stroke-linecap="round" stroke-linejoin="round" stroke-width="1.688" d="M590.973-28.879c1.601-.926 3.457-2.191 4.64-3.121.336 0 .676.086 1.098.086 1.687.336 2.953 1.77 2.699 3.289s-1.855 2.445-3.629 2.195c-.758-.086-2.531-.675-4.304-1.351a3.2 3.2 0 0 0-.504-1.098"/><path fill="#a4cd34" d="M589.961-30.144q.632.51 1.012 1.265c2.109-1.098 4.722-3.035 5.484-3.797 1.266-1.265 1.348-3.12.254-4.218-1.016-1.098-2.953-.926-4.219.253-.762.758-2.617 3.375-3.797 5.485q.756.38 1.266 1.011"/><path fill="none" stroke="#000" stroke-linecap="round" stroke-linejoin="round" stroke-width="1.688" d="M589.961-30.144q.632.51 1.012 1.265c2.109-1.098 4.722-3.035 5.484-3.797 1.266-1.265 1.348-3.12.254-4.218-1.016-1.098-2.953-.926-4.219.253-.762.758-2.617 3.375-3.797 5.485q.756.38 1.266 1.011"/><path fill="#f26d21" d="M589.961-30.144c-2.617-2.614-6.918-2.446-9.621.34-4.219 4.214-13.922 16.956-10.797 20.077 3.121 3.125 15.859-6.578 20.078-10.8 2.785-2.782 2.953-7 .34-9.617"/><path fill="#ce5c1c" d="M589.961-30.144c1.094 2.449.504 5.57-1.606 7.68-3.964 3.964-15.437 12.655-19.406 11.222 0 .672.168 1.18.594 1.515 3.121 3.125 15.859-6.578 20.078-10.8 2.785-2.7 2.953-7 .34-9.617"/><g fill="none" stroke="#000" stroke-linecap="round" stroke-linejoin="round" stroke-width="1.688"><path d="M589.117-19.934s-2.531-.843-5.062-3.375m-4.981 2.699s-1.601-1.433-3.289-3.796m9.785 7.426s-2.105-.59-3.457-1.942m.676 3.965s-2.195-.422-4.473-2.7m-5.824-1.773s.93 1.774 2.785 3.293m3.121-11.558s.508 1.515 1.942 2.953M573-12.34s1.18 1.348 2.617 1.938m18.223-23.625-3.879 3.883m-.844-5.399.504 2.867m5.738 3.376-2.867-.505"/><path d="M589.961-30.144c-2.617-2.614-6.918-2.446-9.621.34-4.219 4.214-13.922 16.956-10.797 20.077 3.121 3.125 15.859-6.578 20.078-10.8 2.785-2.782 2.953-7 .34-9.617"/></g><path fill="#79ac14" d="M702.078-31.156c.93-1.602 2.195-3.461 3.125-4.64 0-.337-.086-.677-.086-1.099-.336-1.687-1.773-2.953-3.289-2.699-1.519.254-2.531 1.856-2.195 3.63.086.757.676 2.53 1.351 4.3.336.086.758.254 1.094.508"/><path fill="none" stroke="#000" stroke-linecap="round" stroke-linejoin="round" stroke-width="1.688" d="M702.078-31.156c.93-1.602 2.195-3.461 3.125-4.64 0-.337-.086-.677-.086-1.099-.336-1.687-1.773-2.953-3.289-2.699-1.519.254-2.531 1.856-2.195 3.63.086.757.676 2.53 1.351 4.3.336.086.758.254 1.094.508"/><path fill="#79ac14" d="M704.359-28.879c1.602-.926 3.457-2.191 4.637-3.121.34 0 .676.086 1.098.086 1.687.336 2.953 1.77 2.703 3.289-.254 1.52-1.859 2.445-3.629 2.195-.762-.086-2.531-.675-4.305-1.351a3.2 3.2 0 0 0-.504-1.098"/><path fill="none" stroke="#000" stroke-linecap="round" stroke-linejoin="round" stroke-width="1.688" d="M704.359-28.879c1.602-.926 3.457-2.191 4.637-3.121.34 0 .676.086 1.098.086 1.687.336 2.953 1.77 2.703 3.289-.254 1.52-1.859 2.445-3.629 2.195-.762-.086-2.531-.675-4.305-1.351a3.2 3.2 0 0 0-.504-1.098"/><path fill="#a4cd34" d="M703.344-30.144q.634.51 1.015 1.265c2.11-1.098 4.723-3.035 5.485-3.797 1.265-1.265 1.347-3.12.25-4.218-1.012-1.098-2.953-.926-4.215.253-.762.758-2.617 3.375-3.801 5.485q.762.38 1.266 1.011"/><path fill="none" stroke="#000" stroke-linecap="round" stroke-linejoin="round" stroke-width="1.688" d="M703.344-30.144q.634.51 1.015 1.265c2.11-1.098 4.723-3.035 5.485-3.797 1.265-1.265 1.347-3.12.25-4.218-1.012-1.098-2.953-.926-4.215.253-.762.758-2.617 3.375-3.801 5.485q.762.38 1.266 1.011"/><path fill="#f26d21" d="M703.344-30.144c-2.614-2.614-6.918-2.446-9.617.34-4.219 4.214-13.922 16.956-10.801 20.077 3.121 3.125 15.863-6.578 20.082-10.8 2.785-2.782 2.953-7 .336-9.617"/><path fill="#ce5c1c" d="M703.344-30.144c1.097 2.449.508 5.57-1.602 7.68-3.965 3.964-15.441 12.655-19.406 11.222 0 .672.168 1.18.59 1.515 3.121 3.125 15.863-6.578 20.082-10.8 2.785-2.7 2.953-7 .336-9.617"/><g fill="none" stroke="#000" stroke-linecap="round" stroke-linejoin="round" stroke-width="1.688"><path d="M702.504-19.934s-2.535-.843-5.066-3.375m-4.977 2.699s-1.602-1.433-3.289-3.796m9.785 7.426s-2.109-.59-3.461-1.942m.676 3.965s-2.192-.422-4.469-2.7m-5.824-1.773s.93 1.774 2.785 3.293m3.121-11.558s.508 1.515 1.942 2.953m-7.34 12.402s1.179 1.348 2.617 1.938m18.223-23.625-3.883 3.883m-.84-5.399.504 2.867m5.738 3.376-2.867-.505"/><path d="M703.344-30.144c-2.614-2.614-6.918-2.446-9.617.34-4.219 4.214-13.922 16.956-10.801 20.077 3.121 3.125 15.863-6.578 20.082-10.8 2.785-2.782 2.953-7 .336-9.617"/></g></g></svg>