<svg xmlns="http://www.w3.org/2000/svg" width="469pt" height="89pt" viewBox="0 -89 469 89"><g id="page1"><path fill="#ffd9b2" d="M10.004-8.945h5.953c1.633 0 3.2.648 4.355 1.804l4.895 4.899a2.553 2.553 0 0 0 3.61 0l4.894-4.899a6.16 6.16 0 0 1 4.355-1.804h425.911c1.41 0 2.55-1.14 2.55-2.551v-73.156c0-1.41-1.14-2.551-2.55-2.551H38.067c-1.633 0-3.2.648-4.356 1.805l-4.895 4.894a2.553 2.553 0 0 1-3.609 0l-4.895-4.894a6.16 6.16 0 0 0-4.355-1.805H4.051a2.55 2.55 0 0 0-2.551 2.55v73.157c0 1.41 1.14 2.55 2.55 2.55z"/><path fill="none" stroke="#b25900" stroke-linecap="round" stroke-linejoin="round" stroke-width="3" d="M10.004-8.945h5.953c1.633 0 3.2.648 4.355 1.804l4.895 4.899a2.553 2.553 0 0 0 3.61 0l4.894-4.899a6.16 6.16 0 0 1 4.355-1.804h425.911c1.41 0 2.55-1.14 2.55-2.551v-73.156c0-1.41-1.14-2.551-2.55-2.551H38.067c-1.633 0-3.2.648-4.356 1.805l-4.895 4.894a2.553 2.553 0 0 1-3.609 0l-4.895-4.894a6.16 6.16 0 0 0-4.355-1.805H4.051a2.55 2.55 0 0 0-2.551 2.55v73.157c0 1.41 1.14 2.55 2.55 2.55z"/><path fill="#d9b2b2" d="M222.32-48.074c0 13.578 7.789 26.375 20.27 26.375s20.273-12.797 20.273-26.375S255.07-74.45 242.59-74.45s-20.27 12.797-20.27 26.375"/><path fill="none" stroke="#590000" stroke-linecap="round" stroke-linejoin="round" stroke-width="3" d="M222.32-48.074c0 13.578 7.789 26.375 20.27 26.375s20.273-12.797 20.273-26.375S255.07-74.45 242.59-74.45s-20.27 12.797-20.27 26.375"/><path fill="#d9b2b2" d="M416.566-48.074c0 13.644 8.11 26.375 20.731 26.375s20.726-12.73 20.726-26.375-8.105-26.375-20.726-26.375-20.731 12.73-20.731 26.375"/><path fill="none" stroke="#590000" stroke-linecap="round" stroke-linejoin="round" stroke-width="3" d="M416.566-48.074c0 13.644 8.11 26.375 20.731 26.375s20.726-12.73 20.726-26.375-8.105-26.375-20.726-26.375-20.731 12.73-20.731 26.375"/><path d="M20.836-52.207c0-.434 0-.55-.238-.55-.192 0-.645.523-.813.741-.738-.597-1.48-.742-2.246-.742-2.89 0-3.75 1.578-3.75 2.89 0 .266 0 1.102.906 1.938.766.668 1.578.836 2.68 1.051 1.313.262 1.625.332 2.219.813.43.359.742.882.742 1.55 0 1.032-.598 2.176-2.7 2.176-1.577 0-2.722-.906-3.25-3.297-.097-.43-.097-.453-.12-.476-.047-.098-.141-.098-.215-.098-.262 0-.262.121-.262.55v3.25c0 .43 0 .552.238.552.121 0 .145-.024.551-.528.117-.168.117-.215.477-.597.906 1.125 2.199 1.125 2.605 1.125 2.508 0 3.75-1.387 3.75-3.274 0-1.293-.785-2.058-1.004-2.273-.86-.739-1.504-.883-3.082-1.172-.715-.14-2.46-.477-2.46-1.91 0-.739.503-1.84 2.652-1.84 2.605 0 2.75 2.223 2.797 2.965.023.191.19.191.261.191.262 0 .262-.121.262-.55zm10.016 1.266c-.29 0-1.172 0-1.172.98 0 .57.406.977.98.977.55 0 1.004-.332 1.004-1.024 0-1.601-1.672-2.75-3.61-2.75-2.796 0-5.019 2.485-5.019 5.496 0 3.059 2.293 5.403 4.996 5.403 3.157 0 3.871-2.868 3.871-3.086 0-.215-.168-.215-.238-.215-.215 0-.242.074-.312.36-.524 1.698-1.817 2.413-3.106 2.413-1.457 0-3.394-1.265-3.394-4.898 0-3.969 2.03-4.95 3.226-4.95.906 0 2.223.36 2.774 1.294m10.972 2.461c0-1.29 0-2.247-1.05-3.18-.837-.762-1.915-1.098-2.965-1.098-1.957 0-3.465 1.29-3.465 2.844 0 .691.453 1.027 1.004 1.027.574 0 .98-.406.98-.98 0-.98-.86-.98-1.219-.98.551-1.005 1.696-1.434 2.653-1.434 1.097 0 2.508.91 2.508 3.058v.957c-4.801.07-6.618 2.078-6.618 3.918 0 1.891 2.2 2.489 3.657 2.489 1.574 0 2.652-.957 3.105-2.106.094 1.125.836 1.985 1.863 1.985.504 0 1.887-.336 1.887-2.247v-1.34h-.523v1.34c0 1.364-.575 1.555-.907 1.555-.91 0-.91-1.27-.91-1.625zm-1.554 3.01c0 2.34-1.743 3.13-2.77 3.13-1.172 0-2.152-.86-2.152-2.009 0-3.152 4.062-3.441 4.922-3.488zm21.164-2.436c0-2.223 0-2.89-.551-3.657-.692-.933-1.813-1.078-2.625-1.078-1.985 0-2.989 1.438-3.371 2.368-.336-1.84-1.625-2.368-3.13-2.368-2.32 0-3.226 1.985-3.417 2.465h-.028v-2.465l-3.25.266v.691c1.626 0 1.82.168 1.82 1.34v6.477c0 1.074-.265 1.074-1.82 1.074v.691c.626-.046 1.915-.046 2.583-.046.695 0 1.984 0 2.605.046v-.691c-1.531 0-1.816 0-1.816-1.074v-4.446c0-2.507 1.648-3.847 3.129-3.847 1.484 0 1.82 1.219 1.82 2.676v5.617c0 1.074-.266 1.074-1.82 1.074v.691c.624-.046 1.914-.046 2.581-.046.696 0 1.985 0 2.606.046v-.691c-1.531 0-1.816 0-1.816-1.074v-4.446c0-2.507 1.648-3.847 3.129-3.847 1.484 0 1.82 1.219 1.82 2.676v5.617c0 1.074-.266 1.074-1.82 1.074v.691c.624-.046 1.914-.046 2.581-.046.696 0 1.985 0 2.606.046v-.691c-1.195 0-1.793 0-1.816-.715zm5.757-10.778-3.324.262v.695c1.625 0 1.82.164 1.82 1.336v14.29h.524c.094-.188.766-1.383.86-1.551.55.883 1.577 1.793 3.109 1.793 2.746 0 5.16-2.32 5.16-5.403 0-3.035-2.246-5.379-4.899-5.379-1.316 0-2.437.602-3.25 1.602zm.047 8.938c0-.43 0-.48.262-.863.574-.86 1.625-1.551 2.797-1.551.719 0 3.226.285 3.226 4.875 0 1.601-.238 2.605-.812 3.465-.477.742-1.434 1.48-2.629 1.48-1.289 0-2.129-.836-2.535-1.48-.309-.5-.309-.598-.309-1.004zM80.36-56.82c0-.621-.504-1.172-1.172-1.172a1.15 1.15 0 0 0-1.149 1.148c0 .715.574 1.172 1.148 1.172.743 0 1.172-.625 1.172-1.148m-3.297 4.445v.691c1.527 0 1.742.145 1.742 1.317v6.5c0 1.074-.262 1.074-1.817 1.074v.691c.668-.046 1.817-.046 2.512-.046.262 0 1.648 0 2.46.046v-.691c-1.554 0-1.647-.121-1.647-1.05v-8.798zm14.86 3.895c0-1.29 0-2.247-1.047-3.18-.84-.762-1.914-1.098-2.965-1.098-1.96 0-3.465 1.29-3.465 2.844 0 .691.453 1.027 1.004 1.027.574 0 .98-.406.98-.98 0-.98-.863-.98-1.218-.98.547-1.005 1.695-1.434 2.648-1.434 1.102 0 2.512.91 2.512 3.058v.957c-4.805.07-6.621 2.078-6.621 3.918 0 1.891 2.2 2.489 3.656 2.489 1.578 0 2.656-.957 3.11-2.106.093 1.125.836 1.985 1.863 1.985.5 0 1.887-.336 1.887-2.247v-1.34h-.524v1.34c0 1.364-.574 1.555-.91 1.555-.91 0-.91-1.27-.91-1.625zm-1.55 3.011c0 2.34-1.747 3.13-2.774 3.13-1.168 0-2.149-.86-2.149-2.009 0-3.152 4.063-3.441 4.922-3.488zm15.987-11.351c0-.621-.504-1.172-1.171-1.172a1.15 1.15 0 0 0-1.149 1.148c0 .715.574 1.172 1.149 1.172.742 0 1.171-.625 1.171-1.148m-3.296 4.445v.691c1.527 0 1.742.145 1.742 1.317v6.5c0 1.074-.262 1.074-1.817 1.074v.691c.668-.046 1.817-.046 2.508-.046.266 0 1.652 0 2.465.046v-.691c-1.555 0-1.648-.121-1.648-1.05v-8.798zm9.75-6.309-3.325.262v.695c1.625 0 1.817.164 1.817 1.336v12.524c0 1.074-.262 1.074-1.817 1.074v.691c.668-.046 1.84-.046 2.559-.046.715 0 1.91 0 2.582.046v-.691c-1.531 0-1.816 0-1.816-1.074zm19.937 8.555c.215-.527.621-1.555 2.148-1.578v-.691c-.691.046-1.027.046-1.765.046-.504 0-.86 0-1.961-.046v.691c1.004.047 1.125.766 1.125 1.027 0 .215-.051.336-.168.621l-2.438 6.168-2.675-6.742c-.121-.332-.145-.332-.145-.453 0-.621.91-.621 1.34-.621v-.691c-.598.046-1.844.046-2.484.046-.789 0-.84 0-2.297-.046v.691c1.34 0 1.578.098 1.863.836l3.418 8.555c.121.336.168.457.453.457.168 0 .313-.051.481-.457zm10.574 1.649c0-1.29 0-2.247-1.051-3.18-.835-.762-1.914-1.098-2.964-1.098-1.957 0-3.465 1.29-3.465 2.844 0 .691.453 1.027 1.004 1.027.574 0 .98-.406.98-.98 0-.98-.859-.98-1.219-.98.551-1.005 1.696-1.434 2.653-1.434 1.097 0 2.508.91 2.508 3.058v.957c-4.801.07-6.618 2.078-6.618 3.918 0 1.891 2.2 2.489 3.657 2.489 1.574 0 2.652-.957 3.105-2.106.094 1.125.836 1.985 1.863 1.985.504 0 1.887-.336 1.887-2.247v-1.34h-.523v1.34c0 1.364-.575 1.555-.907 1.555-.91 0-.91-1.27-.91-1.625zm-1.554 3.011c0 2.34-1.743 3.13-2.774 3.13-1.168 0-2.148-.86-2.148-2.009 0-3.152 4.062-3.441 4.922-3.488zm8.14-13.215-3.32.262v.695c1.625 0 1.816.164 1.816 1.336v12.524c0 1.074-.265 1.074-1.816 1.074v.691c.668-.046 1.84-.046 2.555-.046.718 0 1.914 0 2.582.046v-.691c-1.532 0-1.817 0-1.817-1.074zm13.36 11.469c0-3.082-2.344-5.543-5.114-5.543-2.867 0-5.14 2.531-5.14 5.543 0 3.059 2.39 5.356 5.117 5.356 2.816 0 5.137-2.344 5.137-5.356m-5.114 4.828c-.886 0-1.961-.383-2.652-1.554-.649-1.075-.672-2.485-.672-3.489 0-.906 0-2.367.742-3.441a3.06 3.06 0 0 1 2.559-1.41c.93 0 1.933.43 2.578 1.363.742 1.098.742 2.605.742 3.488 0 .836 0 2.32-.621 3.442-.668 1.148-1.769 1.601-2.676 1.601m9.836-5.281c0-2.316.953-4.492 2.793-4.492.192 0 .238 0 .336.023-.191.098-.574.239-.574.883 0 .695.551.957.933.957.477 0 .958-.312.958-.957 0-.715-.649-1.387-1.676-1.387-2.032 0-2.723 2.2-2.867 2.657h-.024v-2.657l-3.203.266v.691c1.625 0 1.816.168 1.816 1.34v6.477c0 1.074-.261 1.074-1.816 1.074v.691c.672-.046 1.984-.046 2.699-.046.649 0 2.344 0 2.895.046v-.691h-.481c-1.742 0-1.789-.262-1.789-1.121zm14.262.024c.523 0 .574 0 .574-.454 0-2.414-1.293-4.66-4.183-4.66-2.723 0-4.829 2.461-4.829 5.426 0 3.152 2.438 5.473 5.09 5.473 2.844 0 3.922-2.582 3.922-3.086 0-.14-.121-.239-.265-.239-.192 0-.239.121-.286.239-.621 2.008-2.222 2.558-3.226 2.558s-3.418-.668-3.418-4.804v-.453zm-6.598-.454c.192-3.754 2.297-4.183 2.965-4.183 2.555 0 2.699 3.37 2.723 4.183zm22.813-10.324v.695c1.625 0 1.816.164 1.816 1.336v5.282c-.504-.692-1.527-1.532-2.988-1.532-2.77 0-5.16 2.344-5.16 5.403 0 3.035 2.269 5.379 4.898 5.379 1.817 0 2.867-1.196 3.203-1.649v1.649l3.367-.243v-.691c-1.625 0-1.816-.168-1.816-1.34v-14.55zm1.769 13.527c0 .43 0 .5-.336 1.028-.574.836-1.55 1.527-2.746 1.527-.625 0-3.203-.238-3.203-4.875 0-1.719.285-2.676.813-3.465.476-.742 1.433-1.48 2.629-1.48 1.48 0 2.316 1.074 2.554 1.457.289.406.289.453.289.883zm8.219-11.925c0-.621-.5-1.172-1.168-1.172-.625 0-1.148.504-1.148 1.148 0 .715.574 1.172 1.148 1.172.738 0 1.168-.625 1.168-1.148m-3.297 4.445v.691c1.528 0 1.746.145 1.746 1.317v6.5c0 1.074-.265 1.074-1.816 1.074v.691c.668-.046 1.816-.046 2.508-.046.261 0 1.648 0 2.461.046v-.691c-1.551 0-1.649-.121-1.649-1.05v-8.798zm32.703 7.621c-.836 1.41-1.648 1.89-2.797 1.961-.261.023-.453.023-.453.453 0 .145.117.238.285.238.43 0 1.508-.046 1.938-.046.691 0 1.457.046 2.125.046.144 0 .43 0 .43-.453 0-.215-.192-.238-.332-.238-.551-.047-1.004-.238-1.004-.812 0-.336.14-.598.453-1.122l1.816-3.011h6.094c.023.215.023.406.047.62.074.622.359 3.106.359 3.56 0 .718-1.219.765-1.601.765-.262 0-.528 0-.528.43 0 .261.219.261.36.261.406 0 .883-.046 1.289-.046h1.363c1.457 0 2.512.046 2.535.046.164 0 .43 0 .43-.453 0-.238-.215-.238-.574-.238-1.317 0-1.34-.215-1.41-.934l-1.458-14.91c-.046-.476-.144-.527-.406-.527-.238 0-.383.05-.597.406zm2.867-3.68 4.801-8.027.813 8.027zm42.321-2.507c-.285 0-1.172 0-1.172.98 0 .57.406.977.98.977.551 0 1.004-.332 1.004-1.024 0-1.601-1.672-2.75-3.609-2.75-2.793 0-5.02 2.485-5.02 5.496 0 3.059 2.297 5.403 4.996 5.403 3.157 0 3.872-2.868 3.872-3.086 0-.215-.168-.215-.239-.215-.215 0-.242.074-.308.36-.528 1.698-1.821 2.413-3.11 2.413-1.457 0-3.39-1.265-3.39-4.898 0-3.969 2.031-4.95 3.222-4.95.911 0 2.227.36 2.774 1.294m12.719 3.726c0-3.082-2.344-5.543-5.114-5.543-2.867 0-5.14 2.531-5.14 5.543 0 3.059 2.39 5.356 5.117 5.356 2.816 0 5.137-2.344 5.137-5.356m-5.114 4.828c-.886 0-1.961-.383-2.652-1.554-.649-1.075-.672-2.485-.672-3.489 0-.906 0-2.367.742-3.441a3.06 3.06 0 0 1 2.559-1.41c.93 0 1.933.43 2.578 1.363.742 1.098.742 2.605.742 3.488 0 .836 0 2.32-.621 3.442-.668 1.148-1.769 1.601-2.676 1.601m16.477-5.519c0-2.223 0-2.89-.547-3.657-.695-.933-1.816-1.078-2.629-1.078-2.32 0-3.227 1.985-3.418 2.465h-.023v-2.465l-3.25.266v.691c1.625 0 1.816.168 1.816 1.34v6.477c0 1.074-.262 1.074-1.816 1.074v.691c.621-.046 1.91-.046 2.578-.046.695 0 1.984 0 2.605.046v-.691c-1.527 0-1.816 0-1.816-1.074v-4.446c0-2.507 1.648-3.847 3.133-3.847 1.48 0 1.816 1.219 1.816 2.676v5.617c0 1.074-.266 1.074-1.816 1.074v.691c.621-.046 1.91-.046 2.578-.046.695 0 1.984 0 2.605.046v-.691c-1.195 0-1.793 0-1.816-.715zm20.656-4.734h-.476l-.883 2.226c-.434-.91-1.364-2.227-3.18-2.227-2.629 0-5.113 2.25-5.113 5.403 0 3.035 2.293 5.379 4.898 5.379 1.289 0 2.344-.598 3.203-1.793v4.418c0 1.078-.261 1.078-1.816 1.078v.691c.621-.047 1.91-.047 2.582-.047.691 0 1.98 0 2.601.047v-.691c-1.527 0-1.816 0-1.816-1.078zm-1.504 7.34c0 .76-.43 1.456-.98 2.003-.86.887-1.766.957-2.125.957-1.817 0-3.227-2.246-3.227-4.898 0-2.867 1.672-4.875 3.442-4.875 1.886 0 2.89 2.054 2.89 3.297zm10.578-7.075v.691c1.625 0 1.817.168 1.817 1.34v4.278c0 2.03-1.075 3.726-2.867 3.726-1.961 0-2.079-1.12-2.079-2.387v-7.914l-3.371.266v.691c1.817 0 1.817.075 1.817 2.2v3.586c0 1.48 0 2.34.718 3.129.575.62 1.555.91 2.774.91.406 0 1.168 0 1.98-.696.696-.547 1.075-1.457 1.075-1.457v2.153l3.324-.243v-.691c-1.625 0-1.817-.168-1.817-1.34v-8.508zm14.891 4.731c.523 0 .574 0 .574-.454 0-2.414-1.293-4.66-4.183-4.66-2.723 0-4.829 2.461-4.829 5.426 0 3.152 2.438 5.473 5.09 5.473 2.844 0 3.922-2.582 3.922-3.086 0-.14-.121-.239-.265-.239-.192 0-.239.121-.286.239-.621 2.008-2.222 2.558-3.226 2.558s-3.418-.668-3.418-4.804v-.453zm-6.598-.454c.192-3.754 2.297-4.183 2.965-4.183 2.555 0 2.699 3.37 2.723 4.183zm11.953-10.586-3.32.262v.695c1.625 0 1.816.164 1.816 1.336v12.524c0 1.074-.261 1.074-1.816 1.074v.691c.668-.046 1.84-.046 2.555-.046.719 0 1.914 0 2.582.046v-.691c-1.528 0-1.817 0-1.817-1.074zm6.5 0-3.32.262v.695c1.625 0 1.816.164 1.816 1.336v12.524c0 1.074-.261 1.074-1.816 1.074v.691c.668-.046 1.84-.046 2.555-.046.719 0 1.914 0 2.582.046v-.691c-1.528 0-1.817 0-1.817-1.074zm13.36 11.469c0-3.082-2.34-5.543-5.114-5.543-2.867 0-5.136 2.531-5.136 5.543 0 3.059 2.386 5.356 5.113 5.356 2.816 0 5.137-2.344 5.137-5.356m-5.114 4.828c-.886 0-1.96-.383-2.652-1.554-.648-1.075-.672-2.485-.672-3.489 0-.906 0-2.367.742-3.441a3.06 3.06 0 0 1 2.559-1.41c.93 0 1.934.43 2.578 1.363.742 1.098.742 2.605.742 3.488 0 .836 0 2.32-.621 3.442-.668 1.148-1.769 1.601-2.676 1.601m20.915-16.035v.695c1.625 0 1.816.164 1.816 1.336v5.282c-.504-.692-1.531-1.532-2.988-1.532-2.77 0-5.16 2.344-5.16 5.403 0 3.035 2.269 5.379 4.898 5.379 1.816 0 2.867-1.196 3.203-1.649v1.649l3.367-.243v-.691c-1.625 0-1.816-.168-1.816-1.34v-14.55zm1.769 13.527c0 .43 0 .5-.336 1.028-.574.836-1.555 1.527-2.75 1.527-.621 0-3.199-.238-3.199-4.875 0-1.719.285-2.676.812-3.465.477-.742 1.43-1.48 2.629-1.48 1.481 0 2.317 1.074 2.555 1.457.289.406.289.453.289.883zm8.219-11.925c0-.621-.5-1.172-1.168-1.172-.625 0-1.149.504-1.149 1.148 0 .715.575 1.172 1.149 1.172.738 0 1.168-.625 1.168-1.148m-3.297 4.445v.691c1.527 0 1.742.145 1.742 1.317v6.5c0 1.074-.262 1.074-1.812 1.074v.691c.668-.046 1.812-.046 2.507-.046.262 0 1.649 0 2.461.046v-.691c-1.554 0-1.648-.121-1.648-1.05v-8.798zm46.492-6.332c0-.215-.172-.215-.219-.215-.046 0-.14 0-.332.238l-1.648 2.008c-.836-1.433-2.152-2.246-3.945-2.246-5.161 0-10.512 5.23-10.512 10.848 0 3.992 2.793 6.476 6.281 6.476 1.914 0 3.586-.812 4.973-1.984 2.078-1.746 2.699-4.062 2.699-4.254 0-.215-.191-.215-.262-.215-.215 0-.242.145-.285.239-1.101 3.73-4.328 5.523-6.719 5.523-2.531 0-4.73-1.625-4.73-5.02 0-.765.238-4.925 2.941-8.054 1.313-1.528 3.559-2.867 5.828-2.867 2.629 0 3.801 2.175 3.801 4.613 0 .62-.07 1.144-.07 1.242 0 .215.238.215.309.215.265 0 .289-.024.382-.453z"/></g></svg>