<svg xmlns="http://www.w3.org/2000/svg" width="878pt" height="136pt" viewBox="0 -136 878 136"><g id="page1" transform="scale(1 -1)"><path fill="#d9d9d9" d="M14.672 11.094h113.387v113.383H14.672Z"/><g fill="none" stroke="#000" stroke-linecap="round" stroke-linejoin="round"><path stroke-width="1.5" d="M14.672 11.094h113.387v113.383H14.672z"/><path stroke-dasharray="8.33719 8.33719" d="M.5 67.785h141.73"/><path stroke-width="3" d="M172.578 67.785h56.692"/></g><path d="m229.27 70.617 8.507-2.832-8.507-2.836z"/><path fill="none" stroke="#000" stroke-linecap="round" stroke-linejoin="round" stroke-width=".5" d="m229.27 70.617 8.507-2.832-8.507-2.836z"/><path fill="gray" d="M267.121 33.77h136.063v68.03H267.121Z"/><path fill="none" stroke="#000" stroke-linecap="round" stroke-linejoin="round" stroke-width="1.5" d="M267.121 33.77h136.063v68.03H267.121z"/><path fill="#d9d9d9" d="M267.121 33.77h136.063l6.804 61.226H273.926z"/><g fill="none" stroke="#000" stroke-linecap="round" stroke-linejoin="round"><path stroke-width="1.5" d="M267.121 33.77h136.063l6.804 61.226H273.926z"/><path stroke-dasharray="7.84979 7.84979" d="M335.152 16.762v102.047"/><path stroke-width="3" d="M440.586 67.785h56.691"/></g><path d="m497.277 70.617 8.504-2.832-8.504-2.836z"/><path fill="none" stroke="#000" stroke-linecap="round" stroke-linejoin="round" stroke-width=".5" d="m497.277 70.617 8.504-2.832-8.504-2.836z"/><path fill="gray" d="M544.199 8.824h90.707v90.707l-99.777-9.07z"/><path fill="none" stroke="#4d4d4d" stroke-linecap="round" stroke-linejoin="round" stroke-width="1.5" d="M544.199 8.824h90.707v90.707l-99.777-9.07z"/><path fill="#ccc" d="M544.199 8.824h90.707v90.707h-90.707Z"/><path fill="none" stroke="#4d4d4d" stroke-linecap="round" stroke-linejoin="round" stroke-width="1.5" d="M544.199 8.824h90.707v90.707h-90.707z"/><path fill="gray" d="m562.34 36.035 72.566-27.21V99.53l-81.636 18.145z"/><path fill="none" stroke="#4d4d4d" stroke-linecap="round" stroke-linejoin="round" stroke-width="1.5" d="m562.34 36.035 72.566-27.21V99.53l-81.636 18.145z"/><path fill="#d9d9d9" d="m562.34 36.035 72.566-27.21V99.53l-72.566 27.215z"/><path fill="none" stroke="#4d4d4d" stroke-linecap="round" stroke-linejoin="round" stroke-width="1.5" d="m562.34 36.035 72.566-27.21V99.53l-72.566 27.215z"/><path fill="none" stroke="#000" stroke-linecap="round" stroke-linejoin="round" stroke-width="3" d="M665.504 67.785h56.691"/><path d="m722.195 70.617 8.504-2.832-8.504-2.836z"/><path fill="none" stroke="#000" stroke-linecap="round" stroke-linejoin="round" stroke-width=".5" d="m722.195 70.617 8.504-2.832-8.504-2.836z"/><path fill="gray" d="M762.883 18.594H876.27V131.98l-116.223 2.836z"/><path fill="none" stroke="#4d4d4d" stroke-linecap="round" stroke-linejoin="round" stroke-width="1.5" d="M762.883 18.594H876.27V131.98l-116.223 2.836z"/><path fill="#ccc" d="M762.883 18.594H876.27V131.98H762.883Z"/><path fill="none" stroke="#4d4d4d" stroke-linecap="round" stroke-linejoin="round" stroke-width="1.5" d="M762.883 18.594H876.27V131.98H762.883z"/><path fill="none" stroke="#000" stroke-dasharray="7.55906 7.55906" stroke-linecap="round" stroke-linejoin="round" d="M819.574 18.594v56.695h56.696"/><path fill="gray" d="M816.848 16.336c-3.551-4.898-4.317-8.477-5.52-8.133-2.445 2.04-7.281 2.031-8.308-2.14-1.473-6.653 7.191-7.657 9.035-2.989 1.25 2.758 1.886 6.399 5.925 9.524L821.07 15l10.731 15.129c1.195 1.957 1.914 4.562.363 7.043-5.105-6.945-10.215-13.89-15.316-20.836m-11.5-9.133c2.066 2.067 5.722.809 5.715-1.95.14-2.523-2.934-4.827-5.219-3.382-1.922 1.012-1.903 3.926-.496 5.332"/><path fill="none" stroke="#000" stroke-linecap="round" stroke-width=".377" d="M816.848 16.336c-3.551-4.898-4.317-8.477-5.52-8.133-2.445 2.04-7.281 2.031-8.308-2.14-1.473-6.653 7.191-7.657 9.035-2.989 1.25 2.758 1.886 6.399 5.925 9.524L821.07 15l10.731 15.129c1.195 1.957 1.914 4.562.363 7.043-5.105-6.945-10.215-13.89-15.316-20.836Z"/><path fill="none" stroke="#000" stroke-linecap="round" stroke-width=".377" d="M805.348 7.203c2.066 2.067 5.722.809 5.715-1.95.14-2.523-2.934-4.827-5.219-3.382-1.922 1.012-1.903 3.926-.496 5.332Z"/><path fill="gray" d="M822.328 16.469c3.535-4.907 4.297-8.485 5.504-8.149 2.453 2.047 7.289 2.012 8.301-2.152 1.461-6.652-7.211-7.645-9.035-2.969-1.25 2.754-1.879 6.406-5.91 9.54l-3.094 2.402-10.68 15.156c-1.199 1.957-1.914 4.562-.355 7.043 5.093-6.953 10.175-13.918 15.269-20.871m11.473-9.16c-2.055 2.066-5.711.816-5.711-1.93-.152-2.524 2.922-4.836 5.207-3.402 1.922 1.011 1.922 3.925.504 5.332"/><path fill="none" stroke="#000" stroke-linecap="round" stroke-width=".377" d="M822.328 16.469c3.535-4.907 4.297-8.485 5.504-8.149 2.453 2.047 7.289 2.012 8.301-2.152 1.461-6.652-7.211-7.645-9.035-2.969-1.25 2.754-1.879 6.406-5.91 9.54l-3.094 2.402-10.68 15.156c-1.199 1.957-1.914 4.562-.355 7.043 5.093-6.953 10.175-13.918 15.269-20.871Z"/><path fill="none" stroke="#000" stroke-linecap="round" stroke-width=".377" d="M833.801 7.309c-2.055 2.066-5.711.816-5.711-1.93-.152-2.524 2.922-4.836 5.207-3.402 1.922 1.011 1.922 3.925.504 5.332Z"/><circle cx="819.574" cy="16.383" r=".377"/></g></svg>