<svg xmlns="http://www.w3.org/2000/svg" width="695pt" height="80" viewBox="0 -60 695 60"><g id="page1"><g fill-rule="evenodd"><path fill="#88d055" d="M173.875-47.867c-.422.347.742.347.547.844.769 1.808 1.512 3.671 1.836 5.629 1.215 6.277-.324 13.046-4.219 18.132-3.918 5.356-9.871 9.301-16.445 10.39-6 1.044-12.324-.37-17.485-3.57a32 32 0 0 1-3.671-2.656c3.621 4.094 8.906 6.477 14.261 7.07 7.84.895 16.074-1.66 21.828-7.093 3.918-3.672 6.621-8.68 7.168-14.04.469-4.316.024-8.855-1.933-12.75a12.8 12.8 0 0 0-1.414-2.155c-.2-.075-.325.125-.473.199"/><path fill="#b9f88c" d="M173.75-47.719c-.52.2-1.363.621-1.09 1.34 1.66 3.324 2.356 7.094 2.281 10.813-.097 3.496-.918 7.07-2.878 10.023-2.282 3.496-5.727 6.148-9.571 7.711-5.508 2.383-11.781 3.176-17.637 1.71-3.644-.917-7.167-2.675-9.671-5.554-.45-.472-.793-1.015-1.094-1.613-.223-.691-.965-.719-1.488-.273-.766.324-.469 1.19-.047 1.687 1.09 2.133 2.898 3.844 4.984 5.059 3.473 2.21 7.441 3.746 11.559 4.144 4.242.473 8.605-.223 12.476-2.035 6.77-3.074 12.227-9.125 14.285-16.32 1.465-5.258.868-10.989-1.414-15.922-.125-.324-.273-.77-.695-.77"/><path d="M173.23-49.008c-2.851.942-5.234 2.828-7.937 4.067-11.211 6.078-22.051 12.75-32.691 19.718-.918.645-1.911 1.54-1.911 2.73.075 1.462 1.094 2.63 1.938 3.743 3.297 4.02 8.086 6.598 13.117 7.738 4.664 1.043 9.551.547 14.141-.644 5.308-1.438 10.343-4.34 13.863-8.606 4.344-5.308 6.352-12.425 5.434-19.222-.325-2.703-1.067-5.434-2.532-7.739-.668-.968-1.687-1.91-2.949-1.886-.148.027-.324.05-.473.101m.719 1.09c-.496.371-1.414.547-1.386 1.316.121.47.445.891.593 1.364 2.282 5.457 2.407 11.855.125 17.336-1.367 3.152-3.746 5.804-6.574 7.715-4.59 3.148-10.195 4.636-15.727 4.687-4.464.05-9.05-.941-12.796-3.45-1.86-1.26-3.45-2.972-4.414-5.007-.672-.023-1.442.297-1.665.969-.046.617.45 1.09.696 1.636 2.406 3.965 6.449 6.77 10.84 8.208 8.879 2.902 19.199.796 26.242-5.356 3.398-2.977 5.953-6.922 7.168-11.262.816-2.976.965-6.101.695-9.175-.301-2.731-1.043-5.458-2.48-7.84-.399-.371-.45-1.192-1.094-1.239-.098-.027-.149.075-.223.098m-2.679 1.563c-9.723 4.984-19 10.765-28.473 16.148-3.074 1.836-6.102 3.793-8.856 6.05 1.614 3.177 4.664 5.434 7.961 6.65 5.411 1.956 11.438 1.91 16.965.421 4.344-1.168 8.512-3.348 11.461-6.773 1.86-2.18 2.926-4.91 3.449-7.715.817-4.164.793-8.63-.718-12.649-.25-.695-.598-1.34-.969-1.984-.176-.273-.57-.422-.82-.148m-1.637 7.367c-.695.422-.024 1.66.719 1.414.597-.25.472-1.117-.075-1.34-.199-.098-.422-.148-.644-.074m-5.754 5.976c-.621.25-.348 1.168.199 1.364.621.199 1.141-.594.77-1.114-.176-.375-.645-.523-.969-.25m5.605.075c-.668.472-.171 1.562.547 1.664.645.12 1.239-.672.844-1.243-.297-.445-.918-.496-1.391-.422m-11.855 4.265c-.496.695.176 1.887 1.016 1.738.695-.25.546-1.214.027-1.562-.274-.223-.695-.348-1.043-.176m6.125 1.465c-.594.496-.149 1.316.199 1.785.399.547 1.363.422 1.516-.223.121-.593-.301-1.14-.746-1.464-.274-.196-.668-.246-.969-.098m-13.813 1.984c-.769.325-.597 1.739.247 1.785.917-.074 1.015-1.66.125-1.859a.5.5 0 0 0-.372.074m-7.293.895c-.746.246-.992 1.437-.273 1.86.645.245 1.191-.548 1.141-1.141.023-.422-.422-1.067-.868-.72m12.477 2.504c-.844.547-.199 2.11.793 1.91.695-.148.695-1.117.273-1.563-.222-.324-.695-.57-1.066-.347m-9.18 1.09c-.816.398-.668 1.91.274 2.035.844 0 1.168-1.164.719-1.762-.196-.32-.645-.52-.993-.273"/><path fill="#e96c92" d="M171.27-46.355c-9.723 4.984-19 10.765-28.473 16.148-3.074 1.836-6.102 3.793-8.856 6.05 1.614 3.177 4.664 5.434 7.961 6.65 5.411 1.956 11.438 1.91 16.965.421 4.344-1.168 8.512-3.348 11.461-6.773 1.86-2.18 2.926-4.91 3.449-7.715.817-4.164.793-8.63-.718-12.649-.25-.695-.598-1.34-.969-1.984-.176-.273-.57-.422-.82-.148m-1.637 7.367c-.695.422-.024 1.66.719 1.414.597-.25.472-1.117-.075-1.34-.199-.098-.422-.148-.644-.074m-5.754 5.976c-.621.25-.348 1.168.199 1.364.621.199 1.141-.594.77-1.114-.176-.375-.645-.523-.969-.25m5.605.075c-.668.472-.171 1.562.547 1.664.645.12 1.239-.672.844-1.243-.297-.445-.918-.496-1.391-.422m-11.855 4.265c-.496.695.176 1.887 1.016 1.738.695-.25.546-1.214.027-1.562-.274-.223-.695-.348-1.043-.176m6.125 1.465c-.594.496-.149 1.316.199 1.785.399.547 1.363.422 1.516-.223.121-.593-.301-1.14-.746-1.464-.274-.196-.668-.246-.969-.098m-13.813 1.984c-.769.325-.597 1.739.247 1.785.917-.074 1.015-1.66.125-1.859a.5.5 0 0 0-.372.074m-7.293.895c-.746.246-.992 1.437-.273 1.86.645.245 1.191-.548 1.141-1.141.023-.422-.422-1.067-.868-.72m12.477 2.504c-.844.547-.199 2.11.793 1.91.695-.148.695-1.117.273-1.563-.222-.324-.695-.57-1.066-.347m-9.18 1.09c-.816.398-.668 1.91.274 2.035.844 0 1.168-1.164.719-1.762-.196-.32-.645-.52-.993-.273"/><path d="M413.535-57.332c-1.457.902-2.789 2.605-2.789 3.598 0 .59.527 1.425 1.645 2.605.898.961 1.984 2.418 2.386 3.254l.715 1.52-.871 1.738c-.496.96-1.207 2.789-1.578 4.09-4.063 13.207-8.219 18.047-22.418 25.984-4.434 2.45-5.984 3.656-7.008 5.27-.961 1.609-.961 3.253.094 4.773 3.039 4.496 15.316 3.938 25.516-1.148 7.472-3.688 12.929-8.989 15.75-15.282 3.226-7.101 4-14.511 2.14-20.183-.715-2.172-2.883-5.399-4.246-6.297-.933-.621-1.242-1.117-1.707-2.883-.867-3.191-2.668-6.57-3.812-7.16-1.274-.652-2.606-.621-3.817.121m3.535 2.793c-.371.68-.277 1.055.621 2.82 1.395 2.758 2.883 7.535 3.536 11.317C424.016-24 411.895-8.594 393.664-5.398c-1.582.277-3.629.496-4.527.496-1.239 0-1.672.156-1.922.652-.309.586-.219.68.898.992 1.828.528 7.227.434 10.325-.156 9.671-1.828 18.417-7.223 23.097-14.293 6.762-10.137 7.008-24.059.496-28.555-1.176-.804-1.426-1.242-2.199-3.718-.777-2.512-1.953-5.305-2.266-5.305-.031 0-.277.344-.496.746m-2.601 1.766-1.086.464 1.144 1.457c.59.809 1.368 2.141 1.676 2.977.59 1.488.59 1.488-.433 3.906-.528 1.336-1.457 3.938-2.047 5.739-2.325 7.285-4.496 11.035-8.743 15.285-3.285 3.285-5.488 4.836-12.308 8.773-5.488 3.129-7.41 4.434-7.656 5.113-.094.22.464 1.024 1.207 1.832l1.363 1.426 2.605-.219c7.657-.648 15.286-3.906 20.711-8.898 4.434-4.09 7.317-8.773 8.836-14.355.867-3.192 1.055-10.477.34-13.422-1.113-4.559-2.601-8.309-3.906-9.828-.586-.653-.711-.684-1.703-.25"/><path fill="#f5a701" d="M415.305-58.043c.246.094.527.063.648-.031.094-.125-.09-.188-.433-.188-.403.032-.465.094-.215.219m-3.442 1.828-.961 1.086 1.086-.96c.586-.56 1.055-1.024 1.055-1.087 0-.246-.25-.031-1.18.961m6.664-.062c.125.156.282.312.375.312.09 0 .063-.156-.031-.312-.125-.184-.281-.34-.375-.34-.09 0-.09.156.031.34m-1.457 1.738c-.371.68-.277 1.055.621 2.82 1.395 2.758 2.883 7.535 3.536 11.317C424.016-24 411.895-8.594 393.664-5.398c-1.582.277-3.629.496-4.527.496-1.239 0-1.672.156-1.922.652-.309.586-.219.68.898.992 1.828.528 7.227.434 10.325-.156 9.671-1.828 18.417-7.223 23.097-14.293 6.762-10.137 7.008-24.059.496-28.555-1.176-.804-1.426-1.242-2.199-3.718-.777-2.512-1.953-5.305-2.266-5.305-.031 0-.277.344-.496.746m-.523 3.098c.617 1.023 1.363 2.605 1.672 3.504.308.902.621 1.581.683 1.488.403-.371-2.386-6.2-3.164-6.696-.187-.093.188.653.809 1.704m3.812-1.207c0 .246.09.34.215.218a.3.3 0 0 0 0-.437c-.125-.121-.215-.031-.215.219m-6.793.308c-.089.156.094.496.407.746.523.403.523.371.152-.093s-.371-.59 0-.743c.281-.093.313-.156.031-.187-.215 0-.496.094-.59.277m-1.332 1.367c.715.711 1.364 1.301 1.457 1.301.094 0-.433-.59-1.144-1.3-.715-.747-1.367-1.337-1.457-1.337-.094 0 .433.59 1.144 1.336m8.434-.683c0 .246.125.34.25.215a.304.304 0 0 0 0-.434c-.125-.121-.25-.031-.25.219m-5.797 1.332c.125.187.277.343.371.343s.094-.156-.031-.343c-.121-.184-.277-.34-.371-.34s-.063.156.031.34m.867 1.336c.465 1.02.621 1.207.621.773 0-.187-.218-.62-.496-.96-.496-.622-.496-.59-.125.187m5.614-.344c0 .25.089.344.214.219s.125-.313 0-.434c-.125-.125-.214-.031-.214.215m1.144 1.676c.125.152.281.308.375.308s.094-.156-.031-.308c-.125-.188-.281-.34-.375-.34s-.063.152.031.34m-6.137.308c0 .25.121.34.246.22a.37.37 0 0 0 0-.434c-.125-.126-.246-.032-.246.214m.246 1.305c-.125.555-.089.68.157.434a.9.9 0 0 0 .218-.778c-.093-.246-.25-.093-.375.344m2.481.371c0 .277.125.867.281 1.332.215.653.246.684.278.156 0-.37-.125-.96-.278-1.336-.187-.402-.281-.464-.281-.152m5.738.309c.121.187.278.34.371.34.094 0 .063-.153-.031-.34-.125-.157-.277-.309-.371-.309s-.063.152.031.309m-8.898.867c-.34.809-.25 1.023.152.375.188-.344.281-.684.188-.777-.063-.094-.246.093-.34.402m9.578.156c.094.156.281.309.344.309.09 0 .09-.153-.032-.309-.093-.187-.281-.34-.375-.34-.089 0-.058.153.063.34m-5.828 1.3c0 .25.125.345.25.22.09-.094.09-.309 0-.434-.125-.125-.25-.031-.25.215m-6.293.684c0 .25.094.34.215.22a.3.3 0 0 0 0-.438c-.121-.121-.215-.028-.215.218m1.672 0c0 .25.093.34.218.22a.3.3 0 0 0 0-.438c-.125-.121-.218-.028-.218.218m5.023.993c0 .465.063.652.156.402.094-.215.094-.59 0-.836-.093-.219-.156-.031-.156.434m-5.363 0c0 .25.094.34.219.215a.304.304 0 0 0 0-.434c-.125-.121-.219-.027-.219.219m-.34.992c0 .25.094.34.215.215a.297.297 0 0 0 0-.434c-.121-.12-.215-.027-.215.219m-1.984.992c0 .246.093.34.214.219a.3.3 0 0 0 0-.438c-.121-.12-.214-.03-.214.22m1.672 0c0 .246.093.34.218.219a.3.3 0 0 0 0-.438c-.125-.12-.218-.03-.218.22m6.417 2.82c0 1.832.032 2.512.125 1.551a29 29 0 0 0 0-3.316c-.093-.836-.125-.063-.125 1.765m7.196-2.293c0 .371.094.465.183.188.094-.219.094-.527 0-.621-.121-.125-.214.094-.183.433m-13.953.465c0 .246.093.34.218.219a.307.307 0 0 0 0-.437c-.125-.122-.218-.032-.218.218m-1.672.34c0 .25.121.344.246.219a.37.37 0 0 0 0-.434c-.125-.125-.246-.031-.246.215m1.363.836c.031.406.094.469.184.219.125-.246.093-.528 0-.653-.121-.09-.184.094-.184.434m-1.676.156c0 .25.094.34.219.22a.304.304 0 0 0 0-.434c-.125-.126-.219-.032-.219.214m16.309.496c0 .559.062.715.156.403.094-.309.094-.774 0-.992-.094-.215-.156.03-.156.59M412.73-35.41c0 .246.094.34.219.215.121-.09.121-.309 0-.434-.125-.121-.219-.031-.219.219m-.339.992c0 .246.093.34.214.246a.335.335 0 0 0 0-.465c-.121-.12-.214 0-.214.219m-.621 1.52c-.528 1.207-.434 1.488.156.37.277-.527.465-.992.371-1.085-.063-.063-.309.25-.527.715m16.277.652c0 .555.062.71.156.402.094-.312.094-.777 0-.992-.094-.219-.156.031-.156.59m-7.969.152c0 .465.063.653.156.434.094-.246.094-.621 0-.836-.093-.219-.156-.031-.156.402m-10.324 0c0 .25.094.34.219.219a.3.3 0 0 0 0-.434c-.125-.125-.219-.03-.219.215m9.953 1.86c.031.375.094.465.219.187.09-.219.058-.527-.031-.621-.125-.121-.188.094-.188.434m-9.641.808c-.187.371-.281.649-.187.649s.34-.278.527-.649c.188-.37.278-.683.188-.683-.094 0-.313.312-.528.683m17.61-.156c0 .402.094.465.183.219.094-.25.094-.528 0-.653-.121-.093-.214.094-.183.434m-8.278.684c0 .37.09.464.184.183.094-.215.094-.527-.031-.62-.09-.122-.184.062-.153.437m-10.203.835c-.121.247-.058.31.157.157.218-.125.402-.313.402-.375 0-.278-.309-.153-.559.218m9.828.278c0 .25.094.344.219.219.125-.094.125-.309 0-.434s-.219-.031-.219.215m-12.121.406c-.156.215-.093.277.125.121.403-.215.528-.527.246-.527-.093 0-.246.187-.371.406m1.645.309c-.156.246-.094.308.152.156.375-.25.496-.527.219-.527-.063 0-.246.183-.371.37m-2.824 1.21c-.403.524-.403.524.125.122.558-.434.715-.711.465-.711-.094 0-.34.246-.59.59m1.644.31c-.402.527-.402.558.125.152.559-.434.742-.711.465-.711-.062 0-.34.25-.59.558m10.883-.063c-.34.836-.246 1.054.156.37.184-.308.278-.648.184-.741-.094-.094-.246.093-.34.37m8.402.156c0 .246.094.34.215.215a.3.3 0 0 0 0-.434c-.121-.125-.215-.031-.215.219m-.339.992c0 .246.089.34.214.215.125-.121.125-.309 0-.434s-.214-.03-.214.22m-21.395 1.735-1.645 1.765 1.739-1.672c1.609-1.52 1.89-1.828 1.64-1.828-.058 0-.836.805-1.734 1.735m11.937-.063c-.125.219-.156.434-.062.527s.25-.062.34-.34c.25-.59.062-.714-.278-.187M401.57-21.77c-.125.25-.062.31.157.157.214-.125.402-.309.402-.371 0-.282-.313-.157-.559.215m14.602.344c-.152.246-.094.309.156.153.219-.125.371-.309.371-.372 0-.277-.277-.156-.527.22m-16.09.867c-.402.528-.402.528.121.125.563-.437.746-.714.469-.714-.094 0-.344.277-.59.59m1.828.497-.621.742.746-.621c.403-.372.742-.68.742-.743 0-.28-.277-.093-.867.622m13.61-.372c-.153.247-.09.309.125.153.402-.246.527-.528.25-.528-.094 0-.25.157-.375.375m-16.586.68c-.157.219-.094.281.156.125.183-.125.371-.281.371-.371 0-.281-.277-.156-.527.246m15.75.527c-.434.528-.403.528.125.125.527-.433.711-.714.433-.714-.062 0-.308.25-.558.59m-16.743.125c-.156.247-.093.278.157.153.183-.121.371-.309.371-.403 0-.277-.309-.12-.528.25m2.637 0c-.125.247-.094.278.152.153.219-.121.375-.309.375-.403 0-.277-.281-.12-.527.25m-1.305.993c-.152.246-.089.308.125.152.219-.121.403-.309.403-.402 0-.246-.309-.121-.528.25m12.434 2.199-2.137 2.234 2.231-2.14c1.242-1.176 2.262-2.2 2.262-2.262 0-.219-.34.094-2.356 2.168m11.102-1.207c-.157.246-.094.308.156.152.183-.12.371-.308.371-.37 0-.278-.281-.153-.527.218m-28.524.34c-.156.246-.094.28.153.156.218-.156.375-.313.375-.406 0-.278-.282-.121-.528.25m2.664.125c-.621.496-.621.496.094.156.434-.188.742-.438.742-.496 0-.281-.152-.188-.836.34m-1.64.992c-.621.496-.621.496.089.152.407-.183.747-.433.747-.496 0-.277-.188-.183-.836.344m25.668 1.055c-.434.527-.403.558.125.12.558-.433.714-.68.433-.68-.062 0-.308.247-.558.56m-27.997.277c-.621.496-.621.496.094.156.403-.187.746-.433.746-.527 0-.25-.156-.156-.84.37m15.567 1.238-.621.746.746-.652c.68-.59.898-.867.617-.867-.062 0-.402.34-.742.773m-17.891.094c-.621.496-.621.496.094.156.402-.215.742-.433.742-.527 0-.246-.152-.184-.836.37m16.559.871c-.125.215-.094.277.152.121.219-.121.371-.277.371-.371 0-.277-.277-.156-.523.25m-22.047.836c-.434.527-.402.559.125.125.559-.434.715-.684.434-.684-.063 0-.309.25-.559.559m2.82-.188c-.152.25-.09.282.157.157.187-.125.371-.309.371-.403 0-.28-.278-.125-.528.246m18.231 0c-.153.25-.09.282.156.157.219-.125.371-.309.371-.403 0-.28-.277-.125-.527.246m-19.223.653c-.152.246-.09.308.156.156.188-.125.371-.312.371-.375 0-.277-.308-.152-.527.219m15.285 1.332c-1.457.715-2.293 1.21-1.828 1.086.992-.278 4.652-2.078 4.652-2.293 0-.219.247-.313-2.824 1.207m14.387-.805c-.434.527-.402.559.125.156.559-.437.715-.714.434-.714-.063 0-.309.25-.559.558m-31.156.684-.809.898.899-.808c.871-.743 1.086-1.024.808-1.024-.062 0-.465.438-.898.934m-1.832-.219c-.157.246-.09.309.156.156.184-.125.371-.312.371-.375 0-.277-.277-.152-.527.219m31.5.684c-.157.246-.09.277.156.152.184-.152.371-.309.371-.402 0-.278-.277-.125-.527.25m-16.278 1.144a.303.303 0 0 0 .438 0c.121-.094.027-.215-.219-.215-.25 0-.344.121-.219.215m-12.867.465c.094.187.281.312.375.312s.063-.125-.031-.312c-.125-.184-.313-.34-.371-.34-.094 0-.094.156.027.34m11.875-.125a.3.3 0 0 0 .434 0c.125-.121.031-.215-.215-.215-.25 0-.344.094-.219.215m-1.176.344c.246.093.528.093.649-.032.094-.093-.094-.187-.434-.156-.402 0-.465.094-.215.188m15.469.152c-.152.25-.094.313.125.156.219-.125.402-.308.402-.402 0-.25-.308-.125-.527.246m-16.773.188c.218.093.527.062.621-.032.125-.125-.094-.183-.434-.183-.371.027-.465.09-.187.215m-1.332.312c.25.09.527.09.621 0 .125-.125-.063-.219-.434-.187-.375 0-.465.093-.187.187m-6.946.555c.157.156 1.086.218 2.078.156l1.766-.094-2.047-.183c-1.144-.094-1.953-.032-1.797.12m4.774-.215c.312.094.777.094.996 0 .215-.094-.031-.156-.594-.156-.555 0-.742.062-.402.156m-8.555 1.766c.125.187.277.343.371.343s.094-.156-.031-.343c-.121-.184-.277-.34-.371-.34s-.063.156.031.34m21.516.867a.297.297 0 0 0 .433 0c.125-.09.032-.215-.215-.215-.25 0-.343.125-.218.215m-.992.343c.093.122.308.122.433 0 .125-.125.031-.218-.215-.218-.25 0-.343.093-.218.218m-18.848.434c.09.188.277.34.371.34s.062-.152-.063-.34c-.093-.156-.281-.312-.375-.312-.058 0-.058.156.067.312m17.824-.094a.335.335 0 0 0 .465 0c.125-.125 0-.218-.215-.218-.25 0-.344.093-.25.218m-3.969.992a.303.303 0 0 0 .438 0c.121-.125.027-.218-.219-.218-.25 0-.344.093-.219.218m-10.941.34c.121.125.34.125.434 0 .121-.12.031-.215-.219-.215-.246 0-.34.094-.215.215m9.113 0c.246.094.528.094.653-.03.089-.122-.094-.185-.438-.185-.402.032-.465.094-.215.215m-7.164.344c.344.063.871.063 1.18 0 .308-.094.062-.156-.59-.156-.617 0-.898.062-.59.156m3.848 0c.402.063.992.063 1.301 0 .339-.094 0-.156-.743-.156-.714 0-.992.062-.558.156"/><path fill="#fcd900" d="m414.469-52.586-.746.371 1.179 1.582c.618.867 1.364 2.2 1.645 3.008.496 1.332.465 1.488-.281 3.098-.434.902-1.489 3.816-2.356 6.48-3.906 11.844-8.496 16.961-22.074 24.555-2.422 1.367-4.961 2.976-5.676 3.566l-1.301 1.117 1.332 1.332 1.364 1.364 2.883-.215c5.304-.402 12.527-2.914 16.835-5.89 2.36-1.614 6.356-5.52 7.938-7.75 1.832-2.637 3.566-6.36 4.34-9.458.929-3.66.871-11.535-.09-14.758-.992-3.289-1.895-5.582-2.914-7.285-.934-1.613-.961-1.644-2.078-1.117"/><path fill="#247040" d="M675.746-59c-.437-.203-.773.3-.605.672.168.504.636.035.972.101.508-.035 1.114.067 1.551-.304.402-.367-.336-.739-.707-.672-.402.035-.809.168-1.211.203m1.918.469c-.504.34-1.75.136-2.258.472-.336.305.203.91.274 1.246.199.473.265 1.008.168 1.516-.168 1.11-.743 2.086-1.215 3.094-1.176 2.527-2.524 4.95-3.633 7.543.703.27 1.379-.203 2.051-.406.539-.133.707-.739.844-1.211.101-.504.203-.977.468-1.414 1.012-2.254 2.192-4.442 3.2-6.7.406-1.144.64-2.355.605-3.53.27-.911-.234-.778-.504-.61m-16.09 9.527c-1.043.27-2.187.371-3.062 1.043 1.953.305 3.703 1.414 4.98 2.895.707 1.011 1.211 2.222 2.254 2.93.539.406 1.18.706 1.852.742.437 0 .707-.372 1.078-.575.64-.472.773-1.379 1.445-1.816.371-.774.07-1.684-.336-2.39-.469-.81-1.14-1.65-1.918-2.157-1.75-1.043-3.937-1.008-5.89-.738-.133.035-.27.035-.403.066m17.168 2.055c-1.953 1.312-4.308 1.785-6.531 2.488-.707.203-1.383.508-1.953 1.012-.84.707-1.445 1.851-1.211 2.996.168.672.84 1.277 1.547 1.043.371-.035.742-.473.875-.035.136.34.234.808.707.808 1.75.168 3.504-.57 4.715-1.816a5.8 5.8 0 0 0 1.714-3.399c.239-1.078.336-2.156.407-3.234-.071-.133-.239.035-.27.137m-17.336 1.21c-1.886.575-3.937.977-5.926.673-.167-.57-1.078.035-.402.27.84 1.144 2.121 1.886 3.399 2.39 1.144 0 2.156-.54 3.23-.739.508-.304 1.313-.238 1.887-.44.504-.235-.336-1.044-.504-1.345-.305-.37-.574-.672-1.043-.843-.203-.067-.442-.098-.641.035m20.028.403c-.84.203-1.786.371-2.325 1.113-.199.336-.3.774-.3 1.176 0 .54.64 0 .707.035-.305.371-.672.64-1.012.977-.367.707-.809 1.48-1.512 1.883-.34.37 0 .875.438.945.402.133.804-.035 1.211-.102 2.254-.406 4.074-2.02 6.328-2.492.371.239.808-.133.84-.504.101-.402-.098-.773-.438-1.011-.402-.438-.738-.942-1.242-1.313-.777-.57-1.754-.906-2.695-.707m11.175.473c-1.546 1.21-3.566 1.648-5.488 1.683-.336.067-.805-.136-.941.27-.133.437.238.875.035 1.277-.27.27-.707.137-1.078.203-.301-.066-.473.371-.102.27.203-.067.707 0 .305.203-.336.27.371.168.539.336.875.3 1.715.738 2.656.977 1.078-.07 1.953-.844 2.793-1.481 1.047-1.012 1.785-2.527 1.551-4.008-.137 0-.137.235-.27.27m-9.996 4.445c-.472.367-1.144.336-1.582.805-.406.406.707.168.504.437-.605-.27-.605-.27-1.18.203-.437.672.239 1.043.473 1.282.809.738 1.852 1.109 2.828 1.445 2.356.672 4.879 1.012 7.305.539a9.6 9.6 0 0 0 2.758-1.012c-.469-.535-1.242-.3-1.852-.504-.336-.168-.707-.402-1.109-.57-1.887-.977-3.703-2.289-5.856-2.727-.742-.167-1.55-.167-2.289.102"/><path fill="#d1242b" d="M656.055-40.555c-1.246 1.313-2.055 2.961-2.696 4.614-.941 2.757-1.109 5.722-.91 8.617.34 3.363 1.383 6.629 2.696 9.726 1.347 2.996 2.66 5.993 4.105 8.922.91 1.852 1.82 3.668 3.031 5.317 1.278 1.652 3.231 2.894 5.387 2.797 1.48 0 2.824-.743 4.07-1.485 1.989-1.11 3.907-2.32 5.891-3.5 4.781-3.465 8.82-7.875 12.488-12.453 1.145-1.516 2.02-3.266 2.258-5.184.367-2.425.336-4.914-.172-7.34-.367-1.413-1.109-2.69-1.75-3.972-.535-.875-1.547-.469-2.387-.504-2.324-.137-4.679-.707-6.699-1.918-.605-.504-.91-1.246-1.383-1.852-.875-.64-2.05.235-2.925-.406-.743-.402-1.618.07-2.258.438-1.145.508-2.559.508-3.602-.2-.707-.269-1.582-.37-2.086-1.042.133-.778-.742-1.516-1.48-1.18-.672.203-1.414-.235-1.988-.606-.637-.37-1.11-1.113-1.848-1.347-2.457.203-6.094 1.414-7.742 2.558"/><path d="M675.508-59.336c-.875-.035-1.445 1.242-.535 1.648.875.942.672 2.356.3 3.47-.57 1.816-1.648 3.363-2.492 5.046-.636 1.246-1.312 2.524-1.816 3.805-.875-.137-.641-1.246-1.18-1.719-1.312-1.684-3.465-2.523-5.586-2.59-2.152-.066-4.308.371-6.195 1.414.101.774 1.012.57 1.551.774.539.472 1.48.437 1.883 1.11-.266.605-1.075.507-1.614.64-1.078.168-2.156.504-3.265.437-.844 0-1.649-.3-2.289-.84-.707.102.203.907.371 1.243.839 1.078 1.882 2.12 3.195 2.593-.504.91-1.75 1.043-2.289 1.918-2.254 2.325-3.332 5.52-3.668 8.684-.57 5.152.809 10.336 2.996 14.98 1.816 3.77 3.703 7.54 5.52 11.313 1.011 1.848 2.156 3.8 4.109 4.777 1.851.91 4.207.844 5.988-.27 2.391-1.21 4.649-2.558 6.938-3.902 5.285-3.535 9.59-8.316 13.328-13.433 1.277-1.95 1.953-4.274 2.289-6.598.402-3.297-.203-6.766-1.984-9.594-.575-.941.804-1.21 1.48-1.379.605-.234 2.051-.539 1.582-1.414-.707-.437-1.617-.168-2.324-.57-.906-.371-1.715-.91-2.559-1.348.168-.773 1.078-.707 1.617-1.109 1.145-1.043 2.219-2.36 2.422-3.941.27-.57-.031-1.68-.804-1.278-.34.606-1.012.875-1.618 1.078-1.582.637-3.3.707-4.949.977-.906-.945-1.816-2.055-3.195-2.223-1.113-.234-2.391 0-3.266.774-.742-.438-.136-1.313-.101-1.918.132-.473-.336-1.211-.707-.54-.844.774-1.989 1.012-2.996 1.45-.504.098-1.114.57-1.547.133-.203-.707.336-1.313.504-1.918 1.246-3.032 3.164-5.79 3.734-9.024.137-.707.406-1.48.102-2.152-.403-.742-1.379-.773-2.122-.676a7 7 0 0 0-.808.172m.203.27c-.84-.34-.773 1.41.066.773.641-.066 1.75.133 2.055-.504-.336-.844-1.48-.305-2.121-.27m1.617.84c-.539.37-1.719-.27-1.851.605.101.605.468 1.18.402 1.816-.031 1.078-.473 2.09-.875 3.067-1.211 2.726-2.828 5.25-4.004 8.011.809.266 1.582-.304 2.355-.539.672-.707.504-1.785 1.043-2.558 1.18-2.727 2.829-5.254 3.602-8.18.137-.742.168-1.516.168-2.289-.301 0-.57-.035-.84.066m-15.754 9.156c-.976.27-2.086.27-2.859.976 1.176.371 2.387.739 3.332 1.614 1.512 1.246 2.387 3.132 3.902 4.378.504.403 1.11.707 1.75.774.504-.809-1.008-.875-1.144-1.582-.774-1.012-1.176-2.223-1.883-3.266 1.109.809 1.312 2.324 2.32 3.266.438.437.977 1.11 1.684.84.707-.504.976-1.38 1.515-2.02.372-.808-.168-1.648-.539-2.355-.839-1.45-2.422-2.457-4.105-2.66-1.313-.2-2.66-.168-3.973.035m17.168 2.054c-2.222 1.547-4.984 1.883-7.441 2.86-1.211.539-2.391 1.648-2.289 3.062 0 .774.508 1.649 1.312 1.719.91-.102 1.145-1.18 1.75-1.684 1.281-1.144 2.996-1.617 4.379-2.625.504-.238-.406.54-.574.606-1.078.707-2.356 1.11-3.332 1.953-.504.367-.942.84-1.246 1.41.371.34.203 1.113.976 1.012 1.348.168 2.696-.371 3.805-1.11a5.78 5.78 0 0 0 2.356-3.367c.335-1.144.371-2.355.64-3.535.031-.203-.101-.469-.336-.3m-17.336 1.278c-1.886.574-3.906.91-5.89.605-.168-.672-1.211.168-.438.336.942 1.043 2.152 1.852 3.465 2.39 1.312-.335 2.629-.84 3.973-.94-.102-.743-1.176-.169-1.715-.337-.844 0-1.684 0-2.528-.07 1.485-.27 3.032-.133 4.547-.066.469.605 1.243-.504.438-.672-.371-.64-.945-1.719-1.852-1.246m20.028.336c-.875.203-1.954.406-2.422 1.28-.137.403-.539 1.65.301 1.145 1.378-.875 3.199-.875 4.714-.238-.945 0-1.82-.402-2.726-.234-1.047.133-2.156.539-2.797 1.414-.367.707-.809 1.414-1.512 1.851-.539.809.738 1.145 1.313.875 2.422-.304 4.308-2.086 6.664-2.558.742.37 1.109-.809.672-1.278-.469-.34-.774-.91-1.211-1.28-.809-.708-1.918-1.212-2.996-.977m11.175.472c-1.714 1.38-4.004 1.75-6.16 1.684-.808.3.438 1.648-.605 1.715-.301.066-1.246-.067-1.008.304 1.848 0 3.668-.238 5.418-.808-1.281 1.008-2.996 1.008-4.512.941-.437-.199-.84.305-.199.305 1.008.3 1.949.809 2.992 1.074 1.078-.066 1.953-.84 2.762-1.48 1.078-1.008 1.816-2.489 1.582-4.004-.137 0-.137.234-.27.27m-29.421 1.918c-2.59.371-5.25 1.043-7.403 2.594-.742.84-1.144 1.883-1.785 2.793-1.582 2.996-1.684 6.496-1.582 9.793.27 4.613 2.055 8.988 4.004 13.129 1.719 3.77 3.301 7.574 5.59 11.008 1.246 1.953 3.535 3.3 5.89 3.133 1.547-.137 2.926-.946 4.243-1.684 1.984-1.246 4.003-2.36 5.921-3.672 4.008-2.96 7.442-6.598 10.672-10.367 1.617-1.918 3.164-4.07 3.567-6.63.472-2.491.371-5.085-.133-7.573-.438-1.617-1.277-3.098-2.086-4.547-3.066.238-6.262-.336-8.856-1.985-.636-.539-.804-1.414-1.511-1.886-.875-.371-1.922.336-2.727-.27-.742-.437-1.551.102-2.222.438-1.114.508-2.528.539-3.571-.2-.707-.304-1.582-.304-2.051-.976 0-.844-.808-1.684-1.617-1.18-1.078.067-1.984-.636-2.761-1.347-.403-.336-.973-.907-1.582-.57m-4.676 1.953c-.977-.203-.574 1.883.133.977.203-.238.64-1.45-.133-.977m5.484.168c-.707.168-.738 1.547.067 1.516.808-.07 1.011-1.684.07-1.582a.25.25 0 0 0-.137.066m.035.102c-1.011.133 0 1.953.504.906.235-.336.102-1.312-.504-.906m-5.722.066c-.977.336.808 1.246.539.168-.035-.27-.407-.472-.539-.168m24.304.235c-.508.37-1.617.437-1.683 1.043.941.238 1.918 0 2.859.27 1.719.405 3.332 1.245 5.082 1.581.473.203-.773.035-.973-.031-2.089-.371-3.972-1.48-6.128-1.516-.571-.27-1.954 0-1.446.84.707 1.012 1.918 1.485 3.028 1.887 2.156.672 4.41 1.008 6.632.773 1.313-.132 2.59-.504 3.735-1.144-.571-.672-1.614-.133-2.223-.707-2.387-1.078-4.508-2.895-7.199-3.196-.574-.035-1.149 0-1.684.2m-24.675 2.629c-.235.636-1.043 1.547-.301 2.117.738.203 1.312-.84.972-1.414.137.539-.468 1.617-1.043 1.011-.367-.808.508-1.378.875-1.953-.168-.035-.367.067-.503.239m8.82 2.254c-.707.27-.371 1.851.437 1.343.606-.3.504-1.816-.304-1.48l-.067.07zm.234-.102c-.84.035-.402 1.852.305 1.145.301-.336.371-1.247-.305-1.145m5.453.742c.473.942-1.211.57-.906.367-.035.875 1.582.438 1.008-.336 0-.066-.102-.234-.102-.03m6.16.168c-.875.27-.101 2.02.606 1.176.269-.2.238-1.078.203-1.008.438.64-1.043 1.445-1.043.504-.101-.102.672-.977.234-.672m5.454 1.074c.168.239 1.113.707.539.07-.168-.1-.371-.136-.539-.07m-23.161.61c.508.636-1.14 1.043-.839.234-.774.84 1.449.941.875-.066 0-.035.035-.407-.036-.168m23.231.031c-.609.539-.742 1.719 0 2.188.84-.032 1.043-1.145.707-1.75-.137-.27-.406-.57-.707-.438m-.238.473c-.672.539.336 1.984.875 1.043.304-.473-.036-1.618-.739-1.247-.07.067-.101.137-.136.204m5.05 1.445c-.808.508.637 1.953.84.844-.101-.438-.371.672-.738.168-.238-.305-.203-.875-.102-1.012m-26.187 1.414c-.508.574.906-.168.199-.133-.066 0-.133.067-.199.133m-7.238.203c-.305.672 1.343.672.707 1.45-.102.57-1.078.468-1.012-.102-.438.637.809 1.008 1.043.336.574-.64-.469-1.282-.301-1.719.301-.437-.336-.066-.437.035m7.238.402c-.609.407-.406 1.75.434 1.684.64-.234.64-1.176.273-1.648-.137-.203-.539-.336-.707-.035m0 .137c-.574.371-.102 1.414.535 1.277.539-.3.34-1.581-.336-1.445-.066.031-.133.102-.199.168m13.832.067c-.906.304 0 1.953.676 1.18.504-.438.031-1.887-.676-1.18m.066.101c-1.007.438.809 1.617.707.438.102-.371-.468-1.043-.707-.438m-6.867.371c-.402.57-1.176 1.649-.367 2.153.672.168.977-.942.875-1.211.234.773-1.281 1.347-1.047.304 0-.472.844-1.047.676-1.246zm16.125 1.211c.203.168.641 1.211.606.438-.098-.235-.336-.438-.606-.438m-.336.809c-.707.437-1.179 1.48-.707 2.254.676.437 1.379-.403 1.414-1.008.067-.406-.101-.574-.101-.07 0 .875-1.481 1.18-1.344.101.066-.637.602-1.21 1.277-1.21-.136-.137-.402-.235-.539-.067m4.207 3.062c.035.27.875.739.504.168-.097-.133-.336-.27-.504-.168m-32.215.27c-.671.402.61 1.414.809.707-.473.605-.906-.27-.809-.707m16.629.101c-.707.235-.437 1.614.336 1.446.707-.235.742-1.715-.133-1.582l-.101.035zm.137 0c-1.012.168.066 1.918.504.875.203-.336.066-1.347-.504-.875m15.113.47c-.539.472-.574 1.683.235 1.82.843-.204 1.011-1.653.203-1.989a.45.45 0 0 0-.438.168m.102.034c-.875.301-.137 2.086.605 1.211.301-.437.168-1.582-.605-1.21m-26.828.977c.203.875-1.114.203-1.012.066-.102.942 1.648.606 1.145-.27-.098-.1-.133.137-.133.204m17.371-.137c-.07.406.703 1.043.336.27a1.4 1.4 0 0 0-.336-.27m-.742.879c-.743.266-.875 1.918.132 1.715.743-.203 1.145-1.48.372-1.887a.46.46 0 0 0-.504.172m.031.164c-.977.172-.199 1.988.539 1.113.437-.37.238-1.785-.539-1.113m-11.512.172c-.371.539-.84 1.445-.199 2.02.469.234 1.043-1.043.402-.305-.875.101-.808-1.11-.132-1.414.167-.133.468-.672 0-.371zm-8.816 2.32c-.203.676.906-.539.066-.031-.035 0-.035.031-.066.031m.133.504c-.575.508-.672 1.617.035 2.055.804.035 1.078-1.043.773-1.649-.137-.304-.472-.707-.808-.406m.132-.031c-.57.371-.707 1.547.071 1.715.672-.067.738-1.008.402-1.48a.6.6 0 0 0-.473-.235m24.911 1.277c.168.203.64 1.246.675.508-.101-.27-.339-.539-.675-.508m-.672 1.078c-.539.504-.809 1.547-.133 2.055.738.133 1.211-.707 1.242-1.383.172-.57-.707-1.445-1.109-.672m.101.036c-.773.335-.574 2.152.438 1.546.605-.335.672-1.851-.239-1.714l-.097.066zm-8.215 1.851c-.839.235-.57 2.05.372 1.414.472-.34.503-1.719-.372-1.414m-12.925.168c-.606.402-.235 1.785.605 1.48.574-.402.305-1.851-.539-1.55-.031 0-.066.035-.066.07m12.925-.035c-1.043.203.137 1.988.539.844.168-.34 0-1.246-.539-.844m-12.859.035c-.84.402.371 1.953.676.906.097-.402-.168-1.144-.676-.906m7.609.367c-.91.305-.136 2.121.539 1.246.235-.437.032-.336-.167-.066-1.043.238-.743-1.648.234-1.211.305-.168-.707-.305-.606.031m5.082 4.344c.774.54-.742 1.953-.839.91.066-.234.336-.941-.137-.472-.504.675.707 1.582 1.043.707.168-.336.371-.907-.067-1.145m-9.492 1.246c-.808.234-.371 1.918.438 1.348.64-.34.437-2.02-.438-1.348m.168-.101c-.941.136-.133 1.988.438 1.011.203-.37.203-1.246-.438-1.011m4.074 2.863c-.875.27-.269 2.02.504 1.344.168-.235.438-1.008.168-.336-.574.574-1.379-.403-.672-.84.098-.07.235-.406 0-.168"/><path fill="#ffc13f" d="M664.031-40.723c-1.043.235.371 1.785.539.606.133-.336-.136-1.11-.539-.606m-5.957.203c-.371.876 1.344.032.469-.27a.9.9 0 0 0-.469.27m-.172 3.266c-.804.098-.3 1.715.371 1.145.372-.305.336-1.551-.371-1.145m8.989 1.68c-1.043.168.304 1.851.539.707.136-.336-.067-1.211-.539-.707m4.949.168c-1.012.37.742 1.652.539.441 0-.27-.27-.742-.539-.441m-17.235.472c-.773.438.809 1.114.473.235.031-.266-.406-.637-.473-.235m24.067.203c-.977.403.676 1.715.676.504.101-.336-.336-1.043-.676-.504m-18.375 1.415c-.91.203.504 1.48.504.504.234-.301-.305-1.11-.504-.504m23.695.539c-.437.402-.234 1.547.438 1.445.707-.27.406-1.75-.403-1.445zm5.051 1.648c-.844.606 1.109 1.277.605.27-.07-.235-.406-.606-.605-.27m-33.293 1.985c-.91.101-.234 1.953.371 1.046.168-.37.102-1.011-.371-1.047m7.004.101c-.641.371.133 1.648.672 1.113.336-.406-.035-1.582-.672-1.113m13.934.238c-1.008.47.875 1.48.64.301.067-.336-.508-.91-.64-.3m-7.137 1.043c-1.043.2.336 1.883.539.707.137-.34-.067-1.215-.539-.707m15.789 1.649c-.707.336-.504 2.086.437 1.449.571-.371.606-1.719-.269-1.586l-.07.035zm-27.535 2.726c-.809.473.804 1.516.636.403.036-.301-.402-.84-.636-.403m16.492.473c-1.008.234.437 1.75.574.637.199-.336-.168-1.246-.574-.637m15.418.3c-.574.204-.641 1.38.031 1.481.676-.066.742-1.48-.031-1.48m-27.637.505c-.906.507.875 1.48.606.406.035-.305-.403-.844-.606-.406m17.402 1.414c-.671.101-.636 1.246 0 1.347.641-.066.946-1.312.239-1.445a.32.32 0 0 0-.239.098m-11.714.875c-1.008.304.539 1.683.605.574.137-.336-.266-1.11-.605-.574m-8.618 2.39c-.804.407.071 2.055.676 1.145.27-.438 0-1.547-.676-1.145m24.508 2.188c-.773.336-.402 2.12.473 1.414.57-.371.57-1.75-.305-1.547l-.066.066zm-21.039 2.02c-.91.37.504 1.886.641.742.031-.336-.203-.942-.641-.743m12.758.034c-1.012.336.641 1.649.641.54.132-.336-.305-1.079-.641-.54m-4.914.204c-1.043.066-.102 2.02.336.84.133-.301.101-.84-.336-.84m4.242 4.746c-1.012.504.84 1.511.703.37.137-.437-.535-.976-.703-.37m-8.855 1.008c-1.043.238.472 1.75.574.605.101-.3-.238-1.176-.574-.605m4.273 2.793c-1.043.304.539 1.718.609.574.098-.305-.269-1.11-.609-.574"/></g><path d="M8.242-43.035h-2.21v20.734h2.21zm14.52 14.012c0-1.286-.121-3.106-1.078-4.692-1.223-2.058-3.317-2.3-4.184-2.3-3.227 0-5.914 3.109-5.914 6.992 0 3.945 2.867 7.023 6.336 7.023 1.375 0 3.015-.39 4.66-1.586 0-.117-.09-1.047-.09-1.105-.031-.028-.09-.688-.09-.805-1.761 1.492-3.527 1.703-4.422 1.703-2.3 0-4.273-2.062-4.332-5.23zm-8.934-1.614c.508-2 1.91-3.586 3.672-3.586.93 0 2.988.418 3.5 3.586zM33.79-34.07s.058.058.089.117c.629-.059 1.285-.149 2.39-.149.09 0 .778 0 1.524.059l-.328-1.824c-.57 0-2.602.031-4.574.988-.985-.836-2.18-.988-2.778-.988-2.597 0-4.691 2.183-4.691 4.812q0 1.616.984 2.957c-.683.957-.863 1.856-.863 2.57 0 1.106.418 1.852.746 2.243-1.523.984-1.883 2.27-1.883 3.105 0 2.184 2.84 4.004 6.485 4.004 3.644 0 6.515-1.762 6.515-4.031 0-4.184-4.843-4.184-6.066-4.184h-2.543c-.414 0-1.703 0-1.703-1.586 0-.656.12-.835.3-1.105.508.36 1.497.867 2.692.867 2.566 0 4.687-2.12 4.687-4.84a5 5 0 0 0-1.015-2.988zm-3.677 6.21c-1.316 0-2.629-.894-2.629-3.163 0-2.66 1.672-3.2 2.602-3.2 1.312 0 2.625.899 2.625 3.168 0 2.66-1.672 3.196-2.598 3.196m1.254 5.618c.656 0 3.945 0 3.945 2.062 0 1.375-2.062 2.36-4.39 2.36-2.332 0-4.422-.922-4.422-2.387 0-.09 0-2.035 2.27-2.035zM48.488-34.07s.059.058.09.117c.629-.059 1.285-.149 2.39-.149.09 0 .778 0 1.524.059l-.328-1.824c-.57 0-2.602.031-4.57.988-.989-.836-2.184-.988-2.782-.988-2.597 0-4.69 2.183-4.69 4.812q.002 1.616.987 2.957c-.687.957-.867 1.856-.867 2.57 0 1.106.418 1.852.746 2.243-1.523.984-1.883 2.27-1.883 3.105 0 2.184 2.84 4.004 6.485 4.004 3.644 0 6.515-1.762 6.515-4.031 0-4.184-4.84-4.184-6.066-4.184H43.5c-.418 0-1.703 0-1.703-1.586 0-.656.117-.835.297-1.105.508.36 1.496.867 2.691.867 2.567 0 4.692-2.12 4.692-4.84a5.03 5.03 0 0 0-1.016-2.988zm-3.675 6.21c-1.313 0-2.63-.894-2.63-3.163 0-2.66 1.676-3.2 2.602-3.2 1.313 0 2.63.899 2.63 3.168 0 2.66-1.677 3.196-2.602 3.196m1.257 5.618c.657 0 3.942 0 3.942 2.062 0 1.375-2.059 2.36-4.39 2.36s-4.423-.922-4.423-2.387c0-.09 0-2.035 2.27-2.035zm18.993-6.782c0-1.286-.122-3.106-1.079-4.692-1.226-2.058-3.316-2.3-4.183-2.3-3.227 0-5.914 3.109-5.914 6.992 0 3.945 2.867 7.023 6.332 7.023 1.375 0 3.02-.39 4.664-1.586 0-.117-.09-1.047-.09-1.105-.031-.028-.09-.688-.09-.805-1.766 1.492-3.527 1.703-4.422 1.703-2.3 0-4.273-2.062-4.336-5.23zm-8.938-1.614c.508-2 1.914-3.586 3.676-3.586.926 0 2.988.418 3.496 3.586zm14.316 1.793c0-3.015 2.27-4.988 4.961-5.02v-2.003c-2.718.031-4.304 1.617-5.109 2.781v-2.629h-2.062V-22.3h2.21zm19.075-.031c0-4.031-2.961-7.14-6.395-7.14-3.527 0-6.426 3.167-6.426 7.14 0 3.914 2.989 6.875 6.395 6.875 3.527 0 6.426-3.02 6.426-6.875m-6.395 5.023c-2.152 0-4.152-1.796-4.152-5.32 0-3.617 2.238-5.05 4.12-5.05 2.063 0 4.153 1.554 4.153 5.05 0 3.676-2.12 5.32-4.12 5.32m12.636-11.714H93.34v2.422h2.418zM93.34-24.72v2.418h2.418v-2.418zm197.484-6.573c0-2.062-.535-4.574-4.031-4.574-2.539 0-3.945 1.765-4.395 2.422-.535-1.883-2.179-2.422-3.734-2.422-2.449 0-3.734 1.586-4.242 2.215v-2.063h-2.121V-22.3h2.269v-7.437c0-1.973.778-4.332 2.961-4.332 2.746 0 2.899 1.883 2.899 2.984v8.785h2.269v-7.437c0-1.973.778-4.332 2.957-4.332 2.75 0 2.899 1.883 2.899 2.984v8.785h2.269zm14.535 2.27c0-1.286-.117-3.106-1.074-4.692-1.226-2.058-3.316-2.3-4.183-2.3-3.227 0-5.914 3.109-5.914 6.992 0 3.945 2.867 7.023 6.332 7.023 1.375 0 3.019-.39 4.66-1.586 0-.117-.086-1.047-.086-1.105-.031-.028-.09-.688-.09-.805-1.766 1.492-3.527 1.703-4.426 1.703-2.297 0-4.269-2.062-4.332-5.23zm-8.933-1.614c.508-2 1.914-3.586 3.676-3.586.925 0 2.988.418 3.496 3.586zm22.414-12.398h-2.211v8.722c-1.375-1.132-2.93-1.554-4.215-1.554-2.836 0-5.168 3.05-5.168 6.933 0 3.856 2.211 6.934 5.051 6.934 1.101 0 2.777-.36 4.269-1.824v1.523h2.274zm-2.274 17.21c-.714 1.286-1.761 2.032-3.074 2.032-1.824 0-3.976-1.406-3.976-5.11 0-3.972 2.539-5.167 4.273-5.167 1.164 0 2.121.593 2.777 1.582zm9.356-16.761h-2.57v2.566h2.57zm-.18 7.02h-2.211v13.265h2.211zm16.071 6.691c0-4.031-2.958-7.14-6.391-7.14-3.527 0-6.426 3.167-6.426 7.14 0 3.914 2.988 6.875 6.395 6.875 3.523 0 6.422-3.02 6.422-6.875m-6.391 5.023c-2.152 0-4.156-1.796-4.156-5.32 0-3.617 2.242-5.05 4.125-5.05 2.062 0 4.152 1.554 4.152 5.05 0 3.676-2.121 5.32-4.121 5.32m12.539-11.714h-2.422v2.422h2.422zm-2.422 10.847v2.418h2.422v-2.418zm177.965 1.075c1.012.925 2.269 1.644 3.883 1.644 2.867 0 5.437-2.898 5.437-6.96 0-3.618-1.914-6.907-4.691-6.907-1.227 0-3.137.39-4.692 1.703v-1.402h-2.211v19.062h2.274zm0-8.696c.684-1.015 1.82-1.672 3.043-1.672 2.211 0 4.008 2.239 4.008 5.078 0 2.989-2.063 5.141-4.274 5.141-.836 0-1.406-.3-1.941-.719-.75-.656-.836-1.195-.836-1.672zm23.355 3.317c0-1.286-.117-3.106-1.074-4.692-1.226-2.058-3.316-2.3-4.183-2.3-3.227 0-5.914 3.109-5.914 6.992 0 3.945 2.867 7.023 6.332 7.023 1.375 0 3.019-.39 4.66-1.586 0-.117-.086-1.047-.086-1.105-.031-.028-.09-.688-.09-.805-1.766 1.492-3.527 1.703-4.426 1.703-2.297 0-4.269-2.062-4.332-5.23zm-8.933-1.614c.508-2 1.914-3.586 3.676-3.586.925 0 2.988.418 3.496 3.586zm19.812-4.449a9.64 9.64 0 0 0-4.211-.93c-.687 0-4.839 0-4.839 3.887 0 1.313.714 2.211 1.164 2.629 1.074.926 1.82 1.074 3.586 1.434.984.207 2.718.566 2.718 2.152 0 2.062-2.332 2.062-2.75 2.062a7.9 7.9 0 0 1-4.539-1.496l-.359 2.032c.148.09 2.18 1.316 4.93 1.316 3.855 0 4.781-2.332 4.781-4.094 0-1.523-.926-2.48-1.047-2.629-1.106-1.136-2-1.316-3.824-1.675-1.075-.207-2.602-.508-2.602-2 0-1.852 2.094-1.852 2.481-1.852 1.586 0 2.839.36 4.156 1.105zm12.844 4.031c0-2.867-2.062-4.96-4.84-4.96-1.793 0-3.137.421-4.601 1.257l.179 1.969c1.313-.953 2.688-1.492 4.422-1.492 1.375 0 2.571 1.105 2.571 3.285v1.226c-1.344.06-3.137.149-4.93.747-2.004.687-3.168 1.793-3.168 3.289 0 1.312.777 3.734 3.316 3.734 1.645 0 3.735-.48 4.84-1.406v1.105h2.211zm-2.269 4.75c0 .598 0 1.317-.989 1.914-.804.508-1.82.598-2.269.598-1.614 0-2.719-.867-2.719-1.973 0-2.03 4.152-2.48 5.977-2.48zm17.257-4.988c0-1.824-.39-4.574-4.007-4.574-1.672 0-3.106.75-4.243 2.183v-2.03h-2.121v13.413h2.274v-7.437c0-1.856.687-4.332 2.957-4.332 2.777 0 2.867 1.941 2.867 2.984v8.785h2.273zm7.539-2.539h4.125v-1.734h-4.125v-3.793h-2.062v3.793h-2.508v1.734h2.449v8.035c0 1.735.391 3.797 2.45 3.797 2 0 3.375-.687 4.304-1.168l-.449-1.73a4.05 4.05 0 0 1-2.691 1.046c-1.313 0-1.493-1.406-1.493-2.453zm17.551 4.809c0-1.286-.117-3.106-1.074-4.692-1.227-2.058-3.316-2.3-4.184-2.3-3.226 0-5.918 3.109-5.918 6.992 0 3.945 2.871 7.023 6.336 7.023 1.375 0 3.02-.39 4.66-1.586 0-.117-.089-1.047-.089-1.105-.028-.028-.09-.688-.09-.805-1.762 1.492-3.524 1.703-4.422 1.703-2.301 0-4.27-2.062-4.332-5.23zm-8.933-1.614c.507-2 1.914-3.586 3.675-3.586.926 0 2.989.418 3.496 3.586zm15.031-4.929h-2.418v2.422h2.418zM614.34-24.72v2.418h2.418v-2.418z"/></g></svg>