<svg xmlns="http://www.w3.org/2000/svg" width="455pt" height="499pt" viewBox="0 -499 455 499"><path id="page1" d="M178.105 497.73c-3.761 0-15.808-.753-27.859-1.503-12.047 0-24.848-.754-29.363-1.508-21.836-2.258-39.906-9.789-56.473-23.34l-4.515-3.766-3.012 1.504c-5.274 2.262-12.047 3.766-17.32 2.262-7.528-1.508-12.797-4.52-21.083-12.801-15.812-15.812-21.082-28.613-17.316-45.18 3.012-13.55 6.777-21.082 12.8-24.847 3.763-1.504 4.516-2.258 8.282-2.258 4.52.754 4.52.754 5.27-1.508.754-1.504 1.507-9.785 1.507-20.328.754-11.293.754-19.574 1.504-23.34 6.778-30.121 21.082-54.215 44.426-76.801 48.188-45.929 101.649-56.472 155.11-30.871l9.035 4.516 8.281-5.27c4.516-2.257 10.543-6.023 13.555-7.531 8.281-3.762 9.785-6.023 11.293-16.562.753-6.778 3.011-13.555 8.281-23.344 6.777-13.551 6.777-15.813-4.516-29.363-27.859-32.379-40.66-61.743-40.66-91.11 0-12.047 0-14.304 6.777-28.61 6.778-15.062 7.528-17.32 7.528-26.355.754-4.515.754-8.28.754-9.035 1.504-1.504 4.515-.754 6.777 1.508 1.504 1.504 6.777 11.293 13.551 24.094 12.051 23.34 18.07 33.129 20.332 35.387 1.504.753 1.504.753 1.504-.75.754-.754.754-3.766.754-6.028 0-8.281 3.011-21.832 6.777-33.129 2.258-7.527 3.766-9.035 6.023-9.035 3.766 0 5.27 2.258 6.778 10.543 1.504 6.777 4.515 12.047 10.539 20.328 16.566 20.332 21.086 27.86 27.105 42.918 6.028 15.059 8.285 29.367 8.285 49.696 0 11.292 0 14.304.754 15.812 2.258 2.258 7.528 4.52 19.575 6.777 8.285 1.504 11.296 2.258 15.812 4.516 7.531 3.766 13.555 9.035 17.316 14.309 6.028 7.527 36.899 56.468 38.403 60.988.754 1.504 1.508 4.515 2.258 6.777l1.507 5.27-3.011 5.269c-4.52 8.285-9.035 14.309-15.813 19.578-8.281 6.778-16.566 9.789-29.363 13.551-17.32 3.766-23.344 6.778-26.356 11.297-2.257 3.766-1.503 7.527.754 18.07 3.012 10.543 3.762 18.071 3.762 28.614 0 8.281-.75 18.07-2.258 21.836-.754 1.503-.754 1.503-2.258-.754l-2.257-2.258v3.012c0 2.257-.754 6.023-.754 8.281-3.012 11.293-6.778 18.07-10.543 18.07-1.504 0-2.258.754-3.008 3.012-.758 2.262-3.766 6.023-12.051 12.801-6.773 6.023-9.035 10.543-9.035 18.07.754 5.269 2.262 9.035 6.023 13.555 3.012 3.011 6.024 5.269 18.825 13.55 12.8 7.532 18.07 17.321 13.554 24.094-2.257 5.274-6.023 6.028-19.578 6.778-15.058 1.507-24.094.753-33.129-1.504-16.566-4.52-31.625-12.801-50.449-29.368l-7.527-6.023-21.082 5.273c-11.297 3.012-21.086 6.024-21.836 6.774 0 0 .75 3.765 2.258 8.285 1.504 5.27 2.257 9.785 2.257 11.293 0 6.777-6.023 11.293-18.07 15.059-4.519 1.507-25.601 1.507-35.391.753" transform="scale(1 -1)"/></svg>