<svg xmlns="http://www.w3.org/2000/svg" width="910pt" height="422pt" viewBox="0 -422 910 422"><g id="page1" transform="scale(1 -1)"><path fill="#cc9c6f" d="M142.73 324.148a7141 7141 0 0 1 311.813-6.804c104.062 0 208.082 2.269 311.812 6.804v17.008a7141 7141 0 0 1-311.812 6.805 7141 7141 0 0 1-311.813-6.805z"/><path fill="none" stroke="#000" stroke-linecap="round" stroke-linejoin="round" stroke-width="2" d="M142.73 324.148a7141 7141 0 0 1 311.813-6.804c104.062 0 208.082 2.269 311.812 6.804v17.008a7141 7141 0 0 1-311.812 6.805 7141 7141 0 0 1-311.813-6.805z"/><path fill="#fff" d="M176.746 332.652a5.665 5.665 0 0 1-5.668 5.668 5.667 5.667 0 1 1 0-11.336 5.667 5.667 0 0 1 5.668 5.668"/><path fill="none" stroke="#000" stroke-linecap="round" stroke-linejoin="round" stroke-width="2" d="M176.746 332.652a5.665 5.665 0 0 1-5.668 5.668 5.667 5.667 0 1 1 0-11.336 5.667 5.667 0 0 1 5.668 5.668"/><path fill="#fff" d="M743.676 332.652a5.665 5.665 0 0 1-5.668 5.668 5.667 5.667 0 1 1 0-11.336 5.667 5.667 0 0 1 5.668 5.668"/><path fill="none" stroke="#000" stroke-linecap="round" stroke-linejoin="round" stroke-width="2" d="M743.676 332.652a5.665 5.665 0 0 1-5.668 5.668 5.667 5.667 0 1 1 0-11.336 5.667 5.667 0 0 1 5.668 5.668"/><path fill="#d3ae37" d="M341.156 86.04c0 15.655-76.144 28.347-170.078 28.347C77.148 114.387 1 101.695 1 86.039s76.148-28.348 170.078-28.348c93.934 0 170.078 12.692 170.078 28.348"/><path fill="none" stroke="#000" stroke-linecap="round" stroke-linejoin="round" stroke-width="2" d="M341.156 86.04c0 15.655-76.144 28.347-170.078 28.347C77.148 114.387 1 101.695 1 86.039s76.148-28.348 170.078-28.348c93.934 0 170.078 12.692 170.078 28.348m-170.078 226.77 161.41-217.813m-161.41 217.813L117.32 112.941m53.758 199.868L19.984 73.012m151.094 239.797v19.843"/><g fill-rule="evenodd"><path d="M105.824 137.25c-2.289-1.414-4.386-4.094-4.386-5.652 0-.926.828-2.239 2.582-4.09 1.414-1.512 3.121-3.801 3.753-5.117l1.122-2.387-1.368-2.731c-.777-1.507-1.898-4.382-2.484-6.429C98.66 90.09 92.133 82.488 69.82 70.016c-6.968-3.848-9.406-5.75-11.011-8.282-1.512-2.535-1.512-5.117.144-7.504 4.777-7.066 24.07-6.187 40.098 1.805 11.742 5.797 20.316 14.125 24.75 24.016 5.066 11.16 6.285 22.804 3.363 31.719-1.121 3.41-4.531 8.476-6.676 9.89-1.461.973-1.949 1.754-2.679 4.531-1.364 5.02-4.192 10.329-5.993 11.254-2 1.024-4.093.977-5.992-.195m5.555-4.387c-.586-1.07-.441-1.652.973-4.429 2.191-4.336 4.531-11.84 5.554-17.786 4.383-25.773-14.664-49.988-43.312-55.003-2.485-.438-5.7-.782-7.113-.782-1.95 0-2.633-.242-3.02-1.023-.488-.926-.344-1.07 1.41-1.559 2.875-.828 11.352-.683 16.227.246 15.199 2.871 28.937 11.352 36.297 22.457 10.621 15.934 11.007 37.809.777 44.871-1.852 1.27-2.238 1.95-3.457 5.848-1.219 3.945-3.07 8.332-3.559 8.332-.047 0-.437-.535-.777-1.172m-4.094-2.773-1.707-.731 1.805-2.293c.926-1.265 2.144-3.359 2.629-4.675.926-2.34.926-2.34-.68-6.137-.828-2.098-2.293-6.191-3.215-9.016-3.656-11.449-7.066-17.344-13.742-24.02-5.164-5.163-8.621-7.6-19.34-13.788C64.41 64.512 61.391 62.465 61 61.394c-.145-.343.73-1.609 1.902-2.874l2.141-2.243 4.094.34c12.035 1.024 24.02 6.14 32.547 13.985 6.964 6.43 11.496 13.789 13.882 22.558 1.368 5.016 1.657 16.465.539 21.094-1.757 7.16-4.093 13.059-6.14 15.445-.926 1.024-1.121 1.071-2.68.391"/><path fill="#f5a701" d="M108.602 138.371c.386-.144.828-.098 1.019.051.149.191-.144.289-.68.289-.632-.047-.73-.145-.339-.34m-5.411-2.875-1.507-1.707 1.703 1.512c.926.879 1.656 1.609 1.656 1.707 0 .387-.391.047-1.852-1.512m10.477.098c.195-.242.437-.489.586-.489.144 0 .094.247-.051.489-.195.293-.437.535-.586.535-.144 0-.144-.242.051-.535m-2.289-2.731c-.586-1.07-.441-1.652.973-4.429 2.191-4.336 4.531-11.84 5.554-17.786 4.383-25.773-14.664-49.988-43.312-55.003-2.485-.438-5.7-.782-7.113-.782-1.95 0-2.633-.242-3.02-1.023-.488-.926-.344-1.07 1.41-1.559 2.875-.828 11.352-.683 16.227.246 15.199 2.871 28.937 11.352 36.297 22.457 10.621 15.934 11.007 37.809.777 44.871-1.852 1.27-2.238 1.95-3.457 5.848-1.219 3.945-3.07 8.332-3.559 8.332-.047 0-.437-.535-.777-1.172m-.828-4.871c.972-1.605 2.14-4.09 2.629-5.504s.976-2.484 1.074-2.34c.633.586-3.754 9.747-4.973 10.524-.293.148.293-1.024 1.27-2.68m5.992 1.903c0-.391.145-.536.34-.34a.467.467 0 0 1 0 .679c-.195.196-.34.047-.34-.339m-10.672-.489c-.144-.242.149-.777.633-1.168.832-.633.832-.586.246.145-.586.73-.586.926 0 1.172.438.144.484.242.047.289-.34 0-.777-.145-.926-.438m-2.094-2.144c1.121-1.121 2.145-2.047 2.289-2.047.149 0-.679.926-1.8 2.047-1.121 1.172-2.145 2.097-2.293 2.097-.145 0 .683-.925 1.804-2.097m13.25 1.074c0-.391.196-.535.391-.344a.473.473 0 0 1 0 .684c-.195.195-.391.047-.391-.34m-9.109-2.098c.195-.293.437-.535.586-.535.144 0 .144.242-.051.535s-.437.535-.582.535c-.148 0-.098-.242.047-.535m1.363-2.093c.731-1.61.977-1.903.977-1.219 0 .293-.344.976-.781 1.512-.778.972-.778.925-.196-.293m8.821.535c0-.391.144-.535.339-.34a.467.467 0 0 1 0 .68c-.195.195-.339.05-.339-.34m1.8-2.629c.196-.246.442-.488.586-.488.145 0 .145.242-.05.488-.192.293-.438.535-.583.535s-.097-.242.047-.535m-9.644-.488c0-.391.195-.536.387-.34a.575.575 0 0 1 0 .679c-.192.196-.387.051-.387-.339m.387-2.047c-.192-.875-.145-1.071.246-.68.293.289.437.824.339 1.215-.144.39-.39.148-.585-.535m3.898-.586c0-.438.195-1.364.441-2.094.34-1.023.387-1.07.438-.242 0 .586-.195 1.508-.438 2.094-.293.632-.441.73-.441.242m9.016-.485c.195-.293.437-.539.582-.539.148 0 .097.246-.047.539-.196.243-.438.485-.586.485-.145 0-.098-.242.051-.485m-13.985-1.367c-.535-1.265-.39-1.605.242-.582.293.535.442 1.07.293 1.219-.097.144-.386-.149-.535-.637m15.055-.242c.144-.242.437-.488.535-.488.149 0 .149.246-.047.488-.148.293-.437.535-.586.535-.144 0-.097-.242.098-.535m-9.16-2.047c0-.391.195-.535.39-.34.149.145.149.489 0 .684-.195.191-.39.047-.39-.344m-9.891-1.07c0-.391.149-.535.344-.34a.47.47 0 0 1 0 .68c-.195.195-.344.05-.344-.34m2.633 0c0-.391.144-.535.34-.34a.47.47 0 0 1 0 .68c-.196.195-.34.05-.34-.34m7.894-1.559c0-.73.094-1.023.243-.633.144.34.144.922 0 1.313-.149.344-.243.051-.243-.68m-8.429 0c0-.39.144-.539.34-.344a.473.473 0 0 1 0 .684c-.196.195-.34.051-.34-.34m-.535-1.558c0-.391.144-.539.339-.344a.47.47 0 0 1 0 .683c-.195.196-.339.047-.339-.339m-3.121-1.563c0-.387.148-.535.343-.34a.47.47 0 0 1 0 .684c-.195.195-.343.047-.343-.344m2.632 0c0-.387.145-.535.34-.34a.47.47 0 0 1 0 .684c-.195.195-.34.047-.34-.344m10.086-4.43c0-2.875.047-3.949.196-2.437.093 1.512.093 3.848 0 5.215-.149 1.312-.196.093-.196-2.778m11.301 3.606c0-.586.149-.735.293-.293.148.34.148.828 0 .973-.195.195-.34-.145-.293-.68m-21.922-.735c0-.386.145-.535.34-.339a.47.47 0 0 1 0 .683c-.195.196-.34.047-.34-.344m-2.633-.535c0-.39.196-.535.391-.34a.59.59 0 0 1 0 .68c-.195.195-.391.051-.391-.34m2.145-1.312c.047-.637.144-.735.293-.344.195.391.144.828 0 1.024-.195.148-.293-.145-.293-.68m-2.633-.246c0-.391.149-.535.344-.34s.195.484 0 .68c-.195.195-.344.05-.344-.34m25.629-.778c0-.879.098-1.121.242-.636.149.488.149 1.218 0 1.558-.144.344-.242-.047-.242-.922m-24.066-1.804c0-.391.144-.535.339-.34.196.144.196.484 0 .68-.195.195-.339.05-.339-.34m-.539-1.559c0-.391.148-.535.343-.391a.53.53 0 0 1 0 .731c-.195.195-.343 0-.343-.34m-.973-2.387c-.828-1.902-.684-2.34.242-.586.441.829.731 1.559.586 1.708-.098.093-.488-.391-.828-1.122m25.578-1.023c0-.879.098-1.121.242-.633.149.484.149 1.215 0 1.559-.144.34-.242-.051-.242-.926m-12.52-.242c0-.735.094-1.024.243-.684.144.39.144.973 0 1.317-.149.34-.243.046-.243-.633m-16.226 0c0-.39.144-.54.34-.344a.473.473 0 0 1 0 .684c-.196.195-.34.047-.34-.34m15.641-2.926c.046-.582.144-.73.339-.293.149.344.098.828-.046.977-.196.195-.293-.149-.293-.684m-15.153-1.266c-.293-.586-.437-1.023-.293-1.023s.535.437.828 1.023c.293.582.438 1.07.293 1.07-.144 0-.488-.488-.828-1.07m27.672.242c0-.632.149-.73.293-.34.148.391.148.829 0 1.024-.195.145-.34-.148-.293-.684m-13.008-1.07c0-.586.149-.73.293-.293.145.34.145.828-.051.973-.144.195-.289-.094-.242-.68m-16.027-1.316c-.195-.39-.098-.489.242-.242.34.195.633.484.633.582 0 .441-.488.246-.875-.34m15.441-.438c0-.39.149-.535.344-.343.195.148.195.488 0 .683s-.344.05-.344-.34m-19.047-.632c-.246-.344-.148-.442.196-.196.633.34.828.828.387.828-.145 0-.387-.293-.583-.632m2.583-.489c-.247-.39-.149-.488.242-.242.586.387.78.828.34.828-.098 0-.387-.293-.582-.586m-4.434-1.902c-.633-.824-.633-.824.195-.191.875.68 1.117 1.117.73 1.117-.148 0-.538-.387-.925-.926m2.582-.484c-.633-.829-.633-.88.195-.247.875.684 1.168 1.121.73 1.121-.097 0-.535-.39-.925-.874m17.101.097c-.539-1.316-.39-1.656.243-.586.293.489.437 1.024.293 1.168-.149.149-.391-.144-.536-.582m13.204-.246c0-.387.144-.535.339-.34a.47.47 0 0 1 0 .684c-.195.195-.339.047-.339-.344m-.539-1.558c0-.387.148-.536.343-.34a.47.47 0 0 1 0 .683c-.195.195-.343.047-.343-.343m-33.618-2.727-2.582-2.777 2.73 2.629c2.532 2.386 2.973 2.875 2.583 2.875-.098 0-1.317-1.266-2.73-2.727m18.758.098c-.195-.344-.242-.684-.097-.829.148-.148.39.098.539.536.386.925.093 1.12-.442.293m-24.02-1.61c-.19-.39-.097-.488.247-.242.34.195.632.484.632.586 0 .437-.488.242-.878-.344m22.95-.535c-.242-.39-.149-.488.242-.242.344.195.586.484.586.582 0 .437-.438.246-.828-.34M84.68 79.469c-.633-.828-.633-.828.195-.196.875.684 1.168 1.121.73 1.121-.148 0-.535-.437-.925-.925m2.875-.781-.977-1.169 1.168.973c.637.586 1.172 1.074 1.172 1.172 0 .438-.437.145-1.363-.977m21.386.585c-.242-.39-.144-.488.196-.242.633.387.828.825.39.825-.148 0-.39-.243-.586-.583m-26.066-1.07c-.242-.344-.144-.441.246-.195.29.195.582.437.582.582 0 .441-.437.246-.828-.387m24.75-.832c-.68-.828-.633-.828.195-.195.828.683 1.121 1.12.684 1.12-.098 0-.488-.386-.879-.925m-26.309-.195c-.242-.387-.144-.438.243-.242.293.195.585.488.585.632 0 .442-.488.196-.828-.39m4.141 0c-.195-.387-.144-.438.246-.242.34.195.582.488.582.632 0 .442-.437.196-.828-.39m-2.047-1.559c-.242-.386-.144-.484.196-.242.343.195.632.488.632.633 0 .39-.484.195-.828-.39m19.539-3.457-3.363-3.508 3.508 3.364c1.949 1.847 3.558 3.457 3.558 3.554 0 .34-.535-.148-3.703-3.41m17.442 1.899c-.243-.391-.145-.485.242-.243.293.196.586.489.586.586 0 .438-.438.242-.828-.343m-44.825-.536c-.242-.39-.144-.437.246-.242.34.242.582.488.582.633 0 .438-.437.195-.828-.39m4.192-.195c-.973-.777-.973-.777.144-.242.684.293 1.172.683 1.172.777 0 .442-.246.293-1.316-.535m-2.582-1.559c-.973-.78-.973-.78.144-.242.637.293 1.172.68 1.172.778 0 .437-.293.293-1.316-.536m40.34-1.656c-.68-.828-.633-.879.195-.195.879.684 1.121 1.07.684 1.07-.098 0-.489-.386-.879-.875m-43.993-.437c-.976-.782-.976-.782.145-.246.633.293 1.168.683 1.168.828 0 .39-.242.246-1.313-.582m24.458-1.95-.977-1.171 1.172 1.027c1.07.922 1.41 1.363.972 1.363-.097 0-.632-.535-1.167-1.218m-28.114-.144c-.973-.781-.973-.781.149-.246.632.34 1.168.683 1.168.828 0 .39-.243.293-1.317-.582m26.016-1.367c-.192-.34-.145-.438.246-.196.34.196.582.442.582.587 0 .437-.438.242-.828-.391m-34.64-1.313c-.68-.832-.634-.879.194-.195.88.68 1.122 1.07.684 1.07-.098 0-.488-.39-.879-.875m4.433.29c-.242-.391-.145-.438.246-.243.293.195.586.489.586.633 0 .438-.442.195-.832-.39m28.648 0c-.242-.391-.144-.438.246-.243.34.195.582.489.582.633 0 .438-.437.195-.828-.39M64.116 64.17c-.242-.387-.144-.484.246-.242.293.195.582.488.582.586 0 .437-.484.242-.828-.344m24.02-2.094c-2.29-1.12-3.606-1.898-2.875-1.707 1.562.442 7.308 3.266 7.308 3.606 0 .343.39.488-4.433-1.899m22.605 1.266c-.679-.828-.633-.875.196-.242.878.683 1.121 1.12.683 1.12-.098 0-.488-.39-.879-.878m-48.96-1.07-1.27-1.415 1.414 1.266c1.363 1.172 1.707 1.61 1.265 1.61-.097 0-.73-.684-1.41-1.462m-2.876.34c-.246-.387-.148-.489.242-.243.293.196.586.489.586.586 0 .438-.437.242-.828-.344m49.5-1.07c-.246-.392-.148-.438.242-.247.293.246.586.488.586.637 0 .437-.437.191-.828-.39m-25.578-1.806a.467.467 0 0 1 .68 0c.195.149.05.344-.34.344s-.535-.195-.34-.344m-20.219-.73c.145-.29.438-.484.582-.484.149 0 .098.195-.047.484-.195.293-.488.535-.585.535-.145 0-.145-.242.05-.535m18.66.195c.196-.195.485-.195.68 0s.051.34-.34.34-.535-.145-.34-.34m-1.851-.535c.387-.145.828-.145 1.023.05.145.145-.148.29-.683.243-.633 0-.73-.148-.34-.293m24.312-.242c-.246-.39-.148-.488.192-.246.344.195.637.488.637.633 0 .39-.489.195-.829-.387m-26.359-.293c.34-.148.828-.098.973.047.195.195-.145.293-.68.293-.586-.047-.73-.145-.293-.34m-2.094-.488c.387-.145.829-.145.973 0 .195.195-.098.34-.684.293-.582 0-.73-.149-.289-.293m-10.914-.875c.243-.246 1.703-.344 3.262-.246l2.777.148-3.215.293c-1.8.145-3.07.047-2.824-.195m7.5.34c.489-.145 1.219-.145 1.563 0 .34.144-.051.242-.926.242-.879 0-1.172-.098-.637-.242m-13.445-2.778c.195-.293.438-.535.586-.535.144 0 .144.242-.05.535-.196.293-.438.535-.583.535-.148 0-.098-.242.047-.535m33.813-1.363a.47.47 0 0 1 .683 0c.192.144.047.34-.344.34s-.535-.196-.34-.34m-1.56-.54c.145-.19.49-.19.68 0 .196.196.051.345-.34.345s-.534-.149-.34-.344m-29.62-.679c.144-.293.437-.535.582-.535.148 0 .097.242-.098.535-.144.242-.437.488-.582.488-.098 0-.098-.246.098-.488m28.011.145c.196-.196.536-.196.731 0s0 .343-.34.343c-.39 0-.535-.148-.39-.343m-6.234-1.559a.467.467 0 0 1 .68 0c.195.195.05.34-.34.34s-.535-.145-.34-.34m-17.2-.535c.196-.195.536-.195.684 0 .196.195.047.34-.343.34-.387 0-.535-.145-.34-.34m14.325 0c.39-.145.828-.145 1.024.05.144.192-.149.29-.684.29-.633-.047-.73-.145-.34-.34M68.7 49.262c.535-.098 1.364-.098 1.852 0 .484.144.097.242-.926.242-.977 0-1.414-.098-.926-.242m6.04 0c.632-.098 1.558-.098 2.046 0 .535.144 0 .242-1.168.242-1.12 0-1.558-.098-.879-.242"/><path fill="#fcd900" d="m107.285 129.797-1.168-.586 1.852-2.484c.972-1.364 2.14-3.461 2.582-4.727.777-2.094.73-2.34-.442-4.871-.679-1.414-2.336-5.992-3.703-10.184-6.136-18.61-13.347-26.648-34.687-38.586-3.801-2.144-7.797-4.675-8.914-5.601l-2.047-1.754 2.094-2.098 2.144-2.14 4.531.34c8.332.632 19.684 4.578 26.454 9.257 3.703 2.531 9.988 8.672 12.472 12.18 2.875 4.14 5.606 9.988 6.82 14.86 1.465 5.75 1.368 18.124-.144 23.191-1.559 5.164-2.973 8.769-4.578 11.449-1.461 2.531-1.512 2.582-3.266 1.754"/><path d="M168.605 137.25c-2.292-1.414-4.386-4.094-4.386-5.652 0-.926.828-2.239 2.582-4.09 1.414-1.512 3.121-3.801 3.754-5.117l1.117-2.387-1.363-2.731c-.778-1.507-1.899-4.382-2.485-6.429-6.383-20.754-12.91-28.356-35.222-40.828-6.969-3.848-9.407-5.75-11.012-8.282-1.512-2.535-1.512-5.117.144-7.504 4.778-7.066 24.071-6.187 40.098 1.805 11.742 5.797 20.316 14.125 24.75 24.016 5.066 11.16 6.285 22.804 3.363 31.719-1.121 3.41-4.531 8.476-6.675 9.89-1.461.973-1.95 1.754-2.68 4.531-1.363 5.02-4.192 10.329-5.992 11.254-2 1.024-4.094.977-5.993-.195m5.551-4.387c-.582-1.07-.437-1.652.977-4.429 2.191-4.336 4.531-11.84 5.555-17.786 4.382-25.773-14.665-49.988-43.313-55.003-2.484-.438-5.699-.782-7.113-.782-1.949 0-2.633-.242-3.02-1.023-.488-.926-.344-1.07 1.41-1.559 2.875-.828 11.352-.683 16.227.246 15.199 2.871 28.937 11.352 36.297 22.457 10.621 15.934 11.008 37.809.777 44.871-1.851 1.27-2.238 1.95-3.457 5.848-1.219 3.945-3.07 8.332-3.558 8.332-.047 0-.438-.535-.782-1.172m-4.09-2.773-1.707-.731 1.805-2.293c.926-1.265 2.145-3.359 2.629-4.675.926-2.34.926-2.34-.68-6.137-.828-2.098-2.293-6.191-3.218-9.016-3.653-11.449-7.063-17.344-13.739-24.02-5.164-5.163-8.621-7.6-19.34-13.788-8.625-4.918-11.644-6.965-12.035-8.036-.144-.343.731-1.609 1.899-2.874l2.144-2.243 4.094.34c12.035 1.024 24.02 6.14 32.547 13.985 6.965 6.43 11.496 13.789 13.883 22.558 1.367 5.016 1.656 16.465.535 21.094-1.754 7.16-4.09 13.059-6.137 15.445-.926 1.024-1.121 1.071-2.68.391"/><path fill="#f5a701" d="M171.383 138.371c.387-.144.828-.098 1.019.051.149.191-.144.289-.679.289-.633-.047-.731-.145-.34-.34m-5.41-2.875-1.508-1.707 1.703 1.512c.926.879 1.656 1.609 1.656 1.707 0 .387-.39.047-1.851-1.512m10.476.098c.196-.242.438-.489.582-.489.149 0 .098.247-.047.489-.195.293-.437.535-.586.535-.144 0-.144-.242.051-.535m-2.293-2.731c-.582-1.07-.437-1.652.977-4.429 2.191-4.336 4.531-11.84 5.555-17.786 4.382-25.773-14.665-49.988-43.313-55.003-2.484-.438-5.699-.782-7.113-.782-1.949 0-2.633-.242-3.02-1.023-.488-.926-.344-1.07 1.41-1.559 2.875-.828 11.352-.683 16.227.246 15.199 2.871 28.937 11.352 36.297 22.457 10.621 15.934 11.008 37.809.777 44.871-1.851 1.27-2.238 1.95-3.457 5.848-1.219 3.945-3.07 8.332-3.558 8.332-.047 0-.438-.535-.782-1.172m-.828-4.871c.977-1.605 2.145-4.09 2.633-5.504s.973-2.484 1.07-2.34c.633.586-3.75 9.747-4.968 10.524-.293.148.292-1.024 1.265-2.68m5.996 1.903c0-.391.145-.536.34-.34a.467.467 0 0 1 0 .679c-.195.196-.34.047-.34-.339m-10.672-.489c-.144-.242.149-.777.633-1.168.828-.633.828-.586.246.145-.586.73-.586.926 0 1.172.438.144.485.242.047.289-.34 0-.777-.145-.926-.438m-2.093-2.144c1.121-1.121 2.144-2.047 2.289-2.047.144 0-.684.926-1.801 2.047-1.121 1.172-2.145 2.097-2.293 2.097-.145 0 .684-.925 1.805-2.097m13.25 1.074c0-.391.195-.535.39-.344a.47.47 0 0 1 0 .684c-.195.195-.39.047-.39-.34m-9.11-2.098c.196-.293.438-.535.586-.535.145 0 .145.242-.051.535s-.437.535-.586.535c-.144 0-.093-.242.051-.535m1.364-2.093c.73-1.61.976-1.903.976-1.219 0 .293-.344.976-.781 1.512-.778.972-.778.925-.195-.293m8.82.535c0-.391.144-.535.34-.34a.47.47 0 0 1 0 .68c-.196.195-.34.05-.34-.34m1.801-2.629c.195-.246.437-.488.586-.488.144 0 .144.242-.051.488-.196.293-.438.535-.582.535-.149 0-.098-.242.047-.535m-9.645-.488c0-.391.191-.536.387-.34a.575.575 0 0 1 0 .679c-.196.196-.387.051-.387-.339m.387-2.047c-.196-.875-.145-1.071.246-.68.293.289.437.824.34 1.215-.145.39-.391.148-.586-.535m3.898-.586c0-.438.196-1.364.442-2.094.339-1.023.386-1.07.437-.242 0 .586-.195 1.508-.437 2.094-.293.632-.442.73-.442.242m9.016-.485c.191-.293.437-.539.582-.539.148 0 .098.246-.047.539-.195.243-.437.485-.586.485-.144 0-.098-.242.051-.485m-13.985-1.367c-.535-1.265-.39-1.605.243-.582.293.535.441 1.07.293 1.219-.098.144-.387-.149-.536-.637m15.055-.242c.145-.242.438-.488.535-.488.149 0 .149.246-.047.488-.148.293-.437.535-.585.535-.145 0-.098-.242.097-.535m-9.16-2.047c0-.391.195-.535.391-.34.144.145.144.489 0 .684-.196.191-.391.047-.391-.344m-9.891-1.07c0-.391.149-.535.344-.34a.473.473 0 0 1 0 .68c-.195.195-.344.05-.344-.34m2.633 0c0-.391.145-.535.34-.34a.47.47 0 0 1 0 .68c-.195.195-.34.05-.34-.34m7.891-1.559c0-.73.097-1.023.246-.633.144.34.144.922 0 1.313-.149.344-.246.051-.246-.68m-8.43 0c0-.39.149-.539.344-.344s.195.489 0 .684-.344.051-.344-.34m-.531-1.558c0-.391.144-.539.34-.344a.48.48 0 0 1 0 .683c-.196.196-.34.047-.34-.339m-3.121-1.563c0-.387.148-.535.344-.34a.473.473 0 0 1 0 .684c-.196.195-.344.047-.344-.344m2.633 0c0-.387.144-.535.339-.34a.47.47 0 0 1 0 .684c-.195.195-.339.047-.339-.344m10.086-4.43c0-2.875.046-3.949.195-2.437.094 1.512.094 3.848 0 5.215-.149 1.312-.195.093-.195-2.778m11.3 3.606c0-.586.149-.735.293-.293.145.34.145.828 0 .973-.195.195-.34-.145-.293-.68m-21.925-.735c0-.386.148-.535.343-.339a.47.47 0 0 1 0 .683c-.195.196-.343.047-.343-.344m-2.629-.535c0-.39.195-.535.39-.34a.59.59 0 0 1 0 .68c-.195.195-.39.051-.39-.34m2.144-1.312c.047-.637.145-.735.293-.344.192.391.145.828 0 1.024-.195.148-.293-.145-.293-.68m-2.633-.246c0-.391.149-.535.344-.34a.473.473 0 0 1 0 .68c-.195.195-.344.05-.344-.34m25.629-.778c0-.879.098-1.121.242-.636.149.488.149 1.218 0 1.558-.144.344-.242-.047-.242-.922m-24.066-1.804c0-.391.144-.535.34-.34.191.144.191.484 0 .68-.196.195-.34.05-.34-.34m-.539-1.559c0-.391.148-.535.344-.391a.53.53 0 0 1 0 .731c-.196.195-.344 0-.344-.34m-.973-2.387c-.828-1.902-.683-2.34.242-.586.438.829.731 1.559.586 1.708-.097.093-.488-.391-.828-1.122m25.578-1.023c0-.879.098-1.121.242-.633.149.484.149 1.215 0 1.559-.144.34-.242-.051-.242-.926m-12.523-.242c0-.735.097-1.024.246-.684.144.39.144.973 0 1.317-.149.34-.246.046-.246-.633m-16.223 0c0-.39.145-.54.34-.344s.195.488 0 .684-.34.047-.34-.34m15.641-2.926c.047-.582.144-.73.34-.293.144.344.097.828-.047.977-.196.195-.293-.149-.293-.684m-15.153-1.266c-.293-.586-.437-1.023-.293-1.023s.536.437.829 1.023c.293.582.437 1.07.293 1.07-.149 0-.489-.488-.829-1.07m27.672.242c0-.632.149-.73.293-.34.145.391.145.829 0 1.024-.195.145-.34-.148-.293-.684m-13.007-1.07c0-.586.148-.73.292-.293.145.34.145.828-.05.973-.145.195-.289-.094-.242-.68m-16.032-1.316c-.191-.39-.093-.489.246-.242.34.195.633.484.633.582 0 .441-.488.246-.879-.34m15.446-.438c0-.39.148-.535.343-.343.196.148.196.488 0 .683-.195.196-.343.05-.343-.34m-19.047-.632c-.246-.344-.149-.442.191-.196.637.34.828.828.391.828-.145 0-.391-.293-.582-.632m2.582-.489c-.246-.39-.149-.488.242-.242.586.387.777.828.34.828-.098 0-.391-.293-.582-.586m-4.434-1.902c-.637-.824-.637-.824.192-.191.878.68 1.121 1.117.734 1.117-.149 0-.539-.387-.926-.926m2.582-.484c-.637-.829-.637-.88.195-.247.875.684 1.168 1.121.731 1.121-.098 0-.539-.39-.926-.874m17.102.097c-.539-1.316-.391-1.656.242-.586.293.489.437 1.024.293 1.168-.149.149-.391-.144-.535-.582m13.203-.246c0-.387.144-.535.34-.34a.473.473 0 0 1 0 .684c-.196.195-.34.047-.34-.344m-.539-1.558c0-.387.148-.536.344-.34a.473.473 0 0 1 0 .683c-.196.195-.344.047-.344-.343m-33.617-2.727-2.582-2.777 2.73 2.629c2.531 2.386 2.973 2.875 2.582 2.875-.098 0-1.316-1.266-2.73-2.727m18.757.098c-.195-.344-.242-.684-.097-.829.148-.148.39.098.539.536.387.925.094 1.12-.442.293m-24.019-1.61c-.195-.39-.098-.488.246-.242.34.195.633.484.633.586 0 .437-.488.242-.879-.344m22.949-.535c-.242-.39-.148-.488.242-.242.34.195.586.484.586.582 0 .437-.437.246-.828-.34m-25.285-1.363c-.637-.828-.637-.828.191-.196.879.684 1.172 1.121.735 1.121-.149 0-.539-.437-.926-.925m2.875-.781-.977-1.169 1.168.973c.633.586 1.172 1.074 1.172 1.172 0 .438-.437.145-1.363-.977m21.387.585c-.243-.39-.149-.488.195-.242.633.387.828.825.391.825-.149 0-.391-.243-.586-.583m-26.067-1.07c-.242-.344-.144-.441.242-.195.293.195.586.437.586.582 0 .441-.437.246-.828-.387m24.75-.832c-.679-.828-.633-.828.196-.195.828.683 1.121 1.12.683 1.12-.097 0-.488-.386-.879-.925m-26.308-.195c-.243-.387-.145-.438.242-.242.293.195.586.488.586.632 0 .442-.488.196-.828-.39m4.14 0c-.195-.387-.144-.438.242-.242.344.195.586.488.586.632 0 .442-.437.196-.828-.39m-2.047-1.559c-.242-.386-.144-.484.196-.242.343.195.633.488.633.633 0 .39-.485.195-.829-.39m19.539-3.457-3.363-3.508 3.508 3.364c1.949 1.847 3.559 3.457 3.559 3.554 0 .34-.539-.148-3.704-3.41m17.442 1.899c-.242-.391-.149-.485.242-.243.293.196.586.489.586.586 0 .438-.437.242-.828-.343m-44.824-.536c-.243-.39-.145-.437.246-.242.34.242.582.488.582.633 0 .438-.438.195-.828-.39m4.191-.195c-.976-.777-.976-.777.145-.242.683.293 1.171.683 1.171.777 0 .442-.246.293-1.316-.535m-2.582-1.559c-.977-.78-.977-.78.145-.242.632.293 1.171.68 1.171.778 0 .437-.293.293-1.316-.536m40.34-1.656c-.684-.828-.633-.879.195-.195.875.684 1.121 1.07.684 1.07-.098 0-.488-.386-.879-.875m-43.996-.437c-.973-.782-.973-.782.148-.246.633.293 1.168.683 1.168.828 0 .39-.242.246-1.316-.582m24.461-1.95-.977-1.171 1.168 1.027c1.074.922 1.414 1.363.977 1.363-.098 0-.633-.535-1.168-1.218m-28.114-.144c-.972-.781-.972-.781.149-.246.633.34 1.168.683 1.168.828 0 .39-.246.293-1.317-.582m26.016-1.367c-.195-.34-.144-.438.246-.196.34.196.582.442.582.587 0 .437-.437.242-.828-.391m-34.641-1.313c-.679-.832-.632-.879.196-.195.879.68 1.121 1.07.683 1.07-.097 0-.488-.39-.879-.875m4.438.29c-.246-.391-.148-.438.242-.243.293.195.582.489.582.633 0 .438-.437.195-.824-.39m28.644 0c-.242-.391-.144-.438.247-.243.339.195.582.489.582.633 0 .438-.438.195-.829-.39m-30.207-1.024c-.242-.387-.144-.484.247-.242.289.195.582.488.582.586 0 .437-.485.242-.829-.344m24.02-2.094c-2.289-1.12-3.605-1.898-2.875-1.707 1.559.442 7.309 3.266 7.309 3.606 0 .343.39.488-4.434-1.899m22.605 1.266c-.679-.828-.632-.875.196-.242.879.683 1.121 1.12.683 1.12-.097 0-.488-.39-.879-.878m-48.96-1.07-1.27-1.415 1.414 1.266c1.363 1.172 1.703 1.61 1.266 1.61-.098 0-.731-.684-1.41-1.462m-2.875.34c-.247-.387-.149-.489.242-.243.293.196.586.489.586.586 0 .438-.442.242-.828-.344m49.5-1.07c-.247-.392-.149-.438.242-.247.293.246.586.488.586.637 0 .437-.442.191-.828-.39m-25.579-1.806a.47.47 0 0 1 .68 0c.195.149.051.344-.34.344-.39 0-.535-.195-.34-.344m-20.218-.73c.144-.29.437-.484.582-.484.148 0 .097.195-.047.484-.196.293-.488.535-.586.535-.145 0-.145-.242.051-.535m18.66.195a.467.467 0 0 1 .679 0c.196.196.051.34-.339.34-.391 0-.536-.145-.34-.34m-1.852-.535c.391-.145.828-.145 1.024.05.144.145-.149.29-.684.243-.633 0-.73-.148-.34-.293m24.309-.242c-.242-.39-.145-.488.195-.246.344.195.637.488.637.633 0 .39-.488.195-.832-.387m-26.356-.293c.34-.148.828-.098.973.047.195.195-.145.293-.68.293-.586-.047-.73-.145-.293-.34m-2.097-.488c.39-.145.832-.145.976 0 .196.195-.097.34-.683.293-.582 0-.731-.149-.293-.293m-10.91-.875c.242-.246 1.703-.344 3.261-.246l2.778.148-3.215.293c-1.805.145-3.071.047-2.824-.195m7.5.34c.488-.145 1.218-.145 1.558 0 .344.144-.047.242-.926.242-.875 0-1.168-.098-.632-.242m-13.446-2.778c.196-.293.438-.535.586-.535.145 0 .145.242-.051.535s-.437.535-.586.535c-.144 0-.093-.242.051-.535m33.813-1.363a.467.467 0 0 1 .679 0c.196.144.051.34-.339.34-.387 0-.536-.196-.34-.34m-1.559-.54c.145-.19.485-.19.68 0 .195.196.051.345-.34.345s-.535-.149-.34-.344m-29.625-.679c.149-.293.442-.535.586-.535.149 0 .098.242-.098.535-.144.242-.437.488-.586.488-.093 0-.093-.246.098-.488m28.016.145a.53.53 0 0 1 .73 0c.196.195 0 .343-.34.343-.39 0-.535-.148-.39-.343m-6.235-1.559c.196-.195.485-.195.68 0s.051.34-.34.34c-.39 0-.535-.145-.34-.34m-17.199-.535c.195-.195.535-.195.684 0 .191.195.047.34-.344.34s-.535-.145-.34-.34m14.324 0c.387-.145.829-.145 1.024.05.144.192-.149.29-.684.29-.633-.047-.73-.145-.34-.34m-11.254-.535c.536-.098 1.364-.098 1.848 0 .488.144.102.242-.922.242-.976 0-1.414-.098-.926-.242m6.04 0c.632-.098 1.558-.098 2.046 0 .536.144 0 .242-1.168.242-1.121 0-1.558-.098-.878-.242"/><path fill="#fcd900" d="m170.066 129.797-1.171-.586 1.851-2.484c.977-1.364 2.145-3.461 2.582-4.727.781-2.094.735-2.34-.437-4.871-.68-1.414-2.336-5.992-3.703-10.184-6.137-18.61-13.348-26.648-34.688-38.586-3.801-2.144-7.797-4.675-8.914-5.601l-2.047-1.754 2.094-2.098 2.144-2.14 4.532.34c8.332.632 19.683 4.578 26.453 9.257 3.703 2.531 9.988 8.672 12.472 12.18 2.875 4.14 5.606 9.988 6.821 14.86 1.465 5.75 1.367 18.124-.145 23.191-1.558 5.164-2.972 8.769-4.582 11.449-1.461 2.531-1.508 2.582-3.262 1.754"/></g><path fill="#79ac14" d="M234.379 108.195c1.945 3.368 4.605 7.266 6.555 9.746 0 .707-.18 1.418-.18 2.301-.707 3.543-3.719 6.203-6.906 5.672-3.192-.531-5.317-3.898-4.61-7.617.176-1.598 1.418-5.317 2.836-9.039.707-.176 1.594-.531 2.305-1.063"/><path fill="none" stroke="#000" stroke-linecap="round" stroke-linejoin="round" stroke-width="2.25" d="M234.379 108.195c1.945 3.368 4.605 7.266 6.555 9.746 0 .707-.18 1.418-.18 2.301-.707 3.543-3.719 6.203-6.906 5.672-3.192-.531-5.317-3.898-4.61-7.617.176-1.598 1.418-5.317 2.836-9.039.707-.176 1.594-.531 2.305-1.063"/><path fill="#79ac14" d="M239.16 103.414c3.367 1.949 7.266 4.606 9.746 6.555.707 0 1.414-.18 2.301-.18 3.543-.707 6.203-3.719 5.672-6.906-.531-3.192-3.899-5.14-7.621-4.606-1.594.176-5.313 1.414-9.035 2.832-.176.707-.532 1.594-1.063 2.305"/><path fill="none" stroke="#000" stroke-linecap="round" stroke-linejoin="round" stroke-width="2.25" d="M239.16 103.414c3.367 1.949 7.266 4.606 9.746 6.555.707 0 1.414-.18 2.301-.18 3.543-.707 6.203-3.719 5.672-6.906-.531-3.192-3.899-5.14-7.621-4.606-1.594.176-5.313 1.414-9.035 2.832-.176.707-.532 1.594-1.063 2.305"/><path fill="#a4cd34" d="M237.035 106.07a7.8 7.8 0 0 0 2.125-2.656c4.43 2.301 9.922 6.375 11.516 7.973 2.66 2.656 2.836 6.554.531 8.855-2.125 2.305-6.199 1.949-8.855-.531-1.598-1.594-5.497-7.086-7.973-11.516a7.85 7.85 0 0 0 2.656-2.125"/><path fill="none" stroke="#000" stroke-linecap="round" stroke-linejoin="round" stroke-width="2.25" d="M237.035 106.07a7.8 7.8 0 0 0 2.125-2.656c4.43 2.301 9.922 6.375 11.516 7.973 2.66 2.656 2.836 6.554.531 8.855-2.125 2.305-6.199 1.949-8.855-.531-1.598-1.594-5.497-7.086-7.973-11.516a7.85 7.85 0 0 0 2.656-2.125"/><path fill="#f26d21" d="M237.035 106.07c-5.492 5.493-14.527 5.137-20.195-.707-8.86-8.86-29.235-35.613-22.68-42.168s33.309 13.82 42.164 22.68c5.848 5.844 6.203 14.703.711 20.195"/><path fill="#ce5c1c" d="M237.035 106.07c2.305-5.136 1.063-11.691-3.367-16.12-8.324-8.329-32.422-26.575-40.746-23.563 0-1.418.351-2.48 1.238-3.192 6.555-6.554 33.309 13.82 42.164 22.68 5.848 5.668 6.203 14.703.711 20.195"/><g fill="none" stroke="#000" stroke-linecap="round" stroke-linejoin="round" stroke-width="2.25"><path d="M235.262 84.633s-5.313 1.773-10.629 7.086M214.18 86.05s-3.367 3.013-6.91 7.973m20.55-15.589s-4.425 1.238-7.261 4.074m1.418-8.328s-4.61.886-9.391 5.668m-12.227 3.722s1.95-3.722 5.848-6.91m6.555 24.274s1.062-3.192 4.078-6.203m-15.414-26.043s2.48-2.836 5.488-4.075m38.27 49.606-8.149-8.149m-1.773 11.34 1.062-6.023m12.047-7.086-6.019 1.062"/><path d="M237.035 106.07c-5.492 5.493-14.527 5.137-20.195-.707-8.86-8.86-29.235-35.613-22.68-42.168s33.309 13.82 42.164 22.68c5.848 5.844 6.203 14.703.711 20.195"/></g><path fill="#79ac14" d="M272.344 108.195c1.945 3.368 4.605 7.266 6.554 9.746 0 .707-.179 1.418-.179 2.301-.707 3.543-3.719 6.203-6.906 5.672-3.192-.531-5.317-3.898-4.61-7.617.18-1.598 1.418-5.317 2.836-9.039.707-.176 1.594-.531 2.305-1.063"/><path fill="none" stroke="#000" stroke-linecap="round" stroke-linejoin="round" stroke-width="2.25" d="M272.344 108.195c1.945 3.368 4.605 7.266 6.554 9.746 0 .707-.179 1.418-.179 2.301-.707 3.543-3.719 6.203-6.906 5.672-3.192-.531-5.317-3.898-4.61-7.617.18-1.598 1.418-5.317 2.836-9.039.707-.176 1.594-.531 2.305-1.063"/><path fill="#79ac14" d="M277.125 103.414c3.367 1.949 7.266 4.606 9.746 6.555.707 0 1.414-.18 2.301-.18 3.543-.707 6.199-3.719 5.672-6.906-.531-3.192-3.899-5.14-7.621-4.606-1.594.176-5.313 1.414-9.035 2.832-.176.707-.532 1.594-1.063 2.305"/><path fill="none" stroke="#000" stroke-linecap="round" stroke-linejoin="round" stroke-width="2.25" d="M277.125 103.414c3.367 1.949 7.266 4.606 9.746 6.555.707 0 1.414-.18 2.301-.18 3.543-.707 6.199-3.719 5.672-6.906-.531-3.192-3.899-5.14-7.621-4.606-1.594.176-5.313 1.414-9.035 2.832-.176.707-.532 1.594-1.063 2.305"/><path fill="#a4cd34" d="M275 106.07a7.8 7.8 0 0 0 2.125-2.656c4.43 2.301 9.922 6.375 11.516 7.973 2.66 2.656 2.836 6.554.531 8.855-2.125 2.305-6.199 1.949-8.859-.531-1.594-1.594-5.493-7.086-7.969-11.516A7.85 7.85 0 0 0 275 106.07"/><path fill="none" stroke="#000" stroke-linecap="round" stroke-linejoin="round" stroke-width="2.25" d="M275 106.07a7.8 7.8 0 0 0 2.125-2.656c4.43 2.301 9.922 6.375 11.516 7.973 2.66 2.656 2.836 6.554.531 8.855-2.125 2.305-6.199 1.949-8.859-.531-1.594-1.594-5.493-7.086-7.969-11.516A7.85 7.85 0 0 0 275 106.07"/><path fill="#f26d21" d="M275 106.07c-5.492 5.493-14.527 5.137-20.195-.707-8.86-8.86-29.235-35.613-22.68-42.168s33.309 13.82 42.164 22.68c5.848 5.844 6.203 14.703.711 20.195"/><path fill="#ce5c1c" d="M275 106.07c2.305-5.136 1.063-11.691-3.367-16.12-8.324-8.329-32.422-26.575-40.746-23.563 0-1.418.351-2.48 1.238-3.192 6.555-6.554 33.309 13.82 42.164 22.68 5.848 5.668 6.203 14.703.711 20.195"/><g fill="none" stroke="#000" stroke-linecap="round" stroke-linejoin="round" stroke-width="2.25"><path d="M273.227 84.633s-5.313 1.773-10.629 7.086m-10.453-5.669s-3.368 3.013-6.911 7.973m20.551-15.589s-4.426 1.238-7.262 4.074m1.418-8.328s-4.605.886-9.39 5.668m-12.223 3.722s1.945-3.722 5.844-6.91m6.555 24.274s1.062-3.192 4.078-6.203m-15.414-26.043s2.48-2.836 5.492-4.075m38.265 49.606L275 106.07m-1.773 11.34 1.062-6.023m12.051-7.086-6.027 1.062"/><path d="M275 106.07c-5.492 5.493-14.527 5.137-20.195-.707-8.86-8.86-29.235-35.613-22.68-42.168s33.309 13.82 42.164 22.68c5.848 5.844 6.203 14.703.711 20.195"/></g><path fill="#bc9a16" d="M1 86.04c0-68.6 90.55-70.869 170.078-70.869 79.527 0 170.078 2.27 170.078 70.867 0-15.656-76.144-28.348-170.078-28.348C77.148 57.691 1 70.383 1 86.04"/><path fill="none" stroke="#000" stroke-linecap="round" stroke-linejoin="round" stroke-width="2" d="M1 86.04c0-68.6 90.55-70.869 170.078-70.869 79.527 0 170.078 2.27 170.078 70.867 0-15.656-76.144-28.348-170.078-28.348C77.148 57.691 1 70.383 1 86.04"/><path fill="#d3ae37" d="M908.086 86.04c0 15.655-76.145 28.347-170.078 28.347S567.93 101.695 567.93 86.039s76.144-28.348 170.078-28.348S908.086 70.383 908.086 86.04"/><path fill="none" stroke="#000" stroke-linecap="round" stroke-linejoin="round" stroke-width="2" d="M908.086 86.04c0 15.655-76.145 28.347-170.078 28.347S567.93 101.695 567.93 86.039s76.144-28.348 170.078-28.348S908.086 70.383 908.086 86.04M738.008 312.809l161.41-217.813m-161.41 217.813L684.25 112.941m53.758 199.868L586.914 73.012m151.094 239.797v19.843"/><path fill="#79ac14" d="M709.762 96.59c1.949 3.367 4.605 7.265 6.554 9.746 0 .707-.179 1.414-.179 2.301-.707 3.543-3.719 6.203-6.907 5.668-3.191-.532-5.316-3.895-4.609-7.617.18-1.594 1.418-5.313 2.836-9.036.711-.175 1.594-.53 2.305-1.062"/><path fill="none" stroke="#000" stroke-linecap="round" stroke-linejoin="round" stroke-width="2.25" d="M709.762 96.59c1.949 3.367 4.605 7.265 6.554 9.746 0 .707-.179 1.414-.179 2.301-.707 3.543-3.719 6.203-6.907 5.668-3.191-.532-5.316-3.895-4.609-7.617.18-1.594 1.418-5.313 2.836-9.036.711-.175 1.594-.53 2.305-1.062"/><path fill="#79ac14" d="M714.543 91.805c3.367 1.949 7.266 4.61 9.746 6.558.707 0 1.414-.18 2.301-.18 3.543-.706 6.203-3.718 5.672-6.906-.532-3.191-3.899-5.14-7.621-4.609-1.594.18-5.313 1.418-9.036 2.836-.175.707-.531 1.594-1.062 2.3"/><path fill="none" stroke="#000" stroke-linecap="round" stroke-linejoin="round" stroke-width="2.25" d="M714.543 91.805c3.367 1.949 7.266 4.61 9.746 6.558.707 0 1.414-.18 2.301-.18 3.543-.706 6.203-3.718 5.672-6.906-.532-3.191-3.899-5.14-7.621-4.609-1.594.18-5.313 1.418-9.036 2.836-.175.707-.531 1.594-1.062 2.3"/><path fill="#a4cd34" d="M712.418 94.465a7.8 7.8 0 0 0 2.125-2.66c4.43 2.304 9.922 6.379 11.516 7.976 2.66 2.657 2.836 6.555.531 8.856-2.125 2.304-6.199 1.949-8.856-.532-1.597-1.593-5.492-7.085-7.972-11.515a7.9 7.9 0 0 0 2.656-2.125"/><path fill="none" stroke="#000" stroke-linecap="round" stroke-linejoin="round" stroke-width="2.25" d="M712.418 94.465a7.8 7.8 0 0 0 2.125-2.66c4.43 2.304 9.922 6.379 11.516 7.976 2.66 2.657 2.836 6.555.531 8.856-2.125 2.304-6.199 1.949-8.856-.532-1.597-1.593-5.492-7.085-7.972-11.515a7.9 7.9 0 0 0 2.656-2.125"/><path fill="#f26d21" d="M712.418 94.465c-5.492 5.492-14.527 5.137-20.195-.711-8.86-8.856-29.235-35.61-22.68-42.164s33.309 13.82 42.168 22.68c5.844 5.843 6.199 14.703.707 20.195"/><path fill="#ce5c1c" d="M712.418 94.465c2.305-5.137 1.062-11.692-3.367-16.121-8.324-8.328-32.422-26.574-40.746-23.563 0-1.418.351-2.484 1.238-3.191 6.555-6.555 33.309 13.82 42.168 22.68 5.844 5.668 6.199 14.703.707 20.195"/><g fill="none" stroke="#000" stroke-linecap="round" stroke-linejoin="round" stroke-width="2.25"><path d="M710.645 73.027s-5.313 1.77-10.629 7.086m-10.453-5.668s-3.368 3.012-6.911 7.973m20.551-15.59s-4.426 1.238-7.262 4.074m1.418-8.328s-4.605.887-9.39 5.668m-12.223 3.723s1.945-3.723 5.844-6.91m6.555 24.273s1.066-3.191 4.078-6.203m-15.414-26.043s2.48-2.836 5.492-4.074m38.265 49.605-8.148-8.148m-1.773 11.34 1.066-6.024m12.047-7.09-6.024 1.063"/><path d="M712.418 94.465c-5.492 5.492-14.527 5.137-20.195-.711-8.86-8.856-29.235-35.61-22.68-42.164s33.309 13.82 42.168 22.68c5.844 5.843 6.199 14.703.707 20.195"/></g><path fill="#79ac14" d="M747.727 96.59c1.949 3.367 4.605 7.265 6.554 9.746 0 .707-.179 1.414-.179 2.301-.707 3.543-3.719 6.203-6.907 5.668-3.191-.532-5.316-3.895-4.605-7.617.176-1.594 1.414-5.313 2.832-9.036.711-.175 1.594-.53 2.305-1.062"/><path fill="none" stroke="#000" stroke-linecap="round" stroke-linejoin="round" stroke-width="2.25" d="M747.727 96.59c1.949 3.367 4.605 7.265 6.554 9.746 0 .707-.179 1.414-.179 2.301-.707 3.543-3.719 6.203-6.907 5.668-3.191-.532-5.316-3.895-4.605-7.617.176-1.594 1.414-5.313 2.832-9.036.711-.175 1.594-.53 2.305-1.062"/><path fill="#79ac14" d="M752.508 91.805c3.367 1.949 7.265 4.61 9.746 6.558.707 0 1.418-.18 2.301-.18 3.543-.706 6.203-3.718 5.672-6.906-.532-3.191-3.899-5.14-7.622-4.609-1.593.18-5.312 1.418-9.035 2.836-.175.707-.531 1.594-1.062 2.3"/><path fill="none" stroke="#000" stroke-linecap="round" stroke-linejoin="round" stroke-width="2.25" d="M752.508 91.805c3.367 1.949 7.265 4.61 9.746 6.558.707 0 1.418-.18 2.301-.18 3.543-.706 6.203-3.718 5.672-6.906-.532-3.191-3.899-5.14-7.622-4.609-1.593.18-5.312 1.418-9.035 2.836-.175.707-.531 1.594-1.062 2.3"/><path fill="#a4cd34" d="M750.383 94.465a7.8 7.8 0 0 0 2.125-2.66c4.43 2.304 9.922 6.379 11.515 7.976 2.661 2.657 2.836 6.555.532 8.856-2.125 2.304-6.2 1.949-8.856-.532-1.597-1.593-5.492-7.085-7.972-11.515a7.9 7.9 0 0 0 2.656-2.125"/><path fill="none" stroke="#000" stroke-linecap="round" stroke-linejoin="round" stroke-width="2.25" d="M750.383 94.465a7.8 7.8 0 0 0 2.125-2.66c4.43 2.304 9.922 6.379 11.515 7.976 2.661 2.657 2.836 6.555.532 8.856-2.125 2.304-6.2 1.949-8.856-.532-1.597-1.593-5.492-7.085-7.972-11.515a7.9 7.9 0 0 0 2.656-2.125"/><path fill="#f26d21" d="M750.383 94.465c-5.492 5.492-14.528 5.137-20.195-.711-8.86-8.856-29.235-35.61-22.68-42.164s33.308 13.82 42.168 22.68c5.844 5.843 6.199 14.703.707 20.195"/><path fill="#ce5c1c" d="M750.383 94.465c2.305-5.137 1.062-11.692-3.367-16.121-8.325-8.328-32.422-26.574-40.746-23.563 0-1.418.351-2.484 1.238-3.191 6.555-6.555 33.308 13.82 42.168 22.68 5.844 5.668 6.199 14.703.707 20.195"/><g fill="none" stroke="#000" stroke-linecap="round" stroke-linejoin="round" stroke-width="2.25"><path d="M748.609 73.027s-5.312 1.77-10.629 7.086m-10.453-5.668s-3.363 3.012-6.91 7.973m20.555-15.59s-4.43 1.238-7.266 4.074m1.418-8.328s-4.605.887-9.39 5.668m-12.223 3.723s1.949-3.723 5.844-6.91m6.554 24.273s1.067-3.191 4.079-6.203m-15.415-26.043s2.481-2.836 5.493-4.074m38.265 49.605-8.148-8.148m-1.774 11.34 1.067-6.024m12.047-7.09-6.024 1.063"/><path d="M750.383 94.465c-5.492 5.492-14.528 5.137-20.195-.711-8.86-8.856-29.235-35.61-22.68-42.164s33.308 13.82 42.168 22.68c5.844 5.843 6.199 14.703.707 20.195"/></g><path fill="#79ac14" d="M785.691 96.59c1.95 3.367 4.606 7.265 6.555 9.746 0 .707-.18 1.414-.18 2.301-.707 3.543-3.718 6.203-6.906 5.668-3.191-.532-5.316-3.895-4.609-7.617.179-1.594 1.418-5.313 2.836-9.036.711-.175 1.593-.53 2.304-1.062"/><path fill="none" stroke="#000" stroke-linecap="round" stroke-linejoin="round" stroke-width="2.25" d="M785.691 96.59c1.95 3.367 4.606 7.265 6.555 9.746 0 .707-.18 1.414-.18 2.301-.707 3.543-3.718 6.203-6.906 5.668-3.191-.532-5.316-3.895-4.609-7.617.179-1.594 1.418-5.313 2.836-9.036.711-.175 1.593-.53 2.304-1.062"/><path fill="#79ac14" d="M790.473 91.805c3.367 1.949 7.265 4.61 9.746 6.558.707 0 1.418-.18 2.301-.18 3.543-.706 6.203-3.718 5.671-6.906-.531-3.191-3.898-5.14-7.621-4.609-1.593.18-5.312 1.418-9.035 2.836-.176.707-.531 1.594-1.062 2.3"/><path fill="none" stroke="#000" stroke-linecap="round" stroke-linejoin="round" stroke-width="2.25" d="M790.473 91.805c3.367 1.949 7.265 4.61 9.746 6.558.707 0 1.418-.18 2.301-.18 3.543-.706 6.203-3.718 5.671-6.906-.531-3.191-3.898-5.14-7.621-4.609-1.593.18-5.312 1.418-9.035 2.836-.176.707-.531 1.594-1.062 2.3"/><path fill="#a4cd34" d="M788.348 94.465a7.8 7.8 0 0 0 2.125-2.66c4.429 2.304 9.922 6.379 11.515 7.976 2.66 2.657 2.836 6.555.532 8.856-2.125 2.304-6.2 1.949-8.856-.532-1.598-1.593-5.492-7.085-7.973-11.515a7.9 7.9 0 0 0 2.657-2.125"/><path fill="none" stroke="#000" stroke-linecap="round" stroke-linejoin="round" stroke-width="2.25" d="M788.348 94.465a7.8 7.8 0 0 0 2.125-2.66c4.429 2.304 9.922 6.379 11.515 7.976 2.66 2.657 2.836 6.555.532 8.856-2.125 2.304-6.2 1.949-8.856-.532-1.598-1.593-5.492-7.085-7.973-11.515a7.9 7.9 0 0 0 2.657-2.125"/><path fill="#f26d21" d="M788.348 94.465c-5.493 5.492-14.528 5.137-20.196-.711-8.859-8.856-29.234-35.61-22.679-42.164 6.554-6.555 33.308 13.82 42.168 22.68 5.843 5.843 6.199 14.703.707 20.195"/><path fill="#ce5c1c" d="M788.348 94.465c2.304-5.137 1.062-11.692-3.368-16.121-8.324-8.328-32.417-26.574-40.746-23.563 0-1.418.356-2.484 1.239-3.191 6.554-6.555 33.308 13.82 42.168 22.68 5.843 5.668 6.199 14.703.707 20.195"/><g fill="none" stroke="#000" stroke-linecap="round" stroke-linejoin="round" stroke-width="2.25"><path d="M786.574 73.027s-5.312 1.77-10.629 7.086m-10.453-5.668s-3.363 3.012-6.906 7.973m20.551-15.59s-4.43 1.238-7.266 4.074m1.418-8.328s-4.605.887-9.391 5.668m-12.222 3.723s1.945-3.723 5.844-6.91m6.554 24.273s1.067-3.191 4.078-6.203m-15.414-26.043s2.481-2.836 5.492-4.074m38.266 49.605-8.148-8.148m-1.774 11.34 1.067-6.024m12.047-7.09-6.024 1.063"/><path d="M788.348 94.465c-5.493 5.492-14.528 5.137-20.196-.711-8.859-8.856-29.234-35.61-22.679-42.164 6.554-6.555 33.308 13.82 42.168 22.68 5.843 5.843 6.199 14.703.707 20.195"/></g><path fill="#bc9a16" d="M567.93 86.04c0-68.599 90.55-70.868 170.078-70.868 79.527 0 170.078 2.27 170.078 70.867 0-15.656-76.145-28.348-170.078-28.348S567.93 70.383 567.93 86.04"/><path fill="none" stroke="#000" stroke-linecap="round" stroke-linejoin="round" stroke-width="2" d="M567.93 86.04c0-68.599 90.55-70.868 170.078-70.868 79.527 0 170.078 2.27 170.078 70.867 0-15.656-76.145-28.348-170.078-28.348S567.93 70.383 567.93 86.04"/><path fill="#cc9c6f" d="M461.629 332.652c0 3.914-3.172 7.086-7.086 7.086s-7.086-3.172-7.086-7.086 3.172-7.086 7.086-7.086 7.086 3.172 7.086 7.086"/><path fill="none" stroke="#000" stroke-linecap="round" stroke-linejoin="round" stroke-width="2" d="M461.629 332.652c0 3.914-3.172 7.086-7.086 7.086s-7.086-3.172-7.086-7.086 3.172-7.086 7.086-7.086 7.086 3.172 7.086 7.086"/><circle cx="454.543" cy="332.652" r="1"/><path fill="#cc9c6f" d="M440.371 29.344h28.344v340.16h-28.344Z"/><path fill="none" stroke="#000" stroke-linecap="round" stroke-linejoin="round" stroke-width="2" d="M440.371 29.344h28.344v340.16h-28.344z"/><path fill="#cc9c6f" d="M461.629 332.652c0 3.914-3.172 7.086-7.086 7.086s-7.086-3.172-7.086-7.086 3.172-7.086 7.086-7.086 7.086 3.172 7.086 7.086"/><path fill="none" stroke="#000" stroke-linecap="round" stroke-linejoin="round" stroke-width="2" d="M461.629 332.652c0 3.914-3.172 7.086-7.086 7.086s-7.086-3.172-7.086-7.086 3.172-7.086 7.086-7.086 7.086 3.172 7.086 7.086"/><path fill="#cc9c6f" d="M457.379 369.504a20.554 20.554 0 0 1 0 28.344h-5.668a20.543 20.543 0 0 1 0-28.344z"/><path fill="none" stroke="#000" stroke-linecap="round" stroke-linejoin="round" stroke-width="2" d="M457.379 369.504a20.554 20.554 0 0 1 0 28.344h-5.668a20.543 20.543 0 0 1 0-28.344z"/><path fill="#cc9c6f" d="M465.883 409.188c0 6.261-5.078 11.339-11.34 11.339s-11.34-5.078-11.34-11.339 5.078-11.34 11.34-11.34 11.34 5.078 11.34 11.34"/><path fill="none" stroke="#000" stroke-linecap="round" stroke-linejoin="round" stroke-width="2" d="M465.883 409.188c0 6.261-5.078 11.339-11.34 11.339s-11.34-5.078-11.34-11.339 5.078-11.34 11.34-11.34 11.34 5.078 11.34 11.34"/><path fill="#cc9c6f" d="M497.063 1c-13.692 0-22.676 13.621-22.676 28.344h-39.688C434.699 14.62 425.715 1 412.023 1z"/><path fill="none" stroke="#000" stroke-linecap="round" stroke-linejoin="round" stroke-width="2" d="M497.063 1c-13.692 0-22.676 13.621-22.676 28.344h-39.688C434.699 14.62 425.715 1 412.023 1z"/></g></svg>