<svg xmlns="http://www.w3.org/2000/svg" width="455pt" height="46pt" viewBox="0 -46 455 46"><g id="page1"><path fill="none" stroke="#000" stroke-linecap="round" stroke-linejoin="round" stroke-width=".5" d="M.25-45.61h45.356V-.253H.25zm45.356 0h45.351V-.253H45.606zm45.351 0h45.356V-.253H90.957zm45.356 0h45.355V-.253h-45.355zm45.355 0h45.352V-.253h-45.352zm45.352 0h45.355V-.253H227.02zm45.355 0h45.355V-.253h-45.355zm45.355 0h45.356V-.253H317.73zm45.356 0h45.352V-.253h-45.352zm45.352 0h45.355V-.253h-45.355z"/><path d="M22.766-23.324c1.84 0 2.644 1.59 2.644 3.43 0 2.48-1.324 3.43-2.52 3.43-1.097 0-2.874-.54-3.43-2.13a.8.8 0 0 0 .31.043c.496 0 .867-.332.867-.867 0-.602-.453-.871-.867-.871-.352 0-.887.168-.887.93 0 1.902 1.86 3.39 4.047 3.39 2.293 0 4.05-1.797 4.05-3.906 0-2.004-1.652-3.45-3.617-3.676 1.57-.332 3.078-1.734 3.078-3.613 0-1.613-1.628-2.79-3.488-2.79-1.883 0-3.535 1.157-3.535 2.81 0 .722.539.847.809.847.43 0 .804-.27.804-.808 0-.536-.375-.805-.804-.805-.086 0-.188 0-.27.043.598-1.363 2.23-1.613 2.953-1.613s2.086.351 2.086 2.335c0 .579-.082 1.61-.785 2.52-.617.805-1.32.848-2.004.91-.102 0-.578.04-.66.04-.145.019-.227.042-.227.187s.02.164.434.164zm43.09-5.059a6 6 0 0 0 1.921.348c1.918 0 2.973-1.031 3.575-1.63 0-.167 0-.269-.125-.269-.024 0-.063 0-.227.082-.727.309-1.57.559-2.606.559a6.2 6.2 0 0 1-2.558-.539c-.227-.102-.27-.102-.29-.102-.105 0-.124.02-.124.434v5.992c0 .371 0 .473.207.473.102 0 .144-.04.246-.184.66-.93 1.57-1.324 2.602-1.324.726 0 2.273.457 2.273 3.988 0 .66 0 1.86-.617 2.809-.52.848-1.324 1.281-2.211 1.281-1.363 0-2.75-.95-3.121-2.543.082.024.25.063.332.063.265 0 .785-.145.785-.785 0-.56-.395-.786-.785-.786-.477 0-.785.29-.785.868 0 1.796 1.425 3.68 3.613 3.68 2.129 0 4.152-1.84 4.152-4.505 0-2.48-1.61-4.402-3.613-4.402a3.52 3.52 0 0 0-2.644 1.137zm45.234 4.957c0-4.937 2.312-6.055 3.656-6.055.434 0 1.488.083 1.902.891-.332 0-.953 0-.953.723 0 .555.457.742.746.742.188 0 .743-.082.743-.785 0-1.3-1.032-2.043-2.457-2.043-2.461 0-5.043 2.558-5.043 7.125 0 5.617 2.336 6.86 3.988 6.86 2.004 0 3.906-1.798 3.906-4.567 0-2.582-1.676-4.461-3.781-4.461-1.262 0-2.192.824-2.707 2.27zm2.582 6.961c-2.539 0-2.539-3.8-2.539-4.566 0-1.489.699-3.633 2.621-3.633.351 0 1.363 0 2.047 1.422.371.805.371 1.652.371 2.687 0 1.114 0 1.942-.434 2.766-.457.848-1.117 1.324-2.066 1.324m49.141-3.035h-.372c-.207 1.465-.371 1.71-.453 1.836-.105.164-1.59.164-1.879.164h-3.968c.746-.805 2.191-2.27 3.949-3.965 1.258-1.2 2.723-2.601 2.723-4.648 0-2.438-1.942-3.84-4.11-3.84-2.273 0-3.656 2-3.656 3.86 0 .808.598.91.848.91.207 0 .824-.122.824-.848 0-.64-.535-.825-.824-.825-.125 0-.25.02-.332.063.394-1.758 1.593-2.625 2.851-2.625 1.797 0 2.977 1.426 2.977 3.305 0 1.797-1.055 3.347-2.235 4.691l-4.109 4.649v.472h7.273zm41.351-3.824c1.84 0 2.645 1.59 2.645 3.43 0 2.48-1.321 3.43-2.52 3.43-1.094 0-2.871-.54-3.43-2.13a.8.8 0 0 0 .313.043c.492 0 .867-.332.867-.867 0-.602-.457-.871-.867-.871-.352 0-.891.168-.891.93 0 1.902 1.86 3.39 4.051 3.39 2.289 0 4.047-1.797 4.047-3.906 0-2.004-1.652-3.45-3.613-3.676 1.57-.332 3.078-1.734 3.078-3.613 0-1.613-1.633-2.79-3.492-2.79-1.879 0-3.532 1.157-3.532 2.81 0 .722.535.847.805.847.434 0 .805-.27.805-.808 0-.536-.371-.805-.805-.805-.082 0-.187 0-.27.043.598-1.363 2.235-1.613 2.954-1.613.722 0 2.089.351 2.089 2.335 0 .579-.085 1.61-.789 2.52-.617.805-1.32.848-2 .91-.105 0-.578.04-.664.04-.144.019-.226.042-.226.187s.023.164.433.164zm49.512.394c0-1.261-.02-3.41-.887-5.062-.766-1.445-1.984-1.961-3.059-1.961-.992 0-2.25.453-3.035 1.941-.828 1.547-.91 3.469-.91 5.082 0 1.176.02 2.973.66 4.543.891 2.13 2.481 2.418 3.285 2.418.95 0 2.399-.394 3.243-2.355.621-1.426.703-3.098.703-4.606m-3.946 6.63c-1.324 0-2.109-1.137-2.394-2.708-.227-1.219-.227-2.992-.227-4.148 0-1.594 0-2.914.266-4.176.395-1.754 1.551-2.293 2.355-2.293.848 0 1.942.559 2.336 2.254.266 1.176.289 2.558.289 4.215 0 1.34 0 2.992-.25 4.21-.433 2.255-1.652 2.645-2.375 2.645M295.797-29.5c0-.434-.024-.453-.313-.453-.804.969-2.023 1.281-3.179 1.32-.063 0-.164 0-.188.043-.019.04-.019.082-.019.516.64 0 1.715-.125 2.539-.621v10.886c0 .723-.039.973-1.817.973h-.621v.535c.992-.02 2.028-.039 3.02-.039.988 0 2.023.02 3.015.04v-.536h-.621c-1.777 0-1.816-.227-1.816-.973zm48.516 10h-.372c-.207 1.465-.371 1.71-.453 1.836-.105.164-1.59.164-1.879.164h-3.968c.746-.805 2.191-2.27 3.949-3.965 1.258-1.2 2.723-2.601 2.723-4.648 0-2.438-1.942-3.84-4.11-3.84-2.273 0-3.656 2-3.656 3.86 0 .808.598.91.848.91.207 0 .824-.122.824-.848 0-.64-.535-.825-.824-.825-.125 0-.25.02-.332.063.394-1.758 1.593-2.625 2.851-2.625 1.797 0 2.977 1.426 2.977 3.305 0 1.797-1.055 3.347-2.235 4.691l-4.109 4.649v.472h7.273zm41.253-3.824c1.84 0 2.645 1.59 2.645 3.43 0 2.48-1.324 3.43-2.523 3.43-1.094 0-2.872-.54-3.43-2.13a.8.8 0 0 0 .312.043c.496 0 .868-.332.868-.867 0-.602-.454-.871-.868-.871-.351 0-.89.168-.89.93 0 1.902 1.859 3.39 4.05 3.39 2.293 0 4.051-1.797 4.051-3.906 0-2.004-1.652-3.45-3.617-3.676 1.57-.332 3.078-1.734 3.078-3.613 0-1.613-1.633-2.79-3.488-2.79-1.883 0-3.535 1.157-3.535 2.81 0 .722.539.847.804.847.434 0 .805-.27.805-.808 0-.536-.371-.805-.805-.805-.082 0-.183 0-.265.043.597-1.363 2.23-1.613 2.953-1.613s2.086.351 2.086 2.335c0 .579-.082 1.61-.785 2.52-.621.805-1.324.848-2.004.91-.102 0-.578.04-.66.04-.145.019-.231.042-.231.187s.024.164.438.164zm45.399 0c1.84 0 2.644 1.59 2.644 3.43 0 2.48-1.32 3.43-2.519 3.43-1.098 0-2.871-.54-3.43-2.13a.8.8 0 0 0 .309.043c.496 0 .871-.332.871-.867 0-.602-.457-.871-.871-.871-.352 0-.887.168-.887.93 0 1.902 1.859 3.39 4.051 3.39 2.289 0 4.047-1.797 4.047-3.906 0-2.004-1.653-3.45-3.617-3.676 1.57-.332 3.078-1.734 3.078-3.613 0-1.613-1.629-2.79-3.489-2.79-1.879 0-3.535 1.157-3.535 2.81 0 .722.539.847.809.847.433 0 .804-.27.804-.808 0-.536-.371-.805-.804-.805-.082 0-.188 0-.27.043.598-1.363 2.231-1.613 2.953-1.613.723 0 2.086.351 2.086 2.335 0 .579-.082 1.61-.785 2.52-.617.805-1.32.848-2.004.91-.101 0-.578.04-.66.04-.144.019-.226.042-.226.187s.023.164.433.164z"/></g></svg>