<svg xmlns="http://www.w3.org/2000/svg" width="202pt" height="68" viewBox="0 -51 202 51"><g id="page1"><path fill="#79ac14" d="M31.965-35.715c1.46-2.527 3.453-5.45 4.914-7.308 0-.532-.133-1.063-.133-1.73-.531-2.657-2.789-4.65-5.18-4.25-2.394.398-3.988 2.921-3.457 5.714.133 1.195 1.063 3.984 2.13 6.773.53.133 1.195.403 1.726.801"/><path fill="none" stroke="#000" stroke-linecap="round" stroke-linejoin="round" stroke-width="1.688" d="M31.965-35.715c1.46-2.527 3.453-5.45 4.914-7.308 0-.532-.133-1.063-.133-1.73-.531-2.657-2.789-4.65-5.18-4.25-2.394.398-3.988 2.921-3.457 5.714.133 1.195 1.063 3.984 2.13 6.773.53.133 1.195.403 1.726.801"/><path fill="#79ac14" d="M35.55-32.129c2.528-1.46 5.45-3.453 7.31-4.918.53 0 1.062.133 1.726.133 2.66.531 4.652 2.793 4.254 5.184s-2.926 3.851-5.715 3.453c-1.195-.133-3.984-1.063-6.777-2.125-.133-.532-.399-1.196-.797-1.727"/><path fill="none" stroke="#000" stroke-linecap="round" stroke-linejoin="round" stroke-width="1.688" d="M35.55-32.129c2.528-1.46 5.45-3.453 7.31-4.918.53 0 1.062.133 1.726.133 2.66.531 4.652 2.793 4.254 5.184s-2.926 3.851-5.715 3.453c-1.195-.133-3.984-1.063-6.777-2.125-.133-.532-.399-1.196-.797-1.727"/><path fill="#a4cd34" d="M33.957-34.121a5.9 5.9 0 0 1 1.594 1.992c3.324-1.727 7.441-4.785 8.636-5.98 1.993-1.993 2.13-4.914.399-6.645-1.594-1.727-4.648-1.46-6.64.402-1.2 1.196-4.122 5.313-5.981 8.637q1.195.598 1.992 1.594"/><path fill="none" stroke="#000" stroke-linecap="round" stroke-linejoin="round" stroke-width="1.688" d="M33.957-34.121a5.9 5.9 0 0 1 1.594 1.992c3.324-1.727 7.441-4.785 8.636-5.98 1.993-1.993 2.13-4.914.399-6.645-1.594-1.727-4.648-1.46-6.64.402-1.2 1.196-4.122 5.313-5.981 8.637q1.195.598 1.992 1.594"/><path fill="#f26d21" d="M33.957-34.121c-4.117-4.121-10.894-3.856-15.148.531C12.164-26.945-3.113-6.883 1.8-1.965 6.719 2.95 26.78-12.332 33.426-18.973c4.383-4.386 4.652-11.03.531-15.148"/><path fill="#ce5c1c" d="M33.957-34.121c1.727 3.852.797 8.77-2.523 12.09C25.187-15.785 7.117-2.101.87-4.36c0 1.062.266 1.859.93 2.394C6.719 2.95 26.78-12.332 33.426-18.973c4.383-4.254 4.652-11.03.531-15.148"/><g fill="none" stroke="#000" stroke-linecap="round" stroke-linejoin="round" stroke-width="1.688"><path d="M32.629-18.043s-3.988-1.328-7.973-5.316m-7.84 4.254s-2.523-2.262-5.183-5.98m15.414 11.691s-3.32-.93-5.45-3.055m1.067 6.246s-3.457-.664-7.043-4.254m-9.168-2.789s1.461 2.789 4.383 5.18m4.918-18.204s.797 2.391 3.055 4.653M7.25-6.086S9.11-3.96 11.367-3.03M40.07-40.234l-6.113 6.113m-1.328-8.504.797 4.516m9.034 5.316-4.515-.797"/><path d="M33.957-34.121c-4.117-4.121-10.894-3.856-15.148.531C12.164-26.945-3.113-6.883 1.8-1.965 6.719 2.95 26.78-12.332 33.426-18.973c4.383-4.386 4.652-11.03.531-15.148"/></g><g fill-rule="evenodd"><path fill="#a7410e" d="M94.535-42.34c-.222.086-.445.223-.488.223s.398.484.976 1.062c.575.575 1.282 1.328 1.594 1.77a15 15 0 0 1 1.063 1.64c.222.485.53 1.286.707 1.727.132.488.265 1.285.312 1.727 0 .488.086.886.176.93.043.046.398.09.754.09.531 0 .664-.044.707-.177.047-.09 0-.535-.09-1.02-.086-.444-.308-1.327-.531-1.905-.176-.621-.484-1.461-.707-1.903-.223-.445-.621-1.195-.93-1.64a13 13 0 0 0-.93-1.286 15 15 0 0 1-.886-.796c-.266-.176-.575-.399-.754-.489a1.5 1.5 0 0 0-.442-.133c-.09 0-.308.09-.53.18m12.668 5.98h.531c.176-.046.043-.046-.265-.046-.266 0-.399 0-.266.047M92.32-7.436c.309.265.575.53.575.53.046 0-.176-.265-.489-.53-.262-.313-.527-.579-.574-.579-.043 0 .18.266.488.579M86.914-6.29c.27.312.535.578.578.578s-.176-.266-.488-.578c-.309-.266-.574-.531-.574-.531-.043 0 .175.265.484.53"/><path fill="red" d="M105.918-36.094c-.398.133-.887.309-1.02.399-.175.086-.929.53-1.636 1.015-.754.446-1.641.977-1.996 1.153-.575.265-.707.265-1.727.265-.887 0-1.195-.043-1.86-.265-.398-.133-1.593-.621-2.57-1.106-1.02-.445-2.168-.93-2.57-1.062-.395-.133-1.062-.313-1.504-.356-.664-.09-.93-.09-1.594.043-.445.09-1.242.356-1.773.578a9.6 9.6 0 0 0-1.637.75c-.355.223-.93.578-1.195.797-.313.27-.8.711-1.152 1.067-.356.351-.797.93-1.063 1.28a20 20 0 0 0-.797 1.466 9.5 9.5 0 0 0-.668 1.547c-.129.445-.351 1.199-.441 1.73-.133.531-.266 1.461-.309 2.082-.09.664-.09 1.68-.047 2.48.047.75.133 1.86.223 2.434.047.578.266 1.55.399 2.172.132.617.445 1.77.71 2.613.266.797.84 2.125 1.239 2.922.398.844 1.02 1.95 1.375 2.524a49 49 0 0 0 1.28 1.773c.356.398 1.11 1.195 1.685 1.773.578.575 1.418 1.282 1.816 1.547.398.313.977.664 1.285.844.309.133 1.02.442 1.594.617.531.18 1.418.399 1.992.489.621.09 1.242.132 1.774.09.488 0 1.152-.18 1.773-.356.75-.223 1.148-.309 1.812-.309.754-.047.93 0 2.215.442 1.02.398 1.508.488 1.949.488.356 0 .93-.09 1.329-.223.402-.09 1.062-.351 1.507-.53.442-.224 1.196-.575 1.637-.84a23 23 0 0 0 1.641-1.153c.441-.313 1.152-.973 1.594-1.418.445-.441 1.109-1.152 1.46-1.594.356-.441.93-1.242 1.286-1.726.308-.532.839-1.418 1.152-1.95.309-.53.797-1.507 1.105-2.171.27-.622.711-1.77.977-2.48.266-.708.574-1.727.707-2.302a27 27 0 0 0 .398-1.906c.047-.488.133-1.46.18-2.125.043-.71.043-1.684-.047-2.348-.043-.62-.218-1.55-.308-2.039a11.4 11.4 0 0 0-.489-1.726c-.132-.488-.441-1.195-.664-1.637a17 17 0 0 0-.886-1.508 10.5 10.5 0 0 0-1.153-1.418c-.394-.351-.929-.886-1.281-1.105a12.5 12.5 0 0 0-1.375-.844 14 14 0 0 0-1.504-.617c-.355-.133-1.019-.266-1.418-.356-.441-.09-1.195-.175-1.726-.132-.754 0-1.11.043-1.684.222M85.984-25.199c-.132.308-.351.887-.441 1.328-.133.441-.266 1.285-.356 1.816-.085.575-.132 1.727-.132 2.524 0 .886.047 1.992.132 2.523.09.535.223 1.332.356 1.774.09.441.355 1.242.574 1.773.223.531.621 1.371.934 1.86.308.53.797 1.238 1.105 1.683.356.398.977 1.063 1.418 1.504.442.445 1.195 1.062 1.637 1.418.488.309 1.152.754 1.55.93.4.18.798.355.977.355.176.043.266.043.266-.047 0-.043-.711-.797-1.508-1.637a60 60 0 0 1-2.082-2.214 31 31 0 0 0-1.062-1.461c-.266-.399-.708-1.196-.973-1.727a21 21 0 0 1-.797-1.863c-.133-.485-.398-1.238-.488-1.68-.09-.445-.266-1.242-.356-1.816-.086-.664-.175-2.04-.175-3.942-.044-1.64-.09-3.101-.09-3.28-.043-.177-.086-.352-.133-.352-.086 0-.223.265-.356.53"/><path d="M109.148-50.004c-.218.047-.75.398-1.195.797-.441.355-1.015.797-1.238.977-.313.218-.664.351-1.195.44-.399.048-1.329.224-2.04.313-1.062.176-1.417.266-2.082.618-.574.265-.929.53-1.371 1.02-.312.355-.754.929-.976 1.374-.219.442-.442.973-.532 1.149l-.085.355-.665-.488a17 17 0 0 0-1.507-.883c-.754-.355-.887-.398-1.328-.312-.266 0-.887.222-1.375.398-.618.266-.973.488-1.239.797-.222.222-.441.578-.488.797-.09.265-.09.62-.043.843 0 .223.133.575.266.754.09.22.441.575.754.84.308.223.93.754 1.328 1.196.398.398.972 1.062 1.238 1.46s.488.754.445.797c0 0-.578-.218-1.242-.531-.707-.266-1.637-.617-2.082-.75a8.4 8.4 0 0 0-2.035-.223c-1.063 0-1.375.043-2.172.266-.488.176-1.328.441-1.816.664-.489.223-1.239.621-1.637.887-.445.222-1.195.797-1.684 1.195-.53.441-1.195 1.106-1.508 1.508-.355.398-.796.973-1.015 1.281-.223.356-.578 1.02-.844 1.508-.222.488-.574 1.238-.754 1.727-.175.488-.398 1.418-.531 2.082s-.309 1.816-.352 2.613c-.09 1.062-.09 1.77 0 3.012.043.84.176 2.082.309 2.746.086.664.309 1.636.441 2.172.133.53.399 1.46.579 2.035.218.62.574 1.55.796 2.125.22.578.665 1.508.973 2.039.266.574.797 1.46 1.152 1.992.356.531.973 1.418 1.418 1.95.442.53 1.239 1.417 1.817 1.948a20 20 0 0 0 1.902 1.641c.488.395 1.328.883 1.863 1.195.575.266 1.329.575 1.77.707.441.176 1.195.356 1.684.489.488.09 1.46.218 2.171.218 1.196.047 1.371.047 2.258-.218a94 94 0 0 0 1.551-.399l.531-.18 1.594.532c1.418.488 1.637.535 2.481.535.796 0 1.105-.047 2.082-.313.707-.222 1.683-.62 2.57-1.062.75-.399 1.812-1.02 2.344-1.371.531-.403 1.55-1.285 2.304-2.04s1.684-1.726 1.992-2.171c.309-.442.887-1.238 1.243-1.77.351-.53.882-1.46 1.195-1.992.309-.531.797-1.598 1.105-2.305.356-.753.797-1.906 1.067-2.656.262-.71.574-1.863.75-2.48.133-.664.355-1.73.441-2.348.09-.71.18-1.773.18-2.836 0-1.152-.047-2.082-.18-2.836-.086-.574-.261-1.504-.394-1.992-.133-.531-.403-1.238-.535-1.637-.133-.355-.485-1.11-.75-1.64a16 16 0 0 0-1.067-1.77c-.351-.445-.84-1.066-1.148-1.375a8.6 8.6 0 0 0-1.153-1.062 10 10 0 0 0-1.461-1.02c-.488-.309-1.328-.754-1.906-.973-.574-.222-1.551-.488-2.168-.62-.621-.133-1.332-.223-1.597-.266h-.442l.531-.266c.313-.133.84-.531 1.196-.887a6.7 6.7 0 0 0 1.019-1.328c.18-.398.442-1.02.532-1.418.132-.441.265-1.285.355-1.992.09-.664.176-1.773.223-2.437.043-.797.043-1.371-.047-1.637-.043-.223-.223-.578-.356-.754-.086-.176-.398-.441-.617-.531-.223-.133-.578-.266-.797-.266-.265-.043-.621 0-.801.043m-.351 2.703a14 14 0 0 1-1.461 1.02c-.356.175-.977.351-1.375.441-.441.09-1.285.223-1.859.266-.579.09-1.286.265-1.551.355a3.4 3.4 0 0 0-.93.621c-.223.22-.531.664-.711.973a5.4 5.4 0 0 0-.484 1.152c-.09.309-.18.887-.18 1.371 0 .399.09.977.137 1.196.086.265.219.668.308.933l.219.442.887-.489a9 9 0 0 1 1.465-.62c.261-.087 1.062-.22 1.679-.31.664-.042 1.375-.175 1.641-.265a3 3 0 0 0 .887-.308c.265-.133.621-.399.797-.579.132-.218.398-.53.488-.75.086-.18.266-.668.394-1.02.133-.398.266-1.108.356-1.64s.18-1.504.223-2.258c0-.707.043-1.285 0-1.285 0 0-.446.356-.93.754M94.535-42.34c-.222.086-.445.223-.488.223s.398.484.976 1.062c.575.575 1.282 1.328 1.594 1.77a15 15 0 0 1 1.063 1.64c.222.485.53 1.286.707 1.727.132.488.265 1.285.312 1.77.043.668 0 .843-.09.843-.043 0-.488-.133-.972-.265a43 43 0 0 1-1.906-.797 35 35 0 0 0-2.083-.93 33 33 0 0 0-1.859-.664c-.71-.18-1.062-.18-1.683-.133-.489 0-1.11.133-1.727.352-.531.18-1.328.531-1.817.754-.488.265-1.242.707-1.64 1.02-.399.308-1.016.84-1.281 1.195-.313.308-.801.886-1.067 1.285s-.617.972-.75 1.285c-.18.351-.445.973-.62 1.46a47 47 0 0 0-.49 1.77 13 13 0 0 0-.308 1.641c-.047.398-.09 1.637-.047 2.7 0 1.152.09 2.437.18 3.015.09.574.309 1.637.488 2.3.176.712.485 1.817.664 2.391.22.621.575 1.598.84 2.13.223.573.707 1.46 1.02 2.034.355.578.886 1.418 1.238 1.907a21 21 0 0 0 1.285 1.636c.356.446 1.063 1.2 1.551 1.594.488.445 1.195.977 1.508 1.242.308.223.93.574 1.37.797.442.223 1.153.488 1.595.664.441.133 1.195.309 1.64.399.485.09 1.196.18 1.637.18.578 0 1.02-.09 2.04-.4.929-.269 1.417-.355 1.948-.355.575 0 .93.086 2.082.442 1.063.398 1.504.488 2.035.488.532.043.887-.043 1.551-.266.442-.132 1.239-.441 1.727-.71.531-.22 1.375-.708 1.859-1.063.531-.309 1.375-.93 1.817-1.328.445-.399 1.152-1.106 1.55-1.594.399-.441.977-1.11 1.243-1.508.308-.398.707-1.015.972-1.37.223-.4.664-1.153.977-1.684.308-.575.797-1.594 1.105-2.258.309-.711.797-1.95 1.11-2.836.261-.887.617-2.082.707-2.656.132-.622.265-1.508.308-1.993.047-.488.09-1.375.09-1.996 0-.617-.043-1.636-.133-2.168-.09-.578-.222-1.418-.355-1.859a12 12 0 0 0-.442-1.508c-.175-.398-.445-1.062-.621-1.418-.175-.398-.574-1.02-.84-1.418a12.4 12.4 0 0 0-1.285-1.547c-.441-.445-1.062-.976-1.418-1.199a7.4 7.4 0 0 0-1.418-.797c-.441-.218-1.195-.531-1.683-.664-.485-.133-1.328-.265-1.949-.351-.93-.09-1.149-.09-1.817.043-.394.09-1.062.355-1.504.574-.398.18-1.285.71-1.949 1.11a16 16 0 0 1-1.637 1.019c-.312.086-.621.218-.754.265-.265.086-.265.043-.445-.886a13.5 13.5 0 0 0-.531-2.04c-.176-.62-.484-1.46-.707-1.902-.223-.445-.621-1.195-.93-1.64a13 13 0 0 0-.93-1.286 15 15 0 0 1-.886-.796c-.266-.176-.575-.399-.754-.489a1.5 1.5 0 0 0-.442-.133c-.09 0-.308.09-.53.18m9.078 4.649c-.218.09-.664.312-1.019.53-.352.18-.617.4-.617.49s0 .132.043.132c0 0 .265-.133.574-.355.265-.176.801-.442 1.109-.618.309-.18.488-.312.442-.312-.086 0-.309.09-.532.133M85.941-25.066c-.132.265-.308 1.02-.441 1.593-.133.575-.312 1.508-.356 1.992-.042.532-.09 1.462-.09 2.04 0 .62.048 1.593.133 2.214.09.622.266 1.504.399 2.036.133.488.355 1.199.488 1.55.133.399.399.977.578 1.329.176.355.617 1.066.93 1.55.352.489 1.063 1.375 1.594 1.907.484.53 1.285 1.285 1.77 1.593.445.356 1.242.84 1.73 1.106.531.27.972.445 1.148.398.18 0 .09-.176-1.062-1.281-.707-.711-1.637-1.73-2.082-2.215-.399-.531-1.02-1.375-1.328-1.86a12 12 0 0 1-1.02-1.73 28 28 0 0 1-.797-1.86 23 23 0 0 1-.574-2.214c-.133-.621-.266-1.684-.355-2.258a63 63 0 0 1-.087-3.367c0-1.238-.046-2.434-.09-2.656 0-.223-.09-.399-.132-.399s-.223.22-.356.532"/><path fill="#8a0" d="M108.797-47.3a14 14 0 0 1-1.461 1.019c-.356.175-.977.351-1.375.441-.441.09-1.285.223-1.859.266-.579.09-1.286.265-1.551.355a3.4 3.4 0 0 0-.93.621c-.223.22-.531.664-.711.973a5.4 5.4 0 0 0-.484 1.152c-.09.309-.18.887-.18 1.371 0 .399.09.977.137 1.196.086.265.219.668.308.933l.219.442.887-.489a9 9 0 0 1 1.465-.62c.261-.087 1.062-.22 1.679-.31.664-.042 1.375-.175 1.641-.265a3 3 0 0 0 .887-.308c.265-.133.621-.399.797-.579.132-.218.398-.53.488-.75.086-.18.266-.668.394-1.02.133-.398.266-1.108.356-1.64s.18-1.504.223-2.258c0-.707.043-1.285 0-1.285 0 0-.446.356-.93.754m3.984 42.519-.531.574.578-.531.574-.574-.043-.043s-.265.265-.578.574"/><path fill="#88d055" d="M195.324-44.418c-.453.375.797.375.582.906.824 1.938 1.621 3.934 1.969 6.032 1.301 6.722-.348 13.976-4.52 19.425-4.199 5.743-10.574 9.965-17.617 11.137-6.429 1.113-13.207-.398-18.734-3.828a35 35 0 0 1-3.934-2.844c3.879 4.387 9.539 6.938 15.282 7.574 8.394.957 17.218-1.78 23.382-7.601 4.2-3.934 7.098-9.301 7.68-15.04.508-4.624.027-9.487-2.07-13.66a13.3 13.3 0 0 0-1.516-2.312c-.211-.078-.344.133-.504.211"/><path fill="#b9f88c" d="M195.191-44.258c-.558.215-1.461.664-1.171 1.438 1.781 3.558 2.527 7.597 2.445 11.586-.106 3.746-.981 7.574-3.082 10.734-2.445 3.746-6.137 6.59-10.258 8.266-5.898 2.55-12.621 3.402-18.895 1.832-3.906-.98-7.679-2.868-10.363-5.95-.476-.507-.851-1.09-1.168-1.73-.238-.742-1.039-.77-1.597-.29-.825.345-.504 1.274-.051 1.806 1.168 2.285 3.109 4.12 5.34 5.421 3.722 2.364 7.972 4.012 12.382 4.438 4.547.504 9.223-.238 13.372-2.18 7.253-3.293 13.097-9.777 15.304-17.484 1.571-5.637.93-11.774-1.515-17.063-.133-.343-.289-.824-.743-.824"/><path d="M194.633-45.64c-3.055 1.011-5.61 3.03-8.504 4.359-12.012 6.511-23.625 13.66-35.027 21.129-.981.691-2.043 1.644-2.043 2.922.078 1.566 1.168 2.816 2.07 4.011 3.535 4.305 8.664 7.07 14.059 8.293 4.996 1.117 10.23.586 15.148-.691 5.687-1.543 11.082-4.653 14.855-9.223 4.649-5.687 6.801-13.312 5.821-20.594-.348-2.898-1.145-5.82-2.711-8.293-.719-1.035-1.809-2.046-3.164-2.02-.16.028-.344.056-.504.106m.769 1.171c-.531.399-1.511.582-1.488 1.407.133.507.481.956.641 1.464 2.441 5.844 2.578 12.7.133 18.575-1.465 3.375-4.016 6.218-7.043 8.265-4.918 3.375-10.922 4.969-16.848 5.02-4.785.054-9.703-1.008-13.715-3.692-1.992-1.355-3.691-3.187-4.73-5.367-.715-.027-1.539.317-1.782 1.035-.05.664.481 1.168.746 1.754 2.579 4.25 6.911 7.254 11.614 8.797 9.511 3.11 20.566.848 28.117-5.742 3.641-3.188 6.375-7.414 7.68-12.063.875-3.191 1.035-6.539.742-9.832-.321-2.925-1.117-5.847-2.656-8.398-.426-.398-.477-1.277-1.168-1.328-.11-.028-.161.078-.243.105m-2.871 1.672c-10.414 5.344-20.355 11.535-30.508 17.3-3.293 1.97-6.535 4.067-9.484 6.485 1.727 3.403 4.996 5.82 8.531 7.121 5.793 2.102 12.25 2.047 18.176.454 4.649-1.25 9.113-3.586 12.277-7.254 1.993-2.34 3.137-5.262 3.696-8.266.875-4.465.847-9.246-.774-13.555-.265-.742-.636-1.433-1.035-2.125-.187-.293-.609-.449-.879-.16m-1.754 7.895c-.742.453-.023 1.78.774 1.515.637-.265.504-1.195-.082-1.437-.211-.106-.449-.157-.692-.078m-6.164 6.406c-.664.265-.371 1.246.215 1.46.664.212 1.223-.64.82-1.194-.183-.403-.687-.56-1.035-.266m6.008.078c-.719.504-.187 1.676.582 1.781.692.133 1.328-.718.906-1.328-.32-.48-.984-.531-1.488-.453m-12.703 4.57c-.531.746.184 2.02 1.09 1.86.742-.266.582-1.301.023-1.672-.289-.242-.742-.375-1.113-.188m6.562 1.567c-.636.535-.16 1.41.215 1.914.422.586 1.461.453 1.621-.238.133-.637-.32-1.223-.796-1.567-.293-.215-.719-.265-1.04-.11m-14.8 2.129c-.825.343-.641 1.859.265 1.914.985-.082 1.09-1.782.133-1.996a.5.5 0 0 0-.398.082m-7.813.957c-.797.265-1.062 1.539-.293 1.992.692.265 1.274-.586 1.223-1.223.027-.453-.453-1.144-.93-.77m13.367 2.683c-.906.582-.214 2.258.852 2.047.742-.16.742-1.2.289-1.676-.238-.343-.742-.613-1.141-.37m-9.836 1.168c-.875.426-.714 2.047.293 2.18.907 0 1.25-1.25.774-1.887-.215-.347-.692-.558-1.067-.293"/><path fill="#e96c92" d="M192.531-42.797c-10.414 5.344-20.355 11.535-30.508 17.3-3.293 1.97-6.535 4.067-9.484 6.485 1.727 3.403 4.996 5.82 8.531 7.121 5.793 2.102 12.25 2.047 18.176.454 4.649-1.25 9.113-3.586 12.277-7.254 1.993-2.34 3.137-5.262 3.696-8.266.875-4.465.847-9.246-.774-13.555-.265-.742-.636-1.433-1.035-2.125-.187-.293-.609-.449-.879-.16m-1.754 7.895c-.742.453-.023 1.78.774 1.515.637-.265.504-1.195-.082-1.437-.211-.106-.449-.157-.692-.078m-6.164 6.406c-.664.265-.371 1.246.215 1.46.664.212 1.223-.64.82-1.194-.183-.403-.687-.56-1.035-.266m6.008.078c-.719.504-.187 1.676.582 1.781.692.133 1.328-.718.906-1.328-.32-.48-.984-.531-1.488-.453m-12.703 4.57c-.531.746.184 2.02 1.09 1.86.742-.266.582-1.301.023-1.672-.289-.242-.742-.375-1.113-.188m6.562 1.567c-.636.535-.16 1.41.215 1.914.422.586 1.461.453 1.621-.238.133-.637-.32-1.223-.796-1.567-.293-.215-.719-.265-1.04-.11m-14.8 2.129c-.825.343-.641 1.859.265 1.914.985-.082 1.09-1.782.133-1.996a.5.5 0 0 0-.398.082m-7.813.957c-.797.265-1.062 1.539-.293 1.992.692.265 1.274-.586 1.223-1.223.027-.453-.453-1.144-.93-.77m13.367 2.683c-.906.582-.214 2.258.852 2.047.742-.16.742-1.2.289-1.676-.238-.343-.742-.613-1.141-.37m-9.836 1.168c-.875.426-.714 2.047.293 2.18.907 0 1.25-1.25.774-1.887-.215-.347-.692-.558-1.067-.293"/></g></g></svg>