<svg xmlns="http://www.w3.org/2000/svg" width="58pt" height="58pt" viewBox="0 -58 58 58"><g id="page1" transform="scale(1 -1)"><path fill="none" stroke="#ff8080" stroke-linecap="round" stroke-linejoin="round" stroke-width="5" d="M3.086 28.598h17.008"/><path fill="none" stroke="#ff4000" stroke-linecap="round" stroke-linejoin="round" stroke-width=".5" d="M5.918 28.598H.25"/><path fill="#ff4000" d="M11.59 28.598.637 31.535v-5.87z"/><path fill="none" stroke="#ff4000" stroke-linecap="round" stroke-linejoin="round" stroke-width=".5" d="M11.59 28.598.637 31.535v-5.87z"/><circle cx="20.094" cy="28.598" r="2.5" fill="#ff8080"/><g fill="none" stroke-linecap="round" stroke-linejoin="round"><path stroke="#ff8080" stroke-width="5" d="M28.598 20.094a8.504 8.504 0 0 1-8.504 8.504m8.504-8.504v-8.5"/><path stroke="#ff4000" stroke-width=".5" d="M28.598 5.922v5.672"/></g><path fill="#ff4000" d="m28.598.254 2.933 10.953h-5.87z"/><g fill="none" stroke-linecap="round" stroke-linejoin="round"><path stroke="#ff4000" stroke-width=".5" d="m28.598.254 2.933 10.953h-5.87z"/><path stroke="red" stroke-width="2" d="M3.086 28.598h17.008"/><path stroke="#ff4000" stroke-width=".5" d="M5.918 28.598H.25"/></g><path fill="#ff4000" d="M11.59 28.598.637 31.535v-5.87z"/><path fill="none" stroke="#ff4000" stroke-linecap="round" stroke-linejoin="round" stroke-width=".5" d="M11.59 28.598.637 31.535v-5.87z"/><circle cx="20.094" cy="28.598" r="1" fill="red"/><g fill="none" stroke-linecap="round" stroke-linejoin="round"><path stroke="red" stroke-width="2" d="M28.598 20.094a8.504 8.504 0 0 1-8.504 8.504m8.504-8.504v-8.5"/><path stroke="#ff4000" stroke-width=".5" d="M28.598 5.922v5.672"/></g><path fill="#ff4000" d="m28.598.254 2.933 10.953h-5.87z"/><g fill="none" stroke-linecap="round" stroke-linejoin="round"><g stroke-width=".5"><path stroke="#ff4000" d="m28.598.254 2.933 10.953h-5.87z"/><path stroke="#000" d="M.25.254h56.691m0 0v56.691m0 0H.25m0 0V.254"/></g><path stroke="#8080ff" stroke-width="3" d="M8.754 48.441 48.438 8.758"/></g></g></svg>