<svg xmlns="http://www.w3.org/2000/svg" width="104" height="139pt" viewBox="0 -139 78 139"><g id="page1" fill-rule="evenodd"><path fill="#f2f2f2" d="M38.969-77.598c1.152.617 1.062 2.391-.09 2.922-1.328.532-2.48-.71-2.035-2.039.265-.883 1.238-1.328 2.125-.883m16.742.442c.707.265.887 1.238.441 1.77-.617.8-1.859.445-1.945-.532 0-.973.707-1.594 1.504-1.238m-4.074 7.176c5.136.44 9.3 1.683 12.402 3.632l.883.617-.266.622c-5.047 12.668-31.71 16.742-45.265 6.82-.532-.355-.883-.707-.883-.797 7.793-6.91 22.676-11.781 33.129-10.895m-.09 1.418c1.773.44 1.95 1.328.445 2.831l-.886.887.175.977c.09.707.09 1.238 0 1.68-.175.796-.086.886.266 1.066.621.352 1.684.086 2.57-.621.621-.446.707-.446.442.176-.707 1.242-2.391 1.859-3.543 1.242-.442-.18-.532-.18-.621-.09-1.149 1.328-4.872 1.238-6.376-.266-.796-.797-.886-1.242-.09-.62 2.571 1.948 6.38.886 6.38-1.77-.09-1.598-.09-1.684-1.063-2.04-1.418-.53-2.836-1.593-2.836-2.214 0-.887 3.367-1.684 5.137-1.239M43.84-51.38c2.039 2.836 5.14 8.945 6.554 12.758l.356.797-1.062.707c-4.43 2.836-2.922 10.543 2.124 11.16l.622.09-.176.973c-2.305 14.617-19.934 14.796-22.235.265l-.09-.527.708.441c9.215 5.047 15.414-6.91 6.379-12.492-1.418-.883-2.836-1.95-3.899-2.922l-.617-.531.352-2.125c.445-2.66.71-5.05.886-7.266l.09-1.593 1.063.09c1.152.085 7.972 0 8.414-.09.265-.09.355 0 .53.265"/><path fill="#ccc" d="M35.867-136.859c1.864.351 3.723 1.679 4.078 3.629.532 2.57.086 5.226-.62 7.707-2.216 6.378-6.821 11.695-8.77 18.25-.621 2.125-.621 4.339-.356 6.464-.441.176-2.125.797-.972.621 6.109-.886 12.753-1.242 18.601 1.329 4.961 2.125 8.59 6.73 10.719 11.691 1.594 4.078 3.543 8.063 5.226 12.137 1.063 2.746 2.215 5.758 1.329 8.683 0 .973-.621.266-1.063 0-5.316-3.367-11.871-4.078-18.07-3.633-9.746.797-19.313 4.516-27.02 10.63-.62.265-.09 1.062-.797.355-2.304-2.395-4.43-4.961-5.582-8.063-3.011-7.085-1.86-15.414 2.215-21.789 2.57-4.254 6.29-7.62 10.543-10.101.531-.617-1.594.797-1.773-.352-4.075-5.406-7.352-11.961-7.176-18.957.18-5.937 3.101-11.695 7.887-15.238 3.277-2.391 7.441-4.16 11.601-3.363m-.441 6.019c.707.18 2.57 1.242.886.801-1.683-.711-1.242 1.504-1.328 2.566-.09 3.278-1.242 6.379-2.66 9.215-1.77 3.809-3.984 7.442-5.047 11.516-.09.707-.265 1.504-.355 2.215.355.882.797 1.683.973 2.566-1.594-1.945-2.657-4.34-3.454-6.82-1.683-5.578-1.418-11.867 1.239-17.184 1.418-2.746 4.078-5.316 7.355-5.226.797 0 1.684.089 2.39.351m31.8 3.899c3.454.711 7.087 2.394 8.946 5.582.8 1.328.8 3.187-.086 4.519-1.86 3.363-5.492 4.957-8.86 6.375-5.933 2.395-12.312 3.543-17.98 6.469-1.418.797-2.57 1.769-3.633 2.922-1.593-.356-3.191-.621-4.785-.887.09-4.516 1.063-9.125 3.191-13.109 3.278-6.289 9.567-11.16 16.743-12.047 2.125-.266 4.34-.176 6.465.176m-1.328 5.226c2.57.531 5.317 2.215 5.758 4.961.266.977-.531-.707-.797-.887-.445-.707-.796-.175-1.152.27-2.125 2.215-4.605 4.16-7.531 5.312-4.34 1.774-9.035 3.012-13.196 5.493-1.417.796-2.394 2.214-2.925 3.808-.442.621.09-1.238.09-1.594 1.328-6.644 5.667-12.753 11.69-15.945 2.481-1.238 5.317-1.949 8.063-1.418m-24.98 42.344c2.922.973 4.164 4.785 2.746 7.352-1.062 2.39-4.34 3.542-6.465 1.863-2.66-1.95-2.746-6.469-.09-8.418 1.063-.887 2.567-1.239 3.809-.797m16.832.797c2.48 1.508 2.656 5.226.973 7.351-1.063 1.508-3.633 1.594-4.782.09-1.863-2.215-1.507-6.199 1.149-7.531.887-.442 1.863-.352 2.66.09M26.746-53.238c2.035.707 4.16 1.062 6.29 1.418 0 3.363-.446 6.73-.977 10.008-.532 1.062-1.418-1.153-1.86-1.594-1.328-2.125-2.48-4.34-3.277-6.735-.356.18.265 2.13.441 2.926 1.332 4.871 5.227 8.594 9.301 11.25 1.863 1.238 3.723 3.012 3.633 5.403 0 .445.18 1.062-.531 1.152-1.063.707-2.48.707-3.633.09.445.617 1.773 1.062 2.746 1.062 1.332-.445 1.066.442.355 1.063-.972 1.418-3.101 1.86-4.605.972-1.063-.086 2.656 1.328.707 1.242-3.453.266-6.465-2.124-8.59-4.695-3.988-4.695-5.848-11.25-4.254-17.183.621-2.305 1.594-4.61 3.102-6.47.355-.265.797 0 1.152.09m20.02 2.39c4.43 3.633 8.414 8.149 10.187 13.641.797 2.836.973 6.379-1.066 8.77-.617.796-1.594 1.242-2.567 1.418.621-.532 1.153-1.153 1.504-1.86-1.062 1.152-2.746 1.86-4.25 1.238-.531-.265-1.328-.972-1.508-1.414 1.508 0 2.836-.886 3.368-2.215-.887.797-2.125 1.77-3.453 1.239-1.153-.797-.977-2.48-.801-3.633.355-1.504 1.683-2.48 2.836-3.277 1.418-1.063 2.39-2.832 2.215-4.606-.442.887-.887 1.95-1.594 2.656-1.684-4.25-3.809-8.324-6.203-12.312-1.149-1.95.886.09 1.332.355M20.809-40.836c.53 5.313 3.011 10.45 7 14.082 1.418.621 1.593 2.04 1.77 3.457.796 4.16 3.722 8.149 7.886 9.477 2.48.886 5.226.71 7.617-.176-2.836 1.86-6.203 3.187-9.566 3.809-1.243-.356-1.153-2.305-1.864-3.278-1.77-3.633-3.894-7.351-7.261-9.566-1.418-.977-3.278-1.328-4.785-.532-1.684-.18-3.63-.53-5.137.797-1.594.973-2.39 2.922-1.95 4.782-.355.53-.707 2.836-1.238 1.328-1.863-3.278-1.863-7.262-.62-10.715 1.417-4.344 4.429-7.797 6.554-11.785.441-.617 1.152-2.567 1.508-2.39 0 .179.086.444.086.71M8.852-33.84c1.238.356 2.125 1.242 2.746 2.305.53-.445 1.859-2.215 2.48-1.598-2.66 4.078-4.164 9.125-3.012 13.91.176 1.328 1.153 2.567 1.329 3.809-1.329.266-2.57-.356-3.457-1.328-.797 0-1.594.351-2.391.086-2.125-.442-3.543-2.922-2.746-4.957.886-1.684-1.95-.621-2.301-2.04-.977-1.328-.09-3.453 1.594-3.632.617 0 1.504.18.886-.621-1.152-2.39.442-5.668 3.098-6.024.621-.086 1.242-.086 1.774.09m55.984 7.176c1.418.09 2.832 1.328 2.922 2.836.176.797-.442 2.566-.176 2.656.707-.976.707-2.305.887-3.457.972 1.598.441 3.633-.18 5.317-.887 1.949-2.215 3.632-3.543 5.316-.621-.797-1.77-.977-2.656-.531-2.57.972-4.696 2.922-6.113 5.312-.797.887.265 3.278-1.684 2.305-1.684-.531-2.746-2.04-4.34-2.57-2.215-.973-4.605-1.418-6.91-1.95 4.43-2.215 8.418-5.933 9.832-10.804.531-1.063 1.066 1.238 1.508 1.77.972 1.241.09 2.745-.09 4.163-.176.531-.266 1.774.18.621 1.238-2.746 2.39-5.668 4.605-7.882.973-1.067 2.832-.977 3.633.175.707.887.707 1.95.617 3.012-.266-1.594-2.3-.887-2.39.441-.532 1.774 1.949 1.684 2.124.18.532-.976-.351 1.684.356.352.973-1.68 1.238-4.16-.441-5.492-.356-.618-2.746-.708-1.153-1.329.973-.351 1.95-.707 3.012-.441m2.3 2.746c.887 1.063.266 3.012-.882 3.633-1.684.265-1.242-2.305-.531-3.192.351-.351.883-.796 1.414-.441m-41.808 1.504c2.567 1.508 4.25 4.164 5.844 6.734 1.863 3.453 3.633 7.176 3.988 11.16.176 1.329-.09 3.278-1.773 3.368-2.746.355-5.313-.887-7.793-2.04-3.723-1.945-7.352-4.515-9.657-8.148-.972-1.594-1.507-3.543-.707-5.316.883 1.242 2.391 2.039 3.895 2.48-1.414-1.414-3.277-2.746-3.363-4.96.175-2.212 2.566-4.16 4.781-3.278 1.773.621 2.746 2.215 3.543 3.723.18-.711-.617-2.57-1.328-3.543-.442-1.328 1.949-.446 2.57-.18m.797 1.066c1.328.797.266 3.098-1.062 1.946-1.418-.617-.887-3.364.796-2.125l.09.09zm-5.668.973c1.328.621 2.39 2.39 1.594 3.719-1.063 1.152-2.926.265-3.457-.973-.707-.973-.532-2.746.976-2.746.266-.09.621-.09.887 0m-3.281 6.2c1.863.886.27 3.542-1.238 1.948-1.418-1.062-.176-3.187 1.238-1.949m10.367.71c2.922 1.152 5.137 3.809 5.758 6.82.351 1.508-.356 3.454-2.13 3.72-2.3.179-4.425-1.505-5.843-3.188-1.328-1.594-2.394-3.719-1.86-5.848.442-1.77 2.567-2.125 4.075-1.504"/><path fill="#f8b2b0" d="M33.742-127.914c-.09 3.809-.62 5.668-2.746 10.098-3.012 6.203-4.074 8.949-4.43 11.339l-.085.797-.622-1.773c-3.632-10.985-.265-21.348 7.352-22.586l.621-.09zm32.246 7.527c.973.18 3.098 1.067 3.364 1.418.09.18-1.684 2.039-3.012 3.102-2.125 1.773-3.63 2.57-7.176 3.898-6.73 2.571-9.035 3.629-11.336 5.492l-.355.266.265-.797c4.254-9.656 11.16-14.707 18.25-13.379m1.149 96.91c.71.977-.707 3.723-1.504 2.747-.442-.532-.176-1.95.531-2.657.355-.441.707-.441.973-.09m-41.278 2.48c.621.622.621 1.419 0 1.509-.62.086-1.507-1.153-1.152-1.774.176-.351.707-.265 1.152.266m36.852.09c.266.177.176.973-.09 1.505-.621.8-1.418.71-1.418-.176 0-.973.973-1.86 1.508-1.328m-42.254 1.063c.266.176.707.442.883.707 1.594 1.774-.086 3.633-1.86 2.04-1.683-1.505-.886-3.72.977-2.747m43.05 5.317c.177.086.442.265.618.53l.266.267-1.414 1.418c-2.395 2.3-6.114 5.136-6.91 5.136-.356 0 .351-1.773 1.238-3.011 2.039-2.922 4.695-4.786 6.203-4.34M17-13.82c1.063.797.621 2.125-.531 1.418-.442-.176-.797-.797-.797-1.153 0-.62.707-.797 1.328-.265m10.098.62c3.191.973 6.203 4.962 5.847 7.708-.441 3.898-6.289 2.035-8.593-2.746-1.504-3.367-.176-5.848 2.746-4.961"/><path d="M35.691-138.012c3.985.617 5.582 2.657 5.582 7.172 0 4.254-1.062 7.266-5.316 14.617-3.809 6.825-4.785 9.391-4.785 13.024 0 2.125 0 2.125 1.418 1.769 1.863-.441 2.926-.531 5.05-.617h2.036l.09-1.418c.797-12.492 7.53-21.348 18.25-24.094 12.488-3.191 24.27 4.871 18.156 12.489-2.832 3.457-6.11 5.226-15.5 8.062-8.063 2.391-10.984 3.719-13.11 5.578l-.796.797 1.148.445c5.758 2.481 9.39 6.465 12.227 13.465.62 1.418 1.504 3.454 1.949 4.606 2.832 6.289 3.808 8.68 4.164 10.453 1.95 8.68-5.05 16.121-17.719 19.047l-1.504.351 1.149.887c10.808 9.035 14.351 23.207 6.203 25.246-1.153.266-1.153 1.152-.266 2.746.356.621.797 1.418.973 1.774.445.883.445.883.797.086 2.48-5.227 7.707-7.793 11.074-5.403.266.176.707.442.973.442 4.695.976 1.949 9.48-5.047 15.855-5.934 5.406-8.504 6.113-11.692 3.192-1.152-1.063-4.52-2.215-8.683-2.922l-1.418-.18-1.504.445a47 47 0 0 1-2.746.797c-.797.176-1.418.266-1.418.266s.176.707.355 1.504c.532 2.039.707 3.898.532 4.875C35.07 4.605 16.378-4.34 13.898-13.29c-.351-1.152-.441-1.238-.972-1.063-1.242.266-3.012 0-3.899-.796-.351-.266-.441-.356-1.504-.356-3.011 0-5.05-2.035-5.05-4.96v-1.063l-.707-.356c-2.48-1.328-2.305-5.137.265-6.289.442-.086.617-.265.531-.351-1.328-4.786 4.961-8.684 8.68-5.317l.442.442.535-.352c.707-.445 1.68-.797 2.3-.797s.977-.445 3.102-4.164c2.48-4.43 3.188-5.848 3.453-7.352.531-2.394 1.594-4.96 2.926-7.09l.531-.882-.62-.266C6.015-61.566 4.952-89.203 22.136-97.887l.71-.351c.087 0-.355-.531-.796-1.243-8.238-11.16-9.035-22.941-2.13-31.445 4.079-5.051 10.634-7.972 15.77-7.086m.176 1.153c3.457.796 4.696 3.011 4.254 7.437-.445 3.723-1.328 6.024-5.05 12.492-4.34 7.617-5.313 10.719-4.962 15.325l.09.796-.797.356c-1.062.441-.976.441.887.176 15.059-2.215 23.828 2.125 28.7 14.175.976 2.391 1.417 3.364 3.187 7.352 3.101 6.82 3.722 9.21 2.926 12.488-2.926 11.782-26.043 17.63-41.547 10.453-17.45-7.972-16.742-32.156 1.242-42.695.973-.621 1.062-.71.176-.445-.973.265-.973.265-1.77-.883-7.09-9.481-8.683-18.871-4.61-26.844 3.368-6.82 11.25-11.426 17.274-10.183m-.441 6.019c.62.18 1.773.801 1.773.977 0 0-.355-.09-.886-.176-1.329-.266-1.243-.356-1.329 1.769-.18 4.34-.8 6.29-3.812 12.403-2.922 5.758-3.809 7.883-4.074 10.277l-.176.973.531 1.418c.707 1.594.621 1.594-.265.355-8.063-12.051-2.305-31.359 8.238-27.996m-1.684 2.926c-.09 3.809-.62 5.668-2.746 10.098-3.012 6.203-4.074 8.949-4.43 11.339l-.085.797-.622-1.773c-3.632-10.985-.265-21.348 7.352-22.586l.621-.09zm33.485.973c6.199 1.152 10.718 5.671 9.3 9.214-1.683 3.985-5.668 6.379-16.297 9.657-8.859 2.746-11.96 4.164-14.085 6.375l-.532.621-1.508-.266c-.882-.176-1.77-.355-2.035-.441-.265 0-.71-.09-.886-.18h-.356l.09-1.594c.797-15.148 12.844-25.867 26.309-23.386m-1.329 5.226c3.012.621 5.493 2.66 5.758 4.875l.09.531-.355-.621c-.266-.265-.532-.711-.711-.797l-.352-.355-1.062 1.152c-3.102 3.012-5.141 4.25-10.188 6.024-9.3 3.367-11.605 4.695-12.668 7.261-.62 1.598-.707 1.598-.355-.261 1.773-10.543 11.695-19.403 19.843-17.809m.09 1.328c.973.18 3.098 1.067 3.364 1.418.09.18-1.684 2.039-3.012 3.102-2.125 1.773-3.63 2.57-7.176 3.898-6.73 2.571-9.035 3.629-11.336 5.492l-.355.266.265-.797c4.254-9.656 11.16-14.707 18.25-13.379m-25.07 41.016c4.605 1.683 4.34 8.68-.266 9.832-3.101.797-5.933-2.215-5.492-5.758.442-2.922 3.278-4.96 5.758-4.074m16.832.797c3.453 1.949 2.3 8.504-1.418 8.504-2.746.09-4.43-3.72-3.012-6.73.887-1.95 2.832-2.66 4.43-1.774m-18.691.976c.53.352.797.797.797 1.504 0 1.418-1.594 2.125-2.657 1.153-1.418-1.243.266-3.633 1.86-2.657m16.918.532c.441.265.62.972.355 1.504-.445 1.062-1.95.796-2.125-.442-.18-.977.973-1.683 1.77-1.062m-5.051 8.504c2.304.351 2.57 1.68.71 3.187l-.44.356v1.859c0 1.77 0 1.86.265 2.039.617.441 1.86.176 2.746-.621.531-.446.531-.356.176.265-.711 1.239-2.215 1.684-3.543 1.063-.356-.176-.446-.176-.621 0-1.504 1.328-5.492 1.062-6.465-.531-.445-.711-.356-.797.086-.356 1.418 1.242 4.785 1.328 5.937.09.532-.621.707-1.328.532-3.012l-.09-.62-.707-.266c-4.254-1.329-3.102-4.164 1.414-3.454m-24.18 15.324c1.238.441 3.543.972 4.961 1.238l1.328.18v1.328c0 2.125-.887 8.77-1.152 9.035-.442.531-3.723-5.137-4.606-7.883q-.796-2.128-.265.531c.797 4.871 3.808 8.946 9.12 12.489 3.013 1.949 4.165 3.543 4.165 5.582v1.062l-.707.442c-.977.445-2.125.445-3.102.09-.707-.356-.531-.09.266.355.797.441 1.86.617 2.656.531.621-.18.711-.18.18.617-1.153 1.774-3.012 2.395-4.785 1.508-.621-.265-.621-.265-.352 0 .176.09.617.356.973.621.972.442.797.532-.797.532-4.961 0-10.719-6.38-12.227-13.465-1.062-4.871-.175-9.922 2.66-14.172.618-.977.618-.977 1.684-.621m20.02 2.39c7.793 6.38 11.867 14.086 10.453 19.754-.446 2.125-1.864 3.723-3.457 3.989l-.442.085.532-.53c.265-.266.62-.622.707-.887l.265-.442-.531.442c-1.418 1.332-3.543 1.332-4.781 0l-.446-.532.621-.175c.887-.09 1.774-.622 2.305-1.419.617-.796.617-.972 0-.355-1.418 1.418-3.367 1.332-3.722-.086-.622-2.129.09-4.164 1.949-5.316 1.949-1.239 3.011-3.012 3.011-4.696v-.53l-.265.53c-.531 1.153-1.238 2.215-1.328 2.125-.09-.086-.356-.797-.711-1.68-.883-2.128-3.188-6.734-4.692-9.214-1.597-2.746-1.597-2.832.532-1.063m-1.864 1.153c2.395 3.808 3.813 6.644 5.141 9.922.883 2.214.883 1.949-.266 2.656-4.43 2.836-3.101 10.187 1.95 11.16.882.09.882 0 .53 1.684-.796 3.988-3.276 7.796-5.757 8.949-7.797 3.719-15.414-.531-16.477-9.125l-.09-.707 1.063.527c9.48 4.43 14.707-6.82 5.848-12.578-1.86-1.238-3.278-2.39-3.989-3.098l-.351-.355.266-2.04c.53-3.187.796-4.87.796-6.995l.086-2.04 1.332.09c1.68.176 5.578.176 7.352 0l1.418-.09zm-24.093 8.86c.53 5.757 3.898 11.956 8.152 14.968.176.176.266.355.352 1.152 1.062 8.504 8.152 13.375 15.68 10.719.62-.18-1.24.887-2.657 1.594-1.773.797-3.898 1.504-5.672 1.949-1.68.355-1.594.441-2.125-.887-3.453-8.77-8.68-13.906-12.488-12.402-.711.265-.797.265-1.242.18-3.188-1.153-6.997 1.949-6.29 5.046.09.446.09.621-.09.887-.175.176-.35.707-.44 1.063-.266.796-.356.796-1.063-.887-2.125-4.516-1.242-9.832 2.746-15.856 1.594-2.57 2.656-4.34 3.984-6.73.535-.977.977-1.773.977-1.773.09 0 .09.355.176.976M8.852-33.84c.886.266 1.859.977 2.39 1.774.531.707.442.707.887 0 .355-.532.973-.977 1.684-1.153.44-.18.44-.18-.266.973-3.192 5.227-3.723 11.164-1.508 15.68.621 1.242.621 1.152-.355 1.152-.883 0-1.594-.266-2.301-.977l-.531-.441-.711.176c-2.125.445-4.25-1.063-4.516-3.278-.09-.53 0-.972.355-2.39.086-.266 0-.266-.445-.266-1.418 0-2.39-1.062-2.39-2.39s.972-2.305 2.48-2.305h.621l-.355-.797c-1.328-3.277 1.593-6.73 4.96-5.758m55.984 7.176c2.48.355 3.453 2.215 2.656 5.402-.09.356-.09.356.09.09.352-.441.797-1.86.797-2.746s.176-.887.441 0c.621 2.305-.53 5.402-3.187 8.77l-.887 1.152-.531-.445c-2.04-1.86-9.477 4.43-8.594 7.265.266 1.063-2.215.266-3.809-1.242-1.062-.973-3.808-1.945-7.792-2.746l-.977-.266.887-.441c4.34-2.39 7.53-5.934 8.86-9.922.35-1.238.265-1.238 1.237.711.977 1.86.977 1.77.621 3.098-.355 1.152-.62 3.011-.53 2.836.089 0 .355-.622.62-1.243 2.922-6.554 5.047-8.855 7.262-7.617q1.464.798 1.328 2.926v.707l-.176-.441c-.62-1.508-2.746.175-2.215 1.68.442 1.066 1.684.62 2.126-.618.18-.621.265-.265.09.442-.176.62.09.265.53-.622 1.153-2.656.356-4.96-1.949-5.578-.355-.09-.62-.265-.53-.265.175-.356 2.304-1.063 2.835-.977 0 0 .352 0 .797.09m2.3 2.746c.712.441.532 2.305-.265 3.188-1.062 1.152-2.125.18-1.68-1.329.352-1.503 1.239-2.3 1.946-1.859m0 .441c.712.977-.706 3.723-1.503 2.747-.442-.532-.176-1.95.531-2.657.355-.441.707-.441.973-.09m-41.808 1.063c5.492 2.746 12.403 18.957 8.945 20.996-2.656 1.504-10.718-1.95-15.59-6.644-3.187-3.012-4.34-5.844-3.632-8.239l.18-.355.44.535a5.9 5.9 0 0 0 2.571 1.68l.883.265-1.328-1.238c-2.3-2.305-2.656-4.074-.973-5.934 2.035-2.304 5.047-1.418 6.82 1.946.356.71.622.976.532.8-.266-1.507-.621-2.57-1.328-3.367-.797-1.062.707-1.328 2.48-.445m.797 1.066c.973.973.797 2.125-.266 2.211-.797.09-1.949-1.238-1.683-2.125.265-.797 1.152-.797 1.949-.086m-.266.352c.621.621.621 1.418 0 1.508-.62.086-1.507-1.153-1.152-1.774.176-.351.707-.265 1.152.266m36.852.09c.266.175.176.972-.09 1.504-.621.8-1.418.71-1.418-.176 0-.973.973-1.86 1.508-1.328m-42.254.531c2.211.973 2.566 4.254.441 4.254-2.57 0-3.808-4.078-1.328-4.254.352-.09.707 0 .887 0m0 .531c.266.176.707.442.883.707 1.594 1.774-.086 3.633-1.86 2.04-1.683-1.505-.886-3.72.977-2.747m43.05 5.317c.177.086.442.265.618.53l.266.267-1.414 1.418c-2.395 2.3-6.114 5.136-6.91 5.136-.356 0 .351-1.773 1.238-3.011 2.039-2.922 4.695-4.786 6.203-4.34m-46.331.351c.535.356.976 1.242.8 1.684-.355 1.418-2.48.62-2.66-.973-.086-.976.887-1.418 1.86-.71M17-13.82c1.063.797.621 2.125-.531 1.418-.442-.176-.797-.797-.797-1.153 0-.62.707-.797 1.328-.265m10.543.355c3.809 1.328 6.82 6.465 5.492 9.125-1.863 3.719-8.77-.535-9.656-5.847-.445-2.657 1.504-4.254 4.164-3.278m-.445.266c3.191.972 6.203 4.96 5.847 7.707-.441 3.898-6.289 2.035-8.593-2.746-1.504-3.367-.176-5.848 2.746-4.961"/></g></svg>