<svg xmlns="http://www.w3.org/2000/svg" width="910pt" height="422pt" viewBox="0 -422 910 422"><g id="page1" transform="scale(1 -1)"><path fill="#cc9c6f" d="M142.73 324.148a7141 7141 0 0 1 311.813-6.804c104.062 0 208.082 2.269 311.812 6.804v17.008a7141 7141 0 0 1-311.812 6.805 7141 7141 0 0 1-311.813-6.805z"/><path fill="none" stroke="#000" stroke-linecap="round" stroke-linejoin="round" stroke-width="2" d="M142.73 324.148a7141 7141 0 0 1 311.813-6.804c104.062 0 208.082 2.269 311.812 6.804v17.008a7141 7141 0 0 1-311.812 6.805 7141 7141 0 0 1-311.813-6.805z"/><path fill="#fff" d="M176.746 332.652a5.665 5.665 0 0 1-5.668 5.668 5.667 5.667 0 1 1 0-11.336 5.667 5.667 0 0 1 5.668 5.668"/><path fill="none" stroke="#000" stroke-linecap="round" stroke-linejoin="round" stroke-width="2" d="M176.746 332.652a5.665 5.665 0 0 1-5.668 5.668 5.667 5.667 0 1 1 0-11.336 5.667 5.667 0 0 1 5.668 5.668"/><path fill="#fff" d="M743.676 332.652a5.665 5.665 0 0 1-5.668 5.668 5.667 5.667 0 1 1 0-11.336 5.667 5.667 0 0 1 5.668 5.668"/><path fill="none" stroke="#000" stroke-linecap="round" stroke-linejoin="round" stroke-width="2" d="M743.676 332.652a5.665 5.665 0 0 1-5.668 5.668 5.667 5.667 0 1 1 0-11.336 5.667 5.667 0 0 1 5.668 5.668"/><path fill="#d3ae37" d="M341.156 86.04c0 15.655-76.144 28.347-170.078 28.347C77.148 114.387 1 101.695 1 86.039s76.148-28.348 170.078-28.348c93.934 0 170.078 12.692 170.078 28.348"/><path fill="none" stroke="#000" stroke-linecap="round" stroke-linejoin="round" stroke-width="2" d="M341.156 86.04c0 15.655-76.144 28.347-170.078 28.347C77.148 114.387 1 101.695 1 86.039s76.148-28.348 170.078-28.348c93.934 0 170.078 12.692 170.078 28.348m-170.078 226.77 161.41-217.813m-161.41 217.813L117.32 112.941m53.758 199.868L19.984 73.012m151.094 239.797v19.843"/><path fill="#79ac14" d="M108.816 106.523c1.95 3.368 4.606 7.266 6.555 9.747 0 .707-.18 1.418-.18 2.3-.707 3.543-3.718 6.203-6.906 5.672-3.191-.531-5.316-3.898-4.605-7.621.175-1.594 1.414-5.312 2.832-9.031.711-.18 1.593-.535 2.304-1.067"/><path fill="none" stroke="#000" stroke-linecap="round" stroke-linejoin="round" stroke-width="2.25" d="M108.816 106.523c1.95 3.368 4.606 7.266 6.555 9.747 0 .707-.18 1.418-.18 2.3-.707 3.543-3.718 6.203-6.906 5.672-3.191-.531-5.316-3.898-4.605-7.621.175-1.594 1.414-5.312 2.832-9.031.711-.18 1.593-.535 2.304-1.067"/><path fill="#79ac14" d="M113.598 101.742c3.367 1.949 7.265 4.606 9.746 6.555.707 0 1.418-.18 2.301-.18 3.543-.707 6.203-3.719 5.671-6.906-.531-3.192-3.898-5.14-7.621-4.61-1.593.18-5.312 1.418-9.035 2.837-.176.71-.531 1.593-1.062 2.304"/><path fill="none" stroke="#000" stroke-linecap="round" stroke-linejoin="round" stroke-width="2.25" d="M113.598 101.742c3.367 1.949 7.265 4.606 9.746 6.555.707 0 1.418-.18 2.301-.18 3.543-.707 6.203-3.719 5.671-6.906-.531-3.192-3.898-5.14-7.621-4.61-1.593.18-5.312 1.418-9.035 2.837-.176.71-.531 1.593-1.062 2.304"/><path fill="#a4cd34" d="M111.473 104.398a7.8 7.8 0 0 0 2.125-2.656c4.429 2.305 9.922 6.375 11.515 7.973 2.66 2.656 2.836 6.555.532 8.855-2.125 2.305-6.2 1.95-8.856-.531-1.598-1.594-5.492-7.086-7.973-11.516a7.8 7.8 0 0 0 2.657-2.125"/><path fill="none" stroke="#000" stroke-linecap="round" stroke-linejoin="round" stroke-width="2.25" d="M111.473 104.398a7.8 7.8 0 0 0 2.125-2.656c4.429 2.305 9.922 6.375 11.515 7.973 2.66 2.656 2.836 6.555.532 8.855-2.125 2.305-6.2 1.95-8.856-.531-1.598-1.594-5.492-7.086-7.973-11.516a7.8 7.8 0 0 0 2.657-2.125"/><path fill="#f26d21" d="M111.473 104.398c-5.493 5.493-14.528 5.137-20.196-.707-8.859-8.859-29.234-35.609-22.68-42.168 6.555-6.554 33.309 13.82 42.169 22.68 5.843 5.844 6.199 14.703.707 20.195"/><path fill="#ce5c1c" d="M111.473 104.398c2.304-5.136 1.062-11.691-3.368-16.12-8.324-8.329-32.421-26.575-40.746-23.563 0-1.418.356-2.48 1.239-3.192 6.554-6.554 33.308 13.82 42.168 22.68 5.843 5.668 6.199 14.703.707 20.195"/><g fill="none" stroke="#000" stroke-linecap="round" stroke-linejoin="round" stroke-width="2.25"><path d="M109.699 82.96s-5.312 1.774-10.629 7.087m-10.453-5.668s-3.363 3.012-6.906 7.973m20.551-15.59s-4.43 1.238-7.266 4.074m1.418-8.328s-4.605.886-9.39 5.672M74.8 81.898s1.95-3.718 5.844-6.91m6.559 24.274s1.063-3.192 4.074-6.203M75.863 67.016s2.48-2.832 5.493-4.075m38.265 49.61-8.148-8.153m-1.774 11.34 1.067-6.023m12.047-7.086-6.024 1.062"/><path d="M111.473 104.398c-5.493 5.493-14.528 5.137-20.196-.707-8.859-8.859-29.234-35.609-22.68-42.168 6.555-6.554 33.309 13.82 42.169 22.68 5.843 5.844 6.199 14.703.707 20.195"/></g><g fill-rule="evenodd"><path fill="#88d055" d="M212.453 124.586c-.754-.621 1.328-.621.977-1.508 1.371-3.23 2.699-6.555 3.277-10.051 2.172-11.207-.578-23.296-7.531-32.379-6.996-9.566-17.625-16.609-29.363-18.558-10.719-1.86-22.012.664-31.227 6.379-2.305 1.418-4.473 3.012-6.555 4.738 6.465-7.305 15.903-11.559 25.465-12.621 14-1.594 28.703 2.965 38.981 12.668 6.996 6.555 11.824 15.5 12.796 25.066.844 7.707.047 15.813-3.453 22.766a22 22 0 0 1-2.523 3.855c-.356.133-.578-.222-.844-.355"/><path fill="#b9f88c" d="M212.234 124.32c-.929-.355-2.437-1.105-1.949-2.39 2.969-5.938 4.207-12.668 4.074-19.313-.175-6.246-1.64-12.62-5.136-17.894-4.078-6.242-10.235-10.985-17.098-13.774-9.832-4.25-21.039-5.668-31.492-3.055-6.512 1.637-12.801 4.782-17.274 9.922-.796.84-1.418 1.813-1.949 2.88-.398 1.238-1.726 1.28-2.656.484-1.375-.575-.844-2.125-.09-3.012 1.949-3.809 5.184-6.863 8.902-9.035 6.204-3.942 13.289-6.688 20.641-7.395 7.574-.843 15.367.399 22.277 3.63 12.094 5.491 21.836 16.3 25.512 29.144 2.613 9.39 1.551 19.621-2.523 28.433-.219.578-.489 1.375-1.239 1.375"/><path d="M211.305 126.625c-5.094-1.684-9.348-5.051-14.176-7.266-20.02-10.851-39.375-22.765-58.375-35.21-1.641-1.153-3.41-2.747-3.41-4.872.133-2.613 1.949-4.695 3.453-6.687 5.891-7.176 14.441-11.785 23.43-13.82 8.328-1.86 17.054-.977 25.246 1.152 9.48 2.566 18.468 7.75 24.761 15.367 7.75 9.48 11.336 22.192 9.7 34.328-.579 4.828-1.907 9.699-4.52 13.817-1.195 1.726-3.012 3.41-5.269 3.367-.266-.043-.579-.09-.84-.176m1.281-1.949c-.887-.664-2.523-.977-2.481-2.348.223-.844.797-1.594 1.067-2.437 4.074-9.743 4.293-21.172.219-30.961-2.438-5.625-6.688-10.364-11.739-13.774-8.191-5.625-18.203-8.281-28.078-8.37-7.972-.087-16.168 1.683-22.855 6.155-3.321 2.262-6.156 5.317-7.883 8.95-1.195.043-2.57-.532-2.969-1.73-.09-1.106.797-1.946 1.242-2.923 4.293-7.086 11.512-12.09 19.356-14.66 15.855-5.18 34.281-1.418 46.859 9.566 6.067 5.317 10.629 12.36 12.797 20.11 1.465 5.316 1.731 10.894 1.242 16.387-.531 4.871-1.859 9.746-4.429 13.996-.707.664-.797 2.125-1.95 2.215-.175.043-.265-.133-.398-.176m-4.781-2.789c-17.364-8.907-33.926-19.227-50.848-28.836-5.492-3.278-10.894-6.778-15.812-10.809 2.878-5.668 8.328-9.699 14.218-11.867 9.657-3.5 20.418-3.41 30.293-.754 7.754 2.082 15.196 5.98 20.465 12.09 3.32 3.898 5.227 8.77 6.156 13.777 1.461 7.442 1.418 15.41-1.285 22.586-.441 1.242-1.062 2.395-1.726 3.543-.313.488-1.02.754-1.461.27m-2.926-13.157c-1.238-.753-.043-2.968 1.285-2.527 1.063.445.844 1.996-.133 2.395-.351.175-.754.265-1.152.132m-10.274-10.675c-1.109-.442-.621-2.082.356-2.434 1.105-.355 2.035 1.063 1.371 1.992-.309.664-1.152.93-1.727.442m10.008-.133c-1.195-.84-.308-2.79.977-2.965 1.152-.223 2.215 1.195 1.504 2.211-.531.8-1.637.887-2.481.754m-21.172-7.617c-.882-1.239.313-3.368 1.817-3.102 1.242.445.976 2.172.047 2.793-.489.398-1.242.617-1.864.309m10.942-2.614c-1.063-.886-.266-2.347.355-3.187.707-.977 2.438-.754 2.7.398.222 1.063-.532 2.035-1.329 2.614-.488.351-1.195.441-1.726.175m-24.668-3.543c-1.375-.574-1.067-3.101.441-3.187 1.641.133 1.817 2.965.223 3.32-.223.043-.488 0-.664-.133m-13.024-1.593c-1.328-.446-1.769-2.57-.488-3.325 1.152-.44 2.125.977 2.039 2.04.043.753-.754 1.902-1.551 1.285m22.278-4.473c-1.504-.976-.352-3.766 1.418-3.414 1.242.266 1.242 1.996.488 2.793-.398.574-1.242 1.02-1.906.621m-16.387-1.95c-1.461-.71-1.195-3.41.488-3.632 1.504 0 2.082 2.082 1.285 3.144-.355.575-1.152.93-1.773.489"/><path fill="#e96c92" d="M207.805 121.887c-17.364-8.907-33.926-19.227-50.848-28.836-5.492-3.278-10.894-6.778-15.812-10.809 2.878-5.668 8.328-9.699 14.218-11.867 9.657-3.5 20.418-3.41 30.293-.754 7.754 2.082 15.196 5.98 20.465 12.09 3.32 3.898 5.227 8.77 6.156 13.777 1.461 7.442 1.418 15.41-1.285 22.586-.441 1.242-1.062 2.395-1.726 3.543-.313.488-1.02.754-1.461.27m-2.926-13.157c-1.238-.753-.043-2.968 1.285-2.527 1.063.445.844 1.996-.133 2.395-.351.175-.754.265-1.152.132m-10.274-10.675c-1.109-.442-.621-2.082.356-2.434 1.105-.355 2.035 1.063 1.371 1.992-.309.664-1.152.93-1.727.442m10.008-.133c-1.195-.84-.308-2.79.977-2.965 1.152-.223 2.215 1.195 1.504 2.211-.531.8-1.637.887-2.481.754m-21.172-7.617c-.882-1.239.313-3.368 1.817-3.102 1.242.445.976 2.172.047 2.793-.489.398-1.242.617-1.864.309m10.942-2.614c-1.063-.886-.266-2.347.355-3.187.707-.977 2.438-.754 2.7.398.222 1.063-.532 2.035-1.329 2.614-.488.351-1.195.441-1.726.175m-24.668-3.543c-1.375-.574-1.067-3.101.441-3.187 1.641.133 1.817 2.965.223 3.32-.223.043-.488 0-.664-.133m-13.024-1.593c-1.328-.446-1.769-2.57-.488-3.325 1.152-.44 2.125.977 2.039 2.04.043.753-.754 1.902-1.551 1.285m22.278-4.473c-1.504-.976-.352-3.766 1.418-3.414 1.242.266 1.242 1.996.488 2.793-.398.574-1.242 1.02-1.906.621m-16.387-1.95c-1.461-.71-1.195-3.41.488-3.632 1.504 0 2.082 2.082 1.285 3.144-.355.575-1.152.93-1.773.489"/><path fill="#247040" d="M259.887 134.578c-.633.293-1.121-.437-.875-.973.242-.734.926-.05 1.41-.148.73.051 1.609-.098 2.242.438.586.539-.488 1.074-1.023.976-.582-.051-1.168-.242-1.754-.293m2.777-.683c-.73-.485-2.531-.196-3.266-.68-.484-.438.293-1.317.391-1.805.293-.68.391-1.461.242-2.191-.242-1.61-1.07-3.02-1.754-4.481-1.703-3.656-3.652-7.164-5.257-10.914 1.019-.39 1.996.293 2.968.582.782.196 1.024 1.074 1.219 1.754.148.735.293 1.414.684 2.047 1.461 3.266 3.168 6.434 4.629 9.695.582 1.657.925 3.411.875 5.118.39 1.316-.34 1.121-.731.875m-23.289-13.786c-1.508-.39-3.164-.539-4.434-1.511 2.829-.438 5.36-2.047 7.211-4.192 1.024-1.461 1.754-3.215 3.266-4.238.777-.582 1.703-1.023 2.68-1.07.632 0 1.023.535 1.558.828.926.683 1.121 1.996 2.094 2.629.535 1.121.098 2.437-.484 3.461-.684 1.168-1.661 2.386-2.778 3.117-2.535 1.512-5.703 1.461-8.527 1.074-.195-.051-.391-.051-.586-.098m24.848-2.972c-2.825-1.903-6.235-2.582-9.453-3.606-1.024-.293-1.997-.73-2.825-1.461-1.218-1.023-2.093-2.679-1.754-4.336.247-.976 1.219-1.851 2.243-1.511.535.05 1.07.683 1.265.05.196-.488.34-1.171 1.024-1.171 2.535-.243 5.066.828 6.82 2.632a8.4 8.4 0 0 1 2.484 4.918c.344 1.563.489 3.121.586 4.68-.097.195-.34-.051-.39-.195m-25.09-1.754c-2.731-.828-5.699-1.414-8.574-.977-.246.828-1.563-.047-.586-.386 1.218-1.657 3.07-2.731 4.922-3.461 1.656 0 3.117.781 4.675 1.074.731.437 1.903.34 2.731.633.73.339-.488 1.507-.735 1.949-.437.535-.828.973-1.507 1.215-.293.097-.633.148-.926-.047m28.988-.586c-1.219-.293-2.582-.535-3.363-1.606-.289-.488-.438-1.121-.438-1.707 0-.781.926 0 1.024-.046-.438-.54-.973-.926-1.461-1.415-.535-1.023-1.168-2.144-2.192-2.726-.488-.539 0-1.27.633-1.367.582-.196 1.168.05 1.754.148 3.262.582 5.895 2.922 9.16 3.606.535-.344 1.168.195 1.215.73.149.582-.144 1.117-.633 1.461-.582.633-1.07 1.363-1.8 1.898-1.122.829-2.536 1.317-3.899 1.024m16.176-.68c-2.242-1.754-5.164-2.39-7.942-2.437-.488-.098-1.167.195-1.363-.391-.195-.633.34-1.266.047-1.851-.391-.387-1.023-.196-1.559-.293-.437.097-.683-.536-.144-.387.293.097 1.019 0 .437-.293-.488-.391.536-.246.778-.488 1.269-.438 2.484-1.071 3.851-1.414 1.559.097 2.825 1.218 4.043 2.144 1.508 1.461 2.582 3.656 2.243 5.797-.196 0-.196-.34-.391-.387m-14.473-6.433c-.679-.536-1.652-.489-2.289-1.168-.582-.586 1.024-.243.731-.633-.875.39-.875.39-1.703-.293-.633-.977.339-1.512.679-1.852 1.172-1.074 2.684-1.609 4.094-2.093 3.41-.977 7.066-1.465 10.574-.782 1.41.293 2.778.782 3.992 1.461-.679.781-1.8.442-2.679.731-.485.246-1.024.586-1.606.832-2.73 1.41-5.359 3.308-8.476 3.945-1.075.242-2.243.242-3.317-.148"/><path fill="#d1242b" d="M231.387 107.879c-1.805-1.899-2.973-4.285-3.899-6.676-1.363-3.992-1.609-8.281-1.316-12.472.488-4.872 2-9.598 3.898-14.079 1.95-4.336 3.848-8.671 5.946-12.91 1.312-2.68 2.629-5.312 4.382-7.699 1.852-2.387 4.676-4.191 7.797-4.043 2.145 0 4.09 1.07 5.895 2.145 2.875 1.605 5.652 3.359 8.527 5.066 6.918 5.016 12.762 11.398 18.074 18.027 1.657 2.192 2.922 4.727 3.262 7.5.539 3.508.488 7.114-.242 10.621-.535 2.047-1.606 3.899-2.531 5.75-.782 1.266-2.242.684-3.461.73-3.364.196-6.774 1.024-9.696 2.778-.878.731-1.316 1.805-1.996 2.68-1.269.926-2.972-.34-4.238.586-1.074.586-2.34-.098-3.266-.633-1.656-.73-3.703-.73-5.214.289-1.024.391-2.289.539-3.02 1.512.195 1.121-1.07 2.191-2.144 1.707-.973-.293-2.047.34-2.875.875-.926.535-1.606 1.609-2.68 1.949-3.555-.293-8.817-2.047-11.203-3.703"/><path d="M259.547 135.066c-1.27.047-2.098-1.804-.781-2.386 1.265-1.367.976-3.41.437-5.02-.824-2.633-2.387-4.871-3.601-7.308-.926-1.801-1.903-3.653-2.633-5.504-1.266.191-.926 1.8-1.703 2.484-1.903 2.434-5.02 3.652-8.09 3.75-3.117.098-6.235-.535-8.965-2.047.148-1.121 1.461-.828 2.242-1.121.777-.68 2.145-.633 2.727-1.605-.391-.879-1.559-.731-2.336-.926-1.563-.242-3.121-.731-4.727-.633a5.13 5.13 0 0 0-3.312 1.219c-1.024-.149.293-1.317.535-1.805 1.219-1.559 2.726-3.07 4.629-3.75-.731-1.316-2.535-1.512-3.313-2.777-3.265-3.364-4.824-7.993-5.312-12.57-.828-7.454 1.172-14.958 4.336-21.68 2.633-5.457 5.359-10.914 7.992-16.371 1.461-2.68 3.117-5.504 5.941-6.918 2.68-1.317 6.09-1.22 8.672.39 3.461 1.754 6.727 3.703 10.039 5.653 7.649 5.113 13.887 12.03 19.293 19.437 1.852 2.824 2.824 6.188 3.313 9.55.586 4.774-.293 9.79-2.875 13.884-.828 1.363 1.168 1.754 2.144 2 .875.34 2.973.777 2.289 2.043-1.023.636-2.34.246-3.359.832-1.316.535-2.488 1.312-3.703 1.945.242 1.121 1.558 1.023 2.336 1.609 1.656 1.508 3.215 3.411 3.508 5.7.39.828-.047 2.437-1.168 1.851-.489-.875-1.461-1.265-2.34-1.558-2.289-.926-4.774-1.024-7.16-1.414-1.317 1.367-2.633 2.972-4.629 3.214-1.61.344-3.461 0-4.727-1.117-1.07.633-.195 1.899-.144 2.778.195.679-.489 1.753-1.024.777-1.219-1.121-2.875-1.461-4.336-2.094-.73-.148-1.609-.828-2.242-.195-.293 1.023.488 1.898.73 2.777 1.801 4.383 4.583 8.379 5.411 13.059.195 1.019.582 2.14.144 3.117-.586 1.07-1.996 1.117-3.07.973-.391-.047-.777-.145-1.168-.243m.293-.39c-1.219.488-1.121-2.047.098-1.121.925.097 2.531-.196 2.968.73-.484 1.219-2.14.438-3.066.391m2.336-1.219c-.778-.535-2.485.391-2.68-.875.149-.879.684-1.707.586-2.633-.051-1.558-.684-3.019-1.266-4.433-1.753-3.946-4.093-7.602-5.796-11.594 1.168-.391 2.289.437 3.41.777.972 1.024.73 2.582 1.508 3.703 1.707 3.946 4.093 7.602 5.214 11.84.196 1.071.243 2.192.243 3.313-.438 0-.829.05-1.219-.098m-22.801-13.25c-1.41-.391-3.02-.391-4.141-1.414 1.707-.535 3.461-1.07 4.825-2.34 2.191-1.801 3.457-4.531 5.652-6.332.73-.586 1.605-1.023 2.531-1.121.731 1.168-1.461 1.266-1.656 2.289-1.121 1.461-1.703 3.215-2.727 4.727 1.606-1.168 1.899-3.364 3.36-4.727.633-.633 1.414-1.605 2.437-1.219 1.024.735 1.414 2 2.192 2.926.535 1.168-.243 2.387-.778 3.41-1.218 2.094-3.507 3.555-5.945 3.848-1.898.293-3.848.242-5.75-.047m24.848-2.973c-3.215-2.242-7.211-2.73-10.766-4.14-1.754-.781-3.461-2.391-3.312-4.434 0-1.121.73-2.387 1.898-2.484 1.316.144 1.656 1.703 2.535 2.433 1.852 1.657 4.336 2.34 6.332 3.801.731.34-.586-.777-.828-.879-1.559-1.019-3.41-1.605-4.824-2.824a6.1 6.1 0 0 1-1.801-2.047c.535-.484.289-1.605 1.41-1.461 1.949-.242 3.899.535 5.508 1.61 1.656 1.121 2.922 2.875 3.41 4.871.488 1.656.535 3.41.926 5.117.047.293-.148.68-.488.437m-25.09-1.851c-2.731-.828-5.653-1.317-8.528-.879-.242.976-1.753-.242-.632-.484 1.363-1.512 3.117-2.68 5.019-3.461 1.899.488 3.797 1.218 5.746 1.363-.144 1.074-1.703.246-2.484.488-1.215 0-2.434 0-3.652.098 2.144.39 4.382.195 6.578.097.679-.878 1.8.731.633.973-.536.926-1.364 2.488-2.68 1.805m28.988-.488c-1.266-.293-2.824-.582-3.508-1.852-.195-.582-.777-2.387.438-1.656 2 1.265 4.629 1.265 6.82.34-1.363 0-2.629.586-3.945.343-1.512-.195-3.117-.781-4.043-2.047-.535-1.023-1.168-2.046-2.192-2.679-.781-1.168 1.071-1.656 1.899-1.266 3.508.438 6.234 3.02 9.648 3.699 1.071-.535 1.606 1.172.973 1.856-.684.484-1.121 1.312-1.754 1.847-1.168 1.024-2.777 1.754-4.336 1.415m16.176-.68c-2.484-2-5.801-2.535-8.918-2.438-1.168-.437.637-2.386-.875-2.484-.438-.098-1.805.098-1.461-.438 2.68 0 5.309.34 7.844 1.168-1.852-1.46-4.336-1.46-6.532-1.363-.632.289-1.214-.441-.289-.441 1.461-.438 2.825-1.168 4.336-1.559 1.559.098 2.825 1.219 3.993 2.145 1.558 1.461 2.632 3.605 2.293 5.797-.196 0-.196-.34-.391-.387m-42.582-2.777c-3.75-.54-7.602-1.512-10.719-3.754-1.07-1.215-1.656-2.727-2.582-4.043-2.289-4.336-2.437-9.403-2.289-14.176.391-6.676 2.973-13.008 5.797-19.004 2.484-5.457 4.773-10.961 8.086-15.93 1.805-2.824 5.117-4.773 8.527-4.531 2.242.195 4.238 1.363 6.141 2.434 2.875 1.804 5.797 3.414 8.574 5.312 5.797 4.29 10.766 9.547 15.441 15.008 2.34 2.777 4.582 5.894 5.168 9.594.68 3.609.536 7.359-.195 10.965-.637 2.34-1.851 4.48-3.023 6.578-4.43-.344-9.063.484-12.813 2.875-.926.777-1.168 2.043-2.191 2.726-1.266.535-2.778-.488-3.946.391-1.074.633-2.242-.149-3.218-.633-1.606-.73-3.653-.781-5.164.289-1.024.441-2.289.441-2.969 1.414 0 1.219-1.172 2.438-2.34 1.707-1.559-.097-2.875.926-3.996 1.949-.582.485-1.414 1.313-2.289.829m-6.774-2.829c-1.414.293-.828-2.726.196-1.414.293.344.926 2.098-.196 1.414m7.942-.242c-1.024-.246-1.07-2.242.097-2.191 1.168.097 1.461 2.433.098 2.289a.4.4 0 0 1-.195-.098m.051-.148c-1.461-.192 0-2.824.73-1.313.34.485.145 1.899-.73 1.313m-8.286-.098c-1.41-.484 1.172-1.801.782-.242-.047.391-.586.684-.782.242m35.176-.34c-.73-.535-2.336-.633-2.433-1.508 1.363-.343 2.777 0 4.14-.39 2.485-.586 4.824-1.805 7.356-2.289.683-.293-1.117-.051-1.41.047-3.024.535-5.75 2.144-8.868 2.191-.828.391-2.828 0-2.097-1.219 1.023-1.461 2.777-2.14 4.386-2.726 3.118-.977 6.383-1.461 9.598-1.121 1.899.195 3.75.73 5.406 1.656-.828.976-2.336.195-3.214 1.023-3.458 1.559-6.528 4.192-10.426 4.629-.828.047-1.657 0-2.438-.293m-35.711-3.801c-.34-.925-1.508-2.238-.437-3.07 1.07-.289 1.898 1.219 1.414 2.051.191-.781-.684-2.34-1.512-1.465-.535 1.168.731 2 1.266 2.828-.242.047-.535-.097-.731-.344m12.766-3.261c-1.024-.391-.535-2.68.633-1.95.879.438.73 2.629-.438 2.141l-.097-.094zm.34.144c-1.215-.047-.582-2.68.437-1.656.442.488.539 1.805-.437 1.656m7.894-1.07c.684-1.367-1.754-.828-1.316-.535-.051-1.27 2.289-.637 1.461.484 0 .098-.145.344-.145.051m8.914-.246c-1.265-.387-.144-2.922.879-1.703.391.293.34 1.558.293 1.46.633-.925-1.511-2.093-1.511-.73-.149.145.972 1.414.339.973m7.895-1.559c.242-.34 1.605-1.023.777-.097-.242.148-.535.195-.777.097m-33.52-.875c.731-.925-1.656-1.511-1.218-.34-1.121-1.218 2.093-1.367 1.265.094 0 .051.051.586-.047.246m33.618-.05c-.879-.778-1.075-2.485 0-3.165 1.218.047 1.507 1.657 1.023 2.532-.195.39-.586.828-1.023.632m-.34-.68c-.977-.781.484-2.875 1.265-1.512.438.684-.05 2.34-1.074 1.8-.098-.093-.144-.194-.191-.288m7.304-2.098c-1.168-.73.926-2.824 1.219-1.215-.144.633-.535-.976-1.07-.246-.344.442-.293 1.27-.149 1.461m-37.902-2.047c-.73-.828 1.313.246.289.196-.094 0-.191-.094-.289-.196m-10.477-.289c-.437-.976 1.95-.976 1.024-2.097-.145-.829-1.559-.68-1.461.148-.633-.926 1.168-1.465 1.512-.488.828.925-.684 1.851-.442 2.484.442.633-.484.098-.633-.047m10.477-.586c-.879-.586-.586-2.531.633-2.437.926.343.926 1.707.39 2.39-.195.29-.781.485-1.023.047m0-.195c-.828-.535-.148-2.047.777-1.852.782.438.489 2.29-.488 2.094-.094-.047-.191-.144-.289-.242m20.023-.098c-1.316-.437 0-2.824.973-1.703.735.633.051 2.727-.973 1.703m.098-.144c-1.461-.637 1.168-2.34 1.024-.637.144.54-.684 1.512-1.024.637m-9.937-.535c-.586-.832-1.707-2.391-.539-3.122.976-.242 1.414 1.368 1.269 1.754.34-1.117-1.851-1.945-1.512-.437 0 .683 1.219 1.512.977 1.805zm23.336-1.754c.293-.246.925-1.754.875-.637-.145.344-.485.637-.875.637m-.489-1.172c-1.023-.633-1.707-2.145-1.023-3.262.976-.637 2 .582 2.047 1.461.097.582-.145.828-.145.098 0-1.27-2.144-1.707-1.949-.149.098.926.875 1.754 1.852 1.754-.196.195-.586.344-.782.098m6.09-4.434c.051-.387 1.266-1.07.731-.242-.145.195-.489.39-.731.242m-46.625-.387c-.973-.585.875-2.046 1.168-1.027-.68-.875-1.312.39-1.168 1.027m24.067-.148c-1.024-.34-.633-2.34.488-2.094 1.023.34 1.07 2.485-.195 2.29l-.145-.047zm.195 0c-1.461-.242.098-2.777.73-1.265.293.488.098 1.949-.73 1.265m21.875-.683c-.777-.68-.828-2.434.344-2.63 1.214.294 1.461 2.387.293 2.876a.64.64 0 0 1-.637-.246m.148-.047c-1.265-.438-.195-3.02.875-1.754.442.632.246 2.289-.875 1.754m-38.832-1.414c.293-1.266-1.605-.293-1.461-.098-.144-1.363 2.387-.875 1.657.39-.145.145-.196-.195-.196-.292m25.141.195c-.098-.582 1.023-1.512.488-.39-.148.148-.293.292-.488.39m-1.07-1.266c-1.075-.39-1.266-2.777.195-2.484 1.07.293 1.656 2.144.535 2.726a.665.665 0 0 1-.73-.242m.046-.246c-1.414-.242-.293-2.875.782-1.605.633.535.34 2.582-.782 1.605m-16.66-.242c-.539-.777-1.218-2.094-.293-2.922.684-.34 1.508 1.508.582.438-1.265-.149-1.168 1.605-.191 2.047.242.195.68.972 0 .535zm-12.765-3.363c-.293-.973 1.316.78.097.05-.05 0-.05-.05-.097-.05m.195-.727c-.828-.734-.977-2.34.047-2.976 1.172-.047 1.558 1.511 1.121 2.39-.195.438-.684 1.024-1.168.586m.195.047c-.832-.535-1.023-2.242.098-2.484.973.097 1.07 1.46.582 2.144a.86.86 0 0 1-.68.34m36.051-1.852c.242-.292.926-1.804.977-.73-.149.39-.489.777-.977.73m-.973-1.558c-.781-.73-1.171-2.242-.195-2.973 1.07-.195 1.754 1.024 1.801 1.996.246.828-1.024 2.098-1.606.977m.145-.05c-1.121-.485-.828-3.118.633-2.24.879.485.976 2.677-.34 2.485l-.145-.097zm-11.887-2.68c-1.219-.34-.828-2.97.535-2.044.684.485.731 2.485-.535 2.043m-18.711-.243c-.875-.586-.34-2.582.879-2.144.828.586.438 2.68-.777 2.242-.051 0-.102-.05-.102-.098m18.711.047c-1.511-.289.196-2.875.778-1.215.246.485 0 1.801-.778 1.215m-18.609-.047c-1.219-.586.531-2.828.973-1.316.144.586-.247 1.656-.973 1.316m11.008-.535c-1.317-.437-.196-3.07.781-1.805.34.633.047.489-.246.098-1.508-.34-1.07 2.39.344 1.754.437.246-1.024.441-.879-.047m7.355-6.285c1.121-.781-1.07-2.828-1.215-1.316.098.34.485 1.363-.195.683-.73-.977 1.023-2.293 1.512-1.023.242.488.535 1.316-.102 1.656m-13.738-1.805c-1.168-.34-.535-2.773.633-1.949.925.488.636 2.926-.633 1.95m.246.149c-1.367-.196-.195-2.875.633-1.461.293.535.293 1.8-.633 1.46m5.894-4.141c-1.265-.39-.39-2.926.731-1.95.242.34.633 1.462.242.485-.828-.824-1.996.586-.973 1.219.145.098.34.586 0 .246"/><path fill="#ffc13f" d="M242.934 108.121c-1.512-.34.535-2.582.777-.875.195.488-.195 1.609-.777.875m-8.625-.289c-.536-1.269 1.949-.051.683.387a1.36 1.36 0 0 1-.683-.387m-.243-4.727c-1.171-.144-.437-2.484.536-1.656.535.438.488 2.242-.536 1.656m13.008-2.437c-1.511-.242.438-2.68.778-1.024.195.489-.094 1.754-.778 1.024m7.16-.242c-1.461-.535 1.075-2.387.782-.633 0 .387-.391 1.07-.782.633m-24.945-.684c-1.117-.633 1.172-1.605.684-.34.047.391-.586.926-.684.34m34.836-.289c-1.41-.586.977-2.488.977-.734.144.488-.489 1.511-.977.734m-26.602-2.047c-1.312-.293.731-2.144.731-.734.344.441-.438 1.61-.731.734m34.301-.781c-.633-.586-.34-2.242.633-2.094 1.023.387.586 2.531-.586 2.094zm7.309-2.387c-1.219-.879 1.605-1.851.875-.39-.098.34-.582.875-.875.39m-48.188-2.875c-1.312-.144-.34-2.828.539-1.511.243.539.145 1.464-.539 1.511m10.137-.144c-.926-.54.195-2.387.973-1.61.488.586-.047 2.29-.973 1.61m20.172-.344c-1.465-.68 1.266-2.144.922-.437.097.488-.731 1.316-.922.437m-10.332-1.508c-1.508-.293.488-2.73.781-1.023.195.488-.098 1.754-.781 1.023m22.851-2.39c-1.023-.485-.73-3.02.633-2.094.828.535.875 2.484-.39 2.289l-.098-.047zm-39.855-3.946c-1.168-.683 1.172-2.191.926-.582.051.438-.582 1.215-.926.582m23.875-.683c-1.465-.34.633-2.532.828-.922.293.484-.242 1.8-.828.922m22.312-.438c-.828-.293-.925-1.996.051-2.14.973.093 1.071 2.14-.051 2.14m-40-.73c-1.316-.73 1.266-2.145.879-.582.047.437-.586 1.215-.879.582m25.192-2.047c-.977-.145-.926-1.801 0-1.95.926.098 1.363 1.903.34 2.098a.44.44 0 0 1-.34-.148m-16.957-1.266c-1.461-.437.781-2.437.879-.828.195.488-.391 1.61-.879.828m-12.473-3.457c-1.168-.586.098-2.972.977-1.656.386.633 0 2.238-.977 1.656m35.469-3.168c-1.121-.488-.582-3.07.684-2.047.828.536.828 2.532-.442 2.243l-.094-.098zm-30.449-2.922c-1.317-.539.73-2.73.926-1.074.046.488-.293 1.363-.926 1.074m18.465-.05c-1.461-.489.925-2.387.925-.782.196.489-.437 1.563-.925.781m-7.114-.293c-1.511-.098-.144-2.922.489-1.22.195.442.144 1.22-.489 1.22m6.141-6.872c-1.465-.726 1.215-2.19 1.019-.535.196.637-.777 1.414-1.019.535m-12.816-1.457c-1.508-.343.683-2.535.828-.879.148.438-.34 1.704-.828.88m6.187-4.046c-1.508-.438.781-2.485.879-.829.144.442-.391 1.61-.879.829"/></g><path fill="#bc9a16" d="M1 86.04c0-68.6 90.55-70.869 170.078-70.869 79.527 0 170.078 2.27 170.078 70.867 0-15.656-76.144-28.348-170.078-28.348C77.148 57.691 1 70.383 1 86.04"/><path fill="none" stroke="#000" stroke-linecap="round" stroke-linejoin="round" stroke-width="2" d="M1 86.04c0-68.6 90.55-70.869 170.078-70.869 79.527 0 170.078 2.27 170.078 70.867 0-15.656-76.144-28.348-170.078-28.348C77.148 57.691 1 70.383 1 86.04"/><path fill="#d3ae37" d="M908.086 86.04c0 15.655-76.145 28.347-170.078 28.347S567.93 101.695 567.93 86.039s76.144-28.348 170.078-28.348S908.086 70.383 908.086 86.04"/><path fill="none" stroke="#000" stroke-linecap="round" stroke-linejoin="round" stroke-width="2" d="M908.086 86.04c0 15.655-76.145 28.347-170.078 28.347S567.93 101.695 567.93 86.039s76.144-28.348 170.078-28.348S908.086 70.383 908.086 86.04M738.008 312.809l161.41-217.813m-161.41 217.813L684.25 112.941m53.758 199.868L586.914 73.012m151.094 239.797v19.843"/><g fill-rule="evenodd"><path d="M743.617 137.25c-2.289-1.414-4.383-4.094-4.383-5.652 0-.926.829-2.239 2.582-4.09 1.414-1.512 3.118-3.801 3.75-5.117l1.122-2.387-1.364-2.731c-.781-1.507-1.898-4.382-2.484-6.429-6.383-20.754-12.91-28.356-35.227-40.828-6.965-3.848-9.402-5.75-11.008-8.282-1.511-2.535-1.511-5.117.145-7.504 4.773-7.066 24.066-6.187 40.098 1.805 11.742 5.797 20.316 14.125 24.75 24.016 5.066 11.16 6.285 22.804 3.359 31.719-1.117 3.41-4.531 8.476-6.672 9.89-1.465.973-1.949 1.754-2.68 4.531-1.367 5.02-4.191 10.329-5.996 11.254-1.996 1.024-4.089.977-5.992-.195m5.555-4.387c-.582-1.07-.438-1.652.976-4.429 2.192-4.336 4.532-11.84 5.551-17.786 4.387-25.773-14.664-49.988-43.308-55.003-2.489-.438-5.703-.782-7.118-.782-1.945 0-2.628-.242-3.019-1.023-.484-.926-.34-1.07 1.414-1.559 2.875-.828 11.352-.683 16.223.246 15.203 2.871 28.941 11.352 36.297 22.457 10.621 15.934 11.011 37.809.781 44.871-1.852 1.27-2.242 1.95-3.461 5.848-1.215 3.945-3.07 8.332-3.555 8.332-.051 0-.437-.535-.781-1.172m-4.094-2.773-1.703-.731 1.805-2.293c.925-1.265 2.14-3.359 2.629-4.675.925-2.34.925-2.34-.68-6.137-.832-2.098-2.293-6.191-3.219-9.016-3.652-11.449-7.062-17.344-13.738-24.02-5.164-5.163-8.625-7.6-19.344-13.788-8.621-4.918-11.64-6.965-12.031-8.036-.149-.343.73-1.609 1.898-2.874l2.145-2.243 4.094.34c12.031 1.024 24.015 6.14 32.543 13.985 6.968 6.43 11.5 13.789 13.886 22.558 1.364 5.016 1.657 16.465.535 21.094-1.753 7.16-4.093 13.059-6.136 15.445-.926 1.024-1.121 1.071-2.684.391"/><path fill="#f5a701" d="M746.395 138.371c.39-.144.828-.098 1.023.051.148.191-.145.289-.68.289-.633-.047-.73-.145-.343-.34m-5.407-2.875-1.511-1.707 1.707 1.512c.925.879 1.656 1.609 1.656 1.707 0 .387-.391.047-1.852-1.512m10.477.098c.191-.242.437-.489.582-.489s.098.247-.051.489c-.191.293-.437.535-.582.535s-.144-.242.051-.535m-2.293-2.731c-.582-1.07-.438-1.652.976-4.429 2.192-4.336 4.532-11.84 5.551-17.786 4.387-25.773-14.664-49.988-43.308-55.003-2.489-.438-5.703-.782-7.118-.782-1.945 0-2.628-.242-3.019-1.023-.484-.926-.34-1.07 1.414-1.559 2.875-.828 11.352-.683 16.223.246 15.203 2.871 28.941 11.352 36.297 22.457 10.621 15.934 11.011 37.809.781 44.871-1.852 1.27-2.242 1.95-3.461 5.848-1.215 3.945-3.07 8.332-3.555 8.332-.051 0-.437-.535-.781-1.172m-.828-4.871c.976-1.605 2.144-4.09 2.633-5.504s.972-2.484 1.07-2.34c.633.586-3.75 9.747-4.969 10.524-.293.148.293-1.024 1.266-2.68m5.992 1.903c0-.391.148-.536.344-.34a.474.474 0 0 1 0 .679c-.196.196-.344.047-.344-.339m-10.668-.489c-.148-.242.145-.777.633-1.168.828-.633.828-.586.242.145-.582.73-.582.926 0 1.172.441.144.488.242.051.289-.34 0-.781-.145-.926-.438m-2.098-2.144c1.121-1.121 2.145-2.047 2.293-2.047.145 0-.683.926-1.804 2.047-1.121 1.172-2.141 2.097-2.289 2.097s.683-.925 1.8-2.097m13.254 1.074c0-.391.196-.535.391-.344a.473.473 0 0 1 0 .684c-.195.195-.391.047-.391-.34m-9.109-2.098c.195-.293.437-.535.582-.535.148 0 .148.242-.047.535s-.437.535-.586.535c-.144 0-.098-.242.051-.535m1.363-2.093c.731-1.61.973-1.903.973-1.219 0 .293-.34.976-.778 1.512-.781.972-.781.925-.195-.293m8.817.535c0-.391.148-.535.343-.34a.467.467 0 0 1 0 .68c-.195.195-.343.05-.343-.34m1.804-2.629c.196-.246.438-.488.586-.488.145 0 .145.242-.051.488-.195.293-.437.535-.586.535-.144 0-.093-.242.051-.535m-9.648-.488c0-.391.195-.536.39-.34a.57.57 0 0 1 0 .679c-.195.196-.39.051-.39-.339m.39-2.047c-.195-.875-.144-1.071.247-.68.289.289.437.824.339 1.215-.148.39-.39.148-.586-.535m3.899-.586c0-.438.195-1.364.437-2.094.34-1.023.391-1.07.438-.242 0 .586-.195 1.508-.438 2.094-.293.632-.437.73-.437.242m9.012-.485c.195-.293.441-.539.586-.539.148 0 .097.246-.047.539-.196.243-.442.485-.586.485-.149 0-.098-.242.047-.485m-13.981-1.367c-.535-1.265-.391-1.605.242-.582.293.535.438 1.07.293 1.219-.097.144-.39-.149-.535-.637m15.055-.242c.144-.242.437-.488.535-.488.144 0 .144.246-.051.488-.144.293-.437.535-.582.535-.148 0-.098-.242.098-.535m-9.16-2.047c0-.391.195-.535.39-.34.145.145.145.489 0 .684-.195.191-.39.047-.39-.344m-9.891-1.07c0-.391.145-.535.34-.34a.47.47 0 0 1 0 .68c-.195.195-.34.05-.34-.34m2.633 0c0-.391.144-.535.34-.34a.47.47 0 0 1 0 .68c-.196.195-.34.05-.34-.34m7.89-1.559c0-.73.098-1.023.243-.633.148.34.148.922 0 1.313-.145.344-.243.051-.243-.68m-8.429 0c0-.39.148-.539.344-.344a.473.473 0 0 1 0 .684c-.196.195-.344.051-.344-.34m-.535-1.558c0-.391.144-.539.339-.344a.47.47 0 0 1 0 .683c-.195.196-.339.047-.339-.339m-3.118-1.563c0-.387.145-.535.34-.34a.47.47 0 0 1 0 .684c-.195.195-.34.047-.34-.344m2.629 0c0-.387.149-.535.344-.34.195.196.195.489 0 .684s-.344.047-.344-.344m10.086-4.43c0-2.875.051-3.949.196-2.437.097 1.512.097 3.848 0 5.215-.145 1.312-.196.093-.196-2.778m11.305 3.606c0-.586.144-.735.293-.293.144.34.144.828 0 .973-.195.195-.344-.145-.293-.68m-21.926-.735c0-.386.149-.535.344-.339a.48.48 0 0 1 0 .683c-.195.196-.344.047-.344-.344m-2.629-.535c0-.39.196-.535.391-.34a.59.59 0 0 1 0 .68c-.195.195-.391.051-.391-.34m2.145-1.312c.047-.637.144-.735.289-.344.195.391.148.828 0 1.024-.195.148-.289-.145-.289-.68m-2.633-.246c0-.391.145-.535.34-.34s.195.484 0 .68c-.195.195-.34.05-.34-.34m25.629-.778c0-.879.094-1.121.242-.636.145.488.145 1.218 0 1.558-.148.344-.242-.047-.242-.922m-24.07-1.804c0-.391.144-.535.339-.34.196.144.196.484 0 .68-.195.195-.339.05-.339-.34m-.536-1.559c0-.391.145-.535.34-.391a.53.53 0 0 1 0 .731c-.195.195-.34 0-.34-.34m-.976-2.387c-.828-1.902-.68-2.34.246-.586.437.829.73 1.559.586 1.708-.102.093-.488-.391-.832-1.122m25.582-1.023c0-.879.094-1.121.242-.633.145.484.145 1.215 0 1.559-.148.34-.242-.051-.242-.926m-12.524-.242c0-.735.098-1.024.243-.684.148.39.148.973 0 1.317-.145.34-.243.046-.243-.633m-16.222 0c0-.39.144-.54.34-.344a.473.473 0 0 1 0 .684c-.196.195-.34.047-.34-.34m15.637-2.926c.05-.582.148-.73.343-.293.145.344.098.828-.051.977-.195.195-.292-.149-.292-.684m-15.153-1.266c-.289-.586-.437-1.023-.289-1.023.145 0 .535.437.828 1.023.289.582.438 1.07.289 1.07-.144 0-.484-.488-.828-1.07m27.676.242c0-.632.144-.73.293-.34.144.391.144.829 0 1.024-.195.145-.344-.148-.293-.684m-13.008-1.07c0-.586.145-.73.289-.293.149.34.149.828-.047.973-.144.195-.293-.094-.242-.68m-16.031-1.316c-.195-.39-.098-.489.246-.242.34.195.633.484.633.582 0 .441-.488.246-.879-.34m15.445-.438c0-.39.145-.535.34-.343.195.148.195.488 0 .683s-.34.05-.34-.34m-19.051-.632c-.242-.344-.144-.442.196-.196.633.34.828.828.39.828-.144 0-.39-.293-.586-.632m2.582-.489c-.242-.39-.144-.488.247-.242.582.387.777.828.339.828-.097 0-.39-.293-.586-.586m-4.433-1.902c-.633-.824-.633-.824.195-.191.879.68 1.121 1.117.731 1.117-.145 0-.536-.387-.926-.926m2.582-.484c-.633-.829-.633-.88.195-.247.879.684 1.172 1.121.731 1.121-.094 0-.535-.39-.926-.874m17.101.097c-.535-1.316-.39-1.656.247-.586.289.489.437 1.024.289 1.168-.145.149-.387-.144-.536-.582m13.204-.246c0-.387.144-.535.339-.34a.47.47 0 0 1 0 .684c-.195.195-.339.047-.339-.344m-.536-1.558c0-.387.149-.536.34-.34a.47.47 0 0 1 0 .683c-.191.195-.34.047-.34-.343m-33.617-2.727-2.582-2.777 2.727 2.629c2.535 2.386 2.972 2.875 2.586 2.875-.102 0-1.317-1.266-2.731-2.727m18.758.098c-.195-.344-.242-.684-.098-.829.145-.148.391.098.536.536.39.925.097 1.12-.438.293m-24.019-1.61c-.196-.39-.098-.488.242-.242.343.195.633.484.633.586 0 .437-.485.242-.875-.344m22.949-.535c-.246-.39-.149-.488.242-.242.34.195.586.484.586.582 0 .437-.442.246-.828-.34m-25.289-1.363c-.633-.828-.633-.828.195-.196.879.684 1.172 1.121.73 1.121-.144 0-.535-.437-.925-.925m2.875-.781-.973-1.169 1.168.973c.633.586 1.172 1.074 1.172 1.172 0 .438-.442.145-1.367-.977m21.39.585c-.246-.39-.148-.488.196-.242.632.387.828.825.386.825-.144 0-.386-.243-.582-.583m-26.066-1.07c-.242-.344-.149-.441.242-.195.293.195.586.437.586.582 0 .441-.437.246-.828-.387m24.75-.832c-.684-.828-.633-.828.195-.195.828.683 1.121 1.12.68 1.12-.098 0-.484-.386-.875-.925m-26.309-.195c-.246-.387-.148-.438.242-.242.293.195.586.488.586.632 0 .442-.488.196-.828-.39m4.141 0c-.195-.387-.149-.438.242-.242.344.195.586.488.586.632 0 .442-.437.196-.828-.39m-2.047-1.559c-.242-.386-.144-.484.195-.242.34.195.633.488.633.633 0 .39-.488.195-.828-.39m19.535-3.457-3.359-3.508 3.508 3.364c1.949 1.847 3.554 3.457 3.554 3.554 0 .34-.535-.148-3.703-3.41m17.446 1.899c-.247-.391-.149-.485.242-.243.293.196.586.489.586.586 0 .438-.442.242-.828-.343m-44.825-.536c-.242-.39-.144-.437.242-.242.344.242.586.488.586.633 0 .438-.437.195-.828-.39m4.192-.195c-.977-.777-.977-.777.144-.242.684.293 1.168.683 1.168.777 0 .442-.242.293-1.312-.535m-2.582-1.559c-.977-.78-.977-.78.144-.242.633.293 1.168.68 1.168.778 0 .437-.293.293-1.312-.536m40.34-1.656c-.684-.828-.633-.879.195-.195.875.684 1.121 1.07.68 1.07-.098 0-.489-.386-.875-.875m-43.997-.437c-.972-.782-.972-.782.149-.246.633.293 1.168.683 1.168.828 0 .39-.242.246-1.317-.582m24.457-1.95-.972-1.171 1.168 1.027c1.074.922 1.414 1.363.976 1.363-.097 0-.632-.535-1.172-1.218m-28.109-.144c-.976-.781-.976-.781.145-.246.632.34 1.171.683 1.171.828 0 .39-.246.293-1.316-.582m26.016-1.367c-.196-.34-.145-.438.242-.196.344.196.586.442.586.587 0 .437-.438.242-.828-.391m-34.641-1.313c-.684-.832-.633-.879.195-.195.875.68 1.121 1.07.684 1.07-.098 0-.488-.39-.879-.875m4.434.29c-.243-.391-.145-.438.242-.243.293.195.586.489.586.633 0 .438-.438.195-.828-.39m28.648 0c-.242-.391-.148-.438.242-.243.34.195.586.489.586.633 0 .438-.437.195-.828-.39m-30.207-1.024c-.242-.387-.144-.484.242-.242.293.195.586.488.586.586 0 .437-.488.242-.828-.344m24.02-2.094c-2.289-1.12-3.606-1.898-2.875-1.707 1.558.442 7.308 3.266 7.308 3.606 0 .343.391.488-4.433-1.899m22.605 1.266c-.684-.828-.633-.875.195-.242.875.683 1.121 1.12.684 1.12-.098 0-.488-.39-.879-.878m-48.965-1.07-1.265-1.415 1.414 1.266c1.363 1.172 1.703 1.61 1.265 1.61-.097 0-.73-.684-1.414-1.462m-2.875.34c-.242-.387-.144-.489.246-.243.293.196.582.489.582.586 0 .438-.437.242-.828-.344m49.5-1.07c-.242-.392-.144-.438.246-.247.293.246.582.488.582.637 0 .437-.437.191-.828-.39m-25.578-1.806a.47.47 0 0 1 .684 0c.195.149.05.344-.34.344-.391 0-.535-.195-.344-.344m-20.219-.73c.149-.29.442-.484.586-.484.145 0 .098.195-.05.484-.192.293-.485.535-.583.535-.144 0-.144-.242.047-.535m18.661.195c.195-.195.488-.195.683 0s.047.34-.34.34c-.39 0-.539-.145-.343-.34m-1.852-.535c.391-.145.828-.145 1.023.05.149.145-.144.29-.679.243-.633 0-.735-.148-.344-.293m24.312-.242c-.242-.39-.144-.488.196-.246.34.195.633.488.633.633 0 .39-.489.195-.829-.387m-26.355-.293c.34-.148.824-.098.973.047.195.195-.149.293-.684.293-.586-.047-.73-.145-.289-.34m-2.098-.488c.391-.145.828-.145.977 0 .191.195-.098.34-.684.293-.586 0-.73-.149-.293-.293m-10.914-.875c.246-.246 1.707-.344 3.266-.246l2.777.148-3.215.293c-1.804.145-3.07.047-2.828-.195m7.504.34c.488-.145 1.219-.145 1.559 0 .344.144-.047.242-.926.242-.875 0-1.168-.098-.633-.242m-13.445-2.778c.195-.293.437-.535.582-.535.148 0 .148.242-.047.535s-.437.535-.586.535c-.144 0-.098-.242.051-.535m33.808-1.363a.47.47 0 0 1 .684 0c.195.144.051.34-.34.34-.39 0-.535-.196-.344-.34m-1.558-.54c.148-.19.488-.19.683 0 .196.196.047.345-.339.345-.391 0-.539-.149-.344-.344m-29.621-.679c.148-.293.437-.535.586-.535.144 0 .097.242-.098.535-.144.242-.437.488-.586.488-.098 0-.098-.246.098-.488m28.015.145c.196-.196.536-.196.731 0s0 .343-.344.343c-.387 0-.531-.148-.387-.343m-6.238-1.559a.47.47 0 0 1 .684 0c.195.195.05.34-.34.34-.391 0-.535-.145-.344-.34m-17.195-.535c.191-.195.535-.195.679 0 .196.195.051.34-.339.34-.391 0-.536-.145-.34-.34m14.32 0c.391-.145.828-.145 1.024.05.148.192-.145.29-.68.29-.633-.047-.731-.145-.344-.34m-11.254-.535c.539-.098 1.367-.098 1.852 0 .488.144.097.242-.926.242-.973 0-1.41-.098-.926-.242m6.043 0c.633-.098 1.559-.098 2.047 0 .535.144 0 .242-1.172.242-1.117 0-1.558-.098-.875-.242"/><path fill="#fcd900" d="m745.078 129.797-1.168-.586 1.852-2.484c.976-1.364 2.144-3.461 2.582-4.727.781-2.094.73-2.34-.438-4.871-.683-1.414-2.34-5.992-3.703-10.184-6.14-18.61-13.348-26.648-34.687-38.586-3.801-2.144-7.797-4.675-8.918-5.601l-2.047-1.754 2.097-2.098 2.145-2.14 4.527.34c8.332.632 19.684 4.578 26.457 9.257 3.703 2.531 9.989 8.672 12.473 12.18 2.875 4.14 5.602 9.988 6.82 14.86 1.461 5.75 1.364 18.124-.144 23.191-1.563 5.164-2.973 8.769-4.582 11.449-1.461 2.531-1.508 2.582-3.266 1.754"/></g><path fill="#bc9a16" d="M567.93 86.04c0-68.599 90.55-70.868 170.078-70.868 79.527 0 170.078 2.27 170.078 70.867 0-15.656-76.145-28.348-170.078-28.348S567.93 70.383 567.93 86.04"/><path fill="none" stroke="#000" stroke-linecap="round" stroke-linejoin="round" stroke-width="2" d="M567.93 86.04c0-68.599 90.55-70.868 170.078-70.868 79.527 0 170.078 2.27 170.078 70.867 0-15.656-76.145-28.348-170.078-28.348S567.93 70.383 567.93 86.04"/><path fill="#cc9c6f" d="M461.629 332.652c0 3.914-3.172 7.086-7.086 7.086s-7.086-3.172-7.086-7.086 3.172-7.086 7.086-7.086 7.086 3.172 7.086 7.086"/><path fill="none" stroke="#000" stroke-linecap="round" stroke-linejoin="round" stroke-width="2" d="M461.629 332.652c0 3.914-3.172 7.086-7.086 7.086s-7.086-3.172-7.086-7.086 3.172-7.086 7.086-7.086 7.086 3.172 7.086 7.086"/><circle cx="454.543" cy="332.652" r="1"/><path fill="#cc9c6f" d="M440.371 29.344h28.344v340.16h-28.344Z"/><path fill="none" stroke="#000" stroke-linecap="round" stroke-linejoin="round" stroke-width="2" d="M440.371 29.344h28.344v340.16h-28.344z"/><path fill="#cc9c6f" d="M461.629 332.652c0 3.914-3.172 7.086-7.086 7.086s-7.086-3.172-7.086-7.086 3.172-7.086 7.086-7.086 7.086 3.172 7.086 7.086"/><path fill="none" stroke="#000" stroke-linecap="round" stroke-linejoin="round" stroke-width="2" d="M461.629 332.652c0 3.914-3.172 7.086-7.086 7.086s-7.086-3.172-7.086-7.086 3.172-7.086 7.086-7.086 7.086 3.172 7.086 7.086"/><path fill="#cc9c6f" d="M457.379 369.504a20.554 20.554 0 0 1 0 28.344h-5.668a20.543 20.543 0 0 1 0-28.344z"/><path fill="none" stroke="#000" stroke-linecap="round" stroke-linejoin="round" stroke-width="2" d="M457.379 369.504a20.554 20.554 0 0 1 0 28.344h-5.668a20.543 20.543 0 0 1 0-28.344z"/><path fill="#cc9c6f" d="M465.883 409.188c0 6.261-5.078 11.339-11.34 11.339s-11.34-5.078-11.34-11.339 5.078-11.34 11.34-11.34 11.34 5.078 11.34 11.34"/><path fill="none" stroke="#000" stroke-linecap="round" stroke-linejoin="round" stroke-width="2" d="M465.883 409.188c0 6.261-5.078 11.339-11.34 11.339s-11.34-5.078-11.34-11.339 5.078-11.34 11.34-11.34 11.34 5.078 11.34 11.34"/><path fill="#cc9c6f" d="M497.063 1c-13.692 0-22.676 13.621-22.676 28.344h-39.688C434.699 14.62 425.715 1 412.023 1z"/><path fill="none" stroke="#000" stroke-linecap="round" stroke-linejoin="round" stroke-width="2" d="M497.063 1c-13.692 0-22.676 13.621-22.676 28.344h-39.688C434.699 14.62 425.715 1 412.023 1z"/></g></svg>