<svg xmlns="http://www.w3.org/2000/svg" width="876" height="521pt" viewBox="0 -521 657 521"><g id="page1"><path fill="#ffffb2" d="M10.004-190.98h5.953c1.633 0 3.2.648 4.355 1.804l4.895 4.895c.996 1 2.613 1 3.61 0l4.894-4.895a6.16 6.16 0 0 1 4.355-1.804h258.711a2.55 2.55 0 0 0 2.551-2.551v-197.106c0-1.41-1.14-2.551-2.551-2.551H38.067a6.16 6.16 0 0 0-4.356 1.805l-4.895 4.895a2.554 2.554 0 0 1-3.609 0l-4.895-4.895a6.16 6.16 0 0 0-4.355-1.805H4.051a2.55 2.55 0 0 0-2.551 2.551v197.106a2.55 2.55 0 0 0 2.55 2.551z"/><path fill="none" stroke="#b2b200" stroke-linecap="round" stroke-linejoin="round" stroke-width="3" d="M10.004-190.98h5.953c1.633 0 3.2.648 4.355 1.804l4.895 4.895c.996 1 2.613 1 3.61 0l4.894-4.895a6.16 6.16 0 0 1 4.355-1.804h258.711a2.55 2.55 0 0 0 2.551-2.551v-197.106c0-1.41-1.14-2.551-2.551-2.551H38.067a6.16 6.16 0 0 0-4.356 1.805l-4.895 4.895a2.554 2.554 0 0 1-3.609 0l-4.895-4.895a6.16 6.16 0 0 0-4.355-1.805H4.051a2.55 2.55 0 0 0-2.551 2.551v197.106a2.55 2.55 0 0 0 2.55 2.551z"/><path fill="#ffd9b2" d="M35.516-207.988h5.953c1.633 0 3.199.648 4.355 1.804l4.895 4.895c.996 1 2.613 1 3.61 0l4.894-4.895a6.16 6.16 0 0 1 4.355-1.804h241.703a2.553 2.553 0 0 0 2.555-2.551v-47.645c0-1.41-1.145-2.55-2.555-2.55H63.578c-1.633 0-3.2.648-4.355 1.804l-4.895 4.895a2.553 2.553 0 0 1-3.61 0l-4.894-4.895a6.16 6.16 0 0 0-4.355-1.804H29.562c-1.41 0-2.55 1.14-2.55 2.55v47.645a2.55 2.55 0 0 0 2.55 2.551z"/><path fill="none" stroke="#b25900" stroke-linecap="round" stroke-linejoin="round" stroke-width="3" d="M35.516-207.988h5.953c1.633 0 3.199.648 4.355 1.804l4.895 4.895c.996 1 2.613 1 3.61 0l4.894-4.895a6.16 6.16 0 0 1 4.355-1.804h241.703a2.553 2.553 0 0 0 2.555-2.551v-47.645c0-1.41-1.145-2.55-2.555-2.55H63.578c-1.633 0-3.2.648-4.355 1.804l-4.895 4.895a2.553 2.553 0 0 1-3.61 0l-4.894-4.895a6.16 6.16 0 0 0-4.355-1.804H29.562c-1.41 0-2.55 1.14-2.55 2.55v47.645a2.55 2.55 0 0 0 2.55 2.551z"/><path fill="#ffd9b2" d="M35.516-263.68h5.953c1.633 0 3.199.649 4.355 1.801l4.895 4.899a2.553 2.553 0 0 0 3.61 0l4.894-4.899a6.17 6.17 0 0 1 4.355-1.801h241.703a2.555 2.555 0 0 0 2.555-2.55v-47.649a2.556 2.556 0 0 0-2.555-2.551H63.578c-1.633 0-3.2.653-4.355 1.805l-4.895 4.898a2.55 2.55 0 0 1-3.61 0l-4.894-4.898a6.18 6.18 0 0 0-4.355-1.805H29.562a2.55 2.55 0 0 0-2.55 2.551v47.649a2.55 2.55 0 0 0 2.55 2.55z"/><path fill="none" stroke="#b25900" stroke-linecap="round" stroke-linejoin="round" stroke-width="3" d="M35.516-263.68h5.953c1.633 0 3.199.649 4.355 1.801l4.895 4.899a2.553 2.553 0 0 0 3.61 0l4.894-4.899a6.17 6.17 0 0 1 4.355-1.801h241.703a2.555 2.555 0 0 0 2.555-2.55v-47.649a2.556 2.556 0 0 0-2.555-2.551H63.578c-1.633 0-3.2.653-4.355 1.805l-4.895 4.898a2.55 2.55 0 0 1-3.61 0l-4.894-4.898a6.18 6.18 0 0 0-4.355-1.805H29.562a2.55 2.55 0 0 0-2.55 2.551v47.649a2.55 2.55 0 0 0 2.55 2.55z"/><path fill="#b2ffb2" d="m51.215-339.617 9.504 8.84a16.22 16.22 0 0 0 11.05 4.343h94.008c4.098 0 8.047-1.55 11.047-4.343l19.008-17.684c2.523-2.348 2.523-6.344 0-8.687l-19.008-17.688a16.2 16.2 0 0 0-11.047-4.344H71.77a16.22 16.22 0 0 0-11.051 4.344l-19.004 17.688c-2.524 2.343-2.524 6.339 0 8.687z"/><path fill="none" stroke="#00b200" stroke-linecap="round" stroke-linejoin="round" stroke-width="3" d="m51.215-339.617 9.504 8.84a16.22 16.22 0 0 0 11.05 4.343h94.008c4.098 0 8.047-1.55 11.047-4.343l19.008-17.684c2.523-2.348 2.523-6.344 0-8.687l-19.008-17.688a16.2 16.2 0 0 0-11.047-4.344H71.77a16.22 16.22 0 0 0-11.051 4.344l-19.004 17.688c-2.524 2.343-2.524 6.339 0 8.687z"/><path fill="#b2ffff" d="M1.5-396.133h14.457c1.633 0 3.2.649 4.355 1.805l4.895 4.894a2.554 2.554 0 0 0 3.61 0l4.894-4.894a6.16 6.16 0 0 1 4.355-1.805h261.262v-52.746a660.2 660.2 0 0 0-148.914-17.008A660.3 660.3 0 0 0 1.5-448.879z"/><path fill="none" stroke="#00b2b2" stroke-linecap="round" stroke-linejoin="round" stroke-width="3" d="M1.5-396.133h14.457c1.633 0 3.2.649 4.355 1.805l4.895 4.894a2.554 2.554 0 0 0 3.61 0l4.894-4.894a6.16 6.16 0 0 1 4.355-1.805h261.262v-52.746a660.2 660.2 0 0 0-148.914-17.008A660.3 660.3 0 0 0 1.5-448.879z"/><path fill="#ffffb2" d="M344.684-164.082h5.953c1.633 0 3.199.648 4.355 1.805l4.895 4.894a2.553 2.553 0 0 0 3.609 0l4.895-4.894a6.15 6.15 0 0 1 4.355-1.805h271.016a2.55 2.55 0 0 0 2.551-2.551v-276.808a2.55 2.55 0 0 0-2.551-2.551H372.746a6.16 6.16 0 0 0-4.355 1.804l-4.895 4.895a2.553 2.553 0 0 1-3.609 0l-4.895-4.895a6.16 6.16 0 0 0-4.355-1.804H338.73c-1.41 0-2.55 1.14-2.55 2.551v276.808c0 1.41 1.14 2.551 2.55 2.551z"/><path fill="none" stroke="#b2b200" stroke-linecap="round" stroke-linejoin="round" stroke-width="3" d="M344.684-164.082h5.953c1.633 0 3.199.648 4.355 1.805l4.895 4.894a2.553 2.553 0 0 0 3.609 0l4.895-4.894a6.15 6.15 0 0 1 4.355-1.805h271.016a2.55 2.55 0 0 0 2.551-2.551v-276.808a2.55 2.55 0 0 0-2.551-2.551H372.746a6.16 6.16 0 0 0-4.355 1.804l-4.895 4.895a2.553 2.553 0 0 1-3.609 0l-4.895-4.895a6.16 6.16 0 0 0-4.355-1.804H338.73c-1.41 0-2.55 1.14-2.55 2.551v276.808c0 1.41 1.14 2.551 2.55 2.551z"/><path fill="#ffd9b2" d="M370.195-181.09h5.953c1.633 0 3.2.649 4.356 1.805l4.894 4.894c.997 1 2.614 1 3.61 0l4.894-4.894a6.16 6.16 0 0 1 4.356-1.805h254.008c1.41 0 2.55-1.14 2.55-2.551v-47.644c0-1.41-1.14-2.551-2.55-2.551H398.258a6.16 6.16 0 0 0-4.356 1.805l-4.894 4.894a2.554 2.554 0 0 1-3.61 0l-4.894-4.894a6.16 6.16 0 0 0-4.356-1.805h-11.906a2.55 2.55 0 0 0-2.551 2.551v47.644a2.55 2.55 0 0 0 2.551 2.551z"/><path fill="none" stroke="#b25900" stroke-linecap="round" stroke-linejoin="round" stroke-width="3" d="M370.195-181.09h5.953c1.633 0 3.2.649 4.356 1.805l4.894 4.894c.997 1 2.614 1 3.61 0l4.894-4.894a6.16 6.16 0 0 1 4.356-1.805h254.008c1.41 0 2.55-1.14 2.55-2.551v-47.644c0-1.41-1.14-2.551-2.55-2.551H398.258a6.16 6.16 0 0 0-4.356 1.805l-4.894 4.894a2.554 2.554 0 0 1-3.61 0l-4.894-4.894a6.16 6.16 0 0 0-4.356-1.805h-11.906a2.55 2.55 0 0 0-2.551 2.551v47.644a2.55 2.55 0 0 0 2.551 2.551z"/><path fill="#ffd9b2" d="M370.195-236.781h5.953c1.633 0 3.2.648 4.356 1.804l4.894 4.895a2.554 2.554 0 0 0 3.61 0l4.894-4.895a6.16 6.16 0 0 1 4.356-1.804h254.008c1.41 0 2.55-1.145 2.55-2.551v-47.645c0-1.41-1.14-2.55-2.55-2.55H398.258a6.17 6.17 0 0 0-4.356 1.8l-4.894 4.899a2.554 2.554 0 0 1-3.61 0l-4.894-4.899a6.17 6.17 0 0 0-4.356-1.8h-11.906a2.55 2.55 0 0 0-2.551 2.55v47.645a2.555 2.555 0 0 0 2.551 2.551z"/><path fill="none" stroke="#b25900" stroke-linecap="round" stroke-linejoin="round" stroke-width="3" d="M370.195-236.781h5.953c1.633 0 3.2.648 4.356 1.804l4.894 4.895a2.554 2.554 0 0 0 3.61 0l4.894-4.895a6.16 6.16 0 0 1 4.356-1.804h254.008c1.41 0 2.55-1.145 2.55-2.551v-47.645c0-1.41-1.14-2.55-2.55-2.55H398.258a6.17 6.17 0 0 0-4.356 1.8l-4.894 4.899a2.554 2.554 0 0 1-3.61 0l-4.894-4.899a6.17 6.17 0 0 0-4.356-1.8h-11.906a2.55 2.55 0 0 0-2.551 2.55v47.645a2.555 2.555 0 0 0 2.551 2.551z"/><path fill="#ffd9b2" d="M370.195-292.477h5.953c1.633 0 3.2.653 4.356 1.805l4.894 4.899a2.554 2.554 0 0 0 3.61 0l4.894-4.899a6.18 6.18 0 0 1 4.356-1.805h254.008c1.41 0 2.55-1.14 2.55-2.55v-47.645a2.55 2.55 0 0 0-2.55-2.551H398.258a6.16 6.16 0 0 0-4.356 1.805l-4.894 4.895a2.554 2.554 0 0 1-3.61 0l-4.894-4.895a6.16 6.16 0 0 0-4.356-1.805h-11.906a2.555 2.555 0 0 0-2.551 2.551v47.645c0 1.41 1.145 2.55 2.551 2.55z"/><path fill="none" stroke="#b25900" stroke-linecap="round" stroke-linejoin="round" stroke-width="3" d="M370.195-292.477h5.953c1.633 0 3.2.653 4.356 1.805l4.894 4.899a2.554 2.554 0 0 0 3.61 0l4.894-4.899a6.18 6.18 0 0 1 4.356-1.805h254.008c1.41 0 2.55-1.14 2.55-2.55v-47.645a2.55 2.55 0 0 0-2.55-2.551H398.258a6.16 6.16 0 0 0-4.356 1.805l-4.894 4.895a2.554 2.554 0 0 1-3.61 0l-4.894-4.895a6.16 6.16 0 0 0-4.356-1.805h-11.906a2.555 2.555 0 0 0-2.551 2.551v47.645c0 1.41 1.145 2.55 2.551 2.55z"/><path fill="#b2ffb2" d="m385.898-374.789 10.43 14.398a12.5 12.5 0 0 0 10.121 5.164h148.914c4.004 0 7.77-1.921 10.117-5.164l20.864-28.8a8.8 8.8 0 0 0 0-10.329l-20.864-28.8a12.5 12.5 0 0 0-10.117-5.164H406.449a12.5 12.5 0 0 0-10.121 5.164l-20.863 28.8a8.81 8.81 0 0 0 0 10.329z"/><path fill="none" stroke="#00b200" stroke-linecap="round" stroke-linejoin="round" stroke-width="3" d="m385.898-374.789 10.43 14.398a12.5 12.5 0 0 0 10.121 5.164h148.914c4.004 0 7.77-1.921 10.117-5.164l20.864-28.8a8.8 8.8 0 0 0 0-10.329l-20.864-28.8a12.5 12.5 0 0 0-10.117-5.164H406.449a12.5 12.5 0 0 0-10.121 5.164l-20.863 28.8a8.81 8.81 0 0 0 0 10.329z"/><path fill="#b2ffb2" d="m446.605-381.168 9.504 8.84a16.22 16.22 0 0 0 11.047 4.348h79.703c4.098 0 8.047-1.555 11.047-4.348l19.008-17.684a5.93 5.93 0 0 0 0-8.687l-19.008-17.688a16.23 16.23 0 0 0-11.047-4.343h-79.703a16.23 16.23 0 0 0-11.047 4.343l-19.007 17.688a5.93 5.93 0 0 0 0 8.687z"/><path fill="none" stroke="#00b200" stroke-linecap="round" stroke-linejoin="round" stroke-width="3" d="m446.605-381.168 9.504 8.84a16.22 16.22 0 0 0 11.047 4.348h79.703c4.098 0 8.047-1.555 11.047-4.348l19.008-17.684a5.93 5.93 0 0 0 0-8.687l-19.008-17.688a16.23 16.23 0 0 0-11.047-4.343h-79.703a16.23 16.23 0 0 0-11.047 4.343l-19.007 17.688a5.93 5.93 0 0 0 0 8.687z"/><path fill="#b2ffff" d="M336.18-448.938h14.457c1.633 0 3.199.649 4.355 1.801l4.895 4.899a2.553 2.553 0 0 0 3.609 0l4.895-4.899a6.17 6.17 0 0 1 4.355-1.801h273.567v-52.75a715.4 715.4 0 0 0-310.133 0z"/><path fill="none" stroke="#00b2b2" stroke-linecap="round" stroke-linejoin="round" stroke-width="3" d="M336.18-448.938h14.457c1.633 0 3.199.649 4.355 1.801l4.895 4.899a2.553 2.553 0 0 0 3.609 0l4.895-4.899a6.17 6.17 0 0 1 4.355-1.801h273.567v-52.75a715.4 715.4 0 0 0-310.133 0z"/><path d="M14.441-65.086c.5 0 .957 0 .957-.887 0-2.796-1.578-5.043-4.566-5.043-2.77 0-4.996 2.391-4.996 5.305a5.33 5.33 0 0 0 5.355 5.355c3.082 0 4.207-2.128 4.207-2.75 0-.144-.05-.667-.789-.667-.453 0-.597.168-.742.523-.598 1.387-2.148 1.508-2.605 1.508-1.98 0-3.559-1.508-3.825-3.344zm-6.98-1.316c.312-2.032 1.867-3.227 3.371-3.227 2.39 0 2.89 2.031 2.988 3.227zM26.79-67.5c0-2.344-1.102-3.441-3.06-3.441a4.18 4.18 0 0 0-3.082 1.359c0-.883 0-1.219-.957-1.219h-1.578c-.332 0-.957 0-.957.695 0 .692.625.692.957.692h.98v7.527h-.98c-.332 0-.957 0-.957.692 0 .695.625.695.957.695h3.512c.336 0 .957 0 .957-.695 0-.692-.621-.692-.957-.692h-.977v-4.324c0-2.32 1.625-3.344 2.915-3.344 1.386 0 1.671.786 1.671 2.149v5.52h-.976c-.336 0-.957 0-.957.69 0 .696.62.696.957.696h3.512c.332 0 .957 0 .957-.695 0-.692-.625-.692-.957-.692h-.98zm12.3-6.621c0-.742-.145-.98-.957-.98h-1.578c-.332 0-.953 0-.953.695 0 .691.62.691.953.691h.98v3.965c-.383-.379-1.363-1.191-2.82-1.191-2.531 0-4.73 2.293-4.73 5.304 0 2.938 2.054 5.282 4.515 5.282 1.555 0 2.582-.934 3.035-1.458 0 1 0 1.313.957 1.313h1.578c.332 0 .953 0 .953-.695 0-.692-.62-.692-.953-.692h-.98zm-1.555 9.082c0 1.336-1.097 3.297-2.89 3.297-1.723 0-3.106-1.746-3.106-3.895 0-2.293 1.625-3.918 3.32-3.918 1.555 0 2.676 1.407 2.676 2.649zm23.383-9.011c0-.598-.48-1.075-1.074-1.075a1.07 1.07 0 0 0-1.078 1.074c0 .598.476 1.078 1.078 1.078.593 0 1.074-.48 1.074-1.078m-4.113 3.25c-.332 0-.953 0-.953.694 0 .692.62.692.953.692h2.558v7.527h-2.722c-.336 0-.98 0-.98.692 0 .695.644.695.98.695h6.64c.336 0 .957 0 .957-.695 0-.692-.62-.692-.957-.692h-2.363v-7.933c0-.743-.145-.98-.957-.98zm15.097 1.387h2.891c.336 0 .957 0 .957-.692 0-.695-.621-.695-.957-.695h-2.89v-1.191c0-1.867 1.671-1.867 2.437-1.867 0 .046.191.933.98.933.383 0 .93-.285.93-.957 0-1.36-1.812-1.36-2.172-1.36-1.816 0-3.73 1.024-3.73 3.153v1.29h-2.364c-.336 0-.98 0-.98.694 0 .692.621.692.957.692h2.387v7.527h-2.27c-.336 0-.953 0-.953.692 0 .695.617.695.953.695h6.094c.336 0 .957 0 .957-.695 0-.692-.621-.692-.957-.692h-2.27zm-8.308-25.672c0-1.816-1.364-3.727-4.59-3.727-1.004 0-3.32 0-3.32 1.649 0 .645.453 1 .98 1 .14 0 .93-.047.953-1.05 0-.118.024-.142.528-.192.285-.024.597-.024.886-.024.547 0 1.36 0 2.149.598.86.668.86 1.34.86 2.031-1.411.051-2.798.145-4.278.621-1.196.407-2.723 1.266-2.723 2.89 0 1.7 1.504 3.134 3.727 3.134.765 0 2.246-.121 3.488-.98.48.788 1.676.835 2.582.835.574 0 1.148 0 1.148-.691 0-.695-.625-.695-.957-.695-.62 0-1.097-.047-1.433-.188zm-1.555 3.633c0 .547 0 1.05-.977 1.504-.84.406-1.96.406-2.03.406-1.415 0-2.438-.766-2.438-1.746 0-1.406 2.554-2.219 5.445-2.219zm8.789 8.457c.332 0 .953 0 .953-.692 0-.695-.62-.695-.953-.695h-.98v-5.113c.574.644 1.457 1.34 2.796 1.34 2.532 0 4.754-2.27 4.754-5.305 0-2.941-2.007-5.281-4.492-5.281-1.746 0-2.844 1.05-3.058 1.289 0-.79 0-1.149-.957-1.149h-1.579c-.331 0-.953 0-.953.696 0 .691.622.691.954.691h.98v12.832h-.98c-.332 0-.954 0-.954.695 0 .692.622.692.954.692zm-.98-11.66c0-1.363 1.34-2.7 2.89-2.7 1.723 0 3.106 1.743 3.106 3.895 0 2.293-1.625 3.918-3.32 3.918-1.793 0-2.676-2.031-2.676-3.226zm13.612 1.84c0-2.844 2.009-4.54 4.04-4.54.121 0 .262 0 .383.024.07.86.742.93.906.93.55 0 .934-.407.934-.93 0-1.027-1.004-1.41-2.2-1.41-1.601 0-2.96.715-4.062 2.055v-.934c0-.738-.14-.98-.953-.98h-2.414c-.336 0-.957 0-.957.695 0 .691.62.691.957.691h1.812v7.528h-1.812c-.336 0-.957 0-.957.695 0 .691.62.691.957.691h5.875c.336 0 .957 0 .957-.691 0-.695-.621-.695-.957-.695H83.46zm14.356-9.036c0-.593-.476-1.074-1.074-1.074s-1.078.481-1.078 1.074a1.076 1.076 0 1 0 2.152 0m-4.109 3.25c-.336 0-.957 0-.957.696 0 .691.621.691.957.691h2.559v7.528h-2.727c-.336 0-.98 0-.98.695 0 .691.644.691.98.691h6.645c.332 0 .957 0 .957-.691 0-.695-.625-.695-.957-.695h-2.368v-7.934c0-.738-.144-.98-.957-.98z"/><path fill="none" stroke="#000" stroke-width=".796" d="M104.398-88.746h7.383"/><path d="M116.629-82.996c.332 0 .953 0 .953-.692 0-.695-.621-.695-.953-.695h-.981v-5.113c.571.644 1.457 1.34 2.797 1.34 2.532 0 4.754-2.27 4.754-5.305 0-2.941-2.008-5.281-4.492-5.281-1.746 0-2.844 1.05-3.059 1.289 0-.79 0-1.149-.957-1.149h-1.578c-.332 0-.957 0-.957.696 0 .691.625.691.957.691h.981v12.832h-.981c-.332 0-.957 0-.957.695 0 .692.625.692.957.692zm-.981-11.66c0-1.363 1.336-2.7 2.891-2.7 1.719 0 3.106 1.743 3.106 3.895 0 2.293-1.625 3.918-3.321 3.918-1.793 0-2.676-2.031-2.676-3.226zm19.348 1.196c0-2.99-2.176-5.353-4.754-5.353-2.582 0-4.758 2.364-4.758 5.352 0 3.012 2.2 5.305 4.758 5.305 2.555 0 4.754-2.293 4.754-5.305m-4.754 3.917c-1.722 0-3.203-1.816-3.203-4.086 0-2.223 1.531-3.8 3.203-3.8s3.203 1.577 3.203 3.8c0 2.293-1.48 4.086-3.203 4.086m11.321-3.272c0-2.844 2.007-4.54 4.039-4.54.117 0 .261 0 .382.024.071.86.739.93.907.93.55 0 .929-.407.929-.93 0-1.027-1-1.41-2.199-1.41-1.598 0-2.961.715-4.058 2.055v-.934c0-.738-.145-.98-.958-.98h-2.414c-.332 0-.957 0-.957.695 0 .691.625.691.957.691h1.817v7.528h-1.817c-.332 0-.957 0-.957.695 0 .691.625.691.957.691h5.879c.336 0 .957 0 .957-.691 0-.695-.621-.695-.957-.695h-2.507zm12.296-4.399h3.875c.332 0 .954 0 .954-.691 0-.696-.622-.696-.954-.696h-3.875v-1.957c0-.429 0-.98-.761-.98-.789 0-.789.551-.789.98v1.957h-2.032c-.336 0-.98 0-.98.696 0 .691.621.691.957.691h2.055v6.024c0 2.222 1.531 3.035 3.25 3.035 1.289 0 3.656-.645 3.656-3.082 0-.48 0-1.004-.789-1.004-.766 0-.766.523-.766 1.027-.023 1.434-1.387 1.672-1.933 1.672-1.868 0-1.868-1.195-1.868-1.77zm17.036 2.129c0-1.816-1.364-3.727-4.59-3.727-1.004 0-3.321 0-3.321 1.649 0 .645.454 1 .981 1 .14 0 .93-.047.953-1.05 0-.118.023-.142.527-.192.285-.024.598-.024.883-.024.551 0 1.363 0 2.152.598.86.668.86 1.34.86 2.031-1.41.051-2.797.145-4.277.621-1.196.407-2.723 1.266-2.723 2.89 0 1.7 1.504 3.134 3.726 3.134.766 0 2.247-.121 3.489-.98.476.788 1.672.835 2.582.835.574 0 1.144 0 1.144-.691 0-.695-.621-.695-.953-.695-.621 0-1.101-.047-1.433-.188zm-1.555 3.633c0 .547 0 1.05-.981 1.504-.836.406-1.961.406-2.031.406-1.41 0-2.437-.766-2.437-1.746 0-1.406 2.558-2.219 5.449-2.219zm14.187 4.516c0-.313-.168-.407-.5-.645-3.3-2.27-4.113-5.687-4.113-8.008 0-2.27.766-5.711 4.113-8.027.332-.238.5-.336.5-.645 0-.242-.121-.621-.691-.621-.598 0-2.367 1.387-3.465 2.938-1.34 1.863-2.008 4.086-2.008 6.355 0 2.653.957 4.875 1.957 6.285 1.102 1.532 2.844 2.989 3.516 2.989.57 0 .691-.407.691-.621m10.293-8.653a10.93 10.93 0 0 0-2.175-6.594c-.813-1.097-2.579-2.699-3.297-2.699-.551 0-.692.406-.692.621 0 .285.164.407.598.692 2.914 2.054 4.012 5.257 4.012 7.957 0 2.152-.692 5.664-4.11 8.031-.308.215-.5.332-.5.644 0 .215.141.622.692.622.597 0 2.367-1.387 3.465-2.942a10.96 10.96 0 0 0 2.007-6.332M58.527-110.895c.332 0 .957 0 .957-.695 0-.691-.625-.691-.957-.691h-.98v-5.114c.574.645 1.457 1.34 2.797 1.34 2.531 0 4.754-2.273 4.754-5.304 0-2.942-2.008-5.282-4.492-5.282-1.747 0-2.844 1.051-3.06 1.289 0-.789 0-1.148-.952-1.148h-1.578c-.336 0-.957 0-.957.695 0 .692.62.692.957.692h.976v12.832h-.976c-.336 0-.957 0-.957.691 0 .695.62.695.957.695zm-.98-11.66c0-1.363 1.34-2.703 2.89-2.703 1.723 0 3.11 1.746 3.11 3.899 0 2.293-1.625 3.918-3.324 3.918-1.793 0-2.676-2.032-2.676-3.227zm13.613 1.836c0-2.844 2.008-4.539 4.04-4.539.12 0 .26 0 .382.024.074.863.742.933.91.933.547 0 .93-.406.93-.933 0-1.028-1.004-1.407-2.2-1.407-1.597 0-2.96.715-4.062 2.051v-.93c0-.742-.14-.98-.953-.98h-2.414c-.336 0-.957 0-.957.695 0 .692.621.692.957.692h1.816v7.527h-1.816c-.336 0-.957 0-.957.691 0 .696.621.696.957.696h5.879c.332 0 .953 0 .953-.696 0-.691-.621-.691-.953-.691H71.16zm17.082-.07c.5 0 .953 0 .953-.883 0-2.797-1.574-5.043-4.562-5.043-2.774 0-4.996 2.391-4.996 5.305a5.33 5.33 0 0 0 5.355 5.355c3.082 0 4.203-2.129 4.203-2.75 0-.144-.047-.668-.789-.668-.453 0-.594.168-.738.524-.598 1.386-2.152 1.508-2.606 1.508-1.984 0-3.562-1.508-3.824-3.348zm-6.98-1.313c.312-2.031 1.863-3.226 3.37-3.226 2.391 0 2.891 2.031 2.99 3.226zm20.164-1.339c0-.528 0-3.2-2.106-3.2-.836 0-1.648.379-2.293 1.262-.144-.355-.668-1.262-1.816-1.262-1.074 0-1.817.692-2.008.907-.023-.766-.523-.766-.953-.766h-.719c-.336 0-.953 0-.953.695 0 .692.547.692 1.29.692v7.527c-.766 0-1.29 0-1.29.691 0 .696.617.696.953.696h2.008c.336 0 .957 0 .957-.696 0-.691-.55-.691-1.293-.691v-4.398c0-2.008.863-3.274 1.914-3.274.668 0 .86.836.86 1.961v5.711c-.407 0-1.051 0-1.051.691 0 .696.644.696.98.696h1.742c.336 0 .958 0 .958-.696 0-.691-.551-.691-1.29-.691v-4.398c0-2.008.86-3.274 1.91-3.274.668 0 .864.836.864 1.961v5.711c-.41 0-1.055 0-1.055.691 0 .696.645.696.981.696h1.742c.336 0 .957 0 .957-.696 0-.691-.551-.691-1.289-.691zm8.691-6.309c0-.598-.476-1.074-1.074-1.074s-1.078.476-1.078 1.074.48 1.078 1.078 1.078 1.074-.48 1.074-1.078m-4.109 3.25c-.336 0-.957 0-.957.695 0 .692.621.692.957.692h2.555v7.527h-2.723c-.336 0-.981 0-.981.691 0 .696.645.696.981.696h6.644c.332 0 .954 0 .954-.696 0-.691-.622-.691-.954-.691h-2.367v-7.934c0-.742-.144-.98-.957-.98z"/><path fill="none" stroke="#000" stroke-width=".796" d="M116.703-116.645h7.383"/><path d="M131.316-129.75c0-.598-.476-1.074-1.074-1.074a1.075 1.075 0 1 0 0 2.152c.598 0 1.074-.48 1.074-1.078m-4.109 3.25c-.336 0-.957 0-.957.695 0 .692.621.692.957.692h2.559v7.527h-2.727c-.336 0-.98 0-.98.691 0 .696.644.696.98.696h6.645c.332 0 .957 0 .957-.696 0-.691-.625-.691-.957-.691h-2.368v-7.934c0-.742-.144-.98-.957-.98zm19.184 3.297c0-2.34-1.102-3.438-3.063-3.438a4.18 4.18 0 0 0-3.082 1.36c0-.883 0-1.219-.953-1.219h-1.578c-.336 0-.957 0-.957.695 0 .692.621.692.957.692h.98v7.527h-.98c-.336 0-.957 0-.957.691 0 .696.621.696.957.696h3.512c.336 0 .957 0 .957-.696 0-.691-.621-.691-.957-.691h-.981v-4.324c0-2.32 1.625-3.348 2.918-3.348 1.383 0 1.672.789 1.672 2.153v5.519h-.981c-.332 0-.957 0-.957.691 0 .696.625.696.957.696h3.512c.336 0 .957 0 .957-.696 0-.691-.621-.691-.957-.691h-.976zm7.468-1.91h3.875c.332 0 .954 0 .954-.692 0-.695-.622-.695-.954-.695h-3.875v-1.961c0-.43 0-.977-.761-.977-.789 0-.789.547-.789.977v1.961h-2.032c-.336 0-.98 0-.98.695 0 .692.621.692.957.692h2.055v6.019c0 2.227 1.531 3.039 3.25 3.039 1.289 0 3.656-.648 3.656-3.086 0-.476 0-1-.789-1-.766 0-.766.524-.766 1.024-.023 1.437-1.387 1.676-1.933 1.676-1.868 0-1.868-1.196-1.868-1.77zm17.082 4.324c.5 0 .957 0 .957-.883 0-2.797-1.578-5.043-4.566-5.043-2.769 0-4.992 2.391-4.992 5.305a5.33 5.33 0 0 0 5.351 5.355c3.082 0 4.207-2.129 4.207-2.75 0-.144-.05-.668-.789-.668-.453 0-.597.168-.742.524-.597 1.386-2.148 1.508-2.605 1.508-1.981 0-3.559-1.508-3.824-3.348zm-6.976-1.313c.308-2.031 1.863-3.226 3.367-3.226 2.391 0 2.891 2.031 2.988 3.226zm14.496 1.383c0-2.844 2.008-4.539 4.039-4.539.121 0 .262 0 .383.024.07.863.738.933.906.933.551 0 .934-.406.934-.933 0-1.028-1.004-1.407-2.2-1.407-1.601 0-2.96.715-4.062 2.051v-.93c0-.742-.141-.98-.953-.98h-2.414c-.336 0-.957 0-.957.695 0 .692.621.692.957.692h1.812v7.527h-1.812c-.336 0-.957 0-.957.691 0 .696.621.696.957.696h5.875c.336 0 .957 0 .957-.696 0-.691-.621-.691-.957-.691h-2.508zm12.301 0c0-2.844 2.008-4.539 4.039-4.539.121 0 .262 0 .383.024.07.863.738.933.906.933.551 0 .933-.406.933-.933 0-1.028-1.003-1.407-2.199-1.407-1.601 0-2.965.715-4.062 2.051v-.93c0-.742-.145-.98-.957-.98h-2.414c-.332 0-.953 0-.953.695 0 .692.621.692.953.692h1.816v7.527h-1.816c-.332 0-.953 0-.953.691 0 .696.621.696.953.696h5.879c.335 0 .957 0 .957-.696 0-.691-.622-.691-.957-.691h-2.508zm17.129-4.801c0-.742-.145-.98-.957-.98h-1.579c-.332 0-.957 0-.957.695 0 .692.625.692.957.692h.981v5.183c0 1.961-1.625 2.489-2.699 2.489-1.891 0-1.891-.864-1.891-1.602v-6.477c0-.742-.141-.98-.953-.98h-1.578c-.336 0-.957 0-.957.695 0 .692.621.692.957.692h.98v6.187c0 2.199 1.434 2.871 3.274 2.871 1.457 0 2.367-.601 2.844-1.008 0 .864.574.864.976.864h1.578c.336 0 .957 0 .957-.696 0-.691-.621-.691-.957-.691h-.976zm7.468.407h3.875c.332 0 .954 0 .954-.692 0-.695-.622-.695-.954-.695h-3.875v-1.961c0-.43 0-.977-.761-.977-.789 0-.789.547-.789.977v1.961h-2.032c-.336 0-.98 0-.98.695 0 .692.621.692.957.692h2.055v6.019c0 2.227 1.531 3.039 3.25 3.039 1.289 0 3.656-.648 3.656-3.086 0-.476 0-1-.789-1-.766 0-.766.524-.766 1.024-.023 1.437-1.387 1.676-1.933 1.676-1.868 0-1.868-1.196-1.868-1.77zm12.301 0h3.871c.336 0 .957 0 .957-.692 0-.695-.621-.695-.957-.695h-3.871v-1.961c0-.43 0-.977-.762-.977-.789 0-.789.547-.789.977v1.961h-2.031c-.336 0-.98 0-.98.695 0 .692.621.692.957.692h2.054v6.019c0 2.227 1.528 3.039 3.25 3.039 1.289 0 3.657-.648 3.657-3.086 0-.476 0-1-.789-1-.766 0-.766.524-.766 1.024-.023 1.437-1.387 1.676-1.938 1.676-1.863 0-1.863-1.196-1.863-1.77zm18.035 3.754c0-2.989-2.172-5.356-4.754-5.356s-4.753 2.367-4.753 5.356c0 3.007 2.195 5.304 4.753 5.304 2.555 0 4.754-2.297 4.754-5.304m-4.754 3.918c-1.722 0-3.203-1.817-3.203-4.09 0-2.223 1.532-3.797 3.203-3.797 1.672 0 3.204 1.574 3.204 3.797 0 2.297-1.481 4.09-3.204 4.09m11.321-3.278c0-2.844 2.008-4.539 4.039-4.539.121 0 .262 0 .383.024.07.863.738.933.906.933.551 0 .933-.406.933-.933 0-1.028-1.003-1.407-2.199-1.407-1.601 0-2.965.715-4.062 2.051v-.93c0-.742-.145-.98-.957-.98h-2.414c-.332 0-.953 0-.953.695 0 .692.621.692.953.692h1.816v7.527h-1.816c-.332 0-.953 0-.953.691 0 .696.621.696.953.696h5.879c.335 0 .957 0 .957-.696 0-.691-.622-.691-.957-.691h-2.508zm17.078-.07c.504 0 .957 0 .957-.883 0-2.797-1.578-5.043-4.563-5.043-2.773 0-4.996 2.391-4.996 5.305a5.33 5.33 0 0 0 5.352 5.355c3.082 0 4.207-2.129 4.207-2.75 0-.144-.051-.668-.789-.668-.453 0-.598.168-.742.524-.594 1.386-2.149 1.508-2.602 1.508-1.984 0-3.562-1.508-3.824-3.348zm-6.977-1.313c.309-2.031 1.864-3.226 3.371-3.226 2.387 0 2.887 2.031 2.985 3.226zm19.567 7.262c0-.308-.168-.402-.504-.644-3.297-2.27-4.11-5.688-4.11-8.004 0-2.27.762-5.711 4.11-8.028.336-.242.504-.336.504-.648 0-.238-.121-.621-.696-.621-.597 0-2.367 1.387-3.464 2.941-1.34 1.864-2.008 4.086-2.008 6.356 0 2.652.957 4.875 1.961 6.285 1.097 1.527 2.843 2.984 3.511 2.984.575 0 .696-.402.696-.621m10.289-8.648a10.96 10.96 0 0 0-2.172-6.598c-.813-1.098-2.582-2.699-3.301-2.699-.547 0-.691.406-.691.621 0 .285.168.406.597.695 2.914 2.055 4.016 5.254 4.016 7.957 0 2.153-.695 5.664-4.113 8.028-.309.214-.5.336-.5.644 0 .219.144.621.691.621.598 0 2.367-1.383 3.469-2.937a11 11 0 0 0 2.004-6.332m-280.5-34.16a1.076 1.076 0 1 0-2.153 0 1.07 1.07 0 0 0 1.075 1.074c.597 0 1.078-.477 1.078-1.074m-4.114 3.25c-.332 0-.957 0-.957.691s.625.691.957.691h2.56v7.532H7.437c-.333 0-.977 0-.977.691s.644.691.976.691h6.645c.336 0 .957 0 .957-.691s-.621-.691-.957-.691h-2.363v-7.938c0-.738-.145-.976-.957-.976zm15.098 1.382h2.89c.337 0 .958 0 .958-.691s-.621-.691-.957-.691h-2.89v-1.196c0-1.863 1.671-1.863 2.437-1.863 0 .047.191.93.98.93.379 0 .93-.286.93-.957 0-1.36-1.817-1.36-2.176-1.36-1.812 0-3.727 1.028-3.727 3.153v1.293h-2.367c-.332 0-.976 0-.976.691s.62.691.953.691h2.39v7.532h-2.27c-.335 0-.956 0-.956.691s.621.691.957.691h6.094c.336 0 .957 0 .957-.691s-.621-.691-.957-.691h-2.27zm23.524 14.219c.336 0 .957 0 .957-.691 0-.692-.621-.692-.957-.692h-.98v-5.117c.573.649 1.456 1.34 2.796 1.34 2.535 0 4.754-2.27 4.754-5.305 0-2.941-2.008-5.281-4.492-5.281-1.742 0-2.844 1.051-3.059 1.289 0-.785 0-1.144-.953-1.144h-1.578c-.336 0-.957 0-.957.691s.62.691.957.691h.98v12.836h-.98c-.336 0-.957 0-.957.692 0 .691.62.691.957.691zm-.98-11.66c0-1.363 1.339-2.699 2.894-2.699 1.718 0 3.105 1.742 3.105 3.894 0 2.293-1.625 3.918-3.324 3.918-1.79 0-2.676-2.027-2.676-3.226zm19.351 1.195c0-2.984-2.176-5.351-4.754-5.351-2.582 0-4.758 2.367-4.758 5.351 0 3.012 2.2 5.305 4.758 5.305 2.554 0 4.754-2.293 4.754-5.305m-4.754 3.918c-1.723 0-3.203-1.816-3.203-4.086 0-2.222 1.527-3.797 3.203-3.797 1.672 0 3.199 1.575 3.199 3.797 0 2.297-1.48 4.086-3.2 4.086m11.317-3.273c0-2.844 2.008-4.539 4.04-4.539.12 0 .26 0 .382.023.074.86.742.93.91.93.547 0 .93-.406.93-.93 0-1.027-1.004-1.41-2.2-1.41-1.597 0-2.96.715-4.062 2.055v-.934c0-.738-.14-.976-.953-.976h-2.414c-.336 0-.957 0-.957.691s.621.691.957.691h1.816v7.532h-1.816c-.336 0-.957 0-.957.691s.621.691.957.691h5.879c.332 0 .953 0 .953-.691s-.621-.691-.953-.691H71.16zm12.3-4.399h3.872c.336 0 .957 0 .957-.691s-.621-.691-.957-.691h-3.871v-1.961c0-.43 0-.981-.766-.981-.789 0-.789.551-.789.981v1.961h-2.031c-.332 0-.977 0-.977.691s.621.691.954.691h2.054v6.024c0 2.222 1.531 3.035 3.25 3.035 1.293 0 3.656-.645 3.656-3.082 0-.477 0-1.004-.785-1.004-.765 0-.765.527-.765 1.027-.024 1.434-1.387 1.672-1.938 1.672-1.863 0-1.863-1.195-1.863-1.765zm17.032 2.129c0-1.816-1.36-3.726-4.586-3.726-1.004 0-3.324 0-3.324 1.648 0 .645.457 1 .98 1 .145 0 .934-.043.957-1.051 0-.117.024-.14.528-.187.285-.024.594-.024.883-.024.547 0 1.36 0 2.148.594.863.668.863 1.34.863 2.031-1.41.051-2.797.145-4.277.625-1.195.407-2.727 1.262-2.727 2.887 0 1.699 1.508 3.133 3.727 3.133.766 0 2.25-.121 3.492-.981.477.79 1.672.836 2.578.836.575 0 1.149 0 1.149-.691s-.621-.691-.957-.691c-.621 0-1.098-.051-1.434-.192zm-1.55 3.633c0 .551 0 1.051-.981 1.508-.836.402-1.961.402-2.031.402-1.41 0-2.438-.765-2.438-1.746 0-1.406 2.555-2.219 5.45-2.219z"/><path fill="none" stroke="#000" stroke-width=".796" d="M104.398-144.547h7.383"/><path d="M122.695-146.703c0-.625-.593-.625-.789-.625-.547 0-.644.195-.761.527-.528 1.317-1.7 1.457-2.274 1.457-2.027 0-3.75-1.695-3.75-3.918 0-1.218.692-3.965 3.824-3.965.645 0 1.149.047 1.364.071.168.047.187.07.187.191.074.981.817 1 .957 1 .527 0 .981-.355.981-1 0-1.648-2.414-1.648-3.465-1.648-4.086 0-5.399 3.343-5.399 5.351 0 2.914 2.219 5.305 5.086 5.305 3.203 0 4.039-2.363 4.039-2.746m11.395-4.399c0-2.343-1.102-3.441-3.059-3.441a4.2 4.2 0 0 0-3.086 1.363v-4.543c0-.742-.14-.98-.953-.98h-1.578c-.336 0-.957 0-.957.695 0 .692.621.692.957.692h.981v11.832h-.981c-.336 0-.957 0-.957.691s.621.691.957.691h3.512c.336 0 .957 0 .957-.691s-.621-.691-.957-.691h-.981v-4.329c0-2.316 1.625-3.343 2.918-3.343 1.383 0 1.672.789 1.672 2.148v5.524h-.98c-.332 0-.953 0-.953.691s.621.691.953.691h3.515c.332 0 .953 0 .953-.691s-.621-.691-.953-.691h-.98zm9.527-6.546a1.075 1.075 0 1 0-2.152 0c0 .597.48 1.074 1.078 1.074s1.074-.477 1.074-1.074m-4.109 3.25c-.336 0-.957 0-.957.691s.621.691.957.691h2.555v7.532h-2.723c-.336 0-.981 0-.981.691s.645.691.981.691h6.644c.332 0 .954 0 .954-.691s-.622-.691-.954-.691h-2.367v-7.938c0-.738-.144-.976-.957-.976zm19.18.976c0-.738-.141-.976-.954-.976h-1.578c-.336 0-.957 0-.957.691s.621.691.957.691h.981v5.188c0 1.961-1.625 2.484-2.699 2.484-1.891 0-1.891-.859-1.891-1.601v-6.477c0-.738-.141-.976-.953-.976h-1.578c-.336 0-.957 0-.957.691s.621.691.957.691h.976v6.192c0 2.199 1.438 2.867 3.274 2.867 1.461 0 2.367-.598 2.843-1.004 0 .859.579.859.981.859h1.578c.336 0 .957 0 .957-.691s-.621-.691-.957-.691h-.98zm12.347-.285c0-.383 0-.906-.668-.906-.574 0-.719.547-.719.574-.953-.574-2.054-.574-2.531-.574-3.894 0-4.422 1.98-4.422 2.793 0 .98.575 1.648 1.387 2.105.766.43 1.457.551 3.418.86.93.167 2.844.476 2.844 1.792 0 .883-.813 1.719-3.035 1.719-1.528 0-2.536-.597-3.036-2.316-.117-.336-.191-.598-.789-.598-.789 0-.789.453-.789.93v2.465c0 .379 0 .906.672.906.285 0 .5 0 .86-.981 1.097.911 2.339.981 3.082.981 4.421 0 4.421-2.867 4.421-3.106 0-2.484-2.964-2.988-4.113-3.156-2.101-.359-3.535-.597-3.535-1.601 0-.645.742-1.407 2.988-1.407 2.27 0 2.368 1.075 2.414 1.696.047.476.477.547.762.547.789 0 .789-.43.789-.907zm12.16 2.82c0-1.816-1.363-3.726-4.59-3.726-1.003 0-3.324 0-3.324 1.648 0 .645.457 1 .981 1 .144 0 .933-.043.957-1.051 0-.117.023-.14.527-.187.285-.024.598-.024.883-.024.551 0 1.363 0 2.152.594.86.668.86 1.34.86 2.031-1.411.051-2.797.145-4.278.625-1.195.407-2.726 1.262-2.726 2.887 0 1.699 1.508 3.133 3.73 3.133.766 0 2.246-.121 3.488-.981.477.79 1.672.836 2.583.836.57 0 1.144 0 1.144-.691s-.621-.691-.953-.691c-.621 0-1.102-.051-1.434-.192zm-1.554 3.633c0 .551 0 1.051-.981 1.508-.836.402-1.961.402-2.031.402-1.41 0-2.438-.765-2.438-1.746 0-1.406 2.555-2.219 5.45-2.219zm14.187 4.516c0-.309-.168-.407-.5-.645-3.301-2.269-4.113-5.687-4.113-8.008 0-2.269.765-5.711 4.113-8.027.332-.238.5-.336.5-.645 0-.238-.121-.621-.695-.621-.594 0-2.363 1.387-3.461 2.938-1.34 1.863-2.008 4.086-2.008 6.355 0 2.657.953 4.875 1.957 6.289 1.102 1.528 2.844 2.985 3.512 2.985.574 0 .695-.406.695-.621m10.293-8.653a10.93 10.93 0 0 0-2.176-6.593c-.812-1.098-2.578-2.7-3.297-2.7-.55 0-.695.407-.695.621 0 .286.168.407.602.692 2.914 2.055 4.011 5.258 4.011 7.957 0 2.152-.695 5.668-4.109 8.031-.309.215-.504.336-.504.645 0 .215.145.621.695.621.598 0 2.368-1.387 3.465-2.938a11 11 0 0 0 2.008-6.336m21.539-1.625h3.871c.336 0 .957 0 .957-.691s-.621-.691-.957-.691h-3.871v-1.961c0-.43 0-.981-.762-.981-.789 0-.789.551-.789.981v1.961h-2.031c-.336 0-.98 0-.98.691s.621.691.957.691h2.054v6.024c0 2.222 1.528 3.035 3.25 3.035 1.289 0 3.657-.645 3.657-3.082 0-.477 0-1.004-.789-1.004-.766 0-.766.527-.766 1.027-.023 1.434-1.387 1.672-1.938 1.672-1.863 0-1.863-1.195-1.863-1.765zm17.129 1.914c0-2.343-1.101-3.441-3.059-3.441a4.18 4.18 0 0 0-3.082 1.363v-4.543c0-.742-.144-.98-.957-.98h-1.578c-.332 0-.957 0-.957.695 0 .692.625.692.957.692h.981v11.832h-.981c-.332 0-.957 0-.957.691s.625.691.957.691h3.516c.332 0 .953 0 .953-.691s-.621-.691-.953-.691h-.981v-4.329c0-2.316 1.625-3.343 2.915-3.343 1.386 0 1.671.789 1.671 2.148v5.524h-.976c-.336 0-.957 0-.957.691s.621.691.957.691h3.512c.332 0 .957 0 .957-.691s-.625-.691-.957-.691h-.981zm12.25 2.414c.504 0 .957 0 .957-.882 0-2.797-1.574-5.043-4.562-5.043-2.774 0-4.996 2.386-4.996 5.304a5.327 5.327 0 0 0 5.351 5.352c3.082 0 4.207-2.125 4.207-2.746 0-.145-.047-.668-.789-.668-.453 0-.598.164-.738.523-.598 1.383-2.153 1.504-2.606 1.504-1.984 0-3.562-1.504-3.824-3.344zm-6.976-1.316c.308-2.031 1.863-3.223 3.371-3.223 2.386 0 2.89 2.032 2.988 3.223zm19.328-1.098c0-2.343-1.102-3.441-3.063-3.441-1.625 0-2.676.91-3.082 1.363 0-.886 0-1.218-.953-1.218h-1.578c-.336 0-.957 0-.957.691s.621.691.957.691h.98v7.532h-.98c-.336 0-.957 0-.957.691s.621.691.957.691h3.512c.336 0 .957 0 .957-.691s-.621-.691-.957-.691h-.981v-4.329c0-2.316 1.625-3.343 2.918-3.343 1.383 0 1.672.789 1.672 2.148v5.524h-.981c-.332 0-.957 0-.957.691s.625.691.957.691h3.512c.336 0 .957 0 .957-.691s-.621-.691-.957-.691h-.976zM47.723-234.781c0-1.289 0-2.246-1.051-3.18-.836-.762-1.91-1.098-2.961-1.098-1.961 0-3.469 1.293-3.469 2.844 0 .692.457 1.027 1.008 1.027.57 0 .977-.406.977-.98 0-.98-.86-.98-1.22-.98.552-1 1.7-1.43 2.653-1.43 1.102 0 2.512.906 2.512 3.055v.957c-4.805.074-6.621 2.082-6.621 3.918 0 1.89 2.199 2.488 3.656 2.488 1.578 0 2.652-.957 3.105-2.106.098 1.125.836 1.985 1.868 1.985.5 0 1.886-.336 1.886-2.246v-1.34h-.527v1.34c0 1.363-.57 1.554-.906 1.554-.91 0-.91-1.269-.91-1.625zm-1.551 3.011c0 2.34-1.746 3.129-2.774 3.129-1.171 0-2.148-.859-2.148-2.007 0-3.153 4.063-3.442 4.922-3.489zm9.883 7.313c-1.532 0-1.817 0-1.817-1.074v-4.16c.43.597 1.41 1.531 2.942 1.531 2.746 0 5.16-2.32 5.16-5.403 0-3.035-2.246-5.375-4.852-5.375-2.101 0-3.226 1.504-3.297 1.598v-1.598l-3.324.262v.692c1.676 0 1.82.168 1.82 1.218v11.235c0 1.074-.265 1.074-1.82 1.074v.691c.625-.047 1.914-.047 2.582-.047.692 0 1.985 0 2.606.047zm-1.817-11.566c0-.454 0-.481.262-.86.719-1.078 1.89-1.531 2.797-1.531 1.793 0 3.226 2.176 3.226 4.851 0 2.844-1.625 4.922-3.464 4.922a2.8 2.8 0 0 1-1.91-.761c-.551-.551-.91-1.028-.91-1.7zm12.953 2.054c0-2.316.957-4.492 2.793-4.492.196 0 .243 0 .336.023-.191.098-.57.243-.57.883 0 .696.547.957.93.957.476 0 .957-.308.957-.957 0-.715-.645-1.383-1.676-1.383-2.031 0-2.723 2.196-2.867 2.653h-.024v-2.653l-3.203.262v.692c1.625 0 1.82.168 1.82 1.339v6.477c0 1.074-.265 1.074-1.82 1.074v.696c.672-.051 1.985-.051 2.703-.051.645 0 2.34 0 2.89.051v-.696h-.476c-1.746 0-1.793-.261-1.793-1.121zm9.266-9.152c0-.621-.5-1.168-1.168-1.168-.625 0-1.148.5-1.148 1.144 0 .715.574 1.172 1.148 1.172.738 0 1.168-.621 1.168-1.148m-3.297 4.445v.692c1.528 0 1.746.144 1.746 1.316v6.5c0 1.074-.265 1.074-1.816 1.074v.696c.668-.051 1.816-.051 2.508-.051.261 0 1.648 0 2.46.051v-.696c-1.55 0-1.648-.121-1.648-1.051v-8.793zm19.293 14.219c-1.527 0-1.812 0-1.812-1.074v-4.16c.43.597 1.406 1.531 2.937 1.531 2.75 0 5.16-2.32 5.16-5.403 0-3.035-2.246-5.375-4.847-5.375-2.106 0-3.227 1.504-3.301 1.598v-1.598l-3.32.262v.692c1.671 0 1.816.168 1.816 1.218v11.235c0 1.074-.266 1.074-1.817 1.074v.691c.622-.047 1.91-.047 2.583-.047.691 0 1.98 0 2.601.047zm-1.812-11.566c0-.454 0-.481.261-.86a3.44 3.44 0 0 1 2.793-1.531c1.793 0 3.227 2.176 3.227 4.851 0 2.844-1.625 4.922-3.465 4.922a2.82 2.82 0 0 1-1.91-.761c-.55-.551-.906-1.028-.906-1.7zm20.629 2.507c0-3.082-2.344-5.543-5.114-5.543-2.867 0-5.14 2.536-5.14 5.543 0 3.063 2.39 5.356 5.117 5.356 2.816 0 5.137-2.344 5.137-5.356m-5.114 4.828c-.886 0-1.961-.382-2.652-1.554-.649-1.074-.672-2.485-.672-3.488 0-.907 0-2.364.742-3.442a3.07 3.07 0 0 1 2.559-1.406c.93 0 1.933.43 2.578 1.359.742 1.102.742 2.606.742 3.489 0 .839 0 2.32-.621 3.441-.668 1.148-1.769 1.601-2.676 1.601m9.836-5.281c0-2.316.953-4.492 2.793-4.492.192 0 .238 0 .336.023-.191.098-.574.243-.574.883 0 .696.551.957.933.957.477 0 .958-.308.958-.957 0-.715-.649-1.383-1.676-1.383-2.032 0-2.723 2.196-2.867 2.653h-.024v-2.653l-3.203.262v.692c1.625 0 1.816.168 1.816 1.339v6.477c0 1.074-.261 1.074-1.816 1.074v.696c.672-.051 1.984-.051 2.699-.051.649 0 2.344 0 2.895.051v-.696h-.481c-1.742 0-1.789-.261-1.789-1.121zm9.121-4.039h3.371v-.691h-3.371v-4.399h-.523c-.024 2.246-.887 4.543-3.059 4.614v.476h2.032v6.645c0 2.652 1.765 3.203 3.035 3.203 1.504 0 2.293-1.481 2.293-3.203v-1.364h-.528v1.317c0 1.719-.691 2.722-1.625 2.722-1.625 0-1.625-2.222-1.625-2.628zm14.309 3.227c0-1.289 0-2.246-1.051-3.18-.836-.762-1.91-1.098-2.961-1.098-1.961 0-3.465 1.293-3.465 2.844 0 .692.453 1.027 1.004 1.027.574 0 .981-.406.981-.98 0-.98-.864-.98-1.219-.98.547-1 1.695-1.43 2.648-1.43 1.102 0 2.512.906 2.512 3.055v.957c-4.805.074-6.617 2.082-6.617 3.918 0 1.89 2.195 2.488 3.652 2.488 1.578 0 2.657-.957 3.11-2.106.093 1.125.836 1.985 1.863 1.985.5 0 1.887-.336 1.887-2.246v-1.34h-.524v1.34c0 1.363-.574 1.554-.91 1.554-.91 0-.91-1.269-.91-1.625zm-1.551 3.011c0 2.34-1.742 3.129-2.773 3.129-1.168 0-2.149-.859-2.149-2.007 0-3.153 4.063-3.442 4.922-3.489zm-93.515-48.386c-1.532 0-1.817 0-1.817-1.078v-4.157c.43.598 1.41 1.532 2.938 1.532 2.75 0 5.164-2.321 5.164-5.403 0-3.035-2.246-5.379-4.852-5.379-2.102 0-3.227 1.508-3.297 1.602v-1.602l-3.324.266v.691c1.676 0 1.816.168 1.816 1.219v11.231c0 1.078-.261 1.078-1.816 1.078v.691c.621-.047 1.914-.047 2.582-.047.691 0 1.984 0 2.605.047zm-1.817-11.567c0-.453 0-.48.262-.859.718-1.078 1.886-1.531 2.797-1.531 1.793 0 3.226 2.175 3.226 4.851 0 2.844-1.625 4.922-3.465 4.922a2.82 2.82 0 0 1-1.914-.762c-.547-.55-.906-1.031-.906-1.699zm12.953 2.055c0-2.316.953-4.492 2.793-4.492.192 0 .238 0 .336.023-.191.098-.574.239-.574.883 0 .695.55.957.934.957.476 0 .956-.312.956-.957 0-.715-.648-1.387-1.675-1.387-2.032 0-2.723 2.2-2.867 2.657h-.024v-2.657l-3.203.266v.691c1.625 0 1.816.168 1.816 1.34v6.477c0 1.074-.261 1.074-1.816 1.074v.691c.668-.046 1.984-.046 2.7-.046.648 0 2.343 0 2.894.046v-.691h-.48c-1.743 0-1.79-.262-1.79-1.121zm14.262.023c.523 0 .574 0 .574-.453 0-2.414-1.293-4.66-4.184-4.66-2.722 0-4.828 2.461-4.828 5.426 0 3.152 2.438 5.473 5.09 5.473 2.844 0 3.922-2.582 3.922-3.086 0-.145-.121-.239-.266-.239-.19 0-.238.121-.285.239-.62 2.007-2.222 2.558-3.226 2.558s-3.418-.668-3.418-4.804v-.454zm-6.598-.453c.192-3.754 2.297-4.183 2.965-4.183 2.555 0 2.7 3.371 2.723 4.183zm24.977.192c0-2.223 0-2.891-.547-3.657-.695-.933-1.817-1.078-2.629-1.078-1.984 0-2.988 1.438-3.371 2.368-.336-1.84-1.625-2.368-3.129-2.368-2.32 0-3.226 1.985-3.418 2.465h-.023v-2.465l-3.25.266v.691c1.625 0 1.816.168 1.816 1.34v6.477c0 1.074-.262 1.074-1.816 1.074v.691c.62-.046 1.91-.046 2.578-.046.695 0 1.984 0 2.605.046v-.691c-1.527 0-1.816 0-1.816-1.074v-4.446c0-2.507 1.648-3.847 3.133-3.847 1.48 0 1.816 1.219 1.816 2.676v5.617c0 1.074-.266 1.074-1.816 1.074v.691c.62-.046 1.91-.046 2.578-.046.695 0 1.984 0 2.605.046v-.691c-1.527 0-1.816 0-1.816-1.074v-4.446c0-2.507 1.648-3.847 3.133-3.847 1.48 0 1.816 1.219 1.816 2.676v5.617c0 1.074-.266 1.074-1.816 1.074v.691c.62-.046 1.91-.046 2.578-.046.695 0 1.984 0 2.605.046v-.691c-1.195 0-1.793 0-1.816-.715zm6.523-8.914c0-.621-.5-1.172-1.168-1.172a1.15 1.15 0 0 0-1.148 1.148c0 .715.574 1.172 1.148 1.172.739 0 1.168-.625 1.168-1.148m-3.297 4.445v.691c1.532 0 1.747.145 1.747 1.317v6.5c0 1.074-.262 1.074-1.817 1.074v.691c.668-.046 1.817-.046 2.508-.046.266 0 1.648 0 2.46.046v-.691c-1.55 0-1.648-.121-1.648-1.051v-8.797zm17.598-4.445c0-.621-.5-1.172-1.168-1.172-.625 0-1.148.504-1.148 1.148 0 .715.574 1.172 1.148 1.172.738 0 1.168-.625 1.168-1.148m-3.297 4.445v.691c1.528 0 1.746.145 1.746 1.317v6.5c0 1.074-.265 1.074-1.816 1.074v.691c.668-.046 1.816-.046 2.508-.046.261 0 1.648 0 2.461.046v-.691c-1.551 0-1.649-.121-1.649-1.051v-8.797zm16.274 4.469c0-2.223 0-2.891-.551-3.657-.692-.933-1.813-1.078-2.625-1.078-2.32 0-3.227 1.985-3.418 2.465h-.027v-2.465l-3.25.266v.691c1.625 0 1.82.168 1.82 1.34v6.477c0 1.074-.266 1.074-1.82 1.074v.691c.625-.046 1.914-.046 2.582-.046.695 0 1.984 0 2.605.046v-.691c-1.531 0-1.816 0-1.816-1.074v-4.446c0-2.507 1.648-3.847 3.129-3.847 1.484 0 1.82 1.219 1.82 2.676v5.617c0 1.074-.266 1.074-1.82 1.074v.691c.625-.046 1.914-.046 2.582-.046.695 0 1.984 0 2.605.046v-.691c-1.195 0-1.793 0-1.816-.715zm5.781-3.801h3.371v-.691h-3.371v-4.399h-.527c-.024 2.246-.883 4.539-3.059 4.613v.477h2.031v6.644c0 2.653 1.77 3.204 3.035 3.204 1.508 0 2.297-1.485 2.297-3.204v-1.363h-.527v1.317c0 1.718-.692 2.722-1.625 2.722-1.625 0-1.625-2.222-1.625-2.629zm14.238 4.062c.524 0 .574 0 .574-.453 0-2.414-1.293-4.66-4.183-4.66-2.723 0-4.828 2.461-4.828 5.426 0 3.152 2.437 5.473 5.089 5.473 2.844 0 3.922-2.582 3.922-3.086 0-.145-.121-.239-.265-.239-.192 0-.239.121-.285.239-.622 2.007-2.223 2.558-3.227 2.558s-3.418-.668-3.418-4.804v-.454zm-6.598-.453c.192-3.754 2.297-4.183 2.965-4.183 2.559 0 2.7 3.371 2.723 4.183zm11.836.43c0-2.316.957-4.492 2.793-4.492.196 0 .243 0 .336.023-.191.098-.574.239-.574.883 0 .695.551.957.934.957.476 0 .957-.312.957-.957 0-.715-.645-1.387-1.672-1.387-2.035 0-2.727 2.2-2.871 2.657h-.024v-2.657l-3.203.266v.691c1.625 0 1.821.168 1.821 1.34v6.477c0 1.074-.266 1.074-1.821 1.074v.691c.672-.046 1.985-.046 2.703-.046.645 0 2.34 0 2.891.046v-.691h-.477c-1.746 0-1.793-.262-1.793-1.121zm9.098 0c0-2.316.957-4.492 2.797-4.492.191 0 .238 0 .336.023-.192.098-.574.239-.574.883 0 .695.55.957.933.957.477 0 .953-.312.953-.957 0-.715-.644-1.387-1.671-1.387-2.032 0-2.723 2.2-2.868 2.657h-.023v-2.657l-3.203.266v.691c1.625 0 1.816.168 1.816 1.34v6.477c0 1.074-.262 1.074-1.816 1.074v.691c.668-.046 1.984-.046 2.699-.046.645 0 2.344 0 2.895.046v-.691h-.481c-1.742 0-1.793-.262-1.793-1.121zm12.375-4.707v.691c1.625 0 1.816.168 1.816 1.34v4.278c0 2.031-1.074 3.726-2.867 3.726-1.961 0-2.078-1.125-2.078-2.387v-7.914l-3.371.266v.691c1.816 0 1.816.075 1.816 2.2v3.586c0 1.48 0 2.339.719 3.128.574.622 1.555.911 2.77.911.41 0 1.172 0 1.984-.696.695-.547 1.074-1.457 1.074-1.457v2.153l3.325-.243v-.691c-1.625 0-1.817-.168-1.817-1.34v-8.508zm9.75.668h3.371v-.691h-3.371v-4.399h-.523c-.024 2.246-.887 4.539-3.063 4.613v.477h2.031v6.644c0 2.653 1.77 3.204 3.039 3.204 1.504 0 2.293-1.485 2.293-3.204v-1.363h-.527v1.317c0 1.718-.691 2.722-1.625 2.722-1.625 0-1.625-2.222-1.625-2.629zm9.102 0h3.367v-.691h-3.367v-4.399h-.528c-.023 2.246-.883 4.539-3.058 4.613v.477h2.031v6.644c0 2.653 1.769 3.204 3.035 3.204 1.508 0 2.293-1.485 2.293-3.204v-1.363h-.523v1.317c0 1.718-.696 2.722-1.625 2.722-1.625 0-1.625-2.222-1.625-2.629zm16.054 4.492c0-3.082-2.343-5.543-5.117-5.543-2.863 0-5.137 2.531-5.137 5.543 0 3.059 2.391 5.356 5.114 5.356 2.82 0 5.14-2.344 5.14-5.356m-5.117 4.828c-.883 0-1.957-.383-2.652-1.554-.645-1.075-.668-2.485-.668-3.489 0-.91 0-2.367.738-3.441a3.07 3.07 0 0 1 2.559-1.41c.933 0 1.937.429 2.582 1.363.742 1.098.742 2.605.742 3.488 0 .836 0 2.321-.621 3.442-.668 1.148-1.77 1.601-2.68 1.601m9.836-5.281c0-2.316.957-4.492 2.797-4.492.191 0 .238 0 .336.023-.192.098-.574.239-.574.883 0 .695.55.957.933.957.477 0 .953-.312.953-.957 0-.715-.644-1.387-1.671-1.387-2.032 0-2.723 2.2-2.868 2.657h-.023v-2.657l-3.203.266v.691c1.625 0 1.816.168 1.816 1.34v6.477c0 1.074-.262 1.074-1.816 1.074v.691c.668-.046 1.984-.046 2.699-.046.645 0 2.344 0 2.895.046v-.691h-.481c-1.742 0-1.793-.262-1.793-1.121zm14.266.023c.523 0 .574 0 .574-.453 0-2.414-1.293-4.66-4.184-4.66-2.726 0-4.828 2.461-4.828 5.426 0 3.152 2.438 5.473 5.09 5.473 2.844 0 3.922-2.582 3.922-3.086 0-.145-.121-.239-.266-.239-.191 0-.242.121-.285.239-.625 2.007-2.223 2.558-3.226 2.558s-3.418-.668-3.418-4.804v-.454zm-6.598-.453c.191-3.754 2.297-4.183 2.965-4.183 2.555 0 2.699 3.371 2.723 4.183zM20.836-356.906c0-.434 0-.551-.238-.551-.192 0-.645.523-.813.738-.738-.594-1.48-.738-2.246-.738-2.89 0-3.75 1.574-3.75 2.891 0 .261 0 1.097.906 1.933.766.672 1.578.84 2.68 1.055 1.313.262 1.625.332 2.219.812.43.36.742.883.742 1.551 0 1.027-.598 2.176-2.7 2.176-1.577 0-2.722-.906-3.25-3.297-.097-.43-.097-.453-.12-.477-.047-.097-.141-.097-.215-.097-.262 0-.262.121-.262.551v3.25c0 .429 0 .546.238.546.121 0 .145-.023.551-.527.117-.164.117-.211.477-.594.906 1.121 2.199 1.121 2.605 1.121 2.508 0 3.75-1.382 3.75-3.273 0-1.289-.785-2.055-1.004-2.269-.86-.739-1.504-.883-3.082-1.172-.715-.141-2.46-.477-2.46-1.911 0-.742.503-1.839 2.652-1.839 2.605 0 2.75 2.222 2.797 2.964.023.192.19.192.261.192.262 0 .262-.121.262-.551zm10.516 4.562c.527 0 .574 0 .574-.453 0-2.414-1.29-4.66-4.184-4.66-2.722 0-4.824 2.461-4.824 5.426 0 3.152 2.438 5.468 5.09 5.468 2.844 0 3.918-2.578 3.918-3.082 0-.144-.121-.238-.262-.238-.191 0-.242.121-.289.238-.621 2.008-2.219 2.555-3.227 2.555-1 0-3.414-.668-3.414-4.801v-.453zm-6.594-.453c.191-3.754 2.293-4.183 2.96-4.183 2.56 0 2.704 3.371 2.727 4.183zm36.695 9.938c-1.527 0-1.812 0-1.812-1.075v-4.156c.43.598 1.406 1.527 2.937 1.527 2.75 0 5.16-2.316 5.16-5.398 0-3.035-2.246-5.379-4.847-5.379-2.106 0-3.227 1.508-3.301 1.602v-1.602l-3.32.266v.691c1.671 0 1.816.168 1.816 1.219v11.23c0 1.075-.266 1.075-1.816 1.075v.695c.62-.051 1.91-.051 2.582-.051.691 0 1.98 0 2.601.051zm-1.812-11.563c0-.457 0-.48.261-.859.715-1.078 1.887-1.532 2.793-1.532 1.793 0 3.227 2.176 3.227 4.852 0 2.844-1.625 4.922-3.465 4.922a2.82 2.82 0 0 1-1.91-.766c-.55-.547-.906-1.027-.906-1.695zm20.629 2.508c0-3.082-2.344-5.543-5.114-5.543-2.867 0-5.14 2.531-5.14 5.543 0 3.059 2.39 5.351 5.117 5.351 2.816 0 5.136-2.339 5.136-5.351m-5.114 4.824c-.887 0-1.96-.379-2.656-1.551-.644-1.074-.668-2.484-.668-3.488 0-.91 0-2.367.742-3.441a3.06 3.06 0 0 1 2.559-1.41c.93 0 1.933.429 2.578 1.363.742 1.097.742 2.605.742 3.488 0 .836 0 2.316-.621 3.441-.668 1.149-1.77 1.598-2.676 1.598m9.837-5.277c0-2.321.953-4.492 2.793-4.492.192 0 .238 0 .336.023-.191.094-.574.238-.574.883 0 .695.55.957.934.957.476 0 .957-.313.957-.957 0-.715-.649-1.387-1.676-1.387-2.031 0-2.723 2.199-2.868 2.652h-.023v-2.652l-3.203.266v.691c1.625 0 1.816.168 1.816 1.34v6.473c0 1.078-.261 1.078-1.816 1.078v.691c.668-.047 1.984-.047 2.7-.047.648 0 2.343 0 2.894.047v-.691h-.48c-1.743 0-1.79-.266-1.79-1.125zm9.121-4.039h3.371v-.696h-3.37v-4.394h-.524c-.024 2.246-.887 4.539-3.059 4.613v.477h2.031v6.644c0 2.653 1.766 3.199 3.036 3.199 1.504 0 2.293-1.48 2.293-3.199v-1.363h-.528v1.312c0 1.723-.691 2.723-1.625 2.723-1.625 0-1.625-2.219-1.625-2.625zm14.309 3.226c0-1.289 0-2.246-1.051-3.179-.836-.762-1.91-1.098-2.961-1.098-1.961 0-3.465 1.289-3.465 2.844 0 .691.453 1.027 1.004 1.027.574 0 .981-.406.981-.98 0-.981-.864-.981-1.219-.981.547-1.004 1.695-1.433 2.648-1.433 1.102 0 2.512.91 2.512 3.058v.957c-4.805.07-6.617 2.078-6.617 3.918 0 1.891 2.195 2.484 3.652 2.484 1.578 0 2.657-.953 3.11-2.101.093 1.125.836 1.984 1.863 1.984.5 0 1.887-.336 1.887-2.246v-1.34h-.524v1.34c0 1.363-.574 1.555-.91 1.555-.91 0-.91-1.27-.91-1.625zm-1.551 3.012c0 2.34-1.742 3.129-2.773 3.129-1.168 0-2.149-.859-2.149-2.008 0-3.152 4.063-3.441 4.922-3.488zm20.481-5.473c-.289 0-1.172 0-1.172.977 0 .574.406.98.98.98.551 0 1.004-.332 1.004-1.027 0-1.602-1.672-2.746-3.609-2.746-2.797 0-5.02 2.484-5.02 5.496 0 3.059 2.293 5.398 4.996 5.398 3.157 0 3.871-2.867 3.871-3.082s-.168-.214-.238-.214c-.215 0-.242.07-.312.359-.524 1.695-1.817 2.41-3.106 2.41-1.457 0-3.394-1.262-3.394-4.894 0-3.969 2.031-4.95 3.226-4.95.906 0 2.223.36 2.774 1.293m11.781 3.036c0-2.223 0-2.891-.547-3.657-.695-.933-1.816-1.078-2.629-1.078-2.059 0-3.012 1.555-3.348 2.297h-.023v-8.34l-3.32.262v.691c1.625 0 1.816.168 1.816 1.34v12.52c0 1.078-.262 1.078-1.816 1.078v.691c.621-.047 1.91-.047 2.578-.047.695 0 1.984 0 2.605.047v-.691c-1.527 0-1.816 0-1.816-1.078v-4.442c0-2.511 1.648-3.847 3.133-3.847 1.48 0 1.816 1.218 1.816 2.675v5.614c0 1.078-.266 1.078-1.816 1.078v.691c.621-.047 1.91-.047 2.578-.047.695 0 1.984 0 2.605.047v-.691c-1.195 0-1.793 0-1.816-.719zm6.523-8.915c0-.621-.5-1.171-1.168-1.171a1.15 1.15 0 0 0-1.148 1.148c0 .715.574 1.172 1.148 1.172.739 0 1.168-.625 1.168-1.149m-3.297 4.446v.691c1.532 0 1.746.145 1.746 1.313v6.5c0 1.078-.261 1.078-1.816 1.078v.691c.668-.047 1.816-.047 2.508-.047.266 0 1.648 0 2.461.047v-.691c-1.551 0-1.649-.121-1.649-1.051v-8.797zm12.907 0v.691c1.625 0 1.816.168 1.816 1.34v4.277c0 2.032-1.078 3.727-2.867 3.727-1.961 0-2.082-1.125-2.082-2.391v-7.91l-3.367.266v.691c1.816 0 1.816.07 1.816 2.199v3.582c0 1.485 0 2.344.715 3.133.574.621 1.555.906 2.773.906.407 0 1.172 0 1.985-.691.691-.551 1.074-1.461 1.074-1.461v2.152l3.32-.238v-.691c-1.625 0-1.816-.168-1.816-1.34v-8.508zm13.574.168c0-.434 0-.551-.242-.551-.192 0-.645.523-.813.738-.738-.594-1.48-.738-2.246-.738-2.891 0-3.75 1.574-3.75 2.891 0 .261 0 1.097.906 1.933.766.672 1.578.84 2.676 1.055 1.317.262 1.625.332 2.223.812.429.36.742.883.742 1.551 0 1.027-.598 2.176-2.699 2.176-1.578 0-2.723-.906-3.25-3.297-.098-.43-.098-.453-.121-.477-.047-.097-.145-.097-.215-.097-.262 0-.262.121-.262.551v3.25c0 .429 0 .546.238.546.121 0 .145-.023.551-.527.117-.164.117-.211.477-.594.91 1.121 2.199 1.121 2.605 1.121 2.508 0 3.75-1.382 3.75-3.273 0-1.289-.789-2.055-1.004-2.269-.859-.739-1.504-.883-3.082-1.172-.715-.141-2.461-.477-2.461-1.911 0-.742.504-1.839 2.653-1.839 2.605 0 2.75 2.222 2.797 2.964.023.192.191.192.261.192.266 0 .266-.121.266-.551zm10.582 3.726c0-1.289 0-2.246-1.051-3.179-.836-.762-1.91-1.098-2.961-1.098-1.961 0-3.465 1.289-3.465 2.844 0 .691.453 1.027 1.004 1.027.574 0 .981-.406.981-.98 0-.981-.864-.981-1.219-.981.547-1.004 1.695-1.433 2.648-1.433 1.102 0 2.512.91 2.512 3.058v.957c-4.805.07-6.617 2.078-6.617 3.918 0 1.891 2.195 2.484 3.652 2.484 1.578 0 2.657-.953 3.11-2.101.093 1.125.836 1.984 1.863 1.984.5 0 1.887-.336 1.887-2.246v-1.34h-.524v1.34c0 1.363-.574 1.555-.91 1.555-.91 0-.91-1.27-.91-1.625zm-1.551 3.012c0 2.34-1.742 3.129-2.773 3.129-1.168 0-2.149-.859-2.149-2.008 0-3.152 4.063-3.441 4.922-3.488zm31.141-6.238h2.699v-.696h-2.746v-2.793c0-2.152 1.098-3.25 2.078-3.25.191 0 .547.047.836.192-.098.023-.695.238-.695.93 0 .55.382.933.933.933.574 0 .957-.383.957-.957 0-.883-.859-1.574-2.008-1.574-1.675 0-3.562 1.289-3.562 3.726v2.793h-1.863v.696h1.863v7.836c0 1.078-.262 1.078-1.816 1.078v.691c.671-.047 1.984-.047 2.703-.047.644 0 2.339 0 2.89.047v-.691h-.476c-1.746 0-1.793-.266-1.793-1.125zm12.312 3.226c0-1.289 0-2.246-1.051-3.179-.835-.762-1.914-1.098-2.964-1.098-1.957 0-3.465 1.289-3.465 2.844 0 .691.453 1.027 1.004 1.027.574 0 .98-.406.98-.98 0-.981-.859-.981-1.219-.981.551-1.004 1.696-1.433 2.653-1.433 1.097 0 2.508.91 2.508 3.058v.957c-4.801.07-6.618 2.078-6.618 3.918 0 1.891 2.2 2.484 3.657 2.484 1.574 0 2.652-.953 3.105-2.101.094 1.125.836 1.984 1.863 1.984.504 0 1.887-.336 1.887-2.246v-1.34h-.523v1.34c0 1.363-.575 1.555-.907 1.555-.91 0-.91-1.27-.91-1.625zm-1.554 3.012c0 2.34-1.743 3.129-2.774 3.129-1.168 0-2.148-.859-2.148-2.008 0-3.152 4.062-3.441 4.922-3.488zm8.187-11.352c0-.621-.5-1.171-1.168-1.171-.625 0-1.148.503-1.148 1.148 0 .715.574 1.172 1.148 1.172.738 0 1.168-.625 1.168-1.149m-3.297 4.446v.691c1.528 0 1.746.145 1.746 1.313v6.5c0 1.078-.265 1.078-1.816 1.078v.691c.668-.047 1.816-.047 2.508-.047.261 0 1.648 0 2.461.047v-.691c-1.551 0-1.649-.121-1.649-1.051v-8.797zm10.035 1.121c0-.645-.547-1.149-1.144-1.149-.696 0-1.172.551-1.172 1.149 0 .719.598 1.172 1.148 1.172.645 0 1.168-.5 1.168-1.172m0 7.984a1.16 1.16 0 0 0-1.144-1.148 1.15 1.15 0 0 0-1.172 1.148c0 .715.598 1.168 1.148 1.168.645 0 1.168-.5 1.168-1.168M16.992-433.086l-3.324.266v.691c1.625 0 1.816.168 1.816 1.336v14.293h.528a72 72 0 0 1 .86-1.555c.55.887 1.577 1.793 3.105 1.793 2.75 0 5.164-2.316 5.164-5.398 0-3.035-2.246-5.379-4.899-5.379-1.316 0-2.437.598-3.25 1.601zm.047 8.938c0-.43 0-.477.262-.86.574-.859 1.625-1.555 2.797-1.555.715 0 3.226.29 3.226 4.875 0 1.602-.238 2.606-.812 3.469-.48.739-1.434 1.481-2.63 1.481-1.288 0-2.128-.836-2.534-1.481-.309-.504-.309-.601-.309-1.008zm13.071-8.938-3.32.266v.691c1.624 0 1.816.168 1.816 1.336v12.523c0 1.075-.262 1.075-1.817 1.075v.695c.668-.047 1.84-.047 2.555-.047.718 0 1.914 0 2.582.047v-.695c-1.528 0-1.817 0-1.817-1.075zm13.359 11.473c0-3.082-2.344-5.543-5.114-5.543-2.867 0-5.136 2.531-5.136 5.543 0 3.058 2.386 5.351 5.113 5.351 2.816 0 5.137-2.34 5.137-5.351m-5.114 4.824c-.886 0-1.96-.379-2.652-1.551-.648-1.078-.672-2.484-.672-3.488 0-.91 0-2.367.742-3.442a3.06 3.06 0 0 1 2.559-1.41c.93 0 1.934.43 2.578 1.364.742 1.097.742 2.601.742 3.488 0 .836 0 2.316-.62 3.441-.669 1.145-1.77 1.598-2.676 1.598m15.194-8.555c-.284 0-1.171 0-1.171.981 0 .574.406.98.98.98.551 0 1.004-.336 1.004-1.027 0-1.602-1.672-2.746-3.61-2.746-2.792 0-5.019 2.484-5.019 5.496 0 3.058 2.297 5.398 4.996 5.398 3.157 0 3.872-2.867 3.872-3.082s-.168-.215-.239-.215c-.215 0-.238.071-.308.36-.528 1.695-1.82 2.41-3.11 2.41-1.457 0-3.39-1.266-3.39-4.899 0-3.964 2.03-4.945 3.222-4.945.91 0 2.223.36 2.774 1.289m10.399 0c-.286 0-1.169 0-1.169.981 0 .574.407.98.977.98.55 0 1.004-.336 1.004-1.027 0-1.602-1.672-2.746-3.606-2.746-2.797 0-5.02 2.484-5.02 5.496 0 3.058 2.294 5.398 4.997 5.398 3.152 0 3.867-2.867 3.867-3.082s-.164-.215-.238-.215c-.215 0-.239.071-.309.36-.527 1.695-1.816 2.41-3.11 2.41-1.456 0-3.39-1.266-3.39-4.899 0-3.964 2.031-4.945 3.227-4.945.906 0 2.222.36 2.77 1.289m12.718 3.731c0-3.082-2.34-5.543-5.113-5.543-2.868 0-5.137 2.531-5.137 5.543 0 3.058 2.387 5.351 5.113 5.351 2.82 0 5.137-2.34 5.137-5.351m-5.113 4.824c-.883 0-1.961-.379-2.653-1.551-.644-1.078-.668-2.484-.668-3.488 0-.91 0-2.367.739-3.442a3.07 3.07 0 0 1 2.558-1.41c.93 0 1.938.43 2.578 1.364.743 1.097.743 2.601.743 3.488 0 .836 0 2.316-.621 3.441-.668 1.145-1.77 1.598-2.676 1.598m22.273-15.266c0-.457 0-.574-.336-.574-.191 0-.261 0-.453.285l-7.195 11.16v.692h6.285v2.176c0 .886-.047 1.121-1.793 1.121h-.477v.695c.551-.047 2.438-.047 3.11-.047.668 0 2.578 0 3.129.047v-.695h-.48c-1.72 0-1.79-.235-1.79-1.121v-2.176h2.414v-.692h-2.414zm-1.578 1.864v9.007h-5.809zM349.141-12.187c.5 0 .957 0 .957-.883 0-2.797-1.578-5.043-4.567-5.043-2.769 0-4.992 2.386-4.992 5.304a5.327 5.327 0 0 0 5.352 5.352c3.082 0 4.207-2.125 4.207-2.746 0-.145-.051-.672-.789-.672-.454 0-.598.168-.743.527-.597 1.387-2.148 1.504-2.601 1.504-1.985 0-3.563-1.504-3.824-3.344zm-6.977-1.317c.309-2.031 1.863-3.223 3.367-3.223 2.391 0 2.891 2.032 2.989 3.223zm19.324-1.098c0-2.343-1.097-3.441-3.058-3.441-1.625 0-2.676.91-3.082 1.363 0-.886 0-1.218-.957-1.218h-1.578c-.333 0-.954 0-.954.691s.621.691.954.691h.98v7.532h-.98c-.333 0-.954 0-.954.691s.621.691.954.691h3.515c.332 0 .953 0 .953-.691s-.621-.691-.953-.691h-.98v-4.328c0-2.317 1.625-3.344 2.914-3.344 1.386 0 1.676.789 1.676 2.148v5.524h-.981c-.336 0-.957 0-.957.691s.621.691.957.691h3.512c.336 0 .957 0 .957-.691s-.621-.691-.957-.691h-.981zm12.301-6.621c0-.738-.144-.98-.957-.98h-1.574c-.336 0-.957 0-.957.695 0 .692.621.692.957.692h.976v3.968c-.382-.383-1.363-1.195-2.82-1.195-2.531 0-4.73 2.293-4.73 5.305 0 2.941 2.054 5.281 4.515 5.281 1.555 0 2.582-.934 3.035-1.457 0 1.004 0 1.312.957 1.312h1.579c.332 0 .957 0 .957-.691s-.625-.691-.957-.691h-.981zm-1.555 9.082c0 1.34-1.097 3.297-2.89 3.297-1.723 0-3.106-1.742-3.106-3.894 0-2.293 1.625-3.918 3.321-3.918 1.554 0 2.675 1.41 2.675 2.652zm23.383-9.007c0-.598-.476-1.079-1.074-1.079s-1.078.48-1.078 1.079c0 .597.48 1.074 1.078 1.074s1.074-.477 1.074-1.074m-4.109 3.25c-.336 0-.957 0-.957.691s.621.691.957.691h2.555v7.532h-2.723c-.336 0-.981 0-.981.691s.645.691.981.691h6.644c.332 0 .954 0 .954-.691s-.622-.691-.954-.691h-2.367v-7.938c0-.738-.144-.976-.957-.976zm15.094 1.382h2.89c.336 0 .957 0 .957-.691s-.621-.691-.957-.691h-2.89v-1.196c0-1.863 1.671-1.863 2.437-1.863 0 .047.191.93.981.93.382 0 .933-.285.933-.957 0-1.36-1.816-1.36-2.176-1.36-1.816 0-3.73 1.028-3.73 3.153v1.293h-2.363c-.336 0-.981 0-.981.691s.621.691.957.691h2.387v7.532h-2.266c-.336 0-.957 0-.957.691s.621.691.957.691h6.09c.336 0 .957 0 .957-.691s-.621-.691-.957-.691h-2.269zm-8.309-25.171c0-1.817-1.363-3.727-4.59-3.727-1 0-3.32 0-3.32 1.648 0 .645.457 1.004.98 1.004.145 0 .934-.047.957-1.05 0-.122.024-.145.524-.192.289-.023.597-.023.886-.023.547 0 1.36 0 2.149.597.863.668.863 1.336.863 2.032-1.414.046-2.797.14-4.277.62-1.199.407-2.727 1.266-2.727 2.891 0 1.696 1.504 3.13 3.727 3.13.765 0 2.25-.118 3.488-.977.481.785 1.676.836 2.582.836.574 0 1.149 0 1.149-.696 0-.691-.621-.691-.957-.691-.622 0-1.098-.05-1.434-.192zm-1.551 3.632c0 .551 0 1.051-.98 1.508-.84.406-1.961.406-2.032.406-1.41 0-2.437-.765-2.437-1.746 0-1.41 2.555-2.222 5.449-2.222zm14.09-5.757h.621c.336 0 .981 0 .981-.696 0-.691-.645-.691-.981-.691h-2.629c-.332 0-.98 0-.98.691 0 .696.648.696.98.696h.598l-2.578 7.695-2.582-7.696h.597c.332 0 .981 0 .981-.695 0-.691-.649-.691-.981-.691h-2.629c-.335 0-.98 0-.98.691 0 .696.645.696.98.696h.622l2.746 8.218c.261.813.789.813 1.246.813.453 0 .976 0 1.242-.813zm12.063 2.125c0-1.817-1.364-3.727-4.59-3.727-1.004 0-3.321 0-3.321 1.648 0 .645.454 1.004.981 1.004.14 0 .93-.047.953-1.05 0-.122.023-.145.527-.192.285-.023.598-.023.883-.023.551 0 1.363 0 2.152.597.86.668.86 1.336.86 2.032-1.41.046-2.797.14-4.277.62-1.196.407-2.723 1.266-2.723 2.891 0 1.696 1.504 3.13 3.726 3.13.766 0 2.247-.118 3.489-.977.476.785 1.672.836 2.582.836.574 0 1.144 0 1.144-.696 0-.691-.621-.691-.953-.691-.621 0-1.101-.05-1.433-.192zm-1.555 3.632c0 .551 0 1.051-.981 1.508-.836.406-1.961.406-2.031.406-1.41 0-2.437-.765-2.437-1.746 0-1.41 2.558-2.222 5.449-2.222zm13.949-3.847c0-2.34-1.101-3.442-3.059-3.442a4.18 4.18 0 0 0-3.082 1.364c0-.887 0-1.22-.957-1.22h-1.578c-.332 0-.957 0-.957.692 0 .696.625.696.957.696h.981v7.527h-.981c-.332 0-.957 0-.957.691 0 .696.625.696.957.696h3.516c.332 0 .953 0 .953-.696 0-.691-.621-.691-.953-.691h-.981v-4.324c0-2.32 1.625-3.348 2.915-3.348 1.386 0 1.671.789 1.671 2.152v5.52h-.976c-.336 0-.957 0-.957.691 0 .696.621.696.957.696h3.512c.332 0 .957 0 .957-.696 0-.691-.625-.691-.957-.691h-.981zm12.992-1.719c.289-.266.383-.36.383-.79 0-.788-.523-.788-.98-.788h-7.957c-.789 0-.981.191-.981.98v.953c0 .43 0 .98.766.98.789 0 .789-.523.789-.98v-.547h6.047l-7.602 7.336c-.285.262-.383.36-.383.79 0 .789.528.789.981.789h8.437c.789 0 .953-.22.953-.98v-1.22c0-.43 0-.98-.761-.98-.789 0-.789.523-.789.98v.813h-6.5zm11.512 1.934c0-1.817-1.363-3.727-4.59-3.727-1 0-3.32 0-3.32 1.648 0 .645.457 1.004.98 1.004.145 0 .934-.047.957-1.05 0-.122.024-.145.524-.192.289-.023.597-.023.886-.023.547 0 1.36 0 2.149.597.863.668.863 1.336.863 2.032-1.414.046-2.797.14-4.277.62-1.199.407-2.727 1.266-2.727 2.891 0 1.696 1.504 3.13 3.727 3.13.765 0 2.25-.118 3.488-.977.481.785 1.676.836 2.582.836.574 0 1.149 0 1.149-.696 0-.691-.621-.691-.957-.691-.622 0-1.098-.05-1.434-.192zm-1.551 3.632c0 .551 0 1.051-.98 1.508-.84.406-1.961.406-2.032.406-1.41 0-2.437-.765-2.437-1.746 0-1.41 2.555-2.222 5.449-2.222zm14.188 4.515c0-.308-.168-.405-.504-.644-3.297-2.27-4.11-5.687-4.11-8.004 0-2.273.762-5.71 4.11-8.03.336-.239.504-.333.504-.645 0-.239-.121-.621-.696-.621-.597 0-2.367 1.386-3.464 2.937-1.34 1.867-2.008 4.086-2.008 6.36 0 2.652.957 4.874 1.961 6.285 1.097 1.527 2.843 2.984 3.511 2.984.575 0 .696-.406.696-.621m10.289-8.648c0-1.868-.453-4.278-2.172-6.598-.813-1.098-2.582-2.7-3.301-2.7-.547 0-.691.407-.691.622 0 .285.168.406.597.691 2.914 2.055 4.016 5.258 4.016 7.961 0 2.148-.695 5.664-4.113 8.027-.309.215-.5.336-.5.645 0 .215.144.621.691.621.598 0 2.367-1.387 3.469-2.937a11 11 0 0 0 2.004-6.333m-89.492-15.308c.336 0 .957 0 .957-.691 0-.696-.621-.696-.957-.696h-.981v-5.113c.574.644 1.457 1.34 2.797 1.34 2.535 0 4.754-2.27 4.754-5.305 0-2.941-2.008-5.281-4.492-5.281a4.3 4.3 0 0 0-3.059 1.289c0-.79 0-1.149-.953-1.149h-1.578c-.336 0-.957 0-.957.696 0 .691.621.691.957.691h.98v12.832h-.98c-.336 0-.957 0-.957.696 0 .69.621.69.957.69zm-.981-11.66c0-1.363 1.34-2.7 2.895-2.7 1.718 0 3.105 1.743 3.105 3.895 0 2.293-1.625 3.918-3.324 3.918-1.789 0-2.676-2.031-2.676-3.226zm13.613 1.84c0-2.844 2.008-4.54 4.039-4.54.122 0 .266 0 .383.024.074.86.742.93.91.93.551 0 .93-.407.93-.93 0-1.027-1.004-1.41-2.199-1.41-1.598 0-2.961.715-4.063 2.055v-.934c0-.738-.14-.98-.953-.98h-2.414c-.336 0-.957 0-.957.695 0 .691.621.691.957.691h1.817v7.528h-1.817c-.336 0-.957 0-.957.695 0 .691.621.691.957.691h5.879c.332 0 .957 0 .957-.691 0-.696-.625-.696-.957-.696h-2.512zm17.082-.071c.5 0 .957 0 .957-.886 0-2.797-1.578-5.04-4.566-5.04-2.769 0-4.992 2.387-4.992 5.305a5.33 5.33 0 0 0 5.351 5.352c3.082 0 4.207-2.125 4.207-2.75 0-.14-.05-.668-.789-.668-.453 0-.597.168-.742.527-.597 1.383-2.148 1.504-2.605 1.504-1.981 0-3.559-1.504-3.824-3.344zm-6.976-1.316c.308-2.031 1.863-3.227 3.367-3.227 2.391 0 2.891 2.032 2.988 3.227zm20.16-1.337c0-.526 0-3.202-2.102-3.202-.835 0-1.652.383-2.296 1.265-.141-.359-.668-1.265-1.813-1.265-1.078 0-1.82.691-2.008.906-.023-.766-.527-.766-.957-.766h-.719c-.332 0-.953 0-.953.696 0 .691.547.691 1.289.691v7.528c-.765 0-1.289 0-1.289.695 0 .691.621.691.953.691h2.008c.336 0 .957 0 .957-.691 0-.696-.55-.696-1.289-.696v-4.394c0-2.008.86-3.274 1.91-3.274.668 0 .86.837.86 1.958v5.71c-.406 0-1.051 0-1.051.696 0 .691.645.691.98.691h1.747c.332 0 .953 0 .953-.691 0-.696-.547-.696-1.289-.696v-4.394c0-2.008.859-3.274 1.91-3.274.668 0 .863.837.863 1.958v5.71c-.406 0-1.055 0-1.055.696 0 .691.649.691.981.691h1.746c.332 0 .957 0 .957-.691 0-.696-.551-.696-1.293-.696zm8.691-6.312a1.07 1.07 0 0 0-1.074-1.074c-.597 0-1.074.48-1.074 1.074a1.07 1.07 0 0 0 1.074 1.079 1.07 1.07 0 0 0 1.074-1.079m-4.109 3.25c-.336 0-.957 0-.957.696 0 .691.621.691.957.691h2.559v7.528h-2.727c-.336 0-.98 0-.98.695 0 .691.644.691.98.691h6.645c.332 0 .957 0 .957-.691 0-.696-.625-.696-.957-.696h-2.368v-7.933c0-.738-.144-.98-.957-.98z"/><path fill="none" stroke="#000" stroke-width=".796" d="M451.383-63.176h7.383"/><path d="M466.016-76.352c0-.593-.477-1.074-1.075-1.074-.597 0-1.074.48-1.074 1.074a1.07 1.07 0 0 0 1.074 1.079 1.07 1.07 0 0 0 1.075-1.079m-4.11 3.25c-.336 0-.957 0-.957.696 0 .691.621.691.957.691h2.559v7.528h-2.727c-.332 0-.98 0-.98.695 0 .691.648.691.98.691h6.645c.336 0 .957 0 .957-.691 0-.696-.621-.696-.957-.696h-2.367v-7.933c0-.738-.145-.98-.953-.98zM481.09-69.8c0-2.344-1.102-3.442-3.059-3.442a4.2 4.2 0 0 0-3.086 1.36c0-.884 0-1.22-.953-1.22h-1.578c-.336 0-.957 0-.957.696 0 .691.621.691.957.691h.981v7.528h-.981c-.336 0-.957 0-.957.695 0 .691.621.691.957.691h3.512c.336 0 .957 0 .957-.691 0-.696-.621-.696-.957-.696h-.981v-4.324c0-2.316 1.625-3.344 2.918-3.344 1.383 0 1.672.786 1.672 2.149v5.52h-.98c-.332 0-.953 0-.953.695 0 .691.621.691.953.691h3.515c.332 0 .953 0 .953-.691 0-.696-.621-.696-.953-.696h-.98zm7.473-1.915h3.871c.332 0 .957 0 .957-.691 0-.696-.625-.696-.957-.696h-3.871v-1.957c0-.43 0-.98-.766-.98-.789 0-.789.55-.789.98v1.957h-2.031c-.336 0-.981 0-.981.696 0 .691.621.691.957.691h2.055v6.024c0 2.222 1.531 3.035 3.25 3.035 1.289 0 3.656-.645 3.656-3.082 0-.48 0-1.004-.785-1.004-.77 0-.77.523-.77 1.027-.019 1.434-1.382 1.672-1.933 1.672-1.863 0-1.863-1.195-1.863-1.77zm17.078 4.328c.5 0 .957 0 .957-.886 0-2.797-1.578-5.04-4.567-5.04-2.769 0-4.992 2.387-4.992 5.305a5.33 5.33 0 0 0 5.352 5.352c3.082 0 4.207-2.125 4.207-2.75 0-.14-.051-.668-.789-.668-.454 0-.598.168-.743.527-.597 1.383-2.148 1.504-2.601 1.504-1.985 0-3.563-1.504-3.824-3.344zm-6.977-1.316c.309-2.031 1.863-3.227 3.367-3.227 2.391 0 2.891 2.032 2.989 3.227zm14.496 1.387c0-2.844 2.008-4.54 4.039-4.54.121 0 .266 0 .383.024.074.86.742.93.91.93.551 0 .93-.407.93-.93 0-1.027-1.004-1.41-2.199-1.41-1.602 0-2.961.715-4.063 2.055v-.934c0-.738-.14-.98-.953-.98h-2.414c-.336 0-.957 0-.957.695 0 .691.621.691.957.691h1.816v7.528h-1.816c-.336 0-.957 0-.957.695 0 .691.621.691.957.691h5.879c.332 0 .957 0 .957-.691 0-.696-.625-.696-.957-.696h-2.512zm12.301 0c0-2.844 2.008-4.54 4.039-4.54.121 0 .262 0 .383.024.07.86.738.93.91.93.547 0 .93-.407.93-.93 0-1.027-1.004-1.41-2.2-1.41-1.601 0-2.96.715-4.062 2.055v-.934c0-.738-.141-.98-.953-.98h-2.414c-.336 0-.957 0-.957.695 0 .691.621.691.957.691h1.812v7.528h-1.812c-.336 0-.957 0-.957.695 0 .691.621.691.957.691h5.875c.336 0 .957 0 .957-.691 0-.696-.621-.696-.957-.696h-2.508zm17.129-4.805c0-.738-.145-.98-.957-.98h-1.578c-.332 0-.953 0-.953.695 0 .691.621.691.953.691h.98v5.188c0 1.957-1.625 2.484-2.699 2.484-1.891 0-1.891-.86-1.891-1.601v-6.477c0-.738-.14-.98-.953-.98h-1.578c-.336 0-.957 0-.957.695 0 .691.621.691.957.691h.981v6.192c0 2.199 1.433 2.867 3.273 2.867 1.457 0 2.367-.598 2.844-1.004 0 .86.574.86.98.86h1.578c.332 0 .953 0 .953-.692 0-.696-.621-.696-.953-.696h-.98zm7.473.406h3.871c.332 0 .957 0 .957-.691 0-.696-.625-.696-.957-.696h-3.871v-1.957c0-.43 0-.98-.766-.98-.789 0-.789.55-.789.98v1.957h-2.031c-.336 0-.981 0-.981.696 0 .691.621.691.957.691h2.055v6.024c0 2.222 1.531 3.035 3.25 3.035 1.289 0 3.656-.645 3.656-3.082 0-.48 0-1.004-.785-1.004-.77 0-.77.523-.77 1.027-.019 1.434-1.382 1.672-1.933 1.672-1.863 0-1.863-1.195-1.863-1.77zm12.296 0h3.875c.332 0 .954 0 .954-.691 0-.696-.622-.696-.954-.696h-3.875v-1.957c0-.43 0-.98-.761-.98-.789 0-.789.55-.789.98v1.957h-2.032c-.336 0-.98 0-.98.696 0 .691.621.691.957.691h2.055v6.024c0 2.222 1.531 3.035 3.25 3.035 1.289 0 3.656-.645 3.656-3.082 0-.48 0-1.004-.789-1.004-.766 0-.766.523-.766 1.027-.023 1.434-1.387 1.672-1.933 1.672-1.868 0-1.868-1.195-1.868-1.77zm18.039 3.755c0-2.99-2.175-5.353-4.757-5.353-2.578 0-4.754 2.364-4.754 5.352 0 3.012 2.199 5.305 4.754 5.305 2.558 0 4.757-2.293 4.757-5.305m-4.757 3.917c-1.719 0-3.203-1.816-3.203-4.086 0-2.223 1.531-3.8 3.203-3.8s3.203 1.577 3.203 3.8c0 2.293-1.481 4.086-3.203 4.086m11.32-3.272c0-2.844 2.008-4.54 4.039-4.54.121 0 .262 0 .383.024.07.86.738.93.91.93.547 0 .93-.407.93-.93 0-1.027-1.004-1.41-2.2-1.41-1.601 0-2.96.715-4.062 2.055v-.934c0-.738-.141-.98-.953-.98h-2.414c-.336 0-.957 0-.957.695 0 .691.621.691.957.691h1.812v7.528h-1.812c-.336 0-.957 0-.957.695 0 .691.621.691.957.691h5.875c.336 0 .957 0 .957-.691 0-.696-.621-.696-.957-.696h-2.508zm17.082-.071c.5 0 .953 0 .953-.886 0-2.797-1.574-5.04-4.562-5.04-2.774 0-4.996 2.387-4.996 5.305a5.33 5.33 0 0 0 5.355 5.352c3.078 0 4.203-2.125 4.203-2.75 0-.14-.047-.668-.789-.668-.453 0-.598.168-.738.527-.598 1.383-2.153 1.504-2.606 1.504-1.984 0-3.562-1.504-3.824-3.344zm-6.98-1.316c.308-2.031 1.863-3.227 3.371-3.227 2.386 0 2.89 2.032 2.988 3.227zm19.566 7.266c0-.313-.168-.407-.5-.645-3.301-2.27-4.113-5.687-4.113-8.008 0-2.27.765-5.71 4.113-8.027.332-.239.5-.336.5-.645 0-.238-.121-.62-.695-.62-.594 0-2.364 1.382-3.465 2.937-1.336 1.863-2.004 4.086-2.004 6.355 0 2.653.953 4.875 1.957 6.285 1.101 1.532 2.844 2.989 3.512 2.989.574 0 .695-.407.695-.621m10.293-8.653c0-1.863-.453-4.277-2.176-6.594-.812-1.097-2.578-2.699-3.297-2.699-.551 0-.695.406-.695.621 0 .285.168.406.598.692 2.914 2.054 4.015 5.257 4.015 7.957 0 2.152-.695 5.664-4.109 8.031-.313.215-.504.332-.504.645 0 .214.144.62.695.62.598 0 2.364-1.386 3.465-2.94a11 11 0 0 0 2.008-6.333M398.293-96.785c0-1.817-1.363-3.731-4.59-3.731-1 0-3.32 0-3.32 1.649 0 .648.457 1.004.98 1.004.145 0 .934-.047.957-1.051 0-.117.024-.14.524-.192.289-.023.597-.023.886-.023.547 0 1.36 0 2.149.598.863.668.863 1.34.863 2.031-1.414.047-2.797.144-4.277.621-1.199.406-2.727 1.266-2.727 2.89 0 1.7 1.504 3.133 3.727 3.133.765 0 2.25-.12 3.488-.98.481.79 1.676.836 2.582.836.574 0 1.149 0 1.149-.695 0-.692-.621-.692-.957-.692-.622 0-1.098-.047-1.434-.191zm-1.551 3.629c0 .55 0 1.054-.98 1.508-.84.406-1.961.406-2.032.406-1.41 0-2.437-.766-2.437-1.746 0-1.41 2.555-2.223 5.449-2.223zm9.117-1.36c0-2.843 2.008-4.539 4.039-4.539.122 0 .266 0 .383.024.074.86.742.93.91.93.551 0 .93-.407.93-.93 0-1.032-1.004-1.41-2.199-1.41-1.598 0-2.961.714-4.063 2.054v-.933c0-.743-.14-.981-.953-.981h-2.414c-.336 0-.957 0-.957.695 0 .692.621.692.957.692h1.817v7.527h-1.817c-.336 0-.957 0-.957.692 0 .695.621.695.957.695h5.879c.332 0 .957 0 .957-.695 0-.692-.625-.692-.957-.692h-2.512zm12.301 0c0-2.843 2.008-4.539 4.039-4.539.121 0 .266 0 .383.024.074.86.742.93.91.93.551 0 .93-.407.93-.93 0-1.032-1.004-1.41-2.199-1.41-1.602 0-2.961.714-4.063 2.054v-.933c0-.743-.14-.981-.953-.981h-2.414c-.336 0-.957 0-.957.695 0 .692.621.692.957.692h1.816v7.527h-1.816c-.336 0-.957 0-.957.692 0 .695.621.695.957.695h5.879c.332 0 .957 0 .957-.695 0-.692-.625-.692-.957-.692h-2.512zm17.082-.07c.5 0 .953 0 .953-.887 0-2.796-1.574-5.043-4.562-5.043-2.774 0-4.996 2.391-4.996 5.305a5.33 5.33 0 0 0 5.355 5.355c3.082 0 4.203-2.128 4.203-2.75 0-.144-.047-.667-.789-.667-.453 0-.593.167-.738.523-.598 1.387-2.152 1.508-2.605 1.508-1.985 0-3.559-1.508-3.825-3.344zm-6.98-1.316c.312-2.032 1.867-3.227 3.371-3.227 2.39 0 2.89 2.031 2.988 3.227zm14.5-3.012h3.871c.336 0 .957 0 .957-.692 0-.695-.621-.695-.957-.695h-3.871v-1.957c0-.43 0-.98-.766-.98-.789 0-.789.55-.789.98v1.957h-2.031c-.332 0-.981 0-.981.695 0 .692.625.692.957.692h2.055v6.023c0 2.223 1.531 3.035 3.25 3.035 1.289 0 3.656-.644 3.656-3.082 0-.48 0-1.003-.785-1.003-.765 0-.765.523-.765 1.027-.024 1.433-1.387 1.672-1.938 1.672-1.863 0-1.863-1.195-1.863-1.77zm12.301 4.398c0-2.843 2.007-4.539 4.039-4.539.117 0 .261 0 .382.024.071.86.739.93.907.93.55 0 .929-.407.929-.93 0-1.032-1-1.41-2.199-1.41-1.598 0-2.961.714-4.058 2.054v-.933c0-.743-.145-.981-.958-.981h-2.414c-.332 0-.957 0-.957.695 0 .692.625.692.957.692h1.817v7.527h-1.817c-.332 0-.957 0-.957.692 0 .695.625.695.957.695h5.879c.336 0 .957 0 .957-.695 0-.692-.621-.692-.957-.692h-2.507zm17.031-2.269c0-1.817-1.364-3.731-4.59-3.731-1 0-3.32 0-3.32 1.649 0 .648.453 1.004.98 1.004.141 0 .93-.047.953-1.051 0-.117.024-.14.528-.192.285-.023.597-.023.886-.023.547 0 1.36 0 2.149.598.863.668.863 1.34.863 2.031-1.414.047-2.801.144-4.281.621-1.196.406-2.723 1.266-2.723 2.89 0 1.7 1.504 3.133 3.727 3.133.765 0 2.246-.12 3.488-.98.48.79 1.676.836 2.582.836.574 0 1.148 0 1.148-.695 0-.692-.625-.692-.957-.692-.621 0-1.097-.047-1.433-.191zm-1.551 3.629c0 .55 0 1.054-.98 1.508-.84.406-1.961.406-2.032.406-1.414 0-2.437-.766-2.437-1.746 0-1.41 2.554-2.223 5.449-2.223zm14.184 4.519c0-.312-.164-.406-.5-.644-3.297-2.274-4.11-5.688-4.11-8.008 0-2.27.762-5.711 4.11-8.027.336-.239.5-.336.5-.649 0-.238-.118-.621-.692-.621-.597 0-2.367 1.387-3.465 2.941-1.34 1.864-2.007 4.086-2.007 6.356 0 2.652.957 4.875 1.96 6.285 1.098 1.527 2.844 2.988 3.512 2.988.574 0 .692-.406.692-.62m10.293-8.654c0-1.862-.454-4.276-2.176-6.593-.813-1.101-2.578-2.703-3.297-2.703-.551 0-.692.406-.692.621 0 .289.168.41.598.695 2.914 2.055 4.016 5.258 4.016 7.957 0 2.153-.696 5.665-4.114 8.032-.308.21-.5.332-.5.644 0 .215.141.621.692.621.598 0 2.367-1.386 3.465-2.941a10.96 10.96 0 0 0 2.008-6.332M346.418-130.75a1.07 1.07 0 0 0-1.074-1.074c-.602 0-1.078.476-1.078 1.074s.476 1.078 1.078 1.078c.594 0 1.074-.48 1.074-1.078m-4.113 3.25c-.332 0-.953 0-.953.695 0 .692.621.692.953.692h2.558v7.527h-2.722c-.336 0-.981 0-.981.691 0 .696.645.696.981.696h6.64c.336 0 .957 0 .957-.696 0-.691-.621-.691-.957-.691h-2.363v-7.934c0-.742-.145-.98-.957-.98zm15.097 1.387h2.891c.336 0 .957 0 .957-.692 0-.695-.621-.695-.957-.695h-2.891v-1.195c0-1.864 1.672-1.864 2.438-1.864 0 .047.191.93.98.93.383 0 .934-.285.934-.953 0-1.363-1.816-1.363-2.176-1.363-1.816 0-3.73 1.027-3.73 3.156v1.289h-2.364c-.336 0-.98 0-.98.695 0 .692.621.692.957.692h2.387v7.527h-2.27c-.336 0-.957 0-.957.691 0 .696.621.696.957.696h6.094c.336 0 .957 0 .957-.696 0-.691-.621-.691-.957-.691h-2.27zm28.688 1.91c0-2.34-1.102-3.438-3.059-3.438a4.2 4.2 0 0 0-3.086 1.36c0-.883 0-1.219-.953-1.219h-1.578c-.336 0-.957 0-.957.695 0 .692.621.692.957.692h.981v7.527h-.981c-.336 0-.957 0-.957.691 0 .696.621.696.957.696h3.512c.336 0 .957 0 .957-.696 0-.691-.621-.691-.957-.691h-.981v-4.324c0-2.32 1.625-3.348 2.918-3.348 1.383 0 1.672.789 1.672 2.153v5.519h-.98c-.332 0-.953 0-.953.691 0 .696.621.696.953.696h3.515c.332 0 .953 0 .953-.696 0-.691-.621-.691-.953-.691h-.98zm13.207 1.844c0-2.989-2.176-5.356-4.754-5.356-2.582 0-4.758 2.367-4.758 5.356 0 3.007 2.199 5.304 4.758 5.304 2.555 0 4.754-2.297 4.754-5.304m-4.754 3.918c-1.723 0-3.203-1.817-3.203-4.09 0-2.223 1.527-3.797 3.203-3.797 1.672 0 3.199 1.574 3.199 3.797 0 2.297-1.48 4.09-3.199 4.09m11.316-7.672h3.875c.332 0 .954 0 .954-.692 0-.695-.622-.695-.954-.695h-3.875v-1.961c0-.43 0-.977-.761-.977-.789 0-.789.547-.789.977v1.961h-2.032c-.336 0-.98 0-.98.695 0 .692.621.692.957.692h2.055v6.019c0 2.227 1.531 3.039 3.25 3.039 1.289 0 3.656-.648 3.656-3.086 0-.476 0-1-.789-1-.766 0-.766.524-.766 1.024-.023 1.437-1.387 1.676-1.933 1.676-1.868 0-1.868-1.196-1.868-1.77zm26.371-4.707c0-.743-.144-.981-.957-.981h-3.511c-.336 0-.957 0-.957.692 0 .695.621.695.957.695h2.914v11.828h-2.914c-.336 0-.957 0-.957.691 0 .696.621.696.957.696h7.383c.335 0 .957 0 .957-.696 0-.691-.622-.691-.957-.691h-2.915zm15.36 4.3c0-.742-.145-.98-.957-.98h-1.578c-.332 0-.953 0-.953.695 0 .692.621.692.953.692h.98v5.183c0 1.961-1.625 2.489-2.699 2.489-1.891 0-1.891-.864-1.891-1.602v-6.477c0-.742-.14-.98-.953-.98h-1.578c-.336 0-.957 0-.957.695 0 .692.621.692.957.692h.981v6.187c0 2.199 1.433 2.871 3.273 2.871 1.457 0 2.367-.601 2.844-1.008 0 .864.574.864.98.864h1.578c.332 0 .953 0 .953-.696 0-.691-.621-.691-.953-.691h-.98zm13.207 6.715c0-.621-.598-.621-.789-.621-.547 0-.645.192-.766.528-.523 1.312-1.695 1.457-2.269 1.457-2.032 0-3.75-1.7-3.75-3.918 0-1.219.691-3.969 3.824-3.969.644 0 1.144.047 1.359.07.168.047.192.07.192.192.074.98.812 1.003.957 1.003.523 0 .98-.359.98-1.003 0-1.649-2.414-1.649-3.465-1.649-4.086 0-5.402 3.348-5.402 5.356 0 2.914 2.223 5.304 5.09 5.304 3.203 0 4.039-2.367 4.039-2.75m11.344-1.984c.5 0 .957 0 .957-.883 0-2.797-1.578-5.043-4.567-5.043-2.769 0-4.992 2.391-4.992 5.305a5.33 5.33 0 0 0 5.352 5.355c3.082 0 4.207-2.129 4.207-2.75 0-.144-.051-.668-.789-.668-.454 0-.598.168-.743.524-.597 1.386-2.148 1.508-2.601 1.508-1.985 0-3.563-1.508-3.824-3.348zm-6.977-1.313c.309-2.031 1.863-3.226 3.367-3.226 2.391 0 2.891 2.031 2.989 3.226z"/><path fill="none" stroke="#000" stroke-width=".796" d="M475.988-117.648h7.383"/><path d="M493.293-123.984c0-1.821-1.363-3.731-4.59-3.731-1 0-3.32 0-3.32 1.649 0 .644.457 1.003.98 1.003.145 0 .934-.046.957-1.05 0-.121.024-.145.524-.192.289-.023.597-.023.886-.023.547 0 1.36 0 2.149.598.863.667.863 1.339.863 2.031-1.414.047-2.797.144-4.277.621-1.199.406-2.727 1.265-2.727 2.89 0 1.696 1.504 3.133 3.727 3.133.765 0 2.25-.121 3.488-.98.481.789 1.676.836 2.582.836.574 0 1.149 0 1.149-.696 0-.691-.621-.691-.957-.691-.622 0-1.098-.047-1.434-.191zm-1.551 3.629c0 .55 0 1.05-.98 1.507-.84.407-1.961.407-2.032.407-1.41 0-2.437-.766-2.437-1.747 0-1.41 2.555-2.222 5.449-2.222zm14.856.55c0-.621-.598-.621-.789-.621-.551 0-.645.192-.766.528-.527 1.312-1.695 1.457-2.27 1.457-2.031 0-3.75-1.7-3.75-3.918 0-1.219.692-3.969 3.821-3.969.648 0 1.148.047 1.363.07.168.047.191.07.191.192.071.98.813 1.003.957 1.003.524 0 .981-.359.981-1.003 0-1.649-2.414-1.649-3.469-1.649-4.086 0-5.398 3.348-5.398 5.356 0 2.914 2.222 5.304 5.09 5.304 3.203 0 4.039-2.367 4.039-2.75m12.3 0c0-.621-.597-.621-.789-.621-.55 0-.644.192-.765.528-.528 1.312-1.696 1.457-2.27 1.457-2.031 0-3.754-1.7-3.754-3.918 0-1.219.696-3.969 3.825-3.969.648 0 1.148.047 1.363.07.168.047.191.07.191.192.071.98.813 1.003.957 1.003.524 0 .977-.359.977-1.003 0-1.649-2.414-1.649-3.465-1.649-4.086 0-5.398 3.348-5.398 5.356 0 2.914 2.222 5.304 5.089 5.304 3.204 0 4.039-2.367 4.039-2.75m11.344-1.984c.5 0 .953 0 .953-.883 0-2.797-1.574-5.043-4.562-5.043-2.774 0-4.996 2.391-4.996 5.305a5.33 5.33 0 0 0 5.355 5.355c3.082 0 4.203-2.129 4.203-2.75 0-.144-.047-.668-.789-.668-.453 0-.593.168-.738.524-.598 1.386-2.152 1.508-2.605 1.508-1.985 0-3.559-1.508-3.825-3.348zm-6.98-1.313c.312-2.031 1.867-3.226 3.371-3.226 2.39 0 2.89 2.031 2.988 3.226zm19.375-3.703c0-.383 0-.91-.668-.91-.574 0-.719.551-.719.574-.953-.574-2.055-.574-2.531-.574-3.899 0-4.422 1.985-4.422 2.797 0 .98.574 1.648 1.387 2.102.761.429 1.457.55 3.418.863.929.164 2.843.476 2.843 1.789 0 .883-.812 1.723-3.035 1.723-1.531 0-2.535-.598-3.039-2.321-.117-.332-.187-.597-.785-.597-.789 0-.789.453-.789.933v2.461c0 .383 0 .91.668.91.289 0 .504 0 .863-.98 1.098.906 2.34.98 3.082.98 4.418 0 4.418-2.871 4.418-3.109 0-2.484-2.961-2.984-4.109-3.152-2.102-.36-3.535-.598-3.535-1.602 0-.645.738-1.41 2.988-1.41 2.269 0 2.363 1.074 2.41 1.695.051.477.481.551.766.551.789 0 .789-.43.789-.91zm12.156 2.821c0-1.821-1.363-3.731-4.59-3.731-1 0-3.32 0-3.32 1.649 0 .644.457 1.003.98 1.003.145 0 .934-.046.957-1.05 0-.121.024-.145.524-.192.289-.023.597-.023.886-.023.547 0 1.36 0 2.149.598.863.667.863 1.339.863 2.031-1.414.047-2.797.144-4.277.621-1.199.406-2.727 1.265-2.727 2.89 0 1.696 1.504 3.133 3.727 3.133.765 0 2.25-.121 3.488-.98.481.789 1.676.836 2.582.836.574 0 1.149 0 1.149-.696 0-.691-.621-.691-.957-.691-.622 0-1.098-.047-1.434-.191zm-1.551 3.629c0 .55 0 1.05-.98 1.507-.84.407-1.961.407-2.032.407-1.41 0-2.437-.766-2.437-1.747 0-1.41 2.555-2.222 5.449-2.222zm14.188 4.515c0-.308-.168-.402-.504-.644-3.297-2.27-4.11-5.688-4.11-8.004 0-2.27.762-5.711 4.11-8.028.336-.242.504-.336.504-.648 0-.238-.121-.621-.696-.621-.597 0-2.367 1.387-3.464 2.941-1.34 1.864-2.008 4.086-2.008 6.356 0 2.652.957 4.875 1.961 6.285 1.097 1.527 2.843 2.984 3.511 2.984.575 0 .696-.402.696-.621m10.289-8.648a10.96 10.96 0 0 0-2.172-6.598c-.813-1.098-2.582-2.699-3.301-2.699-.547 0-.691.406-.691.621 0 .285.168.406.597.695 2.914 2.055 4.016 5.254 4.016 7.957 0 2.153-.695 5.664-4.113 8.028-.309.214-.5.336-.5.644 0 .219.144.621.691.621.598 0 2.367-1.383 3.469-2.937a11 11 0 0 0 2.004-6.332m21.543-1.625h3.871c.336 0 .957 0 .957-.692 0-.695-.621-.695-.957-.695h-3.871v-1.961c0-.43 0-.977-.766-.977-.789 0-.789.547-.789.977v1.961h-2.031c-.332 0-.981 0-.981.695 0 .692.625.692.957.692h2.055v6.019c0 2.227 1.531 3.039 3.25 3.039 1.289 0 3.656-.648 3.656-3.086 0-.476 0-1-.785-1-.765 0-.765.524-.765 1.024-.024 1.437-1.387 1.676-1.938 1.676-1.863 0-1.863-1.196-1.863-1.77zm17.129 1.91c0-2.34-1.102-3.438-3.063-3.438a4.18 4.18 0 0 0-3.082 1.36v-4.539c0-.743-.141-.981-.953-.981h-1.578c-.336 0-.957 0-.957.692 0 .695.621.695.957.695h.98v11.828h-.98c-.336 0-.957 0-.957.691 0 .696.621.696.957.696h3.512c.336 0 .957 0 .957-.696 0-.691-.621-.691-.957-.691h-.981v-4.324c0-2.32 1.625-3.348 2.918-3.348 1.383 0 1.672.789 1.672 2.153v5.519h-.981c-.332 0-.957 0-.957.691 0 .696.625.696.957.696h3.512c.336 0 .957 0 .957-.696 0-.691-.621-.691-.957-.691h-.976zm12.25 2.414c.5 0 .957 0 .957-.883 0-2.797-1.578-5.043-4.567-5.043-2.769 0-4.992 2.391-4.992 5.305a5.33 5.33 0 0 0 5.352 5.355c3.082 0 4.207-2.129 4.207-2.75 0-.144-.051-.668-.789-.668-.454 0-.598.168-.743.524-.597 1.386-2.148 1.508-2.601 1.508-1.985 0-3.563-1.508-3.824-3.348zm-6.977-1.313c.309-2.031 1.863-3.226 3.367-3.226 2.391 0 2.891 2.031 2.989 3.226zm19.324-1.101c0-2.34-1.097-3.438-3.058-3.438a4.18 4.18 0 0 0-3.082 1.36c0-.883 0-1.219-.957-1.219h-1.578c-.333 0-.954 0-.954.695 0 .692.621.692.954.692h.98v7.527h-.98c-.333 0-.954 0-.954.691 0 .696.621.696.954.696h3.515c.332 0 .953 0 .953-.696 0-.691-.621-.691-.953-.691h-.98v-4.324c0-2.32 1.625-3.348 2.914-3.348 1.386 0 1.676.789 1.676 2.153v5.519h-.981c-.336 0-.957 0-.957.691 0 .696.621.696.957.696h3.512c.336 0 .957 0 .957-.696 0-.691-.621-.691-.957-.691h-.981zm-258.566-83.676c0-1.293 0-2.25-1.051-3.18-.836-.765-1.91-1.097-2.961-1.097-1.961 0-3.465 1.289-3.465 2.843 0 .692.453 1.028 1.004 1.028.574 0 .981-.406.981-.981 0-.98-.864-.98-1.219-.98.547-1.004 1.695-1.434 2.648-1.434 1.102 0 2.512.907 2.512 3.059v.957c-4.805.07-6.617 2.078-6.617 3.918 0 1.887 2.195 2.484 3.652 2.484 1.578 0 2.657-.957 3.11-2.101.093 1.121.836 1.98 1.863 1.98.5 0 1.887-.332 1.887-2.246v-1.336h-.524v1.336c0 1.363-.574 1.555-.91 1.555-.91 0-.91-1.266-.91-1.625zm-1.551 3.012c0 2.34-1.742 3.129-2.773 3.129-1.168 0-2.149-.864-2.149-2.008 0-3.152 4.063-3.442 4.922-3.488zm13.078-4.664c.215-.524.621-1.551 2.153-1.574v-.696c-.696.047-1.028.047-1.77.047-.504 0-.859 0-1.961-.047v.696c1.008.046 1.125.761 1.125 1.027 0 .215-.047.336-.168.621l-2.437 6.164-2.676-6.738c-.121-.336-.145-.336-.145-.453 0-.621.91-.621 1.34-.621v-.696c-.597.047-1.84.047-2.484.047-.789 0-.836 0-2.297-.047v.696c1.34 0 1.578.093 1.863.835l3.418 8.555c.121.332.168.453.457.453.164 0 .309-.047.477-.453zm10.574 1.652c0-1.293 0-2.25-1.05-3.18-.836-.765-1.91-1.097-2.965-1.097-1.957 0-3.465 1.289-3.465 2.843 0 .692.453 1.028 1.004 1.028.574 0 .98-.406.98-.981 0-.98-.859-.98-1.218-.98.55-1.004 1.699-1.434 2.652-1.434 1.102 0 2.508.907 2.508 3.059v.957c-4.801.07-6.617 2.078-6.617 3.918 0 1.887 2.199 2.484 3.656 2.484 1.578 0 2.652-.957 3.105-2.101.098 1.121.836 1.98 1.864 1.98.503 0 1.89-.332 1.89-2.246v-1.336h-.527v1.336c0 1.363-.574 1.555-.906 1.555-.911 0-.911-1.266-.911-1.625zm-1.554 3.012c0 2.34-1.742 3.129-2.77 3.129-1.172 0-2.152-.864-2.152-2.008 0-3.152 4.062-3.442 4.922-3.488zm14.664-2.438c0-2.226 0-2.894-.547-3.66-.695-.93-1.816-1.074-2.629-1.074-2.32 0-3.227 1.984-3.418 2.461h-.023v-2.461l-3.25.266v.691c1.625 0 1.816.168 1.816 1.34v6.472c0 1.075-.262 1.075-1.816 1.075v.695c.621-.047 1.91-.047 2.578-.047.695 0 1.984 0 2.605.047v-.695c-1.527 0-1.816 0-1.816-1.075v-4.445c0-2.508 1.648-3.848 3.133-3.848 1.48 0 1.816 1.219 1.816 2.68v5.613c0 1.075-.266 1.075-1.816 1.075v.695c.621-.047 1.91-.047 2.578-.047.695 0 1.984 0 2.605.047v-.695c-1.195 0-1.793 0-1.816-.715zm11.472-3.824c.215-.266.215-.312.215-.406 0-.266-.168-.266-.574-.266h-7.504L420.98-208h.528c.14-2.438.594-3.32 3.199-3.32h2.773l-6.835 9.39c0 .43.05.43.574.43h7.789l.383-4.398h-.524c-.219 2.726-.625 3.875-3.469 3.875h-2.89zm10.516 3.25c0-1.293 0-2.25-1.047-3.18-.84-.765-1.914-1.097-2.965-1.097-1.961 0-3.464 1.289-3.464 2.843 0 .692.453 1.028 1.003 1.028.575 0 .981-.406.981-.981 0-.98-.863-.98-1.219-.98.551-1.004 1.695-1.434 2.653-1.434 1.097 0 2.507.907 2.507 3.059v.957c-4.804.07-6.617 2.078-6.617 3.918 0 1.887 2.195 2.484 3.656 2.484 1.575 0 2.653-.957 3.106-2.101.094 1.121.836 1.98 1.863 1.98.5 0 1.887-.332 1.887-2.246v-1.336h-.524v1.336c0 1.363-.574 1.555-.91 1.555-.91 0-.91-1.266-.91-1.625zm-1.551 3.012c0 2.34-1.742 3.129-2.773 3.129-1.168 0-2.149-.864-2.149-2.008 0-3.152 4.063-3.442 4.922-3.488zm-59.015-48.391c-1.532 0-1.817 0-1.817-1.074v-4.16c.43.597 1.41 1.531 2.942 1.531 2.746 0 5.16-2.32 5.16-5.398 0-3.039-2.246-5.379-4.852-5.379-2.101 0-3.226 1.504-3.297 1.601v-1.601l-3.324.261v.696c1.676 0 1.821.164 1.821 1.218v11.231c0 1.074-.266 1.074-1.821 1.074v.695c.625-.05 1.914-.05 2.582-.05.692 0 1.985 0 2.606.05zm-1.817-11.566c0-.453 0-.477.266-.86.715-1.074 1.887-1.531 2.793-1.531 1.793 0 3.226 2.176 3.226 4.856 0 2.839-1.625 4.921-3.464 4.921a2.82 2.82 0 0 1-1.911-.765c-.55-.551-.91-1.027-.91-1.695zm12.953 2.058c0-2.32.957-4.496 2.793-4.496.196 0 .243 0 .336.028-.191.093-.574.238-.574.882 0 .692.551.954.934.954.476 0 .957-.309.957-.954 0-.718-.645-1.386-1.672-1.386-2.035 0-2.727 2.199-2.871 2.652h-.024v-2.652l-3.203.261v.696c1.625 0 1.821.164 1.821 1.336v6.476c0 1.074-.266 1.074-1.821 1.074v.696c.672-.047 1.985-.047 2.703-.047.645 0 2.34 0 2.891.047v-.696h-.477c-1.746 0-1.793-.261-1.793-1.121zm14.262.024c.524 0 .574 0 .574-.457 0-2.41-1.293-4.66-4.183-4.66-2.723 0-4.828 2.461-4.828 5.425 0 3.153 2.437 5.473 5.089 5.473 2.844 0 3.922-2.582 3.922-3.082 0-.145-.121-.238-.265-.238-.192 0-.239.117-.285.238-.622 2.008-2.223 2.555-3.227 2.555s-3.418-.668-3.418-4.801v-.453zm-6.598-.457c.192-3.75 2.297-4.18 2.965-4.18 2.559 0 2.7 3.367 2.723 4.18zm24.981.191c0-2.222 0-2.89-.551-3.656-.695-.93-1.816-1.074-2.629-1.074-1.984 0-2.988 1.433-3.371 2.367-.332-1.844-1.625-2.367-3.129-2.367-2.316 0-3.226 1.984-3.418 2.461h-.023v-2.461l-3.25.261v.696c1.625 0 1.816.164 1.816 1.336v6.476c0 1.074-.261 1.074-1.816 1.074v.696c.621-.047 1.914-.047 2.582-.047.691 0 1.984 0 2.601.047v-.696c-1.527 0-1.812 0-1.812-1.074v-4.445c0-2.508 1.648-3.848 3.129-3.848 1.48 0 1.816 1.219 1.816 2.676v5.617c0 1.074-.265 1.074-1.816 1.074v.696c.621-.047 1.914-.047 2.582-.047.691 0 1.98 0 2.601.047v-.696c-1.527 0-1.812 0-1.812-1.074v-4.445c0-2.508 1.648-3.848 3.129-3.848 1.48 0 1.816 1.219 1.816 2.676v5.617c0 1.074-.265 1.074-1.816 1.074v.696c.621-.047 1.914-.047 2.582-.047.691 0 1.98 0 2.601.047v-.696c-1.195 0-1.789 0-1.812-.714zm6.523-8.914c0-.621-.504-1.168-1.171-1.168-.622 0-1.145.5-1.145 1.145 0 .718.57 1.172 1.145 1.172.742 0 1.171-.622 1.171-1.149m-3.296 4.445v.696c1.527 0 1.742.14 1.742 1.312v6.5c0 1.074-.262 1.074-1.817 1.074v.696c.668-.047 1.817-.047 2.508-.047.266 0 1.652 0 2.465.047v-.696c-1.555 0-1.648-.117-1.648-1.05v-8.793zm17.593-4.445c0-.621-.5-1.168-1.168-1.168-.621 0-1.148.5-1.148 1.145 0 .718.574 1.172 1.148 1.172.739 0 1.168-.622 1.168-1.149m-3.297 4.445v.696c1.532 0 1.746.14 1.746 1.312v6.5c0 1.074-.261 1.074-1.816 1.074v.696c.668-.047 1.816-.047 2.508-.047.266 0 1.648 0 2.461.047v-.696c-1.551 0-1.649-.117-1.649-1.05v-8.793zm16.274 4.469c0-2.222 0-2.89-.547-3.656-.695-.93-1.816-1.074-2.629-1.074-2.32 0-3.227 1.984-3.418 2.461h-.023v-2.461l-3.25.261v.696c1.625 0 1.816.164 1.816 1.336v6.476c0 1.074-.262 1.074-1.816 1.074v.696c.621-.047 1.91-.047 2.578-.047.695 0 1.984 0 2.605.047v-.696c-1.527 0-1.816 0-1.816-1.074v-4.445c0-2.508 1.648-3.848 3.133-3.848 1.48 0 1.816 1.219 1.816 2.676v5.617c0 1.074-.266 1.074-1.816 1.074v.696c.621-.047 1.91-.047 2.578-.047.695 0 1.984 0 2.605.047v-.696c-1.195 0-1.793 0-1.816-.714zm5.781-3.797h3.371v-.695h-3.371v-4.398h-.523c-.024 2.25-.887 4.543-3.063 4.613v.48h2.031v6.641c0 2.652 1.77 3.203 3.039 3.203 1.504 0 2.293-1.48 2.293-3.203v-1.359h-.527v1.312c0 1.719-.691 2.723-1.625 2.723-1.625 0-1.625-2.223-1.625-2.629zm14.238 4.063c.528 0 .575 0 .575-.457 0-2.41-1.289-4.66-4.184-4.66-2.723 0-4.824 2.461-4.824 5.425 0 3.153 2.437 5.473 5.086 5.473 2.843 0 3.922-2.582 3.922-3.082 0-.145-.122-.238-.262-.238-.192 0-.242.117-.289.238-.621 2.008-2.223 2.555-3.227 2.555s-3.418-.668-3.418-4.801v-.453zm-6.597-.457c.191-3.75 2.297-4.18 2.965-4.18 2.558 0 2.699 3.367 2.722 4.18zm11.836.433c0-2.32.957-4.496 2.797-4.496.191 0 .238 0 .335.028-.195.093-.574.238-.574.882 0 .692.547.954.93.954.48 0 .957-.309.957-.954 0-.718-.645-1.386-1.672-1.386-2.031 0-2.726 2.199-2.867 2.652h-.024v-2.652l-3.203.261v.696c1.625 0 1.817.164 1.817 1.336v6.476c0 1.074-.266 1.074-1.817 1.074v.696c.668-.047 1.985-.047 2.7-.047.644 0 2.339 0 2.89.047v-.696h-.476c-1.746 0-1.793-.261-1.793-1.121zm9.101 0c0-2.32.953-4.496 2.793-4.496.192 0 .238 0 .336.028-.191.093-.574.238-.574.882 0 .692.551.954.933.954.477 0 .958-.309.958-.954 0-.718-.645-1.386-1.676-1.386-2.032 0-2.723 2.199-2.867 2.652h-.024v-2.652l-3.203.261v.696c1.625 0 1.816.164 1.816 1.336v6.476c0 1.074-.261 1.074-1.816 1.074v.696c.672-.047 1.984-.047 2.699-.047.649 0 2.344 0 2.895.047v-.696h-.481c-1.742 0-1.789-.261-1.789-1.121zm12.371-4.711v.696c1.625 0 1.817.164 1.817 1.336v4.277c0 2.031-1.075 3.73-2.867 3.73-1.961 0-2.079-1.125-2.079-2.39v-7.91l-3.371.261v.696c1.817 0 1.817.07 1.817 2.195V-261c0 1.48 0 2.344.718 3.133.575.621 1.555.906 2.774.906.406 0 1.168 0 1.98-.695.696-.547 1.075-1.457 1.075-1.457v2.152l3.324-.238v-.696c-1.625 0-1.817-.168-1.817-1.335v-8.508zm9.75.672h3.371v-.695h-3.371v-4.398h-.523c-.024 2.25-.887 4.543-3.059 4.613v.48h2.032v6.641c0 2.652 1.765 3.203 3.035 3.203 1.504 0 2.293-1.48 2.293-3.203v-1.359h-.528v1.312c0 1.719-.691 2.723-1.625 2.723-1.625 0-1.625-2.223-1.625-2.629zm9.102 0h3.371v-.695h-3.371v-4.398h-.527c-.02 2.25-.883 4.543-3.059 4.613v.48h2.031v6.641c0 2.652 1.77 3.203 3.035 3.203 1.508 0 2.297-1.48 2.297-3.203v-1.359h-.527v1.312c0 1.719-.692 2.723-1.625 2.723-1.625 0-1.625-2.223-1.625-2.629zm16.055 4.492c0-3.085-2.344-5.546-5.114-5.546-2.867 0-5.14 2.535-5.14 5.546 0 3.059 2.39 5.352 5.117 5.352 2.816 0 5.137-2.344 5.137-5.352m-5.114 4.825c-.886 0-1.961-.379-2.652-1.551-.649-1.078-.672-2.484-.672-3.492 0-.907 0-2.364.742-3.438a3.06 3.06 0 0 1 2.559-1.41c.93 0 1.933.43 2.578 1.363.742 1.098.742 2.602.742 3.485 0 .84 0 2.32-.621 3.441-.668 1.149-1.769 1.602-2.676 1.602m9.836-5.278c0-2.32.953-4.496 2.793-4.496.192 0 .238 0 .336.028-.191.093-.574.238-.574.882 0 .692.551.954.933.954.477 0 .958-.309.958-.954 0-.718-.645-1.386-1.676-1.386-2.032 0-2.723 2.199-2.867 2.652h-.024v-2.652l-3.203.261v.696c1.625 0 1.816.164 1.816 1.336v6.476c0 1.074-.261 1.074-1.816 1.074v.696c.672-.047 1.984-.047 2.699-.047.649 0 2.344 0 2.895.047v-.696h-.481c-1.742 0-1.789-.261-1.789-1.121zm14.262.024c.523 0 .574 0 .574-.457 0-2.41-1.293-4.66-4.183-4.66-2.723 0-4.829 2.461-4.829 5.425 0 3.153 2.438 5.473 5.09 5.473 2.844 0 3.922-2.582 3.922-3.082 0-.145-.121-.238-.265-.238-.192 0-.239.117-.286.238-.621 2.008-2.222 2.555-3.226 2.555s-3.418-.668-3.418-4.801v-.453zm-6.598-.457c.192-3.75 2.297-4.18 2.965-4.18 2.555 0 2.699 3.367 2.723 4.18zm-168.234-56.082c0-1.289 0-2.246-1.051-3.18-.836-.762-1.91-1.098-2.961-1.098-1.961 0-3.465 1.293-3.465 2.844 0 .692.453 1.027 1.004 1.027.574 0 .981-.406.981-.98 0-.98-.864-.98-1.219-.98.547-1 1.695-1.43 2.648-1.43 1.102 0 2.512.906 2.512 3.055v.957c-4.805.074-6.617 2.082-6.617 3.918 0 1.89 2.195 2.488 3.652 2.488 1.578 0 2.657-.957 3.11-2.106.093 1.125.836 1.985 1.863 1.985.5 0 1.887-.336 1.887-2.246v-1.34h-.524v1.34c0 1.363-.574 1.554-.91 1.554-.91 0-.91-1.269-.91-1.625zm-1.551 3.011c0 2.34-1.742 3.129-2.773 3.129-1.168 0-2.149-.859-2.149-2.007 0-3.153 4.063-3.442 4.922-3.489zm8.02-2.199c0-2.316.957-4.492 2.797-4.492.191 0 .238 0 .335.023-.195.098-.574.243-.574.883 0 .696.547.957.93.957.48 0 .957-.308.957-.957 0-.715-.645-1.383-1.672-1.383-2.031 0-2.726 2.196-2.867 2.653h-.024v-2.653l-3.203.262v.692c1.625 0 1.817.168 1.817 1.339v6.477c0 1.074-.266 1.074-1.817 1.074v.696c.668-.051 1.985-.051 2.7-.051.644 0 2.339 0 2.89.051v-.696h-.476c-1.746 0-1.793-.261-1.793-1.121zm9.101 0c0-2.316.953-4.492 2.793-4.492.192 0 .238 0 .336.023-.191.098-.574.243-.574.883 0 .696.551.957.933.957.477 0 .958-.308.958-.957 0-.715-.649-1.383-1.676-1.383-2.032 0-2.723 2.196-2.867 2.653h-.024v-2.653l-3.203.262v.692c1.625 0 1.816.168 1.816 1.339v6.477c0 1.074-.261 1.074-1.816 1.074v.696c.672-.051 1.984-.051 2.699-.051.649 0 2.344 0 2.895.051v-.696h-.481c-1.742 0-1.789-.261-1.789-1.121zm14.262.024c.523 0 .574 0 .574-.453 0-2.415-1.293-4.661-4.183-4.661-2.723 0-4.829 2.461-4.829 5.426 0 3.153 2.438 5.473 5.09 5.473 2.844 0 3.922-2.582 3.922-3.082 0-.145-.121-.242-.265-.242-.192 0-.239.121-.286.242-.621 2.008-2.222 2.554-3.226 2.554s-3.418-.667-3.418-4.804v-.453zm-6.598-.453c.192-3.75 2.297-4.18 2.965-4.18 2.555 0 2.699 3.367 2.723 4.18zm11.86-3.61h3.367v-.691h-3.367v-4.399h-.528c-.023 2.246-.883 4.543-3.058 4.614v.476h2.031v6.645c0 2.652 1.769 3.203 3.035 3.203 1.508 0 2.297-1.481 2.297-3.203v-1.364h-.527v1.317c0 1.719-.696 2.722-1.625 2.722-1.625 0-1.625-2.222-1.625-2.628zm9.074 4.039c0-2.316.957-4.492 2.797-4.492.191 0 .238 0 .336.023-.192.098-.575.243-.575.883 0 .696.547.957.93.957.481 0 .957-.308.957-.957 0-.715-.644-1.383-1.672-1.383-2.031 0-2.722 2.196-2.867 2.653h-.023v-2.653l-3.203.262v.692c1.625 0 1.816.168 1.816 1.339v6.477c0 1.074-.266 1.074-1.816 1.074v.696c.668-.051 1.984-.051 2.699-.051.644 0 2.344 0 2.89.051v-.696h-.476c-1.742 0-1.793-.261-1.793-1.121zm14.332-.812c0-1.289 0-2.246-1.051-3.18-.836-.762-1.91-1.098-2.961-1.098-1.961 0-3.465 1.293-3.465 2.844 0 .692.453 1.027 1.004 1.027.574 0 .981-.406.981-.98 0-.98-.864-.98-1.219-.98.547-1 1.695-1.43 2.648-1.43 1.102 0 2.512.906 2.512 3.055v.957c-4.805.074-6.617 2.082-6.617 3.918 0 1.89 2.195 2.488 3.652 2.488 1.578 0 2.657-.957 3.11-2.106.093 1.125.836 1.985 1.863 1.985.5 0 1.887-.336 1.887-2.246v-1.34h-.524v1.34c0 1.363-.574 1.554-.91 1.554-.91 0-.91-1.269-.91-1.625zm-1.551 3.011c0 2.34-1.742 3.129-2.773 3.129-1.168 0-2.149-.859-2.149-2.007 0-3.153 4.063-3.442 4.922-3.489zm-83.832-82.238c0-.43 0-.551-.242-.551-.188 0-.641.528-.813.743-.738-.598-1.48-.743-2.242-.743-2.894 0-3.754 1.579-3.754 2.891 0 .266 0 1.102.91 1.938.762.667 1.575.835 2.676 1.05 1.313.262 1.625.336 2.223.813.43.359.738.883.738 1.554 0 1.028-.597 2.172-2.699 2.172-1.578 0-2.723-.906-3.25-3.297-.094-.429-.094-.453-.117-.476-.051-.098-.145-.098-.215-.098-.266 0-.266.121-.266.551v3.25c0 .43 0 .551.239.551.121 0 .144-.024.55-.528.121-.167.121-.214.477-.597.91 1.125 2.199 1.125 2.605 1.125 2.508 0 3.75-1.387 3.75-3.274 0-1.293-.785-2.058-1-2.269-.863-.742-1.507-.887-3.086-1.176-.714-.141-2.46-.476-2.46-1.91 0-.738.503-1.84 2.656-1.84 2.601 0 2.746 2.223 2.793 2.965.023.191.191.191.261.191.266 0 .266-.121.266-.55zm10.516 4.563c.523 0 .574 0 .574-.453 0-2.415-1.293-4.661-4.184-4.661-2.726 0-4.828 2.461-4.828 5.426 0 3.153 2.438 5.473 5.09 5.473 2.844 0 3.922-2.582 3.922-3.082 0-.145-.121-.242-.266-.242-.191 0-.242.121-.285.242-.625 2.008-2.223 2.554-3.226 2.554s-3.418-.667-3.418-4.804v-.453zm-6.598-.453c.191-3.75 2.297-4.18 2.965-4.18 2.555 0 2.699 3.367 2.723 4.18zm41.477.191c0-2.223 0-2.891-.551-3.656-.692-.934-1.813-1.075-2.625-1.075-2.32 0-3.227 1.985-3.418 2.461h-.027v-2.461l-3.25.262v.692c1.625 0 1.82.168 1.82 1.339v6.477c0 1.074-.266 1.074-1.82 1.074v.696c.625-.051 1.914-.051 2.582-.051.695 0 1.984 0 2.605.051v-.696c-1.531 0-1.816 0-1.816-1.074v-4.445c0-2.508 1.648-3.848 3.129-3.848 1.484 0 1.82 1.219 1.82 2.676v5.617c0 1.074-.266 1.074-1.82 1.074v.696c.625-.051 1.914-.051 2.582-.051.695 0 1.984 0 2.605.051v-.696c-1.195 0-1.793 0-1.816-.715zm13.336.691c0-3.082-2.344-5.543-5.114-5.543-2.867 0-5.14 2.536-5.14 5.543 0 3.063 2.39 5.356 5.117 5.356 2.816 0 5.137-2.344 5.137-5.356m-5.114 4.828c-.886 0-1.961-.382-2.652-1.554-.649-1.074-.672-2.485-.672-3.488 0-.907 0-2.364.742-3.442a3.07 3.07 0 0 1 2.559-1.406c.93 0 1.933.43 2.578 1.359.742 1.102.742 2.606.742 3.489 0 .839 0 2.32-.621 3.441-.668 1.148-1.769 1.601-2.676 1.601m16.477-5.519c0-2.223 0-2.891-.547-3.656-.695-.934-1.816-1.075-2.629-1.075-2.32 0-3.227 1.985-3.418 2.461h-.023v-2.461l-3.25.262v.692c1.625 0 1.816.168 1.816 1.339v6.477c0 1.074-.262 1.074-1.816 1.074v.696c.621-.051 1.91-.051 2.578-.051.695 0 1.984 0 2.605.051v-.696c-1.527 0-1.816 0-1.816-1.074v-4.445c0-2.508 1.648-3.848 3.133-3.848 1.48 0 1.816 1.219 1.816 2.676v5.617c0 1.074-.266 1.074-1.816 1.074v.696c.621-.051 1.91-.051 2.578-.051.695 0 1.984 0 2.605.051v-.696c-1.195 0-1.793 0-1.816-.715zm29.476-10.777-3.32.261v.696c1.625 0 1.816.168 1.816 1.336v12.523c0 1.074-.261 1.074-1.816 1.074v.696c.668-.051 1.84-.051 2.555-.051.719 0 1.914 0 2.582.051v-.696c-1.528 0-1.817 0-1.817-1.074zm9.657 6.308v.692c1.625 0 1.816.168 1.816 1.339v4.278c0 2.031-1.078 3.726-2.867 3.726-1.961 0-2.082-1.121-2.082-2.386v-7.911l-3.367.262v.692c1.816 0 1.816.074 1.816 2.199v3.586c0 1.48 0 2.34.715 3.129.574.621 1.555.91 2.773.91.407 0 1.172 0 1.985-.695.691-.547 1.074-1.458 1.074-1.458v2.153l3.32-.238v-.696c-1.625 0-1.816-.168-1.816-1.336v-8.508zm14.382 1.434c-.285 0-1.168 0-1.168.98 0 .574.407.981.981.981.547 0 1.004-.336 1.004-1.028 0-1.601-1.672-2.75-3.61-2.75-2.796 0-5.019 2.485-5.019 5.496 0 3.059 2.293 5.403 4.996 5.403 3.152 0 3.871-2.867 3.871-3.082 0-.219-.168-.219-.238-.219-.219 0-.242.074-.313.359-.523 1.7-1.816 2.414-3.105 2.414-1.457 0-3.395-1.265-3.395-4.898 0-3.969 2.032-4.945 3.227-4.945.906 0 2.223.359 2.769 1.289m10.907 3.297c.523 0 .574 0 .574-.453 0-2.415-1.293-4.661-4.184-4.661-2.726 0-4.828 2.461-4.828 5.426 0 3.153 2.438 5.473 5.09 5.473 2.844 0 3.922-2.582 3.922-3.082 0-.145-.121-.242-.266-.242-.191 0-.242.121-.285.242-.625 2.008-2.223 2.554-3.226 2.554s-3.418-.667-3.418-4.804v-.453zm-6.598-.453c.191-3.75 2.297-4.18 2.965-4.18 2.555 0 2.699 3.367 2.723 4.18zm24.867-.383c0-1.289 0-2.246-1.051-3.18-.835-.762-1.914-1.098-2.964-1.098-1.957 0-3.465 1.293-3.465 2.844 0 .692.453 1.027 1.004 1.027.574 0 .98-.406.98-.98 0-.98-.859-.98-1.219-.98.551-1 1.696-1.43 2.653-1.43 1.097 0 2.508.906 2.508 3.055v.957c-4.801.074-6.618 2.082-6.618 3.918 0 1.89 2.2 2.488 3.657 2.488 1.574 0 2.652-.957 3.105-2.106.094 1.125.836 1.985 1.863 1.985.504 0 1.891-.336 1.891-2.246v-1.34h-.527v1.34c0 1.363-.575 1.554-.907 1.554-.91 0-.91-1.269-.91-1.625zm-1.554 3.011c0 2.34-1.743 3.129-2.774 3.129-1.168 0-2.148-.859-2.148-2.007 0-3.153 4.062-3.442 4.922-3.489zm12.679-5.472c-.285 0-1.168 0-1.168.98 0 .574.407.981.977.981.551 0 1.004-.336 1.004-1.028 0-1.601-1.672-2.75-3.606-2.75-2.797 0-5.019 2.485-5.019 5.496 0 3.059 2.293 5.403 4.996 5.403 3.152 0 3.871-2.867 3.871-3.082 0-.219-.168-.219-.242-.219-.215 0-.239.074-.309.359-.527 1.7-1.816 2.414-3.109 2.414-1.457 0-3.391-1.265-3.391-4.898 0-3.969 2.031-4.945 3.227-4.945.906 0 2.222.359 2.769 1.289m10.403 0c-.289 0-1.172 0-1.172.98 0 .574.406.981.98.981.551 0 1.004-.336 1.004-1.028 0-1.601-1.672-2.75-3.609-2.75-2.797 0-5.02 2.485-5.02 5.496 0 3.059 2.293 5.403 4.996 5.403 3.157 0 3.871-2.867 3.871-3.082 0-.219-.168-.219-.238-.219-.215 0-.242.074-.312.359-.524 1.7-1.817 2.414-3.106 2.414-1.457 0-3.394-1.265-3.394-4.898 0-3.969 2.031-4.945 3.226-4.945.906 0 2.223.359 2.774 1.289m10.902 3.297c.523 0 .574 0 .574-.453 0-2.415-1.293-4.661-4.183-4.661-2.723 0-4.829 2.461-4.829 5.426 0 3.153 2.438 5.473 5.09 5.473 2.844 0 3.922-2.582 3.922-3.082 0-.145-.121-.242-.265-.242-.192 0-.239.121-.286.242-.621 2.008-2.222 2.554-3.226 2.554s-3.418-.667-3.418-4.804v-.453zm-6.598-.453c.192-3.75 2.297-4.18 2.965-4.18 2.555 0 2.699 3.367 2.723 4.18zm15.782-4.11c0-.43 0-.551-.239-.551-.191 0-.644.528-.812.743-.742-.598-1.481-.743-2.246-.743-2.895 0-3.75 1.579-3.75 2.891 0 .266 0 1.102.906 1.938.766.667 1.574.835 2.676 1.05 1.316.262 1.625.336 2.222.813.43.359.743.883.743 1.554 0 1.028-.598 2.172-2.704 2.172-1.574 0-2.722-.906-3.25-3.297-.093-.429-.093-.453-.117-.476-.047-.098-.144-.098-.215-.098-.261 0-.261.121-.261.551v3.25c0 .43 0 .551.238.551.117 0 .141-.024.547-.528.121-.167.121-.214.48-.597.907 1.125 2.196 1.125 2.602 1.125 2.512 0 3.754-1.387 3.754-3.274 0-1.293-.789-2.058-1.004-2.269-.86-.742-1.504-.887-3.082-1.176-.719-.141-2.461-.476-2.461-1.91 0-.738.5-1.84 2.652-1.84 2.606 0 2.746 2.223 2.797 2.965.024.191.188.191.262.191.262 0 .262-.121.262-.55zm10.585 3.727c0-1.289 0-2.246-1.05-3.18-.836-.762-1.91-1.098-2.965-1.098-1.957 0-3.465 1.293-3.465 2.844 0 .692.453 1.027 1.004 1.027.574 0 .98-.406.98-.98 0-.98-.859-.98-1.218-.98.55-1 1.699-1.43 2.652-1.43 1.102 0 2.508.906 2.508 3.055v.957c-4.801.074-6.617 2.082-6.617 3.918 0 1.89 2.199 2.488 3.656 2.488 1.578 0 2.652-.957 3.105-2.106.098 1.125.836 1.985 1.864 1.985.503 0 1.89-.336 1.89-2.246v-1.34h-.527v1.34c0 1.363-.574 1.554-.906 1.554-.911 0-.911-1.269-.911-1.625zm-1.554 3.011c0 2.34-1.742 3.129-2.77 3.129-1.172 0-2.152-.859-2.152-2.007 0-3.153 4.062-3.442 4.922-3.489zm39.64-6.238h2.704v-.691h-2.75v-2.797c0-2.149 1.097-3.25 2.078-3.25.191 0 .55.051.836.191-.094.024-.692.239-.692.934 0 .551.383.93.934.93.574 0 .953-.379.953-.954 0-.886-.859-1.578-2.004-1.578-1.676 0-3.563 1.289-3.563 3.727v2.797h-1.863v.691h1.863v7.84c0 1.074-.261 1.074-1.816 1.074v.696c.668-.051 1.984-.051 2.699-.051.645 0 2.344 0 2.891.051v-.696h-.477c-1.746 0-1.793-.261-1.793-1.121zm12.313 3.227c0-1.289 0-2.246-1.051-3.18-.836-.762-1.91-1.098-2.961-1.098-1.961 0-3.465 1.293-3.465 2.844 0 .692.453 1.027 1.004 1.027.574 0 .981-.406.981-.98 0-.98-.864-.98-1.219-.98.547-1 1.695-1.43 2.648-1.43 1.102 0 2.512.906 2.512 3.055v.957c-4.805.074-6.617 2.082-6.617 3.918 0 1.89 2.195 2.488 3.652 2.488 1.578 0 2.657-.957 3.11-2.106.093 1.125.836 1.985 1.863 1.985.5 0 1.887-.336 1.887-2.246v-1.34h-.524v1.34c0 1.363-.574 1.554-.91 1.554-.91 0-.91-1.269-.91-1.625zm-1.551 3.011c0 2.34-1.742 3.129-2.773 3.129-1.168 0-2.149-.859-2.149-2.007 0-3.153 4.063-3.442 4.922-3.489zm8.188-11.351c0-.621-.504-1.168-1.172-1.168-.621 0-1.145.5-1.145 1.144 0 .715.571 1.172 1.145 1.172.742 0 1.172-.621 1.172-1.148m-3.297 4.445v.692c1.527 0 1.742.144 1.742 1.316v6.5c0 1.074-.262 1.074-1.816 1.074v.696c.671-.051 1.816-.051 2.511-.051.262 0 1.649 0 2.461.051v-.696c-1.555 0-1.648-.121-1.648-1.051v-8.793zm10.035 1.121c0-.64-.551-1.144-1.149-1.144-.691 0-1.168.551-1.168 1.144 0 .719.598 1.172 1.149 1.172.644 0 1.168-.5 1.168-1.172m0 7.985c0-.645-.551-1.149-1.149-1.149-.691 0-1.168.551-1.168 1.149a1.17 1.17 0 0 0 1.149 1.172c.644 0 1.168-.504 1.168-1.172m-272.606-96.313-3.324.262v.691c1.625 0 1.821.168 1.821 1.34v14.289h.523c.094-.191.766-1.387.859-1.551.551.883 1.578 1.789 3.11 1.789 2.746 0 5.16-2.316 5.16-5.398 0-3.035-2.246-5.379-4.899-5.379-1.312 0-2.437.598-3.25 1.602zm.047 8.938c0-.434 0-.481.266-.864.57-.859 1.625-1.55 2.793-1.55.719 0 3.226.285 3.226 4.875 0 1.601-.238 2.601-.812 3.464-.477.739-1.434 1.481-2.629 1.481-1.289 0-2.129-.836-2.535-1.481-.309-.503-.309-.597-.309-1.003zm13.075-8.938-3.325.262v.691c1.625 0 1.817.168 1.817 1.34v12.52c0 1.078-.262 1.078-1.817 1.078v.691c.668-.047 1.84-.047 2.559-.047.715 0 1.91 0 2.582.047v-.691c-1.531 0-1.816 0-1.816-1.078zm13.355 11.469c0-3.082-2.34-5.543-5.113-5.543-2.867 0-5.137 2.531-5.137 5.543 0 3.059 2.387 5.351 5.113 5.351 2.821 0 5.137-2.339 5.137-5.351m-5.113 4.824c-.883 0-1.961-.379-2.653-1.551-.644-1.074-.668-2.484-.668-3.488 0-.91 0-2.367.739-3.441a3.06 3.06 0 0 1 2.558-1.41c.934 0 1.938.429 2.578 1.363.743 1.097.743 2.605.743 3.488 0 .836 0 2.316-.622 3.441-.667 1.145-1.765 1.598-2.675 1.598m15.093-8.551c-.285 0-1.168 0-1.168.977 0 .574.407.98.981.98.547 0 1.004-.332 1.004-1.027 0-1.602-1.676-2.746-3.61-2.746-2.796 0-5.019 2.484-5.019 5.496 0 3.059 2.293 5.398 4.996 5.398 3.152 0 3.871-2.867 3.871-3.082s-.168-.214-.238-.214c-.219 0-.242.07-.313.359-.523 1.695-1.816 2.41-3.105 2.41-1.457 0-3.395-1.262-3.395-4.894 0-3.969 2.032-4.95 3.227-4.95.906 0 2.223.36 2.769 1.293m10.403 0c-.285 0-1.172 0-1.172.977 0 .574.406.98.98.98.551 0 1.004-.332 1.004-1.027 0-1.602-1.672-2.746-3.609-2.746-2.793 0-5.02 2.484-5.02 5.496 0 3.059 2.297 5.398 4.996 5.398 3.157 0 3.872-2.867 3.872-3.082s-.168-.214-.239-.214c-.215 0-.242.07-.308.359-.528 1.695-1.821 2.41-3.11 2.41-1.457 0-3.39-1.262-3.39-4.894 0-3.969 2.031-4.95 3.222-4.95.911 0 2.227.36 2.774 1.293m12.719 3.727c0-3.082-2.344-5.543-5.114-5.543-2.867 0-5.14 2.531-5.14 5.543 0 3.059 2.39 5.351 5.117 5.351 2.816 0 5.137-2.339 5.137-5.351m-5.114 4.824c-.886 0-1.961-.379-2.652-1.551-.649-1.074-.672-2.484-.672-3.488 0-.91 0-2.367.742-3.441a3.06 3.06 0 0 1 2.559-1.41c.93 0 1.933.429 2.578 1.363.742 1.097.742 2.605.742 3.488 0 .836 0 2.316-.621 3.441-.668 1.145-1.769 1.598-2.676 1.598m16.805-13.402a7 7 0 0 0 2.125.359c2.699 0 4.422-1.984 4.422-2.32 0-.094-.047-.215-.192-.215-.05 0-.097 0-.312.098a7.8 7.8 0 0 1-3.106.644c-1.578 0-2.699-.48-3.156-.668-.164-.074-.215-.074-.238-.074-.191 0-.191.145-.191.527v7.098c0 .43 0 .574.289.574.117 0 .14-.027.382-.312a3.6 3.6 0 0 1 2.985-1.555c1.265 0 1.89 1.172 2.078 1.578.406.934.433 2.102.433 3.012 0 .906 0 2.269-.671 3.344-.524.859-1.457 1.457-2.508 1.457a3.69 3.69 0 0 1-3.559-2.817c.117.047.262.071.379.071.406 0 1.051-.239 1.051-1.051 0-.672-.453-1.051-1.051-1.051-.43 0-1.051.215-1.051 1.145 0 2.031 1.625 4.351 4.278 4.351 2.699 0 5.066-2.273 5.066-5.305 0-2.843-1.91-5.211-4.422-5.211-1.359 0-2.414.598-3.031 1.266z"/></g></svg>