<svg xmlns="http://www.w3.org/2000/svg" width="229pt" height="188pt" viewBox="0 -188 229 188"><g id="page1"><path fill="none" stroke="#000" stroke-linecap="round" stroke-linejoin="round" stroke-width="2" d="M1-16.277v-170.078h226.77v170.078z"/><path fill="#0000bf" d="M18.445-16.277h34.887v-148.215H18.445Z"/><path fill="none" stroke="#000" stroke-linecap="round" stroke-linejoin="round" stroke-width="2" d="M18.445-16.277v-148.215h34.887v148.215z"/><path fill="#0000bf" d="M70.777-16.277h34.887V-84.79H70.777Z"/><path fill="none" stroke="#000" stroke-linecap="round" stroke-linejoin="round" stroke-width="2" d="M70.777-16.277V-84.79h34.887v68.512z"/><path fill="#0000bf" d="M123.109-16.277h34.887v-.34h-34.887Z"/><path fill="none" stroke="#000" stroke-linecap="round" stroke-linejoin="round" stroke-width="2" d="M123.109-16.277v-.34h34.887v.34z"/><path fill="#0000bf" d="M175.441-16.277h34.887v-54.946h-34.887Z"/><path fill="none" stroke="#000" stroke-linecap="round" stroke-linejoin="round" stroke-width="2" d="M175.441-16.277v-54.946h34.887v54.946z"/><path d="M86.59-168.242c-1.149 0-1.363 0-1.363-.809v-3.117c.324.449 1.058 1.148 2.203 1.148 2.062 0 3.87-1.738 3.87-4.05 0-2.274-1.683-4.032-3.636-4.032-1.578 0-2.418 1.129-2.473 1.204v-1.204l-2.488.2v.519c1.254 0 1.36.125 1.36.914v8.418c0 .809-.196.809-1.36.809v.515c.465-.035 1.43-.035 1.934-.035.52 0 1.488 0 1.953.035zm-1.363-8.672c0-.34 0-.359.199-.645a2.57 2.57 0 0 1 2.093-1.148c1.344 0 2.418 1.629 2.418 3.637 0 2.132-1.218 3.691-2.593 3.691a2.12 2.12 0 0 1-1.438-.574c-.41-.41-.68-.77-.68-1.274zm9.663 1.543c0-1.742.72-3.371 2.098-3.371.145 0 .18 0 .25.019-.144.071-.43.176-.43.66 0 .52.41.719.7.719.36 0 .715-.234.715-.719 0-.535-.48-1.039-1.254-1.039-1.524 0-2.04 1.649-2.149 1.989h-.02v-1.989l-2.398.2v.519c1.22 0 1.36.125 1.36 1v4.86c0 .804-.196.804-1.36.804v.52c.5-.035 1.489-.035 2.024-.035.484 0 1.754 0 2.168.035v-.52h-.36c-1.304 0-1.343-.199-1.343-.844zm7.028-6.863a.88.88 0 0 0-.879-.879.86.86 0 0 0-.859.859c0 .539.429.879.859.879a.874.874 0 0 0 .879-.859m-2.473 3.332v.519c1.149 0 1.309.106 1.309.985v4.875c0 .804-.199.804-1.363.804v.52c.5-.035 1.363-.035 1.882-.035.196 0 1.235 0 1.844.035v-.52c-1.164 0-1.234-.09-1.234-.789v-6.594zm17.102 3.347c0-1.664 0-2.164-.414-2.738-.52-.699-1.36-.809-1.969-.809-1.488 0-2.242 1.079-2.527 1.774-.25-1.379-1.219-1.774-2.348-1.774-1.738 0-2.418 1.489-2.562 1.848h-.016v-1.848l-2.438.2v.519c1.219 0 1.36.125 1.36 1v4.86c0 .804-.195.804-1.36.804v.52c.465-.035 1.434-.035 1.934-.035.52 0 1.488 0 1.953.035v-.52c-1.144 0-1.359 0-1.359-.804v-3.336c0-1.879 1.234-2.883 2.344-2.883 1.113 0 1.363.914 1.363 2.008v4.211c0 .804-.195.804-1.363.804v.52c.468-.035 1.433-.035 1.937-.035.52 0 1.484 0 1.953.035v-.52c-1.148 0-1.363 0-1.363-.804v-3.336c0-1.879 1.234-2.883 2.348-2.883 1.109 0 1.359.914 1.359 2.008v4.211c0 .804-.195.804-1.359.804v.52c.464-.035 1.433-.035 1.933-.035.52 0 1.488 0 1.953.035v-.52c-.894 0-1.343 0-1.359-.539zm8.668-.429c0-.965 0-1.684-.789-2.383-.625-.571-1.434-.824-2.223-.824-1.469 0-2.594.968-2.594 2.132 0 .52.34.77.75.77.43 0 .735-.305.735-.734 0-.735-.645-.735-.914-.735.414-.75 1.273-1.074 1.992-1.074.82 0 1.879.68 1.879 2.293v.719c-3.602.05-4.961 1.554-4.961 2.937 0 1.414 1.644 1.863 2.738 1.863 1.184 0 1.988-.718 2.328-1.578.074.844.629 1.489 1.399 1.489.375 0 1.414-.25 1.414-1.684v-1.004h-.391v1.004c0 1.02-.43 1.164-.683 1.164-.68 0-.68-.949-.68-1.219zm-1.164 2.257c0 1.758-1.309 2.348-2.078 2.348-.879 0-1.614-.644-1.614-1.504 0-2.363 3.047-2.582 3.692-2.617zm6.043-1.644c0-1.742.715-3.371 2.094-3.371.144 0 .179 0 .25.019-.141.071-.43.176-.43.66 0 .52.414.719.699.719.359 0 .715-.234.715-.719 0-.535-.481-1.039-1.25-1.039-1.524 0-2.043 1.649-2.152 1.989h-.016v-1.989l-2.402.2v.519c1.218 0 1.363.125 1.363 1v4.86c0 .804-.199.804-1.363.804v.52c.5-.035 1.488-.035 2.027-.035.48 0 1.754 0 2.164.035v-.52h-.355c-1.309 0-1.344-.199-1.344-.844zm6.922-6.863a.877.877 0 0 0-.875-.879.857.857 0 0 0-.86.859c0 .539.43.879.86.879a.87.87 0 0 0 .875-.859m-2.469 3.332v.519c1.144 0 1.305.106 1.305.985v4.875c0 .804-.196.804-1.36.804v.52c.5-.035 1.36-.035 1.879-.035.199 0 1.238 0 1.848.035v-.52c-1.164 0-1.239-.09-1.239-.789v-6.594zm11.113 3.547c.395 0 .43 0 .43-.34 0-1.813-.969-3.496-3.133-3.496-2.043 0-3.617 1.847-3.617 4.07 0 2.363 1.824 4.101 3.812 4.101 2.133 0 2.938-1.937 2.938-2.312 0-.106-.086-.18-.195-.18-.141 0-.18.09-.215.18-.465 1.504-1.668 1.918-2.418 1.918-.754 0-2.563-.504-2.563-3.602v-.339zm-4.941-.34c.14-2.813 1.719-3.137 2.219-3.137 1.917 0 2.027 2.527 2.042 3.137z"/><path fill="#fff" d="M29.168-96.262c0-.34 0-.43-.25-.43-.145 0-.2 0-.34.215l-5.394 8.368v.515h4.71v1.633c0 .664-.035.844-1.343.844h-.356v.515c.41-.035 1.825-.035 2.328-.035.5 0 1.934 0 2.344.035v-.515h-.355c-1.293 0-1.344-.18-1.344-.844v-1.633h1.809v-.515h-1.809zm-1.184 1.395v6.758h-4.351zm6.813 3.836c-.305.015-.375.035-.375.195 0 .18.086.18.41.18h.824c1.524 0 2.203 1.254 2.203 2.976 0 2.344-1.218 2.973-2.093 2.973-.864 0-2.332-.41-2.852-1.594.574.09 1.094-.234 1.094-.879 0-.52-.375-.879-.88-.879-.429 0-.894.254-.894.934 0 1.594 1.594 2.902 3.582 2.902 2.133 0 3.711-1.633 3.711-3.441 0-1.648-1.328-2.938-3.047-3.242 1.56-.446 2.563-1.754 2.563-3.153 0-1.418-1.469-2.457-3.207-2.457-1.793 0-3.117 1.094-3.117 2.403 0 .715.554.86.824.86.375 0 .805-.27.805-.806 0-.574-.43-.824-.825-.824-.105 0-.14 0-.195.016.68-1.215 2.363-1.215 2.453-1.215.594 0 1.758.27 1.758 2.023 0 .34-.055 1.344-.574 2.114-.54.789-1.149.843-1.63.86zm14.012-4.696v-.41h-4.317c-2.168 0-2.203-.234-2.273-.574h-.395l-.558 3.582h.394c.055-.32.215-1.433.45-1.629.144-.11 1.488-.11 1.738-.11h3.797l-1.899 2.727c-.484.696-2.293 3.637-2.293 7.004 0 .196 0 .914.734.914.754 0 .754-.699.754-.933v-.895c0-2.668.43-4.746 1.27-5.949z"/><path d="M38.352-5.324c0-.992-.059-1.957-.489-2.867-.488-.993-1.351-1.254-1.933-1.254-.696 0-1.543.347-1.985 1.336-.336.754-.453 1.496-.453 2.785 0 1.16.082 2.031.512 2.879a2.12 2.12 0 0 0 1.91 1.195c1.04 0 1.637-.621 1.984-1.312.43-.899.454-2.067.454-2.762m-2.438 3.836c-.383 0-1.156-.215-1.383-1.52-.133-.715-.133-1.62-.133-2.46 0-.977 0-1.864.192-2.567.203-.8.812-1.172 1.324-1.172.453 0 1.148.277 1.375 1.3.156.684.156 1.626.156 2.438 0 .805 0 1.711-.133 2.438-.226 1.316-.98 1.543-1.398 1.543M82.883-92.91h-.395c-.054.304-.199 1.289-.375 1.578-.125.16-1.148.16-1.683.16h-3.317c.485-.414 1.578-1.559 2.043-1.988 2.723-2.508 3.727-3.442 3.727-5.215 0-2.059-1.633-3.438-3.711-3.438s-3.293 1.774-3.293 3.313c0 .914.785.914.84.914.375 0 .844-.27.844-.844 0-.5-.34-.84-.844-.84-.16 0-.196 0-.25.02.34-1.219 1.308-2.043 2.472-2.043 1.524 0 2.453 1.27 2.453 2.918 0 1.523-.878 2.852-1.898 3.996l-3.617 4.05v.43h6.539zm8.945-2.723c0-1.488-.094-2.937-.738-4.3-.734-1.485-2.024-1.88-2.903-1.88-1.039 0-2.308.52-2.972 2.008-.5 1.125-.68 2.239-.68 4.172 0 1.739.125 3.047.77 4.317.699 1.363 1.933 1.793 2.867 1.793 1.559 0 2.453-.93 2.972-1.97.645-1.343.684-3.1.684-4.14m-3.656 5.75c-.574 0-1.738-.32-2.078-2.273-.2-1.078-.2-2.438-.2-3.692 0-1.468 0-2.793.29-3.851.304-1.199 1.218-1.754 1.988-1.754.68 0 1.719.41 2.059 1.953.234 1.02.234 2.434.234 3.652 0 1.2 0 2.563-.2 3.653-.34 1.972-1.468 2.312-2.093 2.312m12.312-3.027h-.394c-.055.304-.2 1.289-.38 1.578-.124.16-1.144.16-1.683.16h-3.312c.48-.414 1.574-1.559 2.043-1.988 2.723-2.508 3.726-3.442 3.726-5.215 0-2.059-1.632-3.438-3.71-3.438s-3.297 1.774-3.297 3.313c0 .914.789.914.843.914.375 0 .844-.27.844-.844 0-.5-.344-.84-.844-.84-.164 0-.195 0-.25.02.34-1.219 1.305-2.043 2.47-2.043 1.522 0 2.456 1.27 2.456 2.918 0 1.523-.879 2.852-1.898 3.996l-3.621 4.05v.43h6.539zM86.828-8.348c.516.168.934.18 1.063.18 1.351 0 2.21-.992 2.21-1.16 0-.047-.023-.106-.093-.106-.024 0-.047 0-.156.047a3.87 3.87 0 0 1-3.129-.012c-.086-.035-.11-.035-.121-.035-.094 0-.094.07-.094.262v3.55c0 .216 0 .286.14.286.063 0 .075-.012.192-.156a1.81 1.81 0 0 1 1.496-.774c.633 0 .941.586 1.039.79.203.464.215 1.046.215 1.503 0 .453 0 1.137-.336 1.672-.262.43-.727.73-1.254.73-.79 0-1.566-.538-1.781-1.41a.6.6 0 0 0 .191.036c.203 0 .528-.121.528-.528 0-.332-.227-.523-.528-.523-.215 0-.523.105-.523.574 0 1.016.812 2.172 2.136 2.172 1.352 0 2.536-1.133 2.536-2.652 0-1.422-.957-2.606-2.211-2.606-.684 0-1.207.301-1.52.633zm54.531-24.933c0-.414 0-.434-.355-.434-.434.485-1.328 1.149-3.176 1.149v.52c.414 0 1.309 0 2.293-.466v9.332c0 .645-.051.86-1.629.86h-.554v.52c.484-.036 2.222-.036 2.812-.036.594 0 2.313 0 2.797.035v-.52h-.559c-1.574 0-1.629-.214-1.629-.859zM138.141-9.16c0-.274 0-.285-.239-.285-.285.32-.882.765-2.113.765v.344c.274 0 .871 0 1.527-.309v6.223c0 .43-.035.574-1.086.574h-.371v.348c.321-.023 1.481-.023 1.875-.023.395 0 1.543 0 1.864.023v-.348h-.371c-1.051 0-1.086-.144-1.086-.574zm7.812 3.836c0-.992-.058-1.957-.488-2.867-.492-.993-1.352-1.254-1.938-1.254-.691 0-1.543.347-1.984 1.336-.332.754-.453 1.496-.453 2.785 0 1.16.082 2.031.512 2.879a2.13 2.13 0 0 0 1.914 1.195c1.039 0 1.636-.621 1.98-1.312.434-.899.457-2.067.457-2.762m-2.437 3.836c-.383 0-1.161-.215-1.387-1.52-.133-.715-.133-1.62-.133-2.46 0-.977 0-1.864.192-2.567.203-.8.816-1.172 1.328-1.172.453 0 1.148.277 1.375 1.3.156.684.156 1.626.156 2.438 0 .805 0 1.711-.133 2.438-.226 1.316-.98 1.543-1.398 1.543m41.343-86.395c0-.414 0-.43-.355-.43-.434.485-1.328 1.145-3.176 1.145v.52c.414 0 1.309 0 2.293-.465v9.332c0 .648-.051.863-1.629.863h-.554v.52c.484-.04 2.222-.04 2.812-.04.594 0 2.313 0 2.797.04v-.52h-.559c-1.574 0-1.629-.215-1.629-.863zm5.844 5.25c0-4.535 2.203-5.25 3.172-5.25.645 0 1.289.195 1.629.735-.215 0-.895 0-.895.734 0 .395.27.734.735.734.445 0 .75-.27.75-.789 0-.93-.68-1.844-2.239-1.844-2.253 0-4.621 2.313-4.621 6.25 0 4.93 2.149 6.04 3.672 6.04 1.953 0 3.621-1.704 3.621-4.032 0-2.382-1.668-3.976-3.457-3.976-1.597 0-2.187 1.379-2.367 1.883zm2.203 6.125c-1.129 0-1.664-1.004-1.828-1.379-.16-.465-.34-1.344-.34-2.597 0-1.414.645-3.188 2.258-3.188.984 0 1.508.66 1.774 1.27.285.664.285 1.558.285 2.332 0 .91 0 1.718-.336 2.398-.449.86-1.098 1.164-1.813 1.164m12.278-2.902h-.395c-.055.304-.199 1.289-.375 1.578-.125.16-1.148.16-1.687.16h-3.313c.484-.414 1.578-1.559 2.043-1.988 2.723-2.508 3.727-3.442 3.727-5.215 0-2.059-1.633-3.437-3.711-3.437S198.18-86.54 198.18-85c0 .914.785.914.84.914.375 0 .843-.27.843-.844 0-.5-.34-.84-.843-.84-.161 0-.196 0-.25.02.339-1.219 1.308-2.043 2.472-2.043 1.524 0 2.453 1.27 2.453 2.918 0 1.523-.879 2.852-1.898 3.996l-3.617 4.05v.43h6.539zM190.441-9.16c0-.274 0-.285-.238-.285-.289.32-.883.765-2.113.765v.344c.273 0 .871 0 1.527-.309v6.223c0 .43-.035.574-1.086.574h-.371v.348c.32-.023 1.481-.023 1.875-.023.395 0 1.543 0 1.863.023v-.348h-.371c-1.05 0-1.086-.144-1.086-.574zm3.989.812c.515.168.929.18 1.062.18 1.352 0 2.211-.992 2.211-1.16 0-.047-.023-.106-.094-.106-.023 0-.05 0-.156.047a3.88 3.88 0 0 1-3.133-.012c-.082-.035-.105-.035-.117-.035-.098 0-.098.07-.098.262v3.55c0 .216 0 .286.145.286.059 0 .07-.012.191-.156a1.81 1.81 0 0 1 1.493-.774c.636 0 .945.586 1.043.79.203.464.211 1.046.211 1.503 0 .453 0 1.137-.333 1.672-.261.43-.726.73-1.253.73a1.85 1.85 0 0 1-1.782-1.41.6.6 0 0 0 .192.036c.203 0 .527-.121.527-.528 0-.332-.23-.523-.527-.523-.215 0-.528.105-.528.574 0 1.016.813 2.172 2.141 2.172 1.352 0 2.531-1.133 2.531-2.652 0-1.422-.953-2.606-2.211-2.606-.679 0-1.203.301-1.515.633z"/></g></svg>