<svg xmlns="http://www.w3.org/2000/svg" width="1067.161" height="488.89" viewBox="129.292 334.059 800.371 366.667"><g id="page1"><path fill="#f3f3f3" d="m145.481 670.953 2.554-86.74-16.243-82.35 21.252-79.097-7.563-63.624 67.376-6.27 58.543 18.965 13.417-29.943 56.214 45.353 59.569-28.105 24.661 43.472-16.074 67.931-18.441 23.98 23.74 31.683-35.442 62.29 18.07 12.505 3.486 69.95-3.808-7.299-66.691-6.472-43.232 34.772-28.039-28.504-24.635 31.694-30.632-45.09-25.051 13.726z"/><path fill="none" stroke="#000" stroke-linecap="round" stroke-linejoin="round" stroke-miterlimit="10.037" stroke-width="5" d="m145.481 670.953 2.554-86.74-16.243-82.35 21.252-79.097-7.563-63.624h0l67.376-6.27 58.543 18.965 13.417-29.943 56.214 45.353 59.569-28.105h0l24.661 43.472-16.074 67.931-18.441 23.98 23.74 31.683-35.442 62.29 18.07 12.505 3.486 69.95h0l-3.808-7.299-66.691-6.472-43.232 34.772-28.039-28.504-24.635 31.694-30.632-45.09-25.051 13.726z"/><path fill="#ffc0c0" d="m400.6 670.953-3.485-69.95-18.07-12.505 35.442-62.29-23.741-31.684 18.441-23.979 16.074-67.93-24.661-43.473 16.24 16.809 17.412-15.832 36.154 12.572 37.674-24.952 37.83 13.383 17.254-16.448 33.741 35.727 41.046-14.87 17.766-6.389 22.788 11.834-33.826 36.935-15.624 75.872 20.378-.149 29.927 26.62-45.5 80.022 41.98 24.964-45.273 40.784 25.15 14.929-27.04 7.17-21.103 8.227-72.685-29.887-24.353 39.65-38.583-24.638 19.982-1.28-45.575 21.228z"/><path fill="none" stroke="#000" stroke-linecap="round" stroke-linejoin="round" stroke-miterlimit="10.037" stroke-width="5" d="m400.6 670.953-3.485-69.95-18.07-12.505 35.442-62.29-23.741-31.684 18.441-23.979 16.074-67.93-24.661-43.473h0l16.24 16.809 17.412-15.832 36.154 12.572 37.674-24.952 37.83 13.383 17.254-16.448 33.741 35.727 41.046-14.87 17.766-6.389h0l22.788 11.834-33.826 36.935-15.624 75.872 20.378-.149 29.927 26.62-45.5 80.022 41.98 24.964-45.273 40.784 25.15 14.929h0l-27.04 7.17-21.103 8.227-72.685-29.887-24.353 39.65-38.583-24.638 19.982-1.28-45.575 21.228z"/><path fill="#e0ffc0" d="m655.717 670.953-25.15-14.93 45.272-40.783-41.978-24.964 45.5-80.022-29.928-26.62-20.378.149 15.624-75.872 33.826-36.935-22.788-11.834 55.336-19.21 65.658 21.31 51.606-7.052 46.732-17.631 35.786 22.583 11.303 48.31-13.99 22.194 19.015 68.669-37.432 63.356 24.596 8.814 8.268 46.716-11.76 53.752-12.469 19.426-59.493-26.805-13.145 34.652-20.032-10.663-48.642 9.143 4.134-44.307-40.326 5.437-12.525 29.296z"/><path fill="none" stroke="#000" stroke-linecap="round" stroke-linejoin="round" stroke-miterlimit="10.037" stroke-width="5" d="m655.717 670.953-25.15-14.93 45.272-40.783-41.978-24.964 45.5-80.022-29.928-26.62-20.378.149 15.624-75.872 33.826-36.935-22.788-11.834h0l55.336-19.21 65.658 21.31 51.606-7.052 46.732-17.631 35.786 22.583h0l11.303 48.31-13.99 22.194 19.015 68.669-37.432 63.356 24.596 8.814 8.268 46.716-11.76 53.752h0l-12.469 19.426-59.493-26.805-13.145 34.652-20.032-10.663-48.642 9.143 4.134-44.307-40.326 5.437-12.525 29.296z"/><path fill="none" stroke="#c00000" stroke-dasharray="0,12.236961954" stroke-linecap="round" stroke-linejoin="round" stroke-miterlimit="10.037" stroke-width="5.999" d="m223.232 591.84 268.7-18.69"/><path fill="none" stroke="#c00000" stroke-dasharray="0,12.045978912" stroke-linecap="round" stroke-linejoin="round" stroke-miterlimit="10.037" stroke-width="5.999" d="m297.049 427.418 518.187 7.302"/><path fill="none" stroke="#c00000" stroke-dasharray="0,12.125679712000002" stroke-linecap="round" stroke-linejoin="round" stroke-miterlimit="10.037" stroke-width="5.999" d="m577.274 525.721 237.962-91.001"/><path fill="none" stroke="#c00000" stroke-dasharray="0,11.999353944" stroke-linecap="round" stroke-linejoin="round" stroke-miterlimit="10.037" stroke-width="5.999" d="m223.232 591.84 354.042-66.119"/><path fill="none" stroke="#00f" stroke-linecap="round" stroke-linejoin="round" stroke-miterlimit="10.037" stroke-width="4" d="m491.931 573.15 85.343-47.429m257.784 81.712L815.236 434.72"/><path fill="#4a4a4a" fill-rule="evenodd" d="M223.764 570.846a3045 3045 0 0 0-15.042 10.31c-.717 1.063-1.169 2.286-1.754 3.429-1.886 3.853-3.747 7.734-5.633 11.586.451.373 1.169 1.117 1.408.16.133 5.075.266 10.178.505 15.254.292.85-.452 1.488-1.222 1.567-1.356.532-2.711 1.01-4.066 1.516 11.347.132 22.668.212 34.015.292 5.342.053 10.71.106 16.078.133a308 308 0 0 0-4.04-2.18v-15.838c.293.691.852 1.01 1.515.584 1.302-.266-.16-1.461-.319-2.151-2.258-4.2-4.544-8.372-6.802-12.544-1.515-1.489-3.163-2.844-4.73-4.278-3.057-2.738-6.113-5.502-9.222-8.213-.293-.052-.452.266-.691.373m-.213.399c-4.943 3.374-9.886 6.75-14.802 10.125-2.259 4.757-4.624 9.46-6.883 14.243-.664.744.824 1.302.85.293 2.18-4.518 4.439-8.956 6.697-13.42.585-.718 1.489-1.09 2.206-1.674 4.146-2.845 8.265-5.768 12.384-8.638.824.425 1.408 1.17 2.152 1.702 3.668 3.135 7.335 6.244 11.03 9.38 2.285 4.199 4.543 8.371 6.829 12.57-.133.665.186 1.515.824 1.808.983.159 1.089-.93.478-1.489-2.073-3.853-4.2-7.707-6.272-11.586-.478-.984-1.116-1.914-1.993-2.605-3.03-2.658-5.98-5.342-8.982-7.999a386 386 0 0 0-3.588-3.216c-.398-.026-.638.346-.93.506m-.212 1.647c-4.438 3.11-8.85 6.245-13.314 9.301-.957 1.064-1.409 2.471-2.1 3.694a1705 1705 0 0 1-4.97 9.965c.107 5.927.373 11.827.559 17.753.425.664 1.568.106 2.285.292 2.073 0 4.12-.026 6.192-.026 0-6.166.027-12.305.027-18.47h24.342c.133 3.003.08 6.032.16 9.062.053 3.082.105 6.192.185 9.274.744.319 1.595.054 2.392.16h4.65c.08-2.498.028-4.996.055-7.494-.027-3.508-.027-7.043-.027-10.55-2.233-4.092-4.439-8.185-6.697-12.252-.771-.902-1.78-1.567-2.631-2.39-3.376-2.871-6.75-5.714-10.125-8.585-.346-.266-.718.053-.983.266m-1.595 2.764c-.16 2.126.053 4.252.106 6.378.054.93.133 1.887.266 2.79.452-.531-.106-1.647 0-2.418-.186-2.206-.106-4.439-.24-6.67.08-.107-.105-.213-.132-.08m3.96 1.435a47 47 0 0 0 .212 5.82c.479.319.053-1.01.133-1.275-.186-1.808-.08-3.589-.16-5.395-.185-.346-.159.77-.185.85m-7.654 5.447c0 3.216-.106 6.405-.133 9.594.293.346.186-.983.24-1.195.106-4.12.132-8.212.185-12.331-.558.292-.106 1.143-.265 1.674 0 .77 0 1.515-.027 2.258m11.746-1.594c.133 3.854.212 7.707.373 11.534.424-.771 0-1.887.105-2.818-.052-3.03-.239-6.085-.212-9.141-.319-.957-.293.16-.266.425m-14.988-.266c.106 3.933.292 7.894.425 11.826.107.372-.08 1.435.266 1.356.053-1.117-.106-2.26-.106-3.402-.133-3.242-.213-6.511-.399-9.753 0-.053-.133-.16-.186-.027m-3.64 2.445c.238 4.093.398 8.185.478 12.251.372.213.132-1.116.186-1.488a202 202 0 0 0-.452-10.604c0-.132-.133-.557-.213-.159m22.987 2.631c.026 2.658.105 5.342.344 7.972.48-.026 0-1.248.081-1.7q-.24-4.346-.24-8.69c-.372-.532-.16.85-.212 1.09 0 .451.027.903.027 1.328m-11.986 2.365v3.083h4.996v-6.165h-4.996zm.213 0v2.87h4.57v-5.74h-4.57zm.903-.08v2.206h2.711v-4.411h-2.71zm-15.174-.026c-.212 5.421-.106 10.843.186 16.237.16 2.87.399 5.714.691 8.584.478.266.053-1.063.106-1.382a167 167 0 0 1-.823-20.276l.08-3.615c-.266-.266-.213.346-.24.452m29.764.372c.239 4.305.505 8.584.93 12.862.531-.185-.053-1.435.053-1.992a259 259 0 0 1-.77-11.056c-.054-.638-.373-.053-.213.213zm-32.82 5.58c-.213 1.648-.053 3.323-.027 4.97.133 4.12.426 8.265.904 12.357.425.214.027-1.009.08-1.408-.585-5.262-.798-10.577-.904-15.865v-.054zm36.487 1.01c-.132 5.156-.212 10.312.054 15.493.265.719.16-.77.16-1.009-.107-4.757-.08-9.54 0-14.324-.028-.292.238-1.382-.187-1.089 0 .292 0 .61-.027.93m-29.312 9.78v9.142h24.236c-.08-5.74-.185-11.507-.292-17.247.107-.638-.027-1.222-.77-1.037H212.23zm1.86.425c.027 2.631.027 5.263.027 7.893h21.047c-.106-5.235-.265-10.47-.345-15.705-.798-.107-1.622-.027-2.419-.054h-18.31zm.213-7.068c-.133.903.718 1.487 1.063 2.231 2.631 4.04 5.235 8.106 7.84 12.146.212.903 1.886.61 1.142-.373-2.896-4.862-5.873-9.726-8.796-14.589h-1.249zm1.621-.426c1.037 1.728 2.073 3.481 3.136 5.182.691-.08.85-1.222 1.382-1.727.717-1.196 1.541-2.339 2.206-3.561-.479-.106-1.01-.026-1.489-.053h-5.315zm6.83.187c-1.143 1.806-2.286 3.64-3.455 5.474.346.558.877 1.754 1.276.61 1.036-1.62 2.1-3.241 3.136-4.889 0-.478.318-1.648-.479-1.541-.265-.053-.345.08-.478.346m1.17-.24c.265 5.05.504 10.099.796 15.148.479.186 1.728.345 1.356-.585-.133-4.783-.32-9.567-.452-14.35-.292-.558-1.25-.319-1.7-.212m1.913.691c-.16 1.09.451 2.02 1.01 2.87a123 123 0 0 0 2.47 3.96c.506-.532 1.037-1.329.426-1.993-1.063-1.86-2.1-3.774-3.162-5.634-.798-.107-.85.08-.744.797m1.169-.505c1.036 1.887 2.1 3.747 3.163 5.634.717-.426.902-1.515 1.461-2.18a162 162 0 0 0 2.126-3.693c-2.312-.08-4.598-.053-6.91-.053.054.107.107.186.16.292m7.042-.212a1306 1306 0 0 0-7.627 13.1c-.186.612-.319 1.728.133 2.074.478-.718.904-1.489 1.355-2.206 2.233-3.694 4.465-7.414 6.697-11.108v-1.94c-.186 0-.398-.027-.558.08m-19.745 3.986c0 3.002 0 6.005.106 9.009.532-.478.745-1.197 1.196-1.754.798-1.276 1.595-2.578 2.392-3.854-.399-1.01-1.143-1.806-1.674-2.737-.638-1.01-1.276-2.046-1.967-3.03-.106.798-.026 1.595-.053 2.366m9.222-1.807a214 214 0 0 0-2.605 4.065c-.717.56-.664 1.382-.08 1.994 1.09 1.834 2.233 3.667 3.296 5.501.531.478.106-.903.186-1.196-.16-3.534-.32-7.069-.558-10.604-.107-.08-.16.187-.24.24m10.683.77c-.93 1.569-1.86 3.083-2.791 4.624-.106.93.771 1.568 1.063 2.392.797 1.409 1.568 2.844 2.392 4.252.133-1.196-.053-2.392-.027-3.587-.08-2.711-.132-5.449-.239-8.185-.239-.027-.239.398-.398.505m-8.292.213c.133 3.162.213 6.298.346 9.46.638-.45.877-1.434 1.382-2.126.531-.876 1.036-1.753 1.541-2.63-1.063-1.727-2.073-3.455-3.136-5.13-.292-.212-.08.32-.133.426m-9.035 6.458c-.85 1.408-1.78 2.79-2.578 4.199 0 .478.027.956.027 1.434.903.16.983-1.142 1.514-1.594 1.037-1.595 2.073-3.163 3.057-4.784.026-.664-.824-1.78-1.143-.637-.292.451-.585.93-.877 1.382m13.846-.93c-.16.345-.558.664-.134 1.01 1.17 1.86 2.312 3.72 3.482 5.58.451.106 1.01-.053.77-.637-1.248-2.18-2.445-4.386-3.694-6.565-.185.187-.292.399-.424.611m-11.88.743c-1.222 1.887-2.471 3.774-3.64 5.688.717.372 1.568.026 2.365.16 1.833 0 3.667.025 5.5-.054-.424-1.01-1.195-1.887-1.753-2.844-.691-1.089-1.382-2.179-2.126-3.242-.186-.106-.24.213-.346.292m11.242.346c-1.063 1.78-2.126 3.535-3.19 5.315.877.399 1.967.08 2.95.186 1.276 0 2.578 0 3.853-.053-.291-.797-.903-1.408-1.302-2.18-.717-1.142-1.381-2.312-2.152-3.427-.08-.027-.106.132-.159.186zm-27.426 5.766c-1.169.426-2.312.878-3.481 1.303 13.128.186 26.283.213 39.41.345 2.818.027 5.634.054 8.451.054-.93-.639-1.966-1.117-2.976-1.648.106.718-.213 1.036-.877.904H203.3c-.08-.505.266-1.489-.638-.958"/><path fill="#9cba3f" fill-rule="evenodd" d="M202.663 613.152c-1.169.426-2.312.878-3.481 1.303 13.128.186 26.283.213 39.41.345 2.818.027 5.634.054 8.451.054-.93-.639-1.966-1.117-2.976-1.648.106.718-.213 1.036-.877.904H203.3c-.08-.505.266-1.489-.638-.958"/><path fill="#f2edb5" fill-rule="evenodd" d="M223.365 571.377c-4.863 3.348-9.753 6.67-14.59 10.018-2.391 4.917-4.783 9.807-7.175 14.723 1.143 1.036 1.33-1.063 1.834-1.7 1.913-3.88 3.8-7.76 5.793-11.56.426-1.01 1.568-1.356 2.339-2.02 4.172-2.87 8.291-5.794 12.437-8.69.824.399 1.382 1.143 2.126 1.7 3.614 3.083 7.282 6.14 10.87 9.25.823 1.062 1.328 2.337 2.019 3.48 1.674 3.082 3.321 6.139 4.996 9.221-.24.904.637 2.366 1.62 1.569.4-.692-.664-1.436-.85-2.153-2.179-4.013-4.33-8.026-6.51-12.038-1.064-1.17-2.339-2.1-3.455-3.19-3.322-2.95-6.617-5.9-9.94-8.849-.371-.717-1.115-.053-1.514.24m-.957 13.952c-.053 1.86-.026 3.72 0 5.58 1.515.16 3.03.054 4.545.08v-5.74c-1.488.027-3.003-.053-4.491.054zm.877 4.916h2.711v-4.411h-2.71zm-11.055 14.51v9.142c8-.026 15.998.027 23.997-.053.558-.612.054-1.78.186-2.631-.08-5.209-.16-10.391-.266-15.6H212.23zm1.86.452v7.893h21.1c-.159-5.262-.238-10.524-.398-15.786h-20.701zm.213-7.122c-.106.877.718 1.461 1.037 2.179 2.604 4.04 5.235 8.078 7.84 12.118.105.93 1.833.797 1.168-.213-1.594-2.71-3.268-5.394-4.89-8.105-1.275-2.126-2.55-4.278-3.853-6.405-.398-.212-1.568-.371-1.302.426m8.504-.266c-1.116 1.834-2.312 3.641-3.428 5.474.186.692.85 1.675 1.222.558 1.09-1.62 2.126-3.268 3.163-4.915.08-.612-.027-1.941-.904-1.223zm1.143.186c.266 4.943.505 9.86.77 14.803.771.398 1.621-.08 1.33-.984-.134-4.624-.293-9.248-.453-13.872.054-.584-.531-.398-.903-.425-.32.053-.983-.213-.744.372zm1.913.558c-.106.797.213 1.515.691 2.126.904 1.462 1.78 2.977 2.764 4.412.797-.611.85-1.674.16-2.366-.984-1.753-1.94-3.48-2.924-5.208-.797-.266-.77.398-.69.93v.106m7.84-.371c-2.445 4.198-4.89 8.424-7.335 12.622-.106.532-.24 1.86.213 1.887.425-.532.664-1.195 1.063-1.727 2.312-3.854 4.65-7.707 6.962-11.534-.107-.558.346-2.152-.585-1.806-.132.185-.185.398-.319.558m-15.706 7.307c-1.196 1.887-2.365 3.774-3.534 5.634-.16.505-.293 2.233.505 1.461 1.328-2.072 2.684-4.145 4.012-6.244-.239-.16-.61-1.541-.983-.85m12.942.478c-.744.665-.319 1.648.239 2.26.983 1.541 1.94 3.11 2.923 4.65 1.037.133.744-1.01.24-1.461-1.064-1.914-2.1-3.828-3.216-5.714-.106.08-.106.213-.186.265"/><path fill="olive" fill-rule="evenodd" d="M223.339 572.892c-4.438 3.11-8.85 6.245-13.314 9.301-.957 1.064-1.409 2.471-2.1 3.694a1705 1705 0 0 1-4.97 9.965c.107 5.927.373 11.827.559 17.753.425.664 1.568.106 2.285.292 2.073 0 4.12-.026 6.192-.026 0-6.166.027-12.305.027-18.47h24.342c.133 3.003.08 6.032.16 9.062.053 3.082.105 6.192.185 9.274.744.319 1.595.054 2.392.16h4.65c.08-2.498.028-4.996.055-7.494-.027-3.508-.027-7.043-.027-10.55-2.233-4.092-4.439-8.185-6.697-12.252-.771-.902-1.78-1.567-2.631-2.39-3.376-2.871-6.75-5.714-10.125-8.585-.346-.266-.718.053-.983.266m-1.595 2.764c-.16 2.126.053 4.252.106 6.378.054.93.133 1.887.266 2.79.452-.531-.106-1.647 0-2.418-.186-2.206-.106-4.439-.24-6.67.08-.107-.105-.213-.132-.08m3.96 1.435a47 47 0 0 0 .212 5.82c.479.319.053-1.01.133-1.275-.186-1.808-.08-3.589-.16-5.395-.185-.346-.159.77-.185.85m-7.654 5.447c0 3.216-.106 6.405-.133 9.594.293.346.186-.983.24-1.195.106-4.12.132-8.212.185-12.331-.558.292-.106 1.143-.265 1.674 0 .77 0 1.515-.027 2.258m11.746-1.594c.133 3.854.212 7.707.373 11.534.424-.771 0-1.887.105-2.818-.052-3.03-.239-6.085-.212-9.141-.319-.957-.293.16-.266.425m-14.988-.266c.106 3.933.292 7.894.425 11.826.107.372-.08 1.435.266 1.356.053-1.117-.106-2.26-.106-3.402-.133-3.242-.213-6.511-.399-9.753 0-.053-.133-.16-.186-.027m-3.64 2.445c.238 4.093.398 8.185.478 12.251.372.213.132-1.116.186-1.488a202 202 0 0 0-.452-10.604c0-.132-.133-.557-.213-.159m22.987 2.631c.026 2.658.105 5.342.344 7.972.48-.026 0-1.248.081-1.7q-.24-4.346-.24-8.69c-.372-.532-.16.85-.212 1.09 0 .451.027.903.027 1.328m-11.986 2.365v3.083h4.996v-6.165h-4.996zm-14.058-.106c-.212 5.421-.106 10.843.186 16.237.16 2.87.399 5.714.691 8.584.478.266.053-1.063.106-1.382a167 167 0 0 1-.823-20.276l.08-3.615c-.266-.266-.213.346-.24.452m29.764.372c.239 4.305.505 8.584.93 12.862.531-.185-.053-1.435.053-1.992a259 259 0 0 1-.77-11.056c-.054-.638-.373-.053-.213.213zm-32.82 5.58c-.213 1.648-.053 3.323-.027 4.97.133 4.12.426 8.265.904 12.357.425.214.027-1.009.08-1.408-.585-5.262-.798-10.577-.904-15.865v-.054zm36.487 1.01c-.132 5.156-.212 10.312.054 15.493.265.719.16-.77.16-1.009-.107-4.757-.08-9.54 0-14.324-.028-.292.238-1.382-.187-1.089 0 .292 0 .61-.027.93m-25.618 2.711c1.037 1.728 2.073 3.481 3.136 5.182.691-.08.85-1.222 1.382-1.727.717-1.196 1.541-2.339 2.206-3.561-.479-.106-1.01-.026-1.489-.053h-5.315zm11.082.133c1.036 1.887 2.1 3.747 3.163 5.634.717-.426.902-1.515 1.461-2.18a162 162 0 0 0 2.126-3.693c-2.312-.08-4.598-.053-6.91-.053.054.107.107.186.16.292m-12.703 3.774c0 3.002 0 6.005.106 9.009.532-.478.745-1.197 1.196-1.754.798-1.276 1.595-2.578 2.392-3.854-.399-1.01-1.143-1.806-1.674-2.737-.638-1.01-1.276-2.046-1.967-3.03-.106.798-.026 1.595-.053 2.366m9.222-1.807a214 214 0 0 0-2.605 4.065c-.717.56-.664 1.382-.08 1.994 1.09 1.834 2.233 3.667 3.296 5.501.531.478.106-.903.186-1.196-.16-3.534-.32-7.069-.558-10.604-.107-.08-.16.187-.24.24m10.683.77c-.93 1.569-1.86 3.083-2.791 4.624-.106.93.771 1.568 1.063 2.392.797 1.409 1.568 2.844 2.392 4.252.133-1.196-.053-2.392-.027-3.587-.08-2.711-.132-5.449-.239-8.185-.239-.027-.239.398-.398.505m-8.292.213c.133 3.162.213 6.298.346 9.46.638-.45.877-1.434 1.382-2.126.531-.876 1.036-1.753 1.541-2.63-1.063-1.727-2.073-3.455-3.136-5.13-.292-.212-.08.32-.133.426m-7.069 6.271c-1.222 1.887-2.471 3.774-3.64 5.688.717.372 1.568.026 2.365.16 1.833 0 3.667.025 5.5-.054-.424-1.01-1.195-1.887-1.753-2.844-.691-1.089-1.382-2.179-2.126-3.242-.186-.106-.24.213-.346.292m11.242.373a915 915 0 0 0-3.19 5.288c.877.399 1.967.08 2.95.186 1.276 0 2.578 0 3.853-.053-.291-.797-.903-1.408-1.302-2.18-.717-1.142-1.381-2.312-2.152-3.427-.08-.027-.106.132-.159.186"/><path fill="#4a4a4a" fill-rule="evenodd" d="M297.58 406.423a2984 2984 0 0 0-15.04 10.311c-.718 1.063-1.17 2.286-1.755 3.429-1.887 3.853-3.747 7.733-5.634 11.586.452.372 1.17 1.116 1.409.16.132 5.075.266 10.178.505 15.254.292.85-.452 1.488-1.223 1.568-1.355.531-2.71 1.01-4.065 1.514a7143 7143 0 0 0 34.015.292c5.341.054 10.71.107 16.078.134a302 302 0 0 0-4.04-2.18v-15.838c.293.69.85 1.01 1.515.584 1.302-.265-.16-1.461-.319-2.152-2.259-4.199-4.544-8.371-6.803-12.543-1.514-1.489-3.162-2.844-4.73-4.279-3.056-2.737-6.112-5.5-9.222-8.212-.292-.053-.451.266-.69.372m-.212.399c-4.943 3.375-9.886 6.75-14.803 10.125-2.258 4.757-4.623 9.46-6.882 14.244-.664.744.824 1.302.85.292 2.18-4.517 4.438-8.955 6.697-13.42.585-.717 1.488-1.09 2.205-1.674 4.147-2.843 8.265-5.767 12.385-8.637.823.425 1.408 1.17 2.152 1.701 3.667 3.136 7.334 6.245 11.029 9.38 2.285 4.2 4.544 8.372 6.829 12.57-.133.665.186 1.515.824 1.808.983.16 1.09-.93.48-1.488-2.074-3.854-4.2-7.707-6.273-11.587-.479-.983-1.116-1.913-1.993-2.604-3.03-2.658-5.98-5.342-8.982-8a406 406 0 0 0-3.588-3.215c-.398-.026-.637.346-.93.505m-.212 1.648c-4.439 3.109-8.85 6.245-13.315 9.3-.956 1.064-1.408 2.472-2.099 3.695a1714 1714 0 0 1-4.97 9.965c.107 5.927.373 11.827.559 17.752.424.665 1.567.107 2.285.292 2.073 0 4.119-.026 6.192-.026 0-6.166.026-12.305.026-18.47h24.343c.133 3.003.08 6.033.16 9.063.053 3.082.106 6.191.185 9.274.745.319 1.594.054 2.392.16h4.651c.08-2.498.026-4.996.053-7.495-.027-3.508-.027-7.042-.027-10.55-2.232-4.092-4.437-8.185-6.697-12.25-.77-.904-1.78-1.569-2.63-2.392-3.375-2.87-6.75-5.714-10.125-8.584-.346-.266-.718.053-.983.266m-1.596 2.763c-.159 2.126.054 4.252.107 6.378.053.93.133 1.887.266 2.79.451-.53-.107-1.647 0-2.418-.186-2.205-.107-4.437-.239-6.67.08-.106-.107-.212-.134-.08m3.96 1.436a47 47 0 0 0 .213 5.82c.478.318.053-1.01.133-1.276-.186-1.807-.08-3.588-.16-5.395-.185-.345-.16.77-.185.85m-7.653 5.447c0 3.216-.106 6.405-.133 9.594.293.345.186-.983.239-1.196.107-4.12.133-8.212.186-12.33-.558.292-.106 1.142-.266 1.673 0 .771 0 1.515-.026 2.26m11.746-1.594c.133 3.853.212 7.707.372 11.533.425-.77 0-1.887.107-2.817-.054-3.03-.24-6.085-.214-9.141-.319-.957-.292.16-.265.425m-14.988-.266c.106 3.933.292 7.893.425 11.826.107.372-.08 1.435.266 1.355.053-1.116-.107-2.259-.107-3.401-.132-3.242-.212-6.511-.398-9.753 0-.053-.133-.16-.186-.027m-3.64 2.445c.238 4.093.398 8.185.477 12.251.372.213.133-1.116.187-1.488a203 203 0 0 0-.453-10.604c0-.132-.132-.558-.212-.159m22.986 2.63c.027 2.658.107 5.342.346 7.973.478-.026 0-1.249.08-1.7q-.24-4.346-.24-8.69c-.371-.532-.16.85-.212 1.09 0 .45.026.903.026 1.328m-11.985 2.366v3.083h4.996v-6.166h-4.996zm.212 0v2.87h4.571v-5.74h-4.57zm.904-.08v2.206h2.71v-4.411h-2.71zm-15.174-.026c-.213 5.421-.106 10.843.186 16.237.16 2.87.398 5.714.691 8.583.479.266.053-1.063.106-1.382a167 167 0 0 1-.824-20.276l.08-3.614c-.265-.266-.212.345-.24.452m29.764.372c.24 4.305.504 8.583.93 12.862.532-.186-.053-1.435.053-1.993a261 261 0 0 1-.77-11.055c-.054-.638-.372-.053-.213.212zm-32.82 5.58c-.213 1.648-.054 3.322-.027 4.97.133 4.119.426 8.264.904 12.357.425.213.027-1.01.08-1.408-.585-5.262-.798-10.577-.904-15.865v-.053zm36.487 1.01c-.133 5.156-.213 10.311.053 15.493.266.718.16-.77.16-1.01-.107-4.756-.08-9.54 0-14.323-.027-.293.239-1.382-.187-1.09 0 .293 0 .611-.026.93m-29.312 9.78v9.141h24.236c-.08-5.74-.186-11.507-.293-17.246.107-.638-.026-1.223-.77-1.037h-23.173zm1.86.425c.027 2.631.027 5.262.027 7.893h21.047c-.106-5.235-.266-10.47-.346-15.706-.797-.106-1.62-.027-2.417-.053h-18.31zm.212-7.069c-.132.904.719 1.489 1.063 2.232 2.632 4.04 5.236 8.106 7.84 12.145.213.904 1.887.611 1.143-.372-2.896-4.863-5.873-9.727-8.796-14.59h-1.25zm1.622-.425c1.036 1.728 2.073 3.48 3.136 5.183.691-.08.85-1.223 1.381-1.728.718-1.196 1.542-2.34 2.206-3.561-.478-.107-1.01-.027-1.488-.053h-5.314q.038.08.08.159m6.83.186c-1.143 1.808-2.286 3.64-3.455 5.475.345.558.876 1.753 1.276.61 1.036-1.62 2.099-3.241 3.135-4.89 0-.477.319-1.647-.478-1.54-.266-.054-.346.08-.478.345m1.17-.24c.264 5.05.503 10.1.796 15.148.479.187 1.728.346 1.355-.584-.132-4.783-.319-9.568-.451-14.35-.293-.559-1.25-.32-1.7-.213m1.912.692c-.16 1.09.452 2.019 1.01 2.87a124 124 0 0 0 2.471 3.96c.505-.532 1.037-1.329.425-1.994-1.063-1.86-2.099-3.773-3.162-5.633-.797-.107-.85.08-.744.797m1.17-.505c1.036 1.886 2.099 3.746 3.162 5.633.717-.424.904-1.514 1.461-2.178.718-1.223 1.436-2.445 2.126-3.694-2.312-.08-4.597-.053-6.909-.053.053.106.106.186.16.292m7.042-.213a1287 1287 0 0 0-7.627 13.101c-.186.612-.319 1.728.132 2.073.479-.717.904-1.488 1.356-2.205 2.232-3.694 4.465-7.415 6.697-11.109v-1.94c-.186 0-.398-.026-.558.08m-19.746 3.986c0 3.003 0 6.007.107 9.01.532-.479.744-1.197 1.196-1.755.798-1.275 1.595-2.577 2.392-3.853-.399-1.01-1.143-1.807-1.674-2.737-.639-1.01-1.276-2.046-1.967-3.03-.106.797-.027 1.595-.054 2.365m9.222-1.807a217 217 0 0 0-2.604 4.066c-.718.559-.665 1.383-.08 1.993 1.09 1.835 2.233 3.668 3.296 5.502.53.478.106-.904.186-1.197-.16-3.534-.319-7.068-.558-10.603-.107-.08-.16.186-.24.24m10.684.771c-.93 1.568-1.861 3.083-2.79 4.624-.107.93.77 1.568 1.062 2.392.797 1.409 1.568 2.843 2.391 4.252.134-1.197-.053-2.392-.026-3.588-.08-2.71-.133-5.447-.239-8.185-.239-.027-.239.399-.398.505m-8.292.212c.133 3.164.213 6.299.346 9.46.637-.45.876-1.434 1.381-2.125a139 139 0 0 0 1.542-2.63c-1.063-1.728-2.074-3.455-3.136-5.13-.293-.212-.08.32-.133.425m-9.035 6.458c-.851 1.409-1.78 2.79-2.579 4.2 0 .478.027.956.027 1.434.904.16.984-1.143 1.516-1.594 1.036-1.595 2.072-3.163 3.055-4.784.027-.665-.824-1.78-1.143-.638-.291.453-.584.93-.876 1.382m13.845-.93c-.16.345-.558.664-.133 1.01 1.17 1.86 2.313 3.721 3.481 5.581.453.106 1.01-.054.771-.638-1.249-2.18-2.444-4.385-3.694-6.564-.186.186-.292.398-.425.612m-11.879.744c-1.222 1.887-2.471 3.774-3.641 5.688.718.371 1.568.025 2.365.159 1.834 0 3.667.026 5.502-.054-.426-1.009-1.196-1.886-1.755-2.843-.69-1.09-1.382-2.179-2.125-3.242-.186-.107-.24.212-.346.292m11.241.346c-1.063 1.78-2.126 3.534-3.189 5.315.877.398 1.967.08 2.95.186 1.275 0 2.577 0 3.854-.054-.293-.797-.904-1.408-1.302-2.179-.718-1.142-1.382-2.312-2.153-3.428-.08-.027-.107.134-.16.187zm-27.425 5.767c-1.17.424-2.312.877-3.48 1.302 13.127.185 26.282.212 39.41.345 2.816.027 5.633.054 8.45.054-.93-.638-1.967-1.117-2.976-1.648.106.717-.213 1.036-.877.903h-39.89c-.079-.505.267-1.488-.637-.956"/><path fill="#9cba3f" fill-rule="evenodd" d="M276.48 448.731c-1.17.424-2.312.877-3.48 1.302 13.127.185 26.282.212 39.41.345 2.816.027 5.633.054 8.45.054-.93-.638-1.967-1.117-2.976-1.648.106.717-.213 1.036-.877.903h-39.89c-.079-.505.267-1.488-.637-.956"/><path fill="#f2edb5" fill-rule="evenodd" d="M297.181 406.955c-4.862 3.348-9.752 6.67-14.589 10.019-2.392 4.916-4.783 9.806-7.175 14.722 1.143 1.036 1.329-1.063 1.834-1.7 1.913-3.88 3.8-7.76 5.793-11.56.425-1.01 1.568-1.356 2.339-2.02 4.172-2.87 8.29-5.794 12.437-8.69.823.398 1.382 1.142 2.126 1.7 3.613 3.083 7.28 6.14 10.868 9.248.824 1.063 1.33 2.339 2.02 3.482 1.674 3.082 3.322 6.139 4.996 9.221-.24.904.639 2.365 1.622 1.568.398-.69-.665-1.435-.85-2.152-2.18-4.013-4.333-8.026-6.511-12.039-1.064-1.17-2.34-2.1-3.456-3.189-3.321-2.95-6.617-5.9-9.938-8.85-.373-.717-1.116-.052-1.516.24m-.956 13.952c-.053 1.86-.027 3.72 0 5.58 1.515.16 3.03.054 4.544.08v-5.74c-1.487.027-3.003-.053-4.491.053zm.877 4.916h2.71v-4.411h-2.71zm-11.055 14.51v9.141c8-.026 15.998.027 23.997-.053.558-.61.053-1.78.186-2.63-.08-5.21-.159-10.39-.266-15.6h-23.917zm1.86.452v7.892h21.101c-.16-5.261-.24-10.523-.4-15.785h-20.7zm.212-7.122c-.105.876.719 1.461 1.038 2.178 2.604 4.04 5.235 8.079 7.84 12.119.105.93 1.832.797 1.168-.212-1.594-2.711-3.269-5.395-4.89-8.106-1.275-2.126-2.55-4.279-3.853-6.405-.399-.212-1.568-.372-1.303.426m8.505-.266c-1.116 1.834-2.312 3.64-3.429 5.474.187.691.851 1.675 1.223.558 1.09-1.621 2.126-3.268 3.163-4.916.08-.611-.027-1.94-.904-1.222zm1.142.186c.266 4.943.505 9.859.771 14.802.77.399 1.621-.08 1.33-.983-.134-4.625-.294-9.248-.453-13.872.053-.585-.531-.399-.904-.425-.318.053-.983-.213-.744.372zm1.914.558c-.107.797.212 1.515.69 2.126.904 1.461 1.782 2.977 2.764 4.411.798-.61.85-1.674.16-2.365-.983-1.753-1.94-3.48-2.924-5.208-.797-.266-.77.398-.69.93zm7.84-.372c-2.445 4.198-4.89 8.424-7.335 12.623-.106.532-.239 1.86.212 1.887.426-.531.665-1.196 1.063-1.728 2.313-3.853 4.65-7.706 6.963-11.533-.106-.559.345-2.153-.585-1.807-.133.186-.186.398-.318.558m-15.706 7.308c-1.196 1.887-2.366 3.774-3.535 5.634-.16.505-.292 2.232.505 1.461 1.329-2.072 2.684-4.145 4.013-6.245-.24-.159-.61-1.54-.983-.85m12.942.478c-.744.664-.319 1.648.24 2.26.982 1.54 1.939 3.109 2.922 4.65 1.036.132.744-1.01.24-1.462-1.064-1.913-2.1-3.826-3.217-5.713-.105.08-.105.212-.185.265"/><path fill="olive" fill-rule="evenodd" d="M297.156 408.47c-4.439 3.109-8.85 6.245-13.315 9.3-.956 1.064-1.408 2.472-2.099 3.695a1714 1714 0 0 1-4.97 9.965c.107 5.927.373 11.827.559 17.752.424.665 1.567.107 2.285.292 2.073 0 4.119-.026 6.192-.026 0-6.166.026-12.305.026-18.47h24.343c.133 3.003.08 6.033.16 9.063.053 3.082.106 6.191.185 9.274.745.319 1.594.054 2.392.16h4.651c.08-2.498.026-4.996.053-7.495-.027-3.508-.027-7.042-.027-10.55-2.232-4.092-4.437-8.185-6.697-12.25-.77-.904-1.78-1.569-2.63-2.392-3.375-2.87-6.75-5.714-10.125-8.584-.346-.266-.718.053-.983.266m-1.596 2.763c-.159 2.126.054 4.252.107 6.378.053.93.133 1.887.266 2.79.451-.53-.107-1.647 0-2.418-.186-2.205-.107-4.437-.239-6.67.08-.106-.107-.212-.134-.08m3.96 1.436a47 47 0 0 0 .213 5.82c.478.318.053-1.01.133-1.276-.186-1.807-.08-3.588-.16-5.395-.185-.345-.16.77-.185.85m-7.653 5.447c0 3.216-.106 6.405-.133 9.594.293.345.186-.983.239-1.196.107-4.12.133-8.212.186-12.33-.558.292-.106 1.142-.266 1.673 0 .771 0 1.515-.026 2.26m11.746-1.594c.133 3.853.212 7.707.372 11.533.425-.77 0-1.887.107-2.817-.054-3.03-.24-6.085-.214-9.141-.319-.957-.292.16-.265.425m-14.988-.266c.106 3.933.292 7.893.425 11.826.107.372-.08 1.435.266 1.355.053-1.116-.107-2.259-.107-3.401-.132-3.242-.212-6.511-.398-9.753 0-.053-.133-.16-.186-.027m-3.64 2.445c.238 4.093.398 8.185.477 12.251.372.213.133-1.116.187-1.488a203 203 0 0 0-.453-10.604c0-.132-.132-.558-.212-.159m22.986 2.63c.027 2.658.107 5.342.346 7.973.478-.026 0-1.249.08-1.7q-.24-4.346-.24-8.69c-.371-.532-.16.85-.212 1.09 0 .45.026.903.026 1.328m-11.985 2.366v3.083h4.996v-6.166h-4.996zm-14.058-.106c-.213 5.421-.106 10.843.186 16.237.16 2.87.398 5.714.691 8.583.479.266.053-1.063.106-1.382a167 167 0 0 1-.824-20.276l.08-3.614c-.265-.266-.212.345-.24.452m29.764.372c.24 4.305.504 8.583.93 12.862.532-.186-.053-1.435.053-1.993a261 261 0 0 1-.77-11.055c-.054-.638-.372-.053-.213.212zm-32.82 5.58c-.213 1.648-.054 3.322-.027 4.97.133 4.119.426 8.264.904 12.357.425.213.027-1.01.08-1.408-.585-5.262-.798-10.577-.904-15.865v-.053zm36.487 1.01c-.133 5.156-.213 10.311.053 15.493.266.718.16-.77.16-1.01-.107-4.756-.08-9.54 0-14.323-.027-.293.239-1.382-.187-1.09 0 .293 0 .611-.026.93m-25.618 2.711c1.036 1.728 2.073 3.48 3.136 5.183.691-.08.85-1.223 1.381-1.728.718-1.196 1.542-2.34 2.206-3.561-.478-.107-1.01-.027-1.488-.053h-5.314q.038.08.08.159m11.082.133c1.036 1.886 2.099 3.746 3.162 5.633.717-.424.904-1.514 1.461-2.178.718-1.223 1.436-2.445 2.126-3.694-2.312-.08-4.597-.053-6.909-.053.053.106.106.186.16.292m-12.704 3.773c0 3.003 0 6.007.107 9.01.532-.479.744-1.197 1.196-1.755.798-1.275 1.595-2.577 2.392-3.853-.399-1.01-1.143-1.807-1.674-2.737-.639-1.01-1.276-2.046-1.967-3.03-.106.797-.027 1.595-.054 2.365m9.222-1.807a217 217 0 0 0-2.604 4.066c-.718.559-.665 1.383-.08 1.993 1.09 1.835 2.233 3.668 3.296 5.502.53.478.106-.904.186-1.197-.16-3.534-.319-7.068-.558-10.603-.107-.08-.16.186-.24.24m10.684.771c-.93 1.568-1.861 3.083-2.79 4.624-.107.93.77 1.568 1.062 2.392.797 1.409 1.568 2.843 2.391 4.252.134-1.197-.053-2.392-.026-3.588-.08-2.71-.133-5.447-.239-8.185-.239-.027-.239.399-.398.505m-8.292.212c.133 3.164.213 6.299.346 9.46.637-.45.876-1.434 1.381-2.125a139 139 0 0 0 1.542-2.63c-1.063-1.728-2.074-3.455-3.136-5.13-.293-.212-.08.32-.133.425m-7.069 6.272c-1.222 1.887-2.471 3.774-3.641 5.688.718.371 1.568.025 2.365.159 1.834 0 3.667.026 5.502-.054-.426-1.009-1.196-1.886-1.755-2.843-.69-1.09-1.382-2.179-2.125-3.242-.186-.107-.24.212-.346.292m11.241.373a915 915 0 0 0-3.189 5.288c.877.398 1.967.08 2.95.186 1.275 0 2.577 0 3.854-.054-.293-.797-.904-1.408-1.302-2.179-.718-1.142-1.382-2.312-2.153-3.428-.08-.027-.107.134-.16.187"/><path fill="#4a4a4a" fill-rule="evenodd" d="M492.462 552.155c-5.022 3.428-10.045 6.856-15.04 10.31-.719 1.063-1.17 2.286-1.755 3.429-1.887 3.853-3.747 7.734-5.634 11.586.453.373 1.17 1.117 1.409.16.132 5.076.266 10.178.505 15.254.292.85-.452 1.488-1.222 1.567-1.356.532-2.711 1.01-4.067 1.516 11.347.132 22.669.212 34.016.292 5.341.054 10.71.106 16.078.133a308 308 0 0 0-4.04-2.18v-15.838c.293.691.851 1.01 1.515.585 1.303-.265-.159-1.462-.318-2.152-2.26-4.2-4.545-8.372-6.804-12.544-1.514-1.488-3.162-2.844-4.73-4.278-3.057-2.738-6.112-5.502-9.221-8.212-.293-.053-.453.266-.692.372m-.212.399c-4.943 3.375-9.886 6.75-14.803 10.125-2.258 4.757-4.623 9.46-6.882 14.243-.664.744.824 1.302.85.293 2.179-4.518 4.438-8.956 6.697-13.42.585-.718 1.488-1.09 2.206-1.674 4.145-2.845 8.265-5.768 12.383-8.638.824.426 1.409 1.17 2.153 1.702 3.667 3.135 7.335 6.244 11.029 9.38 2.285 4.199 4.544 8.371 6.83 12.57-.133.665.185 1.515.823 1.808.983.16 1.09-.93.478-1.489-2.072-3.853-4.198-7.707-6.271-11.586-.478-.984-1.116-1.914-1.993-2.605-3.03-2.658-5.98-5.341-8.982-7.999a400 400 0 0 0-3.588-3.215c-.4-.027-.638.345-.93.505m-.212 1.647c-4.439 3.11-8.85 6.245-13.314 9.302-.958 1.063-1.41 2.47-2.1 3.693a1627 1627 0 0 1-4.97 9.965c.107 5.927.373 11.827.558 17.753.425.664 1.568.106 2.285.292 2.074 0 4.12-.026 6.193-.026 0-6.166.026-12.305.026-18.47h24.343c.132 3.003.08 6.032.16 9.062.052 3.083.106 6.192.186 9.274.744.32 1.594.054 2.392.16h4.65c.08-2.498.026-4.996.053-7.494-.027-3.508-.027-7.043-.027-10.55-2.232-4.092-4.437-8.185-6.697-12.252-.77-.902-1.78-1.567-2.631-2.39-3.374-2.871-6.75-5.714-10.124-8.585-.346-.266-.718.053-.983.266m-1.595 2.764c-.16 2.126.052 4.252.106 6.378.053.93.133 1.887.266 2.79.452-.531-.106-1.647 0-2.418-.186-2.206-.106-4.439-.24-6.67.08-.107-.105-.213-.132-.08m3.96 1.435a47 47 0 0 0 .212 5.82c.478.319.053-1.01.133-1.275-.186-1.808-.08-3.588-.16-5.395-.185-.346-.16.77-.185.85m-7.654 5.448c0 3.215-.106 6.404-.133 9.593.292.346.186-.983.24-1.195.106-4.12.132-8.212.185-12.331-.557.292-.106 1.143-.266 1.674 0 .77 0 1.515-.026 2.26m11.745-1.595c.134 3.854.214 7.707.373 11.534.425-.771 0-1.887.107-2.817-.054-3.03-.24-6.086-.214-9.142-.318-.957-.291.16-.266.425m-14.987-.266c.106 3.934.292 7.894.425 11.826.107.373-.08 1.436.266 1.356.053-1.117-.107-2.26-.107-3.402-.132-3.242-.212-6.511-.398-9.753 0-.053-.134-.16-.186-.027m-3.64 2.445c.238 4.093.398 8.185.478 12.251.371.213.132-1.116.186-1.488a203 203 0 0 0-.452-10.603c0-.133-.133-.558-.213-.16m22.986 2.631c.027 2.658.107 5.342.346 7.972.478-.026 0-1.248.08-1.7q-.24-4.345-.24-8.69c-.372-.532-.159.85-.213 1.09 0 .452.027.903.027 1.328m-11.985 2.365v3.083h4.996v-6.165h-4.996zm.212 0v2.87h4.571v-5.74h-4.57zm.904-.08v2.206h2.71v-4.411h-2.71zm-15.174-.026c-.212 5.421-.107 10.843.186 16.238.16 2.87.399 5.713.69 8.583.48.266.054-1.063.107-1.382a167 167 0 0 1-.824-20.276l.08-3.615c-.266-.266-.212.346-.24.452m29.764.372c.24 4.305.504 8.584.93 12.862.532-.185-.053-1.434.053-1.992a262 262 0 0 1-.77-11.056c-.053-.638-.373-.053-.213.213zm-32.82 5.581c-.213 1.647-.054 3.322-.027 4.97.133 4.118.426 8.264.904 12.356.425.214.026-1.009.08-1.407-.585-5.263-.797-10.578-.904-15.866v-.053zm36.487 1.01c-.133 5.155-.213 10.311.053 15.493.266.718.16-.77.16-1.01-.107-4.757-.08-9.54 0-14.324-.027-.292.239-1.382-.187-1.089 0 .292 0 .61-.026.93m-29.312 9.779v9.142h24.236c-.08-5.74-.186-11.507-.292-17.247.106-.638-.026-1.222-.77-1.037h-23.174zm1.86.425c.027 2.632.027 5.263.027 7.893h21.047c-.106-5.235-.266-10.47-.345-15.705-.797-.107-1.621-.027-2.418-.053h-18.31zm.213-7.068c-.133.904.717 1.488 1.063 2.232 2.63 4.04 5.235 8.105 7.84 12.145.212.904 1.886.61 1.142-.373-2.896-4.862-5.873-9.726-8.796-14.589H483zm1.62-.426c1.038 1.728 2.074 3.481 3.137 5.182.691-.08.85-1.222 1.382-1.726.717-1.197 1.54-2.34 2.205-3.562-.478-.106-1.01-.026-1.488-.053h-5.315zm6.83.187c-1.142 1.807-2.285 3.64-3.454 5.474.346.558.877 1.754 1.275.611 1.037-1.621 2.1-3.242 3.136-4.89 0-.478.32-1.648-.478-1.54-.266-.054-.346.079-.478.345m1.17-.24c.266 5.05.505 10.099.798 15.148.478.186 1.726.346 1.354-.585-.132-4.783-.318-9.567-.45-14.35-.294-.558-1.25-.319-1.702-.212m1.913.691c-.16 1.09.452 2.02 1.01 2.87.798 1.33 1.621 2.657 2.471 3.96.505-.532 1.037-1.329.426-1.993-1.063-1.86-2.1-3.774-3.162-5.634-.797-.107-.851.08-.745.797m1.17-.505c1.036 1.887 2.1 3.747 3.162 5.634.717-.425.904-1.514 1.462-2.179a169 169 0 0 0 2.126-3.694c-2.313-.08-4.598-.053-6.91-.053.053.107.106.186.16.292m7.042-.212a1306 1306 0 0 0-7.627 13.1c-.186.612-.319 1.728.133 2.074.478-.717.903-1.489 1.356-2.206 2.231-3.694 4.464-7.414 6.696-11.108v-1.94c-.186 0-.4-.027-.558.08m-19.745 3.986c0 3.003 0 6.006.106 9.01.531-.48.744-1.197 1.196-1.755.798-1.276 1.595-2.578 2.392-3.854-.399-1.01-1.143-1.806-1.674-2.737-.639-1.01-1.276-2.046-1.967-3.03-.106.798-.027 1.596-.053 2.366m9.221-1.807a217 217 0 0 0-2.604 4.065c-.718.56-.665 1.382-.08 1.994 1.09 1.834 2.233 3.667 3.296 5.501.53.478.106-.903.186-1.196-.16-3.534-.32-7.069-.559-10.603-.105-.08-.16.186-.239.239m10.683.77c-.93 1.569-1.86 3.083-2.79 4.624-.106.93.77 1.569 1.063 2.392.797 1.41 1.568 2.844 2.391 4.252.134-1.196-.052-2.392-.025-3.587-.08-2.71-.134-5.449-.24-8.185-.24-.027-.24.398-.4.505m-8.291.213c.133 3.162.212 6.298.346 9.46.637-.45.876-1.434 1.382-2.126a135 135 0 0 0 1.54-2.63c-1.062-1.727-2.072-3.455-3.135-5.13-.292-.212-.08.32-.133.426m-9.035 6.458c-.85 1.408-1.781 2.79-2.578 4.199 0 .478.026.956.026 1.435.904.159.984-1.143 1.515-1.594 1.037-1.595 2.073-3.164 3.056-4.784.027-.665-.824-1.78-1.142-.638-.292.451-.585.93-.877 1.382m13.845-.93c-.16.345-.558.664-.133 1.01 1.17 1.86 2.312 3.72 3.481 5.58.453.106 1.01-.053.772-.637-1.25-2.18-2.445-4.386-3.695-6.565-.186.187-.292.399-.425.611m-11.878.743c-1.223 1.887-2.472 3.774-3.642 5.688.718.372 1.568.026 2.365.16 1.834 0 3.668.025 5.502-.054-.426-1.01-1.197-1.887-1.755-2.844-.69-1.089-1.382-2.178-2.126-3.241-.185-.107-.239.212-.344.291m11.24.346c-1.063 1.78-2.126 3.535-3.189 5.315.877.399 1.967.08 2.95.186 1.276 0 2.578 0 3.854-.053-.293-.797-.904-1.408-1.302-2.18-.719-1.142-1.383-2.311-2.153-3.427-.08-.027-.107.132-.16.186zm-27.425 5.766c-1.17.426-2.312.878-3.482 1.304 13.13.185 26.284.212 39.411.344 2.817.027 5.634.054 8.45.054-.929-.638-1.966-1.117-2.975-1.648.106.718-.213 1.036-.878.904H472c-.08-.505.266-1.489-.638-.958"/><path fill="#9cba3f" fill-rule="evenodd" d="M471.362 594.461c-1.17.426-2.312.878-3.482 1.304 13.13.185 26.284.212 39.411.344 2.817.027 5.634.054 8.45.054-.929-.638-1.966-1.117-2.975-1.648.106.718-.213 1.036-.878.904H472c-.08-.505.266-1.489-.638-.958"/><path fill="#f2edb5" fill-rule="evenodd" d="M492.064 552.686c-4.863 3.349-9.753 6.671-14.59 10.02-2.392 4.915-4.783 9.805-7.175 14.721 1.143 1.036 1.33-1.063 1.833-1.7 1.914-3.88 3.801-7.76 5.794-11.56.425-1.01 1.568-1.356 2.339-2.02 4.172-2.87 8.29-5.794 12.436-8.69.824.399 1.383 1.143 2.126 1.7 3.615 3.083 7.282 6.14 10.87 9.25.823 1.062 1.328 2.337 2.02 3.48 1.674 3.083 3.321 6.14 4.995 9.222-.239.903.638 2.365 1.621 1.568.4-.692-.663-1.436-.85-2.153-2.179-4.013-4.331-8.025-6.51-12.038-1.063-1.17-2.34-2.1-3.455-3.19-3.322-2.95-6.618-5.899-9.94-8.849-.372-.717-1.116-.053-1.514.24m-.957 13.952c-.053 1.86-.027 3.72 0 5.58 1.515.16 3.03.054 4.544.08v-5.74c-1.487.027-3.003-.053-4.491.054zm.877 4.916h2.71v-4.411h-2.71zm-11.055 14.51v9.142c8-.026 15.998.027 23.997-.053.558-.61.053-1.78.186-2.631-.08-5.209-.16-10.39-.265-15.6h-23.918zm1.86.452v7.893h21.1c-.16-5.262-.239-10.524-.398-15.785h-20.702zm.213-7.122c-.106.877.717 1.462 1.037 2.179 2.604 4.04 5.234 8.079 7.84 12.118.105.93 1.832.797 1.168-.212-1.594-2.71-3.269-5.395-4.89-8.105-1.275-2.126-2.551-4.28-3.853-6.405-.399-.213-1.567-.372-1.302.425m8.504-.266c-1.116 1.834-2.313 3.641-3.428 5.474.186.692.85 1.675 1.222.558 1.09-1.62 2.126-3.268 3.162-4.915.08-.612-.026-1.94-.904-1.223zm1.142.186c.266 4.943.506 9.86.772 14.803.77.398 1.62-.08 1.328-.984-.133-4.624-.292-9.248-.452-13.872.053-.584-.532-.398-.903-.425-.32.053-.984-.212-.745.372zm1.914.558c-.106.797.212 1.516.69 2.126.904 1.462 1.781 2.977 2.764 4.412.798-.611.851-1.674.16-2.365-.984-1.754-1.94-3.481-2.923-5.209-.797-.266-.77.399-.69.93zm7.84-.371c-2.445 4.198-4.89 8.424-7.336 12.622-.105.532-.239 1.86.214 1.887.425-.53.664-1.195 1.063-1.727 2.312-3.854 4.65-7.706 6.962-11.534-.106-.558.345-2.152-.584-1.806-.134.185-.187.398-.32.558m-15.706 7.307c-1.196 1.887-2.365 3.774-3.535 5.634-.16.505-.292 2.233.505 1.462 1.33-2.073 2.684-4.146 4.013-6.245-.24-.16-.612-1.541-.983-.85m12.941.478c-.743.665-.319 1.648.24 2.26.983 1.541 1.94 3.11 2.923 4.65 1.036.133.745-1.01.24-1.461-1.064-1.914-2.1-3.827-3.216-5.714-.107.08-.107.213-.187.265"/><path fill="#00f" fill-rule="evenodd" d="M492.038 554.201c-4.439 3.11-8.85 6.245-13.314 9.302-.958 1.063-1.41 2.47-2.1 3.693a1627 1627 0 0 1-4.97 9.965c.107 5.927.373 11.827.558 17.753.425.664 1.568.106 2.285.292 2.074 0 4.12-.026 6.193-.026 0-6.166.026-12.305.026-18.47h24.343c.132 3.003.08 6.032.16 9.062.052 3.083.106 6.192.186 9.274.744.32 1.594.054 2.392.16h4.65c.08-2.498.026-4.996.053-7.494-.027-3.508-.027-7.043-.027-10.55-2.232-4.092-4.437-8.185-6.697-12.252-.77-.902-1.78-1.567-2.631-2.39-3.374-2.871-6.75-5.714-10.124-8.585-.346-.266-.718.053-.983.266m-1.595 2.764c-.16 2.126.052 4.252.106 6.378.053.93.133 1.887.266 2.79.452-.531-.106-1.647 0-2.418-.186-2.206-.106-4.439-.24-6.67.08-.107-.105-.213-.132-.08m3.96 1.435a47 47 0 0 0 .212 5.82c.478.319.053-1.01.133-1.275-.186-1.808-.08-3.588-.16-5.395-.185-.346-.16.77-.185.85m-7.654 5.448c0 3.215-.106 6.404-.133 9.593.292.346.186-.983.24-1.195.106-4.12.132-8.212.185-12.331-.557.292-.106 1.143-.266 1.674 0 .77 0 1.515-.026 2.26m11.745-1.595c.134 3.854.214 7.707.373 11.534.425-.771 0-1.887.107-2.817-.054-3.03-.24-6.086-.214-9.142-.318-.957-.291.16-.266.425m-14.987-.266c.106 3.934.292 7.894.425 11.826.107.373-.08 1.436.266 1.356.053-1.117-.107-2.26-.107-3.402-.132-3.242-.212-6.511-.398-9.753 0-.053-.134-.16-.186-.027m-3.64 2.445c.238 4.093.398 8.185.478 12.251.371.213.132-1.116.186-1.488a203 203 0 0 0-.452-10.603c0-.133-.133-.558-.213-.16m22.986 2.631c.027 2.658.107 5.342.346 7.972.478-.026 0-1.248.08-1.7q-.24-4.345-.24-8.69c-.372-.532-.159.85-.213 1.09 0 .452.027.903.027 1.328m-11.985 2.365v3.083h4.996v-6.165h-4.996zm-14.058-.106c-.212 5.421-.107 10.843.186 16.238.16 2.87.399 5.713.69 8.583.48.266.054-1.063.107-1.382a167 167 0 0 1-.824-20.276l.08-3.615c-.266-.266-.212.346-.24.452m29.764.372c.24 4.305.504 8.584.93 12.862.532-.185-.053-1.434.053-1.992a262 262 0 0 1-.77-11.056c-.053-.638-.373-.053-.213.213zm-32.82 5.581c-.213 1.647-.054 3.322-.027 4.97.133 4.118.426 8.264.904 12.356.425.214.026-1.009.08-1.407-.585-5.263-.797-10.578-.904-15.866v-.053zm36.487 1.01c-.133 5.155-.213 10.311.053 15.493.266.718.16-.77.16-1.01-.107-4.757-.08-9.54 0-14.324-.027-.292.239-1.382-.187-1.089 0 .292 0 .61-.026.93m-25.618 2.71c1.037 1.728 2.073 3.481 3.136 5.182.691-.08.85-1.222 1.382-1.726.717-1.197 1.54-2.34 2.205-3.562-.478-.106-1.01-.026-1.488-.053h-5.315zm11.082.133c1.036 1.887 2.1 3.747 3.162 5.634.717-.425.904-1.514 1.462-2.179a169 169 0 0 0 2.126-3.694c-2.313-.08-4.598-.053-6.91-.053.053.107.106.186.16.292M483 582.903c0 3.003 0 6.006.106 9.01.531-.48.744-1.197 1.196-1.755.798-1.276 1.595-2.578 2.392-3.854-.399-1.01-1.143-1.806-1.674-2.737-.639-1.01-1.276-2.046-1.967-3.03-.106.798-.027 1.596-.053 2.366m9.221-1.807a217 217 0 0 0-2.604 4.065c-.718.56-.665 1.382-.08 1.994 1.09 1.834 2.233 3.667 3.296 5.501.53.478.106-.903.186-1.196-.16-3.534-.32-7.069-.559-10.603-.105-.08-.16.186-.239.239m10.683.77c-.93 1.569-1.86 3.083-2.79 4.624-.106.93.77 1.569 1.063 2.392.797 1.41 1.568 2.844 2.391 4.252.134-1.196-.052-2.392-.025-3.587-.08-2.71-.134-5.449-.24-8.185-.24-.027-.24.398-.4.505m-8.291.213c.133 3.162.212 6.298.346 9.46.637-.45.876-1.434 1.382-2.126a135 135 0 0 0 1.54-2.63c-1.062-1.727-2.072-3.455-3.135-5.13-.292-.212-.08.32-.133.426m-7.068 6.271c-1.223 1.887-2.472 3.774-3.642 5.688.718.372 1.568.026 2.365.16 1.834 0 3.668.025 5.502-.054-.426-1.01-1.197-1.887-1.755-2.844-.69-1.089-1.382-2.178-2.126-3.241-.185-.107-.239.212-.344.291m11.24.373a915 915 0 0 0-3.189 5.288c.877.399 1.967.08 2.95.186 1.276 0 2.578 0 3.854-.053-.293-.797-.904-1.408-1.302-2.18-.719-1.142-1.383-2.311-2.153-3.427-.08-.027-.107.132-.16.186"/><path fill="#4a4a4a" fill-rule="evenodd" d="M577.806 504.728a3031 3031 0 0 0-15.042 10.31c-.717 1.063-1.17 2.286-1.754 3.428-1.887 3.854-3.747 7.734-5.634 11.587.452.373 1.17 1.117 1.409.16.132 5.075.266 10.178.505 15.253.292.851-.452 1.489-1.222 1.568-1.356.532-2.711 1.01-4.066 1.516 11.347.132 22.668.212 34.015.292 5.342.053 10.71.106 16.078.133a297 297 0 0 0-4.039-2.18v-15.838c.292.691.85 1.01 1.514.584 1.303-.266-.159-1.461-.318-2.152-2.259-4.199-4.544-8.371-6.804-12.543-1.514-1.489-3.162-2.844-4.73-4.278-3.056-2.738-6.112-5.502-9.222-8.213-.291-.052-.45.266-.69.373m-.213.398a6696 6696 0 0 0-14.802 10.126c-2.26 4.756-4.624 9.46-6.883 14.243-.664.744.824 1.302.85.293 2.18-4.518 4.438-8.956 6.697-13.42.585-.718 1.488-1.09 2.206-1.675 4.146-2.844 8.265-5.767 12.384-8.637.824.425 1.408 1.17 2.152 1.7 3.667 3.137 7.335 6.246 11.029 9.382 2.285 4.199 4.545 8.371 6.83 12.57-.133.664.185 1.515.823 1.807.983.159 1.09-.93.48-1.488-2.074-3.853-4.2-7.707-6.273-11.586-.478-.984-1.116-1.914-1.993-2.606-3.03-2.657-5.98-5.34-8.982-7.999a414 414 0 0 0-3.588-3.215c-.398-.027-.637.346-.93.505m-.212 1.647c-4.439 3.11-8.85 6.246-13.314 9.302-.957 1.063-1.41 2.471-2.1 3.694a1686 1686 0 0 1-4.97 9.965c.107 5.927.373 11.826.559 17.753.424.664 1.567.105 2.285.292 2.073 0 4.119-.026 6.192-.026 0-6.166.026-12.305.026-18.47h24.343c.133 3.003.08 6.032.16 9.062.053 3.082.106 6.192.186 9.274.744.319 1.595.053 2.392.16h4.65c.08-2.498.026-4.997.053-7.494-.027-3.508-.027-7.043-.027-10.55-2.232-4.093-4.437-8.186-6.697-12.252-.77-.903-1.78-1.567-2.63-2.39-3.375-2.871-6.75-5.714-10.125-8.585-.346-.266-.717.053-.983.265m-1.595 2.765c-.16 2.126.053 4.252.106 6.378.053.93.133 1.886.266 2.79.452-.531-.106-1.647 0-2.418-.186-2.206-.106-4.439-.239-6.67.08-.107-.106-.214-.133-.08m3.96 1.435a47 47 0 0 0 .212 5.82c.478.319.054-1.01.133-1.276-.186-1.807-.08-3.588-.159-5.395-.186-.345-.16.77-.186.85m-7.654 5.447c0 3.216-.106 6.405-.133 9.594.293.346.186-.983.24-1.196.106-4.119.133-8.212.185-12.331-.558.293-.106 1.143-.266 1.675 0 .77 0 1.514-.026 2.258m11.746-1.594c.133 3.854.213 7.706.372 11.534.425-.771 0-1.887.107-2.818-.054-3.03-.24-6.085-.214-9.141-.318-.957-.291.16-.265.425m-14.988-.266c.106 3.933.293 7.893.425 11.826.107.372-.08 1.435.266 1.356.053-1.117-.107-2.26-.107-3.403-.132-3.241-.212-6.51-.398-9.752 0-.054-.133-.16-.186-.027m-3.64 2.445c.238 4.093.398 8.185.478 12.251.371.212.132-1.116.186-1.488a203 203 0 0 0-.452-10.604c0-.132-.133-.558-.213-.159m22.986 2.631c.027 2.657.107 5.341.346 7.972.478-.026 0-1.248.08-1.7q-.24-4.346-.24-8.69c-.371-.532-.159.85-.212 1.09 0 .451.026.903.026 1.328M576.21 522v3.083h4.996v-6.165h-4.996zm.213 0v2.87h4.571v-5.74h-4.57zm.903-.08v2.206h2.71v-4.411h-2.71zm-15.174-.026c-.212 5.421-.106 10.842.186 16.237.16 2.87.399 5.713.691 8.584.479.266.053-1.063.106-1.382a167 167 0 0 1-.824-20.276l.08-3.615c-.265-.266-.212.346-.24.452m29.764.372c.24 4.305.505 8.584.93 12.862.532-.186-.053-1.435.053-1.993a261 261 0 0 1-.77-11.055c-.053-.638-.372-.053-.213.212zm-32.82 5.58c-.213 1.648-.054 3.323-.027 4.97.133 4.12.426 8.265.904 12.357.425.213.027-1.01.08-1.408-.585-5.262-.797-10.577-.904-15.865v-.054zm36.487 1.01c-.133 5.156-.213 10.312.053 15.493.266.718.16-.77.16-1.009-.107-4.757-.08-9.541 0-14.324-.026-.292.239-1.382-.187-1.09 0 .293 0 .612-.026.93m-29.312 9.78v9.142h24.236c-.08-5.74-.186-11.507-.291-17.248.105-.637-.027-1.222-.772-1.036H566.27zm1.86.425c.027 2.631.027 5.262.027 7.893h21.047c-.106-5.236-.266-10.47-.345-15.705-.797-.107-1.621-.027-2.418-.054h-18.31zm.213-7.068c-.133.902.718 1.487 1.063 2.231 2.63 4.04 5.235 8.106 7.84 12.145.212.903 1.886.612 1.142-.372-2.896-4.863-5.873-9.726-8.796-14.59h-1.25zm1.621-.426c1.037 1.728 2.073 3.481 3.136 5.182.691-.08.85-1.223 1.382-1.728.717-1.195 1.54-2.338 2.205-3.56-.478-.107-1.009-.027-1.488-.053h-5.314zm6.83.186c-1.143 1.807-2.286 3.641-3.455 5.474.346.559.878 1.755 1.276.612 1.036-1.621 2.1-3.242 3.135-4.89 0-.478.32-1.648-.478-1.541-.266-.054-.346.08-.478.345m1.17-.24c.264 5.05.504 10.1.796 15.149.479.186 1.728.345 1.355-.585-.132-4.783-.318-9.567-.45-14.35-.294-.558-1.25-.32-1.702-.213m1.912.692c-.16 1.09.453 2.02 1.01 2.87.798 1.33 1.621 2.657 2.472 3.96.504-.532 1.036-1.329.425-1.993-1.063-1.861-2.1-3.774-3.162-5.634-.798-.107-.851.08-.745.797m1.17-.505c1.036 1.887 2.099 3.747 3.162 5.634.717-.426.904-1.515 1.462-2.18.717-1.222 1.435-2.444 2.126-3.693-2.313-.08-4.598-.053-6.91-.053.053.106.107.185.16.292m7.043-.212a1276 1276 0 0 0-7.628 13.1c-.186.612-.319 1.728.133 2.074.479-.718.903-1.489 1.356-2.206 2.231-3.694 4.464-7.414 6.696-11.108v-1.94c-.186 0-.398-.027-.557.08m-19.746 3.986c0 3.002 0 6.005.106 9.009.532-.48.744-1.197 1.197-1.755.797-1.275 1.594-2.577 2.39-3.853-.398-1.01-1.142-1.807-1.673-2.737-.638-1.01-1.276-2.046-1.967-3.03-.106.798-.027 1.595-.053 2.366m9.222-1.808a212 212 0 0 0-2.605 4.066c-.718.558-.664 1.382-.08 1.994 1.09 1.833 2.233 3.667 3.296 5.5.532.48.106-.903.186-1.195-.16-3.535-.319-7.069-.558-10.604-.107-.08-.16.187-.239.24m10.683.772c-.93 1.567-1.861 3.082-2.79 4.623-.107.93.77 1.568 1.062 2.392.797 1.408 1.569 2.844 2.392 4.252.133-1.196-.053-2.392-.026-3.587-.08-2.711-.134-5.449-.24-8.186-.239-.026-.239.399-.398.506m-8.292.212c.133 3.162.213 6.298.346 9.46.637-.451.876-1.434 1.382-2.126.532-.876 1.036-1.753 1.54-2.63-1.062-1.727-2.071-3.455-3.135-5.13-.292-.212-.08.32-.133.426m-9.035 6.458c-.85 1.408-1.78 2.79-2.578 4.198 0 .479.026.957.026 1.435.904.16.984-1.142 1.516-1.595 1.036-1.594 2.072-3.162 3.055-4.783.027-.664-.824-1.78-1.142-.637-.292.451-.585.93-.877 1.382m13.845-.93c-.16.345-.558.664-.133 1.01 1.17 1.86 2.313 3.72 3.481 5.58.453.106 1.01-.053.772-.638-1.25-2.18-2.445-4.385-3.695-6.564-.186.186-.292.399-.425.611m-11.878.743c-1.223 1.887-2.472 3.774-3.642 5.688.718.372 1.568.026 2.365.16 1.834 0 3.669.025 5.502-.054-.426-1.01-1.196-1.887-1.754-2.844-.691-1.09-1.383-2.179-2.126-3.242-.186-.106-.239.213-.345.292m11.24.346c-1.063 1.78-2.126 3.535-3.189 5.315.877.399 1.967.08 2.95.186 1.275 0 2.578 0 3.854-.053-.293-.797-.904-1.41-1.302-2.18-.718-1.142-1.382-2.312-2.153-3.427-.08-.027-.107.132-.16.186zm-27.425 5.766c-1.17.426-2.312.878-3.48 1.302 13.127.187 26.282.214 39.41.346 2.816.027 5.633.053 8.45.053-.93-.638-1.967-1.116-2.976-1.647.107.717-.213 1.036-.877.904h-39.89c-.079-.505.267-1.489-.637-.958"/><path fill="#9cba3f" fill-rule="evenodd" d="M556.705 547.034c-1.17.426-2.312.878-3.48 1.302 13.127.187 26.282.214 39.41.346 2.816.027 5.633.053 8.45.053-.93-.638-1.967-1.116-2.976-1.647.107.717-.213 1.036-.877.904h-39.89c-.079-.505.267-1.489-.637-.958"/><path fill="#f2edb5" fill-rule="evenodd" d="M577.407 505.259c-4.863 3.348-9.753 6.67-14.59 10.018-2.392 4.917-4.783 9.807-7.175 14.723 1.143 1.036 1.33-1.063 1.834-1.7 1.913-3.88 3.8-7.76 5.794-11.561.424-1.01 1.567-1.355 2.338-2.02 4.172-2.87 8.29-5.793 12.437-8.689.824.399 1.382 1.143 2.126 1.7 3.614 3.083 7.28 6.14 10.868 9.248.824 1.063 1.33 2.34 2.02 3.482 1.675 3.082 3.322 6.139 4.997 9.221-.24.904.638 2.366 1.621 1.569.399-.692-.664-1.436-.85-2.153-2.18-4.013-4.333-8.026-6.511-12.038-1.063-1.17-2.34-2.1-3.455-3.19-3.322-2.95-6.618-5.9-9.94-8.85-.372-.716-1.115-.052-1.514.24m-.957 13.952c-.053 1.86-.026 3.72 0 5.58 1.515.16 3.03.054 4.545.08v-5.74c-1.488.027-3.004-.053-4.491.053zm.877 4.916h2.71v-4.411h-2.71zm-11.055 14.51v9.142c8-.026 15.998.026 23.997-.053.558-.612.053-1.78.187-2.631-.08-5.209-.16-10.391-.266-15.6h-23.918zm1.86.452v7.893h21.101c-.16-5.263-.239-10.524-.4-15.786h-20.7zm.213-7.122c-.106.877.718 1.461 1.037 2.179 2.604 4.04 5.235 8.078 7.84 12.118.105.93 1.832.797 1.168-.213-1.594-2.71-3.269-5.395-4.89-8.105-1.275-2.126-2.55-4.279-3.852-6.405-.4-.212-1.568-.371-1.303.426m8.504-.266c-1.116 1.834-2.312 3.641-3.428 5.474.186.692.85 1.675 1.222.558 1.09-1.62 2.126-3.269 3.163-4.916.08-.611-.027-1.94-.904-1.223zm1.142.186c.266 4.943.505 9.86.771 14.803.77.398 1.621-.08 1.33-.984-.134-4.624-.293-9.248-.453-13.872.053-.584-.53-.4-.903-.425-.32.053-.984-.213-.745.372zm1.914.558c-.106.797.212 1.514.69 2.126.904 1.462 1.782 2.977 2.765 4.412.797-.612.85-1.675.16-2.366-.984-1.754-1.941-3.48-2.924-5.208-.797-.266-.77.398-.69.93zm7.84-.372c-2.445 4.199-4.89 8.424-7.335 12.623-.106.531-.239 1.86.213 1.887.425-.532.664-1.196 1.063-1.727 2.312-3.854 4.65-7.708 6.962-11.534-.106-.558.346-2.152-.584-1.807-.133.186-.187.399-.32.558m-15.706 7.308c-1.196 1.887-2.365 3.774-3.534 5.634-.16.505-.293 2.233.504 1.461 1.33-2.072 2.684-4.145 4.013-6.244-.24-.16-.61-1.541-.983-.851m12.942.478c-.744.665-.319 1.648.24 2.26.983 1.541 1.939 3.108 2.922 4.65 1.036.133.745-1.01.24-1.462-1.064-1.913-2.1-3.827-3.217-5.714-.105.08-.105.213-.185.266"/><path fill="#00f" fill-rule="evenodd" d="M577.38 506.773c-4.438 3.11-8.85 6.246-13.313 9.302-.957 1.063-1.41 2.471-2.1 3.694a1686 1686 0 0 1-4.97 9.965c.107 5.927.373 11.826.559 17.753.424.664 1.567.105 2.285.292 2.073 0 4.119-.026 6.192-.026 0-6.166.026-12.305.026-18.47h24.343c.133 3.003.08 6.032.16 9.062.053 3.082.106 6.192.186 9.274.744.319 1.595.053 2.392.16h4.65c.08-2.498.026-4.997.053-7.494-.027-3.508-.027-7.043-.027-10.55-2.232-4.093-4.437-8.186-6.697-12.252-.77-.903-1.78-1.567-2.63-2.39-3.375-2.871-6.75-5.714-10.125-8.585-.346-.266-.717.053-.983.265m-1.594 2.765c-.16 2.126.053 4.252.106 6.378.053.93.133 1.886.266 2.79.452-.531-.106-1.647 0-2.418-.186-2.206-.106-4.439-.239-6.67.08-.107-.106-.214-.133-.08m3.96 1.435a47 47 0 0 0 .212 5.82c.478.319.054-1.01.133-1.276-.186-1.807-.08-3.588-.159-5.395-.186-.345-.16.77-.186.85m-7.654 5.447c0 3.216-.106 6.405-.133 9.594.293.346.186-.983.24-1.196.106-4.119.133-8.212.185-12.331-.558.293-.106 1.143-.266 1.675 0 .77 0 1.514-.026 2.258m11.746-1.594c.133 3.854.213 7.706.372 11.534.425-.771 0-1.887.107-2.818-.054-3.03-.24-6.085-.214-9.141-.318-.957-.291.16-.265.425m-14.988-.266c.106 3.933.293 7.893.425 11.826.107.372-.08 1.435.266 1.356.053-1.117-.107-2.26-.107-3.403-.132-3.241-.212-6.51-.398-9.752 0-.054-.133-.16-.186-.027m-3.64 2.445c.238 4.093.398 8.185.478 12.251.371.212.132-1.116.186-1.488a203 203 0 0 0-.452-10.604c0-.132-.133-.558-.213-.159m22.986 2.631c.027 2.657.107 5.341.346 7.972.478-.026 0-1.248.08-1.7q-.24-4.346-.24-8.69c-.371-.532-.159.85-.212 1.09 0 .451.026.903.026 1.328M576.211 522v3.083h4.996v-6.165h-4.996zm-14.058-.106c-.212 5.421-.106 10.842.186 16.237.16 2.87.399 5.713.691 8.584.479.266.053-1.063.106-1.382a167 167 0 0 1-.824-20.276l.08-3.615c-.265-.266-.212.346-.24.452m29.764.372c.24 4.305.505 8.584.93 12.862.532-.186-.053-1.435.053-1.993a261 261 0 0 1-.77-11.055c-.053-.638-.372-.053-.213.212zm-32.82 5.58c-.213 1.648-.054 3.323-.027 4.97.133 4.12.426 8.265.904 12.357.425.213.027-1.01.08-1.408-.585-5.262-.797-10.577-.904-15.865v-.054zm36.487 1.01c-.133 5.156-.213 10.312.053 15.493.266.718.16-.77.16-1.009-.107-4.757-.08-9.541 0-14.324-.026-.292.239-1.382-.187-1.09 0 .293 0 .612-.026.93m-25.618 2.711c1.037 1.728 2.073 3.481 3.136 5.182.691-.08.85-1.223 1.382-1.728.717-1.195 1.54-2.338 2.205-3.56-.478-.107-1.009-.027-1.488-.053h-5.314zm11.082.133c1.036 1.887 2.099 3.747 3.162 5.634.717-.426.904-1.515 1.462-2.18.717-1.222 1.435-2.444 2.126-3.693-2.313-.08-4.598-.053-6.91-.053.053.106.107.185.16.292m-12.703 3.774c0 3.002 0 6.005.106 9.009.532-.48.744-1.197 1.197-1.755.797-1.275 1.594-2.577 2.39-3.853-.398-1.01-1.142-1.807-1.673-2.737-.638-1.01-1.276-2.046-1.967-3.03-.106.798-.027 1.595-.053 2.366m9.222-1.808a212 212 0 0 0-2.605 4.066c-.718.558-.664 1.382-.08 1.994 1.09 1.833 2.233 3.667 3.296 5.5.532.48.106-.903.186-1.195-.16-3.535-.319-7.069-.558-10.604-.107-.08-.16.187-.239.24m10.683.772c-.93 1.567-1.861 3.082-2.79 4.623-.107.93.77 1.568 1.062 2.392.797 1.408 1.569 2.844 2.392 4.252.133-1.196-.053-2.392-.026-3.587-.08-2.711-.134-5.449-.24-8.186-.239-.026-.239.399-.398.506m-8.292.212c.133 3.162.213 6.298.346 9.46.637-.451.876-1.434 1.382-2.126.532-.876 1.036-1.753 1.54-2.63-1.062-1.727-2.071-3.455-3.135-5.13-.292-.212-.08.32-.133.426m-7.068 6.271c-1.223 1.887-2.472 3.774-3.642 5.688.718.372 1.568.026 2.365.16 1.834 0 3.669.025 5.502-.054-.426-1.01-1.196-1.887-1.754-2.844-.691-1.09-1.383-2.179-2.126-3.242-.186-.106-.239.213-.345.292m11.24.373a915 915 0 0 0-3.189 5.288c.877.399 1.967.08 2.95.186 1.275 0 2.578 0 3.854-.053-.293-.797-.904-1.41-1.302-2.18-.718-1.142-1.382-2.312-2.153-3.427-.08-.027-.107.132-.16.186"/><path fill="#4a4a4a" fill-rule="evenodd" d="M835.59 586.439a3031 3031 0 0 0-15.041 10.31c-.718 1.063-1.17 2.285-1.754 3.428-1.887 3.854-3.747 7.734-5.634 11.587.452.372 1.17 1.116 1.408.159.134 5.076.266 10.179.505 15.255.293.85-.451 1.487-1.222 1.567-1.355.532-2.71 1.01-4.066 1.515 11.348.133 22.668.212 34.016.292 5.342.054 10.71.107 16.077.134a308 308 0 0 0-4.039-2.18v-15.839c.292.692.85 1.01 1.515.585 1.302-.266-.16-1.461-.319-2.152-2.259-4.2-4.544-8.372-6.803-12.544-1.515-1.488-3.163-2.843-4.73-4.278-3.056-2.738-6.113-5.501-9.222-8.212-.292-.053-.452.266-.69.373m-.212.398c-4.943 3.374-9.886 6.75-14.802 10.125-2.259 4.756-4.625 9.46-6.884 14.244-.664.744.824 1.302.851.293 2.18-4.518 4.438-8.957 6.697-13.421.585-.717 1.488-1.09 2.206-1.674 4.145-2.844 8.264-5.767 12.383-8.637.824.425 1.41 1.17 2.153 1.701 3.668 3.135 7.335 6.245 11.029 9.381 2.285 4.198 4.544 8.37 6.83 12.57-.134.664.186 1.514.823 1.807.984.16 1.09-.93.479-1.488-2.074-3.854-4.2-7.707-6.272-11.587-.478-.983-1.117-1.914-1.993-2.604-3.03-2.658-5.98-5.342-8.983-8-1.195-1.089-2.392-2.152-3.587-3.215-.399-.027-.638.346-.93.505m-.213 1.648c-4.438 3.11-8.849 6.244-13.314 9.301-.957 1.063-1.409 2.47-2.1 3.693a1750 1750 0 0 1-4.969 9.966c.107 5.927.372 11.825.558 17.752.426.665 1.568.107 2.286.292 2.073 0 4.12-.026 6.192-.026 0-6.166.026-12.305.026-18.47h24.343c.133 3.003.08 6.033.16 9.063.052 3.082.105 6.191.185 9.274.744.319 1.595.054 2.392.16h4.65c.08-2.498.027-4.996.053-7.495-.026-3.508-.026-7.042-.026-10.55-2.232-4.093-4.438-8.185-6.697-12.251-.77-.904-1.78-1.567-2.63-2.391-3.376-2.87-6.75-5.714-10.126-8.584-.345-.266-.717.053-.983.266m-1.594 2.764c-.16 2.126.053 4.252.106 6.378.053.93.133 1.887.266 2.79.452-.532-.107-1.648 0-2.419-.187-2.206-.107-4.438-.24-6.67.08-.106-.106-.213-.132-.08m3.96 1.434a47 47 0 0 0 .212 5.82c.479.32.053-1.01.133-1.275-.186-1.807-.08-3.588-.16-5.395-.186-.345-.159.77-.186.85m-7.654 5.448c0 3.216-.107 6.405-.133 9.594.292.345.186-.984.24-1.196.105-4.12.132-8.212.185-12.33-.558.291-.106 1.142-.265 1.673 0 .771 0 1.516-.027 2.259m11.746-1.594c.132 3.853.212 7.707.371 11.533.426-.77 0-1.886.107-2.817-.053-3.03-.24-6.085-.212-9.142-.319-.956-.293.16-.266.426m-14.988-.266c.106 3.933.292 7.893.424 11.825.107.373-.08 1.436.266 1.356.054-1.117-.106-2.26-.106-3.402-.133-3.242-.212-6.51-.399-9.752 0-.053-.132-.16-.185-.027m-3.641 2.445c.239 4.092.398 8.185.478 12.25.372.214.133-1.115.186-1.488a202 202 0 0 0-.451-10.603c0-.133-.134-.558-.213-.16m22.987 2.63c.026 2.658.106 5.343.345 7.973.48-.026 0-1.249.08-1.7q-.24-4.346-.24-8.69c-.37-.532-.159.85-.211 1.089 0 .452.026.903.026 1.329m-11.986 2.366v3.082h4.997v-6.165h-4.997zm.214 0v2.87h4.57v-5.74h-4.57zm.903-.08v2.206h2.711v-4.412h-2.71zm-15.174-.027c-.213 5.422-.107 10.844.185 16.237.16 2.87.399 5.714.692 8.584.478.266.053-1.063.106-1.382a167 167 0 0 1-.824-20.276l.08-3.614c-.266-.266-.213.346-.239.451m29.763.373c.24 4.305.506 8.584.931 12.862.531-.186-.054-1.435.053-1.993a261 261 0 0 1-.771-11.055c-.053-.638-.372-.053-.213.212zm-32.82 5.58c-.212 1.648-.052 3.322-.026 4.97.133 4.119.425 8.264.903 12.357.426.213.027-1.01.08-1.409-.584-5.261-.797-10.576-.904-15.864v-.054zm36.488 1.01c-.133 5.156-.212 10.311.053 15.493.266.718.16-.77.16-1.01-.107-4.756-.08-9.54 0-14.324-.027-.291.239-1.381-.186-1.09 0 .293 0 .612-.027.931m-29.312 9.78v9.141h24.236c-.08-5.74-.186-11.507-.292-17.246.106-.639-.027-1.223-.771-1.037h-23.173zm1.86.425c.027 2.631.027 5.262.027 7.892h21.047c-.106-5.234-.265-10.47-.346-15.705-.797-.106-1.621-.027-2.418-.054h-18.31zm.213-7.069c-.134.904.717 1.488 1.063 2.232 2.631 4.04 5.235 8.106 7.84 12.145.212.903 1.886.611 1.142-.372-2.897-4.863-5.873-9.727-8.796-14.59h-1.25zm1.62-.425c1.037 1.727 2.074 3.48 3.137 5.181.69-.08.85-1.222 1.382-1.726.717-1.197 1.541-2.34 2.206-3.562-.48-.106-1.01-.026-1.489-.052h-5.315zm6.83.186c-1.143 1.806-2.285 3.64-3.454 5.475.345.558.877 1.753 1.275.61 1.036-1.62 2.1-3.241 3.137-4.89 0-.477.318-1.647-.48-1.54-.265-.054-.344.08-.478.345m1.17-.239c.266 5.05.505 10.098.797 15.147.478.187 1.727.346 1.356-.584-.134-4.784-.32-9.568-.453-14.35-.292-.559-1.249-.32-1.7-.213m1.914.69c-.16 1.09.45 2.02 1.009 2.87a118 118 0 0 0 2.472 3.96c.505-.531 1.036-1.328.425-1.993-1.063-1.86-2.1-3.773-3.163-5.633-.797-.107-.85.08-.743.797m1.168-.505c1.037 1.887 2.1 3.747 3.162 5.634.719-.425.904-1.514 1.463-2.179a169 169 0 0 0 2.126-3.694c-2.312-.08-4.598-.052-6.91-.052.054.106.106.186.16.291m7.043-.212a1295 1295 0 0 0-7.628 13.101c-.185.612-.318 1.728.134 2.073.478-.717.904-1.488 1.355-2.205 2.232-3.695 4.464-7.415 6.697-11.109v-1.94c-.187 0-.399-.026-.558.08m-19.745 3.986c0 3.003 0 6.006.106 9.01.531-.479.744-1.197 1.196-1.755.797-1.275 1.594-2.577 2.392-3.853-.4-1.01-1.143-1.808-1.675-2.737-.637-1.01-1.275-2.047-1.966-3.03-.107.797-.027 1.594-.053 2.365m9.221-1.807a212 212 0 0 0-2.604 4.066c-.717.559-.664 1.382-.08 1.993 1.09 1.833 2.232 3.668 3.295 5.502.532.478.107-.904.186-1.197-.16-3.534-.319-7.068-.558-10.603-.106-.08-.159.186-.239.24m10.683.771c-.93 1.568-1.86 3.083-2.79 4.624-.107.93.77 1.568 1.063 2.392.797 1.409 1.568 2.843 2.392 4.252.132-1.197-.054-2.392-.027-3.588-.08-2.71-.133-5.448-.24-8.185-.238-.027-.238.399-.398.505m-8.29.212c.132 3.163.212 6.299.344 9.46.639-.45.878-1.434 1.382-2.125.532-.877 1.037-1.754 1.542-2.631-1.063-1.727-2.073-3.454-3.136-5.129-.292-.212-.08.319-.133.425m-9.037 6.458c-.85 1.409-1.78 2.79-2.577 4.2 0 .478.026.956.026 1.434.903.16.983-1.143 1.515-1.594 1.036-1.595 2.073-3.163 3.056-4.784.027-.665-.823-1.78-1.143-.638-.292.452-.584.93-.877 1.382m13.846-.93c-.16.345-.559.664-.133 1.01 1.17 1.86 2.312 3.72 3.482 5.58.451.107 1.009-.053.77-.638-1.25-2.179-2.445-4.384-3.694-6.563-.186.186-.292.398-.425.61m-11.88.744c-1.222 1.887-2.47 3.774-3.64 5.688.718.371 1.569.025 2.366.159 1.833 0 3.667.026 5.5-.054-.424-1.01-1.196-1.887-1.753-2.843-.692-1.09-1.382-2.179-2.126-3.242-.187-.107-.24.212-.346.292m11.242.346c-1.063 1.78-2.126 3.534-3.188 5.315.876.398 1.965.08 2.949.186 1.276 0 2.578 0 3.853-.054-.292-.797-.904-1.408-1.302-2.179-.717-1.142-1.382-2.312-2.153-3.428-.08-.027-.106.133-.16.186zm-27.425 5.766c-1.17.425-2.312.878-3.481 1.302 13.127.186 26.282.213 39.41.346 2.817.027 5.634.054 8.451.054-.93-.64-1.967-1.117-2.977-1.648.107.717-.212 1.036-.876.903h-39.889c-.08-.505.265-1.488-.638-.957"/><path fill="#9cba3f" fill-rule="evenodd" d="M814.49 628.745c-1.17.425-2.312.878-3.481 1.302 13.127.186 26.282.213 39.41.346 2.817.027 5.634.054 8.451.054-.93-.64-1.967-1.117-2.977-1.648.107.717-.212 1.036-.876.903h-39.889c-.08-.505.265-1.488-.638-.957"/><path fill="#f2edb5" fill-rule="evenodd" d="M835.192 586.97c-4.864 3.348-9.754 6.67-14.59 10.018-2.391 4.917-4.783 9.806-7.176 14.723 1.143 1.036 1.33-1.063 1.835-1.7 1.913-3.881 3.8-7.76 5.793-11.56.425-1.01 1.568-1.356 2.338-2.02 4.172-2.871 8.292-5.794 12.437-8.69.824.398 1.382 1.142 2.127 1.7 3.614 3.083 7.281 6.14 10.869 9.249.824 1.063 1.329 2.338 2.02 3.48 1.674 3.083 3.32 6.14 4.995 9.222-.239.904.638 2.365 1.621 1.568.399-.691-.664-1.435-.85-2.153-2.18-4.013-4.332-8.026-6.511-12.038-1.063-1.17-2.338-2.1-3.455-3.189-3.322-2.95-6.616-5.9-9.939-8.85-.371-.717-1.116-.052-1.514.24m-.957 13.951c-.053 1.86-.026 3.721 0 5.581 1.515.16 3.03.053 4.544.08v-5.74c-1.488.026-3.002-.053-4.49.053zm.877 4.917h2.711v-4.412h-2.71zm-11.055 14.51v9.141c7.999-.026 15.998.027 23.997-.053.558-.611.053-1.78.186-2.63-.08-5.21-.16-10.392-.266-15.6h-23.917zm1.86.452v7.892h21.1c-.159-5.261-.239-10.523-.398-15.786h-20.702zm.213-7.123c-.107.877.717 1.462 1.036 2.18 2.604 4.04 5.235 8.078 7.84 12.118.106.93 1.834.797 1.17-.213-1.596-2.71-3.27-5.394-4.89-8.105-1.277-2.126-2.552-4.279-3.854-6.405-.399-.212-1.568-.372-1.302.425m8.504-.266c-1.117 1.835-2.312 3.642-3.428 5.475.185.691.85 1.675 1.222.558 1.09-1.621 2.126-3.269 3.162-4.916.08-.611-.027-1.94-.903-1.222zm1.143.187c.265 4.942.504 9.859.77 14.802.77.399 1.62-.08 1.329-.983a2300 2300 0 0 0-.453-13.872c.054-.585-.53-.399-.902-.425-.32.052-.983-.214-.744.371zm1.913.558c-.106.797.213 1.515.69 2.126.905 1.461 1.781 2.976 2.765 4.411.797-.61.85-1.674.159-2.365-.983-1.753-1.94-3.481-2.923-5.208-.797-.266-.771.398-.691.929zm7.84-.372c-2.446 4.198-4.89 8.424-7.335 12.623-.107.532-.24 1.86.212 1.887.425-.532.664-1.196 1.063-1.728 2.312-3.853 4.65-7.706 6.963-11.534-.107-.558.345-2.152-.585-1.806-.133.185-.185.399-.319.558m-15.706 7.308c-1.197 1.887-2.365 3.773-3.535 5.633-.16.506-.293 2.233.505 1.462 1.328-2.072 2.684-4.145 4.013-6.245-.24-.159-.611-1.54-.983-.85m12.941.478c-.744.664-.318 1.648.24 2.26.983 1.54 1.94 3.109 2.923 4.65 1.037.132.744-1.01.239-1.462-1.063-1.913-2.1-3.827-3.215-5.713-.107.08-.107.212-.187.265"/><path fill="#00c0c0" fill-rule="evenodd" d="M835.165 588.485c-4.438 3.11-8.849 6.244-13.314 9.301-.957 1.063-1.409 2.47-2.1 3.693a1750 1750 0 0 1-4.969 9.966c.107 5.927.372 11.825.558 17.752.426.665 1.568.107 2.286.292 2.073 0 4.12-.026 6.192-.026 0-6.166.026-12.305.026-18.47h24.343c.133 3.003.08 6.033.16 9.063.052 3.082.105 6.191.185 9.274.744.319 1.595.054 2.392.16h4.65c.08-2.498.027-4.996.053-7.495-.026-3.508-.026-7.042-.026-10.55-2.232-4.093-4.438-8.185-6.697-12.251-.77-.904-1.78-1.567-2.63-2.391-3.376-2.87-6.75-5.714-10.126-8.584-.345-.266-.717.053-.983.266m-1.594 2.764c-.16 2.126.053 4.252.106 6.378.053.93.133 1.887.266 2.79.452-.532-.107-1.648 0-2.419-.187-2.206-.107-4.438-.24-6.67.08-.106-.106-.213-.132-.08m3.96 1.434a47 47 0 0 0 .212 5.82c.479.32.053-1.01.133-1.275-.186-1.807-.08-3.588-.16-5.395-.186-.345-.159.77-.186.85m-7.654 5.448c0 3.216-.107 6.405-.133 9.594.292.345.186-.984.24-1.196.105-4.12.132-8.212.185-12.33-.558.291-.106 1.142-.265 1.673 0 .771 0 1.516-.027 2.259m11.746-1.594c.132 3.853.212 7.707.371 11.533.426-.77 0-1.886.107-2.817-.053-3.03-.24-6.085-.212-9.142-.319-.956-.293.16-.266.426m-14.988-.266c.106 3.933.292 7.893.424 11.825.107.373-.08 1.436.266 1.356.054-1.117-.106-2.26-.106-3.402-.133-3.242-.212-6.51-.399-9.752 0-.053-.132-.16-.185-.027m-3.641 2.445c.239 4.092.398 8.185.478 12.25.372.214.133-1.115.186-1.488a202 202 0 0 0-.451-10.603c0-.133-.134-.558-.213-.16m22.987 2.63c.026 2.658.106 5.343.345 7.973.48-.026 0-1.249.08-1.7q-.24-4.346-.24-8.69c-.37-.532-.159.85-.211 1.089 0 .452.026.903.026 1.329m-11.986 2.366v3.082h4.997v-6.165h-4.997zm-14.057-.107c-.213 5.422-.107 10.844.185 16.237.16 2.87.399 5.714.692 8.584.478.266.053-1.063.106-1.382a167 167 0 0 1-.824-20.276l.08-3.614c-.266-.266-.213.346-.239.451m29.763.373c.24 4.305.506 8.584.931 12.862.531-.186-.054-1.435.053-1.993a261 261 0 0 1-.771-11.055c-.053-.638-.372-.053-.213.212zm-32.82 5.58c-.212 1.648-.052 3.322-.026 4.97.133 4.119.425 8.264.903 12.357.426.213.027-1.01.08-1.409-.584-5.261-.797-10.576-.904-15.864v-.054zm36.488 1.01c-.133 5.156-.212 10.311.053 15.493.266.718.16-.77.16-1.01-.107-4.756-.08-9.54 0-14.324-.027-.291.239-1.381-.186-1.09 0 .293 0 .612-.027.931m-25.618 2.71c1.036 1.728 2.073 3.482 3.136 5.182.69-.08.85-1.222 1.382-1.726.717-1.197 1.541-2.34 2.206-3.562-.48-.106-1.01-.026-1.489-.052h-5.315zm11.081.133c1.037 1.887 2.1 3.747 3.162 5.634.719-.425.904-1.514 1.463-2.179a169 169 0 0 0 2.126-3.694c-2.312-.08-4.598-.052-6.91-.052.054.106.106.186.16.291m-12.702 3.774c0 3.003 0 6.006.106 9.01.531-.479.744-1.197 1.196-1.755.797-1.275 1.594-2.577 2.392-3.853-.4-1.01-1.143-1.808-1.675-2.737-.637-1.01-1.275-2.047-1.966-3.03-.107.797-.027 1.594-.053 2.365m9.221-1.807a212 212 0 0 0-2.604 4.066c-.717.559-.664 1.382-.08 1.993 1.09 1.833 2.232 3.668 3.295 5.502.532.478.107-.904.186-1.197-.16-3.534-.319-7.068-.558-10.603-.106-.08-.159.186-.239.24m10.683.771c-.93 1.568-1.86 3.083-2.79 4.624-.107.93.77 1.568 1.063 2.392.797 1.409 1.568 2.843 2.392 4.252.132-1.197-.054-2.392-.027-3.588-.08-2.71-.133-5.448-.24-8.185-.238-.027-.238.399-.398.505m-8.29.212c.132 3.163.212 6.299.344 9.46.639-.45.878-1.434 1.382-2.125.532-.877 1.037-1.754 1.542-2.631-1.063-1.727-2.073-3.454-3.136-5.129-.292-.212-.08.319-.133.425m-7.07 6.272c-1.223 1.887-2.472 3.774-3.64 5.688.717.371 1.568.025 2.365.159 1.833 0 3.667.026 5.5-.054-.424-1.01-1.196-1.887-1.753-2.843-.692-1.09-1.382-2.179-2.126-3.242-.187-.107-.24.212-.346.292m11.24.372a862 862 0 0 0-3.187 5.289c.876.398 1.965.08 2.949.186 1.276 0 2.578 0 3.853-.054-.292-.797-.904-1.408-1.302-2.179-.717-1.142-1.382-2.312-2.153-3.428-.08-.027-.106.133-.16.186"/><path fill="#4a4a4a" fill-rule="evenodd" d="M815.767 413.725c-5.022 3.429-10.046 6.857-15.04 10.311-.72 1.063-1.17 2.286-1.755 3.429-1.887 3.853-3.747 7.733-5.634 11.586.452.372 1.17 1.116 1.409.16.132 5.076.266 10.178.505 15.253.292.851-.453 1.489-1.223 1.569-1.356.53-2.71 1.01-4.067 1.514 11.348.133 22.67.213 34.017.293 5.34.053 10.71.106 16.078.132a297 297 0 0 0-4.04-2.179v-15.838c.293.69.85 1.01 1.515.585 1.302-.266-.16-1.462-.319-2.153-2.26-4.198-4.545-8.371-6.803-12.543-1.515-1.489-3.162-2.844-4.73-4.279-3.057-2.737-6.113-5.5-9.222-8.212-.293-.053-.452.266-.691.372m-.212.4a7034 7034 0 0 0-14.803 10.124c-2.259 4.757-4.624 9.46-6.882 14.244-.665.745.823 1.302.85.292 2.178-4.517 4.438-8.955 6.697-13.42.584-.717 1.488-1.09 2.205-1.674 4.146-2.843 8.265-5.767 12.384-8.637.824.425 1.409 1.17 2.153 1.701 3.667 3.136 7.334 6.245 11.028 9.38 2.286 4.2 4.544 8.372 6.83 12.57-.133.665.186 1.516.824 1.808.983.16 1.09-.93.478-1.489-2.072-3.852-4.198-7.706-6.272-11.586-.478-.983-1.115-1.913-1.992-2.604-3.03-2.658-5.98-5.342-8.982-8a404 404 0 0 0-3.588-3.215c-.4-.026-.639.346-.93.505m-.213 1.647c-4.438 3.109-8.85 6.245-13.314 9.3-.957 1.064-1.408 2.472-2.1 3.695a1647 1647 0 0 1-4.97 9.965c.107 5.926.373 11.826.559 17.752.425.664 1.568.107 2.285.293 2.073 0 4.12-.027 6.193-.027 0-6.165.026-12.304.026-18.47h24.342c.133 3.004.08 6.034.16 9.062.053 3.084.106 6.193.186 9.275.744.32 1.594.053 2.391.16h4.652c.08-2.499.026-4.996.053-7.494-.027-3.508-.027-7.043-.027-10.55-2.232-4.093-4.438-8.186-6.697-12.252-.77-.903-1.78-1.568-2.631-2.391-3.375-2.87-6.75-5.714-10.125-8.584-.345-.266-.718.053-.983.266m-1.595 2.764c-.16 2.126.053 4.251.107 6.377.053.93.132 1.887.266 2.79.451-.53-.107-1.647 0-2.418-.186-2.205-.107-4.437-.24-6.67.08-.106-.106-.212-.133-.08m3.96 1.435a47 47 0 0 0 .213 5.82c.478.318.052-1.01.132-1.276-.185-1.807-.08-3.588-.16-5.395-.185-.345-.159.77-.185.85m-7.654 5.447c0 3.216-.105 6.405-.132 9.593.292.346.186-.982.239-1.195.106-4.119.132-8.212.186-12.33-.558.292-.107 1.142-.266 1.674 0 .77 0 1.514-.027 2.258m11.746-1.594c.134 3.853.213 7.707.373 11.533.425-.77 0-1.886.106-2.817-.054-3.029-.239-6.085-.213-9.141-.319-.957-.292.16-.266.425m-14.988-.266c.107 3.933.292 7.893.426 11.826.106.372-.08 1.435.266 1.355.053-1.116-.107-2.259-.107-3.401-.132-3.242-.213-6.511-.398-9.753 0-.053-.134-.16-.187-.027m-3.64 2.445c.24 4.093.398 8.186.478 12.251.372.212.133-1.117.185-1.488a202 202 0 0 0-.45-10.603c0-.133-.133-.559-.213-.16m22.987 2.63c.027 2.658.106 5.342.345 7.973.479-.026 0-1.249.08-1.7q-.24-4.346-.239-8.69c-.373-.532-.16.85-.213 1.09 0 .451.027.903.027 1.328M814.173 431v3.083h4.996v-6.166h-4.996zm.212 0v2.87h4.57v-5.74h-4.57zm.904-.08v2.206h2.71v-4.411h-2.71zm-15.175-.026c-.212 5.422-.106 10.842.187 16.237.16 2.87.398 5.714.69 8.584.478.266.054-1.063.107-1.382a167 167 0 0 1-.824-20.277l.08-3.614c-.266-.266-.213.345-.24.452m29.764.372c.24 4.305.505 8.583.93 12.862.532-.186-.052-1.435.053-1.993a262 262 0 0 1-.77-11.055c-.053-.638-.373-.053-.213.212zm-32.82 5.58c-.212 1.648-.053 3.322-.026 4.97.132 4.12.425 8.265.904 12.358.425.212.025-1.01.08-1.41-.586-5.261-.798-10.575-.904-15.865v-.052zm36.488 1.01c-.133 5.155-.213 10.311.053 15.494.266.717.16-.771.16-1.01-.107-4.757-.08-9.54 0-14.324-.028-.293.238-1.382-.187-1.09 0 .292 0 .612-.026.93m-29.312 9.78v9.142h24.236c-.08-5.74-.186-11.507-.293-17.248.107-.637-.026-1.222-.77-1.036h-23.173zm1.86.425c.027 2.63.027 5.262.027 7.893h21.047c-.107-5.235-.266-10.47-.346-15.706-.797-.106-1.62-.026-2.418-.053h-18.31zm.212-7.069c-.132.904.718 1.488 1.063 2.233 2.631 4.038 5.236 8.105 7.84 12.144.213.904 1.887.612 1.143-.372-2.897-4.863-5.873-9.726-8.796-14.59h-1.25zm1.621-.425c1.037 1.727 2.073 3.482 3.136 5.182.69-.08.851-1.222 1.382-1.727.717-1.196 1.541-2.339 2.206-3.561-.478-.107-1.01-.027-1.489-.054h-5.315zm6.83.186c-1.142 1.807-2.285 3.641-3.455 5.474.346.558.877 1.755 1.276.612 1.037-1.622 2.1-3.243 3.136-4.89 0-.479.319-1.647-.478-1.542-.266-.053-.346.08-.479.346m1.17-.24c.265 5.05.504 10.099.797 15.149.478.185 1.727.345 1.355-.585-.132-4.784-.319-9.567-.451-14.351-.293-.558-1.25-.319-1.702-.212m1.913.692c-.16 1.09.451 2.02 1.01 2.87a127 127 0 0 0 2.47 3.96c.506-.532 1.038-1.33.426-1.994-1.063-1.86-2.099-3.773-3.162-5.634-.797-.105-.85.08-.744.798m1.17-.505c1.036 1.887 2.099 3.747 3.162 5.634.717-.425.903-1.515 1.461-2.179a169 169 0 0 0 2.126-3.694c-2.312-.08-4.598-.054-6.909-.054.053.107.106.186.16.293m7.041-.213a1306 1306 0 0 0-7.626 13.102c-.187.61-.32 1.727.132 2.073.478-.718.904-1.488 1.356-2.206 2.232-3.694 4.464-7.415 6.697-11.108v-1.94c-.186 0-.4-.027-.559.079m-19.745 3.987c0 3.003 0 6.005.107 9.008.53-.478.744-1.195 1.195-1.753.798-1.276 1.595-2.579 2.392-3.854-.398-1.01-1.142-1.807-1.674-2.738-.638-1.009-1.276-2.045-1.966-3.028-.107.797-.027 1.594-.054 2.365m9.222-1.807a214 214 0 0 0-2.605 4.065c-.717.558-.664 1.382-.08 1.994 1.09 1.833 2.233 3.667 3.296 5.5.531.479.106-.903.186-1.195-.16-3.535-.32-7.07-.558-10.603-.106-.08-.16.185-.24.239m10.683.77c-.93 1.568-1.86 3.083-2.79 4.624-.107.93.77 1.568 1.063 2.392.797 1.408 1.567 2.844 2.391 4.252.134-1.196-.053-2.391-.026-3.588-.08-2.71-.133-5.448-.239-8.185-.24-.026-.24.4-.4.505m-8.291.213c.132 3.162.212 6.298.345 9.46.638-.452.877-1.435 1.382-2.125.531-.877 1.036-1.755 1.541-2.632-1.063-1.727-2.073-3.455-3.136-5.128-.292-.214-.08.318-.132.425m-9.035 6.458c-.851 1.408-1.782 2.79-2.579 4.198 0 .478.027.956.027 1.436.904.16.983-1.143 1.514-1.595 1.038-1.594 2.074-3.162 3.057-4.783.027-.665-.824-1.78-1.143-.638-.293.451-.585.93-.876 1.382m13.845-.93c-.16.345-.558.664-.133 1.01 1.169 1.86 2.311 3.72 3.481 5.58.451.106 1.01-.053.771-.638-1.25-2.179-2.445-4.385-3.694-6.564-.186.186-.293.4-.425.611m-11.879.744c-1.222 1.886-2.472 3.773-3.641 5.686.717.373 1.568.027 2.365.16 1.834 0 3.667.026 5.501-.053-.425-1.01-1.196-1.887-1.754-2.844-.69-1.09-1.382-2.18-2.126-3.242-.185-.106-.24.213-.345.293m11.241.345c-1.063 1.78-2.126 3.534-3.189 5.315.877.399 1.967.08 2.95.186 1.275 0 2.577 0 3.853-.053-.292-.797-.903-1.409-1.302-2.179-.718-1.143-1.382-2.312-2.153-3.428-.08-.027-.106.132-.159.185zm-27.425 5.767c-1.17.425-2.312.876-3.482 1.302 13.129.186 26.282.212 39.411.345 2.817.026 5.634.053 8.45.053-.93-.637-1.966-1.116-2.975-1.648.105.719-.214 1.038-.878.904h-39.889c-.08-.505.266-1.488-.637-.956"/><path fill="#9cba3f" fill-rule="evenodd" d="M794.667 456.033c-1.17.425-2.312.876-3.482 1.302 13.129.186 26.282.212 39.411.345 2.817.026 5.634.053 8.45.053-.93-.637-1.966-1.116-2.975-1.648.105.719-.214 1.038-.878.904h-39.889c-.08-.505.266-1.488-.637-.956"/><path fill="#f2edb5" fill-rule="evenodd" d="M815.368 414.257c-4.863 3.348-9.752 6.67-14.59 10.019-2.391 4.916-4.782 9.806-7.174 14.722 1.143 1.037 1.329-1.063 1.833-1.701 1.914-3.88 3.8-7.76 5.793-11.56.426-1.01 1.568-1.355 2.34-2.02 4.172-2.87 8.29-5.793 12.436-8.69.824.4 1.382 1.143 2.126 1.701 3.614 3.083 7.282 6.14 10.87 9.249.823 1.062 1.328 2.338 2.019 3.48 1.674 3.083 3.322 6.14 4.996 9.223-.24.902.637 2.365 1.62 1.567.4-.69-.663-1.435-.85-2.152-2.178-4.013-4.33-8.026-6.51-12.039-1.063-1.17-2.339-2.1-3.455-3.189-3.321-2.95-6.617-5.9-9.938-8.85-.373-.717-1.117-.052-1.516.24m-.956 13.952c-.053 1.86-.027 3.72 0 5.58 1.514.16 3.03.054 4.544.08v-5.74c-1.489.027-3.003-.053-4.491.053zm.877 4.916h2.71v-4.411h-2.71zm-11.055 14.51v9.142c7.999-.027 15.998.027 23.997-.053.558-.612.053-1.781.185-2.631-.08-5.209-.16-10.391-.265-15.6h-23.917zm1.86.451v7.894h21.1c-.16-5.262-.24-10.524-.399-15.786h-20.701zm.212-7.12c-.105.876.718 1.46 1.037 2.178 2.605 4.039 5.235 8.079 7.839 12.117.107.931 1.834.798 1.17-.212-1.595-2.71-3.27-5.394-4.89-8.105-1.275-2.126-2.552-4.278-3.854-6.404-.398-.214-1.568-.373-1.302.425m8.504-.267c-1.116 1.833-2.312 3.64-3.428 5.475.186.69.851 1.673 1.223.557 1.09-1.62 2.126-3.268 3.162-4.916.08-.61-.026-1.94-.904-1.223zm1.143.186c.266 4.943.505 9.86.771 14.802.77.398 1.621-.08 1.328-.983-.132-4.624-.292-9.248-.451-13.872.053-.585-.532-.399-.904-.426-.319.054-.983-.212-.744.373zm1.914.558c-.107.797.212 1.515.69 2.126.904 1.462 1.78 2.976 2.764 4.412.798-.612.85-1.675.16-2.365-.984-1.755-1.94-3.482-2.924-5.21-.797-.265-.77.4-.69.93zm7.84-.372c-2.445 4.199-4.891 8.424-7.336 12.623-.106.531-.24 1.86.213 1.887.426-.532.665-1.196 1.063-1.727 2.311-3.854 4.65-7.707 6.963-11.534-.107-.558.345-2.153-.585-1.807-.133.186-.186.398-.319.558M810 448.379c-1.195 1.887-2.365 3.774-3.534 5.634-.16.505-.292 2.232.505 1.462 1.329-2.074 2.684-4.146 4.013-6.246-.24-.16-.612-1.541-.984-.85m12.942.479c-.743.664-.319 1.647.24 2.258.982 1.541 1.94 3.11 2.923 4.65 1.036.134.744-1.009.239-1.46-1.063-1.914-2.1-3.828-3.216-5.714-.106.08-.106.213-.186.266"/><path fill="#00c0c0" fill-rule="evenodd" d="M815.342 415.772c-4.438 3.109-8.85 6.245-13.314 9.3-.957 1.064-1.408 2.472-2.1 3.695a1647 1647 0 0 1-4.97 9.965c.107 5.926.373 11.826.559 17.752.425.664 1.568.107 2.285.293 2.073 0 4.12-.027 6.193-.027 0-6.165.026-12.304.026-18.47h24.342c.133 3.004.08 6.034.16 9.062.053 3.084.106 6.193.186 9.275.744.32 1.594.053 2.391.16h4.652c.08-2.499.026-4.996.053-7.494-.027-3.508-.027-7.043-.027-10.55-2.232-4.093-4.438-8.186-6.697-12.252-.77-.903-1.78-1.568-2.631-2.391-3.375-2.87-6.75-5.714-10.125-8.584-.345-.266-.718.053-.983.266m-1.595 2.764c-.16 2.126.053 4.251.107 6.377.053.93.132 1.887.266 2.79.451-.53-.107-1.647 0-2.418-.186-2.205-.107-4.437-.24-6.67.08-.106-.106-.212-.133-.08m3.96 1.435a47 47 0 0 0 .213 5.82c.478.318.052-1.01.132-1.276-.185-1.807-.08-3.588-.16-5.395-.185-.345-.159.77-.185.85m-7.654 5.447c0 3.216-.105 6.405-.132 9.593.292.346.186-.982.239-1.195.106-4.119.132-8.212.186-12.33-.558.292-.107 1.142-.266 1.674 0 .77 0 1.514-.027 2.258m11.746-1.594c.134 3.853.213 7.707.373 11.533.425-.77 0-1.886.106-2.817-.054-3.029-.239-6.085-.213-9.141-.319-.957-.292.16-.266.425m-14.988-.266c.107 3.933.292 7.893.426 11.826.106.372-.08 1.435.266 1.355.053-1.116-.107-2.259-.107-3.401-.132-3.242-.213-6.511-.398-9.753 0-.053-.134-.16-.187-.027m-3.64 2.445c.24 4.093.398 8.186.478 12.251.372.212.133-1.117.185-1.488a202 202 0 0 0-.45-10.603c0-.133-.133-.559-.213-.16m22.987 2.63c.027 2.658.106 5.342.345 7.973.479-.026 0-1.249.08-1.7q-.24-4.346-.239-8.69c-.373-.532-.16.85-.213 1.09 0 .451.027.903.027 1.328M814.173 431v3.083h4.996v-6.166h-4.996zm-14.059-.106c-.212 5.422-.106 10.842.187 16.237.16 2.87.398 5.714.69 8.584.478.266.054-1.063.107-1.382a167 167 0 0 1-.824-20.277l.08-3.614c-.266-.266-.213.345-.24.452m29.764.372c.24 4.305.505 8.583.93 12.862.532-.186-.052-1.435.053-1.993a262 262 0 0 1-.77-11.055c-.053-.638-.373-.053-.213.212zm-32.82 5.58c-.212 1.648-.053 3.322-.026 4.97.132 4.12.425 8.265.904 12.358.425.212.025-1.01.08-1.41-.586-5.261-.798-10.575-.904-15.865v-.052zm36.488 1.01c-.133 5.155-.213 10.311.053 15.494.266.717.16-.771.16-1.01-.107-4.757-.08-9.54 0-14.324-.028-.293.238-1.382-.187-1.09 0 .292 0 .612-.026.93m-25.619 2.71c1.037 1.728 2.073 3.483 3.136 5.183.69-.08.851-1.222 1.382-1.727.717-1.196 1.541-2.339 2.206-3.561-.478-.107-1.01-.027-1.489-.054h-5.315zm11.083.134c1.036 1.887 2.099 3.747 3.162 5.634.717-.425.903-1.515 1.461-2.179a169 169 0 0 0 2.126-3.694c-2.312-.08-4.598-.054-6.909-.054.053.107.106.186.16.293m-12.704 3.774c0 3.003 0 6.005.107 9.008.53-.478.744-1.195 1.195-1.753.798-1.276 1.595-2.579 2.392-3.854-.398-1.01-1.142-1.807-1.674-2.738-.638-1.009-1.276-2.045-1.966-3.028-.107.797-.027 1.594-.054 2.365m9.222-1.807a214 214 0 0 0-2.605 4.065c-.717.558-.664 1.382-.08 1.994 1.09 1.833 2.233 3.667 3.296 5.5.531.479.106-.903.186-1.195-.16-3.535-.32-7.07-.558-10.603-.106-.08-.16.185-.24.239m10.683.77c-.93 1.568-1.86 3.083-2.79 4.624-.107.93.77 1.568 1.063 2.392.797 1.408 1.567 2.844 2.391 4.252.134-1.196-.053-2.391-.026-3.588-.08-2.71-.133-5.448-.239-8.185-.24-.026-.24.4-.4.505m-8.291.213c.132 3.162.212 6.298.345 9.46.638-.452.877-1.435 1.382-2.125.531-.877 1.036-1.755 1.541-2.632-1.063-1.727-2.073-3.455-3.136-5.128-.292-.214-.08.318-.132.425m-7.069 6.272c-1.222 1.886-2.472 3.773-3.641 5.686.717.373 1.568.027 2.365.16 1.834 0 3.667.026 5.501-.053-.425-1.01-1.196-1.887-1.754-2.844-.69-1.09-1.382-2.18-2.126-3.242-.185-.106-.24.213-.345.293m11.241.371c-1.063 1.755-2.126 3.508-3.189 5.29.877.398 1.967.079 2.95.185 1.275 0 2.577 0 3.853-.053-.292-.797-.903-1.409-1.302-2.179-.718-1.143-1.382-2.312-2.153-3.428-.08-.027-.106.132-.159.185"/></g></svg>