<svg xmlns="http://www.w3.org/2000/svg" width="868" height="120" viewBox="0 -90 651 90"><g id="page1"><path fill="none" stroke="#000" stroke-linecap="round" stroke-linejoin="round" d="M.5-.496h649.629M.5-44.738h649.629M.5-88.984h649.629M.5-.496v-88.488M46.902-.496v-88.488M93.305-.496v-88.488M139.707-.496v-88.488M186.109-.496v-88.488M232.508-.496v-88.488M278.91-.496v-88.488M325.313-.496v-88.488M371.715-.496v-88.488M418.117-.496v-88.488M464.52-.496v-88.488M510.922-.496v-88.488M557.324-.496v-88.488M603.727-.496v-88.488M650.129-.496v-88.488"/><path d="M18.883-31.918c0-.55 0-.574-.477-.574-.574.648-1.77 1.531-4.23 1.531v.691c.55 0 1.742 0 3.058-.62v12.449c0 .863-.074 1.148-2.175 1.148h-.739v.691c.64-.046 2.961-.046 3.75-.046s3.082 0 3.727.046v-.691h-.742c-2.102 0-2.172-.285-2.172-1.148zm15.523 7.672c0-1.985-.12-3.918-.98-5.738-.98-1.98-2.7-2.508-3.871-2.508-1.387 0-3.082.695-3.97 2.676-.667 1.507-.905 2.988-.905 5.57 0 2.316.168 4.062 1.027 5.758.934 1.816 2.582 2.39 3.824 2.39 2.078 0 3.274-1.242 3.965-2.629.863-1.793.91-4.132.91-5.52m-4.875 7.668c-.765 0-2.32-.43-2.773-3.031-.262-1.438-.262-3.25-.262-4.926 0-1.957 0-3.727.383-5.137.406-1.601 1.625-2.344 2.652-2.344.907 0 2.293.551 2.75 2.606.309 1.363.309 3.25.309 4.875 0 1.601 0 3.418-.262 4.875-.453 2.629-1.96 3.082-2.797 3.082m35.75-15.339c0-.55 0-.574-.476-.574-.575.648-1.77 1.531-4.23 1.531v.691c.55 0 1.745 0 3.058-.62v12.449c0 .863-.07 1.148-2.172 1.148h-.742v.691c.644-.046 2.96-.046 3.75-.046.789 0 3.086 0 3.726.046v-.691h-.738c-2.101 0-2.176-.285-2.176-1.148zm11.703 0c0-.55 0-.574-.48-.574-.574.648-1.77 1.531-4.23 1.531v.691c.55 0 1.745 0 3.058-.62v12.449c0 .863-.07 1.148-2.172 1.148h-.742v.691c.644-.046 2.965-.046 3.754-.046.785 0 3.082 0 3.726.046v-.691h-.742c-2.101 0-2.172-.285-2.172-1.148zm34.7 0c0-.55 0-.574-.481-.574-.57.648-1.765 1.531-4.226 1.531v.691c.546 0 1.742 0 3.054-.62v12.449c0 .863-.07 1.148-2.172 1.148h-.742v.691c.645-.046 2.965-.046 3.754-.046.785 0 3.082 0 3.727.046v-.691h-.743c-2.101 0-2.171-.285-2.171-1.148zm11.937 6.691c1.195-.644 2.942-1.746 2.942-3.75 0-2.082-2.008-3.515-4.208-3.515-2.367 0-4.23 1.746-4.23 3.922 0 .812.238 1.625.906 2.437.266.309.289.332 1.961 1.504-2.316 1.074-3.512 2.676-3.512 4.422 0 2.531 2.415 4.11 4.852 4.11 2.652 0 4.875-1.962 4.875-4.47 0-2.437-1.723-3.511-3.586-4.66m-3.25-2.152c-.308-.215-1.266-.836-1.266-2.004 0-1.555 1.625-2.535 3.227-2.535 1.719 0 3.25 1.242 3.25 2.965 0 1.457-1.051 2.625-2.437 3.39zm1.121 3.082 2.895 1.89c.621.407 1.718 1.15 1.718 2.606 0 1.817-1.839 3.059-3.75 3.059-2.031 0-3.777-1.485-3.777-3.465 0-1.863 1.363-3.371 2.914-4.09m40.223 3.684h-.527c-.071.406-.262 1.718-.5 2.101-.168.215-1.532.215-2.247.215h-4.421c.644-.55 2.101-2.078 2.722-2.652 3.637-3.348 4.973-4.59 4.973-6.953 0-2.75-2.176-4.59-4.949-4.59-2.77 0-4.395 2.367-4.395 4.422 0 1.218 1.051 1.218 1.121 1.218.504 0 1.125-.359 1.125-1.125 0-.668-.453-1.12-1.125-1.12-.211 0-.262 0-.332.023.453-1.625 1.746-2.723 3.297-2.723 2.031 0 3.273 1.695 3.273 3.895 0 2.03-1.167 3.8-2.531 5.328l-4.828 5.402v.57h8.723zm11.699 0h-.523c-.075.406-.262 1.718-.504 2.101-.168.215-1.528.215-2.246.215h-4.422c.648-.55 2.105-2.078 2.726-2.652 3.633-3.348 4.969-4.59 4.969-6.953 0-2.75-2.172-4.59-4.945-4.59s-4.399 2.367-4.399 4.422c0 1.218 1.051 1.218 1.125 1.218.5 0 1.121-.359 1.121-1.125 0-.668-.453-1.12-1.121-1.12-.215 0-.265 0-.336.023.454-1.625 1.746-2.723 3.297-2.723 2.032 0 3.274 1.695 3.274 3.895 0 2.03-1.168 3.8-2.532 5.328l-4.828 5.402v.57h8.723zm28.582-4.567c-.406.024-.5.047-.5.266 0 .238.117.238.551.238h1.098c2.031 0 2.937 1.672 2.937 3.965 0 3.133-1.625 3.969-2.793 3.969-1.148 0-3.109-.551-3.801-2.13.766.122 1.457-.308 1.457-1.167 0-.695-.5-1.172-1.172-1.172-.57 0-1.195.332-1.195 1.242 0 2.125 2.129 3.871 4.781 3.871 2.844 0 4.946-2.175 4.946-4.59 0-2.195-1.766-3.918-4.063-4.324 2.078-.597 3.418-2.34 3.418-4.207 0-1.886-1.957-3.273-4.277-3.273-2.391 0-4.156 1.457-4.156 3.203 0 .957.738 1.148 1.097 1.148.504 0 1.074-.359 1.074-1.078 0-.765-.57-1.097-1.097-1.097-.145 0-.192 0-.262.023.906-1.625 3.152-1.625 3.274-1.625.789 0 2.339.36 2.339 2.7 0 .452-.07 1.792-.761 2.82-.719 1.05-1.532 1.125-2.176 1.148zm14.426-.047c1.195-.644 2.937-1.746 2.937-3.75 0-2.082-2.007-3.515-4.203-3.515-2.367 0-4.23 1.746-4.23 3.922 0 .812.238 1.625.906 2.437.262.309.289.332 1.961 1.504-2.316 1.074-3.512 2.676-3.512 4.422 0 2.531 2.414 4.11 4.852 4.11 2.648 0 4.875-1.962 4.875-4.47 0-2.437-1.723-3.511-3.586-4.66m-3.25-2.152c-.313-.215-1.266-.836-1.266-2.004 0-1.555 1.625-2.535 3.227-2.535 1.719 0 3.25 1.242 3.25 2.965 0 1.457-1.055 2.625-2.438 3.39zm1.121 3.082 2.895 1.89c.621.407 1.718 1.15 1.718 2.606 0 1.817-1.84 3.059-3.75 3.059-2.035 0-3.777-1.485-3.777-3.465 0-1.863 1.363-3.371 2.914-4.09m38.336-7.859c0-.453 0-.575-.336-.575-.191 0-.262 0-.453.286l-7.195 11.16v.695h6.285v2.176c0 .883-.047 1.121-1.793 1.121h-.477v.691c.551-.046 2.438-.046 3.106-.046.672 0 2.582 0 3.132.046v-.691h-.48c-1.719 0-1.789-.238-1.789-1.121v-2.176h2.41v-.695h-2.41zm-1.578 1.863v9.008h-5.809zm15.164 9.68h-.527c-.071.406-.262 1.718-.5 2.101-.168.215-1.532.215-2.247.215h-4.421c.644-.55 2.101-2.078 2.722-2.652 3.637-3.348 4.973-4.59 4.973-6.953 0-2.75-2.176-4.59-4.949-4.59-2.77 0-4.395 2.367-4.395 4.422 0 1.218 1.051 1.218 1.121 1.218.504 0 1.125-.359 1.125-1.125 0-.668-.453-1.12-1.125-1.12-.211 0-.262 0-.332.023.453-1.625 1.746-2.723 3.297-2.723 2.031 0 3.273 1.695 3.273 3.895 0 2.03-1.167 3.8-2.531 5.328l-4.828 5.402v.57h8.723zm27.246-9.68a7 7 0 0 0 2.125.36c2.699 0 4.422-1.985 4.422-2.317 0-.098-.047-.219-.192-.219-.05 0-.097 0-.312.098a7.8 7.8 0 0 1-3.106.644c-1.578 0-2.699-.476-3.156-.668-.164-.074-.215-.074-.238-.074-.191 0-.191.145-.191.528v7.097c0 .43 0 .575.289.575.117 0 .14-.028.382-.313.668-.98 1.789-1.55 2.985-1.55 1.265 0 1.89 1.167 2.078 1.573.406.934.433 2.106.433 3.012s0 2.27-.671 3.344c-.524.863-1.457 1.46-2.508 1.46a3.694 3.694 0 0 1-3.559-2.82c.117.047.262.07.379.07.406 0 1.051-.238 1.051-1.05 0-.668-.453-1.05-1.051-1.05-.43 0-1.051.214-1.051 1.148 0 2.03 1.625 4.347 4.278 4.347 2.699 0 5.066-2.27 5.066-5.304 0-2.844-1.91-5.211-4.422-5.211-1.359 0-2.414.597-3.031 1.265zm17.266-1.863c0-.453 0-.575-.336-.575-.188 0-.262 0-.453.286l-7.192 11.16v.695h6.285v2.176c0 .883-.047 1.121-1.793 1.121h-.48v.691c.551-.046 2.437-.046 3.109-.046.668 0 2.578 0 3.129.046v-.691h-.476c-1.723 0-1.793-.238-1.793-1.121v-2.176h2.414v-.695h-2.414zm-1.579 1.863v9.008h-5.804zm30.711 0a7 7 0 0 0 2.125.36c2.704 0 4.422-1.985 4.422-2.317 0-.098-.047-.219-.191-.219-.047 0-.094 0-.309.098a7.9 7.9 0 0 1-3.109.644c-1.578 0-2.699-.476-3.152-.668-.168-.074-.215-.074-.239-.074-.191 0-.191.145-.191.528v7.097c0 .43 0 .575.285.575.121 0 .145-.028.383-.313.668-.98 1.793-1.55 2.988-1.55 1.266 0 1.887 1.167 2.078 1.573.406.934.43 2.106.43 3.012s0 2.27-.668 3.344c-.527.863-1.457 1.46-2.512 1.46a3.69 3.69 0 0 1-3.558-2.82c.117.047.261.07.382.07.407 0 1.051-.238 1.051-1.05 0-.668-.453-1.05-1.051-1.05-.429 0-1.054.214-1.054 1.148 0 2.03 1.625 4.347 4.277 4.347 2.703 0 5.067-2.27 5.067-5.304 0-2.844-1.911-5.211-4.418-5.211-1.364 0-2.415.597-3.036 1.265zm17.27-1.863c0-.453 0-.575-.336-.575-.191 0-.262 0-.453.286l-7.195 11.16v.695h6.285v2.176c0 .883-.047 1.121-1.793 1.121h-.477v.691c.551-.046 2.438-.046 3.106-.046.672 0 2.582 0 3.132.046v-.691h-.48c-1.719 0-1.789-.238-1.789-1.121v-2.176h2.41v-.695h-2.41zm-1.578 1.863v9.008h-5.809zm30.707 0a7 7 0 0 0 2.129.36c2.699 0 4.418-1.985 4.418-2.317 0-.098-.047-.219-.188-.219-.051 0-.097 0-.312.098a7.8 7.8 0 0 1-3.106.644 7.8 7.8 0 0 1-3.156-.668c-.164-.074-.215-.074-.238-.074-.192 0-.192.145-.192.528v7.097c0 .43 0 .575.285.575.122 0 .145-.028.383-.313a3.61 3.61 0 0 1 2.989-1.55c1.265 0 1.886 1.167 2.078 1.573.406.934.433 2.106.433 3.012s0 2.27-.672 3.344c-.523.863-1.457 1.46-2.507 1.46a3.7 3.7 0 0 1-3.563-2.82c.121.047.266.07.383.07.406 0 1.051-.238 1.051-1.05 0-.668-.453-1.05-1.051-1.05-.43 0-1.051.214-1.051 1.148 0 2.03 1.625 4.347 4.277 4.347 2.7 0 5.067-2.27 5.067-5.304 0-2.844-1.91-5.211-4.422-5.211-1.363 0-2.414.597-3.035 1.265zm17.39 6.738c0 5.64-2.511 6.813-3.945 6.813-.574 0-1.84-.074-2.437-.91h.144c.168.05 1.028-.094 1.028-.98 0-.524-.36-.977-.981-.977s-1.004.406-1.004 1.027c0 1.48 1.195 2.484 3.274 2.484 2.988 0 5.878-3.18 5.878-8.363 0-6.43-2.675-8.031-4.777-8.031-2.629 0-4.949 2.199-4.949 5.351 0 3.157 2.223 5.309 4.613 5.309 1.77 0 2.676-1.293 3.156-2.512zm-3.058 1.242c-1.508 0-2.152-1.218-2.367-1.671-.383-.907-.383-2.055-.383-3.13 0-1.34 0-2.488.621-3.464.43-.649 1.074-1.34 2.367-1.34 1.36 0 2.055 1.195 2.293 1.746.477 1.168.477 3.2.477 3.559 0 2.008-.907 4.3-3.008 4.3m40.363-9.128v-.547h-5.762c-2.89 0-2.937-.313-3.035-.766h-.523l-.742 4.777h.527c.07-.43.285-1.91.598-2.171.187-.145 1.98-.145 2.316-.145h5.066l-2.535 3.633c-.644.933-3.058 4.851-3.058 9.344 0 .261 0 1.218.98 1.218 1.004 0 1.004-.933 1.004-1.242v-1.195c0-3.563.574-6.332 1.695-7.934zm7.231-.477c0-.55 0-.574-.481-.574-.57.648-1.765 1.531-4.226 1.531v.691c.546 0 1.742 0 3.054-.62v12.449c0 .863-.07 1.148-2.172 1.148h-.742v.691c.645-.046 2.965-.046 3.754-.046.785 0 3.082 0 3.727.046v-.691h-.743c-2.101 0-2.171-.285-2.171-1.148zm39.168.477v-.547h-5.758c-2.895 0-2.942-.313-3.039-.766h-.524l-.738 4.777h.523c.071-.43.286-1.91.598-2.171.191-.145 1.984-.145 2.316-.145h5.067l-2.531 3.633c-.649.933-3.059 4.851-3.059 9.344 0 .261 0 1.218.981 1.218 1 0 1-.933 1-1.242v-1.195c0-3.563.574-6.332 1.699-7.934zm7.23-.477c0-.55 0-.574-.477-.574-.574.648-1.769 1.531-4.23 1.531v.691c.551 0 1.742 0 3.059-.62v12.449c0 .863-.075 1.148-2.176 1.148h-.738v.691c.644-.046 2.96-.046 3.75-.046.789 0 3.082 0 3.726.046v-.691h-.738c-2.102 0-2.176-.285-2.176-1.148zm39.172.477v-.547h-5.762c-2.89 0-2.937-.313-3.035-.766h-.527l-.739 4.777h.524c.074-.43.289-1.91.598-2.171.191-.145 1.984-.145 2.32-.145h5.062l-2.531 3.633c-.644.933-3.059 4.851-3.059 9.344 0 .261 0 1.218.981 1.218 1.004 0 1.004-.933 1.004-1.242v-1.195c0-3.563.574-6.332 1.695-7.934zm3.285 6.527c0-6.047 2.938-7.004 4.231-7.004.859 0 1.718.262 2.175.98-.289 0-1.199 0-1.199.981 0 .523.363.98.981.98.601 0 1.007-.359 1.007-1.054 0-1.242-.91-2.461-2.988-2.461-3.012 0-6.168 3.082-6.168 8.34 0 6.574 2.867 8.054 4.899 8.054 2.605 0 4.828-2.27 4.828-5.379 0-3.175-2.223-5.304-4.61-5.304-2.129 0-2.918 1.84-3.156 2.511zm2.938 8.172c-1.504 0-2.219-1.34-2.434-1.84-.215-.621-.453-1.793-.453-3.465 0-1.89.855-4.254 3.008-4.254 1.316 0 2.007.883 2.367 1.695.383.883.383 2.079.383 3.106 0 1.219 0 2.297-.457 3.203-.594 1.149-1.457 1.555-2.414 1.555m40.175-14.699v-.547h-5.761c-2.891 0-2.938-.313-3.036-.766h-.523l-.742 4.777h.527c.071-.43.285-1.91.598-2.171.191-.145 1.98-.145 2.316-.145h5.067l-2.535 3.633c-.645.933-3.055 4.851-3.055 9.344 0 .261 0 1.218.976 1.218 1.004 0 1.004-.933 1.004-1.242v-1.195c0-3.563.575-6.332 1.7-7.934zm3.286 6.527c0-6.047 2.941-7.004 4.23-7.004.863 0 1.723.262 2.176.98-.289 0-1.196 0-1.196.981 0 .523.36.98.981.98.598 0 1.004-.359 1.004-1.054 0-1.242-.91-2.461-2.988-2.461-3.012 0-6.165 3.082-6.165 8.34 0 6.574 2.868 8.054 4.899 8.054 2.605 0 4.828-2.27 4.828-5.379 0-3.175-2.223-5.304-4.613-5.304-2.125 0-2.914 1.84-3.156 2.511zm2.941 8.172c-1.508 0-2.223-1.34-2.438-1.84-.214-.621-.453-1.793-.453-3.465 0-1.89.86-4.254 3.008-4.254 1.317 0 2.008.883 2.367 1.695.383.883.383 2.079.383 3.106 0 1.219 0 2.297-.453 3.203-.598 1.149-1.457 1.555-2.414 1.555m37.566-6.813c0 5.64-2.507 6.813-3.941 6.813-.574 0-1.84-.074-2.438-.91h.145c.168.05 1.023-.094 1.023-.98 0-.524-.355-.977-.976-.977s-1.004.406-1.004 1.027c0 1.48 1.195 2.484 3.273 2.484 2.989 0 5.879-3.18 5.879-8.363 0-6.43-2.676-8.031-4.777-8.031-2.633 0-4.949 2.199-4.949 5.351 0 3.157 2.222 5.309 4.613 5.309 1.77 0 2.676-1.293 3.152-2.512zm-3.058 1.242c-1.504 0-2.153-1.218-2.364-1.671-.382-.907-.382-2.055-.382-3.13 0-1.34 0-2.488.621-3.464.429-.649 1.074-1.34 2.367-1.34 1.359 0 2.051 1.195 2.293 1.746.476 1.168.476 3.2.476 3.559 0 2.008-.906 4.3-3.011 4.3m8.953-2.601c0-6.047 2.937-7.004 4.23-7.004.86 0 1.719.262 2.172.98-.285 0-1.195 0-1.195.981 0 .523.359.98.98.98.602 0 1.004-.359 1.004-1.054 0-1.242-.91-2.461-2.984-2.461-3.012 0-6.168 3.082-6.168 8.34 0 6.574 2.867 8.054 4.898 8.054 2.606 0 4.828-2.27 4.828-5.379 0-3.175-2.222-5.304-4.613-5.304-2.125 0-2.914 1.84-3.152 2.511zm2.937 8.172c-1.504 0-2.222-1.34-2.437-1.84-.211-.621-.453-1.793-.453-3.465 0-1.89.859-4.254 3.011-4.254 1.317 0 2.008.883 2.368 1.695.382.883.382 2.079.382 3.106 0 1.219 0 2.297-.457 3.203-.597 1.149-1.457 1.555-2.414 1.555M18.883-76.219c0-.547 0-.57-.477-.57-.574.645-1.77 1.527-4.23 1.527v.692c.55 0 1.742 0 3.058-.621v12.449c0 .863-.074 1.148-2.175 1.148h-.739v.696c.64-.051 2.961-.051 3.75-.051s3.082 0 3.727.05v-.695h-.742c-2.102 0-2.172-.285-2.172-1.148zm15.523 7.672c0-1.984-.12-3.918-.98-5.734-.98-1.985-2.7-2.508-3.871-2.508-1.387 0-3.082.691-3.97 2.672-.667 1.508-.905 2.988-.905 5.57 0 2.316.168 4.063 1.027 5.758.934 1.816 2.582 2.39 3.824 2.39 2.078 0 3.274-1.242 3.965-2.628.863-1.793.91-4.133.91-5.52m-4.875 7.672c-.765 0-2.32-.43-2.773-3.035-.262-1.434-.262-3.25-.262-4.926 0-1.957 0-3.727.383-5.137.406-1.597 1.625-2.34 2.652-2.34.907 0 2.293.547 2.75 2.602.309 1.363.309 3.25.309 4.875 0 1.602 0 3.418-.262 4.875-.453 2.633-1.96 3.086-2.797 3.086m35.75-15.344c0-.547 0-.57-.476-.57-.575.645-1.77 1.527-4.23 1.527v.692c.55 0 1.745 0 3.058-.621v12.449c0 .863-.07 1.148-2.172 1.148h-.742v.696c.644-.051 2.96-.051 3.75-.051.789 0 3.086 0 3.726.05v-.695h-.738c-2.101 0-2.176-.285-2.176-1.148zm11.703 0c0-.547 0-.57-.48-.57-.574.645-1.77 1.527-4.23 1.527v.692c.55 0 1.745 0 3.058-.621v12.449c0 .863-.07 1.148-2.172 1.148h-.742v.696c.644-.051 2.965-.051 3.754-.051.785 0 3.082 0 3.726.05v-.695h-.742c-2.101 0-2.172-.285-2.172-1.148zm40.836 6.692c1.196-.645 2.942-1.746 2.942-3.75 0-2.082-2.008-3.512-4.207-3.512-2.367 0-4.231 1.742-4.231 3.918 0 .812.239 1.625.91 2.437.262.309.286.332 1.957 1.504-2.316 1.075-3.511 2.676-3.511 4.422 0 2.531 2.414 4.11 4.851 4.11 2.653 0 4.875-1.961 4.875-4.47 0-2.437-1.718-3.51-3.586-4.66m-3.25-2.153c-.308-.21-1.265-.836-1.265-2.004 0-1.554 1.625-2.535 3.226-2.535 1.723 0 3.25 1.242 3.25 2.965 0 1.457-1.051 2.629-2.437 3.395zm1.125 3.086 2.891 1.887c.621.406 1.719 1.148 1.719 2.605 0 1.817-1.836 3.059-3.75 3.059-2.032 0-3.774-1.48-3.774-3.465 0-1.863 1.36-3.37 2.914-4.086m42.387-7.624c0-.547 0-.57-.477-.57-.574.645-1.769 1.527-4.23 1.527v.692c.551 0 1.742 0 3.059-.621v12.449c0 .863-.075 1.148-2.176 1.148h-.738v.696c.644-.051 2.96-.051 3.75-.051.789 0 3.082 0 3.726.05v-.695h-.738c-2.102 0-2.176-.285-2.176-1.148zm11.699 0c0-.547 0-.57-.476-.57-.575.645-1.77 1.527-4.231 1.527v.692c.551 0 1.746 0 3.059-.621v12.449c0 .863-.07 1.148-2.172 1.148h-.742v.696c.644-.051 2.961-.051 3.75-.051s3.086 0 3.726.05v-.695h-.738c-2.102 0-2.176-.285-2.176-1.148zm38.332 11.305h-.523c-.074.406-.262 1.719-.5 2.102-.168.214-1.531.214-2.25.214h-4.418c.644-.55 2.101-2.078 2.723-2.652 3.632-3.344 4.968-4.586 4.968-6.953 0-2.75-2.172-4.586-4.945-4.586s-4.398 2.363-4.398 4.418c0 1.219 1.05 1.219 1.125 1.219.5 0 1.121-.356 1.121-1.121 0-.672-.453-1.125-1.121-1.125-.215 0-.262 0-.336.023.457-1.625 1.746-2.723 3.3-2.723 2.032 0 3.274 1.696 3.274 3.895 0 2.031-1.172 3.8-2.535 5.328l-4.828 5.402v.575h8.722zm11.895-3.633c0-1.984-.121-3.918-.981-5.734-.98-1.985-2.703-2.508-3.871-2.508-1.386 0-3.086.691-3.968 2.672-.668 1.508-.907 2.988-.907 5.57 0 2.316.164 4.063 1.028 5.758.929 1.816 2.578 2.39 3.824 2.39 2.078 0 3.273-1.242 3.965-2.628.859-1.793.91-4.133.91-5.52m-4.875 7.672c-.766 0-2.32-.43-2.774-3.035-.265-1.434-.265-3.25-.265-4.926 0-1.957 0-3.727.383-5.137.406-1.597 1.625-2.34 2.656-2.34.906 0 2.293.547 2.746 2.602.309 1.363.309 3.25.309 4.875 0 1.602 0 3.418-.262 4.875-.453 2.633-1.957 3.086-2.793 3.086m39.383-4.039h-.528c-.07.406-.261 1.719-.5 2.102-.168.214-1.531.214-2.246.214h-4.422c.645-.55 2.102-2.078 2.723-2.652 3.633-3.344 4.973-4.586 4.973-6.953 0-2.75-2.176-4.586-4.95-4.586-2.769 0-4.394 2.363-4.394 4.418 0 1.219 1.051 1.219 1.121 1.219.504 0 1.125-.356 1.125-1.121 0-.672-.453-1.125-1.125-1.125-.215 0-.262 0-.332.023.453-1.625 1.742-2.723 3.297-2.723 2.031 0 3.273 1.696 3.273 3.895 0 2.031-1.172 3.8-2.535 5.328l-4.824 5.402v.575h8.723zm11.89-3.633c0-1.984-.121-3.918-.98-5.734-.981-1.985-2.699-2.508-3.871-2.508-1.387 0-3.082.691-3.965 2.672-.672 1.508-.91 2.988-.91 5.57 0 2.316.168 4.063 1.027 5.758.934 1.816 2.582 2.39 3.824 2.39 2.078 0 3.274-1.242 3.965-2.628.863-1.793.91-4.133.91-5.52m-4.875 7.672c-.765 0-2.316-.43-2.773-3.035-.262-1.434-.262-3.25-.262-4.926 0-1.957 0-3.727.383-5.137.406-1.597 1.625-2.34 2.652-2.34.907 0 2.293.547 2.75 2.602.309 1.363.309 3.25.309 4.875 0 1.602 0 3.418-.262 4.875-.457 2.633-1.961 3.086-2.797 3.086m35.75-15.344c0-.547 0-.57-.476-.57-.575.645-1.77 1.527-4.231 1.527v.692c.551 0 1.746 0 3.059-.621v12.449c0 .863-.07 1.148-2.172 1.148h-.742v.696c.644-.051 2.961-.051 3.75-.051s3.086 0 3.726.05v-.695h-.738c-2.102 0-2.176-.285-2.176-1.148zm7.758 7.004c0-6.047 2.938-7.004 4.231-7.004.859 0 1.718.266 2.175.98-.289 0-1.199 0-1.199.981 0 .524.363.98.981.98.601 0 1.007-.359 1.007-1.05 0-1.242-.91-2.461-2.988-2.461-3.012 0-6.168 3.078-6.168 8.336 0 6.574 2.867 8.055 4.899 8.055 2.605 0 4.828-2.27 4.828-5.375 0-3.18-2.223-5.305-4.61-5.305-2.129 0-2.918 1.836-3.156 2.508zm2.938 8.172c-1.504 0-2.219-1.34-2.438-1.84-.211-.62-.449-1.793-.449-3.465 0-1.886.855-4.254 3.008-4.254 1.316 0 2.007.883 2.367 1.696.383.883.383 2.078.383 3.11 0 1.218 0 2.292-.457 3.198-.594 1.149-1.457 1.555-2.414 1.555m43.351-15.414c0-.453 0-.574-.336-.574-.191 0-.262 0-.453.289l-7.195 11.156v.695h6.285v2.176c0 .883-.047 1.121-1.789 1.121h-.481v.696c.551-.051 2.438-.051 3.11-.051.668 0 2.578 0 3.129.05v-.695h-.481c-1.719 0-1.789-.238-1.789-1.12v-2.177h2.414v-.695h-2.414zm-1.578 1.863v9.008h-5.809zm42.41 0a7 7 0 0 0 2.125.36c2.699 0 4.422-1.985 4.422-2.317 0-.097-.047-.215-.191-.215-.047 0-.094 0-.313.094a7.8 7.8 0 0 1-3.105.645c-1.578 0-2.7-.477-3.153-.668-.168-.07-.218-.07-.242-.07-.187 0-.187.14-.187.523v7.098c0 .43 0 .574.285.574.121 0 .144-.024.383-.313.668-.976 1.793-1.55 2.988-1.55 1.266 0 1.887 1.167 2.074 1.574.41.933.434 2.105.434 3.011 0 .91 0 2.27-.672 3.348-.524.86-1.457 1.457-2.508 1.457a3.69 3.69 0 0 1-3.559-2.82c.118.047.262.07.379.07.407 0 1.051-.238 1.051-1.05 0-.669-.449-1.051-1.051-1.051-.429 0-1.05.214-1.05 1.148 0 2.031 1.625 4.348 4.277 4.348 2.699 0 5.066-2.27 5.066-5.305 0-2.844-1.91-5.211-4.418-5.211-1.363 0-2.414.598-3.035 1.266zm44.324-1.625c0-.547 0-.57-.48-.57-.574.645-1.77 1.527-4.231 1.527v.692c.551 0 1.747 0 3.059-.621v12.449c0 .863-.07 1.148-2.172 1.148h-.742v.696c.645-.051 2.965-.051 3.754-.051.785 0 3.082 0 3.726.05v-.695h-.742c-2.101 0-2.172-.285-2.172-1.148zm16.168.477v-.547h-5.761c-2.891 0-2.938-.313-3.036-.766h-.523l-.742 4.782h.527c.071-.43.285-1.915.598-2.176.191-.145 1.98-.145 2.316-.145h5.067l-2.535 3.633c-.645.934-3.055 4.852-3.055 9.344 0 .261 0 1.219.976 1.219 1.004 0 1.004-.93 1.004-1.243v-1.195c0-3.562.575-6.332 1.7-7.933zm36.371 6.215c1.192-.645 2.938-1.746 2.938-3.75 0-2.082-2.008-3.512-4.207-3.512-2.363 0-4.231 1.742-4.231 3.918 0 .812.243 1.625.911 2.437.261.309.285.332 1.957 1.504-2.317 1.075-3.512 2.676-3.512 4.422 0 2.531 2.414 4.11 4.851 4.11 2.653 0 4.875-1.961 4.875-4.47 0-2.437-1.718-3.51-3.582-4.66m-3.25-2.153c-.312-.21-1.269-.836-1.269-2.004 0-1.554 1.625-2.535 3.226-2.535 1.723 0 3.25 1.242 3.25 2.965 0 1.457-1.05 2.629-2.437 3.395zm1.122 3.086 2.89 1.887c.621.406 1.723 1.148 1.723 2.605 0 1.817-1.84 3.059-3.754 3.059-2.031 0-3.774-1.48-3.774-3.465 0-1.863 1.36-3.37 2.915-4.086m44.464-5.999a7 7 0 0 0 2.125.36c2.704 0 4.422-1.985 4.422-2.317 0-.097-.047-.215-.191-.215-.047 0-.094 0-.309.094a7.9 7.9 0 0 1-3.109.645c-1.578 0-2.699-.477-3.152-.668-.168-.07-.215-.07-.239-.07-.191 0-.191.14-.191.523v7.098c0 .43 0 .574.285.574.121 0 .145-.024.383-.313.668-.976 1.793-1.55 2.988-1.55 1.266 0 1.887 1.167 2.078 1.574.406.933.43 2.105.43 3.011 0 .91 0 2.27-.668 3.348-.527.86-1.457 1.457-2.512 1.457a3.69 3.69 0 0 1-3.558-2.82c.117.047.261.07.382.07.407 0 1.051-.238 1.051-1.05 0-.669-.453-1.051-1.051-1.051-.429 0-1.054.214-1.054 1.148 0 2.031 1.625 4.348 4.277 4.348 2.703 0 5.067-2.27 5.067-5.305 0-2.844-1.911-5.211-4.418-5.211-1.364 0-2.415.598-3.036 1.266zm54.047 6.047c0-1.984-.121-3.918-.98-5.734-.981-1.985-2.699-2.508-3.871-2.508-1.387 0-3.082.691-3.965 2.672-.672 1.508-.91 2.988-.91 5.57 0 2.316.168 4.063 1.027 5.758.934 1.816 2.582 2.39 3.824 2.39 2.078 0 3.274-1.242 3.965-2.628.863-1.793.91-4.133.91-5.52m-4.875 7.672c-.765 0-2.316-.43-2.773-3.035-.262-1.434-.262-3.25-.262-4.926 0-1.957 0-3.727.383-5.137.406-1.597 1.625-2.34 2.652-2.34.907 0 2.293.547 2.75 2.602.309 1.363.309 3.25.309 4.875 0 1.602 0 3.418-.262 4.875-.457 2.633-1.961 3.086-2.797 3.086m45.184-4.039h-.527c-.071.406-.262 1.719-.5 2.102-.168.214-1.532.214-2.247.214h-4.421c.648-.55 2.101-2.078 2.722-2.652 3.637-3.344 4.973-4.586 4.973-6.953 0-2.75-2.172-4.586-4.949-4.586-2.77 0-4.395 2.363-4.395 4.418 0 1.219 1.051 1.219 1.121 1.219.504 0 1.125-.356 1.125-1.121 0-.672-.453-1.125-1.125-1.125-.211 0-.262 0-.332.023.453-1.625 1.746-2.723 3.297-2.723 2.031 0 3.273 1.696 3.273 3.895 0 2.031-1.167 3.8-2.531 5.328l-4.828 5.402v.575h8.723zm11.89-3.633c0-1.984-.121-3.918-.976-5.734-.981-1.985-2.703-2.508-3.875-2.508-1.387 0-3.082.691-3.965 2.672-.672 1.508-.91 2.988-.91 5.57 0 2.316.168 4.063 1.027 5.758.934 1.816 2.582 2.39 3.824 2.39 2.079 0 3.274-1.242 3.965-2.628.864-1.793.91-4.133.91-5.52m-4.875 7.672c-.765 0-2.316-.43-2.769-3.035-.266-1.434-.266-3.25-.266-4.926 0-1.957 0-3.727.383-5.137.406-1.597 1.625-2.34 2.652-2.34.911 0 2.293.547 2.75 2.602.309 1.363.309 3.25.309 4.875 0 1.602 0 3.418-.262 4.875-.453 2.633-1.961 3.086-2.797 3.086"/></g></svg>