<svg xmlns="http://www.w3.org/2000/svg" width="779pt" height="530pt" viewBox="0 -530 779 530"><g id="page1"><path fill="#b2ffff" d="M1.5-8.953h14.457c1.633 0 3.2.648 4.355 1.805l4.895 4.894a2.553 2.553 0 0 0 3.61 0l4.894-4.894a6.16 6.16 0 0 1 4.355-1.805h721.817v-501.57c-126.078-11.332-252.606-17.008-379.192-17.008S127.578-521.855 1.5-510.523z"/><path fill="none" stroke="#00b2b2" stroke-linecap="round" stroke-linejoin="round" stroke-width="3" d="M1.5-8.953h14.457c1.633 0 3.2.648 4.355 1.805l4.895 4.894a2.553 2.553 0 0 0 3.61 0l4.894-4.894a6.16 6.16 0 0 1 4.355-1.805h721.817v-501.57c-126.078-11.332-252.606-17.008-379.192-17.008S127.578-521.855 1.5-510.523z"/><path fill="#ffb2ff" d="M35.516-25.96h5.953c1.633 0 3.199.648 4.355 1.804l4.895 4.894a2.553 2.553 0 0 0 3.61 0l4.894-4.894a6.16 6.16 0 0 1 4.355-1.805h702.258a2.55 2.55 0 0 0 2.551-2.55v-270.473a2.554 2.554 0 0 0-2.551-2.551H63.578c-1.633 0-3.2.648-4.355 1.805l-4.895 4.894a2.553 2.553 0 0 1-3.61 0l-4.894-4.894a6.16 6.16 0 0 0-4.355-1.805H29.562a2.55 2.55 0 0 0-2.55 2.551v270.472c0 1.41 1.14 2.551 2.55 2.551z"/><path fill="none" stroke="#b200b2" stroke-linecap="round" stroke-linejoin="round" stroke-width="3" d="M35.516-25.96h5.953c1.633 0 3.199.648 4.355 1.804l4.895 4.894a2.553 2.553 0 0 0 3.61 0l4.894-4.894a6.16 6.16 0 0 1 4.355-1.805h702.258a2.55 2.55 0 0 0 2.551-2.55v-270.473a2.554 2.554 0 0 0-2.551-2.551H63.578c-1.633 0-3.2.648-4.355 1.805l-4.895 4.894a2.553 2.553 0 0 1-3.61 0l-4.894-4.894a6.16 6.16 0 0 0-4.355-1.805H29.562a2.55 2.55 0 0 0-2.55 2.551v270.472c0 1.41 1.14 2.551 2.55 2.551z"/><path fill="#ffd9b2" d="M61.027-42.969h5.954a6.16 6.16 0 0 1 4.355 1.805l4.895 4.895a2.553 2.553 0 0 0 3.609 0l4.894-4.895a6.16 6.16 0 0 1 4.356-1.805h685.25a2.55 2.55 0 0 0 2.551-2.55V-169.7a2.556 2.556 0 0 0-2.551-2.555H89.09c-1.633 0-3.2.652-4.356 1.805l-4.894 4.898a2.553 2.553 0 0 1-3.61 0l-4.894-4.898a6.17 6.17 0 0 0-4.355-1.805H55.074a2.553 2.553 0 0 0-2.55 2.555v124.18c0 1.41 1.14 2.55 2.55 2.55z"/><path fill="none" stroke="#b25900" stroke-linecap="round" stroke-linejoin="round" stroke-width="3" d="M61.027-42.969h5.954a6.16 6.16 0 0 1 4.355 1.805l4.895 4.895a2.553 2.553 0 0 0 3.609 0l4.894-4.895a6.16 6.16 0 0 1 4.356-1.805h685.25a2.55 2.55 0 0 0 2.551-2.55V-169.7a2.556 2.556 0 0 0-2.551-2.555H89.09c-1.633 0-3.2.652-4.356 1.805l-4.894 4.898a2.553 2.553 0 0 1-3.61 0l-4.894-4.898a6.17 6.17 0 0 0-4.355-1.805H55.074a2.553 2.553 0 0 0-2.55 2.555v124.18c0 1.41 1.14 2.55 2.55 2.55z"/><path fill="#c6c6ff" d="M377.605-55.723h122.516a2.553 2.553 0 0 0 2.551-2.554v-98.668a2.55 2.55 0 0 0-2.551-2.551H255.086a2.55 2.55 0 0 0-2.551 2.551v98.668a2.553 2.553 0 0 0 2.551 2.554z"/><path fill="none" stroke="#2d2db2" stroke-linecap="round" stroke-linejoin="round" stroke-width="3" d="M377.605-55.723h122.516a2.553 2.553 0 0 0 2.551-2.554v-98.668a2.55 2.55 0 0 0-2.551-2.551H255.086a2.55 2.55 0 0 0-2.551 2.551v98.668a2.553 2.553 0 0 0 2.551 2.554z"/><path fill="#d9b2b2" d="M328.852-107.609c0 19.515 8.261 39.128 25.511 39.128h114.293c17.254 0 25.516-19.613 25.516-39.128s-8.262-39.129-25.516-39.129H354.363c-17.25 0-25.511 19.613-25.511 39.129"/><path fill="none" stroke="#590000" stroke-linecap="round" stroke-linejoin="round" stroke-width="3" d="M328.852-107.609c0 19.515 8.261 39.128 25.511 39.128h114.293c17.254 0 25.516-19.613 25.516-39.128s-8.262-39.129-25.516-39.129H354.363c-17.25 0-25.511 19.613-25.511 39.129"/><path fill="#d9b2b2" d="M337.355-107.609c0 14.41 11.262 26.37 25.512 26.37h26.594c14.25 0 25.512-11.96 25.512-26.37 0-14.414-11.262-26.375-25.512-26.375h-26.594c-14.25 0-25.512 11.961-25.512 26.375"/><path fill="none" stroke="#590000" stroke-linecap="round" stroke-linejoin="round" stroke-width="3" d="M337.355-107.609c0 14.41 11.262 26.37 25.512 26.37h26.594c14.25 0 25.512-11.96 25.512-26.37 0-14.414-11.262-26.375-25.512-26.375h-26.594c-14.25 0-25.512 11.961-25.512 26.375"/><path fill="#d9b2b2" d="M456.172-107.609c0 12.832 3.648 26.37 14.746 26.37s14.75-13.538 14.75-26.37-3.652-26.375-14.75-26.375-14.746 13.543-14.746 26.375"/><path fill="none" stroke="#590000" stroke-linecap="round" stroke-linejoin="round" stroke-width="3" d="M456.172-107.609c0 12.832 3.648 26.37 14.746 26.37s14.75-13.538 14.75-26.37-3.652-26.375-14.75-26.375-14.746 13.543-14.746 26.375"/><path fill="#c6c6ff" d="M652.227-55.723h113.609a2.555 2.555 0 0 0 2.551-2.554v-98.668a2.55 2.55 0 0 0-2.551-2.551H538.621a2.55 2.55 0 0 0-2.551 2.551v98.668a2.553 2.553 0 0 0 2.551 2.554z"/><path fill="none" stroke="#2d2db2" stroke-linecap="round" stroke-linejoin="round" stroke-width="3" d="M652.227-55.723h113.609a2.555 2.555 0 0 0 2.551-2.554v-98.668a2.55 2.55 0 0 0-2.551-2.551H538.621a2.55 2.55 0 0 0-2.551 2.551v98.668a2.553 2.553 0 0 0 2.551 2.554z"/><path fill="#d9b2b2" d="M612.387-107.609c0 19.515 8.258 39.128 25.511 39.128h96.473c17.25 0 25.512-19.613 25.512-39.128s-8.262-39.129-25.512-39.129h-96.473c-17.253 0-25.511 19.613-25.511 39.129"/><path fill="none" stroke="#590000" stroke-linecap="round" stroke-linejoin="round" stroke-width="3" d="M612.387-107.609c0 19.515 8.258 39.128 25.511 39.128h96.473c17.25 0 25.512-19.613 25.512-39.128s-8.262-39.129-25.512-39.129h-96.473c-17.253 0-25.511 19.613-25.511 39.129"/><path fill="#d9b2b2" d="M620.891-107.609c0 14.41 11.261 26.37 25.511 26.37h8.383c14.25 0 25.512-11.96 25.512-26.37 0-14.414-11.262-26.375-25.512-26.375h-8.383c-14.25 0-25.511 11.961-25.511 26.375"/><path fill="none" stroke="#590000" stroke-linecap="round" stroke-linejoin="round" stroke-width="3" d="M620.891-107.609c0 14.41 11.261 26.37 25.511 26.37h8.383c14.25 0 25.512-11.96 25.512-26.37 0-14.414-11.262-26.375-25.512-26.375h-8.383c-14.25 0-25.511 11.961-25.511 26.375"/><path fill="#d9b2b2" d="M721.887-107.609c0 12.832 3.648 26.37 14.746 26.37 11.097 0 14.746-13.538 14.746-26.37s-3.649-26.375-14.746-26.375-14.746 13.543-14.746 26.375"/><path fill="none" stroke="#590000" stroke-linecap="round" stroke-linejoin="round" stroke-width="3" d="M721.887-107.609c0 12.832 3.648 26.37 14.746 26.37 11.097 0 14.746-13.538 14.746-26.37s-3.649-26.375-14.746-26.375-14.746 13.543-14.746 26.375"/><path fill="#c6c6ff" d="M162.949-207.77h12.196c1.41 0 2.55-1.14 2.55-2.55v-47.645a2.55 2.55 0 0 0-2.55-2.551h-24.391a2.55 2.55 0 0 0-2.551 2.551v47.645c0 1.41 1.141 2.55 2.551 2.55z"/><path fill="none" stroke="#2d2db2" stroke-linecap="round" stroke-linejoin="round" stroke-width="3" d="M162.949-207.77h12.196c1.41 0 2.55-1.14 2.55-2.55v-47.645a2.55 2.55 0 0 0-2.55-2.551h-24.391a2.55 2.55 0 0 0-2.551 2.551v47.645c0 1.41 1.141 2.55 2.551 2.55z"/><path fill="#d9b2b2" d="M225.398-234.141c0 13.172 5.68 26.371 17.348 26.371 11.664 0 17.348-13.199 17.348-26.371 0-13.175-5.684-26.375-17.348-26.375-11.668 0-17.348 13.2-17.348 26.375"/><path fill="none" stroke="#590000" stroke-linecap="round" stroke-linejoin="round" stroke-width="3" d="M225.398-234.141c0 13.172 5.68 26.371 17.348 26.371 11.664 0 17.348-13.199 17.348-26.371 0-13.175-5.684-26.375-17.348-26.375-11.668 0-17.348 13.2-17.348 26.375"/><path fill="#d9b2b2" d="M294.789-234.141c0 24.786 4.231 51.883 25.512 51.883H579c21.281 0 25.512-27.097 25.512-51.883 0-24.785-4.231-51.886-25.512-51.886H320.301c-21.281 0-25.512 27.101-25.512 51.886"/><path fill="none" stroke="#590000" stroke-linecap="round" stroke-linejoin="round" stroke-width="3" d="M294.789-234.141c0 24.786 4.231 51.883 25.512 51.883H579c21.281 0 25.512-27.097 25.512-51.883 0-24.785-4.231-51.886-25.512-51.886H320.301c-21.281 0-25.512 27.101-25.512 51.886"/><path fill="#d9b2b2" d="M303.293-234.141c0 19.512 8.262 39.129 25.512 39.129h165.41c17.25 0 25.512-19.617 25.512-39.129 0-19.515-8.262-39.129-25.512-39.129h-165.41c-17.25 0-25.512 19.614-25.512 39.129"/><path fill="none" stroke="#590000" stroke-linecap="round" stroke-linejoin="round" stroke-width="3" d="M303.293-234.141c0 19.512 8.262 39.129 25.512 39.129h165.41c17.25 0 25.512-19.617 25.512-39.129 0-19.515-8.262-39.129-25.512-39.129h-165.41c-17.25 0-25.512 19.614-25.512 39.129"/><path fill="#d9b2b2" d="M311.797-234.141c0 14.411 11.262 26.371 25.512 26.371h72.117c14.25 0 25.512-11.96 25.512-26.371 0-14.414-11.262-26.375-25.512-26.375h-72.117c-14.25 0-25.512 11.961-25.512 26.375"/><path fill="none" stroke="#590000" stroke-linecap="round" stroke-linejoin="round" stroke-width="3" d="M311.797-234.141c0 14.411 11.262 26.371 25.512 26.371h72.117c14.25 0 25.512-11.96 25.512-26.371 0-14.414-11.262-26.375-25.512-26.375h-72.117c-14.25 0-25.512 11.961-25.512 26.375"/><path fill="#d9b2b2" d="M476.523-234.141c0 13.172 5.684 26.371 17.348 26.371 11.668 0 17.352-13.199 17.352-26.371 0-13.175-5.684-26.375-17.352-26.375-11.664 0-17.348 13.2-17.348 26.375"/><path fill="none" stroke="#590000" stroke-linecap="round" stroke-linejoin="round" stroke-width="3" d="M476.523-234.141c0 13.172 5.684 26.371 17.348 26.371 11.668 0 17.352-13.199 17.352-26.371 0-13.175-5.684-26.375-17.352-26.375-11.664 0-17.348 13.2-17.348 26.375"/><path fill="#d9b2b2" d="M561.313-234.141c0 13.172 5.683 26.371 17.347 26.371s17.348-13.199 17.348-26.371c0-13.175-5.684-26.375-17.348-26.375s-17.347 13.2-17.347 26.375"/><path fill="none" stroke="#590000" stroke-linecap="round" stroke-linejoin="round" stroke-width="3" d="M561.313-234.141c0 13.172 5.683 26.371 17.347 26.371s17.348-13.199 17.348-26.371c0-13.175-5.684-26.375-17.348-26.375s-17.347 13.2-17.347 26.375"/><path fill="#d9b2b2" d="M660.668-234.141c0 13.172 5.684 26.371 17.348 26.371 11.668 0 17.347-13.199 17.347-26.371 0-13.175-5.679-26.375-17.347-26.375-11.664 0-17.348 13.2-17.348 26.375"/><path fill="none" stroke="#590000" stroke-linecap="round" stroke-linejoin="round" stroke-width="3" d="M660.668-234.141c0 13.172 5.684 26.371 17.348 26.371 11.668 0 17.347-13.199 17.347-26.371 0-13.175-5.679-26.375-17.347-26.375-11.664 0-17.348 13.2-17.348 26.375"/><path fill="#ffd9b2" d="M35.516-304.48h5.953c1.633 0 3.199.648 4.355 1.804l4.895 4.895a2.553 2.553 0 0 0 3.61 0l4.894-4.895a6.16 6.16 0 0 1 4.355-1.804h702.258a2.55 2.55 0 0 0 2.551-2.551v-124.18a2.55 2.55 0 0 0-2.551-2.551H63.578a6.17 6.17 0 0 0-4.355 1.801l-4.895 4.898a2.55 2.55 0 0 1-3.61 0l-4.894-4.898a6.17 6.17 0 0 0-4.355-1.801H29.562a2.55 2.55 0 0 0-2.55 2.551v124.18a2.55 2.55 0 0 0 2.55 2.551z"/><path fill="none" stroke="#b25900" stroke-linecap="round" stroke-linejoin="round" stroke-width="3" d="M35.516-304.48h5.953c1.633 0 3.199.648 4.355 1.804l4.895 4.895a2.553 2.553 0 0 0 3.61 0l4.894-4.895a6.16 6.16 0 0 1 4.355-1.804h702.258a2.55 2.55 0 0 0 2.551-2.551v-124.18a2.55 2.55 0 0 0-2.551-2.551H63.578a6.17 6.17 0 0 0-4.355 1.801l-4.895 4.898a2.55 2.55 0 0 1-3.61 0l-4.894-4.898a6.17 6.17 0 0 0-4.355-1.801H29.562a2.55 2.55 0 0 0-2.55 2.551v124.18a2.55 2.55 0 0 0 2.55 2.551z"/><path fill="#c6c6ff" d="M161.129-342.746h27.152a2.553 2.553 0 0 0 2.551-2.555v-47.644a2.55 2.55 0 0 0-2.551-2.551h-54.304a2.554 2.554 0 0 0-2.555 2.551v47.644a2.556 2.556 0 0 0 2.555 2.555z"/><path fill="none" stroke="#2d2db2" stroke-linecap="round" stroke-linejoin="round" stroke-width="3" d="M161.129-342.746h27.152a2.553 2.553 0 0 0 2.551-2.555v-47.644a2.55 2.55 0 0 0-2.551-2.551h-54.304a2.554 2.554 0 0 0-2.555 2.551v47.644a2.556 2.556 0 0 0 2.555 2.555z"/><path fill="#d9b2b2" d="M225.527-369.121c0 24.785 4.231 51.887 25.512 51.887h301.234c21.282 0 25.512-27.102 25.512-51.887s-4.23-51.887-25.512-51.887H251.039c-21.281 0-25.512 27.102-25.512 51.887"/><path fill="none" stroke="#590000" stroke-linecap="round" stroke-linejoin="round" stroke-width="3" d="M225.527-369.121c0 24.785 4.231 51.887 25.512 51.887h301.234c21.282 0 25.512-27.102 25.512-51.887s-4.23-51.887-25.512-51.887H251.039c-21.281 0-25.512 27.102-25.512 51.887"/><path fill="#d9b2b2" d="M234.031-369.121c0 19.516 8.262 39.129 25.512 39.129h207.941c17.254 0 25.512-19.613 25.512-39.129s-8.258-39.129-25.512-39.129H259.543c-17.25 0-25.512 19.613-25.512 39.129"/><path fill="none" stroke="#590000" stroke-linecap="round" stroke-linejoin="round" stroke-width="3" d="M234.031-369.121c0 19.516 8.262 39.129 25.512 39.129h207.941c17.254 0 25.512-19.613 25.512-39.129s-8.258-39.129-25.512-39.129H259.543c-17.25 0-25.512 19.613-25.512 39.129"/><path fill="#d9b2b2" d="M242.535-369.121c0 14.41 11.262 26.375 25.512 26.375h26.594c14.25 0 25.511-11.965 25.511-26.375s-11.261-26.375-25.511-26.375h-26.594c-14.25 0-25.512 11.965-25.512 26.375"/><path fill="none" stroke="#590000" stroke-linecap="round" stroke-linejoin="round" stroke-width="3" d="M242.535-369.121c0 14.41 11.262 26.375 25.512 26.375h26.594c14.25 0 25.511-11.965 25.511-26.375s-11.261-26.375-25.511-26.375h-26.594c-14.25 0-25.512 11.965-25.512 26.375"/><path fill="#d9b2b2" d="M361.352-369.121c0 14.41 11.265 26.375 25.511 26.375h72.117c14.25 0 25.512-11.965 25.512-26.375s-11.262-26.375-25.512-26.375h-72.117c-14.246 0-25.511 11.965-25.511 26.375"/><path fill="none" stroke="#590000" stroke-linecap="round" stroke-linejoin="round" stroke-width="3" d="M361.352-369.121c0 14.41 11.265 26.375 25.511 26.375h72.117c14.25 0 25.512-11.965 25.512-26.375s-11.262-26.375-25.512-26.375h-72.117c-14.246 0-25.511 11.965-25.511 26.375"/><path fill="#d9b2b2" d="M534.586-369.121c0 13.172 5.684 26.375 17.348 26.375s17.347-13.203 17.347-26.375c0-13.176-5.683-26.375-17.347-26.375s-17.348 13.199-17.348 26.375"/><path fill="none" stroke="#590000" stroke-linecap="round" stroke-linejoin="round" stroke-width="3" d="M534.586-369.121c0 13.172 5.684 26.375 17.348 26.375s17.347-13.203 17.347-26.375c0-13.176-5.683-26.375-17.347-26.375s-17.348 13.199-17.348 26.375"/><path fill="#d9b2b2" d="M103.828-470.141c0 14.411 11.266 26.375 25.516 26.375h39.597c14.25 0 25.512-11.964 25.512-26.375s-11.262-26.375-25.512-26.375h-39.597c-14.25 0-25.516 11.965-25.516 26.375"/><path fill="none" stroke="#590000" stroke-linecap="round" stroke-linejoin="round" stroke-width="3" d="M103.828-470.141c0 14.411 11.266 26.375 25.516 26.375h39.597c14.25 0 25.512-11.964 25.512-26.375s-11.262-26.375-25.512-26.375h-39.597c-14.25 0-25.516 11.965-25.516 26.375"/><path fill="#c6c6ff" d="M290.723-443.766h35.605a2.55 2.55 0 0 0 2.551-2.554v-47.645a2.55 2.55 0 0 0-2.551-2.551h-71.215a2.55 2.55 0 0 0-2.55 2.551v47.645c0 1.41 1.14 2.554 2.55 2.554z"/><path fill="none" stroke="#2d2db2" stroke-linecap="round" stroke-linejoin="round" stroke-width="3" d="M290.723-443.766h35.605a2.55 2.55 0 0 0 2.551-2.554v-47.645a2.55 2.55 0 0 0-2.551-2.551h-71.215a2.55 2.55 0 0 0-2.55 2.551v47.645c0 1.41 1.14 2.554 2.55 2.554z"/><path fill="#c6c6ff" d="M401.086-443.766h36.258a2.555 2.555 0 0 0 2.551-2.554v-47.645a2.555 2.555 0 0 0-2.551-2.551h-72.516a2.556 2.556 0 0 0-2.555 2.551v47.645a2.556 2.556 0 0 0 2.555 2.554z"/><path fill="none" stroke="#2d2db2" stroke-linecap="round" stroke-linejoin="round" stroke-width="3" d="M401.086-443.766h36.258a2.555 2.555 0 0 0 2.551-2.554v-47.645a2.555 2.555 0 0 0-2.551-2.551h-72.516a2.556 2.556 0 0 0-2.555 2.551v47.645a2.556 2.556 0 0 0 2.555 2.554z"/><path fill="#c6c6ff" d="M534.859-443.766h59.02a2.55 2.55 0 0 0 2.551-2.554v-47.645a2.55 2.55 0 0 0-2.551-2.551H475.84a2.55 2.55 0 0 0-2.551 2.551v47.645a2.55 2.55 0 0 0 2.551 2.554z"/><path fill="none" stroke="#2d2db2" stroke-linecap="round" stroke-linejoin="round" stroke-width="3" d="M534.859-443.766h59.02a2.55 2.55 0 0 0 2.551-2.554v-47.645a2.55 2.55 0 0 0-2.551-2.551H475.84a2.55 2.55 0 0 0-2.551 2.551v47.645a2.55 2.55 0 0 0 2.551 2.554z"/><path d="M71.836-111.707c0-.434 0-.551-.238-.551-.192 0-.645.524-.813.742-.738-.597-1.48-.742-2.246-.742-2.89 0-3.75 1.578-3.75 2.891 0 .265 0 1.101.906 1.937.766.668 1.578.836 2.68 1.051 1.313.262 1.625.332 2.219.813.43.359.742.882.742 1.55 0 1.032-.598 2.176-2.7 2.176-1.577 0-2.722-.906-3.25-3.297-.097-.429-.097-.453-.12-.476-.047-.098-.141-.098-.215-.098-.262 0-.262.121-.262.551v3.25c0 .43 0 .551.238.551.121 0 .145-.024.551-.528.117-.168.117-.215.477-.597.906 1.125 2.199 1.125 2.605 1.125 2.508 0 3.75-1.387 3.75-3.274 0-1.293-.785-2.058-1.004-2.273-.86-.739-1.504-.883-3.082-1.172-.715-.141-2.46-.477-2.46-1.91 0-.739.503-1.84 2.652-1.84 2.605 0 2.75 2.223 2.796 2.965.024.191.192.191.262.191.262 0 .262-.121.262-.551zm10.114 1.266c-.286 0-1.169 0-1.169.976 0 .574.406.981.977.981.55 0 1.004-.332 1.004-1.024 0-1.601-1.672-2.75-3.606-2.75-2.797 0-5.02 2.485-5.02 5.496 0 3.059 2.294 5.403 4.997 5.403 3.152 0 3.867-2.868 3.867-3.086 0-.215-.164-.215-.238-.215-.215 0-.239.07-.309.359-.527 1.699-1.816 2.414-3.11 2.414-1.456 0-3.39-1.265-3.39-4.898 0-3.969 2.031-4.949 3.227-4.949.906 0 2.222.363 2.77 1.293m10.972 2.461c0-1.29 0-2.247-1.047-3.18-.84-.762-1.914-1.098-2.965-1.098-1.96 0-3.465 1.289-3.465 2.844 0 .691.453 1.027 1.004 1.027.574 0 .98-.406.98-.98 0-.981-.863-.981-1.218-.981.547-1.004 1.695-1.433 2.648-1.433 1.102 0 2.512.91 2.512 3.058v.957c-4.805.071-6.621 2.078-6.621 3.918 0 1.891 2.2 2.489 3.656 2.489 1.578 0 2.656-.957 3.11-2.106.093 1.125.836 1.985 1.863 1.985.5 0 1.887-.336 1.887-2.247v-1.339h-.524v1.339c0 1.364-.574 1.555-.91 1.555-.91 0-.91-1.269-.91-1.625zm-1.55 3.011c0 2.34-1.747 3.129-2.774 3.129-1.168 0-2.149-.859-2.149-2.008 0-3.152 4.063-3.441 4.922-3.488zm21.163-2.437c0-2.223 0-2.891-.551-3.657-.695-.933-1.816-1.078-2.629-1.078-1.984 0-2.988 1.438-3.371 2.368-.332-1.84-1.625-2.368-3.129-2.368-2.316 0-3.226 1.985-3.418 2.465h-.023v-2.465l-3.25.266v.691c1.625 0 1.817.168 1.817 1.34v6.477c0 1.074-.262 1.074-1.817 1.074v.691c.621-.046 1.914-.046 2.582-.046.692 0 1.984 0 2.606.046v-.691c-1.532 0-1.817 0-1.817-1.074v-4.446c0-2.507 1.649-3.847 3.129-3.847 1.484 0 1.816 1.219 1.816 2.676v5.617c0 1.074-.261 1.074-1.816 1.074v.691c.621-.046 1.914-.046 2.582-.046.692 0 1.981 0 2.606.046v-.691c-1.532 0-1.817 0-1.817-1.074v-4.446c0-2.507 1.649-3.847 3.129-3.847 1.481 0 1.816 1.219 1.816 2.676v5.617c0 1.074-.261 1.074-1.816 1.074v.691c.621-.046 1.914-.046 2.582-.046.692 0 1.981 0 2.606.046v-.691c-1.196 0-1.793 0-1.817-.715zm5.656-10.778-3.324.262v.695c1.625 0 1.821.164 1.821 1.336v14.289h.523c.094-.187.766-1.382.859-1.55.551.882 1.578 1.793 3.11 1.793 2.746 0 5.16-2.321 5.16-5.403 0-3.035-2.246-5.379-4.899-5.379-1.312 0-2.437.602-3.25 1.602zm.047 8.938c0-.43 0-.481.266-.863.57-.86 1.625-1.551 2.793-1.551.719 0 3.226.289 3.226 4.875 0 1.601-.238 2.605-.812 3.465-.477.742-1.434 1.48-2.629 1.48-1.289 0-2.129-.836-2.535-1.48-.309-.5-.309-.598-.309-1.004zm13.121-7.074c0-.621-.504-1.172-1.171-1.172a1.15 1.15 0 0 0-1.149 1.148c0 .715.574 1.172 1.149 1.172.742 0 1.171-.625 1.171-1.148m-3.296 4.445v.691c1.527 0 1.742.145 1.742 1.317v6.5c0 1.074-.262 1.074-1.817 1.074v.691c.668-.046 1.817-.046 2.508-.046.266 0 1.652 0 2.465.046v-.691c-1.555 0-1.648-.121-1.648-1.051v-8.797zm14.859 3.895c0-1.29 0-2.247-1.051-3.18-.836-.762-1.91-1.098-2.961-1.098-1.961 0-3.465 1.289-3.465 2.844 0 .691.453 1.027 1.004 1.027.574 0 .981-.406.981-.98 0-.981-.864-.981-1.219-.981.547-1.004 1.695-1.433 2.648-1.433 1.102 0 2.512.91 2.512 3.058v.957c-4.805.071-6.617 2.078-6.617 3.918 0 1.891 2.195 2.489 3.652 2.489 1.578 0 2.657-.957 3.11-2.106.093 1.125.836 1.985 1.863 1.985.5 0 1.887-.336 1.887-2.247v-1.339h-.524v1.339c0 1.364-.574 1.555-.91 1.555-.91 0-.91-1.269-.91-1.625zm-1.551 3.011c0 2.34-1.742 3.129-2.773 3.129-1.168 0-2.149-.859-2.149-2.008 0-3.152 4.063-3.441 4.922-3.488zm21.578-4.66c.215-.527.621-1.555 2.153-1.578v-.691c-.696.046-1.028.046-1.77.046-.504 0-.859 0-1.961-.046v.691c1.008.047 1.125.766 1.125 1.027 0 .215-.047.336-.168.621l-2.437 6.168-2.676-6.742c-.121-.332-.145-.332-.145-.453 0-.621.91-.621 1.34-.621v-.691c-.597.046-1.84.046-2.484.046-.789 0-.836 0-2.297-.046v.691c1.34 0 1.578.098 1.863.836l3.418 8.555c.121.336.168.457.457.457.164 0 .309-.051.477-.457zm10.574 1.649c0-1.29 0-2.247-1.05-3.18-.836-.762-1.91-1.098-2.965-1.098-1.957 0-3.465 1.289-3.465 2.844 0 .691.453 1.027 1.004 1.027.574 0 .98-.406.98-.98 0-.981-.859-.981-1.218-.981.55-1.004 1.699-1.433 2.652-1.433 1.102 0 2.508.91 2.508 3.058v.957c-4.801.071-6.617 2.078-6.617 3.918 0 1.891 2.199 2.489 3.656 2.489 1.578 0 2.652-.957 3.105-2.106.098 1.125.836 1.985 1.864 1.985.503 0 1.89-.336 1.89-2.247v-1.339h-.527v1.339c0 1.364-.574 1.555-.906 1.555-.911 0-.911-1.269-.911-1.625zm-1.554 3.011c0 2.34-1.742 3.129-2.77 3.129-1.172 0-2.152-.859-2.152-2.008 0-3.152 4.062-3.441 4.922-3.488zm8.14-13.215-3.32.262v.695c1.625 0 1.816.164 1.816 1.336v12.524c0 1.074-.261 1.074-1.816 1.074v.691c.668-.046 1.84-.046 2.555-.046.719 0 1.914 0 2.582.046v-.691c-1.528 0-1.817 0-1.817-1.074zm13.36 11.469c0-3.082-2.34-5.543-5.114-5.543-2.867 0-5.136 2.531-5.136 5.543 0 3.059 2.386 5.356 5.113 5.356 2.816 0 5.137-2.344 5.137-5.356m-5.114 4.828c-.886 0-1.96-.383-2.652-1.554-.648-1.075-.672-2.485-.672-3.489 0-.91 0-2.367.742-3.441a3.06 3.06 0 0 1 2.559-1.41c.93 0 1.934.429 2.578 1.363.742 1.098.742 2.605.742 3.488 0 .836 0 2.321-.621 3.442-.668 1.148-1.769 1.601-2.676 1.601m9.836-5.281c0-2.316.957-4.492 2.793-4.492.196 0 .243 0 .336.023-.191.098-.574.239-.574.883 0 .695.551.957.934.957.476 0 .957-.312.957-.957 0-.715-.645-1.387-1.672-1.387-2.035 0-2.727 2.2-2.871 2.657h-.024v-2.657l-3.203.266v.691c1.625 0 1.821.168 1.821 1.34v6.477c0 1.074-.266 1.074-1.821 1.074v.691c.672-.046 1.985-.046 2.703-.046.645 0 2.34 0 2.891.046v-.691h-.477c-1.746 0-1.793-.262-1.793-1.121zm14.262.023c.524 0 .574 0 .574-.453 0-2.414-1.293-4.66-4.183-4.66-2.723 0-4.828 2.461-4.828 5.426 0 3.152 2.437 5.473 5.089 5.473 2.844 0 3.922-2.582 3.922-3.086 0-.145-.121-.239-.265-.239-.192 0-.239.121-.285.239-.622 2.007-2.223 2.558-3.227 2.558s-3.418-.668-3.418-4.804v-.454zm-6.598-.453c.192-3.754 2.297-4.183 2.965-4.183 2.559 0 2.7 3.371 2.723 4.183zm22.813-10.324v.695c1.625 0 1.816.164 1.816 1.336v5.282c-.5-.692-1.527-1.532-2.988-1.532-2.769 0-5.16 2.344-5.16 5.403 0 3.035 2.269 5.379 4.898 5.379 1.817 0 2.868-1.196 3.204-1.649v1.649l3.367-.243v-.691c-1.625 0-1.813-.168-1.813-1.34v-14.551zm1.77 13.527c0 .43 0 .5-.336 1.028-.571.836-1.551 1.527-2.747 1.527-.621 0-3.203-.238-3.203-4.875 0-1.719.286-2.676.813-3.465.476-.742 1.433-1.48 2.629-1.48 1.48 0 2.316 1.074 2.554 1.457.29.406.29.457.29.883zm8.218-11.925c0-.621-.5-1.172-1.168-1.172a1.15 1.15 0 0 0-1.148 1.148c0 .715.574 1.172 1.148 1.172.739 0 1.168-.625 1.168-1.148m-3.297 4.445v.691c1.532 0 1.746.145 1.746 1.317v6.5c0 1.074-.261 1.074-1.816 1.074v.691c.668-.046 1.816-.046 2.508-.046.266 0 1.648 0 2.461.046v-.691c-1.551 0-1.649-.121-1.649-1.051v-8.797zm37.864 3.895c0-1.29 0-2.247-1.051-3.18-.836-.762-1.91-1.098-2.961-1.098-1.961 0-3.469 1.289-3.469 2.844 0 .691.457 1.027 1.004 1.027.574 0 .981-.406.981-.98 0-.981-.86-.981-1.219-.981.551-1.004 1.699-1.433 2.652-1.433 1.102 0 2.512.91 2.512 3.058v.957c-4.805.071-6.621 2.078-6.621 3.918 0 1.891 2.199 2.489 3.656 2.489 1.578 0 2.652-.957 3.106-2.106.097 1.125.835 1.985 1.867 1.985.5 0 1.886-.336 1.886-2.247v-1.339h-.527v1.339c0 1.364-.57 1.555-.906 1.555-.91 0-.91-1.269-.91-1.625zm-1.551 3.011c0 2.34-1.746 3.129-2.774 3.129-1.171 0-2.152-.859-2.152-2.008 0-3.152 4.067-3.441 4.926-3.488zm8.019-2.199c0-2.316.957-4.492 2.793-4.492.196 0 .243 0 .336.023-.191.098-.574.239-.574.883 0 .695.551.957.934.957.476 0 .957-.312.957-.957 0-.715-.645-1.387-1.672-1.387-2.035 0-2.727 2.2-2.871 2.657h-.024v-2.657l-3.203.266v.691c1.625 0 1.821.168 1.821 1.34v6.477c0 1.074-.266 1.074-1.821 1.074v.691c.672-.046 1.985-.046 2.703-.046.645 0 2.34 0 2.891.046v-.691h-.477c-1.746 0-1.793-.262-1.793-1.121zm9.098 0c0-2.316.957-4.492 2.797-4.492.191 0 .238 0 .336.023-.192.098-.574.239-.574.883 0 .695.55.957.933.957.477 0 .953-.312.953-.957 0-.715-.644-1.387-1.671-1.387-2.032 0-2.723 2.2-2.868 2.657h-.023v-2.657l-3.203.266v.691c1.625 0 1.816.168 1.816 1.34v6.477c0 1.074-.262 1.074-1.816 1.074v.691c.668-.046 1.984-.046 2.699-.046.645 0 2.344 0 2.895.046v-.691h-.481c-1.742 0-1.793-.262-1.793-1.121zm14.332-.812c0-1.29 0-2.247-1.047-3.18-.84-.762-1.914-1.098-2.965-1.098-1.961 0-3.464 1.289-3.464 2.844 0 .691.453 1.027 1.003 1.027.575 0 .981-.406.981-.98 0-.981-.863-.981-1.219-.981.551-1.004 1.695-1.433 2.653-1.433 1.097 0 2.507.91 2.507 3.058v.957c-4.804.071-6.617 2.078-6.617 3.918 0 1.891 2.195 2.489 3.656 2.489 1.575 0 2.653-.957 3.106-2.106.094 1.125.836 1.985 1.863 1.985.5 0 1.887-.336 1.887-2.247v-1.339h-.524v1.339c0 1.364-.574 1.555-.91 1.555-.91 0-.91-1.269-.91-1.625zm-1.551 3.011c0 2.34-1.742 3.129-2.773 3.129-1.168 0-2.149-.859-2.149-2.008 0-3.152 4.063-3.441 4.922-3.488z"/><path d="M314.68-109.582c.644-1.602 1.765-1.625 2.218-1.625v-.691c-.691.046-1.027.046-1.789.046-.55 0-.597 0-1.937-.046v.691c.883.047 1.101.598 1.101 1.027 0 .215-.05.336-.144.575l-2.438 6.023-2.652-6.5c-.144-.336-.144-.481-.144-.504 0-.621.835-.621 1.316-.621v-.691c-.621.046-1.793.046-2.465.046-.906 0-.953 0-2.316-.046v.691c1.386 0 1.578.117 1.89.859l3.559 8.746c-1.051 2.536-1.051 2.583-1.149 2.774-.406.719-1.05 1.625-2.125 1.625-.742 0-1.195-.43-1.195-.43s.836-.094.836-.933c0-.575-.453-.883-.883-.883-.406 0-.91.238-.91.933 0 .907.887 1.79 2.152 1.79 1.336 0 2.317-1.168 2.938-2.676zm38.277-6.738c0-.621-.5-1.172-1.168-1.172-.625 0-1.148.504-1.148 1.148 0 .715.574 1.172 1.148 1.172.738 0 1.168-.625 1.168-1.148m-3.297 4.445v.691c1.528 0 1.746.145 1.746 1.317v6.5c0 1.074-.265 1.074-1.816 1.074v.691c.668-.046 1.816-.046 2.508-.046.261 0 1.648 0 2.461.046v-.691c-1.551 0-1.649-.121-1.649-1.051v-8.797zm16.375 4.469c0-2.223 0-2.891-.551-3.657-.695-.933-1.816-1.078-2.629-1.078-2.316 0-3.226 1.985-3.417 2.465h-.024v-2.465l-3.25.266v.691c1.625 0 1.816.168 1.816 1.34v6.477c0 1.074-.261 1.074-1.816 1.074v.691c.621-.046 1.914-.046 2.582-.046.692 0 1.984 0 2.606.046v-.691c-1.532 0-1.817 0-1.817-1.074v-4.446c0-2.507 1.649-3.847 3.129-3.847 1.484 0 1.816 1.219 1.816 2.676v5.617c0 1.074-.261 1.074-1.816 1.074v.691c.621-.046 1.914-.046 2.582-.046.692 0 1.981 0 2.606.046v-.691c-1.196 0-1.793 0-1.817-.715zm6.524-8.914c0-.621-.504-1.172-1.172-1.172-.621 0-1.145.504-1.145 1.148 0 .715.571 1.172 1.145 1.172.742 0 1.172-.625 1.172-1.148m-3.297 4.445v.691c1.527 0 1.742.145 1.742 1.317v6.5c0 1.074-.262 1.074-1.816 1.074v.691c.671-.046 1.816-.046 2.511-.046.262 0 1.649 0 2.461.046v-.691c-1.555 0-1.648-.121-1.648-1.051v-8.797zm14.742.645c.215-.262.215-.309.215-.407 0-.261-.164-.261-.571-.261h-7.507l-.262 3.796h.527c.141-2.437.598-3.32 3.203-3.32h2.77l-6.832 9.391c0 .429.047.429.57.429h7.793l.379-4.394h-.523c-.215 2.723-.621 3.871-3.465 3.871h-2.891zm5.453-5.09c0-.621-.5-1.172-1.168-1.172-.625 0-1.148.504-1.148 1.148 0 .715.574 1.172 1.148 1.172.738 0 1.168-.625 1.168-1.148m-3.297 4.445v.691c1.528 0 1.746.145 1.746 1.317v6.5c0 1.074-.265 1.074-1.816 1.074v.691c.668-.046 1.816-.046 2.508-.046.261 0 1.648 0 2.461.046v-.691c-1.551 0-1.649-.121-1.649-1.051v-8.797zm16.61 5.16c0-3.082-2.344-5.543-5.114-5.543-2.867 0-5.14 2.531-5.14 5.543 0 3.059 2.39 5.356 5.117 5.356 2.816 0 5.137-2.344 5.137-5.356m-5.114 4.828c-.886 0-1.961-.383-2.652-1.554-.649-1.075-.672-2.485-.672-3.489 0-.91 0-2.367.742-3.441a3.06 3.06 0 0 1 2.559-1.41c.93 0 1.933.429 2.578 1.363.742 1.098.742 2.605.742 3.488 0 .836 0 2.321-.621 3.442-.668 1.148-1.769 1.601-2.676 1.601m38.379-5.234h6.594c.336 0 .766 0 .766-.43 0-.453-.407-.453-.766-.453h-6.594v-6.598c0-.332 0-.761-.43-.761-.457 0-.457.406-.457.761v6.598h-6.593c-.336 0-.762 0-.762.43 0 .453.402.453.762.453h6.593v6.598c0 .332 0 .765.434.765.453 0 .453-.406.453-.765zm35.824-9.199c0-.621-.504-1.172-1.171-1.172-.622 0-1.145.504-1.145 1.148 0 .715.57 1.172 1.145 1.172.742 0 1.171-.625 1.171-1.148m-3.296 4.445v.691c1.527 0 1.742.145 1.742 1.317v6.5c0 1.074-.262 1.074-1.817 1.074v.691c.668-.046 1.817-.046 2.508-.046.266 0 1.652 0 2.465.046v-.691c-1.555 0-1.648-.121-1.648-1.051v-8.797zm54.789 4.73c.527 0 .574 0 .574-.453 0-2.414-1.289-4.66-4.184-4.66-2.722 0-4.824 2.461-4.824 5.426 0 3.152 2.437 5.473 5.09 5.473 2.844 0 3.918-2.582 3.918-3.086 0-.145-.121-.239-.262-.239-.191 0-.242.121-.285.239-.625 2.007-2.223 2.558-3.231 2.558-1 0-3.414-.668-3.414-4.804v-.454zm-6.594-.453c.191-3.754 2.293-4.183 2.961-4.183 2.558 0 2.703 3.371 2.726 4.183zm40.066-.382c0-1.29 0-2.247-1.051-3.18-.835-.762-1.914-1.098-2.964-1.098-1.957 0-3.465 1.289-3.465 2.844 0 .691.453 1.027 1.004 1.027.574 0 .98-.406.98-.98 0-.981-.859-.981-1.219-.981.551-1.004 1.696-1.433 2.653-1.433 1.097 0 2.508.91 2.508 3.058v.957c-4.801.071-6.618 2.078-6.618 3.918 0 1.891 2.2 2.489 3.657 2.489 1.574 0 2.652-.957 3.105-2.106.094 1.125.836 1.985 1.863 1.985.504 0 1.891-.336 1.891-2.247v-1.339h-.527v1.339c0 1.364-.575 1.555-.907 1.555-.91 0-.91-1.269-.91-1.625zm-1.554 3.011c0 2.34-1.743 3.129-2.774 3.129-1.168 0-2.148-.859-2.148-2.008 0-3.152 4.062-3.441 4.922-3.488zm8.023-2.199c0-2.316.953-4.492 2.793-4.492.191 0 .238 0 .336.023-.192.098-.574.239-.574.883 0 .695.55.957.933.957.477 0 .953-.312.953-.957 0-.715-.644-1.387-1.671-1.387-2.032 0-2.723 2.2-2.868 2.657h-.023v-2.657l-3.203.266v.691c1.625 0 1.816.168 1.816 1.34v6.477c0 1.074-.262 1.074-1.816 1.074v.691c.668-.046 1.984-.046 2.699-.046.645 0 2.344 0 2.895.046v-.691h-.481c-1.742 0-1.789-.262-1.789-1.121zm9.098 0c0-2.316.957-4.492 2.797-4.492.191 0 .238 0 .335.023-.195.098-.574.239-.574.883 0 .695.547.957.93.957.48 0 .957-.312.957-.957 0-.715-.645-1.387-1.672-1.387-2.031 0-2.726 2.2-2.867 2.657h-.024v-2.657l-3.203.266v.691c1.625 0 1.817.168 1.817 1.34v6.477c0 1.074-.266 1.074-1.817 1.074v.691c.668-.046 1.985-.046 2.7-.046.644 0 2.339 0 2.89.046v-.691h-.476c-1.746 0-1.793-.262-1.793-1.121zm14.332-.812c0-1.29 0-2.247-1.051-3.18-.836-.762-1.91-1.098-2.961-1.098-1.961 0-3.469 1.289-3.469 2.844 0 .691.457 1.027 1.004 1.027.574 0 .981-.406.981-.98 0-.981-.86-.981-1.219-.981.551-1.004 1.699-1.433 2.652-1.433 1.102 0 2.512.91 2.512 3.058v.957c-4.805.071-6.621 2.078-6.621 3.918 0 1.891 2.199 2.489 3.656 2.489 1.578 0 2.652-.957 3.106-2.106.097 1.125.835 1.985 1.867 1.985.5 0 1.886-.336 1.886-2.247v-1.339h-.523v1.339c0 1.364-.574 1.555-.91 1.555-.91 0-.91-1.269-.91-1.625zm-1.551 3.011c0 2.34-1.746 3.129-2.774 3.129-1.171 0-2.152-.859-2.152-2.008 0-3.152 4.067-3.441 4.926-3.488z"/><path d="M598.18-109.582c.644-1.602 1.765-1.625 2.218-1.625v-.691c-.691.046-1.027.046-1.789.046-.55 0-.597 0-1.937-.046v.691c.883.047 1.101.598 1.101 1.027 0 .215-.05.336-.144.575l-2.438 6.023-2.652-6.5c-.144-.336-.144-.481-.144-.504 0-.621.835-.621 1.316-.621v-.691c-.621.046-1.793.046-2.465.046-.906 0-.953 0-2.316-.046v.691c1.386 0 1.578.117 1.89.859l3.559 8.746c-1.051 2.536-1.051 2.583-1.149 2.774-.406.719-1.05 1.625-2.125 1.625-.742 0-1.195-.43-1.195-.43s.836-.094.836-.933c0-.575-.453-.883-.883-.883-.406 0-.91.238-.91.933 0 .907.887 1.79 2.152 1.79 1.336 0 2.317-1.168 2.938-2.676zm41.816-2.391c-.141 0-.379.028-.426.051-.047.024-.097.024-.429.024h-2.797v-2.704c0-2.437 2.078-3.343 3.488-3.343.238 0 1.387.023 2.102.836-1.004 0-1.075.742-1.075 1.004 0 .691.575 1.003.981 1.003.43 0 1.004-.289 1.004-1.027 0-1.219-1.125-2.293-2.965-2.293-2.176 0-4.992 1.195-4.992 3.774v2.75h-1.864v.691h1.864v7.84c0 1.074-.266 1.074-1.817 1.074v.691c.668-.046 1.84-.046 2.559-.046.715 0 1.91 0 2.578.046v-.691c-1.527 0-1.816 0-1.816-1.074v-7.84h3.75c1.101 0 1.246.312 1.246 1.293v6.547c0 1.074-.266 1.074-1.817 1.074v.691c.668-.046 1.84-.046 2.559-.046.715 0 1.91 0 2.578.046v-.691c-1.527 0-1.816 0-1.816-1.074v-8.797zm16.039 4.567c0-2.223 0-2.891-.551-3.657-.691-.933-1.816-1.078-2.629-1.078-2.316 0-3.226 1.985-3.417 2.465h-.024v-2.465l-3.25.266v.691c1.625 0 1.816.168 1.816 1.34v6.477c0 1.074-.261 1.074-1.816 1.074v.691c.621-.046 1.914-.046 2.582-.046.692 0 1.984 0 2.606.046v-.691c-1.532 0-1.817 0-1.817-1.074v-4.446c0-2.507 1.649-3.847 3.129-3.847 1.484 0 1.816 1.219 1.816 2.676v5.617c0 1.074-.261 1.074-1.816 1.074v.691c.621-.046 1.914-.046 2.582-.046.692 0 1.981 0 2.606.046v-.691c-1.196 0-1.793 0-1.817-.715zm11.52.261c.523 0 .574 0 .574-.453 0-2.414-1.293-4.66-4.184-4.66-2.726 0-4.828 2.461-4.828 5.426 0 3.152 2.438 5.473 5.09 5.473 2.844 0 3.922-2.582 3.922-3.086 0-.145-.121-.239-.266-.239-.191 0-.242.121-.285.239-.625 2.007-2.223 2.558-3.226 2.558s-3.418-.668-3.418-4.804v-.454zm-6.598-.453c.191-3.754 2.297-4.183 2.965-4.183 2.555 0 2.699 3.371 2.723 4.183zm46.59.5c.406 0 .836 0 .836-.476 0-.477-.43-.477-.836-.477h-12.926c-.406 0-.84 0-.84.477 0 .476.434.476.84.476zm30.012-9.222c0-.621-.504-1.172-1.172-1.172-.621 0-1.145.504-1.145 1.148 0 .715.571 1.172 1.145 1.172.742 0 1.172-.625 1.172-1.148m-3.297 4.445v.691c1.527 0 1.742.145 1.742 1.317v6.5c0 1.074-.262 1.074-1.816 1.074v.691c.671-.046 1.816-.046 2.511-.046.262 0 1.649 0 2.461.046v-.691c-1.555 0-1.648-.121-1.648-1.051v-8.797zM47.148-237.043c-.285 0-1.168 0-1.168.98 0 .575.407.981.98.981.548 0 1-.336 1-1.027 0-1.602-1.67-2.75-3.605-2.75-2.796 0-5.02 2.488-5.02 5.5 0 3.054 2.294 5.398 4.997 5.398 3.152 0 3.871-2.867 3.871-3.082s-.168-.215-.242-.215c-.211 0-.238.07-.309.36-.527 1.695-1.816 2.41-3.105 2.41-1.461 0-3.395-1.266-3.395-4.899 0-3.965 2.032-4.945 3.227-4.945.906 0 2.223.359 2.77 1.289m12.718 3.73c0-3.085-2.34-5.546-5.113-5.546-2.867 0-5.137 2.535-5.137 5.546 0 3.059 2.39 5.352 5.114 5.352 2.82 0 5.136-2.344 5.136-5.352m-5.113 4.825c-.883 0-1.957-.379-2.652-1.551-.645-1.078-.668-2.484-.668-3.492 0-.907 0-2.364.738-3.438a3.07 3.07 0 0 1 2.559-1.41c.933 0 1.937.43 2.581 1.363.743 1.098.743 2.602.743 3.485 0 .84 0 2.32-.625 3.441-.668 1.149-1.766 1.602-2.676 1.602m16.48-5.52c0-2.222 0-2.89-.55-3.656-.692-.93-1.817-1.074-2.63-1.074-2.316 0-3.226 1.984-3.413 2.461h-.028v-2.461l-3.25.261v.696c1.625 0 1.817.164 1.817 1.336v6.476c0 1.074-.262 1.074-1.817 1.074v.696c.621-.047 1.914-.047 2.582-.047.696 0 1.985 0 2.606.047v-.696c-1.532 0-1.817 0-1.817-1.074v-4.445c0-2.508 1.649-3.848 3.13-3.848 1.484 0 1.816 1.219 1.816 2.676v5.617c0 1.074-.262 1.074-1.817 1.074v.696c.621-.047 1.914-.047 2.582-.047.696 0 1.985 0 2.606.047v-.696c-1.195 0-1.793 0-1.817-.714zm5.782-3.797h3.367v-.695h-3.367v-4.398h-.528c-.023 2.25-.882 4.543-3.058 4.613v.48h2.03v6.641c0 2.652 1.77 3.203 3.036 3.203 1.504 0 2.293-1.48 2.293-3.203v-1.359h-.523v1.312c0 1.719-.696 2.723-1.625 2.723-1.625 0-1.625-2.223-1.625-2.629zm14.308 3.227c0-1.293 0-2.25-1.05-3.18-.837-.765-1.915-1.101-2.965-1.101-1.957 0-3.465 1.293-3.465 2.843 0 .696.453 1.032 1.004 1.032.574 0 .98-.407.98-.985 0-.976-.86-.976-1.219-.976.551-1.004 1.696-1.434 2.653-1.434 1.097 0 2.507.906 2.507 3.059v.953c-4.8.074-6.617 2.082-6.617 3.922 0 1.886 2.2 2.484 3.657 2.484 1.574 0 2.652-.957 3.105-2.102.094 1.122.836 1.981 1.863 1.981.504 0 1.887-.332 1.887-2.246v-1.336h-.523v1.336c0 1.363-.575 1.555-.907 1.555-.91 0-.91-1.266-.91-1.625zm-1.555 3.008c0 2.343-1.742 3.132-2.769 3.132-1.172 0-2.152-.863-2.152-2.007 0-3.157 4.062-3.442 4.921-3.493zm20.481-5.473c-.285 0-1.172 0-1.172.98 0 .575.406.981.981.981.55 0 1.004-.336 1.004-1.027 0-1.602-1.672-2.75-3.61-2.75-2.793 0-5.015 2.488-5.015 5.5 0 3.054 2.292 5.398 4.992 5.398 3.156 0 3.871-2.867 3.871-3.082s-.168-.215-.238-.215c-.215 0-.239.07-.309.36-.527 1.695-1.816 2.41-3.109 2.41-1.457 0-3.391-1.266-3.391-4.899 0-3.965 2.031-4.945 3.223-4.945.91 0 2.226.359 2.773 1.289m12.719 3.73c0-3.085-2.34-5.546-5.114-5.546-2.867 0-5.136 2.535-5.136 5.546 0 3.059 2.386 5.352 5.113 5.352 2.816 0 5.137-2.344 5.137-5.352m-5.114 4.825c-.886 0-1.96-.379-2.652-1.551-.648-1.078-.672-2.484-.672-3.492 0-.907 0-2.364.742-3.438a3.06 3.06 0 0 1 2.559-1.41c.93 0 1.934.43 2.578 1.363.742 1.098.742 2.602.742 3.485 0 .84 0 2.32-.621 3.441-.668 1.149-1.769 1.602-2.676 1.602m16.481-5.52c0-2.222 0-2.89-.551-3.656-.695-.93-1.816-1.074-2.629-1.074-2.316 0-3.226 1.984-3.418 2.461h-.023v-2.461l-3.25.261v.696c1.625 0 1.816.164 1.816 1.336v6.476c0 1.074-.261 1.074-1.816 1.074v.696c.621-.047 1.914-.047 2.582-.047.691 0 1.984 0 2.601.047v-.696c-1.527 0-1.812 0-1.812-1.074v-4.445c0-2.508 1.648-3.848 3.129-3.848 1.48 0 1.816 1.219 1.816 2.676v5.617c0 1.074-.265 1.074-1.816 1.074v.696c.621-.047 1.914-.047 2.582-.047.691 0 1.98 0 2.601.047v-.696c-1.195 0-1.789 0-1.812-.714zm29.523-8.914c0-.621-.504-1.168-1.171-1.168-.622 0-1.149.5-1.149 1.145 0 .718.574 1.172 1.149 1.172.742 0 1.171-.622 1.171-1.149m-3.296 4.445v.696c1.527 0 1.742.14 1.742 1.312v6.5c0 1.074-.262 1.074-1.817 1.074v.696c.668-.047 1.817-.047 2.508-.047.266 0 1.652 0 2.465.047v-.696c-1.555 0-1.648-.117-1.648-1.05v-8.793zm35.804-6.046v.695c1.625 0 1.821.168 1.821 1.336v5.281c-.504-.691-1.532-1.527-2.989-1.527-2.773 0-5.164 2.34-5.164 5.398 0 3.035 2.27 5.379 4.903 5.379 1.816 0 2.867-1.195 3.199-1.648v1.648l3.371-.238v-.696c-1.625 0-1.817-.168-1.817-1.335v-14.555zm1.77 13.527c0 .43 0 .504-.332 1.027-.575.836-1.555 1.531-2.75 1.531-.621 0-3.203-.242-3.203-4.875 0-1.722.289-2.679.812-3.468.477-.739 1.434-1.481 2.629-1.481 1.48 0 2.316 1.074 2.559 1.457.285.407.285.457.285.887zm13.285-3.582c0-1.293 0-2.25-1.051-3.18-.836-.765-1.91-1.101-2.961-1.101-1.961 0-3.465 1.293-3.465 2.843 0 .696.453 1.032 1.004 1.032.574 0 .981-.407.981-.985 0-.976-.864-.976-1.219-.976.547-1.004 1.695-1.434 2.648-1.434 1.102 0 2.512.906 2.512 3.059v.953c-4.805.074-6.617 2.082-6.617 3.922 0 1.886 2.195 2.484 3.652 2.484 1.578 0 2.657-.957 3.11-2.102.093 1.122.836 1.981 1.863 1.981.5 0 1.887-.332 1.887-2.246v-1.336h-.524v1.336c0 1.363-.574 1.555-.91 1.555-.91 0-.91-1.266-.91-1.625zm-1.551 3.008c0 2.343-1.742 3.132-2.773 3.132-1.168 0-2.149-.863-2.149-2.007 0-3.157 4.063-3.442 4.922-3.493zm37.734-4.278c0-1.98-.121-3.918-.976-5.734-.981-1.984-2.703-2.508-3.875-2.508-1.387 0-3.082.692-3.965 2.676-.672 1.504-.91 2.984-.91 5.566 0 2.317.168 4.063 1.027 5.758.934 1.817 2.582 2.391 3.824 2.391 2.079 0 3.274-1.242 3.965-2.629.864-1.789.91-4.133.91-5.52m-4.875 7.672c-.765 0-2.316-.429-2.769-3.035-.266-1.434-.266-3.25-.266-4.922 0-1.961 0-3.726.383-5.14.406-1.598 1.625-2.34 2.652-2.34.911 0 2.293.55 2.75 2.605.309 1.36.309 3.25.309 4.875 0 1.602 0 3.414-.262 4.875-.453 2.629-1.961 3.082-2.797 3.082m38.094-6.402c0-1.293 0-2.25-1.051-3.18-.835-.765-1.914-1.101-2.964-1.101-1.957 0-3.465 1.293-3.465 2.843 0 .696.453 1.032 1.004 1.032.574 0 .98-.407.98-.985 0-.976-.859-.976-1.219-.976.551-1.004 1.696-1.434 2.653-1.434 1.097 0 2.508.906 2.508 3.059v.953c-4.801.074-6.618 2.082-6.618 3.922 0 1.886 2.2 2.484 3.657 2.484 1.574 0 2.652-.957 3.105-2.102.094 1.122.836 1.981 1.863 1.981.504 0 1.887-.332 1.887-2.246v-1.336h-.523v1.336c0 1.363-.575 1.555-.907 1.555-.91 0-.91-1.266-.91-1.625zm-1.554 3.008c0 2.343-1.743 3.132-2.774 3.132-1.168 0-2.148-.863-2.148-2.007 0-3.157 4.062-3.442 4.922-3.493zm48.14-13.215-3.32.262v.695c1.625 0 1.816.168 1.816 1.336v12.523c0 1.074-.265 1.074-1.816 1.074v.696c.668-.047 1.84-.047 2.555-.047.718 0 1.914 0 2.582.047v-.696c-1.532 0-1.817 0-1.817-1.074zm9.653 6.308v.696c1.625 0 1.82.164 1.82 1.336v4.277c0 2.031-1.078 3.73-2.871 3.73-1.957 0-2.078-1.125-2.078-2.39v-7.91l-3.371.261v.696c1.82 0 1.82.07 1.82 2.195V-232c0 1.48 0 2.344.715 3.133.574.621 1.554.906 2.773.906.406 0 1.168 0 1.981-.695.695-.547 1.078-1.457 1.078-1.457v2.152l3.32-.238v-.696c-1.625 0-1.816-.168-1.816-1.335v-8.508zm16.371 4.469c0-2.222 0-2.89-.551-3.656-.692-.93-1.813-1.074-2.625-1.074-2.32 0-3.227 1.984-3.418 2.461h-.027v-2.461l-3.25.261v.696c1.625 0 1.82.164 1.82 1.336v6.476c0 1.074-.266 1.074-1.82 1.074v.696c.625-.047 1.914-.047 2.582-.047.695 0 1.984 0 2.605.047v-.696c-1.531 0-1.816 0-1.816-1.074v-4.445c0-2.508 1.648-3.848 3.129-3.848 1.484 0 1.82 1.219 1.82 2.676v5.617c0 1.074-.266 1.074-1.82 1.074v.696c.625-.047 1.914-.047 2.582-.047.695 0 1.984 0 2.605.047v-.696c-1.195 0-1.793 0-1.816-.714zm5.211 1.485c1.121.738 2.078.738 2.339.738 2.153 0 3.754-1.625 3.754-3.465 0-.645-.191-1.555-.957-2.316.934-.957 2.055-.957 2.176-.957.094 0 .215 0 .309.046-.239.098-.36.336-.36.598 0 .336.242.621.625.621.188 0 .621-.121.621-.644 0-.43-.336-1.102-1.172-1.102-1.242 0-2.175.77-2.511 1.125-.715-.551-1.551-.859-2.461-.859-2.149 0-3.75 1.625-3.75 3.465 0 1.363.836 2.246 1.074 2.46-.285.36-.715 1.051-.715 1.985 0 1.387.836 1.984 1.028 2.101-1.102.313-2.2 1.172-2.2 2.414 0 1.649 2.246 3.012 5.188 3.012 2.844 0 5.207-1.265 5.207-3.058 0-.598-.168-2.008-1.602-2.75-1.218-.621-2.414-.621-4.468-.621-1.457 0-1.625 0-2.055-.454-.238-.238-.453-.695-.453-1.195 0-.406.144-.812.383-1.144m2.363.238c-2.102 0-2.102-2.414-2.102-2.965 0-.43 0-1.41.407-2.055a2.04 2.04 0 0 1 1.671-.929c2.106 0 2.106 2.41 2.106 2.961 0 .429 0 1.41-.406 2.054a2.04 2.04 0 0 1-1.676.934m.648 8.48c-2.297 0-4.039-1.168-4.039-2.531 0-.191.047-1.125.953-1.746.528-.332.743-.332 2.414-.332 1.985 0 4.684 0 4.684 2.078 0 1.41-1.816 2.531-4.012 2.531m16.477-10.203c0-2.222 0-2.89-.547-3.656-.695-.93-1.816-1.074-2.629-1.074-2.059 0-3.012 1.55-3.348 2.293h-.023v-8.34l-3.32.262v.695c1.625 0 1.816.168 1.816 1.336v12.523c0 1.074-.262 1.074-1.816 1.074v.696c.621-.047 1.91-.047 2.578-.047.695 0 1.984 0 2.605.047v-.696c-1.527 0-1.816 0-1.816-1.074v-4.445c0-2.508 1.648-3.848 3.133-3.848 1.48 0 1.816 1.219 1.816 2.676v5.617c0 1.074-.266 1.074-1.816 1.074v.696c.621-.047 1.91-.047 2.578-.047.695 0 1.984 0 2.605.047v-.696c-1.195 0-1.793 0-1.816-.714zm11.519.266c.528 0 .575 0 .575-.457 0-2.41-1.289-4.66-4.184-4.66-2.723 0-4.824 2.461-4.824 5.425 0 3.153 2.437 5.473 5.086 5.473 2.843 0 3.922-2.582 3.922-3.082 0-.145-.122-.238-.262-.238-.192 0-.242.117-.289.238-.621 2.008-2.223 2.555-3.227 2.555s-3.418-.668-3.418-4.801v-.453zm-6.597-.457c.191-3.75 2.297-4.18 2.965-4.18 2.558 0 2.699 3.367 2.722 4.18zm16.949-3.629c.215-.266.215-.313.215-.406 0-.266-.164-.266-.571-.266h-7.507l-.262 3.801h.527c.141-2.438.598-3.324 3.203-3.324h2.77l-6.832 9.394c0 .43.047.43.57.43h7.793l.379-4.399h-.523c-.215 2.727-.621 3.871-3.465 3.871h-2.891zm10.402 0c.215-.266.215-.313.215-.406 0-.266-.168-.266-.574-.266h-7.504l-.262 3.801h.524c.144-2.438.597-3.324 3.203-3.324h2.773l-6.836 9.394c0 .43.047.43.575.43h7.789l.382-4.399h-.523c-.219 2.727-.625 3.871-3.469 3.871h-2.89zm10.516 3.25c0-1.293 0-2.25-1.051-3.18-.836-.765-1.91-1.101-2.961-1.101-1.961 0-3.465 1.293-3.465 2.843 0 .696.453 1.032 1.004 1.032.574 0 .981-.407.981-.985 0-.976-.864-.976-1.219-.976.547-1.004 1.695-1.434 2.648-1.434 1.102 0 2.512.906 2.512 3.059v.953c-4.805.074-6.617 2.082-6.617 3.922 0 1.886 2.195 2.484 3.652 2.484 1.578 0 2.657-.957 3.11-2.102.093 1.122.836 1.981 1.863 1.981.5 0 1.887-.332 1.887-2.246v-1.336h-.524v1.336c0 1.363-.574 1.555-.91 1.555-.91 0-.91-1.266-.91-1.625zm-1.551 3.008c0 2.343-1.742 3.132-2.773 3.132-1.168 0-2.149-.863-2.149-2.007 0-3.157 4.063-3.442 4.922-3.493zm37.856-7.766c0-.766-.649-1.504-1.532-1.504-.906 0-1.527.738-1.527 1.504s.645 1.508 1.527 1.508c.907 0 1.532-.742 1.532-1.508m0 10.324a1.54 1.54 0 0 0-1.532-1.508 1.52 1.52 0 0 0-1.527 1.508c0 .766.645 1.504 1.527 1.504a1.52 1.52 0 0 0 1.532-1.504m-8.676-5.64c-.406 0-.836 0-.836.48 0 .477.43.477.836.477h14.289c.406 0 .836 0 .836-.477 0-.48-.43-.48-.836-.48zm49.965 2.437h-.528c-.07.406-.261 1.723-.5 2.102-.168.215-1.531.215-2.246.215h-4.422c.645-.547 2.102-2.079 2.723-2.649 3.633-3.348 4.973-4.59 4.973-6.957 0-2.75-2.176-4.586-4.95-4.586-2.769 0-4.394 2.363-4.394 4.418 0 1.219 1.051 1.219 1.121 1.219.504 0 1.125-.356 1.125-1.121 0-.668-.453-1.125-1.125-1.125-.215 0-.262 0-.332.027.453-1.625 1.742-2.726 3.297-2.726 2.031 0 3.273 1.695 3.273 3.894 0 2.031-1.172 3.801-2.535 5.332l-4.824 5.399v.574h8.723zm48.433-1.48c.406 0 .836 0 .836-.477 0-.48-.43-.48-.836-.48H534.02c-.407 0-.836 0-.836.48 0 .477.429.477.836.477zm32.735-9.821c0-.55 0-.574-.481-.574-.57.645-1.765 1.527-4.226 1.527v.696c.546 0 1.742 0 3.054-.625v12.453c0 .859-.07 1.144-2.172 1.144h-.742v.696c.645-.047 2.965-.047 3.754-.047.785 0 3.082 0 3.727.047v-.696h-.743c-2.101 0-2.171-.285-2.171-1.144zm42.171 19.258c-1.531 0-1.816 0-1.816-1.074v-4.16c.43.597 1.41 1.531 2.938 1.531 2.75 0 5.164-2.32 5.164-5.398 0-3.039-2.246-5.379-4.852-5.379-2.101 0-3.226 1.504-3.297 1.601v-1.601l-3.324.261v.696c1.676 0 1.816.164 1.816 1.218v11.231c0 1.074-.261 1.074-1.816 1.074v.695c.625-.05 1.914-.05 2.582-.05.691 0 1.984 0 2.605.05zm-1.816-11.566c0-.453 0-.477.262-.86.719-1.074 1.887-1.531 2.797-1.531 1.793 0 3.226 2.176 3.226 4.856 0 2.839-1.625 4.921-3.465 4.921a2.83 2.83 0 0 1-1.914-.765c-.547-.551-.906-1.027-.906-1.695zm18.813 2.082c.527 0 .574 0 .574-.457 0-2.41-1.289-4.66-4.184-4.66-2.722 0-4.824 2.461-4.824 5.425 0 3.153 2.437 5.473 5.09 5.473 2.844 0 3.918-2.582 3.918-3.082 0-.145-.121-.238-.262-.238-.191 0-.242.117-.285.238-.625 2.008-2.223 2.555-3.231 2.555-1 0-3.414-.668-3.414-4.801v-.453zm-6.594-.457c.191-3.75 2.293-4.18 2.961-4.18 2.558 0 2.703 3.367 2.726 4.18zm11.832.433c0-2.32.957-4.496 2.797-4.496.191 0 .238 0 .336.028-.192.093-.575.238-.575.882 0 .692.547.954.93.954.481 0 .957-.309.957-.954 0-.718-.644-1.386-1.672-1.386-2.031 0-2.722 2.199-2.867 2.652h-.023v-2.652l-3.203.261v.696c1.625 0 1.816.164 1.816 1.336v6.476c0 1.074-.266 1.074-1.816 1.074v.696c.668-.047 1.984-.047 2.699-.047.644 0 2.344 0 2.89.047v-.696h-.476c-1.742 0-1.793-.261-1.793-1.121zm34.992-9.75c0-.55 0-.574-.477-.574-.574.645-1.769 1.527-4.23 1.527v.696c.551 0 1.742 0 3.059-.625v12.453c0 .859-.075 1.144-2.176 1.144h-.738v.696c.644-.047 2.96-.047 3.75-.047.789 0 3.082 0 3.726.047v-.696h-.738c-2.102 0-2.176-.285-2.176-1.144zm32.215 6.164c0-.644-.551-1.148-1.149-1.148-.691 0-1.168.551-1.168 1.148a1.17 1.17 0 0 0 1.149 1.172c.644 0 1.168-.504 1.168-1.172m0 7.981c0-.645-.551-1.149-1.149-1.149-.691 0-1.168.551-1.168 1.149a1.17 1.17 0 0 0 1.149 1.172c.644 0 1.168-.504 1.168-1.172M42.656-377.82c0-.621-.5-1.172-1.168-1.172a1.15 1.15 0 0 0-1.148 1.148c0 .715.574 1.172 1.148 1.172.739 0 1.168-.625 1.168-1.148m-3.297 4.445v.691c1.532 0 1.746.145 1.746 1.317v6.5c0 1.074-.261 1.074-1.816 1.074v.691c.668-.046 1.816-.046 2.508-.046.266 0 1.648 0 2.46.046v-.691c-1.55 0-1.648-.121-1.648-1.051v-8.797zm22.774 4.469c0-2.223 0-2.891-.547-3.657-.695-.933-1.816-1.078-2.629-1.078-1.984 0-2.988 1.438-3.371 2.368-.336-1.84-1.625-2.368-3.129-2.368-2.32 0-3.227 1.985-3.418 2.465h-.023v-2.465l-3.25.266v.691c1.625 0 1.816.168 1.816 1.34v6.477c0 1.074-.262 1.074-1.816 1.074v.691c.62-.046 1.91-.046 2.578-.046.695 0 1.984 0 2.605.046v-.691c-1.527 0-1.816 0-1.816-1.074v-4.446c0-2.507 1.648-3.847 3.133-3.847 1.48 0 1.816 1.219 1.816 2.676v5.617c0 1.074-.266 1.074-1.816 1.074v.691c.62-.046 1.91-.046 2.578-.046.695 0 1.984 0 2.605.046v-.691c-1.527 0-1.816 0-1.816-1.074v-4.446c0-2.507 1.648-3.847 3.133-3.847 1.48 0 1.816 1.219 1.816 2.676v5.617c0 1.074-.266 1.074-1.816 1.074v.691c.62-.046 1.91-.046 2.578-.046.695 0 1.984 0 2.605.046v-.691c-1.195 0-1.793 0-1.816-.715zm8.223 9.75c-1.532 0-1.817 0-1.817-1.078v-4.157c.43.598 1.41 1.532 2.938 1.532 2.75 0 5.164-2.321 5.164-5.403 0-3.035-2.247-5.379-4.852-5.379-2.102 0-3.227 1.508-3.297 1.602v-1.602l-3.324.266v.691c1.676 0 1.816.168 1.816 1.219v11.231c0 1.078-.261 1.078-1.816 1.078v.691c.621-.047 1.914-.047 2.582-.047.691 0 1.984 0 2.606.047zm-1.817-11.567c0-.453 0-.48.262-.859.718-1.078 1.886-1.531 2.797-1.531 1.793 0 3.226 2.175 3.226 4.851 0 2.844-1.625 4.922-3.465 4.922a2.82 2.82 0 0 1-1.914-.762c-.547-.55-.906-1.031-.906-1.699zm20.629 2.508c0-3.082-2.34-5.543-5.113-5.543-2.868 0-5.137 2.531-5.137 5.543 0 3.059 2.387 5.356 5.113 5.356 2.82 0 5.137-2.344 5.137-5.356m-5.113 4.828c-.883 0-1.961-.383-2.653-1.554-.644-1.075-.668-2.485-.668-3.489 0-.91 0-2.367.739-3.441a3.07 3.07 0 0 1 2.558-1.41c.93 0 1.938.429 2.578 1.363.743 1.098.743 2.605.743 3.488 0 .836 0 2.321-.621 3.442-.668 1.148-1.77 1.601-2.676 1.601m13.683-9.82c0-.434 0-.551-.238-.551-.191 0-.644.524-.812.742-.743-.597-1.485-.742-2.247-.742-2.894 0-3.754 1.578-3.754 2.891 0 .265 0 1.101.91 1.937.762.668 1.575.836 2.676 1.051 1.313.262 1.625.332 2.223.813.43.359.738.882.738 1.55 0 1.032-.593 2.176-2.699 2.176-1.574 0-2.722-.906-3.25-3.297-.094-.429-.094-.453-.117-.476-.05-.098-.145-.098-.215-.098-.266 0-.266.121-.266.551v3.25c0 .43 0 .551.243.551.117 0 .14-.024.547-.528.12-.168.12-.215.476-.597.91 1.125 2.2 1.125 2.606 1.125 2.511 0 3.754-1.387 3.754-3.274 0-1.293-.79-2.058-1.004-2.273-.86-.739-1.504-.883-3.082-1.172-.72-.141-2.461-.477-2.461-1.91 0-.739.5-1.84 2.652-1.84 2.605 0 2.746 2.223 2.793 2.965.023.191.191.191.266.191.261 0 .261-.121.261-.551zm5.375.5h3.371v-.691h-3.371v-4.399h-.523c-.024 2.246-.887 4.539-3.059 4.613v.477h2.032v6.644c0 2.653 1.765 3.204 3.035 3.204 1.504 0 2.293-1.485 2.293-3.204v-1.363h-.528v1.317c0 1.718-.691 2.722-1.625 2.722-1.625 0-1.625-2.222-1.625-2.629zm14.309 3.227c0-1.29 0-2.247-1.051-3.18-.836-.762-1.91-1.098-2.961-1.098-1.961 0-3.465 1.289-3.465 2.844 0 .691.453 1.027 1.004 1.027.574 0 .981-.406.981-.98 0-.981-.864-.981-1.219-.981.547-1.004 1.695-1.433 2.648-1.433 1.102 0 2.512.91 2.512 3.058v.957c-4.805.071-6.617 2.078-6.617 3.918 0 1.891 2.195 2.489 3.652 2.489 1.578 0 2.657-.957 3.11-2.106.093 1.125.836 1.985 1.863 1.985.5 0 1.887-.336 1.887-2.247v-1.339h-.524v1.339c0 1.364-.574 1.555-.91 1.555-.91 0-.91-1.269-.91-1.625zm-1.551 3.011c0 2.34-1.742 3.129-2.773 3.129-1.168 0-2.149-.859-2.149-2.008 0-3.152 4.063-3.441 4.922-3.488zm34.625-7.004c-.141 0-.379.028-.426.051-.047.024-.097.024-.429.024h-2.797v-2.704c0-2.437 2.078-3.343 3.488-3.343.238 0 1.387.023 2.102.836-1.004 0-1.075.742-1.075 1.004 0 .691.575 1.003.981 1.003.43 0 1.004-.289 1.004-1.027 0-1.219-1.125-2.293-2.965-2.293-2.176 0-4.992 1.195-4.992 3.774v2.75h-1.864v.691h1.864v7.84c0 1.074-.266 1.074-1.817 1.074v.691c.668-.046 1.84-.046 2.559-.046.715 0 1.91 0 2.578.046v-.691c-1.527 0-1.816 0-1.816-1.074v-7.84h3.75c1.101 0 1.246.312 1.246 1.293v6.547c0 1.074-.266 1.074-1.817 1.074v.691c.668-.046 1.84-.046 2.559-.046.715 0 1.91 0 2.578.046v-.691c-1.527 0-1.816 0-1.816-1.074v-8.797zm16.039 4.567c0-2.223 0-2.891-.551-3.657-.695-.933-1.816-1.078-2.629-1.078-2.316 0-3.226 1.985-3.417 2.465h-.024v-2.465l-3.25.266v.691c1.625 0 1.816.168 1.816 1.34v6.477c0 1.074-.261 1.074-1.816 1.074v.691c.621-.046 1.914-.046 2.582-.046.692 0 1.984 0 2.606.046v-.691c-1.532 0-1.817 0-1.817-1.074v-4.446c0-2.507 1.649-3.847 3.129-3.847 1.484 0 1.816 1.219 1.816 2.676v5.617c0 1.074-.261 1.074-1.816 1.074v.691c.621-.046 1.914-.046 2.582-.046.692 0 1.981 0 2.606.046v-.691c-1.196 0-1.793 0-1.817-.715zm11.52.261c.523 0 .574 0 .574-.453 0-2.414-1.293-4.66-4.184-4.66-2.726 0-4.828 2.461-4.828 5.426 0 3.152 2.438 5.473 5.09 5.473 2.844 0 3.922-2.582 3.922-3.086 0-.145-.121-.239-.266-.239-.191 0-.242.121-.285.239-.625 2.007-2.223 2.558-3.226 2.558s-3.418-.668-3.418-4.804v-.454zm-6.598-.453c.191-3.754 2.297-4.183 2.965-4.183 2.555 0 2.699 3.371 2.723 4.183zm40.066-.382c0-1.29 0-2.247-1.05-3.18-.836-.762-1.91-1.098-2.965-1.098-1.957 0-3.465 1.289-3.465 2.844 0 .691.453 1.027 1.004 1.027.574 0 .98-.406.98-.98 0-.981-.859-.981-1.218-.981.55-1.004 1.699-1.433 2.652-1.433 1.102 0 2.508.91 2.508 3.058v.957c-4.801.071-6.617 2.078-6.617 3.918 0 1.891 2.199 2.489 3.656 2.489 1.578 0 2.652-.957 3.105-2.106.098 1.125.836 1.985 1.864 1.985.503 0 1.89-.336 1.89-2.247v-1.339h-.527v1.339c0 1.364-.574 1.555-.906 1.555-.911 0-.911-1.269-.911-1.625zm-1.554 3.011c0 2.34-1.742 3.129-2.77 3.129-1.172 0-2.152-.859-2.152-2.008 0-3.152 4.062-3.441 4.922-3.488zm48.187-11.351c0-.621-.5-1.172-1.168-1.172a1.15 1.15 0 0 0-1.148 1.148c0 .715.574 1.172 1.148 1.172.739 0 1.168-.625 1.168-1.148m-3.297 4.445v.691c1.532 0 1.746.145 1.746 1.317v6.5c0 1.074-.261 1.074-1.816 1.074v.691c.668-.046 1.816-.046 2.508-.046.266 0 1.648 0 2.461.046v-.691c-1.551 0-1.649-.121-1.649-1.051v-8.797zm16.274 4.469c0-2.223 0-2.891-.547-3.657-.695-.933-1.816-1.078-2.629-1.078-2.32 0-3.227 1.985-3.418 2.465h-.023v-2.465l-3.25.266v.691c1.625 0 1.816.168 1.816 1.34v6.477c0 1.074-.262 1.074-1.816 1.074v.691c.621-.046 1.91-.046 2.578-.046.695 0 1.984 0 2.605.046v-.691c-1.527 0-1.816 0-1.816-1.074v-4.446c0-2.507 1.648-3.847 3.133-3.847 1.48 0 1.816 1.219 1.816 2.676v5.617c0 1.074-.266 1.074-1.816 1.074v.691c.621-.046 1.91-.046 2.578-.046.695 0 1.984 0 2.605.046v-.691c-1.195 0-1.793 0-1.816-.715zm6.523-8.914c0-.621-.5-1.172-1.168-1.172a1.15 1.15 0 0 0-1.148 1.148c0 .715.574 1.172 1.148 1.172.739 0 1.168-.625 1.168-1.148m-3.297 4.445v.691c1.532 0 1.746.145 1.746 1.317v6.5c0 1.074-.261 1.074-1.816 1.074v.691c.668-.046 1.816-.046 2.508-.046.266 0 1.648 0 2.461.046v-.691c-1.551 0-1.649-.121-1.649-1.051v-8.797zm14.746.645c.215-.262.215-.309.215-.407 0-.261-.168-.261-.574-.261h-7.504l-.262 3.796h.528c.14-2.437.594-3.32 3.199-3.32h2.773l-6.835 9.391c0 .429.05.429.574.429h7.789l.383-4.394h-.524c-.219 2.723-.625 3.871-3.469 3.871h-2.89zm5.454-5.09c0-.621-.504-1.172-1.172-1.172-.621 0-1.145.504-1.145 1.148 0 .715.571 1.172 1.145 1.172.742 0 1.172-.625 1.172-1.148m-3.297 4.445v.691c1.527 0 1.742.145 1.742 1.317v6.5c0 1.074-.262 1.074-1.816 1.074v.691c.671-.046 1.816-.046 2.511-.046.262 0 1.649 0 2.461.046v-.691c-1.555 0-1.648-.121-1.648-1.051v-8.797zm16.707 5.16c0-3.082-2.34-5.543-5.114-5.543-2.867 0-5.136 2.531-5.136 5.543 0 3.059 2.386 5.356 5.113 5.356 2.816 0 5.137-2.344 5.137-5.356m-5.114 4.828c-.886 0-1.96-.383-2.652-1.554-.648-1.075-.672-2.485-.672-3.489 0-.91 0-2.367.742-3.441a3.06 3.06 0 0 1 2.559-1.41c.93 0 1.934.429 2.578 1.363.742 1.098.742 2.605.742 3.488 0 .836 0 2.321-.621 3.442-.668 1.148-1.769 1.601-2.676 1.601m38.278-5.234h6.597c.333 0 .766 0 .766-.43 0-.453-.406-.453-.766-.453h-6.597v-6.598c0-.332 0-.761-.43-.761-.453 0-.453.406-.453.761v6.598h-6.594c-.336 0-.765 0-.765.43 0 .453.406.453.765.453h6.594v6.598c0 .332 0 .765.43.765.453 0 .453-.406.453-.765zm35.777-11.063-3.32.262v.695c1.625 0 1.816.164 1.816 1.336v12.524c0 1.074-.265 1.074-1.816 1.074v.691c.668-.046 1.84-.046 2.555-.046.718 0 1.914 0 2.582.046v-.691c-1.532 0-1.817 0-1.817-1.074zm9.754 6.309v.691c1.625 0 1.816.168 1.816 1.34v4.278c0 2.031-1.074 3.726-2.867 3.726-1.961 0-2.078-1.125-2.078-2.387v-7.914l-3.371.266v.691c1.816 0 1.816.075 1.816 2.2v3.586c0 1.48 0 2.339.719 3.128.574.622 1.555.911 2.77.911.41 0 1.172 0 1.984-.696.695-.547 1.074-1.457 1.074-1.457v2.153l3.325-.243v-.691c-1.625 0-1.817-.168-1.817-1.34v-8.508zm16.371 4.469c0-2.223 0-2.891-.551-3.657-.695-.933-1.816-1.078-2.629-1.078-2.316 0-3.226 1.985-3.417 2.465h-.024v-2.465l-3.25.266v.691c1.625 0 1.816.168 1.816 1.34v6.477c0 1.074-.261 1.074-1.816 1.074v.691c.621-.046 1.914-.046 2.582-.046.692 0 1.984 0 2.606.046v-.691c-1.532 0-1.817 0-1.817-1.074v-4.446c0-2.507 1.649-3.847 3.129-3.847 1.484 0 1.816 1.219 1.816 2.676v5.617c0 1.074-.261 1.074-1.816 1.074v.691c.621-.046 1.914-.046 2.582-.046.692 0 1.981 0 2.606.046v-.691c-1.196 0-1.793 0-1.817-.715zm5.207 1.48c1.125.742 2.082.742 2.344.742 2.148 0 3.754-1.625 3.754-3.464 0-.649-.192-1.555-.957-2.321.93-.953 2.055-.953 2.172-.953.097 0 .218 0 .312.047-.238.094-.359.336-.359.598 0 .332.238.621.621.621.191 0 .625-.121.625-.645 0-.433-.336-1.101-1.176-1.101-1.238 0-2.172.765-2.508 1.125-.715-.551-1.554-.864-2.461-.864-2.148 0-3.75 1.625-3.75 3.469 0 1.359.836 2.246 1.075 2.457-.286.363-.719 1.055-.719 1.988 0 1.383.84 1.981 1.027 2.102-1.097.309-2.195 1.172-2.195 2.41 0 1.652 2.246 3.012 5.183 3.012 2.844 0 5.211-1.266 5.211-3.055 0-.601-.168-2.008-1.601-2.75-1.219-.621-2.414-.621-4.469-.621-1.457 0-1.625 0-2.055-.453-.238-.238-.457-.695-.457-1.195 0-.407.145-.813.383-1.149m2.367.238c-2.101 0-2.101-2.414-2.101-2.96 0-.43 0-1.411.406-2.055a2.04 2.04 0 0 1 1.672-.934c2.102 0 2.102 2.414 2.102 2.965 0 .43 0 1.406-.407 2.055a2.04 2.04 0 0 1-1.672.929m.645 8.485c-2.293 0-4.039-1.168-4.039-2.531 0-.192.051-1.125.957-1.746.527-.336.742-.336 2.414-.336 1.984 0 4.684 0 4.684 2.082 0 1.406-1.817 2.531-4.016 2.531m16.48-10.203c0-2.223 0-2.891-.55-3.657-.692-.933-1.817-1.078-2.629-1.078-2.055 0-3.008 1.555-3.344 2.297h-.023v-8.34l-3.325.262v.695c1.625 0 1.817.164 1.817 1.336v12.524c0 1.074-.262 1.074-1.817 1.074v.691c.621-.046 1.914-.046 2.582-.046.696 0 1.985 0 2.606.046v-.691c-1.531 0-1.817 0-1.817-1.074v-4.446c0-2.507 1.649-3.847 3.129-3.847 1.485 0 1.817 1.219 1.817 2.676v5.617c0 1.074-.262 1.074-1.817 1.074v.691c.621-.046 1.914-.046 2.582-.046.696 0 1.985 0 2.606.046v-.691c-1.196 0-1.793 0-1.817-.715zm11.52.261c.523 0 .574 0 .574-.453 0-2.414-1.293-4.66-4.183-4.66-2.723 0-4.829 2.461-4.829 5.426 0 3.152 2.438 5.473 5.09 5.473 2.844 0 3.922-2.582 3.922-3.086 0-.145-.121-.239-.265-.239-.192 0-.239.121-.286.239-.621 2.007-2.222 2.558-3.226 2.558s-3.418-.668-3.418-4.804v-.454zm-6.598-.453c.192-3.754 2.297-4.183 2.965-4.183 2.555 0 2.699 3.371 2.723 4.183zm16.949-3.632c.215-.262.215-.309.215-.407 0-.261-.168-.261-.574-.261h-7.504l-.262 3.796h.528c.14-2.437.594-3.32 3.199-3.32h2.773l-6.835 9.391c0 .429.05.429.574.429h7.789l.383-4.394h-.524c-.219 2.723-.625 3.871-3.469 3.871h-2.89zm10.399 0c.215-.262.215-.309.215-.407 0-.261-.164-.261-.571-.261h-7.507l-.262 3.796h.527c.141-2.437.598-3.32 3.203-3.32h2.77l-6.832 9.391c0 .429.047.429.57.429h7.793l.383-4.394h-.527c-.215 2.723-.621 3.871-3.465 3.871h-2.891zm10.519 3.25c0-1.29 0-2.247-1.05-3.18-.836-.762-1.91-1.098-2.965-1.098-1.957 0-3.465 1.289-3.465 2.844 0 .691.453 1.027 1.004 1.027.574 0 .98-.406.98-.98 0-.981-.859-.981-1.218-.981.55-1.004 1.699-1.433 2.652-1.433 1.102 0 2.508.91 2.508 3.058v.957c-4.801.071-6.617 2.078-6.617 3.918 0 1.891 2.199 2.489 3.656 2.489 1.578 0 2.652-.957 3.105-2.106.098 1.125.836 1.985 1.864 1.985.503 0 1.89-.336 1.89-2.247v-1.339h-.527v1.339c0 1.364-.574 1.555-.906 1.555-.911 0-.911-1.269-.911-1.625zm-1.554 3.011c0 2.34-1.742 3.129-2.77 3.129-1.172 0-2.152-.859-2.152-2.008 0-3.152 4.062-3.441 4.922-3.488zm51.277-2.129c.41 0 .84 0 .84-.476 0-.477-.43-.477-.84-.477H507.32c-.406 0-.836 0-.836.477 0 .476.43.476.836.476zm32.738-9.82c0-.551 0-.574-.48-.574-.574.648-1.77 1.527-4.231 1.527v.695c.551 0 1.747 0 3.059-.621v12.45c0 .863-.07 1.148-2.172 1.148h-.742v.691c.645-.046 2.965-.046 3.754-.046.785 0 3.082 0 3.726.046v-.691h-.742c-2.101 0-2.172-.285-2.172-1.148zm-534.128-81.84c-1.532 0-1.817 0-1.817-1.074v-4.16c.43.597 1.41 1.531 2.938 1.531 2.75 0 5.164-2.32 5.164-5.398 0-3.039-2.246-5.379-4.852-5.379-2.102 0-3.227 1.504-3.297 1.601v-1.601l-3.324.261v.696c1.676 0 1.816.164 1.816 1.218v11.231c0 1.074-.261 1.074-1.816 1.074v.695c.621-.05 1.914-.05 2.582-.05.691 0 1.984 0 2.605.05zm-1.817-11.566c0-.453 0-.477.262-.86.719-1.074 1.887-1.531 2.797-1.531 1.793 0 3.226 2.176 3.226 4.856 0 2.839-1.625 4.921-3.465 4.921a2.83 2.83 0 0 1-1.914-.765c-.547-.551-.906-1.027-.906-1.695zm18.715 2.082c.523 0 .574 0 .574-.457 0-2.41-1.293-4.66-4.184-4.66-2.722 0-4.828 2.461-4.828 5.425 0 3.153 2.438 5.473 5.09 5.473 2.844 0 3.922-2.582 3.922-3.082 0-.145-.121-.238-.266-.238-.19 0-.238.117-.285.238-.62 2.008-2.222 2.555-3.226 2.555s-3.418-.668-3.418-4.805v-.449zm-6.598-.457c.192-3.75 2.297-4.18 2.965-4.18 2.555 0 2.7 3.367 2.723 4.18zm11.934.433c0-2.32.957-4.496 2.797-4.496.191 0 .238 0 .336.028-.192.093-.575.238-.575.882 0 .692.547.954.93.954.48 0 .957-.309.957-.954 0-.718-.644-1.386-1.672-1.386-2.031 0-2.722 2.195-2.867 2.652h-.023v-2.652l-3.203.261v.696c1.624 0 1.816.164 1.816 1.336v6.476c0 1.074-.266 1.074-1.816 1.074v.696c.667-.047 1.984-.047 2.699-.047.644 0 2.343 0 2.89.047v-.696h-.476c-1.742 0-1.793-.261-1.793-1.121zm17.02-4.039h2.703v-.695h-2.75v-2.797c0-2.148 1.097-3.25 2.078-3.25.191 0 .55.051.836.192-.094.027-.692.238-.692.933 0 .551.383.93.934.93.57 0 .953-.379.953-.953 0-.883-.86-1.578-2.008-1.578-1.672 0-3.559 1.289-3.559 3.726v2.797h-1.863v.695h1.864v7.836c0 1.074-.262 1.074-1.817 1.074v.696c.668-.047 1.984-.047 2.7-.047.644 0 2.343 0 2.89.047v-.696h-.477c-1.746 0-1.793-.261-1.793-1.121zm12.214 3.227c0-1.293 0-2.25-1.05-3.18-.837-.765-1.915-1.101-2.965-1.101-1.957 0-3.465 1.293-3.465 2.843 0 .696.453 1.032 1.004 1.032.574 0 .98-.407.98-.985 0-.976-.86-.976-1.219-.976.551-1.004 1.696-1.434 2.653-1.434 1.097 0 2.507.906 2.507 3.059v.953c-4.8.074-6.617 2.082-6.617 3.922 0 1.886 2.2 2.484 3.657 2.484 1.574 0 2.652-.957 3.105-2.102.094 1.122.836 1.981 1.863 1.981.504 0 1.887-.336 1.887-2.246v-1.34h-.523v1.34c0 1.363-.575 1.555-.907 1.555-.91 0-.91-1.27-.91-1.625zm-1.555 3.008c0 2.343-1.742 3.132-2.769 3.132-1.172 0-2.152-.863-2.152-2.007 0-3.157 4.062-3.442 4.921-3.493zm8.021-2.196c0-2.32.956-4.496 2.796-4.496.191 0 .238 0 .336.028-.191.093-.574.238-.574.882 0 .692.55.954.933.954.477 0 .953-.309.953-.954 0-.718-.644-1.386-1.671-1.386-2.032 0-2.723 2.195-2.868 2.652h-.023v-2.652l-3.203.261v.696c1.625 0 1.816.164 1.816 1.336v6.476c0 1.074-.262 1.074-1.816 1.074v.696c.668-.047 1.984-.047 2.699-.047.644 0 2.344 0 2.894.047v-.696h-.48c-1.742 0-1.793-.261-1.793-1.121zm14.265.024c.523 0 .57 0 .57-.457 0-2.41-1.29-4.66-4.18-4.66-2.726 0-4.828 2.461-4.828 5.425 0 3.153 2.438 5.473 5.09 5.473 2.844 0 3.918-2.582 3.918-3.082 0-.145-.117-.238-.262-.238-.191 0-.238.117-.285.238-.625 2.008-2.222 2.555-3.226 2.555s-3.418-.668-3.418-4.805v-.449zm-6.598-.457c.191-3.75 2.293-4.18 2.965-4.18 2.555 0 2.7 3.367 2.722 4.18zm34.832.433c0-2.32.957-4.496 2.797-4.496.191 0 .238 0 .336.028-.192.093-.574.238-.574.882 0 .692.55.954.933.954.477 0 .953-.309.953-.954 0-.718-.644-1.386-1.671-1.386-2.032 0-2.723 2.195-2.868 2.652h-.023v-2.652l-3.203.261v.696c1.625 0 1.816.164 1.816 1.336v6.476c0 1.074-.262 1.074-1.816 1.074v.696c.668-.047 1.984-.047 2.699-.047.645 0 2.344 0 2.895.047v-.696h-.481c-1.742 0-1.793-.261-1.793-1.121zm9.27-9.156c0-.621-.504-1.168-1.172-1.168-.621 0-1.145.5-1.145 1.145a1.15 1.15 0 0 0 1.145 1.172c.742 0 1.172-.622 1.172-1.149m-3.297 4.445v.696c1.527 0 1.742.14 1.742 1.312v6.5c0 1.074-.262 1.074-1.816 1.074v.696c.671-.047 1.816-.047 2.511-.047.262 0 1.649 0 2.461.047v-.696c-1.555 0-1.648-.117-1.648-1.05v-8.793zm9.629-6.308-3.321.262v.695c1.625 0 1.817.168 1.817 1.336v14.293h.523c.098-.192.766-1.387.863-1.555.547.887 1.575 1.793 3.106 1.793 2.75 0 5.16-2.32 5.16-5.398 0-3.039-2.246-5.379-4.898-5.379-1.313 0-2.438.597-3.25 1.601zm.047 8.937c0-.429 0-.476.265-.859.57-.859 1.625-1.555 2.793-1.555.719 0 3.227.289 3.227 4.875 0 1.602-.239 2.606-.813 3.465-.476.742-1.433 1.484-2.629 1.484-1.289 0-2.125-.835-2.535-1.484-.308-.5-.308-.598-.308-1.004zm18.183 1.27c0-1.293 0-2.25-1.047-3.18-.84-.765-1.914-1.101-2.965-1.101-1.961 0-3.464 1.293-3.464 2.843 0 .696.453 1.032 1.003 1.032.575 0 .981-.407.981-.985 0-.976-.863-.976-1.219-.976.551-1.004 1.695-1.434 2.653-1.434 1.097 0 2.507.906 2.507 3.059v.953c-4.804.074-6.617 2.082-6.617 3.922 0 1.886 2.195 2.484 3.656 2.484 1.575 0 2.653-.957 3.106-2.102.094 1.122.836 1.981 1.863 1.981.5 0 1.887-.336 1.887-2.246v-1.34h-.524v1.34c0 1.363-.574 1.555-.91 1.555-.91 0-.91-1.27-.91-1.625zm-1.551 3.008c0 2.343-1.742 3.132-2.773 3.132-1.168 0-2.149-.863-2.149-2.007 0-3.157 4.063-3.442 4.922-3.493zm8.141-13.215-3.32.262v.695c1.625 0 1.812.168 1.812 1.336v12.523c0 1.074-.262 1.074-1.812 1.074v.696c.668-.047 1.836-.047 2.554-.047.719 0 1.914 0 2.582.047v-.696c-1.531 0-1.816 0-1.816-1.074zm6.402 6.98h3.371v-.695h-3.371v-4.398h-.523c-.024 2.25-.887 4.543-3.059 4.613v.48h2.032v6.641c0 2.652 1.765 3.203 3.035 3.203 1.504 0 2.293-1.48 2.293-3.203v-1.359h-.528v1.312c0 1.719-.691 2.723-1.625 2.723-1.625 0-1.625-2.223-1.625-2.629zm14.41 3.227c0-1.293 0-2.25-1.05-3.18-.836-.765-1.91-1.101-2.965-1.101-1.957 0-3.465 1.293-3.465 2.843 0 .696.453 1.032 1.004 1.032.574 0 .98-.407.98-.985 0-.976-.859-.976-1.218-.976.55-1.004 1.699-1.434 2.652-1.434 1.102 0 2.508.906 2.508 3.059v.953c-4.801.074-6.617 2.082-6.617 3.922 0 1.886 2.199 2.484 3.656 2.484 1.578 0 2.652-.957 3.105-2.102.098 1.122.836 1.981 1.864 1.981.503 0 1.89-.336 1.89-2.246v-1.34h-.527v1.34c0 1.363-.574 1.555-.906 1.555-.911 0-.911-1.27-.911-1.625zm-1.554 3.008c0 2.343-1.742 3.132-2.77 3.132-1.172 0-2.152-.863-2.152-2.007 0-3.157 4.062-3.442 4.922-3.493zm35.582-5.473c-.285 0-1.172 0-1.172.98 0 .575.406.981.98.981.551 0 1.004-.336 1.004-1.027 0-1.602-1.672-2.75-3.609-2.75-2.793 0-5.02 2.488-5.02 5.5 0 3.054 2.297 5.398 4.996 5.398 3.157 0 3.872-2.867 3.872-3.082s-.168-.215-.239-.215c-.215 0-.242.07-.308.36-.528 1.695-1.821 2.41-3.11 2.41-1.457 0-3.39-1.266-3.39-4.899 0-3.965 2.031-4.945 3.222-4.945.911 0 2.227.359 2.774 1.289m12.816 3.73c0-3.085-2.34-5.546-5.113-5.546-2.867 0-5.137 2.535-5.137 5.546 0 3.059 2.391 5.352 5.113 5.352 2.821 0 5.137-2.344 5.137-5.352m-5.113 4.825c-.883 0-1.957-.379-2.652-1.555-.645-1.074-.668-2.48-.668-3.488 0-.907 0-2.364.738-3.438a3.07 3.07 0 0 1 2.558-1.41c.934 0 1.938.43 2.583 1.363.742 1.098.742 2.602.742 3.485 0 .84 0 2.32-.625 3.441-.668 1.149-1.766 1.602-2.676 1.602m16.48-5.52c0-2.222 0-2.89-.55-3.656-.692-.93-1.817-1.074-2.629-1.074-2.317 0-3.227 1.984-3.414 2.461h-.028v-2.461l-3.25.261v.696c1.625 0 1.817.164 1.817 1.336v6.476c0 1.074-.262 1.074-1.817 1.074v.696c.621-.047 1.914-.047 2.582-.047.696 0 1.985 0 2.606.047v-.696c-1.531 0-1.817 0-1.817-1.074v-4.445c0-2.508 1.649-3.848 3.129-3.848 1.485 0 1.817 1.219 1.817 2.676v5.617c0 1.074-.262 1.074-1.817 1.074v.696c.621-.047 1.914-.047 2.582-.047.696 0 1.985 0 2.606.047v-.696c-1.196 0-1.793 0-1.817-.714zm34.59-.57c0-1.293 0-2.25-1.051-3.18-.835-.765-1.914-1.101-2.964-1.101-1.957 0-3.465 1.293-3.465 2.843 0 .696.453 1.032 1.004 1.032.574 0 .98-.407.98-.985 0-.976-.859-.976-1.219-.976.551-1.004 1.696-1.434 2.653-1.434 1.097 0 2.508.906 2.508 3.059v.953c-4.801.074-6.618 2.082-6.618 3.922 0 1.886 2.2 2.484 3.657 2.484 1.574 0 2.652-.957 3.105-2.102.094 1.122.836 1.981 1.863 1.981.504 0 1.887-.336 1.887-2.246v-1.34h-.523v1.34c0 1.363-.575 1.555-.907 1.555-.91 0-.91-1.27-.91-1.625zm-1.554 3.008c0 2.343-1.743 3.132-2.774 3.132-1.168 0-2.148-.863-2.148-2.007 0-3.157 4.062-3.442 4.922-3.493zm8.019-2.196c0-2.32.957-4.496 2.797-4.496.191 0 .238 0 .336.028-.192.093-.574.238-.574.882 0 .692.55.954.933.954.477 0 .953-.309.953-.954 0-.718-.644-1.386-1.671-1.386-2.032 0-2.723 2.195-2.868 2.652h-.023v-2.652l-3.203.261v.696c1.625 0 1.816.164 1.816 1.336v6.476c0 1.074-.262 1.074-1.816 1.074v.696c.668-.047 1.984-.047 2.699-.047.645 0 2.344 0 2.895.047v-.696h-.481c-1.742 0-1.793-.261-1.793-1.121zm9.102 0c0-2.32.957-4.496 2.797-4.496.191 0 .238 0 .335.028-.195.093-.574.238-.574.882 0 .692.547.954.93.954.48 0 .957-.309.957-.954 0-.718-.645-1.386-1.672-1.386-2.031 0-2.726 2.195-2.867 2.652h-.024v-2.652l-3.203.261v.696c1.625 0 1.817.164 1.817 1.336v6.476c0 1.074-.266 1.074-1.817 1.074v.696c.668-.047 1.985-.047 2.7-.047.644 0 2.339 0 2.89.047v-.696h-.476c-1.746 0-1.793-.261-1.793-1.121zm14.332-.812c0-1.293 0-2.25-1.051-3.18-.836-.765-1.91-1.101-2.961-1.101-1.961 0-3.469 1.293-3.469 2.843 0 .696.457 1.032 1.004 1.032.574 0 .981-.407.981-.985 0-.976-.86-.976-1.219-.976.551-1.004 1.699-1.434 2.652-1.434 1.102 0 2.512.906 2.512 3.059v.953c-4.805.074-6.621 2.082-6.621 3.922 0 1.886 2.199 2.484 3.656 2.484 1.578 0 2.652-.957 3.106-2.102.097 1.122.835 1.981 1.867 1.981.5 0 1.886-.336 1.886-2.246v-1.34h-.527v1.34c0 1.363-.57 1.555-.906 1.555-.91 0-.91-1.27-.91-1.625zm-1.551 3.008c0 2.343-1.746 3.132-2.774 3.132-1.171 0-2.152-.863-2.152-2.007 0-3.157 4.067-3.442 4.926-3.493z"/><path d="M314.68-472.18c.644-1.601 1.765-1.625 2.218-1.625v-.695c-.691.047-1.027.047-1.789.047-.55 0-.597 0-1.937-.047v.695c.883.047 1.101.594 1.101 1.024 0 .218-.05.336-.144.578l-2.438 6.019-2.652-6.5c-.144-.332-.144-.476-.144-.504 0-.617.835-.617 1.316-.617v-.695c-.621.047-1.793.047-2.465.047-.906 0-.953 0-2.316-.047v.695c1.386 0 1.578.117 1.89.86l3.559 8.746c-1.051 2.531-1.051 2.582-1.149 2.769-.406.719-1.05 1.625-2.125 1.625-.742 0-1.195-.429-1.195-.429s.836-.094.836-.934c0-.57-.453-.883-.883-.883-.406 0-.91.238-.91.934 0 .906.887 1.793 2.152 1.793 1.336 0 2.317-1.172 2.938-2.68zm34.875 2.438c.523 0 .574 0 .574-.457 0-2.41-1.293-4.66-4.184-4.66-2.726 0-4.828 2.461-4.828 5.425 0 3.153 2.438 5.473 5.09 5.473 2.844 0 3.922-2.582 3.922-3.082 0-.145-.121-.238-.266-.238-.191 0-.242.117-.285.238-.625 2.008-2.223 2.555-3.226 2.555s-3.418-.668-3.418-4.805v-.449zm-6.598-.457c.191-3.75 2.297-4.18 2.965-4.18 2.555 0 2.699 3.367 2.723 4.18zm35-8.723c0-.621-.5-1.168-1.168-1.168-.625 0-1.148.5-1.148 1.145 0 .718.574 1.172 1.148 1.172.738 0 1.168-.622 1.168-1.149m-3.297 4.445v.696c1.528 0 1.746.14 1.746 1.312v6.5c0 1.074-.265 1.074-1.816 1.074v.696c.668-.047 1.816-.047 2.508-.047.261 0 1.648 0 2.461.047v-.696c-1.551 0-1.649-.117-1.649-1.05v-8.793zm16.274 4.469c0-2.222 0-2.89-.551-3.656-.692-.93-1.813-1.074-2.625-1.074-2.32 0-3.227 1.984-3.418 2.461h-.027v-2.461l-3.25.261v.696c1.625 0 1.82.164 1.82 1.336v6.476c0 1.074-.266 1.074-1.82 1.074v.696c.625-.047 1.914-.047 2.582-.047.695 0 1.984 0 2.605.047v-.696c-1.531 0-1.816 0-1.816-1.074v-4.445c0-2.508 1.648-3.848 3.129-3.848 1.484 0 1.82 1.219 1.82 2.676v5.617c0 1.074-.266 1.074-1.82 1.074v.696c.625-.047 1.914-.047 2.582-.047.695 0 1.984 0 2.605.047v-.696c-1.195 0-1.793 0-1.816-.714zm6.523-8.914c0-.621-.5-1.168-1.168-1.168-.625 0-1.148.5-1.148 1.145 0 .718.574 1.172 1.148 1.172.738 0 1.168-.622 1.168-1.149m-3.297 4.445v.696c1.528 0 1.746.14 1.746 1.312v6.5c0 1.074-.265 1.074-1.816 1.074v.696c.668-.047 1.816-.047 2.508-.047.261 0 1.648 0 2.461.047v-.696c-1.551 0-1.649-.117-1.649-1.05v-8.793zm14.746.649c.215-.266.215-.313.215-.406 0-.266-.168-.266-.574-.266h-7.504l-.262 3.801h.524c.144-2.438.597-3.324 3.203-3.324h2.773l-6.836 9.394c0 .43.047.43.575.43h7.789l.382-4.399h-.527c-.215 2.727-.621 3.871-3.465 3.871h-2.89zm5.453-5.094c0-.621-.504-1.168-1.171-1.168-.622 0-1.145.5-1.145 1.145 0 .718.57 1.172 1.145 1.172.742 0 1.171-.622 1.171-1.149m-3.296 4.445v.696c1.527 0 1.742.14 1.742 1.312v6.5c0 1.074-.262 1.074-1.817 1.074v.696c.668-.047 1.817-.047 2.508-.047.266 0 1.652 0 2.465.047v-.696c-1.555 0-1.648-.117-1.648-1.05v-8.793zm16.605 5.164c0-3.085-2.34-5.546-5.113-5.546-2.867 0-5.137 2.535-5.137 5.546 0 3.059 2.387 5.352 5.113 5.352 2.821 0 5.137-2.344 5.137-5.352m-5.113 4.825c-.883 0-1.961-.379-2.653-1.555-.644-1.074-.668-2.48-.668-3.488 0-.907 0-2.364.739-3.438a3.06 3.06 0 0 1 2.558-1.41c.934 0 1.938.43 2.578 1.363.743 1.098.743 2.602.743 3.485 0 .84 0 2.32-.622 3.441-.667 1.149-1.765 1.602-2.675 1.602m38-5.254c.523 0 .574 0 .574-.457 0-2.41-1.293-4.66-4.184-4.66-2.726 0-4.828 2.461-4.828 5.425 0 3.153 2.438 5.473 5.09 5.473 2.844 0 3.922-2.582 3.922-3.082 0-.145-.121-.238-.266-.238-.191 0-.242.117-.285.238-.625 2.008-2.223 2.555-3.226 2.555s-3.418-.668-3.418-4.805v-.449zm-6.598-.457c.191-3.75 2.297-4.18 2.965-4.18 2.555 0 2.699 3.367 2.723 4.18zm34.953-10.586-3.32.262v.695c1.625 0 1.816.168 1.816 1.336v12.523c0 1.074-.265 1.074-1.816 1.074v.696c.668-.047 1.84-.047 2.555-.047.718 0 1.914 0 2.582.047v-.696c-1.532 0-1.817 0-1.817-1.074zm9.653 6.308v.696c1.625 0 1.82.164 1.82 1.336v4.277c0 2.031-1.078 3.73-2.871 3.73-1.957 0-2.078-1.125-2.078-2.39v-7.91l-3.371.261v.696c1.82 0 1.82.07 1.82 2.195V-468c0 1.48 0 2.344.715 3.133.574.621 1.554.906 2.773.906.406 0 1.172 0 1.981-.695.695-.547 1.078-1.457 1.078-1.457v2.152l3.32-.238v-.696c-1.625 0-1.816-.168-1.816-1.335v-8.508zm16.371 4.469c0-2.222 0-2.89-.551-3.656-.692-.93-1.813-1.074-2.625-1.074-2.32 0-3.227 1.984-3.418 2.461h-.027v-2.461l-3.25.261v.696c1.625 0 1.82.164 1.82 1.336v6.476c0 1.074-.266 1.074-1.82 1.074v.696c.625-.047 1.914-.047 2.582-.047.695 0 1.984 0 2.605.047v-.696c-1.531 0-1.816 0-1.816-1.074v-4.445c0-2.508 1.648-3.848 3.129-3.848 1.484 0 1.82 1.219 1.82 2.676v5.617c0 1.074-.266 1.074-1.82 1.074v.696c.625-.047 1.914-.047 2.582-.047.695 0 1.984 0 2.605.047v-.696c-1.195 0-1.793 0-1.816-.714zm5.211 1.485c1.121.738 2.078.738 2.339.738 2.153 0 3.754-1.625 3.754-3.465 0-.645-.191-1.555-.957-2.316.934-.957 2.055-.957 2.176-.957.094 0 .215 0 .309.046-.239.098-.36.336-.36.598 0 .336.242.621.625.621.188 0 .621-.121.621-.644 0-.43-.336-1.102-1.172-1.102-1.242 0-2.175.77-2.511 1.125-.715-.551-1.551-.859-2.461-.859-2.149 0-3.75 1.625-3.75 3.465 0 1.363.836 2.246 1.074 2.46-.285.36-.715 1.051-.715 1.985 0 1.387.836 1.984 1.028 2.101-1.102.309-2.2 1.172-2.2 2.414 0 1.649 2.246 3.012 5.188 3.012 2.844 0 5.207-1.265 5.207-3.058 0-.598-.168-2.008-1.602-2.75-1.218-.621-2.414-.621-4.468-.621-1.457 0-1.625 0-2.055-.454-.238-.238-.453-.695-.453-1.195 0-.406.144-.812.383-1.144m2.363.238c-2.102 0-2.102-2.414-2.102-2.965 0-.43 0-1.41.407-2.055a2.04 2.04 0 0 1 1.671-.929c2.106 0 2.106 2.41 2.106 2.961 0 .429 0 1.41-.406 2.054a2.04 2.04 0 0 1-1.676.934m.648 8.48c-2.297 0-4.039-1.168-4.039-2.531 0-.191.047-1.125.953-1.746.528-.336.743-.336 2.414-.336 1.985 0 4.684 0 4.684 2.082 0 1.41-1.816 2.531-4.012 2.531m16.477-10.203c0-2.222 0-2.89-.547-3.656-.695-.93-1.816-1.074-2.629-1.074-2.059 0-3.012 1.55-3.348 2.293h-.023v-8.34l-3.32.262v.695c1.625 0 1.816.168 1.816 1.336v12.523c0 1.074-.262 1.074-1.816 1.074v.696c.621-.047 1.91-.047 2.578-.047.695 0 1.984 0 2.605.047v-.696c-1.527 0-1.816 0-1.816-1.074v-4.445c0-2.508 1.648-3.848 3.133-3.848 1.48 0 1.816 1.219 1.816 2.676v5.617c0 1.074-.266 1.074-1.816 1.074v.696c.621-.047 1.91-.047 2.578-.047.695 0 1.984 0 2.605.047v-.696c-1.195 0-1.793 0-1.816-.714zm11.519.266c.528 0 .575 0 .575-.457 0-2.41-1.289-4.66-4.184-4.66-2.723 0-4.824 2.461-4.824 5.425 0 3.153 2.437 5.473 5.086 5.473 2.843 0 3.922-2.582 3.922-3.082 0-.145-.122-.238-.262-.238-.192 0-.242.117-.289.238-.621 2.008-2.223 2.555-3.227 2.555s-3.418-.668-3.418-4.805v-.449zm-6.597-.457c.191-3.75 2.297-4.18 2.965-4.18 2.558 0 2.699 3.367 2.722 4.18zm16.949-3.629c.215-.266.215-.313.215-.406 0-.266-.164-.266-.571-.266h-7.507l-.262 3.801h.527c.141-2.438.598-3.324 3.203-3.324h2.77l-6.832 9.394c0 .43.047.43.57.43h7.793l.383-4.399h-.527c-.215 2.727-.621 3.871-3.465 3.871h-2.891zm10.402 0c.215-.266.215-.313.215-.406 0-.266-.168-.266-.574-.266h-7.504l-.262 3.801h.524c.144-2.438.597-3.324 3.203-3.324h2.773l-6.836 9.394c0 .43.047.43.575.43h7.789l.382-4.399h-.523c-.219 2.727-.625 3.871-3.469 3.871h-2.89zm10.516 3.25c0-1.293 0-2.25-1.051-3.18-.836-.765-1.91-1.101-2.961-1.101-1.961 0-3.465 1.293-3.465 2.843 0 .696.453 1.032 1.004 1.032.574 0 .981-.407.981-.985 0-.976-.864-.976-1.219-.976.547-1.004 1.695-1.434 2.648-1.434 1.102 0 2.512.906 2.512 3.059v.953c-4.805.074-6.617 2.082-6.617 3.922 0 1.886 2.195 2.484 3.652 2.484 1.578 0 2.657-.957 3.11-2.102.093 1.122.836 1.981 1.863 1.981.5 0 1.887-.336 1.887-2.246v-1.34h-.524v1.34c0 1.363-.574 1.555-.91 1.555-.91 0-.91-1.27-.91-1.625zm-1.551 3.008c0 2.343-1.742 3.132-2.773 3.132-1.168 0-2.149-.863-2.149-2.007 0-3.157 4.063-3.442 4.922-3.493zm31.426-5.782c0-.644-.551-1.148-1.149-1.148-.691 0-1.168.551-1.168 1.148a1.17 1.17 0 0 0 1.149 1.172c.644 0 1.168-.504 1.168-1.172m0 7.981c0-.645-.551-1.149-1.149-1.149-.691 0-1.168.551-1.168 1.149a1.17 1.17 0 0 0 1.149 1.172c.644 0 1.168-.504 1.168-1.172"/></g></svg>