<svg xmlns="http://www.w3.org/2000/svg" width="644pt" height="444" viewBox="0 -333 644 333"><g id="page1"><path fill="#ffb2ff" d="M10.004-145.203h5.953c1.633 0 3.2.648 4.355 1.805l4.895 4.894a2.554 2.554 0 0 0 3.61 0l4.894-4.894a6.16 6.16 0 0 1 4.355-1.805H320.38a2.555 2.555 0 0 0 2.551-2.551v-142.914a2.555 2.555 0 0 0-2.551-2.551H38.066a6.16 6.16 0 0 0-4.355 1.805l-4.895 4.894a2.55 2.55 0 0 1-3.609 0l-4.895-4.894a6.16 6.16 0 0 0-4.355-1.805H4.051a2.55 2.55 0 0 0-2.551 2.551v142.914a2.55 2.55 0 0 0 2.55 2.551z"/><path fill="none" stroke="#b200b2" stroke-linecap="round" stroke-linejoin="round" stroke-width="3" d="M10.004-145.203h5.953c1.633 0 3.2.648 4.355 1.805l4.895 4.894a2.554 2.554 0 0 0 3.61 0l4.894-4.894a6.16 6.16 0 0 1 4.355-1.805H320.38a2.555 2.555 0 0 0 2.551-2.551v-142.914a2.555 2.555 0 0 0-2.551-2.551H38.066a6.16 6.16 0 0 0-4.355 1.805l-4.895 4.894a2.55 2.55 0 0 1-3.609 0l-4.895-4.894a6.16 6.16 0 0 0-4.355-1.805H4.051a2.55 2.55 0 0 0-2.551 2.551v142.914a2.55 2.55 0 0 0 2.55 2.551z"/><path fill="#fff" d="M327.18-214.961H63.578c-1.633 0-3.2.648-4.355 1.805l-4.895 4.894c-.996 1-2.613 1-3.61 0l-4.894-4.894a6.16 6.16 0 0 0-4.355-1.805H29.562a2.553 2.553 0 0 0-2.55 2.555v47.644a2.55 2.55 0 0 0 2.55 2.551H41.47c1.633 0 3.199.648 4.355 1.805l4.895 4.894a2.553 2.553 0 0 0 3.61 0l4.894-4.894a6.16 6.16 0 0 1 4.355-1.805H327.18z"/><path fill="none" stroke="#b2b2b2" stroke-linecap="round" stroke-linejoin="round" stroke-width="3" d="M327.18-214.961H63.578c-1.633 0-3.2.648-4.355 1.805l-4.895 4.894c-.996 1-2.613 1-3.61 0l-4.894-4.894a6.16 6.16 0 0 0-4.355-1.805H29.562a2.553 2.553 0 0 0-2.55 2.555v47.644a2.55 2.55 0 0 0 2.55 2.551H41.47c1.633 0 3.199.648 4.355 1.805l4.895 4.894a2.553 2.553 0 0 0 3.61 0l4.894-4.894a6.16 6.16 0 0 1 4.355-1.805H327.18"/><path fill="#b2ffb2" d="m165.547-238.148 9.504 8.839c3 2.793 6.945 4.344 11.047 4.344h79.699c4.101 0 8.047-1.551 11.047-4.344l19.008-17.683c2.523-2.348 2.523-6.344 0-8.688l-19.008-17.687a16.23 16.23 0 0 0-11.047-4.344h-79.699a16.2 16.2 0 0 0-11.047 4.344l-19.012 17.687c-2.519 2.344-2.519 6.34 0 8.688z"/><path fill="none" stroke="#00b200" stroke-linecap="round" stroke-linejoin="round" stroke-width="3" d="m165.547-238.148 9.504 8.839c3 2.793 6.945 4.344 11.047 4.344h79.699c4.101 0 8.047-1.551 11.047-4.344l19.008-17.683c2.523-2.348 2.523-6.344 0-8.688l-19.008-17.687a16.23 16.23 0 0 0-11.047-4.344h-79.699a16.2 16.2 0 0 0-11.047 4.344l-19.012 17.687c-2.519 2.344-2.519 6.34 0 8.688z"/><path fill="#ffffb2" d="M368.281-110.27h5.953c1.637 0 3.204.653 4.356 1.805l4.898 4.899a2.55 2.55 0 0 0 3.606 0l4.898-4.899a6.17 6.17 0 0 1 4.356-1.805h234.101c1.41 0 2.551-1.14 2.551-2.55v-142.91a2.55 2.55 0 0 0-2.551-2.551H396.348a6.15 6.15 0 0 0-4.356 1.804l-4.898 4.895a2.55 2.55 0 0 1-3.606 0l-4.898-4.895a6.15 6.15 0 0 0-4.356-1.804h-11.906a2.55 2.55 0 0 0-2.551 2.551v142.91c0 1.41 1.145 2.55 2.551 2.55z"/><path fill="none" stroke="#b2b200" stroke-linecap="round" stroke-linejoin="round" stroke-width="3" d="M368.281-110.27h5.953c1.637 0 3.204.653 4.356 1.805l4.898 4.899a2.55 2.55 0 0 0 3.606 0l4.898-4.899a6.17 6.17 0 0 1 4.356-1.805h234.101c1.41 0 2.551-1.14 2.551-2.55v-142.91a2.55 2.55 0 0 0-2.551-2.551H396.348a6.15 6.15 0 0 0-4.356 1.804l-4.898 4.895a2.55 2.55 0 0 1-3.606 0l-4.898-4.895a6.15 6.15 0 0 0-4.356-1.804h-11.906a2.55 2.55 0 0 0-2.551 2.551v142.91c0 1.41 1.145 2.55 2.551 2.55z"/><path fill="#ffd9b2" d="M393.797-127.277h5.949c1.637 0 3.203.648 4.356 1.804l4.898 4.899a2.55 2.55 0 0 0 3.605 0l4.899-4.899a6.15 6.15 0 0 1 4.355-1.804h217.094a2.55 2.55 0 0 0 2.551-2.551v-47.645c0-1.41-1.141-2.55-2.551-2.55H421.859a6.15 6.15 0 0 0-4.355 1.804l-4.899 4.895a2.55 2.55 0 0 1-3.605 0l-4.898-4.895a6.15 6.15 0 0 0-4.356-1.804h-11.902a2.55 2.55 0 0 0-2.555 2.55v47.645a2.553 2.553 0 0 0 2.555 2.551z"/><path fill="none" stroke="#b25900" stroke-linecap="round" stroke-linejoin="round" stroke-width="3" d="M393.797-127.277h5.949c1.637 0 3.203.648 4.356 1.804l4.898 4.899a2.55 2.55 0 0 0 3.605 0l4.899-4.899a6.15 6.15 0 0 1 4.355-1.804h217.094a2.55 2.55 0 0 0 2.551-2.551v-47.645c0-1.41-1.141-2.55-2.551-2.55H421.859a6.15 6.15 0 0 0-4.355 1.804l-4.899 4.895a2.55 2.55 0 0 1-3.605 0l-4.898-4.895a6.15 6.15 0 0 0-4.356-1.804h-11.902a2.55 2.55 0 0 0-2.555 2.55v47.645a2.553 2.553 0 0 0 2.555 2.551z"/><path fill="#b2ffb2" d="m409.496-203.215 9.504 8.844c3 2.793 6.949 4.344 11.047 4.344h94.008c4.101 0 8.047-1.551 11.047-4.344l19.007-17.684a5.934 5.934 0 0 0 0-8.691l-19.007-17.684a16.2 16.2 0 0 0-11.047-4.343h-94.008c-4.098 0-8.047 1.55-11.047 4.343l-19.008 17.684a5.936 5.936 0 0 0 0 8.691z"/><path fill="none" stroke="#00b200" stroke-linecap="round" stroke-linejoin="round" stroke-width="3" d="m409.496-203.215 9.504 8.844c3 2.793 6.949 4.344 11.047 4.344h94.008c4.101 0 8.047-1.551 11.047-4.344l19.007-17.684a5.934 5.934 0 0 0 0-8.691l-19.007-17.684a16.2 16.2 0 0 0-11.047-4.343h-94.008c-4.098 0-8.047 1.55-11.047 4.343l-19.008 17.684a5.936 5.936 0 0 0 0 8.691z"/><path fill="#b2ffff" d="M359.777-261.227h14.457a6.16 6.16 0 0 1 4.356 1.801l4.898 4.899a2.55 2.55 0 0 0 3.606 0l4.898-4.899a6.17 6.17 0 0 1 4.356-1.801H633v-52.75a557.2 557.2 0 0 0-136.609-17.007 557.3 557.3 0 0 0-136.614 17.007z"/><path fill="none" stroke="#00b2b2" stroke-linecap="round" stroke-linejoin="round" stroke-width="3" d="M359.777-261.227h14.457a6.16 6.16 0 0 1 4.356 1.801l4.898 4.899a2.55 2.55 0 0 0 3.606 0l4.898-4.899a6.17 6.17 0 0 1 4.356-1.801H633v-52.75a557.2 557.2 0 0 0-136.609-17.007 557.3 557.3 0 0 0-136.614 17.007z"/><path d="M14.441-48.488c.5 0 .957 0 .957-.883 0-2.797-1.578-5.043-4.566-5.043-2.77 0-4.996 2.39-4.996 5.305a5.33 5.33 0 0 0 5.355 5.351c3.082 0 4.207-2.125 4.207-2.746 0-.144-.05-.668-.789-.668-.453 0-.597.164-.742.524-.598 1.386-2.148 1.507-2.605 1.507-1.98 0-3.559-1.507-3.825-3.347zm-6.98-1.317c.312-2.03 1.867-3.222 3.371-3.222 2.39 0 2.89 2.03 2.988 3.222zm19.329-1.097c0-2.34-1.102-3.442-3.06-3.442-1.625 0-2.675.91-3.082 1.364 0-.887 0-1.22-.957-1.22h-1.578c-.332 0-.957 0-.957.692 0 .696.625.696.957.696h.98v7.527h-.98c-.332 0-.957 0-.957.691 0 .696.625.696.957.696h3.512c.336 0 .957 0 .957-.696 0-.691-.621-.691-.957-.691h-.977v-4.324c0-2.32 1.625-3.348 2.915-3.348 1.386 0 1.671.789 1.671 2.152v5.52h-.976c-.336 0-.957 0-.957.691 0 .696.62.696.957.696h3.512c.332 0 .957 0 .957-.696 0-.691-.625-.691-.957-.691h-.98zm12.3-6.621c0-.739-.145-.977-.957-.977h-1.578c-.332 0-.953 0-.953.691s.62.692.953.692h.98v3.969c-.383-.383-1.363-1.196-2.82-1.196-2.531 0-4.73 2.297-4.73 5.305 0 2.941 2.054 5.281 4.515 5.281 1.555 0 2.582-.93 3.035-1.457 0 1.004 0 1.317.957 1.317h1.578c.332 0 .953 0 .953-.696 0-.691-.62-.691-.953-.691h-.98zm-1.555 9.082c0 1.34-1.097 3.3-2.89 3.3-1.723 0-3.106-1.746-3.106-3.898 0-2.293 1.625-3.918 3.32-3.918 1.555 0 2.676 1.41 2.676 2.652zm26.918-4.371c.574 0 1.172 0 1.172-.696 0-.691-.644-.691-.98-.691h-2.676c-.336 0-.98 0-.98.691 0 .696.644.696.98.696h1.12l-1.19 7.289h-.024c-.098-.625-.48-1.961-.719-2.727-.43-1.555-.5-1.84-1.289-1.84-.765 0-.863.285-1.293 1.817-.476 1.625-.644 2.32-.715 2.75h-.023l-1.242-7.29h1.12c.333 0 .981 0 .981-.695 0-.691-.648-.691-.98-.691h-2.676c-.336 0-.98 0-.98.691 0 .696.597.696 1.172.696l1.433 8.124c.14.836.523.907 1.074.907.934 0 .98-.192 1.457-1.84.215-.836.598-2.152.672-2.797h.024c.023.313.14.98.644 2.82.477 1.602.528 1.817 1.434 1.817.406 0 .883 0 1.05-.883zm11.535 1.91c0-2.34-1.097-3.442-3.058-3.442-1.625 0-2.676.91-3.082 1.364v-4.543c0-.739-.145-.977-.957-.977h-1.579c-.331 0-.953 0-.953.691s.622.692.954.692h.98v11.832h-.98c-.332 0-.954 0-.954.691 0 .696.622.696.954.696h3.515c.332 0 .953 0 .953-.696 0-.691-.62-.691-.953-.691h-.98v-4.324c0-2.32 1.625-3.348 2.914-3.348 1.386 0 1.675.789 1.675 2.152v5.52h-.98c-.336 0-.957 0-.957.691 0 .696.621.696.957.696h3.512c.336 0 .957 0 .957-.696 0-.691-.621-.691-.957-.691h-.98zm9.528-6.548c0-.597-.477-1.073-1.075-1.073-.597 0-1.074.476-1.074 1.074 0 .597.477 1.074 1.074 1.074s1.075-.477 1.075-1.074m-4.11 3.25c-.336 0-.957 0-.957.692 0 .696.621.696.957.696h2.559v7.527h-2.727c-.332 0-.98 0-.98.691 0 .696.648.696.98.696h6.645c.336 0 .957 0 .957-.696 0-.691-.621-.691-.957-.691h-2.367v-7.934c0-.742-.141-.98-.954-.98zm16.125-3.324c0-.739-.144-.977-.957-.977h-3.511c-.336 0-.957 0-.957.691s.62.692.957.692h2.914v11.832h-2.915c-.335 0-.956 0-.956.691 0 .696.62.696.957.696h7.382c.336 0 .957 0 .957-.696 0-.691-.621-.691-.957-.691h-2.914zm15.309 9.035c.504 0 .957 0 .957-.883 0-2.797-1.578-5.043-4.563-5.043-2.773 0-4.996 2.39-4.996 5.305a5.327 5.327 0 0 0 5.352 5.351c3.082 0 4.207-2.125 4.207-2.746 0-.144-.051-.668-.789-.668-.453 0-.598.164-.742.524-.594 1.386-2.149 1.507-2.602 1.507-1.984 0-3.562-1.507-3.824-3.347zm-6.977-1.317c.309-2.03 1.864-3.222 3.371-3.222 2.387 0 2.887 2.03 2.985 3.222zM60.344-76.621c0-1.625.836-2.82 2.699-3.895 1.05-.62 1.48-1.457 1.48-2.316 0-.863-.546-3.012-4.921-3.012-3.13 0-4.446 1.528-4.446 2.961 0 .836.696 1.031.98 1.031.36 0 .958-.289.958-.98 0-.383-.121-.504-.215-.621.332-.48 1.121-1.004 2.723-1.004 2.507 0 3.37.836 3.37 1.625 0 .668-.597 1.027-.812 1.144-3.465 2.032-3.535 4.016-3.535 5.235 0 .86 0 1.195.86 1.195s.859-.406.859-.933zm.215 4.445c0-.597-.48-1.074-1.075-1.074-.597 0-1.078.477-1.078 1.074s.48 1.074 1.078 1.074c.594 0 1.075-.476 1.075-1.074m12.086-4.445c0-1.625.836-2.82 2.699-3.895 1.05-.62 1.48-1.457 1.48-2.316 0-.863-.55-3.012-4.922-3.012-3.129 0-4.445 1.528-4.445 2.961 0 .836.691 1.031.98 1.031.36 0 .957-.289.957-.98 0-.383-.12-.504-.214-.621.332-.48 1.12-1.004 2.722-1.004 2.508 0 3.371.836 3.371 1.625 0 .668-.597 1.027-.812 1.144-3.469 2.032-3.54 4.016-3.54 5.235 0 .86 0 1.195.86 1.195.863 0 .863-.406.863-.933zm.214 4.445c0-.597-.48-1.074-1.078-1.074-.594 0-1.074.477-1.074 1.074s.48 1.074 1.074 1.074c.598 0 1.078-.476 1.078-1.074m12.086-4.445c0-1.625.836-2.82 2.7-3.895 1.05-.62 1.48-1.457 1.48-2.316 0-.863-.55-3.012-4.922-3.012-3.133 0-4.445 1.528-4.445 2.961 0 .836.691 1.031.98 1.031.356 0 .957-.289.957-.98 0-.383-.12-.504-.218-.621.335-.48 1.125-1.004 2.726-1.004 2.508 0 3.367.836 3.367 1.625 0 .668-.593 1.027-.812 1.144-3.465 2.032-3.535 4.016-3.535 5.235 0 .86 0 1.195.859 1.195.863 0 .863-.406.863-.933zm.211 4.445c0-.597-.476-1.074-1.074-1.074s-1.074.477-1.074 1.074.476 1.074 1.074 1.074 1.074-.476 1.074-1.074m-69.902-35.137c.574 0 1.172 0 1.172-.695 0-.691-.645-.691-.98-.691H12.77c-.336 0-.98 0-.98.691 0 .695.644.695.98.695h1.12l-1.195 7.29h-.023c-.094-.625-.477-1.961-.715-2.723-.434-1.559-.504-1.844-1.293-1.844-.766 0-.86.285-1.289 1.817-.477 1.625-.645 2.32-.719 2.75h-.023l-1.242-7.29h1.125c.332 0 .976 0 .976-.695 0-.691-.644-.691-.976-.691h-2.68c-.332 0-.977 0-.977.691 0 .695.598.695 1.172.695l1.43 8.126c.144.835.527.906 1.078.906.93 0 .98-.192 1.457-1.84.215-.836.598-2.152.668-2.797h.024c.023.313.144.98.648 2.82.476 1.602.523 1.817 1.434 1.817.406 0 .882 0 1.05-.883zm11.536 1.911c0-2.34-1.102-3.442-3.06-3.442-1.625 0-2.675.91-3.082 1.364v-4.543c0-.739-.144-.981-.957-.981h-1.578c-.332 0-.957 0-.957.695 0 .692.625.692.957.692h.98v11.832h-.98c-.332 0-.957 0-.957.691 0 .696.625.696.957.696h3.512c.336 0 .957 0 .957-.696 0-.691-.621-.691-.957-.691h-.977v-4.324c0-2.321 1.625-3.348 2.915-3.348 1.386 0 1.671.789 1.671 2.152v5.52h-.976c-.336 0-.957 0-.957.691 0 .696.62.696.957.696h3.512c.332 0 .957 0 .957-.696 0-.691-.625-.691-.957-.691h-.98zm9.526-6.547c0-.598-.476-1.074-1.074-1.074a1.076 1.076 0 1 0 1.074 1.074m-4.109 3.25c-.336 0-.957 0-.957.691 0 .695.621.695.957.695h2.559v7.528h-2.727c-.336 0-.98 0-.98.691 0 .696.644.696.98.696h6.645c.332 0 .957 0 .957-.696 0-.691-.625-.691-.957-.691h-2.368v-7.934c0-.742-.144-.98-.957-.98zm16.121-3.324c0-.739-.14-.981-.953-.981h-3.516c-.332 0-.953 0-.953.695 0 .692.621.692.953.692h2.918v11.832H43.86c-.332 0-.953 0-.953.691 0 .696.621.696.953.696h7.387c.332 0 .957 0 .957-.696 0-.691-.625-.691-.957-.691h-2.918zm15.312 9.035c.5 0 .958 0 .958-.883 0-2.797-1.578-5.043-4.567-5.043-2.77 0-4.992 2.391-4.992 5.305a5.327 5.327 0 0 0 5.352 5.351c3.082 0 4.207-2.125 4.207-2.746 0-.144-.051-.668-.79-.668-.453 0-.597.164-.742.524-.597 1.386-2.148 1.507-2.605 1.507-1.98 0-3.559-1.507-3.82-3.347zm-6.976-1.317c.309-2.031 1.863-3.222 3.367-3.222 2.39 0 2.89 2.031 2.989 3.222zm28.566-7.718c0-.739-.144-.981-.957-.981h-3.511c-.336 0-.957 0-.957.695 0 .692.62.692.957.692h2.914v11.832h-2.914c-.336 0-.957 0-.957.691 0 .696.62.696.957.696h7.382c.337 0 .958 0 .958-.696 0-.691-.621-.691-.958-.691h-2.913zm15.36 4.304c0-.742-.145-.98-.957-.98h-1.578c-.332 0-.953 0-.953.691 0 .695.62.695.953.695h.98v5.184c0 1.961-1.625 2.488-2.7 2.488-1.89 0-1.89-.863-1.89-1.601v-6.477c0-.742-.14-.98-.953-.98h-1.578c-.336 0-.957 0-.957.691 0 .695.621.695.957.695h.98v6.188c0 2.2 1.434 2.867 3.274 2.867 1.457 0 2.367-.598 2.844-1.004 0 .864.574.864.98.864h1.578c.332 0 .953 0 .953-.696 0-.691-.621-.691-.953-.691h-.98zm13.207 6.715c0-.625-.598-.625-.789-.625-.547 0-.645.195-.766.527-.523 1.317-1.695 1.461-2.269 1.461-2.032 0-3.75-1.699-3.75-3.922 0-1.218.691-3.964 3.824-3.964.644 0 1.144.047 1.359.07.168.047.192.07.192.191.074.981.812 1.004.957 1.004.523 0 .98-.359.98-1.004 0-1.648-2.414-1.648-3.465-1.648-4.086 0-5.402 3.344-5.402 5.351 0 2.915 2.223 5.305 5.09 5.305 3.203 0 4.039-2.363 4.039-2.746m11.344-1.984c.5 0 .957 0 .957-.883 0-2.797-1.578-5.043-4.567-5.043-2.769 0-4.992 2.391-4.992 5.305a5.33 5.33 0 0 0 5.352 5.351c3.082 0 4.207-2.125 4.207-2.746 0-.144-.051-.668-.789-.668-.454 0-.598.164-.743.524-.597 1.386-2.148 1.507-2.601 1.507-1.985 0-3.563-1.507-3.824-3.347zm-6.977-1.317c.309-2.031 1.863-3.222 3.367-3.222 2.391 0 2.891 2.031 2.989 3.222z"/><path fill="none" stroke="#000" stroke-width=".796" d="M129.012-98.77h7.379"/><path d="M146.293-105.188c0-1.816-1.363-3.726-4.59-3.726-1 0-3.32 0-3.32 1.648 0 .645.457 1.004.98 1.004.145 0 .934-.047.957-1.051 0-.121.024-.144.524-.191.289-.023.597-.023.886-.023.547 0 1.36 0 2.149.597.863.668.863 1.336.863 2.032-1.414.046-2.797.14-4.277.621-1.199.406-2.727 1.265-2.727 2.89 0 1.696 1.504 3.13 3.727 3.13.765 0 2.25-.118 3.488-.977.481.785 1.676.836 2.582.836.574 0 1.149 0 1.149-.696 0-.691-.621-.691-.957-.691-.622 0-1.098-.05-1.434-.192zm-1.551 3.633c0 .551 0 1.051-.98 1.508-.84.406-1.961.406-2.032.406-1.41 0-2.437-.765-2.437-1.746 0-1.41 2.555-2.222 5.449-2.222zm14.856.551c0-.625-.598-.625-.789-.625-.551 0-.645.195-.766.527-.527 1.317-1.695 1.461-2.27 1.461-2.031 0-3.75-1.699-3.75-3.922 0-1.218.692-3.964 3.821-3.964.648 0 1.148.047 1.363.07.168.047.191.07.191.191.071.981.813 1.004.957 1.004.524 0 .981-.359.981-1.004 0-1.648-2.414-1.648-3.469-1.648-4.086 0-5.398 3.344-5.398 5.351 0 2.915 2.222 5.305 5.09 5.305 3.203 0 4.039-2.363 4.039-2.746m12.3 0c0-.625-.597-.625-.789-.625-.55 0-.644.195-.765.527-.528 1.317-1.696 1.461-2.27 1.461-2.031 0-3.754-1.699-3.754-3.922 0-1.218.696-3.964 3.825-3.964.644 0 1.148.047 1.363.07.168.047.191.07.191.191.071.981.813 1.004.957 1.004.524 0 .977-.359.977-1.004 0-1.648-2.414-1.648-3.465-1.648-4.086 0-5.398 3.344-5.398 5.351 0 2.915 2.222 5.305 5.089 5.305 3.204 0 4.039-2.363 4.039-2.746m11.344-1.984c.5 0 .953 0 .953-.883 0-2.797-1.574-5.043-4.562-5.043-2.774 0-4.996 2.391-4.996 5.305a5.33 5.33 0 0 0 5.355 5.351c3.082 0 4.203-2.125 4.203-2.746 0-.144-.047-.668-.789-.668-.453 0-.593.164-.738.524-.598 1.386-2.152 1.507-2.605 1.507-1.985 0-3.559-1.507-3.825-3.347zm-6.98-1.317c.312-2.031 1.867-3.222 3.371-3.222 2.39 0 2.89 2.031 2.988 3.222zm19.375-3.703c0-.383 0-.906-.668-.906-.574 0-.719.547-.719.574-.953-.574-2.055-.574-2.531-.574-3.899 0-4.422 1.984-4.422 2.797 0 .976.574 1.648 1.387 2.101.761.43 1.457.551 3.418.86.929.168 2.843.476 2.843 1.793 0 .883-.812 1.722-3.035 1.722-1.531 0-2.535-.601-3.039-2.32-.117-.336-.187-.598-.785-.598-.789 0-.789.454-.789.93v2.465c0 .383 0 .906.668.906.289 0 .504 0 .863-.976 1.098.906 2.34.976 3.082.976 4.418 0 4.418-2.867 4.418-3.105 0-2.485-2.961-2.989-4.109-3.153-2.102-.363-3.535-.601-3.535-1.601 0-.649.738-1.41 2.988-1.41 2.269 0 2.363 1.074 2.41 1.695.051.477.481.551.766.551.789 0 .789-.434.789-.91zm12.156 2.82c0-1.816-1.363-3.726-4.59-3.726-1 0-3.32 0-3.32 1.648 0 .645.457 1.004.98 1.004.145 0 .934-.047.957-1.051 0-.121.024-.144.524-.191.289-.023.597-.023.886-.023.547 0 1.36 0 2.149.597.863.668.863 1.336.863 2.032-1.414.046-2.797.14-4.277.621-1.199.406-2.727 1.265-2.727 2.89 0 1.696 1.504 3.13 3.727 3.13.765 0 2.25-.118 3.488-.977.481.785 1.676.836 2.582.836.574 0 1.149 0 1.149-.696 0-.691-.621-.691-.957-.691-.622 0-1.098-.05-1.434-.192zm-1.551 3.633c0 .551 0 1.051-.98 1.508-.84.406-1.961.406-2.032.406-1.41 0-2.437-.765-2.437-1.746 0-1.41 2.555-2.222 5.449-2.222zm14.188 4.515c0-.308-.168-.405-.504-.644-3.297-2.27-4.11-5.687-4.11-8.004 0-2.273.762-5.71 4.11-8.031.336-.238.504-.332.504-.644 0-.239-.121-.621-.696-.621-.597 0-2.367 1.386-3.464 2.937-1.34 1.867-2.008 4.086-2.008 6.359 0 2.653.957 4.875 1.961 6.286 1.097 1.527 2.843 2.984 3.511 2.984.575 0 .696-.406.696-.621m10.289-8.649c0-1.867-.453-4.277-2.172-6.597-.813-1.098-2.582-2.699-3.301-2.699-.547 0-.691.406-.691.621 0 .285.168.406.597.691 2.914 2.055 4.016 5.258 4.016 7.957 0 2.152-.695 5.668-4.113 8.031-.309.215-.5.336-.5.645 0 .215.144.621.691.621.598 0 2.367-1.387 3.469-2.937a11 11 0 0 0 2.004-6.333m21.543-1.625h3.871c.336 0 .957 0 .957-.695 0-.691-.621-.691-.957-.691h-3.871v-1.961c0-.43 0-.981-.766-.981-.789 0-.789.551-.789.981v1.961h-2.031c-.332 0-.981 0-.981.691 0 .695.625.695.957.695h2.055v6.02c0 2.223 1.531 3.035 3.25 3.035 1.289 0 3.656-.644 3.656-3.082 0-.476 0-1.004-.785-1.004-.765 0-.765.528-.765 1.028-.024 1.433-1.387 1.675-1.938 1.675-1.863 0-1.863-1.199-1.863-1.769zm17.129 1.911c0-2.34-1.102-3.442-3.063-3.442-1.625 0-2.676.91-3.082 1.364v-4.543c0-.739-.141-.981-.953-.981h-1.578c-.336 0-.957 0-.957.695 0 .692.621.692.957.692h.98v11.832h-.98c-.336 0-.957 0-.957.691 0 .696.621.696.957.696h3.512c.336 0 .957 0 .957-.696 0-.691-.621-.691-.957-.691h-.981v-4.324c0-2.321 1.625-3.348 2.918-3.348 1.383 0 1.672.789 1.672 2.152v5.52h-.981c-.332 0-.957 0-.957.691 0 .696.625.696.957.696h3.512c.336 0 .957 0 .957-.696 0-.691-.621-.691-.957-.691h-.976zm12.25 2.414c.5 0 .957 0 .957-.883 0-2.797-1.578-5.043-4.567-5.043-2.769 0-4.992 2.391-4.992 5.305a5.33 5.33 0 0 0 5.352 5.351c3.082 0 4.207-2.125 4.207-2.746 0-.144-.051-.668-.789-.668-.454 0-.598.164-.743.524-.597 1.386-2.148 1.507-2.601 1.507-1.985 0-3.563-1.507-3.824-3.347zm-6.977-1.317c.309-2.031 1.863-3.222 3.367-3.222 2.391 0 2.891 2.031 2.989 3.222zm19.324-1.097c0-2.34-1.097-3.442-3.058-3.442-1.625 0-2.676.91-3.082 1.364 0-.887 0-1.219-.957-1.219h-1.578c-.333 0-.954 0-.954.691 0 .695.621.695.954.695h.98v7.528h-.98c-.333 0-.954 0-.954.691 0 .696.621.696.954.696h3.515c.332 0 .953 0 .953-.696 0-.691-.621-.691-.953-.691h-.98v-4.324c0-2.321 1.625-3.348 2.914-3.348 1.386 0 1.676.789 1.676 2.152v5.52h-.981c-.336 0-.957 0-.957.691 0 .696.621.696.957.696h3.512c.336 0 .957 0 .957-.696 0-.691-.621-.691-.957-.691h-.981zM43.95-188.383c0-1.41.573-3.512 2.987-5.305.669-.503 1.29-1.242 1.29-2.484 0-1.461-1.004-3.25-4.446-3.25-2.582 0-3.992 1.672-3.992 3.199 0 .864.648 1.051 1.004 1.051.406 0 .98-.285.98-1 0-.551-.406-.98-1.004-.98-.144 0-.19 0-.238.023.524-1.242 1.91-1.816 3.18-1.816 2.7 0 2.7 1.742 2.7 2.652 0 1.41-.43 1.863-.837 2.297-1.625 1.742-2.152 3.965-2.152 5.422v1.148c0 .43 0 .524.266.524.261 0 .261-.168.261-.594zm.882 4.613c0-.621-.527-1.148-1.145-1.148-.718 0-1.171.574-1.171 1.148 0 .715.57 1.168 1.144 1.168.672 0 1.172-.523 1.172-1.168m10.215-4.613c0-1.41.574-3.512 2.988-5.305.668-.503 1.293-1.242 1.293-2.484 0-1.461-1.008-3.25-4.445-3.25-2.582 0-3.992 1.672-3.992 3.199 0 .864.644 1.051 1.004 1.051.406 0 .98-.285.98-1 0-.551-.406-.98-1.004-.98-.144 0-.191 0-.238.023.523-1.242 1.91-1.816 3.176-1.816 2.699 0 2.699 1.742 2.699 2.652 0 1.41-.43 1.863-.836 2.297-1.625 1.742-2.149 3.965-2.149 5.422v1.148c0 .43 0 .524.262.524s.262-.168.262-.594zm.887 4.613c0-.621-.528-1.148-1.149-1.148-.715 0-1.172.574-1.172 1.148 0 .715.575 1.168 1.149 1.168.668 0 1.172-.523 1.172-1.168m10.113-4.613c0-1.41.574-3.512 2.988-5.305.668-.503 1.293-1.242 1.293-2.484 0-1.461-1.008-3.25-4.445-3.25-2.582 0-3.992 1.672-3.992 3.199 0 .864.644 1.051 1.004 1.051.406 0 .98-.285.98-1 0-.551-.406-.98-1.004-.98-.144 0-.191 0-.238.023.523-1.242 1.91-1.816 3.176-1.816 2.699 0 2.699 1.742 2.699 2.652 0 1.41-.43 1.863-.836 2.297-1.625 1.742-2.149 3.965-2.149 5.422v1.148c0 .43 0 .524.262.524s.262-.168.262-.594zm.887 4.613c0-.621-.528-1.148-1.149-1.148-.715 0-1.172.574-1.172 1.148 0 .715.575 1.168 1.149 1.168.668 0 1.172-.523 1.172-1.168m-49.942-67.199c0-2.316.953-4.492 2.793-4.492.192 0 .238 0 .336.023-.191.098-.574.243-.574.883 0 .696.55.957.933.957.477 0 .957-.308.957-.957 0-.715-.648-1.383-1.675-1.383-2.032 0-2.723 2.196-2.867 2.653h-.024v-2.653l-3.203.262v.692c1.625 0 1.816.168 1.816 1.339v6.477c0 1.074-.261 1.074-1.816 1.074v.696c.668-.051 1.984-.051 2.7-.051.648 0 2.343 0 2.894.051v-.696h-.48c-1.743 0-1.79-.261-1.79-1.121zm9.266-9.152c0-.621-.5-1.168-1.172-1.168-.621 0-1.145.5-1.145 1.144 0 .715.575 1.172 1.145 1.172.742 0 1.172-.621 1.172-1.148m-3.297 4.445v.692c1.527 0 1.742.144 1.742 1.316v6.5c0 1.074-.262 1.074-1.812 1.074v.696c.668-.051 1.812-.051 2.507-.051.262 0 1.649 0 2.461.051v-.696c-1.554 0-1.648-.121-1.648-1.051v-8.793zm11.492 14.219c-1.527 0-1.812 0-1.812-1.074v-4.16c.43.597 1.406 1.531 2.937 1.531 2.75 0 5.16-2.32 5.16-5.403 0-3.035-2.246-5.375-4.847-5.375-2.106 0-3.227 1.504-3.301 1.598v-1.598l-3.32.262v.692c1.671 0 1.816.168 1.816 1.218v11.235c0 1.074-.266 1.074-1.816 1.074v.691c.62-.047 1.91-.047 2.582-.047.691 0 1.98 0 2.601.047zm-1.812-11.566c0-.454 0-.481.261-.86a3.44 3.44 0 0 1 2.793-1.531c1.793 0 3.227 2.176 3.227 4.851 0 2.844-1.625 4.922-3.465 4.922a2.82 2.82 0 0 1-1.91-.761c-.55-.551-.906-1.028-.906-1.7zm18.812 2.078c.524 0 .574 0 .574-.453 0-2.415-1.293-4.661-4.183-4.661-2.723 0-4.828 2.461-4.828 5.426 0 3.153 2.437 5.473 5.09 5.473 2.843 0 3.921-2.582 3.921-3.082 0-.145-.12-.242-.265-.242-.192 0-.239.121-.285.242-.621 2.008-2.223 2.554-3.227 2.554s-3.418-.667-3.418-4.804v-.453zm-6.598-.453c.192-3.75 2.297-4.18 2.965-4.18 2.555 0 2.7 3.367 2.723 4.18zm11.86-3.61h3.37v-.691h-3.37v-4.399h-.528c-.023 2.246-.882 4.543-3.058 4.614v.476h2.031v6.645c0 2.652 1.77 3.203 3.035 3.203 1.508 0 2.297-1.481 2.297-3.203v-1.364h-.527v1.317c0 1.719-.692 2.722-1.625 2.722-1.625 0-1.625-2.222-1.625-2.628zm9.242-5.113c0-.621-.5-1.168-1.168-1.168-.625 0-1.148.5-1.148 1.144 0 .715.574 1.172 1.148 1.172.738 0 1.168-.621 1.168-1.148m-3.297 4.445v.692c1.528 0 1.746.144 1.746 1.316v6.5c0 1.074-.265 1.074-1.816 1.074v.696c.668-.051 1.816-.051 2.508-.051.261 0 1.648 0 2.46.051v-.696c-1.55 0-1.648-.121-1.648-1.051v-8.793zm30.574 4.469c0-2.223 0-2.891-.55-3.656-.692-.934-1.817-1.075-2.63-1.075-1.984 0-2.984 1.434-3.367 2.364-.335-1.84-1.624-2.364-3.132-2.364-2.317 0-3.227 1.985-3.414 2.461h-.028v-2.461l-3.25.262v.692c1.625 0 1.817.168 1.817 1.339v6.477c0 1.074-.262 1.074-1.817 1.074v.696c.621-.051 1.914-.051 2.582-.051.696 0 1.985 0 2.606.051v-.696c-1.532 0-1.817 0-1.817-1.074v-4.445c0-2.508 1.649-3.848 3.13-3.848 1.484 0 1.816 1.219 1.816 2.676v5.617c0 1.074-.262 1.074-1.817 1.074v.696c.621-.051 1.914-.051 2.582-.051.696 0 1.985 0 2.606.051v-.696c-1.532 0-1.817 0-1.817-1.074v-4.445c0-2.508 1.649-3.848 3.13-3.848s1.816 1.219 1.816 2.676v5.617c0 1.074-.262 1.074-1.817 1.074v.696c.621-.051 1.914-.051 2.582-.051.696 0 1.985 0 2.606.051v-.696c-1.195 0-1.793 0-1.817-.715zm11.52.262c.523 0 .574 0 .574-.453 0-2.415-1.293-4.661-4.183-4.661-2.723 0-4.829 2.461-4.829 5.426 0 3.153 2.438 5.473 5.09 5.473 2.844 0 3.922-2.582 3.922-3.082 0-.145-.121-.242-.265-.242-.192 0-.239.121-.286.242-.621 2.008-2.222 2.554-3.226 2.554s-3.418-.667-3.418-4.804v-.453zm-6.598-.453c.192-3.75 2.297-4.18 2.965-4.18 2.555 0 2.699 3.367 2.723 4.18zm18.477.191c0-2.223 0-2.891-.547-3.656-.695-.934-1.816-1.075-2.629-1.075-2.32 0-3.227 1.985-3.418 2.461h-.023v-2.461l-3.25.262v.692c1.625 0 1.816.168 1.816 1.339v6.477c0 1.074-.262 1.074-1.816 1.074v.696c.621-.051 1.91-.051 2.578-.051.695 0 1.984 0 2.605.051v-.696c-1.527 0-1.816 0-1.816-1.074v-4.445c0-2.508 1.648-3.848 3.133-3.848 1.48 0 1.816 1.219 1.816 2.676v5.617c0 1.074-.266 1.074-1.816 1.074v.696c.621-.051 1.91-.051 2.578-.051.695 0 1.984 0 2.605.051v-.696c-1.195 0-1.793 0-1.816-.715zm5.68-3.801h3.371v-.691h-3.371v-4.399h-.524c-.023 2.246-.883 4.543-3.059 4.614v.476h2.032v6.645c0 2.652 1.769 3.203 3.035 3.203 1.504 0 2.293-1.481 2.293-3.203v-1.364h-.527v1.317c0 1.719-.692 2.722-1.625 2.722-1.625 0-1.625-2.222-1.625-2.628zm9.179 4.039c0-2.316.953-4.492 2.793-4.492.192 0 .238 0 .336.023-.191.098-.574.243-.574.883 0 .696.551.957.933.957.477 0 .958-.308.958-.957 0-.715-.649-1.383-1.676-1.383-2.032 0-2.723 2.196-2.867 2.653h-.024v-2.653l-3.203.262v.692c1.625 0 1.816.168 1.816 1.339v6.477c0 1.074-.261 1.074-1.816 1.074v.696c.672-.051 1.984-.051 2.699-.051.649 0 2.344 0 2.895.051v-.696h-.481c-1.742 0-1.789-.261-1.789-1.121zm14.262.024c.523 0 .574 0 .574-.453 0-2.415-1.293-4.661-4.183-4.661-2.723 0-4.829 2.461-4.829 5.426 0 3.153 2.438 5.473 5.09 5.473 2.844 0 3.922-2.582 3.922-3.082 0-.145-.121-.242-.265-.242-.192 0-.239.121-.286.242-.621 2.008-2.222 2.554-3.226 2.554s-3.418-.667-3.418-4.804v-.453zm-6.598-.453c.192-3.75 2.297-4.18 2.965-4.18 2.555 0 2.699 3.367 2.723 4.18zm34.953-10.586-3.32.261v.696c1.625 0 1.816.168 1.816 1.336v12.523c0 1.074-.261 1.074-1.816 1.074v.696c.668-.051 1.84-.051 2.555-.051.719 0 1.914 0 2.582.051v-.696c-1.528 0-1.817 0-1.817-1.074zm9.657 6.308v.692c1.625 0 1.816.168 1.816 1.339v4.278c0 2.031-1.078 3.726-2.867 3.726-1.961 0-2.082-1.121-2.082-2.386v-7.911l-3.367.262v.692c1.816 0 1.816.074 1.816 2.199v3.586c0 1.48 0 2.34.715 3.129.574.621 1.555.91 2.773.91.407 0 1.172 0 1.985-.695.691-.547 1.074-1.458 1.074-1.458v2.153l3.32-.238v-.696c-1.625 0-1.816-.168-1.816-1.336v-8.508zm14.382 1.434c-.285 0-1.168 0-1.168.98 0 .574.407.981.981.981.547 0 1.004-.336 1.004-1.028 0-1.601-1.676-2.75-3.61-2.75-2.796 0-5.019 2.485-5.019 5.496 0 3.059 2.293 5.403 4.996 5.403 3.152 0 3.871-2.867 3.871-3.082 0-.219-.168-.219-.238-.219-.219 0-.242.074-.313.359-.523 1.7-1.816 2.414-3.105 2.414-1.457 0-3.395-1.265-3.395-4.898 0-3.969 2.032-4.945 3.227-4.945.906 0 2.223.359 2.769 1.289m10.907 3.297c.523 0 .574 0 .574-.453 0-2.415-1.293-4.661-4.184-4.661-2.726 0-4.828 2.461-4.828 5.426 0 3.153 2.438 5.473 5.09 5.473 2.844 0 3.922-2.582 3.922-3.082 0-.145-.121-.242-.266-.242-.191 0-.242.121-.285.242-.625 2.008-2.223 2.554-3.226 2.554s-3.418-.667-3.418-4.804v-.453zm-6.598-.453c.191-3.75 2.297-4.18 2.965-4.18 2.555 0 2.699 3.367 2.723 4.18zm24.867-.383c0-1.289 0-2.246-1.051-3.18-.835-.762-1.914-1.098-2.964-1.098-1.957 0-3.465 1.293-3.465 2.844 0 .692.453 1.027 1.004 1.027.574 0 .98-.406.98-.98 0-.98-.859-.98-1.219-.98.551-1 1.696-1.43 2.653-1.43 1.097 0 2.508.906 2.508 3.055v.957c-4.801.074-6.618 2.082-6.618 3.918 0 1.89 2.2 2.488 3.657 2.488 1.574 0 2.652-.957 3.105-2.106.094 1.125.836 1.985 1.863 1.985.504 0 1.887-.336 1.887-2.246v-1.34h-.523v1.34c0 1.363-.575 1.554-.907 1.554-.91 0-.91-1.269-.91-1.625zm-1.554 3.011c0 2.34-1.743 3.129-2.774 3.129-1.168 0-2.148-.859-2.148-2.007 0-3.153 4.062-3.442 4.922-3.489zm12.679-5.472c-.285 0-1.168 0-1.168.98 0 .574.407.981.977.981.551 0 1.004-.336 1.004-1.028 0-1.601-1.672-2.75-3.606-2.75-2.797 0-5.019 2.485-5.019 5.496 0 3.059 2.293 5.403 4.996 5.403 3.152 0 3.871-2.867 3.871-3.082 0-.219-.168-.219-.242-.219-.215 0-.239.074-.309.359-.527 1.7-1.816 2.414-3.109 2.414-1.457 0-3.391-1.265-3.391-4.898 0-3.969 2.031-4.945 3.227-4.945.906 0 2.222.359 2.769 1.289m10.403 0c-.289 0-1.172 0-1.172.98 0 .574.406.981.98.981.551 0 1.004-.336 1.004-1.028 0-1.601-1.672-2.75-3.609-2.75-2.797 0-5.02 2.485-5.02 5.496 0 3.059 2.293 5.403 4.996 5.403 3.157 0 3.871-2.867 3.871-3.082 0-.219-.168-.219-.238-.219-.215 0-.242.074-.312.359-.524 1.7-1.817 2.414-3.106 2.414-1.457 0-3.394-1.265-3.394-4.898 0-3.969 2.031-4.945 3.226-4.945.906 0 2.223.359 2.774 1.289m10.902 3.297c.523 0 .574 0 .574-.453 0-2.415-1.293-4.661-4.183-4.661-2.723 0-4.829 2.461-4.829 5.426 0 3.153 2.438 5.473 5.09 5.473 2.844 0 3.922-2.582 3.922-3.082 0-.145-.121-.242-.265-.242-.192 0-.239.121-.286.242-.621 2.008-2.222 2.554-3.226 2.554s-3.418-.667-3.418-4.804v-.453zm-6.598-.453c.192-3.75 2.297-4.18 2.965-4.18 2.555 0 2.699 3.367 2.723 4.18zm15.684-4.11c0-.43 0-.551-.242-.551-.192 0-.645.528-.813.743-.738-.598-1.48-.743-2.246-.743-2.891 0-3.75 1.579-3.75 2.891 0 .266 0 1.102.906 1.938.766.667 1.578.835 2.676 1.05 1.317.262 1.625.336 2.223.813.429.359.742.883.742 1.554 0 1.028-.598 2.172-2.699 2.172-1.578 0-2.723-.906-3.25-3.297-.098-.429-.098-.453-.121-.476-.047-.098-.145-.098-.215-.098-.262 0-.262.121-.262.551v3.25c0 .43 0 .551.238.551.121 0 .145-.024.551-.528.117-.167.117-.214.477-.597.91 1.125 2.199 1.125 2.605 1.125 2.508 0 3.75-1.387 3.75-3.274 0-1.293-.789-2.058-1.004-2.269-.859-.742-1.504-.887-3.082-1.176-.715-.141-2.461-.476-2.461-1.91 0-.738.504-1.84 2.653-1.84 2.605 0 2.75 2.223 2.797 2.965.023.191.191.191.261.191.266 0 .266-.121.266-.55zm10.582 3.727c0-1.289 0-2.246-1.051-3.18-.836-.762-1.91-1.098-2.961-1.098-1.961 0-3.465 1.293-3.465 2.844 0 .692.453 1.027 1.004 1.027.574 0 .981-.406.981-.98 0-.98-.864-.98-1.219-.98.547-1 1.695-1.43 2.648-1.43 1.102 0 2.512.906 2.512 3.055v.957c-4.805.074-6.617 2.082-6.617 3.918 0 1.89 2.195 2.488 3.652 2.488 1.578 0 2.657-.957 3.11-2.106.093 1.125.836 1.985 1.863 1.985.5 0 1.887-.336 1.887-2.246v-1.34h-.524v1.34c0 1.363-.574 1.554-.91 1.554-.91 0-.91-1.269-.91-1.625zm-1.551 3.011c0 2.34-1.742 3.129-2.773 3.129-1.168 0-2.149-.859-2.149-2.007 0-3.153 4.063-3.442 4.922-3.489zm31.426-5.785c0-.64-.551-1.144-1.149-1.144-.691 0-1.168.551-1.168 1.144 0 .719.598 1.172 1.149 1.172.644 0 1.168-.5 1.168-1.172m0 7.985c0-.645-.551-1.149-1.149-1.149-.691 0-1.168.551-1.168 1.149a1.17 1.17 0 0 0 1.149 1.172c.644 0 1.168-.504 1.168-1.172m63.445 234.383c.5 0 .953 0 .953-.883 0-2.797-1.574-5.043-4.562-5.043-2.774 0-4.996 2.386-4.996 5.304a5.33 5.33 0 0 0 5.355 5.352c3.082 0 4.203-2.125 4.203-2.746 0-.145-.047-.672-.789-.672-.453 0-.593.168-.738.527-.598 1.387-2.152 1.504-2.605 1.504-1.985 0-3.559-1.504-3.825-3.344zm-6.98-1.317c.312-2.031 1.867-3.223 3.371-3.223 2.39 0 2.89 2.032 2.988 3.223zm19.328-1.098c0-2.343-1.102-3.441-3.059-3.441a4.2 4.2 0 0 0-3.086 1.363c0-.886 0-1.218-.953-1.218h-1.578c-.336 0-.957 0-.957.691s.621.691.957.691h.981v7.532h-.981c-.336 0-.957 0-.957.691s.621.691.957.691h3.512c.336 0 .957 0 .957-.691s-.621-.691-.957-.691h-.981v-4.328c0-2.317 1.625-3.344 2.918-3.344 1.383 0 1.672.789 1.672 2.148v5.524h-.98c-.332 0-.953 0-.953.691s.621.691.953.691h3.515c.332 0 .953 0 .953-.691s-.621-.691-.953-.691h-.98zm12.301-6.621c0-.738-.145-.98-.957-.98h-1.579c-.332 0-.957 0-.957.695 0 .692.625.692.957.692h.981v3.968c-.383-.383-1.363-1.195-2.82-1.195-2.532 0-4.731 2.293-4.731 5.305 0 2.941 2.055 5.281 4.516 5.281 1.554 0 2.582-.934 3.035-1.457 0 1.004 0 1.312.953 1.312h1.578c.336 0 .957 0 .957-.691s-.621-.691-.957-.691h-.976zm-1.555 9.082c0 1.34-1.102 3.297-2.891 3.297-1.722 0-3.105-1.742-3.105-3.894 0-2.293 1.625-3.918 3.32-3.918 1.555 0 2.676 1.41 2.676 2.652zm23.383-9.007a1.076 1.076 0 1 0-2.153 0 1.07 1.07 0 0 0 1.075 1.074c.597 0 1.078-.477 1.078-1.074m-4.114 3.25c-.332 0-.957 0-.957.691s.625.691.957.691h2.559v7.532h-2.726c-.333 0-.977 0-.977.691s.644.691.977.691h6.644c.336 0 .957 0 .957-.691s-.621-.691-.957-.691h-2.363v-7.938c0-.738-.145-.976-.957-.976zm15.098 1.382h2.891c.336 0 .957 0 .957-.691s-.621-.691-.957-.691h-2.891v-1.196c0-1.863 1.672-1.863 2.438-1.863 0 .047.191.93.98.93.383 0 .93-.285.93-.957 0-1.36-1.817-1.36-2.172-1.36-1.816 0-3.731 1.028-3.731 3.153v1.293h-2.367c-.332 0-.976 0-.976.691s.621.691.953.691h2.39v7.532h-2.269c-.336 0-.957 0-.957.691s.621.691.957.691h6.094c.336 0 .957 0 .957-.691s-.621-.691-.957-.691h-2.27zm-8.308-25.769c0-1.817-1.364-3.73-4.59-3.73-1.004 0-3.321 0-3.321 1.648 0 .648.454 1.004.981 1.004.14 0 .93-.047.953-1.051 0-.117.023-.14.527-.191.285-.024.598-.024.883-.024.551 0 1.363 0 2.152.598.86.668.86 1.34.86 2.031-1.41.047-2.797.145-4.277.621-1.196.406-2.723 1.266-2.723 2.89 0 1.7 1.504 3.133 3.726 3.133.766 0 2.247-.12 3.489-.98.476.79 1.672.836 2.582.836.574 0 1.144 0 1.144-.695 0-.692-.621-.692-.953-.692-.621 0-1.101-.047-1.433-.191zm-1.555 3.629c0 .55 0 1.054-.981 1.508-.836.406-1.961.406-2.031.406-1.41 0-2.437-.766-2.437-1.746 0-1.41 2.558-2.223 5.449-2.223zm8.789 8.461c.332 0 .953 0 .953-.692 0-.695-.621-.695-.953-.695h-.981v-5.113c.571.644 1.457 1.34 2.797 1.34 2.532 0 4.754-2.27 4.754-5.305 0-2.942-2.008-5.281-4.492-5.281-1.746 0-2.844 1.05-3.059 1.289 0-.79 0-1.149-.957-1.149h-1.578c-.332 0-.957 0-.957.696 0 .69.625.69.957.69h.981v12.833h-.981c-.332 0-.957 0-.957.695 0 .692.625.692.957.692zm-.981-11.66c0-1.364 1.336-2.7 2.891-2.7 1.719 0 3.106 1.742 3.106 3.895 0 2.293-1.625 3.918-3.321 3.918-1.793 0-2.676-2.031-2.676-3.227zm13.614 1.839c0-2.843 2.008-4.539 4.039-4.539.121 0 .262 0 .383.024.07.86.738.93.906.93a.904.904 0 0 0 .933-.93c0-1.032-1.003-1.41-2.199-1.41-1.601 0-2.965.714-4.062 2.054v-.933c0-.742-.145-.98-.957-.98h-2.414c-.332 0-.953 0-.953.694 0 .692.621.692.953.692h1.816v7.527h-1.816c-.332 0-.953 0-.953.692 0 .695.621.695.953.695h5.879c.335 0 .957 0 .957-.695 0-.692-.622-.692-.957-.692h-2.508zm14.355-9.034c0-.598-.476-1.075-1.074-1.075s-1.078.477-1.078 1.074.48 1.078 1.078 1.078 1.074-.48 1.074-1.078m-4.109 3.25c-.336 0-.957 0-.957.694 0 .692.621.692.957.692h2.555v7.527h-2.723c-.336 0-.981 0-.981.692 0 .695.645.695.981.695h6.644c.332 0 .954 0 .954-.695 0-.692-.622-.692-.954-.692h-2.367v-7.933c0-.742-.144-.98-.957-.98z"/><path fill="none" stroke="#000" stroke-width=".796" d="M462.68-35.934h7.383"/><path d="M474.926-30.195c.336 0 .957 0 .957-.692 0-.695-.621-.695-.957-.695h-.981v-5.113c.575.644 1.461 1.34 2.797 1.34 2.535 0 4.754-2.27 4.754-5.305 0-2.942-2.004-5.281-4.488-5.281-1.746 0-2.844 1.05-3.063 1.289 0-.79 0-1.149-.953-1.149h-1.578c-.336 0-.957 0-.957.696 0 .69.621.69.957.69h.981v12.833h-.981c-.336 0-.957 0-.957.695 0 .692.621.692.957.692zm-.981-11.66c0-1.364 1.34-2.7 2.895-2.7 1.719 0 3.105 1.742 3.105 3.895 0 2.293-1.625 3.918-3.324 3.918-1.789 0-2.676-2.031-2.676-3.227zm19.352 1.195c0-2.988-2.176-5.356-4.754-5.356-2.582 0-4.758 2.368-4.758 5.356 0 3.012 2.199 5.304 4.758 5.304 2.555 0 4.754-2.292 4.754-5.304m-4.754 3.918c-1.723 0-3.203-1.817-3.203-4.086 0-2.223 1.527-3.8 3.203-3.8 1.672 0 3.199 1.577 3.199 3.8 0 2.293-1.48 4.086-3.199 4.086m11.316-3.274c0-2.843 2.008-4.539 4.039-4.539.122 0 .266 0 .383.024.074.86.742.93.91.93.551 0 .93-.407.93-.93 0-1.032-1.004-1.41-2.199-1.41-1.598 0-2.961.714-4.063 2.054v-.933c0-.742-.14-.98-.953-.98h-2.414c-.336 0-.957 0-.957.694 0 .692.621.692.957.692h1.817v7.527h-1.817c-.336 0-.957 0-.957.692 0 .695.621.695.957.695h5.879c.332 0 .957 0 .957-.695 0-.692-.625-.692-.957-.692h-2.512zm12.301-4.398h3.871c.336 0 .957 0 .957-.691 0-.696-.621-.696-.957-.696h-3.871v-1.957c0-.43 0-.98-.762-.98-.789 0-.789.55-.789.98v1.957h-2.031c-.336 0-.98 0-.98.696 0 .69.621.69.957.69h2.054v6.024c0 2.223 1.528 3.035 3.25 3.035 1.289 0 3.657-.644 3.657-3.081 0-.481 0-1.004-.789-1.004-.766 0-.766.523-.766 1.027-.023 1.434-1.387 1.672-1.938 1.672-1.863 0-1.863-1.196-1.863-1.77zm17.035 2.129c0-1.817-1.363-3.73-4.59-3.73-1.003 0-3.324 0-3.324 1.648 0 .648.457 1.004.981 1.004.144 0 .933-.047.957-1.051 0-.117.023-.14.527-.191.285-.024.598-.024.883-.024.551 0 1.363 0 2.152.598.86.668.86 1.34.86 2.031-1.411.047-2.797.145-4.278.621-1.195.406-2.726 1.266-2.726 2.89 0 1.7 1.508 3.133 3.73 3.133.766 0 2.246-.12 3.488-.98.477.79 1.672.836 2.583.836.57 0 1.144 0 1.144-.695 0-.692-.621-.692-.953-.692-.621 0-1.102-.047-1.434-.191zm-1.554 3.629c0 .55 0 1.054-.981 1.508-.836.406-1.961.406-2.031.406-1.41 0-2.438-.766-2.438-1.746 0-1.41 2.555-2.223 5.45-2.223zm14.187 4.519c0-.312-.168-.406-.5-.644-3.301-2.274-4.113-5.688-4.113-8.008 0-2.27.765-5.711 4.113-8.027.332-.239.5-.336.5-.645 0-.242-.121-.625-.695-.625-.594 0-2.363 1.387-3.461 2.941-1.34 1.864-2.008 4.086-2.008 6.356 0 2.652.953 4.875 1.957 6.285 1.102 1.527 2.844 2.988 3.512 2.988.574 0 .695-.406.695-.62m10.293-8.654c0-1.862-.453-4.276-2.176-6.593-.812-1.101-2.578-2.703-3.297-2.703-.55 0-.695.406-.695.625 0 .285.168.406.602.691 2.914 2.055 4.011 5.258 4.011 7.958 0 2.152-.695 5.664-4.109 8.03-.309.212-.504.333-.504.645 0 .215.145.621.695.621.598 0 2.368-1.386 3.465-2.941a11 11 0 0 0 2.008-6.332M370.016-76.95a1.07 1.07 0 0 0-1.075-1.073c-.597 0-1.074.476-1.074 1.074a1.07 1.07 0 0 0 1.074 1.074 1.07 1.07 0 0 0 1.075-1.074m-4.11 3.25c-.336 0-.957 0-.957.692 0 .695.621.695.957.695h2.559v7.528h-2.727c-.332 0-.98 0-.98.691 0 .696.648.696.98.696h6.645c.336 0 .957 0 .957-.696 0-.691-.621-.691-.957-.691h-2.367v-7.934c0-.742-.145-.98-.953-.98zm15.098 1.387h2.891c.332 0 .957 0 .957-.696 0-.691-.625-.691-.957-.691h-2.891v-1.195c0-1.864 1.672-1.864 2.437-1.864 0 .047.192.93.981.93.379 0 .93-.285.93-.953 0-1.363-1.817-1.363-2.176-1.363-1.817 0-3.727 1.027-3.727 3.152v1.293h-2.367c-.336 0-.98 0-.98.691 0 .695.625.695.957.695h2.39v7.528h-2.269c-.336 0-.957 0-.957.691 0 .696.621.696.957.696h6.093c.336 0 .954 0 .954-.696 0-.691-.618-.691-.954-.691h-2.269zm23.523 14.218c.332 0 .957 0 .957-.695 0-.691-.625-.691-.957-.691h-.98v-5.114c.574.645 1.457 1.336 2.797 1.336 2.535 0 4.754-2.27 4.754-5.304 0-2.938-2.008-5.282-4.493-5.282-1.746 0-2.843 1.055-3.058 1.29 0-.786 0-1.145-.953-1.145h-1.578c-.336 0-.957 0-.957.691 0 .695.621.695.957.695h.976v12.833h-.976c-.336 0-.957 0-.957.69 0 .696.621.696.957.696zm-.98-11.664c0-1.36 1.34-2.699 2.891-2.699 1.722 0 3.109 1.746 3.109 3.894 0 2.297-1.625 3.922-3.324 3.922-1.793 0-2.676-2.03-2.676-3.226zm19.351 1.196c0-2.985-2.175-5.352-4.757-5.352-2.578 0-4.754 2.367-4.754 5.352 0 3.011 2.199 5.304 4.754 5.304 2.558 0 4.757-2.293 4.757-5.304m-4.757 3.921c-1.719 0-3.203-1.82-3.203-4.09 0-2.222 1.531-3.796 3.203-3.796s3.203 1.574 3.203 3.796c0 2.297-1.481 4.09-3.203 4.09m11.32-3.277c0-2.844 2.008-4.539 4.039-4.539.121 0 .262 0 .383.023.07.86.738.934.91.934.547 0 .93-.406.93-.934 0-1.027-1.004-1.41-2.2-1.41-1.601 0-2.96.719-4.062 2.055v-.93c0-.742-.141-.98-.953-.98h-2.414c-.336 0-.957 0-.957.691 0 .695.621.695.957.695h1.812v7.528h-1.812c-.336 0-.957 0-.957.691 0 .696.621.696.957.696h5.875c.336 0 .957 0 .957-.696 0-.691-.621-.691-.957-.691h-2.508zm12.301-4.394h3.871c.336 0 .957 0 .957-.696 0-.691-.621-.691-.957-.691h-3.871v-1.961c0-.43 0-.98-.766-.98-.789 0-.789.55-.789.98v1.96h-2.031c-.332 0-.981 0-.981.692 0 .695.625.695.957.695h2.055v6.02c0 2.223 1.531 3.035 3.25 3.035 1.289 0 3.656-.644 3.656-3.082 0-.476 0-1.004-.785-1.004-.765 0-.765.528-.765 1.028-.024 1.433-1.387 1.675-1.938 1.675-1.863 0-1.863-1.195-1.863-1.77zm17.031 2.125c0-1.817-1.363-3.727-4.59-3.727-1 0-3.32 0-3.32 1.648 0 .645.457 1.004.98 1.004.145 0 .934-.047.957-1.05 0-.122.024-.145.524-.192.289-.023.597-.023.886-.023.547 0 1.36 0 2.149.597.863.668.863 1.336.863 2.032-1.414.046-2.797.14-4.277.62-1.199.407-2.727 1.266-2.727 2.891 0 1.696 1.504 3.13 3.727 3.13.765 0 2.25-.118 3.488-.977.481.785 1.676.836 2.582.836.574 0 1.149 0 1.149-.696 0-.691-.621-.691-.957-.691-.622 0-1.098-.05-1.434-.192zm-1.551 3.632c0 .551 0 1.051-.98 1.508-.84.406-1.961.406-2.032.406-1.41 0-2.437-.765-2.437-1.746 0-1.41 2.555-2.222 5.449-2.222z"/><path fill="none" stroke="#000" stroke-width=".796" d="M462.68-63.836h7.383"/><path d="M480.996-66.004c0-.621-.598-.621-.789-.621-.547 0-.644.191-.762.523-.527 1.317-1.699 1.461-2.273 1.461-2.031 0-3.75-1.699-3.75-3.921 0-1.22.691-3.965 3.824-3.965.645 0 1.145.046 1.363.07.164.047.188.07.188.191.074.98.812 1.004.957 1.004.527 0 .98-.36.98-1.004 0-1.648-2.414-1.648-3.464-1.648-4.086 0-5.403 3.344-5.403 5.352 0 2.914 2.223 5.304 5.09 5.304 3.203 0 4.039-2.363 4.039-2.746m11.395-4.398c0-2.34-1.102-3.442-3.063-3.442-1.625 0-2.676.91-3.082 1.363v-4.542c0-.739-.141-.977-.953-.977h-1.578c-.336 0-.957 0-.957.691s.621.692.957.692h.98v11.832h-.98c-.336 0-.957 0-.957.691 0 .696.621.696.957.696h3.512c.336 0 .957 0 .957-.696 0-.691-.621-.691-.957-.691h-.981v-4.324c0-2.32 1.625-3.348 2.918-3.348 1.383 0 1.672.789 1.672 2.152v5.52h-.981c-.332 0-.957 0-.957.691 0 .696.625.696.957.696h3.512c.336 0 .957 0 .957-.696 0-.691-.621-.691-.957-.691h-.976zm9.527-6.548a1.07 1.07 0 0 0-1.074-1.073 1.07 1.07 0 0 0-1.078 1.074 1.07 1.07 0 0 0 1.078 1.074 1.07 1.07 0 0 0 1.074-1.074m-4.113 3.25c-.332 0-.953 0-.953.692 0 .695.621.695.953.695h2.558v7.528h-2.722c-.336 0-.981 0-.981.691 0 .696.645.696.981.696h6.64c.336 0 .957 0 .957-.696 0-.691-.621-.691-.957-.691h-2.363v-7.934c0-.742-.145-.98-.957-.98zm19.183.98c0-.742-.144-.98-.957-.98h-1.574c-.336 0-.957 0-.957.691 0 .695.621.695.957.695h.981v5.184c0 1.961-1.625 2.488-2.704 2.488-1.886 0-1.886-.863-1.886-1.601v-6.477c0-.742-.145-.98-.957-.98h-1.578c-.333 0-.954 0-.954.691 0 .695.621.695.954.695h.98v6.188c0 2.2 1.434 2.867 3.273 2.867 1.457 0 2.368-.597 2.844-1.004 0 .864.574.864.981.864h1.578c.336 0 .957 0 .957-.696 0-.691-.621-.691-.957-.691h-.981zm12.348-.289c0-.383 0-.906-.668-.906-.574 0-.719.547-.719.574-.953-.574-2.054-.574-2.531-.574-3.895 0-4.422 1.984-4.422 2.797 0 .976.574 1.648 1.387 2.101.765.43 1.457.551 3.418.86.929.168 2.844.476 2.844 1.793 0 .882-.813 1.722-3.036 1.722-1.531 0-2.535-.601-3.035-2.32-.121-.336-.191-.598-.789-.598-.789 0-.789.453-.789.934v2.46c0 .384 0 .907.672.907.285 0 .5 0 .859-.976 1.098.906 2.34.976 3.082.976 4.422 0 4.422-2.867 4.422-3.105 0-2.485-2.965-2.989-4.113-3.153-2.102-.359-3.535-.601-3.535-1.601 0-.649.738-1.41 2.988-1.41 2.27 0 2.363 1.074 2.41 1.695.051.476.481.55.766.55.789 0 .789-.429.789-.91zm12.156 2.821c0-1.817-1.359-3.727-4.586-3.727-1.004 0-3.324 0-3.324 1.648 0 .645.457 1.004.981 1.004.144 0 .933-.047.957-1.05 0-.122.023-.145.527-.192.285-.023.594-.023.883-.023.547 0 1.363 0 2.148.597.863.668.863 1.336.863 2.032-1.41.046-2.796.14-4.277.62-1.195.407-2.726 1.266-2.726 2.891 0 1.696 1.507 3.13 3.73 3.13.762 0 2.246-.118 3.488-.977.477.785 1.672.836 2.578.836.575 0 1.149 0 1.149-.696 0-.691-.621-.691-.957-.691-.621 0-1.098-.05-1.434-.192zm-1.551 3.632c0 .551 0 1.051-.98 1.508-.84.406-1.961.406-2.031.406-1.41 0-2.438-.765-2.438-1.746 0-1.41 2.555-2.222 5.449-2.222zm14.188 4.515c0-.308-.168-.405-.5-.644-3.301-2.27-4.113-5.687-4.113-8.004 0-2.273.765-5.71 4.113-8.03.332-.239.5-.333.5-.645 0-.239-.121-.621-.695-.621-.594 0-2.364 1.386-3.465 2.937-1.336 1.867-2.004 4.086-2.004 6.36 0 2.652.953 4.874 1.957 6.285 1.101 1.527 2.844 2.984 3.512 2.984.574 0 .695-.406.695-.621m10.293-8.648c0-1.868-.453-4.278-2.176-6.598-.812-1.098-2.578-2.7-3.297-2.7-.551 0-.695.407-.695.622 0 .285.168.406.598.691 2.914 2.055 4.015 5.258 4.015 7.961 0 2.148-.695 5.664-4.109 8.027-.313.215-.504.336-.504.645 0 .215.144.621.695.621.598 0 2.364-1.387 3.465-2.938a11 11 0 0 0 2.008-6.332m21.539-1.624h3.871c.336 0 .957 0 .957-.696 0-.691-.621-.691-.957-.691h-3.871v-1.961c0-.43 0-.98-.766-.98-.789 0-.789.55-.789.98v1.96h-2.027c-.336 0-.981 0-.981.692 0 .695.622.695.954.695h2.054v6.02c0 2.223 1.532 3.035 3.25 3.035 1.293 0 3.657-.644 3.657-3.082 0-.476 0-1.004-.786-1.004-.765 0-.765.528-.765 1.028-.024 1.433-1.387 1.675-1.938 1.675-1.863 0-1.863-1.195-1.863-1.77zm17.129 1.91c0-2.34-1.102-3.442-3.059-3.442a4.2 4.2 0 0 0-3.086 1.363v-4.542c0-.739-.14-.977-.953-.977h-1.578c-.336 0-.957 0-.957.691s.621.692.957.692h.981v11.832h-.981c-.336 0-.957 0-.957.691 0 .696.621.696.957.696h3.512c.336 0 .957 0 .957-.696 0-.691-.621-.691-.957-.691h-.981v-4.324c0-2.32 1.625-3.348 2.918-3.348 1.383 0 1.672.789 1.672 2.152v5.52h-.98c-.332 0-.953 0-.953.691 0 .696.621.696.953.696h3.515c.332 0 .953 0 .953-.696 0-.691-.621-.691-.953-.691h-.98zm12.25 2.414c.504 0 .957 0 .957-.883 0-2.797-1.578-5.043-4.563-5.043-2.773 0-4.996 2.39-4.996 5.305a5.327 5.327 0 0 0 5.352 5.351c3.082 0 4.207-2.125 4.207-2.746 0-.144-.051-.668-.789-.668-.453 0-.598.164-.742.524-.594 1.386-2.149 1.507-2.602 1.507-1.984 0-3.562-1.507-3.824-3.347zm-6.977-1.317c.309-2.03 1.864-3.222 3.371-3.222 2.387 0 2.887 2.03 2.985 3.222zm19.325-1.097c0-2.34-1.098-3.442-3.059-3.442-1.625 0-2.676.91-3.082 1.363 0-.886 0-1.218-.953-1.218h-1.578c-.336 0-.957 0-.957.691 0 .695.621.695.957.695h.976v7.528h-.976c-.336 0-.957 0-.957.691 0 .696.621.696.957.696h3.511c.332 0 .957 0 .957-.696 0-.691-.625-.691-.957-.691h-.98v-4.324c0-2.32 1.625-3.348 2.918-3.348 1.383 0 1.672.789 1.672 2.152v5.52h-.981c-.336 0-.957 0-.957.691 0 .696.621.696.957.696h3.512c.336 0 .957 0 .957-.696 0-.691-.621-.691-.957-.691h-.98zm-221.665-83.676c0-1.293 0-2.25-1.05-3.18-.836-.765-1.91-1.101-2.965-1.101-1.957 0-3.465 1.293-3.465 2.843 0 .696.453 1.032 1.004 1.032.574 0 .98-.407.98-.985 0-.976-.859-.976-1.218-.976.55-1.004 1.699-1.434 2.652-1.434 1.102 0 2.508.906 2.508 3.059v.953c-4.801.074-6.617 2.082-6.617 3.922 0 1.886 2.199 2.484 3.656 2.484 1.578 0 2.652-.957 3.105-2.102.098 1.122.836 1.981 1.864 1.981.503 0 1.89-.332 1.89-2.246v-1.336h-.527v1.336c0 1.363-.574 1.555-.906 1.555-.911 0-.911-1.266-.911-1.625zm-1.554 3.008c0 2.343-1.742 3.132-2.77 3.132-1.172 0-2.152-.863-2.152-2.007 0-3.157 4.062-3.442 4.922-3.493zm9.886 7.312c-1.531 0-1.816 0-1.816-1.074v-4.16c.43.597 1.41 1.531 2.938 1.531 2.75 0 5.164-2.32 5.164-5.398 0-3.039-2.246-5.379-4.852-5.379-2.101 0-3.226 1.504-3.297 1.601v-1.601l-3.324.261v.696c1.676 0 1.816.164 1.816 1.218v11.231c0 1.074-.261 1.074-1.816 1.074v.695c.625-.05 1.914-.05 2.582-.05.691 0 1.984 0 2.605.05zm-1.816-11.566c0-.453 0-.477.262-.86.719-1.074 1.887-1.531 2.797-1.531 1.793 0 3.226 2.176 3.226 4.856 0 2.839-1.625 4.921-3.465 4.921a2.83 2.83 0 0 1-1.914-.765c-.547-.551-.906-1.027-.906-1.695zm12.953 2.058c0-2.32.953-4.496 2.793-4.496.192 0 .238 0 .336.028-.191.093-.574.238-.574.882 0 .692.551.954.933.954.477 0 .958-.309.958-.954 0-.718-.645-1.386-1.676-1.386-2.032 0-2.723 2.199-2.867 2.652h-.024v-2.652l-3.203.261v.696c1.625 0 1.816.164 1.816 1.336v6.476c0 1.074-.261 1.074-1.816 1.074v.696c.672-.047 1.984-.047 2.699-.047.649 0 2.344 0 2.895.047v-.696h-.481c-1.742 0-1.789-.261-1.789-1.121zm9.266-9.156c0-.621-.5-1.168-1.168-1.168-.625 0-1.149.5-1.149 1.145 0 .718.575 1.172 1.149 1.172.738 0 1.168-.622 1.168-1.149m-3.297 4.445v.696c1.527 0 1.742.14 1.742 1.312v6.5c0 1.074-.262 1.074-1.812 1.074v.696c.668-.047 1.812-.047 2.507-.047.262 0 1.649 0 2.461.047v-.696c-1.554 0-1.648-.117-1.648-1.05v-8.793zm19.293 14.219c-1.527 0-1.816 0-1.816-1.074v-4.16c.429.597 1.41 1.531 2.941 1.531 2.75 0 5.16-2.32 5.16-5.398 0-3.039-2.246-5.379-4.851-5.379-2.102 0-3.223 1.504-3.297 1.601v-1.601l-3.321.261v.696c1.672 0 1.817.164 1.817 1.218v11.231c0 1.074-.266 1.074-1.817 1.074v.695c.621-.05 1.91-.05 2.578-.05.696 0 1.985 0 2.606.05zm-1.816-11.566c0-.453 0-.477.265-.86.715-1.074 1.887-1.531 2.793-1.531 1.793 0 3.227 2.176 3.227 4.856 0 2.839-1.625 4.921-3.465 4.921a2.8 2.8 0 0 1-1.91-.765c-.551-.551-.91-1.027-.91-1.695zm20.632 2.511c0-3.085-2.343-5.546-5.117-5.546-2.863 0-5.137 2.535-5.137 5.546 0 3.059 2.391 5.352 5.114 5.352 2.82 0 5.14-2.344 5.14-5.352m-5.117 4.825c-.883 0-1.957-.379-2.652-1.551-.645-1.078-.668-2.484-.668-3.492 0-.907 0-2.364.738-3.438a3.07 3.07 0 0 1 2.559-1.41c.933 0 1.937.43 2.582 1.363.742 1.098.742 2.602.742 3.485 0 .84 0 2.32-.621 3.441-.668 1.149-1.77 1.602-2.68 1.602m9.84-5.278c0-2.32.953-4.496 2.793-4.496.191 0 .238 0 .336.028-.192.093-.574.238-.574.882 0 .692.55.954.933.954.477 0 .953-.309.953-.954 0-.718-.644-1.386-1.671-1.386-2.032 0-2.723 2.199-2.868 2.652h-.023v-2.652l-3.203.261v.696c1.625 0 1.816.164 1.816 1.336v6.476c0 1.074-.262 1.074-1.816 1.074v.696c.668-.047 1.984-.047 2.699-.047.645 0 2.344 0 2.895.047v-.696h-.481c-1.742 0-1.789-.261-1.789-1.121zm9.121-4.039h3.371V-158h-3.371v-4.398h-.523c-.024 2.25-.887 4.543-3.063 4.613v.48h2.031v6.641c0 2.652 1.77 3.203 3.039 3.203 1.504 0 2.293-1.48 2.293-3.203v-1.359h-.527v1.312c0 1.719-.691 2.723-1.625 2.723-1.625 0-1.625-2.223-1.625-2.629zm14.309 3.227c0-1.293 0-2.25-1.051-3.18-.836-.765-1.91-1.101-2.961-1.101-1.961 0-3.469 1.293-3.469 2.843 0 .696.457 1.032 1.004 1.032.574 0 .981-.407.981-.985 0-.976-.86-.976-1.219-.976.551-1.004 1.699-1.434 2.652-1.434 1.102 0 2.512.906 2.512 3.059v.953c-4.805.074-6.621 2.082-6.621 3.922 0 1.886 2.199 2.484 3.656 2.484 1.578 0 2.652-.957 3.106-2.102.097 1.122.835 1.981 1.867 1.981.5 0 1.886-.332 1.886-2.246v-1.336h-.523v1.336c0 1.363-.574 1.555-.91 1.555-.91 0-.91-1.266-.91-1.625zm-1.551 3.008c0 2.343-1.746 3.132-2.774 3.132-1.171 0-2.152-.863-2.152-2.007 0-3.157 4.067-3.442 4.926-3.493zm-117.035-69.438c0-.43 0-.551-.239-.551-.191 0-.644.528-.812.743-.742-.598-1.481-.743-2.246-.743-2.891 0-3.75 1.579-3.75 2.891 0 .266 0 1.102.906 1.938.766.667 1.578.835 2.676 1.05 1.316.262 1.625.336 2.223.813.429.359.742.883.742 1.554 0 1.028-.598 2.172-2.699 2.172-1.579 0-2.723-.906-3.25-3.297-.098-.429-.098-.453-.122-.476-.046-.098-.144-.098-.214-.098-.262 0-.262.121-.262.551v3.25c0 .43 0 .551.238.551.117 0 .141-.024.551-.528.117-.167.117-.214.476-.597.907 1.125 2.2 1.125 2.606 1.125 2.508 0 3.75-1.387 3.75-3.274 0-1.293-.789-2.058-1.004-2.269-.859-.742-1.504-.887-3.082-1.176-.719-.141-2.461-.476-2.461-1.91 0-.738.5-1.84 2.652-1.84 2.606 0 2.747 2.223 2.797 2.965.024.191.192.191.262.191.262 0 .262-.121.262-.55zm10.515 4.563c.528 0 .575 0 .575-.453 0-2.415-1.289-4.661-4.184-4.661-2.723 0-4.824 2.461-4.824 5.426 0 3.153 2.437 5.473 5.086 5.473 2.843 0 3.922-2.582 3.922-3.082 0-.145-.122-.242-.262-.242-.192 0-.242.121-.289.242-.621 2.008-2.223 2.554-3.227 2.554s-3.418-.667-3.418-4.804v-.453zm-6.597-.453c.191-3.75 2.297-4.18 2.965-4.18 2.558 0 2.699 3.367 2.722 4.18zm36.699 9.941c-1.527 0-1.816 0-1.816-1.074v-4.16c.429.597 1.41 1.531 2.941 1.531 2.75 0 5.16-2.32 5.16-5.403 0-3.035-2.246-5.375-4.851-5.375-2.102 0-3.223 1.504-3.297 1.598v-1.598l-3.321.262v.692c1.672 0 1.817.168 1.817 1.218v11.235c0 1.074-.266 1.074-1.817 1.074v.691c.621-.047 1.91-.047 2.578-.047.696 0 1.985 0 2.606.047zm-1.816-11.566c0-.454 0-.481.265-.86a3.44 3.44 0 0 1 2.793-1.531c1.793 0 3.227 2.176 3.227 4.851 0 2.844-1.625 4.922-3.465 4.922a2.8 2.8 0 0 1-1.91-.761c-.551-.551-.91-1.028-.91-1.7zm20.632 2.507c0-3.082-2.343-5.543-5.117-5.543-2.863 0-5.137 2.536-5.137 5.543 0 3.063 2.391 5.356 5.114 5.356 2.82 0 5.14-2.344 5.14-5.356m-5.117 4.828c-.883 0-1.957-.382-2.652-1.554-.645-1.074-.668-2.485-.668-3.488 0-.907 0-2.364.738-3.442a3.08 3.08 0 0 1 2.559-1.406c.933 0 1.937.43 2.582 1.359.742 1.102.742 2.606.742 3.489 0 .839 0 2.32-.621 3.441-.668 1.148-1.77 1.601-2.68 1.601m9.84-5.281c0-2.316.953-4.492 2.793-4.492.191 0 .238 0 .336.023-.192.098-.574.243-.574.883 0 .696.55.957.933.957.477 0 .953-.308.953-.957 0-.715-.644-1.383-1.671-1.383-2.032 0-2.723 2.196-2.868 2.653h-.023v-2.653l-3.203.262v.692c1.625 0 1.816.168 1.816 1.339v6.477c0 1.074-.262 1.074-1.816 1.074v.696c.668-.051 1.984-.051 2.699-.051.645 0 2.344 0 2.895.051v-.696h-.481c-1.742 0-1.789-.261-1.789-1.121zm9.121-4.039h3.371v-.691h-3.371v-4.399h-.523c-.024 2.246-.887 4.543-3.063 4.614v.476h2.031v6.645c0 2.652 1.77 3.203 3.039 3.203 1.504 0 2.293-1.481 2.293-3.203v-1.364h-.527v1.317c0 1.719-.691 2.722-1.625 2.722-1.625 0-1.625-2.222-1.625-2.628zm14.309 3.227c0-1.289 0-2.246-1.051-3.18-.836-.762-1.91-1.098-2.961-1.098-1.961 0-3.469 1.293-3.469 2.844 0 .692.457 1.027 1.004 1.027.574 0 .981-.406.981-.98 0-.98-.86-.98-1.219-.98.551-1 1.699-1.43 2.652-1.43 1.102 0 2.512.906 2.512 3.055v.957c-4.805.074-6.621 2.082-6.621 3.918 0 1.89 2.199 2.488 3.656 2.488 1.578 0 2.652-.957 3.106-2.106.097 1.125.835 1.985 1.867 1.985.5 0 1.886-.336 1.886-2.246v-1.34h-.523v1.34c0 1.363-.574 1.554-.91 1.554-.91 0-.91-1.269-.91-1.625zm-1.551 3.011c0 2.34-1.746 3.129-2.774 3.129-1.171 0-2.152-.859-2.152-2.007 0-3.153 4.067-3.442 4.926-3.489zm20.476-5.472c-.285 0-1.168 0-1.168.98 0 .574.407.981.981.981.547 0 1.004-.336 1.004-1.028 0-1.601-1.672-2.75-3.61-2.75-2.796 0-5.019 2.485-5.019 5.496 0 3.059 2.293 5.403 4.996 5.403 3.152 0 3.871-2.867 3.871-3.082 0-.219-.168-.219-.238-.219-.219 0-.242.074-.313.359-.523 1.7-1.816 2.414-3.105 2.414-1.457 0-3.395-1.265-3.395-4.898 0-3.969 2.032-4.945 3.227-4.945.906 0 2.223.359 2.769 1.289m11.688 3.035c0-2.223 0-2.891-.551-3.656-.695-.934-1.816-1.075-2.629-1.075-2.054 0-3.011 1.551-3.343 2.293h-.028v-8.339l-3.32.261v.696c1.625 0 1.816.168 1.816 1.336v12.523c0 1.074-.261 1.074-1.816 1.074v.696c.621-.051 1.914-.051 2.582-.051.691 0 1.984 0 2.601.051v-.696c-1.527 0-1.812 0-1.812-1.074v-4.445c0-2.508 1.648-3.848 3.129-3.848 1.48 0 1.816 1.219 1.816 2.676v5.617c0 1.074-.265 1.074-1.816 1.074v.696c.621-.051 1.914-.051 2.582-.051.691 0 1.98 0 2.601.051v-.696c-1.195 0-1.789 0-1.812-.715zm6.523-8.914c0-.621-.504-1.168-1.171-1.168-.622 0-1.145.5-1.145 1.144 0 .715.57 1.172 1.145 1.172.742 0 1.171-.621 1.171-1.148m-3.296 4.445v.692c1.527 0 1.742.144 1.742 1.316v6.5c0 1.074-.262 1.074-1.817 1.074v.696c.668-.051 1.817-.051 2.508-.051.266 0 1.652 0 2.465.051v-.696c-1.555 0-1.648-.121-1.648-1.051v-8.793zm12.902 0v.692c1.625 0 1.816.168 1.816 1.339v4.278c0 2.031-1.078 3.726-2.867 3.726-1.961 0-2.078-1.121-2.078-2.386v-7.911l-3.371.262v.692c1.816 0 1.816.074 1.816 2.199v3.586c0 1.48 0 2.34.715 3.129.574.621 1.555.91 2.774.91.406 0 1.171 0 1.984-.695.691-.547 1.074-1.458 1.074-1.458v2.153l3.32-.238v-.696c-1.625 0-1.812-.168-1.812-1.336v-8.508zm13.672.168c0-.43 0-.551-.239-.551-.191 0-.644.528-.812.743-.742-.598-1.481-.743-2.246-.743-2.891 0-3.75 1.579-3.75 2.891 0 .266 0 1.102.906 1.938.766.667 1.578.835 2.676 1.05 1.316.262 1.625.336 2.223.813.429.359.742.883.742 1.554 0 1.028-.598 2.172-2.699 2.172-1.579 0-2.723-.906-3.25-3.297-.098-.429-.098-.453-.122-.476-.046-.098-.144-.098-.214-.098-.262 0-.262.121-.262.551v3.25c0 .43 0 .551.238.551.117 0 .141-.024.551-.528.117-.167.117-.214.476-.597.907 1.125 2.2 1.125 2.606 1.125 2.508 0 3.75-1.387 3.75-3.274 0-1.293-.789-2.058-1.004-2.269-.859-.742-1.504-.887-3.082-1.176-.719-.141-2.461-.476-2.461-1.91 0-.738.504-1.84 2.652-1.84 2.606 0 2.747 2.223 2.797 2.965.024.191.192.191.262.191.262 0 .262-.121.262-.55zm10.586 3.727c0-1.289 0-2.246-1.051-3.18-.836-.762-1.91-1.098-2.961-1.098-1.961 0-3.469 1.293-3.469 2.844 0 .692.457 1.027 1.004 1.027.574 0 .981-.406.981-.98 0-.98-.86-.98-1.219-.98.551-1 1.699-1.43 2.652-1.43 1.102 0 2.512.906 2.512 3.055v.957c-4.805.074-6.621 2.082-6.621 3.918 0 1.89 2.199 2.488 3.656 2.488 1.578 0 2.652-.957 3.106-2.106.097 1.125.835 1.985 1.867 1.985.5 0 1.886-.336 1.886-2.246v-1.34h-.523v1.34c0 1.363-.574 1.554-.91 1.554-.91 0-.91-1.269-.91-1.625zm-1.551 3.011c0 2.34-1.746 3.129-2.774 3.129-1.171 0-2.152-.859-2.152-2.007 0-3.153 4.067-3.442 4.926-3.489zm31.141-6.238h2.699v-.691h-2.75v-2.797c0-2.149 1.097-3.25 2.082-3.25.187 0 .547.051.836.191-.098.024-.696.239-.696.934 0 .551.383.93.934.93.574 0 .953-.379.953-.954 0-.886-.859-1.578-2.004-1.578-1.676 0-3.562 1.289-3.562 3.727v2.797h-1.864v.691h1.864v7.84c0 1.074-.262 1.074-1.817 1.074v.696c.668-.051 1.985-.051 2.7-.051.648 0 2.343 0 2.89.051v-.696h-.476c-1.743 0-1.789-.261-1.789-1.121zm12.21 3.227c0-1.289 0-2.246-1.05-3.18-.836-.762-1.91-1.098-2.965-1.098-1.957 0-3.465 1.293-3.465 2.844 0 .692.453 1.027 1.004 1.027.574 0 .98-.406.98-.98 0-.98-.859-.98-1.218-.98.55-1 1.699-1.43 2.652-1.43 1.102 0 2.508.906 2.508 3.055v.957c-4.801.074-6.617 2.082-6.617 3.918 0 1.89 2.199 2.488 3.656 2.488 1.578 0 2.652-.957 3.105-2.106.098 1.125.836 1.985 1.864 1.985.503 0 1.89-.336 1.89-2.246v-1.34h-.527v1.34c0 1.363-.574 1.554-.906 1.554-.911 0-.911-1.269-.911-1.625zm-1.554 3.011c0 2.34-1.742 3.129-2.77 3.129-1.172 0-2.152-.859-2.152-2.007 0-3.153 4.062-3.442 4.922-3.489zm8.289-11.351c0-.621-.5-1.168-1.168-1.168-.625 0-1.149.5-1.149 1.144 0 .715.575 1.172 1.149 1.172.738 0 1.168-.621 1.168-1.148m-3.297 4.445v.692c1.527 0 1.742.144 1.742 1.316v6.5c0 1.074-.262 1.074-1.812 1.074v.696c.668-.051 1.812-.051 2.507-.051.262 0 1.649 0 2.461.051v-.696c-1.554 0-1.648-.121-1.648-1.051v-8.793zm10.035 1.121c0-.64-.551-1.144-1.144-1.144-.696 0-1.172.551-1.172 1.144 0 .719.597 1.172 1.148 1.172.645 0 1.168-.5 1.168-1.172m0 7.985c0-.645-.551-1.149-1.144-1.149-.696 0-1.172.551-1.172 1.149 0 .715.597 1.172 1.148 1.172.645 0 1.168-.504 1.168-1.172m-217.707-86.614-3.32.262v.695c1.625 0 1.816.164 1.816 1.336v14.289h.528c.093-.187.761-1.382.859-1.55.547.882 1.574 1.793 3.105 1.793 2.75 0 5.161-2.321 5.161-5.403 0-3.035-2.243-5.379-4.899-5.379-1.312 0-2.437.602-3.25 1.602zm.051 8.938c0-.43 0-.481.262-.863.574-.86 1.625-1.551 2.796-1.551.715 0 3.223.289 3.223 4.875 0 1.601-.238 2.605-.808 3.465-.481.742-1.434 1.48-2.629 1.48-1.293 0-2.129-.836-2.536-1.48-.308-.5-.308-.598-.308-1.004zm13.07-8.938-3.32.262v.695c1.625 0 1.816.164 1.816 1.336v12.524c0 1.074-.265 1.074-1.816 1.074v.691c.668-.046 1.84-.046 2.555-.046.718 0 1.914 0 2.582.046v-.691c-1.532 0-1.817 0-1.817-1.074zm13.36 11.469c0-3.082-2.344-5.543-5.114-5.543-2.867 0-5.14 2.531-5.14 5.543 0 3.059 2.39 5.356 5.117 5.356 2.816 0 5.137-2.344 5.137-5.356m-5.114 4.828c-.886 0-1.961-.383-2.652-1.554-.649-1.075-.672-2.485-.672-3.489 0-.91 0-2.367.742-3.441a3.06 3.06 0 0 1 2.559-1.41c.93 0 1.933.429 2.578 1.363.742 1.098.742 2.605.742 3.488 0 .836 0 2.321-.621 3.442-.668 1.148-1.769 1.601-2.676 1.601m15.094-8.554c-.285 0-1.172 0-1.172.976 0 .574.406.981.981.981.55 0 1.004-.332 1.004-1.024 0-1.601-1.672-2.75-3.61-2.75-2.793 0-5.015 2.485-5.015 5.496 0 3.059 2.292 5.403 4.992 5.403 3.156 0 3.871-2.868 3.871-3.086 0-.215-.168-.215-.238-.215-.215 0-.239.07-.309.359-.527 1.699-1.816 2.414-3.109 2.414-1.457 0-3.391-1.265-3.391-4.898 0-3.969 2.031-4.949 3.223-4.949.91 0 2.226.363 2.773 1.293m10.398 0c-.285 0-1.168 0-1.168.976 0 .574.407.981.981.981.547 0 1.004-.332 1.004-1.024 0-1.601-1.672-2.75-3.61-2.75-2.796 0-5.019 2.485-5.019 5.496 0 3.059 2.293 5.403 4.996 5.403 3.152 0 3.871-2.868 3.871-3.086 0-.215-.168-.215-.238-.215-.219 0-.242.07-.313.359-.523 1.699-1.816 2.414-3.105 2.414-1.457 0-3.395-1.265-3.395-4.898 0-3.969 2.032-4.949 3.227-4.949.906 0 2.223.363 2.769 1.293m12.821 3.726c0-3.082-2.34-5.543-5.114-5.543-2.867 0-5.136 2.531-5.136 5.543 0 3.059 2.386 5.356 5.113 5.356 2.816 0 5.137-2.344 5.137-5.356m-5.114 4.828c-.886 0-1.96-.383-2.652-1.554-.648-1.075-.672-2.485-.672-3.489 0-.91 0-2.367.742-3.441a3.06 3.06 0 0 1 2.559-1.41c.93 0 1.934.429 2.578 1.363.742 1.098.742 2.605.742 3.488 0 .836 0 2.321-.621 3.442-.668 1.148-1.769 1.601-2.676 1.601m20.528-15.031c0-.551 0-.574-.477-.574-.574.648-1.769 1.527-4.23 1.527v.695c.551 0 1.742 0 3.058-.621v12.45c0 .863-.074 1.148-2.175 1.148h-.739v.691c.645-.046 2.961-.046 3.75-.046s3.082 0 3.727.046v-.691h-.742c-2.102 0-2.172-.285-2.172-1.148z"/></g></svg>