<svg xmlns="http://www.w3.org/2000/svg" width="324" height="212pt" viewBox="0 -212 243 212"><g id="page1"><path fill="gray" d="M0-102.152h35v-70H0Z"/><path fill="#fff" d="M3.5-98.652h35v-70h-35Z"/><path fill="none" stroke="#000" stroke-linecap="round" stroke-linejoin="round" stroke-width="1.3" d="M3.5-98.652h35v-70h-35zm0 0h35m-35-35h35m-35-35h35"/><path fill="gray" d="M28-74.152h35v-70H28Z"/><path fill="#fff" d="M31.5-70.652h35v-70h-35Z"/><path fill="none" stroke="#000" stroke-linecap="round" stroke-linejoin="round" stroke-width="1.3" d="M31.5-70.652h35v-70h-35zm0 0h35m-35-35h35m-35-35h35"/><path fill="gray" d="M56-46.152h35v-70H56Z"/><path fill="#fff" d="M59.5-42.652h35v-70h-35Z"/><path fill="none" stroke="#000" stroke-linecap="round" stroke-linejoin="round" stroke-width="1.3" d="M59.5-42.652h35v-70h-35zm0 0h35m-35-35h35m-35-35h35"/><path fill="#fff" d="M206.5-.652h35v-210h-35Z"/><g fill="none" stroke="#000" stroke-linecap="round" stroke-linejoin="round"><path stroke-width="1.3" d="M206.5-.652h35v-210h-35zm0 0h35m-35-35h35m-35-35h35m-35-35h35m-35-35h35m-35-35h35m-35-35h35"/><path stroke-width="2" d="M167-105.652h-48"/></g><path d="m182-105.652-15-4.02v8.039z"/><path fill="none" stroke="#000" stroke-linecap="round" stroke-linejoin="round" stroke-width="2" d="m182-105.652-15-4.02v8.039z"/><path d="M24.98-114.07c0-.52-.496-.52-.656-.52-.457 0-.539.16-.637.442-.437 1.093-1.414 1.21-1.894 1.21-1.691 0-3.125-1.414-3.125-3.265 0-1.016.578-3.305 3.188-3.305.535 0 .953.039 1.132.063.14.039.16.058.16.156.059.816.676.836.797.836.438 0 .817-.297.817-.836 0-1.375-2.012-1.375-2.887-1.375-3.406 0-4.5 2.793-4.5 4.461 0 2.43 1.852 4.422 4.242 4.422 2.668 0 3.363-1.973 3.363-2.289m-5.874-42.383c0-.617-.122-.813-.797-.813h-1.313c-.277 0-.797 0-.797.575 0 .578.52.578.797.578h.817v10.195c0 .359 0 .816.656.816.636 0 .636-.418.636-.992.48.535 1.215 1.114 2.332 1.114 2.11 0 3.961-1.891 3.961-4.422 0-2.45-1.671-4.403-3.742-4.403a3.58 3.58 0 0 0-2.55 1.078zm0 6.055c0-1.133 1.117-2.25 2.41-2.25 1.433 0 2.59 1.453 2.59 3.246 0 1.914-1.356 3.265-2.77 3.265-1.492 0-2.23-1.691-2.23-2.687zm33.039 60.843c0-1.515-1.137-3.11-3.825-3.11-.836 0-2.765 0-2.765 1.376 0 .539.375.836.812.836.121 0 .778-.04.797-.875 0-.102.023-.117.441-.16.239-.02.497-.02.735-.02.457 0 1.137 0 1.793.5.719.555.719 1.114.719 1.692-1.176.039-2.332.12-3.567.52-.996.335-2.27 1.054-2.27 2.405 0 1.414 1.255 2.61 3.106 2.61.637 0 1.871-.098 2.91-.817.399.66 1.39.7 2.149.7.476 0 .957 0 .957-.579 0-.578-.52-.578-.797-.578-.52 0-.918-.039-1.196-.16zm-1.293 3.028c0 .457 0 .875-.82 1.254-.696.335-1.634.335-1.692.335-1.176 0-2.031-.636-2.031-1.453 0-1.171 2.132-1.851 4.543-1.851zm1.293-38.028c0-1.515-1.137-3.109-3.825-3.109-.836 0-2.765 0-2.765 1.375 0 .539.375.836.812.836.121 0 .778-.039.797-.875 0-.102.023-.117.441-.16.239-.02.497-.02.735-.02.457 0 1.137 0 1.793.5.719.555.719 1.113.719 1.692-1.176.039-2.332.121-3.567.519-.996.336-2.27 1.055-2.27 2.406 0 1.414 1.255 2.61 3.106 2.61.637 0 1.871-.098 2.91-.817.399.66 1.39.7 2.149.7.476 0 .957 0 .957-.579 0-.578-.52-.578-.797-.578-.52 0-.918-.039-1.196-.16zm-1.293 3.028c0 .457 0 .875-.82 1.254-.696.335-1.634.335-1.692.335-1.176 0-2.031-.636-2.031-1.453 0-1.172 2.132-1.851 4.543-1.851zM80.98-58.07c0-.52-.496-.52-.656-.52-.457 0-.539.16-.636.442-.438 1.093-1.415 1.21-1.895 1.21-1.691 0-3.125-1.414-3.125-3.265 0-1.016.578-3.305 3.188-3.305.535 0 .953.04 1.132.063.14.039.16.058.16.156.059.816.676.836.797.836.438 0 .817-.297.817-.836 0-1.375-2.012-1.375-2.887-1.375-3.406 0-4.5 2.789-4.5 4.46 0 2.43 1.852 4.423 4.242 4.423 2.668 0 3.364-1.969 3.364-2.29M80.98-93.07c0-.52-.496-.52-.656-.52-.457 0-.539.16-.636.442-.438 1.093-1.415 1.21-1.895 1.21-1.691 0-3.125-1.414-3.125-3.265 0-1.016.578-3.305 3.188-3.305.535 0 .953.04 1.132.063.14.039.16.058.16.156.059.816.676.836.797.836.438 0 .817-.297.817-.836 0-1.375-2.012-1.375-2.887-1.375-3.406 0-4.5 2.789-4.5 4.46 0 2.43 1.852 4.423 4.242 4.423 2.668 0 3.364-1.969 3.364-2.29M227.98-16.07c0-.52-.496-.52-.656-.52-.457 0-.539.16-.636.442-.442 1.093-1.415 1.21-1.895 1.21-1.691 0-3.125-1.414-3.125-3.265 0-1.016.578-3.305 3.187-3.305.536 0 .954.04 1.133.063.141.039.16.058.16.156.059.816.676.836.797.836.438 0 .817-.297.817-.836 0-1.375-2.012-1.375-2.891-1.375-3.402 0-4.5 2.789-4.5 4.46 0 2.43 1.856 4.423 4.246 4.423 2.668 0 3.363-1.969 3.363-2.29m0-34.999c0-.52-.496-.52-.656-.52-.457 0-.539.16-.636.442-.442 1.093-1.415 1.21-1.895 1.21-1.691 0-3.125-1.414-3.125-3.265 0-1.016.578-3.305 3.187-3.305.536 0 .954.04 1.133.063.141.039.16.058.16.156.059.816.676.836.797.836.438 0 .817-.297.817-.836 0-1.375-2.012-1.375-2.891-1.375-3.402 0-4.5 2.789-4.5 4.46 0 2.43 1.856 4.423 4.246 4.423 2.668 0 3.363-1.969 3.363-2.29m-.835-38.484c0-1.515-1.137-3.11-3.825-3.11-.836 0-2.765 0-2.765 1.376 0 .539.375.836.812.836.121 0 .778-.04.797-.875 0-.102.024-.117.441-.16.239-.02.497-.02.735-.02.457 0 1.137 0 1.793.5.719.555.719 1.114.719 1.692-1.176.039-2.332.12-3.567.52-.996.335-2.269 1.054-2.269 2.405 0 1.414 1.254 2.61 3.105 2.61.637 0 1.871-.098 2.91-.817.399.66 1.391.7 2.149.7.476 0 .957 0 .957-.579 0-.578-.52-.578-.797-.578-.52 0-.918-.039-1.195-.16zm-1.293 3.028c0 .457 0 .875-.821 1.254-.695.335-1.633.335-1.691.335-1.176 0-2.031-.636-2.031-1.453 0-1.171 2.132-1.851 4.543-1.851zm1.293-38.028c0-1.515-1.137-3.109-3.825-3.109-.836 0-2.765 0-2.765 1.375 0 .539.375.836.812.836.121 0 .778-.039.797-.875 0-.102.024-.117.441-.16.239-.02.497-.02.735-.02.457 0 1.137 0 1.793.5.719.555.719 1.113.719 1.692-1.176.039-2.332.121-3.567.519-.996.336-2.269 1.055-2.269 2.406 0 1.414 1.254 2.61 3.105 2.61.637 0 1.871-.098 2.91-.817.399.66 1.391.7 2.149.7.476 0 .957 0 .957-.579 0-.578-.52-.578-.797-.578-.52 0-.918-.039-1.195-.16zm-1.293 3.028c0 .457 0 .875-.821 1.254-.695.335-1.633.335-1.691.335-1.176 0-2.031-.636-2.031-1.453 0-1.172 2.132-1.851 4.543-1.851zm2.128-34.543c0-.52-.496-.52-.656-.52-.457 0-.539.16-.636.442-.442 1.093-1.415 1.21-1.895 1.21-1.691 0-3.125-1.414-3.125-3.265 0-1.016.578-3.305 3.187-3.305.536 0 .954.039 1.133.063.141.039.16.058.16.156.059.816.676.836.797.836.438 0 .817-.297.817-.836 0-1.375-2.012-1.375-2.891-1.375-3.402 0-4.5 2.793-4.5 4.461 0 2.43 1.856 4.422 4.246 4.422 2.668 0 3.363-1.973 3.363-2.289m-5.875-42.383c0-.617-.121-.813-.796-.813h-1.313c-.277 0-.797 0-.797.575 0 .578.52.578.797.578h.817v10.195c0 .359 0 .816.656.816.636 0 .636-.418.636-.992.481.535 1.215 1.114 2.333 1.114 2.109 0 3.96-1.891 3.96-4.422 0-2.45-1.671-4.403-3.742-4.403a3.6 3.6 0 0 0-2.551 1.078zm0 6.055c0-1.133 1.118-2.25 2.411-2.25 1.433 0 2.589 1.453 2.589 3.246 0 1.914-1.355 3.265-2.769 3.265-1.492 0-2.231-1.691-2.231-2.687z"/></g></svg>