<svg xmlns="http://www.w3.org/2000/svg" width="120" height="188" viewBox="0 -141 90 141"><g id="page1" fill-rule="evenodd"><path fill="#f2f2f2" d="M8.168-138.676c-2.184.528-3.234 2.86-4.14 4.668-2.333 5.496-3.16 11.594-2.184 17.391.98 5.801 4.367 10.769 8.207 15.062 2.789 3.086 5.875 5.871 8.808 8.809.832 1.43-.828 2.558-1.277 3.765-.98 2.485-2.035 4.97-2.637 7.602-1.203 4.668-1.73 9.563-1.73 14.457.527 1.883 3.012.906 4.441 1.582 1.13.227 3.239.602 3.766.903-1.508.078-3.012-.528-4.52-.602-1.203-.148-4.14-1.129-3.539 1.055 1.055 1.507 3.239.453 4.82.828.528.074 2.56.3.981.375-1.582.152-3.238-.223-4.895 0-1.355.68.227 3.09 1.579 2.71 1.734-.222 3.464-.675 5.195-.449-1.652.376-3.461.376-5.117.676-1.508 1.207 1.054 2.563 1.73 3.54 4.442 3.913 10.39 5.347 16.114 6.175 6.703.828 13.476.902 20.18.3 5.948-.526 12.12-1.73 17.09-5.347 1.433-1.05 2.788-2.41 3.542-4.066.223-.903-2.41-.903-.68-.903 1.73.528 2.864-3.011.602-2.636-1.203 0-2.41.078-3.613-.075 1.656-.601 4.14.38 5.343-1.128 0-1.957-2.406-.754-3.613-.754-.902 0-2.332.527-2.933.226 1.656-.3 3.234-.675 4.894-.902 2.258.148 1.73-2.41 1.652-3.84-.222-7.832-2.105-15.66-5.87-22.437.152-1.657 2.109-2.262 3.011-3.465 5.422-4.969 10.844-10.465 13.629-17.543 2.336-5.949 1.808-12.574 0-18.598-.754-2.484-1.883-5.121-3.914-6.777-2.184-1.281-4.82-.602-7.078.074-5.422 1.957-9.64 6.324-12.801 11.07-3.387 5.196-5.348 11.219-6.176 17.317-.527 3.312-.601 6.703-.754 10.09-1.355.98-2.707-.903-4.14-.981-1.88-.601-3.762-1.277-5.723-1.277-1.277.976-3.16 0-4.29-.754-1.28-.828-.452-3.012-1.507-3.613-.527 1.054.152 2.785-1.355 2.785.152.902 2.183 2.558.078 2.41-1.809.301-3.543.976-5.348 1.504-1.43-.903-.152-3.012-.602-4.516-.378-9.715-3.238-19.578-9.488-27.183-3.465-4.141-8.36-7.528-13.855-7.606-.676 0-1.278 0-1.883.078m.605 4.367c-2.261 1.356-2.71 4.215-2.937 6.625-.602 7.231 2.258 14.157 6.023 20.106 2.711 4.363 5.797 8.582 8.961 12.648 1.13.602-.828-1.656-1.129-2.11-4.82-6.476-9.714-13.101-12.273-20.78-1.434-4.293-1.883-9.035-.527-13.403.601-1.656 2.332-3.164 4.214-2.636 3.165.679 5.348 3.39 7.23 5.875 4.216 5.949 6.774 12.949 8.208 20.101.527 3.09.902 6.25 1.05 9.414.38.528.153-1.508.153-1.883-.226-6.097-1.656-12.199-3.765-17.843-2.258-5.422-5.196-10.696-9.637-14.535-1.504-1.204-3.54-2.485-5.57-1.579m69.95.075c-3.918 1.582-6.551 5.121-8.735 8.507-4.668 7.606-7.379 16.34-7.906 25.149-.074.754-.074 2.559.074 2.559.453-2.708.301-5.497.903-8.208 1.43-7.601 4.218-15.058 8.66-21.457 1.883-2.636 4.14-5.269 7.379-6.324 1.73-.527 3.312.75 3.84 2.332 1.43 3.238 1.206 6.93.601 10.317-1.504 7.832-6.172 14.531-10.84 20.855-1.355 1.961-2.789 3.844-4.218 5.8 1.355-.827 1.957-2.335 3.011-3.464 3.992-5.57 8.36-11.066 10.692-17.617 1.582-4.52 2.636-9.34 1.96-14.156-.304-1.809-1.207-4.067-3.238-4.52-.754-.148-1.508 0-2.183.227m10.84 9.789c.152.675.3 3.386.3 1.504.153-.301-.222-2.411-.3-1.504m-89.45 1.054a22.4 22.4 0 0 0 0 4.516c.153-1.504.153-3.688 0-4.895 0 .153.075.301 0 .379m22.364 19.575c.527 1.429.828 3.39-.38 4.144.079.828 1.434 2.258 1.282.602-.074-1.508.074-3.692-.902-4.746m44.273.527c-.453 1.508-.98 3.766-.078 4.969 1.055-.524.754-1.805 0-2.258-.149-.902.453-1.809.078-2.711M27.746-76.406c-3.312 1.277-4.367 5.422-3.387 8.508.676 2.558 3.387 4.742 6.024 3.84 3.312-1.13 4.668-5.274 3.613-8.434-.68-2.41-3.086-4.668-5.723-4.067-.152 0-.375.075-.527.153m31.547 0c-3.16 1.203-4.367 5.195-3.461 8.207.527 2.332 2.637 4.668 5.195 4.367 3.086-.453 4.817-3.766 4.594-6.629-.078-2.707-1.734-5.723-4.594-6.172a7.3 7.3 0 0 0-1.734.227m-31.32.902c-1.735.375-1.957 3.387 0 3.54 1.957.3 3.086-3.087.98-3.614-.379-.078-.68-.078-.98.074m31.547 0c-2.184.152-2.106 4.067.304 3.54 1.88-.227 2.332-3.614.074-3.614h-.152zM43.86-64.586c-2.258 0-1.13 3.164.753 2.785 1.43.903.676 2.938.375 4.293-.527 1.582-2.41 2.633-4.066 1.957-.676-.226-1.883-1.508-2.184-1.129.98 1.582 3.09 2.032 4.746 1.657.903 1.28 3.086 2.71 3.762.449 1.356-.903 3.316.078 4.52-1.203.754-.227.98-1.657.074-.676-1.203 1.203-3.387 1.578-4.668.226-1.203-1.28-1.43-3.164-1.203-4.82.675-1.055 3.988-1.508 2.031-3.164-1.203-.676-2.785-.602-4.14-.375m.226.227c-2.11 0-.754 2.632.754 2.257 1.277.528 4.742-.828 2.707-2.109-1.129-.375-2.332-.148-3.461-.148m1.129 7.601c-1.73.906-.227 4.145 1.43 2.637.68-.676-.45-3.688-1.43-2.637m13.629 7.156c-6.399 1.055-12.801.977-19.2.829-2.636-.153-5.273-.38-7.906-.829-1.582.602-2.261 2.407-3.238 3.762-3.012 4.973-4.82 10.844-4.066 16.64.3 2.036 1.128 4.294 3.011 5.274.602-.078.227-2.035.828-.68.301 1.508 3.54 2.11 3.313.454-.375-.602-1.805-1.957-1.203-2.035.601 1.132 3.012 2.863 3.387.68-.227-.528-1.73-2.411-.454-1.282 1.809 1.129 1.657-1.883 1.657-2.934-.301-3.465-1.957-6.629-1.957-10.09 0-.753.226-1.28.453-.226.3 1.656.601 3.312 1.129 4.895.902 3.16 1.808 6.699.375 9.789-1.504 3.312-6.473 4.14-8.957 1.503-1.657-1.73-2.336-4.14-2.563-6.476-.902-1.356-1.355 1.734-1.73 2.41-1.657 5.348-2.258 11.445.3 16.566.38 1.73 1.957 2.559 3.313 1.356 3.992-1.656 9.113-1.356 12.426 1.656 1.129 1.055 1.73 2.785 1.277 4.367.453 1.805 2.938.828 4.293 1.13 3.012-.075 6.098.073 9.113-.227 1.43-1.13.075-3.614 1.73-4.82 2.259-2.934 6.325-3.54 9.79-2.86 1.43.227 2.86.754 4.14 1.43 1.805-.149 1.883-2.559 2.711-3.914 1.805-5.422.754-11.446-1.28-16.641-.376-1.355-1.43-.68-1.13.375 0 3.09-1.957 6.328-5.12 7.004-2.634.676-5.497-.828-6.4-3.39-1.355-3.16-.152-6.626.676-9.712.454-1.656.907-3.386 1.055-5.12.828 1.28.074 3.011-.148 4.366-.68 3.164-1.735 6.403-1.133 9.637.605 1.434 2.789-1.578 1.582.227-1.43 1.433.754 3.164 1.734 1.508.301-.602 1.88-1.508.903-.375-.903.675-1.582 2.406.148 2.183 1.356.375 2.336-1.582 2.711-1.883.3 2.258 2.035-.453 2.336-1.355 1.504-3.54 1.055-7.684.148-11.371-1.203-4.215-3.238-8.207-6.023-11.52-.602-.453-1.355-.527-2.031-.3m14.078 30.266c-.149 1.207.379 1.133.3 0 .079-.75-.374-1.352-.3-.223zm-12.797 9.34c-2.863.226-6.027 2.258-6.328 5.344 0 2.035 1.96 3.312 3.691 3.465 1.582.601 3.84-.075 3.614-2.11-.075-.676.3-1.582.453-.375-.227 1.356.3 3.086 1.957 2.41 1.73 0 1.203-2.71 1.882-3.011.149 1.054 0 3.539 1.81 2.484.75-.379.6-2.563 1.05-2.41-.223 1.129 1.055 2.484 1.508.828.976-1.809-.453-3.84-1.957-4.742-2.262-1.582-5.047-2.184-7.68-1.883m-32.379.3c-2.41.528-5.043 1.805-5.797 4.368-.375.976.754 3.84 1.582 2.258 0-.676.528-1.883.45-.453-.376 1.433 2.562 3.011 2.562.98-.152-.602.3-2.559.45-1.055-.223 1.809 2.109 3.239 3.39 1.957.375-.675-.152-2.558.449-2.558.305 1.203.078 3.539 2.035 3.16 1.805 0 4.215-.45 4.969-2.406.902-2.184-.453-4.746-2.559-5.649-2.261-1.203-5.047-1.203-7.53-.601"/><path fill="red" d="M63.184-46.27c-10.223 3.57-24.578 2.872-35.223.63-1.258 1.89-2.309 4.761-2.938 6.722-.562 1.961-.843 4.414-.984 6.512 1.332-.489 2.031-.77 3.012-.77 2.101-.699 5.324-.91 7.492-.77-1.187-4.202-.137-.347.422 1.473.7 2.73.84 5.95-1.192 8.121-1.68 1.961-4.972 2.45-7 .7-1.89-1.61-2.87-4.063-3.082-6.442-.558-1.539-1.89-.21-1.89.84-.422 1.402-.91 2.8-1.051 4.274 15.125 7.632 35.71 7.21 50.207 0-.07-1.82-.418-2.102-.559-3.153-.351-.91-.91-3.71-2.101-2.312-.352 1.332-.281 2.8-.91 4.062-1.051 2.524-3.992 4.344-6.793 3.57-2.73-.84-4.27-3.918-4.133-6.652.91-3.36 1.191-4.62 2.523-4.62 2.59 0 6.23.562 8.75 1.472-.066-1.543-.136-2.032-.207-3.012-.351-4.273-2.87-8.894-4.343-10.644"/><path d="M7.793-139.883c-2.336.379-4.367 3.164-6.023 8.285-.528 1.504-1.13 3.989-1.055 4.289.074.079 0 .379-.149.829-.3 1.207-.453 5.046-.3 7.378.523 8.508 4.363 14.61 16.035 25.676 1.355 1.207 1.582 1.582 1.281 1.809-.152 0-1.055 1.883-1.656 3.312-.528 1.13-1.356 3.465-1.735 4.668-.75 2.637-1.203 4.52-1.351 5.95a15 15 0 0 1-.305 1.43c0 .226-.148 1.206-.223 2.109-.078.902-.152 1.73-.226 1.804 0 .078-.074 1.36-.152 2.863-.075 3.313 0 3.16-1.43 3.012-1.055-.152-4.293-.226-4.668-.074-.379.149 1.355.527 3.613.754 2.336.223 2.485.3 2.563 1.277.074.828.074.828-2.41.907-.98 0-2.11.074-2.489.148-.375.074-1.05.152-1.578.227-1.656.226-3.617.753-3.164.902.3.152.527.152 4.14-.3 2.485-.302 5.65-.227 5.95.151.453.602.3 1.204-.3 1.204-2.184.152-5.048.754-6.927 1.504-.98.378-1.129.828-.226.527.3-.074 1.582-.375 3.687-.75.528-.153 1.282-.227 1.657-.301.453 0 1.054-.152 1.433-.227.828-.226 1.43-.152 1.578.301.153.528-.148.828-1.05.977-1.356.226-3.012.98-4.145 1.96-.902.676-.523.829.68.15.976-.454 2.332-1.056 3.238-1.356.375-.075.828-.301.976-.375.454-.301.68-.227 1.055.453.906 1.43 3.238 3.687 5.121 4.969 2.559 1.656 7.078 3.386 9.035 3.386 1.13 0 1.43.602.68 1.282-1.96 1.882-5.121 9.183-5.574 12.949 0 .453-.152.906-.227 1.054-.074.227-.449.98-.75 1.73-.605 1.282-.828 1.81-1.582 3.84-.601 1.66-1.28 4.294-1.508 5.876-.074.601-.148 1.355-.226 1.656-.148.754-.148 3.992 0 4.895.078.375.152 1.054.227 1.503.378 2.262 1.882 5.723 2.785 6.63.226.222.152.75-.075.75-.074 0-.3.304-.449.605-1.808 3.46.223 6.7 4.215 6.7.45 0 1.281.073 1.883.226.828.226 1.355.3 2.031.226.453-.074 1.356 0 1.957.074 1.809.227 4.367-.226 5.496-.98.98-.676 1.508-.828 2.262-.676.902.153 11.973.153 13.176 0 1.054-.152 1.281-.074 2.183.602 1.282 1.054 6.477 1.43 9.41.754.301-.075 1.055-.227 1.735-.227 3.086-.3 4.367-.976 4.969-2.71.527-1.356.074-3.614-.903-4.669-.3-.3-.3-.375-.078-.601.68-.754 2.488-4.743 2.488-5.422 0-.075.149-.676.301-1.282.375-1.43.375-6.472.074-7.753-.152-.454-.226-.903-.226-1.055 0-1.129-1.508-5.723-2.86-8.656-.753-1.66-1.054-2.41-1.132-3.164-.149-.903-.223-1.13-.602-2.637-.902-3.461-3.312-8.207-5.117-10.09-1.133-1.129-1.055-1.582.223-1.656 4.144-.227 11.824-5.27 12.8-8.434.153-.45.454-.527 1.735-.148 2.406.601 2.86.754 4.515 1.504 2.711 1.207 2.711.601 0-.828-1.28-.676-3.086-1.204-4.515-1.356-1.055-.148-1.36-.527-.98-1.203.152-.152.3-.602.374-.98.078-.829.38-1.204 1.055-1.204 3.84.075 4.969.149 6.25.301 3.613.453 5.95.453 4.82.074-.3-.148-.527-.148-.601-.148-.078.074-.38 0-.754-.152-.301-.149-1.055-.301-1.656-.376-.606-.074-1.434-.152-1.958-.226-.453-.074-2.109-.148-3.69-.148-3.165.074-3.24.074-3.087-.907.149-.601.227-.675 1.43-.754.601-.074 1.582-.222 2.11-.3.527-.075 1.503-.223 2.03-.223 1.282-.078 3.465-.605 3.239-.754-.227-.152-3.086-.078-4.14.074-.528.075-1.509.149-2.184.227-.754.074-1.508.148-1.657.226-.527.075-.601-.152-.68-3.617-.074-1.805-.148-3.535-.226-3.84-.074-.375-.148-1.277-.3-2.03-.15-1.509-.223-1.884-.755-4.294-.375-1.656-.375-1.582-1.128-4.066-.829-2.711-2.56-6.926-3.16-7.606-.227-.3-.153-.449.6-1.203 13.856-12.723 17.997-19.953 17.169-29.969-.074-.828-.153-2.031-.153-2.632-.074-.606-.148-1.207-.222-1.43-.078-.152-.153-.754-.227-1.281-.527-3.914-2.785-9.036-4.82-10.993-1.73-1.66-6.7-1.359-10.766.528-7.53 3.539-14.082 12.722-16.64 23.34-.68 2.785-.754 3.238-.907 4.214-.074.528-.148 1.207-.222 1.43-.078.305-.227 1.207-.301 2.035 0 .903-.152 2.11-.227 2.711-.078.68-.078 1.656-.078 2.332.078 1.66-.074 1.961-.976 1.36-1.356-.754-8.735-2.563-9.563-2.262-.078 0-.3.226-.379.453-.449.902-1.804-.602-1.957-2.258-.074-.98.153-2.484.602-3.691.68-1.809-.3-1.731-2.031.152-.754.828-.98 1.278-1.13 2.184-.152 1.277-.753 1.429-.827.222-.153-1.128-.227-1.277-.453-1.277-.903 0-1.13 3.313-.301 4.516.527.828.379.98-1.203 1.433-2.41.75-2.485.676-2.262-.605.078-.375.078-1.203 0-2.332-.074-.981-.223-2.485-.3-3.313-.075-.906-.15-1.961-.224-2.336a25 25 0 0 1-.304-1.882 39 39 0 0 0-.977-4.29c-.078-.453-.3-1.281-.453-1.734-.148-.449-.375-1.203-.602-1.73-.152-.453-.375-1.055-.453-1.356-2.859-8.734-10.992-17.015-18.144-18.445-.527-.152-.98-.227-1.055-.305-.148-.074-3.765-.148-4.367 0m.375 1.207c-3.84.528-7.527 11.746-6.625 20.254.906 7.828 4.969 14.156 15.664 24.02 2.406 2.183 2.332 2.03 1.652 3.16-3.312 5.648-5.343 13.707-5.644 22.289-.074 3.086-.152 2.937 1.808 3.164 1.43.223 4.368.75 4.817.902.152.075.601.149.98.227.301 0 .676.148.754.148.301.227-.453.153-1.508 0-.828-.226-2.71-.453-5.27-.828-1.28-.226-1.507-.074-1.507.754 0 1.203.074 1.281 2.785 1.355 2.637.075 3.918.227 3.918.376 0 .074-1.355.074-3.012.074-3.765-.149-3.69-.149-2.789 1.734.38.828.907 1.203 1.356 1.055.3-.153 4.066-.602 4.82-.602 1.13 0 .754.223-.527.301-.98.074-2.938.375-3.992.523-.75.153-.676.68.226 1.81 4.746 5.796 14.383 8.507 29.742 8.507 14.383 0 24.094-2.938 28.16-8.656.981-1.356.907-1.66-.374-1.961-.754-.149-.754-.149.074-.075 1.43.075 1.883-.374 2.11-1.882.073-.754.073-.754-2.786-.754-3.012.078-2.785-.149.527-.301 2.485-.223 2.633-.3 2.633-1.129 0-.676-.226-.977-.902-.828-.301 0-1.281.152-2.184.227-.828.074-1.883.226-2.258.3-.379.075-.828.153-1.054.153-.602 0-.153-.227.675-.301.38-.078.981-.153 1.282-.227.375-.152 1.43-.3 2.332-.453 2.183-.3 2.261-.3 2.261-1.808 0-8.735-1.956-17.165-5.574-23.793-.75-1.352-.828-1.13 1.434-3.086 14.23-12.649 18.219-21.235 15.66-33.809-1.355-6.773-3.766-10.691-6.7-10.918-10.093-.676-21.386 12.125-23.718 27.031 0 .301-.152.907-.227 1.434-.378 1.883-.753 5.644-.828 8.434-.078 3.234.075 3.086-1.582 2.406-3.914-1.656-8.433-2.785-8.66-2.184-.074.379-.3.379-1.43.153-2.41-.375-3.539-1.583-3.539-3.84 0-1.356-.601-1.356-.828 0v1.129c.075.527-.074.753-.453.601-.902-.226-.902.453 0 1.43.832.906.832 1.133 0 1.133-.676 0-3.011.601-4.816 1.277-1.809.602-1.657.828-1.657-2.559 0-20.554-12.124-38.027-25.226-36.367m.605 4.367c-3.238 1.657-3.992 9.563-1.66 16.864 1.66 5.121 4.82 10.617 10.77 18.676.601.75 1.508 2.03 2.11 2.859.6.754 1.202 1.433 1.277 1.355.226-.074.152-.148-2.032-3.086C8.996-111.27 5.535-119.324 6.137-127.684c.828-10.015 8.66-7.754 15.058 4.368 1.055 1.957 1.883 3.914 2.864 6.476.375.828 1.203 3.461 1.351 4.141.078.375.227.902.305 1.129.828 3.164 1.578 7.98 1.73 11.593.149 2.711.375 2.711.301 0 0-3.914-.828-8.582-2.336-13.929-3.312-11.895-12.12-22.664-16.637-20.403m69.95.075c-7.832 2.785-16.192 19.953-16.715 34.109-.078 3.54.222 2.86.449-.902.902-14.911 10.242-32.532 17.395-33.059 3.46-.301 5.195 6.703 3.386 14.008-1.504 6.324-4.367 11.445-12.047 21.684-3.011 3.992-2.859 3.84-2.636 3.765.527-.074 7.906-10.242 10.09-13.855 7.605-12.575 7.605-28.387.078-25.75m-56.246 30.418c0 .078.074.378.148.753.602 1.735.379 3.313-.375 3.086-.152 0-.3 0-.227.079.829 1.73.98 1.957 1.204 1.656.304-.453.078-4.145-.301-4.895-.301-.679-.45-.902-.45-.679m44.273.527c-.68 1.734-.68 5.496 0 5.047.375-.227.902-1.735.602-1.735-.68 0-.754-.375-.602-2.031.148-.98.148-1.656 0-1.281M27.746-76.406c-4.82 1.804-5.043 10.012-.375 12.195 4.14 1.883 8.207-3.238 6.55-8.281-.905-3.086-3.69-4.82-6.175-3.914m31.547 0c-4.062 1.43-5.117 8.054-1.73 11.293 2.335 2.258 5.874 1.43 7.378-1.73 2.336-4.973-1.28-11.071-5.648-9.563m-31.32.902c-.903.3-1.582 1.356-1.43 2.184.3 1.43 1.957 1.804 3.012.675 1.277-1.43.148-3.46-1.582-2.859m31.547 0c-2.333.527-2.032 3.988.304 3.54 1.653-.302 2.258-2.864.828-3.388-.605-.226-.68-.226-1.133-.152M43.86-64.586c-2.11.3-1.657 2.41.6 2.785.981.153 1.208 1.508.68 3.766-.753 2.785-3.39 3.539-5.648 1.582-.902-.828-1.203-.606-.375.3 1.051 1.055 2.41 1.43 3.989 1.13.68-.075.68-.075 1.128.601.907 1.508 2.11 1.508 2.938.152.453-.753.601-.828 1.43-.68 1.355.302 3.992-.902 3.992-1.808 0-.3-.301-.222-.98.38-1.958 1.804-4.669 1.054-5.419-1.509-.605-2.105-.379-3.613.524-3.914 3.918-1.129 1.582-3.539-2.86-2.785m.226.227c-2.41.375-1.055 2.332 1.504 2.332 2.262 0 3.691-1.657 2.035-2.184-.602-.227-2.637-.3-3.54-.148m34.332 3.238c-.602 0-1.504.074-1.504.148 0 .153 3.387.602 4.067.68.753.148 3.312.602 3.913.75.301 0 .903.152 1.356.227s.906.226 1.055.226c.375.227.527.074.3-.226-.226-.227-2.558-1.055-2.937-1.055-.149 0-.375 0-.375-.074-.074-.075-.453-.149-.828-.227-.453 0-1.13-.148-1.582-.226-.75-.223-3.387-.301-3.465-.223m-33.203 4.363c-.074.227-.375.606-.528.906-.453.676-.453.977 0 1.504 1.43 1.582 2.938 0 1.731-1.879-.523-.98-.828-1.054-1.203-.53m13.629 7.156c-5.875 1.204-21.16 1.204-26.504.075-.828-.227-1.203 0-2.11 1.129-6.023 7.605-7.906 19.5-3.765 23.718.906 1.055 1.508.977 1.355-.074-.148-.527.078-.601.301-.078.606 1.434 2.035 2.035 3.238 1.434.68-.305.606-.454-.3-1.434-.676-.75-1.204-1.656-.977-1.656.074 0 .45.453.902.906 1.203 1.355 1.805 1.504 2.41.828.45-.453.45-.828 0-1.355-.906-1.13-1.054-1.735-.152-.828.828.828 1.13.828 1.43-.153.605-1.582.379-3.465-.676-7.453-.828-2.937-1.129-4.82-.902-5.875.074-.75.222-.45.527 1.133.148 1.277.45 2.484 1.277 5.191 1.809 6.176.602 10.317-3.238 11.524-4.066 1.277-7.601-1.809-8.129-7.153-.226-1.96-.605-1.66-1.508.977-2.332 6.926-2.332 12.574 0 17.394 1.13 2.332 1.204 2.332 2.864 1.582 6.625-3.09 15.281.301 14.152 5.497-.3 1.43.078 1.503 8.586 1.355 5.95-.078 5.496.148 5.422-1.734 0-5.645 8.055-8.282 14.68-4.817 1.054.524 1.207.375 2.41-2.035 1.882-3.914 2.11-9.11.68-14.305-1.356-4.968-2.336-6.476-2.41-3.691-.153 8.207-10.391 9.941-11.973 2.035-.375-1.883-.153-3.617.98-7.531.676-2.484.977-3.84 1.129-5.195.148-.903.3-.903.375 0 .152 1.054-.074 2.785-.754 5.195-1.578 6.25-1.277 10.39.754 8.133.375-.453.453-.528.453-.301 0 .148-.227.602-.527.902-.528.68-.602.98-.153 1.508.602.75 1.055.676 2.41-.68.454-.453.829-.753.907-.675.148.074-.453.902-1.055 1.43-.98.902-.68 1.507.75 1.507 1.207 0 1.957-.531 2.41-1.734.227-.528.453-.45.375.152-.148 1.957 2.11-.527 2.79-3.012 1.355-5.422-.38-12.8-4.594-19.05-1.809-2.786-2.258-3.086-3.84-2.786m1.281 39.606c-6.328.676-8.734 7.379-3.164 8.734 3.086.676 4.14.075 4.14-2.336 0-.527.075-.902.153-.902.223 0 .375.977.375 1.957-.074 1.281 0 1.356 1.281 1.281 1.578-.078 1.957-.527 2.11-2.261.074-1.73.523-1.278.523.605 0 2.258 2.336 1.578 2.41-.754.078-1.355.379-.98.453.375.075 1.207.754 1.129 1.43-.148 1.656-3.317-4.067-7.23-9.711-6.551m-32.379.3c-4.367 1.055-6.703 3.766-5.496 6.4.676 1.28 1.281 1.206 1.355-.15.075-1.128.375-1.355.375-.378 0 1.43.606 2.183 1.81 2.262.675 0 .827-.305.753-1.208-.078-.675.074-1.582.3-1.582.075 0 .15.301.15.754.226 1.809.6 2.258 2.183 2.336 1.281.075 1.355 0 1.355-1.508 0-1.957.38-2.257.528-.375.078 2.032.453 2.333 2.71 2.032 3.087-.301 4.294-1.504 4.294-3.914 0-3.692-4.895-5.95-10.317-4.668"/></g></svg>