<svg xmlns="http://www.w3.org/2000/svg" width="341pt" height="422pt" viewBox="0 -422 341 422"><g id="page1"><path fill="#fff" d="M44.738-225.379c0-12.215-9.902-22.117-22.12-22.117C10.401-247.496.5-237.594.5-225.379c0 12.219 9.902 22.121 22.117 22.121 12.219 0 22.121-9.902 22.121-22.121"/><path fill="none" stroke="#000" stroke-linecap="round" stroke-linejoin="round" d="M44.738-225.379c0-12.215-9.902-22.117-22.12-22.117C10.401-247.496.5-237.594.5-225.379c0 12.219 9.902 22.121 22.117 22.121 12.219 0 22.121-9.902 22.121-22.121"/><path fill="#fff" d="M184.824-22.621c0-12.215-9.902-22.117-22.117-22.117-12.219 0-22.121 9.902-22.121 22.117 0 12.219 9.902 22.121 22.121 22.121 12.215 0 22.117-9.902 22.117-22.121"/><path fill="none" stroke="#000" stroke-linecap="round" stroke-linejoin="round" d="M184.824-22.621c0-12.215-9.902-22.117-22.117-22.117-12.219 0-22.121 9.902-22.121 22.117 0 12.219 9.902 22.121 22.121 22.121 12.215 0 22.117-9.902 22.117-22.121"/><path fill="#fff" d="M302.793-22.621c0-12.215-9.902-22.117-22.121-22.117-12.215 0-22.117 9.902-22.117 22.117 0 12.219 9.902 22.121 22.117 22.121 12.219 0 22.121-9.902 22.121-22.121"/><path fill="none" stroke="#000" stroke-linecap="round" stroke-linejoin="round" d="M302.793-22.621c0-12.215-9.902-22.117-22.121-22.117-12.215 0-22.117 9.902-22.117 22.117 0 12.219 9.902 22.121 22.117 22.121 12.219 0 22.121-9.902 22.121-22.121"/><path fill="#fff" d="M74.23-29.992c0-12.219-9.902-22.121-22.12-22.121-12.215 0-22.118 9.902-22.118 22.12 0 12.216 9.903 22.118 22.117 22.118 12.22 0 22.122-9.902 22.122-22.117"/><path fill="none" stroke="#000" stroke-linecap="round" stroke-linejoin="round" d="M74.23-29.992c0-12.219-9.902-22.121-22.12-22.121-12.215 0-22.118 9.902-22.118 22.12 0 12.216 9.903 22.118 22.117 22.118 12.22 0 22.122-9.902 22.122-22.117"/><path fill="#fff" d="M232.75-114.781c0-12.215-9.902-22.121-22.121-22.121-12.215 0-22.117 9.906-22.117 22.121s9.902 22.117 22.117 22.117c12.219 0 22.121-9.902 22.121-22.117"/><path fill="none" stroke="#000" stroke-linecap="round" stroke-linejoin="round" d="M232.75-114.781c0-12.215-9.902-22.121-22.121-22.121-12.215 0-22.117 9.906-22.117 22.121s9.902 22.117 22.117 22.117c12.219 0 22.121-9.902 22.121-22.117"/><path fill="#fff" d="M192.199-214.316c0-12.219-9.902-22.122-22.121-22.122-12.215 0-22.117 9.903-22.117 22.122 0 12.214 9.902 22.117 22.117 22.117 12.219 0 22.121-9.903 22.121-22.117"/><path fill="none" stroke="#000" stroke-linecap="round" stroke-linejoin="round" d="M192.199-214.316c0-12.219-9.902-22.122-22.121-22.122-12.215 0-22.117 9.903-22.117 22.122 0 12.214 9.902 22.117 22.117 22.117 12.219 0 22.121-9.903 22.121-22.117"/><path fill="#fff" d="M55.797-129.527c0-12.215-9.902-22.121-22.117-22.121-12.22 0-22.121 9.906-22.121 22.121s9.902 22.117 22.12 22.117c12.215 0 22.118-9.903 22.118-22.117"/><path fill="none" stroke="#000" stroke-linecap="round" stroke-linejoin="round" d="M55.797-129.527c0-12.215-9.902-22.121-22.117-22.121-12.22 0-22.121 9.906-22.121 22.121s9.902 22.117 22.12 22.117c12.215 0 22.118-9.903 22.118-22.117"/><path fill="#fff" d="M339.656-188.512c0-12.215-9.902-22.121-22.117-22.121s-22.117 9.906-22.117 22.121 9.902 22.117 22.117 22.117 22.117-9.902 22.117-22.117"/><path fill="none" stroke="#000" stroke-linecap="round" stroke-linejoin="round" d="M339.656-188.512c0-12.215-9.902-22.121-22.117-22.121s-22.117 9.906-22.117 22.121 9.902 22.117 22.117 22.117 22.117-9.902 22.117-22.117"/><path fill="#fff" d="M251.184-317.539c0-12.219-9.907-22.117-22.121-22.117-12.215 0-22.118 9.898-22.118 22.117 0 12.215 9.903 22.117 22.118 22.117s22.121-9.902 22.121-22.117"/><path fill="none" stroke="#000" stroke-linecap="round" stroke-linejoin="round" d="M251.184-317.539c0-12.219-9.907-22.117-22.121-22.117-12.215 0-22.118 9.898-22.118 22.117 0 12.215 9.903 22.117 22.118 22.117s22.121-9.902 22.121-22.117"/><path fill="#fff" d="M173.766-391.27c0-12.214-9.903-22.121-22.121-22.121-12.215 0-22.118 9.907-22.118 22.121 0 12.215 9.903 22.118 22.118 22.118 12.218 0 22.121-9.903 22.121-22.118"/><path fill="none" stroke="#000" stroke-linecap="round" stroke-linejoin="round" d="M173.766-391.27c0-12.214-9.903-22.121-22.121-22.121-12.215 0-22.118 9.907-22.118 22.121 0 12.215 9.903 22.118 22.118 22.118 12.218 0 22.121-9.903 22.121-22.118"/><path fill="#fff" d="M55.797-391.27c0-12.214-9.902-22.121-22.117-22.121-12.22 0-22.121 9.907-22.121 22.121 0 12.215 9.902 22.118 22.12 22.118 12.215 0 22.118-9.903 22.118-22.118"/><path fill="none" stroke="#000" stroke-linecap="round" stroke-linejoin="round" d="M55.797-391.27c0-12.214-9.902-22.121-22.117-22.121-12.22 0-22.121 9.907-22.121 22.121 0 12.215 9.902 22.118 22.12 22.118 12.215 0 22.118-9.903 22.118-22.118"/><path fill="#fff" d="M310.164-391.27c0-12.214-9.902-22.121-22.117-22.121-12.219 0-22.117 9.907-22.117 22.121 0 12.215 9.898 22.118 22.117 22.118 12.215 0 22.117-9.903 22.117-22.118"/><g fill="none" stroke="#000" stroke-linecap="round" stroke-linejoin="round"><path d="M310.164-391.27c0-12.214-9.902-22.121-22.117-22.121-12.219 0-22.117 9.907-22.117 22.121 0 12.215 9.898 22.118 22.117 22.118 12.215 0 22.117-9.903 22.117-22.118"/><path stroke-width="5" d="M41.684-214.16q37.482 22.02 74.953 44.058 37.47 22.045 74.929 44.106m-2.976 9.379a6284 6284 0 0 1-66.465-5.188 6169 6169 0 0 1-66.402-5.886m-30.567-75.711a188.2 188.2 0 0 0 5.989 51.902M285.473-44.21a853 853 0 0 0 27.265-122.711"/></g><g fill="none" stroke-linecap="round" stroke-linejoin="round" stroke-width="5"><path stroke="red" stroke-dasharray="0 9.50963" d="M228.84-127.34a11711 11711 0 0 1 35.199-24.375 11528 11528 0 0 1 35.289-24.238"/><path stroke="#000" d="M224.016-97.172q10.697 14.325 21.519 28.559a4266 4266 0 0 0 21.754 28.383m-65.004-95.036a494 494 0 0 0-10.996-29.664 495 495 0 0 0-12.863-28.902"/><path stroke="red" stroke-dasharray="0 9.58274" d="M191.867-210.504q25.981 4.488 51.949 9.035c17.317 3.031 34.625 6.078 51.934 9.145"/><path stroke="#000" d="M74.18-28.523a195.5 195.5 0 0 0 33.039 5.062c11.136.742 22.316.531 33.418-.629m44.187 1.469a372 372 0 0 0 36.867 1.832c12.309 0 24.614-.613 36.864-1.832M44.676-223.723q25.845 1.83 51.68 3.77 25.84 1.937 51.667 3.98m70.067-82.363a507.6 507.6 0 0 1-37.035 64.813m60.515-65.774a1644 1644 0 0 0 63.461 92.543m-96.168-101.769a343453 343453 0 0 1-83.015 37.078 221774 221774 0 0 1-83.032 37.05m148.309 130.043a55014 55014 0 0 0-59.777 31.922 58431 58431 0 0 0-59.735 32.004M291.23-369.383a1031 1031 0 0 1 14.668 79.039 1029 1029 0 0 1 8.457 79.942M265.93-391.27a467 467 0 0 0-92.164 0m100.464 17.274a1398 1398 0 0 0-15.843 19.457 1445 1445 0 0 0-15.508 19.726m-29.832 2.02a415.5 415.5 0 0 1-45.383-43.223"/><path stroke="red" stroke-dasharray="0 10.1772" d="M24.09-247.445a679 679 0 0 1 1.316-61.063 679 679 0 0 1 6.801-60.691"/><path stroke="#000" d="M55.797-391.27a365.5 365.5 0 0 1 73.73 0M36.2-242.836a11796 11796 0 0 1 50.698-65.668 11838 11838 0 0 1 51.168-65.305M37.707-107.777a467 467 0 0 0 4.336 28.175 468 468 0 0 0 6.039 27.86"/></g><path d="M27.277-225.371c0-1.887-.113-3.723-.93-5.449-.933-1.887-2.566-2.387-3.683-2.387-1.316 0-2.93.656-3.77 2.543-.636 1.43-.863 2.84-.863 5.293 0 2.207.16 3.863.977 5.476.887 1.727 2.453 2.274 3.637 2.274 1.976 0 3.113-1.184 3.77-2.5.82-1.707.862-3.934.862-5.25m-4.632 7.293c-.727 0-2.207-.406-2.637-2.887-.25-1.359-.25-3.09-.25-4.676 0-1.867 0-3.547.363-4.886.387-1.524 1.547-2.227 2.524-2.227.863 0 2.18.524 2.613 2.477.293 1.293.293 3.089.293 4.636 0 1.52 0 3.246-.25 4.633-.43 2.5-1.863 2.93-2.656 2.93m141 188.215c0-.524 0-.543-.457-.543-.543.61-1.68 1.453-4.02 1.453v.656c.523 0 1.66 0 2.906-.59v11.836c0 .82-.066 1.09-2.066 1.09h-.703v.66c.613-.043 2.816-.043 3.566-.043s2.93 0 3.543.043v-.66h-.703c-2 0-2.066-.27-2.066-1.09zm121.453 10.746h-.5c-.071.387-.25 1.637-.481 2-.156.203-1.453.203-2.133.203h-4.203c.614-.523 2-1.977 2.59-2.52 3.453-3.183 4.727-4.363 4.727-6.613 0-2.613-2.071-4.36-4.703-4.36-2.637 0-4.18 2.247-4.18 4.204 0 1.156 1 1.156 1.066 1.156.477 0 1.067-.34 1.067-1.066 0-.637-.43-1.067-1.067-1.067-.203 0-.25 0-.316.02.43-1.543 1.656-2.59 3.133-2.59 1.933 0 3.113 1.613 3.113 3.703 0 1.93-1.113 3.613-2.406 5.067l-4.59 5.136v.543h8.293zM50.781-30.855c-.386.023-.476.043-.476.25 0 .226.113.226.52.226h1.046c1.93 0 2.793 1.59 2.793 3.77 0 2.976-1.543 3.773-2.656 3.773-1.09 0-2.953-.523-3.614-2.023.727.113 1.387-.293 1.387-1.114 0-.656-.476-1.113-1.113-1.113-.547 0-1.137.32-1.137 1.184 0 2.02 2.024 3.68 4.543 3.68 2.703 0 4.703-2.067 4.703-4.364 0-2.09-1.68-3.727-3.863-4.11 1.977-.57 3.25-2.226 3.25-4 0-1.796-1.863-3.113-4.066-3.113-2.27 0-3.953 1.387-3.953 3.043 0 .91.703 1.094 1.046 1.094.477 0 1.02-.344 1.02-1.023 0-.727-.543-1.047-1.043-1.047-.137 0-.184 0-.25.023.863-1.543 2.996-1.543 3.113-1.543.75 0 2.227.34 2.227 2.567 0 .43-.07 1.703-.727 2.68-.683 1-1.457 1.07-2.07 1.09zm162.52-91.434c0-.434 0-.547-.317-.547-.183 0-.25 0-.433.273l-6.836 10.61v.66h5.973v2.066c0 .84-.043 1.067-1.704 1.067h-.453v.66c.524-.047 2.317-.047 2.953-.047.637 0 2.454 0 2.977.047v-.66h-.457c-1.633 0-1.703-.227-1.703-1.067v-2.066h2.297v-.66h-2.297zm-1.5 1.773v8.563h-5.52zm-44.395-99.5a6.8 6.8 0 0 0 2.024.34c2.566 0 4.203-1.887 4.203-2.207 0-.09-.043-.203-.18-.203-.047 0-.094 0-.297.094a7.5 7.5 0 0 1-2.953.609c-1.5 0-2.566-.453-3-.633-.16-.07-.207-.07-.226-.07-.18 0-.18.137-.18.5v6.746c0 .41 0 .547.269.547.114 0 .137-.023.364-.297a3.43 3.43 0 0 1 2.84-1.473c1.207 0 1.796 1.11 1.976 1.497.387.886.41 2 .41 2.863s0 2.16-.636 3.18c-.5.82-1.387 1.386-2.387 1.386a3.51 3.51 0 0 1-3.383-2.679c.113.043.25.07.363.07.383 0 1-.231 1-1 0-.637-.433-1-1-1-.41 0-1 .203-1 1.09 0 1.929 1.543 4.133 4.067 4.133 2.566 0 4.816-2.157 4.816-5.043 0-2.704-1.816-4.954-4.203-4.954-1.297 0-2.297.567-2.887 1.204zM30.895-130.105c0-5.75 2.793-6.657 4.02-6.657.82 0 1.636.25 2.07.93-.274 0-1.137 0-1.137.934 0 .5.34.929.93.929.57 0 .956-.34.956-1 0-1.179-.867-2.34-2.843-2.34-2.86 0-5.86 2.93-5.86 7.93 0 6.246 2.727 7.656 4.657 7.656 2.476 0 4.59-2.16 4.59-5.113 0-3.019-2.114-5.043-4.383-5.043-2.024 0-2.774 1.75-3 2.387zm2.793 7.769c-1.43 0-2.11-1.273-2.317-1.75-.203-.59-.43-1.703-.43-3.293 0-1.797.817-4.043 2.864-4.043 1.246 0 1.906.84 2.246 1.609.363.844.363 1.977.363 2.954 0 1.16 0 2.183-.43 3.046-.57 1.09-1.386 1.477-2.297 1.477m289.106-72.973v-.523h-5.477c-2.75 0-2.793-.297-2.886-.727h-.5l-.703 4.543h.5c.07-.406.273-1.816.57-2.066.18-.137 1.883-.137 2.199-.137h4.817l-2.407 3.453c-.613.887-2.91 4.614-2.91 8.883 0 .25 0 1.16.934 1.16.953 0 .953-.886.953-1.183v-1.133c0-3.387.547-6.024 1.613-7.543zM230.27-318.402c1.136-.614 2.793-1.657 2.793-3.567 0-1.976-1.907-3.34-3.997-3.34-2.25 0-4.019 1.661-4.019 3.727 0 .773.226 1.543.859 2.316.25.297.274.321 1.867 1.434-2.207 1.019-3.343 2.543-3.343 4.199 0 2.41 2.297 3.91 4.613 3.91 2.523 0 4.637-1.863 4.637-4.25 0-2.316-1.637-3.34-3.41-4.429m-3.09-2.043c-.297-.203-1.203-.797-1.203-1.91 0-1.477 1.546-2.407 3.066-2.407 1.637 0 3.09 1.18 3.09 2.817 0 1.386-1 2.5-2.317 3.226zm1.066 2.929 2.75 1.797c.594.383 1.637 1.09 1.637 2.477 0 1.726-1.75 2.906-3.567 2.906-1.933 0-3.589-1.41-3.589-3.297 0-1.769 1.296-3.203 2.769-3.883m-73.832-73.093c0 5.359-2.383 6.472-3.746 6.472-.547 0-1.75-.066-2.32-.863h.136c.161.047.981-.09.981-.93 0-.5-.344-.933-.934-.933s-.953.386-.953.976c0 1.41 1.137 2.364 3.11 2.364 2.843 0 5.589-3.02 5.589-7.954 0-6.109-2.543-7.632-4.543-7.632-2.5 0-4.703 2.093-4.703 5.089 0 3 2.114 5.043 4.383 5.043 1.684 0 2.547-1.226 3-2.382zm-2.906 1.179c-1.43 0-2.043-1.16-2.25-1.59-.363-.863-.363-1.953-.363-2.976 0-1.274 0-2.363.589-3.293.411-.617 1.024-1.274 2.25-1.274 1.297 0 1.954 1.137 2.18 1.657.457 1.117.457 3.047.457 3.386 0 1.911-.863 4.09-2.863 4.09m-122.363-9.133c0-.523 0-.546-.457-.546-.543.613-1.68 1.453-4.02 1.453v.66c.523 0 1.66 0 2.906-.59v11.836c0 .82-.066 1.09-2.066 1.09h-.703v.66c.613-.047 2.816-.047 3.566-.047s2.93 0 3.543.047v-.66h-.703c-2 0-2.066-.27-2.066-1.09zm14.734 7.293c0-1.886-.113-3.726-.934-5.453-.93-1.886-2.566-2.386-3.68-2.386-1.316 0-2.93.66-3.769 2.546-.637 1.43-.863 2.84-.863 5.293 0 2.204.156 3.864.976 5.473.883 1.727 2.453 2.274 3.633 2.274 1.977 0 3.114-1.18 3.774-2.5.816-1.704.863-3.93.863-5.247m-4.637 7.293c-.726 0-2.203-.41-2.633-2.886-.25-1.364-.25-3.09-.25-4.68 0-1.863 0-3.547.364-4.883.386-1.523 1.543-2.226 2.52-2.226.862 0 2.183.519 2.612 2.476.297 1.293.297 3.086.297 4.633 0 1.523 0 3.25-.25 4.637-.433 2.496-1.863 2.929-2.66 2.929m244.203-14.586c0-.523 0-.546-.457-.546-.543.613-1.679 1.453-4.019 1.453v.66c.523 0 1.66 0 2.906-.59v11.836c0 .82-.066 1.09-2.066 1.09h-.707v.66c.617-.047 2.82-.047 3.57-.047s2.93 0 3.543.047v-.66h-.703c-2 0-2.067-.27-2.067-1.09zm11.098 0c0-.523 0-.546-.453-.546-.547.613-1.684 1.453-4.024 1.453v.66c.524 0 1.661 0 2.911-.59v11.836c0 .82-.071 1.09-2.071 1.09h-.703v.66c.613-.047 2.817-.047 3.567-.047s2.933 0 3.543.047v-.66h-.704c-2 0-2.066-.27-2.066-1.09zM131.191-192.809v-.523h-5.476c-2.746 0-2.793-.297-2.883-.727h-.5l-.703 4.543h.5c.066-.406.269-1.816.566-2.066.184-.137 1.883-.137 2.203-.137h4.817l-2.41 3.453c-.61.887-2.907 4.614-2.907 8.883 0 .25 0 1.16.93 1.16.957 0 .957-.886.957-1.183v-1.133c0-3.387.543-6.024 1.613-7.543zm-15.046 82.145c0-.524 0-.543-.457-.543-.543.613-1.68 1.453-4.02 1.453v.66c.523 0 1.66 0 2.906-.594v11.836c0 .82-.066 1.094-2.066 1.094h-.703v.656c.613-.042 2.816-.042 3.566-.042s2.93 0 3.543.042v-.656h-.703c-2 0-2.066-.273-2.066-1.094zm7.464 1.547c.977.316 1.77.34 2.02.34 2.566 0 4.203-1.887 4.203-2.203 0-.09-.043-.208-.18-.208-.047 0-.089 0-.297.094a7.5 7.5 0 0 1-2.953.614c-1.5 0-2.566-.458-3-.637-.16-.071-.203-.071-.226-.071-.18 0-.18.141-.18.5v6.75c0 .407 0 .547.27.547.117 0 .136-.023.367-.297.633-.933 1.703-1.476 2.836-1.476 1.207 0 1.797 1.113 1.976 1.5.387.883.41 2 .41 2.859 0 .868 0 2.16-.636 3.184-.5.816-1.383 1.387-2.383 1.387a3.515 3.515 0 0 1-3.387-2.684 1 1 0 0 0 .364.07c.386 0 1-.23 1-1 0-.636-.43-1-1-1-.407 0-1 .203-1 1.09 0 1.93 1.546 4.133 4.066 4.133 2.566 0 4.816-2.156 4.816-5.043 0-2.703-1.816-4.949-4.203-4.949-1.293 0-2.293.566-2.883 1.203zm-80.23-69.84c-.387.023-.477.047-.477.25 0 .227.114.227.524.227h1.043c1.933 0 2.797 1.589 2.797 3.773 0 2.977-1.547 3.769-2.657 3.769-1.093 0-2.957-.523-3.613-2.019.727.113 1.387-.297 1.387-1.113 0-.66-.48-1.114-1.117-1.114-.543 0-1.133.317-1.133 1.18 0 2.024 2.02 3.68 4.543 3.68 2.703 0 4.703-2.067 4.703-4.36 0-2.089-1.684-3.726-3.863-4.113 1.976-.57 3.25-2.226 3.25-4 0-1.793-1.864-3.109-4.067-3.109-2.273 0-3.953 1.383-3.953 3.043 0 .91.703 1.09 1.043 1.09.477 0 1.023-.34 1.023-1.024 0-.726-.546-1.043-1.046-1.043-.133 0-.18 0-.25.024.867-1.547 3-1.547 3.113-1.547.75 0 2.227.34 2.227 2.566 0 .434-.067 1.703-.727 2.684-.68.996-1.453 1.066-2.066 1.09zm238.801 68.402c-.387.024-.477.043-.477.25 0 .227.113.227.524.227h1.043c1.933 0 2.796 1.59 2.796 3.769 0 2.977-1.546 3.774-2.66 3.774-1.09 0-2.953-.524-3.609-2.024.726.114 1.383-.293 1.383-1.113 0-.656-.477-1.113-1.114-1.113-.543 0-1.136.316-1.136 1.183 0 2.02 2.023 3.68 4.547 3.68 2.703 0 4.703-2.07 4.703-4.363 0-2.09-1.684-3.727-3.864-4.113 1.977-.567 3.247-2.223 3.247-3.997 0-1.796-1.86-3.113-4.067-3.113-2.269 0-3.949 1.387-3.949 3.043 0 .91.699 1.094 1.043 1.094.476 0 1.023-.344 1.023-1.024 0-.726-.547-1.046-1.047-1.046-.136 0-.179 0-.25.023.864-1.547 3-1.547 3.114-1.547.75 0 2.226.344 2.226 2.57 0 .43-.066 1.704-.726 2.68-.684 1-1.453 1.067-2.067 1.09zm-16.688 24.047v-.523h-5.476c-2.75 0-2.793-.297-2.883-.727h-.5l-.707 4.543h.5c.07-.41.273-1.816.57-2.066.18-.137 1.883-.137 2.203-.137h4.817l-2.411 3.453c-.613.887-2.906 4.613-2.906 8.883 0 .25 0 1.16.93 1.16.957 0 .957-.887.957-1.184v-1.136c0-3.383.543-6.02 1.609-7.54zm-94.183-77.711c.976.321 1.769.34 2.019.34 2.57 0 4.203-1.883 4.203-2.203 0-.09-.043-.203-.179-.203-.047 0-.09 0-.297.09a7.4 7.4 0 0 1-2.953.613 7.4 7.4 0 0 1-3-.637c-.157-.066-.204-.066-.223-.066-.184 0-.184.137-.184.5v6.746c0 .41 0 .547.274.547.113 0 .133-.024.363-.297a3.43 3.43 0 0 1 2.84-1.477c1.203 0 1.793 1.114 1.976 1.5.383.887.407 2 .407 2.864s0 2.16-.633 3.179c-.5.817-1.387 1.387-2.387 1.387a3.516 3.516 0 0 1-3.387-2.68c.114.043.25.067.364.067.386 0 1-.227 1-1 0-.637-.43-1-1-1-.407 0-1 .207-1 1.09 0 1.933 1.547 4.136 4.066 4.136 2.57 0 4.82-2.16 4.82-5.043 0-2.703-1.82-4.953-4.203-4.953-1.297 0-2.297.567-2.886 1.203zm-62.411 126h-.5c-.07.387-.25 1.637-.48 2-.156.207-1.453.207-2.133.207h-4.203c.613-.523 1.996-1.976 2.59-2.523 3.449-3.18 4.726-4.363 4.726-6.61 0-2.613-2.07-4.363-4.703-4.363-2.636 0-4.183 2.25-4.183 4.203 0 1.157 1 1.157 1.07 1.157.477 0 1.066-.34 1.066-1.067 0-.637-.429-1.066-1.066-1.066-.203 0-.25 0-.32.023.433-1.547 1.66-2.594 3.136-2.594 1.93 0 3.114 1.618 3.114 3.707 0 1.93-1.114 3.61-2.41 5.067l-4.59 5.133v.547h8.293zm4.008-9.199a6.8 6.8 0 0 0 2.024.34c2.566 0 4.203-1.883 4.203-2.203 0-.09-.043-.203-.18-.203-.047 0-.094 0-.297.09a7.5 7.5 0 0 1-2.953.613c-1.5 0-2.566-.453-3-.637-.16-.066-.207-.066-.226-.066-.18 0-.18.136-.18.5v6.746c0 .41 0 .547.269.547.114 0 .137-.024.364-.297a3.42 3.42 0 0 1 2.84-1.477c1.207 0 1.796 1.113 1.976 1.5.387.887.41 2 .41 2.863 0 .864 0 2.157-.636 3.18-.5.816-1.387 1.387-2.387 1.387a3.51 3.51 0 0 1-3.383-2.684c.113.047.25.07.363.07.383 0 1-.226 1-1 0-.636-.433-1-1-1-.41 0-1 .204-1 1.09 0 1.934 1.543 4.137 4.067 4.137 2.566 0 4.816-2.16 4.816-5.047 0-2.703-1.816-4.949-4.203-4.949-1.297 0-2.297.566-2.887 1.203zm110.864 7.316c1.136-.613 2.793-1.656 2.793-3.566 0-1.977-1.907-3.34-3.997-3.34-2.25 0-4.019 1.656-4.019 3.727 0 .773.226 1.543.859 2.316.25.297.274.317 1.867 1.434-2.207 1.02-3.343 2.543-3.343 4.199 0 2.41 2.297 3.91 4.613 3.91 2.523 0 4.637-1.863 4.637-4.25 0-2.316-1.637-3.34-3.41-4.43m-3.09-2.046c-.297-.204-1.203-.793-1.203-1.907 0-1.476 1.546-2.406 3.066-2.406 1.637 0 3.09 1.18 3.09 2.816 0 1.387-1 2.497-2.317 3.223zm1.066 2.933 2.75 1.793c.594.387 1.637 1.094 1.637 2.477 0 1.726-1.75 2.91-3.567 2.91-1.933 0-3.589-1.41-3.589-3.297 0-1.77 1.296-3.203 2.769-3.883M102.098-234.816h-.5c-.071.386-.25 1.636-.481 2-.156.203-1.453.203-2.133.203h-4.203c.613-.524 2-1.977 2.59-2.52 3.453-3.183 4.727-4.363 4.727-6.613 0-2.613-2.071-4.363-4.704-4.363-2.636 0-4.183 2.25-4.183 4.203 0 1.16 1 1.16 1.07 1.16.477 0 1.067-.344 1.067-1.067 0-.636-.43-1.07-1.067-1.07-.203 0-.25 0-.32.024.433-1.547 1.66-2.59 3.137-2.59 1.933 0 3.113 1.613 3.113 3.703 0 1.93-1.113 3.613-2.406 5.066l-4.594 5.133v.547h8.297zm110.445-29.149c0-.519 0-.543-.453-.543-.547.613-1.684 1.453-4.024 1.453v.66c.524 0 1.661 0 2.911-.589v11.836c0 .816-.071 1.089-2.071 1.089h-.703v.661c.613-.047 2.817-.047 3.567-.047s2.933 0 3.543.047v-.661h-.704c-2 0-2.066-.273-2.066-1.089zm15.348.457v-.523h-5.477c-2.746 0-2.793-.297-2.883-.727h-.5l-.703 4.543h.5c.067-.406.274-1.816.567-2.066.183-.137 1.886-.137 2.203-.137h4.816l-2.406 3.453c-.613.887-2.91 4.613-2.91 8.883 0 .25 0 1.16.933 1.16.953 0 .953-.887.953-1.183v-1.137c0-3.383.547-6.02 1.614-7.539zm62.726 1.598c0 5.359-2.387 6.472-3.75 6.472-.547 0-1.75-.066-2.32-.863h.141c.156.047.976-.09.976-.929 0-.5-.344-.934-.934-.934-.589 0-.953.387-.953.976 0 1.411 1.137 2.364 3.114 2.364 2.839 0 5.586-3.02 5.586-7.949 0-6.114-2.543-7.633-4.543-7.633-2.496 0-4.704 2.09-4.704 5.086 0 3 2.114 5.047 4.387 5.047 1.68 0 2.543-1.231 3-2.387zm-2.91 1.18c-1.43 0-2.043-1.161-2.25-1.59-.363-.864-.363-1.953-.363-2.977 0-1.273 0-2.363.59-3.293.41-.613 1.023-1.273 2.25-1.273 1.296 0 1.953 1.136 2.183 1.66.453 1.113.453 3.043.453 3.383 0 1.91-.863 4.09-2.863 4.09m-158.965-1.133c0-.524 0-.543-.453-.543-.547.609-1.68 1.453-4.023 1.453v.656c.523 0 1.66 0 2.91-.59v11.836c0 .821-.067 1.09-2.067 1.09h-.707v.66c.614-.043 2.817-.043 3.567-.043s2.933 0 3.547.043v-.66h-.703c-2 0-2.071-.269-2.071-1.09zm11.203 0c0-.524 0-.543-.457-.543-.543.609-1.679 1.453-4.019 1.453v.656c.523 0 1.66 0 2.906-.59v11.836c0 .821-.066 1.09-2.066 1.09h-.707v.66c.617-.043 2.82-.043 3.57-.043s2.93 0 3.543.043v-.66h-.703c-2 0-2.067-.269-2.067-1.09zm-2.652 205.058c0-5.75 2.797-6.656 4.023-6.656.817 0 1.637.25 2.067.93-.274 0-1.137 0-1.137.93 0 .5.344.933.934.933.566 0 .953-.34.953-1 0-1.184-.863-2.34-2.84-2.34-2.863 0-5.863 2.93-5.863 7.93 0 6.246 2.726 7.656 4.66 7.656 2.476 0 4.59-2.16 4.59-5.113 0-3.02-2.114-5.043-4.387-5.043-2.02 0-2.77 1.75-3 2.387zm2.797 7.77c-1.434 0-2.113-1.274-2.317-1.75-.207-.59-.433-1.703-.433-3.293 0-1.797.816-4.047 2.863-4.047 1.25 0 1.906.844 2.25 1.613.363.84.363 1.977.363 2.953 0 1.16 0 2.184-.433 3.047-.567 1.09-1.387 1.477-2.293 1.477m179.355-251.93c0-.519 0-.543-.457-.543-.543.613-1.679 1.453-4.019 1.453v.66c.523 0 1.66 0 2.906-.589v11.836c0 .816-.066 1.089-2.066 1.089h-.707v.661c.617-.047 2.82-.047 3.57-.047s2.93 0 3.543.047v-.661h-.703c-2 0-2.067-.273-2.067-1.089zm12.758-.226c0-.43 0-.543-.32-.543-.18 0-.25 0-.43.269l-6.84 10.613v.657h5.977v2.066c0 .844-.047 1.07-1.707 1.07h-.453v.661c.523-.047 2.316-.047 2.953-.047s2.457 0 2.976.047v-.661h-.453c-1.636 0-1.703-.226-1.703-1.07v-2.066h2.293v-.657h-2.293zm-1.5 1.773v8.566h-5.523zm-116.359-82.945c0-.524 0-.543-.453-.543-.547.609-1.684 1.453-4.024 1.453v.656c.524 0 1.66 0 2.906-.59v11.836c0 .821-.066 1.09-2.066 1.09h-.703v.66c.613-.043 2.816-.043 3.566-.043s2.934 0 3.543.043v-.66h-.703c-2 0-2.066-.269-2.066-1.09zm11.101 0c0-.524 0-.543-.457-.543-.543.609-1.679 1.453-4.019 1.453v.656c.523 0 1.66 0 2.906-.59v11.836c0 .821-.066 1.09-2.066 1.09h-.707v.66c.617-.043 2.82-.043 3.57-.043s2.93 0 3.543.043v-.66h-.703c-2 0-2.067-.269-2.067-1.09zm49.856 31.972c0-.429 0-.547-.317-.547-.183 0-.25 0-.433.274l-6.836 10.609v.66h5.973v2.067c0 .844-.043 1.07-1.704 1.07h-.453v.656c.524-.043 2.317-.043 2.953-.043.637 0 2.454 0 2.977.043v-.656h-.457c-1.633 0-1.703-.226-1.703-1.07v-2.067h2.297v-.66h-2.297zm-1.5 1.774v8.562h-5.52zm-101.059 1.652c0-.519 0-.543-.453-.543-.547.613-1.68 1.453-4.023 1.453v.66c.523 0 1.66 0 2.91-.589v11.836c0 .816-.067 1.089-2.067 1.089h-.707v.661c.614-.047 2.817-.047 3.567-.047s2.933 0 3.547.047v-.661h-.703c-2 0-2.071-.273-2.071-1.089zm14.555 10.746h-.5c-.07.387-.25 1.637-.477 2-.16.207-1.453.207-2.136.207h-4.204c.614-.523 2-1.976 2.59-2.523 3.453-3.18 4.727-4.363 4.727-6.61 0-2.613-2.07-4.363-4.703-4.363-2.637 0-4.18 2.25-4.18 4.203 0 1.157 1 1.157 1.066 1.157.477 0 1.067-.34 1.067-1.067 0-.637-.43-1.066-1.067-1.066-.203 0-.25 0-.316.023.43-1.547 1.656-2.594 3.133-2.594 1.933 0 3.113 1.618 3.113 3.707 0 1.93-1.113 3.61-2.406 5.067l-4.59 5.133v.547h8.293zM87.145-418.762c0-.523 0-.547-.457-.547-.544.614-1.68 1.454-4.02 1.454v.66c.523 0 1.66 0 2.906-.59v11.836c0 .816-.066 1.09-2.066 1.09h-.703v.66c.613-.047 2.816-.047 3.566-.047s2.93 0 3.543.047v-.66h-.703c-2 0-2.067-.274-2.067-1.09zm11.324 6.36c1.137-.614 2.797-1.657 2.797-3.567 0-1.976-1.91-3.34-4-3.34-2.25 0-4.02 1.661-4.02 3.727 0 .773.227 1.543.863 2.316.25.297.274.321 1.864 1.434-2.207 1.019-3.34 2.543-3.34 4.199 0 2.41 2.293 3.91 4.61 3.91 2.523 0 4.636-1.863 4.636-4.25 0-2.316-1.637-3.34-3.41-4.429m-3.09-2.043c-.293-.203-1.203-.797-1.203-1.91 0-1.477 1.547-2.407 3.066-2.407 1.637 0 3.09 1.18 3.09 2.817 0 1.386-1 2.5-2.316 3.226zm1.07 2.929 2.746 1.797c.594.383 1.637 1.09 1.637 2.477 0 1.726-1.746 2.906-3.566 2.906-1.93 0-3.59-1.41-3.59-3.297 0-1.769 1.297-3.203 2.773-3.883m-28.707 84.551c0-.519 0-.543-.453-.543-.547.613-1.68 1.453-4.023 1.453v.66c.523 0 1.66 0 2.91-.589v11.836c0 .816-.067 1.089-2.067 1.089h-.707v.661c.614-.047 2.817-.047 3.567-.047s2.933 0 3.547.047v-.661h-.704c-2 0-2.07-.273-2.07-1.089zm14.735 7.293c0-1.883-.114-3.723-.93-5.449-.93-1.887-2.566-2.387-3.68-2.387-1.32 0-2.93.656-3.773 2.543-.633 1.434-.863 2.844-.863 5.293 0 2.207.16 3.863.976 5.477.887 1.726 2.457 2.273 3.637 2.273 1.976 0 3.113-1.183 3.77-2.5.82-1.707.863-3.93.863-5.25m-4.633 7.293c-.727 0-2.203-.406-2.637-2.883-.25-1.363-.25-3.09-.25-4.679 0-1.864 0-3.547.363-4.887.387-1.524 1.547-2.227 2.524-2.227.863 0 2.18.524 2.613 2.477.293 1.297.293 3.09.293 4.637 0 1.519 0 3.246-.25 4.632-.43 2.5-1.86 2.93-2.656 2.93M57.492-83.008c0-5.746 2.797-6.656 4.024-6.656.816 0 1.636.25 2.066.933-.27 0-1.137 0-1.137.93 0 .5.344.934.934.934.566 0 .953-.344.953-1 0-1.184-.863-2.34-2.84-2.34-2.863 0-5.86 2.93-5.86 7.926 0 6.25 2.727 7.656 4.657 7.656 2.477 0 4.59-2.156 4.59-5.11 0-3.023-2.113-5.042-4.387-5.042-2.02 0-2.77 1.75-3 2.386zm2.797 7.774c-1.43 0-2.113-1.274-2.316-1.75-.207-.594-.434-1.704-.434-3.297 0-1.793.82-4.043 2.863-4.043 1.25 0 1.91.84 2.25 1.613.364.84.364 1.977.364 2.953 0 1.16 0 2.18-.434 3.047-.566 1.09-1.387 1.477-2.293 1.477"/></g></svg>