<svg xmlns="http://www.w3.org/2000/svg" width="868" height="46pt" viewBox="0 -46 651 46"><g id="page1"><path fill="none" stroke="#000" stroke-linecap="round" stroke-linejoin="round" d="M.5-.504h649.629M.5-44.746h649.629M.5-.504v-44.242M46.902-.504v-44.242M93.305-.504v-44.242M139.707-.504v-44.242M186.109-.504v-44.242M232.508-.504v-44.242M278.91-.504v-44.242M325.313-.504v-44.242M371.715-.504v-44.242M418.117-.504v-44.242M464.52-.504v-44.242M510.922-.504v-44.242M557.324-.504v-44.242M603.727-.504v-44.242M650.129-.504v-44.242"/><path d="M18.883-31.918c0-.55 0-.574-.477-.574-.574.648-1.77 1.531-4.23 1.531v.691c.55 0 1.742 0 3.058-.62v12.449c0 .863-.074 1.148-2.175 1.148h-.739v.691c.64-.046 2.961-.046 3.75-.046s3.082 0 3.727.046v-.691h-.742c-2.102 0-2.172-.285-2.172-1.148zm13.445-.238c0-.453 0-.575-.336-.575-.191 0-.262 0-.453.286l-7.195 11.16v.695h6.285v2.176c0 .883-.047 1.121-1.793 1.121h-.477v.691c.551-.046 2.438-.046 3.11-.046.668 0 2.578 0 3.129.046v-.691h-.48c-1.72 0-1.79-.238-1.79-1.121v-2.176h2.414v-.695h-2.414zm-1.578 1.863v9.008h-5.809zm34.531-1.625c0-.55 0-.574-.476-.574-.575.648-1.77 1.531-4.23 1.531v.691c.55 0 1.745 0 3.058-.62v12.449c0 .863-.07 1.148-2.172 1.148h-.742v.691c.644-.046 2.96-.046 3.75-.046.789 0 3.086 0 3.726.046v-.691h-.738c-2.101 0-2.176-.285-2.176-1.148zm15.332 11.305h-.523c-.074.406-.262 1.718-.504 2.101-.164.215-1.527.215-2.246.215h-4.418c.644-.55 2.101-2.078 2.722-2.652 3.633-3.348 4.97-4.59 4.97-6.953 0-2.75-2.173-4.59-4.946-4.59-2.774 0-4.399 2.367-4.399 4.422 0 1.218 1.051 1.218 1.125 1.218.5 0 1.122-.359 1.122-1.125 0-.668-.454-1.12-1.122-1.12-.214 0-.261 0-.335.023.457-1.625 1.746-2.723 3.3-2.723 2.032 0 3.274 1.695 3.274 3.895 0 2.03-1.172 3.8-2.535 5.328l-4.829 5.402v.57h8.723zm31.071-11.305c0-.55 0-.574-.481-.574-.57.648-1.765 1.531-4.226 1.531v.691c.546 0 1.742 0 3.054-.62v12.449c0 .863-.07 1.148-2.172 1.148h-.742v.691c.645-.046 2.965-.046 3.754-.046.785 0 3.082 0 3.727.046v-.691h-.743c-2.101 0-2.171-.285-2.171-1.148zm7.875 1.625a7 7 0 0 0 2.129.36c2.699 0 4.417-1.985 4.417-2.317 0-.098-.046-.219-.191-.219-.047 0-.094 0-.309.098a7.85 7.85 0 0 1-3.109.644 7.8 7.8 0 0 1-3.152-.668c-.168-.074-.215-.074-.239-.074-.191 0-.191.145-.191.528v7.097c0 .43 0 .575.285.575.121 0 .145-.028.383-.313a3.61 3.61 0 0 1 2.988-1.55c1.266 0 1.887 1.167 2.078 1.573.407.934.43 2.106.43 3.012s0 2.27-.668 3.344c-.527.863-1.457 1.46-2.512 1.46a3.7 3.7 0 0 1-3.558-2.82c.121.047.262.07.383.07.406 0 1.05-.238 1.05-1.05 0-.668-.453-1.05-1.05-1.05-.43 0-1.051.214-1.051 1.148 0 2.03 1.625 4.347 4.277 4.347 2.699 0 5.067-2.27 5.067-5.304 0-2.844-1.914-5.211-4.422-5.211-1.364 0-2.414.597-3.035 1.265zm38.523-1.625c0-.55 0-.574-.477-.574-.574.648-1.769 1.531-4.23 1.531v.691c.551 0 1.742 0 3.059-.62v12.449c0 .863-.075 1.148-2.176 1.148h-.738v.691c.644-.046 2.96-.046 3.75-.046.789 0 3.082 0 3.726.046v-.691h-.738c-2.102 0-2.176-.285-2.176-1.148zm11.941 6.691c1.192-.644 2.938-1.746 2.938-3.75 0-2.082-2.008-3.515-4.207-3.515-2.363 0-4.231 1.746-4.231 3.922 0 .812.243 1.625.911 2.437.261.309.285.332 1.957 1.504-2.317 1.074-3.512 2.676-3.512 4.422 0 2.531 2.414 4.11 4.851 4.11 2.653 0 4.875-1.962 4.875-4.47 0-2.437-1.718-3.511-3.582-4.66m-3.25-2.152c-.312-.215-1.269-.836-1.269-2.004 0-1.555 1.625-2.535 3.226-2.535 1.723 0 3.25 1.242 3.25 2.965 0 1.457-1.05 2.625-2.437 3.39zm1.122 3.082 2.89 1.89c.621.407 1.723 1.15 1.723 2.606 0 1.817-1.84 3.059-3.754 3.059-2.031 0-3.774-1.485-3.774-3.465 0-1.863 1.36-3.371 2.915-4.09m38.543-.617c0-6.047 2.941-7.004 4.23-7.004.863 0 1.723.262 2.176.98-.289 0-1.196 0-1.196.981 0 .523.36.98.981.98.598 0 1.004-.359 1.004-1.054 0-1.242-.91-2.461-2.988-2.461-3.012 0-6.165 3.082-6.165 8.34 0 6.574 2.868 8.054 4.899 8.054 2.605 0 4.828-2.27 4.828-5.379 0-3.175-2.223-5.304-4.613-5.304-2.125 0-2.914 1.84-3.156 2.511zm2.941 8.172c-1.508 0-2.223-1.34-2.438-1.84-.214-.621-.453-1.793-.453-3.465 0-1.89.86-4.254 3.008-4.254 1.317 0 2.008.883 2.367 1.695.383.883.383 2.079.383 3.106 0 1.219 0 2.297-.453 3.203-.598 1.149-1.457 1.555-2.414 1.555m41.504-15.176c0-.55 0-.574-.477-.574-.574.648-1.769 1.531-4.23 1.531v.691c.551 0 1.742 0 3.058-.62v12.449c0 .863-.074 1.148-2.175 1.148h-.739v.691c.645-.046 2.961-.046 3.75-.046s3.082 0 3.727.046v-.691h-.742c-2.102 0-2.172-.285-2.172-1.148zm15.332 11.305h-.527c-.071.406-.262 1.718-.5 2.101-.168.215-1.532.215-2.247.215h-4.421c.644-.55 2.101-2.078 2.722-2.652 3.637-3.348 4.973-4.59 4.973-6.953 0-2.75-2.176-4.59-4.949-4.59-2.77 0-4.395 2.367-4.395 4.422 0 1.218 1.051 1.218 1.121 1.218.504 0 1.125-.359 1.125-1.125 0-.668-.453-1.12-1.125-1.12-.211 0-.262 0-.332.023.453-1.625 1.746-2.723 3.297-2.723 2.031 0 3.273 1.695 3.273 3.895 0 2.03-1.167 3.8-2.531 5.328l-4.828 5.402v.57h8.723zm40.598 0h-.524c-.07.406-.262 1.718-.5 2.101-.168.215-1.531.215-2.25.215h-4.418c.645-.55 2.102-2.078 2.723-2.652 3.633-3.348 4.969-4.59 4.969-6.953 0-2.75-2.172-4.59-4.946-4.59s-4.398 2.367-4.398 4.422c0 1.218 1.054 1.218 1.125 1.218.5 0 1.125-.359 1.125-1.125 0-.668-.457-1.12-1.125-1.12-.215 0-.262 0-.336.023.457-1.625 1.746-2.723 3.301-2.723 2.031 0 3.273 1.695 3.273 3.895 0 2.03-1.172 3.8-2.535 5.328l-4.828 5.402v.57h8.726zm36.871-11.305c0-.55 0-.574-.481-.574-.57.648-1.765 1.531-4.226 1.531v.691c.546 0 1.742 0 3.054-.62v12.449c0 .863-.07 1.148-2.172 1.148h-.742v.691c.645-.046 2.965-.046 3.754-.046.785 0 3.082 0 3.727.046v-.691h-.743c-2.101 0-2.171-.285-2.171-1.148zm7.875 1.625a7 7 0 0 0 2.129.36c2.699 0 4.417-1.985 4.417-2.317 0-.098-.046-.219-.191-.219-.047 0-.094 0-.309.098a7.85 7.85 0 0 1-3.109.644 7.8 7.8 0 0 1-3.152-.668c-.168-.074-.215-.074-.239-.074-.191 0-.191.145-.191.528v7.097c0 .43 0 .575.285.575.121 0 .145-.028.383-.313a3.61 3.61 0 0 1 2.988-1.55c1.266 0 1.887 1.167 2.078 1.573.407.934.43 2.106.43 3.012s0 2.27-.668 3.344c-.527.863-1.457 1.46-2.512 1.46a3.7 3.7 0 0 1-3.558-2.82c.121.047.262.07.383.07.406 0 1.05-.238 1.05-1.05 0-.668-.453-1.05-1.05-1.05-.43 0-1.051.214-1.051 1.148 0 2.03 1.625 4.347 4.277 4.347 2.699 0 5.067-2.27 5.067-5.304 0-2.844-1.914-5.211-4.422-5.211-1.364 0-2.414.597-3.035 1.265zm48.894-1.148v-.547h-5.762c-2.89 0-2.937-.313-3.035-.766h-.523l-.742 4.777h.523c.074-.43.289-1.91.602-2.171.187-.145 1.98-.145 2.316-.145h5.066l-2.535 3.633c-.644.933-3.058 4.851-3.058 9.344 0 .261 0 1.218.98 1.218 1.004 0 1.004-.933 1.004-1.242v-1.195c0-3.563.574-6.332 1.695-7.934zm45.754 7.195c0-1.985-.121-3.918-.98-5.738-.981-1.98-2.704-2.508-3.872-2.508-1.386 0-3.082.695-3.968 2.676-.668 1.507-.907 2.988-.907 5.57 0 2.316.168 4.062 1.028 5.758.93 1.816 2.582 2.39 3.824 2.39 2.078 0 3.273-1.242 3.965-2.629.859-1.793.91-4.132.91-5.52m-4.875 7.668c-.766 0-2.32-.43-2.773-3.031-.262-1.438-.262-3.25-.262-4.926 0-1.957 0-3.727.383-5.137.406-1.601 1.625-2.344 2.652-2.344.906 0 2.293.551 2.746 2.606.313 1.363.313 3.25.313 4.875 0 1.601 0 3.418-.262 4.875-.457 2.629-1.961 3.082-2.797 3.082m47.691-8.648c1.192-.644 2.938-1.746 2.938-3.75 0-2.082-2.008-3.515-4.207-3.515-2.363 0-4.231 1.746-4.231 3.922 0 .812.243 1.625.911 2.437.261.309.285.332 1.957 1.504-2.317 1.074-3.512 2.676-3.512 4.422 0 2.531 2.414 4.11 4.851 4.11 2.653 0 4.875-1.962 4.875-4.47 0-2.437-1.718-3.511-3.582-4.66m-3.25-2.152c-.312-.215-1.269-.836-1.269-2.004 0-1.555 1.625-2.535 3.226-2.535 1.723 0 3.25 1.242 3.25 2.965 0 1.457-1.05 2.625-2.437 3.39zm1.122 3.082 2.89 1.89c.621.407 1.723 1.15 1.723 2.606 0 1.817-1.84 3.059-3.754 3.059-2.031 0-3.774-1.485-3.774-3.465 0-1.863 1.36-3.371 2.915-4.09m42.386-7.621c0-.55 0-.574-.476-.574-.575.648-1.77 1.531-4.231 1.531v.691c.551 0 1.746 0 3.059-.62v12.449c0 .863-.07 1.148-2.172 1.148h-.742v.691c.644-.046 2.961-.046 3.75-.046s3.086 0 3.726.046v-.691h-.738c-2.102 0-2.176-.285-2.176-1.148zm7.758 7.004c0-6.047 2.938-7.004 4.231-7.004.859 0 1.718.262 2.175.98-.289 0-1.199 0-1.199.981 0 .523.363.98.981.98.601 0 1.007-.359 1.007-1.054 0-1.242-.91-2.461-2.988-2.461-3.012 0-6.168 3.082-6.168 8.34 0 6.574 2.867 8.054 4.899 8.054 2.605 0 4.828-2.27 4.828-5.379 0-3.175-2.223-5.304-4.61-5.304-2.129 0-2.918 1.84-3.156 2.511zm2.938 8.172c-1.504 0-2.219-1.34-2.434-1.84-.215-.621-.453-1.793-.453-3.465 0-1.89.855-4.254 3.008-4.254 1.316 0 2.007.883 2.367 1.695.383.883.383 2.079.383 3.106 0 1.219 0 2.297-.457 3.203-.594 1.149-1.457 1.555-2.414 1.555m35.707-15.176c0-.55 0-.574-.481-.574-.57.648-1.765 1.531-4.226 1.531v.691c.546 0 1.742 0 3.054-.62v12.449c0 .863-.07 1.148-2.172 1.148h-.742v.691c.645-.046 2.965-.046 3.754-.046.785 0 3.082 0 3.727.046v-.691h-.743c-2.101 0-2.171-.285-2.171-1.148zm9.214 6.738c-.406.024-.503.047-.503.266 0 .238.121.238.55.238h1.098c2.031 0 2.941 1.672 2.941 3.965 0 3.133-1.625 3.969-2.796 3.969-1.145 0-3.106-.551-3.801-2.13.765.122 1.457-.308 1.457-1.167 0-.695-.5-1.172-1.168-1.172-.574 0-1.196.332-1.196 1.242 0 2.125 2.125 3.871 4.778 3.871 2.844 0 4.949-2.175 4.949-4.59 0-2.195-1.769-3.918-4.062-4.324 2.078-.597 3.418-2.34 3.418-4.207 0-1.886-1.961-3.273-4.282-3.273-2.386 0-4.156 1.457-4.156 3.203 0 .957.742 1.148 1.102 1.148.5 0 1.074-.359 1.074-1.078 0-.765-.574-1.097-1.102-1.097-.144 0-.191 0-.261.023.906-1.625 3.156-1.625 3.273-1.625.789 0 2.344.36 2.344 2.7 0 .452-.075 1.792-.766 2.82-.719 1.05-1.531 1.125-2.176 1.148zm37.184-6.738c0-.55 0-.574-.477-.574-.574.648-1.769 1.531-4.23 1.531v.691c.551 0 1.742 0 3.059-.62v12.449c0 .863-.075 1.148-2.176 1.148h-.738v.691c.644-.046 2.96-.046 3.75-.046.789 0 3.082 0 3.726.046v-.691h-.738c-2.102 0-2.176-.285-2.176-1.148zm7.879 1.625a7 7 0 0 0 2.125.36c2.699 0 4.422-1.985 4.422-2.317 0-.098-.047-.219-.192-.219-.05 0-.097 0-.312.098a7.8 7.8 0 0 1-3.106.644c-1.578 0-2.699-.476-3.156-.668-.164-.074-.215-.074-.238-.074-.191 0-.191.145-.191.528v7.097c0 .43 0 .575.289.575.117 0 .14-.028.382-.313.668-.98 1.789-1.55 2.985-1.55 1.265 0 1.89 1.167 2.078 1.573.406.934.433 2.106.433 3.012s0 2.27-.671 3.344c-.524.863-1.457 1.46-2.508 1.46a3.694 3.694 0 0 1-3.559-2.82c.117.047.262.07.379.07.406 0 1.051-.238 1.051-1.05 0-.668-.453-1.05-1.051-1.05-.43 0-1.051.214-1.051 1.148 0 2.03 1.625 4.347 4.278 4.347 2.699 0 5.066-2.27 5.066-5.304 0-2.844-1.91-5.211-4.422-5.211-1.359 0-2.414.597-3.031 1.265z"/></g></svg>