<svg xmlns="http://www.w3.org/2000/svg" width="487pt" height="46pt" viewBox="0 -46 487 46"><g id="page1"><path fill="none" stroke="#000" stroke-linecap="round" stroke-linejoin="round" d="M.5-.504h485.742M.5-44.746h485.742M.5-.504v-44.242M35.195-.504v-44.242M69.89-.504v-44.242m34.7 44.242v-44.242M139.285-.504v-44.242M173.98-.504v-44.242M208.676-.504v-44.242M243.371-.504v-44.242M278.066-.504v-44.242M312.762-.504v-44.242M347.461-.504v-44.242M382.156-.504v-44.242M416.852-.504v-44.242M451.547-.504v-44.242M486.242-.504v-44.242"/><path d="M22.707-24.246c0-1.985-.121-3.918-.98-5.738-.98-1.98-2.704-2.508-3.872-2.508-1.386 0-3.082.695-3.968 2.676-.668 1.507-.907 2.988-.907 5.57 0 2.316.168 4.062 1.028 5.758.93 1.816 2.578 2.39 3.824 2.39 2.078 0 3.273-1.242 3.965-2.629.86-1.793.91-4.132.91-5.52m-4.875 7.668c-.766 0-2.32-.43-2.773-3.031-.262-1.438-.262-3.25-.262-4.926 0-1.957 0-3.727.383-5.137.406-1.601 1.625-2.344 2.652-2.344.906 0 2.293.551 2.746 2.606.313 1.363.313 3.25.313 4.875 0 1.601 0 3.418-.266 4.875-.453 2.629-1.957 3.082-2.793 3.082m35.75-15.339c0-.55 0-.574-.477-.574-.574.648-1.77 1.531-4.23 1.531v.691c.55 0 1.742 0 3.059-.62v12.449c0 .863-.075 1.148-2.176 1.148h-.739v.691c.645-.046 2.962-.046 3.75-.046.79 0 3.083 0 3.727.046v-.691h-.738c-2.102 0-2.176-.285-2.176-1.148zm34.699 0c0-.55 0-.574-.476-.574-.575.648-1.77 1.531-4.23 1.531v.691c.55 0 1.745 0 3.058-.62v12.449c0 .863-.07 1.148-2.172 1.148h-.742v.691c.644-.046 2.96-.046 3.75-.046.789 0 3.086 0 3.726.046v-.691h-.738c-2.101 0-2.176-.285-2.176-1.148zm38.524 7.672c0-1.985-.117-3.918-.977-5.738-.98-1.98-2.703-2.508-3.875-2.508-1.383 0-3.082.695-3.965 2.676-.668 1.507-.91 2.988-.91 5.57 0 2.316.168 4.062 1.031 5.758.93 1.816 2.579 2.39 3.821 2.39 2.078 0 3.273-1.242 3.968-2.629.86-1.793.907-4.132.907-5.52m-4.875 7.668c-.766 0-2.317-.43-2.77-3.031-.265-1.438-.265-3.25-.265-4.926 0-1.957 0-3.727.382-5.137.407-1.601 1.625-2.344 2.653-2.344.91 0 2.297.551 2.75 2.606.308 1.363.308 3.25.308 4.875 0 1.601 0 3.418-.261 4.875-.454 2.629-1.961 3.082-2.797 3.082m39.578-7.667c0-1.985-.121-3.918-.981-5.738-.98-1.98-2.703-2.508-3.871-2.508-1.386 0-3.086.695-3.968 2.676-.668 1.507-.907 2.988-.907 5.57 0 2.316.164 4.062 1.028 5.758.929 1.816 2.578 2.39 3.824 2.39 2.078 0 3.273-1.242 3.965-2.629.859-1.793.91-4.132.91-5.52m-4.875 7.668c-.766 0-2.32-.43-2.774-3.031-.265-1.438-.265-3.25-.265-4.926 0-1.957 0-3.727.383-5.137.406-1.601 1.625-2.344 2.656-2.344.906 0 2.293.551 2.746 2.606.309 1.363.309 3.25.309 4.875 0 1.601 0 3.418-.262 4.875-.453 2.629-1.957 3.082-2.793 3.082m35.75-15.339c0-.55 0-.574-.477-.574-.574.648-1.769 1.531-4.23 1.531v.691c.551 0 1.742 0 3.058-.62v12.449c0 .863-.074 1.148-2.175 1.148h-.739v.691c.645-.046 2.961-.046 3.75-.046s3.082 0 3.727.046v-.691h-.742c-2.102 0-2.172-.285-2.172-1.148zm34.699 0c0-.55 0-.574-.477-.574-.574.648-1.769 1.531-4.23 1.531v.691c.551 0 1.742 0 3.059-.62v12.449c0 .863-.075 1.148-2.176 1.148h-.738v.691c.644-.046 2.96-.046 3.75-.046.789 0 3.082 0 3.726.046v-.691h-.738c-2.102 0-2.176-.285-2.176-1.148zm34.699 0c0-.55 0-.574-.476-.574-.575.648-1.77 1.531-4.231 1.531v.691c.551 0 1.746 0 3.059-.62v12.449c0 .863-.07 1.148-2.172 1.148h-.742v.691c.644-.046 2.961-.046 3.75-.046s3.086 0 3.726.046v-.691h-.738c-2.102 0-2.176-.285-2.176-1.148zm38.524 7.672c0-1.985-.117-3.918-.977-5.738-.98-1.98-2.703-2.508-3.875-2.508-1.383 0-3.082.695-3.965 2.676-.668 1.507-.91 2.988-.91 5.57 0 2.316.168 4.062 1.031 5.758.93 1.816 2.579 2.39 3.821 2.39 2.078 0 3.273-1.242 3.968-2.629.86-1.793.907-4.132.907-5.52m-4.875 7.668c-.766 0-2.317-.43-2.77-3.031-.265-1.438-.265-3.25-.265-4.926 0-1.957 0-3.727.382-5.137.407-1.601 1.625-2.344 2.653-2.344.91 0 2.297.551 2.75 2.606.308 1.363.308 3.25.308 4.875 0 1.601 0 3.418-.261 4.875-.454 2.629-1.961 3.082-2.797 3.082m39.578-7.667c0-1.985-.121-3.918-.981-5.738-.98-1.98-2.703-2.508-3.871-2.508-1.386 0-3.086.695-3.968 2.676-.668 1.507-.907 2.988-.907 5.57 0 2.316.164 4.062 1.028 5.758.929 1.816 2.578 2.39 3.824 2.39 2.078 0 3.273-1.242 3.965-2.629.859-1.793.91-4.132.91-5.52m-4.875 7.668c-.766 0-2.32-.43-2.774-3.031-.265-1.438-.265-3.25-.265-4.926 0-1.957 0-3.727.383-5.137.406-1.601 1.625-2.344 2.656-2.344.906 0 2.293.551 2.746 2.606.309 1.363.309 3.25.309 4.875 0 1.601 0 3.418-.262 4.875-.453 2.629-1.957 3.082-2.793 3.082m35.75-15.339c0-.55 0-.574-.477-.574-.574.648-1.769 1.531-4.23 1.531v.691c.551 0 1.742 0 3.058-.62v12.449c0 .863-.074 1.148-2.175 1.148h-.739v.691c.645-.046 2.961-.046 3.75-.046s3.082 0 3.727.046v-.691h-.742c-2.102 0-2.172-.285-2.172-1.148zm34.601 0c0-.55 0-.574-.48-.574-.574.648-1.77 1.531-4.231 1.531v.691c.551 0 1.747 0 3.059-.62v12.449c0 .863-.07 1.148-2.172 1.148h-.742v.691c.645-.046 2.965-.046 3.754-.046.785 0 3.082 0 3.726.046v-.691h-.742c-2.101 0-2.172-.285-2.172-1.148zm38.524 7.672c0-1.985-.121-3.918-.981-5.738-.98-1.98-2.703-2.508-3.871-2.508-1.386 0-3.086.695-3.968 2.676-.668 1.507-.907 2.988-.907 5.57 0 2.316.164 4.062 1.028 5.758.929 1.816 2.578 2.39 3.824 2.39 2.078 0 3.273-1.242 3.965-2.629.859-1.793.91-4.132.91-5.52m-4.875 7.668c-.766 0-2.32-.43-2.774-3.031-.265-1.438-.265-3.25-.265-4.926 0-1.957 0-3.727.383-5.137.406-1.601 1.625-2.344 2.656-2.344.906 0 2.293.551 2.746 2.606.309 1.363.309 3.25.309 4.875 0 1.601 0 3.418-.262 4.875-.453 2.629-1.957 3.082-2.793 3.082m39.574-7.667c0-1.985-.121-3.918-.98-5.738-.981-1.98-2.704-2.508-3.872-2.508-1.386 0-3.082.695-3.968 2.676-.668 1.507-.907 2.988-.907 5.57 0 2.316.168 4.062 1.028 5.758.93 1.816 2.582 2.39 3.824 2.39 2.078 0 3.273-1.242 3.965-2.629.859-1.793.91-4.132.91-5.52m-4.875 7.668c-.766 0-2.32-.43-2.773-3.031-.262-1.438-.262-3.25-.262-4.926 0-1.957 0-3.727.383-5.137.406-1.601 1.625-2.344 2.652-2.344.906 0 2.293.551 2.746 2.606.313 1.363.313 3.25.313 4.875 0 1.601 0 3.418-.262 4.875-.457 2.629-1.961 3.082-2.797 3.082"/></g></svg>