<svg xmlns="http://www.w3.org/2000/svg" width="455pt" height="46pt" viewBox="0 -46 455 46"><g id="page1"><path fill="none" stroke="#000" stroke-linecap="round" stroke-linejoin="round" stroke-width=".5" d="M.25-45.61h45.356V-.253H.25zm45.356 0h45.351V-.253H45.606zm45.351 0h45.356V-.253H90.957zm45.356 0h45.355V-.253h-45.355zm45.355 0h45.352V-.253h-45.352zm45.352 0h45.355V-.253H227.02zm45.355 0h45.355V-.253h-45.355zm45.355 0h45.356V-.253H317.73zm45.356 0h45.352V-.253h-45.352zm45.352 0h45.355V-.253h-45.355z"/><path d="M22.766-23.324c1.84 0 2.644 1.59 2.644 3.43 0 2.48-1.324 3.43-2.52 3.43-1.097 0-2.874-.54-3.43-2.13a.8.8 0 0 0 .31.043c.496 0 .867-.332.867-.867 0-.602-.453-.871-.867-.871-.352 0-.887.168-.887.93 0 1.902 1.86 3.39 4.047 3.39 2.293 0 4.05-1.797 4.05-3.906 0-2.004-1.652-3.45-3.617-3.676 1.57-.332 3.078-1.734 3.078-3.613 0-1.613-1.628-2.79-3.488-2.79-1.883 0-3.535 1.157-3.535 2.81 0 .722.539.847.809.847.43 0 .804-.27.804-.808 0-.536-.375-.805-.804-.805-.086 0-.188 0-.27.043.598-1.363 2.23-1.613 2.953-1.613s2.086.351 2.086 2.335c0 .579-.082 1.61-.785 2.52-.617.805-1.32.848-2.004.91-.102 0-.578.04-.66.04-.145.019-.227.042-.227.187s.02.164.434.164zm45.3 0c1.84 0 2.645 1.59 2.645 3.43 0 2.48-1.324 3.43-2.523 3.43-1.094 0-2.872-.54-3.43-2.13.105.043.21.043.312.043.496 0 .868-.332.868-.867 0-.602-.454-.871-.868-.871-.351 0-.89.168-.89.93 0 1.902 1.86 3.39 4.05 3.39 2.293 0 4.051-1.797 4.051-3.906 0-2.004-1.656-3.45-3.617-3.676 1.57-.332 3.078-1.734 3.078-3.613 0-1.613-1.633-2.79-3.492-2.79-1.879 0-3.531 1.157-3.531 2.81 0 .722.539.847.804.847.434 0 .805-.27.805-.808 0-.536-.371-.805-.805-.805-.082 0-.183 0-.265.043.598-1.363 2.23-1.613 2.953-1.613s2.086.351 2.086 2.335c0 .579-.082 1.61-.785 2.52-.621.805-1.325.848-2.004.91-.102 0-.578.04-.66.04-.145.019-.23.042-.23.187s.023.164.437.164zm48.106.91c0 4.543-1.879 5.95-3.43 5.95-.476 0-1.633-.063-2.105-.868.535.082.929-.207.929-.723 0-.558-.457-.746-.746-.746-.183 0-.742.082-.742.785 0 1.407 1.219 2.047 2.707 2.047 2.375 0 4.793-2.601 4.793-7.148 0-5.66-2.316-6.836-3.887-6.836-2.043 0-4.007 1.797-4.007 4.562 0 2.563 1.675 4.465 3.781 4.465 1.734 0 2.5-1.613 2.707-2.293zm-2.664 1.156c-.559 0-1.344-.101-1.985-1.344-.433-.804-.433-1.753-.433-2.765 0-1.219 0-2.067.578-2.977.289-.433.824-1.136 2.023-1.136 2.438 0 2.438 3.738 2.438 4.566 0 1.469-.66 3.656-2.621 3.656m46.312-2.48c1.301-.66 2.621-1.653 2.621-3.242 0-1.88-1.816-2.973-3.488-2.973-1.883 0-3.535 1.363-3.535 3.242 0 .516.125 1.406.93 2.188.207.207 1.074.828 1.632 1.218-.929.477-3.097 1.614-3.097 3.887 0 2.125 2.023 3.45 4.027 3.45 2.211 0 4.07-1.59 4.07-3.7 0-1.879-1.261-2.746-2.085-3.305zm-2.707-1.817c-.168-.101-.992-.742-.992-1.715 0-1.261 1.301-2.21 2.789-2.21 1.633 0 2.832 1.156 2.832 2.5 0 1.921-2.148 3.015-2.254 3.015-.019 0-.043 0-.207-.12zm3.801 4.235c.309.226 1.301.91 1.301 2.172 0 1.527-1.527 2.683-3.262 2.683-1.883 0-3.308-1.344-3.308-2.976 0-1.63 1.261-2.997 2.687-3.633zm47.301 1.82h-.371c-.207 1.465-.375 1.71-.457 1.836-.102.164-1.59.164-1.879.164h-3.965c.742-.805 2.187-2.27 3.945-3.965 1.258-1.2 2.727-2.601 2.727-4.648 0-2.438-1.942-3.84-4.113-3.84-2.27 0-3.657 2-3.657 3.86 0 .808.602.91.848.91.207 0 .828-.122.828-.848 0-.64-.539-.825-.828-.825a.8.8 0 0 0-.328.063c.39-1.758 1.59-2.625 2.848-2.625 1.796 0 2.976 1.426 2.976 3.305 0 1.797-1.055 3.347-2.23 4.691l-4.114 4.649v.472h7.274zm39.14-8.883a6 6 0 0 0 1.922.348c1.918 0 2.977-1.031 3.575-1.63 0-.167 0-.269-.125-.269-.024 0-.063 0-.231.082-.723.309-1.566.559-2.601.559a6.2 6.2 0 0 1-2.559-.539c-.227-.102-.27-.102-.289-.102-.106 0-.125.02-.125.434v5.992c0 .371 0 .473.207.473.101 0 .144-.04.246-.184.66-.93 1.57-1.324 2.602-1.324.726 0 2.277.457 2.277 3.988 0 .66 0 1.86-.621 2.809-.52.848-1.324 1.281-2.211 1.281-1.363 0-2.75-.95-3.121-2.543.082.024.25.063.332.063.265 0 .785-.145.785-.785 0-.56-.395-.786-.785-.786-.477 0-.785.29-.785.868 0 1.796 1.425 3.68 3.617 3.68 2.125 0 4.148-1.84 4.148-4.505 0-2.48-1.609-4.402-3.617-4.402a3.52 3.52 0 0 0-2.641 1.137zm50.215 5.969c0 4.543-1.879 5.95-3.429 5.95-.473 0-1.629-.063-2.106-.868.535.082.93-.207.93-.723 0-.558-.453-.746-.742-.746-.188 0-.746.082-.746.785 0 1.407 1.218 2.047 2.707 2.047 2.375 0 4.793-2.601 4.793-7.148 0-5.66-2.313-6.836-3.883-6.836-2.047 0-4.008 1.797-4.008 4.562 0 2.563 1.672 4.465 3.781 4.465 1.735 0 2.5-1.613 2.703-2.293zm-2.664 1.156c-.558 0-1.343-.101-1.984-1.344-.434-.804-.434-1.753-.434-2.765 0-1.219 0-2.067.582-2.977.289-.433.825-1.136 2.024-1.136 2.437 0 2.437 3.738 2.437 4.566 0 1.469-.664 3.656-2.625 3.656m50.11-7.914v-.453h-4.852c-2.418 0-2.461-.266-2.543-.66h-.371l-.602 3.863h.375c.063-.39.204-1.445.454-1.84.125-.164 1.652-.164 2.003-.164h4.543l-2.289 3.41c-1.531 2.29-2.586 5.391-2.586 8.094 0 .25 0 .953.747.953.742 0 .742-.703.742-.972v-.95c0-3.386.578-5.617 1.527-7.043zm43.257 6.758c0 4.543-1.882 5.95-3.429 5.95-.477 0-1.633-.063-2.11-.868.539.082.93-.207.93-.723 0-.558-.453-.746-.742-.746-.188 0-.742.082-.742.785 0 1.407 1.218 2.047 2.703 2.047 2.375 0 4.793-2.601 4.793-7.148 0-5.66-2.313-6.836-3.883-6.836-2.047 0-4.008 1.797-4.008 4.562 0 2.563 1.672 4.465 3.781 4.465 1.735 0 2.5-1.613 2.707-2.293zm-2.668 1.156c-.558 0-1.339-.101-1.984-1.344-.433-.804-.433-1.753-.433-2.765 0-1.219 0-2.067.582-2.977.289-.433.824-1.136 2.023-1.136 2.437 0 2.437 3.738 2.437 4.566 0 1.469-.66 3.656-2.625 3.656m46.29-8.242c0-.434-.02-.453-.309-.453-.805.969-2.023 1.281-3.184 1.32-.058 0-.164 0-.183.043-.024.04-.024.082-.024.516.645 0 1.719-.125 2.543-.621v10.886c0 .723-.043.973-1.816.973h-.621v.535c.992-.02 2.023-.039 3.015-.039.993 0 2.024.02 3.016.04v-.536h-.617c-1.777 0-1.82-.227-1.82-.973z"/></g></svg>