<svg xmlns="http://www.w3.org/2000/svg" width="40" height="3256" viewBox="0 -2442 30 2442"><g id="page1"><path fill="#944520" d="M.426-.84v-2439.57c.93-.53 2.078-.53 3.012 0V-.84c-.934.54-2.083.54-3.012 0"/><path fill="none" stroke="#000" stroke-linecap="round" stroke-linejoin="round" stroke-width=".85" d="M.426-.84v-2439.57c.93-.53 2.078-.53 3.012 0V-.84c-.934.54-2.083.54-3.012 0"/><path fill="#944520" d="M26.027-.84v-2439.57c.93-.53 2.078-.53 3.008 0V-.84a3 3 0 0 1-3.008 0"/><path fill="none" stroke="#000" stroke-linecap="round" stroke-linejoin="round" stroke-width=".85" d="M26.027-.84v-2439.57c.93-.53 2.078-.53 3.008 0V-.84a3 3 0 0 1-3.008 0"/><path fill="#944520" d="M3.438-17.402h22.59c.535.93.535 2.078 0 3.011H3.437a3.01 3.01 0 0 1 0-3.011"/><path fill="none" stroke="#000" stroke-linecap="round" stroke-linejoin="round" stroke-width=".85" d="M3.438-17.402h22.59c.535.93.535 2.078 0 3.011H3.437a3.01 3.01 0 0 1 0-3.011"/><path fill="#944520" d="M3.438-32.46h22.59a3.02 3.02 0 0 1 0 3.01H3.437a3.01 3.01 0 0 1 0-3.01"/><path fill="none" stroke="#000" stroke-linecap="round" stroke-linejoin="round" stroke-width=".85" d="M3.438-32.46h22.59a3.02 3.02 0 0 1 0 3.01H3.437a3.01 3.01 0 0 1 0-3.01"/><path fill="#944520" d="M3.438-47.523h22.59a3.03 3.03 0 0 1 0 3.011H3.437a3.01 3.01 0 0 1 0-3.011"/><path fill="none" stroke="#000" stroke-linecap="round" stroke-linejoin="round" stroke-width=".85" d="M3.438-47.523h22.59a3.03 3.03 0 0 1 0 3.011H3.437a3.01 3.01 0 0 1 0-3.011"/><path fill="#944520" d="M3.438-62.582h22.59a3.03 3.03 0 0 1 0 3.012H3.437a3.01 3.01 0 0 1 0-3.012"/><path fill="none" stroke="#000" stroke-linecap="round" stroke-linejoin="round" stroke-width=".85" d="M3.438-62.582h22.59a3.03 3.03 0 0 1 0 3.012H3.437a3.01 3.01 0 0 1 0-3.012"/><path fill="#944520" d="M3.438-77.64h22.59a3.03 3.03 0 0 1 0 3.011H3.437a3.01 3.01 0 0 1 0-3.012"/><path fill="none" stroke="#000" stroke-linecap="round" stroke-linejoin="round" stroke-width=".85" d="M3.438-77.64h22.59a3.03 3.03 0 0 1 0 3.011H3.437a3.01 3.01 0 0 1 0-3.012"/><path fill="#944520" d="M3.438-92.7h22.59a3.03 3.03 0 0 1 0 3.013H3.437a3.01 3.01 0 0 1 0-3.012"/><path fill="none" stroke="#000" stroke-linecap="round" stroke-linejoin="round" stroke-width=".85" d="M3.438-92.7h22.59a3.03 3.03 0 0 1 0 3.013H3.437a3.01 3.01 0 0 1 0-3.012"/><path fill="#944520" d="M3.438-107.758h22.59a3.03 3.03 0 0 1 0 3.012H3.437a3.01 3.01 0 0 1 0-3.012"/><path fill="none" stroke="#000" stroke-linecap="round" stroke-linejoin="round" stroke-width=".85" d="M3.438-107.758h22.59a3.03 3.03 0 0 1 0 3.012H3.437a3.01 3.01 0 0 1 0-3.012"/><path fill="#944520" d="M3.438-122.816h22.59a3.02 3.02 0 0 1 0 3.011H3.437a3 3 0 0 1 0-3.011"/><path fill="none" stroke="#000" stroke-linecap="round" stroke-linejoin="round" stroke-width=".85" d="M3.438-122.816h22.59a3.02 3.02 0 0 1 0 3.011H3.437a3 3 0 0 1 0-3.011"/><path fill="#944520" d="M3.438-137.875h22.59c.535.93.535 2.078 0 3.012H3.437a3.01 3.01 0 0 1 0-3.012"/><path fill="none" stroke="#000" stroke-linecap="round" stroke-linejoin="round" stroke-width=".85" d="M3.438-137.875h22.59c.535.93.535 2.078 0 3.012H3.437a3.01 3.01 0 0 1 0-3.012"/><path fill="#944520" d="M3.438-152.934h22.59c.535.93.535 2.079 0 3.012H3.437a3.01 3.01 0 0 1 0-3.012"/><path fill="none" stroke="#000" stroke-linecap="round" stroke-linejoin="round" stroke-width=".85" d="M3.438-152.934h22.59c.535.93.535 2.079 0 3.012H3.437a3.01 3.01 0 0 1 0-3.012"/><path fill="#944520" d="M3.438-167.992h22.59a3.03 3.03 0 0 1 0 3.012H3.437a3.01 3.01 0 0 1 0-3.012"/><path fill="none" stroke="#000" stroke-linecap="round" stroke-linejoin="round" stroke-width=".85" d="M3.438-167.992h22.59a3.03 3.03 0 0 1 0 3.012H3.437a3.01 3.01 0 0 1 0-3.012"/><path fill="#944520" d="M3.438-183.055h22.59a3.03 3.03 0 0 1 0 3.016H3.437a3.02 3.02 0 0 1 0-3.016"/><path fill="none" stroke="#000" stroke-linecap="round" stroke-linejoin="round" stroke-width=".85" d="M3.438-183.055h22.59a3.03 3.03 0 0 1 0 3.016H3.437a3.02 3.02 0 0 1 0-3.016"/><path fill="#944520" d="M3.438-198.113h22.59a3.02 3.02 0 0 1 0 3.011H3.437a3 3 0 0 1 0-3.011"/><path fill="none" stroke="#000" stroke-linecap="round" stroke-linejoin="round" stroke-width=".85" d="M3.438-198.113h22.59a3.02 3.02 0 0 1 0 3.011H3.437a3 3 0 0 1 0-3.011"/><path fill="#944520" d="M3.438-213.172h22.59a3.03 3.03 0 0 1 0 3.012H3.437a3.01 3.01 0 0 1 0-3.012"/><path fill="none" stroke="#000" stroke-linecap="round" stroke-linejoin="round" stroke-width=".85" d="M3.438-213.172h22.59a3.03 3.03 0 0 1 0 3.012H3.437a3.01 3.01 0 0 1 0-3.012"/><path fill="#944520" d="M3.438-228.23h22.59a3.02 3.02 0 0 1 0 3.011H3.437a3 3 0 0 1 0-3.011"/><path fill="none" stroke="#000" stroke-linecap="round" stroke-linejoin="round" stroke-width=".85" d="M3.438-228.23h22.59a3.02 3.02 0 0 1 0 3.011H3.437a3 3 0 0 1 0-3.011"/><path fill="#944520" d="M3.438-243.289h22.59c.535.93.535 2.078 0 3.012H3.437a3.01 3.01 0 0 1 0-3.012"/><path fill="none" stroke="#000" stroke-linecap="round" stroke-linejoin="round" stroke-width=".85" d="M3.438-243.289h22.59c.535.93.535 2.078 0 3.012H3.437a3.01 3.01 0 0 1 0-3.012"/><path fill="#944520" d="M3.438-258.348h22.59c.535.93.535 2.078 0 3.012H3.437a3.01 3.01 0 0 1 0-3.012"/><path fill="none" stroke="#000" stroke-linecap="round" stroke-linejoin="round" stroke-width=".85" d="M3.438-258.348h22.59c.535.93.535 2.078 0 3.012H3.437a3.01 3.01 0 0 1 0-3.012"/><path fill="#944520" d="M3.438-273.406h22.59a3.02 3.02 0 0 1 0 3.011H3.437a3 3 0 0 1 0-3.011"/><path fill="none" stroke="#000" stroke-linecap="round" stroke-linejoin="round" stroke-width=".85" d="M3.438-273.406h22.59a3.02 3.02 0 0 1 0 3.011H3.437a3 3 0 0 1 0-3.011"/><path fill="#944520" d="M3.438-288.469h22.59a3.03 3.03 0 0 1 0 3.016H3.437a3.02 3.02 0 0 1 0-3.016"/><path fill="none" stroke="#000" stroke-linecap="round" stroke-linejoin="round" stroke-width=".85" d="M3.438-288.469h22.59a3.03 3.03 0 0 1 0 3.016H3.437a3.02 3.02 0 0 1 0-3.016"/><path fill="#944520" d="M3.438-303.527h22.59a3.02 3.02 0 0 1 0 3.011H3.437a3 3 0 0 1 0-3.011"/><path fill="none" stroke="#000" stroke-linecap="round" stroke-linejoin="round" stroke-width=".85" d="M3.438-303.527h22.59a3.02 3.02 0 0 1 0 3.011H3.437a3 3 0 0 1 0-3.011"/><path fill="#944520" d="M3.438-318.586h22.59a3.03 3.03 0 0 1 0 3.012H3.437a3.01 3.01 0 0 1 0-3.012"/><path fill="none" stroke="#000" stroke-linecap="round" stroke-linejoin="round" stroke-width=".85" d="M3.438-318.586h22.59a3.03 3.03 0 0 1 0 3.012H3.437a3.01 3.01 0 0 1 0-3.012"/><path fill="#944520" d="M3.438-333.645h22.59a3.03 3.03 0 0 1 0 3.012H3.437a3.01 3.01 0 0 1 0-3.012"/><path fill="none" stroke="#000" stroke-linecap="round" stroke-linejoin="round" stroke-width=".85" d="M3.438-333.645h22.59a3.03 3.03 0 0 1 0 3.012H3.437a3.01 3.01 0 0 1 0-3.012"/><path fill="#944520" d="M3.438-348.703h22.59a3.03 3.03 0 0 1 0 3.012H3.437a3.01 3.01 0 0 1 0-3.012"/><path fill="none" stroke="#000" stroke-linecap="round" stroke-linejoin="round" stroke-width=".85" d="M3.438-348.703h22.59a3.03 3.03 0 0 1 0 3.012H3.437a3.01 3.01 0 0 1 0-3.012"/><path fill="#944520" d="M3.438-363.762h22.59a3.03 3.03 0 0 1 0 3.012H3.437a3.01 3.01 0 0 1 0-3.012"/><path fill="none" stroke="#000" stroke-linecap="round" stroke-linejoin="round" stroke-width=".85" d="M3.438-363.762h22.59a3.03 3.03 0 0 1 0 3.012H3.437a3.01 3.01 0 0 1 0-3.012"/><path fill="#944520" d="M3.438-378.82h22.59a3.02 3.02 0 0 1 0 3.011H3.437a3 3 0 0 1 0-3.011"/><path fill="none" stroke="#000" stroke-linecap="round" stroke-linejoin="round" stroke-width=".85" d="M3.438-378.82h22.59a3.02 3.02 0 0 1 0 3.011H3.437a3 3 0 0 1 0-3.011"/><path fill="#944520" d="M3.438-393.879h22.59c.535.93.535 2.078 0 3.012H3.437a3.01 3.01 0 0 1 0-3.012"/><path fill="none" stroke="#000" stroke-linecap="round" stroke-linejoin="round" stroke-width=".85" d="M3.438-393.879h22.59c.535.93.535 2.078 0 3.012H3.437a3.01 3.01 0 0 1 0-3.012"/><path fill="#944520" d="M3.438-408.938h22.59c.535.93.535 2.079 0 3.012H3.437a3.01 3.01 0 0 1 0-3.012"/><path fill="none" stroke="#000" stroke-linecap="round" stroke-linejoin="round" stroke-width=".85" d="M3.438-408.938h22.59c.535.93.535 2.079 0 3.012H3.437a3.01 3.01 0 0 1 0-3.012"/><path fill="#944520" d="M3.438-423.996h22.59c.535.93.535 2.078 0 3.012H3.437a3.01 3.01 0 0 1 0-3.012"/><path fill="none" stroke="#000" stroke-linecap="round" stroke-linejoin="round" stroke-width=".85" d="M3.438-423.996h22.59c.535.93.535 2.078 0 3.012H3.437a3.01 3.01 0 0 1 0-3.012"/><path fill="#944520" d="M3.438-439.059h22.59a3.03 3.03 0 0 1 0 3.012H3.437a3.01 3.01 0 0 1 0-3.012"/><path fill="none" stroke="#000" stroke-linecap="round" stroke-linejoin="round" stroke-width=".85" d="M3.438-439.059h22.59a3.03 3.03 0 0 1 0 3.012H3.437a3.01 3.01 0 0 1 0-3.012"/><path fill="#944520" d="M3.438-454.117h22.59a3.03 3.03 0 0 1 0 3.012H3.437a3.01 3.01 0 0 1 0-3.012"/><path fill="none" stroke="#000" stroke-linecap="round" stroke-linejoin="round" stroke-width=".85" d="M3.438-454.117h22.59a3.03 3.03 0 0 1 0 3.012H3.437a3.01 3.01 0 0 1 0-3.012"/><path fill="#944520" d="M3.438-469.176h22.59a3.03 3.03 0 0 1 0 3.012H3.437a3.01 3.01 0 0 1 0-3.012"/><path fill="none" stroke="#000" stroke-linecap="round" stroke-linejoin="round" stroke-width=".85" d="M3.438-469.176h22.59a3.03 3.03 0 0 1 0 3.012H3.437a3.01 3.01 0 0 1 0-3.012"/><path fill="#944520" d="M3.438-484.234h22.59a3.02 3.02 0 0 1 0 3.011H3.437a3 3 0 0 1 0-3.011"/><path fill="none" stroke="#000" stroke-linecap="round" stroke-linejoin="round" stroke-width=".85" d="M3.438-484.234h22.59a3.02 3.02 0 0 1 0 3.011H3.437a3 3 0 0 1 0-3.011"/><path fill="#944520" d="M3.438-499.293h22.59c.535.93.535 2.078 0 3.012H3.437a3.01 3.01 0 0 1 0-3.012"/><path fill="none" stroke="#000" stroke-linecap="round" stroke-linejoin="round" stroke-width=".85" d="M3.438-499.293h22.59c.535.93.535 2.078 0 3.012H3.437a3.01 3.01 0 0 1 0-3.012"/><path fill="#944520" d="M3.438-514.352h22.59c.535.93.535 2.079 0 3.012H3.437a3.01 3.01 0 0 1 0-3.012"/><path fill="none" stroke="#000" stroke-linecap="round" stroke-linejoin="round" stroke-width=".85" d="M3.438-514.352h22.59c.535.93.535 2.079 0 3.012H3.437a3.01 3.01 0 0 1 0-3.012"/><path fill="#944520" d="M3.438-529.41h22.59c.535.93.535 2.078 0 3.012H3.437a3.01 3.01 0 0 1 0-3.012"/><path fill="none" stroke="#000" stroke-linecap="round" stroke-linejoin="round" stroke-width=".85" d="M3.438-529.41h22.59c.535.93.535 2.078 0 3.012H3.437a3.01 3.01 0 0 1 0-3.012"/><path fill="#944520" d="M3.438-544.473h22.59a3.03 3.03 0 0 1 0 3.016H3.437a3.02 3.02 0 0 1 0-3.016"/><path fill="none" stroke="#000" stroke-linecap="round" stroke-linejoin="round" stroke-width=".85" d="M3.438-544.473h22.59a3.03 3.03 0 0 1 0 3.016H3.437a3.02 3.02 0 0 1 0-3.016"/><path fill="#944520" d="M3.438-559.531h22.59a3.02 3.02 0 0 1 0 3.011H3.437a3 3 0 0 1 0-3.011"/><path fill="none" stroke="#000" stroke-linecap="round" stroke-linejoin="round" stroke-width=".85" d="M3.438-559.531h22.59a3.02 3.02 0 0 1 0 3.011H3.437a3 3 0 0 1 0-3.011"/><path fill="#944520" d="M3.438-574.59h22.59a3.03 3.03 0 0 1 0 3.012H3.437a3.01 3.01 0 0 1 0-3.012"/><path fill="none" stroke="#000" stroke-linecap="round" stroke-linejoin="round" stroke-width=".85" d="M3.438-574.59h22.59a3.03 3.03 0 0 1 0 3.012H3.437a3.01 3.01 0 0 1 0-3.012"/><path fill="#944520" d="M3.438-589.648h22.59a3.02 3.02 0 0 1 0 3.011H3.437a3 3 0 0 1 0-3.011"/><path fill="none" stroke="#000" stroke-linecap="round" stroke-linejoin="round" stroke-width=".85" d="M3.438-589.648h22.59a3.02 3.02 0 0 1 0 3.011H3.437a3 3 0 0 1 0-3.011"/><path fill="#944520" d="M3.438-604.707h22.59a3.03 3.03 0 0 1 0 3.012H3.437a3.01 3.01 0 0 1 0-3.012"/><path fill="none" stroke="#000" stroke-linecap="round" stroke-linejoin="round" stroke-width=".85" d="M3.438-604.707h22.59a3.03 3.03 0 0 1 0 3.012H3.437a3.01 3.01 0 0 1 0-3.012"/><path fill="#944520" d="M3.438-619.766h22.59c.535.93.535 2.078 0 3.012H3.437a3.01 3.01 0 0 1 0-3.012"/><path fill="none" stroke="#000" stroke-linecap="round" stroke-linejoin="round" stroke-width=".85" d="M3.438-619.766h22.59c.535.93.535 2.078 0 3.012H3.437a3.01 3.01 0 0 1 0-3.012"/><path fill="#944520" d="M3.438-634.824h22.59a3.02 3.02 0 0 1 0 3.011H3.437a3 3 0 0 1 0-3.011"/><path fill="none" stroke="#000" stroke-linecap="round" stroke-linejoin="round" stroke-width=".85" d="M3.438-634.824h22.59a3.02 3.02 0 0 1 0 3.011H3.437a3 3 0 0 1 0-3.011"/><path fill="#944520" d="M3.438-649.883h22.59c.535.93.535 2.078 0 3.012H3.437a3.01 3.01 0 0 1 0-3.012"/><path fill="none" stroke="#000" stroke-linecap="round" stroke-linejoin="round" stroke-width=".85" d="M3.438-649.883h22.59c.535.93.535 2.078 0 3.012H3.437a3.01 3.01 0 0 1 0-3.012"/><path fill="#944520" d="M3.438-664.941h22.59a3.02 3.02 0 0 1 0 3.011H3.437a3 3 0 0 1 0-3.011"/><path fill="none" stroke="#000" stroke-linecap="round" stroke-linejoin="round" stroke-width=".85" d="M3.438-664.941h22.59a3.02 3.02 0 0 1 0 3.011H3.437a3 3 0 0 1 0-3.011"/><path fill="#944520" d="M3.438-680.004h22.59a3.03 3.03 0 0 1 0 3.016H3.437a3.02 3.02 0 0 1 0-3.016"/><path fill="none" stroke="#000" stroke-linecap="round" stroke-linejoin="round" stroke-width=".85" d="M3.438-680.004h22.59a3.03 3.03 0 0 1 0 3.016H3.437a3.02 3.02 0 0 1 0-3.016"/><path fill="#944520" d="M3.438-695.063h22.59a3.03 3.03 0 0 1 0 3.012H3.437a3.01 3.01 0 0 1 0-3.012"/><path fill="none" stroke="#000" stroke-linecap="round" stroke-linejoin="round" stroke-width=".85" d="M3.438-695.063h22.59a3.03 3.03 0 0 1 0 3.012H3.437a3.01 3.01 0 0 1 0-3.012"/><path fill="#944520" d="M3.438-710.121h22.59a3.03 3.03 0 0 1 0 3.012H3.437a3.01 3.01 0 0 1 0-3.012"/><path fill="none" stroke="#000" stroke-linecap="round" stroke-linejoin="round" stroke-width=".85" d="M3.438-710.121h22.59a3.03 3.03 0 0 1 0 3.012H3.437a3.01 3.01 0 0 1 0-3.012"/><path fill="#944520" d="M3.438-725.18h22.59a3.03 3.03 0 0 1 0 3.012H3.437a3.01 3.01 0 0 1 0-3.012"/><path fill="none" stroke="#000" stroke-linecap="round" stroke-linejoin="round" stroke-width=".85" d="M3.438-725.18h22.59a3.03 3.03 0 0 1 0 3.012H3.437a3.01 3.01 0 0 1 0-3.012"/><path fill="#944520" d="M3.438-740.238h22.59a3.02 3.02 0 0 1 0 3.011H3.437a3 3 0 0 1 0-3.011"/><path fill="none" stroke="#000" stroke-linecap="round" stroke-linejoin="round" stroke-width=".85" d="M3.438-740.238h22.59a3.02 3.02 0 0 1 0 3.011H3.437a3 3 0 0 1 0-3.011"/><path fill="#944520" d="M3.438-755.297h22.59a3.03 3.03 0 0 1 0 3.012H3.437a3.01 3.01 0 0 1 0-3.012"/><path fill="none" stroke="#000" stroke-linecap="round" stroke-linejoin="round" stroke-width=".85" d="M3.438-755.297h22.59a3.03 3.03 0 0 1 0 3.012H3.437a3.01 3.01 0 0 1 0-3.012"/><path fill="#944520" d="M3.438-770.355h22.59a3.02 3.02 0 0 1 0 3.011H3.437a3 3 0 0 1 0-3.011"/><path fill="none" stroke="#000" stroke-linecap="round" stroke-linejoin="round" stroke-width=".85" d="M3.438-770.355h22.59a3.02 3.02 0 0 1 0 3.011H3.437a3 3 0 0 1 0-3.011"/><path fill="#944520" d="M3.438-785.414h22.59c.535.93.535 2.078 0 3.012H3.437a3.01 3.01 0 0 1 0-3.012"/><path fill="none" stroke="#000" stroke-linecap="round" stroke-linejoin="round" stroke-width=".85" d="M3.438-785.414h22.59c.535.93.535 2.078 0 3.012H3.437a3.01 3.01 0 0 1 0-3.012"/><path fill="#944520" d="M3.438-800.473h22.59a3.02 3.02 0 0 1 0 3.008H3.437a3 3 0 0 1 0-3.008"/><path fill="none" stroke="#000" stroke-linecap="round" stroke-linejoin="round" stroke-width=".85" d="M3.438-800.473h22.59a3.02 3.02 0 0 1 0 3.008H3.437a3 3 0 0 1 0-3.008"/><path fill="#944520" d="M3.438-815.531h22.59a3.02 3.02 0 0 1 0 3.008H3.437a3 3 0 0 1 0-3.008"/><path fill="none" stroke="#000" stroke-linecap="round" stroke-linejoin="round" stroke-width=".85" d="M3.438-815.531h22.59a3.02 3.02 0 0 1 0 3.008H3.437a3 3 0 0 1 0-3.008"/><path fill="#944520" d="M3.438-830.594h22.59a3.03 3.03 0 0 1 0 3.012H3.437a3.01 3.01 0 0 1 0-3.012"/><path fill="none" stroke="#000" stroke-linecap="round" stroke-linejoin="round" stroke-width=".85" d="M3.438-830.594h22.59a3.03 3.03 0 0 1 0 3.012H3.437a3.01 3.01 0 0 1 0-3.012"/><path fill="#944520" d="M3.438-845.652h22.59a3.02 3.02 0 0 1 0 3.011H3.437a3 3 0 0 1 0-3.011"/><path fill="none" stroke="#000" stroke-linecap="round" stroke-linejoin="round" stroke-width=".85" d="M3.438-845.652h22.59a3.02 3.02 0 0 1 0 3.011H3.437a3 3 0 0 1 0-3.011"/><path fill="#944520" d="M3.438-860.711h22.59a3.03 3.03 0 0 1 0 3.012H3.437a3.01 3.01 0 0 1 0-3.012"/><path fill="none" stroke="#000" stroke-linecap="round" stroke-linejoin="round" stroke-width=".85" d="M3.438-860.711h22.59a3.03 3.03 0 0 1 0 3.012H3.437a3.01 3.01 0 0 1 0-3.012"/><path fill="#944520" d="M3.438-875.77h22.59c.535.93.535 2.079 0 3.012H3.437a3.01 3.01 0 0 1 0-3.012"/><path fill="none" stroke="#000" stroke-linecap="round" stroke-linejoin="round" stroke-width=".85" d="M3.438-875.77h22.59c.535.93.535 2.079 0 3.012H3.437a3.01 3.01 0 0 1 0-3.012"/><path fill="#944520" d="M3.438-890.828h22.59c.535.93.535 2.078 0 3.012H3.437a3.01 3.01 0 0 1 0-3.012"/><path fill="none" stroke="#000" stroke-linecap="round" stroke-linejoin="round" stroke-width=".85" d="M3.438-890.828h22.59c.535.93.535 2.078 0 3.012H3.437a3.01 3.01 0 0 1 0-3.012"/><path fill="#944520" d="M3.438-905.887h22.59c.535.93.535 2.078 0 3.012H3.437a3.01 3.01 0 0 1 0-3.012"/><path fill="none" stroke="#000" stroke-linecap="round" stroke-linejoin="round" stroke-width=".85" d="M3.438-905.887h22.59c.535.93.535 2.078 0 3.012H3.437a3.01 3.01 0 0 1 0-3.012"/><path fill="#944520" d="M3.438-920.945h22.59a3.02 3.02 0 0 1 0 3.011H3.437a3 3 0 0 1 0-3.011"/><path fill="none" stroke="#000" stroke-linecap="round" stroke-linejoin="round" stroke-width=".85" d="M3.438-920.945h22.59a3.02 3.02 0 0 1 0 3.011H3.437a3 3 0 0 1 0-3.011"/><path fill="#944520" d="M3.438-936.008h22.59a3.03 3.03 0 0 1 0 3.016H3.437a3.02 3.02 0 0 1 0-3.016"/><path fill="none" stroke="#000" stroke-linecap="round" stroke-linejoin="round" stroke-width=".85" d="M3.438-936.008h22.59a3.03 3.03 0 0 1 0 3.016H3.437a3.02 3.02 0 0 1 0-3.016"/><path fill="#944520" d="M3.438-951.066h22.59a3.02 3.02 0 0 1 0 3.011H3.437a3 3 0 0 1 0-3.011"/><path fill="none" stroke="#000" stroke-linecap="round" stroke-linejoin="round" stroke-width=".85" d="M3.438-951.066h22.59a3.02 3.02 0 0 1 0 3.011H3.437a3 3 0 0 1 0-3.011"/><path fill="#944520" d="M3.438-966.125h22.59a3.03 3.03 0 0 1 0 3.012H3.437a3.01 3.01 0 0 1 0-3.012"/><path fill="none" stroke="#000" stroke-linecap="round" stroke-linejoin="round" stroke-width=".85" d="M3.438-966.125h22.59a3.03 3.03 0 0 1 0 3.012H3.437a3.01 3.01 0 0 1 0-3.012"/><path fill="#944520" d="M3.438-981.184h22.59a3.03 3.03 0 0 1 0 3.012H3.437a3.01 3.01 0 0 1 0-3.012"/><path fill="none" stroke="#000" stroke-linecap="round" stroke-linejoin="round" stroke-width=".85" d="M3.438-981.184h22.59a3.03 3.03 0 0 1 0 3.012H3.437a3.01 3.01 0 0 1 0-3.012"/><path fill="#944520" d="M3.438-996.242h22.59a3.03 3.03 0 0 1 0 3.012H3.437a3.01 3.01 0 0 1 0-3.012"/><path fill="none" stroke="#000" stroke-linecap="round" stroke-linejoin="round" stroke-width=".85" d="M3.438-996.242h22.59a3.03 3.03 0 0 1 0 3.012H3.437a3.01 3.01 0 0 1 0-3.012"/><path fill="#944520" d="M3.438-1011.3h22.59c.535.93.535 2.08 0 3.01H3.437c-.54-.93-.54-2.08 0-3.01"/><path fill="none" stroke="#000" stroke-linecap="round" stroke-linejoin="round" stroke-width=".85" d="M3.438-1011.3h22.59c.535.93.535 2.08 0 3.01H3.437c-.54-.93-.54-2.08 0-3.01"/><path fill="#944520" d="M3.438-1026.36h22.59c.535.93.535 2.08 0 3.01H3.437c-.54-.93-.54-2.08 0-3.01"/><path fill="none" stroke="#000" stroke-linecap="round" stroke-linejoin="round" stroke-width=".85" d="M3.438-1026.36h22.59c.535.93.535 2.08 0 3.01H3.437c-.54-.93-.54-2.08 0-3.01"/><path fill="#944520" d="M3.438-1041.42h22.59c.535.93.535 2.08 0 3.01H3.437c-.54-.93-.54-2.08 0-3.01"/><path fill="none" stroke="#000" stroke-linecap="round" stroke-linejoin="round" stroke-width=".85" d="M3.438-1041.42h22.59c.535.93.535 2.08 0 3.01H3.437c-.54-.93-.54-2.08 0-3.01"/><path fill="#944520" d="M3.438-1056.48h22.59c.535.93.535 2.08 0 3.01H3.437c-.54-.93-.54-2.08 0-3.01"/><path fill="none" stroke="#000" stroke-linecap="round" stroke-linejoin="round" stroke-width=".85" d="M3.438-1056.48h22.59c.535.93.535 2.08 0 3.01H3.437c-.54-.93-.54-2.08 0-3.01"/><path fill="#944520" d="M3.438-1071.54h22.59c.535.93.535 2.08 0 3.01H3.437c-.54-.93-.54-2.08 0-3.01"/><path fill="none" stroke="#000" stroke-linecap="round" stroke-linejoin="round" stroke-width=".85" d="M3.438-1071.54h22.59c.535.93.535 2.08 0 3.01H3.437c-.54-.93-.54-2.08 0-3.01"/><path fill="#944520" d="M3.438-1086.6h22.59a3.04 3.04 0 0 1 0 3.02H3.437c-.54-.94-.54-2.08 0-3.02"/><path fill="none" stroke="#000" stroke-linecap="round" stroke-linejoin="round" stroke-width=".85" d="M3.438-1086.6h22.59a3.04 3.04 0 0 1 0 3.02H3.437c-.54-.94-.54-2.08 0-3.02"/><path fill="#944520" d="M3.438-1101.66h22.59a3.04 3.04 0 0 1 0 3.02H3.437c-.54-.94-.54-2.08 0-3.02"/><path fill="none" stroke="#000" stroke-linecap="round" stroke-linejoin="round" stroke-width=".85" d="M3.438-1101.66h22.59a3.04 3.04 0 0 1 0 3.02H3.437c-.54-.94-.54-2.08 0-3.02"/><path fill="#944520" d="M3.438-1116.71h22.59c.535.93.535 2.08 0 3.01H3.437c-.54-.93-.54-2.08 0-3.01"/><path fill="none" stroke="#000" stroke-linecap="round" stroke-linejoin="round" stroke-width=".85" d="M3.438-1116.71h22.59c.535.93.535 2.08 0 3.01H3.437c-.54-.93-.54-2.08 0-3.01"/><path fill="#944520" d="M3.438-1131.77h22.59c.535.93.535 2.08 0 3.01H3.437c-.54-.93-.54-2.08 0-3.01"/><path fill="none" stroke="#000" stroke-linecap="round" stroke-linejoin="round" stroke-width=".85" d="M3.438-1131.77h22.59c.535.93.535 2.08 0 3.01H3.437c-.54-.93-.54-2.08 0-3.01"/><path fill="#944520" d="M3.438-1146.83h22.59c.535.93.535 2.08 0 3.01H3.437c-.54-.93-.54-2.08 0-3.01"/><path fill="none" stroke="#000" stroke-linecap="round" stroke-linejoin="round" stroke-width=".85" d="M3.438-1146.83h22.59c.535.93.535 2.08 0 3.01H3.437c-.54-.93-.54-2.08 0-3.01"/><path fill="#944520" d="M3.438-1161.89h22.59c.535.93.535 2.08 0 3.01H3.437c-.54-.93-.54-2.08 0-3.01"/><path fill="none" stroke="#000" stroke-linecap="round" stroke-linejoin="round" stroke-width=".85" d="M3.438-1161.89h22.59c.535.93.535 2.08 0 3.01H3.437c-.54-.93-.54-2.08 0-3.01"/><path fill="#944520" d="M3.438-1176.95h22.59c.535.93.535 2.08 0 3.01H3.437c-.54-.93-.54-2.08 0-3.01"/><path fill="none" stroke="#000" stroke-linecap="round" stroke-linejoin="round" stroke-width=".85" d="M3.438-1176.95h22.59c.535.93.535 2.08 0 3.01H3.437c-.54-.93-.54-2.08 0-3.01"/><path fill="#944520" d="M3.438-1192.01h22.59c.535.93.535 2.08 0 3.01H3.437c-.54-.93-.54-2.08 0-3.01"/><path fill="none" stroke="#000" stroke-linecap="round" stroke-linejoin="round" stroke-width=".85" d="M3.438-1192.01h22.59c.535.93.535 2.08 0 3.01H3.437c-.54-.93-.54-2.08 0-3.01"/><path fill="#944520" d="M3.438-1207.07h22.59c.535.93.535 2.08 0 3.01H3.437c-.54-.93-.54-2.08 0-3.01"/><path fill="none" stroke="#000" stroke-linecap="round" stroke-linejoin="round" stroke-width=".85" d="M3.438-1207.07h22.59c.535.93.535 2.08 0 3.01H3.437c-.54-.93-.54-2.08 0-3.01"/><path fill="#944520" d="M3.438-1222.13h22.59c.535.93.535 2.08 0 3.01H3.437c-.54-.93-.54-2.08 0-3.01"/><path fill="none" stroke="#000" stroke-linecap="round" stroke-linejoin="round" stroke-width=".85" d="M3.438-1222.13h22.59c.535.93.535 2.08 0 3.01H3.437c-.54-.93-.54-2.08 0-3.01"/><path fill="#944520" d="M3.438-1237.19h22.59c.535.93.535 2.08 0 3.01H3.437c-.54-.93-.54-2.08 0-3.01"/><path fill="none" stroke="#000" stroke-linecap="round" stroke-linejoin="round" stroke-width=".85" d="M3.438-1237.19h22.59c.535.93.535 2.08 0 3.01H3.437c-.54-.93-.54-2.08 0-3.01"/><path fill="#944520" d="M3.438-1252.25h22.59a3.04 3.04 0 0 1 0 3.02H3.437c-.54-.94-.54-2.08 0-3.02"/><path fill="none" stroke="#000" stroke-linecap="round" stroke-linejoin="round" stroke-width=".85" d="M3.438-1252.25h22.59a3.04 3.04 0 0 1 0 3.02H3.437c-.54-.94-.54-2.08 0-3.02"/><path fill="#944520" d="M3.438-1267.31h22.59a3.04 3.04 0 0 1 0 3.02H3.437c-.54-.94-.54-2.08 0-3.02"/><path fill="none" stroke="#000" stroke-linecap="round" stroke-linejoin="round" stroke-width=".85" d="M3.438-1267.31h22.59a3.04 3.04 0 0 1 0 3.02H3.437c-.54-.94-.54-2.08 0-3.02"/><path fill="#944520" d="M3.438-1282.36h22.59c.535.93.535 2.08 0 3.01H3.437c-.54-.93-.54-2.08 0-3.01"/><path fill="none" stroke="#000" stroke-linecap="round" stroke-linejoin="round" stroke-width=".85" d="M3.438-1282.36h22.59c.535.93.535 2.08 0 3.01H3.437c-.54-.93-.54-2.08 0-3.01"/><path fill="#944520" d="M3.438-1297.42h22.59c.535.93.535 2.08 0 3.01H3.437c-.54-.93-.54-2.08 0-3.01"/><path fill="none" stroke="#000" stroke-linecap="round" stroke-linejoin="round" stroke-width=".85" d="M3.438-1297.42h22.59c.535.93.535 2.08 0 3.01H3.437c-.54-.93-.54-2.08 0-3.01"/><path fill="#944520" d="M3.438-1312.48h22.59c.535.93.535 2.08 0 3.01H3.437c-.54-.93-.54-2.08 0-3.01"/><path fill="none" stroke="#000" stroke-linecap="round" stroke-linejoin="round" stroke-width=".85" d="M3.438-1312.48h22.59c.535.93.535 2.08 0 3.01H3.437c-.54-.93-.54-2.08 0-3.01"/><path fill="#944520" d="M3.438-1327.54h22.59c.535.93.535 2.08 0 3.01H3.437c-.54-.93-.54-2.08 0-3.01"/><path fill="none" stroke="#000" stroke-linecap="round" stroke-linejoin="round" stroke-width=".85" d="M3.438-1327.54h22.59c.535.93.535 2.08 0 3.01H3.437c-.54-.93-.54-2.08 0-3.01"/><path fill="#944520" d="M3.438-1342.6h22.59c.535.93.535 2.08 0 3.01H3.437c-.54-.93-.54-2.08 0-3.01"/><path fill="none" stroke="#000" stroke-linecap="round" stroke-linejoin="round" stroke-width=".85" d="M3.438-1342.6h22.59c.535.93.535 2.08 0 3.01H3.437c-.54-.93-.54-2.08 0-3.01"/><path fill="#944520" d="M3.438-1357.66h22.59c.535.93.535 2.08 0 3.01H3.437c-.54-.93-.54-2.08 0-3.01"/><path fill="none" stroke="#000" stroke-linecap="round" stroke-linejoin="round" stroke-width=".85" d="M3.438-1357.66h22.59c.535.93.535 2.08 0 3.01H3.437c-.54-.93-.54-2.08 0-3.01"/><path fill="#944520" d="M3.438-1372.72h22.59c.535.93.535 2.08 0 3.01H3.437c-.54-.93-.54-2.08 0-3.01"/><path fill="none" stroke="#000" stroke-linecap="round" stroke-linejoin="round" stroke-width=".85" d="M3.438-1372.72h22.59c.535.93.535 2.08 0 3.01H3.437c-.54-.93-.54-2.08 0-3.01"/><path fill="#944520" d="M3.438-1387.78h22.59c.535.93.535 2.08 0 3.01H3.437c-.54-.93-.54-2.08 0-3.01"/><path fill="none" stroke="#000" stroke-linecap="round" stroke-linejoin="round" stroke-width=".85" d="M3.438-1387.78h22.59c.535.93.535 2.08 0 3.01H3.437c-.54-.93-.54-2.08 0-3.01"/><path fill="#944520" d="M3.438-1402.84h22.59a3.04 3.04 0 0 1 0 3.02H3.437c-.54-.94-.54-2.08 0-3.02"/><path fill="none" stroke="#000" stroke-linecap="round" stroke-linejoin="round" stroke-width=".85" d="M3.438-1402.84h22.59a3.04 3.04 0 0 1 0 3.02H3.437c-.54-.94-.54-2.08 0-3.02"/><path fill="#944520" d="M3.438-1417.9h22.59a3.04 3.04 0 0 1 0 3.02H3.437c-.54-.94-.54-2.08 0-3.02"/><path fill="none" stroke="#000" stroke-linecap="round" stroke-linejoin="round" stroke-width=".85" d="M3.438-1417.9h22.59a3.04 3.04 0 0 1 0 3.02H3.437c-.54-.94-.54-2.08 0-3.02"/><path fill="#944520" d="M3.438-1432.95h22.59c.535.93.535 2.08 0 3.01H3.437c-.54-.93-.54-2.08 0-3.01"/><path fill="none" stroke="#000" stroke-linecap="round" stroke-linejoin="round" stroke-width=".85" d="M3.438-1432.95h22.59c.535.93.535 2.08 0 3.01H3.437c-.54-.93-.54-2.08 0-3.01"/><path fill="#944520" d="M3.438-1448.01h22.59c.535.93.535 2.08 0 3.01H3.437c-.54-.93-.54-2.08 0-3.01"/><path fill="none" stroke="#000" stroke-linecap="round" stroke-linejoin="round" stroke-width=".85" d="M3.438-1448.01h22.59c.535.93.535 2.08 0 3.01H3.437c-.54-.93-.54-2.08 0-3.01"/><path fill="#944520" d="M3.438-1463.07h22.59c.535.93.535 2.08 0 3.01H3.437c-.54-.93-.54-2.08 0-3.01"/><path fill="none" stroke="#000" stroke-linecap="round" stroke-linejoin="round" stroke-width=".85" d="M3.438-1463.07h22.59c.535.93.535 2.08 0 3.01H3.437c-.54-.93-.54-2.08 0-3.01"/><path fill="#944520" d="M3.438-1478.13h22.59c.535.93.535 2.08 0 3.01H3.437c-.54-.93-.54-2.08 0-3.01"/><path fill="none" stroke="#000" stroke-linecap="round" stroke-linejoin="round" stroke-width=".85" d="M3.438-1478.13h22.59c.535.93.535 2.08 0 3.01H3.437c-.54-.93-.54-2.08 0-3.01"/><path fill="#944520" d="M3.438-1493.19h22.59c.535.93.535 2.08 0 3.01H3.437c-.54-.93-.54-2.08 0-3.01"/><path fill="none" stroke="#000" stroke-linecap="round" stroke-linejoin="round" stroke-width=".85" d="M3.438-1493.19h22.59c.535.93.535 2.08 0 3.01H3.437c-.54-.93-.54-2.08 0-3.01"/><path fill="#944520" d="M3.438-1508.25h22.59c.535.93.535 2.08 0 3.01H3.437c-.54-.93-.54-2.08 0-3.01"/><path fill="none" stroke="#000" stroke-linecap="round" stroke-linejoin="round" stroke-width=".85" d="M3.438-1508.25h22.59c.535.93.535 2.08 0 3.01H3.437c-.54-.93-.54-2.08 0-3.01"/><path fill="#944520" d="M3.438-1523.31h22.59c.535.93.535 2.08 0 3.01H3.437c-.54-.93-.54-2.08 0-3.01"/><path fill="none" stroke="#000" stroke-linecap="round" stroke-linejoin="round" stroke-width=".85" d="M3.438-1523.31h22.59c.535.93.535 2.08 0 3.01H3.437c-.54-.93-.54-2.08 0-3.01"/><path fill="#944520" d="M3.438-1538.37h22.59c.535.93.535 2.08 0 3.01H3.437c-.54-.93-.54-2.08 0-3.01"/><path fill="none" stroke="#000" stroke-linecap="round" stroke-linejoin="round" stroke-width=".85" d="M3.438-1538.37h22.59c.535.93.535 2.08 0 3.01H3.437c-.54-.93-.54-2.08 0-3.01"/><path fill="#944520" d="M3.438-1553.43h22.59c.535.93.535 2.08 0 3.01H3.437c-.54-.93-.54-2.08 0-3.01"/><path fill="none" stroke="#000" stroke-linecap="round" stroke-linejoin="round" stroke-width=".85" d="M3.438-1553.43h22.59c.535.93.535 2.08 0 3.01H3.437c-.54-.93-.54-2.08 0-3.01"/><path fill="#944520" d="M3.438-1568.49h22.59a3.04 3.04 0 0 1 0 3.02H3.437c-.54-.94-.54-2.08 0-3.02"/><path fill="none" stroke="#000" stroke-linecap="round" stroke-linejoin="round" stroke-width=".85" d="M3.438-1568.49h22.59a3.04 3.04 0 0 1 0 3.02H3.437c-.54-.94-.54-2.08 0-3.02"/><path fill="#944520" d="M3.438-1583.55h22.59a3.04 3.04 0 0 1 0 3.02H3.437c-.54-.94-.54-2.08 0-3.02"/><path fill="none" stroke="#000" stroke-linecap="round" stroke-linejoin="round" stroke-width=".85" d="M3.438-1583.55h22.59a3.04 3.04 0 0 1 0 3.02H3.437c-.54-.94-.54-2.08 0-3.02"/><path fill="#944520" d="M3.438-1598.6h22.59c.535.93.535 2.08 0 3.01H3.437c-.54-.93-.54-2.08 0-3.01"/><path fill="none" stroke="#000" stroke-linecap="round" stroke-linejoin="round" stroke-width=".85" d="M3.438-1598.6h22.59c.535.93.535 2.08 0 3.01H3.437c-.54-.93-.54-2.08 0-3.01"/><path fill="#944520" d="M3.438-1613.66h22.59c.535.93.535 2.08 0 3.01H3.437c-.54-.93-.54-2.08 0-3.01"/><path fill="none" stroke="#000" stroke-linecap="round" stroke-linejoin="round" stroke-width=".85" d="M3.438-1613.66h22.59c.535.93.535 2.08 0 3.01H3.437c-.54-.93-.54-2.08 0-3.01"/><path fill="#944520" d="M3.438-1628.72h22.59c.535.93.535 2.08 0 3.01H3.437c-.54-.93-.54-2.08 0-3.01"/><path fill="none" stroke="#000" stroke-linecap="round" stroke-linejoin="round" stroke-width=".85" d="M3.438-1628.72h22.59c.535.93.535 2.08 0 3.01H3.437c-.54-.93-.54-2.08 0-3.01"/><path fill="#944520" d="M3.438-1643.78h22.59c.535.93.535 2.08 0 3.01H3.437c-.54-.93-.54-2.08 0-3.01"/><path fill="none" stroke="#000" stroke-linecap="round" stroke-linejoin="round" stroke-width=".85" d="M3.438-1643.78h22.59c.535.93.535 2.08 0 3.01H3.437c-.54-.93-.54-2.08 0-3.01"/><path fill="#944520" d="M3.438-1658.84h22.59c.535.93.535 2.08 0 3.01H3.437c-.54-.93-.54-2.08 0-3.01"/><path fill="none" stroke="#000" stroke-linecap="round" stroke-linejoin="round" stroke-width=".85" d="M3.438-1658.84h22.59c.535.93.535 2.08 0 3.01H3.437c-.54-.93-.54-2.08 0-3.01"/><path fill="#944520" d="M3.438-1673.9h22.59c.535.93.535 2.08 0 3.01H3.437c-.54-.93-.54-2.08 0-3.01"/><path fill="none" stroke="#000" stroke-linecap="round" stroke-linejoin="round" stroke-width=".85" d="M3.438-1673.9h22.59c.535.93.535 2.08 0 3.01H3.437c-.54-.93-.54-2.08 0-3.01"/><path fill="#944520" d="M3.438-1688.96h22.59c.535.93.535 2.08 0 3.01H3.437c-.54-.93-.54-2.08 0-3.01"/><path fill="none" stroke="#000" stroke-linecap="round" stroke-linejoin="round" stroke-width=".85" d="M3.438-1688.96h22.59c.535.93.535 2.08 0 3.01H3.437c-.54-.93-.54-2.08 0-3.01"/><path fill="#944520" d="M3.438-1704.02h22.59c.535.93.535 2.08 0 3.01H3.437c-.54-.93-.54-2.08 0-3.01"/><path fill="none" stroke="#000" stroke-linecap="round" stroke-linejoin="round" stroke-width=".85" d="M3.438-1704.02h22.59c.535.93.535 2.08 0 3.01H3.437c-.54-.93-.54-2.08 0-3.01"/><path fill="#944520" d="M3.438-1719.08h22.59c.535.94.535 2.08 0 3.01H3.437c-.54-.93-.54-2.07 0-3.01"/><path fill="none" stroke="#000" stroke-linecap="round" stroke-linejoin="round" stroke-width=".85" d="M3.438-1719.08h22.59c.535.94.535 2.08 0 3.01H3.437c-.54-.93-.54-2.07 0-3.01"/><path fill="#944520" d="M3.438-1734.14h22.59a3.04 3.04 0 0 1 0 3.02H3.437c-.54-.94-.54-2.08 0-3.02"/><path fill="none" stroke="#000" stroke-linecap="round" stroke-linejoin="round" stroke-width=".85" d="M3.438-1734.14h22.59a3.04 3.04 0 0 1 0 3.02H3.437c-.54-.94-.54-2.08 0-3.02"/><path fill="#944520" d="M3.438-1749.19h22.59c.535.93.535 2.07 0 3.01H3.437c-.54-.94-.54-2.08 0-3.01"/><path fill="none" stroke="#000" stroke-linecap="round" stroke-linejoin="round" stroke-width=".85" d="M3.438-1749.19h22.59c.535.93.535 2.07 0 3.01H3.437c-.54-.94-.54-2.08 0-3.01"/><path fill="#944520" d="M3.438-1764.25h22.59c.535.93.535 2.08 0 3.01H3.437c-.54-.93-.54-2.08 0-3.01"/><path fill="none" stroke="#000" stroke-linecap="round" stroke-linejoin="round" stroke-width=".85" d="M3.438-1764.25h22.59c.535.93.535 2.08 0 3.01H3.437c-.54-.93-.54-2.08 0-3.01"/><path fill="#944520" d="M3.438-1779.31h22.59c.535.93.535 2.08 0 3.01H3.437c-.54-.93-.54-2.08 0-3.01"/><path fill="none" stroke="#000" stroke-linecap="round" stroke-linejoin="round" stroke-width=".85" d="M3.438-1779.31h22.59c.535.93.535 2.08 0 3.01H3.437c-.54-.93-.54-2.08 0-3.01"/><path fill="#944520" d="M3.438-1794.37h22.59c.535.93.535 2.08 0 3.01H3.437c-.54-.93-.54-2.08 0-3.01"/><path fill="none" stroke="#000" stroke-linecap="round" stroke-linejoin="round" stroke-width=".85" d="M3.438-1794.37h22.59c.535.93.535 2.08 0 3.01H3.437c-.54-.93-.54-2.08 0-3.01"/><path fill="#944520" d="M3.438-1809.43h22.59c.535.93.535 2.08 0 3.01H3.437c-.54-.93-.54-2.08 0-3.01"/><path fill="none" stroke="#000" stroke-linecap="round" stroke-linejoin="round" stroke-width=".85" d="M3.438-1809.43h22.59c.535.93.535 2.08 0 3.01H3.437c-.54-.93-.54-2.08 0-3.01"/><path fill="#944520" d="M3.438-1824.49h22.59c.535.93.535 2.08 0 3.01H3.437c-.54-.93-.54-2.08 0-3.01"/><path fill="none" stroke="#000" stroke-linecap="round" stroke-linejoin="round" stroke-width=".85" d="M3.438-1824.49h22.59c.535.93.535 2.08 0 3.01H3.437c-.54-.93-.54-2.08 0-3.01"/><path fill="#944520" d="M3.438-1839.55h22.59c.535.93.535 2.08 0 3.01H3.437c-.54-.93-.54-2.08 0-3.01"/><path fill="none" stroke="#000" stroke-linecap="round" stroke-linejoin="round" stroke-width=".85" d="M3.438-1839.55h22.59c.535.93.535 2.08 0 3.01H3.437c-.54-.93-.54-2.08 0-3.01"/><path fill="#944520" d="M3.438-1854.61h22.59c.535.93.535 2.08 0 3.01H3.437c-.54-.93-.54-2.08 0-3.01"/><path fill="none" stroke="#000" stroke-linecap="round" stroke-linejoin="round" stroke-width=".85" d="M3.438-1854.61h22.59c.535.93.535 2.08 0 3.01H3.437c-.54-.93-.54-2.08 0-3.01"/><path fill="#944520" d="M3.438-1869.67h22.59c.535.93.535 2.08 0 3.01H3.437c-.54-.93-.54-2.08 0-3.01"/><path fill="none" stroke="#000" stroke-linecap="round" stroke-linejoin="round" stroke-width=".85" d="M3.438-1869.67h22.59c.535.93.535 2.08 0 3.01H3.437c-.54-.93-.54-2.08 0-3.01"/><path fill="#944520" d="M3.438-1884.73h22.59a3.04 3.04 0 0 1 0 3.02H3.437c-.54-.94-.54-2.08 0-3.02"/><path fill="none" stroke="#000" stroke-linecap="round" stroke-linejoin="round" stroke-width=".85" d="M3.438-1884.73h22.59a3.04 3.04 0 0 1 0 3.02H3.437c-.54-.94-.54-2.08 0-3.02"/><path fill="#944520" d="M3.438-1899.79h22.59a3.04 3.04 0 0 1 0 3.02H3.437c-.54-.94-.54-2.08 0-3.02"/><path fill="none" stroke="#000" stroke-linecap="round" stroke-linejoin="round" stroke-width=".85" d="M3.438-1899.79h22.59a3.04 3.04 0 0 1 0 3.02H3.437c-.54-.94-.54-2.08 0-3.02"/><path fill="#944520" d="M3.438-1914.84h22.59c.535.93.535 2.08 0 3.01H3.437c-.54-.93-.54-2.08 0-3.01"/><path fill="none" stroke="#000" stroke-linecap="round" stroke-linejoin="round" stroke-width=".85" d="M3.438-1914.84h22.59c.535.93.535 2.08 0 3.01H3.437c-.54-.93-.54-2.08 0-3.01"/><path fill="#944520" d="M3.438-1929.9h22.59c.535.93.535 2.08 0 3.01H3.437c-.54-.93-.54-2.08 0-3.01"/><path fill="none" stroke="#000" stroke-linecap="round" stroke-linejoin="round" stroke-width=".85" d="M3.438-1929.9h22.59c.535.93.535 2.08 0 3.01H3.437c-.54-.93-.54-2.08 0-3.01"/><path fill="#944520" d="M3.438-1944.96h22.59c.535.93.535 2.08 0 3.01H3.437c-.54-.93-.54-2.08 0-3.01"/><path fill="none" stroke="#000" stroke-linecap="round" stroke-linejoin="round" stroke-width=".85" d="M3.438-1944.96h22.59c.535.93.535 2.08 0 3.01H3.437c-.54-.93-.54-2.08 0-3.01"/><path fill="#944520" d="M3.438-1960.02h22.59c.535.93.535 2.08 0 3.01H3.437c-.54-.93-.54-2.08 0-3.01"/><path fill="none" stroke="#000" stroke-linecap="round" stroke-linejoin="round" stroke-width=".85" d="M3.438-1960.02h22.59c.535.93.535 2.08 0 3.01H3.437c-.54-.93-.54-2.08 0-3.01"/><path fill="#944520" d="M3.438-1975.08h22.59c.535.93.535 2.08 0 3.01H3.437c-.54-.93-.54-2.08 0-3.01"/><path fill="none" stroke="#000" stroke-linecap="round" stroke-linejoin="round" stroke-width=".85" d="M3.438-1975.08h22.59c.535.93.535 2.08 0 3.01H3.437c-.54-.93-.54-2.08 0-3.01"/><path fill="#944520" d="M3.438-1990.14h22.59c.535.93.535 2.08 0 3.01H3.437c-.54-.93-.54-2.08 0-3.01"/><path fill="none" stroke="#000" stroke-linecap="round" stroke-linejoin="round" stroke-width=".85" d="M3.438-1990.14h22.59c.535.93.535 2.08 0 3.01H3.437c-.54-.93-.54-2.08 0-3.01"/><path fill="#944520" d="M3.438-2005.2h22.59c.535.93.535 2.08 0 3.01H3.437c-.54-.93-.54-2.08 0-3.01"/><path fill="none" stroke="#000" stroke-linecap="round" stroke-linejoin="round" stroke-width=".85" d="M3.438-2005.2h22.59c.535.93.535 2.08 0 3.01H3.437c-.54-.93-.54-2.08 0-3.01"/><path fill="#944520" d="M3.438-2020.26h22.59c.535.93.535 2.08 0 3.01H3.437c-.54-.93-.54-2.08 0-3.01"/><path fill="none" stroke="#000" stroke-linecap="round" stroke-linejoin="round" stroke-width=".85" d="M3.438-2020.26h22.59c.535.93.535 2.08 0 3.01H3.437c-.54-.93-.54-2.08 0-3.01"/><path fill="#944520" d="M3.438-2035.32h22.59c.535.93.535 2.08 0 3.01H3.437c-.54-.93-.54-2.08 0-3.01"/><path fill="none" stroke="#000" stroke-linecap="round" stroke-linejoin="round" stroke-width=".85" d="M3.438-2035.32h22.59c.535.93.535 2.08 0 3.01H3.437c-.54-.93-.54-2.08 0-3.01"/><path fill="#944520" d="M3.438-2050.38h22.59a3.04 3.04 0 0 1 0 3.02H3.437c-.54-.94-.54-2.08 0-3.02"/><path fill="none" stroke="#000" stroke-linecap="round" stroke-linejoin="round" stroke-width=".85" d="M3.438-2050.38h22.59a3.04 3.04 0 0 1 0 3.02H3.437c-.54-.94-.54-2.08 0-3.02"/><path fill="#944520" d="M3.438-2065.44h22.59a3.04 3.04 0 0 1 0 3.02H3.437c-.54-.94-.54-2.08 0-3.02"/><path fill="none" stroke="#000" stroke-linecap="round" stroke-linejoin="round" stroke-width=".85" d="M3.438-2065.44h22.59a3.04 3.04 0 0 1 0 3.02H3.437c-.54-.94-.54-2.08 0-3.02"/><path fill="#944520" d="M3.438-2080.49h22.59c.535.93.535 2.08 0 3.01H3.437c-.54-.93-.54-2.08 0-3.01"/><path fill="none" stroke="#000" stroke-linecap="round" stroke-linejoin="round" stroke-width=".85" d="M3.438-2080.49h22.59c.535.93.535 2.08 0 3.01H3.437c-.54-.93-.54-2.08 0-3.01"/><path fill="#944520" d="M3.438-2095.55h22.59c.535.93.535 2.08 0 3.01H3.437c-.54-.93-.54-2.08 0-3.01"/><path fill="none" stroke="#000" stroke-linecap="round" stroke-linejoin="round" stroke-width=".85" d="M3.438-2095.55h22.59c.535.93.535 2.08 0 3.01H3.437c-.54-.93-.54-2.08 0-3.01"/><path fill="#944520" d="M3.438-2110.61h22.59c.535.93.535 2.08 0 3.01H3.437c-.54-.93-.54-2.08 0-3.01"/><path fill="none" stroke="#000" stroke-linecap="round" stroke-linejoin="round" stroke-width=".85" d="M3.438-2110.61h22.59c.535.93.535 2.08 0 3.01H3.437c-.54-.93-.54-2.08 0-3.01"/><path fill="#944520" d="M3.438-2125.67h22.59c.535.93.535 2.08 0 3.01H3.437c-.54-.93-.54-2.08 0-3.01"/><path fill="none" stroke="#000" stroke-linecap="round" stroke-linejoin="round" stroke-width=".85" d="M3.438-2125.67h22.59c.535.93.535 2.08 0 3.01H3.437c-.54-.93-.54-2.08 0-3.01"/><path fill="#944520" d="M3.438-2140.73h22.59c.535.93.535 2.08 0 3.01H3.437c-.54-.93-.54-2.08 0-3.01"/><path fill="none" stroke="#000" stroke-linecap="round" stroke-linejoin="round" stroke-width=".85" d="M3.438-2140.73h22.59c.535.93.535 2.08 0 3.01H3.437c-.54-.93-.54-2.08 0-3.01"/><path fill="#944520" d="M3.438-2155.79h22.59c.535.93.535 2.08 0 3.01H3.437c-.54-.93-.54-2.08 0-3.01"/><path fill="none" stroke="#000" stroke-linecap="round" stroke-linejoin="round" stroke-width=".85" d="M3.438-2155.79h22.59c.535.93.535 2.08 0 3.01H3.437c-.54-.93-.54-2.08 0-3.01"/><path fill="#944520" d="M3.438-2170.85h22.59c.535.93.535 2.08 0 3.01H3.437c-.54-.93-.54-2.08 0-3.01"/><path fill="none" stroke="#000" stroke-linecap="round" stroke-linejoin="round" stroke-width=".85" d="M3.438-2170.85h22.59c.535.93.535 2.08 0 3.01H3.437c-.54-.93-.54-2.08 0-3.01"/><path fill="#944520" d="M3.438-2185.91h22.59c.535.93.535 2.08 0 3.01H3.437c-.54-.93-.54-2.08 0-3.01"/><path fill="none" stroke="#000" stroke-linecap="round" stroke-linejoin="round" stroke-width=".85" d="M3.438-2185.91h22.59c.535.93.535 2.08 0 3.01H3.437c-.54-.93-.54-2.08 0-3.01"/><path fill="#944520" d="M3.438-2200.97h22.59a3.04 3.04 0 0 1 0 3.02H3.437c-.54-.94-.54-2.08 0-3.02"/><path fill="none" stroke="#000" stroke-linecap="round" stroke-linejoin="round" stroke-width=".85" d="M3.438-2200.97h22.59a3.04 3.04 0 0 1 0 3.02H3.437c-.54-.94-.54-2.08 0-3.02"/><path fill="#944520" d="M3.438-2216.03h22.59a3.04 3.04 0 0 1 0 3.02H3.437c-.54-.94-.54-2.08 0-3.02"/><path fill="none" stroke="#000" stroke-linecap="round" stroke-linejoin="round" stroke-width=".85" d="M3.438-2216.03h22.59a3.04 3.04 0 0 1 0 3.02H3.437c-.54-.94-.54-2.08 0-3.02"/><path fill="#944520" d="M3.438-2231.08h22.59c.535.93.535 2.08 0 3.01H3.437c-.54-.93-.54-2.08 0-3.01"/><path fill="none" stroke="#000" stroke-linecap="round" stroke-linejoin="round" stroke-width=".85" d="M3.438-2231.08h22.59c.535.93.535 2.08 0 3.01H3.437c-.54-.93-.54-2.08 0-3.01"/><path fill="#944520" d="M3.438-2246.14h22.59c.535.93.535 2.08 0 3.01H3.437c-.54-.93-.54-2.08 0-3.01"/><path fill="none" stroke="#000" stroke-linecap="round" stroke-linejoin="round" stroke-width=".85" d="M3.438-2246.14h22.59c.535.93.535 2.08 0 3.01H3.437c-.54-.93-.54-2.08 0-3.01"/><path fill="#944520" d="M3.438-2261.2h22.59c.535.93.535 2.08 0 3.01H3.437c-.54-.93-.54-2.08 0-3.01"/><path fill="none" stroke="#000" stroke-linecap="round" stroke-linejoin="round" stroke-width=".85" d="M3.438-2261.2h22.59c.535.93.535 2.08 0 3.01H3.437c-.54-.93-.54-2.08 0-3.01"/><path fill="#944520" d="M3.438-2276.26h22.59c.535.93.535 2.08 0 3.01H3.437c-.54-.93-.54-2.08 0-3.01"/><path fill="none" stroke="#000" stroke-linecap="round" stroke-linejoin="round" stroke-width=".85" d="M3.438-2276.26h22.59c.535.93.535 2.08 0 3.01H3.437c-.54-.93-.54-2.08 0-3.01"/><path fill="#944520" d="M3.438-2291.32h22.59c.535.93.535 2.08 0 3.01H3.437c-.54-.93-.54-2.08 0-3.01"/><path fill="none" stroke="#000" stroke-linecap="round" stroke-linejoin="round" stroke-width=".85" d="M3.438-2291.32h22.59c.535.93.535 2.08 0 3.01H3.437c-.54-.93-.54-2.08 0-3.01"/><path fill="#944520" d="M3.438-2306.38h22.59c.535.93.535 2.08 0 3.01H3.437c-.54-.93-.54-2.08 0-3.01"/><path fill="none" stroke="#000" stroke-linecap="round" stroke-linejoin="round" stroke-width=".85" d="M3.438-2306.38h22.59c.535.93.535 2.08 0 3.01H3.437c-.54-.93-.54-2.08 0-3.01"/><path fill="#944520" d="M3.438-2321.44h22.59c.535.93.535 2.08 0 3.01H3.437c-.54-.93-.54-2.08 0-3.01"/><path fill="none" stroke="#000" stroke-linecap="round" stroke-linejoin="round" stroke-width=".85" d="M3.438-2321.44h22.59c.535.93.535 2.08 0 3.01H3.437c-.54-.93-.54-2.08 0-3.01"/><path fill="#944520" d="M3.438-2336.5h22.59c.535.93.535 2.08 0 3.01H3.437c-.54-.93-.54-2.08 0-3.01"/><path fill="none" stroke="#000" stroke-linecap="round" stroke-linejoin="round" stroke-width=".85" d="M3.438-2336.5h22.59c.535.93.535 2.08 0 3.01H3.437c-.54-.93-.54-2.08 0-3.01"/><path fill="#944520" d="M3.438-2351.56h22.59c.535.93.535 2.08 0 3.01H3.437c-.54-.93-.54-2.08 0-3.01"/><path fill="none" stroke="#000" stroke-linecap="round" stroke-linejoin="round" stroke-width=".85" d="M3.438-2351.56h22.59c.535.93.535 2.08 0 3.01H3.437c-.54-.93-.54-2.08 0-3.01"/><path fill="#944520" d="M3.438-2366.62h22.59a3.04 3.04 0 0 1 0 3.02H3.437c-.54-.94-.54-2.08 0-3.02"/><path fill="none" stroke="#000" stroke-linecap="round" stroke-linejoin="round" stroke-width=".85" d="M3.438-2366.62h22.59a3.04 3.04 0 0 1 0 3.02H3.437c-.54-.94-.54-2.08 0-3.02"/><path fill="#944520" d="M3.438-2381.68h22.59a3.04 3.04 0 0 1 0 3.02H3.437c-.54-.94-.54-2.08 0-3.02"/><path fill="none" stroke="#000" stroke-linecap="round" stroke-linejoin="round" stroke-width=".85" d="M3.438-2381.68h22.59a3.04 3.04 0 0 1 0 3.02H3.437c-.54-.94-.54-2.08 0-3.02"/><path fill="#944520" d="M3.438-2396.73h22.59c.535.93.535 2.08 0 3.01H3.437c-.54-.93-.54-2.08 0-3.01"/><path fill="none" stroke="#000" stroke-linecap="round" stroke-linejoin="round" stroke-width=".85" d="M3.438-2396.73h22.59c.535.93.535 2.08 0 3.01H3.437c-.54-.93-.54-2.08 0-3.01"/><path fill="#944520" d="M3.438-2411.79h22.59c.535.93.535 2.08 0 3.01H3.437c-.54-.93-.54-2.08 0-3.01"/><path fill="none" stroke="#000" stroke-linecap="round" stroke-linejoin="round" stroke-width=".85" d="M3.438-2411.79h22.59c.535.93.535 2.08 0 3.01H3.437c-.54-.93-.54-2.08 0-3.01"/><path fill="#944520" d="M3.438-2426.85h22.59c.535.93.535 2.08 0 3.01H3.437c-.54-.93-.54-2.08 0-3.01"/><path fill="none" stroke="#000" stroke-linecap="round" stroke-linejoin="round" stroke-width=".85" d="M3.438-2426.85h22.59c.535.93.535 2.08 0 3.01H3.437c-.54-.93-.54-2.08 0-3.01"/></g></svg>