<svg xmlns="http://www.w3.org/2000/svg" width="385pt" height="668pt" viewBox="0 -668 385 668"><g id="page1"><path fill="#ffd9b2" d="M10.004-8.945h5.953c1.633 0 3.2.648 4.355 1.804l4.895 4.895a2.553 2.553 0 0 0 3.61 0l4.894-4.895a6.16 6.16 0 0 1 4.355-1.804h325.711a2.55 2.55 0 0 0 2.551-2.551v-73.156a2.55 2.55 0 0 0-2.551-2.551H38.067c-1.633 0-3.2.648-4.356 1.8l-4.895 4.9a2.553 2.553 0 0 1-3.609 0l-4.895-4.9a6.17 6.17 0 0 0-4.355-1.8H4.051a2.55 2.55 0 0 0-2.551 2.55v73.157c0 1.41 1.14 2.55 2.55 2.55z"/><path fill="none" stroke="#b25900" stroke-linecap="round" stroke-linejoin="round" stroke-width="3" d="M10.004-8.945h5.953c1.633 0 3.2.648 4.355 1.804l4.895 4.895a2.553 2.553 0 0 0 3.61 0l4.894-4.895a6.16 6.16 0 0 1 4.355-1.804h325.711a2.55 2.55 0 0 0 2.551-2.551v-73.156a2.55 2.55 0 0 0-2.551-2.551H38.067c-1.633 0-3.2.648-4.356 1.8l-4.895 4.9a2.553 2.553 0 0 1-3.609 0l-4.895-4.9a6.17 6.17 0 0 0-4.355-1.8H4.051a2.55 2.55 0 0 0-2.551 2.55v73.157c0 1.41 1.14 2.55 2.55 2.55z"/><path fill="#c6c6ff" d="M158.051-21.703h56.746a2.55 2.55 0 0 0 2.551-2.55v-47.645a2.554 2.554 0 0 0-2.551-2.551H101.309a2.55 2.55 0 0 0-2.551 2.55v47.645a2.55 2.55 0 0 0 2.551 2.55z"/><path fill="none" stroke="#2d2db2" stroke-linecap="round" stroke-linejoin="round" stroke-width="3" d="M158.051-21.703h56.746a2.55 2.55 0 0 0 2.551-2.55v-47.645a2.554 2.554 0 0 0-2.551-2.551H101.309a2.55 2.55 0 0 0-2.551 2.55v47.645a2.55 2.55 0 0 0 2.551 2.55z"/><path fill="#ffb2ff" d="M10.004-90.148h5.953c1.633 0 3.2.648 4.355 1.8l4.895 4.899a2.553 2.553 0 0 0 3.61 0l4.894-4.899a6.17 6.17 0 0 1 4.355-1.8h325.711a2.555 2.555 0 0 0 2.551-2.555v-489.684a2.55 2.55 0 0 0-2.551-2.551H38.067c-1.633 0-3.2.649-4.356 1.801l-4.895 4.899a2.554 2.554 0 0 1-3.609 0l-4.895-4.899a6.17 6.17 0 0 0-4.355-1.801H4.051a2.55 2.55 0 0 0-2.551 2.551v489.684c0 1.41 1.14 2.555 2.55 2.555z"/><path fill="none" stroke="#b200b2" stroke-linecap="round" stroke-linejoin="round" stroke-width="3" d="M10.004-90.148h5.953c1.633 0 3.2.648 4.355 1.8l4.895 4.899a2.553 2.553 0 0 0 3.61 0l4.894-4.899a6.17 6.17 0 0 1 4.355-1.8h325.711a2.555 2.555 0 0 0 2.551-2.555v-489.684a2.55 2.55 0 0 0-2.551-2.551H38.067c-1.633 0-3.2.649-4.356 1.801l-4.895 4.899a2.554 2.554 0 0 1-3.609 0l-4.895-4.899a6.17 6.17 0 0 0-4.355-1.801H4.051a2.55 2.55 0 0 0-2.551 2.551v489.684c0 1.41 1.14 2.555 2.55 2.555z"/><path fill="#ffffb2" d="M35.516-107.156h5.953c1.633 0 3.199.648 4.355 1.801l4.895 4.898a2.553 2.553 0 0 0 3.61 0l4.894-4.898a6.17 6.17 0 0 1 4.355-1.801h308.703a2.555 2.555 0 0 0 2.551-2.555v-193.934a2.55 2.55 0 0 0-2.551-2.55H63.578c-1.633 0-3.2.648-4.355 1.804l-4.895 4.895a2.553 2.553 0 0 1-3.61 0l-4.894-4.895a6.16 6.16 0 0 0-4.355-1.804H29.562c-1.41 0-2.55 1.14-2.55 2.55v193.934c0 1.41 1.14 2.555 2.55 2.555z"/><path fill="none" stroke="#b2b200" stroke-linecap="round" stroke-linejoin="round" stroke-width="3" d="M35.516-107.156h5.953c1.633 0 3.199.648 4.355 1.801l4.895 4.898a2.553 2.553 0 0 0 3.61 0l4.894-4.898a6.17 6.17 0 0 1 4.355-1.801h308.703a2.555 2.555 0 0 0 2.551-2.555v-193.934a2.55 2.55 0 0 0-2.551-2.55H63.578c-1.633 0-3.2.648-4.355 1.804l-4.895 4.895a2.553 2.553 0 0 1-3.61 0l-4.894-4.895a6.16 6.16 0 0 0-4.355-1.804H29.562c-1.41 0-2.55 1.14-2.55 2.55v193.934c0 1.41 1.14 2.555 2.55 2.555z"/><path fill="#ffd9b2" d="M61.027-124.164h5.954c1.632 0 3.199.648 4.355 1.801l4.895 4.898a2.553 2.553 0 0 0 3.609 0l4.894-4.898a6.17 6.17 0 0 1 4.356-1.801h291.695a2.556 2.556 0 0 0 2.551-2.555v-73.156a2.555 2.555 0 0 0-2.551-2.551H89.09a6.16 6.16 0 0 0-4.356 1.805l-4.894 4.894a2.55 2.55 0 0 1-3.61 0l-4.894-4.894a6.16 6.16 0 0 0-4.355-1.805H55.074a2.55 2.55 0 0 0-2.55 2.551v73.156c0 1.41 1.14 2.555 2.55 2.555z"/><path fill="none" stroke="#b25900" stroke-linecap="round" stroke-linejoin="round" stroke-width="3" d="M61.027-124.164h5.954c1.632 0 3.199.648 4.355 1.801l4.895 4.898a2.553 2.553 0 0 0 3.609 0l4.894-4.898a6.17 6.17 0 0 1 4.356-1.801h291.695a2.556 2.556 0 0 0 2.551-2.555v-73.156a2.555 2.555 0 0 0-2.551-2.551H89.09a6.16 6.16 0 0 0-4.356 1.805l-4.894 4.894a2.55 2.55 0 0 1-3.61 0l-4.894-4.894a6.16 6.16 0 0 0-4.355-1.805H55.074a2.55 2.55 0 0 0-2.55 2.551v73.156c0 1.41 1.14 2.555 2.55 2.555z"/><path fill="#c6c6ff" d="M238.34-136.922h56.746a2.55 2.55 0 0 0 2.551-2.551v-47.644a2.55 2.55 0 0 0-2.551-2.551H181.598a2.55 2.55 0 0 0-2.551 2.551v47.644a2.55 2.55 0 0 0 2.551 2.551z"/><path fill="none" stroke="#2d2db2" stroke-linecap="round" stroke-linejoin="round" stroke-width="3" d="M238.34-136.922h56.746a2.55 2.55 0 0 0 2.551-2.551v-47.644a2.55 2.55 0 0 0-2.551-2.551H181.598a2.55 2.55 0 0 0-2.551 2.551v47.644a2.55 2.55 0 0 0 2.551 2.551z"/><path fill="#d9b2b2" d="M340.137-163.297c0 13.176 5.679 26.375 17.347 26.375 11.664 0 17.348-13.199 17.348-26.375 0-13.172-5.684-26.371-17.348-26.371-11.668 0-17.347 13.199-17.347 26.371"/><path fill="none" stroke="#590000" stroke-linecap="round" stroke-linejoin="round" stroke-width="3" d="M340.137-163.297c0 13.176 5.679 26.375 17.347 26.375 11.664 0 17.348-13.199 17.348-26.375 0-13.172-5.684-26.371-17.348-26.371-11.668 0-17.347 13.199-17.347 26.371"/><path fill="#b2ffb2" d="m76.727-231.992 10.433 14.398a12.5 12.5 0 0 0 10.121 5.164H305.88c4.008 0 7.769-1.922 10.121-5.164l20.863-28.801a8.805 8.805 0 0 0 0-10.328L316-285.523a12.5 12.5 0 0 0-10.121-5.165H97.281c-4.008 0-7.77 1.922-10.12 5.165l-20.864 28.8a8.81 8.81 0 0 0 0 10.328z"/><path fill="none" stroke="#00b200" stroke-linecap="round" stroke-linejoin="round" stroke-width="3" d="m76.727-231.992 10.433 14.398a12.5 12.5 0 0 0 10.121 5.164H305.88c4.008 0 7.769-1.922 10.121-5.164l20.863-28.801a8.805 8.805 0 0 0 0-10.328L316-285.523a12.5 12.5 0 0 0-10.121-5.165H97.281c-4.008 0-7.77 1.922-10.12 5.165l-20.864 28.8a8.81 8.81 0 0 0 0 10.328z"/><path fill="#c6c6ff" d="M107.379-225.184h12.195a2.55 2.55 0 0 0 2.551-2.55v-47.649a2.55 2.55 0 0 0-2.551-2.551h-24.39a2.55 2.55 0 0 0-2.551 2.551v47.649a2.55 2.55 0 0 0 2.55 2.55z"/><path fill="none" stroke="#2d2db2" stroke-linecap="round" stroke-linejoin="round" stroke-width="3" d="M107.379-225.184h12.195a2.55 2.55 0 0 0 2.551-2.55v-47.649a2.55 2.55 0 0 0-2.551-2.551h-24.39a2.55 2.55 0 0 0-2.551 2.551v47.649a2.55 2.55 0 0 0 2.55 2.55z"/><path fill="#d9b2b2" d="M275.832-251.559c0 13.172 5.684 26.375 17.348 26.375s17.347-13.203 17.347-26.375c0-13.171-5.683-26.375-17.347-26.375s-17.348 13.204-17.348 26.375"/><path fill="none" stroke="#590000" stroke-linecap="round" stroke-linejoin="round" stroke-width="3" d="M275.832-251.559c0 13.172 5.684 26.375 17.348 26.375s17.347-13.203 17.347-26.375c0-13.171-5.683-26.375-17.347-26.375s-17.348 13.204-17.348 26.375"/><path fill="#ffffb2" d="M35.516-309.141h5.953c1.633 0 3.199.649 4.355 1.801l4.895 4.899a2.553 2.553 0 0 0 3.61 0l4.894-4.899a6.17 6.17 0 0 1 4.355-1.801h308.703a2.553 2.553 0 0 0 2.551-2.55v-193.938a2.55 2.55 0 0 0-2.551-2.551H63.578a6.16 6.16 0 0 0-4.355 1.805l-4.895 4.895a2.553 2.553 0 0 1-3.61 0l-4.894-4.895a6.16 6.16 0 0 0-4.355-1.805H29.562a2.55 2.55 0 0 0-2.55 2.551v193.938a2.55 2.55 0 0 0 2.55 2.55z"/><path fill="none" stroke="#b2b200" stroke-linecap="round" stroke-linejoin="round" stroke-width="3" d="M35.516-309.141h5.953c1.633 0 3.199.649 4.355 1.801l4.895 4.899a2.553 2.553 0 0 0 3.61 0l4.894-4.899a6.17 6.17 0 0 1 4.355-1.801h308.703a2.553 2.553 0 0 0 2.551-2.55v-193.938a2.55 2.55 0 0 0-2.551-2.551H63.578a6.16 6.16 0 0 0-4.355 1.805l-4.895 4.895a2.553 2.553 0 0 1-3.61 0l-4.894-4.895a6.16 6.16 0 0 0-4.355-1.805H29.562a2.55 2.55 0 0 0-2.55 2.551v193.938a2.55 2.55 0 0 0 2.55 2.55z"/><path fill="#ffd9b2" d="M61.027-326.148h5.954c1.632 0 3.199.648 4.355 1.8l4.895 4.899a2.553 2.553 0 0 0 3.609 0l4.894-4.899a6.17 6.17 0 0 1 4.356-1.8h291.695a2.555 2.555 0 0 0 2.551-2.551v-73.16a2.554 2.554 0 0 0-2.551-2.551H89.09c-1.633 0-3.2.648-4.356 1.805l-4.894 4.894c-.996 1-2.613 1-3.61 0l-4.894-4.894a6.16 6.16 0 0 0-4.355-1.805H55.074a2.55 2.55 0 0 0-2.55 2.551v73.16a2.55 2.55 0 0 0 2.55 2.551z"/><path fill="none" stroke="#b25900" stroke-linecap="round" stroke-linejoin="round" stroke-width="3" d="M61.027-326.148h5.954c1.632 0 3.199.648 4.355 1.8l4.895 4.899a2.553 2.553 0 0 0 3.609 0l4.894-4.899a6.17 6.17 0 0 1 4.356-1.8h291.695a2.555 2.555 0 0 0 2.551-2.551v-73.16a2.554 2.554 0 0 0-2.551-2.551H89.09c-1.633 0-3.2.648-4.356 1.805l-4.894 4.894c-.996 1-2.613 1-3.61 0l-4.894-4.894a6.16 6.16 0 0 0-4.355-1.805H55.074a2.55 2.55 0 0 0-2.55 2.551v73.16a2.55 2.55 0 0 0 2.55 2.551z"/><path fill="#c6c6ff" d="M222.602-338.906h56.746a2.55 2.55 0 0 0 2.55-2.551v-47.645a2.55 2.55 0 0 0-2.55-2.55H165.859c-1.41 0-2.55 1.14-2.55 2.55v47.645c0 1.41 1.14 2.551 2.55 2.551z"/><path fill="none" stroke="#2d2db2" stroke-linecap="round" stroke-linejoin="round" stroke-width="3" d="M222.602-338.906h56.746a2.55 2.55 0 0 0 2.55-2.551v-47.645a2.55 2.55 0 0 0-2.55-2.55H165.859c-1.41 0-2.55 1.14-2.55 2.55v47.645c0 1.41 1.14 2.551 2.55 2.551z"/><path fill="#d9b2b2" d="M324.398-365.277c0 13.172 5.68 26.371 17.348 26.371 11.664 0 17.348-13.199 17.348-26.371 0-13.176-5.684-26.375-17.348-26.375-11.668 0-17.348 13.199-17.348 26.375"/><path fill="none" stroke="#590000" stroke-linecap="round" stroke-linejoin="round" stroke-width="3" d="M324.398-365.277c0 13.172 5.68 26.371 17.348 26.371 11.664 0 17.348-13.199 17.348-26.371 0-13.176-5.684-26.375-17.348-26.375-11.668 0-17.348 13.199-17.348 26.375"/><path fill="#b2ffb2" d="m76.727-433.977 10.433 14.399a12.5 12.5 0 0 0 10.121 5.164H305.88c4.008 0 7.769-1.922 10.121-5.164l20.863-28.801a8.805 8.805 0 0 0 0-10.328L316-487.508a12.5 12.5 0 0 0-10.121-5.164H97.281c-4.008 0-7.77 1.922-10.12 5.164l-20.864 28.801a8.81 8.81 0 0 0 0 10.328z"/><path fill="none" stroke="#00b200" stroke-linecap="round" stroke-linejoin="round" stroke-width="3" d="m76.727-433.977 10.433 14.399a12.5 12.5 0 0 0 10.121 5.164H305.88c4.008 0 7.769-1.922 10.121-5.164l20.863-28.801a8.805 8.805 0 0 0 0-10.328L316-487.508a12.5 12.5 0 0 0-10.121-5.164H97.281c-4.008 0-7.77 1.922-10.12 5.164l-20.864 28.801a8.81 8.81 0 0 0 0 10.328z"/><path fill="#c6c6ff" d="M107.379-427.168h12.195a2.55 2.55 0 0 0 2.551-2.551v-47.644a2.553 2.553 0 0 0-2.551-2.555h-24.39a2.553 2.553 0 0 0-2.551 2.555v47.644a2.55 2.55 0 0 0 2.55 2.551z"/><path fill="none" stroke="#2d2db2" stroke-linecap="round" stroke-linejoin="round" stroke-width="3" d="M107.379-427.168h12.195a2.55 2.55 0 0 0 2.551-2.551v-47.644a2.553 2.553 0 0 0-2.551-2.555h-24.39a2.553 2.553 0 0 0-2.551 2.555v47.644a2.55 2.55 0 0 0 2.55 2.551z"/><path fill="#d9b2b2" d="M275.832-453.543c0 13.176 5.684 26.375 17.348 26.375s17.347-13.199 17.347-26.375c0-13.172-5.683-26.375-17.347-26.375s-17.348 13.203-17.348 26.375"/><path fill="none" stroke="#590000" stroke-linecap="round" stroke-linejoin="round" stroke-width="3" d="M275.832-453.543c0 13.176 5.684 26.375 17.348 26.375s17.347-13.199 17.347-26.375c0-13.172-5.683-26.375-17.347-26.375s-17.348 13.203-17.348 26.375"/><path fill="#c6c6ff" d="M137.438-518.184h12.195a2.55 2.55 0 0 0 2.551-2.55v-47.645a2.55 2.55 0 0 0-2.551-2.551h-24.391a2.55 2.55 0 0 0-2.551 2.551v47.645c0 1.41 1.141 2.55 2.551 2.55z"/><path fill="none" stroke="#2d2db2" stroke-linecap="round" stroke-linejoin="round" stroke-width="3" d="M137.438-518.184h12.195a2.55 2.55 0 0 0 2.551-2.55v-47.645a2.55 2.55 0 0 0-2.551-2.551h-24.391a2.55 2.55 0 0 0-2.551 2.551v47.645c0 1.41 1.141 2.55 2.551 2.55z"/><path fill="#d9b2b2" d="M199.887-544.559c0 13.176 5.683 26.375 17.347 26.375s17.348-13.199 17.348-26.375c0-13.171-5.684-26.371-17.348-26.371s-17.347 13.2-17.347 26.371"/><path fill="none" stroke="#590000" stroke-linecap="round" stroke-linejoin="round" stroke-width="3" d="M199.887-544.559c0 13.176 5.683 26.375 17.347 26.375s17.348-13.199 17.348-26.375c0-13.171-5.684-26.371-17.348-26.371s-17.347 13.2-17.347 26.371"/><path fill="#d9b2b2" d="M269.277-544.559c0 14.024 9.77 26.375 23.203 26.375 13.43 0 23.2-12.351 23.2-26.375s-9.77-26.371-23.2-26.371c-13.433 0-23.203 12.348-23.203 26.371"/><path fill="none" stroke="#590000" stroke-linecap="round" stroke-linejoin="round" stroke-width="3" d="M269.277-544.559c0 14.024 9.77 26.375 23.203 26.375 13.43 0 23.2-12.351 23.2-26.375s-9.77-26.371-23.2-26.371c-13.433 0-23.203 12.348-23.203 26.371"/><path fill="#ffd9b2" d="M10.004-587.887h5.953c1.633 0 3.2.653 4.355 1.805l4.895 4.898a2.554 2.554 0 0 0 3.61 0l4.894-4.898a6.18 6.18 0 0 1 4.355-1.805h325.711a2.55 2.55 0 0 0 2.551-2.551v-73.156a2.55 2.55 0 0 0-2.551-2.551H38.067a6.16 6.16 0 0 0-4.356 1.805l-4.895 4.895a2.554 2.554 0 0 1-3.609 0l-4.895-4.895a6.16 6.16 0 0 0-4.355-1.805H4.051a2.55 2.55 0 0 0-2.551 2.551v73.156a2.55 2.55 0 0 0 2.55 2.551z"/><path fill="none" stroke="#b25900" stroke-linecap="round" stroke-linejoin="round" stroke-width="3" d="M10.004-587.887h5.953c1.633 0 3.2.653 4.355 1.805l4.895 4.898a2.554 2.554 0 0 0 3.61 0l4.894-4.898a6.18 6.18 0 0 1 4.355-1.805h325.711a2.55 2.55 0 0 0 2.551-2.551v-73.156a2.55 2.55 0 0 0-2.551-2.551H38.067a6.16 6.16 0 0 0-4.356 1.805l-4.895 4.895a2.554 2.554 0 0 1-3.609 0l-4.895-4.895a6.16 6.16 0 0 0-4.355-1.805H4.051a2.55 2.55 0 0 0-2.551 2.551v73.156a2.55 2.55 0 0 0 2.55 2.551z"/><path fill="#c6c6ff" d="M165.207-600.641h56.742c1.41 0 2.551-1.14 2.551-2.55v-47.645a2.55 2.55 0 0 0-2.551-2.551H108.465a2.553 2.553 0 0 0-2.555 2.551v47.645c0 1.41 1.145 2.55 2.555 2.55z"/><path fill="none" stroke="#2d2db2" stroke-linecap="round" stroke-linejoin="round" stroke-width="3" d="M165.207-600.641h56.742c1.41 0 2.551-1.14 2.551-2.55v-47.645a2.55 2.55 0 0 0-2.551-2.551H108.465a2.553 2.553 0 0 0-2.555 2.551v47.645c0 1.41 1.145 2.55 2.555 2.55z"/><path fill="#d9b2b2" d="M259.195-627.016c0 13.176 5.684 26.375 17.348 26.375 11.668 0 17.348-13.199 17.348-26.375 0-13.172-5.68-26.371-17.348-26.371-11.664 0-17.348 13.199-17.348 26.371"/><path fill="none" stroke="#590000" stroke-linecap="round" stroke-linejoin="round" stroke-width="3" d="M259.195-627.016c0 13.176 5.684 26.375 17.348 26.375 11.668 0 17.348-13.199 17.348-26.375 0-13.172-5.68-26.371-17.348-26.371-11.664 0-17.348 13.199-17.348 26.371"/><path d="M20.836-52.207c0-.434 0-.55-.238-.55-.192 0-.645.523-.813.741-.738-.597-1.48-.742-2.246-.742-2.89 0-3.75 1.578-3.75 2.89 0 .266 0 1.102.906 1.938.766.668 1.578.836 2.68 1.051 1.313.262 1.625.332 2.219.813.43.359.742.882.742 1.55 0 1.032-.598 2.176-2.7 2.176-1.577 0-2.722-.906-3.25-3.297-.097-.43-.097-.453-.12-.476-.047-.098-.141-.098-.215-.098-.262 0-.262.121-.262.55v3.25c0 .43 0 .552.238.552.121 0 .145-.024.551-.528.117-.168.117-.215.477-.597.906 1.125 2.199 1.125 2.605 1.125 2.508 0 3.75-1.387 3.75-3.274 0-1.293-.785-2.058-1.004-2.273-.86-.739-1.504-.883-3.082-1.172-.715-.14-2.46-.477-2.46-1.91 0-.739.503-1.84 2.652-1.84 2.605 0 2.75 2.223 2.797 2.965.023.191.19.191.261.191.262 0 .262-.121.262-.55zm5.379.5h3.37v-.691h-3.37v-4.399h-.527c-.024 2.246-.883 4.54-3.06 4.613v.477h2.032v6.645c0 2.652 1.77 3.203 3.035 3.203 1.508 0 2.297-1.485 2.297-3.203v-1.364h-.527v1.317c0 1.718-.692 2.722-1.625 2.722-1.625 0-1.625-2.222-1.625-2.629zm14.308 3.227c0-1.29 0-2.247-1.05-3.18-.836-.762-1.91-1.098-2.965-1.098-1.957 0-3.465 1.29-3.465 2.844 0 .691.457 1.027 1.004 1.027.574 0 .98-.406.98-.98 0-.98-.859-.98-1.218-.98.55-1.005 1.699-1.434 2.652-1.434 1.102 0 2.508.91 2.508 3.058v.957c-4.801.07-6.617 2.078-6.617 3.918 0 1.891 2.199 2.489 3.656 2.489 1.578 0 2.652-.957 3.105-2.106.098 1.125.836 1.985 1.864 1.985.504 0 1.89-.336 1.89-2.247v-1.34h-.527v1.34c0 1.364-.574 1.555-.906 1.555-.91 0-.91-1.27-.91-1.625zm-1.553 3.01c0 2.34-1.742 3.13-2.77 3.13-1.172 0-2.152-.86-2.152-2.009 0-3.152 4.062-3.441 4.922-3.488zm21.163-2.436c0-2.223 0-2.89-.547-3.657-.695-.933-1.816-1.078-2.629-1.078-1.984 0-2.988 1.438-3.371 2.368-.336-1.84-1.625-2.368-3.129-2.368-2.32 0-3.227 1.985-3.418 2.465h-.023v-2.465l-3.25.266v.691c1.625 0 1.816.168 1.816 1.34v6.477c0 1.074-.262 1.074-1.816 1.074v.691c.62-.046 1.91-.046 2.578-.046.695 0 1.984 0 2.605.046v-.691c-1.527 0-1.816 0-1.816-1.074v-4.446c0-2.507 1.648-3.847 3.133-3.847 1.48 0 1.816 1.219 1.816 2.676v5.617c0 1.074-.266 1.074-1.816 1.074v.691c.62-.046 1.91-.046 2.578-.046.695 0 1.984 0 2.605.046v-.691c-1.527 0-1.816 0-1.816-1.074v-4.446c0-2.507 1.648-3.847 3.133-3.847 1.48 0 1.816 1.219 1.816 2.676v5.617c0 1.074-.266 1.074-1.816 1.074v.691c.62-.046 1.91-.046 2.578-.046.695 0 1.984 0 2.605.046v-.691c-1.195 0-1.793 0-1.816-.715zm8.223 9.75c-1.532 0-1.817 0-1.817-1.078v-4.157c.43.598 1.41 1.532 2.938 1.532 2.75 0 5.164-2.32 5.164-5.403 0-3.035-2.247-5.379-4.852-5.379-2.102 0-3.227 1.508-3.297 1.602v-1.602l-3.324.266v.691c1.676 0 1.816.168 1.816 1.22v11.23c0 1.078-.261 1.078-1.816 1.078v.691c.621-.047 1.914-.047 2.582-.047.691 0 1.984 0 2.606.047zm-1.817-11.567c0-.453 0-.48.262-.859.718-1.078 1.886-1.531 2.797-1.531 1.793 0 3.226 2.175 3.226 4.851 0 2.844-1.625 4.922-3.465 4.922a2.83 2.83 0 0 1-1.914-.762c-.547-.55-.906-1.03-.906-1.699zm18.285 1.243c0-1.29 0-2.247-1.05-3.18-.837-.762-1.915-1.098-2.965-1.098-1.957 0-3.465 1.29-3.465 2.844 0 .691.453 1.027 1.004 1.027.574 0 .98-.406.98-.98 0-.98-.86-.98-1.219-.98.551-1.005 1.696-1.434 2.653-1.434 1.097 0 2.507.91 2.507 3.058v.957c-4.8.07-6.617 2.078-6.617 3.918 0 1.891 2.2 2.489 3.657 2.489 1.574 0 2.652-.957 3.105-2.106.094 1.125.836 1.985 1.863 1.985.504 0 1.887-.336 1.887-2.247v-1.34h-.523v1.34c0 1.364-.575 1.555-.907 1.555-.91 0-.91-1.27-.91-1.625zm-1.554 3.01c0 2.34-1.742 3.13-2.769 3.13-1.172 0-2.152-.86-2.152-2.009 0-3.152 4.062-3.441 4.921-3.488zm35.582-5.471c-.289 0-1.172 0-1.172.98 0 .57.406.977.98.977.551 0 1.004-.332 1.004-1.024 0-1.601-1.672-2.75-3.609-2.75-2.797 0-5.02 2.485-5.02 5.496 0 3.059 2.293 5.403 4.996 5.403 3.157 0 3.871-2.868 3.871-3.086 0-.215-.168-.215-.238-.215-.215 0-.242.074-.312.36-.524 1.698-1.817 2.413-3.106 2.413-1.457 0-3.394-1.265-3.394-4.898 0-3.969 2.031-4.95 3.226-4.95.906 0 2.223.36 2.774 1.294m12.816 3.726c0-3.082-2.34-5.543-5.113-5.543-2.867 0-5.137 2.531-5.137 5.543 0 3.059 2.387 5.356 5.113 5.356 2.821 0 5.137-2.344 5.137-5.356m-5.113 4.828c-.883 0-1.961-.383-2.653-1.554-.644-1.075-.668-2.485-.668-3.489 0-.906 0-2.367.739-3.441a3.06 3.06 0 0 1 2.558-1.41c.934 0 1.938.43 2.578 1.363.743 1.098.743 2.605.743 3.488 0 .836 0 2.32-.622 3.442-.667 1.148-1.765 1.601-2.675 1.601m16.48-5.519c0-2.223 0-2.89-.551-3.657-.695-.933-1.816-1.078-2.629-1.078-2.316 0-3.226 1.985-3.417 2.465h-.024v-2.465l-3.25.266v.691c1.625 0 1.816.168 1.816 1.34v6.477c0 1.074-.261 1.074-1.816 1.074v.691c.621-.046 1.914-.046 2.582-.046.692 0 1.984 0 2.606.046v-.691c-1.532 0-1.817 0-1.817-1.074v-4.446c0-2.507 1.649-3.847 3.129-3.847 1.484 0 1.816 1.219 1.816 2.676v5.617c0 1.074-.261 1.074-1.816 1.074v.691c.621-.046 1.914-.046 2.582-.046.692 0 1.981 0 2.606.046v-.691c-1.196 0-1.793 0-1.817-.715zm5.68-3.801h3.371v-.691h-3.371v-4.399h-.527c-.024 2.246-.883 4.54-3.059 4.613v.477h2.031v6.645c0 2.652 1.77 3.203 3.035 3.203 1.508 0 2.297-1.485 2.297-3.203v-1.364h-.527v1.317c0 1.718-.692 2.722-1.625 2.722-1.625 0-1.625-2.222-1.625-2.629zm14.308 3.227c0-1.29 0-2.247-1.05-3.18-.836-.762-1.91-1.098-2.965-1.098-1.957 0-3.465 1.29-3.465 2.844 0 .691.453 1.027 1.004 1.027.574 0 .98-.406.98-.98 0-.98-.859-.98-1.218-.98.55-1.005 1.699-1.434 2.652-1.434 1.102 0 2.508.91 2.508 3.058v.957c-4.801.07-6.617 2.078-6.617 3.918 0 1.891 2.199 2.489 3.656 2.489 1.578 0 2.652-.957 3.105-2.106.098 1.125.836 1.985 1.864 1.985.503 0 1.89-.336 1.89-2.247v-1.34h-.527v1.34c0 1.364-.574 1.555-.906 1.555-.911 0-.911-1.27-.911-1.625zm-1.554 3.011c0 2.34-1.742 3.13-2.77 3.13-1.172 0-2.152-.86-2.152-2.009 0-3.152 4.062-3.441 4.922-3.488zm8.047-6.238h3.367v-.691h-3.367v-4.399h-.528c-.023 2.246-.883 4.54-3.058 4.613v.477h2.031v6.645c0 2.652 1.769 3.203 3.035 3.203 1.508 0 2.293-1.485 2.293-3.203v-1.364h-.523v1.317c0 1.718-.696 2.722-1.625 2.722-1.625 0-1.625-2.222-1.625-2.629zm16.054 4.492c0-3.082-2.343-5.543-5.117-5.543-2.863 0-5.137 2.531-5.137 5.543 0 3.059 2.391 5.356 5.114 5.356 2.82 0 5.14-2.344 5.14-5.356m-5.117 4.828c-.883 0-1.957-.383-2.652-1.554-.645-1.075-.668-2.485-.668-3.489 0-.906 0-2.367.738-3.441a3.07 3.07 0 0 1 2.559-1.41c.933 0 1.937.43 2.582 1.363.742 1.098.742 2.605.742 3.488 0 .836 0 2.32-.621 3.442-.668 1.148-1.77 1.601-2.68 1.601m9.836-5.281c0-2.316.957-4.492 2.797-4.492.191 0 .238 0 .336.023-.192.098-.574.239-.574.883 0 .695.55.957.933.957.477 0 .953-.312.953-.957 0-.715-.644-1.387-1.671-1.387-2.032 0-2.723 2.2-2.868 2.657h-.023v-2.657l-3.203.266v.691c1.625 0 1.816.168 1.816 1.34v6.477c0 1.074-.262 1.074-1.816 1.074v.691c.668-.046 1.984-.046 2.699-.046.645 0 2.344 0 2.895.046v-.691h-.481c-1.742 0-1.793-.262-1.793-1.121zm14.266.024c.523 0 .574 0 .574-.454 0-2.414-1.293-4.66-4.184-4.66-2.726 0-4.828 2.461-4.828 5.426 0 3.152 2.438 5.473 5.09 5.473 2.844 0 3.922-2.582 3.922-3.086 0-.14-.121-.239-.266-.239-.191 0-.242.121-.285.239-.625 2.008-2.223 2.558-3.226 2.558s-3.418-.668-3.418-4.804v-.453zm-6.598-.454c.191-3.754 2.297-4.183 2.965-4.183 2.555 0 2.699 3.37 2.723 4.183zM71.168-173.621v.691c1.625 0 1.816.168 1.816 1.34v5.281c-.5-.695-1.527-1.531-2.984-1.531-2.773 0-5.164 2.344-5.164 5.402 0 3.036 2.27 5.375 4.898 5.375 1.817 0 2.868-1.195 3.204-1.648v1.648l3.367-.238v-.691c-1.625 0-1.813-.168-1.813-1.34v-14.551zm1.77 13.527c0 .43 0 .5-.336 1.024-.57.84-1.551 1.531-2.746 1.531-.622 0-3.204-.238-3.204-4.875 0-1.719.285-2.676.813-3.465.476-.742 1.433-1.48 2.629-1.48 1.48 0 2.316 1.074 2.554 1.457.29.406.29.453.29.882zm8.218-11.926c0-.621-.5-1.171-1.168-1.171a1.15 1.15 0 0 0-1.148 1.148c0 .715.574 1.172 1.148 1.172.739 0 1.168-.625 1.168-1.149m-3.297 4.446v.691c1.532 0 1.747.145 1.747 1.313v6.5c0 1.078-.262 1.078-1.817 1.078v.691c.668-.047 1.817-.047 2.508-.047.266 0 1.648 0 2.46.047v-.691c-1.55 0-1.648-.121-1.648-1.051v-8.797zm22.774 4.469c0-2.223 0-2.891-.547-3.657-.695-.933-1.817-1.078-2.629-1.078-1.984 0-2.988 1.434-3.371 2.367-.336-1.84-1.625-2.367-3.129-2.367-2.32 0-3.226 1.985-3.418 2.461h-.023v-2.461l-3.25.266v.691c1.625 0 1.816.168 1.816 1.34v6.473c0 1.078-.262 1.078-1.816 1.078v.691c.62-.047 1.91-.047 2.578-.047.695 0 1.984 0 2.605.047v-.691c-1.527 0-1.816 0-1.816-1.078v-4.442c0-2.511 1.648-3.847 3.133-3.847 1.48 0 1.816 1.218 1.816 2.675v5.614c0 1.078-.266 1.078-1.816 1.078v.691c.62-.047 1.91-.047 2.578-.047.695 0 1.984 0 2.605.047v-.691c-1.527 0-1.816 0-1.816-1.078v-4.442c0-2.511 1.648-3.847 3.133-3.847 1.48 0 1.816 1.218 1.816 2.675v5.614c0 1.078-.266 1.078-1.816 1.078v.691c.62-.047 1.91-.047 2.578-.047.695 0 1.984 0 2.605.047v-.691c-1.195 0-1.793 0-1.816-.719zm6.523-8.915c0-.621-.5-1.171-1.168-1.171a1.15 1.15 0 0 0-1.148 1.148c0 .715.574 1.172 1.148 1.172.739 0 1.168-.625 1.168-1.149m-3.297 4.446v.691c1.532 0 1.746.145 1.746 1.313v6.5c0 1.078-.261 1.078-1.816 1.078v.691c.668-.047 1.816-.047 2.508-.047.266 0 1.648 0 2.461.047v-.691c-1.551 0-1.649-.121-1.649-1.051v-8.797zm16.274 4.469c0-2.223 0-2.891-.547-3.657-.695-.933-1.816-1.078-2.629-1.078-2.32 0-3.227 1.985-3.418 2.461h-.023v-2.461l-3.25.266v.691c1.625 0 1.816.168 1.816 1.34v6.473c0 1.078-.262 1.078-1.816 1.078v.691c.621-.047 1.91-.047 2.578-.047.695 0 1.984 0 2.605.047v-.691c-1.527 0-1.816 0-1.816-1.078v-4.442c0-2.511 1.648-3.847 3.133-3.847 1.48 0 1.816 1.218 1.816 2.675v5.614c0 1.078-.266 1.078-1.816 1.078v.691c.621-.047 1.91-.047 2.578-.047.695 0 1.984 0 2.605.047v-.691c-1.195 0-1.793 0-1.816-.719zm9.031-4.469v.691c1.625 0 1.816.168 1.816 1.34v4.277c0 2.032-1.074 3.727-2.867 3.727-1.961 0-2.078-1.125-2.078-2.391v-7.91l-3.371.266v.691c1.816 0 1.816.07 1.816 2.199v3.582c0 1.485 0 2.344.719 3.133.574.621 1.555.906 2.77.906.41 0 1.172 0 1.984-.691.695-.551 1.074-1.461 1.074-1.461v2.152l3.325-.238v-.691c-1.625 0-1.817-.168-1.817-1.34v-8.508zm9.895-4.446c0-.621-.504-1.171-1.172-1.171-.621 0-1.145.503-1.145 1.148 0 .715.571 1.172 1.145 1.172.742 0 1.172-.625 1.172-1.149m-3.297 4.446v.691c1.527 0 1.742.145 1.742 1.313v6.5c0 1.078-.262 1.078-1.816 1.078v.691c.671-.047 1.816-.047 2.511-.047.262 0 1.649 0 2.461.047v-.691c-1.555 0-1.648-.121-1.648-1.051v-8.797zm13.476.168c0-.434 0-.551-.242-.551-.187 0-.641.523-.808.738-.743-.594-1.485-.738-2.247-.738-2.894 0-3.753 1.574-3.753 2.891 0 .261 0 1.097.91 1.933.761.672 1.574.84 2.675 1.055 1.317.262 1.625.332 2.223.812.43.36.738.883.738 1.551 0 1.027-.593 2.176-2.699 2.176-1.574 0-2.722-.906-3.25-3.297-.094-.43-.094-.453-.117-.477-.051-.097-.145-.097-.215-.097-.265 0-.265.121-.265.551v3.25c0 .429 0 .546.242.546.117 0 .14-.023.547-.527.121-.164.121-.211.476-.594.91 1.121 2.199 1.121 2.606 1.121 2.511 0 3.754-1.382 3.754-3.273 0-1.289-.79-2.055-1.004-2.269-.86-.739-1.504-.883-3.082-1.172-.719-.141-2.461-.477-2.461-1.911 0-.742.5-1.839 2.652-1.839 2.605 0 2.746 2.222 2.797 2.964.019.192.187.192.262.192.261 0 .261-.121.261-.551zm10.012 1.265c-.285 0-1.172 0-1.172.977 0 .574.406.98.981.98.55 0 1.004-.332 1.004-1.027 0-1.602-1.672-2.746-3.61-2.746-2.793 0-5.015 2.484-5.015 5.496 0 3.059 2.292 5.398 4.992 5.398 3.156 0 3.871-2.867 3.871-3.082s-.168-.214-.238-.214c-.215 0-.239.07-.309.359-.527 1.695-1.816 2.41-3.109 2.41-1.457 0-3.391-1.262-3.391-4.894 0-3.969 2.031-4.95 3.223-4.95.91 0 2.226.36 2.773 1.293m5.906-5.879c0-.621-.5-1.171-1.168-1.171a1.15 1.15 0 0 0-1.148 1.148c0 .715.574 1.172 1.148 1.172.739 0 1.168-.625 1.168-1.149m-3.297 4.446v.691c1.532 0 1.746.145 1.746 1.313v6.5c0 1.078-.261 1.078-1.816 1.078v.691c.668-.047 1.816-.047 2.508-.047.266 0 1.648 0 2.461.047v-.691c-1.551 0-1.649-.121-1.649-1.051v-8.797zm37.289 1.433c-.285 0-1.168 0-1.168.977 0 .574.407.98.981.98.547 0 1.004-.332 1.004-1.027 0-1.602-1.676-2.746-3.61-2.746-2.796 0-5.019 2.484-5.019 5.496 0 3.059 2.293 5.398 4.996 5.398 3.152 0 3.871-2.867 3.871-3.082s-.168-.214-.238-.214c-.219 0-.242.07-.313.359-.523 1.695-1.816 2.41-3.105 2.41-1.457 0-3.395-1.262-3.395-4.894 0-3.969 2.032-4.95 3.227-4.95.906 0 2.223.36 2.769 1.293m12.719 3.727c0-3.082-2.34-5.543-5.113-5.543-2.867 0-5.137 2.531-5.137 5.543 0 3.059 2.391 5.351 5.113 5.351 2.821 0 5.137-2.339 5.137-5.351m-5.113 4.824c-.883 0-1.957-.379-2.652-1.551-.645-1.074-.668-2.484-.668-3.488 0-.91 0-2.367.738-3.441a3.07 3.07 0 0 1 2.558-1.41c.934 0 1.938.429 2.583 1.363.742 1.097.742 2.605.742 3.488 0 .836 0 2.316-.625 3.441-.668 1.149-1.766 1.598-2.676 1.598m16.48-5.515c0-2.223 0-2.891-.55-3.657-.692-.933-1.817-1.078-2.629-1.078-2.317 0-3.227 1.985-3.414 2.461h-.028v-2.461l-3.25.266v.691c1.625 0 1.817.168 1.817 1.34v6.473c0 1.078-.262 1.078-1.817 1.078v.691c.621-.047 1.914-.047 2.582-.047.696 0 1.985 0 2.606.047v-.691c-1.531 0-1.817 0-1.817-1.078v-4.442c0-2.511 1.649-3.847 3.129-3.847 1.485 0 1.817 1.218 1.817 2.675v5.614c0 1.078-.262 1.078-1.817 1.078v.691c.621-.047 1.914-.047 2.582-.047.696 0 1.985 0 2.606.047v-.691c-1.196 0-1.793 0-1.817-.719zm5.782-3.801h3.367v-.696h-3.367v-4.394h-.528c-.023 2.246-.883 4.539-3.058 4.613v.477h2.031v6.644c0 2.653 1.769 3.199 3.035 3.199 1.508 0 2.293-1.48 2.293-3.199v-1.363h-.523v1.312c0 1.723-.696 2.723-1.625 2.723-1.625 0-1.625-2.219-1.625-2.625zm14.308 3.226c0-1.289 0-2.246-1.051-3.179-.835-.762-1.914-1.098-2.964-1.098-1.957 0-3.465 1.289-3.465 2.844 0 .691.453 1.027 1.004 1.027.574 0 .98-.406.98-.98 0-.981-.859-.981-1.219-.981.551-1.004 1.696-1.433 2.653-1.433 1.097 0 2.508.91 2.508 3.058v.957c-4.801.07-6.618 2.078-6.618 3.918 0 1.891 2.2 2.484 3.657 2.484 1.574 0 2.652-.953 3.105-2.101.094 1.125.836 1.984 1.863 1.984.504 0 1.887-.336 1.887-2.246v-1.34h-.523v1.34c0 1.363-.575 1.555-.907 1.555-.91 0-.91-1.27-.91-1.625zm-1.554 3.012c0 2.34-1.743 3.129-2.774 3.129-1.168 0-2.148-.859-2.148-2.008 0-3.152 4.062-3.441 4.922-3.488zm8.043-6.238h3.371v-.696h-3.371v-4.394h-.524c-.023 2.246-.883 4.539-3.059 4.613v.477h2.032v6.644c0 2.653 1.769 3.199 3.035 3.199 1.504 0 2.293-1.48 2.293-3.199v-1.363h-.527v1.312c0 1.723-.692 2.723-1.625 2.723-1.625 0-1.625-2.219-1.625-2.625zm16.054 4.492c0-3.082-2.34-5.543-5.113-5.543-2.867 0-5.137 2.531-5.137 5.543 0 3.059 2.391 5.351 5.113 5.351 2.821 0 5.137-2.339 5.137-5.351m-5.113 4.824c-.883 0-1.957-.379-2.652-1.551-.645-1.074-.668-2.484-.668-3.488 0-.91 0-2.367.738-3.441a3.07 3.07 0 0 1 2.558-1.41c.934 0 1.938.429 2.583 1.363.742 1.097.742 2.605.742 3.488 0 .836 0 2.316-.625 3.441-.668 1.149-1.766 1.598-2.676 1.598m9.836-5.277c0-2.321.957-4.492 2.797-4.492.191 0 .238 0 .336.023-.192.094-.575.238-.575.883 0 .695.547.957.93.957.481 0 .957-.313.957-.957 0-.715-.644-1.387-1.672-1.387-2.031 0-2.722 2.199-2.867 2.652h-.023v-2.652l-3.203.266v.691c1.625 0 1.816.168 1.816 1.34v6.473c0 1.078-.266 1.078-1.816 1.078v.691c.668-.047 1.984-.047 2.699-.047.644 0 2.344 0 2.89.047v-.691h-.476c-1.742 0-1.793-.266-1.793-1.125zm14.262.023c.527 0 .574 0 .574-.453 0-2.414-1.289-4.66-4.184-4.66-2.722 0-4.824 2.461-4.824 5.426 0 3.152 2.437 5.468 5.09 5.468 2.844 0 3.918-2.578 3.918-3.082 0-.144-.121-.238-.262-.238-.191 0-.242.121-.285.238-.625 2.008-2.223 2.555-3.231 2.555-1 0-3.414-.668-3.414-4.801v-.453zm-6.594-.453c.191-3.754 2.293-4.183 2.961-4.183 2.558 0 2.703 3.371 2.726 4.183zm38.012-10.324v.691c1.625 0 1.816.168 1.816 1.34v5.281c-.504-.695-1.531-1.531-2.988-1.531-2.77 0-5.16 2.344-5.16 5.402 0 3.036 2.269 5.375 4.898 5.375 1.816 0 2.867-1.195 3.203-1.648v1.648l3.367-.238v-.691c-1.625 0-1.816-.168-1.816-1.34v-14.551zm1.769 13.527c0 .43 0 .5-.336 1.024-.574.84-1.555 1.531-2.75 1.531-.621 0-3.199-.238-3.199-4.875 0-1.719.285-2.676.812-3.465.477-.742 1.43-1.48 2.629-1.48 1.481 0 2.317 1.074 2.555 1.457.289.406.289.453.289.882zm8.219-11.926c0-.621-.5-1.171-1.168-1.171-.625 0-1.149.503-1.149 1.148 0 .715.575 1.172 1.149 1.172.738 0 1.168-.625 1.168-1.149m-3.297 4.446v.691c1.527 0 1.742.145 1.742 1.313v6.5c0 1.078-.262 1.078-1.812 1.078v.691c.668-.047 1.812-.047 2.507-.047.262 0 1.649 0 2.461.047v-.691c-1.554 0-1.648-.121-1.648-1.051v-8.797zm35.523-5.043c0-.551 0-.574-.48-.574-.574.644-1.77 1.527-4.231 1.527v.695c.551 0 1.747 0 3.059-.621v12.449c0 .86-.07 1.149-2.172 1.149h-.742v.691c.645-.047 2.965-.047 3.754-.047.785 0 3.082 0 3.726.047v-.691h-.742c-2.101 0-2.172-.289-2.172-1.149zm-312.148-83.09c0-.434 0-.551-.238-.551-.192 0-.645.524-.813.742-.738-.597-1.48-.742-2.246-.742-2.89 0-3.75 1.578-3.75 2.891 0 .265 0 1.101.906 1.937.766.668 1.578.836 2.68 1.051 1.313.262 1.625.332 2.219.813.43.359.742.882.742 1.55 0 1.032-.598 2.176-2.7 2.176-1.577 0-2.722-.906-3.25-3.297-.097-.429-.097-.453-.12-.476-.047-.098-.141-.098-.215-.098-.262 0-.262.121-.262.551v3.25c0 .43 0 .551.238.551.121 0 .145-.024.551-.528.117-.168.117-.215.477-.597.906 1.125 2.199 1.125 2.605 1.125 2.508 0 3.75-1.387 3.75-3.274 0-1.293-.785-2.058-1.004-2.273-.86-.739-1.504-.883-3.082-1.172-.715-.141-2.46-.477-2.46-1.91 0-.739.503-1.84 2.652-1.84 2.605 0 2.75 2.223 2.797 2.965.023.191.19.191.261.191.262 0 .262-.121.262-.551zm10.516 4.562c.527 0 .574 0 .574-.453 0-2.414-1.29-4.66-4.184-4.66-2.722 0-4.824 2.461-4.824 5.426 0 3.152 2.438 5.473 5.09 5.473 2.844 0 3.918-2.582 3.918-3.086 0-.145-.121-.239-.262-.239-.191 0-.242.121-.289.239-.621 2.007-2.219 2.558-3.227 2.558-1 0-3.414-.668-3.414-4.804v-.454zm-6.594-.453c.191-3.754 2.293-4.183 2.96-4.183 2.56 0 2.704 3.371 2.727 4.183zm58-8.722c0-.621-.5-1.172-1.168-1.172-.625 0-1.149.504-1.149 1.148 0 .715.575 1.172 1.149 1.172.738 0 1.168-.625 1.168-1.148m-3.297 4.445v.691c1.527 0 1.742.145 1.742 1.317v6.5c0 1.074-.262 1.074-1.812 1.074v.691c.668-.046 1.812-.046 2.507-.046.262 0 1.649 0 2.461.046v-.691c-1.554 0-1.648-.121-1.648-1.051v-8.797zm34.516-1.938.382-.359-2.843-3.68c-.121-.14-.336-.406-.672-.406-.406 0-.813.36-.813.789 0 .242.098.453.336.649zm3.277 6.668c.523 0 .574 0 .574-.453 0-2.414-1.293-4.66-4.183-4.66-2.723 0-4.829 2.461-4.829 5.426 0 3.152 2.438 5.473 5.09 5.473 2.844 0 3.922-2.582 3.922-3.086 0-.145-.121-.239-.265-.239-.192 0-.239.121-.286.239-.621 2.007-2.222 2.558-3.226 2.558s-3.418-.668-3.418-4.804v-.454zm-6.598-.453c.192-3.754 2.297-4.183 2.965-4.183 2.555 0 2.699 3.371 2.723 4.183zm32.778.192c0-2.223 0-2.891-.551-3.657-.692-.933-1.813-1.078-2.625-1.078-1.985 0-2.988 1.438-3.371 2.368-.336-1.84-1.625-2.368-3.129-2.368-2.32 0-3.227 1.985-3.418 2.465h-.027v-2.465l-3.25.266v.691c1.625 0 1.82.168 1.82 1.34v6.477c0 1.074-.266 1.074-1.82 1.074v.691c.625-.046 1.914-.046 2.582-.046.695 0 1.984 0 2.605.046v-.691c-1.531 0-1.816 0-1.816-1.074v-4.446c0-2.507 1.648-3.847 3.129-3.847 1.484 0 1.82 1.219 1.82 2.676v5.617c0 1.074-.266 1.074-1.82 1.074v.691c.625-.046 1.914-.046 2.582-.046.695 0 1.984 0 2.605.046v-.691c-1.531 0-1.816 0-1.816-1.074v-4.446c0-2.507 1.648-3.847 3.129-3.847 1.484 0 1.82 1.219 1.82 2.676v5.617c0 1.074-.266 1.074-1.82 1.074v.691c.625-.046 1.914-.046 2.582-.046.695 0 1.984 0 2.605.046v-.691c-1.195 0-1.793 0-1.816-.715zm9.031-4.469v.691c1.625 0 1.816.168 1.816 1.34v4.278c0 2.031-1.078 3.726-2.867 3.726-1.961 0-2.078-1.125-2.078-2.387v-7.914l-3.371.266v.691c1.816 0 1.816.075 1.816 2.2v3.586c0 1.48 0 2.339.715 3.128.574.622 1.555.911 2.774.911.406 0 1.171 0 1.984-.696.691-.547 1.074-1.457 1.074-1.457v2.153l3.32-.243v-.691c-1.625 0-1.812-.168-1.812-1.34v-8.508zm9.848-6.309-3.325.262v.695c1.625 0 1.817.164 1.817 1.336v12.524c0 1.074-.262 1.074-1.817 1.074v.691c.668-.046 1.84-.046 2.559-.046.715 0 1.91 0 2.582.046v-.691c-1.531 0-1.816 0-1.816-1.074zm6.402 6.977h3.371v-.691h-3.371v-4.399h-.527c-.024 2.246-.883 4.539-3.059 4.613v.477h2.031v6.644c0 2.653 1.77 3.204 3.035 3.204 1.508 0 2.297-1.485 2.297-3.204v-1.363h-.527v1.317c0 1.718-.692 2.722-1.625 2.722-1.625 0-1.625-2.222-1.625-2.629zm9.242-5.113c0-.621-.5-1.172-1.168-1.172-.625 0-1.148.504-1.148 1.148 0 .715.574 1.172 1.148 1.172.738 0 1.168-.625 1.168-1.148m-3.297 4.445v.691c1.528 0 1.746.145 1.746 1.317v6.5c0 1.074-.265 1.074-1.816 1.074v.691c.668-.046 1.816-.046 2.508-.046.261 0 1.648 0 2.461.046v-.691c-1.551 0-1.649-.121-1.649-1.051v-8.797zm11.496 14.219c-1.531 0-1.816 0-1.816-1.078v-4.157c.43.598 1.406 1.532 2.937 1.532 2.75 0 5.161-2.321 5.161-5.403 0-3.035-2.243-5.379-4.848-5.379-2.106 0-3.227 1.508-3.301 1.602v-1.602l-3.32.266v.691c1.672 0 1.816.168 1.816 1.219v11.231c0 1.078-.262 1.078-1.816 1.078v.691c.621-.047 1.914-.047 2.582-.047.691 0 1.98 0 2.605.047zm-1.816-11.567c0-.453 0-.48.262-.859.718-1.078 1.886-1.531 2.796-1.531 1.79 0 3.223 2.175 3.223 4.851 0 2.844-1.625 4.922-3.465 4.922a2.82 2.82 0 0 1-1.91-.762c-.551-.55-.906-1.031-.906-1.699zm13.07-8.961-3.32.262v.695c1.625 0 1.816.164 1.816 1.336v12.524c0 1.074-.265 1.074-1.816 1.074v.691c.668-.046 1.84-.046 2.555-.046.718 0 1.914 0 2.582.046v-.691c-1.532 0-1.817 0-1.817-1.074zm13.36 11.469c0-3.082-2.344-5.543-5.114-5.543-2.867 0-5.14 2.531-5.14 5.543 0 3.059 2.39 5.356 5.117 5.356 2.816 0 5.137-2.344 5.137-5.356m-5.114 4.828c-.886 0-1.961-.383-2.652-1.554-.649-1.075-.672-2.485-.672-3.489 0-.91 0-2.367.742-3.441a3.06 3.06 0 0 1 2.559-1.41c.93 0 1.933.429 2.578 1.363.742 1.098.742 2.605.742 3.488 0 .836 0 2.321-.621 3.442-.668 1.148-1.769 1.601-2.676 1.601m20.813-16.035v.695c1.625 0 1.816.164 1.816 1.336v5.282c-.504-.692-1.527-1.532-2.988-1.532-2.77 0-5.16 2.344-5.16 5.403 0 3.035 2.269 5.379 4.898 5.379 1.817 0 2.867-1.196 3.203-1.649v1.649l3.367-.243v-.691c-1.625 0-1.816-.168-1.816-1.34v-14.551zm1.769 13.527c0 .43 0 .5-.336 1.028-.574.836-1.55 1.527-2.746 1.527-.625 0-3.203-.238-3.203-4.875 0-1.719.285-2.676.813-3.465.476-.742 1.433-1.48 2.629-1.48 1.48 0 2.316 1.074 2.554 1.457.289.406.289.457.289.883zm8.219-11.925c0-.621-.5-1.172-1.168-1.172-.625 0-1.148.504-1.148 1.148 0 .715.574 1.172 1.148 1.172.738 0 1.168-.625 1.168-1.148m-3.297 4.445v.691c1.528 0 1.746.145 1.746 1.317v6.5c0 1.074-.265 1.074-1.816 1.074v.691c.668-.046 1.816-.046 2.508-.046.261 0 1.648 0 2.461.046v-.691c-1.551 0-1.649-.121-1.649-1.051v-8.797zm37.387 3.32c0 5.641-2.508 6.813-3.945 6.813-.571 0-1.84-.074-2.438-.91h.145c.168.05 1.027-.094 1.027-.981 0-.523-.359-.976-.981-.976-.621 0-1.003.406-1.003 1.027 0 1.48 1.195 2.484 3.277 2.484 2.984 0 5.879-3.179 5.879-8.367 0-6.426-2.68-8.027-4.781-8.027-2.629 0-4.946 2.199-4.946 5.351 0 3.157 2.223 5.309 4.61 5.309 1.769 0 2.679-1.289 3.156-2.512zm-3.059 1.242c-1.508 0-2.152-1.218-2.367-1.671-.383-.907-.383-2.055-.383-3.129 0-1.34 0-2.489.621-3.465.43-.649 1.079-1.34 2.368-1.34 1.363 0 2.054 1.195 2.293 1.746.476 1.168.476 3.199.476 3.559 0 2.008-.906 4.3-3.008 4.3m56.41-3.441c0-.644-.55-1.144-1.148-1.144a1.15 1.15 0 0 0-1.172 1.144c0 .719.598 1.172 1.149 1.172.644 0 1.171-.5 1.171-1.172m0 7.984c0-.644-.55-1.148-1.148-1.148-.695 0-1.172.551-1.172 1.148 0 .715.598 1.168 1.149 1.168.644 0 1.171-.5 1.171-1.168M73.223-365.68c0-1.289 0-2.246-1.051-3.179-.836-.762-1.91-1.098-2.961-1.098-1.961 0-3.469 1.289-3.469 2.844 0 .691.457 1.027 1.008 1.027.57 0 .977-.406.977-.98 0-.981-.86-.981-1.22-.981.552-1.004 1.7-1.433 2.653-1.433 1.102 0 2.512.91 2.512 3.058v.957c-4.805.07-6.621 2.078-6.621 3.918 0 1.891 2.199 2.484 3.656 2.484 1.578 0 2.652-.953 3.106-2.101.097 1.125.835 1.984 1.867 1.984.5 0 1.886-.336 1.886-2.246v-1.34h-.527v1.34c0 1.363-.57 1.555-.906 1.555-.91 0-.91-1.27-.91-1.625zm-1.551 3.012c0 2.34-1.746 3.129-2.774 3.129-1.171 0-2.148-.859-2.148-2.008 0-3.152 4.063-3.441 4.922-3.488zm11.293-6.906v.691c1.625 0 1.816.168 1.816 1.34v4.277c0 2.032-1.078 3.727-2.867 3.727-1.96 0-2.078-1.125-2.078-2.391v-7.91l-3.371.266v.691c1.816 0 1.816.07 1.816 2.199v3.582c0 1.485 0 2.344.719 3.133.57.621 1.55.906 2.77.906.406 0 1.171 0 1.984-.691.691-.551 1.074-1.461 1.074-1.461v2.152l3.32-.238v-.691c-1.625 0-1.812-.168-1.812-1.34v-8.508zm22.871 4.469c0-2.223 0-2.891-.551-3.657-.695-.933-1.816-1.078-2.629-1.078-1.984 0-2.988 1.434-3.37 2.367-.333-1.84-1.626-2.367-3.13-2.367-2.32 0-3.226 1.985-3.418 2.461h-.023v-2.461l-3.25.266v.691c1.625 0 1.816.168 1.816 1.34v6.473c0 1.078-.262 1.078-1.816 1.078v.691c.62-.047 1.91-.047 2.582-.047.691 0 1.984 0 2.601.047v-.691c-1.527 0-1.812 0-1.812-1.078v-4.442c0-2.511 1.648-3.847 3.129-3.847 1.48 0 1.816 1.218 1.816 2.675v5.614c0 1.078-.265 1.078-1.816 1.078v.691c.62-.047 1.91-.047 2.582-.047.691 0 1.98 0 2.601.047v-.691c-1.527 0-1.812 0-1.812-1.078v-4.442c0-2.511 1.648-3.847 3.129-3.847 1.48 0 1.816 1.218 1.816 2.675v5.614c0 1.078-.265 1.078-1.816 1.078v.691c.621-.047 1.914-.047 2.582-.047.691 0 1.98 0 2.601.047v-.691c-1.195 0-1.789 0-1.812-.719zm11.516.261c.527 0 .574 0 .574-.453 0-2.414-1.289-4.66-4.184-4.66-2.722 0-4.824 2.461-4.824 5.426 0 3.152 2.437 5.468 5.09 5.468 2.844 0 3.918-2.578 3.918-3.082 0-.144-.121-.238-.262-.238-.191 0-.242.121-.285.238-.625 2.008-2.223 2.555-3.231 2.555-1 0-3.414-.668-3.414-4.801v-.453zm-6.594-.453c.191-3.754 2.293-4.183 2.961-4.183 2.558 0 2.703 3.371 2.726 4.183zm18.476.192c0-2.223 0-2.891-.55-3.657-.692-.933-1.817-1.078-2.629-1.078-2.317 0-3.227 1.985-3.414 2.461h-.028v-2.461l-3.25.266v.691c1.625 0 1.817.168 1.817 1.34v6.473c0 1.078-.262 1.078-1.817 1.078v.691c.621-.047 1.914-.047 2.582-.047.696 0 1.985 0 2.606.047v-.691c-1.531 0-1.817 0-1.817-1.078v-4.442c0-2.511 1.649-3.847 3.129-3.847 1.485 0 1.817 1.218 1.817 2.675v5.614c0 1.078-.262 1.078-1.817 1.078v.691c.621-.047 1.914-.047 2.582-.047.696 0 1.985 0 2.606.047v-.691c-1.196 0-1.793 0-1.817-.719zm5.782-3.801h3.367v-.696h-3.367v-4.394h-.528c-.023 2.246-.883 4.539-3.058 4.613v.477h2.031v6.644c0 2.653 1.769 3.199 3.035 3.199 1.508 0 2.293-1.48 2.293-3.199v-1.363h-.523v1.312c0 1.723-.696 2.723-1.625 2.723-1.625 0-1.625-2.219-1.625-2.625zm14.308 3.226c0-1.289 0-2.246-1.051-3.179-.835-.762-1.914-1.098-2.964-1.098-1.957 0-3.465 1.289-3.465 2.844 0 .691.453 1.027 1.004 1.027.574 0 .98-.406.98-.98 0-.981-.859-.981-1.219-.981.551-1.004 1.696-1.433 2.653-1.433 1.097 0 2.508.91 2.508 3.058v.957c-4.801.07-6.618 2.078-6.618 3.918 0 1.891 2.2 2.484 3.657 2.484 1.574 0 2.652-.953 3.105-2.101.094 1.125.836 1.984 1.863 1.984.504 0 1.887-.336 1.887-2.246v-1.34h-.523v1.34c0 1.363-.575 1.555-.907 1.555-.91 0-.91-1.27-.91-1.625zm-1.554 3.012c0 2.34-1.743 3.129-2.774 3.129-1.168 0-2.148-.859-2.148-2.008 0-3.152 4.062-3.441 4.922-3.488zm35.679-5.473c-.285 0-1.168 0-1.168.977 0 .574.407.98.977.98.551 0 1.004-.332 1.004-1.027 0-1.602-1.672-2.746-3.606-2.746-2.797 0-5.019 2.484-5.019 5.496 0 3.059 2.293 5.398 4.996 5.398 3.152 0 3.871-2.867 3.871-3.082s-.168-.214-.242-.214c-.215 0-.239.07-.309.359-.527 1.695-1.816 2.41-3.109 2.41-1.457 0-3.391-1.262-3.391-4.894 0-3.969 2.031-4.95 3.227-4.95.906 0 2.222.36 2.769 1.293m12.719 3.727c0-3.082-2.34-5.543-5.113-5.543-2.867 0-5.137 2.531-5.137 5.543 0 3.059 2.387 5.351 5.113 5.351 2.821 0 5.137-2.339 5.137-5.351m-5.113 4.824c-.883 0-1.961-.379-2.653-1.551-.644-1.074-.668-2.484-.668-3.488 0-.91 0-2.367.739-3.441a3.06 3.06 0 0 1 2.558-1.41c.934 0 1.938.429 2.578 1.363.743 1.097.743 2.605.743 3.488 0 .836 0 2.316-.622 3.441-.667 1.149-1.765 1.598-2.675 1.598m16.48-5.515c0-2.223 0-2.891-.551-3.657-.695-.933-1.816-1.078-2.629-1.078-2.316 0-3.226 1.985-3.417 2.461h-.024v-2.461l-3.25.266v.691c1.625 0 1.816.168 1.816 1.34v6.473c0 1.078-.261 1.078-1.816 1.078v.691c.621-.047 1.914-.047 2.582-.047.692 0 1.984 0 2.606.047v-.691c-1.532 0-1.817 0-1.817-1.078v-4.442c0-2.511 1.649-3.847 3.129-3.847 1.484 0 1.816 1.218 1.816 2.675v5.614c0 1.078-.261 1.078-1.816 1.078v.691c.621-.047 1.914-.047 2.582-.047.692 0 1.981 0 2.606.047v-.691c-1.196 0-1.793 0-1.817-.719zm5.778-3.801h3.371v-.696h-3.371v-4.394h-.524c-.023 2.246-.883 4.539-3.059 4.613v.477h2.032v6.644c0 2.653 1.769 3.199 3.035 3.199 1.504 0 2.293-1.48 2.293-3.199v-1.363h-.527v1.312c0 1.723-.692 2.723-1.625 2.723-1.625 0-1.625-2.219-1.625-2.625zm14.308 3.226c0-1.289 0-2.246-1.047-3.179-.84-.762-1.914-1.098-2.965-1.098-1.961 0-3.464 1.289-3.464 2.844 0 .691.453 1.027 1.003 1.027.575 0 .981-.406.981-.98 0-.981-.863-.981-1.219-.981.551-1.004 1.695-1.433 2.653-1.433 1.097 0 2.507.91 2.507 3.058v.957c-4.804.07-6.617 2.078-6.617 3.918 0 1.891 2.195 2.484 3.656 2.484 1.575 0 2.653-.953 3.106-2.101.094 1.125.836 1.984 1.863 1.984.5 0 1.887-.336 1.887-2.246v-1.34h-.524v1.34c0 1.363-.574 1.555-.91 1.555-.91 0-.91-1.27-.91-1.625zm-1.551 3.012c0 2.34-1.742 3.129-2.773 3.129-1.168 0-2.149-.859-2.149-2.008 0-3.152 4.063-3.441 4.922-3.488zm8.043-6.238h3.371v-.696h-3.371v-4.394h-.523c-.024 2.246-.887 4.539-3.059 4.613v.477h2.032v6.644c0 2.653 1.765 3.199 3.035 3.199 1.504 0 2.293-1.48 2.293-3.199v-1.363h-.528v1.312c0 1.723-.691 2.723-1.625 2.723-1.625 0-1.625-2.219-1.625-2.625zm16.055 4.492c0-3.082-2.34-5.543-5.113-5.543-2.867 0-5.137 2.531-5.137 5.543 0 3.059 2.387 5.351 5.113 5.351 2.821 0 5.137-2.339 5.137-5.351m-5.113 4.824c-.883 0-1.961-.379-2.653-1.551-.644-1.074-.668-2.484-.668-3.488 0-.91 0-2.367.739-3.441a3.06 3.06 0 0 1 2.558-1.41c.934 0 1.938.429 2.578 1.363.743 1.097.743 2.605.743 3.488 0 .836 0 2.316-.622 3.441-.667 1.149-1.765 1.598-2.675 1.598m9.836-5.277c0-2.321.957-4.492 2.797-4.492.191 0 .238 0 .335.023-.195.094-.574.238-.574.883 0 .695.547.957.93.957.48 0 .957-.313.957-.957 0-.715-.645-1.387-1.672-1.387-2.031 0-2.726 2.199-2.867 2.652h-.024v-2.652l-3.203.266v.691c1.625 0 1.817.168 1.817 1.34v6.473c0 1.078-.266 1.078-1.817 1.078v.691c.668-.047 1.985-.047 2.7-.047.644 0 2.339 0 2.89.047v-.691h-.476c-1.746 0-1.793-.266-1.793-1.125zm14.261.023c.528 0 .575 0 .575-.453 0-2.414-1.289-4.66-4.184-4.66-2.723 0-4.824 2.461-4.824 5.426 0 3.152 2.437 5.468 5.086 5.468 2.843 0 3.922-2.578 3.922-3.082 0-.144-.122-.238-.262-.238-.192 0-.242.121-.289.238-.621 2.008-2.223 2.555-3.227 2.555s-3.418-.668-3.418-4.801v-.453zm-6.597-.453c.191-3.754 2.297-4.183 2.965-4.183 2.558 0 2.699 3.371 2.722 4.183zm38.015-10.324v.691c1.625 0 1.817.168 1.817 1.34v5.281c-.504-.695-1.532-1.531-2.989-1.531-2.769 0-5.164 2.344-5.164 5.402 0 3.036 2.274 5.375 4.903 5.375 1.816 0 2.867-1.195 3.203-1.648v1.648l3.367-.238v-.691c-1.625 0-1.816-.168-1.816-1.34v-14.551zm1.77 13.527c0 .43 0 .5-.336 1.024-.574.84-1.555 1.531-2.75 1.531-.621 0-3.199-.238-3.199-4.875 0-1.719.285-2.676.812-3.465.477-.742 1.43-1.48 2.625-1.48 1.485 0 2.321 1.074 2.559 1.457.289.406.289.453.289.882zm8.219-11.926c0-.621-.504-1.171-1.172-1.171-.621 0-1.145.503-1.145 1.148 0 .715.571 1.172 1.145 1.172.742 0 1.172-.625 1.172-1.149m-3.297 4.446v.691c1.527 0 1.742.145 1.742 1.313v6.5c0 1.078-.262 1.078-1.816 1.078v.691c.671-.047 1.816-.047 2.511-.047.262 0 1.649 0 2.461.047v-.691c-1.555 0-1.648-.121-1.648-1.051v-8.797zm35.519-5.043c0-.551 0-.574-.476-.574-.575.644-1.77 1.527-4.231 1.527v.695c.551 0 1.746 0 3.059-.621v12.449c0 .86-.07 1.149-2.172 1.149h-.742v.691c.644-.047 2.961-.047 3.75-.047s3.086 0 3.726.047v-.691h-.738c-2.102 0-2.176-.289-2.176-1.149zm-296.445-83.09c0-.434 0-.551-.238-.551-.192 0-.645.524-.813.742-.738-.597-1.48-.742-2.246-.742-2.89 0-3.75 1.578-3.75 2.891 0 .265 0 1.101.906 1.937.766.668 1.578.836 2.68 1.051 1.313.262 1.625.332 2.219.813.43.359.742.882.742 1.55 0 1.032-.598 2.176-2.7 2.176-1.577 0-2.722-.906-3.25-3.297-.097-.429-.097-.453-.12-.476-.047-.098-.141-.098-.215-.098-.262 0-.262.121-.262.551v3.25c0 .43 0 .551.238.551.121 0 .145-.024.551-.528.117-.168.117-.215.477-.597.906 1.125 2.199 1.125 2.605 1.125 2.508 0 3.75-1.387 3.75-3.274 0-1.293-.785-2.058-1.004-2.273-.86-.739-1.504-.883-3.082-1.172-.715-.141-2.46-.477-2.46-1.91 0-.739.503-1.84 2.652-1.84 2.605 0 2.75 2.223 2.797 2.965.023.191.19.191.261.191.262 0 .262-.121.262-.551zm10.516 4.562c.527 0 .574 0 .574-.453 0-2.414-1.29-4.66-4.184-4.66-2.722 0-4.824 2.461-4.824 5.426 0 3.152 2.438 5.473 5.09 5.473 2.844 0 3.918-2.582 3.918-3.086 0-.145-.121-.239-.262-.239-.191 0-.242.121-.289.239-.621 2.007-2.219 2.558-3.227 2.558-1 0-3.414-.668-3.414-4.804v-.454zm-6.594-.453c.191-3.754 2.293-4.183 2.96-4.183 2.56 0 2.704 3.371 2.727 4.183zm58-8.722c0-.621-.5-1.172-1.168-1.172-.625 0-1.149.504-1.149 1.148 0 .715.575 1.172 1.149 1.172.738 0 1.168-.625 1.168-1.148m-3.297 4.445v.691c1.527 0 1.742.145 1.742 1.317v6.5c0 1.074-.262 1.074-1.812 1.074v.691c.668-.046 1.812-.046 2.507-.046.262 0 1.649 0 2.461.046v-.691c-1.554 0-1.648-.121-1.648-1.051v-8.797zm34.516-1.938.382-.359-2.843-3.68c-.121-.14-.336-.406-.672-.406-.406 0-.813.36-.813.789 0 .242.098.453.336.649zm3.277 6.668c.523 0 .574 0 .574-.453 0-2.414-1.293-4.66-4.183-4.66-2.723 0-4.829 2.461-4.829 5.426 0 3.152 2.438 5.473 5.09 5.473 2.844 0 3.922-2.582 3.922-3.086 0-.145-.121-.239-.265-.239-.192 0-.239.121-.286.239-.621 2.007-2.222 2.558-3.226 2.558s-3.418-.668-3.418-4.804v-.454zm-6.598-.453c.192-3.754 2.297-4.183 2.965-4.183 2.555 0 2.699 3.371 2.723 4.183zm32.778.192c0-2.223 0-2.891-.551-3.657-.692-.933-1.813-1.078-2.625-1.078-1.985 0-2.988 1.438-3.371 2.368-.336-1.84-1.625-2.368-3.129-2.368-2.32 0-3.227 1.985-3.418 2.465h-.027v-2.465l-3.25.266v.691c1.625 0 1.82.168 1.82 1.34v6.477c0 1.074-.266 1.074-1.82 1.074v.691c.625-.046 1.914-.046 2.582-.046.695 0 1.984 0 2.605.046v-.691c-1.531 0-1.816 0-1.816-1.074v-4.446c0-2.507 1.648-3.847 3.129-3.847 1.484 0 1.82 1.219 1.82 2.676v5.617c0 1.074-.266 1.074-1.82 1.074v.691c.625-.046 1.914-.046 2.582-.046.695 0 1.984 0 2.605.046v-.691c-1.531 0-1.816 0-1.816-1.074v-4.446c0-2.507 1.648-3.847 3.129-3.847 1.484 0 1.82 1.219 1.82 2.676v5.617c0 1.074-.266 1.074-1.82 1.074v.691c.625-.046 1.914-.046 2.582-.046.695 0 1.984 0 2.605.046v-.691c-1.195 0-1.793 0-1.816-.715zm9.031-4.469v.691c1.625 0 1.816.168 1.816 1.34v4.278c0 2.031-1.078 3.726-2.867 3.726-1.961 0-2.078-1.125-2.078-2.387v-7.914l-3.371.266v.691c1.816 0 1.816.075 1.816 2.2v3.586c0 1.48 0 2.339.715 3.128.574.622 1.555.911 2.774.911.406 0 1.171 0 1.984-.696.691-.547 1.074-1.457 1.074-1.457v2.153l3.32-.243v-.691c-1.625 0-1.812-.168-1.812-1.34v-8.508zm9.848-6.309-3.325.262v.695c1.625 0 1.817.164 1.817 1.336v12.524c0 1.074-.262 1.074-1.817 1.074v.691c.668-.046 1.84-.046 2.559-.046.715 0 1.91 0 2.582.046v-.691c-1.531 0-1.816 0-1.816-1.074zm6.402 6.977h3.371v-.691h-3.371v-4.399h-.527c-.024 2.246-.883 4.539-3.059 4.613v.477h2.031v6.644c0 2.653 1.77 3.204 3.035 3.204 1.508 0 2.297-1.485 2.297-3.204v-1.363h-.527v1.317c0 1.718-.692 2.722-1.625 2.722-1.625 0-1.625-2.222-1.625-2.629zm9.242-5.113c0-.621-.5-1.172-1.168-1.172-.625 0-1.148.504-1.148 1.148 0 .715.574 1.172 1.148 1.172.738 0 1.168-.625 1.168-1.148m-3.297 4.445v.691c1.528 0 1.746.145 1.746 1.317v6.5c0 1.074-.265 1.074-1.816 1.074v.691c.668-.046 1.816-.046 2.508-.046.261 0 1.648 0 2.461.046v-.691c-1.551 0-1.649-.121-1.649-1.051v-8.797zm11.496 14.219c-1.531 0-1.816 0-1.816-1.078v-4.157c.43.598 1.406 1.532 2.937 1.532 2.75 0 5.161-2.321 5.161-5.403 0-3.035-2.243-5.379-4.848-5.379-2.106 0-3.227 1.508-3.301 1.602v-1.602l-3.32.266v.691c1.672 0 1.816.168 1.816 1.219v11.231c0 1.078-.262 1.078-1.816 1.078v.691c.621-.047 1.914-.047 2.582-.047.691 0 1.98 0 2.605.047zm-1.816-11.567c0-.453 0-.48.262-.859.718-1.078 1.886-1.531 2.796-1.531 1.79 0 3.223 2.175 3.223 4.851 0 2.844-1.625 4.922-3.465 4.922a2.82 2.82 0 0 1-1.91-.762c-.551-.55-.906-1.031-.906-1.699zm13.07-8.961-3.32.262v.695c1.625 0 1.816.164 1.816 1.336v12.524c0 1.074-.265 1.074-1.816 1.074v.691c.668-.046 1.84-.046 2.555-.046.718 0 1.914 0 2.582.046v-.691c-1.532 0-1.817 0-1.817-1.074zm13.36 11.469c0-3.082-2.344-5.543-5.114-5.543-2.867 0-5.14 2.531-5.14 5.543 0 3.059 2.39 5.356 5.117 5.356 2.816 0 5.137-2.344 5.137-5.356m-5.114 4.828c-.886 0-1.961-.383-2.652-1.554-.649-1.075-.672-2.485-.672-3.489 0-.91 0-2.367.742-3.441a3.06 3.06 0 0 1 2.559-1.41c.93 0 1.933.429 2.578 1.363.742 1.098.742 2.605.742 3.488 0 .836 0 2.321-.621 3.442-.668 1.148-1.769 1.601-2.676 1.601m20.813-16.035v.695c1.625 0 1.816.164 1.816 1.336v5.282c-.504-.692-1.527-1.532-2.988-1.532-2.77 0-5.16 2.344-5.16 5.403 0 3.035 2.269 5.379 4.898 5.379 1.817 0 2.867-1.196 3.203-1.649v1.649l3.367-.243v-.691c-1.625 0-1.816-.168-1.816-1.34v-14.551zm1.769 13.527c0 .43 0 .5-.336 1.028-.574.836-1.55 1.527-2.746 1.527-.625 0-3.203-.238-3.203-4.875 0-1.719.285-2.676.813-3.465.476-.742 1.433-1.48 2.629-1.48 1.48 0 2.316 1.074 2.554 1.457.289.406.289.457.289.883zm8.219-11.925c0-.621-.5-1.172-1.168-1.172-.625 0-1.148.504-1.148 1.148 0 .715.574 1.172 1.148 1.172.738 0 1.168-.625 1.168-1.148m-3.297 4.445v.691c1.528 0 1.746.145 1.746 1.317v6.5c0 1.074-.265 1.074-1.816 1.074v.691c.668-.046 1.816-.046 2.508-.046.261 0 1.648 0 2.461.046v-.691c-1.551 0-1.649-.121-1.649-1.051v-8.797zm39.992-4.566v-.547h-5.761c-2.891 0-2.938-.313-3.036-.766h-.523l-.742 4.777h.527c.071-.429.285-1.91.598-2.171.191-.145 1.98-.145 2.316-.145h5.067l-2.535 3.633c-.645.933-3.055 4.851-3.055 9.344 0 .261 0 1.218.976 1.218 1.004 0 1.004-.933 1.004-1.242v-1.195c0-3.563.575-6.332 1.7-7.934zm50.746 5.687c0-.644-.55-1.144-1.148-1.144a1.15 1.15 0 0 0-1.172 1.144c0 .719.598 1.172 1.149 1.172.644 0 1.171-.5 1.171-1.172m0 7.984c0-.648-.55-1.148-1.148-1.148-.695 0-1.172.551-1.172 1.148 0 .715.598 1.168 1.149 1.168.644 0 1.171-.5 1.171-1.168m-327.75-98.671c-.285 0-1.168 0-1.168.976 0 .574.407.981.98.981.548 0 1-.332 1-1.024 0-1.601-1.67-2.75-3.605-2.75-2.796 0-5.02 2.485-5.02 5.496 0 3.059 2.294 5.403 4.997 5.403 3.152 0 3.871-2.868 3.871-3.086 0-.215-.168-.215-.242-.215-.211 0-.238.07-.309.359-.527 1.699-1.816 2.414-3.105 2.414-1.461 0-3.395-1.265-3.395-4.898 0-3.969 2.032-4.949 3.227-4.949.906 0 2.223.363 2.77 1.293m12.718 3.726c0-3.082-2.34-5.543-5.113-5.543-2.867 0-5.137 2.531-5.137 5.543 0 3.059 2.39 5.356 5.113 5.356 2.82 0 5.137-2.344 5.137-5.356m-5.113 4.828c-.883 0-1.957-.383-2.652-1.554-.645-1.075-.668-2.485-.668-3.489 0-.91 0-2.367.738-3.441a3.07 3.07 0 0 1 2.558-1.41 3.13 3.13 0 0 1 2.582 1.363c.743 1.098.743 2.605.743 3.488 0 .836 0 2.321-.625 3.442-.668 1.148-1.766 1.601-2.676 1.601m16.48-5.519c0-2.223 0-2.891-.55-3.657-.692-.933-1.817-1.078-2.63-1.078-2.316 0-3.226 1.985-3.413 2.465h-.028v-2.465l-3.25.266v.691c1.625 0 1.817.168 1.817 1.34v6.477c0 1.074-.262 1.074-1.817 1.074v.691c.621-.046 1.914-.046 2.582-.046.696 0 1.985 0 2.606.046v-.691c-1.532 0-1.817 0-1.817-1.074v-4.446c0-2.507 1.649-3.847 3.13-3.847 1.484 0 1.816 1.219 1.816 2.676v5.617c0 1.074-.262 1.074-1.817 1.074v.691c.621-.046 1.914-.046 2.582-.046.696 0 1.985 0 2.606.046v-.691c-1.196 0-1.793 0-1.817-.715zm5.782-3.801h3.367v-.691h-3.367v-4.399h-.528c-.023 2.246-.883 4.539-3.058 4.613v.477h2.03v6.644c0 2.653 1.77 3.204 3.036 3.204 1.504 0 2.293-1.485 2.293-3.204v-1.363h-.523v1.317c0 1.718-.696 2.722-1.625 2.722-1.625 0-1.625-2.222-1.625-2.629zm14.308 3.227c0-1.29 0-2.247-1.05-3.18-.837-.762-1.915-1.098-2.965-1.098-1.957 0-3.465 1.289-3.465 2.844 0 .691.453 1.027 1.004 1.027.574 0 .98-.406.98-.98 0-.981-.86-.981-1.219-.981.551-1.004 1.696-1.433 2.653-1.433 1.097 0 2.507.91 2.507 3.058v.957c-4.8.071-6.617 2.078-6.617 3.918 0 1.891 2.2 2.489 3.657 2.489 1.574 0 2.652-.957 3.105-2.106.094 1.125.836 1.985 1.863 1.985.504 0 1.887-.336 1.887-2.247v-1.339h-.523v1.339c0 1.364-.575 1.555-.907 1.555-.91 0-.91-1.269-.91-1.625zm-1.555 3.011c0 2.34-1.742 3.129-2.769 3.129-1.172 0-2.152-.859-2.152-2.008 0-3.152 4.062-3.441 4.921-3.488zm20.481-5.472c-.285 0-1.172 0-1.172.976 0 .574.406.981.98.981.551 0 1.004-.332 1.004-1.024 0-1.601-1.671-2.75-3.609-2.75-2.793 0-5.016 2.485-5.016 5.496 0 3.059 2.294 5.403 4.993 5.403 3.156 0 3.87-2.868 3.87-3.086 0-.215-.167-.215-.237-.215-.215 0-.239.07-.31.359-.526 1.699-1.815 2.414-3.109 2.414-1.457 0-3.39-1.265-3.39-4.898 0-3.969 2.031-4.949 3.223-4.949.91 0 2.226.363 2.773 1.293m12.719 3.726c0-3.082-2.344-5.543-5.113-5.543-2.868 0-5.137 2.531-5.137 5.543 0 3.059 2.387 5.356 5.113 5.356 2.816 0 5.137-2.344 5.137-5.356m-5.113 4.828c-.887 0-1.962-.383-2.653-1.554-.648-1.075-.672-2.485-.672-3.489 0-.91 0-2.367.742-3.441a3.06 3.06 0 0 1 2.559-1.41c.93 0 1.934.429 2.578 1.363.742 1.098.742 2.605.742 3.488 0 .836 0 2.321-.62 3.442-.669 1.148-1.77 1.601-2.676 1.601m16.48-5.519c0-2.223 0-2.891-.551-3.657-.695-.933-1.816-1.078-2.629-1.078-2.316 0-3.226 1.985-3.418 2.465h-.023v-2.465l-3.25.266v.691c1.625 0 1.816.168 1.816 1.34v6.477c0 1.074-.261 1.074-1.816 1.074v.691c.62-.046 1.914-.046 2.582-.046.691 0 1.984 0 2.601.046v-.691c-1.527 0-1.812 0-1.812-1.074v-4.446c0-2.507 1.648-3.847 3.129-3.847 1.48 0 1.816 1.219 1.816 2.676v5.617c0 1.074-.265 1.074-1.816 1.074v.691c.621-.046 1.914-.046 2.582-.046.691 0 1.98 0 2.601.046v-.691c-1.195 0-1.789 0-1.812-.715zm29.523-8.914c0-.621-.504-1.172-1.171-1.172a1.15 1.15 0 0 0-1.149 1.148c0 .715.574 1.172 1.149 1.172.742 0 1.171-.625 1.171-1.148m-3.296 4.445v.691c1.527 0 1.742.145 1.742 1.317v6.5c0 1.074-.262 1.074-1.817 1.074v.691c.668-.046 1.817-.046 2.508-.046.266 0 1.652 0 2.465.046v-.691c-1.555 0-1.648-.121-1.648-1.051v-8.797zm35.804-6.047v.695c1.625 0 1.821.164 1.821 1.336v5.282c-.504-.692-1.532-1.532-2.989-1.532-2.773 0-5.164 2.344-5.164 5.403 0 3.035 2.27 5.379 4.903 5.379 1.816 0 2.867-1.196 3.199-1.649v1.649l3.371-.243v-.691c-1.625 0-1.817-.168-1.817-1.34v-14.551zm1.77 13.527c0 .43 0 .5-.332 1.028-.575.836-1.555 1.527-2.75 1.527-.621 0-3.203-.238-3.203-4.875 0-1.719.289-2.676.812-3.465.477-.742 1.434-1.48 2.629-1.48 1.48 0 2.316 1.074 2.559 1.457.285.406.285.457.285.883zm13.285-3.585c0-1.29 0-2.247-1.051-3.18-.836-.762-1.91-1.098-2.961-1.098-1.961 0-3.465 1.289-3.465 2.844 0 .691.453 1.027 1.004 1.027.574 0 .981-.406.981-.98 0-.981-.864-.981-1.219-.981.547-1.004 1.695-1.433 2.648-1.433 1.102 0 2.512.91 2.512 3.058v.957c-4.805.071-6.617 2.078-6.617 3.918 0 1.891 2.195 2.489 3.652 2.489 1.578 0 2.657-.957 3.11-2.106.093 1.125.836 1.985 1.863 1.985.5 0 1.887-.336 1.887-2.247v-1.339h-.524v1.339c0 1.364-.574 1.555-.91 1.555-.91 0-.91-1.269-.91-1.625zm-1.551 3.011c0 2.34-1.742 3.129-2.773 3.129-1.168 0-2.149-.859-2.149-2.008 0-3.152 4.063-3.441 4.922-3.488zm33.91-11.949c0-.551 0-.574-.476-.574-.575.648-1.77 1.527-4.231 1.527v.695c.551 0 1.746 0 3.059-.621v12.45c0 .863-.07 1.148-2.172 1.148h-.742v.691c.644-.046 2.961-.046 3.75-.046s3.086 0 3.726.046v-.691h-.738c-2.102 0-2.176-.285-2.176-1.148zm37.043 8.938c0-1.29 0-2.247-1.051-3.18-.835-.762-1.914-1.098-2.964-1.098-1.957 0-3.465 1.289-3.465 2.844 0 .691.453 1.027 1.004 1.027.574 0 .98-.406.98-.98 0-.981-.859-.981-1.219-.981.551-1.004 1.696-1.433 2.653-1.433 1.097 0 2.508.91 2.508 3.058v.957c-4.801.071-6.618 2.078-6.618 3.918 0 1.891 2.2 2.489 3.657 2.489 1.574 0 2.652-.957 3.105-2.106.094 1.125.836 1.985 1.863 1.985.504 0 1.887-.336 1.887-2.247v-1.339h-.523v1.339c0 1.364-.575 1.555-.907 1.555-.91 0-.91-1.269-.91-1.625zm-1.554 3.011c0 2.34-1.743 3.129-2.774 3.129-1.168 0-2.148-.859-2.148-2.008 0-3.152 4.062-3.441 4.922-3.488zm35.656-12.187c0-.453 0-.574-.332-.574-.192 0-.266 0-.457.285l-7.192 11.16v.695h6.285v2.172c0 .887-.046 1.125-1.792 1.125h-.477v.691c.547-.046 2.437-.046 3.105-.046s2.582 0 3.129.046v-.691h-.476c-1.723 0-1.793-.238-1.793-1.125v-2.172h2.414v-.695h-2.414zm-1.574 1.863v9.008h-5.809zm15.164 9.68h-.528c-.07.406-.261 1.718-.5 2.101-.168.215-1.531.215-2.246.215h-4.422c.645-.551 2.102-2.078 2.723-2.652 3.633-3.348 4.973-4.59 4.973-6.953 0-2.75-2.176-4.59-4.95-4.59-2.769 0-4.394 2.367-4.394 4.422 0 1.218 1.051 1.218 1.121 1.218.504 0 1.125-.359 1.125-1.125 0-.668-.453-1.121-1.125-1.121-.215 0-.262 0-.332.024.453-1.625 1.742-2.723 3.297-2.723 2.031 0 3.273 1.695 3.273 3.895 0 2.031-1.172 3.8-2.535 5.328l-4.824 5.402v.57h8.723zm28.582-5.141c0-.644-.551-1.144-1.149-1.144-.691 0-1.168.546-1.168 1.144 0 .719.598 1.172 1.145 1.172.644 0 1.172-.5 1.172-1.172m0 7.984c0-.648-.551-1.148-1.149-1.148-.691 0-1.168.551-1.168 1.148a1.158 1.158 0 1 0 2.317 0M17.156-635.719c0-.625-.5-1.172-1.168-1.172-.62 0-1.148.5-1.148 1.149a1.15 1.15 0 0 0 1.148 1.168c.739 0 1.168-.621 1.168-1.145m-3.297 4.446v.691c1.532 0 1.746.144 1.746 1.312v6.5c0 1.075-.261 1.075-1.816 1.075v.695c.668-.047 1.816-.047 2.508-.047.265 0 1.648 0 2.46.047v-.695c-1.55 0-1.648-.118-1.648-1.047v-8.797zm22.774 4.468c0-2.226 0-2.894-.547-3.66-.695-.93-1.816-1.074-2.629-1.074-1.984 0-2.988 1.434-3.371 2.367-.336-1.84-1.625-2.367-3.129-2.367-2.32 0-3.227 1.984-3.418 2.461h-.023v-2.461l-3.25.266v.691c1.625 0 1.816.164 1.816 1.34v6.472c0 1.075-.262 1.075-1.816 1.075v.695c.62-.047 1.91-.047 2.578-.047.695 0 1.984 0 2.605.047v-.695c-1.527 0-1.816 0-1.816-1.075v-4.445c0-2.508 1.648-3.848 3.133-3.848 1.48 0 1.816 1.219 1.816 2.68v5.613c0 1.075-.266 1.075-1.816 1.075v.695c.62-.047 1.91-.047 2.578-.047.695 0 1.984 0 2.605.047v-.695c-1.527 0-1.816 0-1.816-1.075v-4.445c0-2.508 1.648-3.848 3.133-3.848 1.48 0 1.816 1.219 1.816 2.68v5.613c0 1.075-.266 1.075-1.816 1.075v.695c.62-.047 1.91-.047 2.578-.047.695 0 1.984 0 2.605.047v-.695c-1.195 0-1.793 0-1.816-.715zm8.223 9.746c-1.532 0-1.817 0-1.817-1.074v-4.16c.43.598 1.41 1.531 2.938 1.531 2.75 0 5.164-2.316 5.164-5.398 0-3.035-2.246-5.379-4.852-5.379-2.102 0-3.227 1.508-3.297 1.601v-1.601l-3.324.266v.691c1.676 0 1.816.164 1.816 1.219v11.23c0 1.074-.261 1.074-1.816 1.074v.696c.621-.051 1.914-.051 2.582-.051.691 0 1.984 0 2.605.051zm-1.817-11.562c0-.457 0-.481.262-.863.718-1.075 1.886-1.528 2.797-1.528 1.793 0 3.226 2.172 3.226 4.852 0 2.84-1.625 4.922-3.465 4.922a2.83 2.83 0 0 1-1.914-.766c-.547-.551-.906-1.027-.906-1.695zm20.629 2.508c0-3.082-2.34-5.543-5.113-5.543-2.867 0-5.137 2.531-5.137 5.543 0 3.058 2.387 5.351 5.113 5.351 2.82 0 5.137-2.34 5.137-5.351m-5.113 4.824c-.883 0-1.961-.379-2.653-1.551-.644-1.078-.668-2.484-.668-3.488 0-.91 0-2.367.739-3.442a3.07 3.07 0 0 1 2.558-1.41c.93 0 1.938.43 2.578 1.364.743 1.097.743 2.601.743 3.488 0 .836 0 2.316-.621 3.441-.669 1.145-1.77 1.598-2.676 1.598m13.683-9.82c0-.43 0-.547-.238-.547-.191 0-.644.523-.812.738-.743-.598-1.485-.738-2.247-.738-2.894 0-3.754 1.574-3.754 2.89 0 .262 0 1.098.91 1.934.762.672 1.575.84 2.676 1.051 1.313.265 1.625.336 2.223.812.43.36.738.887.738 1.555 0 1.027-.593 2.176-2.699 2.176-1.574 0-2.722-.91-3.25-3.297-.094-.434-.094-.457-.117-.481-.05-.093-.145-.093-.215-.093-.266 0-.266.117-.266.546v3.25c0 .43 0 .551.243.551.117 0 .14-.023.547-.527.12-.164.12-.215.476-.594.91 1.121 2.2 1.121 2.606 1.121 2.511 0 3.754-1.386 3.754-3.273 0-1.289-.79-2.055-1.004-2.27-.86-.742-1.504-.883-3.082-1.172-.72-.14-2.461-.476-2.461-1.91 0-.742.5-1.84 2.652-1.84 2.605 0 2.746 2.223 2.793 2.961.023.192.191.192.266.192.261 0 .261-.117.261-.547zm5.375.504h3.371v-.696h-3.37v-4.394h-.524c-.024 2.246-.887 4.539-3.059 4.609v.481h2.031v6.64c0 2.652 1.766 3.203 3.036 3.203 1.504 0 2.293-1.48 2.293-3.203v-1.359h-.528v1.312c0 1.719-.691 2.723-1.625 2.723-1.625 0-1.625-2.219-1.625-2.629zm14.309 3.226c0-1.293 0-2.25-1.047-3.18-.84-.765-1.914-1.097-2.965-1.097-1.96 0-3.465 1.289-3.465 2.843 0 .692.453 1.028 1.004 1.028.574 0 .98-.406.98-.981 0-.98-.863-.98-1.218-.98.547-1.004 1.695-1.434 2.648-1.434 1.102 0 2.512.907 2.512 3.059v.953c-4.805.074-6.621 2.082-6.621 3.922 0 1.887 2.2 2.484 3.656 2.484 1.578 0 2.656-.957 3.11-2.101.093 1.121.836 1.98 1.863 1.98.5 0 1.887-.332 1.887-2.246v-1.336h-.524v1.336c0 1.363-.574 1.555-.91 1.555-.91 0-.91-1.266-.91-1.625zm-1.55 3.012c0 2.34-1.747 3.129-2.774 3.129-1.168 0-2.149-.864-2.149-2.008 0-3.152 4.063-3.442 4.922-3.488zm35.679-5.477c-.285 0-1.172 0-1.172.981 0 .574.406.98.98.98.551 0 1.004-.336 1.004-1.027 0-1.602-1.672-2.746-3.609-2.746-2.793 0-5.02 2.484-5.02 5.496 0 3.058 2.297 5.398 4.996 5.398 3.157 0 3.872-2.867 3.872-3.082s-.168-.215-.239-.215c-.215 0-.242.071-.308.36-.528 1.695-1.821 2.41-3.11 2.41-1.457 0-3.39-1.266-3.39-4.899 0-3.964 2.031-4.945 3.222-4.945.911 0 2.227.36 2.774 1.289m12.719 3.731c0-3.082-2.344-5.543-5.114-5.543-2.867 0-5.14 2.531-5.14 5.543 0 3.058 2.39 5.351 5.117 5.351 2.816 0 5.137-2.34 5.137-5.351m-5.114 4.824c-.886 0-1.961-.379-2.652-1.551-.649-1.078-.672-2.484-.672-3.488 0-.91 0-2.367.742-3.442a3.06 3.06 0 0 1 2.559-1.41c.93 0 1.933.43 2.578 1.364.742 1.097.742 2.601.742 3.488 0 .836 0 2.316-.621 3.441-.668 1.145-1.769 1.598-2.676 1.598m16.477-5.516c0-2.226 0-2.894-.547-3.66-.695-.93-1.816-1.074-2.629-1.074-2.32 0-3.227 1.984-3.418 2.461h-.023v-2.461l-3.25.266v.691c1.625 0 1.816.164 1.816 1.34v6.472c0 1.075-.262 1.075-1.816 1.075v.695c.621-.047 1.91-.047 2.578-.047.695 0 1.984 0 2.605.047v-.695c-1.527 0-1.816 0-1.816-1.075v-4.445c0-2.508 1.648-3.848 3.133-3.848 1.48 0 1.816 1.219 1.816 2.68v5.613c0 1.075-.266 1.075-1.816 1.075v.695c.621-.047 1.91-.047 2.578-.047.695 0 1.984 0 2.605.047v-.695c-1.195 0-1.793 0-1.816-.715zm5.781-3.8h3.371v-.696h-3.371v-4.394h-.523c-.024 2.246-.887 4.539-3.063 4.609v.481h2.031v6.64c0 2.652 1.77 3.203 3.039 3.203 1.504 0 2.293-1.48 2.293-3.203v-1.359h-.527v1.312c0 1.719-.691 2.723-1.625 2.723-1.625 0-1.625-2.219-1.625-2.629zm14.309 3.226c0-1.293 0-2.25-1.051-3.18-.836-.765-1.91-1.097-2.961-1.097-1.961 0-3.469 1.289-3.469 2.843 0 .692.457 1.028 1.004 1.028.574 0 .981-.406.981-.981 0-.98-.86-.98-1.219-.98.551-1.004 1.699-1.434 2.652-1.434 1.102 0 2.512.907 2.512 3.059v.953c-4.805.074-6.621 2.082-6.621 3.922 0 1.887 2.199 2.484 3.656 2.484 1.578 0 2.652-.957 3.106-2.101.097 1.121.835 1.98 1.867 1.98.5 0 1.886-.332 1.886-2.246v-1.336h-.527v1.336c0 1.363-.57 1.555-.906 1.555-.91 0-.91-1.266-.91-1.625zm-1.551 3.012c0 2.34-1.746 3.129-2.774 3.129-1.171 0-2.152-.864-2.152-2.008 0-3.152 4.067-3.442 4.926-3.488zm8.043-6.238h3.371v-.696h-3.371v-4.394h-.527c-.024 2.246-.883 4.539-3.059 4.609v.481h2.031v6.64c0 2.652 1.77 3.203 3.035 3.203 1.508 0 2.297-1.48 2.297-3.203v-1.359h-.527v1.312c0 1.719-.692 2.723-1.625 2.723-1.625 0-1.625-2.219-1.625-2.629zm16.055 4.492c0-3.082-2.344-5.543-5.114-5.543-2.867 0-5.14 2.531-5.14 5.543 0 3.058 2.39 5.351 5.117 5.351 2.816 0 5.137-2.34 5.137-5.351m-5.114 4.824c-.886 0-1.961-.379-2.652-1.551-.649-1.078-.672-2.484-.672-3.488 0-.91 0-2.367.742-3.442a3.06 3.06 0 0 1 2.559-1.41c.93 0 1.933.43 2.578 1.364.742 1.097.742 2.601.742 3.488 0 .836 0 2.316-.621 3.441-.668 1.145-1.769 1.598-2.676 1.598m9.836-5.277c0-2.321.953-4.497 2.793-4.497.192 0 .238 0 .336.028-.191.094-.574.238-.574.883 0 .691.551.957.933.957.477 0 .958-.313.958-.957 0-.715-.649-1.387-1.676-1.387-2.032 0-2.723 2.199-2.867 2.652h-.024v-2.652l-3.203.266v.691c1.625 0 1.816.164 1.816 1.34v6.472c0 1.075-.261 1.075-1.816 1.075v.695c.672-.047 1.984-.047 2.699-.047.649 0 2.344 0 2.895.047v-.695h-.481c-1.742 0-1.789-.262-1.789-1.121zm14.262.023c.523 0 .574 0 .574-.453 0-2.414-1.293-4.66-4.183-4.66-2.723 0-4.829 2.461-4.829 5.422 0 3.156 2.438 5.472 5.09 5.472 2.844 0 3.922-2.582 3.922-3.082 0-.144-.121-.238-.265-.238-.192 0-.239.117-.286.238-.621 2.008-2.222 2.555-3.226 2.555s-3.418-.668-3.418-4.801v-.453zm-6.598-.453c.192-3.754 2.297-4.184 2.965-4.184 2.555 0 2.699 3.367 2.723 4.184zm40.067-.383c0-1.293 0-2.25-1.051-3.18-.836-.765-1.91-1.097-2.961-1.097-1.961 0-3.469 1.289-3.469 2.843 0 .692.457 1.028 1.004 1.028.574 0 .981-.406.981-.981 0-.98-.86-.98-1.219-.98.551-1.004 1.699-1.434 2.652-1.434 1.102 0 2.512.907 2.512 3.059v.953c-4.805.074-6.621 2.082-6.621 3.922 0 1.887 2.199 2.484 3.656 2.484 1.578 0 2.652-.957 3.106-2.101.097 1.121.835 1.98 1.867 1.98.5 0 1.886-.332 1.886-2.246v-1.336h-.527v1.336c0 1.363-.57 1.555-.906 1.555-.91 0-.91-1.266-.91-1.625zm-1.551 3.012c0 2.34-1.746 3.129-2.774 3.129-1.171 0-2.152-.864-2.152-2.008 0-3.152 4.067-3.442 4.926-3.488zm37.734-4.281c0-1.981-.121-3.918-.98-5.735-.981-1.984-2.699-2.508-3.871-2.508-1.387 0-3.082.692-3.965 2.676-.672 1.504-.91 2.988-.91 5.567 0 2.32.168 4.062 1.027 5.761.934 1.817 2.582 2.391 3.824 2.391 2.078 0 3.274-1.246 3.965-2.633.863-1.789.91-4.133.91-5.519m-4.875 7.671c-.765 0-2.316-.429-2.773-3.035-.262-1.433-.262-3.25-.262-4.922 0-1.961 0-3.726.383-5.136.406-1.602 1.625-2.344 2.652-2.344.907 0 2.293.551 2.75 2.605.309 1.364.309 3.25.309 4.875 0 1.602 0 3.418-.262 4.875-.457 2.629-1.961 3.082-2.797 3.082"/></g></svg>