<svg xmlns="http://www.w3.org/2000/svg" width="86pt" height="101pt" viewBox="0 -101 86 101"><g id="page1" fill-rule="evenodd"><path fill="#a7410e" d="M32.91-84.68c-.445.176-.887.442-.976.442s.796.976 1.949 2.129c1.152 1.148 2.57 2.656 3.187 3.543.621.797 1.598 2.3 2.13 3.277.44.973 1.062 2.566 1.413 3.453.27.977.535 2.57.621 3.453 0 .977.18 1.774.356 1.864.09.085.797.175 1.504.175 1.066 0 1.332-.09 1.418-.355.09-.176 0-1.063-.176-2.035-.176-.887-.621-2.66-1.063-3.809-.355-1.242-.976-2.926-1.418-3.809-.44-.886-1.242-2.394-1.859-3.28-.531-.884-1.418-2.036-1.86-2.567a32 32 0 0 1-1.773-1.594c-.531-.355-1.152-.797-1.508-.976-.351-.176-.796-.266-.882-.266-.18 0-.621.18-1.063.355m25.332 11.957h1.063c.355-.086.09-.086-.532-.086-.53 0-.796 0-.53.086M28.481-14.879a26 26 0 0 1 1.152 1.066c.086 0-.356-.53-.977-1.066-.531-.617-1.062-1.148-1.152-1.148-.086 0 .355.53.976 1.148m-10.81 2.305c.532.62 1.063 1.152 1.153 1.152s-.355-.531-.976-1.152c-.617-.531-1.149-1.063-1.149-1.063-.09 0 .352.532.973 1.063"/><path fill="red" d="M55.676-72.191c-.797.265-1.774.62-2.04.797-.355.18-1.859 1.066-3.277 2.038-1.507.887-3.277 1.95-3.988 2.305-1.148.532-1.414.532-3.453.532-1.77 0-2.39-.09-3.719-.532-.797-.265-3.191-1.242-5.14-2.215-2.036-.886-4.34-1.863-5.137-2.128-.797-.262-2.125-.618-3.012-.708-1.328-.175-1.86-.175-3.187.09-.887.176-2.48.707-3.543 1.153-1.067.351-2.57 1.062-3.278 1.503-.71.446-1.863 1.153-2.394 1.594a48 48 0 0 0-2.301 2.125c-.71.711-1.594 1.864-2.129 2.57-.441.712-1.148 2.04-1.594 2.922-.441.801-1.062 2.215-1.328 3.102-.265.887-.707 2.39-.886 3.457-.266 1.063-.532 2.922-.618 4.16-.18 1.332-.18 3.367-.09 4.961.09 1.508.266 3.723.442 4.875.09 1.149.531 3.098.797 4.34.265 1.238.886 3.543 1.418 5.227.531 1.593 1.683 4.25 2.48 5.843.797 1.684 2.04 3.899 2.746 5.051a98 98 0 0 0 2.57 3.543c.708.797 2.215 2.39 3.368 3.543 1.148 1.152 2.832 2.57 3.629 3.102.797.62 1.949 1.328 2.57 1.683.621.266 2.035.883 3.188 1.238 1.062.356 2.835.797 3.988.977 1.238.176 2.48.266 3.543.176.972 0 2.3-.356 3.543-.707 1.504-.446 2.304-.621 3.633-.621 1.504-.09 1.859 0 4.43.886 2.034.797 3.011.973 3.894.973.71 0 1.863-.176 2.66-.441.797-.18 2.125-.711 3.012-1.063.883-.445 2.39-1.152 3.277-1.683.973-.622 2.39-1.594 3.277-2.305.887-.621 2.301-1.95 3.188-2.832.887-.887 2.215-2.305 2.926-3.192.707-.886 1.859-2.48 2.566-3.453.621-1.062 1.684-2.836 2.305-3.898s1.594-3.012 2.215-4.34c.53-1.242 1.417-3.543 1.949-4.96.531-1.419 1.148-3.458 1.414-4.606a60 60 0 0 0 .8-3.813c.087-.973.266-2.922.352-4.25.09-1.418.09-3.367-.086-4.695-.09-1.239-.445-3.102-.62-4.074-.18-.973-.622-2.57-.977-3.457-.266-.973-.883-2.391-1.328-3.278-.442-.883-1.239-2.215-1.77-3.011s-1.508-2.036-2.305-2.832c-.797-.712-1.86-1.774-2.57-2.215-.617-.446-1.86-1.243-2.746-1.684a26 26 0 0 0-3.012-1.238c-.707-.27-2.035-.535-2.832-.711-.887-.176-2.394-.356-3.457-.266-1.504 0-2.215.09-3.363.442M15.813-50.398c-.266.62-.711 1.77-.887 2.656-.266.886-.531 2.57-.707 3.633-.18 1.152-.266 3.453-.266 5.05 0 1.77.086 3.985.266 5.047.176 1.063.441 2.66.707 3.543.176.887.71 2.48 1.152 3.543.442 1.067 1.238 2.746 1.86 3.723.62 1.062 1.593 2.48 2.214 3.367.707.797 1.95 2.125 2.836 3.012.883.883 2.39 2.125 3.278 2.832.972.62 2.3 1.508 3.097 1.86.801.355 1.598.71 1.95.71.355.09.53.09.53-.09 0-.086-1.413-1.593-3.011-3.277a110 110 0 0 1-4.16-4.43 60 60 0 0 0-2.129-2.922c-.531-.797-1.414-2.39-1.95-3.453A43 43 0 0 1 19-29.316c-.266-.973-.797-2.48-.973-3.368-.18-.882-.53-2.476-.71-3.629-.176-1.331-.352-4.078-.352-7.886-.09-3.278-.18-6.2-.18-6.555-.086-.352-.176-.707-.265-.707-.176 0-.442.531-.707 1.063"/><path d="M62.14-100.004c-.44.09-1.503.797-2.39 1.594-.887.707-2.04 1.594-2.48 1.95-.622.44-1.329.706-2.391.886-.8.086-2.66.441-4.078.617-2.125.355-2.832.531-4.16 1.242-1.153.531-1.864 1.063-2.746 2.035-.622.711-1.508 1.864-1.95 2.746-.445.887-.886 1.95-1.062 2.305l-.18.707-1.328-.972c-.797-.532-2.125-1.329-3.012-1.77-1.508-.711-1.773-.8-2.656-.621-.531 0-1.773.441-2.746.797-1.242.531-1.95.972-2.48 1.594-.446.44-.887 1.152-.977 1.593-.176.532-.176 1.242-.086 1.684 0 .441.266 1.152.531 1.508.176.441.883 1.148 1.504 1.68.621.445 1.86 1.507 2.656 2.394.801.797 1.95 2.125 2.48 2.922.532.797.977 1.507.888 1.594 0 0-1.153-.442-2.48-1.063-1.419-.531-3.278-1.238-4.165-1.504-1.238-.266-2.215-.445-4.074-.445-2.125 0-2.746.09-4.34.531-.973.356-2.656.887-3.633 1.328-.973.445-2.48 1.242-3.277 1.774-.887.441-2.39 1.593-3.363 2.39-1.067.887-2.395 2.215-3.012 3.012a36 36 0 0 0-2.04 2.57c-.44.707-1.152 2.035-1.683 3.012-.441.973-1.152 2.48-1.504 3.453-.355.977-.8 2.836-1.066 4.164S.223-50.664.133-49.07c-.176 2.125-.176 3.543 0 6.023.09 1.684.355 4.164.62 5.492.177 1.328.622 3.278.884 4.34.27 1.063.8 2.926 1.152 4.074a218 218 0 0 0 1.598 4.254c.441 1.153 1.328 3.012 1.945 4.075.531 1.152 1.598 2.921 2.305 3.988.707 1.062 1.949 2.832 2.836 3.894.882 1.067 2.48 2.836 3.629 3.899 1.152 1.152 2.835 2.57 3.812 3.277.973.797 2.656 1.774 3.719 2.395 1.152.53 2.656 1.148 3.543 1.414.887.355 2.39.71 3.367.976.973.176 2.922.442 4.34.442 2.39.09 2.746.09 4.52-.442a141 141 0 0 0 3.097-.797l1.063-.355 3.19 1.062c2.833.977 3.278 1.063 4.962 1.063 1.594 0 2.215-.086 4.164-.617 1.414-.446 3.363-1.242 5.137-2.13 1.504-.796 3.632-2.034 4.695-2.745 1.062-.797 3.098-2.567 4.605-4.074 1.504-1.504 3.368-3.454 3.985-4.34.62-.887 1.773-2.48 2.48-3.543.711-1.063 1.774-2.922 2.395-3.989.617-1.062 1.593-3.187 2.215-4.605.707-1.504 1.593-3.809 2.125-5.313.53-1.418 1.152-3.722 1.503-4.96.266-1.333.712-3.458.887-4.696a49 49 0 0 0 .356-5.672c0-2.3-.09-4.16-.356-5.668-.175-1.152-.531-3.011-.797-3.984-.265-1.066-.796-2.48-1.062-3.277-.266-.711-.977-2.215-1.508-3.282-.531-1.062-1.504-2.656-2.125-3.543-.707-.882-1.683-2.125-2.305-2.746-.617-.707-1.593-1.593-2.3-2.125-.621-.53-1.95-1.504-2.922-2.035-.977-.62-2.66-1.508-3.813-1.95-1.148-.444-3.097-.976-4.34-1.241-1.238-.266-2.656-.442-3.187-.531h-.887l1.063-.532c.62-.265 1.683-1.062 2.39-1.77.801-.796 1.598-1.863 2.04-2.66.355-.796.886-2.035 1.062-2.832.266-.886.531-2.57.71-3.988.177-1.328.352-3.543.442-4.87.09-1.595.09-2.747-.09-3.278-.086-.445-.441-1.152-.707-1.508-.175-.352-.797-.887-1.242-1.062-.441-.266-1.148-.532-1.594-.532-.53-.09-1.238 0-1.593.09m-.706 5.402c-.977.797-2.305 1.684-2.926 2.04-.707.351-1.95.706-2.746.882-.883.18-2.567.446-3.719.532-1.152.18-2.57.535-3.102.71-.62.266-1.418.797-1.859 1.239-.441.445-1.062 1.332-1.418 1.949-.355.621-.797 1.594-.973 2.305-.18.62-.355 1.77-.355 2.746 0 .797.176 1.949.266 2.39.175.532.441 1.328.62 1.86l.442.886 1.773-.972c.973-.531 2.301-1.063 2.922-1.242.532-.176 2.125-.442 3.368-.621 1.328-.086 2.746-.352 3.277-.532.531-.086 1.328-.351 1.77-.617a7.3 7.3 0 0 0 1.593-1.152c.27-.445.801-1.063.977-1.508.175-.352.531-1.328.797-2.035.265-.797.53-2.215.707-3.277.18-1.063.355-3.012.445-4.52 0-1.418.09-2.567 0-2.567 0 0-.887.708-1.86 1.504M32.91-84.68c-.445.176-.887.442-.976.442s.796.976 1.949 2.129c1.152 1.148 2.57 2.656 3.187 3.543.621.797 1.598 2.3 2.13 3.277.44.973 1.062 2.566 1.413 3.453.27.977.535 2.57.621 3.543.09 1.328 0 1.684-.175 1.684-.09 0-.977-.266-1.95-.532-.886-.355-2.656-1.062-3.808-1.593-1.242-.622-3.102-1.418-4.164-1.86-1.153-.445-2.836-1.062-3.719-1.332-1.418-.351-2.129-.351-3.367-.265-.977 0-2.215.265-3.457.71-1.063.352-2.657 1.063-3.63 1.504-.976.532-2.48 1.418-3.276 2.04s-2.04 1.683-2.57 2.39c-.622.621-1.595 1.774-2.126 2.57-.531.797-1.242 1.95-1.508 2.57a32 32 0 0 0-1.238 2.923 96 96 0 0 0-.976 3.543 26 26 0 0 0-.618 3.277c-.09.797-.18 3.277-.09 5.402 0 2.305.176 4.871.356 6.024.176 1.152.617 3.277.973 4.605.355 1.418.972 3.633 1.328 4.785.445 1.242 1.152 3.192 1.683 4.254.442 1.149 1.418 2.922 2.04 4.075.706 1.152 1.769 2.831 2.48 3.808.617.887 1.77 2.39 2.566 3.277.711.887 2.125 2.391 3.102 3.188.973.887 2.39 1.95 3.012 2.48.62.446 1.859 1.153 2.746 1.594.886.445 2.304.977 3.187 1.332.887.266 2.395.617 3.278.797.976.176 2.394.352 3.277.352 1.152 0 2.039-.176 4.078-.797 1.86-.532 2.832-.707 3.895-.707 1.152 0 1.863.175 4.164.886 2.125.797 3.011.973 4.074.973 1.062.09 1.773-.09 3.101-.531.887-.266 2.48-.887 3.453-1.418 1.067-.442 2.747-1.418 3.723-2.125 1.063-.621 2.746-1.86 3.633-2.656.883-.797 2.3-2.215 3.098-3.192.797-.887 1.949-2.215 2.48-3.012.621-.796 1.418-2.035 1.95-2.746.445-.797 1.327-2.3 1.948-3.367.622-1.148 1.594-3.187 2.215-4.515.621-1.418 1.594-3.899 2.215-5.668.531-1.774 1.239-4.164 1.418-5.317.266-1.238.531-3.011.621-3.984a54 54 0 0 0 .176-3.989c0-1.238-.09-3.277-.266-4.34-.175-1.152-.445-2.835-.71-3.718-.176-.887-.618-2.305-.883-3.016-.356-.797-.887-2.125-1.242-2.832-.352-.797-1.153-2.039-1.684-2.836s-1.684-2.215-2.566-3.101c-.887-.883-2.13-1.95-2.837-2.39-.707-.532-1.949-1.24-2.835-1.595-.883-.445-2.391-1.062-3.364-1.328-.976-.265-2.66-.531-3.898-.71-1.86-.176-2.305-.176-3.633.09-.797.175-2.125.706-3.012 1.151-.797.352-2.57 1.418-3.898 2.215-1.238.883-2.746 1.77-3.277 2.035-.621.18-1.239.446-1.504.532-.532.18-.532.09-.887-1.77-.176-1.062-.621-2.836-1.063-4.074-.355-1.242-.976-2.926-1.418-3.809-.44-.886-1.242-2.394-1.859-3.28-.531-.884-1.418-2.036-1.86-2.567a32 32 0 0 1-1.773-1.594c-.531-.355-1.152-.797-1.508-.976-.351-.176-.796-.266-.882-.266-.18 0-.621.18-1.063.355m18.156 9.301c-.441.176-1.328.621-2.035 1.063-.71.355-1.242.797-1.242.976 0 .176 0 .266.09.266 0 0 .531-.266 1.152-.711.532-.356 1.594-.887 2.215-1.238.617-.356.973-.621.887-.621-.18 0-.621.175-1.067.265M15.723-50.133c-.266.531-.621 2.04-.887 3.188-.266 1.152-.617 3.011-.707 3.988a59 59 0 0 0-.176 4.074c0 1.239.086 3.188.266 4.43.176 1.238.531 3.012.797 4.074.265.973.707 2.39.972 3.102.266.797.797 1.949 1.153 2.656.355.71 1.242 2.125 1.859 3.101.71.973 2.129 2.747 3.191 3.81.973 1.062 2.567 2.566 3.543 3.187.883.71 2.48 1.683 3.453 2.214 1.063.532 1.95.887 2.305.797.352 0 .176-.351-2.129-2.566-1.414-1.418-3.277-3.457-4.16-4.43-.797-1.062-2.039-2.746-2.66-3.722-.707-.973-1.594-2.48-2.035-3.454-.445-.886-1.152-2.57-1.594-3.722-.355-1.063-.887-3.098-1.152-4.426-.266-1.242-.532-3.367-.711-4.52-.086-1.238-.176-4.25-.176-6.73s-.09-4.875-.176-5.316c0-.442-.18-.797-.265-.797-.09 0-.446.441-.711 1.062"/><path fill="#8a0" d="M61.434-94.602c-.977.797-2.305 1.684-2.926 2.04-.707.351-1.95.706-2.746.882-.883.18-2.567.446-3.719.532-1.152.18-2.57.535-3.102.71-.62.266-1.418.797-1.859 1.239-.441.445-1.062 1.332-1.418 1.949-.355.621-.797 1.594-.973 2.305-.18.62-.355 1.77-.355 2.746 0 .797.176 1.949.266 2.39.175.532.441 1.328.62 1.86l.442.886 1.773-.972c.973-.531 2.301-1.063 2.922-1.242.532-.176 2.125-.442 3.368-.621 1.328-.086 2.746-.352 3.277-.532.531-.086 1.328-.351 1.77-.617a7.3 7.3 0 0 0 1.593-1.152c.27-.445.801-1.063.977-1.508.175-.352.531-1.328.797-2.035.265-.797.53-2.215.707-3.277.18-1.063.355-3.012.445-4.52 0-1.418.09-2.567 0-2.567 0 0-.887.708-1.86 1.504m7.972 85.04L68.34-8.41l1.152-1.063 1.152-1.152-.09-.09z"/></g></svg>