<svg xmlns="http://www.w3.org/2000/svg" width="247pt" height="107pt" viewBox="0 -107 247 107"><g id="page1"><path fill="none" stroke="#000" stroke-linecap="round" stroke-linejoin="round" stroke-width="1.3" d="M.648-.648v-105m35 105v-105m35 105v-105m35 105v-105m35 105v-105m35 105v-105m35 105v-105m35 105v-105m-245 105h245m-245-35h245m-245-35h245m-245-35h245"/><path d="M21.285-17.723c.418 0 .797 0 .797-.738 0-2.328-1.316-4.203-3.805-4.203-2.308 0-4.16 1.992-4.16 4.422a4.44 4.44 0 0 0 4.461 4.46c2.567 0 3.504-1.773 3.504-2.288 0-.121-.043-.559-.66-.559-.375 0-.496.14-.617.438-.496 1.156-1.79 1.253-2.168 1.253-1.653 0-2.969-1.253-3.188-2.785zM15.47-18.82c.258-1.692 1.554-2.688 2.808-2.688 1.992 0 2.41 1.695 2.489 2.688zm.737-39.633c0-.617-.121-.813-.797-.813h-1.316c-.278 0-.797 0-.797.575 0 .578.52.578.797.578h.82v10.195c0 .36 0 .816.656.816.637 0 .637-.418.637-.992.477.535 1.215 1.114 2.328 1.114 2.113 0 3.965-1.891 3.965-4.422 0-2.45-1.672-4.403-3.746-4.403a3.57 3.57 0 0 0-2.547 1.078zm0 6.055c0-1.133 1.113-2.25 2.41-2.25 1.434 0 2.586 1.453 2.586 3.246 0 1.914-1.351 3.265-2.765 3.265-1.497 0-2.231-1.691-2.231-2.687zm0-41.055c0-.617-.121-.813-.797-.813h-1.316c-.278 0-.797 0-.797.575 0 .578.52.578.797.578h.82v10.195c0 .36 0 .816.656.816.637 0 .637-.417.637-.992.477.535 1.215 1.113 2.328 1.113 2.113 0 3.965-1.89 3.965-4.421 0-2.45-1.672-4.403-3.746-4.403a3.57 3.57 0 0 0-2.547 1.078zm0 6.055c0-1.133 1.113-2.25 2.41-2.25 1.434 0 2.586 1.453 2.586 3.246 0 1.914-1.351 3.265-2.765 3.265-1.497 0-2.231-1.691-2.231-2.687zM57.082-16.07c0-.52-.5-.52-.66-.52-.457 0-.535.16-.637.442-.437 1.093-1.414 1.21-1.89 1.21-1.692 0-3.126-1.414-3.126-3.265 0-1.016.575-3.305 3.184-3.305.54 0 .957.04 1.137.063.137.039.16.058.16.156.059.816.676.836.797.836.437 0 .812-.297.812-.836 0-1.375-2.007-1.375-2.886-1.375-3.403 0-4.5 2.789-4.5 4.46 0 2.43 1.851 4.423 4.242 4.423 2.668 0 3.367-1.969 3.367-2.29m-.758-42.382c0-.617-.12-.813-.797-.813h-1.316c-.277 0-.793 0-.793.575 0 .578.516.578.793.578h.82v3.308c-.32-.32-1.136-1-2.351-1-2.11 0-3.942 1.914-3.942 4.422 0 2.45 1.711 4.403 3.762 4.403 1.297 0 2.152-.778 2.531-1.215 0 .836 0 1.093.797 1.093h1.313c.277 0 .797 0 .797-.578 0-.574-.52-.574-.797-.574h-.817zm-1.293 7.57c0 1.114-.918 2.746-2.41 2.746-1.434 0-2.59-1.453-2.59-3.246 0-1.91 1.356-3.265 2.77-3.265 1.293 0 2.23 1.175 2.23 2.21zm-3.824-42.57c0-.617-.121-.813-.797-.813h-1.316c-.278 0-.797 0-.797.575 0 .578.52.578.797.578h.82v10.195c0 .36 0 .816.656.816.637 0 .637-.417.637-.992.477.535 1.215 1.113 2.328 1.113 2.113 0 3.965-1.89 3.965-4.421 0-2.45-1.672-4.403-3.746-4.403a3.57 3.57 0 0 0-2.547 1.078zm0 6.055c0-1.133 1.113-2.25 2.41-2.25 1.434 0 2.586 1.453 2.586 3.246 0 1.914-1.351 3.265-2.766 3.265-1.496 0-2.23-1.691-2.23-2.687zm36.711 67.871h2.41c.281 0 .797 0 .797-.578 0-.579-.516-.579-.797-.579h-2.41v-.996c0-1.55 1.394-1.55 2.031-1.55 0 .039.16.777.817.777a.78.78 0 0 0 .777-.797c0-1.137-1.512-1.137-1.812-1.137-1.512 0-3.106.856-3.106 2.63v1.073h-1.973c-.277 0-.816 0-.816.579 0 .578.52.578.797.578h1.992v6.273h-1.89c-.282 0-.797 0-.797.574 0 .578.515.578.796.578h5.079c.277 0 .796 0 .796-.578 0-.574-.52-.574-.796-.574h-1.895zm0-35h2.41c.281 0 .797 0 .797-.578 0-.579-.516-.579-.797-.579h-2.41v-.996c0-1.55 1.394-1.55 2.031-1.55 0 .039.16.777.817.777a.78.78 0 0 0 .777-.797c0-1.137-1.512-1.137-1.812-1.137-1.512 0-3.106.856-3.106 2.63v1.073h-1.973c-.277 0-.816 0-.816.578 0 .579.52.579.797.579h1.992v6.273h-1.89c-.282 0-.797 0-.797.574 0 .578.515.578.796.578h5.079c.277 0 .796 0 .796-.578 0-.574-.52-.574-.796-.574h-1.895zm0-35h2.41c.281 0 .797 0 .797-.579 0-.578-.516-.578-.797-.578h-2.41v-.996c0-1.55 1.394-1.55 2.031-1.55 0 .039.16.777.817.777a.78.78 0 0 0 .777-.797c0-1.137-1.512-1.137-1.812-1.137-1.512 0-3.106.856-3.106 2.63v1.073h-1.973c-.277 0-.816 0-.816.578 0 .579.52.579.797.579h1.992v6.273h-1.89c-.282 0-.797 0-.797.574 0 .578.515.578.796.578h5.079c.277 0 .796 0 .796-.578 0-.574-.52-.574-.796-.574h-1.895zm35 70h2.41c.281 0 .797 0 .797-.578 0-.579-.516-.579-.797-.579h-2.41v-.996c0-1.55 1.395-1.55 2.031-1.55 0 .039.16.777.817.777a.78.78 0 0 0 .777-.797c0-1.137-1.512-1.137-1.813-1.137-1.511 0-3.105.856-3.105 2.63v1.073h-1.973c-.281 0-.816 0-.816.579 0 .578.519.578.797.578h1.992v6.273h-1.891c-.281 0-.796 0-.796.574 0 .578.515.578.796.578h5.079c.277 0 .796 0 .796-.578 0-.574-.519-.574-.796-.574h-1.895zm0-35h2.41c.281 0 .797 0 .797-.578 0-.579-.516-.579-.797-.579h-2.41v-.996c0-1.55 1.395-1.55 2.031-1.55 0 .039.16.777.817.777a.78.78 0 0 0 .777-.797c0-1.137-1.512-1.137-1.813-1.137-1.511 0-3.105.856-3.105 2.63v1.073h-1.973c-.281 0-.816 0-.816.578 0 .579.519.579.797.579h1.992v6.273h-1.891c-.281 0-.796 0-.796.574 0 .578.515.578.796.578h5.079c.277 0 .796 0 .796-.578 0-.574-.519-.574-.796-.574h-1.895zm-1.711-38.926c0-.617-.121-.813-.797-.813h-1.316c-.278 0-.797 0-.797.575 0 .578.519.578.797.578h.82v10.195c0 .36 0 .816.656.816.637 0 .637-.417.637-.992.477.535 1.215 1.113 2.328 1.113 2.113 0 3.961-1.89 3.961-4.421 0-2.45-1.668-4.403-3.742-4.403a3.57 3.57 0 0 0-2.547 1.078zm0 6.055c0-1.133 1.113-2.25 2.41-2.25 1.434 0 2.586 1.453 2.586 3.246 0 1.914-1.351 3.265-2.765 3.265-1.497 0-2.231-1.691-2.231-2.687zm36.711 67.871h2.41c.281 0 .797 0 .797-.578 0-.579-.516-.579-.797-.579h-2.41v-.996c0-1.55 1.395-1.55 2.031-1.55 0 .039.16.777.817.777a.78.78 0 0 0 .777-.797c0-1.137-1.512-1.137-1.813-1.137-1.511 0-3.105.856-3.105 2.63v1.073h-1.973c-.281 0-.816 0-.816.579 0 .578.519.578.797.578h1.992v6.273h-1.891c-.281 0-.796 0-.796.574 0 .578.515.578.796.578h5.079c.277 0 .796 0 .796-.578 0-.574-.519-.574-.796-.574h-1.895zm3.324-35.028c0-1.515-1.133-3.11-3.82-3.11-.836 0-2.77 0-2.77 1.376 0 .539.379.836.817.836.121 0 .777-.04.797-.875 0-.102.019-.117.437-.16.238-.02.5-.02.738-.02.457 0 1.137 0 1.793.5.715.555.715 1.114.715 1.692-1.176.039-2.328.12-3.562.52-.996.335-2.27 1.054-2.27 2.405 0 1.414 1.254 2.61 3.106 2.61.636 0 1.871-.098 2.906-.817.398.66 1.394.7 2.152.7.477 0 .953 0 .953-.579 0-.578-.515-.578-.796-.578-.516 0-.915-.039-1.196-.16zm-1.293 3.028c0 .457 0 .875-.816 1.254-.695.336-1.633.336-1.692.336-1.175 0-2.031-.637-2.031-1.454 0-1.172 2.129-1.851 4.539-1.851zm1.293-38.028c0-1.515-1.133-3.11-3.82-3.11-.836 0-2.77 0-2.77 1.376 0 .539.379.836.817.836.121 0 .777-.04.797-.875 0-.102.019-.117.437-.16.238-.02.5-.02.738-.02.457 0 1.137 0 1.793.5.715.555.715 1.114.715 1.692-1.176.039-2.328.12-3.562.52-.996.335-2.27 1.054-2.27 2.405 0 1.414 1.254 2.61 3.106 2.61.636 0 1.871-.098 2.906-.817.398.66 1.394.7 2.152.7.477 0 .953 0 .953-.579 0-.578-.515-.578-.796-.578-.516 0-.915-.039-1.196-.16zm-1.293 3.028c0 .457 0 .875-.816 1.254-.695.335-1.633.335-1.692.335-1.175 0-2.031-.636-2.031-1.453 0-1.171 2.129-1.851 4.539-1.851zm36.336 68.804c.418 0 .797 0 .797-.738 0-2.328-1.316-4.203-3.805-4.203-2.308 0-4.16 1.992-4.16 4.422a4.44 4.44 0 0 0 4.461 4.46c2.567 0 3.504-1.773 3.504-2.288 0-.121-.043-.559-.66-.559-.375 0-.496.14-.617.438-.496 1.156-1.789 1.253-2.168 1.253-1.653 0-2.969-1.253-3.188-2.785zm-5.816-1.097c.258-1.692 1.554-2.688 2.808-2.688 1.993 0 2.411 1.695 2.489 2.688zm5.816-33.903c.418 0 .797 0 .797-.738 0-2.328-1.316-4.203-3.805-4.203-2.308 0-4.16 1.992-4.16 4.422a4.44 4.44 0 0 0 4.461 4.46c2.567 0 3.504-1.773 3.504-2.288 0-.121-.043-.559-.66-.559-.375 0-.496.14-.617.438-.496 1.156-1.789 1.254-2.168 1.254-1.653 0-2.969-1.254-3.188-2.786zm-5.816-1.097c.258-1.692 1.554-2.688 2.808-2.688 1.993 0 2.411 1.696 2.489 2.688zm.738-39.633c0-.617-.121-.813-.797-.813h-1.316c-.278 0-.797 0-.797.575 0 .578.519.578.797.578h.82v10.195c0 .36 0 .816.656.816.637 0 .637-.417.637-.992.477.535 1.215 1.113 2.328 1.113 2.113 0 3.961-1.89 3.961-4.421 0-2.45-1.668-4.403-3.742-4.403a3.57 3.57 0 0 0-2.547 1.078zm0 6.055c0-1.133 1.113-2.25 2.41-2.25 1.434 0 2.586 1.453 2.586 3.246 0 1.914-1.351 3.265-2.765 3.265-1.497 0-2.231-1.691-2.231-2.687zm40.035 67.843c0-1.515-1.133-3.11-3.82-3.11-.836 0-2.77 0-2.77 1.376 0 .539.379.836.817.836.121 0 .777-.04.797-.875 0-.102.019-.117.437-.16.238-.02.5-.02.738-.02.457 0 1.137 0 1.793.5.715.555.715 1.113.715 1.692-1.176.039-2.328.12-3.562.52-.996.335-2.27 1.054-2.27 2.405 0 1.414 1.254 2.61 3.106 2.61.636 0 1.871-.098 2.906-.817.398.66 1.394.7 2.152.7.477 0 .953 0 .953-.579 0-.578-.515-.578-.796-.578-.516 0-.915-.039-1.196-.16zm-1.293 3.028c0 .457 0 .875-.816 1.254-.695.335-1.633.335-1.692.335-1.175 0-2.031-.636-2.031-1.453 0-1.172 2.129-1.851 4.539-1.851zm1.293-38.028c0-1.515-1.133-3.11-3.82-3.11-.836 0-2.77 0-2.77 1.376 0 .539.379.836.817.836.121 0 .777-.04.797-.875 0-.102.019-.117.437-.16.238-.02.5-.02.738-.02.457 0 1.137 0 1.793.5.715.555.715 1.114.715 1.692-1.176.039-2.328.12-3.562.52-.996.335-2.27 1.054-2.27 2.405 0 1.414 1.254 2.61 3.106 2.61.636 0 1.871-.098 2.906-.817.398.66 1.394.7 2.152.7.477 0 .953 0 .953-.579 0-.578-.515-.578-.796-.578-.516 0-.915-.039-1.196-.16zm-1.293 3.028c0 .457 0 .875-.816 1.254-.695.336-1.633.336-1.692.336-1.175 0-2.031-.637-2.031-1.454 0-1.172 2.129-1.851 4.539-1.851zm1.336-36.196c.418 0 .797 0 .797-.738 0-2.328-1.316-4.203-3.805-4.203-2.308 0-4.16 1.992-4.16 4.422a4.44 4.44 0 0 0 4.461 4.46c2.567 0 3.504-1.773 3.504-2.288 0-.121-.043-.559-.66-.559-.375 0-.496.14-.617.438-.496 1.156-1.789 1.254-2.168 1.254-1.653 0-2.969-1.254-3.188-2.786zm-5.816-1.097c.258-1.692 1.554-2.688 2.808-2.688 1.993 0 2.411 1.695 2.489 2.688z"/></g></svg>