<svg xmlns="http://www.w3.org/2000/svg" width="584pt" height="385pt" viewBox="0 -385 584 385"><g id="page1"><path fill="#ffb2ff" d="M10.004-8.953h5.953c1.633 0 3.2.648 4.355 1.805l4.895 4.894a2.553 2.553 0 0 0 3.61 0l4.894-4.894a6.16 6.16 0 0 1 4.355-1.805h524.141a2.55 2.55 0 0 0 2.551-2.55v-369.188a2.55 2.55 0 0 0-2.551-2.551H38.067a6.16 6.16 0 0 0-4.356 1.804l-4.895 4.895a2.554 2.554 0 0 1-3.609 0l-4.895-4.895a6.16 6.16 0 0 0-4.355-1.804H4.051a2.55 2.55 0 0 0-2.551 2.551v369.187c0 1.41 1.14 2.55 2.55 2.55z"/><path fill="none" stroke="#b200b2" stroke-linecap="round" stroke-linejoin="round" stroke-width="3" d="M10.004-8.953h5.953c1.633 0 3.2.648 4.355 1.805l4.895 4.894a2.553 2.553 0 0 0 3.61 0l4.894-4.894a6.16 6.16 0 0 1 4.355-1.805h524.141a2.55 2.55 0 0 0 2.551-2.55v-369.188a2.55 2.55 0 0 0-2.551-2.551H38.067a6.16 6.16 0 0 0-4.356 1.804l-4.895 4.895a2.554 2.554 0 0 1-3.609 0l-4.895-4.895a6.16 6.16 0 0 0-4.355-1.804H4.051a2.55 2.55 0 0 0-2.551 2.551v369.187c0 1.41 1.14 2.55 2.55 2.55z"/><path fill="#ffffb2" d="M35.516-25.96h5.953c1.633 0 3.199.648 4.355 1.804l4.895 4.894a2.553 2.553 0 0 0 3.61 0l4.894-4.894a6.16 6.16 0 0 1 4.355-1.805h507.133a2.55 2.55 0 0 0 2.551-2.55v-248.407a2.55 2.55 0 0 0-2.551-2.551H63.578a6.17 6.17 0 0 0-4.355 1.801l-4.895 4.898a2.55 2.55 0 0 1-3.61 0l-4.894-4.898a6.17 6.17 0 0 0-4.355-1.801H29.562a2.55 2.55 0 0 0-2.55 2.551v248.406c0 1.41 1.14 2.551 2.55 2.551z"/><path fill="none" stroke="#b2b200" stroke-linecap="round" stroke-linejoin="round" stroke-width="3" d="M35.516-25.96h5.953c1.633 0 3.199.648 4.355 1.804l4.895 4.894a2.553 2.553 0 0 0 3.61 0l4.894-4.894a6.16 6.16 0 0 1 4.355-1.805h507.133a2.55 2.55 0 0 0 2.551-2.55v-248.407a2.55 2.55 0 0 0-2.551-2.551H63.578a6.17 6.17 0 0 0-4.355 1.801l-4.895 4.898a2.55 2.55 0 0 1-3.61 0l-4.894-4.898a6.17 6.17 0 0 0-4.355-1.801H29.562a2.55 2.55 0 0 0-2.55 2.551v248.406c0 1.41 1.14 2.551 2.55 2.551z"/><path fill="#ffd9b2" d="M61.027-42.969h5.954a6.16 6.16 0 0 1 4.355 1.805l4.895 4.895a2.553 2.553 0 0 0 3.609 0l4.894-4.895a6.16 6.16 0 0 1 4.356-1.805h490.125a2.55 2.55 0 0 0 2.551-2.55v-47.645c0-1.41-1.145-2.55-2.551-2.55H89.09a6.16 6.16 0 0 0-4.356 1.804l-4.894 4.894a2.553 2.553 0 0 1-3.61 0l-4.894-4.894a6.16 6.16 0 0 0-4.355-1.805H55.074c-1.41 0-2.55 1.14-2.55 2.55v47.646c0 1.41 1.14 2.55 2.55 2.55z"/><path fill="none" stroke="#b25900" stroke-linecap="round" stroke-linejoin="round" stroke-width="3" d="M61.027-42.969h5.954a6.16 6.16 0 0 1 4.355 1.805l4.895 4.895a2.553 2.553 0 0 0 3.609 0l4.894-4.895a6.16 6.16 0 0 1 4.356-1.805h490.125a2.55 2.55 0 0 0 2.551-2.55v-47.645c0-1.41-1.145-2.55-2.551-2.55H89.09a6.16 6.16 0 0 0-4.356 1.804l-4.894 4.894a2.553 2.553 0 0 1-3.61 0l-4.894-4.894a6.16 6.16 0 0 0-4.355-1.805H55.074c-1.41 0-2.55 1.14-2.55 2.55v47.646c0 1.41 1.14 2.55 2.55 2.55z"/><path fill="#ffd9b2" d="M61.027-149.965h5.954a6.16 6.16 0 0 1 4.355 1.805l4.895 4.894c.996 1 2.613 1 3.609 0l4.894-4.894a6.16 6.16 0 0 1 4.356-1.805h490.125a2.55 2.55 0 0 0 2.551-2.551v-47.644a2.55 2.55 0 0 0-2.551-2.551H89.09c-1.633 0-3.2.648-4.356 1.805l-4.894 4.894a2.553 2.553 0 0 1-3.61 0l-4.894-4.894a6.16 6.16 0 0 0-4.355-1.805H55.074a2.55 2.55 0 0 0-2.55 2.551v47.644a2.55 2.55 0 0 0 2.55 2.551z"/><path fill="none" stroke="#b25900" stroke-linecap="round" stroke-linejoin="round" stroke-width="3" d="M61.027-149.965h5.954a6.16 6.16 0 0 1 4.355 1.805l4.895 4.894c.996 1 2.613 1 3.609 0l4.894-4.894a6.16 6.16 0 0 1 4.356-1.805h490.125a2.55 2.55 0 0 0 2.551-2.551v-47.644a2.55 2.55 0 0 0-2.551-2.551H89.09c-1.633 0-3.2.648-4.356 1.805l-4.894 4.894a2.553 2.553 0 0 1-3.61 0l-4.894-4.894a6.16 6.16 0 0 0-4.355-1.805H55.074a2.55 2.55 0 0 0-2.55 2.551v47.644a2.55 2.55 0 0 0 2.55 2.551z"/><path fill="#b2ffb2" d="m76.727-225.902 9.504 8.843a16.22 16.22 0 0 0 11.05 4.344h119.891c4.098 0 8.047-1.551 11.047-4.344l19.008-17.683a5.937 5.937 0 0 0 0-8.692l-19.008-17.683a16.22 16.22 0 0 0-11.047-4.348H97.282a16.23 16.23 0 0 0-11.051 4.348l-19.008 17.683a5.94 5.94 0 0 0 0 8.692z"/><path fill="none" stroke="#00b200" stroke-linecap="round" stroke-linejoin="round" stroke-width="3" d="m76.727-225.902 9.504 8.843a16.22 16.22 0 0 0 11.05 4.344h119.891c4.098 0 8.047-1.551 11.047-4.344l19.008-17.683a5.937 5.937 0 0 0 0-8.692l-19.008-17.683a16.22 16.22 0 0 0-11.047-4.348H97.282a16.23 16.23 0 0 0-11.051 4.348l-19.008 17.683a5.94 5.94 0 0 0 0 8.692z"/><path fill="#b2ffb2" d="m165.547-309.039 10.43 14.398a12.5 12.5 0 0 0 10.121 5.168h321.531c4.004 0 7.766-1.922 10.117-5.168l20.863-28.797a8.8 8.8 0 0 0 0-10.332l-20.863-28.796a12.49 12.49 0 0 0-10.117-5.168H186.098c-4.008 0-7.77 1.921-10.121 5.168l-20.864 28.796a8.815 8.815 0 0 0 0 10.332z"/><path fill="none" stroke="#00b200" stroke-linecap="round" stroke-linejoin="round" stroke-width="3" d="m165.547-309.039 10.43 14.398a12.5 12.5 0 0 0 10.121 5.168h321.531c4.004 0 7.766-1.922 10.117-5.168l20.863-28.797a8.8 8.8 0 0 0 0-10.332l-20.863-28.796a12.49 12.49 0 0 0-10.117-5.168H186.098c-4.008 0-7.77 1.921-10.121 5.168l-20.864 28.796a8.815 8.815 0 0 0 0 10.332z"/><path fill="#d9b2b2" d="M166.965-328.605c0 14.414 11.262 26.375 25.508 26.375h65.093c14.25 0 25.512-11.961 25.512-26.375 0-14.411-11.262-26.372-25.512-26.372h-65.093c-14.246 0-25.508 11.961-25.508 26.372"/><path fill="none" stroke="#590000" stroke-linecap="round" stroke-linejoin="round" stroke-width="3" d="M166.965-328.605c0 14.414 11.262 26.375 25.508 26.375h65.093c14.25 0 25.512-11.961 25.512-26.375 0-14.411-11.262-26.372-25.512-26.372h-65.093c-14.246 0-25.508 11.961-25.508 26.372"/><path fill="#d9b2b2" d="M403.621-328.605c0 14.414 11.262 26.375 25.512 26.375h72.117c14.246 0 25.512-11.961 25.512-26.375 0-14.411-11.266-26.372-25.512-26.372h-72.117c-14.25 0-25.512 11.961-25.512 26.372"/><path fill="none" stroke="#590000" stroke-linecap="round" stroke-linejoin="round" stroke-width="3" d="M403.621-328.605c0 14.414 11.262 26.375 25.512 26.375h72.117c14.246 0 25.512-11.961 25.512-26.375 0-14.411-11.266-26.372-25.512-26.372h-72.117c-14.25 0-25.512 11.961-25.512 26.372"/><path d="M73.223-69.781c0-1.29 0-2.246-1.051-3.18-.836-.762-1.91-1.098-2.961-1.098-1.961 0-3.469 1.293-3.469 2.844 0 .692.457 1.028 1.008 1.028.57 0 .977-.407.977-.981 0-.98-.86-.98-1.22-.98.552-1 1.7-1.43 2.653-1.43 1.102 0 2.512.906 2.512 3.055v.957c-4.805.074-6.621 2.082-6.621 3.918 0 1.89 2.199 2.488 3.656 2.488 1.578 0 2.652-.957 3.106-2.106.097 1.125.835 1.985 1.867 1.985.5 0 1.886-.336 1.886-2.246v-1.34h-.527v1.34c0 1.363-.57 1.554-.906 1.554-.91 0-.91-1.27-.91-1.625zm-1.551 3.012c0 2.34-1.746 3.128-2.774 3.128-1.171 0-2.148-.859-2.148-2.007 0-3.153 4.063-3.438 4.922-3.489zm13.18-4.661c.214-.523.62-1.554 2.148-1.578v-.691c-.691.047-1.027.047-1.766.047-.503 0-.863 0-1.96-.047v.691c1.003.047 1.12.766 1.12 1.027 0 .215-.046.337-.167.622l-2.438 6.168-2.676-6.739c-.117-.336-.14-.336-.14-.457 0-.62.906-.62 1.336-.62v-.692c-.598.047-1.84.047-2.485.047-.789 0-.836 0-2.293-.047v.691c1.336 0 1.578.098 1.863.836l3.418 8.555c.118.336.165.457.454.457.168 0 .312-.05.476-.457zm10.472 1.649c0-1.29 0-2.246-1.05-3.18-.837-.762-1.915-1.098-2.965-1.098-1.957 0-3.465 1.293-3.465 2.844 0 .692.453 1.028 1.004 1.028.574 0 .98-.407.98-.981 0-.98-.86-.98-1.219-.98.551-1 1.696-1.43 2.653-1.43 1.097 0 2.507.906 2.507 3.055v.957c-4.8.074-6.617 2.082-6.617 3.918 0 1.89 2.2 2.488 3.657 2.488 1.574 0 2.652-.957 3.105-2.106.094 1.125.836 1.985 1.863 1.985.504 0 1.887-.336 1.887-2.246v-1.34h-.523v1.34c0 1.363-.575 1.554-.907 1.554-.91 0-.91-1.27-.91-1.625zM93.77-66.77c0 2.34-1.742 3.128-2.769 3.128-1.172 0-2.152-.859-2.152-2.007 0-3.153 4.062-3.438 4.921-3.489zm14.664-2.437c0-2.223 0-2.89-.551-3.656-.692-.934-1.813-1.075-2.625-1.075-2.32 0-3.227 1.985-3.418 2.461h-.027v-2.46l-3.25.261v.692c1.625 0 1.82.168 1.82 1.34v6.476c0 1.074-.266 1.074-1.82 1.074v.696c.624-.051 1.914-.051 2.582-.051.695 0 1.984 0 2.605.05v-.695c-1.531 0-1.816 0-1.816-1.074v-4.445c0-2.508 1.648-3.848 3.129-3.848 1.484 0 1.82 1.219 1.82 2.676v5.617c0 1.074-.266 1.074-1.82 1.074v.696c.625-.051 1.914-.051 2.582-.051.695 0 1.984 0 2.605.05v-.695c-1.195 0-1.793 0-1.816-.715zm11.472-3.824c.215-.262.215-.309.215-.406 0-.262-.168-.262-.574-.262h-7.504l-.262 3.8h.524c.144-2.437.597-3.324 3.203-3.324h2.773l-6.836 9.395c0 .43.047.43.575.43h7.789l.382-4.399h-.527c-.215 2.723-.621 3.871-3.465 3.871h-2.89zm10.516 3.25c0-1.29 0-2.246-1.051-3.18-.836-.762-1.91-1.098-2.961-1.098-1.961 0-3.465 1.293-3.465 2.844 0 .692.453 1.028 1.004 1.028.574 0 .981-.407.981-.981 0-.98-.864-.98-1.219-.98.547-1 1.695-1.43 2.648-1.43 1.102 0 2.512.906 2.512 3.055v.957c-4.805.074-6.617 2.082-6.617 3.918 0 1.89 2.195 2.488 3.652 2.488 1.578 0 2.657-.957 3.11-2.106.093 1.125.836 1.985 1.863 1.985.5 0 1.887-.336 1.887-2.246v-1.34h-.524v1.34c0 1.363-.574 1.554-.91 1.554-.91 0-.91-1.27-.91-1.625zm-1.551 3.012c0 2.34-1.742 3.128-2.773 3.128-1.168 0-2.149-.859-2.149-2.007 0-3.153 4.063-3.438 4.922-3.489zm-81.148-53.012c0-1.289 0-2.246-1.051-3.18-.836-.762-1.91-1.098-2.961-1.098-1.961 0-3.469 1.293-3.469 2.844 0 .692.457 1.027 1.008 1.027.57 0 .977-.406.977-.98 0-.98-.86-.98-1.22-.98.552-1 1.7-1.43 2.653-1.43 1.102 0 2.512.906 2.512 3.055v.957c-4.805.074-6.621 2.082-6.621 3.918 0 1.89 2.199 2.488 3.656 2.488 1.578 0 2.652-.957 3.105-2.106.098 1.125.836 1.985 1.868 1.985.5 0 1.886-.336 1.886-2.246v-1.34h-.527v1.34c0 1.363-.57 1.554-.906 1.554-.91 0-.91-1.269-.91-1.625zm-1.551 3.011c0 2.34-1.746 3.129-2.774 3.129-1.171 0-2.148-.859-2.148-2.007 0-3.153 4.063-3.442 4.922-3.489zm8.141-13.214-3.325.261v.696c1.625 0 1.817.168 1.817 1.336v12.523c0 1.074-.262 1.074-1.817 1.074v.696c.668-.051 1.84-.051 2.559-.051.715 0 1.91 0 2.578.051v-.696c-1.527 0-1.812 0-1.812-1.074zm6.402 6.976h3.37v-.691h-3.37v-4.399h-.528c-.023 2.246-.882 4.543-3.058 4.614v.476h2.031v6.645c0 2.652 1.77 3.203 3.035 3.203 1.508 0 2.297-1.481 2.297-3.203v-1.364h-.527v1.317c0 1.719-.692 2.722-1.625 2.722-1.625 0-1.625-2.222-1.625-2.628zm9.075 4.039c0-2.316.956-4.492 2.796-4.492.191 0 .238 0 .336.023-.191.098-.574.243-.574.883 0 .696.55.957.933.957.477 0 .953-.308.953-.957 0-.715-.644-1.383-1.671-1.383-2.032 0-2.723 2.196-2.868 2.653h-.023v-2.653l-3.203.262v.692c1.625 0 1.816.168 1.816 1.339v6.477c0 1.074-.262 1.074-1.816 1.074v.696c.668-.051 1.984-.051 2.699-.051.644 0 2.344 0 2.894.051v-.696h-.48c-1.742 0-1.793-.261-1.793-1.121zm9.269-9.152c0-.621-.504-1.168-1.172-1.168-.621 0-1.145.5-1.145 1.144 0 .715.57 1.172 1.145 1.172.742 0 1.172-.621 1.172-1.148m-3.297 4.445v.692c1.527 0 1.742.144 1.742 1.316v6.5c0 1.074-.262 1.074-1.817 1.074v.696c.672-.051 1.817-.051 2.512-.051.262 0 1.649 0 2.461.051v-.696c-1.554 0-1.648-.121-1.648-1.051v-8.793zm22.773 4.469c0-2.223 0-2.891-.55-3.656-.696-.934-1.817-1.075-2.63-1.075-1.984 0-2.988 1.434-3.37 2.364-.333-1.84-1.626-2.364-3.13-2.364-2.316 0-3.226 1.985-3.418 2.461h-.023v-2.461l-3.25.262v.692c1.625 0 1.817.168 1.817 1.339v6.477c0 1.074-.262 1.074-1.817 1.074v.696c.621-.051 1.914-.051 2.582-.051.692 0 1.985 0 2.606.051v-.696c-1.532 0-1.817 0-1.817-1.074v-4.445c0-2.508 1.649-3.848 3.13-3.848 1.483 0 1.816 1.219 1.816 2.676v5.617c0 1.074-.262 1.074-1.817 1.074v.696c.621-.051 1.914-.051 2.582-.051.692 0 1.98 0 2.606.051v-.696c-1.532 0-1.817 0-1.817-1.074v-4.445c0-2.508 1.649-3.848 3.13-3.848s1.816 1.219 1.816 2.676v5.617c0 1.074-.262 1.074-1.817 1.074v.696c.621-.051 1.914-.051 2.582-.051.692 0 1.98 0 2.606.051v-.696c-1.196 0-1.793 0-1.817-.715zm11.52.262c.523 0 .574 0 .574-.453 0-2.415-1.293-4.661-4.184-4.661-2.726 0-4.828 2.461-4.828 5.426 0 3.153 2.438 5.473 5.09 5.473 2.844 0 3.922-2.582 3.922-3.082 0-.145-.121-.242-.266-.242-.191 0-.242.121-.285.242-.625 2.008-2.223 2.554-3.226 2.554s-3.418-.667-3.418-4.804v-.453zm-6.598-.453c.191-3.75 2.297-4.18 2.965-4.18 2.555 0 2.699 3.367 2.723 4.18zm18.477.191c0-2.223 0-2.891-.551-3.656-.692-.934-1.813-1.075-2.625-1.075-2.32 0-3.227 1.985-3.418 2.461h-.027v-2.461l-3.25.262v.692c1.625 0 1.82.168 1.82 1.339v6.477c0 1.074-.266 1.074-1.82 1.074v.696c.625-.051 1.914-.051 2.582-.051.695 0 1.984 0 2.605.051v-.696c-1.531 0-1.816 0-1.816-1.074v-4.445c0-2.508 1.648-3.848 3.129-3.848 1.484 0 1.82 1.219 1.82 2.676v5.617c0 1.074-.266 1.074-1.82 1.074v.696c.625-.051 1.914-.051 2.582-.051.695 0 1.984 0 2.605.051v-.696c-1.195 0-1.793 0-1.816-.715zm5.781-3.801h3.371v-.691h-3.371v-4.399h-.527c-.024 2.246-.883 4.543-3.059 4.614v.476h2.031v6.645c0 2.652 1.77 3.203 3.035 3.203 1.508 0 2.297-1.481 2.297-3.203v-1.364h-.527v1.317c0 1.719-.692 2.722-1.625 2.722-1.625 0-1.625-2.222-1.625-2.628zm9.242-5.113c0-.621-.5-1.168-1.168-1.168-.625 0-1.148.5-1.148 1.144 0 .715.574 1.172 1.148 1.172.738 0 1.168-.621 1.168-1.148m-3.297 4.445v.692c1.528 0 1.746.144 1.746 1.316v6.5c0 1.074-.265 1.074-1.816 1.074v.696c.668-.051 1.816-.051 2.508-.051.261 0 1.648 0 2.461.051v-.696c-1.551 0-1.649-.121-1.649-1.051v-8.793zm10.035 1.121c0-.64-.547-1.144-1.144-1.144-.696 0-1.172.551-1.172 1.144 0 .719.598 1.172 1.148 1.172.645 0 1.168-.5 1.168-1.172m0 7.985c0-.645-.547-1.149-1.144-1.149-.696 0-1.172.551-1.172 1.149a1.17 1.17 0 0 0 1.148 1.172c.645 0 1.168-.504 1.168-1.172m-71.859-65.938c0-.43 0-.551-.238-.551-.192 0-.645.528-.813.743-.738-.598-1.48-.743-2.246-.743-2.89 0-3.75 1.579-3.75 2.891 0 .266 0 1.102.906 1.938.766.667 1.578.835 2.68 1.05 1.313.262 1.625.336 2.219.813.43.359.742.883.742 1.554 0 1.028-.598 2.172-2.7 2.172-1.577 0-2.722-.906-3.25-3.297-.097-.429-.097-.453-.12-.476-.047-.098-.141-.098-.215-.098-.262 0-.262.121-.262.551v3.25c0 .43 0 .551.238.551.121 0 .145-.024.551-.528.117-.167.117-.214.477-.597.906 1.125 2.199 1.125 2.605 1.125 2.508 0 3.75-1.387 3.75-3.274 0-1.293-.785-2.058-1.004-2.269-.86-.742-1.504-.887-3.082-1.176-.715-.141-2.46-.476-2.46-1.91 0-.738.503-1.84 2.652-1.84 2.605 0 2.75 2.223 2.796 2.965.024.191.192.191.262.191.262 0 .262-.121.262-.55zm10.687 3.727c0-1.289 0-2.246-1.05-3.18-.836-.762-1.91-1.098-2.965-1.098-1.957 0-3.465 1.293-3.465 2.844 0 .692.457 1.027 1.004 1.027.574 0 .98-.406.98-.98 0-.98-.859-.98-1.218-.98.55-1 1.699-1.43 2.652-1.43 1.102 0 2.508.906 2.508 3.055v.957c-4.801.074-6.617 2.082-6.617 3.918 0 1.89 2.199 2.488 3.656 2.488 1.578 0 2.652-.957 3.105-2.106.098 1.125.836 1.985 1.864 1.985.504 0 1.89-.336 1.89-2.246v-1.34h-.527v1.34c0 1.363-.574 1.554-.906 1.554-.91 0-.91-1.269-.91-1.625zm-1.554 3.011c0 2.34-1.742 3.129-2.77 3.129-1.172 0-2.152-.859-2.152-2.007 0-3.153 4.062-3.442 4.922-3.489zm8.141-13.214-3.32.261v.696c1.624 0 1.816.168 1.816 1.336v12.523c0 1.074-.262 1.074-1.817 1.074v.696c.668-.051 1.84-.051 2.555-.051.719 0 1.914 0 2.582.051v-.696c-1.528 0-1.817 0-1.817-1.074zm6.406 6.976h3.367v-.691h-3.367v-4.399h-.528c-.023 2.246-.882 4.543-3.058 4.614v.476h2.03v6.645c0 2.652 1.77 3.203 3.036 3.203 1.504 0 2.293-1.481 2.293-3.203v-1.364h-.523v1.317c0 1.719-.696 2.722-1.625 2.722-1.625 0-1.625-2.222-1.625-2.628zm14.308 3.227c0-1.289 0-2.246-1.051-3.18-.835-.762-1.914-1.098-2.964-1.098-1.957 0-3.465 1.293-3.465 2.844 0 .692.453 1.027 1.004 1.027.574 0 .98-.406.98-.98 0-.98-.859-.98-1.219-.98.551-1 1.696-1.43 2.653-1.43 1.097 0 2.508.906 2.508 3.055v.957c-4.801.074-6.618 2.082-6.618 3.918 0 1.89 2.2 2.488 3.657 2.488 1.574 0 2.652-.957 3.105-2.106.094 1.125.836 1.985 1.863 1.985.504 0 1.887-.336 1.887-2.246v-1.34h-.523v1.34c0 1.363-.575 1.554-.907 1.554-.91 0-.91-1.269-.91-1.625zm-1.554 3.011c0 2.34-1.743 3.129-2.774 3.129-1.168 0-2.148-.859-2.148-2.007 0-3.153 4.062-3.442 4.922-3.489zm-61.934-69.437c0-.434 0-.551-.238-.551-.192 0-.645.524-.813.742-.738-.597-1.48-.742-2.246-.742-2.89 0-3.75 1.578-3.75 2.891 0 .265 0 1.101.906 1.937.766.668 1.578.836 2.68 1.051 1.313.262 1.625.332 2.219.813.43.359.742.882.742 1.55 0 1.032-.598 2.176-2.7 2.176-1.577 0-2.722-.906-3.25-3.297-.097-.429-.097-.453-.12-.476-.047-.098-.141-.098-.215-.098-.262 0-.262.121-.262.551v3.25c0 .43 0 .551.238.551.121 0 .145-.024.551-.528.117-.168.117-.215.477-.597.906 1.125 2.199 1.125 2.605 1.125 2.508 0 3.75-1.387 3.75-3.274 0-1.293-.785-2.058-1.004-2.273-.86-.739-1.504-.883-3.082-1.172-.715-.141-2.46-.477-2.46-1.91 0-.739.503-1.84 2.652-1.84 2.605 0 2.75 2.223 2.797 2.965.023.191.19.191.261.191.262 0 .262-.121.262-.551zm10.516 4.562c.527 0 .574 0 .574-.453 0-2.414-1.29-4.66-4.184-4.66-2.722 0-4.824 2.461-4.824 5.426 0 3.152 2.438 5.473 5.09 5.473 2.844 0 3.918-2.582 3.918-3.086 0-.145-.121-.239-.262-.239-.191 0-.242.121-.289.239-.621 2.007-2.219 2.558-3.227 2.558-1 0-3.414-.668-3.414-4.804v-.454zm-6.594-.453c.191-3.754 2.293-4.183 2.96-4.183 2.56 0 2.704 3.371 2.727 4.183zm36.695 9.942c-1.527 0-1.812 0-1.812-1.078v-4.157c.43.598 1.406 1.532 2.937 1.532 2.75 0 5.16-2.321 5.16-5.403 0-3.035-2.246-5.379-4.847-5.379-2.106 0-3.227 1.508-3.301 1.602v-1.602l-3.32.266v.691c1.671 0 1.816.168 1.816 1.219v11.231c0 1.078-.266 1.078-1.817 1.078v.691c.622-.047 1.91-.047 2.583-.047.691 0 1.98 0 2.601.047zm-1.812-11.567c0-.453 0-.48.261-.859a3.44 3.44 0 0 1 2.793-1.531c1.793 0 3.227 2.175 3.227 4.851 0 2.844-1.625 4.922-3.465 4.922a2.8 2.8 0 0 1-1.91-.762c-.55-.55-.906-1.031-.906-1.699zm13.117-7.097c0-.621-.5-1.172-1.172-1.172-.621 0-1.145.504-1.145 1.148 0 .715.575 1.172 1.145 1.172.742 0 1.172-.625 1.172-1.148m-3.297 4.445v.691c1.527 0 1.742.145 1.742 1.317v6.5c0 1.074-.262 1.074-1.812 1.074v.691c.668-.046 1.812-.046 2.507-.046.262 0 1.649 0 2.461.046v-.691c-1.554 0-1.648-.121-1.648-1.051v-8.797zm14.891 4.73c.527 0 .574 0 .574-.453 0-2.414-1.289-4.66-4.184-4.66-2.722 0-4.824 2.461-4.824 5.426 0 3.152 2.437 5.473 5.09 5.473 2.844 0 3.918-2.582 3.918-3.086 0-.145-.121-.239-.262-.239-.191 0-.242.121-.285.239-.625 2.007-2.223 2.558-3.231 2.558-1 0-3.414-.668-3.414-4.804v-.454zm-6.594-.453c.191-3.754 2.293-4.183 2.961-4.183 2.558 0 2.703 3.371 2.726 4.183zm11.855-3.609h3.371v-.691h-3.371v-4.399h-.523c-.024 2.246-.887 4.539-3.059 4.613v.477h2.032v6.644c0 2.653 1.765 3.204 3.035 3.204 1.504 0 2.293-1.485 2.293-3.204v-1.363h-.528v1.317c0 1.718-.691 2.722-1.625 2.722-1.625 0-1.625-2.222-1.625-2.629zm9.078 4.039c0-2.316.957-4.492 2.793-4.492.196 0 .243 0 .336.023-.191.098-.574.239-.574.883 0 .695.551.957.934.957.476 0 .957-.312.957-.957 0-.715-.645-1.387-1.672-1.387-2.035 0-2.727 2.2-2.871 2.657h-.024v-2.657l-3.203.266v.691c1.625 0 1.821.168 1.821 1.34v6.477c0 1.074-.266 1.074-1.821 1.074v.691c.672-.046 1.985-.046 2.703-.046.645 0 2.34 0 2.891.046v-.691h-.477c-1.746 0-1.793-.262-1.793-1.121zm14.332-.812c0-1.29 0-2.247-1.05-3.18-.836-.762-1.91-1.098-2.965-1.098-1.957 0-3.465 1.289-3.465 2.844 0 .691.453 1.027 1.004 1.027.574 0 .98-.406.98-.98 0-.981-.859-.981-1.218-.981.55-1.004 1.699-1.433 2.652-1.433 1.102 0 2.508.91 2.508 3.058v.957c-4.801.071-6.617 2.078-6.617 3.918 0 1.891 2.199 2.489 3.656 2.489 1.578 0 2.652-.957 3.105-2.106.098 1.125.836 1.985 1.864 1.985.503 0 1.89-.336 1.89-2.247v-1.339h-.527v1.339c0 1.364-.574 1.555-.906 1.555-.911 0-.911-1.269-.911-1.625zm-1.554 3.011c0 2.34-1.742 3.129-2.77 3.129-1.172 0-2.152-.859-2.152-2.008 0-3.152 4.062-3.441 4.922-3.488zm28.965-2.437c0-2.223 0-2.891-.551-3.657-.692-.933-1.813-1.078-2.625-1.078-1.985 0-2.988 1.438-3.371 2.368-.336-1.84-1.625-2.368-3.129-2.368-2.32 0-3.227 1.985-3.418 2.465h-.027v-2.465l-3.25.266v.691c1.625 0 1.82.168 1.82 1.34v6.477c0 1.074-.266 1.074-1.82 1.074v.691c.625-.046 1.914-.046 2.582-.046.695 0 1.984 0 2.605.046v-.691c-1.531 0-1.816 0-1.816-1.074v-4.446c0-2.507 1.648-3.847 3.129-3.847 1.484 0 1.82 1.219 1.82 2.676v5.617c0 1.074-.266 1.074-1.82 1.074v.691c.625-.046 1.914-.046 2.582-.046.695 0 1.984 0 2.605.046v-.691c-1.531 0-1.816 0-1.816-1.074v-4.446c0-2.507 1.648-3.847 3.129-3.847 1.484 0 1.82 1.219 1.82 2.676v5.617c0 1.074-.266 1.074-1.82 1.074v.691c.625-.046 1.914-.046 2.582-.046.695 0 1.984 0 2.605.046v-.691c-1.195 0-1.793 0-1.816-.715zm11.589-.574c0-1.29 0-2.247-1.05-3.18-.836-.762-1.91-1.098-2.965-1.098-1.957 0-3.465 1.289-3.465 2.844 0 .691.453 1.027 1.004 1.027.574 0 .98-.406.98-.98 0-.981-.859-.981-1.218-.981.55-1.004 1.699-1.433 2.652-1.433 1.102 0 2.508.91 2.508 3.058v.957c-4.801.071-6.617 2.078-6.617 3.918 0 1.891 2.199 2.489 3.656 2.489 1.578 0 2.652-.957 3.105-2.106.098 1.125.836 1.985 1.864 1.985.503 0 1.89-.336 1.89-2.247v-1.339h-.527v1.339c0 1.364-.574 1.555-.906 1.555-.911 0-.911-1.269-.911-1.625zm-1.554 3.011c0 2.34-1.742 3.129-2.77 3.129-1.172 0-2.152-.859-2.152-2.008 0-3.152 4.062-3.441 4.922-3.488zm8.023-2.199c0-2.316.953-4.492 2.793-4.492.192 0 .238 0 .336.023-.191.098-.574.239-.574.883 0 .695.551.957.933.957.477 0 .958-.312.958-.957 0-.715-.649-1.387-1.676-1.387-2.032 0-2.723 2.2-2.867 2.657h-.024v-2.657l-3.203.266v.691c1.625 0 1.816.168 1.816 1.34v6.477c0 1.074-.261 1.074-1.816 1.074v.691c.672-.046 1.984-.046 2.699-.046.649 0 2.344 0 2.895.046v-.691h-.481c-1.742 0-1.789-.262-1.789-1.121zm9.098 0c0-2.316.957-4.492 2.797-4.492.191 0 .238 0 .336.023-.192.098-.575.239-.575.883 0 .695.547.957.93.957.481 0 .957-.312.957-.957 0-.715-.644-1.387-1.672-1.387-2.031 0-2.722 2.2-2.867 2.657h-.023v-2.657l-3.203.266v.691c1.625 0 1.816.168 1.816 1.34v6.477c0 1.074-.266 1.074-1.816 1.074v.691c.668-.046 1.984-.046 2.699-.046.644 0 2.344 0 2.89.046v-.691h-.476c-1.742 0-1.793-.262-1.793-1.121zm16.078.453c0-3.082-2.34-5.543-5.113-5.543-2.867 0-5.137 2.531-5.137 5.543 0 3.059 2.387 5.356 5.113 5.356 2.821 0 5.137-2.344 5.137-5.356m-5.113 4.828c-.883 0-1.961-.383-2.653-1.554-.644-1.075-.668-2.485-.668-3.489 0-.91 0-2.367.739-3.441a3.06 3.06 0 0 1 2.558-1.41c.934 0 1.938.429 2.578 1.363.743 1.098.743 2.605.743 3.488 0 .836 0 2.321-.622 3.442-.667 1.148-1.765 1.601-2.675 1.601m16.48-5.519c0-2.223 0-2.891-.551-3.657-.695-.933-1.816-1.078-2.629-1.078-2.316 0-3.226 1.985-3.417 2.465h-.024v-2.465l-3.25.266v.691c1.625 0 1.816.168 1.816 1.34v6.477c0 1.074-.261 1.074-1.816 1.074v.691c.621-.046 1.914-.046 2.582-.046.692 0 1.984 0 2.606.046v-.691c-1.532 0-1.817 0-1.817-1.074v-4.446c0-2.507 1.649-3.847 3.129-3.847 1.484 0 1.816 1.219 1.816 2.676v5.617c0 1.074-.261 1.074-1.816 1.074v.691c.621-.046 1.914-.046 2.582-.046.692 0 1.981 0 2.606.046v-.691c-1.196 0-1.793 0-1.817-.715zm11.52.261c.523 0 .574 0 .574-.453 0-2.414-1.293-4.66-4.184-4.66-2.726 0-4.828 2.461-4.828 5.426 0 3.152 2.438 5.473 5.09 5.473 2.844 0 3.922-2.582 3.922-3.086 0-.145-.121-.239-.266-.239-.191 0-.242.121-.285.239-.625 2.007-2.223 2.558-3.226 2.558s-3.418-.668-3.418-4.804v-.454zm-6.598-.453c.191-3.754 2.297-4.183 2.965-4.183 2.555 0 2.699 3.371 2.723 4.183zm-208.465-89.07c0-2.316.953-4.492 2.793-4.492.192 0 .238 0 .336.023-.191.098-.574.239-.574.883 0 .695.55.957.933.957.477 0 .957-.312.957-.957 0-.715-.648-1.387-1.675-1.387-2.032 0-2.723 2.2-2.867 2.657h-.024v-2.657l-3.203.266v.691c1.625 0 1.816.168 1.816 1.34v6.477c0 1.074-.261 1.074-1.816 1.074v.691c.668-.046 1.984-.046 2.7-.046.648 0 2.343 0 2.894.046v-.691h-.48c-1.743 0-1.79-.262-1.79-1.121zm9.266-9.152c0-.621-.5-1.172-1.172-1.172-.621 0-1.145.504-1.145 1.148 0 .715.575 1.172 1.145 1.172.742 0 1.172-.625 1.172-1.148m-3.297 4.445v.691c1.527 0 1.742.145 1.742 1.317v6.5c0 1.074-.262 1.074-1.812 1.074v.691c.668-.046 1.812-.046 2.507-.046.262 0 1.649 0 2.461.046v-.691c-1.554 0-1.648-.121-1.648-1.051v-8.797zm11.492 14.219c-1.527 0-1.812 0-1.812-1.078v-4.157c.43.598 1.406 1.532 2.937 1.532 2.75 0 5.16-2.321 5.16-5.403 0-3.035-2.246-5.379-4.847-5.379-2.106 0-3.227 1.508-3.301 1.602v-1.602l-3.32.266v.691c1.671 0 1.816.168 1.816 1.219v11.231c0 1.078-.266 1.078-1.816 1.078v.691c.62-.047 1.91-.047 2.582-.047.691 0 1.98 0 2.601.047zm-1.812-11.567c0-.453 0-.48.261-.859a3.44 3.44 0 0 1 2.793-1.531c1.793 0 3.227 2.175 3.227 4.851 0 2.844-1.625 4.922-3.465 4.922a2.8 2.8 0 0 1-1.91-.762c-.55-.55-.906-1.031-.906-1.699zm18.812 2.078c.524 0 .574 0 .574-.453 0-2.414-1.293-4.66-4.183-4.66-2.723 0-4.828 2.461-4.828 5.426 0 3.152 2.437 5.473 5.09 5.473 2.843 0 3.921-2.582 3.921-3.086 0-.145-.12-.239-.265-.239-.192 0-.239.121-.285.239-.621 2.007-2.223 2.558-3.227 2.558s-3.418-.668-3.418-4.804v-.454zm-6.598-.453c.192-3.754 2.297-4.183 2.965-4.183 2.555 0 2.7 3.371 2.723 4.183zm11.86-3.609h3.37v-.691h-3.37v-4.399h-.528c-.023 2.246-.882 4.539-3.058 4.613v.477h2.031v6.644c0 2.653 1.77 3.204 3.035 3.204 1.508 0 2.297-1.485 2.297-3.204v-1.363h-.527v1.317c0 1.718-.692 2.722-1.625 2.722-1.625 0-1.625-2.222-1.625-2.629zm9.242-5.113c0-.621-.5-1.172-1.168-1.172-.625 0-1.148.504-1.148 1.148 0 .715.574 1.172 1.148 1.172.738 0 1.168-.625 1.168-1.148m-3.297 4.445v.691c1.528 0 1.746.145 1.746 1.317v6.5c0 1.074-.265 1.074-1.816 1.074v.691c.668-.046 1.816-.046 2.508-.046.261 0 1.648 0 2.46.046v-.691c-1.55 0-1.648-.121-1.648-1.051v-8.797zm30.574 4.469c0-2.223 0-2.891-.55-3.657-.692-.933-1.817-1.078-2.63-1.078-1.984 0-2.984 1.438-3.367 2.368-.335-1.84-1.624-2.368-3.132-2.368-2.317 0-3.227 1.985-3.414 2.465h-.028v-2.465l-3.25.266v.691c1.625 0 1.817.168 1.817 1.34v6.477c0 1.074-.262 1.074-1.817 1.074v.691c.621-.046 1.914-.046 2.582-.046.696 0 1.985 0 2.606.046v-.691c-1.532 0-1.817 0-1.817-1.074v-4.446c0-2.507 1.649-3.847 3.13-3.847 1.484 0 1.816 1.219 1.816 2.676v5.617c0 1.074-.262 1.074-1.817 1.074v.691c.621-.046 1.914-.046 2.582-.046.696 0 1.985 0 2.606.046v-.691c-1.532 0-1.817 0-1.817-1.074v-4.446c0-2.507 1.649-3.847 3.13-3.847s1.816 1.219 1.816 2.676v5.617c0 1.074-.262 1.074-1.817 1.074v.691c.621-.046 1.914-.046 2.582-.046.696 0 1.985 0 2.606.046v-.691c-1.195 0-1.793 0-1.817-.715zm11.52.261c.523 0 .574 0 .574-.453 0-2.414-1.293-4.66-4.183-4.66-2.723 0-4.829 2.461-4.829 5.426 0 3.152 2.438 5.473 5.09 5.473 2.844 0 3.922-2.582 3.922-3.086 0-.145-.121-.239-.265-.239-.192 0-.239.121-.286.239-.621 2.007-2.222 2.558-3.226 2.558s-3.418-.668-3.418-4.804v-.454zm-6.598-.453c.192-3.754 2.297-4.183 2.965-4.183 2.555 0 2.699 3.371 2.723 4.183zm18.477.192c0-2.223 0-2.891-.547-3.657-.695-.933-1.816-1.078-2.629-1.078-2.32 0-3.227 1.985-3.418 2.465h-.023v-2.465l-3.25.266v.691c1.625 0 1.816.168 1.816 1.34v6.477c0 1.074-.262 1.074-1.816 1.074v.691c.621-.046 1.91-.046 2.578-.046.695 0 1.984 0 2.605.046v-.691c-1.527 0-1.816 0-1.816-1.074v-4.446c0-2.507 1.648-3.847 3.133-3.847 1.48 0 1.816 1.219 1.816 2.676v5.617c0 1.074-.266 1.074-1.816 1.074v.691c.621-.046 1.91-.046 2.578-.046.695 0 1.984 0 2.605.046v-.691c-1.195 0-1.793 0-1.816-.715zm5.68-3.801h3.371v-.691h-3.371v-4.399h-.524c-.023 2.246-.883 4.539-3.059 4.613v.477h2.032v6.644c0 2.653 1.769 3.204 3.035 3.204 1.504 0 2.293-1.485 2.293-3.204v-1.363h-.527v1.317c0 1.718-.692 2.722-1.625 2.722-1.625 0-1.625-2.222-1.625-2.629zm9.179 4.039c0-2.316.953-4.492 2.793-4.492.192 0 .238 0 .336.023-.191.098-.574.239-.574.883 0 .695.551.957.933.957.477 0 .958-.312.958-.957 0-.715-.649-1.387-1.676-1.387-2.032 0-2.723 2.2-2.867 2.657h-.024v-2.657l-3.203.266v.691c1.625 0 1.816.168 1.816 1.34v6.477c0 1.074-.261 1.074-1.816 1.074v.691c.672-.046 1.984-.046 2.699-.046.649 0 2.344 0 2.895.046v-.691h-.481c-1.742 0-1.789-.262-1.789-1.121zm14.262.023c.523 0 .574 0 .574-.453 0-2.414-1.293-4.66-4.183-4.66-2.723 0-4.829 2.461-4.829 5.426 0 3.152 2.438 5.473 5.09 5.473 2.844 0 3.922-2.582 3.922-3.086 0-.145-.121-.239-.265-.239-.192 0-.239.121-.286.239-.621 2.007-2.222 2.558-3.226 2.558s-3.418-.668-3.418-4.804v-.454zm-6.598-.453c.192-3.754 2.297-4.183 2.965-4.183 2.555 0 2.699 3.371 2.723 4.183zm45.199 9.942c-1.531 0-1.816 0-1.816-1.078v-4.157c.43.598 1.41 1.532 2.938 1.532 2.75 0 5.164-2.321 5.164-5.403 0-3.035-2.246-5.379-4.852-5.379-2.101 0-3.226 1.508-3.297 1.602v-1.602l-3.324.266v.691c1.676 0 1.816.168 1.816 1.219v11.231c0 1.078-.261 1.078-1.816 1.078v.691c.621-.047 1.914-.047 2.582-.047.691 0 1.984 0 2.605.047zm-1.816-11.567c0-.453 0-.48.262-.859.719-1.078 1.887-1.531 2.797-1.531 1.793 0 3.226 2.175 3.226 4.851 0 2.844-1.625 4.922-3.465 4.922a2.83 2.83 0 0 1-1.914-.762c-.547-.55-.906-1.031-.906-1.699zm20.531 2.508c0-3.082-2.343-5.543-5.117-5.543-2.863 0-5.137 2.531-5.137 5.543 0 3.059 2.391 5.356 5.114 5.356 2.82 0 5.14-2.344 5.14-5.356m-5.117 4.828c-.883 0-1.957-.383-2.652-1.554-.645-1.075-.668-2.485-.668-3.489 0-.91 0-2.367.738-3.441a3.07 3.07 0 0 1 2.559-1.41c.933 0 1.937.429 2.582 1.363.742 1.098.742 2.605.742 3.488 0 .836 0 2.321-.621 3.442-.668 1.148-1.77 1.601-2.68 1.601m13.684-9.82c0-.434 0-.551-.239-.551-.191 0-.644.524-.812.742-.742-.597-1.481-.742-2.246-.742-2.891 0-3.75 1.578-3.75 2.891 0 .265 0 1.101.906 1.937.766.668 1.578.836 2.676 1.051 1.316.262 1.625.332 2.223.813.429.359.742.882.742 1.55 0 1.032-.598 2.176-2.699 2.176-1.579 0-2.723-.906-3.25-3.297-.098-.429-.098-.453-.122-.476-.046-.098-.144-.098-.214-.098-.262 0-.262.121-.262.551v3.25c0 .43 0 .551.238.551.117 0 .141-.024.551-.528.117-.168.117-.215.476-.597.907 1.125 2.2 1.125 2.606 1.125 2.508 0 3.75-1.387 3.75-3.274 0-1.293-.789-2.058-1.004-2.273-.859-.739-1.504-.883-3.082-1.172-.719-.141-2.461-.477-2.461-1.91 0-.739.5-1.84 2.652-1.84 2.606 0 2.747 2.223 2.797 2.965.024.191.192.191.262.191.262 0 .262-.121.262-.551zm5.621-4.613c0-.621-.5-1.172-1.168-1.172-.625 0-1.149.504-1.149 1.148 0 .715.575 1.172 1.149 1.172.738 0 1.168-.625 1.168-1.148m-3.297 4.445v.691c1.527 0 1.742.145 1.742 1.317v6.5c0 1.074-.262 1.074-1.812 1.074v.691c.668-.046 1.812-.046 2.507-.046.262 0 1.649 0 2.461.046v-.691c-1.554 0-1.648-.121-1.648-1.051v-8.797zm14.742.645c.219-.262.219-.309.219-.407 0-.261-.168-.261-.574-.261h-7.504l-.266 3.796h.527c.141-2.437.598-3.32 3.204-3.32h2.769l-6.832 9.391c0 .429.047.429.574.429h7.789l.383-4.394h-.527c-.215 2.723-.621 3.871-3.465 3.871h-2.891zm5.453-5.09c0-.621-.5-1.172-1.168-1.172a1.15 1.15 0 0 0-1.148 1.148c0 .715.574 1.172 1.148 1.172.739 0 1.168-.625 1.168-1.148m-3.297 4.445v.691c1.532 0 1.746.145 1.746 1.317v6.5c0 1.074-.261 1.074-1.816 1.074v.691c.668-.046 1.816-.046 2.508-.046.266 0 1.648 0 2.461.046v-.691c-1.551 0-1.649-.121-1.649-1.051v-8.797zm16.61 5.16c0-3.082-2.34-5.543-5.114-5.543-2.867 0-5.136 2.531-5.136 5.543 0 3.059 2.386 5.356 5.113 5.356 2.816 0 5.137-2.344 5.137-5.356m-5.114 4.828c-.886 0-1.96-.383-2.652-1.554-.648-1.075-.672-2.485-.672-3.489 0-.91 0-2.367.742-3.441a3.06 3.06 0 0 1 2.559-1.41c.93 0 1.934.429 2.578 1.363.742 1.098.742 2.605.742 3.488 0 .836 0 2.321-.621 3.442-.668 1.148-1.769 1.601-2.676 1.601m16.481-5.519c0-2.223 0-2.891-.551-3.657-.695-.933-1.816-1.078-2.629-1.078-2.316 0-3.226 1.985-3.418 2.465h-.023v-2.465l-3.25.266v.691c1.625 0 1.816.168 1.816 1.34v6.477c0 1.074-.261 1.074-1.816 1.074v.691c.621-.046 1.914-.046 2.582-.046.691 0 1.984 0 2.601.046v-.691c-1.527 0-1.812 0-1.812-1.074v-4.446c0-2.507 1.648-3.847 3.129-3.847 1.48 0 1.816 1.219 1.816 2.676v5.617c0 1.074-.265 1.074-1.816 1.074v.691c.621-.046 1.914-.046 2.582-.046.691 0 1.98 0 2.601.046v-.691c-1.195 0-1.789 0-1.812-.715zm11.516.261c.527 0 .574 0 .574-.453 0-2.414-1.289-4.66-4.184-4.66-2.722 0-4.824 2.461-4.824 5.426 0 3.152 2.437 5.473 5.09 5.473 2.844 0 3.918-2.582 3.918-3.086 0-.145-.121-.239-.262-.239-.191 0-.242.121-.285.239-.625 2.007-2.223 2.558-3.231 2.558-1 0-3.414-.668-3.414-4.804v-.454zm-6.594-.453c.191-3.754 2.293-4.183 2.961-4.183 2.558 0 2.703 3.371 2.726 4.183zm47.976.192c0-2.223 0-2.891-.55-3.657-.692-.933-1.817-1.078-2.629-1.078-1.985 0-2.985 1.438-3.367 2.368-.336-1.84-1.625-2.368-3.133-2.368-2.317 0-3.227 1.985-3.414 2.465h-.028v-2.465l-3.25.266v.691c1.625 0 1.817.168 1.817 1.34v6.477c0 1.074-.262 1.074-1.817 1.074v.691c.621-.046 1.914-.046 2.582-.046.696 0 1.985 0 2.606.046v-.691c-1.531 0-1.817 0-1.817-1.074v-4.446c0-2.507 1.649-3.847 3.129-3.847 1.485 0 1.817 1.219 1.817 2.676v5.617c0 1.074-.262 1.074-1.817 1.074v.691c.621-.046 1.914-.046 2.582-.046.696 0 1.985 0 2.606.046v-.691c-1.531 0-1.817 0-1.817-1.074v-4.446c0-2.507 1.649-3.847 3.129-3.847 1.481 0 1.817 1.219 1.817 2.676v5.617c0 1.074-.262 1.074-1.817 1.074v.691c.621-.046 1.914-.046 2.582-.046.696 0 1.985 0 2.606.046v-.691c-1.196 0-1.793 0-1.817-.715zm6.524-8.914c0-.621-.5-1.172-1.168-1.172-.625 0-1.149.504-1.149 1.148 0 .715.575 1.172 1.149 1.172.738 0 1.168-.625 1.168-1.148m-3.297 4.445v.691c1.527 0 1.742.145 1.742 1.317v6.5c0 1.074-.262 1.074-1.812 1.074v.691c.668-.046 1.812-.046 2.507-.046.262 0 1.649 0 2.461.046v-.691c-1.554 0-1.648-.121-1.648-1.051v-8.797zm16.273 4.469c0-2.223 0-2.891-.55-3.657-.692-.933-1.817-1.078-2.629-1.078-2.317 0-3.227 1.985-3.414 2.465h-.028v-2.465l-3.25.266v.691c1.625 0 1.817.168 1.817 1.34v6.477c0 1.074-.262 1.074-1.817 1.074v.691c.621-.046 1.914-.046 2.582-.046.696 0 1.985 0 2.606.046v-.691c-1.531 0-1.817 0-1.817-1.074v-4.446c0-2.507 1.649-3.847 3.129-3.847 1.485 0 1.817 1.219 1.817 2.676v5.617c0 1.074-.262 1.074-1.817 1.074v.691c.621-.046 1.914-.046 2.582-.046.696 0 1.985 0 2.606.046v-.691c-1.196 0-1.793 0-1.817-.715zm13.336.691c0-3.082-2.343-5.543-5.117-5.543-2.863 0-5.137 2.531-5.137 5.543 0 3.059 2.391 5.356 5.114 5.356 2.82 0 5.14-2.344 5.14-5.356m-5.117 4.828c-.883 0-1.957-.383-2.652-1.554-.645-1.075-.668-2.485-.668-3.489 0-.91 0-2.367.738-3.441a3.07 3.07 0 0 1 2.559-1.41c.933 0 1.937.429 2.582 1.363.742 1.098.742 2.605.742 3.488 0 .836 0 2.321-.621 3.442-.668 1.148-1.77 1.601-2.68 1.601m9.836-5.281c0-2.316.957-4.492 2.797-4.492.191 0 .238 0 .336.023-.192.098-.574.239-.574.883 0 .695.55.957.933.957.477 0 .953-.312.953-.957 0-.715-.644-1.387-1.671-1.387-2.032 0-2.723 2.2-2.868 2.657h-.023v-2.657l-3.203.266v.691c1.625 0 1.816.168 1.816 1.34v6.477c0 1.074-.262 1.074-1.816 1.074v.691c.668-.046 1.984-.046 2.699-.046.645 0 2.344 0 2.895.046v-.691h-.481c-1.742 0-1.793-.262-1.793-1.121zm14.266.023c.523 0 .574 0 .574-.453 0-2.414-1.293-4.66-4.184-4.66-2.726 0-4.828 2.461-4.828 5.426 0 3.152 2.438 5.473 5.09 5.473 2.844 0 3.922-2.582 3.922-3.086 0-.145-.121-.239-.266-.239-.191 0-.242.121-.285.239-.625 2.007-2.223 2.558-3.226 2.558s-3.418-.668-3.418-4.804v-.454zm-6.598-.453c.191-3.754 2.297-4.183 2.965-4.183 2.555 0 2.699 3.371 2.723 4.183zm22.813-10.324v.695c1.625 0 1.816.164 1.816 1.336v5.282c-.504-.692-1.531-1.532-2.988-1.532-2.77 0-5.16 2.344-5.16 5.403 0 3.035 2.269 5.379 4.898 5.379 1.816 0 2.867-1.196 3.203-1.649v1.649l3.367-.243v-.691c-1.625 0-1.816-.168-1.816-1.34v-14.551zm1.769 13.527c0 .43 0 .5-.336 1.028-.574.836-1.555 1.527-2.75 1.527-.621 0-3.199-.238-3.199-4.875 0-1.719.285-2.676.812-3.465.477-.742 1.43-1.48 2.629-1.48 1.481 0 2.317 1.074 2.555 1.457.289.406.289.457.289.883zm8.219-11.925c0-.621-.5-1.172-1.168-1.172-.625 0-1.149.504-1.149 1.148 0 .715.575 1.172 1.149 1.172.738 0 1.168-.625 1.168-1.148m-3.297 4.445v.691c1.527 0 1.742.145 1.742 1.317v6.5c0 1.074-.262 1.074-1.812 1.074v.691c.668-.046 1.812-.046 2.507-.046.262 0 1.649 0 2.461.046v-.691c-1.554 0-1.648-.121-1.648-1.051v-8.797zm32.652.668h3.371v-.691h-3.371v-4.399h-.523c-.024 2.246-.887 4.539-3.059 4.613v.477h2.032v6.644c0 2.653 1.765 3.204 3.035 3.204 1.504 0 2.293-1.485 2.293-3.204v-1.363h-.528v1.317c0 1.718-.691 2.722-1.625 2.722-1.625 0-1.625-2.222-1.625-2.629zm9.078 4.039c0-2.316.957-4.492 2.793-4.492.196 0 .243 0 .336.023-.191.098-.574.239-.574.883 0 .695.551.957.934.957.476 0 .957-.312.957-.957 0-.715-.645-1.387-1.672-1.387-2.035 0-2.727 2.2-2.871 2.657h-.024v-2.657l-3.203.266v.691c1.625 0 1.821.168 1.821 1.34v6.477c0 1.074-.266 1.074-1.821 1.074v.691c.672-.046 1.985-.046 2.703-.046.645 0 2.34 0 2.891.046v-.691h-.477c-1.746 0-1.793-.262-1.793-1.121zm14.332-.812c0-1.29 0-2.247-1.05-3.18-.836-.762-1.91-1.098-2.965-1.098-1.957 0-3.465 1.289-3.465 2.844 0 .691.453 1.027 1.004 1.027.574 0 .98-.406.98-.98 0-.981-.859-.981-1.218-.981.55-1.004 1.699-1.433 2.652-1.433 1.102 0 2.508.91 2.508 3.058v.957c-4.801.071-6.617 2.078-6.617 3.918 0 1.891 2.199 2.489 3.656 2.489 1.578 0 2.652-.957 3.105-2.106.098 1.125.836 1.985 1.864 1.985.503 0 1.89-.336 1.89-2.247v-1.339h-.527v1.339c0 1.364-.574 1.555-.906 1.555-.911 0-.911-1.269-.911-1.625zm-1.554 3.011c0 2.34-1.742 3.129-2.77 3.129-1.172 0-2.152-.859-2.152-2.008 0-3.152 4.062-3.441 4.922-3.488zm6.875-.957c1.125.742 2.078.742 2.344.742 2.148 0 3.75-1.625 3.75-3.464a3.25 3.25 0 0 0-.958-2.321c.934-.953 2.055-.953 2.176-.953.098 0 .215 0 .313.047-.242.094-.36.336-.36.598 0 .332.239.621.621.621.192 0 .622-.121.622-.645 0-.433-.336-1.101-1.172-1.101-1.242 0-2.176.765-2.508 1.125-.719-.551-1.555-.864-2.461-.864-2.152 0-3.754 1.625-3.754 3.469 0 1.359.836 2.246 1.074 2.457-.285.363-.715 1.055-.715 1.988 0 1.383.836 1.981 1.028 2.102-1.102.309-2.199 1.172-2.199 2.41 0 1.652 2.246 3.012 5.187 3.012 2.844 0 5.211-1.266 5.211-3.055 0-.601-.172-2.008-1.605-2.75-1.219-.621-2.415-.621-4.469-.621-1.457 0-1.625 0-2.051-.453-.242-.238-.457-.695-.457-1.195 0-.407.144-.813.383-1.149m2.367.238c-2.106 0-2.106-2.414-2.106-2.96 0-.43 0-1.411.407-2.055a2.04 2.04 0 0 1 1.676-.934c2.101 0 2.101 2.414 2.101 2.965 0 .43 0 1.406-.406 2.055a2.04 2.04 0 0 1-1.672.929m.644 8.485c-2.292 0-4.039-1.168-4.039-2.531 0-.192.047-1.125.957-1.746.524-.336.739-.336 2.415-.336 1.98 0 4.679 0 4.679 2.082 0 1.406-1.812 2.531-4.012 2.531m13.11-14.672v.691c1.625 0 1.816.168 1.816 1.34v4.278c0 2.031-1.078 3.726-2.867 3.726-1.961 0-2.078-1.125-2.078-2.387v-7.914l-3.371.266v.691c1.816 0 1.816.075 1.816 2.2v3.586c0 1.48 0 2.339.715 3.128.574.622 1.555.911 2.774.911.406 0 1.171 0 1.984-.696.691-.547 1.074-1.457 1.074-1.457v2.153l3.32-.243v-.691c-1.625 0-1.812-.168-1.812-1.34v-8.508zm14.957 3.895c0-1.29 0-2.247-1.051-3.18-.836-.762-1.91-1.098-2.961-1.098-1.961 0-3.465 1.289-3.465 2.844 0 .691.453 1.027 1.004 1.027.574 0 .981-.406.981-.98 0-.981-.864-.981-1.219-.981.547-1.004 1.695-1.433 2.648-1.433 1.102 0 2.512.91 2.512 3.058v.957c-4.805.071-6.617 2.078-6.617 3.918 0 1.891 2.195 2.489 3.652 2.489 1.578 0 2.657-.957 3.11-2.106.093 1.125.836 1.985 1.863 1.985.5 0 1.887-.336 1.887-2.247v-1.339h-.524v1.339c0 1.364-.574 1.555-.91 1.555-.91 0-.91-1.269-.91-1.625zm-1.551 3.011c0 2.34-1.742 3.129-2.773 3.129-1.168 0-2.149-.859-2.149-2.008 0-3.152 4.063-3.441 4.922-3.488zm8.121-2.199c0-2.316.953-4.492 2.793-4.492.192 0 .238 0 .336.023-.191.098-.574.239-.574.883 0 .695.551.957.933.957.477 0 .958-.312.958-.957 0-.715-.645-1.387-1.676-1.387-2.032 0-2.723 2.2-2.867 2.657h-.024v-2.657l-3.203.266v.691c1.625 0 1.816.168 1.816 1.34v6.477c0 1.074-.261 1.074-1.816 1.074v.691c.672-.046 1.984-.046 2.699-.046.649 0 2.344 0 2.895.046v-.691h-.481c-1.742 0-1.789-.262-1.789-1.121zm12.278-10.754v.695c1.625 0 1.816.164 1.816 1.336v5.282c-.504-.692-1.531-1.532-2.988-1.532-2.77 0-5.16 2.344-5.16 5.403 0 3.035 2.269 5.379 4.898 5.379 1.816 0 2.867-1.196 3.203-1.649v1.649l3.367-.243v-.691c-1.625 0-1.816-.168-1.816-1.34v-14.551zm1.769 13.527c0 .43 0 .5-.336 1.028-.574.836-1.555 1.527-2.75 1.527-.621 0-3.199-.238-3.199-4.875 0-1.719.285-2.676.812-3.465.477-.742 1.43-1.48 2.629-1.48 1.481 0 2.317 1.074 2.555 1.457.289.406.289.457.289.883zm15.031-2.32c0-3.082-2.343-5.543-5.117-5.543-2.863 0-5.137 2.531-5.137 5.543 0 3.059 2.391 5.356 5.114 5.356 2.82 0 5.14-2.344 5.14-5.356m-5.117 4.828c-.883 0-1.957-.383-2.652-1.554-.645-1.075-.668-2.485-.668-3.489 0-.91 0-2.367.738-3.441a3.07 3.07 0 0 1 2.559-1.41c.933 0 1.937.429 2.582 1.363.742 1.098.742 2.605.742 3.488 0 .836 0 2.321-.621 3.442-.668 1.148-1.77 1.601-2.68 1.601m41.742-8.867c0-.644-.547-1.144-1.144-1.144-.696 0-1.172.546-1.172 1.144 0 .719.598 1.172 1.148 1.172.645 0 1.168-.5 1.168-1.172m0 7.984c0-.644-.547-1.148-1.144-1.148-.696 0-1.172.551-1.172 1.148 0 .715.598 1.168 1.148 1.168.645 0 1.168-.5 1.168-1.168"/></g></svg>