<svg xmlns="http://www.w3.org/2000/svg" width="965pt" height="173pt" viewBox="0 -173 965 173"><g id="page1"><path fill="#fff" d="M.25-144.207h28.348v-28.348H.25Z"/><path fill="none" stroke="#000" stroke-linecap="round" stroke-linejoin="round" stroke-width=".5" d="M.25-172.555h28.348v28.348H.25z"/><path d="M28.598-144.207H56.94v-28.348H28.598Z"/><path fill="none" stroke="#000" stroke-linecap="round" stroke-linejoin="round" stroke-width=".5" d="M28.598-172.555H56.94v28.348H28.598z"/><path d="M56.941-144.207H85.29v-28.348H56.941Z"/><path fill="none" stroke="#000" stroke-linecap="round" stroke-linejoin="round" stroke-width=".5" d="M56.941-172.555H85.29v28.348H56.941z"/><path fill="#fff" d="M85.29-144.207h28.347v-28.348H85.289Z"/><path fill="none" stroke="#000" stroke-linecap="round" stroke-linejoin="round" stroke-width=".5" d="M85.29-172.555h28.347v28.348H85.289z"/><path fill="#fff" d="M.25-115.859h28.348v-28.348H.25Z"/><path fill="none" stroke="#000" stroke-linecap="round" stroke-linejoin="round" stroke-width=".5" d="M.25-144.207h28.348v28.348H.25z"/><path d="M28.598-115.859H56.94v-28.348H28.598Z"/><path fill="none" stroke="#000" stroke-linecap="round" stroke-linejoin="round" stroke-width=".5" d="M28.598-144.207H56.94v28.348H28.598z"/><path fill="#fff" d="M56.941-115.859H85.29v-28.348H56.941Z"/><path fill="none" stroke="#000" stroke-linecap="round" stroke-linejoin="round" stroke-width=".5" d="M56.941-144.207H85.29v28.348H56.941z"/><path fill="#fff" d="M85.29-115.859h28.347v-28.348H85.289Z"/><path fill="none" stroke="#000" stroke-linecap="round" stroke-linejoin="round" stroke-width=".5" d="M85.29-144.207h28.347v28.348H85.289z"/><path fill="#fff" d="M.25-87.516h28.348v-28.343H.25Z"/><path fill="none" stroke="#000" stroke-linecap="round" stroke-linejoin="round" stroke-width=".5" d="M.25-115.859h28.348v28.343H.25z"/><path fill="#fff" d="M28.598-87.516H56.94v-28.343H28.598Z"/><path fill="none" stroke="#000" stroke-linecap="round" stroke-linejoin="round" stroke-width=".5" d="M28.598-115.859H56.94v28.343H28.598z"/><path d="M56.941-87.516H85.29v-28.343H56.941Z"/><path fill="none" stroke="#000" stroke-linecap="round" stroke-linejoin="round" stroke-width=".5" d="M56.941-115.859H85.29v28.343H56.941z"/><path fill="#fff" d="M85.29-87.516h28.347v-28.343H85.289Z"/><path fill="none" stroke="#000" stroke-linecap="round" stroke-linejoin="round" stroke-width=".5" d="M85.29-115.859h28.347v28.343H85.289z"/><path fill="#fff" d="M.25-59.168h28.348v-28.348H.25Z"/><path fill="none" stroke="#000" stroke-linecap="round" stroke-linejoin="round" stroke-width=".5" d="M.25-87.516h28.348v28.348H.25z"/><path fill="#fff" d="M28.598-59.168H56.94v-28.348H28.598Z"/><path fill="none" stroke="#000" stroke-linecap="round" stroke-linejoin="round" stroke-width=".5" d="M28.598-87.516H56.94v28.348H28.598z"/><path d="M56.941-59.168H85.29v-28.348H56.941Z"/><path fill="none" stroke="#000" stroke-linecap="round" stroke-linejoin="round" stroke-width=".5" d="M56.941-87.516H85.29v28.348H56.941z"/><path d="M85.29-59.168h28.347v-28.348H85.289Z"/><path fill="none" stroke="#000" stroke-linecap="round" stroke-linejoin="round" stroke-width=".5" d="M85.29-87.516h28.347v28.348H85.289z"/><path d="M141.98-144.207h28.348v-28.348H141.98Z"/><path fill="none" stroke="#000" stroke-linecap="round" stroke-linejoin="round" stroke-width=".5" d="M141.98-172.555h28.348v28.348H141.98z"/><path fill="#fff" d="M170.328-144.207h28.348v-28.348h-28.348Z"/><path fill="none" stroke="#000" stroke-linecap="round" stroke-linejoin="round" stroke-width=".5" d="M170.328-172.555h28.348v28.348h-28.348z"/><path d="M198.676-144.207h28.344v-28.348h-28.344Z"/><path fill="none" stroke="#000" stroke-linecap="round" stroke-linejoin="round" stroke-width=".5" d="M198.676-172.555h28.344v28.348h-28.344z"/><path fill="#fff" d="M227.02-144.207h28.347v-28.348H227.02Z"/><path fill="none" stroke="#000" stroke-linecap="round" stroke-linejoin="round" stroke-width=".5" d="M227.02-172.555h28.347v28.348H227.02z"/><path d="M141.98-115.859h28.348v-28.348H141.98Z"/><path fill="none" stroke="#000" stroke-linecap="round" stroke-linejoin="round" stroke-width=".5" d="M141.98-144.207h28.348v28.348H141.98z"/><path d="M170.328-115.859h28.348v-28.348h-28.348Z"/><path fill="none" stroke="#000" stroke-linecap="round" stroke-linejoin="round" stroke-width=".5" d="M170.328-144.207h28.348v28.348h-28.348z"/><path fill="#fff" d="M198.676-115.859h28.344v-28.348h-28.344Z"/><path fill="none" stroke="#000" stroke-linecap="round" stroke-linejoin="round" stroke-width=".5" d="M198.676-144.207h28.344v28.348h-28.344z"/><path d="M227.02-115.859h28.347v-28.348H227.02Z"/><path fill="none" stroke="#000" stroke-linecap="round" stroke-linejoin="round" stroke-width=".5" d="M227.02-144.207h28.347v28.348H227.02z"/><path d="M141.98-87.516h28.348v-28.343H141.98Z"/><path fill="none" stroke="#000" stroke-linecap="round" stroke-linejoin="round" stroke-width=".5" d="M141.98-115.859h28.348v28.343H141.98z"/><path d="M170.328-87.516h28.348v-28.343h-28.348Z"/><path fill="none" stroke="#000" stroke-linecap="round" stroke-linejoin="round" stroke-width=".5" d="M170.328-115.859h28.348v28.343h-28.348z"/><path d="M198.676-87.516h28.344v-28.343h-28.344Z"/><path fill="none" stroke="#000" stroke-linecap="round" stroke-linejoin="round" stroke-width=".5" d="M198.676-115.859h28.344v28.343h-28.344z"/><path fill="#fff" d="M227.02-87.516h28.347v-28.343H227.02Z"/><path fill="none" stroke="#000" stroke-linecap="round" stroke-linejoin="round" stroke-width=".5" d="M227.02-115.859h28.347v28.343H227.02z"/><path d="M141.98-59.168h28.348v-28.348H141.98Z"/><path fill="none" stroke="#000" stroke-linecap="round" stroke-linejoin="round" stroke-width=".5" d="M141.98-87.516h28.348v28.348H141.98z"/><path fill="#fff" d="M170.328-59.168h28.348v-28.348h-28.348Z"/><path fill="none" stroke="#000" stroke-linecap="round" stroke-linejoin="round" stroke-width=".5" d="M170.328-87.516h28.348v28.348h-28.348z"/><path fill="#fff" d="M198.676-59.168h28.344v-28.348h-28.344Z"/><path fill="none" stroke="#000" stroke-linecap="round" stroke-linejoin="round" stroke-width=".5" d="M198.676-87.516h28.344v28.348h-28.344z"/><path fill="#fff" d="M227.02-59.168h28.347v-28.348H227.02Z"/><path fill="none" stroke="#000" stroke-linecap="round" stroke-linejoin="round" stroke-width=".5" d="M227.02-87.516h28.347v28.348H227.02z"/><path d="M283.715-144.207h28.348v-28.348h-28.348Z"/><path fill="none" stroke="#000" stroke-linecap="round" stroke-linejoin="round" stroke-width=".5" d="M283.715-172.555h28.348v28.348h-28.348z"/><path d="M312.063-144.207h28.343v-28.348h-28.343Z"/><path fill="none" stroke="#000" stroke-linecap="round" stroke-linejoin="round" stroke-width=".5" d="M312.063-172.555h28.343v28.348h-28.343z"/><path d="M340.406-144.207h28.348v-28.348h-28.348Z"/><path fill="none" stroke="#000" stroke-linecap="round" stroke-linejoin="round" stroke-width=".5" d="M340.406-172.555h28.348v28.348h-28.348z"/><path d="M368.754-144.207h28.348v-28.348h-28.348Z"/><path fill="none" stroke="#000" stroke-linecap="round" stroke-linejoin="round" stroke-width=".5" d="M368.754-172.555h28.348v28.348h-28.348z"/><path fill="#fff" d="M283.715-115.859h28.348v-28.348h-28.348Z"/><path fill="none" stroke="#000" stroke-linecap="round" stroke-linejoin="round" stroke-width=".5" d="M283.715-144.207h28.348v28.348h-28.348z"/><path d="M312.063-115.859h28.343v-28.348h-28.343Z"/><path fill="none" stroke="#000" stroke-linecap="round" stroke-linejoin="round" stroke-width=".5" d="M312.063-144.207h28.343v28.348h-28.343z"/><path d="M340.406-115.859h28.348v-28.348h-28.348Z"/><path fill="none" stroke="#000" stroke-linecap="round" stroke-linejoin="round" stroke-width=".5" d="M340.406-144.207h28.348v28.348h-28.348z"/><path d="M368.754-115.859h28.348v-28.348h-28.348Z"/><path fill="none" stroke="#000" stroke-linecap="round" stroke-linejoin="round" stroke-width=".5" d="M368.754-144.207h28.348v28.348h-28.348z"/><path fill="#fff" d="M283.715-87.516h28.348v-28.343h-28.348Z"/><path fill="none" stroke="#000" stroke-linecap="round" stroke-linejoin="round" stroke-width=".5" d="M283.715-115.859h28.348v28.343h-28.348z"/><path d="M312.063-87.516h28.343v-28.343h-28.343Z"/><path fill="none" stroke="#000" stroke-linecap="round" stroke-linejoin="round" stroke-width=".5" d="M312.063-115.859h28.343v28.343h-28.343z"/><path fill="#fff" d="M340.406-87.516h28.348v-28.343h-28.348Z"/><path fill="none" stroke="#000" stroke-linecap="round" stroke-linejoin="round" stroke-width=".5" d="M340.406-115.859h28.348v28.343h-28.348z"/><path fill="#fff" d="M368.754-87.516h28.348v-28.343h-28.348Z"/><path fill="none" stroke="#000" stroke-linecap="round" stroke-linejoin="round" stroke-width=".5" d="M368.754-115.859h28.348v28.343h-28.348z"/><path d="M283.715-59.168h28.348v-28.348h-28.348Z"/><path fill="none" stroke="#000" stroke-linecap="round" stroke-linejoin="round" stroke-width=".5" d="M283.715-87.516h28.348v28.348h-28.348z"/><path d="M312.063-59.168h28.343v-28.348h-28.343Z"/><path fill="none" stroke="#000" stroke-linecap="round" stroke-linejoin="round" stroke-width=".5" d="M312.063-87.516h28.343v28.348h-28.343z"/><path fill="#fff" d="M340.406-59.168h28.348v-28.348h-28.348Z"/><path fill="none" stroke="#000" stroke-linecap="round" stroke-linejoin="round" stroke-width=".5" d="M340.406-87.516h28.348v28.348h-28.348z"/><path d="M368.754-59.168h28.348v-28.348h-28.348Z"/><path fill="none" stroke="#000" stroke-linecap="round" stroke-linejoin="round" stroke-width=".5" d="M368.754-87.516h28.348v28.348h-28.348z"/><path fill="#fff" d="M425.445-144.207h28.348v-28.348h-28.348Z"/><path fill="none" stroke="#000" stroke-linecap="round" stroke-linejoin="round" stroke-width=".5" d="M425.445-172.555h28.348v28.348h-28.348z"/><path d="M453.793-144.207h28.348v-28.348h-28.348Z"/><path fill="none" stroke="#000" stroke-linecap="round" stroke-linejoin="round" stroke-width=".5" d="M453.793-172.555h28.348v28.348h-28.348z"/><path d="M482.141-144.207h28.343v-28.348h-28.343Z"/><path fill="none" stroke="#000" stroke-linecap="round" stroke-linejoin="round" stroke-width=".5" d="M482.141-172.555h28.343v28.348h-28.343z"/><path fill="#fff" d="M510.484-144.207h28.348v-28.348h-28.348Z"/><path fill="none" stroke="#000" stroke-linecap="round" stroke-linejoin="round" stroke-width=".5" d="M510.484-172.555h28.348v28.348h-28.348z"/><path d="M425.445-115.859h28.348v-28.348h-28.348Z"/><path fill="none" stroke="#000" stroke-linecap="round" stroke-linejoin="round" stroke-width=".5" d="M425.445-144.207h28.348v28.348h-28.348z"/><path fill="#fff" d="M453.793-115.859h28.348v-28.348h-28.348Z"/><path fill="none" stroke="#000" stroke-linecap="round" stroke-linejoin="round" stroke-width=".5" d="M453.793-144.207h28.348v28.348h-28.348z"/><path d="M482.141-115.859h28.343v-28.348h-28.343Z"/><path fill="none" stroke="#000" stroke-linecap="round" stroke-linejoin="round" stroke-width=".5" d="M482.141-144.207h28.343v28.348h-28.343z"/><path d="M510.484-115.859h28.348v-28.348h-28.348Z"/><path fill="none" stroke="#000" stroke-linecap="round" stroke-linejoin="round" stroke-width=".5" d="M510.484-144.207h28.348v28.348h-28.348z"/><path fill="#fff" d="M425.445-87.516h28.348v-28.343h-28.348Z"/><path fill="none" stroke="#000" stroke-linecap="round" stroke-linejoin="round" stroke-width=".5" d="M425.445-115.859h28.348v28.343h-28.348z"/><path d="M453.793-87.516h28.348v-28.343h-28.348Z"/><path fill="none" stroke="#000" stroke-linecap="round" stroke-linejoin="round" stroke-width=".5" d="M453.793-115.859h28.348v28.343h-28.348z"/><path fill="#fff" d="M482.141-87.516h28.343v-28.343h-28.343Z"/><path fill="none" stroke="#000" stroke-linecap="round" stroke-linejoin="round" stroke-width=".5" d="M482.141-115.859h28.343v28.343h-28.343z"/><path d="M510.484-87.516h28.348v-28.343h-28.348Z"/><path fill="none" stroke="#000" stroke-linecap="round" stroke-linejoin="round" stroke-width=".5" d="M510.484-115.859h28.348v28.343h-28.348z"/><path d="M425.445-59.168h28.348v-28.348h-28.348Z"/><path fill="none" stroke="#000" stroke-linecap="round" stroke-linejoin="round" stroke-width=".5" d="M425.445-87.516h28.348v28.348h-28.348z"/><path d="M453.793-59.168h28.348v-28.348h-28.348Z"/><path fill="none" stroke="#000" stroke-linecap="round" stroke-linejoin="round" stroke-width=".5" d="M453.793-87.516h28.348v28.348h-28.348z"/><path d="M482.141-59.168h28.343v-28.348h-28.343Z"/><path fill="none" stroke="#000" stroke-linecap="round" stroke-linejoin="round" stroke-width=".5" d="M482.141-87.516h28.343v28.348h-28.343z"/><path fill="#fff" d="M510.484-59.168h28.348v-28.348h-28.348Z"/><path fill="none" stroke="#000" stroke-linecap="round" stroke-linejoin="round" stroke-width=".5" d="M510.484-87.516h28.348v28.348h-28.348z"/><path d="M567.18-144.207h28.347v-28.348H567.18Z"/><path fill="none" stroke="#000" stroke-linecap="round" stroke-linejoin="round" stroke-width=".5" d="M567.18-172.555h28.347v28.348H567.18z"/><path fill="#fff" d="M595.527-144.207h28.344v-28.348h-28.344Z"/><path fill="none" stroke="#000" stroke-linecap="round" stroke-linejoin="round" stroke-width=".5" d="M595.527-172.555h28.344v28.348h-28.344z"/><path d="M623.871-144.207h28.348v-28.348h-28.348Z"/><path fill="none" stroke="#000" stroke-linecap="round" stroke-linejoin="round" stroke-width=".5" d="M623.871-172.555h28.348v28.348h-28.348z"/><path fill="#fff" d="M652.219-144.207h28.347v-28.348h-28.347Z"/><path fill="none" stroke="#000" stroke-linecap="round" stroke-linejoin="round" stroke-width=".5" d="M652.219-172.555h28.347v28.348h-28.347z"/><path d="M567.18-115.859h28.347v-28.348H567.18Z"/><path fill="none" stroke="#000" stroke-linecap="round" stroke-linejoin="round" stroke-width=".5" d="M567.18-144.207h28.347v28.348H567.18z"/><path d="M595.527-115.859h28.344v-28.348h-28.344Z"/><path fill="none" stroke="#000" stroke-linecap="round" stroke-linejoin="round" stroke-width=".5" d="M595.527-144.207h28.344v28.348h-28.344z"/><path fill="#fff" d="M623.871-115.859h28.348v-28.348h-28.348Z"/><path fill="none" stroke="#000" stroke-linecap="round" stroke-linejoin="round" stroke-width=".5" d="M623.871-144.207h28.348v28.348h-28.348z"/><path d="M652.219-115.859h28.347v-28.348h-28.347Z"/><path fill="none" stroke="#000" stroke-linecap="round" stroke-linejoin="round" stroke-width=".5" d="M652.219-144.207h28.347v28.348h-28.347z"/><path fill="#fff" d="M567.18-87.516h28.347v-28.343H567.18Z"/><path fill="none" stroke="#000" stroke-linecap="round" stroke-linejoin="round" stroke-width=".5" d="M567.18-115.859h28.347v28.343H567.18z"/><path fill="#fff" d="M595.527-87.516h28.344v-28.343h-28.344Z"/><path fill="none" stroke="#000" stroke-linecap="round" stroke-linejoin="round" stroke-width=".5" d="M595.527-115.859h28.344v28.343h-28.344z"/><path fill="#fff" d="M623.871-87.516h28.348v-28.343h-28.348Z"/><path fill="none" stroke="#000" stroke-linecap="round" stroke-linejoin="round" stroke-width=".5" d="M623.871-115.859h28.348v28.343h-28.348z"/><path d="M652.219-87.516h28.347v-28.343h-28.347Z"/><path fill="none" stroke="#000" stroke-linecap="round" stroke-linejoin="round" stroke-width=".5" d="M652.219-115.859h28.347v28.343h-28.347z"/><path d="M567.18-59.168h28.347v-28.348H567.18Z"/><path fill="none" stroke="#000" stroke-linecap="round" stroke-linejoin="round" stroke-width=".5" d="M567.18-87.516h28.347v28.348H567.18z"/><path fill="#fff" d="M595.527-59.168h28.344v-28.348h-28.344Z"/><path fill="none" stroke="#000" stroke-linecap="round" stroke-linejoin="round" stroke-width=".5" d="M595.527-87.516h28.344v28.348h-28.344z"/><path fill="#fff" d="M623.871-59.168h28.348v-28.348h-28.348Z"/><path fill="none" stroke="#000" stroke-linecap="round" stroke-linejoin="round" stroke-width=".5" d="M623.871-87.516h28.348v28.348h-28.348z"/><path fill="#fff" d="M652.219-59.168h28.347v-28.348h-28.347Z"/><path fill="none" stroke="#000" stroke-linecap="round" stroke-linejoin="round" stroke-width=".5" d="M652.219-87.516h28.347v28.348h-28.347z"/><path d="M708.91-144.207h28.348v-28.348H708.91Z"/><path fill="none" stroke="#000" stroke-linecap="round" stroke-linejoin="round" stroke-width=".5" d="M708.91-172.555h28.348v28.348H708.91z"/><path fill="#fff" d="M737.258-144.207h28.347v-28.348h-28.347Z"/><path fill="none" stroke="#000" stroke-linecap="round" stroke-linejoin="round" stroke-width=".5" d="M737.258-172.555h28.347v28.348h-28.347z"/><path d="M765.605-144.207h28.348v-28.348h-28.348Z"/><path fill="none" stroke="#000" stroke-linecap="round" stroke-linejoin="round" stroke-width=".5" d="M765.605-172.555h28.344v28.348h-28.344z"/><path fill="#fff" d="M793.949-144.207h28.348v-28.348h-28.348Z"/><path fill="none" stroke="#000" stroke-linecap="round" stroke-linejoin="round" stroke-width=".5" d="M793.949-172.555h28.348v28.348h-28.348z"/><path d="M708.91-115.859h28.348v-28.348H708.91Z"/><path fill="none" stroke="#000" stroke-linecap="round" stroke-linejoin="round" stroke-width=".5" d="M708.91-144.207h28.348v28.348H708.91z"/><path d="M737.258-115.859h28.347v-28.348h-28.347Z"/><path fill="none" stroke="#000" stroke-linecap="round" stroke-linejoin="round" stroke-width=".5" d="M737.258-144.207h28.347v28.348h-28.347z"/><path fill="#fff" d="M765.605-115.859h28.348v-28.348h-28.348Z"/><path fill="none" stroke="#000" stroke-linecap="round" stroke-linejoin="round" stroke-width=".5" d="M765.605-144.207h28.344v28.348h-28.344z"/><path d="M793.949-115.859h28.348v-28.348h-28.348Z"/><path fill="none" stroke="#000" stroke-linecap="round" stroke-linejoin="round" stroke-width=".5" d="M793.949-144.207h28.348v28.348h-28.348z"/><path fill="#fff" d="M708.91-87.516h28.348v-28.343H708.91Z"/><path fill="none" stroke="#000" stroke-linecap="round" stroke-linejoin="round" stroke-width=".5" d="M708.91-115.859h28.348v28.343H708.91z"/><path fill="#fff" d="M737.258-87.516h28.347v-28.343h-28.347Z"/><path fill="none" stroke="#000" stroke-linecap="round" stroke-linejoin="round" stroke-width=".5" d="M737.258-115.859h28.347v28.343h-28.347z"/><path fill="#fff" d="M765.605-87.516h28.348v-28.343h-28.348Z"/><path fill="none" stroke="#000" stroke-linecap="round" stroke-linejoin="round" stroke-width=".5" d="M765.605-115.859h28.344v28.343h-28.344z"/><path d="M793.949-87.516h28.348v-28.343h-28.348Z"/><path fill="none" stroke="#000" stroke-linecap="round" stroke-linejoin="round" stroke-width=".5" d="M793.949-115.859h28.348v28.343h-28.348z"/><path fill="#fff" d="M708.91-59.168h28.348v-28.348H708.91Z"/><path fill="none" stroke="#000" stroke-linecap="round" stroke-linejoin="round" stroke-width=".5" d="M708.91-87.516h28.348v28.348H708.91z"/><path d="M737.258-59.168h28.347v-28.348h-28.347Z"/><path fill="none" stroke="#000" stroke-linecap="round" stroke-linejoin="round" stroke-width=".5" d="M737.258-87.516h28.347v28.348h-28.347z"/><path d="M765.605-59.168h28.348v-28.348h-28.348Z"/><path fill="none" stroke="#000" stroke-linecap="round" stroke-linejoin="round" stroke-width=".5" d="M765.605-87.516h28.344v28.348h-28.344z"/><path d="M793.949-59.168h28.348v-28.348h-28.348Z"/><path fill="none" stroke="#000" stroke-linecap="round" stroke-linejoin="round" stroke-width=".5" d="M793.949-87.516h28.348v28.348h-28.348z"/><path fill="#fff" d="M850.645-144.207h28.343v-28.348h-28.343Z"/><path fill="none" stroke="#000" stroke-linecap="round" stroke-linejoin="round" stroke-width=".5" d="M850.645-172.555h28.343v28.348h-28.343z"/><path d="M878.988-144.207h28.348v-28.348h-28.348Z"/><path fill="none" stroke="#000" stroke-linecap="round" stroke-linejoin="round" stroke-width=".5" d="M878.988-172.555h28.348v28.348h-28.348z"/><path fill="#fff" d="M907.336-144.207h28.348v-28.348h-28.348Z"/><path fill="none" stroke="#000" stroke-linecap="round" stroke-linejoin="round" stroke-width=".5" d="M907.336-172.555h28.348v28.348h-28.348z"/><path fill="#fff" d="M935.684-144.207h28.347v-28.348h-28.347Z"/><path fill="none" stroke="#000" stroke-linecap="round" stroke-linejoin="round" stroke-width=".5" d="M935.684-172.555h28.347v28.348h-28.347z"/><path d="M850.645-115.859h28.343v-28.348h-28.343Z"/><path fill="none" stroke="#000" stroke-linecap="round" stroke-linejoin="round" stroke-width=".5" d="M850.645-144.207h28.343v28.348h-28.343z"/><path fill="#fff" d="M878.988-115.859h28.348v-28.348h-28.348Z"/><path fill="none" stroke="#000" stroke-linecap="round" stroke-linejoin="round" stroke-width=".5" d="M878.988-144.207h28.348v28.348h-28.348z"/><path d="M907.336-115.859h28.348v-28.348h-28.348Z"/><path fill="none" stroke="#000" stroke-linecap="round" stroke-linejoin="round" stroke-width=".5" d="M907.336-144.207h28.348v28.348h-28.348z"/><path fill="#fff" d="M935.684-115.859h28.347v-28.348h-28.347Z"/><path fill="none" stroke="#000" stroke-linecap="round" stroke-linejoin="round" stroke-width=".5" d="M935.684-144.207h28.347v28.348h-28.347z"/><path fill="#fff" d="M850.645-87.516h28.343v-28.343h-28.343Z"/><path fill="none" stroke="#000" stroke-linecap="round" stroke-linejoin="round" stroke-width=".5" d="M850.645-115.859h28.343v28.343h-28.343z"/><path d="M878.988-87.516h28.348v-28.343h-28.348Z"/><path fill="none" stroke="#000" stroke-linecap="round" stroke-linejoin="round" stroke-width=".5" d="M878.988-115.859h28.348v28.343h-28.348z"/><path fill="#fff" d="M907.336-87.516h28.348v-28.343h-28.348Z"/><path fill="none" stroke="#000" stroke-linecap="round" stroke-linejoin="round" stroke-width=".5" d="M907.336-115.859h28.348v28.343h-28.348z"/><path d="M935.684-87.516h28.347v-28.343h-28.347Z"/><path fill="none" stroke="#000" stroke-linecap="round" stroke-linejoin="round" stroke-width=".5" d="M935.684-115.859h28.347v28.343h-28.347z"/><path d="M850.645-59.168h28.343v-28.348h-28.343Z"/><path fill="none" stroke="#000" stroke-linecap="round" stroke-linejoin="round" stroke-width=".5" d="M850.645-87.516h28.343v28.348h-28.343z"/><path fill="#fff" d="M878.988-59.168h28.348v-28.348h-28.348Z"/><path fill="none" stroke="#000" stroke-linecap="round" stroke-linejoin="round" stroke-width=".5" d="M878.988-87.516h28.348v28.348h-28.348z"/><path d="M907.336-59.168h28.348v-28.348h-28.348Z"/><path fill="none" stroke="#000" stroke-linecap="round" stroke-linejoin="round" stroke-width=".5" d="M907.336-87.516h28.348v28.348h-28.348z"/><path fill="#fff" d="M935.684-59.168h28.347v-28.348h-28.347Z"/><path fill="none" stroke="#000" stroke-linecap="round" stroke-linejoin="round" stroke-width=".5" d="M935.684-87.516h28.347v28.348h-28.347z"/><path d="M59.29-41.172c0-1.234 0-1.289-1.08-1.289-1.288 1.453-3.976 3.441-9.515 3.441v1.56c1.235 0 3.922 0 6.883-1.4v28.02c0 1.934-.164 2.582-4.894 2.582h-1.668v1.559c1.453-.11 6.668-.11 8.445-.11 1.773 0 6.933 0 8.387.11v-1.559H64.18c-4.73 0-4.89-.648-4.89-2.582zm149.87 25.438h-1.183c-.161.914-.59 3.87-1.129 4.734-.375.48-3.442.48-5.055.48h-9.949c1.453-1.234 4.734-4.675 6.133-5.968 8.171-7.528 11.183-10.324 11.183-15.649 0-6.183-4.894-10.324-11.129-10.324-6.238 0-9.898 5.324-9.898 9.95 0 2.742 2.371 2.742 2.531 2.742 1.129 0 2.527-.81 2.527-2.528 0-1.508-1.023-2.527-2.527-2.527-.484 0-.594 0-.754.054 1.02-3.66 3.926-6.132 7.422-6.132 4.57 0 7.367 3.82 7.367 8.765 0 4.575-2.636 8.551-5.703 11.993L188.133-7.993V-6.7h19.629zm127.934-10.27c-.914.05-1.129.106-1.129.59 0 .539.269.539 1.238.539h2.473c4.57 0 6.613 3.762 6.613 8.926 0 7.043-3.656 8.926-6.293 8.926-2.578 0-6.988-1.235-8.547-4.786 1.719.27 3.278-.699 3.278-2.636 0-1.559-1.125-2.633-2.633-2.633-1.289 0-2.688.754-2.688 2.797 0 4.785 4.785 8.71 10.754 8.71 6.399 0 11.129-4.894 11.129-10.324 0-4.949-3.976-8.82-9.141-9.734 4.68-1.344 7.692-5.27 7.692-9.465 0-4.25-4.41-7.367-9.625-7.367-5.379 0-9.36 3.281-9.36 7.207 0 2.152 1.668 2.582 2.473 2.582 1.133 0 2.422-.809 2.422-2.422 0-1.718-1.289-2.472-2.473-2.472-.324 0-.429 0-.593.054 2.043-3.66 7.097-3.66 7.367-3.66 1.777 0 5.269.809 5.269 6.078 0 1.024-.16 4.032-1.718 6.344-1.614 2.367-3.442 2.531-4.895 2.582zm151.32-15.703c0-1.023 0-1.293-.754-1.293-.43 0-.59 0-1.019.648l-16.188 25.11v1.562h14.141v4.89c0 1.993-.106 2.532-4.031 2.532h-1.079v1.559c1.239-.11 5.489-.11 6.993-.11 1.507 0 5.808 0 7.046.11v-1.559h-1.078c-3.871 0-4.031-.539-4.031-2.531v-4.89h5.43v-1.563h-5.43zm-3.551 4.195v20.27h-13.066zm132.719 0c2.313.75 4.195.805 4.785.805 6.078 0 9.949-4.465 9.949-5.215 0-.215-.105-.484-.429-.484-.106 0-.215 0-.699.215a17.7 17.7 0 0 1-6.993 1.453c-3.547 0-6.074-1.078-7.093-1.508-.379-.16-.485-.16-.539-.16-.43 0-.43.32-.43 1.183v15.97c0 .968 0 1.292.644 1.292.27 0 .325-.055.86-.7 1.504-2.206 4.035-3.495 6.722-3.495 2.852 0 4.25 2.633 4.68 3.547.914 2.101.965 4.734.965 6.777s0 5.11-1.504 7.527c-1.184 1.938-3.281 3.282-5.648 3.282-3.547 0-7.043-2.418-8.012-6.344.269.105.594.16.863.16.914 0 2.363-.54 2.363-2.367 0-1.504-1.019-2.363-2.363-2.363-.969 0-2.367.484-2.367 2.578 0 4.57 3.656 9.789 9.625 9.789 6.078 0 11.398-5.11 11.398-11.938 0-6.398-4.3-11.722-9.945-11.722-3.066 0-5.434 1.343-6.832 2.847zm141.434 12.098c0-13.605 6.613-15.758 9.515-15.758 1.938 0 3.875.594 4.895 2.207-.645 0-2.688 0-2.688 2.203 0 1.184.805 2.207 2.203 2.207 1.344 0 2.258-.808 2.258-2.367 0-2.797-2.043-5.539-6.722-5.539-6.774 0-13.872 6.938-13.872 18.766 0 14.789 6.454 18.125 11.024 18.125 5.863 0 10.863-5.11 10.863-12.102 0-7.148-5-11.937-10.379-11.937-4.785 0-6.562 4.14-7.097 5.648zm6.613 18.39c-3.387 0-5-3.011-5.484-4.14-.485-1.399-1.024-4.031-1.024-7.797 0-4.25 1.938-9.57 6.777-9.57 2.957 0 4.516 1.988 5.325 3.816.859 1.988.859 4.68.859 6.992 0 2.742 0 5.16-1.023 7.203-1.344 2.582-3.278 3.497-5.43 3.497m154.113-33.071v-1.238h-12.961c-6.504 0-6.613-.7-6.828-1.719h-1.183l-1.668 10.754h1.187c.16-.969.645-4.3 1.344-4.894.43-.32 4.461-.32 5.215-.32h11.402l-5.703 8.171c-1.453 2.098-6.883 10.918-6.883 21.028 0 .59 0 2.742 2.203 2.742 2.262 0 2.262-2.098 2.262-2.797v-2.688c0-8.015 1.289-14.25 3.816-17.855z"/></g></svg>