<svg xmlns="http://www.w3.org/2000/svg" width="544" height="407pt" viewBox="0 -407 408 407"><g id="page1" transform="scale(1 -1)"><path fill="none" stroke="#999" stroke-dasharray="2.00461 2.00461" stroke-linecap="round" stroke-linejoin="round" stroke-width=".5" d="M33.469 384.512V21.676M90.16 384.512V21.676m56.695 362.836V21.676m56.692 362.836V21.676m56.691 362.836V21.676m56.696 362.836V21.676m56.691 362.836V21.676M22.129 373.172h362.836M22.129 316.48h362.836M22.129 259.785h362.836M22.129 203.094h362.836M22.129 146.398h362.836M22.129 89.707h362.836M22.129 33.016h362.836"/><path fill="none" stroke="#fff" stroke-linecap="round" stroke-linejoin="round" stroke-width="4" d="M33.469 373.172V33.016"/><path fill="none" stroke="#000" stroke-linecap="round" stroke-linejoin="round" stroke-width="2.5" d="M33.469 373.172V33.016"/><circle cx="33.469" cy="373.172" r="1.25"/><circle cx="33.469" cy="33.016" r="1.25"/><path fill="none" stroke="#fff" stroke-linecap="round" stroke-linejoin="round" stroke-width="4" d="M146.855 259.785V89.707"/><path fill="none" stroke="#000" stroke-linecap="round" stroke-linejoin="round" stroke-width="2.5" d="M146.855 259.785V89.707"/><circle cx="146.855" cy="259.785" r="1.25"/><circle cx="146.855" cy="89.707" r="1.25"/><path fill="none" stroke="#fff" stroke-linecap="round" stroke-linejoin="round" stroke-width="4" d="M203.547 203.094v-56.696"/><path fill="none" stroke="#000" stroke-linecap="round" stroke-linejoin="round" stroke-width="2.5" d="M203.547 203.094v-56.696"/><circle cx="203.547" cy="203.094" r="1.25"/><circle cx="203.547" cy="146.398" r="1.25"/><path fill="none" stroke="#fff" stroke-linecap="round" stroke-linejoin="round" stroke-width="4" d="M260.238 259.785V33.015"/><path fill="none" stroke="#000" stroke-linecap="round" stroke-linejoin="round" stroke-width="2.5" d="M260.238 259.785V33.015"/><circle cx="260.238" cy="259.785" r="1.25"/><circle cx="260.238" cy="33.016" r="1.25"/><path fill="none" stroke="#fff" stroke-linecap="round" stroke-linejoin="round" stroke-width="4" d="M316.934 203.094V89.707"/><path fill="none" stroke="#000" stroke-linecap="round" stroke-linejoin="round" stroke-width="2.5" d="M316.934 203.094V89.707"/><circle cx="316.934" cy="203.094" r="1.25"/><circle cx="316.934" cy="89.707" r="1.25"/><path fill="none" stroke="#fff" stroke-linecap="round" stroke-linejoin="round" stroke-width="4" d="M373.625 259.785V33.015"/><path fill="none" stroke="#000" stroke-linecap="round" stroke-linejoin="round" stroke-width="2.5" d="M373.625 259.785V33.015"/><circle cx="373.625" cy="259.785" r="1.25"/><circle cx="373.625" cy="33.016" r="1.25"/><path fill="none" stroke="#fff" stroke-linecap="round" stroke-linejoin="round" stroke-width="4" d="M33.469 316.48h170.078"/><path fill="none" stroke="#000" stroke-linecap="round" stroke-linejoin="round" stroke-width="2.5" d="M33.469 316.48h170.078"/><circle cx="33.469" cy="316.48" r="1.25"/><circle cx="203.547" cy="316.48" r="1.25"/><path fill="none" stroke="#fff" stroke-linecap="round" stroke-linejoin="round" stroke-width="4" d="M146.855 259.785h226.77"/><path fill="none" stroke="#000" stroke-linecap="round" stroke-linejoin="round" stroke-width="2.5" d="M146.855 259.785h226.77"/><circle cx="146.855" cy="259.785" r="1.25"/><circle cx="373.625" cy="259.785" r="1.25"/><path fill="none" stroke="#fff" stroke-linecap="round" stroke-linejoin="round" stroke-width="4" d="M146.855 203.094h226.77"/><path fill="none" stroke="#000" stroke-linecap="round" stroke-linejoin="round" stroke-width="2.5" d="M146.855 203.094h226.77"/><circle cx="146.855" cy="203.094" r="1.25"/><circle cx="373.625" cy="203.094" r="1.25"/><path fill="none" stroke="#fff" stroke-linecap="round" stroke-linejoin="round" stroke-width="4" d="M260.238 146.398h56.696"/><path fill="none" stroke="#000" stroke-linecap="round" stroke-linejoin="round" stroke-width="2.5" d="M260.238 146.398h56.696"/><circle cx="260.238" cy="146.398" r="1.25"/><circle cx="316.934" cy="146.398" r="1.25"/><path fill="none" stroke="#fff" stroke-linecap="round" stroke-linejoin="round" stroke-width="4" d="M90.16 89.707h226.774"/><path fill="none" stroke="#000" stroke-linecap="round" stroke-linejoin="round" stroke-width="2.5" d="M90.16 89.707h226.774"/><circle cx="90.16" cy="89.707" r="1.25"/><circle cx="316.934" cy="89.707" r="1.25"/><path fill="none" stroke="#fff" stroke-linecap="round" stroke-linejoin="round" stroke-width="4" d="M33.469 33.016h340.156"/><path fill="none" stroke="#000" stroke-linecap="round" stroke-linejoin="round" stroke-width="2.5" d="M33.469 33.016h340.156"/><circle cx="33.469" cy="33.016" r="1.25"/><circle cx="373.625" cy="33.016" r="1.25"/><path fill="red" d="M322.602 203.094a5.668 5.668 0 1 0-11.336 0 5.667 5.667 0 1 0 11.336 0"/><path fill="#00bf00" d="M27.8 367.504h11.337v11.336H27.8Z"/><path d="M34.469 404.18h-.395c-1.113-1.157-2.418-1.321-3.738-1.36v-1.199c.598.02 1.57.063 2.539.496v-10.621h-2.437v-1.195h6.468v1.195H34.47zm0-388h-.395c-1.113-1.157-2.418-1.32-3.738-1.36v-1.199c.598.02 1.57.063 2.539.496V3.5h-2.437V2.3h6.468v1.2H34.47zm56.16 378.5c.578.597 1.445 1.324 2.047 2.047.578.699 1.34 1.691 1.34 3.136 0 2.274-1.528 4.317-4.13 4.317-2.046 0-3.222-1.278-3.78-3.282l.804-1.117c.457 1.883 1.098 3.078 2.707 3.078 1.777 0 2.77-1.445 2.77-3.035 0-1.902-1.45-3.367-2.543-4.465a104 104 0 0 1-3.575-3.738v-1.32h7.747v1.402h-3.508c-.25 0-.5-.019-.746-.019h-2.067v.019zm0-388c.578.597 1.445 1.32 2.047 2.047.578.699 1.34 1.691 1.34 3.136 0 2.274-1.528 4.317-4.13 4.317-2.046 0-3.222-1.278-3.78-3.282l.804-1.117c.457 1.883 1.098 3.078 2.707 3.078 1.777 0 2.77-1.445 2.77-3.035 0-1.902-1.45-3.367-2.543-4.465a104 104 0 0 1-3.575-3.738v-1.32h7.747v1.402h-3.508c-.25 0-.5-.02-.746-.02h-2.067v.02zm54.613 390.312h1.406c1.942 0 2.5-1.695 2.5-2.871 0-1.609-.91-2.871-2.394-2.871-1.16 0-2.789.578-3.723 2.109-.14-.726-.14-.765-.226-1.261a4.87 4.87 0 0 1 3.988-2.129c2.355 0 4.09 1.961 4.09 4.133 0 1.632-1.137 2.996-2.688 3.511 1.243.684 2.149 1.961 2.149 3.45 0 1.734-1.59 3.117-3.531 3.117-1.778 0-3.161-1.09-3.739-2.27.145-.207.516-.805.703-1.117.453 1.219 1.629 2.129 3.016 2.129 1.156 0 1.922-.766 1.922-1.859 0-1.137-.723-2.375-1.942-2.665-.085 0-1.367-.125-1.531-.144zm0-388h1.406c1.942 0 2.5-1.695 2.5-2.87 0-1.61-.91-2.872-2.394-2.872-1.16 0-2.789.578-3.723 2.11-.14-.727-.14-.766-.226-1.262a4.87 4.87 0 0 1 3.988-2.13c2.355 0 4.09 1.962 4.09 4.134 0 1.632-1.137 2.996-2.688 3.511 1.243.684 2.149 1.961 2.149 3.45 0 1.734-1.59 3.117-3.531 3.117-1.778 0-3.161-1.094-3.739-2.27.145-.207.516-.805.703-1.117.453 1.219 1.629 2.129 3.016 2.129 1.156 0 1.922-.766 1.922-1.86 0-1.136-.723-2.374-1.942-2.664-.085 0-1.367-.125-1.531-.144zm60.731 384.84h1.879v1.262h-1.879v8.758h-1.821l-4.914-8.758v-1.262h5.102v-3.531h1.633zm-5.145 1.262c1.199 2.105 3.574 6.359 3.574 7.808v-7.808zm5.145-389.262h1.879v1.262h-1.879v8.758h-1.821l-4.914-8.758V5.832h5.102V2.301h1.633zm-5.145 1.262c1.199 2.105 3.574 6.36 3.574 7.808V7.094zm57.586 395.437h5.063v1.321h-6.571v-7.625h1.387c.371.871 1.137 1.511 2.129 1.511.93 0 1.961-.828 1.961-3.203 0-2.543-1.469-3.285-2.539-3.285-1.324 0-2.543.805-3.078 1.922l-.664-1.156a4.49 4.49 0 0 1 3.742-2.047c2.394 0 4.273 2.047 4.273 4.523 0 2.543-1.672 4.504-3.676 4.504a3.18 3.18 0 0 1-2.027-.742zm0-388h5.063v1.32h-6.571V8.228h1.387c.371.87 1.137 1.511 2.129 1.511.93 0 1.961-.828 1.961-3.203 0-2.543-1.469-3.285-2.539-3.285-1.324 0-2.543.805-3.078 1.922l-.664-1.156a4.5 4.5 0 0 1 3.742-2.047c2.394 0 4.273 2.047 4.273 4.523 0 2.543-1.672 4.504-3.676 4.504a3.16 3.16 0 0 1-2.027-.742zm61.742 389.239c-.867.351-1.488.41-2.066.41-2.684 0-5.184-2.809-5.184-7.25 0-5.68 2.375-6.961 4.071-6.961.929 0 1.859.289 2.746 1.324.91 1.094 1.261 2.004 1.261 3.594 0 2.558-1.261 4.832-3.14 4.832-1.364 0-2.543-.723-3.266-1.629.207 2.91 1.57 4.832 3.531 4.832.539 0 1.243-.082 2.047-.434zm-5.554-8.946c0 .164 0 .27.019.578 0 1.614.93 3.059 2.438 3.059.968 0 1.464-.516 1.839-1.156.43-.809.454-1.571.454-2.418 0-.809 0-1.614-.477-2.438-.391-.64-.906-1.199-1.898-1.199-1.965 0-2.293 2.746-2.375 3.574m5.554-379.054c-.867.351-1.488.41-2.066.41-2.684 0-5.184-2.809-5.184-7.25 0-5.68 2.375-6.961 4.071-6.961.929 0 1.859.289 2.746 1.324.91 1.094 1.261 2.004 1.261 3.594 0 2.558-1.261 4.832-3.14 4.832-1.364 0-2.543-.723-3.266-1.633.207 2.914 1.57 4.836 3.531 4.836.539 0 1.243-.082 2.047-.434zm-5.554-8.946c0 .164 0 .27.019.578 0 1.614.93 3.059 2.438 3.059.968 0 1.464-.516 1.839-1.156.43-.809.454-1.57.454-2.418 0-.809 0-1.614-.477-2.438-.391-.64-.906-1.199-1.898-1.199-1.965 0-2.293 2.75-2.375 3.574m58.679 395.621c.25 0 .496.024.746.024h2.375c-2.953-3.453-4.648-7.809-4.648-12.336h1.652c0 4.383 1.446 8.824 4.278 12.375v1.344h-8.079v-1.407zm0-388c.25 0 .496.024.746.024h2.375c-2.953-3.453-4.648-7.809-4.648-12.336h1.652c0 4.383 1.446 8.824 4.278 12.375v1.344h-8.079v-1.407zM10.734 380.336H8.957L3.937 366h1.57l1.446 4.172h5.535L13.957 366h1.797zm1.364-9.008H7.344c.992 2.895 2.234 6.488 2.379 7.418h.02c.144-.848.558-2.086.91-3.141zm386.035 9.008h-1.778L391.34 366h1.566l1.446 4.172h5.539l1.464-4.172h1.797zm1.363-9.008h-4.75c.992 2.895 2.231 6.488 2.375 7.418h.02c.144-.848.558-2.086.91-3.141zM5.238 323.637v-14.336h5.145c2.808 0 4.855 1.859 4.855 3.883 0 1.57-1.343 3.16-3.761 3.613 2.687.789 3.222 2.355 3.222 3.246 0 1.859-2.023 3.594-4.855 3.594zm1.676-6.258v5.101H9.29c2.125 0 3.8-1.097 3.8-2.457 0-1.242-1.323-2.644-3.987-2.644zm0-6.922v5.66H9.66c2.23 0 3.945-1.383 3.945-2.914 0-1.402-1.507-2.746-3.8-2.746zm385.727 13.18v-14.336h5.14c2.813 0 4.856 1.859 4.856 3.883 0 1.57-1.344 3.16-3.758 3.613 2.684.789 3.223 2.355 3.223 3.246 0 1.859-2.028 3.594-4.856 3.594zm1.672-6.258v5.101h2.375c2.128 0 3.8-1.097 3.8-2.457 0-1.242-1.324-2.644-3.984-2.644zm0-6.922v5.66h2.746c2.23 0 3.945-1.383 3.945-2.914 0-1.402-1.508-2.746-3.801-2.746zM15.2 254.977c-1.384-.93-2.024-1.2-3.7-1.2-2.89 0-4.586 3.121-4.586 5.969 0 3.039 1.738 6.035 4.672 6.035 1.32 0 2.187-.375 3.242-1.035l.29 1.633c-.993.496-2.25.723-3.513.723-3.964 0-6.425-3.657-6.425-7.356 0-4.066 2.914-7.293 6.218-7.293 1.778 0 2.399.149 3.926 1.117zm386.902 0c-1.387-.93-2.028-1.2-3.7-1.2-2.894 0-4.586 3.121-4.586 5.969 0 3.039 1.735 6.035 4.668 6.035 1.321 0 2.192-.375 3.243-1.035l.289 1.633c-.993.496-2.25.723-3.512.723-3.965 0-6.422-3.657-6.422-7.356 0-4.066 2.91-7.293 6.215-7.293 1.777 0 2.398.149 3.926 1.117zM4.14 210.234v-14.336h5.08c3.39 0 5.992 3.184 5.992 7.047 0 3.985-2.602 7.289-5.992 7.289zm1.692-13.179v12.023h2.934c2.77 0 4.75-2.539 4.75-6.133 0-3.453-1.961-5.89-4.75-5.89zm386.809 13.179v-14.336h5.078c3.39 0 5.992 3.184 5.992 7.047 0 3.985-2.602 7.289-5.992 7.289zm1.691-13.179v12.023h2.934c2.769 0 4.75-2.539 4.75-6.133 0-3.453-1.961-5.89-4.75-5.89zm-383.309-56.45c-1.656 0-2.398 0-2.77-.019v5.41h6.403v1.262H8.254v4.914h2.664c.246 0 .496-.02.742-.02h3.535v1.344h-8.68v-14.297h8.946v1.426zm386.098 0c-1.652 0-2.394 0-2.769-.019v5.41h6.406v1.262h-6.406v4.914h2.668c.246 0 .496-.02.742-.02h3.531v1.344h-8.676v-14.297h8.946v1.426zM14.719 89.027v1.262H8.852v5.184h2.523c.246 0 .492-.02.742-.02h3.406v1.344H7.117V82.5h1.735v6.527zm385.5 0v1.262h-5.867v5.184h2.519c.25 0 .496-.02.746-.02h3.406v1.344h-8.406V82.5h1.735v6.527zM15.05 31.875h-4.109v-1.281h2.54V27.37c-.805-.23-1.633-.394-2.458-.394-2.89 0-4.609 3.101-4.609 6.03 0 2.915 1.797 5.974 4.61 5.974 1.59 0 2.476-.497 3.574-1.325l.27 1.657c-1.368.699-2.212.988-3.763.988-4.007 0-6.425-3.637-6.425-7.356 0-3.55 2.437-7.312 6.3-7.312 1.45 0 2.79.375 4.07 1.015zm387.403 0h-4.113v-1.281h2.543V27.37c-.809-.23-1.637-.394-2.461-.394-2.891 0-4.606 3.101-4.606 6.03 0 2.915 1.797 5.974 4.606 5.974 1.594 0 2.48-.497 3.574-1.325l.27 1.657c-1.364.699-2.211.988-3.762.988-4.008 0-6.422-3.637-6.422-7.356 0-3.55 2.438-7.312 6.301-7.312 1.445 0 2.789.375 4.07 1.015z"/></g></svg>