<svg xmlns="http://www.w3.org/2000/svg" width="455pt" height="46pt" viewBox="0 -46 455 46"><g id="page1"><path fill="none" stroke="#000" stroke-linecap="round" stroke-linejoin="round" stroke-width=".5" d="M.25-45.61h45.356V-.253H.25zm45.356 0h45.351V-.253H45.606zm45.351 0h45.356V-.253H90.957zm45.356 0h45.355V-.253h-45.355zm45.355 0h45.352V-.253h-45.352zm45.352 0h45.355V-.253H227.02zm45.355 0h45.355V-.253h-45.355zm45.355 0h45.356V-.253H317.73zm45.356 0h45.352V-.253h-45.352zm45.352 0h45.355V-.253h-45.355z"/><path d="M27.516-29.172v-.453h-4.852c-2.418 0-2.46-.266-2.543-.66h-.371l-.602 3.863h.375c.063-.39.204-1.445.454-1.84.125-.164 1.652-.164 2.003-.164h4.543l-2.289 3.41c-1.53 2.29-2.586 5.391-2.586 8.094 0 .25 0 .953.747.953.742 0 .742-.703.742-.972v-.95c0-3.386.578-5.617 1.527-7.043zm42.925-.492c0-.438-.02-.457-.394-.457l-6.133 9.773v.535h5.328v2.024c0 .746-.039.953-1.484.953h-.395v.535c.66-.039 1.778-.039 2.48-.039.7 0 1.817 0 2.477.04v-.536h-.39c-1.446 0-1.489-.207-1.489-.953v-2.023h2.106v-.536H70.44zm-1.136 1.363v7.953h-4.977zm45.215 4.563c1.3-.66 2.621-1.653 2.621-3.242 0-1.88-1.817-2.973-3.489-2.973-1.879 0-3.535 1.363-3.535 3.242 0 .516.125 1.406.93 2.188.207.207 1.074.828 1.633 1.218-.93.477-3.098 1.614-3.098 3.887 0 2.125 2.023 3.45 4.027 3.45 2.211 0 4.071-1.59 4.071-3.7 0-1.879-1.262-2.746-2.086-3.305zm-2.707-1.817c-.165-.101-.993-.742-.993-1.715 0-1.261 1.301-2.21 2.789-2.21 1.633 0 2.832 1.156 2.832 2.5 0 1.921-2.148 3.015-2.253 3.015-.02 0-.04 0-.208-.12zm3.8 4.235c.309.226 1.301.91 1.301 2.172 0 1.527-1.527 2.683-3.262 2.683-1.879 0-3.308-1.344-3.308-2.976 0-1.63 1.261-2.997 2.687-3.633zm40.942-7.063a6 6 0 0 0 1.922.348c1.921 0 2.976-1.031 3.574-1.63 0-.167 0-.269-.125-.269-.02 0-.063 0-.227.082-.722.309-1.57.559-2.605.559a6.2 6.2 0 0 1-2.559-.539c-.226-.102-.269-.102-.289-.102-.105 0-.125.02-.125.434v5.992c0 .371 0 .473.207.473.102 0 .145-.04.246-.184.66-.93 1.571-1.324 2.606-1.324.722 0 2.273.457 2.273 3.988 0 .66 0 1.86-.621 2.809-.519.848-1.324 1.281-2.211 1.281-1.363 0-2.75-.95-3.117-2.543.082.024.246.063.328.063.27 0 .785-.145.785-.785 0-.56-.39-.786-.785-.786-.477 0-.785.29-.785.868 0 1.796 1.426 3.68 3.617 3.68 2.125 0 4.149-1.84 4.149-4.505 0-2.48-1.61-4.402-3.614-4.402a3.52 3.52 0 0 0-2.644 1.137zm51.66 8.883h-.371c-.207 1.465-.375 1.71-.457 1.836-.102.164-1.59.164-1.879.164h-3.965c.742-.805 2.187-2.27 3.945-3.965 1.258-1.2 2.727-2.601 2.727-4.648 0-2.438-1.942-3.84-4.113-3.84-2.27 0-3.657 2-3.657 3.86 0 .808.602.91.848.91.207 0 .828-.122.828-.848 0-.64-.539-.825-.828-.825a.8.8 0 0 0-.328.063c.39-1.758 1.59-2.625 2.848-2.625 1.796 0 2.976 1.426 2.976 3.305 0 1.797-1.055 3.347-2.23 4.691l-4.114 4.649v.472h7.274zm45.398 0h-.371c-.207 1.465-.371 1.71-.453 1.836-.105.164-1.594.164-1.883.164h-3.965c.747-.805 2.192-2.27 3.946-3.965 1.261-1.2 2.726-2.601 2.726-4.648 0-2.438-1.941-3.84-4.109-3.84-2.274 0-3.656 2-3.656 3.86 0 .808.597.91.847.91.203 0 .825-.122.825-.848 0-.64-.536-.825-.825-.825-.125 0-.25.02-.332.063.395-1.758 1.59-2.625 2.852-2.625 1.797 0 2.973 1.426 2.973 3.305 0 1.797-1.051 3.347-2.231 4.691l-4.109 4.649v.472h7.269zm38.875-3.926c0-4.937 2.317-6.055 3.66-6.055.43 0 1.485.083 1.899.891-.332 0-.949 0-.949.723 0 .555.453.742.742.742.187 0 .746-.082.746-.785 0-1.3-1.035-2.043-2.461-2.043-2.457 0-5.039 2.558-5.039 7.125 0 5.617 2.332 6.86 3.984 6.86 2.004 0 3.907-1.798 3.907-4.567 0-2.582-1.672-4.461-3.782-4.461-1.257 0-2.187.824-2.707 2.27zm2.582 6.961c-2.539 0-2.539-3.8-2.539-4.566 0-1.489.703-3.633 2.625-3.633.352 0 1.364 0 2.043 1.422.371.805.371 1.652.371 2.687 0 1.114 0 1.942-.433 2.766-.453.848-1.114 1.324-2.067 1.324m49.309-6.465c0-1.261-.024-3.41-.891-5.062-.765-1.445-1.984-1.961-3.058-1.961-.992 0-2.25.453-3.035 1.941-.829 1.547-.911 3.469-.911 5.082 0 1.176.024 2.973.661 4.543.89 2.13 2.48 2.418 3.285 2.418.953 0 2.398-.394 3.242-2.355.621-1.426.707-3.098.707-4.606m-3.949 6.63c-1.321 0-2.106-1.137-2.395-2.708-.226-1.219-.226-2.992-.226-4.148 0-1.594 0-2.914.265-4.176.395-1.754 1.551-2.293 2.356-2.293.847 0 1.941.559 2.336 2.254.265 1.176.289 2.558.289 4.215 0 1.34 0 2.992-.25 4.21-.434 2.255-1.653 2.645-2.375 2.645m42.925-12.082a6 6 0 0 0 1.922.348c1.918 0 2.977-1.031 3.575-1.63 0-.167 0-.269-.125-.269-.024 0-.063 0-.231.082-.723.309-1.566.559-2.601.559a6.2 6.2 0 0 1-2.559-.539c-.227-.102-.27-.102-.289-.102-.106 0-.125.02-.125.434v5.992c0 .371 0 .473.207.473.101 0 .144-.04.246-.184.66-.93 1.57-1.324 2.602-1.324.726 0 2.277.457 2.277 3.988 0 .66 0 1.86-.621 2.809-.52.848-1.324 1.281-2.211 1.281-1.363 0-2.75-.95-3.121-2.543.082.024.25.063.332.063.265 0 .785-.145.785-.785 0-.56-.395-.786-.785-.786-.477 0-.785.29-.785.868 0 1.796 1.425 3.68 3.617 3.68 2.125 0 4.148-1.84 4.148-4.505 0-2.48-1.609-4.402-3.617-4.402a3.52 3.52 0 0 0-2.641 1.137zm52.364-.789v-.453h-4.856c-2.418 0-2.461-.266-2.543-.66h-.371l-.597 3.863h.371c.062-.39.207-1.445.453-1.84.125-.164 1.652-.164 2.004-.164h4.547l-2.293 3.41c-1.532 2.29-2.582 5.391-2.582 8.094 0 .25 0 .953.742.953.746 0 .746-.703.746-.972v-.95c0-3.386.578-5.617 1.527-7.043z"/></g></svg>