<svg xmlns="http://www.w3.org/2000/svg" width="40pt" height="40pt" viewBox="0 -40 40 40"><g id="page1"><path fill="#79ac14" d="M25.57-28.437c1.172-2.02 2.766-4.36 3.934-5.848 0-.426-.106-.852-.106-1.383-.425-2.125-2.234-3.719-4.144-3.398-1.914.316-3.192 2.336-2.766 4.57.106.957.852 3.187 1.703 5.422.422.105.954.316 1.38.637"/><path fill="none" stroke="#000" stroke-linecap="round" stroke-linejoin="round" stroke-width="1.35" d="M25.57-28.437c1.172-2.02 2.766-4.36 3.934-5.848 0-.426-.106-.852-.106-1.383-.425-2.125-2.234-3.719-4.144-3.398-1.914.316-3.192 2.336-2.766 4.57.106.957.852 3.187 1.703 5.422.422.105.954.316 1.38.637"/><path fill="#79ac14" d="M28.441-25.566c2.02-1.172 4.36-2.766 5.848-3.934.426 0 .848.105 1.379.105 2.129.426 3.723 2.23 3.402 4.145-.316 1.914-2.34 3.082-4.57 2.766-.957-.11-3.187-.852-5.422-1.703-.105-.422-.316-.957-.637-1.38"/><path fill="none" stroke="#000" stroke-linecap="round" stroke-linejoin="round" stroke-width="1.35" d="M28.441-25.566c2.02-1.172 4.36-2.766 5.848-3.934.426 0 .848.105 1.379.105 2.129.426 3.723 2.23 3.402 4.145-.316 1.914-2.34 3.082-4.57 2.766-.957-.11-3.187-.852-5.422-1.703-.105-.422-.316-.957-.637-1.38"/><path fill="#a4cd34" d="M27.164-27.164c.535.426.957.957 1.277 1.598 2.657-1.383 5.954-3.829 6.91-4.786 1.594-1.593 1.7-3.933.317-5.316-1.273-1.379-3.719-1.168-5.312.32-.958.957-3.297 4.254-4.786 6.91a4.7 4.7 0 0 1 1.594 1.274"/><path fill="none" stroke="#000" stroke-linecap="round" stroke-linejoin="round" stroke-width="1.35" d="M27.164-27.164c.535.426.957.957 1.277 1.598 2.657-1.383 5.954-3.829 6.91-4.786 1.594-1.593 1.7-3.933.317-5.316-1.273-1.379-3.719-1.168-5.312.32-.958.957-3.297 4.254-4.786 6.91a4.7 4.7 0 0 1 1.594 1.274"/><path fill="#f26d21" d="M27.164-27.164c-3.293-3.293-8.715-3.082-12.117.426C9.73-21.422-2.493-5.371 1.44-1.438 5.375 2.497 21.426-9.73 26.742-15.042c3.508-3.508 3.719-8.824.422-12.121"/><path fill="#ce5c1c" d="M27.164-27.164c1.383 3.086.64 7.016-2.02 9.676C20.149-12.492 5.695-1.543.7-3.352c0 .852.211 1.489.742 1.914 3.933 3.935 19.984-8.292 25.3-13.604 3.508-3.402 3.719-8.824.422-12.121"/><g fill="none" stroke="#000" stroke-linecap="round" stroke-linejoin="round" stroke-width="1.35"><path d="M26.102-14.3s-3.188-1.063-6.38-4.25m-6.269 3.398s-2.02-1.805-4.144-4.782m12.328 9.356s-2.657-.746-4.356-2.445m.848 4.996s-2.762-.532-5.633-3.403M5.16-13.664s1.172 2.234 3.508 4.148m3.934-14.562s.64 1.91 2.445 3.719M5.8-4.734S7.29-3.031 9.095-2.29m22.96-29.76-4.89 4.886m-1.063-6.801.64 3.613m7.227 4.254-3.614-.64"/><path d="M27.164-27.164c-3.293-3.293-8.715-3.082-12.117.426C9.73-21.422-2.493-5.371 1.44-1.438 5.375 2.497 21.426-9.73 26.742-15.042c3.508-3.508 3.719-8.824.422-12.121"/></g></g></svg>