<svg xmlns="http://www.w3.org/2000/svg" width="259pt" height="320pt" viewBox="0 -320 259 320"><g id="page1"><path fill="#ffd9b2" d="M10.004-8.95h5.953c1.633 0 3.2.653 4.355 1.805l4.895 4.899a2.553 2.553 0 0 0 3.61 0l4.894-4.899a6.18 6.18 0 0 1 4.355-1.804H245.72a2.55 2.55 0 0 0 2.551-2.551v-47.644a2.55 2.55 0 0 0-2.551-2.551H38.066a6.16 6.16 0 0 0-4.355 1.804l-4.895 4.895a2.553 2.553 0 0 1-3.609 0l-4.895-4.895a6.16 6.16 0 0 0-4.355-1.804H4.051a2.55 2.55 0 0 0-2.551 2.55V-11.5c0 1.41 1.14 2.55 2.55 2.55z"/><path fill="none" stroke="#b25900" stroke-linecap="round" stroke-linejoin="round" stroke-width="3" d="M10.004-8.95h5.953c1.633 0 3.2.653 4.355 1.805l4.895 4.899a2.553 2.553 0 0 0 3.61 0l4.894-4.899a6.18 6.18 0 0 1 4.355-1.804H245.72a2.55 2.55 0 0 0 2.551-2.551v-47.644a2.55 2.55 0 0 0-2.551-2.551H38.066a6.16 6.16 0 0 0-4.355 1.804l-4.895 4.895a2.553 2.553 0 0 1-3.609 0l-4.895-4.895a6.16 6.16 0 0 0-4.355-1.804H4.051a2.55 2.55 0 0 0-2.551 2.55V-11.5c0 1.41 1.14 2.55 2.55 2.55z"/><path fill="#ffffb2" d="M10.004-64.64h5.953c1.633 0 3.2.648 4.355 1.804l4.895 4.895a2.553 2.553 0 0 0 3.61 0l4.894-4.895a6.16 6.16 0 0 1 4.355-1.805H245.72a2.55 2.55 0 0 0 2.551-2.55v-248.407c0-1.41-1.141-2.55-2.551-2.55H38.066a6.17 6.17 0 0 0-4.355 1.8l-4.895 4.899a2.554 2.554 0 0 1-3.609 0l-4.895-4.899a6.17 6.17 0 0 0-4.355-1.8H4.051a2.55 2.55 0 0 0-2.551 2.55v248.407c0 1.41 1.14 2.55 2.55 2.55z"/><path fill="none" stroke="#b2b200" stroke-linecap="round" stroke-linejoin="round" stroke-width="3" d="M10.004-64.64h5.953c1.633 0 3.2.648 4.355 1.804l4.895 4.895a2.553 2.553 0 0 0 3.61 0l4.894-4.895a6.16 6.16 0 0 1 4.355-1.805H245.72a2.55 2.55 0 0 0 2.551-2.55v-248.407c0-1.41-1.141-2.55-2.551-2.55H38.066a6.17 6.17 0 0 0-4.355 1.8l-4.895 4.899a2.554 2.554 0 0 1-3.609 0l-4.895-4.899a6.17 6.17 0 0 0-4.355-1.8H4.051a2.55 2.55 0 0 0-2.551 2.55v248.407c0 1.41 1.14 2.55 2.55 2.55z"/><path fill="#ffd9b2" d="M35.516-81.648h5.953c1.633 0 3.199.648 4.355 1.804l4.895 4.895a2.553 2.553 0 0 0 3.61 0l4.894-4.895a6.16 6.16 0 0 1 4.355-1.804h190.645c1.41 0 2.55-1.141 2.55-2.551v-47.645c0-1.41-1.14-2.551-2.55-2.551H63.578a6.17 6.17 0 0 0-4.355 1.801l-4.895 4.899a2.553 2.553 0 0 1-3.61 0l-4.894-4.899a6.17 6.17 0 0 0-4.355-1.801H29.562a2.55 2.55 0 0 0-2.55 2.551v47.645c0 1.41 1.14 2.55 2.55 2.55z"/><path fill="none" stroke="#b25900" stroke-linecap="round" stroke-linejoin="round" stroke-width="3" d="M35.516-81.648h5.953c1.633 0 3.199.648 4.355 1.804l4.895 4.895a2.553 2.553 0 0 0 3.61 0l4.894-4.895a6.16 6.16 0 0 1 4.355-1.804h190.645c1.41 0 2.55-1.141 2.55-2.551v-47.645c0-1.41-1.14-2.551-2.55-2.551H63.578a6.17 6.17 0 0 0-4.355 1.801l-4.895 4.899a2.553 2.553 0 0 1-3.61 0l-4.894-4.899a6.17 6.17 0 0 0-4.355-1.801H29.562a2.55 2.55 0 0 0-2.55 2.551v47.645c0 1.41 1.14 2.55 2.55 2.55z"/><path fill="#ffd9b2" d="M35.516-188.645h5.953c1.633 0 3.199.653 4.355 1.805l4.895 4.899a2.553 2.553 0 0 0 3.61 0l4.894-4.899a6.18 6.18 0 0 1 4.355-1.805h190.645c1.41 0 2.55-1.14 2.55-2.55v-47.645a2.55 2.55 0 0 0-2.55-2.551H63.578a6.16 6.16 0 0 0-4.355 1.805l-4.895 4.895a2.553 2.553 0 0 1-3.61 0l-4.894-4.895a6.16 6.16 0 0 0-4.355-1.805H29.562a2.55 2.55 0 0 0-2.55 2.551v47.645c0 1.41 1.14 2.55 2.55 2.55z"/><path fill="none" stroke="#b25900" stroke-linecap="round" stroke-linejoin="round" stroke-width="3" d="M35.516-188.645h5.953c1.633 0 3.199.653 4.355 1.805l4.895 4.899a2.553 2.553 0 0 0 3.61 0l4.894-4.899a6.18 6.18 0 0 1 4.355-1.805h190.645c1.41 0 2.55-1.14 2.55-2.55v-47.645a2.55 2.55 0 0 0-2.55-2.551H63.578a6.16 6.16 0 0 0-4.355 1.805l-4.895 4.895a2.553 2.553 0 0 1-3.61 0l-4.894-4.895a6.16 6.16 0 0 0-4.355-1.805H29.562a2.55 2.55 0 0 0-2.55 2.551v47.645c0 1.41 1.14 2.55 2.55 2.55z"/><path fill="#b2ffb2" d="m51.215-264.582 9.504 8.844a16.22 16.22 0 0 0 11.05 4.343h94.008c4.098 0 8.047-1.55 11.047-4.343l19.008-17.684a5.936 5.936 0 0 0 0-8.691l-19.008-17.684a16.2 16.2 0 0 0-11.047-4.344H71.77a16.22 16.22 0 0 0-11.051 4.344l-19.004 17.684a5.935 5.935 0 0 0 0 8.691z"/><path fill="none" stroke="#00b200" stroke-linecap="round" stroke-linejoin="round" stroke-width="3" d="m51.215-264.582 9.504 8.844a16.22 16.22 0 0 0 11.05 4.343h94.008c4.098 0 8.047-1.55 11.047-4.343l19.008-17.684a5.936 5.936 0 0 0 0-8.691l-19.008-17.684a16.2 16.2 0 0 0-11.047-4.344H71.77a16.22 16.22 0 0 0-11.051 4.344l-19.004 17.684a5.935 5.935 0 0 0 0 8.691z"/><path d="M22.223-35.68c0-1.289 0-2.246-1.051-3.18-.836-.765-1.91-1.097-2.961-1.097-1.961 0-3.469 1.289-3.469 2.844 0 .691.457 1.027 1.008 1.027.57 0 .977-.406.977-.98 0-.98-.86-.98-1.22-.98.552-1.005 1.7-1.434 2.653-1.434 1.102 0 2.512.91 2.512 3.058v.957c-4.805.07-6.621 2.078-6.621 3.918 0 1.89 2.199 2.485 3.656 2.485 1.578 0 2.652-.954 3.105-2.102.098 1.125.836 1.984 1.868 1.984.5 0 1.886-.336 1.886-2.246v-1.34h-.527v1.34c0 1.363-.57 1.551-.906 1.551-.91 0-.91-1.266-.91-1.625zm-1.551 3.012c0 2.34-1.746 3.129-2.774 3.129-1.171 0-2.148-.86-2.148-2.008 0-3.152 4.063-3.441 4.922-3.488zm13.18-4.66c.214-.527.62-1.555 2.148-1.578v-.696c-.691.051-1.027.051-1.766.051-.504 0-.863 0-1.96-.05v.695c1.003.047 1.12.765 1.12 1.027 0 .215-.046.336-.167.621l-2.438 6.164-2.676-6.738c-.117-.332-.14-.332-.14-.453 0-.621.906-.621 1.336-.621v-.696c-.598.051-1.84.051-2.485.051-.789 0-.836 0-2.293-.05v.695c1.336 0 1.578.093 1.864.836l3.418 8.554c.117.336.164.453.453.453.168 0 .312-.046.476-.453zm10.472 1.648c0-1.289 0-2.246-1.05-3.18-.837-.765-1.915-1.097-2.965-1.097-1.957 0-3.465 1.289-3.465 2.844 0 .691.453 1.027 1.004 1.027.574 0 .98-.406.98-.98 0-.98-.86-.98-1.219-.98.551-1.005 1.696-1.434 2.653-1.434 1.097 0 2.508.91 2.508 3.058v.957c-4.801.07-6.618 2.078-6.618 3.918 0 1.89 2.2 2.485 3.657 2.485 1.574 0 2.652-.954 3.105-2.102.094 1.125.836 1.984 1.863 1.984.504 0 1.887-.336 1.887-2.246v-1.34h-.523v1.34c0 1.363-.575 1.551-.907 1.551-.91 0-.91-1.266-.91-1.625zm-1.554 3.012c0 2.34-1.743 3.129-2.77 3.129-1.172 0-2.152-.86-2.152-2.008 0-3.152 4.062-3.441 4.922-3.488zm14.664-2.437c0-2.223 0-2.895-.551-3.657-.692-.933-1.813-1.078-2.625-1.078-2.32 0-3.227 1.985-3.418 2.465h-.028v-2.465l-3.25.266v.691c1.626 0 1.82.168 1.82 1.34v6.473c0 1.078-.265 1.078-1.82 1.078v.691c.626-.047 1.915-.047 2.583-.047.695 0 1.984 0 2.605.047v-.691c-1.531 0-1.816 0-1.816-1.078v-4.442c0-2.511 1.648-3.847 3.129-3.847 1.484 0 1.82 1.218 1.82 2.675v5.614c0 1.078-.266 1.078-1.82 1.078v.691c.624-.047 1.914-.047 2.581-.047.696 0 1.985 0 2.606.047v-.691c-1.195 0-1.793 0-1.816-.719zm11.472-3.825c.215-.265.215-.312.215-.406 0-.266-.168-.266-.574-.266h-7.504l-.262 3.801h.524c.144-2.437.597-3.32 3.203-3.32h2.773l-6.836 9.39c0 .43.047.43.575.43h7.789l.382-4.394h-.527c-.215 2.722-.621 3.87-3.465 3.87h-2.89zm10.516 3.25c0-1.289 0-2.246-1.047-3.18-.84-.765-1.914-1.097-2.965-1.097-1.96 0-3.465 1.289-3.465 2.844 0 .691.453 1.027 1.004 1.027.574 0 .98-.406.98-.98 0-.98-.863-.98-1.218-.98.547-1.005 1.695-1.434 2.648-1.434 1.102 0 2.512.91 2.512 3.058v.957c-4.805.07-6.621 2.078-6.621 3.918 0 1.89 2.2 2.485 3.656 2.485 1.578 0 2.656-.954 3.11-2.102.093 1.125.836 1.984 1.863 1.984.5 0 1.887-.336 1.887-2.246v-1.34h-.524v1.34c0 1.363-.574 1.551-.91 1.551-.91 0-.91-1.266-.91-1.625zm-1.55 3.012c0 2.34-1.747 3.129-2.774 3.129-1.168 0-2.149-.86-2.149-2.008 0-3.152 4.063-3.441 4.922-3.488zM44.356-98.059c-1.532 0-1.817 0-1.817-1.074v-4.156c.43.594 1.41 1.527 2.938 1.527 2.75 0 5.164-2.316 5.164-5.398 0-3.035-2.246-5.379-4.852-5.379-2.102 0-3.227 1.508-3.297 1.601v-1.601l-3.324.266v.691c1.676 0 1.816.168 1.816 1.219v11.23c0 1.074-.261 1.074-1.816 1.074v.696c.621-.051 1.914-.051 2.582-.051.691 0 1.984 0 2.605.05zm-1.817-11.562c0-.457 0-.481.262-.863.718-1.075 1.886-1.528 2.797-1.528 1.793 0 3.226 2.172 3.226 4.852 0 2.84-1.625 4.922-3.465 4.922a2.83 2.83 0 0 1-1.914-.766c-.547-.551-.906-1.027-.906-1.695zm12.953 2.055c0-2.321.953-4.497 2.793-4.497.192 0 .238 0 .336.028-.191.094-.574.238-.574.883 0 .691.55.957.934.957.476 0 .956-.313.956-.957 0-.715-.648-1.387-1.675-1.387-2.032 0-2.723 2.199-2.867 2.652h-.024v-2.652l-3.203.266v.691c1.625 0 1.816.168 1.816 1.34v6.472c0 1.075-.261 1.075-1.816 1.075v.695c.668-.047 1.984-.047 2.7-.047.648 0 2.343 0 2.894.047v-.695h-.48c-1.743 0-1.79-.262-1.79-1.121zm14.262.023c.523 0 .574 0 .574-.453 0-2.414-1.293-4.66-4.184-4.66-2.722 0-4.828 2.461-4.828 5.422 0 3.156 2.438 5.472 5.09 5.472 2.844 0 3.922-2.582 3.922-3.082 0-.144-.121-.238-.266-.238-.19 0-.238.117-.285.238-.62 2.008-2.222 2.555-3.226 2.555s-3.418-.668-3.418-4.801v-.453zm-6.598-.453c.192-3.754 2.297-4.184 2.965-4.184 2.555 0 2.7 3.367 2.723 4.184zm24.977.191c0-2.226 0-2.894-.547-3.66-.695-.93-1.817-1.074-2.629-1.074-1.984 0-2.988 1.434-3.371 2.367-.336-1.84-1.625-2.367-3.129-2.367-2.32 0-3.226 1.984-3.418 2.461h-.023v-2.461l-3.25.266v.691c1.625 0 1.816.168 1.816 1.34v6.472c0 1.075-.262 1.075-1.816 1.075v.695c.62-.047 1.91-.047 2.578-.047.695 0 1.984 0 2.605.047v-.695c-1.527 0-1.816 0-1.816-1.075v-4.445c0-2.508 1.648-3.848 3.133-3.848 1.48 0 1.816 1.219 1.816 2.68v5.613c0 1.075-.266 1.075-1.816 1.075v.695c.62-.047 1.91-.047 2.578-.047.695 0 1.984 0 2.605.047v-.695c-1.527 0-1.816 0-1.816-1.075v-4.445c0-2.508 1.648-3.848 3.133-3.848 1.48 0 1.816 1.219 1.816 2.68v5.613c0 1.075-.266 1.075-1.816 1.075v.695c.62-.047 1.91-.047 2.578-.047.695 0 1.984 0 2.605.047v-.695c-1.195 0-1.793 0-1.816-.715zm6.523-8.914c0-.625-.5-1.172-1.168-1.172-.62 0-1.148.5-1.148 1.149a1.15 1.15 0 0 0 1.148 1.168c.739 0 1.168-.621 1.168-1.145m-3.297 4.446v.691c1.532 0 1.747.144 1.747 1.312v6.5c0 1.075-.262 1.075-1.817 1.075v.695c.668-.047 1.817-.047 2.508-.047.266 0 1.648 0 2.46.047v-.695c-1.55 0-1.648-.118-1.648-1.047v-8.797zm17.598-4.446c0-.625-.5-1.172-1.168-1.172-.625 0-1.148.5-1.148 1.149a1.15 1.15 0 0 0 1.148 1.168c.738 0 1.168-.621 1.168-1.145m-3.297 4.446v.691c1.528 0 1.746.144 1.746 1.312v6.5c0 1.075-.265 1.075-1.816 1.075v.695c.668-.047 1.816-.047 2.508-.047.261 0 1.648 0 2.461.047v-.695c-1.551 0-1.649-.118-1.649-1.047v-8.797zm16.274 4.468c0-2.226 0-2.894-.551-3.66-.692-.93-1.813-1.074-2.625-1.074-2.32 0-3.227 1.984-3.418 2.461h-.027v-2.461l-3.25.266v.691c1.625 0 1.82.168 1.82 1.34v6.472c0 1.075-.266 1.075-1.82 1.075v.695c.625-.047 1.914-.047 2.582-.047.695 0 1.984 0 2.605.047v-.695c-1.531 0-1.816 0-1.816-1.075v-4.445c0-2.508 1.648-3.848 3.129-3.848 1.484 0 1.82 1.219 1.82 2.68v5.613c0 1.075-.266 1.075-1.82 1.075v.695c.625-.047 1.914-.047 2.582-.047.695 0 1.984 0 2.605.047v-.695c-1.195 0-1.793 0-1.816-.715zm5.781-3.8h3.371v-.696h-3.371v-4.394h-.527c-.024 2.246-.883 4.539-3.059 4.609v.481h2.031v6.64c0 2.652 1.77 3.203 3.035 3.203 1.508 0 2.297-1.48 2.297-3.203v-1.359h-.527v1.312c0 1.723-.692 2.723-1.625 2.723-1.625 0-1.625-2.219-1.625-2.625zm14.238 4.062c.524 0 .574 0 .574-.453 0-2.414-1.293-4.66-4.183-4.66-2.723 0-4.828 2.461-4.828 5.422 0 3.156 2.437 5.472 5.089 5.472 2.844 0 3.922-2.582 3.922-3.082 0-.144-.121-.238-.265-.238-.192 0-.239.117-.285.238-.622 2.008-2.223 2.555-3.227 2.555s-3.418-.668-3.418-4.801v-.453zm-6.598-.453c.192-3.754 2.297-4.184 2.965-4.184 2.559 0 2.7 3.367 2.723 4.184zm11.836.43c0-2.321.957-4.497 2.793-4.497.196 0 .243 0 .336.028-.191.094-.574.238-.574.883 0 .691.551.957.934.957.476 0 .957-.313.957-.957 0-.715-.645-1.387-1.672-1.387-2.035 0-2.727 2.199-2.871 2.652h-.024v-2.652l-3.203.266v.691c1.625 0 1.821.168 1.821 1.34v6.472c0 1.075-.266 1.075-1.821 1.075v.695c.672-.047 1.985-.047 2.703-.047.645 0 2.34 0 2.891.047v-.695h-.477c-1.746 0-1.793-.262-1.793-1.121zm9.098 0c0-2.321.957-4.497 2.797-4.497.191 0 .238 0 .336.028-.192.094-.574.238-.574.883 0 .691.55.957.933.957.477 0 .953-.313.953-.957 0-.715-.644-1.387-1.671-1.387-2.032 0-2.723 2.199-2.868 2.652h-.023v-2.652l-3.203.266v.691c1.625 0 1.816.168 1.816 1.34v6.472c0 1.075-.262 1.075-1.816 1.075v.695c.668-.047 1.984-.047 2.699-.047.645 0 2.344 0 2.895.047v-.695h-.481c-1.742 0-1.793-.262-1.793-1.121zm12.375-4.707v.691c1.625 0 1.816.168 1.816 1.34v4.273c0 2.031-1.074 3.731-2.867 3.731-1.961 0-2.078-1.125-2.078-2.391v-7.91l-3.371.266v.691c1.816 0 1.816.07 1.816 2.199v3.582c0 1.481 0 2.344.719 3.133.574.621 1.555.906 2.77.906.41 0 1.172 0 1.984-.691.695-.551 1.074-1.461 1.074-1.461v2.152l3.325-.238v-.695c-1.625 0-1.817-.164-1.817-1.336v-8.508zm9.75.668h3.371v-.696h-3.371v-4.394h-.523c-.024 2.246-.887 4.539-3.063 4.609v.481h2.031v6.64c0 2.652 1.77 3.203 3.039 3.203 1.504 0 2.293-1.48 2.293-3.203v-1.359h-.527v1.312c0 1.723-.691 2.723-1.625 2.723-1.625 0-1.625-2.219-1.625-2.625zm9.102 0h3.367v-.696h-3.367v-4.394h-.528c-.023 2.246-.883 4.539-3.058 4.609v.481h2.031v6.64c0 2.652 1.769 3.203 3.035 3.203 1.508 0 2.293-1.48 2.293-3.203v-1.359h-.523v1.312c0 1.723-.696 2.723-1.625 2.723-1.625 0-1.625-2.219-1.625-2.625zm16.054 4.492c0-3.082-2.343-5.543-5.117-5.543-2.863 0-5.137 2.531-5.137 5.543 0 3.058 2.391 5.351 5.114 5.351 2.82 0 5.14-2.34 5.14-5.351m-5.117 4.824c-.883 0-1.957-.379-2.652-1.551-.645-1.074-.668-2.484-.668-3.488 0-.91 0-2.367.738-3.442a3.07 3.07 0 0 1 2.559-1.41c.933 0 1.937.43 2.582 1.364.742 1.097.742 2.601.742 3.488 0 .836 0 2.316-.621 3.441-.668 1.145-1.77 1.598-2.68 1.598m9.836-5.277c0-2.321.957-4.497 2.797-4.497.191 0 .238 0 .336.028-.192.094-.574.238-.574.883 0 .691.55.957.933.957.477 0 .953-.313.953-.957 0-.715-.644-1.387-1.671-1.387-2.032 0-2.723 2.199-2.868 2.652h-.023v-2.652l-3.203.266v.691c1.625 0 1.816.168 1.816 1.34v6.472c0 1.075-.262 1.075-1.816 1.075v.695c.668-.047 1.984-.047 2.699-.047.645 0 2.344 0 2.895.047v-.695h-.481c-1.742 0-1.793-.262-1.793-1.121zm14.266.023c.523 0 .574 0 .574-.453 0-2.414-1.293-4.66-4.184-4.66-2.726 0-4.828 2.461-4.828 5.422 0 3.156 2.438 5.472 5.09 5.472 2.844 0 3.922-2.582 3.922-3.082 0-.144-.121-.238-.266-.238-.191 0-.242.117-.285.238-.625 2.008-2.223 2.555-3.226 2.555s-3.418-.668-3.418-4.801v-.453zm-6.598-.453c.191-3.754 2.297-4.184 2.965-4.184 2.555 0 2.699 3.367 2.723 4.184zM22.223-158.379c0-1.293 0-2.25-1.051-3.18-.836-.765-1.91-1.097-2.961-1.097-1.961 0-3.469 1.289-3.469 2.843 0 .692.457 1.028 1.008 1.028.57 0 .977-.406.977-.981 0-.98-.86-.98-1.22-.98.552-1.004 1.7-1.434 2.653-1.434 1.102 0 2.512.907 2.512 3.059v.957c-4.805.07-6.621 2.078-6.621 3.918 0 1.887 2.199 2.484 3.656 2.484 1.578 0 2.652-.957 3.105-2.101.098 1.121.836 1.98 1.868 1.98.5 0 1.886-.332 1.886-2.246v-1.336h-.527v1.336c0 1.363-.57 1.555-.906 1.555-.91 0-.91-1.266-.91-1.625zm-1.551 3.012c0 2.34-1.746 3.129-2.774 3.129-1.171 0-2.148-.864-2.148-2.008 0-3.152 4.063-3.442 4.922-3.488zm8.141-13.219-3.325.266v.691c1.625 0 1.817.168 1.817 1.34v12.519c0 1.075-.262 1.075-1.817 1.075v.695c.668-.047 1.84-.047 2.559-.047.715 0 1.91 0 2.578.047v-.695c-1.527 0-1.812 0-1.812-1.075zm6.402 6.981h3.37v-.696h-3.37v-4.394h-.528c-.023 2.246-.882 4.539-3.058 4.609v.481h2.031v6.64c0 2.652 1.77 3.203 3.035 3.203 1.508 0 2.297-1.48 2.297-3.203v-1.359h-.527v1.312c0 1.723-.692 2.723-1.625 2.723-1.625 0-1.625-2.219-1.625-2.625zm9.075 4.039c0-2.321.956-4.497 2.796-4.497.191 0 .238 0 .336.028-.191.094-.574.238-.574.883 0 .691.55.957.933.957.477 0 .953-.313.953-.957 0-.715-.644-1.387-1.672-1.387-2.03 0-2.722 2.199-2.867 2.652h-.023v-2.652l-3.203.266v.691c1.625 0 1.816.168 1.816 1.34v6.472c0 1.075-.262 1.075-1.816 1.075v.695c.668-.047 1.984-.047 2.699-.047.645 0 2.344 0 2.895.047v-.695h-.481c-1.742 0-1.793-.262-1.793-1.121zm9.269-9.153c0-.625-.504-1.172-1.172-1.172-.621 0-1.145.5-1.145 1.149 0 .715.57 1.168 1.145 1.168.742 0 1.172-.621 1.172-1.145m-3.297 4.446v.691c1.527 0 1.742.144 1.742 1.312v6.5c0 1.075-.262 1.075-1.816 1.075v.695c.671-.047 1.816-.047 2.511-.047.262 0 1.649 0 2.461.047v-.695c-1.554 0-1.648-.118-1.648-1.047v-8.797zm22.773 4.468c0-2.226 0-2.894-.55-3.66-.696-.93-1.817-1.074-2.63-1.074-1.984 0-2.988 1.434-3.37 2.367-.333-1.84-1.626-2.367-3.13-2.367-2.316 0-3.226 1.984-3.417 2.461h-.024v-2.461l-3.25.266v.691c1.625 0 1.816.168 1.816 1.34v6.472c0 1.075-.261 1.075-1.816 1.075v.695c.621-.047 1.914-.047 2.582-.047.691 0 1.984 0 2.606.047v-.695c-1.532 0-1.817 0-1.817-1.075v-4.445c0-2.508 1.649-3.848 3.13-3.848 1.483 0 1.816 1.219 1.816 2.68v5.613c0 1.075-.262 1.075-1.817 1.075v.695c.621-.047 1.914-.047 2.582-.047.692 0 1.98 0 2.606.047v-.695c-1.532 0-1.817 0-1.817-1.075v-4.445c0-2.508 1.649-3.848 3.13-3.848s1.816 1.219 1.816 2.68v5.613c0 1.075-.262 1.075-1.817 1.075v.695c.621-.047 1.914-.047 2.582-.047.692 0 1.98 0 2.606.047v-.695c-1.196 0-1.793 0-1.817-.715zm11.52.262c.523 0 .57 0 .57-.453 0-2.414-1.29-4.66-4.18-4.66-2.726 0-4.828 2.461-4.828 5.422 0 3.156 2.438 5.472 5.09 5.472 2.844 0 3.918-2.582 3.918-3.082 0-.144-.117-.238-.262-.238-.191 0-.238.117-.285.238-.625 2.008-2.222 2.555-3.226 2.555s-3.418-.668-3.418-4.801v-.453zm-6.598-.453c.191-3.754 2.293-4.184 2.965-4.184 2.555 0 2.7 3.367 2.722 4.184zm18.477.191c0-2.226 0-2.894-.551-3.66-.692-.93-1.813-1.074-2.625-1.074-2.32 0-3.227 1.984-3.418 2.461h-.028v-2.461l-3.25.266v.691c1.626 0 1.82.168 1.82 1.34v6.472c0 1.075-.265 1.075-1.82 1.075v.695c.626-.047 1.915-.047 2.582-.047.696 0 1.985 0 2.606.047v-.695c-1.531 0-1.816 0-1.816-1.075v-4.445c0-2.508 1.648-3.848 3.129-3.848 1.484 0 1.82 1.219 1.82 2.68v5.613c0 1.075-.266 1.075-1.82 1.075v.695c.624-.047 1.914-.047 2.581-.047.696 0 1.985 0 2.606.047v-.695c-1.195 0-1.793 0-1.816-.715zm5.781-3.8h3.371v-.696h-3.371v-4.394h-.527c-.024 2.246-.883 4.539-3.06 4.609v.481h2.032v6.64c0 2.652 1.77 3.203 3.035 3.203 1.508 0 2.297-1.48 2.297-3.203v-1.359h-.527v1.312c0 1.723-.692 2.723-1.625 2.723-1.625 0-1.625-2.219-1.625-2.625zm9.242-5.114c0-.625-.5-1.172-1.168-1.172-.625 0-1.148.5-1.148 1.149a1.15 1.15 0 0 0 1.148 1.168c.738 0 1.168-.621 1.168-1.145m-3.297 4.446v.691c1.528 0 1.746.144 1.746 1.312v6.5c0 1.075-.265 1.075-1.816 1.075v.695c.668-.047 1.816-.047 2.508-.047.261 0 1.648 0 2.461.047v-.695c-1.551 0-1.649-.118-1.649-1.047v-8.797zm10.035 1.121c0-.645-.547-1.149-1.144-1.149-.696 0-1.172.551-1.172 1.149a1.17 1.17 0 0 0 1.148 1.172c.645 0 1.168-.504 1.168-1.172m0 7.98c0-.644-.547-1.148-1.144-1.148-.696 0-1.172.55-1.172 1.148 0 .719.598 1.172 1.148 1.172.645 0 1.168-.504 1.168-1.172m-70.472-62.207c0-1.293 0-2.25-1.051-3.18-.836-.765-1.91-1.097-2.961-1.097-1.961 0-3.469 1.289-3.469 2.843 0 .692.457 1.028 1.008 1.028.57 0 .977-.406.977-.981 0-.98-.86-.98-1.22-.98.552-1.004 1.7-1.434 2.653-1.434 1.102 0 2.512.907 2.512 3.059v.957c-4.805.07-6.621 2.078-6.621 3.918 0 1.887 2.199 2.484 3.656 2.484 1.578 0 2.652-.957 3.105-2.101.098 1.121.836 1.98 1.868 1.98.5 0 1.886-.332 1.886-2.246v-1.336h-.527v1.336c0 1.363-.57 1.555-.906 1.555-.91 0-.91-1.266-.91-1.625zm-1.551 3.012c0 2.34-1.746 3.129-2.774 3.129-1.171 0-2.148-.864-2.148-2.008 0-3.152 4.063-3.442 4.922-3.488zm9.883 7.308c-1.532 0-1.817 0-1.817-1.074v-4.156c.43.594 1.41 1.527 2.942 1.527 2.746 0 5.16-2.316 5.16-5.398 0-3.035-2.246-5.379-4.852-5.379-2.101 0-3.226 1.508-3.297 1.601v-1.601l-3.324.266v.691c1.676 0 1.82.168 1.82 1.219v11.23c0 1.074-.265 1.074-1.82 1.074v.696c.625-.051 1.914-.051 2.582-.051.692 0 1.985 0 2.606.051zm-1.817-11.562c0-.457 0-.481.262-.863.719-1.075 1.89-1.528 2.797-1.528 1.793 0 3.226 2.172 3.226 4.852 0 2.84-1.625 4.922-3.464 4.922a2.8 2.8 0 0 1-1.91-.766c-.551-.551-.91-1.027-.91-1.695zm12.953 2.055c0-2.321.957-4.497 2.793-4.497.196 0 .243 0 .336.028-.191.094-.57.238-.57.883 0 .691.547.957.93.957.476 0 .957-.313.957-.957 0-.715-.645-1.387-1.676-1.387-2.031 0-2.723 2.199-2.867 2.652h-.024v-2.652l-3.203.266v.691c1.625 0 1.82.168 1.82 1.34v6.472c0 1.075-.265 1.075-1.82 1.075v.695c.672-.047 1.985-.047 2.703-.047.645 0 2.34 0 2.89.047v-.695h-.476c-1.746 0-1.793-.262-1.793-1.121zm9.266-9.153c0-.625-.5-1.172-1.168-1.172-.625 0-1.148.5-1.148 1.149a1.15 1.15 0 0 0 1.148 1.168c.738 0 1.168-.621 1.168-1.145m-3.297 4.446v.691c1.528 0 1.746.144 1.746 1.312v6.5c0 1.075-.265 1.075-1.816 1.075v.695c.668-.047 1.816-.047 2.508-.047.261 0 1.648 0 2.46.047v-.695c-1.55 0-1.648-.118-1.648-1.047v-8.797zm19.293 14.214c-1.527 0-1.812 0-1.812-1.074v-4.156c.43.594 1.406 1.527 2.937 1.527 2.75 0 5.16-2.316 5.16-5.398 0-3.035-2.246-5.379-4.847-5.379-2.106 0-3.227 1.508-3.301 1.601v-1.601l-3.32.266v.691c1.671 0 1.816.168 1.816 1.219v11.23c0 1.074-.266 1.074-1.817 1.074v.696c.622-.051 1.91-.051 2.583-.051.691 0 1.98 0 2.601.051zm-1.812-11.562c0-.457 0-.481.261-.863a3.44 3.44 0 0 1 2.793-1.528c1.793 0 3.227 2.172 3.227 4.852 0 2.84-1.625 4.922-3.465 4.922a2.82 2.82 0 0 1-1.91-.766c-.55-.551-.906-1.027-.906-1.695zm20.629 2.508c0-3.082-2.344-5.543-5.114-5.543-2.867 0-5.14 2.531-5.14 5.543 0 3.058 2.39 5.351 5.117 5.351 2.816 0 5.137-2.34 5.137-5.351m-5.114 4.824c-.886 0-1.961-.379-2.652-1.551-.649-1.074-.672-2.484-.672-3.488 0-.91 0-2.367.742-3.442a3.06 3.06 0 0 1 2.559-1.41c.93 0 1.933.43 2.578 1.364.742 1.097.742 2.601.742 3.488 0 .836 0 2.316-.621 3.441-.668 1.145-1.769 1.598-2.676 1.598m9.836-5.277c0-2.321.953-4.497 2.793-4.497.192 0 .238 0 .336.028-.191.094-.574.238-.574.883 0 .691.551.957.933.957.477 0 .958-.313.958-.957 0-.715-.649-1.387-1.676-1.387-2.032 0-2.723 2.199-2.867 2.652h-.024v-2.652l-3.203.266v.691c1.625 0 1.816.168 1.816 1.34v6.472c0 1.075-.261 1.075-1.816 1.075v.695c.672-.047 1.984-.047 2.699-.047.649 0 2.344 0 2.895.047v-.695h-.481c-1.742 0-1.789-.262-1.789-1.121zm9.121-4.039h3.371v-.696h-3.371v-4.394h-.523c-.024 2.246-.887 4.539-3.059 4.609v.481h2.032v6.64c0 2.652 1.765 3.203 3.035 3.203 1.504 0 2.293-1.48 2.293-3.203v-1.359h-.528v1.312c0 1.723-.691 2.723-1.625 2.723-1.625 0-1.625-2.219-1.625-2.625zm14.309 3.226c0-1.293 0-2.25-1.051-3.18-.836-.765-1.91-1.097-2.961-1.097-1.961 0-3.465 1.289-3.465 2.843 0 .692.453 1.028 1.004 1.028.574 0 .981-.406.981-.981 0-.98-.864-.98-1.219-.98.547-1.004 1.695-1.434 2.648-1.434 1.102 0 2.512.907 2.512 3.059v.957c-4.805.07-6.617 2.078-6.617 3.918 0 1.887 2.195 2.484 3.652 2.484 1.578 0 2.657-.957 3.11-2.101.093 1.121.836 1.98 1.863 1.98.5 0 1.887-.332 1.887-2.246v-1.336h-.524v1.336c0 1.363-.574 1.555-.91 1.555-.91 0-.91-1.266-.91-1.625zm-1.551 3.012c0 2.34-1.742 3.129-2.773 3.129-1.168 0-2.149-.864-2.149-2.008 0-3.152 4.063-3.442 4.922-3.488zM20.836-281.906c0-.434 0-.551-.238-.551-.192 0-.645.523-.813.738-.738-.594-1.48-.738-2.246-.738-2.89 0-3.75 1.574-3.75 2.891 0 .261 0 1.097.906 1.933.766.672 1.578.84 2.68 1.055 1.313.262 1.625.332 2.219.812.43.36.742.883.742 1.551 0 1.027-.598 2.176-2.7 2.176-1.577 0-2.722-.906-3.25-3.297-.097-.43-.097-.453-.12-.477-.047-.097-.141-.097-.215-.097-.262 0-.262.121-.262.551v3.25c0 .429 0 .546.238.546.121 0 .145-.023.551-.527.117-.164.117-.211.477-.594.906 1.121 2.199 1.121 2.605 1.121 2.508 0 3.75-1.382 3.75-3.273 0-1.289-.785-2.055-1.004-2.269-.86-.739-1.504-.883-3.082-1.172-.715-.141-2.46-.477-2.46-1.911 0-.742.503-1.839 2.652-1.839 2.605 0 2.75 2.222 2.797 2.964.023.192.19.192.261.192.262 0 .262-.121.262-.551zm10.516 4.562c.527 0 .574 0 .574-.453 0-2.414-1.29-4.66-4.184-4.66-2.722 0-4.824 2.461-4.824 5.426 0 3.152 2.438 5.468 5.09 5.468 2.844 0 3.918-2.578 3.918-3.082 0-.144-.121-.238-.262-.238-.191 0-.242.121-.289.238-.621 2.008-2.219 2.555-3.227 2.555-1 0-3.414-.668-3.414-4.801v-.453zm-6.594-.453c.191-3.754 2.293-4.183 2.96-4.183 2.56 0 2.704 3.371 2.727 4.183zm36.695 9.938c-1.527 0-1.812 0-1.812-1.075v-4.156c.43.598 1.406 1.527 2.937 1.527 2.75 0 5.16-2.316 5.16-5.398 0-3.035-2.246-5.379-4.847-5.379-2.106 0-3.227 1.508-3.301 1.602v-1.602l-3.32.266v.691c1.671 0 1.816.168 1.816 1.219v11.23c0 1.075-.266 1.075-1.816 1.075v.695c.62-.051 1.91-.051 2.582-.051.691 0 1.98 0 2.601.051zm-1.812-11.563c0-.457 0-.48.261-.859.715-1.078 1.887-1.532 2.793-1.532 1.793 0 3.227 2.176 3.227 4.852 0 2.844-1.625 4.922-3.465 4.922a2.82 2.82 0 0 1-1.91-.766c-.55-.547-.906-1.027-.906-1.695zm20.629 2.508c0-3.082-2.344-5.543-5.114-5.543-2.867 0-5.14 2.531-5.14 5.543 0 3.059 2.39 5.351 5.117 5.351 2.816 0 5.136-2.339 5.136-5.351m-5.114 4.824c-.887 0-1.96-.379-2.656-1.551-.644-1.074-.668-2.484-.668-3.488 0-.91 0-2.367.742-3.441a3.06 3.06 0 0 1 2.559-1.41c.93 0 1.933.429 2.578 1.363.742 1.097.742 2.605.742 3.488 0 .836 0 2.316-.621 3.441-.668 1.149-1.77 1.598-2.676 1.598m9.837-5.277c0-2.321.953-4.492 2.793-4.492.192 0 .238 0 .336.023-.191.094-.574.238-.574.883 0 .695.55.957.934.957.476 0 .957-.313.957-.957 0-.715-.649-1.387-1.676-1.387-2.031 0-2.723 2.199-2.868 2.652h-.023v-2.652l-3.203.266v.691c1.625 0 1.816.168 1.816 1.34v6.473c0 1.078-.261 1.078-1.816 1.078v.691c.668-.047 1.984-.047 2.7-.047.648 0 2.343 0 2.894.047v-.691h-.48c-1.743 0-1.79-.266-1.79-1.125zm9.121-4.039h3.371v-.696h-3.37v-4.394h-.524c-.024 2.246-.887 4.539-3.059 4.613v.477h2.031v6.644c0 2.653 1.766 3.199 3.036 3.199 1.504 0 2.293-1.48 2.293-3.199v-1.363h-.528v1.312c0 1.723-.691 2.723-1.625 2.723-1.625 0-1.625-2.219-1.625-2.625zm14.309 3.226c0-1.289 0-2.246-1.051-3.179-.836-.762-1.91-1.098-2.961-1.098-1.961 0-3.465 1.289-3.465 2.844 0 .691.453 1.027 1.004 1.027.574 0 .981-.406.981-.98 0-.981-.864-.981-1.219-.981.547-1.004 1.695-1.433 2.648-1.433 1.102 0 2.512.91 2.512 3.058v.957c-4.805.07-6.617 2.078-6.617 3.918 0 1.891 2.195 2.484 3.652 2.484 1.578 0 2.657-.953 3.11-2.101.093 1.125.836 1.984 1.863 1.984.5 0 1.887-.336 1.887-2.246v-1.34h-.524v1.34c0 1.363-.574 1.555-.91 1.555-.91 0-.91-1.27-.91-1.625zm-1.551 3.012c0 2.34-1.742 3.129-2.773 3.129-1.168 0-2.149-.859-2.149-2.008 0-3.152 4.063-3.441 4.922-3.488zm20.481-5.473c-.289 0-1.172 0-1.172.977 0 .574.406.98.98.98.551 0 1.004-.332 1.004-1.027 0-1.602-1.672-2.746-3.609-2.746-2.797 0-5.02 2.484-5.02 5.496 0 3.059 2.293 5.398 4.996 5.398 3.157 0 3.871-2.867 3.871-3.082s-.168-.214-.238-.214c-.215 0-.242.07-.312.359-.524 1.695-1.817 2.41-3.106 2.41-1.457 0-3.394-1.262-3.394-4.894 0-3.969 2.031-4.95 3.226-4.95.906 0 2.223.36 2.774 1.293m11.683 3.036c0-2.223 0-2.891-.551-3.657-.695-.933-1.816-1.078-2.629-1.078-2.054 0-3.011 1.555-3.343 2.297h-.028v-8.34l-3.32.262v.691c1.625 0 1.816.168 1.816 1.34v12.52c0 1.078-.261 1.078-1.816 1.078v.691c.621-.047 1.914-.047 2.582-.047.692 0 1.984 0 2.606.047v-.691c-1.532 0-1.817 0-1.817-1.078v-4.442c0-2.511 1.649-3.847 3.129-3.847 1.484 0 1.816 1.218 1.816 2.675v5.614c0 1.078-.261 1.078-1.816 1.078v.691c.621-.047 1.914-.047 2.582-.047.692 0 1.981 0 2.606.047v-.691c-1.196 0-1.793 0-1.817-.719zm6.621-8.915c0-.621-.5-1.171-1.168-1.171a1.15 1.15 0 0 0-1.148 1.148c0 .715.574 1.172 1.148 1.172.739 0 1.168-.625 1.168-1.149m-3.297 4.446v.691c1.532 0 1.746.145 1.746 1.313v6.5c0 1.078-.261 1.078-1.816 1.078v.691c.668-.047 1.816-.047 2.508-.047.266 0 1.648 0 2.461.047v-.691c-1.551 0-1.649-.121-1.649-1.051v-8.797zm12.907 0v.691c1.625 0 1.816.168 1.816 1.34v4.277c0 2.032-1.078 3.727-2.867 3.727-1.961 0-2.082-1.125-2.082-2.391v-7.91l-3.367.266v.691c1.816 0 1.816.07 1.816 2.199v3.582c0 1.485 0 2.344.715 3.133.574.621 1.555.906 2.773.906.407 0 1.172 0 1.985-.691.691-.551 1.074-1.461 1.074-1.461v2.152l3.32-.238v-.691c-1.625 0-1.816-.168-1.816-1.34v-8.508zm13.574.168c0-.434 0-.551-.242-.551-.192 0-.645.523-.813.738-.738-.594-1.48-.738-2.246-.738-2.891 0-3.75 1.574-3.75 2.891 0 .261 0 1.097.906 1.933.766.672 1.578.84 2.676 1.055 1.317.262 1.625.332 2.223.812.429.36.742.883.742 1.551 0 1.027-.598 2.176-2.699 2.176-1.578 0-2.723-.906-3.25-3.297-.098-.43-.098-.453-.121-.477-.047-.097-.145-.097-.215-.097-.262 0-.262.121-.262.551v3.25c0 .429 0 .546.238.546.121 0 .145-.023.551-.527.117-.164.117-.211.477-.594.91 1.121 2.199 1.121 2.605 1.121 2.508 0 3.75-1.382 3.75-3.273 0-1.289-.789-2.055-1.004-2.269-.859-.739-1.504-.883-3.082-1.172-.715-.141-2.461-.477-2.461-1.911 0-.742.504-1.839 2.653-1.839 2.605 0 2.75 2.222 2.797 2.964.023.192.191.192.261.192.266 0 .266-.121.266-.551zm10.582 3.726c0-1.289 0-2.246-1.051-3.179-.836-.762-1.91-1.098-2.961-1.098-1.961 0-3.465 1.289-3.465 2.844 0 .691.453 1.027 1.004 1.027.574 0 .981-.406.981-.98 0-.981-.864-.981-1.219-.981.547-1.004 1.695-1.433 2.648-1.433 1.102 0 2.512.91 2.512 3.058v.957c-4.805.07-6.617 2.078-6.617 3.918 0 1.891 2.195 2.484 3.652 2.484 1.578 0 2.657-.953 3.11-2.101.093 1.125.836 1.984 1.863 1.984.5 0 1.887-.336 1.887-2.246v-1.34h-.524v1.34c0 1.363-.574 1.555-.91 1.555-.91 0-.91-1.27-.91-1.625zm-1.551 3.012c0 2.34-1.742 3.129-2.773 3.129-1.168 0-2.149-.859-2.149-2.008 0-3.152 4.063-3.441 4.922-3.488zm31.141-6.238h2.699v-.696h-2.746v-2.793c0-2.152 1.098-3.25 2.078-3.25.191 0 .547.047.836.192-.098.023-.695.238-.695.93 0 .55.382.933.933.933.574 0 .957-.383.957-.957 0-.883-.859-1.574-2.008-1.574-1.675 0-3.562 1.289-3.562 3.726v2.793h-1.863v.696h1.863v7.836c0 1.078-.262 1.078-1.816 1.078v.691c.671-.047 1.984-.047 2.703-.047.644 0 2.339 0 2.89.047v-.691h-.476c-1.746 0-1.793-.266-1.793-1.125zm12.312 3.226c0-1.289 0-2.246-1.051-3.179-.835-.762-1.914-1.098-2.964-1.098-1.957 0-3.465 1.289-3.465 2.844 0 .691.453 1.027 1.004 1.027.574 0 .98-.406.98-.98 0-.981-.859-.981-1.219-.981.551-1.004 1.696-1.433 2.653-1.433 1.097 0 2.508.91 2.508 3.058v.957c-4.801.07-6.618 2.078-6.618 3.918 0 1.891 2.2 2.484 3.657 2.484 1.574 0 2.652-.953 3.105-2.101.094 1.125.836 1.984 1.863 1.984.504 0 1.887-.336 1.887-2.246v-1.34h-.523v1.34c0 1.363-.575 1.555-.907 1.555-.91 0-.91-1.27-.91-1.625zm-1.554 3.012c0 2.34-1.743 3.129-2.774 3.129-1.168 0-2.148-.859-2.148-2.008 0-3.152 4.062-3.441 4.922-3.488zm8.187-11.352c0-.621-.5-1.171-1.168-1.171-.625 0-1.148.503-1.148 1.148 0 .715.574 1.172 1.148 1.172.738 0 1.168-.625 1.168-1.149m-3.297 4.446v.691c1.528 0 1.746.145 1.746 1.313v6.5c0 1.078-.265 1.078-1.816 1.078v.691c.668-.047 1.816-.047 2.508-.047.261 0 1.648 0 2.461.047v-.691c-1.551 0-1.649-.121-1.649-1.051v-8.797zm10.035 1.121c0-.645-.547-1.149-1.144-1.149-.696 0-1.172.551-1.172 1.149 0 .719.598 1.172 1.148 1.172.645 0 1.168-.5 1.168-1.172m0 7.984a1.16 1.16 0 0 0-1.144-1.148 1.15 1.15 0 0 0-1.172 1.148c0 .715.598 1.168 1.148 1.168.645 0 1.168-.5 1.168-1.168"/></g></svg>