<svg xmlns="http://www.w3.org/2000/svg" width="4" height="4" viewBox="0 -3 3 3"><g id="page1" fill-rule="evenodd"><path fill="#a7410e" d="m.89-1.988-.027.008c-.004 0 .02.027.051.058s.07.074.086.098c.02.02.043.062.059.086.011.027.027.07.039.093.007.028.011.07.015.094q0 .043.012.051c0 .004.02.004.04.004.026 0 .034 0 .038-.008 0-.008 0-.031-.008-.055a1 1 0 0 0-.027-.105 1 1 0 0 0-.04-.102.4.4 0 0 0-.05-.09.3.3 0 0 0-.047-.066c-.015-.016-.039-.031-.05-.043a.2.2 0 0 0-.04-.027L.918-2a.1.1 0 0 0-.027.012m.684.32h.028zM.77-.105c.015.015.03.027.03.027L.774-.105C.758-.121.746-.137.743-.137c-.005 0 .01.016.027.032m-.293.062c.015.016.027.031.03.031C.513-.012.5-.027.48-.043.465-.059.45-.07.45-.07z"/><path fill="red" d="m1.504-1.652-.055.02a4 4 0 0 1-.199.116c-.027.016-.035.016-.09.016a.3.3 0 0 1-.101-.016 1 1 0 0 1-.141-.058l-.137-.059C.758-1.637.723-1.648.7-1.653a.2.2 0 0 0-.086.005.5.5 0 0 0-.093.03.4.4 0 0 0-.09.04l-.067.043-.062.058c-.016.02-.043.051-.055.07s-.031.055-.043.079c-.012.023-.031.058-.035.086l-.027.09-.016.113a1 1 0 0 0 0 .133c0 .043.004.101.012.133a1.3 1.3 0 0 0 .125.418c.023.043.054.105.074.136l.07.094c.02.02.059.066.09.094.031.035.078.07.098.086.023.015.054.035.07.047C.68.105.72.125.75.132a.5.5 0 0 0 .203.032.3.3 0 0 0 .098-.02.3.3 0 0 1 .097-.015c.04-.004.047 0 .118.023A.3.3 0 0 0 1.37.18c.02 0 .05-.004.074-.012.02-.008.055-.02.078-.031.028-.012.067-.032.09-.043.028-.016.063-.043.09-.063a1.6 1.6 0 0 0 .234-.258C1.954-.254 1.98-.3 2-.332c.016-.027.043-.078.059-.117.015-.031.039-.094.05-.133.016-.04.032-.094.04-.125.007-.027.015-.074.023-.102 0-.027.004-.078.008-.113a.5.5 0 0 0-.004-.129c0-.031-.012-.082-.016-.11a.7.7 0 0 0-.11-.26.5.5 0 0 0-.133-.137.5.5 0 0 0-.152-.078c-.019-.009-.058-.016-.078-.02a.3.3 0 0 0-.093-.008c-.04 0-.059 0-.09.012m-1.078.586c-.004.02-.02.05-.024.074-.007.023-.011.07-.02.097a1.4 1.4 0 0 0 0 .274c.009.027.013.07.02.094a.7.7 0 0 0 .082.195c.016.031.043.066.059.094.02.02.055.054.078.082.024.023.063.054.086.074.027.016.063.043.086.05.02.009.043.02.05.02Q.86-.01.86-.016l-.082-.09a2 2 0 0 1-.109-.117L.609-.3.555-.395.512-.496C.504-.523.492-.562.488-.586a1 1 0 0 1-.02-.098 2 2 0 0 1-.011-.214c0-.086-.004-.168-.004-.176-.004-.008-.004-.02-.008-.02s-.011.016-.02.028"/><path d="M1.676-2.406a.3.3 0 0 0-.063.047c-.023.015-.054.043-.066.05a.13.13 0 0 1-.067.024 1 1 0 0 1-.109.015.4.4 0 0 0-.113.036.2.2 0 0 0-.074.054.4.4 0 0 0-.051.075l-.028.062-.007.02-.036-.028c-.019-.011-.054-.035-.082-.047-.039-.02-.046-.023-.07-.015-.015 0-.047.011-.074.02q-.051.021-.066.042a.1.1 0 0 0-.028.043c-.004.016-.004.035-.004.047s.008.031.016.04a.2.2 0 0 0 .043.046.6.6 0 0 1 .137.145c.015.02.027.039.023.042 0 0-.031-.011-.066-.03C.85-1.73.8-1.75.777-1.759a.4.4 0 0 0-.109-.012c-.059 0-.074 0-.117.012l-.098.04a1 1 0 0 0-.09.046c-.023.012-.062.043-.09.063l-.082.082-.054.07a1 1 0 0 0-.043.082c-.016.023-.031.066-.043.094a1.2 1.2 0 0 0-.047.414c.004.047.008.113.016.148.003.035.02.09.023.117l.031.11.043.117c.012.031.04.082.055.11.016.03.043.078.062.109.02.027.051.074.075.101A1 1 0 0 0 .406.05 1 1 0 0 0 .61.203a1 1 0 0 0 .098.04C.73.252.77.261.797.27c.027.003.078.01.117.01.066.005.074.005.121-.01l.086-.02.027-.012.086.028c.079.027.09.03.133.03A.4.4 0 0 0 1.48.281c.04-.015.094-.035.141-.058.04-.024.098-.055.125-.075.031-.023.086-.07.125-.109.043-.043.09-.094.11-.117.015-.027.046-.067.066-.098.02-.027.047-.078.062-.105.02-.031.043-.086.063-.125.015-.043.043-.106.055-.145.015-.039.03-.101.043-.133.007-.035.02-.093.023-.128s.008-.094.008-.153q.002-.093-.008-.152a1 1 0 0 0-.05-.195l-.04-.09-.058-.094c-.02-.024-.047-.059-.063-.074a.4.4 0 0 0-.062-.059.5.5 0 0 0-.079-.055c-.027-.015-.074-.043-.105-.054-.027-.012-.082-.024-.117-.032-.032-.007-.07-.011-.082-.015h-.028l.032-.016a.2.2 0 0 0 .062-.047.3.3 0 0 0 .055-.07l.031-.078.02-.106c.004-.035.007-.097.011-.132q.001-.066-.004-.09a.1.1 0 0 0-.02-.04c-.003-.011-.019-.023-.03-.027-.016-.007-.032-.015-.047-.015-.012-.004-.032 0-.043 0m-.016.148c-.027.02-.062.047-.082.055a.3.3 0 0 1-.074.023c-.024.004-.066.012-.098.016a.4.4 0 0 0-.086.02c-.015.007-.039.019-.05.03s-.028.036-.036.055a.2.2 0 0 0-.027.063c-.004.016-.012.047-.012.074 0 .02.008.05.008.063a.3.3 0 0 0 .02.05l.011.024.047-.028c.028-.011.063-.027.078-.03.016-.005.059-.012.09-.02.04 0 .074-.008.09-.012s.035-.012.047-.016a.2.2 0 0 0 .043-.03c.008-.016.023-.032.027-.044a.5.5 0 0 0 .04-.14.6.6 0 0 0 .011-.125c0-.04.004-.07 0-.07 0 0-.023.019-.047.042m-.77.27-.027.008c-.004 0 .02.027.051.058s.07.074.086.098c.02.02.043.062.059.086.011.027.027.07.039.093.007.028.011.07.015.098.004.035 0 .043-.004.043s-.027-.008-.054-.012a1 1 0 0 0-.102-.043 2 2 0 0 0-.215-.086.2.2 0 0 0-.09-.007.3.3 0 0 0-.093.02c-.028.007-.07.027-.098.038-.023.016-.066.04-.086.055-.023.02-.058.047-.07.066l-.059.067-.039.07c-.012.02-.023.055-.035.078l-.027.098-.016.09c0 .02-.004.086 0 .144A.9.9 0 0 0 .16-.64c.008.04.027.098.035.13.012.034.032.09.043.116a1.5 1.5 0 0 0 .196.301c.015.024.054.063.082.086S.578.047.598.06a.6.6 0 0 0 .16.078L.844.16a.36.36 0 0 0 .2-.012.3.3 0 0 1 .104-.02c.032 0 .051.005.114.024a.3.3 0 0 0 .11.028.3.3 0 0 0 .085-.016 1 1 0 0 0 .094-.039c.027-.012.07-.04.097-.055.028-.02.075-.05.098-.074a1 1 0 0 0 .086-.086 1 1 0 0 0 .117-.156l.055-.09.059-.121c.015-.04.042-.105.058-.152a1 1 0 0 0 .055-.25 1 1 0 0 0 0-.227 1 1 0 0 0-.02-.101l-.023-.083c-.012-.02-.024-.054-.035-.074-.008-.023-.032-.054-.043-.078a.6.6 0 0 0-.149-.148c-.019-.011-.05-.032-.074-.043s-.066-.028-.094-.035a1 1 0 0 0-.101-.02.3.3 0 0 0-.102.004.4.4 0 0 0-.078.031c-.023.008-.07.04-.105.059a1 1 0 0 1-.09.054.1.1 0 0 0-.04.016c-.015.004-.015 0-.027-.047a1 1 0 0 0-.027-.113 1 1 0 0 0-.04-.102.4.4 0 0 0-.05-.09.3.3 0 0 0-.047-.066c-.015-.016-.039-.031-.05-.043a.2.2 0 0 0-.04-.027L.918-2a.1.1 0 0 0-.027.012m.489.25c-.012.004-.035.015-.055.027s-.035.024-.035.027q-.001.007.004.008s.016-.008.031-.02c.016-.011.043-.023.059-.034.015-.008.027-.016.023-.016s-.015.004-.027.008m-.953.68a.3.3 0 0 0-.024.085 1 1 0 0 0-.02.34c.009.031.016.078.024.11.008.023.02.062.028.082a.3.3 0 0 0 .03.074c.009.02.032.054.048.082a1 1 0 0 0 .183.187c.024.02.067.047.094.063.027.012.05.023.063.02.007 0 .003-.008-.059-.07-.04-.036-.09-.09-.113-.118C.66-.234.625-.277.61-.305a1 1 0 0 1-.055-.093A1 1 0 0 1 .512-.5C.5-.527.488-.582.48-.617L.46-.738C.458-.773.458-.855.458-.922S.453-1.05.449-1.066c0-.012-.004-.02-.004-.02-.004 0-.011.012-.02.027"/><path fill="#8a0" d="M1.66-2.258c-.027.02-.062.047-.082.055a.3.3 0 0 1-.074.023c-.024.004-.066.012-.098.016a.4.4 0 0 0-.086.02c-.015.007-.039.019-.05.03s-.028.036-.036.055a.2.2 0 0 0-.027.063c-.004.016-.012.047-.012.074 0 .02.008.05.008.063a.3.3 0 0 0 .02.05l.011.024.047-.028c.028-.011.063-.027.078-.03.016-.005.059-.012.09-.02.04 0 .074-.008.09-.012s.035-.012.047-.016a.2.2 0 0 0 .043-.03c.008-.016.023-.032.027-.044a.5.5 0 0 0 .04-.14.6.6 0 0 0 .011-.125c0-.04.004-.07 0-.07 0 0-.023.019-.047.042M1.875.04l-.031.03zc.02-.017.031-.032.031-.032s-.015.012-.031.031"/></g></svg>