<svg xmlns="http://www.w3.org/2000/svg" width="868" height="46pt" viewBox="0 -46 651 46"><g id="page1"><path fill="none" stroke="#000" stroke-linecap="round" stroke-linejoin="round" d="M.5-.504h649.629M.5-44.746h649.629M.5-.504v-44.242M46.902-.504v-44.242M93.305-.504v-44.242M139.707-.504v-44.242M186.109-.504v-44.242M232.508-.504v-44.242M278.91-.504v-44.242M325.313-.504v-44.242M371.715-.504v-44.242M418.117-.504v-44.242M464.52-.504v-44.242M510.922-.504v-44.242M557.324-.504v-44.242M603.727-.504v-44.242M650.129-.504v-44.242"/><path d="M18.883-31.918c0-.55 0-.574-.477-.574-.574.648-1.77 1.531-4.23 1.531v.691c.55 0 1.742 0 3.058-.62v12.449c0 .863-.074 1.148-2.175 1.148h-.739v.691c.64-.046 2.961-.046 3.75-.046s3.082 0 3.727.046v-.691h-.742c-2.102 0-2.172-.285-2.172-1.148zm15.523 7.672c0-1.985-.12-3.918-.98-5.738-.98-1.98-2.7-2.508-3.871-2.508-1.387 0-3.082.695-3.97 2.676-.667 1.507-.905 2.988-.905 5.57 0 2.316.168 4.062 1.027 5.758.934 1.816 2.582 2.39 3.824 2.39 2.078 0 3.274-1.242 3.965-2.629.863-1.793.91-4.132.91-5.52m-4.875 7.668c-.765 0-2.32-.43-2.773-3.031-.262-1.438-.262-3.25-.262-4.926 0-1.957 0-3.727.383-5.137.406-1.601 1.625-2.344 2.652-2.344.907 0 2.293.551 2.75 2.606.309 1.363.309 3.25.309 4.875 0 1.601 0 3.418-.262 4.875-.453 2.629-1.96 3.082-2.797 3.082m43.516-6.976c0 5.64-2.508 6.813-3.945 6.813-.57 0-1.84-.074-2.438-.91h.145c.168.05 1.027-.094 1.027-.98 0-.524-.36-.977-.98-.977s-1.004.406-1.004 1.027c0 1.48 1.195 2.484 3.273 2.484 2.988 0 5.883-3.18 5.883-8.363 0-6.43-2.68-8.031-4.781-8.031-2.63 0-4.946 2.199-4.946 5.351 0 3.157 2.219 5.309 4.61 5.309 1.77 0 2.68-1.293 3.156-2.512zm-3.059 1.242c-1.507 0-2.152-1.218-2.367-1.671-.383-.907-.383-2.055-.383-3.13 0-1.34 0-2.488.621-3.464.43-.649 1.079-1.34 2.368-1.34 1.363 0 2.054 1.195 2.292 1.746.481 1.168.481 3.2.481 3.559 0 2.008-.91 4.3-3.012 4.3m51.418-1.933c0-1.985-.121-3.918-.98-5.738-.981-1.98-2.699-2.508-3.871-2.508-1.387 0-3.082.695-3.965 2.676-.672 1.507-.91 2.988-.91 5.57 0 2.316.168 4.062 1.027 5.758.934 1.816 2.582 2.39 3.824 2.39 2.078 0 3.274-1.242 3.965-2.629.863-1.793.91-4.132.91-5.52m-4.875 7.668c-.765 0-2.316-.43-2.773-3.031-.262-1.438-.262-3.25-.262-4.926 0-1.957 0-3.727.383-5.137.406-1.601 1.625-2.344 2.652-2.344.907 0 2.293.551 2.75 2.606.309 1.363.309 3.25.309 4.875 0 1.601 0 3.418-.262 4.875-.457 2.629-1.961 3.082-2.797 3.082m41.551-15.339c0-.55 0-.574-.477-.574-.574.648-1.769 1.531-4.23 1.531v.691c.551 0 1.742 0 3.059-.62v12.449c0 .863-.075 1.148-2.176 1.148h-.738v.691c.644-.046 2.96-.046 3.75-.046.789 0 3.082 0 3.726.046v-.691h-.738c-2.102 0-2.176-.285-2.176-1.148zm11.941 6.691c1.192-.644 2.938-1.746 2.938-3.75 0-2.082-2.008-3.515-4.207-3.515-2.363 0-4.231 1.746-4.231 3.922 0 .812.243 1.625.911 2.437.261.309.285.332 1.957 1.504-2.317 1.074-3.512 2.676-3.512 4.422 0 2.531 2.414 4.11 4.851 4.11 2.653 0 4.875-1.962 4.875-4.47 0-2.437-1.718-3.511-3.582-4.66m-3.25-2.152c-.312-.215-1.269-.836-1.269-2.004 0-1.555 1.625-2.535 3.226-2.535 1.723 0 3.25 1.242 3.25 2.965 0 1.457-1.05 2.625-2.437 3.39zm1.122 3.082 2.89 1.89c.621.407 1.723 1.15 1.723 2.606 0 1.817-1.84 3.059-3.754 3.059-2.031 0-3.774-1.485-3.774-3.465 0-1.863 1.36-3.371 2.915-4.09m36.589-7.621c0-.55 0-.574-.48-.574-.574.648-1.77 1.531-4.231 1.531v.691c.551 0 1.747 0 3.059-.62v12.449c0 .863-.07 1.148-2.172 1.148h-.742v.691c.645-.046 2.965-.046 3.754-.046.785 0 3.082 0 3.726.046v-.691h-.742c-2.101 0-2.172-.285-2.172-1.148zm13.563 8.363c0 5.64-2.508 6.813-3.945 6.813-.571 0-1.84-.074-2.438-.91h.145c.168.05 1.027-.094 1.027-.98 0-.524-.359-.977-.981-.977-.621 0-1.003.406-1.003 1.027 0 1.48 1.195 2.484 3.277 2.484 2.984 0 5.879-3.18 5.879-8.363 0-6.43-2.68-8.031-4.781-8.031-2.629 0-4.946 2.199-4.946 5.351 0 3.157 2.223 5.309 4.61 5.309 1.769 0 2.679-1.293 3.156-2.512zm-3.059 1.242c-1.508 0-2.152-1.218-2.367-1.671-.383-.907-.383-2.055-.383-3.13 0-1.34 0-2.488.621-3.464.43-.649 1.079-1.34 2.368-1.34 1.363 0 2.054 1.195 2.293 1.746.476 1.168.476 3.2.476 3.559 0 2.008-.906 4.3-3.008 4.3m37.852-2.601c0-6.047 2.937-7.004 4.23-7.004.86 0 1.719.262 2.172.98-.285 0-1.195 0-1.195.981 0 .523.359.98.98.98.602 0 1.004-.359 1.004-1.054 0-1.242-.91-2.461-2.984-2.461-3.012 0-6.168 3.082-6.168 8.34 0 6.574 2.867 8.054 4.898 8.054 2.606 0 4.828-2.27 4.828-5.379 0-3.175-2.222-5.304-4.613-5.304-2.125 0-2.914 1.84-3.152 2.511zm2.937 8.172c-1.504 0-2.222-1.34-2.437-1.84-.211-.621-.453-1.793-.453-3.465 0-1.89.859-4.254 3.011-4.254 1.317 0 2.008.883 2.368 1.695.382.883.382 2.079.382 3.106 0 1.219 0 2.297-.457 3.203-.597 1.149-1.457 1.555-2.414 1.555m51.036-3.871h-.524c-.07.406-.262 1.718-.5 2.101-.168.215-1.531.215-2.25.215h-4.418c.645-.55 2.102-2.078 2.723-2.652 3.633-3.348 4.969-4.59 4.969-6.953 0-2.75-2.172-4.59-4.946-4.59s-4.398 2.367-4.398 4.422c0 1.218 1.054 1.218 1.125 1.218.5 0 1.125-.359 1.125-1.125 0-.668-.457-1.12-1.125-1.12-.215 0-.262 0-.336.023.457-1.625 1.746-2.723 3.301-2.723 2.031 0 3.273 1.695 3.273 3.895 0 2.03-1.172 3.8-2.535 5.328l-4.828 5.402v.57h8.726zm38.828-4.301c0-6.047 2.937-7.004 4.226-7.004.863 0 1.723.262 2.176.98-.285 0-1.195 0-1.195.981 0 .523.359.98.98.98.598 0 1.004-.359 1.004-1.054 0-1.242-.91-2.461-2.988-2.461-3.008 0-6.164 3.082-6.164 8.34 0 6.574 2.867 8.054 4.898 8.054 2.606 0 4.828-2.27 4.828-5.379 0-3.175-2.222-5.304-4.613-5.304-2.125 0-2.914 1.84-3.152 2.511zm2.937 8.172c-1.504 0-2.223-1.34-2.437-1.84-.215-.621-.453-1.793-.453-3.465 0-1.89.859-4.254 3.011-4.254 1.313 0 2.004.883 2.364 1.695.382.883.382 2.079.382 3.106 0 1.219 0 2.297-.453 3.203-.597 1.149-1.457 1.555-2.414 1.555m44.918-8.438c-.406.024-.5.047-.5.266 0 .238.117.238.551.238h1.098c2.031 0 2.937 1.672 2.937 3.965 0 3.133-1.625 3.969-2.793 3.969-1.148 0-3.109-.551-3.801-2.13.766.122 1.457-.308 1.457-1.167 0-.695-.5-1.172-1.172-1.172-.57 0-1.195.332-1.195 1.242 0 2.125 2.129 3.871 4.781 3.871 2.844 0 4.946-2.175 4.946-4.59 0-2.195-1.766-3.918-4.063-4.324 2.078-.597 3.418-2.34 3.418-4.207 0-1.886-1.957-3.273-4.277-3.273-2.391 0-4.156 1.457-4.156 3.203 0 .957.738 1.148 1.097 1.148.504 0 1.074-.359 1.074-1.078 0-.765-.57-1.097-1.097-1.097-.145 0-.192 0-.262.023.906-1.625 3.152-1.625 3.274-1.625.789 0 2.339.36 2.339 2.7 0 .452-.07 1.792-.761 2.82-.719 1.05-1.532 1.125-2.176 1.148zm42.988-6.738c0-.55 0-.574-.48-.574-.574.648-1.77 1.531-4.231 1.531v.691c.551 0 1.747 0 3.059-.62v12.449c0 .863-.07 1.148-2.172 1.148h-.742v.691c.645-.046 2.965-.046 3.754-.046.785 0 3.082 0 3.726.046v-.691h-.742c-2.101 0-2.172-.285-2.172-1.148zm16.168.477v-.547h-5.761c-2.891 0-2.938-.313-3.036-.766h-.523l-.742 4.777h.527c.071-.43.285-1.91.598-2.171.191-.145 1.98-.145 2.316-.145h5.067l-2.535 3.633c-.645.933-3.055 4.851-3.055 9.344 0 .261 0 1.218.976 1.218 1.004 0 1.004-.933 1.004-1.242v-1.195c0-3.563.575-6.332 1.7-7.934zm30.231-.477c0-.55 0-.574-.477-.574-.574.648-1.769 1.531-4.23 1.531v.691c.551 0 1.742 0 3.058-.62v12.449c0 .863-.074 1.148-2.175 1.148h-.739v.691c.645-.046 2.961-.046 3.75-.046s3.082 0 3.727.046v-.691h-.742c-2.102 0-2.172-.285-2.172-1.148zm13.445-.238c0-.453 0-.575-.336-.575-.191 0-.262 0-.453.286l-7.195 11.16v.695h6.285v2.176c0 .883-.047 1.121-1.789 1.121h-.481v.691c.551-.046 2.438-.046 3.11-.046.668 0 2.578 0 3.129.046v-.691h-.481c-1.719 0-1.789-.238-1.789-1.121v-2.176h2.414v-.695h-2.414zm-1.578 1.863v9.008h-5.809zm34.531-1.625c0-.55 0-.574-.476-.574-.575.648-1.77 1.531-4.231 1.531v.691c.551 0 1.746 0 3.059-.62v12.449c0 .863-.07 1.148-2.172 1.148h-.742v.691c.644-.046 2.961-.046 3.75-.046s3.086 0 3.726.046v-.691h-.738c-2.102 0-2.176-.285-2.176-1.148zm15.332 11.305h-.523c-.074.406-.262 1.718-.5 2.101-.168.215-1.531.215-2.25.215h-4.418c.644-.55 2.101-2.078 2.723-2.652 3.632-3.348 4.968-4.59 4.968-6.953 0-2.75-2.172-4.59-4.945-4.59s-4.398 2.367-4.398 4.422c0 1.218 1.05 1.218 1.125 1.218.5 0 1.121-.359 1.121-1.125 0-.668-.453-1.12-1.121-1.12-.215 0-.262 0-.336.023.457-1.625 1.746-2.723 3.3-2.723 2.032 0 3.274 1.695 3.274 3.895 0 2.03-1.172 3.8-2.535 5.328l-4.828 5.402v.57h8.722zm40.602 0h-.527c-.071.406-.262 1.718-.5 2.101-.168.215-1.532.215-2.247.215h-4.421c.648-.55 2.101-2.078 2.722-2.652 3.637-3.348 4.973-4.59 4.973-6.953 0-2.75-2.172-4.59-4.949-4.59-2.77 0-4.395 2.367-4.395 4.422 0 1.218 1.051 1.218 1.121 1.218.504 0 1.125-.359 1.125-1.125 0-.668-.453-1.12-1.125-1.12-.211 0-.262 0-.332.023.453-1.625 1.746-2.723 3.297-2.723 2.031 0 3.273 1.695 3.273 3.895 0 2.03-1.167 3.8-2.531 5.328l-4.828 5.402v.57h8.723zm40.281-4.567c-.406.024-.5.047-.5.266 0 .238.117.238.551.238h1.098c2.031 0 2.937 1.672 2.937 3.965 0 3.133-1.625 3.969-2.793 3.969-1.148 0-3.109-.551-3.801-2.13.766.122 1.457-.308 1.457-1.167 0-.695-.5-1.172-1.172-1.172-.57 0-1.195.332-1.195 1.242 0 2.125 2.129 3.871 4.781 3.871 2.844 0 4.946-2.175 4.946-4.59 0-2.195-1.766-3.918-4.063-4.324 2.078-.597 3.418-2.34 3.418-4.207 0-1.886-1.957-3.273-4.277-3.273-2.391 0-4.156 1.457-4.156 3.203 0 .957.738 1.148 1.097 1.148.504 0 1.074-.359 1.074-1.078 0-.765-.57-1.097-1.097-1.097-.145 0-.192 0-.262.023.906-1.625 3.152-1.625 3.274-1.625.789 0 2.339.36 2.339 2.7 0 .452-.07 1.792-.761 2.82-.719 1.05-1.532 1.125-2.176 1.148z"/></g></svg>