<svg xmlns="http://www.w3.org/2000/svg" width="376" height="376" viewBox="0 -282 282 282"><g id="page1"><path fill="#79ac14" d="M100.695-80.367c-8.285 14.305-19.578 30.87-27.86 41.41 0 3.012.755 6.023.755 9.789 3.012 15.059 15.812 26.356 29.363 24.094 13.555-2.258 22.59-16.563 19.578-32.375-.754-6.778-6.023-22.59-12.047-38.403-3.011-.754-6.777-2.257-9.789-4.515"/><path fill="none" stroke="#000" stroke-linecap="round" stroke-linejoin="round" stroke-width="9.563" d="M100.695-80.367c-8.285 14.305-19.578 30.87-27.86 41.41 0 3.012.755 6.023.755 9.789 3.012 15.059 15.812 26.356 29.363 24.094 13.555-2.258 22.59-16.563 19.578-32.375-.754-6.778-6.023-22.59-12.047-38.403-3.011-.754-6.777-2.257-9.789-4.515"/><path fill="#79ac14" d="M80.363-100.699c-14.304 8.285-30.87 19.578-41.41 27.86-3.012 0-6.023-.755-9.789-.755C14.105-76.606 2.813-89.406 5.07-102.957c2.258-13.555 16.563-21.836 32.375-19.578 6.778.754 22.59 6.023 38.403 12.047.754 3.011 2.258 6.777 4.515 9.789"/><path fill="none" stroke="#000" stroke-linecap="round" stroke-linejoin="round" stroke-width="9.563" d="M80.363-100.699c-14.304 8.285-30.87 19.578-41.41 27.86-3.012 0-6.023-.755-9.789-.755C14.105-76.606 2.813-89.406 5.07-102.957c2.258-13.555 16.563-21.836 32.375-19.578 6.778.754 22.59 6.023 38.403 12.047.754 3.011 2.258 6.777 4.515 9.789"/><path fill="#a4cd34" d="M89.402-89.406q-5.647-4.513-9.039-11.293C61.54-90.91 38.2-73.594 31.422-66.816c-11.293 11.293-12.047 27.859-2.258 37.648 9.035 9.79 26.356 8.281 37.649-2.258 6.777-6.777 23.34-30.117 33.882-48.941q-6.78-3.392-11.293-9.04"/><path fill="none" stroke="#000" stroke-linecap="round" stroke-linejoin="round" stroke-width="9.563" d="M89.402-89.406q-5.647-4.513-9.039-11.293C61.54-90.91 38.2-73.594 31.422-66.816c-11.293 11.293-12.047 27.859-2.258 37.648 9.035 9.79 26.356 8.281 37.649-2.258 6.777-6.777 23.34-30.117 33.882-48.941q-6.78-3.392-11.293-9.04"/><path fill="#d5b111" d="M89.402-89.406c23.34 23.344 61.743 21.836 85.836-3.008 37.645-37.649 124.235-151.344 96.375-179.203s-141.554 58.73-179.203 96.375c-24.844 24.847-26.351 62.496-3.008 85.836"/><path fill="#b5970e" d="M89.402-89.406c-9.789-21.832-4.52-49.692 14.305-68.516 35.387-35.391 137.789-112.945 173.18-100.144 0-6.024-1.508-10.539-5.274-13.551-27.859-27.86-141.554 58.73-179.203 96.375-24.844 24.094-26.351 62.496-3.008 85.836"/><g fill="none" stroke="#000" stroke-linecap="round" stroke-linejoin="round" stroke-width="9.563"><path d="M96.93-180.512s22.59 7.532 45.175 30.117m44.426-24.093s14.305 12.8 29.364 33.883m-87.34-66.258s18.824 5.269 30.871 17.316m-6.024-35.391s19.575 3.766 39.907 24.098m51.953 15.813s-8.282-15.813-24.848-29.368m-27.859 103.157s-4.52-13.555-17.317-26.356m65.504-110.683s-10.539-12.047-23.34-17.317M54.766-54.77l34.636-34.636m7.528 48.191-4.52-25.601m-51.2-30.118 25.603 4.52"/><path d="M89.402-89.406c23.34 23.344 61.743 21.836 85.836-3.008 37.645-37.649 124.235-151.344 96.375-179.203s-141.554 58.73-179.203 96.375c-24.844 24.847-26.351 62.496-3.008 85.836"/></g></g></svg>