<?xml version="1.0" encoding="UTF-8" standalone="no"?>
<svg
   width="800"
   height="800"
   viewBox="0 0 800 800"
   version="1.1"
   id="svg844"
   sodipodi:docname="calcolatrice.svg"
   inkscape:version="1.1 (c4e8f9e, 2021-05-24)"
   xmlns:inkscape="http://www.inkscape.org/namespaces/inkscape"
   xmlns:sodipodi="http://sodipodi.sourceforge.net/DTD/sodipodi-0.dtd"
   xmlns="http://www.w3.org/2000/svg"
   xmlns:svg="http://www.w3.org/2000/svg">
  <defs
     id="defs848" />
  <sodipodi:namedview
     id="namedview846"
     pagecolor="#ffffff"
     bordercolor="#666666"
     borderopacity="1.0"
     inkscape:pageshadow="2"
     inkscape:pageopacity="0.0"
     inkscape:pagecheckerboard="0"
     showgrid="false"
     inkscape:zoom="0.94125"
     inkscape:cx="399.46879"
     inkscape:cy="400"
     inkscape:window-width="1792"
     inkscape:window-height="1067"
     inkscape:window-x="0"
     inkscape:window-y="26"
     inkscape:window-maximized="0"
     inkscape:current-layer="svg844" />
  <path
     d="m 462.801,587.75 c -2.13575,8.79024 -14.77454,22.18714 -5.25114,28.97109 5.69665,2.49763 17.87618,5.07288 20.84902,4.48532 -8.41185,-6.07641 6.35759,-12.81337 11.77096,-7.45332 7.46375,4.13808 21.07466,-0.34889 24.58152,9.02722 -1.25149,11.25635 -19.74595,-1.10477 -21.30857,2.73614 9.76608,2.94604 20.20521,2.88713 29.84948,6.3077 7.46592,4.3272 16.17442,0.73264 15.74199,-8.42768 4.77439,-7.94519 7.96364,-22.48645 -5.53413,-21.90601 -10.32685,-2.87183 -21.14063,-4.17039 -31.34839,-7.17323 -11.55634,-4.54282 -24.17011,-5.8737 -36.44325,-7.02148 l -1.4667,0.13854 z"
     stroke="none"
     fill="#f1a96e"
     fill-rule="evenodd"
     id="path824" />
  <path
     d="m 397.5,113.085 c -7.0897,7.43075 -14.50266,14.7379 -21.34378,22.23035 -3.66603,2.07065 -9.763,10.22831 -2.81415,4.12771 9.11924,-5.09673 -4.06822,10.89713 -5.19972,15.37403 -4.41762,5.33917 -6.82222,11.04088 -10.14235,16.12991 -1.59824,3.61152 -20.10743,0.83839 -8.73784,3.33508 13.87069,1.90312 27.60924,5.53601 41.70437,5.19443 7.73578,-6.53188 13.55246,-15.01452 20.86536,-21.80033 3.43373,-5.36212 -5.60201,3.78902 -2.46391,-2.74119 7.25632,-5.41497 9.73576,-12.91982 12.02839,-21.26036 2.19809,-8.45776 9.30147,-14.1241 9.22525,-23.38088 7.66563,-2.23955 2.6715,-9.6842 -3.51106,-7.8537 -10.1197,-4.306383 -20.81054,-1.27186 -26.82893,7.8761 -0.92753,0.92264 -1.85274,1.84759 -2.78163,2.76885 z m 92.672,-1.326 c -24.76535,22.83652 -48.27967,47.0043 -71.80593,71.08375 -2.74701,5.08492 5.29885,3.44787 3.18765,-1.36705 4.73819,-7.11651 11.4238,-12.82069 17.97113,-18.25983 0.9811,-2.03194 9.93651,-5.20563 5.16811,-5.35559 8.05521,-1.33636 -3.80194,9.05877 -6.25927,11.35392 -2.45116,1.6608 -5.1727,7.90125 -1.684,6.08338 -1.75021,4.2602 -13.94342,10.95834 -3.11784,9.62556 8.28427,1.25483 -9.53188,0.98202 0.23144,3.20464 8.49543,4.04055 14.67155,-0.67074 19.48522,-7.55505 8.93799,-9.39291 18.11621,-18.57544 26.50268,-28.47518 -0.21169,-5.9151 4.96464,-2.39256 5.63681,-7.75595 3.72723,1.08879 0.30059,-8.77347 4.67776,-11.58248 3.31818,-4.68864 8.44862,-14.48029 7.9228,-15.10155 -4.70175,-1.91887 7.05896,-2.3614 -1.43709,-3.83704 -2.09213,-0.86523 -4.20338,-1.8148 -6.47947,-2.06153 z"
     stroke="none"
     fill="#cce8f4"
     fill-rule="evenodd"
     id="path826" />
  <path
     d="m 269.464,79.388 c -11.98274,3.597019 -9.77851,18.732432 -12.94286,28.33041 -3.24641,16.07107 -7.2928,32.02083 -9.10841,48.34503 6.51395,8.28796 19.0927,4.57099 28.08302,8.17814 63.9929,10.65161 128.01386,21.17671 192.06622,31.44802 19.47443,3.35339 38.9399,6.75421 58.51882,9.4798 7.92788,1.33872 18.85969,3.49761 28.44352,4.85166 10.34286,2.32168 20.98724,2.65309 31.2655,5.16992 0.98654,-1.07609 -3.24112,-2.78512 2.08691,-1.00922 7.87758,4.37717 16.36386,1.44743 24.71478,5.6338 5.26968,1.05974 11.40827,0.35339 11.52755,-3.48301 2.24679,0.31552 -1.01296,6.44856 4.68502,4.42234 -3.7767,-5.22899 12.76324,4.17335 2.0341,1.36464 5.92632,2.21961 16.22881,2.69568 23.33851,4.03741 -3.70171,-4.10345 5.82216,3.5232 9.22861,0.90277 9.31033,1.61614 18.51617,-2.60025 18.34829,-13.38376 1.29119,-3.87108 2.00121,-11.84304 -0.86033,-3.20695 1.41661,-8.04184 5.76472,-16.24657 5.43387,-25.03078 -0.17496,-6.62112 2.99065,-13.40142 3.46337,-20.23219 0.037,-7.08941 5.66649,-18.25766 -4.68914,-20.05769 -16.15047,-4.39346 -32.91229,-6.2214 -49.39565,-9.12277 -42.78213,-7.06358 -85.79264,-12.97771 -128.30401,-21.51236 -2.77771,-0.67288 -4.65906,-1.24874 -1.72621,-2.74006 -3.52778,0.64176 -19.85495,-0.20417 -8.43831,2.15885 7.29063,1.49078 -5.60383,2.80597 2.65558,4.271 -5.82128,4.71076 -9.38745,14.20953 -12.5741,22.1667 -0.46335,4.54938 -5.24308,8.94994 -6.93502,8.79287 -3.2595,10.17975 -13.87135,15.5456 -19.92599,23.97936 -8.36925,8.08187 -14.9207,21.30381 -28.23113,14.80129 -5.10633,-1.59008 -21.07474,-0.82927 -11.9424,-8.22444 22.03409,-21.22221 43.77803,-42.79845 65.1708,-64.69241 5.70832,-4.97509 -9.25492,-3.52421 -12.77326,-5.47627 -12.96481,-2.36457 -25.99763,-4.33227 -39.03665,-6.23685 3.51876,4.65717 -5.26433,7.64639 -3.98074,13.55924 -3.74224,7.34464 -8.60176,15.53699 -10.58103,23.49137 -1.36437,6.29864 -8.60375,13.40684 -9.82084,16.83132 8.40825,-3.24645 -6.89573,9.32313 -9.33261,13.2285 -4.58146,10.35809 -16.40249,10.26263 -25.86484,7.85316 -11.21922,-1.53498 -22.31483,-3.84117 -33.52006,-5.46634 2.80363,-9.23046 13.07072,-13.81677 18.6626,-21.41239 17.51578,-17.39161 34.84046,-34.99314 53.06647,-51.649407 C 371.48629,93.474806 330.81383,86.460143 290.07523,79.928403 283.30775,79.406881 276.17771,78.017826 269.464,79.388 Z"
     stroke="none"
     fill="#88cae4"
     fill-rule="evenodd"
     id="path828" />
  <path
     d="m 265.247,71.85 c -10.88634,3.783306 -9.13145,17.393142 -11.7988,26.419835 -3.38366,18.180565 -8.82643,36.269305 -9.12053,54.827835 0.098,4.31712 5.18783,7.98183 3.156,1.35377 1.59397,-14.51416 6.28159,-28.56449 6.92942,-43.20149 6.76803,-8.27826 1.59601,-21.986253 9.23878,-28.829501 13.94403,-8.109371 29.98663,-0.673678 44.75712,0.07716 22.11354,4.790153 44.75169,7.047928 66.96916,11.488226 7.95659,1.403018 15.98931,2.60656 24.08585,2.650915 8.43453,5.9715 19.45565,-3.813981 27.75682,4.06659 16.12442,4.33507 32.77449,6.52658 49.19158,9.56934 9.0996,3.7657 16.93478,-3.0966 26.02338,-0.0611 8.92777,0.19989 10.18855,8.43332 20.06096,7.3883 51.85306,9.14609 104.13133,16.42404 155.96849,25.68238 4.58162,2.16497 18.10158,5.76503 8.87135,-1.90262 -9.94317,-6.91251 -22.76229,-6.19342 -34.15068,-8.92013 C 593.574,122.43567 533.86464,112.97634 474.19469,103.32354 463.409,102.71476 453.26419,98.84776 442.35226,98.39625 425.58875,95.657284 408.94154,91.817515 391.968,90.52 c -9.18891,-3.674949 -19.40735,-3.15368 -28.98794,-5.375039 -9.54431,-1.5677 -19.10977,-3.414985 -28.81667,-3.46943 C 322.68249,77.128682 310.01969,77.25073 298.043,74.61404 287.25868,72.664235 276.24491,70.12697 265.247,71.85 Z m 292.988,203.4 c -2.46138,8.2289 -10.0406,20.48837 -6.95949,26.92691 8.55899,0.96482 21.96614,6.58337 27.74988,3.01476 -2.99439,-5.47857 -2.80453,-11.3587 4.7941,-8.16269 6.7429,-0.12851 6.7088,12.94501 12.37138,5.33626 5.32466,-4.31309 19.3305,0.64314 8.74068,5.63212 -3.86084,2.6572 -8.37671,6.28292 -0.43634,4.18203 7.74246,-1.48164 21.79146,9.07745 25.14829,-0.85966 0.34029,-6.3889 10.86467,-18.73808 0.68779,-19.80365 -23.36778,-6.28909 -47.94458,-6.7265 -71.06379,-14.06958 -3.70895,4.40087 2.87853,-6.81422 -1.0325,-2.1965 z M 153.591,412.899 c -2.5622,7.93138 -13.44167,20.51327 -6.17355,26.85166 8.79866,2.50465 18.11164,2.78879 26.71396,6.20734 5.8383,4.84279 8.92704,-5.84251 2.32531,-2.38341 -7.21555,3.51507 -10.43777,-5.81711 -2.48669,-7.38459 5.87962,-3.29449 21.3551,-14.58311 23.16961,-3.15571 -1.38748,6.29595 -12.13757,18.64191 1.17451,16.98857 8.78869,3.91032 22.25042,5.61672 22.43455,-7.71888 -0.35179,-5.16876 9.76749,-15.22439 -0.9232,-11.81901 -7.76834,-3.64038 -18.92303,-3.27388 -25.90956,-4.9443 -5.92709,-2.15297 -13.22426,-4.5146 -20.29352,-4.7739 -5.61694,-3.00925 -19.70402,0.67438 -19.50435,-6.77571 2.34996,-1.94352 2.01806,-4.27468 -0.52707,-1.09206 z m 107.939,25.825 c -1.2254,7.3937 -13.33885,21.616 -1.07514,24.58063 11.45852,2.01134 22.92657,4.52684 34.2272,6.93785 7.56843,0.44431 10.78547,-15.85051 1.67968,-9.6697 -6.56038,7.59527 -19.89873,-4.55856 -7.55127,-8.16635 8.93069,-5.05642 26.71621,-2.38286 26.63198,9.98475 -2.9987,5.30899 -6.64985,13.38021 2.80318,13.02288 10.26582,4.8458 15.77983,-5.93899 17.16773,-14.23739 3.64148,-4.70267 4.12729,-12.67469 -4.04259,-9.99773 -8.0189,-1.84465 -17.05316,-0.12518 -23.79118,-4.62889 -10.0313,-1.69719 -20.59671,-3.49834 -30.7493,-5.89962 -4.7543,-2.13003 -10.17622,-2.49091 -15.30029,-1.92643 z m 232.073,42.526 c -2.85795,8.47787 -9.19797,19.32181 -7.07297,27.25649 9.18039,4.26828 19.78172,5.56271 29.72223,4.34736 10.27132,0.53594 19.94009,4.15276 29.2278,8.27352 7.71794,1.95419 20.78627,8.89693 23.11088,-3.4466 1.5976,-6.7186 5.21034,-15.07914 4.96871,-21.00015 -5.9972,1.89737 -18.69418,-0.72788 -26.54146,-3.62056 -13.47524,-3.10082 -27.66929,-3.25392 -40.69136,-8.22957 -7.72593,3.02885 -12.22977,-6.49414 -12.45749,-3.92794 z"
     stroke="none"
     fill="#6b82b6"
     fill-rule="evenodd"
     id="path830" />
  <path
     d="m 253.082,34.144 c -11.27975,3.887094 -19.69068,14.137092 -22.6047,25.548937 4.07822,-8.231413 9.53229,-16.900591 19.37959,-18.620227 16.83199,-3.608221 34.28398,-3.150951 51.42755,-3.272748 67.55019,1.832034 134.82692,9.439771 201.68731,18.935918 63.38875,9.388678 126.42598,21.51133 188.36418,38.022348 10.3171,2.37469 20.67711,4.685742 30.00025,9.924182 9.4543,6.10898 -4.41711,-5.332918 -8.9398,-5.834191 C 682.72312,89.144589 652.16893,82.389018 621.81981,75.152904 529.92548,54.360478 436.52027,39.528363 342.43525,33.694703 c -28.0795,-1.541293 -56.28113,-2.422724 -84.36509,-0.770529 -1.6913,0.275382 -3.35919,0.689167 -4.98816,1.219826 z m 123.445,103.812 c -8.3538,5.18132 -14.67875,13.03873 -22.05437,19.46158 -4.01835,4.58799 -12.3653,10.90372 -13.41168,14.72712 7.35529,0.73585 16.29728,2.222 18.76113,-3.76782 3.1077,-7.1546 7.3311,-11.64185 11.21315,-19.13919 1.13435,-2.37886 8.41421,-11.5199 5.49177,-11.28169 z m 67.618,20.389 c -5.54699,8.15258 -14.598,12.93047 -21.04739,20.28253 -5.98741,3.61272 -3.88874,8.99678 3.05123,7.53518 3.55563,0.76872 14.77839,-1.14529 5.14016,-1.38571 -8.11621,-0.7077 10.22087,-8.18524 3.97683,-11.39712 2.05646,-5.38892 15.53441,-12.08754 10.83289,-16.6118 l -0.95047,0.52299 z m -168.062,16.053 c 89.92586,19.78493 181.00951,33.60455 271.86098,48.3261 37.50364,5.78958 75.02473,11.99633 112.88497,14.8941 4.0255,0.72508 17.59162,-1.35854 14.62659,-2.44068 -26.82634,-0.91052 -53.12647,-6.8939 -79.64278,-10.59541 -106.413,-16.94297 -212.86607,-33.83196 -319.27968,-50.64705 l -0.37787,0.12565 -0.0722,0.33728 z m 303.11,127.922 c 6.84886,8.55513 -3.84435,16.11619 -9.60966,20.72769 6.75343,7.78652 15.1457,-7.40091 20.30259,-1.95927 -3.05699,9.5429 16.87789,10.7877 9.89421,0.63881 -6.18914,-7.96913 1.67846,-11.78167 6.75114,-16.29758 0.25076,-8.68423 -11.87176,-2.32624 -14.83163,1.89941 0.19875,-5.76471 -12.27103,-13.522 -13.95357,-8.31781 0.4827,1.10381 1.18274,2.11325 1.44692,3.30875 z m 101.8,67.93 c -15.77248,53.58507 -33.145,106.68268 -49.50783,160.08893 -16.05453,50.98262 -31.76418,102.08448 -48.25213,152.92243 -5.45658,15.54965 -15.70445,31.48336 -32.67083,35.73397 -27.16259,6.84481 -55.29837,0.79382 -82.18257,-4.51248 -134.97946,-28.51563 -269.83899,-57.68767 -404.751502,-86.4653 -4.108796,-1.04247 -16.197469,-9.30078 -7.575332,-1.75573 12.047286,9.36679 27.934164,10.41857 42.208821,14.23213 115.440103,25.09082 230.572133,51.57206 345.886183,77.22992 25.85849,5.57421 51.54711,12.29234 77.72472,16.16576 15.62791,1.6709 33.43929,0.4761 45.27584,-11.10999 8.52624,-6.05716 13.04042,-15.7569 17.74565,-24.75123 16.7372,-49.21779 30.18785,-99.47129 45.36079,-149.1801 17.56991,-59.73791 35.09791,-119.5788 52.54945,-179.29487 -0.50552,-1.04843 -2.00174,-0.2749 -1.81126,0.69656 z m -493.016,59.278 c -4.19345,5.10937 -21.00197,6.23763 -16.15143,13.53622 9.65194,-3.89982 10.87796,7.22292 5.37586,12.77091 -6.1723,6.44352 2.81946,19.19402 7.62307,8.14583 4.91824,-9.59858 7.21053,-20.3749 9.60794,-30.82284 1.21726,-4.79233 -3.04895,-6.2097 -6.45544,-3.63012 z m 104.589,22.01 c -9.40302,0.7275 -9.50596,15.39075 0.89458,8.75731 5.58362,-5.33939 15.83173,0.89442 7.45112,6.60095 -8.99029,6.26782 -20.60533,9.56887 -26.37768,18.50176 6.65847,5.40099 19.48908,5.62749 28.81986,7.12023 7.6446,-4.15438 0.18159,-10.59197 -5.70992,-8.70276 -7.07085,-0.31985 -5.57228,-5.48807 0.32409,-5.91775 9.11948,-2.47016 22.71793,-13.46988 12.80697,-22.79051 -4.81522,-4.33902 -12.11456,-5.56467 -18.20902,-3.56923 z m 218.699,64.763 c 1.56493,10.15011 16.87101,4.89441 23.93111,8.9488 9.57504,-6.03792 -2.96811,-10.40573 -9.02323,-10.08534 -4.55023,0.59155 -15.09856,-6.63619 -14.90788,1.13654 z m -33.102,96.008 c -8.02429,12.8257 12.05316,9.58638 19.17067,12.93125 5.87447,2.06564 21.56766,4.99963 15.67801,-6.00232 -8.69875,-3.82411 -19.30135,-3.83108 -28.67969,-6.67522 -1.93762,0.1197 -4.58522,-1.9345 -6.16899,-0.25371 z m -5.803,18.941 c 0.82373,10.52641 16.54597,6.09797 23.5885,10.61211 5.41237,3.95341 17.99921,0.55989 12.86882,-6.59773 C 497.7575,632.29883 486.54231,629.93321 475.258,628 c -1.81477,-0.15806 -2.61177,1.8205 -2.898,3.25 z"
     stroke="none"
     fill="#fdfbef"
     fill-rule="evenodd"
     id="path832" />
  <path
     d="m 461.866,581.511 c -8.82393,6.49848 -8.5958,18.4922 -12.49469,27.70778 2.04304,0.40014 -4.42161,10.19344 -4.83872,14.86034 -1.93472,10.52357 -12.50919,22.64428 -4.63429,32.72606 9.1472,7.25828 21.80003,6.34286 32.54501,9.68632 17.55977,3.82744 35.00455,8.29939 52.79969,10.9415 8.51203,-12.2794 10.73116,-27.52408 16.2244,-41.19728 3.00776,-4.66604 -3.37566,-6.22719 3.2396,-8.86272 1.27698,-8.86948 11.77969,-20.88647 1.79415,-27.84089 -10.08009,-5.38575 -21.96366,-5.69414 -32.79488,-8.99621 -15.78659,-3.64995 -31.44458,-8.27229 -47.54908,-10.25162 -1.49959,0.0402 -3.01903,0.40559 -4.29119,1.22672 z m 0.935,6.239 c -2.13576,8.84358 -15.33078,22.92798 -4.64316,29.19412 11.71404,4.31224 24.38422,5.18553 36.30402,8.91915 13.26201,2.38904 26.36813,5.6729 39.68051,7.8766 6.35443,-7.6732 9.40682,-20.57383 8.37814,-29.18712 -9.02091,-4.44274 -19.42319,-4.6839 -28.93117,-7.76067 -16.08042,-3.57905 -32.19627,-7.99687 -48.35367,-10.61709 -1.02349,0.18317 -1.65516,0.96779 -2.43467,1.57501 z m 92.677,23.791 c -1.75476,11.38292 -8.04028,21.48834 -9.75075,32.88187 -4.37874,6.73929 -5.10751,15.05137 -8.23767,22.35259 -0.27231,12.06585 -10.69996,20.06916 -22.40457,16.30502 -15.68124,-3.1742 -31.07326,-7.7433 -46.78127,-10.89549 -8.25832,-1.47421 -16.23664,-4.01153 -24.31173,-6.08734 -6.89664,2.00739 7.89493,6.21292 11.44634,6.27938 25.33371,4.53872 50.01552,12.82345 75.65928,15.80888 7.77862,-4.39924 7.66537,-16.89008 12.07817,-24.55932 3.87828,-11.94546 6.38995,-24.39279 12.04883,-35.69948 1.25003,-2.289 5.4362,-20.52109 0.25337,-16.38611 z m -83.817,19.941 c -0.49455,11.89136 17.55473,5.6473 24.64965,11.1878 6.19764,3.9727 19.84205,-1.23988 12.25147,-8.41283 -11.09823,-2.45668 -22.09892,-5.42751 -33.35203,-7.12359 -2.34438,0.0134 -2.89765,2.64476 -3.54909,4.34862 z"
     stroke="none"
     fill="#f8853b"
     fill-rule="evenodd"
     id="path834" />
  <path
     d="m 224.531,210.678 c -9.59402,6.11557 -11.09274,18.50566 -15.54659,28.13158 -4.27046,11.05914 -9.15818,22.08416 -10.70176,33.94266 3.01837,11.9673 18.78851,7.57958 27.76581,11.32692 15.37609,2.77243 30.71532,5.78631 46.18798,7.98637 11.97097,-1.70288 12.89987,-16.31599 17.58996,-25.09554 4.56975,-12.35198 11.64331,-24.31358 12.74876,-37.58675 -3.78575,-10.74222 -18.24113,-7.81562 -27.12369,-10.86787 -16.60719,-2.83892 -33.08778,-7.75147 -50.0015,-7.99066 l -0.51445,0.0858 z m 104.02,21.7 c -7.68218,10.3198 -9.85729,23.4039 -14.80785,35.07286 -3.06303,8.18633 -6.45811,16.69622 -5.72103,25.61277 5.28091,10.61728 19.30499,7.8669 28.97922,10.56122 16.37465,2.19902 32.55475,7.203 49.08858,7.36596 10.53796,-4.04072 9.78816,-17.71542 14.85575,-26.27169 4.83686,-12.08537 9.96485,-24.23243 12.01413,-37.1707 -5.81673,-10.02685 -19.79119,-6.53634 -29.29557,-10.1384 -16.52469,-2.76593 -32.88572,-8.8619 -49.80469,-7.76522 -1.97226,0.38993 -3.93021,1.22357 -5.30854,2.7332 z m 112.781,17.055 c -8.49297,9.14355 -10.07971,22.17074 -14.63935,33.38357 -3.23533,10.27127 -8.10442,20.73558 -7.48173,31.65327 5.59436,9.86983 19.77509,5.43757 29.02047,9.31967 18.07312,3.03679 36.06365,7.72306 54.43587,8.2194 7.1387,-7.53156 9.0589,-20.46848 13.65764,-30.24092 3.54397,-11.47125 8.68263,-22.94557 9.51474,-34.93887 -5.18038,-9.87362 -19.35716,-6.89604 -28.55787,-10.20154 -17.61932,-3.10335 -35.16399,-8.16453 -53.13707,-8.20968 l -1.4595,0.3515 z m 115.862,20.296 c 3.5112,7.52947 -5.18586,0.41367 -6.00994,7.24067 -5.70572,12.14455 -8.84236,25.3467 -13.23683,38.00985 -4.78755,8.85702 -1.89794,20.23389 9.99323,17.54519 9.88034,1.83561 19.64022,4.91348 29.81112,6.15248 12.1589,1.38313 24.13247,4.29879 36.17442,6.16841 11.10652,6.76278 12.66912,-8.57981 15.98992,-15.64015 5.13464,-12.5644 8.97738,-25.67147 12.21012,-38.77692 0.96846,-3.25541 -6.77637,-6.67167 -1.21946,-3.54354 -8.32854,7.09146 -8.64988,19.08795 -12.65958,28.61501 -9.24356,1.91498 -23.57913,-8.56348 -29.33266,-0.0639 -0.17808,5.78872 10.19693,18.59456 -2.4748,13.58965 -7.40238,2.53198 -5.92249,-7.86397 -9.68463,-9.23972 -2.36685,6.06683 -19.19633,9.48139 -16.33667,1.00843 4.0176,-3.74658 16.41613,-11.97988 4.51468,-13.95849 -7.64806,-3.4878 -22.06904,-0.2011 -25.22981,-7.86155 1.79508,-8.92363 5.2833,-20.11558 13.09213,-24.77981 8.50944,-1.34028 -9.78584,-1.95847 1.18697,-2.02598 4.00534,0.0418 12.59624,-0.50979 4.73224,2.43518 4.83935,1.52891 11.0633,-4.57564 2.93322,-3.61885 -4.81964,-0.37847 -9.69974,-0.25784 -14.45367,-1.25598 z m -370.75,39.943 c -8.1015,11.09548 -10.5786,24.98938 -16.34698,37.25111 -3.31592,9.27088 -11.70371,24.57371 0.3837,30.75565 9.90559,3.36186 20.52781,4.10085 30.71748,6.47996 13.16742,2.25254 26.26302,5.68402 39.52511,6.92709 10.54206,-3.13171 10.06156,-16.71399 15.1719,-24.76014 C 261.37881,353.38594 266.49976,340.239 270,326.607 c -3.70607,-10.87003 -18.25777,-7.76297 -27.04111,-11.37498 -16.99168,-3.21723 -33.87079,-8.2683 -51.20817,-8.84414 -2.09448,0.39667 -3.99504,1.61442 -5.30672,3.28412 z m 110.227,19.492 c -7.34843,8.67333 -9.16062,20.39277 -14.34632,30.27682 -4.39113,11.4226 -8.61194,23.11009 -9.77971,35.37553 9.47077,9.35003 23.92514,7.57178 35.89093,10.89693 12.7219,2.07293 25.29099,4.94286 37.96075,7.2022 9.99013,2.64459 14.25933,-7.88605 17.74589,-15.08256 5.51233,-13.81343 10.6246,-27.82778 14.92741,-42.05624 5.7221,-13.48174 -10.16377,-17.22787 -20.10503,-15.75482 -8.67013,0.0531 -16.53363,-4.64282 -24.39609,-6.1024 -10.7634,-1.10902 -20.98087,-5.44483 -31.93986,-5.44942 -2.00303,-0.077 -4.03956,0.0735 -5.95797,0.69396 z m 115.35,17.952 c -9.886,4.42332 -10.42445,16.76413 -14.38526,25.52657 -4.02152,12.95481 -9.67407,25.59585 -11.79475,39.02131 0.27638,10.99278 12.99838,11.73693 21.21634,12.80255 17.79962,3.02325 35.50972,6.55921 53.23291,9.92078 11.66687,4.09872 19.11971,-7.06047 20.56393,-17.21971 4.4918,-15.97893 15.26715,-30.53082 15.03371,-47.61327 -3.52059,-11.08277 -17.6164,-10.6442 -26.99476,-13.02254 -18.4768,-3.27574 -36.64777,-10.03148 -55.58158,-9.66788 l -1.29054,0.25247 z m 115.429,21.252 c -10.7837,6.08124 -11.09977,19.89657 -15.52401,30.19815 -3.40361,10.91804 -7.28864,21.81324 -10.10784,32.8225 0.24403,11.12529 11.97839,14.1947 20.9768,15.02642 21.13519,4.08902 42.25109,8.70455 63.58975,11.44746 11.70804,-2.57926 10.99939,-17.70997 15.79029,-26.51252 4.73941,-13.71328 11.3998,-27.38952 11.84662,-42.07591 -4.58546,-10.9441 -19.77127,-7.38557 -29.08542,-11.3948 -18.04164,-3.61457 -36.07309,-7.51686 -54.21803,-10.46486 -1.14353,0.0764 -2.24787,0.4474 -3.26816,0.95356 z m -373.023,38.513 c -8.64334,4.21364 -9.90745,15.18614 -13.94837,23.00943 -5.34731,13.66367 -10.82154,27.69043 -13.55053,41.98029 4.34087,8.41886 9.87136,3.31164 16.79494,7.19917 6.43138,2.11294 12.01038,2.86157 18.06899,1.67063 0.39699,2.98834 12.31029,4.53945 17.19539,5.13764 9.16472,1.48846 17.11927,3.86099 26.5428,4.45359 8.4398,-6.69468 10.9091,-18.8607 15.46547,-28.41501 3.7698,-10.78834 8.46684,-21.34966 12.36117,-32.01467 -0.17195,-12.4619 -15.35552,-10.30669 -23.67736,-13.52129 -7.45065,-2.08313 -14.2584,-1.4237 -21.49264,-4.88464 -10.90818,-1.78798 -21.76175,-4.69712 -32.83227,-5.14714 z m -0.764,5.939 c -3.00836,7.92129 -11.81517,18.98751 -7.3754,26.34108 8.69255,3.43918 18.36027,3.30899 27.32597,5.95466 11.56119,3.00261 -2.12184,13.67834 -0.29701,20.92668 5.36805,7.0772 13.87318,1.36437 13.78596,-6.49539 0.22871,-12.61221 12.46005,-10.47915 20.78095,-7.10782 13.28279,4.74037 12.01129,-12.64164 17.03222,-19.98105 2.98184,-11.72861 -15.02037,-8.24246 -21.95472,-11.70115 -11.79923,-2.02495 -23.32539,-5.56843 -34.95802,-8.04499 -4.67255,-0.64192 -9.97107,-2.65781 -14.33995,0.10798 z M 264,426.55 c -5.04616,3.99128 -8.50349,14.74037 -12.01856,22.7603 -4.87591,12.90632 -8.84609,26.20971 -13.28295,39.20581 -3.04021,12.00762 10.00093,10.32736 17.64314,12.05147 4.12157,1.57588 17.15847,2.48899 16.35336,4.56139 -5.39074,2.05915 8.13971,0.26985 10.9806,1.68465 7.93153,2.67027 18.90493,-0.10901 26.60304,5.68015 3.31157,-3.64013 2.52443,1.40953 7.26993,-0.12023 4.3876,5.64038 8.51553,-8.7377 10.99315,-13.38401 6.40523,-15.85544 13.22564,-31.70064 16.91629,-48.46553 -1.0456,-11.11165 -15.0884,-8.41412 -22.73564,-11.54032 -12.76502,-2.81206 -25.43653,-6.32502 -38.48799,-7.56731 -6.40053,-1.86661 -13.77212,-4.54506 -19.47187,-5.08713 l -0.50098,0.14505 z m -0.593,8.952 c -3.41943,7.57875 -12.39434,21.26859 -5.04474,27.12123 10.2747,3.19385 21.31593,3.21897 31.49594,6.69317 2.74747,4.79854 -10.50219,6.63736 -12.93296,11.52713 -6.1644,4.48566 -2.95807,9.38493 4.08266,8.61662 8.06584,-0.37856 23.14291,10.00958 26.53043,-0.93373 2.12646,-9.18827 -18.1935,-2.22436 -10.05884,-9.85936 7.19379,-3.50546 14.43621,-6.98647 22.34215,-3.28536 10.92748,4.91625 14.3612,-9.5186 16.69252,-17.34249 6.80508,-12.72987 -12.14158,-12.59187 -20.08436,-14.49944 -16.6042,-3.53609 -33.09,-8.36959 -49.97002,-10.31487 -1.29594,0.23455 -2.46367,1.09578 -3.05278,2.2771 z M 378.5,449.665 c -10.1496,4.11326 -10.45851,16.87157 -14.49485,25.60529 -4.4738,14.0451 -10.85121,27.87816 -11.7652,42.74637 3.1265,11.55353 18.32957,8.98885 27.35339,12.13876 18.60921,3.82071 37.11065,8.30202 55.95666,10.84458 9.53649,-5.34032 8.87676,-18.13483 13.73234,-26.84023 4.8252,-13.77722 11.69945,-27.19816 13.1182,-41.8914 -2.90799,-11.84406 -18.91243,-8.45627 -27.93258,-12.27406 -17.67546,-3.64945 -35.16759,-8.67323 -53.12788,-10.64336 l -1.42872,0.0729 z m 113.835,25.643 c -8.83162,12.0321 -11.26012,27.20623 -16.09415,41.02843 -2.48117,8.33734 -5.69796,16.70843 -5.98291,25.47525 2.71239,2.11835 6.89882,0.47269 7.13648,2.47789 8.95261,-0.23305 17.33898,3.77066 26.28258,4.04661 8.80615,1.62008 17.38075,3.93918 26.21945,5.23849 9.23448,2.46198 18.74151,3.09119 27.98909,5.20875 8.32633,-4.25086 8.16615,-16.9344 12.68352,-24.73899 4.11936,-11.64004 8.09321,-23.42063 10.7108,-35.48094 -0.7487,-13.3957 -16.97564,-11.38807 -26.2979,-13.68056 -10.3536,-2.4498 -20.42206,-3.9992 -30.5336,-7.02158 -9.33274,-0.42055 -18.08096,-5.3218 -27.46113,-4.47903 -1.66544,0.29693 -3.26623,0.95399 -4.65223,1.92568 z m 1.268,5.942 c -2.83551,8.50632 -9.28633,19.36868 -7.02699,27.33865 6.3685,5.08081 20.48965,1.92707 23.26992,7.62539 -0.5768,9.55853 13.78606,5.42322 19.74076,8.96965 5.29317,3.04526 9.81649,-0.55952 11.98858,-4.03983 9.31569,0.0458 24.76241,9.89587 27.3522,-5.06988 3.61929,-8.77272 9.81109,-24.20921 -5.31871,-23.829 -22.42688,-3.5275 -44.22085,-11.00845 -66.89225,-12.93502 -1.23776,0.15209 -2.54926,0.74707 -3.11351,1.94004 z M 115.48,509.194 c -9.96473,12.8637 -13.13387,29.29486 -19.112522,44.11623 -2.474432,7.60253 -6.441322,15.66348 -5.079058,23.74089 6.183365,9.96679 20.24669,7.03435 29.96552,11.01956 16.21756,3.60851 32.46129,7.10213 48.74906,10.38032 9.29199,-8.98776 11.56347,-22.34473 17.13705,-33.54637 4.52708,-11.10805 10.51598,-22.02788 11.3257,-34.22838 -3.36726,-11.51347 -18.17657,-9.31702 -27.28237,-12.86804 -16.74116,-3.71555 -33.25308,-8.98871 -50.34502,-10.78386 -1.95324,0.10627 -3.92759,0.79438 -5.35836,2.16965 z m 109.744,25.35 c -9.99465,17.21568 -14.94452,36.73433 -21.05106,55.52806 -5.01444,10.28655 1.51681,20.50467 13.03768,19.93875 22.35008,4.31005 44.33104,10.80795 66.95875,13.82987 9.93969,-4.94958 9.85541,-17.89912 14.77475,-26.65736 5.10238,-13.58711 12.01041,-26.80361 13.9528,-41.3332 -1.78815,-11.94952 -17.28698,-10.92868 -26.23206,-13.94055 -18.38868,-4.05649 -36.63819,-10.03095 -55.53234,-10.88612 -2.32838,0.33161 -4.57842,1.54292 -5.90852,3.52055 z m 116.383,22.551 c -9.75811,13.11736 -12.81009,29.63287 -18.05264,44.80176 -2.42079,7.71215 -4.81376,15.49559 -5.78951,23.54736 3.27353,11.98105 18.78259,9.54243 28.16469,13.04183 18.21675,3.58992 36.21411,8.61277 54.51678,11.53972 11.64103,-2.53068 11.40441,-17.5148 16.27681,-26.27434 5.30523,-14.34129 12.11636,-28.52066 13.7992,-43.86151 -2.75399,-12.66039 -19.59323,-9.5349 -29.11059,-13.48539 -17.45749,-3.85067 -34.6995,-9.1786 -52.46497,-11.32975 -2.55757,-0.0226 -5.27258,0.39424 -7.33977,2.02032 z"
     stroke="none"
     fill="#2c59b6"
     fill-rule="evenodd"
     id="path836" />
  <path
     d="m 256,25.028 c -15.48488,2.023854 -27.48855,14.892025 -31.46908,29.550678 -11.90981,34.61331 -13.17829,71.756542 -23.56238,106.778032 -11.76307,40.28144 -28.50374,78.854 -43.30423,118.0656 -41.23084,105.96376 -82.695343,211.84594 -122.663904,318.29217 -8.36124,26.02375 4.805142,58.11343 31.10269,67.76607 15.754404,5.76613 32.375827,8.68359 48.516624,13.16911 127.79653,31.68125 255.9191,62.09336 384.48543,90.48952 24.73072,5.08483 52.11324,8.43385 75.55222,-3.2208 18.48333,-9.36581 30.35477,-27.80288 36.05721,-47.24191 14.88868,-48.51652 28.85362,-97.32244 43.17373,-146.01455 22.79396,-78.91299 46.46323,-157.57833 68.27889,-236.77006 9.64695,-34.96186 17.25197,-70.46734 22.57871,-106.3442 4.58932,-28.4225 10.21874,-56.74656 12.94433,-85.42187 1.02406,-17.07376 -5.08913,-36.04066 -20.8438,-44.755331 C 716.91525,87.003318 693.20486,83.691316 671.04703,77.175623 581.27584,54.739283 489.82544,38.888969 397.72766,29.9223 353.17034,26.004667 308.4114,23.481908 263.6728,24.247738 261.10458,24.379071 258.53793,24.605266 256,25.028 Z m 3.5,6.651 c -11.88415,1.533485 -23.87204,8.788904 -26.88214,21.040793 -8.60916,24.171741 -11.33546,49.861927 -16.63883,74.857877 -4.38468,24.03988 -8.93989,48.3104 -18.94977,70.7647 -40.32538,104.01774 -80.02137,208.27889 -119.87281,312.47904 -9.934447,26.92728 -20.970271,53.47202 -29.974595,80.72652 -3.587965,10.78472 -5.750689,25.31801 4.37266,33.33988 11.380822,9.00955 26.319592,11.15807 40.010286,14.68012 84.908219,18.94447 169.843619,37.76892 254.688329,56.99869 56.27018,12.55907 112.48047,25.46223 168.91432,37.23755 13.8188,1.81138 28.24202,2.22844 41.79241,-1.36474 16.51366,-6.6667 23.28831,-24.84234 29.41685,-40.13758 15.9682,-41.82394 27.1046,-85.25881 40.09611,-128.05253 24.76834,-84.40225 49.57198,-168.79418 74.24518,-253.22432 9.72237,-24.27677 12.14763,-50.45471 17.09566,-75.9205 5.64649,-33.69139 12.00098,-67.38992 14.2229,-101.52254 0.61583,-11.65213 -0.80982,-25.98401 -12.20028,-32.2605 C 708.29088,94.845728 694.92753,92.789477 682.38349,88.976233 616.40491,72.100442 549.57255,58.524293 482.29465,47.989169 417.02045,38.485141 351.19853,32.459354 285.2642,30.425239 276.66343,30.280929 268.02899,30.476403 259.5,31.679 Z m 5.264,31.317 c -13.09278,2.094017 -14.87689,17.556689 -17.08922,28.130297 -4.17982,20.962633 -9.75331,41.956623 -10.36852,63.381103 1.85532,13.53887 17.01349,15.14872 27.86993,16.54457 90.63415,14.74857 181.34882,29.0094 272.03055,43.46778 39.36433,6.07685 78.65285,12.73889 118.08616,18.31108 9.82917,1.10202 21.67052,3.32058 29.78761,-3.77279 8.04106,-9.85034 6.96103,-23.45757 9.579,-35.26546 2.43026,-16.54681 6.54588,-33.17147 5.35842,-49.98196 -3.41486,-11.81795 -17.43259,-13.62244 -27.7667,-15.64425 C 604.79665,115.35207 536.89897,105.04483 469.23623,93.414946 408.51587,83.3556 347.90588,72.547239 287.07114,63.228205 279.69324,62.303731 272.11784,61.381391 264.764,62.996 Z m 2.923,8.113 c -12.90587,0.296758 -11.96735,16.661154 -14.58549,25.776025 -3.4278,17.562745 -7.85844,35.001595 -9.76262,52.809065 1.36183,12.1779 15.8915,12.86918 25.37029,14.26631 127.16029,20.50209 254.14864,42.1117 381.30876,62.57779 10.05397,0.48181 26.2052,7.11502 31.38084,-5.09404 2.89017,-10.18862 3.37827,-20.91543 5.30292,-31.32843 1.89314,-14.3973 4.583,-28.82361 4.84695,-43.34388 -3.39904,-11.49924 -18.1147,-10.4866 -27.64199,-12.9753 C 557.29823,116.15573 450.59529,99.090055 343.99138,81.42049 319.94642,77.80661 295.99572,73.234868 271.82113,70.675368 270.43355,70.673309 269.04048,70.792477 267.687,71.109 Z M 740.524,114.5 c 3.59936,22.47567 -2.13028,44.99399 -4.45573,67.30315 -6.49992,45.74501 -12.72195,91.84834 -26.77029,136.01667 -35.7921,122.92765 -70.85546,246.07282 -107.68439,368.69501 -6.33438,20.3035 -16.21043,42.29232 -36.28129,52.19152 -17.68676,7.59578 -37.76591,6.64266 -56.42214,3.94489 -47.95053,-10.52346 -95.76919,-21.71609 -143.66581,-32.51796 -92.45796,-21.1081 -184.98344,-41.93636 -277.388183,-63.26619 -9.979306,-2.76748 -20.316046,-4.96798 -29.757417,-9.15185 -4.790385,-4.82948 -16.942194,-13.38571 -9.770863,-1.32971 5.283083,11.09772 16.225596,17.94631 27.69991,21.26557 22.837833,7.68996 46.670653,11.7832 69.915933,18.01143 108.95925,26.28409 217.94552,52.53285 327.44731,76.46823 28.89718,5.99025 58.90545,15.46652 88.45128,8.09351 18.25083,-5.28672 31.57637,-21.04511 37.60211,-38.60117 8.03179,-21.45835 13.39977,-43.79241 20.30493,-65.6244 30.70903,-104.07866 61.40015,-208.16503 91.49097,-312.42386 10.55898,-36.98408 19.08276,-74.54834 24.83768,-112.58706 5.29819,-31.34693 11.57532,-62.65693 13.72709,-94.41621 0.30423,-7.64588 -4.08015,-20.15731 -9.2811,-22.07157 z m -516.881,93.528 c -10.14271,3.71333 -11.15447,16.16209 -15.53901,24.62427 -5.60339,14.96467 -13.23188,29.70015 -14.55987,45.82771 0.0434,13.98249 14.89244,17.73515 26.04116,19.09453 19.47498,4.16279 39.05483,7.9856 58.68633,11.2469 12.04812,-0.23321 16.7649,-13.11792 20.25842,-22.62035 5.78701,-14.98701 11.83009,-29.99304 15.98375,-45.50786 2.708,-12.8608 -9.37276,-20.71114 -20.52486,-22.15427 -19.14735,-4.63633 -38.79188,-6.78054 -58.07613,-10.74918 -4.06083,-0.58559 -8.25515,-0.74878 -12.26979,0.23825 z m 0.888,2.65 c -9.59402,6.11557 -11.09274,18.50566 -15.54659,28.13158 -4.27046,11.05914 -9.15818,22.08416 -10.70176,33.94266 3.01837,11.9673 18.78851,7.57958 27.76581,11.32692 15.37609,2.77243 30.71532,5.78631 46.18798,7.98637 11.97097,-1.70288 12.89987,-16.31599 17.58996,-25.09554 4.56975,-12.35198 11.64331,-24.31358 12.74876,-37.58675 -3.78575,-10.74222 -18.24113,-7.81562 -27.12369,-10.86787 -16.60719,-2.83892 -33.08778,-7.75147 -50.0015,-7.99066 l -0.51445,0.0858 z m 107.21,15.751 c -10.88883,4.79698 -12.68747,18.01374 -17.25174,27.71511 -5.37814,14.89548 -13.20867,29.66725 -13.36384,45.80517 3.14032,12.76606 18.41353,14.73564 29.1674,17.5024 19.45702,4.47045 39.11775,8.27376 58.83355,11.26536 13.3413,1.13537 17.59125,-12.58158 20.52274,-22.78198 5.72435,-15.9615 12.70922,-31.69993 15.70292,-48.46143 1.49483,-10.64301 -8.35782,-17.12181 -17.49845,-19.07382 -20.35715,-6.05132 -41.6574,-7.89117 -62.45559,-11.92516 -4.54481,-0.44117 -9.32605,-2.43037 -13.65699,-0.0456 z m -3.19,5.949 c -7.68218,10.3198 -9.85729,23.4039 -14.80785,35.07286 -3.06303,8.18633 -6.45811,16.69622 -5.72103,25.61277 5.28091,10.61728 19.30499,7.8669 28.97922,10.56122 16.37465,2.19902 32.55475,7.203 49.08858,7.36596 10.53796,-4.04072 9.78816,-17.71542 14.85575,-26.27169 4.83686,-12.08537 9.96485,-24.23243 12.01413,-37.1707 -5.81673,-10.02685 -19.79119,-6.53634 -29.29557,-10.1384 -16.52469,-2.76593 -32.88572,-8.8619 -49.80469,-7.76522 -1.97226,0.38993 -3.93021,1.22357 -5.30854,2.7332 z M 443,245.125 c -11.01355,3.53128 -12.25802,16.73385 -16.57762,25.80504 -4.63651,13.43793 -10.40615,26.76555 -12.74968,40.7982 -0.87876,10.86707 4.87981,23.43719 17.1964,23.49502 25.06619,5.63559 50.1925,11.40816 75.6961,14.62751 11.85738,-1.40402 14.08207,-15.63624 18.09861,-24.69104 5.45782,-15.49374 11.42693,-30.95408 14.83244,-47.04346 1.14539,-11.36485 -9.30921,-18.99152 -19.38698,-20.85995 -19.10062,-5.08647 -38.8518,-7.08255 -58.20566,-10.99802 -6.22832,-1.06346 -12.5888,-1.81779 -18.90361,-1.1333 z m -1.668,4.308 c -8.49297,9.14355 -10.07971,22.17074 -14.63935,33.38357 -3.23533,10.27127 -8.10442,20.73558 -7.48173,31.65327 5.59436,9.86983 19.77509,5.43757 29.02047,9.31967 18.07312,3.03679 36.06365,7.72306 54.43587,8.2194 7.1387,-7.53156 9.0589,-20.46848 13.65764,-30.24092 3.54397,-11.47125 8.68263,-22.94557 9.51474,-34.93887 -5.18038,-9.87362 -19.35716,-6.89604 -28.55787,-10.20154 -17.61932,-3.10335 -35.16399,-8.16453 -53.13707,-8.20968 l -1.4595,0.3515 z m 112.92,16.384 c -9.82621,7.36509 -11.24683,20.60208 -15.65238,31.27996 -4.6752,14.51449 -11.43549,29.26642 -10.13863,44.82937 3.62376,12.01442 17.58389,14.38863 28.24246,16.78011 21.58739,4.68413 43.26037,9.39574 65.20366,11.97445 13.78028,2.21313 16.82519,-12.49847 19.85459,-22.44651 5.85399,-17.35756 13.04164,-34.74247 14.65406,-53.1071 -1.64806,-12.44595 -14.86526,-17.89465 -25.80288,-19.78145 -20.45232,-3.27523 -40.73386,-7.58008 -61.22717,-10.58501 -5.0314,-0.52429 -10.43607,-1.42054 -15.13371,1.05618 z m -1.054,7.492 c -8.36915,16.45817 -12.97828,34.5633 -17.96518,52.16338 1.05455,10.75628 14.91053,5.40503 21.83486,9.18889 17.00455,4.21809 34.59104,5.4508 51.62462,9.3622 7.06871,0.43954 14.64072,6.38198 17.00853,-3.82771 5.21128,-13.81913 10.74757,-27.62093 14.54434,-41.92484 0.6548,-3.74337 3.36245,-13.16596 -2.15321,-12.56885 6.54311,4.66217 -14.8449,-1.46747 -13.10034,-1.81438 3.67045,-0.27327 17.23989,-1.5534 6.17368,-2.17488 -5.33957,1.7986 -14.73761,2.06633 -22.17753,-0.74945 -10.07536,0.20867 -18.87427,-4.0981 -28.70554,-5.16406 -8.87011,-2.70965 -18.0309,-2.02855 -27.08423,-2.4903 z m -365.889,31.157 c -10.1153,7.19611 -11.53433,20.5807 -16.45508,31.14506 -4.54796,12.83324 -11.88191,25.3415 -11.92255,39.2641 -0.86554,10.93436 7.63783,19.56672 18.33239,19.77844 22.62503,5.06691 45.36169,9.67194 68.25724,13.3464 12.21154,0.001 14.84919,-14.5668 19.05788,-23.37064 6.09877,-15.97913 12.91505,-31.82688 17.01693,-48.45351 1.354,-12.45958 -11.13203,-19.35526 -21.6825,-21.20248 -19.05385,-4.79689 -38.59473,-7.30716 -57.83435,-11.22386 -4.88836,-0.76308 -10.04869,-1.02994 -14.76996,0.71649 z m -0.865,5.206 c -8.1015,11.09548 -10.5786,24.98938 -16.34698,37.25111 -3.31592,9.27088 -11.70371,24.57371 0.3837,30.75565 9.90559,3.36186 20.52781,4.10085 30.71748,6.47996 13.16742,2.25254 26.26302,5.68402 39.52511,6.92709 10.54206,-3.13171 10.06156,-16.71399 15.1719,-24.76014 C 261.37881,353.38594 266.49976,340.239 270,326.607 c -3.70607,-10.87003 -18.25777,-7.76297 -27.04111,-11.37498 -16.99168,-3.21723 -33.87079,-8.2683 -51.20817,-8.84414 -2.09448,0.39667 -3.99504,1.61442 -5.30672,3.28412 z m 110.957,14.233 c -10.80769,6.40941 -12.82229,19.96152 -17.6337,30.57078 -4.10841,11.05811 -8.39636,22.0572 -12.0042,33.2932 0.30916,10.16051 0.84114,24.68783 13.5825,26.72822 16.41402,4.7426 33.39665,7.11585 49.99922,11.10335 9.54218,1.83039 19.06191,4.39655 28.77527,4.91643 12.25203,-2.49613 13.80071,-17.41213 18.1942,-27.01065 5.56775,-15.75675 12.71468,-31.25244 15.36549,-47.82266 -0.38638,-11.98192 -12.36944,-18.9876 -23.03445,-20.64979 -22.04071,-5.35964 -44.44364,-9.2684 -66.84491,-12.6822 -2.21509,-0.0678 -4.5158,0.3215 -6.39942,1.55332 z m -0.73,5.259 c -7.34843,8.67333 -9.16062,20.39277 -14.34632,30.27682 -4.39113,11.4226 -8.61194,23.11009 -9.77971,35.37553 9.47077,9.35003 23.92514,7.57178 35.89093,10.89693 12.7219,2.07293 25.29099,4.94286 37.96075,7.2022 9.99013,2.64459 14.25933,-7.88605 17.74589,-15.08256 5.51233,-13.81343 10.6246,-27.82778 14.92741,-42.05624 5.7221,-13.48174 -10.16377,-17.22787 -20.10503,-15.75482 -8.67013,0.0531 -16.53363,-4.64282 -24.39609,-6.1024 -10.7634,-1.10902 -20.98087,-5.44483 -31.93986,-5.44942 -2.00303,-0.077 -4.03956,0.0735 -5.95797,0.69396 z M 408.5,344.871 c -10.55068,7.51696 -12.34488,21.38678 -17.34415,32.48263 -5.59885,15.91677 -12.01559,32.85937 -8.81227,49.97189 4.27993,11.03964 17.73835,10.78165 27.47502,13.31898 22.01914,4.68734 44.02206,9.94422 66.39679,12.52033 11.55902,-1.86281 13.54475,-15.64062 17.27669,-24.67142 5.61374,-16.33992 12.02208,-32.61631 15.13806,-49.63949 1.3825,-12.80954 -10.43702,-20.71301 -21.64697,-22.55844 -21.05317,-5.60061 -42.74582,-8.29257 -64.06659,-12.64663 -4.70211,-0.46536 -10.10319,-1.12491 -14.41658,1.22215 z m 3.521,2.245 c -9.886,4.42332 -10.42445,16.76413 -14.38526,25.52657 -4.02152,12.95481 -9.67407,25.59585 -11.79475,39.02131 0.27638,10.99278 12.99838,11.73693 21.21634,12.80255 17.79962,3.02325 35.50972,6.55921 53.23291,9.92078 11.66687,4.09872 19.11971,-7.06047 20.56393,-17.21971 4.4918,-15.97893 15.26715,-30.53082 15.03371,-47.61327 -3.52059,-11.08277 -17.6164,-10.6442 -26.99476,-13.02254 -18.4768,-3.27574 -36.64777,-10.03148 -55.58158,-9.66788 l -1.29054,0.25247 z m 112.372,18.862 c -10.13235,6.769 -11.75389,20.00242 -15.86785,30.56389 -3.47237,13.86899 -11.00117,26.80796 -11.83172,41.25831 -0.75276,11.97711 9.78624,21.15356 20.77633,23.36134 23.73291,4.71965 47.15191,11.52513 71.31169,13.79326 13.24012,4.23281 20.29287,-8.95729 22.27723,-19.83795 5.78729,-18.36391 12.9141,-36.44653 16.87629,-55.29738 -0.26765,-13.39465 -14.88824,-19.35294 -25.9967,-22.05194 -20.6706,-5.11501 -41.80063,-8.11001 -62.71587,-12.02203 -4.90893,-0.6822 -9.96916,-0.922 -14.8294,0.2325 z m 3.057,2.39 c -10.7837,6.08124 -11.09977,19.89657 -15.52401,30.19815 -3.40361,10.91804 -7.28864,21.81324 -10.10784,32.8225 0.24403,11.12529 11.97839,14.1947 20.9768,15.02642 21.13519,4.08902 42.25109,8.70455 63.58975,11.44746 11.70804,-2.57926 10.99939,-17.70997 15.79029,-26.51252 4.73941,-13.71328 11.3998,-27.38952 11.84662,-42.07591 -4.58546,-10.9441 -19.77127,-7.38557 -29.08542,-11.3948 -18.04164,-3.61457 -36.07309,-7.51686 -54.21803,-10.46486 -1.14353,0.0764 -2.24787,0.4474 -3.26816,0.95356 z M 153.5,402.505 c -9.8607,4.48043 -11.3331,16.5779 -15.72059,25.33179 -5.86369,15.42472 -13.31684,30.51938 -16.28078,46.83716 -1.26851,12.50523 10.55567,19.65107 21.27732,21.64046 19.11048,5.09156 38.53081,8.97516 57.87852,13.04164 7.24057,0.81202 16.91927,2.69524 21.47153,-4.67234 5.05418,-9.54589 7.68081,-20.20072 12.08687,-30.08275 5.35825,-13.90137 11.60126,-27.98493 12.37672,-43.05069 -1.23633,-12.07972 -14.66649,-15.61695 -24.57433,-17.71154 -20.32677,-4.8863 -40.92418,-8.64549 -61.47716,-12.3986 -2.37912,-0.22447 -4.87371,-0.0325 -7.0381,1.06487 z m 0.927,4.376 c -8.64334,4.21364 -9.90745,15.18614 -13.94837,23.00943 -5.34731,13.66367 -10.82154,27.69043 -13.55053,41.98029 4.34087,8.41886 9.87136,3.31164 16.79494,7.19917 6.43138,2.11294 12.01038,2.86157 18.06899,1.67063 0.39699,2.98834 12.31029,4.53945 17.19539,5.13764 9.16486,1.48851 17.11954,3.86122 26.54336,4.45352 7.32547,-4.94107 9.62596,-14.7626 13.17764,-22.58088 5.52075,-13.48901 11.10733,-27.05981 14.54335,-41.26568 -3.36112,-9.13742 -15.91625,-6.91928 -23.40005,-9.92683 -8.697,-2.08854 -17.53758,-2.95922 -26.26959,-6.00706 -9.27592,-1.02545 -18.382,-4.36227 -27.76014,-3.94877 z M 263.5,424.406 c -10.7555,5.72936 -12.54965,19.01348 -17.25943,29.13206 -4.52475,12.1373 -9.32222,24.17898 -13.38731,36.4824 0.1042,10.48526 0.76874,25.23705 13.7196,27.59138 19.50252,6.04119 39.77961,9.07301 59.57325,14.01327 8.01383,1.18555 16.47569,4.63835 24.45795,2.11019 9.04355,-6.44803 9.89367,-18.9531 14.41858,-28.40119 5.49935,-15.29168 12.03037,-30.4004 15.24081,-46.37204 0.39086,-12.94155 -12.70229,-21.41997 -24.33088,-22.78397 -22.04006,-4.62393 -44.03797,-9.81595 -66.37864,-12.71707 -2.0486,-0.0934 -4.16945,0.0687 -6.05393,0.94497 z m 0.5,2.144 c -5.04616,3.99128 -8.50349,14.74037 -12.01856,22.7603 -4.87591,12.90632 -8.84609,26.20971 -13.28295,39.20581 -3.04021,12.00762 10.00093,10.32736 17.64314,12.05147 4.12157,1.57588 17.15847,2.48899 16.35336,4.56139 -5.39074,2.05915 8.13971,0.26985 10.9806,1.68465 7.93153,2.67027 18.90493,-0.10901 26.60304,5.68015 3.31157,-3.64013 2.52443,1.40953 7.26993,-0.12023 4.3876,5.64038 8.51553,-8.7377 10.99315,-13.38401 6.40523,-15.85544 13.22564,-31.70064 16.91629,-48.46553 -1.0456,-11.11165 -15.0884,-8.41412 -22.73564,-11.54032 -12.76502,-2.81206 -25.43653,-6.32502 -38.48799,-7.56731 -6.40053,-1.86661 -13.77212,-4.54506 -19.47187,-5.08713 l -0.50098,0.14505 z m 115.836,19.488 c -11.66497,1.93148 -13.6173,15.69692 -17.75112,24.6992 -4.99673,14.22179 -11.29273,28.23668 -14.35158,42.98117 0.10311,8.7196 -1.06032,21.07628 8.16564,25.63405 12.21357,5.89627 26.02179,7.02302 38.99726,10.5082 15.87477,3.47191 31.6609,8.34426 47.95956,9.11826 12.5853,-2.32043 14.96667,-16.99865 18.60525,-27.107 5.72426,-17.50474 13.54932,-34.81163 15.08904,-53.30989 -0.72612,-10.59963 -11.05065,-16.03974 -20.31959,-17.93601 -23.08942,-6.4973 -46.8832,-10.00566 -70.35875,-14.74823 -2.00412,-0.22733 -4.05091,-0.24557 -6.03571,0.16025 z m -1.336,3.627 c -10.1496,4.11326 -10.45851,16.87157 -14.49485,25.60529 -4.4738,14.0451 -10.85121,27.87816 -11.7652,42.74637 3.1265,11.55353 18.32957,8.98885 27.35339,12.13876 18.60921,3.82071 37.11065,8.30202 55.95666,10.84458 9.53649,-5.34032 8.87676,-18.13483 13.73234,-26.84023 4.8252,-13.77722 11.69945,-27.19816 13.1182,-41.8914 -2.90799,-11.84406 -18.91243,-8.45627 -27.93258,-12.27406 -17.67546,-3.64945 -35.16759,-8.67323 -53.12788,-10.64336 l -1.42872,0.0729 z m 112.957,21.198 c -9.595,7.57391 -10.57167,20.78743 -15.29383,31.30507 -5.49556,16.31566 -12.4566,33.16912 -10.62501,50.71812 2.90984,11.61102 15.77004,14.84208 25.9962,16.9134 24.35364,5.9643 48.80407,12.35381 73.85213,14.4178 11.55975,-3.00086 12.91897,-17.62488 17.42197,-26.87167 6.34609,-17.91918 11.9354,-36.46382 12.8557,-55.55306 -1.23179,-11.65109 -13.48674,-16.91578 -23.6503,-18.71509 -23.61141,-5.62887 -47.44315,-10.63417 -71.50339,-13.84948 -3.07787,-0.2184 -6.34046,0.0342 -9.05347,1.63491 z m 0.878,4.445 c -8.83162,12.0321 -11.26012,27.20623 -16.09415,41.02843 -2.48117,8.33734 -5.69796,16.70843 -5.98291,25.47525 2.71239,2.11835 6.89882,0.47269 7.13648,2.47789 8.95261,-0.23305 17.33898,3.77066 26.28258,4.04661 8.80615,1.62008 17.38075,3.93918 26.21945,5.23849 9.23448,2.46198 18.74151,3.09119 27.98909,5.20875 8.32634,-4.25086 8.16615,-16.9344 12.68352,-24.73899 4.11936,-11.64004 8.09321,-23.42063 10.7108,-35.48094 -0.7487,-13.3957 -16.97564,-11.38807 -26.2979,-13.68056 -10.3536,-2.4498 -20.42206,-3.9992 -30.5336,-7.02158 -9.33274,-0.42055 -18.08096,-5.3218 -27.46113,-4.47903 -1.66544,0.29693 -3.26623,0.95399 -4.65223,1.92568 z m -376.537,29.331 c -11.00471,6.58803 -11.87135,20.62742 -17.096328,31.15017 -5.844715,16.11702 -14.551415,32.11436 -14.197181,49.66974 3.149131,12.75508 18.245499,14.8505 28.968409,17.77359 19.90054,5.13779 39.86011,10.68693 60.25431,13.29592 13.65865,-0.0979 15.88884,-15.18661 19.86411,-25.06944 6.64433,-17.28059 14.88706,-34.3902 17.30584,-52.90226 0.76809,-11.9561 -10.71749,-18.38824 -20.757,-20.88117 -20.4217,-6.44118 -41.76548,-9.19444 -62.56968,-14.07072 -3.92344,-0.59286 -8.06725,-0.53729 -11.77248,1.03417 z m -0.318,4.555 c -9.96473,12.8637 -13.13387,29.29486 -19.112522,44.11623 -2.474432,7.60253 -6.441322,15.66348 -5.079058,23.74089 6.183365,9.96679 20.24669,7.03435 29.96552,11.01956 16.21756,3.60851 32.46129,7.10213 48.74906,10.38032 9.29199,-8.98776 11.56347,-22.34473 17.13705,-33.54637 4.52708,-11.10805 10.51598,-22.02788 11.3257,-34.22838 -3.36726,-11.51347 -18.17657,-9.31702 -27.28237,-12.86804 -16.74116,-3.71555 -33.25308,-8.98871 -50.34502,-10.78386 -1.95324,0.10627 -3.92759,0.79438 -5.35836,2.16965 z m 110.353,19.832 c -8.05637,5.98566 -9.8031,16.65584 -13.97394,25.22281 -4.89219,12.88426 -9.91967,25.72246 -14.35906,38.77271 1.03714,9.0082 -3.44336,21.13021 5.46564,27.22871 10.61265,6.34522 23.28248,7.85571 35.00194,11.30429 17.12482,3.99539 34.18848,8.87949 51.54121,11.50855 13.37301,-1.04304 15.09089,-16.37625 19.29658,-26.18474 6.26128,-17.44553 13.18297,-34.8689 17.15371,-52.97152 0.0287,-13.19565 -13.20721,-21.39241 -24.92553,-23.16956 -21.42072,-4.87676 -42.8495,-9.99554 -64.55735,-13.39172 -3.60394,-0.32808 -7.39575,-0.0494 -10.6432,1.68047 z m -0.609,5.518 c -9.99465,17.21568 -14.94452,36.73433 -21.05106,55.52806 -5.01444,10.28655 1.51681,20.50467 13.03768,19.93875 22.35008,4.31005 44.33104,10.80795 66.95875,13.82987 9.93969,-4.94958 9.85541,-17.89912 14.77475,-26.65736 5.10238,-13.58711 12.01041,-26.80361 13.9528,-41.3332 -1.78815,-11.94952 -17.28698,-10.92868 -26.23206,-13.94055 -18.38868,-4.05649 -36.63819,-10.03095 -55.53234,-10.88612 -2.32838,0.33161 -4.57842,1.54292 -5.90852,3.52055 z m 115.554,18.659 c -9.25121,7.36718 -10.86386,20.00701 -15.40754,30.2756 -5.5736,16.12076 -13.31861,32.16408 -13.91293,49.44338 1.44494,12.45528 14.70802,16.8386 24.97834,19.86262 20.91655,6.27104 42.30509,10.89415 63.60624,15.62237 10.62468,3.40841 20.58285,-3.60654 23.45325,-13.76688 5.83065,-15.29773 10.39253,-31.05901 15.6764,-46.55693 2.50407,-9.36469 5.61776,-19.73307 2.32836,-29.25041 -6.36973,-11.55941 -21.11562,-12.60633 -32.55848,-15.51281 -20.31164,-4.10251 -40.41956,-9.81922 -61.03195,-12.07836 -2.48579,0.0394 -5.03231,0.57149 -7.13169,1.96142 z m 0.829,3.892 c -9.75811,13.11736 -12.81009,29.63287 -18.05264,44.80176 -2.42079,7.71215 -4.81376,15.49559 -5.78951,23.54736 3.27353,11.98105 18.78259,9.54243 28.16469,13.04183 18.21675,3.58992 36.21411,8.61277 54.51678,11.53972 11.64103,-2.53068 11.40441,-17.5148 16.27681,-26.27434 5.30523,-14.34129 12.11636,-28.52066 13.7992,-43.86151 -2.75399,-12.66039 -19.59323,-9.5349 -29.11059,-13.48539 -17.45749,-3.85067 -34.6995,-9.1786 -52.46497,-11.32975 -2.55757,-0.0226 -5.27258,0.39424 -7.33977,2.02032 z m 118.772,20.342 c -11.08848,7.00866 -12.19945,21.39036 -17.039,32.47824 -5.50886,16.56062 -12.73272,33.6075 -10.95469,51.40598 1.04667,10.02212 9.6256,16.6484 19.20478,17.59742 24.41501,6.49833 49.09441,11.98039 73.70156,17.65801 12.70973,2.13591 20.07014,-10.13882 22.81161,-20.67807 6.55925,-18.13005 11.99572,-36.70686 16.81752,-55.34967 2.9106,-11.82643 -4.8032,-23.26313 -16.25724,-26.37975 -16.83736,-6.39626 -34.96374,-8.12325 -52.36065,-12.50041 -11.05186,-2.17625 -22.26506,-5.66707 -33.56006,-5.14174 -0.83555,0.15008 -1.57235,0.62158 -2.36383,0.90999 z m -1.313,6.373 c -10.64311,16.54592 -14.26881,36.35047 -18.92158,55.15628 -3.36852,10.04515 -2.84906,22.92533 10.48811,23.52612 24.74103,5.6615 49.6655,11.86962 75.17539,12.51381 8.1265,-5.4369 7.0472,-17.03111 11.53257,-24.98324 4.9228,-14.5815 10.10993,-29.11262 13.65951,-44.10797 -1.23932,-11.7831 -17.1727,-9.05537 -25.37556,-12.88545 -19.71048,-4.48013 -39.26179,-9.99234 -59.23898,-13.09211 -2.89063,-0.005 -5.71137,1.45899 -7.31946,3.87256 z m 96.439,24.69 c -6.82709,23.33803 -14.666,46.37354 -23.24614,69.12327 -5.83743,9.84212 -18.44144,3.18725 -27.16586,2.14749 -22.33999,-5.20767 -44.97878,-9.86603 -66.95281,-16.16253 2.31589,7.71059 11.52264,8.05312 18.20956,9.51707 23.47451,5.08992 46.85965,10.74052 70.35928,15.61553 11.56779,-0.90844 13.16395,-14.82375 16.52887,-23.45139 5.70896,-16.71751 12.12556,-33.44021 15.71599,-50.69045 0.19465,-1.40465 -1.96247,-12.50694 -3.44889,-6.09899 z"
     stroke="none"
     fill="#010103"
     fill-rule="evenodd"
     id="path838" />
  <path
     d="m 203.298,184.697 c -43.43857,112.00883 -86.19536,224.28084 -129.096734,336.49618 -9.347392,24.99833 -19.239501,49.80884 -28.107696,74.97637 -2.52669,8.04503 -1.845841,21.90216 6.348243,25.43259 13.0983,9.28623 29.887357,9.07331 44.856821,13.24602 126.551176,26.60668 252.758606,54.86489 379.492756,80.58724 25.44175,4.69751 52.66739,11.29369 77.77697,1.54855 11.69462,-4.40922 20.45233,-14.31447 24.81224,-25.87589 9.3039,-21.51005 14.38416,-44.51891 22.10532,-66.6016 29.02207,-92.24558 57.75048,-184.58606 86.54841,-276.89971 4.00414,-10.95964 7.2959,-22.12565 10.52371,-33.32544 4.20521,-13.32638 9.38772,-26.43462 11.69077,-40.27853 -2.28041,-10.9594 -18.97977,-4.7667 -27.05253,-9.07795 -62.89592,-10.71872 -125.84655,-21.0821 -188.7919,-31.50344 -40.07202,-6.8396 -80.17279,-13.47992 -120.30448,-19.94437 -53.78803,-9.67882 -107.87771,-17.61074 -161.67578,-27.24434 -3.25435,2.73672 -8.42132,-4.73417 -9.12612,-1.53568 z m 20.177,22.363 c -10.19298,5.32075 -12.60677,17.70857 -17.19395,27.29483 -5.0305,13.41714 -11.99071,26.60844 -13.25003,41.06156 -0.49201,11.04347 6.41219,23.49617 18.38383,24.44165 23.98662,5.24939 48.11647,10.54651 72.47323,13.42254 10.81578,-0.40989 13.52552,-12.71503 16.99114,-19.80211 -0.0572,12.4553 8.51012,26.03499 21.78444,27.04316 24.78411,4.66586 49.44798,11.93514 74.79356,12.09658 9.63822,-0.87669 10.68591,-12.95676 15.22092,-17.70916 0.46146,10.43333 4.30926,21.31951 16.03072,23.67646 20.30569,5.7254 41.18229,9.27654 61.87143,13.35707 10.09555,0.77886 24.66313,7.33208 30.57717,-4.71583 2.92934,-4.04895 4.28301,-13.60008 6.73972,-15.16238 -1.48239,13.47188 7.81731,27.49027 21.51535,29.76044 17.48115,3.76337 35.16276,6.59058 52.64101,10.42476 10.22987,1.36357 20.8956,5.06372 31.12092,2.70364 9.2818,-6.21998 9.51467,-18.99838 13.85017,-28.45264 4.71374,-14.49312 10.18175,-28.95323 12.76365,-43.97774 -0.50248,-15.43168 -15.1521,-27.14795 -29.87809,-28.1824 -22.1776,-3.90761 -44.2824,-8.45291 -66.61287,-11.34931 -10.61004,-1.11997 -16.69071,9.01073 -20.45276,16.30508 -3.2677,-7.58568 -6.09533,-16.04088 -14.22579,-19.95788 -11.9501,-6.1122 -25.80781,-6.2139 -38.70453,-9.04974 -15.50047,-2.65286 -31.04166,-6.58092 -46.86069,-6.04324 -8.30467,0.67329 -10.9423,11.29015 -13.85871,15.68668 -3.01812,-8.90437 -7.2476,-18.95725 -17.34174,-21.60749 -24.49825,-6.113 -49.49242,-10.08487 -74.43775,-13.8109 -9.91665,-1.48994 -15.21789,10.29984 -19.37088,14.64392 -0.4901,-9.07564 -7.26341,-14.95857 -15.19252,-18.3318 -16.09111,-6.83876 -33.91133,-7.33714 -50.80342,-11.2033 -9.15701,-1.39681 -18.59275,-4.24496 -27.8617,-2.74814 l -0.50467,0.13165 z M 559.2,275.2 c -0.39531,7.15236 13.76099,2.33962 18.88863,5.65496 9.80649,2.18029 19.68889,3.60653 29.46761,5.61157 9.66107,-0.34565 18.86534,4.48243 28.34162,3.81554 -3.6072,-5.41633 -12.61709,-3.70668 -18.49958,-6.00587 -18.58372,-3.63865 -37.13234,-7.97367 -55.99147,-9.80997 l -1.16017,0.18429 z m -372.181,28.552 c -10.65475,7.33771 -12.16583,21.21157 -17.31816,32.12957 -5.86839,15.81 -14.70269,32.70585 -10.06943,49.95913 4.31497,11.00988 16.93531,12.91112 27.10999,15.00887 20.94109,4.62733 41.94485,9.56332 63.28976,11.76295 8.9788,-0.4268 10.51518,-9.83511 12.83952,-13.97743 3.81207,-2.51025 3.85482,-10.51946 4.5257,-2.04326 1.22147,9.51913 7.22646,20.24914 15.69752,22.91897 2.83789,0.5712 3.94358,-3.76017 6.40082,0.74328 9.69584,2.95156 19.85579,4.09412 29.59799,6.80534 16.06396,2.77673 32.2384,8.78864 48.6953,6.48663 8.48598,-1.58664 8.89223,-19.80465 11.83953,-19.00766 0.75219,11.07014 6.18177,24.24125 18.1067,26.85785 17.66754,4.95651 35.90585,7.57278 53.73313,11.9221 10.03552,1.92103 20.22915,4.47726 30.48865,3.93242 9.61376,-1.91223 8.4132,-15.71341 14.30856,-19.77645 1.01216,9.44359 3.66583,19.77936 12.9282,24.57162 9.33831,4.7284 20.12169,5.26003 30.12822,8.03655 18.18951,3.88013 36.35805,8.15307 54.75236,10.85041 13.08909,1.43093 18.17412,-11.69923 20.57834,-22.0649 5.27376,-16.35213 10.83849,-32.65277 15.44809,-49.19226 1.30749,-12.18084 -5.54382,-26.05934 -17.71563,-29.88329 -16.37019,-5.56294 -33.72859,-7.38497 -50.54902,-11.19235 -11.5858,-1.81247 -23.42316,-5.33358 -35.17281,-3.68248 -9.12325,0.57102 -11.92342,13.31553 -14.6039,16.81835 -1.89307,-14.50419 -14.64701,-26.31086 -29.22314,-27.22797 -23.01676,-4.64612 -46.09698,-9.72824 -69.47846,-11.89617 -9.26335,-0.68653 -11.91513,12.79088 -17.22239,14.22229 -2.08737,-7.69875 -6.77022,-14.51109 -13.82806,-18.51707 -12.81946,-6.1728 -27.40607,-6.91415 -41.09526,-10.16933 -13.16158,-2.42317 -26.33698,-5.41278 -39.71831,-6.12068 -8.74375,-0.71594 -14.43525,13.23362 -16.25294,15.00972 -1.17968,-11.03377 -10.93602,-18.17583 -20.82651,-21.24685 -18.79321,-6.53258 -38.86293,-7.85429 -58.14816,-12.43367 -6.26187,-1.03003 -13.22125,-2.22196 -19.2462,0.39577 z M 153.5,401.496 c -10.30148,4.50205 -12.10342,16.97159 -16.58212,26.08195 -5.804,15.30432 -13.48885,30.24103 -15.83257,46.58369 -1.38896,11.8667 7.24691,22.29487 18.4241,25.19007 15.53576,5.13981 31.86632,7.2875 47.6654,11.48645 10.60632,2.20443 21.67847,5.57225 32.51383,3.47823 8.11831,-1.90272 8.86017,-17.75113 12.27115,-18.7417 -0.15969,12.04181 6.5284,25.24107 19.18962,27.80855 25.11688,5.47903 50.06397,11.80609 75.37265,16.36009 12.08039,0.60129 15.17974,-13.12879 19.10736,-21.52165 2.96681,8.50164 3.23865,22.93778 14.53576,27.23814 27.91054,7.44127 56.05351,14.5116 84.67733,18.66805 11.75589,0.008 14.9277,-13.20939 18.07919,-22.03107 1.04011,5.79306 3.66786,15.69174 7.96631,22.29067 4.08397,7.3869 15.90868,7.35154 23.59159,10.24739 23.17002,4.90863 45.99922,12.21913 69.67345,14.2069 12.08922,0.28559 17.43843,-11.62032 19.75465,-21.6005 5.36242,-16.55537 9.96039,-33.38477 15.73721,-49.78356 2.86133,-16.31333 -10.1807,-32.88196 -26.22008,-35.58893 -21.84532,-4.52899 -43.7235,-9.03062 -65.73771,-12.69219 -10.88254,-3.93463 -22.43046,1.91004 -25.49502,13.17551 -2.86925,10.72126 -2.65302,-8.37968 -7.98274,-11.09083 -5.83348,-8.12787 -15.35733,-12.28897 -25.0106,-13.65063 -22.48759,-5.03452 -45.07022,-9.99823 -67.94818,-12.83043 -9.98768,-1.37247 -13.72466,13.34163 -17.63002,15.69461 -2.99672,-13.7797 -15.34394,-24.28678 -29.24733,-25.76119 -22.3118,-4.20368 -44.40778,-10.24112 -67.01274,-12.47174 -9.19657,-1.11601 -14.60223,15.95688 -17.43262,14.85702 -2.16689,-11.2019 -10.88847,-21.19962 -22.50699,-22.73489 -22.34034,-5.75229 -45.03924,-10.07847 -67.7553,-13.999 -2.10382,-0.11572 -4.25925,0.204 -6.16558,1.13099 z m 0.771,12.142 c -2.54235,7.39663 12.37326,3.97778 16.82548,6.39565 4.68111,1.2723 17.6474,3.23813 17.05379,2.80511 3.7785,4.57602 13.63996,3.06146 19.89493,4.66266 4.95267,-0.68718 16.05323,6.9121 16.90996,-0.78686 -18.44177,-5.35845 -37.48898,-8.245 -56.10547,-12.92644 -4.71393,0.11841 -11.45582,-5.29904 -14.57869,-0.15012 z m 110.286,21.299 c -0.79677,7.75912 12.47687,2.23837 16.87089,6.6997 9.68188,3.17437 20.92159,2.12751 29.67077,7.07151 2.26505,-1.08504 7.65254,4.04877 6.20284,-0.29209 5.93329,1.61261 16.16608,4.41457 20.02789,2.7111 -5.09139,-8.01171 -17.84126,-4.46103 -25.88129,-8.39309 -15.11378,-3.16515 -30.09513,-7.40915 -45.40932,-9.34096 l -0.58016,0.39916 z M 495.2,480.2 c 0.75191,8.12264 14.38378,2.40943 19.14335,7.32406 10.36583,1.47467 20.83299,2.96264 30.82979,5.99984 -0.0983,-2.70415 9.85992,3.34409 13.75337,2.00569 3.39704,0.44231 16.10709,3.83524 13.97617,0.59414 -8.88699,-4.26168 -19.02329,-5.11982 -28.47854,-7.70413 C 528.17652,485.05705 511.77682,480.8837 495.2,480.2 Z m -379.76,23.688 c -11.32104,6.69561 -12.49307,21.01323 -17.723321,31.87013 -5.551571,15.56992 -14.167387,30.98395 -13.725498,47.91782 1.341051,10.79358 10.122337,19.42587 20.782219,21.11794 21.94467,6.50985 44.44207,10.98343 66.64984,16.43506 11.31936,3.41337 19.63712,-6.25667 21.91203,-16.29488 1.59348,-5.528 2.60993,-6.04719 2.68716,0.243 0.43977,10.76569 6.90077,21.13561 17.67312,23.95137 12.61034,4.2581 25.77885,6.58965 38.59581,10.13768 13.41158,3.20408 26.85132,6.33122 40.43364,8.73388 11.95576,-0.35038 15.34795,-19.08313 18.66127,-22.26461 1.46674,8.30779 0.24846,18.27295 8.27816,23.76287 11.35656,9.12326 26.70223,9.58792 40.14981,13.70012 18.14064,4.27265 36.28847,10.20675 55.07384,10.24211 10.93502,-2.72186 11.56512,-15.81907 15.58416,-24.37358 0.47927,9.28565 1.1105,19.56503 8.28172,26.47211 8.85714,8.88439 22.23416,9.22783 33.55149,12.90491 20.06441,4.64017 39.98863,10.35598 60.34691,13.43112 12.72443,-1.37247 16.26858,-15.85581 19.99373,-25.90717 5.90295,-17.21088 11.68765,-34.54618 16.00512,-52.21517 1.81432,-13.12275 -7.34637,-25.7003 -19.55853,-29.92789 -17.97143,-7.60308 -37.67472,-9.25687 -56.50134,-13.82837 -11.56063,-2.15796 -23.72439,-5.726 -35.40216,-2.82148 -6.47825,2.38756 -6.97417,15.7872 -10.14565,16.55058 -1.39627,-12.82031 -10.57437,-24.99435 -23.57048,-27.66922 -22.01203,-6.28648 -44.67152,-9.95345 -67.00226,-14.88598 -10.60555,-3.08418 -22.36588,1.68531 -24.69653,13.1331 -2.51808,6.79073 -2.77172,2.67928 -3.47515,-2.36445 -4.68087,-15.29406 -21.34239,-22.29512 -35.96881,-24.18642 -20.29404,-4.19022 -40.44612,-10.23362 -61.24246,-11.10849 -9.13344,-0.0225 -13.31102,8.63481 -15.84488,15.68136 -1.57835,-7.68311 -3.77438,-15.90231 -11.77564,-19.53872 -15.25987,-8.55587 -33.10866,-10.34206 -49.80144,-14.6968 -10.9868,-2.3277 -21.998,-5.14482 -33.21984,-5.87585 -1.76601,0.20201 -3.43411,0.87747 -5.00604,1.67392 z"
     stroke="none"
     fill="#aeafb3"
     fill-rule="evenodd"
     id="path840" />
  <path
     d="m 256.622,39.029 c -14.78242,2.28999 -24.20095,16.071037 -28.32209,29.423088 -3.48839,9.981709 -3.44608,20.77285 -6.29122,30.941062 -5.34165,27.00416 -10.44373,54.08015 -17.31241,80.7498 2.15895,11.09907 17.63121,4.62402 25.35468,9.15281 56.65083,9.5866 113.37934,18.75399 170.02349,28.35135 41.48355,6.89555 82.9672,13.81417 124.43819,20.79702 58.59979,9.59869 117.15362,19.47128 175.71583,29.28365 12.00053,5.68234 14.46374,-8.39503 14.43831,-17.246 6.2613,-34.88618 12.5816,-69.88653 16.10332,-105.19985 0.68472,-11.98806 3.13268,-25.95062 -4.86382,-36.14485 -7.76446,-7.41486 -19.0143,-9.469961 -28.94521,-12.646082 C 603.52562,72.61375 508.30902,55.349836 412.23643,46.593547 363.99046,41.961766 315.57593,37.674193 267.0669,38.15286 c -3.49224,0.131679 -6.98451,0.375491 -10.4449,0.87614 z m 10.598,23.034 c -11.84495,0.19657 -17.30768,12.780108 -18.5098,22.901837 -4.86654,22.610213 -10.24307,45.306463 -11.53914,68.456753 -0.73792,11.79108 10.76522,16.59411 20.65382,17.09223 10.49844,1.87148 20.53076,5.58215 31.06686,7.39186 73.17342,15.58891 147.1086,27.25565 220.89937,39.46724 44.8233,7.04423 89.63364,14.45239 134.74137,19.4246 12.20982,1.0959 24.68216,1.68374 36.73306,-1.02867 7.76565,-6.70676 10.25566,-17.572 11.42293,-28.64898 2.95594,-20.28667 7.78812,-40.44582 7.94793,-61.03746 -1.201,-13.02217 -16.01847,-16.71533 -26.81297,-18.0341 C 586.61922,112.13362 499.02106,98.492217 411.66351,83.459622 366.35682,75.87934 321.10097,67.911105 275.6391,61.3207 272.82773,61.02998 269.89453,61.023945 267.22,62.063 Z M 741.433,131.2 c -1.46309,41.18797 -9.70764,81.70427 -16.0193,122.32523 -4.35044,26.2199 -11.42208,51.85995 -19.34111,77.19555 -14.92865,51.27776 -29.62074,102.6245 -44.73771,153.84734 -0.92857,8.44467 -5.65725,15.94265 -6.94556,24.36066 -15.85443,54.76009 -31.97581,109.44238 -48.12873,164.11502 -0.95706,8.83501 -5.72322,16.68715 -8.21709,25.10966 -1.9426,8.83385 -6.56507,16.42889 -12.09742,23.44244 -12.0233,16.34991 -32.37751,25.07073 -52.46246,24.23125 -28.31167,-1.09341 -55.40647,-10.36712 -83.00108,-15.92137 C 403.51821,719.58444 356.78881,708.1835 309.73426,698.29971 279.19735,690.43679 248.23083,684.25162 217.54721,676.94763 172.3543,666.60952 127.17172,656.22324 81.903906,646.21662 72.308962,644.85386 63.816063,640.9683 55.028307,636.36046 51.322541,633.77596 44.357548,626.74883 48.621656,635.8161 58.457927,653.49553 79.213784,660.28057 98,663.338 c 18.01009,4.47948 36.02981,9.17038 54.196,12.8033 8.4665,3.10967 17.0752,4.42099 25.73534,6.67322 9.31031,1.52643 18.17202,4.92421 27.46558,6.70286 56.88487,13.44119 113.72207,27.0963 170.65737,40.31252 14.98546,2.2628 29.26106,7.50383 44.17433,10.10414 18.61382,4.12746 37.18133,8.61805 55.89402,12.13982 13.52442,3.91631 27.47104,6.20638 41.29858,8.84579 22.06431,3.78818 47.63808,2.8938 64.85111,-13.32096 10.38928,-9.17931 15.75546,-22.2016 19.79882,-35.11335 7.14149,-22.13648 14.01717,-44.43725 19.81988,-66.95529 5.44841,-13.99342 8.55819,-28.78672 12.75522,-43.13593 7.06917,-19.89738 11.93656,-40.5088 18.27602,-60.6477 4.81433,-15.51894 8.33182,-31.38961 13.84054,-46.68438 18.07548,-64.53667 38.71184,-128.39059 54.99953,-193.41749 2.38123,-10.05212 5.20445,-19.99547 6.40916,-30.27945 4.15181,-17.3237 6.09428,-35.09205 9.42374,-52.59432 3.10829,-17.00558 5.25471,-34.24674 8.55189,-51.17151 4.99299,-14.63771 4.13159,-30.8736 -0.25333,-45.52534 -1.04168,-3.03665 -5.71814,-10.96761 -4.41054,-3.09818 -0.0168,4.07475 -0.0335,8.1495 -0.0503,12.22425 z M 315.389,238.3 c -6.26486,22.15601 -14.60788,43.76885 -23.59185,64.89223 -6.15251,8.2355 -17.25608,5.83695 -25.80337,3.77113 -21.24573,-4.26884 -42.86734,-7.63493 -63.74354,-13.12439 -3.23835,-2.30653 -8.81855,-7.45109 -3.19699,-0.58128 9.205,8.76507 23.00154,8.29835 34.63259,11.37561 16.9961,3.3031 33.98032,7.27392 51.28075,8.4691 10.54594,0.18343 12.45584,-14.87714 15.94953,-18.87055 0.72436,6.3273 0.86238,-9.30857 2.8512,-12.38415 4.23737,-14.4126 12.17323,-27.83917 14.19384,-42.82368 0.25104,-2.79625 -3.50482,-5.45482 -2.57216,-0.72402 z m 110.369,17.387 c -0.34693,13.77014 -7.61511,26.02925 -11.57693,38.95999 -4.08991,10.43095 -6.62285,21.98808 -13.55947,30.94224 -5.41155,6.98855 -15.02999,1.5607 -22.40623,1.76072 -21.82345,-3.25982 -43.42269,-8.13675 -64.72219,-13.80815 -4.35864,-1.8385 -10.11643,-4.24028 -3.83059,1.3706 9.89291,7.47916 23.19625,6.60378 34.70148,9.82919 17.46383,3.49025 34.94666,7.61693 52.76574,8.60364 11.60468,-2.38389 12.97855,-16.46864 16.35477,-25.77151 4.64305,-15.47767 10.97857,-30.58027 15.43764,-45.99326 0.27668,-2.88988 -4.89247,-16.12363 -3.16422,-5.89346 z m 113.998,19.873 c -0.73874,14.37137 -7.76152,27.36875 -11.81408,40.95412 -3.52606,9.86113 -5.90908,20.49018 -11.90075,29.19892 -8.0066,7.17871 -19.47369,2.78661 -28.87377,1.58423 -21.35433,-3.96607 -42.74313,-8.29505 -63.89464,-12.92534 -4.00749,-2.06007 -9.43533,-9.7329 -3.90979,-1.34033 8.73328,9.11559 22.60559,8.40292 34.01366,11.56315 18.79965,3.8033 37.57337,8.32866 56.74254,9.70992 12.87538,-1.34181 14.50563,-16.27704 17.86357,-26.07105 5.22013,-15.8591 11.01808,-31.56967 14.82626,-47.85162 -0.62725,-1.58366 -3.95408,-13.871 -3.053,-4.822 z M 657,298.073 c -4.11339,20.86324 -11.84297,40.78505 -18.44606,60.93524 -2.63534,12.01774 -15.15281,14.68327 -25.37052,11.14329 -22.29246,-4.18841 -44.59986,-8.34938 -66.81884,-12.89963 -4.64068,0.87446 -14.47401,-7.55777 -13.16948,-5.71104 8.40455,12.34429 24.75827,11.30751 37.78368,14.49213 19.29879,3.65585 38.48664,8.55538 58.11409,9.98864 12.03592,-2.06603 12.83188,-16.82137 16.75309,-26.02359 5.67356,-17.07863 12.84094,-34.25959 13.77129,-52.36881 -0.60623,-3.07779 -3.65176,-3.81692 -2.61725,0.44377 z m -376.1,31.741 c 3.66905,10.36725 -3.89174,20.12168 -6.46153,29.85198 -5.66808,14.20203 -10.12215,28.97529 -16.97121,42.65288 -6.78386,9.34291 -19.12305,5.95529 -28.45194,3.50018 -21.04767,-4.34208 -42.16807,-8.45548 -62.89976,-14.16705 -6.76954,-3.24875 4.89409,7.20785 8.12224,5.98124 22.05076,5.87039 44.54208,9.96717 66.9187,14.35734 7.92734,1.95387 17.90788,-0.048 20.35832,-8.96837 -3.81391,-3.35338 2.78021,-1.3347 3.37473,-6.77223 0.67915,-4.05525 2.0527,-3.97679 2.75126,-0.78318 -0.25118,-8.75492 2.82703,-16.86568 5.80463,-24.96161 3.80623,-10.90023 8.64149,-21.53833 11.4106,-32.7424 0.15139,-0.83404 -4.43967,-12.69397 -3.95604,-7.94878 z m 112.834,25.198 c -0.25713,13.27648 -7.50096,24.96154 -11.06939,37.46528 -4.43914,11.29294 -7.44756,23.40411 -13.76743,33.79476 -6.80338,7.49618 -17.2541,3.83992 -25.64795,1.99598 -21.71608,-4.48977 -43.4324,-9.0539 -65.04955,-13.95504 -2.97484,-0.85715 -9.81272,-8.85515 -4.689,-1.77913 4.14511,3.25391 9.77364,8.95035 13.87508,5.53686 7.23592,6.64051 19.55044,4.24933 28.45466,8.41413 16.8546,2.64877 33.51994,8.98646 50.76803,7.42669 10.63525,-4.56297 10.85122,-18.42015 14.62346,-27.90463 4.66402,-15.73359 10.1965,-31.19703 16.15909,-46.48152 -1.09259,-2.36988 -5.26756,-15.67216 -3.657,-4.51338 z m 115.981,21.902 c -2.1859,16.84829 -9.89353,32.2993 -14.43573,48.55263 -2.98071,8.82106 -5.62924,18.46499 -12.29407,25.26193 -10.56228,6.66665 -23.23522,0.0774 -34.42895,-1.26914 -19.82912,-4.16834 -39.88016,-7.6812 -59.3607,-13.2132 3.96678,6.46391 13.52922,5.93047 20.39803,8.07524 22.10494,4.92796 44.27557,9.69596 66.57154,13.61776 11.92899,0.36722 15.71776,-12.38012 19.58548,-21.17036 3.52704,-12.94497 7.09064,-25.8929 11.84176,-38.46793 2.18042,-7.8733 6.95125,-16.78202 2.00461,-24.55495 -0.36675,1.03683 0.0821,2.12724 0.11803,3.16802 z m 118.089,22.431 c -4.56175,23.63243 -13.14018,46.25647 -20.79294,68.97922 -3.0805,8.76634 -13.25137,8.16744 -20.73989,7.21429 -24.45684,-3.9452 -48.40248,-10.66355 -72.94817,-14.10951 -4.21721,-1.75199 -16.26444,-10.09763 -7.26066,-1.54256 9.70873,7.1955 22.49454,7.09688 33.76175,10.23948 19.31608,3.80582 38.47963,9.51504 58.14934,10.80899 12.47175,-1.82672 14.62303,-15.88595 17.83551,-25.72291 5.15982,-16.28857 11.02465,-32.48179 15.03352,-49.05362 0.59852,-1.99893 -3.44868,-15.28452 -3.03846,-6.81338 z M 247.34,435.784 c -2.41835,16.56111 -10.67435,31.45187 -15.98998,47.15801 -3.7663,9.45603 -6.81801,20.14346 -14.6955,27.03034 -10.39577,4.67354 -21.31778,-2.56856 -31.82493,-3.63242 -18.3513,-4.3727 -37.29859,-7.17202 -54.97435,-13.78211 -7.08022,-4.10095 3.97025,7.30945 7.68758,6.83799 17.51066,4.0725 35.08867,7.99153 52.55715,12.34517 10.22872,1.21853 21.97673,6.49491 31.60919,1.01317 6.30511,-3.21824 6.90324,-15.08812 10.14357,-17.52009 1.75988,8.38414 0.54798,-11.36032 3.96444,-13.88226 3.49003,-15.23432 12.43263,-28.8117 14.18896,-44.47085 0.98475,-3.60039 -3.60475,-7.00462 -2.66613,-1.09695 z m 113.477,21.549 c -2.8612,18.4426 -11.43132,35.31828 -16.92535,53.02911 -3.1627,7.95614 -5.46088,17.33491 -12.52321,22.74444 -11.19757,5.0388 -23.30428,-1.57196 -34.58314,-3.27657 -18.1331,-4.25717 -36.48837,-7.64236 -54.3943,-12.81692 -3.44691,-2.33997 -8.65519,-7.59099 -3.60217,-1.112 7.60452,9.48713 20.71663,8.53869 31.36427,11.72771 19.2265,4.17912 38.30974,9.37878 57.80572,12.08259 12.20527,-1.02313 14.4607,-15.27405 18.68043,-24.32218 5.19301,-17.26488 10.77765,-34.44336 17.30875,-51.26018 1.04101,-1.6981 -3.74498,-15.44064 -3.131,-6.796 z M 476.711,477 c 1.84557,12.07292 -4.76203,23.20402 -7.87192,34.51529 -5.36182,14.78285 -8.94825,30.52109 -16.93961,44.14621 -8.05909,7.51074 -19.71692,2.64777 -29.1016,0.85334 -22.05482,-4.99016 -44.19953,-9.6437 -66.0184,-15.61204 -8.05032,-3.92041 4.25843,7.16132 7.79845,5.79364 24.40817,6.65486 49.18401,12.08638 74.08505,16.49571 13.0161,3.87945 21.92042,-6.86425 23.12977,-18.76878 4.68542,-9.44924 5.93493,-20.20335 10.00768,-30.00856 3.13532,-9.8202 7.41148,-19.65267 7.94794,-30.02272 -0.60287,-2.4167 -0.82782,-5.8887 -3.03736,-7.39209 z M 597.1,502.401 c 1.84367,10.90775 -4.57725,20.85892 -7.02024,31.16729 -5.38662,15.76951 -9.14468,32.30976 -16.90897,47.12292 -7.8066,8.20341 -19.9273,2.30372 -29.4432,1.11306 -22.6279,-4.8802 -45.29938,-9.6375 -67.64588,-15.70887 -3.25408,-1.22158 -8.87894,-7.02707 -3.71046,-0.90303 2.55747,6.90123 13.79235,6.03808 20.17311,8.89742 22.69507,5.27243 45.25087,11.56302 68.37655,14.64424 11.36988,1.87486 19.72349,-7.28745 21.75485,-17.65463 5.5165,-16.36214 9.7584,-33.12794 15.58512,-49.39287 3.27062,-4.99334 1.23226,-21.98467 -1.38365,-20.201 l 0.12332,0.50677 z M 211.722,537.23 c 0.16251,12.57982 -6.89617,23.68097 -10.56895,35.38753 -5.51335,13.94065 -9.13598,29.18538 -18.29126,41.27673 -8.90487,6.63663 -20.24216,1.1006 -29.91518,-0.70046 -20.1443,-4.95575 -40.67754,-8.7932 -60.279391,-15.63414 -3.914619,-3.23115 -5.404193,-3.90618 -1.539596,0.58271 7.930476,7.70346 19.957447,7.6149 29.931967,11.02061 18.46492,4.45198 36.83282,9.59215 55.5686,12.72248 11.55868,-0.14139 15.37975,-12.60425 18.5642,-21.55925 0.85851,2.42512 1.65561,9.6804 1.62528,2.28564 0.25281,-16.25934 9.18874,-30.50844 13.60587,-45.77897 3.48222,-5.47125 5.84064,-20.83826 1.21146,-21.18671 l 0.14647,0.86977 z m 114.541,26.963 c -5.84608,23.68261 -14.4437,46.61826 -23.44945,69.2457 -4.04526,12.06346 -17.73852,9.77431 -27.37258,7.48771 -20.51071,-4.82144 -40.95438,-9.94743 -61.45284,-14.83413 -3.90392,-0.31447 -16.98766,-8.29245 -8.29992,-0.68584 11.86861,7.22651 26.23004,7.75838 39.18827,12.06174 15.86514,3.87574 31.76759,7.65031 47.84852,10.53182 13.24858,-2.39355 15.84371,-17.61313 19.48167,-28.29833 5.59113,-16.65537 12.0296,-33.12042 16.92418,-49.95179 0.76173,-2.95366 -2.94357,-14.67361 -2.86785,-5.55688 z m 118.079,25.466 c -0.34715,9.55859 -4.99421,18.55184 -5.73204,27.49948 -4.31089,-0.0808 -4.98377,13.12232 -8.05058,18.35646 -3.71788,9.94286 -6.91409,20.20149 -11.64911,29.68728 -7.36414,8.2707 -19.39859,3.22017 -28.56083,1.45454 -22.55247,-5.49757 -45.27659,-10.35752 -67.55636,-16.91622 -3.36812,-2.09556 -7.5815,-5.20362 -2.99136,0.0363 8.55551,7.83255 20.93287,8.03369 31.50301,11.38384 20.15307,4.63429 40.16909,10.71303 60.73443,12.97613 10.72211,-0.87643 14.12104,-12.09951 16.5777,-20.78912 6.7745,-19.95168 14.78377,-39.75295 18.01864,-60.65724 0.46708,-3.55236 -2.95953,-11.32838 -2.2935,-3.03146 z m 121.147,26.69 c -1.63702,17.98309 -9.71588,34.48603 -14.53668,51.713 -3.07498,9.25986 -5.64314,19.31487 -12.25638,26.74555 -8.86475,6.14502 -19.61687,-0.0856 -29.06876,-1.42038 -23.1219,-5.48173 -46.51957,-10.13423 -68.99231,-18.00066 -4.61322,-3.82808 -5.2316,-3.19749 -0.84557,1.27032 9.42987,8.00765 22.55376,8.51067 33.92444,12.12413 19.5727,4.57568 39.0417,9.97731 58.86557,13.23774 12.65888,-1.1844 16.12564,-15.64032 19.82048,-25.55747 5.95705,-17.16899 11.55318,-34.52169 16.22529,-52.06662 1.70237,-3.27706 -2.85991,-21.69112 -3.13608,-8.04561 z"
     stroke="none"
     fill="#80838a"
     fill-rule="evenodd"
     id="path842" />
</svg>
