<svg xmlns="http://www.w3.org/2000/svg" width="727pt" height="49pt" viewBox="0 -49 727 49"><g id="page1" transform="scale(1 -1)"><g fill="none" stroke="#000" stroke-linecap="round" stroke-linejoin="round"><path stroke-width="1.6" d="M6.633 31.574h708.664"/><path stroke-width=".5" d="M6.633 27.324v8.504m28.347-8.504v8.504m28.344-8.504v8.504m28.348-8.504v8.504m28.348-8.504v8.504m28.343-8.504v8.504m28.348-8.504v8.504m28.348-8.504v8.504m28.347-8.504v8.504m28.344-8.504v8.504m28.348-8.504v8.504m28.347-8.504v8.504m28.344-8.504v8.504m28.348-8.504v8.504m28.347-8.504v8.504m28.344-8.504v8.504m28.348-8.504v8.504m28.347-8.504v8.504m28.344-8.504v8.504m28.348-8.504v8.504m28.348-8.504v8.504m28.347-8.504v8.504m28.344-8.504v8.504m28.348-8.504v8.504m28.347-8.504v8.504m28.348-8.504v8.504"/></g><path fill="none" stroke="#00f" stroke-linecap="round" stroke-linejoin="round" stroke-width="2" d="M6.633 45.746H34.98"/><circle cx="6.633" cy="45.746" r="3" fill="#00f"/><circle cx="34.98" cy="45.746" r="3" fill="#00f"/><path fill="none" stroke="#00f" stroke-linecap="round" stroke-linejoin="round" stroke-width="2" d="M290.098 45.746h28.347"/><circle cx="290.098" cy="45.746" r="3" fill="#00f"/><circle cx="318.445" cy="45.746" r="3" fill="#00f"/><path d="M10.227 7.934c0 1.488-.09 2.937-.735 4.3-.734 1.485-2.023 1.88-2.902 1.88-1.04 0-2.313-.52-2.973-2.009-.504-1.128-.683-2.238-.683-4.171 0-1.739.125-3.047.77-4.317.698-1.363 1.937-1.793 2.866-1.793 1.559 0 2.453.93 2.977 1.969.644 1.344.68 3.102.68 4.14M6.57 2.184c-.57 0-1.738.32-2.078 2.273-.195 1.074-.195 2.438-.195 3.691 0 1.47 0 2.793.285 3.852.305 1.2 1.219 1.754 1.988 1.754.68 0 1.72-.41 2.063-1.953.23-1.02.23-2.434.23-3.653 0-1.203 0-2.562-.195-3.656-.34-1.969-1.469-2.308-2.098-2.308m29.188 11.5c0 .41 0 .43-.356.43-.43-.485-1.328-1.145-3.172-1.145v-.524c.41 0 1.31 0 2.293.47V3.577c0-.644-.054-.86-1.629-.86h-.558V2.2c.484.035 2.223.035 2.812.035.594 0 2.313 0 2.797-.035v.52h-.554c-1.578 0-1.633.215-1.633.86zM66.781 5.21h-.39c-.055-.304-.2-1.288-.38-1.577-.124-.16-1.144-.16-1.683-.16h-3.312c.48.41 1.574 1.558 2.039 1.988 2.726 2.508 3.726 3.437 3.726 5.21 0 2.063-1.629 3.442-3.707 3.442s-3.297-1.773-3.297-3.316c0-.91.79-.91.844-.91.375 0 .84.27.84.84 0 .503-.34.843-.84.843-.164 0-.2 0-.254-.02.344 1.22 1.309 2.044 2.473 2.044 1.523 0 2.457-1.274 2.457-2.922 0-1.52-.879-2.848-1.899-3.992l-3.62-4.051v-.43h6.538zm23.817 3.423c-.305-.02-.38-.04-.38-.2 0-.18.09-.18.415-.18h.824c1.524 0 2.203-1.253 2.203-2.972 0-2.347-1.219-2.972-2.097-2.972-.86 0-2.329.41-2.848 1.593.574-.09 1.094.23 1.094.88 0 .519-.38.874-.88.874-.429 0-.894-.25-.894-.93 0-1.593 1.594-2.902 3.582-2.902 2.133 0 3.711 1.63 3.711 3.442 0 1.644-1.328 2.937-3.047 3.242 1.559.445 2.563 1.754 2.563 3.152 0 1.414-1.469 2.453-3.207 2.453-1.793 0-3.118-1.093-3.118-2.402 0-.715.555-.86.825-.86.375 0 .804.27.804.81 0 .573-.43.823-.824.823-.105 0-.144 0-.199-.02.684 1.22 2.367 1.22 2.457 1.22.59 0 1.754-.27 1.754-2.024 0-.34-.055-1.344-.57-2.113-.54-.79-1.149-.844-1.633-.863zm31.468 5.23c0 .34 0 .43-.25.43-.144 0-.199 0-.339-.215l-5.391-8.367v-.52h4.711V3.563c0-.665-.039-.844-1.344-.844h-.359v-.52c.41.035 1.828.035 2.328.035s1.937 0 2.348-.035v.52h-.36c-1.289 0-1.344.18-1.344.844V5.19h1.813v.52h-1.813zm-1.183-1.398V5.71h-4.352zm25.41 0a5.4 5.4 0 0 1 1.594-.27c2.027 0 3.316 1.489 3.316 1.739 0 .074-.039.16-.144.16-.036 0-.071 0-.235-.07a5.9 5.9 0 0 0-2.328-.485c-1.183 0-2.023.36-2.363.504-.125.05-.164.05-.18.05-.144 0-.144-.105-.144-.39v-5.32c0-.324 0-.434.214-.434.09 0 .11.02.29.235a2.7 2.7 0 0 0 2.238 1.164c.949 0 1.414-.88 1.558-1.184.305-.695.321-1.574.321-2.258 0-.68 0-1.699-.5-2.508-.395-.644-1.09-1.09-1.883-1.09a2.77 2.77 0 0 0-2.668 2.114.8.8 0 0 1 .285-.055c.305 0 .789.18.789.79 0 .5-.34.788-.789.788-.32 0-.785-.164-.785-.86 0-1.522 1.215-3.26 3.207-3.26 2.023 0 3.797 1.698 3.797 3.976 0 2.133-1.434 3.906-3.313 3.906-1.023 0-1.812-.45-2.277-.95zm28.211-4.031c0 4.535 2.203 5.25 3.172 5.25.644 0 1.289-.2 1.629-.735-.215 0-.895 0-.895-.734 0-.395.27-.735.735-.735.445 0 .75.27.75.79 0 .93-.68 1.843-2.239 1.843-2.258 0-4.621-2.312-4.621-6.254 0-4.925 2.149-6.035 3.672-6.035 1.953 0 3.621 1.7 3.621 4.031 0 2.383-1.668 3.977-3.461 3.977-1.594 0-2.183-1.379-2.363-1.883zm2.203-6.125c-1.129 0-1.668 1.003-1.828 1.378-.16.465-.34 1.344-.34 2.598 0 1.414.645 3.188 2.258 3.188.984 0 1.504-.66 1.773-1.27.285-.664.285-1.562.285-2.332 0-.91 0-1.719-.339-2.398-.446-.86-1.094-1.164-1.809-1.164m32.504 11.015v.414h-4.32c-2.164 0-2.203.23-2.274.575h-.394l-.555-3.586h.395c.054.324.214 1.433.445 1.632.144.106 1.488.106 1.738.106h3.801l-1.902-2.723c-.481-.699-2.293-3.637-2.293-7.004 0-.199 0-.914.738-.914.75 0 .75.7.75.93v.898c0 2.668.43 4.746 1.273 5.946zm25.129-4.656c.894.484 2.203 1.309 2.203 2.813 0 1.558-1.504 2.632-3.152 2.632-1.774 0-3.172-1.308-3.172-2.937 0-.61.179-1.219.679-1.828.196-.23.215-.25 1.469-1.13-1.738-.804-2.633-2.007-2.633-3.312 0-1.898 1.809-3.082 3.637-3.082 1.988 0 3.656 1.469 3.656 3.348 0 1.828-1.293 2.637-2.687 3.496m-2.438 1.613c-.234.16-.949.625-.949 1.504 0 1.164 1.219 1.899 2.418 1.899 1.289 0 2.438-.934 2.438-2.223 0-1.094-.789-1.969-1.829-2.543zm.84-2.312 2.172-1.414c.465-.305 1.289-.86 1.289-1.953 0-1.364-1.383-2.293-2.812-2.293-1.524 0-2.832 1.109-2.832 2.597 0 1.399 1.019 2.524 2.183 3.063m31.215-.555c0-4.226-1.883-5.105-2.953-5.105-.434 0-1.383.05-1.832.68h.109c.125-.036.77.07.77.734 0 .394-.27.734-.735.734s-.753-.305-.753-.77c0-1.109.898-1.863 2.457-1.863 2.238 0 4.406 2.383 4.406 6.27 0 4.82-2.008 6.02-3.582 6.02-1.973 0-3.711-1.65-3.711-4.012 0-2.368 1.668-3.977 3.461-3.977 1.324 0 2.004.965 2.363 1.879zm-2.293-.934c-1.129 0-1.613.915-1.773 1.254-.289.684-.289 1.543-.289 2.348 0 1.004 0 1.863.468 2.598.321.484.805 1.004 1.774 1.004 1.019 0 1.539-.895 1.719-1.309.359-.875.359-2.398.359-2.668 0-1.504-.68-3.227-2.258-3.227m24.797 7.204c0 .41 0 .43-.359.43-.43-.485-1.329-1.145-3.172-1.145v-.524c.414 0 1.308 0 2.293.47V3.577c0-.644-.051-.86-1.629-.86h-.555V2.2c.484.035 2.219.035 2.813.035.589 0 2.308 0 2.793-.035v.52h-.555c-1.578 0-1.629.215-1.629.86zm11.668-5.75c0 1.488-.094 2.937-.738 4.3-.735 1.485-2.024 1.88-2.903 1.88-1.039 0-2.308-.52-2.972-2.009-.5-1.128-.68-2.238-.68-4.171 0-1.739.125-3.047.769-4.317.7-1.363 1.934-1.793 2.868-1.793 1.558 0 2.453.93 2.972 1.969.645 1.344.684 3.102.684 4.14m-3.656-5.75c-.575 0-1.739.32-2.078 2.273-.2 1.074-.2 2.438-.2 3.691 0 1.47 0 2.793.289 3.852.305 1.2 1.219 1.754 1.989 1.754.679 0 1.718-.41 2.058-1.953.235-1.02.235-2.434.235-3.653 0-1.203 0-2.562-.2-3.656-.339-1.969-1.468-2.308-2.093-2.308m20.386 11.501c0 .41 0 .43-.355.43-.434-.485-1.328-1.145-3.176-1.145v-.524c.414 0 1.309 0 2.293.47V3.577c0-.644-.051-.86-1.629-.86h-.554V2.2c.484.035 2.222.035 2.812.035.594 0 2.313 0 2.797-.035v.52h-.559c-1.574 0-1.629.215-1.629.86zm8.7 0c0 .41 0 .43-.356.43-.43-.485-1.328-1.145-3.172-1.145v-.524c.41 0 1.309 0 2.293.47V3.577c0-.644-.054-.86-1.629-.86h-.558V2.2c.484.035 2.222.035 2.812.035.594 0 2.313 0 2.797-.035v.52h-.558c-1.575 0-1.629.215-1.629.86zm19.601 0c0 .41 0 .43-.359.43-.43-.485-1.324-1.145-3.172-1.145v-.524c.414 0 1.309 0 2.293.47V3.577c0-.644-.051-.86-1.629-.86h-.555V2.2c.485.035 2.223.035 2.813.035s2.308 0 2.793-.035v.52h-.555c-1.574 0-1.629.215-1.629.86zm11.524-8.474h-.395c-.055-.304-.199-1.288-.375-1.577-.125-.16-1.148-.16-1.687-.16h-3.313c.484.41 1.578 1.558 2.043 1.988 2.723 2.508 3.727 3.437 3.727 5.21 0 2.063-1.633 3.442-3.711 3.442s-3.293-1.773-3.293-3.316c0-.91.785-.91.84-.91.375 0 .843.27.843.84 0 .503-.34.843-.843.843-.161 0-.196 0-.25-.02.339 1.22 1.308 2.044 2.472 2.044 1.524 0 2.453-1.274 2.453-2.922 0-1.52-.879-2.848-1.898-3.992l-3.617-4.051v-.43h6.539zm16.875 8.474c0 .41 0 .43-.356.43-.43-.485-1.328-1.145-3.172-1.145v-.524c.41 0 1.309 0 2.293.47V3.577c0-.644-.054-.86-1.629-.86h-.558V2.2c.484.035 2.222.035 2.812.035.594 0 2.313 0 2.797-.035v.52h-.558c-1.575 0-1.629.215-1.629.86zm6.839-5.051c-.304-.02-.378-.04-.378-.2 0-.18.089-.18.414-.18h.824c1.523 0 2.203-1.253 2.203-2.972 0-2.347-1.219-2.972-2.098-2.972-.859 0-2.328.41-2.847 1.593.574-.09 1.093.23 1.093.88 0 .519-.379.874-.879.874-.429 0-.894-.25-.894-.93 0-1.593 1.594-2.902 3.582-2.902 2.133 0 3.711 1.63 3.711 3.442 0 1.644-1.328 2.937-3.051 3.242 1.563.445 2.563 1.754 2.563 3.152 0 1.414-1.469 2.453-3.203 2.453-1.793 0-3.118-1.093-3.118-2.402 0-.715.551-.86.821-.86.379 0 .808.27.808.81 0 .573-.429.823-.824.823-.109 0-.145 0-.199-.02.683 1.22 2.367 1.22 2.457 1.22.59 0 1.754-.27 1.754-2.024 0-.34-.055-1.344-.574-2.113-.536-.79-1.145-.844-1.629-.863zm21.461 5.051c0 .41 0 .43-.355.43-.434-.485-1.328-1.145-3.176-1.145v-.524c.414 0 1.309 0 2.293.47V3.577c0-.644-.051-.86-1.629-.86h-.554V2.2c.484.035 2.222.035 2.812.035.594 0 2.313 0 2.797-.035v.52h-.559c-1.574 0-1.629.215-1.629.86zm10.11.179c0 .34 0 .43-.25.43-.145 0-.199 0-.34-.215l-5.395-8.367v-.52h4.711V3.563c0-.665-.035-.844-1.343-.844h-.36v-.52c.414.035 1.828.035 2.328.035.504 0 1.938 0 2.348-.035v.52h-.355c-1.293 0-1.344.18-1.344.844V5.19h1.808v.52h-1.808zm-1.184-1.398V5.71h-4.355zm19.473 1.219c0 .41 0 .43-.356.43-.429-.485-1.328-1.145-3.172-1.145v-.524c.411 0 1.309 0 2.293.47V3.577c0-.644-.054-.86-1.628-.86h-.555V2.2c.48.035 2.219.035 2.808.035.594 0 2.313 0 2.797-.035v.52h-.554c-1.578 0-1.633.215-1.633.86zm5.836-1.219a5.4 5.4 0 0 1 1.594-.27c2.027 0 3.316 1.489 3.316 1.739 0 .074-.039.16-.145.16-.039 0-.07 0-.234-.07a5.9 5.9 0 0 0-2.328-.485c-1.184 0-2.024.36-2.367.504-.125.05-.16.05-.176.05-.145 0-.145-.105-.145-.39v-5.32c0-.324 0-.434.215-.434.09 0 .106.02.285.235a2.71 2.71 0 0 0 2.243 1.164c.949 0 1.414-.88 1.558-1.184.305-.695.32-1.574.32-2.258 0-.68 0-1.699-.5-2.508-.394-.644-1.093-1.09-1.882-1.09a2.77 2.77 0 0 0-2.668 2.114.8.8 0 0 1 .285-.055c.305 0 .789.18.789.79 0 .5-.34.788-.789.788-.32 0-.785-.164-.785-.86 0-1.522 1.215-3.26 3.203-3.26 2.027 0 3.801 1.698 3.801 3.976 0 2.133-1.434 3.906-3.317 3.906-1.019 0-1.808-.45-2.273-.95zm22.465 1.219c0 .41 0 .43-.356.43-.43-.485-1.328-1.145-3.172-1.145v-.524c.41 0 1.309 0 2.293.47V3.577c0-.644-.054-.86-1.629-.86h-.558V2.2c.484.035 2.222.035 2.812.035.594 0 2.313 0 2.797-.035v.52h-.558c-1.575 0-1.629.215-1.629.86zm5.843-5.25c0 4.535 2.207 5.25 3.172 5.25.645 0 1.289-.2 1.629-.735-.215 0-.894 0-.894-.734 0-.395.269-.735.734-.735.449 0 .754.27.754.79 0 .93-.68 1.843-2.242 1.843-2.254 0-4.621-2.312-4.621-6.254 0-4.925 2.152-6.035 3.675-6.035 1.95 0 3.618 1.7 3.618 4.031 0 2.383-1.668 3.977-3.457 3.977-1.598 0-2.188-1.379-2.368-1.883zm2.207-6.125c-1.132 0-1.668 1.003-1.828 1.378-.164.465-.343 1.344-.343 2.598 0 1.414.648 3.188 2.257 3.188.985 0 1.508-.66 1.774-1.27.289-.664.289-1.562.289-2.332 0-.91 0-1.719-.34-2.398-.449-.86-1.094-1.164-1.809-1.164m20.25 11.375c0 .41 0 .43-.355.43-.434-.485-1.328-1.145-3.176-1.145v-.524c.414 0 1.309 0 2.293.47V3.577c0-.644-.051-.86-1.629-.86h-.554V2.2c.484.035 2.222.035 2.812.035.594 0 2.313 0 2.797-.035v.52h-.559c-1.574 0-1.629.215-1.629.86zm12.149-.36v.414h-4.317c-2.168 0-2.203.23-2.273.575h-.395l-.554-3.586h.39c.059.324.219 1.433.45 1.632.144.106 1.488.106 1.738.106h3.797l-1.899-2.723c-.48-.699-2.293-3.637-2.293-7.004 0-.199 0-.914.735-.914.754 0 .754.7.754.93v.898c0 2.668.429 4.746 1.273 5.946zm16.25.36c0 .41 0 .43-.356.43-.429-.485-1.328-1.145-3.172-1.145v-.524c.411 0 1.309 0 2.293.47V3.577c0-.644-.054-.86-1.628-.86h-.555V2.2c.48.035 2.219.035 2.808.035.594 0 2.313 0 2.797-.035v.52h-.554c-1.578 0-1.633.215-1.633.86zm8.98-5.016c.895.484 2.203 1.309 2.203 2.813 0 1.558-1.503 2.632-3.152 2.632-1.773 0-3.172-1.308-3.172-2.937 0-.61.18-1.219.68-1.828.199-.23.219-.25 1.473-1.13-1.739-.804-2.637-2.007-2.637-3.312 0-1.898 1.812-3.082 3.64-3.082 1.985 0 3.653 1.469 3.653 3.348 0 1.828-1.289 2.637-2.688 3.496m-2.437 1.613c-.231.16-.949.625-.949 1.504 0 1.164 1.218 1.899 2.421 1.899 1.29 0 2.434-.934 2.434-2.223 0-1.094-.789-1.969-1.828-2.543zm.844-2.312 2.168-1.414c.464-.305 1.289-.86 1.289-1.953 0-1.364-1.379-2.293-2.813-2.293-1.523 0-2.832 1.109-2.832 2.597 0 1.399 1.023 2.524 2.188 3.063m20.914 5.715c0 .41 0 .43-.356.43-.43-.485-1.328-1.145-3.172-1.145v-.524c.41 0 1.309 0 2.293.47V3.577c0-.644-.054-.86-1.629-.86h-.558V2.2c.484.035 2.222.035 2.812.035.594 0 2.313 0 2.797-.035v.52h-.558c-1.575 0-1.629.215-1.629.86zm10.199-6.27c0-4.226-1.883-5.105-2.957-5.105-.43 0-1.379.05-1.828.68h.109c.125-.036.77.07.77.734 0 .394-.27.734-.735.734s-.754-.305-.754-.77c0-1.109.899-1.863 2.457-1.863 2.239 0 4.407 2.383 4.407 6.27 0 4.82-2.008 6.02-3.586 6.02-1.969 0-3.707-1.65-3.707-4.012 0-2.368 1.668-3.977 3.457-3.977 1.328 0 2.007.965 2.367 1.879zm-2.293-.934c-1.129 0-1.613.915-1.774 1.254-.289.684-.289 1.543-.289 2.348 0 1.004 0 1.863.465 2.598.324.484.809 1.004 1.774 1.004 1.023 0 1.543-.895 1.722-1.309.356-.875.356-2.398.356-2.668 0-1.504-.676-3.227-2.254-3.227m23.219-1.27h-.395c-.055-.304-.199-1.288-.375-1.577-.125-.16-1.148-.16-1.687-.16h-3.313c.484.41 1.578 1.558 2.043 1.988 2.723 2.508 3.727 3.437 3.727 5.21 0 2.063-1.633 3.442-3.711 3.442s-3.293-1.773-3.293-3.316c0-.91.785-.91.84-.91.375 0 .843.27.843.84 0 .503-.34.843-.843.843-.161 0-.196 0-.25-.02.339 1.22 1.308 2.044 2.472 2.044 1.524 0 2.453-1.274 2.453-2.922 0-1.52-.879-2.848-1.898-3.992l-3.617-4.051v-.43h6.539zm8.945 2.724c0 1.488-.094 2.937-.738 4.3-.735 1.485-2.024 1.88-2.903 1.88-1.039 0-2.308-.52-2.972-2.009-.5-1.128-.68-2.238-.68-4.171 0-1.739.125-3.047.769-4.317.7-1.363 1.934-1.793 2.868-1.793 1.558 0 2.453.93 2.972 1.969.645 1.344.684 3.102.684 4.14m-3.656-5.75c-.575 0-1.739.32-2.078 2.273-.2 1.074-.2 2.438-.2 3.691 0 1.47 0 2.793.289 3.852.305 1.2 1.219 1.754 1.989 1.754.679 0 1.718-.41 2.058-1.953.235-1.02.235-2.434.235-3.653 0-1.203 0-2.562-.2-3.656-.339-1.969-1.468-2.308-2.093-2.308m23.011 3.027h-.394c-.055-.304-.199-1.288-.375-1.577-.125-.16-1.149-.16-1.688-.16h-3.312c.48.41 1.578 1.558 2.043 1.988 2.722 2.508 3.726 3.437 3.726 5.21 0 2.063-1.632 3.442-3.711 3.442s-3.296-1.773-3.296-3.316c0-.91.789-.91.843-.91.375 0 .844.27.844.84 0 .503-.344.843-.844.843-.164 0-.199 0-.25-.02.34 1.22 1.309 2.044 2.473 2.044 1.52 0 2.453-1.274 2.453-2.922 0-1.52-.879-2.848-1.898-3.992l-3.621-4.051v-.43h6.539zm6.075 8.474c0 .41 0 .43-.356.43-.43-.485-1.328-1.145-3.172-1.145v-.524c.41 0 1.309 0 2.293.47V3.577c0-.644-.054-.86-1.629-.86h-.558V2.2c.484.035 2.222.035 2.812.035.594 0 2.313 0 2.797-.035v.52h-.558c-1.575 0-1.629.215-1.629.86zm22.324-8.474h-.395c-.054-.304-.195-1.288-.375-1.577-.125-.16-1.148-.16-1.683-.16h-3.317c.485.41 1.578 1.558 2.043 1.988 2.723 2.508 3.727 3.437 3.727 5.21 0 2.063-1.629 3.442-3.711 3.442-2.078 0-3.293-1.773-3.293-3.316 0-.91.789-.91.84-.91.375 0 .844.27.844.84 0 .503-.34.843-.844.843-.16 0-.196 0-.25-.02.34 1.22 1.308 2.044 2.472 2.044 1.524 0 2.454-1.274 2.454-2.922 0-1.52-.879-2.848-1.899-3.992l-3.617-4.051v-.43h6.539zm8.801 0h-.395c-.055-.304-.199-1.288-.375-1.577-.125-.16-1.148-.16-1.687-.16h-3.313c.484.41 1.578 1.558 2.043 1.988 2.723 2.508 3.727 3.437 3.727 5.21 0 2.063-1.633 3.442-3.711 3.442s-3.293-1.773-3.293-3.316c0-.91.785-.91.84-.91.375 0 .843.27.843.84 0 .503-.34.843-.843.843-.161 0-.196 0-.25-.02.339 1.22 1.308 2.044 2.472 2.044 1.524 0 2.453-1.274 2.453-2.922 0-1.52-.879-2.848-1.898-3.992l-3.617-4.051v-.43h6.539zm19.5 0h-.395c-.055-.304-.199-1.288-.375-1.577-.125-.16-1.148-.16-1.687-.16h-3.313c.484.41 1.578 1.558 2.043 1.988 2.723 2.508 3.727 3.437 3.727 5.21 0 2.063-1.633 3.442-3.711 3.442s-3.293-1.773-3.293-3.316c0-.91.785-.91.84-.91.375 0 .843.27.843.84 0 .503-.34.843-.843.843-.161 0-.196 0-.25-.02.339 1.22 1.308 2.044 2.472 2.044 1.524 0 2.453-1.274 2.453-2.922 0-1.52-.879-2.848-1.898-3.992l-3.617-4.051v-.43h6.539zm4.214 3.423c-.304-.02-.378-.04-.378-.2 0-.18.089-.18.414-.18h.824c1.523 0 2.203-1.253 2.203-2.972 0-2.347-1.219-2.972-2.098-2.972-.859 0-2.328.41-2.847 1.593.574-.09 1.093.23 1.093.88 0 .519-.379.874-.879.874-.429 0-.894-.25-.894-.93 0-1.593 1.594-2.902 3.582-2.902 2.133 0 3.711 1.63 3.711 3.442 0 1.644-1.328 2.937-3.051 3.242 1.563.445 2.563 1.754 2.563 3.152 0 1.414-1.469 2.453-3.203 2.453-1.793 0-3.118-1.093-3.118-2.402 0-.715.551-.86.821-.86.379 0 .808.27.808.81 0 .573-.429.823-.824.823-.109 0-.145 0-.199-.02.683 1.22 2.367 1.22 2.457 1.22.59 0 1.754-.27 1.754-2.024 0-.34-.055-1.344-.574-2.113-.536-.79-1.145-.844-1.629-.863zm24.184-3.423h-.394c-.055-.304-.196-1.288-.375-1.577-.125-.16-1.145-.16-1.684-.16h-3.316c.484.41 1.578 1.558 2.042 1.988 2.723 2.508 3.727 3.437 3.727 5.21 0 2.063-1.629 3.442-3.711 3.442-2.074 0-3.293-1.773-3.293-3.316 0-.91.789-.91.844-.91.375 0 .84.27.84.84 0 .503-.34.843-.84.843-.164 0-.199 0-.254-.02.34 1.22 1.309 2.044 2.473 2.044 1.523 0 2.453-1.274 2.453-2.922 0-1.52-.875-2.848-1.899-3.992l-3.617-4.051v-.43h6.539zm7.285 8.653c0 .34 0 .43-.25.43-.144 0-.199 0-.34-.215l-5.394-8.367v-.52h4.711V3.563c0-.665-.035-.844-1.34-.844h-.359v-.52c.41.035 1.824.035 2.328.035.5 0 1.933 0 2.347-.035v.52h-.359c-1.289 0-1.344.18-1.344.844V5.19h1.809v.52h-1.809zm-1.183-1.398V5.71h-4.352zm22.199-7.255h-.395c-.054-.304-.195-1.288-.375-1.577-.125-.16-1.148-.16-1.683-.16h-3.317c.485.41 1.578 1.558 2.043 1.988 2.723 2.508 3.727 3.437 3.727 5.21 0 2.063-1.629 3.442-3.711 3.442-2.078 0-3.293-1.773-3.293-3.316 0-.91.789-.91.84-.91.375 0 .844.27.844.84 0 .503-.34.843-.844.843-.16 0-.196 0-.25-.02.34 1.22 1.308 2.044 2.472 2.044 1.524 0 2.454-1.274 2.454-2.922 0-1.52-.879-2.848-1.899-3.992l-3.617-4.051v-.43h6.539zm3.211 7.255a5.4 5.4 0 0 1 1.594-.27c2.027 0 3.316 1.489 3.316 1.739 0 .074-.039.16-.145.16-.039 0-.07 0-.234-.07a5.9 5.9 0 0 0-2.328-.485c-1.184 0-2.024.36-2.367.504-.125.05-.16.05-.176.05-.145 0-.145-.105-.145-.39v-5.32c0-.324 0-.434.215-.434.09 0 .106.02.285.235a2.71 2.71 0 0 0 2.243 1.164c.949 0 1.414-.88 1.558-1.184.305-.695.32-1.574.32-2.258 0-.68 0-1.699-.5-2.508-.394-.644-1.093-1.09-1.882-1.09a2.77 2.77 0 0 0-2.668 2.114.8.8 0 0 1 .285-.055c.305 0 .789.18.789.79 0 .5-.34.788-.789.788-.32 0-.785-.164-.785-.86 0-1.522 1.215-3.26 3.203-3.26 2.027 0 3.801 1.698 3.801 3.976 0 2.133-1.434 3.906-3.317 3.906-1.019 0-1.808-.45-2.273-.95z"/></g></svg>