<svg xmlns="http://www.w3.org/2000/svg" width="229pt" height="248" viewBox="0 -186 229 186"><g id="page1"><path fill="none" stroke="#000" stroke-linecap="round" stroke-linejoin="round" stroke-width="2" d="M1-14.668v-170.078h226.77v170.078z"/><path fill="#0000bf" d="M18.445-14.668h34.887v-151.445H18.445Z"/><path fill="none" stroke="#000" stroke-linecap="round" stroke-linejoin="round" stroke-width="2" d="M18.445-14.668v-151.445h34.887v151.445z"/><path fill="#0000bf" d="M70.777-14.668h34.887v-13.867H70.777Z"/><path fill="none" stroke="#000" stroke-linecap="round" stroke-linejoin="round" stroke-width="2" d="M70.777-14.668v-13.867h34.887v13.867z"/><path fill="#0000bf" d="M123.109-14.668h34.887v-.809h-34.887Z"/><path fill="none" stroke="#000" stroke-linecap="round" stroke-linejoin="round" stroke-width="2" d="M123.109-14.668v-.809h34.887v.809z"/><path fill="#0000bf" d="M175.441-14.668h34.887v-8.887h-34.887Z"/><path fill="none" stroke="#000" stroke-linecap="round" stroke-linejoin="round" stroke-width="2" d="M175.441-14.668v-8.887h34.887v8.887z"/><path d="M80.676-176.777c0-.325 0-.414-.18-.414-.144 0-.484.394-.61.558-.554-.449-1.109-.558-1.683-.558-2.168 0-2.812 1.183-2.812 2.168 0 .199 0 .824.68 1.453.573.5 1.183.625 2.007.789.984.195 1.219.25 1.664.609.324.266.559.66.559 1.164 0 .77-.45 1.629-2.028 1.629-1.18 0-2.039-.68-2.433-2.473-.074-.32-.074-.339-.09-.359-.035-.07-.11-.07-.164-.07-.195 0-.195.09-.195.414v2.433c0 .325 0 .414.18.414.09 0 .109-.019.413-.394.086-.125.086-.164.356-.449.683.843 1.648.843 1.953.843 1.883 0 2.813-1.039 2.813-2.457 0-.964-.59-1.539-.754-1.699-.641-.558-1.125-.664-2.309-.879-.54-.109-1.848-.359-1.848-1.433 0-.555.38-1.379 1.993-1.379 1.953 0 2.058 1.664 2.093 2.222.02.141.145.141.2.141.195 0 .195-.09.195-.41zm7.984 3.422c.395 0 .43 0 .43-.34 0-1.813-.965-3.496-3.133-3.496-2.043 0-3.621 1.847-3.621 4.07 0 2.363 1.828 4.101 3.816 4.101 2.133 0 2.938-1.937 2.938-2.312 0-.106-.09-.18-.196-.18-.144 0-.18.09-.214.18-.465 1.504-1.668 1.918-2.418 1.918-.754 0-2.563-.504-2.563-3.602v-.339zm-4.941-.34c.14-2.813 1.719-3.137 2.219-3.137 1.918 0 2.023 2.527 2.043 3.137zm12.367-2.133c-.215 0-.879 0-.879.734 0 .43.305.735.734.735.41 0 .754-.25.754-.77 0-1.199-1.254-2.062-2.707-2.062-2.094 0-3.761 1.863-3.761 4.121 0 2.293 1.718 4.05 3.746 4.05 2.363 0 2.902-2.152 2.902-2.312s-.125-.16-.18-.16c-.164 0-.18.054-.234.265-.395 1.274-1.36 1.813-2.328 1.813-1.094 0-2.543-.949-2.543-3.676 0-2.973 1.52-3.707 2.418-3.707.68 0 1.664.27 2.078.969m9.535 2.793c0-2.309-1.754-4.156-3.832-4.156-2.148 0-3.852 1.902-3.852 4.156 0 2.293 1.794 4.015 3.836 4.015 2.11 0 3.848-1.757 3.848-4.015m-3.832 3.621c-.66 0-1.469-.289-1.988-1.164-.485-.809-.504-1.863-.504-2.617 0-.68 0-1.774.559-2.578a2.29 2.29 0 0 1 1.917-1.059c.696 0 1.45.324 1.934 1.019.555.829.555 1.954.555 2.618 0 .625 0 1.738-.465 2.578-.504.863-1.328 1.203-2.008 1.203m12.281-4.141c0-1.664 0-2.164-.41-2.738-.519-.699-1.363-.809-1.972-.809-1.735 0-2.418 1.489-2.559 1.848h-.02v-1.848l-2.437.2v.519c1.219 0 1.363.125 1.363 1v4.86c0 .804-.195.804-1.363.804v.52c.469-.035 1.433-.035 1.937-.035.52 0 1.485 0 1.954.035v-.52c-1.149 0-1.364 0-1.364-.804v-3.336c0-1.879 1.239-2.883 2.348-2.883s1.359.914 1.359 2.008v4.211c0 .804-.195.804-1.359.804v.52c.465-.035 1.433-.035 1.933-.035.52 0 1.489 0 1.954.035v-.52c-.895 0-1.344 0-1.364-.539zm7.203-7.883v.524c1.219 0 1.364.125 1.364 1v3.961c-.379-.52-1.149-1.149-2.239-1.149-2.078 0-3.871 1.758-3.871 4.051 0 2.274 1.703 4.031 3.672 4.031 1.364 0 2.153-.898 2.403-1.238v1.238l2.527-.179v-.52c-1.223 0-1.363-.125-1.363-1.004v-10.91zm1.329 10.141c0 .324 0 .375-.25.774-.434.625-1.168 1.144-2.063 1.144-.465 0-2.398-.18-2.398-3.656 0-1.289.211-2.004.605-2.598.359-.555 1.074-1.109 1.973-1.109 1.109 0 1.738.804 1.914 1.094.219.304.219.339.219.664zm10.015-2.687c0-.965 0-1.684-.789-2.383-.629-.571-1.433-.824-2.223-.824-1.468 0-2.597.968-2.597 2.132 0 .52.34.77.754.77a.706.706 0 0 0 .734-.734c0-.735-.644-.735-.914-.735.41-.75 1.27-1.074 1.988-1.074.825 0 1.879.68 1.879 2.293v.719c-3.597.05-4.961 1.554-4.961 2.937 0 1.414 1.649 1.863 2.742 1.863 1.18 0 1.989-.718 2.329-1.578.07.844.625 1.489 1.398 1.489.375 0 1.414-.25 1.414-1.684v-1.004h-.394v1.004c0 1.02-.43 1.164-.68 1.164-.68 0-.68-.949-.68-1.219zm-1.168 2.257c0 1.758-1.308 2.348-2.078 2.348-.875 0-1.609-.644-1.609-1.504 0-2.363 3.043-2.582 3.687-2.617zm5.942-1.644c0-1.742.718-3.371 2.097-3.371.145 0 .18 0 .25.019-.144.071-.429.176-.429.66 0 .52.41.719.699.719.359 0 .715-.234.715-.719 0-.535-.481-1.039-1.254-1.039-1.524 0-2.039 1.649-2.149 1.989h-.019v-1.989l-2.399.2v.519c1.219 0 1.36.125 1.36 1v4.86c0 .804-.196.804-1.36.804v.52c.5-.035 1.489-.035 2.024-.035.484 0 1.754 0 2.168.035v-.52h-.36c-1.304 0-1.343-.199-1.343-.844zm7.027-6.863a.88.88 0 0 0-.879-.879.86.86 0 0 0-.859.859c0 .539.429.879.859.879a.874.874 0 0 0 .879-.859m-2.473 3.332v.519c1.149 0 1.309.106 1.309.985v4.875c0 .804-.199.804-1.363.804v.52c.5-.035 1.363-.035 1.882-.035.196 0 1.235 0 1.844.035v-.52c-1.164 0-1.234-.09-1.234-.789v-6.594zm11.016 3.547c.394 0 .43 0 .43-.34 0-1.813-.969-3.496-3.133-3.496-2.043 0-3.621 1.847-3.621 4.07 0 2.363 1.828 4.101 3.816 4.101 2.133 0 2.938-1.937 2.938-2.312 0-.106-.09-.18-.196-.18-.144 0-.179.09-.215.18-.464 1.504-1.667 1.918-2.417 1.918-.754 0-2.567-.504-2.567-3.602v-.339zm-4.945-.34c.144-2.813 1.718-3.137 2.222-3.137 1.918 0 2.024 2.527 2.043 3.137z"/><path fill="#fff" d="M23.46-96.082c0-.414 0-.434-.358-.434-.43.485-1.329 1.149-3.172 1.149v.52c.414 0 1.308 0 2.293-.466v9.332c0 .645-.051.864-1.63.864h-.554v.515c.484-.035 2.219-.035 2.813-.035.59 0 2.308 0 2.793.035v-.515h-.555c-1.578 0-1.63-.219-1.63-.864zm8.798 0c0-.414 0-.434-.356-.434-.43.485-1.328 1.149-3.172 1.149v.52c.41 0 1.31 0 2.293-.466v9.332c0 .645-.054.864-1.628.864h-.56v.515c.485-.035 2.224-.035 2.813-.035.594 0 2.313 0 2.797.035v-.515h-.554c-1.578 0-1.633-.219-1.633-.864zm11.523 8.472h-.39c-.055.305-.2 1.29-.38 1.579-.124.16-1.144.16-1.683.16h-3.312c.48-.414 1.574-1.559 2.039-1.988 2.726-2.508 3.726-3.442 3.726-5.215 0-2.059-1.629-3.442-3.707-3.442s-3.297 1.778-3.297 3.317c0 .914.79.914.844.914.375 0 .84-.27.84-.844 0-.5-.34-.84-.84-.84-.164 0-.2 0-.254.016.344-1.219 1.309-2.04 2.473-2.04 1.523 0 2.457 1.27 2.457 2.919 0 1.523-.879 2.847-1.899 3.996l-3.62 4.047v.43h6.538zm3.211-7.257c.774.254 1.399.27 1.594.27 2.027 0 3.316-1.485 3.316-1.739 0-.07-.035-.16-.144-.16-.035 0-.07 0-.235.074a5.85 5.85 0 0 1-4.691-.02c-.125-.054-.16-.054-.18-.054-.144 0-.144.11-.144.394v5.32c0 .325 0 .43.219.43.086 0 .105-.015.285-.23a2.7 2.7 0 0 1 2.238-1.168c.95 0 1.414.879 1.559 1.184.304.699.324 1.578.324 2.257s0 1.703-.504 2.508c-.395.645-1.09 1.094-1.879 1.094a2.775 2.775 0 0 1-2.672-2.113c.09.035.2.054.29.054.304 0 .788-.18.788-.789 0-.504-.343-.789-.789-.789-.324 0-.789.16-.789.86 0 1.523 1.219 3.261 3.207 3.261 2.024 0 3.797-1.703 3.797-3.98 0-2.129-1.434-3.903-3.312-3.903-1.024 0-1.81.45-2.278.95z"/><path d="M38.352-5.324c0-.992-.059-1.957-.489-2.867-.488-.993-1.351-1.254-1.933-1.254-.696 0-1.543.347-1.985 1.336-.336.754-.453 1.496-.453 2.785 0 1.16.082 2.031.512 2.879a2.12 2.12 0 0 0 1.91 1.195c1.04 0 1.637-.621 1.984-1.312.43-.899.454-2.067.454-2.762m-2.438 3.836c-.383 0-1.156-.215-1.383-1.52-.133-.715-.133-1.62-.133-2.46 0-.977 0-1.864.192-2.567.203-.8.812-1.172 1.324-1.172.453 0 1.148.277 1.375 1.3.156.684.156 1.626.156 2.438 0 .805 0 1.711-.133 2.438-.226 1.316-.98 1.543-1.398 1.543M80.16-43.582c0-.414 0-.434-.36-.434-.429.485-1.323 1.149-3.171 1.149v.52c.414 0 1.308 0 2.293-.465v9.331c0 .645-.05.864-1.629.864h-.555v.515c.485-.035 2.223-.035 2.813-.035s2.308 0 2.793.035v-.515h-.555c-1.578 0-1.629-.219-1.629-.864zm11.668 5.75c0-1.488-.094-2.937-.738-4.3-.734-1.485-2.024-1.884-2.903-1.884-1.039 0-2.308.524-2.972 2.008-.5 1.13-.68 2.242-.68 4.176 0 1.738.125 3.043.77 4.316.699 1.364 1.933 1.793 2.867 1.793 1.559 0 2.453-.933 2.972-1.972.645-1.344.684-3.098.684-4.137m-3.656 5.75c-.574 0-1.738-.324-2.078-2.277-.2-1.075-.2-2.434-.2-3.688 0-1.469 0-2.797.29-3.851.304-1.204 1.218-1.758 1.988-1.758.68 0 1.719.414 2.059 1.953.234 1.023.234 2.437.234 3.656 0 1.2 0 2.563-.2 3.652-.34 1.973-1.468 2.313-2.093 2.313m7.726-6.449c-.304.015-.379.035-.379.195 0 .18.09.18.415.18h.824c1.523 0 2.203 1.254 2.203 2.976 0 2.344-1.219 2.973-2.098 2.973-.86 0-2.328-.41-2.847-1.594.574.09 1.093-.234 1.093-.879 0-.52-.378-.879-.878-.879-.43 0-.895.254-.895.934 0 1.594 1.594 2.902 3.582 2.902 2.133 0 3.711-1.633 3.711-3.441 0-1.648-1.328-2.938-3.05-3.242 1.562-.446 2.562-1.754 2.562-3.153 0-1.418-1.47-2.457-3.204-2.457-1.793 0-3.117 1.094-3.117 2.403 0 .715.555.86.82.86.38 0 .81-.27.81-.806 0-.574-.43-.824-.825-.824-.11 0-.144 0-.2.016.684-1.215 2.368-1.215 2.458-1.215.59 0 1.754.27 1.754 2.023 0 .34-.055 1.344-.575 2.114-.535.789-1.144.843-1.628.86zm-9.07 30.183c.516.168.934.18 1.063.18 1.351 0 2.21-.992 2.21-1.16 0-.047-.023-.106-.093-.106-.024 0-.047 0-.156.047a3.87 3.87 0 0 1-3.129-.012c-.086-.035-.11-.035-.121-.035-.094 0-.094.07-.094.262v3.55c0 .216 0 .286.14.286.063 0 .075-.012.192-.156a1.81 1.81 0 0 1 1.496-.774c.633 0 .941.586 1.039.79.203.464.215 1.046.215 1.503 0 .453 0 1.137-.336 1.672-.262.43-.727.73-1.254.73-.79 0-1.566-.538-1.781-1.41a.6.6 0 0 0 .191.036c.203 0 .528-.121.528-.528 0-.332-.227-.523-.528-.523-.215 0-.523.105-.523.574 0 1.016.812 2.172 2.136 2.172 1.352 0 2.536-1.133 2.536-2.652 0-1.422-.957-2.606-2.211-2.606-.684 0-1.207.301-1.52.633zm51.574-16.886c0-4.532 2.207-5.25 3.172-5.25.645 0 1.289.199 1.629.734-.215 0-.894 0-.894.734 0 .395.269.735.734.735.449 0 .754-.266.754-.79 0-.929-.68-1.843-2.242-1.843-2.254 0-4.621 2.312-4.621 6.254 0 4.926 2.152 6.035 3.675 6.035 1.95 0 3.618-1.7 3.618-4.031 0-2.383-1.668-3.977-3.457-3.977-1.598 0-2.188 1.383-2.368 1.883zm2.207 6.125c-1.132 0-1.668-1-1.828-1.38-.164-.464-.343-1.343-.343-2.597 0-1.414.648-3.187 2.257-3.187.985 0 1.508.664 1.774 1.273.289.66.289 1.559.289 2.328 0 .914 0 1.719-.34 2.399-.449.859-1.094 1.164-1.809 1.164m-2.468 9.949c0-.274 0-.285-.239-.285-.285.32-.882.765-2.113.765v.344c.274 0 .871 0 1.527-.309v6.223c0 .43-.035.574-1.086.574h-.371v.348c.321-.023 1.481-.023 1.875-.023.395 0 1.543 0 1.864.023v-.348h-.371c-1.051 0-1.086-.144-1.086-.574zm7.812 3.836c0-.992-.058-1.957-.488-2.867-.492-.993-1.352-1.254-1.938-1.254-.691 0-1.543.347-1.984 1.336-.332.754-.453 1.496-.453 2.785 0 1.16.082 2.031.512 2.879a2.13 2.13 0 0 0 1.914 1.195c1.039 0 1.636-.621 1.98-1.312.434-.899.457-2.067.457-2.762m-2.437 3.836c-.383 0-1.161-.215-1.387-1.52-.133-.715-.133-1.62-.133-2.46 0-.977 0-1.864.192-2.567.203-.8.816-1.172 1.328-1.172.453 0 1.148.277 1.375 1.3.156.684.156 1.626.156 2.438 0 .805 0 1.711-.133 2.438-.226 1.316-.98 1.543-1.398 1.543m42.789-31.848c0-4.531 2.203-5.246 3.172-5.246.64 0 1.289.195 1.628.734-.214 0-.894 0-.894.735 0 .394.266.734.734.734.446 0 .75-.27.75-.789 0-.934-.679-1.848-2.238-1.848-2.258 0-4.621 2.313-4.621 6.254 0 4.926 2.148 6.04 3.672 6.04 1.953 0 3.621-1.704 3.621-4.032 0-2.383-1.668-3.976-3.461-3.976-1.594 0-2.184 1.378-2.363 1.878zm2.203 6.129c-1.129 0-1.668-1.004-1.828-1.379-.16-.469-.34-1.344-.34-2.598 0-1.418.644-3.191 2.258-3.191.984 0 1.504.664 1.773 1.273.285.664.285 1.559.285 2.329 0 .914 0 1.718-.34 2.402-.449.86-1.093 1.164-1.808 1.164m6.594-6.129c0-4.531 2.207-5.246 3.171-5.246.645 0 1.29.195 1.633.734-.218 0-.898 0-.898.735 0 .394.269.734.734.734.449 0 .754-.27.754-.789 0-.934-.68-1.848-2.238-1.848-2.258 0-4.625 2.313-4.625 6.254 0 4.926 2.152 6.04 3.676 6.04 1.949 0 3.617-1.704 3.617-4.032 0-2.383-1.668-3.976-3.457-3.976-1.598 0-2.188 1.378-2.367 1.878zm2.207 6.129c-1.129 0-1.668-1.004-1.829-1.379-.16-.469-.339-1.344-.339-2.598 0-1.418.644-3.191 2.257-3.191.985 0 1.504.664 1.774 1.273.285.664.285 1.559.285 2.329 0 .914 0 1.718-.34 2.402-.449.86-1.094 1.164-1.808 1.164M190.441-9.16c0-.274 0-.285-.238-.285-.289.32-.883.765-2.113.765v.344c.273 0 .871 0 1.527-.309v6.223c0 .43-.035.574-1.086.574h-.371v.348c.32-.023 1.481-.023 1.875-.023.395 0 1.543 0 1.863.023v-.348h-.371c-1.05 0-1.086-.144-1.086-.574zm3.989.812c.515.168.929.18 1.062.18 1.352 0 2.211-.992 2.211-1.16 0-.047-.023-.106-.094-.106-.023 0-.05 0-.156.047a3.88 3.88 0 0 1-3.133-.012c-.082-.035-.105-.035-.117-.035-.098 0-.098.07-.098.262v3.55c0 .216 0 .286.145.286.059 0 .07-.012.191-.156a1.81 1.81 0 0 1 1.493-.774c.636 0 .945.586 1.043.79.203.464.211 1.046.211 1.503 0 .453 0 1.137-.333 1.672-.261.43-.726.73-1.253.73a1.85 1.85 0 0 1-1.782-1.41.6.6 0 0 0 .192.036c.203 0 .527-.121.527-.528 0-.332-.23-.523-.527-.523-.215 0-.528.105-.528.574 0 1.016.813 2.172 2.141 2.172 1.352 0 2.531-1.133 2.531-2.652 0-1.422-.953-2.606-2.211-2.606-.679 0-1.203.301-1.515.633z"/></g></svg>