<svg xmlns="http://www.w3.org/2000/svg" width="1319pt" height="636" viewBox="0 -477 1319 477"><g id="page1"><path fill="none" stroke="#404040" stroke-dasharray="0 8.09696" stroke-linecap="round" stroke-linejoin="round" stroke-width="2" d="M239.801-171.074V-.996m113.387-170.078V-.996m113.386-170.078V-.996m113.387-170.078V-.996m113.383-170.078V-.996M806.73-171.074V-.996m113.387-170.078V-.996M1033.5-171.074V-.996m113.39-170.078V-.996m113.38-170.078V-.996"/><path fill="none" stroke="#000" stroke-linecap="round" stroke-linejoin="round" stroke-width="2" d="M309.129-165.555q-6.317.148-12.633.149c-19.141 0-41.117 0-56.695-5.668"/><path d="M339.086-167.105a536 536 0 0 1-30.145-6.395l.375 15.945a536 536 0 0 0 29.77-9.55"/><path fill="none" stroke="#000" stroke-linecap="round" stroke-linejoin="round" stroke-width="2" d="M339.086-167.105a536 536 0 0 1-30.145-6.395l.375 15.945a536 536 0 0 0 29.77-9.55"/><path fill="none" stroke="maroon" stroke-dasharray="15.0177 15.0177" stroke-linecap="round" stroke-linejoin="round" stroke-width="2" d="M428.102-147.523a588 588 0 0 1-74.914 4.793c-40.77 0-85.04 0-113.387-28.344"/><path fill="maroon" d="M452.824-151.234a585 585 0 0 1-25.566-2.875l1.695 13.211a595 595 0 0 0 23.871-10.336"/><path fill="none" stroke="maroon" stroke-linecap="round" stroke-linejoin="round" stroke-width="2" d="M452.824-151.234a585 585 0 0 1-25.566-2.875l1.695 13.211a595 595 0 0 0 23.871-10.336"/><path fill="#bfffff" d="M282.32-213.594c0-23.484-19.035-42.519-42.519-42.519-23.481 0-42.52 19.035-42.52 42.519 0 23.481 19.039 42.52 42.52 42.52 23.484 0 42.519-19.039 42.519-42.52"/><path fill="none" stroke="#000" stroke-linecap="round" stroke-linejoin="round" stroke-width="3" d="M282.32-213.594c0-23.484-19.035-42.519-42.519-42.519-23.481 0-42.52 19.035-42.52 42.519 0 23.481 19.039 42.52 42.52 42.52 23.484 0 42.519-19.039 42.519-42.52"/><path fill="#f2f2f2" d="M183.109-362.414h113.387v-111.969H183.109Z"/><path fill="none" stroke="#000" stroke-linecap="round" stroke-linejoin="round" stroke-width="4" d="M183.109-362.414v-111.969h113.387v111.969z"/><path fill="#ffbfbf" d="M183.109-247.609h113.387v-111.969H183.109Z"/><path fill="none" stroke="maroon" stroke-linecap="round" stroke-linejoin="round" stroke-width="4" d="M183.109-359.578v111.969h113.387v-111.969z"/><path fill="none" stroke="#000" stroke-linecap="round" stroke-linejoin="round" stroke-width="2" d="M422.516-165.555q-6.317.148-12.633.149c-19.145 0-41.117 0-56.695-5.668"/><path d="M452.473-167.105a535 535 0 0 1-30.145-6.395l.375 15.945a536 536 0 0 0 29.77-9.55"/><path fill="none" stroke="#000" stroke-linecap="round" stroke-linejoin="round" stroke-width="2" d="M452.473-167.105a535 535 0 0 1-30.145-6.395l.375 15.945a536 536 0 0 0 29.77-9.55"/><path fill="none" stroke="maroon" stroke-dasharray="15.9899 15.9899" stroke-linecap="round" stroke-linejoin="round" stroke-width="2" d="M661.395-77.082c-36.665 19.39-91.215 19.39-138.129 19.39-85.153 0-170.078-37.773-170.078-113.382"/><path fill="maroon" d="M681.555-91.707c-7.059 4.16-14.809 7.117-23.086 9.098l5.949 11.25c6.867-6.055 12.684-12.793 17.137-20.348"/><path fill="none" stroke="maroon" stroke-linecap="round" stroke-linejoin="round" stroke-width="2" d="M681.555-91.707c-7.059 4.16-14.809 7.117-23.086 9.098l5.949 11.25c6.867-6.055 12.684-12.793 17.137-20.348"/><path fill="#bfffff" d="M395.707-213.594c0-23.484-19.035-42.519-42.519-42.519-23.485 0-42.52 19.035-42.52 42.519 0 23.481 19.035 42.52 42.52 42.52 23.484 0 42.519-19.039 42.519-42.52"/><path fill="none" stroke="#000" stroke-linecap="round" stroke-linejoin="round" stroke-width="3" d="M395.707-213.594c0-23.484-19.035-42.519-42.519-42.519-23.485 0-42.52 19.035-42.52 42.519 0 23.481 19.035 42.52 42.52 42.52 23.484 0 42.519-19.039 42.519-42.52"/><path fill="#f2f2f2" d="M296.496-362.414h113.387v-111.969H296.496Z"/><path fill="none" stroke="#000" stroke-linecap="round" stroke-linejoin="round" stroke-width="4" d="M296.496-362.414v-111.969h113.387v111.969z"/><path fill="#ffbfbf" d="M296.496-247.609h113.387v-111.969H296.496Z"/><path fill="none" stroke="maroon" stroke-linecap="round" stroke-linejoin="round" stroke-width="4" d="M296.496-359.578v111.969h113.387v-111.969z"/><path fill="none" stroke="#000" stroke-linecap="round" stroke-linejoin="round" stroke-width="2" d="M535.902-165.555q-6.316.148-12.636.149c-19.141 0-41.118 0-56.692-5.668"/><path d="M565.855-167.105a535 535 0 0 1-30.14-6.395l.375 15.945a537 537 0 0 0 29.765-9.55"/><path fill="none" stroke="#000" stroke-linecap="round" stroke-linejoin="round" stroke-width="2" d="M565.855-167.105a535 535 0 0 1-30.14-6.395l.375 15.945a537 537 0 0 0 29.765-9.55"/><path fill="none" stroke="maroon" stroke-dasharray="16.3806 16.3806" stroke-linecap="round" stroke-linejoin="round" stroke-width="2" d="M1000.43-57.578c-55.274 28.234-166.606 28.234-250.391 28.234-135.726 0-283.465-25.152-283.465-141.73"/><path fill="maroon" d="M1020.83-71.863c-6.59 3.882-14.42 6.738-23.244 8.71l5.794 11.34c7.38-6.355 13.31-13.03 17.45-20.05"/><path fill="none" stroke="maroon" stroke-linecap="round" stroke-linejoin="round" stroke-width="2" d="M1020.83-71.863c-6.59 3.882-14.42 6.738-23.244 8.71l5.794 11.34c7.38-6.355 13.31-13.03 17.45-20.05"/><path fill="#bfffff" d="M509.094-213.594c0-23.484-19.035-42.519-42.52-42.519-23.484 0-42.519 19.035-42.519 42.519 0 23.481 19.035 42.52 42.519 42.52 23.485 0 42.52-19.039 42.52-42.52"/><path fill="none" stroke="#000" stroke-linecap="round" stroke-linejoin="round" stroke-width="3" d="M509.094-213.594c0-23.484-19.035-42.519-42.52-42.519-23.484 0-42.519 19.035-42.519 42.519 0 23.481 19.035 42.52 42.519 42.52 23.485 0 42.52-19.039 42.52-42.52"/><path fill="#f2f2f2" d="M409.883-362.414h113.383v-111.969H409.883Z"/><path fill="none" stroke="#000" stroke-linecap="round" stroke-linejoin="round" stroke-width="4" d="M409.883-362.414v-111.969h113.383v111.969z"/><path fill="#ffbfbf" d="M409.883-247.609h113.383v-111.969H409.883Z"/><path fill="none" stroke="maroon" stroke-linecap="round" stroke-linejoin="round" stroke-width="4" d="M409.883-359.578v111.969h113.383v-111.969z"/><path fill="none" stroke="#000" stroke-linecap="round" stroke-linejoin="round" stroke-width="2" d="M649.285-165.555q-6.317.148-12.633.149c-19.14 0-41.117 0-56.691-5.668"/><path d="M679.242-167.105a535 535 0 0 1-30.144-6.395l.379 15.945a537 537 0 0 0 29.765-9.55"/><path fill="none" stroke="#000" stroke-linecap="round" stroke-linejoin="round" stroke-width="2" d="M679.242-167.105a535 535 0 0 1-30.144-6.395l.379 15.945a537 537 0 0 0 29.765-9.55"/><path fill="none" stroke="maroon" stroke-dasharray="15.9099 15.9099" stroke-linecap="round" stroke-linejoin="round" stroke-width="2" d="M387.215-101.078a216.8 216.8 0 0 0 79.359 15.043c58.071 0 113.387-32.02 113.387-85.039"/><path fill="maroon" d="M364.527-111.547a217 217 0 0 0 20.188 16.828l4.965-12.629a217 217 0 0 1-25.153-4.199"/><path fill="none" stroke="maroon" stroke-linecap="round" stroke-linejoin="round" stroke-width="2" d="M364.527-111.547a217 217 0 0 0 20.188 16.828l4.965-12.629a217 217 0 0 1-25.153-4.199"/><path fill="#bfffff" d="M622.48-213.594c0-23.484-19.039-42.519-42.519-42.519-23.484 0-42.52 19.035-42.52 42.519 0 23.481 19.036 42.52 42.52 42.52 23.48 0 42.519-19.039 42.519-42.52"/><path fill="none" stroke="#000" stroke-linecap="round" stroke-linejoin="round" stroke-width="3" d="M622.48-213.594c0-23.484-19.039-42.519-42.519-42.519-23.484 0-42.52 19.035-42.52 42.519 0 23.481 19.036 42.52 42.52 42.52 23.48 0 42.519-19.039 42.519-42.52"/><path fill="#f2f2f2" d="M523.266-362.414h113.386v-111.969H523.266Z"/><path fill="none" stroke="#000" stroke-linecap="round" stroke-linejoin="round" stroke-width="4" d="M523.266-362.414v-111.969h113.386v111.969z"/><path fill="#ffbfbf" d="M523.266-247.609h113.386v-111.969H523.266Z"/><path fill="none" stroke="maroon" stroke-linecap="round" stroke-linejoin="round" stroke-width="4" d="M523.266-359.578v111.969h113.386v-111.969z"/><path fill="none" stroke="#000" stroke-linecap="round" stroke-linejoin="round" stroke-width="2" d="M762.672-165.555q-6.317.148-12.633.149c-19.141 0-41.117 0-56.695-5.668"/><path d="M792.629-167.105a536 536 0 0 1-30.145-6.395l.379 15.945a537 537 0 0 0 29.766-9.55"/><path fill="none" stroke="#000" stroke-linecap="round" stroke-linejoin="round" stroke-width="2" d="M792.629-167.105a536 536 0 0 1-30.145-6.395l.379 15.945a537 537 0 0 0 29.766-9.55"/><path fill="none" stroke="maroon" stroke-dasharray="16.501 16.501" stroke-linecap="round" stroke-linejoin="round" stroke-width="2" d="M996.918-104.25a498.2 498.2 0 0 1-133.492 18.215c-81.438 0-170.082-15.094-170.082-85.039"/><path fill="maroon" d="M1020.83-111.547c-8.56.524-17.13.828-25.689.91l3.562 12.817a500 500 0 0 0 22.127-13.727"/><path fill="none" stroke="maroon" stroke-linecap="round" stroke-linejoin="round" stroke-width="2" d="M1020.83-111.547c-8.56.524-17.13.828-25.689.91l3.562 12.817a500 500 0 0 0 22.127-13.727"/><path fill="#bfffff" d="M735.863-213.594c0-23.484-19.035-42.519-42.519-42.519-23.481 0-42.52 19.035-42.52 42.519 0 23.481 19.039 42.52 42.52 42.52 23.484 0 42.519-19.039 42.519-42.52"/><path fill="none" stroke="#000" stroke-linecap="round" stroke-linejoin="round" stroke-width="3" d="M735.863-213.594c0-23.484-19.035-42.519-42.519-42.519-23.481 0-42.52 19.035-42.52 42.519 0 23.481 19.039 42.52 42.52 42.52 23.484 0 42.519-19.039 42.519-42.52"/><path fill="#f2f2f2" d="M636.652-362.414h113.387v-111.969H636.652Z"/><path fill="none" stroke="#000" stroke-linecap="round" stroke-linejoin="round" stroke-width="4" d="M636.652-362.414v-111.969h113.387v111.969z"/><path fill="#ffbfbf" d="M636.652-247.609h113.387v-111.969H636.652Z"/><path fill="none" stroke="maroon" stroke-linecap="round" stroke-linejoin="round" stroke-width="4" d="M636.652-359.578v111.969h113.387v-111.969z"/><path fill="none" stroke="#000" stroke-linecap="round" stroke-linejoin="round" stroke-width="2" d="M876.059-165.555q-6.316.148-12.633.149c-19.145 0-41.117 0-56.696-5.668"/><path d="M906.016-167.105a535 535 0 0 1-30.145-6.395l.379 15.945a537 537 0 0 0 29.766-9.55"/><path fill="none" stroke="#000" stroke-linecap="round" stroke-linejoin="round" stroke-width="2" d="M906.016-167.105a535 535 0 0 1-30.145-6.395l.379 15.945a537 537 0 0 0 29.766-9.55"/><path fill="none" stroke="maroon" stroke-dasharray="17.0351 17.0351" stroke-linecap="round" stroke-linejoin="round" stroke-width="2" d="M730.031-144.434a118 118 0 0 0 20.008 1.704c21.957 0 41.121-12.774 56.691-28.344"/><path fill="maroon" d="M706.023-151.234a118.2 118.2 0 0 0 22.836 13.621l2.313-13.461c-8.348.84-16.777.789-25.149-.16"/><path fill="none" stroke="maroon" stroke-linecap="round" stroke-linejoin="round" stroke-width="2" d="M706.023-151.234a118.2 118.2 0 0 0 22.836 13.621l2.313-13.461c-8.348.84-16.777.789-25.149-.16"/><path fill="#bfffff" d="M849.25-213.594c0-23.484-19.035-42.519-42.52-42.519-23.484 0-42.519 19.035-42.519 42.519 0 23.481 19.035 42.52 42.519 42.52 23.485 0 42.52-19.039 42.52-42.52"/><path fill="none" stroke="#000" stroke-linecap="round" stroke-linejoin="round" stroke-width="3" d="M849.25-213.594c0-23.484-19.035-42.519-42.52-42.519-23.484 0-42.519 19.035-42.519 42.519 0 23.481 19.035 42.52 42.519 42.52 23.485 0 42.52-19.039 42.52-42.52"/><path fill="#f2f2f2" d="M750.039-362.414h113.387v-111.969H750.039Z"/><path fill="none" stroke="#000" stroke-linecap="round" stroke-linejoin="round" stroke-width="4" d="M750.039-362.414v-111.969h113.387v111.969z"/><path fill="#ffbfbf" d="M750.039-247.609h113.387v-111.969H750.039Z"/><path fill="none" stroke="maroon" stroke-linecap="round" stroke-linejoin="round" stroke-width="4" d="M750.039-359.578v111.969h113.387v-111.969z"/><path fill="none" stroke="#000" stroke-linecap="round" stroke-linejoin="round" stroke-width="2" d="M283.633-128.414a3136 3136 0 0 0 296.328 14.031c126.832 0 307.426 0 340.156-56.691"/><path d="M253.781-131.391q14.522 5.572 29.09 10.996l1.524-16.027a3093 3093 0 0 1-30.614 5.031"/><path fill="none" stroke="#000" stroke-linecap="round" stroke-linejoin="round" stroke-width="2" d="M253.781-131.391q14.522 5.572 29.09 10.996l1.524-16.027a3093 3093 0 0 1-30.614 5.031"/><path fill="none" stroke="maroon" stroke-dasharray="17.0351 17.0351" stroke-linecap="round" stroke-linejoin="round" stroke-width="2" d="M996.816-144.434a118 118 0 0 1-20.007 1.704c-21.957 0-41.121-12.774-56.692-28.344"/><path fill="maroon" d="M1020.83-151.234a118.3 118.3 0 0 1-25.096.511l2.192 12.739a118.2 118.2 0 0 0 22.904-13.25"/><path fill="none" stroke="maroon" stroke-linecap="round" stroke-linejoin="round" stroke-width="2" d="M1020.83-151.234a118.3 118.3 0 0 1-25.096.511l2.192 12.739a118.2 118.2 0 0 0 22.904-13.25"/><path fill="#bfffff" d="M962.637-213.594c0-23.484-19.035-42.519-42.52-42.519-23.484 0-42.519 19.035-42.519 42.519 0 23.481 19.035 42.52 42.519 42.52 23.485 0 42.52-19.039 42.52-42.52"/><path fill="none" stroke="#000" stroke-linecap="round" stroke-linejoin="round" stroke-width="3" d="M962.637-213.594c0-23.484-19.035-42.519-42.52-42.519-23.484 0-42.519 19.035-42.519 42.519 0 23.481 19.035 42.52 42.519 42.52 23.485 0 42.52-19.039 42.52-42.52"/><path fill="#f2f2f2" d="M863.426-362.414h113.383v-111.969H863.426Z"/><path fill="none" stroke="#000" stroke-linecap="round" stroke-linejoin="round" stroke-width="4" d="M863.426-362.414v-111.969h113.383v111.969z"/><path fill="#ffbfbf" d="M863.426-247.609h113.383v-111.969H863.426Z"/><path fill="none" stroke="maroon" stroke-linecap="round" stroke-linejoin="round" stroke-width="4" d="M863.426-359.578v111.969h113.383v-111.969z"/><path fill="none" stroke="#000" stroke-linecap="round" stroke-linejoin="round" stroke-width="2" d="M1102.83-165.555q-6.315.148-12.63.149c-19.15 0-41.12 0-56.7-5.668"/><path d="M1132.79-167.105a537 537 0 0 1-30.15-6.395l.38 15.945a538 538 0 0 0 29.77-9.55"/><path fill="none" stroke="#000" stroke-linecap="round" stroke-linejoin="round" stroke-width="2" d="M1132.79-167.105a537 537 0 0 1-30.15-6.395l.38 15.945a538 538 0 0 0 29.77-9.55"/><path fill="none" stroke="maroon" stroke-dasharray="17.0351 17.0351" stroke-linecap="round" stroke-linejoin="round" stroke-width="2" d="M1110.2-144.434a118 118 0 0 1-20 1.704c-21.96 0-41.13-12.774-56.7-28.344"/><path fill="maroon" d="M1134.21-151.234a118.2 118.2 0 0 1-25.09.511l2.19 12.739a118 118 0 0 0 22.9-13.25"/><path fill="none" stroke="maroon" stroke-linecap="round" stroke-linejoin="round" stroke-width="2" d="M1134.21-151.234a118.2 118.2 0 0 1-25.09.511l2.19 12.739a118 118 0 0 0 22.9-13.25"/><path fill="#bfffff" d="M1076.02-213.594c0-23.484-19.03-42.519-42.52-42.519-23.48 0-42.516 19.035-42.516 42.519 0 23.481 19.036 42.52 42.516 42.52 23.49 0 42.52-19.039 42.52-42.52"/><path fill="none" stroke="#000" stroke-linecap="round" stroke-linejoin="round" stroke-width="3" d="M1076.02-213.594c0-23.484-19.03-42.519-42.52-42.519-23.48 0-42.516 19.035-42.516 42.519 0 23.481 19.036 42.52 42.516 42.52 23.49 0 42.52-19.039 42.52-42.52"/><path fill="#f2f2f2" d="M976.809-362.414H1090.2v-111.969H976.809Z"/><path fill="none" stroke="#000" stroke-linecap="round" stroke-linejoin="round" stroke-width="4" d="M976.809-362.414v-111.969H1090.2v111.969z"/><path fill="#ffbfbf" d="M976.809-247.609H1090.2v-111.969H976.809Z"/><path fill="none" stroke="maroon" stroke-linecap="round" stroke-linejoin="round" stroke-width="4" d="M976.809-359.578v111.969H1090.2v-111.969z"/><path fill="none" stroke="#000" stroke-linecap="round" stroke-linejoin="round" stroke-width="2" d="M1216.22-165.555c-4.21.098-8.43.149-12.64.149-19.14 0-41.12 0-56.69-5.668"/><path d="M1246.17-167.105a534 534 0 0 1-30.14-6.395l.38 15.945a538 538 0 0 0 29.76-9.55"/><path fill="none" stroke="#000" stroke-linecap="round" stroke-linejoin="round" stroke-width="2" d="M1246.17-167.105a534 534 0 0 1-30.14-6.395l.38 15.945a538 538 0 0 0 29.76-9.55"/><path fill="none" stroke="maroon" stroke-dasharray="16.0074 16.0074" stroke-linecap="round" stroke-linejoin="round" stroke-width="2" d="M386.602-37.719C457.496-.996 628.355-.996 750.039-.996c186.215 0 396.851-9.742 396.851-170.078"/><path fill="maroon" d="M366.215-52.02c3.933 6.954 9.758 13.786 17.183 20.48l6.297-12.147c-9.058-1.907-16.957-4.645-23.48-8.333"/><path fill="none" stroke="maroon" stroke-linecap="round" stroke-linejoin="round" stroke-width="2" d="M366.215-52.02c3.933 6.954 9.758 13.786 17.183 20.48l6.297-12.147c-9.058-1.907-16.957-4.645-23.48-8.333"/><path fill="#bfffff" d="M1189.41-213.594c0-23.484-19.04-42.519-42.52-42.519s-42.52 19.035-42.52 42.519c0 23.481 19.04 42.52 42.52 42.52s42.52-19.039 42.52-42.52"/><path fill="none" stroke="#000" stroke-linecap="round" stroke-linejoin="round" stroke-width="3" d="M1189.41-213.594c0-23.484-19.04-42.519-42.52-42.519s-42.52 19.035-42.52 42.519c0 23.481 19.04 42.52 42.52 42.52s42.52-19.039 42.52-42.52"/><path fill="#f2f2f2" d="M1090.2-362.414h113.38v-111.969H1090.2Z"/><path fill="none" stroke="#000" stroke-linecap="round" stroke-linejoin="round" stroke-width="4" d="M1090.2-362.414v-111.969h113.38v111.969z"/><path fill="#ffbfbf" d="M1090.2-247.609h113.38v-111.969H1090.2Z"/><path fill="none" stroke="maroon" stroke-linecap="round" stroke-linejoin="round" stroke-width="4" d="M1090.2-359.578v111.969h113.38v-111.969z"/><path fill="none" stroke="#000" stroke-linecap="round" stroke-linejoin="round" stroke-width="2" d="M1074.95-122.941a306.5 306.5 0 0 0 71.94 8.558c45.57 0 90.84-17.648 113.38-56.691"/><path d="M1046.18-131.391a307 307 0 0 0 26.85 16.403l3.82-15.805c-10.21.313-20.45.113-30.67-.598"/><path fill="none" stroke="#000" stroke-linecap="round" stroke-linejoin="round" stroke-width="2" d="M1046.18-131.391a307 307 0 0 0 26.85 16.403l3.82-15.805c-10.21.313-20.45.113-30.67-.598"/><path fill="none" stroke="maroon" stroke-dasharray="17.0351 17.0351" stroke-linecap="round" stroke-linejoin="round" stroke-width="2" d="M1183.58-144.434a118 118 0 0 0 20 1.704c21.96 0 41.12-12.774 56.69-28.344"/><path fill="maroon" d="M1159.57-151.234a118.2 118.2 0 0 0 22.83 13.621l2.32-13.461c-8.35.84-16.78.789-25.15-.16"/><path fill="none" stroke="maroon" stroke-linecap="round" stroke-linejoin="round" stroke-width="2" d="M1159.57-151.234a118.2 118.2 0 0 0 22.83 13.621l2.32-13.461c-8.35.84-16.78.789-25.15-.16"/><path fill="#bfffff" d="M1302.79-213.594c0-23.484-19.03-42.519-42.52-42.519-23.48 0-42.52 19.035-42.52 42.519 0 23.481 19.04 42.52 42.52 42.52 23.49 0 42.52-19.039 42.52-42.52"/><path fill="none" stroke="#000" stroke-linecap="round" stroke-linejoin="round" stroke-width="3" d="M1302.79-213.594c0-23.484-19.03-42.519-42.52-42.519-23.48 0-42.52 19.035-42.52 42.519 0 23.481 19.04 42.52 42.52 42.52 23.49 0 42.52-19.039 42.52-42.52"/><path fill="#f2f2f2" d="M1203.58-362.414h113.39v-111.969h-113.39Z"/><path fill="none" stroke="#000" stroke-linecap="round" stroke-linejoin="round" stroke-width="4" d="M1203.58-362.414v-111.969h113.39v111.969z"/><path fill="#ffbfbf" d="M1203.58-247.609h113.39v-111.969h-113.39Z"/><path fill="none" stroke="maroon" stroke-linecap="round" stroke-linejoin="round" stroke-width="4" d="M1203.58-359.578v111.969h113.39v-111.969z"/><path d="M250.563-221.859c0-1.34 0-8.032-6.075-8.032-11.332 0-14.343 21.414-14.343 24.86 0 2.82.765 7.937 6.168 7.937 3.875 0 7.601-2.726 10.421-8.656 1.532-3.344 3.829-11.57 3.829-16.109m-14.059 23.808c-2.055 0-3.535-1.722-3.535-4.687 0-3.778 3.535-18.5 5.594-22.133 1.718-2.969 4.015-4.067 5.64-4.067 1.289 0 3.633.672 3.633 4.637 0 4.449-3.633 16.832-3.922 17.738-.715 2.055-2.82 8.512-7.41 8.512m5.363-234.894c0-1.102 0-1.149-.953-1.149-1.148 1.293-3.539 3.063-8.465 3.063v1.383c1.102 0 3.492 0 6.121-1.243v24.911c0 1.718-.144 2.292-4.351 2.292h-1.481v1.387c1.289-.094 5.926-.094 7.504-.094s6.168 0 7.461.094v-1.387h-1.484c-4.207 0-4.352-.574-4.352-2.292z"/><path fill="maroon" d="M249.137-296.93h-1.051c-.145.813-.527 3.442-1.008 4.203-.332.434-3.058.434-4.492.434h-8.844c1.289-1.102 4.207-4.16 5.449-5.309 7.27-6.691 9.946-9.179 9.946-13.914 0-5.496-4.352-9.175-9.899-9.175-5.543 0-8.797 4.73-8.797 8.843 0 2.438 2.106 2.438 2.247 2.438 1.007 0 2.25-.719 2.25-2.246 0-1.34-.911-2.25-2.25-2.25-.43 0-.524 0-.668.051.91-3.254 3.492-5.45 6.597-5.45 4.063 0 6.551 3.391 6.551 7.789 0 4.067-2.344 7.602-5.066 10.664l-9.661 10.805v1.149h17.45z"/><path d="M359.563-228.746c.046-.192.093-.477.093-.668s-.14-.477-.476-.477c-.239 0-.289.047-.715.618-2.012 2.777-4.641 5.164-8.129 5.5-.574.093-.957.093-.957.906 0 .383.238.527.668.527 1.34 0 3.348-.621 5.308-2.008l-5.691 22.805c-.383 1.625-.812 2.059-4.445 2.059h-.383c-.859 0-1.289 0-1.289.906 0 .476.43.476.766.476 1.957 0 4.015-.093 6.023-.093 2.055 0 4.156.093 6.168.093.43 0 .953 0 .953-.859 0-.523-.336-.523-1.144-.523h-.383c-3.395 0-3.395-.434-3.395-1.008 0-.047 0-.332.192-1.051zm2.972-181.586h-1.051c-.144.812-.527 3.441-1.004 4.207-.335.43-3.058.43-4.496.43h-8.843c1.293-1.098 4.207-4.157 5.453-5.309 7.265-6.691 9.941-9.176 9.941-13.91 0-5.496-4.347-9.18-9.894-9.18s-8.797 4.735-8.797 8.848c0 2.437 2.101 2.437 2.246 2.437 1.004 0 2.246-.718 2.246-2.246 0-1.34-.906-2.25-2.246-2.25-.43 0-.527 0-.668.047.906-3.25 3.488-5.449 6.594-5.449 4.066 0 6.55 3.394 6.55 7.793 0 4.062-2.339 7.601-5.066 10.66l-9.656 10.809v1.144h17.449z"/><path fill="maroon" d="M358.758-320.023c0-.907 0-1.149-.668-1.149-.383 0-.527 0-.91.574l-14.391 22.328v1.387h12.574v4.352c0 1.765-.093 2.246-3.582 2.246h-.957v1.387c1.098-.098 4.875-.098 6.215-.098s5.164 0 6.262.098v-1.387h-.957c-3.442 0-3.586-.481-3.586-2.246v-4.352h4.832v-1.387h-4.832zm-3.156 3.73v18.023h-11.618z"/><path d="M468.277-210.051c1.196-.672 2.34-1.484 3.489-2.297 3.3-2.535 5.547-5.211 5.547-9.609 0-4.59-3.012-7.934-7.266-7.934-7.031 0-10.805 9.703-10.805 12.813 0 1.574.621 2.914 2.293 2.914 3.778 0 5.692-5.879 5.692-7.555 0-1.004-.481-2.484-.957-2.484-.192 0-.528.191-.528.476 0 .098 0 .192.145.43.332.719.383 1.438.383 1.578 0 1.34-1.676 6.598-4.688 6.598-.906 0-1.051-.762-1.051-1.578 0-3.203 3.492-12.239 9.371-12.239 2.153 0 4.254 1.579 4.254 5.356 0 .812-.093 4.781-2.535 8.269-2.242 3.11-6.117 5.356-7.359 6.075-7.172 4.16-8.895 11.281-8.895 11.711 0 .433.383.433.672.433.524 0 .57-.097.766-.625.429-1.527 1.191-2.961 2.625-2.961 1.535 0 2.773.907 4.16 1.864 1.293.906 2.629 1.722 4.305 1.722 5.449 0 7.554-8.418 7.554-8.797 0-.433-.433-.433-.621-.433-.574 0-.574.097-.765.765-.766 2.438-2.774 5.403-5.692 5.403-1.433 0-3.105-.43-4.254-.715-1.961-.481-3.25-.766-4.496-.766-.238 0-.859 0-1.242.145 2.441-4.352 6.215-6.457 6.266-6.504zm-4.582-209.414c-.812.047-1.004.098-1.004.527 0 .477.239.477 1.102.477h2.199c4.063 0 5.879 3.348 5.879 7.938 0 6.261-3.25 7.933-5.594 7.933-2.293 0-6.214-1.098-7.601-4.254 1.531.242 2.918-.621 2.918-2.34 0-1.386-1.004-2.343-2.344-2.343-1.148 0-2.391.668-2.391 2.488 0 4.254 4.258 7.742 9.563 7.742 5.687 0 9.898-4.351 9.898-9.18 0-4.394-3.539-7.839-8.129-8.652 4.161-1.195 6.836-4.684 6.836-8.414 0-3.777-3.918-6.551-8.558-6.551-4.781 0-8.317 2.918-8.317 6.406 0 1.915 1.481 2.297 2.2 2.297 1.003 0 2.152-.718 2.152-2.152 0-1.531-1.149-2.199-2.199-2.199-.289 0-.383 0-.528.047 1.817-3.25 6.313-3.25 6.551-3.25 1.578 0 4.684.718 4.684 5.402 0 .91-.145 3.586-1.532 5.641-1.433 2.105-3.058 2.246-4.347 2.297z"/><path fill="maroon" d="M477.609-318.59v-1.098H466.09c-5.785 0-5.883-.625-6.074-1.531h-1.051l-1.485 9.563h1.051c.145-.86.578-3.824 1.196-4.352.382-.285 3.968-.285 4.64-.285h10.137l-5.07 7.266c-1.289 1.863-6.121 9.707-6.121 18.691 0 .527 0 2.441 1.96 2.441 2.008 0 2.008-1.867 2.008-2.488v-2.39c0-7.122 1.149-12.668 3.395-15.872z"/><path d="M578.996-214.785c-.812 0-1.195 0-1.195.906 0 .481.285.481 1.144.481h1.293c.668 0 3.778 0 3.778 4.062 0 .859-.528 5.215-2.489 7.938-1.718 2.293-4.3 3.347-6.168 3.347-2.531 0-4.828-1.629-4.828-5.164 2.489 0 2.489-2.058 2.489-2.105 0-1.196-1.051-1.434-1.485-1.434-2.34 0-2.34 3.012-2.34 3.633 0 3.301 2.246 6.027 6.164 6.027 5.93 0 11.813-5.07 11.813-10.711 0-1.672-.527-4.59-3.828-6.023 5.211-1.817 7.797-6.406 7.797-9.754 0-3.395-2.442-6.309-6.696-6.309-5.547 0-10.328 5.02-10.328 9.082 0 2.246 1.293 3.012 2.535 3.012 1.817 0 3.918-1.723 3.918-4.062 0-.957-.523-2.344-1-2.344-.191 0-.527.191-.527.476 0 .098 0 .192.191.481.336.668.383 1.242.383 1.433 0 1.719-1.625 3.059-2.918 3.059-1.051 0-1.289-1.004-1.289-1.863 0-3.684 4.254-8.321 8.942-8.321 1.957 0 4.062 1.055 4.062 4.305 0 .668-.43 9.848-8.367 9.848zm6.563-218.637c0-.91 0-1.148-.668-1.148-.383 0-.528 0-.911.574l-14.39 22.324v1.387h12.574v4.351c0 1.77-.094 2.246-3.586 2.246h-.957v1.387c1.102-.094 4.879-.094 6.219-.094 1.336 0 5.164 0 6.262.094v-1.387h-.957c-3.442 0-3.586-.476-3.586-2.246v-4.351h4.828v-1.387h-4.828zm-3.157 3.727v18.023h-11.617z"/><path fill="maroon" d="M582.07-319.547c0-1.098 0-1.144-.957-1.144-1.148 1.289-3.539 3.058-8.465 3.058v1.387c1.102 0 3.493 0 6.122-1.242v24.906c0 1.723-.141 2.297-4.348 2.297h-1.484v1.387c1.289-.098 5.929-.098 7.507-.098s6.164 0 7.457.098v-1.387h-1.48c-4.207 0-4.352-.574-4.352-2.297z"/><path d="M697.414-212.215c.145-.574.191-.715.191-.859 0-.719-.574-1.196-1.242-1.196-.336 0-1.097.192-1.48.86-.336.719-1.961 7.652-2.344 9.18-.621-.239-2.246-.86-2.918-1.051-1.672-.574-2.437-.574-3.535-.574-.813 0-.91 0-1.34.046 2.344-2.293 5.356-5.257 8.891-11.089 4.687-7.606 6.695-15.969 6.695-16.446 0-.48-.336-1.148-1.242-1.148-1.34 0-1.625 1.195-1.817 1.91-1.339 5.019-3.156 10.996-6.839 17.262-2.723 4.636-6.789 9.129-8.942 10.324-.621.336-1.336 1.051-1.336 1.484 0 .145.383.766.668.766.289 0 .91-.527 1.485-1.008.429-.332.906-.715 3.632-.715 1.051 0 1.77 0 3.442.574 1.289.43-.047 0 2.773 1.051l-1.578 6.453c-.191.575-.43 1.578-.43 1.821 0 .523.383 1.144 1.243 1.144.91 0 1.531-.668 1.769-1.672l1.723-6.98c.285.047.715.047 1 .047 1.484 0 4.351-.668 4.351-1.289 0-.192-.332-.813-.668-.813-.144 0-.144.047-.429.141-.813.289-1.817.574-3.059.574-.238 0-.625 0-.863-.047zm-9.695-217.48c2.054.672 3.73.718 4.258.718 5.402 0 8.843-3.968 8.843-4.636 0-.192-.097-.434-.382-.434-.098 0-.192 0-.622.195a15.75 15.75 0 0 1-6.214 1.289c-3.157 0-5.407-.957-6.313-1.339-.336-.145-.43-.145-.476-.145-.383 0-.383.289-.383 1.055v14.199c0 .859 0 1.145.574 1.145.238 0 .285-.047.762-.622 1.339-1.957 3.586-3.105 5.976-3.105 2.535 0 3.778 2.344 4.16 3.156.813 1.864.864 4.207.864 6.024 0 1.816 0 4.539-1.34 6.691-1.055 1.723-2.918 2.914-5.02 2.914a7.39 7.39 0 0 1-7.125-5.637c.239.094.528.141.766.141.812 0 2.101-.477 2.101-2.102 0-1.339-.906-2.105-2.101-2.105-.859 0-2.106.43-2.106 2.297 0 4.062 3.254 8.699 8.559 8.699 5.402 0 10.137-4.543 10.137-10.613 0-5.688-3.824-10.422-8.844-10.422-2.727 0-4.828 1.195-6.074 2.535z"/><path fill="maroon" d="M704.309-318.59v-1.098h-11.52c-5.785 0-5.883-.625-6.074-1.531h-1.051l-1.484 9.563h1.054c.145-.86.575-3.824 1.196-4.352.383-.285 3.968-.285 4.636-.285h10.137l-5.07 7.266c-1.289 1.863-6.117 9.707-6.117 18.691 0 .527 0 2.441 1.961 2.441 2.007 0 2.007-1.867 2.007-2.488v-2.39c0-7.122 1.145-12.668 3.395-15.872z"/><path d="M805.27-225.781c1.671.718 3.058.718 3.777.718 5.164 0 9.133-3.73 9.133-4.402 0-.332-.242-.379-.383-.379-.098 0-.145 0-.574.141-2.153.957-4.16 1.34-6.028 1.34-1.863 0-3.773-.43-5.304-1.289-.239-.098-.43-.192-.575-.192-.285 0-.382.141-.523.766l-3.637 14.484a3.3 3.3 0 0 0-.093.668c0 .145.046.481.527.481.332 0 .379-.098.621-.383.668-.766 2.961-3.348 6.5-3.348 2.68 0 3.012 3.059 3.012 4.352 0 2.152-1.196 7.312-2.485 9.656-1.961 3.539-4.687 4.781-6.644 4.781-3.301 0-4.926-2.918-4.688-5.785 1.77.289 2.727-1.195 2.727-2.199 0-1.481-1.438-1.531-1.578-1.531-2.535 0-2.535 3.394-2.535 4.257 0 3.633 2.152 6.551 6.023 6.551 6.023 0 12.289-6.551 12.289-13.722 0-3.922-2.105-7.317-6.027-7.317-3.297 0-5.735 2.106-5.973 2.293zm-4.387-193.157c0-12.093 5.879-14.007 8.461-14.007 1.719 0 3.441.523 4.351 1.961-.574 0-2.39 0-2.39 1.961 0 1.05.715 1.957 1.957 1.957 1.195 0 2.008-.715 2.008-2.102 0-2.488-1.817-4.926-5.973-4.926-6.027 0-12.336 6.168-12.336 16.688 0 13.144 5.734 16.109 9.801 16.109 5.211 0 9.656-4.543 9.656-10.758 0-6.355-4.445-10.613-9.227-10.613-4.253 0-5.832 3.684-6.308 5.02zm5.879 16.348c-3.016 0-4.449-2.676-4.879-3.68-.43-1.242-.906-3.582-.906-6.929 0-3.778 1.718-8.512 6.023-8.512 2.629 0 4.016 1.77 4.734 3.395.762 1.769.762 4.16.762 6.214 0 2.438 0 4.59-.906 6.407-1.195 2.297-2.918 3.105-4.828 3.105"/><path fill="maroon" d="M812.258-320.023c0-.907 0-1.149-.668-1.149-.383 0-.527 0-.91.574l-14.387 22.328v1.387h12.57v4.352c0 1.765-.093 2.246-3.582 2.246h-.957v1.387c1.098-.098 4.875-.098 6.215-.098s5.164 0 6.262.098v-1.387h-.957c-3.442 0-3.586-.481-3.586-2.246v-4.352h4.832v-1.387h-4.832zm-3.156 3.73v18.023h-11.618z"/><path d="M915.609-214.07c3.297-13.719 9.801-14.676 11.379-14.676 1.434 0 2.821.43 3.203 1.914-2.343.094-2.343 2.055-2.343 2.152 0 .907.668 1.383 1.48 1.383.242 0 2.25 0 2.25-2.961 0-2.965-2.535-3.633-4.496-3.633-2.769 0-7.168 1.481-11.519 7.743-4.114 5.882-5.02 14.105-5.02 16.589 0 3.11.859 8.465 6.215 8.465 6.121 0 11.902-7.125 11.902-14.011 0-1.864-1.051-7.364-6.406-7.364-3.203 0-5.305 2.348-6.645 4.399m1.289 15.683c-2.484 0-3.441-2.246-3.441-4.496 0-4.207 2.344-14.629 8.559-14.629 3.441 0 3.441 3.684 3.441 4.305 0 1.816-1.387 7.84-2.578 10.375-.289.523-2.297 4.445-5.981 4.445m12.922-219.211c0-3.968-.242-7.84-1.961-11.476-1.961-3.969-5.402-5.02-7.746-5.02-2.773 0-6.168 1.387-7.937 5.356-1.336 3.011-1.817 5.976-1.817 11.14 0 4.637.336 8.125 2.059 11.52 1.863 3.633 5.16 4.781 7.648 4.781 4.161 0 6.551-2.484 7.938-5.258 1.719-3.586 1.816-8.273 1.816-11.043m-9.754 15.344c-1.531 0-4.636-.859-5.546-6.07-.528-2.867-.528-6.504-.528-9.848 0-3.922 0-7.461.766-10.281.812-3.203 3.25-4.684 5.308-4.684 1.817 0 4.59 1.098 5.497 5.211.621 2.727.621 6.504.621 9.754 0 3.203 0 6.836-.524 9.75-.91 5.262-3.922 6.168-5.594 6.168"/><path fill="maroon" d="M931.109-318.59v-1.098H919.59c-5.785 0-5.883-.625-6.074-1.531h-1.051l-1.485 9.563h1.051c.145-.86.578-3.824 1.196-4.352.382-.285 3.968-.285 4.64-.285h10.137l-5.07 7.266c-1.289 1.863-6.121 9.707-6.121 18.691 0 .527 0 2.441 1.96 2.441 2.008 0 2.008-1.867 2.008-2.488v-2.39c0-7.122 1.149-12.668 3.395-15.872z"/><path d="M1031.5-234.063c0-.429-.34-.429-.67-.429-.43 0-.53 0-.86.719l-4.5 9.796c-.24.528-.24.575-.24.672 0 .383.38.383.62.383.43 0 .48-.047.91-.766 2.87-5.593 6.74-7.746 9.42-7.746.86 0 1.15.336 1.82 1.625.43.957.91 1.864 2.29 1.864 1.01 0 1.91-.426 2.3-.618-3.49 5.594-4.98 8.415-6.22 10.946-4.11 8.176-5.45 14.054-5.45 14.488 0 .524.34 1.434 1.58 1.434 1.72 0 2.05-1.293 2.58-3.493 1.63-6.359 5.26-17.64 11.76-27.585.77-1.098.77-1.196.77-1.336 0-.383-.38-.383-.62-.383-.44 0-.48.047-1.1.859-1.25 1.914-3.3 4.735-5.55 4.735-1.05 0-1.24-.622-1.39-2.391-.14-1.676-.24-3.203-2.2-3.203-2.48 0-4.78 1.48-6.45 3.152zm4.55-185.496c2.39-1.293 5.88-3.488 5.88-7.507 0-4.161-4.02-7.028-8.42-7.028-4.73 0-8.46 3.492-8.46 7.84 0 1.625.48 3.25 1.82 4.879.52.621.57.668 3.92 3.012-4.64 2.148-7.03 5.355-7.03 8.843 0 5.067 4.83 8.223 9.71 8.223 5.3 0 9.75-3.918 9.75-8.937 0-4.879-3.44-7.032-7.17-9.325m-6.5-4.304c-.63-.43-2.54-1.672-2.54-4.016 0-3.105 3.25-5.066 6.46-5.066 3.44 0 6.5 2.484 6.5 5.929 0 2.914-2.11 5.258-4.88 6.789zm2.24 6.168 5.79 3.777c1.24.813 3.44 2.297 3.44 5.211 0 3.633-3.68 6.117-7.51 6.117-4.06 0-7.55-2.961-7.55-6.93 0-3.726 2.72-6.742 5.83-8.175"/><path fill="maroon" d="M1036.05-306.16c2.39-1.289 5.88-3.488 5.88-7.504 0-4.16-4.02-7.027-8.42-7.027-4.73 0-8.46 3.488-8.46 7.839 0 1.625.48 3.25 1.82 4.875.52.622.57.672 3.92 3.012-4.64 2.152-7.03 5.356-7.03 8.848 0 5.066 4.83 8.222 9.71 8.222 5.3 0 9.75-3.921 9.75-8.941 0-4.879-3.44-7.027-7.17-9.324m-6.5-4.305c-.63-.426-2.54-1.668-2.54-4.012 0-3.109 3.25-5.07 6.46-5.07 3.44 0 6.5 2.488 6.5 5.93 0 2.914-2.11 5.258-4.88 6.789zm2.24 6.172 5.79 3.777c1.24.813 3.44 2.293 3.44 5.211 0 3.633-3.68 6.117-7.51 6.117-4.06 0-7.55-2.964-7.55-6.929 0-3.731 2.72-6.742 5.83-8.176"/><path d="M1150.15-215.215c3.11-1.625 7.56-4.496 7.56-9.086 0-3.679-3.01-5.59-6.22-5.59-5.02 0-9.8 4.684-9.8 9.559 0 2.965 1.24 4.016 3.64 6.023-5.79 2.582-9.04 6.743-9.04 10.758 0 3.969 3.2 6.457 7.17 6.457 5.93 0 11.33-5.547 11.33-10.902 0-3.442-1.72-4.828-4.64-7.219m-4.68-4.16c-.48-.43-1.34-1.195-1.34-2.914 0-3.445 3.73-6.457 7.22-6.457 2.39 0 4.35 1.531 4.35 4.351 0 3.059-2.34 6.309-6.36 8.415zm4.06 8.746c1.77 1.582 2.63 2.348 2.63 4.496 0 4.016-4.35 7.746-8.51 7.746-3.25 0-5.16-2.246-5.16-5.117 0-3.918 3.49-8.176 7.65-10.039zm3.17-205.586c0 11.285-5.02 13.625-7.89 13.625-1.15 0-3.68-.14-4.88-1.812h.29c.33.093 2.06-.192 2.06-1.961 0-1.051-.72-1.961-1.96-1.961-1.25 0-2.01.812-2.01 2.054 0 2.965 2.39 4.973 6.55 4.973 5.97 0 11.76-6.359 11.76-16.734 0-12.86-5.36-16.063-9.56-16.063-5.26 0-9.9 4.399-9.9 10.711 0 6.309 4.45 10.613 9.23 10.613 3.54 0 5.35-2.582 6.31-5.023zm-6.12 2.488c-3.01 0-4.3-2.437-4.73-3.347-.77-1.817-.77-4.11-.77-6.262 0-2.676 0-4.973 1.24-6.934.86-1.289 2.16-2.675 4.74-2.675 2.72 0 4.11 2.39 4.59 3.492.95 2.34.95 6.406.95 7.121 0 4.016-1.81 8.605-6.02 8.605"/><path fill="maroon" d="M1148.97-319.547c0-1.098 0-1.144-.96-1.144-1.14 1.289-3.53 3.058-8.46 3.058v1.387c1.1 0 3.49 0 6.12-1.242v24.906c0 1.723-.14 2.297-4.35 2.297h-1.48v1.387c1.29-.098 5.93-.098 7.5-.098 1.58 0 6.17 0 7.46.098v-1.387h-1.48c-4.21 0-4.35-.574-4.35-2.297z"/><path d="M1265.95-212.969c-2.97 12.813-8.56 14.582-10.86 14.582-1.19 0-2.96-.242-3.63-1.722 1.67-.145 2.25-1.383 2.25-2.2 0-.906-.67-1.386-1.49-1.386-.33 0-2.24.097-2.24 2.918 0 3.203 3.34 3.683 5.02 3.683 4.16 0 7.74-3.254 10.23-6.504 4.64-6.168 5.78-14.488 5.78-17.929 0-1.434 0-8.364-5.97-8.364-6.17 0-12.15 6.93-12.15 13.957 0 1.864 1.1 7.364 6.41 7.364 2.87 0 5.07-1.864 6.65-4.399m-6.41 3.442c-3.44 0-3.44-3.778-3.44-4.254 0-2.199 1.62-8.321 2.29-9.754 1.24-2.676 3.49-5.211 6.55-5.211 3.01 0 3.25 3.586 3.25 4.351 0 3.489-2.1 14.868-8.65 14.868m11.77-222.461v-1.102h-11.52c-5.79 0-5.88-.621-6.07-1.527h-1.06l-1.48 9.562h1.05c.15-.863.58-3.828 1.2-4.351.38-.289 3.97-.289 4.64-.289h10.13l-5.07 7.265c-1.29 1.867-6.12 9.707-6.12 18.696 0 .527 0 2.437 1.97 2.437 2 0 2-1.863 2-2.484v-2.391c0-7.125 1.15-12.672 3.4-15.875z"/><path fill="maroon" d="M1262.85-306.16c2.39-1.289 5.88-3.488 5.88-7.504 0-4.16-4.02-7.027-8.42-7.027-4.73 0-8.46 3.488-8.46 7.839 0 1.625.48 3.25 1.82 4.875.52.622.57.672 3.92 3.012-4.64 2.152-7.03 5.356-7.03 8.848 0 5.066 4.83 8.222 9.71 8.222 5.3 0 9.75-3.921 9.75-8.941 0-4.879-3.44-7.027-7.17-9.324m-6.5-4.305c-.63-.426-2.54-1.668-2.54-4.012 0-3.109 3.25-5.07 6.46-5.07 3.44 0 6.5 2.488 6.5 5.93 0 2.914-2.11 5.258-4.88 6.789zm2.24 6.172 5.79 3.777c1.24.813 3.44 2.293 3.44 5.211 0 3.633-3.68 6.117-7.51 6.117-4.06 0-7.55-2.964-7.55-6.929 0-3.731 2.72-6.742 5.83-8.176"/><path d="M50.586-419.707c0-4.688-2.203-6.887-6.121-6.887-3.25 0-5.356 1.821-6.168 2.727 0-1.77 0-2.438-1.914-2.438H33.23c-.667 0-1.914 0-1.914 1.387s1.247 1.387 1.915 1.387h1.956v15.058h-1.956c-.669 0-1.915 0-1.915 1.387s1.247 1.387 1.915 1.387h7.027c.668 0 1.914 0 1.914-1.387s-1.246-1.387-1.914-1.387h-1.961v-8.656c0-4.637 3.25-6.691 5.832-6.691 2.773 0 3.348 1.578 3.348 4.304v11.043h-1.961c-.668 0-1.91 0-1.91 1.387s1.242 1.387 1.91 1.387h7.027c.672 0 1.914 0 1.914-1.387s-1.242-1.387-1.914-1.387h-1.957zm24.504 4.828c1.004 0 1.91 0 1.91-1.769 0-5.594-3.156-10.086-9.133-10.086-5.543 0-9.992 4.781-9.992 10.613 0 6.023 4.832 10.707 10.71 10.707 6.169 0 8.415-4.254 8.415-5.496 0-.289-.094-1.34-1.578-1.34-.906 0-1.195.332-1.48 1.051-1.196 2.773-4.301 3.011-5.211 3.011-3.97 0-7.125-3.011-7.649-6.691zm-13.961-2.629c.621-4.062 3.73-6.457 6.738-6.457 4.781 0 5.79 4.067 5.977 6.457zm28.996 2.774c0-5.692 4.016-9.086 8.082-9.086.238 0 .527 0 .766.047.14 1.722 1.48 1.867 1.816 1.867 1.098 0 1.863-.813 1.863-1.867 0-2.055-2.007-2.821-4.398-2.821-3.203 0-5.926 1.438-8.129 4.114v-1.864c0-1.484-.285-1.961-1.91-1.961h-4.828c-.672 0-1.914 0-1.914 1.387s1.242 1.387 1.914 1.387h3.632v15.058h-3.632c-.672 0-1.914 0-1.914 1.387s1.242 1.387 1.914 1.387h11.761c.668 0 1.91 0 1.91-1.387s-1.242-1.387-1.91-1.387h-5.023zm36.078-1.293c0-5.977-4.351-10.707-9.515-10.707s-9.516 4.73-9.516 10.707c0 6.023 4.398 10.613 9.516 10.613 5.117 0 9.515-4.59 9.515-10.613m-9.515 7.839c-3.442 0-6.407-3.632-6.407-8.171 0-4.45 3.059-7.606 6.407-7.606 3.343 0 6.406 3.156 6.406 7.606 0 4.586-2.965 8.171-6.406 8.171m24.265 14.442v-1.77h-4.64v-44.273h4.64v-1.766h-6.406v47.809zm14.578-18.789c0-.238-.191-.434-.48-.434-.43 0-.477.145-.715.957-1.242 4.352-3.203 5.832-4.781 5.832-.575 0-1.242-.14-1.242-1.578 0-1.289.57-2.722 1.097-4.16l3.348-8.891c.14-.382.476-1.242.476-2.152 0-2.008-1.433-3.824-3.777-3.824-4.398 0-6.168 6.933-6.168 7.316 0 .192.195.43.527.43.43 0 .481-.191.668-.859 1.149-4.02 2.965-5.93 4.829-5.93.433 0 1.246.047 1.246 1.578 0 1.242-.621 2.82-1.004 3.871l-3.348 8.895c-.285.765-.574 1.531-.574 2.39 0 2.149 1.484 3.871 3.777 3.871 4.399 0 6.121-6.98 6.121-7.312m-.383-22.996c0-.719-.574-1.578-1.625-1.578-1.101 0-2.343 1.05-2.343 2.293 0 1.195 1.004 1.578 1.578 1.578 1.289 0 2.39-1.242 2.39-2.293m10.262-6.024h-6.406v1.766h4.637v44.273h-4.637v1.77h6.406z"/><path fill="maroon" d="M16.328-301.336c0-5.687 4.016-9.086 8.078-9.086.239 0 .528 0 .766.051.14 1.723 1.48 1.863 1.816 1.863 1.098 0 1.864-.812 1.864-1.863 0-2.059-2.008-2.82-4.399-2.82-3.203 0-5.926 1.433-8.125 4.109v-1.863c0-1.485-.289-1.961-1.914-1.961H9.586c-.672 0-1.914 0-1.914 1.386 0 1.387 1.242 1.387 1.914 1.387h3.633v15.059H9.586c-.672 0-1.914 0-1.914 1.386 0 1.387 1.242 1.387 1.914 1.387h11.762c.668 0 1.91 0 1.91-1.387 0-1.386-1.242-1.386-1.91-1.386h-5.02zm36.074-1.293c0-5.973-4.351-10.707-9.515-10.707s-9.512 4.734-9.512 10.707c0 6.027 4.398 10.617 9.512 10.617 5.117 0 9.515-4.59 9.515-10.617m-9.515 7.844c-3.442 0-6.407-3.637-6.407-8.176 0-4.445 3.06-7.602 6.407-7.602s6.406 3.157 6.406 7.602c0 4.59-2.965 8.176-6.406 8.176m32.394-16.735c0-.765 0-1.816-1.34-1.816-1.148 0-1.433 1.102-1.433 1.148-1.914-1.148-4.114-1.148-5.07-1.148-7.79 0-8.844 3.969-8.844 5.594 0 1.961 1.148 3.297 2.773 4.207 1.531.859 2.918 1.097 6.836 1.722 1.867.333 5.691.954 5.691 3.586 0 1.766-1.628 3.442-6.074 3.442-3.058 0-5.066-1.195-6.07-4.637-.238-.672-.383-1.195-1.578-1.195-1.578 0-1.578.906-1.578 1.863v4.926c0 .762 0 1.816 1.34 1.816.574 0 1.004 0 1.722-1.961 2.196 1.817 4.684 1.961 6.164 1.961 8.844 0 8.844-5.738 8.844-6.215 0-4.972-5.926-5.976-8.219-6.312-4.21-.719-7.078-1.195-7.078-3.203 0-1.289 1.485-2.821 5.977-2.821 4.543 0 4.734 2.153 4.828 3.395.094.953.957 1.098 1.531 1.098 1.578 0 1.578-.86 1.578-1.817zm24.598 0c0-.765 0-1.816-1.34-1.816-1.145 0-1.433 1.102-1.433 1.148-1.91-1.148-4.11-1.148-5.067-1.148-7.793 0-8.844 3.969-8.844 5.594 0 1.961 1.149 3.297 2.774 4.207 1.527.859 2.914 1.097 6.836 1.722 1.863.333 5.687.954 5.687 3.586 0 1.766-1.625 3.442-6.07 3.442-3.059 0-5.07-1.195-6.07-4.637-.243-.672-.383-1.195-1.579-1.195-1.578 0-1.578.906-1.578 1.863v4.926c0 .762 0 1.816 1.336 1.816.575 0 1.008 0 1.723-1.961 2.2 1.817 4.683 1.961 6.168 1.961 8.844 0 8.844-5.738 8.844-6.215 0-4.972-5.93-5.976-8.223-6.312-4.207-.719-7.074-1.195-7.074-3.203 0-1.289 1.48-2.821 5.976-2.821 4.54 0 4.73 2.153 4.828 3.395.094.953.954 1.098 1.528 1.098 1.578 0 1.578-.86 1.578-1.817zm26.324 8.891c0-5.973-4.351-10.707-9.515-10.707s-9.516 4.734-9.516 10.707c0 6.027 4.398 10.617 9.516 10.617 5.117 0 9.515-4.59 9.515-10.617m-9.515 7.844c-3.442 0-6.407-3.637-6.407-8.176 0-4.445 3.059-7.602 6.407-7.602 3.343 0 6.406 3.157 6.406 7.602 0 4.59-2.965 8.176-6.406 8.176m24.265 14.437v-1.769h-4.64v-44.27h4.64v-1.769h-6.406v47.808zm14.578-18.789c0-.238-.191-.429-.48-.429-.43 0-.477.144-.715.957-1.242 4.347-3.203 5.832-4.781 5.832-.575 0-1.242-.145-1.242-1.578 0-1.293.57-2.727 1.097-4.161l3.348-8.89c.14-.383.476-1.242.476-2.153 0-2.007-1.433-3.824-3.777-3.824-4.398 0-6.168 6.93-6.168 7.313 0 .191.195.429.527.429.43 0 .481-.187.668-.859 1.149-4.016 2.965-5.93 4.829-5.93.433 0 1.246.051 1.246 1.578 0 1.247-.621 2.821-1.004 3.875l-3.348 8.891c-.285.766-.574 1.531-.574 2.391 0 2.152 1.484 3.875 3.777 3.875 4.399 0 6.121-6.981 6.121-7.317m-.383-22.996c0-.719-.574-1.578-1.625-1.578-1.101 0-2.343 1.051-2.343 2.297 0 1.195 1.004 1.574 1.578 1.574 1.289 0 2.39-1.242 2.39-2.293m10.262-6.023h-6.406v1.769h4.637v44.27h-4.637v1.769h6.406z"/><path d="M152.93-204.734c0-.243-.192-.434-.477-.434-.43 0-.48.145-.719.957-1.242 4.352-3.203 5.832-4.781 5.832-.574 0-1.242-.144-1.242-1.578 0-1.289.574-2.723 1.102-4.16l3.343-8.891c.145-.383.477-1.242.477-2.152 0-2.008-1.43-3.824-3.774-3.824-4.398 0-6.168 6.933-6.168 7.316 0 .191.192.43.528.43.429 0 .476-.192.668-.864 1.144-4.015 2.965-5.925 4.828-5.925.43 0 1.242.047 1.242 1.578 0 1.242-.621 2.82-1.004 3.871l-3.344 8.894c-.289.762-.578 1.528-.578 2.391 0 2.148 1.485 3.871 3.782 3.871 4.398 0 6.117-6.98 6.117-7.312m-.383-23a1.6 1.6 0 0 0-1.625-1.579c-1.102 0-2.344 1.055-2.344 2.297 0 1.196 1.004 1.578 1.578 1.578 1.293 0 2.391-1.242 2.391-2.296"/></g></svg>