<svg xmlns="http://www.w3.org/2000/svg" width="229pt" height="248" viewBox="0 -186 229 186"><g id="page1"><path fill="none" stroke="#000" stroke-linecap="round" stroke-linejoin="round" stroke-width="2" d="M1-14.488v-170.078h226.77v170.078z"/><path fill="#0000bf" d="M33.395-14.488h64.793v-37.633H33.394Z"/><path fill="none" stroke="#000" stroke-linecap="round" stroke-linejoin="round" stroke-width="2" d="M33.395-14.488v-37.633h64.793v37.633z"/><path fill="#0000bf" d="M130.586-14.488h64.789v-151.446h-64.789Z"/><path fill="none" stroke="#000" stroke-linecap="round" stroke-linejoin="round" stroke-width="2" d="M130.586-14.488v-151.446h64.789v151.446z"/><path d="M80.676-176.578c0-.32 0-.414-.18-.414-.144 0-.484.398-.61.558-.554-.449-1.109-.558-1.683-.558-2.168 0-2.812 1.183-2.812 2.172 0 .195 0 .824.68 1.449.573.5 1.183.629 2.007.789.984.195 1.219.25 1.664.609.324.27.559.66.559 1.164 0 .77-.45 1.629-2.028 1.629-1.18 0-2.039-.679-2.433-2.472-.074-.321-.074-.34-.09-.356-.035-.074-.11-.074-.164-.074-.195 0-.195.09-.195.414v2.434c0 .324 0 .414.18.414.09 0 .109-.02.413-.395.086-.125.086-.164.356-.449.683.844 1.648.844 1.953.844 1.883 0 2.813-1.039 2.813-2.453 0-.969-.59-1.543-.754-1.704-.641-.554-1.125-.664-2.309-.878-.54-.11-1.848-.36-1.848-1.434 0-.555.38-1.379 1.993-1.379 1.953 0 2.058 1.664 2.093 2.223.02.14.145.14.2.14.195 0 .195-.086.195-.41zm7.984 3.422c.395 0 .43 0 .43-.34 0-1.809-.965-3.496-3.133-3.496-2.043 0-3.621 1.847-3.621 4.07 0 2.363 1.828 4.102 3.816 4.102 2.133 0 2.938-1.938 2.938-2.313 0-.105-.09-.18-.196-.18-.144 0-.18.09-.214.18-.465 1.504-1.668 1.918-2.418 1.918-.754 0-2.563-.504-2.563-3.601v-.34zm-4.941-.34c.14-2.813 1.719-3.137 2.219-3.137 1.918 0 2.023 2.528 2.043 3.137zm12.367-2.133c-.215 0-.879 0-.879.734 0 .43.305.735.734.735.41 0 .754-.25.754-.77 0-1.199-1.254-2.062-2.707-2.062-2.094 0-3.761 1.863-3.761 4.121 0 2.293 1.718 4.051 3.746 4.051 2.363 0 2.902-2.149 2.902-2.313 0-.16-.125-.16-.18-.16-.164 0-.18.055-.234.27-.395 1.269-1.36 1.808-2.328 1.808-1.094 0-2.543-.949-2.543-3.672 0-2.972 1.52-3.707 2.418-3.707.68 0 1.664.266 2.078.965m9.535 2.793c0-2.309-1.754-4.156-3.832-4.156-2.148 0-3.852 1.902-3.852 4.156 0 2.297 1.794 4.016 3.836 4.016 2.11 0 3.848-1.758 3.848-4.016m-3.832 3.621c-.66 0-1.469-.289-1.988-1.164-.485-.809-.504-1.863-.504-2.617 0-.68 0-1.774.559-2.578a2.3 2.3 0 0 1 1.917-1.059c.696 0 1.45.324 1.934 1.024.555.824.555 1.953.555 2.613 0 .629 0 1.738-.465 2.582-.504.859-1.328 1.199-2.008 1.199m12.281-4.137c0-1.668 0-2.168-.41-2.742-.519-.699-1.363-.804-1.972-.804-1.735 0-2.418 1.484-2.559 1.843h-.02v-1.843l-2.437.195v.519c1.219 0 1.363.125 1.363 1.004v4.856c0 .804-.195.804-1.363.804v.52c.469-.035 1.433-.035 1.937-.035.52 0 1.485 0 1.954.035v-.52c-1.149 0-1.364 0-1.364-.804v-3.332c0-1.883 1.239-2.887 2.348-2.887s1.359.914 1.359 2.008v4.211c0 .804-.195.804-1.359.804v.52c.465-.035 1.433-.035 1.933-.035.52 0 1.489 0 1.954.035v-.52c-.895 0-1.344 0-1.364-.535zm7.203-7.882v.519c1.219 0 1.364.125 1.364 1v3.961c-.379-.519-1.149-1.144-2.239-1.144-2.078 0-3.871 1.753-3.871 4.046 0 2.274 1.703 4.032 3.672 4.032 1.364 0 2.153-.899 2.403-1.235v1.235l2.527-.18v-.52c-1.223 0-1.363-.125-1.363-1.003v-10.911zm1.329 10.14c0 .321 0 .375-.25.77-.434.625-1.168 1.144-2.063 1.144-.465 0-2.398-.179-2.398-3.656 0-1.285.211-2.004.605-2.594.359-.558 1.074-1.113 1.973-1.113 1.109 0 1.738.809 1.914 1.094.219.304.219.34.219.664zm10.015-2.687c0-.969 0-1.688-.789-2.383-.629-.574-1.433-.828-2.223-.828-1.468 0-2.597.969-2.597 2.133 0 .519.34.769.754.769.429 0 .734-.301.734-.73 0-.735-.644-.735-.914-.735.41-.754 1.27-1.078 1.988-1.078.825 0 1.879.68 1.879 2.293v.719c-3.597.051-4.961 1.558-4.961 2.937 0 1.414 1.649 1.864 2.742 1.864 1.18 0 1.989-.719 2.329-1.578.07.843.625 1.488 1.398 1.488.375 0 1.414-.25 1.414-1.684v-1.004h-.394v1.004c0 1.02-.43 1.164-.68 1.164-.68 0-.68-.949-.68-1.218zm-1.168 2.254c0 1.757-1.308 2.347-2.078 2.347-.875 0-1.609-.644-1.609-1.504 0-2.363 3.043-2.582 3.687-2.617zm5.942-1.645c0-1.742.718-3.371 2.097-3.371.145 0 .18 0 .25.02-.144.07-.429.179-.429.664 0 .515.41.714.699.714.359 0 .715-.234.715-.714 0-.539-.481-1.039-1.254-1.039-1.524 0-2.039 1.644-2.149 1.984h-.019v-1.984l-2.399.195v.519c1.219 0 1.36.125 1.36 1.004v4.856c0 .804-.196.804-1.36.804v.52c.5-.035 1.489-.035 2.024-.035.484 0 1.754 0 2.168.035v-.52h-.36c-1.304 0-1.343-.199-1.343-.839zm7.027-6.863a.88.88 0 0 0-.879-.879.86.86 0 0 0-.859.859c0 .539.429.879.859.879a.874.874 0 0 0 .879-.859m-2.473 3.332v.519c1.149 0 1.309.106 1.309.985v4.875c0 .804-.199.804-1.363.804v.52c.5-.035 1.363-.035 1.882-.035.196 0 1.235 0 1.844.035v-.52c-1.164 0-1.234-.089-1.234-.789v-6.589zm11.016 3.547c.394 0 .43 0 .43-.34 0-1.809-.969-3.496-3.133-3.496-2.043 0-3.621 1.847-3.621 4.07 0 2.363 1.828 4.102 3.816 4.102 2.133 0 2.938-1.938 2.938-2.313 0-.105-.09-.18-.196-.18-.144 0-.179.09-.215.18-.464 1.504-1.667 1.918-2.417 1.918-.754 0-2.567-.504-2.567-3.601v-.34zm-4.945-.34c.144-2.813 1.718-3.137 2.222-3.137 1.918 0 2.024 2.528 2.043 3.137zM57.938-62.168c.898-.484 2.203-1.309 2.203-2.813 0-1.558-1.504-2.632-3.153-2.632-1.773 0-3.168 1.308-3.168 2.937 0 .61.176 1.219.68 1.828.195.23.215.25 1.469 1.13-1.739.804-2.633 2.007-2.633 3.312 0 1.898 1.809 3.082 3.637 3.082 1.988 0 3.652-1.469 3.652-3.348 0-1.828-1.29-2.637-2.687-3.496M55.5-63.781c-.23-.16-.945-.625-.945-1.504 0-1.164 1.215-1.899 2.418-1.899 1.289 0 2.433.934 2.433 2.223 0 1.094-.789 1.969-1.828 2.543zm.844 2.312 2.168 1.414c.465.305 1.289.86 1.289 1.953 0 1.364-1.38 2.293-2.813 2.293-1.523 0-2.832-1.109-2.832-2.597 0-1.399 1.024-2.524 2.188-3.063m8.351-.664c-.304.02-.375.04-.375.2 0 .18.09.18.414.18h.82c1.524 0 2.204 1.253 2.204 2.972 0 2.347-1.215 2.972-2.094 2.972-.86 0-2.328-.41-2.848-1.593.575.09 1.09-.23 1.09-.88 0-.519-.375-.874-.875-.874-.43 0-.898.25-.898.93 0 1.593 1.597 2.902 3.586 2.902 2.133 0 3.707-1.63 3.707-3.442 0-1.644-1.324-2.937-3.047-3.242 1.558-.445 2.562-1.754 2.562-3.152 0-1.414-1.468-2.453-3.207-2.453-1.789 0-3.117 1.094-3.117 2.402 0 .715.555.86.824.86.38 0 .809-.27.809-.81 0-.573-.43-.823-.824-.823-.11 0-.145 0-.2.02.68-1.22 2.368-1.22 2.454-1.22.593 0 1.757.27 1.757 2.024 0 .34-.054 1.344-.574 2.113-.535.79-1.144.844-1.629.863zm13.532.699c0-1.488-.09-2.937-.735-4.3-.734-1.485-2.023-1.88-2.902-1.88-1.04 0-2.313.52-2.973 2.008-.504 1.13-.683 2.239-.683 4.172 0 1.739.125 3.047.77 4.317.698 1.363 1.937 1.793 2.866 1.793 1.559 0 2.453-.93 2.977-1.969.644-1.344.68-3.102.68-4.14m-3.657 5.75c-.57 0-1.738-.32-2.078-2.273-.195-1.074-.195-2.437-.195-3.691 0-1.47 0-2.793.285-3.852.305-1.2 1.219-1.754 1.988-1.754.68 0 1.72.41 2.063 1.953.23 1.02.23 2.434.23 3.653 0 1.203 0 2.562-.195 3.656-.34 1.969-1.469 2.308-2.098 2.308M49.926-5.922c-.145 0-.586 0-.586.492a.47.47 0 0 0 .488.489c.277 0 .504-.168.504-.512 0-.8-.836-1.375-1.805-1.375-1.398 0-2.508 1.242-2.508 2.746 0 1.531 1.145 2.7 2.497 2.7 1.578 0 1.937-1.43 1.937-1.54s-.086-.11-.121-.11c-.11 0-.121.04-.156.18-.262.852-.907 1.207-1.551 1.207-.73 0-1.7-.632-1.7-2.449 0-1.984 1.016-2.472 1.614-2.472.453 0 1.11.18 1.387.644m6.359 1.867c0-1.543-1.172-2.773-2.558-2.773-1.434 0-2.57 1.266-2.57 2.773 0 1.528 1.195 2.672 2.558 2.672 1.41 0 2.57-1.168 2.57-2.672m-2.558 2.41c-.442 0-.98-.19-1.325-.777-.324-.535-.336-1.242-.336-1.742 0-.453 0-1.184.371-1.719.336-.515.86-.707 1.278-.707.465 0 .969.215 1.293.68.367.55.367 1.305.367 1.746 0 .418 0 1.156-.309 1.719a1.56 1.56 0 0 1-1.34.8m4.969-2.64c0-1.156.477-2.246 1.399-2.246.093 0 .117 0 .168.011-.098.051-.29.122-.29.442 0 .348.278.48.465.48.243 0 .481-.156.481-.48 0-.356-.324-.692-.836-.692-1.016 0-1.363 1.098-1.434 1.329h-.011V-6.77l-1.602.133v.348c.813 0 .906.082.906.668v3.238c0 .535-.129.535-.906.535v.348c.332-.023.992-.023 1.348-.023.324 0 1.172 0 1.445.023v-.348h-.234c-.875 0-.899-.129-.899-.558zm4.5 0c0-1.156.477-2.246 1.399-2.246.094 0 .117 0 .168.011-.098.051-.29.122-.29.442 0 .348.278.48.466.48.242 0 .48-.156.48-.48 0-.356-.324-.692-.836-.692-1.016 0-1.363 1.098-1.434 1.329h-.011V-6.77l-1.602.133v.348c.813 0 .906.082.906.668v3.238c0 .535-.129.535-.906.535v.348c.332-.023.992-.023 1.348-.023.324 0 1.172 0 1.445.023v-.348h-.234c-.875 0-.899-.129-.899-.558zm7.18.012c.266 0 .29 0 .29-.227 0-1.207-.65-2.328-2.095-2.328-1.36 0-2.414 1.23-2.414 2.71 0 1.579 1.219 2.735 2.547 2.735 1.422 0 1.961-1.289 1.961-1.539 0-.07-.062-.117-.133-.117-.094 0-.117.059-.144.117-.309 1.004-1.11 1.277-1.614 1.277-.5 0-1.707-.332-1.707-2.402v-.226zM67.078-4.5c.094-1.875 1.149-2.09 1.48-2.09 1.282 0 1.352 1.684 1.364 2.09zm5.93-1.805h1.683v-.343h-1.683v-2.2h-.266c-.008 1.121-.437 2.27-1.527 2.305v.238h1.016v3.325c0 1.324.886 1.597 1.519 1.597.75 0 1.144-.738 1.144-1.597v-.684h-.261v.656c0 .863-.348 1.363-.813 1.363-.812 0-.812-1.109-.812-1.312zm4.5 0h1.683v-.343h-1.683v-2.2h-.266c-.008 1.121-.437 2.27-1.527 2.305v.238h1.016v3.325c0 1.324.886 1.597 1.519 1.597.75 0 1.144-.738 1.144-1.597v-.684h-.261v.656c0 .863-.348 1.363-.813 1.363-.812 0-.812-1.109-.812-1.312zm7.202 1.614c0-.645 0-1.122-.522-1.59-.419-.38-.957-.547-1.485-.547-.976 0-1.73.644-1.73 1.422 0 .343.226.511.5.511a.47.47 0 0 0 .492-.488c0-.492-.43-.492-.61-.492.274-.5.848-.715 1.325-.715.55 0 1.257.453 1.257 1.527v.481c-2.402.035-3.312 1.039-3.312 1.957 0 .945 1.102 1.242 1.828 1.242a1.63 1.63 0 0 0 1.555-1.047c.047.559.418.989.93.989.253 0 .945-.168.945-1.121v-.672h-.262v.672c0 .68-.289.773-.457.773-.453 0-.453-.633-.453-.813zm-.772 1.507c0 1.168-.876 1.567-1.387 1.567-.586 0-1.078-.434-1.078-1.008 0-1.574 2.03-1.719 2.465-1.742z"/><path fill="#fff" d="M148.695-90.832c-.304.02-.375.035-.375.2 0 .179.09.179.414.179h.821c1.523 0 2.203 1.25 2.203 2.972 0 2.348-1.215 2.973-2.094 2.973-.859 0-2.328-.41-2.848-1.594.575.09 1.09-.234 1.09-.879 0-.519-.375-.878-.875-.878-.429 0-.898.253-.898.933 0 1.594 1.597 2.903 3.586 2.903 2.133 0 3.707-1.633 3.707-3.442 0-1.644-1.324-2.937-3.047-3.242 1.559-.445 2.562-1.754 2.562-3.152 0-1.414-1.468-2.454-3.207-2.454-1.789 0-3.117 1.094-3.117 2.399 0 .719.555.86.824.86.379 0 .805-.266.805-.805 0-.575-.426-.825-.82-.825-.11 0-.145 0-.199.02.679-1.219 2.367-1.219 2.453-1.219.593 0 1.758.27 1.758 2.024 0 .34-.055 1.343-.575 2.113-.535.789-1.144.844-1.629.863zm8.801 0c-.305.02-.375.035-.375.2 0 .179.09.179.41.179h.824c1.524 0 2.204 1.25 2.204 2.972 0 2.348-1.215 2.973-2.094 2.973-.863 0-2.332-.41-2.848-1.594.571.09 1.09-.234 1.09-.879 0-.519-.375-.878-.879-.878-.43 0-.894.253-.894.933 0 1.594 1.597 2.903 3.582 2.903 2.132 0 3.711-1.633 3.711-3.442 0-1.644-1.329-2.937-3.047-3.242 1.558-.445 2.562-1.754 2.562-3.152 0-1.414-1.469-2.454-3.207-2.454-1.793 0-3.117 1.094-3.117 2.399 0 .719.555.86.824.86.375 0 .805-.266.805-.805 0-.575-.43-.825-.82-.825-.11 0-.145 0-.2.02.68-1.219 2.364-1.219 2.453-1.219.594 0 1.758.27 1.758 2.024 0 .34-.054 1.343-.574 2.113-.535.789-1.148.844-1.629.863zm11.973-5.23c0-.34 0-.43-.25-.43-.145 0-.199 0-.34.215l-5.395 8.367v.52h4.711v1.628c0 .664-.035.844-1.343.844h-.36v.52c.414-.04 1.828-.04 2.328-.04.504 0 1.938 0 2.348.04v-.52h-.355c-1.293 0-1.344-.18-1.344-.844v-1.629h1.808v-.52h-1.808zm-1.184 1.398v6.754h-4.355zm11.543 4.531c0-1.488-.094-2.937-.738-4.3-.735-1.485-2.024-1.88-2.902-1.88-1.04 0-2.309.52-2.973 2.008-.5 1.125-.68 2.239-.68 4.172 0 1.739.125 3.047.77 4.317.699 1.363 1.933 1.793 2.867 1.793 1.558 0 2.453-.93 2.973-1.97.644-1.343.683-3.1.683-4.14m-3.656 5.75c-.574 0-1.738-.32-2.078-2.273-.199-1.078-.199-2.438-.199-3.692 0-1.468 0-2.793.289-3.851.304-1.2 1.218-1.754 1.988-1.754.68 0 1.719.41 2.058 1.953.235 1.02.235 2.434.235 3.652 0 1.2 0 2.563-.199 3.653-.34 1.972-1.469 2.312-2.094 2.312"/><path d="M144.418-6.555c0-.215 0-.273-.117-.273-.098 0-.324.262-.406.371-.372-.3-.743-.371-1.125-.371-1.446 0-1.875.789-1.875 1.445 0 .133 0 .551.453.969.382.332.789.418 1.34.523.656.133.808.168 1.109.407a1 1 0 0 1 .371.777c0 .512-.301 1.09-1.348 1.09-.789 0-1.363-.457-1.625-1.653-.05-.214-.05-.226-.062-.238-.024-.047-.07-.047-.11-.047-.128 0-.128.059-.128.274v1.625c0 .215 0 .273.121.273.058 0 .07-.008.273-.262.059-.082.059-.105.238-.296.453.558 1.102.558 1.301.558 1.258 0 1.879-.691 1.879-1.633 0-.648-.394-1.03-.504-1.136-.43-.371-.75-.442-1.539-.586-.359-.07-1.234-.239-1.234-.957 0-.367.254-.918 1.328-.918 1.305 0 1.375 1.11 1.398 1.48.012.098.098.098.133.098.129 0 .129-.063.129-.277zm5.008.633c-.145 0-.586 0-.586.492a.47.47 0 0 0 .488.489c.277 0 .504-.168.504-.512 0-.8-.836-1.375-1.805-1.375-1.398 0-2.507 1.242-2.507 2.746 0 1.531 1.144 2.7 2.496 2.7 1.578 0 1.937-1.43 1.937-1.54s-.086-.11-.121-.11c-.109 0-.117.04-.156.18-.262.852-.906 1.207-1.555 1.207-.726 0-1.695-.632-1.695-2.449 0-1.984 1.015-2.472 1.613-2.472.453 0 1.109.18 1.387.644m6.359 1.867c0-1.543-1.172-2.773-2.558-2.773-1.434 0-2.571 1.266-2.571 2.773 0 1.528 1.196 2.672 2.559 2.672 1.41 0 2.57-1.168 2.57-2.672m-2.558 2.41c-.442 0-.981-.19-1.325-.777-.324-.535-.336-1.242-.336-1.742 0-.453 0-1.184.372-1.719a1.53 1.53 0 0 1 1.277-.707c.465 0 .969.215 1.293.68.371.55.371 1.305.371 1.746 0 .418 0 1.156-.313 1.719a1.56 1.56 0 0 1-1.339.8m4.968-2.64c0-1.156.477-2.246 1.399-2.246.094 0 .121 0 .168.011-.098.051-.289.122-.289.442 0 .348.273.48.465.48.242 0 .48-.156.48-.48 0-.356-.324-.692-.836-.692-1.016 0-1.363 1.098-1.434 1.329h-.011V-6.77l-1.602.133v.348c.813 0 .906.082.906.668v3.238c0 .535-.128.535-.906.535v.348c.332-.023.992-.023 1.348-.023.324 0 1.172 0 1.445.023v-.348h-.234c-.875 0-.899-.129-.899-.558zm4.5 0c0-1.156.477-2.246 1.399-2.246.094 0 .121 0 .168.011-.098.051-.289.122-.289.442 0 .348.273.48.465.48.242 0 .48-.156.48-.48 0-.356-.324-.692-.836-.692-1.016 0-1.363 1.098-1.434 1.329h-.011V-6.77l-1.602.133v.348c.813 0 .906.082.906.668v3.238c0 .535-.128.535-.906.535v.348c.332-.023.992-.023 1.348-.023.324 0 1.172 0 1.445.023v-.348h-.234c-.875 0-.899-.129-.899-.558zm7.184.012c.262 0 .285 0 .285-.227 0-1.207-.648-2.328-2.094-2.328-1.359 0-2.414 1.23-2.414 2.71 0 1.579 1.223 2.735 2.547 2.735 1.422 0 1.961-1.289 1.961-1.539 0-.07-.062-.117-.133-.117-.093 0-.117.059-.144.117-.309 1.004-1.11 1.277-1.614 1.277-.5 0-1.707-.332-1.707-2.402v-.226zm-3.301-.227c.094-1.875 1.149-2.09 1.481-2.09 1.281 0 1.351 1.684 1.363 2.09zm5.93-1.805h1.683v-.343h-1.683v-2.2h-.266c-.008 1.121-.437 2.27-1.527 2.305v.238h1.015v3.325c0 1.324.887 1.597 1.516 1.597.758 0 1.149-.738 1.149-1.597v-.684h-.262v.656c0 .863-.348 1.363-.813 1.363-.812 0-.812-1.109-.812-1.312zm4.5 0h1.683v-.343h-1.683v-2.2h-.266c-.008 1.121-.437 2.27-1.527 2.305v.238h1.015v3.325c0 1.324.887 1.597 1.516 1.597.758 0 1.149-.738 1.149-1.597v-.684h-.262v.656c0 .863-.348 1.363-.813 1.363-.812 0-.812-1.109-.812-1.312zm7.207 1.614c0-.645 0-1.122-.527-1.59-.418-.38-.958-.547-1.485-.547-.976 0-1.73.644-1.73 1.422 0 .343.226.511.5.511a.47.47 0 0 0 .492-.488c0-.492-.43-.492-.61-.492.274-.5.848-.715 1.325-.715.55 0 1.258.453 1.258 1.527v.481c-2.403.035-3.313 1.039-3.313 1.957 0 .945 1.102 1.242 1.828 1.242a1.63 1.63 0 0 0 1.555-1.047c.047.559.418.989.93.989.253 0 .945-.168.945-1.121v-.672h-.262v.672c0 .68-.289.773-.457.773-.449 0-.449-.633-.449-.813zm-.777 1.507c0 1.168-.875 1.567-1.387 1.567-.586 0-1.078-.434-1.078-1.008 0-1.574 2.031-1.719 2.465-1.742z"/></g></svg>