<svg xmlns="http://www.w3.org/2000/svg" width="904pt" height="596" viewBox="0 -447 904 447"><g id="page1" transform="scale(1 -1)"><path fill="#cc9c6f" d="M143.008 392.828a7150 7150 0 0 1 617.555-86.793l2.367 16.844a7141 7141 0 0 1-307.832 50.133 7144 7144 0 0 1-309.723 36.66z"/><path fill="none" stroke="#000" stroke-linecap="round" stroke-linejoin="round" stroke-width="2" d="M143.008 392.828a7150 7150 0 0 1 617.555-86.793l2.367 16.844a7141 7141 0 0 1-307.832 50.133 7144 7144 0 0 1-309.723 36.66z"/><path fill="#fff" d="M176.746 397.387a5.668 5.668 0 1 1-11.336 0 5.667 5.667 0 1 1 11.336 0"/><path fill="none" stroke="#000" stroke-linecap="round" stroke-linejoin="round" stroke-width="2" d="M176.746 397.387a5.668 5.668 0 1 1-11.336 0 5.667 5.667 0 1 1 11.336 0"/><path fill="#fff" d="M738.16 318.484a5.67 5.67 0 1 1-11.341.003 5.67 5.67 0 0 1 11.341-.003"/><path fill="none" stroke="#000" stroke-linecap="round" stroke-linejoin="round" stroke-width="2" d="M738.16 318.484a5.67 5.67 0 1 1-11.341.003 5.67 5.67 0 0 1 11.341-.003"/><path fill="#d3ae37" d="M341.156 150.773c0 15.657-76.144 28.348-170.078 28.348C77.148 179.121 1 166.43 1 150.773s76.148-28.347 170.078-28.347c93.934 0 170.078 12.691 170.078 28.347"/><path fill="none" stroke="#000" stroke-linecap="round" stroke-linejoin="round" stroke-width="2" d="M341.156 150.773c0 15.657-76.144 28.348-170.078 28.348C77.148 179.121 1 166.43 1 150.773s76.148-28.347 170.078-28.347c93.934 0 170.078 12.691 170.078 28.347M171.078 377.547l161.41-217.813m-161.41 217.813L117.32 177.676m53.758 199.871L19.984 137.746m151.094 239.801v19.84"/><g fill-rule="evenodd"><path fill="#247040" d="M134.941 193.645c-.632.293-1.117-.438-.875-.973.243-.734.926-.051 1.414-.149.731.047 1.606-.097 2.239.438.586.535-.485 1.074-1.024.977-.582-.051-1.168-.247-1.754-.293m2.778-.684c-.731-.484-2.531-.195-3.262-.68-.488-.441.289-1.316.391-1.804a3.8 3.8 0 0 0 .242-2.192c-.242-1.609-1.074-3.019-1.754-4.484-1.707-3.653-3.656-7.16-5.262-10.91 1.024-.391 1.996.289 2.973.582.777.195 1.019 1.074 1.215 1.754.148.73.293 1.414.683 2.046 1.461 3.266 3.168 6.43 4.629 9.696.586 1.656.926 3.41.875 5.117.391 1.316-.34 1.121-.73.875m-23.285-13.785c-1.512-.391-3.168-.539-4.438-1.512 2.828-.437 5.359-2.047 7.215-4.191 1.019-1.461 1.754-3.215 3.262-4.239.781-.582 1.707-1.023 2.679-1.07.633 0 1.024.535 1.559.828.926.684 1.121 1.996 2.098 2.629.535 1.121.093 2.438-.489 3.461-.683 1.168-1.656 2.387-2.777 3.117-2.535 1.512-5.699 1.461-8.527 1.074-.196-.05-.387-.05-.582-.097m24.843-2.973c-2.824-1.902-6.234-2.582-9.449-3.605-1.023-.293-2-.731-2.824-1.461-1.219-1.024-2.098-2.68-1.758-4.336.246-.977 1.219-1.852 2.242-1.512.535.047 1.075.684 1.266.047.195-.484.344-1.168 1.023-1.168 2.536-.242 5.071.828 6.825 2.633a8.4 8.4 0 0 1 2.484 4.918c.34 1.558.484 3.121.582 4.679-.098.196-.34-.05-.391-.195m-25.089-1.754c-2.727-.828-5.7-1.414-8.575-.976-.242.828-1.558-.047-.586-.387 1.219-1.66 3.071-2.731 4.922-3.461 1.656 0 3.117.777 4.68 1.07.726.442 1.898.344 2.726.633.731.344-.488 1.512-.73 1.949-.437.539-.828.977-1.512 1.219-.293.098-.633.149-.925-.047m28.988-.586c-1.215-.293-2.582-.535-3.36-1.605-.293-.488-.437-1.121-.437-1.707 0-.781.922 0 1.019-.047-.437-.539-.972-.93-1.46-1.414-.536-1.024-1.168-2.145-2.192-2.731-.488-.535 0-1.265.633-1.363.586-.195 1.168.051 1.754.145 3.265.586 5.894 2.925 9.16 3.605.535-.34 1.168.195 1.219.734.144.583-.149 1.118-.633 1.461-.586.633-1.074 1.364-1.805 1.899-1.121.828-2.535 1.316-3.898 1.023m16.176-.683c-2.243-1.754-5.164-2.387-7.942-2.434-.488-.098-1.168.195-1.363-.391-.195-.632.34-1.265.047-1.851-.391-.391-1.024-.195-1.559-.293-.437.098-.68-.535-.144-.391.293.102 1.023 0 .437-.289-.488-.39.535-.246.781-.488 1.266-.438 2.485-1.07 3.848-1.414 1.559.098 2.824 1.219 4.043 2.144 1.512 1.461 2.582 3.653 2.242 5.797-.195 0-.195-.34-.39-.39m-14.469-6.43c-.684-.535-1.656-.488-2.289-1.168-.586-.586 1.019-.246.73-.633-.879.387-.879.387-1.707-.293-.633-.976.344-1.511.684-1.851 1.168-1.075 2.679-1.61 4.09-2.094 3.414-.977 7.066-1.465 10.574-.781 1.414.293 2.777.781 3.996 1.461-.684.781-1.805.437-2.68.73-.488.242-1.023.586-1.609.828-2.727 1.414-5.359 3.313-8.477 3.949-1.074.243-2.242.243-3.312-.148"/><path fill="#d1242b" d="M106.441 166.945c-1.8-1.898-2.972-4.289-3.898-6.675-1.363-3.993-1.605-8.282-1.313-12.473.485-4.871 1.997-9.598 3.895-14.078 1.949-4.336 3.852-8.672 5.945-12.91 1.317-2.68 2.629-5.313 4.383-7.7 1.852-2.386 4.68-4.191 7.797-4.043 2.145 0 4.094 1.071 5.895 2.145 2.875 1.605 5.652 3.359 8.527 5.066 6.918 5.016 12.766 11.399 18.074 18.024 1.656 2.195 2.926 4.726 3.266 7.504.535 3.508.484 7.113-.246 10.621-.536 2.047-1.606 3.898-2.532 5.75-.781 1.265-2.242.683-3.461.73-3.359.196-6.769 1.024-9.695 2.778-.875.73-1.312 1.8-1.996 2.679-1.266.926-2.973-.34-4.238.586-1.074.582-2.34-.097-3.266-.636-1.656-.731-3.703-.731-5.211.292-1.023.391-2.293.536-3.023 1.512.195 1.121-1.071 2.192-2.141 1.703-.976-.289-2.047.344-2.875.879-.926.535-1.609 1.61-2.68 1.949-3.558-.293-8.82-2.046-11.207-3.703"/><path d="M134.602 194.133c-1.266.047-2.094-1.805-.778-2.391 1.266-1.363.973-3.41.438-5.015-.828-2.633-2.387-4.872-3.606-7.309-.926-1.805-1.902-3.656-2.633-5.508-1.265.195-.925 1.805-1.703 2.488-1.898 2.434-5.019 3.653-8.09 3.75-3.117.098-6.234-.535-8.964-2.046.148-1.122 1.464-.829 2.242-1.122.781-.679 2.144-.632 2.73-1.605-.39-.879-1.558-.73-2.34-.926-1.558-.246-3.117-.73-4.726-.633a5.15 5.15 0 0 0-3.313 1.215c-1.023-.144.293-1.312.536-1.801 1.218-1.558 2.73-3.07 4.628-3.75-.73-1.316-2.535-1.511-3.312-2.777-3.266-3.363-4.824-7.992-5.313-12.57-.828-7.457 1.172-14.957 4.336-21.684 2.633-5.457 5.364-10.91 7.993-16.367 1.461-2.68 3.117-5.508 5.945-6.918 2.68-1.316 6.09-1.219 8.672.387 3.457 1.754 6.722 3.703 10.035 5.652 7.648 5.117 13.887 12.035 19.293 19.442 1.851 2.824 2.824 6.187 3.312 9.546.586 4.778-.293 9.793-2.875 13.887-.828 1.363 1.172 1.754 2.145 1.996.879.344 2.973.781 2.293 2.047-1.027.633-2.34.242-3.363.828-1.317.535-2.485 1.317-3.704 1.949.243 1.122 1.559 1.024 2.336 1.61 1.661 1.508 3.219 3.41 3.512 5.699.387.828-.051 2.438-1.172 1.852-.484-.879-1.461-1.266-2.34-1.559-2.289-.926-4.773-1.023-7.16-1.414-1.316 1.363-2.629 2.973-4.629 3.215-1.605.344-3.457 0-4.726-1.121-1.071.636-.196 1.902-.145 2.777.196.684-.488 1.754-1.023.781-1.219-1.121-2.875-1.461-4.336-2.093-.731-.149-1.609-.829-2.242-.196-.293 1.024.488 1.899.73 2.778 1.805 4.382 4.582 8.378 5.41 13.054.196 1.024.582 2.145.145 3.121-.582 1.071-1.996 1.118-3.07.973a11 11 0 0 1-1.168-.242m.293-.391c-1.219.488-1.122-2.047.097-1.121.926.098 2.531-.195 2.973.731-.488 1.218-2.145.437-3.07.39m2.339-1.219c-.781-.535-2.488.391-2.679-.875.144-.878.679-1.707.582-2.632-.047-1.559-.68-3.02-1.266-4.434-1.754-3.945-4.094-7.602-5.797-11.598 1.168-.386 2.289.442 3.41.782.973 1.023.731 2.582 1.508 3.703 1.707 3.945 4.094 7.601 5.215 11.84.195 1.07.242 2.191.242 3.312-.437 0-.828.051-1.215-.098m-22.8-13.25c-1.414-.39-3.024-.39-4.145-1.414 1.707-.535 3.461-1.074 4.824-2.339 2.192-1.801 3.461-4.532 5.653-6.332.73-.586 1.605-1.024 2.535-1.122.73 1.168-1.465 1.266-1.66 2.289-1.118 1.461-1.703 3.215-2.727 4.727 1.609-1.172 1.899-3.363 3.363-4.727.633-.632 1.411-1.609 2.434-1.218 1.023.73 1.414 2 2.191 2.926.539 1.167-.242 2.386-.777 3.41-1.219 2.093-3.508 3.554-5.945 3.847-1.899.293-3.848.243-5.746-.047m24.843-2.972c-3.214-2.242-7.211-2.731-10.765-4.145-1.754-.777-3.457-2.386-3.313-4.429 0-1.122.731-2.391 1.899-2.489 1.316.149 1.656 1.707 2.535 2.438 1.851 1.656 4.336 2.34 6.332 3.801.73.339-.582-.782-.828-.879-1.559-1.024-3.41-1.606-4.824-2.825-.727-.535-1.364-1.218-1.801-2.046.535-.489.293-1.61 1.414-1.461 1.949-.243 3.898.535 5.504 1.605 1.656 1.121 2.925 2.875 3.41 4.875.488 1.656.539 3.41.926 5.113.05.293-.145.684-.489.442m-25.089-1.852c-2.727-.828-5.653-1.316-8.528-.879-.242.977-1.754-.242-.633-.484 1.368-1.512 3.121-2.684 5.02-3.461 1.898.488 3.801 1.219 5.75 1.363-.149 1.075-1.707.246-2.484.489-1.219 0-2.438 0-3.657.097 2.145.391 4.387.196 6.578.098.68-.879 1.801.73.633.973-.535.925-1.363 2.484-2.679 1.804m28.988-.488c-1.266-.293-2.824-.586-3.508-1.852-.195-.586-.777-2.386.437-1.656 2 1.266 4.629 1.266 6.825.34-1.367 0-2.633.586-3.95.344-1.507-.196-3.117-.782-4.042-2.047-.536-1.024-1.168-2.047-2.192-2.68-.781-1.172 1.07-1.656 1.899-1.269 3.507.441 6.238 3.023 9.648 3.703 1.07-.535 1.605 1.172.973 1.851-.68.489-1.121 1.317-1.754 1.852-1.168 1.023-2.778 1.754-4.336 1.414m16.176-.684c-2.485-1.996-5.797-2.531-8.914-2.433-1.172-.442.632-2.387-.879-2.485-.438-.097-1.801.098-1.461-.437 2.679 0 5.308.34 7.843 1.168-1.851-1.461-4.336-1.461-6.527-1.363-.633.289-1.219-.442-.293-.442 1.461-.437 2.824-1.168 4.336-1.558 1.559.097 2.824 1.218 3.996 2.144 1.559 1.461 2.629 3.606 2.289 5.797-.195 0-.195-.34-.39-.391m-42.582-2.773c-3.75-.539-7.598-1.512-10.719-3.754-1.071-1.219-1.656-2.727-2.582-4.043-2.289-4.336-2.434-9.402-2.289-14.18.39-6.672 2.972-13.007 5.797-19 2.484-5.457 4.777-10.961 8.089-15.929 1.801-2.828 5.114-4.778 8.524-4.532 2.242.196 4.238 1.364 6.14 2.434 2.875 1.805 5.797 3.41 8.575 5.313 5.797 4.285 10.765 9.546 15.445 15.003 2.34 2.778 4.578 5.899 5.164 9.598.684 3.606.535 7.359-.195 10.965-.633 2.336-1.852 4.48-3.02 6.574-4.433-.34-9.062.488-12.816 2.875-.922.781-1.168 2.047-2.192 2.731-1.265.535-2.777-.489-3.945.39-1.07.633-2.242-.148-3.215-.636-1.609-.731-3.656-.778-5.164.292-1.023.442-2.293.442-2.972 1.415 0 1.218-1.168 2.437-2.34 1.707-1.559-.098-2.875.925-3.996 1.949-.582.484-1.411 1.312-2.289.828m-6.774-2.828c-1.41.293-.824-2.727.195-1.414.293.343.926 2.097-.195 1.414m7.942-.242c-1.024-.246-1.071-2.243.097-2.196 1.172.098 1.465 2.438.098 2.293a.4.4 0 0 1-.195-.097m.05-.149c-1.461-.195 0-2.824.731-1.312.34.484.144 1.898-.731 1.312m-8.281-.097c-1.414-.485 1.168-1.801.777-.243-.046.391-.582.684-.777.243m35.176-.34c-.731-.535-2.34-.633-2.438-1.512 1.364-.34 2.778 0 4.141-.387 2.484-.586 4.824-1.804 7.359-2.293.68-.293-1.121-.047-1.414.051-3.019.535-5.75 2.145-8.867 2.191-.828.391-2.824 0-2.094-1.218 1.024-1.461 2.778-2.145 4.383-2.727 3.117-.976 6.383-1.461 9.598-1.121 1.902.195 3.754.731 5.41 1.656-.828.977-2.34.196-3.219 1.024-3.457 1.558-6.527 4.191-10.426 4.629-.828.047-1.656 0-2.433-.293m-35.711-3.801c-.344-.926-1.512-2.242-.442-3.07 1.075-.289 1.903 1.218 1.415 2.046.195-.777-.684-2.335-1.512-1.46-.535 1.167.73 1.996 1.269 2.824-.246.051-.539-.098-.73-.34m12.762-3.266c-1.024-.386-.536-2.676.632-1.945.879.437.735 2.629-.437 2.141l-.098-.094zm.343.149c-1.218-.047-.586-2.68.438-1.657.437.489.535 1.801-.438 1.657m7.891-1.071c.684-1.367-1.754-.832-1.316-.539-.047-1.265 2.293-.632 1.461.489 0 .097-.145.339-.145.05m8.918-.246c-1.27-.39-.148-2.922.875-1.703.391.289.34 1.559.293 1.461.633-.926-1.512-2.094-1.512-.73-.144.144.977 1.41.344.972m7.891-1.558c.246-.34 1.609-1.024.781-.098-.246.148-.535.195-.781.098m-33.52-.875c.731-.926-1.656-1.512-1.219-.344-1.121-1.219 2.098-1.363 1.27.098 0 .05.047.586-.051.246m33.617-.051c-.875-.777-1.07-2.484 0-3.168 1.219.051 1.512 1.656 1.024 2.535-.196.391-.586.828-1.024.633m-.34-.684c-.976-.777.489-2.871 1.266-1.507.438.679-.047 2.339-1.07 1.8a.9.9 0 0 1-.196-.293m7.305-2.093c-1.168-.731.93-2.825 1.219-1.219-.145.633-.535-.973-1.07-.242-.34.437-.293 1.265-.149 1.461m-37.902-2.047c-.731-.828 1.316.246.293.195-.098 0-.196-.098-.293-.195m-10.477-.293c-.437-.973 1.949-.973 1.024-2.094-.145-.828-1.559-.684-1.461.148-.633-.925 1.172-1.464 1.511-.488.829.926-.683 1.852-.437 2.485.437.632-.488.097-.637-.051m10.477-.582c-.875-.586-.586-2.535.633-2.438.925.344.925 1.707.39 2.387-.195.293-.781.488-1.023.051m0-.196c-.828-.535-.145-2.046.777-1.851.781.437.488 2.289-.484 2.094-.098-.047-.196-.145-.293-.243m20.023-.097c-1.312-.438 0-2.824.977-1.707.73.636.047 2.73-.977 1.707m.098-.149c-1.461-.633 1.172-2.336 1.023-.633.149.54-.679 1.512-1.023.633m-9.938-.535c-.586-.828-1.707-2.387-.535-3.117.973-.242 1.41 1.363 1.266 1.754.34-1.121-1.852-1.949-1.512-.438 0 .684 1.219 1.508.977 1.801zm23.336-1.754c.293-.242.926-1.754.879-.633-.148.34-.488.633-.879.633m-.484-1.168c-1.027-.633-1.707-2.144-1.027-3.265.976-.633 2 .586 2.046 1.464.098.583-.144.829-.144.094 0-1.265-2.145-1.703-1.949-.144.097.925.879 1.754 1.851 1.754-.195.195-.586.339-.777.097m6.086-4.433c.051-.391 1.269-1.071.73-.243-.144.196-.484.387-.73.243m-46.625-.391c-.973-.586.879-2.047 1.172-1.023-.684-.875-1.317.39-1.172 1.023m24.07-.144c-1.023-.34-.637-2.34.485-2.094 1.023.34 1.074 2.484-.196 2.289l-.144-.051zm.195 0c-1.464-.247.094-2.778.731-1.266.293.484.098 1.945-.731 1.266m21.875-.684c-.781-.68-.828-2.434.34-2.629 1.219.289 1.461 2.387.293 2.871a.63.63 0 0 1-.633-.242m.145-.047c-1.266-.441-.195-3.023.879-1.754.437.633.242 2.289-.879 1.754m-38.828-1.414c.289-1.266-1.61-.293-1.461-.098-.149-1.363 2.387-.875 1.652.391-.144.144-.191-.195-.191-.293m25.137.195c-.098-.586 1.023-1.511.488-.39-.145.144-.293.293-.488.39m-1.071-1.265c-1.07-.391-1.265-2.778.196-2.489 1.07.293 1.656 2.145.535 2.731-.293.098-.586-.051-.731-.242m.047-.246c-1.41-.243-.289-2.875.781-1.606.633.535.34 2.582-.781 1.606m-16.66-.243c-.535-.781-1.219-2.093-.293-2.921.684-.344 1.512 1.507.586.437-1.27-.148-1.172 1.605-.195 2.047.242.191.679.973 0 .535zm-12.766-3.363c-.293-.973 1.317.781.098.051-.047 0-.047-.051-.098-.051m.196-.73c-.828-.731-.977-2.336.047-2.969 1.171-.051 1.558 1.508 1.121 2.387-.196.437-.68 1.019-1.168.582m.195.05c-.828-.539-1.023-2.242.098-2.484.972.098 1.07 1.461.586 2.141a.86.86 0 0 1-.684.343m36.055-1.851c.242-.293.922-1.805.972-.731-.144.387-.488.778-.972.731m-.977-1.559c-.777-.73-1.168-2.242-.195-2.972 1.07-.196 1.754 1.023 1.804 1.996.243.828-1.023 2.097-1.609.976m.145-.051c-1.118-.488-.828-3.117.636-2.242.875.489.973 2.684-.343 2.489l-.145-.098zm-11.887-2.679c-1.219-.34-.828-2.973.535-2.047.684.488.731 2.484-.535 2.047m-18.707-.242c-.879-.586-.344-2.582.875-2.145.828.586.437 2.68-.777 2.242-.051 0-.098-.051-.098-.097m18.707.046c-1.512-.292.195-2.875.781-1.218.242.488 0 1.804-.781 1.218m-18.609-.046c-1.219-.586.535-2.829.972-1.317.149.586-.242 1.656-.972 1.317m11.007-.536c-1.312-.441-.191-3.07.782-1.804.339.633.046.488-.243.097-1.511-.339-1.074 2.387.34 1.754.438.243-1.023.438-.879-.047m7.36-6.285c1.121-.781-1.074-2.828-1.219-1.316.098.34.488 1.363-.195.683-.731-.976 1.023-2.292 1.511-1.023.243.484.536 1.313-.097 1.656m-13.739-1.804c-1.171-.34-.539-2.778.633-1.95.926.489.633 2.926-.633 1.95m.243.148c-1.364-.195-.196-2.875.632-1.465.293.539.293 1.805-.632 1.465m5.894-4.144c-1.265-.387-.39-2.922.731-1.95.246.344.632 1.465.246.489-.828-.829-2 .586-.977 1.218.149.098.344.586 0 .243"/><path fill="#ffc13f" d="M117.988 167.188c-1.511-.34.535-2.583.782-.875.195.488-.196 1.609-.782.875m-8.625-.29c-.535-1.269 1.95-.05.684.387-.242-.047-.488-.195-.684-.387m-.242-4.726c-1.168-.149-.437-2.484.535-1.656.535.437.489 2.238-.535 1.656m13.008-2.438c-1.512-.242.437-2.679.781-1.023.195.488-.097 1.754-.781 1.023m7.16-.242c-1.461-.539 1.074-2.387.781-.633 0 .387-.39 1.071-.781.633m-24.941-.683c-1.121-.633 1.168-1.61.679-.34.051.39-.582.926-.679.34m34.836-.293c-1.414-.582.972-2.485.972-.731.145.488-.488 1.512-.972.731m-26.606-2.047c-1.312-.289.735-2.141.735-.731.339.442-.442 1.61-.735.731m34.301-.778c-.633-.586-.34-2.242.633-2.093 1.023.386.586 2.531-.582 2.093zm7.309-2.386c-1.219-.879 1.609-1.852.875-.391-.094.34-.583.875-.875.391m-48.184-2.875c-1.316-.149-.344-2.828.535-1.512.242.535.145 1.461-.535 1.512m10.133-.149c-.926-.535.195-2.386.972-1.605.489.586-.046 2.289-.972 1.605m20.172-.34c-1.461-.679 1.265-2.144.925-.437.094.484-.73 1.316-.925.437m-10.329-1.511c-1.511-.289.485-2.727.778-1.024.195.489-.098 1.754-.778 1.024m22.848-2.387c-1.023-.484-.73-3.02.633-2.094.828.535.879 2.485-.391 2.289l-.093-.047zm-39.851-3.945c-1.172-.684 1.168-2.192.925-.586.047.441-.586 1.218-.925.586m23.871-.684c-1.461-.34.632-2.531.828-.926.293.489-.242 1.805-.828.926m22.312-.437c-.824-.293-.926-1.997.051-2.145.973.098 1.07 2.145-.051 2.145m-39.996-.731c-1.316-.73 1.266-2.144.875-.586.051.442-.586 1.219-.875.586m25.188-2.047c-.973-.144-.926-1.801 0-1.949.925.098 1.363 1.902.339 2.098a.44.44 0 0 1-.339-.149m-16.957-1.265c-1.461-.438.781-2.438.878-.829.196.489-.39 1.61-.878.829m-12.469-3.461c-1.172-.582.094-2.969.972-1.657.391.633 0 2.243-.972 1.657m35.465-3.164c-1.118-.489-.582-3.071.683-2.047.828.535.828 2.535-.437 2.242l-.098-.098zm-30.45-2.926c-1.312-.535.731-2.727.926-1.07.047.488-.293 1.363-.926 1.07m18.465-.047c-1.461-.488.926-2.387.926-.781.195.488-.437 1.558-.926.781m-7.113-.293c-1.508-.098-.145-2.922.488-1.219.196.438.145 1.219-.488 1.219m6.141-6.867c-1.461-.735 1.218-2.196 1.023-.539.195.633-.781 1.414-1.023.539m-12.817-1.465c-1.508-.34.684-2.531.832-.875.145.437-.344 1.703-.832.875m6.192-4.043c-1.512-.438.777-2.484.875-.828.144.437-.391 1.609-.875.828"/><path fill="#247040" d="M204.914 193.645c-.633.293-1.121-.438-.879-.973.246-.734.926-.051 1.414-.149.731.047 1.61-.097 2.242.438.582.535-.488 1.074-1.023.977-.586-.051-1.172-.247-1.754-.293m2.777-.684c-.73-.484-2.535-.195-3.265-.68-.488-.441.293-1.316.39-1.804.293-.68.387-1.461.243-2.192-.243-1.609-1.071-3.019-1.754-4.484-1.703-3.653-3.653-7.16-5.262-10.91 1.023-.391 1.996.289 2.973.582.781.195 1.023 1.074 1.218 1.754.145.73.293 1.414.68 2.046 1.465 3.266 3.168 6.43 4.629 9.696.586 1.656.926 3.41.879 5.117.391 1.316-.344 1.121-.731.875m-23.289-13.785c-1.511-.391-3.168-.539-4.433-1.512 2.824-.437 5.359-2.047 7.211-4.191 1.023-1.461 1.754-3.215 3.261-4.239.782-.582 1.707-1.023 2.68-1.07.637 0 1.024.535 1.563.828.921.684 1.117 1.996 2.093 2.629.536 1.121.098 2.438-.488 3.461-.684 1.168-1.656 2.387-2.777 3.117-2.532 1.512-5.699 1.461-8.528 1.074-.195-.05-.386-.05-.582-.097m24.848-2.973c-2.828-1.902-6.238-2.582-9.453-3.605-1.024-.293-1.996-.731-2.824-1.461-1.219-1.024-2.094-2.68-1.754-4.336.242-.977 1.219-1.852 2.242-1.512.535.047 1.07.684 1.266.047.195-.484.339-1.168 1.023-1.168 2.531-.242 5.066.828 6.82 2.633a8.36 8.36 0 0 1 2.485 4.918c.34 1.558.484 3.121.586 4.679-.102.196-.344-.05-.391-.195m-25.094-1.754c-2.726-.828-5.699-1.414-8.574-.976-.242.828-1.559-.047-.582-.387 1.219-1.66 3.066-2.731 4.922-3.461 1.652 0 3.117.777 4.676 1.07.73.442 1.898.344 2.726.633.731.344-.484 1.512-.73 1.949-.438.539-.828.977-1.508 1.219-.297.098-.637.149-.93-.047m28.992-.586c-1.218-.293-2.582-.535-3.363-1.605-.293-.488-.437-1.121-.437-1.707 0-.781.925 0 1.023-.047-.441-.539-.976-.93-1.465-1.414-.535-1.024-1.168-2.145-2.191-2.731-.485-.535 0-1.265.633-1.363.586-.195 1.172.051 1.754.145 3.265.586 5.894 2.925 9.16 3.605.535-.34 1.172.195 1.218.734.149.583-.144 1.118-.632 1.461-.586.633-1.075 1.364-1.801 1.899-1.121.828-2.535 1.316-3.899 1.023m16.172-.683c-2.238-1.754-5.164-2.387-7.941-2.434-.484-.098-1.168.195-1.363-.391-.196-.632.339-1.265.05-1.851-.39-.391-1.023-.195-1.558-.293-.442.098-.684-.535-.149-.391.293.102 1.024 0 .438-.289-.484-.39.539-.246.781-.488 1.266-.438 2.485-1.07 3.848-1.414 1.558.098 2.828 1.219 4.047 2.144 1.507 1.461 2.582 3.653 2.238 5.797-.195 0-.195-.34-.391-.39m-14.468-6.43c-.68-.535-1.657-.488-2.289-1.168-.586-.586 1.023-.246.73-.633-.879.387-.879.387-1.703-.293-.637-.976.34-1.511.68-1.851 1.168-1.075 2.679-1.61 4.093-2.094 3.41-.977 7.063-1.465 10.571-.781 1.414.293 2.777.781 3.996 1.461-.684.781-1.801.437-2.68.73-.488.242-1.023.586-1.605.828-2.731 1.414-5.364 3.313-8.481 3.949-1.07.243-2.238.243-3.312-.148"/><path fill="#d1242b" d="M176.41 166.945c-1.801-1.898-2.969-4.289-3.894-6.675-1.368-3.993-1.61-8.282-1.317-12.473.489-4.871 1.996-9.598 3.899-14.078 1.949-4.336 3.847-8.672 5.941-12.91 1.316-2.68 2.633-5.313 4.387-7.7 1.851-2.386 4.676-4.191 7.793-4.043 2.144 0 4.094 1.071 5.894 2.145 2.875 1.605 5.653 3.359 8.528 5.066 6.918 5.016 12.765 11.399 18.078 18.024 1.652 2.195 2.922 4.726 3.261 7.504.536 3.508.489 7.113-.242 10.621-.535 2.047-1.609 3.898-2.535 5.75-.777 1.265-2.238.683-3.457.73-3.363.196-6.773 1.024-9.695 2.778-.879.73-1.317 1.8-2 2.679-1.266.926-2.973-.34-4.238.586-1.071.582-2.336-.097-3.262-.636-1.656-.731-3.703-.731-5.215.292-1.023.391-2.289.536-3.02 1.512.196 1.121-1.074 2.192-2.144 1.703-.977-.289-2.047.344-2.875.879-.926.535-1.609 1.61-2.68 1.949-3.554-.293-8.816-2.046-11.207-3.703"/><path d="M204.57 194.133c-1.265.047-2.093-1.805-.777-2.391 1.266-1.363.973-3.41.437-5.015-.828-2.633-2.386-4.872-3.605-7.309-.926-1.805-1.898-3.656-2.629-5.508-1.269.195-.926 1.805-1.707 2.488-1.898 2.434-5.019 3.653-8.086 3.75-3.117.098-6.238-.535-8.965-2.046.145-1.122 1.461-.829 2.242-1.122.778-.679 2.141-.632 2.727-1.605-.391-.879-1.559-.73-2.34-.926-1.558-.246-3.117-.73-4.722-.633a5.17 5.17 0 0 0-3.317 1.215c-1.023-.144.293-1.312.535-1.801 1.219-1.558 2.731-3.07 4.629-3.75-.73-1.316-2.531-1.511-3.312-2.777-3.266-3.363-4.825-7.992-5.309-12.57-.828-7.457 1.168-14.957 4.336-21.684 2.633-5.457 5.359-10.91 7.988-16.367 1.461-2.68 3.121-5.508 5.946-6.918 2.679-1.316 6.089-1.219 8.672.387 3.46 1.754 6.722 3.703 10.035 5.652 7.648 5.117 13.886 12.035 19.297 19.442 1.847 2.824 2.824 6.187 3.308 9.546.586 4.778-.289 9.793-2.871 13.887-.828 1.363 1.168 1.754 2.145 1.996.875.344 2.968.781 2.289 2.047-1.024.633-2.34.242-3.364.828-1.316.535-2.484 1.317-3.703 1.949.246 1.122 1.559 1.024 2.34 1.61 1.656 1.508 3.215 3.41 3.508 5.699.391.828-.051 2.438-1.168 1.852-.488-.879-1.465-1.266-2.34-1.559-2.289-.926-4.773-1.023-7.16-1.414-1.316 1.363-2.633 2.973-4.633 3.215-1.605.344-3.457 0-4.723-1.121-1.074.636-.195 1.902-.148 2.777.195.684-.484 1.754-1.023.781-1.215-1.121-2.872-1.461-4.336-2.093-.731-.149-1.606-.829-2.239-.196-.293 1.024.485 1.899.731 2.778 1.801 4.382 4.578 8.378 5.406 13.054.195 1.024.586 2.145.149 3.121-.586 1.071-2 1.118-3.071.973-.39-.051-.781-.145-1.172-.242m.293-.391c-1.218.488-1.121-2.047.098-1.121.926.098 2.535-.195 2.973.731-.489 1.218-2.145.437-3.071.39m2.34-1.219c-.781-.535-2.484.391-2.68-.875.149-.878.68-1.707.586-2.632-.05-1.559-.683-3.02-1.269-4.434-1.754-3.945-4.09-7.602-5.797-11.598 1.172-.386 2.289.442 3.41.782.977 1.023.731 2.582 1.512 3.703 1.707 3.945 4.094 7.601 5.211 11.84.195 1.07.246 2.191.246 3.312-.442 0-.828.051-1.219-.098m-22.801-13.25c-1.414-.39-3.019-.39-4.14-1.414 1.703-.535 3.457-1.074 4.824-2.339 2.191-1.801 3.457-4.532 5.648-6.332.731-.586 1.61-1.024 2.536-1.122.73 1.168-1.461 1.266-1.657 2.289-1.121 1.461-1.707 3.215-2.73 4.727 1.609-1.172 1.902-3.363 3.363-4.727.633-.632 1.414-1.609 2.438-1.218 1.019.73 1.41 2 2.191 2.926.535 1.167-.246 2.386-.781 3.41-1.215 2.093-3.508 3.554-5.942 3.847-1.902.293-3.851.243-5.75-.047m24.848-2.972c-3.215-2.242-7.211-2.731-10.77-4.145-1.753-.777-3.457-2.386-3.312-4.429 0-1.122.73-2.391 1.902-2.489 1.313.149 1.657 1.707 2.532 2.438 1.851 1.656 4.336 2.34 6.336 3.801.73.339-.586-.782-.829-.879-1.558-1.024-3.41-1.606-4.824-2.825a6.1 6.1 0 0 1-1.805-2.046c.54-.489.293-1.61 1.415-1.461 1.949-.243 3.898.535 5.503 1.605 1.661 1.121 2.926 2.875 3.415 4.875.484 1.656.535 3.41.921 5.113.051.293-.144.684-.484.442m-25.094-1.852c-2.726-.828-5.648-1.316-8.523-.879-.242.977-1.754-.242-.633-.484 1.363-1.512 3.117-2.684 5.016-3.461 1.902.488 3.8 1.219 5.75 1.363-.145 1.075-1.703.246-2.485.489-1.218 0-2.437 0-3.652.097 2.141.391 4.383.196 6.574.098.684-.879 1.805.73.637.973-.539.925-1.367 2.484-2.684 1.804m28.992-.488c-1.269-.293-2.828-.586-3.507-1.852-.196-.586-.782-2.386.437-1.656 1.996 1.266 4.629 1.266 6.82.34-1.363 0-2.628.586-3.945.344-1.512-.196-3.117-.782-4.047-2.047-.535-1.024-1.168-2.047-2.191-2.68-.777-1.172 1.074-1.656 1.902-1.269 3.508.441 6.235 3.023 9.645 3.703 1.074-.535 1.609 1.172.976 1.851-.683.489-1.121 1.317-1.754 1.852-1.171 1.023-2.777 1.754-4.336 1.414m16.172-.684c-2.484-1.996-5.797-2.531-8.914-2.433-1.168-.442.633-2.387-.879-2.485-.437-.097-1.8.098-1.461-.437 2.68 0 5.313.34 7.844 1.168-1.851-1.461-4.336-1.461-6.527-1.363-.633.289-1.219-.442-.293-.442 1.461-.437 2.824-1.168 4.336-1.558 1.558.097 2.828 1.218 3.996 2.144 1.558 1.461 2.633 3.606 2.289 5.797-.195 0-.195-.34-.391-.391m-42.582-2.773c-3.75-.539-7.597-1.512-10.715-3.754-1.074-1.219-1.66-2.727-2.582-4.043-2.293-4.336-2.437-9.402-2.293-14.18.391-6.672 2.973-13.007 5.801-19 2.485-5.457 4.774-10.961 8.086-15.929 1.805-2.828 5.117-4.778 8.528-4.532 2.238.196 4.238 1.364 6.136 2.434 2.875 1.805 5.797 3.41 8.574 5.313 5.801 4.285 10.77 9.546 15.446 15.003 2.34 2.778 4.582 5.899 5.164 9.598.683 3.606.539 7.359-.195 10.965-.633 2.336-1.852 4.48-3.02 6.574-4.434-.34-9.063.488-12.813 2.875-.925.781-1.171 2.047-2.195 2.731-1.265.535-2.773-.489-3.945.39-1.07.633-2.238-.148-3.215-.636-1.605-.731-3.652-.778-5.164.292-1.023.442-2.289.442-2.973 1.415 0 1.218-1.168 2.437-2.34 1.707-1.558-.098-2.871.925-3.992 1.949-.586.484-1.414 1.312-2.293.828m-6.769-2.828c-1.414.293-.828-2.727.195-1.414.289.343.926 2.097-.195 1.414m7.941-.242c-1.023-.246-1.07-2.243.098-2.196 1.168.098 1.461 2.438.097 2.293a.4.4 0 0 1-.195-.097m.047-.149c-1.461-.195 0-2.824.731-1.312.343.484.148 1.898-.731 1.312m-8.281-.097c-1.414-.485 1.168-1.801.777-.243-.047.391-.582.684-.777.243m35.176-.34c-.731-.535-2.34-.633-2.438-1.512 1.367-.34 2.777 0 4.145-.387 2.484-.586 4.82-1.804 7.355-2.293.684-.293-1.121-.047-1.414.051-3.02.535-5.746 2.145-8.867 2.191-.828.391-2.824 0-2.094-1.218 1.024-1.461 2.777-2.145 4.387-2.727 3.117-.976 6.379-1.461 9.597-1.121 1.899.195 3.75.731 5.407 1.656-.828.977-2.34.196-3.215 1.024-3.461 1.558-6.527 4.191-10.426 4.629-.828.047-1.656 0-2.437-.293m-35.711-3.801c-.34-.926-1.512-2.242-.438-3.07 1.07-.289 1.899 1.218 1.41 2.046.196-.777-.679-2.335-1.508-1.46-.539 1.167.731 1.996 1.266 2.824-.242.051-.535-.098-.73-.34m12.765-3.266c-1.023-.386-.539-2.676.633-1.945.875.437.731 2.629-.437 2.141l-.098-.094zm.34.149c-1.219-.047-.586-2.68.438-1.657.437.489.535 1.801-.438 1.657m7.891-1.071c.683-1.367-1.754-.832-1.313-.539-.051-1.265 2.289-.632 1.461.489 0 .097-.148.339-.148.05m8.918-.246c-1.266-.39-.149-2.922.875-1.703.39.289.343 1.559.293 1.461.632-.926-1.508-2.094-1.508-.73-.149.144.973 1.41.34.972m7.89-1.558c.246-.34 1.61-1.024.782-.098-.243.148-.536.195-.782.098m-33.519-.875c.73-.926-1.656-1.512-1.215-.344-1.121-1.219 2.094-1.363 1.266.098 0 .05.046.586-.051.246m33.621-.051c-.879-.777-1.074-2.484 0-3.168 1.215.051 1.508 1.656 1.019 2.535-.195.391-.582.828-1.019.633m-.344-.684c-.973-.777.488-2.871 1.266-1.507.441.679-.047 2.339-1.071 1.8a1 1 0 0 1-.195-.293m7.309-2.093c-1.168-.731.926-2.825 1.218-1.219-.148.633-.535-.973-1.074-.242-.34.437-.293 1.265-.144 1.461m-37.907-2.047c-.73-.828 1.317.246.293.195-.097 0-.195-.098-.293-.195m-10.472-.293c-.438-.973 1.949-.973 1.023-2.094-.148-.828-1.558-.684-1.461.148-.636-.925 1.168-1.464 1.508-.488.828.926-.68 1.852-.437 2.485.437.632-.489.097-.633-.051m10.472-.582c-.875-.586-.582-2.535.633-2.438.926.344.926 1.707.391 2.387-.195.293-.777.488-1.024.051m0-.196c-.828-.535-.144-2.046.782-1.851.777.437.488 2.289-.489 2.094-.097-.047-.195-.145-.293-.243m20.028-.097c-1.317-.438 0-2.824.972-1.707.731.636.047 2.73-.972 1.707m.097-.149c-1.464-.633 1.168-2.336 1.024-.633.144.54-.684 1.512-1.024.633m-9.941-.535c-.586-.828-1.703-2.387-.535-3.117.973-.242 1.41 1.363 1.266 1.754.339-1.121-1.852-1.949-1.508-.438 0 .684 1.215 1.508.972 1.801zm23.34-1.754c.289-.242.922-1.754.875-.633-.149.34-.488.633-.875.633m-.488-1.168c-1.024-.633-1.707-2.144-1.024-3.265.973-.633 1.996.586 2.047 1.464.098.583-.148.829-.148.094 0-1.265-2.145-1.703-1.95-.144.098.925.879 1.754 1.852 1.754-.195.195-.582.339-.777.097m6.089-4.433c.047-.391 1.266-1.071.731-.243-.148.196-.488.387-.731.243m-46.625-.391c-.976-.586.875-2.047 1.168-1.023-.683-.875-1.316.39-1.168 1.023m24.067-.144c-1.024-.34-.633-2.34.488-2.094 1.024.34 1.07 2.484-.195 2.289l-.149-.051zm.195 0c-1.461-.247.098-2.778.731-1.266.293.484.097 1.945-.731 1.266m21.875-.684c-.777-.68-.828-2.434.34-2.629 1.219.289 1.465 2.387.293 2.871a.63.63 0 0 1-.633-.242m.145-.047c-1.266-.441-.192-3.023.879-1.754.437.633.242 2.289-.879 1.754m-38.828-1.414c.293-1.266-1.61-.293-1.461-.098-.149-1.363 2.386-.875 1.656.391-.149.144-.195-.195-.195-.293m25.14.195c-.097-.586 1.024-1.511.485-.39-.145.144-.289.293-.485.39m-1.074-1.265c-1.07-.391-1.266-2.778.195-2.489 1.075.293 1.657 2.145.535 2.731-.289.098-.582-.051-.73-.242m.051-.246c-1.414-.243-.293-2.875.777-1.606.637.535.344 2.582-.777 1.606m-16.664-.243c-.535-.781-1.215-2.093-.293-2.921.683-.344 1.511 1.507.586.437-1.266-.148-1.168 1.605-.196 2.047.246.191.684.973 0 .535zm-12.766-3.363c-.293-.973 1.317.781.098.051-.047 0-.047-.051-.098-.051m.195-.73c-.828-.731-.972-2.336.051-2.969 1.168-.051 1.559 1.508 1.121 2.387-.195.437-.683 1.019-1.172.582m.196.05c-.828-.539-1.024-2.242.097-2.484.977.098 1.075 1.461.586 2.141a.86.86 0 0 1-.683.343m36.054-1.851c.243-.293.926-1.805.973-.731-.144.387-.484.778-.973.731m-.976-1.559c-.777-.73-1.168-2.242-.195-2.972 1.074-.196 1.753 1.023 1.804 1.996.242.828-1.023 2.097-1.609.976m.148-.051c-1.121-.488-.828-3.117.633-2.242.875.489.973 2.684-.34 2.489l-.148-.098zm-11.886-2.679c-1.219-.34-.832-2.973.535-2.047.679.488.73 2.484-.535 2.047m-18.711-.242c-.875-.586-.34-2.582.879-2.145.828.586.437 2.68-.782 2.242-.047 0-.097-.051-.097-.097m18.711.046c-1.512-.292.195-2.875.777-1.218.242.488 0 1.804-.777 1.218m-18.614-.046c-1.218-.586.535-2.829.977-1.317.144.586-.246 1.656-.977 1.317m11.012-.536c-1.316-.441-.195-3.07.777-1.804.344.633.051.488-.242.097-1.512-.339-1.07 2.387.34 1.754.441.243-1.023.438-.875-.047m7.355-6.285c1.122-.781-1.07-2.828-1.218-1.316.097.34.488 1.363-.196.683-.73-.976 1.024-2.292 1.512-1.023.242.484.535 1.313-.098 1.656m-13.738-1.804c-1.168-.34-.535-2.778.633-1.95.926.489.633 2.926-.633 1.95m.242.148c-1.363-.195-.195-2.875.633-1.465.293.539.293 1.805-.633 1.465m5.895-4.144c-1.266-.387-.387-2.922.73-1.95.246.344.637 1.465.246.489-.828-.829-2 .586-.976 1.218.148.098.344.586 0 .243"/><path fill="#ffc13f" d="M187.957 167.188c-1.508-.34.535-2.583.781-.875.196.488-.195 1.609-.781.875m-8.621-.29c-.535-1.269 1.949-.05.68.387-.243-.047-.485-.195-.68-.387m-.246-4.726c-1.168-.149-.438-2.484.539-1.656.535.437.484 2.238-.539 1.656m13.012-2.438c-1.512-.242.437-2.679.777-1.023.195.488-.098 1.754-.777 1.023m7.16-.242c-1.461-.539 1.07-2.387.777-.633 0 .387-.387 1.071-.777.633m-24.946-.683c-1.121-.633 1.168-1.61.684-.34.047.39-.586.926-.684.34m34.836-.293c-1.414-.582.973-2.485.973-.731.148.488-.484 1.512-.973.731m-26.601-2.047c-1.317-.289.73-2.141.73-.731.34.442-.437 1.61-.73.731m34.301-.778c-.637-.586-.344-2.242.632-2.093 1.024.386.582 2.531-.586 2.093zm7.304-2.386c-1.215-.879 1.61-1.852.879-.391-.097.34-.586.875-.879.391m-48.183-2.875c-1.317-.149-.34-2.828.535-1.512.246.535.148 1.461-.535 1.512m10.132-.149c-.925-.535.196-2.386.977-1.605.488.586-.051 2.289-.977 1.605m20.172-.34c-1.461-.679 1.266-2.144.926-.437.098.484-.73 1.316-.926.437m-10.328-1.511c-1.511-.289.489-2.727.778-1.024.195.489-.098 1.754-.778 1.024m22.848-2.387c-1.024-.484-.731-3.02.637-2.094.828.535.875 2.485-.391 2.289l-.098-.047zm-39.852-3.945c-1.168-.684 1.168-2.192.926-.586.051.441-.586 1.218-.926.586m23.871-.684c-1.461-.34.637-2.531.829-.926.293.489-.243 1.805-.829.926m22.317-.437c-.828-.293-.926-1.997.047-2.145.976.098 1.074 2.145-.047 2.145m-40-.731c-1.317-.73 1.265-2.144.875-.586.051.442-.582 1.219-.875.586m25.187-2.047c-.972-.144-.925-1.801 0-1.949.926.098 1.364 1.902.34 2.098a.45.45 0 0 1-.34-.149m-16.953-1.265c-1.461-.438.778-2.438.875-.829.196.489-.387 1.61-.875.829m-12.472-3.461c-1.168-.582.097-2.969.972-1.657.391.633 0 2.243-.972 1.657m35.468-3.164c-1.121-.489-.586-3.071.684-2.047.824.535.824 2.535-.442 2.242l-.097-.098zm-30.453-2.926c-1.312-.535.735-2.727.93-1.07.047.488-.293 1.363-.93 1.07m18.469-.047c-1.465-.488.926-2.387.926-.781.191.488-.442 1.558-.926.781m-7.113-.293c-1.512-.098-.149-2.922.484-1.219.195.438.148 1.219-.484 1.219m6.136-6.867c-1.461-.735 1.219-2.196 1.024-.539.195.633-.781 1.414-1.024.539m-12.812-1.465c-1.512-.34.68-2.531.828-.875.145.437-.34 1.703-.828.875m6.187-4.043c-1.511-.438.778-2.484.875-.828.149.437-.386 1.609-.875.828"/></g><path fill="#bc9a16" d="M1 150.773c0-68.597 90.55-70.867 170.078-70.867 79.527 0 170.078 2.27 170.078 70.867 0-15.656-76.144-28.347-170.078-28.347C77.148 122.426 1 135.117 1 150.773"/><path fill="none" stroke="#000" stroke-linecap="round" stroke-linejoin="round" stroke-width="2" d="M1 150.773c0-68.597 90.55-70.867 170.078-70.867 79.527 0 170.078 2.27 170.078 70.867 0-15.656-76.144-28.347-170.078-28.347C77.148 122.426 1 135.117 1 150.773"/><path fill="#d3ae37" d="M902.57 71.871c0 15.656-76.148 28.348-170.078 28.348-93.933 0-170.082-12.692-170.082-28.348 0-15.652 76.149-28.344 170.082-28.344 93.93 0 170.078 12.692 170.078 28.344"/><path fill="none" stroke="#000" stroke-linecap="round" stroke-linejoin="round" stroke-width="2" d="M902.57 71.871c0 15.656-76.148 28.348-170.078 28.348-93.933 0-170.082-12.692-170.082-28.348 0-15.652 76.149-28.344 170.082-28.344 93.93 0 170.078 12.692 170.078 28.344M732.492 298.645 893.898 80.832M732.492 298.645 678.73 98.773m53.762 199.872L581.395 58.844m151.097 239.801v19.839"/><g fill-rule="evenodd"><path d="M695.582 117.414c-2.289-1.41-4.387-4.094-4.387-5.652 0-.922.828-2.239 2.582-4.09 1.414-1.512 3.121-3.801 3.754-5.117l1.121-2.387-1.367-2.73c-.777-1.508-1.898-4.383-2.484-6.43-6.379-20.754-12.91-28.356-35.223-40.828-6.969-3.848-9.402-5.75-11.012-8.282-1.511-2.535-1.511-5.117.149-7.504 4.773-7.062 24.066-6.187 40.094 1.805 11.742 5.797 20.316 14.13 24.75 24.02 5.066 11.156 6.285 22.8 3.363 31.715-1.121 3.41-4.531 8.476-6.676 9.89-1.461.977-1.949 1.754-2.68 4.531-1.363 5.016-4.187 10.329-5.992 11.254-1.996 1.024-4.094.977-5.992-.195m5.555-4.383c-.586-1.074-.442-1.66.972-4.433 2.192-4.336 4.532-11.84 5.555-17.785 4.387-25.774-14.664-49.985-43.312-55.004-2.485-.442-5.7-.782-7.114-.782-1.949 0-2.629-.242-3.019-1.023-.489-.926-.34-1.07 1.414-1.559 2.871-.828 11.351-.68 16.222.246 15.2 2.871 28.942 11.352 36.297 22.457 10.621 15.934 11.008 37.809.778 44.875-1.852 1.266-2.239 1.946-3.457 5.844-1.219 3.946-3.071 8.332-3.559 8.332-.047 0-.437-.535-.777-1.168m-4.094-2.777-1.703-.731 1.801-2.293c.925-1.265 2.144-3.359 2.629-4.675.925-2.336.925-2.336-.68-6.14-.828-2.095-2.289-6.188-3.215-9.013-3.656-11.449-7.066-17.343-13.738-24.02-5.168-5.163-8.625-7.6-19.344-13.788-8.625-4.918-11.645-6.965-12.035-8.04-.145-.34.73-1.605 1.902-2.87l2.141-2.243 4.094.34c12.035 1.024 24.019 6.14 32.546 13.985 6.965 6.43 11.497 13.785 13.883 22.558 1.367 5.016 1.656 16.465.539 21.094-1.754 7.164-4.093 13.059-6.14 15.445-.926 1.024-1.121 1.071-2.68.391"/><path fill="#f5a701" d="M698.359 118.535c.387-.144.829-.097 1.024.051.144.191-.149.289-.684.289-.633-.047-.73-.145-.34-.34m-5.41-2.875-1.508-1.703 1.704 1.508c.925.879 1.656 1.609 1.656 1.707 0 .391-.391.047-1.852-1.512m10.477.098c.195-.242.437-.488.586-.488.144 0 .097.246-.051.488-.195.293-.438.535-.582.535-.149 0-.149-.242.047-.535m-2.289-2.727c-.586-1.074-.442-1.66.972-4.433 2.192-4.336 4.532-11.84 5.555-17.785 4.387-25.774-14.664-49.985-43.312-55.004-2.485-.442-5.7-.782-7.114-.782-1.949 0-2.629-.242-3.019-1.023-.489-.926-.34-1.07 1.414-1.559 2.871-.828 11.351-.68 16.222.246 15.2 2.871 28.942 11.352 36.297 22.457 10.621 15.934 11.008 37.809.778 44.875-1.852 1.266-2.239 1.946-3.457 5.844-1.219 3.946-3.071 8.332-3.559 8.332-.047 0-.437-.535-.777-1.168m-.828-4.875c.972-1.605 2.14-4.09 2.629-5.504s.976-2.484 1.074-2.339c.633.585-3.754 9.746-4.969 10.527-.297.144.289-1.027 1.266-2.684m5.992 1.903c0-.391.144-.536.34-.34a.467.467 0 0 1 0 .679c-.196.196-.34.051-.34-.339m-10.672-.489c-.145-.242.148-.781.637-1.168.828-.632.828-.586.242.145-.586.73-.586.926 0 1.172.437.144.488.242.047.289-.34 0-.778-.145-.926-.438m-2.094-2.144c1.121-1.121 2.145-2.043 2.289-2.043.149 0-.679.922-1.801 2.043-1.121 1.172-2.144 2.097-2.289 2.097-.148 0 .68-.925 1.801-2.097m13.25 1.074c0-.391.195-.535.391-.344a.473.473 0 0 1 0 .684c-.196.195-.391.051-.391-.34m-9.109-2.098c.195-.293.437-.535.586-.535.144 0 .144.242-.047.535-.195.293-.442.539-.586.539-.149 0-.098-.246.047-.539m1.367-2.093c.727-1.61.973-1.899.973-1.219 0 .293-.34.976-.782 1.512-.777.972-.777.925-.191-.293m8.816.535c0-.391.145-.535.34-.34a.47.47 0 0 1 0 .684c-.195.195-.34.046-.34-.344m1.801-2.629c.195-.246.442-.488.586-.488.149 0 .149.242-.047.488-.195.293-.441.535-.586.535s-.097-.242.047-.535m-9.644-.488c0-.391.195-.536.39-.34a.58.58 0 0 1 0 .679c-.195.196-.39.051-.39-.339m.39-2.047c-.195-.875-.148-1.07.242-.684.293.293.438.832.34 1.223-.144.386-.386.144-.582-.54m3.895-.586c0-.438.195-1.363.441-2.094.34-1.023.391-1.07.438-.242 0 .586-.196 1.511-.438 2.094-.293.632-.441.73-.441.242m9.015-.485c.196-.293.438-.535.582-.535.149 0 .098.242-.046.535-.196.243-.438.485-.586.485-.145 0-.094-.242.05-.485m-13.984-1.367c-.535-1.265-.391-1.605.246-.582.289.535.438 1.07.289 1.219-.097.144-.387-.148-.535-.637M714.387 97c.148-.242.437-.484.535-.484.148 0 .148.242-.047.484-.145.293-.437.535-.586.535-.144 0-.098-.242.098-.535m-9.16-2.047c0-.387.195-.535.39-.34.149.145.149.489 0 .684-.195.191-.39.047-.39-.344m-9.887-1.07c0-.39.144-.535.34-.34a.47.47 0 0 1 0 .68c-.196.195-.34.05-.34-.34m2.629 0c0-.39.144-.535.34-.34a.47.47 0 0 1 0 .68c-.196.195-.34.05-.34-.34m7.894-1.559c0-.73.098-1.023.242-.633.145.34.145.926 0 1.313-.144.344-.242.05-.242-.68m-8.429 0c0-.39.144-.535.339-.343a.47.47 0 0 1 0 .683c-.195.195-.339.05-.339-.34m-.536-1.558c0-.391.145-.54.34-.344a.47.47 0 0 1 0 .684c-.195.195-.34.05-.34-.34m-3.121-1.559c0-.39.149-.539.344-.344s.195.489 0 .684-.344.047-.344-.34m2.633 0c0-.39.145-.539.34-.344s.195.489 0 .684-.34.047-.34-.34m10.086-4.434c0-2.875.047-3.949.195-2.437.094 1.512.094 3.848 0 5.21-.148 1.317-.195.102-.195-2.773m11.301 3.606c0-.586.148-.73.293-.293.148.34.148.828 0 .973-.195.195-.34-.145-.293-.68m-21.922-.73c0-.391.145-.54.34-.344s.195.488 0 .683-.34.047-.34-.34m-2.633-.54c0-.39.196-.535.391-.34a.595.595 0 0 1 0 .684c-.195.195-.391.047-.391-.344m2.145-1.316c.051-.633.144-.73.293-.34.195.39.144.828 0 1.024-.196.144-.293-.145-.293-.684m-2.629-.242c0-.39.144-.535.34-.34a.473.473 0 0 1 0 .683c-.196.192-.34.047-.34-.343m25.625-.778c0-.879.097-1.12.242-.632.148.484.148 1.215 0 1.558-.145.34-.242-.05-.242-.926m-24.067-1.804c0-.39.145-.535.34-.34.196.144.196.484 0 .68-.195.195-.34.05-.34-.34m-.539-1.559c0-.39.149-.535.344-.39.195.195.195.535 0 .73s-.344 0-.344-.34m-.972-2.387c-.828-1.902-.684-2.34.242-.585.441.828.73 1.558.586 1.706-.098.098-.488-.39-.828-1.12M718.383 78c0-.879.097-1.121.242-.633.148.485.148 1.219 0 1.559-.145.34-.242-.051-.242-.926m-12.52-.242c0-.73.098-1.024.242-.684.145.39.145.973 0 1.317-.144.34-.242.046-.242-.633m-16.226 0c0-.39.148-.54.343-.344a.48.48 0 0 1 0 .684c-.195.195-.343.046-.343-.34m15.64-2.926c.047-.586.145-.73.34-.293.149.344.098.828-.047.977-.195.195-.293-.149-.293-.684m-15.152-1.266c-.293-.585-.437-1.023-.293-1.023.148 0 .535.438.828 1.023s.438 1.07.293 1.07c-.144 0-.488-.484-.828-1.07m27.672.243c0-.633.148-.73.293-.34.148.39.148.828 0 1.023-.195.145-.34-.148-.293-.683m-13.008-1.07c0-.587.149-.731.293-.294.145.34.145.828-.051.973-.144.195-.289-.094-.242-.68m-16.027-1.317c-.196-.39-.098-.488.242-.242.34.195.633.484.633.586 0 .437-.489.242-.875-.344m15.441-.438c0-.39.149-.535.344-.34.195.145.195.485 0 .68s-.344.051-.344-.34m-19.047-.632c-.246-.344-.148-.442.196-.196.632.34.828.828.386.828-.144 0-.386-.293-.582-.632m2.582-.489c-.246-.39-.148-.488.242-.242.586.387.782.828.34.828-.093 0-.386-.293-.582-.586m-4.433-1.898c-.633-.828-.633-.828.195-.196.875.68 1.121 1.122.73 1.122-.144 0-.535-.391-.925-.926m2.582-.488c-.633-.829-.633-.88.195-.246.875.683 1.168 1.12.731 1.12-.098 0-.536-.386-.926-.874m17.101.097c-.539-1.316-.39-1.656.242-.586.293.489.438 1.024.293 1.168-.144.149-.39-.144-.535-.582m13.203-.242c0-.39.145-.539.34-.344a.47.47 0 0 1 0 .684c-.195.195-.34.047-.34-.34m-.539-1.562c0-.387.149-.536.344-.34s.195.488 0 .683c-.195.192-.344.047-.344-.344m-33.617-2.727-2.582-2.777 2.731 2.632c2.535 2.387 2.972 2.871 2.582 2.871-.098 0-1.317-1.265-2.731-2.726m18.762.098c-.195-.344-.246-.684-.102-.828.149-.149.391.097.539.535.387.925.094 1.12-.437.293m-24.024-1.61c-.195-.386-.093-.488.247-.242.339.195.632.488.632.582 0 .441-.488.246-.879-.34m22.95-.535c-.243-.39-.145-.488.242-.242.344.195.586.484.586.582 0 .441-.438.246-.828-.34m-25.285-1.363c-.633-.828-.633-.828.195-.196.875.68 1.168 1.122.73 1.122-.148 0-.535-.442-.925-.926m2.875-.781-.977-1.168 1.172.972c.633.586 1.168 1.075 1.168 1.172 0 .438-.438.145-1.363-.976m21.386.586c-.242-.391-.144-.489.196-.243.632.387.828.828.39.828-.148 0-.39-.246-.586-.586m-26.066-1.075c-.242-.34-.145-.437.246-.191.293.191.586.437.586.582 0 .441-.442.246-.832-.39m24.75-.828c-.68-.824-.633-.824.195-.191.828.68 1.121 1.12.684 1.12-.098 0-.489-.39-.879-.929m-26.309-.191c-.242-.39-.144-.442.246-.246.289.195.582.488.582.633 0 .44-.484.195-.828-.387m4.141 0c-.195-.39-.145-.442.246-.246.34.195.586.488.586.633 0 .44-.442.195-.832-.387m-2.043-1.563c-.246-.386-.149-.484.191-.242.344.195.633.488.633.633 0 .39-.484.195-.824-.39m19.535-3.457-3.363-3.508 3.508 3.36c1.949 1.855 3.558 3.46 3.558 3.558 0 .34-.535-.144-3.703-3.41m17.441 1.899c-.242-.387-.144-.485.247-.242.289.195.582.488.582.585 0 .438-.438.243-.829-.343m-44.824-.535c-.242-.391-.144-.438.246-.243.34.242.582.485.582.633 0 .438-.437.195-.828-.39m4.192-.196c-.973-.777-.973-.777.144-.242.684.293 1.172.68 1.172.781 0 .438-.242.29-1.316-.539m-2.582-1.558c-.973-.778-.973-.778.144-.243.637.293 1.172.68 1.172.778 0 .441-.293.293-1.316-.535m40.339-1.657c-.679-.828-.632-.875.196-.195.879.684 1.121 1.074.683 1.074-.097 0-.488-.39-.879-.879m-43.992-.437c-.976-.781-.976-.781.145-.246.633.293 1.168.683 1.168.828 0 .39-.242.246-1.313-.582m24.457-1.95-.976-1.167 1.172 1.02c1.07.925 1.41 1.366.972 1.366-.097 0-.633-.535-1.168-1.218m-28.113-.148c-.973-.777-.973-.777.148-.242.633.344 1.168.684 1.168.828 0 .39-.242.293-1.316-.586m26.02-1.363c-.196-.34-.149-.438.242-.195.34.195.586.441.586.586 0 .437-.442.246-.828-.391m-34.641-1.313c-.684-.832-.637-.879.191-.195.879.68 1.121 1.07.684 1.07-.098 0-.488-.39-.875-.875m4.434.29c-.247-.387-.149-.438.242-.243.293.196.586.489.586.633 0 .438-.442.195-.828-.39m28.648 0c-.246-.387-.148-.438.242-.243.34.196.582.489.582.633 0 .438-.437.195-.824-.39m-30.207-1.02c-.246-.39-.149-.488.242-.246.293.195.582.488.582.586 0 .437-.484.242-.824-.34m24.016-2.098c-2.29-1.12-3.602-1.898-2.875-1.703 1.558.438 7.308 3.262 7.308 3.606 0 .34.391.484-4.433-1.903m22.609 1.266c-.684-.828-.637-.875.191-.242.879.683 1.121 1.12.684 1.12-.098 0-.488-.39-.875-.878m-48.965-1.07-1.269-1.414 1.414 1.27c1.363 1.167 1.707 1.605 1.265 1.605-.094 0-.73-.68-1.41-1.461m-2.875.34c-.242-.387-.144-.485.242-.243.293.196.586.489.586.586 0 .438-.437.242-.828-.344m49.5-1.07c-.242-.392-.144-.438.242-.243.293.242.586.484.586.633 0 .437-.437.195-.828-.39m-25.578-1.802a.47.47 0 0 1 .684 0c.195.145.046.34-.344.34-.391 0-.535-.195-.34-.34m-20.219-.734c.145-.29.438-.484.582-.484.149 0 .098.195-.047.484-.195.293-.488.539-.586.539-.144 0-.144-.246.051-.539m18.66.195a.47.47 0 0 1 .684 0c.191.196.047.344-.344.344s-.535-.148-.34-.344m-1.851-.535c.39-.144.828-.144 1.023.05.145.145-.148.29-.683.243-.633 0-.731-.148-.34-.293m24.312-.242c-.246-.39-.148-.488.196-.246.339.195.632.488.632.633 0 .39-.488.195-.828-.387m-26.359-.293c.34-.145.828-.098.973.047.195.195-.145.293-.68.293-.586-.047-.731-.145-.293-.34m-2.094-.488c.387-.145.828-.145.973 0 .195.195-.098.343-.684.293-.582 0-.73-.145-.289-.293m-10.914-.875c.242-.246 1.703-.344 3.266-.246l2.773.148-3.215.29c-1.8.148-3.066.05-2.824-.192m7.5.34c.488-.149 1.219-.149 1.563 0 .339.144-.051.242-.926.242-.879 0-1.168-.098-.637-.242m-13.445-2.778c.195-.293.437-.535.586-.535.144 0 .144.242-.047.535-.195.293-.442.535-.586.535-.149 0-.098-.242.047-.535m33.812-1.363a.47.47 0 0 1 .684 0c.195.144.047.34-.344.34-.387 0-.535-.196-.34-.34m-1.558-.535c.144-.196.488-.196.683 0 .196.191.047.34-.343.34-.387 0-.536-.149-.34-.34m-29.621-.684c.144-.293.437-.535.582-.535.148 0 .097.242-.094.535-.149.242-.442.488-.586.488-.098 0-.098-.246.098-.488m28.011.145a.53.53 0 0 1 .731 0c.195.195 0 .343-.34.343-.391 0-.535-.148-.391-.343m-6.234-1.559a.47.47 0 0 1 .684 0c.195.195.046.344-.344.344-.391 0-.535-.149-.34-.344m-17.199-.535c.195-.195.535-.195.683 0 .196.195.047.34-.343.34-.387 0-.536-.145-.34-.34m14.324 0c.391-.145.828-.145 1.023.05.145.196-.144.29-.683.29-.633-.047-.731-.145-.34-.34m-11.254-.535c.535-.098 1.363-.098 1.852 0 .488.144.097.242-.926.242-.977 0-1.414-.098-.926-.242m6.039 0c.637-.098 1.563-.098 2.047 0 .535.144 0 .242-1.168.242-1.121 0-1.559-.098-.879-.242"/><path fill="#fcd900" d="m697.043 109.961-1.168-.586 1.852-2.484c.972-1.364 2.14-3.457 2.582-4.727.777-2.094.73-2.336-.442-4.871-.679-1.414-2.336-5.992-3.699-10.184-6.141-18.609-13.352-26.648-34.691-38.586-3.801-2.144-7.793-4.675-8.914-5.601l-2.047-1.754 2.093-2.098 2.145-2.14 4.531.34c8.332.632 19.684 4.578 26.453 9.257 3.703 2.532 9.989 8.672 12.477 12.18 2.871 4.14 5.601 9.988 6.816 14.86 1.465 5.75 1.367 18.124-.144 23.19-1.559 5.165-2.973 8.77-4.578 11.45-1.461 2.531-1.512 2.582-3.266 1.754"/><path fill="#88d055" d="M810.02 106.422c-.75-.621 1.328-.621.976-1.508 1.371-3.23 2.699-6.555 3.277-10.05 2.168-11.208-.578-23.298-7.531-32.38-6.996-9.566-17.629-16.609-29.363-18.558-10.719-1.86-22.016.664-31.227 6.379-2.304 1.418-4.472 3.011-6.554 4.738 6.465-7.309 15.898-11.559 25.468-12.621 13.997-1.594 28.7 2.965 38.977 12.668 6.996 6.554 11.824 15.5 12.797 25.066.844 7.707.047 15.813-3.453 22.766a22 22 0 0 1-2.524 3.855c-.355.133-.578-.222-.843-.355"/><path fill="#b9f88c" d="M809.801 106.156c-.934-.355-2.438-1.105-1.949-2.39 2.964-5.938 4.207-12.668 4.074-19.313-.18-6.246-1.641-12.621-5.141-17.894-4.07-6.243-10.23-10.985-17.094-13.774-9.832-4.254-21.039-5.668-31.492-3.054-6.511 1.636-12.801 4.78-17.273 9.921-.797.84-1.418 1.813-1.949 2.88-.399 1.238-1.727 1.28-2.657.484-1.375-.575-.843-2.125-.09-3.012 1.95-3.809 5.184-6.863 8.903-9.035 6.203-3.942 13.289-6.688 20.64-7.395 7.575-.843 15.372.399 22.278 3.63 12.094 5.491 21.836 16.3 25.512 29.144 2.613 9.39 1.55 19.62-2.524 28.433-.223.578-.488 1.375-1.238 1.375"/><path d="M808.867 108.461c-5.094-1.684-9.344-5.051-14.172-7.266-20.019-10.851-39.375-22.765-58.375-35.21-1.64-1.153-3.41-2.747-3.41-4.872.133-2.613 1.949-4.695 3.453-6.691 5.891-7.172 14.442-11.781 23.43-13.816 8.328-1.86 17.055-.977 25.246 1.152 9.481 2.566 18.473 7.75 24.762 15.367 7.75 9.48 11.336 22.191 9.699 34.328-.578 4.828-1.906 9.699-4.52 13.817-1.195 1.726-3.011 3.41-5.269 3.367-.266-.043-.574-.09-.844-.176m1.285-1.949c-.882-.664-2.523-.977-2.48-2.348.223-.844.797-1.594 1.062-2.437 4.079-9.743 4.297-21.172.223-30.961-2.437-5.625-6.687-10.364-11.738-13.774-8.192-5.625-18.203-8.281-28.078-8.37-7.973-.09-16.168 1.683-22.856 6.155-3.32 2.258-6.156 5.317-7.883 8.95-1.199.043-2.57-.532-2.968-1.73-.09-1.106.796-1.95 1.242-2.923 4.293-7.086 11.515-12.09 19.351-14.66 15.86-5.184 34.286-1.418 46.864 9.566 6.066 5.317 10.629 12.36 12.8 20.11 1.461 5.316 1.727 10.894 1.239 16.387-.532 4.87-1.86 9.746-4.43 13.996-.707.664-.797 2.125-1.949 2.215-.176.042-.266-.133-.399-.176m-4.781-2.793c-17.363-8.903-33.93-19.223-50.848-28.832-5.492-3.278-10.894-6.778-15.812-10.809 2.879-5.668 8.328-9.7 14.219-11.867 9.656-3.5 20.418-3.414 30.293-.754 7.754 2.082 15.195 5.977 20.465 12.09 3.32 3.898 5.226 8.77 6.156 13.777 1.461 7.438 1.418 15.41-1.285 22.586-.442 1.242-1.063 2.395-1.727 3.543-.312.488-1.019.754-1.461.266m-2.926-13.153c-1.238-.754-.043-2.968 1.285-2.527 1.063.445.844 1.996-.132 2.395-.356.175-.754.265-1.153.132m-10.273-10.675c-1.109-.442-.621-2.082.351-2.434 1.11-.355 2.04 1.063 1.375 1.992-.308.664-1.152.93-1.726.442m10.008-.133c-1.196-.84-.309-2.79.976-2.969 1.153-.219 2.215 1.2 1.504 2.215-.531.797-1.637.887-2.48.754m-21.168-7.617c-.887-1.239.308-3.368 1.812-3.102 1.242.445.977 2.172.047 2.793-.488.399-1.242.617-1.859.309m10.937-2.614c-1.062-.886-.265-2.347.356-3.187.707-.977 2.433-.754 2.699.398.223 1.063-.531 2.035-1.328 2.614-.485.351-1.196.441-1.727.175m-24.672-3.543c-1.371-.578-1.062-3.101.446-3.191 1.636.133 1.816 2.969.222 3.324a.9.9 0 0 1-.668-.133m-13.019-1.593c-1.328-.446-1.774-2.57-.488-3.325 1.152-.441 2.125.977 2.039 2.04.043.753-.754 1.902-1.551 1.285m22.277-4.477c-1.504-.973-.351-3.762 1.418-3.41 1.242.266 1.242 1.996.488 2.793-.398.574-1.242 1.02-1.906.617m-16.387-1.945c-1.46-.711-1.195-3.414.489-3.633 1.504 0 2.082 2.082 1.285 3.145-.356.574-1.152.93-1.774.488"/><path fill="#e96c92" d="M805.371 103.719c-17.363-8.903-33.93-19.223-50.848-28.832-5.492-3.278-10.894-6.778-15.812-10.809 2.879-5.668 8.328-9.7 14.219-11.867 9.656-3.5 20.418-3.414 30.293-.754 7.754 2.082 15.195 5.977 20.465 12.09 3.32 3.898 5.226 8.77 6.156 13.777 1.461 7.438 1.418 15.41-1.285 22.586-.442 1.242-1.063 2.395-1.727 3.543-.312.488-1.019.754-1.461.266m-2.926-13.153c-1.238-.754-.043-2.968 1.285-2.527 1.063.445.844 1.996-.132 2.395-.356.175-.754.265-1.153.132m-10.273-10.675c-1.109-.442-.621-2.082.351-2.434 1.11-.355 2.04 1.063 1.375 1.992-.308.664-1.152.93-1.726.442m10.008-.133c-1.196-.84-.309-2.79.976-2.969 1.153-.219 2.215 1.2 1.504 2.215-.531.797-1.637.887-2.48.754m-21.168-7.617c-.887-1.239.308-3.368 1.812-3.102 1.242.445.977 2.172.047 2.793-.488.399-1.242.617-1.859.309m10.937-2.614c-1.062-.886-.265-2.347.356-3.187.707-.977 2.433-.754 2.699.398.223 1.063-.531 2.035-1.328 2.614-.485.351-1.196.441-1.727.175m-24.672-3.543c-1.371-.578-1.062-3.101.446-3.191 1.636.133 1.816 2.969.222 3.324a.9.9 0 0 1-.668-.133m-13.019-1.593c-1.328-.446-1.774-2.57-.488-3.325 1.152-.441 2.125.977 2.039 2.04.043.753-.754 1.902-1.551 1.285m22.277-4.477c-1.504-.973-.351-3.762 1.418-3.41 1.242.266 1.242 1.996.488 2.793-.398.574-1.242 1.02-1.906.617m-16.387-1.945c-1.46-.711-1.195-3.414.489-3.633 1.504 0 2.082 2.082 1.285 3.145-.356.574-1.152.93-1.774.488"/></g><path fill="#bc9a16" d="M562.41 71.871c0-68.598 90.555-70.863 170.082-70.863 79.528 0 170.078 2.265 170.078 70.863 0-15.652-76.148-28.344-170.078-28.344-93.933 0-170.082 12.692-170.082 28.344"/><path fill="none" stroke="#000" stroke-linecap="round" stroke-linejoin="round" stroke-width="2" d="M562.41 71.871c0-68.598 90.555-70.863 170.082-70.863 79.528 0 170.078 2.265 170.078 70.863 0-15.652-76.148-28.344-170.078-28.344-93.933 0-170.082 12.692-170.082 28.344"/><path fill="#cc9c6f" d="M458.871 357.938c0 3.914-3.172 7.085-7.086 7.085s-7.086-3.171-7.086-7.085 3.172-7.086 7.086-7.086 7.086 3.171 7.086 7.086"/><path fill="none" stroke="#000" stroke-linecap="round" stroke-linejoin="round" stroke-width="2" d="M458.871 357.938c0 3.914-3.172 7.085-7.086 7.085s-7.086-3.171-7.086-7.085 3.172-7.086 7.086-7.086 7.086 3.171 7.086 7.086"/><circle cx="451.785" cy="357.938" r="1"/><path fill="#cc9c6f" d="M437.609 54.629h28.348v340.156h-28.348Z"/><path fill="none" stroke="#000" stroke-linecap="round" stroke-linejoin="round" stroke-width="2" d="M437.609 54.629h28.348v340.156h-28.348z"/><path fill="#cc9c6f" d="M458.871 357.938c0 3.914-3.172 7.085-7.086 7.085s-7.086-3.171-7.086-7.085 3.172-7.086 7.086-7.086 7.086 3.171 7.086 7.086"/><path fill="none" stroke="#000" stroke-linecap="round" stroke-linejoin="round" stroke-width="2" d="M458.871 357.938c0 3.914-3.172 7.085-7.086 7.085s-7.086-3.171-7.086-7.085 3.172-7.086 7.086-7.086 7.086 3.171 7.086 7.086"/><path fill="#cc9c6f" d="M454.617 394.785c3.641 3.824 5.672 8.899 5.672 14.176s-2.031 10.352-5.672 14.172h-5.668c-3.636-3.82-5.668-8.895-5.668-14.172s2.032-10.352 5.668-14.176z"/><path fill="none" stroke="#000" stroke-linecap="round" stroke-linejoin="round" stroke-width="2" d="M454.617 394.785c3.641 3.824 5.672 8.899 5.672 14.176s-2.031 10.352-5.672 14.172h-5.668c-3.636-3.82-5.668-8.895-5.668-14.172s2.032-10.352 5.668-14.176z"/><path fill="#cc9c6f" d="M463.121 434.473c0 6.261-5.074 11.34-11.336 11.34s-11.34-5.079-11.34-11.34 5.078-11.34 11.34-11.34 11.336 5.078 11.336 11.34"/><path fill="none" stroke="#000" stroke-linecap="round" stroke-linejoin="round" stroke-width="2" d="M463.121 434.473c0 6.261-5.074 11.34-11.336 11.34s-11.34-5.079-11.34-11.34 5.078-11.34 11.34-11.34 11.336 5.078 11.336 11.34"/><path fill="#cc9c6f" d="M494.305 26.281c-13.692 0-22.676 13.625-22.676 28.348h-39.688c0-14.723-8.988-28.348-22.675-28.348z"/><path fill="none" stroke="#000" stroke-linecap="round" stroke-linejoin="round" stroke-width="2" d="M494.305 26.281c-13.692 0-22.676 13.625-22.676 28.348h-39.688c0-14.723-8.988-28.348-22.675-28.348z"/></g></svg>