<svg xmlns="http://www.w3.org/2000/svg" width="341pt" height="205pt" viewBox="0 -205 341 205"><g id="page1"><path fill="none" stroke="#000" stroke-linecap="round" stroke-linejoin="round" stroke-width=".5" d="M.25-.254V-204.05M68.18-.254V-204.05M136.113-.254V-204.05M204.047-.254V-204.05M271.977-.254V-204.05M339.906-.254V-204.05M.25-.254h339.656M.25-68.187h339.656M.25-136.117h339.656M.25-204.051h339.656"/><path d="M34.918-176.375c0-.418-.02-.438-.3-.438-.782.938-1.958 1.239-3.079 1.278-.059 0-.16 0-.18.039-.02.043-.02.082-.02.5.622 0 1.661-.121 2.458-.598v10.535c0 .7-.04.938-1.758.938h-.602v.519c.961-.019 1.961-.039 2.922-.039.957 0 1.957.02 2.918.039v-.519h-.601c-1.719 0-1.758-.219-1.758-.938zm69.398-.16c0-.418-.019-.442-.378-.442L98-167.52v.524h5.156v1.957c0 .719-.039.918-1.437.918h-.379v.519c.637-.039 1.719-.039 2.398-.039.68 0 1.758 0 2.399.039v-.519h-.379c-1.399 0-1.442-.199-1.442-.918v-1.957h2.039v-.524h-2.039zm-1.097 1.32v7.695h-4.82zm64.562-.082a5.7 5.7 0 0 0 1.856.344c1.859 0 2.879-1 3.461-1.582 0-.16 0-.258-.121-.258-.02 0-.059 0-.219.078a6.2 6.2 0 0 1-2.52.539 6 6 0 0 1-2.48-.519c-.219-.098-.262-.098-.278-.098-.101 0-.121.02-.121.418v5.797c0 .359 0 .461.2.461.101 0 .14-.039.238-.18.641-.898 1.523-1.281 2.519-1.281.7 0 2.2.441 2.2 3.859 0 .641 0 1.801-.598 2.719-.5.82-1.281 1.242-2.141 1.242-1.316 0-2.66-.922-3.019-2.461.082.02.242.059.32.059.262 0 .762-.137.762-.758 0-.539-.379-.762-.762-.762-.461 0-.758.282-.758.84 0 1.738 1.379 3.559 3.5 3.559 2.059 0 4.016-1.778 4.016-4.356 0-2.402-1.559-4.261-3.496-4.261-1.02 0-1.879.382-2.559 1.101zm72.657 5.781c0 4.399-1.821 5.758-3.321 5.758-.457 0-1.578-.062-2.039-.844.52.082.899-.199.899-.699 0-.539-.438-.719-.719-.719-.18 0-.719.082-.719.762 0 1.36 1.18 1.977 2.617 1.977 2.301 0 4.641-2.516 4.641-6.914 0-5.481-2.238-6.618-3.758-6.618-1.98 0-3.879 1.739-3.879 4.415 0 2.48 1.621 4.32 3.66 4.32 1.676 0 2.418-1.559 2.618-2.219zm-2.579 1.118c-.539 0-1.3-.098-1.921-1.297-.418-.782-.418-1.703-.418-2.684 0-1.176 0-1.996.558-2.875.281-.422.801-1.101 1.961-1.101 2.359 0 2.359 3.621 2.359 4.417 0 1.422-.64 3.54-2.539 3.54m64.258-7.977c0-.418-.019-.438-.301-.438-.777.938-1.957 1.239-3.078 1.278-.058 0-.16 0-.179.039-.02.043-.02.082-.02.5.621 0 1.66-.121 2.457-.598v10.535c0 .7-.039.938-1.758.938h-.597v.519c.957-.019 1.957-.039 2.918-.039.957 0 1.957.02 2.918.039v-.519h-.598c-1.723 0-1.762-.219-1.762-.938zm6.063 1.078a5.7 5.7 0 0 0 1.859.344c1.859 0 2.879-1 3.457-1.582 0-.16 0-.258-.117-.258-.024 0-.063 0-.223.078a6.2 6.2 0 0 1-2.519.539 6 6 0 0 1-2.477-.519c-.222-.098-.262-.098-.281-.098-.098 0-.121.02-.121.418v5.797c0 .359 0 .461.203.461.098 0 .137-.039.238-.18.641-.898 1.52-1.281 2.52-1.281.699 0 2.199.441 2.199 3.859 0 .641 0 1.801-.602 2.719-.5.82-1.277 1.242-2.136 1.242-1.321 0-2.66-.922-3.02-2.461.078.02.238.059.32.059.258 0 .758-.137.758-.758 0-.539-.379-.762-.758-.762-.46 0-.761.282-.761.84 0 1.738 1.379 3.559 3.5 3.559 2.058 0 4.015-1.778 4.015-4.356 0-2.402-1.558-4.261-3.496-4.261a3.4 3.4 0 0 0-2.558 1.101zm-270.242 76.5h-.36c-.203 1.418-.36 1.656-.441 1.778-.098.16-1.54.16-1.82.16H31.48c.72-.782 2.118-2.2 3.817-3.84 1.219-1.16 2.64-2.52 2.64-4.496 0-2.36-1.878-3.719-3.98-3.719-2.2 0-3.535 1.937-3.535 3.738 0 .778.578.879.816.879.2 0 .801-.117.801-.82 0-.617-.52-.797-.8-.797a.8.8 0 0 0-.321.059c.383-1.7 1.543-2.54 2.762-2.54 1.738 0 2.875 1.379 2.875 3.2 0 1.738-1.016 3.238-2.157 4.539l-3.976 4.496v.46h7.035zm61.781-3.801c0-4.777 2.238-5.855 3.539-5.855.422 0 1.437.078 1.84.859-.321 0-.922 0-.922.699 0 .54.441.719.722.719.18 0 .719-.078.719-.762 0-1.257-1-1.976-2.379-1.976-2.379 0-4.879 2.476-4.879 6.898 0 5.438 2.258 6.637 3.86 6.637 1.937 0 3.777-1.738 3.777-4.418 0-2.5-1.617-4.32-3.656-4.32-1.223 0-2.121.801-2.621 2.199zm2.5 6.739c-2.461 0-2.461-3.68-2.461-4.418 0-1.442.68-3.52 2.539-3.52.34 0 1.32 0 1.98 1.379.36.781.36 1.602.36 2.598 0 1.082 0 1.882-.418 2.68-.442.82-1.082 1.28-2 1.28m68.719-7.038c1.257-.637 2.539-1.598 2.539-3.137 0-1.82-1.758-2.879-3.379-2.879-1.821 0-3.418 1.32-3.418 3.141 0 .496.121 1.359.898 2.117.203.199 1.039.801 1.578 1.179-.898.461-2.996 1.559-2.996 3.758 0 2.059 1.957 3.34 3.899 3.34 2.136 0 3.937-1.539 3.937-3.582 0-1.816-1.219-2.656-2.019-3.195zm-2.618-1.758c-.16-.102-.961-.723-.961-1.66 0-1.219 1.258-2.137 2.7-2.137 1.578 0 2.738 1.117 2.738 2.418 0 1.859-2.078 2.918-2.18 2.918-.019 0-.039 0-.199-.121zm3.676 4.097c.301.219 1.262.88 1.262 2.098 0 1.48-1.481 2.602-3.16 2.602-1.821 0-3.2-1.301-3.2-2.88 0-1.581 1.219-2.898 2.598-3.519zm62.121-7.918c0-.418-.019-.437-.301-.437-.777.937-1.957 1.238-3.078 1.281-.058 0-.16 0-.179.039-.02.039-.02.078-.02.5.621 0 1.66-.121 2.457-.601v10.535c0 .7-.039.941-1.758.941h-.597v.52c.957-.02 1.957-.043 2.918-.043.957 0 1.957.023 2.918.043v-.52h-.598c-1.723 0-1.762-.219-1.762-.941zm12.281 6.36c0-1.219-.019-3.297-.859-4.899-.742-1.398-1.922-1.898-2.961-1.898-.961 0-2.18.437-2.937 1.879-.801 1.5-.883 3.359-.883 4.918 0 1.14.023 2.879.64 4.398.86 2.059 2.399 2.34 3.18 2.34.918 0 2.32-.379 3.141-2.281.597-1.38.679-2.996.679-4.457m-3.82 6.418c-1.281 0-2.039-1.102-2.32-2.621-.219-1.18-.219-2.899-.219-4.02 0-1.539 0-2.816.258-4.035.383-1.699 1.5-2.219 2.281-2.219.82 0 1.879.539 2.262 2.18.258 1.137.277 2.476.277 4.074 0 1.301 0 2.903-.238 4.082-.422 2.18-1.602 2.559-2.301 2.559m59.539-12.778c0-.418-.019-.437-.301-.437-.777.937-1.957 1.238-3.078 1.281-.058 0-.16 0-.179.039-.02.039-.02.078-.02.5.621 0 1.66-.121 2.457-.601v10.535c0 .7-.039.941-1.758.941h-.597v.52c.957-.02 1.957-.043 2.918-.043.957 0 1.957.023 2.918.043v-.52h-.598c-1.723 0-1.762-.219-1.762-.941zm10.5-.156c0-.422-.019-.441-.379-.441l-5.937 9.457v.52h5.156v1.956c0 .72-.039.922-1.437.922h-.379v.52c.636-.043 1.718-.043 2.398-.043s1.758 0 2.399.043v-.52h-.383c-1.399 0-1.438-.203-1.438-.922v-1.957h2.039v-.52h-2.039zm-1.101 1.317v7.699h-4.817zM34.02-34.598c1.777 0 2.558 1.54 2.558 3.32 0 2.4-1.281 3.317-2.441 3.317-1.059 0-2.778-.52-3.317-2.059.098.04.2.04.297.04.48 0 .844-.317.844-.84 0-.578-.441-.836-.844-.836-.336 0-.86.156-.86.898 0 1.84 1.802 3.278 3.923 3.278 2.218 0 3.918-1.739 3.918-3.778 0-1.941-1.602-3.34-3.5-3.558 1.52-.32 2.98-1.68 2.98-3.5 0-1.559-1.582-2.7-3.379-2.7-1.82 0-3.418 1.121-3.418 2.72 0 .702.52.82.778.82.421 0 .78-.258.78-.782 0-.515-.358-.777-.78-.777-.079 0-.18 0-.258.039.578-1.316 2.156-1.559 2.855-1.559.703 0 2.02.34 2.02 2.258 0 .563-.078 1.563-.758 2.441-.602.778-1.281.817-1.941.88-.098 0-.559.038-.637.038-.14.02-.223.04-.223.18s.024.16.422.16zm72.597-5.656v-.441h-4.699c-2.34 0-2.379-.258-2.457-.64h-.36l-.582 3.741h.36c.058-.383.2-1.402.441-1.781.118-.16 1.598-.16 1.938-.16h4.398l-2.218 3.3c-1.481 2.22-2.5 5.215-2.5 7.837 0 .238 0 .918.718.918.723 0 .723-.68.723-.942v-.918c0-3.277.559-5.437 1.48-6.816zm59.602-.32c0-.418-.02-.442-.301-.442-.781.942-1.957 1.243-3.078 1.282-.059 0-.16 0-.18.039s-.019.078-.019.5c.617 0 1.656-.121 2.457-.602v10.54c0 .698-.039.937-1.758.937h-.602v.52c.961-.02 1.961-.04 2.918-.04.961 0 1.961.02 2.922.04v-.52h-.601c-1.719 0-1.758-.22-1.758-.938zm9.199 0c0-.418-.02-.442-.301-.442-.777.942-1.957 1.243-3.078 1.282-.059 0-.16 0-.18.039s-.019.078-.019.5c.621 0 1.656-.121 2.457-.602v10.54c0 .698-.039.937-1.758.937h-.601v.52c.96-.02 1.96-.04 2.921-.04.957 0 1.957.02 2.918.04v-.52h-.601c-1.719 0-1.758-.22-1.758-.938zm58.699 0c0-.418-.019-.442-.301-.442-.777.942-1.957 1.243-3.078 1.282-.058 0-.16 0-.179.039-.02.039-.02.078-.02.5.621 0 1.66-.121 2.457-.602v10.54c0 .698-.039.937-1.758.937h-.597v.52c.957-.02 1.957-.04 2.918-.04.957 0 1.957.02 2.918.04v-.52h-.598c-1.723 0-1.762-.22-1.762-.938zm12.219 9.676h-.359c-.2 1.418-.36 1.66-.438 1.78-.101.157-1.543.157-1.82.157h-3.84c.719-.777 2.117-2.195 3.816-3.836 1.223-1.16 2.641-2.52 2.641-4.5 0-2.36-1.879-3.719-3.977-3.719-2.199 0-3.539 1.942-3.539 3.739 0 .78.578.879.821.879.199 0 .797-.118.797-.817 0-.62-.52-.8-.797-.8a.8.8 0 0 0-.321.058c.379-1.7 1.539-2.54 2.758-2.54 1.738 0 2.879 1.38 2.879 3.2 0 1.742-1.019 3.238-2.16 4.54l-3.977 4.5v.456h7.035zm55.781-9.676c0-.418-.019-.442-.301-.442-.777.942-1.957 1.243-3.078 1.282-.058 0-.16 0-.179.039-.02.039-.02.078-.02.5.621 0 1.66-.121 2.457-.602v10.54c0 .698-.039.937-1.758.937h-.597v.52c.957-.02 1.957-.04 2.918-.04.957 0 1.957.02 2.918.04v-.52h-.598c-1.723 0-1.762-.22-1.762-.938zm8.203 5.976c1.778 0 2.559 1.54 2.559 3.32 0 2.4-1.281 3.317-2.441 3.317-1.059 0-2.778-.52-3.321-2.059a.8.8 0 0 0 .301.04c.48 0 .84-.317.84-.84 0-.578-.438-.836-.84-.836-.34 0-.859.156-.859.898 0 1.84 1.8 3.278 3.918 3.278 2.218 0 3.921-1.739 3.921-3.778 0-1.941-1.601-3.34-3.5-3.558 1.52-.32 2.981-1.68 2.981-3.5 0-1.559-1.582-2.7-3.383-2.7-1.816 0-3.418 1.121-3.418 2.72 0 .702.524.82.781.82.422 0 .782-.258.782-.782 0-.515-.36-.777-.782-.777a.6.6 0 0 0-.257.039c.578-1.316 2.156-1.559 2.855-1.559s2.02.34 2.02 2.258c0 .563-.079 1.563-.758 2.441-.602.778-1.281.817-1.942.88-.097 0-.558.038-.636.038-.145.02-.223.04-.223.18s.02.16.422.16z"/></g></svg>