<svg xmlns="http://www.w3.org/2000/svg" width="403pt" height="232pt" viewBox="0 -232 403 232"><g id="page1"><path fill="#ffd9b2" d="M10.004-56.586h5.953c1.633 0 3.2.652 4.355 1.805l4.895 4.898a2.553 2.553 0 0 0 3.61 0l4.894-4.898a6.18 6.18 0 0 1 4.355-1.805h67.766a2.55 2.55 0 0 0 2.551-2.55v-47.645a2.55 2.55 0 0 0-2.551-2.551H38.066a6.16 6.16 0 0 0-4.355 1.805l-4.895 4.894a2.554 2.554 0 0 1-3.609 0l-4.895-4.894a6.16 6.16 0 0 0-4.355-1.805H4.051a2.55 2.55 0 0 0-2.551 2.551v47.644c0 1.41 1.14 2.551 2.55 2.551z"/><path fill="none" stroke="#b25900" stroke-linecap="round" stroke-linejoin="round" stroke-width="3" d="M10.004-56.586h5.953c1.633 0 3.2.652 4.355 1.805l4.895 4.898a2.553 2.553 0 0 0 3.61 0l4.894-4.898a6.18 6.18 0 0 1 4.355-1.805h67.766a2.55 2.55 0 0 0 2.551-2.55v-47.645a2.55 2.55 0 0 0-2.551-2.551H38.066a6.16 6.16 0 0 0-4.355 1.805l-4.895 4.894a2.554 2.554 0 0 1-3.609 0l-4.895-4.894a6.16 6.16 0 0 0-4.355-1.805H4.051a2.55 2.55 0 0 0-2.551 2.551v47.644c0 1.41 1.14 2.551 2.55 2.551z"/><path fill="#b2ffff" d="M1.5-112.277h14.457c1.633 0 3.2.648 4.355 1.804l4.895 4.895a2.554 2.554 0 0 0 3.61 0l4.894-4.895a6.16 6.16 0 0 1 4.355-1.804h70.317v-52.746c-15.625-11.067-34.297-17.008-53.442-17.008S17.125-176.09 1.5-165.023z"/><path fill="none" stroke="#00b2b2" stroke-linecap="round" stroke-linejoin="round" stroke-width="3" d="M1.5-112.277h14.457c1.633 0 3.2.648 4.355 1.804l4.895 4.895a2.554 2.554 0 0 0 3.61 0l4.894-4.895a6.16 6.16 0 0 1 4.355-1.804h70.317v-52.746c-15.625-11.067-34.297-17.008-53.442-17.008S17.125-176.09 1.5-165.023z"/><path fill="#ffffb2" d="M153.738-8.95h5.953c1.633 0 3.2.65 4.356 1.805l4.894 4.895a2.554 2.554 0 0 0 3.61 0l4.894-4.895a6.16 6.16 0 0 1 4.356-1.804h207.652a2.55 2.55 0 0 0 2.551-2.551v-142.914a2.55 2.55 0 0 0-2.551-2.551H181.801a6.16 6.16 0 0 0-4.356 1.805l-4.894 4.894a2.554 2.554 0 0 1-3.61 0l-4.894-4.894a6.16 6.16 0 0 0-4.356-1.805h-11.906a2.55 2.55 0 0 0-2.551 2.551V-11.5a2.55 2.55 0 0 0 2.551 2.55z"/><path fill="none" stroke="#b2b200" stroke-linecap="round" stroke-linejoin="round" stroke-width="3" d="M153.738-8.95h5.953c1.633 0 3.2.65 4.356 1.805l4.894 4.895a2.554 2.554 0 0 0 3.61 0l4.894-4.895a6.16 6.16 0 0 1 4.356-1.804h207.652a2.55 2.55 0 0 0 2.551-2.551v-142.914a2.55 2.55 0 0 0-2.551-2.551H181.801a6.16 6.16 0 0 0-4.356 1.805l-4.894 4.894a2.554 2.554 0 0 1-3.61 0l-4.894-4.894a6.16 6.16 0 0 0-4.356-1.805h-11.906a2.55 2.55 0 0 0-2.551 2.551V-11.5a2.55 2.55 0 0 0 2.551 2.55z"/><path fill="#ffd9b2" d="M179.25-25.957h5.953c1.633 0 3.199.648 4.356 1.8l4.894 4.9c.996.995 2.61.995 3.61 0l4.894-4.9a6.17 6.17 0 0 1 4.356-1.8h190.644a2.55 2.55 0 0 0 2.551-2.55v-47.65a2.55 2.55 0 0 0-2.551-2.55H207.313c-1.633 0-3.2.652-4.356 1.805l-4.894 4.898c-1 .996-2.614.996-3.61 0l-4.894-4.898a6.18 6.18 0 0 0-4.356-1.805h-11.906a2.55 2.55 0 0 0-2.551 2.55v47.65a2.55 2.55 0 0 0 2.551 2.55z"/><path fill="none" stroke="#b25900" stroke-linecap="round" stroke-linejoin="round" stroke-width="3" d="M179.25-25.957h5.953c1.633 0 3.199.648 4.356 1.8l4.894 4.9c.996.995 2.61.995 3.61 0l4.894-4.9a6.17 6.17 0 0 1 4.356-1.8h190.644a2.55 2.55 0 0 0 2.551-2.55v-47.65a2.55 2.55 0 0 0-2.551-2.55H207.313c-1.633 0-3.2.652-4.356 1.805l-4.894 4.898c-1 .996-2.614.996-3.61 0l-4.894-4.898a6.18 6.18 0 0 0-4.356-1.805h-11.906a2.55 2.55 0 0 0-2.551 2.55v47.65a2.55 2.55 0 0 0 2.551 2.55z"/><path fill="#b2ffb2" d="m194.949-101.895 9.504 8.84c3 2.793 6.949 4.344 11.047 4.344h94.012c4.097 0 8.043-1.55 11.047-4.344l19.007-17.683a5.935 5.935 0 0 0 0-8.692l-19.007-17.683a16.22 16.22 0 0 0-11.047-4.344H215.5a16.2 16.2 0 0 0-11.047 4.344l-19.008 17.683a5.937 5.937 0 0 0 0 8.692z"/><path fill="none" stroke="#00b200" stroke-linecap="round" stroke-linejoin="round" stroke-width="3" d="m194.949-101.895 9.504 8.84c3 2.793 6.949 4.344 11.047 4.344h94.012c4.097 0 8.043-1.55 11.047-4.344l19.007-17.683a5.935 5.935 0 0 0 0-8.692l-19.007-17.683a16.22 16.22 0 0 0-11.047-4.344H215.5a16.2 16.2 0 0 0-11.047 4.344l-19.008 17.683a5.937 5.937 0 0 0 0 8.692z"/><path fill="#b2ffff" d="M145.234-159.91h14.457c1.633 0 3.2.648 4.356 1.805l4.894 4.894a2.554 2.554 0 0 0 3.61 0l4.894-4.894a6.16 6.16 0 0 1 4.356-1.805h210.203v-52.746a456.06 456.06 0 0 0-246.77 0z"/><path fill="none" stroke="#00b2b2" stroke-linecap="round" stroke-linejoin="round" stroke-width="3" d="M145.234-159.91h14.457c1.633 0 3.2.648 4.356 1.805l4.894 4.894a2.554 2.554 0 0 0 3.61 0l4.894-4.894a6.16 6.16 0 0 1 4.356-1.805h210.203v-52.746a456.06 456.06 0 0 0-246.77 0z"/><path d="M22.223-83.379c0-1.293 0-2.246-1.051-3.18-.836-.765-1.91-1.097-2.961-1.097-1.961 0-3.469 1.289-3.469 2.844 0 .69.457 1.027 1.008 1.027.57 0 .977-.406.977-.98 0-.981-.86-.981-1.22-.981.552-1.004 1.7-1.434 2.653-1.434 1.102 0 2.512.907 2.512 3.059v.957c-4.805.07-6.621 2.078-6.621 3.918 0 1.887 2.199 2.484 3.656 2.484 1.578 0 2.652-.957 3.105-2.101.098 1.12.836 1.98 1.868 1.98.5 0 1.886-.332 1.886-2.242v-1.34h-.527v1.34c0 1.36-.57 1.55-.906 1.55-.91 0-.91-1.265-.91-1.624zm-1.551 3.012c0 2.34-1.746 3.129-2.774 3.129-1.171 0-2.148-.864-2.148-2.008 0-3.152 4.063-3.442 4.922-3.488zm13.18-4.664c.214-.524.62-1.551 2.148-1.575v-.695c-.691.051-1.027.051-1.766.051-.504 0-.863 0-1.96-.05v.694c1.003.047 1.12.762 1.12 1.028 0 .215-.046.336-.167.621l-2.438 6.164-2.676-6.738c-.117-.336-.14-.336-.14-.453 0-.622.906-.622 1.336-.622v-.695c-.598.051-1.84.051-2.485.051-.789 0-.836 0-2.293-.05v.694c1.336 0 1.578.094 1.864.837l3.418 8.554c.117.332.164.453.453.453.168 0 .312-.047.476-.453zm10.472 1.652c0-1.293 0-2.246-1.05-3.18-.837-.765-1.915-1.097-2.965-1.097-1.957 0-3.465 1.289-3.465 2.844 0 .69.453 1.027 1.004 1.027.574 0 .98-.406.98-.98 0-.981-.86-.981-1.219-.981.551-1.004 1.696-1.434 2.653-1.434 1.097 0 2.508.907 2.508 3.059v.957c-4.801.07-6.618 2.078-6.618 3.918 0 1.887 2.2 2.484 3.657 2.484 1.574 0 2.652-.957 3.105-2.101.094 1.12.836 1.98 1.863 1.98.504 0 1.887-.332 1.887-2.242v-1.34h-.523v1.34c0 1.36-.575 1.55-.907 1.55-.91 0-.91-1.265-.91-1.624zm-1.554 3.012c0 2.34-1.743 3.129-2.77 3.129-1.172 0-2.152-.864-2.152-2.008 0-3.152 4.062-3.442 4.922-3.488zm14.664-2.438c0-2.226 0-2.894-.551-3.656-.692-.933-1.813-1.078-2.625-1.078-2.32 0-3.227 1.984-3.418 2.46h-.028v-2.46l-3.25.266v.691c1.626 0 1.82.168 1.82 1.34v6.473c0 1.074-.265 1.074-1.82 1.074V-77c.626-.047 1.915-.047 2.583-.047.695 0 1.984 0 2.605.047v-.695c-1.531 0-1.816 0-1.816-1.075v-4.44c0-2.513 1.648-3.853 3.129-3.853 1.484 0 1.82 1.22 1.82 2.68v5.614c0 1.074-.266 1.074-1.82 1.074V-77c.624-.047 1.914-.047 2.581-.047.696 0 1.985 0 2.606.047v-.695c-1.195 0-1.793 0-1.816-.715zm11.472-3.824c.215-.265.215-.312.215-.406 0-.266-.168-.266-.574-.266h-7.504l-.262 3.801h.524c.144-2.437.597-3.32 3.203-3.32h2.773l-6.836 9.39c0 .43.047.43.575.43h7.789l.382-4.398h-.527c-.215 2.726-.621 3.875-3.465 3.875h-2.89zm10.516 3.25c0-1.293 0-2.246-1.047-3.18-.84-.765-1.914-1.097-2.965-1.097-1.96 0-3.465 1.289-3.465 2.844 0 .69.453 1.027 1.004 1.027.574 0 .98-.406.98-.98 0-.981-.863-.981-1.218-.981.547-1.004 1.695-1.434 2.648-1.434 1.102 0 2.512.907 2.512 3.059v.957c-4.805.07-6.621 2.078-6.621 3.918 0 1.887 2.2 2.484 3.656 2.484 1.578 0 2.656-.957 3.11-2.101.093 1.12.836 1.98 1.863 1.98.5 0 1.887-.332 1.887-2.242v-1.34h-.524v1.34c0 1.36-.574 1.55-.91 1.55-.91 0-.91-1.265-.91-1.624zm-1.55 3.012c0 2.34-1.747 3.129-2.774 3.129-1.168 0-2.149-.864-2.149-2.008 0-3.152 4.063-3.442 4.922-3.488zm-60.88-68.918-3.324.262v.695c1.625 0 1.816.168 1.816 1.336v14.293h.528a70 70 0 0 1 .86-1.555c.55.887 1.577 1.793 3.105 1.793 2.75 0 5.164-2.32 5.164-5.398 0-3.039-2.246-5.379-4.899-5.379-1.316 0-2.437.597-3.25 1.601zm.047 8.937c0-.429 0-.476.262-.859.574-.859 1.625-1.555 2.797-1.555.715 0 3.226.289 3.226 4.875 0 1.602-.238 2.606-.812 3.465-.48.742-1.434 1.484-2.63 1.484-1.288 0-2.128-.835-2.534-1.484-.309-.5-.309-.598-.309-1.004zm13.071-8.937-3.32.262v.695c1.624 0 1.816.168 1.816 1.336v12.523c0 1.074-.262 1.074-1.817 1.074v.696c.668-.047 1.84-.047 2.555-.047.718 0 1.914 0 2.582.047v-.696c-1.528 0-1.817 0-1.817-1.074zm13.359 11.472c0-3.085-2.344-5.546-5.114-5.546-2.867 0-5.136 2.535-5.136 5.546 0 3.059 2.386 5.352 5.113 5.352 2.816 0 5.137-2.344 5.137-5.352m-5.114 4.825c-.886 0-1.96-.379-2.652-1.551-.648-1.078-.672-2.484-.672-3.492 0-.907 0-2.364.742-3.438a3.06 3.06 0 0 1 2.559-1.41c.93 0 1.934.43 2.578 1.363.742 1.098.742 2.602.742 3.485 0 .84 0 2.32-.62 3.441-.669 1.149-1.77 1.602-2.676 1.602m15.194-8.555c-.284 0-1.171 0-1.171.98 0 .575.406.981.98.981.551 0 1.004-.336 1.004-1.027 0-1.602-1.672-2.75-3.61-2.75-2.792 0-5.019 2.488-5.019 5.5 0 3.054 2.297 5.398 4.996 5.398 3.157 0 3.872-2.867 3.872-3.082s-.168-.215-.239-.215c-.215 0-.238.07-.308.36-.528 1.695-1.82 2.41-3.11 2.41-1.457 0-3.39-1.266-3.39-4.899 0-3.965 2.03-4.945 3.222-4.945.91 0 2.223.359 2.774 1.289m10.399 0c-.286 0-1.169 0-1.169.98 0 .575.407.981.977.981.55 0 1.004-.336 1.004-1.027 0-1.602-1.672-2.75-3.606-2.75-2.797 0-5.02 2.488-5.02 5.5 0 3.054 2.294 5.398 4.997 5.398 3.152 0 3.867-2.867 3.867-3.082s-.164-.215-.238-.215c-.215 0-.239.07-.309.36-.527 1.695-1.816 2.41-3.11 2.41-1.456 0-3.39-1.266-3.39-4.899 0-3.965 2.031-4.945 3.227-4.945.906 0 2.222.359 2.77 1.289m12.718 3.73c0-3.085-2.34-5.546-5.113-5.546-2.868 0-5.137 2.535-5.137 5.546 0 3.059 2.387 5.352 5.113 5.352 2.82 0 5.137-2.344 5.137-5.352m-5.113 4.825c-.883 0-1.961-.379-2.653-1.551-.644-1.078-.668-2.484-.668-3.492 0-.907 0-2.364.739-3.438a3.07 3.07 0 0 1 2.558-1.41c.93 0 1.938.43 2.578 1.363.743 1.098.743 2.602.743 3.485 0 .84 0 2.32-.621 3.441-.668 1.149-1.77 1.602-2.676 1.602m24.16-3.727h-.528c-.07.406-.261 1.723-.5 2.102-.168.215-1.53.215-2.246.215H88.02c.645-.547 2.106-2.079 2.723-2.649 3.633-3.348 4.973-4.59 4.973-6.957 0-2.75-2.176-4.586-4.95-4.586-2.769 0-4.394 2.363-4.394 4.418 0 1.219 1.05 1.219 1.121 1.219.504 0 1.125-.356 1.125-1.121 0-.668-.453-1.125-1.125-1.125-.21 0-.261 0-.332.027.453-1.625 1.746-2.726 3.297-2.726 2.031 0 3.274 1.695 3.274 3.894 0 2.031-1.168 3.801-2.532 5.332l-4.828 5.399v.574h8.723zm95.707 83.934c0-1.29 0-2.246-1.051-3.18-.836-.762-1.91-1.098-2.961-1.098-1.961 0-3.465 1.293-3.465 2.844 0 .692.453 1.028 1.004 1.028.574 0 .981-.407.981-.981 0-.98-.864-.98-1.219-.98.547-1 1.695-1.43 2.648-1.43 1.102 0 2.512.906 2.512 3.055v.957c-4.805.074-6.617 2.082-6.617 3.918 0 1.89 2.195 2.488 3.652 2.488 1.578 0 2.657-.957 3.11-2.106.093 1.125.836 1.985 1.863 1.985.5 0 1.887-.336 1.887-2.246v-1.34h-.524v1.34c0 1.363-.574 1.554-.91 1.554-.91 0-.91-1.27-.91-1.625zm-1.551 3.011c0 2.34-1.742 3.13-2.773 3.13-1.168 0-2.149-.86-2.149-2.008 0-3.153 4.063-3.438 4.922-3.489zm9.883 7.313c-1.527 0-1.816 0-1.816-1.074v-4.16c.429.597 1.41 1.53 2.941 1.53 2.75 0 5.16-2.32 5.16-5.401 0-3.036-2.246-5.376-4.851-5.376-2.102 0-3.223 1.504-3.297 1.602v-1.602l-3.321.262v.692c1.672 0 1.817.168 1.817 1.218v11.235c0 1.074-.266 1.074-1.817 1.074v.691c.621-.047 1.91-.047 2.578-.047.696 0 1.985 0 2.606.047zm-1.816-11.566c0-.454 0-.477.265-.86a3.44 3.44 0 0 1 2.793-1.531c1.793 0 3.227 2.176 3.227 4.852 0 2.843-1.625 4.921-3.465 4.921a2.8 2.8 0 0 1-1.91-.761c-.551-.551-.91-1.028-.91-1.7zm13.054 2.054c0-2.316.953-4.492 2.793-4.492.192 0 .238 0 .336.023-.191.098-.574.243-.574.883 0 .696.551.957.933.957.477 0 .958-.308.958-.957 0-.715-.649-1.383-1.676-1.383-2.032 0-2.723 2.196-2.867 2.653h-.024v-2.653l-3.203.262v.692c1.625 0 1.816.168 1.816 1.34v6.476c0 1.074-.261 1.074-1.816 1.074v.696c.672-.051 1.984-.051 2.699-.051.649 0 2.344 0 2.895.05v-.695h-.481c-1.742 0-1.789-.261-1.789-1.12zm9.266-9.152c0-.621-.5-1.168-1.168-1.168-.625 0-1.149.5-1.149 1.145 0 .714.575 1.171 1.149 1.171.738 0 1.168-.62 1.168-1.148m-3.297 4.445v.692c1.527 0 1.742.144 1.742 1.316v6.5c0 1.074-.262 1.074-1.812 1.074v.696c.668-.051 1.812-.051 2.507-.051.262 0 1.649 0 2.461.05v-.695c-1.554 0-1.648-.117-1.648-1.05v-8.794zm19.293 14.219c-1.527 0-1.816 0-1.816-1.074v-4.16c.429.597 1.41 1.53 2.941 1.53 2.75 0 5.16-2.32 5.16-5.401 0-3.036-2.246-5.376-4.851-5.376-2.102 0-3.223 1.504-3.297 1.602v-1.602l-3.321.262v.692c1.672 0 1.817.168 1.817 1.218v11.235c0 1.074-.266 1.074-1.817 1.074v.691c.621-.047 1.91-.047 2.578-.047.696 0 1.985 0 2.606.047zm-1.816-11.566c0-.454 0-.477.265-.86a3.44 3.44 0 0 1 2.793-1.531c1.793 0 3.227 2.176 3.227 4.852 0 2.843-1.625 4.921-3.465 4.921a2.8 2.8 0 0 1-1.91-.761c-.551-.551-.91-1.028-.91-1.7zm20.531 2.507c0-3.082-2.34-5.543-5.114-5.543-2.867 0-5.136 2.536-5.136 5.543 0 3.063 2.386 5.356 5.113 5.356 2.816 0 5.137-2.344 5.137-5.356m-5.114 4.828c-.886 0-1.96-.382-2.652-1.554-.648-1.074-.672-2.485-.672-3.489 0-.906 0-2.363.742-3.44a3.07 3.07 0 0 1 2.559-1.407c.93 0 1.934.43 2.578 1.36.742 1.1.742 2.605.742 3.488 0 .84 0 2.32-.621 3.44-.668 1.15-1.769 1.602-2.676 1.602m9.836-5.281c0-2.316.957-4.492 2.793-4.492.196 0 .243 0 .336.023-.191.098-.574.243-.574.883 0 .696.551.957.934.957.476 0 .957-.308.957-.957 0-.715-.645-1.383-1.672-1.383-2.035 0-2.727 2.196-2.871 2.653h-.024v-2.653l-3.203.262v.692c1.625 0 1.821.168 1.821 1.34v6.476c0 1.074-.266 1.074-1.821 1.074v.696c.672-.051 1.985-.051 2.703-.051.645 0 2.34 0 2.891.05v-.695h-.477c-1.746 0-1.793-.261-1.793-1.12zm9.122-4.039h3.371v-.691h-3.371v-4.399h-.524c-.023 2.246-.883 4.543-3.059 4.614v.476h2.032v6.645c0 2.652 1.769 3.203 3.035 3.203 1.504 0 2.293-1.48 2.293-3.203v-1.364h-.527v1.317c0 1.719-.692 2.722-1.625 2.722-1.625 0-1.625-2.222-1.625-2.628zm14.308 3.227c0-1.29 0-2.246-1.047-3.18-.84-.762-1.914-1.098-2.965-1.098-1.961 0-3.464 1.293-3.464 2.844 0 .692.453 1.028 1.003 1.028.575 0 .981-.407.981-.981 0-.98-.863-.98-1.219-.98.551-1 1.695-1.43 2.653-1.43 1.097 0 2.507.906 2.507 3.055v.957c-4.804.074-6.617 2.082-6.617 3.918 0 1.89 2.195 2.488 3.656 2.488 1.575 0 2.653-.957 3.106-2.106.094 1.125.836 1.985 1.863 1.985.5 0 1.887-.336 1.887-2.246v-1.34h-.524v1.34c0 1.363-.574 1.554-.91 1.554-.91 0-.91-1.27-.91-1.625zm-1.551 3.011c0 2.34-1.742 3.13-2.773 3.13-1.168 0-2.149-.86-2.149-2.008 0-3.153 4.063-3.438 4.922-3.489zm-117.031-69.437c0-.434 0-.551-.242-.551-.188 0-.641.524-.813.742-.738-.597-1.48-.742-2.242-.742-2.894 0-3.754 1.578-3.754 2.891 0 .265 0 1.101.91 1.937.762.668 1.575.836 2.676 1.051 1.313.262 1.625.332 2.223.813.43.359.738.882.738 1.55 0 1.032-.597 2.176-2.699 2.176-1.578 0-2.723-.906-3.25-3.297-.094-.429-.094-.453-.117-.476-.051-.098-.145-.098-.215-.098-.266 0-.266.121-.266.551v3.25c0 .43 0 .551.239.551.121 0 .144-.024.55-.528.121-.168.121-.215.477-.597.91 1.125 2.199 1.125 2.605 1.125 2.508 0 3.75-1.387 3.75-3.274 0-1.293-.785-2.058-1-2.273-.863-.739-1.507-.883-3.086-1.172-.714-.141-2.46-.477-2.46-1.91 0-.739.503-1.84 2.656-1.84 2.601 0 2.746 2.223 2.793 2.965.023.191.191.191.261.191.266 0 .266-.121.266-.551zm10.613 4.562c.528 0 .575 0 .575-.453 0-2.414-1.289-4.66-4.184-4.66-2.723 0-4.824 2.461-4.824 5.426 0 3.152 2.437 5.473 5.086 5.473 2.843 0 3.922-2.582 3.922-3.086 0-.145-.122-.239-.262-.239-.192 0-.242.121-.289.239-.621 2.007-2.223 2.558-3.227 2.558s-3.418-.668-3.418-4.804v-.454zm-6.597-.453c.191-3.754 2.297-4.183 2.965-4.183 2.558 0 2.699 3.371 2.722 4.183zm36.699 9.942c-1.527 0-1.816 0-1.816-1.078v-4.157c.429.598 1.41 1.532 2.941 1.532 2.75 0 5.16-2.321 5.16-5.403 0-3.035-2.246-5.379-4.851-5.379-2.102 0-3.223 1.508-3.297 1.602v-1.602l-3.321.266v.691c1.672 0 1.817.168 1.817 1.219v11.231c0 1.078-.266 1.078-1.817 1.078v.691c.621-.047 1.91-.047 2.578-.047.696 0 1.985 0 2.606.047zm-1.816-11.567c0-.453 0-.48.265-.859a3.44 3.44 0 0 1 2.793-1.531c1.793 0 3.227 2.175 3.227 4.851 0 2.844-1.625 4.922-3.465 4.922a2.8 2.8 0 0 1-1.91-.762c-.551-.55-.91-1.031-.91-1.699zm20.531 2.508c0-3.082-2.34-5.543-5.114-5.543-2.867 0-5.136 2.531-5.136 5.543 0 3.059 2.386 5.356 5.113 5.356 2.816 0 5.137-2.344 5.137-5.356m-5.114 4.828c-.886 0-1.96-.383-2.652-1.554-.648-1.075-.672-2.485-.672-3.489 0-.91 0-2.367.742-3.441a3.06 3.06 0 0 1 2.559-1.41c.93 0 1.934.429 2.578 1.363.742 1.098.742 2.605.742 3.488 0 .836 0 2.321-.621 3.442-.668 1.148-1.769 1.601-2.676 1.601m9.836-5.281c0-2.316.957-4.492 2.793-4.492.196 0 .243 0 .336.023-.191.098-.574.239-.574.883 0 .695.551.957.934.957.476 0 .957-.312.957-.957 0-.715-.645-1.387-1.672-1.387-2.035 0-2.727 2.2-2.871 2.657h-.024v-2.657l-3.203.266v.691c1.625 0 1.821.168 1.821 1.34v6.477c0 1.074-.266 1.074-1.821 1.074v.691c.672-.046 1.985-.046 2.703-.046.645 0 2.34 0 2.891.046v-.691h-.477c-1.746 0-1.793-.262-1.793-1.121zm9.122-4.039h3.371v-.691h-3.371v-4.399h-.524c-.023 2.246-.883 4.539-3.059 4.613v.477h2.032v6.644c0 2.653 1.769 3.204 3.035 3.204 1.504 0 2.293-1.485 2.293-3.204v-1.363h-.527v1.317c0 1.718-.692 2.722-1.625 2.722-1.625 0-1.625-2.222-1.625-2.629zm14.308 3.227c0-1.29 0-2.247-1.047-3.18-.84-.762-1.914-1.098-2.965-1.098-1.961 0-3.464 1.289-3.464 2.844 0 .691.453 1.027 1.003 1.027.575 0 .981-.406.981-.98 0-.981-.863-.981-1.219-.981.551-1.004 1.695-1.433 2.653-1.433 1.097 0 2.507.91 2.507 3.058v.957c-4.804.071-6.617 2.078-6.617 3.918 0 1.891 2.195 2.489 3.656 2.489 1.575 0 2.653-.957 3.106-2.106.094 1.125.836 1.985 1.863 1.985.5 0 1.887-.336 1.887-2.247v-1.339h-.524v1.339c0 1.364-.574 1.555-.91 1.555-.91 0-.91-1.269-.91-1.625zm-1.551 3.011c0 2.34-1.742 3.129-2.773 3.129-1.168 0-2.149-.859-2.149-2.008 0-3.152 4.063-3.441 4.922-3.488zm20.481-5.472c-.285 0-1.172 0-1.172.976 0 .574.406.981.98.981.551 0 1.004-.332 1.004-1.024 0-1.601-1.672-2.75-3.609-2.75-2.793 0-5.02 2.485-5.02 5.496 0 3.059 2.297 5.403 4.996 5.403 3.157 0 3.872-2.868 3.872-3.086 0-.215-.168-.215-.239-.215-.215 0-.242.07-.308.359-.528 1.699-1.821 2.414-3.11 2.414-1.457 0-3.39-1.265-3.39-4.898 0-3.969 2.031-4.949 3.222-4.949.911 0 2.227.363 2.774 1.293m11.785 3.035c0-2.223 0-2.891-.551-3.657-.695-.933-1.816-1.078-2.629-1.078-2.054 0-3.011 1.555-3.343 2.297h-.028v-8.34l-3.32.262v.695c1.625 0 1.816.164 1.816 1.336v12.524c0 1.074-.261 1.074-1.816 1.074v.691c.621-.046 1.914-.046 2.582-.046.691 0 1.984 0 2.601.046v-.691c-1.527 0-1.812 0-1.812-1.074v-4.446c0-2.507 1.648-3.847 3.129-3.847 1.48 0 1.816 1.219 1.816 2.676v5.617c0 1.074-.265 1.074-1.816 1.074v.691c.621-.046 1.914-.046 2.582-.046.691 0 1.98 0 2.601.046v-.691c-1.195 0-1.789 0-1.812-.715zm6.523-8.914c0-.621-.504-1.172-1.171-1.172a1.15 1.15 0 0 0-1.149 1.148c0 .715.574 1.172 1.149 1.172.742 0 1.171-.625 1.171-1.148m-3.296 4.445v.691c1.527 0 1.742.145 1.742 1.317v6.5c0 1.074-.262 1.074-1.817 1.074v.691c.668-.046 1.817-.046 2.508-.046.266 0 1.652 0 2.465.046v-.691c-1.555 0-1.648-.121-1.648-1.051v-8.797zm12.902 0v.691c1.625 0 1.816.168 1.816 1.34v4.278c0 2.031-1.078 3.726-2.867 3.726-1.961 0-2.078-1.125-2.078-2.387v-7.914l-3.371.266v.691c1.816 0 1.816.075 1.816 2.2v3.586c0 1.48 0 2.339.715 3.128.574.622 1.555.911 2.774.911.406 0 1.171 0 1.984-.696.691-.547 1.074-1.457 1.074-1.457v2.153l3.32-.243v-.691c-1.625 0-1.812-.168-1.812-1.34v-8.508zm13.574.168c0-.434 0-.551-.242-.551-.188 0-.641.524-.813.742-.738-.597-1.48-.742-2.242-.742-2.894 0-3.754 1.578-3.754 2.891 0 .265 0 1.101.91 1.937.762.668 1.575.836 2.676 1.051 1.313.262 1.625.332 2.223.813.43.359.738.882.738 1.55 0 1.032-.597 2.176-2.699 2.176-1.578 0-2.723-.906-3.25-3.297-.094-.429-.094-.453-.117-.476-.051-.098-.145-.098-.215-.098-.266 0-.266.121-.266.551v3.25c0 .43 0 .551.239.551.121 0 .144-.024.55-.528.121-.168.121-.215.477-.597.91 1.125 2.199 1.125 2.605 1.125 2.508 0 3.75-1.387 3.75-3.274 0-1.293-.785-2.058-1-2.273-.863-.739-1.507-.883-3.086-1.172-.714-.141-2.46-.477-2.46-1.91 0-.739.503-1.84 2.656-1.84 2.601 0 2.746 2.223 2.793 2.965.023.191.191.191.261.191.266 0 .266-.121.266-.551zm10.582 3.727c0-1.29 0-2.247-1.047-3.18-.84-.762-1.914-1.098-2.965-1.098-1.961 0-3.464 1.289-3.464 2.844 0 .691.453 1.027 1.003 1.027.575 0 .981-.406.981-.98 0-.981-.863-.981-1.219-.981.551-1.004 1.695-1.433 2.653-1.433 1.097 0 2.507.91 2.507 3.058v.957c-4.804.071-6.617 2.078-6.617 3.918 0 1.891 2.195 2.489 3.656 2.489 1.575 0 2.653-.957 3.106-2.106.094 1.125.836 1.985 1.863 1.985.5 0 1.887-.336 1.887-2.247v-1.339h-.524v1.339c0 1.364-.574 1.555-.91 1.555-.91 0-.91-1.269-.91-1.625zm-1.551 3.011c0 2.34-1.742 3.129-2.773 3.129-1.168 0-2.149-.859-2.149-2.008 0-3.152 4.063-3.441 4.922-3.488zm31.141-6.238h2.699v-.691h-2.746v-2.797c0-2.149 1.098-3.25 2.078-3.25.192 0 .547.047.836.191-.094.024-.695.238-.695.934 0 .547.383.929.933.929.575 0 .957-.382.957-.953 0-.886-.859-1.578-2.007-1.578-1.672 0-3.563 1.289-3.563 3.727v2.797h-1.863v.691h1.863v7.84c0 1.074-.262 1.074-1.812 1.074v.691c.668-.046 1.98-.046 2.699-.046.644 0 2.34 0 2.89.046v-.691h-.476c-1.746 0-1.793-.262-1.793-1.121zm12.312 3.227c0-1.29 0-2.247-1.05-3.18-.836-.762-1.91-1.098-2.965-1.098-1.957 0-3.465 1.289-3.465 2.844 0 .691.453 1.027 1.004 1.027.574 0 .98-.406.98-.98 0-.981-.859-.981-1.218-.981.55-1.004 1.699-1.433 2.652-1.433 1.102 0 2.508.91 2.508 3.058v.957c-4.801.071-6.617 2.078-6.617 3.918 0 1.891 2.199 2.489 3.656 2.489 1.578 0 2.652-.957 3.105-2.106.098 1.125.836 1.985 1.864 1.985.503 0 1.89-.336 1.89-2.247v-1.339h-.527v1.339c0 1.364-.574 1.555-.906 1.555-.911 0-.911-1.269-.911-1.625zm-1.554 3.011c0 2.34-1.742 3.129-2.77 3.129-1.172 0-2.152-.859-2.152-2.008 0-3.152 4.062-3.441 4.922-3.488zm8.187-11.351c0-.621-.5-1.172-1.168-1.172a1.15 1.15 0 0 0-1.148 1.148c0 .715.574 1.172 1.148 1.172.739 0 1.168-.625 1.168-1.148m-3.297 4.445v.691c1.532 0 1.746.145 1.746 1.317v6.5c0 1.074-.261 1.074-1.816 1.074v.691c.668-.046 1.816-.046 2.508-.046.266 0 1.648 0 2.461.046v-.691c-1.551 0-1.649-.121-1.649-1.051v-8.797zm10.039 1.121c0-.644-.55-1.144-1.148-1.144a1.15 1.15 0 0 0-1.172 1.144c0 .719.598 1.172 1.149 1.172.644 0 1.171-.5 1.171-1.172m0 7.984c0-.644-.55-1.148-1.148-1.148-.695 0-1.172.551-1.172 1.148 0 .715.598 1.168 1.149 1.168.644 0 1.171-.5 1.171-1.168m-217.707-86.613-3.324.262v.691c1.625 0 1.821.168 1.821 1.34v14.289h.523c.094-.191.766-1.387.859-1.551.551.883 1.578 1.789 3.11 1.789 2.746 0 5.16-2.316 5.16-5.398 0-3.035-2.246-5.379-4.899-5.379-1.312 0-2.437.598-3.25 1.602zm.047 8.938c0-.434 0-.481.266-.864.57-.859 1.625-1.55 2.793-1.55.719 0 3.226.285 3.226 4.875 0 1.601-.238 2.601-.812 3.464-.477.739-1.434 1.481-2.629 1.481-1.289 0-2.129-.836-2.535-1.481-.309-.503-.309-.597-.309-1.003zm13.075-8.938-3.325.262v.691c1.625 0 1.817.168 1.817 1.34v12.52c0 1.078-.262 1.078-1.817 1.078v.691c.668-.047 1.84-.047 2.559-.047.715 0 1.91 0 2.582.047v-.691c-1.531 0-1.816 0-1.816-1.078zm13.355 11.469c0-3.082-2.34-5.543-5.113-5.543-2.867 0-5.137 2.531-5.137 5.543 0 3.059 2.387 5.351 5.113 5.351 2.821 0 5.137-2.339 5.137-5.351m-5.113 4.824c-.883 0-1.961-.379-2.653-1.551-.644-1.074-.668-2.484-.668-3.488 0-.91 0-2.367.739-3.441a3.06 3.06 0 0 1 2.558-1.41c.934 0 1.938.429 2.578 1.363.743 1.097.743 2.605.743 3.488 0 .836 0 2.316-.622 3.441-.667 1.149-1.765 1.598-2.675 1.598m15.195-8.551c-.285 0-1.172 0-1.172.977 0 .574.406.98.981.98.55 0 1.004-.332 1.004-1.027 0-1.602-1.672-2.746-3.61-2.746-2.793 0-5.015 2.484-5.015 5.496 0 3.059 2.292 5.398 4.992 5.398 3.156 0 3.871-2.867 3.871-3.082s-.168-.214-.238-.214c-.215 0-.239.07-.309.359-.527 1.695-1.816 2.41-3.109 2.41-1.457 0-3.391-1.262-3.391-4.894 0-3.969 2.031-4.95 3.223-4.95.91 0 2.226.36 2.773 1.293m10.398 0c-.285 0-1.168 0-1.168.977 0 .574.407.98.981.98.547 0 1.004-.332 1.004-1.027 0-1.602-1.676-2.746-3.61-2.746-2.796 0-5.019 2.484-5.019 5.496 0 3.059 2.293 5.398 4.996 5.398 3.152 0 3.871-2.867 3.871-3.082s-.168-.214-.238-.214c-.219 0-.242.07-.313.359-.523 1.695-1.816 2.41-3.105 2.41-1.457 0-3.395-1.262-3.395-4.894 0-3.969 2.032-4.95 3.227-4.95.906 0 2.223.36 2.769 1.293m12.719 3.727c0-3.082-2.34-5.543-5.113-5.543-2.867 0-5.137 2.531-5.137 5.543 0 3.059 2.391 5.351 5.113 5.351 2.821 0 5.137-2.339 5.137-5.351m-5.113 4.824c-.883 0-1.957-.379-2.652-1.551-.645-1.074-.668-2.484-.668-3.488 0-.91 0-2.367.738-3.441a3.07 3.07 0 0 1 2.558-1.41c.934 0 1.938.429 2.583 1.363.742 1.097.742 2.605.742 3.488 0 .836 0 2.316-.625 3.441-.668 1.149-1.766 1.598-2.676 1.598m18.043-8.289c-.406.024-.5.047-.5.262 0 .238.117.238.547.238h1.101c2.032 0 2.938 1.676 2.938 3.969 0 3.129-1.625 3.965-2.793 3.965-1.149 0-3.11-.547-3.801-2.125.766.121 1.457-.313 1.457-1.172 0-.692-.504-1.172-1.172-1.172-.57 0-1.195.336-1.195 1.246 0 2.125 2.129 3.871 4.781 3.871 2.844 0 4.945-2.176 4.945-4.59 0-2.199-1.765-3.918-4.062-4.324 2.078-.598 3.418-2.344 3.418-4.207 0-1.887-1.957-3.273-4.277-3.273-2.391 0-4.161 1.457-4.161 3.203 0 .957.743 1.144 1.102 1.144.504 0 1.074-.355 1.074-1.074 0-.766-.57-1.098-1.097-1.098-.145 0-.192 0-.262.024.906-1.625 3.152-1.625 3.269-1.625.789 0 2.344.359 2.344 2.699 0 .453-.07 1.793-.765 2.82-.715 1.051-1.528 1.121-2.172 1.149z"/></g></svg>