<svg xmlns="http://www.w3.org/2000/svg" width="86pt" height="154pt" viewBox="0 -154 86 154"><g id="page1" fill-rule="evenodd"><path fill="#fce6e5" d="M38.969-93.371c1.152.621 1.062 2.39-.09 2.922-1.328.531-2.48-.707-2.035-2.035.265-.887 1.238-1.329 2.125-.887m16.742.441c.707.266.887 1.243.441 1.774-.617.797-1.859.441-1.945-.531 0-.977.707-1.594 1.504-1.243m-4.074 7.176c5.136.445 9.3 1.684 12.402 3.633l.883.621-.266.617c-5.047 12.668-31.71 16.742-45.265 6.824-.532-.355-.883-.71-.883-.797 7.793-6.91 22.676-11.785 33.129-10.898m-.09 1.418c1.773.442 1.95 1.328.445 2.836l-.886.887.175.972c.09.707.09 1.239 0 1.684-.175.797-.086.887.266 1.063.621.355 1.684.09 2.57-.622.621-.441.707-.441.442.18-.707 1.238-2.391 1.86-3.543 1.238-.442-.175-.532-.175-.621-.09-1.149 1.332-4.872 1.243-6.376-.265-.796-.797-.886-1.238-.09-.617 2.571 1.949 6.38.882 6.38-1.774-.09-1.594-.09-1.683-1.063-2.039-1.418-.531-2.836-1.594-2.836-2.21 0-.888 3.367-1.684 5.137-1.243M43.84-67.152c2.039 2.836 5.14 8.949 6.554 12.758l.356.796-1.062.707c-4.43 2.836-2.922 10.543 2.124 11.164l.622.086-.176.977c-2.305 14.617-19.934 14.793-22.235.266l-.09-.532.708.442c9.215 5.05 15.414-6.91 6.379-12.489-1.418-.886-2.836-1.949-3.899-2.925l-.617-.532.352-2.125c.445-2.656.71-5.047.886-7.261l.09-1.598 1.063.09c1.152.09 7.972 0 8.414-.09.265-.086.355 0 .53.266"/><path fill="#f19c97" d="M35.867-152.633c1.864.356 3.723 1.684 4.078 3.633.532 2.566.086 5.227-.62 7.707-2.216 6.379-6.821 11.691-8.77 18.246-.621 2.125-.621 4.34-.356 6.469-.441.176-2.125.797-.972.617 6.109-.887 12.753-1.238 18.601 1.328 4.961 2.129 8.59 6.735 10.719 11.695 1.594 4.075 3.543 8.06 5.226 12.137 1.063 2.746 2.215 5.758 1.329 8.68 0 .973-.621.265-1.063 0-5.316-3.367-11.871-4.074-18.07-3.633-9.746.797-19.313 4.52-27.02 10.633-.62.265-.09 1.062-.797.352-2.304-2.391-4.43-4.962-5.582-8.06-3.011-7.089-1.86-15.413 2.215-21.792 2.57-4.25 6.29-7.617 10.543-10.098.531-.621-1.594.797-1.773-.355-4.075-5.403-7.352-11.957-7.176-18.957.18-5.934 3.101-11.692 7.887-15.235 3.277-2.394 7.441-4.164 11.601-3.367m-.441 6.024c.707.175 2.57 1.242.886.796-1.683-.707-1.242 1.508-1.328 2.571-.09 3.277-1.242 6.379-2.66 9.211-1.77 3.808-3.984 7.441-5.047 11.515-.09.711-.265 1.508-.355 2.215.355.887.797 1.684.973 2.571-1.594-1.95-2.657-4.34-3.454-6.821-1.683-5.582-1.418-11.871 1.239-17.187 1.418-2.746 4.078-5.313 7.355-5.227.797 0 1.684.09 2.39.356m31.8 3.898c3.454.707 7.087 2.391 8.946 5.578.8 1.332.8 3.192-.086 4.52-1.86 3.367-5.492 4.961-8.86 6.379-5.933 2.39-12.312 3.543-17.98 6.464-1.418.797-2.57 1.774-3.633 2.922-1.593-.351-3.191-.617-4.785-.882.09-4.52 1.063-9.125 3.191-13.11 3.278-6.293 9.567-11.164 16.743-12.051 2.125-.265 4.34-.175 6.465.18m-1.328 5.227c2.57.531 5.317 2.214 5.758 4.961.266.972-.531-.711-.797-.887-.445-.707-.796-.176-1.152.265-2.125 2.215-4.605 4.165-7.531 5.317-4.34 1.769-9.035 3.012-13.196 5.492-1.417.797-2.394 2.215-2.925 3.809-.442.617.09-1.243.09-1.594 1.328-6.645 5.667-12.758 11.69-15.945 2.481-1.243 5.317-1.95 8.063-1.418m-24.98 42.34c2.922.976 4.164 4.785 2.746 7.355-1.062 2.39-4.34 3.543-6.465 1.86-2.66-1.95-2.746-6.47-.09-8.415 1.063-.887 2.567-1.242 3.809-.8m16.832.8c2.48 1.504 2.656 5.227.973 7.352-1.063 1.504-3.633 1.594-4.782.086-1.863-2.211-1.507-6.2 1.149-7.528.887-.445 1.863-.355 2.66.09M26.746-69.012c2.035.711 4.16 1.063 6.29 1.418 0 3.367-.446 6.735-.977 10.012-.532 1.063-1.418-1.152-1.86-1.598-1.328-2.125-2.48-4.34-3.277-6.73-.356.176.265 2.125.441 2.922 1.332 4.875 5.227 8.593 9.301 11.25 1.863 1.242 3.723 3.011 3.633 5.406 0 .441.18 1.063-.531 1.148-1.063.711-2.48.711-3.633.09.445.621 1.773 1.063 2.746 1.063 1.332-.442 1.066.445.355 1.062-.972 1.418-3.101 1.864-4.605.977-1.063-.09 2.656 1.328.707 1.238-3.453.266-6.465-2.125-8.59-4.695-3.988-4.696-5.848-11.25-4.254-17.184.621-2.304 1.594-4.605 3.102-6.465.355-.265.797 0 1.152.086m20.02 2.395c4.43 3.629 8.414 8.148 10.187 13.64.797 2.832.973 6.38-1.066 8.77-.617.797-1.594 1.238-2.567 1.418.621-.531 1.153-1.152 1.504-1.863-1.062 1.152-2.746 1.863-4.25 1.242-.531-.266-1.328-.977-1.508-1.418 1.508 0 2.836-.887 3.368-2.215-.887.797-2.125 1.773-3.453 1.242-1.153-.797-.977-2.48-.801-3.633.355-1.507 1.683-2.48 2.836-3.277 1.418-1.062 2.39-2.836 2.215-4.605-.442.882-.887 1.949-1.594 2.656-1.684-4.254-3.809-8.328-6.203-12.313-1.149-1.949.886.086 1.332.356M20.809-56.61c.53 5.316 3.011 10.453 7 14.086 1.418.617 1.593 2.035 1.77 3.453.796 4.164 3.722 8.148 7.886 9.48 2.48.883 5.226.707 7.617-.18-2.836 1.86-6.203 3.192-9.566 3.81-1.243-.352-1.153-2.302-1.864-3.278-1.77-3.63-3.894-7.352-7.261-9.567-1.418-.972-3.278-1.328-4.785-.53-1.684-.177-3.63-.532-5.137.796-1.594.977-2.39 2.926-1.95 4.785-.355.531-.707 2.832-1.238 1.328-1.863-3.277-1.863-7.265-.62-10.718 1.417-4.34 4.429-7.797 6.554-11.782.441-.62 1.152-2.57 1.508-2.39 0 .175.086.441.086.707m-11.957 7c1.238.351 2.125 1.238 2.746 2.3.53-.441 1.859-2.214 2.48-1.593-2.66 4.074-4.164 9.125-3.012 13.906.176 1.328 1.153 2.57 1.329 3.809-1.329.265-2.57-.352-3.457-1.329-.797 0-1.594.356-2.391.09-2.125-.441-3.543-2.922-2.746-4.96.886-1.684-1.95-.622-2.301-2.04-.977-1.328-.09-3.453 1.594-3.629.617 0 1.504.176.886-.62-1.152-2.391.442-5.669 3.098-6.024.621-.09 1.242-.09 1.774.09m55.984 7.172c1.418.09 2.832 1.331 2.922 2.835.176.797-.442 2.57-.176 2.657.707-.973.707-2.301.887-3.453.972 1.593.441 3.632-.18 5.316-.887 1.945-2.215 3.629-3.543 5.313-.621-.797-1.77-.973-2.656-.532-2.57.977-4.696 2.922-6.113 5.317-.797.886.265 3.277-1.684 2.3-1.684-.53-2.746-2.035-4.34-2.566-2.215-.977-4.605-1.418-6.91-1.95 4.43-2.214 8.418-5.937 9.832-10.808.531-1.062 1.066 1.242 1.508 1.774.972 1.238.09 2.746-.09 4.164-.176.53-.266 1.77.18.617 1.238-2.746 2.39-5.668 4.605-7.883.973-1.062 2.832-.973 3.633.176.707.887.707 1.95.617 3.012-.266-1.594-2.3-.883-2.39.445-.532 1.77 1.949 1.684 2.124.176.532-.973-.351 1.683.356.355.973-1.684 1.238-4.164-.441-5.492-.356-.621-2.746-.707-1.153-1.328.973-.356 1.95-.711 3.012-.446m2.3 2.746c.887 1.062.266 3.011-.882 3.632-1.684.266-1.242-2.3-.531-3.187.351-.356.883-.797 1.414-.445m-41.808 1.507c2.567 1.504 4.25 4.164 5.844 6.73 1.863 3.458 3.633 7.177 3.988 11.165.176 1.328-.09 3.277-1.773 3.363-2.746.356-5.313-.883-7.793-2.035-3.723-1.95-7.352-4.52-9.657-8.148-.972-1.598-1.507-3.547-.707-5.317.883 1.239 2.391 2.035 3.895 2.48-1.414-1.417-3.277-2.745-3.363-4.96.175-2.215 2.566-4.164 4.781-3.278 1.773.621 2.746 2.215 3.543 3.72.18-.708-.617-2.567-1.328-3.544-.442-1.328 1.949-.441 2.57-.176m.797 1.063c1.328.797.266 3.102-1.062 1.95-1.418-.622-.887-3.368.796-2.126l.09.086zm-5.668.973c1.328.62 2.39 2.394 1.594 3.722-1.063 1.153-2.926.266-3.457-.976-.707-.973-.532-2.746.976-2.746.266-.086.621-.086.887 0m-3.281 6.203c1.863.886.27 3.543-1.238 1.949-1.418-1.063-.176-3.192 1.238-1.95m10.367.707c2.922 1.152 5.137 3.808 5.758 6.82.351 1.508-.356 3.457-2.13 3.723-2.3.175-4.425-1.508-5.843-3.192-1.328-1.593-2.394-3.718-1.86-5.843.442-1.774 2.567-2.125 4.075-1.508"/><path fill="#f8b2b0" d="M33.742-143.688c-.09 3.809-.62 5.672-2.746 10.102-3.012 6.199-4.074 8.945-4.43 11.336l-.085.797-.622-1.77c-3.632-10.984-.265-21.347 7.352-22.59l.621-.089zm32.246 7.532c.973.176 3.098 1.062 3.364 1.418.09.175-1.684 2.035-3.012 3.097-2.125 1.774-3.63 2.571-7.176 3.899-6.73 2.57-9.035 3.633-11.336 5.492l-.355.266.265-.797c4.254-9.657 11.16-14.703 18.25-13.375m1.149 96.91c.71.973-.707 3.719-1.504 2.746-.442-.531-.176-1.95.531-2.66.355-.442.707-.442.973-.086m-41.278 2.48c.621.618.621 1.418 0 1.504-.62.09-1.507-1.152-1.152-1.77.176-.355.707-.265 1.152.266m36.852.086c.266.18.176.977-.09 1.508-.621.797-1.418.707-1.418-.176 0-.976.973-1.863 1.508-1.332m-42.254 1.067c.266.175.707.441.883.707 1.594 1.77-.086 3.633-1.86 2.039-1.683-1.508-.886-3.723.977-2.746m43.05 5.312c.177.09.442.266.618.531l.266.266-1.414 1.418c-2.395 2.305-6.114 5.137-6.91 5.137-.356 0 .351-1.77 1.238-3.012 2.039-2.922 4.695-4.781 6.203-4.34M17-29.59c1.063.797.621 2.125-.531 1.414-.442-.176-.797-.797-.797-1.148 0-.621.707-.797 1.328-.266m10.098.617c3.191.977 6.203 4.961 5.847 7.707-.441 3.899-6.289 2.04-8.593-2.746-1.504-3.367-.176-5.843 2.746-4.96"/><path d="M35.691-153.785c3.985.621 5.582 2.656 5.582 7.176 0 4.254-1.062 7.261-5.316 14.617-3.809 6.82-4.785 9.39-4.785 13.019 0 2.125 0 2.125 1.418 1.774 1.863-.442 2.926-.531 5.05-.621h2.036l.09-1.418c.797-12.489 7.53-21.348 18.25-24.094 12.488-3.188 24.27 4.871 18.156 12.492-2.832 3.453-6.11 5.227-15.5 8.059-8.063 2.39-10.984 3.722-13.11 5.582l-.796.797 1.148.441c5.758 2.481 9.39 6.469 12.227 13.465.62 1.418 1.504 3.457 1.949 4.605 2.832 6.293 3.808 8.684 4.164 10.454 1.95 8.683-5.05 16.124-17.719 19.046l-1.504.356 1.149.883c10.808 9.039 14.351 23.21 6.203 25.246-1.153.265-1.153 1.152-.266 2.746.356.62.797 1.418.973 1.773.445.887.445.887.797.09 2.48-5.226 7.707-7.797 11.074-5.406.266.18.707.445.973.445 4.695.973 1.949 9.477-5.047 15.856-5.934 5.402-8.504 6.113-11.692 3.187-1.152-1.062-4.52-2.215-8.683-2.922l-1.418-.175-1.504.44c-.797.267-2.04.622-2.746.798-.797.176-1.418.265-1.418.265s.176.711.355 1.508c.532 2.035.707 3.895.532 4.871-1.243 7.262-19.934-1.683-22.415-10.629-.351-1.152-.441-1.242-.972-1.062-1.242.265-3.012 0-3.899-.8-.351-.267-.441-.352-1.504-.352-3.011 0-5.05-2.04-5.05-4.961v-1.063l-.707-.355c-2.48-1.328-2.305-5.137.265-6.29.442-.09.617-.265.531-.355-1.328-4.781 4.961-8.68 8.68-5.312l.442.441.535-.355c.707-.442 1.68-.797 2.3-.797s.977-.442 3.102-4.164c2.48-4.43 3.188-5.844 3.453-7.352.531-2.39 1.594-4.96 2.926-7.086l.531-.887-.62-.265c-17.895-7.262-18.958-34.903-1.774-43.582.355-.18.71-.356.71-.356.087 0-.355-.531-.796-1.238-8.238-11.16-9.035-22.945-2.13-31.449 4.079-5.047 10.634-7.973 15.77-7.086m.176 1.152c3.457.797 4.696 3.012 4.254 7.442-.445 3.718-1.328 6.023-5.05 12.488-4.34 7.617-5.313 10.719-4.962 15.324l.09.801-.797.351c-1.062.446-.976.446.887.18 15.059-2.215 23.828 2.125 28.7 14.172.976 2.39 1.417 3.367 3.187 7.352 3.101 6.82 3.722 9.214 2.926 12.492-2.926 11.781-26.043 17.625-41.547 10.453-17.45-7.973-16.742-32.156 1.242-42.699.973-.621 1.062-.707.176-.442-.973.266-.973.266-1.77-.886-7.09-9.481-8.683-18.868-4.61-26.84 3.368-6.821 11.25-11.426 17.274-10.188m-.441 6.024c.62.175 1.773.796 1.773.972 0 0-.355-.086-.886-.176-1.329-.265-1.243-.351-1.329 1.774-.18 4.34-.8 6.289-3.812 12.398-2.922 5.758-3.809 7.887-4.074 10.278l-.176.972.531 1.418c.707 1.594.621 1.594-.265.356-8.063-12.047-2.305-31.36 8.238-27.992m-1.684 2.921c-.09 3.809-.62 5.672-2.746 10.102-3.012 6.199-4.074 8.945-4.43 11.336l-.085.797-.622-1.77c-3.632-10.984-.265-21.347 7.352-22.59l.621-.089zm33.485.977c6.199 1.152 10.718 5.668 9.3 9.211-1.683 3.988-5.668 6.379-16.297 9.656-8.859 2.746-11.96 4.164-14.085 6.379l-.532.617-1.508-.261c-.882-.18-1.77-.356-2.035-.446-.265 0-.71-.086-.886-.175h-.356l.09-1.594c.797-15.149 12.844-25.867 26.309-23.387m-1.329 5.227c3.012.621 5.493 2.656 5.758 4.871l.09.531-.355-.621c-.266-.266-.532-.707-.711-.797l-.352-.352-1.062 1.149c-3.102 3.012-5.141 4.254-10.188 6.023-9.3 3.367-11.605 4.696-12.668 7.266-.62 1.594-.707 1.594-.355-.266 1.773-10.543 11.695-19.398 19.843-17.804m.09 1.328c.973.176 3.098 1.062 3.364 1.418.09.175-1.684 2.035-3.012 3.097-2.125 1.774-3.63 2.571-7.176 3.899-6.73 2.57-9.035 3.633-11.336 5.492l-.355.266.265-.797c4.254-9.657 11.16-14.703 18.25-13.375m-25.07 41.012c4.605 1.683 4.34 8.683-.266 9.835-3.101.797-5.933-2.214-5.492-5.757.442-2.926 3.278-4.961 5.758-4.078m16.832.8c3.453 1.946 2.3 8.504-1.418 8.504-2.746.086-4.43-3.722-3.012-6.734.887-1.95 2.832-2.657 4.43-1.77m-18.691.973c.53.355.797.797.797 1.508 0 1.414-1.594 2.125-2.657 1.148-1.418-1.238.266-3.629 1.86-2.656m16.918.531c.441.266.62.977.355 1.508-.445 1.063-1.95.797-2.125-.445-.18-.973.973-1.684 1.77-1.063m-5.051 8.504c2.304.355 2.57 1.684.71 3.188l-.44.355v1.86c0 1.773 0 1.863.265 2.039.617.44 1.86.175 2.746-.622.531-.441.531-.351.176.266-.711 1.242-2.215 1.684-3.543 1.063-.356-.176-.446-.176-.621 0-1.504 1.331-5.492 1.066-6.465-.532-.445-.707-.356-.797.086-.351 1.418 1.238 4.785 1.328 5.937.086.532-.618.707-1.329.532-3.012l-.09-.617-.707-.27c-4.254-1.328-3.102-4.16 1.414-3.453m-24.18 15.324c1.238.446 3.543.977 4.961 1.243l1.328.175v1.328c0 2.125-.887 8.77-1.152 9.036-.442.53-3.723-5.137-4.606-7.883q-.796-2.126-.265.531c.797 4.871 3.808 8.945 9.12 12.492 3.013 1.946 4.165 3.543 4.165 5.578v1.063l-.707.445c-.977.441-2.125.441-3.102.086-.707-.352-.531-.086.266.355.797.446 1.86.622 2.656.532.621-.176.711-.176.18.62-1.153 1.77-3.012 2.392-4.785 1.505-.621-.266-.621-.266-.352 0 .176.09.617.355.973.62.972.446.797.532-.797.532-4.961 0-10.719-6.379-12.227-13.465-1.062-4.87-.175-9.922 2.66-14.172.618-.972.618-.972 1.684-.62m20.02 2.395c7.793 6.375 11.867 14.082 10.453 19.754-.446 2.125-1.864 3.718-3.457 3.984l-.442.09.532-.531c.265-.266.62-.621.707-.887l.265-.445-.531.445c-1.418 1.328-3.543 1.328-4.781 0l-.446-.531.621-.18c.887-.086 1.774-.617 2.305-1.414.617-.8.617-.977 0-.355-1.418 1.417-3.367 1.328-3.722-.09-.622-2.125.09-4.164 1.949-5.313 1.949-1.242 3.011-3.012 3.011-4.695v-.531l-.265.53c-.531 1.15-1.238 2.216-1.328 2.126s-.356-.797-.711-1.684c-.883-2.125-3.188-6.73-4.692-9.21-1.597-2.747-1.597-2.837.532-1.063m-1.864 1.148c2.395 3.809 3.813 6.645 5.141 9.922.883 2.215.883 1.95-.266 2.656-4.43 2.836-3.101 10.188 1.95 11.164.882.086.882 0 .53 1.684-.796 3.984-3.276 7.793-5.757 8.945-7.797 3.72-15.414-.53-16.477-9.125l-.09-.707 1.063.532c9.48 4.43 14.707-6.82 5.848-12.579-1.86-1.242-3.278-2.39-3.989-3.101l-.351-.356.266-2.035c.53-3.191.796-4.87.796-7l.086-2.035 1.332.086c1.68.18 5.578.18 7.352 0l1.418-.086zm-24.093 8.86c.53 5.757 3.898 11.957 8.152 14.968.176.18.266.356.352 1.153 1.062 8.504 8.152 13.379 15.68 10.718.62-.175-1.24.887-2.657 1.594-1.773.797-3.898 1.508-5.672 1.95-1.68.355-1.594.445-2.125-.883-3.453-8.774-8.68-13.91-12.488-12.403-.711.266-.797.266-1.242.176-3.188-1.152-6.997 1.95-6.29 5.05.09.442.09.618-.09.884-.175.18-.35.71-.44 1.066-.266.797-.356.797-1.063-.887-2.125-4.52-1.242-9.832 2.746-15.855 1.594-2.57 2.656-4.344 3.984-6.734.535-.973.977-1.77.977-1.77.09 0 .09.352.176.973m-11.957 7c.886.265 1.859.972 2.39 1.77.531.706.442.706.887 0 .355-.532.973-.974 1.684-1.153.44-.176.44-.176-.266.976-3.192 5.227-3.723 11.16-1.508 15.68.621 1.238.621 1.148-.355 1.148-.883 0-1.594-.265-2.301-.972l-.531-.442-.711.176c-2.125.442-4.25-1.062-4.516-3.277-.09-.531 0-.977.355-2.39.086-.266 0-.266-.445-.266-1.418 0-2.39-1.067-2.39-2.395s.972-2.3 2.48-2.3h.621l-.355-.798c-1.328-3.28 1.593-6.734 4.96-5.757m55.984 7.172c2.48.355 3.453 2.214 2.656 5.406-.09.351-.09.351.09.086.352-.442.797-1.86.797-2.746 0-.883.176-.883.441 0 .621 2.304-.53 5.406-3.187 8.77l-.887 1.151-.531-.44c-2.04-1.86-9.477 4.429-8.594 7.26.266 1.063-2.215.266-3.809-1.238-1.062-.976-3.808-1.949-7.792-2.746l-.977-.265.887-.445c4.34-2.391 7.53-5.934 8.86-9.919.35-1.242.265-1.242 1.237.708.977 1.859.977 1.773.621 3.101-.355 1.152-.62 3.012-.53 2.832.089 0 .355-.617.62-1.238 2.922-6.555 5.047-8.86 7.262-7.617q1.464.795 1.328 2.922v.707l-.176-.442c-.62-1.504-2.746.176-2.215 1.684.442 1.062 1.684.62 2.126-.621.18-.621.265-.266.09.445-.176.617.09.266.53-.621 1.153-2.656.356-4.961-1.949-5.582-.355-.086-.62-.266-.53-.266.175-.355 2.304-1.062 2.835-.972 0 0 .352 0 .797.086m2.3 2.746c.712.445.532 2.304-.265 3.191-1.062 1.152-2.125.176-1.68-1.328.352-1.508 1.239-2.305 1.946-1.863m0 .445c.712.973-.706 3.719-1.503 2.746-.442-.531-.176-1.95.531-2.66.355-.442.707-.442.973-.086m-41.808 1.062c5.492 2.746 12.403 18.957 8.945 20.993-2.656 1.507-10.718-1.95-15.59-6.641-3.187-3.012-4.34-5.848-3.632-8.238l.18-.356.44.532a5.94 5.94 0 0 0 2.571 1.683l.883.266-1.328-1.242c-2.3-2.301-2.656-4.075-.973-5.934 2.035-2.305 5.047-1.418 6.82 1.95.356.706.622.972.532.796-.266-1.508-.621-2.57-1.328-3.367-.797-1.063.707-1.328 2.48-.442m.797 1.063c.973.973.797 2.125-.266 2.215-.797.09-1.949-1.242-1.683-2.125.265-.797 1.152-.797 1.949-.09m-.266.355c.621.618.621 1.418 0 1.504-.62.09-1.507-1.152-1.152-1.77.176-.355.707-.265 1.152.266m36.852.086c.266.18.176.977-.09 1.508-.621.797-1.418.707-1.418-.176 0-.976.973-1.863 1.508-1.332m-42.254.532c2.211.976 2.566 4.254.441 4.254-2.57 0-3.808-4.075-1.328-4.254.352-.086.707 0 .887 0m0 .535c.266.175.707.441.883.707 1.594 1.77-.086 3.633-1.86 2.039-1.683-1.508-.886-3.723.977-2.746m43.05 5.312c.177.09.442.266.618.531l.266.266-1.414 1.418c-2.395 2.305-6.114 5.137-6.91 5.137-.356 0 .351-1.77 1.238-3.012 2.039-2.922 4.695-4.781 6.203-4.34m-46.331.356c.535.355.976 1.238.8 1.683-.355 1.418-2.48.617-2.66-.976-.086-.973.887-1.418 1.86-.707M17-29.59c1.063.797.621 2.125-.531 1.414-.442-.176-.797-.797-.797-1.148 0-.621.707-.797 1.328-.266m10.543.352c3.809 1.328 6.82 6.468 5.492 9.125-1.863 3.718-8.77-.532-9.656-5.848-.445-2.656 1.504-4.25 4.164-3.277m-.445.265c3.191.977 6.203 4.961 5.847 7.707-.441 3.899-6.289 2.04-8.593-2.746-1.504-3.367-.176-5.843 2.746-4.96"/><path fill="#80bfff" d="M65.527-46.77c-1.117-.05-2.207.243-3.297.426-1.222.266-2.472.532-3.64.957-.344.055-.371.48-.188.746.586-.082 1.117-.375 1.703-.507 3.692-1.063 7.602-1.168 11.399-.797 2.074.215 4.094.773 6.062 1.465.344.21 1.063-.32.399-.403-1.09-.344-2.156-.82-3.297-1.086-1.832-.453-3.746-.64-5.633-.773-1.172-.028-2.34-.078-3.508-.028m11.055 6.247c-1.781.664-3.64 1.011-5.527 1.304-.614.051-.188.82-.426 1.223.61.156 1.3-.082 1.914-.11 2.047-.316 4.117-.714 6.031-1.488.426-.078.477-.449 0-.476-.504-.106-.957-.371-1.383-.664-.21.078-.398.132-.609.21m-5.633 3.773c-.453.508-.27 1.277-.187 1.887.054.375.293 1.011.636 1.039-.05-.797-.183-1.621-.183-2.418-.028-.16.078-.824-.266-.508m2.684 1.328c-.453.242.582.215.715.453.664.48.64 1.41.906 2.125.238.774.398 1.598.848 2.262.425-.187-.051-1.09-.106-1.516-.293-.957-.504-1.992-1.117-2.816-.29-.375-.77-.691-1.246-.508m5.312 27.934c-1.007.156-2.152.449-2.71 1.406-.266.398-.29 1.012.32 1.035.078-.531.453-1.008.93-1.273 1.09-.559 2.367-.614 3.562-.559q1.196.083 2.39.399c.211-.399-.585-.852-1.011-.875-1.008-.27-2.098-.243-3.133-.133zm-6.988 4.543c-.586 0-1.09.293-1.41.77-.238.16-.316.745.082.37.852-.82 2.152-.875 3.215-.582.746-.082-.344-.691-.692-.586a5.6 5.6 0 0 0-1.168.028z"/><path fill="#0080ff" d="M65.234-46.078c-2.285.133-4.492.691-6.644 1.41-.266.078-.32-.371-.293.105.055 1.169 1.062 1.993 1.992 2.551 2.129 1.172 4.598 1.57 6.992 1.649 2.496.054 5.047-.399 7.332-1.461.93-.399 1.836-.903 2.551-1.621.32-.293.934-.797.957-1.09-.582.133-1.168-.211-1.727-.348-2.738-.902-5.605-1.273-8.476-1.273-.902 0-1.809.027-2.684.078m12.887 7.812c-1.195.32-2.363.746-3.613.907-1.008.183-2.02.343-3.027.398-.665.027-.083.902-.243 1.328.055.61.082 1.223.215 1.809.531.422.903-.48 1.223-.797.343-.348.715-.824 1.273-.852.774.051 1.195.797 1.438 1.461.37 1.035.691 2.075.902 3.137.211.371-.426.293 0 .504.637-.055 1.035-.742 1.223-1.3.558-1.65.61-3.403.824-5.13 0-.48.266-1.144.027-1.515-.082 0-.16.027-.242.05m1.09 31.387c-.875.16-1.914.399-2.445 1.195-.157.293-.133.93-.555.48-.11.024.637.532.93.61 1.433.586 3.082.77 4.62.453.825-.242 1.755-.664 2.075-1.543.133-.453-.133-.902-.453-1.195.398.664-.477.238-.824.188-1.086-.215-2.23-.32-3.348-.188m-6.695 4.36c-.586.05-1.196.265-1.594.69-.797.184.16.821.582.876.984.293 2.234.32 2.953-.531.371-.399.106-1.196-.453-.903-.48-.133-.985-.16-1.488-.133"/><path fill="#0059b2" d="M58.059-45.172c-.985.316-1.942.824-2.79 1.406-.53.504.45 1.04.77 1.356.984.719 2.125 1.25 3.242 1.676.559.293 1.223.37 1.832.53.907.212 1.809.45 2.739.505 2.789.37 5.66.37 8.449-.106 1.305-.215 2.605-.453 3.828-.902 1.223-.559 2.39-1.223 3.457-2.047.61-.348.422-.984-.133-1.25-.402-.187-.8-.77-1.144-.719-.399.399-.72.88-1.168 1.223-2.075 1.754-4.785 2.605-7.47 2.95-2.765.347-5.632.109-8.237-.93-1.223-.504-2.524-1.247-3.004-2.579-.16-.398-.133-.797-.106-1.222zm20.726 6.031c-2.574.985-5.34 1.301-8.023 1.782-.614 0-.188.875-.293 1.25.054 1.14.054 2.336.613 3.375.266.554 1.063.53 1.406.105.504-.613.719-1.437 1.301-1.969.559-.05.852.664 1.012 1.117.37 1.036.664 2.098 1.008 3.165 0 .582.48 1.378 1.172 1.222.69-.242 1.007-1.011 1.3-1.62.77-2.02.985-4.2 1.196-6.352.054-.664.187-1.356.082-2.047-.082-.426-.532-.133-.774-.028m-.664.875c-1.328.375-2.629.825-4.012 1.04-.93.16-1.914.183-2.843.37-.692.188-.586 1.012-.586 1.544.054.476.11 1.062.535 1.355.37.398.953.21 1.14-.266.293-.398.664-.718 1.012-1.066.504.082 1.063.187 1.328.691.344.559.344 1.278.582 1.887.266.746.399 1.598.88 2.262.609.238 1.116-.613 1.327-1.09.532-1.488.586-3.082.797-4.652.055-.692.188-1.407.16-2.098-.078-.082-.21.023-.32.023m5.184 31.254c-.188-.078.425.399.398.637.238.664-.133 1.355-.719 1.676-1.246.691-2.734.691-4.117.504-.984-.16-1.969-.453-2.765-1.035-.106-.32-.079-.348-.051.027.21.902 1.168 1.328 1.992 1.594 1.7.476 3.586.476 5.234-.16.664-.32 1.516-.692 1.676-1.489.028-.797-.746-1.3-1.383-1.676-.054 0-.238-.183-.265-.078m-9.036 4.36c.61.449.239 1.328-.37 1.566-.958.504-2.18.348-3.083-.238-.64-.371.317-1.168.266-1.196-.402.266-.879.848-.508 1.329.692.824 1.86.957 2.871.851.692-.082 1.543-.32 1.809-1.039.156-.691-.531-1.14-1.063-1.383v.028z"/><path fill="#036" d="M79.184-44.137c.425.239 1.117.742.535 1.223-1.012.984-2.313 1.516-3.563 2.098.61-.133 1.223-.422 1.781-.715.825-.48 1.672-.957 2.231-1.73.082-.555-.742-.77-1.117-1.063-.211-.106-.637-.29-.184-.024.106.078.211.133.317.211m-22.746 2.02c.742.504 1.593.879 2.445 1.25.398.105-.614-.32-.824-.426-.532-.266-1.09-.559-1.621-.824M79.53-7.757c-1.035.132-2.101.48-2.949 1.116-.348.293-.797.641-.719 1.196 0 .824.664 1.437 1.383 1.754.692.375 1.434.64 2.207.586.93.027 1.887.078 2.816-.028.848-.21 1.7-.61 2.364-1.168.453-.453.691-1.222.265-1.754-.292-.425-.691-.797-1.167-1.011-1.305-.582-2.766-.797-4.2-.692m-.37.269c-1.04.133-2.235.422-2.872 1.351-.426.586-.187 1.41.371 1.809 1.04.797 2.39.984 3.668 1.035 1.383 0 2.899-.21 4.012-1.113.508-.348.746-1.09.32-1.594-.851-1.117-2.312-1.465-3.64-1.543-.614-.027-1.25 0-1.86.055M72.3-3.133c-.582.133-1.219.32-1.645.77-.531.426-.398 1.226.078 1.625.664.636 1.649.664 2.524.742.746-.055 1.383-.477 1.969-.879.343-.477.343-1.246-.188-1.594-.77-.582-1.781-.77-2.738-.664m-.106.215c-.636.078-1.328.344-1.62.98-.372.614.347 1.145.878 1.329 1.09.425 2.445.453 3.403-.29.582-.374.449-1.195-.11-1.542-.715-.504-1.672-.61-2.55-.477"/><path fill="#f2f2f2" d="M65.02-52.375a31.4 31.4 0 0 0-6.641 1.145c-2.18.664-4.414 1.593-6.035 3.265-.93.93-1.567 2.367-1.168 3.696.476 1.675 1.941 2.816 3.402 3.667 2.922 1.594 6.27 2.313 9.566 2.63 1.782.187 3.587.187 5.368.132.558.082 1.09-.426.902-1.008-.477-.293-1.086-.187-1.621-.238-2.258-.055-4.543-.027-6.774-.508-2.285-.476-4.597-1.195-6.406-2.71-.984-.825-1.781-2.098-1.46-3.426.343-1.461 1.648-2.473 2.921-3.165 3.032-1.62 6.512-2.18 9.942-2.257 3.398-.055 6.882.37 10.07 1.648 1.46.637 2.977 1.461 3.773 2.895.692 1.222.372 2.87-.636 3.855-.664.742-1.594 1.195-2.391 1.781-.16.504.797.504 1.14.715.239.055.481.188.72.215 1.62-.824 3.269-1.836 4.144-3.457.637-1.14.531-2.602-.211-3.668-1.117-1.645-2.926-2.629-4.707-3.375a28 28 0 0 0-6.883-1.672 62 62 0 0 0-7.016-.16M52.183-39.062c0 .906-.078 1.808 0 2.71.402.426.48-.636.558-.902.055-.586.64-.93.614-1.516.05-.582.027-1.167.132-1.753-.347-.371-.824-.797-1.25-.93-.054.797-.054 1.594-.054 2.39m3.644-.079c-.11.32.344.32.504.532 1.035.93 1.117 2.632.45 3.8-.212.532-.821.692-1.141 1.036-.106 1.593-.028 3.214-.055 4.812 0 4.996.027 9.965.027 14.934.559.664 1.41.93 2.18 1.273 1.168.48 2.418.906 3.695 1.04.504-.266.157-1.09.266-1.595q.118-12 .078-24c.133-.687-.93-.398-1.355-.636a25.4 25.4 0 0 1-4.625-1.407c-.051.079-.024.133-.024.211m-1.887.77c-.613.32-.906 1.039-.906 1.703.453.238 1.172-.773 1.516-.11.343.614-.399 1.333-.88.692-.769-.05-.581.879-.155 1.195.343.48 1.14.614 1.511.082.614-.824.746-1.992.266-2.922-.238-.425-.82-.984-1.352-.64m-1.597 2.898c-.266.028-.16.293-.184.477.078 5.422.024 10.844.106 16.238.078.77.425 1.488.797 2.153.265.238.105-.61.187-.825.078-4.996.05-9.992.156-14.988 0-.664-.023-1.328-.023-2.02-.293-.32-.453-.742-.719-1.09-.105-.05-.21.028-.32.055"/><path fill="#d9d9d9" d="M66.773-52.402c.266.027 1.333 0 .559 0-.078 0-.848-.028-.559 0M51.547-42.09a11 11 0 0 0 .027 1.649c.028-.614.055-1.223 0-1.782v.028zm1.914 1.594c-.078.719-.027 1.46-.16 2.152.293-.32.824-.453 1.277-.558.399-.078.824-.133 1.25-.028-.055-.183.078-.449-.16-.504a18 18 0 0 1-2.102-1.117h-.078zm26.812 1.012c-.449.398-.476 1.035-.476 1.593-.238 2.47-.371 4.996-1.195 7.387-.293.719-.692 1.594-1.516 1.809-.742.105-1.25-.64-1.543-1.223-.371-.957-.582-1.969-.93-2.926-.132-.476-.265-1.14-.797-1.328-.398.453-.582 1.063-.957 1.543-.316.477-.93.848-1.511.582-.692-.316-.825-1.223-.957-1.91-.188-1.066-.133-2.152-.243-3.219-.398-.133-1.007.028-1.488-.023-1.754 0-3.508 0-5.262-.266-.504-.054-1.035-.16-1.566-.187 0 7.918.027 15.84-.078 23.73-.027.719.023 1.438-.082 2.153-.582.187-1.168-.106-1.727-.239-1.383-.426-2.738-.902-3.96-1.648-.239-.16-.45-.371-.372-.664 0-6.485-.054-12.996 0-19.48.028-.24-.504-.024-.691-.134-.531-.05-1.09-.156-1.516-.449-.023 1.168 0 2.336-.023 3.48-.11 4.65-.055 9.274-.16 13.926.027.293-.082.715-.266.211-.32-.53-.504-1.14-.691-1.754-.028.665.293 1.305.586 1.887.582 1.04 1.539 1.836 2.418 2.633 1.406 1.195 3.214 1.7 4.968 2.18 1.567.343 3.16.636 4.781.742 1.754 0 3.536.055 5.29-.078 2.472-.242 4.945-.797 7.203-1.836 1.035-.45 1.941-1.328 2.257-2.469.56-1.781.504-3.668.587-5.527.105-5.903.183-11.801.16-17.7-.082-.214.183-1.144-.243-.796m-25.164.875c-.16.53.664 1.035.637 1.62.266.88-.078 1.755-.559 2.473.188.532 1.223-.082 1.329-.558.507-1.012.425-2.313-.317-3.192-.265-.265-.691-.476-1.09-.343m28.672 1.195c0 .238.028 1.305.028.559 0-.56 0-1.118-.028-1.676zm-31.57 14.723c0 .293.027 1.168.027.425 0-.343 0-1.062-.027-1.168z"/><path fill="#bfbfbf" d="M67.281-51.125c.293.027 1.223 0 .45 0-.079 0-.692-.027-.45 0m-1.195.398c-2.977.184-5.98.692-8.637 2.07-1.199.641-2.445 1.516-2.87 2.9-.161.53-.161 1.167.132 1.675.477.289.93-.32 1.383-.453 2.02-1.117 4.222-1.754 6.484-2.102 4.117-.664 8.395-.554 12.434.453 1.754.453 3.43 1.118 4.972 2.047.582.477.875-.265.848-.77.133-1.277-.824-2.366-1.805-3.058-2.046-1.406-4.465-2.047-6.883-2.445a29 29 0 0 0-6.058-.317M51.12-45.12v.133c.027-.239 0-.825 0-.266zm32.66 4.996c0 .238 0 1.117.028.93v-1.91c-.028.343-.028.664-.028.98m-1.113-1.062c-.774.636-1.676 1.117-2.55 1.648-.532.398-.321 1.14-.427 1.727-.16 2.367-.398 4.757-1.117 7.015-.293.746-.664 1.649-1.46 1.942-.72.183-1.196-.504-1.438-1.063-.532-1.328-.77-2.766-1.301-4.066-.238-.692-.875-.293-1.008.238-.348.637-.719 1.41-1.465 1.676-.609.078-.93-.586-1.14-1.04a7.2 7.2 0 0 1-.453-1.648c.054.88.082 1.89.773 2.555.422.371 1.195.371 1.54-.16.452-.504.769-1.145 1.116-1.754.531-.082.743.77.875 1.222.293.93.531 1.915.906 2.868.266.613.715 1.383 1.489 1.332.824-.133 1.246-.985 1.539-1.676.851-2.363 1.012-4.918 1.25-7.387 0-.64 0-1.328.531-1.781.371-.078.106.742.188 1.008.023 5.953-.055 11.879-.16 17.808-.083 1.778-.055 3.614-.614 5.313-.344 1.117-1.223 1.969-2.258 2.445-1.515.692-3.136 1.168-4.757 1.461a32.6 32.6 0 0 1-12.118-.21c-1.992-.505-4.093-1.118-5.632-2.552-.825-.746-1.676-1.515-2.207-2.5-.266-.53-.477-1.117-.532-1.699a46 46 0 0 0 0 2.738c-.027-.453.188.555 0 .211.399.797.88 1.567 1.594 2.125 1.969 1.594 4.438 2.446 6.883 3.004a32.3 32.3 0 0 0 13.262.133c2.523-.531 5.129-1.3 7.175-2.922.875-.691 1.594-1.597 1.992-2.633 0-7.546.028-15.066.028-22.613-.028-.957.027-1.914-.133-2.844-.055-.293-.266 0-.371.078m-15.203 3.43c.293 0 1.172-.028.426-.028-.079 0-.664 0-.426.027m-.504.558c.21.023 1.383 0 .664 0-.106 0-.93-.028-.664 0m-15.332 4.437c-.027.293 0 .93 0 .266v-.824zm.555 2.258v1.86q.04-1.873 0-3.747zm31.574-.531v1.25q.034-1.279 0-2.55zm-32.13 5.82c-.026.266 0 .824 0 .238v-.476zm32.103 2.738v1.063-2.445zm-31.52 2.07c0 .294.027.93.027.239 0-.21 0-.902-.027-.82zm-.559 1.544v1.222q.042-1.236 0-2.472zM66.906-9.06c.215 0 1.117-.027.48-.027-.054 0-.718 0-.48.027"/><path d="M65.34-52.96c-2.02.108-4.04.398-6.004.878-2.527.664-5.078 1.648-7.016 3.426-1.144 1.039-2.047 2.527-1.78 4.093.105.825.558 1.594 1.034 2.286q.083 3.27 0 6.539c-.742.37-1.41.902-2.074 1.433-.957.852-1.937 1.836-2.258 3.11-.21.664.133 1.41.77 1.703.851.398 1.836.133 2.71-.082.348-.106.958-.344.825.265.133 4.57.082 9.141.16 13.715.078.715.586 1.301 1.012 1.832 1.14 1.41 2.761 2.23 4.383 2.922 2.445.93 4.996 1.438 7.574 1.676a58 58 0 0 0 6.43-.055c2.417-.238 4.812-.715 7.042-1.62 1.594-.638 3.192-1.49 4.36-2.763.504-.558.875-1.222 1.14-1.914.083-2.152.055-4.304.083-6.457.027-6.672 0-13.367.078-20.039-.028-.21-.028-.398.132-.558.375-.477.532-1.063.825-1.567.32-1.035-.079-2.125-.559-3.031-.824-1.488-2.285-2.496-3.773-3.266-2.63-1.304-5.528-1.968-8.422-2.34-2.235-.21-4.465-.238-6.672-.187m-.742.558a33 33 0 0 0-7.176 1.46c-1.969.665-3.906 1.649-5.344 3.22-.637.687-1.062 1.593-.98 2.55.023 1.621 1.113 3 2.39 3.934 1.938 1.379 4.278 2.125 6.618 2.656 2.71.531 5.472.824 8.238.852.61-.028 1.273 0 1.86-.243.343-.293.398-1.222-.266-1.09-2.207-.105-4.438-.023-6.645-.343-2.496-.399-5.023-1.063-7.148-2.524-1.09-.773-2.126-1.941-2.047-3.351.082-1.434 1.25-2.496 2.394-3.242 2.524-1.567 5.528-2.23 8.477-2.496 3.668-.32 7.441-.055 10.949 1.117 1.754.609 3.559 1.433 4.676 2.976.637.824.879 1.992.398 2.95-.61 1.328-1.86 2.152-3.055 2.87-.613.504.61.665.93.82.531.321 1.14.243 1.621-.155 1.489-.825 3.004-1.942 3.586-3.59.48-1.328-.05-2.817-.98-3.825-1.516-1.675-3.668-2.605-5.797-3.296-2.441-.746-4.996-1.196-7.547-1.223-1.727-.055-3.426-.105-5.152-.027m1.488 1.675c-2.977.184-5.98.692-8.637 2.07-1.199.641-2.445 1.516-2.87 2.9-.161.53-.161 1.167.132 1.675.477.289.93-.32 1.383-.453 2.02-1.117 4.222-1.754 6.484-2.102 4.117-.664 8.395-.554 12.434.453 1.754.453 3.43 1.118 4.972 2.047.582.477.875-.265.848-.77.133-1.277-.824-2.366-1.805-3.058-2.046-1.406-4.465-2.047-6.883-2.445a29 29 0 0 0-6.058-.317m-.027 4.04c-2.313 0-4.598.503-6.805 1.117-.691.183-1.356.449-2.02.715-.742.347-1.488.746-2.125 1.277.028.559.77.902 1.168 1.273 2.207 1.543 4.918 2.18 7.52 2.551 2.262.293 4.547.426 6.805.137 1.726-.188 3.48-.403 5.129-.957.48-.242 1.011-.399 1.515-.64 1.008-.505 2.047-1.063 2.844-1.915.398-.555-.586-.848-.957-1.113-1.676-.824-3.43-1.543-5.29-1.887-2.55-.586-5.183-.613-7.784-.559m-13.875 5.34c-.051 1.675-.051 3.35-.024 5.023.371.48.531-.586.582-.875.16-.719.64-1.41 1.41-1.57.692-.212 1.594-.372 2.18.187.984.93 1.09 2.523.477 3.691a2.24 2.24 0 0 1-1.114.985c-.879-.028-1.914 0-2.472-.797-.293-.293-.399-1.14-.985-.742-.16.078-.027.37-.078.554.024 6.461.024 12.918.078 19.375.399.743.825 1.516 1.516 2.047 1.887 1.594 4.305 2.446 6.695 3.028 4.254.957 8.692 1.039 12.969.293 2.55-.477 5.129-1.196 7.281-2.684 1.063-.742 1.996-1.754 2.445-2.977 0-7.546.028-15.066.028-22.613-.028-.957.027-1.914-.133-2.844-.238-.32-.637.45-.984.532-.637.476-1.383.797-2.02 1.25-.426.476-.238 1.195-.344 1.777-.16 2.313-.398 4.652-1.117 6.883-.293.773-.691 1.676-1.515 1.996-.715.156-1.196-.559-1.407-1.145-.508-1.328-.746-2.761-1.328-4.093-.402-.743-.906.082-1.066.53-.317.532-.61 1.2-1.223 1.49-.637.187-1.062-.532-1.3-1.009-.504-1.3-.454-2.71-.532-4.093 0-.211-.344-.051-.504-.106-1.703-.027-3.402.078-5.101-.078-2.711-.293-5.422-.773-7.973-1.73a17.5 17.5 0 0 1-4.254-2.391c-.05-.055-.21-.078-.187.105m24.425.796c-1.808.664-3.695 1.04-5.609 1.305-.531.105-.16.848-.398 1.25.53.156 1.195-.027 1.78-.055 2.126-.32 4.278-.77 6.27-1.566.586-.11.266-.453-.133-.48-.582-.055-1.007-.692-1.566-.587-.105.055-.21.082-.344.133m2.153 1.41c-2.606 1.035-5.395 1.434-8.16 1.782-.239.027-.055.343-.106.53.05 1.25.05 2.552.453 3.774.133.504.715.93 1.219.637.719-.531.879-1.539 1.516-2.18.53-.293.906.532 1.062.957.508 1.328.773 2.739 1.356 4.012.265.719 1.171.668 1.515.055.824-1.063 1.035-2.473 1.301-3.746.348-1.914.586-3.828.586-5.742 0-.477-.504-.133-.742-.079m-23.653.532c.184.558.743 1.062.77 1.726.16.88-.211 1.754-.691 2.473.398.293 1.039-.16 1.25-.559.585-1.008.53-2.472-.344-3.32-.266-.188-.64-.375-.985-.32m-1.168.187c-.668.344-.957 1.14-.933 1.887.48-.055.879-.508 1.383-.426.504.344 0 1.594-.559.957-.531-.348-.98.371-.582.797.266.477.902 1.008 1.488.664.82-.559.98-1.727.77-2.656-.133-.64-.614-1.278-1.301-1.305-.082 0-.16.055-.266.082m-2.687 3.559c-1.3.906-2.523 2.047-3.188 3.508-.293.453-.265 1.277.426 1.304.93.156 1.832-.16 2.739-.375.581-.21.288-1.035.398-1.512 0-1.011.023-2.019-.082-3.003-.027-.133-.211.078-.293.078"/></g></svg>