<svg xmlns="http://www.w3.org/2000/svg" width="455pt" height="46pt" viewBox="0 -46 455 46"><g id="page1"><path fill="none" stroke="#000" stroke-linecap="round" stroke-linejoin="round" stroke-width=".5" d="M.25-45.61h45.356V-.253H.25zm45.356 0h45.351V-.253H45.606zm45.351 0h45.356V-.253H90.957zm45.356 0h45.355V-.253h-45.355zm45.355 0h45.352V-.253h-45.352zm45.352 0h45.355V-.253H227.02zm45.355 0h45.355V-.253h-45.355zm45.355 0h45.356V-.253H317.73zm45.356 0h45.352V-.253h-45.352zm45.352 0h45.355V-.253h-45.355z"/><path d="M20.555-28.383a6.1 6.1 0 0 0 1.922.348c1.921 0 2.976-1.031 3.574-1.63 0-.167 0-.269-.125-.269-.02 0-.063 0-.227.082-.722.309-1.57.559-2.605.559a6.2 6.2 0 0 1-2.559-.539c-.226-.102-.27-.102-.289-.102-.105 0-.125.02-.125.434v5.992c0 .371 0 .473.207.473.102 0 .145-.04.246-.184.66-.93 1.57-1.324 2.606-1.324.722 0 2.273.457 2.273 3.988 0 .66 0 1.86-.621 2.809-.52.848-1.324 1.281-2.21 1.281-1.364 0-2.747-.95-3.122-2.543.086.024.25.063.332.063.27 0 .785-.145.785-.785 0-.56-.39-.786-.785-.786-.477 0-.785.29-.785.868 0 1.796 1.426 3.68 3.617 3.68 2.125 0 4.148-1.84 4.148-4.505 0-2.48-1.609-4.402-3.613-4.402a3.52 3.52 0 0 0-2.644 1.137zm45.301 0a6 6 0 0 0 1.921.348c1.918 0 2.973-1.031 3.575-1.63 0-.167 0-.269-.125-.269-.024 0-.063 0-.227.082-.727.309-1.57.559-2.606.559a6.2 6.2 0 0 1-2.558-.539c-.227-.102-.27-.102-.29-.102-.105 0-.124.02-.124.434v5.992c0 .371 0 .473.207.473.102 0 .144-.04.246-.184.66-.93 1.57-1.324 2.602-1.324.726 0 2.273.457 2.273 3.988 0 .66 0 1.86-.617 2.809-.52.848-1.324 1.281-2.211 1.281-1.363 0-2.75-.95-3.121-2.543.082.024.25.063.332.063.265 0 .785-.145.785-.785 0-.56-.395-.786-.785-.786-.477 0-.785.29-.785.868 0 1.796 1.425 3.68 3.613 3.68 2.129 0 4.152-1.84 4.152-4.505 0-2.48-1.61-4.402-3.613-4.402a3.52 3.52 0 0 0-2.644 1.137zm51.66 8.883h-.375c-.203 1.465-.371 1.71-.453 1.836-.102.164-1.59.164-1.879.164h-3.965c.742-.805 2.187-2.27 3.945-3.965 1.258-1.2 2.727-2.601 2.727-4.648 0-2.438-1.946-3.84-4.114-3.84-2.269 0-3.656 2-3.656 3.86 0 .808.598.91.848.91.207 0 .828-.122.828-.848 0-.64-.539-.825-.828-.825-.125 0-.25.02-.328.063.39-1.758 1.589-2.625 2.847-2.625 1.797 0 2.977 1.426 2.977 3.305 0 1.797-1.055 3.347-2.231 4.691l-4.113 4.649v.472h7.274zm38.875-3.926c0-4.937 2.312-6.055 3.656-6.055.433 0 1.484.083 1.898.891-.328 0-.949 0-.949.723 0 .555.457.742.746.742.184 0 .742-.082.742-.785 0-1.3-1.031-2.043-2.461-2.043-2.457 0-5.039 2.558-5.039 7.125 0 5.617 2.336 6.86 3.989 6.86 2.004 0 3.906-1.798 3.906-4.567 0-2.582-1.676-4.461-3.785-4.461-1.258 0-2.188.824-2.703 2.27zm2.582 6.961c-2.543 0-2.543-3.8-2.543-4.566 0-1.489.703-3.633 2.625-3.633.351 0 1.363 0 2.047 1.422.371.805.371 1.652.371 2.687 0 1.114 0 1.942-.434 2.766-.457.848-1.117 1.324-2.066 1.324m49.304-6.465c0-1.261-.019-3.41-.89-5.062-.766-1.445-1.981-1.961-3.055-1.961-.992 0-2.254.453-3.039 1.941-.824 1.547-.91 3.469-.91 5.082 0 1.176.023 2.973.664 4.543.887 2.13 2.476 2.418 3.285 2.418.949 0 2.395-.394 3.242-2.355.621-1.426.703-3.098.703-4.606m-3.945 6.63c-1.324 0-2.109-1.137-2.398-2.708-.227-1.219-.227-2.992-.227-4.148 0-1.594 0-2.914.27-4.176.39-1.754 1.546-2.293 2.355-2.293.848 0 1.941.559 2.332 2.254.27 1.176.289 2.558.289 4.215 0 1.34 0 2.992-.246 4.21-.434 2.255-1.652 2.645-2.375 2.645M250.496-29.5c0-.434-.019-.453-.312-.453-.805.969-2.024 1.281-3.18 1.32-.063 0-.164 0-.188.043-.019.04-.019.082-.019.516.641 0 1.715-.125 2.543-.621v10.886c0 .723-.043.973-1.82.973h-.622v.535c.993-.02 2.028-.039 3.02-.039.988 0 2.023.02 3.016.04v-.536h-.621c-1.778 0-1.817-.227-1.817-.973zm45.422 5.762c1.301-.66 2.625-1.653 2.625-3.242 0-1.88-1.816-2.973-3.492-2.973-1.879 0-3.531 1.363-3.531 3.242 0 .516.121 1.406.929 2.188.207.207 1.074.828 1.629 1.218-.93.477-3.098 1.614-3.098 3.887 0 2.125 2.028 3.45 4.028 3.45 2.211 0 4.07-1.59 4.07-3.7 0-1.879-1.258-2.746-2.086-3.305zm-2.703-1.817c-.168-.101-.992-.742-.992-1.715 0-1.261 1.3-2.21 2.785-2.21 1.633 0 2.832 1.156 2.832 2.5 0 1.921-2.149 3.015-2.25 3.015-.024 0-.043 0-.207-.12zm3.801 4.235c.308.226 1.3.91 1.3 2.172 0 1.527-1.531 2.683-3.265 2.683-1.879 0-3.305-1.344-3.305-2.976 0-1.63 1.262-2.997 2.684-3.633zm44.179-8.18c0-.434-.019-.453-.312-.453-.805.969-2.024 1.281-3.18 1.32-.062 0-.164 0-.187.043-.02.04-.02.082-.02.516.641 0 1.719-.125 2.543-.621v10.886c0 .723-.043.973-1.82.973h-.617v.535c.992-.02 2.023-.039 3.015-.039s2.024.02 3.016.04v-.536h-.621c-1.778 0-1.817-.227-1.817-.973zm42.16 1.117a6 6 0 0 0 1.922.348c1.918 0 2.977-1.031 3.575-1.63 0-.167 0-.269-.125-.269-.024 0-.063 0-.231.082-.723.309-1.566.559-2.601.559a6.2 6.2 0 0 1-2.559-.539c-.227-.102-.27-.102-.289-.102-.106 0-.125.02-.125.434v5.992c0 .371 0 .473.207.473.101 0 .144-.04.246-.184.66-.93 1.57-1.324 2.602-1.324.726 0 2.277.457 2.277 3.988 0 .66 0 1.86-.621 2.809-.52.848-1.324 1.281-2.211 1.281-1.363 0-2.75-.95-3.121-2.543.082.024.25.063.332.063.265 0 .785-.145.785-.785 0-.56-.395-.786-.785-.786-.477 0-.785.29-.785.868 0 1.796 1.425 3.68 3.617 3.68 2.125 0 4.148-1.84 4.148-4.505 0-2.48-1.609-4.402-3.617-4.402a3.52 3.52 0 0 0-2.641 1.137zm50.317 5.969c0 4.543-1.879 5.95-3.43 5.95-.476 0-1.633-.063-2.105-.868.535.082.929-.207.929-.723 0-.558-.457-.746-.746-.746-.183 0-.742.082-.742.785 0 1.407 1.219 2.047 2.707 2.047 2.375 0 4.793-2.601 4.793-7.148 0-5.66-2.316-6.836-3.887-6.836-2.043 0-4.007 1.797-4.007 4.562 0 2.563 1.675 4.465 3.781 4.465 1.734 0 2.5-1.613 2.707-2.293zm-2.664 1.156c-.559 0-1.344-.101-1.985-1.344-.433-.804-.433-1.753-.433-2.765 0-1.219 0-2.067.578-2.977.289-.433.824-1.136 2.023-1.136 2.438 0 2.438 3.738 2.438 4.566 0 1.469-.66 3.656-2.621 3.656"/></g></svg>