<svg xmlns="http://www.w3.org/2000/svg" width="874pt" height="199pt" viewBox="0 -199 874 199"><g id="page1"><path fill="#b1887b" d="M22.262-33.219v-28.343L107.3-75.168l85.039-15.875 85.039 17.008 85.039 12.472 85.039-34.015 85.039-39.688 85.039-39.683 85.039 29.48 85.039 29.481 85.039-23.813v106.582z"/><path fill="#fff" d="m192.34-91.043-42.52 7.938c24.426 18.273 57.618 15.078 85.039.566zm425.195-83.906-42.519 19.844c25.25 18.117 59.39 13.507 85.039-5.106z"/><path fill="none" stroke="maroon" stroke-linecap="round" stroke-linejoin="round" stroke-width="2" d="M22.262-33.219v-28.343L107.3-75.168l85.039-15.875 85.039 17.008 85.039 12.472 85.039-34.015 85.039-39.688 85.039-39.683 85.039 29.48 85.039 29.481 85.039-23.813v106.582zm85.039 0v-41.949m85.039 41.949v-57.824m85.039 57.824v-40.816m85.039 40.816v-28.343m85.039 28.343v-62.36m85.039 62.36v-102.047m85.039 102.047v-141.73m85.039 141.73v-112.25m85.039 112.25v-82.769m85.039 82.769V-139.8"/><path fill="none" stroke="#000" stroke-linecap="round" stroke-linejoin="round" stroke-width="2" d="M426.195-93.594h42.52"/><path fill="#ff8080" d="M433.285-93.594h28.344v-21.261h-28.344Z"/><path fill="none" stroke="#000" stroke-linecap="round" stroke-linejoin="round" stroke-width="2" d="M433.285-93.594v-21.261h28.344v21.261z"/><path fill="#bfbfbf" d="M430.449-114.855h34.016v-2.833h-34.016Z"/><path fill="none" stroke="#000" stroke-linecap="round" stroke-linejoin="round" stroke-width="2" d="M430.449-114.855v-2.833h34.016v2.833z"/><path fill="maroon" d="M433.285-117.688h1.418v-21.261h-1.418Z"/><path fill="none" stroke="#000" stroke-linecap="round" stroke-linejoin="round" stroke-width="2" d="M433.285-117.688v-21.261h1.414v21.261z"/><path fill="maroon" d="M460.215-117.688h1.414v-21.261h-1.414Z"/><path fill="none" stroke="#000" stroke-linecap="round" stroke-linejoin="round" stroke-width="2" d="M461.629-117.688v-21.261h-1.414v21.261z"/><path fill="#ff8080" d="M433.285-147.453h28.344l5.672 8.504h-39.688z"/><path fill="none" stroke="#000" stroke-linecap="round" stroke-linejoin="round" stroke-width="2" d="M433.285-147.453h28.344l5.672 8.504h-39.688z"/><path fill="#f2f2f2" d="M427.613-138.949h5.672v2.836a2.836 2.836 0 0 1-5.672 0z"/><path fill="none" stroke="#000" stroke-linecap="round" stroke-linejoin="round" stroke-width="2" d="M427.613-138.949h5.672v2.836a2.836 2.836 0 0 1-5.672 0z"/><path fill="#f2f2f2" d="M433.285-138.949h5.668v2.836a2.835 2.835 0 0 1-5.668 0z"/><path fill="none" stroke="#000" stroke-linecap="round" stroke-linejoin="round" stroke-width="2" d="M433.285-138.949h5.668v2.836a2.835 2.835 0 0 1-5.668 0z"/><path fill="#f2f2f2" d="M438.953-138.949h5.668v2.836a2.834 2.834 0 0 1-5.668 0z"/><path fill="none" stroke="#000" stroke-linecap="round" stroke-linejoin="round" stroke-width="2" d="M438.953-138.949h5.668v2.836a2.834 2.834 0 0 1-5.668 0z"/><path fill="#f2f2f2" d="M444.621-138.949h5.672v2.836a2.836 2.836 0 0 1-5.672 0z"/><path fill="none" stroke="#000" stroke-linecap="round" stroke-linejoin="round" stroke-width="2" d="M444.621-138.949h5.672v2.836a2.836 2.836 0 0 1-5.672 0z"/><path fill="#f2f2f2" d="M450.293-138.949h5.668v2.836a2.835 2.835 0 0 1-5.668 0z"/><path fill="none" stroke="#000" stroke-linecap="round" stroke-linejoin="round" stroke-width="2" d="M450.293-138.949h5.668v2.836a2.835 2.835 0 0 1-5.668 0z"/><path fill="#f2f2f2" d="M455.961-138.949h5.668v2.836a2.835 2.835 0 0 1-5.668 0z"/><path fill="none" stroke="#000" stroke-linecap="round" stroke-linejoin="round" stroke-width="2" d="M455.961-138.949h5.668v2.836a2.835 2.835 0 0 1-5.668 0z"/><path fill="#f2f2f2" d="M461.629-138.949h5.672v2.836a2.836 2.836 0 0 1-5.672 0z"/><path fill="none" stroke="#000" stroke-linecap="round" stroke-linejoin="round" stroke-width="2" d="M461.629-138.949h5.672v2.836a2.836 2.836 0 0 1-5.672 0zm219.687-4.25h42.52"/><path fill="#ff8080" d="M688.402-143.199h28.348v-21.262h-28.348Z"/><path fill="none" stroke="#000" stroke-linecap="round" stroke-linejoin="round" stroke-width="2" d="M688.402-143.199v-21.262h28.344v21.262z"/><path fill="#bfbfbf" d="M685.566-164.461h34.016v-2.836h-34.016Z"/><path fill="none" stroke="#000" stroke-linecap="round" stroke-linejoin="round" stroke-width="2" d="M685.566-164.461v-2.836h34.016v2.836z"/><path fill="maroon" d="M688.402-167.297h1.418v-21.258h-1.418Z"/><path fill="none" stroke="#000" stroke-linecap="round" stroke-linejoin="round" stroke-width="2" d="M688.402-167.297v-21.258h1.418v21.258z"/><path fill="maroon" d="M715.332-167.297h1.418v-21.258h-1.418Z"/><path fill="none" stroke="#000" stroke-linecap="round" stroke-linejoin="round" stroke-width="2" d="M716.746-167.297v-21.258h-1.414v21.258z"/><path fill="#ff8080" d="M688.402-197.059h28.344l5.672 8.504H682.73z"/><path fill="none" stroke="#000" stroke-linecap="round" stroke-linejoin="round" stroke-width="2" d="M688.402-197.059h28.344l5.672 8.504H682.73z"/><path fill="#f2f2f2" d="M682.73-188.555h5.672v2.832a2.835 2.835 0 1 1-5.672 0z"/><path fill="none" stroke="#000" stroke-linecap="round" stroke-linejoin="round" stroke-width="2" d="M682.73-188.555h5.672v2.832a2.835 2.835 0 1 1-5.672 0z"/><path fill="#f2f2f2" d="M688.402-188.555h5.668v2.832a2.835 2.835 0 1 1-5.668 0z"/><path fill="none" stroke="#000" stroke-linecap="round" stroke-linejoin="round" stroke-width="2" d="M688.402-188.555h5.668v2.832a2.835 2.835 0 1 1-5.668 0z"/><path fill="#f2f2f2" d="M694.07-188.555h5.668v2.832a2.83 2.83 0 0 1-2.832 2.836 2.836 2.836 0 0 1-2.836-2.836z"/><path fill="none" stroke="#000" stroke-linecap="round" stroke-linejoin="round" stroke-width="2" d="M694.07-188.555h5.668v2.832a2.83 2.83 0 0 1-2.832 2.836 2.836 2.836 0 0 1-2.836-2.836z"/><path fill="#f2f2f2" d="M699.738-188.555h5.672v2.832a2.835 2.835 0 1 1-5.672 0z"/><path fill="none" stroke="#000" stroke-linecap="round" stroke-linejoin="round" stroke-width="2" d="M699.738-188.555h5.672v2.832a2.835 2.835 0 1 1-5.672 0z"/><path fill="#f2f2f2" d="M705.41-188.555h5.668v2.832a2.835 2.835 0 1 1-5.668 0z"/><path fill="none" stroke="#000" stroke-linecap="round" stroke-linejoin="round" stroke-width="2" d="M705.41-188.555h5.668v2.832a2.835 2.835 0 1 1-5.668 0z"/><path fill="#f2f2f2" d="M711.078-188.555h5.668v2.832c0 1.567-1.266 2.836-2.832 2.836s-2.836-1.269-2.836-2.836z"/><path fill="none" stroke="#000" stroke-linecap="round" stroke-linejoin="round" stroke-width="2" d="M711.078-188.555h5.668v2.832c0 1.567-1.266 2.836-2.832 2.836s-2.836-1.269-2.836-2.836z"/><path fill="#f2f2f2" d="M716.746-188.555h5.672v2.832a2.836 2.836 0 1 1-5.672 0z"/><path fill="none" stroke="#000" stroke-linecap="round" stroke-linejoin="round" stroke-width="2" d="M716.746-188.555h5.672v2.832a2.836 2.836 0 1 1-5.672 0z"/><path fill="none" stroke="#000" stroke-linecap="round" stroke-linejoin="round" stroke-width="3" d="m68.348-55.61-23.41 16.723"/><path d="m84.621-67.234-19.39 7.265 6.23 8.723z"/><path fill="none" stroke="#000" stroke-linecap="round" stroke-linejoin="round" stroke-width="3" d="m84.621-67.234-19.39 7.265 6.23 8.723zm68.766 11.624-23.41 16.723"/><path d="m169.66-67.234-19.387 7.265 6.231 8.723z"/><path fill="none" stroke="#000" stroke-linecap="round" stroke-linejoin="round" stroke-width="3" d="m169.66-67.234-19.387 7.265 6.231 8.723zm68.766 16.722-23.41-16.722"/><path d="m254.699-38.887-13.16-15.984-6.226 8.723z"/><path fill="none" stroke="#000" stroke-linecap="round" stroke-linejoin="round" stroke-width="3" d="m254.699-38.887-13.16-15.984-6.226 8.723zm68.766-11.625-23.41-16.722"/><path d="m339.738-38.887-13.16-15.984-6.226 8.723z"/><path fill="none" stroke="#000" stroke-linecap="round" stroke-linejoin="round" stroke-width="3" d="m339.738-38.887-13.16-15.984-6.226 8.723zm68.766-16.723-23.41 16.723"/><path d="m424.781-67.234-19.39 7.265 6.23 8.723z"/><path fill="none" stroke="#000" stroke-linecap="round" stroke-linejoin="round" stroke-width="3" d="m424.781-67.234-19.39 7.265 6.23 8.723zm68.762 11.624-23.41 16.723"/><path d="m509.82-67.234-19.39 7.265 6.23 8.723z"/><path fill="none" stroke="#000" stroke-linecap="round" stroke-linejoin="round" stroke-width="3" d="m509.82-67.234-19.39 7.265 6.23 8.723zm68.766 11.624-23.414 16.723"/><path d="m594.859-67.234-19.39 7.265 6.23 8.723z"/><path fill="none" stroke="#000" stroke-linecap="round" stroke-linejoin="round" stroke-width="3" d="m594.859-67.234-19.39 7.265 6.23 8.723zm68.762 16.722-23.406-16.722"/><path d="m679.898-38.887-13.16-15.984-6.23 8.723z"/><path fill="none" stroke="#000" stroke-linecap="round" stroke-linejoin="round" stroke-width="3" d="m679.898-38.887-13.16-15.984-6.23 8.723zm68.766-11.625-23.41-16.722"/><path d="M764.938-38.887 751.777-54.87l-6.23 8.723z"/><path fill="none" stroke="#000" stroke-linecap="round" stroke-linejoin="round" stroke-width="3" d="M764.938-38.887 751.777-54.87l-6.23 8.723zm68.765-16.723-23.41 16.723"/><path d="m849.977-67.234-19.391 7.265 6.23 8.723z"/><path fill="none" stroke="#000" stroke-linecap="round" stroke-linejoin="round" stroke-width="3" d="m849.977-67.234-19.391 7.265 6.23 8.723z"/><path fill="none" stroke="#000" stroke-linecap="round" stroke-linejoin="round" stroke-width="2" d="M1-59.297h42.52"/><path fill="#80ff80" d="M8.086-59.297h28.348v-21.258H8.086Z"/><path fill="none" stroke="#000" stroke-linecap="round" stroke-linejoin="round" stroke-width="2" d="M8.086-59.297v-21.258h28.348v21.258z"/><path fill="#bfbfbf" d="M5.25-80.555h34.016v-2.836H5.25Z"/><path fill="none" stroke="#000" stroke-linecap="round" stroke-linejoin="round" stroke-width="2" d="M5.25-80.555v-2.836h34.02v2.836z"/><path fill="maroon" d="M8.086-83.39h1.418v-21.258H8.086Z"/><path fill="none" stroke="#000" stroke-linecap="round" stroke-linejoin="round" stroke-width="2" d="M8.086-83.39v-21.258h1.418v21.257z"/><path fill="maroon" d="M35.016-83.39h1.418v-21.258h-1.418Z"/><path fill="none" stroke="#000" stroke-linecap="round" stroke-linejoin="round" stroke-width="2" d="M36.434-83.39v-21.258h-1.418v21.257z"/><path fill="#80ff80" d="M8.086-113.152h28.348l5.668 8.504H2.418z"/><path fill="none" stroke="#000" stroke-linecap="round" stroke-linejoin="round" stroke-width="2" d="M8.086-113.152h28.348l5.668 8.504H2.418z"/><path fill="#f2f2f2" d="M2.418-104.648h5.668v2.832a2.835 2.835 0 1 1-5.668 0z"/><path fill="none" stroke="#000" stroke-linecap="round" stroke-linejoin="round" stroke-width="2" d="M2.418-104.648h5.668v2.832a2.835 2.835 0 1 1-5.668 0z"/><path fill="#f2f2f2" d="M8.086-104.648h5.672v2.832a2.836 2.836 0 0 1-5.672 0z"/><path fill="none" stroke="#000" stroke-linecap="round" stroke-linejoin="round" stroke-width="2" d="M8.086-104.648h5.672v2.832a2.836 2.836 0 0 1-5.672 0z"/><path fill="#f2f2f2" d="M13.758-104.648h5.668v2.832a2.836 2.836 0 0 1-2.836 2.835 2.83 2.83 0 0 1-2.832-2.835z"/><path fill="none" stroke="#000" stroke-linecap="round" stroke-linejoin="round" stroke-width="2" d="M13.758-104.648h5.668v2.832a2.836 2.836 0 0 1-2.836 2.835 2.83 2.83 0 0 1-2.832-2.835z"/><path fill="#f2f2f2" d="M19.426-104.648h5.668v2.832a2.835 2.835 0 1 1-5.668 0z"/><path fill="none" stroke="#000" stroke-linecap="round" stroke-linejoin="round" stroke-width="2" d="M19.426-104.648h5.668v2.832a2.835 2.835 0 1 1-5.668 0z"/><path fill="#f2f2f2" d="M25.094-104.648h5.672v2.832a2.836 2.836 0 0 1-5.672 0z"/><path fill="none" stroke="#000" stroke-linecap="round" stroke-linejoin="round" stroke-width="2" d="M25.094-104.648h5.672v2.832a2.836 2.836 0 0 1-5.672 0z"/><path fill="#f2f2f2" d="M30.766-104.648h5.668v2.832c0 1.566-1.27 2.835-2.836 2.835s-2.832-1.269-2.832-2.835z"/><path fill="none" stroke="#000" stroke-linecap="round" stroke-linejoin="round" stroke-width="2" d="M30.766-104.648h5.668v2.832c0 1.566-1.27 2.835-2.836 2.835s-2.832-1.269-2.832-2.835z"/><path fill="#f2f2f2" d="M36.434-104.648h5.668v2.832a2.835 2.835 0 1 1-5.668 0z"/><path fill="none" stroke="#000" stroke-linecap="round" stroke-linejoin="round" stroke-width="2" d="M36.434-104.648h5.668v2.832a2.835 2.835 0 1 1-5.668 0zM86.04-73.016h42.519"/><path fill="#80ff80" d="M93.125-73.016h28.348v-21.257H93.125Z"/><path fill="none" stroke="#000" stroke-linecap="round" stroke-linejoin="round" stroke-width="2" d="M93.125-73.016v-21.257h28.348v21.257z"/><path fill="#bfbfbf" d="M90.293-94.273h34.016v-2.836H90.293Z"/><path fill="none" stroke="#000" stroke-linecap="round" stroke-linejoin="round" stroke-width="2" d="M90.293-94.273v-2.836h34.016v2.836z"/><path fill="maroon" d="M93.125-97.11h1.418v-21.261h-1.418Z"/><path fill="none" stroke="#000" stroke-linecap="round" stroke-linejoin="round" stroke-width="2" d="M93.125-97.11v-21.257h1.418v21.258z"/><path fill="maroon" d="M120.055-97.11h1.418v-21.261h-1.418Z"/><path fill="none" stroke="#000" stroke-linecap="round" stroke-linejoin="round" stroke-width="2" d="M121.473-97.11v-21.257h-1.418v21.258z"/><path fill="#80ff80" d="M93.125-126.871h28.348l5.668 8.504H87.457z"/><path fill="none" stroke="#000" stroke-linecap="round" stroke-linejoin="round" stroke-width="2" d="M93.125-126.871h28.348l5.668 8.504H87.457z"/><path fill="#f2f2f2" d="M87.457-118.367h5.668v2.832a2.835 2.835 0 1 1-5.668 0z"/><path fill="none" stroke="#000" stroke-linecap="round" stroke-linejoin="round" stroke-width="2" d="M87.457-118.367h5.668v2.832a2.835 2.835 0 1 1-5.668 0z"/><path fill="#f2f2f2" d="M93.125-118.367h5.672v2.832a2.836 2.836 0 0 1-5.672 0z"/><path fill="none" stroke="#000" stroke-linecap="round" stroke-linejoin="round" stroke-width="2" d="M93.125-118.367h5.672v2.832a2.836 2.836 0 0 1-5.672 0z"/><path fill="#f2f2f2" d="M98.797-118.367h5.668v2.832a2.833 2.833 0 1 1-5.668 0z"/><path fill="none" stroke="#000" stroke-linecap="round" stroke-linejoin="round" stroke-width="2" d="M98.797-118.367h5.668v2.832a2.833 2.833 0 1 1-5.668 0z"/><path fill="#f2f2f2" d="M104.465-118.367h5.668v2.832a2.836 2.836 0 0 1-2.832 2.836 2.836 2.836 0 0 1-2.836-2.836z"/><path fill="none" stroke="#000" stroke-linecap="round" stroke-linejoin="round" stroke-width="2" d="M104.465-118.367h5.668v2.832a2.836 2.836 0 0 1-2.832 2.836 2.836 2.836 0 0 1-2.836-2.836z"/><path fill="#f2f2f2" d="M110.133-118.367h5.672v2.832a2.836 2.836 0 0 1-5.672 0z"/><path fill="none" stroke="#000" stroke-linecap="round" stroke-linejoin="round" stroke-width="2" d="M110.133-118.367h5.672v2.832a2.836 2.836 0 0 1-5.672 0z"/><path fill="#f2f2f2" d="M115.805-118.367h5.668v2.832a2.836 2.836 0 0 1-2.836 2.836 2.83 2.83 0 0 1-2.832-2.836z"/><path fill="none" stroke="#000" stroke-linecap="round" stroke-linejoin="round" stroke-width="2" d="M115.805-118.367h5.668v2.832a2.836 2.836 0 0 1-2.836 2.836 2.83 2.83 0 0 1-2.832-2.836z"/><path fill="#f2f2f2" d="M121.473-118.367h5.668v2.832a2.836 2.836 0 0 1-2.832 2.836 2.836 2.836 0 0 1-2.836-2.836z"/><path fill="none" stroke="#000" stroke-linecap="round" stroke-linejoin="round" stroke-width="2" d="M121.473-118.367h5.668v2.832a2.836 2.836 0 0 1-2.832 2.836 2.836 2.836 0 0 1-2.836-2.836zm134.644 46.371h42.52"/><path fill="#80ff80" d="M263.203-71.996h28.348v-21.258h-28.348Z"/><path fill="none" stroke="#000" stroke-linecap="round" stroke-linejoin="round" stroke-width="2" d="M263.203-71.996v-21.258h28.348v21.258z"/><path fill="#bfbfbf" d="M260.371-93.254h34.016v-2.836h-34.016Z"/><path fill="none" stroke="#000" stroke-linecap="round" stroke-linejoin="round" stroke-width="2" d="M260.371-93.254v-2.836h34.016v2.836z"/><path fill="maroon" d="M263.203-96.09h1.418v-21.258h-1.418Z"/><path fill="none" stroke="#000" stroke-linecap="round" stroke-linejoin="round" stroke-width="2" d="M263.203-96.09v-21.258h1.418v21.258z"/><path fill="maroon" d="M290.133-96.09h1.418v-21.258h-1.418Z"/><path fill="none" stroke="#000" stroke-linecap="round" stroke-linejoin="round" stroke-width="2" d="M291.551-96.09v-21.258h-1.418v21.258z"/><path fill="#80ff80" d="M263.203-125.852h28.348l5.668 8.504h-39.684z"/><path fill="none" stroke="#000" stroke-linecap="round" stroke-linejoin="round" stroke-width="2" d="M263.203-125.852h28.348l5.668 8.504h-39.684z"/><path fill="#f2f2f2" d="M257.535-117.348h5.668v2.832a2.83 2.83 0 0 1-2.832 2.836 2.836 2.836 0 0 1-2.836-2.836z"/><path fill="none" stroke="#000" stroke-linecap="round" stroke-linejoin="round" stroke-width="2" d="M257.535-117.348h5.668v2.832a2.83 2.83 0 0 1-2.832 2.836 2.836 2.836 0 0 1-2.836-2.836z"/><path fill="#f2f2f2" d="M263.203-117.348h5.672v2.832a2.836 2.836 0 1 1-5.672 0z"/><path fill="none" stroke="#000" stroke-linecap="round" stroke-linejoin="round" stroke-width="2" d="M263.203-117.348h5.672v2.832a2.836 2.836 0 1 1-5.672 0z"/><path fill="#f2f2f2" d="M268.875-117.348h5.668v2.832a2.835 2.835 0 1 1-5.668 0z"/><path fill="none" stroke="#000" stroke-linecap="round" stroke-linejoin="round" stroke-width="2" d="M268.875-117.348h5.668v2.832a2.835 2.835 0 1 1-5.668 0z"/><path fill="#f2f2f2" d="M274.543-117.348h5.672v2.832a2.836 2.836 0 1 1-5.672 0z"/><path fill="none" stroke="#000" stroke-linecap="round" stroke-linejoin="round" stroke-width="2" d="M274.543-117.348h5.672v2.832a2.836 2.836 0 1 1-5.672 0z"/><path fill="#f2f2f2" d="M280.215-117.348h5.668v2.832a2.836 2.836 0 0 1-2.836 2.836 2.83 2.83 0 0 1-2.832-2.836z"/><path fill="none" stroke="#000" stroke-linecap="round" stroke-linejoin="round" stroke-width="2" d="M280.215-117.348h5.668v2.832a2.836 2.836 0 0 1-2.836 2.836 2.83 2.83 0 0 1-2.832-2.836z"/><path fill="#f2f2f2" d="M285.883-117.348h5.668v2.832a2.834 2.834 0 1 1-5.668 0z"/><path fill="none" stroke="#000" stroke-linecap="round" stroke-linejoin="round" stroke-width="2" d="M285.883-117.348h5.668v2.832a2.834 2.834 0 1 1-5.668 0z"/><path fill="#f2f2f2" d="M291.551-117.348h5.668v2.832a2.835 2.835 0 1 1-5.668 0z"/><path fill="none" stroke="#000" stroke-linecap="round" stroke-linejoin="round" stroke-width="2" d="M291.551-117.348h5.668v2.832a2.835 2.835 0 1 1-5.668 0z"/><path d="M438.328-100.828c-.765 0-.91 0-.91-.539v-2.078c.215.297.707.765 1.473.765 1.371 0 2.578-1.16 2.578-2.703 0-1.515-1.121-2.687-2.426-2.687-1.051 0-1.613.754-1.648.8v-.8l-1.661.132v.348c.836 0 .907.082.907.61v5.613c0 .539-.129.539-.907.539v.348c.313-.028.957-.028 1.289-.028.348 0 .993 0 1.305.028zm-.91-5.781c0-.231 0-.243.133-.434a1.73 1.73 0 0 1 1.398-.762c.895 0 1.614 1.086 1.614 2.422 0 1.422-.817 2.465-1.735 2.465-.367 0-.715-.156-.957-.383-.273-.277-.453-.515-.453-.847zm9.094.617c0-.645 0-1.121-.528-1.586-.414-.383-.953-.551-1.48-.551-.981 0-1.731.645-1.731 1.422 0 .348.227.512.5.512.29 0 .493-.203.493-.489 0-.488-.43-.488-.61-.488.274-.504.848-.719 1.324-.719.551 0 1.254.453 1.254 1.532v.476c-2.398.035-3.308 1.039-3.308 1.961 0 .942 1.097 1.242 1.828 1.242.789 0 1.324-.476 1.555-1.05.046.558.418.988.929.988.254 0 .946-.164.946-1.121v-.668h-.262v.668c0 .679-.289.773-.457.773-.453 0-.453-.629-.453-.808zm-.778 1.508c0 1.171-.871 1.566-1.382 1.566-.586 0-1.079-.434-1.079-1.004 0-1.578 2.032-1.723 2.461-1.746zm7.383-1.219c0-1.11 0-1.445-.273-1.828-.348-.465-.91-.539-1.317-.539-1.16 0-1.609.992-1.707 1.23h-.011v-1.23l-1.625.132v.348c.812 0 .906.082.906.668v3.238c0 .536-.129.536-.906.536v.347c.308-.023.953-.023 1.289-.023.347 0 .992 0 1.3.023v-.347c-.761 0-.906 0-.906-.536v-2.222c0-1.254.824-1.922 1.567-1.922.738 0 .906.609.906 1.336v2.808c0 .536-.129.536-.906.536v.347c.308-.023.953-.023 1.289-.023.347 0 .992 0 1.3.023v-.347c-.593 0-.894 0-.906-.356zm5.762.133c.262 0 .285 0 .285-.227 0-1.211-.648-2.332-2.094-2.332-1.359 0-2.414 1.231-2.414 2.711 0 1.578 1.223 2.738 2.547 2.738 1.422 0 1.961-1.289 1.961-1.543 0-.07-.062-.117-.133-.117-.093 0-.117.059-.144.117-.309 1.004-1.11 1.278-1.614 1.278-.5 0-1.707-.332-1.707-2.399v-.226zm-3.301-.227c.094-1.879 1.149-2.094 1.481-2.094 1.281 0 1.351 1.688 1.363 2.094zM693.43-150.43c-.766 0-.91 0-.91-.535v-2.082c.214.301.707.766 1.468.766 1.375 0 2.582-1.157 2.582-2.699 0-1.516-1.125-2.688-2.425-2.688-1.051 0-1.614.75-1.649.801v-.801l-1.66.129v.348c.836 0 .906.082.906.609v5.617c0 .535-.133.535-.906.535v.348c.309-.023.957-.023 1.289-.023.348 0 .992 0 1.305.023zm-.91-5.781c0-.227 0-.238.128-.43.36-.539.946-.765 1.399-.765.898 0 1.613 1.086 1.613 2.426 0 1.421-.812 2.46-1.73 2.46a1.42 1.42 0 0 1-.957-.382c-.274-.274-.453-.512-.453-.848zm9.093.621c0-.644 0-1.125-.527-1.59-.418-.383-.957-.55-1.481-.55-.98 0-1.734.644-1.734 1.421 0 .348.231.516.5.516a.47.47 0 0 0 .492-.488c0-.492-.429-.492-.609-.492.277-.5.848-.719 1.328-.719.547 0 1.254.457 1.254 1.531v.477c-2.402.039-3.313 1.039-3.313 1.961 0 .945 1.102 1.242 1.829 1.242.789 0 1.328-.477 1.554-1.051.047.562.418.992.934.992.25 0 .941-.168.941-1.125v-.668h-.261v.668c0 .684-.286.777-.454.777-.453 0-.453-.632-.453-.812zm-.777 1.504c0 1.172-.871 1.566-1.387 1.566-.586 0-1.078-.429-1.078-1.003 0-1.579 2.035-1.719 2.465-1.743zm7.383-1.219c0-1.109 0-1.441-.278-1.828-.347-.465-.906-.535-1.312-.535-1.16 0-1.613.988-1.711 1.23h-.012v-1.23l-1.625.129v.348c.813 0 .91.082.91.668v3.238c0 .539-.132.539-.91.539v.348c.313-.024.957-.024 1.293-.024.344 0 .989 0 1.301.024v-.348c-.766 0-.906 0-.906-.539v-2.223c0-1.254.824-1.922 1.562-1.922.742 0 .91.61.91 1.336v2.809c0 .539-.132.539-.91.539v.348c.313-.024.957-.024 1.293-.024.344 0 .989 0 1.301.024v-.348c-.598 0-.895 0-.906-.359zm5.758.133c.261 0 .285 0 .285-.226 0-1.207-.645-2.332-2.09-2.332-1.363 0-2.414 1.234-2.414 2.714 0 1.578 1.219 2.735 2.547 2.735 1.422 0 1.957-1.289 1.957-1.539 0-.075-.059-.121-.129-.121-.098 0-.121.058-.145.121-.308 1-1.109 1.277-1.613 1.277s-1.707-.336-1.707-2.402v-.227zm-3.297-.226c.093-1.875 1.144-2.094 1.48-2.094 1.278 0 1.352 1.687 1.363 2.094zM66.106-22.852c0-.687 0-.718-.598-.718-.719.808-2.211 1.914-5.29 1.914v.867c.688 0 2.18 0 3.825-.777V-6c0 1.074-.09 1.434-2.719 1.434h-.926v.867c.805-.059 3.704-.059 4.692-.059.984 0 3.855 0 4.66.059v-.867h-.926c-2.629 0-2.718-.36-2.718-1.434zm89.542 14.133h-.66c-.09.508-.328 2.149-.625 2.63-.211.269-1.914.269-2.808.269h-5.532c.809-.688 2.633-2.602 3.407-3.317 4.543-4.183 6.218-5.738 6.218-8.695 0-3.437-2.718-5.738-6.187-5.738-3.465 0-5.496 2.96-5.496 5.527 0 1.527 1.312 1.527 1.402 1.527.629 0 1.406-.449 1.406-1.406 0-.836-.57-1.406-1.406-1.406-.265 0-.328 0-.418.031.567-2.031 2.184-3.406 4.125-3.406 2.539 0 4.094 2.121 4.094 4.871 0 2.539-1.465 4.75-3.168 6.66l-6.035 6.754v.719h10.906zm77.348-5.707c-.508.028-.625.059-.625.328 0 .301.149.301.688.301h1.371c2.543 0 3.675 2.09 3.675 4.957 0 3.914-2.031 4.961-3.496 4.961-1.433 0-3.882-.687-4.75-2.66.957.148 1.825-.387 1.825-1.465 0-.863-.629-1.465-1.465-1.465-.715 0-1.492.422-1.492 1.555 0 2.66 2.656 4.844 5.972 4.844 3.559 0 6.188-2.723 6.188-5.739 0-2.75-2.211-4.902-5.082-5.41 2.601-.746 4.273-2.926 4.273-5.258 0-2.359-2.449-4.093-5.348-4.093-2.988 0-5.199 1.824-5.199 4.004 0 1.195.926 1.433 1.375 1.433.629 0 1.344-.445 1.344-1.344 0-.953-.715-1.375-1.371-1.375-.184 0-.242 0-.332.032 1.137-2.032 3.945-2.032 4.094-2.032.988 0 2.929.446 2.929 3.375 0 .57-.09 2.243-.957 3.528-.894 1.312-1.914 1.402-2.718 1.433zm90.391-8.726c0-.567 0-.715-.418-.715-.242 0-.328 0-.571.36l-8.992 13.952v.867h7.86v2.72c0 1.1-.063 1.402-2.243 1.402h-.597v.867c.687-.059 3.047-.059 3.887-.059.835 0 3.226 0 3.914.059v-.867h-.598c-2.152 0-2.242-.301-2.242-1.403v-2.718h3.019v-.868h-3.019zm-1.973 2.332v11.265h-7.262zm80.012 0a8.9 8.9 0 0 0 2.66.449c3.375 0 5.523-2.48 5.523-2.899 0-.12-.058-.27-.238-.27-.058 0-.117 0-.387.118a9.8 9.8 0 0 1-3.882.809c-1.973 0-3.379-.598-3.946-.836-.211-.09-.269-.09-.301-.09-.238 0-.238.18-.238.656v8.875c0 .54 0 .719.36.719.148 0 .179-.031.476-.39.836-1.227 2.242-1.942 3.735-1.942 1.585 0 2.363 1.465 2.601 1.973.508 1.164.539 2.628.539 3.765 0 1.133 0 2.836-.84 4.18-.656 1.078-1.82 1.824-3.136 1.824a4.624 4.624 0 0 1-4.454-3.527c.153.062.332.09.481.09.508 0 1.316-.297 1.316-1.313 0-.84-.57-1.316-1.316-1.316-.539 0-1.316.27-1.316 1.433 0 2.543 2.031 5.442 5.351 5.442 3.375 0 6.332-2.84 6.332-6.637 0-3.555-2.391-6.512-5.527-6.512-1.703 0-3.016.746-3.793 1.582zm84.949 6.722c0-7.558 3.676-8.754 5.289-8.754 1.074 0 2.152.329 2.719 1.227-.36 0-1.492 0-1.492 1.223 0 .656.449 1.226 1.222 1.226.746 0 1.254-.449 1.254-1.316 0-1.555-1.133-3.078-3.734-3.078-3.766 0-7.707 3.855-7.707 10.43 0 8.214 3.586 10.07 6.125 10.07 3.254 0 6.035-2.84 6.035-6.727 0-3.972-2.781-6.633-5.766-6.633-2.66 0-3.648 2.301-3.945 3.14zm3.676 10.22c-1.883 0-2.778-1.677-3.047-2.302-.27-.777-.57-2.242-.57-4.332 0-2.363 1.078-5.32 3.765-5.32 1.645 0 2.512 1.105 2.957 2.121.481 1.11.481 2.602.481 3.887 0 1.523 0 2.867-.571 4.004-.746 1.433-1.82 1.941-3.015 1.941m91.84-18.375v-.687h-7.2c-3.613 0-3.675-.387-3.793-.957h-.66l-.925 5.976h.656c.094-.539.359-2.39.75-2.719.238-.18 2.48-.18 2.898-.18h6.332l-3.168 4.544c-.804 1.164-3.82 6.062-3.82 11.68 0 .331 0 1.527 1.223 1.527 1.254 0 1.254-1.168 1.254-1.555v-1.496c0-4.45.718-7.918 2.121-9.918zm79.711 7.77c1.496-.809 3.675-2.184 3.675-4.692 0-2.601-2.507-4.394-5.257-4.394-2.957 0-5.29 2.183-5.29 4.902 0 1.016.301 2.031 1.137 3.047.328.387.36.418 2.449 1.883-2.898 1.343-4.39 3.347-4.39 5.527 0 3.164 3.015 5.14 6.066 5.14 3.313 0 6.094-2.452 6.094-5.59 0-3.046-2.152-4.39-4.484-5.823m-4.059-2.692c-.391-.27-1.586-1.043-1.586-2.508 0-1.941 2.031-3.168 4.035-3.168 2.149 0 4.063 1.555 4.063 3.704 0 1.824-1.317 3.289-3.047 4.242zm1.402 3.856 3.614 2.36c.781.507 2.152 1.433 2.152 3.257 0 2.27-2.301 3.824-4.691 3.824-2.54 0-4.719-1.851-4.719-4.332 0-2.332 1.703-4.215 3.644-5.11m89.789.927c0 7.05-3.136 8.515-4.929 8.515-.715 0-2.301-.09-3.047-1.137h.18c.21.063 1.285-.117 1.285-1.222 0-.66-.45-1.227-1.227-1.227s-1.254.508-1.254 1.285c0 1.852 1.492 3.11 4.094 3.11 3.734 0 7.352-3.977 7.352-10.461 0-8.035-3.348-10.04-5.977-10.04-3.289 0-6.188 2.75-6.188 6.696 0 3.941 2.782 6.633 5.77 6.633 2.211 0 3.344-1.613 3.941-3.14zm-3.824 1.554c-1.883 0-2.687-1.523-2.957-2.094-.476-1.132-.476-2.566-.476-3.914 0-1.672 0-3.105.777-4.332.535-.804 1.344-1.672 2.957-1.672 1.703 0 2.57 1.493 2.867 2.18.598 1.465.598 4.004.598 4.453 0 2.508-1.133 5.38-3.766 5.38m79.195-12.013c0-.687 0-.718-.597-.718-.715.808-2.211 1.914-5.289 1.914v.867c.687 0 2.179 0 3.824-.777V-6c0 1.074-.09 1.434-2.719 1.434h-.926v.867c.805-.059 3.704-.059 4.692-.059.984 0 3.855 0 4.66.059v-.867h-.926c-2.629 0-2.719-.36-2.719-1.434zm19.379 9.59c0-2.48-.148-4.898-1.222-7.168-1.227-2.484-3.379-3.14-4.84-3.14-1.734 0-3.856.867-4.961 3.347-.836 1.883-1.137 3.735-1.137 6.961 0 2.899.211 5.082 1.285 7.2 1.164 2.273 3.227 2.992 4.782 2.992 2.597 0 4.093-1.555 4.961-3.29 1.074-2.242 1.132-5.167 1.132-6.902m-6.093 9.59c-.957 0-2.899-.535-3.465-3.793-.332-1.793-.332-4.062-.332-6.156 0-2.45 0-4.66.48-6.422.508-2.004 2.031-2.93 3.317-2.93 1.132 0 2.867.688 3.437 3.258.387 1.703.387 4.063.387 6.094 0 2.004 0 4.273-.328 6.098-.567 3.285-2.449 3.851-3.496 3.851M15.816-68.703c0-1.11 0-1.445-.273-1.828-.348-.465-.91-.54-1.316-.54-1.157 0-1.61.993-1.707 1.231h-.012v-1.23l-1.625.132v.348c.812 0 .906.082.906.668v3.238c0 .536-.129.536-.906.536v.347c.312-.023.953-.023 1.289-.023.348 0 .992 0 1.305.023v-.347c-.766 0-.91 0-.91-.536v-2.222c0-1.254.824-1.922 1.566-1.922s.906.61.906 1.336v2.808c0 .536-.129.536-.906.536v.347c.308-.023.953-.023 1.289-.023.348 0 .992 0 1.305.023v-.347c-.598 0-.899 0-.91-.356zm5.86.133c.262 0 .285 0 .285-.227 0-1.21-.645-2.332-2.09-2.332-1.363 0-2.414 1.23-2.414 2.711 0 1.578 1.219 2.738 2.547 2.738 1.422 0 1.957-1.289 1.957-1.543 0-.07-.059-.117-.129-.117-.098 0-.121.059-.145.117-.308 1.004-1.109 1.278-1.613 1.278-.5 0-1.707-.332-1.707-2.399v-.226zm-3.297-.227c.094-1.879 1.144-2.094 1.48-2.094 1.282 0 1.352 1.688 1.364 2.094zm11.148-1.015c.266-.754.79-.778.992-.79v-.347c-.296.023-.511.023-.882.023-.348 0-.371 0-1.016-.023v.347c.535.024.68.344.68.57 0 .016 0 .098-.047.22l-1.098 3.128-1.195-3.382c-.063-.145-.063-.168-.063-.203 0-.333.446-.333.696-.333v-.347c-.336.023-.825.023-1.172.023-.383 0-.406 0-1.074-.023v.347c.453 0 .609.024.738.18.062.07.203.465.289.703l-1.016 2.914-1.148-3.25c-.059-.156-.059-.18-.059-.226 0-.32.465-.32.692-.32v-.348c-.297.023-.895.023-1.219.023-.332 0-.36 0-1.11-.023v.347c.61 0 .727.047.86.43l1.508 4.278c.047.128.082.214.21.214.11 0 .169-.035.231-.226l1.192-3.406 1.195 3.406c.062.191.121.226.227.226.132 0 .168-.086.218-.214zm3.371-3.969c0-.383-.32-.563-.574-.563-.25 0-.62.168-.586.672l.434 5.469c.008.203.035.254.14.254.122 0 .145-.035.157-.254zm0 7.394a.583.583 0 0 0-.574-.574.583.583 0 0 0-.586.586c0 .313.266.574.575.574a.58.58 0 0 0 .585-.586m68.02-16.015c0-1.114 0-1.446-.277-1.829-.344-.464-.907-.538-1.313-.538-1.16 0-1.613.992-1.71 1.23h-.009v-1.23l-1.625.132v.348c.813 0 .907.082.907.668v3.238c0 .535-.133.535-.907.535v.348c.309-.023.954-.023 1.29-.023.343 0 .992 0 1.3.023v-.348c-.761 0-.906 0-.906-.535v-2.223c0-1.253.824-1.925 1.566-1.925.739 0 .907.61.907 1.34v2.808c0 .535-.133.535-.907.535v.348c.309-.023.954-.023 1.289-.023.344 0 .993 0 1.301.023v-.348c-.597 0-.894 0-.906-.355zm5.758.129c.262 0 .289 0 .289-.227 0-1.207-.649-2.328-2.094-2.328-1.363 0-2.414 1.23-2.414 2.71 0 1.579 1.219 2.735 2.547 2.735 1.422 0 1.961-1.289 1.961-1.539 0-.07-.063-.117-.133-.117-.098 0-.117.058-.144.117-.309 1.004-1.11 1.278-1.614 1.278-.5 0-1.707-.333-1.707-2.403v-.226zm-3.297-.227c.094-1.875 1.144-2.09 1.48-2.09 1.282 0 1.352 1.684 1.364 2.09zm11.148-1.016c.266-.75.789-.773.993-.789v-.343c-.297.023-.512.023-.883.023-.348 0-.371 0-1.016-.023v.343c.535.024.68.348.68.575 0 .011 0 .097-.047.214l-1.098 3.133-1.195-3.383c-.063-.144-.063-.168-.063-.203 0-.336.446-.336.696-.336v-.343c-.336.023-.824.023-1.172.023-.383 0-.406 0-1.074-.023v.343c.453 0 .609.024.742.18.058.074.199.469.285.707l-1.016 2.914-1.144-3.25c-.063-.156-.063-.18-.063-.227 0-.324.465-.324.692-.324v-.343a21 21 0 0 1-1.215.023c-.336 0-.363 0-1.113-.023v.343c.609 0 .726.051.859.43l1.508 4.281c.047.13.082.211.211.211.109 0 .168-.031.23-.226l1.192-3.403 1.199 3.403c.058.195.117.226.223.226.132 0 .167-.082.218-.21zm3.371-3.964c0-.383-.32-.563-.574-.563-.25 0-.621.168-.586.668l.434 5.473c.008.203.035.254.141.254.121 0 .144-.04.156-.254zm0 7.394a.58.58 0 1 0-1.16.011.58.58 0 0 0 1.16-.01m153.118-1.317c0-1.114 0-1.446-.274-1.829-.347-.464-.906-.538-1.312-.538-1.16 0-1.614.992-1.711 1.23h-.012v-1.23l-1.625.132v.348c.813 0 .91.082.91.668v3.238c0 .535-.133.535-.91.535v.348c.313-.023.957-.023 1.289-.023.348 0 .992 0 1.305.023v-.348c-.766 0-.91 0-.91-.535v-2.223c0-1.253.828-1.925 1.566-1.925.742 0 .91.61.91 1.34v2.808c0 .535-.133.535-.91.535v.348c.309-.023.957-.023 1.289-.023.348 0 .992 0 1.305.023v-.348c-.598 0-.895 0-.91-.355zm5.761.129c.262 0 .286 0 .286-.227 0-1.207-.645-2.328-2.09-2.328-1.364 0-2.414 1.23-2.414 2.71 0 1.579 1.218 2.735 2.543 2.735 1.421 0 1.961-1.289 1.961-1.539 0-.07-.059-.117-.133-.117-.094 0-.117.058-.141.117-.312 1.004-1.113 1.278-1.613 1.278-.504 0-1.707-.333-1.707-2.403v-.226zm-3.3-.227c.097-1.875 1.148-2.09 1.484-2.09 1.277 0 1.352 1.684 1.359 2.09zm11.152-1.016c.262-.75.789-.773.992-.789v-.343c-.301.023-.516.023-.887.023-.343 0-.367 0-1.015-.023v.343c.539.024.683.348.683.575 0 .011 0 .097-.047.214l-1.101 3.133-1.195-3.383c-.059-.144-.059-.168-.059-.203 0-.336.441-.336.695-.336v-.343c-.336.023-.828.023-1.172.023-.382 0-.406 0-1.078-.023v.343c.457 0 .61.024.743.18.058.074.203.469.289.707l-1.016 2.914-1.148-3.25c-.059-.156-.059-.18-.059-.227 0-.324.465-.324.691-.324v-.343c-.297.023-.898.023-1.218.023-.336 0-.36 0-1.11-.023v.343c.61 0 .727.051.86.43l1.503 4.281c.047.13.083.211.215.211.11 0 .168-.031.227-.226l1.195-3.403 1.196 3.403c.058.195.121.226.226.226.133 0 .168-.082.215-.21zm3.367-3.964c0-.383-.32-.563-.57-.563-.254 0-.621.168-.586.668l.43 5.473c.011.203.035.254.144.254.117 0 .141-.04.156-.254zm0 7.394a.578.578 0 1 0-1.156.012.577.577 0 1 0 1.156-.012"/></g></svg>