<svg xmlns="http://www.w3.org/2000/svg" width="266pt" height="641pt" viewBox="0 -641 266 641"><g id="page1"><path fill="#ffd9b2" d="M10.004-8.95h5.953c1.633 0 3.2.65 4.355 1.802l4.895 4.898a2.553 2.553 0 0 0 3.61 0l4.894-4.898a6.17 6.17 0 0 1 4.355-1.801h206.762a2.553 2.553 0 0 0 2.551-2.555v-47.644a2.55 2.55 0 0 0-2.551-2.551H38.066a6.16 6.16 0 0 0-4.355 1.804L28.816-55a2.553 2.553 0 0 1-3.609 0l-4.895-4.895a6.16 6.16 0 0 0-4.355-1.804H4.051A2.55 2.55 0 0 0 1.5-59.15v47.645c0 1.41 1.14 2.555 2.55 2.555z"/><path fill="none" stroke="#b25900" stroke-linecap="round" stroke-linejoin="round" stroke-width="3" d="M10.004-8.95h5.953c1.633 0 3.2.65 4.355 1.802l4.895 4.898a2.553 2.553 0 0 0 3.61 0l4.894-4.898a6.17 6.17 0 0 1 4.355-1.801h206.762a2.553 2.553 0 0 0 2.551-2.555v-47.644a2.55 2.55 0 0 0-2.551-2.551H38.066a6.16 6.16 0 0 0-4.355 1.804L28.816-55a2.553 2.553 0 0 1-3.609 0l-4.895-4.895a6.16 6.16 0 0 0-4.355-1.804H4.051A2.55 2.55 0 0 0 1.5-59.15v47.645c0 1.41 1.14 2.555 2.55 2.555z"/><path fill="#ffffb2" d="M10.004-64.644h5.953c1.633 0 3.2.648 4.355 1.804l4.895 4.895a2.553 2.553 0 0 0 3.61 0l4.894-4.895a6.16 6.16 0 0 1 4.355-1.804h206.762a2.55 2.55 0 0 0 2.551-2.551v-569.668a2.553 2.553 0 0 0-2.551-2.555H38.066a6.16 6.16 0 0 0-4.355 1.805l-4.895 4.894c-.996 1-2.613 1-3.609 0l-4.895-4.894a6.16 6.16 0 0 0-4.355-1.805H4.051a2.553 2.553 0 0 0-2.551 2.555v569.668c0 1.41 1.14 2.55 2.55 2.55z"/><path fill="none" stroke="#b2b200" stroke-linecap="round" stroke-linejoin="round" stroke-width="3" d="M10.004-64.644h5.953c1.633 0 3.2.648 4.355 1.804l4.895 4.895a2.553 2.553 0 0 0 3.61 0l4.894-4.895a6.16 6.16 0 0 1 4.355-1.804h206.762a2.55 2.55 0 0 0 2.551-2.551v-569.668a2.553 2.553 0 0 0-2.551-2.555H38.066a6.16 6.16 0 0 0-4.355 1.805l-4.895 4.894c-.996 1-2.613 1-3.609 0l-4.895-4.894a6.16 6.16 0 0 0-4.355-1.805H4.051a2.553 2.553 0 0 0-2.551 2.555v569.668c0 1.41 1.14 2.55 2.55 2.55z"/><path fill="#ffffb2" d="M35.516-81.652h5.953c1.633 0 3.199.648 4.355 1.804l4.895 4.895a2.553 2.553 0 0 0 3.61 0l4.894-4.895a6.16 6.16 0 0 1 4.355-1.804h189.754a2.55 2.55 0 0 0 2.551-2.551V-252.63a2.55 2.55 0 0 0-2.551-2.551H63.578a6.16 6.16 0 0 0-4.355 1.805l-4.895 4.895c-.996 1-2.613 1-3.61 0l-4.894-4.895a6.16 6.16 0 0 0-4.355-1.805H29.562a2.55 2.55 0 0 0-2.55 2.551v168.426c0 1.41 1.14 2.55 2.55 2.55z"/><path fill="none" stroke="#b2b200" stroke-linecap="round" stroke-linejoin="round" stroke-width="3" d="M35.516-81.652h5.953c1.633 0 3.199.648 4.355 1.804l4.895 4.895a2.553 2.553 0 0 0 3.61 0l4.894-4.895a6.16 6.16 0 0 1 4.355-1.804h189.754a2.55 2.55 0 0 0 2.551-2.551V-252.63a2.55 2.55 0 0 0-2.551-2.551H63.578a6.16 6.16 0 0 0-4.355 1.805l-4.895 4.895c-.996 1-2.613 1-3.61 0l-4.894-4.895a6.16 6.16 0 0 0-4.355-1.805H29.562a2.55 2.55 0 0 0-2.55 2.551v168.426c0 1.41 1.14 2.55 2.55 2.55z"/><path fill="#ffd9b2" d="M61.027-98.66h5.954a6.16 6.16 0 0 1 4.355 1.804l4.895 4.895a2.553 2.553 0 0 0 3.609 0l4.894-4.895a6.16 6.16 0 0 1 4.356-1.804h172.746a2.55 2.55 0 0 0 2.551-2.551v-73.156a2.55 2.55 0 0 0-2.551-2.551H89.09c-1.633 0-3.2.648-4.356 1.805l-4.894 4.894a2.553 2.553 0 0 1-3.61 0l-4.894-4.894a6.16 6.16 0 0 0-4.355-1.805H55.074a2.55 2.55 0 0 0-2.55 2.551v73.156c0 1.41 1.14 2.55 2.55 2.55z"/><path fill="none" stroke="#b25900" stroke-linecap="round" stroke-linejoin="round" stroke-width="3" d="M61.027-98.66h5.954a6.16 6.16 0 0 1 4.355 1.804l4.895 4.895a2.553 2.553 0 0 0 3.609 0l4.894-4.895a6.16 6.16 0 0 1 4.356-1.804h172.746a2.55 2.55 0 0 0 2.551-2.551v-73.156a2.55 2.55 0 0 0-2.551-2.551H89.09c-1.633 0-3.2.648-4.356 1.805l-4.894 4.894a2.553 2.553 0 0 1-3.61 0l-4.894-4.894a6.16 6.16 0 0 0-4.355-1.805H55.074a2.55 2.55 0 0 0-2.55 2.551v73.156c0 1.41 1.14 2.55 2.55 2.55z"/><path fill="#d9b2b2" d="M221.188-137.789c0 13.172 5.683 26.375 17.347 26.375s17.348-13.203 17.348-26.375c0-13.176-5.684-26.375-17.348-26.375s-17.347 13.199-17.347 26.375"/><path fill="none" stroke="#590000" stroke-linecap="round" stroke-linejoin="round" stroke-width="3" d="M221.188-137.789c0 13.172 5.683 26.375 17.347 26.375s17.348-13.203 17.348-26.375c0-13.176-5.684-26.375-17.348-26.375s-17.347 13.199-17.347 26.375"/><path fill="#b2ffb2" d="m76.727-200.109 9.504 8.839a16.23 16.23 0 0 0 11.05 4.348h22.473c4.098 0 8.043-1.555 11.047-4.348l19.008-17.683a5.94 5.94 0 0 0 0-8.688l-19.008-17.683a16.23 16.23 0 0 0-11.047-4.348H97.281a16.23 16.23 0 0 0-11.05 4.348l-19.008 17.683a5.94 5.94 0 0 0 0 8.688z"/><path fill="none" stroke="#00b200" stroke-linecap="round" stroke-linejoin="round" stroke-width="3" d="m76.727-200.109 9.504 8.839a16.23 16.23 0 0 0 11.05 4.348h22.473c4.098 0 8.043-1.555 11.047-4.348l19.008-17.683a5.94 5.94 0 0 0 0-8.688l-19.008-17.683a16.23 16.23 0 0 0-11.047-4.348H97.281a16.23 16.23 0 0 0-11.05 4.348l-19.008 17.683a5.94 5.94 0 0 0 0 8.688z"/><path fill="#ffffb2" d="M35.516-309.426h5.953c1.633 0 3.199.649 4.355 1.805l4.895 4.894a2.55 2.55 0 0 0 3.61 0l4.894-4.894a6.16 6.16 0 0 1 4.355-1.805h189.754c1.41 0 2.551-1.14 2.551-2.551v-168.425a2.55 2.55 0 0 0-2.551-2.551H63.578c-1.633 0-3.2.648-4.355 1.805l-4.895 4.894a2.553 2.553 0 0 1-3.61 0l-4.894-4.894a6.16 6.16 0 0 0-4.355-1.805H29.562a2.55 2.55 0 0 0-2.55 2.551v168.425a2.55 2.55 0 0 0 2.55 2.551z"/><path fill="none" stroke="#b2b200" stroke-linecap="round" stroke-linejoin="round" stroke-width="3" d="M35.516-309.426h5.953c1.633 0 3.199.649 4.355 1.805l4.895 4.894a2.55 2.55 0 0 0 3.61 0l4.894-4.894a6.16 6.16 0 0 1 4.355-1.805h189.754c1.41 0 2.551-1.14 2.551-2.551v-168.425a2.55 2.55 0 0 0-2.551-2.551H63.578c-1.633 0-3.2.648-4.355 1.805l-4.895 4.894a2.553 2.553 0 0 1-3.61 0l-4.894-4.894a6.16 6.16 0 0 0-4.355-1.805H29.562a2.55 2.55 0 0 0-2.55 2.551v168.425a2.55 2.55 0 0 0 2.55 2.551z"/><path fill="#ffd9b2" d="M61.027-326.434h5.954a6.16 6.16 0 0 1 4.355 1.805l4.895 4.895a2.553 2.553 0 0 0 3.609 0l4.894-4.895a6.16 6.16 0 0 1 4.356-1.805h172.746c1.41 0 2.551-1.14 2.551-2.55v-73.157c0-1.41-1.141-2.55-2.551-2.55H89.09c-1.633 0-3.2.648-4.356 1.8l-4.894 4.899a2.553 2.553 0 0 1-3.61 0l-4.894-4.899a6.17 6.17 0 0 0-4.355-1.8H55.074c-1.41 0-2.55 1.14-2.55 2.55v73.157c0 1.41 1.14 2.55 2.55 2.55z"/><path fill="none" stroke="#b25900" stroke-linecap="round" stroke-linejoin="round" stroke-width="3" d="M61.027-326.434h5.954a6.16 6.16 0 0 1 4.355 1.805l4.895 4.895a2.553 2.553 0 0 0 3.609 0l4.894-4.895a6.16 6.16 0 0 1 4.356-1.805h172.746c1.41 0 2.551-1.14 2.551-2.55v-73.157c0-1.41-1.141-2.55-2.551-2.55H89.09c-1.633 0-3.2.648-4.356 1.8l-4.894 4.899a2.553 2.553 0 0 1-3.61 0l-4.894-4.899a6.17 6.17 0 0 0-4.355-1.8H55.074c-1.41 0-2.55 1.14-2.55 2.55v73.157c0 1.41 1.14 2.55 2.55 2.55z"/><path fill="#d9b2b2" d="M221.188-365.563c0 13.172 5.683 26.372 17.347 26.372s17.348-13.2 17.348-26.372c0-13.175-5.684-26.375-17.348-26.375s-17.347 13.2-17.347 26.375"/><path fill="none" stroke="#590000" stroke-linecap="round" stroke-linejoin="round" stroke-width="3" d="M221.188-365.563c0 13.172 5.683 26.372 17.347 26.372s17.348-13.2 17.348-26.372c0-13.175-5.684-26.375-17.348-26.375s-17.347 13.2-17.347 26.375"/><path fill="#b2ffb2" d="m76.727-427.883 9.504 8.84a16.23 16.23 0 0 0 11.05 4.348h22.473c4.098 0 8.043-1.555 11.047-4.348l19.008-17.684a5.94 5.94 0 0 0 0-8.687l-19.008-17.688a16.24 16.24 0 0 0-11.047-4.343H97.281a16.24 16.24 0 0 0-11.05 4.343l-19.008 17.688a5.937 5.937 0 0 0 0 8.687z"/><path fill="none" stroke="#00b200" stroke-linecap="round" stroke-linejoin="round" stroke-width="3" d="m76.727-427.883 9.504 8.84a16.23 16.23 0 0 0 11.05 4.348h22.473c4.098 0 8.043-1.555 11.047-4.348l19.008-17.684a5.94 5.94 0 0 0 0-8.687l-19.008-17.688a16.24 16.24 0 0 0-11.047-4.343H97.281a16.24 16.24 0 0 0-11.05 4.343l-19.008 17.688a5.937 5.937 0 0 0 0 8.687z"/><path fill="#ffd9b2" d="M35.516-485.898h5.953c1.633 0 3.199.648 4.355 1.804l4.895 4.895a2.553 2.553 0 0 0 3.61 0l4.894-4.895a6.16 6.16 0 0 1 4.355-1.804h189.754a2.55 2.55 0 0 0 2.551-2.551v-73.156a2.55 2.55 0 0 0-2.551-2.551H63.578c-1.633 0-3.2.648-4.355 1.804l-4.895 4.895a2.553 2.553 0 0 1-3.61 0l-4.894-4.895a6.16 6.16 0 0 0-4.355-1.804H29.562c-1.41 0-2.55 1.14-2.55 2.551v73.156a2.55 2.55 0 0 0 2.55 2.551z"/><path fill="none" stroke="#b25900" stroke-linecap="round" stroke-linejoin="round" stroke-width="3" d="M35.516-485.898h5.953c1.633 0 3.199.648 4.355 1.804l4.895 4.895a2.553 2.553 0 0 0 3.61 0l4.894-4.895a6.16 6.16 0 0 1 4.355-1.804h189.754a2.55 2.55 0 0 0 2.551-2.551v-73.156a2.55 2.55 0 0 0-2.551-2.551H63.578c-1.633 0-3.2.648-4.355 1.804l-4.895 4.895a2.553 2.553 0 0 1-3.61 0l-4.894-4.895a6.16 6.16 0 0 0-4.355-1.804H29.562c-1.41 0-2.55 1.14-2.55 2.551v73.156a2.55 2.55 0 0 0 2.55 2.551z"/><path fill="#d9b2b2" d="M196.977-525.027c0 13.172 5.683 26.375 17.347 26.375s17.348-13.203 17.348-26.375-5.684-26.375-17.348-26.375-17.347 13.203-17.347 26.375"/><path fill="none" stroke="#590000" stroke-linecap="round" stroke-linejoin="round" stroke-width="3" d="M196.977-525.027c0 13.172 5.683 26.375 17.347 26.375s17.348-13.203 17.348-26.375-5.684-26.375-17.348-26.375-17.347 13.203-17.347 26.375"/><path fill="#b2ffb2" d="m51.215-587.348 9.504 8.84a16.23 16.23 0 0 0 11.05 4.348h40.032c4.097 0 8.043-1.555 11.047-4.348l19.007-17.683a5.93 5.93 0 0 0 0-8.688l-19.007-17.684a16.23 16.23 0 0 0-11.047-4.347H71.769a16.23 16.23 0 0 0-11.05 4.347l-19.004 17.684a5.93 5.93 0 0 0 0 8.688z"/><path fill="none" stroke="#00b200" stroke-linecap="round" stroke-linejoin="round" stroke-width="3" d="m51.215-587.348 9.504 8.84a16.23 16.23 0 0 0 11.05 4.348h40.032c4.097 0 8.043-1.555 11.047-4.348l19.007-17.683a5.93 5.93 0 0 0 0-8.688l-19.007-17.684a16.23 16.23 0 0 0-11.047-4.347H71.769a16.23 16.23 0 0 0-11.05 4.347l-19.004 17.684a5.93 5.93 0 0 0 0 8.688z"/><path d="M21.648-38.14c-.285 0-1.168 0-1.168.976 0 .574.407.98.98.98.548 0 1-.332 1-1.027 0-1.602-1.67-2.746-3.605-2.746-2.796 0-5.02 2.484-5.02 5.496 0 3.059 2.294 5.398 4.997 5.398 3.152 0 3.871-2.867 3.871-3.082s-.168-.214-.242-.214c-.211 0-.238.07-.309.359-.527 1.695-1.816 2.414-3.105 2.414-1.461 0-3.395-1.266-3.395-4.898 0-3.97 2.032-4.95 3.227-4.95.906 0 2.223.36 2.77 1.293m10.976 2.461c0-1.289 0-2.246-1.05-3.18-.84-.765-1.915-1.097-2.966-1.097-1.96 0-3.465 1.289-3.465 2.844 0 .691.454 1.027 1.004 1.027.575 0 .98-.406.98-.98 0-.98-.862-.98-1.218-.98.55-1.005 1.695-1.434 2.653-1.434 1.097 0 2.507.91 2.507 3.058v.957c-4.804.07-6.617 2.078-6.617 3.918 0 1.89 2.195 2.485 3.656 2.485 1.575 0 2.653-.954 3.106-2.102.094 1.125.836 1.984 1.863 1.984.5 0 1.887-.336 1.887-2.246v-1.34h-.524v1.34c0 1.363-.574 1.551-.91 1.551-.906 0-.906-1.266-.906-1.625zm-1.555 3.012c0 2.34-1.742 3.129-2.773 3.129-1.168 0-2.149-.86-2.149-2.008 0-3.152 4.063-3.441 4.922-3.488zm21.164-2.437c0-2.223 0-2.895-.55-3.657-.692-.933-1.817-1.078-2.63-1.078-1.984 0-2.984 1.434-3.367 2.367-.335-1.84-1.624-2.367-3.132-2.367-2.317 0-3.227 1.985-3.414 2.465h-.028v-2.465l-3.25.266v.691c1.625 0 1.817.168 1.817 1.34v6.473c0 1.078-.262 1.078-1.817 1.078v.691c.621-.047 1.914-.047 2.582-.047.696 0 1.985 0 2.606.047v-.691c-1.532 0-1.817 0-1.817-1.078v-4.442c0-2.511 1.649-3.847 3.13-3.847 1.484 0 1.816 1.218 1.816 2.675v5.614c0 1.078-.262 1.078-1.817 1.078v.691c.621-.047 1.914-.047 2.582-.047.696 0 1.985 0 2.606.047v-.691c-1.532 0-1.817 0-1.817-1.078v-4.442c0-2.511 1.649-3.847 3.13-3.847s1.816 1.218 1.816 2.675v5.614c0 1.078-.262 1.078-1.817 1.078v.691c.621-.047 1.914-.047 2.582-.047.696 0 1.985 0 2.606.047v-.691c-1.196 0-1.793 0-1.817-.719zm19.5 0c0-2.223 0-2.895-.55-3.657-.692-.933-1.817-1.078-2.63-1.078-1.984 0-2.984 1.434-3.367 2.367-.335-1.84-1.624-2.367-3.132-2.367-2.317 0-3.227 1.985-3.414 2.465h-.028v-2.465l-3.25.266v.691c1.625 0 1.817.168 1.817 1.34v6.473c0 1.078-.262 1.078-1.817 1.078v.691c.621-.047 1.914-.047 2.582-.047.696 0 1.985 0 2.606.047v-.691c-1.532 0-1.817 0-1.817-1.078v-4.442c0-2.511 1.649-3.847 3.13-3.847 1.484 0 1.816 1.218 1.816 2.675v5.614c0 1.078-.262 1.078-1.817 1.078v.691c.621-.047 1.914-.047 2.582-.047.696 0 1.985 0 2.606.047v-.691c-1.532 0-1.817 0-1.817-1.078v-4.442c0-2.511 1.649-3.847 3.13-3.847s1.816 1.218 1.816 2.675v5.614c0 1.078-.262 1.078-1.817 1.078v.691c.621-.047 1.914-.047 2.582-.047.696 0 1.985 0 2.606.047v-.691c-1.195 0-1.793 0-1.817-.719zm6.524-8.915c0-.62-.5-1.171-1.172-1.171-.621 0-1.145.504-1.145 1.148a1.15 1.15 0 0 0 1.145 1.168c.742 0 1.172-.621 1.172-1.145m-3.297 4.446v.691c1.527 0 1.742.145 1.742 1.313v6.5c0 1.078-.262 1.078-1.812 1.078v.691c.668-.047 1.812-.047 2.507-.047.262 0 1.649 0 2.461.047v-.691c-1.554 0-1.648-.121-1.648-1.051v-8.797zm16.273 4.469c0-2.223 0-2.895-.55-3.657-.692-.933-1.817-1.078-2.63-1.078-2.316 0-3.226 1.985-3.413 2.465h-.028v-2.465l-3.25.266v.691c1.625 0 1.817.168 1.817 1.34v6.473c0 1.078-.262 1.078-1.817 1.078v.691c.621-.047 1.914-.047 2.582-.047.696 0 1.985 0 2.606.047v-.691c-1.532 0-1.817 0-1.817-1.078v-4.442c0-2.511 1.649-3.847 3.13-3.847 1.484 0 1.816 1.218 1.816 2.675v5.614c0 1.078-.262 1.078-1.817 1.078v.691c.621-.047 1.914-.047 2.582-.047.696 0 1.985 0 2.606.047v-.691c-1.195 0-1.793 0-1.817-.719zm11.59-.575c0-1.289 0-2.246-1.051-3.18-.835-.765-1.914-1.097-2.964-1.097-1.957 0-3.465 1.289-3.465 2.844 0 .691.453 1.027 1.004 1.027.574 0 .98-.406.98-.98 0-.98-.86-.98-1.219-.98.551-1.005 1.696-1.434 2.653-1.434 1.097 0 2.508.91 2.508 3.058v.957c-4.801.07-6.618 2.078-6.618 3.918 0 1.89 2.2 2.485 3.657 2.485 1.574 0 2.652-.954 3.105-2.102.094 1.125.836 1.984 1.863 1.984.504 0 1.887-.336 1.887-2.246v-1.34h-.523v1.34c0 1.363-.575 1.551-.907 1.551-.91 0-.91-1.266-.91-1.625zm-1.554 3.012c0 2.34-1.743 3.129-2.77 3.129-1.172 0-2.152-.86-2.152-2.008 0-3.152 4.062-3.441 4.922-3.488zM81.133-137.605c0-2.223 0-2.891-.547-3.657-.695-.933-1.817-1.078-2.629-1.078-1.984 0-2.988 1.434-3.371 2.367-.336-1.84-1.625-2.367-3.129-2.367-2.32 0-3.226 1.985-3.418 2.461h-.023v-2.461l-3.25.266v.691c1.625 0 1.816.168 1.816 1.34v6.473c0 1.078-.262 1.078-1.816 1.078v.691c.62-.047 1.91-.047 2.578-.047.695 0 1.984 0 2.605.047v-.691c-1.527 0-1.816 0-1.816-1.078v-4.442c0-2.511 1.648-3.847 3.133-3.847 1.48 0 1.816 1.218 1.816 2.675v5.614c0 1.078-.266 1.078-1.816 1.078v.691c.62-.047 1.91-.047 2.578-.047.695 0 1.984 0 2.605.047v-.691c-1.527 0-1.816 0-1.816-1.078v-4.442c0-2.511 1.648-3.847 3.133-3.847 1.48 0 1.816 1.218 1.816 2.675v5.614c0 1.078-.266 1.078-1.816 1.078v.691c.62-.047 1.91-.047 2.578-.047.695 0 1.984 0 2.605.047v-.691c-1.195 0-1.793 0-1.816-.719zm11.59-.575c0-1.289 0-2.246-1.051-3.179-.836-.762-1.91-1.098-2.961-1.098-1.961 0-3.469 1.289-3.469 2.844 0 .691.457 1.027 1.008 1.027.57 0 .977-.406.977-.98 0-.981-.86-.981-1.22-.981.552-1.004 1.7-1.433 2.653-1.433 1.102 0 2.512.91 2.512 3.058v.957c-4.805.07-6.621 2.078-6.621 3.918 0 1.891 2.199 2.484 3.656 2.484 1.578 0 2.652-.953 3.106-2.101.097 1.125.835 1.984 1.867 1.984.5 0 1.886-.336 1.886-2.246v-1.34h-.527v1.34c0 1.363-.57 1.555-.906 1.555-.91 0-.91-1.27-.91-1.625zm-1.551 3.012c0 2.34-1.746 3.129-2.774 3.129-1.171 0-2.148-.859-2.148-2.008 0-3.152 4.063-3.441 4.922-3.488zm14.664-2.437c0-2.223 0-2.891-.551-3.657-.695-.933-1.816-1.078-2.629-1.078-2.316 0-3.226 1.985-3.418 2.461h-.023v-2.461l-3.25.266v.691c1.625 0 1.816.168 1.816 1.34v6.473c0 1.078-.262 1.078-1.816 1.078v.691c.62-.047 1.91-.047 2.582-.047.691 0 1.984 0 2.601.047v-.691c-1.527 0-1.812 0-1.812-1.078v-4.442c0-2.511 1.648-3.847 3.129-3.847 1.48 0 1.816 1.218 1.816 2.675v5.614c0 1.078-.265 1.078-1.816 1.078v.691c.621-.047 1.914-.047 2.582-.047.691 0 1.98 0 2.601.047v-.691c-1.195 0-1.789 0-1.812-.719zm5.207 1.48c1.125.742 2.078.742 2.344.742 2.148 0 3.75-1.625 3.75-3.469a3.25 3.25 0 0 0-.957-2.316c.933-.953 2.054-.953 2.175-.953.098 0 .215 0 .313.047-.238.094-.359.332-.359.597 0 .332.238.622.621.622.191 0 .621-.122.621-.649 0-.43-.336-1.098-1.172-1.098-1.242 0-2.176.766-2.508 1.125-.715-.55-1.555-.863-2.461-.863-2.152 0-3.754 1.625-3.754 3.469 0 1.359.836 2.242 1.078 2.457-.289.359-.718 1.055-.718 1.984 0 1.387.836 1.985 1.027 2.106-1.098.308-2.199 1.168-2.199 2.41 0 1.648 2.25 3.012 5.187 3.012 2.844 0 5.211-1.266 5.211-3.059 0-.598-.168-2.008-1.601-2.746-1.219-.621-2.414-.621-4.469-.621-1.457 0-1.625 0-2.055-.453-.238-.242-.457-.696-.457-1.196 0-.406.145-.812.383-1.148m2.367.238c-2.105 0-2.105-2.414-2.105-2.965 0-.429 0-1.406.41-2.054a2.03 2.03 0 0 1 1.672-.93c2.101 0 2.101 2.414 2.101 2.965 0 .426 0 1.406-.406 2.051a2.04 2.04 0 0 1-1.672.933m.645 8.485c-2.293 0-4.039-1.172-4.039-2.536 0-.191.047-1.121.957-1.742.523-.336.742-.336 2.414-.336 1.98 0 4.683 0 4.683 2.078 0 1.411-1.816 2.536-4.015 2.536m10.101-19.118c0-.621-.5-1.171-1.168-1.171a1.15 1.15 0 0 0-1.148 1.148c0 .715.574 1.172 1.148 1.172.739 0 1.168-.625 1.168-1.149m-3.297 4.446v.691c1.532 0 1.746.145 1.746 1.313v6.5c0 1.078-.261 1.078-1.816 1.078v.691c.668-.047 1.816-.047 2.508-.047.266 0 1.648 0 2.461.047v-.691c-1.551 0-1.649-.121-1.649-1.051v-8.797zm14.864 3.894c0-1.289 0-2.246-1.051-3.179-.836-.762-1.91-1.098-2.961-1.098-1.961 0-3.469 1.289-3.469 2.844 0 .691.457 1.027 1.004 1.027.574 0 .981-.406.981-.98 0-.981-.86-.981-1.219-.981.551-1.004 1.699-1.433 2.652-1.433 1.102 0 2.512.91 2.512 3.058v.957c-4.805.07-6.621 2.078-6.621 3.918 0 1.891 2.199 2.484 3.656 2.484 1.578 0 2.652-.953 3.106-2.101.097 1.125.835 1.984 1.867 1.984.5 0 1.886-.336 1.886-2.246v-1.34h-.527v1.34c0 1.363-.57 1.555-.906 1.555-.91 0-.91-1.27-.91-1.625zm-1.551 3.012c0 2.34-1.746 3.129-2.774 3.129-1.171 0-2.152-.859-2.152-2.008 0-3.152 4.067-3.441 4.926-3.488zm17.683 7.309c-1.531 0-1.816 0-1.816-1.075v-4.156c.43.598 1.41 1.527 2.938 1.527 2.75 0 5.164-2.316 5.164-5.398 0-3.035-2.246-5.379-4.852-5.379-2.101 0-3.226 1.508-3.297 1.602v-1.602l-3.324.266v.691c1.676 0 1.816.168 1.816 1.219v11.23c0 1.075-.261 1.075-1.816 1.075v.695c.621-.051 1.914-.051 2.582-.051.691 0 1.984 0 2.605.051zm-1.816-11.563c0-.457 0-.48.262-.859.719-1.078 1.887-1.532 2.797-1.532 1.793 0 3.226 2.176 3.226 4.852 0 2.844-1.625 4.922-3.465 4.922a2.83 2.83 0 0 1-1.914-.766c-.547-.547-.906-1.027-.906-1.695zm18.184 1.242c0-1.289 0-2.246-1.051-3.179-.836-.762-1.91-1.098-2.961-1.098-1.961 0-3.469 1.289-3.469 2.844 0 .691.457 1.027 1.004 1.027.574 0 .981-.406.981-.98 0-.981-.86-.981-1.219-.981.551-1.004 1.699-1.433 2.652-1.433 1.102 0 2.512.91 2.512 3.058v.957c-4.805.07-6.621 2.078-6.621 3.918 0 1.891 2.199 2.484 3.656 2.484 1.578 0 2.652-.953 3.106-2.101.097 1.125.835 1.984 1.867 1.984.5 0 1.886-.336 1.886-2.246v-1.34h-.527v1.34c0 1.363-.57 1.555-.906 1.555-.91 0-.91-1.27-.91-1.625zm-1.551 3.012c0 2.34-1.746 3.129-2.774 3.129-1.171 0-2.152-.859-2.152-2.008 0-3.152 4.067-3.441 4.926-3.488zm14.664-2.437c0-2.223 0-2.891-.551-3.657-.695-.933-1.816-1.078-2.629-1.078-2.316 0-3.226 1.985-3.418 2.461h-.023v-2.461l-3.25.266v.691c1.625 0 1.816.168 1.816 1.34v6.473c0 1.078-.261 1.078-1.816 1.078v.691c.621-.047 1.914-.047 2.582-.047.691 0 1.984 0 2.601.047v-.691c-1.527 0-1.812 0-1.812-1.078v-4.442c0-2.511 1.648-3.847 3.129-3.847 1.48 0 1.816 1.218 1.816 2.675v5.614c0 1.078-.265 1.078-1.816 1.078v.691c.621-.047 1.914-.047 2.582-.047.691 0 1.98 0 2.601.047v-.691c-1.195 0-1.789 0-1.812-.719zm6.523-8.915c0-.621-.504-1.171-1.171-1.171a1.15 1.15 0 0 0-1.149 1.148c0 .715.574 1.172 1.149 1.172.742 0 1.171-.625 1.171-1.149m-3.296 4.446v.691c1.527 0 1.742.145 1.742 1.313v6.5c0 1.078-.262 1.078-1.817 1.078v.691c.668-.047 1.817-.047 2.508-.047.266 0 1.652 0 2.465.047v-.691c-1.555 0-1.648-.121-1.648-1.051v-8.797zm16.273 4.469c0-2.223 0-2.891-.551-3.657-.695-.933-1.816-1.078-2.629-1.078-2.316 0-3.226 1.985-3.418 2.461h-.023v-2.461l-3.25.266v.691c1.625 0 1.816.168 1.816 1.34v6.473c0 1.078-.261 1.078-1.816 1.078v.691c.621-.047 1.914-.047 2.582-.047.691 0 1.984 0 2.601.047v-.691c-1.527 0-1.812 0-1.812-1.078v-4.442c0-2.511 1.648-3.847 3.129-3.847 1.48 0 1.816 1.218 1.816 2.675v5.614c0 1.078-.265 1.078-1.816 1.078v.691c.621-.047 1.914-.047 2.582-.047.691 0 1.98 0 2.601.047v-.691c-1.195 0-1.789 0-1.812-.719zm6.523-8.915c0-.621-.504-1.171-1.171-1.171a1.15 1.15 0 0 0-1.149 1.148c0 .715.574 1.172 1.149 1.172.742 0 1.171-.625 1.171-1.149m-3.296 4.446v.691c1.527 0 1.742.145 1.742 1.313v6.5c0 1.078-.262 1.078-1.817 1.078v.691c.668-.047 1.817-.047 2.508-.047.266 0 1.652 0 2.465.047v-.691c-1.555 0-1.648-.121-1.648-1.051v-8.797zm35.519-5.043c0-.551 0-.574-.477-.574-.574.644-1.769 1.527-4.23 1.527v.695c.551 0 1.742 0 3.059-.621v12.449c0 .86-.075 1.149-2.176 1.149h-.738v.691c.644-.047 2.96-.047 3.75-.047.789 0 3.082 0 3.726.047v-.691h-.738c-2.102 0-2.176-.289-2.176-1.149zM46.336-217.406c0-.434 0-.551-.238-.551-.192 0-.645.523-.813.738-.738-.594-1.48-.738-2.246-.738-2.89 0-3.75 1.574-3.75 2.891 0 .261 0 1.097.906 1.933.766.672 1.578.84 2.68 1.055 1.313.262 1.625.332 2.219.812.43.36.742.883.742 1.551 0 1.027-.598 2.176-2.7 2.176-1.577 0-2.722-.906-3.25-3.297-.097-.43-.097-.453-.12-.477-.047-.097-.141-.097-.215-.097-.262 0-.262.121-.262.551v3.25c0 .429 0 .546.238.546.121 0 .145-.023.551-.527.117-.164.117-.211.477-.594.906 1.121 2.199 1.121 2.605 1.121 2.508 0 3.75-1.382 3.75-3.273 0-1.289-.785-2.055-1.004-2.269-.86-.739-1.504-.883-3.082-1.172-.715-.141-2.46-.477-2.46-1.911 0-.742.503-1.839 2.652-1.839 2.605 0 2.75 2.222 2.797 2.964.023.192.19.192.261.192.262 0 .262-.121.262-.551zm10.516 4.562c.527 0 .574 0 .574-.453 0-2.414-1.29-4.66-4.184-4.66-2.722 0-4.824 2.461-4.824 5.426 0 3.152 2.438 5.468 5.09 5.468 2.844 0 3.918-2.578 3.918-3.082 0-.144-.121-.238-.262-.238-.191 0-.242.121-.289.238-.621 2.008-2.219 2.555-3.227 2.555-1 0-3.414-.668-3.414-4.801v-.453zm-6.594-.453c.191-3.754 2.293-4.183 2.96-4.183 2.56 0 2.704 3.371 2.727 4.183zm38.68-4.109c0-.434 0-.551-.239-.551-.191 0-.644.523-.812.738-.743-.594-1.48-.738-2.246-.738-2.891 0-3.75 1.574-3.75 2.891 0 .261 0 1.097.906 1.933.766.672 1.578.84 2.676 1.055 1.316.262 1.625.332 2.222.812.43.36.743.883.743 1.551 0 1.027-.598 2.176-2.704 2.176-1.574 0-2.722-.906-3.25-3.297-.093-.43-.093-.453-.117-.477-.047-.097-.144-.097-.215-.097-.261 0-.261.121-.261.551v3.25c0 .429 0 .546.238.546.117 0 .14-.023.547-.527.12-.164.12-.211.48-.594.906 1.121 2.196 1.121 2.602 1.121 2.511 0 3.754-1.382 3.754-3.273 0-1.289-.79-2.055-1.004-2.269-.86-.739-1.504-.883-3.082-1.172-.719-.141-2.461-.477-2.461-1.911 0-.742.5-1.839 2.652-1.839 2.606 0 2.746 2.222 2.797 2.964.023.192.188.192.262.192.261 0 .261-.121.261-.551zm10.687 3.726c0-1.289 0-2.246-1.05-3.179-.84-.762-1.915-1.098-2.966-1.098-1.96 0-3.465 1.289-3.465 2.844 0 .691.454 1.027 1.004 1.027.575 0 .98-.406.98-.98 0-.981-.862-.981-1.218-.981.55-1.004 1.696-1.433 2.653-1.433 1.097 0 2.507.91 2.507 3.058v.957c-4.804.07-6.617 2.078-6.617 3.918 0 1.891 2.195 2.484 3.656 2.484 1.575 0 2.653-.953 3.106-2.101.094 1.125.836 1.984 1.863 1.984.5 0 1.887-.336 1.887-2.246v-1.34h-.524v1.34c0 1.363-.574 1.555-.91 1.555-.906 0-.906-1.27-.906-1.625zm-1.555 3.012c0 2.34-1.742 3.129-2.773 3.129-1.168 0-2.149-.859-2.149-2.008 0-3.152 4.063-3.441 4.922-3.488zm8.141-13.215-3.32.262v.691c1.625 0 1.812.168 1.812 1.34v12.52c0 1.078-.262 1.078-1.812 1.078v.691c.668-.047 1.836-.047 2.554-.047.719 0 1.914 0 2.582.047v-.691c-1.531 0-1.816 0-1.816-1.078zm6.547 1.863c0-.621-.5-1.171-1.168-1.171-.625 0-1.149.503-1.149 1.148 0 .715.575 1.172 1.149 1.172.738 0 1.168-.625 1.168-1.149m-3.297 4.446v.691c1.527 0 1.742.145 1.742 1.313v6.5c0 1.078-.262 1.078-1.812 1.078v.691c.668-.047 1.812-.047 2.507-.047.262 0 1.649 0 2.461.047v-.691c-1.554 0-1.648-.121-1.648-1.051v-8.797zm9.652.668h3.371v-.696h-3.371v-4.394h-.523c-.024 2.246-.887 4.539-3.059 4.613v.477h2.032v6.644c0 2.653 1.765 3.199 3.035 3.199 1.504 0 2.293-1.48 2.293-3.199v-1.363h-.528v1.312c0 1.723-.691 2.723-1.625 2.723-1.625 0-1.625-2.219-1.625-2.625zm14.309 3.226c0-1.289 0-2.246-1.051-3.179-.836-.762-1.91-1.098-2.961-1.098-1.961 0-3.465 1.289-3.465 2.844 0 .691.453 1.027 1.004 1.027.574 0 .981-.406.981-.98 0-.981-.864-.981-1.219-.981.547-1.004 1.695-1.433 2.648-1.433 1.102 0 2.512.91 2.512 3.058v.957c-4.805.07-6.617 2.078-6.617 3.918 0 1.891 2.195 2.484 3.652 2.484 1.578 0 2.657-.953 3.11-2.101.093 1.125.836 1.984 1.863 1.984.5 0 1.887-.336 1.887-2.246v-1.34h-.524v1.34c0 1.363-.574 1.555-.91 1.555-.91 0-.91-1.27-.91-1.625zm-1.551 3.012c0 2.34-1.742 3.129-2.773 3.129-1.168 0-2.149-.859-2.149-2.008 0-3.152 4.063-3.441 4.922-3.488zm31.141-6.238h2.699v-.696h-2.746v-2.793c0-2.152 1.098-3.25 2.078-3.25.191 0 .547.047.836.192-.098.023-.695.238-.695.93 0 .55.382.933.933.933.574 0 .957-.383.957-.957 0-.883-.859-1.574-2.008-1.574-1.675 0-3.562 1.289-3.562 3.726v2.793h-1.863v.696h1.863v7.836c0 1.078-.262 1.078-1.816 1.078v.691c.671-.047 1.984-.047 2.703-.047.644 0 2.339 0 2.89.047v-.691h-.476c-1.746 0-1.793-.266-1.793-1.125zm12.211 3.226c0-1.289 0-2.246-1.051-3.179-.836-.762-1.91-1.098-2.961-1.098-1.961 0-3.469 1.289-3.469 2.844 0 .691.457 1.027 1.004 1.027.574 0 .981-.406.981-.98 0-.981-.86-.981-1.219-.981.551-1.004 1.699-1.433 2.652-1.433 1.102 0 2.512.91 2.512 3.058v.957c-4.805.07-6.621 2.078-6.621 3.918 0 1.891 2.199 2.484 3.656 2.484 1.578 0 2.652-.953 3.106-2.101.097 1.125.835 1.984 1.867 1.984.5 0 1.886-.336 1.886-2.246v-1.34h-.527v1.34c0 1.363-.57 1.555-.906 1.555-.91 0-.91-1.27-.91-1.625zm-1.551 3.012c0 2.34-1.746 3.129-2.774 3.129-1.171 0-2.152-.859-2.152-2.008 0-3.152 4.067-3.441 4.926-3.488zm8.187-11.352c0-.621-.504-1.171-1.171-1.171a1.15 1.15 0 0 0-1.149 1.148c0 .715.574 1.172 1.149 1.172.742 0 1.171-.625 1.171-1.149m-3.296 4.446v.691c1.527 0 1.742.145 1.742 1.313v6.5c0 1.078-.262 1.078-1.817 1.078v.691c.668-.047 1.817-.047 2.508-.047.266 0 1.652 0 2.465.047v-.691c-1.555 0-1.648-.121-1.648-1.051v-8.797zm10.132 1.121c0-.645-.547-1.149-1.144-1.149-.696 0-1.172.551-1.172 1.149 0 .719.598 1.172 1.148 1.172.645 0 1.168-.5 1.168-1.172m0 7.984a1.16 1.16 0 0 0-1.144-1.148 1.15 1.15 0 0 0-1.172 1.148c0 .715.598 1.168 1.148 1.168.645 0 1.168-.5 1.168-1.168M22.223-279.18c0-1.289 0-2.246-1.051-3.179-.836-.762-1.91-1.098-2.961-1.098-1.961 0-3.469 1.289-3.469 2.844 0 .691.457 1.027 1.008 1.027.57 0 .977-.406.977-.98 0-.981-.86-.981-1.22-.981.552-1.004 1.7-1.433 2.653-1.433 1.102 0 2.512.91 2.512 3.058v.957c-4.805.07-6.621 2.078-6.621 3.918 0 1.891 2.199 2.484 3.656 2.484 1.578 0 2.652-.953 3.105-2.101.098 1.125.836 1.984 1.868 1.984.5 0 1.886-.336 1.886-2.246v-1.34h-.527v1.34c0 1.363-.57 1.555-.906 1.555-.91 0-.91-1.27-.91-1.625zm-1.551 3.012c0 2.34-1.746 3.129-2.774 3.129-1.171 0-2.148-.859-2.148-2.008 0-3.152 4.063-3.441 4.922-3.488zm8.141-13.215-3.325.262v.691c1.625 0 1.817.168 1.817 1.34v12.52c0 1.078-.262 1.078-1.817 1.078v.691c.668-.047 1.84-.047 2.559-.047.715 0 1.91 0 2.578.047v-.691c-1.527 0-1.812 0-1.812-1.078zm6.402 6.977h3.37v-.696h-3.37v-4.394h-.528c-.023 2.246-.882 4.539-3.058 4.613v.477h2.031v6.644c0 2.653 1.77 3.199 3.035 3.199 1.508 0 2.297-1.48 2.297-3.199v-1.363h-.527v1.312c0 1.723-.692 2.723-1.625 2.723-1.625 0-1.625-2.219-1.625-2.625zm9.075 4.039c0-2.321.956-4.492 2.796-4.492.191 0 .238 0 .336.023-.191.094-.574.238-.574.883 0 .695.55.957.933.957.477 0 .953-.313.953-.957 0-.715-.644-1.387-1.672-1.387-2.03 0-2.722 2.199-2.867 2.652h-.023v-2.652l-3.203.266v.691c1.625 0 1.816.168 1.816 1.34v6.473c0 1.078-.262 1.078-1.816 1.078v.691c.668-.047 1.984-.047 2.699-.047.645 0 2.344 0 2.895.047v-.691h-.481c-1.742 0-1.793-.266-1.793-1.125zm9.269-9.153c0-.621-.504-1.171-1.172-1.171-.621 0-1.145.503-1.145 1.148 0 .715.57 1.172 1.145 1.172.742 0 1.172-.625 1.172-1.149m-3.297 4.446v.691c1.527 0 1.742.145 1.742 1.313v6.5c0 1.078-.262 1.078-1.816 1.078v.691c.671-.047 1.816-.047 2.511-.047.262 0 1.649 0 2.461.047v-.691c-1.554 0-1.648-.121-1.648-1.051v-8.797zm22.773 4.469c0-2.223 0-2.891-.55-3.657-.696-.933-1.817-1.078-2.63-1.078-1.984 0-2.988 1.434-3.37 2.367-.333-1.84-1.626-2.367-3.13-2.367-2.316 0-3.226 1.985-3.417 2.461h-.024v-2.461l-3.25.266v.691c1.625 0 1.816.168 1.816 1.34v6.473c0 1.078-.261 1.078-1.816 1.078v.691c.621-.047 1.914-.047 2.582-.047.691 0 1.984 0 2.606.047v-.691c-1.532 0-1.817 0-1.817-1.078v-4.442c0-2.511 1.649-3.847 3.13-3.847 1.483 0 1.816 1.218 1.816 2.675v5.614c0 1.078-.262 1.078-1.817 1.078v.691c.621-.047 1.914-.047 2.582-.047.692 0 1.98 0 2.606.047v-.691c-1.532 0-1.817 0-1.817-1.078v-4.442c0-2.511 1.649-3.847 3.13-3.847s1.816 1.218 1.816 2.675v5.614c0 1.078-.262 1.078-1.817 1.078v.691c.621-.047 1.914-.047 2.582-.047.692 0 1.98 0 2.606.047v-.691c-1.196 0-1.793 0-1.817-.719zm11.52.261c.523 0 .57 0 .57-.453 0-2.414-1.29-4.66-4.18-4.66-2.726 0-4.828 2.461-4.828 5.426 0 3.152 2.438 5.468 5.09 5.468 2.844 0 3.918-2.578 3.918-3.082 0-.144-.117-.238-.262-.238-.191 0-.238.121-.285.238-.625 2.008-2.222 2.555-3.226 2.555s-3.418-.668-3.418-4.801v-.453zm-6.598-.453c.191-3.754 2.293-4.183 2.965-4.183 2.555 0 2.7 3.371 2.722 4.183zm18.477.192c0-2.223 0-2.891-.551-3.657-.692-.933-1.813-1.078-2.625-1.078-2.32 0-3.227 1.985-3.418 2.461h-.028v-2.461l-3.25.266v.691c1.626 0 1.82.168 1.82 1.34v6.473c0 1.078-.265 1.078-1.82 1.078v.691c.626-.047 1.915-.047 2.582-.047.696 0 1.985 0 2.606.047v-.691c-1.531 0-1.816 0-1.816-1.078v-4.442c0-2.511 1.648-3.847 3.129-3.847 1.484 0 1.82 1.218 1.82 2.675v5.614c0 1.078-.266 1.078-1.82 1.078v.691c.624-.047 1.914-.047 2.581-.047.696 0 1.985 0 2.606.047v-.691c-1.195 0-1.793 0-1.816-.719zm5.781-3.801h3.371v-.696h-3.371v-4.394h-.527c-.024 2.246-.883 4.539-3.06 4.613v.477h2.032v6.644c0 2.653 1.77 3.199 3.035 3.199 1.508 0 2.297-1.48 2.297-3.199v-1.363h-.527v1.312c0 1.723-.692 2.723-1.625 2.723-1.625 0-1.625-2.219-1.625-2.625zm9.242-5.114c0-.621-.5-1.171-1.168-1.171-.625 0-1.148.503-1.148 1.148 0 .715.574 1.172 1.148 1.172.738 0 1.168-.625 1.168-1.149m-3.297 4.446v.691c1.528 0 1.746.145 1.746 1.313v6.5c0 1.078-.265 1.078-1.816 1.078v.691c.668-.047 1.816-.047 2.508-.047.261 0 1.648 0 2.461.047v-.691c-1.551 0-1.649-.121-1.649-1.051v-8.797zm10.035 1.121c0-.645-.547-1.149-1.144-1.149-.696 0-1.172.551-1.172 1.149 0 .719.598 1.172 1.148 1.172.645 0 1.168-.5 1.168-1.172m0 7.984a1.16 1.16 0 0 0-1.144-1.148 1.15 1.15 0 0 0-1.172 1.148c0 .715.598 1.168 1.148 1.168.645 0 1.168-.5 1.168-1.168m-37.062-91.437c0-2.223 0-2.891-.547-3.657-.695-.933-1.817-1.078-2.629-1.078-1.984 0-2.988 1.438-3.371 2.368-.336-1.84-1.625-2.368-3.129-2.368-2.32 0-3.226 1.985-3.418 2.465h-.023v-2.465l-3.25.266v.691c1.625 0 1.816.168 1.816 1.34v6.477c0 1.074-.262 1.074-1.816 1.074v.691c.62-.046 1.91-.046 2.578-.046.695 0 1.984 0 2.605.046v-.691c-1.527 0-1.816 0-1.816-1.074v-4.446c0-2.507 1.648-3.847 3.133-3.847 1.48 0 1.816 1.219 1.816 2.676v5.617c0 1.074-.266 1.074-1.816 1.074v.691c.62-.046 1.91-.046 2.578-.046.695 0 1.984 0 2.605.046v-.691c-1.527 0-1.816 0-1.816-1.074v-4.446c0-2.507 1.648-3.847 3.133-3.847 1.48 0 1.816 1.219 1.816 2.676v5.617c0 1.074-.266 1.074-1.816 1.074v.691c.62-.046 1.91-.046 2.578-.046.695 0 1.984 0 2.605.046v-.691c-1.195 0-1.793 0-1.816-.715zm11.59-.574c0-1.29 0-2.247-1.051-3.18-.836-.762-1.91-1.098-2.961-1.098-1.961 0-3.469 1.289-3.469 2.844 0 .691.457 1.027 1.008 1.027.57 0 .977-.406.977-.98 0-.981-.86-.981-1.22-.981.552-1.004 1.7-1.433 2.653-1.433 1.102 0 2.512.91 2.512 3.058v.957c-4.805.071-6.621 2.078-6.621 3.918 0 1.891 2.199 2.489 3.656 2.489 1.578 0 2.652-.957 3.106-2.106.097 1.125.835 1.985 1.867 1.985.5 0 1.886-.336 1.886-2.247v-1.339h-.527v1.339c0 1.364-.57 1.555-.906 1.555-.91 0-.91-1.269-.91-1.625zm-1.551 3.011c0 2.34-1.746 3.129-2.774 3.129-1.171 0-2.148-.859-2.148-2.008 0-3.152 4.063-3.441 4.922-3.488zm14.664-2.437c0-2.223 0-2.891-.551-3.657-.695-.933-1.816-1.078-2.629-1.078-2.316 0-3.226 1.985-3.418 2.465h-.023v-2.465l-3.25.266v.691c1.625 0 1.816.168 1.816 1.34v6.477c0 1.074-.262 1.074-1.816 1.074v.691c.62-.046 1.91-.046 2.582-.046.691 0 1.984 0 2.601.046v-.691c-1.527 0-1.812 0-1.812-1.074v-4.446c0-2.507 1.648-3.847 3.129-3.847 1.48 0 1.816 1.219 1.816 2.676v5.617c0 1.074-.265 1.074-1.816 1.074v.691c.621-.046 1.914-.046 2.582-.046.691 0 1.98 0 2.601.046v-.691c-1.195 0-1.789 0-1.812-.715zm5.207 1.48c1.125.742 2.078.742 2.344.742 2.148 0 3.75-1.625 3.75-3.464 0-.649-.192-1.555-.957-2.321.933-.953 2.054-.953 2.175-.953.098 0 .215 0 .313.047-.238.094-.359.336-.359.598 0 .332.238.621.621.621.191 0 .621-.121.621-.645 0-.433-.336-1.101-1.172-1.101-1.242 0-2.176.765-2.508 1.125-.715-.551-1.555-.864-2.461-.864-2.152 0-3.754 1.625-3.754 3.469 0 1.359.836 2.246 1.078 2.457-.289.363-.718 1.055-.718 1.988 0 1.383.836 1.981 1.027 2.102-1.098.309-2.199 1.172-2.199 2.41 0 1.652 2.25 3.012 5.187 3.012 2.844 0 5.211-1.266 5.211-3.055 0-.601-.168-2.008-1.601-2.75-1.219-.621-2.414-.621-4.469-.621-1.457 0-1.625 0-2.055-.453-.238-.238-.457-.695-.457-1.195 0-.407.145-.813.383-1.149m2.367.238c-2.105 0-2.105-2.414-2.105-2.96 0-.43 0-1.411.41-2.055a2.03 2.03 0 0 1 1.672-.934c2.101 0 2.101 2.414 2.101 2.965 0 .43 0 1.406-.406 2.055a2.04 2.04 0 0 1-1.672.929m.645 8.485c-2.293 0-4.039-1.168-4.039-2.531 0-.192.047-1.125.957-1.746.523-.336.742-.336 2.414-.336 1.98 0 4.683 0 4.683 2.082 0 1.406-1.816 2.531-4.015 2.531m10.101-19.117c0-.621-.5-1.172-1.168-1.172a1.15 1.15 0 0 0-1.148 1.148c0 .715.574 1.172 1.148 1.172.739 0 1.168-.625 1.168-1.148m-3.297 4.445v.691c1.532 0 1.746.145 1.746 1.317v6.5c0 1.074-.261 1.074-1.816 1.074v.691c.668-.046 1.816-.046 2.508-.046.266 0 1.648 0 2.461.046v-.691c-1.551 0-1.649-.121-1.649-1.051v-8.797zm14.864 3.895c0-1.29 0-2.247-1.051-3.18-.836-.762-1.91-1.098-2.961-1.098-1.961 0-3.469 1.289-3.469 2.844 0 .691.457 1.027 1.004 1.027.574 0 .981-.406.981-.98 0-.981-.86-.981-1.219-.981.551-1.004 1.699-1.433 2.652-1.433 1.102 0 2.512.91 2.512 3.058v.957c-4.805.071-6.621 2.078-6.621 3.918 0 1.891 2.199 2.489 3.656 2.489 1.578 0 2.652-.957 3.106-2.106.097 1.125.835 1.985 1.867 1.985.5 0 1.886-.336 1.886-2.247v-1.339h-.527v1.339c0 1.364-.57 1.555-.906 1.555-.91 0-.91-1.269-.91-1.625zm-1.551 3.011c0 2.34-1.746 3.129-2.774 3.129-1.171 0-2.152-.859-2.152-2.008 0-3.152 4.067-3.441 4.926-3.488zm17.683 7.313c-1.531 0-1.816 0-1.816-1.078v-4.157c.43.598 1.41 1.532 2.938 1.532 2.75 0 5.164-2.321 5.164-5.403 0-3.035-2.246-5.379-4.852-5.379-2.101 0-3.226 1.508-3.297 1.602v-1.602l-3.324.266v.691c1.676 0 1.816.168 1.816 1.219v11.231c0 1.078-.261 1.078-1.816 1.078v.691c.621-.047 1.914-.047 2.582-.047.691 0 1.984 0 2.605.047zm-1.816-11.567c0-.453 0-.48.262-.859.719-1.078 1.887-1.531 2.797-1.531 1.793 0 3.226 2.175 3.226 4.851 0 2.844-1.625 4.922-3.465 4.922a2.83 2.83 0 0 1-1.914-.762c-.547-.55-.906-1.031-.906-1.699zm18.184 1.243c0-1.29 0-2.247-1.051-3.18-.836-.762-1.91-1.098-2.961-1.098-1.961 0-3.469 1.289-3.469 2.844 0 .691.457 1.027 1.004 1.027.574 0 .981-.406.981-.98 0-.981-.86-.981-1.219-.981.551-1.004 1.699-1.433 2.652-1.433 1.102 0 2.512.91 2.512 3.058v.957c-4.805.071-6.621 2.078-6.621 3.918 0 1.891 2.199 2.489 3.656 2.489 1.578 0 2.652-.957 3.106-2.106.097 1.125.835 1.985 1.867 1.985.5 0 1.886-.336 1.886-2.247v-1.339h-.527v1.339c0 1.364-.57 1.555-.906 1.555-.91 0-.91-1.269-.91-1.625zm-1.551 3.011c0 2.34-1.746 3.129-2.774 3.129-1.171 0-2.152-.859-2.152-2.008 0-3.152 4.067-3.441 4.926-3.488zm14.664-2.437c0-2.223 0-2.891-.551-3.657-.695-.933-1.816-1.078-2.629-1.078-2.316 0-3.226 1.985-3.418 2.465h-.023v-2.465l-3.25.266v.691c1.625 0 1.816.168 1.816 1.34v6.477c0 1.074-.261 1.074-1.816 1.074v.691c.621-.046 1.914-.046 2.582-.046.691 0 1.984 0 2.601.046v-.691c-1.527 0-1.812 0-1.812-1.074v-4.446c0-2.507 1.648-3.847 3.129-3.847 1.48 0 1.816 1.219 1.816 2.676v5.617c0 1.074-.265 1.074-1.816 1.074v.691c.621-.046 1.914-.046 2.582-.046.691 0 1.98 0 2.601.046v-.691c-1.195 0-1.789 0-1.812-.715zm6.523-8.914c0-.621-.504-1.172-1.171-1.172a1.15 1.15 0 0 0-1.149 1.148c0 .715.574 1.172 1.149 1.172.742 0 1.171-.625 1.171-1.148m-3.296 4.445v.691c1.527 0 1.742.145 1.742 1.317v6.5c0 1.074-.262 1.074-1.817 1.074v.691c.668-.046 1.817-.046 2.508-.046.266 0 1.652 0 2.465.046v-.691c-1.555 0-1.648-.121-1.648-1.051v-8.797zm16.273 4.469c0-2.223 0-2.891-.551-3.657-.695-.933-1.816-1.078-2.629-1.078-2.316 0-3.226 1.985-3.418 2.465h-.023v-2.465l-3.25.266v.691c1.625 0 1.816.168 1.816 1.34v6.477c0 1.074-.261 1.074-1.816 1.074v.691c.621-.046 1.914-.046 2.582-.046.691 0 1.984 0 2.601.046v-.691c-1.527 0-1.812 0-1.812-1.074v-4.446c0-2.507 1.648-3.847 3.129-3.847 1.48 0 1.816 1.219 1.816 2.676v5.617c0 1.074-.265 1.074-1.816 1.074v.691c.621-.046 1.914-.046 2.582-.046.691 0 1.98 0 2.601.046v-.691c-1.195 0-1.789 0-1.812-.715zm6.523-8.914c0-.621-.504-1.172-1.171-1.172a1.15 1.15 0 0 0-1.149 1.148c0 .715.574 1.172 1.149 1.172.742 0 1.171-.625 1.171-1.148m-3.296 4.445v.691c1.527 0 1.742.145 1.742 1.317v6.5c0 1.074-.262 1.074-1.817 1.074v.691c.668-.046 1.817-.046 2.508-.046.266 0 1.652 0 2.465.046v-.691c-1.555 0-1.648-.121-1.648-1.051v-8.797zm39.152 6.262h-.527c-.071.406-.262 1.718-.5 2.101-.168.215-1.532.215-2.247.215h-4.421c.644-.551 2.101-2.078 2.722-2.652 3.637-3.348 4.973-4.59 4.973-6.953 0-2.75-2.176-4.59-4.949-4.59-2.77 0-4.395 2.367-4.395 4.422 0 1.218 1.051 1.218 1.121 1.218.504 0 1.125-.359 1.125-1.125 0-.668-.453-1.121-1.125-1.121-.211 0-.262 0-.332.024.453-1.625 1.746-2.723 3.297-2.723 2.031 0 3.273 1.695 3.273 3.895 0 2.031-1.167 3.8-2.531 5.328l-4.828 5.402v.57h8.723zM46.336-445.207c0-.434 0-.551-.238-.551-.192 0-.645.524-.813.742-.738-.597-1.48-.742-2.246-.742-2.89 0-3.75 1.578-3.75 2.891 0 .265 0 1.101.906 1.937.766.668 1.578.836 2.68 1.051 1.313.262 1.625.332 2.219.813.43.359.742.882.742 1.55 0 1.032-.598 2.176-2.7 2.176-1.577 0-2.722-.906-3.25-3.297-.097-.429-.097-.453-.12-.476-.047-.098-.141-.098-.215-.098-.262 0-.262.121-.262.551v3.25c0 .43 0 .551.238.551.121 0 .145-.024.551-.528.117-.168.117-.215.477-.597.906 1.125 2.199 1.125 2.605 1.125 2.508 0 3.75-1.387 3.75-3.274 0-1.293-.785-2.058-1.004-2.273-.86-.739-1.504-.883-3.082-1.172-.715-.141-2.46-.477-2.46-1.91 0-.739.503-1.84 2.652-1.84 2.605 0 2.75 2.223 2.797 2.965.023.191.19.191.261.191.262 0 .262-.121.262-.551zm10.516 4.562c.527 0 .574 0 .574-.453 0-2.414-1.29-4.66-4.184-4.66-2.722 0-4.824 2.461-4.824 5.426 0 3.152 2.438 5.473 5.09 5.473 2.844 0 3.918-2.582 3.918-3.086 0-.145-.121-.239-.262-.239-.191 0-.242.121-.289.239-.621 2.007-2.219 2.558-3.227 2.558-1 0-3.414-.668-3.414-4.804v-.454zm-6.594-.453c.191-3.754 2.293-4.183 2.96-4.183 2.56 0 2.704 3.371 2.727 4.183zm38.68-4.109c0-.434 0-.551-.239-.551-.191 0-.644.524-.812.742-.743-.597-1.48-.742-2.246-.742-2.891 0-3.75 1.578-3.75 2.891 0 .265 0 1.101.906 1.937.766.668 1.578.836 2.676 1.051 1.316.262 1.625.332 2.222.813.43.359.743.882.743 1.55 0 1.032-.598 2.176-2.704 2.176-1.574 0-2.722-.906-3.25-3.297-.093-.429-.093-.453-.117-.476-.047-.098-.144-.098-.215-.098-.261 0-.261.121-.261.551v3.25c0 .43 0 .551.238.551.117 0 .14-.024.547-.528.12-.168.12-.215.48-.597.906 1.125 2.196 1.125 2.602 1.125 2.511 0 3.754-1.387 3.754-3.274 0-1.293-.79-2.058-1.004-2.273-.86-.739-1.504-.883-3.082-1.172-.719-.141-2.461-.477-2.461-1.91 0-.739.5-1.84 2.652-1.84 2.606 0 2.746 2.223 2.797 2.965.023.191.188.191.262.191.261 0 .261-.121.261-.551zm10.687 3.727c0-1.29 0-2.247-1.05-3.18-.84-.762-1.915-1.098-2.966-1.098-1.96 0-3.465 1.289-3.465 2.844 0 .691.454 1.027 1.004 1.027.575 0 .98-.406.98-.98 0-.981-.862-.981-1.218-.981.55-1.004 1.696-1.433 2.653-1.433 1.097 0 2.507.91 2.507 3.058v.957c-4.804.071-6.617 2.078-6.617 3.918 0 1.891 2.195 2.489 3.656 2.489 1.575 0 2.653-.957 3.106-2.106.094 1.125.836 1.985 1.863 1.985.5 0 1.887-.336 1.887-2.247v-1.339h-.524v1.339c0 1.364-.574 1.555-.91 1.555-.906 0-.906-1.269-.906-1.625zm-1.555 3.011c0 2.34-1.742 3.129-2.773 3.129-1.168 0-2.149-.859-2.149-2.008 0-3.152 4.063-3.441 4.922-3.488zm8.141-13.215-3.32.262v.695c1.625 0 1.812.164 1.812 1.336v12.524c0 1.074-.262 1.074-1.812 1.074v.691c.668-.046 1.836-.046 2.554-.046.719 0 1.914 0 2.582.046v-.691c-1.531 0-1.816 0-1.816-1.074zm6.547 1.864c0-.621-.5-1.172-1.168-1.172-.625 0-1.149.504-1.149 1.148 0 .715.575 1.172 1.149 1.172.738 0 1.168-.625 1.168-1.148m-3.297 4.445v.691c1.527 0 1.742.145 1.742 1.317v6.5c0 1.074-.262 1.074-1.812 1.074v.691c.668-.046 1.812-.046 2.507-.046.262 0 1.649 0 2.461.046v-.691c-1.554 0-1.648-.121-1.648-1.051v-8.797zm9.652.668h3.371v-.691h-3.371v-4.399h-.523c-.024 2.246-.887 4.539-3.059 4.613v.477h2.032v6.644c0 2.653 1.765 3.204 3.035 3.204 1.504 0 2.293-1.485 2.293-3.204v-1.363h-.528v1.317c0 1.718-.691 2.722-1.625 2.722-1.625 0-1.625-2.222-1.625-2.629zm14.309 3.227c0-1.29 0-2.247-1.051-3.18-.836-.762-1.91-1.098-2.961-1.098-1.961 0-3.465 1.289-3.465 2.844 0 .691.453 1.027 1.004 1.027.574 0 .981-.406.981-.98 0-.981-.864-.981-1.219-.981.547-1.004 1.695-1.433 2.648-1.433 1.102 0 2.512.91 2.512 3.058v.957c-4.805.071-6.617 2.078-6.617 3.918 0 1.891 2.195 2.489 3.652 2.489 1.578 0 2.657-.957 3.11-2.106.093 1.125.836 1.985 1.863 1.985.5 0 1.887-.336 1.887-2.247v-1.339h-.524v1.339c0 1.364-.574 1.555-.91 1.555-.91 0-.91-1.269-.91-1.625zm-1.551 3.011c0 2.34-1.742 3.129-2.773 3.129-1.168 0-2.149-.859-2.149-2.008 0-3.152 4.063-3.441 4.922-3.488zm31.141-6.238h2.699v-.691h-2.746v-2.797c0-2.149 1.098-3.25 2.078-3.25.191 0 .547.047.836.191-.098.024-.695.238-.695.934 0 .547.382.929.933.929.574 0 .957-.382.957-.953 0-.886-.859-1.578-2.008-1.578-1.675 0-3.562 1.289-3.562 3.727v2.797h-1.863v.691h1.863v7.84c0 1.074-.262 1.074-1.816 1.074v.691c.671-.046 1.984-.046 2.703-.046.644 0 2.339 0 2.89.046v-.691h-.476c-1.746 0-1.793-.262-1.793-1.125zm12.211 3.227c0-1.29 0-2.247-1.051-3.18-.836-.762-1.91-1.098-2.961-1.098-1.961 0-3.469 1.289-3.469 2.844 0 .691.457 1.027 1.004 1.027.574 0 .981-.406.981-.98 0-.981-.86-.981-1.219-.981.551-1.004 1.699-1.433 2.652-1.433 1.102 0 2.512.91 2.512 3.058v.957c-4.805.071-6.621 2.078-6.621 3.918 0 1.891 2.199 2.489 3.656 2.489 1.578 0 2.652-.957 3.106-2.106.097 1.125.835 1.985 1.867 1.985.5 0 1.886-.336 1.886-2.247v-1.339h-.527v1.339c0 1.364-.57 1.555-.906 1.555-.91 0-.91-1.269-.91-1.625zm-1.551 3.011c0 2.34-1.746 3.129-2.774 3.129-1.171 0-2.152-.859-2.152-2.008 0-3.152 4.067-3.441 4.926-3.488zm8.187-11.351c0-.621-.504-1.172-1.171-1.172a1.15 1.15 0 0 0-1.149 1.148c0 .715.574 1.172 1.149 1.172.742 0 1.171-.625 1.171-1.148m-3.296 4.445v.691c1.527 0 1.742.145 1.742 1.317v6.5c0 1.074-.262 1.074-1.817 1.074v.691c.668-.046 1.817-.046 2.508-.046.266 0 1.652 0 2.465.046v-.691c-1.555 0-1.648-.121-1.648-1.051v-8.797zm10.132 1.121c0-.644-.547-1.144-1.144-1.144-.696 0-1.172.546-1.172 1.144 0 .719.598 1.172 1.148 1.172.645 0 1.168-.5 1.168-1.172m0 7.984a1.16 1.16 0 0 0-1.144-1.148c-.696 0-1.172.551-1.172 1.148 0 .715.598 1.168 1.148 1.168.645 0 1.168-.5 1.168-1.168M47.148-527.941c-.285 0-1.168 0-1.168.976 0 .574.407.981.98.981.548 0 1-.332 1-1.024 0-1.601-1.67-2.75-3.605-2.75-2.796 0-5.02 2.485-5.02 5.496 0 3.059 2.294 5.403 4.997 5.403 3.152 0 3.871-2.868 3.871-3.086 0-.215-.168-.215-.242-.215-.211 0-.238.07-.309.359-.527 1.699-1.816 2.414-3.105 2.414-1.461 0-3.395-1.265-3.395-4.898 0-3.969 2.032-4.949 3.227-4.949.906 0 2.223.363 2.77 1.293m12.718 3.726c0-3.082-2.34-5.543-5.113-5.543-2.867 0-5.137 2.531-5.137 5.543 0 3.059 2.39 5.356 5.114 5.356 2.82 0 5.136-2.344 5.136-5.356m-5.113 4.828c-.883 0-1.957-.383-2.652-1.554-.645-1.075-.668-2.485-.668-3.489 0-.91 0-2.367.738-3.441a3.07 3.07 0 0 1 2.559-1.41 3.13 3.13 0 0 1 2.581 1.363c.743 1.098.743 2.605.743 3.488 0 .836 0 2.321-.625 3.442-.668 1.148-1.766 1.601-2.676 1.601m22.98-5.519c0-2.223 0-2.891-.55-3.657-.692-.933-1.817-1.078-2.63-1.078-1.984 0-2.984 1.438-3.367 2.368-.335-1.84-1.624-2.368-3.132-2.368-2.317 0-3.227 1.985-3.414 2.465h-.028v-2.465l-3.25.266v.691c1.625 0 1.817.168 1.817 1.34v6.477c0 1.074-.262 1.074-1.817 1.074v.691c.621-.046 1.914-.046 2.582-.046.696 0 1.985 0 2.606.046v-.691c-1.532 0-1.817 0-1.817-1.074v-4.446c0-2.507 1.649-3.847 3.13-3.847 1.484 0 1.816 1.219 1.816 2.676v5.617c0 1.074-.262 1.074-1.817 1.074v.691c.621-.046 1.914-.046 2.582-.046.696 0 1.985 0 2.606.046v-.691c-1.532 0-1.817 0-1.817-1.074v-4.446c0-2.507 1.649-3.847 3.13-3.847s1.816 1.219 1.816 2.676v5.617c0 1.074-.262 1.074-1.817 1.074v.691c.621-.046 1.914-.046 2.582-.046.696 0 1.985 0 2.606.046v-.691c-1.195 0-1.793 0-1.817-.715zm8.219 9.75c-1.527 0-1.812 0-1.812-1.078v-4.157c.43.598 1.406 1.532 2.937 1.532 2.75 0 5.16-2.321 5.16-5.403 0-3.035-2.246-5.379-4.847-5.379-2.106 0-3.227 1.508-3.301 1.602v-1.602l-3.32.266v.691c1.671 0 1.816.168 1.816 1.219v11.231c0 1.078-.266 1.078-1.817 1.078v.691c.622-.047 1.91-.047 2.583-.047.691 0 1.98 0 2.601.047zm-1.812-11.567c0-.453 0-.48.261-.859a3.44 3.44 0 0 1 2.793-1.531c1.793 0 3.227 2.175 3.227 4.851 0 2.844-1.625 4.922-3.465 4.922a2.8 2.8 0 0 1-1.91-.762c-.55-.55-.906-1.031-.906-1.699zm12.949 2.055c0-2.316.957-4.492 2.797-4.492.191 0 .238 0 .336.023-.192.094-.575.239-.575.883 0 .695.547.957.93.957.481 0 .957-.312.957-.957 0-.715-.644-1.387-1.672-1.387-2.031 0-2.722 2.2-2.867 2.657h-.023v-2.657l-3.204.266v.691c1.625 0 1.817.168 1.817 1.34v6.477c0 1.074-.266 1.074-1.817 1.074v.691c.668-.046 1.985-.046 2.7-.046.644 0 2.344 0 2.89.046v-.691h-.476c-1.742 0-1.793-.262-1.793-1.125zm14.332-.812c0-1.29 0-2.247-1.051-3.18-.836-.762-1.91-1.098-2.961-1.098-1.961 0-3.465 1.289-3.465 2.844 0 .691.453 1.027 1.004 1.027.574 0 .981-.406.981-.98 0-.981-.864-.981-1.219-.981.547-1.004 1.695-1.433 2.648-1.433 1.102 0 2.512.91 2.512 3.058v.957c-4.805.071-6.617 2.078-6.617 3.918 0 1.891 2.195 2.489 3.652 2.489 1.578 0 2.657-.957 3.11-2.106.093 1.125.836 1.985 1.863 1.985.5 0 1.887-.336 1.887-2.247v-1.339h-.524v1.339c0 1.364-.574 1.555-.91 1.555-.91 0-.91-1.269-.91-1.625zm-1.551 3.011c0 2.34-1.742 3.129-2.773 3.129-1.168 0-2.149-.859-2.149-2.008 0-3.152 4.063-3.441 4.922-3.488zm17.684 7.313c-1.532 0-1.817 0-1.817-1.078v-4.157c.43.598 1.41 1.532 2.942 1.532 2.746 0 5.16-2.321 5.16-5.403 0-3.035-2.246-5.379-4.852-5.379-2.101 0-3.226 1.508-3.297 1.602v-1.602l-3.324.266v.691c1.676 0 1.821.168 1.821 1.219v11.231c0 1.078-.266 1.078-1.821 1.078v.691c.625-.047 1.914-.047 2.582-.047.692 0 1.985 0 2.606.047zm-1.817-11.567c0-.453 0-.48.266-.859a3.44 3.44 0 0 1 2.793-1.531c1.793 0 3.226 2.175 3.226 4.851 0 2.844-1.625 4.922-3.464 4.922a2.8 2.8 0 0 1-1.911-.762c-.55-.55-.91-1.031-.91-1.699zm18.285 1.243c0-1.29 0-2.247-1.05-3.18-.836-.762-1.91-1.098-2.965-1.098-1.957 0-3.465 1.289-3.465 2.844 0 .691.453 1.027 1.004 1.027.574 0 .98-.406.98-.98 0-.981-.859-.981-1.218-.981.55-1.004 1.699-1.433 2.652-1.433 1.102 0 2.508.91 2.508 3.058v.957c-4.801.071-6.617 2.078-6.617 3.918 0 1.891 2.199 2.489 3.656 2.489 1.578 0 2.652-.957 3.105-2.106.098 1.125.836 1.985 1.864 1.985.503 0 1.89-.336 1.89-2.247v-1.339h-.527v1.339c0 1.364-.574 1.555-.906 1.555-.911 0-.911-1.269-.911-1.625zm-1.554 3.011c0 2.34-1.742 3.129-2.77 3.129-1.172 0-2.152-.859-2.152-2.008 0-3.152 4.062-3.441 4.922-3.488zm14.664-2.437c0-2.223 0-2.891-.547-3.657-.695-.933-1.816-1.078-2.629-1.078-2.32 0-3.227 1.985-3.418 2.465h-.023v-2.465l-3.25.266v.691c1.625 0 1.816.168 1.816 1.34v6.477c0 1.074-.262 1.074-1.816 1.074v.691c.621-.046 1.91-.046 2.578-.046.695 0 1.984 0 2.605.046v-.691c-1.527 0-1.816 0-1.816-1.074v-4.446c0-2.507 1.648-3.847 3.133-3.847 1.48 0 1.816 1.219 1.816 2.676v5.617c0 1.074-.266 1.074-1.816 1.074v.691c.621-.046 1.91-.046 2.578-.046.695 0 1.984 0 2.605.046v-.691c-1.195 0-1.793 0-1.816-.715zm6.523-8.914c0-.621-.5-1.172-1.168-1.172a1.15 1.15 0 0 0-1.148 1.148c0 .715.574 1.172 1.148 1.172.739 0 1.168-.625 1.168-1.148m-3.297 4.445v.691c1.532 0 1.746.145 1.746 1.317v6.5c0 1.074-.261 1.074-1.816 1.074v.691c.668-.046 1.816-.046 2.508-.046.266 0 1.648 0 2.461.046v-.691c-1.551 0-1.649-.121-1.649-1.051v-8.797zm16.274 4.469c0-2.223 0-2.891-.547-3.657-.695-.933-1.816-1.078-2.629-1.078-2.32 0-3.227 1.985-3.418 2.465h-.023v-2.465l-3.25.266v.691c1.625 0 1.816.168 1.816 1.34v6.477c0 1.074-.262 1.074-1.816 1.074v.691c.621-.046 1.91-.046 2.578-.046.695 0 1.984 0 2.605.046v-.691c-1.527 0-1.816 0-1.816-1.074v-4.446c0-2.507 1.648-3.847 3.133-3.847 1.48 0 1.816 1.219 1.816 2.676v5.617c0 1.074-.266 1.074-1.816 1.074v.691c.621-.046 1.91-.046 2.578-.046.695 0 1.984 0 2.605.046v-.691c-1.195 0-1.793 0-1.816-.715zm6.523-8.914c0-.621-.5-1.172-1.168-1.172a1.15 1.15 0 0 0-1.148 1.148c0 .715.574 1.172 1.148 1.172.739 0 1.168-.625 1.168-1.148m-3.297 4.445v.691c1.532 0 1.746.145 1.746 1.317v6.5c0 1.074-.261 1.074-1.816 1.074v.691c.668-.046 1.816-.046 2.508-.046.266 0 1.648 0 2.461.046v-.691c-1.551 0-1.649-.121-1.649-1.051v-8.797zm39.157 6.262h-.528c-.07.406-.261 1.718-.5 2.101-.168.215-1.531.215-2.246.215h-4.422c.645-.551 2.102-2.078 2.723-2.652 3.633-3.348 4.973-4.59 4.973-6.953 0-2.75-2.176-4.59-4.95-4.59-2.769 0-4.394 2.367-4.394 4.422 0 1.218 1.051 1.218 1.121 1.218.504 0 1.125-.359 1.125-1.125 0-.668-.453-1.121-1.125-1.121-.215 0-.262 0-.332.024.453-1.625 1.742-2.723 3.297-2.723 2.031 0 3.273 1.695 3.273 3.895 0 2.031-1.172 3.8-2.535 5.328l-4.824 5.402v.57h8.723zm-198.18-81.594c0-.434 0-.551-.238-.551-.192 0-.645.524-.813.742-.738-.597-1.48-.742-2.246-.742-2.89 0-3.75 1.578-3.75 2.891 0 .265 0 1.101.906 1.937.766.668 1.578.836 2.68 1.051 1.313.262 1.625.332 2.219.813.43.359.742.882.742 1.55 0 1.032-.598 2.176-2.7 2.176-1.577 0-2.722-.906-3.25-3.297-.097-.429-.097-.453-.12-.476-.047-.098-.141-.098-.215-.098-.262 0-.262.121-.262.551v3.25c0 .43 0 .551.238.551.121 0 .145-.024.551-.528.117-.168.117-.215.477-.597.906 1.125 2.199 1.125 2.605 1.125 2.508 0 3.75-1.387 3.75-3.274 0-1.293-.785-2.058-1.004-2.273-.86-.739-1.504-.883-3.082-1.172-.715-.141-2.46-.477-2.46-1.91 0-.739.503-1.84 2.652-1.84 2.605 0 2.75 2.223 2.797 2.965.023.191.19.191.261.191.262 0 .262-.121.262-.551zm10.516 4.562c.527 0 .574 0 .574-.453 0-2.414-1.29-4.66-4.184-4.66-2.722 0-4.824 2.461-4.824 5.426 0 3.152 2.438 5.473 5.09 5.473 2.844 0 3.918-2.582 3.918-3.086 0-.145-.121-.239-.262-.239-.191 0-.242.121-.289.239-.621 2.007-2.219 2.558-3.227 2.558-1 0-3.414-.668-3.414-4.804v-.454zm-6.594-.453c.191-3.754 2.293-4.183 2.96-4.183 2.56 0 2.704 3.371 2.727 4.183zm39.492-2.843c-.285 0-1.172 0-1.172.976 0 .574.406.981.98.981.551 0 1.004-.332 1.004-1.024 0-1.601-1.671-2.75-3.609-2.75-2.793 0-5.016 2.485-5.016 5.496 0 3.059 2.294 5.403 4.993 5.403 3.156 0 3.87-2.868 3.87-3.086 0-.215-.167-.215-.237-.215-.215 0-.239.07-.31.359-.526 1.699-1.815 2.414-3.108 2.414-1.458 0-3.391-1.265-3.391-4.898 0-3.969 2.031-4.949 3.223-4.949.91 0 2.226.363 2.773 1.293m11.785 3.035c0-2.223 0-2.891-.55-3.657-.696-.933-1.817-1.078-2.63-1.078-2.054 0-3.011 1.555-3.343 2.297h-.028v-8.34l-3.32.262v.695c1.625 0 1.817.164 1.817 1.336v12.524c0 1.074-.262 1.074-1.817 1.074v.691c.621-.046 1.914-.046 2.582-.046.692 0 1.985 0 2.606.046v-.691c-1.532 0-1.817 0-1.817-1.074v-4.446c0-2.507 1.649-3.847 3.13-3.847 1.483 0 1.816 1.219 1.816 2.676v5.617c0 1.074-.262 1.074-1.817 1.074v.691c.621-.046 1.914-.046 2.582-.046.692 0 1.98 0 2.606.046v-.691c-1.196 0-1.793 0-1.817-.715zm6.524-8.914c0-.621-.504-1.172-1.172-1.172-.621 0-1.145.504-1.145 1.148 0 .715.57 1.172 1.145 1.172.742 0 1.172-.625 1.172-1.148m-3.297 4.445v.691c1.527 0 1.742.145 1.742 1.317v6.5c0 1.074-.262 1.074-1.817 1.074v.691c.672-.046 1.817-.046 2.512-.046.262 0 1.649 0 2.461.046v-.691c-1.554 0-1.648-.121-1.648-1.051v-8.797zm16.605 5.16c0-3.082-2.34-5.543-5.113-5.543-2.867 0-5.137 2.531-5.137 5.543 0 3.059 2.39 5.356 5.114 5.356 2.82 0 5.136-2.344 5.136-5.356m-5.113 4.828c-.883 0-1.957-.383-2.652-1.554-.645-1.075-.668-2.485-.668-3.489 0-.91 0-2.367.738-3.441a3.07 3.07 0 0 1 2.559-1.41c.933 0 1.937.429 2.582 1.363.742 1.098.742 2.605.742 3.488 0 .836 0 2.321-.625 3.442-.668 1.148-1.766 1.601-2.676 1.601m13.684-9.82c0-.434 0-.551-.239-.551-.191 0-.644.524-.812.742-.742-.597-1.481-.742-2.246-.742-2.891 0-3.75 1.578-3.75 2.891 0 .265 0 1.101.906 1.937.766.668 1.578.836 2.676 1.051 1.316.262 1.625.332 2.222.813.43.359.743.882.743 1.55 0 1.032-.598 2.176-2.704 2.176-1.574 0-2.722-.906-3.25-3.297-.093-.429-.093-.453-.117-.476-.047-.098-.144-.098-.215-.098-.261 0-.261.121-.261.551v3.25c0 .43 0 .551.238.551.117 0 .14-.024.547-.528.12-.168.12-.215.48-.597.906 1.125 2.196 1.125 2.602 1.125 2.512 0 3.754-1.387 3.754-3.274 0-1.293-.789-2.058-1.004-2.273-.86-.739-1.504-.883-3.082-1.172-.719-.141-2.461-.477-2.461-1.91 0-.739.5-1.84 2.652-1.84 2.606 0 2.746 2.223 2.797 2.965.024.191.188.191.262.191.262 0 .262-.121.262-.551zm10.011 1.266c-.285 0-1.168 0-1.168.976 0 .574.407.981.977.981.551 0 1.004-.332 1.004-1.024 0-1.601-1.672-2.75-3.606-2.75-2.797 0-5.019 2.485-5.019 5.496 0 3.059 2.293 5.403 4.996 5.403 3.152 0 3.871-2.868 3.871-3.086 0-.215-.168-.215-.242-.215-.215 0-.239.07-.309.359-.527 1.699-1.816 2.414-3.109 2.414-1.457 0-3.391-1.265-3.391-4.898 0-3.969 2.031-4.949 3.227-4.949.906 0 2.222.363 2.769 1.293m12.719 3.726c0-3.082-2.34-5.543-5.113-5.543-2.867 0-5.137 2.531-5.137 5.543 0 3.059 2.387 5.356 5.113 5.356 2.821 0 5.137-2.344 5.137-5.356m-5.113 4.828c-.883 0-1.961-.383-2.653-1.554-.644-1.075-.668-2.485-.668-3.489 0-.91 0-2.367.739-3.441a3.06 3.06 0 0 1 2.558-1.41c.934 0 1.938.429 2.578 1.363.743 1.098.743 2.605.743 3.488 0 .836 0 2.321-.622 3.442-.667 1.148-1.765 1.601-2.675 1.601m32.957-9.32h2.699v-.691h-2.746v-2.797c0-2.149 1.098-3.25 2.078-3.25.191 0 .547.047.836.191-.098.024-.695.238-.695.934 0 .547.382.929.933.929.574 0 .957-.382.957-.953 0-.886-.859-1.578-2.008-1.578-1.675 0-3.562 1.289-3.562 3.727v2.797h-1.863v.691h1.863v7.84c0 1.074-.262 1.074-1.816 1.074v.691c.671-.046 1.984-.046 2.703-.046.644 0 2.339 0 2.89.046v-.691h-.476c-1.746 0-1.793-.262-1.793-1.125zm12.312 3.227c0-1.29 0-2.247-1.051-3.18-.835-.762-1.914-1.098-2.964-1.098-1.957 0-3.465 1.289-3.465 2.844 0 .691.453 1.027 1.004 1.027.574 0 .98-.406.98-.98 0-.981-.859-.981-1.219-.981.551-1.004 1.696-1.433 2.653-1.433 1.097 0 2.508.91 2.508 3.058v.957c-4.801.071-6.618 2.078-6.618 3.918 0 1.891 2.2 2.489 3.657 2.489 1.574 0 2.652-.957 3.105-2.106.094 1.125.836 1.985 1.863 1.985.504 0 1.887-.336 1.887-2.247v-1.339h-.523v1.339c0 1.364-.575 1.555-.907 1.555-.91 0-.91-1.269-.91-1.625zm-1.554 3.011c0 2.34-1.743 3.129-2.774 3.129-1.168 0-2.148-.859-2.148-2.008 0-3.152 4.062-3.441 4.922-3.488zm8.187-11.351c0-.621-.5-1.172-1.168-1.172-.625 0-1.148.504-1.148 1.148 0 .715.574 1.172 1.148 1.172.738 0 1.168-.625 1.168-1.148m-3.297 4.445v.691c1.528 0 1.746.145 1.746 1.317v6.5c0 1.074-.265 1.074-1.816 1.074v.691c.668-.046 1.816-.046 2.508-.046.261 0 1.648 0 2.461.046v-.691c-1.551 0-1.649-.121-1.649-1.051v-8.797zm10.035 1.121c0-.644-.547-1.144-1.144-1.144-.696 0-1.172.546-1.172 1.144 0 .719.598 1.172 1.148 1.172.645 0 1.168-.5 1.168-1.172m0 7.984a1.16 1.16 0 0 0-1.144-1.148c-.696 0-1.172.551-1.172 1.148 0 .715.598 1.168 1.148 1.168.645 0 1.168-.5 1.168-1.168"/></g></svg>