<svg xmlns="http://www.w3.org/2000/svg" width="409pt" height="293pt" viewBox="0 -293 409 293"><g id="page1"><g fill="#ffbfbf"><path d="M82.07-.504h81.571v-72.922h-81.57Zm81.571 0h81.57v-72.922h-81.57Zm81.57 0h81.57v-72.922h-81.57ZM.5-73.426h81.57v-72.922H.5Zm81.57 0h81.571v-72.922h-81.57Zm81.571 0h81.57v-72.922h-81.57Zm81.57 0h81.57v-72.922h-81.57Zm81.57 0h81.571v-72.922h-81.571ZM82.07-146.348h81.571v-72.918h-81.57Zm81.571 0h81.57v-72.918h-81.57Zm81.57 0h81.57v-72.918h-81.57Z"/><path d="M163.641-219.266h81.57v-72.922h-81.57Z"/></g><path fill="none" stroke="#000" stroke-linecap="round" stroke-linejoin="round" d="M.5-.504h406.852M.5-73.176h406.852M.5-145.848h406.852M.5-218.516h406.852M.5-291.188h406.852M.5-.504v-290.684M81.871-.504v-290.684M163.238-.504v-290.684M244.609-.504v-290.684M325.98-.504v-290.684M407.352-.504v-290.684"/><path fill="#ebb8eb" d="M27.012-6.672h28.347l-8-53.582H35.012z"/><path fill="none" stroke="#606" stroke-linecap="round" stroke-linejoin="round" stroke-width=".5" d="M27.012-6.672h28.347l-8-53.582H35.012z"/><path fill="#fff" d="M48.207-6.672h4.418v-4.844h-4.418Z"/><path fill="none" stroke="#a659a6" stroke-linecap="round" stroke-linejoin="round" stroke-width=".5" d="M48.207-6.672h4.418v-4.844h-4.418z"/><path fill="#fff" d="M34.633-13.371h4.46v-4.61h-4.46Z"/><path fill="none" stroke="#a659a6" stroke-linecap="round" stroke-linejoin="round" stroke-width=".5" d="M34.633-13.371h4.46v-4.61h-4.46z"/><path fill="#fff" d="M40.77-20.066h4.746v-6.977H40.77Z"/><path fill="none" stroke="#a659a6" stroke-linecap="round" stroke-linejoin="round" stroke-width=".5" d="M40.77-20.066h4.746v-6.977H40.77z"/><path fill="#fff" d="M41.203-26.766h3.524v-4.527h-3.524Z"/><path fill="none" stroke="#a659a6" stroke-linecap="round" stroke-linejoin="round" stroke-width=".5" d="M41.203-26.766h3.524v-4.527h-3.524z"/><path fill="#fff" d="M37.707-33.465h5.422v-10.234h-5.422Z"/><path fill="none" stroke="#a659a6" stroke-linecap="round" stroke-linejoin="round" stroke-width=".5" d="M37.707-33.465h5.422v-10.234h-5.422z"/><path fill="#fff" d="M40.953-40.16h5.309v-7.5h-5.309Z"/><path fill="none" stroke="#a659a6" stroke-linecap="round" stroke-linejoin="round" stroke-width=".5" d="M40.953-40.16h5.309v-7.496h-5.309z"/><path fill="#fff" d="M39.156-46.86h4.653v-9.187h-4.653Z"/><path fill="none" stroke="#a659a6" stroke-linecap="round" stroke-linejoin="round" stroke-width=".5" d="M39.156-46.86h4.653v-9.187h-4.653z"/><path fill="#fff" d="M37.305-50.543h5.597v-9.71h-5.597Z"/><path fill="none" stroke="#a659a6" stroke-linecap="round" stroke-linejoin="round" stroke-width=".5" d="M37.305-50.543h5.597v-9.71h-5.597z"/><path fill="#b8b8b8" d="M108.383-6.672h28.347l-5.652-59.805h-17.047z"/><path fill="none" stroke="#000" stroke-linecap="round" stroke-linejoin="round" stroke-width=".5" d="M108.383-6.672h28.347l-5.652-59.805h-17.047z"/><path fill="#fff" d="M130.332-6.672h4.09v-6.867h-4.09Z"/><path fill="none" stroke="#595959" stroke-linecap="round" stroke-linejoin="round" stroke-width=".5" d="M130.332-6.672h4.09v-6.867h-4.09z"/><path fill="#fff" d="M113.004-11.656h5.269v-6.649h-5.269Z"/><path fill="none" stroke="#595959" stroke-linecap="round" stroke-linejoin="round" stroke-width=".5" d="M113.004-11.656h5.269v-6.649h-5.269z"/><path fill="#fff" d="M112.227-16.64h5.062v-6.31h-5.062Z"/><path fill="none" stroke="#595959" stroke-linecap="round" stroke-linejoin="round" stroke-width=".5" d="M112.227-16.64h5.062v-6.31h-5.062z"/><path fill="#fff" d="M110.844-21.625h4.844v-6.723h-4.844Z"/><path fill="none" stroke="#595959" stroke-linecap="round" stroke-linejoin="round" stroke-width=".5" d="M110.844-21.625h4.844v-6.723h-4.844z"/><path fill="#fff" d="M112.039-26.61h3.266v-3.554h-3.266Z"/><path fill="none" stroke="#595959" stroke-linecap="round" stroke-linejoin="round" stroke-width=".5" d="M112.039-26.61h3.266v-3.554h-3.266z"/><path fill="#fff" d="M119.008-31.59h3.937v-5.703h-3.937Z"/><path fill="none" stroke="#595959" stroke-linecap="round" stroke-linejoin="round" stroke-width=".5" d="M119.008-31.59h3.937v-5.703h-3.937z"/><path fill="#fff" d="M111.953-36.574h3.957v-4.778h-3.957Z"/><path fill="none" stroke="#595959" stroke-linecap="round" stroke-linejoin="round" stroke-width=".5" d="M111.953-36.574h3.957v-4.778h-3.957z"/><path fill="#fff" d="M117.629-41.559h5.312v-7.312h-5.312Z"/><path fill="none" stroke="#595959" stroke-linecap="round" stroke-linejoin="round" stroke-width=".5" d="M117.629-41.559h5.312v-7.312h-5.312z"/><path fill="#fff" d="M114.477-46.543h3.105v-4.187h-3.105Z"/><path fill="none" stroke="#595959" stroke-linecap="round" stroke-linejoin="round" stroke-width=".5" d="M114.477-46.543h3.109v-4.184h-3.109z"/><path fill="#fff" d="M121.43-51.527h5.218v-7.18h-5.218Z"/><path fill="none" stroke="#595959" stroke-linecap="round" stroke-linejoin="round" stroke-width=".5" d="M121.43-51.527h5.218v-7.18h-5.218z"/><path fill="#fff" d="M114.398-56.512h2.907v-3.383h-2.907Z"/><path fill="none" stroke="#595959" stroke-linecap="round" stroke-linejoin="round" stroke-width=".5" d="M114.398-56.512h2.907v-3.383h-2.907z"/><path fill="#fff" d="M116.082-57.074h5.016v-9.403h-5.016Z"/><path fill="none" stroke="#595959" stroke-linecap="round" stroke-linejoin="round" stroke-width=".5" d="M116.082-57.074h5.016v-9.403h-5.016z"/><path fill="#b8dede" d="M189.754-6.672h28.344l2.347-43.996h-33.039z"/><path fill="none" stroke="#004d4d" stroke-linecap="round" stroke-linejoin="round" stroke-width=".5" d="M189.754-6.672h28.344l2.347-43.996h-33.039zm14.172-43.996v-3.621"/><path fill="#004d4d" d="M205.434-54.29a1.509 1.509 0 0 0-3.016 0 1.509 1.509 0 0 0 3.016 0"/><path fill="#fff" d="M200.797-6.672h5.074v-8.125h-5.074Z"/><path fill="none" stroke="#599292" stroke-linecap="round" stroke-linejoin="round" stroke-width=".5" d="M200.797-6.672h5.074v-8.125h-5.074z"/><path fill="#fff" d="M208.465-17.672h2.996v-4.86h-2.996Z"/><path fill="none" stroke="#599292" stroke-linecap="round" stroke-linejoin="round" stroke-width=".5" d="M208.465-17.672h2.996v-4.86h-2.996z"/><path fill="#fff" d="M205.273-28.672h5.618v-10.2h-5.618Z"/><path fill="none" stroke="#599292" stroke-linecap="round" stroke-linejoin="round" stroke-width=".5" d="M205.273-28.672h5.618v-10.2h-5.618z"/><path fill="#fff" d="M210.723-39.672h4.429v-7.922h-4.429Z"/><path fill="none" stroke="#599292" stroke-linecap="round" stroke-linejoin="round" stroke-width=".5" d="M210.723-39.672h4.429v-7.922h-4.429z"/><path fill="#b8dede" d="M271.121-6.672h28.348l.07-39.992h-28.488z"/><path fill="none" stroke="#004d4d" stroke-linecap="round" stroke-linejoin="round" stroke-width=".5" d="M271.121-6.672h28.348l.07-39.992h-28.488z"/><path fill="#fff" d="M295.344-6.672h3.808v-3.93h-3.808Z"/><path fill="none" stroke="#599292" stroke-linecap="round" stroke-linejoin="round" stroke-width=".5" d="M295.344-6.672h3.808v-3.93h-3.808z"/><path fill="#fff" d="M273.754-11.672h3.305v-4.347h-3.305Z"/><path fill="none" stroke="#599292" stroke-linecap="round" stroke-linejoin="round" stroke-width=".5" d="M273.754-11.672h3.305v-4.347h-3.305z"/><path fill="#fff" d="M290.695-16.672h3.145v-5.402h-3.145Z"/><path fill="none" stroke="#599292" stroke-linecap="round" stroke-linejoin="round" stroke-width=".5" d="M290.695-16.672h3.145v-5.402h-3.145z"/><path fill="#fff" d="M292.508-21.668h4.996v-9.656h-4.996Z"/><path fill="none" stroke="#599292" stroke-linecap="round" stroke-linejoin="round" stroke-width=".5" d="M292.508-21.668h4.996v-9.656h-4.996z"/><path fill="#fff" d="M291.363-26.668h5.442v-7.184h-5.442Z"/><path fill="none" stroke="#599292" stroke-linecap="round" stroke-linejoin="round" stroke-width=".5" d="M291.363-26.668h5.442v-7.184h-5.442z"/><path fill="#fff" d="M289.051-31.668h4.633v-7.852h-4.633Z"/><path fill="none" stroke="#599292" stroke-linecap="round" stroke-linejoin="round" stroke-width=".5" d="M289.051-31.668h4.633v-7.852h-4.633z"/><path fill="#fff" d="M287.668-36.668h4.574v-5.86h-4.574Z"/><path fill="none" stroke="#599292" stroke-linecap="round" stroke-linejoin="round" stroke-width=".5" d="M287.668-36.668h4.574v-5.86h-4.574z"/><path fill="#fff" d="M284.234-41.09h3.727v-5.574h-3.727Z"/><path fill="none" stroke="#599292" stroke-linecap="round" stroke-linejoin="round" stroke-width=".5" d="M284.234-41.09h3.727v-5.574h-3.727z"/><path fill="#b8b8b8" d="M352.492-6.672h28.348l-4.235-38.664h-19.878z"/><path fill="none" stroke="#000" stroke-linecap="round" stroke-linejoin="round" stroke-width=".5" d="M352.492-6.672h28.348l-4.235-38.664h-19.878zm14.172-38.664v-13.887"/><path d="M368.242-59.223a1.575 1.575 0 1 0-3.152 0 1.575 1.575 0 0 0 3.152 0"/><path fill="#fff" d="M359.516-6.672h4.257v-6.437h-4.257Z"/><path fill="none" stroke="#595959" stroke-linecap="round" stroke-linejoin="round" stroke-width=".5" d="M359.516-6.672h4.257v-6.433h-4.257z"/><path fill="#fff" d="M362.484-16.34h5.407v-8.113h-5.407Z"/><path fill="none" stroke="#595959" stroke-linecap="round" stroke-linejoin="round" stroke-width=".5" d="M362.484-16.34h5.407v-8.113h-5.407z"/><path fill="#fff" d="M367.035-26.004h5.477v-5.777h-5.477Z"/><path fill="none" stroke="#595959" stroke-linecap="round" stroke-linejoin="round" stroke-width=".5" d="M367.035-26.004h5.477v-5.777h-5.477z"/><path fill="#fff" d="M364.512-35.672h3.945v-7.398h-3.945Z"/><path fill="none" stroke="#595959" stroke-linecap="round" stroke-linejoin="round" stroke-width=".5" d="M364.512-35.672h3.945v-7.398h-3.945z"/><path fill="#b8b8eb" d="M27.012-79.344h28.347l-4.164-21.832h-20.02z"/><path fill="none" stroke="#006" stroke-linecap="round" stroke-linejoin="round" stroke-width=".5" d="M27.012-79.344h28.347l-4.164-21.832h-20.02zm14.172-21.832v-12.871"/><path fill="#006" d="M42.73-114.047a1.546 1.546 0 1 0-3.093 0 1.548 1.548 0 0 0 3.093 0"/><path fill="#fff" d="M40.5-79.344h2.86v-4.972H40.5Z"/><path fill="none" stroke="#5959a6" stroke-linecap="round" stroke-linejoin="round" stroke-width=".5" d="M40.5-79.344h2.86v-4.972H40.5z"/><path fill="#fff" d="M40.973-90.262h4.218V-94.5h-4.218Z"/><path fill="none" stroke="#5959a6" stroke-linecap="round" stroke-linejoin="round" stroke-width=".5" d="M40.973-90.262h4.218V-94.5h-4.218z"/><path fill="#b8ebb8" d="M108.383-79.344h28.347l-5.812-40.804h-16.727z"/><path fill="none" stroke="#060" stroke-linecap="round" stroke-linejoin="round" stroke-width=".5" d="M108.383-79.344h28.347l-5.812-40.804h-16.727z"/><path fill="#fff" d="M116.535-79.344h3.887v-6.586h-3.887Z"/><path fill="none" stroke="#59a659" stroke-linecap="round" stroke-linejoin="round" stroke-width=".5" d="M116.535-79.344h3.887v-6.586h-3.887z"/><path fill="#fff" d="M124.754-86.144h4.48v-7.883h-4.48Z"/><path fill="none" stroke="#59a659" stroke-linecap="round" stroke-linejoin="round" stroke-width=".5" d="M124.754-86.144h4.48v-7.883h-4.48z"/><path fill="#fff" d="M120.965-92.945h3.875v-5.02h-3.875Z"/><path fill="none" stroke="#59a659" stroke-linecap="round" stroke-linejoin="round" stroke-width=".5" d="M120.965-92.945h3.875v-5.02h-3.875z"/><path fill="#fff" d="M115.883-99.746h3.469v-4.168h-3.469Z"/><path fill="none" stroke="#59a659" stroke-linecap="round" stroke-linejoin="round" stroke-width=".5" d="M115.883-99.746h3.469v-4.168h-3.469z"/><path fill="#fff" d="M114.031-106.547h5.231v-8.226h-5.231Z"/><path fill="none" stroke="#59a659" stroke-linecap="round" stroke-linejoin="round" stroke-width=".5" d="M114.031-106.547h5.231v-8.226h-5.231z"/><path fill="#fff" d="M118.641-113.348h3.558v-4.215h-3.558Z"/><path fill="none" stroke="#59a659" stroke-linecap="round" stroke-linejoin="round" stroke-width=".5" d="M118.641-113.348h3.558v-4.215h-3.558z"/><path fill="#ebded1" d="m237.941-79.844-3.394-8.332-1.91-8.867-7.864-10.141-1.82-5.515-9.277 3.429-9.641-1.628-14.219 3.468-9.347 3.961-3.531 6.73 1.417 6.036-4.937 6.957-3.508 3.902z"/><path fill="none" stroke="#664d33" stroke-linecap="round" stroke-linejoin="round" d="m237.941-79.844-3.394-8.332-1.91-8.867-7.864-10.141-1.82-5.515-9.277 3.429-9.641-1.628-14.219 3.468-9.347 3.961-3.531 6.73 1.417 6.036-4.937 6.957-3.508 3.902z"/><g fill="#ccbfb2"><path d="m182.633-85.27 11.547.567-2.532-4.2-6.183-.91zm17.648.54 8.274-.7.019-5.73-5.41 4.957z"/><path d="m185.699-87.512 8.805-1.433-.414-2.098-11.516-.953zm-10.269-3.211 12.152-2.793-1.332-6.742-9.746 3.79zm12.086-6.058 10.097 1.855-.008-5.304-9.894 3.918zm16.468-2.481 9.282 1.281 2.218-4.574-12.843.34z"/></g><path fill="none" stroke="#664d33" stroke-linecap="round" stroke-linejoin="round" d="M203.926-113.754c5.031-2.277 6.465-7.746 3.031-11.566-2.152-2.395-6.039-3.539-7.406-6.352-1.332-2.734.195-5.859 3.445-7.043m7.734 24.961c4.254-.476 7.012-3.988 5.829-7.43-.743-2.16-3.094-3.824-3.153-6.101-.058-2.215 2.016-4.063 4.672-4.168m-24.359 17.699c2.355-2.086 1.945-5.426-.871-7.066-1.766-1.028-4.239-1.075-5.649-2.461-1.375-1.356-1.207-3.375.379-4.555"/><path fill="gray" d="M207.621-90.297c.57-.488 4.68-3.984 4.68-8.5 0-4.629-3.824-7.883-8.906-7.883-4.711 0-7.844 3.535-7.844 6.953 0 1.708 1.426 1.829 1.668 1.829.73 0 1.621-.567 1.621-1.668 0-.77-.281-1.016-.481-1.18.567-2.152 2.434-3.578 4.793-3.578 3.453 0 6.5 1.996 6.5 5.527 0 3.176-2.398 5.613-4.593 7.524l-8.938 7.761c-.445.368-.57.485-.57.977 0 1.18 1.094 1.18 1.668 1.18h14.183c.899-.247.899-1.06.899-1.672v-.848c0-.734 0-1.672-1.305-1.672-1.344 0-1.344.856-1.344 1.828h-9.789z"/><path fill="none" stroke="#000" stroke-linecap="round" stroke-linejoin="round" d="M207.621-90.297c.57-.488 4.68-3.984 4.68-8.5 0-4.629-3.824-7.883-8.906-7.883-4.711 0-7.844 3.535-7.844 6.953 0 1.708 1.426 1.829 1.668 1.829.73 0 1.621-.567 1.621-1.668 0-.77-.281-1.016-.481-1.18.567-2.152 2.434-3.578 4.793-3.578 3.453 0 6.5 1.996 6.5 5.527 0 3.176-2.398 5.613-4.593 7.524l-8.938 7.761c-.445.368-.57.485-.57.977 0 1.18 1.094 1.18 1.668 1.18h14.183c.899-.247.899-1.06.899-1.672v-.848c0-.734 0-1.672-1.305-1.672-1.344 0-1.344.856-1.344 1.828h-9.789z"/><path fill="#ebb8b8" d="M271.121-79.344h28.348l-1.129-22.683h-26.09z"/><path fill="none" stroke="#600" stroke-linecap="round" stroke-linejoin="round" stroke-width=".5" d="M271.121-79.344h28.348l-1.129-22.683h-26.09zm14.176-22.683v-11.961"/><path fill="#600" d="M286.391-113.988c0-.606-.493-1.098-1.094-1.098-.606 0-1.098.492-1.098 1.098 0 .601.492 1.093 1.098 1.093.601 0 1.094-.492 1.094-1.093"/><path fill="#fff" d="M280.816-79.344h3.774v-6.98h-3.774Z"/><path fill="none" stroke="#a65959" stroke-linecap="round" stroke-linejoin="round" stroke-width=".5" d="M280.816-79.344h3.774v-6.98h-3.774z"/><path fill="#fff" d="M292.004-90.684h5.586v-6.257h-5.586Z"/><path fill="none" stroke="#a65959" stroke-linecap="round" stroke-linejoin="round" stroke-width=".5" d="M292.004-90.684h5.586v-6.257h-5.586z"/><path fill="#b8ebb8" d="M352.492-79.344h28.348l-6.223-52.679h-15.902z"/><path fill="none" stroke="#060" stroke-linecap="round" stroke-linejoin="round" stroke-width=".5" d="M352.492-79.344h28.348l-6.223-52.679h-15.902z"/><path fill="#fff" d="M354.051-79.344h5.512V-89.55h-5.512Z"/><path fill="none" stroke="#59a659" stroke-linecap="round" stroke-linejoin="round" stroke-width=".5" d="M354.051-79.344h5.512V-89.55h-5.512z"/><path fill="#fff" d="M363.316-85.93h5.274v-8.777h-5.274Z"/><path fill="none" stroke="#59a659" stroke-linecap="round" stroke-linejoin="round" stroke-width=".5" d="M363.316-85.93h5.274v-8.777h-5.274z"/><path fill="#fff" d="M357.453-92.516h2.922v-5.054h-2.922Z"/><path fill="none" stroke="#59a659" stroke-linecap="round" stroke-linejoin="round" stroke-width=".5" d="M357.453-92.516h2.918v-5.054h-2.918z"/><path fill="#fff" d="M361.906-99.098h5.172v-5.386h-5.172Z"/><path fill="none" stroke="#59a659" stroke-linecap="round" stroke-linejoin="round" stroke-width=".5" d="M361.906-99.098h5.172v-5.386h-5.172z"/><path fill="#fff" d="M368.707-105.684h3.539v-6.211h-3.539Z"/><path fill="none" stroke="#59a659" stroke-linecap="round" stroke-linejoin="round" stroke-width=".5" d="M368.707-105.684h3.539v-6.211h-3.539z"/><path fill="#fff" d="M358.172-112.27h3.234v-4.199h-3.234Z"/><path fill="none" stroke="#59a659" stroke-linecap="round" stroke-linejoin="round" stroke-width=".5" d="M358.172-112.27h3.234v-4.199h-3.234z"/><path fill="#fff" d="M368.512-118.855h3.742v-5.196h-3.742Z"/><path fill="none" stroke="#59a659" stroke-linecap="round" stroke-linejoin="round" stroke-width=".5" d="M368.512-118.855h3.742v-5.196h-3.742z"/><path fill="#fff" d="M367.785-125.438h4.399v-4.55h-4.399Z"/><path fill="none" stroke="#59a659" stroke-linecap="round" stroke-linejoin="round" stroke-width=".5" d="M367.785-125.438h4.399v-4.55h-4.399z"/><path fill="#b8ebb8" d="M27.012-152.016h28.347l-.824-40.496h-26.7z"/><path fill="none" stroke="#060" stroke-linecap="round" stroke-linejoin="round" stroke-width=".5" d="M27.012-152.016h28.347l-.824-40.496h-26.7zm14.172-40.496v-7.476"/><path fill="#060" d="M42.043-199.988c0-.473-.387-.856-.86-.856s-.855.383-.855.856c0 .472.383.859.856.859s.859-.387.859-.859"/><path fill="#fff" d="M35.648-152.016h4.84v-7.336h-4.84Z"/><path fill="none" stroke="#59a659" stroke-linecap="round" stroke-linejoin="round" stroke-width=".5" d="M35.648-152.016h4.84v-7.336h-4.84z"/><path fill="#fff" d="M45.77-158.766h3.52v-5.226h-3.52Z"/><path fill="none" stroke="#59a659" stroke-linecap="round" stroke-linejoin="round" stroke-width=".5" d="M45.77-158.766h3.52v-5.226h-3.52z"/><path fill="#fff" d="M40.195-165.512h5.461V-176h-5.46Z"/><path fill="none" stroke="#59a659" stroke-linecap="round" stroke-linejoin="round" stroke-width=".5" d="M40.195-165.512h5.461v-10.484h-5.46z"/><path fill="#fff" d="M42.996-172.262h4.395v-8.472h-4.395Z"/><path fill="none" stroke="#59a659" stroke-linecap="round" stroke-linejoin="round" stroke-width=".5" d="M42.996-172.262h4.395v-8.472h-4.395z"/><path fill="#fff" d="M47.676-179.012h3.683v-5.144h-3.683Z"/><path fill="none" stroke="#59a659" stroke-linecap="round" stroke-linejoin="round" stroke-width=".5" d="M47.676-179.012h3.683v-5.144h-3.683z"/><path fill="#fff" d="M38.941-185.762h4.461v-6.39h-4.46Z"/><path fill="none" stroke="#59a659" stroke-linecap="round" stroke-linejoin="round" stroke-width=".5" d="M38.941-185.762h4.461v-6.39h-4.46z"/><path fill="#b8b8eb" d="M108.383-152.016h28.347l-8.109-26.242h-12.133z"/><path fill="none" stroke="#006" stroke-linecap="round" stroke-linejoin="round" stroke-width=".5" d="M108.383-152.016h28.347l-8.109-26.242h-12.133z"/><path fill="#fff" d="M112.469-152.016h3.449v-6.074h-3.449Z"/><path fill="none" stroke="#5959a6" stroke-linecap="round" stroke-linejoin="round" stroke-width=".5" d="M112.469-152.016h3.449v-6.074h-3.449z"/><path fill="#fff" d="M123.785-165.137h3.055v-5.734h-3.055Z"/><path fill="none" stroke="#5959a6" stroke-linecap="round" stroke-linejoin="round" stroke-width=".5" d="M123.785-165.137h3.055v-5.734h-3.055z"/><path fill="#ebb8b8" d="M189.754-152.016h28.344l-1.399-54.839h-25.551z"/><path fill="none" stroke="#600" stroke-linecap="round" stroke-linejoin="round" stroke-width=".5" d="M189.754-152.016h28.344l-1.399-54.839h-25.551zm14.172-54.839v-4.266"/><path fill="#600" d="M205.605-211.121c0-.93-.75-1.68-1.679-1.68-.93 0-1.68.75-1.68 1.68s.75 1.68 1.68 1.68 1.679-.75 1.679-1.68"/><path fill="#fff" d="M202.438-152.016h5.39v-7.379h-5.39Z"/><path fill="none" stroke="#a65959" stroke-linecap="round" stroke-linejoin="round" stroke-width=".5" d="M202.438-152.016h5.39v-7.379h-5.39z"/><path fill="#fff" d="M198.938-165.727h4.339v-7.363h-4.339Z"/><path fill="none" stroke="#a65959" stroke-linecap="round" stroke-linejoin="round" stroke-width=".5" d="M198.938-165.727h4.339v-7.363h-4.339z"/><path fill="#fff" d="M207.57-179.434h2.953v-5.543h-2.953Z"/><path fill="none" stroke="#a65959" stroke-linecap="round" stroke-linejoin="round" stroke-width=".5" d="M207.57-179.434h2.953v-5.543h-2.953z"/><path fill="#fff" d="M199.559-193.145h3.05v-3.527h-3.05Z"/><path fill="none" stroke="#a65959" stroke-linecap="round" stroke-linejoin="round" stroke-width=".5" d="M199.559-193.145h3.05v-3.527h-3.05z"/><path fill="#b8b8eb" d="M271.121-152.016h28.348l1.469-21.66h-31.286z"/><path fill="none" stroke="#006" stroke-linecap="round" stroke-linejoin="round" stroke-width=".5" d="M271.121-152.016h28.348l1.469-21.66h-31.286zm14.176-21.66v-14.148"/><path fill="#006" d="M286.828-187.824a1.53 1.53 0 0 0-1.531-1.531 1.531 1.531 0 1 0 0 3.062c.844 0 1.531-.684 1.531-1.531"/><path fill="#fff" d="M274.621-152.016h5.184v-5.968h-5.184Z"/><path fill="none" stroke="#5959a6" stroke-linecap="round" stroke-linejoin="round" stroke-width=".5" d="M274.621-152.016h5.184v-5.968h-5.184z"/><path fill="#fff" d="M290.973-159.234h3.816v-7.196h-3.816Z"/><path fill="none" stroke="#5959a6" stroke-linecap="round" stroke-linejoin="round" stroke-width=".5" d="M290.973-159.234h3.816v-7.196h-3.816z"/><path fill="#fff" d="M289.711-166.453h4.035v-4.863h-4.035Z"/><path fill="none" stroke="#5959a6" stroke-linecap="round" stroke-linejoin="round" stroke-width=".5" d="M289.711-166.453h4.035v-4.863h-4.035z"/><path fill="#b8ebb8" d="M352.492-152.016h28.348l-5.149-47.992h-18.054z"/><path fill="none" stroke="#060" stroke-linecap="round" stroke-linejoin="round" stroke-width=".5" d="M352.492-152.016h28.348l-5.149-47.992h-18.054zm14.172-47.992v-8.234"/><path fill="#060" d="M367.77-208.242a1.105 1.105 0 1 0-2.21-.002 1.105 1.105 0 0 0 2.21.002"/><path fill="#fff" d="M367.316-152.016h4.348v-5.523h-4.348Z"/><path fill="none" stroke="#59a659" stroke-linecap="round" stroke-linejoin="round" stroke-width=".5" d="M367.316-152.016h4.348v-5.523h-4.348z"/><path fill="#fff" d="M366.289-158.016h2.988v-5.011h-2.988Z"/><path fill="none" stroke="#59a659" stroke-linecap="round" stroke-linejoin="round" stroke-width=".5" d="M366.289-158.016h2.988v-5.011h-2.988z"/><path fill="#fff" d="M364.043-164.016h3.102v-5.023h-3.102Z"/><path fill="none" stroke="#59a659" stroke-linecap="round" stroke-linejoin="round" stroke-width=".5" d="M364.043-164.016h3.102v-5.023h-3.102z"/><path fill="#fff" d="M364.383-170.012h5.094v-5.949h-5.094Z"/><path fill="none" stroke="#59a659" stroke-linecap="round" stroke-linejoin="round" stroke-width=".5" d="M364.383-170.012h5.094v-5.949h-5.094z"/><path fill="#fff" d="M370.766-176.012h4.574v-6.613h-4.574Z"/><path fill="none" stroke="#59a659" stroke-linecap="round" stroke-linejoin="round" stroke-width=".5" d="M370.766-176.012h4.574v-6.617h-4.574z"/><path fill="#fff" d="M362.773-182.012h3.602v-5.215h-3.602Z"/><path fill="none" stroke="#59a659" stroke-linecap="round" stroke-linejoin="round" stroke-width=".5" d="M362.773-182.012h3.598v-5.215h-3.598z"/><path fill="#fff" d="M361.816-188.012h4.868v-7.164h-4.868Z"/><path fill="none" stroke="#59a659" stroke-linecap="round" stroke-linejoin="round" stroke-width=".5" d="M361.816-188.012h4.868v-7.164h-4.868z"/><path fill="#fff" d="M363.664-194.012h3.293v-3.613h-3.293Z"/><path fill="none" stroke="#59a659" stroke-linecap="round" stroke-linejoin="round" stroke-width=".5" d="M363.664-194.012h3.297v-3.617h-3.297z"/><path fill="#b8ebb8" d="M27.012-224.688h28.347l-6.757-32.214H33.77z"/><path fill="none" stroke="#060" stroke-linecap="round" stroke-linejoin="round" stroke-width=".5" d="M27.012-224.688h28.347l-6.757-32.214H33.77z"/><path fill="#fff" d="M38.305-224.688h5.133v-6.023h-5.133Z"/><path fill="none" stroke="#59a659" stroke-linecap="round" stroke-linejoin="round" stroke-width=".5" d="M38.305-224.688h5.133v-6.023h-5.133z"/><path fill="#fff" d="M31.29-230.055h4.452v-5.933H31.29Z"/><path fill="none" stroke="#59a659" stroke-linecap="round" stroke-linejoin="round" stroke-width=".5" d="M31.29-230.055h4.452v-5.933H31.29z"/><path fill="#fff" d="M35.086-235.426h3.125v-4.633h-3.125Z"/><path fill="none" stroke="#59a659" stroke-linecap="round" stroke-linejoin="round" stroke-width=".5" d="M35.086-235.426h3.125v-4.633h-3.125z"/><path fill="#fff" d="M34.293-240.797h5.043v-6.676h-5.043Z"/><path fill="none" stroke="#59a659" stroke-linecap="round" stroke-linejoin="round" stroke-width=".5" d="M34.293-240.797h5.043v-6.676h-5.043z"/><path fill="#fff" d="M33.633-246.164h4.418v-7.539h-4.418Z"/><path fill="none" stroke="#59a659" stroke-linecap="round" stroke-linejoin="round" stroke-width=".5" d="M33.633-246.164h4.418v-7.539h-4.418z"/><path fill="#fff" d="M38.5-251.535h2.941v-3.414H38.5Z"/><path fill="none" stroke="#59a659" stroke-linecap="round" stroke-linejoin="round" stroke-width=".5" d="M38.5-251.535h2.941v-3.414H38.5z"/><path fill="#b8b8eb" d="M108.383-224.688h28.347l-7.89-39.14h-12.57z"/><path fill="none" stroke="#006" stroke-linecap="round" stroke-linejoin="round" stroke-width=".5" d="M108.383-224.688h28.347l-7.89-39.14h-12.57zm14.172-39.14v-12.129"/><path fill="#006" d="M123.508-275.957a.952.952 0 1 0-1.906 0 .952.952 0 1 0 1.906 0"/><path fill="#fff" d="M119.496-224.688h3.5v-6.531h-3.5Z"/><path fill="none" stroke="#5959a6" stroke-linecap="round" stroke-linejoin="round" stroke-width=".5" d="M119.496-224.688h3.5v-6.531h-3.5z"/><path fill="#fff" d="M119.031-234.473h4.535v-5.98h-4.535Z"/><path fill="none" stroke="#5959a6" stroke-linecap="round" stroke-linejoin="round" stroke-width=".5" d="M119.031-234.473h4.535v-5.98h-4.535z"/><path fill="#fff" d="M115.602-244.258h4.043v-5.359h-4.043Z"/><path fill="none" stroke="#5959a6" stroke-linecap="round" stroke-linejoin="round" stroke-width=".5" d="M115.602-244.258h4.043v-5.359h-4.043z"/><path fill="#fff" d="M120.199-254.043h4.953v-9.691h-4.953Z"/><path fill="none" stroke="#5959a6" stroke-linecap="round" stroke-linejoin="round" stroke-width=".5" d="M120.199-254.043h4.953v-9.691h-4.953z"/><path fill="#d1b8eb" d="M189.754-224.688h28.344l-8.395-60.332h-11.558z"/><path fill="none" stroke="#306" stroke-linecap="round" stroke-linejoin="round" stroke-width=".5" d="M189.754-224.688h28.344l-8.395-60.332h-11.558z"/><path fill="#fff" d="M206.484-224.688h5.024v-7.324h-5.024Z"/><path fill="none" stroke="#8059a6" stroke-linecap="round" stroke-linejoin="round" stroke-width=".5" d="M206.484-224.688h5.024v-7.324h-5.024z"/><path fill="#fff" d="M203.594-229.715h3.746v-5.008h-3.746Z"/><path fill="none" stroke="#8059a6" stroke-linecap="round" stroke-linejoin="round" stroke-width=".5" d="M203.594-229.715h3.746v-5.008h-3.746z"/><path fill="#fff" d="M204.086-234.742h4.031v-4.071h-4.031Z"/><path fill="none" stroke="#8059a6" stroke-linecap="round" stroke-linejoin="round" stroke-width=".5" d="M204.086-234.742h4.031v-4.071h-4.031z"/><path fill="#fff" d="M197.43-239.77h5.105v-9.453h-5.105Z"/><path fill="none" stroke="#8059a6" stroke-linecap="round" stroke-linejoin="round" stroke-width=".5" d="M197.43-239.77h5.105v-9.453h-5.105z"/><path fill="#fff" d="M209.34-244.797h4.426v-5.324h-4.426Z"/><path fill="none" stroke="#8059a6" stroke-linecap="round" stroke-linejoin="round" stroke-width=".5" d="M209.34-244.797h4.426v-5.324h-4.426z"/><path fill="#fff" d="M203.816-249.824h3.766v-6.531h-3.766Z"/><path fill="none" stroke="#8059a6" stroke-linecap="round" stroke-linejoin="round" stroke-width=".5" d="M203.816-249.824h3.766v-6.531h-3.766z"/><path fill="#fff" d="M195.266-254.852h4.672v-5.234h-4.672Z"/><path fill="none" stroke="#8059a6" stroke-linecap="round" stroke-linejoin="round" stroke-width=".5" d="M195.266-254.852h4.672v-5.234h-4.672z"/><path fill="#fff" d="M208.094-259.879h4.14v-5.531h-4.14Z"/><path fill="none" stroke="#8059a6" stroke-linecap="round" stroke-linejoin="round" stroke-width=".5" d="M208.094-259.879h4.14v-5.531h-4.14z"/><path fill="#fff" d="M207.055-264.906h3.722v-6.188h-3.722Z"/><path fill="none" stroke="#8059a6" stroke-linecap="round" stroke-linejoin="round" stroke-width=".5" d="M207.055-264.906h3.722v-6.188h-3.722z"/><path fill="#fff" d="M197.59-269.934h3.496v-6.796h-3.496Z"/><path fill="none" stroke="#8059a6" stroke-linecap="round" stroke-linejoin="round" stroke-width=".5" d="M197.59-269.934h3.5v-6.796h-3.5z"/><path fill="#fff" d="M200.652-274.965h3.614v-6.137h-3.614Z"/><path fill="none" stroke="#8059a6" stroke-linecap="round" stroke-linejoin="round" stroke-width=".5" d="M200.652-274.965h3.614v-6.137h-3.614z"/><path fill="#fff" d="M200.676-279.992h2.945v-4.68h-2.945Z"/><path fill="none" stroke="#8059a6" stroke-linecap="round" stroke-linejoin="round" stroke-width=".5" d="M200.676-279.992h2.941v-4.684h-2.941z"/><path fill="#ebd1b8" d="M271.121-224.688h28.348l-.278-20.929h-27.793z"/><path fill="none" stroke="#630" stroke-linecap="round" stroke-linejoin="round" stroke-width=".5" d="M271.121-224.688h28.348l-.278-20.929h-27.793zm14.176-20.929v-12.313"/><path fill="#630" d="M286.711-257.93c0-.781-.633-1.414-1.414-1.414s-1.418.633-1.418 1.414a1.417 1.417 0 0 0 2.832 0"/><path fill="#fff" d="M288.973-224.688h3.5v-4.402h-3.5Z"/><path fill="none" stroke="#a68059" stroke-linecap="round" stroke-linejoin="round" stroke-width=".5" d="M288.973-224.688h3.5v-4.402h-3.5z"/><path fill="#fff" d="M285.18-229.918h5.429v-7.07h-5.429Z"/><path fill="none" stroke="#a68059" stroke-linecap="round" stroke-linejoin="round" stroke-width=".5" d="M285.18-229.918h5.429v-7.07h-5.429z"/><path fill="#fff" d="M273.621-235.152h3.477v-6.461h-3.477Z"/><path fill="none" stroke="#a68059" stroke-linecap="round" stroke-linejoin="round" stroke-width=".5" d="M273.621-235.152h3.477v-6.461h-3.477z"/><path fill="#fff" d="M282.242-239.344h5.207v-6.273h-5.207Z"/><path fill="none" stroke="#a68059" stroke-linecap="round" stroke-linejoin="round" stroke-width=".5" d="M282.242-239.344h5.207v-6.273h-5.207z"/><path fill="#b8ebb8" d="M352.492-224.688h28.348l-6.406-52.839h-15.539z"/><path fill="none" stroke="#060" stroke-linecap="round" stroke-linejoin="round" stroke-width=".5" d="M352.492-224.688h28.348l-6.406-52.839h-15.539zm14.172-52.839v-5.75"/><path fill="#060" d="M368.109-283.277a1.445 1.445 0 1 0-2.89-.003 1.445 1.445 0 0 0 2.89.003"/><path fill="#fff" d="M366.563-224.688h3.617v-5.671h-3.617Z"/><path fill="none" stroke="#59a659" stroke-linecap="round" stroke-linejoin="round" stroke-width=".5" d="M366.563-224.688h3.617v-5.671h-3.617z"/><path fill="#fff" d="M367.313-237.898h4.703v-6.766h-4.703Z"/><path fill="none" stroke="#59a659" stroke-linecap="round" stroke-linejoin="round" stroke-width=".5" d="M367.313-237.898h4.703v-6.766h-4.703z"/><path fill="#fff" d="M368.352-251.105h4.957v-9.344h-4.957Z"/><path fill="none" stroke="#59a659" stroke-linecap="round" stroke-linejoin="round" stroke-width=".5" d="M368.352-251.105h4.957v-9.344h-4.957z"/><path fill="#fff" d="M365.266-264.316h4.14v-5.52h-4.14Z"/><path fill="none" stroke="#59a659" stroke-linecap="round" stroke-linejoin="round" stroke-width=".5" d="M365.266-264.316h4.14v-5.52h-4.14z"/></g></svg>