<svg xmlns="http://www.w3.org/2000/svg" width="229pt" height="248" viewBox="0 -186 229 186"><g id="page1"><path fill="none" stroke="#000" stroke-linecap="round" stroke-linejoin="round" stroke-width="2" d="M1-14.488v-170.078h226.77v170.078z"/><path fill="#0000bf" d="M33.395-14.488h64.793v-9.282H33.394Z"/><path fill="none" stroke="#000" stroke-linecap="round" stroke-linejoin="round" stroke-width="2" d="M33.395-14.488v-9.282h64.793v9.282z"/><path fill="#0000bf" d="M130.586-14.488h64.789v-151.446h-64.789Z"/><path fill="none" stroke="#000" stroke-linecap="round" stroke-linejoin="round" stroke-width="2" d="M130.586-14.488v-151.446h64.789v151.446z"/><path d="M79.875-176.578c0-.32 0-.414-.18-.414-.14 0-.484.398-.61.558-.554-.449-1.108-.558-1.683-.558-2.168 0-2.812 1.183-2.812 2.172 0 .195 0 .824.683 1.449.57.5 1.18.629 2.004.789.989.195 1.22.25 1.668.609.32.27.555.66.555 1.164 0 .77-.45 1.629-2.023 1.629-1.184 0-2.043-.679-2.438-2.472-.07-.321-.07-.34-.09-.356-.035-.074-.105-.074-.16-.074-.2 0-.2.09-.2.414v2.434c0 .324 0 .414.18.414.09 0 .11-.02.415-.395.09-.125.09-.164.355-.449.684.844 1.648.844 1.953.844 1.883 0 2.813-1.039 2.813-2.453 0-.969-.59-1.543-.75-1.704-.645-.554-1.13-.664-2.313-.878-.539-.11-1.844-.36-1.844-1.434 0-.555.375-1.379 1.989-1.379 1.953 0 2.058 1.664 2.094 2.223.019.14.144.14.199.14.195 0 .195-.086.195-.41zm7.609.949c-.215 0-.875 0-.875.734 0 .43.305.735.735.735.41 0 .75-.25.75-.77 0-1.199-1.254-2.062-2.703-2.062-2.098 0-3.766 1.863-3.766 4.121 0 2.293 1.723 4.051 3.746 4.051 2.363 0 2.902-2.149 2.902-2.313 0-.16-.125-.16-.18-.16-.16 0-.179.055-.234.27-.39 1.269-1.359 1.808-2.328 1.808-1.094 0-2.543-.949-2.543-3.672 0-2.972 1.524-3.707 2.418-3.707.68 0 1.668.266 2.078.965m9.539 2.793c0-2.309-1.757-4.156-3.835-4.156-2.149 0-3.852 1.902-3.852 4.156 0 2.297 1.793 4.016 3.836 4.016 2.113 0 3.851-1.758 3.851-4.016m-3.835 3.621c-.66 0-1.47-.289-1.989-1.164-.48-.809-.5-1.863-.5-2.617 0-.68 0-1.774.555-2.578a2.3 2.3 0 0 1 1.918-1.059c.7 0 1.45.324 1.934 1.024.554.824.554 1.953.554 2.613 0 .629 0 1.738-.465 2.582-.5.859-1.324 1.199-2.007 1.199m7.492-12.219-2.489.2v.519c1.22 0 1.364.125 1.364 1v9.391c0 .804-.2.804-1.364.804v.52c.5-.035 1.38-.035 1.918-.035.536 0 1.43 0 1.934.035v-.52c-1.145 0-1.363 0-1.363-.804zm8.636 7.653c0-.969 0-1.688-.789-2.383-.629-.574-1.433-.828-2.222-.828-1.469 0-2.598.969-2.598 2.133 0 .519.34.769.754.769.43 0 .734-.301.734-.73 0-.735-.644-.735-.914-.735.414-.754 1.274-1.078 1.989-1.078.824 0 1.878.68 1.878 2.293v.719c-3.597.051-4.96 1.558-4.96 2.937 0 1.414 1.648 1.864 2.742 1.864 1.179 0 1.988-.719 2.328-1.578.07.843.625 1.488 1.398 1.488.375 0 1.414-.25 1.414-1.684v-1.004h-.394v1.004c0 1.02-.43 1.164-.68 1.164-.68 0-.68-.949-.68-1.218zm-1.168 2.254c0 1.757-1.304 2.347-2.078 2.347-.875 0-1.609-.644-1.609-1.504 0-2.363 3.047-2.582 3.687-2.617zm8.93-5.051c0-.32 0-.414-.18-.414-.144 0-.484.398-.609.558-.555-.449-1.113-.558-1.687-.558-2.164 0-2.813 1.183-2.813 2.172 0 .195 0 .824.684 1.449.574.5 1.183.629 2.004.789.988.195 1.218.25 1.668.609.324.27.554.66.554 1.164 0 .77-.445 1.629-2.023 1.629-1.184 0-2.043-.679-2.438-2.472-.07-.321-.07-.34-.09-.356-.035-.074-.105-.074-.16-.074-.199 0-.199.09-.199.414v2.434c0 .324 0 .414.18.414.09 0 .109-.02.414-.395.09-.125.09-.164.359-.449.68.844 1.649.844 1.953.844 1.879 0 2.813-1.039 2.813-2.453 0-.969-.594-1.543-.754-1.704-.645-.554-1.129-.664-2.313-.878-.535-.11-1.843-.36-1.843-1.434 0-.555.375-1.379 1.988-1.379 1.953 0 2.059 1.664 2.094 2.223.019.14.144.14.199.14.199 0 .199-.086.199-.41zm4.031.375h2.528v-.52h-2.528v-3.293h-.394c-.02 1.68-.66 3.403-2.293 3.457v.356h1.523v4.98c0 1.989 1.325 2.403 2.274 2.403 1.129 0 1.722-1.11 1.722-2.403v-1.019h-.394v.984c0 1.289-.52 2.043-1.219 2.043-1.219 0-1.219-1.668-1.219-1.973zm7.008-3.832a.88.88 0 0 0-.879-.879.86.86 0 0 0-.859.859c0 .539.43.879.859.879a.87.87 0 0 0 .879-.859m-2.472 3.332v.519c1.148 0 1.308.106 1.308.985v4.875c0 .804-.195.804-1.363.804v.52c.504-.035 1.363-.035 1.883-.035.195 0 1.234 0 1.843.035v-.52c-1.164 0-1.234-.089-1.234-.789v-6.589zm10.64 1.074c-.215 0-.879 0-.879.734 0 .43.309.735.735.735.414 0 .754-.25.754-.77 0-1.199-1.254-2.062-2.707-2.062-2.094 0-3.762 1.863-3.762 4.121 0 2.293 1.722 4.051 3.746 4.051 2.363 0 2.902-2.149 2.902-2.313 0-.16-.125-.16-.179-.16-.161 0-.18.055-.235.27-.394 1.269-1.359 1.808-2.328 1.808-1.094 0-2.543-.949-2.543-3.672 0-2.972 1.524-3.707 2.418-3.707.68 0 1.664.266 2.078.965m8.887 2.277c0-1.668 0-2.168-.414-2.742-.516-.699-1.36-.804-1.969-.804-1.543 0-2.258 1.164-2.508 1.718h-.015v-6.254l-2.493.2v.519c1.219 0 1.36.125 1.36 1v9.391c0 .804-.195.804-1.36.804v.52c.465-.035 1.434-.035 1.934-.035.52 0 1.488 0 1.953.035v-.52c-1.144 0-1.359 0-1.359-.804v-3.332c0-1.883 1.234-2.887 2.344-2.887 1.113 0 1.363.914 1.363 2.008v4.211c0 .804-.195.804-1.363.804v.52c.468-.035 1.433-.035 1.937-.035.52 0 1.484 0 1.953.035v-.52c-.898 0-1.344 0-1.363-.535zm8.59.196c.394 0 .429 0 .429-.34 0-1.809-.968-3.496-3.136-3.496-2.039 0-3.617 1.847-3.617 4.07 0 2.363 1.828 4.102 3.816 4.102 2.129 0 2.937-1.938 2.937-2.313 0-.105-.089-.18-.199-.18-.14 0-.176.09-.211.18-.468 1.504-1.668 1.918-2.422 1.918-.75 0-2.562-.504-2.562-3.601v-.34zm-4.946-.34c.145-2.813 1.719-3.137 2.223-3.137 1.914 0 2.024 2.528 2.043 3.137zM57.938-33.766c.898-.484 2.203-1.308 2.203-2.812 0-1.563-1.504-2.637-3.153-2.637-1.773 0-3.168 1.309-3.168 2.942 0 .609.176 1.214.68 1.824.195.234.215.254 1.469 1.129-1.739.808-2.633 2.008-2.633 3.316 0 1.899 1.809 3.082 3.637 3.082 1.988 0 3.652-1.469 3.652-3.351 0-1.829-1.29-2.633-2.687-3.493M55.5-35.379c-.23-.16-.945-.629-.945-1.504 0-1.164 1.215-1.898 2.418-1.898 1.289 0 2.433.93 2.433 2.218 0 1.094-.789 1.973-1.828 2.544zm.844 2.309 2.168 1.418c.465.304 1.289.859 1.289 1.953 0 1.36-1.38 2.293-2.813 2.293-1.523 0-2.832-1.114-2.832-2.598 0-1.398 1.024-2.527 2.188-3.066m13.082.039c0-1.489-.09-2.938-.735-4.301-.734-1.488-2.023-1.883-2.902-1.883-1.039 0-2.312.52-2.973 2.008-.504 1.129-.683 2.238-.683 4.176 0 1.734.125 3.043.773 4.316a3.18 3.18 0 0 0 2.867 1.793c1.555 0 2.454-.933 2.973-1.973.645-1.343.68-3.097.68-4.136m-3.653 5.75c-.574 0-1.742-.325-2.078-2.278-.199-1.074-.199-2.433-.199-3.691 0-1.469 0-2.793.285-3.852.305-1.199 1.219-1.754 1.992-1.754.68 0 1.72.41 2.059 1.954.23 1.02.23 2.437.23 3.652 0 1.203 0 2.563-.195 3.656-.34 1.973-1.469 2.313-2.094 2.313m12.454-5.75c0-1.489-.09-2.938-.735-4.301-.734-1.488-2.023-1.883-2.902-1.883-1.04 0-2.313.52-2.973 2.008-.504 1.129-.683 2.238-.683 4.176 0 1.734.125 3.043.77 4.316.698 1.363 1.937 1.793 2.866 1.793 1.559 0 2.453-.933 2.977-1.973.644-1.343.68-3.097.68-4.136m-3.657 5.75c-.57 0-1.738-.325-2.078-2.278-.195-1.074-.195-2.433-.195-3.691 0-1.469 0-2.793.285-3.852.305-1.199 1.219-1.754 1.988-1.754.68 0 1.72.41 2.063 1.954.23 1.02.23 2.437.23 3.652 0 1.203 0 2.563-.195 3.656-.34 1.973-1.469 2.313-2.098 2.313M49.926-5.922c-.145 0-.586 0-.586.492a.47.47 0 0 0 .488.489c.277 0 .504-.168.504-.512 0-.8-.836-1.375-1.805-1.375-1.398 0-2.508 1.242-2.508 2.746 0 1.531 1.145 2.7 2.497 2.7 1.578 0 1.937-1.43 1.937-1.54s-.086-.11-.121-.11c-.11 0-.121.04-.156.18-.262.852-.907 1.207-1.551 1.207-.73 0-1.7-.632-1.7-2.449 0-1.984 1.016-2.472 1.614-2.472.453 0 1.11.18 1.387.644m6.359 1.867c0-1.543-1.172-2.773-2.558-2.773-1.434 0-2.57 1.266-2.57 2.773 0 1.528 1.195 2.672 2.558 2.672 1.41 0 2.57-1.168 2.57-2.672m-2.558 2.41c-.442 0-.98-.19-1.325-.777-.324-.535-.336-1.242-.336-1.742 0-.453 0-1.184.371-1.719.336-.515.86-.707 1.278-.707.465 0 .969.215 1.293.68.367.55.367 1.305.367 1.746 0 .418 0 1.156-.309 1.719a1.56 1.56 0 0 1-1.34.8m4.969-2.64c0-1.156.477-2.246 1.399-2.246.093 0 .117 0 .168.011-.098.051-.29.122-.29.442 0 .348.278.48.465.48.243 0 .481-.156.481-.48 0-.356-.324-.692-.836-.692-1.016 0-1.363 1.098-1.434 1.329h-.011V-6.77l-1.602.133v.348c.813 0 .906.082.906.668v3.238c0 .535-.129.535-.906.535v.348c.332-.023.992-.023 1.348-.023.324 0 1.172 0 1.445.023v-.348h-.234c-.875 0-.899-.129-.899-.558zm4.5 0c0-1.156.477-2.246 1.399-2.246.094 0 .117 0 .168.011-.098.051-.29.122-.29.442 0 .348.278.48.466.48.242 0 .48-.156.48-.48 0-.356-.324-.692-.836-.692-1.016 0-1.363 1.098-1.434 1.329h-.011V-6.77l-1.602.133v.348c.813 0 .906.082.906.668v3.238c0 .535-.129.535-.906.535v.348c.332-.023.992-.023 1.348-.023.324 0 1.172 0 1.445.023v-.348h-.234c-.875 0-.899-.129-.899-.558zm7.18.012c.266 0 .29 0 .29-.227 0-1.207-.65-2.328-2.095-2.328-1.36 0-2.414 1.23-2.414 2.71 0 1.579 1.219 2.735 2.547 2.735 1.422 0 1.961-1.289 1.961-1.539 0-.07-.062-.117-.133-.117-.094 0-.117.059-.144.117-.309 1.004-1.11 1.277-1.614 1.277-.5 0-1.707-.332-1.707-2.402v-.226zM67.078-4.5c.094-1.875 1.149-2.09 1.48-2.09 1.282 0 1.352 1.684 1.364 2.09zm5.93-1.805h1.683v-.343h-1.683v-2.2h-.266c-.008 1.121-.437 2.27-1.527 2.305v.238h1.016v3.325c0 1.324.886 1.597 1.519 1.597.75 0 1.144-.738 1.144-1.597v-.684h-.261v.656c0 .863-.348 1.363-.813 1.363-.812 0-.812-1.109-.812-1.312zm4.5 0h1.683v-.343h-1.683v-2.2h-.266c-.008 1.121-.437 2.27-1.527 2.305v.238h1.016v3.325c0 1.324.886 1.597 1.519 1.597.75 0 1.144-.738 1.144-1.597v-.684h-.261v.656c0 .863-.348 1.363-.813 1.363-.812 0-.812-1.109-.812-1.312zm7.202 1.614c0-.645 0-1.122-.522-1.59-.419-.38-.957-.547-1.485-.547-.976 0-1.73.644-1.73 1.422 0 .343.226.511.5.511a.47.47 0 0 0 .492-.488c0-.492-.43-.492-.61-.492.274-.5.848-.715 1.325-.715.55 0 1.257.453 1.257 1.527v.481c-2.402.035-3.312 1.039-3.312 1.957 0 .945 1.102 1.242 1.828 1.242a1.63 1.63 0 0 0 1.555-1.047c.047.559.418.989.93.989.253 0 .945-.168.945-1.121v-.672h-.262v.672c0 .68-.289.773-.457.773-.453 0-.453-.633-.453-.813zm-.772 1.507c0 1.168-.876 1.567-1.387 1.567-.586 0-1.078-.434-1.078-1.008 0-1.574 2.03-1.719 2.465-1.742z"/><path fill="#fff" d="M146.16-95.883c0-.414 0-.43-.359-.43-.43.485-1.324 1.145-3.172 1.145v.52c.414 0 1.309 0 2.293-.465v9.332c0 .648-.051.863-1.629.863h-.555v.52c.485-.04 2.223-.04 2.813-.04s2.308 0 2.793.04v-.52h-.555c-1.574 0-1.629-.215-1.629-.863zm6.938 5.051c-.305.02-.379.035-.379.2 0 .179.09.179.414.179h.824c1.523 0 2.203 1.25 2.203 2.972 0 2.348-1.219 2.973-2.097 2.973-.86 0-2.329-.41-2.848-1.594.574.09 1.094-.234 1.094-.879 0-.519-.379-.878-.879-.878-.43 0-.895.253-.895.933 0 1.594 1.594 2.903 3.582 2.903 2.133 0 3.711-1.633 3.711-3.442 0-1.644-1.328-2.937-3.047-3.242 1.559-.445 2.563-1.754 2.563-3.152 0-1.414-1.473-2.454-3.207-2.454-1.793 0-3.117 1.094-3.117 2.399 0 .719.554.86.824.86.375 0 .804-.266.804-.805 0-.575-.429-.825-.824-.825-.105 0-.144 0-.195.02.68-1.219 2.363-1.219 2.453-1.219.59 0 1.758.27 1.758 2.024 0 .34-.059 1.343-.574 2.113-.539.789-1.149.844-1.633.863zm13.531.699c0-1.488-.094-2.937-.738-4.3-.735-1.485-2.024-1.88-2.903-1.88-1.039 0-2.308.52-2.972 2.008-.5 1.125-.68 2.239-.68 4.172 0 1.739.125 3.047.769 4.317.7 1.363 1.934 1.793 2.868 1.793 1.558 0 2.453-.93 2.972-1.97.645-1.343.684-3.1.684-4.14m-3.656 5.75c-.575 0-1.739-.32-2.078-2.273-.2-1.078-.2-2.438-.2-3.692 0-1.468 0-2.793.289-3.851.305-1.2 1.219-1.754 1.989-1.754.679 0 1.718.41 2.058 1.953.235 1.02.235 2.434.235 3.652 0 1.2 0 2.563-.2 3.653-.339 1.972-1.468 2.312-2.093 2.312m6.722-10.281a5.3 5.3 0 0 0 1.594.266c2.024 0 3.313-1.485 3.313-1.735 0-.074-.036-.164-.145-.164-.035 0-.07 0-.23.074a5.88 5.88 0 0 1-4.696-.02c-.125-.054-.16-.054-.179-.054-.141 0-.141.11-.141.395v5.32c0 .324 0 .434.215.434.09 0 .105-.02.285-.235a2.7 2.7 0 0 1 2.238-1.164c.949 0 1.418.875 1.559 1.18.305.699.324 1.578.324 2.258s0 1.703-.504 2.507c-.39.649-1.09 1.094-1.879 1.094a2.765 2.765 0 0 1-2.668-2.113.8.8 0 0 0 .285.055c.305 0 .789-.18.789-.79 0-.503-.339-.788-.789-.788-.324 0-.789.16-.789.859 0 1.523 1.219 3.262 3.207 3.262 2.024 0 3.797-1.704 3.797-3.977 0-2.133-1.429-3.906-3.312-3.906-1.024 0-1.809.449-2.274.949zm14.289 7.254h-.394c-.055.304-.199 1.289-.375 1.578-.125.16-1.149.16-1.688.16h-3.312c.48-.414 1.574-1.559 2.043-1.988 2.722-2.508 3.726-3.442 3.726-5.215 0-2.059-1.632-3.437-3.711-3.437s-3.296 1.773-3.296 3.312c0 .914.789.914.843.914.375 0 .844-.27.844-.844 0-.5-.344-.84-.844-.84-.164 0-.199 0-.25.02.34-1.219 1.309-2.043 2.469-2.043 1.524 0 2.457 1.27 2.457 2.918 0 1.523-.879 2.852-1.898 3.996l-3.621 4.05v.43h6.539z"/><path d="M136.719-4.402c0-1.114 0-1.446-.278-1.828-.347-.465-.906-.54-1.312-.54-1.16 0-1.613.993-1.711 1.23h-.012v-1.23l-1.625.133v.348c.813 0 .91.082.91.668v3.238c0 .535-.132.535-.91.535v.348c.313-.023.957-.023 1.293-.023.344 0 .989 0 1.301.023v-.348c-.766 0-.906 0-.906-.535v-2.222c0-1.254.824-1.926 1.562-1.926.742 0 .91.61.91 1.34v2.808c0 .535-.132.535-.91.535v.348c.313-.023.957-.023 1.293-.023.344 0 .989 0 1.301.023v-.348c-.598 0-.895 0-.906-.355zm6.664.347c0-1.543-1.168-2.773-2.555-2.773-1.433 0-2.57 1.266-2.57 2.773 0 1.528 1.195 2.672 2.558 2.672 1.411 0 2.567-1.168 2.567-2.672m-2.555 2.41c-.441 0-.98-.19-1.324-.777-.324-.535-.336-1.242-.336-1.742 0-.453 0-1.184.371-1.719a1.52 1.52 0 0 1 1.277-.707c.465 0 .965.215 1.289.68.372.55.372 1.305.372 1.746 0 .418 0 1.156-.313 1.719a1.55 1.55 0 0 1-1.336.8m8.289-2.757c0-1.114 0-1.446-.273-1.828-.348-.465-.91-.54-1.317-.54-1.16 0-1.613.993-1.707 1.23h-.011v-1.23l-1.625.133v.348c.812 0 .906.082.906.668v3.238c0 .535-.129.535-.906.535v.348c.308-.023.953-.023 1.289-.023.347 0 .992 0 1.3.023v-.348c-.761 0-.906 0-.906-.535v-2.222c0-1.254.824-1.926 1.567-1.926.738 0 .906.61.906 1.34v2.808c0 .535-.129.535-.906.535v.348c.308-.023.953-.023 1.289-.023.347 0 .992 0 1.3.023v-.348c-.593 0-.894 0-.906-.355zm9.406-1.52c-.14 0-.585 0-.585.492a.47.47 0 0 0 .492.489c.273 0 .5-.168.5-.512 0-.8-.836-1.375-1.801-1.375-1.399 0-2.512 1.242-2.512 2.746 0 1.531 1.149 2.7 2.5 2.7 1.574 0 1.934-1.43 1.934-1.54s-.082-.11-.121-.11c-.106 0-.117.04-.153.18-.261.852-.91 1.207-1.554 1.207-.731 0-1.696-.632-1.696-2.449 0-1.984 1.016-2.472 1.614-2.472.453 0 1.109.18 1.382.644m6.36 1.867c0-1.543-1.168-2.773-2.555-2.773-1.433 0-2.57 1.266-2.57 2.773 0 1.528 1.195 2.672 2.558 2.672 1.411 0 2.567-1.168 2.567-2.672m-2.555 2.41c-.441 0-.98-.19-1.324-.777-.324-.535-.336-1.242-.336-1.742 0-.453 0-1.184.371-1.719a1.52 1.52 0 0 1 1.277-.707c.465 0 .965.215 1.289.68.372.55.372 1.305.372 1.746 0 .418 0 1.156-.313 1.719a1.55 1.55 0 0 1-1.336.8m4.867-2.64c0-1.156.477-2.246 1.399-2.246.094 0 .121 0 .168.011-.098.051-.289.122-.289.442 0 .348.273.48.465.48.242 0 .48-.156.48-.48 0-.356-.324-.692-.836-.692-1.016 0-1.363 1.098-1.434 1.329h-.011V-6.77l-1.602.133v.348c.813 0 .906.082.906.668v3.238c0 .535-.128.535-.906.535v.348c.332-.023.992-.023 1.348-.023.324 0 1.172 0 1.445.023v-.348h-.234c-.875 0-.899-.129-.899-.558zm4.602 0c0-1.156.476-2.246 1.398-2.246.094 0 .118 0 .164.011-.093.051-.285.122-.285.442 0 .348.274.48.465.48.238 0 .477-.156.477-.48 0-.356-.321-.692-.836-.692-1.016 0-1.36 1.098-1.434 1.329h-.012V-6.77l-1.601.133v.348c.812 0 .91.082.91.668v3.238c0 .535-.133.535-.91.535v.348c.336-.023.996-.023 1.351-.023.325 0 1.172 0 1.446.023v-.348h-.239c-.871 0-.894-.129-.894-.558zm7.18.012c.261 0 .285 0 .285-.227 0-1.207-.645-2.328-2.09-2.328-1.363 0-2.414 1.23-2.414 2.71 0 1.579 1.219 2.735 2.547 2.735 1.422 0 1.957-1.289 1.957-1.539 0-.07-.059-.117-.129-.117-.098 0-.121.059-.145.117-.308 1.004-1.109 1.277-1.613 1.277s-1.707-.332-1.707-2.402v-.226zM175.68-4.5c.093-1.875 1.144-2.09 1.48-2.09 1.278 0 1.352 1.684 1.363 2.09zm5.929-1.805h1.684v-.343h-1.684v-2.2h-.265c-.012 1.121-.442 2.27-1.528 2.305v.238h1.016v3.325c0 1.324.883 1.597 1.516 1.597.754 0 1.148-.738 1.148-1.597v-.684h-.262v.656c0 .863-.347 1.363-.812 1.363-.813 0-.813-1.109-.813-1.312zm4.5 0h1.684v-.343h-1.684v-2.2h-.265c-.012 1.121-.442 2.27-1.528 2.305v.238h1.016v3.325c0 1.324.883 1.597 1.516 1.597.754 0 1.148-.738 1.148-1.597v-.684h-.262v.656c0 .863-.347 1.363-.812 1.363-.813 0-.813-1.109-.813-1.312zm7.204 1.614c0-.645 0-1.122-.528-1.59a2.2 2.2 0 0 0-1.48-.547c-.981 0-1.735.644-1.735 1.422 0 .343.231.511.504.511a.47.47 0 0 0 .489-.488c0-.492-.43-.492-.61-.492.277-.5.852-.715 1.328-.715.547 0 1.254.453 1.254 1.527v.481c-2.402.035-3.308 1.039-3.308 1.957 0 .945 1.097 1.242 1.828 1.242.789 0 1.324-.476 1.554-1.047.047.559.414.989.93.989.25 0 .945-.168.945-1.121v-.672h-.265v.672c0 .68-.285.773-.453.773-.453 0-.453-.633-.453-.813zm-.778 1.507c0 1.168-.871 1.567-1.387 1.567-.585 0-1.074-.434-1.074-1.008 0-1.574 2.031-1.719 2.461-1.742z"/></g></svg>