<svg xmlns="http://www.w3.org/2000/svg" width="511pt" height="248" viewBox="0 -186 511 186"><g id="page1"><path fill="none" stroke="#000" stroke-linecap="round" stroke-linejoin="round" stroke-width="2" d="M170.328-13.25v-170.078h170.078V-13.25zm56.692 0v-170.078M283.715-13.25v-170.078M170.328-69.941h170.078m-170.078-56.692h170.078"/><path d="M198.09-11.195c-.582-.29-1.168-.875-1.461-1.657-.293-.875-.391-4.285-.098-7.015.098-1.168.196-2.824.098-3.703 0-1.461 0-1.848-.293-2.434-.293-.683-.875-1.168-1.363-1.168-.782 0-1.95.777-4.578 3.215-1.856 1.656-3.415 2.922-4.29 3.508-1.851.972-3.41 1.265-4.675.68-.782-.29-1.66-1.169-1.754-1.754-.293-1.07.387-2.336 2.433-4.579 2.829-2.921 3.801-4.386 4.192-6.14.195-.973.097-2.239-.293-2.727-.684-.879-1.754-.39-4.289 2.047-3.504 3.313-4.383 3.8-5.164 2.922-.485-.586-.68-1.46-.582-2.434.097-2.242 1.949-4.289 6.234-7.21.781-.489 1.559-1.075 1.656-1.172.489-.582.196-1.266-.777-1.852-.195-.098-1.367-.582-2.633-1.07-4.187-1.754-5.457-2.438-6.234-3.606-.293-.488-.391-.683-.293-1.265.097-2.047 1.754-2.535 5.457-1.657.972.192 2.629.582 3.605.778 4.09 1.074 6.039 1.168 7.114.195.293-.39.386-.586.386-.973 0-.78-.875-2.437-2.433-4.484-2.438-3.215-2.922-3.996-2.922-4.773 0-.391 0-.586.289-.782.781-.582 1.754 0 4.582 2.633 3.703 3.703 5.555 4.774 7.793 4.774 1.269 0 1.949-.196 2.633-.778 1.168-1.074 1.265-1.851 1.265-6.238 0-3.8.098-4.871.586-5.945.489-1.07 1.168-1.559 2.434-1.852 1.269-.191 2.144.098 2.535 1.172.293.582.293.777.293 4.969.098 4.87.195 5.652.973 7.406.39.875.976 1.656 1.367 1.656.289 0 1.168-1.074 2.433-2.922.684-1.074 1.461-2.144 1.657-2.242.879-.586 1.461-.098 1.949 1.363q.731 2.485-1.754 4.97c-.582.585-1.363 1.171-1.754 1.46-.391.293-.586.488-.391.39.489-.097 3.215-.777 4.094-.972 1.168-.195 3.41-.195 4.094 0 .293.098.777.387 1.07.68.489.39.586.586.586 1.074.098.582 0 .777-.195 1.07-.488.489-1.363.88-3.02 1.266-4.093.977-5.75 2.047-6.238 4.191-.195 1.168.293 2.145 1.461 3.117.977.684 1.559.977 4.289 2.047 3.703 1.559 4.285 2.047 3.313 3.215-.782.977-2.047.88-5.067-.097-1.851-.68-2.34-.778-3.215-.778-.976 0-1.465.196-2.047.778-.781.78-.585 2.046.489 4.191.582 1.363.875 1.754 2.824 4.969 3.117 4.968 3.898 6.82 3.41 7.992-.195.484-.976.777-1.656.582-1.168-.387-1.949-1.266-4.485-5.164-2.726-3.996-4.285-5.457-5.746-5.457-.586 0-1.269.488-1.754 1.27-.39.68-.976 2.628-1.558 5.456-1.172 6.04-1.758 7.891-2.828 8.672-.489.29-1.266.387-1.754.192m17.539-48.621c-.098-.098-.098-.489-.098-.88 0-1.558 1.27-3.796 2.438-4.382.777-.39 1.363-.293 2.144.39.489.485.489.68.489 1.169 0 1.167-1.075 2.437-2.731 3.312-.879.488-2.047.684-2.242.39"/><path d="M195.07-58.941c-.488-.094-1.363-.68-1.851-1.266-1.074-1.168-2.145-3.117-2.824-5.262-.293-.972-.391-1.363-.391-2.922 0-1.46.098-1.753.293-2.144.582-1.168 1.168-1.559 2.629-1.559.879 0 1.168.098 1.851.488 2.145 1.07 3.411 3.508 3.411 6.918 0 2.922-.778 5.067-2.047 5.653-.485.191-.582.191-1.071.094M172.758-39.16c-2.242-.778-4.094-3.215-3.121-4.285.586-.586 2.144-.586 3.41-.098 1.656.777 2.926 2.727 2.34 3.8-.293.583-1.657.876-2.629.583m51.156.293c-1.465-.196-3.121-.973-3.996-1.95-.586-.68-.781-1.265-.684-2.144.098-.582.391-1.07 1.172-1.559 1.657-1.07 4.871-.582 6.43.977.973.973 1.363 2.629.879 3.605-.391.876-2.051 1.266-3.801 1.07m-.391 16.86q-1.61-.44-2.632-2.633c-.485-1.07-.582-2.047-.098-2.34 1.27-.874 4.387 1.465 4.777 3.508 0 .293-.097.489-.293.88-.39.585-.976.777-1.754.585m-32.449 6.723c-.484-.293-.777-.88-.679-1.559.093-.586.777-1.851 1.265-2.437.485-.39 1.266-.778 1.656-.586.778.39 1.266 2.437.68 3.605-.289.88-.875 1.172-1.851 1.172-.387 0-.875-.098-1.071-.195m17.344 2.335c-.68-.581-1.461-2.726-1.266-3.894.196-.683.586-.976 1.461-.781 1.367.39 2.535 1.266 2.731 2.34.097.39-.098 1.07-.586 1.754-.778.972-1.656 1.168-2.34.582m103.059-54.938c-.586-.293-1.168-.875-1.461-1.656-.293-.875-.391-4.289-.098-7.016.098-1.168.195-2.824.098-3.703 0-1.46 0-1.851-.293-2.437-.293-.68-.879-1.168-1.364-1.168-.781 0-1.949.781-4.582 3.215-1.851 1.656-3.41 2.925-4.285 3.508-1.851.976-3.41 1.269-4.679.683-.778-.293-1.657-1.168-1.754-1.754-.289-1.07.39-2.34 2.437-4.578 2.824-2.926 3.801-4.387 4.192-6.14.195-.973.097-2.243-.293-2.727-.684-.88-1.754-.39-4.29 2.043-3.507 3.316-4.382 3.8-5.164 2.926-.488-.586-.679-1.461-.586-2.438.098-2.242 1.95-4.285 6.239-7.21.777-.49 1.558-1.071 1.656-1.169.488-.586.195-1.265-.781-1.851-.192-.098-1.364-.586-2.629-1.075-4.192-1.754-5.457-2.433-6.235-3.601-.292-.488-.39-.684-.292-1.27.097-2.047 1.753-2.531 5.457-1.656.972.195 2.628.586 3.601.781 4.094 1.071 6.043 1.168 7.113.196.293-.391.391-.586.391-.977 0-.777-.875-2.434-2.434-4.48-2.437-3.215-2.925-3.997-2.925-4.778 0-.386 0-.582.293-.777.781-.586 1.754 0 4.582 2.629 3.699 3.703 5.55 4.777 7.793 4.777 1.265 0 1.949-.195 2.632-.781 1.168-1.07 1.266-1.852 1.266-6.234 0-3.801.098-4.875.582-5.946.488-1.07 1.172-1.558 2.438-1.851 1.265-.196 2.144.097 2.535 1.168.293.586.293.781.293 4.972.097 4.871.191 5.649.972 7.403.391.879.977 1.66 1.364 1.66.293 0 1.172-1.074 2.437-2.926.684-1.07 1.461-2.145 1.656-2.242.875-.582 1.461-.098 1.95 1.363q.731 2.489-1.754 4.973c-.586.586-1.364 1.168-1.754 1.461-.391.293-.586.488-.391.39.488-.097 3.215-.781 4.094-.976 1.168-.196 3.41-.196 4.09 0 .293.097.781.39 1.074.683.488.391.586.586.586 1.071.098.586 0 .781-.195 1.074-.489.484-1.368.875-3.024 1.265-4.09.973-5.746 2.047-6.234 4.192-.196 1.168.293 2.14 1.461 3.117.972.68 1.558.973 4.289 2.047 3.703 1.559 4.285 2.047 3.312 3.215-.781.973-2.047.875-5.066-.098-1.852-.683-2.34-.781-3.219-.781-.973 0-1.461.195-2.043.781-.781.781-.586 2.047.485 4.192.585 1.363.878 1.754 2.828 4.968 3.117 4.97 3.894 6.82 3.41 7.989-.195.488-.977.78-1.656.585-1.172-.39-1.95-1.265-4.485-5.163-2.726-3.997-4.285-5.458-5.75-5.458-.582 0-1.265.489-1.754 1.266-.386.684-.972 2.633-1.558 5.457-1.168 6.043-1.754 7.895-2.825 8.672-.488.293-1.265.39-1.753.195m17.539-48.621c-.098-.097-.098-.488-.098-.879 0-1.558 1.266-3.801 2.437-4.383.778-.39 1.364-.293 2.141.387.488.488.488.684.488 1.172 0 1.168-1.07 2.434-2.726 3.313-.879.488-2.047.679-2.242.39"/><path d="M308.457-115.633c-.488-.097-1.367-.68-1.852-1.265-1.074-1.168-2.144-3.118-2.828-5.262-.293-.977-.386-1.363-.386-2.926 0-1.461.093-1.754.289-2.141.586-1.171 1.172-1.558 2.633-1.558.875 0 1.167.097 1.851.484 2.145 1.074 3.41 3.508 3.41 6.918 0 2.926-.781 5.07-2.047 5.653-.488.195-.586.195-1.07.097m-22.316 19.781c-2.239-.78-4.09-3.214-3.118-4.289.586-.582 2.145-.582 3.411-.097 1.656.781 2.921 2.73 2.339 3.8-.293.586-1.656.88-2.632.586m51.156.293c-1.461-.195-3.117-.976-3.992-1.949-.586-.683-.782-1.265-.684-2.144.098-.586.391-1.071 1.168-1.559 1.656-1.07 4.875-.586 6.434.973.972.976 1.363 2.632.875 3.605-.387.88-2.047 1.27-3.801 1.074m-.387 16.856c-1.074-.293-1.949-1.168-2.633-2.629-.488-1.074-.586-2.047-.097-2.34 1.265-.875 4.386 1.461 4.773 3.508 0 .293-.098.488-.289.879q-.587.874-1.754.582m-32.449 6.723c-.488-.29-.781-.876-.684-1.56.098-.581.782-1.85 1.27-2.433.484-.39 1.266-.78 1.656-.586.777.391 1.266 2.438.68 3.606-.293.875-.875 1.168-1.852 1.168-.386 0-.875-.098-1.07-.196m17.344 2.341c-.684-.587-1.461-2.727-1.266-3.9.195-.679.582-.972 1.461-.776 1.363.39 2.535 1.265 2.73 2.335.094.391-.097 1.075-.585 1.754-.782.977-1.657 1.172-2.34.586M198.09-124.578c-.582-.293-1.168-.879-1.461-1.656-.293-.879-.391-4.289-.098-7.02.098-1.168.196-2.824.098-3.699 0-1.461 0-1.852-.293-2.438-.293-.679-.875-1.168-1.363-1.168-.782 0-1.95.778-4.578 3.215-1.856 1.656-3.415 2.922-4.29 3.508-1.851.973-3.41 1.266-4.675.684-.782-.293-1.66-1.172-1.754-1.754-.293-1.074.387-2.34 2.433-4.582 2.829-2.922 3.801-4.383 4.192-6.141.195-.973.097-2.238-.293-2.726-.684-.875-1.754-.391-4.289 2.046-3.504 3.313-4.383 3.801-5.164 2.922-.485-.582-.68-1.461-.582-2.433.097-2.243 1.949-4.289 6.234-7.211.781-.489 1.559-1.074 1.656-1.168.489-.586.196-1.27-.777-1.856a66 66 0 0 0-2.633-1.07c-4.187-1.754-5.457-2.438-6.234-3.605-.293-.489-.391-.68-.293-1.266.097-2.047 1.754-2.535 5.457-1.656.972.195 2.629.586 3.605.781 4.09 1.07 6.039 1.168 7.114.191.293-.386.386-.582.386-.972 0-.782-.875-2.438-2.433-4.485-2.438-3.215-2.922-3.992-2.922-4.773 0-.391 0-.586.289-.778.781-.585 1.754 0 4.582 2.629 3.703 3.704 5.555 4.774 7.793 4.774 1.269 0 1.949-.195 2.633-.778 1.168-1.074 1.265-1.851 1.265-6.238 0-3.801.098-4.871.586-5.941.489-1.074 1.168-1.563 2.434-1.852 1.269-.195 2.144.098 2.535 1.168.293.586.293.781.293 4.969.098 4.871.195 5.652.973 7.406.39.875.976 1.656 1.367 1.656.289 0 1.168-1.07 2.433-2.921.684-1.075 1.461-2.145 1.657-2.243.879-.586 1.461-.097 1.949 1.364q.731 2.484-1.754 4.968c-.582.586-1.363 1.172-1.754 1.465-.391.289-.586.485-.391.391.489-.102 3.215-.781 4.094-.977 1.168-.195 3.41-.195 4.094 0 .293.098.777.391 1.07.684.489.387.586.582.586 1.07.098.586 0 .781-.195 1.071-.488.488-1.363.878-3.02 1.269-4.093.973-5.75 2.043-6.238 4.188-.195 1.171.293 2.144 1.461 3.121.977.679 1.559.972 4.289 2.043 3.703 1.558 4.285 2.047 3.313 3.214-.782.977-2.047.879-5.067-.093-1.851-.684-2.34-.782-3.215-.782-.976 0-1.465.196-2.047.782-.781.777-.585 2.043.489 4.187.582 1.364.875 1.754 2.824 4.973 3.117 4.969 3.898 6.816 3.41 7.988-.195.488-.976.778-1.656.582-1.168-.387-1.949-1.265-4.485-5.164-2.726-3.992-4.285-5.457-5.746-5.457-.586 0-1.269.488-1.754 1.27-.39.679-.976 2.629-1.558 5.457-1.172 6.039-1.758 7.89-2.828 8.672-.489.293-1.266.39-1.754.195m17.539-48.625c-.098-.098-.098-.485-.098-.875 0-1.559 1.27-3.801 2.438-4.387.777-.39 1.363-.293 2.144.391.489.488.489.683.489 1.168 0 1.172-1.075 2.437-2.731 3.312-.879.489-2.047.684-2.242.391"/><path d="M195.07-172.324c-.488-.098-1.363-.684-1.851-1.27-1.074-1.168-2.145-3.117-2.824-5.261-.293-.973-.391-1.364-.391-2.922 0-1.461.098-1.754.293-2.145.582-1.168 1.168-1.558 2.629-1.558.879 0 1.168.097 1.851.488 2.145 1.07 3.411 3.508 3.411 6.918 0 2.922-.778 5.066-2.047 5.652-.485.195-.582.195-1.071.098m-22.312 19.777c-2.242-.777-4.094-3.215-3.121-4.285.586-.586 2.144-.586 3.41-.098 1.656.782 2.926 2.731 2.34 3.801-.293.582-1.657.875-2.629.582m51.156.293c-1.465-.191-3.121-.973-3.996-1.945-.586-.684-.781-1.27-.684-2.145.098-.586.391-1.074 1.172-1.558 1.657-1.075 4.871-.586 6.43.972.973.977 1.363 2.629.879 3.606-.391.879-2.051 1.265-3.801 1.07m-.391 16.859q-1.61-.438-2.632-2.632c-.485-1.071-.582-2.043-.098-2.336 1.27-.879 4.387 1.461 4.777 3.508 0 .292-.097.484-.293.875q-.586.878-1.754.585m-32.449 6.723c-.484-.293-.777-.879-.679-1.558.093-.586.777-1.852 1.265-2.438.485-.391 1.266-.777 1.656-.586.778.391 1.266 2.438.68 3.609-.289.875-.875 1.168-1.851 1.168-.387 0-.875-.097-1.071-.195m17.344 2.34c-.68-.586-1.461-2.731-1.266-3.898.196-.684.586-.973 1.461-.782 1.367.391 2.535 1.27 2.731 2.34.097.391-.098 1.07-.586 1.754-.778.977-1.656 1.172-2.34.586m46.367 1.754c-.586-.293-1.172-.879-1.465-1.656-.289-.879-.386-4.289-.093-7.02.093-1.168.191-2.824.093-3.699 0-1.461 0-1.852-.289-2.438-.293-.679-.879-1.168-1.367-1.168-.777 0-1.949.778-4.578 3.215-1.852 1.656-3.41 2.922-4.289 3.508-1.852.973-3.41 1.266-4.676.684-.781-.293-1.656-1.172-1.754-1.754-.293-1.074.391-2.34 2.438-4.582 2.824-2.922 3.8-4.383 4.187-6.141.196-.973.098-2.238-.293-2.726-.679-.875-1.754-.391-4.285 2.046-3.508 3.313-4.387 3.801-5.164 2.922-.488-.582-.684-1.461-.586-2.433.098-2.243 1.949-4.289 6.238-7.211.778-.489 1.559-1.074 1.657-1.168.484-.586.195-1.27-.782-1.856a63 63 0 0 0-2.632-1.07c-4.188-1.754-5.454-2.438-6.235-3.605-.293-.489-.39-.68-.293-1.266.098-2.047 1.754-2.535 5.457-1.656.977.195 2.633.586 3.606.781 4.093 1.07 6.043 1.168 7.113.191.293-.386.391-.582.391-.972 0-.782-.879-2.438-2.438-4.485-2.433-3.215-2.922-3.992-2.922-4.773 0-.391 0-.586.293-.778.778-.585 1.754 0 4.578 2.629 3.703 3.704 5.555 4.774 7.797 4.774 1.266 0 1.949-.195 2.629-.778 1.168-1.074 1.27-1.851 1.27-6.238 0-3.801.093-4.871.582-5.941.488-1.074 1.172-1.563 2.437-1.852 1.266-.195 2.145.098 2.531 1.168.293.586.293.781.293 4.969.098 4.871.196 5.652.977 7.406.391.875.973 1.656 1.363 1.656.293 0 1.168-1.07 2.438-2.921.679-1.075 1.461-2.145 1.652-2.243.879-.586 1.465-.097 1.949 1.364q.736 2.484-1.754 4.968c-.582.586-1.363 1.172-1.754 1.465-.386.289-.582.485-.386.391.484-.102 3.215-.781 4.09-.977 1.171-.195 3.41-.195 4.093 0 .293.098.782.391 1.075.684.484.387.582.582.582 1.07.097.586 0 .781-.196 1.071-.484.488-1.363.878-3.019 1.269-4.094.973-5.75 2.043-6.239 4.188-.191 1.171.293 2.144 1.465 3.121.973.679 1.559.972 4.285 2.043 3.704 1.558 4.29 2.047 3.313 3.214-.777.977-2.047.879-5.066-.093-1.852-.684-2.336-.782-3.215-.782-.973 0-1.461.196-2.047.782-.777.777-.582 2.043.488 4.187.586 1.364.875 1.754 2.824 4.973 3.118 4.969 3.899 6.816 3.411 7.988-.196.488-.973.778-1.657.582-1.168-.387-1.945-1.265-4.48-5.164-2.731-3.992-4.289-5.457-5.75-5.457-.586 0-1.266.488-1.754 1.27-.391.679-.973 2.629-1.559 5.457-1.168 6.039-1.754 7.89-2.824 8.672-.488.293-1.269.39-1.754.195m17.539-48.625c-.097-.098-.097-.485-.097-.875 0-1.559 1.265-3.801 2.433-4.387.781-.39 1.367-.293 2.145.391.488.488.488.683.488 1.168 0 1.172-1.074 2.437-2.73 3.312-.875.489-2.043.684-2.239.391"/><path d="M251.762-172.324c-.485-.098-1.364-.684-1.852-1.27-1.07-1.168-2.14-3.117-2.824-5.261-.293-.973-.391-1.364-.391-2.922 0-1.461.098-1.754.293-2.145.586-1.168 1.168-1.558 2.629-1.558.879 0 1.172.097 1.852.488 2.144 1.07 3.414 3.508 3.414 6.918 0 2.922-.781 5.066-2.047 5.652-.488.195-.586.195-1.074.098m-22.313 19.777c-2.242-.777-4.094-3.215-3.117-4.285.582-.586 2.145-.586 3.41-.098 1.656.782 2.922 2.731 2.336 3.801-.289.582-1.656.875-2.629.582m51.156.293c-1.46-.191-3.117-.973-3.996-1.945-.582-.684-.777-1.27-.679-2.145.097-.586.386-1.074 1.168-1.558 1.656-1.075 4.871-.586 6.429.972.977.977 1.368 2.629.879 3.606-.39.879-2.047 1.265-3.801 1.07m-.39 16.859c-1.07-.293-1.949-1.168-2.629-2.632-.488-1.071-.586-2.043-.098-2.336 1.266-.879 4.383 1.461 4.774 3.508 0 .292-.098.484-.293.875q-.585.878-1.754.585m-32.445 6.723c-.489-.293-.782-.879-.684-1.558.098-.586.777-1.852 1.266-2.438.488-.391 1.265-.777 1.656-.586.781.391 1.269 2.438.683 3.609-.293.875-.878 1.168-1.851 1.168-.391 0-.875-.097-1.07-.195m17.343 2.34c-.683-.586-1.461-2.731-1.269-3.898.195-.684.586-.973 1.465-.782 1.363.391 2.531 1.27 2.726 2.34.098.391-.097 1.07-.586 1.754-.777.977-1.656 1.172-2.336.586m46.364 1.754c-.586-.293-1.168-.879-1.461-1.656-.293-.879-.391-4.289-.098-7.02.098-1.168.195-2.824.098-3.699 0-1.461 0-1.852-.293-2.438-.293-.679-.879-1.168-1.364-1.168-.781 0-1.949.778-4.582 3.215-1.851 1.656-3.41 2.922-4.285 3.508-1.851.973-3.41 1.266-4.679.684-.778-.293-1.657-1.172-1.754-1.754-.289-1.074.39-2.34 2.437-4.582 2.824-2.922 3.801-4.383 4.192-6.141.195-.973.097-2.238-.293-2.726-.684-.875-1.754-.391-4.29 2.046-3.507 3.313-4.382 3.801-5.164 2.922-.488-.582-.679-1.461-.586-2.433.098-2.243 1.95-4.289 6.239-7.211.777-.489 1.558-1.074 1.656-1.168.488-.586.195-1.27-.781-1.856-.192-.093-1.364-.582-2.629-1.07-4.192-1.754-5.457-2.438-6.235-3.605-.292-.489-.39-.68-.292-1.266.097-2.047 1.753-2.535 5.457-1.656.972.195 2.628.586 3.601.781 4.094 1.07 6.043 1.168 7.113.191.293-.386.391-.582.391-.972 0-.782-.875-2.438-2.434-4.485-2.437-3.215-2.925-3.992-2.925-4.773 0-.391 0-.586.293-.778.781-.585 1.754 0 4.582 2.629 3.699 3.704 5.55 4.774 7.793 4.774 1.265 0 1.949-.195 2.632-.778 1.168-1.074 1.266-1.851 1.266-6.238 0-3.801.098-4.871.582-5.941.488-1.074 1.172-1.563 2.438-1.852 1.265-.195 2.144.098 2.535 1.168.293.586.293.781.293 4.969.097 4.871.191 5.652.972 7.406.391.875.977 1.656 1.364 1.656.293 0 1.172-1.07 2.437-2.921.684-1.075 1.461-2.145 1.656-2.243.875-.586 1.461-.097 1.95 1.364q.731 2.484-1.754 4.968c-.586.586-1.364 1.172-1.754 1.465-.391.289-.586.485-.391.391.488-.102 3.215-.781 4.094-.977 1.168-.195 3.41-.195 4.09 0 .293.098.781.391 1.074.684.488.387.586.582.586 1.07.098.586 0 .781-.195 1.071-.489.488-1.368.878-3.024 1.269-4.09.973-5.746 2.043-6.234 4.188-.196 1.171.293 2.144 1.461 3.121.972.679 1.558.972 4.289 2.043 3.703 1.558 4.285 2.047 3.312 3.214-.781.977-2.047.879-5.066-.093-1.852-.684-2.34-.782-3.219-.782-.973 0-1.461.196-2.043.782-.781.777-.586 2.043.485 4.187.585 1.364.878 1.754 2.828 4.973 3.117 4.969 3.894 6.816 3.41 7.988-.195.488-.977.778-1.656.582-1.172-.387-1.95-1.265-4.485-5.164-2.726-3.992-4.285-5.457-5.75-5.457-.582 0-1.265.488-1.754 1.27-.386.679-.972 2.629-1.558 5.457-1.168 6.039-1.754 7.89-2.825 8.672-.488.293-1.265.39-1.753.195m17.539-48.625c-.098-.098-.098-.485-.098-.875 0-1.559 1.266-3.801 2.437-4.387.778-.39 1.364-.293 2.141.391.488.488.488.683.488 1.168 0 1.172-1.07 2.437-2.726 3.312-.879.489-2.047.684-2.242.391"/><path d="M308.457-172.324c-.488-.098-1.367-.684-1.852-1.27-1.074-1.168-2.144-3.117-2.828-5.261-.293-.973-.386-1.364-.386-2.922 0-1.461.093-1.754.289-2.145.586-1.168 1.172-1.558 2.633-1.558.875 0 1.167.097 1.851.488 2.145 1.07 3.41 3.508 3.41 6.918 0 2.922-.781 5.066-2.047 5.652-.488.195-.586.195-1.07.098m-22.316 19.777c-2.239-.777-4.09-3.215-3.118-4.285.586-.586 2.145-.586 3.411-.098 1.656.782 2.921 2.731 2.339 3.801-.293.582-1.656.875-2.632.582m51.156.293c-1.461-.191-3.117-.973-3.992-1.945-.586-.684-.782-1.27-.684-2.145.098-.586.391-1.074 1.168-1.558 1.656-1.075 4.875-.586 6.434.972.972.977 1.363 2.629.875 3.606-.387.879-2.047 1.265-3.801 1.07m-.387 16.859c-1.074-.293-1.949-1.168-2.633-2.632-.488-1.071-.586-2.043-.097-2.336 1.265-.879 4.386 1.461 4.773 3.508 0 .292-.098.484-.289.875q-.587.878-1.754.585m-32.449 6.723c-.488-.293-.781-.879-.684-1.558.098-.586.782-1.852 1.27-2.438.484-.391 1.266-.777 1.656-.586.777.391 1.266 2.438.68 3.609-.293.875-.875 1.168-1.852 1.168-.386 0-.875-.097-1.07-.195m17.344 2.34c-.684-.586-1.461-2.731-1.266-3.898.195-.684.582-.973 1.461-.782 1.363.391 2.535 1.27 2.73 2.34.094.391-.097 1.07-.585 1.754-.782.977-1.657 1.172-2.34.586"/><path fill="#bf0000" d="M254.57-.137c-.797-.398-1.593-1.195-1.992-2.261-.398-1.196-.531-5.844-.133-9.567.133-1.594.266-3.851.133-5.047 0-1.996 0-2.527-.398-3.324-.399-.93-1.196-1.594-1.86-1.594-1.062 0-2.66 1.063-6.246 4.387-2.523 2.258-4.652 3.984-5.847 4.781-2.524 1.328-4.649 1.727-6.375.93-1.067-.398-2.262-1.594-2.395-2.39-.398-1.462.531-3.188 3.324-6.247 3.852-3.984 5.18-5.98 5.711-8.37.266-1.329.133-3.056-.398-3.72-.93-1.195-2.391-.53-5.848 2.79-4.781 4.519-5.976 5.183-7.039 3.988-.668-.801-.93-1.996-.797-3.325.129-3.054 2.656-5.847 8.504-9.831 1.063-.665 2.125-1.461 2.258-1.594.664-.797.266-1.727-1.063-2.524-.265-.136-1.863-.8-3.589-1.465-5.711-2.39-7.442-3.32-8.504-4.914-.399-.664-.532-.93-.399-1.726.133-2.793 2.395-3.457 7.442-2.262 1.328.266 3.586.797 4.918 1.063 5.578 1.465 8.238 1.597 9.699.265.398-.531.531-.797.531-1.328 0-1.062-1.195-3.32-3.32-6.11-3.324-4.386-3.989-5.449-3.989-6.511 0-.531 0-.797.399-1.062 1.062-.797 2.391 0 6.246 3.586 5.047 5.05 7.574 6.511 10.629 6.511 1.726 0 2.656-.265 3.59-1.062 1.593-1.461 1.726-2.528 1.726-8.504 0-5.184.133-6.645.797-8.106s1.594-2.125 3.32-2.527c1.731-.266 2.926.133 3.458 1.598.398.796.398 1.062.398 6.773.133 6.645.266 7.707 1.328 10.102.531 1.195 1.328 2.257 1.859 2.257.399 0 1.594-1.46 3.321-3.988.933-1.46 1.996-2.922 2.261-3.054 1.196-.797 1.993-.133 2.657 1.859q.996 3.392-2.391 6.777c-.797.797-1.859 1.594-2.391 1.992-.535.399-.8.664-.535.532.664-.133 4.387-1.063 5.582-1.328 1.594-.266 4.653-.266 5.582 0 .399.132 1.063.53 1.461.93.664.53.797.796.797 1.464.133.797 0 1.063-.265 1.461-.664.664-1.86 1.195-4.122 1.727-5.578 1.328-7.835 2.789-8.5 5.714-.265 1.594.399 2.922 1.993 4.25 1.328.93 2.125 1.328 5.843 2.79 5.051 2.128 5.848 2.792 4.52 4.386-1.063 1.328-2.789 1.195-6.91-.133-2.524-.93-3.188-1.062-4.387-1.062-1.324 0-1.992.265-2.789 1.062-1.062 1.063-.797 2.79.664 5.715.801 1.86 1.195 2.39 3.856 6.774 4.25 6.777 5.316 9.304 4.648 10.898-.266.664-1.328 1.063-2.258.797-1.594-.531-2.656-1.727-6.113-7.043-3.719-5.45-5.844-7.441-7.836-7.441-.801 0-1.731.664-2.395 1.726-.531.93-1.328 3.59-2.125 7.442-1.593 8.238-2.39 10.761-3.851 11.828-.668.398-1.731.53-2.395.265"/><path fill="#fff" d="M255.273-37.773c0-2.118.86-5.27 4.481-7.961 1.004-.75 1.934-1.86 1.934-3.727 0-2.187-1.504-4.875-6.665-4.875-3.875 0-5.988 2.512-5.988 4.805 0 1.289.969 1.578 1.504 1.578.609 0 1.473-.43 1.473-1.508 0-.824-.61-1.469-1.508-1.469-.215 0-.285 0-.356.035.79-1.863 2.868-2.722 4.766-2.722 4.051 0 4.051 2.617 4.051 3.976 0 2.118-.645 2.797-1.254 3.442-2.438 2.617-3.227 5.949-3.227 8.136v1.723c0 .645 0 .79.395.79.394 0 .394-.255.394-.9zm1.325 6.918c0-.934-.785-1.723-1.719-1.723a1.73 1.73 0 0 0-1.758 1.723c0 1.074.863 1.753 1.723 1.753a1.734 1.734 0 0 0 1.754-1.753"/><path d="M313.98-42.941c1.793-.965 4.411-2.614 4.411-5.625 0-3.121-3.012-5.27-6.309-5.27-3.551 0-6.344 2.617-6.344 5.879 0 1.219.356 2.438 1.364 3.656.39.465.429.5 2.937 2.258-3.476 1.613-5.269 4.012-5.269 6.629 0 3.8 3.621 6.168 7.277 6.168 3.976 0 7.312-2.942 7.312-6.703 0-3.657-2.582-5.27-5.379-6.992m-4.875-3.223c-.464-.324-1.898-1.258-1.898-3.012 0-2.332 2.438-3.8 4.84-3.8 2.582 0 4.875 1.863 4.875 4.445 0 2.187-1.578 3.941-3.656 5.09zm1.688 4.621 4.336 2.832c.934.61 2.582 1.723 2.582 3.906 0 2.727-2.762 4.59-5.629 4.59-3.047 0-5.664-2.222-5.664-5.2 0-2.792 2.043-5.054 4.375-6.128M203.02-97.133c0 8.461-3.762 10.219-5.915 10.219-.859 0-2.761-.11-3.656-1.363h.215c.25.07 1.539-.145 1.539-1.47 0-.788-.535-1.472-1.469-1.472-.929 0-1.504.61-1.504 1.543 0 2.223 1.793 3.73 4.911 3.73 4.48 0 8.816-4.769 8.816-12.546 0-9.645-4.012-12.047-7.168-12.047-3.941 0-7.418 3.301-7.418 8.031s3.332 7.957 6.918 7.957c2.652 0 4.016-1.933 4.731-3.761zm-4.59 1.867c-2.258 0-3.227-1.828-3.547-2.511-.574-1.36-.574-3.082-.574-4.696 0-2.007 0-3.726.933-5.195.645-.969 1.613-2.008 3.547-2.008 2.043 0 3.082 1.793 3.441 2.617.715 1.754.715 4.801.715 5.34 0 3.012-1.359 6.453-4.515 6.453m52.758-11.972c1.542.5 2.796.535 3.191.535 4.051 0 6.629-2.973 6.629-3.477 0-.14-.07-.324-.285-.324-.071 0-.145 0-.465.145a11.7 11.7 0 0 1-4.66.968c-2.368 0-4.051-.714-4.731-1.004-.254-.109-.324-.109-.359-.109-.289 0-.289.219-.289.789v10.649c0 .644 0 .859.429.859.18 0 .219-.035.575-.465 1.004-1.469 2.691-2.332 4.48-2.332 1.902 0 2.832 1.758 3.121 2.367.61 1.399.645 3.153.645 4.516s0 3.406-1.004 5.02c-.789 1.288-2.188 2.187-3.762 2.187a5.54 5.54 0 0 1-5.344-4.23c.18.07.395.105.575.105.609 0 1.578-.355 1.578-1.574 0-1.004-.684-1.578-1.578-1.578-.645 0-1.579.324-1.579 1.722 0 3.043 2.438 6.524 6.418 6.524 4.051 0 7.598-3.407 7.598-7.961 0-4.266-2.867-7.813-6.629-7.813-2.047 0-3.621.895-4.554 1.899z"/></g></svg>