<svg xmlns="http://www.w3.org/2000/svg" width="229pt" height="188pt" viewBox="0 -188 229 188"><g id="page1"><path fill="none" stroke="#000" stroke-linecap="round" stroke-linejoin="round" stroke-width="2" d="M1-16.105v-170.079h226.77v170.079z"/><path fill="#0000bf" d="M23.676-16.105H69.03V-47.66H23.676Z"/><path fill="none" stroke="#000" stroke-linecap="round" stroke-linejoin="round" stroke-width="2" d="M23.676-16.105V-47.66H69.03v31.554z"/><path fill="#0000bf" d="M91.707-16.105h45.356v-30.31H91.707Z"/><path fill="none" stroke="#000" stroke-linecap="round" stroke-linejoin="round" stroke-width="2" d="M91.707-16.105v-30.31h45.356v30.31z"/><path fill="#0000bf" d="M159.738-16.105h45.356v-148.219h-45.356Z"/><path fill="none" stroke="#000" stroke-linecap="round" stroke-linejoin="round" stroke-width="2" d="M159.738-16.105v-148.219h45.356v148.219z"/><path d="M86.59-168.043c-1.149 0-1.363 0-1.363-.809v-3.117c.324.449 1.058 1.149 2.203 1.149 2.062 0 3.87-1.739 3.87-4.051 0-2.274-1.683-4.027-3.636-4.027a3.16 3.16 0 0 0-2.473 1.199v-1.199l-2.488.195v.519c1.254 0 1.36.125 1.36.914v8.418c0 .809-.196.809-1.36.809v.52c.465-.04 1.43-.04 1.934-.04.52 0 1.488 0 1.953.04zm-1.363-8.672c0-.34 0-.359.199-.644a2.58 2.58 0 0 1 2.093-1.149c1.344 0 2.418 1.629 2.418 3.637 0 2.133-1.218 3.691-2.593 3.691a2.12 2.12 0 0 1-1.438-.574c-.41-.41-.68-.769-.68-1.269zm9.663 1.543c0-1.742.72-3.371 2.098-3.371.145 0 .18 0 .25.02-.144.07-.43.179-.43.664 0 .515.41.714.7.714.36 0 .715-.234.715-.714 0-.539-.48-1.039-1.254-1.039-1.524 0-2.04 1.644-2.149 1.984h-.02v-1.984l-2.398.195v.519c1.22 0 1.36.125 1.36 1.004v4.856c0 .804-.196.804-1.36.804v.52c.5-.035 1.489-.035 2.024-.035.484 0 1.754 0 2.168.035v-.52h-.36c-1.304 0-1.343-.199-1.343-.839zm7.028-6.863a.88.88 0 0 0-.879-.879.86.86 0 0 0-.859.859c0 .539.429.879.859.879a.874.874 0 0 0 .879-.859m-2.473 3.332v.519c1.149 0 1.309.106 1.309.985v4.875c0 .804-.199.804-1.363.804v.52c.5-.035 1.363-.035 1.882-.035.196 0 1.235 0 1.844.035v-.52c-1.164 0-1.234-.089-1.234-.789v-6.589zm17.102 3.351c0-1.668 0-2.168-.414-2.742-.52-.699-1.36-.804-1.969-.804-1.488 0-2.242 1.074-2.527 1.769-.25-1.379-1.219-1.769-2.348-1.769-1.738 0-2.418 1.484-2.562 1.843h-.016v-1.843l-2.438.195v.519c1.219 0 1.36.125 1.36 1.004v4.856c0 .804-.195.804-1.36.804v.52c.465-.035 1.434-.035 1.934-.035.52 0 1.488 0 1.953.035v-.52c-1.144 0-1.359 0-1.359-.804v-3.332c0-1.883 1.234-2.887 2.344-2.887 1.113 0 1.363.914 1.363 2.008v4.211c0 .804-.195.804-1.363.804v.52c.468-.035 1.433-.035 1.937-.035.52 0 1.484 0 1.953.035v-.52c-1.148 0-1.363 0-1.363-.804v-3.332c0-1.883 1.234-2.887 2.348-2.887 1.109 0 1.359.914 1.359 2.008v4.211c0 .804-.195.804-1.359.804v.52c.464-.035 1.433-.035 1.933-.035.52 0 1.488 0 1.953.035v-.52c-.894 0-1.343 0-1.359-.535zm8.668-.429c0-.969 0-1.688-.789-2.383-.625-.574-1.434-.828-2.223-.828-1.469 0-2.594.969-2.594 2.133 0 .519.34.769.75.769.43 0 .735-.301.735-.73 0-.735-.645-.735-.914-.735.414-.754 1.273-1.078 1.992-1.078.82 0 1.879.68 1.879 2.293v.719c-3.602.051-4.961 1.558-4.961 2.937 0 1.414 1.644 1.864 2.738 1.864 1.184 0 1.988-.719 2.328-1.578.074.843.629 1.488 1.399 1.488.375 0 1.414-.25 1.414-1.684v-1.004h-.391v1.004c0 1.02-.43 1.164-.683 1.164-.68 0-.68-.949-.68-1.218zm-1.164 2.254c0 1.757-1.309 2.347-2.078 2.347-.879 0-1.614-.644-1.614-1.504 0-2.363 3.047-2.582 3.692-2.617zm6.043-1.645c0-1.742.715-3.371 2.094-3.371.144 0 .179 0 .25.02-.141.07-.43.179-.43.664 0 .515.414.714.699.714.359 0 .715-.234.715-.714 0-.539-.481-1.039-1.25-1.039-1.524 0-2.043 1.644-2.152 1.984h-.016v-1.984l-2.402.195v.519c1.218 0 1.363.125 1.363 1.004v4.856c0 .804-.199.804-1.363.804v.52c.5-.035 1.488-.035 2.027-.035.48 0 1.754 0 2.164.035v-.52h-.355c-1.309 0-1.344-.199-1.344-.839zm6.922-6.863a.877.877 0 0 0-.875-.879.857.857 0 0 0-.86.859c0 .539.43.879.86.879a.87.87 0 0 0 .875-.859m-2.469 3.332v.519c1.144 0 1.305.106 1.305.985v4.875c0 .804-.196.804-1.36.804v.52c.5-.035 1.36-.035 1.879-.035.199 0 1.238 0 1.848.035v-.52c-1.164 0-1.239-.089-1.239-.789v-6.589zm11.113 3.547c.395 0 .43 0 .43-.34 0-1.809-.969-3.496-3.133-3.496-2.043 0-3.617 1.847-3.617 4.07 0 2.363 1.824 4.102 3.812 4.102 2.133 0 2.938-1.938 2.938-2.313 0-.105-.086-.18-.195-.18-.141 0-.18.09-.215.18-.465 1.504-1.668 1.918-2.418 1.918-.754 0-2.563-.504-2.563-3.601v-.34zm-4.941-.34c.14-2.813 1.719-3.137 2.219-3.137 1.917 0 2.027 2.528 2.042 3.137zM46.11-63.926v-.41h-4.317c-2.168 0-2.203-.234-2.277-.574h-.391l-.559 3.582h.395c.055-.32.215-1.434.45-1.629.144-.11 1.487-.11 1.737-.11h3.797l-1.898 2.723c-.484.7-2.293 3.64-2.293 7.008 0 .195 0 .914.734.914.754 0 .754-.7.754-.934v-.894c0-2.672.43-4.75 1.27-5.95zm2.492 4.891c0-4.531 2.207-5.246 3.171-5.246.645 0 1.29.195 1.633.734-.218 0-.898 0-.898.734 0 .391.27.735.734.735.45 0 .754-.27.754-.79 0-.933-.68-1.847-2.238-1.847-2.258 0-4.625 2.313-4.625 6.254 0 4.926 2.152 6.04 3.676 6.04 1.949 0 3.617-1.704 3.617-4.032 0-2.383-1.668-3.977-3.457-3.977-1.594 0-2.188 1.38-2.367 1.88zm2.207 6.129c-1.13 0-1.668-1.004-1.828-1.383-.16-.465-.34-1.344-.34-2.594 0-1.418.644-3.191 2.257-3.191.985 0 1.504.664 1.774 1.273.285.66.285 1.559.285 2.328 0 .914 0 1.72-.34 2.403-.449.86-1.094 1.164-1.808 1.164M30.523-5.922c-.14 0-.585 0-.585.492a.47.47 0 0 0 .492.489c.273 0 .5-.168.5-.512 0-.8-.836-1.375-1.801-1.375-1.399 0-2.512 1.242-2.512 2.746 0 1.531 1.149 2.7 2.5 2.7 1.574 0 1.934-1.43 1.934-1.54s-.082-.11-.121-.11c-.106 0-.117.04-.153.18-.261.852-.91 1.207-1.554 1.207-.73 0-1.696-.632-1.696-2.449 0-1.984 1.016-2.472 1.614-2.472.453 0 1.109.18 1.382.644m6.36 1.867c0-1.543-1.168-2.773-2.555-2.773-1.434 0-2.57 1.266-2.57 2.773 0 1.528 1.195 2.672 2.558 2.672 1.41 0 2.567-1.168 2.567-2.672m-2.555 2.41c-.441 0-.98-.19-1.328-.777-.32-.535-.332-1.242-.332-1.742 0-.453 0-1.184.371-1.719.332-.515.86-.707 1.277-.707.465 0 .965.215 1.29.68.37.55.37 1.305.37 1.746 0 .418 0 1.156-.312 1.719a1.55 1.55 0 0 1-1.336.8m4.867-2.64c0-1.156.477-2.246 1.399-2.246.093 0 .117 0 .168.011-.098.051-.29.122-.29.442 0 .348.278.48.465.48.243 0 .481-.156.481-.48 0-.356-.324-.692-.836-.692-1.016 0-1.363 1.098-1.434 1.329h-.011V-6.77l-1.602.133v.348c.813 0 .906.082.906.668v3.238c0 .535-.129.535-.906.535v.348c.332-.023.992-.023 1.348-.023.324 0 1.172 0 1.445.023v-.348h-.234c-.875 0-.899-.129-.899-.558zm4.602 0c0-1.156.476-2.246 1.398-2.246.094 0 .117 0 .164.011-.093.051-.285.122-.285.442 0 .348.274.48.465.48.238 0 .477-.156.477-.48 0-.356-.32-.692-.836-.692-1.016 0-1.36 1.098-1.434 1.329h-.012V-6.77l-1.601.133v.348c.812 0 .91.082.91.668v3.238c0 .535-.133.535-.91.535v.348c.336-.023.992-.023 1.351-.023.325 0 1.172 0 1.446.023v-.348h-.239c-.87 0-.894-.129-.894-.558zm7.18.012c.261 0 .285 0 .285-.227 0-1.207-.645-2.328-2.09-2.328-1.363 0-2.414 1.23-2.414 2.71 0 1.579 1.219 2.735 2.547 2.735 1.422 0 1.957-1.289 1.957-1.539 0-.07-.059-.117-.13-.117-.097 0-.12.059-.144.117-.308 1.004-1.113 1.277-1.613 1.277s-1.707-.332-1.707-2.402v-.226zM47.68-4.5c.093-1.875 1.144-2.09 1.48-2.09 1.278 0 1.352 1.684 1.363 2.09zm5.93-1.805h1.683v-.343h-1.684v-2.2h-.265c-.012 1.121-.442 2.27-1.528 2.305v.238h1.016v3.325c0 1.324.883 1.597 1.516 1.597.754 0 1.148-.738 1.148-1.597v-.684h-.262v.656c0 .863-.347 1.363-.812 1.363-.813 0-.813-1.109-.813-1.312zm4.5 0h1.683v-.343h-1.684v-2.2h-.265c-.012 1.121-.442 2.27-1.528 2.305v.238h1.016v3.325c0 1.324.883 1.597 1.516 1.597.754 0 1.148-.738 1.148-1.597v-.684h-.262v.656c0 .863-.347 1.363-.812 1.363-.813 0-.813-1.109-.813-1.312zm7.203 1.614c0-.645 0-1.122-.528-1.59a2.2 2.2 0 0 0-1.48-.547c-.98 0-1.735.644-1.735 1.422 0 .343.23.511.504.511a.47.47 0 0 0 .489-.488c0-.492-.43-.492-.61-.492.277-.5.852-.715 1.328-.715.547 0 1.254.453 1.254 1.527v.481c-2.402.035-3.308 1.039-3.308 1.957 0 .945 1.097 1.242 1.828 1.242.789 0 1.324-.476 1.554-1.047.047.559.414.989.93.989.25 0 .945-.168.945-1.121v-.672h-.265v.672c0 .68-.285.773-.453.773-.454 0-.454-.633-.454-.813zm-.778 1.507c0 1.168-.87 1.567-1.387 1.567-.586 0-1.074-.434-1.074-1.008 0-1.574 2.032-1.719 2.461-1.742zm49.574-59.543v-.41h-4.316c-2.168 0-2.203-.234-2.277-.574h-.395l-.555 3.582h.395c.055-.32.215-1.434.449-1.629.145-.11 1.488-.11 1.738-.11h3.797l-1.898 2.727c-.484.696-2.293 3.637-2.293 7.004 0 .196 0 .914.734.914.754 0 .754-.699.754-.933v-.895c0-2.668.43-4.746 1.27-5.949zm3.586 4.696c-.304.015-.375.035-.375.195 0 .18.09.18.414.18h.821c1.523 0 2.203 1.254 2.203 2.976 0 2.344-1.215 2.973-2.094 2.973-.859 0-2.328-.41-2.848-1.594.575.09 1.09-.234 1.09-.879 0-.52-.375-.879-.875-.879-.429 0-.898.254-.898.934 0 1.594 1.597 2.902 3.586 2.902 2.133 0 3.707-1.633 3.707-3.441 0-1.648-1.324-2.938-3.047-3.242 1.559-.446 2.562-1.754 2.562-3.153 0-1.418-1.468-2.457-3.207-2.457-1.789 0-3.117 1.094-3.117 2.403 0 .715.555.86.824.86.379 0 .805-.27.805-.806 0-.574-.426-.824-.82-.824-.11 0-.145 0-.199.016.679-1.215 2.367-1.215 2.453-1.215.593 0 1.758.27 1.758 2.023 0 .34-.055 1.344-.575 2.114-.535.789-1.144.843-1.629.86zM104.773-5.516c.11-.261.313-.773 1.079-.789v-.343c-.348.023-.516.023-.887.023-.25 0-.43 0-.981-.023v.343c.504.024.563.383.563.516 0 .11-.024.168-.082.312l-1.219 3.079-1.34-3.368c-.058-.168-.07-.168-.07-.226 0-.313.453-.313.668-.313v-.343a22 22 0 0 1-1.242.023c-.395 0-.418 0-1.145-.023v.343c.668 0 .785.051.93.422l1.711 4.274c.058.168.082.226.226.226.082 0 .153-.023.239-.226zm4.961-1.121v.348c.813 0 .907.082.907.668v2.137c0 1.015-.539 1.867-1.434 1.867-.98 0-1.039-.563-1.039-1.195V-6.77l-1.684.133v.348c.907 0 .907.035.907 1.098v1.793c0 .738 0 1.171.355 1.562.289.313.777.453 1.387.453.207 0 .586 0 .996-.344.344-.273.535-.73.535-.73v1.074l1.66-.117v-.348c-.812 0-.906-.082-.906-.668V-6.77zm8.352 2.582c0-1.543-1.172-2.773-2.559-2.773-1.433 0-2.57 1.266-2.57 2.773 0 1.528 1.195 2.672 2.559 2.672 1.41 0 2.57-1.168 2.57-2.672m-2.559 2.41c-.441 0-.98-.19-1.324-.777-.324-.535-.336-1.242-.336-1.742 0-.453 0-1.184.371-1.719.332-.515.86-.707 1.278-.707.464 0 .968.215 1.289.68.371.55.371 1.305.371 1.746 0 .418 0 1.156-.309 1.719-.336.574-.887.8-1.34.8m4.879-4.66h1.688v-.343h-1.688v-2.2h-.261c-.012 1.121-.442 2.27-1.528 2.305v.238h1.016v3.325c0 1.324.883 1.597 1.515 1.597.754 0 1.149-.738 1.149-1.597v-.684h-.266v.656c0 .863-.343 1.363-.812 1.363-.813 0-.813-1.109-.813-1.312zm7.207 1.614c0-.645 0-1.122-.527-1.59a2.2 2.2 0 0 0-1.481-.547c-.98 0-1.734.644-1.734 1.422 0 .343.231.511.5.511a.47.47 0 0 0 .492-.488c0-.492-.429-.492-.609-.492.277-.5.848-.715 1.328-.715.547 0 1.254.453 1.254 1.527v.481c-2.402.035-3.313 1.039-3.313 1.957 0 .945 1.102 1.242 1.829 1.242a1.63 1.63 0 0 0 1.554-1.047c.047.559.418.989.934.989.25 0 .941-.168.941-1.121v-.672h-.261v.672c0 .68-.286.773-.454.773-.453 0-.453-.633-.453-.813zm-.777 1.507c0 1.168-.871 1.567-1.387 1.567-.586 0-1.078-.434-1.078-1.008 0-1.574 2.035-1.719 2.465-1.742z"/><path fill="#fff" d="M172.496-90.832c-.305.02-.375.035-.375.2 0 .179.09.179.41.179h.824c1.524 0 2.204 1.25 2.204 2.972 0 2.348-1.215 2.973-2.094 2.973-.863 0-2.332-.41-2.848-1.594.571.09 1.09-.234 1.09-.879 0-.519-.375-.878-.879-.878-.43 0-.894.253-.894.933 0 1.594 1.597 2.903 3.582 2.903 2.132 0 3.711-1.633 3.711-3.442 0-1.644-1.329-2.937-3.047-3.242 1.558-.445 2.562-1.754 2.562-3.152 0-1.414-1.469-2.454-3.207-2.454-1.793 0-3.117 1.094-3.117 2.399 0 .719.555.86.824.86.375 0 .805-.266.805-.805 0-.575-.43-.825-.82-.825-.11 0-.145 0-.2.02.68-1.219 2.364-1.219 2.453-1.219.594 0 1.758.27 1.758 2.024 0 .34-.054 1.343-.574 2.113-.535.789-1.148.844-1.629.863zm7.797-3.832c.77.25 1.398.266 1.594.266 2.027 0 3.316-1.485 3.316-1.735 0-.074-.039-.164-.144-.164-.036 0-.071 0-.235.074a5.86 5.86 0 0 1-4.691-.02c-.125-.054-.164-.054-.18-.054-.144 0-.144.11-.144.395v5.32c0 .324 0 .434.214.434.09 0 .11-.02.29-.235a2.7 2.7 0 0 1 2.238-1.164c.949 0 1.414.875 1.558 1.18.305.699.321 1.578.321 2.258s0 1.703-.5 2.507c-.395.649-1.09 1.094-1.883 1.094a2.77 2.77 0 0 1-2.668-2.113c.09.035.199.055.285.055.305 0 .789-.18.789-.79 0-.503-.34-.788-.789-.788-.32 0-.785.16-.785.859 0 1.523 1.215 3.262 3.207 3.262 2.023 0 3.797-1.704 3.797-3.977 0-2.133-1.434-3.906-3.313-3.906-1.023 0-1.812.449-2.277.949zm15.016-.859v-.415h-4.317c-2.168 0-2.203-.234-2.273-.574h-.395l-.558 3.582h.394c.055-.32.219-1.43.449-1.629.145-.105 1.489-.105 1.739-.105h3.797l-1.899 2.723c-.484.699-2.293 3.636-2.293 7.004 0 .195 0 .914.735.914.753 0 .753-.7.753-.93v-.899c0-2.667.43-4.746 1.274-5.945z"/><path d="M163.82-6.555c0-.215 0-.273-.121-.273-.094 0-.32.262-.406.371-.371-.3-.738-.371-1.121-.371-1.445 0-1.879.789-1.879 1.445 0 .133 0 .551.453.969.387.332.793.418 1.34.523.656.133.812.168 1.113.407a1 1 0 0 1 .371.777c0 .512-.3 1.09-1.351 1.09-.789 0-1.364-.457-1.625-1.653-.047-.214-.047-.226-.063-.238-.023-.047-.07-.047-.105-.047-.133 0-.133.059-.133.274v1.625c0 .215 0 .273.121.273.059 0 .07-.008.274-.262.058-.082.058-.105.242-.296.453.558 1.097.558 1.3.558 1.254 0 1.875-.691 1.875-1.633 0-.648-.394-1.03-.5-1.136-.433-.371-.753-.442-1.542-.586-.36-.07-1.231-.239-1.231-.957 0-.367.25-.918 1.324-.918 1.305 0 1.375 1.11 1.399 1.48.015.098.097.098.133.098.132 0 .132-.063.132-.277zm5.106.633c-.145 0-.586 0-.586.492a.47.47 0 0 0 .488.489c.277 0 .504-.168.504-.512 0-.8-.836-1.375-1.805-1.375-1.398 0-2.507 1.242-2.507 2.746 0 1.531 1.144 2.7 2.496 2.7 1.578 0 1.937-1.43 1.937-1.54s-.086-.11-.121-.11c-.109 0-.117.04-.156.18-.262.852-.906 1.207-1.555 1.207-.726 0-1.695-.632-1.695-2.449 0-1.984 1.015-2.472 1.613-2.472.453 0 1.109.18 1.387.644m6.359 1.867c0-1.543-1.172-2.773-2.558-2.773-1.434 0-2.571 1.266-2.571 2.773 0 1.528 1.196 2.672 2.559 2.672 1.41 0 2.57-1.168 2.57-2.672m-2.558 2.41c-.442 0-.981-.19-1.325-.777-.324-.535-.336-1.242-.336-1.742 0-.453 0-1.184.372-1.719a1.53 1.53 0 0 1 1.277-.707c.465 0 .969.215 1.293.68.371.55.371 1.305.371 1.746 0 .418 0 1.156-.313 1.719a1.56 1.56 0 0 1-1.339.8m4.867-2.64c0-1.156.48-2.246 1.398-2.246a.6.6 0 0 1 .168.011c-.094.051-.289.122-.289.442 0 .348.277.48.469.48.238 0 .476-.156.476-.48 0-.356-.32-.692-.836-.692-1.015 0-1.363 1.098-1.433 1.329h-.012V-6.77l-1.601.133v.348c.812 0 .91.082.91.668v3.238c0 .535-.133.535-.91.535v.348c.336-.023.992-.023 1.351-.023.324 0 1.172 0 1.445.023v-.348h-.238c-.875 0-.898-.129-.898-.558zm4.601 0c0-1.156.477-2.246 1.399-2.246.094 0 .121 0 .168.011-.098.051-.289.122-.289.442 0 .348.273.48.465.48.242 0 .48-.156.48-.48 0-.356-.324-.692-.836-.692-1.016 0-1.363 1.098-1.434 1.329h-.011V-6.77l-1.602.133v.348c.813 0 .906.082.906.668v3.238c0 .535-.128.535-.906.535v.348c.332-.023.992-.023 1.348-.023.324 0 1.172 0 1.445.023v-.348h-.234c-.875 0-.899-.129-.899-.558zm7.082.012c.262 0 .286 0 .286-.227 0-1.207-.645-2.328-2.09-2.328-1.364 0-2.414 1.23-2.414 2.71 0 1.579 1.218 2.735 2.543 2.735 1.421 0 1.961-1.289 1.961-1.539 0-.07-.059-.117-.133-.117-.094 0-.117.059-.141.117-.312 1.004-1.113 1.277-1.613 1.277-.504 0-1.707-.332-1.707-2.402v-.226zm-3.3-.227c.097-1.875 1.148-2.09 1.484-2.09 1.277 0 1.352 1.684 1.359 2.09zm5.929-1.805h1.688v-.343h-1.688v-2.2h-.261c-.012 1.121-.442 2.27-1.528 2.305v.238h1.016v3.325c0 1.324.883 1.597 1.515 1.597.754 0 1.149-.738 1.149-1.597v-.684h-.266v.656c0 .863-.343 1.363-.812 1.363-.813 0-.813-1.109-.813-1.312zm4.602 0h1.683v-.343h-1.683v-2.2h-.266c-.008 1.121-.437 2.27-1.527 2.305v.238h1.015v3.325c0 1.324.887 1.597 1.516 1.597.758 0 1.149-.738 1.149-1.597v-.684h-.262v.656c0 .863-.348 1.363-.813 1.363-.812 0-.812-1.109-.812-1.312zm7.105 1.614c0-.645 0-1.122-.527-1.59a2.2 2.2 0 0 0-1.481-.547c-.98 0-1.734.644-1.734 1.422 0 .343.231.511.5.511a.47.47 0 0 0 .492-.488c0-.492-.429-.492-.609-.492.277-.5.848-.715 1.328-.715.547 0 1.254.453 1.254 1.527v.481c-2.402.035-3.313 1.039-3.313 1.957 0 .945 1.102 1.242 1.829 1.242a1.63 1.63 0 0 0 1.554-1.047c.047.559.418.989.934.989.25 0 .941-.168.941-1.121v-.672h-.261v.672c0 .68-.286.773-.454.773-.453 0-.453-.633-.453-.813zm-.777 1.507c0 1.168-.871 1.567-1.387 1.567-.586 0-1.078-.434-1.078-1.008 0-1.574 2.035-1.719 2.465-1.742z"/></g></svg>