<svg xmlns="http://www.w3.org/2000/svg" width="511pt" height="173pt" viewBox="0 -173 511 173"><g id="page1"><path fill="none" stroke="#000" stroke-linecap="round" stroke-linejoin="round" stroke-width="2" d="M170.328-1v-170.078h170.078V-1zm56.692 0v-170.078M283.715-1v-170.078M170.328-57.691h170.078m-170.078-56.696h170.078"/><path d="M202.84-41.133c0-.683 0-.863-.5-.863-.289 0-.395 0-.684.43l-10.789 16.742v1.039h9.43v3.262c0 1.324-.074 1.683-2.692 1.683h-.714v1.04c.824-.071 3.656-.071 4.66-.071s3.871 0 4.695.07v-1.039h-.719c-2.582 0-2.687-.36-2.687-1.683v-3.262h3.621v-1.04h-3.621zm-2.363 2.793v13.516h-8.711zm52.718 7.672c-.609.035-.754.07-.754.395 0 .359.18.359.825.359h1.648c3.051 0 4.41 2.508 4.41 5.95 0 4.694-2.437 5.948-4.191 5.948-1.723 0-4.66-.824-5.703-3.187 1.148.176 2.187-.469 2.187-1.758 0-1.039-.75-1.758-1.754-1.758-.859 0-1.793.504-1.793 1.864 0 3.19 3.188 5.808 7.168 5.808 4.266 0 7.418-3.262 7.418-6.883 0-3.297-2.648-5.879-6.09-6.488 3.118-.895 5.125-3.512 5.125-6.309 0-2.832-2.937-4.91-6.418-4.91-3.582 0-6.234 2.188-6.234 4.801 0 1.438 1.109 1.723 1.649 1.723.75 0 1.613-.54 1.613-1.614 0-1.148-.863-1.648-1.653-1.648-.21 0-.285 0-.39.035 1.359-2.437 4.73-2.437 4.91-2.437 1.184 0 3.512.539 3.512 4.05 0 .68-.11 2.688-1.149 4.23-1.074 1.579-2.293 1.685-3.261 1.72zm60.785-.074c1.793-.965 4.411-2.613 4.411-5.625 0-3.117-3.012-5.27-6.309-5.27-3.551 0-6.344 2.617-6.344 5.88 0 1.218.356 2.437 1.364 3.655.39.465.429.5 2.937 2.258-3.476 1.614-5.269 4.016-5.269 6.633 0 3.797 3.621 6.164 7.277 6.164 3.976 0 7.312-2.937 7.312-6.703 0-3.656-2.582-5.27-5.379-6.992m-4.875-3.223c-.464-.324-1.898-1.254-1.898-3.012 0-2.328 2.438-3.8 4.84-3.8 2.582 0 4.875 1.863 4.875 4.445 0 2.188-1.578 3.941-3.656 5.09zm1.688 4.621 4.336 2.832c.934.61 2.582 1.723 2.582 3.91 0 2.723-2.762 4.586-5.629 4.586-3.047 0-5.664-2.222-5.664-5.195 0-2.797 2.043-5.055 4.375-6.133M203.02-84.93c0 8.457-3.762 10.215-5.915 10.215-.859 0-2.761-.105-3.656-1.363h.215c.25.07 1.539-.14 1.539-1.469 0-.789-.535-1.469-1.469-1.469-.929 0-1.504.61-1.504 1.54 0 2.222 1.793 3.73 4.911 3.73 4.48 0 8.816-4.77 8.816-12.547 0-9.644-4.012-12.043-7.168-12.043-3.941 0-7.418 3.297-7.418 8.027s3.332 7.957 6.918 7.957c2.652 0 4.016-1.933 4.731-3.761zm-4.59 1.864c-2.258 0-3.227-1.828-3.547-2.512-.574-1.36-.574-3.082-.574-4.695 0-2.008 0-3.727.933-5.196.645-.969 1.613-2.008 3.547-2.008 2.043 0 3.082 1.793 3.441 2.618.715 1.757.715 4.804.715 5.34 0 3.011-1.359 6.453-4.515 6.453m52.758-11.974c1.542.5 2.796.54 3.191.54 4.051 0 6.629-2.977 6.629-3.477 0-.144-.07-.324-.285-.324-.071 0-.145 0-.465.145-2.008.86-3.727.965-4.66.965a11.7 11.7 0 0 1-4.731-1.004c-.254-.106-.324-.106-.359-.106-.289 0-.289.215-.289.79v10.644c0 .644 0 .86.429.86.18 0 .219-.036.575-.466 1.004-1.468 2.691-2.328 4.48-2.328 1.902 0 2.832 1.754 3.121 2.364.61 1.398.645 3.156.645 4.515 0 1.363 0 3.406-1.004 5.02-.789 1.293-2.188 2.187-3.762 2.187a5.54 5.54 0 0 1-5.344-4.23c.18.07.395.11.575.11.609 0 1.578-.36 1.578-1.58 0-1.003-.684-1.577-1.578-1.577-.645 0-1.579.324-1.579 1.723 0 3.042 2.438 6.523 6.418 6.523 4.051 0 7.598-3.406 7.598-7.957 0-4.266-2.867-7.816-6.629-7.816-2.047 0-3.621.894-4.554 1.902zm62.433-2.437c0-.824 0-.859-.715-.859-.859.969-2.652 2.293-6.343 2.293v1.04c.824 0 2.617 0 4.585-.934v18.68c0 1.288-.105 1.718-3.261 1.718h-1.11v1.039c.969-.07 4.446-.07 5.629-.07 1.184 0 4.621 0 5.59.07v-1.04h-1.109c-3.157 0-3.266-.429-3.266-1.718zm-107.949-39.746h-.789c-.11.61-.395 2.582-.75 3.157-.254.32-2.297.32-3.371.32h-6.633c.969-.824 3.156-3.117 4.086-3.977 5.449-5.019 7.457-6.882 7.457-10.433 0-4.121-3.262-6.883-7.418-6.883-4.16 0-6.598 3.551-6.598 6.633 0 1.828 1.578 1.828 1.684 1.828.754 0 1.687-.539 1.687-1.684 0-1.004-.683-1.683-1.687-1.683-.32 0-.395 0-.5.035.68-2.438 2.617-4.086 4.945-4.086 3.047 0 4.91 2.543 4.91 5.84 0 3.047-1.754 5.703-3.797 7.996l-7.242 8.097v.864h13.086zm57.957-16.238v-.824h-8.641c-4.34 0-4.41-.465-4.55-1.145h-.79l-1.113 7.168h.789c.106-.644.43-2.867.895-3.261.289-.215 2.976-.215 3.476-.215h7.602l-3.801 5.449c-.965 1.398-4.586 7.273-4.586 14.016 0 .39 0 1.828 1.469 1.828 1.504 0 1.504-1.399 1.504-1.868v-1.789c0-5.343.859-9.5 2.547-11.902zm44.082 9.789c0-9.07 4.406-10.504 6.344-10.504 1.289 0 2.578.395 3.261 1.469-.429 0-1.793 0-1.793 1.469 0 .789.54 1.472 1.469 1.472.899 0 1.504-.539 1.504-1.578 0-1.867-1.359-3.695-4.48-3.695-4.512 0-9.246 4.625-9.246 12.512 0 9.855 4.3 12.082 7.347 12.082 3.906 0 7.242-3.407 7.242-8.067 0-4.769-3.336-7.957-6.918-7.957-3.191 0-4.375 2.758-4.73 3.762zm4.406 12.258c-2.258 0-3.332-2.008-3.656-2.762-.32-.933-.68-2.687-.68-5.195 0-2.832 1.289-6.383 4.516-6.383 1.973 0 3.012 1.328 3.547 2.547.574 1.324.574 3.117.574 4.66 0 1.828 0 3.438-.68 4.801-.894 1.723-2.187 2.332-3.621 2.332"/></g></svg>