<svg xmlns="http://www.w3.org/2000/svg" width="901pt" height="70pt" viewBox="0 -70 901 70"><g id="page1"><path fill="none" stroke="#000" stroke-linecap="round" stroke-linejoin="round" d="M.5-11.094h899.73M.5-58.562h899.73M.5-11.094v-47.468m47.356 47.468v-47.468m47.351 47.468v-47.468m47.356 47.468v-47.468m47.355 47.468v-47.468m47.352 47.468v-47.468m47.355 47.468v-47.468m47.355 47.468v-47.468m47.356 47.468v-47.468m47.352 47.468v-47.468m47.355 47.468v-47.468m47.355 47.468v-47.468m47.356 47.468v-47.468m47.351 47.468v-47.468m47.356 47.468v-47.468m47.355 47.468v-47.468m47.356 47.468v-47.468m47.351 47.468v-47.468m47.356 47.468v-47.468m47.351 47.468v-47.468"/><path fill="#b8ebb8" d="M10.129-6.176h28.348l-6.758-32.219H16.887z"/><path fill="none" stroke="#060" stroke-linecap="round" stroke-linejoin="round" stroke-width=".5" d="M10.129-6.176h28.348l-6.758-32.219H16.887z"/><path fill="#fff" d="M21.422-6.176h5.133v-6.023h-5.133Z"/><path fill="none" stroke="#59a659" stroke-linecap="round" stroke-linejoin="round" stroke-width=".5" d="M21.422-6.176h5.133v-6.023h-5.133z"/><path fill="#fff" d="M14.406-11.543h4.453v-5.934h-4.453Z"/><path fill="none" stroke="#59a659" stroke-linecap="round" stroke-linejoin="round" stroke-width=".5" d="M14.406-11.543h4.453v-5.934h-4.453z"/><path fill="#fff" d="M18.203-16.914h3.125v-4.633h-3.125Z"/><path fill="none" stroke="#59a659" stroke-linecap="round" stroke-linejoin="round" stroke-width=".5" d="M18.203-16.914h3.125v-4.633h-3.125z"/><path fill="#fff" d="M17.41-22.285h5.043v-6.676H17.41Z"/><path fill="none" stroke="#59a659" stroke-linecap="round" stroke-linejoin="round" stroke-width=".5" d="M17.41-22.285h5.043v-6.676H17.41z"/><path fill="#fff" d="M16.75-27.652h4.418v-7.54H16.75Z"/><path fill="none" stroke="#59a659" stroke-linecap="round" stroke-linejoin="round" stroke-width=".5" d="M16.75-27.652h4.418v-7.54H16.75z"/><path fill="#fff" d="M21.617-33.023h2.942v-3.414h-2.942Z"/><path fill="none" stroke="#59a659" stroke-linecap="round" stroke-linejoin="round" stroke-width=".5" d="M21.617-33.023h2.942v-3.414h-2.942z"/><path fill="#b8b8eb" d="M57.484-6.176h28.344l-7.887-39.14h-12.57z"/><path fill="none" stroke="#006" stroke-linecap="round" stroke-linejoin="round" stroke-width=".5" d="M57.484-6.176h28.344l-7.887-39.14h-12.57zm14.172-39.14v-12.13"/><path fill="#006" d="M72.61-57.445a.954.954 0 0 0-1.907 0 .952.952 0 1 0 1.906 0"/><path fill="#fff" d="M68.598-6.176h3.5v-6.531h-3.5Z"/><path fill="none" stroke="#5959a6" stroke-linecap="round" stroke-linejoin="round" stroke-width=".5" d="M68.598-6.176h3.5v-6.531h-3.5z"/><path fill="#fff" d="M68.133-15.96h4.535v-5.981h-4.535Z"/><path fill="none" stroke="#5959a6" stroke-linecap="round" stroke-linejoin="round" stroke-width=".5" d="M68.133-15.96h4.535v-5.981h-4.535z"/><path fill="#fff" d="M64.703-25.746h4.043v-5.36h-4.043Z"/><path fill="none" stroke="#5959a6" stroke-linecap="round" stroke-linejoin="round" stroke-width=".5" d="M64.703-25.746h4.043v-5.36h-4.043z"/><path fill="#fff" d="M69.3-35.531h4.954v-9.692H69.3Z"/><path fill="none" stroke="#5959a6" stroke-linecap="round" stroke-linejoin="round" stroke-width=".5" d="M69.3-35.531h4.954v-9.692H69.3z"/><path fill="#ebded1" d="m152.902-6.426-1.8-8.226-.606-10.977-2.402-8.234-3.703-11.434-9.989 1.008-7.191 3.281-12.934 6.817-9.129 2.53-7.105 7.317-4.149 4.903-4.382 4.586-4.64 8.43z"/><path fill="none" stroke="#664d33" stroke-linecap="round" stroke-linejoin="round" d="m152.902-6.426-1.8-8.226-.606-10.977-2.402-8.234-3.703-11.434-9.989 1.008-7.191 3.281-12.934 6.817-9.129 2.53-7.105 7.317-4.149 4.903-4.382 4.586-4.64 8.43z"/><g fill="#ccbfb2"><path d="m134.645-9.125 5.464 2.648 1.262-12.101-8.691 3.824z"/><path d="m138.277-14.543 8.457-.953-3.578-1.418-3.269 2.645zm-35.648-3.988 7.992 2.449 2.649-8.828-12.153 1.492zm15.894-6.094 11.774 1.277L132.215-31 122-31.797z"/></g><path fill="none" stroke="#664d33" stroke-linecap="round" stroke-linejoin="round" d="M118.887-44.148c5.41-1.567 7.89-6.766 5.246-11-1.656-2.657-5.266-4.313-6.067-7.27-.781-2.883 1.336-5.758 4.774-6.48m2.848 24.75c4.285-.243 7.312-3.598 6.406-7.094-.574-2.196-2.793-3.989-2.672-6.262.117-2.21 2.332-3.945 4.992-3.902M108.68-44.148c2.242-2.172 1.644-5.493-1.258-7.024-1.82-.96-4.293-.914-5.777-2.246-1.45-1.297-1.391-3.324.128-4.562"/><path fill="gray" d="M118.848-20.418c4.222 0 6.093 2.965 6.093 5.16 0 2.688-2.359 5.207-5.937 5.207-4.059 0-5.895-2.195-5.895-2.765 0-.079.043-.16.086-.203.16-.286.282-.61.282-.977 0-.852-.649-1.621-1.625-1.621-.852 0-1.664.527-1.664 1.785 0 3.535 3.859 6.14 8.816 6.14 5.125 0 8.582-3.656 8.582-7.523 0-2.07-1.141-4.957-4.715-6.5 2.477-1.547 3.574-3.984 3.574-6.094 0-3.05-3.05-5.695-7.441-5.695-4.512 0-7.68 1.953-7.68 4.961 0 1.34 1.016 1.75 1.664 1.75.735 0 1.625-.57 1.625-1.672 0-.648-.324-1.015-.324-1.058 1.227-1.54 4.024-1.625 4.715-1.625 2.766 0 4.801 1.468 4.801 3.375 0 1.18-.778 4.554-5.043 4.836-1.504.082-2.153.164-2.317.164-.808.082-1.015.609-1.015 1.183 0 1.172.855 1.172 1.547 1.172z"/><path fill="none" stroke="#000" stroke-linecap="round" stroke-linejoin="round" d="M118.848-20.418c4.222 0 6.093 2.965 6.093 5.16 0 2.688-2.359 5.207-5.937 5.207-4.059 0-5.895-2.195-5.895-2.765 0-.079.043-.16.086-.203.16-.286.282-.61.282-.977 0-.852-.649-1.621-1.625-1.621-.852 0-1.664.527-1.664 1.785 0 3.535 3.859 6.14 8.816 6.14 5.125 0 8.582-3.656 8.582-7.523 0-2.07-1.141-4.957-4.715-6.5 2.477-1.547 3.574-3.984 3.574-6.094 0-3.05-3.05-5.695-7.441-5.695-4.512 0-7.68 1.953-7.68 4.961 0 1.34 1.016 1.75 1.664 1.75.735 0 1.625-.57 1.625-1.672 0-.648-.324-1.015-.324-1.058 1.227-1.54 4.024-1.625 4.715-1.625 2.766 0 4.801 1.468 4.801 3.375 0 1.18-.778 4.554-5.043 4.836-1.504.082-2.153.164-2.317.164-.808.082-1.015.609-1.015 1.183 0 1.172.855 1.172 1.547 1.172z"/><path fill="#ebded1" d="m200.258-6.426-5.758-9.867 2.816-3.871-4.394-10.68-3.297-5.91-13.055 1.664-11.082 1.356-8.328-1.54-9.328 4.118-3.922 6.797-5.711 3.476-3.125 6.754-2.847 7.703z"/><path fill="none" stroke="#664d33" stroke-linecap="round" stroke-linejoin="round" d="m200.258-6.426-5.758-9.867 2.816-3.871-4.394-10.68-3.297-5.91-13.055 1.664-11.082 1.356-8.328-1.54-9.328 4.118-3.922 6.797-5.711 3.476-3.125 6.754-2.847 7.703z"/><path fill="#ccbfb2" d="m175.238-8.273 3.7-1.274-3.754-3.945-2.731 1.969zm6.282-6.293 8.636 2.632-1.34-5.027-6.367 1.336zm-10.098-.289 3.851-2.922 5.457-2.84-10.746-.356zm-6.238-4.86 4.871 1.43-.149-2.832-5.984 1.316zm-20.438-5.242 7.906.496-2.922.875-1.957 1.156z"/><path fill="none" stroke="#664d33" stroke-linecap="round" stroke-linejoin="round" d="M166.238-39.621c5.539-1.223 8.485-6.254 6.231-10.64-1.41-2.755-4.86-4.63-5.391-7.633-.519-2.922 1.856-5.657 5.348-6.16m.617 24.433c4.281-.3 7.246-3.695 6.273-7.18-.613-2.187-2.863-3.949-2.785-6.222.078-2.215 2.258-3.977 4.918-3.97m-25.414 17.372c1.582-2.543.086-5.664-3.164-6.598-2.035-.586-4.426-.066-6.242-1.078-1.766-.988-2.27-2.969-1.129-4.465"/><path fill="gray" d="M167.664-31.594c0-.605 0-1.664-1.18-1.664-.691 0-.933.367-1.179.895-.77 1.746-2.11 3.898-4.27 4.066-.605.04-1.461.121-1.461 1.18 0 .687.406 1.172 1.305 1.172 2.273 0 4.023-1.707 4.144-1.785v17.433h-3.578c-.566 0-1.668 0-1.668 1.18s1.102 1.18 1.668 1.18h9.797c.567 0 1.664 0 1.664-1.18s-1.097-1.18-1.664-1.18h-3.578z"/><path fill="none" stroke="#000" stroke-linecap="round" stroke-linejoin="round" d="M167.664-31.594c0-.605 0-1.664-1.18-1.664-.691 0-.933.367-1.179.895-.77 1.746-2.11 3.898-4.27 4.066-.605.04-1.461.121-1.461 1.18 0 .687.406 1.172 1.305 1.172 2.273 0 4.023-1.707 4.144-1.785v17.433h-3.578c-.566 0-1.668 0-1.668 1.18s1.102 1.18 1.668 1.18h9.797c.567 0 1.664 0 1.664-1.18s-1.097-1.18-1.664-1.18h-3.578z"/><path fill="#ebb8eb" d="M199.547-6.176h28.348l-1.364-20.886h-25.625z"/><path fill="none" stroke="#606" stroke-linecap="round" stroke-linejoin="round" stroke-width=".5" d="M199.547-6.176h28.348l-1.364-20.886h-25.625z"/><path fill="#fff" d="M204.516-6.176h4.578v-5.844h-4.578Z"/><path fill="none" stroke="#a659a6" stroke-linecap="round" stroke-linejoin="round" stroke-width=".5" d="M204.516-6.176h4.578v-5.844h-4.578z"/><path fill="#fff" d="M203.449-16.617h3.098v-3.211h-3.098Z"/><path fill="none" stroke="#a659a6" stroke-linecap="round" stroke-linejoin="round" stroke-width=".5" d="M203.449-16.617h3.098v-3.211h-3.098z"/><path fill="#ebded1" d="m294.965-6.426-1.086-7.289L288-18.148l-3.906-6.422-3.008-7.567-8.184-4.46-12.586-2.028-11.168-.277-8.32-3.95-3.008 8.657-7.066 11.554-1.188 6.262-2.632 9.953z"/><path fill="none" stroke="#664d33" stroke-linecap="round" stroke-linejoin="round" d="m294.965-6.426-1.086-7.289L288-18.148l-3.906-6.422-3.008-7.567-8.184-4.46-12.586-2.028-11.168-.277-8.32-3.95-3.008 8.657-7.066 11.554-1.188 6.262-2.632 9.953z"/><path fill="#ccbfb2" d="m283.781-8.918 9.301-2.793-.148-1.988-8.586 2.46zm-29.906-5.93 5.117 4.434-.57-7.637-8.363 1.653zm-14.766-.262 9.461-.488-.32-6.117-7.797-.355zm27.95-4.273 10.402-.238-2.145-2.445-3.894-1.868zm-6.418-2.047 4.062-.43-2.781-2.808-5.18.324z"/><path fill="none" stroke="#664d33" stroke-linecap="round" stroke-linejoin="round" d="M260.949-43.164c4.989-2.34 6.324-7.824 2.824-11.602-2.195-2.367-6.101-3.465-7.519-6.257-1.379-2.723.094-5.864 3.32-7.086m8.18 24.945c4.293-.047 7.535-3.254 6.859-6.79-.422-2.218-2.519-4.108-2.25-6.37.266-2.207 2.59-3.836 5.242-3.672m-26.863 16.832c1.598-2.535.121-5.66-3.121-6.61-2.031-.593-4.426-.085-6.234-1.105-1.762-.996-2.25-2.977-1.102-4.469"/><path fill="gray" d="M264.645-16.879c.57-.488 4.679-3.984 4.679-8.496 0-4.629-3.824-7.883-8.902-7.883-4.719 0-7.848 3.535-7.848 6.953 0 1.707 1.426 1.828 1.668 1.828.731 0 1.621-.57 1.621-1.671 0-.77-.281-1.012-.48-1.18.566-2.152 2.433-3.574 4.793-3.574 3.453 0 6.5 1.992 6.5 5.527 0 3.172-2.399 5.613-4.59 7.52l-8.941 7.765c-.45.367-.571.485-.571.973 0 1.18 1.098 1.18 1.668 1.18h14.184c.898-.247.898-1.06.898-1.668v-.852c0-.734 0-1.668-1.304-1.668-1.344 0-1.344.855-1.344 1.828h-9.789z"/><path fill="none" stroke="#000" stroke-linecap="round" stroke-linejoin="round" d="M264.645-16.879c.57-.488 4.679-3.984 4.679-8.496 0-4.629-3.824-7.883-8.902-7.883-4.719 0-7.848 3.535-7.848 6.953 0 1.707 1.426 1.828 1.668 1.828.731 0 1.621-.57 1.621-1.671 0-.77-.281-1.012-.48-1.18.566-2.152 2.433-3.574 4.793-3.574 3.453 0 6.5 1.992 6.5 5.527 0 3.172-2.399 5.613-4.59 7.52l-8.941 7.765c-.45.367-.571.485-.571.973 0 1.18 1.098 1.18 1.668 1.18h14.184c.898-.247.898-1.06.898-1.668v-.852c0-.734 0-1.668-1.304-1.668-1.344 0-1.344.855-1.344 1.828h-9.789z"/><path fill="#ebb8b8" d="M294.254-6.176h28.348l-2.532-23.96h-23.285z"/><path fill="none" stroke="#600" stroke-linecap="round" stroke-linejoin="round" stroke-width=".5" d="M294.254-6.176h28.348l-2.532-23.96h-23.285z"/><path fill="#fff" d="M307.406-6.176h5.457V-16.66h-5.457Z"/><path fill="none" stroke="#a65959" stroke-linecap="round" stroke-linejoin="round" stroke-width=".5" d="M307.406-6.176h5.457V-16.66h-5.457z"/><path fill="#fff" d="M309.988-12.164h4.395v-8.473h-4.395Z"/><path fill="none" stroke="#a65959" stroke-linecap="round" stroke-linejoin="round" stroke-width=".5" d="M309.988-12.164h4.395v-8.473h-4.395z"/><path fill="#fff" d="M314.051-18.156h3.683v-5.145h-3.683Z"/><path fill="none" stroke="#a65959" stroke-linecap="round" stroke-linejoin="round" stroke-width=".5" d="M314.051-18.156h3.683v-5.145h-3.683z"/><path fill="#fff" d="M306.188-23.746h4.457v-6.39h-4.457Z"/><path fill="none" stroke="#a65959" stroke-linecap="round" stroke-linejoin="round" stroke-width=".5" d="M306.188-23.746h4.457v-6.39h-4.457z"/><path fill="#b8b8eb" d="M341.609-6.176h28.348l-8.109-26.238h-12.129z"/><path fill="none" stroke="#006" stroke-linecap="round" stroke-linejoin="round" stroke-width=".5" d="M341.609-6.176h28.348l-8.109-26.238h-12.129z"/><path fill="#fff" d="M345.695-6.176h3.45v-6.074h-3.45Z"/><path fill="none" stroke="#5959a6" stroke-linecap="round" stroke-linejoin="round" stroke-width=".5" d="M345.695-6.176h3.45v-6.074h-3.45z"/><path fill="#fff" d="M357.012-19.293h3.054v-5.738h-3.054Z"/><path fill="none" stroke="#5959a6" stroke-linecap="round" stroke-linejoin="round" stroke-width=".5" d="M357.012-19.293h3.054v-5.738h-3.054z"/><path fill="#ebb8b8" d="M388.965-6.176h28.344l-1.395-54.84h-25.555z"/><path fill="none" stroke="#600" stroke-linecap="round" stroke-linejoin="round" stroke-width=".5" d="M388.965-6.176h28.344l-1.395-54.84h-25.555zm14.172-54.84v-4.265"/><path fill="#600" d="M404.816-65.281a1.68 1.68 0 1 0-3.359 0 1.68 1.68 0 1 0 3.359 0"/><path fill="#fff" d="M401.648-6.176h5.391v-7.375h-5.391Z"/><path fill="none" stroke="#a65959" stroke-linecap="round" stroke-linejoin="round" stroke-width=".5" d="M401.648-6.176h5.391v-7.375h-5.391z"/><path fill="#fff" d="M398.148-19.883h4.34v-7.367h-4.34Z"/><path fill="none" stroke="#a65959" stroke-linecap="round" stroke-linejoin="round" stroke-width=".5" d="M398.148-19.883h4.34v-7.367h-4.34z"/><path fill="#fff" d="M406.781-33.594h2.953v-5.543h-2.953Z"/><path fill="none" stroke="#a65959" stroke-linecap="round" stroke-linejoin="round" stroke-width=".5" d="M406.781-33.594h2.953v-5.543h-2.953z"/><path fill="#fff" d="M398.77-47.305h3.05v-3.527h-3.05Z"/><path fill="none" stroke="#a65959" stroke-linecap="round" stroke-linejoin="round" stroke-width=".5" d="M398.77-47.305h3.05v-3.527h-3.05z"/><path fill="#b8b8eb" d="M436.316-6.176h28.348l1.469-21.66h-31.281z"/><path fill="none" stroke="#006" stroke-linecap="round" stroke-linejoin="round" stroke-width=".5" d="M436.316-6.176h28.348l1.469-21.66h-31.281zm14.176-21.66v-14.148"/><path fill="#006" d="M452.023-41.984c0-.848-.683-1.532-1.531-1.532s-1.531.684-1.531 1.532c0 .847.684 1.53 1.531 1.53.848 0 1.531-.683 1.531-1.53"/><path fill="#fff" d="M439.816-6.176H445v-5.969h-5.184Z"/><path fill="none" stroke="#5959a6" stroke-linecap="round" stroke-linejoin="round" stroke-width=".5" d="M439.816-6.176h5.188v-5.969h-5.188z"/><path fill="#fff" d="M456.168-13.394h3.816v-7.196h-3.816Z"/><path fill="none" stroke="#5959a6" stroke-linecap="round" stroke-linejoin="round" stroke-width=".5" d="M456.168-13.394h3.816v-7.196h-3.816z"/><path fill="#fff" d="M454.906-20.613h4.035v-4.864h-4.035Z"/><path fill="none" stroke="#5959a6" stroke-linecap="round" stroke-linejoin="round" stroke-width=".5" d="M454.906-20.613h4.035v-4.864h-4.035z"/><path fill="#b8ebb8" d="M483.672-6.176h28.348l-5.149-47.992h-18.055z"/><path fill="none" stroke="#060" stroke-linecap="round" stroke-linejoin="round" stroke-width=".5" d="M483.672-6.176h28.348l-5.149-47.992h-18.055zm14.172-47.992v-8.23"/><path fill="#060" d="M498.953-62.398a1.108 1.108 0 1 0-2.217-.002 1.108 1.108 0 0 0 2.217.002"/><path fill="#fff" d="M498.496-6.176h4.348v-5.523h-4.348Z"/><path fill="none" stroke="#59a659" stroke-linecap="round" stroke-linejoin="round" stroke-width=".5" d="M498.496-6.176h4.348v-5.523h-4.348z"/><path fill="#fff" d="M497.469-12.172h2.988v-5.015h-2.988Z"/><path fill="none" stroke="#59a659" stroke-linecap="round" stroke-linejoin="round" stroke-width=".5" d="M497.469-12.172h2.988v-5.015h-2.988z"/><path fill="#fff" d="M495.227-18.172h3.101v-5.027h-3.101Z"/><path fill="none" stroke="#59a659" stroke-linecap="round" stroke-linejoin="round" stroke-width=".5" d="M495.227-18.172h3.097v-5.027h-3.097z"/><path fill="#fff" d="M495.563-24.172h5.093v-5.95h-5.093Z"/><path fill="none" stroke="#59a659" stroke-linecap="round" stroke-linejoin="round" stroke-width=".5" d="M495.563-24.172h5.093v-5.95h-5.093z"/><path fill="#fff" d="M501.945-30.172h4.575v-6.613h-4.575Z"/><path fill="none" stroke="#59a659" stroke-linecap="round" stroke-linejoin="round" stroke-width=".5" d="M501.945-30.172h4.575v-6.613h-4.575z"/><path fill="#fff" d="M493.953-36.172h3.602v-5.215h-3.602Z"/><path fill="none" stroke="#59a659" stroke-linecap="round" stroke-linejoin="round" stroke-width=".5" d="M493.953-36.172h3.602v-5.215h-3.602z"/><path fill="#fff" d="M492.996-42.168h4.867v-7.164h-4.867Z"/><path fill="none" stroke="#59a659" stroke-linecap="round" stroke-linejoin="round" stroke-width=".5" d="M492.996-42.168h4.867v-7.164h-4.867z"/><path fill="#fff" d="M494.848-48.168h3.293v-3.617h-3.293Z"/><path fill="none" stroke="#59a659" stroke-linecap="round" stroke-linejoin="round" stroke-width=".5" d="M494.848-48.168h3.293v-3.617h-3.293z"/><path fill="#b8b8eb" d="M531.027-6.176h28.344l-4.16-21.832h-20.02z"/><path fill="none" stroke="#006" stroke-linecap="round" stroke-linejoin="round" stroke-width=".5" d="M531.027-6.176h28.344l-4.16-21.832h-20.02zm14.172-21.832v-12.87"/><path fill="#006" d="M546.746-40.879a1.548 1.548 0 1 0-3.095.002 1.548 1.548 0 0 0 3.095-.002"/><path fill="#fff" d="M544.512-6.176h2.863v-4.972h-2.863Z"/><path fill="none" stroke="#5959a6" stroke-linecap="round" stroke-linejoin="round" stroke-width=".5" d="M544.512-6.176h2.863v-4.972h-2.863z"/><path fill="#fff" d="M544.988-17.09h4.219v-4.242h-4.219Z"/><path fill="none" stroke="#5959a6" stroke-linecap="round" stroke-linejoin="round" stroke-width=".5" d="M544.988-17.09h4.219v-4.242h-4.219z"/><path fill="#b8ebb8" d="M578.383-6.176h28.344l-5.809-40.8h-16.727z"/><path fill="none" stroke="#060" stroke-linecap="round" stroke-linejoin="round" stroke-width=".5" d="M578.383-6.176h28.344l-5.809-40.8h-16.727z"/><path fill="#fff" d="M586.535-6.176h3.887v-6.586h-3.887Z"/><path fill="none" stroke="#59a659" stroke-linecap="round" stroke-linejoin="round" stroke-width=".5" d="M586.535-6.176h3.887v-6.586h-3.887z"/><path fill="#fff" d="M594.754-12.977h4.48v-7.878h-4.48Z"/><path fill="none" stroke="#59a659" stroke-linecap="round" stroke-linejoin="round" stroke-width=".5" d="M594.754-12.977h4.48v-7.878h-4.48z"/><path fill="#fff" d="M590.965-19.777h3.875v-5.02h-3.875Z"/><path fill="none" stroke="#59a659" stroke-linecap="round" stroke-linejoin="round" stroke-width=".5" d="M590.965-19.777h3.875v-5.02h-3.875z"/><path fill="#fff" d="M585.883-26.578h3.469v-4.168h-3.469Z"/><path fill="none" stroke="#59a659" stroke-linecap="round" stroke-linejoin="round" stroke-width=".5" d="M585.883-26.578h3.469v-4.168h-3.469z"/><path fill="#fff" d="M584.027-33.379h5.235v-8.223h-5.235Z"/><path fill="none" stroke="#59a659" stroke-linecap="round" stroke-linejoin="round" stroke-width=".5" d="M584.027-33.379h5.235v-8.223h-5.235z"/><path fill="#fff" d="M588.637-40.176h3.562v-4.218h-3.562Z"/><path fill="none" stroke="#59a659" stroke-linecap="round" stroke-linejoin="round" stroke-width=".5" d="M588.637-40.176h3.562v-4.218h-3.562z"/><path fill="#ebb8b8" d="M625.734-6.176h28.348l-.297-45.289h-27.754z"/><path fill="none" stroke="#600" stroke-linecap="round" stroke-linejoin="round" stroke-width=".5" d="M625.734-6.176h28.348l-.297-45.289h-27.754z"/><path fill="#fff" d="M630.801-6.176h5.164v-8.449h-5.164Z"/><path fill="none" stroke="#a65959" stroke-linecap="round" stroke-linejoin="round" stroke-width=".5" d="M630.801-6.176h5.164v-8.449h-5.164z"/><path fill="#fff" d="M633.922-17.496h3.84v-7.547h-3.84Z"/><path fill="none" stroke="#a65959" stroke-linecap="round" stroke-linejoin="round" stroke-width=".5" d="M633.922-17.496h3.84v-7.547h-3.84z"/><path fill="#fff" d="M627.883-28.82H632v-7.649h-4.117Z"/><path fill="none" stroke="#a65959" stroke-linecap="round" stroke-linejoin="round" stroke-width=".5" d="M627.883-28.82H632v-7.649h-4.117z"/><path fill="#fff" d="M633.965-40.14h3.762v-5.59h-3.762Z"/><path fill="none" stroke="#a65959" stroke-linecap="round" stroke-linejoin="round" stroke-width=".5" d="M633.965-40.14h3.762v-5.59h-3.762z"/><path fill="#ebb8b8" d="M673.09-6.176h28.348l-6.934-45.57H680.02z"/><path fill="none" stroke="#600" stroke-linecap="round" stroke-linejoin="round" stroke-width=".5" d="M673.09-6.176h28.348l-6.934-45.57H680.02z"/><path fill="#fff" d="M674.355-6.176h5.125v-8.258h-5.125Z"/><path fill="none" stroke="#a65959" stroke-linecap="round" stroke-linejoin="round" stroke-width=".5" d="M674.355-6.176h5.125v-8.258h-5.125z"/><path fill="#fff" d="M677.914-13.77h5.082v-6.667h-5.082Z"/><path fill="none" stroke="#a65959" stroke-linecap="round" stroke-linejoin="round" stroke-width=".5" d="M677.914-13.77h5.082v-6.667h-5.082z"/><path fill="#fff" d="M686.609-21.363h5.399v-6.875h-5.399Z"/><path fill="none" stroke="#a65959" stroke-linecap="round" stroke-linejoin="round" stroke-width=".5" d="M686.609-21.363h5.399v-6.875h-5.399z"/><path fill="#fff" d="M679.543-28.96h4.871v-8.165h-4.871Z"/><path fill="none" stroke="#a65959" stroke-linecap="round" stroke-linejoin="round" stroke-width=".5" d="M679.543-28.96h4.871v-8.165h-4.871z"/><path fill="#fff" d="M679.879-36.555h3.937v-6.898h-3.937Z"/><path fill="none" stroke="#a65959" stroke-linecap="round" stroke-linejoin="round" stroke-width=".5" d="M679.879-36.555h3.937v-6.898h-3.937z"/><path fill="#fff" d="M682.148-44.152h5.567v-7.325h-5.567Z"/><path fill="none" stroke="#a65959" stroke-linecap="round" stroke-linejoin="round" stroke-width=".5" d="M682.148-44.152h5.567v-7.32h-5.567z"/><path fill="#ebb8b8" d="M720.445-6.176h28.344l-5.363-29.09h-17.617z"/><path fill="none" stroke="#600" stroke-linecap="round" stroke-linejoin="round" stroke-width=".5" d="M720.445-6.176h28.344l-5.363-29.09h-17.617zm14.172-29.09v-8.992"/><path fill="#600" d="M736.27-44.258a1.654 1.654 0 1 0-3.307.002 1.654 1.654 0 0 0 3.307-.002"/><path fill="#fff" d="M722.777-6.176h2.942v-3.75h-2.942Z"/><path fill="none" stroke="#a65959" stroke-linecap="round" stroke-linejoin="round" stroke-width=".5" d="M722.777-6.176h2.942v-3.75h-2.942z"/><path fill="#fff" d="M732.141-9.812h4.152v-6.543h-4.152Z"/><path fill="none" stroke="#a65959" stroke-linecap="round" stroke-linejoin="round" stroke-width=".5" d="M732.141-9.812h4.152v-6.543h-4.152z"/><path fill="#fff" d="M732.73-13.45h3.196v-5.64h-3.196Z"/><path fill="none" stroke="#a65959" stroke-linecap="round" stroke-linejoin="round" stroke-width=".5" d="M732.73-13.45h3.196v-5.64h-3.196z"/><path fill="#fff" d="M734.797-17.082h3.887v-4.754h-3.887Z"/><path fill="none" stroke="#a65959" stroke-linecap="round" stroke-linejoin="round" stroke-width=".5" d="M734.797-17.082h3.887v-4.754h-3.887z"/><path fill="#fff" d="M737.328-20.719h4.891v-9.015h-4.891Z"/><path fill="none" stroke="#a65959" stroke-linecap="round" stroke-linejoin="round" stroke-width=".5" d="M737.328-20.719h4.891v-9.015h-4.891z"/><path fill="#fff" d="M735.445-24.355h3.016v-5.54h-3.016Z"/><path fill="none" stroke="#a65959" stroke-linecap="round" stroke-linejoin="round" stroke-width=".5" d="M735.445-24.355h3.016v-5.54h-3.016z"/><path fill="#fff" d="M733.16-27.992h5.02v-6.469h-5.02Z"/><path fill="none" stroke="#a65959" stroke-linecap="round" stroke-linejoin="round" stroke-width=".5" d="M733.16-27.992h5.02v-6.469h-5.02z"/><path fill="#fff" d="M727.645-29.328h5.07v-5.938h-5.07Z"/><path fill="none" stroke="#a65959" stroke-linecap="round" stroke-linejoin="round" stroke-width=".5" d="M727.645-29.328h5.07v-5.938h-5.07z"/><path fill="#ebded1" d="m815.863-6.426-1.453-4.426.61-11.62-5.844-4.415-.723-6.402-13.945-2.8-6.207-5.169-12.321-.355-14.234-2.219-6.652 10.582-3.457 6.645.386 11.324-4.191 8.855z"/><path fill="none" stroke="#664d33" stroke-linecap="round" stroke-linejoin="round" d="m815.863-6.426-1.453-4.426.61-11.62-5.844-4.415-.723-6.402-13.945-2.8-6.207-5.169-12.321-.355-14.234-2.219-6.652 10.582-3.457 6.645.386 11.324-4.191 8.855z"/><g fill="#ccbfb2"><path d="m751.133-9.082 9.078-2.492 2.457-2.633-13.105 2.902zm10.211-1.086 11.808-4.023 1.09 2.363-10.262-2.414zm14.465-5.542 4.058 2.343-1.211-4.942-5.105-1.097z"/><path d="m780.109-15.14 3.219-.57-1.707-4.974-5.836 3.465zm7.145-5.317 7.156 1.574-2.07-4.137-8.277.844zm13.441-.762 3.317-.101-.352-2.867-7.617-.665zm-38.019-3.289 8.57 4.238-1.766-7.23-10.375-1.8z"/><path d="m790.688-24.559 8.449 1.793.742-4.355-8.836.25z"/></g><path fill="none" stroke="#664d33" stroke-linecap="round" stroke-linejoin="round" d="M781.848-44.23c5.457-1.442 8.105-6.586 5.601-10.88-1.57-2.69-5.125-4.425-5.832-7.402-.687-2.898 1.524-5.726 4.985-6.37m2.046 24.652c4.282.289 7.872-2.657 7.594-6.227-.172-2.238-2.047-4.285-1.523-6.52.508-2.175 3.008-3.613 5.629-3.242M771.641-44.23c2.011-2.32 1.082-5.59-1.965-6.91-1.914-.829-4.371-.606-5.988-1.829-1.575-1.191-1.723-3.215-.333-4.558"/><path fill="gray" d="M785.543-16.879c.57-.488 4.676-3.984 4.676-8.496 0-4.629-3.821-7.883-8.903-7.883-4.714 0-7.843 3.535-7.843 6.953 0 1.707 1.425 1.828 1.668 1.828.73 0 1.621-.57 1.621-1.671 0-.77-.282-1.012-.485-1.18.571-2.152 2.438-3.574 4.797-3.574 3.453 0 6.5 1.992 6.5 5.527 0 3.172-2.398 5.613-4.594 7.52l-8.937 7.765c-.449.367-.57.485-.57.973 0 1.18 1.093 1.18 1.668 1.18h14.179c.899-.247.899-1.06.899-1.668v-.852c0-.734 0-1.668-1.301-1.668-1.344 0-1.344.855-1.344 1.828h-9.793z"/><path fill="none" stroke="#000" stroke-linecap="round" stroke-linejoin="round" d="M785.543-16.879c.57-.488 4.676-3.984 4.676-8.496 0-4.629-3.821-7.883-8.903-7.883-4.714 0-7.843 3.535-7.843 6.953 0 1.707 1.425 1.828 1.668 1.828.73 0 1.621-.57 1.621-1.671 0-.77-.282-1.012-.485-1.18.571-2.152 2.438-3.574 4.797-3.574 3.453 0 6.5 1.992 6.5 5.527 0 3.172-2.398 5.613-4.594 7.52l-8.937 7.765c-.449.367-.57.485-.57.973 0 1.18 1.093 1.18 1.668 1.18h14.179c.899-.247.899-1.06.899-1.668v-.852c0-.734 0-1.668-1.301-1.668-1.344 0-1.344.855-1.344 1.828h-9.793z"/><path fill="#ebb8b8" d="M815.152-6.176H843.5l-4.812-30.058h-18.723z"/><path fill="none" stroke="#600" stroke-linecap="round" stroke-linejoin="round" stroke-width=".5" d="M815.152-6.176H843.5l-4.812-30.058h-18.723zm14.172-30.058v-3.614"/><path fill="#600" d="M830.926-39.848c0-.883-.715-1.597-1.602-1.597a1.6 1.6 0 1 0 1.602 1.598"/><path fill="#fff" d="M818.531-6.176h5.063v-6.308h-5.063Z"/><path fill="none" stroke="#a65959" stroke-linecap="round" stroke-linejoin="round" stroke-width=".5" d="M818.531-6.176h5.063v-6.308h-5.063z"/><path fill="#fff" d="M817.352-11.184h4.843v-6.722h-4.843Z"/><path fill="none" stroke="#a65959" stroke-linecap="round" stroke-linejoin="round" stroke-width=".5" d="M817.352-11.184h4.843v-6.722h-4.843z"/><path fill="#fff" d="M818.855-16.195h3.266v-3.555h-3.266Z"/><path fill="none" stroke="#a65959" stroke-linecap="round" stroke-linejoin="round" stroke-width=".5" d="M818.855-16.195h3.266v-3.559h-3.266z"/><path fill="#fff" d="M825.844-21.203h3.937v-5.703h-3.937Z"/><path fill="none" stroke="#a65959" stroke-linecap="round" stroke-linejoin="round" stroke-width=".5" d="M825.844-21.203h3.937v-5.703h-3.937z"/><path fill="#fff" d="M819.418-26.215h3.953v-4.773h-3.953Z"/><path fill="none" stroke="#a65959" stroke-linecap="round" stroke-linejoin="round" stroke-width=".5" d="M819.418-26.215h3.953v-4.773h-3.953z"/><path fill="#fff" d="M824.707-28.922h5.313v-7.312h-5.313Z"/><path fill="none" stroke="#a65959" stroke-linecap="round" stroke-linejoin="round" stroke-width=".5" d="M824.707-28.922h5.313v-7.312h-5.313z"/><path fill="#ebd1b8" d="M862.508-6.176h28.347l1.579-34.597H860.93z"/><path fill="none" stroke="#630" stroke-linecap="round" stroke-linejoin="round" stroke-width=".5" d="M862.508-6.176h28.347l1.579-34.597H860.93zm14.172-34.597v-4.86"/><path fill="#630" d="M877.777-45.633a1.095 1.095 0 1 0-2.19.003 1.095 1.095 0 0 0 2.19-.003"/><path fill="#fff" d="M872.27-6.176h4.992v-8.539h-4.992Z"/><path fill="none" stroke="#a68059" stroke-linecap="round" stroke-linejoin="round" stroke-width=".5" d="M872.27-6.176h4.992v-8.539h-4.992z"/><path fill="#fff" d="M863.949-10.5h4.039v-7.758h-4.039Z"/><path fill="none" stroke="#a68059" stroke-linecap="round" stroke-linejoin="round" stroke-width=".5" d="M863.949-10.5h4.039v-7.758h-4.039z"/><path fill="#fff" d="M876.254-14.824h3.461v-4.016h-3.461Z"/><path fill="none" stroke="#a68059" stroke-linecap="round" stroke-linejoin="round" stroke-width=".5" d="M876.254-14.824h3.461v-4.016h-3.461z"/><path fill="#fff" d="M874.84-19.148h5.539v-6.336h-5.539Z"/><path fill="none" stroke="#a68059" stroke-linecap="round" stroke-linejoin="round" stroke-width=".5" d="M874.84-19.148h5.539v-6.336h-5.539z"/><path fill="#fff" d="M873.535-23.473h5.07v-8.125h-5.07Z"/><path fill="none" stroke="#a68059" stroke-linecap="round" stroke-linejoin="round" stroke-width=".5" d="M873.535-23.473h5.07v-8.125h-5.07z"/><path fill="#fff" d="M881.227-27.797h2.996v-4.86h-2.996Z"/><path fill="none" stroke="#a68059" stroke-linecap="round" stroke-linejoin="round" stroke-width=".5" d="M881.227-27.797h2.996v-4.86h-2.996z"/><path fill="#fff" d="M877.91-30.57h5.613v-10.203h-5.613Z"/><path fill="none" stroke="#a68059" stroke-linecap="round" stroke-linejoin="round" stroke-width=".5" d="M877.91-30.57h5.613v-10.203h-5.613z"/><path fill="#fff" d="M882.996-32.848h4.43v-7.925h-4.43Z"/><path fill="none" stroke="#a68059" stroke-linecap="round" stroke-linejoin="round" stroke-width=".5" d="M882.996-32.848h4.43v-7.925h-4.43z"/></g></svg>