<svg xmlns="http://www.w3.org/2000/svg" width="572" height="444" viewBox="0 -333 429 333"><g id="page1"><path fill="#ffd9b2" d="M10.004-130.004h5.953c1.633 0 3.2.652 4.355 1.805l4.895 4.898a2.554 2.554 0 0 0 3.61 0l4.894-4.898a6.17 6.17 0 0 1 4.355-1.805h67.766a2.55 2.55 0 0 0 2.551-2.551v-47.644a2.55 2.55 0 0 0-2.551-2.551H38.066a6.16 6.16 0 0 0-4.355 1.805l-4.895 4.894a2.554 2.554 0 0 1-3.609 0l-4.895-4.894a6.16 6.16 0 0 0-4.355-1.805H4.051a2.55 2.55 0 0 0-2.551 2.551v47.644a2.55 2.55 0 0 0 2.55 2.551z"/><path fill="none" stroke="#b25900" stroke-linecap="round" stroke-linejoin="round" stroke-width="3" d="M10.004-130.004h5.953c1.633 0 3.2.652 4.355 1.805l4.895 4.898a2.554 2.554 0 0 0 3.61 0l4.894-4.898a6.17 6.17 0 0 1 4.355-1.805h67.766a2.55 2.55 0 0 0 2.551-2.551v-47.644a2.55 2.55 0 0 0-2.551-2.551H38.066a6.16 6.16 0 0 0-4.355 1.805l-4.895 4.894a2.554 2.554 0 0 1-3.609 0l-4.895-4.894a6.16 6.16 0 0 0-4.355-1.805H4.051a2.55 2.55 0 0 0-2.551 2.551v47.644a2.55 2.55 0 0 0 2.55 2.551z"/><path fill="#b2ffff" d="M1.5-185.695h14.457c1.633 0 3.2.648 4.355 1.804l4.895 4.895a2.554 2.554 0 0 0 3.61 0l4.894-4.895a6.16 6.16 0 0 1 4.355-1.804h70.317v-52.746c-15.625-11.067-34.297-17.008-53.442-17.008S17.125-249.508 1.5-238.441z"/><path fill="none" stroke="#00b2b2" stroke-linecap="round" stroke-linejoin="round" stroke-width="3" d="M1.5-185.695h14.457c1.633 0 3.2.648 4.355 1.804l4.895 4.895a2.554 2.554 0 0 0 3.61 0l4.894-4.895a6.16 6.16 0 0 1 4.355-1.804h70.317v-52.746c-15.625-11.067-34.297-17.008-53.442-17.008S17.125-249.508 1.5-238.441z"/><path fill="#ffffb2" d="M153.738-110.27h5.953c1.633 0 3.2.653 4.356 1.805l4.894 4.899a2.554 2.554 0 0 0 3.61 0l4.894-4.899a6.18 6.18 0 0 1 4.356-1.805h234.101a2.55 2.55 0 0 0 2.551-2.55v-142.91a2.55 2.55 0 0 0-2.551-2.551H181.801a6.16 6.16 0 0 0-4.356 1.804l-4.894 4.895a2.554 2.554 0 0 1-3.61 0l-4.894-4.895a6.16 6.16 0 0 0-4.356-1.804h-11.906a2.55 2.55 0 0 0-2.551 2.551v142.91c0 1.41 1.141 2.55 2.551 2.55z"/><path fill="none" stroke="#b2b200" stroke-linecap="round" stroke-linejoin="round" stroke-width="3" d="M153.738-110.27h5.953c1.633 0 3.2.653 4.356 1.805l4.894 4.899a2.554 2.554 0 0 0 3.61 0l4.894-4.899a6.18 6.18 0 0 1 4.356-1.805h234.101a2.55 2.55 0 0 0 2.551-2.55v-142.91a2.55 2.55 0 0 0-2.551-2.551H181.801a6.16 6.16 0 0 0-4.356 1.804l-4.894 4.895a2.554 2.554 0 0 1-3.61 0l-4.894-4.895a6.16 6.16 0 0 0-4.356-1.804h-11.906a2.55 2.55 0 0 0-2.551 2.551v142.91c0 1.41 1.141 2.55 2.551 2.55z"/><path fill="#ffd9b2" d="M179.25-127.277h5.953c1.633 0 3.199.648 4.356 1.804l4.894 4.899c.996.996 2.61.996 3.61 0l4.894-4.899a6.16 6.16 0 0 1 4.356-1.804h217.093a2.553 2.553 0 0 0 2.555-2.551v-47.645c0-1.41-1.145-2.55-2.555-2.55H207.313a6.16 6.16 0 0 0-4.356 1.804l-4.894 4.895c-1 .996-2.614.996-3.61 0l-4.894-4.895a6.16 6.16 0 0 0-4.356-1.804h-11.906a2.55 2.55 0 0 0-2.551 2.55v47.645a2.55 2.55 0 0 0 2.551 2.551z"/><path fill="none" stroke="#b25900" stroke-linecap="round" stroke-linejoin="round" stroke-width="3" d="M179.25-127.277h5.953c1.633 0 3.199.648 4.356 1.804l4.894 4.899c.996.996 2.61.996 3.61 0l4.894-4.899a6.16 6.16 0 0 1 4.356-1.804h217.093a2.553 2.553 0 0 0 2.555-2.551v-47.645c0-1.41-1.145-2.55-2.555-2.55H207.313a6.16 6.16 0 0 0-4.356 1.804l-4.894 4.895c-1 .996-2.614.996-3.61 0l-4.894-4.895a6.16 6.16 0 0 0-4.356-1.804h-11.906a2.55 2.55 0 0 0-2.551 2.55v47.645a2.55 2.55 0 0 0 2.551 2.551z"/><path fill="#b2ffb2" d="m194.949-203.215 9.504 8.844c3 2.793 6.949 4.344 11.047 4.344h94.012c4.097 0 8.043-1.551 11.047-4.344l19.007-17.684a5.934 5.934 0 0 0 0-8.691l-19.007-17.684a16.22 16.22 0 0 0-11.047-4.343H215.5c-4.098 0-8.047 1.55-11.047 4.343l-19.008 17.684a5.936 5.936 0 0 0 0 8.691z"/><path fill="none" stroke="#00b200" stroke-linecap="round" stroke-linejoin="round" stroke-width="3" d="m194.949-203.215 9.504 8.844c3 2.793 6.949 4.344 11.047 4.344h94.012c4.097 0 8.043-1.551 11.047-4.344l19.007-17.684a5.934 5.934 0 0 0 0-8.691l-19.007-17.684a16.22 16.22 0 0 0-11.047-4.343H215.5c-4.098 0-8.047 1.55-11.047 4.343l-19.008 17.684a5.936 5.936 0 0 0 0 8.691z"/><path fill="#b2ffff" d="M145.234-261.227h14.457c1.633 0 3.2.649 4.356 1.801l4.894 4.899a2.554 2.554 0 0 0 3.61 0l4.894-4.899a6.18 6.18 0 0 1 4.356-1.801h236.652v-52.75a557.2 557.2 0 0 0-273.219 0z"/><path fill="none" stroke="#00b2b2" stroke-linecap="round" stroke-linejoin="round" stroke-width="3" d="M145.234-261.227h14.457c1.633 0 3.2.649 4.356 1.801l4.894 4.899a2.554 2.554 0 0 0 3.61 0l4.894-4.899a6.18 6.18 0 0 1 4.356-1.801h236.652v-52.75a557.2 557.2 0 0 0-273.219 0z"/><path d="M14.395-89.984c0-1.82-1.364-3.73-4.59-3.73-1.004 0-3.32 0-3.32 1.648 0 .644.452 1.004.976 1.004.144 0 .934-.047.957-1.051 0-.121.023-.145.527-.192.285-.023.598-.023.883-.023.55 0 1.363 0 2.153.597.859.668.859 1.34.859 2.032-1.41.047-2.797.144-4.277.62-1.196.407-2.727 1.266-2.727 2.891 0 1.696 1.508 3.133 3.73 3.133.766 0 2.246-.12 3.489-.98.476.785 1.672.836 2.582.836.574 0 1.144 0 1.144-.695 0-.692-.62-.692-.953-.692-.621 0-1.101-.047-1.433-.191zm-1.555 3.628c0 .551 0 1.051-.98 1.508-.837.407-1.962.407-2.032.407-1.41 0-2.437-.766-2.437-1.746 0-1.41 2.558-2.223 5.449-2.223zm14.094-5.757h.62c.333 0 .977 0 .977-.692 0-.695-.644-.695-.976-.695h-2.63c-.335 0-.98 0-.98.695 0 .692.645.692.98.692h.598l-2.582 7.695-2.582-7.695h.598c.336 0 .98 0 .98-.692 0-.695-.644-.695-.98-.695h-2.629c-.332 0-.976 0-.976.695 0 .692.644.692.976.692h.621l2.75 8.219c.262.812.79.812 1.242.812s.98 0 1.243-.812zm12.058 2.129c0-1.82-1.36-3.73-4.586-3.73-1.004 0-3.324 0-3.324 1.648 0 .644.457 1.004.98 1.004.145 0 .934-.047.958-1.051 0-.121.023-.145.527-.192.285-.023.594-.023.883-.023.547 0 1.36 0 2.148.597.863.668.863 1.34.863 2.032-1.41.047-2.797.144-4.277.62-1.195.407-2.727 1.266-2.727 2.891 0 1.696 1.508 3.133 3.727 3.133.766 0 2.25-.12 3.492-.98.477.785 1.672.836 2.578.836.575 0 1.149 0 1.149-.695 0-.692-.621-.692-.957-.692-.621 0-1.098-.047-1.434-.191zm-1.55 3.628c0 .551 0 1.051-.981 1.508-.836.407-1.961.407-2.031.407-1.41 0-2.438-.766-2.438-1.746 0-1.41 2.555-2.223 5.45-2.223zm13.948-3.847c0-2.34-1.1-3.438-3.062-3.438a4.18 4.18 0 0 0-3.082 1.36c0-.883 0-1.219-.953-1.219h-1.578c-.336 0-.957 0-.957.695 0 .692.62.692.957.692h.98v7.527h-.98c-.336 0-.957 0-.957.692 0 .695.62.695.957.695h3.512c.336 0 .957 0 .957-.695 0-.692-.621-.692-.957-.692h-.98v-4.324c0-2.32 1.624-3.348 2.917-3.348 1.383 0 1.672.79 1.672 2.152v5.52h-.98c-.333 0-.958 0-.958.692 0 .695.625.695.957.695h3.512c.336 0 .957 0 .957-.695 0-.692-.62-.692-.957-.692h-.976zm12.993-1.719c.285-.266.383-.36.383-.789 0-.789-.528-.789-.98-.789h-7.958c-.789 0-.98.191-.98.98v.957c0 .43 0 .977.765.977.785 0 .785-.523.785-.977v-.55h6.047l-7.597 7.336c-.285.261-.383.359-.383.789 0 .789.527.789.98.789h8.434c.789 0 .957-.215.957-.98v-1.22c0-.43 0-.98-.766-.98-.789 0-.789.527-.789.98v.813h-6.5zm11.512 1.938c0-1.82-1.364-3.73-4.59-3.73-1.004 0-3.32 0-3.32 1.648 0 .644.453 1.004.976 1.004.145 0 .933-.047.957-1.051 0-.121.023-.145.527-.192.286-.023.598-.023.883-.023.55 0 1.363 0 2.153.597.859.668.859 1.34.859 2.032-1.41.047-2.797.144-4.278.62-1.195.407-2.726 1.266-2.726 2.891 0 1.696 1.508 3.133 3.73 3.133.766 0 2.246-.12 3.489-.98.476.785 1.672.836 2.582.836.574 0 1.144 0 1.144-.695 0-.692-.62-.692-.953-.692-.621 0-1.101-.047-1.434-.191zm-1.555 3.628c0 .551 0 1.051-.98 1.508-.837.407-1.962.407-2.032.407-1.41 0-2.437-.766-2.437-1.746 0-1.41 2.558-2.223 5.449-2.223zm14.187 4.52c0-.312-.168-.406-.5-.648-3.3-2.27-4.113-5.688-4.113-8.004 0-2.27.766-5.711 4.113-8.028.332-.242.5-.336.5-.648 0-.238-.12-.621-.691-.621-.598 0-2.367 1.387-3.465 2.941-1.34 1.863-2.008 4.086-2.008 6.356 0 2.652.957 4.875 1.957 6.285 1.102 1.527 2.844 2.984 3.516 2.984.57 0 .691-.406.691-.617m10.293-8.652c0-1.864-.453-4.278-2.175-6.598-.813-1.098-2.579-2.7-3.297-2.7-.551 0-.692.407-.692.622 0 .289.164.406.598.695 2.914 2.055 4.012 5.258 4.012 7.957 0 2.153-.692 5.664-4.11 8.028-.308.215-.5.336-.5.648 0 .211.14.617.692.617.597 0 2.367-1.383 3.465-2.937a10.96 10.96 0 0 0 2.007-6.332m-76.597-66.293c0-1.289 0-2.246-1.051-3.18-.836-.762-1.91-1.098-2.961-1.098-1.961 0-3.469 1.293-3.469 2.844 0 .692.457 1.027 1.008 1.027.57 0 .977-.406.977-.98 0-.98-.86-.98-1.22-.98.552-1 1.7-1.43 2.653-1.43 1.102 0 2.512.906 2.512 3.055v.957c-4.805.074-6.621 2.082-6.621 3.918 0 1.89 2.199 2.488 3.656 2.488 1.578 0 2.652-.957 3.105-2.106.098 1.125.836 1.985 1.868 1.985.5 0 1.886-.336 1.886-2.246v-1.34h-.527v1.34c0 1.363-.57 1.554-.906 1.554-.91 0-.91-1.269-.91-1.625zm-1.551 3.011c0 2.34-1.746 3.129-2.774 3.129-1.171 0-2.148-.859-2.148-2.007 0-3.153 4.063-3.442 4.922-3.489zm13.18-4.66c.214-.523.62-1.554 2.148-1.578v-.691c-.691.047-1.027.047-1.766.047-.504 0-.863 0-1.96-.047v.691c1.003.047 1.12.766 1.12 1.028 0 .214-.046.335-.167.621l-2.438 6.168-2.676-6.739c-.117-.336-.14-.336-.14-.457 0-.621.906-.621 1.336-.621v-.691c-.598.047-1.84.047-2.485.047-.789 0-.836 0-2.293-.047v.691c1.336 0 1.578.098 1.864.836l3.418 8.555c.117.336.164.457.453.457.168 0 .312-.051.476-.457zm10.472 1.649c0-1.289 0-2.246-1.05-3.18-.837-.762-1.915-1.098-2.965-1.098-1.957 0-3.465 1.293-3.465 2.844 0 .692.453 1.027 1.004 1.027.574 0 .98-.406.98-.98 0-.98-.86-.98-1.219-.98.551-1 1.696-1.43 2.653-1.43 1.097 0 2.508.906 2.508 3.055v.957c-4.801.074-6.618 2.082-6.618 3.918 0 1.89 2.2 2.488 3.657 2.488 1.574 0 2.652-.957 3.105-2.106.094 1.125.836 1.985 1.863 1.985.504 0 1.887-.336 1.887-2.246v-1.34h-.523v1.34c0 1.363-.575 1.554-.907 1.554-.91 0-.91-1.269-.91-1.625zm-1.554 3.011c0 2.34-1.743 3.129-2.77 3.129-1.172 0-2.152-.859-2.152-2.007 0-3.153 4.062-3.442 4.922-3.489zm14.664-2.437c0-2.223 0-2.891-.551-3.656-.692-.934-1.813-1.075-2.625-1.075-2.32 0-3.227 1.985-3.418 2.461h-.028v-2.461l-3.25.262v.692c1.626 0 1.82.168 1.82 1.339v6.477c0 1.074-.265 1.074-1.82 1.074v.696c.626-.051 1.915-.051 2.583-.051.695 0 1.984 0 2.605.051v-.696c-1.531 0-1.816 0-1.816-1.074v-4.445c0-2.508 1.648-3.848 3.129-3.848 1.484 0 1.82 1.219 1.82 2.676v5.617c0 1.074-.266 1.074-1.82 1.074v.696c.624-.051 1.914-.051 2.581-.051.696 0 1.985 0 2.606.051v-.696c-1.195 0-1.793 0-1.816-.715zm11.472-3.824c.215-.262.215-.309.215-.407 0-.261-.168-.261-.574-.261h-7.504l-.262 3.801h.524c.144-2.442.597-3.325 3.203-3.325h2.773l-6.836 9.395c0 .43.047.43.575.43h7.789l.382-4.399h-.527c-.215 2.723-.621 3.871-3.465 3.871h-2.89zm10.516 3.25c0-1.289 0-2.246-1.047-3.18-.84-.762-1.914-1.098-2.965-1.098-1.96 0-3.465 1.293-3.465 2.844 0 .692.453 1.027 1.004 1.027.574 0 .98-.406.98-.98 0-.98-.863-.98-1.218-.98.547-1 1.695-1.43 2.648-1.43 1.102 0 2.512.906 2.512 3.055v.957c-4.805.074-6.621 2.082-6.621 3.918 0 1.89 2.2 2.488 3.656 2.488 1.578 0 2.656-.957 3.11-2.106.093 1.125.836 1.985 1.863 1.985.5 0 1.887-.336 1.887-2.246v-1.34h-.524v1.34c0 1.363-.574 1.554-.91 1.554-.91 0-.91-1.269-.91-1.625zm-1.55 3.011c0 2.34-1.747 3.129-2.774 3.129-1.168 0-2.149-.859-2.149-2.007 0-3.153 4.063-3.442 4.922-3.489zm-60.88-68.914-3.324.262v.695c1.625 0 1.816.164 1.816 1.336v14.289h.528c.093-.187.761-1.382.86-1.55.55.882 1.577 1.793 3.105 1.793 2.75 0 5.164-2.321 5.164-5.403 0-3.035-2.246-5.379-4.899-5.379-1.316 0-2.437.602-3.25 1.602zm.047 8.938c0-.43 0-.481.262-.863.574-.86 1.625-1.551 2.797-1.551.715 0 3.226.289 3.226 4.875 0 1.601-.238 2.605-.812 3.465-.48.742-1.434 1.48-2.63 1.48-1.288 0-2.128-.836-2.534-1.48-.309-.5-.309-.598-.309-1.004zm13.071-8.938-3.32.262v.695c1.624 0 1.816.164 1.816 1.336v12.524c0 1.074-.262 1.074-1.817 1.074v.691c.668-.046 1.84-.046 2.555-.046.718 0 1.914 0 2.582.046v-.691c-1.528 0-1.817 0-1.817-1.074zm13.359 11.469c0-3.082-2.344-5.543-5.114-5.543-2.867 0-5.136 2.531-5.136 5.543 0 3.059 2.386 5.356 5.113 5.356 2.816 0 5.137-2.344 5.137-5.356m-5.114 4.828c-.886 0-1.96-.383-2.652-1.554-.648-1.075-.672-2.485-.672-3.489 0-.91 0-2.367.742-3.441a3.06 3.06 0 0 1 2.559-1.41c.93 0 1.934.429 2.578 1.363.742 1.098.742 2.605.742 3.488 0 .836 0 2.321-.62 3.442-.669 1.148-1.77 1.601-2.676 1.601m15.194-8.554c-.284 0-1.171 0-1.171.976 0 .574.406.981.98.981.551 0 1.004-.332 1.004-1.024 0-1.601-1.672-2.75-3.61-2.75-2.792 0-5.019 2.485-5.019 5.496 0 3.059 2.297 5.403 4.996 5.403 3.157 0 3.872-2.868 3.872-3.086 0-.215-.168-.215-.239-.215-.215 0-.238.07-.308.359-.528 1.699-1.82 2.414-3.11 2.414-1.457 0-3.39-1.265-3.39-4.898 0-3.969 2.03-4.949 3.222-4.949.91 0 2.223.363 2.774 1.293m10.399 0c-.286 0-1.169 0-1.169.976 0 .574.407.981.977.981.55 0 1.004-.332 1.004-1.024 0-1.601-1.672-2.75-3.606-2.75-2.797 0-5.02 2.485-5.02 5.496 0 3.059 2.294 5.403 4.997 5.403 3.152 0 3.867-2.868 3.867-3.086 0-.215-.164-.215-.238-.215-.215 0-.239.07-.309.359-.527 1.699-1.816 2.414-3.11 2.414-1.456 0-3.39-1.265-3.39-4.898 0-3.969 2.031-4.949 3.227-4.949.906 0 2.222.363 2.77 1.293m12.718 3.726c0-3.082-2.34-5.543-5.113-5.543-2.868 0-5.137 2.531-5.137 5.543 0 3.059 2.387 5.356 5.113 5.356 2.82 0 5.137-2.344 5.137-5.356m-5.113 4.828c-.883 0-1.961-.383-2.653-1.554-.644-1.075-.668-2.485-.668-3.489 0-.91 0-2.367.739-3.441a3.07 3.07 0 0 1 2.558-1.41c.93 0 1.938.429 2.578 1.363.743 1.098.743 2.605.743 3.488 0 .836 0 2.321-.621 3.442-.668 1.148-1.77 1.601-2.676 1.601m24.16-3.726h-.528c-.07.406-.261 1.718-.5 2.101-.168.215-1.53.215-2.246.215H88.02c.645-.551 2.106-2.078 2.723-2.652 3.633-3.348 4.973-4.59 4.973-6.953 0-2.75-2.176-4.59-4.95-4.59-2.769 0-4.394 2.367-4.394 4.422 0 1.218 1.05 1.218 1.121 1.218.504 0 1.125-.359 1.125-1.125 0-.668-.453-1.121-1.125-1.121-.21 0-.261 0-.332.024.453-1.625 1.746-2.723 3.297-2.723 2.031 0 3.274 1.695 3.274 3.895 0 2.031-1.168 3.8-2.532 5.328l-4.828 5.402v.57h8.723zm62.426 197.926c.5 0 .957 0 .957-.883 0-2.797-1.578-5.043-4.567-5.043-2.769 0-4.992 2.386-4.992 5.304a5.327 5.327 0 0 0 5.352 5.352c3.082 0 4.207-2.125 4.207-2.746 0-.145-.051-.672-.789-.672-.454 0-.598.168-.743.527-.597 1.387-2.148 1.504-2.601 1.504-1.985 0-3.563-1.504-3.824-3.344zm-6.977-1.317c.309-2.031 1.863-3.223 3.367-3.223 2.391 0 2.891 2.032 2.989 3.223zm19.324-1.098c0-2.343-1.097-3.441-3.058-3.441-1.625 0-2.676.91-3.082 1.363 0-.886 0-1.218-.957-1.218h-1.578c-.333 0-.954 0-.954.691s.621.691.954.691h.98v7.532h-.98c-.333 0-.954 0-.954.691s.621.691.954.691h3.515c.332 0 .953 0 .953-.691s-.621-.691-.953-.691h-.98v-4.328c0-2.317 1.625-3.344 2.914-3.344 1.386 0 1.676.789 1.676 2.148v5.524h-.981c-.336 0-.957 0-.957.691s.621.691.957.691h3.512c.336 0 .957 0 .957-.691s-.621-.691-.957-.691h-.981zm12.301-6.621c0-.738-.144-.98-.957-.98h-1.574c-.336 0-.957 0-.957.695 0 .692.621.692.957.692h.976v3.968c-.382-.383-1.363-1.195-2.82-1.195-2.531 0-4.73 2.293-4.73 5.305 0 2.941 2.054 5.281 4.515 5.281 1.555 0 2.582-.934 3.035-1.457 0 1.004 0 1.312.957 1.312h1.579c.332 0 .957 0 .957-.691s-.625-.691-.957-.691h-.981zm-1.555 9.082c0 1.34-1.097 3.297-2.89 3.297-1.723 0-3.106-1.742-3.106-3.894 0-2.293 1.625-3.918 3.321-3.918 1.554 0 2.675 1.41 2.675 2.652zm23.383-9.007c0-.598-.476-1.079-1.074-1.079s-1.078.48-1.078 1.079c0 .597.48 1.074 1.078 1.074s1.074-.477 1.074-1.074m-4.109 3.25c-.336 0-.957 0-.957.691s.621.691.957.691h2.555v7.532h-2.723c-.336 0-.981 0-.981.691s.645.691.981.691h6.644c.332 0 .954 0 .954-.691s-.622-.691-.954-.691h-2.367v-7.938c0-.738-.144-.976-.957-.976zm15.195 1.382h2.891c.336 0 .957 0 .957-.691s-.621-.691-.957-.691h-2.891v-1.196c0-1.863 1.672-1.863 2.438-1.863 0 .047.191.93.98.93.383 0 .93-.285.93-.957 0-1.36-1.817-1.36-2.172-1.36-1.816 0-3.731 1.028-3.731 3.153v1.293h-2.367c-.332 0-.976 0-.976.691s.621.691.953.691h2.39v7.532h-2.269c-.336 0-.957 0-.957.691s.621.691.957.691h6.094c.336 0 .957 0 .957-.691s-.621-.691-.957-.691h-2.27zm-8.41-25.769c0-1.817-1.363-3.73-4.59-3.73-1 0-3.32 0-3.32 1.648 0 .648.457 1.004.98 1.004.145 0 .934-.047.957-1.051 0-.117.024-.14.524-.191.289-.024.597-.024.886-.024.547 0 1.36 0 2.149.598.863.668.863 1.34.863 2.031-1.414.047-2.797.145-4.277.621-1.199.406-2.727 1.266-2.727 2.89 0 1.7 1.504 3.133 3.727 3.133.765 0 2.25-.12 3.488-.98.481.79 1.676.836 2.582.836.574 0 1.149 0 1.149-.695 0-.692-.621-.692-.957-.692-.622 0-1.098-.047-1.434-.191zm-1.551 3.629c0 .55 0 1.054-.98 1.508-.84.406-1.961.406-2.032.406-1.41 0-2.437-.766-2.437-1.746 0-1.41 2.555-2.223 5.449-2.223zm8.785 8.461c.332 0 .957 0 .957-.692 0-.695-.625-.695-.957-.695h-.98v-5.113c.574.644 1.457 1.34 2.797 1.34 2.535 0 4.754-2.27 4.754-5.305 0-2.942-2.008-5.281-4.493-5.281-1.746 0-2.843 1.05-3.058 1.289 0-.79 0-1.149-.953-1.149h-1.578c-.336 0-.957 0-.957.696 0 .69.621.69.957.69h.976v12.833h-.976c-.336 0-.957 0-.957.695 0 .692.621.692.957.692zm-.98-11.66c0-1.364 1.34-2.7 2.891-2.7 1.722 0 3.109 1.742 3.109 3.895 0 2.293-1.625 3.918-3.324 3.918-1.793 0-2.676-2.031-2.676-3.227zm13.613 1.839c0-2.843 2.008-4.539 4.039-4.539.121 0 .266 0 .383.024.074.86.742.93.91.93.547 0 .93-.407.93-.93 0-1.032-1.004-1.41-2.199-1.41-1.602 0-2.961.714-4.063 2.054v-.933c0-.742-.14-.98-.953-.98h-2.414c-.336 0-.957 0-.957.694 0 .692.621.692.957.692h1.816v7.527h-1.816c-.336 0-.957 0-.957.692 0 .695.621.695.957.695h5.879c.332 0 .957 0 .957-.695 0-.692-.625-.692-.957-.692h-2.512zm14.457-9.034c0-.598-.476-1.075-1.074-1.075s-1.078.477-1.078 1.074.48 1.078 1.078 1.078 1.074-.48 1.074-1.078m-4.109 3.25c-.336 0-.957 0-.957.694 0 .692.621.692.957.692h2.555v7.527h-2.723c-.336 0-.981 0-.981.692 0 .695.645.695.981.695h6.644c.332 0 .954 0 .954-.695 0-.692-.622-.692-.954-.692h-2.367v-7.933c0-.742-.144-.98-.957-.98z"/><path fill="none" stroke="#000" stroke-width=".796" d="M248.133-35.934h7.383"/><path d="M260.328-30.195c.332 0 .953 0 .953-.692 0-.695-.621-.695-.953-.695h-.98v-5.113c.574.644 1.457 1.34 2.797 1.34 2.531 0 4.753-2.27 4.753-5.305 0-2.942-2.007-5.281-4.492-5.281-1.746 0-2.843 1.05-3.058 1.289 0-.79 0-1.149-.957-1.149h-1.578c-.333 0-.954 0-.954.696 0 .69.621.69.954.69h.98v12.833h-.98c-.333 0-.954 0-.954.695 0 .692.621.692.954.692zm-.98-11.66c0-1.364 1.34-2.7 2.89-2.7 1.723 0 3.106 1.742 3.106 3.895 0 2.293-1.625 3.918-3.321 3.918-1.793 0-2.675-2.031-2.675-3.227zm19.347 1.195c0-2.988-2.172-5.356-4.754-5.356s-4.753 2.368-4.753 5.356c0 3.012 2.195 5.304 4.753 5.304 2.555 0 4.754-2.292 4.754-5.304m-4.754 3.918c-1.722 0-3.203-1.817-3.203-4.086 0-2.223 1.532-3.8 3.203-3.8 1.672 0 3.204 1.577 3.204 3.8 0 2.293-1.481 4.086-3.204 4.086m11.321-3.274c0-2.843 2.008-4.539 4.039-4.539.121 0 .262 0 .383.024.07.86.738.93.906.93a.904.904 0 0 0 .933-.93c0-1.032-1.003-1.41-2.199-1.41-1.601 0-2.965.714-4.062 2.054v-.933c0-.742-.145-.98-.957-.98h-2.414c-.332 0-.953 0-.953.694 0 .692.621.692.953.692h1.816v7.527h-1.816c-.332 0-.953 0-.953.692 0 .695.621.695.953.695h5.879c.335 0 .957 0 .957-.695 0-.692-.622-.692-.957-.692h-2.508zm12.301-4.398h3.871c.332 0 .957 0 .957-.691 0-.696-.625-.696-.957-.696h-3.871v-1.957c0-.43 0-.98-.766-.98-.789 0-.789.55-.789.98v1.957h-2.031c-.336 0-.981 0-.981.696 0 .69.621.69.957.69h2.055v6.024c0 2.223 1.531 3.035 3.25 3.035 1.289 0 3.656-.644 3.656-3.081 0-.481 0-1.004-.785-1.004-.77 0-.77.523-.77 1.027-.019 1.434-1.382 1.672-1.933 1.672-1.863 0-1.863-1.196-1.863-1.77zm17.031 2.129c0-1.817-1.364-3.73-4.59-3.73-1 0-3.32 0-3.32 1.648 0 .648.453 1.004.98 1.004.141 0 .93-.047.953-1.051 0-.117.024-.14.528-.191.285-.024.597-.024.886-.024.547 0 1.36 0 2.149.598.859.668.859 1.34.859 2.031-1.41.047-2.797.145-4.277.621-1.196.406-2.723 1.266-2.723 2.89 0 1.7 1.504 3.133 3.727 3.133.765 0 2.246-.12 3.488-.98.48.79 1.676.836 2.582.836.574 0 1.148 0 1.148-.695 0-.692-.625-.692-.957-.692-.621 0-1.097-.047-1.433-.191zm-1.555 3.629c0 .55 0 1.054-.976 1.508-.84.406-1.961.406-2.032.406-1.414 0-2.437-.766-2.437-1.746 0-1.41 2.554-2.223 5.445-2.223zm14.188 4.519c0-.312-.164-.406-.5-.644-3.297-2.274-4.11-5.688-4.11-8.008 0-2.27.762-5.711 4.11-8.027.336-.239.5-.336.5-.645 0-.242-.118-.625-.692-.625-.597 0-2.367 1.387-3.465 2.941-1.34 1.864-2.007 4.086-2.007 6.356 0 2.652.957 4.875 1.96 6.285 1.098 1.527 2.844 2.988 3.512 2.988.574 0 .692-.406.692-.62m10.293-8.654a10.93 10.93 0 0 0-2.176-6.593c-.813-1.101-2.578-2.703-3.297-2.703-.551 0-.692.406-.692.625 0 .285.168.406.598.691 2.914 2.055 4.016 5.258 4.016 7.958 0 2.152-.696 5.664-4.114 8.03-.308.212-.5.333-.5.645 0 .215.141.621.692.621.598 0 2.367-1.386 3.465-2.941a10.96 10.96 0 0 0 2.008-6.332M155.418-76.95a1.07 1.07 0 0 0-1.074-1.073 1.07 1.07 0 0 0-1.078 1.074 1.07 1.07 0 0 0 1.078 1.074 1.07 1.07 0 0 0 1.074-1.074m-4.113 3.25c-.332 0-.953 0-.953.692 0 .695.621.695.953.695h2.558v7.528h-2.722c-.336 0-.981 0-.981.691 0 .696.645.696.981.696h6.64c.336 0 .957 0 .957-.696 0-.691-.621-.691-.957-.691h-2.363v-7.934c0-.742-.145-.98-.957-.98zm15.097 1.387h2.891c.336 0 .957 0 .957-.696 0-.691-.621-.691-.957-.691h-2.891v-1.195c0-1.864 1.672-1.864 2.438-1.864 0 .047.191.93.98.93.383 0 .934-.285.934-.953 0-1.363-1.816-1.363-2.176-1.363-1.816 0-3.73 1.027-3.73 3.152v1.293h-2.364c-.336 0-.98 0-.98.691 0 .695.621.695.957.695h2.387v7.528h-2.27c-.336 0-.957 0-.957.691 0 .696.621.696.957.696h6.094c.336 0 .957 0 .957-.696 0-.691-.621-.691-.957-.691h-2.27zm23.524 14.218c.336 0 .957 0 .957-.695 0-.691-.621-.691-.957-.691h-.981v-5.114c.575.645 1.461 1.336 2.797 1.336 2.535 0 4.754-2.27 4.754-5.304 0-2.938-2.004-5.282-4.488-5.282a4.33 4.33 0 0 0-3.063 1.29c0-.786 0-1.145-.953-1.145h-1.578c-.336 0-.957 0-.957.691 0 .695.621.695.957.695h.981v12.833h-.981c-.336 0-.957 0-.957.69 0 .696.621.696.957.696zm-.981-11.664c0-1.36 1.34-2.699 2.895-2.699 1.719 0 3.105 1.746 3.105 3.894 0 2.297-1.625 3.922-3.324 3.922-1.789 0-2.676-2.03-2.676-3.226zm19.352 1.196c0-2.985-2.176-5.352-4.754-5.352-2.582 0-4.758 2.367-4.758 5.352 0 3.011 2.199 5.304 4.758 5.304 2.555 0 4.754-2.293 4.754-5.304m-4.754 3.921c-1.723 0-3.203-1.82-3.203-4.09 0-2.222 1.527-3.796 3.203-3.796 1.672 0 3.199 1.574 3.199 3.796 0 2.297-1.48 4.09-3.199 4.09m11.418-3.277c0-2.844 2.008-4.539 4.039-4.539.121 0 .262 0 .383.023.07.86.738.934.906.934.551 0 .934-.406.934-.934 0-1.027-1.004-1.41-2.2-1.41-1.601 0-2.96.719-4.062 2.055v-.93c0-.742-.141-.98-.953-.98h-2.414c-.336 0-.957 0-.957.691 0 .695.621.695.957.695h1.812v7.528h-1.812c-.336 0-.957 0-.957.691 0 .696.621.696.957.696h5.875c.336 0 .957 0 .957-.696 0-.691-.621-.691-.957-.691h-2.508zm12.301-4.394h3.871c.336 0 .957 0 .957-.696 0-.691-.621-.691-.957-.691h-3.871v-1.961c0-.43 0-.98-.766-.98-.789 0-.789.55-.789.98v1.96h-2.031c-.332 0-.981 0-.981.692 0 .695.625.695.957.695h2.055v6.02c0 2.223 1.531 3.035 3.25 3.035 1.289 0 3.656-.644 3.656-3.082 0-.476 0-1.004-.785-1.004-.765 0-.765.528-.765 1.028-.024 1.433-1.387 1.675-1.938 1.675-1.863 0-1.863-1.195-1.863-1.77zm16.933 2.125c0-1.817-1.363-3.727-4.59-3.727-1.003 0-3.324 0-3.324 1.648 0 .645.457 1.004.981 1.004.144 0 .933-.047.957-1.05 0-.122.023-.145.527-.192.285-.023.598-.023.883-.023.551 0 1.363 0 2.152.597.86.668.86 1.336.86 2.032-1.411.046-2.797.14-4.278.62-1.195.407-2.726 1.266-2.726 2.891 0 1.696 1.508 3.13 3.73 3.13.766 0 2.246-.118 3.488-.977.477.785 1.672.836 2.583.836.57 0 1.144 0 1.144-.696 0-.691-.621-.691-.953-.691-.621 0-1.102-.05-1.434-.192zm-1.554 3.632c0 .551 0 1.051-.981 1.508-.836.406-1.961.406-2.031.406-1.41 0-2.438-.765-2.438-1.746 0-1.41 2.555-2.222 5.45-2.222z"/><path fill="none" stroke="#000" stroke-width=".796" d="M248.133-63.836h7.383"/><path d="M266.398-66.004c0-.621-.597-.621-.789-.621-.55 0-.644.191-.765.523-.528 1.317-1.696 1.461-2.27 1.461-2.031 0-3.754-1.699-3.754-3.921 0-1.22.696-3.965 3.825-3.965.644 0 1.148.046 1.363.07.168.047.191.07.191.191.071.98.813 1.004.957 1.004.524 0 .977-.36.977-1.004 0-1.648-2.414-1.648-3.465-1.648-4.086 0-5.398 3.344-5.398 5.352 0 2.914 2.222 5.304 5.089 5.304 3.204 0 4.039-2.363 4.039-2.746m11.391-4.398c0-2.34-1.101-3.442-3.059-3.442a4.18 4.18 0 0 0-3.082 1.363v-4.542c0-.739-.144-.977-.957-.977h-1.578c-.332 0-.957 0-.957.691s.625.692.957.692h.981v11.832h-.981c-.332 0-.957 0-.957.691 0 .696.625.696.957.696h3.516c.332 0 .953 0 .953-.696 0-.691-.621-.691-.953-.691h-.981v-4.324c0-2.32 1.625-3.348 2.915-3.348 1.386 0 1.671.789 1.671 2.152v5.52h-.976c-.336 0-.957 0-.957.691 0 .696.621.696.957.696h3.512c.332 0 .957 0 .957-.696 0-.691-.625-.691-.957-.691h-.981zm9.527-6.548c0-.597-.476-1.073-1.074-1.073-.597 0-1.078.476-1.078 1.074 0 .597.481 1.074 1.078 1.074s1.074-.477 1.074-1.074m-4.109 3.25c-.336 0-.957 0-.957.692 0 .695.621.695.957.695h2.559v7.528h-2.727c-.336 0-.98 0-.98.691 0 .696.644.696.98.696h6.645c.332 0 .957 0 .957-.696 0-.691-.625-.691-.957-.691h-2.368v-7.934c0-.742-.144-.98-.957-.98zm19.184.98c0-.742-.145-.98-.957-.98h-1.579c-.332 0-.957 0-.957.691 0 .695.625.695.957.695h.981v5.184c0 1.961-1.625 2.488-2.699 2.488-1.891 0-1.891-.863-1.891-1.601v-6.477c0-.742-.141-.98-.953-.98h-1.578c-.336 0-.957 0-.957.691 0 .695.621.695.957.695h.98v6.188c0 2.2 1.434 2.867 3.274 2.867 1.457 0 2.367-.597 2.844-1.004 0 .864.574.864.976.864h1.578c.336 0 .957 0 .957-.696 0-.691-.621-.691-.957-.691h-.976zm12.343-.289c0-.383 0-.906-.668-.906-.574 0-.714.547-.714.574-.957-.574-2.055-.574-2.536-.574-3.894 0-4.418 1.984-4.418 2.797 0 .976.571 1.648 1.383 2.101.766.43 1.461.551 3.418.86.934.168 2.844.476 2.844 1.793 0 .882-.813 1.722-3.035 1.722-1.528 0-2.531-.601-3.035-2.32-.118-.336-.192-.598-.785-.598-.79 0-.79.453-.79.934v2.46c0 .384 0 .907.668.907.286 0 .5 0 .86-.976 1.097.906 2.34.976 3.082.976 4.422 0 4.422-2.867 4.422-3.105 0-2.485-2.961-2.989-4.11-3.153-2.101-.359-3.539-.601-3.539-1.601 0-.649.742-1.41 2.989-1.41 2.269 0 2.367 1.074 2.414 1.695.046.476.476.55.765.55.785 0 .785-.429.785-.91zm12.161 2.821c0-1.817-1.364-3.727-4.59-3.727-1.004 0-3.321 0-3.321 1.648 0 .645.454 1.004.981 1.004.14 0 .93-.047.953-1.05 0-.122.023-.145.527-.192.285-.023.598-.023.883-.023.551 0 1.363 0 2.152.597.86.668.86 1.336.86 2.032-1.41.046-2.797.14-4.277.62-1.196.407-2.723 1.266-2.723 2.891 0 1.696 1.504 3.13 3.726 3.13.766 0 2.247-.118 3.489-.977.476.785 1.672.836 2.582.836.574 0 1.144 0 1.144-.696 0-.691-.621-.691-.953-.691-.621 0-1.101-.05-1.433-.192zm-1.555 3.632c0 .551 0 1.051-.981 1.508-.836.406-1.961.406-2.031.406-1.41 0-2.437-.765-2.437-1.746 0-1.41 2.558-2.222 5.449-2.222zm14.187 4.515c0-.308-.168-.405-.5-.644-3.3-2.27-4.113-5.687-4.113-8.004 0-2.273.766-5.71 4.113-8.03.332-.239.5-.333.5-.645 0-.239-.121-.621-.691-.621-.598 0-2.367 1.386-3.465 2.937-1.34 1.867-2.008 4.086-2.008 6.36 0 2.652.957 4.874 1.957 6.285 1.102 1.527 2.844 2.984 3.516 2.984.57 0 .691-.406.691-.621m10.293-8.648c0-1.868-.453-4.278-2.175-6.598-.813-1.098-2.579-2.7-3.297-2.7-.551 0-.692.407-.692.622 0 .285.164.406.598.691 2.914 2.055 4.012 5.258 4.012 7.961 0 2.148-.692 5.664-4.11 8.027-.308.215-.5.336-.5.645 0 .215.141.621.692.621.597 0 2.367-1.387 3.465-2.938a11 11 0 0 0 2.007-6.332m21.539-1.624h3.875c.332 0 .954 0 .954-.696 0-.691-.622-.691-.954-.691h-3.875v-1.961c0-.43 0-.98-.761-.98-.789 0-.789.55-.789.98v1.96h-2.032c-.336 0-.98 0-.98.692 0 .695.621.695.957.695h2.055v6.02c0 2.223 1.531 3.035 3.25 3.035 1.289 0 3.656-.644 3.656-3.082 0-.476 0-1.004-.789-1.004-.766 0-.766.528-.766 1.028-.023 1.433-1.387 1.675-1.933 1.675-1.868 0-1.868-1.195-1.868-1.77zm17.129 1.91c0-2.34-1.097-3.442-3.058-3.442-1.625 0-2.676.91-3.082 1.363v-4.542c0-.739-.145-.977-.957-.977h-1.578c-.333 0-.954 0-.954.691s.621.692.954.692h.98v11.832h-.98c-.333 0-.954 0-.954.691 0 .696.621.696.954.696h3.515c.332 0 .953 0 .953-.696 0-.691-.621-.691-.953-.691h-.98v-4.324c0-2.32 1.625-3.348 2.914-3.348 1.386 0 1.676.789 1.676 2.152v5.52h-.981c-.336 0-.957 0-.957.691 0 .696.621.696.957.696h3.512c.336 0 .957 0 .957-.696 0-.691-.621-.691-.957-.691h-.981zm12.254 2.414c.5 0 .953 0 .953-.883 0-2.797-1.574-5.043-4.562-5.043-2.774 0-4.996 2.39-4.996 5.305a5.33 5.33 0 0 0 5.355 5.351c3.082 0 4.203-2.125 4.203-2.746 0-.144-.047-.668-.789-.668-.453 0-.593.164-.738.524-.598 1.386-2.152 1.507-2.605 1.507-1.985 0-3.559-1.507-3.825-3.347zm-6.98-1.317c.312-2.03 1.867-3.222 3.371-3.222 2.39 0 2.89 2.03 2.988 3.222zm19.328-1.097c0-2.34-1.102-3.442-3.059-3.442a4.2 4.2 0 0 0-3.086 1.363c0-.886 0-1.218-.953-1.218h-1.578c-.336 0-.957 0-.957.691 0 .695.621.695.957.695h.981v7.528h-.981c-.336 0-.957 0-.957.691 0 .696.621.696.957.696h3.512c.336 0 .957 0 .957-.696 0-.691-.621-.691-.957-.691h-.981v-4.324c0-2.32 1.625-3.348 2.918-3.348 1.383 0 1.672.789 1.672 2.152v5.52h-.98c-.332 0-.953 0-.953.691 0 .696.621.696.953.696h3.515c.332 0 .953 0 .953-.696 0-.691-.621-.691-.953-.691h-.98zm-221.668-83.676c0-1.293 0-2.25-1.051-3.18-.836-.765-1.91-1.101-2.961-1.101-1.961 0-3.465 1.293-3.465 2.843 0 .696.453 1.032 1.004 1.032.574 0 .981-.407.981-.985 0-.976-.864-.976-1.219-.976.547-1.004 1.695-1.434 2.648-1.434 1.102 0 2.512.906 2.512 3.059v.953c-4.805.074-6.617 2.082-6.617 3.922 0 1.886 2.195 2.484 3.652 2.484 1.578 0 2.657-.957 3.11-2.102.093 1.122.836 1.981 1.863 1.981.5 0 1.887-.332 1.887-2.246v-1.336h-.524v1.336c0 1.363-.574 1.555-.91 1.555-.91 0-.91-1.266-.91-1.625zm-1.551 3.008c0 2.343-1.742 3.132-2.773 3.132-1.168 0-2.149-.863-2.149-2.007 0-3.157 4.063-3.442 4.922-3.493zm9.883 7.312c-1.527 0-1.816 0-1.816-1.074v-4.16c.429.597 1.41 1.531 2.941 1.531 2.75 0 5.16-2.32 5.16-5.398 0-3.039-2.246-5.379-4.851-5.379-2.102 0-3.223 1.504-3.297 1.601v-1.601l-3.321.261v.696c1.672 0 1.817.164 1.817 1.218v11.231c0 1.074-.266 1.074-1.817 1.074v.695c.621-.05 1.91-.05 2.578-.05.696 0 1.985 0 2.606.05zm-1.816-11.566c0-.453 0-.477.265-.86.715-1.074 1.887-1.531 2.793-1.531 1.793 0 3.227 2.176 3.227 4.856 0 2.839-1.625 4.921-3.465 4.921a2.8 2.8 0 0 1-1.91-.765c-.551-.551-.91-1.027-.91-1.695zm13.054 2.058c0-2.32.953-4.496 2.793-4.496.192 0 .238 0 .336.028-.191.093-.574.238-.574.882 0 .692.551.954.933.954.477 0 .958-.309.958-.954 0-.718-.649-1.386-1.676-1.386-2.032 0-2.723 2.199-2.867 2.652h-.024v-2.652l-3.203.261v.696c1.625 0 1.816.164 1.816 1.336v6.476c0 1.074-.261 1.074-1.816 1.074v.696c.672-.047 1.984-.047 2.699-.047.649 0 2.344 0 2.895.047v-.696h-.481c-1.742 0-1.789-.261-1.789-1.121zm9.266-9.156c0-.621-.5-1.168-1.168-1.168-.625 0-1.149.5-1.149 1.145 0 .718.575 1.172 1.149 1.172.738 0 1.168-.622 1.168-1.149m-3.297 4.445v.696c1.527 0 1.742.14 1.742 1.312v6.5c0 1.074-.262 1.074-1.812 1.074v.696c.668-.047 1.812-.047 2.507-.047.262 0 1.649 0 2.461.047v-.696c-1.554 0-1.648-.117-1.648-1.05v-8.793zm19.293 14.219c-1.527 0-1.816 0-1.816-1.074v-4.16c.429.597 1.41 1.531 2.941 1.531 2.75 0 5.16-2.32 5.16-5.398 0-3.039-2.246-5.379-4.851-5.379-2.102 0-3.223 1.504-3.297 1.601v-1.601l-3.321.261v.696c1.672 0 1.817.164 1.817 1.218v11.231c0 1.074-.266 1.074-1.817 1.074v.695c.621-.05 1.91-.05 2.578-.05.696 0 1.985 0 2.606.05zm-1.816-11.566c0-.453 0-.477.265-.86.715-1.074 1.887-1.531 2.793-1.531 1.793 0 3.227 2.176 3.227 4.856 0 2.839-1.625 4.921-3.465 4.921a2.8 2.8 0 0 1-1.91-.765c-.551-.551-.91-1.027-.91-1.695zm20.531 2.511c0-3.085-2.34-5.546-5.114-5.546-2.867 0-5.136 2.535-5.136 5.546 0 3.059 2.386 5.352 5.113 5.352 2.816 0 5.137-2.344 5.137-5.352m-5.114 4.825c-.886 0-1.96-.379-2.652-1.551-.648-1.078-.672-2.484-.672-3.492 0-.907 0-2.364.742-3.438a3.06 3.06 0 0 1 2.559-1.41c.93 0 1.934.43 2.578 1.363.742 1.098.742 2.602.742 3.485 0 .84 0 2.32-.621 3.441-.668 1.149-1.769 1.602-2.676 1.602m9.836-5.278c0-2.32.957-4.496 2.793-4.496.196 0 .243 0 .336.028-.191.093-.574.238-.574.882 0 .692.551.954.934.954.476 0 .957-.309.957-.954 0-.718-.645-1.386-1.672-1.386-2.035 0-2.727 2.199-2.871 2.652h-.024v-2.652l-3.203.261v.696c1.625 0 1.821.164 1.821 1.336v6.476c0 1.074-.266 1.074-1.821 1.074v.696c.672-.047 1.985-.047 2.703-.047.645 0 2.34 0 2.891.047v-.696h-.477c-1.746 0-1.793-.261-1.793-1.121zm9.122-4.039h3.371V-158h-3.371v-4.398h-.524c-.023 2.25-.883 4.543-3.059 4.613v.48h2.032v6.641c0 2.652 1.769 3.203 3.035 3.203 1.504 0 2.293-1.48 2.293-3.203v-1.359h-.527v1.312c0 1.719-.692 2.723-1.625 2.723-1.625 0-1.625-2.223-1.625-2.629zm14.308 3.227c0-1.293 0-2.25-1.047-3.18-.84-.765-1.914-1.101-2.965-1.101-1.961 0-3.464 1.293-3.464 2.843 0 .696.453 1.032 1.003 1.032.575 0 .981-.407.981-.985 0-.976-.863-.976-1.219-.976.551-1.004 1.695-1.434 2.653-1.434 1.097 0 2.507.906 2.507 3.059v.953c-4.804.074-6.617 2.082-6.617 3.922 0 1.886 2.195 2.484 3.656 2.484 1.575 0 2.653-.957 3.106-2.102.094 1.122.836 1.981 1.863 1.981.5 0 1.887-.332 1.887-2.246v-1.336h-.524v1.336c0 1.363-.574 1.555-.91 1.555-.91 0-.91-1.266-.91-1.625zm-1.551 3.008c0 2.343-1.742 3.132-2.773 3.132-1.168 0-2.149-.863-2.149-2.007 0-3.157 4.063-3.442 4.922-3.493zm-117.031-69.438c0-.43 0-.551-.242-.551-.188 0-.641.528-.813.743-.738-.598-1.48-.743-2.242-.743-2.894 0-3.754 1.579-3.754 2.891 0 .266 0 1.102.91 1.938.762.667 1.575.835 2.676 1.05 1.313.262 1.625.336 2.223.813.43.359.738.883.738 1.554 0 1.028-.597 2.172-2.699 2.172-1.578 0-2.723-.906-3.25-3.297-.094-.429-.094-.453-.117-.476-.051-.098-.145-.098-.215-.098-.266 0-.266.121-.266.551v3.25c0 .43 0 .551.239.551.121 0 .144-.024.55-.528.121-.167.121-.214.477-.597.91 1.125 2.199 1.125 2.605 1.125 2.508 0 3.75-1.387 3.75-3.274 0-1.293-.785-2.058-1-2.269-.863-.742-1.507-.887-3.086-1.176-.714-.141-2.46-.476-2.46-1.91 0-.738.503-1.84 2.656-1.84 2.601 0 2.746 2.223 2.793 2.965.023.191.191.191.261.191.266 0 .266-.121.266-.55zm10.613 4.563c.528 0 .575 0 .575-.453 0-2.415-1.289-4.661-4.184-4.661-2.723 0-4.824 2.461-4.824 5.426 0 3.153 2.437 5.473 5.086 5.473 2.843 0 3.922-2.582 3.922-3.082 0-.145-.122-.242-.262-.242-.192 0-.242.121-.289.242-.621 2.008-2.223 2.554-3.227 2.554s-3.418-.667-3.418-4.804v-.453zm-6.597-.453c.191-3.75 2.297-4.18 2.965-4.18 2.558 0 2.699 3.367 2.722 4.18zm36.699 9.941c-1.527 0-1.816 0-1.816-1.074v-4.16c.429.597 1.41 1.531 2.941 1.531 2.75 0 5.16-2.32 5.16-5.403 0-3.035-2.246-5.375-4.851-5.375-2.102 0-3.223 1.504-3.297 1.598v-1.598l-3.321.262v.692c1.672 0 1.817.168 1.817 1.218v11.235c0 1.074-.266 1.074-1.817 1.074v.691c.621-.047 1.91-.047 2.578-.047.696 0 1.985 0 2.606.047zm-1.816-11.566c0-.454 0-.481.265-.86a3.44 3.44 0 0 1 2.793-1.531c1.793 0 3.227 2.176 3.227 4.851 0 2.844-1.625 4.922-3.465 4.922a2.8 2.8 0 0 1-1.91-.761c-.551-.551-.91-1.028-.91-1.7zm20.531 2.507c0-3.082-2.34-5.543-5.114-5.543-2.867 0-5.136 2.536-5.136 5.543 0 3.063 2.386 5.356 5.113 5.356 2.816 0 5.137-2.344 5.137-5.356m-5.114 4.828c-.886 0-1.96-.382-2.652-1.554-.648-1.074-.672-2.485-.672-3.488 0-.907 0-2.364.742-3.442a3.07 3.07 0 0 1 2.559-1.406c.93 0 1.934.43 2.578 1.359.742 1.102.742 2.606.742 3.489 0 .839 0 2.32-.621 3.441-.668 1.148-1.769 1.601-2.676 1.601m9.836-5.281c0-2.316.957-4.492 2.793-4.492.196 0 .243 0 .336.023-.191.098-.574.243-.574.883 0 .696.551.957.934.957.476 0 .957-.308.957-.957 0-.715-.645-1.383-1.672-1.383-2.035 0-2.727 2.196-2.871 2.653h-.024v-2.653l-3.203.262v.692c1.625 0 1.821.168 1.821 1.339v6.477c0 1.074-.266 1.074-1.821 1.074v.696c.672-.051 1.985-.051 2.703-.051.645 0 2.34 0 2.891.051v-.696h-.477c-1.746 0-1.793-.261-1.793-1.121zm9.122-4.039h3.371v-.691h-3.371v-4.399h-.524c-.023 2.246-.883 4.543-3.059 4.614v.476h2.032v6.645c0 2.652 1.769 3.203 3.035 3.203 1.504 0 2.293-1.481 2.293-3.203v-1.364h-.527v1.317c0 1.719-.692 2.722-1.625 2.722-1.625 0-1.625-2.222-1.625-2.628zm14.308 3.227c0-1.289 0-2.246-1.047-3.18-.84-.762-1.914-1.098-2.965-1.098-1.961 0-3.464 1.293-3.464 2.844 0 .692.453 1.027 1.003 1.027.575 0 .981-.406.981-.98 0-.98-.863-.98-1.219-.98.551-1 1.695-1.43 2.653-1.43 1.097 0 2.507.906 2.507 3.055v.957c-4.804.074-6.617 2.082-6.617 3.918 0 1.89 2.195 2.488 3.656 2.488 1.575 0 2.653-.957 3.106-2.106.094 1.125.836 1.985 1.863 1.985.5 0 1.887-.336 1.887-2.246v-1.34h-.524v1.34c0 1.363-.574 1.554-.91 1.554-.91 0-.91-1.269-.91-1.625zm-1.551 3.011c0 2.34-1.742 3.129-2.773 3.129-1.168 0-2.149-.859-2.149-2.007 0-3.153 4.063-3.442 4.922-3.489zm20.481-5.472c-.285 0-1.172 0-1.172.98 0 .574.406.981.98.981.551 0 1.004-.336 1.004-1.028 0-1.601-1.672-2.75-3.609-2.75-2.793 0-5.02 2.485-5.02 5.496 0 3.059 2.297 5.403 4.996 5.403 3.157 0 3.872-2.867 3.872-3.082 0-.219-.168-.219-.239-.219-.215 0-.242.074-.308.359-.528 1.7-1.821 2.414-3.11 2.414-1.457 0-3.39-1.265-3.39-4.898 0-3.969 2.031-4.945 3.222-4.945.911 0 2.227.359 2.774 1.289m11.785 3.035c0-2.223 0-2.891-.551-3.656-.695-.934-1.816-1.075-2.629-1.075-2.054 0-3.011 1.551-3.343 2.293h-.028v-8.339l-3.32.261v.696c1.625 0 1.816.168 1.816 1.336v12.523c0 1.074-.261 1.074-1.816 1.074v.696c.621-.051 1.914-.051 2.582-.051.691 0 1.984 0 2.601.051v-.696c-1.527 0-1.812 0-1.812-1.074v-4.445c0-2.508 1.648-3.848 3.129-3.848 1.48 0 1.816 1.219 1.816 2.676v5.617c0 1.074-.265 1.074-1.816 1.074v.696c.621-.051 1.914-.051 2.582-.051.691 0 1.98 0 2.601.051v-.696c-1.195 0-1.789 0-1.812-.715zm6.523-8.914c0-.621-.504-1.168-1.171-1.168-.622 0-1.149.5-1.149 1.144 0 .715.574 1.172 1.149 1.172.742 0 1.171-.621 1.171-1.148m-3.296 4.445v.692c1.527 0 1.742.144 1.742 1.316v6.5c0 1.074-.262 1.074-1.817 1.074v.696c.668-.051 1.817-.051 2.508-.051.266 0 1.652 0 2.465.051v-.696c-1.555 0-1.648-.121-1.648-1.051v-8.793zm12.902 0v.692c1.625 0 1.816.168 1.816 1.339v4.278c0 2.031-1.078 3.726-2.867 3.726-1.961 0-2.078-1.121-2.078-2.386v-7.911l-3.371.262v.692c1.816 0 1.816.074 1.816 2.199v3.586c0 1.48 0 2.34.715 3.129.574.621 1.555.91 2.774.91.406 0 1.171 0 1.984-.695.691-.547 1.074-1.458 1.074-1.458v2.153l3.32-.238v-.696c-1.625 0-1.812-.168-1.812-1.336v-8.508zm13.574.168c0-.43 0-.551-.242-.551-.188 0-.641.528-.813.743-.738-.598-1.48-.743-2.242-.743-2.894 0-3.754 1.579-3.754 2.891 0 .266 0 1.102.91 1.938.762.667 1.575.835 2.676 1.05 1.313.262 1.625.336 2.223.813.43.359.738.883.738 1.554 0 1.028-.597 2.172-2.699 2.172-1.578 0-2.723-.906-3.25-3.297-.094-.429-.094-.453-.117-.476-.051-.098-.145-.098-.215-.098-.266 0-.266.121-.266.551v3.25c0 .43 0 .551.239.551.121 0 .144-.024.55-.528.121-.167.121-.214.477-.597.91 1.125 2.199 1.125 2.605 1.125 2.508 0 3.75-1.387 3.75-3.274 0-1.293-.785-2.058-1-2.269-.863-.742-1.507-.887-3.086-1.176-.714-.141-2.46-.476-2.46-1.91 0-.738.503-1.84 2.656-1.84 2.601 0 2.746 2.223 2.793 2.965.023.191.191.191.261.191.266 0 .266-.121.266-.55zm10.582 3.727c0-1.289 0-2.246-1.047-3.18-.84-.762-1.914-1.098-2.965-1.098-1.961 0-3.464 1.293-3.464 2.844 0 .692.453 1.027 1.003 1.027.575 0 .981-.406.981-.98 0-.98-.863-.98-1.219-.98.551-1 1.695-1.43 2.653-1.43 1.097 0 2.507.906 2.507 3.055v.957c-4.804.074-6.617 2.082-6.617 3.918 0 1.89 2.195 2.488 3.656 2.488 1.575 0 2.653-.957 3.106-2.106.094 1.125.836 1.985 1.863 1.985.5 0 1.887-.336 1.887-2.246v-1.34h-.524v1.34c0 1.363-.574 1.554-.91 1.554-.91 0-.91-1.269-.91-1.625zm-1.551 3.011c0 2.34-1.742 3.129-2.773 3.129-1.168 0-2.149-.859-2.149-2.007 0-3.153 4.063-3.442 4.922-3.489zm31.141-6.238h2.699v-.691h-2.746v-2.797c0-2.149 1.098-3.25 2.078-3.25.192 0 .547.051.836.191-.094.024-.695.239-.695.934 0 .551.383.93.933.93.575 0 .957-.379.957-.954 0-.886-.859-1.578-2.007-1.578-1.672 0-3.563 1.289-3.563 3.727v2.797h-1.863v.691h1.863v7.84c0 1.074-.262 1.074-1.812 1.074v.696c.668-.051 1.98-.051 2.699-.051.644 0 2.34 0 2.89.051v-.696h-.476c-1.746 0-1.793-.261-1.793-1.121zm12.312 3.227c0-1.289 0-2.246-1.05-3.18-.836-.762-1.91-1.098-2.965-1.098-1.957 0-3.465 1.293-3.465 2.844 0 .692.453 1.027 1.004 1.027.574 0 .98-.406.98-.98 0-.98-.859-.98-1.218-.98.55-1 1.699-1.43 2.652-1.43 1.102 0 2.508.906 2.508 3.055v.957c-4.801.074-6.617 2.082-6.617 3.918 0 1.89 2.199 2.488 3.656 2.488 1.578 0 2.652-.957 3.105-2.106.098 1.125.836 1.985 1.864 1.985.503 0 1.89-.336 1.89-2.246v-1.34h-.527v1.34c0 1.363-.574 1.554-.906 1.554-.911 0-.911-1.269-.911-1.625zm-1.554 3.011c0 2.34-1.742 3.129-2.77 3.129-1.172 0-2.152-.859-2.152-2.007 0-3.153 4.062-3.442 4.922-3.489zm8.187-11.351c0-.621-.5-1.168-1.168-1.168-.621 0-1.148.5-1.148 1.144 0 .715.574 1.172 1.148 1.172.739 0 1.168-.621 1.168-1.148m-3.297 4.445v.692c1.532 0 1.746.144 1.746 1.316v6.5c0 1.074-.261 1.074-1.816 1.074v.696c.668-.051 1.816-.051 2.508-.051.266 0 1.648 0 2.461.051v-.696c-1.551 0-1.649-.121-1.649-1.051v-8.793zm10.039 1.121c0-.64-.55-1.144-1.148-1.144-.695 0-1.172.551-1.172 1.144 0 .719.598 1.172 1.149 1.172.644 0 1.171-.5 1.171-1.172m0 7.985c0-.645-.55-1.149-1.148-1.149-.695 0-1.172.551-1.172 1.149a1.17 1.17 0 0 0 1.149 1.172 1.16 1.16 0 0 0 1.171-1.172m-217.707-86.614-3.324.262v.695c1.625 0 1.821.164 1.821 1.336v14.289h.523c.094-.187.766-1.382.859-1.55.551.882 1.578 1.793 3.11 1.793 2.746 0 5.16-2.321 5.16-5.403 0-3.035-2.246-5.379-4.899-5.379-1.312 0-2.437.602-3.25 1.602zm.047 8.938c0-.43 0-.481.266-.863.57-.86 1.625-1.551 2.793-1.551.719 0 3.226.289 3.226 4.875 0 1.601-.238 2.605-.812 3.465-.477.742-1.434 1.48-2.629 1.48-1.289 0-2.129-.836-2.535-1.48-.309-.5-.309-.598-.309-1.004zm13.075-8.938-3.325.262v.695c1.625 0 1.817.164 1.817 1.336v12.524c0 1.074-.262 1.074-1.817 1.074v.691c.668-.046 1.84-.046 2.559-.046.715 0 1.91 0 2.582.046v-.691c-1.531 0-1.816 0-1.816-1.074zm13.355 11.469c0-3.082-2.34-5.543-5.113-5.543-2.867 0-5.137 2.531-5.137 5.543 0 3.059 2.387 5.356 5.113 5.356 2.821 0 5.137-2.344 5.137-5.356m-5.113 4.828c-.883 0-1.961-.383-2.653-1.554-.644-1.075-.668-2.485-.668-3.489 0-.91 0-2.367.739-3.441a3.06 3.06 0 0 1 2.558-1.41c.934 0 1.938.429 2.578 1.363.743 1.098.743 2.605.743 3.488 0 .836 0 2.321-.622 3.442-.667 1.148-1.765 1.601-2.675 1.601m15.195-8.554c-.285 0-1.172 0-1.172.976 0 .574.406.981.981.981.55 0 1.004-.332 1.004-1.024 0-1.601-1.672-2.75-3.61-2.75-2.793 0-5.015 2.485-5.015 5.496 0 3.059 2.292 5.403 4.992 5.403 3.156 0 3.871-2.868 3.871-3.086 0-.215-.168-.215-.238-.215-.215 0-.239.07-.309.359-.527 1.699-1.816 2.414-3.109 2.414-1.457 0-3.391-1.265-3.391-4.898 0-3.969 2.031-4.949 3.223-4.949.91 0 2.226.363 2.773 1.293m10.398 0c-.285 0-1.168 0-1.168.976 0 .574.407.981.981.981.547 0 1.004-.332 1.004-1.024 0-1.601-1.676-2.75-3.61-2.75-2.796 0-5.019 2.485-5.019 5.496 0 3.059 2.293 5.403 4.996 5.403 3.152 0 3.871-2.868 3.871-3.086 0-.215-.168-.215-.238-.215-.219 0-.242.07-.313.359-.523 1.699-1.816 2.414-3.105 2.414-1.457 0-3.395-1.265-3.395-4.898 0-3.969 2.032-4.949 3.227-4.949.906 0 2.223.363 2.769 1.293m12.719 3.726c0-3.082-2.34-5.543-5.113-5.543-2.867 0-5.137 2.531-5.137 5.543 0 3.059 2.391 5.356 5.113 5.356 2.821 0 5.137-2.344 5.137-5.356m-5.113 4.828c-.883 0-1.957-.383-2.652-1.554-.645-1.075-.668-2.485-.668-3.489 0-.91 0-2.367.738-3.441a3.07 3.07 0 0 1 2.558-1.41c.934 0 1.938.429 2.583 1.363.742 1.098.742 2.605.742 3.488 0 .836 0 2.321-.625 3.442-.668 1.148-1.766 1.601-2.676 1.601m18.043-8.293c-.406.024-.5.047-.5.266 0 .238.117.238.547.238h1.101c2.032 0 2.938 1.672 2.938 3.965 0 3.133-1.625 3.969-2.793 3.969-1.149 0-3.11-.551-3.801-2.129.766.121 1.457-.309 1.457-1.168 0-.695-.504-1.176-1.172-1.176-.57 0-1.195.336-1.195 1.246 0 2.125 2.129 3.871 4.781 3.871 2.844 0 4.945-2.175 4.945-4.59 0-2.195-1.765-3.917-4.062-4.324 2.078-.597 3.418-2.34 3.418-4.207 0-1.886-1.957-3.273-4.277-3.273-2.391 0-4.161 1.457-4.161 3.203 0 .957.743 1.148 1.102 1.148.504 0 1.074-.359 1.074-1.078 0-.765-.57-1.097-1.097-1.097-.145 0-.192 0-.262.023.906-1.625 3.152-1.625 3.269-1.625.789 0 2.344.359 2.344 2.699 0 .453-.07 1.793-.765 2.821-.715 1.05-1.528 1.125-2.172 1.148z"/></g></svg>