<svg xmlns="http://www.w3.org/2000/svg" width="67pt" height="71pt" viewBox="0 -71 67 71"><g id="page1" fill-rule="evenodd"><path fill="#fce6e5" d="M33.04-39.578c-.981.316-.903 1.223.073 1.492 1.13.27 2.11-.363 1.73-1.039-.222-.453-1.05-.68-1.804-.453m-14.231.226c-.602.137-.754.633-.38.903.528.41 1.583.226 1.66-.27 0-.496-.605-.812-1.28-.633m3.464 3.66c-4.367.227-7.91.856-10.542 1.852l-.754.317.226.316c4.293 6.46 26.957 8.539 38.477 3.48.449-.183.75-.363.75-.41-6.625-3.523-19.274-6.007-28.157-5.554m.075.723c-1.508.227-1.657.676-.38 1.446l.755.453-.149.496c-.078.36-.078.633 0 .86.149.405.074.448-.226.538-.528.184-1.434.047-2.184-.312-.527-.227-.605-.227-.379.086.606.633 2.035.949 3.012.633.379-.09.453-.09.527-.044.98.676 4.145.633 5.422-.136.68-.406.754-.633.074-.317-2.183.996-5.418.453-5.418-.902.075-.812.075-.86.903-1.039 1.203-.27 2.41-.812 2.41-1.129 0-.453-2.863-.86-4.367-.633m6.55 8.762c-1.734 1.45-4.367 4.566-5.574 6.508l-.3.406.902.363c3.765 1.446 2.488 5.375-1.805 5.692l-.527.043.148.5c1.961 7.453 16.942 7.543 18.903.133l.074-.27-.602.227c-7.832 2.574-13.101-3.524-5.422-6.372 1.203-.453 2.41-.992 3.313-1.492l.527-.27-.3-1.085a27 27 0 0 1-.755-3.703l-.074-.813-.902.047c-.98.043-6.777 0-7.156-.047-.227-.047-.301 0-.45.133"/><path fill="#f19c97" d="M35.672-69.8c-1.578.179-3.16.859-3.461 1.85-.453 1.31-.074 2.669.527 3.93 1.883 3.254 5.797 5.965 7.453 9.31.528 1.081.528 2.214.301 3.296.375.09 1.809.406.828.316-5.195-.453-10.843-.633-15.812.68-4.215 1.082-7.301 3.434-9.11 5.961-1.355 2.078-3.011 4.113-4.441 6.191-.906 1.399-1.883 2.934-1.129 4.426 0 .496.524.137.902 0 4.516-1.715 10.09-2.078 15.36-1.851 8.281.406 16.414 2.304 22.965 5.422.527.132.074.542.68.18 1.956-1.22 3.761-2.532 4.742-4.114 2.558-3.613 1.582-7.86-1.883-11.113-2.184-2.168-5.348-3.883-8.961-5.149-.45-.316 1.355.406 1.508-.18 3.46-2.757 6.25-6.101 6.097-9.667-.148-3.028-2.636-5.965-6.699-7.774-2.789-1.219-6.324-2.121-9.867-1.715m.379 3.073c-.602.086-2.184.63-.754.407 1.43-.364 1.055.765 1.129 1.308.078 1.672 1.054 3.254 2.258 4.7 1.507 1.94 3.39 3.792 4.293 5.87.074.364.226.77.3 1.13-.3.453-.675.859-.828 1.312 1.356-.996 2.262-2.215 2.938-3.48 1.43-2.848 1.207-6.055-1.055-8.762-1.203-1.402-3.465-2.711-6.25-2.668-.676 0-1.43.047-2.031.183M9.02-64.742c-2.938.363-6.024 1.219-7.606 2.848-.676.675-.676 1.624.074 2.304 1.582 1.715 4.668 2.531 7.532 3.25 5.043 1.223 10.464 1.809 15.285 3.3a13.4 13.4 0 0 1 3.086 1.49c1.355-.18 2.71-.313 4.066-.45-.074-2.305-.902-4.656-2.71-6.687-2.786-3.208-8.134-5.692-14.231-6.145-1.805-.137-3.688-.09-5.496.09m1.128 2.668c-2.183.27-4.515 1.129-4.894 2.527-.227.5.453-.36.68-.45.375-.362.675-.093.976.134 1.809 1.133 3.918 2.125 6.403 2.71 3.687.907 7.68 1.54 11.218 2.801 1.203.407 2.032 1.13 2.485 1.946.375.316-.075-.633-.075-.817-1.132-3.386-4.82-6.504-9.941-8.129-2.105-.632-4.516-.996-6.852-.722M31.383-40.48c-2.485.496-3.54 2.44-2.336 3.75.906 1.218 3.691 1.808 5.496.949 2.262-.996 2.336-3.301.078-4.293-.906-.453-2.184-.633-3.238-.407m-14.309.406c-2.105.77-2.258 2.664-.828 3.75.906.77 3.09.812 4.067.043 1.582-1.13 1.28-3.16-.977-3.836a3.84 3.84 0 0 0-2.262.043M43.43-27.152c-1.73.359-3.54.543-5.348.722 0 1.715.379 3.434.828 5.106.453.539 1.207-.59 1.582-.817 1.13-1.082 2.11-2.21 2.785-3.433.305.094-.226 1.086-.375 1.492-1.129 2.484-4.441 4.383-7.906 5.738-1.582.633-3.16 1.535-3.086 2.754 0 .227-.152.543.45.59.906.36 2.109.36 3.09.043-.38.316-1.509.543-2.337.543-1.129-.227-.902.226-.3.543.828.723 2.636.95 3.914.496.906-.043-2.258.68-.602.633 2.938.137 5.496-1.086 7.305-2.395 3.386-2.394 4.968-5.738 3.613-8.765a8.3 8.3 0 0 0-2.637-3.297c-.3-.137-.675 0-.976.047m-17.016 1.218c-3.766 1.852-7.156 4.157-8.66 6.957-.68 1.446-.828 3.254.902 4.473.528.406 1.356.633 2.184.723-.527-.27-.977-.586-1.281-.95.906.586 2.335.95 3.617.633.449-.136 1.129-.496 1.281-.722-1.281 0-2.41-.453-2.863-1.13.754.407 1.808.903 2.937.634.977-.407.828-1.266.676-1.852-.3-.77-1.43-1.266-2.41-1.672-1.203-.543-2.031-1.445-1.883-2.351.379.453.754.996 1.36 1.355 1.43-2.168 3.234-4.246 5.269-6.277.977-.996-.754.043-1.129.18m22.059 5.106c-.45 2.71-2.559 5.332-5.946 7.183-1.207.317-1.355 1.04-1.508 1.762-.675 2.121-3.163 4.156-6.699 4.832-2.11.453-4.445.364-6.476-.09 2.41.95 5.27 1.63 8.133 1.942 1.054-.18.976-1.172 1.578-1.668 1.508-1.856 3.312-3.75 6.176-4.88 1.203-.5 2.785-.679 4.066-.273 1.43-.09 3.086-.27 4.367.407 1.355.496 2.031 1.492 1.656 2.441.301.27.602 1.445 1.055.676 1.582-1.672 1.582-3.703.527-5.465-1.207-2.215-3.765-3.976-5.574-6.008-.375-.316-.976-1.312-1.277-1.222 0 .093-.078.226-.078.363m10.168 3.57c-1.055.18-1.809.63-2.336 1.172-.453-.227-1.582-1.129-2.11-.812 2.262 2.078 3.54 4.652 2.563 7.093-.153.676-.98 1.309-1.13 1.942a4.43 4.43 0 0 0 2.935-.676c.68 0 1.355.18 2.035.043 1.804-.227 3.011-1.488 2.332-2.531-.754-.856 1.656-.313 1.957-1.036.832-.68.078-1.765-1.356-1.855-.523 0-1.277.09-.75-.316.977-1.22-.379-2.891-2.636-3.07-.528-.048-1.055-.048-1.504.046m-47.59 3.656c-1.203.047-2.406.68-2.485 1.446-.148.41.38 1.312.153 1.355-.602-.496-.602-1.172-.754-1.761-.828.816-.375 1.851.152 2.71C8.867-8.855 10-8 11.13-7.14c.527-.406 1.504-.496 2.258-.27 2.183.497 3.992 1.493 5.195 2.712.676.449-.227 1.672 1.43 1.172 1.43-.27 2.336-1.04 3.691-1.309 1.883-.496 3.914-.723 5.871-.992-3.765-1.129-7.152-3.027-8.355-5.512-.453-.543-.907.63-1.282.902-.828.633-.074 1.399.075 2.126.152.269.226.902-.149.312-1.054-1.398-2.035-2.89-3.918-4.02-.828-.543-2.41-.496-3.086.09-.601.453-.601.996-.527 1.535.227-.812 1.957-.449 2.031.227.453.906-1.652.86-1.804.09-.453-.496.3.86-.301.183-.828-.859-1.055-2.125.375-2.8.3-.317 2.336-.364.98-.68-.828-.18-1.656-.36-2.562-.227m-1.957 1.403c-.75.543-.227 1.535.754 1.851 1.43.137 1.054-1.175.453-1.625-.301-.183-.754-.406-1.207-.226m35.539.77c-2.184.765-3.614 2.12-4.969 3.429-1.582 1.762-3.086 3.66-3.387 5.695-.152.676.075 1.672 1.504 1.715 2.336.18 4.52-.453 6.625-1.039 3.164-.992 6.25-2.305 8.207-4.156.832-.813 1.282-1.809.606-2.711-.754.633-2.035 1.039-3.313 1.266 1.203-.723 2.785-1.403 2.86-2.532-.153-1.129-2.184-2.12-4.067-1.668-1.504.313-2.332 1.13-3.011 1.895-.149-.36.527-1.309 1.128-1.805.38-.68-1.656-.226-2.183-.09m-.676.538c-1.129.407-.227 1.582.902.996 1.207-.316.754-1.718-.675-1.085l-.078.046zm4.82.496c-1.133.317-2.035 1.223-1.359 1.899.906.59 2.488.137 2.938-.496.605-.496.453-1.402-.829-1.402a2.2 2.2 0 0 0-.75 0m2.785 3.165c-1.581.453-.226 1.808 1.051.992 1.207-.54.153-1.625-1.05-.992m-8.812.363c-2.484.586-4.367 1.941-4.895 3.476-.3.77.305 1.762 1.81 1.899 1.956.09 3.765-.77 4.968-1.625 1.129-.817 2.035-1.899 1.582-2.985-.375-.902-2.184-1.082-3.465-.765"/><path fill="#f8b2b0" d="M37.48-65.238c.075 1.945.528 2.89 2.336 5.148 2.559 3.164 3.461 4.567 3.766 5.785l.074.407.528-.903c3.086-5.605.222-10.89-6.25-11.52l-.528-.046zm-27.406 3.84c-.828.09-2.636.543-2.863.722-.074.09 1.434 1.04 2.562 1.582 1.805.903 3.086 1.309 6.098 1.989 5.723 1.308 7.68 1.851 9.637 2.8l.3.137-.222-.41c-3.617-4.922-9.488-7.496-15.512-6.82m-.98 49.425c-.602.496.601 1.895 1.281 1.399.375-.27.152-.992-.453-1.356-.3-.226-.602-.226-.828-.043m35.09 1.262c-.528.316-.528.727 0 .77.527.046 1.277-.586.976-.903-.148-.183-.601-.136-.976.133m-31.325.047c-.226.09-.148.496.075.77.527.406 1.207.359 1.207-.09 0-.5-.828-.95-1.282-.68m35.918.543c-.226.09-.605.226-.754.36-1.355.906.075 1.855 1.579 1.038 1.433-.765.754-1.894-.825-1.398M12.18-7.411a1.5 1.5 0 0 0-.524.27l-.226.137 1.203.723c2.035 1.176 5.195 2.62 5.875 2.62.3 0-.301-.905-1.055-1.538-1.734-1.489-3.992-2.438-5.273-2.211m39.53.36c-.901.406-.526 1.086.454.723.375-.09.676-.406.676-.586 0-.316-.602-.406-1.13-.137m-8.581.317c-2.711.496-5.273 2.53-4.969 3.933.375 1.985 5.344 1.04 7.3-1.402 1.282-1.715.153-2.98-2.331-2.531"/><path d="M35.824-70.387c-3.386.317-4.742 1.356-4.742 3.66 0 2.168.902 3.704 4.516 7.454 3.238 3.476 4.066 4.789 4.066 6.64 0 1.082 0 1.082-1.203.903-1.582-.227-2.484-.27-4.293-.317h-1.73l-.079-.723c-.675-6.37-6.398-10.886-15.507-12.289-10.618-1.625-20.633 2.485-15.438 6.371 2.41 1.762 5.195 2.665 13.176 4.11 6.851 1.223 9.336 1.898 11.144 2.848l.68.406-.98.226c-4.895 1.266-7.98 3.297-10.391 6.868-.527.722-1.281 1.761-1.656 2.347-2.41 3.211-3.239 4.43-3.54 5.332-1.656 4.43 4.294 8.223 15.06 9.715l1.28.18-.98.449c-9.184 4.61-12.195 11.84-5.27 12.879.977.133.977.586.227 1.398-.3.317-.68.723-.828.903-.379.453-.379.453-.68.046-2.11-2.664-6.55-3.976-9.41-2.753-.226.09-.601.222-.828.222-3.992.5-1.656 4.836 4.293 8.09 5.043 2.754 7.227 3.117 9.937 1.625.977-.543 3.84-1.129 7.38-1.492l1.203-.09 1.28.227c.676.136 1.731.316 2.333.406.68.09 1.207.137 1.207.137s-.153.359-.301.765c-.453 1.043-.602 1.989-.453 2.489 1.055 3.703 16.941-.86 19.05-5.422.301-.59.376-.633.829-.543 1.054.136 2.558 0 3.312-.407.301-.136.375-.18 1.282-.18 2.558 0 4.289-1.038 4.289-2.53v-.543l.605-.18c2.105-.68 1.957-2.621-.227-3.207-.378-.047-.527-.137-.453-.18 1.13-2.441-4.215-4.43-7.379-2.71l-.374.222-.454-.18c-.601-.226-1.43-.406-1.957-.406s-.828-.227-2.636-2.121c-2.106-2.262-2.711-2.985-2.938-3.75-.45-1.223-1.352-2.531-2.484-3.617l-.45-.45.528-.136c15.207-3.707 16.113-17.801 1.504-22.227l-.602-.18c-.074 0 .301-.273.676-.632 7.004-5.696 7.684-11.703 1.809-16.04-3.465-2.574-9.036-4.066-13.403-3.613m-.152.586c-2.934.407-3.988 1.535-3.613 3.793.379 1.899 1.129 3.074 4.293 6.371 3.687 3.887 4.515 5.469 4.214 7.817l-.074.406.68.18c.902.226.828.226-.754.09-12.8-1.13-20.254 1.085-24.395 7.23-.828 1.219-1.207 1.715-2.71 3.75-2.637 3.48-3.165 4.7-2.485 6.371 2.485 6.008 22.137 8.988 35.313 5.328 14.832-4.066 14.23-16.398-1.055-21.773-.828-.317-.902-.364-.152-.227.828.137.828.137 1.507-.453 6.024-4.832 7.38-9.621 3.914-13.688-2.859-3.48-9.562-5.828-14.683-5.195m.379 3.074c-.528.086-1.508.407-1.508.496 0 0 .3-.046.754-.09 1.129-.136 1.055-.183 1.129.903.152 2.211.68 3.207 3.238 6.324 2.484 2.938 3.238 4.02 3.465 5.242l.148.496-.449.723c-.605.813-.527.813.223.18 6.855-6.145 1.96-15.992-7-14.274m1.43 1.489c.074 1.945.527 2.89 2.335 5.148 2.559 3.164 3.461 4.567 3.766 5.785l.074.407.528-.903c3.086-5.605.222-10.89-6.25-11.52l-.528-.046zm-28.461.496c-5.27.59-9.11 2.894-7.907 4.699 1.43 2.035 4.82 3.254 13.856 4.926 7.527 1.398 10.164 2.12 11.972 3.254l.45.312 1.28-.133c.755-.093 1.505-.18 1.731-.226.227 0 .602-.047.754-.09h.301l-.074-.812c-.68-7.727-10.918-13.196-22.363-11.93m1.128 2.668c-2.558.316-4.668 1.355-4.894 2.484l-.074.27.3-.317c.227-.136.454-.36.602-.406l.3-.18.907.586c2.633 1.54 4.367 2.168 8.656 3.075 7.907 1.714 9.864 2.394 10.77 3.703.527.812.601.812.3-.137-1.507-5.375-9.94-9.895-16.867-9.078m-.074.676c-.828.09-2.636.543-2.863.722-.074.09 1.434 1.04 2.562 1.582 1.805.903 3.086 1.309 6.098 1.989 5.723 1.308 7.68 1.851 9.637 2.8l.3.137-.222-.41c-3.617-4.922-9.488-7.496-15.512-6.82M31.383-40.48c-3.914.859-3.692 4.425.226 5.015 2.633.406 5.043-1.129 4.668-2.937-.379-1.492-2.789-2.532-4.894-2.078m-14.309.406c-2.933.992-1.957 4.336 1.207 4.336 2.332.047 3.766-1.895 2.559-3.434-.75-.992-2.41-1.355-3.766-.902m15.89.496c-.452.18-.679.406-.679.77 0 .722 1.356 1.081 2.258.585 1.207-.633-.223-1.851-1.578-1.355m-14.382.273c-.375.133-.527.496-.3.766.374.543 1.656.406 1.808-.227.148-.496-.832-.855-1.508-.539m4.293 4.336c-1.96.18-2.184.86-.602 1.625l.375.184v.945c0 .906 0 .95-.226 1.04-.527.226-1.582.09-2.332-.313-.453-.227-.453-.184-.152.133.601.632 1.882.859 3.011.543.301-.09.375-.09.528 0 1.28.675 4.668.543 5.496-.274.375-.36.3-.402-.075-.18-1.207.633-4.066.68-5.046.047-.45-.316-.602-.68-.45-1.535l.075-.316.601-.137c3.613-.68 2.637-2.125-1.203-1.762m20.555 7.817c-1.055.226-3.012.496-4.215.633l-1.133.09v.675c0 1.086.754 4.473.98 4.61.376.269 3.16-2.622 3.915-4.02.453-.727.527-.633.226.27-.676 2.484-3.238 4.562-7.754 6.37-2.562.993-3.539 1.805-3.539 2.844v.543l.602.227c.828.226 1.808.226 2.636.047.602-.184.45-.047-.226.18-.68.222-1.582.316-2.262.269-.523-.09-.601-.09-.148.316.976.903 2.558 1.22 4.066.77.527-.137.527-.137.3 0-.151.043-.526.18-.827.316-.828.227-.68.27.676.27 4.218 0 9.113-3.254 10.39-6.867.906-2.485.153-5.059-2.258-7.227-.527-.5-.527-.5-1.43-.316m-17.016 1.218c-6.629 3.254-10.09 7.184-8.887 10.075.38 1.082 1.582 1.898 2.938 2.03l.375.048-.45-.27c-.226-.136-.527-.316-.605-.453l-.226-.226.453.226c1.207.676 3.011.676 4.066 0l.379-.273-.531-.086c-.75-.047-1.504-.317-1.957-.727-.528-.406-.528-.496 0-.18 1.207.723 2.863.68 3.164-.043.527-1.085-.074-2.124-1.656-2.71-1.657-.633-2.563-1.536-2.563-2.395v-.273l.227.273c.453.586 1.054 1.129 1.132 1.082.075-.043.301-.406.602-.855.75-1.086 2.71-3.434 3.988-4.7 1.356-1.402 1.356-1.445-.449-.543m1.578.586c-2.031 1.946-3.234 3.391-4.367 5.063-.75 1.129-.75.992.227 1.355 3.765 1.446 2.636 5.196-1.657 5.692-.754.043-.754 0-.453.86.68 2.03 2.79 3.972 4.895 4.562 6.629 1.898 13.101-.274 14.008-4.657l.074-.359-.903.27c-8.058 2.261-12.5-3.477-4.972-6.415 1.582-.632 2.789-1.218 3.39-1.582l.301-.18-.226-1.038c-.453-1.625-.676-2.485-.676-3.57l-.078-1.04-1.13.047c-1.429.09-4.741.09-6.25 0l-1.202-.047zm20.48 4.52c-.449 2.933-3.312 6.098-6.925 7.633-.149.093-.227.183-.3.59-.903 4.335-6.927 6.82-13.329 5.464-.527-.09 1.055.454 2.258.813 1.508.41 3.312.77 4.82.996 1.43.18 1.356.227 1.809-.453 2.933-4.473 7.379-7.094 10.613-6.324.605.136.68.136 1.055.09 2.71-.586 5.949.992 5.347 2.574-.074.226-.074.316.075.453.152.09.3.36.378.543.223.406.301.406.903-.453 1.804-2.305 1.054-5.016-2.336-8.086a79 79 0 0 1-3.387-3.434c-.453-.496-.828-.902-.828-.902-.074 0-.074.18-.152.496m10.169 3.57c-.754.133-1.582.496-2.035.902-.45.36-.376.36-.754 0-.301-.273-.829-.496-1.43-.59-.375-.09-.375-.09.226.5 2.711 2.665 3.16 5.692 1.282 7.997-.528.633-.528.586.3.586.75 0 1.356-.137 1.958-.496l.453-.227.601.09c1.805.226 3.614-.543 3.84-1.672.074-.27 0-.496-.3-1.219-.075-.136 0-.136.374-.136 1.203 0 2.035-.54 2.035-1.22 0-.675-.832-1.175-2.109-1.175h-.527l.3-.406c1.13-1.672-1.355-3.434-4.214-2.934m-47.59 3.656c-2.106.184-2.934 1.13-2.258 2.758.074.18.074.18-.074.043-.301-.226-.68-.945-.68-1.398s-.148-.453-.375 0c-.527 1.172.453 2.754 2.711 4.472l.754.586.45-.226c1.733-.945 8.058 2.262 7.304 3.707-.227.543 1.883.133 3.238-.633.902-.496 3.238-.996 6.625-1.402l.828-.133-.754-.227c-3.687-1.218-6.398-3.027-7.527-5.062-.3-.63-.227-.63-1.055.363-.828.95-.828.902-.527 1.582.3.586.527 1.535.453 1.445-.074 0-.3-.316-.527-.632-2.485-3.344-4.293-4.52-6.176-3.887q-1.241.41-1.129 1.492v.36l.152-.223c.528-.77 2.332.09 1.88.855-.376.543-1.43.317-1.805-.316-.153-.317-.227-.133-.075.226.149.317-.078.137-.453-.316-.98-1.355-.3-2.527 1.656-2.844.301-.047.528-.136.454-.136-.153-.18-1.961-.543-2.41-.497 0 0-.301 0-.68.043m-1.957 1.403c-.602.226-.45 1.172.226 1.625.903.59 1.809.09 1.43-.676-.3-.77-1.055-1.176-1.656-.95m0 .226c-.602.496.601 1.895 1.281 1.399.375-.27.152-.992-.453-1.356-.3-.226-.602-.226-.828-.043m35.539.543C39.965-10.03 34.093-1.762 37.03-.723c2.258.766 9.11-.996 13.25-3.39 2.711-1.535 3.688-2.98 3.086-4.2l-.148-.183-.38.273c-.526.36-1.276.676-2.183.856l-.75.137 1.13-.633c1.956-1.176 2.257-2.078.827-3.028-1.734-1.171-4.293-.722-5.797.996-.304.36-.527.497-.453.407.227-.77.528-1.313 1.13-1.719.675-.54-.602-.676-2.11-.223m-.676.54c-.828.495-.68 1.085.227 1.128.675.047 1.656-.633 1.43-1.082-.227-.406-.981-.406-1.657-.047m.227.18c-.528.316-.528.726 0 .769.527.046 1.277-.586.976-.903-.148-.183-.601-.136-.976.133m-31.325.046c-.226.09-.148.496.075.77.527.406 1.207.359 1.207-.09 0-.5-.828-.95-1.282-.68m35.918.27c-1.883.5-2.183 2.171-.379 2.171 2.184 0 3.239-2.078 1.13-2.171-.301-.043-.602 0-.75 0m0 .273c-.226.09-.605.226-.754.36-1.355.906.075 1.855 1.579 1.038 1.433-.765.754-1.894-.825-1.398M12.18-7.411a1.5 1.5 0 0 0-.524.27l-.226.137 1.203.723c2.035 1.176 5.195 2.62 5.875 2.62.3 0-.301-.905-1.055-1.538-1.734-1.489-3.992-2.438-5.273-2.211m39.383.18c-.454.18-.829.633-.68.86.3.723 2.11.316 2.261-.496.075-.5-.753-.727-1.581-.363m.148.18c-.902.406-.527 1.086.453.723.375-.09.676-.406.676-.586 0-.316-.602-.406-1.13-.137m-8.961.184c-3.234.676-5.797 3.297-4.668 4.652 1.582 1.899 7.457-.273 8.207-2.984.379-1.352-1.277-2.168-3.539-1.668m.379.133c-2.711.496-5.273 2.53-4.969 3.933.375 1.985 5.344 1.04 7.3-1.402 1.282-1.715.153-2.98-2.331-2.531"/></g></svg>