<svg xmlns="http://www.w3.org/2000/svg" width="904pt" height="596" viewBox="0 -447 904 447"><g id="page1" transform="scale(1 -1)"><path fill="#cc9c6f" d="M143.008 392.828a7150 7150 0 0 1 617.555-86.793l2.367 16.844a7141 7141 0 0 1-307.832 50.133 7144 7144 0 0 1-309.723 36.66z"/><path fill="none" stroke="#000" stroke-linecap="round" stroke-linejoin="round" stroke-width="2" d="M143.008 392.828a7150 7150 0 0 1 617.555-86.793l2.367 16.844a7141 7141 0 0 1-307.832 50.133 7144 7144 0 0 1-309.723 36.66z"/><path fill="#fff" d="M176.746 397.387a5.668 5.668 0 1 1-11.336 0 5.667 5.667 0 1 1 11.336 0"/><path fill="none" stroke="#000" stroke-linecap="round" stroke-linejoin="round" stroke-width="2" d="M176.746 397.387a5.668 5.668 0 1 1-11.336 0 5.667 5.667 0 1 1 11.336 0"/><path fill="#fff" d="M738.16 318.484a5.67 5.67 0 1 1-11.341.003 5.67 5.67 0 0 1 11.341-.003"/><path fill="none" stroke="#000" stroke-linecap="round" stroke-linejoin="round" stroke-width="2" d="M738.16 318.484a5.67 5.67 0 1 1-11.341.003 5.67 5.67 0 0 1 11.341-.003"/><path fill="#d3ae37" d="M341.156 150.773c0 15.657-76.144 28.348-170.078 28.348C77.148 179.121 1 166.43 1 150.773s76.148-28.347 170.078-28.347c93.934 0 170.078 12.691 170.078 28.347"/><path fill="none" stroke="#000" stroke-linecap="round" stroke-linejoin="round" stroke-width="2" d="M341.156 150.773c0 15.657-76.144 28.348-170.078 28.348C77.148 179.121 1 166.43 1 150.773s76.148-28.347 170.078-28.347c93.934 0 170.078 12.691 170.078 28.347M171.078 377.547l161.41-217.813m-161.41 217.813L117.32 177.676m53.758 199.871L19.984 137.746m151.094 239.801v19.84"/><g fill-rule="evenodd"><path fill="#88d055" d="M163.148 183.652c-.75-.621 1.332-.621.977-1.507 1.371-3.231 2.703-6.555 3.277-10.051 2.172-11.207-.574-23.297-7.531-32.379-6.996-9.567-17.625-16.61-29.363-18.559-10.719-1.859-22.012.664-31.227 6.379-2.3 1.418-4.472 3.012-6.554 4.738 6.468-7.308 15.902-11.558 25.468-12.621 13.996-1.597 28.7 2.965 38.977 12.668 6.996 6.555 11.824 15.5 12.801 25.067.84 7.707.043 15.812-3.457 22.765a22.3 22.3 0 0 1-2.524 3.856c-.355.133-.578-.223-.844-.356"/><path fill="#b9f88c" d="M162.93 183.387c-.93-.356-2.438-1.11-1.95-2.391 2.969-5.937 4.208-12.668 4.075-19.312-.176-6.246-1.641-12.625-5.137-17.895-4.074-6.242-10.23-10.984-17.098-13.773-9.832-4.254-21.039-5.668-31.492-3.055-6.508 1.637-12.797 4.781-17.273 9.918-.797.844-1.414 1.816-1.95 2.879-.398 1.242-1.726 1.285-2.656.488-1.37-.574-.84-2.125-.09-3.012 1.95-3.808 5.184-6.863 8.907-9.035 6.199-3.941 13.285-6.687 20.636-7.398 7.575-.84 15.371.398 22.282 3.633 12.089 5.492 21.836 16.3 25.511 29.144 2.614 9.391 1.547 19.621-2.527 28.434-.219.578-.484 1.375-1.238 1.375"/><path d="M162 185.688c-5.094-1.68-9.348-5.047-14.176-7.262-20.019-10.852-39.375-22.766-58.375-35.211-1.636-1.152-3.41-2.746-3.41-4.871.133-2.614 1.95-4.696 3.453-6.692 5.895-7.172 14.442-11.781 23.434-13.816 8.324-1.859 17.051-.977 25.246 1.148 9.476 2.571 18.469 7.754 24.758 15.371 7.75 9.481 11.34 22.192 9.699 34.325-.574 4.828-1.906 9.703-4.52 13.82-1.195 1.727-3.011 3.41-5.269 3.367-.266-.047-.574-.09-.84-.179m1.285-1.95c-.887-.664-2.527-.972-2.48-2.343.218-.844.797-1.594 1.062-2.438 4.074-9.742 4.297-21.172.223-30.961-2.438-5.625-6.692-10.363-11.738-13.773-8.196-5.625-18.207-8.282-28.082-8.371-7.973-.09-16.165 1.683-22.856 6.156-3.32 2.258-6.156 5.316-7.883 8.945-1.195.047-2.57-.527-2.969-1.726-.085-1.106.797-1.95 1.243-2.922 4.297-7.086 11.515-12.09 19.355-14.66 15.856-5.184 34.281-1.418 46.86 9.566 6.07 5.316 10.628 12.359 12.8 20.109 1.461 5.313 1.727 10.895 1.239 16.387-.532 4.871-1.86 9.742-4.426 13.996-.711.664-.797 2.125-1.949 2.215-.18.043-.27-.133-.399-.18m-4.785-2.789c-17.363-8.902-33.926-19.222-50.848-28.832-5.492-3.277-10.894-6.777-15.812-10.808 2.879-5.668 8.328-9.7 14.219-11.871 9.656-3.497 20.418-3.411 30.296-.75 7.75 2.082 15.192 5.976 20.461 12.089 3.325 3.899 5.227 8.77 6.157 13.774 1.461 7.441 1.418 15.414-1.285 22.59-.442 1.242-1.063 2.39-1.727 3.543-.309.488-1.02.754-1.461.265m-2.922-13.152c-1.242-.754-.047-2.969 1.281-2.527 1.067.445.844 1.996-.129 2.394-.355.176-.753.266-1.152.133m-10.277-10.676c-1.106-.441-.621-2.082.355-2.437 1.106-.352 2.035 1.066 1.371 1.996-.308.664-1.148.929-1.726.441m10.012-.133c-1.2-.84-.313-2.789.972-2.968 1.153-.219 2.215 1.199 1.504 2.214-.527.797-1.637.887-2.476.754m-21.172-7.617c-.887-1.242.308-3.367 1.816-3.101 1.238.445.973 2.171.043 2.789-.488.402-1.238.621-1.859.312m10.937-2.613c-1.062-.887-.265-2.348.356-3.188.711-.976 2.437-.754 2.703.399.218 1.062-.532 2.035-1.328 2.609-.489.356-1.2.445-1.731.18m-24.668-3.543c-1.375-.578-1.062-3.102.442-3.192 1.64.133 1.816 2.969.222 3.325-.222.043-.488 0-.664-.133m-13.023-1.594c-1.328-.445-1.77-2.57-.489-3.324 1.153-.442 2.129.976 2.04 2.039.042.754-.754 1.902-1.551 1.285m22.277-4.476c-1.504-.973-.351-3.762 1.422-3.411 1.238.266 1.238 1.996.484 2.793-.398.575-1.238 1.02-1.906.618m-16.387-1.95c-1.461-.707-1.195-3.41.489-3.629 1.504 0 2.082 2.082 1.285 3.145-.356.574-1.153.93-1.774.484"/><path fill="#e96c92" d="M158.5 180.949c-17.363-8.902-33.926-19.222-50.848-28.832-5.492-3.277-10.894-6.777-15.812-10.808 2.879-5.668 8.328-9.7 14.219-11.871 9.656-3.497 20.418-3.411 30.296-.75 7.75 2.082 15.192 5.976 20.461 12.089 3.325 3.899 5.227 8.77 6.157 13.774 1.461 7.441 1.418 15.414-1.285 22.59-.442 1.242-1.063 2.39-1.727 3.543-.309.488-1.02.754-1.461.265m-2.922-13.152c-1.242-.754-.047-2.969 1.281-2.527 1.067.445.844 1.996-.129 2.394-.355.176-.753.266-1.152.133m-10.277-10.676c-1.106-.441-.621-2.082.355-2.437 1.106-.352 2.035 1.066 1.371 1.996-.308.664-1.148.929-1.726.441m10.012-.133c-1.2-.84-.313-2.789.972-2.968 1.153-.219 2.215 1.199 1.504 2.214-.527.797-1.637.887-2.476.754m-21.172-7.617c-.887-1.242.308-3.367 1.816-3.101 1.238.445.973 2.171.043 2.789-.488.402-1.238.621-1.859.312m10.937-2.613c-1.062-.887-.265-2.348.356-3.188.711-.976 2.437-.754 2.703.399.218 1.062-.532 2.035-1.328 2.609-.489.356-1.2.445-1.731.18m-24.668-3.543c-1.375-.578-1.062-3.102.442-3.192 1.64.133 1.816 2.969.222 3.325-.222.043-.488 0-.664-.133m-13.023-1.594c-1.328-.445-1.77-2.57-.489-3.324 1.153-.442 2.129.976 2.04 2.039.042.754-.754 1.902-1.551 1.285m22.277-4.476c-1.504-.973-.351-3.762 1.422-3.411 1.238.266 1.238 1.996.484 2.793-.398.575-1.238 1.02-1.906.618m-16.387-1.95c-1.461-.707-1.195-3.41.489-3.629 1.504 0 2.082 2.082 1.285 3.145-.356.574-1.153.93-1.774.484"/><path fill="#247040" d="M221.922 193.645c-.633.293-1.121-.438-.875-.973.242-.734.926-.051 1.41-.149.731.047 1.609-.097 2.242.438.586.535-.488 1.074-1.023.977-.586-.051-1.168-.247-1.754-.293m2.777-.684c-.73-.484-2.535-.195-3.265-.68-.485-.441.293-1.316.39-1.804.293-.68.391-1.461.242-2.192-.242-1.609-1.07-3.019-1.753-4.484-1.704-3.653-3.653-7.16-5.258-10.91 1.019-.391 1.996.289 2.968.582.782.195 1.024 1.074 1.219 1.754.149.73.293 1.414.684 2.046 1.461 3.266 3.164 6.43 4.629 9.696.582 1.656.925 3.41.875 5.117.39 1.316-.34 1.121-.731.875m-23.289-13.785c-1.512-.391-3.168-.539-4.433-1.512 2.828-.437 5.359-2.047 7.211-4.191 1.023-1.461 1.753-3.215 3.265-4.239.777-.582 1.703-1.023 2.68-1.07.633 0 1.023.535 1.558.828.926.684 1.122 1.996 2.094 2.629.535 1.121.098 2.438-.484 3.461-.684 1.168-1.66 2.387-2.781 3.117-2.532 1.512-5.7 1.461-8.524 1.074-.195-.05-.391-.05-.586-.097m24.848-2.973c-2.824-1.902-6.235-2.582-9.449-3.605-1.024-.293-2-.731-2.829-1.461-1.218-1.024-2.093-2.68-1.753-4.336.242-.977 1.218-1.852 2.242-1.512.535.047 1.07.684 1.265.047.196-.484.34-1.168 1.024-1.168 2.531-.242 5.066.828 6.82 2.633a8.37 8.37 0 0 1 2.485 4.918c.339 1.558.488 3.121.585 4.679-.097.196-.339-.05-.39-.195m-25.09-1.754c-2.73-.828-5.699-1.414-8.574-.976-.246.828-1.559-.047-.586-.387 1.219-1.66 3.07-2.731 4.922-3.461 1.656 0 3.117.777 4.675 1.07.731.442 1.903.344 2.731.633.73.344-.488 1.512-.734 1.949-.438.539-.829.977-1.508 1.219-.293.098-.633.149-.926-.047m28.988-.586c-1.218-.293-2.582-.535-3.363-1.605-.289-.488-.438-1.121-.438-1.707 0-.781.926 0 1.024-.047-.438-.539-.977-.93-1.461-1.414-.535-1.024-1.172-2.145-2.191-2.731-.489-.535 0-1.265.632-1.363.582-.195 1.168.051 1.754.145 3.266.586 5.895 2.925 9.157 3.605.539-.34 1.171.195 1.218.734.149.583-.144 1.118-.633 1.461-.585.633-1.07 1.364-1.8 1.899-1.121.828-2.535 1.316-3.899 1.023m16.176-.683c-2.242-1.754-5.164-2.387-7.941-2.434-.489-.098-1.172.195-1.368-.391-.191-.632.344-1.265.051-1.851-.39-.391-1.023-.195-1.558-.293-.438.098-.684-.535-.149-.391.293.102 1.024 0 .442-.289-.489-.39.535-.246.777-.488 1.269-.438 2.484-1.07 3.852-1.414 1.558.098 2.824 1.219 4.042 2.144 1.508 1.461 2.583 3.653 2.243 5.797-.196 0-.196-.34-.391-.39m-14.473-6.43c-.679-.535-1.656-.488-2.289-1.168-.582-.586 1.024-.246.731-.633-.875.387-.875.387-1.703-.293-.633-.976.34-1.511.679-1.851 1.172-1.075 2.684-1.61 4.094-2.094 3.41-.977 7.067-1.465 10.574-.781 1.41.293 2.778.781 3.993 1.461-.68.781-1.801.437-2.68.73-.485.242-1.024.586-1.606.828-2.73 1.414-5.359 3.313-8.476 3.949-1.074.243-2.242.243-3.317-.148"/><path fill="#d1242b" d="M193.422 166.945c-1.805-1.898-2.973-4.289-3.899-6.675-1.363-3.993-1.609-8.282-1.316-12.473.488-4.871 1.996-9.598 3.898-14.078 1.95-4.336 3.848-8.672 5.946-12.91 1.312-2.68 2.629-5.313 4.383-7.7 1.851-2.386 4.675-4.191 7.796-4.043 2.141 0 4.09 1.071 5.895 2.145 2.875 1.605 5.652 3.359 8.523 5.066 6.922 5.016 12.766 11.399 18.079 18.024 1.656 2.195 2.921 4.726 3.261 7.504.539 3.508.489 7.113-.242 10.621-.535 2.047-1.605 3.898-2.531 5.75-.781 1.265-2.242.683-3.461.73-3.363.196-6.774 1.024-9.695 2.778-.875.73-1.317 1.8-1.996 2.679-1.27.926-2.973-.34-4.243.586-1.07.582-2.336-.097-3.261-.636-1.657-.731-3.704-.731-5.215.292-1.024.391-2.289.536-3.02 1.512.196 1.121-1.07 2.192-2.144 1.703-.973-.289-2.047.344-2.875.879-.926.535-1.606 1.61-2.676 1.949-3.559-.293-8.82-2.046-11.207-3.703"/><path d="M221.582 194.133c-1.269.047-2.098-1.805-.781-2.391 1.265-1.363.976-3.41.437-5.015-.828-2.633-2.386-4.872-3.601-7.309-.926-1.805-1.903-3.656-2.633-5.508-1.266.195-.926 1.805-1.703 2.488-1.903 2.434-5.02 3.653-8.09 3.75-3.117.098-6.234-.535-8.965-2.046.149-1.122 1.461-.829 2.242-1.122.778-.679 2.145-.632 2.727-1.605-.391-.879-1.559-.73-2.336-.926-1.563-.246-3.121-.73-4.727-.633a5.15 5.15 0 0 0-3.312 1.215c-1.024-.144.293-1.312.535-1.801 1.219-1.558 2.727-3.07 4.629-3.75-.731-1.316-2.535-1.511-3.313-2.777-3.265-3.363-4.824-7.992-5.312-12.57-.828-7.457 1.172-14.957 4.336-21.684 2.633-5.457 5.359-10.91 7.992-16.367 1.461-2.68 3.117-5.508 5.941-6.918 2.68-1.316 6.09-1.219 8.672.387 3.461 1.754 6.727 3.703 10.039 5.652 7.649 5.117 13.883 12.035 19.293 19.442 1.852 2.824 2.825 6.187 3.313 9.546.586 4.778-.293 9.793-2.875 13.887-.828 1.363 1.168 1.754 2.144 1.996.875.344 2.973.781 2.289 2.047-1.023.633-2.339.242-3.363.828-1.312.535-2.484 1.317-3.699 1.949.242 1.122 1.559 1.024 2.336 1.61 1.656 1.508 3.215 3.41 3.508 5.699.39.828-.047 2.438-1.168 1.852-.489-.879-1.461-1.266-2.34-1.559-2.289-.926-4.774-1.023-7.16-1.414-1.317 1.363-2.633 2.973-4.629 3.215-1.61.344-3.461 0-4.727-1.121-1.07.636-.195 1.902-.144 2.777.191.684-.489 1.754-1.024.781-1.218-1.121-2.875-1.461-4.336-2.093-.73-.149-1.609-.829-2.242-.196-.293 1.024.488 1.899.731 2.778 1.8 4.382 4.578 8.378 5.41 13.054.191 1.024.582 2.145.144 3.121-.586 1.071-2 1.118-3.07.973a11 11 0 0 1-1.168-.242m.289-.391c-1.215.488-1.117-2.047.102-1.121.922.098 2.531-.195 2.968.731-.484 1.218-2.14.437-3.07.39m2.34-1.219c-.777-.535-2.484.391-2.68-.875.149-.878.684-1.707.586-2.632-.051-1.559-.683-3.02-1.265-4.434-1.754-3.945-4.094-7.602-5.797-11.598 1.168-.386 2.289.442 3.41.782.973 1.023.73 2.582 1.508 3.703 1.707 3.945 4.093 7.601 5.215 11.84.195 1.07.242 2.191.242 3.312-.438 0-.828.051-1.219-.098m-22.801-13.25c-1.414-.39-3.019-.39-4.14-1.414 1.707-.535 3.46-1.074 4.824-2.339 2.191-1.801 3.457-4.532 5.652-6.332.731-.586 1.606-1.024 2.531-1.122.731 1.168-1.461 1.266-1.656 2.289-1.121 1.461-1.707 3.215-2.726 4.727 1.605-1.172 1.898-3.363 3.359-4.727.633-.632 1.414-1.609 2.437-1.218 1.024.73 1.414 2 2.192 2.926.535 1.167-.242 2.386-.778 3.41-1.218 2.093-3.507 3.554-5.945 3.847-1.898.293-3.847.243-5.75-.047m24.848-2.972c-3.215-2.242-7.211-2.731-10.766-4.145-1.754-.777-3.461-2.386-3.312-4.429 0-1.122.73-2.391 1.898-2.489 1.317.149 1.656 1.707 2.535 2.438 1.852 1.656 4.336 2.34 6.332 3.801.731.339-.586-.782-.828-.879-1.558-1.024-3.41-1.606-4.824-2.825a6.1 6.1 0 0 1-1.801-2.046c.535-.489.293-1.61 1.41-1.461 1.95-.243 3.899.535 5.508 1.605 1.656 1.121 2.922 2.875 3.41 4.875.489 1.656.535 3.41.926 5.113.047.293-.148.684-.488.442m-25.09-1.852c-2.73-.828-5.652-1.316-8.527-.879-.243.977-1.754-.242-.633-.484 1.363-1.512 3.117-2.684 5.019-3.461 1.899.488 3.797 1.219 5.746 1.363-.144 1.075-1.703.246-2.484.489-1.219 0-2.434 0-3.652.097 2.144.391 4.383.196 6.578.098.68-.879 1.801.73.633.973-.535.925-1.364 2.484-2.68 1.804m28.988-.488c-1.265-.293-2.828-.586-3.508-1.852-.195-.586-.781-2.386.438-1.656 2 1.266 4.629 1.266 6.82.34-1.363 0-2.629.586-3.945.344-1.512-.196-3.117-.782-4.043-2.047-.535-1.024-1.172-2.047-2.191-2.68-.782-1.172 1.07-1.656 1.898-1.269 3.508.441 6.234 3.023 9.645 3.703 1.074-.535 1.609 1.172.976 1.851-.683.489-1.121 1.317-1.754 1.852-1.168 1.023-2.777 1.754-4.336 1.414m16.176-.684c-2.484-1.996-5.797-2.531-8.918-2.433-1.168-.442.637-2.387-.875-2.485-.437-.097-1.805.098-1.461-.437 2.68 0 5.309.34 7.844 1.168-1.852-1.461-4.336-1.461-6.531-1.363-.633.289-1.215-.442-.289-.442 1.461-.437 2.824-1.168 4.336-1.558 1.558.097 2.824 1.218 3.992 2.144 1.558 1.461 2.633 3.606 2.293 5.797-.196 0-.196-.34-.391-.391m-42.582-2.773c-3.754-.539-7.602-1.512-10.719-3.754-1.07-1.219-1.656-2.727-2.582-4.043-2.289-4.336-2.437-9.402-2.289-14.18.391-6.672 2.973-13.007 5.797-19 2.484-5.457 4.773-10.961 8.086-15.929 1.805-2.828 5.117-4.778 8.527-4.532 2.243.196 4.239 1.364 6.141 2.434 2.875 1.805 5.797 3.41 8.574 5.313 5.797 4.285 10.766 9.546 15.442 15.003 2.339 2.778 4.582 5.899 5.168 9.598.679 3.606.535 7.359-.196 10.965-.636 2.336-1.851 4.48-3.023 6.574-4.434-.34-9.063.488-12.813 2.875-.925.781-1.168 2.047-2.191 2.731-1.27.535-2.777-.489-3.945.39-1.075.633-2.243-.148-3.219-.636-1.606-.731-3.653-.778-5.164.292-1.024.442-2.289.442-2.973 1.415 0 1.218-1.168 2.437-2.336 1.707-1.558-.098-2.875.925-3.996 1.949-.586.484-1.41 1.312-2.289.828m-6.773-2.828c-1.414.293-.829-2.727.195-1.414.293.343.926 2.097-.195 1.414m7.941-.242c-1.023-.246-1.07-2.243.098-2.196 1.172.098 1.461 2.438.097 2.293a.4.4 0 0 1-.195-.097m.051-.149c-1.461-.195 0-2.824.73-1.312.34.484.145 1.898-.73 1.312m-8.285-.097c-1.411-.485 1.171-1.801.781-.243-.051.391-.586.684-.781.243m35.175-.34c-.73-.535-2.336-.633-2.433-1.512 1.363-.34 2.777 0 4.14-.387 2.485-.586 4.825-1.804 7.356-2.293.683-.293-1.117-.047-1.41.051-3.024.535-5.75 2.145-8.867 2.191-.829.391-2.829 0-2.098-1.218 1.023-1.461 2.777-2.145 4.387-2.727 3.117-.976 6.382-1.461 9.597-1.121 1.899.195 3.75.731 5.407 1.656-.829.977-2.336.196-3.215 1.024-3.457 1.558-6.528 4.191-10.426 4.629-.828.047-1.656 0-2.438-.293m-35.711-3.801c-.339-.926-1.507-2.242-.437-3.07 1.07-.289 1.898 1.218 1.41 2.046.195-.777-.68-2.335-1.508-1.46-.535 1.167.731 1.996 1.266 2.824-.242.051-.535-.098-.731-.34m12.766-3.266c-1.023-.386-.535-2.676.633-1.945.879.437.73 2.629-.438 2.141l-.097-.094zm.34.149c-1.219-.047-.582-2.68.437-1.657.442.489.539 1.801-.437 1.657m7.894-1.071c.68-1.367-1.753-.832-1.316-.539-.047-1.265 2.289-.632 1.461.489 0 .097-.145.339-.145.05m8.915-.246c-1.266-.39-.145-2.922.878-1.703.387.289.34 1.559.293 1.461.633-.926-1.511-2.094-1.511-.73-.149.144.972 1.41.34.972m7.894-1.558c.242-.34 1.606-1.024.777-.098-.242.148-.535.195-.777.098m-33.519-.875c.73-.926-1.657-1.512-1.219-.344-1.121-1.219 2.094-1.363 1.265.098 0 .05.051.586-.046.246m33.617-.051c-.879-.777-1.075-2.484 0-3.168 1.215.051 1.508 1.656 1.023 2.535-.195.391-.586.828-1.023.633m-.34-.684c-.977-.777.484-2.871 1.265-1.507.438.679-.05 2.339-1.074 1.8a.9.9 0 0 1-.191-.293m7.305-2.093c-1.168-.731.925-2.825 1.218-1.219-.144.633-.535-.973-1.07-.242-.344.437-.293 1.265-.148 1.461m-37.903-2.047c-.73-.828 1.317.246.293.195-.097 0-.195-.098-.293-.195m-10.476-.293c-.438-.973 1.949-.973 1.023-2.094-.144-.828-1.559-.684-1.461.148-.633-.925 1.168-1.464 1.512-.488.824.926-.684 1.852-.442 2.485.442.632-.484.097-.632-.051m10.476-.582c-.879-.586-.586-2.535.633-2.438.926.344.926 1.707.391 2.387-.196.293-.782.488-1.024.051m0-.196c-.828-.535-.148-2.046.778-1.851.781.437.488 2.289-.485 2.094-.097-.047-.195-.145-.293-.243m20.024-.097c-1.317-.438 0-2.824.972-1.707.731.636.051 2.73-.972 1.707m.097-.149c-1.461-.633 1.168-2.336 1.024-.633.144.54-.684 1.512-1.024.633m-9.937-.535c-.586-.828-1.707-2.387-.539-3.117.976-.242 1.414 1.363 1.265 1.754.344-1.121-1.847-1.949-1.507-.438 0 .684 1.218 1.508.972 1.801zm23.336-1.754c.293-.242.926-1.754.875-.633-.145.34-.489.633-.875.633m-.489-1.168c-1.023-.633-1.707-2.144-1.023-3.265.977-.633 1.996.586 2.047 1.464.098.583-.149.829-.149.094 0-1.265-2.14-1.703-1.945-.144.098.925.875 1.754 1.852 1.754-.196.195-.586.339-.782.097m6.09-4.433c.051-.391 1.266-1.071.731-.243-.145.196-.489.387-.731.243m-46.625-.391c-.972-.586.875-2.047 1.168-1.023-.679-.875-1.312.39-1.168 1.023m24.067-.144c-1.024-.34-.633-2.34.488-2.094 1.023.34 1.07 2.484-.195 2.289l-.145-.051zm.195 0c-1.461-.247.098-2.778.73-1.266.293.484.098 1.945-.73 1.266m21.879-.684c-.781-.68-.832-2.434.34-2.629 1.219.289 1.461 2.387.293 2.871a.63.63 0 0 1-.633-.242m.144-.047c-1.265-.441-.195-3.023.875-1.754.442.633.247 2.289-.875 1.754m-38.832-1.414c.293-1.266-1.605-.293-1.461-.098-.144-1.363 2.387-.875 1.657.391-.145.144-.196-.195-.196-.293m25.141.195c-.098-.586 1.023-1.511.488-.39-.148.144-.293.293-.488.39m-1.07-1.265c-1.074-.391-1.27-2.778.191-2.489 1.074.293 1.66 2.145.539 2.731-.293.098-.586-.051-.73-.242m.047-.246c-1.414-.243-.293-2.875.781-1.606.633.535.34 2.582-.781 1.606m-16.664-.243c-.536-.781-1.215-2.093-.29-2.921.68-.344 1.508 1.507.583.437-1.266-.148-1.168 1.605-.196 2.047.246.191.684.973 0 .535zm-12.762-3.363c-.293-.973 1.312.781.097.051-.05 0-.05-.051-.097-.051m.195-.73c-.832-.731-.976-2.336.047-2.969 1.172-.051 1.559 1.508 1.121 2.387-.195.437-.683 1.019-1.168.582m.192.05c-.829-.539-1.024-2.242.097-2.484.977.098 1.074 1.461.586 2.141a.85.85 0 0 1-.683.343m36.054-1.851c.242-.293.926-1.805.977-.731-.149.387-.488.778-.977.731m-.972-1.559c-.782-.73-1.172-2.242-.196-2.972 1.071-.196 1.754 1.023 1.801 1.996.246.828-1.023 2.097-1.605.976m.144-.051c-1.121-.488-.828-3.117.633-2.242.879.489.976 2.684-.34 2.489l-.144-.098zm-11.887-2.679c-1.218-.34-.828-2.973.536-2.047.683.488.73 2.484-.536 2.047m-18.711-.242c-.875-.586-.339-2.582.879-2.145.828.586.438 2.68-.781 2.242-.047 0-.098-.051-.098-.097m18.711.046c-1.511-.292.196-2.875.778-1.218.246.488 0 1.804-.778 1.218m-18.613-.046c-1.219-.586.539-2.829.977-1.317.144.586-.246 1.656-.977 1.317m11.012-.536c-1.317-.441-.195-3.07.781-1.804.34.633.047.488-.246.097-1.508-.339-1.07 2.387.344 1.754.437.243-1.024.438-.879-.047m7.355-6.285c1.121-.781-1.07-2.828-1.215-1.316.098.34.485 1.363-.195.683-.73-.976 1.024-2.292 1.512-1.023.242.484.531 1.313-.102 1.656m-13.738-1.804c-1.168-.34-.535-2.778.633-1.95.926.489.637 2.926-.633 1.95m.246.148c-1.367-.195-.195-2.875.633-1.465.293.539.293 1.805-.633 1.465m5.895-4.144c-1.27-.387-.391-2.922.73-1.95.242.344.633 1.465.242.489-.828-.829-1.996.586-.972 1.218.144.098.339.586 0 .243"/><path fill="#ffc13f" d="M204.969 167.188c-1.512-.34.535-2.583.777-.875.195.488-.195 1.609-.777.875m-8.625-.29c-.535-1.269 1.949-.05.683.387-.246-.047-.488-.195-.683-.387m-.242-4.726c-1.172-.149-.442-2.484.535-1.656.535.437.484 2.238-.535 1.656m13.007-2.438c-1.511-.242.438-2.679.778-1.023.195.488-.098 1.754-.778 1.023m7.161-.242c-1.461-.539 1.074-2.387.781-.633 0 .387-.391 1.071-.781.633m-24.946-.683c-1.121-.633 1.172-1.61.684-.34.051.39-.586.926-.684.34m34.836-.293c-1.414-.582.977-2.485.977-.731.144.488-.489 1.512-.977.731m-26.601-2.047c-1.317-.289.73-2.141.73-.731.344.442-.437 1.61-.73.731m34.3-.778c-.632-.586-.339-2.242.633-2.093 1.024.386.586 2.531-.586 2.093zm7.309-2.386c-1.219-.879 1.605-1.852.875-.391-.098.34-.582.875-.875.391m-48.188-2.875c-1.312-.149-.339-2.828.54-1.512.242.535.144 1.461-.54 1.512m10.137-.149c-.926-.535.196-2.386.973-1.605.488.586-.047 2.289-.973 1.605m20.168-.34c-1.461-.679 1.27-2.144.926-.437.098.484-.731 1.316-.926.437m-10.328-1.511c-1.512-.289.488-2.727.781-1.024.196.489-.097 1.754-.781 1.024m22.852-2.387c-1.024-.484-.731-3.02.632-2.094.829.535.875 2.485-.39 2.289l-.098-.047zm-39.856-3.945c-1.168-.684 1.168-2.192.926-.586.051.441-.582 1.218-.926.586m23.875-.684c-1.461-.34.633-2.531.828-.926.293.489-.246 1.805-.828.926m22.313-.437c-.828-.293-.926-1.997.05-2.145.973.098 1.071 2.145-.05 2.145m-40-.731c-1.317-.73 1.269-2.144.879-.586.046.442-.586 1.219-.879.586m25.187-2.047c-.973-.144-.926-1.801 0-1.949.93.098 1.367 1.902.344 2.098a.45.45 0 0 1-.344-.149m-16.953-1.265c-1.461-.438.781-2.438.879-.829.191.489-.391 1.61-.879.829m-12.473-3.461c-1.168-.582.098-2.969.977-1.657.387.633 0 2.243-.977 1.657m35.469-3.164c-1.121-.489-.586-3.071.684-2.047.828.535.828 2.535-.442 2.242l-.093-.098zm-30.449-2.926c-1.317-.535.73-2.727.926-1.07.047.488-.293 1.363-.926 1.07m18.465-.047c-1.461-.488.926-2.387.926-.781.195.488-.442 1.558-.926.781m-7.114-.293c-1.511-.098-.144-2.922.489-1.219.191.438.144 1.219-.489 1.219m6.137-6.867c-1.461-.735 1.219-2.196 1.024-.539.195.633-.778 1.414-1.024.539m-12.812-1.465c-1.508-.34.683-2.531.828-.875.148.437-.34 1.703-.828.875m6.187-4.043c-1.512-.438.781-2.484.879-.828.145.437-.391 1.609-.879.828"/></g><path fill="#bc9a16" d="M1 150.773c0-68.597 90.55-70.867 170.078-70.867 79.527 0 170.078 2.27 170.078 70.867 0-15.656-76.144-28.347-170.078-28.347C77.148 122.426 1 135.117 1 150.773"/><path fill="none" stroke="#000" stroke-linecap="round" stroke-linejoin="round" stroke-width="2" d="M1 150.773c0-68.597 90.55-70.867 170.078-70.867 79.527 0 170.078 2.27 170.078 70.867 0-15.656-76.144-28.347-170.078-28.347C77.148 122.426 1 135.117 1 150.773"/><path fill="#d3ae37" d="M902.57 71.871c0 15.656-76.148 28.348-170.078 28.348-93.933 0-170.082-12.692-170.082-28.348 0-15.652 76.149-28.344 170.082-28.344 93.93 0 170.078 12.692 170.078 28.344"/><path fill="none" stroke="#000" stroke-linecap="round" stroke-linejoin="round" stroke-width="2" d="M902.57 71.871c0 15.656-76.148 28.348-170.078 28.348-93.933 0-170.082-12.692-170.082-28.348 0-15.652 76.149-28.344 170.082-28.344 93.93 0 170.078 12.692 170.078 28.344M732.492 298.645 893.898 80.832M732.492 298.645 678.73 98.773m53.762 199.872L581.395 58.844m151.097 239.801v19.839"/><g fill-rule="evenodd"><path d="M695.582 117.414c-2.289-1.41-4.387-4.094-4.387-5.652 0-.922.828-2.239 2.582-4.09 1.414-1.512 3.121-3.801 3.754-5.117l1.121-2.387-1.367-2.73c-.777-1.508-1.898-4.383-2.484-6.43-6.379-20.754-12.91-28.356-35.223-40.828-6.969-3.848-9.402-5.75-11.012-8.282-1.511-2.535-1.511-5.117.149-7.504 4.773-7.062 24.066-6.187 40.094 1.805 11.742 5.797 20.316 14.13 24.75 24.02 5.066 11.156 6.285 22.8 3.363 31.715-1.121 3.41-4.531 8.476-6.676 9.89-1.461.977-1.949 1.754-2.68 4.531-1.363 5.016-4.187 10.329-5.992 11.254-1.996 1.024-4.094.977-5.992-.195m5.555-4.383c-.586-1.074-.442-1.66.972-4.433 2.192-4.336 4.532-11.84 5.555-17.785 4.387-25.774-14.664-49.985-43.312-55.004-2.485-.442-5.7-.782-7.114-.782-1.949 0-2.629-.242-3.019-1.023-.489-.926-.34-1.07 1.414-1.559 2.871-.828 11.351-.68 16.222.246 15.2 2.871 28.942 11.352 36.297 22.457 10.621 15.934 11.008 37.809.778 44.875-1.852 1.266-2.239 1.946-3.457 5.844-1.219 3.946-3.071 8.332-3.559 8.332-.047 0-.437-.535-.777-1.168m-4.094-2.777-1.703-.731 1.801-2.293c.925-1.265 2.144-3.359 2.629-4.675.925-2.336.925-2.336-.68-6.14-.828-2.095-2.289-6.188-3.215-9.013-3.656-11.449-7.066-17.343-13.738-24.02-5.168-5.163-8.625-7.6-19.344-13.788-8.625-4.918-11.645-6.965-12.035-8.04-.145-.34.73-1.605 1.902-2.87l2.141-2.243 4.094.34c12.035 1.024 24.019 6.14 32.546 13.985 6.965 6.43 11.497 13.785 13.883 22.558 1.367 5.016 1.656 16.465.539 21.094-1.754 7.164-4.093 13.059-6.14 15.445-.926 1.024-1.121 1.071-2.68.391"/><path fill="#f5a701" d="M698.359 118.535c.387-.144.829-.097 1.024.051.144.191-.149.289-.684.289-.633-.047-.73-.145-.34-.34m-5.41-2.875-1.508-1.703 1.704 1.508c.925.879 1.656 1.609 1.656 1.707 0 .391-.391.047-1.852-1.512m10.477.098c.195-.242.437-.488.586-.488.144 0 .097.246-.051.488-.195.293-.438.535-.582.535-.149 0-.149-.242.047-.535m-2.289-2.727c-.586-1.074-.442-1.66.972-4.433 2.192-4.336 4.532-11.84 5.555-17.785 4.387-25.774-14.664-49.985-43.312-55.004-2.485-.442-5.7-.782-7.114-.782-1.949 0-2.629-.242-3.019-1.023-.489-.926-.34-1.07 1.414-1.559 2.871-.828 11.351-.68 16.222.246 15.2 2.871 28.942 11.352 36.297 22.457 10.621 15.934 11.008 37.809.778 44.875-1.852 1.266-2.239 1.946-3.457 5.844-1.219 3.946-3.071 8.332-3.559 8.332-.047 0-.437-.535-.777-1.168m-.828-4.875c.972-1.605 2.14-4.09 2.629-5.504s.976-2.484 1.074-2.339c.633.585-3.754 9.746-4.969 10.527-.297.144.289-1.027 1.266-2.684m5.992 1.903c0-.391.144-.536.34-.34a.467.467 0 0 1 0 .679c-.196.196-.34.051-.34-.339m-10.672-.489c-.145-.242.148-.781.637-1.168.828-.632.828-.586.242.145-.586.73-.586.926 0 1.172.437.144.488.242.047.289-.34 0-.778-.145-.926-.438m-2.094-2.144c1.121-1.121 2.145-2.043 2.289-2.043.149 0-.679.922-1.801 2.043-1.121 1.172-2.144 2.097-2.289 2.097-.148 0 .68-.925 1.801-2.097m13.25 1.074c0-.391.195-.535.391-.344a.473.473 0 0 1 0 .684c-.196.195-.391.051-.391-.34m-9.109-2.098c.195-.293.437-.535.586-.535.144 0 .144.242-.047.535-.195.293-.442.539-.586.539-.149 0-.098-.246.047-.539m1.367-2.093c.727-1.61.973-1.899.973-1.219 0 .293-.34.976-.782 1.512-.777.972-.777.925-.191-.293m8.816.535c0-.391.145-.535.34-.34a.47.47 0 0 1 0 .684c-.195.195-.34.046-.34-.344m1.801-2.629c.195-.246.442-.488.586-.488.149 0 .149.242-.047.488-.195.293-.441.535-.586.535s-.097-.242.047-.535m-9.644-.488c0-.391.195-.536.39-.34a.58.58 0 0 1 0 .679c-.195.196-.39.051-.39-.339m.39-2.047c-.195-.875-.148-1.07.242-.684.293.293.438.832.34 1.223-.144.386-.386.144-.582-.54m3.895-.586c0-.438.195-1.363.441-2.094.34-1.023.391-1.07.438-.242 0 .586-.196 1.511-.438 2.094-.293.632-.441.73-.441.242m9.015-.485c.196-.293.438-.535.582-.535.149 0 .098.242-.046.535-.196.243-.438.485-.586.485-.145 0-.094-.242.05-.485m-13.984-1.367c-.535-1.265-.391-1.605.246-.582.289.535.438 1.07.289 1.219-.097.144-.387-.148-.535-.637M714.387 97c.148-.242.437-.484.535-.484.148 0 .148.242-.047.484-.145.293-.437.535-.586.535-.144 0-.098-.242.098-.535m-9.16-2.047c0-.387.195-.535.39-.34.149.145.149.489 0 .684-.195.191-.39.047-.39-.344m-9.887-1.07c0-.39.144-.535.34-.34a.47.47 0 0 1 0 .68c-.196.195-.34.05-.34-.34m2.629 0c0-.39.144-.535.34-.34a.47.47 0 0 1 0 .68c-.196.195-.34.05-.34-.34m7.894-1.559c0-.73.098-1.023.242-.633.145.34.145.926 0 1.313-.144.344-.242.05-.242-.68m-8.429 0c0-.39.144-.535.339-.343a.47.47 0 0 1 0 .683c-.195.195-.339.05-.339-.34m-.536-1.558c0-.391.145-.54.34-.344a.47.47 0 0 1 0 .684c-.195.195-.34.05-.34-.34m-3.121-1.559c0-.39.149-.539.344-.344s.195.489 0 .684-.344.047-.344-.34m2.633 0c0-.39.145-.539.34-.344s.195.489 0 .684-.34.047-.34-.34m10.086-4.434c0-2.875.047-3.949.195-2.437.094 1.512.094 3.848 0 5.21-.148 1.317-.195.102-.195-2.773m11.301 3.606c0-.586.148-.73.293-.293.148.34.148.828 0 .973-.195.195-.34-.145-.293-.68m-21.922-.73c0-.391.145-.54.34-.344s.195.488 0 .683-.34.047-.34-.34m-2.633-.54c0-.39.196-.535.391-.34a.595.595 0 0 1 0 .684c-.195.195-.391.047-.391-.344m2.145-1.316c.051-.633.144-.73.293-.34.195.39.144.828 0 1.024-.196.144-.293-.145-.293-.684m-2.629-.242c0-.39.144-.535.34-.34a.473.473 0 0 1 0 .683c-.196.192-.34.047-.34-.343m25.625-.778c0-.879.097-1.12.242-.632.148.484.148 1.215 0 1.558-.145.34-.242-.05-.242-.926m-24.067-1.804c0-.39.145-.535.34-.34.196.144.196.484 0 .68-.195.195-.34.05-.34-.34m-.539-1.559c0-.39.149-.535.344-.39.195.195.195.535 0 .73s-.344 0-.344-.34m-.972-2.387c-.828-1.902-.684-2.34.242-.585.441.828.73 1.558.586 1.706-.098.098-.488-.39-.828-1.12M718.383 78c0-.879.097-1.121.242-.633.148.485.148 1.219 0 1.559-.145.34-.242-.051-.242-.926m-12.52-.242c0-.73.098-1.024.242-.684.145.39.145.973 0 1.317-.144.34-.242.046-.242-.633m-16.226 0c0-.39.148-.54.343-.344a.48.48 0 0 1 0 .684c-.195.195-.343.046-.343-.34m15.64-2.926c.047-.586.145-.73.34-.293.149.344.098.828-.047.977-.195.195-.293-.149-.293-.684m-15.152-1.266c-.293-.585-.437-1.023-.293-1.023.148 0 .535.438.828 1.023s.438 1.07.293 1.07c-.144 0-.488-.484-.828-1.07m27.672.243c0-.633.148-.73.293-.34.148.39.148.828 0 1.023-.195.145-.34-.148-.293-.683m-13.008-1.07c0-.587.149-.731.293-.294.145.34.145.828-.051.973-.144.195-.289-.094-.242-.68m-16.027-1.317c-.196-.39-.098-.488.242-.242.34.195.633.484.633.586 0 .437-.489.242-.875-.344m15.441-.438c0-.39.149-.535.344-.34.195.145.195.485 0 .68s-.344.051-.344-.34m-19.047-.632c-.246-.344-.148-.442.196-.196.632.34.828.828.386.828-.144 0-.386-.293-.582-.632m2.582-.489c-.246-.39-.148-.488.242-.242.586.387.782.828.34.828-.093 0-.386-.293-.582-.586m-4.433-1.898c-.633-.828-.633-.828.195-.196.875.68 1.121 1.122.73 1.122-.144 0-.535-.391-.925-.926m2.582-.488c-.633-.829-.633-.88.195-.246.875.683 1.168 1.12.731 1.12-.098 0-.536-.386-.926-.874m17.101.097c-.539-1.316-.39-1.656.242-.586.293.489.438 1.024.293 1.168-.144.149-.39-.144-.535-.582m13.203-.242c0-.39.145-.539.34-.344a.47.47 0 0 1 0 .684c-.195.195-.34.047-.34-.34m-.539-1.562c0-.387.149-.536.344-.34s.195.488 0 .683c-.195.192-.344.047-.344-.344m-33.617-2.727-2.582-2.777 2.731 2.632c2.535 2.387 2.972 2.871 2.582 2.871-.098 0-1.317-1.265-2.731-2.726m18.762.098c-.195-.344-.246-.684-.102-.828.149-.149.391.097.539.535.387.925.094 1.12-.437.293m-24.024-1.61c-.195-.386-.093-.488.247-.242.339.195.632.488.632.582 0 .441-.488.246-.879-.34m22.95-.535c-.243-.39-.145-.488.242-.242.344.195.586.484.586.582 0 .441-.438.246-.828-.34m-25.285-1.363c-.633-.828-.633-.828.195-.196.875.68 1.168 1.122.73 1.122-.148 0-.535-.442-.925-.926m2.875-.781-.977-1.168 1.172.972c.633.586 1.168 1.075 1.168 1.172 0 .438-.438.145-1.363-.976m21.386.586c-.242-.391-.144-.489.196-.243.632.387.828.828.39.828-.148 0-.39-.246-.586-.586m-26.066-1.075c-.242-.34-.145-.437.246-.191.293.191.586.437.586.582 0 .441-.442.246-.832-.39m24.75-.828c-.68-.824-.633-.824.195-.191.828.68 1.121 1.12.684 1.12-.098 0-.489-.39-.879-.929m-26.309-.191c-.242-.39-.144-.442.246-.246.289.195.582.488.582.633 0 .44-.484.195-.828-.387m4.141 0c-.195-.39-.145-.442.246-.246.34.195.586.488.586.633 0 .44-.442.195-.832-.387m-2.043-1.563c-.246-.386-.149-.484.191-.242.344.195.633.488.633.633 0 .39-.484.195-.824-.39m19.535-3.457-3.363-3.508 3.508 3.36c1.949 1.855 3.558 3.46 3.558 3.558 0 .34-.535-.144-3.703-3.41m17.441 1.899c-.242-.387-.144-.485.247-.242.289.195.582.488.582.585 0 .438-.438.243-.829-.343m-44.824-.535c-.242-.391-.144-.438.246-.243.34.242.582.485.582.633 0 .438-.437.195-.828-.39m4.192-.196c-.973-.777-.973-.777.144-.242.684.293 1.172.68 1.172.781 0 .438-.242.29-1.316-.539m-2.582-1.558c-.973-.778-.973-.778.144-.243.637.293 1.172.68 1.172.778 0 .441-.293.293-1.316-.535m40.339-1.657c-.679-.828-.632-.875.196-.195.879.684 1.121 1.074.683 1.074-.097 0-.488-.39-.879-.879m-43.992-.437c-.976-.781-.976-.781.145-.246.633.293 1.168.683 1.168.828 0 .39-.242.246-1.313-.582m24.457-1.95-.976-1.167 1.172 1.02c1.07.925 1.41 1.366.972 1.366-.097 0-.633-.535-1.168-1.218m-28.113-.148c-.973-.777-.973-.777.148-.242.633.344 1.168.684 1.168.828 0 .39-.242.293-1.316-.586m26.02-1.363c-.196-.34-.149-.438.242-.195.34.195.586.441.586.586 0 .437-.442.246-.828-.391m-34.641-1.313c-.684-.832-.637-.879.191-.195.879.68 1.121 1.07.684 1.07-.098 0-.488-.39-.875-.875m4.434.29c-.247-.387-.149-.438.242-.243.293.196.586.489.586.633 0 .438-.442.195-.828-.39m28.648 0c-.246-.387-.148-.438.242-.243.34.196.582.489.582.633 0 .438-.437.195-.824-.39m-30.207-1.02c-.246-.39-.149-.488.242-.246.293.195.582.488.582.586 0 .437-.484.242-.824-.34m24.016-2.098c-2.29-1.12-3.602-1.898-2.875-1.703 1.558.438 7.308 3.262 7.308 3.606 0 .34.391.484-4.433-1.903m22.609 1.266c-.684-.828-.637-.875.191-.242.879.683 1.121 1.12.684 1.12-.098 0-.488-.39-.875-.878m-48.965-1.07-1.269-1.414 1.414 1.27c1.363 1.167 1.707 1.605 1.265 1.605-.094 0-.73-.68-1.41-1.461m-2.875.34c-.242-.387-.144-.485.242-.243.293.196.586.489.586.586 0 .438-.437.242-.828-.344m49.5-1.07c-.242-.392-.144-.438.242-.243.293.242.586.484.586.633 0 .437-.437.195-.828-.39m-25.578-1.802a.47.47 0 0 1 .684 0c.195.145.046.34-.344.34-.391 0-.535-.195-.34-.34m-20.219-.734c.145-.29.438-.484.582-.484.149 0 .098.195-.047.484-.195.293-.488.539-.586.539-.144 0-.144-.246.051-.539m18.66.195a.47.47 0 0 1 .684 0c.191.196.047.344-.344.344s-.535-.148-.34-.344m-1.851-.535c.39-.144.828-.144 1.023.05.145.145-.148.29-.683.243-.633 0-.731-.148-.34-.293m24.312-.242c-.246-.39-.148-.488.196-.246.339.195.632.488.632.633 0 .39-.488.195-.828-.387m-26.359-.293c.34-.145.828-.098.973.047.195.195-.145.293-.68.293-.586-.047-.731-.145-.293-.34m-2.094-.488c.387-.145.828-.145.973 0 .195.195-.098.343-.684.293-.582 0-.73-.145-.289-.293m-10.914-.875c.242-.246 1.703-.344 3.266-.246l2.773.148-3.215.29c-1.8.148-3.066.05-2.824-.192m7.5.34c.488-.149 1.219-.149 1.563 0 .339.144-.051.242-.926.242-.879 0-1.168-.098-.637-.242m-13.445-2.778c.195-.293.437-.535.586-.535.144 0 .144.242-.047.535-.195.293-.442.535-.586.535-.149 0-.098-.242.047-.535m33.812-1.363a.47.47 0 0 1 .684 0c.195.144.047.34-.344.34-.387 0-.535-.196-.34-.34m-1.558-.535c.144-.196.488-.196.683 0 .196.191.047.34-.343.34-.387 0-.536-.149-.34-.34m-29.621-.684c.144-.293.437-.535.582-.535.148 0 .097.242-.094.535-.149.242-.442.488-.586.488-.098 0-.098-.246.098-.488m28.011.145a.53.53 0 0 1 .731 0c.195.195 0 .343-.34.343-.391 0-.535-.148-.391-.343m-6.234-1.559a.47.47 0 0 1 .684 0c.195.195.046.344-.344.344-.391 0-.535-.149-.34-.344m-17.199-.535c.195-.195.535-.195.683 0 .196.195.047.34-.343.34-.387 0-.536-.145-.34-.34m14.324 0c.391-.145.828-.145 1.023.05.145.196-.144.29-.683.29-.633-.047-.731-.145-.34-.34m-11.254-.535c.535-.098 1.363-.098 1.852 0 .488.144.097.242-.926.242-.977 0-1.414-.098-.926-.242m6.039 0c.637-.098 1.563-.098 2.047 0 .535.144 0 .242-1.168.242-1.121 0-1.559-.098-.879-.242"/><path fill="#fcd900" d="m697.043 109.961-1.168-.586 1.852-2.484c.972-1.364 2.14-3.457 2.582-4.727.777-2.094.73-2.336-.442-4.871-.679-1.414-2.336-5.992-3.699-10.184-6.141-18.609-13.352-26.648-34.691-38.586-3.801-2.144-7.793-4.675-8.914-5.601l-2.047-1.754 2.093-2.098 2.145-2.14 4.531.34c8.332.632 19.684 4.578 26.453 9.257 3.703 2.532 9.989 8.672 12.477 12.18 2.871 4.14 5.601 9.988 6.816 14.86 1.465 5.75 1.367 18.124-.144 23.19-1.559 5.165-2.973 8.77-4.578 11.45-1.461 2.531-1.512 2.582-3.266 1.754"/><path fill="#247040" d="M767.641 116.414c-.633.293-1.121-.437-.879-.973.246-.73.926-.05 1.414-.148.73.051 1.605-.098 2.242.437.586.54-.488 1.075-1.023.977-.586-.051-1.172-.242-1.754-.293m2.777-.684c-.73-.484-2.535-.195-3.266-.679-.488-.442.293-1.317.391-1.805.293-.68.391-1.461.242-2.191-.242-1.61-1.07-3.02-1.754-4.485-1.703-3.652-3.652-7.16-5.261-10.91 1.023-.39 2 .293 2.972.582.778.195 1.024 1.074 1.219 1.754.144.73.293 1.414.68 2.047 1.464 3.266 3.168 6.434 4.629 9.695.585 1.657.925 3.41.878 5.117.391 1.317-.339 1.122-.73.875m-23.289-13.785c-1.512-.39-3.168-.539-4.434-1.511 2.825-.438 5.36-2.047 7.211-4.192 1.024-1.46 1.754-3.215 3.266-4.238.777-.582 1.703-1.023 2.676-1.07.636 0 1.023.535 1.558.828.93.683 1.121 1.996 2.098 2.629.535 1.12.098 2.437-.488 3.46-.68 1.168-1.657 2.387-2.778 3.118-2.535 1.511-5.699 1.461-8.523 1.074-.195-.051-.391-.051-.586-.098m24.848-2.972c-2.829-1.903-6.239-2.582-9.454-3.606-1.023-.293-1.996-.73-2.824-1.46-1.219-1.024-2.097-2.68-1.754-4.337.243-.976 1.219-1.851 2.243-1.511.535.047 1.07.683 1.265.047.195-.485.34-1.168 1.024-1.168 2.531-.243 5.066.828 6.82 2.632a8.37 8.37 0 0 1 2.484 4.918c.34 1.559.489 3.121.586 4.68-.097.195-.344-.05-.39-.195m-25.09-1.754c-2.731-.828-5.703-1.414-8.578-.977-.243.828-1.559-.047-.582-.386 1.214-1.657 3.07-2.731 4.918-3.462 1.66 0 3.121.782 4.679 1.07.731.442 1.899.345 2.727.638.73.34-.488 1.507-.731 1.945-.437.539-.828.976-1.507 1.219-.293.097-.637.148-.926-.047m28.984-.586c-1.215-.293-2.578-.535-3.359-1.606-.293-.488-.438-1.12-.438-1.707 0-.78.926 0 1.024-.047-.442-.539-.977-.925-1.461-1.414-.539-1.023-1.172-2.144-2.196-2.73-.488-.535 0-1.266.633-1.363.586-.196 1.172.05 1.754.148 3.266.582 5.899 2.922 9.16 3.605.535-.343 1.168.192 1.219.731.145.582-.144 1.117-.633 1.46-.586.634-1.07 1.364-1.804 1.9-1.122.828-2.532 1.316-3.899 1.023m16.176-.68c-2.238-1.754-5.164-2.39-7.942-2.437-.484-.098-1.167.195-1.363-.391-.195-.633.344-1.266.051-1.852-.391-.39-1.023-.195-1.559-.292-.441.097-.683-.536-.148-.387.293.097 1.023 0 .437-.293-.484-.39.54-.246.782-.489 1.265-.437 2.484-1.07 3.847-1.414 1.563.098 2.828 1.22 4.043 2.145 1.512 1.46 2.582 3.656 2.243 5.797-.196 0-.196-.34-.391-.387m-14.469-6.434c-.683-.535-1.656-.488-2.289-1.167-.586-.586 1.024-.246.731-.633-.875.387-.875.387-1.707-.293-.633-.977.343-1.512.683-1.852 1.172-1.07 2.68-1.61 4.094-2.093 3.41-.977 7.062-1.465 10.57-.782 1.414.293 2.778.782 3.996 1.461-.683.781-1.801.438-2.679.73-.489.247-1.024.587-1.61.829-2.726 1.414-5.355 3.312-8.476 3.949-1.071.242-2.243.242-3.313-.149"/><path fill="#d1242b" d="M739.137 89.715c-1.801-1.899-2.969-4.29-3.895-6.676-1.363-3.992-1.609-8.281-1.316-12.473.488-4.87 1.996-9.597 3.898-14.078 1.946-4.336 3.848-8.672 5.942-12.91 1.316-2.68 2.632-5.312 4.386-7.7 1.852-2.386 4.676-4.19 7.793-4.042 2.145 0 4.094 1.07 5.899 2.145 2.871 1.605 5.648 3.359 8.523 5.066 6.918 5.016 12.766 11.398 18.074 18.027 1.661 2.192 2.926 4.723 3.266 7.5.535 3.508.488 7.114-.242 10.621-.535 2.047-1.61 3.899-2.535 5.75-.778 1.266-2.242.684-3.457.73-3.364.196-6.774 1.024-9.696 2.778-.879.73-1.316 1.805-2 2.68-1.265.926-2.968-.34-4.238.586-1.07.582-2.34-.098-3.266-.633-1.656-.734-3.699-.734-5.21.289-1.024.39-2.29.54-3.02 1.512.195 1.12-1.074 2.191-2.145 1.707-.976-.293-2.046.34-2.875.875-.925.535-1.605 1.61-2.679 1.949-3.555-.293-8.821-2.047-11.207-3.703"/><path d="M767.297 116.902c-1.266.047-2.094-1.804-.777-2.386 1.265-1.368.972-3.411.437-5.02-.828-2.633-2.387-4.871-3.605-7.308-.926-1.801-1.899-3.653-2.629-5.504-1.27.195-.926 1.8-1.707 2.484-1.899 2.434-5.02 3.652-8.086 3.75-3.117.098-6.239-.535-8.965-2.047.144-1.121 1.461-.828 2.238-1.121.781-.68 2.145-.633 2.731-1.606-.391-.878-1.559-.73-2.34-.925-1.559-.246-3.117-.73-4.727-.633a5.16 5.16 0 0 0-3.312 1.215c-1.024-.145.293-1.313.539-1.801 1.215-1.559 2.726-3.07 4.625-3.75-.731-1.316-2.531-1.512-3.313-2.777-3.261-3.364-4.82-7.992-5.308-12.57-.828-7.454 1.168-14.958 4.336-21.68 2.629-5.457 5.359-10.914 7.988-16.371 1.465-2.68 3.121-5.508 5.945-6.918 2.68-1.317 6.09-1.22 8.672.39 3.457 1.754 6.723 3.7 10.035 5.649 7.653 5.117 13.887 12.035 19.293 19.441 1.852 2.824 2.828 6.188 3.317 9.547.582 4.777-.293 9.793-2.875 13.887-.829 1.363 1.168 1.754 2.14 1.996.879.344 2.973.781 2.293 2.047-1.023.632-2.34.246-3.363.828-1.316.539-2.484 1.316-3.703 1.949.246 1.121 1.558 1.023 2.34 1.61 1.656 1.507 3.214 3.41 3.507 5.699.391.828-.05 2.437-1.168 1.851-.488-.875-1.464-1.266-2.339-1.559-2.289-.925-4.774-1.023-7.164-1.413-1.313 1.363-2.629 2.972-4.625 3.214-1.61.344-3.461 0-4.727-1.117-1.074.633-.195 1.899-.148 2.774.195.683-.485 1.757-1.024.78-1.215-1.12-2.875-1.46-4.336-2.093-.73-.148-1.605-.828-2.238-.195-.293 1.023.484 1.898.73 2.777 1.801 4.383 4.579 8.379 5.407 13.055.195 1.023.586 2.144.148 3.121-.586 1.07-2 1.117-3.07.973-.391-.047-.781-.145-1.172-.243m.293-.39c-1.219.488-1.121-2.047.098-1.121.925.097 2.535-.196 2.972.73-.488 1.219-2.144.438-3.07.391m2.34-1.219c-.782-.535-2.485.391-2.68-.875.145-.879.684-1.707.586-2.633-.051-1.558-.684-3.019-1.27-4.433-1.753-3.946-4.089-7.602-5.796-11.594 1.168-.39 2.289.437 3.41.777.976 1.024.73 2.582 1.511 3.703 1.704 3.946 4.09 7.602 5.211 11.84.196 1.07.246 2.192.246 3.313-.437 0-.828.05-1.218-.098m-22.801-13.25c-1.414-.391-3.02-.391-4.141-1.414 1.703-.535 3.457-1.074 4.825-2.34 2.191-1.8 3.457-4.531 5.648-6.332.73-.586 1.609-1.023 2.535-1.121.731 1.168-1.461 1.266-1.656 2.289-1.121 1.46-1.707 3.215-2.731 4.727 1.61-1.168 1.903-3.364 3.364-4.727.632-.633 1.414-1.606 2.433-1.219 1.028.73 1.414 2 2.196 2.926.535 1.168-.247 2.387-.782 3.41-1.218 2.094-3.507 3.555-5.941 3.848-1.902.293-3.852.246-5.75-.047m24.848-2.973c-3.215-2.242-7.211-2.73-10.766-4.14-1.758-.782-3.461-2.39-3.316-4.434 0-1.121.734-2.39 1.902-2.484 1.312.144 1.656 1.703 2.531 2.433 1.852 1.657 4.336 2.34 6.336 3.801.731.34-.586-.781-.828-.879-1.563-1.02-3.41-1.605-4.824-2.824a6.06 6.06 0 0 1-1.801-2.047c.535-.484.289-1.605 1.41-1.46 1.949-.243 3.899.534 5.508 1.608 1.652 1.122 2.922 2.875 3.41 4.872.484 1.656.535 3.41.926 5.117.047.289-.149.68-.488.437m-25.09-1.851c-2.731-.828-5.653-1.317-8.528-.88-.246.977-1.754-.241-.632-.483 1.363-1.512 3.117-2.68 5.015-3.462 1.903.489 3.801 1.22 5.75 1.364-.144 1.074-1.703.246-2.484.488-1.219 0-2.438 0-3.653.098 2.141.39 4.383.195 6.575.097.683-.879 1.804.73.633.973-.536.926-1.364 2.484-2.676 1.805m28.984-.488c-1.266-.293-2.824-.587-3.504-1.852-.195-.586-.781-2.387.438-1.656 1.996 1.265 4.629 1.265 6.82.34-1.363 0-2.633.585-3.945.343-1.512-.195-3.117-.781-4.043-2.047-.539-1.023-1.172-2.046-2.196-2.68-.777-1.167 1.075-1.656 1.903-1.265 3.508.438 6.234 3.02 9.644 3.7 1.075-.536 1.61 1.171.977 1.85-.684.49-1.121 1.317-1.754 1.852-1.172 1.024-2.777 1.754-4.34 1.415m16.176-.684c-2.484-1.996-5.797-2.531-8.914-2.434-1.168-.437.633-2.386-.875-2.484-.442-.098-1.805.098-1.465-.438 2.68 0 5.312.34 7.844 1.168-1.852-1.46-4.336-1.46-6.528-1.363-.632.29-1.218-.441-.293-.441 1.461-.438 2.829-1.168 4.336-1.559 1.563.098 2.828 1.219 3.996 2.145 1.559 1.46 2.629 3.605 2.29 5.796-.196 0-.196-.34-.391-.39m-42.578-2.774c-3.754-.539-7.602-1.511-10.723-3.754-1.07-1.218-1.652-2.726-2.578-4.042-2.289-4.336-2.438-9.403-2.289-14.18.387-6.672 2.969-13.008 5.797-19 2.484-5.457 4.773-10.961 8.086-15.93 1.801-2.828 5.117-4.777 8.527-4.531 2.238.195 4.238 1.363 6.137 2.434 2.875 1.804 5.797 3.41 8.578 5.312 5.797 4.285 10.766 9.55 15.441 15.004 2.34 2.777 4.578 5.898 5.164 9.598.684 3.605.536 7.359-.195 10.964-.633 2.336-1.851 4.48-3.019 6.579-4.434-.344-9.063.484-12.813 2.87-.926.782-1.172 2.047-2.191 2.731-1.27.535-2.778-.488-3.95.39-1.07.634-2.242-.148-3.214-.632-1.61-.734-3.653-.781-5.164.289-1.024.441-2.29.441-2.973 1.414 0 1.219-1.168 2.438-2.336 1.707-1.563-.098-2.875.926-3.996 1.95-.586.484-1.414 1.312-2.289.827m-6.774-2.828c-1.414.293-.828-2.726.196-1.414.293.344.925 2.098-.196 1.414m7.942-.242c-1.024-.246-1.074-2.242.097-2.191 1.168.094 1.461 2.433.098 2.289a.37.37 0 0 1-.195-.098m.047-.148c-1.461-.196 0-2.825.734-1.313.34.485.145 1.899-.734 1.313m-8.282-.098c-1.414-.484 1.168-1.8.782-.242-.051.39-.586.683-.782.242m35.176-.34c-.73-.535-2.34-.633-2.433-1.511 1.363-.34 2.777 0 4.14-.387 2.485-.586 4.82-1.805 7.356-2.293.683-.29-1.121-.047-1.414.05-3.02.536-5.747 2.145-8.868 2.192-.828.39-2.824 0-2.093-1.219 1.023-1.46 2.777-2.14 4.382-2.726 3.122-.977 6.383-1.461 9.598-1.121 1.902.195 3.754.73 5.41 1.656-.828.976-2.34.195-3.215 1.023-3.461 1.559-6.527 4.192-10.425 4.63-.828.046-1.657 0-2.438-.294m-35.711-3.8c-.344-.926-1.512-2.239-.437-3.07 1.07-.29 1.898 1.218 1.41 2.046.195-.777-.68-2.336-1.512-1.461-.531 1.172.735 2 1.27 2.828-.243.047-.535-.097-.731-.344m12.766-3.262c-1.024-.39-.539-2.68.633-1.95.875.438.73 2.63-.442 2.141l-.094-.094zm.34.144c-1.219-.047-.586-2.68.437-1.656.438.488.535 1.8-.437 1.656m7.89-1.07c.684-1.367-1.754-.828-1.312-.54-.051-1.265 2.289-.632 1.461.49 0 .097-.149.339-.149.05m8.918-.246c-1.265-.39-.144-2.922.875-1.703.391.293.344 1.558.293 1.46.637-.925-1.508-2.093-1.508-.73-.148.145.973 1.414.34.973m7.891-1.559c.246-.34 1.609-1.023.781-.097-.242.148-.535.195-.781.097m-33.52-.875c.735-.926-1.656-1.511-1.214-.343-1.122-1.215 2.093-1.364 1.265.097 0 .05.051.586-.051.246m33.618-.05c-.875-.778-1.071-2.485 0-3.168 1.218.05 1.511 1.66 1.023 2.535-.195.39-.582.828-1.023.632m-.34-.68c-.977-.781.488-2.875 1.265-1.512.442.684-.047 2.34-1.07 1.8-.098-.097-.145-.19-.195-.288m7.308-2.098c-1.168-.73.926-2.824 1.219-1.219-.148.637-.535-.972-1.074-.242-.34.438-.289 1.266-.145 1.461m-37.902-2.047c-.734-.828 1.312.246.289.195-.098 0-.195-.097-.289-.195m-10.477-.289c-.437-.976 1.95-.976 1.024-2.097-.149-.829-1.559-.68-1.461.148-.637-.926 1.168-1.465 1.508-.488.828.925-.684 1.851-.438 2.484.438.633-.488.098-.633-.047m10.477-.586c-.879-.586-.586-2.535.633-2.437.926.344.926 1.707.386 2.386-.195.293-.777.489-1.019.051m0-.195c-.832-.535-.148-2.047.777-1.852.782.438.489 2.29-.488 2.094a1.1 1.1 0 0 1-.289-.242m20.023-.098c-1.316-.437 0-2.824.973-1.703.731.633.051 2.727-.973 1.703m.094-.144c-1.461-.633 1.172-2.34 1.024-.633.148.535-.68 1.508-1.024.633m-9.937-.54c-.582-.828-1.703-2.386-.536-3.116.973-.243 1.415 1.363 1.266 1.753.344-1.12-1.851-1.949-1.508-.437 0 .684 1.215 1.512.973 1.8zm23.336-1.753c.293-.242.925-1.754.878-.633-.144.344-.488.633-.878.633m-.485-1.168c-1.023-.633-1.707-2.145-1.023-3.266.972-.633 1.996.586 2.047 1.465.097.582-.149.828-.149.098 0-1.27-2.144-1.707-1.949-.149.098.926.879 1.754 1.852 1.754-.196.195-.582.34-.778.098m6.09-4.434c.047-.39 1.266-1.07.731-.242-.145.195-.489.39-.731.242m-46.629-.39c-.973-.583.879-2.047 1.172-1.024-.684-.875-1.316.39-1.172 1.024m24.07-.145c-1.023-.34-.632-2.34.489-2.094 1.023.34 1.07 2.485-.196 2.29l-.144-.051zm.196 0c-1.461-.242.097-2.777.73-1.266.293.485.098 1.95-.73 1.266m21.875-.684c-.781-.68-.828-2.433.34-2.629 1.218.294 1.461 2.387.293 2.876a.64.64 0 0 1-.633-.247m.144-.046c-1.265-.438-.191-3.02.879-1.754.438.633.242 2.289-.879 1.754m-38.828-1.414c.293-1.266-1.609-.294-1.461-.098-.148-1.363 2.387-.875 1.656.39-.144.145-.195-.195-.195-.292m25.141.195c-.098-.586 1.023-1.512.484-.39-.144.148-.289.292-.484.39m-1.074-1.266c-1.071-.39-1.266-2.777.195-2.484 1.074.289 1.656 2.14.539 2.726-.293.098-.586-.047-.734-.242m.05-.246c-1.414-.242-.293-2.875.778-1.605.633.535.343 2.582-.778 1.605m-16.664-.242c-.535-.781-1.218-2.094-.293-2.922.684-.344 1.512 1.508.586.438-1.265-.149-1.168 1.609-.195 2.046.242.196.684.973 0 .536zm-12.765-3.363c-.289-.973 1.316.78.097.05-.047 0-.047-.05-.097-.05m.195-.73c-.828-.731-.973-2.337.051-2.97 1.168-.05 1.558 1.508 1.121 2.387-.195.438-.684 1.024-1.172.582m.195.05c-.828-.535-1.023-2.242.098-2.484.977.097 1.07 1.46.586 2.14a.86.86 0 0 1-.684.344m36.055-1.852c.242-.293.926-1.804.973-.73-.145.39-.489.777-.973.73m-.977-1.558c-.777-.73-1.168-2.242-.195-2.973 1.074-.195 1.758 1.024 1.805 1.996.242.828-1.024 2.098-1.61.977m.149-.051c-1.121-.484-.828-3.117.633-2.238.875.484.972 2.68-.34 2.484l-.149-.098zm-11.891-2.68c-1.215-.34-.828-2.972.539-2.047.68.489.731 2.489-.539 2.047m-18.707-.242c-.875-.586-.34-2.582.879-2.144.828.586.438 2.68-.781 2.242-.047 0-.098-.051-.098-.098m18.707.047c-1.508-.29.196-2.871.781-1.215.243.485 0 1.8-.781 1.215M748.59 50.2c-1.219-.586.535-2.824.973-1.316.148.586-.243 1.656-.973 1.316m11.012-.535c-1.317-.441-.196-3.07.777-1.805.344.633.051.489-.242.098-1.508-.34-1.071 2.387.34 1.754.441.246-1.024.437-.875-.047m7.355-6.285c1.121-.781-1.07-2.828-1.219-1.317.098.34.489 1.364-.191.684-.734-.977 1.019-2.293 1.508-1.023.242.484.535 1.312-.098 1.656m-13.738-1.805c-1.168-.34-.535-2.777.633-1.95.925.49.632 2.927-.633 1.95m.242.149c-1.363-.196-.195-2.875.633-1.461.293.535.293 1.8-.633 1.46m5.894-4.141c-1.265-.39-.386-2.926.735-1.95.242.34.633 1.462.242.485-.828-.828-1.996.586-.977 1.219.149.097.344.586 0 .246"/><path fill="#ffc13f" d="M750.684 89.957c-1.508-.34.539-2.582.781-.875.195.488-.195 1.61-.781.875m-8.621-.289c-.54-1.27 1.949-.05.679.387-.242-.047-.484-.196-.679-.387m-.247-4.727c-1.168-.148-.437-2.484.539-1.656.536.438.485 2.238-.539 1.656m13.008-2.437c-1.508-.242.442-2.68.781-1.023.196.488-.097 1.753-.781 1.023m7.164-.242c-1.461-.535 1.071-2.387.782-.633 0 .387-.391 1.07-.782.633m-24.945-.684c-1.121-.633 1.172-1.605.684-.34.046.39-.586.926-.684.34m34.836-.293c-1.414-.582.973-2.484.973-.73.148.488-.485 1.511-.973.73m-26.602-2.047c-1.316-.289.731-2.14.731-.73.34.441-.438 1.61-.731.73m34.297-.777c-.633-.586-.34-2.242.637-2.094 1.023.387.582 2.531-.586 2.094zm7.309-2.387c-1.215-.879 1.609-1.851.879-.39-.098.34-.586.875-.879.39M738.699 73.2c-1.316-.148-.34-2.828.535-1.511.246.535.149 1.46-.535 1.511m10.137-.148c-.93-.535.191-2.387.973-1.606.488.586-.051 2.29-.973 1.606m20.168-.34c-1.461-.68 1.266-2.145.926-.438.097.489-.731 1.317-.926.438m-10.328-1.508c-1.512-.293.488-2.73.777-1.023.195.484-.098 1.754-.777 1.023m22.847-2.39c-1.019-.485-.73-3.02.633-2.094.832.535.879 2.484-.386 2.289l-.098-.047zm-39.851-3.946c-1.168-.683 1.168-2.191.926-.586.047.442-.586 1.219-.926.586m23.875-.683c-1.465-.34.633-2.532.824-.922.293.484-.242 1.8-.824.922m22.312-.438c-.828-.293-.925-1.996.047-2.144.977.097 1.074 2.144-.047 2.144m-40-.73c-1.316-.73 1.266-2.145.875-.586.051.441-.582 1.218-.875.586m25.188-2.047c-.973-.145-.926-1.801 0-1.95.926.098 1.363 1.903.344 2.098a.45.45 0 0 1-.344-.148m-16.953-1.266c-1.461-.437.777-2.437.875-.828.195.488-.391 1.61-.875.828m-12.473-3.46c-1.172-.583.098-2.97.973-1.657.39.637 0 2.242-.973 1.656m35.469-3.165c-1.121-.488-.586-3.07.68-2.047.828.535.828 2.535-.438 2.242l-.098-.097zm-30.449-2.926c-1.317-.535.73-2.726.922-1.07.05.488-.29 1.363-.922 1.07m18.464-.047c-1.464-.488.922-2.386.922-.78.196.487-.437 1.562-.922.78m-7.113-.292c-1.512-.098-.148-2.922.485-1.22.195.442.148 1.22-.485 1.22m6.137-6.868c-1.461-.734 1.219-2.195 1.023-.539.196.633-.781 1.414-1.023.54m-12.813-1.465c-1.511-.34.68-2.53.829-.874.144.437-.34 1.703-.829.874m6.188-4.042c-1.512-.438.777-2.485.875-.829.148.438-.387 1.61-.875.828"/></g><path fill="#bc9a16" d="M562.41 71.871c0-68.598 90.555-70.863 170.082-70.863 79.528 0 170.078 2.265 170.078 70.863 0-15.652-76.148-28.344-170.078-28.344-93.933 0-170.082 12.692-170.082 28.344"/><path fill="none" stroke="#000" stroke-linecap="round" stroke-linejoin="round" stroke-width="2" d="M562.41 71.871c0-68.598 90.555-70.863 170.082-70.863 79.528 0 170.078 2.265 170.078 70.863 0-15.652-76.148-28.344-170.078-28.344-93.933 0-170.082 12.692-170.082 28.344"/><path fill="#cc9c6f" d="M458.871 357.938c0 3.914-3.172 7.085-7.086 7.085s-7.086-3.171-7.086-7.085 3.172-7.086 7.086-7.086 7.086 3.171 7.086 7.086"/><path fill="none" stroke="#000" stroke-linecap="round" stroke-linejoin="round" stroke-width="2" d="M458.871 357.938c0 3.914-3.172 7.085-7.086 7.085s-7.086-3.171-7.086-7.085 3.172-7.086 7.086-7.086 7.086 3.171 7.086 7.086"/><circle cx="451.785" cy="357.938" r="1"/><path fill="#cc9c6f" d="M437.609 54.629h28.348v340.156h-28.348Z"/><path fill="none" stroke="#000" stroke-linecap="round" stroke-linejoin="round" stroke-width="2" d="M437.609 54.629h28.348v340.156h-28.348z"/><path fill="#cc9c6f" d="M458.871 357.938c0 3.914-3.172 7.085-7.086 7.085s-7.086-3.171-7.086-7.085 3.172-7.086 7.086-7.086 7.086 3.171 7.086 7.086"/><path fill="none" stroke="#000" stroke-linecap="round" stroke-linejoin="round" stroke-width="2" d="M458.871 357.938c0 3.914-3.172 7.085-7.086 7.085s-7.086-3.171-7.086-7.085 3.172-7.086 7.086-7.086 7.086 3.171 7.086 7.086"/><path fill="#cc9c6f" d="M454.617 394.785c3.641 3.824 5.672 8.899 5.672 14.176s-2.031 10.352-5.672 14.172h-5.668c-3.636-3.82-5.668-8.895-5.668-14.172s2.032-10.352 5.668-14.176z"/><path fill="none" stroke="#000" stroke-linecap="round" stroke-linejoin="round" stroke-width="2" d="M454.617 394.785c3.641 3.824 5.672 8.899 5.672 14.176s-2.031 10.352-5.672 14.172h-5.668c-3.636-3.82-5.668-8.895-5.668-14.172s2.032-10.352 5.668-14.176z"/><path fill="#cc9c6f" d="M463.121 434.473c0 6.261-5.074 11.34-11.336 11.34s-11.34-5.079-11.34-11.34 5.078-11.34 11.34-11.34 11.336 5.078 11.336 11.34"/><path fill="none" stroke="#000" stroke-linecap="round" stroke-linejoin="round" stroke-width="2" d="M463.121 434.473c0 6.261-5.074 11.34-11.336 11.34s-11.34-5.079-11.34-11.34 5.078-11.34 11.34-11.34 11.336 5.078 11.336 11.34"/><path fill="#cc9c6f" d="M494.305 26.281c-13.692 0-22.676 13.625-22.676 28.348h-39.688c0-14.723-8.988-28.348-22.675-28.348z"/><path fill="none" stroke="#000" stroke-linecap="round" stroke-linejoin="round" stroke-width="2" d="M494.305 26.281c-13.692 0-22.676 13.625-22.676 28.348h-39.688c0-14.723-8.988-28.348-22.675-28.348z"/></g></svg>