<svg xmlns="http://www.w3.org/2000/svg" width="1188" height="199pt" viewBox="0 -199 891 199"><g id="page1"><path fill="#b1887b" d="M38.785-33.219v-28.343l85.039-13.606 85.039-15.875 85.039 17.008 85.043 12.472 85.039-34.015 85.039-39.688 85.04-39.683 85.039 29.48 85.039 29.481 85.039-23.813v106.582z"/><path fill="#fff" d="m208.863-91.043-42.519 7.938c24.429 18.273 57.621 15.078 85.043.566zm425.2-83.906-42.52 19.844c25.25 18.117 59.391 13.507 85.039-5.106z"/><path fill="none" stroke="maroon" stroke-linecap="round" stroke-linejoin="round" stroke-width="2" d="M38.785-33.219v-28.343l85.039-13.606 85.039-15.875 85.039 17.008 85.043 12.472 85.039-34.015 85.039-39.688 85.04-39.683 85.039 29.48 85.039 29.481 85.039-23.813v106.582zm85.039 0v-41.949m85.039 41.949v-57.824m85.039 57.824v-40.816m85.043 40.816v-28.343m85.039 28.343v-62.36m85.039 62.36v-102.047m85.04 102.047v-141.73m85.039 141.73v-112.25m85.039 112.25v-82.769m85.039 82.769V-139.8"/><path fill="none" stroke="#000" stroke-linecap="round" stroke-linejoin="round" stroke-width="2" d="M442.723-93.594h42.519"/><path fill="#ff8080" d="M449.809-93.594h28.347v-21.261h-28.347Z"/><path fill="none" stroke="#000" stroke-linecap="round" stroke-linejoin="round" stroke-width="2" d="M449.809-93.594v-21.261h28.347v21.261z"/><path fill="#bfbfbf" d="M446.977-114.855h34.015v-2.833h-34.015Z"/><path fill="none" stroke="#000" stroke-linecap="round" stroke-linejoin="round" stroke-width="2" d="M446.977-114.855v-2.833h34.015v2.833z"/><path fill="maroon" d="M449.809-117.688h1.418v-21.261h-1.418Z"/><path fill="none" stroke="#000" stroke-linecap="round" stroke-linejoin="round" stroke-width="2" d="M449.809-117.688v-21.261h1.418v21.261z"/><path fill="maroon" d="M476.738-117.688h1.418v-21.261h-1.418Z"/><path fill="none" stroke="#000" stroke-linecap="round" stroke-linejoin="round" stroke-width="2" d="M478.156-117.688v-21.261h-1.418v21.261z"/><path fill="#ff8080" d="M449.809-147.453h28.347l5.668 8.504h-39.683z"/><path fill="none" stroke="#000" stroke-linecap="round" stroke-linejoin="round" stroke-width="2" d="M449.809-147.453h28.347l5.668 8.504h-39.683z"/><path fill="#f2f2f2" d="M444.141-138.949h5.668v2.836a2.835 2.835 0 0 1-5.668 0z"/><path fill="none" stroke="#000" stroke-linecap="round" stroke-linejoin="round" stroke-width="2" d="M444.141-138.949h5.668v2.836a2.835 2.835 0 0 1-5.668 0z"/><path fill="#f2f2f2" d="M449.809-138.949h5.671v2.836a2.835 2.835 0 0 1-5.671 0z"/><path fill="none" stroke="#000" stroke-linecap="round" stroke-linejoin="round" stroke-width="2" d="M449.809-138.949h5.671v2.836a2.835 2.835 0 0 1-5.671 0z"/><path fill="#f2f2f2" d="M455.48-138.949h5.668v2.836a2.835 2.835 0 0 1-5.668 0z"/><path fill="none" stroke="#000" stroke-linecap="round" stroke-linejoin="round" stroke-width="2" d="M455.48-138.949h5.668v2.836a2.835 2.835 0 0 1-5.668 0z"/><path fill="#f2f2f2" d="M461.148-138.949h5.668v2.836a2.83 2.83 0 0 1-2.832 2.832 2.836 2.836 0 0 1-2.836-2.832z"/><path fill="none" stroke="#000" stroke-linecap="round" stroke-linejoin="round" stroke-width="2" d="M461.148-138.949h5.668v2.836a2.83 2.83 0 0 1-2.832 2.832 2.836 2.836 0 0 1-2.836-2.832z"/><path fill="#f2f2f2" d="M466.816-138.949h5.672v2.836a2.836 2.836 0 0 1-5.672 0z"/><path fill="none" stroke="#000" stroke-linecap="round" stroke-linejoin="round" stroke-width="2" d="M466.816-138.949h5.672v2.836a2.836 2.836 0 0 1-5.672 0z"/><path fill="#f2f2f2" d="M472.488-138.949h5.668v2.836a2.835 2.835 0 0 1-5.668 0z"/><path fill="none" stroke="#000" stroke-linecap="round" stroke-linejoin="round" stroke-width="2" d="M472.488-138.949h5.668v2.836a2.835 2.835 0 0 1-5.668 0z"/><path fill="#f2f2f2" d="M478.156-138.949h5.668v2.836a2.83 2.83 0 0 1-2.832 2.832 2.836 2.836 0 0 1-2.836-2.832z"/><path fill="none" stroke="#000" stroke-linecap="round" stroke-linejoin="round" stroke-width="2" d="M478.156-138.949h5.668v2.836a2.83 2.83 0 0 1-2.832 2.832 2.836 2.836 0 0 1-2.836-2.832zm219.684-4.25h42.519"/><path fill="#ff8080" d="M704.93-143.199h28.343v-21.262H704.93Z"/><path fill="none" stroke="#000" stroke-linecap="round" stroke-linejoin="round" stroke-width="2" d="M704.93-143.199v-21.262h28.343v21.262z"/><path fill="#bfbfbf" d="M702.094-164.461h34.015v-2.836h-34.015Z"/><path fill="none" stroke="#000" stroke-linecap="round" stroke-linejoin="round" stroke-width="2" d="M702.094-164.461v-2.836h34.015v2.836z"/><path fill="maroon" d="M704.93-167.297h1.414v-21.258h-1.414Z"/><path fill="none" stroke="#000" stroke-linecap="round" stroke-linejoin="round" stroke-width="2" d="M704.93-167.297v-21.258h1.414v21.258z"/><path fill="maroon" d="M731.855-167.297h1.418v-21.258h-1.418Z"/><path fill="none" stroke="#000" stroke-linecap="round" stroke-linejoin="round" stroke-width="2" d="M733.273-167.297v-21.258h-1.418v21.258z"/><path fill="#ff8080" d="M704.93-197.059h28.343l5.672 8.504h-39.687z"/><path fill="none" stroke="#000" stroke-linecap="round" stroke-linejoin="round" stroke-width="2" d="M704.93-197.059h28.343l5.672 8.504h-39.687z"/><path fill="#f2f2f2" d="M699.258-188.555h5.672v2.832a2.836 2.836 0 1 1-5.672 0z"/><path fill="none" stroke="#000" stroke-linecap="round" stroke-linejoin="round" stroke-width="2" d="M699.258-188.555h5.672v2.832a2.836 2.836 0 1 1-5.672 0z"/><path fill="#f2f2f2" d="M704.93-188.555h5.668v2.832a2.836 2.836 0 0 1-2.836 2.836 2.83 2.83 0 0 1-2.832-2.836z"/><path fill="none" stroke="#000" stroke-linecap="round" stroke-linejoin="round" stroke-width="2" d="M704.93-188.555h5.668v2.832a2.836 2.836 0 0 1-2.836 2.836 2.83 2.83 0 0 1-2.832-2.836z"/><path fill="#f2f2f2" d="M710.598-188.555h5.668v2.832a2.835 2.835 0 1 1-5.668 0z"/><path fill="none" stroke="#000" stroke-linecap="round" stroke-linejoin="round" stroke-width="2" d="M710.598-188.555h5.668v2.832a2.835 2.835 0 1 1-5.668 0z"/><path fill="#f2f2f2" d="M716.266-188.555h5.672v2.832a2.836 2.836 0 1 1-5.672 0z"/><path fill="none" stroke="#000" stroke-linecap="round" stroke-linejoin="round" stroke-width="2" d="M716.266-188.555h5.672v2.832a2.836 2.836 0 1 1-5.672 0z"/><path fill="#f2f2f2" d="M721.938-188.555h5.667v2.832a2.835 2.835 0 0 1-2.835 2.836 2.83 2.83 0 0 1-2.832-2.836z"/><path fill="none" stroke="#000" stroke-linecap="round" stroke-linejoin="round" stroke-width="2" d="M721.938-188.555h5.667v2.832a2.835 2.835 0 0 1-2.835 2.836 2.83 2.83 0 0 1-2.832-2.836z"/><path fill="#f2f2f2" d="M727.605-188.555h5.668v2.832a2.834 2.834 0 1 1-5.668 0z"/><path fill="none" stroke="#000" stroke-linecap="round" stroke-linejoin="round" stroke-width="2" d="M727.605-188.555h5.668v2.832a2.834 2.834 0 1 1-5.668 0z"/><path fill="#f2f2f2" d="M733.273-188.555h5.672v2.832a2.835 2.835 0 1 1-5.672 0z"/><path fill="none" stroke="#000" stroke-linecap="round" stroke-linejoin="round" stroke-width="2" d="M733.273-188.555h5.672v2.832a2.835 2.835 0 1 1-5.672 0z"/><path fill="none" stroke="#000" stroke-linecap="round" stroke-linejoin="round" stroke-width="3" d="m84.875-55.61-23.41 16.723"/><path d="m101.148-67.234-19.39 7.265 6.23 8.723z"/><path fill="none" stroke="#000" stroke-linecap="round" stroke-linejoin="round" stroke-width="3" d="m101.148-67.234-19.39 7.265 6.23 8.723zm68.766 11.624-23.41 16.723"/><path d="m186.188-67.234-19.391 7.265 6.23 8.723z"/><path fill="none" stroke="#000" stroke-linecap="round" stroke-linejoin="round" stroke-width="3" d="m186.188-67.234-19.391 7.265 6.23 8.723zm68.765 16.722-23.41-16.722"/><path d="M271.227-38.887 258.066-54.87l-6.226 8.723z"/><path fill="none" stroke="#000" stroke-linecap="round" stroke-linejoin="round" stroke-width="3" d="M271.227-38.887 258.066-54.87l-6.226 8.723zm68.765-11.625-23.41-16.722"/><path d="M356.266-38.887 343.105-54.87l-6.226 8.723z"/><path fill="none" stroke="#000" stroke-linecap="round" stroke-linejoin="round" stroke-width="3" d="M356.266-38.887 343.105-54.87l-6.226 8.723zm68.765-16.723-23.41 16.723"/><path d="m441.305-67.234-19.387 7.265 6.227 8.723z"/><path fill="none" stroke="#000" stroke-linecap="round" stroke-linejoin="round" stroke-width="3" d="m441.305-67.234-19.387 7.265 6.227 8.723zM510.07-55.61l-23.41 16.723"/><path d="m526.344-67.234-19.387 7.265 6.231 8.723z"/><path fill="none" stroke="#000" stroke-linecap="round" stroke-linejoin="round" stroke-width="3" d="m526.344-67.234-19.387 7.265 6.231 8.723zm68.765 11.624-23.41 16.723"/><path d="m611.387-67.234-19.391 7.265 6.231 8.723z"/><path fill="none" stroke="#000" stroke-linecap="round" stroke-linejoin="round" stroke-width="3" d="m611.387-67.234-19.391 7.265 6.231 8.723zm68.761 16.722-23.41-16.722"/><path d="m696.426-38.887-13.16-15.984-6.231 8.723z"/><path fill="none" stroke="#000" stroke-linecap="round" stroke-linejoin="round" stroke-width="3" d="m696.426-38.887-13.16-15.984-6.231 8.723zm68.762-11.625-23.411-16.722"/><path d="m781.465-38.887-13.16-15.984-6.231 8.723z"/><path fill="none" stroke="#000" stroke-linecap="round" stroke-linejoin="round" stroke-width="3" d="m781.465-38.887-13.16-15.984-6.231 8.723zm68.762-16.723-23.411 16.723"/><path d="m866.504-67.234-19.391 7.265 6.231 8.723z"/><path fill="none" stroke="#000" stroke-linecap="round" stroke-linejoin="round" stroke-width="3" d="m866.504-67.234-19.391 7.265 6.231 8.723z"/><path fill="#dac292" d="M13.504-68.668c-4.55.55-8.29-.289-10.074 1.535-1.618 1.797-2.215 2.668-1.88 3.899.247.894-1.046.465-1.132 1.3-.094.903 1.934.782 2.164 1.594.281.957-.84.88-1.34 1.328.13 4.278 3.031 4.313 5.465 4.438 3.54.195 7-.242 10.54.129 4.444.047 9.241-.106 13.687-.035 2.324-.141 5.277-.56 6.277-3.004.492-.907.82-3.555-.832-3.172-.496-1.094.883-1.586.894-1.977.012-.367-.523-.437-.722-.863.8-1.613-.485-2.91-2.137-4.047-1.062-.625-2.582-1.05-3.812-1.059-3.532.5-4.774.157-7.676-.042-2.867.18-5.27.707-9.422-.024"/><path fill="#e9dbbe" fill-rule="evenodd" d="M21.79-68.383c-1.61.172-3.18.66-4.81.68-.761.008-1.558-.094-2.226-.492-.234-.016-.094.367-.098.511.063.59.36 1.168.871 1.496.688.454 1.555.493 2.352.403 1.043-.13 2.05-.48 2.992-.946.5-.257 1.035-.609 1.211-1.175.012-.149.18-.434-.023-.492-.09-.008-.18.007-.27.015m-9.767.121c-.867.348-1.824.399-2.746.34-.84-.059-1.68-.18-2.515-.289-.254-.027-.137.324-.13.473.122.594.673 1.011 1.247 1.136.844.246 1.75.208 2.601.012.606-.148 1.239-.406 1.598-.941.137-.219.219-.508.133-.766-.059-.035-.133.02-.188.035m17.782.102c-.965.266-1.977.332-2.977.34-.828-.008-1.668-.043-2.465-.274-.125-.078-.351-.09-.281.13.09.429.332.816.605 1.155a2.92 2.92 0 0 0 2.305 1.012c.563-.008 1.106-.184 1.617-.394.485-.172 1.028-.32 1.344-.754.238-.328.215-.754.188-1.137-.004-.211-.215-.11-.336-.078"/><path fill="#ffdf01" d="M34.77-63.527c-1.97.105-3.938.222-5.907.324a53 53 0 0 1-3.87.094c-.95-.008-1.9.035-2.837.175-1.035.18-2.086.2-3.129.246-1.05.04-2.101.11-3.152.165-1.707.129-3.418.16-5.125.277-1.324.043-2.645.113-3.969.125-1.586.023-3.176.059-4.758.004-.332-.02-.273-.602-.691-.43-.293.125-.648.29-.762.613-.117.313.082.723.438.735.726.144 1.488.035 2.168-.25.48-.145.472.496.844.617.71.355 1.546.14 2.23-.18.258-.18.656-.535.898-.133.602.551 1.582.657 2.278.223.168-.32.672-.476.914-.156.351.273.82.375 1.265.379.586.008 1.149-.239 1.582-.617.278-.258.665-.215.958-.016.734.406 1.593.508 2.421.465.567-.035 1.141-.137 1.63-.438.273-.148.566-.347.898-.258.422.094.812.34 1.261.325.91.054 1.739-.375 2.594-.61.516-.16 1.07-.308 1.606-.136.37.129.707.355 1.09.457.382.109.8.226 1.195.113.5-.176.84-.648 1.351-.793.457-.102.786.32 1.196.434.617.14 1.258.097 1.886.117.399-.082.782-.34 1.204-.223.683.07 1.355.328 2.05.266.317-.125-.109-.864.383-.66.625.187 1.297.343 1.942.195.398-.16.421-.781.039-.973-.465-.304-1.032-.394-1.57-.457a9 9 0 0 0-.551-.02"/><path fill="#bfffbf" d="M35.848-60.402c-.79.172-1.59.37-2.407.332-.382.011-.757.133-1.125.226-.492.02-.98-.066-1.468-.023-1.254.02-2.52.168-3.762-.055-.293-.09-.703-.402-.961-.094-.375.305-.883.157-1.32.168-1.176-.008-2.344.153-3.516.242-.484.06-.969.149-1.46.137-.306-.11-.618-.398-.954-.226-.418.27-.937.164-1.406.172-1.149-.063-2.305-.133-3.446.043-.886.109-1.812.242-2.68-.055-.585-.13-1.183-.008-1.777-.024-1.27.02-2.535 0-3.804.098-.938.066-1.875.055-2.813.066a.5.5 0 0 0-.582.434c-.062.246.106.535.375.535.727.117 1.434-.164 2.094-.426.348-.097.676.118.902.36.59.453 1.426.554 2.098.234.453-.191.96-.476 1.453-.261.828.343 1.742.136 2.578-.055.317-.11.645-.367.996-.239.45.29 1.016.286 1.528.231.601-.082 1.203-.2 1.816-.184.969-.015 1.945.192 2.91.028.477-.094.953-.176 1.438-.18 1.425-.047 2.847.203 4.27.035.406-.156.823.04 1.222.106.75-.02 1.488-.301 2.242-.168.703.062 1.461.3 2.137-.024.347-.156.765-.25 1.117-.05.668.265 1.313.714 2.063.644.468-.05.652-.559 1.03-.77.473.063 1.051.083 1.383-.32.247-.262.286-.894-.171-.937"/><path fill="#bf0000" d="M23.8-61.894c-1.25.062-2.327.917-3.593.855-.34-.117-.91-.14-1.004.305-.098.48.18 1.12.738 1.125 1.997-.043 3.985-.301 5.977-.375.598-.13.61-1.196-.031-1.246-.719-.16-1.313-.735-2.086-.665m11.602.003c-.402.16-.718.602-1.199.477-.379-.004-.832-.246-1.148.07-.239.278-.328.801-.028 1.063.332.156.711-.008 1.059.008.527-.043 1.055-.09 1.566-.223.364-.36.352-1.254-.191-1.395zm-32.25.555c-.53-.02-.847.559-.664 1.027.012.442.367.868.84.754 2.164-.152 4.34-.058 6.512-.148.5-.04 1.008-.027 1.492-.043.465-.129.422-.86-.105-.797-.383.008-.735-.152-1.051-.352-.516-.234-.91.356-1.414.356-.543.09-1.149.023-1.559-.371-.379-.371-.84-.043-1.215.133-.66.27-1.433.355-2.101.074-.262-.195-.36-.617-.735-.633"/><path fill="#d24d4d" d="M28.215-61.934c-.219.036-.41.16-.613.25a7 7 0 0 0-.829.496c-.203.149-.308.415-.222.653.062.265.344.363.586.402a9.6 9.6 0 0 0 1.922.18c.832 0 1.66-.04 2.492-.031.308-.008.617.007.922-.032.258-.082.343-.367.363-.609.027-.297.121-.629-.063-.898-.308-.188-.722-.286-1.05-.09-.25.144-.535.21-.82.215-.739.02-1.462-.157-2.157-.383-.18-.043-.34-.157-.531-.153m-9.477.664c-.547.07-1.027.383-1.562.512-.535.133-1.098.219-1.649.133-.59-.11-1.12-.422-1.707-.543-.386-.055-.777.086-1.078.328-.281.164-.574.363-.91.375-.16.078-.191.305-.152.461.054.219.273.379.496.34 1.34.18 2.683-.004 4.023-.074.766-.04 1.54-.075 2.305-.035.254.066.48-.145.555-.371.05-.172.09-.348.136-.524.07-.27-.117-.598-.414-.602z"/><path fill-rule="evenodd" d="M30.078-69.254c-.015.492-.617.496-.98.567-1.446.253-2.973.394-4.395-.07-1.219-.387-2.523-.391-3.77-.184-1.593.238-3.19.73-4.82.527-.422-.074-.883-.137-1.195-.465-.285-.344-.738-.332-1.129-.215-.621.153-1.266-.015-1.887.137-.683.176-1.347.5-2.07.48-1.234.032-2.426-.449-3.66-.37-1.918.148-3.692 1.394-4.563 3.1-.386.81-.515 1.731-.414 2.618-.441.387-1.086.68-1.183 1.32-.086.524.328 1.051.851 1.098.426.09.86.04 1.282.094.199.351.187 1.035-.387.855-.457-.066-.77.32-.738.75-.145 1.055.062 2.207.734 3.055.86.973 2.082 1.539 3.308 1.887 1.29.343 2.633.238 3.942.12 1.39-.14 2.781-.335 4.18-.269 1.648.043 3.297.157 4.949.188 1.324.054 2.652.035 3.976-.078a65 65 0 0 1 6.743.035c1.308.05 2.64-.028 3.898-.418 1.207-.301 2.516-.528 3.473-1.39.78-.68 1.254-1.661 1.402-2.673.117-.64.152-1.289.2-1.937-.231-.41-.735-.508-1.153-.598-.242.031-.547-.37-.121-.316.73-.051 1.285-.848 1.066-1.551-.039-.496-.636-.469-.828-.836-.027-.328.191-.64.117-.988-.054-1.207-.84-2.262-1.785-2.961-1.062-.801-2.34-1.297-3.644-1.516a5.6 5.6 0 0 0-1.399.004m.524.652c-.204.723.027 1.563-.45 2.204-.543.566-1.34.746-2.07.945-1.2.262-2.59.101-3.508-.778-.535-.511-.847-1.222-.945-1.949-.242-.304-1.035-.379-1.121.047a2.16 2.16 0 0 1-.926 1.45c-.816.523-1.723.902-2.652 1.18-.985.269-2.078.413-3.051.034a2.44 2.44 0 0 1-1.465-1.57 4.3 4.3 0 0 1-.191-1.262c-.383-.293-.891-.023-1.32-.047-.352.254-.321.766-.516 1.13-.262.597-.895.91-1.48 1.109-1.044.3-2.184.257-3.223-.059-.434-.172-.942-.344-1.184-.773-.195-.352-.215-.758-.293-1.145-.496-.125-.984.125-1.45.266-1.562.648-2.847 2.117-3.023 3.828-.035.472.036.949.215 1.383.457.168.953.027 1.426.086 2.54.027 5.07-.176 7.605-.196 1.66-.035 3.32-.043 4.973-.226 1.082-.11 2.172-.16 3.258-.137a24 24 0 0 0 3.234-.203c1.414-.145 2.836-.16 4.25-.215 1.684-.098 3.356-.25 5.04-.344 1.234-.09 2.48-.258 3.718-.11.277.024.617.067.8-.194.274-.356.138-.825-.023-1.196-.472-1.203-1.52-2.113-2.703-2.59a10 10 0 0 0-2.687-.683 1.2 1.2 0 0 0-.238.015m-8.856.188c-1.844.183-3.656.852-5.531.633-.504-.063-1-.211-1.453-.442-.36.192-.063.672-.051.98.293.915 1.242 1.474 2.168 1.524 1.371.121 2.7-.387 3.922-.945.605-.277 1.234-.711 1.36-1.414.089-.367-.13-.371-.415-.336m-9.832.156c-1.527.543-3.172.274-4.734.063-.274-.028-.711-.188-.614.257.004.575.45 1.044.965 1.239.969.426 2.086.367 3.094.117.629-.18 1.3-.512 1.586-1.133.105-.25.14-.797-.297-.543m17.883.063c-1.645.422-3.383.445-5.043.14-.274-.043-.777-.289-.684.2.137.402.34.8.63 1.12.886.958 2.402 1.247 3.585.708.492-.22 1.047-.32 1.473-.664a1.06 1.06 0 0 0 .418-.813c.062-.27.074-.875-.38-.691m2.414 1.379c-.11.41-.668.64-.563 1.113.434.125.665-.403.813-.715.121-.18.023-.594-.25-.398m.852.37c-.266.137-.7.833-.208.864.348-.14.438-.379.422-.734.028-.133-.113-.176-.215-.13m-10.454.735c-.14.293.606.512.344.133-.082-.07-.238-.305-.344-.133m-1.03.113c-.274.356.69.704.401.196-.097-.102-.242-.309-.402-.196m-16.282.16c-.32.196.129.856.379.508-.18-.132-.13-.457-.38-.507m-.75.313c-.192.262.387.805.492.559-.027-.243-.215-.567-.492-.559m6.957.047c-.414.031-.012.766.117.285.008-.094.094-.441-.117-.285m.687.367c-.402.14.153.586.207.125.028-.125-.109-.223-.207-.125M34.5-63.465c-2.434.145-4.871.293-7.309.387-1.722.035-3.457-.05-5.164.223-1.136.152-2.28.195-3.425.246-5.508.285-11.02.675-16.536.554-.386.059-.39-.77-.84-.394-.34.125-.726.445-.632.847.133.391.62.434.976.407.606-.016 1.211-.106 1.762-.364.356.09.36.602.738.696.457.238 1.004.156 1.492.062.477-.129.899-.394 1.305-.664.59.715 1.715 1 2.531.512.215-.285.598-.578.88-.203.8.566 1.968.52 2.742-.078.273-.297.71-.434 1.074-.188.98.563 2.18.621 3.265.395.48-.098.891-.375 1.332-.57.54-.137 1.004.3 1.536.296 1.214.082 2.304-.582 3.468-.789a1.9 1.9 0 0 1 1.317.246c.531.242 1.117.492 1.71.41.614-.14.989-.797 1.637-.84.465.055.809.473 1.29.485.59.098 1.19.066 1.788.078.594-.414 1.34-.195 1.985-.055.363.07.738.153 1.105.07.25-.16-.183-.812.336-.66.617.235 1.297.34 1.953.266.403-.164.371-.879-.066-.98-.684-.367-1.484-.446-2.25-.395m-6.578 1.797c-.45.227-.996.402-1.23.883-.094.387.363.539.667.562 1.66.22 3.332.032 4.996.094.426-.2.364-.789.36-1.176-.2-.379-.738-.28-1.05-.113-.618.242-1.31.191-1.95.074-.488-.101-.961-.273-1.43-.437-.129-.004-.246.07-.363.113m-4.293-.039c-1.211.156-2.29.957-3.543.844-.324-.157-.848-.125-.707.367-.031.434.328.824.77.687 1.921-.011 3.824-.3 5.746-.347.343-.106.472-.84.027-.88-.453-.105-.867-.32-1.277-.53a2.25 2.25 0 0 0-1.016-.141m11.652.02c-.261.44-.828.46-1.277.433-.305-.012-.805-.246-.926.172-.066.309-.172.926.344.676.726-.059 1.469-.067 2.176-.27.175-.304.215-1.043-.266-1.031zm-32.3.59c-.575.05-.239.742-.243 1.093.082.438.59.238.89.242 2.524-.117 5.056-.015 7.579-.183.363.043.434-.524.02-.422-.45.054-.805-.203-1.176-.399-.418-.109-.692.364-1.114.368-.546.129-1.16.086-1.656-.188-.215-.293-.57-.496-.87-.184-.567.305-1.223.426-1.86.422-.383-.023-.797-.136-1.02-.476-.156-.184-.27-.473-.55-.274m15.44.042c-.995.41-2.1.801-3.183.516-.531-.129-1.02-.441-1.57-.492-.531.02-.937.406-1.398.629-.454-.145-.704.715-.149.633 1.938.085 3.875-.165 5.817-.153.394-.035.949.156 1.023-.398.18-.32.121-.965-.395-.77l-.074.02zm17.958.524c.094.445.078.972-.293 1.293-.367.383-.965.558-1.469.37-.386.227-.601.755-1.101.766-.852.086-1.512-.586-2.305-.754-.316-.074-.645.02-.914.188-.5.246-1.067.164-1.594.082-.668-.102-1.36-.148-2.008.066-.445.145-.879-.039-1.3-.132-.454-.004-.88.218-1.332.148-1.02-.047-2.036-.344-3.06-.172-1.19.14-2.382.457-3.589.305-.918-.066-1.855-.156-2.766.039-.699.094-1.453.094-2.085-.246-.524.039-.973.344-1.481.437-.652.18-1.379.184-1.992-.129-.531-.105-.95.34-1.457.399-.88.187-1.809-.117-2.508-.664-.457-.133-.867.207-1.312.262-.532.16-1.18.246-1.641-.133-.149-.239.121-1.055-.402-.73-.352.331-.297.863-.262 1.3.18 1.2 1.144 2.129 2.21 2.605 1.595.72 3.387.747 5.106.72 1.63-.06 3.25-.262 4.88-.247 3.339-.02 6.679.281 10.01-.004a34 34 0 0 1 4.907.082c1.79.106 3.59-.129 5.32-.582.582-.18 1.188-.336 1.7-.675.906-.657 1.304-1.77 1.527-2.825q.14-.687.164-1.39c-.203-.313-.613-.367-.953-.38m-.57.25c-.743.183-1.496.336-2.266.324-.383.016-.781.055-1.129.242-.605-.02-1.207-.082-1.812-.039-1.278.04-2.586.207-3.832-.156-.254-.168-.59-.2-.743.097-.43.211-.918.032-1.375.079-1.105.007-2.21.144-3.312.234-.516.059-1.031.164-1.55.14-.34-.152-.708-.484-1.04-.12-.367.117-.762.054-1.145.07-1.09-.035-2.183-.149-3.27.012-.886.093-1.788.242-2.679.082-.695-.293-1.449-.114-2.18-.13-1.285.028-2.574.005-3.859.102-.965.075-1.93.028-2.898.07-.469.227-.219.95.297.762.714.008 1.367-.332 2.047-.504.472.043.707.551 1.148.684.668.289 1.418.078 2.039-.227.379-.16.824-.214 1.2-.015.71.246 1.476.101 2.187-.063.375-.047.683-.343 1.058-.324.39.105.754.332 1.176.297.86.016 1.695-.29 2.55-.215 1 .027 2.017.215 3-.043 1.938-.344 3.907.227 5.84-.137.41.02.798.297 1.223.137.586-.101 1.18-.238 1.778-.137.644.055 1.312.262 1.953.063.414-.219.906-.371 1.351-.129.676.25 1.336.73 2.09.617.504-.05.621-.836 1.121-.746.47.11 1.09 0 1.285-.5.063-.152.004-.621-.253-.527m-22.099 2.49c-.379.445.644.277.3-.098-.105-.07-.269-.03-.3.098m.816.512c-.359.039-.046.629.121.246.106-.098.067-.39-.12-.246m9.778.12c-.047.24.242.907.472.517 0-.208-.207-.692-.472-.516m-1.633.063c-.086.203.2.883.375.52-.024-.184-.063-.77-.375-.52m-16.328.442c-.2.238.273.793.246.27-.008-.114-.082-.45-.246-.27m-1.02.09c-.156.28.301.906.508.601-.098-.215-.215-.656-.484-.625l-.016.012z"/><path fill="#b1887b" d="M13.504-84.258c-4.55.551-8.29-.289-10.074 1.535-1.618 1.797-2.215 2.668-1.88 3.899.247.894-1.046.465-1.132 1.3-.094.903 1.934.782 2.164 1.594.281.957-.84.88-1.34 1.328.13 4.278 3.031 4.313 5.465 4.438 3.54.195 7-.242 10.54.129 4.444.047 9.241-.11 13.687-.035 2.324-.145 5.277-.559 6.277-3.008.492-.903.82-3.555-.832-3.168-.496-1.094.883-1.586.894-1.977.012-.367-.523-.437-.722-.863.8-1.613-.485-2.91-2.137-4.05-1.062-.626-2.582-1.048-3.812-1.055-3.532.5-4.774.156-7.676-.043-2.867.18-5.27.707-9.422-.024"/><path fill="#d0b8b0" fill-rule="evenodd" d="M21.79-83.973c-1.61.172-3.18.657-4.81.68-.761.008-1.558-.094-2.226-.492-.234-.016-.094.367-.098.512.063.59.36 1.167.871 1.496.688.449 1.555.492 2.352.402 1.043-.129 2.05-.48 2.992-.945.5-.258 1.035-.61 1.211-1.18.012-.144.18-.43-.023-.488-.09-.008-.18.007-.27.015m-9.767.121c-.867.348-1.824.399-2.746.336-.84-.054-1.68-.175-2.515-.285-.254-.031-.137.32-.13.469.122.598.673 1.012 1.247 1.14.844.247 1.75.208 2.601.012.606-.148 1.239-.406 1.598-.941.137-.219.219-.512.133-.766-.059-.035-.133.02-.188.035m17.782.102c-.965.266-1.977.332-2.977.34-.828-.008-1.668-.043-2.465-.274-.125-.082-.351-.09-.281.13.09.429.332.816.605 1.156a2.92 2.92 0 0 0 2.305 1.011c.563-.007 1.106-.183 1.617-.394.485-.176 1.028-.32 1.344-.758.238-.324.215-.75.188-1.133-.004-.21-.215-.11-.336-.078"/><path fill="#ffdf01" d="M34.77-79.117c-1.97.101-3.938.219-5.907.324a53 53 0 0 1-3.87.094c-.95-.008-1.9.035-2.837.176-1.035.18-2.086.199-3.129.246-1.05.039-2.101.109-3.152.164-1.707.125-3.418.16-5.125.277-1.324.043-2.645.113-3.969.125-1.586.023-3.176.055-4.758.004-.332-.02-.273-.602-.691-.434-.293.13-.648.293-.762.618-.117.312.082.722.438.734.726.145 1.488.035 2.168-.25.48-.145.472.496.844.617.71.356 1.546.137 2.23-.18.258-.18.656-.535.898-.132.602.546 1.582.656 2.278.222.168-.32.672-.476.914-.156.351.27.82.375 1.265.379.586.004 1.149-.238 1.582-.617.278-.258.665-.215.958-.016.734.406 1.593.508 2.421.465.567-.035 1.141-.137 1.63-.437.273-.149.566-.348.898-.258.422.093.812.336 1.261.32.91.055 1.739-.371 2.594-.61.516-.156 1.07-.304 1.606-.132.37.129.707.355 1.09.457.382.105.8.226 1.195.113.5-.176.84-.648 1.351-.793.457-.105.786.32 1.196.434.617.14 1.258.097 1.886.117.399-.082.782-.34 1.204-.223.683.07 1.355.325 2.05.266.317-.125-.109-.863.383-.66.625.187 1.297.34 1.942.195.398-.16.421-.785.039-.973-.465-.304-1.032-.394-1.57-.457a7 7 0 0 0-.551-.02"/><path fill="#bfffbf" d="M35.848-75.992c-.79.172-1.59.37-2.407.332-.382.012-.757.133-1.125.226-.492.02-.98-.07-1.468-.023-1.254.016-2.52.168-3.762-.055-.293-.09-.703-.402-.961-.094-.375.305-.883.157-1.32.165-1.176-.004-2.344.156-3.516.246-.484.058-.969.148-1.46.136-.306-.109-.618-.398-.954-.226-.418.27-.937.164-1.406.172-1.149-.063-2.305-.133-3.446.043-.886.11-1.812.238-2.68-.055-.585-.133-1.183-.008-1.777-.023-1.27.02-2.535 0-3.804.097-.938.067-1.875.055-2.813.067a.5.5 0 0 0-.582.433c-.062.246.106.532.375.532.727.12 1.434-.165 2.094-.426.348-.094.676.12.902.36.59.456 1.426.558 2.098.237.453-.191.96-.476 1.453-.261.828.343 1.742.136 2.578-.059.317-.105.645-.363.996-.234.45.285 1.016.285 1.528.23.601-.082 1.203-.2 1.816-.184.969-.015 1.945.188 2.91.024.477-.09.953-.172 1.438-.18 1.425-.043 2.847.207 4.27.04.406-.16.823.038 1.222.105.75-.02 1.488-.301 2.242-.168.703.062 1.461.3 2.137-.024.347-.156.765-.254 1.117-.05.668.265 1.313.71 2.063.644.468-.05.652-.562 1.03-.77.473.063 1.051.083 1.383-.32.247-.261.286-.894-.171-.937"/><path fill="#bf0000" d="M23.8-77.484c-1.25.058-2.327.918-3.593.855-.34-.121-.91-.14-1.004.305-.098.48.18 1.12.738 1.125 1.997-.043 3.985-.305 5.977-.375.598-.133.61-1.195-.031-1.246-.719-.16-1.313-.739-2.086-.664m11.602.003c-.402.157-.718.602-1.199.477-.379-.008-.832-.246-1.148.07-.239.278-.328.797-.028 1.063.332.152.711-.008 1.059.008.527-.043 1.055-.094 1.566-.227.364-.355.352-1.254-.191-1.39zm-32.25.551c-.53-.015-.847.563-.664 1.032.012.441.367.867.84.754 2.164-.153 4.34-.06 6.512-.149.5-.039 1.008-.027 1.492-.043.465-.129.422-.863-.105-.8-.383.011-.735-.15-1.051-.348-.516-.235-.91.355-1.414.351-.543.094-1.149.027-1.559-.37-.379-.368-.84-.04-1.215.136-.66.27-1.433.355-2.101.074-.262-.195-.36-.621-.735-.637"/><path fill="#d24d4d" d="M28.215-77.523c-.219.03-.41.16-.613.246a7 7 0 0 0-.829.5.58.58 0 0 0-.222.652c.062.266.344.363.586.402a9.6 9.6 0 0 0 1.922.18c.832 0 1.66-.039 2.492-.031.308-.008.617.004.922-.032.258-.082.343-.367.363-.613.027-.297.121-.629-.063-.894-.308-.188-.722-.285-1.05-.09a1.8 1.8 0 0 1-.82.215c-.739.02-1.462-.16-2.157-.383-.18-.043-.34-.156-.531-.152m-9.477.664c-.547.07-1.027.382-1.562.511-.535.13-1.098.22-1.649.13-.59-.106-1.12-.419-1.707-.54-.386-.055-.777.086-1.078.324-.281.168-.574.364-.91.38-.16.077-.191.3-.152.46.054.215.273.38.496.34 1.34.176 2.683-.004 4.023-.074.766-.04 1.54-.074 2.305-.035.254.066.48-.145.555-.371.05-.172.09-.352.136-.524.07-.27-.117-.598-.414-.601z"/><path fill-rule="evenodd" d="M30.078-84.844c-.015.492-.617.496-.98.567-1.446.254-2.973.394-4.395-.07-1.219-.391-2.523-.391-3.77-.184-1.593.238-3.19.73-4.82.523-.422-.07-.883-.133-1.195-.46-.285-.344-.738-.337-1.129-.216-.621.153-1.266-.015-1.887.137-.683.172-1.347.5-2.07.48-1.234.032-2.426-.449-3.66-.37-1.918.148-3.692 1.394-4.563 3.101-.386.809-.515 1.727-.414 2.617-.441.387-1.086.68-1.183 1.32-.086.52.328 1.047.851 1.098.426.09.86.035 1.282.094.199.351.187 1.035-.387.855-.457-.066-.77.32-.738.75-.145 1.055.062 2.208.734 3.055.86.973 2.082 1.535 3.308 1.887 1.29.344 2.633.238 3.942.12 1.39-.144 2.781-.339 4.18-.269 1.648.043 3.297.157 4.949.188 1.324.05 2.652.035 3.976-.082a67 67 0 0 1 6.743.035c1.308.05 2.64-.023 3.898-.414 1.207-.3 2.516-.527 3.473-1.39.78-.68 1.254-1.66 1.402-2.676.117-.637.152-1.286.2-1.934-.231-.41-.735-.508-1.153-.598-.242.028-.547-.37-.121-.316.73-.05 1.285-.848 1.066-1.55-.039-.5-.636-.47-.828-.837-.027-.328.191-.64.117-.988-.054-1.211-.84-2.262-1.785-2.961-1.062-.8-2.34-1.297-3.644-1.516a5.4 5.4 0 0 0-1.399.004m.524.653c-.204.722.027 1.562-.45 2.203-.543.566-1.34.746-2.07.945-1.2.262-2.59.102-3.508-.781-.535-.508-.847-1.219-.945-1.945-.242-.31-1.035-.38-1.121.046a2.15 2.15 0 0 1-.926 1.446c-.816.527-1.723.906-2.652 1.183-.985.27-2.078.414-3.051.035a2.44 2.44 0 0 1-1.465-1.57 4.3 4.3 0 0 1-.191-1.262c-.383-.293-.891-.023-1.32-.05-.352.257-.321.77-.516 1.132-.262.598-.895.91-1.48 1.11-1.044.3-2.184.258-3.223-.063-.434-.168-.942-.34-1.184-.77-.195-.35-.215-.757-.293-1.144-.496-.125-.984.125-1.45.266-1.562.648-2.847 2.113-3.023 3.828-.035.469.036.945.215 1.379.457.172.953.031 1.426.09 2.54.027 5.07-.176 7.605-.196 1.66-.035 3.32-.043 4.973-.226a25 25 0 0 1 3.258-.137 24 24 0 0 0 3.234-.203c1.414-.144 2.836-.16 4.25-.215 1.684-.097 3.356-.25 5.04-.344 1.234-.093 2.48-.257 3.718-.109.277.024.617.066.8-.195.274-.356.138-.828-.023-1.196-.472-1.207-1.52-2.113-2.703-2.59a10 10 0 0 0-2.687-.687q-.119-.002-.238.02m-8.856.187c-1.844.184-3.656.852-5.531.633-.504-.063-1-.211-1.453-.442-.36.192-.063.672-.051.981.293.914 1.242 1.473 2.168 1.523 1.371.121 2.7-.386 3.922-.949.605-.273 1.234-.71 1.36-1.41.089-.367-.13-.375-.415-.336m-9.832.156c-1.527.543-3.172.27-4.734.063-.274-.031-.711-.188-.614.254.004.578.45 1.043.965 1.242.969.426 2.086.367 3.094.117.629-.18 1.3-.512 1.586-1.133.105-.25.14-.797-.297-.543m17.883.063c-1.645.422-3.383.445-5.043.14-.274-.043-.777-.289-.684.196.137.406.34.805.63 1.125.886.957 2.402 1.246 3.585.707.492-.223 1.047-.32 1.473-.664a1.06 1.06 0 0 0 .418-.813c.062-.27.074-.875-.38-.691m2.414 1.379c-.11.41-.668.64-.563 1.113.434.125.665-.402.813-.719.121-.175.023-.59-.25-.394m.852.37c-.266.138-.7.833-.208.864.348-.144.438-.379.422-.734.028-.137-.113-.176-.215-.13m-10.454.735c-.14.293.606.512.344.133-.082-.07-.238-.305-.344-.133m-1.03.114c-.274.355.69.703.401.195-.097-.102-.242-.309-.402-.195m-16.282.16c-.32.195.129.855.379.504-.18-.13-.13-.454-.38-.504m-.75.312c-.192.262.387.805.492.559-.027-.246-.215-.567-.492-.559m6.957.047c-.414.031-.012.762.117.285.008-.094.094-.441-.117-.285m.687.363c-.402.145.153.59.207.13.028-.126-.109-.223-.207-.13m22.309 1.25c-2.434.145-4.871.293-7.309.387-1.722.035-3.457-.05-5.164.219-1.136.156-2.28.199-3.425.246-5.508.289-11.02.676-16.536.559-.386.054-.39-.774-.84-.395-.34.125-.726.445-.632.844.133.394.62.437.976.41.606-.016 1.211-.106 1.762-.363.356.085.36.601.738.695.457.238 1.004.156 1.492.062.477-.128.899-.394 1.305-.664.59.715 1.715 1 2.531.512.215-.285.598-.578.88-.203.8.566 1.968.52 2.742-.078.273-.297.71-.434 1.074-.192.98.563 2.18.625 3.265.399.48-.098.891-.38 1.332-.574.54-.137 1.004.304 1.536.297 1.214.085 2.304-.579 3.468-.786a1.9 1.9 0 0 1 1.317.246c.531.243 1.117.489 1.71.407.614-.137.989-.797 1.637-.836.465.054.809.472 1.29.484.59.098 1.19.067 1.788.078.594-.414 1.34-.195 1.985-.055.363.07.738.153 1.105.07.25-.16-.183-.812.336-.66.617.235 1.297.34 1.953.266.403-.164.371-.879-.066-.98-.684-.371-1.484-.446-2.25-.395m-6.578 1.797c-.45.227-.996.402-1.23.883-.094.387.363.54.667.563 1.66.218 3.332.03 4.996.09.426-.196.364-.786.36-1.176-.2-.375-.738-.278-1.05-.114-.618.246-1.31.196-1.95.078-.488-.101-.961-.273-1.43-.437-.129-.008-.246.07-.363.113m-4.293-.039c-1.211.156-2.29.957-3.543.844-.324-.156-.848-.125-.707.363-.031.438.328.828.77.692 1.921-.012 3.824-.301 5.746-.348.343-.106.472-.84.027-.883-.453-.102-.867-.316-1.277-.527a2.2 2.2 0 0 0-1.016-.14m11.652.02c-.261.441-.828.46-1.277.43-.305-.009-.805-.243-.926.175-.066.305-.172.926.344.676.726-.059 1.469-.067 2.176-.273.175-.301.215-1.043-.266-1.028zm-32.3.59c-.575.05-.239.742-.243 1.093.082.434.59.238.89.242 2.524-.117 5.056-.015 7.579-.183.363.043.434-.524.02-.422-.45.055-.805-.203-1.176-.399-.418-.109-.692.364-1.114.368-.546.129-1.16.086-1.656-.188-.215-.293-.57-.496-.87-.183-.567.304-1.223.425-1.86.418-.383-.02-.797-.133-1.02-.477-.156-.18-.27-.469-.55-.27m15.44.043c-.995.41-2.1.8-3.183.515-.531-.129-1.02-.441-1.57-.492-.531.02-.937.406-1.398.629-.454-.145-.704.715-.149.633 1.938.082 3.875-.168 5.817-.153.394-.035.949.153 1.023-.398.18-.32.121-.969-.395-.77l-.074.02zm17.958.523c.094.445.078.973-.293 1.293-.367.383-.965.559-1.469.367-.386.23-.601.754-1.101.77-.852.085-1.512-.586-2.305-.754-.316-.075-.645.02-.914.187-.5.242-1.067.164-1.594.082-.668-.101-1.36-.148-2.008.067-.445.144-.879-.04-1.3-.133-.454-.004-.88.219-1.332.148-1.02-.047-2.036-.344-3.06-.175-1.19.144-2.382.46-3.589.304-.918-.066-1.855-.152-2.766.043-.699.094-1.453.094-2.085-.246-.524.035-.973.344-1.481.438-.652.175-1.379.183-1.992-.13-.531-.109-.95.34-1.457.4-.88.187-1.809-.118-2.508-.665-.457-.133-.867.207-1.312.262-.532.156-1.18.246-1.641-.133-.149-.238.121-1.055-.402-.73-.352.328-.297.863-.262 1.3.18 1.195 1.144 2.13 2.21 2.602 1.595.722 3.387.75 5.106.722 1.63-.062 3.25-.261 4.88-.246 3.339-.02 6.679.282 10.01-.004a34 34 0 0 1 4.907.083c1.79.105 3.59-.13 5.32-.583.582-.18 1.188-.34 1.7-.675.906-.657 1.304-1.77 1.527-2.825.094-.457.148-.925.164-1.39-.203-.313-.613-.367-.953-.38m-.57.25c-.743.183-1.496.336-2.266.324-.383.016-.781.055-1.129.238-.605-.02-1.207-.078-1.812-.035-1.278.035-2.586.203-3.832-.156-.254-.172-.59-.203-.743.098-.43.21-.918.03-1.375.074-1.105.012-2.21.148-3.312.234-.516.063-1.031.168-1.55.145-.34-.153-.708-.485-1.04-.121-.367.117-.762.054-1.145.07-1.09-.035-2.183-.148-3.27.012-.886.094-1.788.238-2.679.082-.695-.293-1.449-.117-2.18-.13-1.285.024-2.574.005-3.859.102-.965.075-1.93.028-2.898.07-.469.227-.219.946.297.762.714.008 1.367-.332 2.047-.504.472.04.707.551 1.148.684.668.29 1.418.078 2.039-.226.379-.16.824-.215 1.2-.02.71.25 1.476.102 2.187-.059.375-.046.683-.343 1.058-.324.39.106.754.332 1.176.297.86.016 1.695-.293 2.55-.215 1 .024 2.017.215 3-.043 1.938-.344 3.907.227 5.84-.136.41.02.798.296 1.223.136.586-.101 1.18-.238 1.778-.136.644.054 1.312.261 1.953.062.414-.219.906-.375 1.351-.129.676.25 1.336.73 2.09.617.504-.054.621-.836 1.121-.746.47.11 1.09 0 1.285-.5.063-.152.004-.625-.253-.527M13.71-73.387c-.379.446.644.281.3-.094-.105-.07-.269-.03-.3.094m.816.516c-.359.039-.046.629.121.242.106-.094.067-.387-.12-.242m9.778.121c-.047.238.242.906.472.516 0-.211-.207-.692-.472-.516m-1.633.059c-.086.207.2.886.375.523-.024-.184-.063-.77-.375-.523m-16.328.445c-.2.238.273.789.246.27-.008-.114-.082-.45-.246-.27m-1.02.09c-.156.281.301.906.508.601-.098-.214-.215-.66-.484-.625l-.016.012z"/><path fill="maroon" d="M13.504-99.848c-4.55.551-8.29-.289-10.074 1.535-1.618 1.794-2.215 2.669-1.88 3.895.247.899-1.046.469-1.132 1.305-.094.902 1.934.781 2.164 1.594.281.957-.84.878-1.34 1.324.13 4.28 3.031 4.316 5.465 4.441 3.54.195 7-.242 10.54.129 4.444.043 9.241-.11 13.687-.035 2.324-.145 5.277-.559 6.277-3.008.492-.902.82-3.555-.832-3.168-.496-1.094.883-1.586.894-1.977.012-.367-.523-.44-.722-.863.8-1.613-.485-2.914-2.137-4.05-1.062-.626-2.582-1.047-3.812-1.055-3.532.5-4.774.156-7.676-.047-2.867.18-5.27.71-9.422-.02"/><path fill="#b26666" fill-rule="evenodd" d="M21.79-99.562c-1.61.168-3.18.656-4.81.675-.761.012-1.558-.09-2.226-.488-.234-.016-.094.367-.098.508.063.594.36 1.172.871 1.5.688.449 1.555.492 2.352.402 1.043-.133 2.05-.48 2.992-.945.5-.262 1.035-.61 1.211-1.18.012-.144.18-.43-.023-.488-.09-.008-.18.008-.27.016m-9.767.12c-.867.348-1.824.399-2.746.336-.84-.054-1.68-.175-2.515-.285-.254-.03-.137.32-.13.47.122.597.673 1.01 1.247 1.14.844.246 1.75.203 2.601.012.606-.149 1.239-.407 1.598-.942.137-.223.219-.512.133-.766-.059-.039-.133.02-.188.036m17.782.098c-.965.27-1.977.336-2.977.34-.828-.004-1.668-.039-2.465-.27-.125-.082-.351-.09-.281.126.09.433.332.82.605 1.16.567.656 1.438 1.05 2.305 1.011.563-.007 1.106-.187 1.617-.394.485-.176 1.028-.32 1.344-.758.238-.328.215-.754.188-1.133-.004-.21-.215-.11-.336-.082"/><path fill="#ffdf01" d="M34.77-94.707c-1.97.101-3.938.219-5.907.32-1.285.09-2.578.106-3.87.098-.95-.008-1.9.035-2.837.176-1.035.175-2.086.199-3.129.242-1.05.043-2.101.113-3.152.168-1.707.125-3.418.16-5.125.277-1.324.043-2.645.114-3.969.125-1.586.024-3.176.055-4.758.004-.332-.02-.273-.601-.691-.434-.293.125-.648.293-.762.618-.117.312.082.722.438.73.726.149 1.488.04 2.168-.246.48-.148.472.496.844.613.71.36 1.546.141 2.23-.175.258-.18.656-.54.898-.133.602.547 1.582.652 2.278.222.168-.32.672-.476.914-.156.351.27.82.371 1.265.375.586.008 1.149-.234 1.582-.617.278-.254.665-.215.958-.016.734.41 1.593.512 2.421.47.567-.036 1.141-.141 1.63-.438.273-.149.566-.348.898-.258.422.094.812.336 1.261.32.91.055 1.739-.375 2.594-.61.516-.16 1.07-.304 1.606-.132.37.129.707.355 1.09.457.382.105.8.226 1.195.11.5-.172.84-.645 1.351-.79.457-.105.786.32 1.196.434.617.14 1.258.097 1.886.117.399-.082.782-.34 1.204-.227.683.075 1.355.329 2.05.266.317-.121-.109-.86.383-.656.625.187 1.297.34 1.942.191.398-.156.421-.781.039-.972-.465-.301-1.032-.395-1.57-.454a5 5 0 0 0-.551-.019"/><path fill="#bfffbf" d="M35.848-91.582c-.79.172-1.59.371-2.407.332-.382.012-.757.133-1.125.227-.492.02-.98-.07-1.468-.024-1.254.016-2.52.168-3.762-.055-.293-.09-.703-.402-.961-.093-.375.304-.883.152-1.32.164-1.176-.004-2.344.152-3.516.246-.484.058-.969.148-1.46.137-.306-.114-.618-.399-.954-.23-.418.272-.937.163-1.406.175-1.149-.063-2.305-.133-3.446.043-.886.11-1.812.238-2.68-.055-.585-.133-1.183-.008-1.777-.023-1.27.02-2.535 0-3.804.094-.938.066-1.875.058-2.813.066a.505.505 0 0 0-.582.437c-.062.243.106.532.375.532.727.12 1.434-.164 2.094-.426.348-.094.676.12.902.36.59.452 1.426.558 2.098.237.453-.19.96-.48 1.453-.265.828.347 1.742.14 2.578-.055.317-.105.645-.363.996-.234.45.285 1.016.285 1.528.23.601-.082 1.203-.203 1.816-.183.969-.02 1.945.187 2.91.023.477-.09.953-.172 1.438-.18 1.425-.046 2.847.204 4.27.04.406-.16.823.039 1.222.105.75-.02 1.488-.3 2.242-.168.703.063 1.461.3 2.137-.027.347-.153.765-.25 1.117-.047.668.265 1.313.71 2.063.644.468-.05.652-.562 1.03-.77.473.063 1.051.083 1.383-.323.247-.258.286-.891-.171-.934"/><path fill="#bf0000" d="M23.8-93.074c-1.25.058-2.327.918-3.593.855-.34-.12-.91-.14-1.004.301-.098.484.18 1.125.738 1.125 1.997-.039 3.985-.3 5.977-.371.598-.133.61-1.195-.031-1.246-.719-.16-1.313-.738-2.086-.664m11.602 0c-.402.16-.718.605-1.199.476-.379-.004-.832-.242-1.148.07-.239.278-.328.801-.028 1.067.332.152.711-.012 1.059.004.527-.04 1.055-.09 1.566-.223.364-.355.352-1.254-.191-1.394zm-32.25.555c-.53-.016-.847.562-.664 1.03.012.442.367.868.84.755 2.164-.157 4.34-.059 6.512-.149.5-.039 1.008-.027 1.492-.043.465-.133.422-.863-.105-.8-.383.007-.735-.149-1.051-.348-.516-.235-.91.355-1.414.351-.543.094-1.149.028-1.559-.37-.379-.372-.84-.04-1.215.136-.66.266-1.433.355-2.101.074-.262-.195-.36-.62-.735-.636"/><path fill="#d24d4d" d="M28.215-93.113c-.219.031-.41.16-.613.246a7 7 0 0 0-.829.5.58.58 0 0 0-.222.652c.062.262.344.363.586.403a9.6 9.6 0 0 0 1.922.18c.832 0 1.66-.04 2.492-.032.308-.008.617.004.922-.031.258-.082.343-.368.363-.614.027-.297.121-.629-.063-.894-.308-.188-.722-.285-1.05-.094-.25.145-.535.211-.82.219-.739.02-1.462-.16-2.157-.383-.18-.047-.34-.156-.531-.152m-9.477.664c-.547.066-1.027.383-1.562.511-.535.13-1.098.22-1.649.13-.59-.11-1.12-.419-1.707-.54-.386-.054-.777.086-1.078.325-.281.167-.574.363-.91.379-.16.074-.191.3-.152.46.054.215.273.38.496.34 1.34.176 2.683-.004 4.023-.074.766-.039 1.54-.074 2.305-.035.254.066.48-.145.555-.371.05-.172.09-.352.136-.524.07-.27-.117-.601-.414-.601z"/><path fill-rule="evenodd" d="M30.078-100.434c-.015.493-.617.496-.98.567-1.446.254-2.973.394-4.395-.07-1.219-.391-2.523-.391-3.77-.184-1.593.238-3.19.727-4.82.523-.422-.07-.883-.133-1.195-.461-.285-.343-.738-.336-1.129-.214-.621.152-1.266-.016-1.887.132-.683.176-1.347.504-2.07.485-1.234.031-2.426-.449-3.66-.371-1.918.148-3.692 1.39-4.563 3.101-.386.805-.515 1.727-.414 2.617-.441.387-1.086.68-1.183 1.32-.086.52.328 1.048.851 1.098.426.09.86.035 1.282.094.199.352.187 1.035-.387.856-.457-.07-.77.32-.738.746-.145 1.058.062 2.21.734 3.058.86.973 2.082 1.535 3.308 1.887 1.29.344 2.633.238 3.942.121 1.39-.144 2.781-.34 4.18-.27 1.648.043 3.297.157 4.949.188 1.324.05 2.652.035 3.976-.082 2.246-.11 4.496-.09 6.743.035 1.308.051 2.64-.027 3.898-.414 1.207-.3 2.516-.527 3.473-1.39.78-.68 1.254-1.66 1.402-2.676.117-.64.152-1.29.2-1.934-.231-.41-.735-.508-1.153-.597-.242.027-.547-.372-.121-.317.73-.05 1.285-.848 1.066-1.55-.039-.5-.636-.47-.828-.837-.027-.328.191-.64.117-.988-.054-1.21-.84-2.262-1.785-2.96-1.062-.802-2.34-1.302-3.644-1.52a5.4 5.4 0 0 0-1.399.007m.524.653c-.204.722.027 1.562-.45 2.203-.543.562-1.34.742-2.07.945-1.2.262-2.59.098-3.508-.781-.535-.508-.847-1.219-.945-1.945-.242-.309-1.035-.38-1.121.043a2.15 2.15 0 0 1-.926 1.449c-.816.527-1.723.906-2.652 1.183-.985.266-2.078.41-3.051.032a2.43 2.43 0 0 1-1.465-1.567 4.3 4.3 0 0 1-.191-1.262c-.383-.292-.891-.023-1.32-.05-.352.258-.321.77-.516 1.129-.262.601-.895.914-1.48 1.113-1.044.3-2.184.258-3.223-.063-.434-.167-.942-.343-1.184-.77-.195-.35-.215-.76-.293-1.144-.496-.128-.984.125-1.45.266-1.562.644-2.847 2.113-3.023 3.828-.035.469.036.945.215 1.379.457.172.953.031 1.426.086 2.54.031 5.07-.172 7.605-.191 1.66-.036 3.32-.043 4.973-.227a25 25 0 0 1 3.258-.137 25 25 0 0 0 3.234-.203c1.414-.144 2.836-.16 4.25-.215 1.684-.101 3.356-.25 5.04-.347 1.234-.09 2.48-.254 3.718-.106.277.024.617.067.8-.195.274-.356.138-.828-.023-1.195-.472-1.208-1.52-2.114-2.703-2.59a10 10 0 0 0-2.687-.688q-.119-.002-.238.02m-8.856.187c-1.844.18-3.656.852-5.531.633-.504-.062-1-.21-1.453-.441-.36.187-.063.671-.051.98.293.91 1.242 1.473 2.168 1.524 1.371.12 2.7-.387 3.922-.95.605-.277 1.234-.71 1.36-1.41.089-.367-.13-.375-.415-.336m-9.832.156c-1.527.54-3.172.27-4.734.063-.274-.031-.711-.191-.614.254.004.578.45 1.043.965 1.242.969.426 2.086.367 3.094.117.629-.18 1.3-.511 1.586-1.132.105-.254.14-.797-.297-.543m17.883.063c-1.645.422-3.383.445-5.043.14-.274-.042-.777-.292-.684.196.137.406.34.8.63 1.125.886.957 2.402 1.246 3.585.707.492-.223 1.047-.32 1.473-.668.254-.191.41-.488.418-.809.062-.27.074-.879-.38-.691m2.414 1.379c-.11.41-.668.64-.563 1.113.434.125.665-.402.813-.719.121-.175.023-.59-.25-.394m.852.371c-.266.137-.7.832-.208.863.348-.144.438-.382.422-.734.028-.137-.113-.18-.215-.129m-10.454.734c-.14.293.606.512.344.133-.082-.07-.238-.305-.344-.133m-1.03.11c-.274.36.69.707.401.199-.097-.106-.242-.309-.402-.2m-16.282.164c-.32.195.129.855.379.504-.18-.13-.13-.453-.38-.504m-.75.312c-.192.262.387.805.492.559-.027-.246-.215-.57-.492-.559m6.957.047c-.414.031-.012.762.117.285.008-.097.094-.441-.117-.285m.687.364c-.402.14.153.59.207.128.028-.125-.109-.222-.207-.128M34.5-94.648c-2.434.144-4.871.296-7.309.39-1.722.035-3.457-.05-5.164.219-1.136.156-2.28.2-3.425.246-5.508.29-11.02.676-16.536.559-.386.054-.39-.774-.84-.395-.34.125-.726.445-.632.844.133.394.62.437.976.406.606-.012 1.211-.102 1.762-.36.356.087.36.602.738.696.457.238 1.004.156 1.492.059.477-.125.899-.391 1.305-.664.59.718 1.715 1.004 2.531.511.215-.281.598-.578.88-.199.8.567 1.968.52 2.742-.078.273-.297.71-.434 1.074-.192.98.563 2.18.625 3.265.399.48-.098.891-.379 1.332-.574.54-.137 1.004.304 1.536.297 1.214.086 2.304-.579 3.468-.79a1.9 1.9 0 0 1 1.317.25c.531.243 1.117.489 1.71.407.614-.137.989-.797 1.637-.836.465.055.809.472 1.29.484.59.098 1.19.067 1.788.078.594-.418 1.34-.199 1.985-.054.363.066.738.152 1.105.07.25-.16-.183-.812.336-.66a4.2 4.2 0 0 0 1.953.262c.403-.16.371-.875-.066-.98-.684-.368-1.484-.446-2.25-.395m-6.578 1.8c-.45.227-.996.399-1.23.883-.094.387.363.54.667.559 1.66.222 3.332.031 4.996.094.426-.196.364-.786.36-1.176-.2-.375-.738-.278-1.05-.114-.618.246-1.31.196-1.95.079-.488-.106-.961-.274-1.43-.438-.129-.008-.246.07-.363.113m-4.293-.039c-1.211.156-2.29.957-3.543.844-.324-.156-.848-.125-.707.363-.031.438.328.828.77.688 1.921-.008 3.824-.297 5.746-.344.343-.105.472-.84.027-.883-.453-.101-.867-.316-1.277-.531a2.2 2.2 0 0 0-1.016-.137m11.652.02c-.261.441-.828.46-1.277.43-.305-.008-.805-.243-.926.175-.066.305-.172.926.344.676.726-.058 1.469-.066 2.176-.273.175-.301.215-1.043-.266-1.028zm-32.3.586c-.575.054-.239.742-.243 1.097.082.434.59.239.89.239 2.524-.118 5.056-.016 7.579-.184.363.047.434-.523.02-.418-.45.055-.805-.207-1.176-.402-.418-.106-.692.363-1.114.37-.546.13-1.16.087-1.656-.19-.215-.29-.57-.497-.87-.184-.567.309-1.223.43-1.86.422-.383-.02-.797-.133-1.02-.477-.156-.18-.27-.473-.55-.273m15.44.047c-.995.41-2.1.8-3.183.515-.531-.129-1.02-.441-1.57-.496-.531.024-.937.41-1.398.63-.454-.142-.704.718-.149.636 1.938.082 3.875-.168 5.817-.153.394-.035.949.153 1.023-.398.18-.32.121-.969-.395-.77l-.074.016zm17.958.523c.094.445.078.973-.293 1.293-.367.383-.965.559-1.469.367-.386.23-.601.754-1.101.77-.852.086-1.512-.586-2.305-.754-.316-.074-.645.02-.914.187-.5.242-1.067.164-1.594.079-.668-.098-1.36-.145-2.008.066-.445.148-.879-.035-1.3-.129-.454-.004-.88.219-1.332.148-1.02-.05-2.036-.347-3.06-.175-1.19.144-2.382.457-3.589.304-.918-.066-1.855-.152-2.766.043-.699.09-1.453.094-2.085-.246-.524.035-.973.344-1.481.434-.652.18-1.379.187-1.992-.125-.531-.11-.95.34-1.457.398-.88.188-1.809-.117-2.508-.664-.457-.133-.867.207-1.312.258-.532.16-1.18.25-1.641-.133-.149-.234.121-1.054-.402-.726-.352.328-.297.863-.262 1.3.18 1.196 1.144 2.125 2.21 2.602 1.595.723 3.387.75 5.106.723 1.63-.063 3.25-.262 4.88-.246 3.339-.024 6.679.28 10.01-.004a34 34 0 0 1 4.907.082c1.79.105 3.59-.13 5.32-.582.582-.18 1.188-.34 1.7-.676.906-.656 1.304-1.774 1.527-2.824.094-.457.148-.926.164-1.391-.203-.312-.613-.371-.953-.379m-.57.25c-.743.184-1.496.336-2.266.32-.383.02-.781.059-1.129.243-.605-.02-1.207-.079-1.812-.036-1.278.036-2.586.203-3.832-.156-.254-.172-.59-.203-.743.098-.43.21-.918.031-1.375.074-1.105.008-2.21.149-3.312.234-.516.063-1.031.168-1.55.145-.34-.156-.708-.488-1.04-.121-.367.113-.762.054-1.145.07-1.09-.039-2.183-.148-3.27.012-.886.094-1.788.238-2.679.078-.695-.293-1.449-.113-2.18-.125-1.285.023-2.574.004-3.859.102-.965.074-1.93.027-2.898.07-.469.226-.219.945.297.762.714.004 1.367-.332 2.047-.504.472.039.707.55 1.148.683.668.29 1.418.075 2.039-.226.379-.164.824-.215 1.2-.02.71.25 1.476.102 2.187-.058.375-.051.683-.344 1.058-.325.39.106.754.332 1.176.297.86.012 1.695-.293 2.55-.215 1 .024 2.017.215 3-.043 1.938-.343 3.907.227 5.84-.136.41.02.798.297 1.223.136.586-.101 1.18-.242 1.778-.136.644.054 1.312.261 1.953.062.414-.218.906-.375 1.351-.129.676.25 1.336.73 2.09.618.504-.055.621-.84 1.121-.747.47.106 1.09 0 1.285-.5.063-.156.004-.625-.253-.527M13.71-88.977c-.379.446.644.282.3-.093-.105-.07-.269-.032-.3.093m.816.516c-.359.04-.046.629.121.242.106-.094.067-.387-.12-.242m9.778.117c-.047.242.242.906.472.52 0-.211-.207-.692-.472-.52m-1.633.063c-.086.203.2.887.375.523-.024-.183-.063-.77-.375-.523m-16.328.445c-.2.238.273.79.246.266-.008-.11-.082-.446-.246-.266m-1.02.086c-.156.285.301.91.508.606-.098-.215-.215-.66-.484-.625l-.016.011z"/><path fill="#ad6149" d="M13.504-115.438c-4.55.551-8.29-.289-10.074 1.532-1.618 1.797-2.215 2.672-1.88 3.898.247.899-1.046.469-1.132 1.305-.094.902 1.934.781 2.164 1.594.281.957-.84.879-1.34 1.324.13 4.281 3.031 4.316 5.465 4.437 3.54.196 7-.238 10.54.133 4.444.043 9.241-.109 13.687-.035 2.324-.145 5.277-.563 6.277-3.008.492-.902.82-3.555-.832-3.168-.496-1.094.883-1.586.894-1.98.012-.367-.523-.438-.722-.864.8-1.609-.485-2.91-2.137-4.046-1.062-.625-2.582-1.047-3.812-1.055-3.532.5-4.774.156-7.676-.047-2.867.18-5.27.707-9.422-.02"/><path fill="#cea092" fill-rule="evenodd" d="M21.79-115.152c-1.61.168-3.18.656-4.81.675-.761.012-1.558-.093-2.226-.488-.234-.015-.094.363-.098.508.063.594.36 1.172.871 1.496.688.453 1.555.496 2.352.406 1.043-.133 2.05-.48 2.992-.945.5-.262 1.035-.609 1.211-1.18.012-.144.18-.433-.023-.488-.09-.008-.18.008-.27.016m-9.767.121c-.867.343-1.824.394-2.746.336-.84-.055-1.68-.176-2.515-.285-.254-.032-.137.32-.13.468.122.598.673 1.012 1.247 1.141.844.242 1.75.203 2.601.012.606-.149 1.239-.407 1.598-.942.137-.222.219-.512.133-.765-.059-.039-.133.019-.188.035m17.782.097c-.965.27-1.977.332-2.977.34-.828-.008-1.668-.043-2.465-.269-.125-.082-.351-.09-.281.125.09.433.332.816.605 1.16.567.656 1.438 1.051 2.305 1.012.563-.008 1.106-.188 1.617-.399.485-.172 1.028-.316 1.344-.754.238-.328.215-.754.188-1.133-.004-.214-.215-.109-.336-.082"/><path fill="#ffdf01" d="M34.77-110.297c-1.97.102-3.938.219-5.907.32-1.285.09-2.578.106-3.87.094-.95-.004-1.9.039-2.837.176-1.035.18-2.086.199-3.129.246-1.05.039-2.101.113-3.152.168-1.707.125-3.418.16-5.125.277-1.324.043-2.645.114-3.969.121-1.586.028-3.176.059-4.758.004-.332-.019-.273-.597-.691-.429-.293.125-.648.293-.762.617-.117.308.082.719.438.73.726.149 1.488.035 2.168-.246.48-.148.472.496.844.614.71.359 1.546.14 2.23-.18.258-.18.656-.535.898-.129.602.547 1.582.652 2.278.223.168-.325.672-.477.914-.157.351.27.82.371 1.265.375.586.008 1.149-.234 1.582-.617.278-.258.665-.215.958-.015.734.41 1.593.511 2.421.468.567-.035 1.141-.14 1.63-.437.273-.149.566-.348.898-.258.422.094.812.336 1.261.32.91.055 1.739-.375 2.594-.609.516-.16 1.07-.305 1.606-.137.37.129.707.36 1.09.461.382.106.8.227 1.195.109.5-.175.84-.644 1.351-.789.457-.105.786.321 1.196.43.617.145 1.258.102 1.886.117.399-.082.782-.336 1.204-.222.683.074 1.355.328 2.05.265.317-.125-.109-.859.383-.656.625.188 1.297.34 1.942.191.398-.16.421-.781.039-.972-.465-.301-1.032-.395-1.57-.453a5 5 0 0 0-.551-.02"/><path fill="#bfffbf" d="M35.848-107.172c-.79.168-1.59.367-2.407.332-.382.012-.757.129-1.125.227-.492.019-.98-.071-1.468-.028-1.254.02-2.52.172-3.762-.05-.293-.09-.703-.403-.961-.094-.375.305-.883.152-1.32.164-1.176-.004-2.344.152-3.516.242-.484.063-.969.149-1.46.141-.306-.114-.618-.403-.954-.231-.418.27-.937.164-1.406.172-1.149-.058-2.305-.129-3.446.047-.886.105-1.812.238-2.68-.059-.585-.129-1.183-.004-1.777-.023-1.27.019-2.535 0-3.804.098-.938.066-1.875.054-2.813.066a.5.5 0 0 0-.582.434c-.062.246.106.535.375.535.727.121 1.434-.164 2.094-.426.348-.094.676.121.902.359.59.453 1.426.555 2.098.239.453-.192.96-.481 1.453-.266.828.348 1.742.141 2.578-.055.317-.105.645-.367.996-.238.45.289 1.016.285 1.528.234.601-.086 1.203-.203 1.816-.183.969-.02 1.945.187 2.91.023.477-.09.953-.176 1.438-.179 1.425-.047 2.847.203 4.27.039.406-.161.823.039 1.222.105.75-.023 1.488-.301 2.242-.168.703.063 1.461.301 2.137-.027.347-.156.765-.25 1.117-.047.668.266 1.313.711 2.063.644.468-.05.652-.562 1.03-.769.473.062 1.051.078 1.383-.324.247-.258.286-.891-.171-.934"/><path fill="#bf0000" d="M23.8-108.664c-1.25.059-2.327.918-3.593.855-.34-.121-.91-.14-1.004.301-.098.485.18 1.125.738 1.125 1.997-.043 3.985-.301 5.977-.375.598-.129.61-1.191-.031-1.246-.719-.156-1.313-.734-2.086-.66m11.602 0c-.402.16-.718.605-1.199.476-.379-.003-.832-.242-1.148.071-.239.277-.328.801-.028 1.062.332.157.711-.008 1.059.008.527-.039 1.055-.09 1.566-.223.364-.355.352-1.253-.191-1.394zm-32.25.555c-.53-.02-.847.558-.664 1.031.012.437.367.867.84.754 2.164-.156 4.34-.059 6.512-.153.5-.035 1.008-.023 1.492-.039.465-.132.422-.863-.105-.8-.383.007-.735-.153-1.051-.348-.516-.234-.91.355-1.414.351-.543.09-1.149.028-1.559-.371-.379-.371-.84-.039-1.215.133-.66.27-1.433.36-2.101.078-.262-.195-.36-.621-.735-.636"/><path fill="#d24d4d" d="M28.215-108.703c-.219.031-.41.156-.613.246a8 8 0 0 0-.829.496c-.203.148-.308.418-.222.656.062.262.344.364.586.403a9.6 9.6 0 0 0 1.922.175c.832 0 1.66-.035 2.492-.031.308-.004.617.008.922-.027.258-.082.343-.371.363-.613.027-.297.121-.629-.063-.899-.308-.183-.722-.285-1.05-.09-.25.145-.535.211-.82.219-.739.016-1.462-.16-2.157-.383-.18-.047-.34-.16-.531-.152m-9.477.664c-.547.066-1.027.383-1.562.512s-1.098.218-1.649.129c-.59-.11-1.12-.418-1.707-.54-.386-.054-.777.086-1.078.325-.281.168-.574.363-.91.375-.16.078-.191.304-.152.465a.456.456 0 0 0 .496.339c1.34.176 2.683-.004 4.023-.078.766-.035 1.54-.07 2.305-.031.254.066.48-.145.555-.371.05-.176.09-.352.136-.524.07-.269-.117-.601-.414-.601z"/><path fill-rule="evenodd" d="M30.078-116.023c-.015.492-.617.496-.98.562-1.446.258-2.973.395-4.395-.066-1.219-.391-2.523-.395-3.77-.188-1.593.238-3.19.731-4.82.527-.422-.074-.883-.132-1.195-.46-.285-.344-.738-.336-1.129-.215-.621.152-1.266-.016-1.887.133-.683.175-1.347.5-2.07.484-1.234.031-2.426-.449-3.66-.371-1.918.148-3.692 1.39-4.563 3.097-.386.809-.515 1.731-.414 2.622-.441.386-1.086.675-1.183 1.32-.086.519.328 1.047.851 1.098.426.089.86.035 1.282.089.199.356.187 1.039-.387.86-.457-.071-.77.32-.738.746-.145 1.058.062 2.211.734 3.058.86.973 2.082 1.536 3.308 1.887 1.29.344 2.633.235 3.942.121 1.39-.144 2.781-.34 4.18-.269 1.648.043 3.297.152 4.949.187 1.324.051 2.652.031 3.976-.082a65 65 0 0 1 6.743.035c1.308.051 2.64-.027 3.898-.418 1.207-.297 2.516-.523 3.473-1.386.78-.684 1.254-1.661 1.402-2.676.117-.641.152-1.289.2-1.934-.231-.41-.735-.508-1.153-.597-.242.027-.547-.371-.121-.321.73-.05 1.285-.843 1.066-1.547-.039-.5-.636-.472-.828-.839-.027-.329.191-.637.117-.989-.054-1.207-.84-2.258-1.785-2.961-1.062-.797-2.34-1.297-3.644-1.515a5.4 5.4 0 0 0-1.399.008m.524.652c-.204.723.027 1.562-.45 2.203-.543.563-1.34.742-2.07.945-1.2.262-2.59.098-3.508-.781-.535-.508-.847-1.219-.945-1.945-.242-.309-1.035-.379-1.121.043a2.15 2.15 0 0 1-.926 1.449c-.816.527-1.723.906-2.652 1.184-.985.265-2.078.41-3.051.031a2.43 2.43 0 0 1-1.465-1.567 4.3 4.3 0 0 1-.191-1.261c-.383-.293-.891-.024-1.32-.051-.352.258-.321.769-.516 1.129-.262.597-.895.91-1.48 1.109-1.044.305-2.184.262-3.223-.058-.434-.168-.942-.344-1.184-.77-.195-.352-.215-.762-.293-1.144-.496-.129-.984.121-1.45.265-1.562.645-2.847 2.113-3.023 3.828-.035.469.036.946.215 1.379.457.172.953.028 1.426.086 2.54.031 5.07-.172 7.605-.191 1.66-.035 3.32-.043 4.973-.231a26 26 0 0 1 3.258-.133 25 25 0 0 0 3.234-.203c1.414-.144 2.836-.16 4.25-.215 1.684-.101 3.356-.25 5.04-.347 1.234-.09 2.48-.254 3.718-.11.277.028.617.071.8-.191.274-.355.138-.828-.023-1.195-.472-1.207-1.52-2.114-2.703-2.59a9.8 9.8 0 0 0-2.687-.688 1 1 0 0 0-.238.02m-8.856.187c-1.844.18-3.656.848-5.531.633a4.5 4.5 0 0 1-1.453-.441c-.36.187-.063.672-.051.98.293.91 1.242 1.473 2.168 1.524 1.371.121 2.7-.391 3.922-.95.605-.277 1.234-.71 1.36-1.41.089-.367-.13-.375-.415-.336m-9.832.153c-1.527.543-3.172.273-4.734.066-.274-.031-.711-.191-.614.254.004.574.45 1.043.965 1.238.969.426 2.086.371 3.094.121.629-.179 1.3-.511 1.586-1.132.105-.254.14-.797-.297-.547m17.883.066c-1.645.422-3.383.445-5.043.141-.274-.043-.777-.293-.684.195.137.406.34.801.63 1.121.886.961 2.402 1.25 3.585.711.492-.223 1.047-.32 1.473-.668.254-.191.41-.488.418-.808.062-.27.074-.879-.38-.692m2.414 1.375c-.11.414-.668.641-.563 1.117.434.121.665-.406.813-.718.121-.176.023-.59-.25-.399m.852.375c-.266.133-.7.832-.208.863.348-.144.438-.382.422-.734.028-.137-.113-.18-.215-.129m-10.454.735c-.14.292.606.511.344.132-.082-.07-.238-.304-.344-.132m-1.03.109c-.274.359.69.707.401.199-.097-.105-.242-.308-.402-.199m-16.282.164c-.32.195.129.855.379.504-.18-.133-.13-.453-.38-.504m-.75.312c-.192.258.387.805.492.555-.027-.242-.215-.566-.492-.555m6.957.043c-.414.032-.012.766.117.289.008-.097.094-.441-.117-.289m.687.368c-.402.14.153.586.207.125.028-.121-.109-.219-.207-.125m22.309 1.246c-2.434.144-4.871.297-7.309.386-1.722.039-3.457-.046-5.164.223-1.136.156-2.28.199-3.425.246-5.508.289-11.02.676-16.536.559-.386.054-.39-.774-.84-.399-.34.129-.726.446-.632.848.133.395.62.437.976.406.606-.015 1.211-.101 1.762-.359.356.086.36.601.738.691.457.242 1.004.16 1.492.063.477-.125.899-.391 1.305-.664.59.715 1.715 1 2.531.511.215-.281.598-.578.88-.203.8.571 1.968.524 2.742-.074.273-.297.71-.434 1.074-.191.98.562 2.18.625 3.265.394.48-.094.891-.375 1.332-.57.54-.137 1.004.305 1.536.297 1.214.086 2.304-.578 3.468-.789a1.9 1.9 0 0 1 1.317.25c.531.242 1.117.488 1.71.406.614-.141.989-.797 1.637-.836.465.055.809.473 1.29.48.59.102 1.19.071 1.788.083.594-.418 1.34-.2 1.985-.055.363.066.738.152 1.105.07.25-.164-.183-.812.336-.664.617.234 1.297.344 1.953.266.403-.164.371-.875-.066-.981-.684-.367-1.484-.445-2.25-.394m-6.578 1.8c-.45.223-.996.399-1.23.883-.094.387.363.539.667.559 1.66.219 3.332.031 4.996.094.426-.196.364-.786.36-1.176-.2-.375-.738-.277-1.05-.113-.618.242-1.31.195-1.95.078-.488-.106-.961-.274-1.43-.438-.129-.008-.246.071-.363.113m-4.293-.039c-1.211.157-2.29.957-3.543.84-.324-.152-.848-.121-.707.367-.031.434.328.825.77.688 1.921-.008 3.824-.297 5.746-.344.343-.105.472-.844.027-.883-.453-.101-.867-.32-1.277-.531a2.2 2.2 0 0 0-1.016-.137m11.652.016c-.261.445-.828.465-1.277.434-.305-.008-.805-.243-.926.175-.066.305-.172.926.344.676.726-.058 1.469-.066 2.176-.273.175-.305.215-1.043-.266-1.031zm-32.3.59c-.575.051-.239.742-.243 1.098.082.433.59.238.89.238 2.524-.117 5.056-.016 7.579-.184.363.047.434-.523.02-.422-.45.055-.805-.203-1.176-.398-.418-.106-.692.363-1.114.371-.546.129-1.16.082-1.656-.191-.215-.289-.57-.496-.87-.184-.567.305-1.223.43-1.86.422-.383-.02-.797-.133-1.02-.477-.156-.179-.27-.472-.55-.273m15.44.047c-.995.41-2.1.801-3.183.515-.531-.132-1.02-.445-1.57-.496-.531.024-.937.41-1.398.629-.454-.144-.704.715-.149.637 1.938.082 3.875-.168 5.817-.152.394-.036.949.152 1.023-.399.18-.32.121-.969-.395-.769l-.074.015zm17.958.519c.094.45.078.973-.293 1.293-.367.387-.965.563-1.469.371-.386.231-.601.754-1.101.766-.852.09-1.512-.582-2.305-.75-.316-.074-.645.02-.914.187-.5.243-1.067.165-1.594.079-.668-.098-1.36-.145-2.008.066-.445.148-.879-.035-1.3-.129-.454-.004-.88.215-1.332.149-1.02-.051-2.036-.348-3.06-.176-1.19.144-2.382.457-3.589.304-.918-.066-1.855-.156-2.766.043-.699.09-1.453.094-2.085-.25-.524.039-.973.344-1.481.438-.652.18-1.379.187-1.992-.125-.531-.109-.95.34-1.457.398-.88.188-1.809-.117-2.508-.664-.457-.133-.867.203-1.312.258-.532.16-1.18.25-1.641-.133-.149-.234.121-1.054-.402-.726-.352.328-.297.863-.262 1.297.18 1.199 1.144 2.129 2.21 2.605 1.595.723 3.387.75 5.106.723 1.63-.063 3.25-.266 4.88-.25 3.339-.02 6.679.285 10.01 0 1.634-.102 3.274-.055 4.907.082 1.79.101 3.59-.129 5.32-.582.582-.18 1.188-.34 1.7-.676.906-.656 1.304-1.773 1.527-2.828.094-.453.148-.922.164-1.387-.203-.316-.613-.371-.953-.383m-.57.25c-.743.188-1.496.34-2.266.325-.383.019-.781.054-1.129.242-.605-.02-1.207-.078-1.812-.039-1.278.039-2.586.207-3.832-.153-.254-.172-.59-.203-.743.098-.43.211-.918.031-1.375.074-1.105.008-2.21.149-3.312.235-.516.062-1.031.168-1.55.14-.34-.152-.708-.484-1.04-.117-.367.113-.762.051-1.145.07-1.09-.039-2.183-.148-3.27.012-.886.094-1.788.238-2.679.078-.695-.293-1.449-.113-2.18-.125-1.285.024-2.574.004-3.859.102-.965.074-1.93.027-2.898.07-.469.227-.219.945.297.762.714.004 1.367-.332 2.047-.504.472.039.707.551 1.148.68.668.292 1.418.078 2.039-.223.379-.164.824-.215 1.2-.02.71.246 1.476.102 2.187-.058.375-.051.683-.348 1.058-.328.39.109.754.332 1.176.296.86.016 1.695-.289 2.55-.21 1 .023 2.017.21 3-.043 1.938-.344 3.907.222 5.84-.137.41.019.798.293 1.223.137.586-.106 1.18-.243 1.778-.137.644.055 1.312.258 1.953.062.414-.218.906-.375 1.351-.132.676.253 1.336.734 2.09.621.504-.055.621-.84 1.121-.746.47.105 1.09 0 1.285-.504.063-.153.004-.621-.253-.528m-22.098 2.489c-.379.445.644.281.3-.094-.105-.07-.269-.031-.3.094m.816.515c-.359.035-.046.629.121.242.106-.093.067-.386-.12-.242m9.778.117c-.047.243.242.907.472.52 0-.211-.207-.691-.472-.52m-1.633.063c-.086.203.2.887.375.523-.024-.183-.063-.769-.375-.523m-16.328.441c-.2.242.273.793.246.27-.008-.11-.082-.445-.246-.27m-1.02.09c-.156.285.301.91.508.606-.098-.215-.215-.661-.484-.625l-.016.011z"/><path fill="#98443d" d="M13.504-131.031c-4.55.554-8.29-.285-10.074 1.535-1.618 1.797-2.215 2.672-1.88 3.898.247.899-1.046.469-1.132 1.301-.094.906 1.934.781 2.164 1.598.281.957-.84.879-1.34 1.324.13 4.277 3.031 4.316 5.465 4.437 3.54.196 7-.242 10.54.133 4.444.043 9.241-.109 13.687-.035 2.324-.144 5.277-.562 6.277-3.008.492-.906.82-3.554-.832-3.172-.496-1.093.883-1.582.894-1.976.012-.367-.523-.438-.722-.863.8-1.614-.485-2.911-2.137-4.047-1.062-.625-2.582-1.047-3.812-1.059-3.532.5-4.774.16-7.676-.043-2.867.18-5.27.707-9.422-.023"/><path fill="#c18f8b" fill-rule="evenodd" d="M21.79-130.742c-1.61.168-3.18.656-4.81.676-.761.011-1.558-.094-2.226-.489-.234-.015-.094.364-.098.508.063.594.36 1.168.871 1.496.688.453 1.555.496 2.352.406 1.043-.132 2.05-.484 2.992-.949.5-.258 1.035-.605 1.211-1.176.012-.144.18-.433-.023-.492-.09-.004-.18.008-.27.02m-9.767.121c-.867.344-1.824.394-2.746.336-.84-.055-1.68-.18-2.515-.285-.254-.032-.137.32-.13.468.122.594.673 1.012 1.247 1.137.844.246 1.75.207 2.601.016.606-.149 1.239-.41 1.598-.942.137-.222.219-.511.133-.765-.059-.039-.133.019-.188.035m17.782.098c-.965.265-1.977.332-2.977.339-.828-.007-1.668-.043-2.465-.269-.125-.082-.351-.094-.281.125.09.433.332.816.605 1.16a2.94 2.94 0 0 0 2.305 1.012c.563-.008 1.106-.188 1.617-.399.485-.172 1.028-.316 1.344-.754.238-.328.215-.754.188-1.132-.004-.215-.215-.11-.336-.082"/><path fill="#ffdf01" d="M34.77-125.887c-1.97.102-3.938.219-5.907.321a49 49 0 0 1-3.87.093c-.95-.004-1.9.035-2.837.176-1.035.18-2.086.199-3.129.246-1.05.039-2.101.11-3.152.168-1.707.125-3.418.156-5.125.274-1.324.046-2.645.113-3.969.125-1.586.023-3.176.058-4.758.004-.332-.02-.273-.598-.691-.43-.293.125-.648.293-.762.613-.117.313.082.723.438.734.726.149 1.488.036 2.168-.246.48-.148.472.496.844.614.71.355 1.546.14 2.23-.18.258-.18.656-.535.898-.133.602.551 1.582.656 2.278.227.168-.324.672-.477.914-.157.351.27.82.372 1.265.375.586.008 1.149-.238 1.582-.617.278-.258.665-.215.958-.015.734.406 1.593.507 2.421.468.567-.035 1.141-.14 1.63-.437.273-.152.566-.352.898-.258.422.094.812.336 1.261.32.91.055 1.739-.375 2.594-.609.516-.16 1.07-.305 1.606-.137.37.129.707.36 1.09.461.382.106.8.227 1.195.11.5-.176.84-.649 1.351-.789.457-.106.786.316 1.196.429.617.145 1.258.102 1.886.117.399-.082.782-.335 1.204-.222.683.074 1.355.328 2.05.265.317-.125-.109-.863.383-.656.625.188 1.297.34 1.942.192.398-.161.421-.782.039-.973-.465-.305-1.032-.395-1.57-.457a6 6 0 0 0-.551-.016"/><path fill="#bfffbf" d="M35.848-122.762c-.79.168-1.59.367-2.407.332-.382.012-.757.129-1.125.227-.492.019-.98-.07-1.468-.027-1.254.019-2.52.167-3.762-.051-.293-.09-.703-.403-.961-.098-.375.309-.883.156-1.32.168-1.176-.004-2.344.152-3.516.242-.484.063-.969.149-1.46.141-.306-.113-.618-.402-.954-.231-.418.27-.937.164-1.406.172-1.149-.062-2.305-.129-3.446.043-.886.11-1.812.242-2.68-.054-.585-.129-1.183-.004-1.777-.024-1.27.02-2.535 0-3.804.098-.938.066-1.875.054-2.813.066a.503.503 0 0 0-.582.434c-.062.246.106.535.375.535.727.117 1.434-.164 2.094-.426.348-.094.676.121.902.36.59.453 1.426.554 2.098.238.453-.192.96-.481 1.453-.266.828.348 1.742.141 2.578-.055.317-.105.645-.367.996-.238.45.289 1.016.285 1.528.235.601-.086 1.203-.204 1.816-.184.969-.02 1.945.187 2.91.023.477-.089.953-.175 1.438-.179 1.425-.047 2.847.203 4.27.039.406-.16.823.039 1.222.105.75-.023 1.488-.301 2.242-.168.703.063 1.461.297 2.137-.027.347-.156.765-.25 1.117-.051.668.27 1.313.715 2.063.645.468-.047.652-.559 1.03-.766.473.063 1.051.078 1.383-.324.247-.258.286-.895-.171-.934"/><path fill="#bf0000" d="M23.8-124.254c-1.25.059-2.327.914-3.593.852-.34-.118-.91-.137-1.004.304-.098.485.18 1.121.738 1.125 1.997-.043 3.985-.3 5.977-.375.598-.129.61-1.191-.031-1.246-.719-.16-1.313-.734-2.086-.66m11.602 0c-.402.16-.718.602-1.199.477-.379-.004-.832-.243-1.148.07-.239.277-.328.801-.028 1.062.332.157.711-.007 1.059.008.527-.039 1.055-.09 1.566-.222.364-.36.352-1.254-.191-1.395zm-32.25.555c-.53-.02-.847.558-.664 1.027.012.442.367.871.84.754 2.164-.152 4.34-.059 6.512-.148.5-.036 1.008-.028 1.492-.039.465-.133.422-.864-.105-.801-.383.008-.735-.153-1.051-.352-.516-.23-.91.36-1.414.356-.543.089-1.149.023-1.559-.371-.379-.372-.84-.04-1.215.132-.66.27-1.433.36-2.101.078-.262-.195-.36-.621-.735-.636"/><path fill="#d24d4d" d="M28.215-124.297c-.219.035-.41.16-.613.25a7 7 0 0 0-.829.496c-.203.149-.308.414-.222.656.062.262.344.364.586.399a9.4 9.4 0 0 0 1.922.18c.832 0 1.66-.036 2.492-.032.308-.004.617.008.922-.031.258-.082.343-.367.363-.609.027-.297.121-.629-.063-.899-.308-.183-.722-.285-1.05-.09-.25.145-.535.211-.82.219-.739.016-1.462-.16-2.157-.387-.18-.043-.34-.156-.531-.152m-9.477.664c-.547.07-1.027.387-1.562.516s-1.098.219-1.649.129c-.59-.11-1.12-.418-1.707-.539-.386-.059-.777.086-1.078.324-.281.168-.574.363-.91.375-.16.078-.191.305-.152.465a.46.46 0 0 0 .496.34c1.34.175 2.683-.008 4.023-.079.766-.035 1.54-.074 2.305-.031.254.067.48-.148.555-.375.05-.172.09-.347.136-.519.07-.274-.117-.602-.414-.606z"/><g fill-rule="evenodd"><path d="M30.078-131.613c-.015.492-.617.496-.98.562-1.446.254-2.973.395-4.395-.066-1.219-.391-2.523-.395-3.77-.188-1.593.239-3.19.731-4.82.528-.422-.075-.883-.133-1.195-.461-.285-.348-.738-.336-1.129-.215-.621.152-1.266-.02-1.887.133-.683.175-1.347.5-2.07.484-1.234.031-2.426-.449-3.66-.375-1.918.148-3.692 1.395-4.563 3.102-.386.808-.515 1.73-.414 2.621-.441.383-1.086.675-1.183 1.32-.086.52.328 1.047.851 1.094.426.094.86.039 1.282.094.199.351.187 1.035-.387.859-.457-.07-.77.32-.738.746-.145 1.059.062 2.211.734 3.059.86.968 2.082 1.535 3.308 1.882 1.29.344 2.633.239 3.942.125 1.39-.144 2.781-.339 4.18-.269 1.648.039 3.297.152 4.949.187 1.324.051 2.652.032 3.976-.082a65 65 0 0 1 6.743.035c1.308.051 2.64-.027 3.898-.417 1.207-.297 2.516-.528 3.473-1.387.78-.684 1.254-1.66 1.402-2.676.117-.641.152-1.289.2-1.937-.231-.407-.735-.504-1.153-.594-.242.027-.547-.371-.121-.321.73-.05 1.285-.843 1.066-1.55-.039-.496-.636-.469-.828-.836-.027-.328.191-.641.117-.989-.054-1.207-.84-2.257-1.785-2.96-1.062-.797-2.34-1.297-3.644-1.516a5.4 5.4 0 0 0-1.399.008m.524.648c-.204.727.027 1.567-.45 2.203-.543.567-1.34.746-2.07.949-1.2.258-2.59.098-3.508-.781-.535-.508-.847-1.219-.945-1.945-.242-.309-1.035-.379-1.121.043a2.15 2.15 0 0 1-.926 1.449c-.816.527-1.723.906-2.652 1.184-.985.265-2.078.41-3.051.031a2.44 2.44 0 0 1-1.465-1.566 4.3 4.3 0 0 1-.191-1.262c-.383-.293-.891-.024-1.32-.051-.352.258-.321.77-.516 1.129-.262.598-.895.91-1.48 1.109-1.044.301-2.184.258-3.223-.058-.434-.168-.942-.344-1.184-.774-.195-.351-.215-.758-.293-1.144-.496-.125-.984.125-1.45.265-1.562.649-2.847 2.118-3.023 3.832-.035.469.036.946.215 1.379.457.168.953.028 1.426.086 2.54.028 5.07-.172 7.605-.191 1.66-.035 3.32-.047 4.973-.231a26 26 0 0 1 3.258-.132c1.082.007 2.16-.071 3.234-.204 1.414-.144 2.836-.16 4.25-.214 1.684-.102 3.356-.25 5.04-.348 1.234-.09 2.48-.258 3.718-.109.277.027.617.066.8-.196.274-.351.138-.824-.023-1.195-.472-1.203-1.52-2.109-2.703-2.586a9.7 9.7 0 0 0-2.687-.687 1.2 1.2 0 0 0-.238.015m-8.856.192c-1.844.179-3.656.847-5.531.632-.504-.062-1-.214-1.453-.445-.36.191-.063.676-.051.981.293.914 1.242 1.472 2.168 1.527 1.371.121 2.7-.391 3.922-.949.605-.278 1.234-.711 1.36-1.411.089-.367-.13-.375-.415-.335m-9.832.152c-1.527.543-3.172.273-4.734.066-.274-.031-.711-.191-.614.254.004.574.45 1.043.965 1.238.969.426 2.086.372 3.094.118.629-.176 1.3-.508 1.586-1.129.105-.254.14-.797-.297-.547m17.883.066c-1.645.418-3.383.446-5.043.141-.274-.047-.777-.293-.684.195.137.406.34.801.63 1.121.886.961 2.402 1.246 3.585.711.492-.222 1.047-.324 1.473-.668.254-.191.41-.492.418-.808.062-.274.074-.879-.38-.692m2.414 1.375c-.11.414-.668.641-.563 1.117.434.122.665-.406.813-.718.121-.18.023-.59-.25-.399m.852.371c-.266.137-.7.836-.208.868.348-.145.438-.383.422-.739.028-.133-.113-.175-.215-.129m-10.454.739c-.14.293.606.511.344.132-.082-.07-.238-.304-.344-.132m-1.03.109c-.274.356.69.703.401.199-.097-.105-.242-.308-.402-.199m-16.282.16c-.32.196.129.856.379.508-.18-.133-.13-.453-.38-.508m-.75.313c-.192.261.387.808.492.558-.027-.242-.215-.566-.492-.558m6.957.047c-.414.031-.012.765.117.289.008-.098.094-.442-.117-.289m.687.367c-.402.14.153.586.207.125.028-.125-.109-.223-.207-.125m22.309 1.246c-2.434.144-4.871.297-7.309.387-1.722.035-3.457-.047-5.164.222-1.136.156-2.28.196-3.425.246-5.508.289-11.02.676-16.536.555-.386.059-.39-.77-.84-.395-.34.129-.726.446-.632.848.133.395.62.438.976.406.606-.015 1.211-.101 1.762-.363.356.09.36.602.738.695.457.239 1.004.157 1.492.063.477-.129.899-.391 1.305-.664.59.715 1.715 1 2.531.512.215-.286.598-.579.88-.204.8.571 1.968.524 2.742-.078.273-.293.71-.433 1.074-.187.98.562 2.18.625 3.265.394.48-.097.891-.375 1.332-.57.54-.137 1.004.305 1.536.297 1.214.086 2.304-.578 3.468-.789.457-.082.926.012 1.317.25.531.238 1.117.488 1.71.406.614-.141.989-.797 1.637-.836.465.055.809.473 1.29.481.59.101 1.19.066 1.788.082.594-.418 1.34-.2 1.985-.059.363.07.738.156 1.105.074.25-.164-.183-.812.336-.664.617.235 1.297.34 1.953.266.403-.164.371-.875-.066-.981-.684-.367-1.484-.445-2.25-.394m-6.578 1.797c-.45.226-.996.402-1.23.886-.094.387.363.536.667.559 1.66.219 3.332.031 4.996.094.426-.199.364-.785.36-1.176-.2-.379-.738-.281-1.05-.113-.618.242-1.31.191-1.95.078-.488-.106-.961-.277-1.43-.442-.129-.003-.246.075-.363.114m-4.293-.035c-1.211.156-2.29.957-3.543.839-.324-.156-.848-.125-.707.368-.031.433.328.824.77.687 1.921-.008 3.824-.301 5.746-.344.343-.105.472-.843.027-.882-.453-.106-.867-.321-1.277-.532a2.2 2.2 0 0 0-1.016-.136m11.652.015c-.261.446-.828.461-1.277.434-.305-.008-.805-.242-.926.176-.066.304-.172.925.344.675.726-.058 1.469-.07 2.176-.273.175-.305.215-1.043-.266-1.031zm-32.3.59c-.575.051-.239.742-.243 1.098.082.433.59.234.89.238 2.524-.117 5.056-.016 7.579-.184.363.047.434-.523.02-.421-.45.054-.805-.204-1.176-.399-.418-.109-.692.363-1.114.371-.546.129-1.16.082-1.656-.191-.215-.289-.57-.496-.87-.184-.567.305-1.223.43-1.86.422-.383-.019-.797-.133-1.02-.477-.156-.183-.27-.472-.55-.273m15.44.047c-.995.406-2.1.801-3.183.516-.531-.133-1.02-.446-1.57-.497-.531.024-.937.407-1.398.629-.454-.144-.704.715-.149.633 1.938.086 3.875-.164 5.817-.148.394-.035.949.152 1.023-.399.18-.324.121-.968-.395-.769l-.074.015zm17.958.519c.094.45.078.973-.293 1.293-.367.383-.965.559-1.469.372-.386.226-.601.753-1.101.765-.852.086-1.512-.586-2.305-.754-.316-.07-.645.024-.914.192-.5.242-1.067.164-1.594.078-.668-.102-1.36-.145-2.008.066-.445.145-.879-.039-1.3-.129-.454-.008-.88.215-1.332.149-1.02-.051-2.036-.348-3.06-.176-1.19.144-2.382.457-3.589.305-.918-.067-1.855-.157-2.766.043-.699.089-1.453.093-2.085-.25-.524.039-.973.343-1.481.437-.652.18-1.379.188-1.992-.125-.531-.109-.95.34-1.457.399-.88.183-1.809-.118-2.508-.665-.457-.132-.867.204-1.312.258-.532.16-1.18.246-1.641-.133-.149-.238.121-1.054-.402-.726-.352.328-.297.859-.262 1.297.18 1.199 1.144 2.129 2.21 2.605 1.595.723 3.387.746 5.106.723 1.63-.063 3.25-.266 4.88-.25 3.339-.02 6.679.281 10.01 0a33 33 0 0 1 4.907.082c1.79.101 3.59-.133 5.32-.582.582-.18 1.188-.34 1.7-.676.906-.656 1.304-1.773 1.527-2.828.094-.453.148-.922.164-1.387-.203-.316-.613-.371-.953-.383m-.57.25c-.743.184-1.496.336-2.266.325-.383.019-.781.054-1.129.242-.605-.02-1.207-.078-1.812-.039-1.278.039-2.586.207-3.832-.153-.254-.171-.59-.203-.743.094-.43.211-.918.031-1.375.078-1.105.008-2.21.149-3.312.235-.516.062-1.031.164-1.55.14-.34-.152-.708-.484-1.04-.121-.367.117-.762.055-1.145.074-1.09-.039-2.183-.148-3.27.008-.886.094-1.788.242-2.679.082-.695-.293-1.449-.113-2.18-.125-1.285.024-2.574.004-3.859.102-.965.07-1.93.023-2.898.07-.469.227-.219.945.297.758.714.008 1.367-.328 2.047-.5.472.039.707.551 1.148.68.668.293 1.418.078 2.039-.227.379-.16.824-.215 1.2-.016.71.247 1.476.102 2.187-.058.375-.051.683-.348 1.058-.328.39.105.754.332 1.176.297.86.015 1.695-.289 2.55-.211 1 .023 2.017.211 3-.047 1.938-.344 3.907.226 5.84-.137.41.02.798.297 1.223.137.586-.102 1.18-.238 1.778-.137.644.055 1.312.262 1.953.067.414-.219.906-.375 1.351-.133.676.25 1.336.73 2.09.621.504-.055.621-.84 1.121-.75.47.109 1.09 0 1.285-.5.063-.153.004-.621-.253-.528m-22.098 2.489c-.379.445.644.277.3-.094-.105-.074-.269-.031-.3.094m.816.511c-.359.04-.046.629.121.247.106-.094.067-.387-.12-.247m9.778.122c-.047.238.242.906.472.515 0-.207-.207-.691-.472-.515m-1.633.062c-.086.203.2.887.375.523-.024-.183-.063-.773-.375-.523m-16.328.441c-.2.243.273.793.246.27-.008-.109-.082-.449-.246-.27m-1.02.09c-.156.285.301.91.508.606-.098-.219-.215-.66-.484-.625l-.016.011z"/><path fill="#f8eee5" d="M39.246-79.812c.461.25.426.956-.035 1.171-.531.211-.992-.285-.813-.816a.59.59 0 0 1 .848-.356m6.7.18c.28.105.35.495.175.706-.25.32-.742.176-.781-.21 0-.391.285-.641.605-.497m-1.633 2.866c2.054.18 3.722.676 4.96 1.454l.356.25-.106.246c-2.02 5.066-12.687 6.699-18.105 2.73-.215-.145-.355-.285-.355-.32 3.117-2.762 9.07-4.711 13.25-4.36m-.036.567c.711.18.782.535.18 1.136l-.355.352.07.39c.035.286.035.497 0 .677-.07.316-.035.351.105.425.25.14.676.035 1.028-.25.25-.175.285-.175.18.07-.286.497-.958.747-1.419.497-.175-.07-.214-.07-.25-.035-.46.53-1.949.496-2.55-.106-.317-.32-.356-.496-.035-.25 1.027.781 2.55.356 2.55-.707-.035-.637-.035-.672-.425-.816-.567-.211-1.133-.637-1.133-.887 0-.352 1.347-.672 2.054-.496m-3.082 6.875c.817 1.133 2.055 3.578 2.621 5.105l.145.317-.426.285c-1.773 1.133-1.172 4.215.852 4.465l.246.035-.07.386c-.922 5.848-7.973 5.919-8.895.11l-.035-.215.285.18c3.684 2.02 6.164-2.766 2.55-4.996a11.3 11.3 0 0 1-1.562-1.172l-.246-.211.14-.852c.18-1.062.286-2.02.356-2.906l.035-.637.426.036c.461.035 3.188 0 3.367-.036.106-.035.141 0 .211.106"/><path fill="#e1bc97" d="M38.008-103.516c.742.141 1.488.672 1.629 1.453.21 1.028.035 2.09-.246 3.082-.887 2.551-2.73 4.676-3.508 7.301-.25.848-.25 1.735-.145 2.586-.175.07-.847.317-.39.246 2.445-.355 5.105-.496 7.441.532 1.984.851 3.438 2.695 4.29 4.68.636 1.628 1.417 3.222 2.089 4.85.426 1.102.887 2.305.531 3.474 0 .39-.246.105-.426 0-2.125-1.344-4.746-1.63-7.226-1.454-3.899.32-7.727 1.809-10.809 4.254-.246.106-.035.426-.316.14-.922-.956-1.774-1.984-2.235-3.222-1.203-2.836-.742-6.168.887-8.719 1.028-1.699 2.516-3.046 4.215-4.039.215-.246-.637.32-.707-.14-1.629-2.16-2.941-4.785-2.871-7.582.07-2.375 1.242-4.68 3.152-6.094 1.313-.957 2.977-1.668 4.645-1.348m-.18 2.411c.285.07 1.027.496.356.316-.672-.281-.496.605-.532 1.027-.035 1.313-.496 2.551-1.062 3.688-.707 1.523-1.594 2.976-2.02 4.605-.035.285-.105.602-.14.887.14.351.316.672.386 1.027-.636-.78-1.062-1.738-1.379-2.73-.675-2.23-.57-4.746.497-6.871.566-1.102 1.629-2.129 2.937-2.09.32 0 .676.031.957.141m12.723 1.558c1.383.281 2.836.957 3.578 2.23.32.532.32 1.278-.035 1.81-.746 1.347-2.196 1.984-3.543 2.55-2.375.957-4.926 1.418-7.196 2.586a5.9 5.9 0 0 0-1.449 1.168c-.64-.14-1.277-.246-1.914-.352.035-1.808.426-3.652 1.274-5.246 1.312-2.515 3.828-4.465 6.699-4.816a9 9 0 0 1 2.586.07m-.532 2.09c1.028.21 2.126.887 2.301 1.984.11.391-.21-.285-.316-.355-.18-.281-.32-.07-.461.11-.852.882-1.844 1.663-3.012 2.124-1.738.707-3.613 1.203-5.281 2.196-.566.32-.957.886-1.168 1.523-.176.25.035-.496.035-.637.531-2.656 2.27-5.101 4.676-6.379.992-.496 2.129-.777 3.227-.566m-9.992 16.938c1.168.39 1.664 1.913 1.098 2.94-.426.958-1.734 1.419-2.586.743-1.062-.777-1.098-2.586-.035-3.367.426-.352 1.027-.496 1.523-.316m6.73.316c.993.605 1.063 2.094.391 2.941-.425.606-1.453.64-1.914.04-.742-.887-.601-2.485.461-3.016.356-.176.746-.14 1.063.035M34.357-70.066c.816.28 1.667.425 2.515.566 0 1.348-.176 2.691-.387 4.004-.215.426-.566-.461-.746-.637-.531-.851-.992-1.738-1.308-2.695-.145.07.105.851.175 1.172.532 1.945 2.09 3.437 3.72 4.5.745.496 1.487 1.203 1.452 2.16 0 .176.07.426-.21.46-.426.282-.993.282-1.454.036.176.246.707.426 1.098.426.531-.18.426.176.14.426-.386.566-1.238.742-1.84.386-.425-.035 1.063.532.282.496-1.383.11-2.586-.847-3.437-1.875-1.594-1.879-2.337-4.5-1.7-6.875.25-.921.637-1.843 1.242-2.586.141-.109.317 0 .457.036m8.007.957c1.774 1.453 3.367 3.257 4.078 5.457.317 1.133.387 2.55-.425 3.508-.25.316-.637.496-1.028.566a2.5 2.5 0 0 0 .602-.746c-.426.46-1.098.746-1.7.496-.214-.106-.535-.39-.605-.566.606 0 1.137-.356 1.348-.887-.356.32-.852.71-1.383.496-.46-.317-.39-.992-.316-1.453.14-.602.672-.992 1.132-1.309.567-.426.957-1.133.887-1.844-.18.356-.355.782-.64 1.063-.672-1.7-1.524-3.328-2.481-4.926-.46-.777.355.035.531.145m-10.379 4.003c.211 2.125 1.203 4.18 2.797 5.633.567.25.64.817.711 1.383.317 1.664 1.489 3.258 3.153 3.79.992.355 2.09.284 3.046-.071a10.5 10.5 0 0 1-3.828 1.523c-.496-.14-.457-.922-.742-1.308-.71-1.453-1.559-2.942-2.906-3.828-.567-.391-1.309-.532-1.914-.215-.672-.07-1.453-.211-2.055.32a1.765 1.765 0 0 0-.777 1.914c-.145.211-.285 1.133-.496.531-.746-1.312-.746-2.906-.25-4.285.566-1.738 1.773-3.12 2.62-4.715.18-.246.462-1.027.606-.957 0 .07.035.176.035.285M27.2-62.309c.496.145.852.496 1.098.922.215-.175.746-.886.992-.636-1.062 1.629-1.664 3.648-1.203 5.562.07.531.46 1.027.531 1.523-.531.106-1.027-.14-1.383-.53-.316 0-.636.14-.957.034-.847-.175-1.418-1.168-1.097-1.984.355-.672-.778-.246-.922-.816-.39-.532-.035-1.38.64-1.45.247 0 .602.07.352-.25-.46-.957.18-2.27 1.242-2.41.246-.035.496-.035.707.035m22.395 2.871c.566.036 1.133.532 1.168 1.133.07.32-.176 1.028-.07 1.063.285-.387.285-.918.355-1.38.39.638.176 1.454-.07 2.126-.356.777-.887 1.453-1.418 2.125-.25-.32-.711-.39-1.063-.211-1.027.387-1.879 1.168-2.445 2.125-.32.355.105 1.313-.672.922-.676-.215-1.102-.817-1.738-1.028-.887-.39-1.844-.566-2.762-.78 1.77-.887 3.363-2.376 3.93-4.321.214-.426.425.496.601.707.39.496.04 1.098-.031 1.664-.074.215-.11.711.07.25.496-1.098.957-2.27 1.84-3.156.39-.422 1.137-.387 1.453.074.285.352.285.777.25 1.203-.105-.637-.922-.355-.957.176-.215.71.778.676.852.074.21-.39-.145.672.14.14.391-.675.496-1.667-.18-2.199-.14-.246-1.097-.28-.456-.53.386-.141.777-.282 1.203-.176m.922 1.098c.351.426.105 1.207-.356 1.453-.672.106-.496-.922-.21-1.273.14-.145.35-.32.566-.18m-16.727.602c1.027.605 1.703 1.668 2.34 2.695.742 1.383 1.453 2.871 1.594 4.465.07.531-.035 1.309-.707 1.344-1.098.144-2.125-.352-3.118-.813-1.492-.781-2.941-1.809-3.863-3.262-.39-.636-.601-1.414-.285-2.125.355.496.957.817 1.559.993-.567-.567-1.309-1.098-1.344-1.985.07-.886 1.027-1.664 1.914-1.312.707.25 1.098.886 1.414 1.488.07-.281-.246-1.027-.531-1.414-.176-.535.781-.18 1.027-.074m.32.425c.532.32.106 1.243-.425.782-.567-.25-.356-1.348.32-.852l.035.035zm-2.27.391c.532.25.958.957.642 1.488-.426.461-1.172.106-1.383-.39-.285-.39-.211-1.098.39-1.098a.6.6 0 0 1 .352 0m-1.308 2.48c.742.356.106 1.419-.496.782-.566-.426-.07-1.278.496-.781m4.145.286a3.81 3.81 0 0 1 2.304 2.726c.141.602-.144 1.383-.851 1.489-.922.07-1.773-.602-2.34-1.278-.531-.636-.957-1.488-.742-2.336.176-.71 1.027-.851 1.629-.601"/><path fill="#f8b2b0" d="M37.156-99.937c-.035 1.523-.25 2.269-1.097 4.039-1.207 2.48-1.63 3.578-1.774 4.535l-.035.32-.246-.71c-1.453-4.391-.106-8.54 2.941-9.036l.246-.035zm12.899 3.011c.39.07 1.238.426 1.347.567.035.07-.675.816-1.207 1.242-.851.707-1.453 1.027-2.87 1.558-2.692 1.028-3.614 1.453-4.536 2.196l-.14.105.105-.316c1.703-3.864 4.465-5.883 7.3-5.352m.46 38.766c.282.387-.285 1.488-.605 1.097-.176-.214-.07-.78.215-1.062.14-.18.281-.18.39-.035m-16.511.992c.246.246.246.566 0 .602-.25.035-.602-.461-.461-.711.07-.141.281-.106.46.109m14.738.035c.106.07.07.387-.035.602-.246.316-.566.281-.566-.07 0-.391.39-.747.601-.532m-16.902.422c.11.074.285.18.355.285.637.707-.035 1.453-.742.817-.676-.606-.355-1.489.387-1.102m17.223 2.129c.07.035.175.105.246.21l.109.106-.57.567c-.953.922-2.442 2.058-2.762 2.058-.14 0 .14-.71.496-1.207.816-1.168 1.879-1.914 2.48-1.734m-18.602.281c.426.32.246.852-.215.567-.176-.07-.316-.317-.316-.461 0-.246.28-.317.53-.106m4.039.25c1.273.39 2.48 1.985 2.336 3.082-.176 1.559-2.516.817-3.434-1.097-.605-1.348-.074-2.34 1.098-1.985"/><path d="M37.938-103.977c1.593.247 2.23 1.063 2.23 2.872 0 1.699-.426 2.902-2.125 5.843-1.523 2.73-1.914 3.758-1.914 5.211 0 .848 0 .848.566.707.746-.175 1.168-.21 2.02-.246h.816l.035-.566c.32-4.996 3.012-8.543 7.297-9.64 4.996-1.274 9.711 1.948 7.266 4.995-1.133 1.383-2.445 2.09-6.2 3.227-3.226.957-4.394 1.488-5.245 2.23l-.32.32.46.176c2.305.992 3.758 2.586 4.89 5.387.25.567.602 1.383.782 1.844 1.133 2.515 1.523 3.473 1.664 4.18.781 3.472-2.02 6.449-7.086 7.617l-.601.144.46.352c4.32 3.613 5.739 9.285 2.477 10.101-.457.106-.457.457-.105 1.098.144.246.32.566.39.707.176.355.176.355.32.035.993-2.09 3.083-3.117 4.43-2.16.106.07.282.176.387.176 1.879.39.781 3.793-2.02 6.344-2.37 2.16-3.402 2.445-4.675 1.273-.461-.422-1.809-.883-3.473-1.168l-.566-.07-.602.175c-.32.106-.816.25-1.098.32-.32.071-.57.106-.57.106s.074.285.145.602c.21.816.28 1.562.21 1.95-.495 2.905-7.972-.673-8.964-4.25-.14-.462-.176-.497-.39-.427-.497.106-1.204 0-1.56-.32-.14-.105-.175-.14-.601-.14-1.203 0-2.02-.817-2.02-1.985v-.426l-.285-.14c-.992-.532-.918-2.055.11-2.516.175-.035.246-.105.21-.14-.53-1.915 1.985-3.473 3.473-2.13l.176.18.215-.144c.281-.176.672-.317.922-.317.246 0 .386-.18 1.238-1.668.992-1.77 1.277-2.336 1.383-2.941a9.4 9.4 0 0 1 1.168-2.832l.215-.356-.25-.105c-7.157-2.906-7.582-13.961-.707-17.434l.28-.14c.036 0-.14-.215-.316-.496-3.296-4.465-3.617-9.18-.851-12.579 1.629-2.019 4.254-3.191 6.308-2.836m.07.461c1.383.321 1.879 1.203 1.699 2.977-.176 1.488-.531 2.41-2.02 4.996-1.734 3.047-2.124 4.285-1.984 6.129l.035.32-.316.14c-.426.177-.39.177.351.071 6.024-.886 9.532.852 11.48 5.668.392.957.567 1.348 1.278 2.942 1.239 2.73 1.489 3.687 1.168 4.996-1.168 4.715-10.418 7.054-16.617 4.183-6.98-3.191-6.695-12.863.496-17.078.39-.25.426-.285.07-.18-.39.106-.39.106-.707-.355-2.836-3.79-3.472-7.547-1.843-10.734 1.347-2.727 4.5-4.571 6.91-4.075m-.18 2.411c.25.07.711.316.711.386 0 0-.14-.035-.355-.07-.532-.106-.496-.141-.532.711-.07 1.734-.32 2.516-1.523 4.96-1.168 2.302-1.523 3.153-1.629 4.11l-.07.39.21.567c.286.637.25.637-.105.14-3.226-4.82-.922-12.542 3.293-11.194m-.672 1.168c-.035 1.523-.25 2.269-1.097 4.039-1.207 2.48-1.63 3.578-1.774 4.535l-.035.32-.246-.71c-1.453-4.391-.106-8.54 2.941-9.036l.246-.035zm13.395.39c2.48.461 4.285 2.266 3.718 3.684-.671 1.594-2.265 2.55-6.519 3.863-3.543 1.098-4.781 1.664-5.633 2.55l-.21.247-.606-.106c-.352-.07-.707-.14-.813-.175-.105 0-.285-.035-.355-.07h-.14l.034-.641c.317-6.059 5.137-10.344 10.524-9.352m-.532 2.09c1.204.246 2.196 1.063 2.301 1.95l.035.21-.14-.246c-.106-.105-.211-.285-.281-.32l-.145-.14-.426.46c-1.238 1.203-2.054 1.7-4.074 2.41-3.719 1.344-4.64 1.875-5.066 2.902-.246.641-.282.641-.141-.105.707-4.215 4.676-7.758 7.938-7.121m.036.531c.39.07 1.238.426 1.347.567.035.07-.675.816-1.207 1.242-.851.707-1.453 1.027-2.87 1.558-2.692 1.028-3.614 1.453-4.536 2.196l-.14.105.105-.316c1.703-3.864 4.465-5.883 7.3-5.352M40.027-80.519c1.84.671 1.735 3.472-.105 3.933-1.242.317-2.375-.887-2.2-2.305.18-1.168 1.313-1.984 2.305-1.628m6.73.316c1.384.781.923 3.402-.566 3.402-1.097.035-1.77-1.488-1.203-2.691.352-.781 1.133-1.063 1.77-.711m-7.476.39c.215.145.32.32.32.602 0 .57-.636.852-1.062.461-.566-.496.105-1.453.742-1.062m6.77.215c.176.106.246.387.14.602-.175.426-.78.32-.851-.176-.07-.39.39-.676.71-.426m-2.02 3.399c.922.144 1.028.676.282 1.277l-.176.14v.747c0 .707 0 .742.105.816.25.176.746.07 1.098-.25.215-.175.215-.14.07.106-.281.496-.883.672-1.414.425-.144-.07-.18-.07-.25 0-.602.532-2.195.426-2.586-.21-.176-.286-.14-.32.035-.145.567.496 1.914.531 2.375.035.211-.246.282-.531.211-1.203l-.035-.25-.281-.105c-1.703-.532-1.242-1.665.566-1.383m-9.675 6.133c.496.175 1.417.39 1.984.496l.531.07v.531c0 .852-.352 3.508-.46 3.613-.177.215-1.485-2.054-1.84-3.152q-.322-.85-.106.211c.316 1.95 1.523 3.578 3.648 4.996 1.203.782 1.664 1.418 1.664 2.235v.425l-.28.176a1.7 1.7 0 0 1-1.243.035c-.281-.14-.211-.035.105.14.32.18.746.25 1.067.216.246-.07.281-.07.07.246-.46.71-1.207.957-1.914.605-.25-.109-.25-.109-.14 0 .07.032.245.141.386.246.39.176.32.211-.316.211-1.985 0-4.29-2.55-4.89-5.382a7.33 7.33 0 0 1 1.062-5.672c.25-.39.25-.39.672-.246m8.007.957c3.121 2.55 4.75 5.632 4.184 7.898-.18.852-.746 1.492-1.383 1.598l-.176.035.211-.215c.106-.105.25-.246.285-.352l.106-.18-.211.18c-.57.532-1.418.532-1.914 0l-.18-.214.25-.07c.356-.036.707-.247.922-.567.246-.32.246-.39 0-.14-.566.566-1.348.53-1.488-.036-.25-.851.035-1.668.777-2.129.781-.496 1.207-1.203 1.207-1.875v-.215l-.11.215c-.21.457-.495.883-.53.848s-.141-.316-.282-.672c-.355-.852-1.277-2.695-1.879-3.684-.636-1.101-.636-1.136.211-.425m-.742.46c.957 1.524 1.523 2.657 2.055 3.97.355.882.355.777-.106 1.062-1.773 1.133-1.242 4.074.778 4.465.355.035.355 0 .215.672-.32 1.593-1.313 3.117-2.305 3.578-3.117 1.488-6.164-.211-6.59-3.649l-.035-.285.426.215c3.789 1.77 5.882-2.73 2.34-5.031-.747-.496-1.313-.957-1.598-1.242l-.14-.141.105-.817c.215-1.273.32-1.949.32-2.796l.035-.817.531.035c.672.07 2.235.07 2.942 0l.566-.035zm-9.637 3.543c.211 2.301 1.559 4.782 3.258 5.989.07.07.106.14.145.46.422 3.4 3.258 5.348 6.27 4.286.25-.07-.497.355-1.063.637a14 14 0 0 1-2.27.78c-.672.142-.636.177-.847-.355-1.383-3.507-3.473-5.562-4.996-4.96-.286.109-.32.109-.497.07-1.277-.457-2.8.781-2.515 2.023.035.176.035.246-.035.352-.075.07-.145.285-.18.426-.106.32-.14.32-.426-.356-.848-1.805-.496-3.93 1.102-6.34a59 59 0 0 0 1.593-2.695l.387-.707c.04 0 .04.14.074.39M27.2-62.309c.356.106.746.391.957.711.211.282.176.282.356 0 .14-.215.39-.39.672-.46.175-.07.175-.07-.106.39-1.277 2.09-1.488 4.461-.601 6.27.246.496.246.46-.145.46-.352 0-.637-.105-.922-.39l-.21-.176-.282.07a1.526 1.526 0 0 1-1.809-1.312c-.035-.211 0-.387.141-.957.035-.106 0-.106-.176-.106a.93.93 0 0 1-.957-.957c0-.53.39-.918.992-.918h.246l-.14-.32c-.531-1.312.637-2.695 1.984-2.305m22.395 2.871c.992.141 1.383.887 1.062 2.16-.035.145-.035.145.035.036.141-.176.32-.742.32-1.098 0-.355.071-.355.176 0 .25.922-.21 2.164-1.277 3.508l-.351.46-.215-.175c-.813-.746-3.79 1.77-3.438 2.906.11.422-.883.106-1.52-.496-.425-.39-1.527-.781-3.12-1.101l-.387-.106.352-.175c1.738-.958 3.011-2.376 3.542-3.97.145-.495.11-.495.496.282.391.746.391.71.25 1.242-.14.461-.25 1.203-.214 1.133.035 0 .144-.246.25-.496 1.168-2.621 2.02-3.543 2.906-3.047q.582.32.531 1.168v.285l-.07-.176c-.25-.605-1.102.07-.887.672.176.426.672.25.852-.246.07-.25.105-.11.035.176-.074.246.035.105.21-.25.462-1.063.141-1.984-.78-2.23-.141-.036-.246-.106-.211-.106.07-.14.922-.426 1.132-.39 0 0 .145 0 .32.035m.922 1.098c.28.18.21.922-.11 1.278-.422.46-.847.07-.672-.532.145-.605.496-.922.782-.746m0 .18c.28.387-.285 1.488-.606 1.097-.176-.214-.07-.78.215-1.062.14-.18.281-.18.39-.035m-16.727.422c2.2 1.101 4.961 7.586 3.578 8.398-1.062.602-4.285-.777-6.234-2.656-1.277-1.207-1.735-2.34-1.453-3.297l.07-.14.18.214c.246.282.601.528 1.027.672l.352.106-.532-.496c-.922-.922-1.062-1.63-.386-2.376.812-.921 2.015-.566 2.726.782.14.281.246.39.211.316-.105-.601-.246-1.027-.531-1.344-.316-.425.285-.53.992-.18m.32.425c.391.391.32.852-.105.887-.32.035-.781-.496-.676-.851.11-.317.461-.317.781-.035m-.105.145c.246.246.246.566 0 .602-.25.035-.602-.461-.461-.711.07-.141.281-.106.46.109m14.738.035c.106.07.07.387-.035.602-.246.316-.566.281-.566-.07 0-.391.39-.747.601-.532m-16.902.211c.887.39 1.027 1.703.18 1.703-1.028 0-1.524-1.633-.532-1.703.14-.035.282 0 .352 0m0 .211c.11.074.285.18.355.285.637.707-.035 1.453-.742.817-.676-.606-.355-1.489.387-1.102m17.223 2.129c.07.035.175.105.246.21l.109.106-.57.567c-.953.922-2.442 2.058-2.762 2.058-.14 0 .14-.71.496-1.207.816-1.168 1.879-1.914 2.48-1.734m-18.532.14c.211.141.39.497.317.672-.141.567-.992.25-1.063-.386-.035-.39.356-.567.746-.285m-.07.141c.426.32.246.852-.215.567-.176-.07-.316-.317-.316-.461 0-.246.28-.317.53-.106m4.215.145c1.523.531 2.73 2.586 2.195 3.648-.742 1.489-3.508-.21-3.86-2.34-.179-1.062.602-1.699 1.665-1.308m-.176.105c1.273.39 2.48 1.985 2.336 3.082-.176 1.559-2.516.817-3.434-1.097-.605-1.348-.074-2.34 1.098-1.985"/></g><path d="M454.93-100.828c-.766 0-.91 0-.91-.539v-2.078c.214.297.707.765 1.468.765 1.375 0 2.582-1.16 2.582-2.703 0-1.515-1.125-2.687-2.425-2.687-1.051 0-1.614.754-1.649.8v-.8l-1.66.132v.348c.836 0 .906.082.906.61v5.613c0 .539-.133.539-.906.539v.348c.309-.028.957-.028 1.289-.028.348 0 .992 0 1.305.028zm-.91-5.781c0-.231 0-.243.128-.434.36-.535.946-.762 1.399-.762.898 0 1.613 1.086 1.613 2.422 0 1.422-.812 2.465-1.73 2.465-.371 0-.715-.156-.957-.383-.274-.277-.453-.515-.453-.847zm9.093.617c0-.645 0-1.121-.527-1.586a2.18 2.18 0 0 0-1.481-.551c-.98 0-1.734.645-1.734 1.422 0 .348.231.512.5.512a.47.47 0 0 0 .492-.489c0-.488-.429-.488-.609-.488.277-.504.848-.719 1.328-.719.547 0 1.254.453 1.254 1.532v.476c-2.402.035-3.313 1.039-3.313 1.961 0 .942 1.102 1.242 1.829 1.242.789 0 1.328-.476 1.554-1.05.047.558.418.988.934.988.25 0 .941-.164.941-1.121v-.668h-.261v.668c0 .679-.286.773-.454.773-.453 0-.453-.629-.453-.808zm-.777 1.508c0 1.171-.871 1.566-1.387 1.566-.586 0-1.078-.434-1.078-1.004 0-1.578 2.035-1.723 2.465-1.746zm7.281-1.219c0-1.11 0-1.445-.273-1.828-.348-.465-.91-.539-1.317-.539-1.16 0-1.609.992-1.707 1.23h-.011v-1.23l-1.625.132v.348c.812 0 .906.082.906.668v3.238c0 .536-.129.536-.906.536v.347c.308-.023.953-.023 1.289-.023.347 0 .992 0 1.3.023v-.347c-.761 0-.906 0-.906-.536v-2.222c0-1.254.824-1.922 1.567-1.922.738 0 .906.609.906 1.336v2.808c0 .536-.129.536-.906.536v.347c.308-.023.953-.023 1.289-.023.347 0 .992 0 1.3.023v-.347c-.593 0-.894 0-.906-.356zm5.762.133c.262 0 .285 0 .285-.227 0-1.211-.648-2.332-2.094-2.332-1.359 0-2.414 1.231-2.414 2.711 0 1.578 1.223 2.738 2.547 2.738 1.422 0 1.961-1.289 1.961-1.543 0-.07-.062-.117-.133-.117-.093 0-.117.059-.144.117-.309 1.004-1.11 1.278-1.614 1.278-.5 0-1.707-.332-1.707-2.399v-.226zm-3.301-.227c.094-1.879 1.149-2.094 1.481-2.094 1.281 0 1.351 1.688 1.363 2.094zm237.949-44.633c-.765 0-.91 0-.91-.535v-2.082c.219.301.707.766 1.473.766 1.375 0 2.582-1.157 2.582-2.699 0-1.516-1.125-2.688-2.43-2.688-1.051 0-1.609.75-1.648.801v-.801l-1.66.129v.348c.836 0 .91.082.91.609v5.617c0 .535-.133.535-.91.535v.348c.312-.023.957-.023 1.293-.023.343 0 .992 0 1.3.023zm-.91-5.781c0-.227 0-.238.133-.43a1.72 1.72 0 0 1 1.398-.765c.899 0 1.614 1.086 1.614 2.426 0 1.421-.813 2.46-1.731 2.46-.371 0-.718-.156-.957-.382-.277-.274-.457-.512-.457-.848zm9.098.621c0-.644 0-1.125-.527-1.59-.418-.383-.958-.55-1.485-.55-.976 0-1.73.644-1.73 1.421 0 .348.226.516.5.516a.47.47 0 0 0 .492-.488c0-.492-.43-.492-.61-.492.274-.5.848-.719 1.325-.719.55 0 1.258.457 1.258 1.531v.477c-2.403.039-3.313 1.039-3.313 1.961 0 .945 1.102 1.242 1.828 1.242a1.63 1.63 0 0 0 1.555-1.051c.047.562.418.992.93.992.253 0 .945-.168.945-1.125v-.668h-.262v.668c0 .684-.289.777-.453.777-.453 0-.453-.632-.453-.812zm-.777 1.504c0 1.172-.875 1.566-1.387 1.566-.586 0-1.078-.429-1.078-1.003 0-1.579 2.031-1.719 2.465-1.743zm7.281-1.219c0-1.109 0-1.441-.278-1.828-.347-.465-.906-.535-1.312-.535-1.16 0-1.613.988-1.711 1.23h-.012v-1.23l-1.625.129v.348c.813 0 .91.082.91.668v3.238c0 .539-.132.539-.91.539v.348c.313-.024.957-.024 1.293-.024.344 0 .989 0 1.301.024v-.348c-.766 0-.906 0-.906-.539v-2.223c0-1.254.824-1.922 1.562-1.922.742 0 .91.61.91 1.336v2.809c0 .539-.132.539-.91.539v.348c.313-.024.957-.024 1.293-.024.344 0 .989 0 1.301.024v-.348c-.598 0-.895 0-.906-.359zm5.758.133c.261 0 .285 0 .285-.226 0-1.207-.645-2.332-2.09-2.332-1.363 0-2.414 1.234-2.414 2.714 0 1.578 1.219 2.735 2.547 2.735 1.422 0 1.957-1.289 1.957-1.539 0-.075-.059-.121-.129-.121-.098 0-.121.058-.145.121-.308 1-1.109 1.277-1.613 1.277s-1.707-.336-1.707-2.402v-.227zm-3.297-.226c.093-1.875 1.144-2.094 1.48-2.094 1.278 0 1.352 1.687 1.363 2.094zM82.606-22.852c0-.687 0-.718-.598-.718-.719.808-2.211 1.914-5.29 1.914v.867c.688 0 2.18 0 3.825-.777V-6c0 1.074-.09 1.434-2.719 1.434h-.926v.867c.805-.059 3.704-.059 4.692-.059.984 0 3.855 0 4.66.059v-.867h-.926c-2.629 0-2.718-.36-2.718-1.434zm89.542 14.133h-.66c-.09.508-.328 2.149-.625 2.63-.211.269-1.914.269-2.808.269h-5.532c.809-.688 2.633-2.602 3.407-3.317 4.543-4.183 6.218-5.738 6.218-8.695 0-3.437-2.718-5.738-6.187-5.738-3.465 0-5.496 2.96-5.496 5.527 0 1.527 1.312 1.527 1.402 1.527.629 0 1.406-.449 1.406-1.406 0-.836-.57-1.406-1.406-1.406-.265 0-.328 0-.418.031.567-2.031 2.184-3.406 4.125-3.406 2.539 0 4.094 2.121 4.094 4.871 0 2.539-1.465 4.75-3.168 6.66l-6.035 6.754v.719h10.906zm77.45-5.707c-.508.028-.629.059-.629.328 0 .301.152.301.687.301h1.375c2.539 0 3.676 2.09 3.676 4.957 0 3.914-2.031 4.961-3.496 4.961-1.434 0-3.883-.687-4.75-2.66.957.148 1.82-.387 1.82-1.465 0-.863-.625-1.465-1.461-1.465-.718 0-1.496.422-1.496 1.555 0 2.66 2.66 4.844 5.977 4.844 3.554 0 6.183-2.723 6.183-5.739 0-2.75-2.211-4.902-5.078-5.41 2.602-.746 4.274-2.926 4.274-5.258 0-2.359-2.453-4.093-5.348-4.093-2.988 0-5.199 1.824-5.199 4.004 0 1.195.926 1.433 1.375 1.433.625 0 1.344-.445 1.344-1.344 0-.953-.719-1.375-1.375-1.375-.18 0-.239 0-.329.032 1.133-2.032 3.946-2.032 4.094-2.032.985 0 2.926.446 2.926 3.375 0 .57-.09 2.243-.953 3.528-.899 1.312-1.914 1.402-2.723 1.433zm90.289-8.726c0-.567 0-.715-.418-.715-.242 0-.328 0-.571.36l-8.992 13.952v.867h7.86v2.72c0 1.1-.063 1.402-2.243 1.402h-.597v.867c.687-.059 3.047-.059 3.887-.059.835 0 3.226 0 3.914.059v-.867h-.598c-2.152 0-2.242-.301-2.242-1.403v-2.718h3.019v-.868h-3.019zm-1.973 2.332v11.265h-7.262zm80.012 0a8.9 8.9 0 0 0 2.66.449c3.375 0 5.523-2.48 5.523-2.899 0-.12-.058-.27-.238-.27-.058 0-.117 0-.387.118a9.8 9.8 0 0 1-3.882.809c-1.973 0-3.379-.598-3.946-.836-.211-.09-.269-.09-.301-.09-.238 0-.238.18-.238.656v8.875c0 .54 0 .719.36.719.148 0 .179-.031.476-.39.84-1.227 2.242-1.942 3.735-1.942 1.585 0 2.363 1.465 2.601 1.973.508 1.164.539 2.628.539 3.765 0 1.133 0 2.836-.84 4.18-.656 1.078-1.82 1.824-3.136 1.824a4.624 4.624 0 0 1-4.454-3.527c.153.062.332.09.481.09.508 0 1.316-.297 1.316-1.313 0-.84-.57-1.316-1.316-1.316-.539 0-1.316.27-1.316 1.433 0 2.543 2.031 5.442 5.351 5.442 3.375 0 6.332-2.84 6.332-6.637 0-3.555-2.391-6.512-5.527-6.512-1.703 0-3.016.746-3.793 1.582zm84.949 6.722c0-7.558 3.676-8.754 5.289-8.754 1.074 0 2.152.329 2.719 1.227-.36 0-1.492 0-1.492 1.223 0 .656.449 1.226 1.222 1.226.746 0 1.254-.449 1.254-1.316 0-1.555-1.133-3.078-3.734-3.078-3.766 0-7.707 3.855-7.707 10.43 0 8.214 3.586 10.07 6.125 10.07 3.254 0 6.035-2.84 6.035-6.727 0-3.972-2.781-6.633-5.766-6.633-2.66 0-3.648 2.301-3.945 3.14zm3.676 10.22c-1.883 0-2.778-1.677-3.047-2.302-.27-.777-.57-2.242-.57-4.332 0-2.363 1.078-5.32 3.765-5.32 1.645 0 2.512 1.105 2.957 2.121.481 1.11.481 2.602.481 3.887 0 1.523 0 2.867-.571 4.004-.746 1.433-1.82 1.941-3.015 1.941m91.84-18.375v-.687h-7.2c-3.613 0-3.675-.387-3.793-.957h-.66l-.925 5.976h.656c.094-.539.359-2.39.75-2.719.238-.18 2.48-.18 2.898-.18h6.332l-3.168 4.544c-.804 1.164-3.82 6.062-3.82 11.68 0 .331 0 1.527 1.223 1.527 1.254 0 1.254-1.168 1.254-1.555v-1.496c0-4.45.718-7.918 2.121-9.918zm79.812 7.77c1.496-.809 3.676-2.184 3.676-4.692 0-2.601-2.512-4.394-5.258-4.394-2.957 0-5.289 2.183-5.289 4.902 0 1.016.301 2.031 1.137 3.047.328.387.355.418 2.449 1.883-2.898 1.343-4.395 3.347-4.395 5.527 0 3.164 3.02 5.14 6.067 5.14 3.316 0 6.098-2.452 6.098-5.59 0-3.046-2.153-4.39-4.485-5.823m-4.062-2.692c-.387-.27-1.586-1.043-1.586-2.508 0-1.941 2.035-3.168 4.035-3.168 2.152 0 4.062 1.555 4.062 3.704 0 1.824-1.312 3.289-3.047 4.242zm1.406 3.856 3.613 2.36c.778.507 2.153 1.433 2.153 3.257 0 2.27-2.301 3.824-4.692 3.824-2.539 0-4.723-1.851-4.723-4.332 0-2.332 1.704-4.215 3.649-5.11m89.687.927c0 7.05-3.136 8.515-4.929 8.515-.715 0-2.301-.09-3.047-1.137h.18c.21.063 1.285-.117 1.285-1.222 0-.66-.45-1.227-1.227-1.227s-1.254.508-1.254 1.285c0 1.852 1.492 3.11 4.094 3.11 3.734 0 7.352-3.977 7.352-10.461 0-8.035-3.348-10.04-5.977-10.04-3.289 0-6.188 2.75-6.188 6.696 0 3.941 2.782 6.633 5.77 6.633 2.211 0 3.344-1.613 3.941-3.14zm-3.824 1.554c-1.883 0-2.687-1.523-2.957-2.094-.476-1.132-.476-2.566-.476-3.914 0-1.672 0-3.105.777-4.332.535-.804 1.344-1.672 2.957-1.672 1.703 0 2.57 1.493 2.867 2.18.598 1.465.598 4.004.598 4.453 0 2.508-1.133 5.38-3.766 5.38m79.195-12.013c0-.687 0-.718-.597-.718-.715.808-2.211 1.914-5.289 1.914v.867c.687 0 2.179 0 3.824-.777V-6c0 1.074-.09 1.434-2.719 1.434h-.926v.867c.805-.059 3.704-.059 4.692-.059.984 0 3.855 0 4.66.059v-.867h-.926c-2.629 0-2.719-.36-2.719-1.434zm19.481 9.59c0-2.48-.148-4.898-1.227-7.168-1.222-2.484-3.375-3.14-4.839-3.14-1.731 0-3.852.867-4.957 3.347-.84 1.883-1.137 3.735-1.137 6.961 0 2.899.207 5.082 1.285 7.2 1.164 2.273 3.227 2.992 4.781 2.992 2.598 0 4.094-1.555 4.957-3.29 1.078-2.242 1.137-5.167 1.137-6.902m-6.094 9.59c-.957 0-2.898-.535-3.469-3.793-.328-1.793-.328-4.062-.328-6.156 0-2.45 0-4.66.477-6.422.508-2.004 2.035-2.93 3.32-2.93 1.133 0 2.867.688 3.434 3.258.39 1.703.39 4.063.39 6.094 0 2.004 0 4.273-.332 6.098-.566 3.285-2.449 3.851-3.492 3.851"/></g></svg>