<svg xmlns="http://www.w3.org/2000/svg" width="854pt" height="100" viewBox="0 -75 854 75"><g id="page1"><path fill="none" stroke="#000" stroke-linecap="round" stroke-linejoin="round" d="M.5-11.086h852.379M.5-63.074h852.379M.5-11.086v-51.988m47.356 51.988v-51.988m47.351 51.988v-51.988m47.356 51.988v-51.988m47.355 51.988v-51.988m47.352 51.988v-51.988m47.355 51.988v-51.988m47.355 51.988v-51.988m47.356 51.988v-51.988m47.352 51.988v-51.988m47.355 51.988v-51.988m47.355 51.988v-51.988m47.356 51.988v-51.988m47.351 51.988v-51.988m47.356 51.988v-51.988m47.355 51.988v-51.988m47.356 51.988v-51.988m47.351 51.988v-51.988m47.356 51.988v-51.988"/><path fill="#b8ebb8" d="M10.129-6.168h28.348l-6.758-32.219H16.887z"/><path fill="none" stroke="#060" stroke-linecap="round" stroke-linejoin="round" stroke-width=".5" d="M10.129-6.168h28.348l-6.758-32.219H16.887z"/><path fill="#fff" d="M21.422-6.168h5.133v-6.023h-5.133Z"/><path fill="none" stroke="#59a659" stroke-linecap="round" stroke-linejoin="round" stroke-width=".5" d="M21.422-6.168h5.133v-6.023h-5.133z"/><path fill="#fff" d="M14.406-11.535h4.453v-5.934h-4.453Z"/><path fill="none" stroke="#59a659" stroke-linecap="round" stroke-linejoin="round" stroke-width=".5" d="M14.406-11.535h4.453v-5.934h-4.453z"/><path fill="#fff" d="M18.203-16.906h3.125v-4.633h-3.125Z"/><path fill="none" stroke="#59a659" stroke-linecap="round" stroke-linejoin="round" stroke-width=".5" d="M18.203-16.906h3.125v-4.63h-3.125z"/><path fill="#fff" d="M17.41-22.277h5.043v-6.676H17.41Z"/><path fill="none" stroke="#59a659" stroke-linecap="round" stroke-linejoin="round" stroke-width=".5" d="M17.41-22.277h5.043v-6.676H17.41z"/><path fill="#fff" d="M16.75-27.644h4.418v-7.54H16.75Z"/><path fill="none" stroke="#59a659" stroke-linecap="round" stroke-linejoin="round" stroke-width=".5" d="M16.75-27.644h4.418v-7.54H16.75z"/><path fill="#fff" d="M21.617-33.016h2.942v-3.414h-2.942Z"/><path fill="none" stroke="#59a659" stroke-linecap="round" stroke-linejoin="round" stroke-width=".5" d="M21.617-33.016h2.942v-3.414h-2.942z"/><path fill="#b8b8eb" d="M57.484-6.168h28.344l-7.887-39.14h-12.57z"/><path fill="none" stroke="#006" stroke-linecap="round" stroke-linejoin="round" stroke-width=".5" d="M57.484-6.168h28.344l-7.887-39.14h-12.57zm14.172-39.141v-12.129"/><path fill="#006" d="M72.61-57.437a.954.954 0 0 0-.954-.954.952.952 0 1 0 .953.953"/><path fill="#fff" d="M68.598-6.168h3.5v-6.531h-3.5Z"/><path fill="none" stroke="#5959a6" stroke-linecap="round" stroke-linejoin="round" stroke-width=".5" d="M68.598-6.168h3.5v-6.531h-3.5z"/><path fill="#fff" d="M68.133-15.953h4.535v-5.98h-4.535Z"/><path fill="none" stroke="#5959a6" stroke-linecap="round" stroke-linejoin="round" stroke-width=".5" d="M68.133-15.953h4.535v-5.98h-4.535z"/><path fill="#fff" d="M64.703-25.738h4.043v-5.36h-4.043Z"/><path fill="none" stroke="#5959a6" stroke-linecap="round" stroke-linejoin="round" stroke-width=".5" d="M64.703-25.738h4.043v-5.36h-4.043z"/><path fill="#fff" d="M69.3-35.523h4.954v-9.692H69.3Z"/><path fill="none" stroke="#5959a6" stroke-linecap="round" stroke-linejoin="round" stroke-width=".5" d="M69.3-35.523h4.954v-9.692H69.3z"/><path fill="#ebded1" d="m152.902-6.418-1.8-8.227-.606-10.972-2.402-8.238-3.703-11.434-9.989 1.008-7.191 3.285-12.934 6.812-9.129 2.532-7.105 7.32-4.149 4.898-4.382 4.586-4.64 8.43z"/><path fill="none" stroke="#664d33" stroke-linecap="round" stroke-linejoin="round" d="m152.902-6.418-1.8-8.227-.606-10.972-2.402-8.238-3.703-11.434-9.989 1.008-7.191 3.285-12.934 6.812-9.129 2.532-7.105 7.32-4.149 4.898-4.382 4.586-4.64 8.43z"/><g fill="#ccbfb2"><path d="m134.645-9.117 5.464 2.648 1.262-12.101-8.691 3.824z"/><path d="m138.277-14.535 8.457-.953-3.578-1.418-3.269 2.644zm-35.648-3.988 7.992 2.449 2.649-8.828-12.153 1.492zm15.894-6.094 11.774 1.277 1.918-7.652L122-31.79z"/></g><path fill="none" stroke="#664d33" stroke-linecap="round" stroke-linejoin="round" d="M118.887-44.14c5.41-1.567 7.89-6.766 5.246-11-1.656-2.657-5.266-4.31-6.067-7.27-.781-2.883 1.336-5.758 4.774-6.48m2.848 24.75c4.285-.243 7.312-3.598 6.406-7.094-.574-2.196-2.793-3.989-2.672-6.258.117-2.215 2.332-3.95 4.992-3.906M108.68-44.14c2.242-2.172 1.644-5.493-1.258-7.024-1.82-.961-4.293-.914-5.777-2.246-1.45-1.297-1.391-3.32.128-4.563"/><path fill="gray" d="M122.582-16.867c.57-.492 4.676-3.988 4.676-8.5 0-4.63-3.82-7.883-8.903-7.883-4.71 0-7.843 3.535-7.843 6.953 0 1.707 1.426 1.828 1.668 1.828.73 0 1.621-.57 1.621-1.668 0-.773-.281-1.015-.485-1.18.571-2.152 2.438-3.578 4.797-3.578 3.453 0 6.5 1.993 6.5 5.528 0 3.172-2.398 5.613-4.593 7.52l-8.938 7.765c-.449.367-.57.484-.57.973 0 1.18 1.093 1.18 1.668 1.18h14.179c.899-.247.899-1.06.899-1.669v-.851c0-.735 0-1.668-1.301-1.668-1.344 0-1.344.855-1.344 1.828h-9.789z"/><path fill="none" stroke="#000" stroke-linecap="round" stroke-linejoin="round" d="M122.582-16.867c.57-.492 4.676-3.988 4.676-8.5 0-4.63-3.82-7.883-8.903-7.883-4.71 0-7.843 3.535-7.843 6.953 0 1.707 1.426 1.828 1.668 1.828.73 0 1.621-.57 1.621-1.668 0-.773-.281-1.015-.485-1.18.571-2.152 2.438-3.578 4.797-3.578 3.453 0 6.5 1.993 6.5 5.528 0 3.172-2.398 5.613-4.593 7.52l-8.938 7.765c-.449.367-.57.484-.57.973 0 1.18 1.093 1.18 1.668 1.18h14.179c.899-.247.899-1.06.899-1.669v-.851c0-.735 0-1.668-1.301-1.668-1.344 0-1.344.855-1.344 1.828h-9.789z"/><path fill="#ebb8eb" d="M152.191-6.168h28.348l-4.504-38.969h-19.344z"/><path fill="none" stroke="#606" stroke-linecap="round" stroke-linejoin="round" stroke-width=".5" d="M152.191-6.168h28.348l-4.504-38.969h-19.344z"/><path fill="#fff" d="M165.707-6.168h5.242v-6.543h-5.242Z"/><path fill="none" stroke="#a659a6" stroke-linecap="round" stroke-linejoin="round" stroke-width=".5" d="M165.707-6.168h5.242v-6.543h-5.242z"/><path fill="#fff" d="M171.738-15.91h3.946v-4.86h-3.946Z"/><path fill="none" stroke="#a659a6" stroke-linecap="round" stroke-linejoin="round" stroke-width=".5" d="M171.738-15.91h3.946v-4.86h-3.946z"/><path fill="#fff" d="M155.93-25.652h4.457v-6.91h-4.457Z"/><path fill="none" stroke="#a659a6" stroke-linecap="round" stroke-linejoin="round" stroke-width=".5" d="M155.93-25.652h4.457v-6.91h-4.457z"/><path fill="#fff" d="M156.973-35.394h3.441v-4.723h-3.441Z"/><path fill="none" stroke="#a659a6" stroke-linecap="round" stroke-linejoin="round" stroke-width=".5" d="M156.973-35.394h3.441v-4.72h-3.441z"/><path fill="#d1b8eb" d="M199.547-6.168h28.348l-6.735-53.957h-14.883z"/><path fill="none" stroke="#306" stroke-linecap="round" stroke-linejoin="round" stroke-width=".5" d="M199.547-6.168h28.348l-6.735-53.957h-14.883zm14.172-53.957v-11.394"/><path fill="#306" d="M214.684-71.52a.967.967 0 0 0-.965-.964.964.964 0 1 0 .965.965"/><path fill="#fff" d="M213.668-6.168h4.187v-4.348h-4.187Z"/><path fill="none" stroke="#8059a6" stroke-linecap="round" stroke-linejoin="round" stroke-width=".5" d="M213.668-6.168h4.187v-4.348h-4.187z"/><path fill="#fff" d="M201.777-12.91h3.61v-4.246h-3.61Z"/><path fill="none" stroke="#8059a6" stroke-linecap="round" stroke-linejoin="round" stroke-width=".5" d="M201.777-12.91h3.61v-4.246h-3.61z"/><path fill="#fff" d="M220.891-19.656h2.929v-4.492h-2.929Z"/><path fill="none" stroke="#8059a6" stroke-linecap="round" stroke-linejoin="round" stroke-width=".5" d="M220.891-19.656h2.929v-4.492h-2.929z"/><path fill="#fff" d="M204.551-26.398h3.379v-5.125h-3.379Z"/><path fill="none" stroke="#8059a6" stroke-linecap="round" stroke-linejoin="round" stroke-width=".5" d="M204.551-26.398h3.379v-5.125h-3.379z"/><path fill="#fff" d="M206.496-33.144h3.152v-6.149h-3.152Z"/><path fill="none" stroke="#8059a6" stroke-linecap="round" stroke-linejoin="round" stroke-width=".5" d="M206.496-33.144h3.152v-6.149h-3.152z"/><path fill="#fff" d="M216.441-39.89h4.313v-7.797h-4.313Z"/><path fill="none" stroke="#8059a6" stroke-linecap="round" stroke-linejoin="round" stroke-width=".5" d="M216.441-39.89h4.313v-7.797h-4.313z"/><path fill="#fff" d="M208.68-46.633h4.816v-5.992h-4.816Z"/><path fill="none" stroke="#8059a6" stroke-linecap="round" stroke-linejoin="round" stroke-width=".5" d="M208.68-46.633h4.816v-5.992h-4.816z"/><path fill="#fff" d="M213.977-53.379h3.191v-6.367h-3.191Z"/><path fill="none" stroke="#8059a6" stroke-linecap="round" stroke-linejoin="round" stroke-width=".5" d="M213.977-53.379h3.191v-6.367h-3.191z"/><path fill="#b8ebb8" d="M246.902-6.168h28.344l-5.641-35.898h-17.062z"/><path fill="none" stroke="#060" stroke-linecap="round" stroke-linejoin="round" stroke-width=".5" d="M246.902-6.168h28.344l-5.641-35.898h-17.062zm14.172-35.898v-12.559"/><path fill="#060" d="M262.605-54.625a1.53 1.53 0 0 0-1.531-1.531 1.532 1.532 0 1 0 0 3.062c.848 0 1.531-.683 1.531-1.531"/><path fill="#fff" d="M252.164-6.168h4.871v-9.715h-4.871Z"/><path fill="none" stroke="#59a659" stroke-linecap="round" stroke-linejoin="round" stroke-width=".5" d="M252.164-6.168h4.871v-9.715h-4.871z"/><path fill="#fff" d="M261.871-15.14h4.285v-6.63h-4.285Z"/><path fill="none" stroke="#59a659" stroke-linecap="round" stroke-linejoin="round" stroke-width=".5" d="M261.871-15.14h4.285v-6.63h-4.285z"/><path fill="#fff" d="M263.176-24.117h2.855v-3.387h-2.855Z"/><path fill="none" stroke="#59a659" stroke-linecap="round" stroke-linejoin="round" stroke-width=".5" d="M263.176-24.117h2.855v-3.387h-2.855z"/><path fill="#fff" d="M255.891-33.09h3.222v-4.972h-3.222Z"/><path fill="none" stroke="#59a659" stroke-linecap="round" stroke-linejoin="round" stroke-width=".5" d="M255.891-33.09h3.222v-4.972h-3.222z"/><path fill="#b8dede" d="M294.254-6.168h28.348l-7.664-53.855h-13.02z"/><path fill="none" stroke="#004d4d" stroke-linecap="round" stroke-linejoin="round" stroke-width=".5" d="M294.254-6.168h28.348l-7.664-53.855h-13.02zm14.176-53.855V-73.07"/><path fill="#004d4d" d="M309.77-73.07a1.34 1.34 0 0 0-1.34-1.344 1.344 1.344 0 0 0 0 2.687 1.34 1.34 0 0 0 1.34-1.343"/><path fill="#fff" d="M301.352-6.168h4.796v-7.793h-4.796Z"/><path fill="none" stroke="#599292" stroke-linecap="round" stroke-linejoin="round" stroke-width=".5" d="M301.352-6.168h4.796v-7.793h-4.796z"/><path fill="#fff" d="M300.402-15.144h3.868v-5.668h-3.868Z"/><path fill="none" stroke="#599292" stroke-linecap="round" stroke-linejoin="round" stroke-width=".5" d="M300.402-15.144h3.868v-5.668h-3.868z"/><path fill="#fff" d="M308.746-24.117h4.957v-5.785h-4.957Z"/><path fill="none" stroke="#599292" stroke-linecap="round" stroke-linejoin="round" stroke-width=".5" d="M308.746-24.117h4.957v-5.785h-4.957z"/><path fill="#fff" d="M311.52-33.094h3.707v-6.804h-3.707Z"/><path fill="none" stroke="#599292" stroke-linecap="round" stroke-linejoin="round" stroke-width=".5" d="M311.52-33.094h3.707v-6.804h-3.707z"/><path fill="#fff" d="M302.945-42.07h4.985v-5.387h-4.985Z"/><path fill="none" stroke="#599292" stroke-linecap="round" stroke-linejoin="round" stroke-width=".5" d="M302.945-42.07h4.985v-5.387h-4.985z"/><path fill="#fff" d="M302.711-51.047h2.852v-3.223h-2.852Z"/><path fill="none" stroke="#599292" stroke-linecap="round" stroke-linejoin="round" stroke-width=".5" d="M302.711-51.047h2.852v-3.223h-2.852z"/><path fill="#b8ebb8" d="M341.609-6.168h28.348l-4.266-46.476h-19.82z"/><path fill="none" stroke="#060" stroke-linecap="round" stroke-linejoin="round" stroke-width=".5" d="M341.609-6.168h28.348l-4.266-46.476h-19.82zm14.172-46.476V-64.31"/><path fill="#060" d="M356.949-64.309a1.168 1.168 0 1 0-2.337.001 1.168 1.168 0 0 0 2.337 0"/><path fill="#fff" d="M361.543-6.168h5.602v-8.613h-5.602Z"/><path fill="none" stroke="#59a659" stroke-linecap="round" stroke-linejoin="round" stroke-width=".5" d="M361.543-6.168h5.602v-8.613h-5.602z"/><path fill="#fff" d="M354.176-13.914h4.512v-8.043h-4.512Z"/><path fill="none" stroke="#59a659" stroke-linecap="round" stroke-linejoin="round" stroke-width=".5" d="M354.176-13.914h4.512v-8.043h-4.512z"/><path fill="#fff" d="M344.539-21.66h4.957v-8.594h-4.957Z"/><path fill="none" stroke="#59a659" stroke-linecap="round" stroke-linejoin="round" stroke-width=".5" d="M344.539-21.66h4.957v-8.594h-4.957z"/><path fill="#fff" d="M345.934-29.406h3.132v-4.13h-3.132Z"/><path fill="none" stroke="#59a659" stroke-linecap="round" stroke-linejoin="round" stroke-width=".5" d="M345.934-29.406h3.132v-4.13h-3.132z"/><path fill="#fff" d="M361.008-37.152h3.894v-7.426h-3.894Z"/><path fill="none" stroke="#59a659" stroke-linecap="round" stroke-linejoin="round" stroke-width=".5" d="M361.008-37.152h3.894v-7.426h-3.894z"/><path fill="#fff" d="M355-43.844h5.113v-8.8H355Z"/><path fill="none" stroke="#59a659" stroke-linecap="round" stroke-linejoin="round" stroke-width=".5" d="M355-43.844h5.113v-8.8H355z"/><path fill="#ebded1" d="m437.027-6.418-3.082-10.148-8.812-9.094-2.356-5.14-4.05-10.356-7.614 1.07-8.726.832-8.649-1.926-11.894 2.797-5.84 5.551-2.766 8.004.075 9.266-4.317 9.144z"/><path fill="none" stroke="#664d33" stroke-linecap="round" stroke-linejoin="round" d="m437.027-6.418-3.082-10.148-8.812-9.094-2.356-5.14-4.05-10.356-7.614 1.07-8.726.832-8.649-1.926-11.894 2.797-5.84 5.551-2.766 8.004.075 9.266-4.317 9.144z"/><g fill="#ccbfb2"><path d="m400.664-9.957 7.789-.742 1.68 1.683-9.57-1.316zm-22.605-2.406 10.929-2.196-4.687-4.8-9.961.25z"/><path d="m382.031-14.637 5.27-1.793-.207.032-3.082.75zm29.887-3.199 5.191 1.863-.398-2.328-2.57.055zm-9.727-4.844 6.043.336 1.153-1.55-7.09-1.715zm-9.355-.047 2.144-2.074 1.938-1.957-2.555 2.363z"/></g><path fill="none" stroke="#664d33" stroke-linecap="round" stroke-linejoin="round" d="M403.012-45.441c5.242-1.914 7.222-7.266 4.187-11.309-1.902-2.54-5.66-3.953-6.738-6.848-1.051-2.824.785-5.828 4.144-6.777m5.211 24.934c4.286.238 7.825-2.746 7.489-6.313-.211-2.238-2.125-4.262-1.637-6.5.473-2.184 2.945-3.652 5.574-3.312m-28.433 16.125c1.796-2.438.574-5.641-2.582-6.766-1.985-.711-4.414-.336-6.133-1.453-1.68-1.09-2.008-3.098-.742-4.524"/><path fill="gray" d="M404.438-31.586c0-.605 0-1.664-1.18-1.664-.692 0-.938.367-1.18.895-.773 1.746-2.113 3.898-4.269 4.066-.606.039-1.461.121-1.461 1.18 0 .691.402 1.172 1.3 1.172 2.278 0 4.024-1.704 4.149-1.786v17.434h-3.578c-.571 0-1.668 0-1.668 1.18s1.097 1.18 1.668 1.18h9.793c.57 0 1.664 0 1.664-1.18s-1.094-1.18-1.664-1.18h-3.574z"/><path fill="none" stroke="#000" stroke-linecap="round" stroke-linejoin="round" d="M404.438-31.586c0-.605 0-1.664-1.18-1.664-.692 0-.938.367-1.18.895-.773 1.746-2.113 3.898-4.269 4.066-.606.039-1.461.121-1.461 1.18 0 .691.402 1.172 1.3 1.172 2.278 0 4.024-1.704 4.149-1.786v17.434h-3.578c-.571 0-1.668 0-1.668 1.18s1.097 1.18 1.668 1.18h9.793c.57 0 1.664 0 1.664-1.18s-1.094-1.18-1.664-1.18h-3.574z"/><path fill="#ebded1" d="m484.383-6.418-5.688-9.71 1.289-6.934-5.316-2.7-4.273-9-12.368.434-8.39-4.832-7.707-3.567-11.809.586-5.328 8.848-.816 10.55-2.961 8.641-4.664 7.684z"/><path fill="none" stroke="#664d33" stroke-linecap="round" stroke-linejoin="round" d="m484.383-6.418-5.688-9.71 1.289-6.934-5.316-2.7-4.273-9-12.368.434-8.39-4.832-7.707-3.567-11.809.586-5.328 8.848-.816 10.55-2.961 8.641-4.664 7.684z"/><g fill="#ccbfb2"><path d="m467.859-6.473 5.965-2.976-.238-5.848-8.188-3.32zm-7.714-5.137-.536-.75.407-3.578-4.77.665z"/><path d="m455.223-12.144.851-3.454-1.914-.324-.98 1.235zm10.734-5.403 12.07 1.027 1.286-3.09-9.18-1.581zm-15.48.539 7.046-1.844 1.77-10.164-8.336 3.508zm-19.961-6.5 4.793.227 2.226-1.79-8.64 1.544zm33.308 1.453 4.227.946 2.847-7.395-9.293.684z"/></g><path fill="none" stroke="#664d33" stroke-linecap="round" stroke-linejoin="round" d="M450.367-44.117c5.164-2.063 6.93-7.465 3.735-11.422-2.004-2.484-5.813-3.793-7.008-6.66-1.164-2.79.554-5.844 3.875-6.887m6.199 24.969c4.281.289 7.875-2.653 7.602-6.227-.172-2.238-2.047-4.285-1.524-6.52.512-2.171 3.012-3.609 5.633-3.242M440.16-44.117c2.41-2.043 2.086-5.39-.683-7.082-1.739-1.063-4.207-1.153-5.582-2.567-1.34-1.379-1.118-3.394.5-4.543"/><path fill="gray" d="M451.793-31.586c0-.605 0-1.664-1.184-1.664-.687 0-.933.367-1.179.895-.77 1.746-2.11 3.898-4.266 4.066-.605.039-1.465.121-1.465 1.18 0 .691.406 1.172 1.305 1.172 2.273 0 4.023-1.704 4.144-1.786v17.434h-3.578c-.566 0-1.668 0-1.668 1.18s1.102 1.18 1.668 1.18h9.797c.571 0 1.664 0 1.664-1.18s-1.093-1.18-1.664-1.18h-3.574z"/><path fill="none" stroke="#000" stroke-linecap="round" stroke-linejoin="round" d="M451.793-31.586c0-.605 0-1.664-1.184-1.664-.687 0-.933.367-1.179.895-.77 1.746-2.11 3.898-4.266 4.066-.605.039-1.465.121-1.465 1.18 0 .691.406 1.172 1.305 1.172 2.273 0 4.023-1.704 4.144-1.786v17.434h-3.578c-.566 0-1.668 0-1.668 1.18s1.102 1.18 1.668 1.18h9.797c.571 0 1.664 0 1.664-1.18s-1.093-1.18-1.664-1.18h-3.574z"/><path fill="#ebd1b8" d="M483.672-6.168h28.348l-4.934-51.777h-18.481z"/><path fill="none" stroke="#630" stroke-linecap="round" stroke-linejoin="round" stroke-width=".5" d="M483.672-6.168h28.348l-4.934-51.777h-18.481zm14.172-51.777v-9.813"/><path fill="#630" d="M499.129-67.758a1.283 1.283 0 1 0-2.567-.003 1.283 1.283 0 0 0 2.567.003"/><path fill="#fff" d="M488.535-6.168h4.77v-5.988h-4.77Z"/><path fill="none" stroke="#a68059" stroke-linecap="round" stroke-linejoin="round" stroke-width=".5" d="M488.535-6.168h4.77v-5.988h-4.77z"/><path fill="#fff" d="M497.93-14.797h3.984v-5.574h-3.984Z"/><path fill="none" stroke="#a68059" stroke-linecap="round" stroke-linejoin="round" stroke-width=".5" d="M497.93-14.797h3.984v-5.57h-3.984z"/><path fill="#fff" d="M501.797-23.426h4.812v-6.265h-4.812Z"/><path fill="none" stroke="#a68059" stroke-linecap="round" stroke-linejoin="round" stroke-width=".5" d="M501.797-23.426h4.812v-6.265h-4.812z"/><path fill="#fff" d="M502.188-32.055h3.25v-3.836h-3.25Z"/><path fill="none" stroke="#a68059" stroke-linecap="round" stroke-linejoin="round" stroke-width=".5" d="M502.188-32.055h3.25v-3.836h-3.25z"/><path fill="#fff" d="M502.531-40.684h4.235V-46.8h-4.235Z"/><path fill="none" stroke="#a68059" stroke-linecap="round" stroke-linejoin="round" stroke-width=".5" d="M502.531-40.684h4.235V-46.8h-4.235z"/><path fill="#fff" d="M497.832-49.316h5.566v-5.723h-5.566Z"/><path fill="none" stroke="#a68059" stroke-linecap="round" stroke-linejoin="round" stroke-width=".5" d="M497.832-49.316h5.566v-5.723h-5.566z"/><path fill="#b8b8b8" d="M531.027-6.168h28.344l-6.316-28.941h-15.711z"/><path fill="none" stroke="#000" stroke-linecap="round" stroke-linejoin="round" stroke-width=".5" d="M531.027-6.168h28.344l-6.316-28.941h-15.711zm14.172-28.942v-8.671"/><path d="M546.055-43.781a.855.855 0 1 0-1.71 0 .855.855 0 0 0 1.71 0"/><path fill="#fff" d="M552.547-6.168h4.019v-6.05h-4.019Z"/><path fill="none" stroke="#595959" stroke-linecap="round" stroke-linejoin="round" stroke-width=".5" d="M552.547-6.168h4.019v-6.05h-4.019z"/><path fill="#fff" d="M545.523-9.785h5.633V-20.84h-5.633Z"/><path fill="none" stroke="#595959" stroke-linecap="round" stroke-linejoin="round" stroke-width=".5" d="M545.523-9.785h5.633v-11.059h-5.633z"/><path fill="#fff" d="M546.082-13.402h5.457v-8.473h-5.457Z"/><path fill="none" stroke="#595959" stroke-linecap="round" stroke-linejoin="round" stroke-width=".5" d="M546.082-13.402h5.457v-8.473h-5.457z"/><path fill="#fff" d="M550.227-17.02h3.023v-4.082h-3.023Z"/><path fill="none" stroke="#595959" stroke-linecap="round" stroke-linejoin="round" stroke-width=".5" d="M550.227-17.02h3.023v-4.082h-3.023z"/><path fill="#fff" d="M546.453-20.637h5.371v-9.656h-5.371Z"/><path fill="none" stroke="#595959" stroke-linecap="round" stroke-linejoin="round" stroke-width=".5" d="M546.453-20.637h5.371v-9.656h-5.371z"/><path fill="#fff" d="M537.641-24.254h4.836v-8.46h-4.836Z"/><path fill="none" stroke="#595959" stroke-linecap="round" stroke-linejoin="round" stroke-width=".5" d="M537.641-24.254h4.836v-8.46h-4.836z"/><path fill="#fff" d="M536.988-24.902h5.512V-35.11h-5.512Z"/><path fill="none" stroke="#595959" stroke-linecap="round" stroke-linejoin="round" stroke-width=".5" d="M536.988-24.902h5.512V-35.11h-5.512z"/><path fill="#fff" d="M542.191-26.332h5.274v-8.777h-5.274Z"/><path fill="none" stroke="#595959" stroke-linecap="round" stroke-linejoin="round" stroke-width=".5" d="M542.191-26.332h5.274v-8.777h-5.274z"/><path fill="#ebded1" d="m626.445-6.418-5.093-6.86-6.329-9.429-4.64-11.14-3.934-7.684-9.625-1.996-13.254 2.414-8.648-1.508-7.984.473-3.067 9.27-4.562 6.327 2.586 11.434-3.481 8.699z"/><path fill="none" stroke="#664d33" stroke-linecap="round" stroke-linejoin="round" d="m626.445-6.418-5.093-6.86-6.329-9.429-4.64-11.14-3.934-7.684-9.625-1.996-13.254 2.414-8.648-1.508-7.984.473-3.067 9.27-4.562 6.327 2.586 11.434-3.481 8.699z"/><g fill="#ccbfb2"><path d="m609.52-7.117 5.5-.465 3.73-9.86-9.32 2.942z"/><path d="m609.297-13.375 5.016 3.645-2.868-.493L605.27-12zm-30.254-2.113 2.734-.774 5.161-2.707-5.172-.23zm-7.332 2.429 6.031-3.43 1.242-1.94-4.597.597z"/><path d="m577.672-19.832 9.047 4.367 2.465-14.113-12.797 2.3zm35.527-2.18L615-17.234l-1.98-3.153-1.286-3.222zm-11.89 2.762 10.093-2.582-.429-6.816-3.754.566z"/><path d="m598.688-22.637 7.511-.281 2.473-7.21-5.328 5.331z"/></g><path fill="none" stroke="#664d33" stroke-linecap="round" stroke-linejoin="round" d="M592.43-47.508c5.113-2.148 6.75-7.574 3.461-11.48-2.063-2.453-5.903-3.696-7.164-6.54-1.231-2.773.414-5.855 3.707-6.953m6.796 24.973c4.29-.234 7.329-3.582 6.43-7.082-.562-2.195-2.777-3.992-2.648-6.265.125-2.211 2.343-3.938 5.004-3.891m-25.789 17.238c1.945-2.36.925-5.61-2.161-6.87-1.933-.794-4.382-.524-6.035-1.716-1.605-1.164-1.808-3.18-.457-4.55"/><path fill="gray" d="M592.391-20.41c4.222 0 6.093 2.969 6.093 5.164 0 2.684-2.359 5.203-5.933 5.203-4.063 0-5.899-2.195-5.899-2.766 0-.078.043-.16.086-.203.16-.285.282-.61.282-.976 0-.852-.649-1.621-1.625-1.621-.848 0-1.665.527-1.665 1.785 0 3.535 3.86 6.14 8.821 6.14 5.121 0 8.578-3.656 8.578-7.523 0-2.07-1.141-4.957-4.715-6.5 2.477-1.547 3.574-3.984 3.574-6.094 0-3.05-3.05-5.691-7.437-5.691-4.516 0-7.684 1.949-7.684 4.957 0 1.34 1.016 1.75 1.664 1.75.735 0 1.629-.57 1.629-1.672 0-.648-.324-1.012-.324-1.055 1.223-1.543 4.023-1.629 4.715-1.629 2.762 0 4.797 1.47 4.797 3.375 0 1.18-.778 4.555-5.043 4.836-1.504.082-2.153.168-2.317.168-.808.078-1.015.606-1.015 1.18 0 1.172.855 1.172 1.547 1.172z"/><path fill="none" stroke="#000" stroke-linecap="round" stroke-linejoin="round" d="M592.391-20.41c4.222 0 6.093 2.969 6.093 5.164 0 2.684-2.359 5.203-5.933 5.203-4.063 0-5.899-2.195-5.899-2.766 0-.078.043-.16.086-.203.16-.285.282-.61.282-.976 0-.852-.649-1.621-1.625-1.621-.848 0-1.665.527-1.665 1.785 0 3.535 3.86 6.14 8.821 6.14 5.121 0 8.578-3.656 8.578-7.523 0-2.07-1.141-4.957-4.715-6.5 2.477-1.547 3.574-3.984 3.574-6.094 0-3.05-3.05-5.691-7.437-5.691-4.516 0-7.684 1.949-7.684 4.957 0 1.34 1.016 1.75 1.664 1.75.735 0 1.629-.57 1.629-1.672 0-.648-.324-1.012-.324-1.055 1.223-1.543 4.023-1.629 4.715-1.629 2.762 0 4.797 1.47 4.797 3.375 0 1.18-.778 4.555-5.043 4.836-1.504.082-2.153.168-2.317.168-.808.078-1.015.606-1.015 1.18 0 1.172.855 1.172 1.547 1.172z"/><path fill="#b8ebb8" d="M625.734-6.168h28.348L646.57-43.07h-13.324z"/><path fill="none" stroke="#060" stroke-linecap="round" stroke-linejoin="round" stroke-width=".5" d="M625.734-6.168h28.348L646.57-43.07h-13.324zM639.91-43.07v-12.586"/><path fill="#060" d="M641.133-55.656c0-.68-.547-1.227-1.223-1.227-.68 0-1.226.547-1.226 1.227 0 .675.546 1.222 1.226 1.222.676 0 1.223-.547 1.223-1.222"/><path fill="#fff" d="M639.809-6.168h3.582v-5.133h-3.582Z"/><path fill="none" stroke="#59a659" stroke-linecap="round" stroke-linejoin="round" stroke-width=".5" d="M639.809-6.168h3.582v-5.133h-3.582z"/><path fill="#fff" d="M633.449-15.39h4.16v-7.137h-4.16Z"/><path fill="none" stroke="#59a659" stroke-linecap="round" stroke-linejoin="round" stroke-width=".5" d="M633.449-15.39h4.16v-7.137h-4.16z"/><path fill="#fff" d="M633.711-24.617h3.477v-4.16h-3.477Z"/><path fill="none" stroke="#59a659" stroke-linecap="round" stroke-linejoin="round" stroke-width=".5" d="M633.711-24.617h3.477v-4.16h-3.477z"/><path fill="#fff" d="M636.059-33.844h3.652v-4.336h-3.652Z"/><path fill="none" stroke="#59a659" stroke-linecap="round" stroke-linejoin="round" stroke-width=".5" d="M636.059-33.844h3.652v-4.336h-3.652z"/><path fill="#ebded1" d="m721.152-6.418-.574-5.539-4.18-10.61-5.062-6.183-3.945-6.477-12.008-2.699-10.035-2.047-10.664 2.54-8.735-3.204-6.187 8.54 3.019 10.042-5.265 8.473-4.395 7.164z"/><path fill="none" stroke="#664d33" stroke-linecap="round" stroke-linejoin="round" d="m721.152-6.418-.574-5.539-4.18-10.61-5.062-6.183-3.945-6.477-12.008-2.699-10.035-2.047-10.664 2.54-8.735-3.204-6.187 8.54 3.019 10.042-5.265 8.473-4.395 7.164z"/><g fill="#ccbfb2"><path d="m667.262-9.43 4.355-1.316-.125-4.168-3.789 3.738zm5.972.864 13.301-1.293-.519-10.688-7.356-1.246zm-13.496-6.629 7.289-.524.278.418-3.532-3.37z"/><path d="m679.344-14.812 7.679.34 4.629-4.774-11.14-.688zm-11.5-3.45 6.054.649-.035-2.953-3.554-.688zm9-2.152 8.347.402.93-8.113-10.32-.184z"/><path d="m675.129-21.117 8.461-.738 3.207-3.739-9.57-.547z"/><path d="m679.32-21.676 9.868-2.734-2.024-10.758-11.484 4.297z"/></g><path fill="none" stroke="#664d33" stroke-linecap="round" stroke-linejoin="round" d="M687.137-43.602c5.426-1.527 7.961-6.71 5.359-10.964-1.629-2.664-5.223-4.344-5.992-7.309-.754-2.89 1.394-5.75 4.84-6.45m2.597 24.723c4.278.332 7.911-2.57 7.688-6.144-.141-2.242-1.984-4.309-1.43-6.535.543-2.172 3.063-3.582 5.68-3.188m-28.945 15.867c2.324-2.109 1.863-5.445-.981-7.054-1.777-1.012-4.25-1.032-5.683-2.407-1.395-1.335-1.258-3.359.312-4.554"/><path fill="gray" d="M690.836-16.867c.566-.492 4.676-3.988 4.676-8.5 0-4.63-3.821-7.883-8.903-7.883-4.714 0-7.843 3.535-7.843 6.953 0 1.707 1.422 1.828 1.668 1.828.726 0 1.621-.57 1.621-1.668 0-.773-.282-1.015-.485-1.18.571-2.152 2.434-3.578 4.793-3.578 3.457 0 6.5 1.993 6.5 5.528 0 3.172-2.394 5.613-4.59 7.52l-8.941 7.765c-.445.367-.566.484-.566.973 0 1.18 1.093 1.18 1.668 1.18h14.179c.899-.247.899-1.06.899-1.669v-.851c0-.735 0-1.668-1.301-1.668-1.348 0-1.348.855-1.348 1.828h-9.789z"/><path fill="none" stroke="#000" stroke-linecap="round" stroke-linejoin="round" d="M690.836-16.867c.566-.492 4.676-3.988 4.676-8.5 0-4.63-3.821-7.883-8.903-7.883-4.714 0-7.843 3.535-7.843 6.953 0 1.707 1.422 1.828 1.668 1.828.726 0 1.621-.57 1.621-1.668 0-.773-.282-1.015-.485-1.18.571-2.152 2.434-3.578 4.793-3.578 3.457 0 6.5 1.993 6.5 5.528 0 3.172-2.394 5.613-4.59 7.52l-8.941 7.765c-.445.367-.566.484-.566.973 0 1.18 1.093 1.18 1.668 1.18h14.179c.899-.247.899-1.06.899-1.669v-.851c0-.735 0-1.668-1.301-1.668-1.348 0-1.348.855-1.348 1.828h-9.789z"/><path fill="#d1b8eb" d="M720.445-6.168h28.344l-3.984-29.836H724.43z"/><path fill="none" stroke="#306" stroke-linecap="round" stroke-linejoin="round" stroke-width=".5" d="M720.445-6.168h28.344l-3.984-29.836H724.43z"/><path fill="#fff" d="M730.535-6.168h4.395v-8.777h-4.395Z"/><path fill="none" stroke="#8059a6" stroke-linecap="round" stroke-linejoin="round" stroke-width=".5" d="M730.535-6.168h4.395v-8.777h-4.395z"/><path fill="#fff" d="M737.664-13.625h4.359v-7.613h-4.359Z"/><path fill="none" stroke="#8059a6" stroke-linecap="round" stroke-linejoin="round" stroke-width=".5" d="M737.664-13.625h4.359v-7.613h-4.359z"/><path fill="#fff" d="M727.18-21.086h4.183v-7.75h-4.183Z"/><path fill="none" stroke="#8059a6" stroke-linecap="round" stroke-linejoin="round" stroke-width=".5" d="M727.18-21.086h4.183v-7.75h-4.183z"/><path fill="#fff" d="M727.156-28.543h4.867v-5.187h-4.867Z"/><path fill="none" stroke="#8059a6" stroke-linecap="round" stroke-linejoin="round" stroke-width=".5" d="M727.156-28.543h4.867v-5.187h-4.867z"/><path fill="#b8b8b8" d="M767.797-6.168h28.348l-4.454-21.305H772.25z"/><path fill="none" stroke="#000" stroke-linecap="round" stroke-linejoin="round" stroke-width=".5" d="M767.797-6.168h28.348l-4.454-21.305H772.25zm14.176-21.305V-37.53"/><path d="M783.188-37.531a1.217 1.217 0 1 0-2.434.005 1.217 1.217 0 0 0 2.434-.005"/><path fill="#fff" d="M777.98-6.168h3.985v-5.281h-3.985Z"/><path fill="none" stroke="#595959" stroke-linecap="round" stroke-linejoin="round" stroke-width=".5" d="M777.98-6.168h3.985v-5.281h-3.985z"/><path fill="#fff" d="M773.211-16.82h3.828v-5.785h-3.828Z"/><path fill="none" stroke="#595959" stroke-linecap="round" stroke-linejoin="round" stroke-width=".5" d="M773.211-16.82h3.828v-5.785h-3.828z"/><path fill="#ebd1b8" d="M815.152-6.168H843.5l-4.738-25.363h-18.871z"/><path fill="none" stroke="#630" stroke-linecap="round" stroke-linejoin="round" stroke-width=".5" d="M815.152-6.168H843.5l-4.738-25.363h-18.871zm14.172-25.363v-5.864"/><path fill="#630" d="M830.324-37.394a1 1 0 1 0-1.998-.002 1 1 0 0 0 1.998.002"/><path fill="#fff" d="M825.395-6.168h3.101v-3.523h-3.101Z"/><path fill="none" stroke="#a68059" stroke-linecap="round" stroke-linejoin="round" stroke-width=".5" d="M825.395-6.168h3.101v-3.523h-3.101z"/><path fill="#fff" d="M831.496-14.621h3.145v-5.352h-3.145Z"/><path fill="none" stroke="#a68059" stroke-linecap="round" stroke-linejoin="round" stroke-width=".5" d="M831.496-14.621h3.145v-5.352h-3.145z"/><path fill="#fff" d="M819.996-22.156h4.774v-9.375h-4.774Z"/><path fill="none" stroke="#a68059" stroke-linecap="round" stroke-linejoin="round" stroke-width=".5" d="M819.996-22.156h4.774v-9.375h-4.774z"/></g></svg>