<svg xmlns="http://www.w3.org/2000/svg" width="82pt" height="104pt" viewBox="0 -104 82 104"><g id="page1"><path fill="none" stroke="#3b3b3b" stroke-linecap="round" stroke-linejoin="round" stroke-width="2" d="M9.86-6.465a90.65 90.65 0 0 0 62.007 0l8.856-88.582a116.5 116.5 0 0 0-79.723 0z"/><path fill="gray" d="m8.973-15.324.886 8.86a90.65 90.65 0 0 0 62.008 0l.887-8.86a93.26 93.26 0 0 1-63.781 0"/><path fill="none" stroke="#3b3b3b" stroke-linecap="round" stroke-linejoin="round" stroke-width="2" d="m8.973-15.324.886 8.86a90.65 90.65 0 0 0 62.008 0l.887-8.86a93.26 93.26 0 0 1-63.781 0"/><path fill="gray" d="m79.84-86.191.883-8.856a116.5 116.5 0 0 0-79.723 0l.887 8.856a114 114 0 0 1 77.953 0"/><g fill="none" stroke="#3b3b3b" stroke-linecap="round" stroke-linejoin="round" stroke-width="2"><path d="m79.84-86.191.883-8.856a116.5 116.5 0 0 0-79.723 0l.887 8.856a114 114 0 0 1 77.953 0m-7.086 70.867c-13.856-29.707-58.692-31.7-70.082-62.992"/><path d="M8.973-15.324c13.851-29.707 58.687-31.7 70.078-62.992"/><path d="M1.887-86.191C15.94-56.047 61.973-54.977 73.539-23.2"/><path d="M79.84-86.191C65.78-56.047 19.75-54.977 8.184-23.2"/><path d="M66.39-13.266C51.798-38.546 13.685-42.352 3.46-70.44"/><path d="M15.332-13.266C29.93-38.546 68.039-42.352 78.266-70.44"/><path d="M9.66-88.707C24.547-62.918 63.883-59.766 74.328-31.07"/><path d="M72.066-88.707C57.176-62.918 17.84-59.766 7.398-31.07"/><path d="M58.676-11.418C44.094-32.242 13.148-38.109 4.25-62.566"/><path d="M23.047-11.418c14.582-20.824 45.527-26.691 54.43-51.148"/><path d="M19.09-90.965c14.933 21.324 46.898 26.946 56.023 52.02"/><path d="M62.633-90.965C47.703-69.64 15.734-64.019 6.609-38.945"/><path d="M50.012-10.152c-13.79-16.43-37.508-24.024-44.977-44.543"/><path d="M31.71-10.152c13.79-16.43 37.513-24.024 44.978-44.543"/><path d="M29.68-92.512C43.836-75.64 68.23-67.89 75.902-46.82"/><path d="M52.047-92.512C37.887-75.64 13.492-67.89 5.824-46.82M40.863-9.7C28.637-21.925 11.793-30.413 5.824-46.82M40.863-9.7c12.223-12.226 29.067-20.714 35.04-37.12"/><path d="M40.863-93.062c12.567 12.57 29.692 21.511 35.825 38.367M40.863-93.062c-12.57 12.57-29.691 21.511-35.828 38.367M31.71-10.152c-9.933-8.336-20.651-16.57-25.1-28.793m43.402 28.793c9.937-8.336 20.652-16.57 25.101-28.793M52.047-92.512c10.215 8.57 20.86 17.383 25.43 29.946M29.68-92.512C19.465-83.942 8.82-75.129 4.25-62.566m18.797 51.148c-7.02-4.918-12.715-11.598-15.649-19.652m51.278 19.652c7.023-4.918 12.718-11.598 15.652-19.652M62.633-90.965c7.21 5.05 12.62 12.25 15.633 20.524M19.09-90.965c-7.211 5.05-12.617 12.25-15.63 20.524m11.872 57.175c-3.645-2.101-5.707-5.972-7.148-9.933m58.206 9.933c3.65-2.101 5.708-5.972 7.15-9.933m-1.474-65.508c3.735 2.156 5.508 6.336 6.985 10.39M9.66-88.707c-3.738 2.156-5.512 6.336-6.988 10.39"/></g></g></svg>