<svg xmlns="http://www.w3.org/2000/svg" width="868" height="46pt" viewBox="0 -46 651 46"><g id="page1"><path fill="none" stroke="#000" stroke-linecap="round" stroke-linejoin="round" d="M.5-.504h649.629M.5-44.746h649.629M.5-.504v-44.242M46.902-.504v-44.242M93.305-.504v-44.242M139.707-.504v-44.242M186.109-.504v-44.242M232.508-.504v-44.242M278.91-.504v-44.242M325.313-.504v-44.242M371.715-.504v-44.242M418.117-.504v-44.242M464.52-.504v-44.242M510.922-.504v-44.242M557.324-.504v-44.242M603.727-.504v-44.242M650.129-.504v-44.242"/><path d="M29.152-31.441v-.547h-5.761c-2.891 0-2.938-.313-3.035-.766h-.524l-.742 4.777h.527c.07-.43.285-1.91.598-2.171.191-.145 1.98-.145 2.316-.145h5.067l-2.535 3.633c-.645.933-3.055 4.851-3.055 9.344 0 .261 0 1.218.976 1.218 1.004 0 1.004-.933 1.004-1.242v-1.195c0-3.563.575-6.332 1.7-7.934zm39.762 10.828h-.523c-.075.406-.266 1.718-.504 2.101-.168.215-1.528.215-2.246.215h-4.422c.648-.55 2.105-2.078 2.726-2.652 3.633-3.348 4.97-4.59 4.97-6.953 0-2.75-2.173-4.59-4.946-4.59-2.774 0-4.399 2.367-4.399 4.422 0 1.218 1.051 1.218 1.125 1.218.5 0 1.121-.359 1.121-1.125 0-.668-.453-1.12-1.12-1.12-.215 0-.266 0-.337.023.453-1.625 1.746-2.723 3.297-2.723 2.032 0 3.274 1.695 3.274 3.895 0 2.03-1.168 3.8-2.532 5.328l-4.828 5.402v.57h8.723zm11.891-3.633c0-1.985-.118-3.918-.977-5.738-.98-1.98-2.703-2.508-3.875-2.508-1.383 0-3.082.695-3.965 2.676-.668 1.507-.91 2.988-.91 5.57 0 2.316.168 4.062 1.031 5.758.93 1.816 2.579 2.39 3.82 2.39 2.079 0 3.274-1.242 3.97-2.629.859-1.793.906-4.132.906-5.52m-4.875 7.668c-.766 0-2.317-.43-2.77-3.031-.266-1.438-.266-3.25-.266-4.926 0-1.957 0-3.727.383-5.137.407-1.601 1.625-2.344 2.653-2.344.91 0 2.297.551 2.75 2.606.308 1.363.308 3.25.308 4.875 0 1.601 0 3.418-.261 4.875-.454 2.629-1.961 3.082-2.797 3.082m43.398-15.577c0-.453 0-.575-.336-.575-.191 0-.262 0-.453.286l-7.195 11.16v.695h6.285v2.176c0 .883-.047 1.121-1.789 1.121h-.481v.691c.551-.046 2.438-.046 3.11-.046.668 0 2.578 0 3.129.046v-.691h-.481c-1.719 0-1.789-.238-1.789-1.121v-2.176h2.414v-.695h-2.414zm-1.578 1.863v9.008h-5.809zm40.332-1.625c0-.55 0-.574-.477-.574-.574.648-1.769 1.531-4.23 1.531v.691c.551 0 1.742 0 3.059-.62v12.449c0 .863-.075 1.148-2.176 1.148h-.738v.691c.644-.046 2.96-.046 3.75-.046.789 0 3.082 0 3.726.046v-.691h-.738c-2.102 0-2.176-.285-2.176-1.148zm7.758 7.004c0-6.047 2.937-7.004 4.23-7.004.86 0 1.719.262 2.172.98-.285 0-1.195 0-1.195.981 0 .523.359.98.98.98.602 0 1.004-.359 1.004-1.054 0-1.242-.91-2.461-2.984-2.461-3.012 0-6.168 3.082-6.168 8.34 0 6.574 2.867 8.054 4.898 8.054 2.606 0 4.828-2.27 4.828-5.379 0-3.175-2.222-5.304-4.613-5.304-2.125 0-2.914 1.84-3.152 2.511zm2.937 8.172c-1.504 0-2.222-1.34-2.437-1.84-.211-.621-.453-1.793-.453-3.465 0-1.89.859-4.254 3.011-4.254 1.317 0 2.008.883 2.368 1.695.382.883.382 2.079.382 3.106 0 1.219 0 2.297-.457 3.203-.597 1.149-1.457 1.555-2.414 1.555m35.707-15.176c0-.55 0-.574-.48-.574-.574.648-1.77 1.531-4.231 1.531v.691c.551 0 1.747 0 3.059-.62v12.449c0 .863-.07 1.148-2.172 1.148h-.742v.691c.645-.046 2.965-.046 3.754-.046.785 0 3.082 0 3.726.046v-.691h-.742c-2.101 0-2.172-.285-2.172-1.148zm15.329 11.305h-.524c-.07.406-.262 1.718-.5 2.101-.168.215-1.531.215-2.25.215h-4.418c.645-.55 2.102-2.078 2.723-2.652 3.633-3.348 4.969-4.59 4.969-6.953 0-2.75-2.172-4.59-4.946-4.59s-4.398 2.367-4.398 4.422c0 1.218 1.054 1.218 1.125 1.218.5 0 1.125-.359 1.125-1.125 0-.668-.457-1.12-1.125-1.12-.215 0-.262 0-.336.023.457-1.625 1.746-2.723 3.301-2.723 2.031 0 3.273 1.695 3.273 3.895 0 2.03-1.172 3.8-2.535 5.328l-4.828 5.402v.57h8.726zm40.792-3.633c0-1.985-.121-3.918-.976-5.738-.981-1.98-2.703-2.508-3.875-2.508-1.387 0-3.082.695-3.965 2.676-.672 1.507-.91 2.988-.91 5.57 0 2.316.168 4.062 1.027 5.758.934 1.816 2.582 2.39 3.824 2.39 2.079 0 3.274-1.242 3.965-2.629.864-1.793.91-4.132.91-5.52m-4.875 7.668c-.765 0-2.316-.43-2.769-3.031-.266-1.438-.266-3.25-.266-4.926 0-1.957 0-3.727.383-5.137.406-1.601 1.625-2.344 2.652-2.344.911 0 2.293.551 2.75 2.606.309 1.363.309 3.25.309 4.875 0 1.601 0 3.418-.262 4.875-.453 2.629-1.961 3.082-2.797 3.082m51.083-4.034h-.524c-.07.406-.262 1.718-.5 2.101-.168.215-1.531.215-2.25.215h-4.418c.645-.55 2.102-2.078 2.723-2.652 3.633-3.348 4.969-4.59 4.969-6.953 0-2.75-2.172-4.59-4.946-4.59s-4.398 2.367-4.398 4.422c0 1.218 1.054 1.218 1.125 1.218.5 0 1.125-.359 1.125-1.125 0-.668-.457-1.12-1.125-1.12-.215 0-.262 0-.336.023.457-1.625 1.746-2.723 3.301-2.723 2.031 0 3.273 1.695 3.273 3.895 0 2.03-1.172 3.8-2.535 5.328l-4.828 5.402v.57h8.726zm38.945-9.68a7 7 0 0 0 2.129.36c2.699 0 4.418-1.985 4.418-2.317 0-.098-.047-.219-.188-.219-.051 0-.097 0-.312.098a7.8 7.8 0 0 1-3.106.644 7.8 7.8 0 0 1-3.156-.668c-.164-.074-.215-.074-.238-.074-.192 0-.192.145-.192.528v7.097c0 .43 0 .575.285.575.122 0 .145-.028.383-.313a3.61 3.61 0 0 1 2.989-1.55c1.265 0 1.886 1.167 2.078 1.573.406.934.433 2.106.433 3.012s0 2.27-.672 3.344c-.523.863-1.457 1.46-2.507 1.46a3.7 3.7 0 0 1-3.563-2.82c.121.047.266.07.383.07.406 0 1.051-.238 1.051-1.05 0-.668-.453-1.05-1.051-1.05-.43 0-1.051.214-1.051 1.148 0 2.03 1.625 4.347 4.277 4.347 2.7 0 5.067-2.27 5.067-5.304 0-2.844-1.91-5.211-4.422-5.211-1.363 0-2.414.597-3.035 1.265zm44.324-1.625c0-.55 0-.574-.477-.574-.574.648-1.769 1.531-4.23 1.531v.691c.551 0 1.742 0 3.059-.62v12.449c0 .863-.075 1.148-2.176 1.148h-.738v.691c.644-.046 2.96-.046 3.75-.046.789 0 3.082 0 3.726.046v-.691h-.738c-2.102 0-2.176-.285-2.176-1.148zm11.941 6.691c1.192-.644 2.938-1.746 2.938-3.75 0-2.082-2.008-3.515-4.207-3.515-2.363 0-4.231 1.746-4.231 3.922 0 .812.243 1.625.911 2.437.261.309.285.332 1.957 1.504-2.317 1.074-3.512 2.676-3.512 4.422 0 2.531 2.414 4.11 4.851 4.11 2.653 0 4.875-1.962 4.875-4.47 0-2.437-1.718-3.511-3.582-4.66m-3.25-2.152c-.312-.215-1.269-.836-1.269-2.004 0-1.555 1.625-2.535 3.226-2.535 1.723 0 3.25 1.242 3.25 2.965 0 1.457-1.05 2.625-2.437 3.39zm1.122 3.082 2.89 1.89c.621.407 1.723 1.15 1.723 2.606 0 1.817-1.84 3.059-3.754 3.059-2.031 0-3.774-1.485-3.774-3.465 0-1.863 1.36-3.371 2.915-4.09m42.488-7.621c0-.55 0-.574-.477-.574-.574.648-1.769 1.531-4.23 1.531v.691c.551 0 1.742 0 3.058-.62v12.449c0 .863-.074 1.148-2.175 1.148h-.739v.691c.645-.046 2.961-.046 3.75-.046s3.082 0 3.727.046v-.691h-.742c-2.102 0-2.172-.285-2.172-1.148zm48.265 8.363c0 5.64-2.511 6.813-3.945 6.813-.574 0-1.84-.074-2.437-.91h.144c.168.05 1.028-.094 1.028-.98 0-.524-.36-.977-.981-.977s-1.004.406-1.004 1.027c0 1.48 1.195 2.484 3.274 2.484 2.988 0 5.878-3.18 5.878-8.363 0-6.43-2.675-8.031-4.777-8.031-2.629 0-4.949 2.199-4.949 5.351 0 3.157 2.223 5.309 4.613 5.309 1.77 0 2.676-1.293 3.156-2.512zm-3.058 1.242c-1.508 0-2.152-1.218-2.367-1.671-.383-.907-.383-2.055-.383-3.13 0-1.34 0-2.488.621-3.464.43-.649 1.074-1.34 2.367-1.34 1.36 0 2.055 1.195 2.293 1.746.477 1.168.477 3.2.477 3.559 0 2.008-.907 4.3-3.008 4.3m51.418-1.933c0-1.985-.121-3.918-.981-5.738-.98-1.98-2.703-2.508-3.871-2.508-1.386 0-3.086.695-3.968 2.676-.668 1.507-.907 2.988-.907 5.57 0 2.316.164 4.062 1.028 5.758.929 1.816 2.578 2.39 3.824 2.39 2.078 0 3.273-1.242 3.965-2.629.859-1.793.91-4.132.91-5.52m-4.875 7.668c-.766 0-2.32-.43-2.774-3.031-.265-1.438-.265-3.25-.265-4.926 0-1.957 0-3.727.383-5.137.406-1.601 1.625-2.344 2.656-2.344.906 0 2.293.551 2.746 2.606.309 1.363.309 3.25.309 4.875 0 1.601 0 3.418-.262 4.875-.453 2.629-1.957 3.082-2.793 3.082m47.687-8.648c1.196-.644 2.942-1.746 2.942-3.75 0-2.082-2.008-3.515-4.207-3.515-2.367 0-4.231 1.746-4.231 3.922 0 .812.239 1.625.91 2.437.262.309.286.332 1.957 1.504-2.316 1.074-3.511 2.676-3.511 4.422 0 2.531 2.414 4.11 4.851 4.11 2.653 0 4.875-1.962 4.875-4.47 0-2.437-1.718-3.511-3.586-4.66m-3.25-2.152c-.308-.215-1.265-.836-1.265-2.004 0-1.555 1.625-2.535 3.226-2.535 1.723 0 3.25 1.242 3.25 2.965 0 1.457-1.051 2.625-2.437 3.39zm1.125 3.082 2.891 1.89c.621.407 1.719 1.15 1.719 2.606 0 1.817-1.836 3.059-3.75 3.059-2.032 0-3.774-1.485-3.774-3.465 0-1.863 1.36-3.371 2.914-4.09m42.387-7.621c0-.55 0-.574-.477-.574-.574.648-1.769 1.531-4.23 1.531v.691c.551 0 1.742 0 3.059-.62v12.449c0 .863-.075 1.148-2.176 1.148h-.738v.691c.644-.046 2.96-.046 3.75-.046.789 0 3.082 0 3.726.046v-.691h-.738c-2.102 0-2.176-.285-2.176-1.148zm7.879 1.625a7 7 0 0 0 2.125.36c2.699 0 4.422-1.985 4.422-2.317 0-.098-.047-.219-.192-.219-.05 0-.097 0-.312.098a7.8 7.8 0 0 1-3.106.644c-1.578 0-2.699-.476-3.156-.668-.164-.074-.215-.074-.238-.074-.191 0-.191.145-.191.528v7.097c0 .43 0 .575.289.575.117 0 .14-.028.382-.313.668-.98 1.789-1.55 2.985-1.55 1.265 0 1.89 1.167 2.078 1.573.406.934.433 2.106.433 3.012s0 2.27-.671 3.344c-.524.863-1.457 1.46-2.508 1.46a3.694 3.694 0 0 1-3.559-2.82c.117.047.262.07.379.07.406 0 1.051-.238 1.051-1.05 0-.668-.453-1.05-1.051-1.05-.43 0-1.051.214-1.051 1.148 0 2.03 1.625 4.347 4.278 4.347 2.699 0 5.066-2.27 5.066-5.304 0-2.844-1.91-5.211-4.422-5.211-1.359 0-2.414.597-3.031 1.265z"/></g></svg>