<svg xmlns="http://www.w3.org/2000/svg" width="868" height="46pt" viewBox="0 -46 651 46"><g id="page1"><path fill="none" stroke="#000" stroke-linecap="round" stroke-linejoin="round" d="M.5-.504h649.629M.5-44.746h649.629M.5-.504v-44.242M46.902-.504v-44.242M93.305-.504v-44.242M139.707-.504v-44.242M186.109-.504v-44.242M232.508-.504v-44.242M278.91-.504v-44.242M325.313-.504v-44.242M371.715-.504v-44.242M418.117-.504v-44.242M464.52-.504v-44.242M510.922-.504v-44.242M557.324-.504v-44.242M603.727-.504v-44.242M650.129-.504v-44.242"/><path d="M24.922-25.227c1.195-.644 2.937-1.746 2.937-3.75 0-2.082-2.007-3.515-4.203-3.515-2.367 0-4.23 1.746-4.23 3.922 0 .812.238 1.625.906 2.437.262.309.29.332 1.961 1.504-2.316 1.074-3.512 2.676-3.512 4.422 0 2.531 2.414 4.11 4.852 4.11 2.648 0 4.875-1.962 4.875-4.47 0-2.437-1.723-3.511-3.586-4.66m-3.25-2.152c-.313-.215-1.266-.836-1.266-2.004 0-1.555 1.625-2.535 3.227-2.535 1.719 0 3.25 1.242 3.25 2.965 0 1.457-1.055 2.625-2.438 3.39zm1.121 3.082 2.895 1.89c.62.407 1.718 1.15 1.718 2.606 0 1.817-1.84 3.059-3.75 3.059-2.031 0-3.777-1.485-3.777-3.465 0-1.863 1.363-3.371 2.914-4.09m45.902-.883c-.406.024-.5.047-.5.266 0 .238.118.238.551.238h1.098c2.031 0 2.937 1.672 2.937 3.965 0 3.133-1.625 3.969-2.793 3.969-1.148 0-3.105-.551-3.8-2.13.765.122 1.456-.308 1.456-1.167 0-.695-.5-1.172-1.167-1.172-.575 0-1.196.332-1.196 1.242 0 2.125 2.125 3.871 4.778 3.871 2.843 0 4.949-2.175 4.949-4.59 0-2.195-1.77-3.918-4.063-4.324 2.078-.597 3.414-2.34 3.414-4.207 0-1.886-1.957-3.273-4.277-3.273-2.387 0-4.156 1.457-4.156 3.203 0 .957.738 1.148 1.097 1.148.504 0 1.079-.359 1.079-1.078 0-.765-.575-1.097-1.102-1.097-.144 0-.191 0-.262.023.906-1.625 3.153-1.625 3.274-1.625.789 0 2.34.36 2.34 2.7 0 .452-.07 1.792-.762 2.82-.719 1.05-1.531 1.125-2.176 1.148zm42.989-6.738c0-.55 0-.574-.481-.574-.57.648-1.765 1.531-4.226 1.531v.691c.546 0 1.742 0 3.054-.62v12.449c0 .863-.07 1.148-2.172 1.148h-.742v.691c.645-.046 2.965-.046 3.754-.046.785 0 3.082 0 3.727.046v-.691h-.743c-2.101 0-2.171-.285-2.171-1.148zm15.523 7.672c0-1.985-.121-3.918-.98-5.738-.981-1.98-2.704-2.508-3.872-2.508-1.386 0-3.082.695-3.968 2.676-.668 1.507-.907 2.988-.907 5.57 0 2.316.168 4.062 1.028 5.758.93 1.816 2.582 2.39 3.824 2.39 2.078 0 3.273-1.242 3.965-2.629.859-1.793.91-4.132.91-5.52m-4.875 7.668c-.766 0-2.32-.43-2.773-3.031-.262-1.438-.262-3.25-.262-4.926 0-1.957 0-3.727.383-5.137.406-1.601 1.625-2.344 2.652-2.344.906 0 2.293.551 2.746 2.606.313 1.363.313 3.25.313 4.875 0 1.601 0 3.418-.262 4.875-.457 2.629-1.961 3.082-2.797 3.082m35.75-15.339c0-.55 0-.574-.477-.574-.574.648-1.769 1.531-4.23 1.531v.691c.551 0 1.742 0 3.059-.62v12.449c0 .863-.075 1.148-2.176 1.148h-.738v.691c.644-.046 2.96-.046 3.75-.046.789 0 3.082 0 3.726.046v-.691h-.738c-2.102 0-2.176-.285-2.176-1.148zm7.758 7.004c0-6.047 2.937-7.004 4.23-7.004.86 0 1.719.262 2.172.98-.285 0-1.195 0-1.195.981 0 .523.359.98.98.98.602 0 1.004-.359 1.004-1.054 0-1.242-.91-2.461-2.984-2.461-3.012 0-6.168 3.082-6.168 8.34 0 6.574 2.867 8.054 4.898 8.054 2.606 0 4.828-2.27 4.828-5.379 0-3.175-2.222-5.304-4.613-5.304-2.125 0-2.914 1.84-3.152 2.511zm2.937 8.172c-1.504 0-2.222-1.34-2.437-1.84-.211-.621-.453-1.793-.453-3.465 0-1.89.859-4.254 3.011-4.254 1.317 0 2.008.883 2.368 1.695.382.883.382 2.079.382 3.106 0 1.219 0 2.297-.457 3.203-.597 1.149-1.457 1.555-2.414 1.555m37.782-13.551a7 7 0 0 0 2.129.36c2.699 0 4.417-1.985 4.417-2.317 0-.098-.046-.219-.191-.219-.047 0-.094 0-.309.098a7.85 7.85 0 0 1-3.109.644 7.8 7.8 0 0 1-3.152-.668c-.168-.074-.215-.074-.239-.074-.191 0-.191.145-.191.528v7.097c0 .43 0 .575.285.575.121 0 .145-.028.383-.313a3.61 3.61 0 0 1 2.988-1.55c1.266 0 1.887 1.167 2.078 1.573.407.934.43 2.106.43 3.012s0 2.27-.668 3.344c-.527.863-1.457 1.46-2.512 1.46a3.7 3.7 0 0 1-3.558-2.82c.121.047.262.07.383.07.406 0 1.05-.238 1.05-1.05 0-.668-.453-1.05-1.05-1.05-.43 0-1.051.214-1.051 1.148 0 2.03 1.625 4.347 4.277 4.347 2.699 0 5.067-2.27 5.067-5.304 0-2.844-1.914-5.211-4.422-5.211-1.364 0-2.414.597-3.035 1.265zm54.695-1.148v-.547h-5.762c-2.89 0-2.937-.313-3.035-.766h-.527l-.739 4.777h.524c.074-.43.289-1.91.598-2.171.191-.145 1.984-.145 2.32-.145h5.062l-2.531 3.633c-.644.933-3.059 4.851-3.059 9.344 0 .261 0 1.218.981 1.218 1.004 0 1.004-.933 1.004-1.242v-1.195c0-3.563.574-6.332 1.695-7.934zm38.105 1.148a7 7 0 0 0 2.125.36c2.704 0 4.422-1.985 4.422-2.317 0-.098-.047-.219-.191-.219-.047 0-.094 0-.309.098a7.9 7.9 0 0 1-3.109.644c-1.578 0-2.699-.476-3.152-.668-.168-.074-.215-.074-.239-.074-.191 0-.191.145-.191.528v7.097c0 .43 0 .575.285.575.121 0 .145-.028.383-.313.668-.98 1.793-1.55 2.988-1.55 1.266 0 1.887 1.167 2.078 1.573.406.934.43 2.106.43 3.012s0 2.27-.668 3.344c-.527.863-1.457 1.46-2.512 1.46a3.69 3.69 0 0 1-3.558-2.82c.117.047.261.07.382.07.407 0 1.051-.238 1.051-1.05 0-.668-.453-1.05-1.051-1.05-.429 0-1.054.214-1.054 1.148 0 2.03 1.625 4.347 4.277 4.347 2.703 0 5.067-2.27 5.067-5.304 0-2.844-1.911-5.211-4.418-5.211-1.364 0-2.415.597-3.036 1.265zm54.692-1.148v-.547h-5.758c-2.895 0-2.941-.313-3.035-.766h-.528l-.738 4.777h.524c.074-.43.289-1.91.597-2.171.192-.145 1.985-.145 2.317-.145h5.066l-2.531 3.633c-.645.933-3.059 4.851-3.059 9.344 0 .261 0 1.218.981 1.218 1.004 0 1.004-.933 1.004-1.242v-1.195c0-3.563.574-6.332 1.695-7.934zm37.988 6.527c0-6.047 2.938-7.004 4.231-7.004.859 0 1.718.262 2.175.98-.289 0-1.199 0-1.199.981 0 .523.363.98.981.98.601 0 1.007-.359 1.007-1.054 0-1.242-.91-2.461-2.988-2.461-3.012 0-6.168 3.082-6.168 8.34 0 6.574 2.867 8.054 4.899 8.054 2.605 0 4.828-2.27 4.828-5.379 0-3.175-2.223-5.304-4.61-5.304-2.129 0-2.918 1.84-3.156 2.511zm2.938 8.172c-1.504 0-2.219-1.34-2.438-1.84-.211-.621-.449-1.793-.449-3.465 0-1.89.855-4.254 3.008-4.254 1.316 0 2.007.883 2.367 1.695.383.883.383 2.079.383 3.106 0 1.219 0 2.297-.457 3.203-.594 1.149-1.457 1.555-2.414 1.555m41.507-15.176c0-.55 0-.574-.48-.574-.574.648-1.77 1.531-4.231 1.531v.691c.551 0 1.747 0 3.059-.62v12.449c0 .863-.07 1.148-2.172 1.148h-.742v.691c.645-.046 2.965-.046 3.754-.046.785 0 3.082 0 3.726.046v-.691h-.742c-2.101 0-2.172-.285-2.172-1.148zm11.7 0c0-.55 0-.574-.481-.574-.57.648-1.765 1.531-4.226 1.531v.691c.546 0 1.742 0 3.054-.62v12.449c0 .863-.07 1.148-2.172 1.148h-.742v.691c.645-.046 2.965-.046 3.754-.046.785 0 3.082 0 3.727.046v-.691h-.743c-2.101 0-2.171-.285-2.171-1.148zm34.699 0c0-.55 0-.574-.477-.574-.574.648-1.769 1.531-4.23 1.531v.691c.551 0 1.742 0 3.058-.62v12.449c0 .863-.074 1.148-2.175 1.148h-.739v.691c.645-.046 2.961-.046 3.75-.046s3.082 0 3.727.046v-.691h-.742c-2.102 0-2.172-.285-2.172-1.148zm11.937 6.691c1.196-.644 2.942-1.746 2.942-3.75 0-2.082-2.008-3.515-4.207-3.515-2.367 0-4.231 1.746-4.231 3.922 0 .812.239 1.625.91 2.437.262.309.286.332 1.957 1.504-2.316 1.074-3.511 2.676-3.511 4.422 0 2.531 2.414 4.11 4.851 4.11 2.653 0 4.875-1.962 4.875-4.47 0-2.437-1.718-3.511-3.586-4.66m-3.25-2.152c-.308-.215-1.265-.836-1.265-2.004 0-1.555 1.625-2.535 3.226-2.535 1.723 0 3.25 1.242 3.25 2.965 0 1.457-1.051 2.625-2.437 3.39zm1.125 3.082 2.891 1.89c.621.407 1.719 1.15 1.719 2.606 0 1.817-1.836 3.059-3.75 3.059-2.032 0-3.774-1.485-3.774-3.465 0-1.863 1.36-3.371 2.914-4.09m36.586-7.621c0-.55 0-.574-.476-.574-.575.648-1.77 1.531-4.231 1.531v.691c.551 0 1.746 0 3.059-.62v12.449c0 .863-.07 1.148-2.172 1.148h-.742v.691c.644-.046 2.961-.046 3.75-.046s3.086 0 3.726.046v-.691h-.738c-2.102 0-2.176-.285-2.176-1.148zm7.758 7.004c0-6.047 2.938-7.004 4.231-7.004.859 0 1.718.262 2.175.98-.289 0-1.199 0-1.199.981 0 .523.363.98.981.98.601 0 1.007-.359 1.007-1.054 0-1.242-.91-2.461-2.988-2.461-3.012 0-6.168 3.082-6.168 8.34 0 6.574 2.867 8.054 4.899 8.054 2.605 0 4.828-2.27 4.828-5.379 0-3.175-2.223-5.304-4.61-5.304-2.129 0-2.918 1.84-3.156 2.511zm2.938 8.172c-1.504 0-2.219-1.34-2.434-1.84-.215-.621-.453-1.793-.453-3.465 0-1.89.855-4.254 3.008-4.254 1.316 0 2.007.883 2.367 1.695.383.883.383 2.079.383 3.106 0 1.219 0 2.297-.457 3.203-.594 1.149-1.457 1.555-2.414 1.555m37.664-8.172c0-6.047 2.937-7.004 4.226-7.004.863 0 1.723.262 2.176.98-.285 0-1.195 0-1.195.981 0 .523.359.98.98.98.598 0 1.004-.359 1.004-1.054 0-1.242-.91-2.461-2.988-2.461-3.008 0-6.164 3.082-6.164 8.34 0 6.574 2.867 8.054 4.898 8.054 2.606 0 4.828-2.27 4.828-5.379 0-3.175-2.222-5.304-4.613-5.304-2.125 0-2.914 1.84-3.152 2.511zm2.937 8.172c-1.504 0-2.223-1.34-2.437-1.84-.215-.621-.453-1.793-.453-3.465 0-1.89.859-4.254 3.011-4.254 1.313 0 2.004.883 2.364 1.695.382.883.382 2.079.382 3.106 0 1.219 0 2.297-.453 3.203-.597 1.149-1.457 1.555-2.414 1.555m41.504-15.176c0-.55 0-.574-.477-.574-.574.648-1.769 1.531-4.23 1.531v.691c.551 0 1.742 0 3.059-.62v12.449c0 .863-.075 1.148-2.176 1.148h-.738v.691c.644-.046 2.96-.046 3.75-.046.789 0 3.082 0 3.726.046v-.691h-.738c-2.102 0-2.176-.285-2.176-1.148zm7.879 1.625a7 7 0 0 0 2.125.36c2.699 0 4.422-1.985 4.422-2.317 0-.098-.047-.219-.192-.219-.05 0-.097 0-.312.098a7.8 7.8 0 0 1-3.106.644c-1.578 0-2.699-.476-3.156-.668-.164-.074-.215-.074-.238-.074-.191 0-.191.145-.191.528v7.097c0 .43 0 .575.289.575.117 0 .14-.028.382-.313.668-.98 1.789-1.55 2.985-1.55 1.265 0 1.89 1.167 2.078 1.573.406.934.433 2.106.433 3.012s0 2.27-.671 3.344c-.524.863-1.457 1.46-2.508 1.46a3.694 3.694 0 0 1-3.559-2.82c.117.047.262.07.379.07.406 0 1.051-.238 1.051-1.05 0-.668-.453-1.05-1.051-1.05-.43 0-1.051.214-1.051 1.148 0 2.03 1.625 4.347 4.278 4.347 2.699 0 5.066-2.27 5.066-5.304 0-2.844-1.91-5.211-4.422-5.211-1.359 0-2.414.597-3.031 1.265z"/></g></svg>