<svg xmlns="http://www.w3.org/2000/svg" width="455pt" height="46pt" viewBox="0 -46 455 46"><g id="page1"><path fill="none" stroke="#000" stroke-linecap="round" stroke-linejoin="round" stroke-width=".5" d="M.25-45.61h45.356V-.253H.25zm45.356 0h45.351V-.253H45.606zm45.351 0h45.356V-.253H90.957zm45.356 0h45.355V-.253h-45.355zm45.355 0h45.352V-.253h-45.352zm45.352 0h45.355V-.253H227.02zm45.355 0h45.355V-.253h-45.355zm45.355 0h45.356V-.253H317.73zm45.356 0h45.352V-.253h-45.352zm45.352 0h45.355V-.253h-45.355z"/><path d="M23.695-29.5c0-.434-.02-.453-.312-.453-.805.969-2.024 1.281-3.18 1.32-.062 0-.164 0-.187.043-.02.04-.02.082-.02.516.64 0 1.715-.125 2.543-.621v10.886c0 .723-.043.973-1.82.973h-.617v.535c.992-.02 2.023-.039 3.015-.039s2.024.02 3.016.04v-.536h-.621c-1.778 0-1.817-.227-1.817-.973zm47.078 7.086c0 4.543-1.882 5.95-3.43 5.95-.476 0-1.632-.063-2.109-.868.54.082.93-.207.93-.723 0-.558-.453-.746-.742-.746-.188 0-.742.082-.742.785 0 1.407 1.218 2.047 2.703 2.047 2.375 0 4.793-2.601 4.793-7.148 0-5.66-2.313-6.836-3.883-6.836-2.047 0-4.008 1.797-4.008 4.562 0 2.563 1.672 4.465 3.781 4.465 1.735 0 2.5-1.613 2.707-2.293zm-2.667 1.156c-.56 0-1.34-.101-1.981-1.344-.437-.804-.437-1.753-.437-2.765 0-1.219 0-2.067.581-2.977.29-.433.825-1.136 2.024-1.136 2.438 0 2.438 3.738 2.438 4.566 0 1.469-.66 3.656-2.625 3.656m46.414-2.48c1.3-.66 2.621-1.653 2.621-3.242 0-1.88-1.817-2.973-3.489-2.973-1.879 0-3.535 1.363-3.535 3.242 0 .516.125 1.406.93 2.188.207.207 1.074.828 1.633 1.218-.93.477-3.098 1.614-3.098 3.887 0 2.125 2.023 3.45 4.027 3.45 2.211 0 4.071-1.59 4.071-3.7 0-1.879-1.262-2.746-2.086-3.305zm-2.707-1.817c-.165-.101-.993-.742-.993-1.715 0-1.261 1.301-2.21 2.789-2.21 1.633 0 2.832 1.156 2.832 2.5 0 1.921-2.148 3.015-2.253 3.015-.02 0-.04 0-.208-.12zm3.8 4.235c.309.226 1.301.91 1.301 2.172 0 1.527-1.527 2.683-3.262 2.683-1.879 0-3.308-1.344-3.308-2.976 0-1.63 1.261-2.997 2.687-3.633zm43.153-2.004c1.839 0 2.644 1.59 2.644 3.43 0 2.48-1.32 3.43-2.519 3.43-1.098 0-2.875-.54-3.43-2.13a.8.8 0 0 0 .309.043c.496 0 .867-.332.867-.867 0-.602-.453-.871-.867-.871-.352 0-.887.168-.887.93 0 1.902 1.859 3.39 4.047 3.39 2.293 0 4.05-1.797 4.05-3.906 0-2.004-1.652-3.45-3.617-3.676 1.571-.332 3.078-1.734 3.078-3.613 0-1.613-1.628-2.79-3.488-2.79-1.883 0-3.535 1.157-3.535 2.81 0 .722.539.847.809.847.429 0 .804-.27.804-.808 0-.536-.375-.805-.804-.805-.086 0-.188 0-.27.043.598-1.363 2.231-1.613 2.953-1.613.723 0 2.086.351 2.086 2.335 0 .579-.082 1.61-.785 2.52-.617.805-1.32.848-2.004.91-.102 0-.578.04-.66.04-.145.019-.227.042-.227.187s.02.164.434.164zm47.773-6.34c0-.438-.019-.457-.391-.457l-6.136 9.773v.535h5.332v2.024c0 .746-.043.953-1.489.953h-.39v.535c.656-.039 1.773-.039 2.476-.039s1.817 0 2.481.04v-.536h-.395c-1.445 0-1.488-.207-1.488-.953v-2.023h2.109v-.536h-2.109zm-1.133 1.363v7.953h-4.98zm46.535-1.363c0-.438-.019-.457-.394-.457l-6.133 9.773v.535h5.328v2.024c0 .746-.039.953-1.484.953h-.395v.535c.66-.039 1.778-.039 2.481-.039.699 0 1.816 0 2.476.04v-.536h-.39c-1.446 0-1.489-.207-1.489-.953v-2.023h2.106v-.536h-2.106zm-1.136 1.363v7.953h-4.977zm46.437-1.363c0-.438-.023-.457-.394-.457l-6.133 9.773v.535h5.328v2.024c0 .746-.039.953-1.488.953h-.391v.535c.66-.039 1.774-.039 2.477-.039s1.82 0 2.48.04v-.536h-.394c-1.446 0-1.485-.207-1.485-.953v-2.023h2.106v-.536h-2.106zm-1.137 1.363v7.953h-4.976zm46.536-1.363c0-.438-.02-.457-.395-.457l-6.133 9.773v.535h5.328v2.024c0 .746-.039.953-1.484.953h-.394v.535c.66-.039 1.777-.039 2.48-.039.699 0 1.816 0 2.477.04v-.536h-.391c-1.445 0-1.488-.207-1.488-.953v-2.023h2.105v-.536h-2.105zm-1.137 1.363v7.953h-4.977zm44.992-1.199c0-.434-.019-.453-.312-.453-.805.969-2.024 1.281-3.18 1.32-.063 0-.164 0-.188.043-.019.04-.019.082-.019.516.641 0 1.715-.125 2.543-.621v10.886c0 .723-.043.973-1.82.973h-.622v.535c.993-.02 2.028-.039 3.02-.039.988 0 2.023.02 3.016.04v-.536h-.621c-1.778 0-1.817-.227-1.817-.973zm49.223.328v-.453h-4.856c-2.418 0-2.461-.266-2.543-.66h-.371l-.597 3.863h.371c.062-.39.207-1.445.453-1.84.125-.164 1.652-.164 2.004-.164h4.547l-2.293 3.41c-1.532 2.29-2.582 5.391-2.582 8.094 0 .25 0 .953.742.953.746 0 .746-.703.746-.972v-.95c0-3.386.578-5.617 1.527-7.043z"/></g></svg>