<svg xmlns="http://www.w3.org/2000/svg" width="379pt" height="22pt" viewBox="0 -22 379 22"><g id="page1"><path fill="#bfbfff" d="M.75-.754h19.844v-19.844H.75Z"/><path fill="none" stroke="#000" stroke-linecap="round" stroke-linejoin="round" stroke-width="1.5" d="M.75-.754v-19.84h19.844v19.84z"/><path fill="none" stroke="#00f" stroke-linecap="round" stroke-linejoin="round" stroke-width="1.5" d="M.75-.754v-19.84h19.844v19.84z"/><path fill="#ffbfbf" d="M44.402-10.676c0-5.476-4.441-9.918-9.922-9.918-5.476 0-9.917 4.442-9.917 9.918 0 5.48 4.44 9.922 9.918 9.922a9.92 9.92 0 0 0 9.921-9.922"/><path fill="none" stroke="#000" stroke-linecap="round" stroke-linejoin="round" stroke-width="1.5" d="M44.402-10.676c0-5.476-4.441-9.918-9.922-9.918-5.476 0-9.917 4.442-9.917 9.918 0 5.48 4.44 9.922 9.918 9.922a9.92 9.92 0 0 0 9.921-9.922"/><path fill="none" stroke="#ff4040" stroke-linecap="round" stroke-linejoin="round" stroke-width="1.5" d="M44.402-10.676c0-5.476-4.441-9.918-9.922-9.918-5.476 0-9.917 4.442-9.917 9.918 0 5.48 4.44 9.922 9.918 9.922a9.92 9.92 0 0 0 9.921-9.922"/><path fill="#bfbfff" d="M48.371-.754h19.844v-19.844H48.37Z"/><path fill="none" stroke="#000" stroke-linecap="round" stroke-linejoin="round" stroke-width="1.5" d="M48.371-.754v-19.84h19.844v19.84z"/><path fill="none" stroke="#00f" stroke-linecap="round" stroke-linejoin="round" stroke-width="1.5" d="M48.371-.754v-19.84h19.844v19.84z"/><path fill="#bfbfff" d="M72.184-.754h19.843v-19.844H72.184Z"/><path fill="none" stroke="#000" stroke-linecap="round" stroke-linejoin="round" stroke-width="1.5" d="M72.184-.754v-19.84h19.843v19.84z"/><path fill="none" stroke="#00f" stroke-linecap="round" stroke-linejoin="round" stroke-width="1.5" d="M72.184-.754v-19.84h19.843v19.84z"/><path fill="#ffbfbf" d="M115.836-10.676c0-5.476-4.441-9.918-9.922-9.918-5.476 0-9.922 4.442-9.922 9.918 0 5.48 4.446 9.922 9.922 9.922a9.92 9.92 0 0 0 9.922-9.922"/><path fill="none" stroke="#000" stroke-linecap="round" stroke-linejoin="round" stroke-width="1.5" d="M115.836-10.676c0-5.476-4.441-9.918-9.922-9.918-5.476 0-9.922 4.442-9.922 9.918 0 5.48 4.446 9.922 9.922 9.922a9.92 9.92 0 0 0 9.922-9.922"/><path fill="none" stroke="#ff4040" stroke-linecap="round" stroke-linejoin="round" stroke-width="1.5" d="M115.836-10.676c0-5.476-4.441-9.918-9.922-9.918-5.476 0-9.922 4.442-9.922 9.918 0 5.48 4.446 9.922 9.922 9.922a9.92 9.92 0 0 0 9.922-9.922"/><path fill="#bfbfff" d="M119.805-.754h19.843v-19.844h-19.843Z"/><path fill="none" stroke="#000" stroke-linecap="round" stroke-linejoin="round" stroke-width="1.5" d="M119.805-.754v-19.84h19.843v19.84z"/><path fill="none" stroke="#00f" stroke-linecap="round" stroke-linejoin="round" stroke-width="1.5" d="M119.805-.754v-19.84h19.843v19.84z"/><path fill="#ffbfbf" d="M163.461-10.676c0-5.476-4.445-9.918-9.922-9.918-5.48 0-9.922 4.442-9.922 9.918 0 5.48 4.442 9.922 9.922 9.922 5.477 0 9.922-4.441 9.922-9.922"/><path fill="none" stroke="#000" stroke-linecap="round" stroke-linejoin="round" stroke-width="1.5" d="M163.461-10.676c0-5.476-4.445-9.918-9.922-9.918-5.48 0-9.922 4.442-9.922 9.918 0 5.48 4.442 9.922 9.922 9.922 5.477 0 9.922-4.441 9.922-9.922"/><path fill="none" stroke="#ff4040" stroke-linecap="round" stroke-linejoin="round" stroke-width="1.5" d="M163.461-10.676c0-5.476-4.445-9.918-9.922-9.918-5.48 0-9.922 4.442-9.922 9.918 0 5.48 4.442 9.922 9.922 9.922 5.477 0 9.922-4.441 9.922-9.922"/><path fill="#bfbfff" d="M167.426-.754h19.844v-19.844h-19.844Z"/><path fill="none" stroke="#000" stroke-linecap="round" stroke-linejoin="round" stroke-width="1.5" d="M167.426-.754v-19.84h19.844v19.84z"/><path fill="none" stroke="#00f" stroke-linecap="round" stroke-linejoin="round" stroke-width="1.5" d="M167.426-.754v-19.84h19.844v19.84z"/><path fill="#ffbfbf" d="M211.082-10.676c0-5.476-4.441-9.918-9.922-9.918-5.48 0-9.922 4.442-9.922 9.918 0 5.48 4.442 9.922 9.922 9.922a9.92 9.92 0 0 0 9.922-9.922"/><path fill="none" stroke="#000" stroke-linecap="round" stroke-linejoin="round" stroke-width="1.5" d="M211.082-10.676c0-5.476-4.441-9.918-9.922-9.918-5.48 0-9.922 4.442-9.922 9.918 0 5.48 4.442 9.922 9.922 9.922a9.92 9.92 0 0 0 9.922-9.922"/><path fill="none" stroke="#ff4040" stroke-linecap="round" stroke-linejoin="round" stroke-width="1.5" d="M211.082-10.676c0-5.476-4.441-9.918-9.922-9.918-5.48 0-9.922 4.442-9.922 9.918 0 5.48 4.442 9.922 9.922 9.922a9.92 9.92 0 0 0 9.922-9.922"/><path fill="#bfbfff" d="M215.051-.754h19.84v-19.844h-19.84Z"/><path fill="none" stroke="#000" stroke-linecap="round" stroke-linejoin="round" stroke-width="1.5" d="M215.051-.754v-19.84h19.84v19.84z"/><path fill="none" stroke="#00f" stroke-linecap="round" stroke-linejoin="round" stroke-width="1.5" d="M215.051-.754v-19.84h19.84v19.84z"/><path fill="#ffbfbf" d="M258.703-10.676c0-5.476-4.441-9.918-9.922-9.918-5.48 0-9.922 4.442-9.922 9.918 0 5.48 4.442 9.922 9.922 9.922a9.92 9.92 0 0 0 9.922-9.922"/><path fill="none" stroke="#000" stroke-linecap="round" stroke-linejoin="round" stroke-width="1.5" d="M258.703-10.676c0-5.476-4.441-9.918-9.922-9.918-5.48 0-9.922 4.442-9.922 9.918 0 5.48 4.442 9.922 9.922 9.922a9.92 9.92 0 0 0 9.922-9.922"/><path fill="none" stroke="#ff4040" stroke-linecap="round" stroke-linejoin="round" stroke-width="1.5" d="M258.703-10.676c0-5.476-4.441-9.918-9.922-9.918-5.48 0-9.922 4.442-9.922 9.918 0 5.48 4.442 9.922 9.922 9.922a9.92 9.92 0 0 0 9.922-9.922"/><path fill="#bfbfff" d="M262.672-.754h19.844v-19.844h-19.844Z"/><path fill="none" stroke="#000" stroke-linecap="round" stroke-linejoin="round" stroke-width="1.5" d="M262.672-.754v-19.84h19.844v19.84z"/><path fill="none" stroke="#00f" stroke-linecap="round" stroke-linejoin="round" stroke-width="1.5" d="M262.672-.754v-19.84h19.844v19.84z"/><path fill="#bfbfff" d="M286.48-.754h19.844v-19.844H286.48Z"/><path fill="none" stroke="#000" stroke-linecap="round" stroke-linejoin="round" stroke-width="1.5" d="M286.48-.754v-19.84h19.844v19.84z"/><path fill="none" stroke="#00f" stroke-linecap="round" stroke-linejoin="round" stroke-width="1.5" d="M286.48-.754v-19.84h19.844v19.84z"/><path fill="#bfbfff" d="M310.293-.754h19.844v-19.844h-19.844Z"/><path fill="none" stroke="#000" stroke-linecap="round" stroke-linejoin="round" stroke-width="1.5" d="M310.293-.754v-19.84h19.844v19.84z"/><path fill="none" stroke="#00f" stroke-linecap="round" stroke-linejoin="round" stroke-width="1.5" d="M310.293-.754v-19.84h19.844v19.84z"/><path fill="#ffbfbf" d="M353.945-10.676c0-5.476-4.441-9.918-9.918-9.918-5.48 0-9.922 4.442-9.922 9.918 0 5.48 4.442 9.922 9.922 9.922 5.477 0 9.918-4.441 9.918-9.922"/><path fill="none" stroke="#000" stroke-linecap="round" stroke-linejoin="round" stroke-width="1.5" d="M353.945-10.676c0-5.476-4.441-9.918-9.918-9.918-5.48 0-9.922 4.442-9.922 9.918 0 5.48 4.442 9.922 9.922 9.922 5.477 0 9.918-4.441 9.918-9.922"/><path fill="none" stroke="#ff4040" stroke-linecap="round" stroke-linejoin="round" stroke-width="1.5" d="M353.945-10.676c0-5.476-4.441-9.918-9.918-9.918-5.48 0-9.922 4.442-9.922 9.918 0 5.48 4.442 9.922 9.922 9.922 5.477 0 9.918-4.441 9.918-9.922"/><path fill="#bfbfff" d="M357.914-.754h19.844v-19.844h-19.844Z"/><path fill="none" stroke="#000" stroke-linecap="round" stroke-linejoin="round" stroke-width="1.5" d="M357.914-.754v-19.84h19.844v19.84z"/><path fill="none" stroke="#00f" stroke-linecap="round" stroke-linejoin="round" stroke-width="1.5" d="M357.914-.754v-19.84h19.844v19.84z"/><path d="M11.14-14.46c0-.274 0-.286-.238-.286-.285.324-.882.766-2.113.766v.347c.274 0 .871 0 1.527-.312v6.226c0 .43-.035.57-1.086.57h-.37v.348c.32-.023 1.48-.023 1.874-.023s1.543 0 1.864.023v-.347h-.371c-1.051 0-1.086-.141-1.086-.57zm22.72 5.651h-.266c-.035.204-.133.864-.25 1.051-.086.11-.766.11-1.125.11h-2.211c.324-.274 1.055-1.04 1.363-1.329 1.817-1.671 2.488-2.293 2.488-3.476 0-1.371-1.09-2.293-2.476-2.293-1.383 0-2.195 1.184-2.195 2.21 0 .61.523.61.558.61.254 0 .563-.18.563-.562 0-.332-.227-.559-.563-.559-.105 0-.129 0-.168.008.227-.813.875-1.36 1.649-1.36 1.015 0 1.64.848 1.64 1.946 0 1.015-.586 1.902-1.27 2.664l-2.41 2.703v.285h4.36zm5.992-1.816c0-.992-.059-1.957-.489-2.867-.488-.992-1.351-1.254-1.933-1.254-.696 0-1.543.348-1.985 1.34-.336.75-.453 1.492-.453 2.781 0 1.16.082 2.031.512 2.883a2.13 2.13 0 0 0 1.91 1.195c1.04 0 1.637-.625 1.984-1.316.43-.895.454-2.067.454-2.762m-2.438 3.836c-.383 0-1.156-.215-1.383-1.516-.133-.718-.133-1.625-.133-2.46 0-.981 0-1.868.192-2.57.203-.802.812-1.173 1.324-1.173.453 0 1.148.277 1.375 1.305.156.68.156 1.625.156 2.437 0 .801 0 1.707-.133 2.438-.226 1.312-.98 1.539-1.398 1.539m22.301-7.789c0-.227 0-.29-.168-.29-.098 0-.133 0-.227.145L55.723-9.14v.344h3.144v1.09c0 .441-.027.559-.898.559h-.239v.347c.274-.023 1.22-.023 1.551-.023.336 0 1.293 0 1.567.023v-.347h-.239c-.859 0-.894-.118-.894-.559v-1.09h1.207v-.344h-1.207zm-.79.93v4.507h-2.902zm20.817-.812c0-.274 0-.286-.242-.286-.285.324-.883.766-2.113.766v.347c.277 0 .87 0 1.531-.312v6.226c0 .43-.035.57-1.09.57h-.367v.348c.32-.023 1.48-.023 1.875-.023s1.539 0 1.863.023v-.347h-.37c-1.052 0-1.087-.141-1.087-.57zm5.798 0c0-.274 0-.286-.24-.286-.284.324-.882.766-2.112.766v.347c.273 0 .87 0 1.53-.312v6.226c0 .43-.038.57-1.09.57h-.37v.348c.324-.023 1.484-.023 1.875-.023.398 0 1.543 0 1.867.023v-.347h-.371c-1.05 0-1.09-.141-1.09-.57zm21.831 4.183c0 2.82-1.254 3.406-1.969 3.406-.285 0-.922-.035-1.218-.453h.07c.086.023.516-.051.516-.492a.47.47 0 0 0-.493-.489c-.308 0-.5.203-.5.512 0 .742.594 1.246 1.637 1.246 1.492 0 2.938-1.59 2.938-4.183 0-3.215-1.336-4.016-2.387-4.016-1.317 0-2.473 1.098-2.473 2.676s1.11 2.652 2.305 2.652c.883 0 1.336-.645 1.574-1.254zm-1.527.62c-.754 0-1.074-.609-1.184-.835-.191-.453-.191-1.027-.191-1.567 0-.668 0-1.242.312-1.73.215-.324.539-.672 1.184-.672.68 0 1.027.602 1.144.875.239.586.239 1.602.239 1.781 0 1-.453 2.149-1.504 2.149m21.496-4.804c0-.274 0-.286-.238-.286-.286.324-.883.766-2.114.766v.347c.274 0 .871 0 1.528-.312v6.226c0 .43-.036.57-1.086.57h-.371v.348c.324-.023 1.48-.023 1.875-.023.394 0 1.543 0 1.863.023v-.347h-.367c-1.051 0-1.09-.141-1.09-.57zm5.922 3.347c.597-.325 1.468-.871 1.468-1.875 0-1.04-1.003-1.758-2.101-1.758-1.184 0-2.117.871-2.117 1.96 0 .407.121.813.457 1.22.129.152.14.168.976.754-1.156.535-1.754 1.335-1.754 2.207 0 1.27 1.207 2.058 2.426 2.058 1.324 0 2.438-.98 2.438-2.234 0-1.219-.864-1.758-1.793-2.332m-1.625-1.075c-.157-.109-.633-.417-.633-1.003 0-.778.812-1.27 1.613-1.27.86 0 1.625.625 1.625 1.484 0 .727-.527 1.313-1.219 1.696zm.558 1.54 1.446.945c.312.203.863.574.863 1.3 0 .91-.922 1.532-1.875 1.532-1.016 0-1.891-.742-1.891-1.734 0-.93.684-1.684 1.457-2.043m18.946-3.812c0-.274 0-.286-.239-.286-.285.324-.882.766-2.113.766v.347c.274 0 .871 0 1.527-.312v6.226c0 .43-.035.57-1.086.57h-.371v.348c.321-.023 1.481-.023 1.875-.023.395 0 1.543 0 1.864.023v-.347h-.371c-1.051 0-1.086-.141-1.086-.57zm7.617 5.651h-.266c-.035.204-.129.864-.25 1.051-.082.11-.765.11-1.121.11h-2.211c.324-.274 1.051-1.04 1.363-1.329 1.817-1.671 2.485-2.293 2.485-3.476 0-1.371-1.086-2.293-2.473-2.293s-2.199 1.184-2.199 2.21c0 .61.523.61.562.61.25 0 .563-.18.563-.562 0-.332-.231-.559-.563-.559-.109 0-.132 0-.168.008.227-.813.872-1.36 1.649-1.36 1.016 0 1.637.848 1.637 1.946 0 1.015-.586 1.902-1.27 2.664l-2.41 2.703v.285h4.359zm20.015-1.468c0 2.82-1.253 3.406-1.972 3.406-.285 0-.918-.035-1.219-.453h.074c.082.023.512-.051.512-.492a.47.47 0 0 0-.488-.489c-.313 0-.504.203-.504.512 0 .742.597 1.246 1.637 1.246 1.496 0 2.941-1.59 2.941-4.183 0-3.215-1.34-4.016-2.391-4.016-1.316 0-2.472 1.098-2.472 2.676s1.113 2.652 2.304 2.652c.883 0 1.34-.645 1.578-1.254zm-1.531.62c-.75 0-1.074-.609-1.179-.835-.192-.453-.192-1.027-.192-1.567 0-.668 0-1.242.309-1.73.215-.324.539-.672 1.183-.672.68 0 1.028.602 1.149.875.234.586.234 1.602.234 1.781 0 1-.449 2.149-1.504 2.149m21.5-4.804c0-.274 0-.286-.238-.286-.289.324-.887.766-2.117.766v.347c.277 0 .871 0 1.531-.312v6.226c0 .43-.035.57-1.09.57h-.367v.348c.32-.023 1.48-.023 1.875-.023.394 0 1.543 0 1.863.023v-.347h-.371c-1.051 0-1.086-.141-1.086-.57zm7.813 3.835c0-.992-.063-1.957-.492-2.867-.489-.992-1.348-1.254-1.934-1.254-.695 0-1.543.348-1.984 1.34-.336.75-.454 1.492-.454 2.781 0 1.16.082 2.031.512 2.883a2.13 2.13 0 0 0 1.914 1.195c1.039 0 1.637-.625 1.981-1.316.433-.895.457-2.067.457-2.762m-2.438 3.836c-.383 0-1.16-.215-1.387-1.516-.132-.718-.132-1.625-.132-2.46 0-.981 0-1.868.191-2.57.203-.802.813-1.173 1.328-1.173.453 0 1.145.277 1.371 1.305.157.68.157 1.625.157 2.437 0 .801 0 1.707-.129 2.438-.231 1.312-.985 1.539-1.399 1.539m18.422-7.671c0-.274 0-.286-.238-.286-.285.324-.883.766-2.113.766v.347c.277 0 .871 0 1.531-.312v6.226c0 .43-.039.57-1.09.57h-.371v.348c.324-.023 1.484-.023 1.875-.023.398 0 1.543 0 1.863.023v-.347h-.367c-1.051 0-1.09-.141-1.09-.57zm5.902 0c0-.274 0-.286-.238-.286-.289.324-.883.766-2.113.766v.347c.273 0 .871 0 1.527-.312v6.226c0 .43-.035.57-1.086.57h-.371v.348c.32-.023 1.481-.023 1.875-.023.395 0 1.543 0 1.863.023v-.347h-.371c-1.05 0-1.086-.141-1.086-.57zm21.02 3.347c.598-.325 1.469-.871 1.469-1.875 0-1.04-1.004-1.758-2.102-1.758-1.183 0-2.113.871-2.113 1.96 0 .407.117.813.453 1.22.129.152.141.168.98.754-1.16.535-1.757 1.335-1.757 2.207 0 1.27 1.207 2.058 2.425 2.058 1.325 0 2.438-.98 2.438-2.234 0-1.219-.863-1.758-1.793-2.332m-1.625-1.075c-.156-.109-.633-.417-.633-1.003 0-.778.813-1.27 1.613-1.27.86 0 1.625.625 1.625 1.484 0 .727-.527 1.313-1.218 1.696zm.562 1.54 1.446.945c.308.203.859.574.859 1.3 0 .91-.922 1.532-1.875 1.532-1.015 0-1.89-.742-1.89-1.734 0-.93.683-1.684 1.46-2.043m26.559 1.839h-.262c-.039.204-.132.864-.25 1.051-.086.11-.765.11-1.125.11h-2.211c.325-.274 1.051-1.04 1.364-1.329 1.816-1.671 2.484-2.293 2.484-3.476 0-1.371-1.086-2.293-2.473-2.293s-2.199 1.184-2.199 2.21c0 .61.528.61.563.61.25 0 .562-.18.562-.562 0-.332-.23-.559-.562-.559-.11 0-.133 0-.168.008.226-.813.871-1.36 1.648-1.36 1.016 0 1.637.848 1.637 1.946 0 1.015-.586 1.902-1.266 2.664l-2.414 2.703v.285h4.363zm20.742-2.281c-.203.012-.254.024-.254.133 0 .117.063.117.278.117h.55c1.016 0 1.469.84 1.469 1.985 0 1.566-.812 1.984-1.398 1.984-.574 0-1.555-.277-1.899-1.063.383.059.727-.156.727-.586a.563.563 0 0 0-.582-.585c-.289 0-.598.168-.598.62 0 1.063 1.063 1.938 2.387 1.938 1.422 0 2.473-1.09 2.473-2.297 0-1.097-.883-1.96-2.032-2.164 1.039-.297 1.711-1.168 1.711-2.101 0-.946-.98-1.637-2.14-1.637-1.196 0-2.078.73-2.078 1.601 0 .477.371.575.55.575.25 0 .535-.18.535-.54 0-.382-.285-.546-.546-.546-.075 0-.098 0-.133.008.453-.813 1.578-.813 1.636-.813.395 0 1.172.18 1.172 1.352 0 .226-.035.898-.382 1.41-.36.527-.766.562-1.09.574zm22.141-3.37c0-.274 0-.286-.238-.286-.286.324-.883.766-2.114.766v.347c.274 0 .871 0 1.528-.312v6.226c0 .43-.036.57-1.086.57h-.371v.348c.324-.023 1.48-.023 1.875-.023.394 0 1.543 0 1.863.023v-.347h-.367c-1.051 0-1.09-.141-1.09-.57zm8.035.241v-.277h-2.879c-1.445 0-1.469-.152-1.519-.379h-.262l-.371 2.387h.265c.036-.215.145-.957.297-1.086.098-.074.992-.074 1.16-.074h2.532l-1.266 1.82c-.324.465-1.527 2.422-1.527 4.672 0 .129 0 .61.488.61.504 0 .504-.47.504-.626v-.594c0-1.78.285-3.168.844-3.968zm15.766-.241c0-.274 0-.286-.239-.286-.285.324-.882.766-2.113.766v.347c.274 0 .871 0 1.527-.312v6.226c0 .43-.035.57-1.086.57h-.371v.348c.321-.023 1.481-.023 1.875-.023.395 0 1.543 0 1.864.023v-.347h-.371c-1.051 0-1.086-.141-1.086-.57zm3.89.812c.512.168.93.18 1.063.18 1.347 0 2.211-.993 2.211-1.157 0-.047-.024-.11-.098-.11-.023 0-.047 0-.156.047a3.87 3.87 0 0 1-3.129-.012c-.082-.034-.109-.034-.117-.034-.098 0-.098.07-.098.265v3.547c0 .215 0 .285.145.285.058 0 .07-.011.187-.152a1.81 1.81 0 0 1 1.496-.777c.633 0 .942.586 1.039.789.203.464.215 1.05.215 1.504s0 1.136-.336 1.671c-.262.43-.726.73-1.254.73a1.84 1.84 0 0 1-1.777-1.41.5.5 0 0 0 .187.036c.204 0 .528-.121.528-.527 0-.332-.227-.524-.528-.524-.211 0-.523.11-.523.574 0 1.016.812 2.176 2.141 2.176 1.347 0 2.531-1.137 2.531-2.656 0-1.422-.957-2.602-2.211-2.602-.68 0-1.207.297-1.516.633zm19.91-.812c0-.274 0-.286-.238-.286-.289.324-.883.766-2.113.766v.347c.273 0 .871 0 1.527-.312v6.226c0 .43-.035.57-1.086.57h-.371v.348c.32-.023 1.481-.023 1.875-.023.395 0 1.543 0 1.863.023v-.347h-.371c-1.05 0-1.086-.141-1.086-.57zm4.555 3.37c-.199.012-.25.024-.25.133 0 .117.063.117.277.117h.547c1.02 0 1.473.84 1.473 1.985 0 1.566-.813 1.984-1.398 1.984-.575 0-1.555-.277-1.903-1.063.387.059.731-.156.731-.586a.564.564 0 0 0-.586-.585c-.285 0-.598.168-.598.62 0 1.063 1.063 1.938 2.391 1.938 1.422 0 2.472-1.09 2.472-2.297 0-1.097-.882-1.96-2.031-2.164 1.039-.297 1.707-1.168 1.707-2.101 0-.946-.976-1.637-2.137-1.637-1.195 0-2.078.73-2.078 1.601 0 .477.371.575.551.575.25 0 .535-.18.535-.54 0-.382-.285-.546-.551-.546-.07 0-.093 0-.128.008.453-.813 1.574-.813 1.636-.813.395 0 1.172.18 1.172 1.352 0 .226-.039.898-.383 1.41-.359.527-.765.562-1.09.574z"/></g></svg>