<svg xmlns="http://www.w3.org/2000/svg" width="904pt" height="596" viewBox="0 -447 904 447"><g id="page1" transform="scale(1 -1)"><path fill="#cc9c6f" d="M143.008 392.828a7150 7150 0 0 1 617.555-86.793l2.367 16.844a7141 7141 0 0 1-307.832 50.133 7144 7144 0 0 1-309.723 36.66z"/><path fill="none" stroke="#000" stroke-linecap="round" stroke-linejoin="round" stroke-width="2" d="M143.008 392.828a7150 7150 0 0 1 617.555-86.793l2.367 16.844a7141 7141 0 0 1-307.832 50.133 7144 7144 0 0 1-309.723 36.66z"/><path fill="#fff" d="M176.746 397.387a5.668 5.668 0 1 1-11.336 0 5.667 5.667 0 1 1 11.336 0"/><path fill="none" stroke="#000" stroke-linecap="round" stroke-linejoin="round" stroke-width="2" d="M176.746 397.387a5.668 5.668 0 1 1-11.336 0 5.667 5.667 0 1 1 11.336 0"/><path fill="#fff" d="M738.16 318.484a5.67 5.67 0 1 1-11.341.003 5.67 5.67 0 0 1 11.341-.003"/><path fill="none" stroke="#000" stroke-linecap="round" stroke-linejoin="round" stroke-width="2" d="M738.16 318.484a5.67 5.67 0 1 1-11.341.003 5.67 5.67 0 0 1 11.341-.003"/><path fill="#d3ae37" d="M341.156 150.773c0 15.657-76.144 28.348-170.078 28.348C77.148 179.121 1 166.43 1 150.773s76.148-28.347 170.078-28.347c93.934 0 170.078 12.691 170.078 28.347"/><path fill="none" stroke="#000" stroke-linecap="round" stroke-linejoin="round" stroke-width="2" d="M341.156 150.773c0 15.657-76.144 28.348-170.078 28.348C77.148 179.121 1 166.43 1 150.773s76.148-28.347 170.078-28.347c93.934 0 170.078 12.691 170.078 28.347M171.078 377.547l161.41-217.813m-161.41 217.813L117.32 177.676m53.758 199.871L19.984 137.746m151.094 239.801v19.84"/><path fill="#865b52" d="M66.313 132.559c-.797 7.933 2.628 16.105 8.769 21.129a40.5 40.5 0 0 0 7.414 4.343c1.313.559 2.668 1.039 3.824 1.914 3.59 2.59 6.262 6.18 9.45 9.207 3.187 3.192 6.894 5.981 11.199 7.575 5.304 2.035 11.242 2.671 16.785 1.199 4.902-1.399 9.086-4.867 11.637-9.211 2.91-4.942 3.589-10.883 3.113-16.5a14.8 14.8 0 0 0-1.598-6.102c-2.429-4.824-6.179-8.847-10.004-12.554-6.855-6.5-14.468-12.161-22.484-17.145-3.188-1.871-6.418-3.785-9.965-5.019-1.871-.68-3.867-.282-5.781.039-5.418 1.195-10.602 3.629-14.867 7.214-3.786 3.231-6.578 7.696-7.336 12.676-.078.399-.117.836-.156 1.235"/><path fill="#513531" d="M107.926 135.91c-2.113-1.437-4.024-3.109-6.098-4.547-4.984-3.586-10.562-6.656-16.703-7.574-3.309-.476-6.695-.238-9.965.481-3.027.757-6.219 2.152-8.012 4.863-.238.316-.558 1.273-.32.359 1.356-5.66 4.227-11.082 8.613-15.027 4.262-3.828 9.922-6.02 15.665-6.18 4.105-.199 8.132.598 12.039 1.754 4.863 1.555 9.246 4.227 13.75 6.574 6.101 3.391 12 7.336 16.585 12.641 2.829 3.226 4.743 7.215 6.098 11.277 1.953 5.703 2.313 11.961.676 17.782-1.074 3.867-2.867 7.574-5.102 10.921-.875 1.317-1.793 2.59-2.949 3.668.797-4.945.957-10.047.16-14.988-.597-3.59-1.875-7.098-4.226-9.926-3.309-4.304-7.692-7.972-12.836-9.808-2.192-.875-4.543-1.196-6.778-1.992a4.4 4.4 0 0 1-.597-.278"/><path fill="#30201d" d="M103.305 123.152c.554-.875 1.91-.558 2.828-.597 1.676.082 3.347.359 4.984.636.996.043 1.754 1.118.797 1.836-1.078 1.196-2.473 2.231-4.066 2.512-.996.117-1.793-.719-2.512-1.355-.797-.84-1.715-1.754-2.031-2.911zm14.547-1.515c.718-.516 1.636.203 2.234.597.836.719 1.434 1.754 1.555 2.871-.161.918-1.516.719-2.196.52-1.351-.437-1.91-2.074-1.793-3.391.039-.199.082-.437.2-.597m19.093 38.187c-.797.797-1.394-.875-1.672-1.472-.398-.836-.437-2.075.516-2.59.758-.602 2.074-.282 2.152.797.122 1.156-.476 2.269-.996 3.265m-54.929-42.851c-.559-1.035.68-1.832 1.437-2.313.797-.355 1.793-.637 2.59-.195.559.754-.52 1.473-.996 1.992-.68.598-1.555 1.434-2.512.996a1.2 1.2 0 0 1-.52-.48"/><path fill="#513531" d="M74.762 131.203c-.598-.637-.36-1.633-.278-2.39-.043-.997.676-1.512 1.633-1.395.797 0 2.23-.199 2.39.879-.238 1.113-1.195 1.953-2.03 2.668-.48.359-1.196.64-1.715.238m5.538 5.582c.481-.758 1.516-.515 2.075.039.719.602 1.356 1.836.637 2.711-.797.719-1.953 0-2.469-.715-.36-.597-.68-1.394-.242-2.035M92.7 161.578c-.958.52-1.716-.437-1.993-1.273-.398-1.157-1.277-2.114-1.516-3.309.2-.957 1.594-.598 2.313-.558.797.082 1.793.437 1.953 1.355.277 1.156.36 2.473-.36 3.469-.078.16-.238.238-.398.316"/><path fill="#c3ada8" d="M71.453 134.156c.957-.32 1.793.559 2.434 1.196 1.632 1.671 2.707 3.785 4.382 5.421 2.352 2.313 5.063 4.262 7.973 5.821 3.586 1.871 7.614 2.469 11.52 3.386 2.035.477 4.144 1.278 5.582 2.911 3.148 3.347 4.703 7.812 7.453 11.48 1.637 2.192 4.105 3.785 6.855 4.027 1.399.2 2.832-.082 4.188.317 1.074.359 1.156 1.836.758 2.75-.879 1.797-2.871 2.672-4.703 3.109-4.028.879-8.375-.039-11.641-2.551-2.949-2.152-5.024-5.222-6.856-8.332-1.597-2.468-2.992-5.101-5.062-7.214-1.438-1.434-3.352-2.114-5.262-2.668-4.11-1.317-8.093-3.231-11.324-6.141-2.152-1.832-4.023-4.027-5.34-6.535-.879-1.754-1.793-3.59-1.754-5.582 0-.559.238-1.156.797-1.395"/><path fill="#513531" d="M115.461 162.617c.32-1.715 2.074-2.633 3.629-2.988 1.273-.359 2.906-.043 3.508 1.273.398.875-.399 1.676-1.118 1.993-.996.48-2.113.718-2.949 1.515-.597.637-1.636.836-2.351.238-.602-.476-.758-1.312-.719-2.031"/><path fill="#865b52" d="M149.906 132.559c-.797 7.933 2.633 16.105 8.774 21.129a40.3 40.3 0 0 0 7.414 4.343c1.312.559 2.668 1.039 3.824 1.914 3.59 2.59 6.258 6.18 9.449 9.207 3.188 3.192 6.895 5.981 11.199 7.575 5.301 2.035 11.243 2.671 16.782 1.199 4.906-1.399 9.09-4.867 11.64-9.211 2.91-4.942 3.59-10.883 3.11-16.5a14.7 14.7 0 0 0-1.594-6.102c-2.434-4.824-6.18-8.847-10.008-12.554-6.855-6.5-14.469-12.161-22.48-17.145-3.188-1.871-6.418-3.785-9.965-5.019-1.875-.68-3.867-.282-5.781.039-5.422 1.195-10.602 3.629-14.868 7.214-3.789 3.231-6.578 7.696-7.336 12.676-.078.399-.117.836-.16 1.235"/><path fill="#513531" d="M191.523 135.91c-2.113-1.437-4.027-3.109-6.097-4.547-4.985-3.586-10.563-6.656-16.703-7.574-3.309-.476-6.696-.238-9.965.481-3.031.757-6.219 2.152-8.012 4.863-.238.316-.558 1.273-.32.359 1.355-5.66 4.226-11.082 8.609-15.027 4.266-3.828 9.926-6.02 15.668-6.18 4.106-.199 8.133.598 12.039 1.754 4.863 1.555 9.246 4.227 13.75 6.574 6.102 3.391 12 7.336 16.582 12.641 2.832 3.226 4.746 7.215 6.102 11.277 1.953 5.703 2.312 11.961.676 17.782-1.075 3.867-2.872 7.574-5.102 10.921-.879 1.317-1.793 2.59-2.949 3.668.797-4.945.957-10.047.16-14.988-.598-3.59-1.875-7.098-4.227-9.926-3.308-4.304-7.695-7.972-12.836-9.808-2.191-.875-4.543-1.196-6.777-1.992a4 4 0 0 1-.598-.278"/><path fill="#30201d" d="M186.898 123.152c.559-.875 1.915-.558 2.832-.597 1.672.082 3.348.359 4.985.636.996.043 1.754 1.118.797 1.836-1.078 1.196-2.473 2.231-4.067 2.512-.996.117-1.797-.719-2.511-1.355-.797-.84-1.715-1.754-2.036-2.911zm14.551-1.515c.719-.516 1.637.203 2.235.597.836.719 1.433 1.754 1.554 2.871-.16.918-1.515.719-2.195.52-1.355-.437-1.91-2.074-1.793-3.391.039-.199.078-.437.199-.597m19.094 38.187c-.797.797-1.395-.875-1.672-1.472-.398-.836-.441-2.075.516-2.59.758-.602 2.074-.282 2.152.797.121 1.156-.476 2.269-.996 3.265m-54.93-42.851c-.558-1.035.676-1.832 1.434-2.313.801-.355 1.797-.637 2.594-.195.558.754-.52 1.473-.996 1.992-.68.598-1.555 1.434-2.512.996a1.2 1.2 0 0 1-.52-.48"/><path fill="#513531" d="M158.359 131.203c-.597-.637-.359-1.633-.281-2.39-.039-.997.68-1.512 1.637-1.395.797 0 2.23-.199 2.39.879-.238 1.113-1.195 1.953-2.031 2.668-.48.359-1.195.64-1.715.238m5.539 5.582c.481-.758 1.516-.515 2.075.039.718.602 1.355 1.836.636 2.711-.796.719-1.953 0-2.468-.715-.36-.597-.68-1.394-.243-2.035m12.399 24.793c-.957.52-1.715-.437-1.992-1.273-.399-1.157-1.278-2.114-1.516-3.309.199-.957 1.594-.598 2.313-.558.796.082 1.793.437 1.953 1.355.277 1.156.359 2.473-.36 3.469-.078.16-.238.238-.398.316"/><path fill="#c3ada8" d="M155.051 134.156c.957-.32 1.793.559 2.429 1.196 1.637 1.671 2.711 3.785 4.387 5.421 2.352 2.313 5.063 4.262 7.973 5.821 3.586 1.871 7.613 2.469 11.519 3.386 2.032.477 4.145 1.278 5.582 2.911 3.149 3.347 4.704 7.812 7.454 11.48 1.632 2.192 4.105 3.785 6.855 4.027 1.395.2 2.828-.082 4.188.317 1.074.359 1.156 1.836.753 2.75-.875 1.797-2.867 2.672-4.703 3.109-4.023.879-8.371-.039-11.636-2.551-2.954-2.152-5.024-5.222-6.86-8.332-1.594-2.468-2.988-5.101-5.062-7.214-1.434-1.434-3.348-2.114-5.262-2.668-4.105-1.317-8.09-3.231-11.32-6.141-2.153-1.832-4.028-4.027-5.34-6.535-.879-1.754-1.793-3.59-1.754-5.582 0-.559.238-1.156.797-1.395"/><path fill="#513531" d="M199.059 162.617c.32-1.715 2.074-2.633 3.629-2.988 1.273-.359 2.906-.043 3.503 1.273.403.875-.394 1.676-1.113 1.993-1 .48-2.113.718-2.949 1.515-.602.637-1.637.836-2.356.238-.597-.476-.753-1.312-.714-2.031"/><path fill="#79ac14" d="M281.68 157.738c1.949 3.367 4.605 7.266 6.554 9.742 0 .711-.175 1.418-.175 2.305-.711 3.543-3.723 6.199-6.911 5.668-3.191-.531-5.316-3.894-4.609-7.617.18-1.594 1.418-5.316 2.836-9.035.711-.176 1.594-.531 2.305-1.063"/><path fill="none" stroke="#000" stroke-linecap="round" stroke-linejoin="round" stroke-width="2.25" d="M281.68 157.738c1.949 3.367 4.605 7.266 6.554 9.742 0 .711-.175 1.418-.175 2.305-.711 3.543-3.723 6.199-6.911 5.668-3.191-.531-5.316-3.894-4.609-7.617.18-1.594 1.418-5.316 2.836-9.035.711-.176 1.594-.531 2.305-1.063"/><path fill="#79ac14" d="M286.461 152.953c3.367 1.949 7.266 4.61 9.746 6.559.707 0 1.414-.18 2.301-.18 3.543-.707 6.203-3.719 5.672-6.91-.532-3.188-3.899-5.137-7.617-4.606-1.598.176-5.317 1.418-9.04 2.836-.175.707-.531 1.594-1.062 2.301"/><path fill="none" stroke="#000" stroke-linecap="round" stroke-linejoin="round" stroke-width="2.25" d="M286.461 152.953c3.367 1.949 7.266 4.61 9.746 6.559.707 0 1.414-.18 2.301-.18 3.543-.707 6.203-3.719 5.672-6.91-.532-3.188-3.899-5.137-7.617-4.606-1.598.176-5.317 1.418-9.04 2.836-.175.707-.531 1.594-1.062 2.301"/><path fill="#a4cd34" d="M284.336 155.613a7.85 7.85 0 0 0 2.125-2.66c4.43 2.305 9.922 6.379 11.516 7.973 2.66 2.66 2.836 6.554.531 8.859-2.125 2.305-6.199 1.949-8.856-.531-1.593-1.594-5.492-7.086-7.972-11.516a7.9 7.9 0 0 0 2.656-2.125"/><path fill="none" stroke="#000" stroke-linecap="round" stroke-linejoin="round" stroke-width="2.25" d="M284.336 155.613a7.85 7.85 0 0 0 2.125-2.66c4.43 2.305 9.922 6.379 11.516 7.973 2.66 2.66 2.836 6.554.531 8.859-2.125 2.305-6.199 1.949-8.856-.531-1.593-1.594-5.492-7.086-7.972-11.516a7.9 7.9 0 0 0 2.656-2.125"/><path fill="#f26d21" d="M284.336 155.613c-5.492 5.492-14.527 5.137-20.195-.711-8.86-8.855-29.235-35.609-22.68-42.164s33.309 13.821 42.168 22.676c5.844 5.848 6.199 14.707.707 20.199"/><path fill="#ce5c1c" d="M284.336 155.613c2.305-5.14 1.062-11.695-3.367-16.125-8.324-8.324-32.422-26.574-40.746-23.562 0-1.414.351-2.481 1.238-3.188 6.555-6.554 33.309 13.821 42.168 22.676 5.844 5.672 6.199 14.707.707 20.199"/><g fill="none" stroke="#000" stroke-linecap="round" stroke-linejoin="round" stroke-width="2.25"><path d="M282.563 134.176s-5.313 1.769-10.629 7.086m-10.454-5.668s-3.363 3.011-6.91 7.972m20.551-15.593s-4.426 1.242-7.262 4.078m1.418-8.328s-4.605.886-9.39 5.668m-12.223 3.722s1.949-3.722 5.844-6.91m6.555 24.27s1.066-3.188 4.078-6.2m-15.414-26.043s2.48-2.835 5.492-4.074m38.265 49.606-8.148-8.149m-1.773 11.336 1.066-6.023m12.047-7.086-6.024 1.062"/><path d="M284.336 155.613c-5.492 5.492-14.527 5.137-20.195-.711-8.86-8.855-29.235-35.609-22.68-42.164s33.309 13.821 42.168 22.676c5.844 5.848 6.199 14.707.707 20.199"/></g><path fill="#bc9a16" d="M1 150.773c0-68.597 90.55-70.867 170.078-70.867 79.527 0 170.078 2.27 170.078 70.867 0-15.656-76.144-28.347-170.078-28.347C77.148 122.426 1 135.117 1 150.773"/><path fill="none" stroke="#000" stroke-linecap="round" stroke-linejoin="round" stroke-width="2" d="M1 150.773c0-68.597 90.55-70.867 170.078-70.867 79.527 0 170.078 2.27 170.078 70.867 0-15.656-76.144-28.347-170.078-28.347C77.148 122.426 1 135.117 1 150.773"/><path fill="#d3ae37" d="M902.57 71.871c0 15.656-76.148 28.348-170.078 28.348-93.933 0-170.082-12.692-170.082-28.348 0-15.652 76.149-28.344 170.082-28.344 93.93 0 170.078 12.692 170.078 28.344"/><path fill="none" stroke="#000" stroke-linecap="round" stroke-linejoin="round" stroke-width="2" d="M902.57 71.871c0 15.656-76.148 28.348-170.078 28.348-93.933 0-170.082-12.692-170.082-28.348 0-15.652 76.149-28.344 170.082-28.344 93.93 0 170.078 12.692 170.078 28.344M732.492 298.645 893.898 80.832M732.492 298.645 678.73 98.773m53.762 199.872L581.395 58.844m151.097 239.801v19.839"/><path fill="#662d90" d="M681.414 53.8c-.617 4.52-2.879 8.86-6.332 11.872-6.82 6.469-12.227 14.527-15.059 23.562-2.394.313-4.742 1.063-6.601 2.57-1.637 1.106-3.102 2.524-4.871 3.454-1.11.71-1.684-.707-1.551-1.594-.09-2.656.223-5.316.664-7.93-2.48.18-4.43 2.215-5.312 4.387-.711 1.508-1.508 3.012-2.528 4.34-.797.844-2.168-.043-2.035-1.152-.531-2.965-1.019-5.934-2.082-8.77-.977-2.168-2.746-3.852-4.562-5.36 1.418-8.28 2.878-16.609 5.402-24.624 1.285-3.899 2.746-7.707 4.961-11.16 3.055-4.606 7.441-8.418 12.578-10.586 3.988-1.727 8.594-2.215 12.801-1.063 5.89 1.55 10.941 5.934 13.242 11.559 1.375 3.277 1.816 6.953 1.285 10.496"/><path fill="#39b44a" d="M659.004 93.356c-.707 5.003-3.809 9.699-8.461 11.871a14.2 14.2 0 0 1-7.75 1.281c-.797 3.191-1.641 6.422-2.438 9.656-1.152-1.371-2.48-2.656-3.011-4.43-.574-1.636-.489-3.453.047-5.093.132-.532.265-1.106.398-1.637-5.316-2.656-8.684-8.594-8.418-14.485.133-2.257.664-4.43.977-6.644.265-1.55.531-3.144.797-4.695 2.125 1.773 4.296 3.898 5.003 6.644.844 2.657 1.286 5.403 1.727 8.149.355 1.152 1.996.976 2.348-.043 1.062-1.461 1.773-3.145 2.57-4.739 1.02-1.773 2.789-3.277 4.871-3.457-.441 2.836-.84 5.672-.617 8.551-.09 1.153 1.195 1.418 1.945.754 2.262-1.418 4.164-3.367 6.555-4.562 1.418-.665 2.926-1.02 4.476-1.243a25.4 25.4 0 0 0-1.019 4.122"/><path fill-rule="evenodd" d="M683.188 54.066c-.711 4.918-3.145 9.614-6.911 12.891-6.687 6.379-12.004 14.352-14.707 23.207-.574 1.73-.797 3.5-1.195 5.273-1.195 5.137-4.871 9.743-9.785 11.739a16.1 16.1 0 0 1-6.469 1.191c-.707 2.793-1.375 5.625-2.125 8.461-.445 1.195-2.215 1.508-2.969.488-1.238-1.461-2.656-2.878-3.277-4.738-.754-2.039-.707-4.297-.09-6.379.223-.711-1.105-.886-1.461-1.418-4.914-3.851-7.441-10.496-6.332-16.61 1.551-9.523 3.055-19.042 5.403-28.39 1.46-5.715 3.277-11.425 6.246-16.52 2.703-4.429 6.554-8.105 11.074-10.718 4.558-2.613 10.051-3.855 15.234-2.836 5.801 1.063 11.074 4.652 14.219 9.656 2.789 4.297 3.895 9.61 3.145 14.703m-44.602 49.344c.887.442 1.148 1.504.84 2.391-.399 1.551-.973 3.144-.574 4.738.086.445.488 1.859.707 1.551.531-2.082 1.019-4.117 1.55-6.199.356-1.067 1.551-1.332 2.524-1.11 4.164.313 8.371-1.636 10.851-5.004 1.641-2.125 2.528-4.695 2.879-7.308.047-.442.399-1.153-.308-.707-1.907.707-3.41 2.125-5.051 3.277-1.238.883-2.481 2.035-4.027 2.168-1.332.09-2.438-1.062-2.618-2.348-.308-2.035-.086-4.164.137-6.246-1.465 1.332-1.863 3.325-2.926 4.875-.707 1.153-1.328 2.567-2.746 2.965-1.636.531-3.5-.707-3.719-2.39-.488-2.97-.976-5.934-1.996-8.77-.441-.973-1.062-1.816-1.769-2.613-.399 2.437-.887 4.87-1.152 7.308-.489 5.45 2.527 10.985 7.398 13.422m37.691-63.293c-3.5-4.785-9.566-7.664-15.547-7.176-5.226.442-10.007 3.188-13.773 6.73-2.527 2.349-4.605 5.185-5.98 8.372-3.102 6.645-4.739 13.82-6.2 20.95a352 352 0 0 0-1.73 9.48c2.172 1.859 4.121 4.164 4.828 6.996.668 2.172 1.109 4.387 1.465 6.601 1.148-1.773 1.68-3.898 3.14-5.449 1.375-1.55 3.325-2.613 5.407-2.613 1.238.09 1.859 1.508 1.418 2.613-.313 2.125-.578 4.297-.578 6.469 2.082-1.461 3.988-3.234 6.289-4.344 1.152-.484 2.394-.84 3.632-1.105 1.95-5.668 4.872-10.985 8.504-15.77-.972.27-2.257.668-3.011-.308-.887-.973-.266-2.657 1.019-2.88a17.86 17.86 0 0 0 9.434-5.003c4.605-4.473 6.379-11.473 4.605-17.63-.574-2.124-1.594-4.116-2.922-5.933"/><path fill-rule="evenodd" d="M659.934 72.45c-.973-.044-2.258-.134-2.657-1.286-.488-1.152.664-2.57 1.903-2.348.976.09 2.172.133 2.523 1.196.578 1.152-.441 2.613-1.769 2.437"/><path fill="#662d90" d="M745.727 53.8c-.622 4.52-2.879 8.86-6.332 11.872-6.825 6.469-12.227 14.527-15.059 23.562-2.395.313-4.742 1.063-6.602 2.57-1.64 1.106-3.101 2.524-4.871 3.454-1.109.71-1.683-.707-1.55-1.594-.09-2.656.222-5.316.664-7.93-2.481.18-4.43 2.215-5.317 4.387-.707 1.508-1.504 3.012-2.523 4.34-.797.844-2.172-.043-2.039-1.152-.532-2.965-1.02-5.934-2.078-8.77-.977-2.168-2.75-3.852-4.567-5.36 1.418-8.28 2.883-16.609 5.406-24.624 1.286-3.899 2.746-7.707 4.961-11.16 3.055-4.606 7.442-8.418 12.578-10.586 3.989-1.727 8.594-2.215 12.801-1.063 5.891 1.55 10.942 5.934 13.242 11.559 1.375 3.277 1.817 6.953 1.286 10.496"/><path fill="#39b44a" d="M723.316 93.356c-.711 5.003-3.808 9.699-8.461 11.871a14.2 14.2 0 0 1-7.75 1.281c-.796 3.191-1.64 6.422-2.437 9.656-1.152-1.371-2.48-2.656-3.012-4.43-.578-1.636-.488-3.453.043-5.093.137-.532.266-1.106.399-1.637-5.313-2.656-8.68-8.594-8.414-14.485.132-2.257.664-4.43.976-6.644.266-1.55.531-3.144.793-4.695 2.129 1.773 4.301 3.898 5.008 6.644.84 2.657 1.285 5.403 1.727 8.149.355 1.152 1.992.976 2.347-.043 1.063-1.461 1.774-3.145 2.57-4.739 1.016-1.773 2.79-3.277 4.872-3.457-.442 2.836-.84 5.672-.622 8.551-.085 1.153 1.196 1.418 1.95.754 2.258-1.418 4.164-3.367 6.554-4.562 1.418-.665 2.926-1.02 4.477-1.243a25 25 0 0 0-1.02 4.122"/><path fill-rule="evenodd" d="M747.496 54.066c-.707 4.918-3.144 9.614-6.906 12.891-6.692 6.379-12.004 14.352-14.707 23.207-.574 1.73-.797 3.5-1.195 5.273-1.196 5.137-4.872 9.743-9.79 11.739a16.1 16.1 0 0 1-6.464 1.191c-.711 2.793-1.375 5.625-2.125 8.461-.446 1.195-2.215 1.508-2.969.488-1.242-1.461-2.656-2.878-3.277-4.738-.754-2.039-.711-4.297-.09-6.379.222-.711-1.106-.886-1.461-1.418-4.918-3.851-7.442-10.496-6.332-16.61 1.547-9.523 3.054-19.042 5.402-28.39 1.461-5.715 3.277-11.425 6.246-16.52 2.699-4.429 6.555-8.105 11.07-10.718 4.563-2.613 10.055-3.855 15.239-2.836 5.801 1.063 11.074 4.652 14.215 9.656 2.793 4.297 3.898 9.61 3.144 14.703m-44.601 49.344c.886.442 1.152 1.504.843 2.391-.398 1.551-.972 3.144-.574 4.738.086.445.484 1.859.707 1.551.531-2.082 1.02-4.117 1.551-6.199.351-1.067 1.551-1.332 2.523-1.11 4.164.313 8.371-1.636 10.852-5.004 1.641-2.125 2.523-4.695 2.879-7.308.043-.442.398-1.153-.309-.707-1.906.707-3.414 2.125-5.051 3.277-1.238.883-2.48 2.035-4.031 2.168-1.328.09-2.433-1.062-2.613-2.348-.309-2.035-.086-4.164.133-6.246-1.461 1.332-1.86 3.325-2.922 4.875-.707 1.153-1.328 2.567-2.746 2.965-1.641.531-3.5-.707-3.719-2.39-.488-2.97-.977-5.934-1.996-8.77-.442-.973-1.063-1.816-1.77-2.613-.398 2.437-.886 4.87-1.152 7.308-.488 5.45 2.523 10.985 7.395 13.422m37.695-63.293c-3.5-4.785-9.57-7.664-15.547-7.176-5.227.442-10.012 3.188-13.773 6.73-2.528 2.349-4.61 5.185-5.981 8.372-3.101 6.645-4.738 13.82-6.199 20.95a356 356 0 0 0-1.731 9.48c2.172 1.859 4.121 4.164 4.829 6.996.664 2.172 1.109 4.387 1.46 6.601 1.153-1.773 1.684-3.898 3.145-5.449 1.375-1.55 3.324-2.613 5.406-2.613 1.239.09 1.86 1.508 1.414 2.613-.308 2.125-.574 4.297-.574 6.469 2.082-1.461 3.984-3.234 6.289-4.344 1.152-.484 2.391-.84 3.633-1.105 1.949-5.668 4.871-10.985 8.504-15.77-.977.27-2.262.668-3.012-.308-.887-.973-.265-2.657 1.02-2.88a17.85 17.85 0 0 0 9.433-5.003c4.606-4.473 6.379-11.473 4.606-17.63-.574-2.124-1.594-4.116-2.922-5.933"/><path fill-rule="evenodd" d="M724.246 72.45c-.976-.044-2.262-.134-2.656-1.286-.488-1.152.664-2.57 1.902-2.348.973.09 2.172.133 2.524 1.196.578 1.152-.442 2.613-1.77 2.437"/><path fill="#865b52" d="M762.016 62.71c-.797 7.93 2.629 16.103 8.769 21.126a40.5 40.5 0 0 0 7.414 4.344c1.317.558 2.672 1.039 3.828 1.914 3.586 2.594 6.258 6.18 9.446 9.21 3.191 3.188 6.898 5.977 11.203 7.575 5.301 2.031 11.242 2.668 16.781 1.195 4.902-1.394 9.09-4.863 11.641-9.21 2.91-4.942 3.586-10.883 3.109-16.5a14.8 14.8 0 0 0-1.598-6.102c-2.429-4.82-6.175-8.848-10.004-12.555-6.855-6.5-14.468-12.16-22.48-17.14-3.191-1.876-6.418-3.79-9.969-5.024-1.871-.68-3.863-.277-5.777.039-5.422 1.195-10.606 3.629-14.871 7.215-3.785 3.23-6.574 7.695-7.332 12.676-.082.398-.121.84-.16 1.238"/><path fill="#513531" d="M803.633 66.059c-2.113-1.438-4.028-3.11-6.102-4.543-4.98-3.59-10.562-6.66-16.703-7.575-3.305-.48-6.695-.242-9.965.477-3.027.758-6.218 2.152-8.011 4.863-.239.32-.555 1.278-.317.36 1.356-5.66 4.223-11.082 8.61-15.028 4.265-3.828 9.925-6.02 15.664-6.18 4.109-.199 8.132.598 12.039 1.755 4.863 1.554 9.25 4.226 13.754 6.578 6.097 3.386 11.996 7.332 16.582 12.636 2.828 3.227 4.742 7.215 6.097 11.282 1.953 5.699 2.313 11.957.68 17.777-1.078 3.867-2.871 7.574-5.106 10.922-.875 1.316-1.792 2.59-2.949 3.668.797-4.945.957-10.047.16-14.989-.597-3.59-1.871-7.093-4.222-9.925-3.313-4.305-7.696-7.973-12.836-9.805-2.195-.879-4.547-1.2-6.778-1.996a4 4 0 0 1-.597-.277"/><path fill="#30201d" d="M799.008 53.3c.558-.874 1.914-.558 2.832-.597 1.672.082 3.348.36 4.98.64.996.04 1.754 1.114.797 1.833-1.074 1.195-2.472 2.23-4.066 2.511-.996.118-1.793-.718-2.508-1.355-.801-.836-1.715-1.754-2.035-2.91zm14.551-1.51c.714-.52 1.632.198 2.23.597.84.715 1.438 1.754 1.555 2.867-.16.918-1.516.719-2.192.52-1.355-.438-1.914-2.075-1.793-3.387.039-.2.079-.442.2-.598m19.093 38.188c-.797.796-1.394-.88-1.675-1.477-.399-.836-.438-2.074.519-2.59.758-.597 2.07-.281 2.152.797.118 1.156-.476 2.274-.996 3.27m-54.929-42.852c-.559-1.04.675-1.836 1.433-2.312.797-.36 1.793-.641 2.59-.2.559.758-.516 1.473-.996 1.992-.676.598-1.555 1.434-2.512.997a1.2 1.2 0 0 1-.515-.477"/><path fill="#513531" d="M770.465 61.356c-.598-.637-.36-1.637-.277-2.395-.04-.996.675-1.512 1.632-1.395.797 0 2.235-.199 2.395.88-.242 1.113-1.199 1.952-2.035 2.667-.477.36-1.196.64-1.715.242m5.543 5.579c.476-.758 1.515-.516 2.07.043.719.597 1.356 1.832.641 2.707-.797.718-1.953 0-2.473-.715-.359-.598-.68-1.395-.238-2.035m12.394 24.796c-.953.516-1.711-.44-1.992-1.277-.398-1.156-1.273-2.113-1.515-3.309.203-.957 1.597-.597 2.312-.558.797.082 1.797.441 1.953 1.355.281 1.157.36 2.473-.355 3.47-.082.16-.242.237-.403.32"/><path fill="#c3ada8" d="M767.156 64.305c.957-.32 1.797.558 2.434 1.195 1.633 1.676 2.711 3.785 4.383 5.422 2.351 2.312 5.062 4.266 7.972 5.82 3.59 1.871 7.614 2.469 11.524 3.387 2.031.48 4.144 1.277 5.578 2.91 3.148 3.348 4.703 7.813 7.457 11.48 1.633 2.192 4.101 3.786 6.855 4.028 1.395.2 2.829-.082 4.184.316 1.078.36 1.156 1.836.758 2.75-.875 1.797-2.871 2.672-4.703 3.114-4.028.875-8.371-.043-11.641-2.551-2.949-2.156-5.023-5.223-6.855-8.332-1.594-2.473-2.993-5.106-5.063-7.215-1.434-1.438-3.348-2.113-5.262-2.672-4.105-1.316-8.093-3.23-11.32-6.14-2.152-1.833-4.027-4.024-5.344-6.536-.875-1.754-1.793-3.59-1.754-5.582 0-.558.243-1.156.797-1.394"/><path fill="#513531" d="M811.168 92.766c.316-1.715 2.07-2.63 3.625-2.989 1.273-.359 2.91-.043 3.508 1.274.398.879-.399 1.676-1.117 1.992-.996.48-2.114.719-2.95 1.516-.597.64-1.632.84-2.351.238-.598-.477-.758-1.313-.715-2.031"/><path fill="#bc9a16" d="M562.41 71.871c0-68.598 90.555-70.863 170.082-70.863 79.528 0 170.078 2.265 170.078 70.863 0-15.652-76.148-28.344-170.078-28.344-93.933 0-170.082 12.692-170.082 28.344"/><path fill="none" stroke="#000" stroke-linecap="round" stroke-linejoin="round" stroke-width="2" d="M562.41 71.871c0-68.598 90.555-70.863 170.082-70.863 79.528 0 170.078 2.265 170.078 70.863 0-15.652-76.148-28.344-170.078-28.344-93.933 0-170.082 12.692-170.082 28.344"/><path fill="#cc9c6f" d="M458.871 357.938c0 3.914-3.172 7.085-7.086 7.085s-7.086-3.171-7.086-7.085 3.172-7.086 7.086-7.086 7.086 3.171 7.086 7.086"/><path fill="none" stroke="#000" stroke-linecap="round" stroke-linejoin="round" stroke-width="2" d="M458.871 357.938c0 3.914-3.172 7.085-7.086 7.085s-7.086-3.171-7.086-7.085 3.172-7.086 7.086-7.086 7.086 3.171 7.086 7.086"/><circle cx="451.785" cy="357.938" r="1"/><path fill="#cc9c6f" d="M437.609 54.629h28.348v340.156h-28.348Z"/><path fill="none" stroke="#000" stroke-linecap="round" stroke-linejoin="round" stroke-width="2" d="M437.609 54.629h28.348v340.156h-28.348z"/><path fill="#cc9c6f" d="M458.871 357.938c0 3.914-3.172 7.085-7.086 7.085s-7.086-3.171-7.086-7.085 3.172-7.086 7.086-7.086 7.086 3.171 7.086 7.086"/><path fill="none" stroke="#000" stroke-linecap="round" stroke-linejoin="round" stroke-width="2" d="M458.871 357.938c0 3.914-3.172 7.085-7.086 7.085s-7.086-3.171-7.086-7.085 3.172-7.086 7.086-7.086 7.086 3.171 7.086 7.086"/><path fill="#cc9c6f" d="M454.617 394.785c3.641 3.824 5.672 8.899 5.672 14.176s-2.031 10.352-5.672 14.172h-5.668c-3.636-3.82-5.668-8.895-5.668-14.172s2.032-10.352 5.668-14.176z"/><path fill="none" stroke="#000" stroke-linecap="round" stroke-linejoin="round" stroke-width="2" d="M454.617 394.785c3.641 3.824 5.672 8.899 5.672 14.176s-2.031 10.352-5.672 14.172h-5.668c-3.636-3.82-5.668-8.895-5.668-14.172s2.032-10.352 5.668-14.176z"/><path fill="#cc9c6f" d="M463.121 434.473c0 6.261-5.074 11.34-11.336 11.34s-11.34-5.079-11.34-11.34 5.078-11.34 11.34-11.34 11.336 5.078 11.336 11.34"/><path fill="none" stroke="#000" stroke-linecap="round" stroke-linejoin="round" stroke-width="2" d="M463.121 434.473c0 6.261-5.074 11.34-11.336 11.34s-11.34-5.079-11.34-11.34 5.078-11.34 11.34-11.34 11.336 5.078 11.336 11.34"/><path fill="#cc9c6f" d="M494.305 26.281c-13.692 0-22.676 13.625-22.676 28.348h-39.688c0-14.723-8.988-28.348-22.675-28.348z"/><path fill="none" stroke="#000" stroke-linecap="round" stroke-linejoin="round" stroke-width="2" d="M494.305 26.281c-13.692 0-22.676 13.625-22.676 28.348h-39.688c0-14.723-8.988-28.348-22.675-28.348z"/></g></svg>