<svg xmlns="http://www.w3.org/2000/svg" width="455pt" height="46pt" viewBox="0 -46 455 46"><g id="page1"><path fill="none" stroke="#000" stroke-linecap="round" stroke-linejoin="round" stroke-width=".5" d="M.25-45.61h45.356V-.253H.25zm45.356 0h45.351V-.253H45.606zm45.351 0h45.356V-.253H90.957zm45.356 0h45.355V-.253h-45.355zm45.355 0h45.352V-.253h-45.352zm45.352 0h45.355V-.253H227.02zm45.355 0h45.355V-.253h-45.355zm45.355 0h45.356V-.253H317.73zm45.356 0h45.352V-.253h-45.352zm45.352 0h45.355V-.253h-45.355z"/><path d="M26.813-19.5h-.372c-.207 1.465-.37 1.71-.453 1.836-.105.164-1.59.164-1.879.164h-3.968c.746-.805 2.191-2.27 3.945-3.965 1.262-1.2 2.727-2.601 2.727-4.648 0-2.438-1.942-3.84-4.11-3.84-2.273 0-3.656 2-3.656 3.86 0 .808.598.91.848.91.207 0 .824-.122.824-.848 0-.64-.535-.825-.825-.825-.124 0-.25.02-.331.063.394-1.758 1.593-2.625 2.851-2.625 1.797 0 2.977 1.426 2.977 3.305 0 1.797-1.055 3.347-2.235 4.691l-4.11 4.649v.472h7.274zm43.96-2.914c0 4.543-1.882 5.95-3.43 5.95-.476 0-1.632-.063-2.109-.868.54.082.93-.207.93-.723 0-.558-.453-.746-.742-.746-.188 0-.742.082-.742.785 0 1.407 1.218 2.047 2.703 2.047 2.375 0 4.793-2.601 4.793-7.148 0-5.66-2.313-6.836-3.883-6.836-2.047 0-4.008 1.797-4.008 4.562 0 2.563 1.672 4.465 3.781 4.465 1.735 0 2.5-1.613 2.707-2.293zm-2.667 1.156c-.56 0-1.34-.101-1.981-1.344-.437-.804-.437-1.753-.437-2.765 0-1.219 0-2.067.581-2.977.29-.433.825-1.136 2.024-1.136 2.438 0 2.438 3.738 2.438 4.566 0 1.469-.66 3.656-2.625 3.656m46.289-8.242c0-.434-.02-.453-.309-.453-.805.969-2.023 1.281-3.184 1.32-.058 0-.164 0-.183.043-.024.04-.024.082-.024.516.645 0 1.719-.125 2.543-.621v10.886c0 .723-.043.973-1.816.973h-.621v.535c.992-.02 2.023-.039 3.015-.039.993 0 2.024.02 3.016.04v-.536h-.617c-1.777 0-1.82-.227-1.82-.973zm46.746-.164c0-.438-.02-.457-.395-.457l-6.133 9.773v.535h5.328v2.024c0 .746-.039.953-1.484.953h-.394v.535c.66-.039 1.777-.039 2.48-.039.699 0 1.816 0 2.477.04v-.536h-.391c-1.445 0-1.488-.207-1.488-.953v-2.023h2.105v-.536h-2.105zm-1.137 1.363v7.953h-4.977zm46.535-1.363c0-.438-.019-.457-.391-.457l-6.136 9.773v.535h5.332v2.024c0 .746-.043.953-1.489.953h-.39v.535c.656-.039 1.773-.039 2.476-.039s1.817 0 2.481.04v-.536h-.395c-1.445 0-1.488-.207-1.488-.953v-2.023h2.109v-.536h-2.109zm-1.133 1.363v7.953h-4.98zm45.09-1.199c0-.434-.019-.453-.312-.453-.805.969-2.024 1.281-3.18 1.32-.063 0-.164 0-.188.043-.019.04-.019.082-.019.516.641 0 1.715-.125 2.543-.621v10.886c0 .723-.043.973-1.82.973h-.622v.535c.993-.02 2.028-.039 3.02-.039.988 0 2.023.02 3.016.04v-.536h-.621c-1.778 0-1.817-.227-1.817-.973zm49.121.328v-.453h-4.855c-2.418 0-2.457-.266-2.539-.66h-.371l-.602 3.863h.371c.063-.39.207-1.445.457-1.84.121-.164 1.652-.164 2-.164h4.547l-2.293 3.41c-1.527 2.29-2.582 5.391-2.582 8.094 0 .25 0 .953.742.953.746 0 .746-.703.746-.972v-.95c0-3.386.578-5.617 1.528-7.043zm45.399 0v-.453h-4.852c-2.418 0-2.461-.266-2.543-.66h-.371l-.602 3.863h.375c.063-.39.204-1.445.454-1.84.125-.164 1.652-.164 2.003-.164h4.543l-2.289 3.41c-1.531 2.29-2.586 5.391-2.586 8.094 0 .25 0 .953.747.953.742 0 .742-.703.742-.972v-.95c0-3.386.578-5.617 1.527-7.043zm45.3 0v-.453h-4.851c-2.418 0-2.461-.266-2.543-.66h-.371l-.602 3.863h.371c.063-.39.207-1.445.457-1.84.121-.164 1.653-.164 2.004-.164h4.543l-2.293 3.41c-1.527 2.29-2.582 5.391-2.582 8.094 0 .25 0 .953.746.953.743 0 .743-.703.743-.972v-.95c0-3.386.578-5.617 1.527-7.043zm38.274 5.746c0-4.937 2.312-6.055 3.656-6.055.434 0 1.488.083 1.902.891-.332 0-.953 0-.953.723 0 .555.457.742.746.742.188 0 .743-.082.743-.785 0-1.3-1.032-2.043-2.457-2.043-2.461 0-5.043 2.558-5.043 7.125 0 5.617 2.336 6.86 3.988 6.86 2.004 0 3.906-1.798 3.906-4.567 0-2.582-1.676-4.461-3.781-4.461-1.262 0-2.192.824-2.707 2.27zm2.582 6.961c-2.539 0-2.539-3.8-2.539-4.566 0-1.489.699-3.633 2.621-3.633.351 0 1.363 0 2.047 1.422.371.805.371 1.652.371 2.687 0 1.114 0 1.942-.434 2.766-.457.848-1.117 1.324-2.066 1.324"/></g></svg>