<svg xmlns="http://www.w3.org/2000/svg" width="617pt" height="286pt" viewBox="0 -286 617 286"><g id="page1"><path fill="#ffb2ff" d="M10.004-71.64h5.953c1.633 0 3.2.648 4.355 1.804l4.895 4.895a2.553 2.553 0 0 0 3.61 0l4.894-4.895a6.16 6.16 0 0 1 4.355-1.805H320.38a2.55 2.55 0 0 0 2.551-2.55v-142.914a2.554 2.554 0 0 0-2.551-2.551H38.066a6.16 6.16 0 0 0-4.355 1.804l-4.895 4.895a2.554 2.554 0 0 1-3.609 0l-4.895-4.895a6.16 6.16 0 0 0-4.355-1.804H4.051a2.55 2.55 0 0 0-2.551 2.551v142.914c0 1.41 1.14 2.55 2.55 2.55z"/><path fill="none" stroke="#b200b2" stroke-linecap="round" stroke-linejoin="round" stroke-width="3" d="M10.004-71.64h5.953c1.633 0 3.2.648 4.355 1.804l4.895 4.895a2.553 2.553 0 0 0 3.61 0l4.894-4.895a6.16 6.16 0 0 1 4.355-1.805H320.38a2.55 2.55 0 0 0 2.551-2.55v-142.914a2.554 2.554 0 0 0-2.551-2.551H38.066a6.16 6.16 0 0 0-4.355 1.804l-4.895 4.895a2.554 2.554 0 0 1-3.609 0l-4.895-4.895a6.16 6.16 0 0 0-4.355-1.804H4.051a2.55 2.55 0 0 0-2.551 2.551v142.914c0 1.41 1.14 2.55 2.55 2.55z"/><path fill="#fff" d="M327.18-141.398H63.578c-1.633 0-3.2.652-4.355 1.804l-4.895 4.899a2.553 2.553 0 0 1-3.61 0l-4.894-4.899a6.18 6.18 0 0 0-4.355-1.804H29.562a2.55 2.55 0 0 0-2.55 2.554v47.645c0 1.41 1.14 2.55 2.55 2.55H41.47c1.633 0 3.199.649 4.355 1.805l4.895 4.895a2.553 2.553 0 0 0 3.61 0l4.894-4.895a6.16 6.16 0 0 1 4.355-1.804H327.18z"/><path fill="none" stroke="#b2b2b2" stroke-linecap="round" stroke-linejoin="round" stroke-width="3" d="M327.18-141.398H63.578c-1.633 0-3.2.652-4.355 1.804l-4.895 4.899a2.553 2.553 0 0 1-3.61 0l-4.894-4.899a6.18 6.18 0 0 0-4.355-1.804H29.562a2.55 2.55 0 0 0-2.55 2.554v47.645c0 1.41 1.14 2.55 2.55 2.55H41.47c1.633 0 3.199.649 4.355 1.805l4.895 4.895a2.553 2.553 0 0 0 3.61 0l4.894-4.895a6.16 6.16 0 0 1 4.355-1.804H327.18"/><path fill="#b2ffb2" d="m165.547-164.586 9.504 8.84c3 2.793 6.945 4.344 11.047 4.344h79.699c4.101 0 8.047-1.551 11.047-4.344l19.008-17.684a5.93 5.93 0 0 0 0-8.687l-19.008-17.688a16.23 16.23 0 0 0-11.047-4.343h-79.699c-4.102 0-8.047 1.55-11.047 4.343l-19.012 17.688c-2.519 2.344-2.519 6.34 0 8.687z"/><path fill="none" stroke="#00b200" stroke-linecap="round" stroke-linejoin="round" stroke-width="3" d="m165.547-164.586 9.504 8.84c3 2.793 6.945 4.344 11.047 4.344h79.699c4.101 0 8.047-1.551 11.047-4.344l19.008-17.684a5.93 5.93 0 0 0 0-8.687l-19.008-17.688a16.23 16.23 0 0 0-11.047-4.343h-79.699c-4.102 0-8.047 1.55-11.047 4.343l-19.012 17.688c-2.519 2.344-2.519 6.34 0 8.687z"/><path fill="#ffffb2" d="M368.281-8.945h5.953c1.637 0 3.204.648 4.356 1.804l4.898 4.899a2.55 2.55 0 0 0 3.606 0l4.898-4.899a6.15 6.15 0 0 1 4.356-1.804H604a2.55 2.55 0 0 0 2.551-2.551v-197.106c0-1.41-1.145-2.55-2.551-2.55H396.348a6.15 6.15 0 0 0-4.356 1.804l-4.898 4.895a2.55 2.55 0 0 1-3.606 0l-4.898-4.895a6.15 6.15 0 0 0-4.356-1.804h-11.906a2.55 2.55 0 0 0-2.551 2.55v197.106c0 1.41 1.145 2.55 2.551 2.55z"/><path fill="none" stroke="#b2b200" stroke-linecap="round" stroke-linejoin="round" stroke-width="3" d="M368.281-8.945h5.953c1.637 0 3.204.648 4.356 1.804l4.898 4.899a2.55 2.55 0 0 0 3.606 0l4.898-4.899a6.15 6.15 0 0 1 4.356-1.804H604a2.55 2.55 0 0 0 2.551-2.551v-197.106c0-1.41-1.145-2.55-2.551-2.55H396.348a6.15 6.15 0 0 0-4.356 1.804l-4.898 4.895a2.55 2.55 0 0 1-3.606 0l-4.898-4.895a6.15 6.15 0 0 0-4.356-1.804h-11.906a2.55 2.55 0 0 0-2.551 2.55v197.106c0 1.41 1.145 2.55 2.551 2.55z"/><path fill="#ffd9b2" d="M393.797-25.953h5.949c1.637 0 3.203.648 4.356 1.805L409-19.254a2.55 2.55 0 0 0 3.605 0l4.899-4.894a6.15 6.15 0 0 1 4.355-1.805h190.645a2.55 2.55 0 0 0 2.551-2.55v-47.645a2.55 2.55 0 0 0-2.551-2.551H421.859a6.15 6.15 0 0 0-4.355 1.805L412.605-72A2.55 2.55 0 0 1 409-72l-4.898-4.894a6.15 6.15 0 0 0-4.356-1.805h-11.902a2.553 2.553 0 0 0-2.555 2.55v47.645c0 1.41 1.145 2.55 2.555 2.55z"/><path fill="none" stroke="#b25900" stroke-linecap="round" stroke-linejoin="round" stroke-width="3" d="M393.797-25.953h5.949c1.637 0 3.203.648 4.356 1.805L409-19.254a2.55 2.55 0 0 0 3.605 0l4.899-4.894a6.15 6.15 0 0 1 4.355-1.805h190.645a2.55 2.55 0 0 0 2.551-2.55v-47.645a2.55 2.55 0 0 0-2.551-2.551H421.859a6.15 6.15 0 0 0-4.355 1.805L412.605-72A2.55 2.55 0 0 1 409-72l-4.898-4.894a6.15 6.15 0 0 0-4.356-1.805h-11.902a2.553 2.553 0 0 0-2.555 2.55v47.645c0 1.41 1.145 2.55 2.555 2.55z"/><path fill="#ffd9b2" d="M393.797-81.644h5.949c1.637 0 3.203.648 4.356 1.804L409-74.945a2.55 2.55 0 0 0 3.605 0l4.899-4.895a6.15 6.15 0 0 1 4.355-1.804h190.645a2.55 2.55 0 0 0 2.551-2.551v-47.649a2.555 2.555 0 0 0-2.551-2.551H421.859a6.17 6.17 0 0 0-4.355 1.805l-4.899 4.899a2.55 2.55 0 0 1-3.605 0l-4.898-4.899a6.17 6.17 0 0 0-4.356-1.805h-11.902a2.556 2.556 0 0 0-2.555 2.551v47.649c0 1.41 1.145 2.55 2.555 2.55z"/><path fill="none" stroke="#b25900" stroke-linecap="round" stroke-linejoin="round" stroke-width="3" d="M393.797-81.644h5.949c1.637 0 3.203.648 4.356 1.804L409-74.945a2.55 2.55 0 0 0 3.605 0l4.899-4.895a6.15 6.15 0 0 1 4.355-1.804h190.645a2.55 2.55 0 0 0 2.551-2.551v-47.649a2.555 2.555 0 0 0-2.551-2.551H421.859a6.17 6.17 0 0 0-4.355 1.805l-4.899 4.899a2.55 2.55 0 0 1-3.605 0l-4.898-4.899a6.17 6.17 0 0 0-4.356-1.805h-11.902a2.556 2.556 0 0 0-2.555 2.551v47.649c0 1.41 1.145 2.55 2.555 2.55z"/><path fill="#b2ffb2" d="m409.496-157.582 9.504 8.84c3 2.793 6.949 4.344 11.047 4.344h94.008c4.101 0 8.047-1.551 11.047-4.344l19.007-17.684c2.524-2.347 2.524-6.344 0-8.687l-19.007-17.688a16.2 16.2 0 0 0-11.047-4.344h-94.008A16.2 16.2 0 0 0 419-192.801l-19.008 17.688c-2.523 2.343-2.523 6.34 0 8.687z"/><path fill="none" stroke="#00b200" stroke-linecap="round" stroke-linejoin="round" stroke-width="3" d="m409.496-157.582 9.504 8.84c3 2.793 6.949 4.344 11.047 4.344h94.008c4.101 0 8.047-1.551 11.047-4.344l19.007-17.684c2.524-2.347 2.524-6.344 0-8.687l-19.007-17.688a16.2 16.2 0 0 0-11.047-4.344h-94.008A16.2 16.2 0 0 0 419-192.801l-19.008 17.688c-2.523 2.343-2.523 6.34 0 8.687z"/><path fill="#b2ffff" d="M359.777-214.098h14.457c1.637 0 3.204.649 4.356 1.805l4.898 4.895a2.55 2.55 0 0 0 3.606 0l4.898-4.895a6.16 6.16 0 0 1 4.356-1.805h210.203v-52.746a456.06 456.06 0 0 0-246.774 0z"/><path fill="none" stroke="#00b2b2" stroke-linecap="round" stroke-linejoin="round" stroke-width="3" d="M359.777-214.098h14.457c1.637 0 3.204.649 4.356 1.805l4.898 4.895a2.55 2.55 0 0 0 3.606 0l4.898-4.895a6.16 6.16 0 0 1 4.356-1.805h210.203v-52.746a456.06 456.06 0 0 0-246.774 0z"/><path d="M43.95-114.781c0-1.41.573-3.516 2.987-5.309.669-.5 1.29-1.242 1.29-2.484 0-1.457-1.004-3.25-4.446-3.25-2.582 0-3.992 1.676-3.992 3.203 0 .859.648 1.051 1.004 1.051.406 0 .98-.285.98-1.004 0-.547-.406-.981-1.004-.981-.144 0-.19 0-.238.024.524-1.242 1.91-1.813 3.18-1.813 2.7 0 2.7 1.742 2.7 2.653 0 1.41-.43 1.863-.837 2.293-1.625 1.742-2.152 3.968-2.152 5.425v1.145c0 .43 0 .527.266.527.261 0 .261-.168.261-.597zm.882 4.609c0-.621-.527-1.148-1.145-1.148-.718 0-1.171.578-1.171 1.148 0 .719.57 1.172 1.144 1.172.672 0 1.172-.523 1.172-1.172m10.215-4.609c0-1.41.574-3.516 2.988-5.309.668-.5 1.293-1.242 1.293-2.484 0-1.457-1.008-3.25-4.445-3.25-2.582 0-3.992 1.676-3.992 3.203 0 .859.644 1.051 1.004 1.051.406 0 .98-.285.98-1.004 0-.547-.406-.981-1.004-.981-.144 0-.191 0-.238.024.523-1.242 1.91-1.813 3.176-1.813 2.699 0 2.699 1.742 2.699 2.653 0 1.41-.43 1.863-.836 2.293-1.625 1.742-2.149 3.968-2.149 5.425v1.145c0 .43 0 .527.262.527s.262-.168.262-.597zm.887 4.609c0-.621-.528-1.148-1.149-1.148-.715 0-1.172.578-1.172 1.148 0 .719.575 1.172 1.149 1.172.668 0 1.172-.523 1.172-1.172m10.113-4.609c0-1.41.574-3.516 2.988-5.309.668-.5 1.293-1.242 1.293-2.484 0-1.457-1.008-3.25-4.445-3.25-2.582 0-3.992 1.676-3.992 3.203 0 .859.644 1.051 1.004 1.051.406 0 .98-.285.98-1.004 0-.547-.406-.981-1.004-.981-.144 0-.191 0-.238.024.523-1.242 1.91-1.813 3.176-1.813 2.699 0 2.699 1.742 2.699 2.653 0 1.41-.43 1.863-.836 2.293-1.625 1.742-2.149 3.968-2.149 5.425v1.145c0 .43 0 .527.262.527s.262-.168.262-.597zm.887 4.609c0-.621-.528-1.148-1.149-1.148-.715 0-1.172.578-1.172 1.148 0 .719.575 1.172 1.149 1.172.668 0 1.172-.523 1.172-1.172m-49.942-67.195c0-2.321.953-4.492 2.793-4.492.192 0 .238 0 .336.023-.191.094-.574.238-.574.883 0 .695.55.957.933.957.477 0 .957-.313.957-.957 0-.715-.648-1.387-1.675-1.387-2.032 0-2.723 2.199-2.867 2.652h-.024v-2.652l-3.203.266v.691c1.625 0 1.816.168 1.816 1.34v6.473c0 1.078-.261 1.078-1.816 1.078v.691c.668-.047 1.984-.047 2.7-.047.648 0 2.343 0 2.894.047v-.691h-.48c-1.743 0-1.79-.266-1.79-1.125zm9.266-9.153c0-.621-.5-1.171-1.172-1.171-.621 0-1.145.503-1.145 1.148 0 .715.575 1.172 1.145 1.172.742 0 1.172-.625 1.172-1.149m-3.297 4.446v.691c1.527 0 1.742.145 1.742 1.313v6.5c0 1.078-.262 1.078-1.812 1.078v.691c.668-.047 1.812-.047 2.507-.047.262 0 1.649 0 2.461.047v-.691c-1.554 0-1.648-.121-1.648-1.051v-8.797zm11.492 14.215c-1.527 0-1.812 0-1.812-1.075v-4.156c.43.598 1.406 1.527 2.937 1.527 2.75 0 5.16-2.316 5.16-5.398 0-3.035-2.246-5.379-4.847-5.379-2.106 0-3.227 1.508-3.301 1.602v-1.602l-3.32.266v.691c1.671 0 1.816.168 1.816 1.219v11.23c0 1.075-.266 1.075-1.816 1.075v.695c.62-.051 1.91-.051 2.582-.051.691 0 1.98 0 2.601.051zm-1.812-11.563c0-.457 0-.48.261-.859.715-1.078 1.887-1.532 2.793-1.532 1.793 0 3.227 2.176 3.227 4.852 0 2.844-1.625 4.922-3.465 4.922a2.82 2.82 0 0 1-1.91-.766c-.55-.547-.906-1.027-.906-1.695zm18.812 2.078c.524 0 .574 0 .574-.453 0-2.414-1.293-4.66-4.183-4.66-2.723 0-4.828 2.461-4.828 5.426 0 3.152 2.437 5.468 5.09 5.468 2.843 0 3.921-2.578 3.921-3.082 0-.144-.12-.238-.265-.238-.192 0-.239.121-.285.238-.621 2.008-2.223 2.555-3.227 2.555s-3.418-.668-3.418-4.801v-.453zm-6.598-.453c.192-3.754 2.297-4.183 2.965-4.183 2.555 0 2.7 3.371 2.723 4.183zm11.86-3.609h3.37v-.696h-3.37v-4.394h-.528c-.023 2.246-.882 4.539-3.058 4.613v.477h2.031v6.644c0 2.653 1.77 3.199 3.035 3.199 1.508 0 2.297-1.48 2.297-3.199v-1.363h-.527v1.312c0 1.723-.692 2.723-1.625 2.723-1.625 0-1.625-2.219-1.625-2.625zm9.242-5.114c0-.621-.5-1.171-1.168-1.171-.625 0-1.148.503-1.148 1.148 0 .715.574 1.172 1.148 1.172.738 0 1.168-.625 1.168-1.149m-3.297 4.446v.691c1.528 0 1.746.145 1.746 1.313v6.5c0 1.078-.265 1.078-1.816 1.078v.691c.668-.047 1.816-.047 2.508-.047.261 0 1.648 0 2.46.047v-.691c-1.55 0-1.648-.121-1.648-1.051v-8.797zm30.574 4.469c0-2.223 0-2.891-.55-3.657-.692-.933-1.817-1.078-2.63-1.078-1.984 0-2.984 1.434-3.367 2.367-.335-1.84-1.624-2.367-3.132-2.367-2.317 0-3.227 1.985-3.414 2.461h-.028v-2.461l-3.25.266v.691c1.625 0 1.817.168 1.817 1.34v6.473c0 1.078-.262 1.078-1.817 1.078v.691c.621-.047 1.914-.047 2.582-.047.696 0 1.985 0 2.606.047v-.691c-1.532 0-1.817 0-1.817-1.078v-4.442c0-2.511 1.649-3.847 3.13-3.847 1.484 0 1.816 1.218 1.816 2.675v5.614c0 1.078-.262 1.078-1.817 1.078v.691c.621-.047 1.914-.047 2.582-.047.696 0 1.985 0 2.606.047v-.691c-1.532 0-1.817 0-1.817-1.078v-4.442c0-2.511 1.649-3.847 3.13-3.847s1.816 1.218 1.816 2.675v5.614c0 1.078-.262 1.078-1.817 1.078v.691c.621-.047 1.914-.047 2.582-.047.696 0 1.985 0 2.606.047v-.691c-1.195 0-1.793 0-1.817-.719zm11.52.261c.523 0 .574 0 .574-.453 0-2.414-1.293-4.66-4.183-4.66-2.723 0-4.829 2.461-4.829 5.426 0 3.152 2.438 5.468 5.09 5.468 2.844 0 3.922-2.578 3.922-3.082 0-.144-.121-.238-.265-.238-.192 0-.239.121-.286.238-.621 2.008-2.222 2.555-3.226 2.555s-3.418-.668-3.418-4.801v-.453zm-6.598-.453c.192-3.754 2.297-4.183 2.965-4.183 2.555 0 2.699 3.371 2.723 4.183zm18.477.192c0-2.223 0-2.891-.547-3.657-.695-.933-1.816-1.078-2.629-1.078-2.32 0-3.227 1.985-3.418 2.461h-.023v-2.461l-3.25.266v.691c1.625 0 1.816.168 1.816 1.34v6.473c0 1.078-.262 1.078-1.816 1.078v.691c.621-.047 1.91-.047 2.578-.047.695 0 1.984 0 2.605.047v-.691c-1.527 0-1.816 0-1.816-1.078v-4.442c0-2.511 1.648-3.847 3.133-3.847 1.48 0 1.816 1.218 1.816 2.675v5.614c0 1.078-.266 1.078-1.816 1.078v.691c.621-.047 1.91-.047 2.578-.047.695 0 1.984 0 2.605.047v-.691c-1.195 0-1.793 0-1.816-.719zm5.68-3.801h3.371v-.696h-3.371v-4.394h-.524c-.023 2.246-.883 4.539-3.059 4.613v.477h2.032v6.644c0 2.653 1.769 3.199 3.035 3.199 1.504 0 2.293-1.48 2.293-3.199v-1.363h-.527v1.312c0 1.723-.692 2.723-1.625 2.723-1.625 0-1.625-2.219-1.625-2.625zm9.078 4.039c0-2.321.957-4.492 2.797-4.492.191 0 .238 0 .335.023-.195.094-.574.238-.574.883 0 .695.547.957.93.957.48 0 .957-.313.957-.957 0-.715-.645-1.387-1.672-1.387-2.031 0-2.726 2.199-2.867 2.652h-.024v-2.652l-3.203.266v.691c1.625 0 1.817.168 1.817 1.34v6.473c0 1.078-.266 1.078-1.817 1.078v.691c.668-.047 1.985-.047 2.7-.047.644 0 2.339 0 2.89.047v-.691h-.476c-1.746 0-1.793-.266-1.793-1.125zm14.261.023c.528 0 .575 0 .575-.453 0-2.414-1.289-4.66-4.184-4.66-2.723 0-4.824 2.461-4.824 5.426 0 3.152 2.437 5.468 5.086 5.468 2.843 0 3.922-2.578 3.922-3.082 0-.144-.122-.238-.262-.238-.192 0-.242.121-.289.238-.621 2.008-2.223 2.555-3.227 2.555s-3.418-.668-3.418-4.801v-.453zm-6.597-.453c.191-3.754 2.297-4.183 2.965-4.183 2.558 0 2.699 3.371 2.722 4.183zm34.957-10.586-3.324.262v.691c1.625 0 1.816.168 1.816 1.34v12.52c0 1.078-.262 1.078-1.816 1.078v.691c.671-.047 1.839-.047 2.558-.047s1.91 0 2.582.047v-.691c-1.531 0-1.816 0-1.816-1.078zm9.754 6.309v.691c1.625 0 1.816.168 1.816 1.34v4.277c0 2.032-1.078 3.727-2.867 3.727-1.961 0-2.082-1.125-2.082-2.391v-7.91l-3.367.266v.691c1.816 0 1.816.07 1.816 2.199v3.582c0 1.485 0 2.344.715 3.133.574.621 1.555.906 2.773.906.407 0 1.172 0 1.985-.691.691-.551 1.074-1.461 1.074-1.461v2.152l3.32-.238v-.691c-1.625 0-1.816-.168-1.816-1.34v-8.508zm14.382 1.433c-.285 0-1.168 0-1.168.977 0 .574.407.98.981.98.547 0 1.004-.332 1.004-1.027 0-1.602-1.676-2.746-3.61-2.746-2.796 0-5.019 2.484-5.019 5.496 0 3.059 2.293 5.398 4.996 5.398 3.152 0 3.871-2.867 3.871-3.082s-.168-.214-.238-.214c-.219 0-.242.07-.313.359-.523 1.695-1.816 2.41-3.105 2.41-1.457 0-3.395-1.262-3.395-4.894 0-3.969 2.032-4.95 3.227-4.95.906 0 2.223.36 2.769 1.293m10.907 3.297c.523 0 .574 0 .574-.453 0-2.414-1.293-4.66-4.184-4.66-2.726 0-4.828 2.461-4.828 5.426 0 3.152 2.438 5.468 5.09 5.468 2.844 0 3.922-2.578 3.922-3.082 0-.144-.121-.238-.266-.238-.191 0-.242.121-.285.238-.625 2.008-2.223 2.555-3.226 2.555s-3.418-.668-3.418-4.801v-.453zm-6.598-.453c.191-3.754 2.297-4.183 2.965-4.183 2.555 0 2.699 3.371 2.723 4.183zm24.867-.383c0-1.289 0-2.246-1.051-3.179-.835-.762-1.914-1.098-2.964-1.098-1.957 0-3.465 1.289-3.465 2.844 0 .691.453 1.027 1.004 1.027.574 0 .98-.406.98-.98 0-.981-.859-.981-1.219-.981.551-1.004 1.696-1.433 2.653-1.433 1.097 0 2.508.91 2.508 3.058v.957c-4.801.07-6.618 2.078-6.618 3.918 0 1.891 2.2 2.484 3.657 2.484 1.574 0 2.652-.953 3.105-2.101.094 1.125.836 1.984 1.863 1.984.504 0 1.887-.336 1.887-2.246v-1.34h-.523v1.34c0 1.363-.575 1.555-.907 1.555-.91 0-.91-1.27-.91-1.625zm-1.554 3.012c0 2.34-1.743 3.129-2.774 3.129-1.168 0-2.148-.859-2.148-2.008 0-3.152 4.062-3.441 4.922-3.488zm12.679-5.473c-.285 0-1.168 0-1.168.977 0 .574.407.98.977.98.551 0 1.004-.332 1.004-1.027 0-1.602-1.672-2.746-3.606-2.746-2.797 0-5.019 2.484-5.019 5.496 0 3.059 2.293 5.398 4.996 5.398 3.152 0 3.871-2.867 3.871-3.082s-.168-.214-.242-.214c-.215 0-.239.07-.309.359-.527 1.695-1.816 2.41-3.109 2.41-1.457 0-3.391-1.262-3.391-4.894 0-3.969 2.031-4.95 3.227-4.95.906 0 2.222.36 2.769 1.293m10.403 0c-.289 0-1.172 0-1.172.977 0 .574.406.98.98.98.551 0 1.004-.332 1.004-1.027 0-1.602-1.672-2.746-3.609-2.746-2.797 0-5.02 2.484-5.02 5.496 0 3.059 2.293 5.398 4.996 5.398 3.157 0 3.871-2.867 3.871-3.082s-.168-.214-.238-.214c-.215 0-.242.07-.312.359-.524 1.695-1.817 2.41-3.106 2.41-1.457 0-3.394-1.262-3.394-4.894 0-3.969 2.031-4.95 3.226-4.95.906 0 2.223.36 2.774 1.293m10.902 3.297c.523 0 .574 0 .574-.453 0-2.414-1.293-4.66-4.183-4.66-2.723 0-4.829 2.461-4.829 5.426 0 3.152 2.438 5.468 5.09 5.468 2.844 0 3.922-2.578 3.922-3.082 0-.144-.121-.238-.265-.238-.192 0-.239.121-.286.238-.621 2.008-2.222 2.555-3.226 2.555s-3.418-.668-3.418-4.801v-.453zm-6.598-.453c.192-3.754 2.297-4.183 2.965-4.183 2.555 0 2.699 3.371 2.723 4.183zm15.684-4.109c0-.434 0-.551-.242-.551-.192 0-.645.523-.813.738-.738-.594-1.48-.738-2.246-.738-2.891 0-3.75 1.574-3.75 2.891 0 .261 0 1.097.906 1.933.766.672 1.578.84 2.676 1.055 1.317.262 1.625.332 2.223.812.429.36.742.883.742 1.551 0 1.027-.598 2.176-2.699 2.176-1.578 0-2.723-.906-3.25-3.297-.098-.43-.098-.453-.121-.477-.047-.097-.145-.097-.215-.097-.262 0-.262.121-.262.551v3.25c0 .429 0 .546.238.546.121 0 .145-.023.551-.527.117-.164.117-.211.477-.594.91 1.121 2.199 1.121 2.605 1.121 2.508 0 3.75-1.382 3.75-3.273 0-1.289-.789-2.055-1.004-2.269-.859-.739-1.504-.883-3.082-1.172-.715-.141-2.461-.477-2.461-1.911 0-.742.504-1.839 2.653-1.839 2.605 0 2.75 2.222 2.797 2.964.023.192.191.192.261.192.266 0 .266-.121.266-.551zm10.582 3.726c0-1.289 0-2.246-1.051-3.179-.836-.762-1.91-1.098-2.961-1.098-1.961 0-3.465 1.289-3.465 2.844 0 .691.453 1.027 1.004 1.027.574 0 .981-.406.981-.98 0-.981-.864-.981-1.219-.981.547-1.004 1.695-1.433 2.648-1.433 1.102 0 2.512.91 2.512 3.058v.957c-4.805.07-6.617 2.078-6.617 3.918 0 1.891 2.195 2.484 3.652 2.484 1.578 0 2.657-.953 3.11-2.101.093 1.125.836 1.984 1.863 1.984.5 0 1.887-.336 1.887-2.246v-1.34h-.524v1.34c0 1.363-.574 1.555-.91 1.555-.91 0-.91-1.27-.91-1.625zm-1.551 3.012c0 2.34-1.742 3.129-2.773 3.129-1.168 0-2.149-.859-2.149-2.008 0-3.152 4.063-3.441 4.922-3.488zm31.426-5.785c0-.645-.551-1.149-1.149-1.149-.691 0-1.168.551-1.168 1.149 0 .719.598 1.172 1.149 1.172.644 0 1.168-.5 1.168-1.172m0 7.984c0-.648-.551-1.148-1.149-1.148a1.15 1.15 0 0 0-1.168 1.148c0 .715.598 1.168 1.149 1.168.644 0 1.168-.5 1.168-1.168M406.023-52.68c0-1.289 0-2.246-1.05-3.18-.836-.765-1.91-1.097-2.965-1.097-1.957 0-3.465 1.289-3.465 2.844 0 .691.453 1.027 1.004 1.027.574 0 .98-.406.98-.98 0-.98-.859-.98-1.218-.98.55-1.005 1.699-1.434 2.652-1.434 1.102 0 2.508.91 2.508 3.058v.957c-4.801.07-6.617 2.078-6.617 3.918 0 1.89 2.199 2.484 3.656 2.484 1.578 0 2.652-.953 3.105-2.101.098 1.125.836 1.984 1.864 1.984.503 0 1.89-.336 1.89-2.246v-1.34h-.527v1.34c0 1.364-.574 1.551-.906 1.551-.911 0-.911-1.266-.911-1.625zm-1.554 3.012c0 2.34-1.742 3.129-2.77 3.129-1.172 0-2.152-.86-2.152-2.008 0-3.152 4.062-3.441 4.922-3.488zm9.886 7.308c-1.531 0-1.816 0-1.816-1.074v-4.156c.43.598 1.41 1.528 2.938 1.528 2.75 0 5.164-2.317 5.164-5.399 0-3.035-2.246-5.379-4.852-5.379-2.101 0-3.226 1.508-3.297 1.602v-1.602l-3.324.266v.691c1.676 0 1.816.168 1.816 1.219v11.23c0 1.075-.261 1.075-1.816 1.075v.695c.625-.047 1.914-.047 2.582-.047.691 0 1.984 0 2.605.047zm-1.816-11.562c0-.453 0-.48.262-.86.719-1.077 1.887-1.53 2.797-1.53 1.793 0 3.226 2.175 3.226 4.851 0 2.844-1.625 4.922-3.465 4.922a2.83 2.83 0 0 1-1.914-.766c-.547-.547-.906-1.027-.906-1.695zm12.953 2.055c0-2.32.953-4.492 2.793-4.492.192 0 .238 0 .336.023-.191.094-.574.238-.574.883 0 .695.551.957.933.957.477 0 .958-.313.958-.957 0-.715-.645-1.387-1.676-1.387-2.032 0-2.723 2.2-2.867 2.653h-.024v-2.653l-3.203.266v.691c1.625 0 1.816.168 1.816 1.34v6.473c0 1.078-.261 1.078-1.816 1.078v.691c.672-.047 1.984-.047 2.699-.047.649 0 2.344 0 2.895.047v-.691h-.481c-1.742 0-1.789-.266-1.789-1.125zm9.266-9.153c0-.62-.5-1.171-1.168-1.171-.625 0-1.149.504-1.149 1.148 0 .715.575 1.168 1.149 1.168.738 0 1.168-.621 1.168-1.145m-3.297 4.446v.691c1.527 0 1.742.145 1.742 1.313v6.5c0 1.078-.262 1.078-1.812 1.078v.691c.668-.047 1.812-.047 2.507-.047.262 0 1.649 0 2.461.047v-.691c-1.554 0-1.648-.121-1.648-1.051v-8.797zm19.293 14.214c-1.527 0-1.816 0-1.816-1.074v-4.156c.429.598 1.41 1.528 2.941 1.528 2.75 0 5.16-2.317 5.16-5.399 0-3.035-2.246-5.379-4.851-5.379-2.102 0-3.223 1.508-3.297 1.602v-1.602l-3.321.266v.691c1.672 0 1.817.168 1.817 1.219v11.23c0 1.075-.266 1.075-1.817 1.075v.695c.621-.047 1.91-.047 2.578-.047.696 0 1.985 0 2.606.047zm-1.816-11.562c0-.453 0-.48.265-.86a3.44 3.44 0 0 1 2.793-1.53c1.793 0 3.227 2.175 3.227 4.851 0 2.844-1.625 4.922-3.465 4.922a2.8 2.8 0 0 1-1.91-.766c-.551-.547-.91-1.027-.91-1.695zm20.632 2.508c0-3.082-2.343-5.543-5.117-5.543-2.863 0-5.137 2.531-5.137 5.543 0 3.059 2.391 5.352 5.114 5.352 2.82 0 5.14-2.34 5.14-5.352m-5.117 4.828c-.883 0-1.957-.383-2.652-1.555-.645-1.074-.668-2.484-.668-3.488 0-.91 0-2.367.738-3.441a3.07 3.07 0 0 1 2.559-1.41c.933 0 1.937.43 2.582 1.363.742 1.097.742 2.605.742 3.488 0 .836 0 2.316-.621 3.441-.668 1.149-1.77 1.602-2.68 1.602m9.84-5.281c0-2.32.953-4.492 2.793-4.492.191 0 .238 0 .336.023-.192.094-.574.238-.574.883 0 .695.55.957.933.957.477 0 .953-.313.953-.957 0-.715-.644-1.387-1.671-1.387-2.032 0-2.723 2.2-2.868 2.653h-.023v-2.653l-3.203.266v.691c1.625 0 1.816.168 1.816 1.34v6.473c0 1.078-.262 1.078-1.816 1.078v.691c.668-.047 1.984-.047 2.699-.047.645 0 2.344 0 2.895.047v-.691h-.481c-1.742 0-1.789-.266-1.789-1.125zm9.121-4.039h3.371v-.696h-3.371v-4.394h-.523c-.024 2.246-.887 4.539-3.063 4.613v.477h2.031v6.644c0 2.653 1.77 3.2 3.039 3.2 1.504 0 2.293-1.481 2.293-3.2v-1.363h-.527v1.313c0 1.722-.691 2.726-1.625 2.726-1.625 0-1.625-2.223-1.625-2.629zm14.309 3.226c0-1.289 0-2.246-1.051-3.18-.836-.765-1.91-1.097-2.961-1.097-1.961 0-3.469 1.289-3.469 2.844 0 .691.457 1.027 1.004 1.027.574 0 .981-.406.981-.98 0-.98-.86-.98-1.219-.98.551-1.005 1.699-1.434 2.652-1.434 1.102 0 2.512.91 2.512 3.058v.957c-4.805.07-6.621 2.078-6.621 3.918 0 1.89 2.199 2.484 3.656 2.484 1.578 0 2.652-.953 3.106-2.101.097 1.125.835 1.984 1.867 1.984.5 0 1.886-.336 1.886-2.246v-1.34h-.523v1.34c0 1.364-.574 1.551-.91 1.551-.91 0-.91-1.266-.91-1.625zm-1.551 3.012c0 2.34-1.746 3.129-2.774 3.129-1.171 0-2.152-.86-2.152-2.008 0-3.152 4.067-3.441 4.926-3.488zm-93.516-48.391c-1.531 0-1.816 0-1.816-1.074v-4.156c.43.594 1.406 1.527 2.937 1.527 2.75 0 5.161-2.316 5.161-5.398 0-3.035-2.243-5.379-4.848-5.379-2.106 0-3.227 1.508-3.301 1.601v-1.601l-3.32.266v.691c1.672 0 1.816.168 1.816 1.219v11.23c0 1.074-.262 1.074-1.816 1.074v.696c.621-.051 1.914-.051 2.582-.051.691 0 1.98 0 2.605.05zm-1.816-11.562c0-.457 0-.481.262-.863.718-1.075 1.886-1.528 2.796-1.528 1.79 0 3.223 2.172 3.223 4.852 0 2.84-1.625 4.922-3.465 4.922a2.83 2.83 0 0 1-1.91-.766c-.551-.551-.906-1.027-.906-1.695zm12.953 2.055c0-2.321.953-4.497 2.793-4.497.191 0 .238 0 .336.028-.192.094-.574.238-.574.883 0 .691.55.957.933.957.477 0 .953-.313.953-.957 0-.715-.644-1.387-1.671-1.387-2.032 0-2.723 2.199-2.868 2.652h-.023v-2.652l-3.203.266v.691c1.625 0 1.816.168 1.816 1.34v6.472c0 1.075-.262 1.075-1.816 1.075v.695c.668-.047 1.984-.047 2.699-.047.645 0 2.344 0 2.895.047v-.695h-.481c-1.742 0-1.789-.262-1.789-1.121zm14.262.023c.523 0 .574 0 .574-.453 0-2.414-1.293-4.66-4.184-4.66-2.726 0-4.828 2.461-4.828 5.422 0 3.156 2.438 5.472 5.09 5.472 2.844 0 3.922-2.582 3.922-3.082 0-.144-.121-.238-.266-.238-.191 0-.242.117-.285.238-.625 2.008-2.223 2.555-3.226 2.555s-3.418-.668-3.418-4.801v-.453zm-6.598-.453c.191-3.754 2.297-4.184 2.965-4.184 2.555 0 2.699 3.367 2.723 4.184zm24.977.191c0-2.226 0-2.894-.551-3.66-.692-.93-1.813-1.074-2.625-1.074-1.985 0-2.988 1.434-3.371 2.367-.336-1.84-1.625-2.367-3.129-2.367-2.32 0-3.227 1.984-3.418 2.461h-.027v-2.461l-3.25.266v.691c1.625 0 1.82.168 1.82 1.34v6.472c0 1.075-.266 1.075-1.82 1.075v.695c.625-.047 1.914-.047 2.582-.047.695 0 1.984 0 2.605.047v-.695c-1.531 0-1.816 0-1.816-1.075v-4.445c0-2.508 1.648-3.848 3.129-3.848 1.484 0 1.82 1.219 1.82 2.68v5.613c0 1.075-.266 1.075-1.82 1.075v.695c.625-.047 1.914-.047 2.582-.047.695 0 1.984 0 2.605.047v-.695c-1.531 0-1.816 0-1.816-1.075v-4.445c0-2.508 1.648-3.848 3.129-3.848 1.484 0 1.82 1.219 1.82 2.68v5.613c0 1.075-.266 1.075-1.82 1.075v.695c.625-.047 1.914-.047 2.582-.047.695 0 1.984 0 2.605.047v-.695c-1.195 0-1.793 0-1.816-.715zm6.523-8.914c0-.625-.5-1.172-1.168-1.172-.621 0-1.148.5-1.148 1.149a1.15 1.15 0 0 0 1.148 1.168c.738 0 1.168-.621 1.168-1.145m-3.297 4.446v.691c1.528 0 1.746.144 1.746 1.312v6.5c0 1.075-.265 1.075-1.816 1.075v.695c.668-.047 1.816-.047 2.508-.047.261 0 1.648 0 2.461.047v-.695c-1.551 0-1.649-.118-1.649-1.047v-8.797zm17.598-4.446c0-.625-.5-1.172-1.168-1.172-.625 0-1.149.5-1.149 1.149 0 .715.575 1.168 1.149 1.168.738 0 1.168-.621 1.168-1.145m-3.297 4.446v.691c1.527 0 1.742.144 1.742 1.312v6.5c0 1.075-.262 1.075-1.812 1.075v.695c.668-.047 1.812-.047 2.507-.047.262 0 1.649 0 2.461.047v-.695c-1.554 0-1.648-.118-1.648-1.047v-8.797zm16.273 4.468c0-2.226 0-2.894-.55-3.66-.692-.93-1.817-1.074-2.629-1.074-2.317 0-3.227 1.984-3.414 2.461h-.028v-2.461l-3.25.266v.691c1.625 0 1.817.168 1.817 1.34v6.472c0 1.075-.262 1.075-1.817 1.075v.695c.621-.047 1.914-.047 2.582-.047.696 0 1.985 0 2.606.047v-.695c-1.531 0-1.817 0-1.817-1.075v-4.445c0-2.508 1.649-3.848 3.129-3.848 1.485 0 1.817 1.219 1.817 2.68v5.613c0 1.075-.262 1.075-1.817 1.075v.695c.621-.047 1.914-.047 2.582-.047.696 0 1.985 0 2.606.047v-.695c-1.196 0-1.793 0-1.817-.715zm5.782-3.8h3.367v-.696h-3.367v-4.394h-.528c-.023 2.246-.883 4.539-3.058 4.609v.481h2.031v6.64c0 2.652 1.769 3.203 3.035 3.203 1.508 0 2.297-1.48 2.297-3.203v-1.359h-.527v1.312c0 1.723-.696 2.723-1.625 2.723-1.625 0-1.625-2.219-1.625-2.625zm14.238 4.062c.523 0 .574 0 .574-.453 0-2.414-1.293-4.66-4.183-4.66-2.723 0-4.829 2.461-4.829 5.422 0 3.156 2.438 5.472 5.09 5.472 2.844 0 3.922-2.582 3.922-3.082 0-.144-.121-.238-.265-.238-.192 0-.239.117-.286.238-.621 2.008-2.222 2.555-3.226 2.555s-3.418-.668-3.418-4.801v-.453zm-6.598-.453c.192-3.754 2.297-4.184 2.965-4.184 2.555 0 2.699 3.367 2.723 4.184zm11.836.43c0-2.321.953-4.497 2.793-4.497.192 0 .238 0 .336.028-.191.094-.574.238-.574.883 0 .691.551.957.933.957.477 0 .958-.313.958-.957 0-.715-.645-1.387-1.676-1.387-2.032 0-2.723 2.199-2.867 2.652h-.024v-2.652l-3.203.266v.691c1.625 0 1.816.168 1.816 1.34v6.472c0 1.075-.261 1.075-1.816 1.075v.695c.672-.047 1.984-.047 2.699-.047.649 0 2.344 0 2.895.047v-.695h-.481c-1.742 0-1.789-.262-1.789-1.121zm9.098 0c0-2.321.957-4.497 2.797-4.497.191 0 .238 0 .336.028-.192.094-.575.238-.575.883 0 .691.547.957.93.957.481 0 .957-.313.957-.957 0-.715-.644-1.387-1.672-1.387-2.031 0-2.722 2.199-2.867 2.652h-.023v-2.652l-3.203.266v.691c1.625 0 1.816.168 1.816 1.34v6.472c0 1.075-.266 1.075-1.816 1.075v.695c.668-.047 1.984-.047 2.699-.047.644 0 2.344 0 2.89.047v-.695h-.476c-1.742 0-1.793-.262-1.793-1.121zm12.375-4.707v.691c1.625 0 1.816.168 1.816 1.34v4.273c0 2.031-1.078 3.731-2.867 3.731-1.961 0-2.078-1.125-2.078-2.391v-7.91l-3.371.266v.691c1.816 0 1.816.07 1.816 2.199v3.582c0 1.481 0 2.344.715 3.133.574.621 1.555.906 2.774.906.406 0 1.171 0 1.984-.691.691-.551 1.074-1.461 1.074-1.461v2.152l3.32-.238v-.695c-1.625 0-1.812-.164-1.812-1.336v-8.508zm9.75.668h3.371v-.696h-3.371v-4.394h-.527c-.02 2.246-.883 4.539-3.059 4.609v.481h2.031v6.64c0 2.652 1.77 3.203 3.035 3.203 1.508 0 2.297-1.48 2.297-3.203v-1.359h-.527v1.312c0 1.723-.692 2.723-1.625 2.723-1.625 0-1.625-2.219-1.625-2.625zm9.098 0h3.371v-.696h-3.371v-4.394h-.524c-.023 2.246-.883 4.539-3.059 4.609v.481h2.032v6.64c0 2.652 1.769 3.203 3.035 3.203 1.504 0 2.293-1.48 2.293-3.203v-1.359h-.527v1.312c0 1.723-.692 2.723-1.625 2.723-1.625 0-1.625-2.219-1.625-2.625zm16.054 4.492c0-3.082-2.34-5.543-5.113-5.543-2.867 0-5.137 2.531-5.137 5.543 0 3.058 2.391 5.351 5.113 5.351 2.821 0 5.137-2.34 5.137-5.351m-5.113 4.824c-.883 0-1.957-.379-2.652-1.551-.645-1.074-.668-2.484-.668-3.488 0-.91 0-2.367.738-3.442a3.07 3.07 0 0 1 2.558-1.41c.934 0 1.938.43 2.583 1.364.742 1.097.742 2.601.742 3.488 0 .836 0 2.316-.625 3.441-.668 1.145-1.766 1.598-2.676 1.598m9.836-5.277c0-2.321.957-4.497 2.797-4.497.191 0 .238 0 .336.028-.192.094-.575.238-.575.883 0 .691.547.957.93.957.481 0 .957-.313.957-.957 0-.715-.644-1.387-1.672-1.387-2.031 0-2.722 2.199-2.867 2.652h-.023v-2.652l-3.203.266v.691c1.625 0 1.816.168 1.816 1.34v6.472c0 1.075-.266 1.075-1.816 1.075v.695c.668-.047 1.984-.047 2.699-.047.644 0 2.344 0 2.89.047v-.695h-.476c-1.742 0-1.793-.262-1.793-1.121zm14.262.023c.527 0 .574 0 .574-.453 0-2.414-1.289-4.66-4.184-4.66-2.722 0-4.824 2.461-4.824 5.422 0 3.156 2.437 5.472 5.09 5.472 2.844 0 3.918-2.582 3.918-3.082 0-.144-.121-.238-.262-.238-.191 0-.242.117-.285.238-.625 2.008-2.223 2.555-3.231 2.555-1 0-3.414-.668-3.414-4.801v-.453zm-6.594-.453c.191-3.754 2.293-4.184 2.961-4.184 2.558 0 2.703 3.367 2.726 4.184zm-195.121-66.91c0-.434 0-.551-.239-.551-.191 0-.644.523-.812.738-.742-.594-1.481-.738-2.246-.738-2.891 0-3.75 1.574-3.75 2.891 0 .261 0 1.097.906 1.933.766.672 1.578.84 2.676 1.055 1.316.262 1.625.332 2.223.812.429.36.742.883.742 1.551 0 1.027-.598 2.176-2.699 2.176-1.579 0-2.723-.906-3.25-3.297-.098-.43-.098-.453-.122-.477-.046-.097-.144-.097-.214-.097-.262 0-.262.121-.262.551v3.25c0 .429 0 .546.238.546.117 0 .141-.023.551-.527.117-.164.117-.211.476-.594.907 1.121 2.2 1.121 2.606 1.121 2.508 0 3.75-1.382 3.75-3.273 0-1.289-.789-2.055-1.004-2.269-.859-.739-1.504-.883-3.082-1.172-.719-.141-2.461-.477-2.461-1.911 0-.742.5-1.839 2.652-1.839 2.606 0 2.747 2.222 2.797 2.964.024.192.192.192.262.192.262 0 .262-.121.262-.551zm10.515 4.562c.528 0 .575 0 .575-.453 0-2.414-1.289-4.66-4.184-4.66-2.723 0-4.824 2.461-4.824 5.426 0 3.152 2.437 5.468 5.086 5.468 2.843 0 3.922-2.578 3.922-3.082 0-.144-.122-.238-.262-.238-.192 0-.242.121-.289.238-.621 2.008-2.223 2.555-3.227 2.555s-3.418-.668-3.418-4.801v-.453zm-6.597-.453c.191-3.754 2.297-4.183 2.965-4.183 2.558 0 2.699 3.371 2.722 4.183zm36.699 9.938c-1.527 0-1.816 0-1.816-1.075v-4.156c.429.598 1.41 1.527 2.941 1.527 2.75 0 5.16-2.316 5.16-5.398 0-3.035-2.246-5.379-4.851-5.379-2.102 0-3.223 1.508-3.297 1.602v-1.602l-3.321.266v.691c1.672 0 1.817.168 1.817 1.219v11.23c0 1.075-.266 1.075-1.817 1.075v.695c.621-.051 1.91-.051 2.578-.051.696 0 1.985 0 2.606.051zm-1.816-11.563c0-.457 0-.48.265-.859.715-1.078 1.887-1.532 2.793-1.532 1.793 0 3.227 2.176 3.227 4.852 0 2.844-1.625 4.922-3.465 4.922a2.8 2.8 0 0 1-1.91-.766c-.551-.547-.91-1.027-.91-1.695zm20.632 2.508c0-3.082-2.343-5.543-5.117-5.543-2.863 0-5.137 2.531-5.137 5.543 0 3.059 2.391 5.351 5.114 5.351 2.82 0 5.14-2.339 5.14-5.351m-5.117 4.824c-.883 0-1.957-.379-2.652-1.551-.645-1.074-.668-2.484-.668-3.488 0-.91 0-2.367.738-3.441a3.07 3.07 0 0 1 2.559-1.41c.933 0 1.937.429 2.582 1.363.742 1.097.742 2.605.742 3.488 0 .836 0 2.316-.621 3.441-.668 1.149-1.77 1.598-2.68 1.598m9.84-5.277c0-2.321.953-4.492 2.793-4.492.191 0 .238 0 .336.023-.192.094-.574.238-.574.883 0 .695.55.957.933.957.477 0 .953-.313.953-.957 0-.715-.644-1.387-1.671-1.387-2.032 0-2.723 2.199-2.868 2.652h-.023v-2.652l-3.203.266v.691c1.625 0 1.816.168 1.816 1.34v6.473c0 1.078-.262 1.078-1.816 1.078v.691c.668-.047 1.984-.047 2.699-.047.645 0 2.344 0 2.895.047v-.691h-.481c-1.742 0-1.789-.266-1.789-1.125zm9.121-4.039h3.371v-.696h-3.371v-4.394h-.523c-.024 2.246-.887 4.539-3.063 4.613v.477h2.031v6.644c0 2.653 1.77 3.199 3.039 3.199 1.504 0 2.293-1.48 2.293-3.199v-1.363h-.527v1.312c0 1.723-.691 2.723-1.625 2.723-1.625 0-1.625-2.219-1.625-2.625zm14.309 3.226c0-1.289 0-2.246-1.051-3.179-.836-.762-1.91-1.098-2.961-1.098-1.961 0-3.469 1.289-3.469 2.844 0 .691.457 1.027 1.004 1.027.574 0 .981-.406.981-.98 0-.981-.86-.981-1.219-.981.551-1.004 1.699-1.433 2.652-1.433 1.102 0 2.512.91 2.512 3.058v.957c-4.805.07-6.621 2.078-6.621 3.918 0 1.891 2.199 2.484 3.656 2.484 1.578 0 2.652-.953 3.106-2.101.097 1.125.835 1.984 1.867 1.984.5 0 1.886-.336 1.886-2.246v-1.34h-.523v1.34c0 1.363-.574 1.555-.91 1.555-.91 0-.91-1.27-.91-1.625zm-1.551 3.012c0 2.34-1.746 3.129-2.774 3.129-1.171 0-2.152-.859-2.152-2.008 0-3.152 4.067-3.441 4.926-3.488zm20.476-5.473c-.285 0-1.168 0-1.168.977 0 .574.407.98.981.98.547 0 1.004-.332 1.004-1.027 0-1.602-1.672-2.746-3.61-2.746-2.796 0-5.019 2.484-5.019 5.496 0 3.059 2.293 5.398 4.996 5.398 3.152 0 3.871-2.867 3.871-3.082s-.168-.214-.238-.214c-.219 0-.242.07-.313.359-.523 1.695-1.816 2.41-3.105 2.41-1.457 0-3.395-1.262-3.395-4.894 0-3.969 2.032-4.95 3.227-4.95.906 0 2.223.36 2.769 1.293m11.688 3.036c0-2.223 0-2.891-.551-3.657-.695-.933-1.816-1.078-2.629-1.078-2.054 0-3.011 1.555-3.343 2.297h-.028v-8.34l-3.32.262v.691c1.625 0 1.816.168 1.816 1.34v12.52c0 1.078-.261 1.078-1.816 1.078v.691c.621-.047 1.914-.047 2.582-.047.691 0 1.984 0 2.601.047v-.691c-1.527 0-1.812 0-1.812-1.078v-4.442c0-2.511 1.648-3.847 3.129-3.847 1.48 0 1.816 1.218 1.816 2.675v5.614c0 1.078-.265 1.078-1.816 1.078v.691c.621-.047 1.914-.047 2.582-.047.691 0 1.98 0 2.601.047v-.691c-1.195 0-1.789 0-1.812-.719zm6.523-8.915c0-.621-.504-1.171-1.171-1.171-.622 0-1.145.503-1.145 1.148 0 .715.57 1.172 1.145 1.172.742 0 1.171-.625 1.171-1.149m-3.296 4.446v.691c1.527 0 1.742.145 1.742 1.313v6.5c0 1.078-.262 1.078-1.817 1.078v.691c.668-.047 1.817-.047 2.508-.047.266 0 1.652 0 2.465.047v-.691c-1.555 0-1.648-.121-1.648-1.051v-8.797zm12.902 0v.691c1.625 0 1.816.168 1.816 1.34v4.277c0 2.032-1.078 3.727-2.867 3.727-1.961 0-2.078-1.125-2.078-2.391v-7.91l-3.371.266v.691c1.816 0 1.816.07 1.816 2.199v3.582c0 1.485 0 2.344.715 3.133.574.621 1.555.906 2.774.906.406 0 1.171 0 1.984-.691.691-.551 1.074-1.461 1.074-1.461v2.152l3.32-.238v-.691c-1.625 0-1.812-.168-1.812-1.34v-8.508zm13.574.168c0-.434 0-.551-.242-.551-.188 0-.641.523-.813.738-.738-.594-1.48-.738-2.242-.738-2.894 0-3.754 1.574-3.754 2.891 0 .261 0 1.097.91 1.933.762.672 1.575.84 2.676 1.055 1.313.262 1.625.332 2.223.812.43.36.738.883.738 1.551 0 1.027-.597 2.176-2.699 2.176-1.578 0-2.723-.906-3.25-3.297-.094-.43-.094-.453-.117-.477-.051-.097-.145-.097-.215-.097-.266 0-.266.121-.266.551v3.25c0 .429 0 .546.239.546.121 0 .144-.023.55-.527.121-.164.121-.211.477-.594.91 1.121 2.199 1.121 2.605 1.121 2.508 0 3.75-1.382 3.75-3.273 0-1.289-.785-2.055-1-2.269-.863-.739-1.507-.883-3.086-1.172-.714-.141-2.46-.477-2.46-1.911 0-.742.503-1.839 2.656-1.839 2.601 0 2.746 2.222 2.793 2.964.023.192.191.192.261.192.266 0 .266-.121.266-.551zm10.684 3.726c0-1.289 0-2.246-1.051-3.179-.836-.762-1.91-1.098-2.961-1.098-1.961 0-3.469 1.289-3.469 2.844 0 .691.457 1.027 1.004 1.027.574 0 .981-.406.981-.98 0-.981-.86-.981-1.219-.981.551-1.004 1.699-1.433 2.652-1.433 1.102 0 2.512.91 2.512 3.058v.957c-4.805.07-6.621 2.078-6.621 3.918 0 1.891 2.199 2.484 3.656 2.484 1.578 0 2.652-.953 3.106-2.101.097 1.125.835 1.984 1.867 1.984.5 0 1.886-.336 1.886-2.246v-1.34h-.523v1.34c0 1.363-.574 1.555-.91 1.555-.91 0-.91-1.27-.91-1.625zm-1.551 3.012c0 2.34-1.746 3.129-2.774 3.129-1.171 0-2.152-.859-2.152-2.008 0-3.152 4.067-3.441 4.926-3.488zm31.141-6.238h2.699v-.696h-2.75v-2.793c0-2.152 1.097-3.25 2.082-3.25.187 0 .547.047.836.192-.098.023-.696.238-.696.93 0 .55.383.933.934.933.574 0 .953-.383.953-.957 0-.883-.859-1.574-2.004-1.574-1.676 0-3.562 1.289-3.562 3.726v2.793h-1.864v.696h1.864v7.836c0 1.078-.262 1.078-1.817 1.078v.691c.668-.047 1.985-.047 2.7-.047.648 0 2.343 0 2.89.047v-.691h-.476c-1.743 0-1.789-.266-1.789-1.125zm12.21 3.226c0-1.289 0-2.246-1.05-3.179-.836-.762-1.91-1.098-2.965-1.098-1.957 0-3.465 1.289-3.465 2.844 0 .691.453 1.027 1.004 1.027.574 0 .98-.406.98-.98 0-.981-.859-.981-1.218-.981.55-1.004 1.699-1.433 2.652-1.433 1.102 0 2.508.91 2.508 3.058v.957c-4.801.07-6.617 2.078-6.617 3.918 0 1.891 2.199 2.484 3.656 2.484 1.578 0 2.652-.953 3.105-2.101.098 1.125.836 1.984 1.864 1.984.503 0 1.89-.336 1.89-2.246v-1.34h-.527v1.34c0 1.363-.574 1.555-.906 1.555-.911 0-.911-1.27-.911-1.625zm-1.554 3.012c0 2.34-1.742 3.129-2.77 3.129-1.172 0-2.152-.859-2.152-2.008 0-3.152 4.062-3.441 4.922-3.488zm8.187-11.352c0-.621-.5-1.171-1.168-1.171a1.15 1.15 0 0 0-1.148 1.148c0 .715.574 1.172 1.148 1.172.739 0 1.168-.625 1.168-1.149m-3.297 4.446v.691c1.532 0 1.746.145 1.746 1.313v6.5c0 1.078-.261 1.078-1.816 1.078v.691c.668-.047 1.816-.047 2.508-.047.266 0 1.648 0 2.461.047v-.691c-1.551 0-1.649-.121-1.649-1.051v-8.797zm10.039 1.121c0-.645-.55-1.149-1.148-1.149-.695 0-1.172.551-1.172 1.149 0 .719.598 1.172 1.149 1.172.644 0 1.171-.5 1.171-1.172m0 7.984c0-.648-.55-1.148-1.148-1.148a1.15 1.15 0 0 0-1.172 1.148c0 .715.598 1.168 1.149 1.168.644 0 1.171-.5 1.171-1.168m-217.609-85.117-3.32.266v.691c1.625 0 1.816.168 1.816 1.34v14.289h.528c.093-.191.761-1.387.859-1.555.547.887 1.574 1.793 3.105 1.793 2.75 0 5.161-2.316 5.161-5.398 0-3.035-2.243-5.379-4.899-5.379-1.312 0-2.437.598-3.25 1.601zm.051 8.938c0-.43 0-.477.262-.86.574-.859 1.625-1.555 2.796-1.555.715 0 3.223.29 3.223 4.875 0 1.602-.238 2.606-.808 3.469-.481.739-1.434 1.481-2.629 1.481-1.293 0-2.129-.836-2.536-1.481-.308-.504-.308-.601-.308-1.008zm13.07-8.938-3.32.266v.691c1.625 0 1.816.168 1.816 1.34v12.519c0 1.075-.265 1.075-1.816 1.075v.695c.668-.047 1.84-.047 2.555-.047.718 0 1.914 0 2.582.047v-.695c-1.532 0-1.817 0-1.817-1.075zm13.36 11.473c0-3.082-2.344-5.543-5.114-5.543-2.867 0-5.14 2.531-5.14 5.543 0 3.058 2.39 5.351 5.117 5.351 2.816 0 5.137-2.34 5.137-5.351m-5.114 4.824c-.886 0-1.961-.379-2.652-1.551-.649-1.074-.672-2.484-.672-3.488 0-.91 0-2.367.742-3.442a3.06 3.06 0 0 1 2.559-1.41c.93 0 1.933.43 2.578 1.364.742 1.097.742 2.601.742 3.488 0 .836 0 2.316-.621 3.441-.668 1.145-1.769 1.598-2.676 1.598m15.094-8.555c-.285 0-1.172 0-1.172.981 0 .574.406.98.981.98.55 0 1.004-.336 1.004-1.027 0-1.602-1.672-2.746-3.61-2.746-2.793 0-5.015 2.484-5.015 5.496 0 3.058 2.292 5.398 4.992 5.398 3.156 0 3.871-2.867 3.871-3.082s-.168-.215-.238-.215c-.215 0-.239.071-.309.36-.527 1.695-1.816 2.41-3.109 2.41-1.457 0-3.391-1.266-3.391-4.899 0-3.964 2.031-4.945 3.223-4.945.91 0 2.226.36 2.773 1.289m10.398 0c-.285 0-1.168 0-1.168.981 0 .574.407.98.981.98.547 0 1.004-.336 1.004-1.027 0-1.602-1.672-2.746-3.61-2.746-2.796 0-5.019 2.484-5.019 5.496 0 3.058 2.293 5.398 4.996 5.398 3.152 0 3.871-2.867 3.871-3.082s-.168-.215-.238-.215c-.219 0-.242.071-.313.36-.523 1.695-1.816 2.41-3.105 2.41-1.457 0-3.395-1.266-3.395-4.899 0-3.964 2.032-4.945 3.227-4.945.906 0 2.223.36 2.769 1.289m12.719 3.731c0-3.082-2.34-5.543-5.113-5.543-2.867 0-5.137 2.531-5.137 5.543 0 3.058 2.391 5.351 5.113 5.351 2.821 0 5.137-2.34 5.137-5.351m-5.113 4.824c-.883 0-1.957-.379-2.652-1.551-.645-1.074-.668-2.484-.668-3.488 0-.91 0-2.367.738-3.442a3.07 3.07 0 0 1 2.558-1.41c.934 0 1.938.43 2.583 1.364.742 1.097.742 2.601.742 3.488 0 .836 0 2.316-.625 3.441-.668 1.145-1.766 1.598-2.676 1.598m20.527-15.027c0-.551 0-.575-.476-.575-.575.645-1.77 1.528-4.231 1.528v.695c.551 0 1.746 0 3.059-.621v12.449c0 .86-.07 1.145-2.172 1.145h-.742v.695c.644-.047 2.961-.047 3.75-.047s3.086 0 3.726.047v-.695h-.738c-2.102 0-2.176-.285-2.176-1.145z"/></g></svg>