<svg xmlns="http://www.w3.org/2000/svg" width="40" height="364pt" viewBox="0 -364 30 364"><g id="page1"><path fill="#944520" d="M.426-.832V-362.25a3.01 3.01 0 0 1 3.012 0V-.832a3.03 3.03 0 0 1-3.012 0"/><path fill="none" stroke="#000" stroke-linecap="round" stroke-linejoin="round" stroke-width=".85" d="M.426-.832V-362.25a3.01 3.01 0 0 1 3.012 0V-.832a3.03 3.03 0 0 1-3.012 0"/><path fill="#944520" d="M26.027-.832V-362.25a3 3 0 0 1 3.008 0V-.832a3.02 3.02 0 0 1-3.008 0"/><path fill="none" stroke="#000" stroke-linecap="round" stroke-linejoin="round" stroke-width=".85" d="M26.027-.832V-362.25a3 3 0 0 1 3.008 0V-.832a3.02 3.02 0 0 1-3.008 0"/><path fill="#944520" d="M3.438-17.398h22.59c.535.93.535 2.078 0 3.011H3.437a3.01 3.01 0 0 1 0-3.011"/><path fill="none" stroke="#000" stroke-linecap="round" stroke-linejoin="round" stroke-width=".85" d="M3.438-17.398h22.59c.535.93.535 2.078 0 3.011H3.437a3.01 3.01 0 0 1 0-3.011"/><path fill="#944520" d="M3.438-32.457h22.59c.535.93.535 2.078 0 3.012H3.437a3.01 3.01 0 0 1 0-3.012"/><path fill="none" stroke="#000" stroke-linecap="round" stroke-linejoin="round" stroke-width=".85" d="M3.438-32.457h22.59c.535.93.535 2.078 0 3.012H3.437a3.01 3.01 0 0 1 0-3.012"/><path fill="#944520" d="M3.438-47.516h22.59c.535.93.535 2.078 0 3.012H3.437a3.01 3.01 0 0 1 0-3.012"/><path fill="none" stroke="#000" stroke-linecap="round" stroke-linejoin="round" stroke-width=".85" d="M3.438-47.516h22.59c.535.93.535 2.078 0 3.012H3.437a3.01 3.01 0 0 1 0-3.012"/><path fill="#944520" d="M3.438-62.574h22.59c.535.93.535 2.078 0 3.011H3.437a3.01 3.01 0 0 1 0-3.011"/><path fill="none" stroke="#000" stroke-linecap="round" stroke-linejoin="round" stroke-width=".85" d="M3.438-62.574h22.59c.535.93.535 2.078 0 3.011H3.437a3.01 3.01 0 0 1 0-3.011"/><path fill="#944520" d="M3.438-77.637h22.59a3.03 3.03 0 0 1 0 3.016H3.437a3.01 3.01 0 0 1 0-3.016"/><path fill="none" stroke="#000" stroke-linecap="round" stroke-linejoin="round" stroke-width=".85" d="M3.438-77.637h22.59a3.03 3.03 0 0 1 0 3.016H3.437a3.01 3.01 0 0 1 0-3.016"/><path fill="#944520" d="M3.438-92.695h22.59a3.03 3.03 0 0 1 0 3.011H3.437a3.01 3.01 0 0 1 0-3.011"/><path fill="none" stroke="#000" stroke-linecap="round" stroke-linejoin="round" stroke-width=".85" d="M3.438-92.695h22.59a3.03 3.03 0 0 1 0 3.011H3.437a3.01 3.01 0 0 1 0-3.011"/><path fill="#944520" d="M3.438-107.754h22.59a3.03 3.03 0 0 1 0 3.012H3.437a3.01 3.01 0 0 1 0-3.012"/><path fill="none" stroke="#000" stroke-linecap="round" stroke-linejoin="round" stroke-width=".85" d="M3.438-107.754h22.59a3.03 3.03 0 0 1 0 3.012H3.437a3.01 3.01 0 0 1 0-3.012"/><path fill="#944520" d="M3.438-122.813h22.59a3.03 3.03 0 0 1 0 3.012H3.437a3.01 3.01 0 0 1 0-3.012"/><path fill="none" stroke="#000" stroke-linecap="round" stroke-linejoin="round" stroke-width=".85" d="M3.438-122.813h22.59a3.03 3.03 0 0 1 0 3.012H3.437a3.01 3.01 0 0 1 0-3.012"/><path fill="#944520" d="M3.438-137.871h22.59a3.03 3.03 0 0 1 0 3.012H3.437a3.01 3.01 0 0 1 0-3.012"/><path fill="none" stroke="#000" stroke-linecap="round" stroke-linejoin="round" stroke-width=".85" d="M3.438-137.871h22.59a3.03 3.03 0 0 1 0 3.012H3.437a3.01 3.01 0 0 1 0-3.012"/><path fill="#944520" d="M3.438-152.93h22.59a3.03 3.03 0 0 1 0 3.012H3.437a3.01 3.01 0 0 1 0-3.012"/><path fill="none" stroke="#000" stroke-linecap="round" stroke-linejoin="round" stroke-width=".85" d="M3.438-152.93h22.59a3.03 3.03 0 0 1 0 3.012H3.437a3.01 3.01 0 0 1 0-3.012"/><path fill="#944520" d="M3.438-167.988h22.59a3.02 3.02 0 0 1 0 3.011H3.437a3 3 0 0 1 0-3.011"/><path fill="none" stroke="#000" stroke-linecap="round" stroke-linejoin="round" stroke-width=".85" d="M3.438-167.988h22.59a3.02 3.02 0 0 1 0 3.011H3.437a3 3 0 0 1 0-3.011"/><path fill="#944520" d="M3.438-183.047h22.59c.535.93.535 2.078 0 3.012H3.437a3.01 3.01 0 0 1 0-3.012"/><path fill="none" stroke="#000" stroke-linecap="round" stroke-linejoin="round" stroke-width=".85" d="M3.438-183.047h22.59c.535.93.535 2.078 0 3.012H3.437a3.01 3.01 0 0 1 0-3.012"/><path fill="#944520" d="M3.438-198.105h22.59a3.02 3.02 0 0 1 0 3.011H3.437a3 3 0 0 1 0-3.011"/><path fill="none" stroke="#000" stroke-linecap="round" stroke-linejoin="round" stroke-width=".85" d="M3.438-198.105h22.59a3.02 3.02 0 0 1 0 3.011H3.437a3 3 0 0 1 0-3.011"/><path fill="#944520" d="M3.438-213.164h22.59c.535.93.535 2.078 0 3.012H3.437a3.01 3.01 0 0 1 0-3.012"/><path fill="none" stroke="#000" stroke-linecap="round" stroke-linejoin="round" stroke-width=".85" d="M3.438-213.164h22.59c.535.93.535 2.078 0 3.012H3.437a3.01 3.01 0 0 1 0-3.012"/><path fill="#944520" d="M3.438-228.227h22.59a3.03 3.03 0 0 1 0 3.012H3.437a3.01 3.01 0 0 1 0-3.012"/><path fill="none" stroke="#000" stroke-linecap="round" stroke-linejoin="round" stroke-width=".85" d="M3.438-228.227h22.59a3.03 3.03 0 0 1 0 3.012H3.437a3.01 3.01 0 0 1 0-3.012"/><path fill="#944520" d="M3.438-243.285h22.59a3.03 3.03 0 0 1 0 3.012H3.437a3.01 3.01 0 0 1 0-3.012"/><path fill="none" stroke="#000" stroke-linecap="round" stroke-linejoin="round" stroke-width=".85" d="M3.438-243.285h22.59a3.03 3.03 0 0 1 0 3.012H3.437a3.01 3.01 0 0 1 0-3.012"/><path fill="#944520" d="M3.438-258.344h22.59a3.03 3.03 0 0 1 0 3.012H3.437a3.01 3.01 0 0 1 0-3.012"/><path fill="none" stroke="#000" stroke-linecap="round" stroke-linejoin="round" stroke-width=".85" d="M3.438-258.344h22.59a3.03 3.03 0 0 1 0 3.012H3.437a3.01 3.01 0 0 1 0-3.012"/><path fill="#944520" d="M3.438-273.402h22.59a3.02 3.02 0 0 1 0 3.011H3.437a3 3 0 0 1 0-3.011"/><path fill="none" stroke="#000" stroke-linecap="round" stroke-linejoin="round" stroke-width=".85" d="M3.438-273.402h22.59a3.02 3.02 0 0 1 0 3.011H3.437a3 3 0 0 1 0-3.011"/><path fill="#944520" d="M3.438-288.461h22.59c.535.93.535 2.078 0 3.012H3.437a3.01 3.01 0 0 1 0-3.012"/><path fill="none" stroke="#000" stroke-linecap="round" stroke-linejoin="round" stroke-width=".85" d="M3.438-288.461h22.59c.535.93.535 2.078 0 3.012H3.437a3.01 3.01 0 0 1 0-3.012"/><path fill="#944520" d="M3.438-303.52h22.59c.535.93.535 2.079 0 3.012H3.437a3.01 3.01 0 0 1 0-3.012"/><path fill="none" stroke="#000" stroke-linecap="round" stroke-linejoin="round" stroke-width=".85" d="M3.438-303.52h22.59c.535.93.535 2.079 0 3.012H3.437a3.01 3.01 0 0 1 0-3.012"/><path fill="#944520" d="M3.438-318.578h22.59c.535.93.535 2.078 0 3.012H3.437a3.01 3.01 0 0 1 0-3.012"/><path fill="none" stroke="#000" stroke-linecap="round" stroke-linejoin="round" stroke-width=".85" d="M3.438-318.578h22.59c.535.93.535 2.078 0 3.012H3.437a3.01 3.01 0 0 1 0-3.012"/><path fill="#944520" d="M3.438-333.641h22.59a3.03 3.03 0 0 1 0 3.012H3.437a3.01 3.01 0 0 1 0-3.012"/><path fill="none" stroke="#000" stroke-linecap="round" stroke-linejoin="round" stroke-width=".85" d="M3.438-333.641h22.59a3.03 3.03 0 0 1 0 3.012H3.437a3.01 3.01 0 0 1 0-3.012"/><path fill="#944520" d="M3.438-348.699h22.59a3.02 3.02 0 0 1 0 3.011H3.437a3 3 0 0 1 0-3.011"/><path fill="none" stroke="#000" stroke-linecap="round" stroke-linejoin="round" stroke-width=".85" d="M3.438-348.699h22.59a3.02 3.02 0 0 1 0 3.011H3.437a3 3 0 0 1 0-3.011"/></g></svg>