<svg xmlns="http://www.w3.org/2000/svg" width="229pt" height="248" viewBox="0 -186 229 186"><g id="page1"><path fill="none" stroke="#000" stroke-linecap="round" stroke-linejoin="round" stroke-width="2" d="M1-14.668v-170.078h226.77v170.078z"/><path fill="#0000bf" d="M15.172-14.668H43.52v-57.66H15.172Z"/><path fill="none" stroke="#000" stroke-linecap="round" stroke-linejoin="round" stroke-width="2" d="M15.172-14.668v-57.66H43.52v57.66z"/><path fill="#0000bf" d="M57.691-14.668H86.04v-86.371H57.691Z"/><path fill="none" stroke="#000" stroke-linecap="round" stroke-linejoin="round" stroke-width="2" d="M57.691-14.668v-86.371H86.04v86.371z"/><path fill="#0000bf" d="M100.215-14.668h28.344v-2.152h-28.344Z"/><path fill="none" stroke="#000" stroke-linecap="round" stroke-linejoin="round" stroke-width="2" d="M100.215-14.668v-2.152h28.344v2.152z"/><path fill="#0000bf" d="M142.73-14.668h28.348v-.719H142.73Z"/><path fill="none" stroke="#000" stroke-linecap="round" stroke-linejoin="round" stroke-width="2" d="M142.73-14.668v-.719h28.348v.719z"/><path fill="#0000bf" d="M185.254-14.668h28.344v-151.445h-28.344Z"/><path fill="none" stroke="#000" stroke-linecap="round" stroke-linejoin="round" stroke-width="2" d="M185.254-14.668v-151.445h28.344v151.445z"/><path d="M80.676-176.777c0-.325 0-.414-.18-.414-.144 0-.484.394-.61.558-.554-.449-1.109-.558-1.683-.558-2.168 0-2.812 1.183-2.812 2.168 0 .199 0 .824.68 1.453.573.5 1.183.625 2.007.789.984.195 1.219.25 1.664.609.324.266.559.66.559 1.164 0 .77-.45 1.629-2.028 1.629-1.18 0-2.039-.68-2.433-2.473-.074-.32-.074-.339-.09-.359-.035-.07-.11-.07-.164-.07-.195 0-.195.09-.195.414v2.433c0 .325 0 .414.18.414.09 0 .109-.019.413-.394.086-.125.086-.164.356-.449.683.843 1.648.843 1.953.843 1.883 0 2.813-1.039 2.813-2.457 0-.964-.59-1.539-.754-1.699-.641-.558-1.125-.664-2.309-.879-.54-.109-1.848-.359-1.848-1.433 0-.555.38-1.379 1.993-1.379 1.953 0 2.058 1.664 2.093 2.222.02.141.145.141.2.141.195 0 .195-.09.195-.41zm7.984 3.422c.395 0 .43 0 .43-.34 0-1.813-.965-3.496-3.133-3.496-2.043 0-3.621 1.847-3.621 4.07 0 2.363 1.828 4.101 3.816 4.101 2.133 0 2.938-1.937 2.938-2.312 0-.106-.09-.18-.196-.18-.144 0-.18.09-.214.18-.465 1.504-1.668 1.918-2.418 1.918-.754 0-2.563-.504-2.563-3.602v-.339zm-4.941-.34c.14-2.813 1.719-3.137 2.219-3.137 1.918 0 2.023 2.527 2.043 3.137zm12.367-2.133c-.215 0-.879 0-.879.734 0 .43.305.735.734.735.41 0 .754-.25.754-.77 0-1.199-1.254-2.062-2.707-2.062-2.094 0-3.761 1.863-3.761 4.121 0 2.293 1.718 4.05 3.746 4.05 2.363 0 2.902-2.152 2.902-2.312s-.125-.16-.18-.16c-.164 0-.18.054-.234.265-.395 1.274-1.36 1.813-2.328 1.813-1.094 0-2.543-.949-2.543-3.676 0-2.973 1.52-3.707 2.418-3.707.68 0 1.664.27 2.078.969m9.535 2.793c0-2.309-1.754-4.156-3.832-4.156-2.148 0-3.852 1.902-3.852 4.156 0 2.293 1.794 4.015 3.836 4.015 2.11 0 3.848-1.757 3.848-4.015m-3.832 3.621c-.66 0-1.469-.289-1.988-1.164-.485-.809-.504-1.863-.504-2.617 0-.68 0-1.774.559-2.578a2.29 2.29 0 0 1 1.917-1.059c.696 0 1.45.324 1.934 1.019.555.829.555 1.954.555 2.618 0 .625 0 1.738-.465 2.578-.504.863-1.328 1.203-2.008 1.203m12.281-4.141c0-1.664 0-2.164-.41-2.738-.519-.699-1.363-.809-1.972-.809-1.735 0-2.418 1.489-2.559 1.848h-.02v-1.848l-2.437.2v.519c1.219 0 1.363.125 1.363 1v4.86c0 .804-.195.804-1.363.804v.52c.469-.035 1.433-.035 1.937-.035.52 0 1.485 0 1.954.035v-.52c-1.149 0-1.364 0-1.364-.804v-3.336c0-1.879 1.239-2.883 2.348-2.883s1.359.914 1.359 2.008v4.211c0 .804-.195.804-1.359.804v.52c.465-.035 1.433-.035 1.933-.035.52 0 1.489 0 1.954.035v-.52c-.895 0-1.344 0-1.364-.539zm7.203-7.883v.524c1.219 0 1.364.125 1.364 1v3.961c-.379-.52-1.149-1.149-2.239-1.149-2.078 0-3.871 1.758-3.871 4.051 0 2.274 1.703 4.031 3.672 4.031 1.364 0 2.153-.898 2.403-1.238v1.238l2.527-.179v-.52c-1.223 0-1.363-.125-1.363-1.004v-10.91zm1.329 10.141c0 .324 0 .375-.25.774-.434.625-1.168 1.144-2.063 1.144-.465 0-2.398-.18-2.398-3.656 0-1.289.211-2.004.605-2.598.359-.555 1.074-1.109 1.973-1.109 1.109 0 1.738.804 1.914 1.094.219.304.219.339.219.664zm10.015-2.687c0-.965 0-1.684-.789-2.383-.629-.571-1.433-.824-2.223-.824-1.468 0-2.597.968-2.597 2.132 0 .52.34.77.754.77a.706.706 0 0 0 .734-.734c0-.735-.644-.735-.914-.735.41-.75 1.27-1.074 1.988-1.074.825 0 1.879.68 1.879 2.293v.719c-3.597.05-4.961 1.554-4.961 2.937 0 1.414 1.649 1.863 2.742 1.863 1.18 0 1.989-.718 2.329-1.578.07.844.625 1.489 1.398 1.489.375 0 1.414-.25 1.414-1.684v-1.004h-.394v1.004c0 1.02-.43 1.164-.68 1.164-.68 0-.68-.949-.68-1.219zm-1.168 2.257c0 1.758-1.308 2.348-2.078 2.348-.875 0-1.609-.644-1.609-1.504 0-2.363 3.043-2.582 3.687-2.617zm5.942-1.644c0-1.742.718-3.371 2.097-3.371.145 0 .18 0 .25.019-.144.071-.429.176-.429.66 0 .52.41.719.699.719.359 0 .715-.234.715-.719 0-.535-.481-1.039-1.254-1.039-1.524 0-2.039 1.649-2.149 1.989h-.019v-1.989l-2.399.2v.519c1.219 0 1.36.125 1.36 1v4.86c0 .804-.196.804-1.36.804v.52c.5-.035 1.489-.035 2.024-.035.484 0 1.754 0 2.168.035v-.52h-.36c-1.304 0-1.343-.199-1.343-.844zm7.027-6.863a.88.88 0 0 0-.879-.879.86.86 0 0 0-.859.859c0 .539.429.879.859.879a.874.874 0 0 0 .879-.859m-2.473 3.332v.519c1.149 0 1.309.106 1.309.985v4.875c0 .804-.199.804-1.363.804v.52c.5-.035 1.363-.035 1.882-.035.196 0 1.235 0 1.844.035v-.52c-1.164 0-1.234-.09-1.234-.789v-6.594zm11.016 3.547c.394 0 .43 0 .43-.34 0-1.813-.969-3.496-3.133-3.496-2.043 0-3.621 1.847-3.621 4.07 0 2.363 1.828 4.101 3.816 4.101 2.133 0 2.938-1.937 2.938-2.312 0-.106-.09-.18-.196-.18-.144 0-.179.09-.215.18-.464 1.504-1.667 1.918-2.417 1.918-.754 0-2.567-.504-2.567-3.602v-.339zm-4.945-.34c.144-2.813 1.718-3.137 2.222-3.137 1.918 0 2.024 2.527 2.043 3.137zM24.082-78.91h-.395c-.054.304-.195 1.289-.375 1.578-.125.16-1.148.16-1.683.16h-3.317c.485-.414 1.579-1.559 2.043-1.988 2.723-2.508 3.727-3.442 3.727-5.215 0-2.059-1.629-3.437-3.707-3.437s-3.297 1.773-3.297 3.312c0 .914.79.914.844.914.375 0 .84-.27.84-.844 0-.5-.34-.84-.84-.84-.164 0-.2 0-.254.02.34-1.219 1.309-2.043 2.473-2.043 1.523 0 2.453 1.27 2.453 2.918 0 1.523-.875 2.852-1.899 3.996l-3.617 4.05v.43h6.54zm7.387-8.652c0-.34 0-.43-.25-.43-.145 0-.2 0-.344.215l-5.39 8.367v.52h4.71v1.628c0 .664-.035.844-1.343.844h-.36v.52c.414-.04 1.828-.04 2.328-.04.504 0 1.938 0 2.348.04v-.52h-.355c-1.294 0-1.344-.18-1.344-.844v-1.629h1.808v-.52H31.47zm-1.184 1.398v6.754H25.93zm8.575-1.219c0-.414 0-.43-.36-.43-.43.485-1.324 1.145-3.172 1.145v.52c.414 0 1.309 0 2.297-.465v9.332c0 .648-.055.863-1.633.863h-.554v.52c.484-.04 2.222-.04 2.812-.04.594 0 2.313 0 2.797.04v-.52h-.559c-1.574 0-1.629-.215-1.629-.863zM31.754-5.324c0-.992-.059-1.957-.492-2.867-.489-.993-1.348-1.254-1.934-1.254-.695 0-1.543.347-1.984 1.336-.336.754-.453 1.496-.453 2.785 0 1.16.082 2.031.511 2.879a2.13 2.13 0 0 0 1.914 1.195c1.04 0 1.637-.621 1.98-1.312.434-.899.458-2.067.458-2.762m-2.438 3.836c-.382 0-1.16-.215-1.386-1.52-.133-.715-.133-1.62-.133-2.46 0-.977 0-1.864.191-2.567.203-.8.813-1.172 1.328-1.172.454 0 1.145.277 1.372 1.3.156.684.156 1.626.156 2.438 0 .805 0 1.711-.13 2.438-.23 1.316-.98 1.543-1.398 1.543"/><path fill="#fff" d="M61.996-58.531c-.305.015-.375.035-.375.195 0 .18.09.18.41.18h.825c1.523 0 2.203 1.254 2.203 2.976 0 2.344-1.215 2.973-2.094 2.973-.863 0-2.332-.41-2.848-1.594.57.09 1.09-.234 1.09-.879 0-.52-.375-.879-.879-.879-.43 0-.894.254-.894.934 0 1.594 1.597 2.902 3.582 2.902 2.132 0 3.71-1.633 3.71-3.441 0-1.648-1.328-2.938-3.046-3.242 1.558-.446 2.562-1.754 2.562-3.153 0-1.418-1.469-2.457-3.207-2.457-1.793 0-3.117 1.094-3.117 2.403 0 .715.555.86.824.86.375 0 .805-.27.805-.806 0-.574-.43-.824-.82-.824a.7.7 0 0 0-.2.016c.68-1.215 2.364-1.215 2.453-1.215.594 0 1.758.27 1.758 2.023 0 .34-.054 1.344-.574 2.114-.539.789-1.148.843-1.629.86zm7.707.195c0-4.531 2.203-5.246 3.172-5.246.644 0 1.29.195 1.629.734-.215 0-.895 0-.895.735 0 .394.27.734.735.734.445 0 .75-.27.75-.789 0-.934-.68-1.848-2.238-1.848-2.254 0-4.622 2.313-4.622 6.254 0 4.926 2.149 6.04 3.672 6.04 1.953 0 3.621-1.704 3.621-4.032 0-2.383-1.668-3.977-3.457-3.977-1.597 0-2.187 1.38-2.367 1.88zm2.203 6.129c-1.129 0-1.664-1.004-1.828-1.379-.16-.469-.34-1.344-.34-2.598 0-1.418.645-3.191 2.258-3.191.985 0 1.504.664 1.773 1.273.286.664.286 1.559.286 2.329 0 .914 0 1.718-.336 2.402-.45.86-1.094 1.164-1.813 1.164m9.554-11.375c0-.414 0-.434-.358-.434-.43.485-1.329 1.149-3.172 1.149v.52c.414 0 1.308 0 2.293-.465v9.331c0 .645-.051.864-1.63.864h-.554v.515c.484-.035 2.219-.035 2.813-.035.59 0 2.308 0 2.792.035v-.515h-.554c-1.578 0-1.63-.219-1.63-.864z"/><path d="M70.43-8.348c.515.168.93.18 1.062.18 1.352 0 2.211-.992 2.211-1.16 0-.047-.023-.106-.094-.106-.023 0-.05 0-.156.047a3.88 3.88 0 0 1-3.133-.012c-.082-.035-.105-.035-.117-.035-.097 0-.097.07-.097.262v3.55c0 .216 0 .286.144.286.059 0 .07-.012.191-.156a1.8 1.8 0 0 1 1.493-.774c.636 0 .945.586 1.043.79.203.464.21 1.046.21 1.503 0 .453 0 1.137-.331 1.672-.262.43-.731.73-1.254.73a1.85 1.85 0 0 1-1.782-1.41.6.6 0 0 0 .192.036c.203 0 .527-.121.527-.528 0-.332-.23-.523-.527-.523-.215 0-.528.105-.528.574 0 1.016.813 2.172 2.141 2.172 1.352 0 2.531-1.133 2.531-2.652 0-1.422-.953-2.606-2.21-2.606-.68 0-1.204.301-1.516.633zm46.125-17.265c0 4.226-1.879 5.105-2.953 5.105-.43 0-1.379-.055-1.829-.68h.11c.125.036.769-.07.769-.734 0-.394-.269-.734-.734-.734s-.754.304-.754.77c0 1.109.899 1.863 2.453 1.863 2.242 0 4.41-2.383 4.41-6.27 0-4.82-2.007-6.02-3.586-6.02-1.968 0-3.707 1.649-3.707 4.012s1.664 3.977 3.457 3.977c1.325 0 2.008-.965 2.364-1.88zm-2.289.933c-1.133 0-1.614-.914-1.774-1.258-.289-.68-.289-1.539-.289-2.343 0-1.004 0-1.864.465-2.598.324-.484.809-1.004 1.773-1.004 1.024 0 1.543.895 1.723 1.309.356.875.356 2.398.356 2.668 0 1.504-.68 3.226-2.254 3.226m-2.325 15.52c0-.274 0-.285-.238-.285-.289.32-.883.765-2.113.765v.344c.273 0 .871 0 1.527-.309v6.223c0 .43-.035.574-1.086.574h-.371v.348c.32-.023 1.481-.023 1.875-.023.395 0 1.543 0 1.863.023v-.348h-.371c-1.05 0-1.086-.144-1.086-.574zm7.813 3.836c0-.992-.059-1.957-.492-2.867-.489-.993-1.348-1.254-1.934-1.254-.695 0-1.543.347-1.984 1.336-.336.754-.453 1.496-.453 2.785 0 1.16.082 2.031.511 2.879a2.13 2.13 0 0 0 1.914 1.195c1.039 0 1.637-.621 1.981-1.312.433-.899.457-2.067.457-2.762m-2.438 3.836c-.382 0-1.16-.215-1.386-1.52-.133-.715-.133-1.62-.133-2.46 0-.977 0-1.864.191-2.567.203-.8.813-1.172 1.328-1.172.454 0 1.149.277 1.372 1.3.156.684.156 1.626.156 2.438 0 .805 0 1.711-.129 2.438-.231 1.316-.981 1.543-1.399 1.543m38.481-23.844c-.305.02-.375.035-.375.2 0 .179.086.179.41.179h.824c1.524 0 2.203 1.25 2.203 2.973 0 2.347-1.218 2.972-2.093 2.972-.864 0-2.332-.41-2.852-1.594.574.09 1.094-.234 1.094-.878 0-.52-.375-.88-.879-.88-.43 0-.895.255-.895.934 0 1.594 1.594 2.903 3.582 2.903 2.133 0 3.711-1.633 3.711-3.442 0-1.644-1.328-2.937-3.047-3.242 1.559-.445 2.563-1.754 2.563-3.152 0-1.414-1.469-2.453-3.207-2.453-1.793 0-3.117 1.093-3.117 2.398 0 .719.554.86.824.86.375 0 .805-.266.805-.805 0-.575-.43-.825-.825-.825-.105 0-.14 0-.195.02.68-1.219 2.363-1.219 2.453-1.219.59 0 1.758.27 1.758 2.024 0 .34-.055 1.343-.574 2.113-.539.789-1.149.844-1.629.863zM154.539-9.16c0-.274 0-.285-.238-.285-.285.32-.883.765-2.113.765v.344c.277 0 .871 0 1.531-.309v6.223c0 .43-.039.574-1.09.574h-.371v.348c.324-.023 1.484-.023 1.875-.023.398 0 1.543 0 1.863.023v-.348h-.367c-1.051 0-1.09-.144-1.09-.574zm3.891.812c.515.168.929.18 1.062.18 1.352 0 2.211-.992 2.211-1.16 0-.047-.023-.106-.094-.106-.023 0-.05 0-.156.047a3.88 3.88 0 0 1-3.133-.012c-.082-.035-.105-.035-.117-.035-.098 0-.098.07-.098.262v3.55c0 .216 0 .286.145.286.059 0 .07-.012.191-.156a1.81 1.81 0 0 1 1.493-.774c.636 0 .945.586 1.043.79.203.464.211 1.046.211 1.503 0 .453 0 1.137-.333 1.672-.261.43-.726.73-1.253.73a1.85 1.85 0 0 1-1.782-1.41.6.6 0 0 0 .192.036c.203 0 .527-.121.527-.528 0-.332-.23-.523-.527-.523-.215 0-.528.105-.528.574 0 1.016.813 2.172 2.141 2.172 1.352 0 2.531-1.133 2.531-2.652 0-1.422-.953-2.606-2.211-2.606-.679 0-1.203.301-1.515.633z"/><path fill="#fff" d="M188.504-90.836c0-4.531 2.203-5.246 3.172-5.246.644 0 1.289.195 1.629.734-.215 0-.895 0-.895.735 0 .394.27.734.735.734.445 0 .75-.27.75-.789 0-.934-.68-1.848-2.239-1.848-2.258 0-4.621 2.313-4.621 6.254 0 4.926 2.149 6.04 3.672 6.04 1.953 0 3.621-1.704 3.621-4.032 0-2.383-1.668-3.977-3.461-3.977-1.594 0-2.183 1.38-2.363 1.88zm2.203 6.129c-1.129 0-1.668-1.004-1.828-1.379-.16-.469-.34-1.344-.34-2.598 0-1.418.645-3.191 2.258-3.191.984 0 1.504.664 1.773 1.273.285.665.285 1.559.285 2.329 0 .914 0 1.718-.339 2.402-.446.86-1.094 1.164-1.809 1.164m7.59-6.324c-.305.015-.375.035-.375.195 0 .18.086.18.41.18h.824c1.524 0 2.203 1.254 2.203 2.976 0 2.344-1.218 2.973-2.093 2.973-.864 0-2.332-.41-2.852-1.594.574.09 1.094-.234 1.094-.879 0-.52-.375-.879-.879-.879-.43 0-.895.254-.895.934 0 1.594 1.594 2.902 3.582 2.902 2.133 0 3.711-1.633 3.711-3.441 0-1.648-1.328-2.938-3.047-3.242 1.559-.446 2.563-1.754 2.563-3.153 0-1.418-1.469-2.457-3.207-2.457-1.793 0-3.117 1.094-3.117 2.403 0 .715.554.86.824.86.375 0 .805-.27.805-.806 0-.574-.43-.824-.825-.824-.105 0-.14 0-.195.016.68-1.215 2.363-1.215 2.453-1.215.59 0 1.758.27 1.758 2.023 0 .34-.055 1.344-.574 2.114-.539.789-1.149.843-1.629.86zm8.801 0c-.305.015-.379.035-.379.195 0 .18.09.18.414.18h.824c1.523 0 2.203 1.254 2.203 2.976 0 2.344-1.219 2.973-2.097 2.973-.86 0-2.329-.41-2.848-1.594.574.09 1.094-.234 1.094-.879 0-.52-.379-.879-.879-.879-.43 0-.895.254-.895.934 0 1.594 1.594 2.902 3.582 2.902 2.133 0 3.711-1.633 3.711-3.441 0-1.648-1.328-2.938-3.047-3.242 1.559-.446 2.563-1.754 2.563-3.153 0-1.418-1.473-2.457-3.207-2.457-1.793 0-3.117 1.094-3.117 2.403 0 .715.554.86.824.86.375 0 .804-.27.804-.806 0-.574-.429-.824-.824-.824-.105 0-.144 0-.195.016.68-1.215 2.363-1.215 2.453-1.215.59 0 1.758.27 1.758 2.023 0 .34-.059 1.344-.574 2.114-.539.789-1.149.843-1.633.86z"/><path d="M198.859-3.508h-.265c-.035.203-.129.86-.25 1.051-.086.11-.766.11-1.125.11h-2.211c.324-.278 1.055-1.04 1.363-1.329 1.817-1.672 2.488-2.293 2.488-3.476 0-1.371-1.089-2.293-2.476-2.293s-2.195 1.183-2.195 2.21c0 .61.523.61.558.61.25 0 .563-.18.563-.562 0-.336-.227-.563-.563-.563-.105 0-.129 0-.168.012.227-.813.875-1.36 1.649-1.36 1.015 0 1.64.848 1.64 1.946 0 1.015-.586 1.902-1.269 2.664l-2.41 2.699v.289h4.359zm5.895-1.816c0-.992-.059-1.957-.492-2.867-.489-.993-1.348-1.254-1.934-1.254-.695 0-1.543.347-1.984 1.336-.336.754-.453 1.496-.453 2.785 0 1.16.082 2.031.511 2.879a2.13 2.13 0 0 0 1.914 1.195c1.039 0 1.637-.621 1.981-1.312.433-.899.457-2.067.457-2.762m-2.438 3.836c-.382 0-1.16-.215-1.386-1.52-.133-.715-.133-1.62-.133-2.46 0-.977 0-1.864.191-2.567.203-.8.813-1.172 1.328-1.172.454 0 1.149.277 1.372 1.3.156.684.156 1.626.156 2.438 0 .805 0 1.711-.129 2.438-.231 1.316-.981 1.543-1.399 1.543"/></g></svg>