<svg xmlns="http://www.w3.org/2000/svg" width="40" height="284" viewBox="0 -213 30 213"><g id="page1"><path fill="#944520" d="M.426-.832V-211.66a3.03 3.03 0 0 1 3.012 0V-.832a3.01 3.01 0 0 1-3.012 0"/><path fill="none" stroke="#000" stroke-linecap="round" stroke-linejoin="round" stroke-width=".85" d="M.426-.832V-211.66a3.03 3.03 0 0 1 3.012 0V-.832a3.01 3.01 0 0 1-3.012 0"/><path fill="#944520" d="M26.027-.832V-211.66a3.02 3.02 0 0 1 3.008 0V-.832a3 3 0 0 1-3.008 0"/><path fill="none" stroke="#000" stroke-linecap="round" stroke-linejoin="round" stroke-width=".85" d="M26.027-.832V-211.66a3.02 3.02 0 0 1 3.008 0V-.832a3 3 0 0 1-3.008 0"/><path fill="#944520" d="M3.438-17.398h22.59a3.03 3.03 0 0 1 0 3.011H3.437a3.01 3.01 0 0 1 0-3.011"/><path fill="none" stroke="#000" stroke-linecap="round" stroke-linejoin="round" stroke-width=".85" d="M3.438-17.398h22.59a3.03 3.03 0 0 1 0 3.011H3.437a3.01 3.01 0 0 1 0-3.011"/><path fill="#944520" d="M3.438-32.457h22.59a3.03 3.03 0 0 1 0 3.012H3.437a3.01 3.01 0 0 1 0-3.012"/><path fill="none" stroke="#000" stroke-linecap="round" stroke-linejoin="round" stroke-width=".85" d="M3.438-32.457h22.59a3.03 3.03 0 0 1 0 3.012H3.437a3.01 3.01 0 0 1 0-3.012"/><path fill="#944520" d="M3.438-47.516h22.59a3.03 3.03 0 0 1 0 3.012H3.437a3.01 3.01 0 0 1 0-3.012"/><path fill="none" stroke="#000" stroke-linecap="round" stroke-linejoin="round" stroke-width=".85" d="M3.438-47.516h22.59a3.03 3.03 0 0 1 0 3.012H3.437a3.01 3.01 0 0 1 0-3.012"/><path fill="#944520" d="M3.438-62.574h22.59c.535.93.535 2.078 0 3.011H3.437a3.01 3.01 0 0 1 0-3.011"/><path fill="none" stroke="#000" stroke-linecap="round" stroke-linejoin="round" stroke-width=".85" d="M3.438-62.574h22.59c.535.93.535 2.078 0 3.011H3.437a3.01 3.01 0 0 1 0-3.011"/><path fill="#944520" d="M3.438-77.633h22.59c.535.93.535 2.078 0 3.012H3.437a3.01 3.01 0 0 1 0-3.012"/><path fill="none" stroke="#000" stroke-linecap="round" stroke-linejoin="round" stroke-width=".85" d="M3.438-77.633h22.59c.535.93.535 2.078 0 3.012H3.437a3.01 3.01 0 0 1 0-3.012"/><path fill="#944520" d="M3.438-92.691h22.59c.535.93.535 2.078 0 3.011H3.437a3.01 3.01 0 0 1 0-3.011"/><path fill="none" stroke="#000" stroke-linecap="round" stroke-linejoin="round" stroke-width=".85" d="M3.438-92.691h22.59c.535.93.535 2.078 0 3.011H3.437a3.01 3.01 0 0 1 0-3.011"/><path fill="#944520" d="M3.438-107.754h22.59a3.03 3.03 0 0 1 0 3.016H3.437a3.02 3.02 0 0 1 0-3.016"/><path fill="none" stroke="#000" stroke-linecap="round" stroke-linejoin="round" stroke-width=".85" d="M3.438-107.754h22.59a3.03 3.03 0 0 1 0 3.016H3.437a3.02 3.02 0 0 1 0-3.016"/><path fill="#944520" d="M3.438-122.813h22.59a3.03 3.03 0 0 1 0 3.012H3.437a3.01 3.01 0 0 1 0-3.012"/><path fill="none" stroke="#000" stroke-linecap="round" stroke-linejoin="round" stroke-width=".85" d="M3.438-122.813h22.59a3.03 3.03 0 0 1 0 3.012H3.437a3.01 3.01 0 0 1 0-3.012"/><path fill="#944520" d="M3.438-137.871h22.59a3.03 3.03 0 0 1 0 3.012H3.437a3.01 3.01 0 0 1 0-3.012"/><path fill="none" stroke="#000" stroke-linecap="round" stroke-linejoin="round" stroke-width=".85" d="M3.438-137.871h22.59a3.03 3.03 0 0 1 0 3.012H3.437a3.01 3.01 0 0 1 0-3.012"/><path fill="#944520" d="M3.438-152.93h22.59a3.03 3.03 0 0 1 0 3.012H3.437a3.01 3.01 0 0 1 0-3.012"/><path fill="none" stroke="#000" stroke-linecap="round" stroke-linejoin="round" stroke-width=".85" d="M3.438-152.93h22.59a3.03 3.03 0 0 1 0 3.012H3.437a3.01 3.01 0 0 1 0-3.012"/><path fill="#944520" d="M3.438-167.988h22.59a3.02 3.02 0 0 1 0 3.011H3.437a3 3 0 0 1 0-3.011"/><path fill="none" stroke="#000" stroke-linecap="round" stroke-linejoin="round" stroke-width=".85" d="M3.438-167.988h22.59a3.02 3.02 0 0 1 0 3.011H3.437a3 3 0 0 1 0-3.011"/><path fill="#944520" d="M3.438-183.047h22.59a3.03 3.03 0 0 1 0 3.012H3.437a3.01 3.01 0 0 1 0-3.012"/><path fill="none" stroke="#000" stroke-linecap="round" stroke-linejoin="round" stroke-width=".85" d="M3.438-183.047h22.59a3.03 3.03 0 0 1 0 3.012H3.437a3.01 3.01 0 0 1 0-3.012"/><path fill="#944520" d="M3.438-198.105h22.59a3.02 3.02 0 0 1 0 3.011H3.437a3 3 0 0 1 0-3.011"/><path fill="none" stroke="#000" stroke-linecap="round" stroke-linejoin="round" stroke-width=".85" d="M3.438-198.105h22.59a3.02 3.02 0 0 1 0 3.011H3.437a3 3 0 0 1 0-3.011"/></g></svg>