<svg xmlns="http://www.w3.org/2000/svg" width="106pt" height="89pt" viewBox="0 -89 106 89"><g id="page1" transform="scale(1 -1)"><path fill="gray" d="M2.875.746h85.04v85.04L.75 87.91z"/><path fill="none" stroke="#4d4d4d" stroke-linecap="round" stroke-linejoin="round" stroke-width="1.5" d="M2.875.746h85.04v85.04L.75 87.91z"/><path fill="#ccc" d="M2.875.746h85.04v85.04H2.874Z"/><path fill="none" stroke="#4d4d4d" stroke-linecap="round" stroke-linejoin="round" stroke-width="1.5" d="M2.875.746h85.04v85.04H2.874z"/><path fill="none" stroke="#000" stroke-dasharray="8.59027 8.59027" stroke-linecap="round" stroke-linejoin="round" d="M87.914 43.266 66.656 64.527 45.394 85.785"/><path fill="gray" d="M87.668 40.621c.71-4.48 2.207-6.785 1.383-7.238-2.375-.219-4.938-2.79-3.27-5.543 2.75-4.309 7.875-.246 6.375 3.207-.797 2.125-2.39 4.39-1.906 8.191l.367 2.914-2.336 13.711c-.402 1.676-1.402 3.438-3.543 3.93.98-6.39 1.95-12.781 2.93-19.172M86.41 29.68c0 2.187 2.61 3.46 4.067 1.996 1.414-1.262 1.004-4.113-.973-4.563-1.555-.48-3.094 1.075-3.094 2.567"/><path fill="none" stroke="#000" stroke-linecap="round" stroke-width=".377" d="M87.668 40.621c.71-4.48 2.207-6.785 1.383-7.238-2.375-.219-4.938-2.79-3.27-5.543 2.75-4.309 7.875-.246 6.375 3.207-.797 2.125-2.39 4.39-1.906 8.191l.367 2.914-2.336 13.711c-.402 1.676-1.402 3.438-3.543 3.93.98-6.39 1.95-12.781 2.93-19.172Z"/><path fill="none" stroke="#000" stroke-linecap="round" stroke-width=".377" d="M86.41 29.68c0 2.187 2.61 3.46 4.067 1.996 1.414-1.262 1.004-4.113-.973-4.563-1.555-.48-3.094 1.075-3.094 2.567Z"/><path fill="gray" d="M90.504 43.598c4.477-.727 6.777-2.22 7.238-1.403.219 2.387 2.801 4.934 5.543 3.262 4.305-2.754.231-7.879-3.215-6.367-2.125.797-4.394 2.398-8.195 1.926l-2.91-.368-13.707 2.375c-1.672.403-3.434 1.403-3.922 3.547 6.39-.988 12.777-1.984 19.168-2.972m10.941 1.226c-2.183.008-3.46-2.597-2.007-4.054 1.261-1.418 4.117-1.012 4.566.96.484 1.555-1.059 3.102-2.559 3.094"/><path fill="none" stroke="#000" stroke-linecap="round" stroke-width=".377" d="M90.504 43.598c4.477-.727 6.777-2.22 7.238-1.403.219 2.387 2.801 4.934 5.543 3.262 4.305-2.754.231-7.879-3.215-6.367-2.125.797-4.394 2.398-8.195 1.926l-2.91-.368-13.707 2.375c-1.672.403-3.434 1.403-3.922 3.547 6.39-.988 12.777-1.984 19.168-2.972Z"/><path fill="none" stroke="#000" stroke-linecap="round" stroke-width=".377" d="M101.445 44.824c-2.183.008-3.46-2.597-2.007-4.054 1.261-1.418 4.117-1.012 4.566.96.484 1.555-1.059 3.102-2.559 3.094Z"/><circle cx="89.09" cy="42.09" r=".377"/></g></svg>