<svg xmlns="http://www.w3.org/2000/svg" width="455pt" height="46pt" viewBox="0 -46 455 46"><g id="page1"><path fill="none" stroke="#000" stroke-linecap="round" stroke-linejoin="round" stroke-width=".5" d="M.25-45.61h45.356V-.253H.25zm45.356 0h45.351V-.253H45.606zm45.351 0h45.356V-.253H90.957zm45.356 0h45.355V-.253h-45.355zm45.355 0h45.352V-.253h-45.352zm45.352 0h45.355V-.253H227.02zm45.355 0h45.355V-.253h-45.355zm45.355 0h45.356V-.253H317.73zm45.356 0h45.352V-.253h-45.352zm45.352 0h45.355V-.253h-45.355z"/><path d="M26.813-19.5h-.372c-.207 1.465-.37 1.71-.453 1.836-.105.164-1.59.164-1.879.164h-3.968c.746-.805 2.191-2.27 3.945-3.965 1.262-1.2 2.727-2.601 2.727-4.648 0-2.438-1.942-3.84-4.11-3.84-2.273 0-3.656 2-3.656 3.86 0 .808.598.91.848.91.207 0 .824-.122.824-.848 0-.64-.535-.825-.825-.825-.124 0-.25.02-.331.063.394-1.758 1.593-2.625 2.851-2.625 1.797 0 2.977 1.426 2.977 3.305 0 1.797-1.055 3.347-2.235 4.691l-4.11 4.649v.472h7.274zm42.183-10c0-.434-.02-.453-.312-.453-.805.969-2.024 1.281-3.18 1.32-.063 0-.164 0-.188.043-.02.04-.02.082-.02.516.641 0 1.716-.125 2.54-.621v10.886c0 .723-.04.973-1.817.973h-.62v.535c.992-.02 2.027-.039 3.019-.039.988 0 2.023.02 3.016.04v-.536h-.621c-1.778 0-1.817-.227-1.817-.973zm49.223.328v-.453h-4.856c-2.418 0-2.461-.266-2.543-.66h-.371l-.597 3.863h.371c.062-.39.207-1.445.453-1.84.125-.164 1.652-.164 2.004-.164h4.547l-2.293 3.41c-1.532 2.29-2.582 5.391-2.582 8.094 0 .25 0 .953.742.953.746 0 .746-.703.746-.972v-.95c0-3.386.574-5.617 1.527-7.043zm38.336.789a6 6 0 0 0 1.922.348c1.921 0 2.976-1.031 3.574-1.63 0-.167 0-.269-.125-.269-.02 0-.063 0-.227.082-.722.309-1.57.559-2.605.559a6.2 6.2 0 0 1-2.559-.539c-.226-.102-.269-.102-.289-.102-.105 0-.125.02-.125.434v5.992c0 .371 0 .473.207.473.102 0 .145-.04.246-.184.66-.93 1.571-1.324 2.606-1.324.722 0 2.273.457 2.273 3.988 0 .66 0 1.86-.621 2.809-.519.848-1.324 1.281-2.211 1.281-1.363 0-2.75-.95-3.117-2.543.082.024.246.063.328.063.27 0 .785-.145.785-.785 0-.56-.39-.786-.785-.786-.477 0-.785.29-.785.868 0 1.796 1.426 3.68 3.617 3.68 2.125 0 4.149-1.84 4.149-4.505 0-2.48-1.61-4.402-3.614-4.402a3.52 3.52 0 0 0-2.644 1.137zm47.609 5.059c1.84 0 2.645 1.59 2.645 3.43 0 2.48-1.321 3.43-2.52 3.43-1.094 0-2.871-.54-3.43-2.13a.8.8 0 0 0 .313.043c.492 0 .867-.332.867-.867 0-.602-.457-.871-.867-.871-.352 0-.891.168-.891.93 0 1.902 1.86 3.39 4.051 3.39 2.289 0 4.047-1.797 4.047-3.906 0-2.004-1.652-3.45-3.613-3.676 1.57-.332 3.078-1.734 3.078-3.613 0-1.613-1.633-2.79-3.492-2.79-1.879 0-3.532 1.157-3.532 2.81 0 .722.535.847.805.847.434 0 .805-.27.805-.808 0-.536-.371-.805-.805-.805-.082 0-.187 0-.27.043.598-1.363 2.235-1.613 2.954-1.613.722 0 2.089.351 2.089 2.335 0 .579-.085 1.61-.789 2.52-.617.805-1.32.848-2 .91-.105 0-.578.04-.664.04-.144.019-.226.042-.226.187s.023.164.433.164zm45.402 0c1.84 0 2.645 1.59 2.645 3.43 0 2.48-1.324 3.43-2.523 3.43-1.094 0-2.872-.54-3.43-2.13a.8.8 0 0 0 .312.043c.496 0 .868-.332.868-.867 0-.602-.454-.871-.868-.871-.351 0-.89.168-.89.93 0 1.902 1.859 3.39 4.05 3.39 2.293 0 4.051-1.797 4.051-3.906 0-2.004-1.652-3.45-3.617-3.676 1.57-.332 3.078-1.734 3.078-3.613 0-1.613-1.633-2.79-3.488-2.79-1.883 0-3.535 1.157-3.535 2.81 0 .722.539.847.804.847.434 0 .805-.27.805-.808 0-.536-.371-.805-.805-.805-.082 0-.183 0-.265.043.597-1.363 2.23-1.613 2.953-1.613s2.086.351 2.086 2.335c0 .579-.082 1.61-.785 2.52-.621.805-1.324.848-2.004.91-.102 0-.578.04-.66.04-.145.019-.231.042-.231.187s.024.164.438.164zm50.051-5.848v-.453h-4.855c-2.418 0-2.457-.266-2.539-.66h-.371l-.602 3.863h.371c.063-.39.207-1.445.457-1.84.121-.164 1.652-.164 2-.164h4.547l-2.293 3.41c-1.527 2.29-2.582 5.391-2.582 8.094 0 .25 0 .953.742.953.746 0 .746-.703.746-.972v-.95c0-3.386.578-5.617 1.528-7.043zm45.399 0v-.453h-4.852c-2.418 0-2.461-.266-2.543-.66h-.371l-.602 3.863h.375c.063-.39.204-1.445.454-1.84.125-.164 1.652-.164 2.003-.164h4.543l-2.289 3.41c-1.531 2.29-2.586 5.391-2.586 8.094 0 .25 0 .953.747.953.742 0 .742-.703.742-.972v-.95c0-3.386.578-5.617 1.527-7.043zm45.3 0v-.453h-4.851c-2.418 0-2.461-.266-2.543-.66h-.371l-.602 3.863h.371c.063-.39.207-1.445.457-1.84.121-.164 1.653-.164 2.004-.164h4.543l-2.293 3.41c-1.527 2.29-2.582 5.391-2.582 8.094 0 .25 0 .953.746.953.743 0 .743-.703.743-.972v-.95c0-3.386.578-5.617 1.527-7.043zm44.7 9.672h-.375c-.203 1.465-.371 1.71-.453 1.836-.102.164-1.59.164-1.879.164h-3.965c.742-.805 2.187-2.27 3.945-3.965 1.258-1.2 2.727-2.601 2.727-4.648 0-2.438-1.946-3.84-4.114-3.84-2.269 0-3.656 2-3.656 3.86 0 .808.598.91.848.91.207 0 .828-.122.828-.848 0-.64-.539-.825-.828-.825-.125 0-.25.02-.328.063.39-1.758 1.589-2.625 2.847-2.625 1.797 0 2.977 1.426 2.977 3.305 0 1.797-1.055 3.347-2.231 4.691l-4.113 4.649v.472h7.274z"/></g></svg>