<svg xmlns="http://www.w3.org/2000/svg" width="593pt" height="274pt" viewBox="0 -274 593 274"><g id="page1"><path fill="none" stroke="#000" stroke-linecap="round" stroke-linejoin="round" stroke-width="2" d="M81.71-142.734h510.235M81.71-199.43h510.235M81.71-142.734v-56.696m56.692 56.696v-56.696m56.696 56.696v-56.696m56.691 56.696v-56.696m56.691 56.696v-56.696m56.696 56.696v-56.696m56.691 56.696v-56.696m56.696 56.696v-56.696m56.691 56.696v-56.696m56.691 56.696v-56.696M81.71-71.871h510.235M81.71-128.563h510.235M81.71-71.871v-56.692m56.692 56.692v-56.692m56.696 56.692v-56.692m56.691 56.692v-56.692m56.691 56.692v-56.692m56.696 56.692v-56.692m56.691 56.692v-56.692m56.696 56.692v-56.692m56.691 56.692v-56.692m56.691 56.692v-56.692M81.71-1.004h510.235M81.71-57.695h510.235M81.71-1.004v-56.691m56.692 56.691v-56.691m56.696 56.691v-56.691m56.691 56.691v-56.691M308.48-1.004v-56.691m56.696 56.691v-56.691m56.691 56.691v-56.691m56.696 56.691v-56.691m56.691 56.691v-56.691m56.691 56.691v-56.691"/><path d="M295.902-261.25h3.965c3.196 0 5.52-2.078 5.52-4.434 0-2.351-2.278-4.531-5.52-4.531h-7.578v.645c1.707 0 1.981 0 1.981 1.113v13.398c0 1.114-.274 1.114-1.981 1.114v.644c.719-.051 2.031-.051 2.797-.051s2.078 0 2.797.051v-.644c-1.707 0-1.981 0-1.981-1.114zm-.05-.52v-6.835c0-.84.05-.965 1.043-.965h2.5c3.195 0 4.113 1.832 4.113 3.886 0 2.254-1.09 3.914-4.113 3.914zm20.722 3.168c0-3.168-2.304-5.644-5.004-5.644s-5 2.476-5 5.644c0 3.122 2.301 5.5 5 5.5 2.7 0 5.004-2.378 5.004-5.5m-5.004 5.055c-1.164 0-2.152-.695-2.722-1.66-.621-1.113-.696-2.5-.696-3.59 0-1.043.051-2.328.696-3.445.496-.817 1.461-1.61 2.722-1.61 1.118 0 2.059.622 2.649 1.489.769 1.164.769 2.797.769 3.566 0 .965-.05 2.453-.718 3.641-.692 1.136-1.758 1.609-2.7 1.609m13.282-10.203c0-.445-.024-.473-.172-.473-.102 0-.125.028-.422.399-.074.097-.297.347-.371.445-.793-.844-1.907-.867-2.328-.867-2.75 0-3.739 1.437-3.739 2.875 0 2.226 2.524 2.746 3.243 2.894 1.558.325 2.105.422 2.625.868.324.296.867.843.867 1.734 0 1.039-.594 2.379-2.871 2.379-2.157 0-2.922-1.637-3.371-3.817-.071-.343-.071-.371-.27-.371s-.223.028-.223.52v3.566c0 .446.024.469.172.469.125 0 .149-.023.274-.223.148-.218.519-.816.668-1.062.496.668 1.363 1.312 2.75 1.312 2.449 0 3.761-1.336 3.761-3.269 0-1.262-.668-1.934-.988-2.231-.742-.765-1.609-.937-2.652-1.136-1.36-.297-3.094-.645-3.094-2.157 0-.644.348-2.003 2.848-2.003 2.648 0 2.796 2.476 2.847 3.269.024.121.149.149.223.149.223 0 .223-.075.223-.497zm5.187-4.805c0-.547-.445-1.015-1.016-1.015-.546 0-1.015.445-1.015 1.015 0 .547.445 1.016 1.015 1.016.547 0 1.016-.445 1.016-1.016m-2.898 4.68v.645c1.386 0 1.586.148 1.586 1.335v6.887c0 .942-.098 1.063-1.684 1.063v.644c.594-.051 1.66-.051 2.277-.051.594 0 1.61 0 2.18.051v-.644c-1.461 0-1.512-.149-1.512-1.039v-9.164zm14.101.496c.196-.25.196-.297.196-.348 0-.222-.098-.222-.543-.222h-7.528l-.25 3.84h.446c.171-2.403.445-3.446 3.292-3.446h3.024l-7.082 9.883c0 .348.023.371.543.371h7.824l.348-4.457h-.446c-.199 2.75-.519 4.012-3.543 4.012h-3.168zm4.996-5.176c0-.547-.445-1.015-1.015-1.015-.543 0-1.016.445-1.016 1.015 0 .547.445 1.016 1.016 1.016.547 0 1.015-.445 1.015-1.016m-2.898 4.68v.645c1.387 0 1.586.148 1.586 1.335v6.887c0 .942-.098 1.063-1.684 1.063v.644c.594-.051 1.66-.051 2.278-.051.593 0 1.609 0 2.179.051v-.644c-1.461 0-1.511-.149-1.511-1.039v-9.164zm15.933 5.273c0-3.168-2.304-5.644-5.003-5.644s-5 2.476-5 5.644c0 3.122 2.3 5.5 5 5.5 2.699 0 5.003-2.378 5.003-5.5m-5.003 5.055c-1.161 0-2.153-.695-2.723-1.66-.617-1.113-.695-2.5-.695-3.59 0-1.043.05-2.328.695-3.445.496-.817 1.461-1.61 2.723-1.61 1.117 0 2.058.622 2.652 1.489.766 1.164.766 2.797.766 3.566 0 .965-.047 2.453-.719 3.641-.692 1.136-1.754 1.609-2.699 1.609m16.007-7.281c0-1.266-.246-3.32-3.168-3.32-1.957 0-2.972 1.511-3.343 2.503h-.028v-2.503l-2.922.273v.645c1.461 0 1.688.148 1.688 1.335v6.887c0 .942-.102 1.063-1.688 1.063v.644c.594-.051 1.688-.051 2.329-.051.644 0 1.757 0 2.351.051v-.644c-1.582 0-1.683-.098-1.683-1.063v-4.758c0-2.277 1.386-3.984 3.121-3.984 1.832 0 2.031 1.633 2.031 2.82v5.922c0 .942-.098 1.063-1.684 1.063v.644c.594-.051 1.684-.051 2.328-.051.645 0 1.758 0 2.352.051v-.644c-1.582 0-1.684-.098-1.684-1.063zm11.758 1.707c.098-.098.098-.149.098-.395 0-2.527-1.336-4.73-4.16-4.73-2.625 0-4.703 2.5-4.703 5.547 0 3.219 2.351 5.597 4.976 5.597 2.774 0 3.863-2.625 3.863-3.144 0-.176-.148-.176-.199-.176-.172 0-.195.051-.297.348-.543 1.683-1.906 2.527-3.191 2.527-1.067 0-2.133-.594-2.801-1.683-.769-1.266-.769-2.727-.769-3.891zm-7.156-.371c.172-3.567 2.078-4.36 3.07-4.36 1.684 0 2.824 1.586 2.848 4.36zM114.801-227.75c0-1.508-.024-4.086-1.067-6.066-.914-1.735-2.375-2.352-3.664-2.352-1.187 0-2.699.543-3.64 2.324-.989 1.86-1.09 4.164-1.09 6.094 0 1.41.027 3.566.793 5.449 1.066 2.551 2.972 2.899 3.937 2.899 1.141 0 2.875-.473 3.891-2.825.742-1.711.84-3.714.84-5.523m-4.731 7.949c-1.586 0-2.523-1.363-2.871-3.242-.273-1.461-.273-3.59-.273-4.98 0-1.907 0-3.493.32-5 .473-2.106 1.859-2.75 2.824-2.75 1.016 0 2.328.668 2.797 2.699.324 1.41.348 3.07.348 5.051 0 1.609 0 3.593-.297 5.054-.52 2.699-1.98 3.168-2.848 3.168m57.618-15.824c0-.52-.024-.543-.372-.543-.964 1.164-2.425 1.535-3.812 1.582-.074 0-.199 0-.223.051-.027.051-.027.097-.027.621.769 0 2.055-.149 3.047-.746v13.051c0 .867-.047 1.164-2.18 1.164h-.742v.644c1.187-.023 2.426-.051 3.613-.051 1.192 0 2.43.028 3.617.051v-.644h-.742c-2.129 0-2.179-.27-2.179-1.164zm60.441 11.984h-.449c-.246 1.762-.446 2.059-.543 2.207-.125.2-1.907.2-2.254.2h-4.754c.891-.969 2.625-2.727 4.73-4.758 1.508-1.438 3.27-3.117 3.27-5.571 0-2.921-2.332-4.605-4.93-4.605-2.722 0-4.383 2.402-4.383 4.629 0 .969.715 1.09 1.016 1.09.246 0 .988-.149.988-1.016 0-.765-.64-.988-.988-.988a.9.9 0 0 0-.398.074c.472-2.105 1.906-3.144 3.418-3.144 2.156 0 3.566 1.707 3.566 3.96 0 2.153-1.262 4.012-2.676 5.622l-4.926 5.57v.57h8.715zm51.844-4.578c2.203 0 3.168 1.906 3.168 4.11 0 2.972-1.582 4.113-3.02 4.113-1.312 0-3.441-.645-4.109-2.551a1 1 0 0 0 .371.047c.594 0 1.039-.395 1.039-1.039 0-.719-.543-1.039-1.039-1.039-.422 0-1.067.195-1.067 1.113 0 2.277 2.231 4.063 4.856 4.063 2.75 0 4.851-2.157 4.851-4.684 0-2.398-1.98-4.133-4.332-4.406 1.883-.399 3.692-2.078 3.692-4.336 0-1.93-1.957-3.34-4.188-3.34-2.254 0-4.234 1.387-4.234 3.367 0 .867.644 1.016.965 1.016.519 0 .965-.324.965-.969 0-.641-.446-.965-.965-.965-.098 0-.223 0-.321.051.719-1.637 2.676-1.934 3.543-1.934.864 0 2.5.422 2.5 2.801 0 .692-.101 1.93-.941 3.02-.742.968-1.586 1.015-2.402 1.09-.125 0-.696.05-.793.05-.172.024-.274.047-.274.223 0 .172.028.199.52.199zm59.449-7.601c0-.524-.024-.547-.473-.547l-7.355 11.715v.644h6.39v2.426c0 .891-.05 1.137-1.781 1.137h-.473v.644c.793-.051 2.129-.051 2.973-.051s2.18 0 2.973.051v-.644h-.473c-1.734 0-1.781-.246-1.781-1.137v-2.426h2.523v-.644h-2.523zm-1.363 1.632v9.536h-5.969zm52.562-.101c.25.101 1.266.422 2.305.422 2.304 0 3.566-1.238 4.285-1.953 0-.2 0-.325-.148-.325-.024 0-.075 0-.274.098-.867.375-1.883.668-3.121.668a7.5 7.5 0 0 1-3.07-.641c-.27-.125-.321-.125-.344-.125-.125 0-.152.024-.152.52v7.184c0 .445 0 .57.25.57.125 0 .171-.051.296-.227.793-1.113 1.883-1.582 3.122-1.582.863 0 2.722.543 2.722 4.778 0 .793 0 2.23-.742 3.371-.621 1.011-1.586 1.535-2.648 1.535-1.637 0-3.297-1.141-3.743-3.047.102.023.297.074.399.074.32 0 .937-.176.937-.941 0-.668-.468-.942-.937-.942-.57 0-.942.348-.942 1.039 0 2.157 1.707 4.411 4.332 4.411 2.551 0 4.981-2.207 4.981-5.403 0-2.968-1.934-5.273-4.336-5.273-1.262 0-2.328.473-3.172 1.363zm56.504 5.945c0-5.918 2.773-7.258 4.383-7.258.519 0 1.785.102 2.277 1.067-.394 0-1.137 0-1.137.867 0 .668.543.891.891.891.223 0 .891-.098.891-.942 0-1.558-1.239-2.449-2.946-2.449-2.949 0-6.043 3.07-6.043 8.543 0 6.734 2.797 8.223 4.778 8.223 2.402 0 4.683-2.157 4.683-5.477 0-3.094-2.007-5.348-4.535-5.348-1.508 0-2.625.993-3.242 2.723zm3.094 8.348c-3.043 0-3.043-4.559-3.043-5.473 0-1.785.84-4.359 3.144-4.359.422 0 1.633 0 2.453 1.707.446.965.446 1.98.446 3.219 0 1.339 0 2.328-.524 3.32-.543 1.016-1.336 1.586-2.476 1.586m62.148-15.231v-.546h-5.82c-2.895 0-2.945-.321-3.043-.793h-.445l-.719 4.632h.445c.074-.472.246-1.734.543-2.207.149-.199 1.985-.199 2.402-.199h5.45l-2.75 4.09c-1.832 2.746-3.094 6.461-3.094 9.707 0 .297 0 1.141.891 1.141.89 0 .89-.844.89-1.164v-1.141c0-4.063.696-6.734 1.836-8.445zm52.27 6.512c1.558-.793 3.144-1.98 3.144-3.887 0-2.253-2.179-3.566-4.187-3.566-2.25 0-4.235 1.633-4.235 3.887a3.6 3.6 0 0 0 1.118 2.625c.246.246 1.285.992 1.953 1.461-1.114.57-3.711 1.929-3.711 4.656 0 2.551 2.426 4.137 4.828 4.137 2.648 0 4.879-1.911 4.879-4.434 0-2.254-1.512-3.293-2.504-3.961zm-3.246-2.18c-.196-.125-1.188-.89-1.188-2.054 0-1.512 1.559-2.653 3.344-2.653 1.957 0 3.391 1.387 3.391 3 0 2.301-2.575 3.614-2.7 3.614-.023 0-.047 0-.246-.149zm4.558 5.079c.371.269 1.559 1.089 1.559 2.597 0 1.836-1.832 3.223-3.914 3.223-2.25 0-3.961-1.613-3.961-3.567 0-1.957 1.512-3.593 3.219-4.359zM9.887-178.926c0-.519-.024-.543-.371-.543-.965 1.164-2.426 1.535-3.813 1.586-.074 0-.2 0-.223.047-.027.051-.027.102-.027.621.77 0 2.055-.148 3.047-.746v13.055c0 .867-.047 1.164-2.18 1.164h-.742v.64a189 189 0 0 1 3.617-.046c1.188 0 2.426.023 3.614.046v-.64h-.743c-2.129 0-2.18-.274-2.18-1.164zm8.926 14.809c0-.617-.497-1.016-1.016-1.016-.496 0-1.016.399-1.016 1.016 0 .621.492 1.015 1.016 1.015.492 0 1.015-.394 1.015-1.015m21.004-5.399c0-1.632 0-2.5-1.043-3.464a4.22 4.22 0 0 0-2.82-1.067c-1.957 0-3.367 1.535-3.367 3.168 0 .918.742.969.89.969.32 0 .891-.199.891-.891 0-.621-.469-.894-.89-.894-.102 0-.223.027-.297.05.52-1.558 1.855-2.003 2.722-2.003 1.239 0 2.602 1.089 2.602 3.168v1.089c-1.461.051-3.223.25-4.606.993-1.562.867-2.007 2.101-2.007 3.046 0 1.907 2.226 2.45 3.539 2.45 1.363 0 2.625-.77 3.172-2.18.05 1.09.742 2.078 1.832 2.078.52 0 1.832-.344 1.832-2.301v-1.386h-.446v1.41c0 1.511-.668 1.711-.988 1.711-1.016 0-1.016-1.289-1.016-2.379zm-1.312 2.973c0 2.156-1.535 3.246-2.898 3.246-1.239 0-2.204-.918-2.204-2.055 0-.746.32-2.058 1.758-2.851 1.188-.668 2.55-.766 3.344-.817zm27.219-4.508c.37 0 .746 0 .746-.418 0-.445-.422-.445-.844-.445H51.781c-.422 0-.843 0-.843.445 0 .418.374.418.746.418zm-.098 4.41c.422 0 .844 0 .844-.449 0-.418-.375-.418-.746-.418h-14.04c-.37 0-.745 0-.745.418 0 .449.421.449.843.449zm49.102-.297h-.446c-.25 1.758-.445 2.055-.547 2.204-.121.199-1.906.199-2.25.199h-4.757c.89-.969 2.625-2.727 4.73-4.754 1.512-1.438 3.27-3.121 3.27-5.574 0-2.922-2.329-4.606-4.93-4.606-2.723 0-4.383 2.403-4.383 4.629 0 .969.719 1.094 1.016 1.094.25 0 .992-.152.992-1.02 0-.765-.645-.988-.992-.988a.9.9 0 0 0-.395.074c.469-2.105 1.906-3.144 3.418-3.144 2.152 0 3.567 1.707 3.567 3.961 0 2.152-1.266 4.011-2.676 5.621l-4.93 5.57v.57h8.719zm51.847-4.582c2.203 0 3.168 1.907 3.168 4.11 0 2.972-1.586 4.113-3.019 4.113-1.313 0-3.442-.644-4.114-2.551.125.047.25.047.375.047.594 0 1.039-.394 1.039-1.039 0-.719-.546-1.039-1.039-1.039-.421 0-1.066.199-1.066 1.113 0 2.278 2.227 4.063 4.852 4.063 2.75 0 4.855-2.156 4.855-4.68 0-2.402-1.98-4.137-4.336-4.41 1.883-.395 3.691-2.078 3.691-4.336 0-1.93-1.957-3.34-4.183-3.34-2.254 0-4.234 1.387-4.234 3.367 0 .868.64 1.016.964 1.016.52 0 .965-.32.965-.965 0-.644-.445-.965-.965-.965-.097 0-.222 0-.324.047.719-1.633 2.676-1.929 3.543-1.929s2.5.421 2.5 2.796c0 .696-.098 1.93-.941 3.024-.742.965-1.582 1.015-2.399 1.086-.125 0-.695.051-.793.051-.175.027-.273.05-.273.222s.023.199.519.199zm61.629.469c0-1.508-.027-4.086-1.066-6.066-.918-1.735-2.379-2.352-3.668-2.352-1.188 0-2.696.543-3.637 2.328-.992 1.856-1.09 4.161-1.09 6.09 0 1.414.024 3.567.789 5.449 1.067 2.551 2.973 2.899 3.938 2.899 1.14 0 2.875-.473 3.89-2.824.743-1.707.844-3.715.844-5.524m-4.734 7.949c-1.582 0-2.524-1.363-2.871-3.242-.27-1.461-.27-3.59-.27-4.976 0-1.907 0-3.493.32-5.004.469-2.106 1.856-2.75 2.821-2.75 1.015 0 2.328.668 2.801 2.703.324 1.406.347 3.066.347 5.051 0 1.605 0 3.59-.297 5.05-.523 2.7-1.98 3.168-2.851 3.168m57.621-15.824c0-.519-.027-.543-.375-.543-.965 1.164-2.426 1.535-3.813 1.586-.074 0-.199 0-.222.047-.024.051-.024.102-.024.621.766 0 2.055-.148 3.043-.746v13.055c0 .867-.047 1.164-2.176 1.164h-.746v.64a190 190 0 0 1 3.618-.046c1.187 0 2.425.023 3.613.046v-.64h-.742c-2.129 0-2.176-.274-2.176-1.164zm60.414 7.875c0-1.508-.027-4.086-1.066-6.066-.918-1.735-2.379-2.352-3.668-2.352-1.188 0-2.7.543-3.637 2.328-.992 1.856-1.094 4.161-1.094 6.09 0 1.414.027 3.567.793 5.449 1.066 2.551 2.973 2.899 3.938 2.899 1.14 0 2.875-.473 3.89-2.824.742-1.707.844-3.715.844-5.524m-4.734 7.949c-1.582 0-2.524-1.363-2.872-3.242-.269-1.461-.269-3.59-.269-4.976 0-1.907 0-3.493.32-5.004.469-2.106 1.856-2.75 2.821-2.75 1.015 0 2.328.668 2.8 2.703.321 1.406.344 3.066.344 5.051 0 1.605 0 3.59-.297 5.05-.519 2.7-1.98 3.168-2.847 3.168m57.617-15.824c0-.519-.024-.543-.371-.543-.965 1.164-2.426 1.535-3.813 1.586-.074 0-.199 0-.223.047-.027.051-.027.102-.027.621.77 0 2.055-.148 3.047-.746v13.055c0 .867-.047 1.164-2.18 1.164h-.742v.64a189 189 0 0 1 3.617-.046c1.188 0 2.426.023 3.614.046v-.64h-.743c-2.128 0-2.179-.274-2.179-1.164zm52.738 7.281c0-5.918 2.773-7.253 4.383-7.253.519 0 1.785.097 2.277 1.062-.394 0-1.137 0-1.137.867 0 .668.543.891.891.891.223 0 .891-.098.891-.938 0-1.562-1.239-2.453-2.946-2.453-2.949 0-6.043 3.071-6.043 8.543 0 6.738 2.797 8.223 4.778 8.223 2.402 0 4.683-2.156 4.683-5.473 0-3.097-2.007-5.351-4.535-5.351-1.508 0-2.625.992-3.242 2.726zm3.094 8.348c-3.043 0-3.043-4.558-3.043-5.473 0-1.785.84-4.359 3.144-4.359.422 0 1.633 0 2.453 1.707.446.969.446 1.984.446 3.219 0 1.34 0 2.332-.524 3.32-.543 1.016-1.336 1.586-2.476 1.586m62.148-15.23v-.547h-5.82c-2.895 0-2.945-.321-3.043-.793h-.445l-.719 4.633h.445c.074-.469.246-1.735.543-2.204.149-.199 1.985-.199 2.402-.199h5.45l-2.75 4.086c-1.832 2.75-3.094 6.461-3.094 9.707 0 .297 0 1.141.891 1.141.89 0 .89-.844.89-1.164v-1.141c0-4.062.696-6.734 1.836-8.445zm54.25 8.097c0 5.446-2.254 7.133-4.109 7.133-.57 0-1.957-.074-2.528-1.043.641.102 1.114-.246 1.114-.863 0-.668-.543-.895-.891-.895-.223 0-.89.102-.89.942 0 1.683 1.46 2.453 3.242 2.453 2.847 0 5.746-3.121 5.746-8.57 0-6.786-2.774-8.196-4.656-8.196-2.45 0-4.805 2.153-4.805 5.473 0 3.07 2.008 5.348 4.531 5.348 2.082 0 2.996-1.93 3.246-2.75zm-3.195 1.387c-.668 0-1.609-.125-2.375-1.609-.524-.965-.524-2.106-.524-3.321 0-1.461 0-2.476.696-3.566.347-.52.992-1.359 2.426-1.359 2.921 0 2.921 4.48 2.921 5.472 0 1.758-.793 4.383-3.144 4.383M13.625-96.04h-.445c-.246 1.759-.446 2.056-.543 2.204-.125.2-1.907.2-2.254.2H5.629c.89-.966 2.625-2.723 4.73-4.755 1.508-1.437 3.266-3.121 3.266-5.574 0-2.922-2.328-4.605-4.926-4.605-2.722 0-4.383 2.402-4.383 4.632 0 .965.715 1.09 1.016 1.09.246 0 .988-.148.988-1.015 0-.77-.64-.992-.988-.992-.148 0-.3.027-.398.074.472-2.106 1.906-3.145 3.418-3.145 2.156 0 3.566 1.707 3.566 3.961 0 2.156-1.262 4.012-2.676 5.621l-4.926 5.575v.57h8.715zm5.188 2.825c0-.62-.497-1.016-1.016-1.016-.496 0-1.016.395-1.016 1.016 0 .617.492 1.016 1.016 1.016.492 0 1.015-.399 1.015-1.016m21.004-5.398c0-1.633 0-2.504-1.043-3.469a4.2 4.2 0 0 0-2.82-1.063c-1.957 0-3.367 1.536-3.367 3.168 0 .918.742.965.89.965.32 0 .891-.195.891-.89 0-.618-.469-.891-.89-.891a1 1 0 0 0-.297.051c.52-1.563 1.855-2.008 2.722-2.008 1.239 0 2.602 1.09 2.602 3.172v1.086c-1.461.05-3.223.25-4.606.992-1.562.867-2.007 2.106-2.007 3.047 0 1.906 2.226 2.453 3.539 2.453 1.363 0 2.625-.77 3.172-2.18.05 1.086.742 2.078 1.832 2.078.52 0 1.832-.343 1.832-2.304v-1.383h-.446v1.41c0 1.512-.668 1.707-.988 1.707-1.016 0-1.016-1.285-1.016-2.375zm-1.312 2.972c0 2.153-1.535 3.243-2.898 3.243-1.239 0-2.204-.915-2.204-2.055 0-.742.32-2.055 1.758-2.848 1.188-.668 2.55-.77 3.344-.816zm27.219-4.507c.37 0 .746 0 .746-.422 0-.446-.422-.446-.844-.446H51.781c-.422 0-.843 0-.843.446 0 .422.374.422.746.422zm-.098 4.406c.422 0 .844 0 .844-.445 0-.422-.375-.422-.746-.422h-14.04c-.37 0-.745 0-.745.421 0 .446.421.446.843.446zm49.102-.298h-.446c-.25 1.759-.445 2.056-.547 2.204-.121.2-1.906.2-2.25.2h-4.757c.89-.966 2.625-2.723 4.73-4.755 1.512-1.437 3.27-3.121 3.27-5.574 0-2.922-2.329-4.605-4.93-4.605-2.723 0-4.383 2.402-4.383 4.632 0 .965.719 1.09 1.016 1.09.25 0 .992-.148.992-1.015 0-.77-.645-.992-.992-.992a1 1 0 0 0-.395.074c.469-2.106 1.906-3.145 3.418-3.145 2.152 0 3.567 1.707 3.567 3.961 0 2.156-1.266 4.012-2.676 5.621l-4.93 5.575v.57h8.719zm54.695-12.183c0-.519-.024-.543-.473-.543l-7.355 11.711v.645h6.39v2.426c0 .89-.05 1.14-1.781 1.14h-.473v.645c.793-.051 2.129-.051 2.973-.051s2.18 0 2.973.05v-.644h-.473c-1.734 0-1.781-.25-1.781-1.14v-2.426h2.523v-.645h-2.523zm-1.363 1.633v9.535h-5.969zm56.328-1.433c0-.524-.024-.547-.371-.547-.965 1.164-2.426 1.535-3.813 1.586-.074 0-.199 0-.223.05-.027.047-.027.098-.027.618.77 0 2.055-.149 3.047-.743v13.051c0 .867-.047 1.164-2.18 1.164h-.742v.645c1.188-.028 2.426-.051 3.617-.051 1.188 0 2.426.023 3.614.05v-.644h-.743c-2.128 0-2.179-.273-2.179-1.164zm60.515 7.875c0-1.512-.023-4.086-1.066-6.071-.914-1.73-2.375-2.351-3.664-2.351-1.188 0-2.699.547-3.641 2.328-.992 1.859-1.09 4.16-1.09 6.094 0 1.41.024 3.566.793 5.445 1.063 2.555 2.969 2.898 3.938 2.898 1.141 0 2.871-.468 3.887-2.82.742-1.71.843-3.719.843-5.523m-4.73 7.949c-1.586 0-2.527-1.364-2.875-3.246-.27-1.461-.27-3.59-.27-4.977 0-1.906 0-3.492.321-5.004.472-2.105 1.855-2.746 2.824-2.746 1.016 0 2.324.668 2.797 2.699.324 1.41.347 3.071.347 5.051 0 1.61 0 3.59-.296 5.05-.524 2.7-1.981 3.173-2.848 3.173m61.254-3.841h-.446c-.246 1.759-.445 2.056-.542 2.204-.125.2-1.907.2-2.254.2h-4.754c.89-.966 2.625-2.723 4.726-4.755 1.512-1.437 3.27-3.121 3.27-5.574 0-2.922-2.328-4.605-4.93-4.605-2.723 0-4.379 2.402-4.379 4.632 0 .965.715 1.09 1.016 1.09.246 0 .988-.148.988-1.015 0-.77-.644-.992-.988-.992a1 1 0 0 0-.399.074c.469-2.106 1.907-3.145 3.418-3.145 2.153 0 3.567 1.707 3.567 3.961 0 2.156-1.266 4.012-2.676 5.621l-4.926 5.575v.57h8.715zm49.195-10.648c.25.098 1.266.422 2.305.422 2.304 0 3.566-1.238 4.285-1.957 0-.199 0-.324-.148-.324-.024 0-.075 0-.274.102-.867.371-1.883.668-3.121.668a7.5 7.5 0 0 1-3.07-.645c-.27-.125-.321-.125-.344-.125-.125 0-.152.027-.152.524v7.179c0 .446 0 .571.25.571.125 0 .171-.051.296-.223.793-1.113 1.883-1.586 3.122-1.586.863 0 2.722.547 2.722 4.781 0 .793 0 2.227-.742 3.367-.621 1.016-1.586 1.536-2.648 1.536-1.637 0-3.297-1.141-3.743-3.047.102.027.297.074.399.074.32 0 .937-.172.937-.942 0-.668-.468-.937-.937-.937-.57 0-.942.344-.942 1.04 0 2.151 1.707 4.405 4.332 4.405 2.551 0 4.981-2.203 4.981-5.398 0-2.969-1.934-5.274-4.336-5.274-1.262 0-2.328.469-3.172 1.36zm65.047-.941v-.543h-5.82c-2.895 0-2.946-.324-3.043-.793h-.446l-.718 4.629h.445c.074-.469.246-1.734.543-2.203.148-.199 1.98-.199 2.402-.199h5.449l-2.75 4.09c-1.832 2.746-3.093 6.46-3.093 9.707 0 .297 0 1.136.89 1.136.891 0 .891-.84.891-1.164v-1.137c0-4.062.695-6.738 1.836-8.445zm52.121-.394c0-.524-.027-.547-.371-.547-.969 1.164-2.43 1.535-3.816 1.586-.075 0-.196 0-.223.05-.024.047-.024.098-.024.618.766 0 2.055-.149 3.043-.743v13.051c0 .867-.046 1.164-2.175 1.164h-.746v.645c1.191-.028 2.429-.051 3.617-.051 1.187 0 2.426.023 3.617.05v-.644h-.742c-2.129 0-2.18-.273-2.18-1.164zm55.582 7.402c2.207 0 3.172 1.91 3.172 4.113 0 2.969-1.586 4.11-3.02 4.11-1.312 0-3.445-.645-4.113-2.551.125.05.246.05.371.05.598 0 1.039-.398 1.039-1.038 0-.72-.543-1.044-1.039-1.044-.422 0-1.062.2-1.062 1.114 0 2.281 2.226 4.062 4.851 4.062 2.75 0 4.856-2.152 4.856-4.68 0-2.402-1.981-4.136-4.336-4.406 1.883-.398 3.691-2.082 3.691-4.336 0-1.929-1.957-3.343-4.187-3.343-2.25 0-4.235 1.386-4.235 3.367 0 .867.645 1.015.969 1.015.52 0 .965-.32.965-.964 0-.645-.445-.965-.965-.965-.101 0-.223 0-.324.047.719-1.633 2.676-1.93 3.543-1.93s2.5.422 2.5 2.797c0 .695-.098 1.933-.942 3.023-.742.965-1.582 1.016-2.402 1.09-.121 0-.691.051-.789.051-.176.023-.273.047-.273.219 0 .175.023.199.519.199zM8.773-29.82c2.204 0 3.168 1.906 3.168 4.11 0 2.972-1.582 4.112-3.02 4.112-1.312 0-3.44-.644-4.108-2.55.12.046.246.046.37.046.594 0 1.04-.394 1.04-1.039 0-.718-.543-1.039-1.04-1.039-.421 0-1.066.2-1.066 1.114 0 2.277 2.227 4.062 4.852 4.062 2.75 0 4.855-2.152 4.855-4.68 0-2.402-1.98-4.136-4.332-4.41 1.883-.394 3.688-2.078 3.688-4.332 0-1.933-1.953-3.343-4.184-3.343-2.254 0-4.234 1.386-4.234 3.367 0 .867.644 1.015.965 1.015.52 0 .964-.32.964-.965 0-.644-.445-.964-.964-.964-.098 0-.223 0-.32.047.718-1.633 2.671-1.93 3.538-1.93s2.5.422 2.5 2.797c0 .695-.097 1.933-.937 3.023-.742.965-1.586 1.016-2.403 1.09-.125 0-.695.047-.793.047-.171.027-.273.05-.273.223 0 .175.024.199.52.199zm10.04 7.406c0-.621-.497-1.016-1.016-1.016-.496 0-1.016.395-1.016 1.016 0 .617.492 1.016 1.016 1.016.492 0 1.015-.399 1.015-1.016m21.004-5.398c0-1.637 0-2.504-1.043-3.47a4.2 4.2 0 0 0-2.82-1.062c-1.957 0-3.367 1.532-3.367 3.168 0 .918.742.965.89.965.32 0 .891-.195.891-.89 0-.618-.469-.891-.89-.891-.102 0-.223.023-.297.047.52-1.559 1.855-2.004 2.722-2.004 1.239 0 2.602 1.09 2.602 3.168v1.09c-1.461.05-3.223.25-4.606.992-1.562.867-2.007 2.105-2.007 3.047 0 1.906 2.226 2.449 3.539 2.449 1.363 0 2.625-.766 3.172-2.18.05 1.09.742 2.082 1.832 2.082.52 0 1.832-.347 1.832-2.305v-1.386h-.446v1.414c0 1.508-.668 1.707-.988 1.707-1.016 0-1.016-1.285-1.016-2.379zm-1.312 2.968c0 2.157-1.535 3.246-2.898 3.246-1.239 0-2.204-.918-2.204-2.054 0-.746.32-2.059 1.758-2.848 1.188-.672 2.55-.77 3.344-.82zm27.219-4.508c.37 0 .746 0 .746-.418 0-.445-.422-.445-.844-.445H51.781c-.422 0-.843 0-.843.445 0 .418.374.418.746.418zm-.098 4.41c.422 0 .844 0 .844-.445 0-.422-.375-.422-.746-.422h-14.04c-.37 0-.745 0-.745.422 0 .446.421.446.843.446zm49.102-.296h-.446c-.25 1.758-.445 2.054-.547 2.203-.121.2-1.906.2-2.25.2h-4.757c.89-.966 2.625-2.727 4.73-4.755 1.512-1.437 3.27-3.12 3.27-5.574 0-2.922-2.329-4.605-4.93-4.605-2.723 0-4.383 2.402-4.383 4.628 0 .97.719 1.094 1.016 1.094.25 0 .992-.148.992-1.016 0-.769-.645-.992-.992-.992a.9.9 0 0 0-.395.075c.469-2.106 1.906-3.145 3.418-3.145 2.152 0 3.567 1.707 3.567 3.96 0 2.157-1.266 4.013-2.676 5.622l-4.93 5.574v.57h8.719zm51.847-4.582c2.203 0 3.168 1.906 3.168 4.11 0 2.972-1.586 4.112-3.019 4.112-1.313 0-3.442-.644-4.114-2.55.125.046.25.046.375.046.594 0 1.039-.394 1.039-1.039 0-.718-.546-1.039-1.039-1.039-.421 0-1.066.2-1.066 1.114 0 2.277 2.227 4.062 4.852 4.062 2.75 0 4.855-2.152 4.855-4.68 0-2.402-1.98-4.136-4.336-4.41 1.883-.394 3.691-2.078 3.691-4.332 0-1.933-1.957-3.343-4.183-3.343-2.254 0-4.234 1.386-4.234 3.367 0 .867.64 1.015.964 1.015.52 0 .965-.32.965-.965 0-.644-.445-.964-.965-.964-.097 0-.222 0-.324.047.719-1.633 2.676-1.93 3.543-1.93s2.5.422 2.5 2.797c0 .695-.098 1.933-.941 3.023-.742.965-1.582 1.016-2.399 1.09-.125 0-.695.047-.793.047-.175.027-.273.05-.273.223 0 .175.023.199.519.199zm61.629.468c0-1.507-.027-4.085-1.066-6.066-.918-1.73-2.379-2.352-3.668-2.352-1.188 0-2.696.543-3.637 2.329-.992 1.855-1.09 4.16-1.09 6.09 0 1.413.024 3.57.789 5.449 1.067 2.55 2.973 2.898 3.938 2.898 1.14 0 2.875-.473 3.89-2.824.743-1.707.844-3.715.844-5.524m-4.734 7.954c-1.582 0-2.524-1.364-2.871-3.247-.27-1.46-.27-3.59-.27-4.976 0-1.906 0-3.492.32-5.004.469-2.105 1.856-2.75 2.821-2.75 1.015 0 2.328.672 2.801 2.703.324 1.41.347 3.07.347 5.05 0 1.61 0 3.59-.297 5.052-.523 2.699-1.98 3.172-2.851 3.172m59.351-16.024c0-.52-.023-.547-.468-.547l-7.356 11.715v.645h6.387v2.425c0 .891-.047 1.141-1.781 1.141h-.469v.645c.789-.051 2.129-.051 2.969-.051.843 0 2.179 0 2.972.05v-.644h-.469c-1.734 0-1.785-.25-1.785-1.14v-2.426h2.528v-.645h-2.528zm-1.359 1.633v9.535h-5.969zm59.965 10.551h-.446c-.246 1.758-.445 2.054-.542 2.203-.125.2-1.907.2-2.254.2h-4.754c.89-.966 2.625-2.727 4.726-4.755 1.512-1.437 3.27-3.12 3.27-5.574 0-2.922-2.328-4.605-4.93-4.605-2.723 0-4.379 2.402-4.379 4.628 0 .97.715 1.094 1.016 1.094.246 0 .988-.148.988-1.016 0-.769-.644-.992-.988-.992a.9.9 0 0 0-.399.075c.469-2.106 1.907-3.145 3.418-3.145 2.153 0 3.567 1.707 3.567 3.96 0 2.157-1.266 4.013-2.676 5.622l-4.926 5.574v.57h8.715zm56.777-4.114c0-1.507-.027-4.085-1.066-6.066-.918-1.73-2.379-2.352-3.668-2.352-1.188 0-2.696.543-3.637 2.329-.992 1.855-1.09 4.16-1.09 6.09 0 1.413.024 3.57.789 5.449 1.067 2.55 2.973 2.898 3.938 2.898 1.14 0 2.875-.473 3.89-2.824.743-1.707.844-3.715.844-5.524m-4.734 7.954c-1.582 0-2.524-1.364-2.871-3.247-.27-1.46-.27-3.59-.27-4.976 0-1.906 0-3.492.32-5.004.469-2.105 1.856-2.75 2.821-2.75 1.015 0 2.328.672 2.801 2.703.324 1.41.347 3.07.347 5.05 0 1.61 0 3.59-.297 5.052-.523 2.699-1.98 3.172-2.851 3.172m53.855-14.489a7.2 7.2 0 0 0 2.305.422c2.301 0 3.562-1.238 4.281-1.957 0-.2 0-.324-.148-.324-.024 0-.074 0-.274.102-.867.37-1.879.667-3.121.667a7.5 7.5 0 0 1-3.07-.644c-.27-.125-.32-.125-.344-.125-.125 0-.148.027-.148.52v7.183c0 .445 0 .57.246.57.125 0 .172-.05.297-.222.793-1.117 1.882-1.586 3.121-1.586.867 0 2.722.547 2.722 4.781 0 .79 0 2.227-.742 3.367-.621 1.016-1.586 1.535-2.648 1.535-1.633 0-3.293-1.14-3.738-3.047.097.028.296.075.394.075.32 0 .941-.172.941-.942 0-.668-.472-.941-.941-.941-.57 0-.941.348-.941 1.039 0 2.156 1.707 4.41 4.332 4.41 2.55 0 4.98-2.203 4.98-5.398 0-2.973-1.933-5.274-4.336-5.274-1.262 0-2.324.469-3.168 1.36zm60.465-1.34c0-.52-.027-.543-.371-.543-.969 1.165-2.43 1.536-3.816 1.586-.075 0-.196 0-.223.051-.024.047-.024.098-.024.617.766 0 2.055-.148 3.043-.742v13.051c0 .867-.046 1.164-2.175 1.164h-.746v.645c1.191-.028 2.429-.051 3.617-.051 1.187 0 2.426.023 3.617.05v-.644h-.742c-2.129 0-2.18-.273-2.18-1.164zm60.512 7.875c0-1.507-.024-4.085-1.067-6.066-.914-1.73-2.375-2.352-3.664-2.352-1.187 0-2.699.543-3.64 2.329-.989 1.855-1.09 4.16-1.09 6.09 0 1.413.027 3.57.793 5.449 1.066 2.55 2.972 2.898 3.937 2.898 1.141 0 2.875-.473 3.891-2.824.742-1.707.84-3.715.84-5.524m-4.731 7.954c-1.586 0-2.523-1.364-2.871-3.247-.273-1.46-.273-3.59-.273-4.976 0-1.906 0-3.492.32-5.004.473-2.105 1.859-2.75 2.824-2.75 1.016 0 2.328.672 2.797 2.703.324 1.41.348 3.07.348 5.05 0 1.61 0 3.59-.297 5.052-.52 2.699-1.98 3.172-2.848 3.172"/></g></svg>