<svg xmlns="http://www.w3.org/2000/svg" width="868" height="46pt" viewBox="0 -46 651 46"><g id="page1"><path fill="none" stroke="#000" stroke-linecap="round" stroke-linejoin="round" d="M.5-.504h649.629M.5-44.746h649.629M.5-.504v-44.242M46.902-.504v-44.242M93.305-.504v-44.242M139.707-.504v-44.242M186.109-.504v-44.242M232.508-.504v-44.242M278.91-.504v-44.242M325.313-.504v-44.242M371.715-.504v-44.242M418.117-.504v-44.242M464.52-.504v-44.242M510.922-.504v-44.242M557.324-.504v-44.242M603.727-.504v-44.242M650.129-.504v-44.242"/><path d="M18.883-31.918c0-.55 0-.574-.477-.574-.574.648-1.77 1.531-4.23 1.531v.691c.55 0 1.742 0 3.058-.62v12.449c0 .863-.074 1.148-2.175 1.148h-.739v.691c.64-.046 2.961-.046 3.75-.046s3.082 0 3.727.046v-.691h-.742c-2.102 0-2.172-.285-2.172-1.148zm7.757 7.004c0-6.047 2.938-7.004 4.227-7.004.863 0 1.723.262 2.176.98-.285 0-1.195 0-1.195.981 0 .523.359.98.98.98.598 0 1.004-.359 1.004-1.054 0-1.242-.91-2.461-2.988-2.461-3.008 0-6.164 3.082-6.164 8.34 0 6.574 2.867 8.054 4.898 8.054 2.606 0 4.828-2.27 4.828-5.379 0-3.175-2.222-5.304-4.613-5.304-2.125 0-2.914 1.84-3.152 2.511zm2.938 8.172c-1.504 0-2.222-1.34-2.437-1.84-.215-.621-.453-1.793-.453-3.465 0-1.89.859-4.254 3.011-4.254 1.313 0 2.004.883 2.363 1.695.383.883.383 2.079.383 3.106 0 1.219 0 2.297-.453 3.203-.598 1.149-1.457 1.555-2.414 1.555m41.844-8.485c1.195-.644 2.937-1.746 2.937-3.75 0-2.082-2.007-3.515-4.203-3.515-2.367 0-4.23 1.746-4.23 3.922 0 .812.238 1.625.906 2.437.262.309.29.332 1.961 1.504-2.316 1.074-3.512 2.676-3.512 4.422 0 2.531 2.414 4.11 4.852 4.11 2.648 0 4.875-1.962 4.875-4.47 0-2.437-1.723-3.511-3.586-4.66m-3.25-2.152c-.313-.215-1.266-.836-1.266-2.004 0-1.555 1.625-2.535 3.227-2.535 1.719 0 3.25 1.242 3.25 2.965 0 1.457-1.055 2.625-2.438 3.39zm1.121 3.082 2.894 1.89c.622.407 1.72 1.15 1.72 2.606 0 1.817-1.84 3.059-3.75 3.059-2.032 0-3.778-1.485-3.778-3.465 0-1.863 1.363-3.371 2.914-4.09m48.289-7.621c0-.55 0-.574-.477-.574-.574.648-1.769 1.531-4.23 1.531v.691c.551 0 1.742 0 3.059-.62v12.449c0 .863-.075 1.148-2.176 1.148h-.738v.691c.644-.046 2.96-.046 3.75-.046.789 0 3.082 0 3.726.046v-.691h-.738c-2.102 0-2.176-.285-2.176-1.148zm50.223 7.672c0-1.985-.117-3.918-.977-5.738-.98-1.98-2.703-2.508-3.875-2.508-1.383 0-3.082.695-3.965 2.676-.668 1.507-.91 2.988-.91 5.57 0 2.316.168 4.062 1.031 5.758.93 1.816 2.579 2.39 3.821 2.39 2.078 0 3.273-1.242 3.968-2.629.86-1.793.907-4.132.907-5.52m-4.875 7.668c-.766 0-2.317-.43-2.77-3.031-.265-1.438-.265-3.25-.265-4.926 0-1.957 0-3.727.382-5.137.407-1.601 1.625-2.344 2.653-2.344.91 0 2.297.551 2.75 2.606.308 1.363.308 3.25.308 4.875 0 1.601 0 3.418-.261 4.875-.454 2.629-1.961 3.082-2.797 3.082m41.554-15.339c0-.55 0-.574-.48-.574-.574.648-1.77 1.531-4.231 1.531v.691c.551 0 1.747 0 3.059-.62v12.449c0 .863-.07 1.148-2.172 1.148h-.742v.691c.645-.046 2.965-.046 3.754-.046.785 0 3.082 0 3.726.046v-.691h-.742c-2.101 0-2.172-.285-2.172-1.148zm11.7 0c0-.55 0-.574-.481-.574-.57.648-1.765 1.531-4.226 1.531v.691c.546 0 1.742 0 3.054-.62v12.449c0 .863-.07 1.148-2.172 1.148h-.742v.691c.645-.046 2.965-.046 3.754-.046.785 0 3.082 0 3.727.046v-.691h-.743c-2.101 0-2.171-.285-2.171-1.148zm34.699 0c0-.55 0-.574-.477-.574-.574.648-1.769 1.531-4.23 1.531v.691c.551 0 1.742 0 3.058-.62v12.449c0 .863-.074 1.148-2.175 1.148h-.739v.691c.645-.046 2.961-.046 3.75-.046s3.082 0 3.727.046v-.691h-.742c-2.102 0-2.172-.285-2.172-1.148zm13.445-.238c0-.453 0-.575-.336-.575-.191 0-.262 0-.453.286l-7.195 11.16v.695h6.285v2.176c0 .883-.047 1.121-1.789 1.121h-.481v.691c.551-.046 2.438-.046 3.11-.046.668 0 2.578 0 3.129.046v-.691h-.481c-1.719 0-1.789-.238-1.789-1.121v-2.176h2.414v-.695h-2.414zm-1.578 1.863v9.008h-5.809zm34.531-1.625c0-.55 0-.574-.476-.574-.575.648-1.77 1.531-4.231 1.531v.691c.551 0 1.746 0 3.059-.62v12.449c0 .863-.07 1.148-2.172 1.148h-.742v.691c.644-.046 2.961-.046 3.75-.046s3.086 0 3.726.046v-.691h-.738c-2.102 0-2.176-.285-2.176-1.148zm15.524 7.672c0-1.985-.117-3.918-.977-5.738-.98-1.98-2.703-2.508-3.875-2.508-1.383 0-3.082.695-3.965 2.676-.668 1.507-.91 2.988-.91 5.57 0 2.316.168 4.062 1.031 5.758.93 1.816 2.579 2.39 3.821 2.39 2.078 0 3.273-1.242 3.968-2.629.86-1.793.907-4.132.907-5.52m-4.875 7.668c-.766 0-2.317-.43-2.77-3.031-.265-1.438-.265-3.25-.265-4.926 0-1.957 0-3.727.382-5.137.407-1.601 1.625-2.344 2.653-2.344.91 0 2.297.551 2.75 2.606.308 1.363.308 3.25.308 4.875 0 1.601 0 3.418-.261 4.875-.454 2.629-1.961 3.082-2.797 3.082m35.754-15.339c0-.55 0-.574-.481-.574-.57.648-1.765 1.531-4.226 1.531v.691c.546 0 1.742 0 3.054-.62v12.449c0 .863-.07 1.148-2.172 1.148h-.742v.691c.645-.046 2.965-.046 3.754-.046.785 0 3.082 0 3.727.046v-.691h-.743c-2.101 0-2.171-.285-2.171-1.148zm15.332 11.305h-.528c-.07.406-.261 1.718-.5 2.101-.168.215-1.531.215-2.246.215h-4.422c.645-.55 2.102-2.078 2.723-2.652 3.633-3.348 4.973-4.59 4.973-6.953 0-2.75-2.176-4.59-4.95-4.59-2.769 0-4.394 2.367-4.394 4.422 0 1.218 1.051 1.218 1.121 1.218.504 0 1.125-.359 1.125-1.125 0-.668-.453-1.12-1.125-1.12-.215 0-.262 0-.332.023.453-1.625 1.742-2.723 3.297-2.723 2.031 0 3.273 1.695 3.273 3.895 0 2.03-1.172 3.8-2.535 5.328l-4.824 5.402v.57h8.723zm31.066-11.305c0-.55 0-.574-.477-.574-.574.648-1.769 1.531-4.23 1.531v.691c.551 0 1.742 0 3.059-.62v12.449c0 .863-.075 1.148-2.176 1.148h-.738v.691c.644-.046 2.96-.046 3.75-.046.789 0 3.082 0 3.726.046v-.691h-.738c-2.102 0-2.176-.285-2.176-1.148zm9.215 6.738c-.406.024-.5.047-.5.266 0 .238.117.238.547.238h1.101c2.032 0 2.938 1.672 2.938 3.965 0 3.133-1.625 3.969-2.793 3.969-1.149 0-3.11-.551-3.801-2.13.766.122 1.457-.308 1.457-1.167 0-.695-.504-1.172-1.172-1.172-.57 0-1.195.332-1.195 1.242 0 2.125 2.129 3.871 4.781 3.871 2.844 0 4.945-2.175 4.945-4.59 0-2.195-1.765-3.918-4.062-4.324 2.078-.597 3.418-2.34 3.418-4.207 0-1.886-1.957-3.273-4.277-3.273-2.391 0-4.161 1.457-4.161 3.203 0 .957.743 1.148 1.102 1.148.504 0 1.074-.359 1.074-1.078 0-.765-.57-1.097-1.097-1.097-.145 0-.192 0-.262.023.906-1.625 3.152-1.625 3.269-1.625.789 0 2.344.36 2.344 2.7 0 .452-.07 1.792-.765 2.82-.715 1.05-1.528 1.125-2.172 1.148zm37.187-6.738c0-.55 0-.574-.48-.574-.574.648-1.77 1.531-4.231 1.531v.691c.551 0 1.747 0 3.059-.62v12.449c0 .863-.07 1.148-2.172 1.148h-.742v.691c.645-.046 2.965-.046 3.754-.046.785 0 3.082 0 3.726.046v-.691h-.742c-2.101 0-2.172-.285-2.172-1.148zm7.754 7.004c0-6.047 2.942-7.004 4.231-7.004.859 0 1.719.262 2.176.98-.29 0-1.196 0-1.196.981 0 .523.36.98.981.98.597 0 1.004-.359 1.004-1.054 0-1.242-.911-2.461-2.989-2.461-3.011 0-6.164 3.082-6.164 8.34 0 6.574 2.867 8.054 4.899 8.054 2.601 0 4.828-2.27 4.828-5.379 0-3.175-2.227-5.304-4.613-5.304-2.129 0-2.918 1.84-3.157 2.511zm2.942 8.172c-1.508 0-2.223-1.34-2.438-1.84-.215-.621-.453-1.793-.453-3.465 0-1.89.859-4.254 3.008-4.254 1.316 0 2.008.883 2.367 1.695.383.883.383 2.079.383 3.106 0 1.219 0 2.297-.453 3.203-.598 1.149-1.461 1.555-2.414 1.555m37.781-13.551a7 7 0 0 0 2.125.36c2.699 0 4.422-1.985 4.422-2.317 0-.098-.047-.219-.192-.219-.05 0-.097 0-.312.098a7.8 7.8 0 0 1-3.106.644c-1.578 0-2.699-.476-3.156-.668-.164-.074-.215-.074-.238-.074-.191 0-.191.145-.191.528v7.097c0 .43 0 .575.289.575.117 0 .14-.028.382-.313.668-.98 1.789-1.55 2.985-1.55 1.265 0 1.89 1.167 2.078 1.573.406.934.433 2.106.433 3.012s0 2.27-.671 3.344c-.524.863-1.457 1.46-2.508 1.46a3.694 3.694 0 0 1-3.559-2.82c.117.047.262.07.379.07.406 0 1.051-.238 1.051-1.05 0-.668-.453-1.05-1.051-1.05-.43 0-1.051.214-1.051 1.148 0 2.03 1.625 4.347 4.278 4.347 2.699 0 5.066-2.27 5.066-5.304 0-2.844-1.91-5.211-4.422-5.211-1.359 0-2.414.597-3.031 1.265zm44.32-1.625c0-.55 0-.574-.476-.574-.575.648-1.77 1.531-4.231 1.531v.691c.551 0 1.746 0 3.059-.62v12.449c0 .863-.07 1.148-2.172 1.148h-.742v.691c.644-.046 2.961-.046 3.75-.046s3.086 0 3.726.046v-.691h-.738c-2.102 0-2.176-.285-2.176-1.148zm16.172.477v-.547h-5.762c-2.89 0-2.937-.313-3.035-.766h-.523l-.742 4.777h.527c.07-.43.285-1.91.598-2.171.187-.145 1.98-.145 2.316-.145h5.066l-2.535 3.633c-.644.933-3.058 4.851-3.058 9.344 0 .261 0 1.218.98 1.218 1.004 0 1.004-.933 1.004-1.242v-1.195c0-3.563.574-6.332 1.695-7.934zm32.305 1.148a7 7 0 0 0 2.129.36c2.699 0 4.418-1.985 4.418-2.317 0-.098-.047-.219-.188-.219-.051 0-.097 0-.312.098a7.8 7.8 0 0 1-3.106.644 7.8 7.8 0 0 1-3.156-.668c-.164-.074-.215-.074-.238-.074-.192 0-.192.145-.192.528v7.097c0 .43 0 .575.285.575.122 0 .145-.028.383-.313a3.61 3.61 0 0 1 2.989-1.55c1.265 0 1.886 1.167 2.078 1.573.406.934.433 2.106.433 3.012s0 2.27-.672 3.344c-.523.863-1.457 1.46-2.507 1.46a3.69 3.69 0 0 1-3.559-2.82c.117.047.262.07.379.07.406 0 1.051-.238 1.051-1.05 0-.668-.453-1.05-1.051-1.05-.43 0-1.051.214-1.051 1.148 0 2.03 1.625 4.347 4.277 4.347 2.7 0 5.067-2.27 5.067-5.304 0-2.844-1.91-5.211-4.422-5.211-1.363 0-2.414.597-3.035 1.265zm54.695-1.148v-.547h-5.762c-2.89 0-2.937-.313-3.035-.766h-.523l-.742 4.777h.527c.07-.43.285-1.91.598-2.171.187-.145 1.98-.145 2.316-.145h5.066l-2.535 3.633c-.644.933-3.058 4.851-3.058 9.344 0 .261 0 1.218.98 1.218 1.004 0 1.004-.933 1.004-1.242v-1.195c0-3.563.574-6.332 1.695-7.934z"/></g></svg>