<svg xmlns="http://www.w3.org/2000/svg" width="94pt" height="36" viewBox="0 -27 94 27"><g id="page1" fill-rule="evenodd"><path fill="#bfbfbf" d="M39.484-24.082c-.23.234-.093.375.7.605.464.141 1.625.282 2.601.325l1.77.047-2-.508c-1.953-.559-2.883-.653-3.07-.469m8.649 2.14c-3.114.606-4.696 1.024-6.137 1.63l-1.07.464-1.395-.324c-1.441-.281-2-.281-2.324.137-.187.187-.187.234 0 .375.277.137 1.023.37 1.906.508.325.047.559.187.512.28-.187.278 2.324.231 5.719-.093 1.258-.14 2.93-.277 3.629-.277l1.347-.047.418-1.211c.606-1.86.606-1.953.328-1.953-.187 0-1.488.234-2.933.512m20.558.325c-.746.375-.84.422-.558.558.183.047.93.141 1.672.141h1.351v-1.07h-.84c-.511 0-1.07.14-1.625.37m-39.066.558c-.23.094-1.07.282-1.86.465-.84.188-1.675.422-1.906.559-.418.187-.746.652-.746.976 0 .235 1.258.512 2.653.512 1.718.047 2.047-.137 2.37-1.488.141-.559.231-1.07.231-1.117 0-.137-.324-.09-.742.093m22.695 1.954c-1.906.421-2.93 1.117-3.117 2-.23 1.117.606 1.628 2.7 1.628 2.511 0 5.624-.742 6.788-1.628.559-.465 1.07-1.301.883-1.489-.14-.136-6.043-.648-6.648-.605a3 3 0 0 0-.606.094m11.16.511c-.742.188-1.394.7-1.535 1.258-.183.742.047.836 2.375.883 1.207 0 2.23-.047 2.278-.14.046-.048-.141-.56-.418-1.118l-.512-1.02h-.793c-.418 0-1.066.09-1.395.137m12.696.746c-.649.418-.977.93-.977 1.442v.465h4.699l-.605-.465c-.649-.465-2.559-1.723-2.606-1.723 0 0-.23.14-.511.281m16.511.79c0 .28-2.742 3.023-3.859 3.859-2.512 1.906-4.7 2.605-7.535 2.465-.93-.047-1.953-.184-2.277-.278-.559-.187-.559-.187-1.535.696-2.372 2.187-4.7 3.863-6.418 4.605-2.372 1.07-4.188 1.211-9.118.606-4.601-.512-6.277-.56-6.925-.235l-.512.281-.516-.558c-.695-.746-.695-1.395 0-2.047.516-.465 5.63-4.652 6.235-5.117.23-.184.093-.137-.836.047-.653.187-3.953.976-7.395 1.77C42.926-8.782 41.625-8.5 37.95-8.177c-4.183.371-7.672-.047-14.23-1.676-4-.976-7.16-1.671-8.512-1.949-1.3-.187-7.531-.281-10.09-.14-3.86.277-4.558.324-4.836.324-.465 0-.328.277.23.37 1.489.329 3.118.56 4.141.653 3.625.235 5.532.465 10.325 1.164 5.535.79 6.695.977 8.976 1.625 7.625 2 7.531 2 10.742 1.864 2.742-.094 4.137-.329 7.625-1.211 1.953-.465 2.836-.79 4.653-1.676 2.418-1.207 3.718-1.672 6.136-2.137 1.63-.328 4.7-.7 4.84-.605 0 .047-.468.23-1.07.418-.606.187-1.86.699-2.84 1.117-2.184.976-5.348 3.07-5.02 3.254.512.375 4.184 1.953 5.208 2.187.746.23 1.675.512 2.046.649 1.442.515 3.024.605 6.883.234 1.953-.14 4.23-.324 4.977-.418 1.629-.094 3.86-.789 5.812-1.766.7-.328 1.907-.793 2.606-.98.742-.184 1.441-.371 1.535-.465.324-.183.836-1.441.836-2.137 0-.464-.094-.605-.418-.84l-.465-.23.465.094c2.137.418 3.394 1.16 4.183 2.465.141.183.282.183 1.442 0 1.953-.282 2.7-.793 4.047-2.7.281-.37 1.21-1.347 2.047-2.093 2.093-1.86 2.789-2.79 2.789-3.719 0-.371-.094-.7-.14-.7-.09 0-.184.048-.184.141m-57.434 1.63c-.93.278-1.863.606-2.094.696-.605.328-1.394.933-1.394 1.117 0 .047.277.281.601.418.887.465 3.117.652 8.465.699 3.906 0 4.746 0 5.258-.234.37-.137.648-.278.695-.371 0-.094-7.578-2.325-9.578-2.79-.14 0-.977.184-1.953.465m48.227-.37c-.235.37 1.113 1.066 2.046 1.066.93 0 .79-.184-.421-.696-1.442-.558-1.489-.605-1.625-.37M25.3-14.595c-.281.14-.559.371-.653.512-.14.281-.14.281.559 0 .418-.14 1.023-.418 1.3-.512l.56-.23-.649-.047c-.328 0-.84.137-1.117.277m37.715.793c-.418.23-.883.602-1.07.883l-.278.512.652.465c1.207.882 3.348 1.254 5.813.976l1.254-.094-2.649-1.629c-1.441-.835-2.699-1.582-2.793-1.582-.093 0-.511.235-.93.47m10.418.79c.093.187 1.812.741 3.07.976.977.234 5.254.512 4.512.324-1.164-.277-7.676-1.394-7.582-1.3"/><path fill="#606060" d="M92.734-15.336c-.14.23-1.21 1.348-2.418 2.555-1.21 1.21-2.558 2.605-3.023 3.164-.977 1.117-1.535 1.441-3.3 1.765l-1.212.235-.324-.653c-.512-.882-1.723-1.582-3.441-2-.418-.136-.418-.136-.188.282.234.324.234.511.094 1.113-.278 1.164-.7 1.723-1.395 1.863-1.164.184-2.28.559-3.488 1.16-1.953.977-4.187 1.676-6 1.817-8.137.742-9.906.789-12 .137a146 146 0 0 0-2.324-.743c-.606-.187-1.953-.746-3.024-1.254l-1.953-.933.418-.324c1.953-1.535 4.746-3.024 7.258-3.953.93-.325.977-.325.465-.372-.793 0-4 .559-5.723 1.024-.883.23-2.465.836-3.86 1.535-2.605 1.207-3.487 1.531-6.046 2.184-2.973.699-4.602.93-7.3.93-2.79 0-3.255-.09-6.884-1.114-4.976-1.352-6.324-1.629-11.16-2.281-1.023-.137-2.699-.418-3.722-.559-1.02-.183-3.301-.418-5.02-.558-2.84-.184-6.512-.696-6.883-.93-.187-.137-.14.328.094.605.09.141.508.282 1.113.325.512.046 1.953.421 3.211.886C6-9.012 8.094-8.406 9.348-8.035c1.304.324 3.023.836 3.812 1.07 2.469.742 3.07.836 6.465.93l3.258.094 1.906.789c1.07.418 2.465.882 3.07.976 1.442.23 4.977.278 8.79.094 4.788-.234 7.253-.234 8.695.137.699.14 2.652.699 4.37 1.257 4.747 1.489 6.048 1.766 10.142 2.141.464.047 1.535.184 2.37.277.883.094 3.579.188 6.09.235 6.141.137 6.793 0 10-2.094 1.907-1.258 2.512-1.488 4.606-1.906 2.695-.512 3.207-.793 5.766-3.63 2.14-2.37 2.976-3.44 3.535-4.651.465-.973.883-2.602.742-3.114-.047-.28-.047-.234-.23.094"/><path fill="gray" d="M39.902-26.871c-5.765.746-10.043 2.047-18.414 5.629-1.023.465-3.304 1.207-5.117 1.719-8.695 2.511-10.324 3.07-12.465 4.324-.605.328-1.394.886-1.812 1.258-.742.605-1.953 1.953-1.953 2.23 0 .094.605.094 4.976-.23 2.559-.141 8.79-.047 10.09.14 1.352.278 4.512.973 8.512 1.95 6.558 1.628 10.047 2.046 14.23 1.675 3.676-.324 4.977-.605 14.047-2.789 3.441-.793 6.742-1.582 7.395-1.77.93-.183 1.066-.23.836-.046-.606.465-5.72 4.652-6.235 5.117-.695.652-.695 1.3 0 2.047l.516.558.511-.28c.649-.325 2.325-.278 6.926.234 4.93.605 6.746.464 9.118-.606 1.718-.742 4.046-2.418 6.418-4.605.976-.883.976-.883 1.535-.696.324.094 1.347.23 2.23.278 1.813.093 3.211-.137 4.79-.79 1.816-.746 4.233-2.605 6-4.742l.882-.976-.649-.606c-.93-.793-2.417-1.304-5.628-1.812-3.16-.559-4.649-.934-5.86-1.582-.93-.465-2.465-1.07-3.953-1.63-.605-.187-1.347-.28-3.023-.28-2.23-.043-2.325-.043-5.348-.93-6.277-1.719-8.976-2.137-16.043-2.418-2.094-.094-4.746-.23-5.906-.324-2.047-.14-5.63-.14-6.606-.047m-.418 2.789c-.23.234-.093.375.7.605.464.141 1.625.282 2.601.325l1.77.047-2-.508c-1.953-.559-2.883-.653-3.07-.469m8.649 2.14c-3.114.606-4.696 1.024-6.137 1.63l-1.07.464-1.395-.324c-1.441-.281-2-.281-2.324.137-.187.187-.187.234 0 .375.277.137 1.023.37 1.906.508.325.047.559.187.512.28-.187.278 2.324.231 5.719-.093 1.258-.14 2.93-.277 3.629-.277l1.347-.047.418-1.211c.606-1.86.606-1.953.328-1.953-.187 0-1.488.234-2.933.512m20.558.325c-.746.375-.84.422-.558.558.183.047.93.141 1.672.141h1.351v-1.07h-.84c-.511 0-1.07.14-1.625.37m-39.066.558c-.23.094-1.07.282-1.86.465-.84.188-1.675.422-1.906.559-.418.187-.746.652-.746.976 0 .235 1.258.512 2.653.512 1.718.047 2.047-.137 2.37-1.488.141-.559.231-1.07.231-1.117 0-.137-.324-.09-.742.093m22.695 1.954c-1.906.421-2.93 1.117-3.117 2-.23 1.117.606 1.628 2.7 1.628 2.511 0 5.624-.742 6.788-1.628.559-.465 1.07-1.301.883-1.489-.14-.136-6.043-.648-6.648-.605a3 3 0 0 0-.606.094m11.16.511c-.742.188-1.394.7-1.535 1.258-.183.742.047.836 2.375.883 1.207 0 2.23-.047 2.278-.14.046-.048-.141-.56-.418-1.118l-.512-1.02h-.793c-.418 0-1.066.09-1.395.137m12.696.746c-.649.418-.977.93-.977 1.442v.465h4.699l-.605-.465c-.649-.465-2.559-1.723-2.606-1.723 0 0-.23.14-.511.281M35.254-15.43c-.93.278-1.863.606-2.094.696-.605.328-1.394.933-1.394 1.117 0 .047.277.281.601.418.887.465 3.117.652 8.465.699 3.906 0 4.746 0 5.258-.234.37-.137.648-.278.695-.371 0-.094-7.578-2.325-9.578-2.79-.14 0-.977.184-1.953.465m48.227-.37c-.235.37 1.113 1.066 2.046 1.066.93 0 .79-.184-.421-.696-1.442-.558-1.489-.605-1.625-.37M25.3-14.595c-.281.14-.559.371-.653.512-.14.281-.14.281.559 0 .418-.14 1.023-.418 1.3-.512l.56-.23-.649-.047c-.328 0-.84.137-1.117.277m37.715.793c-.418.23-.883.602-1.07.883l-.278.512.652.465c1.207.882 3.348 1.254 5.813.976l1.254-.094-2.649-1.629c-1.441-.835-2.699-1.582-2.793-1.582-.093 0-.511.235-.93.47m10.418.79c.093.187 1.812.741 3.07.976.977.234 5.254.512 4.512.324-1.164-.277-7.676-1.394-7.582-1.3M57.25-11.43c.184.09.371.09.512 0 .23-.14.187-.187-.235-.187-.465 0-.511.047-.277.187M5.395-10.406h1.023c.234-.047.047-.094-.512-.094s-.789.047-.511.094m2.093.136c.235.047.606.047.836 0 .235-.046.047-.046-.418-.046s-.648 0-.418.046m25.348 4.512h1.953c.508-.047.09-.047-.98-.047-1.067 0-1.532 0-.973.047m33.297 1.86h1.023c.278-.047.047-.09-.512-.09s-.746.043-.511.09"/></g></svg>