<svg xmlns="http://www.w3.org/2000/svg" width="910pt" height="422pt" viewBox="0 -422 910 422"><g id="page1" transform="scale(1 -1)"><path fill="#cc9c6f" d="M142.73 324.148a7141 7141 0 0 1 311.813-6.804c104.062 0 208.082 2.269 311.812 6.804v17.008a7141 7141 0 0 1-311.812 6.805 7141 7141 0 0 1-311.813-6.805z"/><path fill="none" stroke="#000" stroke-linecap="round" stroke-linejoin="round" stroke-width="2" d="M142.73 324.148a7141 7141 0 0 1 311.813-6.804c104.062 0 208.082 2.269 311.812 6.804v17.008a7141 7141 0 0 1-311.812 6.805 7141 7141 0 0 1-311.813-6.805z"/><path fill="#fff" d="M176.746 332.652a5.665 5.665 0 0 1-5.668 5.668 5.667 5.667 0 1 1 0-11.336 5.667 5.667 0 0 1 5.668 5.668"/><path fill="none" stroke="#000" stroke-linecap="round" stroke-linejoin="round" stroke-width="2" d="M176.746 332.652a5.665 5.665 0 0 1-5.668 5.668 5.667 5.667 0 1 1 0-11.336 5.667 5.667 0 0 1 5.668 5.668"/><path fill="#fff" d="M743.676 332.652a5.665 5.665 0 0 1-5.668 5.668 5.667 5.667 0 1 1 0-11.336 5.667 5.667 0 0 1 5.668 5.668"/><path fill="none" stroke="#000" stroke-linecap="round" stroke-linejoin="round" stroke-width="2" d="M743.676 332.652a5.665 5.665 0 0 1-5.668 5.668 5.667 5.667 0 1 1 0-11.336 5.667 5.667 0 0 1 5.668 5.668"/><path fill="#d3ae37" d="M341.156 86.04c0 15.655-76.144 28.347-170.078 28.347C77.148 114.387 1 101.695 1 86.039s76.148-28.348 170.078-28.348c93.934 0 170.078 12.692 170.078 28.348"/><path fill="none" stroke="#000" stroke-linecap="round" stroke-linejoin="round" stroke-width="2" d="M341.156 86.04c0 15.655-76.144 28.347-170.078 28.347C77.148 114.387 1 101.695 1 86.039s76.148-28.348 170.078-28.348c93.934 0 170.078 12.692 170.078 28.348m-170.078 226.77 161.41-217.813m-161.41 217.813L117.32 112.941m53.758 199.868L19.984 73.012m151.094 239.797v19.843"/><g fill-rule="evenodd"><path fill="#a7410e" d="M109.074 108.469c-.308-.125-.621-.313-.679-.313-.063 0 .554-.679 1.363-1.488.805-.805 1.797-1.859 2.23-2.48.438-.555 1.117-1.61 1.489-2.293.312-.68.746-1.797.992-2.418.187-.684.375-1.797.433-2.418 0-.684.125-1.243.25-1.301.063-.063.559-.125 1.055-.125.742 0 .93.062.992.246.063.125 0 .746-.125 1.426-.125.62-.433 1.86-.746 2.668-.246.867-.68 2.047-.988 2.668-.313.617-.871 1.672-1.305 2.293-.371.621-.992 1.425-1.301 1.796-.371.309-.929.805-1.242 1.118-.371.246-.804.558-1.054.679a2 2 0 0 1-.618.188c-.125 0-.433-.121-.746-.246m17.735-8.371h.746c.246.058.062.058-.371.058-.375 0-.563 0-.375-.058m-20.832-40.492c.433-.372.804-.747.804-.747.063 0-.25.375-.683.746-.371.434-.743.805-.805.805s.246-.37.684-.804m-7.567-1.614c.371-.433.742-.804.805-.804s-.246.37-.68.804c-.433.371-.808.746-.808.746-.063 0 .25-.375.683-.746"/><path fill="red" d="M125.012 99.723c-.559-.184-1.242-.434-1.426-.559-.25-.121-1.305-.742-2.297-1.426-1.051-.617-2.293-1.363-2.789-1.61-.805-.37-.992-.37-2.418-.37-1.238 0-1.676.058-2.605.37-.555.184-2.231.868-3.594 1.552-1.43.617-3.039 1.3-3.598 1.484-.558.188-1.488.438-2.109.496-.93.125-1.301.125-2.231-.058-.621-.125-1.738-.496-2.48-.809-.746-.246-1.8-.742-2.297-1.055-.496-.308-1.3-.804-1.672-1.113-.433-.371-1.117-.992-1.613-1.488s-1.117-1.301-1.489-1.797c-.308-.496-.804-1.43-1.117-2.05-.308-.556-.742-1.548-.93-2.169-.183-.621-.495-1.676-.616-2.418-.188-.742-.375-2.047-.438-2.914-.121-.93-.121-2.355-.059-3.473.059-1.054.184-2.605.309-3.41.063-.808.371-2.172.559-3.039.183-.867.62-2.48.992-3.656.37-1.117 1.175-2.98 1.734-4.094a43 43 0 0 1 1.922-3.535 72 72 0 0 1 1.8-2.48 71 71 0 0 1 2.356-2.48c.805-.806 1.985-1.798 2.543-2.169.559-.437 1.364-.934 1.797-1.18.434-.187 1.426-.62 2.234-.867.743-.25 1.985-.558 2.79-.683.867-.125 1.734-.188 2.48-.125.684 0 1.613.25 2.48.496 1.055.312 1.614.433 2.543.433 1.051.063 1.301 0 3.098-.617 1.43-.558 2.109-.683 2.731-.683.496 0 1.3.125 1.859.308.559.125 1.488.496 2.109.746.618.309 1.672.805 2.293 1.18.684.434 1.676 1.113 2.293 1.61.621.433 1.614 1.363 2.235 1.984s1.55 1.613 2.047 2.23c.496.621 1.3 1.738 1.796 2.422.434.742 1.18 1.984 1.614 2.727.433.746 1.117 2.109 1.55 3.039.372.867.993 2.48 1.364 3.472s.804 2.418.992 3.223c.184.746.434 1.926.559 2.668.058.683.183 2.047.246 2.977.062.992.062 2.355-.063 3.285-.058.87-.308 2.171-.433 2.855-.125.68-.434 1.797-.68 2.414-.188.684-.621 1.676-.934 2.297-.308.621-.867 1.55-1.238 2.11s-1.055 1.425-1.613 1.984c-.559.496-1.301 1.238-1.797 1.547-.434.312-1.305.87-1.922 1.18a20 20 0 0 1-2.109.867c-.497.187-1.426.37-1.985.496-.621.125-1.672.25-2.418.187-1.054 0-1.551-.062-2.355-.312M97.109 84.469c-.187-.434-.496-1.238-.62-1.86-.188-.62-.372-1.796-.497-2.543-.125-.804-.187-2.418-.187-3.53 0-1.243.062-2.794.187-3.536.125-.746.309-1.86.496-2.48.125-.622.496-1.739.805-2.48.313-.747.867-1.923 1.305-2.606.433-.743 1.113-1.735 1.547-2.356a62 62 0 0 1 1.984-2.11c.621-.62 1.676-1.488 2.297-1.984.679-.433 1.609-1.054 2.168-1.3.558-.25 1.117-.496 1.367-.496.246-.063.371-.063.371.062 0 .063-.992 1.113-2.109 2.293a80 80 0 0 0-2.914 3.102 42 42 0 0 1-1.489 2.046c-.371.555-.992 1.672-1.363 2.418a30 30 0 0 0-1.117 2.606c-.188.68-.559 1.734-.684 2.355-.12.618-.37 1.735-.496 2.54-.12.93-.246 2.855-.246 5.519-.062 2.297-.125 4.34-.125 4.59-.062.25-.125.496-.183.496-.125 0-.313-.371-.497-.746"/><path d="M129.539 119.195c-.312-.062-1.055-.558-1.676-1.117-.621-.496-1.425-1.113-1.734-1.363-.438-.313-.934-.496-1.676-.621-.558-.063-1.859-.309-2.851-.434-1.489-.25-1.985-.371-2.914-.867-.809-.371-1.305-.746-1.922-1.426-.438-.496-1.055-1.304-1.368-1.922-.308-.621-.617-1.367-.742-1.613l-.125-.496-.929.684c-.559.371-1.489.929-2.11 1.238-1.054.496-1.238.558-1.859.433-.371 0-1.238-.308-1.922-.558-.867-.371-1.363-.68-1.734-1.113-.313-.313-.622-.809-.684-1.118-.125-.375-.125-.871-.063-1.179 0-.309.188-.805.372-1.055.125-.309.621-.805 1.054-1.176a14 14 0 0 0 1.86-1.676c.558-.558 1.367-1.488 1.738-2.046.371-.555.684-1.051.617-1.118 0 0-.805.313-1.734.746-.992.372-2.293.868-2.914 1.055-.868.188-1.551.309-2.852.309-1.488 0-1.922-.063-3.039-.371-.684-.246-1.86-.621-2.543-.93-.68-.309-1.734-.867-2.293-1.242-.621-.309-1.676-1.113-2.355-1.672-.747-.621-1.676-1.55-2.11-2.11a25 25 0 0 1-1.425-1.796c-.313-.497-.81-1.426-1.18-2.11-.309-.683-.805-1.738-1.055-2.418-.246-.683-.555-1.984-.742-2.914s-.434-2.543-.496-3.66c-.125-1.488-.125-2.48 0-4.215.062-1.18.246-2.914.433-3.843.125-.93.434-2.297.621-3.04a66 66 0 0 1 .805-2.851 125 125 0 0 1 1.117-2.977c.309-.808.93-2.11 1.364-2.851.37-.809 1.117-2.047 1.613-2.793.496-.742 1.363-1.985 1.984-2.727.621-.746 1.735-1.984 2.543-2.73a27 27 0 0 1 2.664-2.293c.684-.559 1.86-1.242 2.606-1.676.805-.371 1.859-.805 2.48-.992.621-.246 1.672-.496 2.356-.68.683-.125 2.047-.312 3.039-.312 1.676-.063 1.922-.063 3.164.312.742.184 1.734.434 2.168.559l.746.246 2.23-.742c1.985-.684 2.293-.746 3.473-.746 1.117 0 1.551.062 2.914.433.992.313 2.356.867 3.598 1.488 1.054.559 2.543 1.426 3.285 1.922.742.559 2.172 1.801 3.227 2.856 1.05 1.05 2.355 2.418 2.789 3.035.433.621 1.238 1.738 1.734 2.48.496.746 1.242 2.047 1.676 2.793.433.743 1.117 2.23 1.551 3.223.496 1.055 1.117 2.668 1.488 3.723.371.992.804 2.601 1.054 3.468.184.93.497 2.422.618 3.29.125.992.25 2.48.25 3.968 0 1.61-.063 2.914-.25 3.969-.121.805-.371 2.105-.559 2.789-.184.742-.555 1.734-.742 2.293-.188.496-.684 1.55-1.055 2.297a24 24 0 0 1-1.488 2.48c-.496.618-1.18 1.489-1.613 1.922a12.3 12.3 0 0 1-1.61 1.489c-.433.37-1.367 1.05-2.047 1.425-.683.434-1.863 1.055-2.668 1.364-.804.308-2.168.683-3.039.867-.867.187-1.859.312-2.23.375h-.621l.746.371c.433.183 1.176.742 1.672 1.238.558.559 1.117 1.305 1.426 1.859.25.559.621 1.426.746 1.989.183.617.371 1.797.496 2.789.125.93.246 2.48.308 3.41.063 1.113.063 1.922-.062 2.293-.063.312-.309.809-.496 1.055-.121.25-.559.621-.867.746-.309.183-.805.371-1.118.371-.371.062-.867 0-1.113-.063m-.496-3.785a19 19 0 0 0-2.047-1.426c-.496-.246-1.363-.496-1.922-.617a26 26 0 0 0-2.605-.375c-.805-.121-1.797-.371-2.168-.496a4.7 4.7 0 0 1-1.305-.867c-.308-.309-.742-.93-.992-1.363-.246-.434-.559-1.118-.684-1.614a8.2 8.2 0 0 1-.246-1.922c0-.558.125-1.363.188-1.671.121-.375.308-.93.433-1.305l.309-.617 1.242.679c.68.372 1.609.747 2.043.868.375.125 1.488.312 2.359.433.93.063 1.922.25 2.293.375.372.063.93.246 1.243.434.371.183.867.558 1.113.804.187.309.558.747.683 1.055.125.246.372.93.559 1.426.184.559.371 1.551.496 2.297.121.742.246 2.105.309 3.16 0 .992.062 1.801 0 1.801 0 0-.621-.5-1.301-1.059m-19.969-6.941c-.308-.125-.621-.313-.679-.313-.063 0 .554-.679 1.363-1.488.805-.805 1.797-1.859 2.23-2.48.438-.555 1.117-1.61 1.489-2.293.312-.68.746-1.797.992-2.418a17 17 0 0 0 .433-2.48c.063-.93 0-1.18-.121-1.18-.062 0-.683.187-1.367.374-.617.246-1.859.743-2.664 1.114-.867.433-2.172.992-2.914 1.304-.809.309-1.984.743-2.606.93-.992.246-1.488.246-2.355.184-.684 0-1.551-.184-2.418-.496-.746-.246-1.86-.743-2.543-1.051-.683-.375-1.738-.992-2.293-1.43-.558-.433-1.426-1.176-1.8-1.672a14.6 14.6 0 0 1-1.489-1.797c-.371-.558-.867-1.367-1.055-1.8a24 24 0 0 1-.867-2.047 66 66 0 0 1-.68-2.477 18 18 0 0 1-.437-2.297c-.059-.558-.121-2.293-.059-3.781 0-1.613.122-3.41.247-4.219a38 38 0 0 1 .683-3.222c.246-.993.68-2.543.93-3.348.308-.867.804-2.234 1.175-2.977.313-.808.993-2.046 1.43-2.851.496-.809 1.239-1.985 1.735-2.668.433-.621 1.238-1.676 1.797-2.297.496-.617 1.488-1.672 2.171-2.23.684-.622 1.672-1.364 2.11-1.735.433-.312 1.301-.809 1.922-1.117s1.613-.684 2.23-.93a31 31 0 0 1 2.297-.558c.68-.125 1.672-.25 2.293-.25.805 0 1.426.125 2.851.558 1.301.375 1.985.496 2.731.496.805 0 1.301-.12 2.91-.617 1.492-.558 2.109-.683 2.856-.683.742-.063 1.238.062 2.168.37.621.188 1.738.622 2.418.993.746.312 1.925.992 2.605 1.488.746.434 1.922 1.305 2.543 1.86.621.558 1.613 1.55 2.172 2.234.555.617 1.363 1.55 1.734 2.11.434.558.992 1.425 1.363 1.921.313.559.93 1.61 1.368 2.356.433.804 1.113 2.23 1.547 3.16a68 68 0 0 1 1.55 3.969c.371 1.242.868 2.914.993 3.722.187.867.375 2.11.433 2.79.063.683.125 1.921.125 2.788 0 .871-.062 2.297-.183 3.04-.125.808-.313 1.984-.5 2.605-.122.62-.434 1.613-.618 2.11-.25.558-.621 1.488-.871 1.984-.246.558-.804 1.425-1.176 1.984s-1.179 1.55-1.796 2.168c-.622.621-1.489 1.363-1.985 1.676-.496.37-1.363.867-1.984 1.113-.621.313-1.676.746-2.36.934-.679.183-1.859.37-2.726.496-1.301.121-1.613.121-2.543-.063-.559-.125-1.488-.496-2.109-.808-.555-.246-1.797-.993-2.727-1.547-.867-.621-1.922-1.243-2.297-1.426-.433-.125-.867-.313-1.051-.375-.375-.121-.375-.063-.621 1.242a19 19 0 0 1-.746 2.852c-.246.867-.68 2.047-.988 2.668-.313.617-.871 1.672-1.305 2.293-.371.621-.992 1.425-1.301 1.796-.371.309-.929.805-1.242 1.118-.371.246-.804.558-1.054.679a2 2 0 0 1-.618.188c-.125 0-.433-.121-.746-.246m12.711-6.512c-.308-.125-.93-.434-1.426-.742-.496-.25-.867-.563-.867-.684 0-.125 0-.187.063-.187 0 0 .371.187.804.496.375.25 1.118.621 1.551.871.434.246.684.434.621.434-.125 0-.433-.125-.746-.188M97.047 84.285c-.188-.375-.434-1.426-.621-2.234-.188-.805-.434-2.106-.496-2.79a42 42 0 0 1-.125-2.85c0-.872.062-2.235.187-3.102s.371-2.106.559-2.852c.183-.684.496-1.676.68-2.172.187-.558.558-1.363.808-1.86.246-.495.867-1.487 1.3-2.167.497-.684 1.489-1.922 2.231-2.668.684-.746 1.801-1.8 2.485-2.235.617-.496 1.734-1.175 2.418-1.546.742-.375 1.363-.621 1.609-.559.25 0 .125.246-1.488 1.797-.992.992-2.293 2.418-2.914 3.101-.559.743-1.426 1.922-1.86 2.606-.496.68-1.117 1.734-1.425 2.414-.309.621-.805 1.8-1.118 2.605a32 32 0 0 0-.804 3.102c-.188.867-.371 2.356-.496 3.16-.063.871-.125 2.98-.125 4.715s-.063 3.41-.125 3.719c0 .312-.121.558-.184.558s-.312-.308-.496-.742"/><path fill="#8a0" d="M129.043 115.41a19 19 0 0 0-2.047-1.426c-.496-.246-1.363-.496-1.922-.617a26 26 0 0 0-2.605-.375c-.805-.121-1.797-.371-2.168-.496a4.7 4.7 0 0 1-1.305-.867c-.308-.309-.742-.93-.992-1.363-.246-.434-.559-1.118-.684-1.614a8.2 8.2 0 0 1-.246-1.922c0-.558.125-1.363.188-1.671.121-.375.308-.93.433-1.305l.309-.617 1.242.679c.68.372 1.609.747 2.043.868.375.125 1.488.312 2.359.433.93.063 1.922.25 2.293.375.372.063.93.246 1.243.434.371.183.867.558 1.113.804.187.309.558.747.683 1.055.125.246.372.93.559 1.426.184.559.371 1.551.496 2.297.121.742.246 2.105.309 3.16 0 .992.062 1.801 0 1.801 0 0-.621-.5-1.301-1.059m5.578-59.523-.742-.809.805.746c.433.434.808.805.808.805l-.062.062z"/><path fill="#a7410e" d="M168.758 108.469c-.309-.125-.621-.313-.684-.313-.058 0 .559-.679 1.367-1.488.805-.805 1.797-1.859 2.231-2.48a20.5 20.5 0 0 0 1.488-2.293c.309-.68.746-1.797.992-2.418.188-.684.371-1.797.434-2.418 0-.684.125-1.243.25-1.301.059-.063.559-.125 1.055-.125.742 0 .929.062.992.246.058.125 0 .746-.125 1.426-.125.62-.434 1.86-.746 2.668-.246.867-.68 2.047-.992 2.668-.309.617-.868 1.672-1.301 2.293-.371.621-.992 1.425-1.305 1.796-.371.309-.93.805-1.238 1.118-.371.246-.805.558-1.055.679a2 2 0 0 1-.617.188c-.125 0-.438-.121-.746-.246m17.734-8.371h.742c.25.058.063.058-.371.058-.371 0-.558 0-.371-.058m-20.836-40.492c.434-.372.809-.747.809-.747.062 0-.25.375-.684.746-.371.434-.742.805-.804.805s.246-.37.679-.804m-7.562-1.614c.371-.433.742-.804.804-.804s-.246.37-.683.804c-.434.371-.805.746-.805.746-.062 0 .25-.375.684-.746"/><path fill="red" d="M184.695 99.723c-.558-.184-1.242-.434-1.425-.559-.25-.121-1.305-.742-2.297-1.426-1.055-.617-2.293-1.363-2.789-1.61-.805-.37-.993-.37-2.418-.37-1.243 0-1.676.058-2.606.37-.558.184-2.23.868-3.597 1.552-1.426.617-3.036 1.3-3.594 1.484-.559.188-1.489.438-2.11.496-.929.125-1.3.125-2.23-.058-.621-.125-1.738-.496-2.484-.809-.743-.246-1.797-.742-2.293-1.055-.497-.308-1.301-.804-1.672-1.113a31 31 0 0 1-1.614-1.488c-.496-.496-1.117-1.301-1.488-1.797a31 31 0 0 1-1.117-2.05c-.309-.556-.742-1.548-.93-2.169-.187-.621-.496-1.676-.621-2.418-.183-.742-.371-2.047-.433-2.914-.122-.93-.122-2.355-.063-3.473.063-1.054.188-2.605.313-3.41.062-.808.371-2.172.558-3.039.184-.867.617-2.48.992-3.656.371-1.117 1.176-2.98 1.735-4.094a43 43 0 0 1 1.922-3.535 72 72 0 0 1 1.796-2.48c.5-.559 1.551-1.676 2.36-2.48.805-.806 1.984-1.798 2.543-2.169.555-.437 1.363-.934 1.797-1.18.433-.187 1.425-.62 2.23-.867.746-.25 1.985-.558 2.793-.683.867-.125 1.735-.188 2.481-.125.679 0 1.609.25 2.48.496 1.051.312 1.609.433 2.539.433 1.055.063 1.305 0 3.102-.617 1.425-.558 2.109-.683 2.73-.683a7 7 0 0 1 1.86.308c.558.125 1.488.496 2.109.746.617.309 1.672.805 2.293 1.18.683.434 1.672 1.113 2.293 1.61.621.433 1.613 1.363 2.234 1.984.617.62 1.547 1.613 2.043 2.23.496.621 1.305 1.738 1.801 2.422.434.742 1.176 1.984 1.613 2.727.434.746 1.114 2.109 1.547 3.039.375.867.992 2.48 1.367 3.472.371.993.805 2.418.993 3.223.183.746.433 1.926.554 2.668.063.683.188 2.047.25 2.977.063.992.063 2.355-.062 3.285-.063.87-.309 2.171-.434 2.855-.125.68-.433 1.797-.683 2.414-.184.684-.618 1.676-.93 2.297-.309.621-.867 1.55-1.238 2.11-.375.558-1.055 1.425-1.614 1.984-.558.496-1.301 1.238-1.797 1.547-.433.312-1.304.87-1.921 1.18a20 20 0 0 1-2.11.867c-.496.187-1.426.37-1.984.496-.621.125-1.676.25-2.418.187-1.055 0-1.551-.062-2.356-.312m-27.906-15.254c-.184-.434-.496-1.238-.617-1.86-.188-.62-.375-1.796-.496-2.543-.125-.804-.188-2.418-.188-3.53 0-1.243.063-2.794.188-3.536.121-.746.308-1.86.496-2.48.121-.622.492-1.739.805-2.48.308-.747.867-1.923 1.3-2.606.438-.743 1.118-1.735 1.551-2.356a57 57 0 0 1 1.985-2.11c.621-.62 1.675-1.488 2.292-1.984.684-.433 1.614-1.054 2.172-1.3.559-.25 1.118-.496 1.364-.496.25-.063.375-.063.375.062 0 .063-.996 1.113-2.11 2.293a78 78 0 0 0-2.914 3.102 45 45 0 0 1-1.488 2.046c-.371.555-.992 1.672-1.363 2.418a28 28 0 0 0-1.118 2.606c-.187.68-.558 1.734-.683 2.355-.125.618-.371 1.735-.496 2.54-.125.93-.246 2.855-.246 5.519-.063 2.297-.125 4.34-.125 4.59-.063.25-.125.496-.188.496-.121 0-.308-.371-.496-.746"/><path d="M189.219 119.195c-.309-.062-1.055-.558-1.672-1.117-.621-.496-1.426-1.113-1.738-1.363-.434-.313-.93-.496-1.672-.621-.559-.063-1.86-.309-2.852-.434-1.488-.25-1.984-.371-2.918-.867-.804-.371-1.301-.746-1.922-1.426-.433-.496-1.05-1.304-1.363-1.922-.309-.621-.617-1.367-.742-1.613l-.125-.496-.93.684c-.558.371-1.488.929-2.109 1.238-1.055.496-1.238.558-1.86.433-.371 0-1.242-.308-1.921-.558-.868-.371-1.364-.68-1.739-1.113-.308-.313-.617-.809-.679-1.118-.125-.375-.125-.871-.063-1.179 0-.309.188-.805.371-1.055.125-.309.621-.805 1.055-1.176a14 14 0 0 0 1.859-1.676c.559-.558 1.364-1.488 1.739-2.046.371-.555.679-1.051.617-1.118 0 0-.805.313-1.735.746-.992.372-2.293.868-2.914 1.055-.867.188-1.551.309-2.851.309-1.489 0-1.922-.063-3.039-.371-.684-.246-1.86-.621-2.543-.93-.684-.309-1.739-.867-2.293-1.242-.621-.309-1.676-1.113-2.36-1.672-.742-.621-1.672-1.55-2.105-2.11a25 25 0 0 1-1.426-1.796c-.312-.497-.809-1.426-1.18-2.11-.308-.683-.804-1.738-1.054-2.418-.246-.683-.559-1.984-.742-2.914-.188-.93-.434-2.543-.497-3.66-.125-1.488-.125-2.48 0-4.215.063-1.18.247-2.914.434-3.843.121-.93.434-2.297.617-3.04.188-.746.559-2.047.809-2.851.308-.871.804-2.172 1.113-2.977.313-.808.934-2.11 1.367-2.851.371-.809 1.114-2.047 1.614-2.793.496-.742 1.363-1.985 1.984-2.727.617-.746 1.734-1.984 2.539-2.73.809-.805 1.984-1.797 2.668-2.293.684-.559 1.859-1.242 2.605-1.676.805-.371 1.86-.805 2.481-.992.617-.246 1.672-.496 2.355-.68.684-.125 2.047-.312 3.039-.312 1.672-.063 1.922-.063 3.161.312.746.184 1.738.434 2.171.559l.743.246 2.234-.742c1.984-.684 2.293-.746 3.473-.746 1.117 0 1.547.062 2.914.433.992.313 2.355.867 3.593 1.488 1.055.559 2.543 1.426 3.29 1.922.742.559 2.168 1.801 3.222 2.856 1.055 1.05 2.36 2.418 2.793 3.035.434.621 1.238 1.738 1.735 2.48.496.746 1.242 2.047 1.675 2.793.434.743 1.114 2.23 1.547 3.223.496 1.055 1.117 2.668 1.488 3.723.375.992.809 2.601 1.055 3.468.188.93.496 2.422.621 3.29.125.992.25 2.48.25 3.968 0 1.61-.062 2.914-.25 3.969-.125.805-.371 2.105-.558 2.789-.184.742-.559 1.734-.743 2.293-.187.496-.683 1.55-1.054 2.297a24 24 0 0 1-1.488 2.48c-.497.618-1.18 1.489-1.614 1.922a12 12 0 0 1-1.609 1.489c-.438.37-1.367 1.05-2.051 1.425-.68.434-1.859 1.055-2.664 1.364-.805.308-2.172.683-3.039.867-.867.187-1.859.312-2.231.375h-.621l.746.371c.434.183 1.176.742 1.672 1.238.559.559 1.118 1.305 1.426 1.859.25.559.621 1.426.746 1.989.184.617.371 1.797.496 2.789.121.93.246 2.48.309 3.41.062 1.113.062 1.922-.063 2.293-.062.312-.308.809-.496 1.055-.125.25-.558.621-.867.746-.308.183-.808.371-1.117.371-.371.062-.867 0-1.117-.063m-.492-3.785a19 19 0 0 0-2.047-1.426c-.496-.246-1.367-.496-1.922-.617a26 26 0 0 0-2.606-.375 16 16 0 0 1-2.172-.496c-.433-.183-.992-.555-1.3-.867-.313-.309-.746-.93-.992-1.363-.25-.434-.559-1.118-.684-1.614a8.2 8.2 0 0 1-.246-1.922c0-.558.125-1.363.183-1.671l.438-1.305.309-.617 1.238.679c.683.372 1.613.747 2.047.868.371.125 1.488.312 2.355.433.934.063 1.926.25 2.297.375.371.063.93.246 1.238.434a5.2 5.2 0 0 1 1.117.804c.184.309.559.747.684 1.055.121.246.371.93.555 1.426.187.559.375 1.551.496 2.297.125.742.25 2.105.312 3.16 0 .992.063 1.801 0 1.801 0 0-.621-.5-1.3-1.059m-19.969-6.941c-.309-.125-.621-.313-.684-.313-.058 0 .559-.679 1.367-1.488.805-.805 1.797-1.859 2.231-2.48a20.5 20.5 0 0 0 1.488-2.293c.309-.68.746-1.797.992-2.418.188-.684.371-1.797.434-2.48.062-.93 0-1.18-.121-1.18-.063 0-.684.187-1.367.374-.618.246-1.86.743-2.664 1.114-.871.433-2.172.992-2.914 1.304-.809.309-1.985.743-2.606.93-.992.246-1.488.246-2.355.184-.684 0-1.551-.184-2.418-.496-.746-.246-1.864-.743-2.543-1.051-.684-.375-1.739-.992-2.297-1.43-.559-.433-1.426-1.176-1.797-1.672-.434-.433-1.117-1.238-1.488-1.797s-.868-1.367-1.055-1.8a23 23 0 0 1-.867-2.047 66 66 0 0 1-.684-2.477 19 19 0 0 1-.433-2.297c-.063-.558-.122-2.293-.063-3.781 0-1.613.125-3.41.25-4.219a39 39 0 0 1 .68-3.222c.25-.993.683-2.543.933-3.348.309-.867.805-2.234 1.176-2.977.313-.808.992-2.046 1.426-2.851.496-.809 1.242-1.985 1.738-2.668.434-.621 1.238-1.676 1.797-2.297.496-.617 1.488-1.672 2.172-2.23.68-.622 1.672-1.364 2.105-1.735.438-.312 1.305-.809 1.922-1.117.621-.309 1.614-.684 2.235-.93a31 31 0 0 1 2.293-.558c.683-.125 1.675-.25 2.297-.25.804 0 1.425.125 2.851.558 1.301.375 1.984.496 2.727.496.808 0 1.304-.12 2.914-.617 1.488-.558 2.109-.683 2.855-.683.742-.063 1.238.062 2.168.37.621.188 1.738.622 2.418.993.746.312 1.922.992 2.606 1.488.742.434 1.921 1.305 2.543 1.86.621.558 1.613 1.55 2.168 2.234.558.617 1.367 1.55 1.738 2.11.433.558.992 1.425 1.363 1.921.313.559.93 1.61 1.363 2.356.438.804 1.118 2.23 1.551 3.16.434.996 1.117 2.73 1.551 3.969.371 1.242.867 2.914.992 3.722.188.867.371 2.11.434 2.79.062.683.125 1.921.125 2.788 0 .871-.063 2.297-.188 3.04-.125.808-.308 1.984-.496 2.605-.125.62-.433 1.613-.617 2.11-.25.558-.621 1.488-.871 1.984-.246.558-.805 1.425-1.176 1.984s-1.18 1.55-1.801 2.168c-.617.621-1.488 1.363-1.984 1.676-.496.37-1.363.867-1.984 1.113-.618.313-1.672.746-2.356.934-.68.183-1.859.37-2.727.496-1.304.121-1.613.121-2.542-.063-.559-.125-1.489-.496-2.11-.808-.558-.246-1.797-.993-2.726-1.547-.872-.621-1.922-1.243-2.297-1.426-.434-.125-.867-.313-1.051-.375-.375-.121-.375-.063-.621 1.242a19.4 19.4 0 0 1-.746 2.852c-.246.867-.68 2.047-.992 2.668-.309.617-.868 1.672-1.301 2.293-.371.621-.992 1.425-1.305 1.796-.371.309-.93.805-1.238 1.118-.371.246-.805.558-1.055.679a2 2 0 0 1-.617.188c-.125 0-.438-.121-.746-.246m12.711-6.512a11 11 0 0 1-1.426-.742c-.496-.25-.867-.563-.867-.684 0-.125 0-.187.062-.187 0 0 .371.187.805.496.371.25 1.117.621 1.551.871.433.246.683.434.621.434-.125 0-.434-.125-.746-.188M156.73 84.285c-.187-.375-.437-1.426-.621-2.234-.187-.805-.433-2.106-.496-2.79a42 42 0 0 1-.125-2.85c0-.872.063-2.235.188-3.102.121-.868.371-2.106.554-2.852.188-.684.5-1.676.684-2.172.188-.558.559-1.363.805-1.86.25-.495.871-1.487 1.304-2.167.497-.684 1.489-1.922 2.231-2.668.684-.746 1.801-1.8 2.48-2.235.621-.496 1.739-1.175 2.418-1.546.746-.375 1.368-.621 1.614-.559.25 0 .125.246-1.489 1.797-.992.992-2.293 2.418-2.914 3.101-.558.743-1.425 1.922-1.859 2.606-.496.68-1.117 1.734-1.426 2.414-.312.621-.808 1.8-1.117 2.605a32 32 0 0 0-.805 3.102c-.187.867-.375 2.356-.496 3.16-.062.871-.125 2.98-.125 4.715s-.062 3.41-.125 3.719c0 .312-.125.558-.183.558-.063 0-.313-.308-.497-.742"/><path fill="#8a0" d="M188.727 115.41a19 19 0 0 0-2.047-1.426c-.496-.246-1.367-.496-1.922-.617a26 26 0 0 0-2.606-.375 16 16 0 0 1-2.172-.496c-.433-.183-.992-.555-1.3-.867-.313-.309-.746-.93-.992-1.363-.25-.434-.559-1.118-.684-1.614a8.2 8.2 0 0 1-.246-1.922c0-.558.125-1.363.183-1.671l.438-1.305.309-.617 1.238.679c.683.372 1.613.747 2.047.868.371.125 1.488.312 2.355.433.934.063 1.926.25 2.297.375.371.063.93.246 1.238.434a5.2 5.2 0 0 1 1.117.804c.184.309.559.747.684 1.055.121.246.371.93.555 1.426.187.559.375 1.551.496 2.297.125.742.25 2.105.312 3.16 0 .992.063 1.801 0 1.801 0 0-.621-.5-1.3-1.059m5.578-59.523-.742-.809.804.746.805.805-.063.062z"/></g><path fill="#79ac14" d="M248.023 98.48c1.95 3.368 4.606 7.266 6.555 9.747 0 .707-.176 1.418-.176 2.3-.711 3.543-3.722 6.203-6.91 5.672-3.187-.531-5.316-3.898-4.605-7.621.176-1.594 1.418-5.312 2.832-9.035.711-.176 1.594-.531 2.304-1.062"/><path fill="none" stroke="#000" stroke-linecap="round" stroke-linejoin="round" stroke-width="2.25" d="M248.023 98.48c1.95 3.368 4.606 7.266 6.555 9.747 0 .707-.176 1.418-.176 2.3-.711 3.543-3.722 6.203-6.91 5.672-3.187-.531-5.316-3.898-4.605-7.621.176-1.594 1.418-5.312 2.832-9.035.711-.176 1.594-.531 2.304-1.062"/><path fill="#79ac14" d="M252.809 93.7c3.363 1.948 7.261 4.605 9.742 6.554.707 0 1.418-.18 2.304-.18 3.543-.707 6.2-3.718 5.668-6.906-.531-3.191-3.898-5.137-7.617-4.61-1.593.18-5.316 1.419-9.035 2.836-.18.708-.531 1.594-1.062 2.305"/><path fill="none" stroke="#000" stroke-linecap="round" stroke-linejoin="round" stroke-width="2.25" d="M252.809 93.7c3.363 1.948 7.261 4.605 9.742 6.554.707 0 1.418-.18 2.304-.18 3.543-.707 6.2-3.718 5.668-6.906-.531-3.191-3.898-5.137-7.617-4.61-1.593.18-5.316 1.419-9.035 2.836-.18.708-.531 1.594-1.062 2.305"/><path fill="#a4cd34" d="M250.68 96.356q1.327-1.062 2.129-2.657c4.425 2.301 9.918 6.375 11.511 7.973 2.66 2.656 2.836 6.555.535 8.855-2.128 2.305-6.203 1.95-8.859-.531-1.594-1.594-5.492-7.086-7.973-11.515a7.8 7.8 0 0 0 2.657-2.125"/><path fill="none" stroke="#000" stroke-linecap="round" stroke-linejoin="round" stroke-width="2.25" d="M250.68 96.356q1.327-1.062 2.129-2.657c4.425 2.301 9.918 6.375 11.511 7.973 2.66 2.656 2.836 6.555.535 8.855-2.128 2.305-6.203 1.95-8.859-.531-1.594-1.594-5.492-7.086-7.973-11.515a7.8 7.8 0 0 0 2.657-2.125"/><path fill="#f26d21" d="M250.68 96.356c-5.492 5.492-14.528 5.136-20.196-.708-8.859-8.859-29.23-35.613-22.675-42.167s33.304 13.82 42.164 22.68c5.843 5.843 6.199 14.702.707 20.195"/><path fill="#ce5c1c" d="M250.68 96.356c2.304-5.137 1.062-11.692-3.367-16.122-8.325-8.328-32.418-26.574-40.747-23.562 0-1.418.356-2.48 1.243-3.191 6.554-6.555 33.304 13.82 42.164 22.68 5.843 5.667 6.199 14.702.707 20.195"/><g fill="none" stroke="#000" stroke-linecap="round" stroke-linejoin="round" stroke-width="2.25"><path d="M248.91 74.918s-5.316 1.773-10.633 7.086m-10.453-5.668s-3.363 3.012-6.906 7.973m20.551-15.59s-4.43 1.238-7.266 4.074m1.418-8.328s-4.605.887-9.391 5.672m-12.222 3.719s1.949-3.72 5.847-6.91m6.555 24.273s1.063-3.188 4.074-6.203M215.07 58.973s2.481-2.832 5.493-4.075m38.265 49.606-8.148-8.148m-1.77 11.339 1.063-6.023m12.047-7.086-6.024 1.062"/><path d="M250.68 96.356c-5.492 5.492-14.528 5.136-20.196-.708-8.859-8.859-29.23-35.613-22.675-42.167s33.304 13.82 42.164 22.68c5.843 5.843 6.199 14.702.707 20.195"/></g><path fill="#bc9a16" d="M1 86.04c0-68.6 90.55-70.869 170.078-70.869 79.527 0 170.078 2.27 170.078 70.867 0-15.656-76.144-28.348-170.078-28.348C77.148 57.691 1 70.383 1 86.04"/><path fill="none" stroke="#000" stroke-linecap="round" stroke-linejoin="round" stroke-width="2" d="M1 86.04c0-68.6 90.55-70.869 170.078-70.869 79.527 0 170.078 2.27 170.078 70.867 0-15.656-76.144-28.348-170.078-28.348C77.148 57.691 1 70.383 1 86.04"/><path fill="#d3ae37" d="M908.086 86.04c0 15.655-76.145 28.347-170.078 28.347S567.93 101.695 567.93 86.039s76.144-28.348 170.078-28.348S908.086 70.383 908.086 86.04"/><path fill="none" stroke="#000" stroke-linecap="round" stroke-linejoin="round" stroke-width="2" d="M908.086 86.04c0 15.655-76.145 28.347-170.078 28.347S567.93 101.695 567.93 86.039s76.144-28.348 170.078-28.348S908.086 70.383 908.086 86.04M738.008 312.809l161.41-217.813m-161.41 217.813L684.25 112.941m53.758 199.868L586.914 73.012m151.094 239.797v19.843"/><g fill-rule="evenodd"><path d="M743.617 137.25c-2.289-1.414-4.383-4.094-4.383-5.652 0-.926.829-2.239 2.582-4.09 1.414-1.512 3.118-3.801 3.75-5.117l1.122-2.387-1.364-2.731c-.781-1.507-1.898-4.382-2.484-6.429-6.383-20.754-12.91-28.356-35.227-40.828-6.965-3.848-9.402-5.75-11.008-8.282-1.511-2.535-1.511-5.117.145-7.504 4.773-7.066 24.066-6.187 40.098 1.805 11.742 5.797 20.316 14.125 24.75 24.016 5.066 11.16 6.285 22.804 3.359 31.719-1.117 3.41-4.531 8.476-6.672 9.89-1.465.973-1.949 1.754-2.68 4.531-1.367 5.02-4.191 10.329-5.996 11.254-1.996 1.024-4.089.977-5.992-.195m5.555-4.387c-.582-1.07-.438-1.652.976-4.429 2.192-4.336 4.532-11.84 5.551-17.786 4.387-25.773-14.664-49.988-43.308-55.003-2.489-.438-5.703-.782-7.118-.782-1.945 0-2.628-.242-3.019-1.023-.484-.926-.34-1.07 1.414-1.559 2.875-.828 11.352-.683 16.223.246 15.203 2.871 28.941 11.352 36.297 22.457 10.621 15.934 11.011 37.809.781 44.871-1.852 1.27-2.242 1.95-3.461 5.848-1.215 3.945-3.07 8.332-3.555 8.332-.051 0-.437-.535-.781-1.172m-4.094-2.773-1.703-.731 1.805-2.293c.925-1.265 2.14-3.359 2.629-4.675.925-2.34.925-2.34-.68-6.137-.832-2.098-2.293-6.191-3.219-9.016-3.652-11.449-7.062-17.344-13.738-24.02-5.164-5.163-8.625-7.6-19.344-13.788-8.621-4.918-11.64-6.965-12.031-8.036-.149-.343.73-1.609 1.898-2.874l2.145-2.243 4.094.34c12.031 1.024 24.015 6.14 32.543 13.985 6.968 6.43 11.5 13.789 13.886 22.558 1.364 5.016 1.657 16.465.535 21.094-1.753 7.16-4.093 13.059-6.136 15.445-.926 1.024-1.121 1.071-2.684.391"/><path fill="#f5a701" d="M746.395 138.371c.39-.144.828-.098 1.023.051.148.191-.145.289-.68.289-.633-.047-.73-.145-.343-.34m-5.407-2.875-1.511-1.707 1.707 1.512c.925.879 1.656 1.609 1.656 1.707 0 .387-.391.047-1.852-1.512m10.477.098c.191-.242.437-.489.582-.489s.098.247-.051.489c-.191.293-.437.535-.582.535s-.144-.242.051-.535m-2.293-2.731c-.582-1.07-.438-1.652.976-4.429 2.192-4.336 4.532-11.84 5.551-17.786 4.387-25.773-14.664-49.988-43.308-55.003-2.489-.438-5.703-.782-7.118-.782-1.945 0-2.628-.242-3.019-1.023-.484-.926-.34-1.07 1.414-1.559 2.875-.828 11.352-.683 16.223.246 15.203 2.871 28.941 11.352 36.297 22.457 10.621 15.934 11.011 37.809.781 44.871-1.852 1.27-2.242 1.95-3.461 5.848-1.215 3.945-3.07 8.332-3.555 8.332-.051 0-.437-.535-.781-1.172m-.828-4.871c.976-1.605 2.144-4.09 2.633-5.504s.972-2.484 1.07-2.34c.633.586-3.75 9.747-4.969 10.524-.293.148.293-1.024 1.266-2.68m5.992 1.903c0-.391.148-.536.344-.34a.474.474 0 0 1 0 .679c-.196.196-.344.047-.344-.339m-10.668-.489c-.148-.242.145-.777.633-1.168.828-.633.828-.586.242.145-.582.73-.582.926 0 1.172.441.144.488.242.051.289-.34 0-.781-.145-.926-.438m-2.098-2.144c1.121-1.121 2.145-2.047 2.293-2.047.145 0-.683.926-1.804 2.047-1.121 1.172-2.141 2.097-2.289 2.097s.683-.925 1.8-2.097m13.254 1.074c0-.391.196-.535.391-.344a.473.473 0 0 1 0 .684c-.195.195-.391.047-.391-.34m-9.109-2.098c.195-.293.437-.535.582-.535.148 0 .148.242-.047.535s-.437.535-.586.535c-.144 0-.098-.242.051-.535m1.363-2.093c.731-1.61.973-1.903.973-1.219 0 .293-.34.976-.778 1.512-.781.972-.781.925-.195-.293m8.817.535c0-.391.148-.535.343-.34a.467.467 0 0 1 0 .68c-.195.195-.343.05-.343-.34m1.804-2.629c.196-.246.438-.488.586-.488.145 0 .145.242-.051.488-.195.293-.437.535-.586.535-.144 0-.093-.242.051-.535m-9.648-.488c0-.391.195-.536.39-.34a.57.57 0 0 1 0 .679c-.195.196-.39.051-.39-.339m.39-2.047c-.195-.875-.144-1.071.247-.68.289.289.437.824.339 1.215-.148.39-.39.148-.586-.535m3.899-.586c0-.438.195-1.364.437-2.094.34-1.023.391-1.07.438-.242 0 .586-.195 1.508-.438 2.094-.293.632-.437.73-.437.242m9.012-.485c.195-.293.441-.539.586-.539.148 0 .097.246-.047.539-.196.243-.442.485-.586.485-.149 0-.098-.242.047-.485m-13.981-1.367c-.535-1.265-.391-1.605.242-.582.293.535.438 1.07.293 1.219-.097.144-.39-.149-.535-.637m15.055-.242c.144-.242.437-.488.535-.488.144 0 .144.246-.051.488-.144.293-.437.535-.582.535-.148 0-.098-.242.098-.535m-9.16-2.047c0-.391.195-.535.39-.34.145.145.145.489 0 .684-.195.191-.39.047-.39-.344m-9.891-1.07c0-.391.145-.535.34-.34a.47.47 0 0 1 0 .68c-.195.195-.34.05-.34-.34m2.633 0c0-.391.144-.535.34-.34a.47.47 0 0 1 0 .68c-.196.195-.34.05-.34-.34m7.89-1.559c0-.73.098-1.023.243-.633.148.34.148.922 0 1.313-.145.344-.243.051-.243-.68m-8.429 0c0-.39.148-.539.344-.344a.473.473 0 0 1 0 .684c-.196.195-.344.051-.344-.34m-.535-1.558c0-.391.144-.539.339-.344a.47.47 0 0 1 0 .683c-.195.196-.339.047-.339-.339m-3.118-1.563c0-.387.145-.535.34-.34a.47.47 0 0 1 0 .684c-.195.195-.34.047-.34-.344m2.629 0c0-.387.149-.535.344-.34.195.196.195.489 0 .684s-.344.047-.344-.344m10.086-4.43c0-2.875.051-3.949.196-2.437.097 1.512.097 3.848 0 5.215-.145 1.312-.196.093-.196-2.778m11.305 3.606c0-.586.144-.735.293-.293.144.34.144.828 0 .973-.195.195-.344-.145-.293-.68m-21.926-.735c0-.386.149-.535.344-.339a.48.48 0 0 1 0 .683c-.195.196-.344.047-.344-.344m-2.629-.535c0-.39.196-.535.391-.34a.59.59 0 0 1 0 .68c-.195.195-.391.051-.391-.34m2.145-1.312c.047-.637.144-.735.289-.344.195.391.148.828 0 1.024-.195.148-.289-.145-.289-.68m-2.633-.246c0-.391.145-.535.34-.34s.195.484 0 .68c-.195.195-.34.05-.34-.34m25.629-.778c0-.879.094-1.121.242-.636.145.488.145 1.218 0 1.558-.148.344-.242-.047-.242-.922m-24.07-1.804c0-.391.144-.535.339-.34.196.144.196.484 0 .68-.195.195-.339.05-.339-.34m-.536-1.559c0-.391.145-.535.34-.391a.53.53 0 0 1 0 .731c-.195.195-.34 0-.34-.34m-.976-2.387c-.828-1.902-.68-2.34.246-.586.437.829.73 1.559.586 1.708-.102.093-.488-.391-.832-1.122m25.582-1.023c0-.879.094-1.121.242-.633.145.484.145 1.215 0 1.559-.148.34-.242-.051-.242-.926m-12.524-.242c0-.735.098-1.024.243-.684.148.39.148.973 0 1.317-.145.34-.243.046-.243-.633m-16.222 0c0-.39.144-.54.34-.344a.473.473 0 0 1 0 .684c-.196.195-.34.047-.34-.34m15.637-2.926c.05-.582.148-.73.343-.293.145.344.098.828-.051.977-.195.195-.292-.149-.292-.684m-15.153-1.266c-.289-.586-.437-1.023-.289-1.023.145 0 .535.437.828 1.023.289.582.438 1.07.289 1.07-.144 0-.484-.488-.828-1.07m27.676.242c0-.632.144-.73.293-.34.144.391.144.829 0 1.024-.195.145-.344-.148-.293-.684m-13.008-1.07c0-.586.145-.73.289-.293.149.34.149.828-.047.973-.144.195-.293-.094-.242-.68m-16.031-1.316c-.195-.39-.098-.489.246-.242.34.195.633.484.633.582 0 .441-.488.246-.879-.34m15.445-.438c0-.39.145-.535.34-.343.195.148.195.488 0 .683s-.34.05-.34-.34m-19.051-.632c-.242-.344-.144-.442.196-.196.633.34.828.828.39.828-.144 0-.39-.293-.586-.632m2.582-.489c-.242-.39-.144-.488.247-.242.582.387.777.828.339.828-.097 0-.39-.293-.586-.586m-4.433-1.902c-.633-.824-.633-.824.195-.191.879.68 1.121 1.117.731 1.117-.145 0-.536-.387-.926-.926m2.582-.484c-.633-.829-.633-.88.195-.247.879.684 1.172 1.121.731 1.121-.094 0-.535-.39-.926-.874m17.101.097c-.535-1.316-.39-1.656.247-.586.289.489.437 1.024.289 1.168-.145.149-.387-.144-.536-.582m13.204-.246c0-.387.144-.535.339-.34a.47.47 0 0 1 0 .684c-.195.195-.339.047-.339-.344m-.536-1.558c0-.387.149-.536.34-.34a.47.47 0 0 1 0 .683c-.191.195-.34.047-.34-.343m-33.617-2.727-2.582-2.777 2.727 2.629c2.535 2.386 2.972 2.875 2.586 2.875-.102 0-1.317-1.266-2.731-2.727m18.758.098c-.195-.344-.242-.684-.098-.829.145-.148.391.098.536.536.39.925.097 1.12-.438.293m-24.019-1.61c-.196-.39-.098-.488.242-.242.343.195.633.484.633.586 0 .437-.485.242-.875-.344m22.949-.535c-.246-.39-.149-.488.242-.242.34.195.586.484.586.582 0 .437-.442.246-.828-.34m-25.289-1.363c-.633-.828-.633-.828.195-.196.879.684 1.172 1.121.73 1.121-.144 0-.535-.437-.925-.925m2.875-.781-.973-1.169 1.168.973c.633.586 1.172 1.074 1.172 1.172 0 .438-.442.145-1.367-.977m21.39.585c-.246-.39-.148-.488.196-.242.632.387.828.825.386.825-.144 0-.386-.243-.582-.583m-26.066-1.07c-.242-.344-.149-.441.242-.195.293.195.586.437.586.582 0 .441-.437.246-.828-.387m24.75-.832c-.684-.828-.633-.828.195-.195.828.683 1.121 1.12.68 1.12-.098 0-.484-.386-.875-.925m-26.309-.195c-.246-.387-.148-.438.242-.242.293.195.586.488.586.632 0 .442-.488.196-.828-.39m4.141 0c-.195-.387-.149-.438.242-.242.344.195.586.488.586.632 0 .442-.437.196-.828-.39m-2.047-1.559c-.242-.386-.144-.484.195-.242.34.195.633.488.633.633 0 .39-.488.195-.828-.39m19.535-3.457-3.359-3.508 3.508 3.364c1.949 1.847 3.554 3.457 3.554 3.554 0 .34-.535-.148-3.703-3.41m17.446 1.899c-.247-.391-.149-.485.242-.243.293.196.586.489.586.586 0 .438-.442.242-.828-.343m-44.825-.536c-.242-.39-.144-.437.242-.242.344.242.586.488.586.633 0 .438-.437.195-.828-.39m4.192-.195c-.977-.777-.977-.777.144-.242.684.293 1.168.683 1.168.777 0 .442-.242.293-1.312-.535m-2.582-1.559c-.977-.78-.977-.78.144-.242.633.293 1.168.68 1.168.778 0 .437-.293.293-1.312-.536m40.34-1.656c-.684-.828-.633-.879.195-.195.875.684 1.121 1.07.68 1.07-.098 0-.489-.386-.875-.875m-43.997-.437c-.972-.782-.972-.782.149-.246.633.293 1.168.683 1.168.828 0 .39-.242.246-1.317-.582m24.457-1.95-.972-1.171 1.168 1.027c1.074.922 1.414 1.363.976 1.363-.097 0-.632-.535-1.172-1.218m-28.109-.144c-.976-.781-.976-.781.145-.246.632.34 1.171.683 1.171.828 0 .39-.246.293-1.316-.582m26.016-1.367c-.196-.34-.145-.438.242-.196.344.196.586.442.586.587 0 .437-.438.242-.828-.391m-34.641-1.313c-.684-.832-.633-.879.195-.195.875.68 1.121 1.07.684 1.07-.098 0-.488-.39-.879-.875m4.434.29c-.243-.391-.145-.438.242-.243.293.195.586.489.586.633 0 .438-.438.195-.828-.39m28.648 0c-.242-.391-.148-.438.242-.243.34.195.586.489.586.633 0 .438-.437.195-.828-.39m-30.207-1.024c-.242-.387-.144-.484.242-.242.293.195.586.488.586.586 0 .437-.488.242-.828-.344m24.02-2.094c-2.289-1.12-3.606-1.898-2.875-1.707 1.558.442 7.308 3.266 7.308 3.606 0 .343.391.488-4.433-1.899m22.605 1.266c-.684-.828-.633-.875.195-.242.875.683 1.121 1.12.684 1.12-.098 0-.488-.39-.879-.878m-48.965-1.07-1.265-1.415 1.414 1.266c1.363 1.172 1.703 1.61 1.265 1.61-.097 0-.73-.684-1.414-1.462m-2.875.34c-.242-.387-.144-.489.246-.243.293.196.582.489.582.586 0 .438-.437.242-.828-.344m49.5-1.07c-.242-.392-.144-.438.246-.247.293.246.582.488.582.637 0 .437-.437.191-.828-.39m-25.578-1.806a.47.47 0 0 1 .684 0c.195.149.05.344-.34.344-.391 0-.535-.195-.344-.344m-20.219-.73c.149-.29.442-.484.586-.484.145 0 .098.195-.05.484-.192.293-.485.535-.583.535-.144 0-.144-.242.047-.535m18.661.195c.195-.195.488-.195.683 0s.047.34-.34.34c-.39 0-.539-.145-.343-.34m-1.852-.535c.391-.145.828-.145 1.023.05.149.145-.144.29-.679.243-.633 0-.735-.148-.344-.293m24.312-.242c-.242-.39-.144-.488.196-.246.34.195.633.488.633.633 0 .39-.489.195-.829-.387m-26.355-.293c.34-.148.824-.098.973.047.195.195-.149.293-.684.293-.586-.047-.73-.145-.289-.34m-2.098-.488c.391-.145.828-.145.977 0 .191.195-.098.34-.684.293-.586 0-.73-.149-.293-.293m-10.914-.875c.246-.246 1.707-.344 3.266-.246l2.777.148-3.215.293c-1.804.145-3.07.047-2.828-.195m7.504.34c.488-.145 1.219-.145 1.559 0 .344.144-.047.242-.926.242-.875 0-1.168-.098-.633-.242m-13.445-2.778c.195-.293.437-.535.582-.535.148 0 .148.242-.047.535s-.437.535-.586.535c-.144 0-.098-.242.051-.535m33.808-1.363a.47.47 0 0 1 .684 0c.195.144.051.34-.34.34-.39 0-.535-.196-.344-.34m-1.558-.54c.148-.19.488-.19.683 0 .196.196.047.345-.339.345-.391 0-.539-.149-.344-.344m-29.621-.679c.148-.293.437-.535.586-.535.144 0 .097.242-.098.535-.144.242-.437.488-.586.488-.098 0-.098-.246.098-.488m28.015.145c.196-.196.536-.196.731 0s0 .343-.344.343c-.387 0-.531-.148-.387-.343m-6.238-1.559a.47.47 0 0 1 .684 0c.195.195.05.34-.34.34-.391 0-.535-.145-.344-.34m-17.195-.535c.191-.195.535-.195.679 0 .196.195.051.34-.339.34-.391 0-.536-.145-.34-.34m14.32 0c.391-.145.828-.145 1.024.05.148.192-.145.29-.68.29-.633-.047-.731-.145-.344-.34m-11.254-.535c.539-.098 1.367-.098 1.852 0 .488.144.097.242-.926.242-.973 0-1.41-.098-.926-.242m6.043 0c.633-.098 1.559-.098 2.047 0 .535.144 0 .242-1.172.242-1.117 0-1.558-.098-.875-.242"/><path fill="#fcd900" d="m745.078 129.797-1.168-.586 1.852-2.484c.976-1.364 2.144-3.461 2.582-4.727.781-2.094.73-2.34-.438-4.871-.683-1.414-2.34-5.992-3.703-10.184-6.14-18.61-13.348-26.648-34.687-38.586-3.801-2.144-7.797-4.675-8.918-5.601l-2.047-1.754 2.097-2.098 2.145-2.14 4.527.34c8.332.632 19.684 4.578 26.457 9.257 3.703 2.531 9.989 8.672 12.473 12.18 2.875 4.14 5.602 9.988 6.82 14.86 1.461 5.75 1.364 18.124-.144 23.191-1.563 5.164-2.973 8.769-4.582 11.449-1.461 2.531-1.508 2.582-3.266 1.754"/></g><path fill="#bc9a16" d="M567.93 86.04c0-68.599 90.55-70.868 170.078-70.868 79.527 0 170.078 2.27 170.078 70.867 0-15.656-76.145-28.348-170.078-28.348S567.93 70.383 567.93 86.04"/><path fill="none" stroke="#000" stroke-linecap="round" stroke-linejoin="round" stroke-width="2" d="M567.93 86.04c0-68.599 90.55-70.868 170.078-70.868 79.527 0 170.078 2.27 170.078 70.867 0-15.656-76.145-28.348-170.078-28.348S567.93 70.383 567.93 86.04"/><path fill="#cc9c6f" d="M461.629 332.652c0 3.914-3.172 7.086-7.086 7.086s-7.086-3.172-7.086-7.086 3.172-7.086 7.086-7.086 7.086 3.172 7.086 7.086"/><path fill="none" stroke="#000" stroke-linecap="round" stroke-linejoin="round" stroke-width="2" d="M461.629 332.652c0 3.914-3.172 7.086-7.086 7.086s-7.086-3.172-7.086-7.086 3.172-7.086 7.086-7.086 7.086 3.172 7.086 7.086"/><circle cx="454.543" cy="332.652" r="1"/><path fill="#cc9c6f" d="M440.371 29.344h28.344v340.16h-28.344Z"/><path fill="none" stroke="#000" stroke-linecap="round" stroke-linejoin="round" stroke-width="2" d="M440.371 29.344h28.344v340.16h-28.344z"/><path fill="#cc9c6f" d="M461.629 332.652c0 3.914-3.172 7.086-7.086 7.086s-7.086-3.172-7.086-7.086 3.172-7.086 7.086-7.086 7.086 3.172 7.086 7.086"/><path fill="none" stroke="#000" stroke-linecap="round" stroke-linejoin="round" stroke-width="2" d="M461.629 332.652c0 3.914-3.172 7.086-7.086 7.086s-7.086-3.172-7.086-7.086 3.172-7.086 7.086-7.086 7.086 3.172 7.086 7.086"/><path fill="#cc9c6f" d="M457.379 369.504a20.554 20.554 0 0 1 0 28.344h-5.668a20.543 20.543 0 0 1 0-28.344z"/><path fill="none" stroke="#000" stroke-linecap="round" stroke-linejoin="round" stroke-width="2" d="M457.379 369.504a20.554 20.554 0 0 1 0 28.344h-5.668a20.543 20.543 0 0 1 0-28.344z"/><path fill="#cc9c6f" d="M465.883 409.188c0 6.261-5.078 11.339-11.34 11.339s-11.34-5.078-11.34-11.339 5.078-11.34 11.34-11.34 11.34 5.078 11.34 11.34"/><path fill="none" stroke="#000" stroke-linecap="round" stroke-linejoin="round" stroke-width="2" d="M465.883 409.188c0 6.261-5.078 11.339-11.34 11.339s-11.34-5.078-11.34-11.339 5.078-11.34 11.34-11.34 11.34 5.078 11.34 11.34"/><path fill="#cc9c6f" d="M497.063 1c-13.692 0-22.676 13.621-22.676 28.344h-39.688C434.699 14.62 425.715 1 412.023 1z"/><path fill="none" stroke="#000" stroke-linecap="round" stroke-linejoin="round" stroke-width="2" d="M497.063 1c-13.692 0-22.676 13.621-22.676 28.344h-39.688C434.699 14.62 425.715 1 412.023 1z"/></g></svg>