<svg xmlns="http://www.w3.org/2000/svg" width="455pt" height="46pt" viewBox="0 -46 455 46"><g id="page1"><path fill="none" stroke="#000" stroke-linecap="round" stroke-linejoin="round" stroke-width=".5" d="M.25-45.61h45.356V-.253H.25zm45.356 0h45.351V-.253H45.606zm45.351 0h45.356V-.253H90.957zm45.356 0h45.355V-.253h-45.355zm45.355 0h45.352V-.253h-45.352zm45.352 0h45.355V-.253H227.02zm45.355 0h45.355V-.253h-45.355zm45.355 0h45.356V-.253H317.73zm45.356 0h45.352V-.253h-45.352zm45.352 0h45.355V-.253h-45.355z"/><path d="M26.875-22.93c0-1.261-.02-3.41-.887-5.062-.765-1.445-1.984-1.961-3.058-1.961-.992 0-2.25.453-3.035 1.941-.829 1.547-.91 3.469-.91 5.082 0 1.176.023 2.973.66 4.543.89 2.13 2.48 2.418 3.285 2.418.953 0 2.398-.394 3.242-2.355.621-1.426.703-3.098.703-4.606M22.93-16.3c-1.32 0-2.106-1.137-2.395-2.708-.226-1.219-.226-2.992-.226-4.148 0-1.594 0-2.914.265-4.176.395-1.754 1.551-2.293 2.356-2.293.847 0 1.941.559 2.336 2.254.265 1.176.289 2.558.289 4.215 0 1.34 0 2.992-.25 4.21-.434 2.255-1.653 2.645-2.375 2.645m49.246-6.629c0-1.261-.02-3.41-.887-5.062-.766-1.445-1.984-1.961-3.058-1.961-.993 0-2.25.453-3.036 1.941-.828 1.547-.91 3.469-.91 5.082 0 1.176.02 2.973.66 4.543.89 2.13 2.48 2.418 3.286 2.418.949 0 2.394-.394 3.242-2.355.62-1.426.703-3.098.703-4.606M68.23-16.3c-1.325 0-2.106-1.137-2.395-2.708-.227-1.219-.227-2.992-.227-4.148 0-1.594 0-2.914.266-4.176.394-1.754 1.55-2.293 2.356-2.293.847 0 1.94.559 2.335 2.254.266 1.176.29 2.558.29 4.215 0 1.34 0 2.992-.25 4.21-.434 2.255-1.653 2.645-2.375 2.645M114.395-29.5c0-.434-.02-.453-.309-.453-.805.969-2.023 1.281-3.184 1.32-.058 0-.164 0-.183.043-.024.04-.024.082-.024.516.645 0 1.719-.125 2.543-.621v10.886c0 .723-.043.973-1.816.973h-.621v.535c.992-.02 2.023-.039 3.015-.039.993 0 2.024.02 3.016.04v-.536h-.617c-1.777 0-1.82-.227-1.82-.973zm45.3 0c0-.434-.019-.453-.312-.453-.805.969-2.024 1.281-3.18 1.32-.062 0-.164 0-.187.043-.02.04-.02.082-.02.516.641 0 1.719-.125 2.543-.621v10.886c0 .723-.043.973-1.82.973h-.617v.535c.992-.02 2.023-.039 3.015-.039s2.024.02 3.016.04v-.536h-.621c-1.778 0-1.817-.227-1.817-.973zm42.258 1.117a6.1 6.1 0 0 0 1.926.348c1.918 0 2.973-1.031 3.57-1.63 0-.167 0-.269-.121-.269-.023 0-.062 0-.23.082-.723.309-1.571.559-2.602.559a6.2 6.2 0 0 1-2.562-.539c-.227-.102-.27-.102-.289-.102-.102 0-.122.02-.122.434v5.992c0 .371 0 .473.204.473.105 0 .144-.04.25-.184.66-.93 1.57-1.324 2.601-1.324.723 0 2.274.457 2.274 3.988 0 .66 0 1.86-.622 2.809-.515.848-1.32 1.281-2.21 1.281-1.364 0-2.747-.95-3.118-2.543.082.024.246.063.328.063.27 0 .786-.145.786-.785 0-.56-.391-.786-.786-.786-.472 0-.785.29-.785.868 0 1.796 1.426 3.68 3.618 3.68 2.125 0 4.152-1.84 4.152-4.505 0-2.48-1.613-4.402-3.617-4.402a3.53 3.53 0 0 0-2.645 1.137zm51.66 8.883h-.371c-.207 1.465-.371 1.71-.453 1.836-.105.164-1.594.164-1.883.164h-3.965c.747-.805 2.192-2.27 3.946-3.965 1.261-1.2 2.726-2.601 2.726-4.648 0-2.438-1.941-3.84-4.109-3.84-2.274 0-3.656 2-3.656 3.86 0 .808.597.91.847.91.203 0 .825-.122.825-.848 0-.64-.536-.825-.825-.825-.125 0-.25.02-.332.063.395-1.758 1.59-2.625 2.852-2.625 1.797 0 2.973 1.426 2.973 3.305 0 1.797-1.051 3.347-2.231 4.691l-4.109 4.649v.472h7.269zm43.629-10.164c0-.438-.023-.457-.394-.457l-6.133 9.773v.535h5.328v2.024c0 .746-.039.953-1.488.953h-.391v.535c.66-.039 1.774-.039 2.477-.039s1.82 0 2.48.04v-.536h-.394c-1.446 0-1.485-.207-1.485-.953v-2.023h2.106v-.536h-2.106zm-1.137 1.363v7.953h-4.976zm46.536-1.363c0-.438-.02-.457-.395-.457l-6.133 9.773v.535h5.328v2.024c0 .746-.039.953-1.484.953h-.394v.535c.66-.039 1.777-.039 2.48-.039.699 0 1.816 0 2.477.04v-.536h-.391c-1.445 0-1.488-.207-1.488-.953v-2.023h2.105v-.536h-2.105zm-1.137 1.363v7.953h-4.977zm46.769 5.887c0 4.543-1.882 5.95-3.429 5.95-.477 0-1.633-.063-2.11-.868.539.082.93-.207.93-.723 0-.558-.453-.746-.742-.746-.188 0-.742.082-.742.785 0 1.407 1.218 2.047 2.703 2.047 2.375 0 4.793-2.601 4.793-7.148 0-5.66-2.313-6.836-3.883-6.836-2.047 0-4.008 1.797-4.008 4.562 0 2.563 1.672 4.465 3.781 4.465 1.735 0 2.5-1.613 2.707-2.293zm-2.668 1.156c-.558 0-1.339-.101-1.984-1.344-.433-.804-.433-1.753-.433-2.765 0-1.219 0-2.067.582-2.977.289-.433.824-1.136 2.023-1.136 2.437 0 2.437 3.738 2.437 4.566 0 1.469-.66 3.656-2.625 3.656m45.36-2.066c1.84 0 2.644 1.59 2.644 3.43 0 2.48-1.32 3.43-2.519 3.43-1.098 0-2.871-.54-3.43-2.13a.8.8 0 0 0 .309.043c.496 0 .871-.332.871-.867 0-.602-.457-.871-.871-.871-.352 0-.887.168-.887.93 0 1.902 1.859 3.39 4.051 3.39 2.289 0 4.047-1.797 4.047-3.906 0-2.004-1.653-3.45-3.617-3.676 1.57-.332 3.078-1.734 3.078-3.613 0-1.613-1.629-2.79-3.489-2.79-1.879 0-3.535 1.157-3.535 2.81 0 .722.539.847.809.847.433 0 .804-.27.804-.808 0-.536-.371-.805-.804-.805-.082 0-.188 0-.27.043.598-1.363 2.231-1.613 2.953-1.613.723 0 2.086.351 2.086 2.335 0 .579-.082 1.61-.785 2.52-.617.805-1.32.848-2.004.91-.101 0-.578.04-.66.04-.144.019-.226.042-.226.187s.023.164.433.164z"/></g></svg>