<svg xmlns="http://www.w3.org/2000/svg" width="544" height="350pt" viewBox="0 -350 408 350"><g id="page1" transform="scale(1 -1)"><g fill="none" stroke="#999" stroke-linecap="round" stroke-linejoin="round" stroke-width=".5"><path stroke-dasharray="2.00093 2.00093" d="M33.469 327.813V21.672M90.16 327.813V21.672m56.695 306.141V21.672m56.692 306.141V21.672m56.691 306.141V21.672m56.696 306.141V21.672m56.691 306.141V21.672"/><path stroke-dasharray="2.00461 2.00461" d="M22.129 316.477h362.836M22.129 259.781h362.836M22.129 203.09h362.836M22.129 146.398h362.836M22.129 89.703h362.836M22.129 33.012h362.836"/></g><path fill="none" stroke="#fff" stroke-linecap="round" stroke-linejoin="round" stroke-width="4" d="M33.469 316.477V33.012"/><path fill="none" stroke="#000" stroke-linecap="round" stroke-linejoin="round" stroke-width="2.5" d="M33.469 316.477V33.012"/><circle cx="33.469" cy="316.477" r="1.25"/><circle cx="33.469" cy="33.012" r="1.25"/><path fill="none" stroke="#fff" stroke-linecap="round" stroke-linejoin="round" stroke-width="4" d="M90.16 316.477V146.398"/><path fill="none" stroke="#000" stroke-linecap="round" stroke-linejoin="round" stroke-width="2.5" d="M90.16 316.477V146.398"/><circle cx="90.16" cy="316.477" r="1.25"/><circle cx="90.16" cy="146.398" r="1.25"/><path fill="none" stroke="#fff" stroke-linecap="round" stroke-linejoin="round" stroke-width="4" d="M146.855 203.09V33.012"/><path fill="none" stroke="#000" stroke-linecap="round" stroke-linejoin="round" stroke-width="2.5" d="M146.855 203.09V33.012"/><circle cx="146.855" cy="203.09" r="1.25"/><circle cx="146.855" cy="33.012" r="1.25"/><path fill="none" stroke="#fff" stroke-linecap="round" stroke-linejoin="round" stroke-width="4" d="M203.547 203.09v-56.692"/><path fill="none" stroke="#000" stroke-linecap="round" stroke-linejoin="round" stroke-width="2.5" d="M203.547 203.09v-56.692"/><circle cx="203.547" cy="203.09" r="1.25"/><circle cx="203.547" cy="146.398" r="1.25"/><path fill="none" stroke="#fff" stroke-linecap="round" stroke-linejoin="round" stroke-width="4" d="M260.238 203.09V33.012"/><path fill="none" stroke="#000" stroke-linecap="round" stroke-linejoin="round" stroke-width="2.5" d="M260.238 203.09V33.012"/><circle cx="260.238" cy="203.09" r="1.25"/><circle cx="260.238" cy="33.012" r="1.25"/><path fill="none" stroke="#fff" stroke-linecap="round" stroke-linejoin="round" stroke-width="4" d="M373.625 259.781V33.011"/><path fill="none" stroke="#000" stroke-linecap="round" stroke-linejoin="round" stroke-width="2.5" d="M373.625 259.781V33.011"/><circle cx="373.625" cy="259.781" r="1.25"/><circle cx="373.625" cy="33.012" r="1.25"/><path fill="none" stroke="#fff" stroke-linecap="round" stroke-linejoin="round" stroke-width="4" d="M90.16 259.781h283.465"/><path fill="none" stroke="#000" stroke-linecap="round" stroke-linejoin="round" stroke-width="2.5" d="M90.16 259.781h283.465"/><circle cx="90.16" cy="259.781" r="1.25"/><circle cx="373.625" cy="259.781" r="1.25"/><path fill="none" stroke="#fff" stroke-linecap="round" stroke-linejoin="round" stroke-width="4" d="M33.469 203.09H90.16"/><path fill="none" stroke="#000" stroke-linecap="round" stroke-linejoin="round" stroke-width="2.5" d="M33.469 203.09H90.16"/><circle cx="33.469" cy="203.09" r="1.25"/><circle cx="90.16" cy="203.09" r="1.25"/><path fill="none" stroke="#fff" stroke-linecap="round" stroke-linejoin="round" stroke-width="4" d="M146.855 203.09h113.383"/><path fill="none" stroke="#000" stroke-linecap="round" stroke-linejoin="round" stroke-width="2.5" d="M146.855 203.09h113.383"/><circle cx="146.855" cy="203.09" r="1.25"/><circle cx="260.238" cy="203.09" r="1.25"/><path fill="none" stroke="#fff" stroke-linecap="round" stroke-linejoin="round" stroke-width="4" d="M146.855 146.398h56.692"/><path fill="none" stroke="#000" stroke-linecap="round" stroke-linejoin="round" stroke-width="2.5" d="M146.855 146.398h56.692"/><circle cx="146.855" cy="146.398" r="1.25"/><circle cx="203.547" cy="146.398" r="1.25"/><path fill="none" stroke="#fff" stroke-linecap="round" stroke-linejoin="round" stroke-width="4" d="M146.855 89.703h226.77"/><path fill="none" stroke="#000" stroke-linecap="round" stroke-linejoin="round" stroke-width="2.5" d="M146.855 89.703h226.77"/><circle cx="146.855" cy="89.703" r="1.25"/><circle cx="373.625" cy="89.703" r="1.25"/><path fill="none" stroke="#fff" stroke-linecap="round" stroke-linejoin="round" stroke-width="4" d="M33.469 33.012h340.156"/><path fill="none" stroke="#000" stroke-linecap="round" stroke-linejoin="round" stroke-width="2.5" d="M33.469 33.012h340.156"/><circle cx="33.469" cy="33.012" r="1.25"/><circle cx="373.625" cy="33.012" r="1.25"/><path fill="red" d="M379.297 89.703a5.67 5.67 0 0 0-11.34 0 5.667 5.667 0 0 0 5.668 5.668 5.67 5.67 0 0 0 5.672-5.668"/><path fill="#00bf00" d="M27.8 310.805h11.337v11.34H27.8Z"/><path d="M34.469 347.48h-.395c-1.113-1.156-2.418-1.32-3.738-1.363v-1.195c.598.019 1.57.062 2.539.492v-10.617h-2.437v-1.195h6.468v1.195H34.47zm0-331.3h-.395c-1.113-1.157-2.418-1.32-3.738-1.36v-1.199c.598.02 1.57.063 2.539.496V3.5h-2.437V2.3h6.468v1.2H34.47zm56.16 321.8c.578.598 1.445 1.321 2.047 2.043.578.704 1.34 1.696 1.34 3.141 0 2.274-1.528 4.316-4.13 4.316-2.046 0-3.222-1.277-3.78-3.285l.804-1.113c.457 1.883 1.098 3.078 2.707 3.078 1.777 0 2.77-1.445 2.77-3.039 0-1.898-1.45-3.363-2.543-4.461a105 105 0 0 1-3.575-3.738v-1.32h7.747v1.402h-3.508c-.25 0-.5-.02-.746-.02h-2.067v.02zm0-331.3c.578.597 1.445 1.32 2.047 2.047.578.699 1.34 1.691 1.34 3.136 0 2.274-1.528 4.317-4.13 4.317-2.046 0-3.222-1.278-3.78-3.282l.804-1.117c.457 1.883 1.098 3.078 2.707 3.078 1.777 0 2.77-1.445 2.77-3.035 0-1.902-1.45-3.367-2.543-4.465a104 104 0 0 1-3.575-3.738v-1.32h7.747v1.402h-3.508c-.25 0-.5-.02-.746-.02h-2.067v.02zm54.613 333.613h1.406c1.942 0 2.5-1.695 2.5-2.871 0-1.609-.91-2.871-2.394-2.871-1.16 0-2.789.578-3.723 2.105-.14-.722-.14-.761-.226-1.258a4.87 4.87 0 0 1 3.988-2.128c2.355 0 4.09 1.96 4.09 4.132 0 1.629-1.137 2.996-2.688 3.512 1.243.68 2.149 1.961 2.149 3.449 0 1.735-1.59 3.117-3.531 3.117-1.778 0-3.161-1.093-3.739-2.269.145-.207.516-.805.703-1.117.453 1.219 1.629 2.129 3.016 2.129 1.156 0 1.922-.766 1.922-1.86 0-1.136-.723-2.375-1.942-2.664-.085 0-1.367-.125-1.531-.144zm0-331.301h1.406c1.942 0 2.5-1.695 2.5-2.87 0-1.61-.91-2.872-2.394-2.872-1.16 0-2.789.578-3.723 2.11-.14-.727-.14-.766-.226-1.262a4.87 4.87 0 0 1 3.988-2.13c2.355 0 4.09 1.962 4.09 4.134 0 1.632-1.137 2.996-2.688 3.511 1.243.684 2.149 1.961 2.149 3.45 0 1.734-1.59 3.117-3.531 3.117-1.778 0-3.161-1.094-3.739-2.27.145-.207.516-.805.703-1.117.453 1.219 1.629 2.129 3.016 2.129 1.156 0 1.922-.766 1.922-1.86 0-1.136-.723-2.374-1.942-2.664-.085 0-1.367-.125-1.531-.144zm60.731 328.141h1.879v1.258h-1.879v8.761h-1.821l-4.914-8.761v-1.258h5.102v-3.531h1.633zm-5.145 1.258c1.199 2.109 3.574 6.363 3.574 7.812v-7.812zm5.145-332.559h1.879v1.262h-1.879v8.758h-1.821l-4.914-8.758V5.832h5.102V2.301h1.633zm-5.145 1.262c1.199 2.105 3.574 6.36 3.574 7.808V7.094zm57.586 338.734h5.063v1.324h-6.571v-7.625h1.387c.371.871 1.137 1.512 2.129 1.512.93 0 1.961-.828 1.961-3.203 0-2.543-1.469-3.285-2.539-3.285-1.324 0-2.543.804-3.078 1.922l-.664-1.16a4.5 4.5 0 0 1 3.742-2.043c2.394 0 4.273 2.043 4.273 4.523 0 2.543-1.672 4.504-3.676 4.504a3.18 3.18 0 0 1-2.027-.742zm0-331.297h5.063v1.32h-6.571V8.228h1.387c.371.87 1.137 1.511 2.129 1.511.93 0 1.961-.828 1.961-3.203 0-2.543-1.469-3.285-2.539-3.285-1.324 0-2.543.805-3.078 1.922l-.664-1.156a4.5 4.5 0 0 1 3.742-2.047c2.394 0 4.273 2.047 4.273 4.523 0 2.543-1.672 4.504-3.676 4.504a3.16 3.16 0 0 1-2.027-.742zm61.742 332.539c-.867.352-1.488.41-2.066.41-2.684 0-5.184-2.808-5.184-7.25 0-5.679 2.375-6.96 4.071-6.96.929 0 1.859.289 2.746 1.324.91 1.094 1.261 2 1.261 3.594 0 2.558-1.261 4.832-3.14 4.832-1.364 0-2.543-.723-3.266-1.633.207 2.914 1.57 4.836 3.531 4.836.539 0 1.243-.082 2.047-.434zm-5.554-8.949c0 .168 0 .27.019.582 0 1.61.93 3.055 2.438 3.055.968 0 1.464-.516 1.839-1.156.43-.805.454-1.571.454-2.414 0-.809 0-1.614-.477-2.442-.391-.637-.906-1.195-1.898-1.195-1.965 0-2.293 2.746-2.375 3.57m5.554-322.351c-.867.351-1.488.41-2.066.41-2.684 0-5.184-2.809-5.184-7.25 0-5.68 2.375-6.961 4.071-6.961.929 0 1.859.289 2.746 1.324.91 1.094 1.261 2.004 1.261 3.594 0 2.558-1.261 4.832-3.14 4.832-1.364 0-2.543-.723-3.266-1.633.207 2.914 1.57 4.836 3.531 4.836.539 0 1.243-.082 2.047-.434zm-5.554-8.946c0 .164 0 .27.019.578 0 1.614.93 3.059 2.438 3.059.968 0 1.464-.516 1.839-1.156.43-.809.454-1.57.454-2.418 0-.809 0-1.614-.477-2.438-.391-.64-.906-1.199-1.898-1.199-1.965 0-2.293 2.75-2.375 3.574m58.679 338.922c.25 0 .496.02.746.02h2.375c-2.953-3.45-4.648-7.805-4.648-12.332h1.652c0 4.379 1.446 8.824 4.278 12.375v1.343h-8.079v-1.406zm0-331.301c.25 0 .496.024.746.024h2.375c-2.953-3.453-4.648-7.809-4.648-12.336h1.652c0 4.383 1.446 8.824 4.278 12.375v1.344h-8.079v-1.407zM10.734 323.637H8.957l-5.02-14.336h1.57l1.446 4.172h5.535l1.469-4.172h1.797zm1.364-9.008H7.344c.992 2.894 2.234 6.488 2.379 7.418h.02c.144-.848.558-2.086.91-3.141zm386.035 9.008h-1.778l-5.015-14.336h1.566l1.446 4.172h5.539l1.464-4.172h1.797zm1.363-9.008h-4.75c.992 2.894 2.231 6.488 2.375 7.418h.02c.144-.848.558-2.086.91-3.141zM5.238 266.938v-14.336h5.145c2.808 0 4.855 1.859 4.855 3.882 0 1.571-1.343 3.161-3.761 3.614 2.687.785 3.222 2.355 3.222 3.246 0 1.859-2.023 3.594-4.855 3.594zm1.676-6.262v5.105H9.29c2.125 0 3.8-1.097 3.8-2.461 0-1.238-1.323-2.644-3.987-2.644zm0-6.918v5.66H9.66c2.23 0 3.945-1.387 3.945-2.914 0-1.402-1.507-2.746-3.8-2.746zm385.727 13.18v-14.336h5.14c2.813 0 4.856 1.859 4.856 3.882 0 1.571-1.344 3.161-3.758 3.614 2.684.785 3.223 2.355 3.223 3.246 0 1.859-2.028 3.594-4.856 3.594zm1.672-6.262v5.105h2.375c2.128 0 3.8-1.097 3.8-2.461 0-1.238-1.324-2.644-3.984-2.644zm0-6.918v5.66h2.746c2.23 0 3.945-1.387 3.945-2.914 0-1.402-1.508-2.746-3.801-2.746zM15.2 198.273c-1.384-.929-2.024-1.195-3.7-1.195-2.89 0-4.586 3.117-4.586 5.969 0 3.039 1.738 6.031 4.672 6.031 1.32 0 2.187-.371 3.242-1.031l.29 1.633c-.993.496-2.25.722-3.513.722-3.964 0-6.425-3.656-6.425-7.355 0-4.07 2.914-7.293 6.218-7.293 1.778 0 2.399.144 3.926 1.117zm386.902 0c-1.387-.929-2.028-1.195-3.7-1.195-2.894 0-4.586 3.117-4.586 5.969 0 3.039 1.735 6.031 4.668 6.031 1.321 0 2.192-.371 3.243-1.031l.289 1.633c-.993.496-2.25.722-3.512.722-3.965 0-6.422-3.656-6.422-7.355 0-4.07 2.91-7.293 6.215-7.293 1.777 0 2.398.144 3.926 1.117zM4.14 153.535v-14.336h5.08c3.39 0 5.992 3.184 5.992 7.043 0 3.988-2.602 7.293-5.992 7.293zm1.692-13.18v12.024h2.934c2.77 0 4.75-2.539 4.75-6.137 0-3.449-1.961-5.887-4.75-5.887zm386.809 13.18v-14.336h5.078c3.39 0 5.992 3.184 5.992 7.043 0 3.988-2.602 7.293-5.992 7.293zm1.691-13.18v12.024h2.934c2.769 0 4.75-2.539 4.75-6.137 0-3.449-1.961-5.887-4.75-5.887zM11.023 83.906c-1.656 0-2.398 0-2.77-.023v5.414h6.403v1.258H8.254v4.918h2.664c.246 0 .496-.02.742-.02h3.535v1.344h-8.68V82.5h8.946v1.426zm386.098 0c-1.652 0-2.394 0-2.769-.023v5.414h6.406v1.258h-6.406v4.918h2.668c.246 0 .496-.02.742-.02h3.531v1.344h-8.676V82.5h8.946v1.426zM14.719 32.328v1.258H8.852v5.187h2.523c.246 0 .492-.02.742-.02h3.406v1.34H7.117V25.802h1.735v6.527zm385.5 0v1.258h-5.867v5.187h2.519c.25 0 .496-.02.746-.02h3.406v1.34h-8.406V25.802h1.735v6.527z"/></g></svg>