<svg xmlns="http://www.w3.org/2000/svg" width="910pt" height="422pt" viewBox="0 -422 910 422"><g id="page1" transform="scale(1 -1)"><path fill="#cc9c6f" d="M142.73 324.148a7141 7141 0 0 1 311.813-6.804c104.062 0 208.082 2.269 311.812 6.804v17.008a7141 7141 0 0 1-311.812 6.805 7141 7141 0 0 1-311.813-6.805z"/><path fill="none" stroke="#000" stroke-linecap="round" stroke-linejoin="round" stroke-width="2" d="M142.73 324.148a7141 7141 0 0 1 311.813-6.804c104.062 0 208.082 2.269 311.812 6.804v17.008a7141 7141 0 0 1-311.812 6.805 7141 7141 0 0 1-311.813-6.805z"/><path fill="#fff" d="M176.746 332.652a5.665 5.665 0 0 1-5.668 5.668 5.667 5.667 0 1 1 0-11.336 5.667 5.667 0 0 1 5.668 5.668"/><path fill="none" stroke="#000" stroke-linecap="round" stroke-linejoin="round" stroke-width="2" d="M176.746 332.652a5.665 5.665 0 0 1-5.668 5.668 5.667 5.667 0 1 1 0-11.336 5.667 5.667 0 0 1 5.668 5.668"/><path fill="#fff" d="M743.676 332.652a5.665 5.665 0 0 1-5.668 5.668 5.667 5.667 0 1 1 0-11.336 5.667 5.667 0 0 1 5.668 5.668"/><path fill="none" stroke="#000" stroke-linecap="round" stroke-linejoin="round" stroke-width="2" d="M743.676 332.652a5.665 5.665 0 0 1-5.668 5.668 5.667 5.667 0 1 1 0-11.336 5.667 5.667 0 0 1 5.668 5.668"/><path fill="#d3ae37" d="M341.156 86.04c0 15.655-76.144 28.347-170.078 28.347C77.148 114.387 1 101.695 1 86.039s76.148-28.348 170.078-28.348c93.934 0 170.078 12.692 170.078 28.348"/><path fill="none" stroke="#000" stroke-linecap="round" stroke-linejoin="round" stroke-width="2" d="M341.156 86.04c0 15.655-76.144 28.347-170.078 28.347C77.148 114.387 1 101.695 1 86.039s76.148-28.348 170.078-28.348c93.934 0 170.078 12.692 170.078 28.348m-170.078 226.77 161.41-217.813m-161.41 217.813L117.32 112.941m53.758 199.868L19.984 73.012m151.094 239.797v19.843"/><g fill-rule="evenodd"><path d="M63.305 137.25c-2.29-1.414-4.387-4.094-4.387-5.652 0-.926.828-2.239 2.582-4.09 1.414-1.512 3.117-3.801 3.754-5.117l1.117-2.387-1.363-2.731c-.777-1.507-1.899-4.382-2.485-6.429-6.382-20.754-12.91-28.356-35.222-40.828-6.969-3.848-9.406-5.75-11.012-8.282-1.512-2.535-1.512-5.117.145-7.504 4.777-7.066 24.07-6.187 40.097 1.805 11.742 5.797 20.317 14.125 24.75 24.016 5.067 11.16 6.285 22.804 3.363 31.719-1.12 3.41-4.53 8.476-6.675 9.89-1.461.973-1.95 1.754-2.68 4.531-1.363 5.02-4.191 10.329-5.992 11.254-2 1.024-4.094.977-5.992-.195m5.554-4.387c-.586-1.07-.441-1.652.973-4.429 2.191-4.336 4.531-11.84 5.555-17.786 4.382-25.773-14.664-49.988-43.313-55.003-2.484-.438-5.699-.782-7.113-.782-1.95 0-2.633-.242-3.02-1.023-.488-.926-.343-1.07 1.41-1.559 2.876-.828 11.352-.683 16.227.246 15.2 2.871 28.938 11.352 36.297 22.457 10.621 15.934 11.008 37.809.777 44.871-1.851 1.27-2.242 1.95-3.457 5.848-1.218 3.945-3.07 8.332-3.558 8.332-.047 0-.438-.535-.778-1.172m-4.093-2.773-1.707-.731 1.804-2.293c.926-1.265 2.145-3.359 2.63-4.675.925-2.34.925-2.34-.68-6.137-.829-2.098-2.29-6.191-3.215-9.016-3.657-11.449-7.067-17.344-13.742-24.02-5.165-5.163-8.622-7.6-19.34-13.788-8.625-4.918-11.645-6.965-12.035-8.036-.145-.343.73-1.609 1.902-2.874l2.14-2.243 4.094.34c12.035 1.024 24.02 6.14 32.547 13.985C66.13 77.032 70.66 84.39 73.047 93.16c1.363 5.016 1.656 16.465.535 21.094-1.754 7.16-4.09 13.059-6.137 15.445-.925 1.024-1.12 1.071-2.68.391"/><path fill="#f5a701" d="M66.082 138.371c.387-.144.828-.098 1.024.051.144.191-.149.289-.684.289-.633-.047-.73-.145-.34-.34m-5.41-2.875-1.508-1.707 1.703 1.512c.926.879 1.656 1.609 1.656 1.707 0 .387-.39.047-1.851-1.512m10.476.098c.196-.242.438-.489.583-.489.148 0 .097.247-.047.489-.196.293-.438.535-.586.535-.145 0-.145-.242.05-.535m-2.289-2.731c-.586-1.07-.441-1.652.973-4.429 2.191-4.336 4.531-11.84 5.555-17.786 4.382-25.773-14.664-49.988-43.313-55.003-2.484-.438-5.699-.782-7.113-.782-1.95 0-2.633-.242-3.02-1.023-.488-.926-.343-1.07 1.41-1.559 2.876-.828 11.352-.683 16.227.246 15.2 2.871 28.938 11.352 36.297 22.457 10.621 15.934 11.008 37.809.777 44.871-1.851 1.27-2.242 1.95-3.457 5.848-1.218 3.945-3.07 8.332-3.558 8.332-.047 0-.438-.535-.778-1.172m-.828-4.871c.973-1.605 2.14-4.09 2.63-5.504.487-1.414.976-2.484 1.07-2.34.636.586-3.75 9.747-4.97 10.524-.292.148.294-1.024 1.27-2.68m5.992 1.903c0-.391.145-.536.34-.34a.467.467 0 0 1 0 .679c-.195.196-.34.047-.34-.339m-10.671-.489c-.145-.242.148-.777.632-1.168.828-.633.828-.586.247.145-.586.73-.586.926 0 1.172.437.144.484.242.046.289-.34 0-.777-.145-.925-.438m-2.094-2.144c1.12-1.121 2.144-2.047 2.289-2.047.148 0-.684.926-1.8 2.047-1.122 1.172-2.145 2.097-2.294 2.097-.144 0 .684-.925 1.805-2.097m13.25 1.074c0-.391.195-.535.39-.344a.47.47 0 0 1 0 .684c-.195.195-.39.047-.39-.34m-9.11-2.098c.196-.293.438-.535.586-.535.145 0 .145.242-.05.535s-.438.535-.582.535c-.149 0-.098-.242.046-.535m1.364-2.093c.73-1.61.976-1.903.976-1.219 0 .293-.344.976-.781 1.512-.777.972-.777.925-.195-.293m8.82.535c0-.391.145-.535.34-.34s.195.484 0 .68c-.195.195-.34.05-.34-.34m1.8-2.629c.196-.246.442-.488.587-.488s.144.242-.051.488c-.191.293-.437.535-.582.535-.148 0-.098-.242.047-.535m-9.644-.488c0-.391.196-.536.39-.34a.59.59 0 0 1 0 .679c-.194.196-.39.051-.39-.339m.39-2.047c-.194-.875-.147-1.071.243-.68.293.289.438.824.34 1.215-.145.39-.39.148-.582-.535m3.895-.586c0-.438.196-1.364.442-2.094.34-1.023.387-1.07.437-.242 0 .586-.195 1.508-.437 2.094-.293.632-.442.73-.442.242m9.016-.485c.195-.293.438-.539.582-.539.148 0 .098.246-.047.539-.195.243-.437.485-.586.485-.144 0-.097-.242.051-.485m-13.984-1.367c-.536-1.265-.39-1.605.242-.582.293.535.441 1.07.293 1.219-.098.144-.387-.149-.535-.637m15.054-.242c.149-.242.438-.488.535-.488.149 0 .149.246-.046.488-.149.293-.438.535-.586.535-.145 0-.098-.242.097-.535m-9.16-2.047c0-.391.195-.535.39-.34.145.145.145.489 0 .684-.195.191-.39.047-.39-.344m-9.89-1.07c0-.391.148-.535.343-.34a.47.47 0 0 1 0 .68c-.195.195-.343.05-.343-.34m2.632 0c0-.391.145-.535.34-.34a.47.47 0 0 1 0 .68c-.195.195-.34.05-.34-.34m7.891-1.559c0-.73.098-1.023.246-.633.145.34.145.922 0 1.313-.148.344-.246.051-.246-.68m-8.426 0c0-.39.145-.539.34-.344s.195.489 0 .684-.34.051-.34-.34m-.539-1.558c0-.391.149-.539.344-.344a.47.47 0 0 1 0 .683c-.195.196-.344.047-.344-.339m-3.117-1.563c0-.387.148-.535.344-.34a.48.48 0 0 1 0 .684c-.196.195-.344.047-.344-.344m2.633 0c0-.387.144-.535.34-.34a.47.47 0 0 1 0 .684c-.196.195-.34.047-.34-.344m10.086-4.43c0-2.875.047-3.949.191-2.437.098 1.512.098 3.848 0 5.215-.144 1.312-.191.093-.191-2.778m11.3 3.606c0-.586.149-.735.293-.293.145.34.145.828 0 .973-.195.195-.34-.145-.293-.68M63.6 107.48c0-.386.144-.535.34-.339a.47.47 0 0 1 0 .683c-.196.196-.34.047-.34-.344m-2.633-.535c0-.39.195-.535.39-.34a.59.59 0 0 1 0 .68c-.195.195-.39.051-.39-.34m2.144-1.312c.047-.637.145-.735.293-.344.196.391.145.828 0 1.024-.195.148-.293-.145-.293-.68m-2.632-.246c0-.391.148-.535.343-.34s.196.484 0 .68c-.195.195-.343.05-.343-.34m25.629-.778c0-.879.097-1.121.242-.636.148.488.148 1.218 0 1.558-.145.344-.242-.047-.242-.922m-24.07-1.804c0-.391.148-.535.343-.34.195.144.195.484 0 .68-.195.195-.344.05-.344-.34m-.536-1.559c0-.391.148-.535.344-.391a.537.537 0 0 1 0 .731c-.196.195-.344 0-.344-.34m-.973-2.387c-.828-1.902-.683-2.34.242-.586.438.829.731 1.559.587 1.708-.098.093-.489-.391-.829-1.122m25.579-1.023c0-.879.097-1.121.242-.633.148.484.148 1.215 0 1.559-.145.34-.242-.051-.242-.926m-12.524-.242c0-.735.098-1.024.246-.684.145.39.145.973 0 1.317-.148.34-.246.046-.246-.633m-16.223 0c0-.39.149-.54.34-.344a.47.47 0 0 1 0 .684c-.191.195-.34.047-.34-.34M73 94.668c.047-.582.144-.73.34-.293.144.344.097.828-.047.977-.195.195-.293-.149-.293-.684m-15.152-1.266c-.293-.586-.438-1.023-.293-1.023s.535.437.828 1.023c.293.582.437 1.07.293 1.07-.149 0-.489-.488-.828-1.07m27.671.242c0-.632.149-.73.293-.34s.145.829 0 1.024c-.195.145-.34-.148-.293-.684m-13.007-1.07c0-.586.144-.73.293-.293.144.34.144.828-.051.973-.145.195-.29-.094-.242-.68m-16.028-1.316c-.195-.39-.097-.489.243-.242.34.195.632.484.632.582 0 .441-.488.246-.875-.34m15.442-.438c0-.39.148-.535.343-.343.196.148.196.488 0 .683-.195.196-.343.05-.343-.34m-19.047-.632c-.246-.344-.148-.442.195-.196.633.34.828.828.387.828-.145 0-.387-.293-.582-.632m2.582-.489c-.246-.39-.148-.488.242-.242.586.387.781.828.34.828-.098 0-.387-.293-.582-.586m-4.434-1.902c-.633-.824-.633-.824.196-.191.875.68 1.117 1.117.73 1.117-.148 0-.539-.387-.926-.926m2.582-.484c-.632-.829-.632-.88.196-.247.875.684 1.168 1.121.73 1.121-.097 0-.539-.39-.926-.874m17.102.097c-.54-1.316-.39-1.656.242-.586.293.489.438 1.024.293 1.168-.148.149-.39-.144-.535-.582m13.203-.246c0-.387.145-.535.34-.34s.195.489 0 .684-.34.047-.34-.344m-.539-1.558c0-.387.148-.536.344-.34a.47.47 0 0 1 0 .683c-.196.195-.344.047-.344-.343m-33.617-2.727-2.582-2.777 2.73 2.629c2.532 2.386 2.973 2.875 2.582 2.875-.097 0-1.316-1.266-2.73-2.727m18.758.098c-.196-.344-.243-.684-.098-.829.148-.148.39.098.539.536.387.925.094 1.12-.441.293m-24.02-1.61c-.195-.39-.098-.488.246-.242.34.195.633.484.633.586 0 .437-.488.242-.879-.344m22.95-.535c-.243-.39-.15-.488.242-.242.343.195.585.484.585.582 0 .437-.437.246-.828-.34M42.16 79.469c-.633-.828-.633-.828.196-.196.874.684 1.167 1.121.73 1.121-.148 0-.54-.437-.926-.925m2.875-.781-.976-1.169 1.168.973c.636.586 1.171 1.074 1.171 1.172 0 .438-.437.145-1.363-.977m21.387.585c-.242-.39-.145-.488.195-.242.633.387.828.825.39.825-.148 0-.39-.243-.585-.583m-26.066-1.07c-.243-.344-.145-.441.246-.195.289.195.582.437.582.582 0 .441-.438.246-.828-.387m24.75-.832c-.68-.828-.633-.828.195-.195.828.683 1.12 1.12.683 1.12-.097 0-.488-.386-.878-.925m-26.31-.195c-.241-.387-.144-.438.243-.242.293.195.586.488.586.632 0 .442-.488.196-.828-.39m4.142 0c-.196-.387-.145-.438.246-.242.34.195.582.488.582.632 0 .442-.438.196-.828-.39m-2.047-1.559c-.243-.386-.145-.484.195-.242.344.195.633.488.633.633 0 .39-.485.195-.828-.39M60.43 72.16l-3.364-3.508 3.508 3.364c1.95 1.847 3.559 3.457 3.559 3.554 0 .34-.535-.148-3.703-3.41m17.44 1.9c-.242-.391-.144-.485.242-.243.293.196.586.489.586.586 0 .438-.437.242-.828-.343m-44.824-.536c-.242-.39-.145-.437.246-.242.34.242.582.488.582.633 0 .438-.437.195-.828-.39m4.191-.195c-.972-.777-.972-.777.145-.242.683.293 1.172.683 1.172.777 0 .442-.246.293-1.317-.535m-2.582-1.559c-.976-.78-.976-.78.145-.242.633.293 1.172.68 1.172.778 0 .437-.293.293-1.317-.536m40.34-1.656c-.68-.828-.633-.879.195-.195.88.684 1.121 1.07.684 1.07-.098 0-.488-.386-.879-.875m-43.992-.437c-.977-.782-.977-.782.144-.246.633.293 1.168.683 1.168.828 0 .39-.242.246-1.312-.582m24.457-1.95-.977-1.171 1.172 1.027c1.07.922 1.41 1.363.973 1.363-.098 0-.633-.535-1.168-1.218m-28.113-.144c-.973-.781-.973-.781.144-.246.637.34 1.172.683 1.172.828 0 .39-.246.293-1.316-.582m26.015-1.367c-.195-.34-.144-.438.246-.196.34.196.582.442.582.587 0 .437-.437.242-.828-.391m-34.64-1.313c-.68-.832-.633-.879.195-.195.879.68 1.121 1.07.684 1.07-.098 0-.489-.39-.88-.875m4.433.29c-.242-.391-.144-.438.246-.243.293.195.582.489.582.633 0 .438-.437.195-.828-.39m28.649 0c-.242-.391-.145-.438.246-.243.34.195.582.489.582.633 0 .438-.438.195-.828-.39m-30.207-1.024c-.242-.387-.145-.484.246-.242.293.195.582.488.582.586 0 .437-.485.242-.828-.344m24.02-2.094c-2.29-1.12-3.606-1.898-2.876-1.707 1.559.442 7.309 3.266 7.309 3.606 0 .343.39.488-4.434-1.899m22.605 1.266c-.68-.828-.633-.875.195-.242.879.683 1.121 1.12.684 1.12-.098 0-.489-.39-.88-.878m-48.961-1.07-1.27-1.415 1.414 1.266c1.364 1.172 1.707 1.61 1.266 1.61-.098 0-.73-.684-1.41-1.462m-2.875.34c-.246-.387-.149-.489.242-.243.293.196.586.489.586.586 0 .438-.438.242-.828-.344m49.5-1.07c-.246-.392-.149-.438.242-.247.293.246.586.488.586.637 0 .437-.438.191-.828-.39m-25.578-1.806a.467.467 0 0 1 .68 0c.195.149.05.344-.34.344-.391 0-.536-.195-.34-.344m-20.22-.73c.145-.29.438-.484.583-.484.148 0 .098.195-.047.484-.195.293-.488.535-.586.535-.145 0-.145-.242.05-.535m18.661.195c.195-.195.484-.195.68 0s.05.34-.34.34-.535-.145-.34-.34m-1.852-.535c.387-.145.829-.145 1.024.05.144.145-.149.29-.684.243-.633 0-.73-.148-.34-.293m24.309-.242c-.242-.39-.145-.488.195-.246.344.195.633.488.633.633 0 .39-.484.195-.828-.387m-26.355-.293c.34-.148.828-.098.972.047.196.195-.144.293-.68.293-.585-.047-.73-.145-.292-.34m-2.094-.488c.386-.145.828-.145.972 0 .196.195-.097.34-.683.293-.582 0-.73-.149-.29-.293m-10.914-.875c.242-.246 1.703-.344 3.261-.246l2.778.148-3.215.293c-1.8.145-3.07.047-2.824-.195m7.5.34c.488-.145 1.218-.145 1.562 0 .34.144-.05.242-.925.242-.88 0-1.172-.098-.637-.242m-13.446-2.778c.196-.293.438-.535.586-.535.145 0 .145.242-.05.535-.196.293-.438.535-.582.535-.149 0-.098-.242.046-.535m33.813-1.363a.47.47 0 0 1 .684 0c.19.144.046.34-.344.34s-.535-.196-.34-.34m-1.559-.54c.145-.19.489-.19.68 0 .195.196.05.345-.34.345s-.535-.149-.34-.344m-29.62-.679c.144-.293.437-.535.581-.535.149 0 .098.242-.097.535-.145.242-.438.488-.582.488-.098 0-.098-.246.097-.488m28.011.145a.53.53 0 0 1 .73 0c.196.195 0 .343-.34.343-.39 0-.535-.148-.39-.343m-6.234-1.559c.195-.195.484-.195.68 0s.05.34-.34.34c-.391 0-.536-.145-.34-.34m-17.2-.535c.196-.195.535-.195.684 0 .191.195.047.34-.344.34s-.535-.145-.34-.34m14.325 0c.39-.145.828-.145 1.023.05.145.192-.148.29-.684.29-.632-.047-.73-.145-.34-.34m-11.254-.535c.535-.098 1.363-.098 1.851 0 .485.144.098.242-.925.242-.977 0-1.415-.098-.926-.242m6.039 0c.633-.098 1.558-.098 2.047 0 .535.144 0 .242-1.168.242-1.121 0-1.559-.098-.88-.242"/><path fill="#fcd900" d="m64.766 129.797-1.168-.586 1.851-2.484c.973-1.364 2.14-3.461 2.582-4.727.778-2.094.73-2.34-.441-4.871-.68-1.414-2.336-5.992-3.703-10.184-6.137-18.61-13.348-26.648-34.688-38.586-3.8-2.144-7.797-4.675-8.914-5.601l-2.047-1.754 2.094-2.098 2.145-2.14 4.53.34c8.333.632 19.684 4.578 26.454 9.257 3.703 2.531 9.988 8.672 12.473 12.18 2.875 4.14 5.605 9.988 6.82 14.86 1.465 5.75 1.367 18.124-.145 23.191-1.558 5.164-2.972 8.769-4.578 11.449-1.465 2.531-1.512 2.582-3.265 1.754"/><path d="M126.086 137.25c-2.289-1.414-4.387-4.094-4.387-5.652 0-.926.828-2.239 2.582-4.09 1.414-1.512 3.117-3.801 3.75-5.117l1.121-2.387-1.363-2.731c-.777-1.507-1.898-4.382-2.484-6.429-6.383-20.754-12.91-28.356-35.223-40.828-6.969-3.848-9.406-5.75-11.012-8.282-1.511-2.535-1.511-5.117.145-7.504 4.773-7.066 24.066-6.187 40.098 1.805 11.742 5.797 20.316 14.125 24.75 24.016 5.066 11.16 6.285 22.804 3.363 31.719-1.121 3.41-4.531 8.476-6.676 9.89-1.461.973-1.949 1.754-2.68 4.531-1.367 5.02-4.191 10.329-5.992 11.254-2 1.024-4.094.977-5.992-.195m5.555-4.387c-.586-1.07-.442-1.652.972-4.429 2.192-4.336 4.532-11.84 5.555-17.786 4.383-25.773-14.664-49.988-43.312-55.003-2.485-.438-5.7-.782-7.114-.782-1.949 0-2.633-.242-3.023-1.023-.485-.926-.34-1.07 1.414-1.559 2.875-.828 11.351-.683 16.222.246 15.204 2.871 28.942 11.352 36.297 22.457 10.621 15.934 11.012 37.809.782 44.871-1.852 1.27-2.243 1.95-3.457 5.848-1.219 3.945-3.071 8.332-3.559 8.332-.047 0-.438-.535-.777-1.172m-4.094-2.773-1.707-.731 1.805-2.293c.925-1.265 2.14-3.359 2.628-4.675.926-2.34.926-2.34-.679-6.137-.828-2.098-2.293-6.191-3.215-9.016-3.656-11.449-7.066-17.344-13.742-24.02-5.164-5.163-8.621-7.6-19.34-13.788-8.625-4.918-11.645-6.965-12.035-8.036-.145-.343.73-1.609 1.898-2.874l2.145-2.243 4.093.34c12.036 1.024 24.02 6.14 32.543 13.985 6.969 6.43 11.5 13.789 13.887 22.558 1.363 5.016 1.656 16.465.535 21.094-1.754 7.16-4.09 13.059-6.136 15.445-.926 1.024-1.122 1.071-2.68.391"/><path fill="#f5a701" d="M128.863 138.371c.387-.144.828-.098 1.024.051.144.191-.149.289-.684.289-.633-.047-.73-.145-.34-.34m-5.41-2.875-1.512-1.707 1.707 1.512c.926.879 1.657 1.609 1.657 1.707 0 .387-.391.047-1.852-1.512m10.477.098c.191-.242.437-.489.582-.489.148 0 .097.247-.047.489-.195.293-.438.535-.586.535-.145 0-.145-.242.051-.535m-2.289-2.731c-.586-1.07-.442-1.652.972-4.429 2.192-4.336 4.532-11.84 5.555-17.786 4.383-25.773-14.664-49.988-43.312-55.003-2.485-.438-5.7-.782-7.114-.782-1.949 0-2.633-.242-3.023-1.023-.485-.926-.34-1.07 1.414-1.559 2.875-.828 11.351-.683 16.222.246 15.204 2.871 28.942 11.352 36.297 22.457 10.621 15.934 11.012 37.809.782 44.871-1.852 1.27-2.243 1.95-3.457 5.848-1.219 3.945-3.071 8.332-3.559 8.332-.047 0-.438-.535-.777-1.172m-.832-4.871c.976-1.605 2.144-4.09 2.632-5.504.489-1.414.973-2.484 1.071-2.34.633.586-3.75 9.747-4.969 10.524-.293.148.293-1.024 1.266-2.68m5.996 1.903c0-.391.144-.536.34-.34a.467.467 0 0 1 0 .679c-.196.196-.34.047-.34-.339m-10.672-.489c-.145-.242.144-.777.633-1.168.828-.633.828-.586.246.145-.586.73-.586.926 0 1.172.437.144.484.242.047.289-.34 0-.782-.145-.926-.438m-2.094-2.144c1.121-1.121 2.145-2.047 2.289-2.047s-.683.926-1.805 2.047c-1.117 1.172-2.14 2.097-2.289 2.097-.144 0 .684-.925 1.805-2.097m13.25 1.074c0-.391.195-.535.391-.344a.473.473 0 0 1 0 .684c-.196.195-.391.047-.391-.34m-9.109-2.098c.195-.293.437-.535.586-.535.144 0 .144.242-.051.535s-.438.535-.582.535c-.149 0-.102-.242.047-.535m1.363-2.093c.73-1.61.977-1.903.977-1.219 0 .293-.344.976-.782 1.512-.777.972-.777.925-.195-.293m8.82.535c0-.391.145-.535.34-.34s.195.484 0 .68c-.195.195-.34.05-.34-.34m1.801-2.629c.195-.246.438-.488.586-.488.145 0 .145.242-.051.488-.191.293-.437.535-.582.535-.148 0-.097-.242.047-.535m-9.644-.488c0-.391.195-.536.386-.34a.57.57 0 0 1 0 .679c-.191.196-.386.051-.386-.339m.386-2.047c-.191-.875-.144-1.071.246-.68.293.289.438.824.34 1.215-.144.39-.39.148-.586-.535m3.899-.586c0-.438.195-1.364.437-2.094.344-1.023.391-1.07.442-.242 0 .586-.196 1.508-.442 2.094-.289.632-.437.73-.437.242m9.015-.485c.196-.293.438-.539.582-.539.149 0 .098.246-.047.539-.195.243-.441.485-.585.485-.145 0-.098-.242.05-.485m-13.984-1.367c-.535-1.265-.391-1.605.242-.582.293.535.442 1.07.293 1.219-.098.144-.391-.149-.535-.637m15.055-.242c.144-.242.437-.488.535-.488.148 0 .148.246-.047.488-.149.293-.441.535-.586.535s-.098-.242.098-.535m-9.161-2.047c0-.391.196-.535.391-.34.145.145.145.489 0 .684-.195.191-.391.047-.391-.344m-9.89-1.07c0-.391.148-.535.344-.34a.47.47 0 0 1 0 .68c-.196.195-.344.05-.344-.34m2.633 0c0-.391.144-.535.34-.34a.47.47 0 0 1 0 .68c-.196.195-.34.05-.34-.34m7.89-1.559c0-.73.098-1.023.246-.633.145.34.145.922 0 1.313-.148.344-.246.051-.246-.68m-8.425 0c0-.39.144-.539.339-.344a.47.47 0 0 1 0 .684c-.195.195-.339.051-.339-.34m-.54-1.558c0-.391.149-.539.344-.344a.47.47 0 0 1 0 .683c-.195.196-.344.047-.344-.339m-3.117-1.563c0-.387.149-.535.34-.34a.473.473 0 0 1 0 .684c-.191.195-.34.047-.34-.344m2.633 0c0-.387.145-.535.34-.34.195.196.195.489 0 .684s-.34.047-.34-.344m10.082-4.43c0-2.875.051-3.949.195-2.437.098 1.512.098 3.848 0 5.215-.144 1.312-.195.093-.195-2.778m11.305 3.606c0-.586.144-.735.293-.293.144.34.144.828 0 .973-.196.195-.34-.145-.293-.68m-21.922-.735c0-.386.144-.535.34-.339a.47.47 0 0 1 0 .683c-.196.196-.34.047-.34-.344m-2.633-.535c0-.39.195-.535.391-.34a.59.59 0 0 1 0 .68c-.196.195-.391.051-.391-.34m2.145-1.312c.047-.637.144-.735.293-.344.195.391.144.828 0 1.024-.196.148-.293-.145-.293-.68m-2.633-.246c0-.391.148-.535.344-.34a.47.47 0 0 1 0 .68c-.196.195-.344.05-.344-.34m25.629-.778c0-.879.097-1.121.242-.636.144.488.144 1.218 0 1.558-.145.344-.242-.047-.242-.922m-24.071-1.804c0-.391.149-.535.344-.34.195.144.195.484 0 .68-.195.195-.344.05-.344-.34m-.535-1.559c0-.391.149-.535.34-.391a.53.53 0 0 1 0 .731c-.191.195-.34 0-.34-.34m-.972-2.387c-.829-1.902-.684-2.34.242-.586.437.829.73 1.559.586 1.708-.098.093-.489-.391-.828-1.122m25.578-1.023c0-.879.097-1.121.242-.633.144.484.144 1.215 0 1.559-.145.34-.242-.051-.242-.926m-12.524-.242c0-.735.098-1.024.246-.684.145.39.145.973 0 1.317-.148.34-.246.046-.246-.633m-16.222 0c0-.39.144-.54.339-.344a.47.47 0 0 1 0 .684c-.195.195-.339.047-.339-.34m15.64-2.926c.047-.582.145-.73.34-.293.145.344.098.828-.051.977-.191.195-.289-.149-.289-.684m-15.152-1.266c-.293-.586-.441-1.023-.293-1.023.144 0 .535.437.828 1.023.293.582.438 1.07.293 1.07-.148 0-.488-.488-.828-1.07m27.672.242c0-.632.144-.73.293-.34.144.391.144.829 0 1.024-.196.145-.34-.148-.293-.684m-13.008-1.07c0-.586.145-.73.293-.293.144.34.144.828-.051.973-.144.195-.293-.094-.242-.68m-16.027-1.316c-.196-.39-.102-.489.242-.242.34.195.633.484.633.582 0 .441-.489.246-.875-.34m15.441-.438c0-.39.148-.535.344-.343.191.148.191.488 0 .683-.196.196-.344.05-.344-.34m-19.051-.632c-.242-.344-.144-.442.196-.196.636.34.828.828.39.828-.144 0-.39-.293-.586-.632m2.586-.489c-.246-.39-.148-.488.242-.242.586.387.782.828.34.828-.097 0-.39-.293-.582-.586m-4.433-1.902c-.637-.824-.637-.824.195-.191.875.68 1.117 1.117.726 1.117-.144 0-.535-.387-.921-.926m2.582-.484c-.633-.829-.633-.88.195-.247.875.684 1.168 1.121.73 1.121-.097 0-.539-.39-.925-.874m17.097.097c-.535-1.316-.386-1.656.246-.586.293.489.438 1.024.293 1.168-.148.149-.39-.144-.539-.582m13.203-.246c0-.387.149-.535.344-.34s.195.489 0 .684-.344.047-.344-.344m-.535-1.558c0-.387.149-.536.34-.34a.473.473 0 0 1 0 .683c-.191.195-.34.047-.34-.343m-33.617-2.727-2.582-2.777 2.731 2.629c2.531 2.386 2.968 2.875 2.582 2.875-.098 0-1.317-1.266-2.731-2.727m18.758.098c-.195-.344-.242-.684-.098-.829.149-.148.391.098.535.536.391.925.102 1.12-.437.293m-24.02-1.61c-.191-.39-.097-.488.246-.242.34.195.633.484.633.586 0 .437-.488.242-.879-.344m22.95-.535c-.247-.39-.149-.488.242-.242.34.195.586.484.586.582 0 .437-.438.246-.828-.34m-25.286-1.363c-.636-.828-.636-.828.196-.196.875.684 1.168 1.121.73 1.121-.148 0-.539-.437-.926-.925m2.872-.781-.973-1.169 1.168.973c.637.586 1.172 1.074 1.172 1.172 0 .438-.442.145-1.367-.977m21.39.585c-.242-.39-.148-.488.195-.242.633.387.829.825.387.825-.144 0-.387-.243-.582-.583m-26.066-1.07c-.242-.344-.145-.441.246-.195.289.195.582.437.582.582 0 .441-.438.246-.828-.387m24.75-.832c-.684-.828-.633-.828.195-.195.828.683 1.121 1.12.684 1.12-.098 0-.489-.386-.879-.925m-26.309-.195c-.242-.387-.144-.438.242-.242.293.195.586.488.586.632 0 .442-.488.196-.828-.39m4.141 0c-.196-.387-.145-.438.246-.242.34.195.582.488.582.632 0 .442-.438.196-.828-.39m-2.047-1.559c-.242-.386-.145-.484.195-.242.344.195.633.488.633.633 0 .39-.484.195-.828-.39m19.539-3.457-3.363-3.508 3.507 3.364c1.95 1.847 3.559 3.457 3.559 3.554 0 .34-.535-.148-3.703-3.41m17.441 1.899c-.246-.391-.144-.485.243-.243.293.196.585.489.585.586 0 .438-.437.242-.828-.343m-44.824-.536c-.242-.39-.144-.437.246-.242.34.242.582.488.582.633 0 .438-.437.195-.828-.39m4.192-.195c-.977-.777-.977-.777.144-.242.684.293 1.172.683 1.172.777 0 .442-.246.293-1.316-.535m-2.582-1.559c-.977-.78-.977-.78.144-.242.633.293 1.172.68 1.172.778 0 .437-.293.293-1.317-.536m40.339-1.656c-.683-.828-.632-.879.196-.195.875.684 1.121 1.07.679 1.07-.093 0-.484-.386-.875-.875m-43.996-.437c-.972-.782-.972-.782.149-.246.632.293 1.168.683 1.168.828 0 .39-.242.246-1.317-.582m24.461-1.95-.976-1.171 1.168 1.027c1.074.922 1.414 1.363.976 1.363-.097 0-.633-.535-1.168-1.218m-28.113-.144c-.973-.781-.973-.781.144-.246.633.34 1.172.683 1.172.828 0 .39-.246.293-1.316-.582m26.016-1.367c-.196-.34-.145-.438.246-.196.339.196.582.442.582.587 0 .437-.438.242-.828-.391m-34.641-1.313c-.68-.832-.633-.879.195-.195.88.68 1.121 1.07.684 1.07-.098 0-.489-.39-.88-.875m4.433.29c-.242-.391-.144-.438.247-.243.289.195.582.489.582.633 0 .438-.438.195-.829-.39m28.649 0c-.242-.391-.145-.438.242-.243.344.195.586.489.586.633 0 .438-.437.195-.828-.39M84.377 64.17c-.242-.387-.145-.484.246-.242.29.195.582.488.582.586 0 .437-.488.242-.828-.344m24.019-2.094c-2.289-1.12-3.605-1.898-2.875-1.707 1.563.442 7.309 3.266 7.309 3.606 0 .343.391.488-4.434-1.899m22.606 1.266c-.68-.828-.633-.875.195-.242.879.683 1.121 1.12.684 1.12-.098 0-.488-.39-.879-.878m-48.965-1.07-1.266-1.415 1.415 1.266c1.363 1.172 1.706 1.61 1.265 1.61-.097 0-.73-.684-1.414-1.462m-2.871.34c-.246-.387-.149-.489.242-.243.293.196.586.489.586.586 0 .438-.441.242-.828-.344m49.5-1.07c-.246-.392-.148-.438.242-.247.293.246.586.488.586.637 0 .437-.441.191-.828-.39m-25.578-1.806a.47.47 0 0 1 .68 0c.195.149.05.344-.34.344-.391 0-.535-.195-.34-.344m-20.219-.73c.145-.29.438-.484.582-.484.149 0 .098.195-.047.484-.195.293-.488.535-.586.535-.144 0-.144-.242.051-.535m18.656.195c.196-.195.489-.195.684 0s.051.34-.34.34-.535-.145-.344-.34m-1.847-.535c.386-.145.828-.145 1.019.05.149.145-.144.29-.679.243-.633 0-.73-.148-.34-.293m24.308-.242c-.242-.39-.144-.488.196-.246.339.195.632.488.632.633 0 .39-.488.195-.828-.387m-26.355-.293c.34-.148.828-.098.973.047.195.195-.145.293-.68.293-.586-.047-.73-.145-.293-.34m-2.098-.488c.39-.145.828-.145.977 0 .195.195-.098.34-.684.293-.582 0-.73-.149-.293-.293m-10.91-.875c.242-.246 1.703-.344 3.262-.246l2.777.148-3.215.293c-1.8.145-3.07.047-2.824-.195m7.5.34c.488-.145 1.219-.145 1.559 0 .343.144-.047.242-.922.242-.88 0-1.172-.098-.637-.242M78.68 54.328c.195-.293.437-.535.586-.535.144 0 .144.242-.051.535-.196.293-.438.535-.582.535-.149 0-.102-.242.047-.535m33.812-1.363a.47.47 0 0 1 .68 0c.195.144.051.34-.34.34s-.535-.196-.34-.34m-1.558-.54c.144-.19.488-.19.679 0 .196.196.051.345-.34.345-.39 0-.535-.149-.339-.344m-29.625-.679c.148-.293.441-.535.585-.535.145 0 .098.242-.097.535-.145.242-.438.488-.582.488-.098 0-.098-.246.094-.488m28.015.145a.53.53 0 0 1 .731 0c.195.195 0 .343-.34.343-.391 0-.535-.148-.391-.343m-6.234-1.559a.47.47 0 0 1 .68 0c.195.195.05.34-.34.34-.391 0-.535-.145-.34-.34m-17.2-.535c.196-.195.536-.195.684 0 .192.195.047.34-.343.34-.391 0-.536-.145-.34-.34m14.325 0c.39-.145.828-.145 1.023.05.145.192-.148.29-.683.29-.633-.047-.73-.145-.34-.34m-11.254-.535c.535-.098 1.363-.098 1.852 0 .484.144.093.242-.926.242-.977 0-1.414-.098-.926-.242m6.039 0c.633-.098 1.559-.098 2.047 0 .535.144 0 .242-1.168.242-1.121 0-1.559-.098-.879-.242"/><path fill="#fcd900" d="m127.547 129.797-1.168-.586 1.848-2.484c.976-1.364 2.144-3.461 2.582-4.727.781-2.094.73-2.34-.438-4.871-.68-1.414-2.34-5.992-3.703-10.184-6.137-18.61-13.348-26.648-34.687-38.586-3.801-2.144-7.797-4.675-8.915-5.601l-2.047-1.754 2.094-2.098 2.145-2.14 4.531.34c8.328.632 19.684 4.578 26.453 9.257 3.703 2.531 9.988 8.672 12.473 12.18 2.875 4.14 5.601 9.988 6.82 14.86 1.461 5.75 1.363 18.124-.144 23.191-1.559 5.164-2.973 8.769-4.582 11.449-1.461 2.531-1.508 2.582-3.262 1.754"/><path fill="#247040" d="M169.797 136.25c-.633.293-1.121-.437-.879-.977.246-.73.926-.046 1.414-.144.731.051 1.609-.098 2.242.437.582.536-.488 1.075-1.023.977-.586-.051-1.168-.246-1.754-.293m2.777-.684c-.73-.488-2.535-.195-3.265-.679-.489-.442.293-1.317.39-1.805.293-.68.391-1.461.242-2.191-.242-1.61-1.07-3.02-1.753-4.485-1.704-3.652-3.653-7.16-5.262-10.91 1.023-.391 2 .289 2.972.582.782.195 1.024 1.074 1.219 1.754.145.731.293 1.414.68 2.047 1.465 3.266 3.168 6.434 4.629 9.695.586 1.656.926 3.41.879 5.117.39 1.317-.34 1.122-.731.875m-23.289-13.789c-1.512-.386-3.168-.535-4.433-1.507 2.824-.438 5.359-2.047 7.211-4.192 1.023-1.461 1.753-3.215 3.261-4.238.781-.582 1.707-1.024 2.684-1.07.633 0 1.019.535 1.558.828.926.679 1.122 1.996 2.094 2.629.535 1.121.098 2.437-.488 3.461-.68 1.167-1.656 2.386-2.777 3.117-2.532 1.511-5.7 1.461-8.524 1.074-.195-.051-.391-.051-.586-.102m24.848-2.968c-2.828-1.903-6.238-2.582-9.453-3.606-1.024-.293-1.996-.73-2.825-1.461-1.218-1.023-2.093-2.679-1.753-4.34.242-.972 1.218-1.847 2.242-1.507.535.046 1.07.679 1.265.046.196-.484.34-1.168 1.024-1.168 2.531-.242 5.066.829 6.82 2.629a8.4 8.4 0 0 1 2.485 4.922c.339 1.563.488 3.121.585 4.68-.097.191-.343-.051-.39-.195m-25.094-1.754c-2.726-.828-5.699-1.414-8.574-.977-.242.828-1.559-.047-.582-.387 1.219-1.66 3.066-2.73 4.918-3.461 1.66 0 3.121.782 4.679 1.071.731.441 1.899.344 2.727.637.731.339-.484 1.507-.73 1.949-.438.535-.829.972-1.508 1.215-.293.097-.633.148-.93-.047m28.992-.586c-1.218-.293-2.582-.535-3.363-1.61-.293-.484-.438-1.117-.438-1.703 0-.777.926 0 1.024-.051-.441-.535-.977-.921-1.465-1.41-.535-1.023-1.168-2.144-2.191-2.73-.485-.535 0-1.266.632-1.363.586-.196 1.172.05 1.754.144 3.266.586 5.899 2.926 9.161 3.606.535-.34 1.171.195 1.218.734.149.582-.144 1.117-.633 1.461-.585.633-1.074 1.363-1.804 1.898-1.117.828-2.531 1.317-3.895 1.024m16.172-.684c-2.238-1.754-5.164-2.387-7.937-2.433-.489-.098-1.172.195-1.368-.391-.195-.633.344-1.266.051-1.852-.39-.39-1.023-.195-1.558-.293-.442.098-.684-.535-.149-.386.293.093 1.024 0 .438-.293-.485-.391.539-.246.781-.489 1.266-.437 2.484-1.074 3.848-1.414 1.558.098 2.828 1.219 4.046 2.145 1.508 1.461 2.583 3.652 2.239 5.797-.196 0-.196-.34-.391-.391m-14.469-6.43c-.679-.535-1.656-.488-2.289-1.167-.586-.586 1.024-.247.731-.633-.875.386-.875.386-1.703-.293-.633-.977.34-1.512.679-1.852 1.168-1.07 2.68-1.609 4.094-2.094 3.41-.976 7.063-1.464 10.57-.781 1.414.293 2.778.781 3.997 1.461-.68.781-1.801.438-2.68.731-.488.246-1.024.586-1.61.828-2.726 1.414-5.359 3.312-8.476 3.949-1.07.242-2.238.242-3.313-.149"/><path fill="#d1242b" d="M141.297 109.551c-1.805-1.899-2.973-4.289-3.899-6.676-1.367-3.992-1.609-8.281-1.316-12.473.488-4.87 1.996-9.597 3.898-14.078 1.95-4.336 3.848-8.672 5.942-12.914 1.316-2.676 2.633-5.308 4.387-7.695 1.851-2.387 4.675-4.192 7.793-4.043 2.144 0 4.093 1.07 5.894 2.144 2.875 1.606 5.652 3.36 8.527 5.067 6.918 5.015 12.766 11.398 18.079 18.023 1.656 2.196 2.921 4.727 3.261 7.504.535 3.508.489 7.113-.242 10.621-.535 2.047-1.609 3.899-2.535 5.75-.777 1.266-2.238.684-3.457.731-3.363.195-6.774 1.023-9.695 2.777-.879.731-1.317 1.805-2 2.68-1.266.926-2.969-.34-4.239.586-1.07.582-2.336-.098-3.261-.633-1.661-.734-3.704-.734-5.215.289-1.024.391-2.289.535-3.02 1.512.196 1.121-1.074 2.191-2.144 1.707-.977-.293-2.047.34-2.875.875-.926.535-1.61 1.605-2.68 1.949-3.555-.293-8.816-2.047-11.203-3.703"/><path d="M169.453 136.738c-1.265.047-2.094-1.804-.777-2.39 1.265-1.364.972-3.41.437-5.016-.828-2.633-2.386-4.871-3.605-7.309-.926-1.804-1.899-3.656-2.629-5.503-1.27.195-.926 1.8-1.707 2.484-1.899 2.434-5.02 3.652-8.086 3.75-3.117.098-6.238-.535-8.965-2.047.145-1.121 1.461-.828 2.242-1.121.778-.68 2.141-.633 2.727-1.606-.391-.878-1.559-.73-2.34-.925-1.559-.246-3.117-.731-4.727-.633a5.14 5.14 0 0 0-3.308 1.215c-1.027-.145.289-1.313.531-1.801 1.219-1.559 2.731-3.07 4.633-3.75-.734-1.316-2.535-1.512-3.316-2.777-3.262-3.364-4.821-7.993-5.309-12.57-.828-7.458 1.168-14.958 4.336-21.684 2.629-5.457 5.359-10.91 7.988-16.368 1.461-2.68 3.121-5.507 5.945-6.917 2.68-1.317 6.09-1.22 8.672.386 3.461 1.754 6.723 3.703 10.035 5.653 7.653 5.117 13.887 12.035 19.293 19.441 1.856 2.824 2.829 6.188 3.317 9.547.582 4.777-.293 9.793-2.875 13.887-.828 1.363 1.168 1.754 2.144 1.996.875.343 2.969.781 2.289 2.047-1.023.632-2.339.246-3.363.828-1.316.539-2.484 1.316-3.703 1.949.246 1.121 1.559 1.023 2.34 1.609 1.656 1.508 3.215 3.41 3.508 5.7.39.828-.047 2.437-1.168 1.851-.489-.879-1.465-1.266-2.34-1.559-2.289-.925-4.774-1.023-7.16-1.414-1.317 1.364-2.633 2.973-4.629 3.215-1.61.344-3.461 0-4.727-1.121-1.07.637-.195 1.903-.148 2.778.195.683-.485 1.753-1.024.781-1.214-1.121-2.871-1.461-4.336-2.094-.73-.148-1.605-.828-2.238-.195-.293 1.023.485 1.898.731 2.777 1.8 4.383 4.578 8.379 5.406 13.055.195 1.023.586 2.144.148 3.121-.586 1.07-2 1.121-3.07.972-.391-.046-.781-.144-1.172-.242m.293-.39c-1.219.488-1.117-2.047.098-1.121.926.097 2.535-.196 2.972.73-.488 1.219-2.144.438-3.07.391m2.34-1.219c-.781-.535-2.484.391-2.68-.875.145-.879.684-1.707.586-2.633-.051-1.558-.683-3.019-1.269-4.433-1.754-3.946-4.09-7.602-5.797-11.594 1.172-.391 2.289.437 3.41.777.977 1.024.73 2.582 1.512 3.703 1.703 3.946 4.093 7.602 5.215 11.84.191 1.07.242 2.191.242 3.313-.438 0-.828.046-1.219-.098m-22.801-13.25c-1.414-.391-3.019-.391-4.14-1.414 1.703-.535 3.457-1.074 4.824-2.34 2.191-1.801 3.457-4.531 5.648-6.332.731-.586 1.61-1.023 2.535-1.121.731 1.168-1.461 1.266-1.656 2.289-1.121 1.461-1.707 3.215-2.73 4.727 1.609-1.168 1.902-3.364 3.363-4.727.633-.633 1.414-1.609 2.437-1.219 1.024.731 1.411 2 2.192 2.926.535 1.168-.242 2.387-.781 3.41-1.215 2.094-3.508 3.555-5.942 3.848-1.902.293-3.851.242-5.75-.047m24.848-2.973c-3.215-2.242-7.211-2.73-10.77-4.14-1.754-.782-3.457-2.387-3.312-4.438 0-1.117.73-2.387 1.902-2.484 1.317.148 1.656 1.707 2.531 2.437 1.852 1.657 4.336 2.34 6.336 3.801.731.34-.586-.781-.828-.879-1.558-1.019-3.414-1.605-4.824-2.824a6.1 6.1 0 0 1-1.805-2.047c.539-.488.293-1.605 1.414-1.461 1.95-.242 3.899.535 5.504 1.609 1.66 1.118 2.926 2.872 3.414 4.872.485 1.656.535 3.41.926 5.117.047.289-.148.679-.488.437m-25.094-1.851c-2.726-.828-5.648-1.317-8.523-.879-.246.976-1.754-.242-.633-.485 1.363-1.511 3.117-2.679 5.015-3.461 1.903.489 3.801 1.219 5.75 1.364-.144 1.074-1.703.246-2.484.488-1.219 0-2.437 0-3.652.098 2.14.39 4.383.195 6.578.097.68-.879 1.801.731.633.973-.539.926-1.368 2.484-2.684 1.805m28.992-.489c-1.269-.293-2.828-.586-3.508-1.851-.195-.582-.781-2.387.438-1.656 1.996 1.265 4.629 1.265 6.82.339-1.363 0-2.633.586-3.945.344-1.512-.195-3.117-.781-4.047-2.047-.535-1.023-1.168-2.047-2.191-2.679-.778-1.172 1.074-1.657 1.902-1.27 3.508.442 6.234 3.024 9.645 3.703 1.074-.535 1.609 1.172.976 1.852-.683.488-1.121 1.316-1.754 1.851-1.172 1.024-2.777 1.754-4.336 1.414m16.172-.679c-2.484-2-5.797-2.535-8.914-2.438-1.168-.437.633-2.386-.879-2.484-.437-.098-1.801.098-1.461-.442 2.68 0 5.313.344 7.848 1.172-1.856-1.461-4.336-1.461-6.531-1.367-.633.293-1.219-.437-.293-.437 1.465-.438 2.828-1.168 4.336-1.559 1.558.098 2.828 1.219 3.996 2.145 1.558 1.461 2.633 3.605 2.289 5.796-.196 0-.196-.339-.391-.386m-42.582-2.782c-3.75-.535-7.598-1.507-10.715-3.75-1.074-1.218-1.66-2.726-2.582-4.042-2.293-4.336-2.437-9.403-2.293-14.18.391-6.672 2.973-13.008 5.797-19 2.488-5.457 4.777-10.961 8.09-15.93 1.805-2.828 5.117-4.777 8.527-4.531 2.243.195 4.239 1.363 6.137 2.434 2.875 1.804 5.801 3.413 8.574 5.312 5.797 4.289 10.77 9.55 15.446 15.004 2.339 2.777 4.582 5.898 5.164 9.601.683 3.602.535 7.356-.196 10.961-.632 2.336-1.851 4.48-3.019 6.579-4.434-.344-9.063.484-12.813 2.871-.925.781-1.172 2.046-2.191 2.73-1.27.535-2.777-.488-3.949.391-1.071.633-2.239-.149-3.215-.633-1.61-.734-3.653-.781-5.164.289-1.024.441-2.289.441-2.973 1.414 0 1.219-1.168 2.438-2.34 1.703-1.558-.094-2.871.93-3.992 1.949-.586.489-1.414 1.317-2.293.828m-6.769-2.824c-1.414.293-.829-2.726.195-1.414.293.344.926 2.098-.195 1.414m7.941-.242c-1.023-.246-1.07-2.242.098-2.195 1.168.097 1.461 2.437.097 2.293a.37.37 0 0 1-.195-.098m.047-.148c-1.461-.196 0-2.825.73-1.317.344.489.149 1.903-.73 1.317m-8.281-.098c-1.414-.484 1.168-1.801.781-.242-.051.39-.586.683-.781.242m35.175-.34c-.73-.535-2.339-.633-2.433-1.512 1.363-.339 2.773 0 4.14-.386 2.485-.586 4.825-1.805 7.356-2.293.683-.289-1.121-.047-1.414.051-3.02.535-5.746 2.144-8.867 2.191-.828.391-2.825 0-2.094-1.219 1.023-1.461 2.777-2.14 4.387-2.726 3.117-.973 6.379-1.461 9.597-1.121 1.899.195 3.75.73 5.407 1.656-.829.976-2.34.195-3.215 1.023-3.461 1.559-6.528 4.192-10.426 4.629-.828.047-1.656 0-2.438-.293m-35.711-3.801c-.339-.925-1.511-2.242-.437-3.066 1.07-.293 1.898 1.215 1.41 2.043.195-.777-.68-2.336-1.508-1.461-.539 1.172.731 1.996 1.266 2.824-.242.051-.535-.094-.731-.34m12.766-3.261c-1.023-.391-.535-2.68.633-1.95.875.438.73 2.629-.438 2.145l-.097-.102zm.34.144c-1.219-.051-.586-2.68.437-1.656.442.488.536 1.801-.437 1.656m7.891-1.07c.683-1.367-1.75-.828-1.313-.539-.051-1.266 2.289-.633 1.461.488 0 .098-.148.344-.148.051m8.918-.246c-1.266-.391-.149-2.922.875-1.703.39.289.343 1.558.292 1.461.633-.926-1.507-2.094-1.507-.731-.149.145.972 1.41.34.973m7.89-1.559c.246-.34 1.61-1.023.781-.097-.242.148-.535.195-.781.097m-33.515-.875c.726-.926-1.661-1.512-1.219-.344-1.121-1.218 2.094-1.363 1.265.098 0 .05.047.586-.046.246m33.613-.05c-.875-.778-1.071-2.485 0-3.169 1.219.051 1.512 1.657 1.023 2.536-.191.39-.582.828-1.023.632m-.34-.684c-.973-.778.488-2.871 1.266-1.508.441.68-.047 2.34-1.071 1.8a1 1 0 0 1-.195-.292m7.309-2.094c-1.168-.73.925-2.824 1.218-1.219-.148.633-.535-.972-1.074-.242-.34.438-.293 1.266-.144 1.461m-37.907-2.047c-.73-.828 1.317.246.293.196-.097 0-.191-.098-.293-.196m-10.472-.293c-.438-.973 1.949-.973 1.023-2.094-.148-.828-1.559-.68-1.461.149-.637-.926 1.168-1.461 1.508-.488.828.925-.68 1.851-.438 2.484.438.633-.488.098-.632-.05m10.472-.582c-.875-.586-.582-2.535.633-2.437.93.343.93 1.707.391 2.386-.196.293-.778.489-1.024.051m0-.195c-.828-.535-.144-2.047.782-1.852.781.438.488 2.29-.489 2.094-.097-.047-.191-.144-.293-.242m20.028-.098c-1.317-.437 0-2.824.972-1.707.731.637.047 2.73-.972 1.707m.097-.144c-1.465-.633 1.168-2.34 1.024-.633.144.535-.684 1.508-1.024.633m-9.941-.54c-.582-.828-1.703-2.386-.535-3.117.972-.242 1.414 1.364 1.265 1.754.344-1.12-1.851-1.949-1.507-.437 0 .683 1.214 1.511.972 1.8zm23.34-1.753c.289-.243.926-1.754.875-.633-.145.344-.489.633-.875.633m-.489-1.168c-1.023-.633-1.707-2.145-1.023-3.266.973-.633 1.996.586 2.047 1.465.098.582-.149.824-.149.094 0-1.266-2.14-1.703-1.949-.145.098.926.879 1.754 1.852 1.754-.196.195-.582.34-.778.098m6.09-4.434c.047-.39 1.266-1.07.731-.242-.149.195-.489.387-.731.242m-46.625-.39c-.976-.582.875-2.044 1.168-1.024-.683-.875-1.316.39-1.168 1.023m24.067-.145c-1.024-.34-.633-2.34.488-2.094 1.023.34 1.07 2.485-.195 2.29l-.149-.052zm.195 0c-1.461-.246.098-2.777.73-1.266.293.485.098 1.946-.73 1.266m21.875-.684c-.777-.68-.828-2.433.34-2.628 1.219.292 1.465 2.386.293 2.875a.64.64 0 0 1-.633-.247m.145-.046c-1.266-.442-.192-3.024.878-1.754.438.632.243 2.289-.878 1.754m-38.829-1.415c.293-1.265-1.605-.292-1.461-.097-.144-1.364 2.387-.875 1.657.39-.149.145-.196-.195-.196-.293m25.141.196c-.098-.586 1.023-1.512.484-.39-.144.144-.289.292-.484.39m-1.074-1.266c-1.07-.39-1.266-2.777.195-2.484 1.074.289 1.656 2.14.535 2.726-.289.098-.582-.047-.73-.242m.051-.246c-1.414-.242-.293-2.871.781-1.605.633.535.34 2.582-.781 1.605m-16.664-.242c-.536-.781-1.219-2.094-.293-2.922.683-.344 1.511 1.508.586.438-1.266-.145-1.168 1.609-.196 2.046.246.196.684.973 0 .535zm-12.762-3.363c-.293-.973 1.312.78.094.05-.047 0-.047-.05-.094-.05m.191-.73c-.828-.731-.972-2.337.051-2.97 1.168-.05 1.559 1.508 1.121 2.383-.195.442-.683 1.024-1.172.586m.196.05c-.829-.535-1.024-2.242.097-2.484.977.097 1.074 1.46.586 2.144a.87.87 0 0 1-.683.34m36.054-1.852c.242-.293.926-1.804.973-.73-.145.387-.484.777-.973.73m-.976-1.558c-.778-.73-1.168-2.243-.196-2.973 1.075-.195 1.754 1.023 1.805 1.996.242.828-1.023 2.098-1.609.977m.148-.051c-1.121-.488-.828-3.117.633-2.242.879.488.973 2.683-.34 2.488l-.148-.098zm-11.887-2.68c-1.218-.34-.832-2.972.536-2.047.679.489.73 2.485-.536 2.047m-18.711-.242c-.875-.586-.339-2.582.879-2.145.828.587.438 2.68-.781 2.243-.047 0-.098-.051-.098-.098m18.711.047c-1.511-.293.192-2.871.778-1.219.246.489 0 1.805-.778 1.219m-18.613-.047c-1.219-.586.535-2.824.977-1.316.144.586-.246 1.656-.977 1.316m11.012-.535c-1.317-.442-.195-3.07.777-1.805.344.633.051.489-.242.098-1.512-.34-1.07 2.387.34 1.754.441.242-1.024.437-.875-.047m7.355-6.285c1.121-.782-1.07-2.828-1.218-1.317.097.34.488 1.364-.196.684-.73-.977 1.024-2.293 1.512-1.023.242.484.535 1.312-.098 1.656m-13.738-1.805c-1.172-.34-.535-2.777.633-1.95.926.49.633 2.927-.633 1.95m.242.148c-1.363-.195-.195-2.874.637-1.464.289.539.289 1.804-.637 1.465m5.899-4.144c-1.27-.387-.391-2.922.73-1.945.242.34.633 1.46.242.484-.828-.828-1.996.586-.972 1.219.144.097.339.586 0 .242"/><path fill="#ffc13f" d="M152.84 109.793c-1.508-.34.539-2.582.781-.875.195.484-.195 1.605-.781.875m-8.621-.289c-.535-1.27 1.949-.051.679.387-.242-.047-.484-.196-.679-.387m-.246-4.727c-1.168-.148-.438-2.484.539-1.656.535.438.484 2.238-.539 1.656m13.011-2.437c-1.511-.242.438-2.68.778-1.024.195.489-.098 1.754-.778 1.024m7.161-.242c-1.461-.535 1.07-2.387.781-.633 0 .387-.391 1.07-.781.633m-24.946-.684c-1.121-.633 1.168-1.61.684-.34.047.391-.586.926-.684.34m34.836-.293c-1.414-.586.973-2.484.973-.73.148.488-.485 1.511-.973.73m-26.601-2.043c-1.317-.293.73-2.144.73-.734.34.441-.437 1.61-.73.734m34.3-.781c-.636-.586-.343-2.242.633-2.094 1.024.387.582 2.531-.586 2.094zm7.305-2.387c-1.215-.879 1.609-1.851.879-.39-.098.34-.586.878-.879.39m-48.184-2.875c-1.316-.144-.339-2.824.536-1.512.246.536.148 1.461-.536 1.512m10.133-.144c-.925-.54.196-2.391.977-1.61.488.582-.051 2.29-.977 1.61m20.172-.344c-1.461-.684 1.266-2.145.926-.438.098.489-.731 1.317-.926.438m-10.328-1.512c-1.512-.289.488-2.726.777-1.02.196.485-.093 1.754-.777 1.02m22.848-2.387c-1.024-.488-.731-3.02.636-2.093.829.535.875 2.484-.39 2.289l-.098-.047zm-39.852-3.945c-1.168-.68 1.168-2.191.926-.586.047.442-.586 1.219-.926.586m23.871-.68c-1.461-.343.637-2.535.828-.93.293.489-.242 1.805-.828.93m22.317-.441c-.828-.293-.926-1.996.047-2.144.976.097 1.074 2.144-.047 2.144m-40-.73c-1.317-.73 1.265-2.145.879-.583.046.438-.586 1.215-.879.583m25.187-2.047c-.973-.145-.926-1.801 0-1.95.926.098 1.363 1.903.344 2.098a.45.45 0 0 1-.344-.148m-16.953-1.266c-1.461-.437.777-2.437.875-.828.195.488-.387 1.61-.875.828m-12.473-3.457c-1.168-.586.098-2.973.973-1.66.391.633 0 2.242-.973 1.66m35.469-3.168c-1.121-.488-.586-3.07.68-2.047.832.535.832 2.535-.438 2.242l-.097-.097zm-30.449-2.926c-1.317-.535.73-2.726.926-1.07.047.488-.293 1.363-.926 1.07m18.465-.047c-1.465-.488.926-2.386.926-.78.195.487-.442 1.558-.926.78m-7.114-.293c-1.511-.097-.148-2.921.485-1.218.195.437.148 1.218-.485 1.218m6.137-6.867c-1.461-.734 1.219-2.195 1.024-.539.195.633-.782 1.414-1.024.54m-12.812-1.465c-1.512-.34.679-2.53.828-.875.144.438-.34 1.703-.828.875m6.187-4.043c-1.512-.437.778-2.484.875-.828.149.438-.387 1.61-.875.828"/><path fill="#247040" d="M225.594 136.25c-.633.293-1.121-.437-.879-.977.246-.73.926-.046 1.414-.144.73.051 1.609-.098 2.242.437.582.536-.488 1.075-1.023.977-.586-.051-1.168-.246-1.754-.293m2.777-.684c-.73-.488-2.535-.195-3.266-.679-.488-.442.293-1.317.391-1.805.293-.68.391-1.461.242-2.191-.242-1.61-1.07-3.02-1.754-4.485-1.703-3.652-3.652-7.16-5.261-10.91 1.023-.391 2 .289 2.972.582.782.195 1.024 1.074 1.219 1.754.145.731.289 1.414.68 2.047 1.465 3.266 3.168 6.434 4.629 9.695.586 1.656.925 3.41.879 5.117.39 1.317-.34 1.122-.731.875m-23.289-13.789c-1.512-.386-3.168-.535-4.434-1.507 2.825-.438 5.36-2.047 7.211-4.192 1.024-1.461 1.754-3.215 3.262-4.238.781-.582 1.707-1.024 2.684-1.07.633 0 1.019.535 1.558.828.922.679 1.117 1.996 2.094 2.629.535 1.121.098 2.437-.488 3.461-.684 1.167-1.656 2.386-2.778 3.117-2.531 1.511-5.699 1.461-8.527 1.074-.191-.051-.387-.051-.582-.102m24.848-2.968c-2.828-1.903-6.239-2.582-9.453-3.606-1.024-.293-1.997-.73-2.825-1.461-1.218-1.023-2.093-2.679-1.754-4.34.243-.972 1.219-1.847 2.243-1.507.535.046 1.07.679 1.265.046.196-.484.34-1.168 1.024-1.168 2.531-.242 5.066.829 6.82 2.629a8.4 8.4 0 0 1 2.484 4.922c.34 1.563.489 3.121.586 4.68-.097.191-.343-.051-.39-.195m-25.09-1.754c-2.731-.828-5.703-1.414-8.578-.977-.242.828-1.559-.047-.582-.387 1.215-1.66 3.066-2.73 4.918-3.461 1.66 0 3.121.782 4.679 1.071.731.441 1.899.344 2.727.637.73.339-.484 1.507-.731 1.949-.437.535-.828.972-1.507 1.215-.293.097-.637.148-.926-.047m28.988-.586c-1.219-.293-2.582-.535-3.363-1.61-.293-.484-.438-1.117-.438-1.703 0-.777.926 0 1.024-.051-.442-.535-.977-.921-1.461-1.41-.539-1.023-1.172-2.144-2.195-2.73-.489-.535 0-1.266.632-1.363.586-.196 1.172.05 1.754.144 3.266.586 5.899 2.926 9.16 3.606.536-.34 1.172.195 1.219.734.149.582-.144 1.117-.633 1.461-.586.633-1.074 1.363-1.804 1.898-1.118.828-2.532 1.317-3.895 1.024m16.176-.684c-2.242-1.754-5.164-2.387-7.941-2.433-.489-.098-1.172.195-1.368-.391-.195-.633.34-1.266.051-1.852-.391-.39-1.023-.195-1.558-.293-.442.098-.684-.535-.149-.386.293.093 1.024 0 .438-.293-.485-.391.539-.246.781-.489 1.265-.437 2.484-1.074 3.847-1.414 1.559.098 2.829 1.219 4.043 2.145 1.512 1.461 2.586 3.652 2.243 5.797-.196 0-.196-.34-.387-.391m-14.473-6.43c-.679-.535-1.656-.488-2.289-1.167-.586-.586 1.024-.247.731-.633-.875.386-.875.386-1.703-.293-.637-.977.339-1.512.679-1.852 1.168-1.07 2.68-1.609 4.094-2.094 3.41-.976 7.062-1.464 10.57-.781 1.414.293 2.778.781 3.996 1.461-.679.781-1.8.438-2.679.731-.489.246-1.024.586-1.61.828-2.726 1.414-5.355 3.312-8.476 3.949-1.071.242-2.239.242-3.313-.149"/><path fill="#d1242b" d="M197.09 109.551c-1.801-1.899-2.969-4.289-3.895-6.676-1.367-3.992-1.609-8.281-1.316-12.473.488-4.87 1.996-9.597 3.898-14.078 1.95-4.336 3.848-8.672 5.942-12.914 1.316-2.676 2.633-5.308 4.386-7.695 1.852-2.387 4.676-4.192 7.793-4.043 2.145 0 4.094 1.07 5.899 2.144 2.875 1.606 5.648 3.36 8.523 5.067 6.918 5.015 12.766 11.398 18.075 18.023 1.66 2.196 2.925 4.727 3.265 7.504.535 3.508.488 7.113-.242 10.621-.535 2.047-1.609 3.899-2.535 5.75-.778 1.266-2.238.684-3.457.731-3.363.195-6.774 1.023-9.696 2.777-.878.731-1.316 1.805-2 2.68-1.265.926-2.968-.34-4.238.586-1.07.582-2.34-.098-3.262-.633-1.66-.734-3.703-.734-5.214.289-1.024.391-2.289.535-3.02 1.512.195 1.121-1.074 2.191-2.144 1.707-.973-.293-2.047.34-2.875.875-.926.535-1.61 1.605-2.68 1.949-3.555-.293-8.817-2.047-11.207-3.703"/><path d="M225.254 136.738c-1.27.047-2.098-1.804-.781-2.39 1.265-1.364.972-3.41.437-5.016-.828-2.633-2.387-4.871-3.605-7.309-.926-1.804-1.899-3.656-2.629-5.503-1.27.195-.926 1.8-1.707 2.484-1.899 2.434-5.02 3.652-8.086 3.75-3.117.098-6.238-.535-8.965-2.047.145-1.121 1.461-.828 2.238-1.121.782-.68 2.145-.633 2.731-1.606-.391-.878-1.559-.73-2.34-.925-1.559-.246-3.117-.731-4.727-.633a5.15 5.15 0 0 0-3.312 1.215c-1.024-.145.293-1.313.539-1.801 1.215-1.559 2.726-3.07 4.625-3.75-.731-1.316-2.531-1.512-3.313-2.777-3.261-3.364-4.824-7.993-5.308-12.57-.828-7.458 1.168-14.958 4.336-21.684 2.629-5.457 5.359-10.91 7.988-16.368 1.465-2.68 3.121-5.507 5.945-6.917 2.68-1.317 6.09-1.22 8.672.386 3.461 1.754 6.723 3.703 10.035 5.653 7.653 5.117 13.887 12.035 19.293 19.441 1.852 2.824 2.828 6.188 3.317 9.547.582 4.777-.293 9.793-2.875 13.887-.828 1.363 1.168 1.754 2.14 1.996.879.343 2.973.781 2.293 2.047-1.023.632-2.34.246-3.363.828-1.316.539-2.484 1.316-3.703 1.949.242 1.121 1.559 1.023 2.34 1.609 1.656 1.508 3.215 3.41 3.508 5.7.39.828-.047 2.437-1.168 1.851-.489-.879-1.465-1.266-2.34-1.559-2.289-.925-4.774-1.023-7.16-1.414-1.317 1.364-2.633 2.973-4.629 3.215-1.61.344-3.461 0-4.727-1.121-1.074.637-.195 1.903-.148 2.778.195.683-.485 1.753-1.024.781-1.215-1.121-2.875-1.461-4.336-2.094-.73-.148-1.605-.828-2.242-.195-.289 1.023.488 1.898.735 2.777 1.8 4.383 4.578 8.379 5.406 13.055.195 1.023.586 2.144.148 3.121-.586 1.07-2 1.121-3.07.972a9 9 0 0 1-1.168-.242m.289-.39c-1.219.488-1.121-2.047.098-1.121.925.097 2.535-.196 2.972.73-.488 1.219-2.144.438-3.07.391m2.34-1.219c-.781-.535-2.485.391-2.68-.875.145-.879.684-1.707.586-2.633-.051-1.558-.684-3.019-1.269-4.433-1.754-3.946-4.09-7.602-5.797-11.594 1.172-.391 2.289.437 3.41.777.976 1.024.73 2.582 1.512 3.703 1.703 3.946 4.093 7.602 5.21 11.84.196 1.07.247 2.191.247 3.313-.442 0-.829.046-1.219-.098m-22.801-13.25c-1.414-.391-3.019-.391-4.141-1.414 1.704-.535 3.457-1.074 4.825-2.34 2.191-1.801 3.457-4.531 5.648-6.332.731-.586 1.609-1.023 2.535-1.121.731 1.168-1.461 1.266-1.656 2.289-1.121 1.461-1.707 3.215-2.73 4.727 1.609-1.168 1.902-3.364 3.363-4.727.633-.633 1.414-1.609 2.437-1.219 1.024.731 1.41 2 2.192 2.926.535 1.168-.242 2.387-.782 3.41-1.214 2.094-3.507 3.555-5.945 3.848-1.898.293-3.848.242-5.746-.047m24.848-2.973c-3.215-2.242-7.211-2.73-10.77-4.14-1.754-.782-3.457-2.387-3.312-4.438 0-1.117.73-2.387 1.902-2.484 1.313.148 1.656 1.707 2.531 2.437 1.852 1.657 4.336 2.34 6.336 3.801.731.34-.586-.781-.828-.879-1.559-1.019-3.41-1.605-4.824-2.824a6.1 6.1 0 0 1-1.805-2.047c.539-.488.293-1.605 1.414-1.461 1.949-.242 3.899.535 5.504 1.609 1.66 1.118 2.926 2.872 3.414 4.872.485 1.656.535 3.41.922 5.117.051.289-.144.679-.484.437m-25.09-1.851c-2.731-.828-5.652-1.317-8.527-.879-.247.976-1.754-.242-.633-.485 1.363-1.511 3.117-2.679 5.015-3.461 1.903.489 3.801 1.219 5.75 1.364-.144 1.074-1.703.246-2.484.488-1.219 0-2.438 0-3.652.098 2.14.39 4.382.195 6.574.097.683-.879 1.805.731.637.973-.54.926-1.368 2.484-2.68 1.805m28.988-.489c-1.269-.293-2.828-.586-3.508-1.851-.195-.582-.781-2.387.438-1.656 1.996 1.265 4.629 1.265 6.82.339-1.363 0-2.633.586-3.945.344-1.512-.195-3.117-.781-4.043-2.047-.539-1.023-1.172-2.047-2.195-2.679-.778-1.172 1.074-1.657 1.902-1.27 3.508.442 6.234 3.024 9.644 3.703 1.075-.535 1.61 1.172.977 1.852-.684.488-1.121 1.316-1.754 1.851-1.172 1.024-2.777 1.754-4.336 1.414m16.176-.679c-2.488-2-5.801-2.535-8.918-2.438-1.168-.437.633-2.386-.875-2.484-.441-.098-1.805.098-1.465-.442 2.68 0 5.313.344 7.844 1.172-1.852-1.461-4.336-1.461-6.527-1.367-.633.293-1.219-.437-.293-.437 1.46-.438 2.828-1.168 4.335-1.559 1.559.098 2.829 1.219 3.997 2.145 1.558 1.461 2.632 3.605 2.289 5.796-.196 0-.196-.339-.387-.386m-42.582-2.782c-3.754-.535-7.602-1.507-10.719-3.75-1.074-1.218-1.656-2.726-2.582-4.042-2.293-4.336-2.437-9.403-2.293-14.18.391-6.672 2.973-13.008 5.801-19 2.484-5.457 4.773-10.961 8.086-15.93 1.805-2.828 5.113-4.777 8.527-4.531 2.238.195 4.238 1.363 6.137 2.434 2.875 1.804 5.801 3.413 8.574 5.312 5.801 4.289 10.77 9.55 15.445 15.004 2.34 2.777 4.582 5.898 5.165 9.601.683 3.602.535 7.356-.196 10.961-.633 2.336-1.851 4.48-3.019 6.579-4.434-.344-9.063.484-12.813 2.871-.926.781-1.172 2.046-2.191 2.73-1.27.535-2.778-.488-3.949.391-1.071.633-2.243-.149-3.215-.633-1.61-.734-3.653-.781-5.164.289-1.024.441-2.289.441-2.973 1.414 0 1.219-1.168 2.438-2.34 1.703-1.558-.094-2.875.93-3.992 1.949-.586.489-1.414 1.317-2.289.828m-6.774-2.824c-1.414.293-.828-2.726.196-1.414.293.344.926 2.098-.196 1.414m7.942-.242c-1.024-.246-1.07-2.242.098-2.195 1.167.097 1.46 2.437.097 2.293a.37.37 0 0 1-.195-.098m.047-.148c-1.461-.196 0-2.825.73-1.317.344.489.149 1.903-.73 1.317m-8.282-.098c-1.414-.484 1.168-1.801.782-.242-.051.39-.586.683-.782.242m35.176-.34c-.73-.535-2.34-.633-2.433-1.512 1.363-.339 2.773 0 4.14-.386 2.485-.586 4.825-1.805 7.356-2.293.683-.289-1.121-.047-1.414.051-3.02.535-5.746 2.144-8.867 2.191-.829.391-2.825 0-2.094-1.219 1.023-1.461 2.777-2.14 4.386-2.726 3.118-.973 6.379-1.461 9.598-1.121 1.899.195 3.75.73 5.406 1.656-.828.976-2.339.195-3.214 1.023-3.461 1.559-6.528 4.192-10.426 4.629-.828.047-1.656 0-2.438-.293m-35.711-3.801c-.34-.925-1.511-2.242-.437-3.066 1.07-.293 1.898 1.215 1.41 2.043.195-.777-.68-2.336-1.508-1.461-.539 1.172.731 1.996 1.266 2.824-.242.051-.535-.094-.731-.34m12.766-3.261c-1.023-.391-.539-2.68.633-1.95.875.438.73 2.629-.442 2.145l-.093-.102zm.34.144c-1.219-.051-.586-2.68.437-1.656.442.488.535 1.801-.437 1.656m7.89-1.07c.684-1.367-1.753-.828-1.312-.539-.051-1.266 2.289-.633 1.461.488 0 .098-.149.344-.149.051m8.918-.246c-1.265-.391-.144-2.922.875-1.703.391.289.344 1.558.293 1.461.633-.926-1.507-2.094-1.507-.731-.149.145.972 1.41.339.973m7.895-1.559c.242-.34 1.605-1.023.777-.097-.242.148-.535.195-.777.097m-33.524-.875c.735-.926-1.656-1.512-1.214-.344-1.121-1.218 2.093-1.363 1.265.098 0 .05.047.586-.051.246m33.618-.05c-.875-.778-1.071-2.485 0-3.169 1.218.051 1.511 1.657 1.023 2.536-.191.39-.582.828-1.023.632m-.34-.684c-.973-.778.488-2.871 1.265-1.508.442.68-.046 2.34-1.07 1.8-.098-.097-.144-.19-.195-.292m7.308-2.094c-1.168-.73.926-2.824 1.219-1.219-.148.633-.539-.972-1.07-.242-.344.438-.293 1.266-.149 1.461m-37.906-2.047c-.73-.828 1.317.246.293.196-.098 0-.195-.098-.293-.196m-10.472-.293c-.442-.973 1.949-.973 1.023-2.094-.148-.828-1.559-.68-1.465.149-.633-.926 1.172-1.461 1.512-.488.828.925-.68 1.851-.438 2.484.438.633-.488.098-.632-.05m10.472-.582c-.875-.586-.582-2.535.637-2.437.926.343.926 1.707.387 2.386-.196.293-.778.489-1.024.051m0-.195c-.824-.535-.144-2.047.781-1.852.782.438.489 2.29-.488 2.094-.098-.047-.195-.144-.293-.242m20.028-.098c-1.317-.437 0-2.824.972-1.707.731.637.051 2.73-.972 1.707m.093-.144c-1.461-.633 1.172-2.34 1.028-.633.144.535-.684 1.508-1.028.633m-9.937-.54c-.582-.828-1.703-2.386-.535-3.117.972-.242 1.414 1.364 1.265 1.754.34-1.12-1.851-1.949-1.508-.437 0 .683 1.215 1.511.973 1.8zm23.34-1.753c.289-.243.921-1.754.875-.633-.149.344-.489.633-.875.633m-.489-1.168c-1.023-.633-1.707-2.145-1.023-3.266.973-.633 1.996.586 2.047 1.465.097.582-.149.824-.149.094 0-1.266-2.14-1.703-1.949-.145.098.926.879 1.754 1.852 1.754-.196.195-.582.34-.778.098m6.09-4.434c.047-.39 1.266-1.07.731-.242-.149.195-.489.387-.731.242m-46.625-.39c-.976-.582.875-2.044 1.168-1.024-.683-.875-1.316.39-1.168 1.023m24.067-.145c-1.024-.34-.633-2.34.488-2.094 1.023.34 1.07 2.485-.195 2.29l-.149-.052zm.195 0c-1.461-.246.098-2.777.73-1.266.293.485.098 1.946-.73 1.266m21.875-.684c-.777-.68-.828-2.433.34-2.628 1.218.292 1.465 2.386.293 2.875a.64.64 0 0 1-.633-.247m.144-.046c-1.265-.442-.195-3.024.879-1.754.438.632.243 2.289-.879 1.754m-38.828-1.415c.293-1.265-1.609-.292-1.461-.097-.148-1.364 2.387-.875 1.657.39-.149.145-.196-.195-.196-.293m25.141.196c-.098-.586 1.023-1.512.484-.39-.144.144-.289.292-.484.39m-1.074-1.266c-1.071-.39-1.266-2.777.195-2.484 1.074.289 1.656 2.14.535 2.726-.289.098-.582-.047-.73-.242m.05-.246c-1.414-.242-.292-2.871.778-1.605.637.535.344 2.582-.778 1.605m-16.664-.242c-.535-.781-1.218-2.094-.293-2.922.684-.344 1.512 1.508.586.438-1.265-.145-1.168 1.609-.195 2.046.242.196.684.973 0 .535zm-12.761-3.363c-.293-.973 1.312.78.093.05-.046 0-.046-.05-.093-.05m.191-.73c-.828-.731-.973-2.337.051-2.97 1.168-.05 1.558 1.508 1.121 2.383-.195.442-.684 1.024-1.172.586m.195.05c-.828-.535-1.023-2.242.098-2.484.977.097 1.074 1.46.586 2.144a.87.87 0 0 1-.684.34m36.055-1.852c.242-.293.926-1.804.973-.73-.145.387-.485.777-.973.73m-.976-1.558c-.778-.73-1.168-2.243-.196-2.973 1.074-.195 1.754 1.023 1.805 1.996.242.828-1.024 2.098-1.609.977m.148-.051c-1.121-.488-.828-3.117.633-2.242.879.488.972 2.683-.34 2.488l-.148-.098zm-11.891-2.68c-1.214-.34-.828-2.972.539-2.047.68.489.731 2.485-.539 2.047m-18.707-.242c-.875-.586-.34-2.582.879-2.145.828.587.438 2.68-.781 2.243-.047 0-.098-.051-.098-.098m18.707.047c-1.507-.293.196-2.871.782-1.219.246.489 0 1.805-.782 1.219m-18.609-.047c-1.219-.586.535-2.824.977-1.316.144.586-.247 1.656-.977 1.316m11.012-.535c-1.317-.442-.196-3.07.781-1.805.34.633.047.489-.246.098-1.512-.34-1.07 2.387.34 1.754.441.242-1.024.437-.875-.047m7.355-6.285c1.121-.782-1.07-2.828-1.219-1.317.098.34.489 1.364-.195.684-.73-.977 1.024-2.293 1.512-1.023.246.484.535 1.312-.098 1.656m-13.738-1.805c-1.168-.34-.535-2.777.633-1.95.925.49.633 2.927-.633 1.95m.242.148c-1.363-.195-.195-2.874.633-1.464.293.539.293 1.804-.633 1.465m5.899-4.144c-1.27-.387-.391-2.922.726-1.945.246.34.637 1.46.246.484-.828-.828-2 .586-.972 1.219.144.097.339.586 0 .242"/><path fill="#ffc13f" d="M208.637 109.793c-1.508-.34.539-2.582.781-.875.195.484-.195 1.605-.781.875m-8.621-.289c-.536-1.27 1.949-.051.679.387-.242-.047-.484-.196-.679-.387m-.246-4.727c-1.168-.148-.438-2.484.539-1.656.535.438.484 2.238-.539 1.656m13.007-2.437c-1.507-.242.442-2.68.782-1.024.195.489-.098 1.754-.782 1.024m7.164-.242c-1.461-.535 1.071-2.387.782-.633 0 .387-.391 1.07-.782.633m-24.945-.684c-1.121-.633 1.168-1.61.684-.34.047.391-.586.926-.684.34m34.836-.293c-1.414-.586.973-2.484.973-.73.148.488-.485 1.511-.973.73m-26.602-2.043c-1.316-.293.731-2.144.731-.734.34.441-.438 1.61-.731.734m34.297-.781c-.632-.586-.339-2.242.637-2.094 1.024.387.582 2.531-.586 2.094zm7.313-2.387c-1.219-.879 1.605-1.851.875-.39-.098.34-.586.878-.875.39m-48.188-2.875c-1.312-.144-.339-2.824.536-1.512.246.536.148 1.461-.536 1.512m10.133-.144c-.926-.54.195-2.391.977-1.61.484.582-.047 2.29-.977 1.61m20.172-.344c-1.461-.684 1.266-2.145.926-.438.097.489-.731 1.317-.926.438m-10.328-1.512c-1.512-.289.488-2.726.777-1.02.196.485-.093 1.754-.777 1.02m22.848-2.387c-1.024-.488-.731-3.02.636-2.093.828.535.875 2.484-.39 2.289l-.098-.047zm-39.852-3.945c-1.172-.68 1.168-2.191.926-.586.047.442-.586 1.219-.926.586m23.871-.68c-1.461-.343.637-2.535.828-.93.293.489-.242 1.805-.828.93m22.317-.441c-.829-.293-.926-1.996.046-2.144.977.097 1.075 2.144-.046 2.144m-40-.73c-1.317-.73 1.265-2.145.875-.583.05.438-.583 1.215-.875.583M231 80.805c-.973-.145-.926-1.801 0-1.95.926.098 1.363 1.903.344 2.098a.45.45 0 0 1-.344-.148m-16.953-1.266c-1.461-.437.777-2.437.875-.828.195.488-.391 1.61-.875.828m-12.473-3.457c-1.172-.586.098-2.973.973-1.66.391.633 0 2.242-.973 1.66m35.469-3.168c-1.121-.488-.586-3.07.68-2.047.832.535.832 2.535-.438 2.242l-.097-.097zm-30.449-2.926c-1.317-.535.73-2.726.926-1.07.046.488-.293 1.363-.926 1.07m18.465-.047c-1.465-.488.925-2.386.925-.78.196.487-.441 1.558-.925.78m-7.114-.293c-1.511-.097-.148-2.921.485-1.218.195.437.148 1.218-.485 1.218m6.137-6.867c-1.461-.734 1.219-2.195 1.023-.539.196.633-.781 1.414-1.023.54m-12.812-1.465c-1.512-.34.679-2.53.828-.875.144.438-.34 1.703-.828.875m6.187-4.043c-1.512-.437.777-2.484.879-.828.144.438-.391 1.61-.879.828"/><path fill="#88d055" d="M315.266 126.258c-.75-.621 1.328-.621.976-1.504 1.371-3.234 2.699-6.559 3.278-10.059 2.168-11.203-.579-23.293-7.532-32.375-6.996-9.566-17.629-16.61-29.363-18.558-10.719-1.86-22.016.664-31.227 6.379-2.304 1.418-4.472 3.011-6.554 4.738 6.465-7.309 15.898-11.559 25.469-12.621 13.996-1.598 28.699 2.965 38.972 12.664 7 6.559 11.828 15.504 12.805 25.07.84 7.707.043 15.813-3.457 22.766a22.3 22.3 0 0 1-2.524 3.855c-.355.133-.578-.222-.843-.355"/><path fill="#b9f88c" d="M315.047 125.992c-.934-.355-2.438-1.105-1.949-2.39 2.965-5.938 4.207-12.668 4.074-19.313-.18-6.246-1.641-12.625-5.141-17.895-4.07-6.242-10.23-10.984-17.093-13.773-9.833-4.254-21.04-5.668-31.493-3.055-6.511 1.637-12.8 4.782-17.273 9.918-.797.844-1.418 1.817-1.949 2.88-.399 1.242-1.727 1.284-2.657.488-1.375-.575-.843-2.125-.089-3.012 1.949-3.809 5.183-6.863 8.902-9.035 6.199-3.942 13.289-6.688 20.641-7.399 7.574-.84 15.371.399 22.277 3.633 12.094 5.492 21.836 16.3 25.512 29.145 2.613 9.39 1.55 19.621-2.524 28.433-.222.578-.488 1.375-1.238 1.375"/><path d="M314.113 128.297c-5.093-1.684-9.343-5.051-14.172-7.266-20.019-10.851-39.375-22.765-58.375-35.21-1.64-1.153-3.41-2.747-3.41-4.872.133-2.613 1.949-4.695 3.453-6.691 5.891-7.172 14.442-11.781 23.43-13.817 8.328-1.859 17.055-.976 25.246 1.153 9.481 2.566 18.473 7.75 24.762 15.367 7.75 9.48 11.336 22.191 9.699 34.324-.578 4.828-1.906 9.703-4.519 13.82-1.196 1.727-3.012 3.411-5.27 3.368-.266-.043-.574-.09-.844-.176m1.285-1.949c-.882-.664-2.523-.977-2.48-2.348.223-.844.797-1.598 1.062-2.437 4.079-9.743 4.297-21.172.223-30.961-2.433-5.625-6.687-10.364-11.738-13.774-8.192-5.625-18.203-8.281-28.078-8.371-7.973-.09-16.168 1.684-22.856 6.156-3.32 2.258-6.156 5.317-7.883 8.946-1.195.047-2.57-.528-2.968-1.727-.09-1.105.797-1.95 1.242-2.922 4.293-7.086 11.516-12.09 19.351-14.66 15.86-5.184 34.286-1.418 46.864 9.566 6.066 5.317 10.629 12.356 12.801 20.11 1.46 5.312 1.726 10.894 1.238 16.387-.531 4.871-1.86 9.746-4.43 13.996-.707.664-.797 2.125-1.949 2.214-.176.043-.266-.132-.399-.175m-4.781-2.793c-17.363-8.903-33.929-19.223-50.847-28.832-5.493-3.278-10.895-6.778-15.813-10.809 2.879-5.668 8.328-9.7 14.219-11.871 9.652-3.496 20.418-3.41 30.293-.75 7.754 2.082 15.191 5.98 20.465 12.09 3.32 3.898 5.226 8.77 6.156 13.773 1.461 7.442 1.418 15.414-1.285 22.59-.442 1.242-1.063 2.391-1.727 3.543-.308.488-1.019.754-1.461.266m-2.926-13.153c-1.238-.754-.043-2.968 1.286-2.523 1.062.441.843 1.992-.133 2.391-.356.175-.754.265-1.153.132m-10.273-10.675c-1.109-.442-.621-2.083.352-2.438 1.109-.352 2.039 1.067 1.375 1.996-.309.664-1.153.93-1.727.442m10.008-.133c-1.196-.84-.309-2.79.976-2.969 1.153-.219 2.215 1.2 1.504 2.215-.531.8-1.636.887-2.48.754m-21.168-7.617c-.887-1.243.308-3.368 1.812-3.102 1.243.445.977 2.172.047 2.79-.488.401-1.242.62-1.859.312m10.937-2.614c-1.062-.886-.265-2.347.356-3.191.707-.973 2.433-.75 2.703.402.219 1.063-.535 2.035-1.332 2.61-.484.355-1.195.445-1.727.18m-24.672-3.543c-1.371-.578-1.058-3.101.446-3.191 1.636.137 1.816 2.969.222 3.324a.9.9 0 0 1-.668-.133m-13.019-1.593c-1.328-.446-1.774-2.57-.488-3.325 1.152-.441 2.129.977 2.039 2.04.043.753-.754 1.902-1.551 1.285m22.277-4.477c-1.504-.973-.351-3.762 1.418-3.41 1.242.266 1.242 1.996.489 2.793-.399.574-1.243 1.02-1.907.617m-16.386-1.95c-1.461-.706-1.196-3.406.488-3.628 1.504 0 2.082 2.082 1.281 3.144-.351.575-1.148.93-1.769.485"/><path fill="#e96c92" d="M310.617 123.555c-17.363-8.903-33.929-19.223-50.847-28.832-5.493-3.278-10.895-6.778-15.813-10.809 2.879-5.668 8.328-9.7 14.219-11.871 9.652-3.496 20.418-3.41 30.293-.75 7.754 2.082 15.191 5.98 20.465 12.09 3.32 3.898 5.226 8.77 6.156 13.773 1.461 7.442 1.418 15.414-1.285 22.59-.442 1.242-1.063 2.391-1.727 3.543-.308.488-1.019.754-1.461.266m-2.926-13.153c-1.238-.754-.043-2.968 1.286-2.523 1.062.441.843 1.992-.133 2.391-.356.175-.754.265-1.153.132m-10.273-10.675c-1.109-.442-.621-2.083.352-2.438 1.109-.352 2.039 1.067 1.375 1.996-.309.664-1.153.93-1.727.442m10.008-.133c-1.196-.84-.309-2.79.976-2.969 1.153-.219 2.215 1.2 1.504 2.215-.531.8-1.636.887-2.48.754m-21.168-7.617c-.887-1.243.308-3.368 1.812-3.102 1.243.445.977 2.172.047 2.79-.488.401-1.242.62-1.859.312m10.937-2.614c-1.062-.886-.265-2.347.356-3.191.707-.973 2.433-.75 2.703.402.219 1.063-.535 2.035-1.332 2.61-.484.355-1.195.445-1.727.18m-24.672-3.543c-1.371-.578-1.058-3.101.446-3.191 1.636.137 1.816 2.969.222 3.324a.9.9 0 0 1-.668-.133m-13.019-1.593c-1.328-.446-1.774-2.57-.488-3.325 1.152-.441 2.129.977 2.039 2.04.043.753-.754 1.902-1.551 1.285m22.277-4.477c-1.504-.973-.351-3.762 1.418-3.41 1.242.266 1.242 1.996.489 2.793-.399.574-1.243 1.02-1.907.617m-16.386-1.95c-1.461-.706-1.196-3.406.488-3.628 1.504 0 2.082 2.082 1.281 3.144-.351.575-1.148.93-1.769.485"/></g><path fill="#bc9a16" d="M1 86.04c0-68.6 90.55-70.869 170.078-70.869 79.527 0 170.078 2.27 170.078 70.867 0-15.656-76.144-28.348-170.078-28.348C77.148 57.691 1 70.383 1 86.04"/><path fill="none" stroke="#000" stroke-linecap="round" stroke-linejoin="round" stroke-width="2" d="M1 86.04c0-68.6 90.55-70.869 170.078-70.869 79.527 0 170.078 2.27 170.078 70.867 0-15.656-76.144-28.348-170.078-28.348C77.148 57.691 1 70.383 1 86.04"/><path fill="#d3ae37" d="M908.086 86.04c0 15.655-76.145 28.347-170.078 28.347S567.93 101.695 567.93 86.039s76.144-28.348 170.078-28.348S908.086 70.383 908.086 86.04"/><path fill="none" stroke="#000" stroke-linecap="round" stroke-linejoin="round" stroke-width="2" d="M908.086 86.04c0 15.655-76.145 28.347-170.078 28.347S567.93 101.695 567.93 86.039s76.144-28.348 170.078-28.348S908.086 70.383 908.086 86.04M738.008 312.809l161.41-217.813m-161.41 217.813L684.25 112.941m53.758 199.868L586.914 73.012m151.094 239.797v19.843"/><path fill="#bc9a16" d="M567.93 86.04c0-68.599 90.55-70.868 170.078-70.868 79.527 0 170.078 2.27 170.078 70.867 0-15.656-76.145-28.348-170.078-28.348S567.93 70.383 567.93 86.04"/><path fill="none" stroke="#000" stroke-linecap="round" stroke-linejoin="round" stroke-width="2" d="M567.93 86.04c0-68.599 90.55-70.868 170.078-70.868 79.527 0 170.078 2.27 170.078 70.867 0-15.656-76.145-28.348-170.078-28.348S567.93 70.383 567.93 86.04"/><path fill="#cc9c6f" d="M461.629 332.652c0 3.914-3.172 7.086-7.086 7.086s-7.086-3.172-7.086-7.086 3.172-7.086 7.086-7.086 7.086 3.172 7.086 7.086"/><path fill="none" stroke="#000" stroke-linecap="round" stroke-linejoin="round" stroke-width="2" d="M461.629 332.652c0 3.914-3.172 7.086-7.086 7.086s-7.086-3.172-7.086-7.086 3.172-7.086 7.086-7.086 7.086 3.172 7.086 7.086"/><circle cx="454.543" cy="332.652" r="1"/><path fill="#cc9c6f" d="M440.371 29.344h28.344v340.16h-28.344Z"/><path fill="none" stroke="#000" stroke-linecap="round" stroke-linejoin="round" stroke-width="2" d="M440.371 29.344h28.344v340.16h-28.344z"/><path fill="#cc9c6f" d="M461.629 332.652c0 3.914-3.172 7.086-7.086 7.086s-7.086-3.172-7.086-7.086 3.172-7.086 7.086-7.086 7.086 3.172 7.086 7.086"/><path fill="none" stroke="#000" stroke-linecap="round" stroke-linejoin="round" stroke-width="2" d="M461.629 332.652c0 3.914-3.172 7.086-7.086 7.086s-7.086-3.172-7.086-7.086 3.172-7.086 7.086-7.086 7.086 3.172 7.086 7.086"/><path fill="#cc9c6f" d="M457.379 369.504a20.554 20.554 0 0 1 0 28.344h-5.668a20.543 20.543 0 0 1 0-28.344z"/><path fill="none" stroke="#000" stroke-linecap="round" stroke-linejoin="round" stroke-width="2" d="M457.379 369.504a20.554 20.554 0 0 1 0 28.344h-5.668a20.543 20.543 0 0 1 0-28.344z"/><path fill="#cc9c6f" d="M465.883 409.188c0 6.261-5.078 11.339-11.34 11.339s-11.34-5.078-11.34-11.339 5.078-11.34 11.34-11.34 11.34 5.078 11.34 11.34"/><path fill="none" stroke="#000" stroke-linecap="round" stroke-linejoin="round" stroke-width="2" d="M465.883 409.188c0 6.261-5.078 11.339-11.34 11.339s-11.34-5.078-11.34-11.339 5.078-11.34 11.34-11.34 11.34 5.078 11.34 11.34"/><path fill="#cc9c6f" d="M497.063 1c-13.692 0-22.676 13.621-22.676 28.344h-39.688C434.699 14.62 425.715 1 412.023 1z"/><path fill="none" stroke="#000" stroke-linecap="round" stroke-linejoin="round" stroke-width="2" d="M497.063 1c-13.692 0-22.676 13.621-22.676 28.344h-39.688C434.699 14.62 425.715 1 412.023 1z"/><path d="M741.188 108.484c0 10.563 5.433 18.332 17.55 25.321 6.836 4.039 9.633 9.476 9.633 15.066 0 5.594-3.574 19.574-32 19.574-20.351 0-28.894-9.941-28.894-19.261 0-5.438 4.503-6.68 6.367-6.68 2.332 0 6.215 1.863 6.215 6.367 0 2.488-.778 3.266-1.399 4.043 2.176 3.106 7.305 6.524 17.711 6.524 16.309 0 21.902-5.438 21.902-10.567 0-4.348-3.882-6.676-5.281-7.453-22.523-13.203-22.988-26.098-22.988-34.02 0-5.593 0-7.77 5.59-7.77 5.594 0 5.594 2.642 5.594 6.06zm1.398-28.894c0 3.883-3.109 6.992-6.992 6.992s-6.992-3.11-6.992-6.992 3.109-6.988 6.992-6.988 6.992 3.105 6.992 6.988"/></g></svg>