<svg xmlns="http://www.w3.org/2000/svg" width="944" height="124" viewBox="0 -93 708 93"><g id="page1"><path fill="none" stroke="#000" stroke-linecap="round" stroke-linejoin="round" stroke-width="3" d="M1.5-35.742h309.582M1.5-91.324h309.582M1.5-35.742v-55.582m51.598 55.582v-55.582m51.597 55.582v-55.582m51.594 55.582v-55.582m51.598 55.582v-55.582m51.597 55.582v-55.582m51.598 55.582v-55.582m85.039 55.582h309.582M396.121-91.324h309.582M396.121-35.742v-55.582m51.598 55.582v-55.582m51.594 55.582v-55.582m51.597 55.582v-55.582m51.598 55.582v-55.582m51.597 55.582v-55.582m51.598 55.582v-55.582"/><path fill="none" stroke="#bf0000" stroke-linecap="round" stroke-linejoin="round" stroke-width="5" d="M656.305-65.2c0-10.956-35.535-19.843-79.371-19.843s-79.371 8.887-79.371 19.844c0 10.96 35.535 19.844 79.371 19.844s79.371-8.883 79.371-19.844"/><path d="M105.434-13.406c0-2.223 0-2.89-.551-3.656-.692-.934-1.813-1.079-2.625-1.079-2.32 0-3.227 1.985-3.418 2.465h-.028v-2.465l-3.25.266v.691c1.626 0 1.82.168 1.82 1.34v6.477c0 1.074-.265 1.074-1.82 1.074v.691c.626-.046 1.915-.046 2.582-.046.696 0 1.985 0 2.606.046v-.691c-1.531 0-1.816 0-1.816-1.074v-4.445c0-2.508 1.648-3.848 3.129-3.848 1.484 0 1.82 1.219 1.82 2.676v5.617c0 1.074-.266 1.074-1.82 1.074v.691c.625-.046 1.914-.046 2.582-.046.695 0 1.984 0 2.605.046v-.691c-1.195 0-1.793 0-1.816-.715zm13.336.691c0-3.082-2.344-5.543-5.114-5.543-2.867 0-5.14 2.531-5.14 5.543 0 3.059 2.39 5.356 5.117 5.356 2.816 0 5.137-2.344 5.137-5.356m-5.114 4.828c-.886 0-1.961-.383-2.652-1.554-.649-1.075-.672-2.485-.672-3.489 0-.906 0-2.367.742-3.441a3.06 3.06 0 0 1 2.559-1.41c.93 0 1.933.43 2.578 1.363.742 1.098.742 2.605.742 3.488 0 .836 0 2.32-.621 3.442-.668 1.148-1.769 1.601-2.676 1.601m22.977-5.519c0-2.223 0-2.89-.547-3.656-.695-.934-1.816-1.079-2.629-1.079-1.984 0-2.988 1.438-3.371 2.368-.332-1.84-1.625-2.368-3.129-2.368-2.32 0-3.227 1.985-3.418 2.465h-.023v-2.465l-3.25.266v.691c1.625 0 1.816.168 1.816 1.34v6.477c0 1.074-.262 1.074-1.816 1.074v.691c.621-.046 1.91-.046 2.578-.046.695 0 1.984 0 2.605.046v-.691c-1.527 0-1.816 0-1.816-1.074v-4.445c0-2.508 1.648-3.848 3.133-3.848 1.48 0 1.816 1.219 1.816 2.676v5.617c0 1.074-.266 1.074-1.816 1.074v.691c.621-.046 1.91-.046 2.578-.046.695 0 1.984 0 2.605.046v-.691c-1.527 0-1.816 0-1.816-1.074v-4.445c0-2.508 1.648-3.848 3.133-3.848 1.48 0 1.816 1.219 1.816 2.676v5.617c0 1.074-.266 1.074-1.816 1.074v.691c.621-.046 1.91-.046 2.578-.046.695 0 1.984 0 2.605.046v-.691c-1.195 0-1.793 0-1.816-.715zm11.621.262c.523 0 .574 0 .574-.454 0-2.414-1.293-4.66-4.183-4.66-2.723 0-4.829 2.461-4.829 5.426 0 3.152 2.438 5.473 5.09 5.473 2.844 0 3.922-2.582 3.922-3.086 0-.14-.121-.239-.265-.239-.192 0-.239.121-.286.239-.621 2.008-2.222 2.558-3.226 2.558s-3.418-.668-3.418-4.804v-.453zm-6.598-.454c.192-3.754 2.297-4.183 2.965-4.183 2.555 0 2.699 3.37 2.723 4.183zm25.395-2.031c.215-.527.621-1.555 2.148-1.578v-.691c-.691.046-1.027.046-1.765.046-.504 0-.864 0-1.961-.046v.691c1.004.047 1.121.766 1.121 1.027 0 .215-.047.336-.164.621l-2.438 6.168-2.679-6.742c-.118-.332-.141-.332-.141-.453 0-.621.906-.621 1.336-.621v-.691c-.594.046-1.84.046-2.485.046-.789 0-.835 0-2.293-.046v.691c1.34 0 1.579.098 1.864.836l3.418 8.555c.121.336.168.457.453.457.168 0 .312-.051.48-.457zm10.472 1.649c0-1.29 0-2.247-1.05-3.18-.836-.762-1.91-1.098-2.965-1.098-1.957 0-3.465 1.29-3.465 2.844 0 .691.453 1.027 1.004 1.027.574 0 .98-.406.98-.98 0-.98-.859-.98-1.218-.98.55-1.005 1.699-1.434 2.652-1.434 1.102 0 2.508.91 2.508 3.058v.957c-4.801.07-6.617 2.079-6.617 3.918 0 1.891 2.199 2.489 3.656 2.489 1.578 0 2.652-.957 3.105-2.106.098 1.125.836 1.985 1.864 1.985.503 0 1.89-.336 1.89-2.247v-1.34h-.527v1.34c0 1.364-.574 1.555-.906 1.555-.911 0-.911-1.27-.911-1.625zm-1.554 3.011c0 2.34-1.742 3.13-2.77 3.13-1.172 0-2.152-.86-2.152-2.009 0-3.152 4.062-3.441 4.922-3.488zm8.14-13.215-3.32.262v.695c1.625 0 1.816.165 1.816 1.336v12.524c0 1.074-.261 1.074-1.816 1.074v.691c.668-.046 1.84-.046 2.555-.046.719 0 1.914 0 2.582.046v-.691c-1.528 0-1.817 0-1.817-1.074zm6.547 1.864c0-.621-.5-1.172-1.168-1.172a1.15 1.15 0 0 0-1.148 1.148c0 .715.574 1.172 1.148 1.172.739 0 1.168-.625 1.168-1.148m-3.297 4.445v.691c1.532 0 1.746.145 1.746 1.317v6.5c0 1.074-.261 1.074-1.816 1.074v.691c.668-.046 1.816-.046 2.508-.046.266 0 1.648 0 2.461.046v-.691c-1.551 0-1.649-.121-1.649-1.05v-8.798zm12.809-6.047v.695c1.625 0 1.816.165 1.816 1.336v5.282c-.5-.692-1.527-1.532-2.988-1.532-2.769 0-5.16 2.344-5.16 5.403 0 3.035 2.269 5.379 4.898 5.379 1.817 0 2.868-1.196 3.204-1.649v1.649l3.367-.243v-.691c-1.625 0-1.813-.168-1.813-1.34v-14.55zm1.77 13.528c0 .43 0 .5-.336 1.027-.571.836-1.551 1.527-2.747 1.527-.621 0-3.203-.238-3.203-4.875 0-1.719.286-2.676.813-3.465.476-.742 1.433-1.48 2.629-1.48 1.48 0 2.316 1.074 2.554 1.457.29.406.29.453.29.883zm15.031-2.321c0-3.082-2.34-5.543-5.114-5.543-2.867 0-5.136 2.531-5.136 5.543 0 3.059 2.386 5.356 5.113 5.356 2.816 0 5.137-2.344 5.137-5.356m-5.114 4.828c-.886 0-1.96-.383-2.652-1.554-.648-1.075-.672-2.485-.672-3.489 0-.906 0-2.367.742-3.441a3.06 3.06 0 0 1 2.559-1.41c.93 0 1.934.43 2.578 1.363.742 1.098.742 2.605.742 3.488 0 .836 0 2.32-.621 3.442-.668 1.148-1.769 1.601-2.676 1.601M34.64-65.844c0-5.066-3.44-8.844-7.312-8.844-3.969 0-7.336 3.848-7.336 8.844 0 5.043 3.461 8.746 7.313 8.746 3.941 0 7.336-3.754 7.336-8.746m-7.312 7.242c-2.773 0-5.281-2.988-5.281-7.601 0-4.399 2.601-7 5.258-7 2.722 0 5.28 2.676 5.28 7 0 4.684-2.581 7.601-5.257 7.601m52.577-15.582h-2.054v16.582h2.054zm57.934 8.34c0-5.066-3.442-8.844-7.313-8.844-3.968 0-7.336 3.848-7.336 8.844 0 5.043 3.465 8.746 7.313 8.746 3.941 0 7.336-3.754 7.336-8.746m-7.313 7.242c-2.773 0-5.281-2.988-5.281-7.601 0-4.399 2.606-7 5.258-7 2.723 0 5.281 2.676 5.281 7 0 4.684-2.582 7.601-5.258 7.601m52.578-15.582h-2.054v16.582h2.054zm57.833 8.34c0-5.066-3.442-8.844-7.309-8.844-3.969 0-7.34 3.848-7.34 8.844 0 5.043 3.465 8.746 7.313 8.746 3.945 0 7.336-3.754 7.336-8.746m-7.309 7.242c-2.774 0-5.285-2.988-5.285-7.601 0-4.399 2.605-7 5.258-7 2.726 0 5.281 2.676 5.281 7 0 4.684-2.578 7.601-5.254 7.601m52.676-15.582h-2.055v16.582h2.055z"/><path fill="#bf0000" d="M477.336-13.406c0-2.223 0-2.89-.551-3.656-.695-.934-1.816-1.079-2.629-1.079-2.316 0-3.226 1.985-3.418 2.465h-.023v-2.465l-3.25.266v.691c1.625 0 1.816.168 1.816 1.34v6.477c0 1.074-.261 1.074-1.816 1.074v.691c.621-.046 1.914-.046 2.582-.046.691 0 1.984 0 2.601.046v-.691c-1.527 0-1.812 0-1.812-1.074v-4.445c0-2.508 1.648-3.848 3.129-3.848 1.48 0 1.816 1.219 1.816 2.676v5.617c0 1.074-.265 1.074-1.816 1.074v.691c.621-.046 1.914-.046 2.582-.046.691 0 1.98 0 2.601.046v-.691c-1.195 0-1.789 0-1.812-.715zm13.332.691c0-3.082-2.34-5.543-5.113-5.543-2.867 0-5.137 2.531-5.137 5.543 0 3.059 2.387 5.356 5.113 5.356 2.821 0 5.137-2.344 5.137-5.356m-5.113 4.828c-.883 0-1.961-.383-2.653-1.554-.644-1.075-.668-2.485-.668-3.489 0-.906 0-2.367.739-3.441a3.06 3.06 0 0 1 2.558-1.41c.934 0 1.938.43 2.578 1.363.743 1.098.743 2.605.743 3.488 0 .836 0 2.32-.622 3.442-.667 1.148-1.765 1.601-2.675 1.601m22.98-5.519c0-2.223 0-2.89-.551-3.656-.691-.934-1.816-1.079-2.629-1.079-1.984 0-2.988 1.438-3.371 2.368-.332-1.84-1.625-2.368-3.129-2.368-2.316 0-3.226 1.985-3.417 2.465h-.024v-2.465l-3.25.266v.691c1.625 0 1.816.168 1.816 1.34v6.477c0 1.074-.261 1.074-1.816 1.074v.691c.621-.046 1.914-.046 2.582-.046.692 0 1.984 0 2.606.046v-.691c-1.532 0-1.817 0-1.817-1.074v-4.445c0-2.508 1.649-3.848 3.129-3.848 1.484 0 1.816 1.219 1.816 2.676v5.617c0 1.074-.261 1.074-1.816 1.074v.691c.621-.046 1.914-.046 2.582-.046.692 0 1.981 0 2.606.046v-.691c-1.532 0-1.817 0-1.817-1.074v-4.445c0-2.508 1.649-3.848 3.129-3.848 1.481 0 1.816 1.219 1.816 2.676v5.617c0 1.074-.261 1.074-1.816 1.074v.691c.621-.046 1.914-.046 2.582-.046.692 0 1.981 0 2.606.046v-.691c-1.196 0-1.793 0-1.817-.715zm11.52.262c.523 0 .574 0 .574-.454 0-2.414-1.293-4.66-4.184-4.66-2.726 0-4.828 2.461-4.828 5.426 0 3.152 2.438 5.473 5.09 5.473 2.844 0 3.922-2.582 3.922-3.086 0-.14-.121-.239-.266-.239-.191 0-.242.121-.285.239-.625 2.008-2.223 2.558-3.226 2.558s-3.418-.668-3.418-4.804v-.453zm-6.598-.454c.191-3.754 2.297-4.183 2.965-4.183 2.555 0 2.699 3.37 2.723 4.183zm26.277.192c0-2.223 0-2.89-.55-3.656-.692-.934-1.817-1.079-2.629-1.079-2.317 0-3.227 1.985-3.414 2.465h-.028v-2.465l-3.25.266v.691c1.625 0 1.817.168 1.817 1.34v6.477c0 1.074-.262 1.074-1.817 1.074v.691c.621-.046 1.914-.046 2.582-.046.696 0 1.985 0 2.606.046v-.691c-1.531 0-1.817 0-1.817-1.074v-4.445c0-2.508 1.649-3.848 3.129-3.848 1.485 0 1.817 1.219 1.817 2.676v5.617c0 1.074-.262 1.074-1.817 1.074v.691c.621-.046 1.914-.046 2.582-.046.696 0 1.985 0 2.606.046v-.691c-1.196 0-1.793 0-1.817-.715zm13.336.691c0-3.082-2.343-5.543-5.117-5.543-2.863 0-5.137 2.531-5.137 5.543 0 3.059 2.391 5.356 5.114 5.356 2.82 0 5.14-2.344 5.14-5.356m-5.117 4.828c-.883 0-1.957-.383-2.652-1.554-.645-1.075-.668-2.485-.668-3.489 0-.906 0-2.367.738-3.441a3.07 3.07 0 0 1 2.559-1.41c.933 0 1.937.43 2.582 1.363.742 1.098.742 2.605.742 3.488 0 .836 0 2.32-.621 3.442-.668 1.148-1.77 1.601-2.68 1.601m16.481-5.519c0-2.223 0-2.89-.551-3.656-.692-.934-1.813-1.079-2.625-1.079-2.32 0-3.227 1.985-3.418 2.465h-.027v-2.465l-3.25.266v.691c1.625 0 1.82.168 1.82 1.34v6.477c0 1.074-.266 1.074-1.82 1.074v.691c.625-.046 1.914-.046 2.582-.046.695 0 1.984 0 2.605.046v-.691c-1.531 0-1.816 0-1.816-1.074v-4.445c0-2.508 1.648-3.848 3.129-3.848 1.484 0 1.82 1.219 1.82 2.676v5.617c0 1.074-.266 1.074-1.82 1.074v.691c.625-.046 1.914-.046 2.582-.046.695 0 1.984 0 2.605.046v-.691c-1.195 0-1.793 0-1.816-.715zm20.015-2.223c.219-.527.621-1.555 2.153-1.578v-.691c-.696.046-1.028.046-1.77.046-.504 0-.859 0-1.961-.046v.691c1.008.047 1.125.766 1.125 1.027 0 .215-.047.336-.168.621l-2.437 6.168-2.676-6.742c-.121-.332-.145-.332-.145-.453 0-.621.91-.621 1.34-.621v-.691c-.597.046-1.84.046-2.484.046-.789 0-.836 0-2.297-.046v.691c1.34 0 1.578.098 1.863.836l3.418 8.555c.121.336.168.457.457.457.164 0 .309-.051.477-.457zm10.473 1.649c0-1.29 0-2.247-1.051-3.18-.836-.762-1.91-1.098-2.961-1.098-1.961 0-3.465 1.29-3.465 2.844 0 .691.453 1.027 1.004 1.027.574 0 .981-.406.981-.98 0-.98-.864-.98-1.219-.98.547-1.005 1.695-1.434 2.648-1.434 1.102 0 2.512.91 2.512 3.058v.957c-4.805.07-6.617 2.079-6.617 3.918 0 1.891 2.195 2.489 3.652 2.489 1.578 0 2.657-.957 3.11-2.106.093 1.125.836 1.985 1.863 1.985.5 0 1.887-.336 1.887-2.247v-1.34h-.524v1.34c0 1.364-.574 1.555-.91 1.555-.91 0-.91-1.27-.91-1.625zm-1.551 3.011c0 2.34-1.742 3.13-2.773 3.13-1.168 0-2.149-.86-2.149-2.009 0-3.152 4.063-3.441 4.922-3.488zm8.141-13.215-3.324.262v.695c1.625 0 1.816.165 1.816 1.336v12.524c0 1.074-.262 1.074-1.816 1.074v.691c.671-.046 1.839-.046 2.558-.046s1.91 0 2.582.046v-.691c-1.531 0-1.816 0-1.816-1.074zm6.547 1.864c0-.621-.504-1.172-1.172-1.172-.621 0-1.145.504-1.145 1.148 0 .715.571 1.172 1.145 1.172.742 0 1.172-.625 1.172-1.148m-3.297 4.445v.691c1.527 0 1.742.145 1.742 1.317v6.5c0 1.074-.262 1.074-1.816 1.074v.691c.671-.046 1.816-.046 2.511-.046.262 0 1.649 0 2.461.046v-.691c-1.555 0-1.648-.121-1.648-1.05v-8.798zm12.808-6.047v.695c1.625 0 1.817.165 1.817 1.336v5.282c-.504-.692-1.532-1.532-2.989-1.532-2.769 0-5.164 2.344-5.164 5.403 0 3.035 2.274 5.379 4.903 5.379 1.816 0 2.867-1.196 3.203-1.649v1.649l3.367-.243v-.691c-1.625 0-1.816-.168-1.816-1.34v-14.55zm1.77 13.528c0 .43 0 .5-.336 1.027-.574.836-1.555 1.527-2.75 1.527-.621 0-3.199-.238-3.199-4.875 0-1.719.285-2.676.812-3.465.477-.742 1.43-1.48 2.625-1.48 1.485 0 2.321 1.074 2.559 1.457.289.406.289.453.289.883zm15.027-2.321c0-3.082-2.34-5.543-5.113-5.543-2.867 0-5.137 2.531-5.137 5.543 0 3.059 2.391 5.356 5.113 5.356 2.821 0 5.137-2.344 5.137-5.356m-5.113 4.828c-.883 0-1.957-.383-2.652-1.554-.645-1.075-.668-2.485-.668-3.489 0-.906 0-2.367.738-3.441a3.07 3.07 0 0 1 2.558-1.41c.934 0 1.938.43 2.583 1.363.742 1.098.742 2.605.742 3.488 0 .836 0 2.32-.625 3.442-.668 1.148-1.766 1.601-2.676 1.601"/><path d="M429.238-65.844c0-5.066-3.441-8.844-7.312-8.844-3.965 0-7.336 3.848-7.336 8.844 0 5.043 3.465 8.746 7.312 8.746 3.942 0 7.336-3.754 7.336-8.746m-7.312 7.242c-2.77 0-5.281-2.988-5.281-7.601 0-4.399 2.605-7 5.257-7 2.727 0 5.282 2.676 5.282 7 0 4.684-2.582 7.601-5.258 7.601m52.582-15.582h-2.059v16.582h2.059zm57.93 8.34c0-5.066-3.442-8.844-7.309-8.844-3.969 0-7.336 3.848-7.336 8.844 0 5.043 3.461 8.746 7.309 8.746 3.945 0 7.336-3.754 7.336-8.746m-7.309 7.242c-2.774 0-5.285-2.988-5.285-7.601 0-4.399 2.605-7 5.258-7 2.726 0 5.281 2.676 5.281 7 0 4.684-2.578 7.601-5.254 7.601m52.578-15.582h-2.059v16.582h2.059zm51.598 0h-2.055v16.582h2.055zm57.933 8.34c0-5.066-3.441-8.844-7.312-8.844-3.965 0-7.336 3.848-7.336 8.844 0 5.043 3.465 8.746 7.312 8.746 3.942 0 7.336-3.754 7.336-8.746m-7.312 7.242c-2.77 0-5.281-2.988-5.281-7.601 0-4.399 2.605-7 5.257-7 2.727 0 5.282 2.676 5.282 7 0 4.684-2.582 7.601-5.258 7.601"/></g></svg>