<svg xmlns="http://www.w3.org/2000/svg" width="901pt" height="80pt" viewBox="0 -80 901 80"><g id="page1"><path fill="none" stroke="#000" stroke-linecap="round" stroke-linejoin="round" d="M.5-11.094h899.73M.5-68.43h899.73M.5-11.094V-68.43m47.356 57.336V-68.43m47.351 57.336V-68.43m47.356 57.336V-68.43m47.355 57.336V-68.43m47.352 57.336V-68.43m47.355 57.336V-68.43m47.355 57.336V-68.43m47.356 57.336V-68.43m47.352 57.336V-68.43m47.355 57.336V-68.43m47.355 57.336V-68.43m47.356 57.336V-68.43m47.351 57.336V-68.43m47.356 57.336V-68.43m47.355 57.336V-68.43m47.356 57.336V-68.43m47.351 57.336V-68.43m47.356 57.336V-68.43m47.351 57.336V-68.43"/><path fill="#b8ebb8" d="M10.129-6.172h28.348L31.719-38.39H16.887z"/><path fill="none" stroke="#060" stroke-linecap="round" stroke-linejoin="round" stroke-width=".5" d="M10.129-6.172h28.348L31.719-38.39H16.887z"/><path fill="#fff" d="M21.422-6.172h5.133v-6.023h-5.133Z"/><path fill="none" stroke="#59a659" stroke-linecap="round" stroke-linejoin="round" stroke-width=".5" d="M21.422-6.172h5.133v-6.023h-5.133z"/><path fill="#fff" d="M14.406-11.543h4.453v-5.934h-4.453Z"/><path fill="none" stroke="#59a659" stroke-linecap="round" stroke-linejoin="round" stroke-width=".5" d="M14.406-11.543h4.453v-5.934h-4.453z"/><path fill="#fff" d="M18.203-16.914h3.125v-4.629h-3.125Z"/><path fill="none" stroke="#59a659" stroke-linecap="round" stroke-linejoin="round" stroke-width=".5" d="M18.203-16.914h3.125v-4.629h-3.125z"/><path fill="#fff" d="M17.41-22.281h5.043v-6.68H17.41Z"/><path fill="none" stroke="#59a659" stroke-linecap="round" stroke-linejoin="round" stroke-width=".5" d="M17.41-22.281h5.043v-6.68H17.41z"/><path fill="#fff" d="M16.75-27.652h4.418v-7.54H16.75Z"/><path fill="none" stroke="#59a659" stroke-linecap="round" stroke-linejoin="round" stroke-width=".5" d="M16.75-27.652h4.418v-7.54H16.75z"/><path fill="#fff" d="M21.617-33.023h2.942v-3.414h-2.942Z"/><path fill="none" stroke="#59a659" stroke-linecap="round" stroke-linejoin="round" stroke-width=".5" d="M21.617-33.023h2.942v-3.41h-2.942z"/><path fill="#b8b8eb" d="M57.484-6.172h28.344l-7.887-39.144h-12.57z"/><path fill="none" stroke="#006" stroke-linecap="round" stroke-linejoin="round" stroke-width=".5" d="M57.484-6.172h28.344l-7.887-39.144h-12.57zm14.172-39.144v-12.13"/><path fill="#006" d="M72.61-57.445a.954.954 0 1 0-1.91.002.954.954 0 0 0 1.91-.002"/><path fill="#fff" d="M68.598-6.172h3.5v-6.531h-3.5Z"/><path fill="none" stroke="#5959a6" stroke-linecap="round" stroke-linejoin="round" stroke-width=".5" d="M68.598-6.172h3.5v-6.531h-3.5z"/><path fill="#fff" d="M68.133-15.957h4.535v-5.984h-4.535Z"/><path fill="none" stroke="#5959a6" stroke-linecap="round" stroke-linejoin="round" stroke-width=".5" d="M68.133-15.957h4.535v-5.984h-4.535z"/><path fill="#fff" d="M64.703-25.742h4.043v-5.36h-4.043Z"/><path fill="none" stroke="#5959a6" stroke-linecap="round" stroke-linejoin="round" stroke-width=".5" d="M64.703-25.742h4.043v-5.36h-4.043z"/><path fill="#fff" d="M69.3-35.531h4.954v-9.692H69.3Z"/><path fill="none" stroke="#5959a6" stroke-linecap="round" stroke-linejoin="round" stroke-width=".5" d="M69.3-35.531h4.954v-9.688H69.3z"/><path fill="#d1b8eb" d="M104.84-6.172h28.344l-8.395-60.332H113.23z"/><path fill="none" stroke="#306" stroke-linecap="round" stroke-linejoin="round" stroke-width=".5" d="M104.84-6.172h28.344l-8.395-60.332H113.23z"/><path fill="#fff" d="M121.57-6.172h5.024V-13.5h-5.024Z"/><path fill="none" stroke="#8059a6" stroke-linecap="round" stroke-linejoin="round" stroke-width=".5" d="M121.57-6.172h5.024V-13.5h-5.024z"/><path fill="#fff" d="M118.68-11.2h3.746v-5.007h-3.746Z"/><path fill="none" stroke="#8059a6" stroke-linecap="round" stroke-linejoin="round" stroke-width=".5" d="M118.68-11.2h3.746v-5.007h-3.746z"/><path fill="#fff" d="M119.172-16.227h4.031v-4.07h-4.031Z"/><path fill="none" stroke="#8059a6" stroke-linecap="round" stroke-linejoin="round" stroke-width=".5" d="M119.172-16.227h4.031v-4.07h-4.031z"/><path fill="#fff" d="M112.516-21.258h5.105v-9.453h-5.105Z"/><path fill="none" stroke="#8059a6" stroke-linecap="round" stroke-linejoin="round" stroke-width=".5" d="M112.516-21.258h5.105v-9.453h-5.105z"/><path fill="#fff" d="M124.426-26.285h4.426v-5.324h-4.426Z"/><path fill="none" stroke="#8059a6" stroke-linecap="round" stroke-linejoin="round" stroke-width=".5" d="M124.426-26.285h4.426v-5.324h-4.426z"/><path fill="#fff" d="M118.902-31.312h3.766v-6.532h-3.766Z"/><path fill="none" stroke="#8059a6" stroke-linecap="round" stroke-linejoin="round" stroke-width=".5" d="M118.902-31.312h3.766v-6.532h-3.766z"/><path fill="#fff" d="M110.352-36.34h4.668v-5.23h-4.668Z"/><path fill="none" stroke="#8059a6" stroke-linecap="round" stroke-linejoin="round" stroke-width=".5" d="M110.352-36.34h4.668v-5.23h-4.668z"/><path fill="#fff" d="M123.18-41.367h4.14v-5.531h-4.14Z"/><path fill="none" stroke="#8059a6" stroke-linecap="round" stroke-linejoin="round" stroke-width=".5" d="M123.18-41.367h4.14v-5.531h-4.14z"/><path fill="#fff" d="M122.141-46.394h3.722v-6.188h-3.722Z"/><path fill="none" stroke="#8059a6" stroke-linecap="round" stroke-linejoin="round" stroke-width=".5" d="M122.141-46.394h3.722v-6.188h-3.722z"/><path fill="#fff" d="M112.676-51.422h3.5v-6.797h-3.5Z"/><path fill="none" stroke="#8059a6" stroke-linecap="round" stroke-linejoin="round" stroke-width=".5" d="M112.676-51.422h3.5v-6.797h-3.5z"/><path fill="#fff" d="M115.734-56.45h3.618v-6.14h-3.618Z"/><path fill="none" stroke="#8059a6" stroke-linecap="round" stroke-linejoin="round" stroke-width=".5" d="M115.734-56.45h3.618v-6.14h-3.618z"/><path fill="#fff" d="M115.762-61.477h2.945v-4.683h-2.945Z"/><path fill="none" stroke="#8059a6" stroke-linecap="round" stroke-linejoin="round" stroke-width=".5" d="M115.762-61.477h2.941v-4.683h-2.941z"/><path fill="#ebded1" d="m200.258-6.422-3.391-7.371-7.422-2.816-1.203-4.625-5.996-8.301-13.035-3.766-3.82-1.453-15.993-4.797-6.636-4.324-5.094 7.004-1.523 11.07-2.805 11.766-1.113 7.613z"/><path fill="none" stroke="#664d33" stroke-linecap="round" stroke-linejoin="round" d="m200.258-6.422-3.391-7.371-7.422-2.816-1.203-4.625-5.996-8.301-13.035-3.766-3.82-1.453-15.993-4.797-6.636-4.324-5.094 7.004-1.523 11.07-2.805 11.766-1.113 7.613z"/><g fill="#ccbfb2"><path d="m172.75-11.36 3.07.067-.906 1.523-3.883-5.18z"/><path d="m164.734-12.203 8.809 1.219-2.43-2.993-4.23-3.574z"/><path d="m160.125-15.676 9.18-1.949 3.504-5.191-9.969.918z"/><path d="m163.637-17.465 7.566-2.844 3.059-4.968-10.043-.809z"/><path d="m170.742-23.727 6.348-.507-2.953-1.774-7.34-1.02z"/></g><path fill="none" stroke="#664d33" stroke-linecap="round" stroke-linejoin="round" d="M166.238-42.375c5.004-2.32 6.371-7.8 2.895-11.59-2.184-2.379-6.082-3.488-7.485-6.289-1.363-2.727.125-5.863 3.364-7.07m8.031 24.949c4.203-.734 6.645-4.406 5.16-7.766-.93-2.109-3.426-3.625-3.683-5.89-.25-2.207 1.656-4.176 4.293-4.442m-22.778 18.098c1.707-2.484.375-5.652-2.82-6.703-2.008-.656-4.426-.223-6.184-1.297-1.718-1.047-2.117-3.047-.902-4.504"/><path fill="gray" d="M169.938-16.875c.566-.488 4.675-3.988 4.675-8.5 0-4.629-3.82-7.883-8.902-7.883-4.715 0-7.844 3.535-7.844 6.953 0 1.707 1.422 1.828 1.668 1.828.731 0 1.621-.566 1.621-1.668 0-.77-.281-1.015-.484-1.18.57-2.152 2.433-3.577 4.797-3.577 3.453 0 6.5 1.992 6.5 5.527 0 3.172-2.399 5.613-4.594 7.52l-8.941 7.765c-.446.367-.567.485-.567.973 0 1.18 1.094 1.18 1.668 1.18h14.18c.898-.243.898-1.055.898-1.668v-.852c0-.73 0-1.668-1.3-1.668-1.344 0-1.344.855-1.344 1.828h-9.793z"/><path fill="none" stroke="#000" stroke-linecap="round" stroke-linejoin="round" d="M169.938-16.875c.566-.488 4.675-3.988 4.675-8.5 0-4.629-3.82-7.883-8.902-7.883-4.715 0-7.844 3.535-7.844 6.953 0 1.707 1.422 1.828 1.668 1.828.731 0 1.621-.566 1.621-1.668 0-.77-.281-1.015-.484-1.18.57-2.152 2.433-3.577 4.797-3.577 3.453 0 6.5 1.992 6.5 5.527 0 3.172-2.399 5.613-4.594 7.52l-8.941 7.765c-.446.367-.567.485-.567.973 0 1.18 1.094 1.18 1.668 1.18h14.18c.898-.243.898-1.055.898-1.668v-.852c0-.73 0-1.668-1.3-1.668-1.344 0-1.344.855-1.344 1.828h-9.793z"/><path fill="#d1b8eb" d="M199.547-6.172h28.348l-8.45-50.39h-11.449z"/><path fill="none" stroke="#306" stroke-linecap="round" stroke-linejoin="round" stroke-width=".5" d="M199.547-6.172h28.348l-8.45-50.39h-11.449z"/><path fill="#fff" d="M210.859-6.172h4.071v-4.46h-4.071Z"/><path fill="none" stroke="#8059a6" stroke-linecap="round" stroke-linejoin="round" stroke-width=".5" d="M210.859-6.172h4.071v-4.46h-4.071z"/><path fill="#fff" d="M203.617-14.57h3.707v-6.895h-3.707Z"/><path fill="none" stroke="#8059a6" stroke-linecap="round" stroke-linejoin="round" stroke-width=".5" d="M203.617-14.57h3.707v-6.895h-3.707z"/><path fill="#fff" d="M217.629-22.969h2.887v-4.37h-2.887Z"/><path fill="none" stroke="#8059a6" stroke-linecap="round" stroke-linejoin="round" stroke-width=".5" d="M217.629-22.969h2.887v-4.37h-2.887z"/><path fill="#fff" d="M217.813-31.367h3.769v-7.195h-3.769Z"/><path fill="none" stroke="#8059a6" stroke-linecap="round" stroke-linejoin="round" stroke-width=".5" d="M217.813-31.367h3.769v-7.195h-3.769z"/><path fill="#fff" d="M213.699-39.766h2.887v-4.886h-2.887Z"/><path fill="none" stroke="#8059a6" stroke-linecap="round" stroke-linejoin="round" stroke-width=".5" d="M213.699-39.766h2.887v-4.886h-2.887z"/><path fill="#fff" d="M211.277-48.164h4.426V-54.2h-4.426Z"/><path fill="none" stroke="#8059a6" stroke-linecap="round" stroke-linejoin="round" stroke-width=".5" d="M211.277-48.164h4.426V-54.2h-4.426z"/><path fill="#ebb8b8" d="M246.902-6.172h28.344l.949-51.68h-30.242z"/><path fill="none" stroke="#600" stroke-linecap="round" stroke-linejoin="round" stroke-width=".5" d="M246.902-6.172h28.344l.949-51.68h-30.242zm14.172-51.68v-9.609"/><path fill="#600" d="M262.113-67.46c0-.575-.465-1.04-1.039-1.04a1.04 1.04 0 0 0-1.043 1.04 1.042 1.042 0 1 0 2.082 0"/><path fill="#fff" d="M260.754-6.172h4.23v-5.36h-4.23Z"/><path fill="none" stroke="#a65959" stroke-linecap="round" stroke-linejoin="round" stroke-width=".5" d="M260.754-6.172h4.23v-5.36h-4.23z"/><path fill="#fff" d="M262.805-19.094h3.547v-5.738h-3.547Z"/><path fill="none" stroke="#a65959" stroke-linecap="round" stroke-linejoin="round" stroke-width=".5" d="M262.805-19.094h3.547v-5.738h-3.547z"/><path fill="#fff" d="M260.969-32.012h4.215v-5.265h-4.215Z"/><path fill="none" stroke="#a65959" stroke-linecap="round" stroke-linejoin="round" stroke-width=".5" d="M260.969-32.012h4.215v-5.265h-4.215z"/><path fill="#fff" d="M254.109-44.93h4.887v-6.37h-4.887Z"/><path fill="none" stroke="#a65959" stroke-linecap="round" stroke-linejoin="round" stroke-width=".5" d="M254.109-44.93h4.887v-6.37h-4.887z"/><path fill="#ebded1" d="m342.32-6.422-4.972-10.129-1.586-7.258-7.903-9.46-1.855-12.438-10.496-1.012-7.672.047-9.816.8-9.61 1.438-4.379 8.934-2.789 7.363-5.172 10.418-1.781 11.297z"/><path fill="none" stroke="#664d33" stroke-linecap="round" stroke-linejoin="round" d="m342.32-6.422-4.972-10.129-1.586-7.258-7.903-9.46-1.855-12.438-10.496-1.012-7.672.047-9.816.8-9.61 1.438-4.379 8.934-2.789 7.363-5.172 10.418-1.781 11.297z"/><g fill="#ccbfb2"><path d="m281.078-10.504 7.621 1.332-.082-6.578-6.769 1.21z"/><path d="m280.027-10.668 3.969 1.348 3.328-6.293-5.301-.371zm43.145-.692 12.445-3.863-3.211-6.132-8.496 3.765zm-15.723-6.39 11.93 4.555-2.219-9.117-5.371-2.493z"/><path d="m303.902-19.008 5.899 3.535.496-5.601-8.715-1.774z"/><path d="m304.266-21.992 1.05-.332.446-5.86-3.071 1.274zm-14.758 1.282 7.969-1.954.89-5.078-11.273 3.437zm25.812-4.434 9.563-1.825 2.637-1.699-11.094 1.02z"/></g><path fill="none" stroke="#664d33" stroke-linecap="round" stroke-linejoin="round" d="M308.305-50.738c5.457-1.446 8.105-6.59 5.601-10.88-1.57-2.69-5.125-4.429-5.828-7.405-.687-2.899 1.524-5.723 4.985-6.371m2.042 24.656c4.297-.004 7.59-3.18 6.965-6.719-.39-2.223-2.457-4.137-2.152-6.395.297-2.203 2.645-3.804 5.297-3.617m-27.117 16.731c2.211-2.196 1.57-5.508-1.356-7.016-1.832-.941-4.301-.871-5.804-2.191-1.469-1.282-1.438-3.309.066-4.563"/><path fill="gray" d="M309.727-31.594c0-.605 0-1.664-1.18-1.664-.692 0-.934.367-1.18.895-.769 1.75-2.109 3.902-4.265 4.066-.61.043-1.465.121-1.465 1.18 0 .691.406 1.172 1.304 1.172 2.274 0 4.024-1.703 4.145-1.785v17.433h-3.578c-.567 0-1.668 0-1.668 1.18s1.101 1.18 1.668 1.18h9.797c.566 0 1.664 0 1.664-1.18s-1.098-1.18-1.664-1.18h-3.578z"/><path fill="none" stroke="#000" stroke-linecap="round" stroke-linejoin="round" d="M309.727-31.594c0-.605 0-1.664-1.18-1.664-.692 0-.934.367-1.18.895-.769 1.75-2.109 3.902-4.265 4.066-.61.043-1.465.121-1.465 1.18 0 .691.406 1.172 1.304 1.172 2.274 0 4.024-1.703 4.145-1.785v17.433h-3.578c-.567 0-1.668 0-1.668 1.18s1.101 1.18 1.668 1.18h9.797c.566 0 1.664 0 1.664-1.18s-1.098-1.18-1.664-1.18h-3.578z"/><path fill="#b8b8eb" d="M341.609-6.172h28.348l-2.269-46.226h-23.809z"/><path fill="none" stroke="#006" stroke-linecap="round" stroke-linejoin="round" stroke-width=".5" d="M341.609-6.172h28.348l-2.269-46.226h-23.809zm14.172-46.226v-8.52"/><path fill="#006" d="M357.285-60.918a1.501 1.501 0 1 0-3.003.003 1.501 1.501 0 0 0 3.003-.003"/><path fill="#fff" d="M345.781-6.172h3.66v-6.996h-3.66Z"/><path fill="none" stroke="#5959a6" stroke-linecap="round" stroke-linejoin="round" stroke-width=".5" d="M345.781-6.172h3.66v-6.996h-3.66z"/><path fill="#fff" d="M343.328-13.879h2.977v-4.445h-2.977Z"/><path fill="none" stroke="#5959a6" stroke-linecap="round" stroke-linejoin="round" stroke-width=".5" d="M343.328-13.879h2.977v-4.445h-2.977z"/><path fill="#fff" d="M350.93-21.582h2.984v-4.355h-2.984Z"/><path fill="none" stroke="#5959a6" stroke-linecap="round" stroke-linejoin="round" stroke-width=".5" d="M350.93-21.582h2.98v-4.355h-2.98z"/><path fill="#fff" d="M347.418-29.285h4.605v-7.707h-4.605Z"/><path fill="none" stroke="#5959a6" stroke-linecap="round" stroke-linejoin="round" stroke-width=".5" d="M347.418-29.285h4.605v-7.707h-4.605z"/><path fill="#fff" d="M361.293-36.988h5.562v-10.473h-5.562Z"/><path fill="none" stroke="#5959a6" stroke-linecap="round" stroke-linejoin="round" stroke-width=".5" d="M361.293-36.988h5.562v-10.473h-5.562z"/><path fill="#fff" d="M356.27-44.695h3.464v-5.25h-3.464Z"/><path fill="none" stroke="#5959a6" stroke-linecap="round" stroke-linejoin="round" stroke-width=".5" d="M356.27-44.695h3.464v-5.25h-3.464z"/><path fill="#ebded1" d="m437.027-6.422-6.992-9.469-1.09-6.12-9.215-11.891-2.976-7.746-6.875.222-13.328-.605-8.012-1.63-5.461 2.61-6.871 6.86-3.16 12.652-.031 4.031-4.02 11.086z"/><path fill="none" stroke="#664d33" stroke-linecap="round" stroke-linejoin="round" d="m437.027-6.422-6.992-9.469-1.09-6.12-9.215-11.891-2.976-7.746-6.875.222-13.328-.605-8.012-1.63-5.461 2.61-6.871 6.86-3.16 12.652-.031 4.031-4.02 11.086z"/><path fill="#ccbfb2" d="m385.035-9.984 5.274-.375-.352-7.672-7.566 1.785zm32.016-5.306 10.605.313.961-4.898-9.941 2.55zm-10.684-3.1 1.348 1.785 1.035-2.118-4.715-4.754zm3.09-3.079 5.301 1.145-.082-10.985-5.297 4.32z"/><path fill="none" stroke="#664d33" stroke-linecap="round" stroke-linejoin="round" d="M403.012-47.02c5.301-1.8 7.445-7.105 4.535-11.214-1.824-2.578-5.535-4.07-6.527-6.993-.961-2.843.968-5.808 4.355-6.683m4.441 24.89c4.274.344 7.914-2.558 7.7-6.132-.133-2.242-1.973-4.313-1.414-6.535.55-2.172 3.07-3.579 5.687-3.18m-28.98 15.847c1.687-2.492.324-5.652-2.883-6.683-2.012-.645-4.422-.195-6.192-1.262-1.726-1.039-2.144-3.031-.941-4.496"/><path fill="gray" d="M402.973-20.414c4.222 0 6.093 2.965 6.093 5.16 0 2.684-2.359 5.203-5.933 5.203-4.063 0-5.895-2.195-5.895-2.765a.32.32 0 0 1 .082-.2c.16-.289.285-.613.285-.98 0-.848-.652-1.621-1.628-1.621-.848 0-1.664.527-1.664 1.785 0 3.535 3.859 6.14 8.82 6.14 5.121 0 8.578-3.656 8.578-7.519 0-2.074-1.141-4.96-4.715-6.5 2.477-1.547 3.574-3.988 3.574-6.098 0-3.05-3.05-5.691-7.437-5.691-4.516 0-7.684 1.95-7.684 4.957 0 1.34 1.016 1.75 1.664 1.75.735 0 1.629-.57 1.629-1.668 0-.648-.324-1.016-.324-1.059 1.223-1.543 4.023-1.628 4.715-1.628 2.762 0 4.797 1.468 4.797 3.375 0 1.18-.774 4.554-5.043 4.84-1.504.078-2.153.163-2.317.163-.808.079-1.015.606-1.015 1.18 0 1.176.855 1.176 1.547 1.176z"/><path fill="none" stroke="#000" stroke-linecap="round" stroke-linejoin="round" d="M402.973-20.414c4.222 0 6.093 2.965 6.093 5.16 0 2.684-2.359 5.203-5.933 5.203-4.063 0-5.895-2.195-5.895-2.765a.32.32 0 0 1 .082-.2c.16-.289.285-.613.285-.98 0-.848-.652-1.621-1.628-1.621-.848 0-1.664.527-1.664 1.785 0 3.535 3.859 6.14 8.82 6.14 5.121 0 8.578-3.656 8.578-7.519 0-2.074-1.141-4.96-4.715-6.5 2.477-1.547 3.574-3.988 3.574-6.098 0-3.05-3.05-5.691-7.437-5.691-4.516 0-7.684 1.95-7.684 4.957 0 1.34 1.016 1.75 1.664 1.75.735 0 1.629-.57 1.629-1.668 0-.648-.324-1.016-.324-1.059 1.223-1.543 4.023-1.628 4.715-1.628 2.762 0 4.797 1.468 4.797 3.375 0 1.18-.774 4.554-5.043 4.84-1.504.078-2.153.163-2.317.163-.808.079-1.015.606-1.015 1.18 0 1.176.855 1.176 1.547 1.176z"/><path fill="#b8ebb8" d="M436.316-6.172h28.348l-6.746-26.57h-14.852z"/><path fill="none" stroke="#060" stroke-linecap="round" stroke-linejoin="round" stroke-width=".5" d="M436.316-6.172h28.348l-6.746-26.57h-14.852zm14.176-26.57v-8.114"/><path fill="#060" d="M451.395-40.855a.903.903 0 0 0-1.805 0 .903.903 0 0 0 1.805 0"/><path fill="#fff" d="M451.836-6.172h4.777v-8.367h-4.777Z"/><path fill="none" stroke="#59a659" stroke-linecap="round" stroke-linejoin="round" stroke-width=".5" d="M451.836-6.172h4.777v-8.367h-4.777z"/><path fill="#fff" d="M446.41-12.816h4.52v-8.149h-4.52Z"/><path fill="none" stroke="#59a659" stroke-linecap="round" stroke-linejoin="round" stroke-width=".5" d="M446.41-12.816h4.52v-8.149h-4.52z"/><path fill="#fff" d="M452.742-19.457h4.403v-6.691h-4.403Z"/><path fill="none" stroke="#59a659" stroke-linecap="round" stroke-linejoin="round" stroke-width=".5" d="M452.742-19.457h4.403v-6.691h-4.403z"/><path fill="#fff" d="M446.527-25.79h5.082v-6.952h-5.082Z"/><path fill="none" stroke="#59a659" stroke-linecap="round" stroke-linejoin="round" stroke-width=".5" d="M446.527-25.79h5.082v-6.952h-5.082z"/><path fill="#ebb8eb" d="M483.672-6.172h28.348l-2.301-60.527h-23.746z"/><path fill="none" stroke="#606" stroke-linecap="round" stroke-linejoin="round" stroke-width=".5" d="M483.672-6.172h28.348l-2.301-60.527h-23.746zM497.844-66.7v-12.148"/><path fill="#606" d="M498.766-78.848a.92.92 0 0 0-1.84 0 .92.92 0 0 0 1.84 0"/><path fill="#fff" d="M505.828-6.172h4.238v-6.117h-4.238Z"/><path fill="none" stroke="#a659a6" stroke-linecap="round" stroke-linejoin="round" stroke-width=".5" d="M505.828-6.172h4.238v-6.117h-4.238z"/><path fill="#fff" d="M499.73-12.898h5.563v-5.727h-5.563Z"/><path fill="none" stroke="#a659a6" stroke-linecap="round" stroke-linejoin="round" stroke-width=".5" d="M499.73-12.898h5.563v-5.727h-5.563z"/><path fill="#fff" d="M502.918-19.625h3.922v-4.758h-3.922Z"/><path fill="none" stroke="#a659a6" stroke-linecap="round" stroke-linejoin="round" stroke-width=".5" d="M502.918-19.625h3.922v-4.758h-3.922z"/><path fill="#fff" d="M502.871-26.348h3.359v-4.164h-3.359Z"/><path fill="none" stroke="#a659a6" stroke-linecap="round" stroke-linejoin="round" stroke-width=".5" d="M502.871-26.348h3.359v-4.164h-3.359z"/><path fill="#fff" d="M503.66-33.074h5.102v-5.676h-5.102Z"/><path fill="none" stroke="#a659a6" stroke-linecap="round" stroke-linejoin="round" stroke-width=".5" d="M503.66-33.074h5.102v-5.676h-5.102z"/><path fill="#fff" d="M500.535-39.797h3.953v-6.492h-3.953Z"/><path fill="none" stroke="#a659a6" stroke-linecap="round" stroke-linejoin="round" stroke-width=".5" d="M500.535-39.797h3.953v-6.492h-3.953z"/><path fill="#fff" d="M493.637-46.523h3.773v-6.98h-3.773Z"/><path fill="none" stroke="#a659a6" stroke-linecap="round" stroke-linejoin="round" stroke-width=".5" d="M493.637-46.523h3.773v-6.98h-3.773z"/><path fill="#fff" d="M503.703-53.25h5.586v-6.254h-5.586Z"/><path fill="none" stroke="#a659a6" stroke-linecap="round" stroke-linejoin="round" stroke-width=".5" d="M503.703-53.25h5.586v-6.254h-5.586z"/><path fill="#fff" d="M500.941-57.82h5.008v-8.88h-5.008Z"/><path fill="none" stroke="#a659a6" stroke-linecap="round" stroke-linejoin="round" stroke-width=".5" d="M500.941-57.82h5.008v-8.88h-5.008z"/><path fill="#b8dede" d="M531.027-6.172h28.344l-.422-41.816h-27.496z"/><path fill="none" stroke="#004d4d" stroke-linecap="round" stroke-linejoin="round" stroke-width=".5" d="M531.027-6.172h28.344l-.422-41.816h-27.496z"/><path fill="#fff" d="M541.742-6.172h5.274v-8.777h-5.274Z"/><path fill="none" stroke="#599292" stroke-linecap="round" stroke-linejoin="round" stroke-width=".5" d="M541.742-6.172h5.274v-8.777h-5.274z"/><path fill="#fff" d="M534.32-11.402h2.922v-5.055h-2.922Z"/><path fill="none" stroke="#599292" stroke-linecap="round" stroke-linejoin="round" stroke-width=".5" d="M534.32-11.402h2.922v-5.055h-2.922z"/><path fill="#fff" d="M539.684-16.629h5.171v-5.383h-5.171Z"/><path fill="none" stroke="#599292" stroke-linecap="round" stroke-linejoin="round" stroke-width=".5" d="M539.684-16.629h5.171v-5.383h-5.171z"/><path fill="#fff" d="M548.887-21.855h3.543v-6.211h-3.543Z"/><path fill="none" stroke="#599292" stroke-linecap="round" stroke-linejoin="round" stroke-width=".5" d="M548.887-21.855h3.543v-6.211h-3.543z"/><path fill="#fff" d="M532.867-27.082h3.238v-4.2h-3.238Z"/><path fill="none" stroke="#599292" stroke-linecap="round" stroke-linejoin="round" stroke-width=".5" d="M532.867-27.082h3.238v-4.2h-3.238z"/><path fill="#fff" d="M549.828-32.309h3.742v-5.199h-3.742Z"/><path fill="none" stroke="#599292" stroke-linecap="round" stroke-linejoin="round" stroke-width=".5" d="M549.828-32.309h3.742v-5.199h-3.742z"/><path fill="#fff" d="M549.695-37.535h4.403v-4.55h-4.403Z"/><path fill="none" stroke="#599292" stroke-linecap="round" stroke-linejoin="round" stroke-width=".5" d="M549.695-37.535h4.403v-4.55h-4.403z"/><path fill="#fff" d="M554.184-41.344h3.703v-6.644h-3.703Z"/><path fill="none" stroke="#599292" stroke-linecap="round" stroke-linejoin="round" stroke-width=".5" d="M554.184-41.344h3.703v-6.644h-3.703z"/><path fill="#ebd1b8" d="M578.383-6.172h28.344l-3.164-26.93h-22.016z"/><path fill="none" stroke="#630" stroke-linecap="round" stroke-linejoin="round" stroke-width=".5" d="M578.383-6.172h28.344l-3.164-26.93h-22.016zm14.172-26.93v-13.754"/><path fill="#630" d="M594.234-46.855a1.68 1.68 0 1 0-3.359 0 1.68 1.68 0 0 0 3.359 0"/><path fill="#fff" d="M585.594-6.172h4.461v-4.61h-4.461Z"/><path fill="none" stroke="#a68059" stroke-linecap="round" stroke-linejoin="round" stroke-width=".5" d="M585.594-6.172h4.461v-4.61h-4.461z"/><path fill="#fff" d="M592.336-15.148h4.746v-6.977h-4.746Z"/><path fill="none" stroke="#a68059" stroke-linecap="round" stroke-linejoin="round" stroke-width=".5" d="M592.336-15.148h4.746v-6.977h-4.746z"/><path fill="#fff" d="M592.75-24.125h3.52v-4.531h-3.52Z"/><path fill="none" stroke="#a68059" stroke-linecap="round" stroke-linejoin="round" stroke-width=".5" d="M592.75-24.125h3.52v-4.531h-3.52z"/><path fill="#d1b8eb" d="M625.734-6.172h28.348l-2.16-57.61h-24.024z"/><path fill="none" stroke="#306" stroke-linecap="round" stroke-linejoin="round" stroke-width=".5" d="M625.734-6.172h28.348l-2.16-57.61h-24.024zm14.176-57.609v-6.727"/><path fill="#306" d="M640.984-70.508c0-.59-.48-1.074-1.074-1.074s-1.074.484-1.074 1.074a1.073 1.073 0 1 0 2.148 0"/><path fill="#fff" d="M628.891-6.172h4.48v-7.289h-4.48Z"/><path fill="none" stroke="#8059a6" stroke-linecap="round" stroke-linejoin="round" stroke-width=".5" d="M628.891-6.172h4.48v-7.289h-4.48z"/><path fill="#fff" d="M642.074-10.973h3.508v-3.87h-3.508Z"/><path fill="none" stroke="#8059a6" stroke-linecap="round" stroke-linejoin="round" stroke-width=".5" d="M642.074-10.973h3.508v-3.87h-3.508z"/><path fill="#fff" d="M641.16-15.773h3.324v-3.485h-3.324Z"/><path fill="none" stroke="#8059a6" stroke-linecap="round" stroke-linejoin="round" stroke-width=".5" d="M641.16-15.773h3.324v-3.485h-3.324z"/><path fill="#fff" d="M649.219-20.574h3.66v-4.774h-3.66Z"/><path fill="none" stroke="#8059a6" stroke-linecap="round" stroke-linejoin="round" stroke-width=".5" d="M649.219-20.574h3.66v-4.774h-3.66z"/><path fill="#fff" d="M647.324-25.375h4.09v-6.867h-4.09Z"/><path fill="none" stroke="#8059a6" stroke-linecap="round" stroke-linejoin="round" stroke-width=".5" d="M647.324-25.375h4.09v-6.863h-4.09z"/><path fill="#fff" d="M630.445-30.176h5.274v-6.648h-5.274Z"/><path fill="none" stroke="#8059a6" stroke-linecap="round" stroke-linejoin="round" stroke-width=".5" d="M630.445-30.176h5.274v-6.648h-5.274z"/><path fill="#fff" d="M629.465-34.977h5.062v-6.308h-5.062Z"/><path fill="none" stroke="#8059a6" stroke-linecap="round" stroke-linejoin="round" stroke-width=".5" d="M629.465-34.977h5.062v-6.308h-5.062z"/><path fill="#fff" d="M627.781-39.777h4.844V-46.5h-4.844Z"/><path fill="none" stroke="#8059a6" stroke-linecap="round" stroke-linejoin="round" stroke-width=".5" d="M627.781-39.777h4.844V-46.5h-4.844z"/><path fill="#fff" d="M628.754-44.578h3.266v-3.559h-3.266Z"/><path fill="none" stroke="#8059a6" stroke-linecap="round" stroke-linejoin="round" stroke-width=".5" d="M628.754-44.578h3.266v-3.559h-3.266z"/><path fill="#fff" d="M636.191-49.379h3.938v-5.7h-3.938Z"/><path fill="none" stroke="#8059a6" stroke-linecap="round" stroke-linejoin="round" stroke-width=".5" d="M636.191-49.379h3.938v-5.703h-3.938z"/><path fill="#fff" d="M628.035-54.18h3.953v-4.773h-3.953Z"/><path fill="none" stroke="#8059a6" stroke-linecap="round" stroke-linejoin="round" stroke-width=".5" d="M628.035-54.18h3.953v-4.773h-3.953z"/><path fill="#fff" d="M634.516-56.469h5.308v-7.312h-5.308Z"/><path fill="none" stroke="#8059a6" stroke-linecap="round" stroke-linejoin="round" stroke-width=".5" d="M634.516-56.469h5.308v-7.312h-5.308z"/><path fill="#ebd1b8" d="M673.09-6.172h28.348l1.578-34.597h-31.504z"/><path fill="none" stroke="#630" stroke-linecap="round" stroke-linejoin="round" stroke-width=".5" d="M673.09-6.172h28.348l1.578-34.597h-31.504zm14.172-34.598v-4.859"/><path fill="#630" d="M688.359-45.629a1.095 1.095 0 1 0-2.191 0 1.095 1.095 0 1 0 2.191 0"/><path fill="#fff" d="M682.852-6.172h4.992v-8.543h-4.992Z"/><path fill="none" stroke="#a68059" stroke-linecap="round" stroke-linejoin="round" stroke-width=".5" d="M682.852-6.172h4.992v-8.543h-4.992z"/><path fill="#fff" d="M674.531-10.496h4.039v-7.758h-4.039Z"/><path fill="none" stroke="#a68059" stroke-linecap="round" stroke-linejoin="round" stroke-width=".5" d="M674.531-10.496h4.039v-7.762h-4.039z"/><path fill="#fff" d="M686.836-14.824h3.461v-4.016h-3.461Z"/><path fill="none" stroke="#a68059" stroke-linecap="round" stroke-linejoin="round" stroke-width=".5" d="M686.836-14.824h3.461v-4.016h-3.461z"/><path fill="#fff" d="M685.422-19.148h5.539v-6.332h-5.539Z"/><path fill="none" stroke="#a68059" stroke-linecap="round" stroke-linejoin="round" stroke-width=".5" d="M685.422-19.148h5.539v-6.332h-5.539z"/><path fill="#fff" d="M684.117-23.473h5.071v-8.125h-5.071Z"/><path fill="none" stroke="#a68059" stroke-linecap="round" stroke-linejoin="round" stroke-width=".5" d="M684.117-23.473h5.071v-8.125h-5.071z"/><path fill="#fff" d="M691.809-27.797h2.996v-4.86h-2.996Z"/><path fill="none" stroke="#a68059" stroke-linecap="round" stroke-linejoin="round" stroke-width=".5" d="M691.809-27.797h2.996v-4.86h-2.996z"/><path fill="#fff" d="M688.492-30.57h5.613v-10.2h-5.613Z"/><path fill="none" stroke="#a68059" stroke-linecap="round" stroke-linejoin="round" stroke-width=".5" d="M688.492-30.57h5.613v-10.2h-5.613z"/><path fill="#fff" d="M693.578-32.844h4.43v-7.925h-4.43Z"/><path fill="none" stroke="#a68059" stroke-linecap="round" stroke-linejoin="round" stroke-width=".5" d="M693.578-32.844h4.43v-7.925h-4.43z"/><path fill="#b8dede" d="M720.445-6.172h28.344l.07-39.992h-28.488z"/><path fill="none" stroke="#004d4d" stroke-linecap="round" stroke-linejoin="round" stroke-width=".5" d="M720.445-6.172h28.344l.07-39.992h-28.488z"/><path fill="#fff" d="M744.668-6.172h3.809v-3.93h-3.809Z"/><path fill="none" stroke="#599292" stroke-linecap="round" stroke-linejoin="round" stroke-width=".5" d="M744.668-6.172h3.809v-3.93h-3.809z"/><path fill="#fff" d="M723.078-11.172h3.301v-4.347h-3.301Z"/><path fill="none" stroke="#599292" stroke-linecap="round" stroke-linejoin="round" stroke-width=".5" d="M723.078-11.172h3.301v-4.347h-3.301z"/><path fill="#fff" d="M740.016-16.172h3.144v-5.402h-3.144Z"/><path fill="none" stroke="#599292" stroke-linecap="round" stroke-linejoin="round" stroke-width=".5" d="M740.016-16.172h3.144v-5.402h-3.144z"/><path fill="#fff" d="M741.832-21.168h4.992v-9.656h-4.992Z"/><path fill="none" stroke="#599292" stroke-linecap="round" stroke-linejoin="round" stroke-width=".5" d="M741.832-21.168h4.992v-9.656h-4.992z"/><path fill="#fff" d="M740.684-26.168h5.445v-7.184h-5.445Z"/><path fill="none" stroke="#599292" stroke-linecap="round" stroke-linejoin="round" stroke-width=".5" d="M740.684-26.168h5.445v-7.184h-5.445z"/><path fill="#fff" d="M738.375-31.168h4.629v-7.852h-4.629Z"/><path fill="none" stroke="#599292" stroke-linecap="round" stroke-linejoin="round" stroke-width=".5" d="M738.375-31.168h4.633v-7.852h-4.633z"/><path fill="#fff" d="M736.988-36.168h4.575v-5.86h-4.575Z"/><path fill="none" stroke="#599292" stroke-linecap="round" stroke-linejoin="round" stroke-width=".5" d="M736.988-36.168h4.575v-5.86h-4.575z"/><path fill="#fff" d="M733.559-40.59h3.722v-5.574h-3.722Z"/><path fill="none" stroke="#599292" stroke-linecap="round" stroke-linejoin="round" stroke-width=".5" d="M733.559-40.59h3.722v-5.574h-3.722z"/><path fill="#ebded1" d="m815.863-6.422-1.578-7.77-6.383-7.394-5.566-5.82-2.438-9.223-11.777-4.277-8.367-1.235-5.852-1.398-10.785-2.227-2.336 7.528-5.301 12.593-2.191 8.688-5.457 10.535z"/><path fill="none" stroke="#664d33" stroke-linecap="round" stroke-linejoin="round" d="m815.863-6.422-1.578-7.77-6.383-7.394-5.566-5.82-2.438-9.223-11.777-4.277-8.367-1.235-5.852-1.398-10.785-2.227-2.336 7.528-5.301 12.593-2.191 8.688-5.457 10.535z"/><path fill="#ccbfb2" d="m790.758-7.332 11.531.602-1.66-5.84-12.453.093zm-22.828-7.566 8.855.113.66-4.95-9.277 2.465zm26.406 1.39 6.223-.601-.547-8.227-8.172 3.934zm-5.828-5.386 1.191-.465 1.742.261-3.554-3.422zm-5.25-4.153 11.472-1.848-.191-4.285-8.851 3.403z"/><path fill="none" stroke="#664d33" stroke-linecap="round" stroke-linejoin="round" d="M781.848-46.867c4.886-2.485 5.992-8.004 2.336-11.676-2.297-2.305-6.243-3.285-7.778-6.035-1.496-2.68-.156-5.863 3.02-7.18m9.222 24.891c4.274-.356 7.172-3.793 6.125-7.266-.652-2.176-2.941-3.906-2.906-6.18.031-2.218 2.18-4.007 4.836-4.039m-25.062 17.485c2.027-2.313 1.117-5.586-1.922-6.918-1.906-.84-4.367-.625-5.977-1.86-1.566-1.199-1.699-3.218-.301-4.554"/><path fill="gray" d="M783.27-31.594c0-.605 0-1.664-1.18-1.664-.692 0-.934.367-1.18.895-.769 1.75-2.109 3.902-4.265 4.066-.61.043-1.461.121-1.461 1.18 0 .691.402 1.172 1.3 1.172 2.274 0 4.024-1.703 4.145-1.785v17.433h-3.578c-.567 0-1.668 0-1.668 1.18s1.101 1.18 1.668 1.18h9.797c.57 0 1.664 0 1.664-1.18s-1.094-1.18-1.664-1.18h-3.578z"/><path fill="none" stroke="#000" stroke-linecap="round" stroke-linejoin="round" d="M783.27-31.594c0-.605 0-1.664-1.18-1.664-.692 0-.934.367-1.18.895-.769 1.75-2.109 3.902-4.265 4.066-.61.043-1.461.121-1.461 1.18 0 .691.402 1.172 1.3 1.172 2.274 0 4.024-1.703 4.145-1.785v17.433h-3.578c-.567 0-1.668 0-1.668 1.18s1.101 1.18 1.668 1.18h9.797c.57 0 1.664 0 1.664-1.18s-1.094-1.18-1.664-1.18h-3.578z"/><path fill="#ebded1" d="m863.219-6.422-4.692-9.383-1.55-7.375.066-5.586-.793-7.289-13.379-1.586-14.808-1.953-9.504 1.258-14.536-3.898.676 9.777-3.984 10.434.004 7.324-5.535 8.277z"/><path fill="none" stroke="#664d33" stroke-linecap="round" stroke-linejoin="round" d="m863.219-6.422-4.692-9.383-1.55-7.375.066-5.586-.793-7.289-13.379-1.586-14.808-1.953-9.504 1.258-14.536-3.898.676 9.777-3.984 10.434.004 7.324-5.535 8.277z"/><g fill="#ccbfb2"><path d="m850.977-6.676 8.128-.379 4.848-5.265-11.191-4zm-11.473-2.742-1.332-3.71 4.129 1.73-5.106-.196zm-36.949-5.972 9.175.011.079-2.32-14.434-3.38zm10.828-2.15 4.219-.382 3.23-8.46-11.023.445zm28.472-.558 8.809.149-.273-12.485-11.149 3.989z"/><path d="m819.078-21.457 4.75-2.094 4.328-1.191-9.238 2.875z"/></g><path fill="none" stroke="#664d33" stroke-linecap="round" stroke-linejoin="round" d="M829.199-44.812c5.36-1.688 7.672-6.946 4.891-11.118-1.742-2.617-5.402-4.187-6.301-7.129-.871-2.863 1.152-5.785 4.566-6.585m3.649 24.832c4.293-.102 7.48-3.352 6.738-6.88-.461-2.21-2.594-4.074-2.363-6.34.226-2.21 2.519-3.866 5.176-3.734m-26.559 16.954c1.879-2.399.762-5.63-2.355-6.829-1.957-.754-4.399-.433-6.086-1.59-1.637-1.128-1.903-3.144-.59-4.538"/><path fill="gray" d="M830.625-31.594c0-.605 0-1.664-1.18-1.664-.691 0-.933.367-1.179.895-.77 1.75-2.11 3.902-4.266 4.066-.609.043-1.465.121-1.465 1.18 0 .691.406 1.172 1.305 1.172 2.273 0 4.019-1.703 4.144-1.785v17.433h-3.578c-.566 0-1.668 0-1.668 1.18s1.102 1.18 1.668 1.18h9.797c.567 0 1.664 0 1.664-1.18s-1.097-1.18-1.664-1.18h-3.578z"/><path fill="none" stroke="#000" stroke-linecap="round" stroke-linejoin="round" d="M830.625-31.594c0-.605 0-1.664-1.18-1.664-.691 0-.933.367-1.179.895-.77 1.75-2.11 3.902-4.266 4.066-.609.043-1.465.121-1.465 1.18 0 .691.406 1.172 1.305 1.172 2.273 0 4.019-1.703 4.144-1.785v17.433h-3.578c-.566 0-1.668 0-1.668 1.18s1.102 1.18 1.668 1.18h9.797c.567 0 1.664 0 1.664-1.18s-1.097-1.18-1.664-1.18h-3.578z"/><path fill="#ebb8b8" d="M862.508-6.172h28.347l-5.707-50.734h-16.933z"/><path fill="none" stroke="#600" stroke-linecap="round" stroke-linejoin="round" stroke-width=".5" d="M862.508-6.172h28.347l-5.707-50.734h-16.933z"/><path fill="#fff" d="M864.156-6.172h4.067v-4.476h-4.067Z"/><path fill="none" stroke="#a65959" stroke-linecap="round" stroke-linejoin="round" stroke-width=".5" d="M864.156-6.172h4.067v-4.476h-4.067z"/><path fill="#fff" d="M866.117-12.516h3.43v-4.207h-3.43Z"/><path fill="none" stroke="#a65959" stroke-linecap="round" stroke-linejoin="round" stroke-width=".5" d="M866.117-12.516h3.43v-4.207h-3.43z"/><path fill="#fff" d="M875.004-18.855h4.793v-9.29h-4.793Z"/><path fill="none" stroke="#a65959" stroke-linecap="round" stroke-linejoin="round" stroke-width=".5" d="M875.004-18.855h4.793v-9.29h-4.793z"/><path fill="#fff" d="M868.207-25.2h4.543v-6.624h-4.543Z"/><path fill="none" stroke="#a65959" stroke-linecap="round" stroke-linejoin="round" stroke-width=".5" d="M868.207-25.2h4.543v-6.624h-4.543z"/><path fill="#fff" d="M867.121-31.54h4.563v-4.581h-4.563Z"/><path fill="none" stroke="#a65959" stroke-linecap="round" stroke-linejoin="round" stroke-width=".5" d="M867.121-31.54h4.563v-4.581h-4.563z"/><path fill="#fff" d="M871.246-37.883h5.457v-8.52h-5.457Z"/><path fill="none" stroke="#a65959" stroke-linecap="round" stroke-linejoin="round" stroke-width=".5" d="M871.246-37.883h5.457v-8.52h-5.457z"/><path fill="#fff" d="M882.754-44.223h3.101v-3.738h-3.101Z"/><path fill="none" stroke="#a65959" stroke-linecap="round" stroke-linejoin="round" stroke-width=".5" d="M882.754-44.223h3.101v-3.738h-3.101z"/><path fill="#fff" d="M869.273-48.52h4.207v-8.386h-4.207Z"/><path fill="none" stroke="#a65959" stroke-linecap="round" stroke-linejoin="round" stroke-width=".5" d="M869.273-48.52h4.207v-8.386h-4.207z"/></g></svg>