<svg xmlns="http://www.w3.org/2000/svg" width="131pt" height="208" viewBox="0 -156 131 156"><g id="page1"><path fill="#7373d2" d="m1.5-49.687 14.172-28.348h99.215l-14.172 28.347z"/><path fill="none" stroke="#00f" stroke-linecap="round" stroke-linejoin="round" stroke-width="3" d="m1.5-49.687 14.172-28.348h99.215l-14.172 28.347z"/><g fill-rule="evenodd"><path fill="#f8eee5" d="M39.328-95.195c.98.527.906 2.03-.074 2.484-1.129.45-2.11-.602-1.73-1.734.222-.75 1.054-1.13 1.804-.75m14.23.375c.606.226.755 1.054.38 1.507-.528.676-1.583.376-1.657-.453 0-.828.602-1.355 1.278-1.054m-3.46 6.097c4.367.38 7.906 1.434 10.539 3.09l.754.527-.227.528c-4.293 10.766-26.953 14.23-38.476 5.797-.45-.301-.75-.602-.75-.68 6.625-5.871 19.273-10.012 28.16-9.262m-.078 1.207c1.507.375 1.656 1.13.378 2.41l-.754.75.153.829c.074.605.074 1.054 0 1.433-.152.676-.078.75.223.903.527.3 1.433.074 2.183-.528.527-.375.606-.375.379.153-.602 1.05-2.035 1.578-3.012 1.05-.379-.148-.453-.148-.527-.074-.98 1.13-4.14 1.055-5.422-.226-.676-.676-.754-1.051-.074-.528 2.184 1.66 5.422.754 5.422-1.504-.078-1.355-.078-1.43-.907-1.73-1.203-.453-2.41-1.356-2.41-1.883 0-.754 2.864-1.433 4.368-1.055M43.469-72.91c1.734 2.41 4.367 7.605 5.574 10.844l.3.675-.902.606c-3.765 2.406-2.484 8.957 1.805 9.484l.527.078-.148.828c-1.96 12.422-16.941 12.575-18.902.227l-.075-.453.602.375c7.832 4.293 13.102-5.871 5.422-10.617-1.203-.75-2.41-1.657-3.313-2.485l-.527-.449.3-1.809c.38-2.257.602-4.292.755-6.175l.074-1.356.906.078c.977.075 6.774 0 7.153-.078.226-.074.3 0 .449.227"/><path fill="#e1bc97" d="M36.695-145.57c1.578.3 3.16 1.433 3.461 3.09.453 2.183.078 4.441-.527 6.55-1.883 5.418-5.797 9.938-7.453 15.508-.528 1.809-.528 3.692-.301 5.496-.375.153-1.809.68-.828.531 5.195-.753 10.844-1.054 15.812 1.129 4.215 1.805 7.305 5.719 9.11 9.938 1.355 3.465 3.011 6.851 4.441 10.316.906 2.332 1.883 4.895 1.133 7.38 0 .827-.527.226-.906 0-4.516-2.864-10.09-3.466-15.36-3.09-8.28.679-16.414 3.84-22.964 9.038-.528.223-.075.903-.676.301-1.961-2.035-3.766-4.219-4.746-6.851-2.559-6.028-1.582-13.102 1.882-18.524 2.184-3.613 5.348-6.476 8.961-8.586.45-.523-1.355.68-1.507-.301-3.461-4.593-6.25-10.164-6.098-16.113.152-5.043 2.637-9.937 6.703-12.949 2.785-2.035 6.324-3.539 9.863-2.863m-.379 5.121c.602.152 2.184 1.054.754.679-1.43-.601-1.054 1.278-1.129 2.184-.074 2.785-1.054 5.422-2.257 7.828-1.508 3.238-3.391 6.324-4.293 9.789-.075.602-.227 1.281-.301 1.883.3.754.676 1.43.828 2.184-1.355-1.657-2.258-3.692-2.937-5.797-1.43-4.746-1.204-10.09 1.054-14.61 1.203-2.332 3.465-4.515 6.25-4.441.676 0 1.43.074 2.031.301m27.032 3.312c2.937.602 6.023 2.035 7.605 4.746.68 1.129.68 2.707-.074 3.84-1.582 2.86-4.668 4.215-7.531 5.418-5.043 2.035-10.465 3.016-15.285 5.5-1.204.676-2.184 1.504-3.086 2.485-1.356-.301-2.711-.528-4.067-.754.074-3.84.903-7.754 2.711-11.145 2.785-5.344 8.133-9.488 14.23-10.238 1.81-.227 3.692-.153 5.497.148m-1.13 4.446c2.184.449 4.52 1.878 4.895 4.214.227.829-.453-.601-.68-.753-.374-.602-.675-.149-.976.226-1.809 1.883-3.914 3.539-6.402 4.52-3.688 1.504-7.68 2.558-11.22 4.668-1.202.675-2.03 1.878-2.483 3.238-.375.523.078-1.055.078-1.36 1.129-5.644 4.816-10.839 9.937-13.55 2.11-1.055 4.52-1.657 6.852-1.203M40.985-96.703c2.485.828 3.54 4.066 2.336 6.25-.902 2.035-3.691 3.012-5.496 1.582-2.258-1.656-2.336-5.496-.078-7.152.906-.754 2.184-1.055 3.238-.68m14.309.68c2.105 1.277 2.258 4.441.828 6.25-.906 1.277-3.09 1.355-4.066.074-1.582-1.883-1.282-5.27.976-6.403.754-.375 1.582-.3 2.262.079M28.938-74.488c1.734.601 3.539.902 5.347 1.203 0 2.86-.379 5.722-.828 8.508-.453.902-1.207-.98-1.582-1.356-1.129-1.808-2.11-3.687-2.785-5.723-.3.153.226 1.81.375 2.485 1.129 4.14 4.441 7.305 7.906 9.562 1.582 1.055 3.164 2.563 3.086 4.594 0 .375.152.903-.45.98-.905.602-2.109.602-3.089.075.379.527 1.508.902 2.336.902 1.129-.375.902.38.3.906-.827 1.204-2.636 1.579-3.913.829-.907-.079 2.257 1.129.601 1.05-2.937.227-5.496-1.804-7.304-3.988-3.387-3.992-4.97-9.562-3.614-14.61.528-1.956 1.356-3.913 2.637-5.495.3-.227.676 0 .977.078m17.019 2.031c3.762 3.086 7.152 6.926 8.656 11.594.68 2.41.828 5.422-.902 7.457-.527.675-1.355 1.054-2.184 1.203.528-.453.98-.977 1.282-1.582-.907.98-2.336 1.582-3.618 1.054-.449-.226-1.129-.828-1.277-1.203 1.277 0 2.41-.754 2.86-1.882-.755.675-1.805 1.504-2.938 1.054-.977-.68-.828-2.11-.676-3.09.3-1.277 1.43-2.105 2.41-2.785 1.203-.902 2.032-2.41 1.883-3.914-.379.754-.754 1.657-1.355 2.258-1.434-3.613-3.239-7.078-5.274-10.465-.976-1.656.754.074 1.133.301m-22.062 8.508c.449 4.52 2.558 8.886 5.949 11.972 1.203.528 1.355 1.73 1.504 2.938.68 3.539 3.164 6.926 6.703 8.055 2.105.754 4.441.601 6.472-.149-2.41 1.578-5.27 2.711-8.129 3.235-1.054-.301-.98-1.957-1.581-2.786-1.508-3.086-3.313-6.25-6.176-8.132-1.203-.828-2.785-1.13-4.067-.45-1.43-.152-3.086-.453-4.367.676-1.355.828-2.031 2.485-1.656 4.067-.3.453-.602 2.41-1.055 1.129-1.578-2.786-1.578-6.172-.527-9.11 1.207-3.691 3.765-6.625 5.574-10.016.375-.527.977-2.183 1.281-2.03 0 .148.075.374.075.6M13.73-58c1.05.3 1.804 1.055 2.332 1.957.453-.375 1.582-1.883 2.109-1.355-2.258 3.464-3.54 7.754-2.563 11.82.153 1.129.98 2.184 1.133 3.238-1.133.227-2.183-.3-2.937-1.129-.68 0-1.356.301-2.035.075-1.805-.376-3.012-2.485-2.332-4.215.753-1.43-1.657-.528-1.958-1.73-.828-1.134-.078-2.938 1.356-3.09.527 0 1.277.152.75-.528-.977-2.031.379-4.816 2.637-5.117.527-.078 1.054-.078 1.507.074m47.585 6.098c1.203.074 2.41 1.129 2.485 2.41.148.676-.38 2.183-.153 2.258.606-.828.606-1.957.754-2.934.829 1.352.375 3.086-.148 4.516-.754 1.656-1.883 3.086-3.016 4.52-.523-.68-1.504-.829-2.258-.454-2.183.828-3.988 2.484-5.195 4.516-.676.754.227 2.789-1.43 1.96-1.43-.453-2.335-1.734-3.69-2.183-1.88-.828-3.915-1.207-5.872-1.656 3.766-1.883 7.152-5.047 8.36-9.188.449-.902.902 1.055 1.277 1.504.828 1.055.078 2.336-.075 3.54-.152.452-.226 1.507.153.527 1.05-2.332 2.031-4.817 3.914-6.7.828-.902 2.41-.828 3.086.149.601.754.601 1.656.527 2.562-.226-1.355-1.957-.754-2.031.375-.453 1.508 1.656 1.43 1.805.153.453-.828-.301 1.43.3.3.828-1.43 1.055-3.539-.375-4.668-.3-.527-2.336-.601-.98-1.128.828-.305 1.656-.606 2.562-.38m1.957 2.336c.754.902.227 2.558-.754 3.086-1.43.226-1.054-1.958-.449-2.711.301-.301.75-.676 1.203-.375M27.734-48.29c2.184 1.281 3.614 3.539 4.97 5.723 1.581 2.937 3.085 6.101 3.386 9.488.152 1.129-.074 2.785-1.504 2.863-2.336.3-4.52-.754-6.625-1.734-3.164-1.656-6.25-3.84-8.207-6.926-.828-1.355-1.281-3.012-.606-4.52.754 1.055 2.036 1.735 3.317 2.11-1.207-1.203-2.79-2.332-2.863-4.215.152-1.883 2.183-3.54 4.066-2.79 1.504.528 2.336 1.884 3.012 3.165.152-.602-.528-2.184-1.13-3.012-.378-1.129 1.657-.375 2.184-.152m.676.906c1.13.676.227 2.633-.902 1.656-1.203-.527-.754-2.863.676-1.808l.078.074zm-4.816.828c1.129.528 2.031 2.032 1.355 3.16-.906.98-2.484.227-2.937-.828-.602-.828-.453-2.332.828-2.332.226-.078.527-.078.754 0m-2.79 5.27c1.583.754.227 3.012-1.05 1.656-1.207-.902-.152-2.71 1.05-1.656m8.813.601c2.485.98 4.367 3.239 4.895 5.797.3 1.282-.301 2.938-1.809 3.164-1.957.153-3.766-1.28-4.969-2.71-1.129-1.356-2.035-3.16-1.582-4.97.375-1.507 2.184-1.808 3.465-1.28"/><path fill="#f8b2b0" d="M34.887-137.965c-.075 3.238-.528 4.82-2.336 8.586-2.559 5.27-3.461 7.602-3.762 9.637l-.078.676-.527-1.504c-3.086-9.336-.223-18.149 6.25-19.2l.527-.078zm27.406 6.402c.828.149 2.637.903 2.863 1.204.075.148-1.43 1.73-2.562 2.636-1.805 1.504-3.086 2.184-6.098 3.313-5.723 2.183-7.68 3.086-9.637 4.668l-.3.226.226-.679c3.613-8.207 9.485-12.496 15.508-11.368m.98 82.372c.602.828-.601 3.164-1.28 2.336-.376-.454-.15-1.657.452-2.262.301-.375.602-.375.828-.074m-35.09 2.109c.528.527.528 1.203 0 1.281-.523.074-1.277-.98-.976-1.508.148-.3.602-.226.977.227m31.325.074c.226.153.152.828-.074 1.281-.528.676-1.207.602-1.207-.152 0-.828.828-1.582 1.28-1.129m-35.914.903c.226.152.601.378.75.605 1.355 1.504-.075 3.086-1.578 1.73-1.434-1.28-.754-3.164.828-2.335m36.594 4.52c.148.073.374.226.527.452l.222.223-1.203 1.207c-2.03 1.957-5.195 4.367-5.875 4.367-.3 0 .305-1.508 1.055-2.562 1.734-2.485 3.992-4.063 5.273-3.688m-39.532.6c.903.68.528 1.81-.453 1.208-.375-.153-.676-.68-.676-.98 0-.528.602-.677 1.13-.227m8.582.528c2.711.828 5.274 4.219 4.973 6.55-.379 3.313-5.348 1.731-7.305-2.331-1.281-2.864-.152-4.973 2.332-4.219"/><path d="M36.543-146.547c3.387.527 4.742 2.258 4.742 6.098 0 3.613-.902 6.176-4.515 12.426-3.239 5.796-4.067 7.98-4.067 11.066 0 1.809 0 1.809 1.203 1.508 1.582-.379 2.489-.453 4.293-.528h1.73l.079-1.207c.676-10.617 6.398-18.144 15.511-20.48 10.614-2.707 20.63 4.144 15.434 10.617-2.41 2.938-5.195 4.442-13.176 6.852-6.851 2.035-9.336 3.164-11.144 4.746l-.676.676.977.378c4.894 2.106 7.98 5.497 10.39 11.442.528 1.207 1.282 2.937 1.657 3.918 2.41 5.344 3.238 7.379 3.538 8.883 1.657 7.379-4.292 13.703-15.058 16.187l-1.281.305.98.75c9.188 7.68 12.2 19.73 5.27 21.46-.977.227-.977.977-.227 2.333.305.527.68 1.207.828 1.508.38.754.38.754.68.074 2.11-4.442 6.55-6.625 9.41-4.594.227.152.606.379.828.379 3.992.828 1.657 8.055-4.289 13.477-5.047 4.593-7.23 5.195-9.941 2.71-.977-.902-3.84-1.882-7.38-2.484l-1.202-.152-1.282.379c-.675.226-1.73.527-2.332.675-.68.153-1.207.227-1.207.227s.153.602.301 1.281c.453 1.73.606 3.313.453 4.14-1.054 6.173-16.941-1.429-19.05-9.034-.301-.98-.375-1.055-.829-.903-1.054.223-2.558 0-3.312-.68-.3-.226-.375-.3-1.281-.3-2.559 0-4.29-1.73-4.29-4.219v-.902l-.601-.3c-2.11-1.13-1.96-4.368.223-5.345.379-.078.527-.226.453-.304-1.13-4.063 4.215-7.38 7.379-4.516l.375.375.453-.3c.601-.376 1.43-.677 1.957-.677s.828-.379 2.637-3.539c2.109-3.765 2.71-4.968 2.937-6.25.45-2.035 1.356-4.218 2.485-6.023l.449-.754-.528-.226c-15.207-6.172-16.113-29.665-1.504-37.044.301-.152.602-.3.602-.3.074 0-.3-.453-.676-1.055-7.004-9.488-7.68-19.504-1.808-26.73 3.465-4.293 9.035-6.778 13.402-6.024m.152.977c2.934.679 3.989 2.562 3.614 6.328-.38 3.16-1.13 5.117-4.293 10.613-3.688 6.477-4.516 9.113-4.215 13.027l.074.676-.676.305c-.906.375-.832.375.75.148 12.801-1.882 20.254 1.809 24.399 12.047.828 2.035 1.203 2.864 2.707 6.25 2.636 5.797 3.164 7.832 2.488 10.617-2.488 10.016-22.137 14.985-35.316 8.887-14.832-6.777-14.23-27.336 1.054-36.293.828-.527.903-.601.153-.379-.829.227-.829.227-1.508-.75-6.024-8.058-7.38-16.039-3.914-22.816 2.86-5.797 9.562-9.711 14.683-8.66m-.379 5.121c.528.152 1.508.679 1.508.828 0 0-.3-.074-.754-.149-1.129-.226-1.054-.3-1.129 1.504-.152 3.692-.68 5.348-3.238 10.543-2.484 4.895-3.238 6.7-3.465 8.735l-.148.828.45 1.203c.605 1.355.526 1.355-.224.301-6.851-10.239-1.96-26.653 7-23.793m-1.43 2.484c-.074 3.238-.527 4.82-2.335 8.586-2.559 5.27-3.461 7.602-3.762 9.637l-.078.676-.527-1.504c-3.086-9.336-.223-18.149 6.25-19.2l.527-.078zm28.462.828c5.27.981 9.113 4.821 7.906 7.832-1.43 3.387-4.82 5.422-13.856 8.207-7.527 2.332-10.164 3.539-11.968 5.422l-.453.528-1.282-.227c-.75-.152-1.504-.301-1.73-.379-.227 0-.602-.074-.754-.148h-.3l.073-1.356c.68-12.875 10.918-21.984 22.364-19.879m-1.13 4.446c2.56.527 4.669 2.257 4.895 4.14l.075.449-.301-.527c-.227-.223-.453-.601-.602-.676l-.3-.3-.903.976c-2.637 2.563-4.367 3.617-8.66 5.121-7.906 2.863-9.863 3.992-10.77 6.176-.523 1.355-.601 1.355-.3-.227 1.507-8.961 9.941-16.492 16.867-15.132m.075 1.128c.828.149 2.637.903 2.863 1.204.075.148-1.43 1.73-2.562 2.636-1.805 1.504-3.086 2.184-6.098 3.313-5.723 2.183-7.68 3.086-9.637 4.668l-.3.226.226-.679c3.613-8.207 9.485-12.496 15.508-11.368m-21.309 34.86c3.918 1.43 3.692 7.379-.222 8.36-2.637.675-5.047-1.884-4.672-4.895.379-2.485 2.789-4.219 4.894-3.465m14.309.68c2.934 1.656 1.957 7.226-1.207 7.226-2.332.074-3.762-3.16-2.559-5.722.754-1.657 2.41-2.258 3.766-1.504m-15.887.828c.45.3.676.675.676 1.277 0 1.207-1.355 1.809-2.258.98-1.207-1.054.227-3.085 1.582-2.257m14.38.449c.378.227.526.828.3 1.281-.375.903-1.656.68-1.805-.375-.152-.828.828-1.433 1.504-.906m-4.294 7.23c1.961.301 2.184 1.43.606 2.711l-.38.301v1.582c0 1.504 0 1.578.227 1.73.528.376 1.582.153 2.336-.527.45-.375.45-.3.149.227-.602 1.055-1.883 1.43-3.012.902-.3-.148-.375-.148-.527 0-1.278 1.13-4.668.906-5.496-.45-.376-.604-.301-.679.074-.304 1.207 1.055 4.066 1.133 5.047.078.453-.527.601-1.128.453-2.562l-.078-.528-.602-.222c-3.613-1.133-2.637-3.54 1.203-2.938M28.938-74.488c1.054.375 3.011.828 4.218 1.05l1.13.153v1.129c0 1.808-.755 7.453-.981 7.68-.375.453-3.16-4.368-3.914-6.7q-.679-1.809-.227.45c.68 4.14 3.238 7.605 7.754 10.617 2.563 1.656 3.539 3.011 3.539 4.746v.902l-.602.375c-.828.379-1.804.379-2.632.074-.606-.3-.453-.074.222.305a4.1 4.1 0 0 0 2.262.45c.527-.15.602-.15.148.526-.976 1.508-2.558 2.036-4.066 1.282-.527-.227-.527-.227-.3 0 .152.074.527.3.827.527.828.375.68.45-.675.45-4.22 0-9.114-5.419-10.391-11.442-.906-4.145-.152-8.434 2.258-12.05.527-.829.527-.829 1.43-.524m17.019 2.031c6.625 5.422 10.086 11.973 8.883 16.789-.375 1.809-1.582 3.164-2.938 3.39l-.375.075.453-.453c.223-.223.528-.524.602-.75l.227-.38-.453.38c-1.204 1.129-3.012 1.129-4.067 0l-.375-.453.527-.153c.75-.074 1.504-.523 1.957-1.203.528-.676.528-.828 0-.3-1.207 1.203-2.863 1.128-3.164-.075-.527-1.808.075-3.539 1.657-4.52 1.656-1.054 2.562-2.558 2.562-3.988v-.453l-.226.453c-.454.977-1.055 1.88-1.13 1.805-.078-.074-.3-.676-.605-1.43-.75-1.808-2.707-5.722-3.988-7.832-1.356-2.332-1.356-2.41.453-.902m-1.582.98c2.031 3.235 3.238 5.645 4.367 8.43.75 1.883.75 1.656-.226 2.262-3.766 2.406-2.637 8.656 1.656 9.484.754.078.754 0 .453 1.434-.68 3.386-2.79 6.625-4.895 7.601-6.628 3.164-13.101-.449-14.007-7.754l-.075-.601.903.453c8.058 3.762 12.5-5.8 4.972-10.695-1.582-1.051-2.789-2.032-3.39-2.633l-.301-.3.227-1.735c.453-2.711.675-4.14.675-5.946l.078-1.734 1.13.074c1.43.153 4.742.153 6.25 0l1.203-.074zm-20.48 7.528c.449 4.894 3.312 10.164 6.925 12.726.153.149.227.301.301.977.906 7.23 6.93 11.371 13.328 9.113.528-.152-1.054.75-2.258 1.356a31 31 0 0 1-4.82 1.656c-1.43.3-1.355.375-1.805-.754-2.937-7.453-7.382-11.82-10.617-10.543-.605.227-.68.227-1.055.152-2.71-.98-5.949 1.657-5.347 4.293.074.375.074.524-.074.75-.153.153-.301.606-.375.907-.227.675-.305.675-.907-.754-1.804-3.84-1.054-8.36 2.336-13.477 1.356-2.184 2.258-3.691 3.387-5.723.453-.828.828-1.507.828-1.507.078 0 .078.3.152.828M13.73-58c.75.227 1.578.828 2.03 1.504.454.605.376.605.755 0 .3-.45.828-.828 1.43-.977.374-.152.374-.152-.227.828-2.711 4.442-3.16 9.489-1.278 13.329.524 1.05.524.976-.304.976-.75 0-1.356-.226-1.957-.828l-.45-.375-.605.148c-1.805.38-3.613-.902-3.84-2.785-.074-.453 0-.828.3-2.03.08-.227 0-.227-.374-.227-1.203 0-2.031-.903-2.031-2.036 0-1.129.828-1.957 2.105-1.957h.527l-.3-.675c-1.13-2.786 1.355-5.723 4.218-4.895m47.585 6.098c2.106.3 2.938 1.883 2.258 4.593-.074.301-.074.301.074.075.301-.375.68-1.582.68-2.332 0-.754.149-.754.375 0 .528 1.957-.45 4.593-2.71 7.453l-.755.98-.449-.379c-1.734-1.582-8.059 3.766-7.305 6.176.227.902-1.882.227-3.238-1.055-.902-.828-3.238-1.656-6.625-2.336l-.828-.222.754-.38c3.687-2.03 6.398-5.042 7.527-8.433.301-1.054.227-1.054 1.055.606.828 1.578.828 1.504.527 2.633-.3.98-.527 2.562-.453 2.41.078 0 .305-.528.527-1.055 2.485-5.57 4.293-7.527 6.176-6.477q1.24.68 1.13 2.489v.601l-.15-.379c-.527-1.277-2.335.153-1.882 1.434.375.902 1.43.527 1.805-.527.152-.528.226-.227.078.375-.153.527.074.226.449-.528.98-2.258.3-4.215-1.656-4.742-.301-.074-.528-.226-.453-.226.152-.301 1.96-.903 2.41-.829 0 0 .3 0 .68.075m1.957 2.336c.602.375.454 1.957-.226 2.71-.902.977-1.809.149-1.43-1.128.301-1.282 1.055-1.961 1.656-1.582m0 .375c.602.828-.601 3.164-1.28 2.336-.376-.454-.15-1.657.452-2.262.301-.375.602-.375.828-.074m-35.539.902c4.668 2.336 10.54 16.113 7.606 17.848-2.262 1.277-9.113-1.657-13.254-5.649-2.711-2.558-3.688-4.969-3.086-7.004l.148-.3.38.453a5 5 0 0 0 2.183 1.43l.754.226-1.133-1.055c-1.957-1.957-2.258-3.46-.828-5.043 1.734-1.957 4.293-1.207 5.8 1.656.302.602.528.829.45.676-.227-1.277-.527-2.183-1.129-2.86-.676-.905.602-1.128 2.11-.378m.676.906c.828.828.68 1.805-.226 1.883-.676.074-1.657-1.055-1.43-1.809.226-.675.98-.675 1.656-.074m-.226.301c.527.527.527 1.203 0 1.281-.524.074-1.278-.98-.977-1.508.148-.3.602-.226.977.227m31.324.074c.226.153.152.828-.074 1.281-.528.676-1.207.602-1.207-.152 0-.828.828-1.582 1.28-1.129m-35.914.453c1.883.828 2.183 3.614.375 3.614-2.184 0-3.239-3.465-1.13-3.614.302-.078.602 0 .755 0m0 .45c.226.152.601.378.75.605 1.355 1.504-.075 3.086-1.578 1.73-1.434-1.28-.754-3.164.828-2.335m36.594 4.52c.148.073.374.226.527.452l.222.223-1.203 1.207c-2.03 1.957-5.195 4.367-5.875 4.367-.3 0 .305-1.508 1.055-2.562 1.734-2.485 3.992-4.063 5.273-3.688m-39.383.3c.453.3.832 1.054.68 1.43-.301 1.207-2.11.527-2.258-.829-.079-.828.75-1.203 1.578-.601m-.149.3c.903.68.528 1.81-.453 1.208-.375-.153-.676-.68-.676-.98 0-.528.602-.677 1.13-.227m8.961.301c3.238 1.13 5.797 5.496 4.668 7.758-1.582 3.16-7.453-.453-8.207-4.972-.379-2.258 1.277-3.614 3.54-2.786m-.379.227c2.711.828 5.274 4.219 4.973 6.55-.379 3.313-5.348 1.731-7.305-2.331-1.281-2.864-.152-4.973 2.332-4.219"/><path fill="#f2f2f2" d="M93.188-103.699c.98.527.902 2.031-.075 2.484-1.129.449-2.11-.601-1.734-1.73.227-.754 1.055-1.133 1.808-.754m14.23.375c.602.226.754 1.054.379 1.508-.527.675-1.582.375-1.66-.454 0-.828.605-1.355 1.281-1.054m-3.465 6.097c4.367.38 7.906 1.434 10.543 3.09l.754.528-.227.527c-4.293 10.766-26.957 14.23-38.476 5.797-.453-.3-.754-.602-.754-.68 6.629-5.87 19.277-10.012 28.16-9.262m-.074 1.208c1.508.375 1.656 1.128.379 2.41l-.754.75.148.828c.078.605.078 1.054 0 1.433-.148.676-.074.75.227.903.527.3 1.43.074 2.184-.528.527-.375.601-.375.375.153-.602 1.05-2.032 1.578-3.008 1.05-.379-.148-.453-.148-.528-.074-.98 1.13-4.144 1.055-5.421-.226-.68-.676-.754-1.051-.079-.528 2.184 1.657 5.422.754 5.422-1.504-.074-1.355-.074-1.43-.902-1.73-1.203-.453-2.41-1.356-2.41-1.883 0-.754 2.859-1.433 4.367-1.054m-6.55 14.605c1.73 2.41 4.366 7.605 5.573 10.844l.301.675-.906.606c-3.762 2.406-2.484 8.957 1.808 9.484l.528.078-.153.829c-1.957 12.421-16.94 12.574-18.898.226l-.074-.453.601.375c7.832 4.293 13.102-5.871 5.422-10.617-1.203-.75-2.41-1.656-3.312-2.485l-.528-.449.301-1.808a73 73 0 0 0 .754-6.176l.074-1.356.903.079c.98.074 6.777 0 7.156-.079.223-.074.3 0 .45.227"/><path fill="#ccc" d="M90.55-154.074c1.583.304 3.165 1.433 3.466 3.09.453 2.183.074 4.441-.528 6.55-1.882 5.418-5.797 9.938-7.453 15.508-.527 1.809-.527 3.692-.3 5.496-.38.153-1.81.68-.829.528 5.196-.75 10.84-1.051 15.813 1.132 4.215 1.805 7.301 5.719 9.109 9.938 1.356 3.465 3.012 6.852 4.442 10.316.906 2.332 1.882 4.895 1.128 7.38 0 .827-.527.226-.902 0-4.516-2.864-10.09-3.466-15.36-3.09-8.284.68-16.413 3.84-22.964 9.035-.528.226-.078.906-.68.304-1.957-2.035-3.765-4.219-4.742-6.851-2.559-6.028-1.582-13.102 1.883-18.524 2.183-3.617 5.344-6.476 8.96-8.586.45-.523-1.355.68-1.507-.3-3.465-4.594-6.25-10.165-6.098-16.114.149-5.043 2.633-9.937 6.7-12.949 2.785-2.031 6.324-3.539 9.863-2.863m-.374 5.121c.601.152 2.183 1.055.754.68-1.434-.606-1.055 1.277-1.13 2.183-.077 2.785-1.054 5.418-2.26 7.828-1.505 3.239-3.388 6.324-4.29 9.789-.078.602-.227 1.282-.3 1.883.3.754.675 1.43.827 2.184-1.355-1.657-2.261-3.692-2.937-5.797-1.43-4.746-1.207-10.09 1.054-14.61 1.204-2.332 3.462-4.515 6.25-4.441.676 0 1.43.074 2.032.301m27.031 3.312c2.938.606 6.023 2.036 7.606 4.746.675 1.129.675 2.707-.079 3.84-1.578 2.86-4.668 4.215-7.527 5.418-5.047 2.035-10.465 3.016-15.285 5.5-1.203.676-2.184 1.504-3.086 2.485-1.355-.301-2.711-.528-4.067-.754.075-3.84.903-7.754 2.712-11.145 2.785-5.344 8.128-9.484 14.23-10.238 1.805-.227 3.687-.152 5.496.148m-1.129 4.446c2.184.449 4.516 1.879 4.895 4.215.222.828-.453-.602-.68-.754-.375-.602-.676-.149-.977.226-1.808 1.883-3.918 3.539-6.402 4.52-3.687 1.504-7.68 2.558-11.219 4.668-1.203.675-2.03 1.882-2.484 3.234-.375.527.074-1.051.074-1.352 1.129-5.648 4.82-10.843 9.942-13.554 2.109-1.055 4.515-1.656 6.851-1.203m-21.234 35.988c2.484.828 3.539 4.066 2.336 6.25-.907 2.035-3.692 3.012-5.5 1.582-2.258-1.656-2.332-5.496-.075-7.152.907-.754 2.184-1.055 3.239-.68m14.304.68c2.11 1.281 2.262 4.441.832 6.25-.906 1.277-3.089 1.355-4.066.074-1.582-1.883-1.281-5.274.977-6.402.754-.375 1.582-.301 2.257.078M82.797-82.992c1.73.601 3.539.902 5.347 1.203 0 2.86-.378 5.723-.828 8.508-.453.902-1.207-.98-1.582-1.356-1.128-1.808-2.109-3.687-2.785-5.722-.305.152.223 1.808.375 2.484 1.13 4.14 4.442 7.305 7.907 9.563 1.582 1.054 3.16 2.562 3.085 4.593 0 .375.153.903-.453.98-.902.602-2.105.602-3.086.075.38.527 1.508.902 2.336.902 1.13-.375.903.38.301.907-.828 1.203-2.637 1.578-3.918.828-.902-.078 2.262 1.129.606 1.05-2.938.227-5.496-1.804-7.305-3.988-3.387-3.992-4.969-9.562-3.613-14.61.527-1.956 1.355-3.913 2.632-5.495.301-.227.68 0 .98.078m17.016 2.031c3.765 3.086 7.152 6.926 8.66 11.594.675 2.41.828 5.422-.903 7.457-.527.676-1.355 1.054-2.183 1.203.527-.453.976-.977 1.277-1.582-.902.98-2.332 1.582-3.613 1.055-.449-.227-1.129-.828-1.281-1.203 1.281 0 2.41-.754 2.863-1.883-.754.675-1.809 1.504-2.938 1.054-.976-.68-.828-2.109-.675-3.09.3-1.277 1.429-2.105 2.41-2.785 1.203-.902 2.031-2.41 1.879-3.914-.375.754-.75 1.657-1.356 2.258-1.43-3.613-3.234-7.078-5.27-10.465-.976-1.656.754.075 1.13.301m-22.06 8.508c.45 4.52 2.56 8.887 5.946 11.973 1.207.527 1.356 1.73 1.508 2.937.676 3.54 3.16 6.926 6.7 8.055 2.109.754 4.445.601 6.476-.149-2.41 1.578-5.27 2.711-8.133 3.235-1.055-.301-.977-1.957-1.582-2.785-1.504-3.086-3.312-6.25-6.172-8.133-1.207-.828-2.785-1.13-4.066-.45-1.43-.152-3.086-.453-4.368.676-1.355.828-2.03 2.485-1.656 4.067-.3.453-.601 2.41-1.054 1.129-1.583-2.786-1.583-6.172-.528-9.11 1.207-3.691 3.766-6.625 5.574-10.015.375-.528.977-2.184 1.278-2.032 0 .149.078.375.078.602m-10.167 5.95c1.055.3 1.808 1.054 2.336 1.956.45-.375 1.582-1.883 2.11-1.355-2.263 3.465-3.54 7.754-2.563 11.82.152 1.129.98 2.184 1.129 3.238-1.13.227-2.184-.3-2.934-1.129-.68 0-1.355.301-2.035.075-1.805-.375-3.012-2.485-2.332-4.215.75-1.43-1.656-.528-1.961-1.73-.828-1.134-.074-2.938 1.355-3.09.528 0 1.282.152.754-.528-.976-2.031.38-4.816 2.637-5.117.527-.078 1.055-.078 1.504.074m47.59 6.097c1.203.074 2.406 1.129 2.484 2.41.149.676-.379 2.184-.152 2.258.601-.828.601-1.957.754-2.934.828 1.352.375 3.086-.153 4.516-.754 1.656-1.882 3.086-3.011 4.52-.528-.68-1.504-.829-2.258-.454-2.184.828-3.992 2.485-5.195 4.516-.68.754.226 2.789-1.43 1.96-1.434-.452-2.336-1.734-3.692-2.183-1.882-.828-3.914-1.207-5.87-1.656 3.761-1.883 7.152-5.047 8.355-9.188.453-.902.906 1.055 1.281 1.504.828 1.055.074 2.336-.074 3.54-.152.453-.227 1.507.148.527 1.055-2.332 2.035-4.817 3.918-6.7.828-.902 2.407-.828 3.086.149.602.754.602 1.656.528 2.562-.227-1.355-1.957-.754-2.036.375-.449 1.508 1.657 1.43 1.809.153.453-.828-.301 1.43.301.3.828-1.43 1.054-3.538-.375-4.667-.305-.528-2.336-.606-.981-1.13.828-.304 1.657-.605 2.563-.378m1.957 2.336c.75.902.222 2.558-.754 3.086-1.43.226-1.055-1.957-.453-2.711.301-.301.754-.676 1.207-.375m-35.54 1.277c2.184 1.281 3.614 3.54 4.97 5.723 1.581 2.937 3.085 6.101 3.386 9.488.153 1.129-.074 2.785-1.504 2.863-2.336.301-4.52-.754-6.629-1.734-3.16-1.656-6.246-3.84-8.207-6.926-.828-1.355-1.277-3.012-.601-4.52.754 1.055 2.035 1.735 3.312 2.11-1.203-1.203-2.785-2.332-2.86-4.215.15-1.883 2.185-3.539 4.067-2.789 1.504.527 2.332 1.883 3.012 3.164.148-.602-.527-2.184-1.129-3.012-.379-1.129 1.656-.375 2.184-.152m.676.906c1.13.676.227 2.633-.902 1.657-1.207-.528-.754-2.864.676-1.81l.074.075zm-4.82.828c1.133.528 2.035 2.032 1.356 3.16-.903.981-2.485.227-2.934-.828-.605-.828-.453-2.332.828-2.332a1.23 1.23 0 0 1 .75 0m-2.785 5.27c1.582.754.227 3.012-1.055 1.656-1.203-.902-.148-2.71 1.055-1.656m8.809.602c2.488.98 4.367 3.238 4.894 5.796.301 1.282-.3 2.938-1.805 3.164-1.956.153-3.765-1.28-4.968-2.71-1.133-1.356-2.035-3.16-1.582-4.97.375-1.507 2.183-1.808 3.46-1.28"/><path fill="#f8b2b0" d="M88.746-146.469c-.078 3.239-.527 4.821-2.336 8.586-2.558 5.27-3.46 7.602-3.766 9.637l-.074.676-.527-1.504c-3.086-9.336-.227-18.149 6.25-19.199l.527-.079zm27.406 6.403c.828.148 2.637.902 2.864 1.203.074.152-1.434 1.73-2.563 2.636-1.808 1.504-3.086 2.184-6.098 3.313-5.722 2.184-7.679 3.086-9.636 4.668l-.305.226.227-.679c3.617-8.207 9.488-12.496 15.511-11.367m.981 82.37c.601.829-.606 3.165-1.281 2.337-.375-.453-.153-1.657.453-2.262.3-.375.601-.375.828-.074m-35.09 2.11c.527.527.527 1.203 0 1.281-.527.075-1.277-.98-.977-1.508.149-.3.602-.226.977.227m31.324.074c.227.153.149.828-.078 1.282-.523.675-1.203.601-1.203-.153 0-.828.828-1.582 1.281-1.129m-35.918.903c.227.152.606.379.754.605 1.356 1.504-.074 3.086-1.582 1.73-1.43-1.28-.75-3.163.828-2.335m36.594 4.52c.152.073.379.226.527.452l.227.223-1.203 1.207c-2.035 1.957-5.196 4.367-5.875 4.367-.301 0 .301-1.508 1.054-2.562 1.731-2.485 3.993-4.063 5.27-3.688m-39.527.6c.902.68.527 1.81-.454 1.208-.374-.153-.675-.68-.675-.98 0-.528.601-.68 1.129-.227m8.582.528c2.71.828 5.27 4.219 4.968 6.55-.375 3.313-5.343 1.731-7.3-2.331-1.282-2.864-.153-4.973 2.332-4.219"/><path d="M90.402-155.051c3.387.528 4.742 2.258 4.742 6.098 0 3.613-.902 6.176-4.515 12.426-3.238 5.797-4.067 7.98-4.067 11.066 0 1.809 0 1.809 1.204 1.508 1.582-.379 2.484-.453 4.293-.527h1.73l.074-1.208c.68-10.617 6.403-18.144 15.512-20.48 10.617-2.711 20.633 4.141 15.438 10.617-2.411 2.938-5.196 4.442-13.176 6.852-6.856 2.035-9.34 3.164-11.145 4.746l-.68.676.981.375c4.895 2.109 7.98 5.5 10.391 11.445.527 1.207 1.281 2.937 1.656 3.918 2.41 5.344 3.238 7.379 3.539 8.883 1.656 7.379-4.293 13.703-15.059 16.187l-1.281.305.981.75c9.183 7.68 12.195 19.73 5.269 21.46-.98.227-.98.977-.226 2.333.3.527.679 1.207.828 1.508.379.754.379.754.679.074 2.106-4.441 6.551-6.625 9.41-4.594.227.153.602.38.829.38 3.992.827 1.656 8.054-4.293 13.476-5.043 4.593-7.227 5.195-9.938 2.71-.976-.902-3.84-1.882-7.379-2.484l-1.203-.152-1.281.379a37 37 0 0 1-2.336.676c-.676.152-1.203.226-1.203.226s.152.602.3 1.281c.454 1.73.602 3.313.454 4.141-1.055 6.172-16.942-1.43-19.051-9.035-.3-.98-.375-1.055-.828-.906-1.055.226-2.559 0-3.313-.676-.3-.227-.379-.301-1.281-.301-2.559 0-4.293-1.73-4.293-4.219v-.902l-.602-.3c-2.105-1.13-1.956-4.368.227-5.345.375-.078.527-.226.453-.304-1.129-4.063 4.215-7.38 7.38-4.516l.374.375.453-.3c.602-.376 1.43-.677 1.957-.677s.828-.378 2.637-3.538c2.105-3.766 2.71-4.97 2.934-6.25.453-2.036 1.355-4.22 2.484-6.024l.453-.754-.527-.226c-15.211-6.172-16.114-29.665-1.504-37.043.3-.153.601-.301.601-.301.075 0-.3-.453-.68-1.055-7-9.488-7.679-19.504-1.804-26.73 3.46-4.293 9.035-6.778 13.402-6.024m.149.977c2.937.679 3.992 2.562 3.617 6.328-.379 3.16-1.133 5.117-4.293 10.613-3.691 6.477-4.52 9.113-4.219 13.028l.078.675-.68.301c-.902.379-.827.379.755.152 12.8-1.882 20.254 1.809 24.394 12.047.828 2.035 1.207 2.864 2.711 6.25 2.637 5.797 3.164 7.832 2.484 10.618-2.484 10.015-22.136 14.984-35.312 8.886-14.832-6.777-14.23-27.336 1.055-36.293.828-.527.902-.601.148-.379-.828.227-.828.227-1.504-.754-6.023-8.054-7.379-16.035-3.914-22.812 2.86-5.797 9.563-9.715 14.68-8.66m-.375 5.121c.527.152 1.504.68 1.504.828 0 0-.301-.074-.75-.148-1.13-.227-1.055-.301-1.13 1.503-.152 3.692-.679 5.348-3.237 10.543-2.485 4.891-3.239 6.7-3.465 8.735l-.149.828.45 1.203c.601 1.356.527 1.356-.227.301-6.852-10.238-1.957-26.653 7.004-23.793m-1.43 2.484c-.078 3.239-.527 4.821-2.336 8.586-2.558 5.27-3.46 7.602-3.766 9.637l-.074.676-.527-1.504c-3.086-9.336-.227-18.149 6.25-19.199l.527-.079zm28.461.828c5.27.981 9.109 4.821 7.906 7.832-1.429 3.387-4.82 5.422-13.855 8.207-7.528 2.332-10.164 3.539-11.973 5.422l-.45.528-1.28-.227c-.754-.152-1.508-.301-1.73-.379-.227 0-.606-.074-.755-.148h-.3l.074-1.356c.68-12.875 10.918-21.984 22.363-19.879m-1.129 4.446c2.559.523 4.668 2.257 4.895 4.14l.074.45-.301-.528c-.226-.222-.453-.601-.601-.676l-.301-.3-.906.976c-2.633 2.563-4.368 3.617-8.657 5.121-7.91 2.864-9.867 3.992-10.77 6.176-.527 1.356-.6 1.356-.3-.227 1.508-8.96 9.937-16.492 16.867-15.132m.074 1.129c.828.148 2.637.902 2.864 1.203.074.152-1.434 1.73-2.563 2.636-1.808 1.504-3.086 2.184-6.098 3.313-5.722 2.184-7.679 3.086-9.636 4.668l-.305.226.227-.679c3.617-8.207 9.488-12.496 15.511-11.367m-21.308 34.859c3.914 1.43 3.691 7.379-.227 8.36-2.633.675-5.043-1.884-4.668-4.895.38-2.485 2.785-4.219 4.895-3.465m14.304.68c2.938 1.656 1.961 7.226-1.203 7.226-2.336.074-3.765-3.16-2.558-5.722.75-1.657 2.41-2.258 3.761-1.504m-15.886.828c.453.301.68.676.68 1.277 0 1.207-1.356 1.809-2.262.981-1.203-1.055.226-3.086 1.582-2.258m14.383.453c.375.223.527.824.3 1.277-.375.903-1.656.68-1.808-.375-.149-.828.828-1.433 1.508-.902m-4.293 7.227c1.957.3 2.183 1.43.601 2.71l-.375.301v1.582c0 1.504 0 1.578.227 1.73.527.376 1.582.153 2.332-.527.453-.375.453-.3.152.227-.601 1.055-1.883 1.43-3.012.902-.3-.148-.375-.148-.527 0-1.281 1.13-4.668.903-5.496-.449-.375-.605-.3-.68.074-.305 1.207 1.055 4.067 1.133 5.043.079.453-.528.606-1.13.453-2.563l-.074-.527-.602-.223c-3.613-1.133-2.636-3.54 1.204-2.937M82.797-82.992c1.055.375 3.012.828 4.215 1.05l1.132.153v1.129c0 1.808-.753 7.453-.98 7.68-.375.453-3.164-4.368-3.914-6.7-.453-1.207-.527-1.054-.227.45.676 4.14 3.239 7.605 7.754 10.617 2.563 1.656 3.54 3.011 3.54 4.746v.902l-.602.375c-.828.38-1.809.38-2.637.074-.601-.3-.45-.074.227.305.68.375 1.582.527 2.257.45.528-.15.606-.15.153.527-.98 1.507-2.559 2.035-4.067 1.28-.527-.226-.527-.226-.3 0 .148.075.527.302.828.528.828.375.676.45-.68.45-4.215 0-9.11-5.418-10.39-11.442-.903-4.144-.149-8.434 2.261-12.05.527-.829.527-.829 1.43-.524m17.016 2.031c6.625 5.422 10.089 11.973 8.886 16.79-.379 1.808-1.582 3.163-2.937 3.39l-.375.074.449-.453c.227-.223.527-.524.602-.75l.226-.38-.449.38c-1.207 1.129-3.012 1.129-4.067 0l-.378-.453.527-.153c.754-.074 1.508-.523 1.961-1.203.523-.675.523-.828 0-.3-1.207 1.203-2.863 1.128-3.164-.075-.528-1.808.074-3.539 1.656-4.52 1.656-1.054 2.559-2.558 2.559-3.988v-.453l-.223.453c-.453.977-1.055 1.88-1.133 1.805-.074-.074-.301-.676-.601-1.43-.75-1.808-2.711-5.722-3.989-7.832-1.355-2.332-1.355-2.41.45-.902m-1.582.98c2.035 3.235 3.238 5.645 4.371 8.43.75 1.883.75 1.657-.231 2.262-3.762 2.406-2.633 8.656 1.66 9.484.75.078.75 0 .449 1.434-.675 3.387-2.785 6.625-4.894 7.602-6.625 3.163-13.102-.45-14.004-7.754l-.074-.602.902.453c8.059 3.762 12.5-5.8 4.969-10.695-1.578-1.051-2.785-2.031-3.387-2.633l-.3-.3.226-1.735c.45-2.711.676-4.14.676-5.946l.074-1.734 1.133.074c1.43.153 4.742.153 6.246 0l1.207-.074zm-20.477 7.528c.45 4.894 3.312 10.164 6.926 12.726.148.149.226.301.3.977.903 7.23 6.926 11.371 13.329 9.113.527-.152-1.055.75-2.262 1.356-1.504.675-3.313 1.277-4.816 1.656-1.43.3-1.356.375-1.81-.754-2.937-7.453-7.378-11.82-10.616-10.543-.602.227-.676.227-1.051.152-2.711-.98-5.95 1.657-5.348 4.293.075.375.075.524-.074.75-.152.153-.3.606-.379.907-.226.675-.3.675-.902-.754-1.809-3.84-1.055-8.36 2.336-13.477 1.351-2.183 2.257-3.691 3.386-5.722.454-.829.829-1.508.829-1.508.074 0 .074.3.152.828m-10.168 5.95c.754.226 1.582.827 2.035 1.503.45.606.375.606.75 0 .305-.45.832-.828 1.434-.977.375-.152.375-.152-.227.829-2.71 4.441-3.164 9.488-1.281 13.328.527 1.05.527.976-.3.976-.755 0-1.356-.226-1.958-.828l-.453-.375-.602.149c-1.808.379-3.613-.903-3.84-2.786-.074-.453 0-.828.301-2.03.075-.227 0-.227-.375-.227-1.207 0-2.035-.903-2.035-2.036 0-1.129.828-1.957 2.11-1.957h.527l-.3-.675c-1.13-2.785 1.355-5.723 4.214-4.895m47.59 6.097c2.105.3 2.933 1.883 2.258 4.593-.079.301-.079.301.074.075.301-.375.68-1.582.68-2.332 0-.754.148-.754.375 0 .527 1.957-.454 4.593-2.711 7.453l-.754.98-.453-.379c-1.731-1.582-8.055 3.766-7.301 6.176.226.903-1.883.227-3.239-1.054-.902-.829-3.238-1.657-6.624-2.337l-.829-.222.75-.379c3.692-2.031 6.403-5.043 7.532-8.434.3-1.054.226-1.054 1.054.606.828 1.578.828 1.504.528 2.633-.301.98-.528 2.562-.453 2.41.074 0 .3-.528.527-1.055 2.484-5.57 4.293-7.527 6.176-6.476q1.241.678 1.129 2.488v.601l-.153-.379c-.527-1.277-2.332.153-1.883 1.434.379.902 1.43.527 1.809-.527.148-.528.227-.227.074.375-.148.527.074.226.453-.528.981-2.257.301-4.214-1.656-4.742-.301-.078-.527-.226-.453-.226.152-.301 1.957-.903 2.41-.828 0 0 .301 0 .68.074m1.957 2.336c.601.375.449 1.957-.227 2.71-.902.977-1.808.15-1.429-1.128.3-1.282 1.05-1.961 1.656-1.582m0 .375c.601.828-.606 3.164-1.281 2.336-.375-.453-.153-1.657.453-2.262.3-.375.601-.375.828-.074m-35.54.902c4.669 2.336 10.54 16.113 7.602 17.848-2.257 1.277-9.11-1.657-13.25-5.649-2.71-2.558-3.691-4.968-3.086-7.004l.149-.3.379.453a5 5 0 0 0 2.183 1.43l.75.226-1.129-1.055c-1.957-1.957-2.257-3.46-.828-5.043 1.73-1.957 4.293-1.207 5.797 1.657.3.601.528.828.453.675-.226-1.277-.527-2.183-1.129-2.86-.68-.905.602-1.128 2.11-.378m.676.906c.829.828.68 1.805-.226 1.883-.676.074-1.656-1.055-1.43-1.809.227-.675.98-.675 1.656-.074m-.226.301c.527.527.527 1.203 0 1.281-.527.075-1.277-.98-.977-1.508.149-.3.602-.226.977.227m31.324.074c.227.153.149.828-.078 1.282-.523.675-1.203.601-1.203-.153 0-.828.828-1.582 1.281-1.129m-35.918.453c1.883.828 2.184 3.614.38 3.614-2.184 0-3.24-3.465-1.13-3.614.301-.078.602 0 .75 0m0 .45c.227.152.606.379.754.605 1.356 1.504-.074 3.086-1.582 1.73-1.43-1.28-.75-3.163.828-2.335m36.594 4.52c.152.073.379.226.527.452l.227.223-1.203 1.207c-2.035 1.957-5.196 4.367-5.875 4.367-.301 0 .301-1.508 1.054-2.562 1.731-2.485 3.993-4.063 5.27-3.688m-39.379.3c.453.3.828 1.055.68 1.43-.301 1.207-2.11.527-2.262-.828-.074-.829.754-1.204 1.582-.602m-.148.3c.902.68.527 1.81-.454 1.208-.374-.153-.675-.68-.675-.98 0-.528.601-.68 1.129-.227m8.957.301c3.238 1.13 5.8 5.497 4.671 7.758-1.582 3.16-7.457-.453-8.21-4.972-.375-2.258 1.28-3.614 3.539-2.785m-.375.227c2.71.828 5.27 4.219 4.968 6.55-.375 3.313-5.343 1.731-7.3-2.331-1.282-2.864-.153-4.973 2.332-4.219"/><path fill="#eee5f1" d="M73.344-86.691c.98.527.906 2.03-.075 2.484-1.128.45-2.109-.602-1.73-1.734.227-.75 1.055-1.13 1.805-.75m14.23.375c.606.226.754 1.054.38 1.507-.528.676-1.583.375-1.657-.453 0-.828.601-1.355 1.277-1.054m-3.46 6.097c4.367.38 7.905 1.434 10.538 3.09l.754.527-.226.528c-4.29 10.765-26.953 14.23-38.477 5.797-.45-.301-.75-.602-.75-.68 6.625-5.871 19.274-10.012 28.16-9.262m-.079 1.207c1.508.375 1.66 1.13.38 2.41l-.755.75.153.829c.074.605.074 1.054 0 1.433-.153.676-.079.75.222.903.528.3 1.434.074 2.184-.528.527-.375.605-.375.379.153-.602 1.05-2.035 1.578-3.012 1.05-.379-.148-.453-.148-.527-.074-.98 1.129-4.141 1.055-5.422-.227-.676-.675-.754-1.05-.075-.527 2.184 1.66 5.422.754 5.422-1.504-.078-1.355-.078-1.43-.906-1.73-1.203-.453-2.41-1.356-2.41-1.883 0-.754 2.863-1.434 4.367-1.055m-6.55 14.606c1.734 2.41 4.367 7.605 5.574 10.844l.3.675-.902.606c-3.766 2.41-2.484 8.957 1.805 9.484l.527.078-.148.828c-1.961 12.422-16.942 12.575-18.903.227l-.074-.453.602.375c7.832 4.293 13.101-5.871 5.421-10.617-1.203-.75-2.41-1.657-3.312-2.485l-.527-.449.3-1.809c.38-2.257.606-4.293.754-6.175l.075-1.356.906.078c.976.075 6.773 0 7.152-.078.227-.074.3 0 .45.227"/><path fill="#b994c6" d="M70.71-137.066c1.58.3 3.161 1.433 3.462 3.089.453 2.184.078 4.442-.528 6.551-1.878 5.418-5.796 9.938-7.453 15.512-.527 1.805-.527 3.687-.3 5.492-.375.152-1.809.68-.829.527 5.196-.75 10.844-1.05 15.813 1.133 4.215 1.805 7.305 5.723 9.11 9.938 1.355 3.465 3.011 6.851 4.44 10.316.907 2.332 1.884 4.895 1.134 7.38 0 .827-.528.226-.907 0-4.515-2.864-10.09-3.466-15.359-3.09-8.281.679-16.414 3.84-22.965 9.038-.527.223-.074.903-.676.301-1.96-2.035-3.765-4.219-4.746-6.852-2.558-6.027-1.582-13.101 1.883-18.523 2.184-3.613 5.348-6.476 8.961-8.586.453-.527-1.355.68-1.508-.301-3.46-4.593-6.25-10.164-6.097-16.113.152-5.043 2.636-9.937 6.703-12.949 2.785-2.035 6.324-3.539 9.863-2.863m-.378 5.121c.602.152 2.184 1.054.754.679-1.43-.601-1.055 1.278-1.129 2.18-.074 2.789-1.055 5.426-2.258 7.832-1.508 3.238-3.39 6.324-4.293 9.789-.074.602-.226 1.281-.3 1.883.3.754.675 1.43.828 2.184-1.356-1.657-2.258-3.692-2.938-5.797-1.43-4.746-1.203-10.09 1.055-14.61 1.203-2.332 3.465-4.515 6.25-4.441.676 0 1.43.074 2.031.301m27.031 3.312c2.938.602 6.024 2.035 7.606 4.746.676 1.129.676 2.707-.074 3.84-1.582 2.859-4.668 4.215-7.532 5.418-5.043 2.035-10.465 3.016-15.285 5.5-1.203.676-2.184 1.504-3.086 2.484-1.355-.3-2.71-.527-4.066-.753.074-3.84.902-7.754 2.71-11.145 2.786-5.344 8.133-9.488 14.231-10.238 1.809-.227 3.692-.153 5.496.148m-1.129 4.445c2.184.45 4.52 1.879 4.895 4.215.226.828-.453-.601-.68-.754-.375-.601-.676-.152-.976.227-1.809 1.883-3.914 3.539-6.399 4.52-3.691 1.503-7.683 2.558-11.222 4.667-1.204.676-2.032 1.879-2.485 3.239-.375.523.078-1.055.078-1.36 1.13-5.644 4.817-10.839 9.938-13.55 2.11-1.055 4.52-1.657 6.851-1.204M75-88.199c2.484.828 3.54 4.066 2.336 6.25-.902 2.035-3.692 3.011-5.496 1.582-2.258-1.656-2.336-5.496-.074-7.152.902-.754 2.183-1.055 3.234-.68m14.309.68c2.105 1.277 2.257 4.44.828 6.25-.906 1.277-3.09 1.355-4.067.074-1.582-1.883-1.28-5.27.977-6.403.754-.375 1.582-.3 2.262.079M62.953-65.984c1.734.601 3.54.902 5.348 1.203 0 2.86-.38 5.722-.828 8.508-.454.902-1.207-.98-1.582-1.356-1.13-1.805-2.11-3.687-2.786-5.723-.3.153.227 1.809.376 2.485 1.128 4.14 4.44 7.304 7.906 9.562 1.582 1.055 3.164 2.563 3.086 4.594 0 .375.152.902-.45.98-.906.602-2.109.602-3.09.075.38.527 1.508.902 2.336.902 1.13-.375.903.379.301.906-.828 1.203-2.636 1.578-3.914.828-.902-.078 2.258 1.13.602 1.051-2.938.227-5.496-1.804-7.305-3.988-3.387-3.992-4.969-9.562-3.613-14.61.527-1.956 1.355-3.914 2.637-5.495.3-.227.675 0 .976.078m17.02 2.03c3.761 3.087 7.152 6.927 8.656 11.595.68 2.41.828 5.422-.902 7.457-.528.675-1.356 1.054-2.184 1.203.527-.453.98-.977 1.281-1.582-.906.98-2.336 1.582-3.617 1.054-.45-.226-1.129-.828-1.277-1.203 1.277 0 2.41-.754 2.86-1.883-.755.676-1.806 1.504-2.938 1.055-.977-.68-.829-2.11-.676-3.09.3-1.277 1.43-2.105 2.41-2.785 1.203-.902 2.031-2.41 1.883-3.914-.38.754-.754 1.656-1.356 2.258-1.433-3.613-3.238-7.078-5.273-10.465-.977-1.656.754.074 1.133.3m-22.063 8.51c.45 4.52 2.559 8.886 5.95 11.972 1.203.528 1.355 1.73 1.503 2.938.68 3.539 3.164 6.926 6.703 8.054 2.106.754 4.442.602 6.473-.148-2.406 1.578-5.27 2.711-8.129 3.234-1.054-.3-.98-1.957-1.582-2.785-1.508-3.086-3.312-6.25-6.176-8.129-1.203-.832-2.785-1.132-4.066-.453-1.43-.152-3.086-.453-4.367.676-1.356.828-2.032 2.484-1.657 4.066-.3.454-.601 2.41-1.054 1.13-1.578-2.786-1.578-6.172-.528-9.11 1.208-3.691 3.766-6.625 5.575-10.016.375-.527.976-2.183 1.28-2.03 0 .148.075.374.075.6m-10.164 5.949c1.05.3 1.805 1.055 2.332 1.957.453-.375 1.582-1.883 2.11-1.355-2.258 3.464-3.54 7.753-2.56 11.82.15 1.129.977 2.183 1.13 3.238-1.13.227-2.184-.3-2.938-1.129-.68 0-1.355.3-2.035.074-1.804-.375-3.012-2.484-2.332-4.215.754-1.43-1.656-.527-1.957-1.73-.828-1.133-.078-2.937 1.356-3.09.527 0 1.277.153.75-.527-.977-2.031.379-4.816 2.636-5.117.528-.078 1.055-.078 1.508.074m47.586 6.098c1.203.074 2.41 1.129 2.484 2.41.149.68-.375 2.183-.152 2.258.605-.829.605-1.958.754-2.934.828 1.355.375 3.086-.149 4.516-.753 1.656-1.882 3.086-3.011 4.52-.527-.68-1.508-.829-2.262-.454-2.183.828-3.988 2.484-5.195 4.516-.676.753.226 2.789-1.43 1.96-1.43-.453-2.336-1.734-3.691-2.183-1.88-.828-3.914-1.207-5.871-1.656 3.765-1.883 7.152-5.047 8.359-9.188.45-.902.902 1.055 1.277 1.504.828 1.055.078 2.336-.074 3.54-.152.452-.227 1.507.152.526 1.051-2.331 2.032-4.816 3.915-6.699.828-.902 2.41-.828 3.085.149.602.754.602 1.656.528 2.562-.227-1.355-1.957-.754-2.032.375-.453 1.508 1.657 1.43 1.805.153.453-.829-.3 1.43.301.3.828-1.43 1.055-3.539-.375-4.668-.3-.527-2.336-.601-.98-1.129.828-.304 1.656-.605 2.562-.378m1.957 2.336c.754.902.227 2.558-.754 3.085-1.43.227-1.054-1.957-.45-2.71.302-.301.75-.676 1.204-.376M61.75-39.785c2.184 1.281 3.613 3.539 4.969 5.722 1.582 2.938 3.086 6.102 3.387 9.489.152 1.129-.075 2.785-1.504 2.863-2.336.3-4.52-.754-6.625-1.734-3.164-1.657-6.25-3.84-8.207-6.926-.829-1.356-1.282-3.012-.606-4.52.754 1.055 2.035 1.735 3.316 2.11-1.207-1.203-2.789-2.332-2.863-4.215.153-1.883 2.184-3.54 4.067-2.79 1.507.528 2.336 1.884 3.011 3.165.153-.602-.527-2.184-1.129-3.012-.375-1.129 1.657-.375 2.184-.152m.676.906c1.129.676.226 2.633-.903 1.656-1.203-.527-.754-2.863.68-1.808l.074.074zm-4.817.828c1.13.528 2.032 2.032 1.356 3.16-.906.98-2.485.227-2.938-.828-.601-.828-.453-2.332.828-2.332.227-.078.528-.078.754 0m-2.785 5.27c1.578.754.223 3.011-1.054 1.656-1.208-.902-.153-2.71 1.054-1.656m8.809.601c2.484.98 4.367 3.239 4.894 5.797.301 1.281-.3 2.938-1.808 3.164-1.957.153-3.766-1.281-4.969-2.71-1.129-1.356-2.035-3.16-1.582-4.97.375-1.507 2.184-1.808 3.465-1.28"/><path fill="#f8b2b0" d="M68.902-129.461c-.074 3.238-.527 4.82-2.332 8.582-2.562 5.274-3.464 7.609-3.765 9.641l-.078.675-.524-1.503c-3.09-9.336-.226-18.149 6.246-19.2l.528-.078zm27.407 6.402c.828.149 2.636.903 2.863 1.204.074.152-1.43 1.734-2.563 2.636-1.804 1.504-3.086 2.184-6.097 3.313-5.723 2.183-7.68 3.086-9.637 4.668l-.3.226.226-.679c3.613-8.207 9.484-12.497 15.508-11.368m.98 82.372c.602.828-.602 3.164-1.281 2.335-.375-.453-.149-1.656.453-2.261.3-.375.602-.375.828-.075m-35.086 2.109c.524.527.524 1.203 0 1.281-.527.074-1.281-.98-.98-1.508.148-.3.601-.226.98.227m31.32.074c.227.152.153.828-.074 1.281-.527.676-1.207.602-1.207-.152 0-.828.832-1.582 1.281-1.129m-35.914.902c.227.153.602.38.75.606 1.356 1.504-.074 3.086-1.578 1.73-1.433-1.28-.754-3.164.828-2.336m36.594 4.52c.149.074.375.227.528.453l.222.223L93.75-31.2c-2.031 1.957-5.195 4.367-5.871 4.367-.305 0 .3-1.508 1.05-2.562 1.735-2.485 3.993-4.063 5.274-3.688m-39.531.602c.902.68.527 1.808-.453 1.207-.375-.153-.676-.68-.676-.98 0-.528.602-.677 1.129-.227m8.582.527c2.71.828 5.273 4.219 4.973 6.55-.38 3.313-5.348 1.731-7.305-2.331-1.281-2.864-.152-4.973 2.332-4.22"/><path d="M70.559-138.043c3.39.527 4.742 2.258 4.742 6.098 0 3.613-.903 6.175-4.516 12.425-3.238 5.797-4.066 7.981-4.066 11.067 0 1.808 0 1.808 1.203 1.508 1.582-.379 2.488-.453 4.293-.528h1.734l.074-1.207c.676-10.617 6.399-18.144 15.512-20.48 10.613-2.707 20.629 4.14 15.434 10.617-2.41 2.938-5.196 4.441-13.176 6.852-6.852 2.035-9.336 3.164-11.145 4.746l-.675.675.976.375c4.895 2.11 7.98 5.5 10.39 11.446.528 1.207 1.282 2.937 1.657 3.918 2.41 5.344 3.238 7.379 3.54 8.883 1.655 7.379-4.294 13.703-15.06 16.187l-1.28.305.98.75c9.187 7.68 12.199 19.73 5.27 21.46-.977.227-.977.977-.227 2.333.304.527.68 1.207.828 1.508.379.753.379.753.68.074 2.109-4.442 6.55-6.625 9.41-4.594.226.152.605.379.828.379 3.992.828 1.656 8.055-4.29 13.477-5.046 4.593-7.23 5.195-9.94 2.71-.977-.902-3.84-1.882-7.38-2.484l-1.203-.152-1.28.379c-.677.226-1.731.527-2.333.675-.68.153-1.207.227-1.207.227s.152.602.3 1.281c.454 1.73.606 3.313.454 4.14-1.055 6.173-16.941-1.429-19.05-9.034-.302-.98-.376-1.055-.829-.903-1.055.223-2.559 0-3.312-.68-.301-.226-.376-.3-1.282-.3-2.558 0-4.289-1.73-4.289-4.219v-.902l-.601-.301c-2.11-1.129-1.961-4.367.222-5.344.38-.078.528-.226.453-.304-1.129-4.063 4.215-7.38 7.38-4.516l.374.375.453-.3c.602-.376 1.43-.677 1.958-.677s.828-.379 2.636-3.539c2.11-3.765 2.711-4.968 2.938-6.25.449-2.035 1.355-4.219 2.484-6.023l.45-.754-.528-.227c-15.207-6.171-16.113-29.664-1.504-37.043.3-.152.602-.3.602-.3.074 0-.301-.454-.676-1.055-7.004-9.488-7.68-19.504-1.809-26.731 3.465-4.293 9.035-6.777 13.403-6.023m.152.977c2.933.679 3.988 2.562 3.613 6.328-.375 3.16-1.129 5.117-4.293 10.617-3.687 6.473-4.515 9.109-4.215 13.023l.075.676-.676.305c-.906.375-.828.375.75.148 12.8-1.883 20.254 1.809 24.398 12.047.828 2.035 1.203 2.863 2.711 6.25 2.633 5.797 3.16 7.832 2.485 10.617-2.485 10.016-22.137 14.985-35.317 8.887-14.832-6.777-14.23-27.336 1.055-36.293.828-.527.906-.602.152-.379-.828.227-.828.227-1.508-.75-6.023-8.058-7.379-16.039-3.914-22.816 2.86-5.797 9.563-9.711 14.684-8.66m-.379 5.121c.527.152 1.508.679 1.508.828 0 0-.3-.074-.754-.149-1.129-.226-1.055-.3-1.129 1.504-.152 3.692-.68 5.348-3.238 10.543-2.485 4.895-3.238 6.699-3.465 8.735l-.148.828.449 1.203c.605 1.355.527 1.355-.223.301-6.852-10.239-1.96-26.653 7-23.793m-1.43 2.484c-.074 3.238-.527 4.82-2.332 8.582-2.562 5.274-3.464 7.609-3.765 9.641l-.078.675-.524-1.503c-3.09-9.336-.226-18.149 6.246-19.2l.528-.078zm28.461.828c5.274.981 9.114 4.82 7.907 7.832-1.43 3.387-4.821 5.422-13.856 8.207-7.527 2.332-10.164 3.539-11.969 5.422l-.453.527-1.281-.226c-.75-.152-1.504-.301-1.73-.375-.227 0-.602-.078-.754-.152h-.301l.074-1.356c.68-12.875 10.918-21.984 22.363-19.879m-1.129 4.445c2.559.528 4.668 2.258 4.895 4.141l.074.449-.301-.523c-.226-.231-.453-.606-.601-.68l-.301-.301-.902.981c-2.637 2.558-4.367 3.613-8.66 5.117-7.907 2.863-9.864 3.992-10.77 6.176-.524 1.355-.602 1.355-.3-.227 1.507-8.961 9.94-16.492 16.866-15.133m.075 1.129c.828.149 2.636.903 2.863 1.204.074.152-1.43 1.734-2.563 2.636-1.804 1.504-3.086 2.184-6.097 3.313-5.723 2.183-7.68 3.086-9.637 4.668l-.3.226.226-.679c3.613-8.207 9.484-12.497 15.508-11.368M75-88.199c3.918 1.43 3.691 7.379-.223 8.36-2.636.675-5.046-1.884-4.671-4.895.378-2.485 2.788-4.22 4.894-3.465m14.309.68c2.933 1.656 1.957 7.226-1.207 7.226-2.333.074-3.762-3.16-2.559-5.723.754-1.656 2.41-2.257 3.766-1.503m-15.887.828c.45.3.676.675.676 1.277 0 1.207-1.356 1.808-2.258.98-1.207-1.054.226-3.085 1.582-2.257m14.379.449c.379.226.527.828.3 1.281-.374.902-1.656.68-1.804-.375-.153-.828.828-1.433 1.504-.906m-4.29 7.23c1.958.301 2.184 1.43.602 2.711l-.379.301v1.582c0 1.504 0 1.578.227 1.73.527.376 1.582.153 2.336-.527.45-.375.45-.3.148.227-.601 1.054-1.882 1.43-3.011.902-.301-.148-.375-.148-.528 0-1.277 1.129-4.668.906-5.496-.45-.375-.605-.3-.679.074-.304 1.207 1.055 4.067 1.133 5.047.078.453-.527.602-1.129.453-2.562l-.078-.528-.601-.222c-3.614-1.133-2.637-3.54 1.207-2.938M62.954-65.984c1.055.375 3.012.828 4.219 1.05l1.129.153v1.129c0 1.808-.754 7.453-.98 7.68-.376.453-3.16-4.368-3.915-6.7q-.679-1.809-.226.45c.68 4.14 3.238 7.605 7.754 10.617 2.562 1.656 3.539 3.011 3.539 4.746v.902l-.602.375c-.828.379-1.805.379-2.633.074-.605-.3-.453-.074.223.305a4.1 4.1 0 0 0 2.262.45c.527-.15.601-.15.148.526-.977 1.508-2.558 2.036-4.066 1.282-.528-.227-.528-.227-.301 0 .152.074.527.3.828.527.828.375.68.45-.676.45-4.219 0-9.113-5.419-10.39-11.442-.907-4.145-.153-8.434 2.257-12.05.528-.83.528-.83 1.43-.524m17.02 2.03c6.625 5.423 10.086 11.974 8.883 16.79-.375 1.809-1.583 3.164-2.938 3.39l-.375.075.453-.453c.223-.223.527-.524.602-.75l.226-.38-.453.38c-1.203 1.129-3.012 1.129-4.066 0l-.375-.453.527-.153c.75-.074 1.504-.523 1.957-1.203.527-.676.527-.828 0-.3-1.207 1.202-2.863 1.128-3.164-.075-.527-1.809.078-3.539 1.656-4.52 1.656-1.054 2.563-2.558 2.563-3.988v-.453l-.227.453c-.453.977-1.055 1.88-1.129 1.805-.078-.074-.3-.676-.601-1.43-.754-1.808-2.711-5.722-3.993-7.832-1.355-2.332-1.355-2.41.454-.902m-1.582.981c2.03 3.235 3.238 5.645 4.367 8.43.754 1.883.754 1.656-.227 2.262-3.765 2.41-2.637 8.656 1.656 9.484.754.078.754 0 .454 1.434-.68 3.386-2.79 6.625-4.895 7.601-6.629 3.164-13.102-.449-14.008-7.754l-.074-.601.906.453c8.055 3.762 12.496-5.8 4.97-10.695-1.583-1.051-2.786-2.032-3.392-2.633l-.3-.301.226-1.734c.453-2.711.68-4.141.68-5.946l.074-1.734 1.129.074c1.43.152 4.742.152 6.25 0l1.203-.074zm-20.48 7.528c.448 4.894 3.312 10.164 6.925 12.726.152.149.227.301.3.977.907 7.23 6.93 11.37 13.329 9.113.527-.152-1.055.75-2.258 1.356a31 31 0 0 1-4.82 1.656c-1.43.3-1.356.375-1.805-.754-2.937-7.453-7.379-11.82-10.617-10.543-.606.227-.68.227-1.055.152-2.71-.98-5.95 1.657-5.347 4.293.078.375.078.524-.075.75-.152.153-.3.606-.375.907-.226.675-.304.675-.906-.754-1.805-3.84-1.055-8.36 2.336-13.477 1.355-2.184 2.258-3.691 3.387-5.723l.828-1.507c.078 0 .078.3.152.828m-10.165 5.949c.75.227 1.578.828 2.031 1.504.453.605.375.605.754 0 .301-.45.828-.828 1.43-.977.375-.152.375-.152-.227.828-2.71 4.442-3.16 9.489-1.277 13.328.523 1.051.523.977-.305.977-.75 0-1.355-.227-1.957-.828l-.449-.375-.605.148c-1.805.38-3.614-.902-3.84-2.785-.074-.453 0-.828.3-2.031.079-.227 0-.227-.374-.227-1.204 0-2.032-.902-2.032-2.035 0-1.129.828-1.957 2.106-1.957h.527l-.3-.676c-1.13-2.785 1.355-5.722 4.218-4.894m47.586 6.098c2.11.3 2.938 1.882 2.258 4.593-.074.301-.074.301.074.075.3-.376.68-1.579.68-2.333s.148-.753.375 0c.527 1.958-.45 4.594-2.711 7.454l-.75.98-.453-.379c-1.73-1.582-8.059 3.766-7.305 6.176.227.902-1.883.227-3.238-1.055-.903-.828-3.239-1.656-6.625-2.336l-.828-.222.754-.38c3.687-2.03 6.398-5.042 7.527-8.433.3-1.05.226-1.05 1.054.606.829 1.578.829 1.504.528 2.633-.3.98-.528 2.562-.453 2.41.078 0 .304-.528.527-1.055 2.485-5.57 4.293-7.527 6.176-6.477q1.241.679 1.129 2.489v.601l-.149-.379c-.527-1.277-2.336.153-1.883 1.434.375.902 1.43.527 1.805-.527.153-.528.227-.227.078.375-.152.527.075.226.45-.528.98-2.258.3-4.215-1.657-4.742-.3-.074-.527-.227-.453-.227.152-.3 1.961-.902 2.41-.828 0 0 .301 0 .68.075m1.957 2.336c.602.374.453 1.956-.227 2.71-.902.977-1.804.149-1.43-1.129.302-1.28 1.055-1.96 1.657-1.581m0 .374c.602.829-.602 3.165-1.281 2.336-.375-.453-.149-1.656.453-2.261.3-.375.602-.375.828-.075m-35.539.903c4.668 2.336 10.54 16.113 7.606 17.847-2.262 1.278-9.114-1.656-13.254-5.648-2.711-2.559-3.688-4.969-3.086-7.004l.148-.3.379.453a5.04 5.04 0 0 0 2.184 1.43l.754.226-1.133-1.055c-1.957-1.957-2.258-3.46-.828-5.043 1.734-1.957 4.292-1.207 5.8 1.656.301.602.528.828.45.676-.227-1.277-.528-2.184-1.13-2.86-.675-.902.602-1.128 2.11-.378m.676.906c.828.828.68 1.805-.223 1.883-.68.074-1.66-1.055-1.434-1.809.227-.675.981-.675 1.657-.074m-.223.3c.524.528.524 1.204 0 1.282-.527.074-1.281-.98-.98-1.508.148-.3.601-.226.98.227m31.32.075c.227.152.153.828-.074 1.281-.527.676-1.207.602-1.207-.152 0-.828.832-1.582 1.281-1.129m-35.914.453c1.883.828 2.184 3.614.375 3.614-2.183 0-3.238-3.465-1.129-3.614.301-.078.602 0 .754 0m0 .45c.227.152.602.378.75.605 1.356 1.504-.074 3.086-1.578 1.73-1.433-1.28-.754-3.164.828-2.336m36.594 4.519c.149.074.375.227.528.453l.222.223L93.75-31.2c-2.031 1.957-5.195 4.367-5.871 4.367-.305 0 .3-1.508 1.05-2.562 1.735-2.485 3.993-4.063 5.274-3.688m-39.379.3c.45.301.828 1.055.676 1.43-.3 1.207-2.11.528-2.258-.828-.078-.828.75-1.203 1.582-.601m-.152.301c.902.68.527 1.81-.453 1.208-.375-.153-.676-.68-.676-.98 0-.528.602-.677 1.129-.227m8.96.301c3.24 1.13 5.798 5.496 4.669 7.758-1.582 3.16-7.453-.453-8.207-4.972-.38-2.258 1.277-3.614 3.539-2.786m-.378.227c2.71.828 5.273 4.219 4.973 6.55-.38 3.313-5.348 1.731-7.305-2.331-1.281-2.864-.152-4.973 2.332-4.22"/></g><path fill="#0000bf" d="M1.5-49.687h99.215l14.172 28.347H1.5z"/><path fill="none" stroke="#00f" stroke-linecap="round" stroke-linejoin="round" stroke-width="3" d="M1.5-49.687h99.215l14.172 28.347H1.5z"/><path fill="#000040" d="m114.887-78.035-14.172 28.347 14.172 28.348 14.172-28.347z"/><path fill="none" stroke="#00f" stroke-linecap="round" stroke-linejoin="round" stroke-width="3" d="m114.887-78.035-14.172 28.347 14.172 28.348 14.172-28.347z"/><path fill="gray" d="M49.688-21.34c0-10.96-8.883-19.844-19.84-19.844-10.961 0-19.844 8.883-19.844 19.844 0 10.957 8.883 19.84 19.844 19.84 10.957 0 19.84-8.883 19.84-19.84"/><path fill="none" stroke="#000" stroke-linecap="round" stroke-linejoin="round" stroke-width="3" d="M49.688-21.34c0-10.96-8.883-19.844-19.84-19.844-10.961 0-19.844 8.883-19.844 19.844 0 10.957 8.883 19.84 19.844 19.84 10.957 0 19.84-8.883 19.84-19.84"/><path fill="#bfbfbf" d="M35.516-21.34a5.67 5.67 0 1 0-11.341-.003 5.67 5.67 0 0 0 11.34.003"/><path fill="none" stroke="#000" stroke-linecap="round" stroke-linejoin="round" stroke-width="2" d="M35.516-21.34a5.67 5.67 0 1 0-11.341-.003 5.67 5.67 0 0 0 11.34.003"/><path fill="gray" d="M106.383-21.34c0-10.96-8.887-19.844-19.844-19.844S66.695-32.3 66.695-21.34c0 10.957 8.887 19.84 19.844 19.84s19.844-8.883 19.844-19.84"/><path fill="none" stroke="#000" stroke-linecap="round" stroke-linejoin="round" stroke-width="3" d="M106.383-21.34c0-10.96-8.887-19.844-19.844-19.844S66.695-32.3 66.695-21.34c0 10.957 8.887 19.84 19.844 19.84s19.844-8.883 19.844-19.84"/><path fill="#bfbfbf" d="M92.207-21.34a5.668 5.668 0 1 0-11.336 0c0 3.13 2.535 5.668 5.668 5.668s5.668-2.539 5.668-5.668"/><path fill="none" stroke="#000" stroke-linecap="round" stroke-linejoin="round" stroke-width="2" d="M92.207-21.34a5.668 5.668 0 1 0-11.336 0c0 3.13 2.535 5.668 5.668 5.668s5.668-2.539 5.668-5.668"/></g></svg>