<svg xmlns="http://www.w3.org/2000/svg" width="743pt" height="416pt" viewBox="0 -416 743 416"><g id="page1"><path fill="none" stroke="#000" stroke-linecap="round" stroke-linejoin="round" d="M.5-.5h741.02M.5-83.488h741.02M.5-166.473h741.02M.5-249.461h741.02M.5-332.445h741.02M.5-415.434h741.02M.5-.5v-414.934M82.836-.5v-414.934M165.172-.5v-414.934M247.508-.5v-414.934M329.844-.5v-414.934M412.18-.5v-414.934M494.516-.5v-414.934M576.852-.5v-414.934M659.188-.5v-414.934M741.52-.5v-414.934"/><path fill="#b8dede" d="M27.496-6.672H55.84l-3.707-29.922h-20.93z"/><path fill="none" stroke="#004d4d" stroke-linecap="round" stroke-linejoin="round" stroke-width=".5" d="M27.496-6.672H55.84l-3.707-29.922h-20.93zm14.172-29.922v-13.894"/><path fill="#004d4d" d="M42.715-50.488a1.047 1.047 0 0 0-2.094 0c0 .578.469 1.043 1.047 1.043s1.047-.465 1.047-1.043"/><path fill="#fff" d="M49.152-6.672h4.618v-6.625h-4.618Z"/><path fill="none" stroke="#599292" stroke-linecap="round" stroke-linejoin="round" stroke-width=".5" d="M49.152-6.672h4.618v-6.625h-4.618z"/><path fill="#fff" d="M43.89-14.152h3.532v-5.2H43.89Z"/><path fill="none" stroke="#599292" stroke-linecap="round" stroke-linejoin="round" stroke-width=".5" d="M43.89-14.152h3.532v-5.2H43.89z"/><path fill="#fff" d="M31.484-21.633h4.172v-7.664h-4.172Z"/><path fill="none" stroke="#599292" stroke-linecap="round" stroke-linejoin="round" stroke-width=".5" d="M31.484-21.633h4.172v-7.664h-4.172z"/><path fill="#fff" d="M41.406-29.113h3.825v-5.465h-3.825Z"/><path fill="none" stroke="#599292" stroke-linecap="round" stroke-linejoin="round" stroke-width=".5" d="M41.406-29.113h3.825v-5.465h-3.825z"/><path fill="#ebd1b8" d="M109.828-6.672h28.348l2.699-56.863h-33.742z"/><path fill="none" stroke="#630" stroke-linecap="round" stroke-linejoin="round" stroke-width=".5" d="M109.828-6.672h28.348l2.699-56.863h-33.742z"/><path fill="#fff" d="M111.316-6.672h3.965v-5.441h-3.965Z"/><path fill="none" stroke="#a68059" stroke-linecap="round" stroke-linejoin="round" stroke-width=".5" d="M111.316-6.672h3.965v-5.441h-3.965z"/><path fill="#fff" d="M131.852-12.988h4.714v-6.047h-4.714Z"/><path fill="none" stroke="#a68059" stroke-linecap="round" stroke-linejoin="round" stroke-width=".5" d="M131.852-12.988h4.714v-6.043h-4.714z"/><path fill="#fff" d="M121.273-19.309h5.321v-6.652h-5.321Z"/><path fill="none" stroke="#a68059" stroke-linecap="round" stroke-linejoin="round" stroke-width=".5" d="M121.273-19.309h5.321v-6.652h-5.321z"/><path fill="#fff" d="M125.051-25.625h3.804v-4.332h-3.804Z"/><path fill="none" stroke="#a68059" stroke-linecap="round" stroke-linejoin="round" stroke-width=".5" d="M125.051-25.625h3.804v-4.332h-3.804z"/><path fill="#fff" d="M113.23-31.945h3.684v-6.735h-3.684Z"/><path fill="none" stroke="#a68059" stroke-linecap="round" stroke-linejoin="round" stroke-width=".5" d="M113.23-31.945h3.684v-6.735h-3.684z"/><path fill="#fff" d="M129.449-38.262h4.664v-6.32h-4.664Z"/><path fill="none" stroke="#a68059" stroke-linecap="round" stroke-linejoin="round" stroke-width=".5" d="M129.449-38.262h4.664v-6.32h-4.664z"/><path fill="#fff" d="M135.148-44.578h4.465v-6.356h-4.465Z"/><path fill="none" stroke="#a68059" stroke-linecap="round" stroke-linejoin="round" stroke-width=".5" d="M135.148-44.578h4.465v-6.356h-4.465z"/><path fill="#fff" d="M135.215-50.898h4.683v-9.114h-4.683Z"/><path fill="none" stroke="#a68059" stroke-linecap="round" stroke-linejoin="round" stroke-width=".5" d="M135.215-50.898h4.683v-9.114h-4.683z"/><path fill="#fff" d="M123.176-56.242h5.058v-7.293h-5.058Z"/><path fill="none" stroke="#a68059" stroke-linecap="round" stroke-linejoin="round" stroke-width=".5" d="M123.176-56.242h5.058v-7.293h-5.058z"/><path fill="#b8dede" d="M192.164-6.672h28.348l-6.551-57.383h-15.242z"/><path fill="none" stroke="#004d4d" stroke-linecap="round" stroke-linejoin="round" stroke-width=".5" d="M192.164-6.672h28.348l-6.551-57.383h-15.242zm14.176-57.383v-3.511"/><path fill="#004d4d" d="M207.805-67.566a1.466 1.466 0 1 0-2.932.002 1.466 1.466 0 0 0 2.932-.002"/><path fill="#fff" d="M197.727-6.672h4.515v-8.676h-4.515Z"/><path fill="none" stroke="#599292" stroke-linecap="round" stroke-linejoin="round" stroke-width=".5" d="M197.727-6.672h4.515v-8.676h-4.515z"/><path fill="#fff" d="M206.918-11.453h3.82v-7.508h-3.82Z"/><path fill="none" stroke="#599292" stroke-linecap="round" stroke-linejoin="round" stroke-width=".5" d="M206.918-11.453h3.82v-7.508h-3.82z"/><path fill="#fff" d="M213.254-16.234h4.105v-5.559h-4.105Z"/><path fill="none" stroke="#599292" stroke-linecap="round" stroke-linejoin="round" stroke-width=".5" d="M213.254-16.234h4.105v-5.559h-4.105z"/><path fill="#fff" d="M205.152-21.016h4.528v-8.617h-4.528Z"/><path fill="none" stroke="#599292" stroke-linecap="round" stroke-linejoin="round" stroke-width=".5" d="M205.152-21.016h4.528v-8.617h-4.528z"/><path fill="#fff" d="M195.883-25.797h4.121v-5.234h-4.121Z"/><path fill="none" stroke="#599292" stroke-linecap="round" stroke-linejoin="round" stroke-width=".5" d="M195.883-25.797h4.121v-5.234h-4.121z"/><path fill="#fff" d="M197.301-30.582h5.164v-8.996h-5.164Z"/><path fill="none" stroke="#599292" stroke-linecap="round" stroke-linejoin="round" stroke-width=".5" d="M197.301-30.582h5.164v-8.996h-5.164z"/><path fill="#fff" d="M199.574-35.363h3.254v-4.465h-3.254Z"/><path fill="none" stroke="#599292" stroke-linecap="round" stroke-linejoin="round" stroke-width=".5" d="M199.574-35.363h3.254v-4.465h-3.254z"/><path fill="#fff" d="M202.074-40.144h3.348v-6.473h-3.348Z"/><path fill="none" stroke="#599292" stroke-linecap="round" stroke-linejoin="round" stroke-width=".5" d="M202.074-40.144h3.348v-6.473h-3.348z"/><path fill="#fff" d="M211.422-44.926h3.562v-5.644h-3.562Z"/><path fill="none" stroke="#599292" stroke-linecap="round" stroke-linejoin="round" stroke-width=".5" d="M211.422-44.926h3.562v-5.644h-3.562z"/><path fill="#fff" d="M202.859-49.707h3.207v-5.156h-3.207Z"/><path fill="none" stroke="#599292" stroke-linecap="round" stroke-linejoin="round" stroke-width=".5" d="M202.859-49.707h3.207v-5.156h-3.207z"/><path fill="#fff" d="M205.336-53.105h5.496v-10.95h-5.496Z"/><path fill="none" stroke="#599292" stroke-linecap="round" stroke-linejoin="round" stroke-width=".5" d="M205.336-53.105h5.496v-10.95h-5.496z"/><path fill="#fff" d="M204.086-57.52h4.562v-6.535h-4.562Z"/><path fill="none" stroke="#599292" stroke-linecap="round" stroke-linejoin="round" stroke-width=".5" d="M204.086-57.52h4.562v-6.535h-4.562z"/><path fill="#ebb8b8" d="M274.504-6.672h28.344L300.34-52.16h-23.328z"/><path fill="none" stroke="#600" stroke-linecap="round" stroke-linejoin="round" stroke-width=".5" d="M274.504-6.672h28.344L300.34-52.16h-23.328zm14.172-45.488v-7.285"/><path fill="#600" d="M290.211-59.445a1.536 1.536 0 1 0-3.071 0 1.536 1.536 0 0 0 3.071 0"/><path fill="#fff" d="M285.754-6.672h2.961v-3.73h-2.961Z"/><path fill="none" stroke="#a65959" stroke-linecap="round" stroke-linejoin="round" stroke-width=".5" d="M285.754-6.672h2.961v-3.73h-2.961z"/><path fill="#fff" d="M283.281-14.254h3.34v-3.617h-3.34Z"/><path fill="none" stroke="#a65959" stroke-linecap="round" stroke-linejoin="round" stroke-width=".5" d="M283.281-14.254h3.34v-3.617h-3.34z"/><path fill="#fff" d="M293.684-21.836h2.89v-4.773h-2.89Z"/><path fill="none" stroke="#a65959" stroke-linecap="round" stroke-linejoin="round" stroke-width=".5" d="M293.684-21.836h2.89v-4.773h-2.89z"/><path fill="#fff" d="M295.586-29.414h4.422v-4.445h-4.422Z"/><path fill="none" stroke="#a65959" stroke-linecap="round" stroke-linejoin="round" stroke-width=".5" d="M295.586-29.414h4.422v-4.445h-4.422z"/><path fill="#fff" d="M287.617-36.996h3.731v-7.195h-3.731Z"/><path fill="none" stroke="#a65959" stroke-linecap="round" stroke-linejoin="round" stroke-width=".5" d="M287.617-36.996h3.731v-7.195h-3.731z"/><path fill="#fff" d="M292.605-44.578h5.668v-7.488h-5.668Z"/><path fill="none" stroke="#a65959" stroke-linecap="round" stroke-linejoin="round" stroke-width=".5" d="M292.605-44.578h5.668v-7.488h-5.668z"/><path fill="#b8ebb8" d="M356.84-6.672h28.344l-4.922-43.355h-18.5z"/><path fill="none" stroke="#060" stroke-linecap="round" stroke-linejoin="round" stroke-width=".5" d="M356.84-6.672h28.344l-4.922-43.355h-18.5z"/><path fill="#fff" d="M364.258-6.672h5.48v-6.21h-5.48Z"/><path fill="none" stroke="#59a659" stroke-linecap="round" stroke-linejoin="round" stroke-width=".5" d="M364.258-6.672h5.48v-6.21h-5.48z"/><path fill="#fff" d="M373.816-13.898h5.106v-8.922h-5.106Z"/><path fill="none" stroke="#59a659" stroke-linecap="round" stroke-linejoin="round" stroke-width=".5" d="M373.816-13.898h5.106v-8.922h-5.106z"/><path fill="#fff" d="M369.316-21.125h5.157v-10.242h-5.157Z"/><path fill="none" stroke="#59a659" stroke-linecap="round" stroke-linejoin="round" stroke-width=".5" d="M369.316-21.125h5.157v-10.242h-5.157z"/><path fill="#fff" d="M370.848-28.352h4.203v-5.441h-4.203Z"/><path fill="none" stroke="#59a659" stroke-linecap="round" stroke-linejoin="round" stroke-width=".5" d="M370.848-28.352h4.203v-5.441h-4.203z"/><path fill="#fff" d="M366.543-35.578h4.16v-5.613h-4.16Z"/><path fill="none" stroke="#59a659" stroke-linecap="round" stroke-linejoin="round" stroke-width=".5" d="M366.543-35.578h4.16v-5.613h-4.16z"/><path fill="#fff" d="M369.977-42.8h3.539v-6.056h-3.539Z"/><path fill="none" stroke="#59a659" stroke-linecap="round" stroke-linejoin="round" stroke-width=".5" d="M369.977-42.8h3.539v-6.056h-3.539z"/><path fill="#b8b8b8" d="M439.172-6.672h28.348l-1.641-51.097h-25.063z"/><path fill="none" stroke="#000" stroke-linecap="round" stroke-linejoin="round" stroke-width=".5" d="M439.172-6.672h28.348l-1.641-51.097h-25.063zm14.176-51.098v-13.3"/><path d="M454.523-71.07a1.177 1.177 0 1 0-2.355 0 1.179 1.179 0 1 0 2.355 0"/><path fill="#fff" d="M440.203-6.672h3.414v-4.2h-3.414Z"/><path fill="none" stroke="#595959" stroke-linecap="round" stroke-linejoin="round" stroke-width=".5" d="M440.203-6.672h3.414v-4.2h-3.414z"/><path fill="#fff" d="M458.547-15.187h3.402v-6.7h-3.402Z"/><path fill="none" stroke="#595959" stroke-linecap="round" stroke-linejoin="round" stroke-width=".5" d="M458.547-15.187h3.402v-6.704h-3.402z"/><path fill="#fff" d="M456.016-23.703h5.187v-6.547h-5.187Z"/><path fill="none" stroke="#595959" stroke-linecap="round" stroke-linejoin="round" stroke-width=".5" d="M456.016-23.703h5.187v-6.547h-5.187z"/><path fill="#fff" d="M449.785-32.219h4.68v-9.25h-4.68Z"/><path fill="none" stroke="#595959" stroke-linecap="round" stroke-linejoin="round" stroke-width=".5" d="M449.785-32.219h4.68v-9.25h-4.68z"/><path fill="#fff" d="M453.215-40.734h3.09v-4.063h-3.09Z"/><path fill="none" stroke="#595959" stroke-linecap="round" stroke-linejoin="round" stroke-width=".5" d="M453.215-40.734h3.09v-4.063h-3.09z"/><path fill="#fff" d="M457.688-49.254h3.32v-5.89h-3.32Z"/><path fill="none" stroke="#595959" stroke-linecap="round" stroke-linejoin="round" stroke-width=".5" d="M457.688-49.254h3.32v-5.89h-3.32z"/><path fill="#b8b8eb" d="M521.508-6.672h28.347l-1.332-36.922h-25.679z"/><path fill="none" stroke="#006" stroke-linecap="round" stroke-linejoin="round" stroke-width=".5" d="M521.508-6.672h28.347l-1.332-36.922h-25.679zm14.176-36.922v-7.562"/><path fill="#006" d="M536.777-51.156a1.095 1.095 0 1 0-2.191 0 1.096 1.096 0 1 0 2.191 0"/><path fill="#fff" d="M537.066-6.672h4.692v-6.848h-4.692Z"/><path fill="none" stroke="#5959a6" stroke-linecap="round" stroke-linejoin="round" stroke-width=".5" d="M537.066-6.672h4.692v-6.848h-4.692z"/><path fill="#fff" d="M537.176-11.285h3.676v-6.652h-3.676Z"/><path fill="none" stroke="#5959a6" stroke-linecap="round" stroke-linejoin="round" stroke-width=".5" d="M537.176-11.285h3.676v-6.652h-3.676z"/><path fill="#fff" d="M537.297-15.902h3.141v-6.22h-3.141Z"/><path fill="none" stroke="#5959a6" stroke-linecap="round" stroke-linejoin="round" stroke-width=".5" d="M537.297-15.902h3.141v-6.22h-3.141z"/><path fill="#fff" d="M535.078-20.516h5.328v-8.02h-5.328Z"/><path fill="none" stroke="#5959a6" stroke-linecap="round" stroke-linejoin="round" stroke-width=".5" d="M535.078-20.516h5.328v-8.02h-5.328z"/><path fill="#fff" d="M524.102-25.133h2.914v-5.547h-2.914Z"/><path fill="none" stroke="#5959a6" stroke-linecap="round" stroke-linejoin="round" stroke-width=".5" d="M524.102-25.133h2.914v-5.547h-2.914z"/><path fill="#fff" d="M533.859-29.746h4.504v-7.5h-4.504Z"/><path fill="none" stroke="#5959a6" stroke-linecap="round" stroke-linejoin="round" stroke-width=".5" d="M533.859-29.746h4.504v-7.5h-4.504z"/><path fill="#fff" d="M533.566-34.363h5.414v-7.211h-5.414Z"/><path fill="none" stroke="#5959a6" stroke-linecap="round" stroke-linejoin="round" stroke-width=".5" d="M533.566-34.363h5.414v-7.211h-5.414z"/><path fill="#fff" d="M527.125-35.465h5.332v-8.129h-5.332Z"/><path fill="none" stroke="#5959a6" stroke-linecap="round" stroke-linejoin="round" stroke-width=".5" d="M527.125-35.465h5.328v-8.129h-5.328z"/><path fill="#b8dede" d="M603.844-6.672h28.347l.911-33.652h-30.164z"/><path fill="none" stroke="#004d4d" stroke-linecap="round" stroke-linejoin="round" stroke-width=".5" d="M603.844-6.672h28.347l.911-33.652h-30.164z"/><path fill="#fff" d="M618.168-6.672h4.906v-8.484h-4.906Z"/><path fill="none" stroke="#599292" stroke-linecap="round" stroke-linejoin="round" stroke-width=".5" d="M618.168-6.672h4.906v-8.484h-4.906z"/><path fill="#fff" d="M609.996-15.086h5.492v-6.863h-5.492Z"/><path fill="none" stroke="#599292" stroke-linecap="round" stroke-linejoin="round" stroke-width=".5" d="M609.996-15.086h5.492v-6.863h-5.492z"/><path fill="#fff" d="M622.695-23.496h4.668v-5.563h-4.668Z"/><path fill="none" stroke="#599292" stroke-linecap="round" stroke-linejoin="round" stroke-width=".5" d="M622.695-23.496h4.668v-5.563h-4.668z"/><path fill="#fff" d="M618.266-31.91h3.953v-6.613h-3.953Z"/><path fill="none" stroke="#599292" stroke-linecap="round" stroke-linejoin="round" stroke-width=".5" d="M618.266-31.91h3.953v-6.613h-3.953z"/><path fill="#ebb8eb" d="M686.18-6.672h28.347l-8.074-23.332h-12.199z"/><path fill="none" stroke="#606" stroke-linecap="round" stroke-linejoin="round" stroke-width=".5" d="M686.18-6.672h28.347l-8.074-23.332h-12.199zm14.172-23.332v-6.91"/><path fill="#606" d="M701.797-36.914c0-.797-.645-1.441-1.445-1.441a1.444 1.444 0 1 0 1.445 1.441"/><path fill="#fff" d="M691.996-6.672h3.727v-4.394h-3.727Z"/><path fill="none" stroke="#a659a6" stroke-linecap="round" stroke-linejoin="round" stroke-width=".5" d="M691.996-6.672h3.727v-4.394h-3.727z"/><path fill="#fff" d="M699.496-14.45h4.977v-9.448h-4.977Z"/><path fill="none" stroke="#a659a6" stroke-linecap="round" stroke-linejoin="round" stroke-width=".5" d="M699.496-14.45h4.977v-9.448h-4.977z"/><path fill="#fff" d="M699.531-21.719h4.692v-8.285h-4.692Z"/><path fill="none" stroke="#a659a6" stroke-linecap="round" stroke-linejoin="round" stroke-width=".5" d="M699.531-21.719h4.692v-8.285h-4.692z"/><path fill="#ebb8eb" d="M27.496-89.656H55.84l-1.754-25.024H29.25z"/><path fill="none" stroke="#606" stroke-linecap="round" stroke-linejoin="round" stroke-width=".5" d="M27.496-89.656H55.84l-1.754-25.024H29.25z"/><path fill="#fff" d="M37.297-89.656h2.922v-3.418h-2.922Z"/><path fill="none" stroke="#a659a6" stroke-linecap="round" stroke-linejoin="round" stroke-width=".5" d="M37.297-89.656h2.922v-3.418h-2.922z"/><path fill="#fff" d="M42.902-98h4.512v-4.832h-4.512Z"/><path fill="none" stroke="#a659a6" stroke-linecap="round" stroke-linejoin="round" stroke-width=".5" d="M42.902-98h4.512v-4.836h-4.512z"/><path fill="#fff" d="M45.398-106.223h4.356v-8.457h-4.356Z"/><path fill="none" stroke="#a659a6" stroke-linecap="round" stroke-linejoin="round" stroke-width=".5" d="M45.398-106.223h4.356v-8.457h-4.356z"/><path fill="#ebded1" d="m157.535-90.156.969-6.422-7.137-11.981-.933-4.304-.477-9.317-10.211.043-9.558 3.633-13.485 3.977-10.633-.133-5.562 6.66.281 7.668-8.125 6.066-3.16 4.11z"/><path fill="none" stroke="#664d33" stroke-linecap="round" stroke-linejoin="round" d="m157.535-90.156.969-6.422-7.137-11.981-.933-4.304-.477-9.317-10.211.043-9.558 3.633-13.485 3.977-10.633-.133-5.562 6.66.281 7.668-8.125 6.066-3.16 4.11z"/><g fill="#ccbfb2"><path d="m125.402-90.398 4.184-1.864-3.773-3.422-.208-2.246z"/><path d="m111.805-97.148 13.777 3.402-1.059-10.227-9.445 3.125zm26.769 1.788 2.34-.949 4.289-5.714-5.859 1.003zm-37.699-2.577 9.551.043-4.988-10.594-8.137.996zm29.074-7.043 2.567.671 2.968-1.855-3.281.199z"/><path d="m107.004-104.051 10.375-2.832-3.547-3.305-3.809.508zm-3.828-5.359 3.586 2.707-.555-4.594-1.477 4.957z"/></g><path fill="none" stroke="#664d33" stroke-linecap="round" stroke-linejoin="round" d="M123.52-124.09c5.496-1.344 8.281-6.437 5.886-10.773-1.5-2.719-5.008-4.52-5.633-7.508-.613-2.91 1.672-5.695 5.149-6.277m1.402 24.558c4.196-.769 6.59-4.465 5.067-7.808-.957-2.098-3.469-3.598-3.754-5.86-.282-2.203 1.601-4.191 4.234-4.48m-22.555 18.148c1.641-2.515.219-5.656-3.007-6.644-2.024-.621-4.426-.137-6.215-1.18-1.742-1.02-2.199-3.008-1.024-4.484"/><path fill="gray" d="M124.945-115.328c0-.606 0-1.664-1.179-1.664-.692 0-.938.367-1.18.894-.773 1.75-2.109 3.903-4.27 4.067-.605.043-1.461.121-1.461 1.179 0 .692.407 1.176 1.301 1.176 2.278 0 4.024-1.707 4.149-1.789v17.434h-3.578c-.571 0-1.668 0-1.668 1.18s1.097 1.18 1.668 1.18h9.796c.567 0 1.665 0 1.665-1.18s-1.098-1.18-1.665-1.18h-3.578z"/><path fill="none" stroke="#000" stroke-linecap="round" stroke-linejoin="round" d="M124.945-115.328c0-.606 0-1.664-1.179-1.664-.692 0-.938.367-1.18.894-.773 1.75-2.109 3.903-4.27 4.067-.605.043-1.461.121-1.461 1.179 0 .692.407 1.176 1.301 1.176 2.278 0 4.024-1.707 4.149-1.789v17.434h-3.578c-.571 0-1.668 0-1.668 1.18s1.097 1.18 1.668 1.18h9.796c.567 0 1.665 0 1.665-1.18s-1.098-1.18-1.665-1.18h-3.578z"/><path fill="#d1b8eb" d="M192.164-89.656h28.348l-5.516-56.774h-17.312z"/><path fill="none" stroke="#306" stroke-linecap="round" stroke-linejoin="round" stroke-width=".5" d="M192.164-89.656h28.348l-5.516-56.774h-17.312zm14.176-56.774v-3.785"/><path fill="#306" d="M207.688-150.215c0-.746-.602-1.348-1.348-1.348s-1.348.602-1.348 1.348a1.349 1.349 0 0 0 2.696 0"/><path fill="#fff" d="M204.207-89.656h3.602v-3.98h-3.602Z"/><path fill="none" stroke="#8059a6" stroke-linecap="round" stroke-linejoin="round" stroke-width=".5" d="M204.207-89.656h3.602v-3.98h-3.602z"/><path fill="#fff" d="M213.555-95.965h2.855v-3.031h-2.855Z"/><path fill="none" stroke="#8059a6" stroke-linecap="round" stroke-linejoin="round" stroke-width=".5" d="M213.555-95.965h2.855v-3.031h-2.855z"/><path fill="#fff" d="M198.297-102.273h5.465v-8.821h-5.465Z"/><path fill="none" stroke="#8059a6" stroke-linecap="round" stroke-linejoin="round" stroke-width=".5" d="M198.297-102.273h5.465v-8.821h-5.465z"/><path fill="#fff" d="M198.391-108.582h5.097v-5.262h-5.097Z"/><path fill="none" stroke="#8059a6" stroke-linecap="round" stroke-linejoin="round" stroke-width=".5" d="M198.391-108.582h5.097v-5.262h-5.097z"/><path fill="#fff" d="M208.867-114.891h3.555v-4.644h-3.555Z"/><path fill="none" stroke="#8059a6" stroke-linecap="round" stroke-linejoin="round" stroke-width=".5" d="M208.867-114.891h3.555v-4.644h-3.555z"/><path fill="#fff" d="M199.797-121.195h3.652v-4.223h-3.652Z"/><path fill="none" stroke="#8059a6" stroke-linecap="round" stroke-linejoin="round" stroke-width=".5" d="M199.797-121.195h3.652v-4.223h-3.652z"/><path fill="#fff" d="M201.738-127.504h5.012v-7.266h-5.012Z"/><path fill="none" stroke="#8059a6" stroke-linecap="round" stroke-linejoin="round" stroke-width=".5" d="M201.738-127.504h5.016v-7.266h-5.016z"/><path fill="#fff" d="M203.262-133.813h5.57v-9.371h-5.57Z"/><path fill="none" stroke="#8059a6" stroke-linecap="round" stroke-linejoin="round" stroke-width=".5" d="M203.262-133.813h5.57v-9.371h-5.57z"/><path fill="#fff" d="M198.699-140.121h4.86v-4.891h-4.86Z"/><path fill="none" stroke="#8059a6" stroke-linecap="round" stroke-linejoin="round" stroke-width=".5" d="M198.699-140.121h4.86v-4.891h-4.86z"/><path fill="#ebded1" d="m322.691-90.156-2.054-5.762-1.664-7.352.668-3.394-5.469-7.031-16.266-.946-9.617-1.879-13.68-1.375-12.671 2.317-3.918 6.617 2.5 8.273-5.598 4.18-.262 6.352z"/><path fill="none" stroke="#664d33" stroke-linecap="round" stroke-linejoin="round" d="m322.691-90.156-2.054-5.762-1.664-7.352.668-3.394-5.469-7.031-16.266-.946-9.617-1.879-13.68-1.375-12.671 2.317-3.918 6.617 2.5 8.273-5.598 4.18-.262 6.352z"/><g fill="#ccbfb2"><path d="m269.012-91.332 8.824.238-.063-5.601-7.628-2.211z"/><path d="m264.648-94.234 5.997-.75-.211-.997-3.575-4.378zm8.411-5.871 7.785.246 2.066-5.317-6.375.887zm18.32-3.008.437 2.746 1.598-1.809-4.769-1.113z"/><path d="m274.059-105.164-.438 3.82 4.168-4.066-8.719-1.559z"/><path d="m272.289-103.609 10.402 1.304.641-7.492-8.066-4.211zm14.242-4.485 7.887-.707-3.301-3.812-8.062 2.066z"/></g><path fill="none" stroke="#664d33" stroke-linecap="round" stroke-linejoin="round" d="M288.676-120.309c5.195-2 7.054-7.379 3.926-11.375-1.965-2.507-5.75-3.859-6.899-6.738-1.117-2.805.652-5.84 3.988-6.844m5.786 24.957c4.222-.656 6.757-4.285 5.367-7.668-.875-2.125-3.328-3.687-3.528-5.957-.195-2.211 1.762-4.144 4.407-4.363m-23.254 17.988c2.258-2.16 1.683-5.484-1.207-7.031-1.813-.969-4.285-.933-5.762-2.273-1.437-1.309-1.363-3.328.164-4.563"/><path fill="gray" d="M292.371-100.609c.57-.489 4.676-3.989 4.676-8.5 0-4.629-3.82-7.883-8.902-7.883-4.711 0-7.844 3.535-7.844 6.953 0 1.707 1.426 1.828 1.668 1.828.73 0 1.621-.566 1.621-1.668 0-.769-.281-1.016-.485-1.18.571-2.152 2.438-3.578 4.797-3.578 3.453 0 6.5 1.992 6.5 5.528 0 3.171-2.398 5.613-4.593 7.519l-8.938 7.766c-.449.367-.57.484-.57.972 0 1.18 1.094 1.18 1.668 1.18h14.179c.899-.242.899-1.055.899-1.668v-.851c0-.73 0-1.668-1.301-1.668-1.344 0-1.344.855-1.344 1.828h-9.789z"/><path fill="none" stroke="#000" stroke-linecap="round" stroke-linejoin="round" d="M292.371-100.609c.57-.489 4.676-3.989 4.676-8.5 0-4.629-3.82-7.883-8.902-7.883-4.711 0-7.844 3.535-7.844 6.953 0 1.707 1.426 1.828 1.668 1.828.73 0 1.621-.566 1.621-1.668 0-.769-.281-1.016-.485-1.18.571-2.152 2.438-3.578 4.797-3.578 3.453 0 6.5 1.992 6.5 5.528 0 3.171-2.398 5.613-4.593 7.519l-8.938 7.766c-.449.367-.57.484-.57.972 0 1.18 1.094 1.18 1.668 1.18h14.179c.899-.242.899-1.055.899-1.668v-.851c0-.73 0-1.668-1.301-1.668-1.344 0-1.344.855-1.344 1.828h-9.789z"/><path fill="#b8b8eb" d="M356.84-89.656h28.344l1.441-22.086h-31.23z"/><path fill="none" stroke="#006" stroke-linecap="round" stroke-linejoin="round" stroke-width=".5" d="M356.84-89.656h28.344l1.441-22.086h-31.23zm14.172-22.086v-9.5"/><path fill="#006" d="M372.297-121.242a1.287 1.287 0 1 0-2.573-.005 1.287 1.287 0 0 0 2.573.005"/><path fill="#fff" d="M365.695-89.656h5.453v-6.797h-5.453Z"/><path fill="none" stroke="#5959a6" stroke-linecap="round" stroke-linejoin="round" stroke-width=".5" d="M365.695-89.656h5.453v-6.797h-5.453z"/><path fill="#fff" d="M370.559-97.02h3.156v-5.25h-3.156Z"/><path fill="none" stroke="#5959a6" stroke-linecap="round" stroke-linejoin="round" stroke-width=".5" d="M370.559-97.02h3.156v-5.25h-3.156z"/><path fill="#fff" d="M357.285-104.383h5.461v-6.176h-5.461Z"/><path fill="none" stroke="#5959a6" stroke-linecap="round" stroke-linejoin="round" stroke-width=".5" d="M357.285-104.383h5.457v-6.176h-5.457z"/><path fill="#ebded1" d="m487.363-90.156-7.047-5.356-.871-10.633-7.8-3.261-3.973-9.235-9.039 1.262-8.551-2.32-7.133-4.688-10.601-.129-3.578 6.078-2.129 9.602-6.95 9.477-.363 9.203z"/><path fill="none" stroke="#664d33" stroke-linecap="round" stroke-linejoin="round" d="m487.363-90.156-7.047-5.356-.871-10.633-7.8-3.261-3.973-9.235-9.039 1.262-8.551-2.32-7.133-4.688-10.601-.129-3.578 6.078-2.129 9.602-6.95 9.477-.363 9.203z"/><g fill="#ccbfb2"><path d="m443.773-91.2 9.223-3.12-.25-5.211-10.449 1.812z"/><path d="m449.309-95.988 10.004-3.043.164-1.805-9.747-.473zm-12.653-6.879 10.481 3.098-5.262-4.692-4.535-.445zm7.664-.266 10.657-4.5 1.843 1.238-8.64-.816z"/></g><path fill="none" stroke="#664d33" stroke-linecap="round" stroke-linejoin="round" d="M453.348-127.246c5.175-2.039 6.976-7.434 3.804-11.406-1.988-2.493-5.789-3.817-6.964-6.688-1.149-2.797.589-5.844 3.914-6.871m6.046 24.965c4.243-.567 6.895-4.133 5.614-7.551-.809-2.141-3.211-3.758-3.336-6.031-.121-2.215 1.898-4.106 4.551-4.262m-23.836 17.844c1.984-2.34 1.015-5.598-2.047-6.899-1.922-.812-4.375-.57-6.004-1.781-1.59-1.179-1.762-3.199-.387-4.551"/><path fill="gray" d="M453.305-104.148c4.226 0 6.097 2.964 6.097 5.16 0 2.683-2.359 5.203-5.937 5.203-4.059 0-5.895-2.196-5.895-2.766 0-.078.043-.16.086-.199.16-.29.282-.613.282-.98 0-.848-.649-1.622-1.625-1.622-.852 0-1.665.528-1.665 1.786 0 3.535 3.86 6.14 8.817 6.14 5.125 0 8.578-3.656 8.578-7.52 0-2.074-1.137-4.96-4.715-6.499 2.481-1.547 3.578-3.989 3.578-6.098 0-3.051-3.051-5.691-7.441-5.691-4.512 0-7.68 1.949-7.68 4.957 0 1.339 1.016 1.75 1.664 1.75.735 0 1.625-.571 1.625-1.668 0-.649-.32-1.016-.32-1.059 1.219-1.543 4.019-1.629 4.711-1.629 2.765 0 4.801 1.469 4.801 3.375 0 1.184-.778 4.559-5.043 4.84-1.504.078-2.153.164-2.321.164-.804.078-1.011.606-1.011 1.18 0 1.176.855 1.176 1.547 1.176z"/><path fill="none" stroke="#000" stroke-linecap="round" stroke-linejoin="round" d="M453.305-104.148c4.226 0 6.097 2.964 6.097 5.16 0 2.683-2.359 5.203-5.937 5.203-4.059 0-5.895-2.196-5.895-2.766 0-.078.043-.16.086-.199.16-.29.282-.613.282-.98 0-.848-.649-1.622-1.625-1.622-.852 0-1.665.528-1.665 1.786 0 3.535 3.86 6.14 8.817 6.14 5.125 0 8.578-3.656 8.578-7.52 0-2.074-1.137-4.96-4.715-6.499 2.481-1.547 3.578-3.989 3.578-6.098 0-3.051-3.051-5.691-7.441-5.691-4.512 0-7.68 1.949-7.68 4.957 0 1.339 1.016 1.75 1.664 1.75.735 0 1.625-.571 1.625-1.668 0-.649-.32-1.016-.32-1.059 1.219-1.543 4.019-1.629 4.711-1.629 2.765 0 4.801 1.469 4.801 3.375 0 1.184-.778 4.559-5.043 4.84-1.504.078-2.153.164-2.321.164-.804.078-1.011.606-1.011 1.18 0 1.176.855 1.176 1.547 1.176z"/><path fill="#ebded1" d="m569.699-90.156-5.226-10.473.664-8.234-7.379-9.711-3.879-6.129-5.93 1.699-12.746 2.625-3.898 1.492-11.606 1.039-7.543 7.539.446 7.465-6.567 7.602-4.367 5.086z"/><path fill="none" stroke="#664d33" stroke-linecap="round" stroke-linejoin="round" d="m569.699-90.156-5.226-10.473.664-8.234-7.379-9.711-3.879-6.129-5.93 1.699-12.746 2.625-3.898 1.492-11.606 1.039-7.543 7.539.446 7.465-6.567 7.602-4.367 5.086z"/><g fill="#ccbfb2"><path d="m546.238-92.969 5.141-.39 4.043-6.688-6.035 1.59zm-21.758-1.527 6.926 1.316-4.011-2.562-2.903-.508z"/><path d="m548.371-99.336 9.625 3.04-3.289-4.591-.887-2.527zm-8.582-1.223 3.508-1.562-.906-8.699-4.684-.684zm-19.387-1.304 1.52.984 2.633-6.23-8.059 4.015z"/><path d="m520.508-103.105 6.074-3.715.586-3.207-7.305-1.395zm11.726-5.145 6.34 1.5 3.098-6.398-11.301-2.528z"/></g><path fill="none" stroke="#664d33" stroke-linecap="round" stroke-linejoin="round" d="M535.684-126.945c4.777-2.629 5.644-8.18 1.832-11.739-2.391-2.234-6.379-3.097-8.032-5.8-1.605-2.633-.402-5.856 2.715-7.262m10.285 24.801c4.297-.008 7.579-3.196 6.946-6.735-.399-2.218-2.473-4.129-2.172-6.386.289-2.207 2.637-3.813 5.285-3.625m-27.066 16.746c2.273-2.149 1.734-5.477-1.145-7.039-1.805-.981-4.277-.961-5.742-2.309-1.426-1.316-1.336-3.34.207-4.562"/><path fill="gray" d="M526.781-101.383c-.367.528-.367.606-.367 1.34 0 1.422.527 1.582 1.629 1.582h9.953v4.473h-2.437c-.571 0-1.629 0-1.629 1.18s1.058 1.18 1.629 1.18h7.152c.57 0 1.629 0 1.629-1.18s-1.059-1.18-1.629-1.18h-2.441v-4.473h3.05c.571 0 1.629 0 1.629-1.176 0-1.179-1.058-1.179-1.629-1.179h-3.05v-14.551c0-1.34-.282-1.664-1.661-1.664h-.937c-.977 0-1.18.039-1.668.812zm2.356.567 8.859-14.227v14.227z"/><path fill="none" stroke="#000" stroke-linecap="round" stroke-linejoin="round" d="M526.781-101.383c-.367.528-.367.606-.367 1.34 0 1.422.527 1.582 1.629 1.582h9.953v4.473h-2.437c-.571 0-1.629 0-1.629 1.18s1.058 1.18 1.629 1.18h7.152c.57 0 1.629 0 1.629-1.18s-1.059-1.18-1.629-1.18h-2.441v-4.473h3.05c.571 0 1.629 0 1.629-1.176 0-1.179-1.058-1.179-1.629-1.179h-3.05v-14.551c0-1.34-.282-1.664-1.661-1.664h-.937c-.977 0-1.18.039-1.668.812z"/><path fill="none" stroke="#000" stroke-linecap="round" stroke-linejoin="round" d="m529.137-100.816 8.859-14.227v14.227z"/><path fill="#b8b8eb" d="M603.844-89.656h28.347l-5.421-47.735h-17.504z"/><path fill="none" stroke="#006" stroke-linecap="round" stroke-linejoin="round" stroke-width=".5" d="M603.844-89.656h28.347l-5.421-47.735h-17.504zm14.176-47.735v-9.855"/><path fill="#006" d="M619.598-147.246a1.58 1.58 0 1 0-3.161.003 1.58 1.58 0 0 0 3.161-.003"/><path fill="#fff" d="M620.699-89.656h4.75v-7.313h-4.75Z"/><path fill="none" stroke="#5959a6" stroke-linecap="round" stroke-linejoin="round" stroke-width=".5" d="M620.699-89.656h4.75v-7.313h-4.75z"/><path fill="#fff" d="M612.535-97.613h4.922v-6.676h-4.922Z"/><path fill="none" stroke="#5959a6" stroke-linecap="round" stroke-linejoin="round" stroke-width=".5" d="M612.535-97.613h4.922v-6.676h-4.922z"/><path fill="#fff" d="M608.145-105.57h3.148v-3.832h-3.148Z"/><path fill="none" stroke="#5959a6" stroke-linecap="round" stroke-linejoin="round" stroke-width=".5" d="M608.145-105.57h3.148v-3.832h-3.148z"/><path fill="#fff" d="M611.766-113.523h3.8v-5.332h-3.8Z"/><path fill="none" stroke="#5959a6" stroke-linecap="round" stroke-linejoin="round" stroke-width=".5" d="M611.766-113.523h3.8v-5.332h-3.8z"/><path fill="#fff" d="M619.512-121.48h3.726v-6.461h-3.726Z"/><path fill="none" stroke="#5959a6" stroke-linecap="round" stroke-linejoin="round" stroke-width=".5" d="M619.512-121.48h3.726v-6.461h-3.726z"/><path fill="#fff" d="M612.898-127.695h4.942v-9.696h-4.942Z"/><path fill="none" stroke="#5959a6" stroke-linecap="round" stroke-linejoin="round" stroke-width=".5" d="M612.898-127.695h4.942v-9.696h-4.942z"/><path fill="#ebb8eb" d="M686.18-89.656h28.347l-4.761-25.192h-18.825z"/><path fill="none" stroke="#606" stroke-linecap="round" stroke-linejoin="round" stroke-width=".5" d="M686.18-89.656h28.347l-4.761-25.192h-18.825zm14.172-25.192v-7.867"/><path fill="#606" d="M701.902-122.715a1.55 1.55 0 1 0-3.1-.003 1.55 1.55 0 0 0 3.1.003"/><path fill="#fff" d="M702.773-89.656h3.309v-6.5h-3.309Z"/><path fill="none" stroke="#a659a6" stroke-linecap="round" stroke-linejoin="round" stroke-width=".5" d="M702.773-89.656h3.309v-6.5h-3.309z"/><path fill="#fff" d="M694.754-102.254h3.234v-3.672h-3.234Z"/><path fill="none" stroke="#a659a6" stroke-linecap="round" stroke-linejoin="round" stroke-width=".5" d="M694.754-102.254h3.234v-3.672h-3.234z"/><path fill="#b8ebb8" d="M27.496-172.645H55.84l-3.703-20.98H31.199z"/><path fill="none" stroke="#060" stroke-linecap="round" stroke-linejoin="round" stroke-width=".5" d="M27.496-172.645H55.84l-3.703-20.98H31.199zm14.172-20.98v-10.387"/><path fill="#060" d="M42.691-204.012a1.024 1.024 0 1 0-2.048.003 1.024 1.024 0 0 0 2.048-.003"/><path fill="#fff" d="M29.328-172.645h4.727v-9.168h-4.727Z"/><path fill="none" stroke="#59a659" stroke-linecap="round" stroke-linejoin="round" stroke-width=".5" d="M29.328-172.645h4.727v-9.168h-4.727z"/><path fill="#fff" d="M41.902-179.637h2.883v-5.402h-2.883Z"/><path fill="none" stroke="#59a659" stroke-linecap="round" stroke-linejoin="round" stroke-width=".5" d="M41.902-179.637h2.883v-5.398h-2.883z"/><path fill="#fff" d="M39.219-186.633h3.535v-5.652h-3.535Z"/><path fill="none" stroke="#59a659" stroke-linecap="round" stroke-linejoin="round" stroke-width=".5" d="M39.219-186.633h3.535v-5.652h-3.535z"/><path fill="#ebb8eb" d="M109.828-172.645h28.348l2.164-49.546h-32.672z"/><path fill="none" stroke="#606" stroke-linecap="round" stroke-linejoin="round" stroke-width=".5" d="M109.828-172.645h28.348l2.164-49.546h-32.672zm14.176-49.546v-8.223"/><path fill="#606" d="M124.883-230.414a.878.878 0 1 0-1.757-.001.878.878 0 0 0 1.757.001"/><path fill="#fff" d="M110.238-172.645h4.918v-6.464h-4.918Z"/><path fill="none" stroke="#a659a6" stroke-linecap="round" stroke-linejoin="round" stroke-width=".5" d="M110.238-172.645h4.918v-6.464h-4.918z"/><path fill="#fff" d="M109.473-180.902h4.312v-4.461h-4.312Z"/><path fill="none" stroke="#a659a6" stroke-linecap="round" stroke-linejoin="round" stroke-width=".5" d="M109.473-180.902h4.312v-4.461h-4.312z"/><path fill="#fff" d="M111.469-189.16h3.586v-5.141h-3.586Z"/><path fill="none" stroke="#a659a6" stroke-linecap="round" stroke-linejoin="round" stroke-width=".5" d="M111.469-189.16h3.586v-5.141h-3.586z"/><path fill="#fff" d="M114.789-197.418h3.024v-3.656h-3.024Z"/><path fill="none" stroke="#a659a6" stroke-linecap="round" stroke-linejoin="round" stroke-width=".5" d="M114.789-197.418h3.024v-3.656h-3.024z"/><path fill="#fff" d="M135.184-205.676h3.004v-5.082h-3.004Z"/><path fill="none" stroke="#a659a6" stroke-linecap="round" stroke-linejoin="round" stroke-width=".5" d="M135.184-205.676h3.004v-5.082h-3.004z"/><path fill="#fff" d="M120.258-213.828h5.219v-8.363h-5.219Z"/><path fill="none" stroke="#a659a6" stroke-linecap="round" stroke-linejoin="round" stroke-width=".5" d="M120.258-213.828h5.219v-8.363h-5.219z"/><path fill="#ebb8b8" d="M192.164-172.645h28.348l2.785-45.734h-33.918z"/><path fill="none" stroke="#600" stroke-linecap="round" stroke-linejoin="round" stroke-width=".5" d="M192.164-172.645h28.348l2.785-45.734h-33.918z"/><path fill="#fff" d="M195.945-172.645h5.321v-8.793h-5.321Z"/><path fill="none" stroke="#a65959" stroke-linecap="round" stroke-linejoin="round" stroke-width=".5" d="M195.945-172.645h5.321v-8.793h-5.321z"/><path fill="#fff" d="M203.398-178.359h3.176v-3.766h-3.176Z"/><path fill="none" stroke="#a65959" stroke-linecap="round" stroke-linejoin="round" stroke-width=".5" d="M203.398-178.359h3.176v-3.762h-3.176z"/><path fill="#fff" d="M198.492-184.078h2.91v-3.492h-2.91Z"/><path fill="none" stroke="#a65959" stroke-linecap="round" stroke-linejoin="round" stroke-width=".5" d="M198.492-184.078h2.91v-3.492h-2.91z"/><path fill="#fff" d="M195.32-189.793h4.903v-5.457h-4.903Z"/><path fill="none" stroke="#a65959" stroke-linecap="round" stroke-linejoin="round" stroke-width=".5" d="M195.32-189.793h4.903v-5.457h-4.903z"/><path fill="#fff" d="M215.773-195.512h3.161v-3.293h-3.161Z"/><path fill="none" stroke="#a65959" stroke-linecap="round" stroke-linejoin="round" stroke-width=".5" d="M215.773-195.512h3.161v-3.293h-3.161z"/><path fill="#fff" d="M213.59-201.227h5.219v-6.75h-5.219Z"/><path fill="none" stroke="#a65959" stroke-linecap="round" stroke-linejoin="round" stroke-width=".5" d="M213.59-201.227h5.219v-6.75h-5.219z"/><path fill="#fff" d="M213.855-206.945h2.895v-3.598h-2.895Z"/><path fill="none" stroke="#a65959" stroke-linecap="round" stroke-linejoin="round" stroke-width=".5" d="M213.855-206.945h2.895v-3.598h-2.895z"/><path fill="#fff" d="M191.457-212.66h3v-3.129h-3Z"/><path fill="none" stroke="#a65959" stroke-linecap="round" stroke-linejoin="round" stroke-width=".5" d="M191.457-212.66h3v-3.129h-3z"/><path fill="#ebd1b8" d="M274.504-172.645h28.344l.312-37.675h-28.969z"/><path fill="none" stroke="#630" stroke-linecap="round" stroke-linejoin="round" stroke-width=".5" d="M274.504-172.645h28.344l.312-37.675h-28.969zm14.172-37.675v-10.016"/><path fill="#630" d="M290.121-220.336a1.446 1.446 0 0 0-2.891 0 1.445 1.445 0 1 0 2.891 0"/><path fill="#fff" d="M294.141-172.645h5.093v-5.668h-5.093Z"/><path fill="none" stroke="#a68059" stroke-linecap="round" stroke-linejoin="round" stroke-width=".5" d="M294.141-172.645h5.093v-5.668h-5.093z"/><path fill="#fff" d="M296.949-177.355h5.153v-9.524h-5.153Z"/><path fill="none" stroke="#a68059" stroke-linecap="round" stroke-linejoin="round" stroke-width=".5" d="M296.949-177.355h5.153v-9.524h-5.153z"/><path fill="#fff" d="M284.207-182.063h3.188v-4.925h-3.188Z"/><path fill="none" stroke="#a68059" stroke-linecap="round" stroke-linejoin="round" stroke-width=".5" d="M284.207-182.063h3.188v-4.925h-3.188z"/><path fill="#fff" d="M282.559-186.773h4.261v-5.614h-4.261Z"/><path fill="none" stroke="#a68059" stroke-linecap="round" stroke-linejoin="round" stroke-width=".5" d="M282.559-186.773h4.261v-5.614h-4.261z"/><path fill="#fff" d="M287.504-191.484h3.664v-5.375h-3.664Z"/><path fill="none" stroke="#a68059" stroke-linecap="round" stroke-linejoin="round" stroke-width=".5" d="M287.504-191.484h3.664v-5.375h-3.664z"/><path fill="#fff" d="M292.598-196.191h5.164v-5.473h-5.164Z"/><path fill="none" stroke="#a68059" stroke-linecap="round" stroke-linejoin="round" stroke-width=".5" d="M292.598-196.191h5.164v-5.473h-5.164z"/><path fill="#fff" d="M285.27-200.902H289v-5.395h-3.73Z"/><path fill="none" stroke="#a68059" stroke-linecap="round" stroke-linejoin="round" stroke-width=".5" d="M285.27-200.902h3.734v-5.395h-3.734z"/><path fill="#fff" d="M284.203-205.613h3.168v-3.2h-3.168Z"/><path fill="none" stroke="#a68059" stroke-linecap="round" stroke-linejoin="round" stroke-width=".5" d="M284.203-205.613h3.168v-3.2h-3.168z"/><path fill="#b8ebb8" d="M356.84-172.645h28.344l-6.723-55.218h-14.898z"/><path fill="none" stroke="#060" stroke-linecap="round" stroke-linejoin="round" stroke-width=".5" d="M356.84-172.645h28.344l-6.723-55.218h-14.898zm14.172-55.218v-4.657"/><path fill="#060" d="M372.16-232.52a1.15 1.15 0 1 0-2.302-.002 1.15 1.15 0 0 0 2.302.002"/><path fill="#fff" d="M366.758-172.645h2.863v-5.371h-2.863Z"/><path fill="none" stroke="#59a659" stroke-linecap="round" stroke-linejoin="round" stroke-width=".5" d="M366.758-172.645h2.863v-5.371h-2.863z"/><path fill="#fff" d="M378.695-179.547h3.004v-4.887h-3.004Z"/><path fill="none" stroke="#59a659" stroke-linecap="round" stroke-linejoin="round" stroke-width=".5" d="M378.695-179.547h3.004v-4.887h-3.004z"/><path fill="#fff" d="M373.68-186.449h2.922v-5.489h-2.922Z"/><path fill="none" stroke="#59a659" stroke-linecap="round" stroke-linejoin="round" stroke-width=".5" d="M373.68-186.449h2.922v-5.489h-2.922z"/><path fill="#fff" d="M365.324-193.352h4.602v-9.136h-4.602Z"/><path fill="none" stroke="#59a659" stroke-linecap="round" stroke-linejoin="round" stroke-width=".5" d="M365.324-193.352h4.602v-9.136h-4.602z"/><path fill="#fff" d="M368.695-200.254h3.508v-4.73h-3.508Z"/><path fill="none" stroke="#59a659" stroke-linecap="round" stroke-linejoin="round" stroke-width=".5" d="M368.695-200.254h3.508v-4.73h-3.508z"/><path fill="#fff" d="M371.18-207.156h5.117v-7.246h-5.117Z"/><path fill="none" stroke="#59a659" stroke-linecap="round" stroke-linejoin="round" stroke-width=".5" d="M371.18-207.156h5.117v-7.246h-5.117z"/><path fill="#fff" d="M373.406-214.059h3.274v-3.89h-3.274Z"/><path fill="none" stroke="#59a659" stroke-linecap="round" stroke-linejoin="round" stroke-width=".5" d="M373.406-214.059h3.274v-3.89h-3.274z"/><path fill="#fff" d="M365.531-219.043h5.125v-8.82h-5.125Z"/><path fill="none" stroke="#59a659" stroke-linecap="round" stroke-linejoin="round" stroke-width=".5" d="M365.531-219.043h5.125v-8.82h-5.125z"/><path fill="#ebded1" d="m487.363-173.145-1.343-6.304-5.645-13.578-6.109-6.762-4.032-9.274-7.593.532-9.75 2.742-7.875-1.856-11.938.606-1.16 7.738-4.203 6.606-6.254 9.527-2.133 10.023z"/><path fill="none" stroke="#664d33" stroke-linecap="round" stroke-linejoin="round" d="m487.363-173.145-1.343-6.304-5.645-13.578-6.109-6.762-4.032-9.274-7.593.532-9.75 2.742-7.875-1.856-11.938.606-1.16 7.738-4.203 6.606-6.254 9.527-2.133 10.023z"/><g fill="#ccbfb2"><path d="m442.164-175.113 5.848-2.731 2.621.985-3.328-1.399zm5.785-5.625 9.887 2.652-2.648-6.559-8.083 2.282zm-8.011 1.824 7.32-5.258 1.574-.625-5.242-2.949z"/><path d="m447.754-182.871 9.512-1.449-1.903-3.563-9.781-.965z"/><path d="m442.445-188.203 6.836-1.117 1.664-1.051-8.918.055zm-6.054-2.996 8.882-.457-6.648-.344-1.617-.516z"/></g><path fill="none" stroke="#664d33" stroke-linecap="round" stroke-linejoin="round" d="M453.348-213.719c5.425-1.519 7.976-6.695 5.386-10.953-1.621-2.672-5.211-4.359-5.972-7.324-.742-2.891 1.41-5.746 4.859-6.438m2.527 24.715c4.278-.344 7.192-3.769 6.165-7.242-.645-2.18-2.922-3.922-2.879-6.195.043-2.215 2.199-4 4.859-4.02m-25.152 17.457c1.695-2.492.339-5.656-2.864-6.691-2.007-.649-4.422-.203-6.191-1.274-1.723-1.039-2.133-3.035-.93-4.496"/><path fill="gray" d="M457.043-183.598c.57-.488 4.676-3.984 4.676-8.496 0-4.629-3.821-7.883-8.903-7.883-4.714 0-7.843 3.536-7.843 6.954 0 1.703 1.425 1.828 1.668 1.828.73 0 1.621-.571 1.621-1.672 0-.77-.282-1.016-.485-1.18.571-2.152 2.438-3.574 4.797-3.574 3.453 0 6.5 1.992 6.5 5.527 0 3.172-2.398 5.614-4.594 7.52l-8.937 7.765c-.449.368-.57.485-.57.973 0 1.18 1.093 1.18 1.668 1.18h14.179c.899-.246.899-1.059.899-1.668v-.852c0-.734 0-1.668-1.301-1.668-1.344 0-1.344.856-1.344 1.828h-9.793z"/><path fill="none" stroke="#000" stroke-linecap="round" stroke-linejoin="round" d="M457.043-183.598c.57-.488 4.676-3.984 4.676-8.496 0-4.629-3.821-7.883-8.903-7.883-4.714 0-7.843 3.536-7.843 6.954 0 1.703 1.425 1.828 1.668 1.828.73 0 1.621-.571 1.621-1.672 0-.77-.282-1.016-.485-1.18.571-2.152 2.438-3.574 4.797-3.574 3.453 0 6.5 1.992 6.5 5.527 0 3.172-2.398 5.614-4.594 7.52l-8.937 7.765c-.449.368-.57.485-.57.973 0 1.18 1.093 1.18 1.668 1.18h14.179c.899-.246.899-1.059.899-1.668v-.852c0-.734 0-1.668-1.301-1.668-1.344 0-1.344.856-1.344 1.828h-9.793z"/><path fill="#ebb8b8" d="M521.508-172.645h28.347l-.902-31.722H522.41z"/><path fill="none" stroke="#600" stroke-linecap="round" stroke-linejoin="round" stroke-width=".5" d="M521.508-172.645h28.347l-.902-31.722H522.41z"/><path fill="#fff" d="M534.762-172.645h4.121v-7.855h-4.121Z"/><path fill="none" stroke="#a65959" stroke-linecap="round" stroke-linejoin="round" stroke-width=".5" d="M534.762-172.645h4.121v-7.855h-4.121z"/><path fill="#fff" d="M543.746-180.574h4.192v-7.528h-4.192Z"/><path fill="none" stroke="#a65959" stroke-linecap="round" stroke-linejoin="round" stroke-width=".5" d="M543.746-180.574h4.192v-7.528h-4.192z"/><path fill="#fff" d="M542.805-188.508h3.082v-4.746h-3.082Z"/><path fill="none" stroke="#a65959" stroke-linecap="round" stroke-linejoin="round" stroke-width=".5" d="M542.805-188.508h3.082v-4.746h-3.082z"/><path fill="#fff" d="M526.172-195.258h4.605v-9.109h-4.605Z"/><path fill="none" stroke="#a65959" stroke-linecap="round" stroke-linejoin="round" stroke-width=".5" d="M526.172-195.258h4.605v-9.109h-4.605z"/><path fill="#ebb8b8" d="M603.844-172.645h28.347l-8.031-29.761h-12.285z"/><path fill="none" stroke="#600" stroke-linecap="round" stroke-linejoin="round" stroke-width=".5" d="M603.844-172.645h28.347l-8.031-29.761h-12.285zm14.176-29.761v-9.114"/><path fill="#600" d="M619.406-211.52a1.388 1.388 0 1 0-1.386 1.391c.765 0 1.386-.621 1.386-1.391"/><path fill="#fff" d="M613.121-172.645h4.012v-6.187h-4.012Z"/><path fill="none" stroke="#a65959" stroke-linecap="round" stroke-linejoin="round" stroke-width=".5" d="M613.121-172.645h4.012v-6.183h-4.012z"/><path fill="#fff" d="M614.172-180.086h5.402v-10.641h-5.402Z"/><path fill="none" stroke="#a65959" stroke-linecap="round" stroke-linejoin="round" stroke-width=".5" d="M614.172-180.086h5.402v-10.641h-5.402z"/><path fill="#fff" d="M621.285-187.523h4.367v-6.465h-4.367Z"/><path fill="none" stroke="#a65959" stroke-linecap="round" stroke-linejoin="round" stroke-width=".5" d="M621.285-187.523h4.367v-6.465h-4.367z"/><path fill="#fff" d="M618.066-194.965h2.907v-4.574h-2.907Z"/><path fill="none" stroke="#a65959" stroke-linecap="round" stroke-linejoin="round" stroke-width=".5" d="M618.066-194.965h2.907v-4.574h-2.907z"/><path fill="#b8ebb8" d="M686.18-172.645h28.347l-3.297-58.8h-21.753z"/><path fill="none" stroke="#060" stroke-linecap="round" stroke-linejoin="round" stroke-width=".5" d="M686.18-172.645h28.347l-3.297-58.8h-21.753zm14.172-58.8v-7.364"/><path fill="#060" d="M701.793-238.809a1.44 1.44 0 0 0-1.441-1.437c-.793 0-1.434.644-1.434 1.437s.641 1.438 1.434 1.438a1.44 1.44 0 0 0 1.441-1.438"/><path fill="#fff" d="M695.262-172.645h4.113v-5.085h-4.113Z"/><path fill="none" stroke="#59a659" stroke-linecap="round" stroke-linejoin="round" stroke-width=".5" d="M695.262-172.645h4.113v-5.085h-4.113z"/><path fill="#fff" d="M698.523-177.543h4.848v-5.391h-4.848Z"/><path fill="none" stroke="#59a659" stroke-linecap="round" stroke-linejoin="round" stroke-width=".5" d="M698.523-177.543h4.848v-5.391h-4.848z"/><path fill="#fff" d="M690.082-182.445h4.856v-5.993h-4.856Z"/><path fill="none" stroke="#59a659" stroke-linecap="round" stroke-linejoin="round" stroke-width=".5" d="M690.082-182.445h4.856v-5.993h-4.856z"/><path fill="#fff" d="M708.012-187.344h4.609v-6.554h-4.609Z"/><path fill="none" stroke="#59a659" stroke-linecap="round" stroke-linejoin="round" stroke-width=".5" d="M708.012-187.344h4.609v-6.554h-4.609z"/><path fill="#fff" d="M709.309-192.246h3.57v-7.012h-3.57Z"/><path fill="none" stroke="#59a659" stroke-linecap="round" stroke-linejoin="round" stroke-width=".5" d="M709.309-192.246h3.57v-7.012h-3.57z"/><path fill="#fff" d="M704.418-197.145h3.867v-7.234h-3.867Z"/><path fill="none" stroke="#59a659" stroke-linecap="round" stroke-linejoin="round" stroke-width=".5" d="M704.418-197.145h3.867v-7.234h-3.867z"/><path fill="#fff" d="M699.254-202.047h4.441v-6.226h-4.441Z"/><path fill="none" stroke="#59a659" stroke-linecap="round" stroke-linejoin="round" stroke-width=".5" d="M699.254-202.047h4.441v-6.226h-4.441z"/><path fill="#fff" d="M701.488-206.945h3.43v-5.61h-3.43Z"/><path fill="none" stroke="#59a659" stroke-linecap="round" stroke-linejoin="round" stroke-width=".5" d="M701.488-206.945h3.43v-5.61h-3.43z"/><path fill="#fff" d="M707.313-211.848h4.507v-5.066h-4.507Z"/><path fill="none" stroke="#59a659" stroke-linecap="round" stroke-linejoin="round" stroke-width=".5" d="M707.313-211.848h4.507v-5.066h-4.507z"/><path fill="#fff" d="M695.961-216.746h5.234v-6.524h-5.234Z"/><path fill="none" stroke="#59a659" stroke-linecap="round" stroke-linejoin="round" stroke-width=".5" d="M695.961-216.746h5.234v-6.524h-5.234z"/><path fill="#fff" d="M704.645-221.648h3.312v-4.602h-3.312Z"/><path fill="none" stroke="#59a659" stroke-linecap="round" stroke-linejoin="round" stroke-width=".5" d="M704.645-221.648h3.308v-4.598h-3.308z"/><path fill="#fff" d="M701.258-222.148h4.805v-9.297h-4.805Z"/><path fill="none" stroke="#59a659" stroke-linecap="round" stroke-linejoin="round" stroke-width=".5" d="M701.258-222.148h4.805v-9.297h-4.805z"/><path fill="#d1b8eb" d="M27.496-255.629H55.84l-.781-49.379H28.277z"/><path fill="none" stroke="#306" stroke-linecap="round" stroke-linejoin="round" stroke-width=".5" d="M27.496-255.629H55.84l-.781-49.379H28.277zm14.172-49.379v-14.07"/><path fill="#306" d="M42.688-319.078a1.02 1.02 0 1 0-2.041 0 1.02 1.02 0 0 0 2.04 0"/><path fill="#fff" d="M49.938-255.629h5.042v-7.551h-5.042Z"/><path fill="none" stroke="#8059a6" stroke-linecap="round" stroke-linejoin="round" stroke-width=".5" d="M49.938-255.629h5.042v-7.551h-5.042z"/><path fill="#fff" d="M41.66-263.859h3.735v-5.52H41.66Z"/><path fill="none" stroke="#8059a6" stroke-linecap="round" stroke-linejoin="round" stroke-width=".5" d="M41.66-263.859h3.735v-5.524H41.66z"/><path fill="#fff" d="M48.246-272.09h4.398v-8.058h-4.398Z"/><path fill="none" stroke="#8059a6" stroke-linecap="round" stroke-linejoin="round" stroke-width=".5" d="M48.246-272.09h4.398v-8.058h-4.398z"/><path fill="#fff" d="M47.2-280.32h3.98v-4.063H47.2Z"/><path fill="none" stroke="#8059a6" stroke-linecap="round" stroke-linejoin="round" stroke-width=".5" d="M47.2-280.32h3.98v-4.063H47.2z"/><path fill="#fff" d="M39.492-288.551h4.778v-8.082h-4.778Z"/><path fill="none" stroke="#8059a6" stroke-linecap="round" stroke-linejoin="round" stroke-width=".5" d="M39.492-288.551h4.778v-8.082h-4.778z"/><path fill="#fff" d="M37.23-296.781h3.95v-4.032h-3.95Z"/><path fill="none" stroke="#8059a6" stroke-linecap="round" stroke-linejoin="round" stroke-width=".5" d="M37.23-296.781h3.95v-4.032h-3.95z"/><path fill="#b8b8b8" d="M109.828-255.629h28.348l.379-46.879h-29.102z"/><path fill="none" stroke="#000" stroke-linecap="round" stroke-linejoin="round" stroke-width=".5" d="M109.828-255.629h28.348l.379-46.879h-29.102zm14.176-46.879v-13.828"/><path d="M125.445-316.336a1.443 1.443 0 1 0-2.886.004 1.443 1.443 0 0 0 2.886-.004"/><path fill="#fff" d="M117.031-255.629h5.219v-10.422h-5.219Z"/><path fill="none" stroke="#595959" stroke-linecap="round" stroke-linejoin="round" stroke-width=".5" d="M117.031-255.629h5.219v-10.422h-5.219z"/><path fill="#fff" d="M115.434-267.348h5.164v-8.754h-5.164Z"/><path fill="none" stroke="#595959" stroke-linecap="round" stroke-linejoin="round" stroke-width=".5" d="M115.434-267.348h5.164v-8.754h-5.164z"/><path fill="#fff" d="M121.715-279.07h5.465v-6.094h-5.465Z"/><path fill="none" stroke="#595959" stroke-linecap="round" stroke-linejoin="round" stroke-width=".5" d="M121.715-279.07h5.465v-6.094h-5.465z"/><path fill="#fff" d="M113.102-290.789h4.859v-7.121h-4.859Z"/><path fill="none" stroke="#595959" stroke-linecap="round" stroke-linejoin="round" stroke-width=".5" d="M113.102-290.789h4.859v-7.121h-4.859z"/><path fill="#b8ebb8" d="M192.164-255.629h28.348l2.773-45.863h-33.894z"/><path fill="none" stroke="#060" stroke-linecap="round" stroke-linejoin="round" stroke-width=".5" d="M192.164-255.629h28.348l2.773-45.863h-33.894z"/><path fill="#fff" d="M213.273-255.629h5.418v-7.098h-5.418Z"/><path fill="none" stroke="#59a659" stroke-linecap="round" stroke-linejoin="round" stroke-width=".5" d="M213.273-255.629h5.418v-7.098h-5.418z"/><path fill="#fff" d="M211.594-261.363h4.707v-9.235h-4.707Z"/><path fill="none" stroke="#59a659" stroke-linecap="round" stroke-linejoin="round" stroke-width=".5" d="M211.594-261.363h4.707v-9.235h-4.707z"/><path fill="#fff" d="M209.074-267.098h4.817v-9.047h-4.817Z"/><path fill="none" stroke="#59a659" stroke-linecap="round" stroke-linejoin="round" stroke-width=".5" d="M209.074-267.098h4.817v-9.047h-4.817z"/><path fill="#fff" d="M196.371-272.828h5.227v-6.735h-5.227Z"/><path fill="none" stroke="#59a659" stroke-linecap="round" stroke-linejoin="round" stroke-width=".5" d="M196.371-272.828h5.227v-6.735h-5.227z"/><path fill="#fff" d="M203.965-278.563h4.992v-8.937h-4.992Z"/><path fill="none" stroke="#59a659" stroke-linecap="round" stroke-linejoin="round" stroke-width=".5" d="M203.965-278.563h4.988v-8.933h-4.988z"/><path fill="#fff" d="M194.625-284.297h3.215v-4.328h-3.215Z"/><path fill="none" stroke="#59a659" stroke-linecap="round" stroke-linejoin="round" stroke-width=".5" d="M194.625-284.297h3.215v-4.328h-3.215z"/><path fill="#fff" d="M191.832-290.027h2.938v-3.754h-2.938Z"/><path fill="none" stroke="#59a659" stroke-linecap="round" stroke-linejoin="round" stroke-width=".5" d="M191.832-290.027h2.938v-3.754h-2.938z"/><path fill="#fff" d="M203.711-294.949h4.148v-6.543h-4.148Z"/><path fill="none" stroke="#59a659" stroke-linecap="round" stroke-linejoin="round" stroke-width=".5" d="M203.711-294.949h4.148v-6.543h-4.148z"/><path fill="#b8b8eb" d="M274.504-255.629h28.344l-2.68-52.476h-22.984z"/><path fill="none" stroke="#006" stroke-linecap="round" stroke-linejoin="round" stroke-width=".5" d="M274.504-255.629h28.344l-2.68-52.476h-22.984z"/><path fill="#fff" d="M287.652-255.629h3.813v-6.449h-3.813Z"/><path fill="none" stroke="#5959a6" stroke-linecap="round" stroke-linejoin="round" stroke-width=".5" d="M287.652-255.629h3.813v-6.449h-3.813z"/><path fill="#fff" d="M285.105-262.188h5.387v-9.148h-5.387Z"/><path fill="none" stroke="#5959a6" stroke-linecap="round" stroke-linejoin="round" stroke-width=".5" d="M285.105-262.188h5.387v-9.148h-5.387z"/><path fill="#fff" d="M292.129-268.746h5.414v-8.996h-5.414Z"/><path fill="none" stroke="#5959a6" stroke-linecap="round" stroke-linejoin="round" stroke-width=".5" d="M292.129-268.746h5.41v-8.996h-5.41z"/><path fill="#fff" d="M276.809-275.309h3.269v-3.293h-3.269Z"/><path fill="none" stroke="#5959a6" stroke-linecap="round" stroke-linejoin="round" stroke-width=".5" d="M276.809-275.309h3.269v-3.293h-3.269z"/><path fill="#fff" d="M295.453-281.867h5.238v-7.91h-5.238Z"/><path fill="none" stroke="#5959a6" stroke-linecap="round" stroke-linejoin="round" stroke-width=".5" d="M295.453-281.867h5.238v-7.91h-5.238z"/><path fill="#fff" d="M287.066-288.426h4.766v-6.738h-4.766Z"/><path fill="none" stroke="#5959a6" stroke-linecap="round" stroke-linejoin="round" stroke-width=".5" d="M287.066-288.426h4.77v-6.738h-4.77z"/><path fill="#fff" d="M282.922-294.984h5.445v-10.684h-5.445Z"/><path fill="none" stroke="#5959a6" stroke-linecap="round" stroke-linejoin="round" stroke-width=".5" d="M282.922-294.984h5.445v-10.684h-5.445z"/><path fill="#fff" d="M291.898-301.547h3.637v-3.769h-3.637Z"/><path fill="none" stroke="#5959a6" stroke-linecap="round" stroke-linejoin="round" stroke-width=".5" d="M291.898-301.547h3.637v-3.769h-3.637z"/><path fill="#ebb8b8" d="M356.84-255.629h28.344l-8.188-58.461h-11.969z"/><path fill="none" stroke="#600" stroke-linecap="round" stroke-linejoin="round" stroke-width=".5" d="M356.84-255.629h28.344l-8.188-58.461h-11.969zm14.172-58.461v-11.461"/><path fill="#600" d="M372.238-325.551a1.227 1.227 0 1 0-2.455.003 1.227 1.227 0 0 0 2.455-.003"/><path fill="#fff" d="M362.637-255.629h5.308v-5.742h-5.308Z"/><path fill="none" stroke="#a65959" stroke-linecap="round" stroke-linejoin="round" stroke-width=".5" d="M362.637-255.629h5.308v-5.742h-5.308z"/><path fill="#fff" d="M366.699-260.5h4.446v-6.91h-4.446Z"/><path fill="none" stroke="#a65959" stroke-linecap="round" stroke-linejoin="round" stroke-width=".5" d="M366.699-260.5h4.446v-6.91h-4.446z"/><path fill="#fff" d="M368.563-265.371h3.195v-5.68h-3.195Z"/><path fill="none" stroke="#a65959" stroke-linecap="round" stroke-linejoin="round" stroke-width=".5" d="M368.563-265.371h3.195v-5.68h-3.195z"/><path fill="#fff" d="M371.918-270.246h4.711v-8.285h-4.711Z"/><path fill="none" stroke="#a65959" stroke-linecap="round" stroke-linejoin="round" stroke-width=".5" d="M371.918-270.246h4.711v-8.285h-4.711z"/><path fill="#fff" d="M376.121-275.117h4.598v-7.606h-4.598Z"/><path fill="none" stroke="#a65959" stroke-linecap="round" stroke-linejoin="round" stroke-width=".5" d="M376.121-275.117h4.598v-7.606h-4.598z"/><path fill="#fff" d="M361.797-279.988h5.609v-8.125h-5.609Z"/><path fill="none" stroke="#a65959" stroke-linecap="round" stroke-linejoin="round" stroke-width=".5" d="M361.797-279.988h5.609v-8.125h-5.609z"/><path fill="#fff" d="M372.461-284.859h5.445v-6.575h-5.445Z"/><path fill="none" stroke="#a65959" stroke-linecap="round" stroke-linejoin="round" stroke-width=".5" d="M372.461-284.859h5.445v-6.575h-5.445z"/><path fill="#fff" d="M369.383-289.73h3.324v-3.536h-3.324Z"/><path fill="none" stroke="#a65959" stroke-linecap="round" stroke-linejoin="round" stroke-width=".5" d="M369.383-289.73h3.328v-3.536h-3.328z"/><path fill="#fff" d="M366.211-294.602h3.172v-4.855h-3.172Z"/><path fill="none" stroke="#a65959" stroke-linecap="round" stroke-linejoin="round" stroke-width=".5" d="M366.211-294.602h3.172v-4.859h-3.172z"/><path fill="#fff" d="M369.965-299.477h2.918v-2.929h-2.918Z"/><path fill="none" stroke="#a65959" stroke-linecap="round" stroke-linejoin="round" stroke-width=".5" d="M369.965-299.477h2.918v-2.929h-2.918z"/><path fill="#fff" d="M365.773-304.348h3.016v-5.425h-3.016Z"/><path fill="none" stroke="#a65959" stroke-linecap="round" stroke-linejoin="round" stroke-width=".5" d="M365.773-304.348h3.016v-5.425h-3.016z"/><path fill="#fff" d="M365.855-308.648h4.012v-5.442h-4.012Z"/><path fill="none" stroke="#a65959" stroke-linecap="round" stroke-linejoin="round" stroke-width=".5" d="M365.855-308.648h4.012v-5.442h-4.012z"/><path fill="#b8b8eb" d="M439.172-255.629h28.348l.371-44.902h-29.086z"/><path fill="none" stroke="#006" stroke-linecap="round" stroke-linejoin="round" stroke-width=".5" d="M439.172-255.629h28.348l.371-44.902h-29.086zm14.176-44.902v-6.731"/><path fill="#006" d="M454.379-307.262c0-.57-.461-1.035-1.031-1.035a1.034 1.034 0 0 0 0 2.067c.57 0 1.031-.465 1.031-1.032"/><path fill="#fff" d="M459.086-255.629h3.902v-6.398h-3.902Z"/><path fill="none" stroke="#5959a6" stroke-linecap="round" stroke-linejoin="round" stroke-width=".5" d="M459.086-255.629h3.902v-6.398h-3.902z"/><path fill="#fff" d="M453.293-266.855h3.398v-4.918h-3.398Z"/><path fill="none" stroke="#5959a6" stroke-linecap="round" stroke-linejoin="round" stroke-width=".5" d="M453.293-266.855h3.398v-4.918h-3.398z"/><path fill="#fff" d="M459.715-278.082h4.019v-7.27h-4.019Z"/><path fill="none" stroke="#5959a6" stroke-linecap="round" stroke-linejoin="round" stroke-width=".5" d="M459.715-278.082h4.019v-7.27h-4.019z"/><path fill="#fff" d="M444.711-289.309h3.043v-3.535h-3.043Z"/><path fill="none" stroke="#5959a6" stroke-linecap="round" stroke-linejoin="round" stroke-width=".5" d="M444.711-289.309h3.043v-3.535h-3.043z"/><path fill="#ebded1" d="m569.699-256.129-.687-8.047-2.684-9.515-5.043-14.758-4.515-7.336-13.094.754-6.567-.293-13.355 2.066-9.649 1.356-6.218 10.332 1.855 9.535-2.996 6.387-5.078 9.519z"/><path fill="none" stroke="#664d33" stroke-linecap="round" stroke-linejoin="round" d="m569.699-256.129-.687-8.047-2.684-9.515-5.043-14.758-4.515-7.336-13.094.754-6.567-.293-13.355 2.066-9.649 1.356-6.218 10.332 1.855 9.535-2.996 6.387-5.078 9.519z"/><g fill="#ccbfb2"><path d="m544.703-259.484 15.516 1.027-2.625-1.875-9.125-3.746zm-7.789-.672-1.363-2.676.887-2.809.539 1.825z"/><path d="m544.609-266.547 3.457 3.707-.039-4.195-.98-1.43zm-21.441 2.391 6.52-2.16-1.965-.25-7.258-1.043z"/><path d="m520.77-266.027 8.582-.559-2.168-3.668-7.559-.637z"/><path d="m526.832-270.07 3.633-2.219.527 2.34-3.64-.035zm11.746-4.715 8.692 1.82-4.493-2.23-2.511-3.938z"/></g><path fill="none" stroke="#664d33" stroke-linecap="round" stroke-linejoin="round" d="M535.684-299.512c5.062-2.226 6.578-7.679 3.203-11.535-2.117-2.418-5.985-3.601-7.313-6.426-1.289-2.75.285-5.859 3.555-7.007m7.355 24.968c4.176-.832 6.496-4.558 4.907-7.883-1-2.085-3.547-3.546-3.879-5.804-.324-2.199 1.515-4.211 4.144-4.539m-22.179 18.226c2.461-2 2.218-5.351-.512-7.09-1.711-1.089-4.18-1.222-5.52-2.66-1.304-1.402-1.035-3.414.614-4.535"/><path fill="gray" d="M537.105-281.301c0-.605 0-1.664-1.179-1.664-.692 0-.934.367-1.18.895-.769 1.75-2.109 3.902-4.266 4.066-.609.043-1.464.121-1.464 1.18 0 .691.406 1.176 1.304 1.176 2.274 0 4.024-1.707 4.145-1.79v17.434h-3.578c-.567 0-1.668 0-1.668 1.18s1.101 1.179 1.668 1.179h9.797c.57 0 1.664 0 1.664-1.179s-1.094-1.18-1.664-1.18h-3.579z"/><path fill="none" stroke="#000" stroke-linecap="round" stroke-linejoin="round" d="M537.105-281.301c0-.605 0-1.664-1.179-1.664-.692 0-.934.367-1.18.895-.769 1.75-2.109 3.902-4.266 4.066-.609.043-1.464.121-1.464 1.18 0 .691.406 1.176 1.304 1.176 2.274 0 4.024-1.707 4.145-1.79v17.434h-3.578c-.567 0-1.668 0-1.668 1.18s1.101 1.179 1.668 1.179h9.797c.57 0 1.664 0 1.664-1.179s-1.094-1.18-1.664-1.18h-3.579z"/><path fill="#b8b8b8" d="M603.844-255.629h28.347l-7.535-59.562h-13.277z"/><path fill="none" stroke="#000" stroke-linecap="round" stroke-linejoin="round" stroke-width=".5" d="M603.844-255.629h28.347l-7.535-59.562h-13.277zm14.176-59.562v-10.368"/><path d="M619.199-325.559c0-.656-.527-1.183-1.179-1.183a1.18 1.18 0 0 0-1.184 1.183c0 .653.527 1.18 1.184 1.18.652 0 1.179-.527 1.179-1.18"/><path fill="#fff" d="M609.848-255.629h3.023v-5.375h-3.023Z"/><path fill="none" stroke="#595959" stroke-linecap="round" stroke-linejoin="round" stroke-width=".5" d="M609.848-255.629h3.023v-5.375h-3.023z"/><path fill="#fff" d="M618.598-265.555h4.254v-7.535h-4.254Z"/><path fill="none" stroke="#595959" stroke-linecap="round" stroke-linejoin="round" stroke-width=".5" d="M618.598-265.555h4.254v-7.535h-4.254z"/><path fill="#fff" d="M614.813-275.484h5.324v-5.969h-5.324Z"/><path fill="none" stroke="#595959" stroke-linecap="round" stroke-linejoin="round" stroke-width=".5" d="M614.813-275.484h5.324v-5.969h-5.324z"/><path fill="#fff" d="M611.387-285.41H616v-4.695h-4.613Z"/><path fill="none" stroke="#595959" stroke-linecap="round" stroke-linejoin="round" stroke-width=".5" d="M611.387-285.41h4.609v-4.695h-4.609z"/><path fill="#fff" d="M614.973-295.336h4.613v-6.109h-4.613Z"/><path fill="none" stroke="#595959" stroke-linecap="round" stroke-linejoin="round" stroke-width=".5" d="M614.973-295.336h4.613v-6.109h-4.613z"/><path fill="#fff" d="M613.828-305.262h4.258v-6.433h-4.258Z"/><path fill="none" stroke="#595959" stroke-linecap="round" stroke-linejoin="round" stroke-width=".5" d="M613.828-305.262h4.258v-6.433h-4.258z"/><path fill="#b8b8b8" d="M686.18-255.629h28.347l-1.937-41.137h-24.473z"/><path fill="none" stroke="#000" stroke-linecap="round" stroke-linejoin="round" stroke-width=".5" d="M686.18-255.629h28.347l-1.937-41.137h-24.473zm14.172-41.137v-10.496"/><path d="M701.734-307.262c0-.761-.617-1.383-1.382-1.383-.762 0-1.379.622-1.379 1.383 0 .762.617 1.379 1.379 1.379a1.38 1.38 0 0 0 1.382-1.379"/><path fill="#fff" d="M703.48-255.629h5.047v-6.297h-5.047Z"/><path fill="none" stroke="#595959" stroke-linecap="round" stroke-linejoin="round" stroke-width=".5" d="M703.48-255.629h5.047v-6.297h-5.047z"/><path fill="#fff" d="M693.504-260.773h5.215v-7.457h-5.215Z"/><path fill="none" stroke="#595959" stroke-linecap="round" stroke-linejoin="round" stroke-width=".5" d="M693.504-260.773h5.215v-7.457h-5.215z"/><path fill="#fff" d="M705.523-265.914h4.907v-5.984h-4.907Z"/><path fill="none" stroke="#595959" stroke-linecap="round" stroke-linejoin="round" stroke-width=".5" d="M705.523-265.914h4.907v-5.984h-4.907z"/><path fill="#fff" d="M702.094-271.055h3.086v-3.129h-3.086Z"/><path fill="none" stroke="#595959" stroke-linecap="round" stroke-linejoin="round" stroke-width=".5" d="M702.094-271.055h3.086v-3.129h-3.086z"/><path fill="#fff" d="M703.211-276.199h4.844v-6.043h-4.844Z"/><path fill="none" stroke="#595959" stroke-linecap="round" stroke-linejoin="round" stroke-width=".5" d="M703.211-276.199h4.844v-6.043h-4.844z"/><path fill="#fff" d="M697.453-281.34h5.277v-8.34h-5.277Z"/><path fill="none" stroke="#595959" stroke-linecap="round" stroke-linejoin="round" stroke-width=".5" d="M697.453-281.34h5.277v-8.34h-5.277z"/><path fill="#fff" d="M697.43-286.48h3.855v-5.868h-3.855Z"/><path fill="none" stroke="#595959" stroke-linecap="round" stroke-linejoin="round" stroke-width=".5" d="M697.43-286.48h3.855v-5.868h-3.855z"/><path fill="#fff" d="M696.246-290.602h3.102v-6.164h-3.102Z"/><path fill="none" stroke="#595959" stroke-linecap="round" stroke-linejoin="round" stroke-width=".5" d="M696.246-290.602h3.102v-6.164h-3.102z"/><path fill="#b8ebb8" d="M27.496-338.617H55.84l-6.754-32.219H34.25z"/><path fill="none" stroke="#060" stroke-linecap="round" stroke-linejoin="round" stroke-width=".5" d="M27.496-338.617H55.84l-6.754-32.219H34.25z"/><path fill="#fff" d="M38.785-338.617h5.133v-6.024h-5.133Z"/><path fill="none" stroke="#59a659" stroke-linecap="round" stroke-linejoin="round" stroke-width=".5" d="M38.785-338.617h5.133v-6.024h-5.133z"/><path fill="#fff" d="M31.773-343.984h4.454v-5.934h-4.454Z"/><path fill="none" stroke="#59a659" stroke-linecap="round" stroke-linejoin="round" stroke-width=".5" d="M31.773-343.984h4.454v-5.934h-4.454z"/><path fill="#fff" d="M35.57-349.355h3.121v-4.633h-3.12Z"/><path fill="none" stroke="#59a659" stroke-linecap="round" stroke-linejoin="round" stroke-width=".5" d="M35.57-349.355h3.121v-4.633h-3.12z"/><path fill="#fff" d="M34.777-354.727h5.04v-6.675h-5.04Z"/><path fill="none" stroke="#59a659" stroke-linecap="round" stroke-linejoin="round" stroke-width=".5" d="M34.777-354.727h5.04v-6.675h-5.04z"/><path fill="#fff" d="M34.113-360.094h4.422v-7.539h-4.422Z"/><path fill="none" stroke="#59a659" stroke-linecap="round" stroke-linejoin="round" stroke-width=".5" d="M34.113-360.094h4.422v-7.539h-4.422z"/><path fill="#fff" d="M38.98-365.465h2.946v-3.414H38.98Z"/><path fill="none" stroke="#59a659" stroke-linecap="round" stroke-linejoin="round" stroke-width=".5" d="M38.98-365.465h2.946v-3.414H38.98z"/><path fill="#b8b8eb" d="M109.828-338.617h28.348l-7.887-39.141h-12.57z"/><path fill="none" stroke="#006" stroke-linecap="round" stroke-linejoin="round" stroke-width=".5" d="M109.828-338.617h28.348l-7.887-39.141h-12.57zm14.176-39.141v-12.129"/><path fill="#006" d="M124.957-389.887a.952.952 0 1 0-1.906 0c0 .528.426.953.953.953s.953-.425.953-.953"/><path fill="#fff" d="M120.945-338.617h3.5v-6.531h-3.5Z"/><path fill="none" stroke="#5959a6" stroke-linecap="round" stroke-linejoin="round" stroke-width=".5" d="M120.945-338.617h3.5v-6.531h-3.5z"/><path fill="#fff" d="M120.48-348.402h4.536v-5.981h-4.536Z"/><path fill="none" stroke="#5959a6" stroke-linecap="round" stroke-linejoin="round" stroke-width=".5" d="M120.48-348.402h4.536v-5.981h-4.536z"/><path fill="#fff" d="M117.051-358.188h4.043v-5.359h-4.043Z"/><path fill="none" stroke="#5959a6" stroke-linecap="round" stroke-linejoin="round" stroke-width=".5" d="M117.051-358.188h4.043v-5.359h-4.043z"/><path fill="#fff" d="M121.648-367.973h4.954v-9.691h-4.954Z"/><path fill="none" stroke="#5959a6" stroke-linecap="round" stroke-linejoin="round" stroke-width=".5" d="M121.648-367.973h4.954v-9.691h-4.954z"/><path fill="#d1b8eb" d="M192.164-338.617h28.348l-8.395-60.332h-11.554z"/><path fill="none" stroke="#306" stroke-linecap="round" stroke-linejoin="round" stroke-width=".5" d="M192.164-338.617h28.348l-8.395-60.332h-11.554z"/><path fill="#fff" d="M208.898-338.617h5.024v-7.324h-5.024Z"/><path fill="none" stroke="#8059a6" stroke-linecap="round" stroke-linejoin="round" stroke-width=".5" d="M208.898-338.617h5.024v-7.324h-5.024z"/><path fill="#fff" d="M206.008-343.645h3.746v-5.007h-3.746Z"/><path fill="none" stroke="#8059a6" stroke-linecap="round" stroke-linejoin="round" stroke-width=".5" d="M206.008-343.645h3.746v-5.007h-3.746z"/><path fill="#fff" d="M206.5-348.672h4.031v-4.07H206.5Z"/><path fill="none" stroke="#8059a6" stroke-linecap="round" stroke-linejoin="round" stroke-width=".5" d="M206.5-348.672h4.031v-4.07H206.5z"/><path fill="#fff" d="M199.844-353.699h5.105v-9.453h-5.105Z"/><path fill="none" stroke="#8059a6" stroke-linecap="round" stroke-linejoin="round" stroke-width=".5" d="M199.844-353.699h5.105v-9.453h-5.105z"/><path fill="#fff" d="M211.754-358.727h4.426v-5.324h-4.426Z"/><path fill="none" stroke="#8059a6" stroke-linecap="round" stroke-linejoin="round" stroke-width=".5" d="M211.754-358.727h4.426v-5.324h-4.426z"/><path fill="#fff" d="M206.23-363.754h3.766v-6.531h-3.766Z"/><path fill="none" stroke="#8059a6" stroke-linecap="round" stroke-linejoin="round" stroke-width=".5" d="M206.23-363.754h3.766v-6.531h-3.766z"/><path fill="#fff" d="M197.68-368.781h4.672v-5.235h-4.672Z"/><path fill="none" stroke="#8059a6" stroke-linecap="round" stroke-linejoin="round" stroke-width=".5" d="M197.68-368.781h4.672v-5.235h-4.672z"/><path fill="#fff" d="M210.508-373.809h4.14v-5.531h-4.14Z"/><path fill="none" stroke="#8059a6" stroke-linecap="round" stroke-linejoin="round" stroke-width=".5" d="M210.508-373.809h4.14v-5.531h-4.14z"/><path fill="#fff" d="M209.469-378.84h3.722v-6.183h-3.722Z"/><path fill="none" stroke="#8059a6" stroke-linecap="round" stroke-linejoin="round" stroke-width=".5" d="M209.469-378.84h3.722v-6.183h-3.722z"/><path fill="#fff" d="M200.004-383.863h3.5v-6.797h-3.5Z"/><path fill="none" stroke="#8059a6" stroke-linecap="round" stroke-linejoin="round" stroke-width=".5" d="M200.004-383.863h3.5v-6.797h-3.5z"/><path fill="#fff" d="M203.066-388.895h3.614v-6.136h-3.614Z"/><path fill="none" stroke="#8059a6" stroke-linecap="round" stroke-linejoin="round" stroke-width=".5" d="M203.066-388.895h3.614v-6.136h-3.614z"/><path fill="#fff" d="M203.09-393.922h2.941v-4.683h-2.941Z"/><path fill="none" stroke="#8059a6" stroke-linecap="round" stroke-linejoin="round" stroke-width=".5" d="M203.09-393.922h2.941v-4.683h-2.941z"/><path fill="#ebd1b8" d="M274.504-338.617h28.344l-.278-20.93h-27.793z"/><path fill="none" stroke="#630" stroke-linecap="round" stroke-linejoin="round" stroke-width=".5" d="M274.504-338.617h28.344l-.278-20.93h-27.793zm14.172-20.93v-12.312"/><path fill="#630" d="M290.09-371.859a1.413 1.413 0 1 0-2.827-.001 1.413 1.413 0 0 0 2.827.001"/><path fill="#fff" d="M292.352-338.617h3.5v-4.403h-3.5Z"/><path fill="none" stroke="#a68059" stroke-linecap="round" stroke-linejoin="round" stroke-width=".5" d="M292.352-338.617h3.5v-4.403h-3.5z"/><path fill="#fff" d="M288.559-343.848h5.429v-7.07h-5.429Z"/><path fill="none" stroke="#a68059" stroke-linecap="round" stroke-linejoin="round" stroke-width=".5" d="M288.559-343.848h5.429v-7.07h-5.429z"/><path fill="#fff" d="M277-349.082h3.477v-6.465H277Z"/><path fill="none" stroke="#a68059" stroke-linecap="round" stroke-linejoin="round" stroke-width=".5" d="M277-349.082h3.477v-6.465H277z"/><path fill="#fff" d="M285.621-353.273h5.207v-6.274h-5.207Z"/><path fill="none" stroke="#a68059" stroke-linecap="round" stroke-linejoin="round" stroke-width=".5" d="M285.621-353.273h5.207v-6.274h-5.207z"/><path fill="#b8ebb8" d="M356.84-338.617h28.344l-6.403-52.84h-15.539z"/><path fill="none" stroke="#060" stroke-linecap="round" stroke-linejoin="round" stroke-width=".5" d="M356.84-338.617h28.344l-6.403-52.84h-15.539zm14.172-52.84v-5.75"/><path fill="#060" d="M372.453-397.207a1.443 1.443 0 1 0-2.887 0 1.443 1.443 0 1 0 2.887 0"/><path fill="#fff" d="M370.91-338.617h3.613v-5.672h-3.613Z"/><path fill="none" stroke="#59a659" stroke-linecap="round" stroke-linejoin="round" stroke-width=".5" d="M370.91-338.617h3.613v-5.672h-3.613z"/><path fill="#fff" d="M371.66-351.824h4.699v-6.77h-4.699Z"/><path fill="none" stroke="#59a659" stroke-linecap="round" stroke-linejoin="round" stroke-width=".5" d="M371.66-351.824h4.699v-6.77h-4.699z"/><path fill="#fff" d="M372.699-365.035h4.953v-9.344h-4.953Z"/><path fill="none" stroke="#59a659" stroke-linecap="round" stroke-linejoin="round" stroke-width=".5" d="M372.699-365.035h4.953v-9.348h-4.953z"/><path fill="#fff" d="M369.609-378.246h4.145v-5.52h-4.145Z"/><path fill="none" stroke="#59a659" stroke-linecap="round" stroke-linejoin="round" stroke-width=".5" d="M369.609-378.246h4.145v-5.52h-4.145z"/><path fill="#ebded1" d="m487.363-339.117-8.23-5.953-.117-9.606-7.2-4.914-3.964-10.465-9.235-1.961-11.152 1.344-8.817 2.145-8.125-2.239-2.507 9.375-3.188 4.969-3.859 7.074-1.641 10.231z"/><path fill="none" stroke="#664d33" stroke-linecap="round" stroke-linejoin="round" d="m487.363-339.117-8.23-5.953-.117-9.606-7.2-4.914-3.964-10.465-9.235-1.961-11.152 1.344-8.817 2.145-8.125-2.239-2.507 9.375-3.188 4.969-3.859 7.074-1.641 10.231z"/><g fill="#ccbfb2"><path d="m432.547-343.652 3.906-.684-2.359 2.5-3.289-3.437zm32.961.015 2.226-4.14.856-3.582-7.41.535zm-23.379-7.187 6.219 2.66 3.797-.699-5.407.133z"/><path d="m462.918-350.824 8.559-.953-.5-6.633-9.321.847z"/><path d="m453.742-356.223 11.75 2.649 2.238-2.852-10.542.746z"/></g><path fill="none" stroke="#664d33" stroke-linecap="round" stroke-linejoin="round" d="M453.348-376.078c5.429-1.512 7.984-6.692 5.398-10.949-1.617-2.672-5.203-4.364-5.965-7.328-.738-2.891 1.418-5.747 4.867-6.434m2.5 24.711c4.239-.582 6.872-4.16 5.567-7.57-.817-2.141-3.231-3.747-3.367-6.02-.137-2.215 1.871-4.113 4.523-4.281m-23.73 17.871c2.464-1.996 2.23-5.348-.496-7.094-1.711-1.09-4.176-1.226-5.512-2.668-1.305-1.402-1.028-3.414.621-4.531"/><path fill="gray" d="M457.043-349.566c.57-.493 4.676-3.989 4.676-8.5 0-4.629-3.821-7.883-8.903-7.883-4.714 0-7.843 3.535-7.843 6.953 0 1.707 1.425 1.828 1.668 1.828.73 0 1.621-.57 1.621-1.672 0-.769-.282-1.012-.485-1.18.571-2.152 2.438-3.574 4.797-3.574 3.453 0 6.5 1.992 6.5 5.528 0 3.171-2.398 5.613-4.594 7.519l-8.937 7.766c-.449.367-.57.484-.57.972 0 1.18 1.093 1.18 1.668 1.18h14.179c.899-.242.899-1.059.899-1.668v-.851c0-.735 0-1.668-1.301-1.668-1.344 0-1.344.855-1.344 1.828h-9.793z"/><path fill="none" stroke="#000" stroke-linecap="round" stroke-linejoin="round" d="M457.043-349.566c.57-.493 4.676-3.989 4.676-8.5 0-4.629-3.821-7.883-8.903-7.883-4.714 0-7.843 3.535-7.843 6.953 0 1.707 1.425 1.828 1.668 1.828.73 0 1.621-.57 1.621-1.672 0-.769-.282-1.012-.485-1.18.571-2.152 2.438-3.574 4.797-3.574 3.453 0 6.5 1.992 6.5 5.528 0 3.171-2.398 5.613-4.594 7.519l-8.937 7.766c-.449.367-.57.484-.57.972 0 1.18 1.093 1.18 1.668 1.18h14.179c.899-.242.899-1.059.899-1.668v-.851c0-.735 0-1.668-1.301-1.668-1.344 0-1.344.855-1.344 1.828h-9.793z"/><path fill="#ebded1" d="m569.699-339.117-3.879-6.914-6.371-4.438-2.957-10.969-.574-4.585-7.828-2.286-13.301 1.27-11.859-2.816-6.59-.227-.836 5.473-5.641 9.296-2.332 9.172-5.863 7.024z"/><path fill="none" stroke="#664d33" stroke-linecap="round" stroke-linejoin="round" d="m569.699-339.117-3.879-6.914-6.371-4.438-2.957-10.969-.574-4.585-7.828-2.286-13.301 1.27-11.859-2.816-6.59-.227-.836 5.473-5.641 9.296-2.332 9.172-5.863 7.024z"/><g fill="#ccbfb2"><path d="m551.145-342.258 12.539 2.563-3.825-6.653-8.921-3.945zm-16.254-1.82 6.765-.617 2.571-5.332-8.532-.039zm-21.657-4.789 7.621 1.336-.082-6.582-6.769 1.211z"/><path d="m512.223-349.738 3.968 1.347 3.329-6.293-5.297-.371zm33.246-1.399 12.445-3.867-3.211-6.133-8.5 3.77zm-12.239-7.101 11.93 4.554-2.219-9.117-5.371-2.488z"/></g><path fill="none" stroke="#664d33" stroke-linecap="round" stroke-linejoin="round" d="M535.684-373.723c5.468-1.414 8.156-6.543 5.683-10.847-1.551-2.7-5.09-4.453-5.769-7.434-.668-2.902 1.566-5.719 5.031-6.344m1.855 24.625c4.25-.515 6.957-4.054 5.727-7.484-.77-2.152-3.148-3.797-3.238-6.07-.09-2.215 1.957-4.082 4.613-4.211m-24.109 17.765c2.066-2.285 1.214-5.566-1.797-6.941-1.895-.859-4.356-.68-5.942-1.93-1.547-1.219-1.644-3.242-.222-4.562"/><path fill="gray" d="M537.105-364.285c0-.606 0-1.664-1.179-1.664-.692 0-.934.367-1.18.894-.769 1.746-2.109 3.899-4.266 4.067-.609.039-1.464.121-1.464 1.175 0 .692.406 1.176 1.304 1.176 2.274 0 4.024-1.707 4.145-1.785v17.434h-3.578c-.567 0-1.668 0-1.668 1.179s1.101 1.18 1.668 1.18h9.797c.57 0 1.664 0 1.664-1.18s-1.094-1.179-1.664-1.179h-3.579z"/><path fill="none" stroke="#000" stroke-linecap="round" stroke-linejoin="round" d="M537.105-364.285c0-.606 0-1.664-1.179-1.664-.692 0-.934.367-1.18.894-.769 1.746-2.109 3.899-4.266 4.067-.609.039-1.464.121-1.464 1.175 0 .692.406 1.176 1.304 1.176 2.274 0 4.024-1.707 4.145-1.785v17.434h-3.578c-.567 0-1.668 0-1.668 1.179s1.101 1.18 1.668 1.18h9.797c.57 0 1.664 0 1.664-1.18s-1.094-1.179-1.664-1.179h-3.579z"/><path fill="#ebb8eb" d="M603.844-338.617h28.347l-5.761-50.438h-16.825z"/><path fill="none" stroke="#606" stroke-linecap="round" stroke-linejoin="round" stroke-width=".5" d="M603.844-338.617h28.347l-5.761-50.438h-16.825z"/><path fill="#fff" d="M614.777-338.617h3.418v-5.93h-3.418Z"/><path fill="none" stroke="#a659a6" stroke-linecap="round" stroke-linejoin="round" stroke-width=".5" d="M614.777-338.617h3.418v-5.93h-3.418z"/><path fill="#fff" d="M617.262-347.023h4.711v-8.028h-4.711Z"/><path fill="none" stroke="#a659a6" stroke-linecap="round" stroke-linejoin="round" stroke-width=".5" d="M617.262-347.023h4.711v-8.028h-4.711z"/><path fill="#fff" d="M614.637-355.43h3.343v-4.195h-3.343Z"/><path fill="none" stroke="#a659a6" stroke-linecap="round" stroke-linejoin="round" stroke-width=".5" d="M614.637-355.43h3.343v-4.191h-3.343z"/><path fill="#fff" d="M610.668-363.836h3.449v-3.898h-3.449Z"/><path fill="none" stroke="#a659a6" stroke-linecap="round" stroke-linejoin="round" stroke-width=".5" d="M610.668-363.836h3.449v-3.898h-3.449z"/><path fill="#fff" d="M611.039-372.242h3.656v-6.996h-3.656Z"/><path fill="none" stroke="#a659a6" stroke-linecap="round" stroke-linejoin="round" stroke-width=".5" d="M611.039-372.242h3.656v-6.996h-3.656z"/><path fill="#fff" d="M610.164-380.648h2.977v-4.45h-2.977Z"/><path fill="none" stroke="#a659a6" stroke-linecap="round" stroke-linejoin="round" stroke-width=".5" d="M610.164-380.648h2.977v-4.45h-2.977z"/><path fill="#ebd1b8" d="M686.18-338.617h28.347l-1.183-39.446h-25.981z"/><path fill="none" stroke="#630" stroke-linecap="round" stroke-linejoin="round" stroke-width=".5" d="M686.18-338.617h28.347l-1.183-39.446h-25.981z"/><path fill="#fff" d="M687.313-338.617h4.109v-5.656h-4.109Z"/><path fill="none" stroke="#a68059" stroke-linecap="round" stroke-linejoin="round" stroke-width=".5" d="M687.313-338.617h4.109v-5.656h-4.109z"/><path fill="#fff" d="M698.551-345.191h4.172v-5.563h-4.172Z"/><path fill="none" stroke="#a68059" stroke-linecap="round" stroke-linejoin="round" stroke-width=".5" d="M698.551-345.191h4.172v-5.563h-4.172z"/><path fill="#fff" d="M701.813-351.766h3.113v-4.382h-3.113Z"/><path fill="none" stroke="#a68059" stroke-linecap="round" stroke-linejoin="round" stroke-width=".5" d="M701.813-351.766h3.113v-4.382h-3.113z"/><path fill="#fff" d="M708.582-358.34h2.965v-4.797h-2.965Z"/><path fill="none" stroke="#a68059" stroke-linecap="round" stroke-linejoin="round" stroke-width=".5" d="M708.582-358.34h2.965v-4.797h-2.965z"/><path fill="#fff" d="M691.266-364.914h5.109v-5.84h-5.109Z"/><path fill="none" stroke="#a68059" stroke-linecap="round" stroke-linejoin="round" stroke-width=".5" d="M691.266-364.914h5.109v-5.84h-5.109z"/><path fill="#fff" d="M689.707-371.488h5.152v-5.461h-5.152Z"/><path fill="none" stroke="#a68059" stroke-linecap="round" stroke-linejoin="round" stroke-width=".5" d="M689.707-371.488h5.152v-5.461h-5.152z"/></g></svg>