<svg xmlns="http://www.w3.org/2000/svg" width="229pt" height="188pt" viewBox="0 -188 229 188"><g id="page1"><path fill="none" stroke="#000" stroke-linecap="round" stroke-linejoin="round" stroke-width="2" d="M1-16.277v-170.078h226.77v170.078z"/><path fill="#0000bf" d="M18.445-16.277h34.887v-148.215H18.445Z"/><path fill="none" stroke="#000" stroke-linecap="round" stroke-linejoin="round" stroke-width="2" d="M18.445-16.277v-148.215h34.887v148.215z"/><path fill="#0000bf" d="M70.777-16.277h34.887v-11.356H70.777Z"/><path fill="none" stroke="#000" stroke-linecap="round" stroke-linejoin="round" stroke-width="2" d="M70.777-16.277v-11.356h34.887v11.356z"/><path fill="#0000bf" d="M123.109-16.277h34.887v-.2h-34.887Z"/><path fill="none" stroke="#000" stroke-linecap="round" stroke-linejoin="round" stroke-width="2" d="M123.109-16.277v-.2h34.887v.2z"/><path fill="#0000bf" d="M175.441-16.277h34.887z"/><path fill="none" stroke="#000" stroke-linecap="round" stroke-linejoin="round" stroke-width="2" d="M175.441-16.277h34.887z"/><path d="M86.59-168.242c-1.149 0-1.363 0-1.363-.809v-3.117c.324.449 1.058 1.148 2.203 1.148 2.062 0 3.87-1.738 3.87-4.05 0-2.274-1.683-4.032-3.636-4.032-1.578 0-2.418 1.129-2.473 1.204v-1.204l-2.488.2v.519c1.254 0 1.36.125 1.36.914v8.418c0 .809-.196.809-1.36.809v.515c.465-.035 1.43-.035 1.934-.035.52 0 1.488 0 1.953.035zm-1.363-8.672c0-.34 0-.359.199-.645a2.57 2.57 0 0 1 2.093-1.148c1.344 0 2.418 1.629 2.418 3.637 0 2.132-1.218 3.691-2.593 3.691a2.12 2.12 0 0 1-1.438-.574c-.41-.41-.68-.77-.68-1.274zm9.663 1.543c0-1.742.72-3.371 2.098-3.371.145 0 .18 0 .25.019-.144.071-.43.176-.43.66 0 .52.41.719.7.719.36 0 .715-.234.715-.719 0-.535-.48-1.039-1.254-1.039-1.524 0-2.04 1.649-2.149 1.989h-.02v-1.989l-2.398.2v.519c1.22 0 1.36.125 1.36 1v4.86c0 .804-.196.804-1.36.804v.52c.5-.035 1.489-.035 2.024-.035.484 0 1.754 0 2.168.035v-.52h-.36c-1.304 0-1.343-.199-1.343-.844zm7.028-6.863a.88.88 0 0 0-.879-.879.86.86 0 0 0-.859.859c0 .539.429.879.859.879a.874.874 0 0 0 .879-.859m-2.473 3.332v.519c1.149 0 1.309.106 1.309.985v4.875c0 .804-.199.804-1.363.804v.52c.5-.035 1.363-.035 1.882-.035.196 0 1.235 0 1.844.035v-.52c-1.164 0-1.234-.09-1.234-.789v-6.594zm17.102 3.347c0-1.664 0-2.164-.414-2.738-.52-.699-1.36-.809-1.969-.809-1.488 0-2.242 1.079-2.527 1.774-.25-1.379-1.219-1.774-2.348-1.774-1.738 0-2.418 1.489-2.562 1.848h-.016v-1.848l-2.438.2v.519c1.219 0 1.36.125 1.36 1v4.86c0 .804-.195.804-1.36.804v.52c.465-.035 1.434-.035 1.934-.035.52 0 1.488 0 1.953.035v-.52c-1.144 0-1.359 0-1.359-.804v-3.336c0-1.879 1.234-2.883 2.344-2.883 1.113 0 1.363.914 1.363 2.008v4.211c0 .804-.195.804-1.363.804v.52c.468-.035 1.433-.035 1.937-.035.52 0 1.484 0 1.953.035v-.52c-1.148 0-1.363 0-1.363-.804v-3.336c0-1.879 1.234-2.883 2.348-2.883 1.109 0 1.359.914 1.359 2.008v4.211c0 .804-.195.804-1.359.804v.52c.464-.035 1.433-.035 1.933-.035.52 0 1.488 0 1.953.035v-.52c-.894 0-1.343 0-1.359-.539zm8.668-.429c0-.965 0-1.684-.789-2.383-.625-.571-1.434-.824-2.223-.824-1.469 0-2.594.968-2.594 2.132 0 .52.34.77.75.77.43 0 .735-.305.735-.734 0-.735-.645-.735-.914-.735.414-.75 1.273-1.074 1.992-1.074.82 0 1.879.68 1.879 2.293v.719c-3.602.05-4.961 1.554-4.961 2.937 0 1.414 1.644 1.863 2.738 1.863 1.184 0 1.988-.718 2.328-1.578.074.844.629 1.489 1.399 1.489.375 0 1.414-.25 1.414-1.684v-1.004h-.391v1.004c0 1.02-.43 1.164-.683 1.164-.68 0-.68-.949-.68-1.219zm-1.164 2.257c0 1.758-1.309 2.348-2.078 2.348-.879 0-1.614-.644-1.614-1.504 0-2.363 3.047-2.582 3.692-2.617zm6.043-1.644c0-1.742.715-3.371 2.094-3.371.144 0 .179 0 .25.019-.141.071-.43.176-.43.66 0 .52.414.719.699.719.359 0 .715-.234.715-.719 0-.535-.481-1.039-1.25-1.039-1.524 0-2.043 1.649-2.152 1.989h-.016v-1.989l-2.402.2v.519c1.218 0 1.363.125 1.363 1v4.86c0 .804-.199.804-1.363.804v.52c.5-.035 1.488-.035 2.027-.035.48 0 1.754 0 2.164.035v-.52h-.355c-1.309 0-1.344-.199-1.344-.844zm6.922-6.863a.877.877 0 0 0-.875-.879.857.857 0 0 0-.86.859c0 .539.43.879.86.879a.87.87 0 0 0 .875-.859m-2.469 3.332v.519c1.144 0 1.305.106 1.305.985v4.875c0 .804-.196.804-1.36.804v.52c.5-.035 1.36-.035 1.879-.035.199 0 1.238 0 1.848.035v-.52c-1.164 0-1.239-.09-1.239-.789v-6.594zm11.113 3.547c.395 0 .43 0 .43-.34 0-1.813-.969-3.496-3.133-3.496-2.043 0-3.617 1.847-3.617 4.07 0 2.363 1.824 4.101 3.812 4.101 2.133 0 2.938-1.937 2.938-2.312 0-.106-.086-.18-.195-.18-.141 0-.18.09-.215.18-.465 1.504-1.668 1.918-2.418 1.918-.754 0-2.563-.504-2.563-3.602v-.339zm-4.941-.34c.14-2.813 1.719-3.137 2.219-3.137 1.917 0 2.027 2.527 2.042 3.137z"/><path fill="#fff" d="M31.21-95.727v-.41h-4.32c-2.163 0-2.203-.234-2.273-.574h-.394l-.555 3.582h.395c.054-.32.214-1.433.445-1.629.144-.11 1.488-.11 1.738-.11h3.8l-1.901 2.727c-.48.696-2.293 3.637-2.293 7.004 0 .196 0 .914.734.914.754 0 .754-.699.754-.933v-.895c0-2.668.43-4.746 1.273-5.949zm6.759-.535c0-.34 0-.43-.25-.43-.145 0-.2 0-.344.215l-5.39 8.368v.515h4.71v1.633c0 .664-.035.844-1.343.844h-.36v.515c.414-.035 1.828-.035 2.328-.035.504 0 1.938 0 2.348.035v-.515h-.355c-1.294 0-1.344-.18-1.344-.844v-1.633h1.808v-.515H37.97zm-1.184 1.395v6.758H32.43zm9.981-1.395c0-.34 0-.43-.25-.43-.141 0-.196 0-.34.215l-5.39 8.368v.515h4.71v1.633c0 .664-.035.844-1.344.844h-.359v.515c.41-.035 1.828-.035 2.328-.035.504 0 1.938 0 2.348.035v-.515h-.36c-1.289 0-1.343-.18-1.343-.844v-1.633h1.812v-.515h-1.812zm-1.18 1.395v6.758H41.23z"/><path d="M38.352-5.324c0-.992-.059-1.957-.489-2.867-.488-.993-1.351-1.254-1.933-1.254-.696 0-1.543.347-1.985 1.336-.336.754-.453 1.496-.453 2.785 0 1.16.082 2.031.512 2.879a2.12 2.12 0 0 0 1.91 1.195c1.04 0 1.637-.621 1.984-1.312.43-.899.454-2.067.454-2.762m-2.438 3.836c-.383 0-1.156-.215-1.383-1.52-.133-.715-.133-1.62-.133-2.46 0-.977 0-1.864.192-2.567.203-.8.812-1.172 1.324-1.172.453 0 1.148.277 1.375 1.3.156.684.156 1.626.156 2.438 0 .805 0 1.711-.133 2.438-.226 1.316-.98 1.543-1.398 1.543m45.781-41.578a5.2 5.2 0 0 0 1.594.27c2.023 0 3.313-1.485 3.313-1.74 0-.07-.036-.16-.145-.16-.035 0-.07 0-.23.071a5.9 5.9 0 0 1-2.329.484c-1.183 0-2.027-.359-2.367-.5-.125-.054-.16-.054-.18-.054-.14 0-.14.11-.14.394v5.32c0 .325 0 .43.215.43.09 0 .105-.02.285-.23a2.7 2.7 0 0 1 2.238-1.168c.95 0 1.418.879 1.559 1.183.305.7.324 1.578.324 2.258s0 1.703-.504 2.508c-.39.645-1.09 1.094-1.879 1.094a2.77 2.77 0 0 1-2.668-2.117.7.7 0 0 0 .285.054c.305 0 .79-.18.79-.789 0-.5-.34-.785-.79-.785-.324 0-.789.16-.789.86 0 1.523 1.22 3.261 3.207 3.261 2.024 0 3.797-1.703 3.797-3.98 0-2.13-1.43-3.903-3.312-3.903-1.024 0-1.809.446-2.274.95zm15.015-.86v-.41h-4.32c-2.163 0-2.203-.234-2.273-.574h-.394l-.555 3.582h.394c.055-.32.215-1.434.446-1.629.144-.11 1.488-.11 1.738-.11h3.8l-1.902 2.723c-.48.7-2.292 3.64-2.292 7.008 0 .195 0 .914.734.914.754 0 .754-.7.754-.934v-.894c0-2.672.43-4.75 1.273-5.95zM86.828-8.348c.516.168.934.18 1.063.18 1.351 0 2.21-.992 2.21-1.16 0-.047-.023-.106-.093-.106-.024 0-.047 0-.156.047a3.87 3.87 0 0 1-3.129-.012c-.086-.035-.11-.035-.121-.035-.094 0-.094.07-.094.262v3.55c0 .216 0 .286.14.286.063 0 .075-.012.192-.156a1.81 1.81 0 0 1 1.496-.774c.633 0 .941.586 1.039.79.203.464.215 1.046.215 1.503 0 .453 0 1.137-.336 1.672-.262.43-.727.73-1.254.73-.79 0-1.566-.538-1.781-1.41a.6.6 0 0 0 .191.036c.203 0 .528-.121.528-.528 0-.332-.227-.523-.528-.523-.215 0-.523.105-.523.574 0 1.016.812 2.172 2.136 2.172 1.352 0 2.536-1.133 2.536-2.652 0-1.422-.957-2.606-2.211-2.606-.684 0-1.207.301-1.52.633zm54.531-24.734c0-.414 0-.434-.355-.434-.434.485-1.328 1.149-3.176 1.149v.52c.414 0 1.309 0 2.293-.465v9.331c0 .645-.051.864-1.629.864h-.554v.515c.484-.035 2.222-.035 2.812-.035.594 0 2.313 0 2.797.035v-.515h-.559c-1.574 0-1.629-.219-1.629-.863zM138.141-9.16c0-.274 0-.285-.239-.285-.285.32-.882.765-2.113.765v.344c.274 0 .871 0 1.527-.309v6.223c0 .43-.035.574-1.086.574h-.371v.348c.321-.023 1.481-.023 1.875-.023.395 0 1.543 0 1.864.023v-.348h-.371c-1.051 0-1.086-.144-1.086-.574zm7.812 3.836c0-.992-.058-1.957-.488-2.867-.492-.993-1.352-1.254-1.938-1.254-.691 0-1.543.347-1.984 1.336-.332.754-.453 1.496-.453 2.785 0 1.16.082 2.031.512 2.879a2.13 2.13 0 0 0 1.914 1.195c1.039 0 1.636-.621 1.98-1.312.434-.899.457-2.067.457-2.762m-2.437 3.836c-.383 0-1.161-.215-1.387-1.52-.133-.715-.133-1.62-.133-2.46 0-.977 0-1.864.192-2.567.203-.8.816-1.172 1.328-1.172.453 0 1.148.277 1.375 1.3.156.684.156 1.626.156 2.438 0 .805 0 1.711-.133 2.438-.226 1.316-.98 1.543-1.398 1.543m53.011-25.645c0-1.488-.089-2.937-.738-4.3-.734-1.485-2.023-1.88-2.898-1.88-1.039 0-2.313.52-2.977 2.008-.5 1.125-.68 2.239-.68 4.172 0 1.738.125 3.047.77 4.317.699 1.363 1.934 1.793 2.867 1.793 1.559 0 2.453-.93 2.973-1.97.648-1.343.683-3.1.683-4.14m-3.656 5.75c-.574 0-1.738-.32-2.078-2.273-.199-1.078-.199-2.438-.199-3.692 0-1.468 0-2.793.289-3.851.305-1.2 1.219-1.754 1.988-1.754.68 0 1.719.41 2.059 1.953.234 1.02.234 2.434.234 3.652 0 1.2 0 2.563-.195 3.653-.34 1.972-1.473 2.312-2.098 2.312m-2.43 12.223c0-.274 0-.285-.238-.285-.289.32-.883.765-2.113.765v.344c.273 0 .871 0 1.527-.309v6.223c0 .43-.035.574-1.086.574h-.371v.348c.32-.023 1.481-.023 1.875-.023.395 0 1.543 0 1.863.023v-.348h-.371c-1.05 0-1.086-.144-1.086-.574zm3.989.812c.515.168.929.18 1.062.18 1.352 0 2.211-.992 2.211-1.16 0-.047-.023-.106-.094-.106-.023 0-.05 0-.156.047a3.88 3.88 0 0 1-3.133-.012c-.082-.035-.105-.035-.117-.035-.098 0-.098.07-.098.262v3.55c0 .216 0 .286.145.286.059 0 .07-.012.191-.156a1.81 1.81 0 0 1 1.493-.774c.636 0 .945.586 1.043.79.203.464.211 1.046.211 1.503 0 .453 0 1.137-.333 1.672-.261.43-.726.73-1.253.73a1.85 1.85 0 0 1-1.782-1.41.6.6 0 0 0 .192.036c.203 0 .527-.121.527-.528 0-.332-.23-.523-.527-.523-.215 0-.528.105-.528.574 0 1.016.813 2.172 2.141 2.172 1.352 0 2.531-1.133 2.531-2.652 0-1.422-.953-2.606-2.211-2.606-.679 0-1.203.301-1.515.633z"/></g></svg>