<svg xmlns="http://www.w3.org/2000/svg" width="418pt" height="484" viewBox="0 -363 418 363"><g id="page1"><path fill="#ffffb2" d="M10.004-8.95h5.953c1.633 0 3.2.65 4.355 1.802l4.895 4.898a2.553 2.553 0 0 0 3.61 0l4.894-4.898a6.17 6.17 0 0 1 4.355-1.801h358.172a2.553 2.553 0 0 0 2.551-2.555v-346.844a2.55 2.55 0 0 0-2.551-2.55H38.066a6.18 6.18 0 0 0-4.355 1.804l-4.895 4.899a2.554 2.554 0 0 1-3.609 0l-4.895-4.899a6.18 6.18 0 0 0-4.355-1.804H4.051a2.55 2.55 0 0 0-2.551 2.55v346.844c0 1.41 1.14 2.555 2.55 2.555z"/><path fill="none" stroke="#b2b200" stroke-linecap="round" stroke-linejoin="round" stroke-width="3" d="M10.004-8.95h5.953c1.633 0 3.2.65 4.355 1.802l4.895 4.898a2.553 2.553 0 0 0 3.61 0l4.894-4.898a6.17 6.17 0 0 1 4.355-1.801h358.172a2.553 2.553 0 0 0 2.551-2.555v-346.844a2.55 2.55 0 0 0-2.551-2.55H38.066a6.18 6.18 0 0 0-4.355 1.804l-4.895 4.899a2.554 2.554 0 0 1-3.609 0l-4.895-4.899a6.18 6.18 0 0 0-4.355-1.804H4.051a2.55 2.55 0 0 0-2.551 2.55v346.844c0 1.41 1.14 2.555 2.55 2.555z"/><path fill="#ffd9b2" d="M35.516-25.96h5.953a6.17 6.17 0 0 1 4.355 1.804l4.895 4.898a2.553 2.553 0 0 0 3.61 0l4.894-4.898a6.18 6.18 0 0 1 4.355-1.805h341.164a2.55 2.55 0 0 0 2.551-2.55v-47.645a2.55 2.55 0 0 0-2.551-2.551H63.578c-1.633 0-3.2.648-4.355 1.805l-4.895 4.894a2.553 2.553 0 0 1-3.61 0l-4.894-4.894a6.16 6.16 0 0 0-4.355-1.805H29.562a2.55 2.55 0 0 0-2.55 2.55v47.645c0 1.41 1.14 2.551 2.55 2.551z"/><path fill="none" stroke="#b25900" stroke-linecap="round" stroke-linejoin="round" stroke-width="3" d="M35.516-25.96h5.953a6.17 6.17 0 0 1 4.355 1.804l4.895 4.898a2.553 2.553 0 0 0 3.61 0l4.894-4.898a6.18 6.18 0 0 1 4.355-1.805h341.164a2.55 2.55 0 0 0 2.551-2.55v-47.645a2.55 2.55 0 0 0-2.551-2.551H63.578c-1.633 0-3.2.648-4.355 1.805l-4.895 4.894a2.553 2.553 0 0 1-3.61 0l-4.894-4.894a6.16 6.16 0 0 0-4.355-1.805H29.562a2.55 2.55 0 0 0-2.55 2.55v47.645c0 1.41 1.14 2.551 2.55 2.551z"/><path fill="#ffd9b2" d="M35.516-132.953h5.953c1.633 0 3.199.648 4.355 1.805l4.895 4.894a2.553 2.553 0 0 0 3.61 0l4.894-4.894a6.16 6.16 0 0 1 4.355-1.805h341.164a2.55 2.55 0 0 0 2.551-2.551v-47.644a2.55 2.55 0 0 0-2.551-2.551H63.578c-1.633 0-3.2.648-4.355 1.801L54.328-179a2.553 2.553 0 0 1-3.61 0l-4.894-4.898a6.17 6.17 0 0 0-4.355-1.801H29.562c-1.41 0-2.55 1.14-2.55 2.551v47.644a2.55 2.55 0 0 0 2.55 2.551z"/><path fill="none" stroke="#b25900" stroke-linecap="round" stroke-linejoin="round" stroke-width="3" d="M35.516-132.953h5.953c1.633 0 3.199.648 4.355 1.805l4.895 4.894a2.553 2.553 0 0 0 3.61 0l4.894-4.894a6.16 6.16 0 0 1 4.355-1.805h341.164a2.55 2.55 0 0 0 2.551-2.551v-47.644a2.55 2.55 0 0 0-2.551-2.551H63.578c-1.633 0-3.2.648-4.355 1.801L54.328-179a2.553 2.553 0 0 1-3.61 0l-4.894-4.898a6.17 6.17 0 0 0-4.355-1.801H29.562c-1.41 0-2.55 1.14-2.55 2.551v47.644a2.55 2.55 0 0 0 2.55 2.551z"/><path fill="#ffffb2" d="M35.516-188.648h5.953c1.633 0 3.199.652 4.355 1.804l4.895 4.899a2.553 2.553 0 0 0 3.61 0l4.894-4.899a6.18 6.18 0 0 1 4.355-1.804h341.164a2.55 2.55 0 0 0 2.551-2.551v-117.399c0-1.41-1.141-2.55-2.551-2.55H63.578c-1.633 0-3.2.648-4.355 1.8l-4.895 4.899a2.553 2.553 0 0 1-3.61 0l-4.894-4.899a6.17 6.17 0 0 0-4.355-1.8H29.562c-1.41 0-2.55 1.14-2.55 2.55v117.399a2.55 2.55 0 0 0 2.55 2.551z"/><path fill="none" stroke="#b2b200" stroke-linecap="round" stroke-linejoin="round" stroke-width="3" d="M35.516-188.648h5.953c1.633 0 3.199.652 4.355 1.804l4.895 4.899a2.553 2.553 0 0 0 3.61 0l4.894-4.899a6.18 6.18 0 0 1 4.355-1.804h341.164a2.55 2.55 0 0 0 2.551-2.551v-117.399c0-1.41-1.141-2.55-2.551-2.55H63.578c-1.633 0-3.2.648-4.355 1.8l-4.895 4.899a2.553 2.553 0 0 1-3.61 0l-4.894-4.899a6.17 6.17 0 0 0-4.355-1.8H29.562c-1.41 0-2.55 1.14-2.55 2.55v117.399a2.55 2.55 0 0 0 2.55 2.551z"/><path fill="#ffd9b2" d="M61.027-205.656h5.954a6.16 6.16 0 0 1 4.355 1.804l4.895 4.899a2.56 2.56 0 0 0 3.609 0l4.894-4.899a6.16 6.16 0 0 1 4.356-1.804h324.156a2.55 2.55 0 0 0 2.551-2.551v-47.645c0-1.41-1.141-2.55-2.551-2.55H89.09a6.16 6.16 0 0 0-4.356 1.804l-4.894 4.895a2.553 2.553 0 0 1-3.61 0l-4.894-4.895a6.16 6.16 0 0 0-4.355-1.804H55.074c-1.41 0-2.55 1.14-2.55 2.55v47.645a2.55 2.55 0 0 0 2.55 2.551z"/><path fill="none" stroke="#b25900" stroke-linecap="round" stroke-linejoin="round" stroke-width="3" d="M61.027-205.656h5.954a6.16 6.16 0 0 1 4.355 1.804l4.895 4.899a2.56 2.56 0 0 0 3.609 0l4.894-4.899a6.16 6.16 0 0 1 4.356-1.804h324.156a2.55 2.55 0 0 0 2.551-2.551v-47.645c0-1.41-1.141-2.55-2.551-2.55H89.09a6.16 6.16 0 0 0-4.356 1.804l-4.894 4.895a2.553 2.553 0 0 1-3.61 0l-4.894-4.895a6.16 6.16 0 0 0-4.355-1.804H55.074c-1.41 0-2.55 1.14-2.55 2.55v47.645a2.55 2.55 0 0 0 2.55 2.551z"/><path d="M45.668-62.723v.696c1.625 0 1.816.168 1.816 1.336v5.28c-.5-.69-1.527-1.526-2.984-1.526-2.773 0-5.164 2.34-5.164 5.398 0 3.035 2.27 5.379 4.898 5.379 1.817 0 2.868-1.196 3.203-1.649v1.649l3.368-.238v-.696c-1.625 0-1.813-.168-1.813-1.336v-14.554zm1.77 13.528c0 .43 0 .5-.336 1.027-.57.836-1.551 1.527-2.746 1.527-.622 0-3.204-.238-3.204-4.875 0-1.718.285-2.675.813-3.465.476-.738 1.433-1.48 2.629-1.48 1.48 0 2.316 1.074 2.554 1.457.29.406.29.457.29.887zm13.285-3.586c0-1.29 0-2.246-1.051-3.18-.836-.762-1.91-1.098-2.961-1.098-1.961 0-3.469 1.293-3.469 2.844 0 .692.457 1.028 1.008 1.028.57 0 .977-.407.977-.981 0-.98-.86-.98-1.22-.98.552-1 1.7-1.43 2.653-1.43 1.102 0 2.512.906 2.512 3.055v.957c-4.805.074-6.621 2.082-6.621 3.918 0 1.89 2.199 2.488 3.656 2.488 1.578 0 2.652-.957 3.105-2.106.098 1.125.836 1.985 1.868 1.985.5 0 1.886-.336 1.886-2.246v-1.34h-.527v1.34c0 1.363-.57 1.554-.906 1.554-.91 0-.91-1.27-.91-1.625zm-1.551 3.011c0 2.34-1.746 3.13-2.774 3.13-1.171 0-2.148-.86-2.148-2.008 0-3.153 4.063-3.438 4.922-3.489zm6.871-.957c1.125.743 2.082.743 2.344.743 2.148 0 3.75-1.625 3.75-3.465 0-.645-.192-1.555-.957-2.317.933-.957 2.054-.957 2.175-.957.098 0 .215 0 .313.047-.238.098-.36.336-.36.598 0 .336.239.621.622.621.191 0 .62-.121.62-.645 0-.43-.335-1.101-1.171-1.101-1.242 0-2.176.766-2.508 1.125-.715-.55-1.555-.86-2.46-.86-2.153 0-3.755 1.626-3.755 3.465 0 1.364.836 2.246 1.078 2.461-.289.36-.718 1.051-.718 1.985 0 1.386.836 1.98 1.027 2.101-1.098.309-2.2 1.172-2.2 2.414 0 1.649 2.25 3.012 5.188 3.012 2.844 0 5.211-1.266 5.211-3.059 0-.597-.168-2.007-1.601-2.75-1.22-.62-2.414-.62-4.47-.62-1.46 0-1.624 0-2.054-.454-.242-.238-.457-.695-.457-1.195 0-.406.145-.813.383-1.149m2.367.243c-2.105 0-2.105-2.414-2.105-2.965 0-.43 0-1.41.406-2.055a2.05 2.05 0 0 1 1.676-.934c2.101 0 2.101 2.415 2.101 2.965 0 .43 0 1.41-.406 2.055a2.05 2.05 0 0 1-1.672.934m.645 8.48c-2.293 0-4.04-1.168-4.04-2.531 0-.192.047-1.125.958-1.746.527-.336.738-.336 2.414-.336 1.98 0 4.683 0 4.683 2.082 0 1.41-1.816 2.531-4.015 2.531m9.957-20.98-3.325.261v.696c1.626 0 1.817.168 1.817 1.336v12.523c0 1.074-.262 1.074-1.817 1.074v.696c.672-.051 1.84-.051 2.56-.051.714 0 1.91 0 2.581.05v-.695c-1.531 0-1.816 0-1.816-1.074zm6.547 1.863c0-.621-.504-1.168-1.172-1.168-.621 0-1.145.5-1.145 1.145 0 .714.57 1.171 1.145 1.171.742 0 1.172-.62 1.172-1.148m-3.297 4.445v.692c1.527 0 1.742.144 1.742 1.316v6.5c0 1.074-.262 1.074-1.817 1.074v.696c.672-.051 1.817-.051 2.512-.051.262 0 1.649 0 2.461.05v-.695c-1.554 0-1.648-.117-1.648-1.05v-8.794zm20.703 0v.692c1.625 0 1.816.168 1.816 1.34v4.277c0 2.031-1.078 3.726-2.867 3.726-1.96 0-2.078-1.12-2.078-2.386v-7.91l-3.371.261v.692c1.816 0 1.816.074 1.816 2.199v3.586c0 1.48 0 2.34.719 3.129.57.62 1.551.91 2.77.91.406 0 1.171 0 1.984-.696.691-.546 1.074-1.456 1.074-1.456v2.152l3.32-.238v-.696c-1.625 0-1.812-.168-1.812-1.336v-8.507zm16.371 4.469c0-2.223 0-2.89-.551-3.656-.695-.934-1.816-1.075-2.629-1.075-2.316 0-3.226 1.985-3.418 2.461h-.023v-2.46l-3.25.261v.692c1.625 0 1.816.168 1.816 1.34v6.476c0 1.074-.261 1.074-1.816 1.074v.696c.621-.051 1.914-.051 2.582-.051.691 0 1.984 0 2.601.05v-.695c-1.527 0-1.812 0-1.812-1.074v-4.445c0-2.508 1.648-3.848 3.129-3.848 1.48 0 1.816 1.219 1.816 2.676v5.617c0 1.074-.265 1.074-1.816 1.074v.696c.621-.051 1.914-.051 2.582-.051.691 0 1.98 0 2.601.05v-.695c-1.195 0-1.789 0-1.812-.715zm11.586-.574c0-1.29 0-2.246-1.051-3.18-.836-.762-1.91-1.098-2.961-1.098-1.961 0-3.465 1.293-3.465 2.844 0 .692.453 1.028 1.004 1.028.574 0 .981-.407.981-.981 0-.98-.864-.98-1.219-.98.547-1 1.695-1.43 2.648-1.43 1.102 0 2.512.906 2.512 3.055v.957c-4.805.074-6.617 2.082-6.617 3.918 0 1.89 2.195 2.488 3.652 2.488 1.578 0 2.657-.957 3.11-2.106.093 1.125.836 1.985 1.863 1.985.5 0 1.887-.336 1.887-2.246v-1.34h-.524v1.34c0 1.363-.574 1.554-.91 1.554-.91 0-.91-1.27-.91-1.625zm-1.551 3.011c0 2.34-1.742 3.13-2.773 3.13-1.168 0-2.149-.86-2.149-2.008 0-3.153 4.063-3.438 4.922-3.489zm19.766-6.738c0-.43 0-.55-.239-.55-.191 0-.644.527-.812.742-.742-.598-1.481-.743-2.246-.743-2.891 0-3.75 1.578-3.75 2.891 0 .266 0 1.102.906 1.938.766.667 1.578.835 2.676 1.05 1.316.262 1.625.336 2.223.813.429.36.742.883.742 1.554 0 1.028-.598 2.172-2.699 2.172-1.579 0-2.723-.906-3.25-3.297-.098-.43-.098-.453-.122-.476-.046-.098-.144-.098-.214-.098-.262 0-.262.121-.262.551v3.25c0 .43 0 .55.238.55.117 0 .141-.023.551-.526.117-.169.117-.215.476-.598.907 1.125 2.2 1.125 2.606 1.125 2.508 0 3.75-1.387 3.75-3.274 0-1.293-.789-2.058-1.004-2.27-.859-.741-1.504-.886-3.082-1.171-.719-.145-2.461-.48-2.461-1.914 0-.738.5-1.84 2.652-1.84 2.606 0 2.747 2.223 2.797 2.965.024.191.192.191.262.191.262 0 .262-.12.262-.55zm5.519-4.613c0-.621-.5-1.168-1.168-1.168-.621 0-1.148.5-1.148 1.145 0 .714.574 1.171 1.148 1.171.739 0 1.168-.62 1.168-1.148m-3.297 4.445v.692c1.532 0 1.746.144 1.746 1.316v6.5c0 1.074-.261 1.074-1.816 1.074v.696c.668-.051 1.816-.051 2.508-.051.266 0 1.648 0 2.461.05v-.695c-1.551 0-1.649-.117-1.649-1.05v-8.794zm16.274 4.469c0-2.223 0-2.89-.547-3.656-.695-.934-1.816-1.075-2.629-1.075-2.32 0-3.227 1.985-3.418 2.461h-.023v-2.46l-3.25.261v.692c1.625 0 1.816.168 1.816 1.34v6.476c0 1.074-.262 1.074-1.816 1.074v.696c.621-.051 1.91-.051 2.578-.051.695 0 1.984 0 2.605.05v-.695c-1.527 0-1.816 0-1.816-1.074v-4.445c0-2.508 1.648-3.848 3.133-3.848 1.48 0 1.816 1.219 1.816 2.676v5.617c0 1.074-.266 1.074-1.816 1.074v.696c.621-.051 1.91-.051 2.578-.051.695 0 1.984 0 2.605.05v-.695c-1.195 0-1.793 0-1.816-.715zm5.211 1.48c1.125.743 2.078.743 2.344.743 2.148 0 3.75-1.625 3.75-3.465 0-.645-.192-1.555-.958-2.317.934-.957 2.055-.957 2.176-.957.098 0 .215 0 .313.047-.242.098-.36.336-.36.598 0 .336.239.621.621.621.192 0 .622-.121.622-.645 0-.43-.336-1.101-1.172-1.101-1.242 0-2.176.766-2.508 1.125-.719-.55-1.555-.86-2.461-.86-2.152 0-3.754 1.626-3.754 3.465 0 1.364.836 2.246 1.074 2.461-.285.36-.715 1.051-.715 1.985 0 1.386.836 1.98 1.028 2.101-1.102.309-2.199 1.172-2.199 2.414 0 1.649 2.246 3.012 5.187 3.012 2.844 0 5.207-1.266 5.207-3.059 0-.597-.168-2.007-1.601-2.75-1.219-.62-2.415-.62-4.469-.62-1.457 0-1.625 0-2.055-.454-.238-.238-.453-.695-.453-1.195 0-.406.144-.813.383-1.149m2.367.243c-2.106 0-2.106-2.414-2.106-2.965 0-.43 0-1.41.407-2.055a2.05 2.05 0 0 1 1.676-.934c2.101 0 2.101 2.415 2.101 2.965 0 .43 0 1.41-.406 2.055a2.05 2.05 0 0 1-1.672.934m.644 8.48c-2.292 0-4.039-1.168-4.039-2.531 0-.192.047-1.125.957-1.746.524-.336.739-.336 2.415-.336 1.98 0 4.679 0 4.679 2.082 0 1.41-1.812 2.531-4.012 2.531m16.813-9.512c0-3.082-2.34-5.543-5.113-5.543-2.867 0-5.137 2.536-5.137 5.543 0 3.063 2.387 5.356 5.113 5.356 2.821 0 5.137-2.344 5.137-5.356m-5.113 4.828c-.883 0-1.961-.382-2.653-1.554-.644-1.074-.668-2.485-.668-3.489 0-.906 0-2.363.739-3.44a3.07 3.07 0 0 1 2.558-1.407c.934 0 1.938.43 2.578 1.36.743 1.1.743 2.605.743 3.488 0 .84 0 2.32-.622 3.44-.667 1.15-1.765 1.602-2.675 1.602m9.957-16.296-3.324.261v.696c1.625 0 1.816.168 1.816 1.336v12.523c0 1.074-.262 1.074-1.816 1.074v.696c.671-.051 1.839-.051 2.558-.051s1.91 0 2.582.05v-.695c-1.531 0-1.816 0-1.816-1.074zm11.609 10.203c0-1.29 0-2.246-1.047-3.18-.84-.762-1.914-1.098-2.965-1.098-1.961 0-3.464 1.293-3.464 2.844 0 .692.453 1.028 1.003 1.028.575 0 .981-.407.981-.981 0-.98-.863-.98-1.219-.98.551-1 1.695-1.43 2.653-1.43 1.097 0 2.507.906 2.507 3.055v.957c-4.804.074-6.617 2.082-6.617 3.918 0 1.89 2.195 2.488 3.656 2.488 1.575 0 2.653-.957 3.106-2.106.094 1.125.836 1.985 1.863 1.985.5 0 1.887-.336 1.887-2.246v-1.34h-.524v1.34c0 1.363-.574 1.554-.91 1.554-.91 0-.91-1.27-.91-1.625zm-1.551 3.011c0 2.34-1.742 3.13-2.773 3.13-1.168 0-2.149-.86-2.149-2.008 0-3.153 4.063-3.438 4.922-3.489zm20.481-5.472c-.285 0-1.172 0-1.172.98 0 .575.406.98.98.98.551 0 1.004-.335 1.004-1.027 0-1.601-1.672-2.75-3.609-2.75-2.793 0-5.02 2.485-5.02 5.496 0 3.06 2.297 5.403 4.996 5.403 3.157 0 3.872-2.867 3.872-3.082 0-.219-.168-.219-.239-.219-.215 0-.242.074-.308.36-.528 1.699-1.821 2.413-3.11 2.413-1.457 0-3.39-1.265-3.39-4.898 0-3.969 2.031-4.945 3.222-4.945.911 0 2.227.36 2.774 1.289m10.972 2.461c0-1.29 0-2.246-1.05-3.18-.836-.762-1.91-1.098-2.965-1.098-1.957 0-3.465 1.293-3.465 2.844 0 .692.453 1.028 1.004 1.028.574 0 .98-.407.98-.981 0-.98-.859-.98-1.218-.98.55-1 1.699-1.43 2.652-1.43 1.102 0 2.508.906 2.508 3.055v.957c-4.801.074-6.617 2.082-6.617 3.918 0 1.89 2.199 2.488 3.656 2.488 1.578 0 2.652-.957 3.105-2.106.098 1.125.836 1.985 1.864 1.985.503 0 1.89-.336 1.89-2.246v-1.34h-.527v1.34c0 1.363-.574 1.554-.906 1.554-.911 0-.911-1.27-.911-1.625zm-1.554 3.011c0 2.34-1.742 3.13-2.77 3.13-1.172 0-2.152-.86-2.152-2.008 0-3.153 4.062-3.438 4.922-3.489zm8.023-2.199c0-2.316.953-4.492 2.793-4.492.192 0 .238 0 .336.023-.191.098-.574.243-.574.883 0 .696.551.957.933.957.477 0 .958-.308.958-.957 0-.715-.649-1.383-1.676-1.383-2.032 0-2.723 2.196-2.867 2.653h-.024v-2.653l-3.203.262v.692c1.625 0 1.816.168 1.816 1.34v6.476c0 1.074-.261 1.074-1.816 1.074v.696c.672-.051 1.984-.051 2.699-.051.649 0 2.344 0 2.895.05v-.695h-.481c-1.742 0-1.789-.261-1.789-1.12zm16.078.453c0-3.082-2.343-5.543-5.117-5.543-2.863 0-5.137 2.536-5.137 5.543 0 3.063 2.391 5.356 5.114 5.356 2.82 0 5.14-2.344 5.14-5.356m-5.117 4.828c-.883 0-1.957-.382-2.652-1.554-.645-1.074-.668-2.485-.668-3.489 0-.906 0-2.363.738-3.44a3.08 3.08 0 0 1 2.559-1.407c.933 0 1.937.43 2.582 1.36.742 1.1.742 2.605.742 3.488 0 .84 0 2.32-.621 3.44-.668 1.15-1.77 1.602-2.68 1.602m9.961-9.32h3.371v-.691h-3.371v-4.399h-.523c-.024 2.246-.887 4.543-3.063 4.614v.476h2.031v6.645c0 2.652 1.77 3.203 3.039 3.203 1.504 0 2.293-1.48 2.293-3.203v-1.364h-.527v1.317c0 1.719-.691 2.722-1.625 2.722-1.625 0-1.625-2.222-1.625-2.628zm14.309 3.227c0-1.29 0-2.246-1.051-3.18-.836-.762-1.91-1.098-2.961-1.098-1.961 0-3.469 1.293-3.469 2.844 0 .692.457 1.028 1.004 1.028.574 0 .981-.407.981-.981 0-.98-.86-.98-1.219-.98.551-1 1.699-1.43 2.652-1.43 1.102 0 2.512.906 2.512 3.055v.957c-4.805.074-6.621 2.082-6.621 3.918 0 1.89 2.199 2.488 3.656 2.488 1.578 0 2.652-.957 3.106-2.106.097 1.125.835 1.985 1.867 1.985.5 0 1.886-.336 1.886-2.246v-1.34h-.527v1.34c0 1.363-.57 1.554-.906 1.554-.91 0-.91-1.27-.91-1.625zm-1.551 3.011c0 2.34-1.746 3.13-2.774 3.13-1.171 0-2.152-.86-2.152-2.008 0-3.153 4.067-3.438 4.926-3.489zM22.223-102.781c0-1.289 0-2.246-1.051-3.18-.836-.762-1.91-1.098-2.961-1.098-1.961 0-3.469 1.293-3.469 2.844 0 .692.457 1.027 1.008 1.027.57 0 .977-.406.977-.98 0-.98-.86-.98-1.22-.98.552-1 1.7-1.43 2.653-1.43 1.102 0 2.512.906 2.512 3.055v.957c-4.805.074-6.621 2.082-6.621 3.918 0 1.89 2.199 2.488 3.656 2.488 1.578 0 2.652-.957 3.105-2.106.098 1.125.836 1.985 1.868 1.985.5 0 1.886-.336 1.886-2.246v-1.34h-.527v1.34c0 1.363-.57 1.554-.906 1.554-.91 0-.91-1.27-.91-1.625zm-1.551 3.012c0 2.34-1.746 3.128-2.774 3.128-1.171 0-2.148-.859-2.148-2.007 0-3.153 4.063-3.442 4.922-3.489zm8.141-13.215-3.325.261v.696c1.625 0 1.817.168 1.817 1.336v12.523c0 1.074-.262 1.074-1.817 1.074v.696c.668-.051 1.84-.051 2.559-.051.715 0 1.91 0 2.578.05v-.695c-1.527 0-1.812 0-1.812-1.074zm6.402 6.976h3.37v-.691h-3.37v-4.399h-.528c-.023 2.246-.882 4.543-3.058 4.614v.476h2.031v6.645c0 2.652 1.77 3.203 3.035 3.203 1.508 0 2.297-1.48 2.297-3.203v-1.364h-.527v1.317c0 1.719-.692 2.722-1.625 2.722-1.625 0-1.625-2.222-1.625-2.628zm9.075 4.039c0-2.316.956-4.492 2.796-4.492.191 0 .238 0 .336.023-.191.098-.574.243-.574.883 0 .696.55.957.933.957.477 0 .953-.308.953-.957 0-.715-.644-1.383-1.672-1.383-2.03 0-2.722 2.196-2.867 2.653h-.023v-2.653l-3.203.262v.692c1.625 0 1.816.168 1.816 1.339v6.477c0 1.074-.262 1.074-1.816 1.074v.696c.668-.051 1.984-.051 2.699-.051.645 0 2.344 0 2.895.05v-.695h-.481c-1.742 0-1.793-.262-1.793-1.12zm9.269-9.152c0-.621-.504-1.168-1.172-1.168-.621 0-1.145.5-1.145 1.144 0 .715.57 1.172 1.145 1.172.742 0 1.172-.621 1.172-1.148m-3.297 4.445v.692c1.527 0 1.742.144 1.742 1.316v6.5c0 1.074-.262 1.074-1.816 1.074v.696c.671-.051 1.816-.051 2.511-.051.262 0 1.649 0 2.461.05v-.695c-1.554 0-1.648-.117-1.648-1.05v-8.794zm22.773 4.469c0-2.223 0-2.891-.55-3.656-.696-.934-1.817-1.075-2.63-1.075-1.984 0-2.988 1.434-3.37 2.364-.333-1.84-1.626-2.364-3.13-2.364-2.316 0-3.226 1.985-3.417 2.461h-.024v-2.461l-3.25.262v.692c1.625 0 1.816.168 1.816 1.339v6.477c0 1.074-.261 1.074-1.816 1.074v.696c.621-.051 1.914-.051 2.582-.051.691 0 1.984 0 2.606.05v-.695c-1.532 0-1.817 0-1.817-1.074v-4.445c0-2.508 1.649-3.848 3.13-3.848 1.483 0 1.816 1.219 1.816 2.676v5.617c0 1.074-.262 1.074-1.817 1.074v.696c.621-.051 1.914-.051 2.582-.051.692 0 1.98 0 2.606.05v-.695c-1.532 0-1.817 0-1.817-1.074v-4.445c0-2.508 1.649-3.848 3.13-3.848s1.816 1.219 1.816 2.676v5.617c0 1.074-.262 1.074-1.817 1.074v.696c.621-.051 1.914-.051 2.582-.051.692 0 1.98 0 2.606.05v-.695c-1.196 0-1.793 0-1.817-.715zm11.52.262c.523 0 .57 0 .57-.453 0-2.415-1.29-4.661-4.18-4.661-2.726 0-4.828 2.461-4.828 5.426 0 3.152 2.438 5.473 5.09 5.473 2.844 0 3.918-2.582 3.918-3.082 0-.145-.117-.242-.262-.242-.191 0-.238.12-.285.242-.625 2.008-2.222 2.555-3.226 2.555s-3.418-.669-3.418-4.805v-.453zm-6.598-.453c.191-3.75 2.293-4.18 2.965-4.18 2.555 0 2.7 3.367 2.722 4.18zm18.477.191c0-2.223 0-2.891-.551-3.656-.692-.934-1.813-1.075-2.625-1.075-2.32 0-3.227 1.985-3.418 2.461h-.028v-2.461l-3.25.262v.692c1.626 0 1.82.168 1.82 1.339v6.477c0 1.074-.265 1.074-1.82 1.074v.696c.626-.051 1.915-.051 2.582-.051.696 0 1.985 0 2.606.05v-.695c-1.531 0-1.816 0-1.816-1.074v-4.445c0-2.508 1.648-3.848 3.129-3.848 1.484 0 1.82 1.219 1.82 2.676v5.617c0 1.074-.266 1.074-1.82 1.074v.696c.624-.051 1.914-.051 2.581-.051.696 0 1.985 0 2.606.05v-.695c-1.195 0-1.793 0-1.816-.715zm5.781-3.801h3.371v-.691h-3.371v-4.399h-.527c-.024 2.246-.883 4.543-3.06 4.614v.476h2.032v6.645c0 2.652 1.77 3.203 3.035 3.203 1.508 0 2.297-1.48 2.297-3.203v-1.364h-.527v1.317c0 1.719-.692 2.722-1.625 2.722-1.625 0-1.625-2.222-1.625-2.628zm9.242-5.113c0-.621-.5-1.168-1.168-1.168-.625 0-1.148.5-1.148 1.144 0 .715.574 1.172 1.148 1.172.738 0 1.168-.621 1.168-1.148m-3.297 4.445v.692c1.528 0 1.746.144 1.746 1.316v6.5c0 1.074-.265 1.074-1.816 1.074v.696c.668-.051 1.816-.051 2.508-.051.261 0 1.648 0 2.461.05v-.695c-1.551 0-1.649-.117-1.649-1.05v-8.794zm10.035 1.121c0-.64-.547-1.144-1.144-1.144-.696 0-1.172.551-1.172 1.144 0 .719.598 1.172 1.148 1.172.645 0 1.168-.5 1.168-1.172m0 7.985c0-.645-.547-1.149-1.144-1.149-.696 0-1.172.551-1.172 1.149a1.17 1.17 0 0 0 1.148 1.172c.645 0 1.168-.504 1.168-1.172m-72.527-72.153v.696c1.625 0 1.816.168 1.816 1.336v5.281c-.5-.692-1.527-1.528-2.984-1.528-2.773 0-5.164 2.34-5.164 5.399 0 3.035 2.27 5.379 4.898 5.379 1.817 0 2.868-1.195 3.203-1.649v1.649l3.368-.238v-.696c-1.625 0-1.813-.168-1.813-1.336v-14.554zm1.77 13.528c0 .429 0 .5-.336 1.027-.57.836-1.551 1.527-2.746 1.527-.622 0-3.204-.238-3.204-4.875 0-1.718.285-2.675.813-3.464.476-.739 1.433-1.481 2.629-1.481 1.48 0 2.316 1.074 2.554 1.457.29.406.29.457.29.887zm13.285-3.586c0-1.289 0-2.246-1.051-3.18-.836-.762-1.91-1.098-2.961-1.098-1.961 0-3.469 1.293-3.469 2.844 0 .692.457 1.027 1.008 1.027.57 0 .977-.406.977-.98 0-.98-.86-.98-1.22-.98.552-1 1.7-1.43 2.653-1.43 1.102 0 2.512.906 2.512 3.055v.957c-4.805.074-6.621 2.082-6.621 3.918 0 1.89 2.199 2.488 3.656 2.488 1.578 0 2.652-.957 3.105-2.106.098 1.125.836 1.985 1.868 1.985.5 0 1.886-.336 1.886-2.246v-1.34h-.527v1.34c0 1.363-.57 1.554-.906 1.554-.91 0-.91-1.269-.91-1.625zm-1.551 3.011c0 2.34-1.746 3.129-2.774 3.129-1.171 0-2.148-.859-2.148-2.007 0-3.153 4.063-3.442 4.922-3.489zm6.871-.957c1.125.743 2.082.743 2.344.743 2.148 0 3.75-1.625 3.75-3.465 0-.645-.192-1.555-.957-2.317.933-.957 2.054-.957 2.175-.957.098 0 .215 0 .313.047-.238.098-.36.336-.36.598a.6.6 0 0 0 .622.621c.191 0 .62-.121.62-.645 0-.429-.335-1.101-1.171-1.101-1.242 0-2.176.765-2.508 1.125-.715-.551-1.555-.86-2.46-.86-2.153 0-3.755 1.625-3.755 3.465 0 1.364.836 2.246 1.078 2.461-.289.36-.718 1.051-.718 1.985 0 1.386.836 1.98 1.027 2.101-1.098.309-2.2 1.172-2.2 2.414 0 1.649 2.25 3.008 5.188 3.008 2.844 0 5.211-1.262 5.211-3.055 0-.597-.168-2.007-1.601-2.75-1.22-.621-2.414-.621-4.47-.621-1.46 0-1.624 0-2.054-.453-.242-.238-.457-.695-.457-1.195 0-.406.145-.813.383-1.149m2.367.243c-2.105 0-2.105-2.414-2.105-2.965 0-.43 0-1.41.406-2.055a2.05 2.05 0 0 1 1.676-.934c2.101 0 2.101 2.415 2.101 2.965 0 .43 0 1.41-.406 2.055a2.05 2.05 0 0 1-1.672.934m.645 8.48c-2.293 0-4.04-1.168-4.04-2.531 0-.192.047-1.125.958-1.746.527-.336.738-.336 2.414-.336 1.98 0 4.683 0 4.683 2.082 0 1.406-1.816 2.531-4.015 2.531m9.957-20.98-3.325.261v.696c1.626 0 1.817.168 1.817 1.336v12.523c0 1.074-.262 1.074-1.817 1.074v.696c.672-.051 1.84-.051 2.56-.051.714 0 1.91 0 2.581.051v-.696c-1.531 0-1.816 0-1.816-1.074zm6.547 1.863c0-.621-.504-1.168-1.172-1.168-.621 0-1.145.5-1.145 1.144 0 .715.57 1.172 1.145 1.172.742 0 1.172-.621 1.172-1.148m-3.297 4.445v.692c1.527 0 1.742.144 1.742 1.316v6.5c0 1.074-.262 1.074-1.817 1.074v.696c.672-.051 1.817-.051 2.512-.051.262 0 1.649 0 2.461.051v-.696c-1.554 0-1.648-.121-1.648-1.051v-8.793zm30.574 4.469c0-2.223 0-2.891-.551-3.656-.695-.934-1.816-1.075-2.629-1.075-1.984 0-2.988 1.434-3.371 2.364-.332-1.84-1.625-2.364-3.129-2.364-2.316 0-3.226 1.985-3.418 2.461h-.023v-2.461l-3.25.262v.692c1.625 0 1.816.168 1.816 1.339v6.477c0 1.074-.262 1.074-1.816 1.074v.696c.62-.051 1.91-.051 2.582-.051.691 0 1.984 0 2.601.051v-.696c-1.527 0-1.812 0-1.812-1.074v-4.445c0-2.508 1.648-3.848 3.129-3.848 1.48 0 1.816 1.219 1.816 2.676v5.617c0 1.074-.265 1.074-1.816 1.074v.696c.621-.051 1.914-.051 2.582-.051.691 0 1.98 0 2.601.051v-.696c-1.527 0-1.812 0-1.812-1.074v-4.445c0-2.508 1.648-3.848 3.129-3.848 1.48 0 1.816 1.219 1.816 2.676v5.617c0 1.074-.265 1.074-1.816 1.074v.696c.621-.051 1.914-.051 2.582-.051.691 0 1.98 0 2.601.051v-.696c-1.195 0-1.789 0-1.812-.715zm11.516.262c.527 0 .574 0 .574-.453 0-2.415-1.289-4.661-4.184-4.661-2.722 0-4.824 2.461-4.824 5.426 0 3.153 2.437 5.473 5.09 5.473 2.844 0 3.918-2.582 3.918-3.082 0-.145-.121-.242-.262-.242-.191 0-.242.121-.285.242-.625 2.008-2.223 2.554-3.231 2.554-1 0-3.414-.667-3.414-4.804v-.453zm-6.594-.453c.191-3.75 2.293-4.18 2.961-4.18 2.558 0 2.703 3.367 2.726 4.18zm11.855-3.61h3.371v-.691h-3.371v-4.399h-.523c-.024 2.246-.887 4.543-3.059 4.614v.476h2.032v6.645c0 2.652 1.765 3.203 3.035 3.203 1.504 0 2.293-1.481 2.293-3.203v-1.364h-.528v1.317c0 1.719-.691 2.722-1.625 2.722-1.625 0-1.625-2.222-1.625-2.628zm11.563-2.601.383-.36-2.844-3.679c-.121-.145-.336-.407-.668-.407-.406 0-.813.36-.813.789 0 .239.094.453.332.645zm2.847 5.828c0-1.289 0-2.246-1.05-3.18-.836-.762-1.91-1.098-2.965-1.098-1.957 0-3.465 1.293-3.465 2.844 0 .692.453 1.027 1.004 1.027.574 0 .98-.406.98-.98 0-.98-.859-.98-1.218-.98.55-1 1.699-1.43 2.652-1.43 1.102 0 2.508.906 2.508 3.055v.957c-4.801.074-6.617 2.082-6.617 3.918 0 1.89 2.199 2.488 3.656 2.488 1.578 0 2.652-.957 3.105-2.106.098 1.125.836 1.985 1.864 1.985.503 0 1.89-.336 1.89-2.246v-1.34h-.527v1.34c0 1.363-.574 1.554-.906 1.554-.911 0-.911-1.269-.911-1.625zm-1.554 3.011c0 2.34-1.742 3.129-2.77 3.129-1.172 0-2.152-.859-2.152-2.007 0-3.153 4.062-3.442 4.922-3.489zm19-12.953v.696c1.625 0 1.816.168 1.816 1.336v5.281c-.504-.692-1.527-1.528-2.988-1.528-2.77 0-5.16 2.34-5.16 5.399 0 3.035 2.269 5.379 4.898 5.379 1.817 0 2.867-1.195 3.203-1.649v1.649l3.367-.238v-.696c-1.625 0-1.816-.168-1.816-1.336v-14.554zm1.769 13.528c0 .429 0 .5-.336 1.027-.574.836-1.55 1.527-2.746 1.527-.625 0-3.203-.238-3.203-4.875 0-1.718.285-2.675.813-3.464.476-.739 1.433-1.481 2.629-1.481 1.48 0 2.316 1.074 2.554 1.457.289.406.289.457.289.887zm13.215-2.75c.524 0 .574 0 .574-.453 0-2.415-1.293-4.661-4.183-4.661-2.723 0-4.828 2.461-4.828 5.426 0 3.153 2.437 5.473 5.089 5.473 2.844 0 3.922-2.582 3.922-3.082 0-.145-.121-.242-.265-.242-.192 0-.239.121-.285.242-.622 2.008-2.223 2.554-3.227 2.554s-3.418-.667-3.418-4.804v-.453zm-6.598-.453c.192-3.75 2.297-4.18 2.965-4.18 2.559 0 2.7 3.367 2.723 4.18zm11.958-10.586-3.325.261v.696c1.625 0 1.817.168 1.817 1.336v12.523c0 1.074-.262 1.074-1.817 1.074v.696c.668-.051 1.84-.051 2.559-.051.715 0 1.91 0 2.582.051v-.696c-1.531 0-1.816 0-1.816-1.074zm6.5 0-3.325.261v.696c1.625 0 1.817.168 1.817 1.336v12.523c0 1.074-.262 1.074-1.817 1.074v.696c.668-.051 1.84-.051 2.559-.051.715 0 1.91 0 2.582.051v-.696c-1.531 0-1.816 0-1.816-1.074zm11.539 11.039c.527 0 .574 0 .574-.453 0-2.415-1.289-4.661-4.184-4.661-2.722 0-4.824 2.461-4.824 5.426 0 3.153 2.437 5.473 5.09 5.473 2.844 0 3.918-2.582 3.918-3.082 0-.145-.121-.242-.262-.242-.191 0-.242.121-.285.242-.625 2.008-2.223 2.554-3.231 2.554-1 0-3.414-.667-3.414-4.804v-.453zm-6.594-.453c.191-3.75 2.293-4.18 2.961-4.18 2.558 0 2.703 3.367 2.726 4.18zm24.293-2.844c-.285 0-1.172 0-1.172.98 0 .574.406.981.98.981.551 0 1.004-.336 1.004-1.028 0-1.601-1.672-2.75-3.609-2.75-2.793 0-5.02 2.485-5.02 5.496 0 3.059 2.297 5.403 4.996 5.403 3.157 0 3.872-2.867 3.872-3.082 0-.219-.168-.219-.239-.219-.215 0-.242.074-.308.359-.528 1.7-1.821 2.414-3.11 2.414-1.457 0-3.39-1.265-3.39-4.898 0-3.969 2.031-4.945 3.222-4.945.911 0 2.227.359 2.774 1.289m10.972 2.461c0-1.289 0-2.246-1.05-3.18-.836-.762-1.91-1.098-2.965-1.098-1.957 0-3.465 1.293-3.465 2.844 0 .692.453 1.027 1.004 1.027.574 0 .98-.406.98-.98 0-.98-.859-.98-1.218-.98.55-1 1.699-1.43 2.652-1.43 1.102 0 2.508.906 2.508 3.055v.957c-4.801.074-6.617 2.082-6.617 3.918 0 1.89 2.199 2.488 3.656 2.488 1.578 0 2.652-.957 3.105-2.106.098 1.125.836 1.985 1.864 1.985.503 0 1.89-.336 1.89-2.246v-1.34h-.527v1.34c0 1.363-.574 1.554-.906 1.554-.911 0-.911-1.269-.911-1.625zm-1.554 3.011c0 2.34-1.742 3.129-2.77 3.129-1.172 0-2.152-.859-2.152-2.007 0-3.153 4.062-3.442 4.922-3.489zm8.023-2.199c0-2.316.953-4.492 2.793-4.492.192 0 .238 0 .336.023-.191.098-.574.243-.574.883 0 .696.551.957.933.957.477 0 .958-.308.958-.957 0-.715-.649-1.383-1.676-1.383-2.032 0-2.723 2.196-2.867 2.653h-.024v-2.653l-3.203.262v.692c1.625 0 1.816.168 1.816 1.339v6.477c0 1.074-.261 1.074-1.816 1.074v.696c.672-.051 1.984-.051 2.699-.051.649 0 2.344 0 2.895.051v-.696h-.481c-1.742 0-1.789-.261-1.789-1.121zm16.078.453c0-3.082-2.343-5.543-5.117-5.543-2.863 0-5.137 2.536-5.137 5.543 0 3.063 2.391 5.356 5.114 5.356 2.82 0 5.14-2.344 5.14-5.356m-5.117 4.828c-.883 0-1.957-.382-2.652-1.554-.645-1.074-.668-2.485-.668-3.488 0-.907 0-2.364.738-3.442a3.08 3.08 0 0 1 2.559-1.406c.933 0 1.937.43 2.582 1.359.742 1.102.742 2.606.742 3.489 0 .839 0 2.32-.621 3.441-.668 1.148-1.77 1.601-2.68 1.601m9.86-9.32h3.371v-.691h-3.371v-4.399h-.524c-.023 2.246-.883 4.543-3.059 4.614v.476h2.032v6.645c0 2.652 1.769 3.203 3.035 3.203 1.504 0 2.293-1.481 2.293-3.203v-1.364h-.527v1.317c0 1.719-.692 2.722-1.625 2.722-1.625 0-1.625-2.222-1.625-2.628zm14.242 4.063c.523 0 .574 0 .574-.453 0-2.415-1.293-4.661-4.184-4.661-2.726 0-4.828 2.461-4.828 5.426 0 3.153 2.438 5.473 5.09 5.473 2.844 0 3.922-2.582 3.922-3.082 0-.145-.121-.242-.266-.242-.191 0-.242.121-.285.242-.625 2.008-2.223 2.554-3.226 2.554s-3.418-.667-3.418-4.804v-.453zm-6.598-.453c.191-3.75 2.297-4.18 2.965-4.18 2.555 0 2.699 3.367 2.723 4.18zm19.633.429c0-2.316.957-4.492 2.797-4.492.191 0 .238 0 .336.023-.192.098-.575.243-.575.883 0 .696.547.957.93.957.481 0 .957-.308.957-.957 0-.715-.644-1.383-1.672-1.383-2.031 0-2.722 2.196-2.867 2.653h-.023v-2.653l-3.203.262v.692c1.625 0 1.816.168 1.816 1.339v6.477c0 1.074-.266 1.074-1.816 1.074v.696c.668-.051 1.984-.051 2.699-.051.644 0 2.344 0 2.89.051v-.696h-.476c-1.742 0-1.793-.261-1.793-1.121zm9.269-9.152c0-.621-.504-1.168-1.171-1.168-.622 0-1.149.5-1.149 1.144 0 .715.574 1.172 1.149 1.172.742 0 1.171-.621 1.171-1.148m-3.296 4.445v.692c1.527 0 1.742.144 1.742 1.316v6.5c0 1.074-.262 1.074-1.817 1.074v.696c.668-.051 1.817-.051 2.508-.051.266 0 1.652 0 2.465.051v-.696c-1.555 0-1.648-.121-1.648-1.051v-8.793zm22.773 4.469c0-2.223 0-2.891-.551-3.656-.695-.934-1.816-1.075-2.629-1.075-1.984 0-2.988 1.434-3.371 2.364-.332-1.84-1.625-2.364-3.129-2.364-2.316 0-3.226 1.985-3.418 2.461h-.023v-2.461l-3.25.262v.692c1.625 0 1.816.168 1.816 1.339v6.477c0 1.074-.261 1.074-1.816 1.074v.696c.621-.051 1.914-.051 2.582-.051.691 0 1.984 0 2.601.051v-.696c-1.527 0-1.812 0-1.812-1.074v-4.445c0-2.508 1.648-3.848 3.129-3.848 1.48 0 1.816 1.219 1.816 2.676v5.617c0 1.074-.265 1.074-1.816 1.074v.696c.621-.051 1.914-.051 2.582-.051.691 0 1.98 0 2.601.051v-.696c-1.527 0-1.812 0-1.812-1.074v-4.445c0-2.508 1.648-3.848 3.129-3.848 1.48 0 1.816 1.219 1.816 2.676v5.617c0 1.074-.265 1.074-1.816 1.074v.696c.621-.051 1.914-.051 2.582-.051.691 0 1.98 0 2.601.051v-.696c-1.195 0-1.789 0-1.812-.715zm11.586-.574c0-1.289 0-2.246-1.051-3.18-.836-.762-1.91-1.098-2.961-1.098-1.961 0-3.465 1.293-3.465 2.844 0 .692.453 1.027 1.004 1.027.574 0 .981-.406.981-.98 0-.98-.864-.98-1.219-.98.547-1 1.695-1.43 2.648-1.43 1.102 0 2.512.906 2.512 3.055v.957c-4.805.074-6.617 2.082-6.617 3.918 0 1.89 2.195 2.488 3.652 2.488 1.578 0 2.657-.957 3.11-2.106.093 1.125.836 1.985 1.863 1.985.5 0 1.887-.336 1.887-2.246v-1.34h-.524v1.34c0 1.363-.574 1.554-.91 1.554-.91 0-.91-1.269-.91-1.625zm-1.551 3.011c0 2.34-1.742 3.129-2.773 3.129-1.168 0-2.149-.859-2.149-2.007 0-3.153 4.063-3.442 4.922-3.489zm11.867-6.738c0-.43 0-.551-.242-.551-.187 0-.641.528-.808.743-.743-.598-1.485-.743-2.247-.743-2.894 0-3.753 1.579-3.753 2.891 0 .266 0 1.102.91 1.938.761.667 1.574.835 2.675 1.05 1.317.262 1.625.336 2.223.813.43.359.738.883.738 1.554 0 1.028-.593 2.172-2.699 2.172-1.574 0-2.722-.906-3.25-3.297-.094-.429-.094-.453-.117-.476-.051-.098-.145-.098-.215-.098-.265 0-.265.121-.265.551v3.25c0 .43 0 .551.242.551.117 0 .14-.024.547-.528.121-.167.121-.214.476-.597.91 1.125 2.199 1.125 2.606 1.125 2.511 0 3.754-1.387 3.754-3.274 0-1.293-.79-2.058-1.004-2.269-.86-.742-1.504-.887-3.082-1.176-.719-.141-2.461-.476-2.461-1.91 0-.738.5-1.84 2.652-1.84 2.605 0 2.746 2.223 2.797 2.965.019.191.187.191.262.191.261 0 .261-.121.261-.55zm5.477.5h3.371v-.691h-3.371v-4.399h-.527c-.024 2.246-.883 4.543-3.059 4.614v.476h2.031v6.645c0 2.652 1.77 3.203 3.035 3.203 1.508 0 2.297-1.481 2.297-3.203v-1.364h-.527v1.317c0 1.719-.692 2.722-1.625 2.722-1.625 0-1.625-2.222-1.625-2.628zm14.238 4.063c.524 0 .574 0 .574-.453 0-2.415-1.293-4.661-4.183-4.661-2.723 0-4.828 2.461-4.828 5.426 0 3.153 2.437 5.473 5.089 5.473 2.844 0 3.922-2.582 3.922-3.082 0-.145-.121-.242-.265-.242-.192 0-.239.121-.285.242-.622 2.008-2.223 2.554-3.227 2.554s-3.418-.667-3.418-4.804v-.453zm-6.598-.453c.192-3.75 2.297-4.18 2.965-4.18 2.559 0 2.7 3.367 2.723 4.18zM81.133-231.906c0-2.223 0-2.891-.547-3.657-.695-.933-1.817-1.078-2.629-1.078-1.984 0-2.988 1.438-3.371 2.368-.336-1.84-1.625-2.368-3.129-2.368-2.32 0-3.226 1.985-3.418 2.465h-.023v-2.465l-3.25.266v.691c1.625 0 1.816.168 1.816 1.34v6.477c0 1.074-.262 1.074-1.816 1.074v.691c.62-.046 1.91-.046 2.578-.046.695 0 1.984 0 2.605.046v-.691c-1.527 0-1.816 0-1.816-1.074v-4.446c0-2.507 1.648-3.847 3.133-3.847 1.48 0 1.816 1.219 1.816 2.676v5.617c0 1.074-.266 1.074-1.816 1.074v.691c.62-.046 1.91-.046 2.578-.046.695 0 1.984 0 2.605.046v-.691c-1.527 0-1.816 0-1.816-1.074v-4.446c0-2.507 1.648-3.847 3.133-3.847 1.48 0 1.816 1.219 1.816 2.676v5.617c0 1.074-.266 1.074-1.816 1.074v.691c.62-.046 1.91-.046 2.578-.046.695 0 1.984 0 2.605.046v-.691c-1.195 0-1.793 0-1.816-.715zm11.59-.574c0-1.29 0-2.247-1.051-3.18-.836-.762-1.91-1.098-2.961-1.098-1.961 0-3.469 1.289-3.469 2.844 0 .691.457 1.027 1.008 1.027.57 0 .977-.406.977-.98 0-.981-.86-.981-1.22-.981.552-1.004 1.7-1.433 2.653-1.433 1.102 0 2.512.91 2.512 3.058v.957c-4.805.071-6.621 2.078-6.621 3.918 0 1.891 2.199 2.489 3.656 2.489 1.578 0 2.652-.957 3.106-2.106.097 1.125.835 1.985 1.867 1.985.5 0 1.886-.336 1.886-2.247v-1.339h-.527v1.339c0 1.364-.57 1.555-.906 1.555-.91 0-.91-1.269-.91-1.625zm-1.551 3.011c0 2.34-1.746 3.129-2.774 3.129-1.171 0-2.148-.859-2.148-2.008 0-3.152 4.063-3.441 4.922-3.488zm14.664-2.437c0-2.223 0-2.891-.551-3.657-.695-.933-1.816-1.078-2.629-1.078-2.316 0-3.226 1.985-3.418 2.465h-.023v-2.465l-3.25.266v.691c1.625 0 1.816.168 1.816 1.34v6.477c0 1.074-.262 1.074-1.816 1.074v.691c.62-.046 1.91-.046 2.582-.046.691 0 1.984 0 2.601.046v-.691c-1.527 0-1.812 0-1.812-1.074v-4.446c0-2.507 1.648-3.847 3.129-3.847 1.48 0 1.816 1.219 1.816 2.676v5.617c0 1.074-.265 1.074-1.816 1.074v.691c.621-.046 1.914-.046 2.582-.046.691 0 1.98 0 2.601.046v-.691c-1.195 0-1.789 0-1.812-.715zm5.207 1.48c1.125.742 2.078.742 2.344.742 2.148 0 3.75-1.625 3.75-3.464 0-.649-.192-1.555-.957-2.321.933-.953 2.054-.953 2.175-.953.098 0 .215 0 .313.047-.238.094-.359.336-.359.598 0 .332.238.621.621.621.191 0 .621-.121.621-.645 0-.433-.336-1.101-1.172-1.101-1.242 0-2.176.765-2.508 1.125-.715-.551-1.555-.864-2.461-.864-2.152 0-3.754 1.625-3.754 3.469 0 1.359.836 2.246 1.078 2.457-.289.363-.718 1.055-.718 1.988 0 1.383.836 1.981 1.027 2.102-1.098.309-2.199 1.172-2.199 2.41 0 1.652 2.25 3.012 5.187 3.012 2.844 0 5.211-1.266 5.211-3.055 0-.601-.168-2.008-1.601-2.75-1.219-.621-2.414-.621-4.469-.621-1.457 0-1.625 0-2.055-.453-.238-.238-.457-.695-.457-1.195 0-.407.145-.813.383-1.149m2.367.238c-2.105 0-2.105-2.414-2.105-2.96 0-.43 0-1.411.41-2.055a2.03 2.03 0 0 1 1.672-.934c2.101 0 2.101 2.414 2.101 2.965 0 .43 0 1.406-.406 2.055a2.04 2.04 0 0 1-1.672.929m.645 8.485c-2.293 0-4.039-1.168-4.039-2.531 0-.192.047-1.125.957-1.746.523-.336.742-.336 2.414-.336 1.98 0 4.683 0 4.683 2.082 0 1.406-1.816 2.531-4.015 2.531m10.101-19.117c0-.621-.5-1.172-1.168-1.172a1.15 1.15 0 0 0-1.148 1.148c0 .715.574 1.172 1.148 1.172.739 0 1.168-.625 1.168-1.148m-3.297 4.445v.691c1.532 0 1.746.145 1.746 1.317v6.5c0 1.074-.261 1.074-1.816 1.074v.691c.668-.046 1.816-.046 2.508-.046.266 0 1.648 0 2.461.046v-.691c-1.551 0-1.649-.121-1.649-1.051v-8.797zm14.864 3.895c0-1.29 0-2.247-1.051-3.18-.836-.762-1.91-1.098-2.961-1.098-1.961 0-3.469 1.289-3.469 2.844 0 .691.457 1.027 1.004 1.027.574 0 .981-.406.981-.98 0-.981-.86-.981-1.219-.981.551-1.004 1.699-1.433 2.652-1.433 1.102 0 2.512.91 2.512 3.058v.957c-4.805.071-6.621 2.078-6.621 3.918 0 1.891 2.199 2.489 3.656 2.489 1.578 0 2.652-.957 3.106-2.106.097 1.125.835 1.985 1.867 1.985.5 0 1.886-.336 1.886-2.247v-1.339h-.527v1.339c0 1.364-.57 1.555-.906 1.555-.91 0-.91-1.269-.91-1.625zm-1.551 3.011c0 2.34-1.746 3.129-2.774 3.129-1.171 0-2.152-.859-2.152-2.008 0-3.152 4.067-3.441 4.926-3.488zm14.664-2.437c0-2.223 0-2.891-.551-3.657-.695-.933-1.816-1.078-2.629-1.078-2.316 0-3.226 1.985-3.418 2.465h-.023v-2.465l-3.25.266v.691c1.625 0 1.816.168 1.816 1.34v6.477c0 1.074-.261 1.074-1.816 1.074v.691c.621-.046 1.914-.046 2.582-.046.691 0 1.984 0 2.601.046v-.691c-1.527 0-1.812 0-1.812-1.074v-4.446c0-2.507 1.648-3.847 3.129-3.847 1.48 0 1.816 1.219 1.816 2.676v5.617c0 1.074-.265 1.074-1.816 1.074v.691c.621-.046 1.914-.046 2.582-.046.691 0 1.98 0 2.601.046v-.691c-1.195 0-1.789 0-1.812-.715zm11.516.261c.527 0 .574 0 .574-.453 0-2.414-1.289-4.66-4.184-4.66-2.722 0-4.824 2.461-4.824 5.426 0 3.152 2.437 5.473 5.09 5.473 2.844 0 3.918-2.582 3.918-3.086 0-.145-.121-.239-.262-.239-.191 0-.242.121-.285.239-.625 2.007-2.223 2.558-3.231 2.558-1 0-3.414-.668-3.414-4.804v-.454zm-6.594-.453c.191-3.754 2.293-4.183 2.961-4.183 2.558 0 2.703 3.371 2.726 4.183zm22.906-4.277v.691c1.625 0 1.816.168 1.816 1.34v4.278c0 2.031-1.074 3.726-2.867 3.726-1.961 0-2.078-1.125-2.078-2.387v-7.914l-3.371.266v.691c1.816 0 1.816.075 1.816 2.2v3.586c0 1.48 0 2.339.719 3.128.574.622 1.555.911 2.77.911.41 0 1.172 0 1.984-.696.695-.547 1.074-1.457 1.074-1.457v2.153l3.325-.243v-.691c-1.625 0-1.817-.168-1.817-1.34v-8.508zm16.371 4.469c0-2.223 0-2.891-.551-3.657-.695-.933-1.816-1.078-2.629-1.078-2.316 0-3.226 1.985-3.417 2.465h-.024v-2.465l-3.25.266v.691c1.625 0 1.816.168 1.816 1.34v6.477c0 1.074-.261 1.074-1.816 1.074v.691c.621-.046 1.914-.046 2.582-.046.692 0 1.984 0 2.606.046v-.691c-1.532 0-1.817 0-1.817-1.074v-4.446c0-2.507 1.649-3.847 3.129-3.847 1.484 0 1.816 1.219 1.816 2.676v5.617c0 1.074-.261 1.074-1.816 1.074v.691c.621-.046 1.914-.046 2.582-.046.692 0 1.981 0 2.606.046v-.691c-1.196 0-1.793 0-1.817-.715zm11.586-.574c0-1.29 0-2.247-1.047-3.18-.84-.762-1.914-1.098-2.965-1.098-1.961 0-3.464 1.289-3.464 2.844 0 .691.453 1.027 1.003 1.027.575 0 .981-.406.981-.98 0-.981-.863-.981-1.219-.981.551-1.004 1.695-1.433 2.653-1.433 1.097 0 2.507.91 2.507 3.058v.957c-4.804.071-6.617 2.078-6.617 3.918 0 1.891 2.195 2.489 3.656 2.489 1.575 0 2.653-.957 3.106-2.106.094 1.125.836 1.985 1.863 1.985.5 0 1.887-.336 1.887-2.247v-1.339h-.524v1.339c0 1.364-.574 1.555-.91 1.555-.91 0-.91-1.269-.91-1.625zm-1.551 3.011c0 2.34-1.742 3.129-2.773 3.129-1.168 0-2.149-.859-2.149-2.008 0-3.152 4.063-3.441 4.922-3.488zm-156.734-56.64c0-.43 0-.547-.238-.547-.192 0-.645.523-.813.738-.738-.598-1.48-.738-2.246-.738-2.89 0-3.75 1.574-3.75 2.89 0 .262 0 1.098.906 1.934.766.672 1.578.84 2.68 1.051 1.313.265 1.625.336 2.219.812.43.36.742.887.742 1.555 0 1.027-.598 2.176-2.7 2.176-1.577 0-2.722-.91-3.25-3.297-.097-.434-.097-.457-.12-.481-.047-.093-.141-.093-.215-.093-.262 0-.262.117-.262.546v3.25c0 .43 0 .551.238.551.121 0 .145-.023.551-.527.117-.164.117-.215.477-.594.906 1.121 2.199 1.121 2.605 1.121 2.508 0 3.75-1.386 3.75-3.273 0-1.289-.785-2.055-1.004-2.27-.86-.742-1.504-.883-3.082-1.172-.715-.14-2.46-.476-2.46-1.91 0-.742.503-1.84 2.652-1.84 2.605 0 2.75 2.223 2.797 2.961.023.192.19.192.261.192.262 0 .262-.117.262-.547zm10.516 4.566c.527 0 .574 0 .574-.453 0-2.414-1.29-4.66-4.184-4.66-2.722 0-4.824 2.461-4.824 5.422 0 3.156 2.438 5.472 5.09 5.472 2.844 0 3.918-2.582 3.918-3.082 0-.144-.121-.238-.262-.238-.191 0-.242.117-.289.238-.621 2.008-2.219 2.555-3.227 2.555-1 0-3.414-.668-3.414-4.801v-.453zm-6.594-.453c.191-3.754 2.293-4.184 2.96-4.184 2.56 0 2.704 3.367 2.727 4.184zm26.277.191c0-2.226 0-2.894-.55-3.66-.696-.93-1.817-1.074-2.63-1.074-2.054 0-3.011 1.555-3.343 2.297h-.028v-8.344l-3.32.266v.691c1.625 0 1.817.168 1.817 1.34v12.519c0 1.075-.262 1.075-1.817 1.075v.695c.621-.047 1.914-.047 2.582-.047.692 0 1.985 0 2.606.047v-.695c-1.532 0-1.817 0-1.817-1.075v-4.445c0-2.508 1.649-3.848 3.13-3.848 1.483 0 1.816 1.219 1.816 2.68v5.613c0 1.075-.262 1.075-1.817 1.075v.695c.621-.047 1.914-.047 2.582-.047.692 0 1.98 0 2.606.047v-.695c-1.196 0-1.793 0-1.817-.715zm11.59-.574c0-1.293 0-2.25-1.05-3.18-.84-.765-1.915-1.097-2.966-1.097-1.96 0-3.465 1.289-3.465 2.843 0 .692.454 1.028 1.004 1.028.575 0 .98-.406.98-.981 0-.98-.862-.98-1.218-.98.55-1.004 1.696-1.434 2.653-1.434 1.097 0 2.507.907 2.507 3.059v.957c-4.804.07-6.617 2.078-6.617 3.918 0 1.887 2.195 2.484 3.656 2.484 1.575 0 2.653-.957 3.106-2.101.094 1.121.836 1.98 1.863 1.98.5 0 1.887-.332 1.887-2.246v-1.336h-.524v1.336c0 1.363-.574 1.555-.91 1.555-.906 0-.906-1.266-.906-1.625zm-1.555 3.012c0 2.34-1.742 3.129-2.773 3.129-1.168 0-2.149-.864-2.149-2.008 0-3.152 4.063-3.442 4.922-3.488zm8.29-11.352c0-.625-.504-1.172-1.172-1.172-.622 0-1.149.5-1.149 1.149a1.15 1.15 0 0 0 1.148 1.168c.743 0 1.172-.621 1.172-1.145m-3.297 4.446v.691c1.527 0 1.742.144 1.742 1.312v6.5c0 1.075-.262 1.075-1.817 1.075v.695c.668-.047 1.817-.047 2.512-.047.262 0 1.648 0 2.46.047v-.695c-1.554 0-1.647-.118-1.647-1.047v-8.797zm20.704 0v.691c1.625 0 1.816.168 1.816 1.34v4.273c0 2.031-1.078 3.731-2.867 3.731-1.961 0-2.082-1.125-2.082-2.391v-7.91l-3.367.266v.691c1.816 0 1.816.07 1.816 2.199v3.582c0 1.481 0 2.344.715 3.133.574.621 1.555.906 2.773.906.407 0 1.172 0 1.985-.691.691-.551 1.074-1.461 1.074-1.461v2.152l3.32-.238v-.695c-1.625 0-1.816-.164-1.816-1.336v-8.508zm16.367 4.468c0-2.226 0-2.894-.547-3.66-.695-.93-1.816-1.074-2.629-1.074-2.32 0-3.227 1.984-3.418 2.461h-.023v-2.461l-3.25.266v.691c1.625 0 1.816.168 1.816 1.34v6.472c0 1.075-.262 1.075-1.816 1.075v.695c.621-.047 1.91-.047 2.578-.047.695 0 1.984 0 2.605.047v-.695c-1.527 0-1.816 0-1.816-1.075v-4.445c0-2.508 1.648-3.848 3.133-3.848 1.48 0 1.816 1.219 1.816 2.68v5.613c0 1.075-.266 1.075-1.816 1.075v.695c.621-.047 1.91-.047 2.578-.047.695 0 1.984 0 2.605.047v-.695c-1.195 0-1.793 0-1.816-.715zm20.801 0c0-2.226 0-2.894-.551-3.66-.692-.93-1.813-1.074-2.625-1.074-2.32 0-3.227 1.984-3.418 2.461h-.027v-2.461l-3.25.266v.691c1.625 0 1.82.168 1.82 1.34v6.472c0 1.075-.266 1.075-1.82 1.075v.695c.625-.047 1.914-.047 2.582-.047.695 0 1.984 0 2.605.047v-.695c-1.531 0-1.816 0-1.816-1.075v-4.445c0-2.508 1.648-3.848 3.129-3.848 1.484 0 1.82 1.219 1.82 2.68v5.613c0 1.075-.266 1.075-1.82 1.075v.695c.625-.047 1.914-.047 2.582-.047.695 0 1.984 0 2.605.047v-.695c-1.195 0-1.793 0-1.816-.715zm8.929-4.468v.691c1.625 0 1.817.168 1.817 1.34v4.273c0 2.031-1.075 3.731-2.867 3.731-1.961 0-2.079-1.125-2.079-2.391v-7.91l-3.371.266v.691c1.817 0 1.817.07 1.817 2.199v3.582c0 1.481 0 2.344.718 3.133.575.621 1.555.906 2.774.906.406 0 1.168 0 1.98-.691.696-.551 1.075-1.461 1.075-1.461v2.152l3.324-.238v-.695c-1.625 0-1.817-.164-1.817-1.336v-8.508zm22.973 4.468c0-2.226 0-2.894-.551-3.66-.695-.93-1.816-1.074-2.629-1.074-1.984 0-2.988 1.434-3.371 2.367-.332-1.84-1.625-2.367-3.129-2.367-2.316 0-3.226 1.984-3.418 2.461h-.023v-2.461l-3.25.266v.691c1.625 0 1.816.168 1.816 1.34v6.472c0 1.075-.261 1.075-1.816 1.075v.695c.621-.047 1.914-.047 2.582-.047.691 0 1.984 0 2.601.047v-.695c-1.527 0-1.812 0-1.812-1.075v-4.445c0-2.508 1.648-3.848 3.129-3.848 1.48 0 1.816 1.219 1.816 2.68v5.613c0 1.075-.265 1.075-1.816 1.075v.695c.621-.047 1.914-.047 2.582-.047.691 0 1.98 0 2.601.047v-.695c-1.527 0-1.812 0-1.812-1.075v-4.445c0-2.508 1.648-3.848 3.129-3.848 1.48 0 1.816 1.219 1.816 2.68v5.613c0 1.075-.265 1.075-1.816 1.075v.695c.621-.047 1.914-.047 2.582-.047.691 0 1.98 0 2.601.047v-.695c-1.195 0-1.789 0-1.812-.715zm11.516.262c.527 0 .574 0 .574-.453 0-2.414-1.289-4.66-4.184-4.66-2.722 0-4.824 2.461-4.824 5.422 0 3.156 2.437 5.472 5.09 5.472 2.844 0 3.918-2.582 3.918-3.082 0-.144-.121-.238-.262-.238-.191 0-.242.117-.285.238-.625 2.008-2.223 2.555-3.231 2.555-1 0-3.414-.668-3.414-4.801v-.453zm-6.594-.453c.191-3.754 2.293-4.184 2.961-4.184 2.558 0 2.703 3.367 2.726 4.184zm11.832.43c0-2.321.957-4.497 2.797-4.497.191 0 .238 0 .336.028-.192.094-.575.238-.575.883 0 .691.547.957.93.957.481 0 .957-.313.957-.957 0-.715-.644-1.387-1.672-1.387-2.031 0-2.722 2.199-2.867 2.652h-.023v-2.652l-3.203.266v.691c1.625 0 1.816.168 1.816 1.34v6.472c0 1.075-.266 1.075-1.816 1.075v.695c.668-.047 1.984-.047 2.699-.047.644 0 2.344 0 2.89.047v-.695h-.476c-1.742 0-1.793-.262-1.793-1.121zm16.078.453c0-3.082-2.34-5.543-5.113-5.543-2.867 0-5.137 2.531-5.137 5.543 0 3.058 2.387 5.351 5.113 5.351 2.821 0 5.137-2.34 5.137-5.351m-5.113 4.824c-.883 0-1.961-.379-2.653-1.551-.644-1.074-.668-2.484-.668-3.488 0-.91 0-2.367.739-3.442a3.06 3.06 0 0 1 2.558-1.41c.934 0 1.938.43 2.578 1.364.743 1.097.743 2.601.743 3.488 0 .836 0 2.316-.622 3.441-.667 1.145-1.765 1.598-2.675 1.598m20.812-16.031v.691c1.625 0 1.821.168 1.821 1.34v5.281c-.504-.695-1.532-1.531-2.989-1.531-2.773 0-5.164 2.344-5.164 5.402 0 3.035 2.27 5.375 4.903 5.375 1.816 0 2.867-1.195 3.199-1.648v1.648l3.371-.238v-.695c-1.625 0-1.817-.164-1.817-1.336v-14.555zm1.77 13.523c0 .43 0 .504-.332 1.027-.575.84-1.555 1.532-2.75 1.532-.621 0-3.203-.239-3.203-4.875 0-1.723.289-2.676.812-3.465.477-.742 1.434-1.485 2.629-1.485 1.48 0 2.316 1.079 2.559 1.461.285.407.285.454.285.883zm8.222-11.922c0-.625-.504-1.172-1.171-1.172-.622 0-1.149.5-1.149 1.149 0 .715.574 1.168 1.149 1.168.742 0 1.171-.621 1.171-1.145m-3.296 4.446v.691c1.527 0 1.742.144 1.742 1.312v6.5c0 1.075-.262 1.075-1.817 1.075v.695c.668-.047 1.817-.047 2.508-.047.266 0 1.652 0 2.465.047v-.695c-1.555 0-1.648-.118-1.648-1.047v-8.797zm13.476.164c0-.43 0-.547-.242-.547-.188 0-.641.523-.813.738-.738-.598-1.48-.738-2.242-.738-2.894 0-3.754 1.574-3.754 2.89 0 .262 0 1.098.91 1.934.762.672 1.575.84 2.676 1.051 1.313.265 1.625.336 2.223.812.43.36.738.887.738 1.555 0 1.027-.597 2.176-2.699 2.176-1.578 0-2.723-.91-3.25-3.297-.094-.434-.094-.457-.117-.481-.051-.093-.145-.093-.215-.093-.266 0-.266.117-.266.546v3.25c0 .43 0 .551.239.551.121 0 .144-.023.55-.527.121-.164.121-.215.477-.594.91 1.121 2.199 1.121 2.605 1.121 2.508 0 3.75-1.386 3.75-3.273 0-1.289-.785-2.055-1-2.27-.863-.742-1.507-.883-3.086-1.172-.714-.14-2.46-.476-2.46-1.91 0-.742.503-1.84 2.656-1.84 2.601 0 2.746 2.223 2.793 2.961.023.192.191.192.261.192.266 0 .266-.117.266-.547zm7.215 14.05c-1.527 0-1.816 0-1.816-1.074v-4.156c.429.594 1.41 1.527 2.941 1.527 2.75 0 5.16-2.316 5.16-5.398 0-3.035-2.246-5.379-4.851-5.379-2.102 0-3.223 1.508-3.297 1.601v-1.601l-3.321.266v.691c1.672 0 1.817.168 1.817 1.219v11.23c0 1.074-.266 1.074-1.817 1.074v.696c.621-.051 1.91-.051 2.578-.051.696 0 1.985 0 2.606.051zm-1.816-11.562c0-.457 0-.481.265-.863a3.44 3.44 0 0 1 2.793-1.528c1.793 0 3.227 2.172 3.227 4.852 0 2.84-1.625 4.922-3.465 4.922a2.8 2.8 0 0 1-1.91-.766c-.551-.551-.91-1.027-.91-1.695zm18.183 1.242c0-1.293 0-2.25-1.047-3.18-.84-.765-1.914-1.097-2.965-1.097-1.961 0-3.464 1.289-3.464 2.843 0 .692.453 1.028 1.003 1.028.575 0 .981-.406.981-.981 0-.98-.863-.98-1.219-.98.551-1.004 1.695-1.434 2.653-1.434 1.097 0 2.507.907 2.507 3.059v.957c-4.804.07-6.617 2.078-6.617 3.918 0 1.887 2.195 2.484 3.656 2.484 1.575 0 2.653-.957 3.106-2.101.094 1.121.836 1.98 1.863 1.98.5 0 1.887-.332 1.887-2.246v-1.336h-.524v1.336c0 1.363-.574 1.555-.91 1.555-.91 0-.91-1.266-.91-1.625zm-1.551 3.012c0 2.34-1.742 3.129-2.773 3.129-1.168 0-2.149-.864-2.149-2.008 0-3.152 4.063-3.442 4.922-3.488zm8.02-2.199c0-2.321.957-4.497 2.797-4.497.191 0 .238 0 .336.028-.192.094-.575.238-.575.883 0 .691.547.957.93.957.481 0 .957-.313.957-.957 0-.715-.644-1.387-1.672-1.387-2.031 0-2.722 2.199-2.867 2.652h-.023v-2.652l-3.203.266v.691c1.625 0 1.816.168 1.816 1.34v6.472c0 1.075-.266 1.075-1.816 1.075v.695c.668-.047 1.984-.047 2.699-.047.644 0 2.344 0 2.89.047v-.695h-.476c-1.742 0-1.793-.262-1.793-1.121zm9.269-9.153c0-.625-.504-1.172-1.171-1.172-.622 0-1.149.5-1.149 1.149 0 .715.574 1.168 1.149 1.168.742 0 1.171-.621 1.171-1.145m-3.296 4.446v.691c1.527 0 1.742.144 1.742 1.312v6.5c0 1.075-.262 1.075-1.817 1.075v.695c.668-.047 1.817-.047 2.508-.047.266 0 1.652 0 2.465.047v-.695c-1.555 0-1.648-.118-1.648-1.047v-8.797zm20.605-6.047v.691c1.625 0 1.816.168 1.816 1.34v5.281c-.5-.695-1.527-1.531-2.988-1.531-2.769 0-5.16 2.344-5.16 5.402 0 3.035 2.269 5.375 4.898 5.375 1.817 0 2.868-1.195 3.204-1.648v1.648l3.367-.238v-.695c-1.625 0-1.813-.164-1.813-1.336v-14.555zm1.77 13.523c0 .43 0 .504-.336 1.027-.571.84-1.551 1.532-2.747 1.532-.621 0-3.203-.239-3.203-4.875 0-1.723.286-2.676.813-3.465.476-.742 1.433-1.485 2.629-1.485 1.48 0 2.316 1.079 2.554 1.461.29.407.29.454.29.883zm8.218-11.922c0-.625-.5-1.172-1.168-1.172-.621 0-1.148.5-1.148 1.149a1.15 1.15 0 0 0 1.148 1.168c.739 0 1.168-.621 1.168-1.145m-3.297 4.446v.691c1.532 0 1.746.144 1.746 1.312v6.5c0 1.075-.261 1.075-1.816 1.075v.695c.668-.047 1.816-.047 2.508-.047.266 0 1.648 0 2.461.047v-.695c-1.551 0-1.649-.118-1.649-1.047v-8.797zm22.192 1.429c-.285 0-1.172 0-1.172.981 0 .574.406.98.98.98.551 0 1.004-.336 1.004-1.027 0-1.602-1.672-2.746-3.609-2.746-2.793 0-5.02 2.484-5.02 5.496 0 3.058 2.297 5.398 4.996 5.398 3.157 0 3.872-2.867 3.872-3.082s-.168-.215-.239-.215c-.215 0-.242.071-.308.36-.528 1.695-1.821 2.41-3.11 2.41-1.457 0-3.39-1.266-3.39-4.899 0-3.964 2.031-4.945 3.222-4.945.911 0 2.227.36 2.774 1.289m10.972 2.465c0-1.293 0-2.25-1.05-3.18-.836-.765-1.91-1.097-2.965-1.097-1.957 0-3.465 1.289-3.465 2.843 0 .692.453 1.028 1.004 1.028.574 0 .98-.406.98-.981 0-.98-.859-.98-1.218-.98.55-1.004 1.699-1.434 2.652-1.434 1.102 0 2.508.907 2.508 3.059v.957c-4.801.07-6.617 2.078-6.617 3.918 0 1.887 2.199 2.484 3.656 2.484 1.578 0 2.652-.957 3.105-2.101.098 1.121.836 1.98 1.864 1.98.503 0 1.89-.332 1.89-2.246v-1.336h-.527v1.336c0 1.363-.574 1.555-.906 1.555-.911 0-.911-1.266-.911-1.625zm-1.554 3.012c0 2.34-1.742 3.129-2.77 3.129-1.172 0-2.152-.864-2.152-2.008 0-3.152 4.062-3.442 4.922-3.488zm8.023-2.199c0-2.321.953-4.497 2.793-4.497.192 0 .238 0 .336.028-.191.094-.574.238-.574.883 0 .691.551.957.933.957.477 0 .958-.313.958-.957 0-.715-.649-1.387-1.676-1.387-2.032 0-2.723 2.199-2.867 2.652h-.024v-2.652l-3.203.266v.691c1.625 0 1.816.168 1.816 1.34v6.472c0 1.075-.261 1.075-1.816 1.075v.695c.672-.047 1.984-.047 2.699-.047.649 0 2.344 0 2.895.047v-.695h-.481c-1.742 0-1.789-.262-1.789-1.121zm16.078.453c0-3.082-2.343-5.543-5.117-5.543-2.863 0-5.137 2.531-5.137 5.543 0 3.058 2.391 5.351 5.114 5.351 2.82 0 5.14-2.34 5.14-5.351m-5.117 4.824c-.883 0-1.957-.379-2.652-1.551-.645-1.074-.668-2.484-.668-3.488 0-.91 0-2.367.738-3.442a3.07 3.07 0 0 1 2.559-1.41c.933 0 1.937.43 2.582 1.364.742 1.097.742 2.601.742 3.488 0 .836 0 2.316-.621 3.441-.668 1.145-1.77 1.598-2.68 1.598m9.86-9.316h3.371v-.696h-3.371v-4.394h-.524c-.023 2.246-.883 4.539-3.059 4.609v.481h2.032v6.64c0 2.652 1.769 3.203 3.035 3.203 1.504 0 2.293-1.48 2.293-3.203v-1.359h-.527v1.312c0 1.723-.692 2.723-1.625 2.723-1.625 0-1.625-2.219-1.625-2.625zm14.242 4.062c.523 0 .574 0 .574-.453 0-2.414-1.293-4.66-4.184-4.66-2.726 0-4.828 2.461-4.828 5.422 0 3.156 2.438 5.472 5.09 5.472 2.844 0 3.922-2.582 3.922-3.082 0-.144-.121-.238-.266-.238-.191 0-.242.117-.285.238-.625 2.008-2.223 2.555-3.226 2.555s-3.418-.668-3.418-4.801v-.453zm-6.598-.453c.191-3.754 2.297-4.184 2.965-4.184 2.555 0 2.699 3.367 2.723 4.184zm12.238-3.156c0-.645-.547-1.149-1.144-1.149-.696 0-1.172.551-1.172 1.149a1.17 1.17 0 0 0 1.148 1.172c.645 0 1.168-.504 1.168-1.172m0 7.98c0-.644-.547-1.148-1.144-1.148-.696 0-1.172.55-1.172 1.148 0 .719.598 1.172 1.148 1.172.645 0 1.168-.504 1.168-1.172M20.836-338.906c0-.434 0-.551-.238-.551-.192 0-.645.523-.813.738-.738-.594-1.48-.738-2.246-.738-2.89 0-3.75 1.574-3.75 2.891 0 .261 0 1.097.906 1.933.766.672 1.578.84 2.68 1.055 1.313.262 1.625.332 2.219.812.43.36.742.883.742 1.551 0 1.027-.598 2.176-2.7 2.176-1.577 0-2.722-.906-3.25-3.297-.097-.43-.097-.453-.12-.477-.047-.097-.141-.097-.215-.097-.262 0-.262.121-.262.551v3.25c0 .429 0 .546.238.546.121 0 .145-.023.551-.527.117-.164.117-.211.477-.594.906 1.121 2.199 1.121 2.605 1.121 2.508 0 3.75-1.382 3.75-3.273 0-1.289-.785-2.055-1.004-2.269-.86-.739-1.504-.883-3.082-1.172-.715-.141-2.46-.477-2.46-1.911 0-.742.503-1.839 2.652-1.839 2.605 0 2.75 2.222 2.797 2.964.023.192.19.192.261.192.262 0 .262-.121.262-.551zm10.516 4.562c.527 0 .574 0 .574-.453 0-2.414-1.29-4.66-4.184-4.66-2.722 0-4.824 2.461-4.824 5.426 0 3.152 2.438 5.468 5.09 5.468 2.844 0 3.918-2.578 3.918-3.082 0-.144-.121-.238-.262-.238-.191 0-.242.121-.289.238-.621 2.008-2.219 2.555-3.227 2.555-1 0-3.414-.668-3.414-4.801v-.453zm-6.594-.453c.191-3.754 2.293-4.183 2.96-4.183 2.56 0 2.704 3.371 2.727 4.183zm21.519-6.215.38-.359-2.844-3.68c-.118-.144-.333-.406-.669-.406-.406 0-.812.359-.812.789 0 .238.098.453.336.645zm3.278 6.668c.523 0 .57 0 .57-.453 0-2.414-1.29-4.66-4.18-4.66-2.726 0-4.828 2.461-4.828 5.426 0 3.152 2.438 5.468 5.09 5.468 2.844 0 3.918-2.578 3.918-3.082 0-.144-.117-.238-.262-.238-.191 0-.238.121-.285.238-.625 2.008-2.223 2.555-3.226 2.555s-3.418-.668-3.418-4.801v-.453zm-6.598-.453c.191-3.754 2.293-4.183 2.965-4.183 2.555 0 2.7 3.371 2.723 4.183zm24.867-.383c0-1.289 0-2.246-1.05-3.179-.837-.762-1.915-1.098-2.965-1.098-1.957 0-3.465 1.289-3.465 2.844 0 .691.453 1.027 1.004 1.027.574 0 .98-.406.98-.98 0-.981-.86-.981-1.219-.981.551-1.004 1.696-1.433 2.653-1.433 1.097 0 2.507.91 2.507 3.058v.957c-4.8.07-6.617 2.078-6.617 3.918 0 1.891 2.2 2.484 3.657 2.484 1.574 0 2.652-.953 3.105-2.101.094 1.125.836 1.984 1.863 1.984.504 0 1.887-.336 1.887-2.246v-1.34h-.523v1.34c0 1.363-.575 1.555-.907 1.555-.91 0-.91-1.27-.91-1.625zm-1.555 3.012c0 2.34-1.742 3.129-2.769 3.129-1.172 0-2.152-.859-2.152-2.008 0-3.152 4.062-3.441 4.921-3.488zm11.301-12.953v.691c1.625 0 1.817.168 1.817 1.34v5.281c-.504-.695-1.531-1.531-2.989-1.531-2.773 0-5.164 2.344-5.164 5.402 0 3.036 2.274 5.375 4.903 5.375 1.816 0 2.867-1.195 3.199-1.648v1.648l3.371-.238v-.691c-1.625 0-1.816-.168-1.816-1.34v-14.551zm1.766 13.527c0 .43 0 .5-.332 1.024-.574.84-1.555 1.531-2.75 1.531-.621 0-3.2-.238-3.2-4.875 0-1.719.286-2.676.813-3.465.477-.742 1.43-1.48 2.625-1.48 1.485 0 2.32 1.074 2.559 1.457.285.406.285.453.285.882zm11.328-7.48v.691c1.625 0 1.817.168 1.817 1.34v4.277c0 2.032-1.075 3.727-2.868 3.727-1.96 0-2.078-1.125-2.078-2.391v-7.91l-3.37.266v.691c1.816 0 1.816.07 1.816 2.199v3.582c0 1.485 0 2.344.718 3.133.574.621 1.551.906 2.77.906.406 0 1.172 0 1.984-.691.695-.551 1.074-1.461 1.074-1.461v2.152l3.325-.238v-.691c-1.625 0-1.817-.168-1.817-1.34v-8.508zm9.848-6.309-3.325.262v.691c1.626 0 1.817.168 1.817 1.34v12.52c0 1.078-.262 1.078-1.817 1.078v.691c.672-.047 1.84-.047 2.56-.047.718 0 1.909 0 2.581.047v-.691c-1.531 0-1.816 0-1.816-1.078zm6.402 6.977h3.371v-.696h-3.371v-4.394h-.523c-.024 2.246-.887 4.539-3.063 4.613v.477h2.031v6.644c0 2.653 1.77 3.199 3.039 3.199 1.504 0 2.293-1.48 2.293-3.199v-1.363h-.527v1.312c0 1.723-.691 2.723-1.625 2.723-1.625 0-1.625-2.219-1.625-2.625zm16.055 4.492c0-3.082-2.34-5.543-5.114-5.543-2.867 0-5.136 2.531-5.136 5.543 0 3.059 2.386 5.351 5.113 5.351 2.816 0 5.137-2.339 5.137-5.351m-5.114 4.824c-.886 0-1.96-.379-2.652-1.551-.648-1.074-.672-2.484-.672-3.488 0-.91 0-2.367.742-3.441a3.06 3.06 0 0 1 2.559-1.41c.93 0 1.934.429 2.578 1.363.742 1.097.742 2.605.742 3.488 0 .836 0 2.316-.621 3.441-.668 1.149-1.769 1.598-2.676 1.598m10.243-8.863c0-.645-.551-1.149-1.149-1.149-.691 0-1.168.551-1.168 1.149 0 .719.598 1.172 1.145 1.172.644 0 1.172-.5 1.172-1.172m0 7.984c0-.648-.551-1.148-1.149-1.148a1.15 1.15 0 0 0-1.168 1.148 1.158 1.158 0 1 0 2.317 0"/></g></svg>