<svg xmlns="http://www.w3.org/2000/svg" width="820pt" height="408" viewBox="0 -306 820 306"><g id="page1"><path fill="#00bf00" d="M140.953-234.965c0-38.75-31.41-70.156-70.156-70.156-38.75 0-70.16 31.406-70.16 70.156 0 38.746 31.41 70.156 70.16 70.156 38.746 0 70.156-31.41 70.156-70.156"/><path fill-rule="evenodd" d="M67.04-305.547c-9.071.707-18.142 2.692-26.435 6.66-4.96 2.27-9.636 5.242-13.89 8.715-5.809 4.75-10.984 10.137-15.024 16.442-4.816 7.085-8.218 15.167-10.062 23.527-2.125 10.137-2.266 20.695.14 30.687a69.5 69.5 0 0 0 12.758 27.282c3.614 4.679 7.868 8.929 12.473 12.687 6.094 4.891 12.969 8.785 20.41 11.195 5.738 1.985 11.762 3.332 17.86 3.758 5.382.141 10.84.141 16.156-.64 11.691-1.84 23.031-6.45 32.312-13.887 9.356-7.231 16.938-16.867 21.758-27.641 2.766-6.023 4.395-12.543 5.387-19.062.496-5.102.426-10.274.211-15.379-.496-6.235-2.055-12.399-4.11-18.352-3.187-8.152-7.511-15.875-13.535-22.254-3.543-3.828-7.301-7.511-11.621-10.488-11.058-8.148-24.594-12.754-38.27-13.18-2.195-.07-4.324-.14-6.519-.07m-.778 2.406c-5.387.571-10.703 1.278-15.805 2.977-5.742 1.773-11.27 4.324-16.441 7.512-1.914.711-1.63 2.836-1.774 4.539-.07 1.343-.636 3.824 1.489 3.683 4.538.356 9.074.496 13.539 1.489 2.054.425 4.18.921 6.164 1.699 4.394-2.762 8.859-5.528 13.746-7.442 3.687-1.629 7.656-2.55 11.625-3.257.351-3.403 1.273-6.735 1.629-10.207-.922-1.133-3.262-.778-4.75-.993-3.118-.14-6.305-.14-9.422 0m-39.403 15.735c-9.922 8.433-17.574 19.558-21.472 31.961-.145.636-.852 2.265-.496 2.41 2.62-1.703 5.172-3.403 7.793-5.106 2.34-6.023 5.03-11.972 8.789-17.289 2.34-3.117 4.96-6.093 8.218-8.293.782-1.273 0-3.117.215-4.675.282-2.766-2.125.636-3.047.992m50.032-1.844c-7.512 1.488-14.598 4.891-20.907 9.215-1.629.922-1.277 2.976-1.558 4.605-.711 6.731-1.278 13.535-1.489 20.336-.07.641-.14 1.278.567 1.633 4.75 4.32 10.348 7.582 15.805 10.914 2.761 1.559 5.382 3.328 8.148 4.746 2.055.781 4.11-.496 6.094-1.133 6.023-2.41 11.765-5.386 17.574-8.363 1.703-.707 3.473-1.844 3.191-3.969.637-6.8.707-13.746.567-20.621.211-1.703-.641-3.261-1.985-4.324-4.535-4.465-10.417-7.227-16.085-10.133-2.41-1.133-4.75-2.551-7.372-3.117q-1.278 0-2.55.211m38.906 12.613c-2.906.782-5.742 1.914-8.578 2.981-.141 7.582-.071 15.234-.567 22.816-.07.922-.422 1.914-.351 2.836 4.605 6.234 9.496 12.402 13.32 19.203.496 1.348 1.207 3.047 2.977 2.055 3.757-.777 7.726-1.348 11.129-3.328 2.054-1.137 1.91-3.688 2.336-5.672.636-4.109 1.347-8.289 1.558-12.473-.426-4.465-2.125-8.715-3.754-12.894-1.558-3.403-2.906-7.02-5.457-9.852-2.34-2.199-4.82-4.394-7.582-6.094-1.633-.57-3.402.071-5.031.422m-105.664 22.61c-2.832 1.984-5.953 4.25-6.871 7.793-.782 3.402-.711 6.875-.852 10.347-.285 7.086.852 14.317 2.977 21.117.851 3.047 2.48 5.954 4.96 7.938 1.489 1.348 2.977 2.691 4.676 3.758 1.774-1.067 3.188-2.625 5.032-3.543 1.703-1.137 3.543-1.985 5.172-3.192-.07-2.054-.778-4.039-.918-6.093-.57-6.45-.145-12.899.707-19.278.21-1.343.355-2.691.566-4.039-4.535-4.465-9.355-9-11.977-14.953-.28-1.203-1.132-1.769-2.054-.707-.496.285-.922.566-1.418.852m36.426 4.464c-5.953 3.188-11.977 6.305-17.715 9.848-1.703 1.137-1.278 3.543-1.703 5.317-.707 6.304-1.063 12.683-.496 19.062.496 2.481.566 5.387 2.55 7.231 3.403 3.328 7.586 5.667 11.625 8.007 3.614 1.985 7.157 4.11 10.985 5.528 1.984.351 3.968-.571 5.738-1.278 6.45-2.836 12.543-6.449 18.426-10.273.922-1.348.355-3.192.566-4.75.07-8.363 0-16.652 0-24.945-2.34-.922-4.465-2.481-6.73-3.754-6.098-3.688-12.192-7.301-17.72-11.836-1.417-1.063-2.976.851-4.394 1.273-.422.215-.777.426-1.132.57m87.238 22.11c-3.969 1.914-8.508 2.265-12.758 3.473-1.629 2.48-2.41 5.386-3.754 7.937-2.765 5.527-6.379 10.629-10.558 15.164-.571.707-1.278 1.348-1.774 2.125.07 4.961-.14 9.852.211 14.742.356 2.055 3.191.918 4.606.848 3.121-.707 6.238-1.84 9-3.613 3.828-3.118 6.593-7.227 9.425-11.266a67.4 67.4 0 0 0 7.301-15.309c1.063-2.906 1.063-6.023.637-9-.211-1.843-.141-3.828-.707-5.668-.567-.074-1.063.352-1.629.567m-61.23 26.219c-5.243 3.121-10.489 6.168-16.157 8.363-1.133.777-4.039 0-3.687 2.055.57 4.605 1.066 9.285 1.984 13.82.57 1.984 3.191 1.984 4.82 2.762 5.742 1.843 11.766 2.836 17.715 3.472 1.844.285 3.617-.14 5.246-.992 6.66-2.836 13.325-5.953 19.278-10.133.496-.355 1.273-.566 1.062-1.277-.07-4.957.07-9.848-.215-14.738-1.062-1.278-3.187-.922-4.816-1.348-6.098-.992-12.473-1.488-18.285-4.039-1.559-1.559-3.188-.281-4.676.637-.781.5-1.559.922-2.27 1.418m-61.653-.567c2.055 3.473 4.25 6.946 6.875 9.992 1.203 1.063-.496-1.558-.71-2.054-1.204-1.985-1.985-4.18-2.763-6.379-1.062-1.488-2.765-2.41-4.183-3.543-.637-.281.71 1.633.781 1.984m25.297 25.653c6.238 3.898 13.254 6.378 20.41 8.007 4.324.922 8.79 1.418 13.254 1.348 2.691-.07 5.387.141 8.078-.355 2.055-1.274-1.347-1.489-2.27-1.559-7.156-.848-14.382-2.125-21.117-4.887-3.187-.711-6.52-.355-9.707-.996-2.976-.496-5.882-1.344-8.859-1.98-.285.14.21.351.21.422"/><path fill="#bf0000" d="M310.445-199.789c0-19.375-31.41-35.078-70.156-35.078-38.75 0-70.156 15.703-70.156 35.078s31.406 35.078 70.156 35.078c38.746 0 70.156-15.703 70.156-35.078"/><path fill-rule="evenodd" d="M237.664-235.152c-12.894.425-25.863 2.164-36.707 5.812-8.293 2.727-15.309 6.41-20.691 10.559-9.071 7.156-12.473 15.98-9.711 24.304 2.054 6.77 8.148 13.219 17.363 18.286 11.34 6.378 27.355 10.628 44.363 11.515 4.817.246 9.637.141 14.457.035 6.164-.281 12.258-1.062 18.141-2.125 11.266-2.054 21.402-5.562 29.41-10.062 9.707-5.141 15.094-12.047 16.301-19.063.351-1.808.281-3.543.211-5.351-.641-7.547-5.598-15.094-15.024-21.047-9.851-6.094-24.023-10.348-39.261-12.047-6.164-.676-12.543-.922-18.852-.816m-3.754 1.664c-4.32.285-8.715 1.101-11.551 2.836-6.945 3.613-10.843 8.398-13.675 13.109-.852 1.453-1.563 2.906-2.055 4.395 2.336.105 3.894.105 6.305.179 2.269 0 5.386.246 6.164-1.027 1.207-2.34 3.687-4.5 6.804-6.309 6.239-3.578 15.239-5.672 24.379-6.734 8.785-1.027 17.86-1.098 26.785-.742 2.625 0-1.343-.887-2.195-1.207-10.558-3.008-22.75-4.957-35.008-4.676-1.984.035-3.968.035-5.953.176m-17.644 1.949c-7.086 1.383-13.961 3.121-19.844 5.527-1.774.711-2.621 1.809-2.41 2.907-.282 3.332.14 6.699-.356 10.027-.14.746 2.27.461 4.114.426 2.195-.036 5.101.105 5.457-.567.636-.992.636-2.09 1.343-3.082 2.977-5.777 8.789-11.129 16.02-15.875-1.492.141-2.906.391-4.324.637m45.707 4.891c-11.481.425-23.032 2.375-31.606 6.343-4.179 1.95-7.441 4.43-8.859 7.192 2.695.566 3.758.461 5.742.566 20.195.992 40.535 2.41 59.453 6.168 6.309 1.238 12.402 2.832 17.578 4.996.922.317 3.403 1.488 3.403.352.07-1.239-.145-2.481-.356-3.719-1.277-4.996-5.738-9.637-10.773-13.961-2.977-2.41-6.52-4.855-11.621-6.234-5.883-1.524-12.684-1.739-19.204-1.809-1.277 0-2.48.035-3.757.106m-73.77 5.136c-5.246 3.192-9.355 6.84-12.117 10.703 1.203.211 2.406 0 3.684-.214 3.402-.567 6.875-.957 10.418-1.274.847-.711 1.132-1.594 1.203-2.836.211-2.41.285-4.816-.286-7.191-.21-.887-1.91.176-2.902.812m18.992 10.067c-2.129.035-2.054 2.054-2.34 2.937-2.48 7.547-1.703 15.274 1.063 22.75 1.914 4.781 4.82 9.531 9.992 13.676 3.332 2.59 8.434 4.715 14.457 5.527 7.227.992 14.883.711 22.18.035 10.488-.992 20.695-3.117 28.844-6.625-1.629-.816-2.125-.886-4.395-1.628a188.3 188.3 0 0 1-31.961-12.688c-5.387-2.656-10.914-5.277-15.66-8.254-5.953-3.719-10.488-8.183-11.195-13.004-.356-.816.281-2.019-.496-2.586-3.473-.25-7.02-.215-10.489-.14m-12.191.281c-2.41.176-1.914 1.312-2.41 2.269-2.406 6.45-10.414 11.907-13.18 18.282-.992 2.48-1.062 5.211 1.559 7.441 3.187 2.871 7.511 5.422 12.187 7.727 7.16 3.398 15.875 5.879 25.02 7.722-.215-1.097-2.27-1.738-3.332-2.656-7.301-5.105-10.774-11.269-12.828-17.398-1.7-5.067-2.196-10.168-1.418-15.274.425-2.656 1.136-5.312 1.558-7.972-.918-.352-2.406-.282-4.39-.247q-1.383 0-2.766.106m26.008.035c-.211 3.367 1.843 6.699 4.75 9.711 4.746 4.816 12.258 8.715 19.769 12.398 10.844 5.352 22.891 10.032 36.071 13.75 1.136.356 2.199.637 3.332.957 5.031-2.515 9.992-5.101 13.464-8.222 4.11-3.543 7.372-7.367 9.071-11.371.711-1.563.851-3.367-1.418-4.645-3.047-1.769-7.297-2.937-11.266-4.109-11.48-3.047-24.094-4.926-36.711-6.235-11.976-1.242-24.094-1.949-36.281-2.41-.285 0-.641.035-.781.176m-32.242.496c-4.68.496-9.286 1.203-13.68 2.199-1.344 1.133-1.274 2.481-1.77 3.719-1.062 4.395-.992 8.895 1.274 13.145.426.781.996 1.558 1.633 2.304 1.914-5.066 6.519-9.672 10.132-14.457 1.7-2.16 3.543-4.429 3.118-6.765-.141-.11-.426-.18-.707-.145m-19.133 10.383c-.074-23.316 0-11.656 0 0"/><path fill="#bf0000" d="M480.156-199.746c0-19.371-31.41-35.078-70.156-35.078s-70.156 15.707-70.156 35.078c0 19.375 31.41 35.082 70.156 35.082s70.156-15.707 70.156-35.082"/><path fill-rule="evenodd" d="M406.242-235.035c-9.07.355-18.14 1.344-26.429 3.332-4.961 1.133-9.641 2.621-13.891 4.355-5.813 2.375-10.984 5.067-15.024 8.223-4.82 3.543-8.222 7.582-10.062 11.762-2.129 5.066-2.27 10.347.141 15.343 2.195 4.961 6.589 9.637 12.753 13.641 3.618 2.34 7.868 4.465 12.473 6.344 6.098 2.445 12.969 4.394 20.41 5.597 5.742.993 11.766 1.665 17.86 1.879 5.386.071 10.84.071 16.156-.32 11.691-.922 23.031-3.223 32.316-6.945 9.356-3.614 16.938-8.434 21.754-13.817 2.766-3.011 4.395-6.273 5.387-9.535.496-2.551.426-5.137.215-7.687-.496-3.117-2.059-6.2-4.113-9.176-3.188-4.074-7.512-7.938-13.536-11.125-3.543-1.914-7.297-3.758-11.621-5.246-11.054-4.074-24.59-6.379-38.269-6.59-2.196-.035-4.321-.07-6.52-.035m-.777 1.203c-5.387.285-10.703.637-15.805 1.488a116.5 116.5 0 0 0-16.441 3.758c-1.91.352-1.629 1.414-1.77 2.266-.07.675-.636 1.914 1.489 1.843 4.535.176 9.07.247 13.535.743 2.054.214 4.179.461 6.164.851 4.394-1.383 8.859-2.762 13.75-3.719 3.683-.816 7.652-1.277 11.621-1.632.355-1.7 1.273-3.364 1.629-5.102-.922-.566-3.258-.391-4.746-.496-3.121-.07-6.309-.07-9.426 0m-39.402 7.867c-9.922 4.215-17.575 9.781-21.473 15.981-.141.32-.852 1.132-.496 1.203 2.621-.848 5.172-1.699 7.797-2.551 2.336-3.012 5.031-5.988 8.785-8.645 2.34-1.558 4.961-3.046 8.222-4.144.778-.641 0-1.559.211-2.34.286-1.383-2.125.32-3.046.496m50.031-.922c-7.512.746-14.598 2.446-20.906 4.606-1.629.461-1.274 1.488-1.559 2.304-.707 3.368-1.274 6.766-1.488 10.168-.071.321-.141.637.566.817 4.75 2.16 10.348 3.793 15.805 5.457 2.761.777 5.386 1.664 8.148 2.375 2.055.387 4.11-.25 6.094-.57 6.023-1.204 11.766-2.692 17.574-4.18 1.703-.356 3.477-.922 3.192-1.985.636-3.402.707-6.875.566-10.308.215-.852-.637-1.633-1.984-2.164-4.536-2.231-10.418-3.613-16.086-5.067-2.411-.566-4.75-1.277-7.371-1.558q-1.273 0-2.551.105M455-220.578c-2.906.387-5.742.957-8.574 1.488-.145 3.789-.071 7.617-.567 11.41-.074.457-.425.953-.355 1.414 4.605 3.121 9.496 6.203 13.32 9.606.496.672 1.207 1.523 2.981 1.027 3.754-.39 7.722-.676 11.125-1.668 2.054-.566 1.914-1.84 2.336-2.832.64-2.058 1.347-4.148 1.558-6.238-.422-2.231-2.125-4.359-3.754-6.449-1.558-1.7-2.906-3.508-5.457-4.926-2.34-1.098-4.816-2.195-7.582-3.047-1.629-.281-3.402.035-5.031.215m-105.66 11.301c-2.836.992-5.953 2.129-6.875 3.898-.781 1.699-.711 3.438-.852 5.176-.285 3.543.852 7.156 2.977 10.558.851 1.524 2.48 2.973 4.961 3.965 1.488.676 2.976 1.348 4.676 1.879 1.773-.531 3.191-1.308 5.031-1.769 1.703-.567 3.547-.993 5.176-1.594-.071-1.031-.782-2.02-.922-3.051-.567-3.223-.141-6.445.707-9.637.215-.671.355-1.343.566-2.019-4.531-2.231-9.351-4.5-11.972-7.477-.286-.601-1.137-.886-2.059-.351-.496.14-.918.281-1.414.422m36.422 2.234c-5.949 1.594-11.977 3.152-17.715 4.926-1.699.566-1.277 1.769-1.699 2.656-.711 3.152-1.067 6.344-.496 9.531.496 1.239.566 2.692 2.55 3.614 3.403 1.668 7.582 2.836 11.621 4.003 3.614.993 7.157 2.055 10.985 2.766 1.984.176 3.969-.285 5.738-.637 6.449-1.418 12.543-3.226 18.426-5.14.922-.672.355-1.594.566-2.371.075-4.184 0-8.328 0-12.477-2.336-.457-4.465-1.238-6.73-1.875-6.094-1.844-12.192-3.648-17.719-5.918-1.418-.531-2.976.426-4.391.637-.425.105-.781.215-1.136.285M473-195.988c-3.969.957-8.504 1.133-12.758 1.734-1.629 1.242-2.406 2.695-3.754 3.969-2.765 2.765-6.379 5.316-10.558 7.586-.567.351-1.278.672-1.774 1.062.071 2.481-.14 4.922.215 7.367.352 1.028 3.188.461 4.606.426 3.117-.351 6.234-.922 9-1.804 3.828-1.563 6.589-3.618 9.425-5.637 3.047-2.371 5.528-4.961 7.297-7.653 1.063-1.453 1.063-3.011.641-4.5-.215-.921-.145-1.914-.711-2.835-.566-.036-1.063.179-1.629.285m-61.23 13.109c-5.243 1.559-10.489 3.082-16.157 4.184-1.133.386-4.039 0-3.683 1.023.566 2.305 1.062 4.645 1.984 6.91.566.992 3.188.992 4.816 1.383 5.743.922 11.766 1.418 17.719 1.738 1.844.141 3.614-.074 5.242-.496 6.664-1.418 13.325-2.976 19.278-5.066.496-.18 1.273-.285 1.062-.641-.07-2.48.071-4.926-.215-7.371-1.062-.637-3.187-.461-4.816-.672-6.094-.496-12.473-.742-18.285-2.019-1.559-.778-3.188-.141-4.676.32-.781.246-1.559.461-2.269.707m-61.653-.281c2.055 1.734 4.254 3.469 6.875 4.996 1.203.531-.496-.781-.711-1.031-1.203-.989-1.98-2.09-2.761-3.188-1.063-.742-2.766-1.203-4.18-1.769-.641-.145.707.812.777.992m25.301 12.824c6.234 1.949 13.25 3.191 20.406 4.004 4.324.461 8.789.711 13.254.676 2.692-.039 5.387.07 8.078-.18 2.055-.637-1.343-.742-2.265-.777-7.161-.426-14.387-1.067-21.121-2.446-3.188-.355-6.516-.179-9.707-.496-2.977-.25-5.883-.675-8.86-.992-.281.07.215.176.215.211"/><path fill="#00bf00" d="M649.648-235.055c0-38.75-31.41-70.16-70.156-70.16s-70.156 31.41-70.156 70.16c0 38.746 31.41 70.157 70.156 70.157s70.156-31.411 70.156-70.157"/><path fill-rule="evenodd" d="M576.871-305.781c-12.898.851-25.867 4.324-36.711 11.625-8.289 5.457-15.305 12.824-20.691 21.117-9.071 14.312-12.473 31.961-9.707 48.613 2.054 13.535 8.148 26.434 17.359 36.567 11.34 12.757 27.356 21.261 44.363 23.031 4.821.496 9.637.285 14.457.07 6.164-.566 12.258-2.125 18.141-4.25 11.27-4.109 21.402-11.125 29.41-20.125 9.707-10.277 15.094-24.097 16.301-38.129.352-3.613.281-7.086.211-10.699-.637-15.094-5.598-30.187-15.024-42.094-9.851-12.191-24.023-20.695-39.257-24.093-6.168-1.348-12.547-1.844-18.852-1.633m-3.758 3.332c-4.32.566-8.715 2.195-11.55 5.668-6.946 7.23-10.84 16.797-13.676 26.222-.852 2.907-1.559 5.809-2.055 8.786 2.34.214 3.898.214 6.305.355 2.269 0 5.386.496 6.168-2.055 1.203-4.675 3.683-9 6.8-12.613 6.239-7.16 15.239-11.34 24.379-13.465 8.789-2.054 17.86-2.199 26.789-1.488 2.622 0-1.347-1.774-2.199-2.41-10.558-6.024-22.746-9.922-35.008-9.356-1.984.071-3.968.071-5.953.356m-17.644 3.898c-7.086 2.762-13.961 6.235-19.844 11.055-1.77 1.418-2.621 3.613-2.406 5.808-.285 6.665.14 13.395-.356 20.059-.14 1.488 2.266.918 4.11.848 2.199-.071 5.101.215 5.457-1.133.636-1.984.636-4.18 1.347-6.164 2.977-11.551 8.786-22.254 16.016-31.75-1.488.285-2.906.781-4.324 1.277m45.707 9.778c-11.481.851-23.031 4.75-31.606 12.687-4.179 3.895-7.441 8.856-8.855 14.387 2.691 1.133 3.754.918 5.738 1.133 20.195 1.984 40.535 4.816 59.457 12.328 6.309 2.48 12.403 5.672 17.574 9.992.922.641 3.403 2.976 3.403.711.07-2.481-.141-4.961-.356-7.442-1.273-9.992-5.738-19.277-10.769-27.921-2.977-4.821-6.52-9.707-11.625-12.473-5.879-3.047-12.684-3.473-19.203-3.613-1.278 0-2.481.07-3.758.211m-73.77 10.277a71.9 71.9 0 0 0-12.117 21.402c1.203.422 2.406 0 3.684-.426 3.402-1.132 6.875-1.914 10.418-2.55.851-1.418 1.132-3.192 1.203-5.672.215-4.817.285-9.637-.281-14.383-.215-1.773-1.915.352-2.907 1.629m18.992 20.125c-2.125.07-2.054 4.109-2.339 5.883-2.481 15.093-1.7 30.543 1.062 45.496 1.914 9.566 4.82 19.062 9.992 27.355 3.332 5.172 8.434 9.422 14.457 11.055 7.231 1.984 14.883 1.418 22.184.07 10.488-1.984 20.691-6.238 28.84-13.254-1.629-1.629-2.125-1.769-4.395-3.257-11.761-6.946-22.39-15.661-31.957-25.372-5.387-5.316-10.914-10.558-15.664-16.511-5.953-7.442-10.488-16.371-11.195-26.008-.356-1.629.285-4.039-.496-5.172-3.473-.496-7.016-.426-10.489-.285m-12.187.566c-2.41.356-1.914 2.625-2.41 4.535-2.41 12.899-10.418 23.813-13.184 36.571-.992 4.957-1.062 10.414 1.559 14.879 3.191 5.742 7.512 10.843 12.191 15.449 7.156 6.805 15.875 11.766 25.016 15.449-.211-2.195-2.27-3.473-3.332-5.316-7.297-10.203-10.77-22.535-12.824-34.793-1.704-10.133-2.2-20.34-1.418-30.543.425-5.317 1.132-10.629 1.558-15.946-.922-.71-2.41-.566-4.394-.496q-1.384 0-2.762.211m26.008.071c-.215 6.734 1.84 13.394 4.746 19.418 4.75 9.636 12.262 17.433 19.773 24.804 10.84 10.699 22.887 20.055 36.071 27.496 1.132.707 2.195 1.274 3.328 1.914 5.035-5.031 9.992-10.207 13.465-16.441 4.113-7.086 7.371-14.742 9.07-22.75.711-3.117.851-6.73-1.414-9.281-3.047-3.543-7.301-5.883-11.27-8.223-11.48-6.094-24.093-9.848-36.707-12.473-11.976-2.48-24.093-3.894-36.285-4.816-.281 0-.637.07-.777.352m-32.246.992c-4.676.992-9.285 2.41-13.676 4.394-1.348 2.27-1.277 4.961-1.774 7.442-1.062 8.789-.992 17.789 1.278 26.293a36 36 0 0 0 1.629 4.605c1.914-10.133 6.519-19.347 10.133-28.914 1.703-4.324 3.542-8.859 3.117-13.535a.67.67 0 0 0-.707-.285m-19.133 20.765c-.07-46.628 0-23.316 0 0"/><path fill="#bf0000" d="M819.25-235.055c0-38.75-31.41-70.16-70.156-70.16s-70.156 31.41-70.156 70.16c0 38.746 31.41 70.157 70.156 70.157s70.156-31.411 70.156-70.157"/><path fill-rule="evenodd" d="M746.473-305.781c-12.899.851-25.868 4.324-36.711 11.625-8.289 5.457-15.305 12.824-20.692 21.117-9.07 14.312-12.472 31.961-9.711 48.613 2.059 13.535 8.153 26.434 17.364 36.567 11.34 12.757 27.355 21.261 44.363 23.031 4.82.496 9.637.285 14.457.07 6.164-.566 12.258-2.125 18.141-4.25 11.269-4.109 21.402-11.125 29.41-20.125 9.707-10.277 15.094-24.097 16.301-38.129.351-3.613.281-7.086.21-10.699-.636-15.094-5.597-30.187-15.023-42.094-9.852-12.191-24.023-20.695-39.262-24.093-6.164-1.348-12.543-1.844-18.847-1.633m-3.758 3.332c-4.32.566-8.715 2.195-11.551 5.668-6.945 7.23-10.844 16.797-13.676 26.222-.851 2.907-1.558 5.809-2.054 8.786 2.336.214 3.894.214 6.304.355 2.27 0 5.387.496 6.168-2.055 1.203-4.675 3.684-9 6.801-12.613 6.238-7.16 15.238-11.34 24.379-13.465 8.785-2.054 17.859-2.199 26.785-1.488 2.625 0-1.344-1.774-2.195-2.41-10.559-6.024-22.746-9.922-35.008-9.356-1.984.071-3.969.071-5.953.356m-17.645 3.898c-7.086 2.762-13.961 6.235-19.843 11.055-1.77 1.418-2.622 3.613-2.411 5.808-.281 6.665.145 13.395-.351 20.059-.145 1.488 2.265.918 4.109.848 2.196-.071 5.102.215 5.457-1.133.637-1.984.637-4.18 1.348-6.164 2.976-11.551 8.785-22.254 16.016-31.75-1.489.285-2.907.781-4.325 1.277m45.707 9.778c-11.48.851-23.031 4.75-31.605 12.687-4.18 3.895-7.442 8.856-8.859 14.387 2.695 1.133 3.757.918 5.742 1.133 20.195 1.984 40.535 4.816 59.457 12.328 6.304 2.48 12.402 5.672 17.574 9.992.922.641 3.402 2.976 3.402.711.071-2.481-.14-4.961-.355-7.442-1.278-9.992-5.738-19.277-10.774-27.921-2.972-4.821-6.515-9.707-11.621-12.473-5.883-3.047-12.683-3.473-19.203-3.613-1.277 0-2.48.07-3.758.211m-73.769 10.277a71.9 71.9 0 0 0-12.117 21.402c1.203.422 2.406 0 3.683-.426 3.403-1.132 6.875-1.914 10.418-2.55.852-1.418 1.133-3.192 1.203-5.672.215-4.817.285-9.637-.281-14.383-.215-1.773-1.914.352-2.906 1.629M716-258.371c-2.129.07-2.055 4.109-2.34 5.883-2.48 15.093-1.699 30.543 1.063 45.496 1.914 9.566 4.82 19.062 9.992 27.355 3.332 5.172 8.433 9.422 14.457 11.055 7.23 1.984 14.883 1.418 22.183.07 10.489-1.984 20.692-6.238 28.84-13.254-1.629-1.629-2.125-1.769-4.394-3.257-11.762-6.946-22.391-15.661-31.957-25.372-5.387-5.316-10.914-10.558-15.664-16.511-5.953-7.442-10.489-16.371-11.196-26.008-.355-1.629.282-4.039-.496-5.172-3.472-.496-7.015-.426-10.488-.285m-12.191.566c-2.407.356-1.911 2.625-2.407 4.535-2.41 12.899-10.418 23.813-13.183 36.571-.992 4.957-1.063 10.414 1.558 14.879 3.192 5.742 7.516 10.843 12.192 15.449 7.156 6.805 15.875 11.766 25.015 15.449-.214-2.195-2.269-3.473-3.332-5.316-7.297-10.203-10.769-22.535-12.828-34.793-1.699-10.133-2.195-20.34-1.414-30.543.426-5.317 1.133-10.629 1.559-15.946-.922-.71-2.41-.566-4.395-.496q-1.383 0-2.765.211m26.007.071c-.211 6.734 1.844 13.394 4.75 19.418 4.747 9.636 12.258 17.433 19.774 24.804 10.84 10.699 22.887 20.055 36.07 27.496 1.133.707 2.195 1.274 3.328 1.914 5.032-5.031 9.992-10.207 13.465-16.441 4.11-7.086 7.371-14.742 9.07-22.75.711-3.117.852-6.73-1.418-9.281-3.046-3.543-7.296-5.883-11.265-8.223-11.481-6.094-24.094-9.848-36.707-12.473-11.977-2.48-24.098-3.894-36.285-4.816-.285 0-.637.07-.782.352m-32.242.992c-4.676.992-9.281 2.41-13.676 4.394-1.347 2.27-1.277 4.961-1.773 7.442-1.062 8.789-.992 17.789 1.277 26.293.422 1.558.993 3.117 1.629 4.605 1.914-10.133 6.52-19.347 10.133-28.914 1.699-4.324 3.543-8.859 3.117-13.535a.67.67 0 0 0-.707-.285m-19.133 20.765c-.074-46.628 0-23.316 0 0"/><path d="M73.742-45.277c0-1.387-.094-1.387-1.625-1.387-3.539 3.062-8.844 3.062-9.898 3.062h-.907v2.055h.907c1.675 0 4.207-.289 6.12-.906v25.098h-6.644v2.054c2.008-.094 7.028-.094 9.274-.094s7.316 0 9.324.094v-2.054h-6.55zM32.969-92.621v.691c1.625 0 1.816.168 1.816 1.34v5.281c-.504-.691-1.527-1.53-2.988-1.53-2.77 0-5.16 2.343-5.16 5.401 0 3.036 2.27 5.376 4.898 5.376 1.817 0 2.867-1.196 3.203-1.649v1.648l3.367-.238v-.691c-1.624 0-1.816-.168-1.816-1.34v-14.55zm1.77 13.527c0 .43 0 .5-.337 1.024-.574.84-1.55 1.53-2.746 1.53-.625 0-3.203-.237-3.203-4.874 0-1.719.285-2.676.813-3.465.476-.742 1.433-1.48 2.629-1.48 1.48 0 2.316 1.074 2.554 1.457.29.406.29.453.29.883zm13.284-3.586c0-1.289 0-2.246-1.05-3.18-.836-.765-1.91-1.097-2.965-1.097-1.957 0-3.465 1.289-3.465 2.844 0 .691.457 1.027 1.004 1.027.574 0 .98-.406.98-.98 0-.98-.859-.98-1.218-.98.55-1.005 1.699-1.434 2.652-1.434 1.102 0 2.508.91 2.508 3.058v.957c-4.801.07-6.617 2.078-6.617 3.918 0 1.89 2.199 2.484 3.656 2.484 1.578 0 2.652-.953 3.105-2.101.098 1.125.836 1.984 1.864 1.984.504 0 1.89-.336 1.89-2.246v-1.34h-.527v1.34c0 1.364-.574 1.551-.906 1.551-.91 0-.91-1.266-.91-1.625zm-1.554 3.012c0 2.34-1.742 3.129-2.77 3.129-1.172 0-2.152-.86-2.152-2.008 0-3.152 4.062-3.441 4.922-3.488zM66.95-85.14c-.286 0-1.169 0-1.169.976 0 .574.406.98.977.98.55 0 1.004-.332 1.004-1.027 0-1.602-1.672-2.746-3.606-2.746-2.797 0-5.02 2.484-5.02 5.496 0 3.059 2.294 5.398 4.997 5.398 3.152 0 3.867-2.867 3.867-3.081 0-.215-.164-.215-.238-.215-.215 0-.239.07-.309.359-.527 1.695-1.816 2.414-3.11 2.414-1.456 0-3.39-1.266-3.39-4.898 0-3.97 2.031-4.95 3.227-4.95.906 0 2.222.36 2.77 1.293m10.972 2.461c0-1.289 0-2.246-1.047-3.18-.84-.765-1.914-1.097-2.965-1.097-1.96 0-3.465 1.289-3.465 2.844 0 .691.453 1.027 1.004 1.027.574 0 .98-.406.98-.98 0-.98-.863-.98-1.218-.98.547-1.005 1.695-1.434 2.648-1.434 1.102 0 2.512.91 2.512 3.058v.957c-4.805.07-6.621 2.078-6.621 3.918 0 1.89 2.2 2.484 3.656 2.484 1.578 0 2.656-.953 3.11-2.101.093 1.125.836 1.984 1.863 1.984.5 0 1.887-.336 1.887-2.246v-1.34h-.524v1.34c0 1.364-.574 1.551-.91 1.551-.91 0-.91-1.266-.91-1.625zm-1.55 3.012c0 2.34-1.747 3.129-2.774 3.129-1.168 0-2.149-.86-2.149-2.008 0-3.152 4.063-3.441 4.922-3.488zm8.14-13.215-3.325.262v.691c1.626 0 1.817.168 1.817 1.34v12.52c0 1.078-.262 1.078-1.817 1.078v.691c.672-.047 1.84-.047 2.56-.047.714 0 1.91 0 2.581.047v-.691c-1.531 0-1.816 0-1.816-1.078zM95.55-85.14c-.284 0-1.171 0-1.171.976 0 .574.406.98.98.98.551 0 1.004-.332 1.004-1.027 0-1.602-1.672-2.746-3.61-2.746-2.792 0-5.019 2.484-5.019 5.496 0 3.059 2.297 5.398 4.997 5.398 3.156 0 3.87-2.867 3.87-3.081 0-.215-.167-.215-.238-.215-.215 0-.238.07-.308.359-.528 1.695-1.82 2.414-3.11 2.414-1.457 0-3.39-1.266-3.39-4.898 0-3.97 2.03-4.95 3.222-4.95.91 0 2.223.36 2.774 1.293m5.906-5.879c0-.62-.5-1.171-1.168-1.171-.625 0-1.148.504-1.148 1.148a1.15 1.15 0 0 0 1.148 1.168c.738 0 1.168-.621 1.168-1.144m-3.297 4.446v.691c1.528 0 1.746.145 1.746 1.313v6.5c0 1.078-.265 1.078-1.816 1.078v.691c.668-.047 1.816-.047 2.508-.047.261 0 1.648 0 2.461.047v-.691c-1.551 0-1.649-.121-1.649-1.051v-8.797zm16.61 5.159c0-3.082-2.344-5.543-5.114-5.543-2.867 0-5.14 2.531-5.14 5.543 0 3.058 2.39 5.352 5.117 5.352 2.816 0 5.137-2.34 5.137-5.352m-5.114 4.828c-.886 0-1.961-.383-2.652-1.555-.649-1.074-.672-2.484-.672-3.488 0-.91 0-2.367.742-3.441a3.06 3.06 0 0 1 2.559-1.41c.93 0 1.933.43 2.578 1.363.742 1.098.742 2.605.742 3.488 0 .836 0 2.317-.621 3.442-.668 1.148-1.769 1.601-2.676 1.601m-70.011-31.238c1.12.738 2.078.738 2.34.738 2.152 0 3.753-1.625 3.753-3.465 0-.644-.191-1.551-.957-2.316.934-.957 2.055-.957 2.176-.957.094 0 .215 0 .309.051-.239.093-.36.332-.36.593 0 .336.242.625.625.625.188 0 .621-.121.621-.648 0-.43-.336-1.098-1.172-1.098-1.242 0-2.175.766-2.511 1.121-.715-.547-1.551-.859-2.461-.859-2.149 0-3.75 1.625-3.75 3.465 0 1.363.836 2.246 1.074 2.461-.285.359-.715 1.05-.715 1.984 0 1.387.836 1.984 1.028 2.106-1.102.308-2.2 1.168-2.2 2.41 0 1.648 2.246 3.011 5.188 3.011 2.844 0 5.207-1.265 5.207-3.058 0-.598-.168-2.008-1.602-2.746-1.218-.625-2.414-.625-4.468-.625-1.458 0-1.626 0-2.055-.453-.238-.239-.453-.692-.453-1.196 0-.406.144-.812.383-1.144m2.363.238c-2.102 0-2.102-2.414-2.102-2.965 0-.429 0-1.41.407-2.054a2.04 2.04 0 0 1 1.671-.93c2.106 0 2.106 2.414 2.106 2.961 0 .429 0 1.41-.406 2.054a2.04 2.04 0 0 1-1.676.934m.648 8.484c-2.297 0-4.039-1.171-4.039-2.535 0-.191.047-1.121.953-1.746.528-.332.742-.332 2.414-.332 1.985 0 4.684 0 4.684 2.078 0 1.41-1.816 2.535-4.012 2.535m16.813-9.511c0-3.082-2.344-5.543-5.114-5.543-2.867 0-5.136 2.531-5.136 5.543 0 3.058 2.386 5.351 5.113 5.351 2.816 0 5.137-2.34 5.137-5.351m-5.114 4.824c-.886 0-1.96-.379-2.652-1.551-.648-1.074-.672-2.484-.672-3.488 0-.91 0-2.367.742-3.442a3.06 3.06 0 0 1 2.559-1.41c.93 0 1.934.43 2.578 1.364.742 1.097.742 2.601.742 3.488 0 .836 0 2.316-.62 3.441-.669 1.145-1.77 1.598-2.676 1.598m16.48-5.516c0-2.226 0-2.894-.55-3.66-.696-.93-1.817-1.074-2.63-1.074-2.32 0-3.226 1.984-3.418 2.461h-.023v-2.461l-3.25.266v.691c1.625 0 1.816.168 1.816 1.34v6.472c0 1.075-.261 1.075-1.816 1.075v.695c.62-.047 1.91-.047 2.582-.047.691 0 1.984 0 2.601.047v-.695c-1.527 0-1.812 0-1.812-1.075v-4.445c0-2.508 1.648-3.848 3.129-3.848 1.48 0 1.816 1.219 1.816 2.68v5.613c0 1.075-.265 1.075-1.816 1.075v.695c.62-.047 1.91-.047 2.582-.047.691 0 1.98 0 2.601.047v-.695c-1.195 0-1.789 0-1.812-.715zm9.961-4.566c-.14 0-.379.023-.43.047-.047.023-.094.023-.43.023h-2.796v-2.699c0-2.438 2.082-3.344 3.492-3.344.238 0 1.383.024 2.101.836-1.003 0-1.074.738-1.074 1.004 0 .691.574 1 .98 1 .43 0 1-.285 1-1.027 0-1.215-1.12-2.293-2.96-2.293-2.176 0-4.993 1.195-4.993 3.777v2.746H73.82v.696h1.868v7.835c0 1.075-.266 1.075-1.82 1.075v.695c.671-.047 1.843-.047 2.558-.047s1.91 0 2.582.047v-.695c-1.531 0-1.817 0-1.817-1.075v-7.835h3.75c1.102 0 1.246.308 1.246 1.289v6.546c0 1.075-.265 1.075-1.82 1.075v.695c.672-.047 1.844-.047 2.559-.047s1.91 0 2.582.047v-.695c-1.531 0-1.817 0-1.817-1.075v-8.793zm16.371 5.258c0-3.082-2.34-5.543-5.113-5.543-2.868 0-5.137 2.531-5.137 5.543 0 3.058 2.387 5.351 5.113 5.351 2.82 0 5.137-2.34 5.137-5.351m-5.113 4.824c-.883 0-1.961-.379-2.653-1.551-.644-1.074-.668-2.484-.668-3.488 0-.91 0-2.367.739-3.442a3.07 3.07 0 0 1 2.558-1.41c.93 0 1.938.43 2.578 1.364.743 1.097.743 2.601.743 3.488 0 .836 0 2.316-.621 3.441-.668 1.145-1.77 1.598-2.676 1.598m10.504.383c0-1.481-.5-2.414-1.43-2.414-.695 0-1.148.527-1.148 1.148 0 .649.453 1.172 1.167 1.172.36 0 .625-.168.766-.289.07-.07.098-.07.121-.07.047 0 .047.336.047.453 0 1.531-.621 2.965-1.672 4.062-.097.075-.121.121-.121.219 0 .117.121.238.238.238.215 0 2.032-1.769 2.032-4.519m-52.707-35.422c.214-.527.62-1.555 2.148-1.578v-.696c-.691.051-1.027.051-1.766.051-.504 0-.863 0-1.96-.051v.696c1.003.047 1.12.765 1.12 1.027 0 .215-.046.336-.167.621l-2.438 6.164-2.676-6.738c-.117-.332-.14-.332-.14-.453 0-.621.906-.621 1.336-.621v-.696c-.598.051-1.84.051-2.485.051-.789 0-.836 0-2.293-.051v.696c1.336 0 1.578.093 1.864.836l3.417 8.554c.118.336.165.453.454.453.168 0 .312-.046.476-.453zm11.101 2.484c.524 0 .574 0 .574-.453 0-2.414-1.293-4.66-4.183-4.66-2.723 0-4.828 2.461-4.828 5.426 0 3.152 2.437 5.468 5.09 5.468 2.843 0 3.921-2.578 3.921-3.082 0-.144-.12-.238-.265-.238-.192 0-.239.121-.285.238-.621 2.008-2.223 2.555-3.227 2.555s-3.418-.668-3.418-4.801v-.453zm-6.598-.453c.192-3.754 2.297-4.183 2.965-4.183 2.555 0 2.7 3.371 2.723 4.183zm11.836.43c0-2.321.957-4.492 2.793-4.492.196 0 .243 0 .336.023-.191.094-.57.238-.57.883 0 .695.547.957.93.957.476 0 .957-.313.957-.957 0-.715-.645-1.387-1.676-1.387-2.031 0-2.723 2.199-2.867 2.652h-.024v-2.652l-3.203.266v.691c1.625 0 1.82.168 1.82 1.34v6.473c0 1.078-.265 1.078-1.82 1.078v.691c.672-.047 1.985-.047 2.703-.047.645 0 2.34 0 2.89.047v-.691h-.476c-1.746 0-1.793-.266-1.793-1.125zm12.278-10.754v.691c1.625 0 1.816.168 1.816 1.34v5.281c-.504-.695-1.527-1.531-2.988-1.531-2.77 0-5.16 2.344-5.16 5.402 0 3.036 2.27 5.375 4.898 5.375 1.817 0 2.867-1.195 3.203-1.648v1.648l3.368-.238v-.691c-1.625 0-1.817-.168-1.817-1.34v-14.551zm1.77 13.527c0 .43 0 .5-.337 1.024-.574.84-1.55 1.531-2.746 1.531-.625 0-3.203-.238-3.203-4.875 0-1.719.285-2.676.813-3.465.476-.742 1.433-1.48 2.628-1.48 1.481 0 2.317 1.074 2.555 1.457.29.406.29.453.29.882zm13.214-2.75c.524 0 .574 0 .574-.453 0-2.414-1.293-4.66-4.183-4.66-2.723 0-4.828 2.461-4.828 5.426 0 3.152 2.437 5.468 5.09 5.468 2.843 0 3.921-2.578 3.921-3.082 0-.144-.12-.238-.265-.238-.192 0-.239.121-.285.238-.621 2.008-2.223 2.555-3.227 2.555s-3.418-.668-3.418-4.801v-.453zm-6.597-.453c.19-3.754 2.296-4.183 2.964-4.183 2.555 0 2.7 3.371 2.723 4.183zm12.504 6.094c0-1.485-.5-2.414-1.434-2.414-.692 0-1.145.523-1.145 1.148 0 .645.453 1.168 1.168 1.168.36 0 .621-.168.766-.289.07-.066.097-.066.12-.066.048 0 .048.332.048.453 0 1.527-.621 2.961-1.672 4.062-.098.071-.121.118-.121.215 0 .117.12.238.238.238.215 0 2.031-1.769 2.031-4.515M250.945-25.578h-2.007c-.145 1.004-.481 3.824-1.196 4.3-.383.337-4.113.337-4.832.337h-7.406c1.812-1.532 6.164-5.164 6.883-5.692 5.304-3.965 8.558-6.406 8.558-10.992 0-5.645-5.117-9.04-11.429-9.04-5.403 0-10.039 3.063-10.039 7.602 0 2.536 2.054 3.254 3.156 3.254 1.48 0 3.203-1.004 3.203-3.203 0-2.011-1.484-3.011-2.965-3.203 1.914-2.2 4.445-2.39 5.449-2.39 4.399 0 6.504 3.582 6.504 7.027 0 3.726-2.535 7.172-4.496 9.226L229.953-17.5c-.476.43-.476.527-.476 1.387v.812h20.078zM198.57-92.621v.691c1.625 0 1.817.168 1.817 1.34v5.281c-.504-.691-1.532-1.53-2.989-1.53-2.769 0-5.164 2.343-5.164 5.401 0 3.036 2.274 5.376 4.903 5.376 1.816 0 2.867-1.196 3.203-1.649v1.648l3.367-.238v-.691c-1.625 0-1.816-.168-1.816-1.34v-14.55zm1.77 13.527c0 .43 0 .5-.336 1.024-.574.84-1.555 1.53-2.75 1.53-.621 0-3.199-.237-3.199-4.874 0-1.719.285-2.676.812-3.465.477-.742 1.43-1.48 2.625-1.48 1.485 0 2.321 1.074 2.559 1.457.289.406.289.453.289.883zm13.281-3.586c0-1.289 0-2.246-1.047-3.18-.84-.765-1.914-1.097-2.965-1.097-1.961 0-3.464 1.289-3.464 2.844 0 .691.453 1.027 1.003 1.027.575 0 .981-.406.981-.98 0-.98-.863-.98-1.219-.98.551-1.005 1.695-1.434 2.653-1.434 1.097 0 2.507.91 2.507 3.058v.957c-4.804.07-6.617 2.078-6.617 3.918 0 1.89 2.195 2.484 3.656 2.484 1.575 0 2.653-.953 3.106-2.101.094 1.125.836 1.984 1.863 1.984.5 0 1.887-.336 1.887-2.246v-1.34h-.524v1.34c0 1.364-.574 1.551-.91 1.551-.91 0-.91-1.266-.91-1.625zm-1.551 3.012c0 2.34-1.742 3.129-2.773 3.129-1.168 0-2.149-.86-2.149-2.008 0-3.152 4.063-3.441 4.922-3.488zm15.821-13.215-3.321.262v.691c1.625 0 1.817.168 1.817 1.34v14.29h.523c.098-.192.766-1.388.863-1.552.547.883 1.575 1.79 3.106 1.79 2.75 0 5.16-2.317 5.16-5.399 0-3.035-2.246-5.379-4.898-5.379-1.313 0-2.438.598-3.25 1.602zm.047 8.938c0-.43 0-.48.265-.864.57-.859 1.625-1.55 2.793-1.55.719 0 3.227.285 3.227 4.875 0 1.601-.239 2.601-.813 3.465-.476.738-1.433 1.48-2.629 1.48-1.289 0-2.125-.836-2.535-1.48-.308-.504-.308-.598-.308-1.004zm18.183 1.265c0-1.289 0-2.246-1.047-3.18-.84-.765-1.914-1.097-2.965-1.097-1.961 0-3.464 1.289-3.464 2.844 0 .691.453 1.027 1.003 1.027.575 0 .981-.406.981-.98 0-.98-.863-.98-1.219-.98.551-1.005 1.695-1.434 2.653-1.434 1.097 0 2.507.91 2.507 3.058v.957c-4.804.07-6.617 2.078-6.617 3.918 0 1.89 2.195 2.484 3.656 2.484 1.575 0 2.653-.953 3.106-2.101.094 1.125.836 1.984 1.863 1.984.5 0 1.887-.336 1.887-2.246v-1.34h-.524v1.34c0 1.364-.574 1.551-.91 1.551-.91 0-.91-1.266-.91-1.625zm-1.551 3.012c0 2.34-1.742 3.129-2.773 3.129-1.168 0-2.149-.86-2.149-2.008 0-3.152 4.063-3.441 4.922-3.488zm11.868-6.738c0-.434 0-.551-.239-.551-.191 0-.644.523-.812.738-.742-.594-1.481-.738-2.246-.738-2.895 0-3.75 1.574-3.75 2.89 0 .262 0 1.098.906 1.934.766.672 1.574.84 2.676 1.055 1.316.262 1.625.332 2.222.812.43.36.743.883.743 1.551 0 1.028-.598 2.176-2.704 2.176-1.574 0-2.722-.906-3.25-3.297-.093-.43-.093-.453-.117-.477-.047-.097-.144-.097-.215-.097-.261 0-.261.12-.261.55v3.25c0 .43 0 .547.238.547.117 0 .141-.023.547-.523.121-.168.121-.215.48-.598.907 1.121 2.196 1.121 2.602 1.121 2.512 0 3.754-1.382 3.754-3.273 0-1.289-.789-2.055-1.004-2.27-.86-.738-1.504-.882-3.082-1.171-.719-.141-2.461-.477-2.461-1.91 0-.743.5-1.84 2.652-1.84 2.606 0 2.746 2.222 2.797 2.965.024.187.188.187.262.187.262 0 .262-.117.262-.547zm8.054 3.773c0-.023-.168-.215-.168-.238 0-.074 1.504-1.363 1.696-1.555 1.648-1.433 2.699-1.457 3.203-1.48v-.696c-.477.051-1.102.051-1.817.051-.621 0-1.84 0-2.39-.05v.695c.406.023.695.238.695.62 0 .477-.481.911-.504.911l-3.418 3.008v-11.516l-3.32.262v.691c1.625 0 1.816.168 1.816 1.34v12.52c0 1.078-.262 1.078-1.816 1.078v.691c.668-.047 1.816-.047 2.535-.047.715 0 1.863 0 2.531.047v-.691c-1.527 0-1.816 0-1.816-1.078v-2.532l1.527-1.335 2.297 3.296c.359.5.527.766.527 1.098 0 .43-.336.55-.84.55v.692c.598-.047 1.77-.047 2.415-.047 1.027 0 1.074 0 2.101.047v-.691c-.644 0-1.383 0-2.051-.98zm14.262.789c.523 0 .574 0 .574-.453 0-2.414-1.293-4.66-4.183-4.66-2.723 0-4.829 2.46-4.829 5.426 0 3.152 2.438 5.469 5.09 5.469 2.844 0 3.922-2.579 3.922-3.082 0-.145-.121-.239-.265-.239-.192 0-.239.121-.286.239-.621 2.007-2.222 2.558-3.226 2.558s-3.418-.672-3.418-4.805v-.453zm-6.598-.453c.192-3.754 2.297-4.184 2.965-4.184 2.555 0 2.699 3.372 2.723 4.184zm11.86-3.609h3.367v-.696h-3.367v-4.394h-.528c-.023 2.246-.883 4.539-3.058 4.613v.477h2.031v6.644c0 2.653 1.769 3.2 3.035 3.2 1.508 0 2.293-1.481 2.293-3.2v-1.363h-.523v1.313c0 1.722-.696 2.726-1.625 2.726-1.625 0-1.625-2.223-1.625-2.629zm-74.379-27.703c0-.43 0-.547-.239-.547-.191 0-.644.523-.812.738-.742-.598-1.481-.738-2.246-.738-2.891 0-3.75 1.574-3.75 2.89 0 .262 0 1.098.906 1.934.766.672 1.578.84 2.676 1.051 1.316.265 1.625.336 2.223.812.429.36.742.887.742 1.555 0 1.027-.598 2.176-2.699 2.176-1.579 0-2.723-.91-3.25-3.297-.098-.434-.098-.457-.122-.481-.046-.093-.144-.093-.214-.093-.262 0-.262.117-.262.546v3.25c0 .43 0 .551.238.551.117 0 .141-.023.551-.527.117-.164.117-.215.476-.594.907 1.121 2.2 1.121 2.606 1.121 2.508 0 3.75-1.386 3.75-3.273 0-1.289-.789-2.055-1.004-2.27-.859-.742-1.504-.883-3.082-1.172-.719-.14-2.461-.476-2.461-1.91 0-.742.5-1.84 2.652-1.84 2.606 0 2.747 2.223 2.797 2.961.024.192.192.192.262.192.262 0 .262-.117.262-.547zm4.207 5.785c1.125.738 2.078.738 2.344.738 2.148 0 3.75-1.625 3.75-3.465 0-.644-.192-1.551-.958-2.316.934-.957 2.055-.957 2.176-.957.098 0 .215 0 .313.051-.242.093-.36.332-.36.593 0 .336.239.625.621.625.192 0 .622-.121.622-.648 0-.43-.336-1.098-1.172-1.098-1.242 0-2.176.766-2.508 1.121-.719-.547-1.555-.859-2.461-.859-2.152 0-3.754 1.625-3.754 3.465 0 1.363.836 2.246 1.074 2.461-.285.359-.715 1.05-.715 1.984 0 1.387.836 1.984 1.028 2.106-1.102.308-2.199 1.168-2.199 2.41 0 1.648 2.246 3.011 5.187 3.011 2.844 0 5.207-1.265 5.207-3.058 0-.598-.168-2.008-1.601-2.746-1.219-.625-2.415-.625-4.469-.625-1.457 0-1.625 0-2.055-.453-.238-.239-.453-.692-.453-1.196 0-.406.144-.812.383-1.144m2.367.238c-2.106 0-2.106-2.414-2.106-2.965 0-.429 0-1.41.407-2.054a2.05 2.05 0 0 1 1.676-.93c2.101 0 2.101 2.414 2.101 2.961 0 .429 0 1.41-.406 2.054a2.03 2.03 0 0 1-1.672.934m.644 8.484c-2.292 0-4.039-1.171-4.039-2.535 0-.191.047-1.121.957-1.746.524-.332.739-.332 2.415-.332 1.98 0 4.679 0 4.679 2.078 0 1.41-1.812 2.535-4.012 2.535m16.813-9.511c0-3.082-2.34-5.543-5.113-5.543-2.867 0-5.137 2.531-5.137 5.543 0 3.058 2.387 5.351 5.113 5.351 2.821 0 5.137-2.34 5.137-5.351m-5.113 4.824c-.883 0-1.961-.379-2.653-1.551-.644-1.074-.668-2.484-.668-3.488 0-.91 0-2.367.739-3.442a3.06 3.06 0 0 1 2.558-1.41c.934 0 1.938.43 2.578 1.364.743 1.097.743 2.601.743 3.488 0 .836 0 2.316-.622 3.441-.667 1.145-1.765 1.598-2.675 1.598m16.48-5.516c0-2.226 0-2.894-.551-3.66-.695-.93-1.816-1.074-2.629-1.074-2.316 0-3.226 1.984-3.417 2.461h-.024v-2.461l-3.25.266v.691c1.625 0 1.816.168 1.816 1.34v6.472c0 1.075-.261 1.075-1.816 1.075v.695c.621-.047 1.914-.047 2.582-.047.692 0 1.984 0 2.606.047v-.695c-1.532 0-1.817 0-1.817-1.075v-4.445c0-2.508 1.649-3.848 3.129-3.848 1.484 0 1.816 1.219 1.816 2.68v5.613c0 1.075-.261 1.075-1.816 1.075v.695c.621-.047 1.914-.047 2.582-.047.692 0 1.981 0 2.606.047v-.695c-1.196 0-1.793 0-1.817-.715zm9.961-4.566c-.141 0-.379.023-.426.047-.047.023-.097.023-.429.023h-2.797v-2.699c0-2.438 2.078-3.344 3.488-3.344.238 0 1.387.024 2.102.836-1.004 0-1.075.738-1.075 1.004 0 .691.575 1 .981 1 .43 0 1.004-.285 1.004-1.027 0-1.215-1.125-2.293-2.965-2.293-2.176 0-4.992 1.195-4.992 3.777v2.746h-1.864v.696h1.864v7.835c0 1.075-.266 1.075-1.817 1.075v.695c.668-.047 1.84-.047 2.559-.047.715 0 1.91 0 2.578.047v-.695c-1.527 0-1.816 0-1.816-1.075v-7.835h3.75c1.101 0 1.246.308 1.246 1.289v6.546c0 1.075-.266 1.075-1.817 1.075v.695c.668-.047 1.84-.047 2.559-.047.715 0 1.91 0 2.578.047v-.695c-1.527 0-1.816 0-1.816-1.075v-8.793zm16.473 5.258c0-3.082-2.34-5.543-5.114-5.543-2.867 0-5.136 2.531-5.136 5.543 0 3.058 2.386 5.351 5.113 5.351 2.816 0 5.137-2.34 5.137-5.351m-5.114 4.824c-.886 0-1.96-.379-2.652-1.551-.648-1.074-.672-2.484-.672-3.488 0-.91 0-2.367.742-3.442a3.06 3.06 0 0 1 2.559-1.41c.93 0 1.934.43 2.578 1.364.742 1.097.742 2.601.742 3.488 0 .836 0 2.316-.621 3.441-.668 1.145-1.769 1.598-2.676 1.598m10.504.383c0-1.481-.5-2.414-1.433-2.414-.692 0-1.145.527-1.145 1.148 0 .649.453 1.172 1.168 1.172.36 0 .621-.168.766-.289.07-.07.098-.07.121-.07.047 0 .047.336.047.453 0 1.531-.621 2.965-1.672 4.062-.098.075-.121.121-.121.219 0 .117.121.238.238.238.215 0 2.031-1.769 2.031-4.519m-61.367-32.961c0-2.321.953-4.492 2.793-4.492.192 0 .238 0 .336.023-.191.094-.574.238-.574.883 0 .695.551.957.933.957.477 0 .958-.313.958-.957 0-.715-.649-1.387-1.676-1.387-2.032 0-2.723 2.199-2.867 2.652h-.024v-2.652l-3.203.266v.691c1.625 0 1.816.168 1.816 1.34v6.473c0 1.078-.261 1.078-1.816 1.078v.691c.672-.047 1.984-.047 2.699-.047.649 0 2.344 0 2.895.047v-.691h-.481c-1.742 0-1.789-.266-1.789-1.125zm16.078.453c0-3.082-2.343-5.543-5.117-5.543-2.863 0-5.137 2.531-5.137 5.543 0 3.059 2.391 5.351 5.114 5.351 2.82 0 5.14-2.339 5.14-5.351m-5.117 4.824c-.883 0-1.957-.379-2.652-1.551-.645-1.074-.668-2.484-.668-3.488 0-.91 0-2.367.738-3.441a3.07 3.07 0 0 1 2.559-1.41c.933 0 1.937.429 2.582 1.363.742 1.097.742 2.605.742 3.488 0 .836 0 2.316-.621 3.441-.668 1.149-1.77 1.598-2.68 1.598m13.684-9.816c0-.434 0-.551-.239-.551-.191 0-.644.523-.812.738-.742-.594-1.481-.738-2.246-.738-2.891 0-3.75 1.574-3.75 2.891 0 .261 0 1.097.906 1.933.766.672 1.578.84 2.676 1.055 1.316.262 1.625.332 2.223.812.429.36.742.883.742 1.551 0 1.027-.598 2.176-2.699 2.176-1.579 0-2.723-.906-3.25-3.297-.098-.43-.098-.453-.122-.477-.046-.097-.144-.097-.214-.097-.262 0-.262.121-.262.551v3.25c0 .429 0 .546.238.546.117 0 .141-.023.551-.527.117-.164.117-.211.476-.594.907 1.121 2.2 1.121 2.606 1.121 2.508 0 3.75-1.382 3.75-3.273 0-1.289-.789-2.055-1.004-2.269-.859-.739-1.504-.883-3.082-1.172-.719-.141-2.461-.477-2.461-1.911 0-.742.5-1.839 2.652-1.839 2.606 0 2.747 2.222 2.797 2.964.024.192.192.192.262.192.262 0 .262-.121.262-.551zm9.203 0c0-.434 0-.551-.242-.551-.192 0-.645.523-.813.738-.738-.594-1.48-.738-2.246-.738-2.891 0-3.75 1.574-3.75 2.891 0 .261 0 1.097.906 1.933.766.672 1.578.84 2.676 1.055 1.317.262 1.625.332 2.223.812.429.36.742.883.742 1.551 0 1.027-.598 2.176-2.699 2.176-1.578 0-2.723-.906-3.25-3.297-.098-.43-.098-.453-.121-.477-.047-.097-.145-.097-.215-.097-.262 0-.262.121-.262.551v3.25c0 .429 0 .546.238.546.121 0 .145-.023.551-.527.117-.164.117-.211.477-.594.91 1.121 2.199 1.121 2.605 1.121 2.508 0 3.75-1.382 3.75-3.273 0-1.289-.789-2.055-1.004-2.269-.859-.739-1.504-.883-3.082-1.172-.715-.141-2.461-.477-2.461-1.911 0-.742.504-1.839 2.653-1.839 2.605 0 2.75 2.222 2.797 2.964.023.192.191.192.261.192.266 0 .266-.121.266-.551zm12.43 4.992c0-3.082-2.344-5.543-5.114-5.543-2.867 0-5.14 2.531-5.14 5.543 0 3.059 2.39 5.351 5.117 5.351 2.816 0 5.137-2.339 5.137-5.351m-5.114 4.824c-.886 0-1.961-.379-2.652-1.551-.649-1.074-.672-2.484-.672-3.488 0-.91 0-2.367.742-3.441a3.06 3.06 0 0 1 2.559-1.41c.93 0 1.933.429 2.578 1.363.742 1.097.742 2.605.742 3.488 0 .836 0 2.316-.621 3.441-.668 1.149-1.769 1.598-2.676 1.598m10.504.387c0-1.485-.504-2.414-1.433-2.414-.696 0-1.149.523-1.149 1.148 0 .645.453 1.168 1.172 1.168.359 0 .621-.168.766-.289.07-.066.093-.066.117-.066.047 0 .047.332.047.453 0 1.527-.617 2.961-1.672 4.062-.094.071-.117.118-.117.215 0 .117.117.238.238.238.215 0 2.031-1.769 2.031-4.515m141.719 99.578c5.355 0 5.355 4.973 5.355 7.266 0 2.152 0 7.218-5.164 7.218-1.004 0-4.16-.14-6.453-1.765 2.055-.43 2.77-1.914 2.77-3.348 0-1.96-1.383-3.348-3.344-3.348-2.012 0-3.395 1.387-3.395 3.395 0 4.398 4.782 6.98 10.661 6.98 7.886 0 11.664-4.351 11.664-9.132 0-2.34-1.196-6.883-8.606-8.172 4.207-1.293 7.125-4.258 7.125-8.035 0-3.582-3.441-6.598-10.086-6.598-5.355 0-9.277 2.82-9.277 6.695 0 2.39 1.863 3.157 3.105 3.157 1.387 0 3.063-.91 3.063-3.11 0-1.101-.477-2.726-2.727-3.059 2.008-1.96 5.258-1.96 5.547-1.96 4.254 0 4.254 3.3 4.254 4.734s-.191 3.633-1.719 5.594c-1.246 1.625-2.488 1.718-4.304 1.816-.575.047-1.528.094-1.719.191-.289.141-.289.477-.289.669 0 .812.289.812 1.242.812zm-36.711-61.496v.691c1.625 0 1.816.168 1.816 1.34v5.281c-.5-.691-1.527-1.53-2.988-1.53-2.769 0-5.16 2.343-5.16 5.401 0 3.036 2.269 5.376 4.898 5.376 1.817 0 2.868-1.196 3.204-1.649v1.648l3.367-.238v-.691c-1.625 0-1.813-.168-1.813-1.34v-14.55zm1.77 13.527c0 .43 0 .5-.336 1.024-.571.84-1.551 1.53-2.747 1.53-.621 0-3.203-.237-3.203-4.874 0-1.719.286-2.676.813-3.465.476-.742 1.433-1.48 2.629-1.48 1.48 0 2.316 1.074 2.554 1.457.29.406.29.453.29.883zm13.285-3.586c0-1.289 0-2.246-1.051-3.18-.836-.765-1.91-1.097-2.961-1.097-1.961 0-3.469 1.289-3.469 2.844 0 .691.457 1.027 1.004 1.027.574 0 .981-.406.981-.98 0-.98-.86-.98-1.219-.98.551-1.005 1.699-1.434 2.652-1.434 1.102 0 2.512.91 2.512 3.058v.957c-4.805.07-6.621 2.078-6.621 3.918 0 1.89 2.199 2.484 3.656 2.484 1.578 0 2.652-.953 3.106-2.101.097 1.125.835 1.984 1.867 1.984.5 0 1.886-.336 1.886-2.246v-1.34h-.527v1.34c0 1.364-.57 1.551-.906 1.551-.91 0-.91-1.266-.91-1.625zm-1.551 3.012c0 2.34-1.746 3.129-2.774 3.129-1.171 0-2.152-.86-2.152-2.008 0-3.152 4.067-3.441 4.926-3.488zm20.476-5.472c-.285 0-1.168 0-1.168.976 0 .574.407.98.981.98.547 0 1.004-.332 1.004-1.027 0-1.602-1.676-2.746-3.61-2.746-2.796 0-5.019 2.484-5.019 5.496 0 3.059 2.293 5.398 4.996 5.398 3.152 0 3.871-2.867 3.871-3.081 0-.215-.168-.215-.238-.215-.219 0-.242.07-.313.359-.523 1.695-1.816 2.414-3.105 2.414-1.457 0-3.395-1.266-3.395-4.898 0-3.97 2.032-4.95 3.227-4.95.906 0 2.223.36 2.769 1.293m10.973 2.461c0-1.289 0-2.246-1.047-3.18-.84-.765-1.914-1.097-2.965-1.097-1.961 0-3.464 1.289-3.464 2.844 0 .691.453 1.027 1.003 1.027.575 0 .981-.406.981-.98 0-.98-.863-.98-1.219-.98.551-1.005 1.695-1.434 2.653-1.434 1.097 0 2.507.91 2.507 3.058v.957c-4.804.07-6.617 2.078-6.617 3.918 0 1.89 2.195 2.484 3.656 2.484 1.575 0 2.653-.953 3.106-2.101.094 1.125.836 1.984 1.863 1.984.5 0 1.887-.336 1.887-2.246v-1.34h-.524v1.34c0 1.364-.574 1.551-.91 1.551-.91 0-.91-1.266-.91-1.625zm-1.551 3.012c0 2.34-1.742 3.129-2.773 3.129-1.168 0-2.149-.86-2.149-2.008 0-3.152 4.063-3.441 4.922-3.488zm8.141-13.215-3.32.262v.691c1.625 0 1.812.168 1.812 1.34v12.52c0 1.078-.262 1.078-1.812 1.078v.691c.668-.047 1.836-.047 2.554-.047.719 0 1.914 0 2.582.047v-.691c-1.531 0-1.816 0-1.816-1.078zm11.039 7.743c-.285 0-1.172 0-1.172.976 0 .574.406.98.981.98.55 0 1.004-.332 1.004-1.027 0-1.602-1.672-2.746-3.61-2.746-2.793 0-5.015 2.484-5.015 5.496 0 3.059 2.292 5.398 4.992 5.398 3.156 0 3.871-2.867 3.871-3.081 0-.215-.168-.215-.238-.215-.215 0-.239.07-.309.359-.527 1.695-1.816 2.414-3.109 2.414-1.457 0-3.391-1.266-3.391-4.898 0-3.97 2.031-4.95 3.223-4.95.91 0 2.226.36 2.773 1.293m5.906-5.879c0-.62-.5-1.171-1.168-1.171a1.15 1.15 0 0 0-1.148 1.148 1.15 1.15 0 0 0 1.148 1.168c.739 0 1.168-.621 1.168-1.144m-3.297 4.446v.691c1.532 0 1.746.145 1.746 1.313v6.5c0 1.078-.261 1.078-1.816 1.078v.691c.668-.047 1.816-.047 2.508-.047.266 0 1.648 0 2.461.047v-.691c-1.551 0-1.649-.121-1.649-1.051v-8.797zm16.61 5.159c0-3.082-2.34-5.543-5.114-5.543-2.867 0-5.136 2.531-5.136 5.543 0 3.058 2.386 5.352 5.113 5.352 2.816 0 5.137-2.34 5.137-5.352m-5.114 4.828c-.886 0-1.96-.383-2.652-1.555-.648-1.074-.672-2.484-.672-3.488 0-.91 0-2.367.742-3.441a3.06 3.06 0 0 1 2.559-1.41c.93 0 1.934.43 2.578 1.363.742 1.098.742 2.605.742 3.488 0 .836 0 2.317-.621 3.442-.668 1.148-1.769 1.601-2.676 1.601m-69.617-37.023c0-.43 0-.547-.242-.547-.187 0-.641.523-.808.738-.743-.598-1.485-.738-2.247-.738-2.894 0-3.753 1.574-3.753 2.89 0 .262 0 1.098.91 1.934.761.672 1.574.84 2.675 1.051 1.317.265 1.625.336 2.223.812.43.36.738.887.738 1.555 0 1.027-.593 2.176-2.699 2.176-1.574 0-2.722-.91-3.25-3.297-.094-.434-.094-.457-.117-.481-.051-.093-.145-.093-.215-.093-.265 0-.265.117-.265.546v3.25c0 .43 0 .551.242.551.117 0 .14-.023.547-.527.121-.164.121-.215.476-.594.91 1.121 2.199 1.121 2.606 1.121 2.511 0 3.754-1.386 3.754-3.273 0-1.289-.79-2.055-1.004-2.27-.86-.742-1.504-.883-3.082-1.172-.719-.14-2.461-.476-2.461-1.91 0-.742.5-1.84 2.652-1.84 2.605 0 2.746 2.223 2.797 2.961.019.192.187.192.262.192.261 0 .261-.117.261-.547zm4.207 5.785c1.121.738 2.078.738 2.34.738 2.153 0 3.754-1.625 3.754-3.465 0-.644-.191-1.551-.957-2.316.934-.957 2.055-.957 2.176-.957.094 0 .215 0 .308.051-.238.093-.359.332-.359.593 0 .336.238.625.621.625.192 0 .625-.121.625-.648 0-.43-.336-1.098-1.172-1.098-1.242 0-2.176.766-2.511 1.121-.715-.547-1.551-.859-2.461-.859-2.149 0-3.75 1.625-3.75 3.465 0 1.363.836 2.246 1.074 2.461-.285.359-.719 1.05-.719 1.984 0 1.387.84 1.984 1.031 2.106-1.101.308-2.199 1.168-2.199 2.41 0 1.648 2.246 3.011 5.184 3.011 2.843 0 5.211-1.265 5.211-3.058 0-.598-.168-2.008-1.602-2.746-1.219-.625-2.414-.625-4.469-.625-1.457 0-1.625 0-2.054-.453-.239-.239-.453-.692-.453-1.196 0-.406.14-.812.382-1.144m2.364.238c-2.102 0-2.102-2.414-2.102-2.965 0-.429 0-1.41.406-2.054a2.04 2.04 0 0 1 1.672-.93c2.106 0 2.106 2.414 2.106 2.961 0 .429 0 1.41-.407 2.054a2.04 2.04 0 0 1-1.675.934m.644 8.484c-2.293 0-4.039-1.171-4.039-2.535 0-.191.051-1.121.957-1.746.527-.332.742-.332 2.414-.332 1.985 0 4.684 0 4.684 2.078 0 1.41-1.817 2.535-4.016 2.535m16.817-9.511c0-3.082-2.344-5.543-5.114-5.543-2.867 0-5.14 2.531-5.14 5.543 0 3.058 2.39 5.351 5.117 5.351 2.816 0 5.137-2.34 5.137-5.351m-5.114 4.824c-.886 0-1.961-.379-2.652-1.551-.649-1.074-.672-2.484-.672-3.488 0-.91 0-2.367.742-3.442a3.06 3.06 0 0 1 2.559-1.41c.93 0 1.933.43 2.578 1.364.742 1.097.742 2.601.742 3.488 0 .836 0 2.316-.621 3.441-.668 1.145-1.769 1.598-2.676 1.598m16.477-5.516c0-2.226 0-2.894-.547-3.66-.695-.93-1.816-1.074-2.629-1.074-2.32 0-3.227 1.984-3.418 2.461h-.023v-2.461l-3.25.266v.691c1.625 0 1.816.168 1.816 1.34v6.472c0 1.075-.262 1.075-1.816 1.075v.695c.621-.047 1.91-.047 2.578-.047.695 0 1.984 0 2.605.047v-.695c-1.527 0-1.816 0-1.816-1.075v-4.445c0-2.508 1.648-3.848 3.133-3.848 1.48 0 1.816 1.219 1.816 2.68v5.613c0 1.075-.266 1.075-1.816 1.075v.695c.621-.047 1.91-.047 2.578-.047.695 0 1.984 0 2.605.047v-.695c-1.195 0-1.793 0-1.816-.715zm9.965-4.566c-.141 0-.379.023-.43.047-.047.023-.094.023-.43.023h-2.797v-2.699c0-2.438 2.082-3.344 3.489-3.344.242 0 1.386.024 2.105.836-1.004 0-1.074.738-1.074 1.004 0 .691.57 1 .977 1 .429 0 1.003-.285 1.003-1.027 0-1.215-1.121-2.293-2.961-2.293-2.175 0-4.996 1.195-4.996 3.777v2.746h-1.863v.696h1.863v7.835c0 1.075-.261 1.075-1.816 1.075v.695c.672-.047 1.84-.047 2.559-.047.714 0 1.91 0 2.578.047v-.695c-1.528 0-1.813 0-1.813-1.075v-7.835h3.75c1.102 0 1.242.308 1.242 1.289v6.546c0 1.075-.261 1.075-1.816 1.075v.695c.672-.047 1.84-.047 2.559-.047.714 0 1.91 0 2.578.047v-.695c-1.528 0-1.813 0-1.813-1.075v-8.793zm16.472 5.258c0-3.082-2.343-5.543-5.117-5.543-2.863 0-5.137 2.531-5.137 5.543 0 3.058 2.391 5.351 5.114 5.351 2.82 0 5.14-2.34 5.14-5.351m-5.117 4.824c-.883 0-1.957-.379-2.652-1.551-.645-1.074-.668-2.484-.668-3.488 0-.91 0-2.367.738-3.442a3.07 3.07 0 0 1 2.559-1.41c.933 0 1.937.43 2.582 1.364.742 1.097.742 2.601.742 3.488 0 .836 0 2.316-.621 3.441-.668 1.145-1.77 1.598-2.68 1.598m10.508.383c0-1.481-.504-2.414-1.434-2.414-.695 0-1.148.527-1.148 1.148 0 .649.453 1.172 1.172 1.172.355 0 .621-.168.762-.289.074-.07.097-.07.121-.07.046 0 .046.336.046.453 0 1.531-.621 2.965-1.671 4.062-.094.075-.121.121-.121.219 0 .117.121.238.242.238.215 0 2.031-1.769 2.031-4.519m-61.371-32.961c0-2.321.957-4.492 2.797-4.492.191 0 .238 0 .336.023-.192.094-.575.238-.575.883 0 .695.547.957.93.957.481 0 .957-.313.957-.957 0-.715-.644-1.387-1.672-1.387-2.031 0-2.722 2.199-2.867 2.652h-.023v-2.652l-3.203.266v.691c1.625 0 1.816.168 1.816 1.34v6.473c0 1.078-.266 1.078-1.816 1.078v.691c.668-.047 1.984-.047 2.699-.047.644 0 2.344 0 2.89.047v-.691h-.476c-1.742 0-1.793-.266-1.793-1.125zm16.078.453c0-3.082-2.34-5.543-5.113-5.543-2.867 0-5.137 2.531-5.137 5.543 0 3.059 2.387 5.351 5.113 5.351 2.821 0 5.137-2.339 5.137-5.351m-5.113 4.824c-.883 0-1.961-.379-2.653-1.551-.644-1.074-.668-2.484-.668-3.488 0-.91 0-2.367.739-3.441a3.06 3.06 0 0 1 2.558-1.41c.934 0 1.938.429 2.578 1.363.743 1.097.743 2.605.743 3.488 0 .836 0 2.316-.622 3.441-.667 1.149-1.765 1.598-2.675 1.598m13.683-9.816c0-.434 0-.551-.242-.551-.187 0-.641.523-.808.738-.743-.594-1.485-.738-2.247-.738-2.894 0-3.753 1.574-3.753 2.891 0 .261 0 1.097.91 1.933.761.672 1.574.84 2.675 1.055 1.317.262 1.625.332 2.223.812.43.36.738.883.738 1.551 0 1.027-.593 2.176-2.699 2.176-1.574 0-2.722-.906-3.25-3.297-.094-.43-.094-.453-.117-.477-.051-.097-.145-.097-.215-.097-.265 0-.265.121-.265.551v3.25c0 .429 0 .546.242.546.117 0 .14-.023.547-.527.121-.164.121-.211.476-.594.91 1.121 2.199 1.121 2.606 1.121 2.511 0 3.754-1.382 3.754-3.273 0-1.289-.79-2.055-1.004-2.269-.86-.739-1.504-.883-3.082-1.172-.719-.141-2.461-.477-2.461-1.911 0-.742.5-1.839 2.652-1.839 2.605 0 2.746 2.222 2.797 2.964.019.192.187.192.262.192.261 0 .261-.121.261-.551zm9.2 0c0-.434 0-.551-.239-.551-.191 0-.644.523-.812.738-.742-.594-1.481-.738-2.246-.738-2.895 0-3.75 1.574-3.75 2.891 0 .261 0 1.097.906 1.933.766.672 1.574.84 2.676 1.055 1.316.262 1.625.332 2.222.812.43.36.743.883.743 1.551 0 1.027-.598 2.176-2.704 2.176-1.574 0-2.722-.906-3.25-3.297-.093-.43-.093-.453-.117-.477-.047-.097-.144-.097-.215-.097-.261 0-.261.121-.261.551v3.25c0 .429 0 .546.238.546.117 0 .141-.023.547-.527.121-.164.121-.211.48-.594.907 1.121 2.196 1.121 2.602 1.121 2.512 0 3.754-1.382 3.754-3.273 0-1.289-.789-2.055-1.004-2.269-.86-.739-1.504-.883-3.082-1.172-.719-.141-2.461-.477-2.461-1.911 0-.742.5-1.839 2.652-1.839 2.606 0 2.746 2.222 2.797 2.964.024.192.188.192.262.192.262 0 .262-.121.262-.551zm12.429 4.992c0-3.082-2.34-5.543-5.113-5.543-2.867 0-5.137 2.531-5.137 5.543 0 3.059 2.391 5.351 5.113 5.351 2.821 0 5.137-2.339 5.137-5.351m-5.113 4.824c-.883 0-1.957-.379-2.652-1.551-.645-1.074-.668-2.484-.668-3.488 0-.91 0-2.367.738-3.441a3.07 3.07 0 0 1 2.558-1.41c.934 0 1.938.429 2.583 1.363.742 1.097.742 2.605.742 3.488 0 .836 0 2.316-.625 3.441-.668 1.149-1.766 1.598-2.676 1.598m10.504.387c0-1.485-.5-2.414-1.43-2.414-.695 0-1.148.523-1.148 1.148 0 .645.453 1.168 1.172 1.168.355 0 .621-.168.761-.289.075-.066.098-.066.121-.066.047 0 .047.332.047.453 0 1.527-.621 2.961-1.672 4.062-.093.071-.121.118-.121.215 0 .117.121.238.239.238.218 0 2.031-1.769 2.031-4.515M586.703-22.805h4.637v-2.058h-4.637v-20.508c0-1.195-.051-1.387-1.246-1.387-.859 0-.953 0-1.527.719l-16.446 21.176v2.058h13.575v5.45h-5.211v2.054c1.386-.094 6.121-.094 7.84-.094 1.625 0 6.359 0 7.652.094v-2.054h-4.637zm-5.211-17.261v15.203H569.68zM537.77-92.621v.691c1.625 0 1.816.168 1.816 1.34v5.281c-.504-.691-1.531-1.53-2.988-1.53-2.77 0-5.16 2.343-5.16 5.401 0 3.036 2.269 5.376 4.898 5.376 1.816 0 2.867-1.196 3.203-1.649v1.648l3.367-.238v-.691c-1.625 0-1.816-.168-1.816-1.34v-14.55zm1.769 13.527c0 .43 0 .5-.336 1.024-.574.84-1.555 1.53-2.75 1.53-.621 0-3.199-.237-3.199-4.874 0-1.719.285-2.676.812-3.465.477-.742 1.43-1.48 2.629-1.48 1.481 0 2.317 1.074 2.555 1.457.289.406.289.453.289.883zm13.285-3.586c0-1.289 0-2.246-1.051-3.18-.835-.765-1.914-1.097-2.964-1.097-1.957 0-3.465 1.289-3.465 2.844 0 .691.453 1.027 1.004 1.027.574 0 .98-.406.98-.98 0-.98-.859-.98-1.219-.98.551-1.005 1.696-1.434 2.653-1.434 1.097 0 2.508.91 2.508 3.058v.957c-4.801.07-6.618 2.078-6.618 3.918 0 1.89 2.2 2.484 3.657 2.484 1.574 0 2.652-.953 3.105-2.101.094 1.125.836 1.984 1.863 1.984.504 0 1.891-.336 1.891-2.246v-1.34h-.527v1.34c0 1.364-.575 1.551-.907 1.551-.91 0-.91-1.266-.91-1.625zm-1.554 3.012c0 2.34-1.743 3.129-2.774 3.129-1.168 0-2.148-.86-2.148-2.008 0-3.152 4.062-3.441 4.922-3.488zm15.82-13.215-3.32.262v.691c1.625 0 1.816.168 1.816 1.34v14.29h.523c.098-.192.766-1.388.864-1.552.547.883 1.574 1.79 3.105 1.79 2.75 0 5.16-2.317 5.16-5.399 0-3.035-2.246-5.379-4.898-5.379-1.313 0-2.438.598-3.25 1.602zm.051 8.938c0-.43 0-.48.261-.864.575-.859 1.625-1.55 2.793-1.55.719 0 3.227.285 3.227 4.875 0 1.601-.238 2.601-.813 3.465-.476.738-1.433 1.48-2.625 1.48-1.293 0-2.129-.836-2.535-1.48-.308-.504-.308-.598-.308-1.004zm18.183 1.265c0-1.289 0-2.246-1.051-3.18-.835-.765-1.914-1.097-2.964-1.097-1.957 0-3.465 1.289-3.465 2.844 0 .691.453 1.027 1.004 1.027.574 0 .98-.406.98-.98 0-.98-.859-.98-1.219-.98.551-1.005 1.696-1.434 2.653-1.434 1.097 0 2.508.91 2.508 3.058v.957c-4.801.07-6.618 2.078-6.618 3.918 0 1.89 2.2 2.484 3.657 2.484 1.574 0 2.652-.953 3.105-2.101.094 1.125.836 1.984 1.863 1.984.504 0 1.891-.336 1.891-2.246v-1.34h-.527v1.34c0 1.364-.575 1.551-.907 1.551-.91 0-.91-1.266-.91-1.625zm-1.554 3.012c0 2.34-1.743 3.129-2.774 3.129-1.168 0-2.148-.86-2.148-2.008 0-3.152 4.062-3.441 4.922-3.488zm11.867-6.738c0-.434 0-.551-.239-.551-.191 0-.644.523-.812.738-.742-.594-1.481-.738-2.246-.738-2.891 0-3.75 1.574-3.75 2.89 0 .262 0 1.098.906 1.934.766.672 1.578.84 2.676 1.055 1.316.262 1.625.332 2.223.812.429.36.742.883.742 1.551 0 1.028-.598 2.176-2.699 2.176-1.579 0-2.723-.906-3.25-3.297-.098-.43-.098-.453-.122-.477-.046-.097-.144-.097-.214-.097-.262 0-.262.12-.262.55v3.25c0 .43 0 .547.238.547.117 0 .141-.023.551-.523.117-.168.117-.215.476-.598.907 1.121 2.2 1.121 2.606 1.121 2.508 0 3.75-1.382 3.75-3.273 0-1.289-.789-2.055-1.004-2.27-.859-.738-1.504-.882-3.082-1.171-.719-.141-2.461-.477-2.461-1.91 0-.743.504-1.84 2.652-1.84 2.606 0 2.747 2.222 2.797 2.965.024.187.192.187.262.187.262 0 .262-.117.262-.547zm8.054 3.773c0-.023-.168-.215-.168-.238 0-.074 1.508-1.363 1.696-1.555 1.648-1.433 2.703-1.457 3.203-1.48v-.696c-.477.051-1.098.051-1.817.051-.621 0-1.839 0-2.386-.05v.695c.402.023.691.238.691.62 0 .477-.48.911-.504.911l-3.414 3.008v-11.516l-3.324.262v.691c1.625 0 1.816.168 1.816 1.34v12.52c0 1.078-.261 1.078-1.816 1.078v.691c.672-.047 1.816-.047 2.535-.047.715 0 1.863 0 2.531.047v-.691c-1.527 0-1.816 0-1.816-1.078v-2.532l1.531-1.335 2.293 3.296c.36.5.528.766.528 1.098 0 .43-.336.55-.84.55v.692c.601-.047 1.769-.047 2.414-.047 1.027 0 1.078 0 2.105.047v-.691c-.644 0-1.386 0-2.054-.98zm14.262.789c.524 0 .574 0 .574-.453 0-2.414-1.293-4.66-4.183-4.66-2.723 0-4.828 2.46-4.828 5.426 0 3.152 2.437 5.469 5.089 5.469 2.844 0 3.922-2.579 3.922-3.082 0-.145-.121-.239-.265-.239-.192 0-.239.121-.285.239-.622 2.007-2.223 2.558-3.227 2.558s-3.418-.672-3.418-4.805v-.453zm-6.598-.453c.192-3.754 2.297-4.184 2.965-4.184 2.559 0 2.7 3.372 2.723 4.184zm11.86-3.609h3.371v-.696h-3.371v-4.394h-.527c-.02 2.246-.883 4.539-3.059 4.613v.477h2.031v6.644c0 2.653 1.77 3.2 3.035 3.2 1.508 0 2.297-1.481 2.297-3.2v-1.363h-.527v1.313c0 1.722-.692 2.726-1.625 2.726-1.625 0-1.625-2.223-1.625-2.629zm-74.77-21.918c1.121.738 2.078.738 2.34.738 2.153 0 3.754-1.625 3.754-3.465 0-.644-.191-1.551-.957-2.316.934-.957 2.055-.957 2.176-.957.094 0 .215 0 .308.051-.238.093-.359.332-.359.593 0 .336.238.625.621.625.192 0 .625-.121.625-.648 0-.43-.336-1.098-1.172-1.098-1.242 0-2.176.766-2.511 1.121-.715-.547-1.551-.859-2.461-.859-2.149 0-3.75 1.625-3.75 3.465 0 1.363.836 2.246 1.074 2.461-.285.359-.715 1.05-.715 1.984 0 1.387.836 1.984 1.027 2.106-1.101.308-2.199 1.168-2.199 2.41 0 1.648 2.246 3.011 5.184 3.011 2.843 0 5.211-1.265 5.211-3.058 0-.598-.168-2.008-1.602-2.746-1.219-.625-2.414-.625-4.469-.625-1.457 0-1.625 0-2.054-.453-.239-.239-.453-.692-.453-1.196 0-.406.14-.812.382-1.144m2.364.238c-2.102 0-2.102-2.414-2.102-2.965 0-.429 0-1.41.406-2.054a2.04 2.04 0 0 1 1.672-.93c2.106 0 2.106 2.414 2.106 2.961 0 .429 0 1.41-.407 2.054a2.04 2.04 0 0 1-1.675.934m.644 8.484c-2.293 0-4.035-1.171-4.035-2.535 0-.191.047-1.121.953-1.746.527-.332.742-.332 2.414-.332 1.985 0 4.684 0 4.684 2.078 0 1.41-1.817 2.535-4.016 2.535m16.817-9.511c0-3.082-2.344-5.543-5.114-5.543-2.867 0-5.14 2.531-5.14 5.543 0 3.058 2.39 5.351 5.117 5.351 2.816 0 5.137-2.34 5.137-5.351m-5.114 4.824c-.886 0-1.961-.379-2.652-1.551-.649-1.074-.672-2.484-.672-3.488 0-.91 0-2.367.742-3.442a3.06 3.06 0 0 1 2.559-1.41c.93 0 1.933.43 2.578 1.364.742 1.097.742 2.601.742 3.488 0 .836 0 2.316-.621 3.441-.668 1.145-1.769 1.598-2.676 1.598m16.477-5.516c0-2.226 0-2.894-.547-3.66-.695-.93-1.816-1.074-2.629-1.074-2.32 0-3.227 1.984-3.418 2.461h-.023v-2.461l-3.25.266v.691c1.625 0 1.816.168 1.816 1.34v6.472c0 1.075-.262 1.075-1.816 1.075v.695c.621-.047 1.91-.047 2.578-.047.695 0 1.984 0 2.605.047v-.695c-1.527 0-1.816 0-1.816-1.075v-4.445c0-2.508 1.648-3.848 3.133-3.848 1.48 0 1.816 1.219 1.816 2.68v5.613c0 1.075-.266 1.075-1.816 1.075v.695c.621-.047 1.91-.047 2.578-.047.695 0 1.984 0 2.605.047v-.695c-1.195 0-1.793 0-1.816-.715zm9.965-4.566c-.141 0-.379.023-.43.047-.047.023-.094.023-.43.023h-2.797v-2.699c0-2.438 2.082-3.344 3.489-3.344.242 0 1.386.024 2.105.836-1.004 0-1.074.738-1.074 1.004 0 .691.57 1 .977 1 .429 0 1.003-.285 1.003-1.027 0-1.215-1.121-2.293-2.961-2.293-2.175 0-4.996 1.195-4.996 3.777v2.746h-1.863v.696h1.863v7.835c0 1.075-.261 1.075-1.816 1.075v.695c.672-.047 1.84-.047 2.559-.047.714 0 1.91 0 2.578.047v-.695c-1.528 0-1.813 0-1.813-1.075v-7.835h3.75c1.102 0 1.242.308 1.242 1.289v6.546c0 1.075-.261 1.075-1.816 1.075v.695c.672-.047 1.84-.047 2.559-.047.714 0 1.91 0 2.578.047v-.695c-1.528 0-1.813 0-1.813-1.075v-8.793zm16.371 5.258c0-3.082-2.34-5.543-5.114-5.543-2.867 0-5.136 2.531-5.136 5.543 0 3.058 2.386 5.351 5.113 5.351 2.816 0 5.137-2.34 5.137-5.351m-5.114 4.824c-.886 0-1.96-.379-2.652-1.551-.648-1.074-.672-2.484-.672-3.488 0-.91 0-2.367.742-3.442a3.06 3.06 0 0 1 2.559-1.41c.93 0 1.934.43 2.578 1.364.742 1.097.742 2.601.742 3.488 0 .836 0 2.316-.621 3.441-.668 1.145-1.769 1.598-2.676 1.598m10.504.383c0-1.481-.5-2.414-1.433-2.414-.692 0-1.145.527-1.145 1.148 0 .649.453 1.172 1.168 1.172.36 0 .621-.168.766-.289.07-.07.098-.07.121-.07.047 0 .047.336.047.453 0 1.531-.621 2.965-1.672 4.062-.098.075-.121.121-.121.219 0 .117.121.238.238.238.215 0 2.031-1.769 2.031-4.519m-52.711-35.422c.219-.527.625-1.555 2.153-1.578v-.696c-.692.051-1.028.051-1.77.051-.5 0-.859 0-1.957-.051v.696c1.004.047 1.121.765 1.121 1.027 0 .215-.047.336-.168.621l-2.437 6.164-2.676-6.738c-.117-.332-.141-.332-.141-.453 0-.621.907-.621 1.336-.621v-.696c-.597.051-1.839.051-2.484.051-.789 0-.836 0-2.297-.051v.696c1.34 0 1.578.093 1.867.836l3.414 8.554c.121.336.168.453.457.453.168 0 .313-.046.477-.453zm11.106 2.484c.523 0 .574 0 .574-.453 0-2.414-1.293-4.66-4.183-4.66-2.723 0-4.829 2.461-4.829 5.426 0 3.152 2.438 5.468 5.09 5.468 2.844 0 3.922-2.578 3.922-3.082 0-.144-.121-.238-.265-.238-.192 0-.239.121-.286.238-.621 2.008-2.222 2.555-3.226 2.555s-3.418-.668-3.418-4.801v-.453zm-6.598-.453c.192-3.754 2.297-4.183 2.965-4.183 2.555 0 2.699 3.371 2.723 4.183zm11.836.43c0-2.321.953-4.492 2.793-4.492.192 0 .238 0 .336.023-.191.094-.574.238-.574.883 0 .695.551.957.933.957.477 0 .958-.313.958-.957 0-.715-.645-1.387-1.676-1.387-2.032 0-2.723 2.199-2.867 2.652h-.024v-2.652l-3.203.266v.691c1.625 0 1.816.168 1.816 1.34v6.473c0 1.078-.261 1.078-1.816 1.078v.691c.672-.047 1.984-.047 2.699-.047.649 0 2.344 0 2.895.047v-.691h-.481c-1.742 0-1.789-.266-1.789-1.125zm12.278-10.754v.691c1.625 0 1.816.168 1.816 1.34v5.281c-.504-.695-1.531-1.531-2.988-1.531-2.77 0-5.16 2.344-5.16 5.402 0 3.036 2.269 5.375 4.898 5.375 1.816 0 2.867-1.195 3.203-1.648v1.648l3.367-.238v-.691c-1.625 0-1.816-.168-1.816-1.34v-14.551zm1.769 13.527c0 .43 0 .5-.336 1.024-.574.84-1.555 1.531-2.75 1.531-.621 0-3.199-.238-3.199-4.875 0-1.719.285-2.676.812-3.465.477-.742 1.43-1.48 2.629-1.48 1.481 0 2.317 1.074 2.555 1.457.289.406.289.453.289.882zm13.215-2.75c.523 0 .574 0 .574-.453 0-2.414-1.293-4.66-4.183-4.66-2.723 0-4.829 2.461-4.829 5.426 0 3.152 2.438 5.468 5.09 5.468 2.844 0 3.922-2.578 3.922-3.082 0-.144-.121-.238-.265-.238-.192 0-.239.121-.286.238-.621 2.008-2.222 2.555-3.226 2.555s-3.418-.668-3.418-4.801v-.453zm-6.598-.453c.192-3.754 2.297-4.183 2.965-4.183 2.555 0 2.699 3.371 2.723 4.183zm12.504 6.094c0-1.485-.504-2.414-1.433-2.414-.696 0-1.149.523-1.149 1.148 0 .645.453 1.168 1.172 1.168.359 0 .621-.168.766-.289.07-.066.093-.066.117-.066.047 0 .047.332.047.453 0 1.527-.617 2.961-1.672 4.062-.094.071-.117.118-.117.215 0 .117.117.238.238.238.215 0 2.031-1.769 2.031-4.515m134.805 90.59c1.625.383 2.914.383 3.629.383 1.148 0 3.875 0 7.078-1.961 1.48-.907 3.969-3.059 3.969-4.16 0-.239 0-.813-.575-.813-.046 0-.144 0-.621.242-2.199.762-4.543 1.29-7.218 1.29-2.727 0-5.02-.528-7.27-1.34-.336-.094-.477-.192-.617-.192-.574 0-.574.48-.574 1.293v13.91c0 .91 0 1.438.953 1.438.476 0 .574-.051.957-.528.574-.668 2.293-2.773 6.359-2.773 4.399 0 4.399 4.496 4.399 8.27 0 3.445 0 8.413-5.883 8.413-1.77 0-4.778-.668-6.406-3.39 2.535 0 3.156-1.914 3.156-2.965 0-1.723-1.242-3.012-3.012-3.012-1.434 0-3.012.86-3.012 3.106 0 4.16 3.778 8.175 9.465 8.175 7.363 0 12-4.253 12-10.183 0-5.832-3.969-9.992-10.515-9.992-1.914 0-4.207.383-6.262 1.914zm-35.598-52.508v.691c1.625 0 1.821.168 1.821 1.34v5.281c-.504-.691-1.532-1.53-2.989-1.53-2.773 0-5.164 2.343-5.164 5.401 0 3.036 2.27 5.376 4.903 5.376 1.816 0 2.867-1.196 3.199-1.649v1.648l3.371-.238v-.691c-1.625 0-1.817-.168-1.817-1.34v-14.55zm1.77 13.527c0 .43 0 .5-.332 1.024-.575.84-1.555 1.53-2.75 1.53-.621 0-3.203-.237-3.203-4.874 0-1.719.289-2.676.816-3.465.473-.742 1.43-1.48 2.625-1.48 1.48 0 2.316 1.074 2.559 1.457.285.406.285.453.285.883zm13.285-3.586c0-1.289 0-2.246-1.051-3.18-.836-.765-1.91-1.097-2.961-1.097-1.961 0-3.465 1.289-3.465 2.844 0 .691.453 1.027 1.004 1.027.574 0 .981-.406.981-.98 0-.98-.864-.98-1.219-.98.547-1.005 1.695-1.434 2.648-1.434 1.102 0 2.512.91 2.512 3.058v.957c-4.805.07-6.617 2.078-6.617 3.918 0 1.89 2.195 2.484 3.652 2.484 1.578 0 2.657-.953 3.11-2.101.093 1.125.836 1.984 1.863 1.984.5 0 1.887-.336 1.887-2.246v-1.34h-.524v1.34c0 1.364-.574 1.551-.91 1.551-.91 0-.91-1.266-.91-1.625zm-1.551 3.012c0 2.34-1.742 3.129-2.773 3.129-1.168 0-2.149-.86-2.149-2.008 0-3.152 4.063-3.441 4.922-3.488zm15.82-13.215-3.324.262v.691c1.625 0 1.821.168 1.821 1.34v14.29h.523c.094-.192.766-1.388.859-1.552.551.883 1.578 1.79 3.11 1.79 2.746 0 5.16-2.317 5.16-5.399 0-3.035-2.246-5.379-4.899-5.379-1.312 0-2.437.598-3.25 1.602zm.047 8.938c0-.43 0-.48.266-.864.57-.859 1.625-1.55 2.793-1.55.719 0 3.226.285 3.226 4.875 0 1.601-.238 2.601-.812 3.465-.477.738-1.434 1.48-2.629 1.48-1.289 0-2.129-.836-2.535-1.48-.309-.504-.309-.598-.309-1.004zm18.184 1.265c0-1.289 0-2.246-1.051-3.18-.836-.765-1.91-1.097-2.961-1.097-1.961 0-3.465 1.289-3.465 2.844 0 .691.453 1.027 1.004 1.027.574 0 .981-.406.981-.98 0-.98-.864-.98-1.219-.98.547-1.005 1.695-1.434 2.648-1.434 1.102 0 2.512.91 2.512 3.058v.957c-4.805.07-6.617 2.078-6.617 3.918 0 1.89 2.195 2.484 3.652 2.484 1.578 0 2.657-.953 3.11-2.101.093 1.125.836 1.984 1.863 1.984.5 0 1.887-.336 1.887-2.246v-1.34h-.524v1.34c0 1.364-.574 1.551-.91 1.551-.91 0-.91-1.266-.91-1.625zm-1.551 3.012c0 2.34-1.742 3.129-2.773 3.129-1.168 0-2.149-.86-2.149-2.008 0-3.152 4.063-3.441 4.922-3.488zm11.867-6.738c0-.434 0-.551-.242-.551-.187 0-.641.523-.808.738-.743-.594-1.485-.738-2.247-.738-2.894 0-3.753 1.574-3.753 2.89 0 .262 0 1.098.91 1.934.761.672 1.574.84 2.675 1.055 1.317.262 1.625.332 2.223.812.43.36.738.883.738 1.551 0 1.028-.593 2.176-2.699 2.176-1.574 0-2.722-.906-3.25-3.297-.094-.43-.094-.453-.117-.477-.051-.097-.145-.097-.215-.097-.265 0-.265.12-.265.55v3.25c0 .43 0 .547.242.547.117 0 .14-.023.547-.523.121-.168.121-.215.476-.598.91 1.121 2.199 1.121 2.606 1.121 2.511 0 3.754-1.382 3.754-3.273 0-1.289-.79-2.055-1.004-2.27-.86-.738-1.504-.882-3.082-1.171-.719-.141-2.461-.477-2.461-1.91 0-.743.5-1.84 2.652-1.84 2.605 0 2.746 2.222 2.797 2.965.019.187.187.187.262.187.261 0 .261-.117.261-.547zm8.055 3.773c0-.023-.172-.215-.172-.238 0-.074 1.508-1.363 1.699-1.555 1.649-1.433 2.7-1.457 3.203-1.48v-.696c-.476.051-1.101.051-1.816.051-.621 0-1.84 0-2.391-.05v.695c.407.023.692.238.692.62 0 .477-.477.911-.5.911l-3.418 3.008v-11.516l-3.32.262v.691c1.625 0 1.816.168 1.816 1.34v12.52c0 1.078-.266 1.078-1.816 1.078v.691c.668-.047 1.816-.047 2.531-.047.719 0 1.867 0 2.535.047v-.691c-1.531 0-1.816 0-1.816-1.078v-2.532l1.527-1.335 2.297 3.296c.359.5.523.766.523 1.098 0 .43-.332.55-.836.55v.692c.598-.047 1.77-.047 2.414-.047 1.028 0 1.075 0 2.102.047v-.691c-.645 0-1.383 0-2.055-.98zm14.262.789c.523 0 .574 0 .574-.453 0-2.414-1.293-4.66-4.184-4.66-2.726 0-4.828 2.46-4.828 5.426 0 3.152 2.438 5.469 5.09 5.469 2.844 0 3.922-2.579 3.922-3.082 0-.145-.121-.239-.266-.239-.191 0-.242.121-.285.239-.625 2.007-2.223 2.558-3.226 2.558s-3.418-.672-3.418-4.805v-.453zm-6.598-.453c.191-3.754 2.297-4.184 2.965-4.184 2.555 0 2.699 3.372 2.723 4.184zm11.856-3.609h3.371v-.696h-3.371v-4.394h-.524c-.023 2.246-.883 4.539-3.059 4.613v.477h2.032v6.644c0 2.653 1.769 3.2 3.035 3.2 1.504 0 2.293-1.481 2.293-3.2v-1.363h-.527v1.313c0 1.722-.692 2.726-1.625 2.726-1.625 0-1.625-2.223-1.625-2.629zm-74.77-21.918c1.125.738 2.078.738 2.344.738 2.148 0 3.75-1.625 3.75-3.465 0-.644-.192-1.551-.957-2.316.933-.957 2.054-.957 2.175-.957.098 0 .215 0 .313.051-.238.093-.359.332-.359.593 0 .336.238.625.621.625.191 0 .621-.121.621-.648 0-.43-.336-1.098-1.172-1.098-1.242 0-2.176.766-2.508 1.121-.715-.547-1.555-.859-2.461-.859-2.152 0-3.754 1.625-3.754 3.465 0 1.363.836 2.246 1.078 2.461-.289.359-.718 1.05-.718 1.984 0 1.387.836 1.984 1.027 2.106-1.098.308-2.199 1.168-2.199 2.41 0 1.648 2.25 3.011 5.187 3.011 2.844 0 5.211-1.265 5.211-3.058 0-.598-.168-2.008-1.601-2.746-1.219-.625-2.414-.625-4.469-.625-1.457 0-1.625 0-2.055-.453-.238-.239-.457-.692-.457-1.196 0-.406.145-.812.383-1.144m2.367.238c-2.105 0-2.105-2.414-2.105-2.965 0-.429 0-1.41.41-2.054a2.03 2.03 0 0 1 1.672-.93c2.101 0 2.101 2.414 2.101 2.961 0 .429 0 1.41-.406 2.054a2.03 2.03 0 0 1-1.672.934m.645 8.484c-2.293 0-4.039-1.171-4.039-2.535 0-.191.047-1.121.957-1.746.523-.332.742-.332 2.414-.332 1.98 0 4.683 0 4.683 2.078 0 1.41-1.816 2.535-4.015 2.535m16.812-9.511c0-3.082-2.34-5.543-5.113-5.543-2.867 0-5.137 2.531-5.137 5.543 0 3.058 2.391 5.351 5.113 5.351 2.821 0 5.137-2.34 5.137-5.351m-5.113 4.824c-.883 0-1.957-.379-2.652-1.551-.645-1.074-.668-2.484-.668-3.488 0-.91 0-2.367.738-3.442a3.07 3.07 0 0 1 2.558-1.41c.934 0 1.938.43 2.583 1.364.742 1.097.742 2.601.742 3.488 0 .836 0 2.316-.625 3.441-.668 1.145-1.766 1.598-2.676 1.598m16.48-5.516c0-2.226 0-2.894-.55-3.66-.692-.93-1.817-1.074-2.629-1.074-2.317 0-3.227 1.984-3.414 2.461h-.028v-2.461l-3.25.266v.691c1.625 0 1.817.168 1.817 1.34v6.472c0 1.075-.262 1.075-1.817 1.075v.695c.621-.047 1.914-.047 2.582-.047.696 0 1.985 0 2.606.047v-.695c-1.531 0-1.817 0-1.817-1.075v-4.445c0-2.508 1.649-3.848 3.129-3.848 1.485 0 1.817 1.219 1.817 2.68v5.613c0 1.075-.262 1.075-1.817 1.075v.695c.621-.047 1.914-.047 2.582-.047.696 0 1.985 0 2.606.047v-.695c-1.196 0-1.793 0-1.817-.715zm9.965-4.566c-.144 0-.383.023-.429.047-.047.023-.098.023-.43.023h-2.797v-2.699c0-2.438 2.078-3.344 3.488-3.344.239 0 1.387.024 2.102.836-1 0-1.074.738-1.074 1.004 0 .691.574 1 .98 1 .43 0 1.004-.285 1.004-1.027 0-1.215-1.121-2.293-2.965-2.293-2.172 0-4.992 1.195-4.992 3.777v2.746h-1.863v.696h1.863v7.835c0 1.075-.266 1.075-1.816 1.075v.695c.668-.047 1.839-.047 2.558-.047.715 0 1.91 0 2.578.047v-.695c-1.527 0-1.816 0-1.816-1.075v-7.835h3.754c1.097 0 1.242.308 1.242 1.289v6.546c0 1.075-.266 1.075-1.816 1.075v.695c.668-.047 1.839-.047 2.558-.047.715 0 1.91 0 2.578.047v-.695c-1.527 0-1.816 0-1.816-1.075v-8.793zm16.371 5.258c0-3.082-2.343-5.543-5.117-5.543-2.863 0-5.137 2.531-5.137 5.543 0 3.058 2.391 5.351 5.114 5.351 2.82 0 5.14-2.34 5.14-5.351m-5.117 4.824c-.883 0-1.957-.379-2.652-1.551-.645-1.074-.668-2.484-.668-3.488 0-.91 0-2.367.738-3.442a3.07 3.07 0 0 1 2.559-1.41c.933 0 1.937.43 2.582 1.364.742 1.097.742 2.601.742 3.488 0 .836 0 2.316-.621 3.441-.668 1.145-1.77 1.598-2.68 1.598m10.508.383c0-1.481-.504-2.414-1.434-2.414-.695 0-1.148.527-1.148 1.148 0 .649.453 1.172 1.172 1.172.355 0 .621-.168.762-.289.074-.07.097-.07.121-.07.046 0 .046.336.046.453 0 1.531-.621 2.965-1.671 4.062-.094.075-.121.121-.121.219 0 .117.121.238.242.238.215 0 2.031-1.769 2.031-4.519m-56.668-32.961c0-2.321.953-4.492 2.793-4.492.191 0 .238 0 .336.023-.192.094-.574.238-.574.883 0 .695.55.957.933.957.477 0 .953-.313.953-.957 0-.715-.644-1.387-1.671-1.387-2.032 0-2.723 2.199-2.868 2.652h-.023v-2.652l-3.203.266v.691c1.625 0 1.816.168 1.816 1.34v6.473c0 1.078-.262 1.078-1.816 1.078v.691c.668-.047 1.984-.047 2.699-.047.645 0 2.344 0 2.895.047v-.691h-.481c-1.742 0-1.789-.266-1.789-1.125zm16.074.453c0-3.082-2.34-5.543-5.113-5.543-2.867 0-5.137 2.531-5.137 5.543 0 3.059 2.391 5.351 5.113 5.351 2.821 0 5.137-2.339 5.137-5.351m-5.113 4.824c-.883 0-1.957-.379-2.652-1.551-.645-1.074-.668-2.484-.668-3.488 0-.91 0-2.367.738-3.441a3.07 3.07 0 0 1 2.558-1.41c.934 0 1.938.429 2.583 1.363.742 1.097.742 2.605.742 3.488 0 .836 0 2.316-.625 3.441-.668 1.149-1.766 1.598-2.676 1.598m13.684-9.816c0-.434 0-.551-.239-.551-.191 0-.644.523-.812.738-.742-.594-1.481-.738-2.246-.738-2.895 0-3.75 1.574-3.75 2.891 0 .261 0 1.097.906 1.933.766.672 1.574.84 2.676 1.055 1.316.262 1.625.332 2.222.812.43.36.743.883.743 1.551 0 1.027-.598 2.176-2.704 2.176-1.574 0-2.722-.906-3.25-3.297-.093-.43-.093-.453-.117-.477-.047-.097-.144-.097-.215-.097-.261 0-.261.121-.261.551v3.25c0 .429 0 .546.238.546.117 0 .141-.023.547-.527.121-.164.121-.211.48-.594.907 1.121 2.196 1.121 2.602 1.121 2.512 0 3.754-1.382 3.754-3.273 0-1.289-.789-2.055-1.004-2.269-.86-.739-1.504-.883-3.082-1.172-.719-.141-2.461-.477-2.461-1.911 0-.742.5-1.839 2.652-1.839 2.606 0 2.746 2.222 2.797 2.964.024.192.188.192.262.192.262 0 .262-.121.262-.551zm9.199 0c0-.434 0-.551-.239-.551-.191 0-.644.523-.812.738-.742-.594-1.481-.738-2.246-.738-2.891 0-3.75 1.574-3.75 2.891 0 .261 0 1.097.906 1.933.766.672 1.578.84 2.676 1.055 1.316.262 1.625.332 2.223.812.429.36.742.883.742 1.551 0 1.027-.598 2.176-2.699 2.176-1.579 0-2.723-.906-3.25-3.297-.098-.43-.098-.453-.122-.477-.046-.097-.144-.097-.214-.097-.262 0-.262.121-.262.551v3.25c0 .429 0 .546.238.546.117 0 .141-.023.551-.527.117-.164.117-.211.476-.594.907 1.121 2.2 1.121 2.606 1.121 2.508 0 3.75-1.382 3.75-3.273 0-1.289-.789-2.055-1.004-2.269-.859-.739-1.504-.883-3.082-1.172-.719-.141-2.461-.477-2.461-1.911 0-.742.504-1.839 2.652-1.839 2.606 0 2.747 2.222 2.797 2.964.024.192.192.192.262.192.262 0 .262-.121.262-.551zm12.433 4.992c0-3.082-2.343-5.543-5.117-5.543-2.863 0-5.137 2.531-5.137 5.543 0 3.059 2.391 5.351 5.114 5.351 2.82 0 5.14-2.339 5.14-5.351m-5.117 4.824c-.883 0-1.957-.379-2.652-1.551-.645-1.074-.668-2.484-.668-3.488 0-.91 0-2.367.738-3.441a3.07 3.07 0 0 1 2.559-1.41c.933 0 1.937.429 2.582 1.363.742 1.097.742 2.605.742 3.488 0 .836 0 2.316-.621 3.441-.668 1.149-1.77 1.598-2.68 1.598m10.508.387c0-1.485-.504-2.414-1.434-2.414-.695 0-1.148.523-1.148 1.148 0 .645.453 1.168 1.172 1.168.355 0 .621-.168.762-.289.074-.066.097-.066.121-.066.046 0 .046.332.046.453 0 1.527-.621 2.961-1.671 4.062-.094.071-.121.118-.121.215 0 .117.121.238.242.238.215 0 2.031-1.769 2.031-4.515"/></g></svg>