<svg xmlns="http://www.w3.org/2000/svg" width="229pt" height="188pt" viewBox="0 -188 229 188"><g id="page1"><path fill="none" stroke="#000" stroke-linecap="round" stroke-linejoin="round" stroke-width="2" d="M1-16.105v-170.079h226.77v170.079z"/><path fill="#0000bf" d="M23.676-16.105H69.03v-45.141H23.676Z"/><path fill="none" stroke="#000" stroke-linecap="round" stroke-linejoin="round" stroke-width="2" d="M23.676-16.105v-45.141H69.03v45.14z"/><path fill="#0000bf" d="M91.707-16.105h45.356v-9.141H91.707Z"/><path fill="none" stroke="#000" stroke-linecap="round" stroke-linejoin="round" stroke-width="2" d="M91.707-16.105v-9.141h45.356v9.14z"/><path fill="#0000bf" d="M159.738-16.105h45.356v-148.219h-45.356Z"/><path fill="none" stroke="#000" stroke-linecap="round" stroke-linejoin="round" stroke-width="2" d="M159.738-16.105v-148.219h45.356v148.219z"/><path d="M86.59-168.043c-1.149 0-1.363 0-1.363-.809v-3.117c.324.449 1.058 1.149 2.203 1.149 2.062 0 3.87-1.739 3.87-4.051 0-2.274-1.683-4.027-3.636-4.027a3.16 3.16 0 0 0-2.473 1.199v-1.199l-2.488.195v.519c1.254 0 1.36.125 1.36.914v8.418c0 .809-.196.809-1.36.809v.52c.465-.04 1.43-.04 1.934-.04.52 0 1.488 0 1.953.04zm-1.363-8.672c0-.34 0-.359.199-.644a2.58 2.58 0 0 1 2.093-1.149c1.344 0 2.418 1.629 2.418 3.637 0 2.133-1.218 3.691-2.593 3.691a2.12 2.12 0 0 1-1.438-.574c-.41-.41-.68-.769-.68-1.269zm9.663 1.543c0-1.742.72-3.371 2.098-3.371.145 0 .18 0 .25.02-.144.07-.43.179-.43.664 0 .515.41.714.7.714.36 0 .715-.234.715-.714 0-.539-.48-1.039-1.254-1.039-1.524 0-2.04 1.644-2.149 1.984h-.02v-1.984l-2.398.195v.519c1.22 0 1.36.125 1.36 1.004v4.856c0 .804-.196.804-1.36.804v.52c.5-.035 1.489-.035 2.024-.035.484 0 1.754 0 2.168.035v-.52h-.36c-1.304 0-1.343-.199-1.343-.839zm7.028-6.863a.88.88 0 0 0-.879-.879.86.86 0 0 0-.859.859c0 .539.429.879.859.879a.874.874 0 0 0 .879-.859m-2.473 3.332v.519c1.149 0 1.309.106 1.309.985v4.875c0 .804-.199.804-1.363.804v.52c.5-.035 1.363-.035 1.882-.035.196 0 1.235 0 1.844.035v-.52c-1.164 0-1.234-.089-1.234-.789v-6.589zm17.102 3.351c0-1.668 0-2.168-.414-2.742-.52-.699-1.36-.804-1.969-.804-1.488 0-2.242 1.074-2.527 1.769-.25-1.379-1.219-1.769-2.348-1.769-1.738 0-2.418 1.484-2.562 1.843h-.016v-1.843l-2.438.195v.519c1.219 0 1.36.125 1.36 1.004v4.856c0 .804-.195.804-1.36.804v.52c.465-.035 1.434-.035 1.934-.035.52 0 1.488 0 1.953.035v-.52c-1.144 0-1.359 0-1.359-.804v-3.332c0-1.883 1.234-2.887 2.344-2.887 1.113 0 1.363.914 1.363 2.008v4.211c0 .804-.195.804-1.363.804v.52c.468-.035 1.433-.035 1.937-.035.52 0 1.484 0 1.953.035v-.52c-1.148 0-1.363 0-1.363-.804v-3.332c0-1.883 1.234-2.887 2.348-2.887 1.109 0 1.359.914 1.359 2.008v4.211c0 .804-.195.804-1.359.804v.52c.464-.035 1.433-.035 1.933-.035.52 0 1.488 0 1.953.035v-.52c-.894 0-1.343 0-1.359-.535zm8.668-.429c0-.969 0-1.688-.789-2.383-.625-.574-1.434-.828-2.223-.828-1.469 0-2.594.969-2.594 2.133 0 .519.34.769.75.769.43 0 .735-.301.735-.73 0-.735-.645-.735-.914-.735.414-.754 1.273-1.078 1.992-1.078.82 0 1.879.68 1.879 2.293v.719c-3.602.051-4.961 1.558-4.961 2.937 0 1.414 1.644 1.864 2.738 1.864 1.184 0 1.988-.719 2.328-1.578.074.843.629 1.488 1.399 1.488.375 0 1.414-.25 1.414-1.684v-1.004h-.391v1.004c0 1.02-.43 1.164-.683 1.164-.68 0-.68-.949-.68-1.218zm-1.164 2.254c0 1.757-1.309 2.347-2.078 2.347-.879 0-1.614-.644-1.614-1.504 0-2.363 3.047-2.582 3.692-2.617zm6.043-1.645c0-1.742.715-3.371 2.094-3.371.144 0 .179 0 .25.02-.141.07-.43.179-.43.664 0 .515.414.714.699.714.359 0 .715-.234.715-.714 0-.539-.481-1.039-1.25-1.039-1.524 0-2.043 1.644-2.152 1.984h-.016v-1.984l-2.402.195v.519c1.218 0 1.363.125 1.363 1.004v4.856c0 .804-.199.804-1.363.804v.52c.5-.035 1.488-.035 2.027-.035.48 0 1.754 0 2.164.035v-.52h-.355c-1.309 0-1.344-.199-1.344-.839zm6.922-6.863a.877.877 0 0 0-.875-.879.857.857 0 0 0-.86.859c0 .539.43.879.86.879a.87.87 0 0 0 .875-.859m-2.469 3.332v.519c1.144 0 1.305.106 1.305.985v4.875c0 .804-.196.804-1.36.804v.52c.5-.035 1.36-.035 1.879-.035.199 0 1.238 0 1.848.035v-.52c-1.164 0-1.239-.089-1.239-.789v-6.589zm11.113 3.547c.395 0 .43 0 .43-.34 0-1.809-.969-3.496-3.133-3.496-2.043 0-3.617 1.847-3.617 4.07 0 2.363 1.824 4.102 3.812 4.102 2.133 0 2.938-1.938 2.938-2.313 0-.105-.086-.18-.195-.18-.141 0-.18.09-.215.18-.465 1.504-1.668 1.918-2.418 1.918-.754 0-2.563-.504-2.563-3.601v-.34zm-4.941-.34c.14-2.813 1.719-3.137 2.219-3.137 1.917 0 2.027 2.528 2.042 3.137zM39.668-78.062c0-.34 0-.43-.25-.43-.145 0-.2 0-.34.215l-5.394 8.367v.52h4.71v1.628c0 .664-.035.844-1.343.844h-.356v.52c.41-.04 1.825-.04 2.328-.04.5 0 1.934 0 2.344.04v-.52h-.355c-1.293 0-1.344-.18-1.344-.844v-1.629h1.809v-.52h-1.809zm-1.184 1.398v6.754h-4.351zm10.071 5.051c0 4.226-1.88 5.105-2.953 5.105-.43 0-1.38-.055-1.829-.68h.11c.125.036.77-.07.77-.734 0-.394-.27-.734-.735-.734s-.754.304-.754.77c0 1.109.898 1.863 2.453 1.863 2.242 0 4.41-2.383 4.41-6.27 0-4.82-2.008-6.02-3.586-6.02-1.968 0-3.707 1.649-3.707 4.012s1.664 3.977 3.457 3.977c1.325 0 2.008-.965 2.364-1.88zm-2.29.933c-1.132 0-1.613-.914-1.773-1.257-.289-.68-.289-1.54-.289-2.344 0-1.004 0-1.863.465-2.598.324-.484.809-1.004 1.773-1.004 1.024 0 1.543.895 1.723 1.309.355.875.355 2.398.355 2.668 0 1.504-.68 3.226-2.253 3.226m10.902-7.382c0-.34 0-.43-.25-.43-.145 0-.2 0-.34.215l-5.394 8.367v.52h4.71v1.628c0 .664-.035.844-1.343.844h-.356v.52c.41-.04 1.825-.04 2.328-.04.5 0 1.934 0 2.344.04v-.52h-.355c-1.293 0-1.344-.18-1.344-.844v-1.629h1.809v-.52h-1.809zm-1.184 1.398v6.754h-4.351zM30.523-5.922c-.14 0-.585 0-.585.492a.47.47 0 0 0 .492.489c.273 0 .5-.168.5-.512 0-.8-.836-1.375-1.801-1.375-1.399 0-2.512 1.242-2.512 2.746 0 1.531 1.149 2.7 2.5 2.7 1.574 0 1.934-1.43 1.934-1.54s-.082-.11-.121-.11c-.106 0-.117.04-.153.18-.261.852-.91 1.207-1.554 1.207-.73 0-1.696-.632-1.696-2.449 0-1.984 1.016-2.472 1.614-2.472.453 0 1.109.18 1.382.644m6.36 1.867c0-1.543-1.168-2.773-2.555-2.773-1.434 0-2.57 1.266-2.57 2.773 0 1.528 1.195 2.672 2.558 2.672 1.41 0 2.567-1.168 2.567-2.672m-2.555 2.41c-.441 0-.98-.19-1.328-.777-.32-.535-.332-1.242-.332-1.742 0-.453 0-1.184.371-1.719.332-.515.86-.707 1.277-.707.465 0 .965.215 1.29.68.37.55.37 1.305.37 1.746 0 .418 0 1.156-.312 1.719a1.55 1.55 0 0 1-1.336.8m4.867-2.64c0-1.156.477-2.246 1.399-2.246.093 0 .117 0 .168.011-.098.051-.29.122-.29.442 0 .348.278.48.465.48.243 0 .481-.156.481-.48 0-.356-.324-.692-.836-.692-1.016 0-1.363 1.098-1.434 1.329h-.011V-6.77l-1.602.133v.348c.813 0 .906.082.906.668v3.238c0 .535-.129.535-.906.535v.348c.332-.023.992-.023 1.348-.023.324 0 1.172 0 1.445.023v-.348h-.234c-.875 0-.899-.129-.899-.558zm4.602 0c0-1.156.476-2.246 1.398-2.246.094 0 .117 0 .164.011-.093.051-.285.122-.285.442 0 .348.274.48.465.48.238 0 .477-.156.477-.48 0-.356-.32-.692-.836-.692-1.016 0-1.36 1.098-1.434 1.329h-.012V-6.77l-1.601.133v.348c.812 0 .91.082.91.668v3.238c0 .535-.133.535-.91.535v.348c.336-.023.992-.023 1.351-.023.325 0 1.172 0 1.446.023v-.348h-.239c-.87 0-.894-.129-.894-.558zm7.18.012c.261 0 .285 0 .285-.227 0-1.207-.645-2.328-2.09-2.328-1.363 0-2.414 1.23-2.414 2.71 0 1.579 1.219 2.735 2.547 2.735 1.422 0 1.957-1.289 1.957-1.539 0-.07-.059-.117-.13-.117-.097 0-.12.059-.144.117-.308 1.004-1.113 1.277-1.613 1.277s-1.707-.332-1.707-2.402v-.226zM47.68-4.5c.093-1.875 1.144-2.09 1.48-2.09 1.278 0 1.352 1.684 1.363 2.09zm5.93-1.805h1.683v-.343h-1.684v-2.2h-.265c-.012 1.121-.442 2.27-1.528 2.305v.238h1.016v3.325c0 1.324.883 1.597 1.516 1.597.754 0 1.148-.738 1.148-1.597v-.684h-.262v.656c0 .863-.347 1.363-.812 1.363-.813 0-.813-1.109-.813-1.312zm4.5 0h1.683v-.343h-1.684v-2.2h-.265c-.012 1.121-.442 2.27-1.528 2.305v.238h1.016v3.325c0 1.324.883 1.597 1.516 1.597.754 0 1.148-.738 1.148-1.597v-.684h-.262v.656c0 .863-.347 1.363-.812 1.363-.813 0-.813-1.109-.813-1.312zm7.203 1.614c0-.645 0-1.122-.528-1.59a2.2 2.2 0 0 0-1.48-.547c-.98 0-1.735.644-1.735 1.422 0 .343.23.511.504.511a.47.47 0 0 0 .489-.488c0-.492-.43-.492-.61-.492.277-.5.852-.715 1.328-.715.547 0 1.254.453 1.254 1.527v.481c-2.402.035-3.308 1.039-3.308 1.957 0 .945 1.097 1.242 1.828 1.242.789 0 1.324-.476 1.554-1.047.047.559.414.989.93.989.25 0 .945-.168.945-1.121v-.672h-.265v.672c0 .68-.285.773-.453.773-.454 0-.454-.633-.454-.813zm-.778 1.507c0 1.168-.87 1.567-1.387 1.567-.586 0-1.074-.434-1.074-1.008 0-1.574 2.032-1.719 2.461-1.742zm41.824-38.699c0-.414 0-.43-.355-.43-.434.485-1.328 1.145-3.176 1.145v.52c.414 0 1.309 0 2.293-.465v9.332c0 .648-.051.863-1.629.863h-.554v.52c.484-.04 2.222-.04 2.812-.04.594 0 2.313 0 2.797.04v-.52h-.559c-1.574 0-1.629-.215-1.629-.863zm11.668 5.75c0-1.488-.089-2.937-.738-4.3-.734-1.485-2.023-1.88-2.898-1.88-1.039 0-2.313.52-2.977 2.008-.5 1.125-.68 2.239-.68 4.172 0 1.739.125 3.047.77 4.317.699 1.363 1.934 1.793 2.867 1.793 1.559 0 2.453-.93 2.973-1.97.648-1.343.683-3.1.683-4.14m-3.656 5.75c-.574 0-1.738-.32-2.078-2.273-.199-1.078-.199-2.438-.199-3.692 0-1.468 0-2.793.289-3.851.305-1.2 1.219-1.754 1.988-1.754.68 0 1.719.41 2.059 1.953.234 1.02.234 2.434.234 3.652 0 1.2 0 2.563-.195 3.653-.34 1.972-1.473 2.312-2.098 2.312m12.457-5.75c0-1.488-.094-2.937-.738-4.3-.735-1.485-2.024-1.88-2.902-1.88-1.04 0-2.309.52-2.973 2.008-.5 1.125-.68 2.239-.68 4.172 0 1.739.125 3.047.77 4.317.699 1.363 1.933 1.793 2.867 1.793 1.558 0 2.453-.93 2.973-1.97.644-1.343.683-3.1.683-4.14m-3.656 5.75c-.574 0-1.738-.32-2.078-2.273-.199-1.078-.199-2.438-.199-3.692 0-1.468 0-2.793.289-3.851.304-1.2 1.218-1.754 1.988-1.754.68 0 1.719.41 2.058 1.953.235 1.02.235 2.434.235 3.652 0 1.2 0 2.563-.199 3.653-.34 1.972-1.469 2.312-2.094 2.312M104.773-5.516c.11-.261.313-.773 1.079-.789v-.343c-.348.023-.516.023-.887.023-.25 0-.43 0-.981-.023v.343c.504.024.563.383.563.516 0 .11-.024.168-.082.312l-1.219 3.079-1.34-3.368c-.058-.168-.07-.168-.07-.226 0-.313.453-.313.668-.313v-.343a22 22 0 0 1-1.242.023c-.395 0-.418 0-1.145-.023v.343c.668 0 .785.051.93.422l1.711 4.274c.058.168.082.226.226.226.082 0 .153-.023.239-.226zm4.961-1.121v.348c.813 0 .907.082.907.668v2.137c0 1.015-.539 1.867-1.434 1.867-.98 0-1.039-.563-1.039-1.195V-6.77l-1.684.133v.348c.907 0 .907.035.907 1.098v1.793c0 .738 0 1.171.355 1.562.289.313.777.453 1.387.453.207 0 .586 0 .996-.344.344-.273.535-.73.535-.73v1.074l1.66-.117v-.348c-.812 0-.906-.082-.906-.668V-6.77zm8.352 2.582c0-1.543-1.172-2.773-2.559-2.773-1.433 0-2.57 1.266-2.57 2.773 0 1.528 1.195 2.672 2.559 2.672 1.41 0 2.57-1.168 2.57-2.672m-2.559 2.41c-.441 0-.98-.19-1.324-.777-.324-.535-.336-1.242-.336-1.742 0-.453 0-1.184.371-1.719.332-.515.86-.707 1.278-.707.464 0 .968.215 1.289.68.371.55.371 1.305.371 1.746 0 .418 0 1.156-.309 1.719-.336.574-.887.8-1.34.8m4.879-4.66h1.688v-.343h-1.688v-2.2h-.261c-.012 1.121-.442 2.27-1.528 2.305v.238h1.016v3.325c0 1.324.883 1.597 1.515 1.597.754 0 1.149-.738 1.149-1.597v-.684h-.266v.656c0 .863-.343 1.363-.812 1.363-.813 0-.813-1.109-.813-1.312zm7.207 1.614c0-.645 0-1.122-.527-1.59a2.2 2.2 0 0 0-1.481-.547c-.98 0-1.734.644-1.734 1.422 0 .343.231.511.5.511a.47.47 0 0 0 .492-.488c0-.492-.429-.492-.609-.492.277-.5.848-.715 1.328-.715.547 0 1.254.453 1.254 1.527v.481c-2.402.035-3.313 1.039-3.313 1.957 0 .945 1.102 1.242 1.829 1.242a1.63 1.63 0 0 0 1.554-1.047c.047.559.418.989.934.989.25 0 .941-.168.941-1.121v-.672h-.261v.672c0 .68-.286.773-.454.773-.453 0-.453-.633-.453-.813zm-.777 1.507c0 1.168-.871 1.567-1.387 1.567-.586 0-1.078-.434-1.078-1.008 0-1.574 2.035-1.719 2.465-1.742z"/><path fill="#fff" d="M170.059-95.883c0-.414 0-.43-.356-.43-.43.485-1.328 1.145-3.172 1.145v.52c.41 0 1.309 0 2.293-.465v9.332c0 .648-.054.863-1.629.863h-.558v.52c.484-.04 2.222-.04 2.812-.04.594 0 2.313 0 2.797.04v-.52h-.558c-1.575 0-1.629-.215-1.629-.863zm5.746 5.25c0-4.535 2.203-5.25 3.172-5.25.64 0 1.289.195 1.628.735-.214 0-.894 0-.894.734 0 .395.266.734.734.734.446 0 .75-.27.75-.789 0-.93-.679-1.844-2.238-1.844-2.258 0-4.621 2.313-4.621 6.25 0 4.93 2.148 6.04 3.672 6.04 1.953 0 3.621-1.704 3.621-4.032 0-2.382-1.668-3.976-3.461-3.976-1.594 0-2.184 1.379-2.363 1.883zm2.203 6.125c-1.129 0-1.668-1.004-1.828-1.379-.16-.465-.34-1.344-.34-2.597 0-1.414.644-3.188 2.258-3.188.984 0 1.504.66 1.773 1.27.285.664.285 1.558.285 2.332 0 .91 0 1.718-.34 2.398-.449.86-1.093 1.164-1.808 1.164m12.273-2.902h-.39c-.055.304-.2 1.289-.379 1.578-.125.16-1.145.16-1.684.16h-3.312c.48-.414 1.574-1.559 2.039-1.988 2.726-2.508 3.726-3.442 3.726-5.215 0-2.059-1.629-3.437-3.707-3.437s-3.297 1.773-3.297 3.312c0 .914.789.914.844.914.375 0 .844-.27.844-.844 0-.5-.344-.84-.844-.84-.164 0-.199 0-.254.02.344-1.219 1.309-2.043 2.473-2.043 1.523 0 2.457 1.27 2.457 2.918 0 1.523-.879 2.852-1.899 3.996l-3.621 4.05v.43h6.539zm8.801 0h-.394c-.055.304-.196 1.289-.375 1.578-.125.16-1.149.16-1.684.16h-3.316c.484-.414 1.578-1.559 2.042-1.988 2.723-2.508 3.727-3.442 3.727-5.215 0-2.059-1.629-3.437-3.711-3.437-2.074 0-3.293 1.773-3.293 3.312 0 .914.789.914.844.914.375 0 .84-.27.84-.844 0-.5-.34-.84-.84-.84-.164 0-.199 0-.254.02.34-1.219 1.309-2.043 2.473-2.043 1.523 0 2.453 1.27 2.453 2.918 0 1.523-.875 2.852-1.899 3.996l-3.617 4.05v.43h6.539z"/><path d="M163.82-6.555c0-.215 0-.273-.121-.273-.094 0-.32.262-.406.371-.371-.3-.738-.371-1.121-.371-1.445 0-1.879.789-1.879 1.445 0 .133 0 .551.453.969.387.332.793.418 1.34.523.656.133.812.168 1.113.407a1 1 0 0 1 .371.777c0 .512-.3 1.09-1.351 1.09-.789 0-1.364-.457-1.625-1.653-.047-.214-.047-.226-.063-.238-.023-.047-.07-.047-.105-.047-.133 0-.133.059-.133.274v1.625c0 .215 0 .273.121.273.059 0 .07-.008.274-.262.058-.082.058-.105.242-.296.453.558 1.097.558 1.3.558 1.254 0 1.875-.691 1.875-1.633 0-.648-.394-1.03-.5-1.136-.433-.371-.753-.442-1.542-.586-.36-.07-1.231-.239-1.231-.957 0-.367.25-.918 1.324-.918 1.305 0 1.375 1.11 1.399 1.48.015.098.097.098.133.098.132 0 .132-.063.132-.277zm5.106.633c-.145 0-.586 0-.586.492a.47.47 0 0 0 .488.489c.277 0 .504-.168.504-.512 0-.8-.836-1.375-1.805-1.375-1.398 0-2.507 1.242-2.507 2.746 0 1.531 1.144 2.7 2.496 2.7 1.578 0 1.937-1.43 1.937-1.54s-.086-.11-.121-.11c-.109 0-.117.04-.156.18-.262.852-.906 1.207-1.555 1.207-.726 0-1.695-.632-1.695-2.449 0-1.984 1.015-2.472 1.613-2.472.453 0 1.109.18 1.387.644m6.359 1.867c0-1.543-1.172-2.773-2.558-2.773-1.434 0-2.571 1.266-2.571 2.773 0 1.528 1.196 2.672 2.559 2.672 1.41 0 2.57-1.168 2.57-2.672m-2.558 2.41c-.442 0-.981-.19-1.325-.777-.324-.535-.336-1.242-.336-1.742 0-.453 0-1.184.372-1.719a1.53 1.53 0 0 1 1.277-.707c.465 0 .969.215 1.293.68.371.55.371 1.305.371 1.746 0 .418 0 1.156-.313 1.719a1.56 1.56 0 0 1-1.339.8m4.867-2.64c0-1.156.48-2.246 1.398-2.246a.6.6 0 0 1 .168.011c-.094.051-.289.122-.289.442 0 .348.277.48.469.48.238 0 .476-.156.476-.48 0-.356-.32-.692-.836-.692-1.015 0-1.363 1.098-1.433 1.329h-.012V-6.77l-1.601.133v.348c.812 0 .91.082.91.668v3.238c0 .535-.133.535-.91.535v.348c.336-.023.992-.023 1.351-.023.324 0 1.172 0 1.445.023v-.348h-.238c-.875 0-.898-.129-.898-.558zm4.601 0c0-1.156.477-2.246 1.399-2.246.094 0 .121 0 .168.011-.098.051-.289.122-.289.442 0 .348.273.48.465.48.242 0 .48-.156.48-.48 0-.356-.324-.692-.836-.692-1.016 0-1.363 1.098-1.434 1.329h-.011V-6.77l-1.602.133v.348c.813 0 .906.082.906.668v3.238c0 .535-.128.535-.906.535v.348c.332-.023.992-.023 1.348-.023.324 0 1.172 0 1.445.023v-.348h-.234c-.875 0-.899-.129-.899-.558zm7.082.012c.262 0 .286 0 .286-.227 0-1.207-.645-2.328-2.09-2.328-1.364 0-2.414 1.23-2.414 2.71 0 1.579 1.218 2.735 2.543 2.735 1.421 0 1.961-1.289 1.961-1.539 0-.07-.059-.117-.133-.117-.094 0-.117.059-.141.117-.312 1.004-1.113 1.277-1.613 1.277-.504 0-1.707-.332-1.707-2.402v-.226zm-3.3-.227c.097-1.875 1.148-2.09 1.484-2.09 1.277 0 1.352 1.684 1.359 2.09zm5.929-1.805h1.688v-.343h-1.688v-2.2h-.261c-.012 1.121-.442 2.27-1.528 2.305v.238h1.016v3.325c0 1.324.883 1.597 1.515 1.597.754 0 1.149-.738 1.149-1.597v-.684h-.266v.656c0 .863-.343 1.363-.812 1.363-.813 0-.813-1.109-.813-1.312zm4.602 0h1.683v-.343h-1.683v-2.2h-.266c-.008 1.121-.437 2.27-1.527 2.305v.238h1.015v3.325c0 1.324.887 1.597 1.516 1.597.758 0 1.149-.738 1.149-1.597v-.684h-.262v.656c0 .863-.348 1.363-.813 1.363-.812 0-.812-1.109-.812-1.312zm7.105 1.614c0-.645 0-1.122-.527-1.59a2.2 2.2 0 0 0-1.481-.547c-.98 0-1.734.644-1.734 1.422 0 .343.231.511.5.511a.47.47 0 0 0 .492-.488c0-.492-.429-.492-.609-.492.277-.5.848-.715 1.328-.715.547 0 1.254.453 1.254 1.527v.481c-2.402.035-3.313 1.039-3.313 1.957 0 .945 1.102 1.242 1.829 1.242a1.63 1.63 0 0 0 1.554-1.047c.047.559.418.989.934.989.25 0 .941-.168.941-1.121v-.672h-.261v.672c0 .68-.286.773-.454.773-.453 0-.453-.633-.453-.813zm-.777 1.507c0 1.168-.871 1.567-1.387 1.567-.586 0-1.078-.434-1.078-1.008 0-1.574 2.035-1.719 2.465-1.742z"/></g></svg>