<svg xmlns="http://www.w3.org/2000/svg" width="896" height="257pt" viewBox="0 -257 672 257"><g id="page1"><path fill="#ffb2ff" d="M10.004-57.309h5.953c1.633 0 3.2.649 4.355 1.805l4.895 4.895a2.553 2.553 0 0 0 3.61 0l4.894-4.895a6.16 6.16 0 0 1 4.355-1.805H320.38a2.55 2.55 0 0 0 2.551-2.55v-142.914a2.554 2.554 0 0 0-2.551-2.551H38.066a6.16 6.16 0 0 0-4.355 1.804l-4.895 4.899a2.56 2.56 0 0 1-3.609 0l-4.895-4.899a6.16 6.16 0 0 0-4.355-1.804H4.051a2.55 2.55 0 0 0-2.551 2.551v142.914c0 1.41 1.14 2.55 2.55 2.55z"/><path fill="none" stroke="#b200b2" stroke-linecap="round" stroke-linejoin="round" stroke-width="3" d="M10.004-57.309h5.953c1.633 0 3.2.649 4.355 1.805l4.895 4.895a2.553 2.553 0 0 0 3.61 0l4.894-4.895a6.16 6.16 0 0 1 4.355-1.805H320.38a2.55 2.55 0 0 0 2.551-2.55v-142.914a2.554 2.554 0 0 0-2.551-2.551H38.066a6.16 6.16 0 0 0-4.355 1.804l-4.895 4.899a2.56 2.56 0 0 1-3.609 0l-4.895-4.899a6.16 6.16 0 0 0-4.355-1.804H4.051a2.55 2.55 0 0 0-2.551 2.551v142.914c0 1.41 1.14 2.55 2.55 2.55z"/><path fill="#fff" d="M327.18-127.063H63.578a6.17 6.17 0 0 0-4.355 1.801l-4.895 4.899a2.553 2.553 0 0 1-3.61 0l-4.894-4.899a6.17 6.17 0 0 0-4.355-1.801H29.562a2.55 2.55 0 0 0-2.55 2.551v47.645c0 1.41 1.14 2.55 2.55 2.55H41.47c1.633 0 3.199.649 4.355 1.805l4.895 4.895a2.553 2.553 0 0 0 3.61 0l4.894-4.895a6.16 6.16 0 0 1 4.355-1.804H327.18z"/><path fill="none" stroke="#b2b2b2" stroke-linecap="round" stroke-linejoin="round" stroke-width="3" d="M327.18-127.063H63.578a6.17 6.17 0 0 0-4.355 1.801l-4.895 4.899a2.553 2.553 0 0 1-3.61 0l-4.894-4.899a6.17 6.17 0 0 0-4.355-1.801H29.562a2.55 2.55 0 0 0-2.55 2.551v47.645c0 1.41 1.14 2.55 2.55 2.55H41.47c1.633 0 3.199.649 4.355 1.805l4.895 4.895a2.553 2.553 0 0 0 3.61 0l4.894-4.895a6.16 6.16 0 0 1 4.355-1.804H327.18"/><path fill="#b2ffb2" d="m165.547-150.254 9.504 8.844c3 2.789 6.945 4.344 11.047 4.344h79.699c4.101 0 8.047-1.555 11.047-4.344l19.008-17.688a5.93 5.93 0 0 0 0-8.687l-19.008-17.688a16.23 16.23 0 0 0-11.047-4.343h-79.699a16.22 16.22 0 0 0-11.047 4.343l-19.012 17.688a5.94 5.94 0 0 0 0 8.687z"/><path fill="none" stroke="#00b200" stroke-linecap="round" stroke-linejoin="round" stroke-width="3" d="m165.547-150.254 9.504 8.844c3 2.789 6.945 4.344 11.047 4.344h79.699c4.101 0 8.047-1.555 11.047-4.344l19.008-17.688a5.93 5.93 0 0 0 0-8.687l-19.008-17.688a16.23 16.23 0 0 0-11.047-4.343h-79.699a16.22 16.22 0 0 0-11.047 4.343l-19.012 17.688a5.94 5.94 0 0 0 0 8.687z"/><path fill="#ffffb2" d="M368.281-8.953h5.953c1.637 0 3.204.648 4.356 1.805l4.898 4.894a2.55 2.55 0 0 0 3.606 0l4.898-4.894a6.15 6.15 0 0 1 4.356-1.805h262.558a2.55 2.55 0 0 0 2.551-2.55v-168.423a2.55 2.55 0 0 0-2.551-2.551H396.348a6.17 6.17 0 0 0-4.356 1.801l-4.898 4.899a2.55 2.55 0 0 1-3.606 0l-4.898-4.899a6.16 6.16 0 0 0-4.356-1.801h-11.906a2.55 2.55 0 0 0-2.551 2.551v168.422c0 1.41 1.145 2.55 2.551 2.55z"/><path fill="none" stroke="#b2b200" stroke-linecap="round" stroke-linejoin="round" stroke-width="3" d="M368.281-8.953h5.953c1.637 0 3.204.648 4.356 1.805l4.898 4.894a2.55 2.55 0 0 0 3.606 0l4.898-4.894a6.15 6.15 0 0 1 4.356-1.805h262.558a2.55 2.55 0 0 0 2.551-2.55v-168.423a2.55 2.55 0 0 0-2.551-2.551H396.348a6.17 6.17 0 0 0-4.356 1.801l-4.898 4.899a2.55 2.55 0 0 1-3.606 0l-4.898-4.899a6.16 6.16 0 0 0-4.356-1.801h-11.906a2.55 2.55 0 0 0-2.551 2.551v168.422c0 1.41 1.145 2.55 2.551 2.55z"/><path fill="#ffd9b2" d="M393.797-25.96h5.949c1.637 0 3.203.648 4.356 1.804L409-19.262a2.55 2.55 0 0 0 3.605 0l4.899-4.894a6.15 6.15 0 0 1 4.355-1.805H667.41a2.55 2.55 0 0 0 2.551-2.55v-47.645a2.55 2.55 0 0 0-2.551-2.551H421.859a6.15 6.15 0 0 0-4.355 1.805l-4.899 4.894a2.55 2.55 0 0 1-3.605 0l-4.898-4.894a6.15 6.15 0 0 0-4.356-1.805h-11.902a2.553 2.553 0 0 0-2.555 2.55v47.645a2.553 2.553 0 0 0 2.555 2.551z"/><path fill="none" stroke="#b25900" stroke-linecap="round" stroke-linejoin="round" stroke-width="3" d="M393.797-25.96h5.949c1.637 0 3.203.648 4.356 1.804L409-19.262a2.55 2.55 0 0 0 3.605 0l4.899-4.894a6.15 6.15 0 0 1 4.355-1.805H667.41a2.55 2.55 0 0 0 2.551-2.55v-47.645a2.55 2.55 0 0 0-2.551-2.551H421.859a6.15 6.15 0 0 0-4.355 1.805l-4.899 4.894a2.55 2.55 0 0 1-3.605 0l-4.898-4.894a6.15 6.15 0 0 0-4.356-1.805h-11.902a2.553 2.553 0 0 0-2.555 2.55v47.645a2.553 2.553 0 0 0 2.555 2.551z"/><path fill="#b2ffb2" d="m409.496-108.277 10.43 14.398a12.5 12.5 0 0 0 10.121 5.168h148.914c4.008 0 7.769-1.922 10.121-5.168l20.863-28.797a8.81 8.81 0 0 0 0-10.332l-20.863-28.797a12.5 12.5 0 0 0-10.121-5.168H430.047a12.5 12.5 0 0 0-10.121 5.168l-20.863 28.797a8.81 8.81 0 0 0 0 10.332z"/><path fill="none" stroke="#00b200" stroke-linecap="round" stroke-linejoin="round" stroke-width="3" d="m409.496-108.277 10.43 14.398a12.5 12.5 0 0 0 10.121 5.168h148.914c4.008 0 7.769-1.922 10.121-5.168l20.863-28.797a8.81 8.81 0 0 0 0-10.332l-20.863-28.797a12.5 12.5 0 0 0-10.121-5.168H430.047a12.5 12.5 0 0 0-10.121 5.168l-20.863 28.797a8.81 8.81 0 0 0 0 10.332z"/><path fill="#b2ffb2" d="m470.203-114.652 9.508 8.839c3 2.793 6.945 4.344 11.047 4.344h79.699c4.102 0 8.047-1.551 11.047-4.344l19.008-17.683c2.523-2.348 2.523-6.344 0-8.688l-19.008-17.687a16.23 16.23 0 0 0-11.047-4.344h-79.699a16.23 16.23 0 0 0-11.047 4.344l-19.012 17.687c-2.519 2.344-2.519 6.34 0 8.688z"/><path fill="none" stroke="#00b200" stroke-linecap="round" stroke-linejoin="round" stroke-width="3" d="m470.203-114.652 9.508 8.839c3 2.793 6.945 4.344 11.047 4.344h79.699c4.102 0 8.047-1.551 11.047-4.344l19.008-17.683c2.523-2.348 2.523-6.344 0-8.688l-19.008-17.687a16.23 16.23 0 0 0-11.047-4.344h-79.699a16.23 16.23 0 0 0-11.047 4.344l-19.012 17.687c-2.519 2.344-2.519 6.34 0 8.688z"/><path fill="#b2ffff" d="M359.777-185.426h14.457c1.637 0 3.204.653 4.356 1.805l4.898 4.898a2.55 2.55 0 0 0 3.606 0l4.898-4.898a6.17 6.17 0 0 1 4.356-1.805h265.109v-52.746c-49.484-11.305-100.082-17.008-150.84-17.008s-101.355 5.703-150.84 17.008z"/><path fill="none" stroke="#00b2b2" stroke-linecap="round" stroke-linejoin="round" stroke-width="3" d="M359.777-185.426h14.457c1.637 0 3.204.653 4.356 1.805l4.898 4.898a2.55 2.55 0 0 0 3.606 0l4.898-4.898a6.17 6.17 0 0 1 4.356-1.805h265.109v-52.746c-49.484-11.305-100.082-17.008-150.84-17.008s-101.355 5.703-150.84 17.008z"/><path d="M43.95-100.484c0-1.407.573-3.512 2.987-5.305.669-.5 1.29-1.242 1.29-2.484 0-1.457-1.004-3.25-4.446-3.25-2.582 0-3.992 1.671-3.992 3.203 0 .859.648 1.05 1.004 1.05.406 0 .98-.285.98-1.003 0-.551-.406-.981-1.004-.981-.144 0-.19 0-.238.024.524-1.243 1.91-1.817 3.18-1.817 2.7 0 2.7 1.746 2.7 2.656 0 1.407-.43 1.864-.837 2.293-1.625 1.743-2.152 3.965-2.152 5.426v1.145c0 .43 0 .527.266.527.261 0 .261-.168.261-.598zm.882 4.613c0-.621-.527-1.148-1.145-1.148-.718 0-1.171.574-1.171 1.148a1.158 1.158 0 1 0 2.316 0m10.215-4.613c0-1.407.574-3.512 2.988-5.305.668-.5 1.293-1.242 1.293-2.484 0-1.457-1.008-3.25-4.445-3.25-2.582 0-3.992 1.671-3.992 3.203 0 .859.644 1.05 1.004 1.05.406 0 .98-.285.98-1.003 0-.551-.406-.981-1.004-.981-.144 0-.191 0-.238.024.523-1.243 1.91-1.817 3.176-1.817 2.699 0 2.699 1.746 2.699 2.656 0 1.407-.43 1.864-.836 2.293-1.625 1.743-2.149 3.965-2.149 5.426v1.145c0 .43 0 .527.262.527s.262-.168.262-.598zm.887 4.613c0-.621-.528-1.148-1.149-1.148-.715 0-1.172.574-1.172 1.148a1.16 1.16 0 1 0 2.32 0m10.114-4.613c0-1.407.574-3.512 2.988-5.305.668-.5 1.293-1.242 1.293-2.484 0-1.457-1.008-3.25-4.445-3.25-2.582 0-3.992 1.671-3.992 3.203 0 .859.644 1.05 1.004 1.05.406 0 .98-.285.98-1.003 0-.551-.406-.981-1.004-.981-.144 0-.191 0-.238.024.523-1.243 1.91-1.817 3.176-1.817 2.699 0 2.699 1.746 2.699 2.656 0 1.407-.43 1.864-.836 2.293-1.625 1.743-2.149 3.965-2.149 5.426v1.145c0 .43 0 .527.262.527s.262-.168.262-.598zm.887 4.613c0-.621-.528-1.148-1.149-1.148-.715 0-1.172.574-1.172 1.148a1.16 1.16 0 1 0 2.32 0m-49.941-67.195c0-2.321.953-4.497 2.793-4.497.192 0 .238 0 .336.028-.191.094-.574.238-.574.883 0 .691.55.957.933.957.477 0 .957-.313.957-.957 0-.715-.648-1.387-1.675-1.387-2.032 0-2.723 2.199-2.867 2.652h-.024v-2.652l-3.203.266v.691c1.625 0 1.816.168 1.816 1.34v6.472c0 1.075-.261 1.075-1.816 1.075v.695c.668-.047 1.984-.047 2.7-.047.648 0 2.343 0 2.894.047v-.695h-.48c-1.743 0-1.79-.262-1.79-1.121zm9.266-9.153c0-.625-.5-1.172-1.172-1.172-.621 0-1.145.5-1.145 1.149a1.15 1.15 0 0 0 1.145 1.168c.742 0 1.172-.621 1.172-1.145m-3.297 4.446v.691c1.527 0 1.742.144 1.742 1.312v6.5c0 1.075-.262 1.075-1.812 1.075v.695c.668-.047 1.812-.047 2.507-.047.262 0 1.649 0 2.461.047v-.695c-1.554 0-1.648-.118-1.648-1.047v-8.797zm11.492 14.214c-1.527 0-1.812 0-1.812-1.074v-4.156c.43.594 1.406 1.527 2.937 1.527 2.75 0 5.16-2.316 5.16-5.398 0-3.035-2.246-5.379-4.847-5.379-2.106 0-3.227 1.508-3.301 1.601v-1.601l-3.32.266v.691c1.671 0 1.816.168 1.816 1.219v11.23c0 1.074-.266 1.074-1.816 1.074v.696c.62-.051 1.91-.051 2.582-.051.691 0 1.98 0 2.601.051zm-1.812-11.562c0-.457 0-.481.261-.863a3.44 3.44 0 0 1 2.793-1.528c1.793 0 3.227 2.172 3.227 4.852 0 2.84-1.625 4.922-3.465 4.922a2.82 2.82 0 0 1-1.91-.766c-.55-.551-.906-1.027-.906-1.695zm18.812 2.078c.524 0 .574 0 .574-.453 0-2.414-1.293-4.66-4.183-4.66-2.723 0-4.828 2.461-4.828 5.422 0 3.156 2.437 5.472 5.09 5.472 2.843 0 3.921-2.582 3.921-3.082 0-.144-.12-.238-.265-.238-.192 0-.239.117-.285.238-.621 2.008-2.223 2.555-3.227 2.555s-3.418-.668-3.418-4.801v-.453zm-6.598-.453c.192-3.754 2.297-4.184 2.965-4.184 2.555 0 2.7 3.367 2.723 4.184zm11.86-3.609h3.37v-.696h-3.37v-4.394h-.528c-.023 2.246-.882 4.539-3.058 4.609v.481h2.031v6.64c0 2.652 1.77 3.203 3.035 3.203 1.508 0 2.297-1.48 2.297-3.203v-1.359h-.527v1.312c0 1.723-.692 2.723-1.625 2.723-1.625 0-1.625-2.219-1.625-2.625zm9.242-5.114c0-.625-.5-1.172-1.168-1.172-.625 0-1.148.5-1.148 1.149a1.15 1.15 0 0 0 1.148 1.168c.738 0 1.168-.621 1.168-1.145m-3.297 4.446v.691c1.528 0 1.746.144 1.746 1.312v6.5c0 1.075-.265 1.075-1.816 1.075v.695c.668-.047 1.816-.047 2.508-.047.261 0 1.648 0 2.46.047v-.695c-1.55 0-1.648-.118-1.648-1.047v-8.797zm30.574 4.468c0-2.226 0-2.894-.55-3.66-.692-.93-1.817-1.074-2.63-1.074-1.984 0-2.984 1.434-3.367 2.367-.335-1.84-1.624-2.367-3.132-2.367-2.317 0-3.227 1.984-3.414 2.461h-.028v-2.461l-3.25.266v.691c1.625 0 1.817.168 1.817 1.34v6.472c0 1.075-.262 1.075-1.817 1.075v.695c.621-.047 1.914-.047 2.582-.047.696 0 1.985 0 2.606.047v-.695c-1.532 0-1.817 0-1.817-1.075v-4.445c0-2.508 1.649-3.848 3.13-3.848 1.484 0 1.816 1.219 1.816 2.68v5.613c0 1.075-.262 1.075-1.817 1.075v.695c.621-.047 1.914-.047 2.582-.047.696 0 1.985 0 2.606.047v-.695c-1.532 0-1.817 0-1.817-1.075v-4.445c0-2.508 1.649-3.848 3.13-3.848s1.816 1.219 1.816 2.68v5.613c0 1.075-.262 1.075-1.817 1.075v.695c.621-.047 1.914-.047 2.582-.047.696 0 1.985 0 2.606.047v-.695c-1.195 0-1.793 0-1.817-.715zm11.52.262c.523 0 .574 0 .574-.453 0-2.414-1.293-4.66-4.183-4.66-2.723 0-4.829 2.461-4.829 5.422 0 3.156 2.438 5.472 5.09 5.472 2.844 0 3.922-2.582 3.922-3.082 0-.144-.121-.238-.265-.238-.192 0-.239.117-.286.238-.621 2.008-2.222 2.555-3.226 2.555s-3.418-.668-3.418-4.801v-.453zm-6.598-.453c.192-3.754 2.297-4.184 2.965-4.184 2.555 0 2.699 3.367 2.723 4.184zm18.477.191c0-2.226 0-2.894-.547-3.66-.695-.93-1.816-1.074-2.629-1.074-2.32 0-3.227 1.984-3.418 2.461h-.023v-2.461l-3.25.266v.691c1.625 0 1.816.168 1.816 1.34v6.472c0 1.075-.262 1.075-1.816 1.075v.695c.621-.047 1.91-.047 2.578-.047.695 0 1.984 0 2.605.047v-.695c-1.527 0-1.816 0-1.816-1.075v-4.445c0-2.508 1.648-3.848 3.133-3.848 1.48 0 1.816 1.219 1.816 2.68v5.613c0 1.075-.266 1.075-1.816 1.075v.695c.621-.047 1.91-.047 2.578-.047.695 0 1.984 0 2.605.047v-.695c-1.195 0-1.793 0-1.816-.715zm5.68-3.8h3.371v-.696h-3.371v-4.394h-.524c-.023 2.246-.883 4.539-3.059 4.609v.481h2.032v6.64c0 2.652 1.769 3.203 3.035 3.203 1.504 0 2.293-1.48 2.293-3.203v-1.359h-.527v1.312c0 1.723-.692 2.723-1.625 2.723-1.625 0-1.625-2.219-1.625-2.625zm9.078 4.039c0-2.321.957-4.497 2.797-4.497.191 0 .238 0 .335.028-.195.094-.574.238-.574.883 0 .691.547.957.93.957.48 0 .957-.313.957-.957 0-.715-.645-1.387-1.672-1.387-2.031 0-2.726 2.199-2.867 2.652h-.024v-2.652l-3.203.266v.691c1.625 0 1.817.168 1.817 1.34v6.472c0 1.075-.266 1.075-1.817 1.075v.695c.668-.047 1.985-.047 2.7-.047.644 0 2.339 0 2.89.047v-.695h-.476c-1.746 0-1.793-.262-1.793-1.121zm14.363.023c.523 0 .574 0 .574-.453 0-2.414-1.293-4.66-4.183-4.66-2.723 0-4.829 2.461-4.829 5.422 0 3.156 2.438 5.472 5.09 5.472 2.844 0 3.922-2.582 3.922-3.082 0-.144-.121-.238-.265-.238-.192 0-.239.117-.286.238-.621 2.008-2.222 2.555-3.226 2.555s-3.418-.668-3.418-4.801v-.453zm-6.598-.453c.192-3.754 2.297-4.184 2.965-4.184 2.555 0 2.699 3.367 2.723 4.184zm34.953-10.59-3.32.266v.691c1.625 0 1.816.168 1.816 1.34v12.519c0 1.075-.261 1.075-1.816 1.075v.695c.668-.047 1.84-.047 2.555-.047.719 0 1.914 0 2.582.047v-.695c-1.528 0-1.817 0-1.817-1.075zm9.657 6.313v.691c1.625 0 1.816.168 1.816 1.34v4.273c0 2.031-1.078 3.731-2.867 3.731-1.961 0-2.082-1.125-2.082-2.391v-7.91l-3.367.266v.691c1.816 0 1.816.07 1.816 2.199v3.582c0 1.481 0 2.344.715 3.133.574.621 1.555.906 2.773.906.407 0 1.172 0 1.985-.691.691-.551 1.074-1.461 1.074-1.461v2.152l3.32-.238v-.695c-1.625 0-1.816-.164-1.816-1.336v-8.508zm14.382 1.429c-.285 0-1.168 0-1.168.981 0 .574.407.98.981.98.547 0 1.004-.336 1.004-1.027 0-1.602-1.676-2.746-3.61-2.746-2.796 0-5.019 2.484-5.019 5.496 0 3.058 2.293 5.398 4.996 5.398 3.152 0 3.871-2.867 3.871-3.082s-.168-.215-.238-.215c-.219 0-.242.071-.313.36-.523 1.695-1.816 2.41-3.105 2.41-1.457 0-3.395-1.266-3.395-4.899 0-3.964 2.032-4.945 3.227-4.945.906 0 2.223.36 2.769 1.289m10.907 3.301c.523 0 .574 0 .574-.453 0-2.414-1.293-4.66-4.184-4.66-2.726 0-4.828 2.461-4.828 5.422 0 3.156 2.438 5.472 5.09 5.472 2.844 0 3.922-2.582 3.922-3.082 0-.144-.121-.238-.266-.238-.191 0-.242.117-.285.238-.625 2.008-2.223 2.555-3.226 2.555s-3.418-.668-3.418-4.801v-.453zm-6.598-.453c.191-3.754 2.297-4.184 2.965-4.184 2.555 0 2.699 3.367 2.723 4.184zm24.867-.383c0-1.293 0-2.25-1.051-3.18-.835-.765-1.914-1.097-2.964-1.097-1.957 0-3.465 1.289-3.465 2.843 0 .692.453 1.028 1.004 1.028.574 0 .98-.406.98-.981 0-.98-.859-.98-1.219-.98.551-1.004 1.696-1.434 2.653-1.434 1.097 0 2.508.907 2.508 3.059v.957c-4.801.07-6.618 2.078-6.618 3.918 0 1.887 2.2 2.484 3.657 2.484 1.574 0 2.652-.957 3.105-2.101.094 1.121.836 1.98 1.863 1.98.504 0 1.887-.332 1.887-2.246v-1.336h-.523v1.336c0 1.363-.575 1.555-.907 1.555-.91 0-.91-1.266-.91-1.625zm-1.554 3.012c0 2.34-1.743 3.129-2.774 3.129-1.168 0-2.148-.864-2.148-2.008 0-3.152 4.062-3.442 4.922-3.488zm12.679-5.477c-.285 0-1.168 0-1.168.981 0 .574.407.98.977.98.551 0 1.004-.336 1.004-1.027 0-1.602-1.672-2.746-3.606-2.746-2.797 0-5.019 2.484-5.019 5.496 0 3.058 2.293 5.398 4.996 5.398 3.152 0 3.871-2.867 3.871-3.082s-.168-.215-.242-.215c-.215 0-.239.071-.309.36-.527 1.695-1.816 2.41-3.109 2.41-1.457 0-3.391-1.266-3.391-4.899 0-3.964 2.031-4.945 3.227-4.945.906 0 2.222.36 2.769 1.289m10.403 0c-.289 0-1.172 0-1.172.981 0 .574.406.98.98.98.551 0 1.004-.336 1.004-1.027 0-1.602-1.672-2.746-3.609-2.746-2.797 0-5.02 2.484-5.02 5.496 0 3.058 2.293 5.398 4.996 5.398 3.157 0 3.871-2.867 3.871-3.082s-.168-.215-.238-.215c-.215 0-.242.071-.312.36-.524 1.695-1.817 2.41-3.106 2.41-1.457 0-3.394-1.266-3.394-4.899 0-3.964 2.031-4.945 3.226-4.945.906 0 2.223.36 2.774 1.289m10.902 3.301c.523 0 .574 0 .574-.453 0-2.414-1.293-4.66-4.183-4.66-2.723 0-4.829 2.461-4.829 5.422 0 3.156 2.438 5.472 5.09 5.472 2.844 0 3.922-2.582 3.922-3.082 0-.144-.121-.238-.265-.238-.192 0-.239.117-.286.238-.621 2.008-2.222 2.555-3.226 2.555s-3.418-.668-3.418-4.801v-.453zm-6.598-.453c.192-3.754 2.297-4.184 2.965-4.184 2.555 0 2.699 3.367 2.723 4.184zm15.684-4.113c0-.43 0-.547-.242-.547-.192 0-.645.523-.813.738-.738-.598-1.48-.738-2.246-.738-2.891 0-3.75 1.574-3.75 2.89 0 .262 0 1.098.906 1.934.766.672 1.578.84 2.676 1.051 1.317.265 1.625.336 2.223.812.429.36.742.887.742 1.555 0 1.027-.598 2.176-2.699 2.176-1.578 0-2.723-.91-3.25-3.297-.098-.434-.098-.457-.121-.481-.047-.093-.145-.093-.215-.093-.262 0-.262.117-.262.546v3.25c0 .43 0 .551.238.551.121 0 .145-.023.551-.527.117-.164.117-.215.477-.594.91 1.121 2.199 1.121 2.605 1.121 2.508 0 3.75-1.386 3.75-3.273 0-1.289-.789-2.055-1.004-2.27-.859-.742-1.504-.883-3.082-1.172-.715-.14-2.461-.476-2.461-1.91 0-.742.504-1.84 2.653-1.84 2.605 0 2.75 2.223 2.797 2.961.023.192.191.192.261.192.266 0 .266-.117.266-.547zm10.582 3.73c0-1.293 0-2.25-1.051-3.18-.836-.765-1.91-1.097-2.961-1.097-1.961 0-3.465 1.289-3.465 2.843 0 .692.453 1.028 1.004 1.028.574 0 .981-.406.981-.981 0-.98-.864-.98-1.219-.98.547-1.004 1.695-1.434 2.648-1.434 1.102 0 2.512.907 2.512 3.059v.957c-4.805.07-6.617 2.078-6.617 3.918 0 1.887 2.195 2.484 3.652 2.484 1.578 0 2.657-.957 3.11-2.101.093 1.121.836 1.98 1.863 1.98.5 0 1.887-.332 1.887-2.246v-1.336h-.524v1.336c0 1.363-.574 1.555-.91 1.555-.91 0-.91-1.266-.91-1.625zm-1.551 3.012c0 2.34-1.742 3.129-2.773 3.129-1.168 0-2.149-.864-2.149-2.008 0-3.152 4.063-3.442 4.922-3.488zm31.426-5.785c0-.645-.551-1.149-1.149-1.149-.691 0-1.168.551-1.168 1.149a1.17 1.17 0 0 0 1.149 1.172c.644 0 1.168-.504 1.168-1.172m0 7.98c0-.644-.551-1.148-1.149-1.148-.691 0-1.168.55-1.168 1.148 0 .719.598 1.172 1.149 1.172.644 0 1.168-.504 1.168-1.172m93.359 116.215c-1.531 0-1.816 0-1.816-1.074v-4.16c.43.597 1.406 1.53 2.937 1.53 2.75 0 5.161-2.32 5.161-5.401 0-3.036-2.243-5.376-4.848-5.376-2.106 0-3.227 1.504-3.301 1.602v-1.602l-3.32.262v.692c1.672 0 1.816.168 1.816 1.218v11.235c0 1.074-.262 1.074-1.816 1.074v.691c.621-.047 1.914-.047 2.582-.047.691 0 1.98 0 2.605.047zm-1.816-11.566c0-.454 0-.477.262-.86.718-1.078 1.886-1.531 2.796-1.531 1.79 0 3.223 2.176 3.223 4.852 0 2.843-1.625 4.921-3.465 4.921a2.83 2.83 0 0 1-1.91-.761c-.551-.551-.906-1.028-.906-1.7zm12.953 2.054c0-2.316.953-4.492 2.793-4.492.191 0 .238 0 .336.023-.192.098-.574.243-.574.883 0 .696.55.957.933.957.477 0 .953-.308.953-.957 0-.715-.644-1.383-1.671-1.383-2.032 0-2.723 2.196-2.868 2.653h-.023v-2.653l-3.203.262v.692c1.625 0 1.816.168 1.816 1.34v6.476c0 1.074-.262 1.074-1.816 1.074v.696c.668-.051 1.984-.051 2.699-.051.645 0 2.344 0 2.895.05v-.695h-.481c-1.742 0-1.789-.261-1.789-1.12zm14.262.024c.523 0 .574 0 .574-.453 0-2.414-1.293-4.66-4.184-4.66-2.726 0-4.828 2.46-4.828 5.425 0 3.153 2.438 5.473 5.09 5.473 2.844 0 3.922-2.582 3.922-3.082 0-.145-.121-.242-.266-.242-.191 0-.242.12-.285.242-.625 2.008-2.223 2.554-3.226 2.554s-3.418-.667-3.418-4.804v-.453zm-6.598-.453c.191-3.75 2.297-4.18 2.965-4.18 2.555 0 2.699 3.367 2.723 4.18zm24.977.191c0-2.223 0-2.89-.551-3.656-.692-.934-1.813-1.075-2.625-1.075-1.985 0-2.988 1.434-3.371 2.364-.336-1.84-1.625-2.364-3.129-2.364-2.32 0-3.227 1.985-3.418 2.461h-.027v-2.46l-3.25.261v.692c1.625 0 1.82.168 1.82 1.34v6.476c0 1.074-.266 1.074-1.82 1.074v.696c.625-.051 1.914-.051 2.582-.051.695 0 1.984 0 2.605.05v-.695c-1.531 0-1.816 0-1.816-1.074v-4.445c0-2.508 1.648-3.848 3.129-3.848 1.484 0 1.82 1.219 1.82 2.676v5.617c0 1.074-.266 1.074-1.82 1.074v.696c.625-.051 1.914-.051 2.582-.051.695 0 1.984 0 2.605.05v-.695c-1.531 0-1.816 0-1.816-1.074v-4.445c0-2.508 1.648-3.848 3.129-3.848 1.484 0 1.82 1.219 1.82 2.676v5.617c0 1.074-.266 1.074-1.82 1.074v.696c.625-.051 1.914-.051 2.582-.051.695 0 1.984 0 2.605.05v-.695c-1.195 0-1.793 0-1.816-.715zm6.523-8.914c0-.621-.5-1.168-1.168-1.168-.621 0-1.148.5-1.148 1.145 0 .714.574 1.171 1.148 1.171.738 0 1.168-.62 1.168-1.148m-3.297 4.445v.692c1.528 0 1.746.144 1.746 1.316v6.5c0 1.074-.265 1.074-1.816 1.074v.696c.668-.051 1.816-.051 2.508-.051.261 0 1.648 0 2.461.05v-.695c-1.551 0-1.649-.117-1.649-1.05v-8.794zm17.598-4.445c0-.621-.5-1.168-1.168-1.168-.625 0-1.149.5-1.149 1.145 0 .714.575 1.171 1.149 1.171.738 0 1.168-.62 1.168-1.148m-3.297 4.445v.692c1.527 0 1.742.144 1.742 1.316v6.5c0 1.074-.262 1.074-1.812 1.074v.696c.668-.051 1.812-.051 2.507-.051.262 0 1.649 0 2.461.05v-.695c-1.554 0-1.648-.117-1.648-1.05v-8.794zm16.273 4.469c0-2.223 0-2.89-.55-3.656-.692-.934-1.817-1.075-2.629-1.075-2.317 0-3.227 1.985-3.414 2.461h-.028v-2.46l-3.25.261v.692c1.625 0 1.817.168 1.817 1.34v6.476c0 1.074-.262 1.074-1.817 1.074v.696c.621-.051 1.914-.051 2.582-.051.696 0 1.985 0 2.606.05v-.695c-1.531 0-1.817 0-1.817-1.074v-4.445c0-2.508 1.649-3.848 3.129-3.848 1.485 0 1.817 1.219 1.817 2.676v5.617c0 1.074-.262 1.074-1.817 1.074v.696c.621-.051 1.914-.051 2.582-.051.696 0 1.985 0 2.606.05v-.695c-1.196 0-1.793 0-1.817-.715zm5.782-3.801h3.367v-.691h-3.367v-4.399h-.528c-.023 2.246-.883 4.543-3.058 4.614v.476h2.031v6.645c0 2.652 1.769 3.203 3.035 3.203 1.508 0 2.297-1.48 2.297-3.203v-1.364h-.527v1.317c0 1.719-.696 2.722-1.625 2.722-1.625 0-1.625-2.222-1.625-2.628zm14.238 4.063c.523 0 .574 0 .574-.453 0-2.414-1.293-4.66-4.183-4.66-2.723 0-4.829 2.46-4.829 5.425 0 3.153 2.438 5.473 5.09 5.473 2.844 0 3.922-2.582 3.922-3.082 0-.145-.121-.242-.265-.242-.192 0-.239.12-.286.242-.621 2.008-2.222 2.554-3.226 2.554s-3.418-.667-3.418-4.804v-.453zm-6.598-.453c.192-3.75 2.297-4.18 2.965-4.18 2.555 0 2.699 3.367 2.723 4.18zm11.836.429c0-2.316.953-4.492 2.793-4.492.192 0 .238 0 .336.023-.191.098-.574.243-.574.883 0 .696.551.957.933.957.477 0 .958-.308.958-.957 0-.715-.645-1.383-1.676-1.383-2.032 0-2.723 2.196-2.867 2.653h-.024v-2.653l-3.203.262v.692c1.625 0 1.816.168 1.816 1.34v6.476c0 1.074-.261 1.074-1.816 1.074v.696c.672-.051 1.984-.051 2.699-.051.649 0 2.344 0 2.895.05v-.695h-.481c-1.742 0-1.789-.261-1.789-1.12zm9.098 0c0-2.316.957-4.492 2.797-4.492.191 0 .238 0 .336.023-.192.098-.575.243-.575.883 0 .696.547.957.93.957.481 0 .957-.308.957-.957 0-.715-.644-1.383-1.672-1.383-2.031 0-2.722 2.196-2.867 2.653h-.023v-2.653l-3.203.262v.692c1.625 0 1.816.168 1.816 1.34v6.476c0 1.074-.266 1.074-1.816 1.074v.696c.668-.051 1.984-.051 2.699-.051.644 0 2.344 0 2.89.05v-.695h-.476c-1.742 0-1.793-.261-1.793-1.12zm12.375-4.707v.692c1.625 0 1.816.168 1.816 1.34v4.277c0 2.031-1.078 3.726-2.867 3.726-1.961 0-2.078-1.12-2.078-2.386v-7.91l-3.371.261v.692c1.816 0 1.816.074 1.816 2.199v3.586c0 1.48 0 2.34.715 3.129.574.62 1.555.91 2.774.91.406 0 1.171 0 1.984-.696.691-.546 1.074-1.456 1.074-1.456v2.152l3.32-.238v-.696c-1.625 0-1.812-.168-1.812-1.336v-8.507zm9.75.668h3.371v-.691h-3.371v-4.399h-.527c-.02 2.246-.883 4.543-3.059 4.614v.476h2.031v6.645c0 2.652 1.77 3.203 3.035 3.203 1.508 0 2.297-1.48 2.297-3.203v-1.364h-.527v1.317c0 1.719-.692 2.722-1.625 2.722-1.625 0-1.625-2.222-1.625-2.628zm9.098 0h3.371v-.691h-3.371v-4.399h-.524c-.023 2.246-.883 4.543-3.059 4.614v.476h2.032v6.645c0 2.652 1.769 3.203 3.035 3.203 1.504 0 2.293-1.48 2.293-3.203v-1.364h-.527v1.317c0 1.719-.692 2.722-1.625 2.722-1.625 0-1.625-2.222-1.625-2.628zm16.054 4.492c0-3.082-2.34-5.543-5.113-5.543-2.867 0-5.137 2.536-5.137 5.543 0 3.063 2.391 5.356 5.113 5.356 2.821 0 5.137-2.344 5.137-5.356m-5.113 4.828c-.883 0-1.957-.382-2.652-1.554-.645-1.074-.668-2.485-.668-3.489 0-.906 0-2.363.738-3.44a3.07 3.07 0 0 1 2.558-1.407c.934 0 1.938.43 2.583 1.36.742 1.1.742 2.605.742 3.488 0 .84 0 2.32-.625 3.44-.668 1.15-1.766 1.602-2.676 1.602m9.836-5.281c0-2.316.957-4.492 2.797-4.492.191 0 .238 0 .336.023-.192.098-.575.243-.575.883 0 .696.547.957.93.957.481 0 .957-.308.957-.957 0-.715-.644-1.383-1.672-1.383-2.031 0-2.722 2.196-2.867 2.653h-.023v-2.653l-3.203.262v.692c1.625 0 1.816.168 1.816 1.34v6.476c0 1.074-.266 1.074-1.816 1.074v.696c.668-.051 1.984-.051 2.699-.051.644 0 2.344 0 2.89.05v-.695h-.476c-1.742 0-1.793-.261-1.793-1.12zm14.262.024c.527 0 .574 0 .574-.453 0-2.414-1.289-4.66-4.184-4.66-2.722 0-4.824 2.46-4.824 5.425 0 3.153 2.437 5.473 5.09 5.473 2.844 0 3.918-2.582 3.918-3.082 0-.145-.121-.242-.262-.242-.191 0-.242.12-.285.242-.625 2.008-2.223 2.554-3.231 2.554-1 0-3.414-.667-3.414-4.804v-.453zm-6.594-.453c.191-3.75 2.293-4.18 2.961-4.18 2.558 0 2.703 3.367 2.726 4.18zm-195.121-79.61c0-.43 0-.551-.239-.551-.191 0-.644.528-.812.743-.742-.598-1.481-.743-2.246-.743-2.891 0-3.75 1.579-3.75 2.891 0 .266 0 1.102.906 1.938.766.667 1.578.835 2.676 1.05 1.316.262 1.625.336 2.223.813.429.359.742.883.742 1.554 0 1.028-.598 2.172-2.699 2.172-1.579 0-2.723-.906-3.25-3.297-.098-.429-.098-.453-.122-.476-.046-.098-.144-.098-.214-.098-.262 0-.262.121-.262.551v3.25c0 .43 0 .551.238.551.117 0 .141-.024.551-.528.117-.167.117-.214.476-.597.907 1.125 2.2 1.125 2.606 1.125 2.508 0 3.75-1.387 3.75-3.274 0-1.293-.789-2.058-1.004-2.269-.859-.742-1.504-.887-3.082-1.176-.719-.141-2.461-.476-2.461-1.91 0-.738.5-1.84 2.652-1.84 2.606 0 2.747 2.223 2.797 2.965.024.191.192.191.262.191.262 0 .262-.121.262-.55zm10.515 4.563c.528 0 .575 0 .575-.453 0-2.415-1.289-4.661-4.184-4.661-2.723 0-4.824 2.461-4.824 5.426 0 3.153 2.437 5.473 5.086 5.473 2.843 0 3.922-2.582 3.922-3.082 0-.145-.122-.242-.262-.242-.192 0-.242.121-.289.242-.621 2.008-2.223 2.554-3.227 2.554s-3.418-.667-3.418-4.804v-.453zm-6.597-.453c.191-3.75 2.297-4.18 2.965-4.18 2.558 0 2.699 3.367 2.722 4.18zm41.48.191c0-2.223 0-2.891-.551-3.656-.691-.934-1.816-1.075-2.629-1.075-2.316 0-3.226 1.985-3.417 2.461h-.024v-2.461l-3.25.262v.692c1.625 0 1.816.168 1.816 1.339v6.477c0 1.074-.261 1.074-1.816 1.074v.696c.621-.051 1.914-.051 2.582-.051.692 0 1.984 0 2.606.051v-.696c-1.532 0-1.817 0-1.817-1.074v-4.445c0-2.508 1.649-3.848 3.129-3.848 1.484 0 1.816 1.219 1.816 2.676v5.617c0 1.074-.261 1.074-1.816 1.074v.696c.621-.051 1.914-.051 2.582-.051.692 0 1.981 0 2.606.051v-.696c-1.196 0-1.793 0-1.817-.715zm13.332.691c0-3.082-2.34-5.543-5.113-5.543-2.867 0-5.137 2.536-5.137 5.543 0 3.063 2.391 5.356 5.113 5.356 2.821 0 5.137-2.344 5.137-5.356m-5.113 4.828c-.883 0-1.957-.382-2.652-1.554-.645-1.074-.668-2.485-.668-3.488 0-.907 0-2.364.738-3.442a3.08 3.08 0 0 1 2.558-1.406c.934 0 1.938.43 2.583 1.359.742 1.102.742 2.606.742 3.489 0 .839 0 2.32-.625 3.441-.668 1.148-1.766 1.601-2.676 1.601m16.48-5.519c0-2.223 0-2.891-.55-3.656-.692-.934-1.817-1.075-2.629-1.075-2.317 0-3.227 1.985-3.414 2.461h-.028v-2.461l-3.25.262v.692c1.625 0 1.817.168 1.817 1.339v6.477c0 1.074-.262 1.074-1.817 1.074v.696c.621-.051 1.914-.051 2.582-.051.696 0 1.985 0 2.606.051v-.696c-1.531 0-1.817 0-1.817-1.074v-4.445c0-2.508 1.649-3.848 3.129-3.848 1.485 0 1.817 1.219 1.817 2.676v5.617c0 1.074-.262 1.074-1.817 1.074v.696c.621-.051 1.914-.051 2.582-.051.696 0 1.985 0 2.606.051v-.696c-1.196 0-1.793 0-1.817-.715zm29.477-10.777-3.32.261v.696c1.625 0 1.812.168 1.812 1.336v12.523c0 1.074-.262 1.074-1.812 1.074v.696c.668-.051 1.836-.051 2.554-.051.719 0 1.914 0 2.582.051v-.696c-1.531 0-1.816 0-1.816-1.074zm9.652 6.308v.692c1.625 0 1.817.168 1.817 1.339v4.278c0 2.031-1.075 3.726-2.867 3.726-1.961 0-2.079-1.121-2.079-2.386v-7.911l-3.371.262v.692c1.817 0 1.817.074 1.817 2.199v3.586c0 1.48 0 2.34.718 3.129.575.621 1.555.91 2.774.91.406 0 1.168 0 1.98-.695.696-.547 1.075-1.458 1.075-1.458v2.153l3.324-.238v-.696c-1.625 0-1.817-.168-1.817-1.336v-8.508zm14.387 1.434c-.285 0-1.172 0-1.172.98 0 .574.406.981.981.981.55 0 1.004-.336 1.004-1.028 0-1.601-1.672-2.75-3.61-2.75-2.793 0-5.015 2.485-5.015 5.496 0 3.059 2.292 5.403 4.992 5.403 3.156 0 3.871-2.867 3.871-3.082 0-.219-.168-.219-.238-.219-.215 0-.239.074-.309.359-.527 1.7-1.816 2.414-3.109 2.414-1.457 0-3.391-1.265-3.391-4.898 0-3.969 2.031-4.945 3.223-4.945.91 0 2.226.359 2.773 1.289m10.902 3.297c.528 0 .575 0 .575-.453 0-2.415-1.289-4.661-4.184-4.661-2.723 0-4.824 2.461-4.824 5.426 0 3.153 2.437 5.473 5.086 5.473 2.843 0 3.922-2.582 3.922-3.082 0-.145-.122-.242-.262-.242-.192 0-.242.121-.289.242-.621 2.008-2.223 2.554-3.227 2.554s-3.418-.667-3.418-4.804v-.453zm-6.597-.453c.191-3.75 2.297-4.18 2.965-4.18 2.558 0 2.699 3.367 2.722 4.18zm24.867-.383c0-1.289 0-2.246-1.051-3.18-.836-.762-1.91-1.098-2.961-1.098-1.961 0-3.465 1.293-3.465 2.844 0 .692.453 1.027 1.004 1.027.574 0 .981-.406.981-.98 0-.98-.864-.98-1.219-.98.547-1 1.695-1.43 2.648-1.43 1.102 0 2.512.906 2.512 3.055v.957c-4.805.074-6.617 2.082-6.617 3.918 0 1.89 2.195 2.488 3.652 2.488 1.578 0 2.657-.957 3.11-2.106.093 1.125.836 1.985 1.863 1.985.5 0 1.887-.336 1.887-2.246v-1.34h-.524v1.34c0 1.363-.574 1.554-.91 1.554-.91 0-.91-1.269-.91-1.625zm-1.551 3.011c0 2.34-1.742 3.129-2.773 3.129-1.168 0-2.149-.859-2.149-2.007 0-3.153 4.063-3.442 4.922-3.489zm12.68-5.472c-.285 0-1.172 0-1.172.98 0 .574.406.981.98.981.551 0 1.004-.336 1.004-1.028 0-1.601-1.672-2.75-3.609-2.75-2.793 0-5.02 2.485-5.02 5.496 0 3.059 2.297 5.403 4.996 5.403 3.157 0 3.872-2.867 3.872-3.082 0-.219-.168-.219-.239-.219-.215 0-.242.074-.308.359-.528 1.7-1.821 2.414-3.11 2.414-1.457 0-3.39-1.265-3.39-4.898 0-3.969 2.031-4.945 3.222-4.945.911 0 2.227.359 2.774 1.289m10.398 0c-.285 0-1.168 0-1.168.98 0 .574.407.981.977.981.551 0 1.004-.336 1.004-1.028 0-1.601-1.672-2.75-3.606-2.75-2.797 0-5.019 2.485-5.019 5.496 0 3.059 2.293 5.403 4.996 5.403 3.152 0 3.871-2.867 3.871-3.082 0-.219-.168-.219-.242-.219-.215 0-.239.074-.309.359-.527 1.7-1.816 2.414-3.109 2.414-1.457 0-3.391-1.265-3.391-4.898 0-3.969 2.031-4.945 3.227-4.945.906 0 2.222.359 2.769 1.289m10.903 3.297c.527 0 .574 0 .574-.453 0-2.415-1.289-4.661-4.184-4.661-2.722 0-4.824 2.461-4.824 5.426 0 3.153 2.437 5.473 5.09 5.473 2.844 0 3.918-2.582 3.918-3.082 0-.145-.121-.242-.262-.242-.191 0-.242.121-.285.242-.625 2.008-2.223 2.554-3.231 2.554-1 0-3.414-.667-3.414-4.804v-.453zm-6.594-.453c.191-3.75 2.293-4.18 2.961-4.18 2.558 0 2.703 3.367 2.726 4.18zm15.781-4.11c0-.43 0-.551-.242-.551-.188 0-.641.528-.813.743-.738-.598-1.48-.743-2.242-.743-2.894 0-3.754 1.579-3.754 2.891 0 .266 0 1.102.91 1.938.762.667 1.575.835 2.676 1.05 1.313.262 1.625.336 2.223.813.43.359.738.883.738 1.554 0 1.028-.597 2.172-2.699 2.172-1.578 0-2.723-.906-3.25-3.297-.094-.429-.094-.453-.117-.476-.051-.098-.145-.098-.215-.098-.266 0-.266.121-.266.551v3.25c0 .43 0 .551.239.551.121 0 .144-.024.55-.528.121-.167.121-.214.477-.597.91 1.125 2.199 1.125 2.605 1.125 2.508 0 3.75-1.387 3.75-3.274 0-1.293-.785-2.058-1-2.269-.863-.742-1.507-.887-3.086-1.176-.714-.141-2.46-.476-2.46-1.91 0-.738.503-1.84 2.656-1.84 2.601 0 2.746 2.223 2.793 2.965.023.191.191.191.261.191.266 0 .266-.121.266-.55zm10.582 3.727c0-1.289 0-2.246-1.047-3.18-.84-.762-1.914-1.098-2.965-1.098-1.961 0-3.464 1.293-3.464 2.844 0 .692.453 1.027 1.003 1.027.575 0 .981-.406.981-.98 0-.98-.863-.98-1.219-.98.551-1 1.695-1.43 2.653-1.43 1.097 0 2.507.906 2.507 3.055v.957c-4.804.074-6.617 2.082-6.617 3.918 0 1.89 2.195 2.488 3.656 2.488 1.575 0 2.653-.957 3.106-2.106.094 1.125.836 1.985 1.863 1.985.5 0 1.887-.336 1.887-2.246v-1.34h-.524v1.34c0 1.363-.574 1.554-.91 1.554-.91 0-.91-1.269-.91-1.625zm-1.551 3.011c0 2.34-1.742 3.129-2.773 3.129-1.168 0-2.149-.859-2.149-2.007 0-3.153 4.063-3.442 4.922-3.489zm39.641-6.238h2.699v-.691h-2.746v-2.797c0-2.149 1.098-3.25 2.078-3.25.192 0 .551.051.836.191-.094.024-.695.239-.695.934 0 .551.383.93.933.93.575 0 .957-.379.957-.954 0-.886-.859-1.578-2.007-1.578-1.672 0-3.563 1.289-3.563 3.727v2.797h-1.863v.691h1.863v7.84c0 1.074-.262 1.074-1.812 1.074v.696c.668-.051 1.98-.051 2.699-.051.644 0 2.34 0 2.89.051v-.696h-.476c-1.746 0-1.793-.261-1.793-1.121zm12.211 3.227c0-1.289 0-2.246-1.051-3.18-.836-.762-1.91-1.098-2.961-1.098-1.961 0-3.465 1.293-3.465 2.844 0 .692.453 1.027 1.004 1.027.574 0 .981-.406.981-.98 0-.98-.864-.98-1.219-.98.547-1 1.695-1.43 2.648-1.43 1.102 0 2.512.906 2.512 3.055v.957c-4.805.074-6.617 2.082-6.617 3.918 0 1.89 2.195 2.488 3.652 2.488 1.578 0 2.657-.957 3.11-2.106.093 1.125.836 1.985 1.863 1.985.5 0 1.887-.336 1.887-2.246v-1.34h-.524v1.34c0 1.363-.574 1.554-.91 1.554-.91 0-.91-1.269-.91-1.625zm-1.551 3.011c0 2.34-1.742 3.129-2.773 3.129-1.168 0-2.149-.859-2.149-2.007 0-3.153 4.063-3.442 4.922-3.489zm8.285-11.351c0-.621-.5-1.168-1.168-1.168-.621 0-1.148.5-1.148 1.144 0 .715.574 1.172 1.148 1.172.739 0 1.168-.621 1.168-1.148m-3.297 4.445v.692c1.532 0 1.746.144 1.746 1.316v6.5c0 1.074-.261 1.074-1.816 1.074v.696c.668-.051 1.816-.051 2.508-.051.266 0 1.648 0 2.461.051v-.696c-1.551 0-1.649-.121-1.649-1.051v-8.793zm10.039 1.121c0-.64-.55-1.144-1.148-1.144-.695 0-1.172.551-1.172 1.144 0 .719.598 1.172 1.149 1.172.644 0 1.171-.5 1.171-1.172m0 7.985c0-.645-.55-1.149-1.148-1.149-.695 0-1.172.551-1.172 1.149a1.17 1.17 0 0 0 1.149 1.172 1.16 1.16 0 0 0 1.171-1.172m-272.609-99.313-3.32.262v.691c1.625 0 1.816.168 1.816 1.34v14.289h.528c.093-.191.761-1.387.859-1.551.547.883 1.574 1.789 3.105 1.789 2.75 0 5.161-2.316 5.161-5.398 0-3.035-2.243-5.379-4.899-5.379-1.312 0-2.437.598-3.25 1.602zm.051 8.938c0-.434 0-.481.262-.864.574-.859 1.625-1.55 2.796-1.55.715 0 3.223.285 3.223 4.875 0 1.601-.238 2.601-.808 3.464-.481.739-1.434 1.481-2.629 1.481-1.293 0-2.129-.836-2.536-1.481-.308-.503-.308-.597-.308-1.003zm13.07-8.938-3.32.262v.691c1.625 0 1.816.168 1.816 1.34v12.52c0 1.078-.265 1.078-1.816 1.078v.691c.668-.047 1.84-.047 2.555-.047.718 0 1.914 0 2.582.047v-.691c-1.532 0-1.817 0-1.817-1.078zm13.36 11.469c0-3.082-2.344-5.543-5.114-5.543-2.867 0-5.14 2.531-5.14 5.543 0 3.059 2.39 5.351 5.117 5.351 2.816 0 5.137-2.339 5.137-5.351m-5.114 4.824c-.886 0-1.961-.379-2.652-1.551-.649-1.074-.672-2.484-.672-3.488 0-.91 0-2.367.742-3.441a3.06 3.06 0 0 1 2.559-1.41c.93 0 1.933.429 2.578 1.363.742 1.097.742 2.605.742 3.488 0 .836 0 2.316-.621 3.441-.668 1.149-1.769 1.598-2.676 1.598m15.094-8.551c-.285 0-1.172 0-1.172.977 0 .574.406.98.981.98.55 0 1.004-.332 1.004-1.027 0-1.602-1.672-2.746-3.61-2.746-2.793 0-5.015 2.484-5.015 5.496 0 3.059 2.292 5.398 4.992 5.398 3.156 0 3.871-2.867 3.871-3.082s-.168-.214-.238-.214c-.215 0-.239.07-.309.359-.527 1.695-1.816 2.41-3.109 2.41-1.457 0-3.391-1.262-3.391-4.894 0-3.969 2.031-4.95 3.223-4.95.91 0 2.226.36 2.773 1.293m10.398 0c-.285 0-1.168 0-1.168.977 0 .574.407.98.981.98.547 0 1.004-.332 1.004-1.027 0-1.602-1.672-2.746-3.61-2.746-2.796 0-5.019 2.484-5.019 5.496 0 3.059 2.293 5.398 4.996 5.398 3.152 0 3.871-2.867 3.871-3.082s-.168-.214-.238-.214c-.219 0-.242.07-.313.359-.523 1.695-1.816 2.41-3.105 2.41-1.457 0-3.395-1.262-3.395-4.894 0-3.969 2.032-4.95 3.227-4.95.906 0 2.223.36 2.769 1.293m12.719 3.727c0-3.082-2.34-5.543-5.113-5.543-2.867 0-5.137 2.531-5.137 5.543 0 3.059 2.391 5.351 5.113 5.351 2.821 0 5.137-2.339 5.137-5.351m-5.113 4.824c-.883 0-1.957-.379-2.652-1.551-.645-1.074-.668-2.484-.668-3.488 0-.91 0-2.367.738-3.441a3.07 3.07 0 0 1 2.558-1.41c.934 0 1.938.429 2.583 1.363.742 1.097.742 2.605.742 3.488 0 .836 0 2.316-.625 3.441-.668 1.149-1.766 1.598-2.676 1.598m20.527-15.027c0-.551 0-.574-.476-.574-.575.644-1.77 1.527-4.231 1.527v.695c.551 0 1.746 0 3.059-.621v12.449c0 .86-.07 1.149-2.172 1.149h-.742v.691c.644-.047 2.961-.047 3.75-.047s3.086 0 3.726.047v-.691h-.738c-2.102 0-2.176-.289-2.176-1.149z"/></g></svg>