<svg xmlns="http://www.w3.org/2000/svg" width="443pt" height="166pt" viewBox="0 -166 443 166"><g id="page1"><path fill="#79ac14" d="M268.391-118.504c4.871-8.418 11.515-18.16 16.386-24.359 0-1.774-.441-3.543-.441-5.758-1.773-8.859-9.301-15.504-17.273-14.176-7.973 1.328-13.29 9.746-11.516 19.047.441 3.984 3.543 13.285 7.086 22.59 1.769.441 3.984 1.328 5.758 2.656"/><path fill="none" stroke="#000" stroke-linecap="round" stroke-linejoin="round" stroke-width="5.625" d="M268.391-118.504c4.871-8.418 11.515-18.16 16.386-24.359 0-1.774-.441-3.543-.441-5.758-1.773-8.859-9.301-15.504-17.273-14.176-7.973 1.328-13.29 9.746-11.516 19.047.441 3.984 3.543 13.285 7.086 22.59 1.769.441 3.984 1.328 5.758 2.656"/><path fill="#79ac14" d="M280.348-106.547c8.418-4.871 18.16-11.516 24.363-16.387 1.769 0 3.543.446 5.754.446 8.859 1.769 15.504 9.3 14.176 17.269-1.328 7.977-9.746 12.848-19.047 11.516-3.985-.441-13.285-3.54-22.586-7.086-.445-1.77-1.332-3.984-2.66-5.758"/><path fill="none" stroke="#000" stroke-linecap="round" stroke-linejoin="round" stroke-width="5.625" d="M280.348-106.547c8.418-4.871 18.16-11.516 24.363-16.387 1.769 0 3.543.446 5.754.446 8.859 1.769 15.504 9.3 14.176 17.269-1.328 7.977-9.746 12.848-19.047 11.516-3.985-.441-13.285-3.54-22.586-7.086-.445-1.77-1.332-3.984-2.66-5.758"/><path fill="#a4cd34" d="M275.035-113.188c2.211 1.77 3.985 3.985 5.313 6.641 11.074-5.758 24.804-15.941 28.789-19.93 6.644-6.644 7.09-16.386 1.328-22.144-5.313-5.758-15.5-4.871-22.145 1.328-3.984 3.984-13.73 17.715-19.929 28.789q3.984 1.993 6.644 5.316"/><path fill="none" stroke="#000" stroke-linecap="round" stroke-linejoin="round" stroke-width="5.625" d="M275.035-113.188c2.211 1.77 3.985 3.985 5.313 6.641 11.074-5.758 24.804-15.941 28.789-19.93 6.644-6.644 7.09-16.386 1.328-22.144-5.313-5.758-15.5-4.871-22.145 1.328-3.984 3.984-13.73 17.715-19.929 28.789q3.984 1.993 6.644 5.316"/><path fill="#f8c000" d="M275.035-113.188c-13.73-13.734-36.32-12.847-50.496 1.77-22.144 22.145-73.078 89.027-56.691 105.414 16.386 16.387 83.269-34.547 105.414-56.691 14.617-14.617 15.504-36.766 1.773-50.493"/><path fill="#d3a300" d="M275.035-113.188c5.754 12.844 2.656 29.231-8.418 40.305-20.816 20.817-81.051 66.438-101.871 58.906 0 3.543.887 6.2 3.102 7.973 16.386 16.387 83.269-34.547 105.414-56.691 14.617-14.176 15.504-36.766 1.773-50.493"/><g fill="none" stroke="#000" stroke-linecap="round" stroke-linejoin="round" stroke-width="5.625"><path d="M270.605-59.598s-13.289-4.43-26.574-17.714M217.898-63.14s-8.418-7.528-17.273-19.93m51.379 38.976s-11.074-3.101-18.16-10.187m3.543 20.816s-11.516-2.215-23.477-14.172m-30.558-9.3s4.871 9.3 14.613 17.273m16.39-60.68s2.657 7.973 10.184 15.5m-38.531 65.11s6.203 7.086 13.73 10.187m95.668-124.016-20.371 20.375m-4.43-28.347 2.657 15.058m30.117 17.715-15.059-2.656"/><path d="M275.035-113.188c-13.73-13.734-36.32-12.847-50.496 1.77-22.144 22.145-73.078 89.027-56.691 105.414 16.386 16.387 83.269-34.547 105.414-56.691 14.617-14.617 15.504-36.766 1.773-50.493"/></g></g></svg>