<svg xmlns="http://www.w3.org/2000/svg" width="443pt" height="157pt" viewBox="0 -157 443 157"><g id="page1" fill-rule="evenodd"><path fill="#247040" d="M279.195-155.258c-1.148-.531-2.035.797-1.593 1.774.445 1.328 1.683.086 2.57.261 1.328-.086 2.922.18 4.074-.797 1.063-.972-.887-1.949-1.859-1.769-1.063.09-2.125.441-3.192.531m5.051 1.238c-1.328.887-4.605.356-5.933 1.243-.887.797.531 2.39.707 3.277.531 1.238.71 2.656.445 3.984-.445 2.926-1.949 5.493-3.192 8.153-3.101 6.64-6.644 13.019-9.566 19.84 1.859.71 3.633-.532 5.402-1.063 1.418-.352 1.86-1.945 2.215-3.187.266-1.329.531-2.571 1.242-3.719 2.657-5.938 5.758-11.696 8.414-17.629 1.063-3.012 1.684-6.203 1.594-9.301.711-2.394-.621-2.039-1.328-1.598m-42.344 25.071c-2.746.711-5.757.976-8.058 2.746 5.136.797 9.742 3.723 13.109 7.617 1.86 2.66 3.188 5.848 5.934 7.707 1.418 1.063 3.101 1.859 4.875 1.949 1.148 0 1.859-.972 2.832-1.504 1.683-1.242 2.039-3.632 3.808-4.785.977-2.039.18-4.429-.882-6.289-1.243-2.125-3.012-4.34-5.051-5.668-4.606-2.746-10.364-2.66-15.504-1.949-.352.09-.707.09-1.063.176m45.18 5.402c-5.141 3.457-11.34 4.695-17.187 6.559-1.86.527-3.629 1.328-5.137 2.656-2.215 1.859-3.809 4.871-3.188 7.883.442 1.773 2.215 3.367 4.075 2.746.972-.086 1.949-1.238 2.3-.086.356.883.621 2.125 1.864 2.125 4.605.441 9.211-1.508 12.402-4.785a15.27 15.27 0 0 0 4.516-8.946c.621-2.835.886-5.671 1.062-8.503-.176-.356-.621.085-.707.351m-45.621 3.192c-4.961 1.503-10.363 2.57-15.59 1.769-.445-1.504-2.836.09-1.062.711 2.211 3.012 5.578 4.961 8.945 6.289 3.012 0 5.668-1.418 8.504-1.949 1.328-.797 3.457-.621 4.961-1.153 1.328-.621-.887-2.746-1.328-3.542-.797-.973-1.508-1.774-2.746-2.215-.532-.176-1.153-.266-1.684.09m52.707 1.062c-2.215.531-4.695.973-6.113 2.922-.532.887-.797 2.039-.797 3.101 0 1.418 1.683 0 1.859.09-.797.973-1.769 1.684-2.656 2.567-.977 1.859-2.125 3.898-3.984 4.961-.887.976 0 2.304 1.148 2.48 1.063.356 2.129-.09 3.191-.266 5.934-1.062 10.719-5.316 16.653-6.554.972.621 2.125-.356 2.215-1.328.265-1.063-.266-2.039-1.153-2.657-1.062-1.152-1.949-2.484-3.277-3.457-2.039-1.504-4.606-2.39-7.086-1.859m29.41 1.238c-4.074 3.192-9.39 4.34-14.441 4.43-.883.18-2.125-.352-2.481.711-.351 1.148.621 2.301.09 3.363-.707.711-1.859.356-2.836.531-.797-.175-1.238.977-.265.711.531-.175 1.863 0 .796.532-.882.707.977.441 1.418.886 2.305.797 4.52 1.95 7 2.567 2.832-.176 5.137-2.211 7.352-3.899 2.746-2.656 4.695-6.64 4.074-10.539-.355 0-.355.621-.707.707m-26.308 11.696c-1.243.972-3.012.886-4.165 2.125-1.066 1.062 1.86.445 1.329 1.152-1.594-.707-1.594-.707-3.102.531-1.152 1.77.621 2.746 1.242 3.367 2.125 1.95 4.871 2.922 7.442 3.809 6.199 1.77 12.843 2.656 19.218 1.414 2.571-.527 5.051-1.414 7.266-2.656-1.238-1.418-3.277-.797-4.871-1.328-.887-.442-1.859-1.063-2.926-1.508-4.961-2.567-9.742-6.02-15.414-7.172-1.945-.445-4.074-.445-6.019.266"/><path fill="#d1242b" d="M227.375-106.715c-3.277 3.453-5.402 7.797-7.086 12.137-2.48 7.262-2.922 15.059-2.391 22.676.887 8.859 3.633 17.449 7.086 25.601 3.543 7.883 6.996 15.766 10.805 23.473 2.395 4.871 4.785 9.656 7.977 13.996 3.363 4.344 8.504 7.621 14.172 7.352 3.898 0 7.441-1.946 10.718-3.895 5.227-2.926 10.274-6.113 15.5-9.215 12.578-9.125 23.211-20.726 32.864-32.773 3.015-3.989 5.316-8.594 5.937-13.645.973-6.375.887-12.93-.441-19.308-.977-3.723-2.926-7.086-4.61-10.453-1.418-2.305-4.074-1.243-6.289-1.329-6.109-.355-12.312-1.863-17.629-5.05-1.593-1.329-2.39-3.278-3.629-4.872-2.304-1.683-5.406.622-7.707-1.062-1.949-1.063-4.254.176-5.937 1.152-3.012 1.328-6.731 1.328-9.477-.535-1.859-.707-4.164-.973-5.492-2.746.356-2.035-1.949-3.984-3.898-3.098-1.77.532-3.719-.621-5.227-1.593-1.683-.977-2.922-2.926-4.871-3.543-6.465.531-16.035 3.718-20.375 6.73"/><path d="M278.578-156.145c-2.305-.085-3.808 3.278-1.418 4.34 2.305 2.481 1.77 6.203.797 9.125-1.508 4.785-4.34 8.86-6.555 13.289-1.683 3.278-3.457 6.645-4.785 10.008-2.301-.351-1.683-3.277-3.097-4.515-3.457-4.43-9.125-6.645-14.707-6.825-5.668-.175-11.336.977-16.297 3.723.265 2.035 2.656 1.508 4.074 2.035 1.418 1.242 3.894 1.152 4.961 2.926-.711 1.594-2.836 1.328-4.254 1.684-2.832.441-5.668 1.328-8.594 1.152a9.37 9.37 0 0 1-6.023-2.215c-1.86.266.535 2.391.976 3.277 2.215 2.832 4.961 5.578 8.414 6.821-1.328 2.39-4.605 2.746-6.023 5.047-5.934 6.113-8.77 14.527-9.656 22.855-1.504 13.555 2.129 27.195 7.886 39.418 4.782 9.922 9.743 19.844 14.528 29.766 2.656 4.87 5.668 10.007 10.804 12.578 4.871 2.39 11.075 2.215 15.77-.707 6.289-3.192 12.223-6.735 18.246-10.278 13.91-9.3 25.246-21.879 35.078-35.343 3.367-5.137 5.141-11.25 6.027-17.364 1.059-8.68-.535-17.804-5.226-25.246-1.508-2.48 2.125-3.187 3.894-3.629 1.594-.62 5.407-1.418 4.165-3.722-1.86-1.153-4.25-.442-6.114-1.508-2.39-.973-4.515-2.391-6.73-3.539.441-2.039 2.836-1.863 4.25-2.926 3.011-2.746 5.847-6.199 6.379-10.363.711-1.504-.086-4.43-2.125-3.367-.887 1.593-2.657 2.304-4.254 2.835-4.16 1.684-8.68 1.86-13.02 2.571-2.39-2.481-4.785-5.406-8.414-5.848-2.926-.621-6.293 0-8.594 2.035-1.949-1.148-.355-3.453-.265-5.047.355-1.242-.887-3.187-1.86-1.418-2.214 2.04-5.226 2.657-7.886 3.809-1.328.266-2.922 1.508-4.075.356-.531-1.864.887-3.458 1.329-5.051 3.281-7.973 8.328-15.235 9.836-23.739.351-1.863 1.062-3.898.265-5.671-1.066-1.95-3.633-2.036-5.582-1.77-.711.09-1.418.266-2.125.441m.531.711c-2.214-.886-2.039 3.719.176 2.036 1.684-.176 4.606.355 5.403-1.329-.883-2.214-3.899-.796-5.579-.707m4.25 2.211c-1.418.977-4.515-.707-4.871 1.598.266 1.594 1.242 3.098 1.063 4.781-.086 2.836-1.238 5.492-2.305 8.063-3.187 7.176-7.437 13.816-10.539 21.082 2.125.711 4.164-.797 6.199-1.418 1.774-1.86 1.328-4.696 2.746-6.731 3.102-7.175 7.442-13.82 9.481-21.527.351-1.949.441-3.984.441-6.023-.797 0-1.504-.086-2.215.175m-41.457 24.098c-2.566.707-5.492.707-7.527 2.566 3.102.977 6.289 1.95 8.77 4.254 3.984 3.278 6.289 8.239 10.273 11.516 1.328 1.062 2.926 1.859 4.609 2.035 1.328-2.125-2.66-2.301-3.011-4.16-2.039-2.66-3.102-5.848-4.961-8.594 2.922 2.125 3.453 6.113 6.109 8.594 1.152 1.148 2.57 2.922 4.43 2.215 1.859-1.332 2.57-3.633 3.988-5.317.973-2.125-.445-4.339-1.418-6.203-2.215-3.808-6.379-6.465-10.809-6.996-3.453-.531-6.996-.441-10.453.09m45.18 5.402c-5.848 4.075-13.113 4.961-19.578 7.532-3.188 1.414-6.289 4.339-6.024 8.058 0 2.039 1.329 4.344 3.454 4.52 2.394-.266 3.011-3.102 4.605-4.43 3.367-3.012 7.887-4.254 11.52-6.91 1.328-.621-1.067 1.418-1.508 1.594-2.836 1.863-6.199 2.925-8.77 5.136-1.328.977-2.48 2.215-3.277 3.723.976.887.531 2.922 2.57 2.656 3.543.446 7.086-.972 10.008-2.922 3.012-2.039 5.316-5.226 6.203-8.859.883-3.012.973-6.199 1.68-9.301.09-.531-.266-1.238-.883-.797m-45.621 3.368c-4.961 1.503-10.277 2.39-15.5 1.593-.445-1.769-3.191.442-1.152.887 2.48 2.746 5.668 4.871 9.121 6.289 3.457-.887 6.91-2.215 10.453-2.48-.266-1.95-3.098-.446-4.516-.887-2.215 0-4.429 0-6.644-.176 3.898-.711 7.972-.355 11.957-.18 1.242 1.594 3.281-1.328 1.152-1.769-.973-1.684-2.48-4.52-4.871-3.277m52.707.882c-2.305.535-5.137 1.067-6.379 3.368-.355 1.066-1.418 4.339.797 3.011 3.633-2.301 8.418-2.301 12.402-.621-2.48 0-4.785-1.062-7.175-.617-2.747.355-5.668 1.418-7.352 3.719-.977 1.859-2.125 3.722-3.984 4.875-1.418 2.125 1.945 3.011 3.453 2.3 6.379-.796 11.34-5.492 17.539-6.73 1.949.973 2.922-2.129 1.769-3.367-1.238-.887-2.035-2.391-3.187-3.367-2.125-1.86-5.047-3.188-7.883-2.571m29.41 1.243c-4.519 3.632-10.543 4.605-16.211 4.429-2.129.797 1.153 4.34-1.597 4.52-.793.176-3.278-.18-2.657.797 4.871 0 9.657-.621 14.262-2.129-3.363 2.66-7.883 2.66-11.867 2.48-1.153-.531-2.219.797-.531.797 2.656.801 5.136 2.125 7.882 2.836 2.832-.176 5.137-2.215 7.262-3.898 2.836-2.657 4.785-6.555 4.164-10.54-.355 0-.355.618-.707.708m-77.422 5.05c-6.82.973-13.82 2.746-19.488 6.821-1.949 2.214-3.012 4.961-4.695 7.351-4.164 7.883-4.43 17.098-4.164 25.777.711 12.137 5.406 23.653 10.543 34.547 4.515 9.922 8.679 19.93 14.703 28.965 3.277 5.14 9.3 8.684 15.504 8.239 4.074-.352 7.707-2.477 11.16-4.426 5.226-3.278 10.543-6.203 15.59-9.657 10.543-7.796 19.578-17.363 28.082-27.285 4.25-5.047 8.324-10.718 9.39-17.449 1.239-6.555.973-13.375-.355-19.93-1.153-4.254-3.367-8.152-5.492-11.96-8.063.62-16.477-.887-23.297-5.227-1.684-1.418-2.125-3.719-3.989-4.961-2.3-.973-5.046.887-7.171-.707-1.95-1.152-4.079.266-5.848 1.152-2.926 1.328-6.645 1.414-9.391-.535-1.859-.797-4.164-.797-5.402-2.566 0-2.215-2.125-4.43-4.254-3.102-2.836.18-5.227-1.683-7.262-3.543-1.062-.887-2.57-2.39-4.164-1.504m-12.312 5.137c-2.571-.531-1.508 4.961.351 2.57.535-.621 1.684-3.808-.351-2.57m14.437.441c-1.859.446-1.949 4.075.18 3.989 2.125-.176 2.656-4.43.176-4.164-.09 0-.266.089-.356.175m.09.266c-2.656.356 0 5.141 1.328 2.395.621-.887.266-3.457-1.328-2.395m-15.058.18c-2.571.883 2.125 3.277 1.417.441-.089-.707-1.066-1.238-1.417-.441m63.957.621c-1.332.972-4.254 1.148-4.43 2.746 2.48.617 5.047 0 7.527.707 4.52 1.062 8.77 3.277 13.375 4.164 1.242.531-2.035.086-2.566-.09-5.492-.973-10.453-3.898-16.121-3.984-1.508-.711-5.141 0-3.813 2.211 1.863 2.66 5.051 3.898 7.973 4.96 5.672 1.774 11.605 2.66 17.453 2.04 3.453-.356 6.82-1.328 9.832-3.012-1.508-1.773-4.254-.355-5.848-1.86-6.289-2.835-11.867-7.62-18.957-8.417-1.504-.086-3.011 0-4.425.535m-64.934 6.906c-.621 1.684-2.746 4.074-.797 5.582 1.949.531 3.453-2.215 2.57-3.722.356 1.417-1.242 4.253-2.746 2.66-.976-2.125 1.328-3.633 2.301-5.137-.441-.09-.973.176-1.328.617m23.211 5.938c-1.863.707-.977 4.87 1.148 3.543 1.594-.801 1.332-4.786-.797-3.899l-.175.176zm.617-.27c-2.215.09-1.062 4.875.801 3.012.797-.883.973-3.274-.801-3.012m14.352 1.95c1.242 2.48-3.188 1.507-2.391.976-.09 2.304 4.164 1.152 2.656-.887 0-.176-.265-.621-.265-.09m16.211.445c-2.305.707-.266 5.312 1.593 3.097.711-.531.621-2.832.532-2.656 1.152 1.684-2.747 3.809-2.747 1.328-.265-.266 1.774-2.566.622-1.77m14.351 2.835c.442.618 2.922 1.86 1.414.176-.441-.265-.972-.355-1.414-.175m-60.945 1.594c1.328 1.68-3.012 2.746-2.215.618-2.039 2.214 3.809 2.48 2.301-.176 0-.09.09-1.063-.086-.442m61.121.086c-1.594 1.418-1.949 4.52 0 5.758 2.215-.086 2.746-3.012 1.859-4.605-.351-.708-1.062-1.504-1.859-1.153m-.621 1.242c-1.77 1.418.887 5.227 2.305 2.746.796-1.242-.09-4.253-1.95-3.277-.175.176-.265.356-.355.531M313.922-82c-2.125 1.328 1.683 5.137 2.215 2.215-.266-1.153-.977 1.77-1.949.441-.622-.797-.532-2.3-.266-2.656m-68.918 3.719c-1.328 1.508 2.391-.442.531-.352-.176 0-.355.176-.531.352m-19.043.531c-.801 1.773 3.543 1.773 1.859 3.813-.265 1.503-2.836 1.238-2.66-.27-1.148 1.684 2.129 2.66 2.746.887 1.508-1.684-1.238-3.364-.797-4.516.797-1.152-.882-.18-1.148.086m19.043 1.066c-1.594 1.063-1.063 4.606 1.152 4.426 1.684-.617 1.684-3.098.707-4.34-.351-.53-1.418-.883-1.859-.086m0 .352c-1.508.976-.266 3.723 1.418 3.367 1.418-.797.887-4.164-.887-3.808-.176.09-.355.265-.531.441m36.406.18c-2.39.796 0 5.136 1.774 3.097 1.328-1.152.086-4.96-1.774-3.097m.18.265c-2.66 1.153 2.125 4.25 1.859 1.153.266-.977-1.238-2.747-1.859-1.153m-18.07.973c-1.067 1.508-3.102 4.34-.977 5.668 1.773.445 2.57-2.477 2.305-3.188.617 2.04-3.368 3.543-2.746.797 0-1.238 2.214-2.746 1.769-3.277zm42.429 3.191c.531.442 1.684 3.188 1.594 1.149-.266-.617-.887-1.149-1.594-1.149m-.886 2.125c-1.86 1.149-3.098 3.895-1.86 5.934 1.774 1.152 3.633-1.063 3.719-2.656.18-1.063-.266-1.508-.266-.18 0 2.305-3.894 3.102-3.543.27.176-1.684 1.598-3.192 3.367-3.192-.355-.355-1.062-.621-1.417-.176m11.074 8.059c.09.71 2.301 1.95 1.328.445-.266-.355-.887-.71-1.328-.445m-84.774.71c-1.773 1.063 1.594 3.72 2.125 1.86-1.242 1.594-2.39-.707-2.125-1.86m43.758.267c-1.859.62-1.152 4.25.887 3.808 1.859-.621 1.949-4.52-.356-4.164l-.265.09zm.356 0c-2.657.44.175 5.046 1.328 2.3.531-.883.175-3.543-1.328-2.3m39.773 1.238c-1.418 1.242-1.508 4.43.621 4.785 2.215-.531 2.656-4.34.531-5.227-.441-.09-.886.09-1.152.442m.266.09c-2.301.797-.356 5.492 1.593 3.187.797-1.152.446-4.164-1.593-3.187m-70.602 2.57c.531 2.3-2.922.531-2.656.176-.266 2.48 4.34 1.593 3.012-.711-.266-.266-.356.355-.356.535m45.711-.355c-.18 1.062 1.859 2.746.887.706-.27-.265-.532-.53-.887-.706m-1.949 2.3c-1.949.711-2.305 5.051.355 4.52 1.949-.532 3.008-3.899.973-4.961-.531-.176-1.063.09-1.328.441m.09.446c-2.571.441-.536 5.226 1.414 2.921 1.152-.972.621-4.695-1.414-2.921m-30.297.441c-.977 1.418-2.215 3.809-.531 5.316 1.238.621 2.746-2.746 1.062-.797-2.305.266-2.125-2.921-.355-3.722.445-.352 1.242-1.77 0-.973zm-23.207 6.113c-.532 1.77 2.39-1.418.176-.09-.09 0-.09.09-.176.09m.351 1.328c-1.504 1.328-1.769 4.254.09 5.407 2.125.086 2.836-2.746 2.035-4.344-.351-.797-1.238-1.86-2.125-1.063m.356-.086c-1.504.973-1.86 4.075.176 4.516 1.773-.176 1.949-2.656 1.066-3.898a1.56 1.56 0 0 0-1.242-.618m65.551 3.364c.445.531 1.683 3.277 1.769 1.328-.262-.707-.883-1.418-1.769-1.328m-1.774 2.836c-1.414 1.328-2.125 4.074-.351 5.402 1.949.355 3.187-1.86 3.277-3.633.441-1.504-1.859-3.808-2.926-1.77m.27.09c-2.039.882-1.508 5.667 1.148 4.074 1.598-.887 1.774-4.871-.617-4.52l-.266.176zm-21.618 4.87c-2.214.618-1.503 5.403.977 3.72 1.238-.883 1.328-4.516-.977-3.72m-34.015.442c-1.594 1.063-.617 4.695 1.597 3.898 1.504-1.062.797-4.87-1.417-4.074-.09 0-.18.086-.18.176m34.015-.09c-2.746.535.356 5.23 1.418 2.215.446-.883 0-3.277-1.418-2.215m-33.835.09c-2.215 1.063.972 5.14 1.769 2.395.266-1.067-.441-3.016-1.769-2.395m20.019.977c-2.394.796-.355 5.578 1.414 3.277.621-1.152.09-.887-.441-.18-2.746.621-1.95-4.34.621-3.187.797-.442-1.86-.797-1.594.09m13.375 11.425c2.035 1.418-1.949 5.137-2.215 2.391.176-.621.887-2.48-.355-1.238-1.328 1.77 1.859 4.164 2.746 1.86.445-.888.976-2.392-.176-3.013m-24.98 3.278c-2.125.62-.973 5.05 1.152 3.543 1.684-.887 1.152-5.317-1.152-3.543m.441-.266c-2.48.355-.352 5.227 1.152 2.656.532-.972.532-3.277-1.152-2.656m10.719 7.531c-2.301.707-.707 5.313 1.328 3.543.445-.62 1.152-2.66.445-.886-1.508 1.503-3.633-1.063-1.773-2.215.265-.176.621-1.063 0-.442"/><path fill="#ffc13f" d="M248.371-107.156c-2.746.621.973 4.691 1.418 1.593.352-.886-.355-2.921-1.418-1.593m-15.68.531c-.976 2.301 3.543.09 1.239-.711-.442.09-.883.356-1.239.711m-.445 8.59c-2.125.266-.797 4.52.977 3.012.972-.797.886-4.075-.977-3.012m23.652 4.43c-2.746.445.797 4.874 1.418 1.859.356-.883-.175-3.188-1.418-1.86m13.024.445c-2.656.972 1.949 4.34 1.418 1.148 0-.707-.711-1.949-1.418-1.148m-45.356 1.238c-2.035 1.153 2.125 2.922 1.243.621.086-.71-1.067-1.683-1.243-.62m63.336.531c-2.566 1.063 1.774 4.52 1.774 1.329.265-.887-.887-2.747-1.774-1.329m-48.363 3.723c-2.394.531 1.328 3.895 1.328 1.328.617-.797-.797-2.926-1.328-1.328m62.359 1.414c-1.152 1.067-.617 4.078 1.153 3.813 1.859-.711 1.062-4.61-1.063-3.813zm13.29 4.344c-2.215 1.594 2.921 3.363 1.593.707-.176-.621-1.062-1.594-1.593-.707m-87.61 5.226c-2.39.266-.617 5.137.977 2.746.441-.976.265-2.66-.977-2.746m18.426.266c-1.684.973.355 4.34 1.773 2.922.883-1.063-.089-4.164-1.773-2.922m36.672.617c-2.656 1.242 2.304 3.899 1.683.797.18-.883-1.328-2.39-1.683-.797m-18.778 2.746c-2.746.532.887 4.961 1.418 1.864.352-.887-.179-3.192-1.418-1.864m41.543 4.34c-1.859.887-1.328 5.496 1.153 3.813 1.508-.977 1.594-4.52-.707-4.164l-.176.09zm-72.461 7.176c-2.125 1.242 2.129 3.988 1.684 1.066.09-.8-1.062-2.215-1.684-1.066m43.407 1.242c-2.657.621 1.152 4.606 1.508 1.684.531-.887-.446-3.278-1.508-1.684m40.574.797c-1.508.531-1.684 3.633.086 3.898 1.773-.18 1.949-3.898-.086-3.898m-72.731 1.328c-2.39 1.328 2.305 3.899 1.598 1.063.086-.797-1.062-2.215-1.598-1.063m45.801 3.719c-1.773.27-1.683 3.281 0 3.547 1.684-.18 2.481-3.457.617-3.813a.8.8 0 0 0-.617.266m-30.828 2.305c-2.656.796 1.418 4.43 1.594 1.507.355-.886-.707-2.925-1.594-1.507m-22.676 6.289c-2.129 1.062.176 5.402 1.77 3.011.711-1.152 0-4.074-1.77-3.011m64.489 5.757c-2.039.887-1.067 5.582 1.238 3.723 1.508-.977 1.508-4.605-.797-4.078l-.176.18zm-55.368 5.317c-2.39.972 1.332 4.96 1.684 1.95.09-.888-.531-2.481-1.684-1.95m33.575.086c-2.657.886 1.683 4.343 1.683 1.418.356-.883-.797-2.832-1.683-1.418m-12.934.535c-2.746.176-.266 5.312.887 2.21.355-.796.265-2.21-.887-2.21m11.16 12.488c-2.656 1.328 2.215 3.988 1.864.973.351-1.149-1.418-2.567-1.864-.973m-23.297 2.656c-2.746.622 1.243 4.61 1.508 1.598.266-.797-.621-3.101-1.508-1.598m11.25 7.356c-2.746.797 1.418 4.516 1.594 1.504.27-.797-.707-2.922-1.594-1.504"/></g></svg>