<svg xmlns="http://www.w3.org/2000/svg" width="376" height="122pt" viewBox="0 -122 282 122"><g id="page1"><path fill="none" stroke="#000" stroke-linecap="round" stroke-linejoin="round" stroke-width="1.3" d="M.648-.648v-120m40 120v-120m40 120v-120m40 120v-120m40 120v-120m40 120v-120m40 120v-120m40 120v-120m-280 120h280m-280-40h280m-280-40h280m-280-40h280"/><path fill="#ffffb2" d="M4.648-84.648h32v-32h-32Z"/><path fill="#ffb2b2" d="M44.648-84.648h32v-32h-32Zm-40 40h32v-32h-32Zm80 0h32v-32h-32Zm40-40h32v-32h-32Z"/><path fill="#b2ffb2" d="M84.648-84.648h32v-32h-32Zm-80 80h32v-32h-32Zm160 0h32v-32h-32Zm80-80h32v-32h-32Z"/><path fill="#d9d9d9" d="M164.648-84.648h32v-32h-32Zm-120 40h32v-32h-32Zm40 40h32v-32h-32Zm120-40h32v-32h-32Z"/><path fill="#b2b2ff" d="M204.648-84.648h32v-32h-32Zm-160 80h32v-32h-32Z"/><path fill="#b2e8e8" d="M124.648-44.648h32v-32h-32Z"/><path fill="#ffd9b2" d="M164.648-44.648h32v-32h-32Zm-40 40h32v-32h-32Zm80 0h32v-32h-32Zm40-40h32v-32h-32Z"/><path fill="#e4b2e8" d="M244.648-4.648h32v-32h-32Z"/><path d="M24.887-20.062c.562 0 1.074 0 1.074-.997 0-3.144-1.773-5.671-5.137-5.671-3.117 0-5.617 2.687-5.617 5.968a5.996 5.996 0 0 0 6.02 6.024c3.468 0 4.734-2.395 4.734-3.094 0-.16-.055-.754-.887-.754-.512 0-.672.191-.832.594-.676 1.558-2.422 1.695-2.933 1.695-2.23 0-4.004-1.695-4.301-3.765zm-7.852-1.477c.348-2.29 2.098-3.633 3.79-3.633 2.69 0 3.253 2.285 3.363 3.633zm.996-46.188c0-.832-.164-1.101-1.078-1.101H15.18c-.375 0-1.078 0-1.078.781 0 .778.703.778 1.078.778h1.101v13.765c0 .484 0 1.106.887 1.106.863 0 .863-.567.863-1.344.64.722 1.637 1.504 3.145 1.504 2.847 0 5.347-2.555 5.347-5.969 0-3.309-2.257-5.941-5.054-5.941-1.961 0-3.2 1.18-3.438 1.449zm0 8.176c0-1.535 1.504-3.039 3.25-3.039 1.938 0 3.496 1.961 3.496 4.383 0 2.582-1.828 4.41-3.738 4.41-2.016 0-3.008-2.289-3.008-3.633zm0-48.176c0-.832-.164-1.101-1.078-1.101H15.18c-.375 0-1.078 0-1.078.781 0 .777.703.777 1.078.777h1.101v13.766c0 .485 0 1.106.887 1.106.863 0 .863-.567.863-1.344.64.723 1.637 1.504 3.145 1.504 2.847 0 5.347-2.555 5.347-5.969 0-3.309-2.257-5.941-5.054-5.941-1.961 0-3.2 1.179-3.438 1.449zm0 8.176c0-1.535 1.504-3.039 3.25-3.039 1.938 0 3.496 1.961 3.496 4.383 0 2.582-1.828 4.41-3.738 4.41-2.016 0-3.008-2.289-3.008-3.633zM65.96-17.832c0-.7-.67-.7-.886-.7-.62 0-.726.22-.863.595-.59 1.476-1.906 1.64-2.55 1.64-2.286 0-4.224-1.91-4.224-4.41 0-1.371.782-4.465 4.301-4.465.727 0 1.293.055 1.535.082.188.055.215.082.215.215.078 1.102.914 1.129 1.075 1.129.593 0 1.101-.402 1.101-1.129 0-1.855-2.715-1.855-3.898-1.855-4.598 0-6.078 3.765-6.078 6.023 0 3.277 2.503 5.969 5.73 5.969 3.601 0 4.543-2.66 4.543-3.094m-1.023-49.895c0-.832-.16-1.101-1.075-1.101H62.09c-.38 0-1.074 0-1.074.781 0 .778.695.778 1.074.778h1.101v4.464c-.43-.43-1.53-1.343-3.172-1.343-2.851 0-5.324 2.578-5.324 5.968 0 3.305 2.313 5.942 5.082 5.942 1.746 0 2.903-1.051 3.414-1.64 0 1.128 0 1.48 1.075 1.48h1.777c.375 0 1.074 0 1.074-.782 0-.78-.699-.78-1.074-.78h-1.106zm-1.747 10.22c0 1.503-1.238 3.71-3.254 3.71-1.937 0-3.496-1.965-3.496-4.383 0-2.582 1.828-4.41 3.739-4.41 1.75 0 3.011 1.586 3.011 2.985zm-5.16-50.22c0-.832-.164-1.101-1.078-1.101H55.18c-.375 0-1.078 0-1.078.781 0 .777.703.777 1.078.777h1.101v13.766c0 .485 0 1.106.887 1.106.863 0 .863-.567.863-1.344.64.723 1.637 1.504 3.145 1.504 2.847 0 5.347-2.555 5.347-5.969 0-3.309-2.257-5.941-5.054-5.941-1.961 0-3.2 1.179-3.438 1.449zm0 8.176c0-1.535 1.504-3.039 3.25-3.039 1.938 0 3.496 1.961 3.496 4.383 0 2.582-1.828 4.41-3.738 4.41-2.016 0-3.008-2.289-3.008-3.633zM100.34-22.43h3.254c.375 0 1.078 0 1.078-.78 0-.778-.703-.778-1.078-.778h-3.254v-1.344c0-2.098 1.883-2.098 2.746-2.098 0 .055.211 1.047 1.102 1.047.429 0 1.046-.32 1.046-1.074 0-1.531-2.043-1.531-2.445-1.531-2.043 0-4.195 1.156-4.195 3.547v1.453H95.93c-.375 0-1.102 0-1.102.777 0 .781.7.781 1.078.781h2.688v8.47h-2.555c-.375 0-1.074 0-1.074.78 0 .782.7.782 1.074.782h6.856c.378 0 1.074 0 1.074-.782 0-.78-.696-.78-1.074-.78h-2.555zm0-40h3.254c.375 0 1.078 0 1.078-.78 0-.778-.703-.778-1.078-.778h-3.254v-1.344c0-2.098 1.883-2.098 2.746-2.098 0 .055.211 1.047 1.102 1.047.429 0 1.046-.32 1.046-1.074 0-1.531-2.043-1.531-2.445-1.531-2.043 0-4.195 1.156-4.195 3.547v1.453H95.93c-.375 0-1.102 0-1.102.777 0 .781.7.781 1.078.781h2.688v8.47h-2.555c-.375 0-1.074 0-1.074.78 0 .782.7.782 1.074.782h6.856c.378 0 1.074 0 1.074-.782 0-.78-.696-.78-1.074-.78h-2.555zm0-40h3.254c.375 0 1.078 0 1.078-.781 0-.777-.703-.777-1.078-.777h-3.254v-1.344c0-2.098 1.883-2.098 2.746-2.098 0 .051.211 1.047 1.102 1.047.429 0 1.046-.32 1.046-1.074 0-1.531-2.043-1.531-2.445-1.531-2.043 0-4.195 1.156-4.195 3.547v1.453H95.93c-.375 0-1.102 0-1.102.777 0 .781.7.781 1.078.781h2.688v8.47h-2.555c-.375 0-1.074 0-1.074.78 0 .782.7.782 1.074.782h6.856c.378 0 1.074 0 1.074-.782 0-.78-.696-.78-1.074-.78h-2.555zm40 80h3.254c.375 0 1.078 0 1.078-.78 0-.778-.703-.778-1.078-.778h-3.254v-1.344c0-2.098 1.883-2.098 2.746-2.098 0 .055.211 1.047 1.102 1.047.429 0 1.046-.32 1.046-1.074 0-1.531-2.043-1.531-2.445-1.531-2.043 0-4.195 1.156-4.195 3.547v1.453h-2.664c-.375 0-1.102 0-1.102.777 0 .781.699.781 1.078.781h2.688v8.47h-2.555c-.375 0-1.074 0-1.074.78 0 .782.699.782 1.074.782h6.856c.378 0 1.074 0 1.074-.782 0-.78-.696-.78-1.074-.78h-2.555zm0-40h3.254c.375 0 1.078 0 1.078-.78 0-.778-.703-.778-1.078-.778h-3.254v-1.344c0-2.098 1.883-2.098 2.746-2.098 0 .055.211 1.047 1.102 1.047.429 0 1.046-.32 1.046-1.074 0-1.531-2.043-1.531-2.445-1.531-2.043 0-4.195 1.156-4.195 3.547v1.453h-2.664c-.375 0-1.102 0-1.102.777 0 .781.699.781 1.078.781h2.688v8.47h-2.555c-.375 0-1.074 0-1.074.78 0 .782.699.782 1.074.782h6.856c.378 0 1.074 0 1.074-.782 0-.78-.696-.78-1.074-.78h-2.555zm-2.309-45.297c0-.832-.164-1.101-1.078-1.101h-1.773c-.375 0-1.078 0-1.078.781 0 .777.703.777 1.078.777h1.101v13.766c0 .485 0 1.106.887 1.106.863 0 .863-.567.863-1.344.641.723 1.637 1.504 3.145 1.504 2.847 0 5.347-2.555 5.347-5.969 0-3.309-2.257-5.941-5.054-5.941-1.961 0-3.199 1.179-3.438 1.449zm0 8.176c0-1.535 1.504-3.039 3.25-3.039 1.938 0 3.496 1.961 3.496 4.383 0 2.582-1.828 4.41-3.738 4.41-2.016 0-3.008-2.289-3.008-3.633zM180.34-22.43h3.254c.375 0 1.078 0 1.078-.78 0-.778-.703-.778-1.078-.778h-3.254v-1.344c0-2.098 1.883-2.098 2.746-2.098 0 .055.211 1.047 1.102 1.047.429 0 1.046-.32 1.046-1.074 0-1.531-2.043-1.531-2.445-1.531-2.043 0-4.195 1.156-4.195 3.547v1.453h-2.664c-.375 0-1.102 0-1.102.777 0 .781.699.781 1.078.781h2.688v8.47h-2.555c-.375 0-1.074 0-1.074.78 0 .782.699.782 1.074.782h6.856c.378 0 1.074 0 1.074-.782 0-.78-.696-.78-1.074-.78h-2.555zm4.492-40.105c0-2.043-1.535-4.196-5.164-4.196-1.129 0-3.738 0-3.738 1.856 0 .727.511 1.129 1.105 1.129.16 0 1.047-.055 1.074-1.184 0-.132.028-.16.594-.214.32-.028.668-.028.992-.028.618 0 1.532 0 2.422.672.969.754.969 1.508.969 2.285-1.59.055-3.148.164-4.816.7-1.344.456-3.063 1.425-3.063 3.253 0 1.91 1.691 3.524 4.191 3.524.864 0 2.532-.137 3.926-1.102.539.887 1.883.942 2.906.942.645 0 1.29 0 1.29-.782 0-.78-.7-.78-1.075-.78-.699 0-1.238-.052-1.613-.216zm-1.746 4.086c0 .617 0 1.183-1.106 1.695-.941.457-2.203.457-2.285.457-1.586 0-2.742-.86-2.742-1.965 0-1.586 2.875-2.5 6.133-2.5zm1.746-44.086c0-2.043-1.535-4.195-5.164-4.195-1.129 0-3.738 0-3.738 1.855 0 .727.511 1.129 1.105 1.129.16 0 1.047-.055 1.074-1.184 0-.133.028-.16.594-.215.32-.027.668-.027.992-.027.618 0 1.532 0 2.422.676.969.75.969 1.504.969 2.281-1.59.055-3.148.164-4.816.699-1.344.457-3.063 1.426-3.063 3.254 0 1.91 1.691 3.524 4.191 3.524.864 0 2.532-.137 3.926-1.102.539.887 1.883.942 2.906.942.645 0 1.29 0 1.29-.782 0-.78-.7-.78-1.075-.78-.699 0-1.238-.052-1.613-.216zm-1.746 4.086c0 .617 0 1.183-1.106 1.695-.941.457-2.203.457-2.285.457-1.586 0-2.742-.86-2.742-1.965 0-1.586 2.875-2.5 6.133-2.5zm41.801 78.387c.562 0 1.074 0 1.074-.997 0-3.144-1.773-5.671-5.137-5.671-3.117 0-5.617 2.687-5.617 5.968a5.996 5.996 0 0 0 6.02 6.024c3.468 0 4.734-2.395 4.734-3.094 0-.16-.055-.754-.887-.754-.511 0-.672.191-.832.594-.676 1.558-2.422 1.695-2.933 1.695-2.231 0-4.004-1.695-4.301-3.765zm-7.852-1.477c.348-2.29 2.098-3.633 3.789-3.633 2.692 0 3.254 2.285 3.364 3.633zm7.852-38.523c.562 0 1.074 0 1.074-.997 0-3.144-1.773-5.672-5.137-5.672-3.117 0-5.617 2.688-5.617 5.97a5.996 5.996 0 0 0 6.02 6.023c3.468 0 4.734-2.395 4.734-3.094 0-.16-.055-.754-.887-.754-.511 0-.672.191-.832.594-.676 1.558-2.422 1.695-2.933 1.695-2.231 0-4.004-1.695-4.301-3.766zm-7.852-1.477c.348-2.29 2.098-3.633 3.789-3.633 2.692 0 3.254 2.285 3.364 3.633zm.996-46.188c0-.832-.164-1.101-1.078-1.101h-1.773c-.375 0-1.078 0-1.078.781 0 .777.703.777 1.078.777h1.101v13.766c0 .485 0 1.106.887 1.106.863 0 .863-.567.863-1.344.641.723 1.637 1.504 3.145 1.504 2.847 0 5.347-2.555 5.347-5.969 0-3.309-2.257-5.941-5.054-5.941-1.961 0-3.199 1.179-3.438 1.449zm0 8.176c0-1.535 1.504-3.039 3.25-3.039 1.938 0 3.496 1.961 3.496 4.383 0 2.582-1.828 4.41-3.738 4.41-2.016 0-3.008-2.289-3.008-3.633zm46.801 77.016c0-2.043-1.535-4.195-5.164-4.195-1.129 0-3.738 0-3.738 1.855 0 .727.511 1.129 1.105 1.129.16 0 1.047-.055 1.074-1.184 0-.133.028-.16.594-.215.32-.027.668-.027.992-.027.618 0 1.532 0 2.422.672.969.754.969 1.508.969 2.285-1.59.055-3.148.164-4.816.7-1.344.456-3.063 1.425-3.063 3.253 0 1.91 1.691 3.524 4.191 3.524.864 0 2.532-.137 3.926-1.102.539.887 1.883.942 2.906.942.645 0 1.29 0 1.29-.782 0-.78-.7-.78-1.075-.78-.699 0-1.238-.052-1.613-.216zm-1.746 4.086c0 .617 0 1.183-1.106 1.695-.941.457-2.203.457-2.285.457-1.586 0-2.742-.86-2.742-1.965 0-1.586 2.875-2.5 6.133-2.5zm1.746-44.086c0-2.043-1.535-4.196-5.164-4.196-1.129 0-3.738 0-3.738 1.856 0 .727.511 1.129 1.105 1.129.16 0 1.047-.055 1.074-1.184 0-.132.028-.16.594-.214.32-.028.668-.028.992-.028.618 0 1.532 0 2.422.672.969.754.969 1.508.969 2.285-1.59.055-3.148.164-4.816.7-1.344.456-3.063 1.425-3.063 3.253 0 1.91 1.691 3.524 4.191 3.524.864 0 2.532-.137 3.926-1.102.539.887 1.883.942 2.906.942.645 0 1.29 0 1.29-.782 0-.78-.7-.78-1.075-.78-.699 0-1.238-.052-1.613-.216zm-1.746 4.086c0 .617 0 1.183-1.106 1.695-.941.457-2.203.457-2.285.457-1.586 0-2.742-.86-2.742-1.965 0-1.586 2.875-2.5 6.133-2.5zm1.801-41.614c.562 0 1.074 0 1.074-.996 0-3.144-1.773-5.671-5.137-5.671-3.117 0-5.617 2.687-5.617 5.968a5.996 5.996 0 0 0 6.02 6.024c3.468 0 4.734-2.395 4.734-3.094 0-.16-.055-.754-.887-.754-.511 0-.672.192-.832.594-.676 1.558-2.422 1.695-2.933 1.695-2.231 0-4.004-1.695-4.301-3.766zm-7.852-1.476c.348-2.289 2.098-3.633 3.789-3.633 2.692 0 3.254 2.285 3.364 3.633z"/></g></svg>