<svg xmlns="http://www.w3.org/2000/svg" width="142pt" height="71pt" viewBox="0 -71 142 71"><g id="page1"><path fill="#f2f2f2" d="M140.953-35.219c0-19.37-31.41-35.078-70.156-35.078-38.75 0-70.16 15.707-70.16 35.078C.637-15.844 32.047-.14 70.797-.14c38.746 0 70.156-15.703 70.156-35.078"/><path fill-rule="evenodd" d="M67.04-70.508c-9.071.352-18.142 1.344-26.435 3.328-4.96 1.137-9.636 2.625-13.89 4.36-5.809 2.375-10.984 5.066-15.024 8.218-4.816 3.547-8.218 7.586-10.062 11.766-2.125 5.066-2.266 10.348.14 15.344 2.2 4.96 6.594 9.637 12.758 13.64 3.614 2.34 7.868 4.465 12.473 6.344 6.094 2.446 12.969 4.39 20.41 5.598 5.738.992 11.762 1.664 17.86 1.879 5.382.07 10.84.07 16.156-.32 11.691-.922 23.031-3.223 32.312-6.946 9.356-3.613 16.938-8.433 21.758-13.82 2.766-3.012 4.395-6.27 5.387-9.531.496-2.551.426-5.137.211-7.688-.496-3.117-2.055-6.2-4.11-9.176-3.187-4.078-7.511-7.937-13.535-11.129-3.543-1.91-7.301-3.754-11.621-5.242-11.058-4.074-24.594-6.379-38.27-6.59-2.195-.035-4.324-.07-6.519-.035m-.778 1.203c-5.387.286-10.703.637-15.805 1.489-5.742.886-11.27 2.16-16.441 3.757-1.914.352-1.63 1.414-1.774 2.266-.07.672-.636 1.914 1.489 1.844 4.538.176 9.074.246 13.539.742 2.054.215 4.18.46 6.164.852 4.394-1.383 8.859-2.766 13.746-3.723 3.687-.813 7.656-1.274 11.625-1.629.351-1.7 1.273-3.367 1.629-5.102-.922-.566-3.262-.39-4.75-.496-3.118-.07-6.305-.07-9.422 0m-39.403 7.868c-9.922 4.214-17.574 9.777-21.472 15.98-.145.316-.852 1.133-.496 1.203 2.62-.852 5.172-1.7 7.793-2.55 2.34-3.012 5.03-5.989 8.789-8.645 2.34-1.559 4.96-3.047 8.218-4.149.782-.636 0-1.558.215-2.336.282-1.382-2.125.317-3.047.496m50.032-.922c-7.512.742-14.598 2.445-20.907 4.605-1.629.461-1.277 1.488-1.558 2.305-.711 3.363-1.278 6.765-1.489 10.168-.07.32-.14.636.567.816 4.75 2.16 10.348 3.79 15.805 5.457 2.761.778 5.382 1.664 8.148 2.371 2.055.39 4.11-.246 6.094-.566 6.023-1.203 11.765-2.691 17.574-4.18 1.703-.355 3.473-.922 3.191-1.984.637-3.403.707-6.875.567-10.313.211-.847-.641-1.629-1.985-2.16-4.535-2.234-10.417-3.613-16.085-5.066-2.41-.567-4.75-1.278-7.372-1.559q-1.278 0-2.55.106m38.906 6.308c-2.906.387-5.742.953-8.578 1.485-.141 3.793-.071 7.62-.567 11.41-.07.46-.422.957-.351 1.418 4.605 3.117 9.496 6.203 13.32 9.601.496.676 1.207 1.524 2.977 1.028 3.757-.387 7.726-.672 11.129-1.664 2.054-.567 1.91-1.844 2.336-2.836.636-2.055 1.347-4.145 1.558-6.235-.426-2.234-2.125-4.36-3.754-6.449-1.558-1.7-2.906-3.508-5.457-4.926-2.34-1.097-4.82-2.195-7.582-3.047-1.633-.28-3.402.035-5.031.215M10.133-44.75c-2.832.992-5.953 2.125-6.871 3.898-.782 1.7-.711 3.438-.852 5.172-.285 3.543.852 7.16 2.977 10.559.851 1.523 2.48 2.976 4.96 3.969 1.489.675 2.977 1.347 4.676 1.879 1.774-.532 3.188-1.313 5.032-1.77 1.703-.57 3.543-.992 5.172-1.598-.07-1.027-.778-2.02-.918-3.047-.57-3.222-.145-6.449.707-9.636.21-.672.355-1.348.566-2.02-4.535-2.234-9.355-4.5-11.977-7.476-.28-.602-1.132-.887-2.054-.356-.496.145-.922.285-1.418.426m36.426 2.234c-5.953 1.594-11.977 3.153-17.715 4.922-1.703.57-1.278 1.774-1.703 2.66-.707 3.153-1.063 6.34-.496 9.532.496 1.238.566 2.691 2.55 3.613 3.403 1.664 7.586 2.836 11.625 4.004 3.614.992 7.157 2.055 10.985 2.765 1.984.176 3.968-.285 5.738-.64 6.45-1.418 12.543-3.223 18.426-5.137.922-.672.355-1.594.566-2.375.07-4.18 0-8.324 0-12.472-2.34-.462-4.465-1.239-6.73-1.876-6.098-1.843-12.192-3.652-17.72-5.917-1.417-.532-2.976.425-4.394.636-.422.106-.777.211-1.132.285m87.238 11.055c-3.969.957-8.508 1.133-12.758 1.734-1.629 1.243-2.41 2.696-3.754 3.97-2.765 2.765-6.379 5.316-10.558 7.581-.571.356-1.278.676-1.774 1.063.07 2.48-.14 4.926.211 7.37.356 1.028 3.191.462 4.606.427 3.121-.356 6.238-.922 9-1.809 3.828-1.559 6.593-3.613 9.425-5.633 3.047-2.375 5.532-4.96 7.301-7.652 1.063-1.453 1.063-3.012.637-4.5-.211-.922-.141-1.914-.707-2.836-.567-.035-1.063.176-1.629.285m-61.23 13.11c-5.243 1.558-10.489 3.081-16.157 4.18-1.133.39-4.039 0-3.687 1.026.57 2.305 1.066 4.645 1.984 6.91.57.993 3.191.993 4.82 1.383 5.742.922 11.766 1.418 17.715 1.735 1.844.144 3.617-.07 5.246-.496 6.66-1.414 13.325-2.973 19.278-5.067.496-.175 1.273-.28 1.062-.636-.07-2.48.07-4.926-.215-7.371-1.062-.637-3.187-.461-4.816-.672-6.098-.496-12.473-.746-18.285-2.02-1.559-.781-3.188-.14-4.676.32-.781.247-1.559.457-2.27.707m-61.653-.286c2.055 1.739 4.25 3.473 6.875 4.996 1.203.532-.496-.777-.71-1.027-1.204-.992-1.985-2.09-2.763-3.187-1.062-.747-2.765-1.204-4.183-1.774-.637-.14.71.817.781.992M36.211-5.809c6.238 1.95 13.254 3.188 20.41 4.004 4.324.461 8.79.707 13.254.672 2.691-.035 5.387.07 8.078-.176 2.055-.636-1.347-.742-2.27-.777-7.156-.426-14.382-1.066-21.117-2.445-3.187-.356-6.52-.18-9.707-.496-2.976-.25-5.882-.676-8.859-.993-.285.07.21.176.21.211"/></g></svg>