<svg xmlns="http://www.w3.org/2000/svg" width="67pt" height="118pt" viewBox="0 -118 67 118"><g id="page1" fill-rule="evenodd"><path fill="#fce6e5" d="M33.04-65.965c-.981.531-.903 2.035.073 2.488 1.13.45 2.11-.605 1.73-1.734-.222-.754-1.05-1.129-1.804-.754m-14.231.38c-.602.226-.754 1.054-.38 1.503.528.68 1.583.379 1.66-.45 0-.827-.605-1.355-1.28-1.054m3.464 6.097c-4.367.379-7.91 1.433-10.542 3.086l-.754.53.226.524c4.293 10.77 26.957 14.235 38.477 5.801.449-.3.75-.605.75-.68-6.625-5.87-19.274-10.011-28.157-9.261m.075 1.207c-1.508.375-1.657 1.129-.38 2.41l.755.75-.149.828c-.078.602-.078 1.055 0 1.434.149.675.074.75-.226.902-.528.3-1.434.074-2.184-.527-.527-.375-.605-.375-.379.148.606 1.055 2.035 1.582 3.012 1.055.379-.149.453-.149.527-.075.98 1.13 4.145 1.055 5.422-.226.68-.676.754-1.055.074-.527-2.183 1.656-5.418.754-5.418-1.504.075-1.356.075-1.43.903-1.735 1.203-.449 2.41-1.355 2.41-1.879 0-.754-2.863-1.433-4.367-1.054m6.55 14.605c-1.734 2.41-4.367 7.606-5.574 10.844l-.3.676.902.605c3.765 2.406 2.488 8.957-1.805 9.485l-.527.078.148.828c1.961 12.422 16.942 12.574 18.903.223l.074-.45-.602.375c-7.832 4.293-13.101-5.87-5.422-10.617 1.203-.754 2.41-1.656 3.313-2.484l.527-.453-.3-1.805a72 72 0 0 1-.755-6.176l-.074-1.355-.902.074c-.98.078-6.777 0-7.156-.074-.227-.075-.301 0-.45.226"/><path fill="#f19c97" d="M35.672-116.336c-1.578.301-3.16 1.43-3.461 3.09-.453 2.18-.074 4.441.527 6.551 1.883 5.418 5.797 9.937 7.453 15.507.528 1.81.528 3.692.301 5.497.375.152 1.809.68.828.527-5.195-.75-10.843-1.055-15.812 1.129-4.215 1.808-7.301 5.722-9.11 9.941-1.355 3.461-3.011 6.852-4.441 10.313-.906 2.336-1.883 4.894-1.129 7.379 0 .832.524.226.902 0 4.516-2.86 10.09-3.461 15.36-3.086 8.281.68 16.414 3.84 22.965 9.035.527.226.074.906.68.3 1.956-2.03 3.761-4.214 4.742-6.85 2.558-6.024 1.582-13.103-1.883-18.524-2.184-3.614-5.348-6.473-8.961-8.582-.45-.528 1.355.68 1.508-.301 3.46-4.594 6.25-10.164 6.097-16.113-.148-5.043-2.636-9.938-6.699-12.95-2.789-2.035-6.324-3.539-9.867-2.863m.379 5.121c-.602.149-2.184 1.055-.754.676 1.43-.602 1.055 1.281 1.129 2.184.078 2.789 1.054 5.421 2.258 7.832 1.507 3.238 3.39 6.324 4.293 9.789.074.601.226 1.277.3 1.882-.3.754-.675 1.43-.828 2.184 1.356-1.656 2.262-3.691 2.938-5.8 1.43-4.743 1.207-10.087-1.055-14.606-1.203-2.332-3.465-4.52-6.25-4.442-.676 0-1.43.075-2.031.301M9.02-107.902c-2.938.601-6.024 2.035-7.606 4.742-.676 1.133-.676 2.711.074 3.84 1.582 2.863 4.668 4.218 7.532 5.422 5.043 2.035 10.464 3.011 15.285 5.496 1.203.68 2.183 1.508 3.086 2.488 1.355-.305 2.71-.527 4.066-.754-.074-3.84-.902-7.758-2.71-11.144-2.786-5.348-8.134-9.489-14.231-10.243-1.805-.222-3.688-.148-5.496.153m1.128 4.441c-2.183.453-4.515 1.883-4.894 4.219-.227.828.453-.602.68-.754.375-.602.675-.152.976.227 1.809 1.882 3.918 3.538 6.403 4.515 3.687 1.508 7.68 2.563 11.218 4.668 1.203.68 2.032 1.883 2.485 3.238.375.528-.075-1.054-.075-1.355-1.132-5.645-4.82-10.84-9.941-13.551-2.105-1.055-4.516-1.656-6.852-1.207m21.235 35.992c-2.485.828-3.54 4.067-2.336 6.25.906 2.032 3.691 3.012 5.496 1.582 2.262-1.656 2.336-5.496.078-7.152-.906-.754-2.184-1.055-3.238-.68m-14.309.68c-2.105 1.277-2.258 4.441-.828 6.246.906 1.281 3.09 1.355 4.067.078 1.582-1.883 1.28-5.273-.977-6.402-.754-.375-1.582-.301-2.262.078M43.43-45.258c-1.73.606-3.54.906-5.348 1.207 0 2.86.379 5.723.828 8.508.453.902 1.207-.98 1.582-1.355 1.13-1.809 2.11-3.692 2.785-5.723.305.152-.226 1.809-.375 2.484-1.129 4.14-4.441 7.305-7.906 9.563-1.582 1.055-3.16 2.558-3.086 4.594 0 .375-.152.902.45.976.906.606 2.109.606 3.09.078-.38.528-1.509.903-2.337.903-1.129-.375-.902.375-.3.902.828 1.207 2.636 1.582 3.914.828.906-.074-2.258 1.133-.602 1.055 2.938.226 5.496-1.805 7.305-3.989 3.386-3.992 4.968-9.562 3.613-14.609-.527-1.957-1.355-3.914-2.637-5.496-.3-.227-.675 0-.976.074m-17.016 2.035c-3.766 3.086-7.156 6.926-8.66 11.594-.68 2.41-.828 5.422.902 7.457.528.676 1.356 1.05 2.184 1.203-.527-.453-.977-.98-1.281-1.582.906.98 2.335 1.582 3.617 1.055.449-.227 1.129-.828 1.281-1.207-1.281 0-2.41-.75-2.863-1.879.754.676 1.808 1.504 2.937 1.055.977-.68.828-2.11.676-3.09-.3-1.281-1.43-2.106-2.41-2.785-1.203-.903-2.031-2.41-1.883-3.914.379.75.754 1.656 1.36 2.257 1.43-3.613 3.234-7.078 5.269-10.464.977-1.657-.754.074-1.129.3m22.059 8.508c-.45 4.516-2.559 8.883-5.946 11.973-1.207.527-1.355 1.73-1.508 2.937-.675 3.535-3.163 6.926-6.699 8.055-2.11.754-4.445.602-6.476-.152 2.41 1.582 5.27 2.71 8.133 3.238 1.054-.3.976-1.957 1.578-2.785 1.508-3.086 3.312-6.25 6.176-8.133 1.203-.828 2.785-1.129 4.066-.45 1.43-.152 3.086-.452 4.367.677 1.355.828 2.031 2.484 1.656 4.066.301.453.602 2.41 1.055 1.129 1.582-2.785 1.582-6.176.527-9.11-1.207-3.69-3.765-6.628-5.574-10.015-.375-.528-.976-2.184-1.277-2.031 0 .148-.078.375-.078.601m10.168 5.95c-1.055.3-1.809 1.05-2.336 1.956-.453-.375-1.582-1.882-2.11-1.355 2.262 3.46 3.54 7.754 2.563 11.82-.153 1.13-.98 2.184-1.13 3.239 1.13.226 2.18-.301 2.935-1.13.68 0 1.355.301 2.035.075 1.804-.375 3.011-2.485 2.332-4.215-.754-1.43 1.656-.527 1.957-1.734.832-1.13.078-2.934-1.356-3.086-.523 0-1.277.152-.75-.528.977-2.03-.379-4.816-2.636-5.12-.528-.075-1.055-.075-1.504.077m-47.59 6.097c-1.203.074-2.406 1.129-2.485 2.41-.148.676.38 2.184.153 2.258-.602-.828-.602-1.957-.754-2.937-.828 1.355-.375 3.09.152 4.519.75 1.656 1.883 3.086 3.012 4.516.527-.676 1.504-.828 2.258-.45 2.183.829 3.992 2.485 5.195 4.516.676.754-.227 2.785 1.43 1.961 1.43-.453 2.336-1.734 3.691-2.187 1.883-.825 3.914-1.204 5.871-1.657-3.765-1.879-7.152-5.043-8.355-9.183-.453-.903-.907 1.054-1.282 1.504-.828 1.054-.074 2.335.075 3.539.152.453.226 1.507-.149.527-1.054-2.332-2.035-4.82-3.918-6.7-.828-.905-2.41-.827-3.086.15-.601.753-.601 1.655-.527 2.562.227-1.356 1.957-.754 2.031.375.453 1.504-1.652 1.43-1.804.152-.453-.828.3 1.43-.301.3-.828-1.433-1.055-3.538.375-4.667.3-.527 2.336-.606.98-1.133-.828-.3-1.656-.602-2.562-.375m-1.957 2.332c-.75.906-.227 2.563.754 3.09 1.43.226 1.054-1.957.453-2.711-.301-.3-.754-.68-1.207-.379m35.539 1.281c-2.184 1.282-3.614 3.54-4.969 5.723-1.582 2.938-3.086 6.102-3.387 9.488-.152 1.13.075 2.785 1.504 2.86 2.336.3 4.52-.75 6.625-1.73 3.164-1.657 6.25-3.84 8.207-6.927.832-1.355 1.282-3.011.606-4.52-.754 1.056-2.035 1.735-3.313 2.11 1.203-1.207 2.785-2.336 2.86-4.219-.153-1.882-2.184-3.535-4.067-2.785-1.504.528-2.332 1.883-3.011 3.164-.149-.601.527-2.183 1.128-3.011.38-1.13-1.656-.38-2.183-.153m-.676.903c-1.129.68-.227 2.636.902 1.66 1.207-.527.754-2.863-.675-1.809l-.078.074zm4.82.832c-1.133.527-2.035 2.03-1.359 3.16.906.98 2.488.226 2.938-.828.605-.828.453-2.332-.829-2.332a1.23 1.23 0 0 0-.75 0m2.785 5.27c-1.581.753-.226 3.01 1.051 1.656 1.207-.903.153-2.711-1.05-1.657m-8.812.6c-2.484.981-4.367 3.24-4.895 5.798-.3 1.28.305 2.937 1.81 3.164 1.956.152 3.765-1.282 4.968-2.711 1.129-1.356 2.035-3.164 1.582-4.969-.375-1.508-2.184-1.809-3.465-1.281"/><path fill="#f8b2b0" d="M37.48-108.73c.075 3.238.528 4.82 2.336 8.582 2.559 5.273 3.461 7.605 3.766 9.64l.074.676.528-1.504c3.086-9.34.222-18.148-6.25-19.203l-.528-.074zm-27.406 6.402c-.828.148-2.636.902-2.863 1.203-.074.148 1.434 1.73 2.562 2.637 1.805 1.504 3.086 2.183 6.098 3.312 5.723 2.184 7.68 3.086 9.637 4.668l.3.227-.222-.68c-3.617-8.207-9.488-12.5-15.512-11.367m-.98 82.371c-.602.828.601 3.164 1.281 2.336.375-.453.152-1.66-.453-2.262-.3-.375-.602-.375-.828-.074m35.09 2.11c-.528.527-.528 1.203 0 1.277.527.078 1.277-.977.976-1.504-.148-.301-.601-.227-.976.226m-31.325.074c-.226.152-.148.828.075 1.28.527.677 1.207.602 1.207-.152 0-.828-.828-1.582-1.282-1.128m35.918.902c-.226.152-.605.379-.754.601-1.355 1.508.075 3.09 1.579 1.735 1.433-1.281.754-3.164-.825-2.336m-36.597 4.52a1.4 1.4 0 0 0-.524.449l-.226.226 1.203 1.207c2.035 1.957 5.195 4.367 5.875 4.367.3 0-.301-1.507-1.055-2.562-1.734-2.484-3.992-4.066-5.273-3.688m39.53.601c-.901.676-.526 1.809.454 1.203.375-.148.676-.676.676-.976 0-.528-.602-.68-1.13-.227m-8.581.527c-2.711.829-5.273 4.215-4.969 6.551.375 3.313 5.344 1.73 7.3-2.336 1.282-2.86.153-4.969-2.331-4.215"/><path d="M35.824-117.313c-3.386.528-4.742 2.258-4.742 6.098 0 3.613.902 6.176 4.516 12.422 3.238 5.8 4.066 7.984 4.066 11.07 0 1.809 0 1.809-1.203 1.504-1.582-.375-2.484-.449-4.293-.523h-1.73l-.079-1.207c-.675-10.617-6.398-18.145-15.507-20.481-10.618-2.711-20.633 4.141-15.438 10.618 2.41 2.937 5.195 4.44 13.176 6.851 6.851 2.035 9.336 3.164 11.144 4.742l.68.68-.98.375c-4.895 2.11-7.98 5.496-10.391 11.445-.527 1.203-1.281 2.938-1.656 3.918-2.41 5.344-3.239 7.38-3.54 8.883-1.656 7.379 4.294 13.703 15.06 16.188l1.28.3-.98.754c-9.184 7.68-12.195 19.727-5.27 21.461.977.227.977.977.227 2.332-.3.527-.68 1.207-.828 1.508-.379.754-.379.754-.68.074-2.11-4.441-6.55-6.625-9.41-4.594-.226.153-.601.375-.828.375-3.992.832-1.656 8.06 4.293 13.48 5.043 4.595 7.227 5.196 9.937 2.712.977-.902 3.84-1.883 7.38-2.484l1.203-.153 1.28.38a42 42 0 0 0 2.333.675c.68.152 1.207.226 1.207.226s-.153.602-.301 1.282c-.453 1.73-.602 3.312-.453 4.14 1.055 6.172 16.941-1.433 19.05-9.035.301-.98.376-1.055.829-.906 1.054.226 2.558 0 3.312-.676.301-.226.375-.3 1.282-.3 2.558 0 4.289-1.735 4.289-4.22v-.902l.605-.3c2.105-1.13 1.957-4.368-.227-5.348-.378-.074-.527-.223-.453-.301 1.13-4.066-4.215-7.379-7.379-4.516l-.374.375-.454-.3c-.601-.375-1.43-.676-1.957-.676s-.828-.38-2.636-3.54c-2.106-3.765-2.711-4.972-2.938-6.25-.45-2.034-1.352-4.218-2.484-6.023l-.45-.754.528-.226c15.207-6.176 16.113-29.668 1.504-37.047l-.602-.3c-.074 0 .301-.45.676-1.052 7.004-9.488 7.684-19.504 1.809-26.73-3.465-4.293-9.036-6.777-13.403-6.024m-.152.977c-2.934.68-3.988 2.563-3.613 6.324.379 3.164 1.129 5.121 4.293 10.618 3.687 6.476 4.515 9.113 4.214 13.027l-.074.676.68.3c.902.38.828.38-.754.153-12.8-1.883-20.254 1.808-24.395 12.047-.828 2.035-1.207 2.859-2.71 6.25-2.637 5.797-3.165 7.832-2.485 10.617 2.485 10.015 22.137 14.984 35.313 8.883 14.832-6.778 14.23-27.332-1.055-36.29-.828-.527-.902-.605-.152-.378.828.226.828.226 1.507-.754 6.024-8.055 7.38-16.035 3.914-22.813-2.859-5.797-9.562-9.715-14.683-8.66m.379 5.121c-.528.149-1.508.676-1.508.828 0 0 .3-.074.754-.152 1.129-.223 1.055-.301 1.129 1.508.152 3.687.68 5.343 3.238 10.543 2.484 4.89 3.238 6.699 3.465 8.73l.148.832-.449 1.203c-.605 1.356-.527 1.356.223.301 6.855-10.238 1.96-26.652-7-23.793m1.43 2.485c.074 3.238.527 4.82 2.335 8.582 2.559 5.273 3.461 7.605 3.766 9.64l.074.676.528-1.504c3.086-9.34.222-18.148-6.25-19.203l-.528-.074zm-28.461.828c-5.27.98-9.11 4.82-7.907 7.832 1.43 3.386 4.82 5.418 13.856 8.207 7.527 2.332 10.164 3.539 11.972 5.422l.45.527 1.28-.227c.755-.152 1.505-.3 1.731-.378.227 0 .602-.075.754-.149h.301l-.074-1.355c-.68-12.875-10.918-21.989-22.363-19.879m1.128 4.441c-2.558.527-4.668 2.262-4.894 4.14l-.074.454.3-.527c.227-.227.454-.602.602-.676l.3-.301.907.977c2.633 2.558 4.367 3.613 8.656 5.12 7.907 2.86 9.864 3.993 10.77 6.176.527 1.356.601 1.356.3-.226-1.507-8.961-9.94-16.492-16.867-15.137m-.074 1.133c-.828.148-2.636.902-2.863 1.203-.074.148 1.434 1.73 2.562 2.637 1.805 1.504 3.086 2.183 6.098 3.312 5.723 2.184 7.68 3.086 9.637 4.668l.3.227-.222-.68c-3.617-8.207-9.488-12.5-15.512-11.367m21.309 34.86c-3.914 1.429-3.692 7.378.226 8.359 2.633.675 5.043-1.883 4.668-4.895-.379-2.484-2.789-4.219-4.894-3.465m-14.309.679c-2.933 1.656-1.957 7.227 1.207 7.227 2.332.074 3.766-3.165 2.559-5.723-.75-1.656-2.41-2.258-3.766-1.504m15.89.824c-.452.305-.679.68-.679 1.281 0 1.207 1.356 1.809 2.258.98 1.207-1.054-.223-3.085-1.578-2.26m-14.382.453c-.375.227-.527.828-.3 1.281.374.903 1.656.676 1.808-.375.148-.828-.832-1.433-1.508-.906m4.293 7.23c-1.96.301-2.184 1.43-.602 2.712l.375.3v1.579c0 1.507 0 1.582-.226 1.734-.527.375-1.582.148-2.332-.527-.453-.375-.453-.301-.152.226.601 1.051 1.882 1.43 3.011.903.301-.153.375-.153.528 0 1.28 1.128 4.668.902 5.496-.454.375-.601.3-.675-.075-.3-1.207 1.054-4.066 1.129-5.046.078-.45-.528-.602-1.133-.45-2.563l.075-.527.601-.227c3.613-1.129 2.637-3.539-1.203-2.933M43.43-45.257c-1.055.38-3.012.828-4.215 1.055l-1.133.152v1.13c0 1.808.754 7.452.98 7.679.376.453 3.16-4.367 3.915-6.703q.679-1.804.226.453c-.676 4.14-3.238 7.605-7.754 10.617-2.562 1.656-3.539 3.012-3.539 4.742v.906l.602.375c.828.375 1.808.375 2.636.075.602-.301.45-.075-.226.3-.68.38-1.582.528-2.262.454-.523-.149-.601-.149-.148.527.976 1.508 2.558 2.031 4.066 1.281.527-.226.527-.226.3 0a6.4 6.4 0 0 0-.827.527c-.828.375-.68.45.676.45 4.218 0 9.113-5.422 10.39-11.446.906-4.14.153-8.43-2.258-12.047-.527-.828-.527-.828-1.43-.527m-17.016 2.035c-6.629 5.422-10.09 11.973-8.887 16.79.38 1.808 1.582 3.163 2.938 3.39l.375.074-.45-.453c-.226-.226-.527-.527-.605-.75l-.226-.379.453.38c1.207 1.128 3.011 1.128 4.066 0l.379-.454-.531-.152c-.75-.075-1.504-.528-1.957-1.203-.528-.68-.528-.829 0-.301 1.207 1.203 2.863 1.129 3.164-.075.527-1.808-.074-3.542-1.656-4.519-1.657-1.055-2.563-2.559-2.563-3.992v-.45l.227.45c.453.98 1.054 1.883 1.132 1.808.075-.074.301-.675.602-1.43.75-1.808 2.71-5.722 3.988-7.831 1.356-2.332 1.356-2.41-.449-.903m1.578.977c-2.031 3.238-3.234 5.648-4.367 8.434-.75 1.882-.75 1.656.227 2.261 3.765 2.406 2.636 8.656-1.657 9.485-.754.078-.754 0-.453 1.43.68 3.39 2.79 6.628 4.895 7.605 6.629 3.164 13.101-.45 14.008-7.754l.074-.602-.903.45c-8.058 3.765-12.5-5.797-4.972-10.692 1.582-1.055 2.789-2.031 3.39-2.637l.301-.3-.226-1.73c-.453-2.712-.676-4.142-.676-5.95l-.078-1.73-1.13.074c-1.429.152-4.741.152-6.25 0l-1.202-.075zm20.48 7.531c-.449 4.895-3.312 10.164-6.925 12.727-.149.148-.227.3-.3.976-.903 7.23-6.927 11.371-13.329 9.11-.527-.149 1.055.754 2.258 1.355 1.508.68 3.312 1.281 4.82 1.66 1.43.301 1.356.375 1.809-.754 2.933-7.457 7.379-11.824 10.613-10.543.605.227.68.227 1.055.153 2.71-.98 5.949 1.656 5.347 4.289-.074.379-.074.527.075.754.152.152.3.601.378.902.223.68.301.68.903-.75 1.804-3.84 1.054-8.36-2.336-13.48-1.356-2.184-2.258-3.688-3.387-5.723-.453-.828-.828-1.504-.828-1.504-.074 0-.074.3-.152.828m10.169 5.95c-.754.226-1.582.828-2.035 1.503-.45.602-.376.602-.754 0-.301-.453-.829-.828-1.43-.976-.375-.153-.375-.153.226.828 2.711 4.441 3.16 9.484 1.282 13.324-.528 1.055-.528.98.3.98.75 0 1.356-.226 1.958-.828l.453-.375.601.149c1.805.379 3.614-.902 3.84-2.785.074-.453 0-.828-.3-2.032-.075-.226 0-.226.374-.226 1.203 0 2.035-.906 2.035-2.035s-.832-1.957-2.109-1.957h-.527l.3-.676c1.13-2.79-1.355-5.723-4.214-4.895m-47.59 6.097c-2.106.3-2.934 1.883-2.258 4.594.074.3.074.3-.074.074-.301-.375-.68-1.582-.68-2.336 0-.75-.148-.75-.375 0-.527 1.961.453 4.594 2.711 7.457l.754.977.45-.375c1.733-1.582 8.058 3.765 7.304 6.175-.227.903 1.883.227 3.238-1.054.902-.828 3.238-1.657 6.625-2.336l.828-.227-.754-.375c-3.687-2.031-6.398-5.047-7.527-8.433-.3-1.055-.227-1.055-1.055.601-.828 1.582-.828 1.508-.527 2.637.3.98.527 2.559.453 2.41-.074 0-.3-.527-.527-1.055-2.485-5.57-4.293-7.53-6.176-6.476q-1.241.68-1.129 2.484v.606l.152-.38c.528-1.277 2.332.153 1.88 1.43-.376.907-1.43.528-1.805-.523-.153-.527-.227-.227-.075.375.149.527-.078.227-.453-.527-.98-2.258-.3-4.215 1.656-4.742.301-.079.528-.227.454-.227-.153-.3-1.961-.906-2.41-.828 0 0-.301 0-.68.074m-1.957 2.332c-.602.379-.45 1.961.226 2.715.903.976 1.809.148 1.43-1.133-.3-1.277-1.055-1.957-1.656-1.582m0 .379c-.602.828.601 3.164 1.281 2.336.375-.453.152-1.66-.453-2.262-.3-.375-.602-.375-.828-.074m35.539.902C39.965-16.719 34.093-2.94 37.03-1.207 39.288.07 46.14-2.863 50.28-6.855c2.711-2.563 3.688-4.97 3.086-7.004l-.148-.301-.38.453a5 5 0 0 1-2.183 1.43l-.75.226 1.13-1.054c1.956-1.957 2.257-3.465.827-5.047-1.734-1.957-4.293-1.203-5.797 1.66-.304.601-.527.828-.453.676.227-1.282.528-2.184 1.13-2.86.675-.906-.602-1.129-2.11-.379m-.676.903c-.828.832-.68 1.808.227 1.883.675.078 1.656-1.051 1.43-1.805-.227-.68-.981-.68-1.657-.078m.227.304c-.528.528-.528 1.203 0 1.278.527.078 1.277-.977.976-1.504-.148-.301-.601-.227-.976.226m-31.325.075c-.226.152-.148.828.075 1.28.527.677 1.207.602 1.207-.152 0-.828-.828-1.582-1.282-1.128m35.918.453c-1.883.828-2.183 3.613-.379 3.613 2.184 0 3.239-3.465 1.13-3.613-.301-.078-.602 0-.75 0m0 .449c-.226.152-.605.379-.754.601-1.355 1.508.075 3.09 1.579 1.735 1.433-1.281.754-3.164-.825-2.336m-36.597 4.52a1.4 1.4 0 0 0-.524.449l-.226.226 1.203 1.207c2.035 1.957 5.195 4.367 5.875 4.367.3 0-.301-1.507-1.055-2.562-1.734-2.484-3.992-4.066-5.273-3.688m39.383.3c-.454.301-.829 1.055-.68 1.43.3 1.203 2.11.527 2.261-.828.075-.828-.753-1.203-1.581-.602m.148.301c-.902.676-.527 1.809.453 1.203.375-.148.676-.676.676-.976 0-.528-.602-.68-1.13-.227m-8.961.3c-3.234 1.13-5.797 5.497-4.668 7.755 1.582 3.164 7.457-.45 8.207-4.97.379-2.257-1.277-3.612-3.539-2.784m.379.227c-2.711.829-5.273 4.215-4.969 6.551.375 3.313 5.344 1.73 7.3-2.336 1.282-2.86.153-4.969-2.331-4.215"/></g></svg>