<svg xmlns="http://www.w3.org/2000/svg" width="605.921" height="664.302" viewBox="260.77 227.068 454.441 498.227"><path id="page1" d="M277.37 499.599c3.779 0 15.871-.756 27.964-1.512 12.092 0 24.94-.756 29.475-1.511 21.917-2.268 40.056-9.825 56.683-23.429l4.535-3.779 3.023 1.511c5.29 2.268 12.092 3.779 17.383 2.268 7.558-1.512 12.848-4.535 21.161-12.849 15.872-15.871 21.162-28.719 17.383-45.346-3.023-13.604-6.802-21.162-12.848-24.941-3.779-1.511-4.535-2.267-8.313-2.267-4.535.756-4.535.756-5.291-1.512-.756-1.511-1.511-9.825-1.511-20.406-.756-11.336-.756-19.65-1.512-23.429-6.802-30.231-21.162-54.416-44.591-77.089-48.369-46.102-102.03-56.683-155.69-30.987l-9.069 4.535-8.314-5.29c-4.534-2.268-10.58-6.047-13.603-7.558-8.314-3.779-9.826-6.046-11.337-16.627-.756-6.802-3.023-13.604-8.314-23.429-6.802-13.604-6.802-15.872 4.535-29.476 27.964-32.498 40.812-61.973 40.812-91.449 0-12.092 0-14.36-6.802-28.72-6.802-15.115-7.558-17.382-7.558-26.451-.756-4.535-.756-8.314-.756-9.07-1.511-1.511-4.534-.755-6.802 1.512-1.511 1.511-6.802 11.337-13.604 24.185-12.092 23.429-18.138 33.254-20.406 35.521-1.511.756-1.511.756-1.511-.755-.756-.756-.756-3.78-.756-6.047 0-8.313-3.023-21.917-6.802-33.254-2.267-7.558-3.779-9.07-6.046-9.07-3.779 0-5.29 2.268-6.802 10.582-1.512 6.802-4.535 12.092-10.581 20.406-16.627 20.406-21.162 27.963-27.208 43.079s-8.313 29.475-8.313 49.881c0 11.337 0 14.36-.756 15.871-2.267 2.268-7.558 4.535-19.65 6.802-8.314 1.512-11.337 2.268-15.872 4.535-7.557 3.779-13.604 9.069-17.382 14.36-6.047 7.558-37.034 56.683-38.545 61.218-.756 1.511-1.512 4.534-2.267 6.802L0 251.704l3.023 5.291c4.535 8.313 9.07 14.359 15.871 19.65 8.314 6.802 16.628 9.825 29.476 13.604 17.383 3.779 23.429 6.802 26.452 11.336 2.267 3.779 1.511 7.558-.756 18.139-3.023 10.581-3.779 18.139-3.779 28.72 0 8.313.756 18.138 2.267 21.917.756 1.512.756 1.512 2.268-.756l2.267-2.267v3.023c0 2.267.756 6.046.756 8.314 3.023 11.336 6.802 18.138 10.58 18.138 1.512 0 2.268.756 3.024 3.023s3.779 6.047 12.092 12.848c6.802 6.047 9.07 10.581 9.07 18.139-.756 5.291-2.268 9.069-6.047 13.604-3.023 3.023-6.046 5.291-18.894 13.604-12.848 7.558-18.139 17.383-13.604 24.185 2.267 5.29 6.046 6.046 19.65 6.802 15.116 1.511 24.185.756 33.254-1.512 16.628-4.534 31.743-12.848 50.637-29.475l7.558-6.046 21.162 5.29c11.337 3.023 21.162 6.047 21.917 6.802 0 0-.755 3.779-2.267 8.314-1.511 5.29-2.267 9.825-2.267 11.336 0 6.802 6.046 11.337 18.138 15.116 4.535 1.512 25.697 1.512 35.522.756" transform="translate(260.77 227.068)scale(.99626)"/></svg>