<svg xmlns="http://www.w3.org/2000/svg" width="88.216" height="156.598" viewBox="-24.832 114.002 66.162 117.449"><g id="page1" fill-rule="evenodd"><path fill="#f3f3f3" d="M8.292 165.487c.979.527.903 2.033-.075 2.485-1.13.452-2.109-.603-1.732-1.732.226-.753 1.054-1.13 1.807-.753m14.23.377c.603.225.754 1.054.377 1.505-.527.678-1.581.377-1.656-.451 0-.829.602-1.356 1.28-1.054m-3.463 6.098c4.367.377 7.906 1.431 10.542 3.088l.753.527-.226.527c-4.292 10.767-26.956 14.23-38.476 5.797-.452-.3-.753-.602-.753-.677 6.626-5.873 19.275-10.015 28.16-9.262m-.075 1.205c1.506.377 1.656 1.13.376 2.41l-.752.753.15.828c.075.602.075 1.054 0 1.43-.15.678-.075.753.226.904.527.301 1.43.075 2.184-.527.527-.377.602-.377.376.15-.602 1.055-2.033 1.582-3.012 1.055-.376-.151-.452-.151-.527-.076-.979 1.13-4.141 1.054-5.421-.226-.678-.677-.753-1.054-.075-.527 2.183 1.657 5.42.753 5.42-1.506-.074-1.355-.074-1.43-.903-1.731-1.204-.452-2.41-1.356-2.41-1.883 0-.753 2.862-1.43 4.368-1.054m-6.55 14.607c1.731 2.41 4.366 7.605 5.571 10.843l.301.678-.903.602c-3.765 2.41-2.485 8.96 1.807 9.487l.527.076-.15.828c-1.958 12.423-16.942 12.574-18.9.226l-.075-.452.602.376c7.831 4.292 13.102-5.873 5.421-10.616-1.204-.753-2.409-1.657-3.312-2.485l-.528-.452.302-1.807a72 72 0 0 0 .753-6.174l.075-1.355.903.075c.98.075 6.777 0 7.153-.075.226-.076.302 0 .452.225"/><path fill="#ccc" d="M5.657 115.115c1.58.3 3.162 1.43 3.463 3.087.452 2.183.075 4.442-.527 6.55-1.882 5.422-5.798 9.94-7.454 15.511-.527 1.807-.527 3.69-.301 5.497-.377.15-1.807.677-.828.527 5.195-.753 10.842-1.054 15.812 1.13 4.216 1.806 7.303 5.722 9.11 9.938 1.356 3.464 3.012 6.852 4.443 10.316.903 2.334 1.882 4.894 1.13 7.379 0 .828-.528.225-.904 0-4.518-2.862-10.09-3.464-15.36-3.088-8.283.678-16.415 3.84-22.966 9.036-.527.226-.075.903-.677.301-1.958-2.033-3.765-4.216-4.744-6.852-2.56-6.023-1.581-13.101 1.882-18.522 2.184-3.615 5.346-6.476 8.96-8.584.452-.527-1.355.678-1.505-.301-3.464-4.593-6.25-10.165-6.1-16.113.151-5.045 2.636-9.94 6.702-12.951 2.786-2.033 6.325-3.54 9.864-2.861m-.377 5.12c.603.15 2.184 1.054.753.677-1.43-.602-1.054 1.28-1.13 2.184-.075 2.786-1.053 5.421-2.258 7.83-1.506 3.238-3.388 6.325-4.292 9.789-.075.602-.226 1.28-.301 1.882.301.753.678 1.43.828 2.184-1.355-1.657-2.259-3.69-2.936-5.798-1.431-4.743-1.205-10.09 1.054-14.607 1.204-2.334 3.463-4.518 6.25-4.443.677 0 1.43.076 2.032.302m27.031 3.313c2.937.602 6.024 2.033 7.605 4.743.678 1.13.678 2.71-.075 3.84-1.581 2.861-4.669 4.217-7.53 5.421-5.045 2.033-10.466 3.012-15.285 5.497-1.204.678-2.183 1.506-3.087 2.485-1.355-.301-2.71-.527-4.066-.753.075-3.84.904-7.756 2.71-11.144 2.787-5.346 8.133-9.487 14.232-10.24 1.807-.226 3.69-.15 5.496.15m-1.13 4.442c2.184.452 4.519 1.882 4.895 4.217.226.828-.452-.603-.678-.753-.376-.603-.677-.151-.978.226-1.808 1.882-3.916 3.538-6.4 4.517-3.69 1.506-7.68 2.56-11.22 4.668-1.204.678-2.033 1.883-2.484 3.238-.377.527.075-1.054.075-1.355 1.13-5.647 4.819-10.843 9.939-13.553 2.108-1.054 4.518-1.657 6.852-1.205M9.949 163.981c2.485.828 3.54 4.066 2.335 6.25-.904 2.033-3.69 3.011-5.497 1.58-2.259-1.656-2.334-5.496-.075-7.152.903-.753 2.183-1.054 3.237-.678m14.307.678c2.108 1.28 2.258 4.442.828 6.25-.904 1.28-3.087 1.355-4.066.075-1.581-1.883-1.28-5.271.979-6.4.753-.377 1.581-.302 2.259.075M-2.1 186.193c1.732.603 3.54.904 5.346 1.205 0 2.861-.376 5.722-.828 8.508-.452.904-1.205-.978-1.581-1.355-1.13-1.807-2.108-3.69-2.786-5.722-.301.15.226 1.807.376 2.484 1.13 4.142 4.443 7.304 7.906 9.563 1.581 1.054 3.163 2.56 3.087 4.593 0 .376.151.903-.451.979-.904.602-2.109.602-3.087.075.376.527 1.505.904 2.334.904 1.13-.377.903.376.3.903-.827 1.205-2.634 1.581-3.914.828-.904-.075 2.258 1.13.602 1.054-2.937.226-5.497-1.807-7.304-3.99-3.388-3.99-4.97-9.563-3.614-14.607.527-1.958 1.355-3.916 2.635-5.497.302-.226.678 0 .98.075m17.017 2.033c3.765 3.087 7.153 6.927 8.659 11.596.678 2.41.828 5.42-.904 7.454-.527.678-1.355 1.054-2.183 1.205.527-.452.979-.98 1.28-1.582-.904.98-2.334 1.582-3.614 1.055-.452-.226-1.13-.829-1.28-1.205 1.28 0 2.41-.753 2.86-1.883-.752.678-1.806 1.506-2.936 1.055-.978-.678-.828-2.109-.677-3.088.3-1.28 1.43-2.108 2.41-2.785 1.204-.904 2.032-2.41 1.882-3.916-.377.753-.753 1.657-1.356 2.259-1.43-3.614-3.237-7.078-5.27-10.466-.98-1.657.753.075 1.129.301m-22.062 8.509c.452 4.517 2.56 8.884 5.949 11.972 1.205.527 1.355 1.731 1.506 2.936.677 3.539 3.162 6.927 6.701 8.057 2.108.753 4.442.602 6.475-.15-2.41 1.58-5.27 2.71-8.132 3.237-1.054-.302-.978-1.958-1.58-2.786-1.507-3.087-3.314-6.25-6.175-8.132-1.205-.828-2.786-1.13-4.066-.452-1.43-.15-3.087-.452-4.367.678-1.355.828-2.033 2.485-1.656 4.066-.302.451-.603 2.409-1.055 1.13-1.58-2.787-1.58-6.175-.527-9.112 1.205-3.689 3.765-6.626 5.572-10.014.377-.527.979-2.183 1.28-2.033 0 .15.075.377.075.603m-10.164 5.948c1.054.301 1.807 1.054 2.334 1.958.452-.377 1.581-1.883 2.108-1.356-2.259 3.464-3.539 7.756-2.56 11.822.15 1.129.979 2.184 1.13 3.238-1.13.225-2.184-.302-2.937-1.13-.678 0-1.355.3-2.033.076-1.807-.377-3.012-2.486-2.334-4.217.753-1.431-1.657-.527-1.958-1.732-.828-1.13-.075-2.937 1.355-3.087.527 0 1.28.15.753-.527-.978-2.033.377-4.82 2.636-5.12.527-.076 1.054-.076 1.506.075m47.586 6.099c1.205.075 2.41 1.13 2.485 2.41.15.677-.376 2.183-.15 2.258.602-.828.602-1.957.752-2.936.829 1.355.377 3.087-.15 4.517-.753 1.657-1.883 3.088-3.012 4.518-.527-.677-1.506-.828-2.259-.452-2.184.829-3.99 2.485-5.195 4.518-.678.753.226 2.786-1.431 1.958-1.43-.452-2.334-1.732-3.69-2.184-1.882-.828-3.915-1.205-5.872-1.656 3.764-1.883 7.153-5.045 8.357-9.186.452-.904.904 1.054 1.28 1.506.829 1.054.076 2.334-.075 3.539-.15.45-.226 1.505.15.527 1.055-2.335 2.034-4.82 3.916-6.702.828-.903 2.41-.828 3.087.15.602.754.602 1.657.527 2.56-.226-1.354-1.958-.752-2.033.377-.452 1.506 1.657 1.43 1.807.15.452-.827-.3 1.431.301.302.829-1.43 1.055-3.539-.376-4.668-.301-.527-2.334-.603-.979-1.13.828-.3 1.657-.602 2.56-.376m1.958 2.334c.753.904.226 2.56-.753 3.087-1.43.226-1.054-1.958-.452-2.71.301-.302.753-.678 1.205-.377m-35.54 1.28c2.184 1.28 3.615 3.539 4.97 5.723 1.581 2.936 3.087 6.099 3.388 9.487.15 1.129-.075 2.786-1.506 2.861-2.334.301-4.517-.753-6.626-1.732-3.162-1.656-6.249-3.84-8.207-6.927-.828-1.355-1.28-3.012-.602-4.517.753 1.054 2.033 1.731 3.313 2.108-1.205-1.206-2.786-2.334-2.861-4.217.15-1.882 2.183-3.539 4.066-2.786 1.505.527 2.334 1.882 3.011 3.162.151-.602-.527-2.183-1.129-3.011-.377-1.13 1.656-.377 2.184-.151m.678.904c1.13.677.226 2.635-.903 1.656-1.205-.527-.753-2.861.677-1.807l.076.075zm-4.819.828c1.13.527 2.033 2.033 1.356 3.163-.904.978-2.485.225-2.937-.83-.602-.827-.452-2.333.828-2.333.226-.075.527-.075.753 0m-2.786 5.27c1.582.753.226 3.012-1.054 1.657-1.204-.904-.15-2.71 1.054-1.656m8.81.603c2.485.979 4.367 3.237 4.894 5.798.301 1.28-.301 2.936-1.807 3.162-1.958.15-3.765-1.28-4.97-2.71-1.129-1.356-2.032-3.163-1.58-4.97.376-1.506 2.183-1.808 3.463-1.28"/><path fill="#f9b3b1" d="M3.85 122.72c-.076 3.237-.527 4.818-2.335 8.583-2.56 5.27-3.463 7.605-3.764 9.638l-.076.677-.527-1.505c-3.087-9.337-.226-18.147 6.25-19.2l.527-.076zm27.407 6.4c.828.15 2.635.903 2.861 1.204.076.15-1.43 1.732-2.56 2.636-1.807 1.505-3.087 2.183-6.099 3.312-5.722 2.184-7.68 3.088-9.637 4.669l-.302.226.226-.678c3.614-8.207 9.487-12.499 15.511-11.37m.979 82.373c.602.828-.602 3.162-1.28 2.334-.377-.452-.15-1.657.452-2.26.3-.376.602-.376.828-.074M-2.852 213.6c.527.527.527 1.204 0 1.28-.527.075-1.28-.979-.979-1.506.151-.301.603-.226.98.226m31.323.075c.226.15.15.828-.075 1.28-.527.678-1.205.602-1.205-.151 0-.828.828-1.58 1.28-1.129m-35.916.904c.226.15.603.376.753.602 1.356 1.506-.075 3.087-1.581 1.732-1.43-1.28-.753-3.163.828-2.334m36.594 4.517c.15.076.376.226.527.452l.226.226-1.205 1.205c-2.033 1.957-5.195 4.366-5.873 4.366-.301 0 .301-1.505 1.054-2.559 1.732-2.485 3.99-4.066 5.27-3.69m-39.53.603c.903.677.527 1.807-.452 1.204-.376-.15-.678-.677-.678-.978 0-.527.603-.678 1.13-.226m8.583.527c2.711.828 5.271 4.216 4.97 6.55-.377 3.314-5.346 1.733-7.304-2.334-1.28-2.861-.15-4.97 2.334-4.216"/><path d="M5.506 114.136c3.388.527 4.744 2.259 4.744 6.099 0 3.614-.904 6.174-4.518 12.423-3.238 5.798-4.066 7.982-4.066 11.069 0 1.807 0 1.807 1.205 1.506 1.581-.377 2.484-.452 4.292-.527h1.731l.076-1.205c.677-10.617 6.4-18.146 15.51-20.48 10.617-2.711 20.631 4.14 15.436 10.616-2.41 2.937-5.195 4.443-13.177 6.852-6.851 2.033-9.336 3.162-11.143 4.744l-.678.677.979.377c4.894 2.108 7.981 5.496 10.39 11.445.528 1.204 1.28 2.936 1.657 3.915 2.41 5.346 3.238 7.379 3.539 8.885 1.656 7.379-4.292 13.704-15.06 16.188l-1.28.301.98.753c9.186 7.68 12.198 19.728 5.27 21.46-.978.226-.978.978-.225 2.334.3.527.677 1.205.828 1.506.376.753.376.753.677.075 2.109-4.442 6.551-6.626 9.412-4.593.226.15.603.376.829.376 3.99.829 1.656 8.057-4.292 13.478-5.045 4.593-7.229 5.196-9.94 2.711-.978-.903-3.84-1.883-7.378-2.484l-1.205-.152-1.28.377c-.678.226-1.732.527-2.334.677-.678.152-1.205.226-1.205.226s.15.603.301 1.28c.452 1.732.603 3.313.452 4.142-1.054 6.174-16.941-1.43-19.05-9.036-.3-.978-.376-1.054-.828-.903-1.054.225-2.56 0-3.313-.678-.301-.225-.376-.301-1.28-.301-2.56 0-4.292-1.732-4.292-4.216v-.904l-.602-.301c-2.108-1.13-1.958-4.367.226-5.346.376-.075.527-.226.452-.301-1.13-4.066 4.216-7.38 7.379-4.518l.376.376.452-.3c.602-.377 1.43-.678 1.958-.678.527 0 .828-.377 2.635-3.54 2.108-3.764 2.71-4.969 2.936-6.249.452-2.033 1.356-4.216 2.485-6.024l.452-.752-.527-.226c-15.21-6.174-16.113-29.667-1.506-37.046l.602-.3c.076 0-.3-.452-.677-1.055-7.003-9.487-7.68-19.501-1.808-26.73 3.464-4.292 9.036-6.776 13.403-6.023m.15.979c2.937.677 3.991 2.56 3.615 6.324-.377 3.163-1.13 5.12-4.292 10.617-3.69 6.475-4.518 9.11-4.216 13.026l.075.678-.678.3c-.903.377-.828.377.753.151 12.8-1.882 20.255 1.808 24.396 12.048.828 2.033 1.204 2.86 2.71 6.25 2.636 5.797 3.163 7.83 2.485 10.616-2.485 10.014-22.137 14.984-35.313 8.885-14.834-6.777-14.231-27.333 1.054-36.293.828-.527.903-.602.15-.376-.828.226-.828.226-1.506-.753-6.023-8.057-7.378-16.038-3.915-22.815 2.861-5.797 9.563-9.713 14.683-8.658m-.376 5.12c.527.15 1.506.677 1.506.828 0 0-.301-.075-.753-.15-1.13-.227-1.054-.302-1.13 1.505-.15 3.69-.677 5.346-3.237 10.542-2.485 4.894-3.238 6.7-3.464 8.734l-.15.828.452 1.205c.602 1.355.527 1.355-.226.3-6.852-10.24-1.958-26.654 7.002-23.792m-1.43 2.484c-.076 3.238-.527 4.82-2.335 8.584-2.56 5.27-3.463 7.605-3.764 9.638l-.076.677-.527-1.505c-3.087-9.337-.226-18.147 6.25-19.2l.527-.076zm28.461.829c5.27.978 9.11 4.818 7.906 7.83-1.43 3.389-4.819 5.422-13.854 8.207-7.53 2.335-10.165 3.54-11.972 5.422l-.452.527-1.28-.226c-.753-.15-1.506-.301-1.732-.377-.226 0-.602-.075-.753-.15h-.3l.074-1.355c.678-12.876 10.918-21.987 22.363-19.878m-1.13 4.442c2.56.527 4.669 2.259 4.895 4.141l.075.452-.301-.527c-.226-.226-.452-.602-.602-.678l-.301-.3-.904.978c-2.635 2.56-4.367 3.614-8.659 5.12-7.906 2.861-9.864 3.99-10.767 6.174-.527 1.356-.603 1.356-.301-.226 1.506-8.96 9.939-16.49 16.866-15.134m.076 1.13c.828.15 2.635.903 2.861 1.204.076.15-1.43 1.732-2.56 2.636-1.807 1.505-3.087 2.183-6.099 3.312-5.722 2.184-7.68 3.088-9.637 4.669l-.302.226.226-.678c3.614-8.207 9.487-12.499 15.511-11.37M9.948 163.98c3.916 1.43 3.69 7.38-.225 8.358-2.636.678-5.045-1.883-4.669-4.894.377-2.485 2.786-4.217 4.894-3.464m14.307.678c2.936 1.656 1.957 7.228-1.205 7.228-2.334.075-3.765-3.162-2.56-5.722.753-1.657 2.41-2.26 3.765-1.506m-15.888.828c.452.301.678.678.678 1.28 0 1.205-1.355 1.807-2.259.979-1.205-1.054.226-3.087 1.581-2.259m14.382.452c.376.226.527.828.3 1.28-.376.903-1.656.677-1.806-.377-.15-.828.828-1.43 1.506-.903m-4.292 7.228c1.958.301 2.183 1.43.602 2.71l-.376.302v1.581c0 1.506 0 1.581.226 1.732.527.376 1.58.15 2.334-.527.452-.377.452-.301.15.226-.602 1.054-1.882 1.43-3.011.903-.302-.15-.377-.15-.527 0-1.28 1.13-4.669.904-5.497-.451-.377-.603-.301-.678.075-.302 1.205 1.055 4.066 1.13 5.045.076.452-.527.602-1.13.452-2.56l-.075-.527-.603-.226c-3.614-1.13-2.635-3.54 1.205-2.937M-2.1 186.193c1.054.377 3.012.828 4.217 1.054l1.13.151v1.13c0 1.806-.754 7.454-.98 7.68-.376.451-3.162-4.368-3.915-6.702q-.678-1.807-.226.452c.678 4.141 3.238 7.605 7.756 10.617 2.56 1.656 3.538 3.011 3.538 4.743v.904l-.602.376c-.828.377-1.807.377-2.635.076-.603-.302-.452-.076.226.3s1.58.528 2.258.453c.527-.151.603-.151.151.527-.979 1.506-2.56 2.033-4.066 1.28-.527-.226-.527-.226-.301 0 .15.075.527.3.828.527.828.376.678.451-.677.451-4.217 0-9.111-5.42-10.391-11.444-.904-4.142-.15-8.434 2.259-12.048.527-.828.527-.828 1.43-.527m17.017 2.033c6.626 5.422 10.09 11.972 8.885 16.791-.377 1.807-1.581 3.162-2.937 3.388l-.376.076.452-.452c.226-.226.527-.527.602-.753l.226-.377-.452.377c-1.205 1.13-3.012 1.13-4.066 0l-.376-.452.527-.15c.753-.076 1.506-.528 1.957-1.205.528-.678.528-.828 0-.301-1.204 1.204-2.86 1.13-3.162-.076-.527-1.807.075-3.539 1.657-4.517 1.656-1.054 2.56-2.56 2.56-3.991v-.452l-.226.452c-.452.979-1.054 1.882-1.13 1.807s-.301-.678-.602-1.43c-.753-1.808-2.71-5.723-3.99-7.831-1.356-2.334-1.356-2.41.45-.904m-1.581.98c2.033 3.237 3.238 5.646 4.367 8.432.753 1.883.753 1.657-.226 2.259-3.765 2.41-2.635 8.659 1.657 9.487.753.076.753 0 .451 1.43-.677 3.39-2.786 6.627-4.894 7.605-6.626 3.163-13.101-.45-14.005-7.755l-.075-.602.903.452c8.057 3.764 12.5-5.798 4.97-10.692-1.581-1.054-2.786-2.033-3.388-2.636l-.302-.3.226-1.733c.452-2.71.678-4.14.678-5.948l.075-1.732 1.13.076c1.43.15 4.743.15 6.25 0l1.204-.076zm-20.48 7.529c.451 4.894 3.312 10.164 6.927 12.725.15.15.226.3.3.978.904 7.228 6.928 11.37 13.328 9.111.527-.15-1.054.753-2.259 1.355a30.5 30.5 0 0 1-4.819 1.657c-1.43.3-1.355.376-1.807-.753-2.936-7.454-7.379-11.821-10.616-10.541-.603.226-.678.226-1.055.15-2.71-.979-5.948 1.657-5.345 4.292.075.376.075.527-.076.753-.15.15-.301.603-.376.903-.226.678-.301.678-.904-.753-1.807-3.84-1.054-8.357 2.334-13.477 1.356-2.184 2.26-3.69 3.389-5.723.451-.828.828-1.506.828-1.506.075 0 .075.302.15.829m-10.165 5.948c.753.226 1.58.828 2.033 1.506.451.602.376.602.753 0 .3-.452.828-.828 1.43-.979.377-.15.377-.15-.226.828-2.71 4.443-3.162 9.487-1.28 13.327.527 1.054.527.98-.3.98-.754 0-1.356-.226-1.959-.83l-.451-.376-.603.152c-1.807.375-3.614-.904-3.84-2.787-.075-.451 0-.828.301-2.033.076-.226 0-.226-.376-.226-1.205 0-2.033-.903-2.033-2.033s.828-1.957 2.108-1.957h.527l-.3-.678c-1.13-2.786 1.354-5.722 4.216-4.894m47.586 6.099c2.109.301 2.937 1.882 2.26 4.593-.076.301-.076.301.074.075.302-.376.678-1.581.678-2.334s.15-.753.377 0c.527 1.958-.452 4.593-2.711 7.454l-.753.98-.452-.377c-1.732-1.581-8.056 3.764-7.303 6.173.225.904-1.883.227-3.238-1.054-.904-.827-3.238-1.655-6.626-2.334l-.828-.225.753-.377c3.689-2.033 6.4-5.045 7.529-8.433.301-1.054.226-1.054 1.054.602.828 1.582.828 1.506.527 2.636-.301.978-.527 2.56-.451 2.409.075 0 .3-.527.527-1.054 2.484-5.572 4.291-7.53 6.174-6.475q1.242.678 1.13 2.484v.603l-.151-.377c-.527-1.28-2.335.151-1.883 1.43.377.904 1.43.528 1.807-.526.15-.527.226-.226.076.376-.15.527.075.226.451-.527.98-2.259.302-4.216-1.656-4.743-.301-.076-.527-.226-.452-.226.15-.301 1.958-.904 2.41-.828 0 0 .3 0 .677.075m1.958 2.334c.602.377.452 1.958-.226 2.71-.904.979-1.807.151-1.43-1.129.3-1.28 1.054-1.957 1.656-1.581m0 .377c.602.828-.602 3.162-1.28 2.334-.377-.452-.15-1.657.452-2.26.3-.376.602-.376.828-.074m-35.54.903c4.669 2.334 10.542 16.114 7.605 17.845-2.258 1.28-9.11-1.657-13.252-5.647-2.71-2.56-3.69-4.97-3.087-7.002l.15-.301.377.451a5 5 0 0 0 2.184 1.43l.753.227-1.13-1.054c-1.957-1.958-2.258-3.464-.828-5.045 1.732-1.958 4.292-1.205 5.798 1.656.301.602.527.828.452.678-.226-1.28-.527-2.184-1.13-2.861-.677-.904.603-1.13 2.109-.377m.678.904c.828.828.678 1.807-.226 1.882-.677.075-1.656-1.054-1.43-1.807.226-.678.979-.678 1.656-.075m-.226.3c.527.528.527 1.205 0 1.28-.527.076-1.28-.978-.979-1.505.151-.301.603-.226.98.226m31.323.076c.226.15.15.828-.075 1.28-.527.678-1.205.602-1.205-.151 0-.828.828-1.58 1.28-1.129m-35.916.452c1.883.828 2.184 3.614.377 3.614-2.184 0-3.238-3.464-1.13-3.614.301-.075.603 0 .753 0m0 .452c.226.15.603.376.753.602 1.356 1.506-.075 3.087-1.581 1.732-1.43-1.28-.753-3.163.828-2.334m36.594 4.517c.15.076.376.226.527.452l.226.226-1.205 1.205c-2.033 1.957-5.195 4.366-5.873 4.366-.301 0 .301-1.505 1.054-2.559 1.732-2.485 3.99-4.066 5.27-3.69m-39.38.302c.452.3.829 1.054.678 1.43-.301 1.205-2.108.527-2.259-.828-.075-.828.753-1.205 1.581-.602m-.15.3c.903.678.527 1.808-.452 1.205-.376-.15-.678-.677-.678-.978 0-.527.603-.678 1.13-.226m8.96.302c3.238 1.13 5.798 5.496 4.668 7.755-1.581 3.163-7.454-.452-8.207-4.969-.376-2.26 1.28-3.614 3.539-2.786m-.377.226c2.711.828 5.271 4.216 4.97 6.55-.377 3.314-5.346 1.733-7.304-2.334-1.28-2.861-.15-4.97 2.334-4.216"/></g></svg>