<svg xmlns="http://www.w3.org/2000/svg" width="53.049" height="53.049" viewBox="82.937 80.405 39.787 39.787"><g id="page1"><path fill="#79ad14" d="M108.509 91.75c1.169-2.02 2.763-4.358 3.933-5.846 0-.425-.107-.85-.107-1.382-.425-2.126-2.232-3.72-4.145-3.402-1.914.32-3.19 2.339-2.764 4.571.106.957.85 3.19 1.7 5.422.426.106.957.318 1.383.637"/><path fill="none" stroke="#000" stroke-linecap="round" stroke-linejoin="round" stroke-miterlimit="10.037" stroke-width="1.35" d="M108.509 91.75c1.169-2.02 2.763-4.358 3.933-5.846 0-.425-.107-.85-.107-1.382-.425-2.126-2.232-3.72-4.145-3.402-1.914.32-3.19 2.339-2.764 4.571.106.957.85 3.19 1.7 5.422.426.106.957.318 1.383.637"/><path fill="#79ad14" d="M111.379 94.62c2.02-1.169 4.358-2.763 5.846-3.933.425 0 .85.107 1.382.107 2.126.425 3.72 2.232 3.401 4.145s-2.338 3.083-4.57 2.764c-.957-.106-3.19-.85-5.422-1.7a4 4 0 0 0-.637-1.383"/><path fill="none" stroke="#000" stroke-linecap="round" stroke-linejoin="round" stroke-miterlimit="10.037" stroke-width="1.35" d="M111.379 94.62c2.02-1.169 4.358-2.763 5.846-3.933.425 0 .85.107 1.382.107 2.126.425 3.72 2.232 3.401 4.145s-2.338 3.083-4.57 2.764c-.957-.106-3.19-.85-5.422-1.7a4 4 0 0 0-.637-1.383"/><path fill="#a5ce34" d="M110.103 93.026q.797.638 1.276 1.594c2.657-1.382 5.952-3.826 6.909-4.783 1.594-1.595 1.7-3.933.319-5.315-1.276-1.382-3.72-1.17-5.315.319-.957.957-3.295 4.252-4.783 6.91q.956.477 1.594 1.275"/><path fill="none" stroke="#000" stroke-linecap="round" stroke-linejoin="round" stroke-miterlimit="10.037" stroke-width="1.35" d="M110.103 93.026q.797.638 1.276 1.594c2.657-1.382 5.952-3.826 6.909-4.783 1.594-1.595 1.7-3.933.319-5.315-1.276-1.382-3.72-1.17-5.315.319-.957.957-3.295 4.252-4.783 6.91q.956.477 1.594 1.275"/><path fill="#f36d21" d="M110.103 93.026c-3.295-3.295-8.717-3.083-12.118.425-5.315 5.315-17.54 21.366-13.606 25.3s19.984-8.292 25.299-13.607c3.508-3.508 3.72-8.823.425-12.118"/><path fill="#ce5c1c" d="M110.103 93.026c1.382 3.083.638 7.016-2.02 9.673-4.996 4.996-19.452 15.945-24.449 14.138 0 .85.213 1.488.745 1.913 3.933 3.933 19.984-8.291 25.299-13.606 3.508-3.402 3.72-8.823.425-12.118"/><path fill="none" stroke="#000" stroke-linecap="round" stroke-linejoin="round" stroke-miterlimit="10.037" stroke-width="1.35" d="M109.04 105.888s-3.189-1.063-6.378-4.252m-6.272 3.402s-2.02-1.807-4.145-4.784m12.33 9.355s-2.657-.745-4.358-2.445m.851 4.996s-2.764-.532-5.634-3.402m-7.335-2.232s1.17 2.232 3.508 4.146m3.933-14.563s.638 1.913 2.445 3.72m-9.248 15.626s1.488 1.7 3.295 2.445m22.961-29.764-4.89 4.89m-1.063-6.803.638 3.614m7.228 4.252-3.614-.638"/><path fill="none" stroke="#000" stroke-linecap="round" stroke-linejoin="round" stroke-miterlimit="10.037" stroke-width="1.35" d="M110.103 93.026c-3.295-3.295-8.717-3.083-12.118.425-5.315 5.315-17.54 21.366-13.606 25.3s19.984-8.292 25.299-13.607c3.508-3.508 3.72-8.823.425-12.118"/></g></svg>