<svg xmlns="http://www.w3.org/2000/svg" width="73.616" height="233.407" viewBox="82.983 227.913 55.212 175.055"><g id="page1"><path fill="#933" d="M109.557 401.968V263.78l27.638-33.165v105.023z"/><path fill="none" stroke="#000" stroke-linecap="round" stroke-linejoin="round" stroke-miterlimit="10.037" stroke-width="1.999" d="M109.557 401.968V263.78l27.638-33.165v105.023z"/><path fill="#b36666" d="M112.321 384.833V274.282l22.11-26.533v84.02z"/><path fill="none" stroke="#000" stroke-linecap="round" stroke-linejoin="round" stroke-miterlimit="10.037" d="M112.321 384.833V274.282l22.11-26.533v84.02z"/><path fill="maroon" d="M109.557 401.968V263.78l-17.007-2.126v138.19z"/><path fill="none" stroke="#000" stroke-linecap="round" stroke-linejoin="round" stroke-miterlimit="10.037" stroke-width="1.999" d="M109.557 401.968V263.78l-17.007-2.126v138.19z"/><path fill="maroon" d="m92.55 261.653 17.007 2.126 27.638-33.165-13.606-1.701z"/><path fill="none" stroke="#000" stroke-linecap="round" stroke-linejoin="round" stroke-miterlimit="10.037" stroke-width="1.999" d="m92.55 261.653 17.007 2.126 27.638-33.165-13.606-1.701z"/><path fill="#ff0" d="M92.55 337.657v-13.819c-4.01-.966-7.97 1.758-8.504 5.846-.635 4.866 3.69 8.92 8.504 7.973"/><path fill="none" stroke="#000" stroke-linecap="round" stroke-linejoin="round" stroke-miterlimit="10.037" stroke-width="1.999" d="M92.55 337.657v-13.819c-4.01-.966-7.97 1.758-8.504 5.846-.635 4.866 3.69 8.92 8.504 7.973"/></g></svg>