<svg xmlns="http://www.w3.org/2000/svg" width="482pt" height="226pt" viewBox="0 -226 482 226"><g id="page1"><path fill="#ffd9b2" d="M44.79-8.95h5.952c1.637 0 3.203.65 4.356 1.805l4.898 4.895a2.55 2.55 0 0 0 3.606 0L68.5-7.145a6.15 6.15 0 0 1 4.356-1.804H368.53a2.555 2.555 0 0 0 2.555-2.551v-47.648a2.555 2.555 0 0 0-2.555-2.551H72.856a6.16 6.16 0 0 0-4.356 1.804l-4.898 4.899a2.55 2.55 0 0 1-3.606 0l-4.898-4.898a6.16 6.16 0 0 0-4.356-1.805H38.84a2.555 2.555 0 0 0-2.555 2.55V-11.5a2.555 2.555 0 0 0 2.555 2.55z"/><path fill="none" stroke="#b25900" stroke-linecap="round" stroke-linejoin="round" stroke-width="3" d="M44.79-8.95h5.952c1.637 0 3.203.65 4.356 1.805l4.898 4.895a2.55 2.55 0 0 0 3.606 0L68.5-7.145a6.15 6.15 0 0 1 4.356-1.804H368.53a2.555 2.555 0 0 0 2.555-2.551v-47.648a2.555 2.555 0 0 0-2.555-2.551H72.856a6.16 6.16 0 0 0-4.356 1.804l-4.898 4.899a2.55 2.55 0 0 1-3.606 0l-4.898-4.898a6.16 6.16 0 0 0-4.356-1.805H38.84a2.555 2.555 0 0 0-2.555 2.55V-11.5a2.555 2.555 0 0 0 2.555 2.55z"/><path fill="#ffd9b2" d="M44.79-90.043h5.952c1.637 0 3.203.649 4.356 1.805l4.898 4.894a2.55 2.55 0 0 0 3.606 0l4.898-4.894a6.15 6.15 0 0 1 4.356-1.805h404.281a2.55 2.55 0 0 0 2.551-2.55v-47.649a2.55 2.55 0 0 0-2.551-2.551H72.856a6.16 6.16 0 0 0-4.356 1.805l-4.898 4.894c-.996 1-2.61 1-3.606 0l-4.898-4.894a6.16 6.16 0 0 0-4.356-1.805H38.84a2.555 2.555 0 0 0-2.555 2.551v47.648a2.555 2.555 0 0 0 2.555 2.551z"/><path fill="none" stroke="#b25900" stroke-linecap="round" stroke-linejoin="round" stroke-width="3" d="M44.79-90.043h5.952c1.637 0 3.203.649 4.356 1.805l4.898 4.894a2.55 2.55 0 0 0 3.606 0l4.898-4.894a6.15 6.15 0 0 1 4.356-1.805h404.281a2.55 2.55 0 0 0 2.551-2.55v-47.649a2.55 2.55 0 0 0-2.551-2.551H72.856a6.16 6.16 0 0 0-4.356 1.805l-4.898 4.894c-.996 1-2.61 1-3.606 0l-4.898-4.894a6.16 6.16 0 0 0-4.356-1.805H38.84a2.555 2.555 0 0 0-2.555 2.551v47.648a2.555 2.555 0 0 0 2.555 2.551z"/><path fill="#ffd9b2" d="M44.79-171.137h5.952a6.16 6.16 0 0 1 4.356 1.801l4.898 4.898c.996.997 2.61.997 3.606 0l4.898-4.898a6.16 6.16 0 0 1 4.356-1.801H328.21a2.55 2.55 0 0 0 2.551-2.551v-47.648a2.55 2.55 0 0 0-2.551-2.551H72.856a6.15 6.15 0 0 0-4.356 1.805l-4.898 4.898a2.55 2.55 0 0 1-3.606 0l-4.898-4.898a6.15 6.15 0 0 0-4.356-1.805H38.84a2.555 2.555 0 0 0-2.555 2.551v47.648a2.554 2.554 0 0 0 2.555 2.551z"/><path fill="none" stroke="#b25900" stroke-linecap="round" stroke-linejoin="round" stroke-width="3" d="M44.79-171.137h5.952a6.16 6.16 0 0 1 4.356 1.801l4.898 4.898c.996.997 2.61.997 3.606 0l4.898-4.898a6.16 6.16 0 0 1 4.356-1.801H328.21a2.55 2.55 0 0 0 2.551-2.551v-47.648a2.55 2.55 0 0 0-2.551-2.551H72.856a6.15 6.15 0 0 0-4.356 1.805l-4.898 4.898a2.55 2.55 0 0 1-3.606 0l-4.898-4.898a6.15 6.15 0 0 0-4.356-1.805H38.84a2.555 2.555 0 0 0-2.555 2.551v47.648a2.554 2.554 0 0 0 2.555 2.551z"/><path d="M11.094-39.27c-.61.036-.75.075-.75.395 0 .36.18.36.824.36h1.648c3.047 0 4.41 2.507 4.41 5.949 0 4.695-2.437 5.949-4.195 5.949-1.719 0-4.66-.82-5.699-3.188 1.145.18 2.188-.468 2.188-1.758 0-1.039-.754-1.757-1.758-1.757-.86 0-1.793.504-1.793 1.867 0 3.187 3.191 5.805 7.172 5.805 4.265 0 7.418-3.262 7.418-6.883 0-3.297-2.653-5.875-6.094-6.485 3.117-.898 5.125-3.515 5.125-6.312 0-2.828-2.938-4.91-6.414-4.91-3.586 0-6.238 2.187-6.238 4.804 0 1.434 1.109 1.723 1.648 1.723.754 0 1.613-.539 1.613-1.617 0-1.145-.86-1.649-1.648-1.649-.215 0-.285 0-.395.04 1.364-2.438 4.73-2.438 4.91-2.438 1.184 0 3.512.535 3.512 4.047 0 .684-.105 2.691-1.144 4.23-1.075 1.578-2.293 1.684-3.262 1.723zm17.5-.859c0-.969-.825-1.719-1.719-1.719a1.73 1.73 0 0 0-1.758 1.72c0 1.073.899 1.757 1.723 1.757.965 0 1.754-.754 1.754-1.758m0 11.973c0-.969-.825-1.719-1.719-1.719-1.04 0-1.758.82-1.758 1.719 0 1.074.899 1.758 1.723 1.758.965 0 1.754-.754 1.754-1.758M51.957-44.02c0-.62-.5-1.171-1.168-1.171-.625 0-1.148.504-1.148 1.148a1.15 1.15 0 0 0 1.148 1.168c.738 0 1.168-.621 1.168-1.145m-3.297 4.446v.691c1.528 0 1.746.145 1.746 1.313v6.5c0 1.078-.265 1.078-1.816 1.078v.691c.668-.047 1.816-.047 2.508-.047.261 0 1.648 0 2.46.047v-.691c-1.55 0-1.648-.121-1.648-1.051v-8.797zm9.75-6.309-3.32.262v.691c1.625 0 1.816.168 1.816 1.34v12.52c0 1.078-.265 1.078-1.816 1.078v.691c.668-.047 1.84-.047 2.554-.047.72 0 1.915 0 2.583.047v-.691c-1.532 0-1.817 0-1.817-1.078zm18.84 7.743c-.285 0-1.172 0-1.172.976 0 .574.406.98.98.98.551 0 1.004-.332 1.004-1.027 0-1.602-1.671-2.746-3.609-2.746-2.793 0-5.016 2.484-5.016 5.496 0 3.059 2.294 5.398 4.993 5.398 3.156 0 3.87-2.867 3.87-3.082s-.167-.214-.237-.214c-.215 0-.239.07-.31.359-.526 1.695-1.815 2.414-3.109 2.414-1.457 0-3.39-1.266-3.39-4.898 0-3.97 2.031-4.95 3.223-4.95.91 0 2.226.36 2.773 1.293m12.719 3.727c0-3.082-2.344-5.543-5.113-5.543-2.868 0-5.137 2.531-5.137 5.543 0 3.059 2.387 5.352 5.113 5.352 2.816 0 5.137-2.34 5.137-5.352m-5.113 4.828c-.887 0-1.962-.383-2.653-1.555-.648-1.074-.672-2.484-.672-3.488 0-.91 0-2.367.742-3.441a3.06 3.06 0 0 1 2.559-1.41c.93 0 1.934.43 2.578 1.363.742 1.097.742 2.605.742 3.488 0 .836 0 2.316-.62 3.441-.669 1.149-1.77 1.602-2.676 1.602m16.48-5.519c0-2.223 0-2.895-.551-3.657-.695-.933-1.816-1.078-2.629-1.078-2.32 0-3.226 1.985-3.418 2.465h-.023v-2.465l-3.25.266v.691c1.625 0 1.816.168 1.816 1.34v6.473c0 1.078-.262 1.078-1.816 1.078v.691c.62-.047 1.91-.047 2.582-.047.691 0 1.984 0 2.601.047v-.691c-1.527 0-1.812 0-1.812-1.078v-4.442c0-2.511 1.648-3.847 3.129-3.847 1.48 0 1.816 1.218 1.816 2.675v5.614c0 1.078-.265 1.078-1.816 1.078v.691c.62-.047 1.91-.047 2.582-.047.691 0 1.98 0 2.601.047v-.691c-1.195 0-1.789 0-1.812-.719zm5.777-3.801h3.371v-.696h-3.371v-4.394h-.523c-.024 2.246-.887 4.539-3.059 4.613v.477h2.032v6.644c0 2.653 1.765 3.2 3.035 3.2 1.504 0 2.293-1.481 2.293-3.2v-1.363h-.528v1.313c0 1.722-.691 2.726-1.625 2.726-1.625 0-1.625-2.223-1.625-2.629zm14.239 4.062c.527 0 .574 0 .574-.453 0-2.414-1.289-4.66-4.184-4.66-2.722 0-4.824 2.46-4.824 5.426 0 3.152 2.437 5.468 5.09 5.468 2.844 0 3.918-2.578 3.918-3.082 0-.144-.121-.238-.262-.238-.191 0-.242.121-.285.239-.625 2.007-2.223 2.558-3.231 2.558-1 0-3.414-.672-3.414-4.805v-.453zm-6.594-.453c.191-3.754 2.293-4.184 2.961-4.184 2.558 0 2.703 3.372 2.726 4.184zm18.476.192c0-2.223 0-2.895-.55-3.657-.692-.933-1.817-1.078-2.629-1.078-2.317 0-3.227 1.985-3.414 2.465h-.028v-2.465l-3.25.266v.691c1.625 0 1.817.168 1.817 1.34v6.473c0 1.078-.262 1.078-1.817 1.078v.691c.621-.047 1.914-.047 2.582-.047.696 0 1.985 0 2.606.047v-.691c-1.531 0-1.817 0-1.817-1.078v-4.442c0-2.511 1.649-3.847 3.129-3.847 1.485 0 1.817 1.218 1.817 2.675v5.614c0 1.078-.262 1.078-1.817 1.078v.691c.621-.047 1.914-.047 2.582-.047.696 0 1.985 0 2.606.047v-.691c-1.196 0-1.793 0-1.817-.719zm8.93-4.469v.691c1.625 0 1.816.168 1.816 1.34v4.277c0 2.032-1.074 3.727-2.867 3.727-1.961 0-2.078-1.125-2.078-2.39v-7.91l-3.371.265v.691c1.816 0 1.816.07 1.816 2.2v3.581c0 1.485 0 2.344.719 3.133.574.621 1.555.907 2.77.907.41 0 1.172 0 1.984-.692.695-.55 1.074-1.457 1.074-1.457v2.148l3.325-.238v-.691c-1.625 0-1.817-.168-1.817-1.34v-8.508zm9.75.668h3.371v-.696h-3.371v-4.394h-.523c-.024 2.246-.887 4.539-3.063 4.613v.477h2.031v6.644c0 2.653 1.77 3.2 3.039 3.2 1.504 0 2.293-1.481 2.293-3.2v-1.363h-.527v1.313c0 1.722-.691 2.726-1.625 2.726-1.625 0-1.625-2.223-1.625-2.629zm16.055 4.492c0-3.082-2.34-5.543-5.114-5.543-2.867 0-5.136 2.531-5.136 5.543 0 3.059 2.386 5.352 5.113 5.352 2.816 0 5.137-2.34 5.137-5.352m-5.114 4.828c-.886 0-1.96-.383-2.652-1.555-.648-1.074-.672-2.484-.672-3.488 0-.91 0-2.367.742-3.441a3.06 3.06 0 0 1 2.559-1.41c.93 0 1.934.43 2.578 1.363.742 1.097.742 2.605.742 3.488 0 .836 0 2.316-.621 3.441-.668 1.149-1.769 1.602-2.676 1.602m20.813-16.035v.691c1.625 0 1.816.168 1.816 1.34v5.281c-.5-.691-1.527-1.53-2.988-1.53-2.769 0-5.16 2.343-5.16 5.401 0 3.036 2.269 5.376 4.898 5.376 1.817 0 2.868-1.196 3.204-1.649v1.648l3.367-.238v-.691c-1.625 0-1.813-.168-1.813-1.34v-14.55zm1.77 13.527c0 .43 0 .5-.336 1.024-.571.84-1.551 1.53-2.747 1.53-.621 0-3.203-.237-3.203-4.874 0-1.719.286-2.676.813-3.465.476-.742 1.433-1.48 2.629-1.48 1.48 0 2.316 1.074 2.554 1.457.29.406.29.453.29.883zm8.218-11.926c0-.62-.5-1.171-1.168-1.171a1.15 1.15 0 0 0-1.148 1.148 1.15 1.15 0 0 0 1.148 1.168c.739 0 1.168-.621 1.168-1.145m-3.297 4.446v.691c1.532 0 1.746.145 1.746 1.313v6.5c0 1.078-.261 1.078-1.816 1.078v.691c.668-.047 1.816-.047 2.508-.047.266 0 1.648 0 2.461.047v-.691c-1.551 0-1.649-.121-1.649-1.051v-8.797zm24.868.524c-.762.144-1.051.718-1.051 1.171 0 .574.453.766.789.766.715 0 1.219-.621 1.219-1.27 0-1-1.149-1.457-2.153-1.457-1.457 0-2.269 1.434-2.484 1.89-.551-1.792-2.031-1.89-2.461-1.89-2.438 0-3.727 3.133-3.727 3.656 0 .098.094.215.262.215.192 0 .238-.14.285-.238.813-2.652 2.414-3.152 3.11-3.152 1.074 0 1.289 1.004 1.289 1.578 0 .523-.145 1.074-.434 2.218l-.808 3.274c-.36 1.437-1.051 2.75-2.321 2.75-.117 0-.715 0-1.219-.313a1.23 1.23 0 0 0 1.055-1.168c0-.48-.359-.765-.812-.765-.575 0-1.196.504-1.196 1.265 0 1.004 1.121 1.457 2.149 1.457 1.148 0 1.961-.906 2.461-1.886.383 1.41 1.578 1.887 2.461 1.887 2.437 0 3.73-3.13 3.73-3.657 0-.117-.098-.215-.238-.215-.219 0-.242.121-.313.313-.644 2.102-2.031 3.082-3.105 3.082-.836 0-1.293-.621-1.293-1.602 0-.523.098-.906.48-2.484l.836-3.25c.36-1.434 1.172-2.484 2.27-2.484.047 0 .719 0 1.219.308m18.996 3.371c0-1.289 0-2.246-1.051-3.18-.836-.765-1.91-1.097-2.961-1.097-1.961 0-3.469 1.289-3.469 2.844 0 .691.457 1.027 1.004 1.027.574 0 .981-.406.981-.98 0-.98-.86-.98-1.219-.98.551-1.005 1.699-1.434 2.652-1.434 1.102 0 2.512.91 2.512 3.058v.957c-4.805.07-6.621 2.078-6.621 3.918 0 1.89 2.199 2.485 3.656 2.485 1.578 0 2.652-.954 3.106-2.102.097 1.125.835 1.984 1.867 1.984.5 0 1.886-.336 1.886-2.246v-1.34h-.527v1.34c0 1.363-.57 1.551-.906 1.551-.91 0-.91-1.266-.91-1.625zm-1.551 3.012c0 2.34-1.746 3.129-2.774 3.129-1.171 0-2.152-.86-2.152-2.008 0-3.152 4.067-3.441 4.926-3.488zm11.293-6.906v.691c1.625 0 1.816.168 1.816 1.34v4.277c0 2.032-1.078 3.727-2.867 3.727-1.961 0-2.078-1.125-2.078-2.39v-7.91l-3.371.265v.691c1.816 0 1.816.07 1.816 2.2v3.581c0 1.485 0 2.344.715 3.133.574.621 1.555.907 2.774.907.406 0 1.171 0 1.984-.692.691-.55 1.074-1.457 1.074-1.457v2.148l3.32-.238v-.691c-1.625 0-1.812-.168-1.812-1.34v-8.508zm22.871 4.469c0-2.223 0-2.895-.551-3.657-.695-.933-1.816-1.078-2.629-1.078-1.984 0-2.988 1.434-3.371 2.367-.332-1.84-1.625-2.367-3.129-2.367-2.316 0-3.226 1.985-3.418 2.465h-.023v-2.465l-3.25.266v.691c1.625 0 1.816.168 1.816 1.34v6.473c0 1.078-.261 1.078-1.816 1.078v.691c.621-.047 1.914-.047 2.582-.047.691 0 1.984 0 2.601.047v-.691c-1.527 0-1.812 0-1.812-1.078v-4.442c0-2.511 1.648-3.847 3.129-3.847 1.48 0 1.816 1.218 1.816 2.675v5.614c0 1.078-.265 1.078-1.816 1.078v.691c.621-.047 1.914-.047 2.582-.047.691 0 1.98 0 2.601.047v-.691c-1.527 0-1.812 0-1.812-1.078v-4.442c0-2.511 1.648-3.847 3.129-3.847 1.48 0 1.816 1.218 1.816 2.675v5.614c0 1.078-.265 1.078-1.816 1.078v.691c.621-.047 1.914-.047 2.582-.047.691 0 1.98 0 2.601.047v-.691c-1.195 0-1.789 0-1.812-.719zm11.516.261c.527 0 .574 0 .574-.453 0-2.414-1.289-4.66-4.184-4.66-2.722 0-4.824 2.46-4.824 5.426 0 3.152 2.437 5.468 5.09 5.468 2.844 0 3.918-2.578 3.918-3.082 0-.144-.121-.238-.262-.238-.191 0-.242.121-.285.239-.625 2.007-2.223 2.558-3.231 2.558-1 0-3.414-.672-3.414-4.805v-.453zm-6.594-.453c.191-3.754 2.293-4.184 2.961-4.184 2.558 0 2.703 3.372 2.726 4.184zm18.476.192c0-2.223 0-2.895-.55-3.657-.692-.933-1.817-1.078-2.629-1.078-2.317 0-3.227 1.985-3.414 2.465h-.028v-2.465l-3.25.266v.691c1.625 0 1.817.168 1.817 1.34v6.473c0 1.078-.262 1.078-1.817 1.078v.691c.621-.047 1.914-.047 2.582-.047.696 0 1.985 0 2.606.047v-.691c-1.531 0-1.817 0-1.817-1.078v-4.442c0-2.511 1.649-3.847 3.129-3.847 1.485 0 1.817 1.218 1.817 2.675v5.614c0 1.078-.262 1.078-1.817 1.078v.691c.621-.047 1.914-.047 2.582-.047.696 0 1.985 0 2.606.047v-.691c-1.196 0-1.793 0-1.817-.719zm5.782-3.801h3.367v-.696h-3.367v-4.394h-.528c-.023 2.246-.883 4.539-3.058 4.613v.477h2.031v6.644c0 2.653 1.769 3.2 3.035 3.2 1.508 0 2.293-1.481 2.293-3.2v-1.363h-.523v1.313c0 1.722-.696 2.726-1.625 2.726-1.625 0-1.625-2.223-1.625-2.629zm14.308 3.226c0-1.289 0-2.246-1.051-3.18-.835-.765-1.914-1.097-2.964-1.097-1.957 0-3.465 1.289-3.465 2.844 0 .691.453 1.027 1.004 1.027.574 0 .98-.406.98-.98 0-.98-.859-.98-1.219-.98.551-1.005 1.696-1.434 2.653-1.434 1.097 0 2.508.91 2.508 3.058v.957c-4.801.07-6.618 2.078-6.618 3.918 0 1.89 2.2 2.485 3.657 2.485 1.574 0 2.652-.954 3.105-2.102.094 1.125.836 1.984 1.863 1.984.504 0 1.887-.336 1.887-2.246v-1.34h-.523v1.34c0 1.363-.575 1.551-.907 1.551-.91 0-.91-1.266-.91-1.625zm-1.554 3.012c0 2.34-1.743 3.129-2.774 3.129-1.168 0-2.148-.86-2.148-2.008 0-3.152 4.062-3.441 4.922-3.488zm19-12.953v.691c1.625 0 1.816.168 1.816 1.34v5.281c-.504-.691-1.531-1.53-2.988-1.53-2.77 0-5.16 2.343-5.16 5.401 0 3.036 2.269 5.376 4.898 5.376 1.816 0 2.867-1.196 3.203-1.649v1.648l3.367-.238v-.691c-1.625 0-1.816-.168-1.816-1.34v-14.55zm1.769 13.527c0 .43 0 .5-.336 1.024-.574.84-1.555 1.53-2.75 1.53-.621 0-3.199-.237-3.199-4.874 0-1.719.285-2.676.812-3.465.477-.742 1.43-1.48 2.629-1.48 1.481 0 2.317 1.074 2.555 1.457.289.406.289.453.289.883zm8.219-11.926c0-.62-.5-1.171-1.168-1.171-.625 0-1.149.504-1.149 1.148 0 .715.575 1.168 1.149 1.168.738 0 1.168-.621 1.168-1.145m-3.297 4.446v.691c1.527 0 1.742.145 1.742 1.313v6.5c0 1.078-.262 1.078-1.812 1.078v.691c.668-.047 1.812-.047 2.507-.047.262 0 1.649 0 2.461.047v-.691c-1.554 0-1.648-.121-1.648-1.051v-8.797zm20.32-5.043c0-.551 0-.574-.476-.574-.575.644-1.77 1.527-4.231 1.527v.695c.551 0 1.746 0 3.059-.62v12.448c0 .86-.07 1.149-2.172 1.149h-.742v.691c.644-.047 2.961-.047 3.75-.047s3.086 0 3.726.047v-.691h-.738c-2.102 0-2.176-.29-2.176-1.149zM20.273-113.523h-.789c-.109.609-.394 2.582-.754 3.156-.25.32-2.293.32-3.37.32H8.73c.965-.82 3.153-3.117 4.086-3.976 5.45-5.02 7.457-6.883 7.457-10.43 0-4.125-3.265-6.887-7.421-6.887s-6.594 3.551-6.594 6.633c0 1.828 1.574 1.828 1.683 1.828.754 0 1.684-.535 1.684-1.684 0-1.003-.68-1.683-1.684-1.683-.324 0-.394 0-.503.035.683-2.437 2.617-4.086 4.949-4.086 3.047 0 4.91 2.543 4.91 5.844 0 3.047-1.758 5.699-3.8 7.992l-7.24 8.102v.859H19.34zm8.321-7.704c0-.968-.825-1.722-1.719-1.722a1.73 1.73 0 0 0-1.758 1.722c0 1.075.899 1.754 1.723 1.754.965 0 1.754-.754 1.754-1.754m0 11.969c0-.969-.825-1.719-1.719-1.719a1.73 1.73 0 0 0-1.758 1.719c0 1.078.899 1.758 1.723 1.758.965 0 1.754-.754 1.754-1.758m23.363-15.863c0-.621-.5-1.168-1.168-1.168-.625 0-1.148.5-1.148 1.144 0 .715.574 1.172 1.148 1.172.738 0 1.168-.621 1.168-1.148m-3.297 4.445v.692c1.528 0 1.746.144 1.746 1.316v6.5c0 1.074-.265 1.074-1.816 1.074v.696c.668-.051 1.816-.051 2.508-.051.261 0 1.648 0 2.46.051v-.696c-1.55 0-1.648-.121-1.648-1.051v-8.793zm9.75-6.308-3.32.261v.696c1.625 0 1.816.168 1.816 1.336v12.523c0 1.074-.265 1.074-1.816 1.074v.696c.668-.051 1.84-.051 2.554-.051.72 0 1.915 0 2.583.051v-.696c-1.532 0-1.817 0-1.817-1.074zm18.84 7.742c-.285 0-1.172 0-1.172.98 0 .574.406.981.98.981.551 0 1.004-.336 1.004-1.028 0-1.601-1.671-2.75-3.609-2.75-2.793 0-5.016 2.485-5.016 5.496 0 3.059 2.294 5.403 4.993 5.403 3.156 0 3.87-2.867 3.87-3.082 0-.219-.167-.219-.237-.219-.215 0-.239.074-.31.359-.526 1.7-1.815 2.414-3.109 2.414-1.457 0-3.39-1.265-3.39-4.898 0-3.969 2.031-4.945 3.223-4.945.91 0 2.226.359 2.773 1.289m12.719 3.726c0-3.082-2.344-5.543-5.113-5.543-2.868 0-5.137 2.536-5.137 5.543 0 3.063 2.387 5.356 5.113 5.356 2.816 0 5.137-2.344 5.137-5.356m-5.113 4.828c-.887 0-1.962-.382-2.653-1.554-.648-1.074-.672-2.485-.672-3.488 0-.907 0-2.364.742-3.442a3.07 3.07 0 0 1 2.559-1.406c.93 0 1.934.43 2.578 1.359.742 1.102.742 2.606.742 3.489 0 .839 0 2.32-.62 3.441-.669 1.148-1.77 1.601-2.676 1.601m16.48-5.519c0-2.223 0-2.891-.551-3.656-.695-.934-1.816-1.075-2.629-1.075-2.32 0-3.226 1.985-3.418 2.461h-.023v-2.461l-3.25.262v.692c1.625 0 1.816.168 1.816 1.339v6.477c0 1.074-.262 1.074-1.816 1.074v.696c.62-.051 1.91-.051 2.582-.051.691 0 1.984 0 2.601.051v-.696c-1.527 0-1.812 0-1.812-1.074v-4.445c0-2.508 1.648-3.848 3.129-3.848 1.48 0 1.816 1.219 1.816 2.676v5.617c0 1.074-.265 1.074-1.816 1.074v.696c.62-.051 1.91-.051 2.582-.051.691 0 1.98 0 2.601.051v-.696c-1.195 0-1.789 0-1.812-.715zm5.777-3.801h3.371v-.691h-3.371v-4.399h-.523c-.024 2.246-.887 4.543-3.059 4.614v.476h2.032v6.645c0 2.652 1.765 3.203 3.035 3.203 1.504 0 2.293-1.481 2.293-3.203v-1.364h-.528v1.317c0 1.719-.691 2.722-1.625 2.722-1.625 0-1.625-2.222-1.625-2.628zm14.239 4.063c.527 0 .574 0 .574-.453 0-2.415-1.289-4.661-4.184-4.661-2.722 0-4.824 2.461-4.824 5.426 0 3.153 2.437 5.473 5.09 5.473 2.844 0 3.918-2.582 3.918-3.082 0-.145-.121-.242-.262-.242-.191 0-.242.121-.285.242-.625 2.008-2.223 2.554-3.231 2.554-1 0-3.414-.667-3.414-4.804v-.453zm-6.594-.453c.191-3.75 2.293-4.18 2.961-4.18 2.558 0 2.703 3.367 2.726 4.18zm18.476.191c0-2.223 0-2.891-.55-3.656-.692-.934-1.817-1.075-2.629-1.075-2.317 0-3.227 1.985-3.414 2.461h-.028v-2.461l-3.25.262v.692c1.625 0 1.817.168 1.817 1.339v6.477c0 1.074-.262 1.074-1.817 1.074v.696c.621-.051 1.914-.051 2.582-.051.696 0 1.985 0 2.606.051v-.696c-1.531 0-1.817 0-1.817-1.074v-4.445c0-2.508 1.649-3.848 3.129-3.848 1.485 0 1.817 1.219 1.817 2.676v5.617c0 1.074-.262 1.074-1.817 1.074v.696c.621-.051 1.914-.051 2.582-.051.696 0 1.985 0 2.606.051v-.696c-1.196 0-1.793 0-1.817-.715zm8.93-4.469v.692c1.625 0 1.816.168 1.816 1.339v4.278c0 2.031-1.074 3.726-2.867 3.726-1.961 0-2.078-1.121-2.078-2.386v-7.911l-3.371.262v.692c1.816 0 1.816.074 1.816 2.199v3.586c0 1.48 0 2.34.719 3.129.574.621 1.555.91 2.77.91.41 0 1.172 0 1.984-.695.695-.547 1.074-1.458 1.074-1.458v2.153l3.325-.238v-.696c-1.625 0-1.817-.168-1.817-1.336v-8.508zm9.75.668h3.371v-.691h-3.371v-4.399h-.523c-.024 2.246-.887 4.543-3.063 4.614v.476h2.031v6.645c0 2.652 1.77 3.203 3.039 3.203 1.504 0 2.293-1.481 2.293-3.203v-1.364h-.527v1.317c0 1.719-.691 2.722-1.625 2.722-1.625 0-1.625-2.222-1.625-2.628zm16.055 4.492c0-3.082-2.34-5.543-5.114-5.543-2.867 0-5.136 2.536-5.136 5.543 0 3.063 2.386 5.356 5.113 5.356 2.816 0 5.137-2.344 5.137-5.356m-5.114 4.828c-.886 0-1.96-.382-2.652-1.554-.648-1.074-.672-2.485-.672-3.488 0-.907 0-2.364.742-3.442a3.07 3.07 0 0 1 2.559-1.406c.93 0 1.934.43 2.578 1.359.742 1.102.742 2.606.742 3.489 0 .839 0 2.32-.621 3.441-.668 1.148-1.769 1.601-2.676 1.601m20.813-16.035v.696c1.625 0 1.816.168 1.816 1.336v5.281c-.5-.692-1.527-1.528-2.988-1.528-2.769 0-5.16 2.34-5.16 5.399 0 3.035 2.269 5.379 4.898 5.379 1.817 0 2.868-1.195 3.204-1.649v1.649l3.367-.238v-.696c-1.625 0-1.813-.168-1.813-1.336v-14.554zm1.77 13.528c0 .429 0 .5-.336 1.027-.571.836-1.551 1.527-2.747 1.527-.621 0-3.203-.238-3.203-4.875 0-1.718.286-2.675.813-3.464.476-.739 1.433-1.481 2.629-1.481 1.48 0 2.316 1.074 2.554 1.457.29.406.29.457.29.887zm8.218-11.926c0-.621-.5-1.168-1.168-1.168-.621 0-1.148.5-1.148 1.144 0 .715.574 1.172 1.148 1.172.739 0 1.168-.621 1.168-1.148m-3.297 4.445v.692c1.532 0 1.746.144 1.746 1.316v6.5c0 1.074-.261 1.074-1.816 1.074v.696c.668-.051 1.816-.051 2.508-.051.266 0 1.648 0 2.461.051v-.696c-1.551 0-1.649-.121-1.649-1.051v-8.793zm24.868.528c-.762.14-1.051.714-1.051 1.168 0 .574.453.765.789.765.715 0 1.219-.621 1.219-1.265 0-1.004-1.149-1.458-2.153-1.458-1.457 0-2.269 1.434-2.484 1.887-.551-1.793-2.031-1.887-2.461-1.887-2.438 0-3.727 3.129-3.727 3.657 0 .093.094.215.262.215.192 0 .238-.145.285-.239.813-2.656 2.414-3.156 3.11-3.156 1.074 0 1.289 1.004 1.289 1.578 0 .524-.145 1.074-.434 2.223l-.808 3.273c-.36 1.434-1.051 2.746-2.321 2.746-.117 0-.715 0-1.219-.308.864-.168 1.055-.887 1.055-1.172 0-.477-.359-.766-.812-.766-.575 0-1.196.504-1.196 1.27 0 1 1.121 1.457 2.149 1.457 1.148 0 1.961-.91 2.461-1.887.383 1.406 1.578 1.887 2.461 1.887 2.437 0 3.73-3.133 3.73-3.656 0-.122-.098-.215-.238-.215-.219 0-.242.117-.313.308-.644 2.106-2.031 3.082-3.105 3.082-.836 0-1.293-.621-1.293-1.601 0-.524.098-.906.48-2.485l.836-3.25c.36-1.433 1.172-2.484 2.27-2.484.047 0 .719 0 1.219.313m19.523 1.718c.215-.523.621-1.554 2.148-1.578v-.691c-.691.047-1.027.047-1.765.047-.504 0-.86 0-1.961-.047v.691c1.004.047 1.125.766 1.125 1.028 0 .214-.051.335-.168.621l-2.438 6.168-2.675-6.739c-.121-.336-.145-.336-.145-.457 0-.621.91-.621 1.34-.621v-.691c-.598.047-1.844.047-2.484.047-.789 0-.84 0-2.297-.047v.691c1.34 0 1.578.098 1.863.836l3.418 8.555c.121.336.168.457.453.457.168 0 .313-.051.481-.457zm6.707-6.691c0-.621-.5-1.168-1.168-1.168-.625 0-1.148.5-1.148 1.144 0 .715.574 1.172 1.148 1.172.738 0 1.168-.621 1.168-1.148m-3.297 4.445v.692c1.528 0 1.746.144 1.746 1.316v6.5c0 1.074-.265 1.074-1.816 1.074v.696c.668-.051 1.816-.051 2.508-.051.261 0 1.648 0 2.461.051v-.696c-1.551 0-1.649-.121-1.649-1.051v-8.793zm14.793 4.731c.524 0 .574 0 .574-.453 0-2.415-1.293-4.661-4.183-4.661-2.723 0-4.828 2.461-4.828 5.426 0 3.153 2.437 5.473 5.089 5.473 2.844 0 3.922-2.582 3.922-3.082 0-.145-.121-.242-.265-.242-.192 0-.239.121-.285.242-.622 2.008-2.223 2.554-3.227 2.554s-3.418-.667-3.418-4.804v-.453zm-6.598-.453c.192-3.75 2.297-4.18 2.965-4.18 2.559 0 2.7 3.367 2.723 4.18zm18.481.191c0-2.223 0-2.891-.551-3.656-.695-.934-1.816-1.075-2.629-1.075-2.316 0-3.226 1.985-3.418 2.461h-.023v-2.461l-3.25.262v.692c1.625 0 1.816.168 1.816 1.339v6.477c0 1.074-.261 1.074-1.816 1.074v.696c.621-.051 1.914-.051 2.582-.051.691 0 1.984 0 2.601.051v-.696c-1.527 0-1.812 0-1.812-1.074v-4.445c0-2.508 1.648-3.848 3.129-3.848 1.48 0 1.816 1.219 1.816 2.676v5.617c0 1.074-.265 1.074-1.816 1.074v.696c.621-.051 1.914-.051 2.582-.051.691 0 1.98 0 2.601.051v-.696c-1.195 0-1.789 0-1.812-.715zm11.516.262c.527 0 .574 0 .574-.453 0-2.415-1.289-4.661-4.184-4.661-2.722 0-4.824 2.461-4.824 5.426 0 3.153 2.437 5.473 5.09 5.473 2.844 0 3.918-2.582 3.918-3.082 0-.145-.121-.242-.262-.242-.191 0-.242.121-.285.242-.625 2.008-2.223 2.554-3.231 2.554-1 0-3.414-.667-3.414-4.804v-.453zm-6.594-.453c.191-3.75 2.293-4.18 2.961-4.18 2.558 0 2.703 3.367 2.726 4.18zm32.777.191c0-2.223 0-2.891-.551-3.656-.695-.934-1.816-1.075-2.629-1.075-1.984 0-2.988 1.434-3.371 2.364-.332-1.84-1.625-2.364-3.129-2.364-2.316 0-3.226 1.985-3.417 2.461h-.024v-2.461l-3.25.262v.692c1.625 0 1.816.168 1.816 1.339v6.477c0 1.074-.261 1.074-1.816 1.074v.696c.621-.051 1.914-.051 2.582-.051.692 0 1.984 0 2.606.051v-.696c-1.532 0-1.817 0-1.817-1.074v-4.445c0-2.508 1.649-3.848 3.129-3.848 1.484 0 1.816 1.219 1.816 2.676v5.617c0 1.074-.261 1.074-1.816 1.074v.696c.621-.051 1.914-.051 2.582-.051.692 0 1.981 0 2.606.051v-.696c-1.532 0-1.817 0-1.817-1.074v-4.445c0-2.508 1.649-3.848 3.129-3.848 1.481 0 1.816 1.219 1.816 2.676v5.617c0 1.074-.261 1.074-1.816 1.074v.696c.621-.051 1.914-.051 2.582-.051.692 0 1.981 0 2.606.051v-.696c-1.196 0-1.793 0-1.817-.715zm13.434.691c0-3.082-2.34-5.543-5.114-5.543-2.867 0-5.136 2.536-5.136 5.543 0 3.063 2.386 5.356 5.113 5.356 2.816 0 5.137-2.344 5.137-5.356m-5.114 4.828c-.886 0-1.96-.382-2.652-1.554-.648-1.074-.672-2.485-.672-3.488 0-.907 0-2.364.742-3.442a3.07 3.07 0 0 1 2.559-1.406c.93 0 1.934.43 2.578 1.359.742 1.102.742 2.606.742 3.489 0 .839 0 2.32-.621 3.441-.668 1.148-1.769 1.601-2.676 1.601m9.958-16.296-3.325.261v.696c1.625 0 1.817.168 1.817 1.336v12.523c0 1.074-.262 1.074-1.817 1.074v.696c.668-.051 1.84-.051 2.559-.051.715 0 1.91 0 2.582.051v-.696c-1.531 0-1.816 0-1.816-1.074zm6.402 6.976h3.371v-.691h-3.371v-4.399h-.527c-.024 2.246-.883 4.543-3.059 4.614v.476h2.031v6.645c0 2.652 1.77 3.203 3.035 3.203 1.508 0 2.297-1.481 2.297-3.203v-1.364h-.527v1.317c0 1.719-.692 2.722-1.625 2.722-1.625 0-1.625-2.222-1.625-2.628zm9.242-5.113c0-.621-.5-1.168-1.168-1.168-.625 0-1.148.5-1.148 1.144 0 .715.574 1.172 1.148 1.172.738 0 1.168-.621 1.168-1.148m-3.297 4.445v.692c1.528 0 1.746.144 1.746 1.316v6.5c0 1.074-.265 1.074-1.816 1.074v.696c.668-.051 1.816-.051 2.508-.051.261 0 1.648 0 2.461.051v-.696c-1.551 0-1.649-.121-1.649-1.051v-8.793zm11.496 14.219c-1.531 0-1.816 0-1.816-1.074v-4.16c.43.597 1.406 1.531 2.937 1.531 2.75 0 5.161-2.32 5.161-5.403 0-3.035-2.243-5.375-4.848-5.375-2.106 0-3.227 1.504-3.301 1.598v-1.598l-3.32.262v.692c1.672 0 1.816.168 1.816 1.218v11.235c0 1.074-.262 1.074-1.816 1.074v.691c.621-.047 1.914-.047 2.582-.047.691 0 1.98 0 2.605.047zm-1.816-11.566c0-.454 0-.481.262-.86.718-1.078 1.886-1.531 2.796-1.531 1.79 0 3.223 2.176 3.223 4.851 0 2.844-1.625 4.922-3.465 4.922a2.83 2.83 0 0 1-1.91-.761c-.551-.551-.906-1.028-.906-1.7zm13.07-8.961-3.32.261v.696c1.625 0 1.816.168 1.816 1.336v12.523c0 1.074-.265 1.074-1.816 1.074v.696c.668-.051 1.84-.051 2.555-.051.718 0 1.914 0 2.582.051v-.696c-1.532 0-1.817 0-1.817-1.074zm6.547 1.863c0-.621-.5-1.168-1.168-1.168-.625 0-1.148.5-1.148 1.144 0 .715.574 1.172 1.148 1.172.738 0 1.168-.621 1.168-1.148m-3.297 4.445v.692c1.528 0 1.746.144 1.746 1.316v6.5c0 1.074-.265 1.074-1.816 1.074v.696c.668-.051 1.816-.051 2.508-.051.261 0 1.648 0 2.461.051v-.696c-1.551 0-1.649-.121-1.649-1.051v-8.793zm14.289 1.434c-.285 0-1.168 0-1.168.98 0 .574.407.981.977.981.551 0 1.004-.336 1.004-1.028 0-1.601-1.672-2.75-3.606-2.75-2.797 0-5.019 2.485-5.019 5.496 0 3.059 2.293 5.403 4.996 5.403 3.152 0 3.871-2.867 3.871-3.082 0-.219-.168-.219-.242-.219-.215 0-.239.074-.309.359-.527 1.7-1.816 2.414-3.109 2.414-1.457 0-3.391-1.265-3.391-4.898 0-3.969 2.031-4.945 3.227-4.945.906 0 2.222.359 2.769 1.289m10.973 2.461c0-1.289 0-2.246-1.051-3.18-.836-.762-1.91-1.098-2.961-1.098-1.961 0-3.465 1.293-3.465 2.844 0 .692.453 1.027 1.004 1.027.574 0 .981-.406.981-.98 0-.98-.864-.98-1.219-.98.547-1 1.695-1.43 2.648-1.43 1.102 0 2.512.906 2.512 3.055v.957c-4.805.074-6.617 2.082-6.617 3.918 0 1.89 2.195 2.488 3.652 2.488 1.578 0 2.657-.957 3.11-2.106.093 1.125.836 1.985 1.863 1.985.5 0 1.887-.336 1.887-2.246v-1.34h-.524v1.34c0 1.363-.574 1.554-.91 1.554-.91 0-.91-1.269-.91-1.625zm-1.551 3.011c0 2.34-1.742 3.129-2.773 3.129-1.168 0-2.149-.859-2.149-2.007 0-3.153 4.063-3.442 4.922-3.489zm8.043-6.238h3.371v-.691h-3.371v-4.399h-.523c-.024 2.246-.887 4.543-3.063 4.614v.476h2.031v6.645c0 2.652 1.77 3.203 3.039 3.203 1.504 0 2.293-1.481 2.293-3.203v-1.364h-.527v1.317c0 1.719-.691 2.722-1.625 2.722-1.625 0-1.625-2.222-1.625-2.628zm16.055 4.492c0-3.082-2.34-5.543-5.114-5.543-2.867 0-5.136 2.536-5.136 5.543 0 3.063 2.386 5.356 5.113 5.356 2.816 0 5.137-2.344 5.137-5.356m-5.114 4.828c-.886 0-1.96-.382-2.652-1.554-.648-1.074-.672-2.485-.672-3.488 0-.907 0-2.364.742-3.442a3.07 3.07 0 0 1 2.559-1.406c.93 0 1.934.43 2.578 1.359.742 1.102.742 2.606.742 3.489 0 .839 0 2.32-.621 3.441-.668 1.148-1.769 1.601-2.676 1.601m19.5 4.231c-1.531 0-1.816 0-1.816-1.074v-4.16c.43.597 1.41 1.531 2.938 1.531 2.75 0 5.164-2.32 5.164-5.403 0-3.035-2.246-5.375-4.852-5.375-2.101 0-3.226 1.504-3.297 1.598v-1.598l-3.324.262v.692c1.676 0 1.816.168 1.816 1.218v11.235c0 1.074-.261 1.074-1.816 1.074v.691c.625-.047 1.914-.047 2.582-.047.691 0 1.984 0 2.605.047zm-1.816-11.566c0-.454 0-.481.262-.86.719-1.078 1.887-1.531 2.797-1.531 1.793 0 3.226 2.176 3.226 4.851 0 2.844-1.625 4.922-3.465 4.922a2.83 2.83 0 0 1-1.914-.761c-.547-.551-.906-1.028-.906-1.7zm18.813 2.078c.527 0 .574 0 .574-.453 0-2.415-1.289-4.661-4.184-4.661-2.722 0-4.824 2.461-4.824 5.426 0 3.153 2.437 5.473 5.09 5.473 2.844 0 3.918-2.582 3.918-3.082 0-.145-.121-.242-.262-.242-.191 0-.242.121-.285.242-.625 2.008-2.223 2.554-3.231 2.554-1 0-3.414-.667-3.414-4.804v-.453zm-6.594-.453c.191-3.75 2.293-4.18 2.961-4.18 2.558 0 2.703 3.367 2.726 4.18zm11.832.429c0-2.316.957-4.492 2.797-4.492.191 0 .238 0 .336.023-.192.098-.575.243-.575.883 0 .696.547.957.93.957.481 0 .957-.308.957-.957 0-.715-.644-1.383-1.672-1.383-2.031 0-2.722 2.196-2.867 2.653h-.023v-2.653l-3.203.262v.692c1.625 0 1.816.168 1.816 1.339v6.477c0 1.074-.266 1.074-1.816 1.074v.696c.668-.051 1.984-.051 2.699-.051.644 0 2.344 0 2.89.051v-.696h-.476c-1.742 0-1.793-.261-1.793-1.121zm23.426 1.555h-.528c-.07.406-.261 1.719-.5 2.101-.168.215-1.531.215-2.246.215h-4.422c.645-.55 2.102-2.078 2.723-2.648 3.633-3.348 4.973-4.594 4.973-6.957 0-2.75-2.176-4.586-4.95-4.586-2.769 0-4.394 2.363-4.394 4.418 0 1.219 1.051 1.219 1.121 1.219.504 0 1.125-.356 1.125-1.121 0-.672-.453-1.125-1.125-1.125-.215 0-.262 0-.332.027.453-1.625 1.742-2.727 3.297-2.727 2.031 0 3.273 1.696 3.273 3.895 0 2.031-1.172 3.801-2.535 5.332l-4.824 5.398v.575h8.723zM14.824-211.477c0-.824 0-.863-.719-.863-.859.973-2.652 2.297-6.343 2.297v1.039c.824 0 2.617 0 4.59-.934v18.68c0 1.289-.11 1.719-3.266 1.719h-1.11v1.039c.97-.07 4.446-.07 5.63-.07s4.62 0 5.59.07v-1.039h-1.11c-3.156 0-3.262-.43-3.262-1.719zm13.77 9.25c0-.968-.825-1.722-1.719-1.722a1.73 1.73 0 0 0-1.758 1.722c0 1.075.899 1.754 1.723 1.754.965 0 1.754-.754 1.754-1.754m0 11.969c0-.969-.825-1.719-1.719-1.719a1.73 1.73 0 0 0-1.758 1.719c0 1.078.899 1.758 1.723 1.758.965 0 1.754-.754 1.754-1.758m23.363-15.961c0-.625-.5-1.172-1.168-1.172-.625 0-1.148.5-1.148 1.149a1.15 1.15 0 0 0 1.148 1.168c.738 0 1.168-.621 1.168-1.145m-3.297 4.446v.691c1.528 0 1.746.144 1.746 1.312v6.5c0 1.075-.265 1.075-1.816 1.075v.695c.668-.047 1.816-.047 2.508-.047.261 0 1.648 0 2.46.047v-.695c-1.55 0-1.648-.118-1.648-1.047v-8.797zm9.75-6.313-3.32.266v.691c1.625 0 1.816.168 1.816 1.34v12.519c0 1.075-.265 1.075-1.816 1.075v.695c.668-.047 1.84-.047 2.554-.047.72 0 1.915 0 2.583.047v-.695c-1.532 0-1.817 0-1.817-1.075zm18.84 7.742c-.285 0-1.172 0-1.172.981 0 .574.406.98.98.98.551 0 1.004-.336 1.004-1.027 0-1.602-1.671-2.746-3.609-2.746-2.793 0-5.016 2.484-5.016 5.496 0 3.058 2.294 5.398 4.993 5.398 3.156 0 3.87-2.867 3.87-3.082s-.167-.215-.237-.215c-.215 0-.239.071-.31.36-.526 1.695-1.815 2.41-3.109 2.41-1.457 0-3.39-1.266-3.39-4.899 0-3.964 2.031-4.945 3.223-4.945.91 0 2.226.36 2.773 1.289m12.719 3.731c0-3.082-2.344-5.543-5.113-5.543-2.868 0-5.137 2.531-5.137 5.543 0 3.058 2.387 5.351 5.113 5.351 2.816 0 5.137-2.34 5.137-5.351m-5.113 4.824c-.887 0-1.962-.379-2.653-1.551-.648-1.074-.672-2.484-.672-3.488 0-.91 0-2.367.742-3.442a3.06 3.06 0 0 1 2.559-1.41c.93 0 1.934.43 2.578 1.364.742 1.097.742 2.601.742 3.488 0 .836 0 2.316-.62 3.441-.669 1.145-1.77 1.598-2.676 1.598m16.48-5.516c0-2.226 0-2.894-.551-3.66-.695-.93-1.816-1.074-2.629-1.074-2.32 0-3.226 1.984-3.418 2.461h-.023v-2.461l-3.25.266v.691c1.625 0 1.816.168 1.816 1.34v6.472c0 1.075-.262 1.075-1.816 1.075v.695c.62-.047 1.91-.047 2.582-.047.691 0 1.984 0 2.601.047v-.695c-1.527 0-1.812 0-1.812-1.075v-4.445c0-2.508 1.648-3.848 3.129-3.848 1.48 0 1.816 1.219 1.816 2.68v5.613c0 1.075-.265 1.075-1.816 1.075v.695c.62-.047 1.91-.047 2.582-.047.691 0 1.98 0 2.601.047v-.695c-1.195 0-1.789 0-1.812-.715zm5.777-3.8h3.371v-.696h-3.371v-4.394h-.523c-.024 2.246-.887 4.539-3.059 4.609v.481h2.032v6.64c0 2.652 1.765 3.203 3.035 3.203 1.504 0 2.293-1.48 2.293-3.203v-1.359h-.528v1.312c0 1.723-.691 2.723-1.625 2.723-1.625 0-1.625-2.219-1.625-2.625zm14.239 4.062c.527 0 .574 0 .574-.453 0-2.414-1.289-4.66-4.184-4.66-2.722 0-4.824 2.461-4.824 5.422 0 3.156 2.437 5.472 5.09 5.472 2.844 0 3.918-2.582 3.918-3.082 0-.144-.121-.238-.262-.238-.191 0-.242.117-.285.238-.625 2.008-2.223 2.555-3.231 2.555-1 0-3.414-.668-3.414-4.801v-.453zm-6.594-.453c.191-3.754 2.293-4.184 2.961-4.184 2.558 0 2.703 3.367 2.726 4.184zm18.476.191c0-2.226 0-2.894-.55-3.66-.692-.93-1.817-1.074-2.629-1.074-2.317 0-3.227 1.984-3.414 2.461h-.028v-2.461l-3.25.266v.691c1.625 0 1.817.168 1.817 1.34v6.472c0 1.075-.262 1.075-1.817 1.075v.695c.621-.047 1.914-.047 2.582-.047.696 0 1.985 0 2.606.047v-.695c-1.531 0-1.817 0-1.817-1.075v-4.445c0-2.508 1.649-3.848 3.129-3.848 1.485 0 1.817 1.219 1.817 2.68v5.613c0 1.075-.262 1.075-1.817 1.075v.695c.621-.047 1.914-.047 2.582-.047.696 0 1.985 0 2.606.047v-.695c-1.196 0-1.793 0-1.817-.715zm8.93-4.468v.691c1.625 0 1.816.168 1.816 1.34v4.273c0 2.031-1.074 3.731-2.867 3.731-1.961 0-2.078-1.125-2.078-2.391v-7.91l-3.371.266v.691c1.816 0 1.816.07 1.816 2.199v3.582c0 1.481 0 2.344.719 3.133.574.621 1.555.906 2.77.906.41 0 1.172 0 1.984-.691.695-.551 1.074-1.461 1.074-1.461v2.152l3.325-.238v-.695c-1.625 0-1.817-.164-1.817-1.336v-8.508zm9.75.668h3.371v-.696h-3.371v-4.394h-.523c-.024 2.246-.887 4.539-3.063 4.609v.481h2.031v6.64c0 2.652 1.77 3.203 3.039 3.203 1.504 0 2.293-1.48 2.293-3.203v-1.359h-.527v1.312c0 1.723-.691 2.723-1.625 2.723-1.625 0-1.625-2.219-1.625-2.625zm16.055 4.492c0-3.082-2.34-5.543-5.114-5.543-2.867 0-5.136 2.531-5.136 5.543 0 3.058 2.386 5.351 5.113 5.351 2.816 0 5.137-2.34 5.137-5.351m-5.114 4.824c-.886 0-1.96-.379-2.652-1.551-.648-1.074-.672-2.484-.672-3.488 0-.91 0-2.367.742-3.442a3.06 3.06 0 0 1 2.559-1.41c.93 0 1.934.43 2.578 1.364.742 1.097.742 2.601.742 3.488 0 .836 0 2.316-.621 3.441-.668 1.145-1.769 1.598-2.676 1.598m20.813-16.031v.691c1.625 0 1.816.168 1.816 1.34v5.281c-.5-.695-1.527-1.531-2.988-1.531-2.769 0-5.16 2.344-5.16 5.402 0 3.035 2.269 5.375 4.898 5.375 1.817 0 2.868-1.195 3.204-1.648v1.648l3.367-.238v-.695c-1.625 0-1.813-.164-1.813-1.336v-14.555zm1.77 13.523c0 .43 0 .504-.336 1.027-.571.84-1.551 1.532-2.747 1.532-.621 0-3.203-.239-3.203-4.875 0-1.723.286-2.676.813-3.465.476-.742 1.433-1.485 2.629-1.485 1.48 0 2.316 1.079 2.554 1.461.29.407.29.454.29.883zm8.218-11.922c0-.625-.5-1.172-1.168-1.172-.621 0-1.148.5-1.148 1.149a1.15 1.15 0 0 0 1.148 1.168c.739 0 1.168-.621 1.168-1.145m-3.297 4.446v.691c1.532 0 1.746.144 1.746 1.312v6.5c0 1.075-.261 1.075-1.816 1.075v.695c.668-.047 1.816-.047 2.508-.047.266 0 1.648 0 2.461.047v-.695c-1.551 0-1.649-.118-1.649-1.047v-8.797zm24.868.523c-.762.145-1.051.719-1.051 1.172 0 .574.453.765.789.765.715 0 1.219-.625 1.219-1.269 0-1.004-1.149-1.457-2.153-1.457-1.457 0-2.269 1.434-2.484 1.891-.551-1.793-2.031-1.891-2.461-1.891-2.438 0-3.727 3.133-3.727 3.656 0 .098.094.215.262.215.192 0 .238-.145.285-.238.813-2.653 2.414-3.157 3.11-3.157 1.074 0 1.289 1.008 1.289 1.579 0 .527-.145 1.078-.434 2.222l-.808 3.274c-.36 1.433-1.051 2.75-2.321 2.75-.117 0-.715 0-1.219-.313.864-.168 1.055-.883 1.055-1.168 0-.48-.359-.765-.812-.765-.575 0-1.196.5-1.196 1.265 0 1.004 1.121 1.457 2.149 1.457 1.148 0 1.961-.906 2.461-1.886.383 1.41 1.578 1.886 2.461 1.886 2.437 0 3.73-3.129 3.73-3.656 0-.117-.098-.215-.238-.215-.219 0-.242.121-.313.313-.644 2.101-2.031 3.082-3.105 3.082-.836 0-1.293-.621-1.293-1.602 0-.527.098-.906.48-2.484l.836-3.25c.36-1.434 1.172-2.489 2.27-2.489.047 0 .719 0 1.219.313m16.941-6.57v.691c1.625 0 1.816.168 1.816 1.34v5.281c-.5-.695-1.527-1.531-2.988-1.531-2.769 0-5.16 2.344-5.16 5.402 0 3.035 2.269 5.375 4.898 5.375 1.817 0 2.868-1.195 3.204-1.648v1.648l3.367-.238v-.695c-1.625 0-1.813-.164-1.813-1.336v-14.555zm1.77 13.523c0 .43 0 .504-.336 1.027-.571.84-1.551 1.532-2.747 1.532-.621 0-3.203-.239-3.203-4.875 0-1.723.286-2.676.813-3.465.476-.742 1.433-1.485 2.629-1.485 1.48 0 2.316 1.079 2.554 1.461.29.407.29.454.29.883zm8.218-11.922c0-.625-.5-1.172-1.168-1.172-.621 0-1.148.5-1.148 1.149a1.15 1.15 0 0 0 1.148 1.168c.739 0 1.168-.621 1.168-1.145m-3.297 4.446v.691c1.532 0 1.746.144 1.746 1.312v6.5c0 1.075-.261 1.075-1.816 1.075v.695c.668-.047 1.816-.047 2.508-.047.266 0 1.648 0 2.461.047v-.695c-1.551 0-1.649-.118-1.649-1.047v-8.797zm15.391 2.242c.215-.524.621-1.551 2.148-1.574v-.696c-.691.047-1.027.047-1.765.047-.504 0-.86 0-1.961-.047v.696c1.004.046 1.125.761 1.125 1.027 0 .215-.051.336-.168.621l-2.438 6.164-2.675-6.738c-.121-.336-.145-.336-.145-.453 0-.621.91-.621 1.34-.621v-.696c-.598.047-1.844.047-2.484.047-.789 0-.84 0-2.297-.047v.696c1.34 0 1.578.093 1.863.835l3.418 8.555c.121.332.168.453.453.453.168 0 .313-.047.481-.453zm11.102 2.488c.527 0 .574 0 .574-.453 0-2.414-1.289-4.66-4.184-4.66-2.722 0-4.824 2.461-4.824 5.422 0 3.156 2.437 5.472 5.09 5.472 2.844 0 3.918-2.582 3.918-3.082 0-.144-.121-.238-.262-.238-.191 0-.242.117-.285.238-.625 2.008-2.223 2.555-3.231 2.555-1 0-3.414-.668-3.414-4.801v-.453zm-6.594-.453c.191-3.754 2.293-4.184 2.961-4.184 2.558 0 2.703 3.367 2.726 4.184zm18.476.191c0-2.226 0-2.894-.55-3.66-.692-.93-1.817-1.074-2.629-1.074-2.317 0-3.227 1.984-3.414 2.461h-.028v-2.461l-3.25.266v.691c1.625 0 1.817.168 1.817 1.34v6.472c0 1.075-.262 1.075-1.817 1.075v.695c.621-.047 1.914-.047 2.582-.047.696 0 1.985 0 2.606.047v-.695c-1.531 0-1.817 0-1.817-1.075v-4.445c0-2.508 1.649-3.848 3.129-3.848 1.485 0 1.817 1.219 1.817 2.68v5.613c0 1.075-.262 1.075-1.817 1.075v.695c.621-.047 1.914-.047 2.582-.047.696 0 1.985 0 2.606.047v-.695c-1.196 0-1.793 0-1.817-.715zm5.782-3.8h3.367v-.696h-3.367v-4.394h-.528c-.023 2.246-.883 4.539-3.058 4.609v.481h2.031v6.64c0 2.652 1.769 3.203 3.035 3.203 1.508 0 2.293-1.48 2.293-3.203v-1.359h-.523v1.312c0 1.723-.696 2.723-1.625 2.723-1.625 0-1.625-2.219-1.625-2.625zm14.207 3.226c0-1.293 0-2.25-1.051-3.18-.836-.765-1.91-1.097-2.961-1.097-1.961 0-3.469 1.289-3.469 2.843 0 .692.457 1.028 1.004 1.028.574 0 .981-.406.981-.981 0-.98-.86-.98-1.219-.98.551-1.004 1.699-1.434 2.652-1.434 1.102 0 2.512.907 2.512 3.059v.957c-4.805.07-6.621 2.078-6.621 3.918 0 1.887 2.199 2.484 3.656 2.484 1.578 0 2.652-.957 3.106-2.101.097 1.121.835 1.98 1.867 1.98.5 0 1.886-.332 1.886-2.246v-1.336h-.527v1.336c0 1.363-.57 1.555-.906 1.555-.91 0-.91-1.266-.91-1.625zm-1.551 3.012c0 2.34-1.746 3.129-2.774 3.129-1.171 0-2.152-.864-2.152-2.008 0-3.152 4.067-3.442 4.926-3.488zm22.441-.649h-.523c-.074.407-.262 1.723-.5 2.102-.168.219-1.531.219-2.25.219h-4.418c.644-.551 2.101-2.078 2.723-2.653 3.632-3.347 4.968-4.59 4.968-6.957 0-2.746-2.172-4.586-4.945-4.586s-4.398 2.368-4.398 4.422c0 1.215 1.05 1.215 1.125 1.215.5 0 1.121-.355 1.121-1.121 0-.668-.453-1.121-1.121-1.121-.215 0-.262 0-.336.023.457-1.625 1.746-2.726 3.3-2.726 2.032 0 3.274 1.695 3.274 3.894 0 2.032-1.172 3.801-2.535 5.332l-4.828 5.399v.574h8.722z"/></g></svg>