<svg xmlns="http://www.w3.org/2000/svg" width="635pt" height="359pt" viewBox="0 -359 635 359"><g id="page1"><g fill-rule="evenodd"><path fill="#f2f2f2" d="M14.418-208.078c-3.855.652-5.715 3.535-7.309 5.765-4.12 6.793-5.582 14.325-3.855 21.489 1.73 7.16 7.707 13.301 14.484 18.601 4.918 3.813 10.364 7.254 15.547 10.883 1.461 1.766-1.46 3.16-2.258 4.649-1.73 3.07-3.59 6.14-4.652 9.394-2.125 5.77-3.055 11.813-3.055 17.859.93 2.325 5.313 1.118 7.84 1.954 1.992.281 5.711.746 6.64 1.117-2.655.094-5.312-.653-7.968-.746-2.129-.184-7.309-1.395-6.246 1.304 1.86 1.86 5.71.555 8.504 1.024.93.09 4.515.371 1.726.465-2.789.183-5.714-.282-8.636 0-2.39.836.398 3.812 2.789 3.347 3.058-.281 6.113-.84 9.168-.558-2.922.465-6.11.465-9.035.836-2.657 1.488 1.863 3.164 3.058 4.371 7.84 4.84 18.336 6.605 28.434 7.629 11.824 1.023 23.785 1.113 35.61.37 10.495-.652 21.394-2.14 30.163-6.605 2.524-1.3 4.914-2.972 6.246-5.019.399-1.117-4.254-1.117-1.199-1.117 3.059.652 5.051-3.719 1.066-3.254-2.128 0-4.253.09-6.378-.094 2.921-.746 7.308.465 9.433-1.395 0-2.418-4.254-.929-6.379-.929-1.593 0-4.117.648-5.179.277 2.921-.371 5.711-.836 8.636-1.117 3.985.187 3.055-2.977 2.922-4.742-.398-9.672-3.722-19.348-10.363-27.719.266-2.047 3.719-2.789 5.312-4.277 9.571-6.141 19.137-12.93 24.051-21.672 4.121-7.348 3.192-15.535 0-22.977-1.328-3.066-3.32-6.32-6.906-8.371-3.856-1.578-8.508-.742-12.492.094-9.567 2.418-17.008 7.812-22.59 13.676-5.981 6.418-9.434 13.855-10.895 21.39-.93 4.094-1.062 8.278-1.328 12.465-2.394 1.207-4.785-1.117-7.308-1.211-3.32-.742-6.645-1.582-10.098-1.582-2.262 1.211-5.582 0-7.574-.93-2.258-1.019-.797-3.718-2.66-4.464-.93 1.304.27 3.445-2.391 3.445.266 1.113 3.855 3.16.133 2.973-3.188.375-6.246 1.21-9.434 1.863-2.523-1.117-.265-3.723-1.062-5.582-.664-12-5.715-24.184-16.742-33.578-6.114-5.114-14.75-9.301-24.45-9.395-1.195 0-2.258 0-3.32.094m1.063 5.394c-3.989 1.676-4.786 5.211-5.184 8.188-1.063 8.926 3.988 17.484 10.629 24.832 4.785 5.394 10.234 10.601 15.812 15.625 1.996.746-1.46-2.047-1.992-2.602-8.504-8-17.14-16.183-21.656-25.672-2.527-5.3-3.324-11.164-.934-16.558 1.067-2.043 4.121-3.906 7.442-3.254 5.582.836 9.433 4.184 12.758 7.254 7.44 7.348 11.956 16 14.484 24.836.93 3.812 1.594 7.719 1.86 11.625.663.652.265-1.86.265-2.324-.399-7.536-2.926-15.071-6.645-22.043-3.984-6.7-9.168-13.207-17.007-17.953-2.657-1.489-6.247-3.071-9.832-1.954m123.441.094c-6.91 1.953-11.563 6.324-15.414 10.512-8.238 9.39-13.024 20.183-13.953 31.062-.133.93-.133 3.164.133 3.164.796-3.347.531-6.789 1.593-10.136 2.528-9.395 7.442-18.606 15.282-26.508 3.32-3.258 7.308-6.512 13.023-7.817 3.055-.648 5.844.93 6.773 2.883 2.528 4 2.129 8.559 1.067 12.746-2.66 9.672-10.899 17.95-19.137 25.762-2.391 2.418-4.918 4.746-7.441 7.164 2.394-1.023 3.457-2.883 5.316-4.277 7.043-6.887 14.75-13.676 18.867-21.766 2.789-5.582 4.653-11.535 3.457-17.488-.535-2.231-2.129-5.024-5.715-5.578-1.328-.188-2.656 0-3.851.277m19.133 12.09c.265.84.531 4.187.531 1.859.266-.371-.398-2.972-.531-1.859M.199-189.195a19.6 19.6 0 0 0 0 5.578c.266-1.86.266-4.555 0-6.043 0 .183.133.371 0 .465m39.465 24.179c.93 1.77 1.461 4.188-.664 5.118.133 1.023 2.523 2.793 2.258.746-.133-1.864.133-4.559-1.594-5.864m78.129.653c-.797 1.859-1.727 4.652-.133 6.14 1.86-.652 1.328-2.234 0-2.793-.265-1.113.797-2.23.133-3.347m-68.828 33.207c-5.848 1.582-7.707 6.695-5.98 10.508 1.195 3.164 5.98 5.863 10.628 4.746 5.848-1.395 8.239-6.512 6.38-10.418-1.196-2.977-5.45-5.766-10.099-5.024-.265 0-.663.094-.93.188m55.672 0c-5.578 1.488-7.707 6.418-6.11 10.136.93 2.883 4.649 5.766 9.168 5.395 5.446-.559 8.504-4.648 8.106-8.184-.133-3.347-3.059-7.07-8.106-7.629-.929 0-1.996.094-3.058.282m-55.274 1.117c-3.058.465-3.457 4.184 0 4.371 3.453.371 5.446-3.816 1.727-4.465-.664-.094-1.196-.094-1.727.094m55.672 0c-3.851.184-3.719 5.019.531 4.371 3.325-.281 4.122-4.465.133-4.465h-.261zm-27.637 13.484c-3.984 0-1.992 3.907 1.329 3.442 2.527 1.117 1.195 3.629.664 5.3-.93 1.954-4.25 3.258-7.172 2.418-1.2-.277-3.325-1.859-3.856-1.394 1.727 1.953 5.45 2.512 8.371 2.047 1.594 1.582 5.45 3.347 6.645.558 2.39-1.117 5.848.094 7.973-1.488 1.328-.277 1.726-2.047.132-.836-2.125 1.488-5.98 1.953-8.238.278-2.125-1.583-2.523-3.907-2.125-5.954 1.195-1.3 7.04-1.859 3.586-3.906-2.125-.836-4.918-.742-7.309-.465m.399.282c-3.719 0-1.328 3.253 1.328 2.789 2.262.648 8.371-1.024 4.785-2.606-1.992-.465-4.12-.183-6.113-.183m1.992 9.39c-3.055 1.117-.398 5.117 2.527 3.258 1.196-.84-.797-4.559-2.527-3.258m24.051 8.84c-11.293 1.3-22.586 1.207-33.883 1.02-4.648-.184-9.3-.465-13.95-1.02-2.792.742-3.987 2.973-5.714 4.649C44.977-87.258 41.789-80 43.117-72.84c.531 2.512 1.992 5.305 5.317 6.512 1.062-.094.398-2.512 1.46-.836.532 1.86 6.247 2.602 5.848.558-.664-.746-3.191-2.421-2.129-2.511 1.063 1.394 5.317 3.531 5.98.836-.398-.653-3.054-2.977-.796-1.582 3.187 1.394 2.922-2.325 2.922-3.625-.532-4.281-3.453-8.188-3.453-12.465 0-.93.398-1.582.797-.278.53 2.043 1.062 4.09 1.992 6.043 1.593 3.907 3.191 8.278.664 12.094-2.657 4.09-11.426 5.113-15.813 1.86-2.922-2.141-4.117-5.118-4.515-8-1.594-1.672-2.391 2.14-3.055 2.976-2.926 6.606-3.988 14.137.531 20.465.664 2.137 3.453 3.16 5.844 1.672 7.043-2.047 16.078-1.672 21.926 2.047 1.992 1.3 3.054 3.441 2.257 5.394.797 2.23 5.184 1.024 7.575 1.395 5.316-.094 10.762.094 16.078-.278 2.523-1.398.133-4.464 3.055-5.953 3.988-3.629 11.164-4.37 17.277-3.535 2.523.278 5.047.93 7.305 1.766 3.187-.184 3.324-3.16 4.785-4.836 3.187-6.695 1.328-14.137-2.258-20.555-.664-1.676-2.527-.836-1.996.465 0 3.813-3.453 7.813-9.035 8.648-4.649.84-9.7-1.023-11.293-4.183-2.39-3.906-.266-8.184 1.195-12 .797-2.043 1.594-4.184 1.859-6.324 1.461 1.582.133 3.722-.265 5.394-1.196 3.907-3.055 7.907-1.992 11.907 1.062 1.765 4.918-1.954 2.789.28-2.524 1.766 1.332 3.903 3.058 1.86.532-.746 3.321-1.86 1.594-.465-1.594.836-2.789 2.977.266 2.696 2.39.464 4.117-1.954 4.785-2.325.527 2.79 3.586-.558 4.117-1.675 2.656-4.371 1.859-9.489.266-14.043-2.125-5.211-5.715-10.141-10.629-14.23-1.063-.56-2.395-.653-3.59-.372m24.848 37.387c-.266 1.492.664 1.398.531 0 .133-.93-.664-1.672-.531-.278zm-22.586 11.535c-5.051.277-10.633 2.789-11.165 6.605 0 2.508 3.457 4.09 6.512 4.278 2.789.742 6.778-.094 6.379-2.606-.133-.836.531-1.953.797-.465-.398 1.676.531 3.813 3.453 2.977 3.059 0 2.125-3.348 3.324-3.719.266 1.301 0 4.371 3.188 3.07 1.328-.468 1.062-3.163 1.859-2.98-.398 1.398 1.864 3.07 2.66 1.023 1.727-2.23-.796-4.742-3.457-5.859-3.984-1.953-8.902-2.695-13.55-2.324m-57.137.371c-4.254.652-8.903 2.234-10.23 5.395-.665 1.21 1.328 4.746 2.788 2.792 0-.84.93-2.328.797-.558-.664 1.766 4.52 3.719 4.52 1.207-.266-.742.531-3.16.797-1.3-.399 2.233 3.718 4 5.976 2.417.664-.836-.265-3.164.797-3.164.535 1.492.133 4.375 3.59 3.91 3.188 0 7.441-.558 8.77-2.976 1.593-2.7-.797-5.864-4.52-6.977-3.984-1.488-8.902-1.488-13.285-.746"/><path fill="#0f0" d="M111.504-93.926c-18.043 4.41-43.375 3.543-62.16.778-2.223 2.335-4.075 5.882-5.188 8.304-.988 2.422-1.484 5.45-1.73 8.043 2.347-.605 3.582-.949 5.312-.949 3.707-.867 9.39-1.125 13.223-.953-2.102-5.191-.246-.434.742 1.816 1.234 3.375 1.48 7.352-2.101 10.035-2.965 2.422-8.774 3.028-12.356.864-3.34-1.989-5.066-5.016-5.437-7.957-.989-1.903-3.336-.262-3.336 1.039-.742 1.73-1.61 3.457-1.856 5.273 26.692 9.43 63.024 8.91 88.602 0-.121-2.246-.742-2.594-.989-3.89-.617-1.125-1.605-4.586-3.707-2.856-.617 1.645-.496 3.461-1.605 5.02-1.855 3.113-7.047 5.363-11.988 4.41-4.821-1.04-7.536-4.844-7.29-8.219 1.606-4.152 2.098-5.707 4.45-5.707 4.57 0 10.996.691 15.445 1.816-.125-1.906-.246-2.511-.371-3.722-.617-5.274-5.066-10.985-7.66-13.145"/><path d="M13.754-209.566c-4.121.464-7.707 3.906-10.633 10.23-.93 1.863-1.992 4.93-1.86 5.305.134.09 0 .465-.265 1.019-.531 1.489-.797 6.235-.531 9.117.93 10.508 7.707 18.043 28.3 31.715 2.395 1.489 2.794 1.957 2.262 2.235-.265 0-1.863 2.324-2.925 4.093-.93 1.395-2.391 4.278-3.055 5.766-1.328 3.254-2.125 5.578-2.39 7.348-.134.652-.4 1.394-.532 1.765 0 .282-.266 1.489-.398 2.606s-.266 2.14-.399 2.23c0 .094-.133 1.676-.27 3.535-.132 4.094 0 3.907-2.523 3.723-1.86-.187-7.574-.277-8.238-.094-.664.188 2.394.653 6.379.93 4.117.277 4.383.371 4.52 1.582.132 1.023.132 1.023-4.255 1.117-1.726 0-3.718.09-4.386.184-.664.094-1.86.187-2.79.281-2.921.277-6.378.93-5.578 1.113.532.188.93.188 7.305-.371 4.387-.371 9.969-.277 10.5.188.797.742.531 1.488-.531 1.488-3.855.184-8.906.93-12.227 1.859-1.726.465-1.992 1.024-.398.653.531-.094 2.789-.465 6.512-.934.93-.183 2.257-.277 2.922-.371.796 0 1.859-.184 2.523-.277 1.465-.282 2.527-.188 2.793.371.266.652-.266 1.023-1.86 1.211-2.394.277-5.316 1.207-7.308 2.418-1.594.836-.93 1.023 1.195.183 1.727-.554 4.118-1.3 5.715-1.672.664-.093 1.461-.371 1.727-.464.797-.371 1.195-.282 1.86.558 1.593 1.766 5.714 4.555 9.034 6.137 4.52 2.047 12.492 4.187 15.946 4.187 1.992 0 2.523.743 1.195 1.579-3.453 2.328-9.035 11.347-9.832 16 0 .558-.266 1.117-.399 1.3-.132.282-.797 1.211-1.328 2.141-1.062 1.582-1.46 2.23-2.793 4.742-1.062 2.047-2.258 5.305-2.656 7.254-.133.746-.266 1.676-.398 2.047-.266.934-.266 4.93 0 6.047.132.465.265 1.3.398 1.86.664 2.792 3.32 7.07 4.918 8.187.398.277.266.93-.133.93-.133 0-.531.37-.797.742-3.191 4.28.399 8.277 7.438 8.277.797 0 2.261.094 3.324.281 1.461.278 2.39.371 3.586.278.797-.094 2.39 0 3.457.093 3.188.282 7.707-.277 9.7-1.207 1.726-.84 2.656-1.023 3.984-.84 1.593.188 21.129.188 23.254 0 1.859-.183 2.257-.09 3.851.746 2.262 1.301 11.43 1.766 16.609.93.536-.094 1.864-.281 3.059-.281 5.445-.371 7.707-1.207 8.77-3.348.929-1.672.132-4.465-1.594-5.765-.531-.371-.531-.465-.137-.743 1.199-.933 4.387-5.863 4.387-6.699 0-.093.265-.836.531-1.582.664-1.765.664-8 .133-9.578-.266-.558-.399-1.117-.399-1.305 0-1.394-2.656-7.066-5.046-10.695-1.332-2.047-1.864-2.977-1.997-3.906-.265-1.117-.398-1.395-1.062-3.254-1.594-4.281-5.848-10.14-9.035-12.465-1.992-1.395-1.86-1.953.398-2.047 7.309-.277 20.864-6.512 22.59-10.418.266-.554.797-.648 3.055-.183 4.254.742 5.051.929 7.972 1.859 4.786 1.488 4.786.742 0-1.023-2.257-.836-5.449-1.489-7.972-1.676-1.86-.184-2.391-.649-1.727-1.489.266-.183.531-.742.664-1.207.133-1.023.664-1.488 1.86-1.488 6.777.094 8.769.188 11.031.371 6.375.559 10.496.559 8.504.094-.531-.187-.934-.187-1.067-.187-.128.093-.664 0-1.328-.184-.531-.188-1.859-.371-2.922-.465-1.062-.094-2.523-.187-3.453-.281-.8-.094-3.722-.184-6.511-.184-5.582.09-5.715.09-5.45-1.117.266-.742.399-.836 2.528-.93 1.062-.093 2.789-.281 3.718-.375.93-.089 2.657-.277 3.586-.277 2.262-.094 6.114-.742 5.715-.93-.398-.183-5.445-.093-7.308.094-.93.094-2.657.184-3.852.277-1.328.094-2.66.188-2.926.282-.929.093-1.062-.188-1.195-4.465-.133-2.235-.266-4.371-.398-4.746-.133-.465-.266-1.578-.532-2.508-.265-1.863-.398-2.328-1.328-5.305-.664-2.047-.664-1.953-1.992-5.019-1.465-3.352-4.52-8.559-5.582-9.399-.398-.371-.266-.554 1.062-1.484 24.45-15.723 31.758-24.649 30.297-37.02-.132-1.023-.265-2.511-.265-3.257-.133-.743-.266-1.489-.399-1.766-.133-.188-.265-.93-.398-1.582-.934-4.836-4.918-11.16-8.504-13.578-3.059-2.047-11.828-1.676-19 .648-13.289 4.375-24.852 15.723-29.367 28.836-1.196 3.442-1.328 4-1.594 5.207-.133.653-.266 1.488-.399 1.77-.132.371-.398 1.488-.53 2.511 0 1.114-.266 2.602-.4 3.348-.132.836-.132 2.047-.132 2.883.133 2.047-.133 2.418-1.73 1.676-2.391-.934-15.41-3.164-16.875-2.793-.133 0-.532.281-.665.558-.796 1.117-3.187-.742-3.453-2.789-.132-1.211.266-3.07 1.063-4.558 1.195-2.235-.531-2.137-3.586.187-1.332 1.024-1.73 1.578-1.996 2.695-.266 1.582-1.328 1.77-1.461.282-.266-1.399-.398-1.582-.797-1.582-1.594 0-1.992 4.093-.531 5.582.93 1.019.664 1.207-2.125 1.765-4.254.93-4.387.836-3.989-.746.133-.465.133-1.484 0-2.883-.132-1.207-.398-3.07-.53-4.089-.134-1.118-.266-2.418-.4-2.883s-.398-1.492-.53-2.328A37 37 0 0 0 58-180.453c-.133-.559-.531-1.582-.797-2.141s-.664-1.488-1.062-2.136c-.266-.559-.664-1.305-.797-1.676-5.051-10.789-19.403-21.02-32.024-22.789-.93-.184-1.726-.278-1.86-.371-.265-.094-6.644-.188-7.706 0m.664 1.488c-6.777.652-13.29 14.512-11.695 25.019 1.597 9.672 8.77 17.489 27.64 29.672 4.25 2.696 4.118 2.512 2.922 3.907-5.847 6.976-9.433 16.929-9.965 27.531-.133 3.812-.265 3.629 3.188 3.906 2.523.277 7.707.93 8.504 1.117.265.094 1.062.188 1.726.278.532 0 1.196.187 1.332.187.532.277-.8.188-2.66 0-1.46-.277-4.781-.559-9.3-1.023-2.258-.282-2.657-.094-2.657.929 0 1.489.133 1.582 4.914 1.676 4.653.094 6.91.277 6.91.465 0 .094-2.39.094-5.312.094-6.645-.188-6.512-.188-4.918 2.136.664 1.024 1.594 1.489 2.39 1.301.532-.183 7.176-.742 8.504-.742 1.993 0 1.328.277-.93.371-1.726.094-5.179.469-7.042.652-1.328.188-1.196.836.398 2.235 8.371 7.16 25.38 10.508 52.489 10.508 25.378 0 42.515-3.625 49.695-10.696 1.726-1.675 1.594-2.047-.668-2.418-1.328-.187-1.328-.187.133-.093 2.527.093 3.324-.465 3.722-2.325.133-.929.133-.929-4.918-.929-5.312.09-4.914-.188.934-.375 4.383-.278 4.648-.371 4.648-1.395 0-.836-.398-1.207-1.593-1.023-.532 0-2.258.187-3.856.281-1.461.094-3.32.277-3.984.371s-1.461.188-1.86.188c-1.062 0-.265-.282 1.196-.375.664-.09 1.726-.184 2.258-.278.664-.187 2.523-.371 4.121-.558 3.851-.371 3.984-.371 3.984-2.235 0-10.789-3.453-21.203-9.832-29.39-1.328-1.672-1.465-1.395 2.523-3.813 25.114-15.625 32.157-26.23 27.637-41.762-2.391-8.371-6.641-13.207-11.824-13.488-17.805-.836-37.734 14.977-41.856 33.391 0 .375-.265 1.117-.398 1.769-.664 2.324-1.328 6.977-1.461 10.418-.133 3.996.133 3.813-2.793 2.977-6.906-2.047-14.879-3.442-15.277-2.699-.133.464-.531.464-2.528.187-4.25-.465-6.242-1.953-6.242-4.746 0-1.672-1.066-1.672-1.465 0v1.398c.133.649-.133.93-.796.743-1.594-.282-1.594.558 0 1.765 1.464 1.117 1.464 1.399 0 1.399-1.196 0-5.313.742-8.504 1.578-3.188.746-2.922 1.023-2.922-3.16 0-25.395-21.395-46.973-44.512-44.926m1.063 5.394c-5.715 2.047-7.043 11.813-2.926 20.836 2.925 6.325 8.504 13.114 19.004 23.067 1.062.929 2.656 2.511 3.718 3.535 1.063.93 2.125 1.766 2.258 1.672.399-.09.266-.184-3.586-3.813-18.07-16.836-24.183-26.789-23.12-37.109 1.46-12.371 15.28-9.582 26.573 5.394 1.864 2.418 3.325 4.836 5.051 7.997.664 1.023 2.125 4.281 2.39 5.117.134.465.4 1.117.532 1.394 1.465 3.906 2.793 9.86 3.059 14.324.265 3.348.664 3.348.53 0 0-4.835-1.46-10.601-4.12-17.207-5.844-14.695-21.39-27.996-29.364-25.207m123.441.094c-13.82 3.442-28.57 24.649-29.5 42.133-.133 4.371.398 3.535.797-1.113 1.594-18.418 18.07-40.184 30.695-40.832 6.109-.375 9.168 8.277 5.977 17.297-2.657 7.816-7.703 14.14-21.258 26.789-5.317 4.929-5.051 4.742-4.653 4.652.93-.094 13.954-12.652 17.805-17.117 13.422-15.532 13.422-35.067.137-31.809m-99.258 37.574c0 .094.133.469.266.934 1.062 2.137.664 4.09-.664 3.812-.266 0-.532 0-.399.094 1.461 2.141 1.727 2.418 2.125 2.043.531-.555.133-5.113-.531-6.043-.531-.84-.797-1.117-.797-.84m78.129.653c-1.195 2.14-1.195 6.789 0 6.23.664-.277 1.594-2.137 1.062-2.137-1.195 0-1.328-.464-1.062-2.511.266-1.207.266-2.047 0-1.582m-68.828 33.207c-8.504 2.23-8.903 12.371-.664 15.066 7.308 2.324 14.48-4 11.558-10.23-1.593-3.813-6.511-5.953-10.894-4.836m55.672 0c-7.172 1.765-9.035 9.953-3.055 13.953 4.117 2.789 10.363 1.765 13.023-2.141 4.118-6.14-2.261-13.672-9.968-11.812m-55.274 1.117c-1.593.371-2.789 1.672-2.523 2.695.531 1.77 3.453 2.235 5.312.836 2.258-1.765.266-4.277-2.789-3.531m55.672 0c-4.117.648-3.586 4.93.531 4.371 2.926-.375 3.989-3.535 1.465-4.187-1.062-.278-1.195-.278-1.996-.184m-27.637 13.484c-3.718.371-2.921 2.977 1.063 3.442 1.73.187 2.129 1.859 1.195 4.652-1.328 3.441-5.976 4.371-9.965 1.953-1.593-1.023-2.125-.746-.664.371 1.86 1.301 4.254 1.766 7.043 1.395 1.196-.094 1.196-.094 1.993.746 1.593 1.859 3.722 1.859 5.183.183.797-.929 1.063-1.023 2.523-.835 2.391.371 7.043-1.118 7.043-2.235 0-.371-.53-.277-1.726.469-3.457 2.23-8.238 1.301-9.567-1.863-1.062-2.606-.663-4.465.93-4.836 6.91-1.395 2.79-4.371-5.05-3.442m.399.282c-4.25.464-1.86 2.882 2.66 2.882 3.984 0 6.508-2.047 3.586-2.699-1.062-.277-4.652-.371-6.246-.183m60.59 3.996c-1.063 0-2.657.093-2.657.187 0 .188 5.981.742 7.176.836 1.328.188 5.848.746 6.91.93.532 0 1.594.187 2.391.281s1.594.277 1.859.277c.664.282.93.094.532-.277-.399-.281-4.516-1.305-5.18-1.305-.266 0-.664 0-.664-.09-.133-.093-.801-.187-1.465-.281-.797 0-1.992-.183-2.789-.277-1.328-.281-5.98-.371-6.113-.281m-58.598 5.394c-.133.281-.664.746-.93 1.117-.796.836-.796 1.211 0 1.86 2.528 1.957 5.184 0 3.059-2.324-.93-1.208-1.461-1.301-2.129-.653m24.051 8.84c-10.363 1.484-37.336 1.484-46.77.09-1.46-.278-2.125 0-3.722 1.394-10.63 9.395-13.95 24.09-6.641 29.301 1.594 1.301 2.656 1.211 2.39-.094-.265-.652.133-.742.532-.093 1.062 1.77 3.586 2.511 5.715 1.77 1.195-.372 1.062-.56-.535-1.77-1.196-.93-2.125-2.043-1.727-2.043.133 0 .797.554 1.594 1.113 2.129 1.676 3.191 1.86 4.254 1.023.797-.558.797-1.023 0-1.675-1.594-1.395-1.86-2.137-.266-1.02 1.461 1.02 1.992 1.02 2.523-.187 1.063-1.954.665-4.278-1.195-9.207-1.46-3.63-1.992-5.953-1.594-7.258.133-.93.399-.559.93 1.398.266 1.578.797 3.067 2.258 6.414 3.191 7.63 1.062 12.746-5.711 14.235-7.176 1.578-13.422-2.235-14.352-8.836-.398-2.418-1.062-2.047-2.656 1.207-4.12 8.558-4.12 15.535 0 21.488 1.992 2.883 2.125 2.883 5.047 1.95 11.695-3.813 26.973.374 24.98 6.792-.53 1.766.133 1.86 15.149 1.672 10.496-.09 9.7.188 9.566-2.137 0-6.976 14.219-10.234 25.911-5.953 1.859.649 2.125.465 4.253-2.511 3.321-4.836 3.719-11.254 1.196-17.672-2.395-6.141-4.121-8-4.254-4.559-.266 10.137-18.336 12.277-21.125 2.512-.664-2.324-.266-4.465 1.726-9.301 1.196-3.07 1.727-4.746 1.993-6.418.265-1.117.531-1.117.664 0 .265 1.3-.133 3.441-1.328 6.418-2.79 7.719-2.258 12.836 1.328 10.043.664-.559.797-.649.797-.371 0 .187-.399.746-.93 1.117-.93.836-1.063 1.207-.266 1.86 1.063.93 1.864.835 4.254-.837.797-.558 1.461-.93 1.594-.84.266.094-.797 1.118-1.859 1.77-1.727 1.117-1.196 1.86 1.328 1.86 2.125 0 3.453-.649 4.25-2.137.398-.653.797-.559.668.183-.27 2.418 3.718-.652 4.914-3.718 2.39-6.7-.664-15.813-8.106-23.532-3.187-3.441-3.984-3.816-6.777-3.441m2.262 48.922c-11.165.836-15.415 9.113-5.582 10.789 5.449.836 7.308.094 7.308-2.883 0-.652.133-1.117.266-1.117.398 0 .664 1.21.664 2.418-.133 1.582 0 1.676 2.258 1.582 2.793-.094 3.457-.648 3.722-2.79.133-2.14.93-1.581.93.743 0 2.793 4.117 1.953 4.25-.93.133-1.672.664-1.207.797.465.133 1.489 1.332 1.395 2.527-.183 2.922-4.094-7.176-8.93-17.14-8.094m-57.137.371c-7.707 1.305-11.828 4.652-9.7 7.906 1.196 1.582 2.258 1.489 2.391-.183.133-1.395.664-1.676.664-.465q0 2.648 3.188 2.789c1.199 0 1.465-.371 1.332-1.488-.133-.836.133-1.953.531-1.953.133 0 .266.37.266.93.398 2.233 1.062 2.788 3.851 2.882 2.258.094 2.39 0 2.39-1.86 0-2.417.665-2.788.93-.464.137 2.511.801 2.883 4.786 2.511 5.449-.374 7.574-1.863 7.574-4.835 0-4.56-8.637-7.352-18.203-5.77"/><path fill="#f2f2f2" d="M173.063-305.969c-3.852 1.024-5.711 5.555-7.305 9.063-4.121 10.672-5.582 22.508-3.856 33.765 1.727 11.254 7.707 20.899 14.485 29.231 4.914 5.992 10.363 11.402 15.547 17.101 1.461 2.778-1.461 4.969-2.262 7.309-1.727 4.82-3.586 9.645-4.649 14.762-2.125 9.062-3.054 18.562-3.054 28.062.929 3.653 5.312 1.754 7.836 3.071 1.996.437 5.715 1.167 6.644 1.753-2.656.145-5.312-1.023-7.972-1.171-2.125-.29-7.305-2.192-6.247 2.046 1.864 2.926 5.715.879 8.504 1.61.93.144 4.52.586 1.731.73-2.793.293-5.715-.437-8.637 0-2.394 1.317.399 5.992 2.789 5.262 3.055-.438 6.113-1.316 9.168-.879-2.922.734-6.113.734-9.035 1.316-2.656 2.34 1.859 4.969 3.055 6.872 7.84 7.597 18.34 10.378 28.437 11.984 11.824 1.609 23.785 1.754 35.61.586 10.496-1.024 21.39-3.363 30.164-10.379 2.523-2.047 4.914-4.676 6.242-7.891.398-1.754-4.25-1.754-1.195-1.754 3.054 1.024 5.05-5.847 1.062-5.117-2.125 0-4.25.145-6.379-.144 2.926-1.172 7.309.73 9.438-2.196 0-3.8-4.254-1.461-6.379-1.461-1.594 0-4.121 1.024-5.184.442 2.926-.586 5.715-1.317 8.637-1.758 3.988.293 3.058-4.676 2.926-7.453-.399-15.199-3.723-30.402-10.368-43.555.27-3.215 3.723-4.386 5.317-6.722 9.566-9.649 19.133-20.321 24.051-34.059 4.117-11.547 3.187-24.406 0-36.102-1.329-4.824-3.325-9.937-6.911-13.152-3.851-2.484-8.503-1.172-12.488.145-9.566 3.8-17.008 12.277-22.59 21.488-5.98 10.082-9.433 21.777-10.894 33.613-.934 6.434-1.067 13.012-1.328 19.586-2.395 1.902-4.785-1.754-7.309-1.898-3.324-1.168-6.644-2.485-10.101-2.485-2.258 1.899-5.579 0-7.575-1.461-2.258-1.609-.797-5.847-2.656-7.015-.93 2.043.266 5.406-2.391 5.406.266 1.754 3.856 4.969.133 4.676-3.187.586-6.246 1.902-9.433 2.926-2.528-1.754-.266-5.848-1.063-8.77-.664-18.855-5.715-38.004-16.742-52.766-6.113-8.039-14.75-14.617-24.449-14.761-1.196 0-2.258 0-3.324.144m1.066 8.481c-3.988 2.629-4.785 8.183-5.184 12.859-1.062 14.031 3.985 27.481 10.629 39.027 4.785 8.477 10.231 16.661 15.813 24.555 1.992 1.168-1.461-3.215-1.992-4.094-8.504-12.57-17.141-25.429-21.661-40.339-2.523-8.333-3.32-17.54-.929-26.016 1.062-3.219 4.121-6.141 7.441-5.117 5.582 1.316 9.434 6.578 12.758 11.398 7.437 11.551 11.957 25.141 14.48 39.027.93 5.993 1.594 12.133 1.864 18.27.664 1.023.261-2.922.261-3.652-.394-11.84-2.921-23.68-6.64-34.641-3.989-10.523-9.168-20.758-17.008-28.211-2.66-2.336-6.246-4.82-9.832-3.066m123.437.144c-6.91 3.071-11.558 9.938-15.414 16.516-8.238 14.762-13.019 31.719-13.949 48.816-.133 1.465-.133 4.973.133 4.973.797-5.262.531-10.672 1.594-15.934 2.523-14.761 7.441-29.23 15.281-41.656 3.32-5.113 7.309-10.23 13.019-12.277 3.059-1.024 5.848 1.461 6.778 4.531 2.523 6.285 2.125 13.445 1.062 20.023-2.656 15.204-10.894 28.211-19.132 40.489-2.391 3.8-4.918 7.453-7.442 11.254 2.391-1.61 3.453-4.532 5.317-6.723 7.042-10.816 14.746-21.484 18.867-34.203 2.789-8.77 4.648-18.121 3.453-27.477-.531-3.508-2.125-7.894-5.711-8.769-1.328-.293-2.66 0-3.856.437m19.133 19c.27 1.317.531 6.578.531 2.922.266-.582-.394-4.676-.531-2.922m-157.851 2.047a48.3 48.3 0 0 0 0 8.77c.265-2.922.265-7.161 0-9.5 0 .293.132.586 0 .73m39.461 38c.929 2.777 1.464 6.578-.664 8.039.132 1.61 2.527 4.387 2.261 1.172-.133-2.926.133-7.164-1.597-9.211m78.132 1.024c-.796 2.925-1.726 7.308-.132 9.648 1.859-1.023 1.328-3.508 0-4.387-.27-1.754.796-3.508.132-5.261m-68.832 52.179c-5.843 2.489-7.703 10.528-5.976 16.52 1.195 4.969 5.976 9.207 10.629 7.453 5.847-2.192 8.238-10.231 6.379-16.371-1.196-4.676-5.45-9.063-10.102-7.891-.262 0-.66.145-.93.289m55.676 0c-5.582 2.34-7.707 10.086-6.113 15.934.933 4.531 4.652 9.062 9.172 8.476 5.445-.875 8.504-7.308 8.101-12.863-.132-5.262-3.054-11.105-8.101-11.984-.934 0-1.996.148-3.059.437m-55.273 1.754c-3.059.735-3.457 6.578 0 6.871 3.453.586 5.445-5.992 1.726-7.015-.664-.145-1.199-.145-1.726.144m55.672 0c-3.852.293-3.719 7.895.531 6.871 3.324-.437 4.121-7.015.133-7.015h-.266zm-27.637 21.195c-3.988 0-1.992 6.137 1.328 5.407 2.523 1.754 1.195 5.703.664 8.332-.93 3.07-4.25 5.117-7.176 3.801-1.195-.438-3.32-2.922-3.851-2.192 1.726 3.07 5.449 3.945 8.371 3.215 1.594 2.484 5.445 5.262 6.644.879 2.391-1.758 5.844.144 7.969-2.34 1.332-.437 1.731-3.215.137-1.316-2.129 2.339-5.981 3.07-8.238.437-2.129-2.484-2.528-6.137-2.129-9.351 1.199-2.047 7.043-2.926 3.589-6.141-2.125-1.316-4.917-1.168-7.308-.731m.398.438c-3.718 0-1.328 5.117 1.328 4.387 2.258 1.023 8.372-1.61 4.786-4.094-1.996-.731-4.121-.293-6.114-.293m1.993 14.762c-3.055 1.754-.399 8.039 2.527 5.117 1.195-1.317-.801-7.16-2.527-5.117m24.05 13.886c-11.293 2.047-22.59 1.903-33.883 1.61-4.652-.293-9.3-.735-13.953-1.61-2.789 1.168-3.984 4.676-5.711 7.309-5.316 9.645-8.503 21.047-7.175 32.3.531 3.946 1.992 8.333 5.312 10.231 1.067-.144.402-3.945 1.461-1.312.535 2.922 6.246 4.09 5.848.875-.664-1.168-3.188-3.801-2.125-3.946 1.062 2.192 5.316 5.555 5.98 1.317-.398-1.024-3.058-4.68-.797-2.488 3.188 2.195 2.922-3.653 2.922-5.7-.531-6.722-3.453-12.863-3.453-19.586 0-1.461.399-2.484.797-.437.531 3.215 1.062 6.43 1.992 9.5 1.594 6.14 3.188 13.008.664 19-2.656 6.433-11.426 8.039-15.812 2.926-2.922-3.364-4.117-8.04-4.516-12.57-1.598-2.633-2.394 3.359-3.059 4.675-2.921 10.38-3.984 22.219.532 32.156.664 3.364 3.457 4.97 5.847 2.633 7.043-3.218 16.079-2.633 21.926 3.215 1.992 2.047 3.055 5.406 2.258 8.477.797 3.507 5.184 1.605 7.574 2.191 5.313-.145 10.762.148 16.078-.437 2.524-2.192.133-7.016 3.055-9.356 3.984-5.7 11.16-6.867 17.273-5.555 2.524.442 5.051 1.465 7.309 2.778 3.188-.293 3.32-4.969 4.781-7.602 3.192-10.52 1.332-22.215-2.258-32.3-.664-2.63-2.523-1.313-1.992.73 0 5.996-3.453 12.277-9.035 13.594-4.652 1.316-9.699-1.606-11.293-6.578-2.394-6.137-.265-12.86 1.195-18.852.797-3.219 1.594-6.578 1.86-9.942 1.461 2.485.133 5.848-.266 8.477-1.195 6.141-3.054 12.426-1.992 18.711 1.063 2.777 4.914-3.07 2.789.438-2.523 2.777 1.328 6.14 3.055 2.921.535-1.168 3.324-2.921 1.597-.73-1.597 1.316-2.793 4.68.266 4.238 2.391.73 4.117-3.066 4.781-3.652.532 4.383 3.59-.875 4.121-2.63 2.657-6.87 1.86-14.909.266-22.069-2.129-8.188-5.715-15.934-10.633-22.364-1.062-.879-2.39-1.023-3.586-.586m24.848 58.758c-.266 2.336.664 2.192.531 0 .133-1.46-.664-2.633-.531-.437zm-22.59 18.125c-5.047.438-10.629 4.383-11.16 10.375 0 3.946 3.453 6.434 6.512 6.723 2.789 1.172 6.773-.145 6.379-4.09-.133-1.316.531-3.07.796-.734-.402 2.633.532 5.996 3.454 4.68 3.054 0 2.125-5.262 3.32-5.848.266 2.047 0 6.87 3.191 4.824 1.328-.73 1.063-4.969 1.86-4.676-.399 2.191 1.859 4.82 2.656 1.606 1.726-3.508-.797-7.453-3.453-9.207-3.988-3.07-8.903-4.239-13.555-3.653m-57.137.582c-4.25 1.024-8.898 3.508-10.23 8.477-.664 1.902 1.332 7.457 2.793 4.386 0-1.316.93-3.656.797-.878-.664 2.777 4.515 5.847 4.515 1.902-.265-1.172.532-4.969.797-2.047-.398 3.508 3.723 6.285 5.981 3.8.664-1.315-.266-4.968.797-4.968.531 2.336.132 6.867 3.589 6.137 3.188 0 7.442-.875 8.766-4.676 1.598-4.238-.797-9.207-4.516-10.96-3.984-2.34-8.902-2.34-13.289-1.173"/><path fill="#0f0" d="M270.148-126.59c-18.039 6.934-43.371 5.574-62.156 1.227-2.222 3.668-4.078 9.242-5.187 13.047-.992 3.808-1.485 8.562-1.731 12.644 2.348-.953 3.582-1.496 5.313-1.496 3.707-1.359 9.39-1.77 13.222-1.496-2.101-8.156-.25-.68.743 2.855 1.234 5.301 1.48 11.551-2.102 15.766-2.965 3.809-8.773 4.758-12.359 1.36-3.336-3.126-5.067-7.883-5.438-12.504-.988-2.993-3.336-.41-3.336 1.628-.738 2.72-1.605 5.438-1.851 8.293 26.691 14.817 63.019 14 88.601 0-.125-3.535-.742-4.078-.988-6.117-.617-1.765-1.609-7.203-3.707-4.484-.617 2.582-.496 5.437-1.609 7.883-1.852 4.894-7.043 8.43-11.985 6.933-4.82-1.633-7.539-7.613-7.293-12.914 1.61-6.523 2.102-8.973 4.449-8.973 4.575 0 11 1.09 15.45 2.856-.125-2.988-.25-3.941-.371-5.844-.622-8.293-5.067-17.265-7.665-20.664"/><path d="M172.398-308.305c-4.117.731-7.707 6.137-10.628 16.078-.93 2.922-1.993 7.747-1.86 8.329.133.148 0 .734-.265 1.609-.532 2.34-.797 9.793-.532 14.324.93 16.516 7.707 28.356 28.301 49.84 2.391 2.34 2.789 3.07 2.258 3.508-.266 0-1.859 3.652-2.922 6.433-.93 2.192-2.391 6.723-3.055 9.063-1.332 5.113-2.129 8.766-2.394 11.543-.129 1.023-.399 2.195-.531 2.777 0 .442-.266 2.34-.399 4.094s-.266 3.359-.398 3.508c0 .144-.133 2.633-.266 5.554-.133 6.43 0 6.137-2.523 5.844-1.86-.289-7.575-.437-8.239-.144s2.391 1.023 6.379 1.461c4.117.437 4.383.586 4.516 2.488.133 1.605.133 1.605-4.25 1.754-1.731 0-3.723.144-4.387.289-.664.148-1.859.293-2.789.437-2.926.442-6.379 1.465-5.582 1.754.531.293.93.293 7.309-.582 4.386-.586 9.964-.437 10.496.293.797 1.168.535 2.336-.532 2.336-3.851.293-8.902 1.461-12.222 2.926-1.727.73-1.992 1.605-.399 1.023.532-.148 2.789-.73 6.508-1.464.934-.29 2.262-.438 2.926-.583.797 0 1.859-.292 2.523-.441 1.461-.437 2.528-.289 2.789.586.266 1.023-.261 1.609-1.859 1.902-2.391.438-5.312 1.899-7.308 3.797-1.594 1.317-.93 1.61 1.199.293 1.726-.875 4.117-2.047 5.711-2.629.664-.148 1.461-.586 1.726-.73.797-.586 1.199-.442 1.864.875 1.593 2.777 5.71 7.164 9.035 9.648 4.515 3.215 12.488 6.578 15.941 6.578 1.996 0 2.527 1.168 1.199 2.485-3.457 3.652-9.035 17.832-9.832 25.136 0 .879-.265 1.754-.398 2.047-.137.442-.797 1.903-1.332 3.364-1.063 2.484-1.461 3.508-2.789 7.453-1.063 3.215-2.258 8.332-2.657 11.402-.132 1.168-.265 2.629-.398 3.215-.266 1.46-.266 7.746 0 9.5.133.73.266 2.047.398 2.922.665 4.387 3.321 11.11 4.915 12.863.402.438.265 1.461-.133 1.461-.133 0-.532.586-.797 1.172-3.188 6.723.398 13.008 7.441 13.008.797 0 2.258.144 3.324.437 1.461.438 2.391.586 3.586.438.797-.145 2.391 0 3.454.148 3.191.438 7.707-.441 9.703-1.902 1.726-1.317 2.656-1.606 3.984-1.317 1.594.293 21.129.293 23.254 0 1.859-.289 2.258-.144 3.852 1.172 2.257 2.047 11.425 2.778 16.609 1.461.531-.144 1.859-.437 3.058-.437 5.446-.586 7.704-1.903 8.766-5.262.934-2.633.137-7.016-1.594-9.062-.531-.586-.531-.73-.132-1.172 1.199-1.461 4.386-9.207 4.386-10.524 0-.144.266-1.312.532-2.484.664-2.778.664-12.57.132-15.055-.265-.875-.398-1.754-.398-2.047 0-2.191-2.656-11.105-5.051-16.804-1.328-3.219-1.859-4.68-1.992-6.141-.266-1.754-.399-2.191-1.063-5.117-1.593-6.723-5.847-15.93-9.035-19.582-1.992-2.196-1.859-3.071.399-3.219 7.308-.438 20.859-10.23 22.59-16.367.265-.879.796-1.024 3.054-.293 4.25 1.168 5.047 1.461 7.973 2.922 4.781 2.34 4.781 1.168 0-1.61-2.258-1.312-5.449-2.336-7.973-2.629-1.859-.293-2.39-1.023-1.726-2.339.265-.293.531-1.168.664-1.899.133-1.609.664-2.34 1.859-2.34 6.777.149 8.77.293 11.027.586 6.379.875 10.5.875 8.504.145-.531-.293-.929-.293-1.062-.293-.133.148-.664 0-1.328-.289-.532-.293-1.86-.586-2.922-.735-1.063-.144-2.527-.289-3.457-.437-.797-.145-3.719-.289-6.512-.289-5.578.144-5.711.144-5.445-1.754.265-1.172.398-1.317 2.523-1.465 1.063-.144 2.789-.437 3.723-.586.93-.144 2.656-.437 3.586-.437 2.258-.145 6.113-1.168 5.715-1.461s-5.45-.145-7.309.144c-.93.149-2.656.293-3.855.442-1.329.144-2.657.293-2.922.437-.93.145-1.063-.293-1.196-7.016-.132-3.507-.265-6.871-.398-7.453-.133-.73-.266-2.484-.531-3.949-.266-2.922-.399-3.652-1.328-8.328-.664-3.219-.664-3.07-1.996-7.895-1.461-5.261-4.516-13.445-5.579-14.761-.398-.586-.265-.875 1.063-2.34 24.449-24.699 31.758-38.731 30.297-58.172-.133-1.605-.27-3.945-.27-5.113-.133-1.172-.265-2.34-.398-2.778-.129-.293-.266-1.461-.399-2.488-.929-7.598-4.914-17.539-8.504-21.336-3.054-3.219-11.824-2.633-19 1.024-13.289 6.867-24.847 24.699-29.363 45.308-1.195 5.406-1.332 6.285-1.597 8.184-.133 1.023-.266 2.34-.399 2.777-.133.586-.398 2.34-.531 3.949 0 1.75-.266 4.09-.399 5.258-.132 1.317-.132 3.219-.132 4.531.132 3.219-.133 3.801-1.727 2.633-2.391-1.461-15.414-4.968-16.875-4.386-.133 0-.531.441-.664.878-.797 1.754-3.188-1.168-3.453-4.386-.137-1.899.265-4.821 1.062-7.16 1.196-3.508-.531-3.364-3.59.293-1.328 1.609-1.726 2.484-1.992 4.238-.265 2.484-1.328 2.777-1.461.437-.265-2.191-.398-2.484-.797-2.484-1.593 0-1.996 6.43-.531 8.769.93 1.61.664 1.903-2.129 2.778-4.25 1.461-4.382 1.316-3.984-1.168.133-.731.133-2.34 0-4.531-.133-1.903-.398-4.825-.531-6.43-.133-1.758-.266-3.805-.399-4.531a54 54 0 0 1-.531-3.657c-.398-2.628-1.062-5.847-1.727-8.332-.132-.875-.535-2.484-.796-3.359-.266-.879-.668-2.34-1.067-3.363-.265-.875-.664-2.047-.797-2.629-5.047-16.957-19.398-33.035-32.019-35.813-.934-.293-1.731-.437-1.864-.582-.265-.148-6.64-.293-7.707 0m.665 2.336c-6.774 1.024-13.286 22.805-11.692 39.321 1.594 15.199 8.77 27.476 27.637 46.625 4.254 4.238 4.121 3.945 2.926 6.136-5.848 10.961-9.438 26.602-9.965 43.266-.133 5.992-.27 5.699 3.187 6.137 2.524.437 7.707 1.461 8.504 1.754.266.148 1.063.292 1.727.441.531 0 1.195.293 1.328.293.531.437-.797.289-2.656 0-1.461-.442-4.786-.879-9.301-1.609-2.262-.442-2.656-.149-2.656 1.46 0 2.34.128 2.485 4.914 2.629 4.648.149 6.91.442 6.91.735 0 .144-2.391.144-5.317.144-6.64-.293-6.507-.293-4.914 3.364.664 1.605 1.594 2.335 2.391 2.043.531-.29 7.176-1.168 8.504-1.168 1.992 0 1.328.437-.93.585-1.726.145-5.183.731-7.043 1.024-1.328.293-1.195 1.312.399 3.508 8.371 11.254 25.379 16.515 52.484 16.515 25.379 0 42.52-5.703 49.695-16.808 1.727-2.633 1.594-3.215-.664-3.801-1.328-.293-1.328-.293.133-.145 2.524.145 3.32-.734 3.723-3.656.133-1.461.133-1.461-4.918-1.461-5.317.145-4.918-.293.929-.586 4.387-.437 4.653-.582 4.653-2.191 0-1.316-.399-1.899-1.598-1.609-.531 0-2.258.293-3.851.441-1.461.144-3.321.437-3.989.586-.664.144-1.461.289-1.859.289-1.063 0-.266-.438 1.195-.582.664-.149 1.731-.293 2.262-.441.664-.293 2.523-.583 4.117-.875 3.856-.586 3.988-.586 3.988-3.508 0-16.957-3.457-33.325-9.836-46.188-1.328-2.633-1.46-2.191 2.528-5.992 25.113-24.555 32.156-41.219 27.637-65.629-2.391-13.152-6.645-20.754-11.825-21.191-17.804-1.317-37.738 23.531-41.855 52.472 0 .582-.266 1.754-.399 2.778-.664 3.652-1.332 10.961-1.461 16.371-.132 6.281.129 5.988-2.792 4.676-6.911-3.215-14.883-5.411-15.282-4.239-.133.731-.531.731-2.523.289-4.25-.726-6.246-3.066-6.246-7.453 0-2.629-1.063-2.629-1.461 0v2.192c.133 1.023-.133 1.464-.797 1.172-1.594-.442-1.594.875 0 2.777 1.461 1.754 1.461 2.191 0 2.191-1.195 0-5.316 1.168-8.504 2.485-3.187 1.168-2.922 1.609-2.922-4.969 0-39.902-21.394-73.813-44.515-70.598m1.066 8.481c-5.715 3.215-7.043 18.558-2.926 32.738 2.926 9.937 8.504 20.609 19 36.246 1.067 1.465 2.66 3.949 3.723 5.555 1.062 1.465 2.125 2.777 2.258 2.633.398-.149.265-.293-3.586-5.993-18.071-26.457-24.184-42.093-23.121-58.32 1.461-19.437 15.281-15.055 26.574 8.477 1.859 3.8 3.32 7.601 5.051 12.57.664 1.609 2.125 6.727 2.39 8.039.133.73.399 1.754.531 2.195 1.461 6.137 2.79 15.493 3.055 22.508.27 5.262.664 5.262.531 0 0-7.601-1.461-16.664-4.117-27.039-5.847-23.094-21.39-43.996-29.363-39.609m123.437.144c-13.82 5.406-28.566 38.735-29.496 66.211-.132 6.871.399 5.555.797-1.754 1.594-28.941 18.071-63.14 30.692-64.164 6.113-.586 9.171 13.008 5.98 27.184-2.656 12.277-7.707 22.219-21.258 42.097-5.316 7.747-5.051 7.454-4.652 7.305.93-.144 13.953-19.875 17.805-26.89 13.421-24.411 13.421-55.106.132-49.989m-99.257 59.047c0 .149.132.734.265 1.465 1.067 3.359.664 6.43-.664 5.992-.265 0-.531 0-.398.145 1.465 3.363 1.726 3.8 2.129 3.215.531-.875.132-8.04-.536-9.5q-.796-1.974-.796-1.317m78.132 1.024c-1.199 3.363-1.199 10.671 0 9.793.664-.438 1.594-3.36 1.063-3.36-1.195 0-1.328-.73-1.063-3.945.266-1.903.266-3.219 0-2.488m-68.832 52.179c-8.504 3.508-8.898 19.442-.664 23.68 7.309 3.652 14.485-6.285 11.563-16.078-1.594-5.992-6.512-9.356-10.899-7.602m55.676 0c-7.176 2.778-9.035 15.641-3.055 21.926 4.118 4.387 10.364 2.777 13.02-3.363 4.121-9.645-2.258-21.485-9.965-18.563m-55.273 1.754c-1.598.586-2.793 2.633-2.528 4.242.532 2.778 3.457 3.504 5.317 1.313 2.258-2.778.265-6.723-2.789-5.555m55.672 0c-4.118 1.024-3.586 7.746.531 6.871 2.926-.586 3.988-5.554 1.461-6.578-1.063-.437-1.196-.437-1.992-.293m-27.637 21.195c-3.723.586-2.926 4.676 1.062 5.407 1.727.293 2.125 2.925 1.196 7.308-1.328 5.41-5.981 6.871-9.965 3.071-1.594-1.61-2.125-1.168-.664.586 1.859 2.046 4.25 2.777 7.043 2.191 1.195-.145 1.195-.145 1.992 1.168 1.594 2.926 3.719 2.926 5.184.293.796-1.461 1.062-1.606 2.523-1.317 2.391.586 7.043-1.753 7.043-3.507 0-.582-.531-.438-1.731.73-3.453 3.512-8.238 2.047-9.566-2.922-1.062-4.093-.664-7.015.934-7.601 6.906-2.192 2.789-6.867-5.051-5.407m.398.438c-4.254.73-1.859 4.531 2.657 4.531 3.988 0 6.511-3.215 3.589-4.238-1.062-.438-4.652-.582-6.246-.293m60.59 6.285c-1.062 0-2.656.149-2.656.293 0 .293 5.976 1.168 7.176 1.316 1.328.293 5.843 1.168 6.91 1.461.527 0 1.594.293 2.39.438.797.148 1.594.437 1.86.437.664.442.93.149.531-.437-.398-.438-4.516-2.047-5.183-2.047-.266 0-.665 0-.665-.144-.132-.149-.796-.293-1.46-.438-.797 0-1.993-.293-2.79-.441-1.328-.438-5.98-.582-6.113-.438m-58.597 8.477c-.133.441-.665 1.172-.93 1.754-.797 1.316-.797 1.902 0 2.925 2.523 3.071 5.183 0 3.055-3.656-.93-1.898-1.461-2.047-2.125-1.023m24.05 13.886c-10.363 2.34-37.336 2.34-46.769.149-1.465-.442-2.129 0-3.723 2.191-10.629 14.762-13.949 37.856-6.644 46.04 1.593 2.046 2.66 1.898 2.39-.145-.262-1.024.137-1.172.535-.149 1.063 2.778 3.586 3.946 5.711 2.778 1.196-.586 1.063-.875-.531-2.778-1.195-1.46-2.125-3.215-1.727-3.215.133 0 .797.88 1.594 1.754 2.125 2.633 3.192 2.922 4.254 1.61.797-.88.797-1.61 0-2.633-1.598-2.191-1.859-3.36-.265-1.606 1.46 1.606 1.992 1.606 2.523-.293 1.062-3.07.664-6.722-1.195-14.468-1.461-5.703-1.993-9.356-1.594-11.403.133-1.461.398-.878.93 2.192.265 2.484.796 4.824 2.257 10.086 3.188 11.984 1.063 20.023-5.714 22.363-7.172 2.484-13.418-3.508-14.348-13.887-.399-3.8-1.067-3.215-2.66 1.903-4.117 13.445-4.117 24.406 0 33.761 1.996 4.532 2.129 4.532 5.051 3.07 11.691-5.992 26.972.583 24.98 10.669-.531 2.777.133 2.925 15.148 2.633 10.497-.149 9.7.292 9.567-3.364 0-10.96 14.219-16.078 25.91-9.355 1.859 1.023 2.125.734 4.254-3.946 3.32-7.601 3.719-17.683 1.191-27.77-2.39-9.647-4.117-12.57-4.25-7.163-.265 15.933-18.336 19.297-21.129 3.95-.664-3.657-.261-7.017 1.731-14.618 1.195-4.824 1.726-7.453 1.992-10.086.266-1.754.531-1.754.664 0 .266 2.047-.133 5.41-1.328 10.086-2.789 12.133-2.258 20.172 1.328 15.785.664-.875.797-1.023.797-.586 0 .293-.398 1.172-.93 1.754-.929 1.316-1.062 1.902-.265 2.926 1.062 1.46 1.859 1.312 4.254-1.317.796-.878 1.461-1.46 1.593-1.316.266.148-.797 1.754-1.859 2.777-1.731 1.754-1.199 2.922 1.328 2.922 2.125 0 3.453-1.023 4.25-3.36.399-1.023.797-.878.664.294-.265 3.797 3.723-1.024 4.918-5.848 2.391-10.523-.664-24.848-8.105-36.98-3.192-5.407-3.989-5.993-6.778-5.407m2.258 76.883c-11.16 1.313-15.41 14.32-5.582 16.953 5.449 1.317 7.313.145 7.313-4.53 0-1.024.128-1.755.261-1.755.403 0 .668 1.899.668 3.801-.133 2.484 0 2.629 2.258 2.484 2.789-.144 3.453-1.023 3.719-4.386.133-3.36.93-2.485.93 1.172 0 4.382 4.121 3.07 4.253-1.465.133-2.63.664-1.899.797.734.133 2.336 1.328 2.191 2.524-.293 2.926-6.434-7.172-14.031-17.141-12.715m-57.137.582c-7.703 2.047-11.824 7.309-9.699 12.426 1.195 2.484 2.262 2.336 2.395-.293.133-2.195.664-2.633.664-.73q0 4.166 3.187 4.382c1.196 0 1.461-.582 1.328-2.336-.132-1.316.133-3.07.532-3.07.132 0 .265.582.265 1.461.399 3.508 1.067 4.387 3.856 4.531 2.258.145 2.39 0 2.39-2.922 0-3.8.664-4.386.93-.734.133 3.95.797 4.531 4.785 3.95 5.446-.587 7.574-2.926 7.574-7.602 0-7.16-8.636-11.547-18.207-9.063"/><path fill="#f2f2f2" d="M331.711-257.023c-3.852.839-5.715 4.546-7.309 7.414-4.117 8.73-5.578 18.418-3.851 27.625 1.726 9.207 7.707 17.101 14.48 23.918 4.918 4.902 10.367 9.328 15.547 13.992 1.461 2.269-1.461 4.066-2.258 5.976-1.726 3.95-3.586 7.895-4.648 12.082-2.129 7.414-3.059 15.188-3.059 22.957.93 2.993 5.317 1.438 7.84 2.512 1.992.359 5.715.957 6.645 1.438-2.657.117-5.317-.84-7.973-.957-2.125-.239-7.309-1.793-6.246 1.671 1.859 2.395 5.715.719 8.504 1.317.93.121 4.519.48 1.726.598-2.789.242-5.711-.36-8.636 0-2.391 1.078.398 4.906 2.793 4.304 3.054-.355 6.113-1.074 9.168-.715-2.922.598-6.114.598-9.036 1.075-2.66 1.914 1.86 4.066 3.055 5.621 7.84 6.218 18.336 8.492 28.438 9.804 11.824 1.317 23.781 1.438 35.609.481 10.496-.836 21.391-2.75 30.16-8.492 2.528-1.672 4.918-3.825 6.246-6.457.399-1.434-4.254-1.434-1.195-1.434 3.055.836 5.051-4.785 1.062-4.187-2.125 0-4.253.121-6.378-.118 2.925-.957 7.308.598 9.433-1.797 0-3.109-4.25-1.195-6.375-1.195-1.598 0-4.121.84-5.183.36 2.921-.477 5.714-1.075 8.636-1.434 3.989.238 3.059-3.828 2.922-6.102-.398-12.433-3.719-24.871-10.363-35.636.265-2.629 3.723-3.586 5.316-5.5 9.567-7.891 19.133-16.621 24.047-27.864 4.121-9.449 3.192-19.968 0-29.539-1.324-3.945-3.32-8.129-6.906-10.761-3.856-2.032-8.504-.957-12.492.121-9.567 3.109-17.008 10.043-22.586 17.578-5.981 8.25-9.438 17.816-10.899 27.504-.929 5.261-1.062 10.644-1.328 16.023-2.39 1.559-4.781-1.433-7.308-1.551-3.321-.957-6.645-2.035-10.098-2.035-2.258 1.555-5.578 0-7.574-1.195-2.258-1.317-.797-4.785-2.657-5.738-.929 1.671.266 4.421-2.39 4.421.265 1.438 3.851 4.067.133 3.829-3.192.476-6.246 1.554-9.438 2.39-2.523-1.433-.265-4.781-1.062-7.176-.664-15.425-5.711-31.089-16.743-43.168-6.109-6.578-14.746-11.96-24.449-12.078-1.191 0-2.258 0-3.32.118m1.062 6.937c-3.984 2.152-4.781 6.695-5.179 10.523-1.067 11.481 3.984 22.481 10.629 31.93 4.785 6.934 10.23 13.633 15.812 20.09 1.992.957-1.461-2.633-1.996-3.348-8.504-10.285-17.141-20.808-21.656-33.007-2.524-6.817-3.32-14.348-.93-21.286 1.063-2.632 4.117-5.023 7.442-4.183 5.578 1.074 9.433 5.379 12.753 9.328 7.442 9.445 11.961 20.566 14.485 31.926.93 4.902 1.594 9.925 1.859 14.949.664.84.266-2.391.266-2.988-.399-9.688-2.922-19.375-6.645-28.344-3.984-8.609-9.168-16.981-17.008-23.078-2.656-1.914-6.242-3.949-9.832-2.512m123.442.117c-6.91 2.512-11.563 8.133-15.414 13.516-8.238 12.078-13.024 25.949-13.953 39.941-.133 1.196-.133 4.067.132 4.067.797-4.305.536-8.731 1.598-13.035 2.524-12.079 7.442-23.918 15.277-34.083 3.325-4.187 7.309-8.371 13.024-10.046 3.055-.836 5.848 1.199 6.777 3.707 2.524 5.144 2.125 11.004 1.063 16.382-2.656 12.438-10.895 23.082-19.133 33.129-2.395 3.11-4.918 6.098-7.441 9.207 2.39-1.316 3.453-3.707 5.316-5.5 7.039-8.851 14.746-17.582 18.867-27.984 2.789-7.176 4.649-14.828 3.453-22.484-.531-2.868-2.125-6.457-5.715-7.172-1.328-.242-2.656 0-3.851.355m19.133 15.547c.265 1.078.531 5.383.531 2.395.266-.481-.399-3.828-.531-2.395m-157.856 1.676a32.5 32.5 0 0 0 0 7.176c.27-2.395.27-5.86 0-7.774 0 .239.137.477 0 .598m39.465 31.094c.93 2.269 1.461 5.379-.664 6.574.133 1.316 2.523 3.59 2.258.957-.133-2.391.133-5.859-1.594-7.531m78.133.836c-.801 2.39-1.731 5.976-.137 7.89 1.863-.836 1.328-2.867 0-3.586-.265-1.433.801-2.871.137-4.304m-68.832 42.691c-5.848 2.031-7.707 8.609-5.981 13.516 1.2 4.062 5.981 7.531 10.633 6.097 5.848-1.793 8.238-8.371 6.375-13.394-1.195-3.828-5.445-7.414-10.097-6.457-.266 0-.665.121-.93.238m55.676 0c-5.582 1.914-7.707 8.254-6.114 13.035.93 3.707 4.653 7.414 9.168 6.938 5.45-.719 8.504-5.981 8.106-10.524-.133-4.304-3.055-9.09-8.106-9.808-.929 0-1.992.121-3.054.359m-55.278 1.434c-3.054.597-3.453 5.382 0 5.621 3.457.48 5.449-4.903 1.731-5.739-.668-.121-1.199-.121-1.731.118m55.676 0c-3.855.242-3.723 6.461.531 5.621 3.321-.36 4.117-5.739.133-5.739h-.266zm-27.637 17.343c-3.988 0-1.996 5.02 1.328 4.422 2.524 1.438 1.196 4.664.665 6.817-.93 2.511-4.254 4.187-7.176 3.109-1.196-.359-3.321-2.391-3.856-1.793 1.731 2.512 5.449 3.23 8.371 2.633 1.598 2.031 5.45 4.305 6.645.715 2.394-1.434 5.848.121 7.973-1.914 1.328-.36 1.726-2.629.132-1.075-2.125 1.914-5.976 2.512-8.238.36-2.125-2.035-2.523-5.024-2.125-7.656 1.195-1.672 7.043-2.391 3.59-5.02-2.129-1.078-4.918-.957-7.309-.598m.399.356c-3.723 0-1.328 4.187 1.328 3.59 2.258.836 8.371-1.317 4.781-3.348-1.992-.598-4.117-.242-6.109-.242m1.992 12.082c-3.059 1.433-.398 6.574 2.523 4.183 1.196-1.078-.796-5.859-2.523-4.183m24.051 11.359c-11.297 1.672-22.59 1.555-33.883 1.317-4.652-.243-9.301-.602-13.953-1.317-2.789.957-3.985 3.824-5.711 5.977-5.317 7.894-8.504 17.222-7.18 26.43.535 3.23 1.996 6.816 5.317 8.37 1.062-.12.398-3.226 1.461-1.074.531 2.391 6.246 3.348 5.847.715-.664-.957-3.187-3.11-2.125-3.226 1.063 1.793 5.313 4.543 5.981 1.074-.403-.836-3.059-3.824-.801-2.031 3.191 1.793 2.926-2.989 2.926-4.665-.532-5.5-3.457-10.523-3.457-16.023 0-1.195.402-2.035.796-.359.536 2.629 1.067 5.261 1.997 7.773 1.593 5.02 3.187 10.64.664 15.547-2.661 5.262-11.426 6.574-15.813 2.39-2.926-2.75-4.117-6.578-4.519-10.284-1.594-2.153-2.391 2.75-3.055 3.828-2.926 8.488-3.984 18.175.531 26.308.664 2.75 3.453 4.067 5.848 2.153 7.043-2.633 16.078-2.153 21.922 2.629 1.996 1.675 3.058 4.425 2.261 6.937.797 2.871 5.18 1.316 7.575 1.793 5.312-.117 10.761.121 16.074-.36 2.527-1.792.133-5.738 3.058-7.652 3.985-4.664 11.161-5.62 17.274-4.543 2.523.36 5.047 1.196 7.308 2.27 3.188-.239 3.321-4.067 4.782-6.219 3.191-8.61 1.328-18.176-2.258-26.426-.664-2.152-2.524-1.078-1.992.598 0 4.902-3.457 10.043-9.035 11.121-4.653 1.074-9.704-1.316-11.297-5.383-2.391-5.023-.266-10.523 1.199-15.426.797-2.632 1.594-5.382 1.859-8.132 1.461 2.035.133 4.785-.265 6.937-1.2 5.023-3.059 10.164-1.996 15.305 1.066 2.273 4.918-2.512 2.793.36-2.528 2.273 1.328 5.023 3.054 2.394.531-.957 3.321-2.395 1.594-.598-1.594 1.074-2.789 3.824.266 3.465 2.394.597 4.121-2.512 4.785-2.988.531 3.585 3.586-.72 4.121-2.153 2.656-5.62 1.859-12.199.262-18.058-2.125-6.696-5.711-13.036-10.629-18.297-1.063-.715-2.391-.836-3.586-.477m24.847 48.074c-.265 1.91.664 1.793.532 0 .132-1.195-.664-2.152-.532-.359zm-22.589 14.829c-5.051.359-10.629 3.586-11.161 8.488 0 3.23 3.454 5.262 6.508 5.504 2.793.957 6.778-.121 6.379-3.352-.133-1.074.531-2.511.797-.597-.398 2.152.531 4.906 3.457 3.828 3.055 0 2.125-4.305 3.32-4.782.266 1.672 0 5.618 3.192 3.946 1.328-.598 1.062-4.067 1.859-3.828-.398 1.793 1.859 3.945 2.656 1.316 1.727-2.871-.797-6.098-3.453-7.535-3.988-2.512-8.902-3.469-13.554-2.988m-57.137.476c-4.25.836-8.903 2.871-10.231 6.938-.664 1.554 1.328 6.097 2.789 3.586 0-1.075.93-2.989.797-.715-.664 2.27 4.52 4.781 4.52 1.554-.266-.957.531-4.066.797-1.675-.399 2.87 3.718 5.14 5.98 3.109.664-1.078-.265-4.066.797-4.066.531 1.914.133 5.62 3.586 5.023 3.191 0 7.441-.719 8.77-3.828 1.593-3.469-.797-7.535-4.516-8.969-3.988-1.914-8.902-1.914-13.289-.957"/><path fill="red" d="M428.797-110.258c-18.043 5.672-43.375 4.559-62.156 1-2.227 3.004-4.078 7.563-5.192 10.676-.988 3.117-1.48 7.008-1.73 10.344 2.347-.778 3.586-1.223 5.316-1.223 3.707-1.113 9.391-1.445 13.223-1.223-2.102-6.672-.25-.554.738 2.336 1.238 4.336 1.484 9.454-2.101 12.899-2.965 3.117-8.774 3.894-12.356 1.113-3.336-2.558-5.066-6.45-5.437-10.23-.989-2.45-3.336-.336-3.336 1.335-.743 2.223-1.606 4.446-1.856 6.782 26.695 12.125 63.024 11.457 88.606 0-.125-2.89-.743-3.336-.993-5.004-.617-1.445-1.605-5.895-3.707-3.668-.617 2.11-.492 4.445-1.605 6.45-1.852 4.003-7.043 6.894-11.984 5.671-4.821-1.336-7.539-6.227-7.293-10.566 1.609-5.34 2.101-7.34 4.449-7.34 4.57 0 11 .89 15.445 2.336-.121-2.45-.246-3.227-.367-4.782-.621-6.785-5.07-14.125-7.664-16.906"/><path d="M331.047-258.938c-4.117.598-7.707 5.024-10.629 13.157-.93 2.39-1.992 6.336-1.859 6.816.132.117 0 .598-.27 1.317-.527 1.914-.797 8.011-.527 11.718.929 13.512 7.703 23.2 28.301 40.778 2.39 1.914 2.789 2.511 2.257 2.871-.265 0-1.859 2.992-2.922 5.261-.929 1.793-2.39 5.5-3.058 7.415-1.328 4.187-2.125 7.175-2.391 9.449-.133.836-.398 1.793-.531 2.269 0 .36-.266 1.914-.398 3.352-.133 1.433-.266 2.75-.399 2.867 0 .121-.133 2.152-.266 4.547-.132 5.262 0 5.019-2.527 4.781-1.859-.238-7.57-.359-8.234-.121-.664.242 2.39.84 6.375 1.199 4.121.36 4.386.477 4.519 2.032.133 1.316.133 1.316-4.254 1.433-1.726 0-3.718.121-4.382.242-.664.117-1.86.239-2.789.36-2.926.355-6.379 1.195-5.583 1.433.532.239.93.239 7.309-.476 4.383-.481 9.965-.36 10.496.238.797.957.531 1.91-.531 1.91-3.856.242-8.902 1.199-12.227 2.395-1.726.597-1.992 1.316-.394.836.527-.118 2.789-.598 6.508-1.196.929-.238 2.257-.359 2.925-.476.797 0 1.86-.242 2.524-.36 1.461-.359 2.523-.242 2.789.477.266.84-.266 1.316-1.859 1.555-2.391.359-5.317 1.554-7.309 3.109-1.594 1.078-.93 1.316 1.195.238 1.731-.715 4.121-1.672 5.715-2.152.664-.117 1.461-.477 1.727-.598.797-.476 1.195-.359 1.863.719 1.594 2.273 5.711 5.859 9.031 7.891 4.52 2.632 12.492 5.382 15.946 5.382 1.996 0 2.527.957 1.199 2.036-3.457 2.988-9.039 14.586-9.836 20.566 0 .719-.266 1.438-.399 1.676-.132.36-.797 1.555-1.328 2.75-1.062 2.031-1.461 2.87-2.789 6.098-1.062 2.632-2.262 6.816-2.656 9.328-.137.957-.27 2.152-.402 2.632-.262 1.196-.262 6.336 0 7.774.132.597.265 1.672.402 2.39.66 3.586 3.32 9.09 4.914 10.524.398.36.266 1.195-.133 1.195-.133 0-.531.477-.797.957-3.187 5.5.399 10.645 7.442 10.645.797 0 2.258.117 3.32.355 1.465.36 2.395.48 3.59.36.797-.118 2.39 0 3.453.12 3.187.36 7.707-.359 9.699-1.554 1.727-1.078 2.656-1.316 3.988-1.078 1.594.242 21.125.242 23.25 0 1.864-.238 2.262-.117 3.856.957 2.258 1.676 11.426 2.273 16.609 1.195.532-.117 1.86-.355 3.055-.355 5.449-.48 7.707-1.555 8.77-4.309.929-2.152.132-5.738-1.594-7.414-.531-.476-.531-.598-.133-.957 1.195-1.195 4.387-7.531 4.387-8.61 0-.117.265-1.074.531-2.03.664-2.274.664-10.286.133-12.32-.266-.716-.399-1.434-.399-1.673 0-1.793-2.66-9.09-5.05-13.754-1.329-2.628-1.86-3.824-1.993-5.02-.265-1.437-.398-1.796-1.062-4.187-1.598-5.5-5.848-13.035-9.035-16.023-1.996-1.793-1.864-2.512.398-2.633 7.309-.359 20.86-8.371 22.586-13.394.266-.715.801-.836 3.059-.239 4.25.957 5.047 1.196 7.972 2.395 4.782 1.91 4.782.957 0-1.317-2.261-1.078-5.449-1.914-7.972-2.152-1.864-.238-2.395-.84-1.731-1.914.27-.238.531-.957.664-1.555.137-1.316.668-1.914 1.864-1.914 6.777.121 8.769.239 11.027.481 6.379.715 10.496.715 8.504.117-.531-.238-.93-.238-1.063-.238-.133.121-.664 0-1.328-.239-.531-.242-1.859-.48-2.926-.597-1.062-.121-2.523-.243-3.453-.36-.797-.121-3.718-.242-6.511-.242-5.579.121-5.711.121-5.446-1.433.266-.958.399-1.075 2.524-1.196 1.062-.121 2.789-.359 3.718-.476.93-.121 2.661-.36 3.59-.36 2.258-.121 6.114-.957 5.711-1.199-.398-.238-5.445-.117-7.304.121-.93.121-2.661.238-3.856.36-1.328.121-2.656.238-2.922.359-.93.117-1.062-.238-1.195-5.742-.137-2.867-.266-5.617-.399-6.098-.132-.598-.265-2.031-.535-3.23-.261-2.391-.394-2.989-1.328-6.817-.664-2.629-.664-2.508-1.992-6.457-1.461-4.305-4.516-11-5.578-12.078-.403-.477-.27-.715 1.062-1.91 24.45-20.211 31.754-31.692 30.293-47.598-.133-1.316-.265-3.23-.265-4.183-.133-.957-.266-1.914-.399-2.274-.133-.238-.265-1.195-.398-2.031-.93-6.223-4.914-14.352-8.504-17.461-3.055-2.633-11.824-2.152-19 .836-13.289 5.621-24.848 20.211-29.367 37.07-1.196 4.426-1.328 5.145-1.594 6.699-.133.836-.266 1.915-.398 2.274-.133.476-.399 1.91-.532 3.226 0 1.434-.265 3.348-.398 4.305-.133 1.078-.133 2.633-.133 3.707.133 2.633-.133 3.11-1.727 2.153-2.39-1.196-15.414-4.067-16.875-3.586-.132 0-.531.359-.664.718-.796 1.434-3.191-.957-3.457-3.59-.132-1.554.266-3.945 1.063-5.859 1.195-2.871-.531-2.75-3.586.238-1.328 1.317-1.727 2.036-1.992 3.469-.266 2.031-1.328 2.274-1.461.36-.27-1.793-.403-2.036-.797-2.036-1.598 0-1.996 5.262-.535 7.176.929 1.317.668 1.555-2.125 2.274-4.25 1.195-4.383 1.078-3.985-.957.133-.598.133-1.915 0-3.707-.132-1.555-.398-3.946-.531-5.262-.133-1.434-.265-3.11-.398-3.707-.133-.598-.403-1.914-.535-2.989-.399-2.156-1.059-4.785-1.727-6.816-.133-.719-.531-2.035-.797-2.754-.266-.715-.664-1.91-1.062-2.75-.266-.715-.664-1.672-.797-2.152-5.047-13.871-19.399-27.024-32.024-29.297-.929-.238-1.726-.359-1.859-.481-.266-.117-6.645-.238-7.707 0m.664 1.915c-6.777.839-13.285 18.656-11.691 32.168 1.593 12.437 8.769 22.484 27.636 38.148 4.25 3.469 4.117 3.23 2.922 5.023-5.844 8.969-9.433 21.766-9.965 35.399-.133 4.902-.265 4.664 3.192 5.023 2.523.36 7.707 1.196 8.504 1.434.265.121 1.062.238 1.726.359.531 0 1.195.239 1.328.239.532.359-.797.238-2.66 0-1.461-.36-4.781-.719-9.301-1.317-2.257-.355-2.656-.117-2.656 1.199 0 1.91.133 2.032 4.918 2.153 4.649.117 6.91.355 6.91.597 0 .118-2.394.118-5.316.118-6.645-.239-6.512-.239-4.918 2.75.668 1.316 1.598 1.914 2.394 1.675.532-.238 7.172-.957 8.504-.957 1.992 0 1.328.36-.929.481-1.731.117-5.184.597-7.043.836-1.328.238-1.196 1.074.398 2.871 8.371 9.207 25.379 13.511 52.484 13.511 25.379 0 42.52-4.664 49.696-13.753 1.726-2.153 1.594-2.629-.664-3.11-1.328-.238-1.328-.238.133-.117 2.523.117 3.32-.598 3.718-2.988.133-1.199.133-1.199-4.914-1.199-5.316.121-4.918-.239.93-.477 4.383-.359 4.648-.481 4.648-1.793 0-1.078-.398-1.555-1.593-1.316-.532 0-2.258.238-3.852.359-1.465.117-3.324.359-3.988.477-.664.121-1.461.238-1.86.238-1.062 0-.265-.356 1.196-.477.664-.121 1.726-.238 2.257-.359.665-.238 2.528-.477 4.122-.719 3.851-.476 3.988-.476 3.988-2.867 0-13.871-3.457-27.266-9.836-37.789-1.328-2.152-1.461-1.797 2.523-4.906 25.118-20.09 32.157-33.723 27.641-53.692-2.395-10.765-6.645-16.98-11.828-17.34-17.805-1.078-37.735 19.25-41.856 42.93 0 .481-.265 1.434-.394 2.273-.668 2.989-1.332 8.969-1.465 13.391-.133 5.145.133 4.906-2.789 3.828-6.91-2.629-14.883-4.426-15.281-3.469-.133.598-.532.598-2.524.243-4.254-.602-6.246-2.512-6.246-6.102 0-2.152-1.062-2.152-1.461 0v1.793c.133.84-.133 1.199-.797.957-1.593-.355-1.593.719 0 2.274 1.461 1.433 1.461 1.793 0 1.793-1.199 0-5.316.957-8.504 2.035-3.187.957-2.925 1.312-2.925-4.067 0-32.648-21.391-60.39-44.512-57.761m1.062 6.937c-5.71 2.629-7.043 15.188-2.921 26.785 2.921 8.133 8.503 16.863 19 29.66 1.062 1.196 2.66 3.227 3.722 4.543 1.063 1.196 2.125 2.274 2.258 2.153.398-.121.266-.239-3.59-4.903-18.07-21.644-24.179-34.441-23.117-47.715 1.461-15.906 15.277-12.316 26.574 6.934 1.86 3.109 3.321 6.223 5.047 10.285.664 1.317 2.129 5.5 2.395 6.578.132.598.398 1.438.531 1.793 1.461 5.024 2.789 12.676 3.055 18.418.265 4.305.664 4.305.531 0 0-6.218-1.461-13.633-4.117-22.125-5.848-18.894-21.395-35.996-29.368-32.406m123.442.117c-13.82 4.426-28.57 31.692-29.5 54.176-.129 5.617.398 4.543.801-1.437 1.593-23.676 18.07-51.661 30.691-52.497 6.113-.48 9.168 10.641 5.981 22.243-2.661 10.043-7.708 18.175-21.262 34.441-5.313 6.336-5.047 6.098-4.649 5.977.93-.118 13.95-16.262 17.805-22.004 13.422-19.969 13.422-45.082.133-40.899m-99.258 48.317c0 .117.133.597.266 1.195 1.062 2.75.664 5.262-.664 4.902-.266 0-.532 0-.399.121 1.461 2.75 1.727 3.11 2.125 2.629.531-.718.133-6.578-.531-7.773q-.797-1.613-.797-1.074m78.133.836c-1.199 2.75-1.199 8.73 0 8.011.664-.359 1.594-2.75 1.058-2.75-1.195 0-1.328-.597-1.058-3.23.262-1.555.262-2.629 0-2.031m-68.832 42.691c-8.504 2.871-8.903 15.906-.664 19.375 7.308 2.988 14.484-5.145 11.558-13.156-1.593-4.903-6.507-7.653-10.894-6.219m55.676 0c-7.176 2.273-9.036 12.797-3.055 17.937 4.117 3.59 10.363 2.274 13.019-2.75 4.122-7.89-2.257-17.578-9.964-15.187m-55.278 1.434c-1.593.48-2.789 2.156-2.523 3.468.531 2.274 3.457 2.871 5.316 1.078 2.258-2.273.266-5.5-2.793-4.546m55.676 0c-4.117.839-3.59 6.339.531 5.621 2.922-.477 3.985-4.543 1.461-5.379-1.062-.36-1.195-.36-1.992-.242m-27.637 17.343c-3.722.477-2.925 3.825 1.063 4.422 1.726.242 2.125 2.395 1.195 5.981-1.328 4.425-5.98 5.621-9.965 2.511-1.593-1.316-2.129-.957-.664.477 1.86 1.676 4.25 2.273 7.039 1.797 1.2-.121 1.2-.121 1.996.957 1.594 2.39 3.719 2.39 5.18.238.801-1.195 1.063-1.316 2.527-1.078 2.391.48 7.039-1.434 7.039-2.867 0-.481-.531-.36-1.726.594-3.453 2.871-8.238 1.675-9.566-2.391-1.063-3.348-.665-5.738.929-6.219 6.91-1.793 2.789-5.621-5.047-4.422m.399.356c-4.254.597-1.864 3.711 2.656 3.711 3.984 0 6.512-2.633 3.59-3.469-1.067-.359-4.652-.48-6.246-.242m60.59 5.144c-1.063 0-2.661.118-2.661.239 0 .238 5.981.957 7.176 1.078 1.328.238 5.848.957 6.91 1.195.532 0 1.594.238 2.395.359.797.118 1.594.356 1.859.356.664.359.93.121.532-.356-.399-.359-4.52-1.675-5.184-1.675-.266 0-.664 0-.664-.121-.133-.118-.797-.239-1.461-.36-.797 0-1.992-.238-2.789-.355-1.332-.36-5.981-.481-6.113-.36m-58.598 6.938c-.133.355-.664.953-.93 1.433-.797 1.075-.797 1.555 0 2.391 2.524 2.512 5.184 0 3.055-2.988-.93-1.555-1.461-1.676-2.125-.836m24.051 11.359c-10.367 1.91-37.34 1.91-46.774.117-1.461-.355-2.125 0-3.718 1.793-10.629 12.082-13.954 30.977-6.645 37.672 1.594 1.676 2.656 1.555 2.391-.12-.266-.837.132-.954.531-.118 1.062 2.273 3.59 3.226 5.715 2.273 1.195-.48 1.062-.718-.532-2.273-1.195-1.195-2.125-2.633-1.726-2.633.133 0 .797.719 1.594 1.438 2.125 2.152 3.187 2.39 4.25 1.312.797-.715.797-1.312 0-2.152-1.594-1.793-1.86-2.75-.262-1.313 1.461 1.313 1.992 1.313 2.523-.242 1.063-2.508.664-5.5-1.199-11.836-1.461-4.664-1.992-7.656-1.594-9.328.133-1.195.399-.719.93 1.793.27 2.031.801 3.945 2.262 8.25 3.187 9.809 1.062 16.383-5.715 18.297-7.176 2.035-13.422-2.867-14.352-11.36-.398-3.109-1.062-2.632-2.656 1.555-4.121 11-4.121 19.969 0 27.625 1.992 3.707 2.125 3.707 5.051 2.512 11.691-4.906 26.973.477 24.98 8.73-.535 2.27.133 2.391 15.149 2.153 10.496-.121 9.695.238 9.562-2.754 0-8.969 14.219-13.153 25.914-7.653 1.86.836 2.125.598 4.25-3.226 3.325-6.219 3.719-14.473 1.196-22.723-2.391-7.894-4.117-10.285-4.25-5.86-.266 13.036-18.336 15.786-21.129 3.228-.664-2.989-.266-5.739 1.726-11.958 1.2-3.945 1.731-6.097 1.996-8.25.266-1.437.532-1.437.665 0 .265 1.672-.133 4.422-1.329 8.25-2.793 9.926-2.261 16.504 1.329 12.915.664-.72.796-.836.796-.477 0 .238-.398.957-.929 1.433-.934 1.079-1.063 1.555-.266 2.391 1.063 1.196 1.859 1.078 4.25-1.074.797-.719 1.465-1.195 1.594-1.078.265.12-.797 1.437-1.86 2.273-1.726 1.434-1.195 2.39 1.329 2.39 2.129 0 3.457-.835 4.254-2.75.398-.835.796-.714.664.24-.266 3.108 3.718-.837 4.918-4.782 2.39-8.61-.668-20.328-8.11-30.258-3.187-4.422-3.984-4.902-6.773-4.422m2.258 62.903c-11.161 1.074-15.415 11.718-5.582 13.87 5.449 1.079 7.308.122 7.308-3.706 0-.836.133-1.434.266-1.434.398 0 .664 1.555.664 3.11-.133 2.03 0 2.152 2.262 2.03 2.789-.12 3.453-.835 3.718-3.585.133-2.75.93-2.035.93.957 0 3.586 4.117 2.508 4.254-1.2.133-2.152.664-1.554.797.598.133 1.914 1.328 1.797 2.523-.238 2.926-5.262-7.176-11.48-17.14-10.402m-57.137.476c-7.707 1.676-11.824 5.98-9.699 10.164 1.195 2.035 2.257 1.914 2.39-.238.137-1.793.664-2.152.664-.598 0 2.274 1.067 3.469 3.192 3.59 1.195 0 1.461-.48 1.328-1.914-.133-1.078.133-2.512.531-2.512.133 0 .266.477.266 1.196.398 2.87 1.062 3.586 3.851 3.707 2.262.12 2.395 0 2.395-2.391 0-3.11.664-3.59.929-.598.133 3.227.797 3.707 4.786 3.227 5.445-.477 7.574-2.39 7.574-6.219 0-5.86-8.641-9.445-18.207-7.414"/><path fill="#f2f2f2" d="M490.359-354.91c-3.855 1.207-5.714 6.562-7.308 10.707-4.117 12.609-5.582 26.601-3.856 39.902 1.731 13.301 7.707 24.703 14.485 34.547 4.918 7.082 10.367 13.473 15.547 20.211 1.461 3.281-1.461 5.871-2.258 8.637-1.727 5.699-3.59 11.398-4.653 17.445-2.125 10.711-3.054 21.938-3.054 33.164.929 4.32 5.312 2.074 7.84 3.629 1.992.52 5.711 1.383 6.644 2.074-2.66.172-5.316-1.211-7.973-1.383-2.128-.343-7.308-2.589-6.246 2.418 1.86 3.457 5.715 1.036 8.504 1.903.93.172 4.52.687 1.727.863-2.789.344-5.711-.52-8.637 0-2.391 1.555.399 7.082 2.789 6.219 3.059-.52 6.113-1.555 9.168-1.039-2.922.867-6.109.867-9.031 1.554-2.66 2.766 1.859 5.875 3.055 8.121 7.839 8.981 18.336 12.262 28.433 14.165 11.828 1.898 23.785 2.07 35.61.691 10.5-1.211 21.394-3.977 30.164-12.266 2.523-2.418 4.918-5.527 6.246-9.328.398-2.07-4.254-2.07-1.196-2.07 3.055 1.207 5.047-6.91 1.063-6.047-2.125 0-4.254.172-6.379-.176 2.922-1.379 7.309.867 9.434-2.59 0-4.492-4.25-1.726-6.379-1.726-1.594 0-4.118 1.211-5.18.519 2.922-.691 5.711-1.554 8.637-2.074 3.984.348 3.054-5.527 2.922-8.808-.399-17.965-3.719-35.93-10.364-51.477.266-3.801 3.719-5.184 5.317-7.945 9.566-11.403 19.133-24.012 24.047-40.246 4.121-13.649 3.191-28.848 0-42.668-1.329-5.7-3.321-11.746-6.911-15.547-3.851-2.938-8.503-1.379-12.488.172-9.566 4.492-17.008 14.511-22.59 25.394-5.976 11.918-9.433 25.738-10.894 39.731-.93 7.597-1.063 15.371-1.328 23.144-2.395 2.246-4.786-2.07-7.309-2.246-3.32-1.383-6.644-2.937-10.098-2.937-2.257 2.246-5.582 0-7.574-1.727-2.258-1.898-.797-6.906-2.656-8.289-.934 2.418.266 6.391-2.395 6.391.27 2.074 3.856 5.871.133 5.527-3.187.691-6.246 2.246-9.433 3.453-2.524-2.07-.266-6.906-1.063-10.363-.664-22.282-5.715-44.91-16.742-62.36-6.113-9.5-14.75-17.269-24.449-17.445-1.196 0-2.258 0-3.321.176m1.063 10.015c-3.984 3.11-4.785 9.672-5.184 15.204-1.062 16.582 3.989 32.472 10.633 46.121 4.781 10.015 10.231 19.691 15.813 29.015 1.992 1.383-1.465-3.797-1.996-4.836-8.504-14.851-17.141-30.054-21.657-47.672-2.527-9.847-3.324-20.73-.929-30.75 1.062-3.8 4.117-7.253 7.441-6.042 5.578 1.55 9.434 7.769 12.754 13.472 7.441 13.645 11.957 29.711 14.484 46.121.93 7.082 1.594 14.336 1.86 21.59.664 1.211.265-3.453.265-4.316-.398-13.992-2.922-27.985-6.644-40.942-3.985-12.433-9.168-24.527-17.008-33.336-2.656-2.765-6.246-5.699-9.832-3.629m123.441.172c-6.91 3.629-11.562 11.746-15.414 19.52-8.238 17.449-13.023 37.484-13.953 57.695-.133 1.727-.133 5.871.133 5.871.797-6.215.531-12.605 1.594-18.828 2.523-17.445 7.441-34.547 15.281-49.226 3.32-6.047 7.309-12.094 13.023-14.512 3.055-1.207 5.844 1.726 6.778 5.355 2.523 7.426 2.125 15.891 1.062 23.664-2.66 17.965-10.898 33.34-19.137 47.848-2.39 4.492-4.914 8.809-7.437 13.301 2.391-1.899 3.453-5.356 5.312-7.945 7.043-12.782 14.75-25.391 18.868-40.422 2.793-10.364 4.652-21.418 3.457-32.473-.532-4.145-2.125-9.328-5.715-10.363-1.328-.348-2.656 0-3.852.515m19.133 22.457c.266 1.555.531 7.774.531 3.457.266-.691-.398-5.531-.531-3.457m-157.855 2.418a67.4 67.4 0 0 0 0 10.364c.265-3.454.265-8.461 0-11.227 0 .348.132.691 0 .863m39.464 44.914c.93 3.282 1.461 7.774-.664 9.5.133 1.899 2.524 5.18 2.258 1.379-.133-3.453.133-8.461-1.594-10.879m78.129 1.207c-.796 3.454-1.726 8.637-.132 11.403 1.859-1.211 1.328-4.149 0-5.184-.266-2.074.796-4.144.132-6.219m-68.828 61.668c-5.847 2.938-7.707 12.438-5.98 19.52 1.195 5.871 5.98 10.883 10.633 8.809 5.843-2.59 8.238-12.09 6.375-19.348-1.196-5.527-5.446-10.707-10.098-9.328-.266 0-.664.176-.93.347m55.672 0c-5.578 2.762-7.707 11.918-6.109 18.829.929 5.355 4.648 10.707 9.168 10.019 5.449-1.039 8.504-8.637 8.105-15.203-.133-6.219-3.054-13.125-8.105-14.164-.93 0-1.992.172-3.059.519m-55.273 2.071c-3.059.867-3.453 7.773 0 8.121 3.453.691 5.449-7.082 1.726-8.293-.664-.172-1.195-.172-1.726.172m55.675 0c-3.855.347-3.722 9.328.532 8.121 3.32-.52 4.117-8.293.133-8.293h-.266zm-27.64 25.047c-3.985 0-1.992 7.257 1.332 6.39 2.523 2.074 1.195 6.738.664 9.848-.934 3.629-4.254 6.047-7.176 4.492-1.195-.519-3.324-3.453-3.855-2.594 1.726 3.629 5.449 4.664 8.371 3.801 1.594 2.938 5.449 6.219 6.644 1.039 2.391-2.074 5.848.172 7.973-2.765 1.328-.516 1.727-3.801.133-1.555-2.125 2.765-5.981 3.629-8.238.519-2.125-2.937-2.524-7.254-2.125-11.054 1.195-2.418 7.042-3.457 3.585-7.254-2.125-1.559-4.914-1.383-7.308-.867m.398.519c-3.718 0-1.328 6.047 1.328 5.184 2.262 1.207 8.372-1.903 4.786-4.836-1.993-.867-4.118-.348-6.114-.348m1.996 17.445c-3.058 2.075-.398 9.5 2.524 6.047 1.195-1.554-.797-8.465-2.524-6.047m24.047 16.411c-11.293 2.418-22.586 2.246-33.883 1.902-4.648-.348-9.3-.863-13.949-1.902-2.793 1.382-3.988 5.527-5.715 8.636-5.312 11.403-8.504 24.875-7.175 38.176.531 4.664 1.996 9.848 5.316 12.09 1.063-.172.398-4.664 1.461-1.555.531 3.457 6.246 4.84 5.848 1.04-.664-1.383-3.192-4.493-2.125-4.665 1.062 2.59 5.312 6.563 5.976 1.555-.398-1.211-3.055-5.527-.797-2.938 3.192 2.59 2.922-4.32 2.922-6.738-.531-7.945-3.453-15.199-3.453-23.144 0-1.727.398-2.938.797-.52.531 3.801 1.062 7.602 1.992 11.231 1.598 7.253 3.192 15.371.664 22.453-2.656 7.601-11.426 9.5-15.808 3.457-2.926-3.973-4.122-9.5-4.52-14.856-1.594-3.109-2.391 3.973-3.055 5.528-2.925 12.261-3.988 26.254.532 38 .664 3.972 3.453 5.875 5.843 3.109 7.043-3.8 16.078-3.11 21.926 3.8 1.992 2.419 3.055 6.391 2.258 10.02.797 4.145 5.184 1.899 7.574 2.59 5.317-.172 10.766.172 16.078-.52 2.524-2.59.133-8.288 3.059-11.054 3.984-6.734 11.16-8.117 17.269-6.563 2.528.52 5.051 1.727 7.313 3.282 3.187-.344 3.32-5.871 4.781-8.98 3.188-12.438 1.328-26.259-2.258-38.177-.664-3.109-2.523-1.554-1.996.864 0 7.082-3.453 14.511-9.035 16.066-4.648 1.555-9.699-1.902-11.293-7.773-2.39-7.254-.265-15.203 1.195-22.286.797-3.8 1.594-7.773 1.86-11.746 1.465 2.938.133 6.911-.266 10.02-1.195 7.254-3.054 14.684-1.992 22.11 1.063 3.28 4.918-3.626 2.793.519-2.527 3.281 1.328 7.254 3.055 3.453.531-1.379 3.32-3.453 1.593-.863-1.593 1.554-2.789 5.527.266 5.011 2.391.864 4.117-3.629 4.785-4.32.531 5.184 3.586-1.035 4.117-3.11 2.657-8.116 1.86-17.616.266-26.081-2.125-9.672-5.715-18.828-10.629-26.43-1.062-1.035-2.391-1.207-3.59-.691m24.848 69.441c-.266 2.762.668 2.59.531 0 .137-1.727-.664-3.11-.531-.52zm-22.586 21.418c-5.051.52-10.633 5.184-11.164 12.266 0 4.664 3.457 7.601 6.512 7.945 2.793 1.383 6.777-.172 6.379-4.836-.133-1.555.531-3.629.796-.863-.398 3.11.532 7.082 3.454 5.527 3.058 0 2.128-6.219 3.324-6.91.265 2.418 0 8.117 3.187 5.7 1.328-.864 1.063-5.872 1.86-5.528-.399 2.59 1.863 5.699 2.66 1.902 1.726-4.148-.797-8.812-3.457-10.883-3.985-3.629-8.903-5.011-13.551-4.32m-57.137.691c-4.254 1.211-8.902 4.145-10.23 10.02-.664 2.246 1.328 8.809 2.789 5.18 0-1.551.93-4.317.797-1.036-.664 3.282 4.519 6.91 4.519 2.246-.265-1.382.532-5.87.797-2.417-.398 4.144 3.719 7.425 5.981 4.492.664-1.555-.266-5.875.796-5.875.532 2.765.133 8.12 3.586 7.254 3.188 0 7.442-1.035 8.77-5.528 1.594-5.007-.797-10.879-4.52-12.953-3.984-2.765-8.898-2.765-13.285-1.383"/><path fill="red" d="M587.445-142.918c-18.043 8.191-43.375 6.586-62.156 1.445-2.226 4.336-4.078 10.922-5.191 15.422-.989 4.496-1.485 10.121-1.731 14.942 2.348-1.125 3.582-1.77 5.313-1.77 3.707-1.605 9.39-2.086 13.222-1.766-2.101-9.636-.246-.804.743 3.375 1.234 6.262 1.484 13.653-2.102 18.633-2.965 4.496-8.773 5.621-12.355 1.606-3.336-3.696-5.067-9.317-5.438-14.778-.988-3.535-3.336-.48-3.336 1.926-.742 3.215-1.609 6.426-1.855 9.801 26.691 17.508 63.023 16.547 88.601 0-.121-4.176-.738-4.82-.988-7.231-.617-2.085-1.606-8.511-3.707-5.3-.617 3.054-.492 6.425-1.606 9.316-1.855 5.785-7.043 9.961-11.988 8.195-4.816-1.93-7.535-8.996-7.289-15.261 1.606-7.711 2.102-10.602 4.449-10.602 4.571 0 10.996 1.285 15.446 3.371-.125-3.535-.247-4.656-.372-6.906-.617-9.801-5.066-20.402-7.66-24.418"/><path d="M489.695-357.676c-4.121.863-7.707 7.254-10.632 19-.93 3.453-1.993 9.156-1.86 9.848.133.172 0 .863-.265 1.898-.532 2.766-.797 11.575-.532 16.93.93 19.52 7.707 33.512 28.305 58.902 2.391 2.762 2.789 3.625 2.258 4.145-.266 0-1.86 4.32-2.922 7.601-.934 2.59-2.395 7.946-3.059 10.711-1.328 6.043-2.125 10.364-2.39 13.645-.133 1.211-.399 2.59-.532 3.281 0 .52-.265 2.766-.398 4.836-.133 2.074-.266 3.973-.398 4.149 0 .171-.133 3.109-.266 6.562-.133 7.602 0 7.254-2.527 6.91-1.86-.347-7.575-.519-8.239-.172-.664.344 2.395 1.207 6.379 1.727 4.121.519 4.387.691 4.52 2.937.133 1.899.133 1.899-4.254 2.071-1.727 0-3.719.172-4.387.347-.66.172-1.859.344-2.789.516-2.922.519-6.379 1.73-5.578 2.074.531.348.93.348 7.309-.691 4.382-.692 9.964-.52 10.496.347.796 1.379.531 2.762-.532 2.762-3.855.348-8.906 1.727-12.226 3.453-1.727.867-1.992 1.903-.399 1.211.532-.172 2.789-.863 6.512-1.726.93-.344 2.258-.52 2.922-.692.797 0 1.859-.344 2.527-.519 1.461-.516 2.524-.344 2.789.691.266 1.211-.265 1.902-1.859 2.246-2.395.52-5.316 2.246-7.309 4.492-1.593 1.555-.929 1.899 1.196.344 1.726-1.035 4.121-2.418 5.715-3.109.664-.172 1.46-.692 1.726-.864.797-.691 1.195-.515 1.859 1.036 1.594 3.285 5.715 8.464 9.036 11.402 4.519 3.801 12.492 7.773 15.945 7.773 1.992 0 2.523 1.383 1.195 2.938-3.453 4.316-9.035 21.074-9.832 29.711 0 1.035-.265 2.07-.398 2.418-.133.515-.797 2.246-1.328 3.972-1.063 2.934-1.461 4.145-2.789 8.809-1.067 3.8-2.262 9.848-2.661 13.473-.132 1.383-.265 3.11-.398 3.8-.266 1.727-.266 9.157 0 11.227.133.863.266 2.418.398 3.457.665 5.18 3.325 13.129 4.918 15.2.399.519.266 1.726-.132 1.726-.133 0-.532.691-.797 1.383-3.192 7.945.398 15.375 7.437 15.375.797 0 2.262.172 3.324.515 1.461.52 2.391.692 3.586.52.797-.172 2.395 0 3.457.172 3.188.52 7.707-.516 9.7-2.246 1.726-1.555 2.656-1.899 3.988-1.555 1.594.348 21.125.348 23.25 0 1.859-.344 2.258-.172 3.855 1.383 2.258 2.418 11.426 3.281 16.61 1.726.527-.172 1.859-.515 3.054-.515 5.45-.692 7.707-2.246 8.77-6.219.93-3.11.133-8.293-1.594-10.711-.531-.691-.531-.863-.133-1.383 1.196-1.726 4.383-10.879 4.383-12.433 0-.176.266-1.555.531-2.938.665-3.281.665-14.855.133-17.793-.265-1.035-.398-2.074-.398-2.418 0-2.59-2.656-13.129-5.047-19.863-1.328-3.801-1.859-5.527-1.992-7.258-.27-2.07-.403-2.59-1.067-6.043-1.593-7.945-5.843-18.828-9.035-23.148-1.992-2.59-1.859-3.625.399-3.801 7.308-.516 20.863-12.09 22.59-19.344.265-1.039.796-1.211 3.054-.348 4.254 1.383 5.051 1.727 7.973 3.458 4.785 2.761 4.785 1.378 0-1.903-2.258-1.555-5.445-2.762-7.973-3.109-1.859-.344-2.39-1.207-1.726-2.762.265-.348.531-1.383.664-2.246.133-1.902.664-2.766 1.863-2.766 6.773.172 8.77.348 11.027.692 6.375 1.039 10.496 1.039 8.504.172-.531-.344-.929-.344-1.062-.344-.133.172-.664 0-1.328-.348-.536-.344-1.864-.687-2.926-.863-1.063-.172-2.524-.344-3.453-.516-.797-.175-3.723-.347-6.512-.347-5.582.172-5.715.172-5.449-2.071.265-1.382.398-1.554 2.527-1.726 1.063-.176 2.789-.52 3.719-.692.93-.175 2.656-.519 3.59-.519 2.258-.172 6.109-1.383 5.711-1.727-.399-.347-5.45-.175-7.309.172-.93.172-2.656.344-3.852.52-1.328.172-2.66.343-2.921.515-.93.172-1.067-.343-1.2-8.289-.132-4.148-.265-8.121-.398-8.812-.133-.864-.266-2.934-.531-4.664-.266-3.453-.399-4.317-1.328-9.844-.664-3.801-.664-3.629-1.993-9.328-1.461-6.219-4.519-15.891-5.582-17.445-.398-.692-.265-1.04 1.063-2.766 24.449-29.192 31.758-45.774 30.297-68.746-.133-1.903-.266-4.664-.266-6.047-.133-1.383-.266-2.766-.398-3.281-.133-.348-.266-1.731-.399-2.938-.929-8.984-4.918-20.73-8.504-25.219-3.058-3.8-11.828-3.109-19.004 1.207-13.285 8.118-24.843 29.192-29.363 53.547-1.195 6.395-1.328 7.43-1.594 9.676-.132 1.207-.265 2.762-.398 3.281-.133.692-.398 2.762-.531 4.664 0 2.075-.266 4.836-.399 6.219-.133 1.555-.133 3.801-.133 5.356.133 3.8-.132 4.492-1.726 3.109-2.395-1.73-15.414-5.875-16.875-5.184-.137 0-.535.52-.668 1.036-.797 2.074-3.188-1.379-3.453-5.18-.133-2.246.265-5.699 1.062-8.465 1.196-4.144-.531-3.973-3.586.344-1.332 1.902-1.726 2.937-1.996 5.012-.265 2.933-1.328 3.281-1.461.515-.265-2.59-.398-2.933-.797-2.933-1.593 0-1.992 7.597-.531 10.363.93 1.898.664 2.246-2.125 3.281-4.254 1.727-4.387 1.555-3.988-1.383.133-.863.133-2.761 0-5.351-.133-2.246-.399-5.703-.531-7.602-.133-2.074-.266-4.492-.399-5.355a74 74 0 0 1-.531-4.321c-.398-3.105-1.063-6.906-1.727-9.843-.132-1.036-.531-2.938-.796-3.973-.266-1.035-.665-2.766-1.063-3.973-.266-1.039-.664-2.418-.797-3.109-5.051-20.039-19.402-39.039-32.023-42.32-.93-.348-1.727-.52-1.86-.692-.265-.172-6.644-.347-7.707 0m.664 2.766c-6.777 1.207-13.289 26.945-11.691 46.465 1.594 17.965 8.77 32.472 27.637 55.101 4.25 5.008 4.117 4.664 2.922 7.254-5.848 12.957-9.434 31.438-9.965 51.133-.133 7.082-.266 6.734 3.187 7.254 2.528.519 7.707 1.726 8.504 2.07.266.176 1.063.348 1.731.52.531 0 1.195.347 1.328.347.531.516-.797.344-2.66 0-1.461-.519-4.782-1.039-9.301-1.902-2.258-.516-2.656-.172-2.656 1.727 0 2.765.132 2.937 4.918 3.109 4.648.176 6.906.519 6.906.863 0 .176-2.391.176-5.313.176-6.644-.348-6.511-.348-4.918 3.973.664 1.898 1.594 2.761 2.391 2.418.531-.344 7.176-1.383 8.504-1.383 1.996 0 1.332.519-.93.691-1.726.172-5.18.864-7.043 1.207-1.328.348-1.195 1.559.403 4.149 8.371 13.3 25.375 19.519 52.484 19.519 25.379 0 42.519-6.738 49.695-19.867 1.727-3.109 1.594-3.801-.668-4.488-1.328-.348-1.328-.348.137-.172 2.523.172 3.32-.867 3.719-4.32.133-1.727.133-1.727-4.918-1.727-5.313.172-4.914-.348.929-.691 4.387-.52 4.653-.692 4.653-2.59 0-1.559-.399-2.246-1.594-1.903-.531 0-2.258.344-3.855.52-1.461.172-3.321.516-3.985.691-.664.172-1.461.344-1.859.344-1.063 0-.266-.519 1.195-.691.664-.172 1.727-.344 2.258-.52.664-.344 2.523-.687 4.117-1.035 3.856-.691 3.988-.691 3.988-4.145 0-20.039-3.453-39.382-9.832-54.585-1.328-3.11-1.461-2.59 2.524-7.082 25.113-29.02 32.156-48.711 27.637-77.559-2.391-15.547-6.641-24.527-11.825-25.047-17.804-1.555-37.734 27.813-41.855 62.012 0 .691-.266 2.074-.399 3.285-.664 4.316-1.328 12.953-1.461 19.344-.132 7.429.133 7.082-2.789 5.527-6.91-3.801-14.882-6.391-15.281-5.008-.133.863-.531.863-2.523.344-4.254-.863-6.246-3.625-6.246-8.809 0-3.109-1.063-3.109-1.461 0v2.59c.132 1.211-.133 1.731-.797 1.383-1.598-.516-1.598 1.035 0 3.281 1.461 2.074 1.461 2.594 0 2.594-1.199 0-5.317 1.383-8.504 2.934-3.192 1.382-2.926 1.902-2.926-5.871 0-47.157-21.391-87.231-44.512-83.43m1.063 10.015c-5.715 3.801-7.043 21.938-2.926 38.696 2.926 11.746 8.508 24.355 19.004 42.836 1.063 1.726 2.656 4.664 3.719 6.566 1.062 1.727 2.129 3.281 2.261 3.109.399-.175.266-.347-3.589-7.082-18.071-31.265-24.184-49.75-23.121-68.921 1.464-22.977 15.281-17.793 26.578 10.015 1.859 4.492 3.32 8.985 5.047 14.856.664 1.902 2.125 7.949 2.39 9.504.137.863.403 2.07.531 2.589 1.465 7.254 2.793 18.309 3.059 26.602.266 6.219.664 6.219.531 0 0-8.984-1.461-19.691-4.121-31.957-5.844-27.293-21.39-51.992-29.363-46.813m123.441.172c-13.82 6.395-28.57 45.778-29.5 78.25-.133 8.121.399 6.567.797-2.07 1.594-34.203 18.07-74.621 30.695-75.832 6.114-.691 9.168 15.371 5.981 32.129-2.66 14.508-7.707 26.254-21.262 49.75-5.316 9.152-5.051 8.808-4.648 8.633.929-.172 13.949-23.492 17.804-31.782 13.418-28.847 13.418-65.121.133-59.078m-99.258 69.789c0 .172.133.864.266 1.727 1.063 3.973.664 7.598-.664 7.082-.266 0-.531 0-.398.172 1.461 3.973 1.726 4.492 2.125 3.801.531-1.036.132-9.5-.532-11.231q-.797-2.328-.797-1.551m78.129 1.207c-1.195 3.973-1.195 12.61 0 11.575.664-.52 1.594-3.973 1.063-3.973-1.195 0-1.328-.863-1.063-4.664.266-2.246.266-3.801 0-2.938m-68.828 61.668c-8.504 4.145-8.902 22.973-.664 27.985 7.309 4.316 14.485-7.43 11.559-19.004-1.594-7.082-6.508-11.055-10.895-8.981m55.672 0c-7.172 3.282-9.031 18.481-3.055 25.911 4.122 5.179 10.364 3.281 13.024-3.973 4.117-11.402-2.262-25.395-9.969-21.938m-55.273 2.071c-1.594.691-2.789 3.109-2.524 5.011.532 3.282 3.453 4.145 5.313 1.555 2.261-3.281.265-7.945-2.789-6.566m55.675 0c-4.121 1.211-3.589 9.156.532 8.121 2.922-.692 3.984-6.567 1.461-7.774-1.063-.519-1.196-.519-1.993-.347m-27.64 25.047c-3.719.691-2.922 5.531 1.062 6.39 1.731.348 2.129 3.457 1.2 8.641-1.332 6.39-5.981 8.117-9.969 3.625-1.594-1.899-2.125-1.379-.664.691 1.859 2.418 4.254 3.281 7.043 2.59 1.195-.172 1.195-.172 1.992 1.383 1.598 3.457 3.723 3.457 5.184.348.796-1.731 1.062-1.903 2.523-1.555 2.394.687 7.043-2.074 7.043-4.149 0-.687-.531-.515-1.727.864-3.457 4.148-8.238 2.422-9.566-3.453-1.063-4.836-.664-8.293.93-8.985 6.91-2.59 2.789-8.117-5.051-6.39m.398.519c-4.25.863-1.859 5.356 2.66 5.356 3.985 0 6.508-3.801 3.586-5.008-1.062-.52-4.648-.692-6.246-.348m60.59 7.43c-1.062 0-2.656.172-2.656.344 0 .343 5.98 1.382 7.176 1.554 1.328.348 5.847 1.383 6.91 1.727.531 0 1.594.347 2.39.519.797.172 1.594.52 1.86.52.668.515.93.172.535-.52-.402-.519-4.52-2.418-5.184-2.418-.265 0-.664 0-.664-.172-.132-.175-.797-.347-1.461-.519-.796 0-1.996-.348-2.793-.52-1.328-.515-5.976-.691-6.113-.515m-58.594 10.015c-.132.52-.668 1.383-.929 2.075-.801 1.554-.801 2.246 0 3.453 2.523 3.629 5.179 0 3.054-4.317-.929-2.246-1.461-2.418-2.125-1.211m24.047 16.411c-10.363 2.765-37.336 2.765-46.769.175-1.461-.519-2.125 0-3.719 2.59-10.633 17.446-13.953 44.738-6.645 54.41 1.594 2.418 2.657 2.247 2.391-.171-.266-1.211.133-1.383.531-.172 1.063 3.28 3.586 4.664 5.715 3.28 1.195-.69 1.063-1.034-.531-3.28-1.195-1.727-2.125-3.801-1.731-3.801.133 0 .797 1.035 1.598 2.074 2.125 3.11 3.188 3.453 4.25 1.898.797-1.035.797-1.898 0-3.109-1.594-2.59-1.859-3.973-.266-1.898 1.461 1.898 1.993 1.898 2.524-.348 1.062-3.629.668-7.945-1.195-17.102-1.461-6.734-1.993-11.054-1.594-13.472.133-1.727.398-1.035.93 2.59.265 2.937.796 5.703 2.257 11.922 3.192 14.164 1.067 23.664-5.711 26.425-7.175 2.938-13.421-4.144-14.351-16.41-.399-4.488-1.063-3.797-2.656 2.246-4.121 15.895-4.121 28.848 0 39.903 1.992 5.355 2.125 5.355 5.046 3.629 11.696-7.082 26.973.69 24.981 12.609-.531 3.281.133 3.453 15.148 3.11 10.496-.173 9.7.343 9.567-3.973 0-12.957 14.219-19 25.91-11.055 1.859 1.207 2.129.863 4.254-4.664 3.32-8.984 3.719-20.903 1.195-32.82-2.39-11.403-4.117-14.856-4.254-8.465-.265 18.828-18.336 22.8-21.125 4.664-.664-4.317-.265-8.289 1.727-17.274 1.195-5.699 1.726-8.808 1.996-11.918.262-2.074.527-2.074.664 0 .266 2.418-.137 6.391-1.332 11.918-2.789 14.336-2.258 23.836 1.332 18.657.66-1.036.797-1.211.797-.692 0 .344-.402 1.383-.934 2.074-.929 1.555-1.062 2.243-.265 3.454 1.062 1.726 1.863 1.554 4.254-1.555.796-1.035 1.46-1.727 1.593-1.555.266.172-.797 2.074-1.859 3.281-1.727 2.075-1.195 3.457 1.328 3.457 2.125 0 3.453-1.21 4.254-3.972.398-1.211.797-1.04.66.344-.262 4.492 3.723-1.211 4.918-6.911 2.395-12.437-.664-29.363-8.105-43.703-3.188-6.39-3.985-7.082-6.778-6.39m2.262 90.859c-11.164 1.555-15.414 16.93-5.582 20.039 5.449 1.555 7.309.172 7.309-5.355 0-1.211.132-2.075.265-2.075.399 0 .664 2.246.664 4.493-.133 2.937 0 3.109 2.258 2.937 2.789-.172 3.457-1.21 3.723-5.184.133-3.972.929-2.937.929 1.383 0 5.184 4.118 3.63 4.25-1.726.133-3.11.664-2.246.797.863.137 2.762 1.332 2.59 2.528-.348 2.921-7.597-7.176-16.582-17.141-15.027m-57.137.691c-7.707 2.418-11.828 8.637-9.699 14.684 1.195 2.938 2.258 2.762 2.391-.348.132-2.59.664-3.11.664-.863 0 3.281 1.062 5.012 3.187 5.184 1.199 0 1.465-.692 1.332-2.766-.133-1.555.133-3.625.532-3.625.132 0 .265.691.265 1.727.399 4.144 1.063 5.183 3.852 5.355 2.258.172 2.39 0 2.39-3.457 0-4.488.668-5.18.934-.863.133 4.664.797 5.355 4.781 4.664 5.449-.692 7.574-3.453 7.574-8.98 0-8.465-8.636-13.65-18.203-10.712"/></g><path d="M58.887-32.758c-.13-.386-.192-.578-.645-.578s-.515.094-.68.61L50.82-13.43c-.453 1.325-1.355 2.164-3.422 2.196v.933c1.97-.062 2.036-.062 3.102-.062.902 0 2.45 0 3.29.062v-.933c-1.356-.032-2.165-.711-2.165-1.614 0-.195 0-.261.164-.68l1.484-4.288h8.13l1.777 5.066c.16.383.16.45.16.547 0 .969-1.645.969-2.453.969v.933c.742-.062 3.293-.062 4.195-.062s3.227 0 3.969.062v-.933c-2.098 0-2.68 0-3.13-1.325zM57.336-29.5l3.746 10.746h-7.488zm35.898 11.36c0-3 0-3.903-.742-4.938-.937-1.258-2.453-1.453-3.55-1.453-2.676 0-4.032 1.937-4.547 3.195-.454-2.484-2.196-3.195-4.227-3.195-3.129 0-4.356 2.68-4.613 3.324h-.036v-3.324l-4.386.36v.933c2.195 0 2.453.226 2.453 1.808v8.743c0 1.453-.355 1.453-2.453 1.453v.933c.84-.062 2.582-.062 3.484-.062.938 0 2.68 0 3.516.062v-.933c-2.063 0-2.453 0-2.453-1.453v-6c0-3.391 2.226-5.196 4.23-5.196 2 0 2.45 1.645 2.45 3.613v7.583c0 1.453-.352 1.453-2.45 1.453v.933c.836-.062 2.578-.062 3.484-.062.934 0 2.676 0 3.516.062v-.933c-2.066 0-2.453 0-2.453-1.453v-6c0-3.391 2.227-5.196 4.227-5.196 2.004 0 2.453 1.645 2.453 3.613v7.583c0 1.453-.356 1.453-2.453 1.453v.933c.84-.062 2.582-.062 3.484-.062.938 0 2.68 0 3.52.062v-.933c-1.614 0-2.422 0-2.454-.97zm15.434-2.938c.871-2.16 2.387-2.192 3-2.192v-.937c-.934.066-1.387.066-2.422.066-.738 0-.805 0-2.613-.066v.938c1.195.062 1.484.804 1.484 1.386 0 .29-.062.453-.191.774l-3.293 8.132-3.578-8.777c-.196-.453-.196-.644-.196-.676 0-.84 1.129-.84 1.774-.84v-.937c-.836.066-2.418.066-3.32.066-1.227 0-1.294 0-3.133-.066v.938c1.87 0 2.132.16 2.55 1.16l4.809 11.808c-1.422 3.422-1.422 3.485-1.551 3.742-.547.97-1.418 2.196-2.87 2.196-1 0-1.614-.582-1.614-.582s1.129-.13 1.129-1.258c0-.774-.614-1.195-1.195-1.195-.547 0-1.227.324-1.227 1.261 0 1.227 1.195 2.418 2.906 2.418 1.805 0 3.129-1.578 3.969-3.613zM81.906-86.207c-.27-1.203-.937-1.203-1.707-1.203-1.039 0-1.441.133-1.672 1.203l-4.152 17.766c-1.102 0-1.871 0-1.871.972 0 .969.902.969 1.371.969h3.21c.47 0 1.376 0 1.376-.969 0-.972-.805-.972-1.844-.972l.871-3.746h5.422l.867 3.746c-1.035 0-1.84 0-1.84.972 0 .969.907.969 1.376.969h3.21c.47 0 1.371 0 1.371-.969 0-.972-.769-.972-1.875-.972zm-3.984 12.078c.234-1.004 2.078-8.898 2.242-10.504h.035c.098.766.567 2.809.567 2.844l1.707 7.66zm115.965 41.793v.934h.644c2.324 0 2.422.324 2.422 1.52v17.132c0 1.191-.098 1.516-2.422 1.516h-.644v.933h12.133c4.16 0 7.066-2.808 7.066-5.902 0-2.617-2.356-5.195-6.195-5.617 3.062-.578 5.289-2.645 5.289-5.063 0-2.777-2.805-5.453-7.032-5.453zm5.519 10.258v-8.031c0-1.067.063-1.293 1.485-1.293h4.062c3.227 0 4.391 2.777 4.391 4.52 0 2.128-1.68 4.804-5.262 4.804zm1.485 10.844c-1.422 0-1.485-.227-1.485-1.293v-8.903h6.032c3.097 0 4.71 2.707 4.71 5.192 0 2.613-1.968 5.004-5.128 5.004zm23.82-12.938v.934c2.191 0 2.449.226 2.449 1.808v5.774c0 2.742-1.449 5.035-3.871 5.035-2.644 0-2.809-1.52-2.809-3.227V-24.53l-4.546.36v.933c2.449 0 2.449.097 2.449 2.968v4.84c0 2 0 3.16.969 4.227.777.84 2.097 1.226 3.742 1.226.551 0 1.582 0 2.679-.937.938-.742 1.454-1.969 1.454-1.969v2.906l4.484-.324v-.933c-2.195 0-2.453-.227-2.453-1.809V-24.53zm22.148 6.032c0-3 0-3.903-.742-4.938-.937-1.258-2.453-1.453-3.551-1.453-3.128 0-4.355 2.68-4.613 3.324h-.031v-3.324l-4.391.36v.933c2.196 0 2.453.226 2.453 1.808v8.743c0 1.453-.355 1.453-2.453 1.453v.933c.84-.062 2.582-.062 3.485-.062.937 0 2.679 0 3.519.062v-.933c-2.066 0-2.453 0-2.453-1.453v-6c0-3.391 2.227-5.196 4.227-5.196s2.453 1.645 2.453 3.613v7.583c0 1.453-.356 1.453-2.453 1.453v.933c.839-.062 2.582-.062 3.484-.062.937 0 2.68 0 3.52.062v-.933c-1.618 0-2.422 0-2.454-.97zm17.5 0c0-3 0-3.903-.742-4.938-.937-1.258-2.453-1.453-3.551-1.453-3.128 0-4.355 2.68-4.613 3.324h-.031v-3.324l-4.391.36v.933c2.196 0 2.453.226 2.453 1.808v8.743c0 1.453-.355 1.453-2.453 1.453v.933c.84-.062 2.582-.062 3.485-.062.937 0 2.679 0 3.519.062v-.933c-2.066 0-2.453 0-2.453-1.453v-6c0-3.391 2.227-5.196 4.227-5.196s2.453 1.645 2.453 3.613v7.583c0 1.453-.356 1.453-2.453 1.453v.933c.839-.062 2.582-.062 3.484-.062.937 0 2.68 0 3.52.062v-.933c-1.618 0-2.422 0-2.454-.97zm15.407-2.938c.875-2.16 2.39-2.192 3.004-2.192v-.937c-.938.066-1.387.066-2.422.066-.743 0-.805 0-2.614-.066v.938c1.196.062 1.485.804 1.485 1.386 0 .29-.063.453-.196.774l-3.289 8.132-3.582-8.777c-.191-.453-.191-.644-.191-.676 0-.84 1.129-.84 1.773-.84v-.937c-.839.066-2.421.066-3.324.066-1.226 0-1.289 0-3.129-.066v.938c1.871 0 2.129.16 2.547 1.16l4.809 11.808c-1.418 3.422-1.418 3.485-1.547 3.742-.551.97-1.422 2.196-2.871 2.196-1 0-1.617-.582-1.617-.582s1.132-.13 1.132-1.258c0-.774-.613-1.195-1.195-1.195-.547 0-1.226.324-1.226 1.261 0 1.227 1.195 2.418 2.906 2.418 1.804 0 3.129-1.578 3.969-3.613zm-47.36-88.766c-.468 0-1.336 0-1.336.973 0 .969.903.969 1.371.969h.805v16.562h-.805c-.468 0-1.371 0-1.371.969 0 .973.903.973 1.336.973h7.934c3.711 0 5.687-2.946 5.687-5.59 0-2.375-1.64-4.551-4.285-5.117 1.672-.536 3.582-2.141 3.582-4.551 0-2.446-1.976-5.188-5.656-5.188zm3.012 8.836v-6.894h4.152c2.774 0 3.578 2.074 3.578 3.281 0 1.57-1.304 3.613-4.117 3.613zm0 9.668v-7.73h4.387c3.375 0 4.047 2.879 4.047 4.015 0 1.64-1.274 3.715-4.25 3.715zm144.52 59.067c0-.579 0-.743-.325-.743-.191 0-.222.067-.418.387l-1.582 2.55c-1.449-1.808-3.644-2.937-5.968-2.937-5.903 0-11.004 5.098-11.004 11.68 0 6.68 5.164 11.715 11.004 11.715 5.293 0 8.293-4.613 8.293-8.164 0-.356 0-.55-.356-.55-.324 0-.355.163-.355.39-.289 5.129-4.032 7.386-7.164 7.386-2.258 0-8.418-1.355-8.418-10.777 0-9.324 6.066-10.742 8.386-10.742 3.391 0 6.356 2.871 7 7.71.067.387.067.485.453.485.454 0 .454-.098.454-.742zm14.218 13.359c0-1.742 0-3.035-1.422-4.293-1.129-1.031-2.582-1.484-4-1.484-2.644 0-4.679 1.742-4.679 3.84 0 .937.613 1.386 1.355 1.386.774 0 1.324-.547 1.324-1.32 0-1.324-1.164-1.324-1.644-1.324.738-1.356 2.289-1.938 3.578-1.938 1.484 0 3.391 1.227 3.391 4.133v1.289c-6.489.098-8.938 2.809-8.938 5.293 0 2.547 2.969 3.355 4.934 3.355 2.133 0 3.582-1.289 4.195-2.84.129 1.516 1.129 2.676 2.516 2.676.679 0 2.55-.449 2.55-3.03v-1.806h-.711v1.805c0 1.84-.773 2.098-1.226 2.098-1.223 0-1.223-1.711-1.223-2.196zm-2.097 4.062c0 3.165-2.356 4.23-3.746 4.23-1.579 0-2.903-1.163-2.903-2.71 0-4.262 5.485-4.648 6.649-4.711zm10.832-2.964c0-3.13 1.289-6.067 3.773-6.067.258 0 .32 0 .453.031-.262.13-.777.325-.777 1.196 0 .933.742 1.289 1.258 1.289.644 0 1.293-.418 1.293-1.29 0-.968-.871-1.874-2.258-1.874-2.742 0-3.68 2.968-3.875 3.586h-.031v-3.586l-4.325.36v.933c2.196 0 2.453.226 2.453 1.808v8.743c0 1.453-.355 1.453-2.453 1.453v.933c.903-.062 2.68-.062 3.649-.062.871 0 3.16 0 3.902.062v-.933h-.644c-2.356 0-2.418-.356-2.418-1.516zm21.718.613c0-4.164-3.16-7.488-6.906-7.488-3.871 0-6.937 3.421-6.937 7.488 0 4.129 3.226 7.226 6.906 7.226 3.808 0 6.937-3.164 6.937-7.226m-6.906 6.515c-1.191 0-2.644-.515-3.582-2.097-.867-1.45-.902-3.356-.902-4.711 0-1.227 0-3.192 1-4.645a4.14 4.14 0 0 1 3.453-1.906c1.258 0 2.613.582 3.484 1.84 1 1.484 1 3.52 1 4.71 0 1.13 0 3.13-.836 4.65-.902 1.546-2.39 2.16-3.617 2.16m13.445-22.004-4.484.355v.934c2.195 0 2.453.226 2.453 1.808v16.907c0 1.453-.355 1.453-2.453 1.453v.933c.906-.062 2.484-.062 3.453-.062s2.582 0 3.485.062v-.933c-2.063 0-2.454 0-2.454-1.453zm-26.39-64.782c0-.535 0-1.273-.938-1.273-.601 0-.765.371-.902.605-.098.266-.367.868-.469 1.102-1.371-1.203-2.91-1.707-4.316-1.707-4.313 0-7.895 4.617-7.895 10.605 0 6.125 3.68 10.641 7.895 10.641 3.914 0 6.625-3.11 6.625-6.055 0-1.039-.703-1.039-1.102-1.039-.468 0-1.004.168-1.07.738-.27 4.184-3.648 4.418-4.219 4.418-3.109 0-5.953-3.648-5.953-8.703 0-5.05 2.875-8.664 5.922-8.664 1.805 0 3.781 1.438 4.25 4.516.098.738.398.937 1.07.937 1.102 0 1.102-.601 1.102-1.27zm109.898 65.137v.934h.645c2.32 0 2.418.324 2.418 1.52v17.132c0 1.191-.098 1.516-2.418 1.516h-.645v.933h11.293c5.387 0 9.711-4.84 9.711-10.808 0-6.227-4.355-11.227-9.711-11.227zm7.098 21.102c-1.418 0-1.484-.227-1.484-1.293V-30.11c0-1.067.066-1.293 1.484-1.293h3.387c2.679 0 4.808 1.293 6.132 3.422 1.45 2.289 1.45 5.55 1.45 6.84 0 1.804-.032 4.84-1.871 7.226-1.063 1.355-3 2.68-5.711 2.68zm21.359-18.942c0-.84-.675-1.582-1.582-1.582-.836 0-1.547.68-1.547 1.551 0 .969.774 1.582 1.547 1.582 1 0 1.582-.84 1.582-1.55m-4.453 6.004v.934c2.067 0 2.356.191 2.356 1.773v8.778c0 1.453-.352 1.453-2.453 1.453v.933c.906-.062 2.453-.062 3.39-.062.356 0 2.227 0 3.324.062v-.933c-2.097 0-2.226-.164-2.226-1.422V-24.53zm15.543 19.194c-2.062 0-2.449 0-2.449-1.453v-5.613c.578.809 1.902 2.066 3.969 2.066 3.707 0 6.968-3.132 6.968-7.292 0-4.098-3.035-7.262-6.55-7.262-2.84 0-4.356 2.035-4.453 2.164v-2.164l-4.485.36v.933c2.262 0 2.453.226 2.453 1.644V-6.43c0 1.453-.355 1.453-2.453 1.453v.938c.84-.066 2.582-.066 3.485-.066.933 0 2.679 0 3.515.066zm-2.449-15.617c0-.613 0-.644.355-1.16.965-1.453 2.547-2.066 3.774-2.066 2.422 0 4.355 2.937 4.355 6.55 0 3.84-2.195 6.649-4.679 6.649-1 0-1.938-.422-2.582-1.035-.739-.742-1.223-1.387-1.223-2.29zm19.949 15.617c-2.062 0-2.449 0-2.449-1.453v-5.613c.578.809 1.902 2.066 3.969 2.066 3.707 0 6.968-3.132 6.968-7.292 0-4.098-3.035-7.262-6.55-7.262-2.84 0-4.356 2.035-4.453 2.164v-2.164l-4.485.36v.933c2.262 0 2.453.226 2.453 1.644V-6.43c0 1.453-.355 1.453-2.453 1.453v.938c.84-.066 2.582-.066 3.485-.066.933 0 2.679 0 3.515.066zm-2.449-15.617c0-.613 0-.644.355-1.16.965-1.453 2.547-2.066 3.774-2.066 2.422 0 4.355 2.937 4.355 6.55 0 3.84-2.195 6.649-4.679 6.649-1 0-1.938-.422-2.582-1.035-.739-.742-1.223-1.387-1.223-2.29zm24.312-.484c.872-2.16 2.387-2.192 3.004-2.192v-.937c-.937.066-1.39.066-2.422.066-.742 0-.804 0-2.613-.066v.938c1.192.062 1.485.804 1.485 1.386 0 .29-.067.453-.196.774l-3.289 8.132-3.582-8.777c-.195-.453-.195-.644-.195-.676 0-.84 1.133-.84 1.777-.84v-.937c-.84.066-2.422.066-3.324.066-1.227 0-1.289 0-3.129-.066v.938c1.871 0 2.129.16 2.547 1.16l4.809 11.808c-1.422 3.422-1.422 3.485-1.547 3.742-.551.97-1.422 2.196-2.875 2.196-1 0-1.614-.582-1.614-.582s1.129-.13 1.129-1.258c0-.774-.609-1.195-1.191-1.195-.547 0-1.227.324-1.227 1.261 0 1.227 1.192 2.418 2.903 2.418 1.808 0 3.132-1.578 3.968-3.613zm-43.992-100.164c-.469 0-1.34 0-1.34.969 0 .968.871.968 1.34.968h.668v16.563h-.668c-.469 0-1.34 0-1.34.972 0 .969.871.969 1.34.969h6.66c4.313 0 7.192-4.75 7.192-10.039 0-5.351-2.778-10.402-7.227-10.402zm2.844 18.5v-16.563h3.18c3.879 0 5.656 4.617 5.656 8.434 0 4.051-1.977 8.129-5.625 8.129z"/></g></svg>