<svg xmlns="http://www.w3.org/2000/svg" width="343.265" height="187.829" viewBox="162.461 106.842 257.449 140.872"><g id="page1" fill-rule="evenodd"><path fill="#80ff80" d="M267.237 119.273c-2.233-.106-4.411.478-6.59.85-2.446.532-4.944 1.063-7.282 1.914-.691.106-.744.956-.372 1.488 1.169-.16 2.232-.744 3.401-1.01 7.388-2.126 15.2-2.339 22.801-1.594 4.147.425 8.186 1.54 12.119 2.923.69.425 2.126-.638.797-.797-2.179-.691-4.305-1.648-6.59-2.18-3.668-.903-7.494-1.275-11.268-1.54-2.34-.054-4.678-.16-7.016-.054m22.11 12.49c-3.56 1.329-7.282 2.02-11.055 2.604-1.223.107-.372 1.648-.85 2.445 1.222.32 2.604-.16 3.826-.212 4.093-.638 8.239-1.435 12.065-2.977.851-.159.957-.903 0-.956-1.01-.213-1.913-.744-2.763-1.33-.426.16-.797.267-1.223.426m-11.268 7.547c-.903 1.01-.532 2.552-.371 3.774.105.744.584 2.02 1.275 2.073-.107-1.595-.373-3.242-.373-4.837-.052-.319.16-1.647-.53-1.01m5.368 2.658c-.903.478 1.17.425 1.436.903 1.328.957 1.275 2.817 1.806 4.252.48 1.542.798 3.19 1.702 4.518.85-.372-.107-2.179-.213-3.03-.585-1.913-1.01-3.986-2.232-5.633-.585-.744-1.542-1.382-2.499-1.01m10.63 55.86c-2.019.319-4.304.904-5.421 2.817-.531.797-.584 2.02.638 2.073.16-1.063.904-2.02 1.86-2.551 2.18-1.116 4.73-1.223 7.123-1.116q2.39.16 4.783.797c.425-.797-1.17-1.701-2.02-1.754-2.02-.532-4.199-.479-6.271-.266zm-13.978 9.089c-1.169 0-2.179.585-2.817 1.54-.478.32-.637 1.49.16.745 1.7-1.648 4.305-1.754 6.43-1.17 1.49-.159-.69-1.381-1.381-1.168-.797-.054-1.541-.054-2.338.053z"/><path fill="#0f0" d="M266.652 120.655c-4.57.266-8.982 1.382-13.287 2.817-.532.16-.638-.744-.585.212.107 2.339 2.126 3.987 3.986 5.103 4.252 2.338 9.195 3.136 13.979 3.295 4.996.106 10.098-.797 14.669-2.923 1.86-.797 3.667-1.807 5.103-3.242.637-.585 1.86-1.595 1.913-2.18-1.17.266-2.339-.425-3.455-.69-5.474-1.807-11.214-2.552-16.955-2.552-1.807 0-3.614.054-5.368.16m25.778 15.626c-2.392.638-4.73 1.488-7.228 1.807-2.02.372-4.04.69-6.06.797-1.329.053-.159 1.807-.478 2.658.106 1.222.16 2.445.426 3.614 1.063.85 1.806-.957 2.444-1.595.69-.69 1.435-1.647 2.55-1.7 1.543.106 2.393 1.594 2.871 2.923.744 2.073 1.382 4.145 1.807 6.271.426.745-.85.585 0 1.01 1.276-.106 2.074-1.488 2.445-2.604 1.116-3.295 1.223-6.803 1.648-10.258 0-.957.531-2.285.053-3.03-.16 0-.319.054-.478.107m2.178 62.77c-1.753.318-3.826.797-4.89 2.391-.318.585-.264 1.86-1.115.957-.212.053 1.275 1.063 1.86 1.222 2.87 1.17 6.166 1.542 9.248.904 1.648-.478 3.508-1.329 4.146-3.083.266-.903-.266-1.807-.904-2.391.797 1.328-.956.478-1.648.372-2.178-.426-4.464-.638-6.697-.372m-13.392 8.717c-1.17.105-2.392.53-3.19 1.381-1.594.372.32 1.647 1.17 1.754 1.966.585 4.465.637 5.9-1.063.743-.797.211-2.392-.904-1.807-.957-.265-1.967-.32-2.976-.265"/><path fill="#00b300" d="M252.302 122.462c-1.967.638-3.88 1.648-5.58 2.817-1.064 1.01.903 2.073 1.54 2.71 1.967 1.436 4.252 2.499 6.485 3.349 1.116.585 2.445.744 3.667 1.063 1.807.425 3.614.903 5.475 1.01 5.58.744 11.32.744 16.901-.213 2.604-.425 5.209-.903 7.654-1.807 2.444-1.116 4.783-2.445 6.909-4.092 1.222-.691.85-1.967-.265-2.498-.798-.373-1.595-1.542-2.286-1.435-.798.797-1.435 1.753-2.339 2.444-4.145 3.508-9.567 5.209-14.935 5.9-5.527.691-11.268.213-16.476-1.86-2.445-1.01-5.05-2.498-6.006-5.156-.319-.797-.266-1.594-.213-2.445zm41.457 12.065c-5.156 1.966-10.683 2.604-16.051 3.56-1.224 0-.373 1.755-.585 2.499.106 2.285.106 4.677 1.222 6.75.531 1.116 2.126 1.063 2.817.213 1.01-1.223 1.435-2.87 2.604-3.934 1.117-.106 1.7 1.33 2.02 2.233.744 2.073 1.329 4.199 2.02 6.325 0 1.169.956 2.763 2.338 2.444 1.382-.478 2.02-2.02 2.604-3.242 1.542-4.04 1.967-8.397 2.392-12.702.107-1.33.372-2.711.16-4.093-.16-.85-1.063-.266-1.541-.053m-1.33 1.754c-2.656.744-5.26 1.648-8.025 2.073-1.86.319-3.827.372-5.687.744-1.382.372-1.17 2.02-1.17 3.082.107.957.214 2.126 1.063 2.711.745.797 1.914.425 2.286-.531.585-.798 1.329-1.435 2.02-2.126 1.01.16 2.126.372 2.657 1.381.692 1.117.692 2.552 1.17 3.774.531 1.488.797 3.19 1.753 4.518 1.223.478 2.233-1.223 2.658-2.18 1.063-2.976 1.169-6.165 1.594-9.3.107-1.382.373-2.817.32-4.2-.16-.159-.425.054-.638.054m10.365 62.504c-.372-.16.85.797.797 1.275.479 1.33-.265 2.711-1.435 3.349-2.497 1.382-5.474 1.382-8.238 1.01-1.967-.32-3.933-.904-5.527-2.073-.213-.638-.16-.691-.107.053.426 1.807 2.338 2.657 3.986 3.189 3.401.957 7.175.957 10.47-.319 1.33-.638 3.03-1.382 3.35-2.976.052-1.595-1.489-2.605-2.764-3.349-.107 0-.478-.372-.532-.16m-18.07 8.717c1.222.903.478 2.657-.745 3.135-1.914 1.01-4.358.691-6.166-.478-1.275-.745.638-2.339.532-2.391-.798.53-1.754 1.7-1.01 2.657 1.382 1.647 3.72 1.913 5.74 1.7 1.383-.16 3.083-.637 3.614-2.072.32-1.383-1.062-2.285-2.125-2.765v.054z"/><path fill="#060" d="M294.556 124.535c.85.478 2.232 1.488 1.063 2.445-2.02 1.966-4.624 3.03-7.123 4.199 1.223-.266 2.445-.85 3.562-1.436 1.648-.956 3.348-1.913 4.464-3.454.16-1.116-1.488-1.542-2.232-2.126-.425-.213-1.276-.585-.372-.053.212.159.425.265.638.425m-45.496 4.04c1.488 1.009 3.189 1.753 4.89 2.497.797.213-1.223-.638-1.648-.85-1.063-.532-2.18-1.116-3.242-1.648m46.187 68.722c-2.073.265-4.2.956-5.9 2.232-.691.585-1.595 1.275-1.434 2.392 0 1.647 1.328 2.87 2.763 3.507 1.382.745 2.87 1.277 4.412 1.17 1.86.053 3.773.16 5.634-.053 1.7-.426 3.4-1.223 4.73-2.339.903-.904 1.382-2.445.53-3.508-.584-.85-1.381-1.594-2.337-2.02-2.605-1.169-5.528-1.594-8.398-1.381m-.744.531c-2.073.266-4.465.85-5.74 2.71-.85 1.17-.372 2.818.744 3.615 2.073 1.594 4.783 1.966 7.334 2.073 2.764 0 5.793-.425 8.026-2.233 1.01-.69 1.488-2.179.638-3.189-1.701-2.232-4.624-2.923-7.282-3.082-1.223-.053-2.498 0-3.72.106m-13.713 8.717c-1.17.265-2.445.638-3.295 1.541-1.063.85-.797 2.445.159 3.242 1.329 1.275 3.296 1.33 5.05 1.489 1.488-.107 2.763-.958 3.932-1.755.692-.956.692-2.497-.371-3.189-1.541-1.168-3.562-1.541-5.475-1.328m-.213.425c-1.275.159-2.657.69-3.242 1.966-.744 1.223.692 2.286 1.755 2.658 2.178.85 4.89.904 6.802-.585 1.17-.744.904-2.392-.212-3.082-1.436-1.01-3.349-1.222-5.103-.957"/><path fill="#f3f3f3" d="M266.227 108.058c-4.465.266-8.93 1.063-13.287 2.286-4.359 1.329-8.823 3.189-12.065 6.537-1.86 1.86-3.136 4.73-2.339 7.388.957 3.348 3.88 5.634 6.803 7.335 5.847 3.189 12.544 4.624 19.134 5.262 3.561.372 7.176.372 10.736.265 1.116.16 2.179-.85 1.807-2.02-.956-.584-2.178-.372-3.241-.478-4.518-.106-9.09-.053-13.554-1.01-4.57-.956-9.195-2.391-12.809-5.42-1.966-1.649-3.56-4.2-2.923-6.857.69-2.923 3.295-4.943 5.846-6.325 6.06-3.242 13.022-4.358 19.878-4.518 6.803-.106 13.766.744 20.144 3.296 2.923 1.275 5.953 2.923 7.547 5.793 1.382 2.445.744 5.74-1.275 7.707-1.33 1.488-3.19 2.391-4.784 3.56-.319 1.01 1.595 1.01 2.285 1.436.478.106.958.372 1.436.425 3.242-1.648 6.537-3.667 8.29-6.91 1.277-2.285 1.064-5.208-.425-7.334-2.231-3.296-5.846-5.262-9.406-6.75-4.412-1.701-9.09-2.817-13.767-3.349a124 124 0 0 0-14.031-.319m-25.671 26.628c0 1.807-.16 3.615 0 5.422.797.85.956-1.276 1.116-1.807.106-1.17 1.275-1.86 1.222-3.03.107-1.17.053-2.339.266-3.508-.69-.744-1.648-1.594-2.498-1.86-.106 1.594-.106 3.189-.106 4.783m7.281-.16c-.212.639.691.639 1.01 1.064 2.073 1.86 2.232 5.262.904 7.6-.426 1.063-1.648 1.382-2.286 2.073-.212 3.19-.053 6.431-.106 9.62 0 9.992.053 19.931.053 29.87 1.116 1.329 2.817 1.86 4.358 2.551 2.339.957 4.837 1.808 7.388 2.073 1.01-.531.319-2.179.532-3.189q.239-23.997.16-47.994c.265-1.382-1.861-.797-2.712-1.275a50.3 50.3 0 0 1-9.248-2.817c-.106.16-.053.265-.053.425m-3.773 1.542c-1.223.638-1.807 2.073-1.807 3.402.903.478 2.338-1.541 3.03-.213.69 1.223-.798 2.658-1.755 1.382-1.541-.106-1.17 1.754-.319 2.392.691.957 2.286 1.222 3.03.16 1.222-1.648 1.488-3.987.531-5.847-.478-.85-1.647-1.967-2.71-1.276m-3.19 5.794c-.53.053-.318.584-.371.956.159 10.843.053 21.685.212 32.475.16 1.541.85 2.976 1.595 4.305.531.478.212-1.223.372-1.648.16-9.992.106-19.984.319-29.976 0-1.329-.054-2.658-.054-4.04-.584-.637-.903-1.488-1.435-2.179-.212-.106-.425.053-.637.107"/><path fill="#d9d9d9" d="M269.735 108.005c.532.053 2.658 0 1.117 0-.16 0-1.702-.053-1.117 0m-30.455 20.622c-.053 1.116-.053 2.18.053 3.296.053-1.223.107-2.445 0-3.561v.053zm3.827 3.19c-.16 1.434-.053 2.922-.319 4.304.585-.637 1.648-.903 2.551-1.116.798-.16 1.648-.266 2.498-.053-.106-.372.16-.903-.319-1.01a35.5 35.5 0 0 1-4.198-2.232h-.16zm53.627 2.019c-.903.797-.956 2.073-.956 3.189-.478 4.943-.744 9.992-2.392 14.776-.584 1.435-1.382 3.189-3.029 3.614-1.488.212-2.498-1.276-3.083-2.445-.744-1.914-1.169-3.933-1.86-5.847-.266-.956-.531-2.285-1.594-2.657-.798.903-1.17 2.126-1.914 3.083-.638.956-1.86 1.7-3.03 1.169-1.381-.638-1.647-2.445-1.912-3.827-.373-2.126-.266-4.305-.48-6.431-.797-.266-2.019.053-2.975-.053-3.508 0-7.016 0-10.524-.532-1.01-.106-2.073-.319-3.136-.372 0 15.839.053 31.677-.16 47.463-.053 1.435.054 2.87-.159 4.305-1.17.372-2.338-.213-3.455-.478-2.763-.85-5.474-1.807-7.919-3.296-.478-.318-.903-.744-.744-1.328 0-12.969-.106-25.99 0-38.959.053-.478-1.01-.053-1.382-.266-1.063-.106-2.179-.319-3.03-.903-.053 2.338 0 4.677-.053 6.962-.212 9.302-.106 18.55-.318 27.85.053.585-.16 1.436-.532.426-.638-1.063-1.01-2.286-1.382-3.508-.053 1.329.585 2.604 1.17 3.774 1.169 2.072 3.082 3.667 4.836 5.261 2.817 2.392 6.431 3.402 9.94 4.359 3.135.69 6.324 1.275 9.566 1.488 3.508 0 7.07.106 10.577-.16 4.943-.478 9.885-1.594 14.403-3.667 2.073-.903 3.88-2.657 4.518-4.943 1.116-3.56 1.01-7.334 1.169-11.055.213-11.8.372-23.598.32-35.398-.16-.425.371-2.285-.48-1.594m-50.332 1.754c-.319 1.063 1.329 2.073 1.276 3.242.531 1.754-.16 3.508-1.116 4.943.372 1.063 2.445-.16 2.657-1.116 1.01-2.02.85-4.624-.638-6.378-.531-.532-1.382-.957-2.179-.691m57.348 2.392c0 .478.054 2.604.054 1.116 0-1.116 0-2.232-.054-3.349zm-63.141 29.445c0 .584.053 2.338.053.85 0-.691 0-2.126-.053-2.339z"/><path fill="silver" d="M270.745 110.556c.585.054 2.445 0 .904 0-.16 0-1.382-.053-.904 0m-2.392.798c-5.953.372-11.959 1.382-17.274 4.145-2.391 1.276-4.89 3.03-5.74 5.794-.319 1.063-.319 2.338.266 3.348.957.585 1.86-.638 2.764-.903 4.04-2.233 8.45-3.508 12.968-4.2 8.238-1.328 16.795-1.115 24.874.904 3.508.904 6.856 2.233 9.94 4.093 1.168.956 1.753-.532 1.7-1.542.266-2.55-1.648-4.73-3.614-6.112-4.093-2.817-8.93-4.092-13.766-4.89a57.8 57.8 0 0 0-12.118-.637m-29.923 11.214v.266c.053-.478 0-1.648 0-.531zm65.32 9.992c0 .479 0 2.233.054 1.86v-3.826c-.054.69-.054 1.329-.054 1.966m-2.231-2.126c-1.542 1.276-3.349 2.233-5.103 3.296-1.063.797-.638 2.285-.85 3.454-.319 4.73-.797 9.514-2.233 14.032-.585 1.488-1.329 3.295-2.923 3.88-1.435.372-2.392-1.01-2.87-2.126-1.063-2.658-1.541-5.528-2.604-8.132-.478-1.382-1.755-.585-2.02.478-.691 1.276-1.435 2.817-2.923 3.349-1.223.16-1.86-1.17-2.285-2.073a14.4 14.4 0 0 1-.904-3.295c.106 1.754.16 3.773 1.541 5.102.85.744 2.391.744 3.083-.319.903-1.01 1.541-2.285 2.233-3.508 1.063-.16 1.487 1.542 1.753 2.445.585 1.86 1.063 3.827 1.807 5.74.531 1.223 1.435 2.764 2.977 2.658 1.647-.266 2.498-1.967 3.082-3.349 1.701-4.73 2.02-9.832 2.498-14.775 0-1.276 0-2.658 1.063-3.561.744-.16.213 1.488.373 2.02.052 11.905-.107 23.757-.32 35.61-.16 3.56-.106 7.228-1.223 10.63-.69 2.232-2.444 3.933-4.517 4.89-3.03 1.381-6.271 2.338-9.514 2.922a65.2 65.2 0 0 1-24.236-.425c-3.986-1.01-8.185-2.232-11.267-5.102-1.648-1.488-3.349-3.03-4.412-4.996-.531-1.063-.957-2.232-1.063-3.402a94 94 0 0 0 0 5.475c-.053-.904.372 1.116 0 .425.797 1.594 1.754 3.136 3.19 4.252 3.932 3.189 8.875 4.89 13.765 6.006 8.663 1.913 17.805 2.02 26.522.266 5.049-1.063 10.257-2.605 14.35-5.847 1.753-1.382 3.189-3.189 3.986-5.262 0-15.094.053-30.136.053-45.23-.053-1.913.054-3.827-.265-5.687-.107-.585-.532 0-.744.16m-30.402 6.857c.584 0 2.339-.053.85-.053-.16 0-1.329 0-.85.053m-1.01 1.116c.425.053 2.764 0 1.328 0-.212 0-1.86-.053-1.328 0m-30.667 8.876c-.054.584 0 1.86 0 .531v-1.647zm1.116 4.518v3.72q.08-3.747 0-7.494zm63.141-1.063v2.498q.08-2.551 0-5.103zm-64.257 11.64c-.054.53 0 1.647 0 .478v-.957zm64.205 5.474v2.126-4.89zm-63.036 4.145c0 .585.053 1.86.053.479 0-.425 0-1.807-.053-1.648zm-1.116 3.083v2.445a77 77 0 0 0 0-4.943zM270 194.692c.425 0 2.232-.053.956-.053-.105 0-1.434 0-.956.053"/><path d="M266.864 106.89a65.5 65.5 0 0 0-12.011 1.753c-5.05 1.329-10.152 3.295-14.031 6.856-2.286 2.073-4.093 5.05-3.561 8.185.212 1.648 1.116 3.19 2.072 4.571q.16 6.538 0 13.075c-1.488.744-2.817 1.807-4.145 2.87-1.914 1.7-3.88 3.667-4.518 6.219-.425 1.328.266 2.817 1.541 3.401 1.701.797 3.668.266 5.422-.16.69-.212 1.913-.69 1.647.532.266 9.142.16 18.284.319 27.425.16 1.436 1.17 2.605 2.02 3.668 2.285 2.817 5.527 4.464 8.77 5.846 4.89 1.86 9.992 2.87 15.147 3.349 4.305.212 8.61.16 12.862-.107 4.837-.478 9.62-1.435 14.085-3.242 3.188-1.275 6.378-2.976 8.717-5.527 1.009-1.116 1.753-2.445 2.285-3.827.16-4.305.106-8.61.16-12.915.052-13.34 0-26.735.159-40.075-.054-.425-.054-.798.266-1.116.743-.957 1.063-2.126 1.647-3.136.638-2.073-.16-4.252-1.116-6.06-1.648-2.976-4.57-4.995-7.547-6.537-5.262-2.604-11.055-3.933-16.849-4.677-4.464-.425-8.93-.478-13.34-.372m-1.487 1.115c-4.89.425-9.727 1.435-14.35 2.923-3.934 1.33-7.814 3.296-10.684 6.432-1.275 1.381-2.126 3.189-1.966 5.102.053 3.242 2.232 6.006 4.783 7.866 3.88 2.764 8.557 4.252 13.234 5.315a90.3 90.3 0 0 0 16.477 1.7c1.222-.052 2.551 0 3.72-.477.691-.585.797-2.445-.531-2.18-4.411-.212-8.877-.053-13.288-.69-4.996-.798-10.045-2.127-14.297-5.05-2.18-1.541-4.252-3.88-4.093-6.697.16-2.87 2.499-4.996 4.784-6.484 5.05-3.136 11.055-4.464 16.954-4.996 7.336-.638 14.882-.106 21.898 2.232 3.508 1.223 7.122 2.87 9.355 5.953 1.275 1.648 1.754 3.986.797 5.9-1.222 2.657-3.721 4.305-6.112 5.74-1.222 1.01 1.222 1.329 1.86 1.647 1.063.638 2.285.479 3.242-.318 2.977-1.648 6.006-3.88 7.175-7.176.957-2.657-.106-5.633-1.967-7.653-3.028-3.349-7.334-5.209-11.586-6.59-4.89-1.489-9.992-2.392-15.095-2.446-3.454-.106-6.856-.212-10.31-.053m2.976 3.349c-5.953.372-11.959 1.382-17.274 4.145-2.391 1.276-4.89 3.03-5.74 5.794-.319 1.063-.319 2.338.266 3.348.957.585 1.86-.638 2.764-.903 4.04-2.233 8.45-3.508 12.968-4.2 8.238-1.328 16.795-1.115 24.874.904 3.508.904 6.856 2.233 9.94 4.093 1.168.956 1.753-.532 1.7-1.542.266-2.55-1.648-4.73-3.614-6.112-4.093-2.817-8.93-4.092-13.766-4.89a57.8 57.8 0 0 0-12.118-.637m-.053 8.078c-4.625 0-9.195 1.01-13.606 2.233-1.382.372-2.711.903-4.04 1.435-1.488.69-2.976 1.488-4.252 2.551.053 1.116 1.542 1.807 2.339 2.551 4.411 3.083 9.832 4.358 15.041 5.102 4.518.585 9.089.85 13.606.266 3.455-.372 6.963-.797 10.259-1.913.956-.478 2.019-.797 3.03-1.276 2.019-1.01 4.092-2.126 5.686-3.827.797-1.116-1.17-1.7-1.914-2.232-3.348-1.647-6.856-3.082-10.576-3.773-5.103-1.17-10.364-1.223-15.573-1.117m-27.744 10.684a211 211 0 0 0-.053 10.045c.744.956 1.063-1.17 1.169-1.754.319-1.435 1.275-2.817 2.817-3.136 1.382-.425 3.189-.744 4.358.372 1.967 1.86 2.18 5.05.957 7.388-.479.85-1.276 1.594-2.232 1.966-1.754-.053-3.827 0-4.943-1.594-.585-.585-.798-2.286-1.967-1.488-.319.16-.053.744-.16 1.116.054 12.915.054 25.83.16 38.746.797 1.488 1.648 3.03 3.03 4.092 3.773 3.19 8.61 4.89 13.393 6.06 8.504 1.913 17.38 2.072 25.937.584 5.103-.957 10.258-2.392 14.563-5.368 2.126-1.488 3.986-3.508 4.89-5.953 0-15.094.053-30.136.053-45.23-.053-1.913.054-3.827-.265-5.687-.478-.638-1.276.904-1.967 1.063-1.276.957-2.764 1.594-4.04 2.498-.85.957-.478 2.392-.69 3.561-.319 4.624-.797 9.301-2.233 13.766-.585 1.541-1.382 3.348-3.03 3.986-1.434.319-2.39-1.116-2.816-2.285-1.01-2.658-1.488-5.528-2.658-8.185-.797-1.489-1.807.159-2.126 1.063-.638 1.062-1.222 2.391-2.445 2.976-1.275.372-2.126-1.063-2.604-2.02-1.01-2.604-.904-5.421-1.063-8.185 0-.425-.69-.106-1.01-.212-3.401-.054-6.803.159-10.204-.16-5.422-.585-10.843-1.541-15.945-3.455-3.03-1.169-5.9-2.817-8.504-4.783-.106-.106-.425-.16-.372.213m48.844 1.594c-3.613 1.329-7.387 2.073-11.214 2.604-1.063.213-.319 1.701-.798 2.498 1.063.32 2.392-.053 3.562-.106 4.252-.638 8.557-1.541 12.543-3.136 1.17-.212.532-.903-.266-.956-1.169-.107-2.02-1.382-3.136-1.17-.213.107-.425.16-.691.266m4.306 2.817c-5.21 2.073-10.79 2.87-16.318 3.56-.478.054-.106.692-.212 1.064.106 2.498.106 5.102.903 7.547.266 1.01 1.435 1.86 2.445 1.276 1.435-1.063 1.755-3.083 3.03-4.359 1.063-.584 1.807 1.064 2.126 1.914 1.01 2.657 1.541 5.474 2.71 8.025.532 1.436 2.339 1.33 3.03.107 1.647-2.126 2.073-4.943 2.605-7.494.69-3.827 1.168-7.654 1.168-11.48 0-.957-1.009-.266-1.487-.16m-47.304 1.063c.372 1.116 1.488 2.126 1.542 3.455.318 1.754-.426 3.507-1.382 4.943.797.584 2.073-.32 2.498-1.117 1.169-2.02 1.063-4.942-.691-6.643-.532-.372-1.276-.744-1.967-.638m-2.338.372c-1.33.69-1.914 2.285-1.86 3.774.956-.107 1.753-1.01 2.763-.85 1.01.69 0 3.188-1.116 1.913-1.063-.691-1.967.744-1.17 1.594.532.957 1.808 2.02 2.977 1.329 1.648-1.116 1.967-3.455 1.541-5.315-.265-1.276-1.222-2.551-2.604-2.605-.16 0-.319.107-.531.16m-5.368 7.122c-2.605 1.807-5.05 4.093-6.378 7.016-.585.903-.532 2.55.85 2.604 1.86.319 3.667-.319 5.474-.744 1.17-.425.585-2.073.798-3.03 0-2.02.053-4.039-.16-6.005-.053-.266-.425.159-.584.159"/><path fill="#f5c2c2" d="M174.792 174.708c-4.872 1.152-8.858 4.252-10.896 8.681-3.897 8.327.443 18.16 9.39 21.083 6.91 2.303 14.793-1.063 18.16-7.795 1.328-2.48 1.948-5.936 1.594-8.327-.531-4.075-1.772-6.733-4.518-9.39-1.949-1.949-4.163-3.278-6.82-3.986-1.772-.532-5.138-.62-6.91-.266m.531.266c-4.783.797-8.946 3.986-11.072 8.415-2.746 5.935-1.506 12.845 3.277 17.362 1.683 1.595 3.19 2.48 5.492 3.278 3.278 1.151 7.087 1.063 10.365-.266 3.543-1.417 6.643-4.429 8.15-7.972.974-2.215 1.15-3.278 1.15-5.935 0-3.012-.176-4.075-1.328-6.555-.975-2.038-3.189-4.695-5.05-5.847-3.277-2.214-7.174-3.1-10.984-2.48m-.088 2.923c-.797.089-2.48.62-3.278.974-.885.355-3.011 1.86-3.011 2.038 0 .088-.266.443-.532.708-.62.71-1.329 2.215-1.772 3.455-.443 1.418-.531 1.772-.265 1.949.354.266.443.177.974-.886 2.037-3.543 4.518-5.758 8.681-7.53.62-.177.443-.885-.177-.797-.089 0-.354.089-.62.089"/><path fill="red" d="M175.323 174.974c-4.783.797-8.946 3.986-11.072 8.415-2.746 5.935-1.506 12.845 3.277 17.362 1.683 1.595 3.19 2.48 5.492 3.278 3.278 1.151 7.087 1.063 10.365-.266 3.543-1.417 6.643-4.429 8.15-7.972.974-2.215 1.15-3.278 1.15-5.935 0-3.012-.176-4.075-1.328-6.555-.975-2.038-3.189-4.695-5.05-5.847-3.277-2.214-7.174-3.1-10.984-2.48m-.088 2.923c-.797.089-2.48.62-3.278.974-.885.355-3.011 1.86-3.011 2.038 0 .088-.266.443-.532.708-.62.71-1.329 2.215-1.772 3.455-.443 1.418-.531 1.772-.265 1.949.354.266.443.177.974-.886 2.037-3.543 4.518-5.758 8.681-7.53.62-.177.443-.885-.177-.797-.089 0-.354.089-.62.089"/><path fill="#c2dcf5" d="M188.965 188.881c-4.872 1.152-8.858 4.252-10.895 8.681-3.898 8.327.443 18.16 9.39 21.083 6.909 2.303 14.793-1.063 18.159-7.795 1.328-2.48 1.949-5.935 1.594-8.327-.531-4.075-1.771-6.732-4.517-9.39-1.95-1.949-4.164-3.277-6.821-3.986-1.772-.531-5.138-.62-6.91-.266m.532.266c-4.784.797-8.947 3.986-11.073 8.415-2.746 5.935-1.506 12.845 3.277 17.363 1.684 1.594 3.19 2.48 5.493 3.277 3.277 1.152 7.086 1.063 10.364-.266 3.543-1.417 6.643-4.429 8.15-7.972.974-2.214 1.15-3.277 1.15-5.935 0-3.012-.176-4.075-1.328-6.555-.974-2.038-3.189-4.695-5.05-5.847-3.277-2.214-7.174-3.1-10.983-2.48m-.089 2.923c-.797.089-2.48.62-3.277.975-.886.354-3.012 1.86-3.012 2.037 0 .089-.266.443-.532.709-.62.708-1.328 2.214-1.771 3.454-.443 1.418-.532 1.772-.266 1.95.354.265.443.176.974-.887 2.038-3.543 4.518-5.758 8.681-7.53.62-.176.443-.885-.177-.796-.088 0-.354.088-.62.088"/><path fill="#0080ff" d="M189.497 189.147c-4.784.797-8.947 3.986-11.073 8.415-2.746 5.935-1.506 12.845 3.277 17.363 1.684 1.594 3.19 2.48 5.493 3.277 3.277 1.152 7.086 1.063 10.364-.266 3.543-1.417 6.643-4.429 8.15-7.972.974-2.214 1.15-3.277 1.15-5.935 0-3.012-.176-4.075-1.328-6.555-.974-2.038-3.189-4.695-5.05-5.847-3.277-2.214-7.174-3.1-10.983-2.48m-.089 2.923c-.797.089-2.48.62-3.277.975-.886.354-3.012 1.86-3.012 2.037 0 .089-.266.443-.532.709-.62.708-1.328 2.214-1.771 3.454-.443 1.418-.532 1.772-.266 1.95.354.265.443.176.974-.887 2.038-3.543 4.518-5.758 8.681-7.53.62-.176.443-.885-.177-.796-.088 0-.354.088-.62.088"/><path fill="#f5c2c2" d="M401.563 180.377c-4.871 1.152-8.857 4.252-10.895 8.681-3.898 8.327.443 18.16 9.39 21.083 6.91 2.303 14.794-1.063 18.159-7.795 1.329-2.48 1.949-5.935 1.595-8.327-.532-4.075-1.772-6.732-4.518-9.39-1.949-1.948-4.164-3.277-6.82-3.986-1.773-.531-5.138-.62-6.91-.266m.532.266c-4.784.797-8.947 3.986-11.073 8.415-2.746 5.935-1.505 12.845 3.278 17.363 1.683 1.595 3.189 2.48 5.492 3.277 3.278 1.152 7.086 1.063 10.364-.266 3.544-1.416 6.644-4.429 8.15-7.972.974-2.215 1.151-3.278 1.151-5.935 0-3.012-.177-4.075-1.329-6.555-.974-2.038-3.189-4.695-5.049-5.847-3.278-2.214-7.175-3.1-10.984-2.48m-.088 2.923c-.797.089-2.481.62-3.278.975-.886.354-3.012 1.86-3.012 2.037 0 .089-.266.443-.532.709-.62.708-1.328 2.214-1.771 3.454-.442 1.418-.531 1.772-.266 1.95.355.265.443.177.974-.887 2.038-3.543 4.518-5.757 8.682-7.53.62-.176.443-.885-.178-.796-.088 0-.353.088-.62.088"/><path fill="red" d="M402.095 180.643c-4.784.797-8.947 3.986-11.073 8.415-2.746 5.935-1.505 12.845 3.278 17.363 1.683 1.595 3.189 2.48 5.492 3.277 3.278 1.152 7.086 1.063 10.364-.266 3.544-1.416 6.644-4.429 8.15-7.972.974-2.215 1.151-3.278 1.151-5.935 0-3.012-.177-4.075-1.329-6.555-.974-2.038-3.189-4.695-5.049-5.847-3.278-2.214-7.175-3.1-10.984-2.48m-.088 2.923c-.797.089-2.481.62-3.278.975-.886.354-3.012 1.86-3.012 2.037 0 .089-.266.443-.532.709-.62.708-1.328 2.214-1.771 3.454-.442 1.418-.531 1.772-.266 1.95.355.265.443.177.974-.887 2.038-3.543 4.518-5.757 8.682-7.53.62-.176.443-.885-.178-.796-.088 0-.353.088-.62.088"/><path fill="#c2dcf5" d="M359.044 203.055c-4.872 1.151-8.858 4.251-10.895 8.68-3.899 8.327.442 18.16 9.39 21.084 6.909 2.302 14.792-1.063 18.158-7.796 1.33-2.48 1.95-5.935 1.595-8.327-.532-4.075-1.772-6.732-4.518-9.39-1.948-1.948-4.163-3.277-6.82-3.986-1.772-.531-5.139-.62-6.91-.265m.532.265c-4.784.798-8.948 3.986-11.074 8.416-2.745 5.934-1.505 12.844 3.278 17.362 1.684 1.595 3.19 2.48 5.492 3.277 3.278 1.152 7.087 1.063 10.365-.266 3.542-1.416 6.643-4.428 8.149-7.972.974-2.215 1.152-3.278 1.152-5.935 0-3.011-.178-4.074-1.33-6.555-.974-2.037-3.188-4.694-5.048-5.846-3.278-2.215-7.175-3.1-10.984-2.48m-.089 2.923c-.798.089-2.48.62-3.278.975-.885.354-3.011 1.86-3.011 2.037 0 .089-.266.443-.532.71-.62.708-1.328 2.214-1.772 3.453-.443 1.418-.532 1.773-.266 1.949.355.266.444.177.975-.886 2.037-3.542 4.518-5.757 8.681-7.528.62-.178.443-.887-.177-.798-.089 0-.355.088-.62.088"/><path fill="#0080ff" d="M359.576 203.32c-4.784.798-8.948 3.986-11.074 8.416-2.745 5.934-1.505 12.844 3.278 17.362 1.684 1.595 3.19 2.48 5.492 3.277 3.278 1.152 7.087 1.063 10.365-.266 3.542-1.416 6.643-4.428 8.149-7.972.974-2.215 1.152-3.278 1.152-5.935 0-3.011-.178-4.074-1.33-6.555-.974-2.037-3.188-4.694-5.048-5.846-3.278-2.215-7.175-3.1-10.984-2.48m-.089 2.923c-.798.089-2.48.62-3.278.975-.885.354-3.011 1.86-3.011 2.037 0 .089-.266.443-.532.71-.62.708-1.328 2.214-1.772 3.453-.443 1.418-.532 1.773-.266 1.949.355.266.444.177.975-.886 2.037-3.542 4.518-5.757 8.681-7.528.62-.178.443-.887-.177-.798-.089 0-.355.088-.62.088"/><path fill="#f5c2c2" d="M254.162 217.228c-4.872 1.152-8.858 4.252-10.896 8.68-3.897 8.327.443 18.16 9.39 21.083 6.91 2.304 14.793-1.063 18.16-7.794 1.329-2.481 1.948-5.936 1.594-8.327-.531-4.076-1.772-6.733-4.517-9.39-1.95-1.95-4.164-3.278-6.821-3.987-1.772-.531-5.138-.62-6.91-.265m.532.265c-4.784.798-8.947 3.987-11.073 8.415-2.746 5.936-1.506 12.845 3.277 17.363 1.683 1.594 3.19 2.48 5.492 3.277 3.278 1.152 7.087 1.063 10.365-.265 3.543-1.418 6.643-4.43 8.15-7.973.974-2.214 1.151-3.277 1.151-5.935 0-3.011-.177-4.074-1.329-6.555-.974-2.038-3.189-4.695-5.05-5.846-3.277-2.215-7.174-3.1-10.983-2.48m-.089 2.924c-.797.089-2.48.62-3.278.974-.885.354-3.011 1.86-3.011 2.038 0 .088-.266.442-.532.708-.62.708-1.329 2.215-1.772 3.455-.442 1.417-.531 1.772-.265 1.949.354.266.443.177.974-.886 2.037-3.544 4.518-5.758 8.681-7.53.62-.177.443-.885-.177-.797-.089 0-.354.09-.62.09"/><path fill="red" d="M254.694 217.493c-4.784.798-8.947 3.987-11.073 8.415-2.746 5.936-1.506 12.845 3.277 17.363 1.683 1.594 3.19 2.48 5.492 3.277 3.278 1.152 7.087 1.063 10.365-.265 3.543-1.418 6.643-4.43 8.15-7.973.974-2.214 1.151-3.277 1.151-5.935 0-3.011-.177-4.074-1.329-6.555-.974-2.038-3.189-4.695-5.05-5.846-3.277-2.215-7.174-3.1-10.983-2.48m-.089 2.924c-.797.089-2.48.62-3.278.974-.885.354-3.011 1.86-3.011 2.038 0 .088-.266.442-.532.708-.62.708-1.329 2.215-1.772 3.455-.442 1.417-.531 1.772-.265 1.949.354.266.443.177.974-.886 2.037-3.544 4.518-5.758 8.681-7.53.62-.177.443-.885-.177-.797-.089 0-.354.09-.62.09"/></g></svg>