<svg xmlns="http://www.w3.org/2000/svg" width="806.637" height="210.728" viewBox="102.916 134.646 604.978 158.046"><g id="page1"><path fill="#e0e0e0" fill-rule="evenodd" d="M142.4 268.61c-.232.232-.093.371.698.604.465.14 1.628.28 2.604.326l1.768.046-2-.511c-1.953-.558-2.884-.652-3.07-.465m8.65 2.139c-3.115.604-4.697 1.023-6.138 1.628l-1.07.465-1.395-.326c-1.442-.279-2-.279-2.325.14-.186.186-.186.233 0 .372.279.14 1.023.372 1.906.511.326.047.558.186.512.28-.186.278 2.325.232 5.72-.094 1.256-.139 2.93-.279 3.628-.279l1.348-.046.419-1.21c.604-1.86.604-1.952.325-1.952-.186 0-1.488.232-2.93.51m20.556.325c-.744.372-.837.419-.558.558.186.047.93.14 1.674.14h1.349v-1.069h-.837c-.512 0-1.07.14-1.628.371m-39.065.558c-.232.094-1.07.28-1.86.466-.837.186-1.674.418-1.907.557-.418.187-.744.652-.744.977 0 .233 1.256.512 2.651.512 1.72.047 2.046-.14 2.372-1.489.14-.557.232-1.07.232-1.115 0-.14-.325-.094-.744.092m22.695 1.954c-1.907.418-2.93 1.116-3.116 2-.232 1.115.605 1.627 2.697 1.627 2.512 0 5.628-.744 6.79-1.628.558-.465 1.07-1.302.884-1.488-.14-.14-6.046-.65-6.65-.605-.14 0-.419.047-.605.094m11.161.511c-.744.186-1.395.697-1.534 1.256-.186.744.046.837 2.372.884 1.209 0 2.232-.047 2.278-.14.047-.046-.14-.558-.418-1.116l-.512-1.023h-.79c-.419 0-1.07.093-1.396.14m12.697.744c-.652.419-.977.93-.977 1.442v.465h4.697l-.605-.465c-.65-.465-2.557-1.72-2.604-1.72 0 0-.232.139-.511.278m16.51.791c0 .28-2.745 3.023-3.86 3.86-2.512 1.907-4.698 2.604-7.535 2.465-.93-.046-1.953-.187-2.279-.28-.558-.186-.558-.186-1.534.698-2.372 2.186-4.697 3.86-6.418 4.605-2.372 1.069-4.186 1.208-9.115.604-4.604-.512-6.279-.558-6.93-.233l-.511.28-.512-.559c-.697-.744-.697-1.394 0-2.046.512-.465 5.628-4.65 6.232-5.116.233-.185.093-.14-.837.047-.651.186-3.953.976-7.394 1.767-9.07 2.186-10.371 2.465-14.045 2.791-4.186.372-7.674-.047-14.231-1.675-4-.976-7.162-1.673-8.51-1.952-1.303-.187-7.535-.28-10.092-.14-3.86.28-4.558.325-4.837.325-.465 0-.326.279.232.373 1.489.324 3.116.557 4.14.65 3.627.233 5.534.465 10.324 1.163 5.534.79 6.697.977 8.975 1.628 7.627 2 7.534 2 10.743 1.86 2.744-.093 4.14-.325 7.627-1.209 1.954-.465 2.837-.79 4.65-1.675 2.42-1.209 3.721-1.673 6.14-2.139 1.627-.325 4.697-.697 4.836-.604 0 .047-.465.232-1.07.418-.604.186-1.86.698-2.836 1.116-2.186.977-5.348 3.07-5.023 3.256.512.371 4.186 1.953 5.209 2.186.744.232 1.674.51 2.046.651 1.442.511 3.023.604 6.883.232 1.953-.14 4.232-.326 4.976-.418 1.628-.094 3.86-.791 5.813-1.768.698-.325 1.907-.79 2.605-.976.744-.186 1.441-.372 1.534-.465.326-.186.837-1.442.837-2.14 0-.464-.093-.604-.418-.837l-.465-.232.465.093c2.14.418 3.395 1.162 4.185 2.464.14.187.28.187 1.442 0 1.953-.279 2.697-.79 4.046-2.697.28-.372 1.21-1.349 2.046-2.093 2.093-1.86 2.79-2.79 2.79-3.72 0-.372-.092-.697-.139-.697-.093 0-.186.046-.186.14m-57.436 1.627c-.93.28-1.86.605-2.092.699-.605.324-1.396.93-1.396 1.115 0 .047.28.28.605.419.884.465 3.116.651 8.464.697 3.907 0 4.744 0 5.255-.232.372-.14.651-.279.698-.373 0-.092-7.58-2.325-9.58-2.79-.14 0-.977.186-1.954.465m48.227-.371c-.232.371 1.116 1.07 2.046 1.07s.79-.187-.418-.699c-1.442-.558-1.488-.604-1.628-.371m-58.179 1.21c-.279.139-.558.37-.65.51-.14.28-.14.28.557 0 .419-.14 1.023-.418 1.302-.51l.558-.234-.65-.046c-.326 0-.838.14-1.117.28m37.716.79c-.418.232-.883.604-1.07.883l-.278.512.65.465c1.21.883 3.35 1.255 5.814.976l1.256-.093-2.651-1.627c-1.442-.838-2.697-1.582-2.79-1.582s-.512.233-.93.465m10.418.79c.093.186 1.814.744 3.07.976.976.234 5.254.513 4.51.326-1.162-.279-7.673-1.396-7.58-1.302"/><path fill="gray" fill-rule="evenodd" d="M195.65 277.353c-.14.232-1.21 1.349-2.419 2.557-1.209 1.21-2.557 2.604-3.022 3.163-.977 1.116-1.535 1.442-3.302 1.767l-1.21.233-.325-.652c-.512-.883-1.72-1.58-3.442-2-.418-.139-.418-.139-.186.28.233.326.233.512.093 1.116-.279 1.162-.697 1.721-1.395 1.86-1.162.186-2.278.559-3.488 1.163-1.953.977-4.185 1.674-5.999 1.813-8.138.745-9.906.792-11.998.14a130 130 0 0 0-2.326-.744c-.604-.186-1.953-.744-3.023-1.256l-1.953-.93.419-.325c1.953-1.535 4.743-3.024 7.255-3.953.93-.326.976-.326.465-.373-.79 0-4 .558-5.72 1.024-.884.233-2.465.837-3.86 1.535-2.605 1.208-3.488 1.534-6.046 2.186-2.977.697-4.604.93-7.302.93-2.79 0-3.255-.094-6.883-1.117-4.976-1.349-6.324-1.628-11.161-2.278-1.023-.14-2.697-.419-3.72-.56-1.024-.184-3.302-.418-5.023-.557-2.837-.185-6.511-.697-6.883-.93-.186-.139-.14.325.093.605.093.14.512.28 1.116.325.512.047 1.953.418 3.209.884 1.302.418 3.395 1.023 4.65 1.395 1.303.325 3.024.837 3.814 1.07 2.465.744 3.07.837 6.464.93l3.256.093 1.907.79c1.07.42 2.464.884 3.069.977 1.442.233 4.976.279 8.79.093 4.79-.232 7.254-.232 8.696.14.698.14 2.651.698 4.372 1.255 4.743 1.489 6.045 1.768 10.138 2.14.465.046 1.535.186 2.372.278.883.094 3.58.187 6.092.233 6.139.14 6.79 0 9.999-2.093 1.907-1.255 2.511-1.488 4.604-1.907 2.697-.51 3.209-.79 5.767-3.627 2.139-2.372 2.976-3.441 3.534-4.65.465-.977.884-2.605.744-3.117-.046-.279-.046-.232-.232.094"/><path fill="silver" fill-rule="evenodd" d="M142.819 265.82c-5.767.743-10.045 2.045-18.416 5.626-1.023.465-3.302 1.21-5.116 1.722-8.697 2.51-10.324 3.069-12.464 4.324-.604.326-1.395.884-1.813 1.256-.744.604-1.954 1.953-1.954 2.232 0 .093.605.093 4.977-.232 2.557-.14 8.79-.047 10.091.14 1.349.279 4.511.976 8.511 1.952 6.557 1.628 10.045 2.047 14.23 1.675 3.675-.326 4.977-.605 14.046-2.79 3.44-.792 6.743-1.582 7.394-1.768.93-.186 1.07-.232.837-.047-.604.466-5.72 4.65-6.232 5.116-.697.652-.697 1.302 0 2.046l.512.558.511-.279c.651-.325 2.326-.279 6.93.233 4.93.604 6.743.465 9.115-.604 1.72-.744 4.046-2.42 6.418-4.605.976-.884.976-.884 1.534-.697.326.092 1.35.233 2.233.279 1.813.093 3.209-.14 4.79-.79 1.814-.745 4.232-2.605 6-4.745l.883-.976-.651-.605c-.93-.79-2.419-1.302-5.628-1.813-3.162-.559-4.65-.93-5.86-1.582-.93-.464-2.464-1.069-3.952-1.627-.605-.186-1.349-.279-3.023-.279-2.233-.047-2.326-.047-5.348-.93-6.279-1.72-8.976-2.14-16.045-2.418-2.093-.094-4.744-.233-5.906-.326-2.046-.14-5.627-.14-6.604-.047m-.419 2.79c-.232.232-.093.371.698.604.465.14 1.628.28 2.604.326l1.768.046-2-.511c-1.953-.558-2.884-.652-3.07-.465m8.65 2.139c-3.115.604-4.697 1.023-6.138 1.628l-1.07.465-1.395-.326c-1.442-.279-2-.279-2.325.14-.186.186-.186.233 0 .372.279.14 1.023.372 1.906.511.326.047.558.186.512.28-.186.278 2.325.232 5.72-.094 1.256-.139 2.93-.279 3.628-.279l1.348-.046.419-1.21c.604-1.86.604-1.952.325-1.952-.186 0-1.488.232-2.93.51m20.556.325c-.744.372-.837.419-.558.558.186.047.93.14 1.674.14h1.349v-1.069h-.837c-.512 0-1.07.14-1.628.371m-39.065.558c-.232.094-1.07.28-1.86.466-.837.186-1.674.418-1.907.557-.418.187-.744.652-.744.977 0 .233 1.256.512 2.651.512 1.72.047 2.046-.14 2.372-1.489.14-.557.232-1.07.232-1.115 0-.14-.325-.094-.744.092m22.695 1.954c-1.907.418-2.93 1.116-3.116 2-.232 1.115.605 1.627 2.697 1.627 2.512 0 5.628-.744 6.79-1.628.558-.465 1.07-1.302.884-1.488-.14-.14-6.046-.65-6.65-.605-.14 0-.419.047-.605.094m11.161.511c-.744.186-1.395.697-1.534 1.256-.186.744.046.837 2.372.884 1.209 0 2.232-.047 2.278-.14.047-.046-.14-.558-.418-1.116l-.512-1.023h-.79c-.419 0-1.07.093-1.396.14m12.697.744c-.652.419-.977.93-.977 1.442v.465h4.697l-.605-.465c-.65-.465-2.557-1.72-2.604-1.72 0 0-.232.139-.511.278m-40.926 2.418c-.93.28-1.86.605-2.092.699-.605.324-1.396.93-1.396 1.115 0 .047.28.28.605.419.884.465 3.116.651 8.464.697 3.907 0 4.744 0 5.255-.232.372-.14.651-.279.698-.373 0-.092-7.58-2.325-9.58-2.79-.14 0-.977.186-1.954.465m48.227-.371c-.232.371 1.116 1.07 2.046 1.07s.79-.187-.418-.699c-1.442-.558-1.488-.604-1.628-.371m-58.179 1.21c-.279.139-.558.37-.65.51-.14.28-.14.28.557 0 .419-.14 1.023-.418 1.302-.51l.558-.234-.65-.046c-.326 0-.838.14-1.117.28m37.716.79c-.418.232-.883.604-1.07.883l-.278.512.65.465c1.21.883 3.35 1.255 5.814.976l1.256-.093-2.651-1.627c-1.442-.838-2.697-1.582-2.79-1.582s-.512.233-.93.465m10.418.79c.093.186 1.814.744 3.07.976.976.234 5.254.513 4.51.326-1.162-.279-7.673-1.396-7.58-1.302m-16.184 1.581c.186.093.372.093.511 0 .233-.14.186-.186-.232-.186-.465 0-.512.047-.28.186m-51.854 1.023h1.023c.232-.046.046-.092-.512-.092s-.79.046-.511.092m2.092.14c.233.047.605.047.837 0s.047-.047-.418-.047-.651 0-.419.047m25.346 4.51h1.953c.512-.046.093-.046-.976-.046-1.07 0-1.535 0-.977.047m33.298 1.86h1.023c.28-.045.047-.092-.511-.092s-.744.047-.512.093"/><path fill="#f3f3f3" fill-rule="evenodd" d="M150.402 213.861c.978.527.903 2.033-.076 2.485-1.13.452-2.108-.603-1.731-1.732.225-.753 1.054-1.13 1.807-.753m14.23.377c.603.225.753 1.054.377 1.505-.527.678-1.581.377-1.657-.451 0-.829.603-1.356 1.28-1.054m-3.463 6.098c4.367.377 7.906 1.431 10.541 3.088l.753.527-.226.527c-4.292 10.767-26.955 14.23-38.476 5.797-.451-.3-.753-.602-.753-.677 6.626-5.873 19.276-10.015 28.16-9.262m-.075 1.205c1.505.377 1.656 1.13.376 2.41l-.753.753.15.828c.076.602.076 1.054 0 1.43-.15.678-.075.753.227.904.527.301 1.43.075 2.183-.527.527-.377.602-.377.377.15-.603 1.055-2.033 1.582-3.012 1.055-.377-.151-.452-.151-.527-.076-.98 1.13-4.141 1.055-5.421-.226-.678-.677-.753-1.054-.076-.527 2.184 1.657 5.421.753 5.421-1.506-.075-1.355-.075-1.43-.903-1.731-1.205-.452-2.41-1.356-2.41-1.883 0-.753 2.862-1.43 4.368-1.054m-6.551 14.607c1.732 2.41 4.367 7.605 5.572 10.843l.301.677-.904.603c-3.764 2.41-2.484 8.96 1.807 9.487l.528.075-.151.829c-1.958 12.423-16.941 12.574-18.9.226l-.074-.452.602.376c7.83 4.292 13.101-5.873 5.421-10.616-1.205-.753-2.41-1.657-3.313-2.485l-.527-.452.301-1.807a72 72 0 0 0 .753-6.174l.076-1.356.903.076c.979.076 6.777 0 7.153-.076.226-.075.301 0 .452.226"/><path fill="#ccc" fill-rule="evenodd" d="M147.766 163.489c1.581.3 3.163 1.43 3.464 3.087.452 2.183.075 4.442-.527 6.55-1.883 5.422-5.798 9.94-7.454 15.511-.527 1.807-.527 3.69-.302 5.497-.376.15-1.807.677-.828.527 5.196-.753 10.843-1.054 15.812 1.13 4.217 1.806 7.304 5.722 9.11 9.938 1.356 3.464 3.013 6.852 4.443 10.316.904 2.334 1.883 4.894 1.13 7.379 0 .828-.527.225-.904 0-4.518-2.862-10.09-3.464-15.36-3.088-8.283.678-16.414 3.84-22.965 9.036-.527.226-.075.903-.678.301-1.957-2.033-3.764-4.216-4.743-6.852-2.56-6.023-1.581-13.101 1.882-18.522 2.184-3.615 5.346-6.476 8.96-8.584.452-.527-1.355.678-1.506-.301-3.463-4.593-6.25-10.165-6.099-16.113.151-5.045 2.636-9.94 6.702-12.951 2.786-2.033 6.324-3.54 9.863-2.861m-.376 5.12c.602.15 2.183 1.054.753.677-1.43-.602-1.054 1.28-1.13 2.184-.075 2.786-1.054 5.421-2.258 7.83-1.506 3.238-3.389 6.325-4.292 9.789-.076.602-.226 1.28-.301 1.882.3.753.677 1.43.828 2.184-1.356-1.657-2.26-3.69-2.937-5.798-1.43-4.743-1.204-10.09 1.054-14.607 1.205-2.334 3.464-4.518 6.25-4.443.678 0 1.43.076 2.033.302m27.03 3.313c2.937.602 6.024 2.033 7.606 4.743.677 1.13.677 2.71-.076 3.84-1.58 2.861-4.668 4.217-7.53 5.421-5.044 2.033-10.465 3.012-15.284 5.497-1.205.678-2.184 1.506-3.087 2.485-1.355-.301-2.71-.527-4.066-.753.075-3.84.903-7.756 2.71-11.144 2.786-5.346 8.132-9.487 14.231-10.24 1.807-.226 3.69-.15 5.497.15m-1.129 4.442c2.184.452 4.518 1.882 4.895 4.217.225.828-.452-.603-.678-.753-.377-.603-.678-.151-.979.226-1.807 1.882-3.915 3.538-6.4 4.517-3.69 1.506-7.68 2.56-11.219 4.668-1.205.678-2.033 1.883-2.485 3.238-.376.527.076-1.054.076-1.355 1.129-5.647 4.818-10.843 9.939-13.553 2.108-1.054 4.517-1.657 6.851-1.205m-21.233 35.991c2.485.828 3.539 4.066 2.334 6.25-.903 2.033-3.69 3.011-5.496 1.58-2.26-1.656-2.334-5.496-.076-7.152.904-.753 2.184-1.054 3.238-.678m14.306.678c2.109 1.28 2.26 4.442.828 6.25-.903 1.28-3.087 1.355-4.065.075-1.582-1.883-1.28-5.271.978-6.4.753-.377 1.582-.302 2.26.075m-26.353 21.534c1.732.603 3.539.904 5.346 1.205 0 2.861-.377 5.722-.828 8.508-.452.903-1.205-.978-1.582-1.355-1.129-1.807-2.108-3.69-2.785-5.723-.302.15.225 1.808.376 2.485 1.13 4.142 4.442 7.304 7.906 9.563 1.581 1.054 3.162 2.56 3.087 4.593 0 .377.15.904-.452.978-.903.603-2.108.603-3.087.076.377.527 1.506.904 2.334.904 1.13-.377.904.376.302.903-.829 1.205-2.636 1.581-3.916.828-.903-.075 2.26 1.13.603 1.054-2.937.226-5.497-1.807-7.304-3.99-3.388-3.99-4.97-9.563-3.614-14.607.527-1.958 1.355-3.915 2.635-5.497.301-.226.678 0 .979.075m17.017 2.034c3.764 3.086 7.153 6.927 8.659 11.595.677 2.41.828 5.42-.904 7.454-.527.678-1.355 1.054-2.184 1.205.528-.453.98-.98 1.28-1.581-.903.978-2.334 1.58-3.614 1.054-.451-.226-1.13-.828-1.28-1.205 1.28 0 2.41-.753 2.862-1.883-.753.678-1.808 1.507-2.937 1.054-.979-.677-.828-2.108-.678-3.086.302-1.28 1.431-2.11 2.41-2.787 1.205-.903 2.033-2.409 1.882-3.915-.376.753-.753 1.657-1.355 2.26-1.43-3.615-3.238-7.079-5.27-10.467-.98-1.656.752.076 1.129.302m-22.062 8.508c.452 4.517 2.56 8.884 5.949 11.972 1.204.527 1.355 1.731 1.505 2.936.678 3.539 3.163 6.927 6.702 8.057 2.108.753 4.442.602 6.475-.15-2.41 1.58-5.27 2.71-8.132 3.237-1.054-.302-.979-1.958-1.581-2.786-1.506-3.087-3.313-6.25-6.174-8.132-1.205-.828-2.786-1.13-4.066-.452-1.43-.15-3.087-.452-4.367.678-1.356.828-2.033 2.485-1.657 4.066-.301.451-.602 2.409-1.054 1.13-1.581-2.787-1.581-6.175-.527-9.111 1.205-3.69 3.765-6.626 5.572-10.015.376-.527.979-2.183 1.28-2.033 0 .15.075.377.075.603m-10.165 5.947c1.054.302 1.807 1.056 2.334 1.958.452-.375 1.582-1.882 2.109-1.355-2.26 3.464-3.54 7.756-2.56 11.822.15 1.129.979 2.184 1.129 3.238-1.13.225-2.183-.302-2.936-1.13-.678 0-1.356.3-2.033.076-1.807-.377-3.012-2.486-2.335-4.218.753-1.43-1.656-.527-1.957-1.731-.829-1.13-.076-2.937 1.355-3.087.527 0 1.28.15.753-.527-.979-2.033.377-4.82 2.635-5.12.527-.076 1.055-.076 1.506.074m47.587 6.1c1.205.075 2.41 1.13 2.485 2.41.15.677-.377 2.182-.151 2.258.602-.828.602-1.958.753-2.936.828 1.355.376 3.087-.15 4.517-.754 1.657-1.883 3.088-3.012 4.518-.527-.677-1.506-.828-2.26-.452-2.183.829-3.99 2.485-5.195 4.518-.677.753.226 2.786-1.43 1.958-1.43-.452-2.334-1.732-3.69-2.184-1.882-.828-3.915-1.205-5.873-1.656 3.765-1.883 7.153-5.045 8.358-9.187.452-.903.904 1.055 1.28 1.507.828 1.054.075 2.334-.075 3.539-.15.45-.226 1.505.15.527 1.054-2.335 2.033-4.82 3.916-6.702.828-.903 2.41-.828 3.087.151.602.752.602 1.656.527 2.56-.226-1.355-1.958-.754-2.033.376-.452 1.506 1.656 1.43 1.807.15.452-.827-.301 1.431.301.302.828-1.43 1.054-3.54-.376-4.668-.301-.527-2.334-.603-.98-1.13.83-.3 1.657-.602 2.56-.376m1.958 2.334c.753.903.225 2.56-.753 3.087-1.431.226-1.054-1.957-.452-2.71.301-.301.753-.678 1.205-.377m-35.54 1.28c2.184 1.28 3.614 3.539 4.97 5.723 1.58 2.936 3.087 6.099 3.388 9.487.15 1.129-.075 2.786-1.506 2.861-2.334.301-4.518-.753-6.626-1.732-3.162-1.656-6.25-3.84-8.207-6.927-.828-1.355-1.28-3.012-.602-4.517.752 1.054 2.032 1.731 3.312 2.108-1.204-1.206-2.785-2.334-2.86-4.217.15-1.882 2.183-3.54 4.065-2.786 1.506.527 2.334 1.882 3.012 3.162.15-.602-.527-2.184-1.13-3.012-.376-1.13 1.657-.376 2.184-.15m.678.904c1.13.677.226 2.635-.904 1.656-1.204-.527-.753-2.86.678-1.807l.075.075zm-4.82.828c1.13.527 2.034 2.033 1.356 3.163-.903.978-2.485.225-2.936-.83-.603-.827-.452-2.333.828-2.333.226-.075.527-.075.753 0m-2.785 5.27c1.581.753.226 3.012-1.054 1.657-1.205-.904-.15-2.71 1.054-1.656m8.81.603c2.484.979 4.367 3.237 4.894 5.798.301 1.28-.301 2.936-1.807 3.162-1.958.15-3.765-1.28-4.97-2.71-1.13-1.356-2.033-3.163-1.581-4.97.376-1.506 2.184-1.808 3.464-1.28"/><path fill="#f9b3b1" fill-rule="evenodd" d="M145.96 171.093c-.076 3.238-.528 4.82-2.335 8.584-2.56 5.27-3.463 7.605-3.765 9.638l-.075.677-.527-1.505c-3.087-9.337-.226-18.147 6.25-19.2l.527-.076zm27.407 6.4c.828.151 2.635.904 2.861 1.205.075.15-1.43 1.732-2.56 2.636-1.807 1.505-3.087 2.183-6.099 3.312-5.722 2.184-7.68 3.088-9.638 4.669l-.301.226.226-.678c3.614-8.207 9.487-12.499 15.51-11.37m.979 82.373c.602.828-.603 3.163-1.28 2.335-.377-.453-.151-1.657.451-2.259.302-.376.603-.376.829-.076m-35.088 2.109c.527.527.527 1.204 0 1.28-.527.075-1.28-.979-.979-1.507.15-.3.603-.225.979.227m31.323.075c.226.15.15.828-.075 1.28-.528.678-1.205.602-1.205-.151 0-.828.828-1.581 1.28-1.129m-35.916.904c.226.15.602.376.753.602 1.355 1.506-.075 3.087-1.581 1.732-1.43-1.28-.753-3.163.828-2.334m36.593 4.517c.151.076.377.226.528.452l.225.226-1.204 1.205c-2.033 1.958-5.196 4.366-5.873 4.366-.302 0 .3-1.505 1.054-2.559 1.732-2.485 3.99-4.066 5.27-3.69m-39.53.603c.904.677.527 1.807-.451 1.204-.377-.15-.678-.677-.678-.978 0-.527.602-.678 1.13-.226m8.584.527c2.71.828 5.27 4.216 4.97 6.55-.377 3.314-5.346 1.733-7.304-2.334-1.28-2.861-.15-4.97 2.334-4.216"/><path fill-rule="evenodd" d="M147.616 162.51c3.388.527 4.743 2.259 4.743 6.099 0 3.614-.903 6.174-4.517 12.423-3.238 5.798-4.066 7.982-4.066 11.069 0 1.807 0 1.807 1.204 1.506 1.582-.377 2.485-.452 4.292-.527h1.732l.075-1.205c.678-10.617 6.4-18.146 15.511-20.48 10.617-2.711 20.631 4.14 15.436 10.616-2.41 2.937-5.196 4.443-13.177 6.852-6.852 2.033-9.337 3.162-11.144 4.744l-.677.677.979.377c4.894 2.108 7.98 5.496 10.39 11.445.527 1.204 1.28 2.936 1.657 3.915 2.41 5.346 3.237 7.379 3.539 8.885 1.656 7.379-4.292 13.704-15.06 16.188l-1.28.301.98.753c9.185 7.68 12.197 19.727 5.27 21.46-.979.225-.979.978-.226 2.334.301.527.678 1.205.828 1.505.377.754.377.754.678.076 2.108-4.442 6.55-6.626 9.412-4.593.226.15.602.376.828.376 3.99.829 1.657 8.057-4.292 13.478-5.044 4.593-7.228 5.196-9.939 2.711-.978-.903-3.84-1.883-7.379-2.484l-1.204-.152-1.28.377c-.678.226-1.732.527-2.334.677-.678.152-1.205.226-1.205.226s.15.603.301 1.28c.452 1.732.602 3.313.452 4.142-1.054 6.174-16.942-1.43-19.05-9.036-.301-.978-.376-1.054-.828-.903-1.054.225-2.56 0-3.313-.678-.301-.225-.377-.301-1.28-.301-2.56 0-4.292-1.731-4.292-4.216v-.904l-.602-.302c-2.109-1.128-1.958-4.366.226-5.346.376-.074.527-.225.451-.3-1.13-4.066 4.217-7.379 7.38-4.519l.376.377.452-.3c.602-.377 1.43-.678 1.957-.678s.828-.377 2.635-3.539c2.109-3.765 2.711-4.97 2.937-6.25.452-2.033 1.355-4.217 2.485-6.023l.452-.753-.528-.226c-15.21-6.174-16.113-29.667-1.505-37.046l.602-.3c.075 0-.301-.452-.678-1.055-7.002-9.487-7.68-19.501-1.807-26.73 3.464-4.291 9.036-6.776 13.403-6.023m.15.979c2.937.677 3.99 2.56 3.614 6.324-.376 3.163-1.129 5.12-4.291 10.617-3.69 6.475-4.518 9.11-4.217 13.026l.075.678-.677.3c-.904.377-.828.377.753.151 12.8-1.882 20.254 1.808 24.395 12.048.829 2.033 1.205 2.86 2.711 6.25 2.635 5.797 3.162 7.83 2.485 10.616-2.485 10.014-22.137 14.984-35.314 8.885-14.833-6.777-14.23-27.333 1.054-36.293.829-.527.904-.602.151-.376-.828.226-.828.226-1.506-.753-6.024-8.057-7.379-16.038-3.915-22.815 2.86-5.797 9.562-9.713 14.682-8.658m-.376 5.12c.527.15 1.506.677 1.506.828 0 0-.301-.075-.753-.15-1.13-.227-1.054-.302-1.13 1.505-.15 3.69-.677 5.346-3.237 10.542-2.485 4.894-3.238 6.7-3.464 8.734l-.15.828.451 1.205c.603 1.355.527 1.355-.226.3-6.852-10.24-1.957-26.654 7.003-23.792m-1.43 2.484c-.076 3.238-.528 4.82-2.335 8.584-2.56 5.27-3.463 7.605-3.765 9.638l-.075.677-.527-1.505c-3.087-9.337-.226-18.147 6.25-19.2l.527-.076zm28.46.829c5.271.978 9.112 4.818 7.907 7.83-1.43 3.389-4.819 5.422-13.854 8.207-7.53 2.335-10.165 3.54-11.972 5.422l-.452.527-1.28-.226c-.753-.15-1.506-.301-1.732-.377-.226 0-.602-.075-.753-.15h-.301l.075-1.355c.678-12.876 10.918-21.987 22.363-19.878m-1.129 4.442c2.56.527 4.669 2.259 4.895 4.141l.075.452-.301-.527c-.226-.226-.452-.602-.603-.678l-.3-.3-.904.978c-2.636 2.56-4.367 3.614-8.66 5.12-7.905 2.861-9.863 3.99-10.766 6.174-.528 1.356-.603 1.356-.302-.226 1.506-8.96 9.94-16.49 16.866-15.134m.076 1.13c.828.15 2.635.903 2.861 1.204.075.15-1.43 1.732-2.56 2.636-1.807 1.505-3.087 2.183-6.099 3.312-5.722 2.184-7.68 3.088-9.638 4.669l-.301.226.226-.678c3.614-8.207 9.487-12.499 15.51-11.37m-21.309 34.861c3.916 1.43 3.69 7.38-.226 8.358-2.635.678-5.045-1.882-4.668-4.894.376-2.485 2.786-4.217 4.894-3.464m14.306.678c2.937 1.656 1.958 7.228-1.204 7.228-2.335.075-3.765-3.162-2.56-5.722.752-1.657 2.409-2.26 3.764-1.506m-15.887.828c.452.301.678.678.678 1.28 0 1.205-1.356 1.807-2.26.979-1.204-1.054.227-3.087 1.582-2.259m14.381.452c.377.226.527.828.302 1.28-.377.903-1.657.678-1.808-.377-.15-.828.829-1.43 1.506-.903m-4.291 7.228c1.957.301 2.183 1.43.602 2.71l-.377.302v1.581c0 1.506 0 1.581.226 1.732.527.376 1.581.15 2.334-.527.452-.377.452-.301.151.226-.602 1.054-1.882 1.43-3.012.903-.301-.15-.376-.15-.527 0-1.28 1.13-4.668.904-5.496-.451-.377-.603-.302-.678.075-.302 1.205 1.055 4.066 1.13 5.045.076.451-.527.602-1.13.451-2.56l-.075-.527-.602-.226c-3.614-1.13-2.635-3.54 1.205-2.937m-20.556 13.026c1.054.377 3.012.828 4.216 1.054l1.13.15v1.13c0 1.808-.753 7.455-.979 7.68-.376.452-3.162-4.367-3.915-6.701q-.678-1.807-.226.452c.678 4.142 3.238 7.605 7.755 10.616 2.56 1.657 3.54 3.012 3.54 4.745v.903l-.603.377c-.829.375-1.807.375-2.636.074-.602-.3-.451-.074.226.301.678.377 1.581.527 2.26.453.526-.15.601-.15.15.527-.98 1.505-2.56 2.032-4.066 1.28-.527-.226-.527-.226-.301 0 .15.075.527.3.828.527.828.377.677.451-.678.451-4.216 0-9.11-5.42-10.39-11.445-.904-4.14-.151-8.432 2.258-12.047.527-.828.527-.828 1.43-.527m17.017 2.034c6.626 5.42 10.09 11.97 8.884 16.79-.376 1.807-1.58 3.163-2.936 3.388l-.377.076.452-.453c.226-.225.527-.527.603-.752l.225-.376-.451.376c-1.205 1.129-3.012 1.129-4.066 0l-.377-.452.527-.15c.753-.075 1.506-.528 1.958-1.205.527-.677.527-.829 0-.3-1.205 1.204-2.861 1.128-3.162-.077-.527-1.807.075-3.538 1.656-4.518 1.657-1.054 2.56-2.559 2.56-3.99v-.452l-.226.452c-.451.979-1.054 1.882-1.13 1.808-.074-.076-.3-.679-.601-1.431-.753-1.807-2.711-5.723-3.991-7.832-1.355-2.333-1.355-2.409.452-.902m-1.582.978c2.033 3.238 3.238 5.647 4.368 8.433.753 1.882.753 1.656-.226 2.259-3.765 2.41-2.636 8.66 1.656 9.487.753.075.753 0 .452 1.431-.678 3.388-2.786 6.626-4.894 7.604-6.626 3.163-13.102-.45-14.005-7.754l-.075-.603.903.452c8.057 3.764 12.5-5.798 4.97-10.692-1.582-1.055-2.786-2.033-3.389-2.636l-.3-.3.225-1.732c.452-2.711.678-4.142.678-5.949l.075-1.732 1.13.075c1.43.152 4.743.152 6.249 0l1.205-.075zm-20.48 7.53c.452 4.893 3.313 10.165 6.927 12.724.15.151.226.302.302.98.903 7.227 6.927 11.369 13.327 9.11.527-.15-1.054.753-2.26 1.355a30.5 30.5 0 0 1-4.818 1.657c-1.43.3-1.355.377-1.807-.753-2.937-7.454-7.38-11.822-10.617-10.542-.602.226-.677.226-1.054.15-2.71-.978-5.948 1.657-5.346 4.293.075.376.075.527-.075.753-.15.15-.301.603-.377.903-.225.678-.3.678-.903-.753-1.807-3.84-1.054-8.357 2.334-13.477 1.355-2.184 2.259-3.69 3.388-5.723.452-.828.829-1.506.829-1.506.075 0 .075.302.15.829m-10.165 5.947c.753.227 1.582.83 2.033 1.507.452.603.377.603.753 0 .301-.451.828-.828 1.43-.979.377-.151.377-.151-.225.828-2.71 4.443-3.162 9.488-1.28 13.327.527 1.054.527.98-.301.98-.753 0-1.356-.226-1.958-.83l-.452-.376-.602.152c-1.807.375-3.614-.904-3.84-2.787-.075-.451 0-.828.301-2.032.075-.226 0-.226-.376-.226-1.205 0-2.033-.904-2.033-2.034s.828-1.957 2.108-1.957h.527l-.301-.678c-1.13-2.785 1.355-5.722 4.216-4.895m47.587 6.1c2.108.301 2.936 1.883 2.259 4.592-.076.302-.076.302.075.076.301-.377.678-1.581.678-2.334s.15-.753.376 0c.527 1.957-.452 4.593-2.71 7.454l-.753.98-.452-.377c-1.732-1.581-8.057 3.765-7.304 6.173.226.904-1.882.227-3.238-1.054-.903-.827-3.237-1.655-6.625-2.334l-.829-.225.753-.377c3.69-2.033 6.4-5.045 7.53-8.433.301-1.054.226-1.054 1.054.603.828 1.58.828 1.505.527 2.635-.301.978-.527 2.56-.452 2.409.075 0 .301-.527.527-1.054 2.485-5.571 4.292-7.53 6.174-6.475q1.243.677 1.13 2.485v.602l-.15-.377c-.528-1.28-2.335.151-1.883 1.43.376.904 1.43.528 1.807-.526.15-.527.226-.226.075.376-.15.527.076.226.452-.527.979-2.258.301-4.216-1.656-4.743-.302-.076-.528-.226-.452-.226.15-.301 1.957-.904 2.41-.828 0 0 .3 0 .677.075m1.958 2.334c.602.376.451 1.957-.226 2.71-.904.979-1.807.151-1.43-1.13.3-1.28 1.053-1.957 1.656-1.58m0 .376c.602.828-.603 3.163-1.28 2.335-.377-.453-.151-1.657.451-2.259.302-.376.603-.376.829-.076m-35.54.904c4.669 2.334 10.541 16.114 7.605 17.845-2.259 1.28-9.11-1.657-13.252-5.647-2.71-2.56-3.69-4.97-3.087-7.002l.15-.301.377.451a5 5 0 0 0 2.184 1.43l.752.227-1.129-1.054c-1.958-1.958-2.259-3.464-.828-5.045 1.732-1.958 4.292-1.205 5.798 1.656.3.602.527.828.451.678-.226-1.28-.527-2.184-1.13-2.861-.677-.904.603-1.13 2.11-.377m.678.904c.828.828.678 1.807-.226 1.882-.678.075-1.657-1.054-1.43-1.808.225-.677.978-.677 1.656-.074m-.226.3c.527.528.527 1.205 0 1.28-.527.076-1.28-.978-.979-1.506.15-.3.603-.225.979.227m31.323.076c.226.15.15.828-.075 1.28-.528.678-1.205.602-1.205-.151 0-.828.828-1.581 1.28-1.129m-35.916.452c1.882.828 2.184 3.614.376 3.614-2.183 0-3.237-3.464-1.129-3.614.301-.075.602 0 .753 0m0 .452c.226.15.602.376.753.602 1.355 1.506-.075 3.087-1.581 1.732-1.43-1.28-.753-3.163.828-2.334m36.593 4.517c.151.076.377.226.528.452l.225.226-1.204 1.205c-2.033 1.958-5.196 4.366-5.873 4.366-.302 0 .3-1.505 1.054-2.559 1.732-2.485 3.99-4.066 5.27-3.69m-39.379.302c.452.3.828 1.054.678 1.43-.302 1.205-2.109.527-2.26-.828-.074-.828.754-1.205 1.582-.602m-.15.3c.903.678.526 1.808-.452 1.205-.377-.15-.678-.677-.678-.978 0-.527.602-.678 1.13-.226m8.96.302c3.237 1.13 5.797 5.496 4.668 7.755-1.581 3.163-7.454-.452-8.207-4.969-.377-2.26 1.28-3.614 3.539-2.786m-.377.226c2.71.828 5.27 4.216 4.97 6.55-.377 3.314-5.346 1.733-7.304-2.334-1.28-2.861-.15-4.97 2.334-4.216"/><path fill="#e0e0e0" fill-rule="evenodd" d="M255.787 268.61c-.233.232-.094.371.697.604.465.14 1.628.28 2.604.326l1.768.046-2-.511c-1.953-.558-2.884-.652-3.07-.465m8.65 2.139c-3.117.604-4.698 1.023-6.14 1.628l-1.069.465-1.395-.326c-1.442-.279-2-.279-2.326.14-.186.186-.186.233 0 .372.28.14 1.023.372 1.907.511.326.047.558.186.512.28-.186.278 2.325.232 5.72-.094 1.256-.139 2.93-.279 3.627-.279l1.35-.046.418-1.21c.604-1.86.604-1.952.325-1.952-.186 0-1.488.232-2.93.51m20.555.325c-.744.372-.837.419-.558.558.186.047.93.14 1.674.14h1.349v-1.069h-.837c-.512 0-1.07.14-1.628.371m-39.065.558c-.232.094-1.07.28-1.86.466-.837.186-1.674.418-1.907.557-.419.187-.744.652-.744.977 0 .233 1.256.512 2.65.512 1.721.047 2.047-.14 2.373-1.489a12 12 0 0 0 .232-1.115c0-.14-.326-.094-.744.092m22.695 1.954c-1.907.418-2.93 1.116-3.116 2-.233 1.115.605 1.627 2.697 1.627 2.512 0 5.627-.744 6.79-1.628.559-.465 1.07-1.302.883-1.488-.14-.14-6.045-.65-6.65-.605-.14 0-.418.047-.604.094m11.162.511c-.744.186-1.396.697-1.535 1.256-.187.744.046.837 2.372.884 1.208 0 2.231-.047 2.278-.14.047-.046-.14-.558-.418-1.116l-.511-1.023h-.791c-.419 0-1.07.093-1.395.14m12.695.744c-.65.419-.976.93-.976 1.442v.465h4.697l-.605-.465c-.651-.465-2.558-1.72-2.604-1.72 0 0-.233.139-.512.278m16.51.791c0 .28-2.743 3.023-3.86 3.86-2.51 1.907-4.697 2.604-7.534 2.465-.93-.046-1.953-.187-2.279-.28-.557-.186-.557-.186-1.535.698-2.37 2.186-4.696 3.86-6.418 4.605-2.37 1.069-4.185 1.208-9.114.604-4.604-.512-6.279-.558-6.93-.233l-.512.28-.51-.559c-.698-.744-.698-1.394 0-2.046.51-.465 5.626-4.65 6.231-5.116.232-.185.093-.14-.837.047-.651.186-3.953.976-7.394 1.767-9.07 2.186-10.371 2.465-14.046 2.791-4.185.372-7.673-.047-14.23-1.675-4-.976-7.162-1.673-8.511-1.952-1.302-.187-7.534-.28-10.091-.14-3.86.28-4.558.325-4.837.325-.466 0-.326.279.232.373 1.488.324 3.116.557 4.14.65 3.627.233 5.534.465 10.324 1.163 5.534.79 6.697.977 8.975 1.628 7.627 2 7.535 2 10.743 1.86 2.744-.093 4.14-.325 7.627-1.209 1.954-.465 2.837-.79 4.65-1.675 2.419-1.209 3.72-1.673 6.14-2.139 1.628-.325 4.697-.697 4.836-.604 0 .047-.465.232-1.07.418s-1.86.698-2.837 1.116c-2.186.977-5.348 3.07-5.022 3.256.511.371 4.185 1.953 5.208 2.186.745.232 1.675.51 2.047.651 1.441.511 3.022.604 6.883.232 1.953-.14 4.232-.326 4.976-.418 1.627-.094 3.86-.791 5.814-1.768.697-.325 1.906-.79 2.604-.976.744-.186 1.441-.372 1.534-.465.326-.186.837-1.442.837-2.14 0-.464-.093-.604-.419-.837l-.465-.232.465.093c2.14.418 3.396 1.162 4.187 2.464.14.187.279.187 1.441 0 1.953-.279 2.697-.79 4.046-2.697.28-.372 1.209-1.349 2.046-2.093 2.093-1.86 2.791-2.79 2.791-3.72 0-.372-.094-.697-.14-.697-.093 0-.186.046-.186.14m-57.434 1.627c-.93.28-1.861.605-2.094.699-.604.324-1.394.93-1.394 1.115 0 .047.279.28.603.419.884.465 3.117.651 8.465.697 3.906 0 4.744 0 5.255-.232.373-.14.652-.279.697-.373 0-.092-7.58-2.325-9.58-2.79-.14 0-.976.186-1.952.465m48.226-.371c-.232.371 1.116 1.07 2.046 1.07s.791-.187-.418-.699c-1.442-.558-1.489-.604-1.628-.371m-58.18 1.21c-.278.139-.557.37-.65.51-.14.28-.14.28.558 0 .419-.14 1.023-.418 1.302-.51l.558-.234-.651-.046c-.325 0-.837.14-1.116.28m37.717.79c-.418.232-.883.604-1.07.883l-.278.512.651.465c1.209.883 3.349 1.255 5.813.976l1.256-.093-2.651-1.627c-1.442-.838-2.697-1.582-2.791-1.582s-.511.233-.93.465m10.417.79c.094.186 1.815.744 3.07.976.976.234 5.255.513 4.511.326-1.163-.279-7.673-1.396-7.58-1.302"/><path fill="gray" fill-rule="evenodd" d="M309.035 277.353c-.14.232-1.208 1.349-2.418 2.557-1.21 1.21-2.557 2.604-3.023 3.163-.976 1.116-1.535 1.442-3.301 1.767l-1.21.233-.325-.652c-.511-.883-1.721-1.58-3.442-2-.418-.139-.418-.139-.186.28.232.326.232.512.093 1.116-.28 1.162-.698 1.721-1.395 1.86-1.163.186-2.278.559-3.488 1.163-1.954.977-4.185 1.674-6 1.813-8.138.745-9.905.792-11.997.14a126 126 0 0 0-2.326-.744c-.604-.186-1.953-.744-3.023-1.256l-1.953-.93.418-.325c1.954-1.535 4.744-3.024 7.255-3.953.93-.326.977-.326.466-.373-.792 0-4 .558-5.721 1.024-.884.233-2.465.837-3.86 1.535-2.604 1.208-3.487 1.534-6.046 2.186-2.976.697-4.604.93-7.3.93-2.791 0-3.256-.094-6.884-1.117-4.976-1.349-6.325-1.628-11.16-2.278-1.024-.14-2.699-.419-3.722-.56-1.023-.184-3.302-.418-5.022-.557-2.837-.185-6.512-.697-6.883-.93-.187-.139-.14.325.092.605.094.14.512.28 1.117.325.511.047 1.953.418 3.21.884 1.301.418 3.393 1.023 4.65 1.395 1.302.325 3.022.837 3.812 1.07 2.466.744 3.07.837 6.465.93l3.256.093 1.907.79c1.069.42 2.465.884 3.068.977 1.443.233 4.977.279 8.79.093 4.79-.232 7.255-.232 8.697.14.697.14 2.65.698 4.371 1.255 4.745 1.489 6.047 1.768 10.138 2.14.466.046 1.536.186 2.372.278.884.094 3.582.187 6.093.233 6.139.14 6.79 0 10-2.093 1.905-1.255 2.51-1.488 4.603-1.907 2.697-.51 3.209-.79 5.766-3.627 2.14-2.372 2.977-3.441 3.535-4.65.465-.977.884-2.605.744-3.117-.047-.279-.047-.232-.233.094"/><path fill="silver" fill-rule="evenodd" d="M256.205 265.82c-5.767.743-10.045 2.045-18.417 5.626-1.023.465-3.301 1.21-5.116 1.722-8.696 2.51-10.324 3.069-12.463 4.324-.605.326-1.395.884-1.813 1.256-.744.604-1.954 1.953-1.954 2.232 0 .093.605.093 4.977-.232 2.557-.14 8.789-.047 10.09.14 1.35.279 4.512.976 8.512 1.952 6.557 1.628 10.045 2.047 14.23 1.675 3.675-.326 4.977-.605 14.046-2.79 3.44-.792 6.743-1.582 7.394-1.768.93-.186 1.07-.232.837-.047-.605.466-5.72 4.65-6.232 5.116-.697.652-.697 1.302 0 2.046l.511.558.512-.279c.651-.325 2.326-.279 6.93.233 4.929.604 6.743.465 9.114-.604 1.722-.744 4.047-2.42 6.418-4.605.978-.884.978-.884 1.535-.697.326.092 1.35.233 2.232.279 1.814.093 3.21-.14 4.791-.79 1.813-.745 4.231-2.605 5.999-4.745l.883-.976-.65-.605c-.93-.79-2.42-1.302-5.628-1.813-3.162-.559-4.65-.93-5.86-1.582-.93-.464-2.464-1.069-3.952-1.627-.605-.186-1.35-.279-3.023-.279-2.233-.047-2.325-.047-5.349-.93-6.277-1.72-8.975-2.14-16.044-2.418-2.093-.094-4.744-.233-5.907-.326-2.046-.14-5.626-.14-6.603-.047m-.418 2.79c-.233.232-.094.371.697.604.465.14 1.628.28 2.604.326l1.768.046-2-.511c-1.953-.558-2.884-.652-3.07-.465m8.65 2.139c-3.117.604-4.698 1.023-6.14 1.628l-1.069.465-1.395-.326c-1.442-.279-2-.279-2.326.14-.186.186-.186.233 0 .372.28.14 1.023.372 1.907.511.326.047.558.186.512.28-.186.278 2.325.232 5.72-.094 1.256-.139 2.93-.279 3.627-.279l1.35-.046.418-1.21c.604-1.86.604-1.952.325-1.952-.186 0-1.488.232-2.93.51m20.555.325c-.744.372-.837.419-.558.558.186.047.93.14 1.674.14h1.349v-1.069h-.837c-.512 0-1.07.14-1.628.371m-39.065.558c-.232.094-1.07.28-1.86.466-.837.186-1.674.418-1.907.557-.419.187-.744.652-.744.977 0 .233 1.256.512 2.65.512 1.721.047 2.047-.14 2.373-1.489a12 12 0 0 0 .232-1.115c0-.14-.326-.094-.744.092m22.695 1.954c-1.907.418-2.93 1.116-3.116 2-.233 1.115.605 1.627 2.697 1.627 2.512 0 5.627-.744 6.79-1.628.559-.465 1.07-1.302.883-1.488-.14-.14-6.045-.65-6.65-.605-.14 0-.418.047-.604.094m11.162.511c-.744.186-1.396.697-1.535 1.256-.187.744.046.837 2.372.884 1.208 0 2.231-.047 2.278-.14.047-.046-.14-.558-.418-1.116l-.511-1.023h-.791c-.419 0-1.07.093-1.395.14m12.695.744c-.65.419-.976.93-.976 1.442v.465h4.697l-.605-.465c-.651-.465-2.558-1.72-2.604-1.72 0 0-.233.139-.512.278m-40.924 2.418c-.93.28-1.861.605-2.094.699-.604.324-1.394.93-1.394 1.115 0 .047.279.28.603.419.884.465 3.117.651 8.465.697 3.906 0 4.744 0 5.255-.232.373-.14.652-.279.697-.373 0-.092-7.58-2.325-9.58-2.79-.14 0-.976.186-1.952.465m48.226-.371c-.232.371 1.116 1.07 2.046 1.07s.791-.187-.418-.699c-1.442-.558-1.489-.604-1.628-.371m-58.18 1.21c-.278.139-.557.37-.65.51-.14.28-.14.28.558 0 .419-.14 1.023-.418 1.302-.51l.558-.234-.651-.046c-.325 0-.837.14-1.116.28m37.717.79c-.418.232-.883.604-1.07.883l-.278.512.651.465c1.209.883 3.349 1.255 5.813.976l1.256-.093-2.651-1.627c-1.442-.838-2.697-1.582-2.791-1.582s-.511.233-.93.465m10.417.79c.094.186 1.815.744 3.07.976.976.234 5.255.513 4.511.326-1.163-.279-7.673-1.396-7.58-1.302m-16.184 1.581c.186.093.373.093.512 0 .232-.14.186-.186-.233-.186-.464 0-.511.047-.279.186m-51.853 1.023h1.023c.232-.046.047-.092-.512-.092-.558 0-.79.046-.511.092m2.092.14c.233.047.604.047.838 0 .232-.047.045-.047-.419-.047-.465 0-.651 0-.42.047m25.346 4.51h1.953c.511-.046.093-.046-.976-.046-1.07 0-1.535 0-.977.047m33.298 1.86h1.023c.279-.045.047-.092-.511-.092s-.744.047-.512.093"/><path d="M303.202 216.496V203.74h19.134v12.756z"/><path fill="#ff0" d="M305.328 214.37v-8.504h14.882v8.504z"/><path d="M310.643 274.96V137.836h21.26v137.126z"/><path fill="maroon" d="M312.769 272.835V139.96h17.008v132.874z"/><path d="M313.832 277.087V134.646h14.882v142.44z"/><path fill="maroon" d="M315.958 274.96V136.773h10.63v138.189z"/><path fill="#e0e0e0" fill-rule="evenodd" d="M369.173 268.61c-.234.232-.094.371.697.604.465.14 1.628.28 2.604.326l1.768.046-2.001-.511c-1.953-.558-2.883-.652-3.068-.465m8.65 2.139c-3.116.604-4.698 1.023-6.14 1.628l-1.069.465-1.396-.326c-1.441-.279-2-.279-2.325.14-.186.186-.186.233 0 .372.279.14 1.023.372 1.907.511.326.047.558.186.512.28-.186.278 2.325.232 5.72-.094 1.256-.139 2.93-.279 3.627-.279l1.349-.046.418-1.21c.605-1.86.605-1.952.326-1.952-.186 0-1.488.232-2.93.51m20.555.325c-.744.372-.837.419-.558.558.185.047.93.14 1.674.14h1.349v-1.069h-.837c-.512 0-1.07.14-1.628.371m-39.065.558c-.233.094-1.07.28-1.86.466-.837.186-1.674.418-1.907.557-.419.187-.745.652-.745.977 0 .233 1.257.512 2.651.512 1.721.047 2.047-.14 2.373-1.489a12 12 0 0 0 .232-1.115c0-.14-.326-.094-.744.092m22.694 1.954c-1.906.418-2.93 1.116-3.115 2-.233 1.115.605 1.627 2.697 1.627 2.512 0 5.628-.744 6.79-1.628.558-.465 1.07-1.302.883-1.488-.14-.14-6.045-.65-6.65-.605-.14 0-.418.047-.605.094m11.163.511c-.745.186-1.396.697-1.536 1.256-.186.744.047.837 2.372.884 1.21 0 2.232-.047 2.279-.14.047-.046-.14-.558-.419-1.116l-.51-1.023h-.792c-.418 0-1.07.093-1.394.14m12.695.744c-.65.419-.976.93-.976 1.442v.465h4.697l-.605-.465c-.651-.465-2.558-1.72-2.604-1.72 0 0-.233.139-.512.278m16.51.791c0 .28-2.744 3.023-3.86 3.86-2.511 1.907-4.697 2.604-7.534 2.465-.93-.046-1.953-.187-2.279-.28-.558-.186-.558-.186-1.535.698-2.371 2.186-4.696 3.86-6.418 4.605-2.371 1.069-4.185 1.208-9.115.604-4.603-.512-6.278-.558-6.929-.233l-.512.28-.51-.559c-.698-.744-.698-1.394 0-2.046.51-.465 5.626-4.65 6.23-5.116.233-.185.093-.14-.836.047-.652.186-3.953.976-7.394 1.767-9.07 2.186-10.371 2.465-14.046 2.791-4.185.372-7.673-.047-14.23-1.675-4-.976-7.162-1.673-8.511-1.952-1.303-.187-7.534-.28-10.092-.14-3.86.28-4.557.325-4.836.325-.466 0-.326.279.232.373 1.488.324 3.116.557 4.14.65 3.627.233 5.533.465 10.323 1.163 5.535.79 6.697.977 8.976 1.628 7.627 2 7.535 2 10.743 1.86 2.744-.093 4.139-.325 7.627-1.209 1.954-.465 2.837-.79 4.65-1.675 2.418-1.209 3.722-1.673 6.14-2.139 1.627-.325 4.697-.697 4.836-.604 0 .047-.465.232-1.07.418s-1.86.698-2.837 1.116c-2.185.977-5.348 3.07-5.022 3.256.51.371 4.185 1.953 5.208 2.186.744.232 1.675.51 2.047.651 1.441.511 3.022.604 6.883.232 1.952-.14 4.232-.326 4.976-.418 1.627-.094 3.86-.791 5.813-1.768.698-.325 1.907-.79 2.605-.976.744-.186 1.441-.372 1.534-.465.326-.186.837-1.442.837-2.14 0-.464-.093-.604-.419-.837l-.464-.232.464.093c2.14.418 3.395 1.162 4.187 2.464.139.187.278.187 1.441 0 1.953-.279 2.697-.79 4.046-2.697.279-.372 1.21-1.349 2.046-2.093 2.092-1.86 2.79-2.79 2.79-3.72 0-.372-.093-.697-.139-.697-.093 0-.186.046-.186.14m-57.435 1.627a34 34 0 0 0-2.093.699c-.604.324-1.395.93-1.395 1.115 0 .047.28.28.604.419.884.465 3.117.651 8.464.697 3.907 0 4.745 0 5.256-.232.372-.14.651-.279.697-.373 0-.092-7.58-2.325-9.58-2.79-.14 0-.976.186-1.953.465m48.227-.371c-.233.371 1.115 1.07 2.046 1.07s.79-.187-.419-.699c-1.441-.558-1.488-.604-1.627-.371m-58.18 1.21c-.278.139-.557.37-.65.51-.14.28-.14.28.558 0 .419-.14 1.023-.418 1.302-.51l.558-.234-.651-.046c-.325 0-.837.14-1.116.28m37.717.79c-.418.232-.883.604-1.07.883l-.279.512.652.465c1.208.883 3.348 1.255 5.813.976l1.255-.093-2.65-1.627c-1.442-.838-2.698-1.582-2.791-1.582s-.511.233-.93.465m10.417.79c.094.186 1.814.744 3.07.976.976.234 5.255.513 4.51.326-1.162-.279-7.672-1.396-7.58-1.302"/><path fill="gray" fill-rule="evenodd" d="M422.42 277.353c-.139.232-1.208 1.349-2.417 2.557-1.21 1.21-2.557 2.604-3.023 3.163-.976 1.116-1.535 1.442-3.301 1.767l-1.21.233-.326-.652c-.51-.883-1.72-1.58-3.44-2-.42-.139-.42-.139-.187.28.232.326.232.512.093 1.116-.28 1.162-.698 1.721-1.395 1.86-1.163.186-2.279.559-3.488 1.163-1.954.977-4.185 1.674-6 1.813-8.138.745-9.905.792-11.998.14-.697-.232-1.72-.558-2.325-.744s-1.954-.744-3.022-1.256l-1.954-.93.418-.325c1.954-1.535 4.743-3.024 7.255-3.953.93-.326.976-.326.465-.373-.79 0-4 .558-5.72 1.024-.884.233-2.465.837-3.86 1.535-2.604 1.208-3.488 1.534-6.046 2.186-2.976.697-4.604.93-7.3.93-2.791 0-3.257-.094-6.884-1.117-4.976-1.349-6.325-1.628-11.161-2.278-1.023-.14-2.698-.419-3.721-.56-1.023-.184-3.302-.418-5.022-.557-2.838-.185-6.512-.697-6.883-.93-.187-.139-.14.325.092.605.094.14.512.28 1.117.325.511.047 1.953.418 3.209.884 1.302.418 3.394 1.023 4.65 1.395 1.303.325 3.023.837 3.813 1.07 2.466.744 3.07.837 6.465.93l3.256.093 1.907.79c1.069.42 2.464.884 3.068.977 1.443.233 4.976.279 8.79.093 4.79-.232 7.255-.232 8.697.14.697.14 2.65.698 4.371 1.255 4.744 1.489 6.046 1.768 10.14 2.14.463.046 1.533.186 2.37.278.884.094 3.582.187 6.092.233 6.14.14 6.79 0 10-2.093 1.906-1.255 2.51-1.488 4.604-1.907 2.697-.51 3.209-.79 5.766-3.627 2.14-2.372 2.977-3.441 3.535-4.65.465-.977.883-2.605.744-3.117-.047-.279-.047-.232-.233.094"/><path fill="silver" fill-rule="evenodd" d="M369.591 265.82c-5.767.743-10.045 2.045-18.417 5.626-1.023.465-3.302 1.21-5.116 1.722-8.696 2.51-10.324 3.069-12.463 4.324-.605.326-1.395.884-1.813 1.256-.744.604-1.954 1.953-1.954 2.232 0 .093.605.093 4.976-.232 2.558-.14 8.79-.047 10.092.14 1.349.279 4.51.976 8.51 1.952 6.558 1.628 10.046 2.047 14.231 1.675 3.675-.326 4.977-.605 14.046-2.79 3.44-.792 6.742-1.582 7.394-1.768.93-.186 1.069-.232.837-.047-.605.466-5.72 4.65-6.232 5.116-.697.652-.697 1.302 0 2.046l.511.558.512-.279c.65-.325 2.326-.279 6.93.233 4.929.604 6.743.465 9.114-.604 1.722-.744 4.047-2.42 6.418-4.605.977-.884.977-.884 1.535-.697.326.092 1.35.233 2.232.279 1.814.093 3.209-.14 4.791-.79 1.813-.745 4.231-2.605 5.998-4.745l.884-.976-.65-.605c-.93-.79-2.42-1.302-5.628-1.813-3.162-.559-4.65-.93-5.86-1.582-.93-.464-2.464-1.069-3.953-1.627-.604-.186-1.348-.279-3.022-.279-2.233-.047-2.325-.047-5.35-.93-6.277-1.72-8.974-2.14-16.043-2.418-2.093-.094-4.744-.233-5.907-.326-2.046-.14-5.627-.14-6.603-.047m-.418 2.79c-.234.232-.094.371.697.604.465.14 1.628.28 2.604.326l1.768.046-2.001-.511c-1.953-.558-2.883-.652-3.068-.465m8.65 2.139c-3.116.604-4.698 1.023-6.14 1.628l-1.069.465-1.396-.326c-1.441-.279-2-.279-2.325.14-.186.186-.186.233 0 .372.279.14 1.023.372 1.907.511.326.047.558.186.512.28-.186.278 2.325.232 5.72-.094 1.256-.139 2.93-.279 3.627-.279l1.349-.046.418-1.21c.605-1.86.605-1.952.326-1.952-.186 0-1.488.232-2.93.51m20.555.325c-.744.372-.837.419-.558.558.185.047.93.14 1.674.14h1.349v-1.069h-.837c-.512 0-1.07.14-1.628.371m-39.065.558c-.233.094-1.07.28-1.86.466-.837.186-1.674.418-1.907.557-.419.187-.745.652-.745.977 0 .233 1.257.512 2.651.512 1.721.047 2.047-.14 2.373-1.489a12 12 0 0 0 .232-1.115c0-.14-.326-.094-.744.092m22.694 1.954c-1.906.418-2.93 1.116-3.115 2-.233 1.115.605 1.627 2.697 1.627 2.512 0 5.628-.744 6.79-1.628.558-.465 1.07-1.302.883-1.488-.14-.14-6.045-.65-6.65-.605-.14 0-.418.047-.605.094m11.163.511c-.745.186-1.396.697-1.536 1.256-.186.744.047.837 2.372.884 1.21 0 2.232-.047 2.279-.14.047-.046-.14-.558-.419-1.116l-.51-1.023h-.792c-.418 0-1.07.093-1.394.14m12.695.744c-.65.419-.976.93-.976 1.442v.465h4.697l-.605-.465c-.651-.465-2.558-1.72-2.604-1.72 0 0-.233.139-.512.278m-40.925 2.418a34 34 0 0 0-2.093.699c-.604.324-1.395.93-1.395 1.115 0 .047.28.28.604.419.884.465 3.117.651 8.464.697 3.907 0 4.745 0 5.256-.232.372-.14.651-.279.697-.373 0-.092-7.58-2.325-9.58-2.79-.14 0-.976.186-1.953.465m48.227-.371c-.233.371 1.115 1.07 2.046 1.07s.79-.187-.419-.699c-1.441-.558-1.488-.604-1.627-.371m-58.18 1.21c-.278.139-.557.37-.65.51-.14.28-.14.28.558 0 .419-.14 1.023-.418 1.302-.51l.558-.234-.651-.046c-.325 0-.837.14-1.116.28m37.717.79c-.418.232-.883.604-1.07.883l-.279.512.652.465c1.208.883 3.348 1.255 5.813.976l1.255-.093-2.65-1.627c-1.442-.838-2.698-1.582-2.791-1.582s-.511.233-.93.465m10.417.79c.094.186 1.814.744 3.07.976.976.234 5.255.513 4.51.326-1.162-.279-7.672-1.396-7.58-1.302m-16.184 1.581c.186.093.373.093.512 0 .232-.14.186-.186-.232-.186-.465 0-.512.047-.28.186m-51.854 1.023h1.024c.232-.046.046-.092-.513-.092-.557 0-.79.046-.51.092m2.093.14c.233.047.604.047.837 0s.046-.047-.418-.047c-.465 0-.652 0-.42.047m25.345 4.51h1.954c.511-.046.093-.046-.976-.046-1.07 0-1.535 0-.978.047m33.299 1.86h1.023c.279-.045.047-.092-.511-.092s-.745.047-.512.093"/><path fill="#e0e0e0" fill-rule="evenodd" d="M482.558 268.61c-.233.232-.093.371.698.604.465.14 1.628.28 2.604.326l1.767.046-2-.511c-1.953-.558-2.883-.652-3.069-.465m8.65 2.139c-3.115.604-4.697 1.023-6.14 1.628l-1.068.465-1.396-.326c-1.441-.279-2-.279-2.325.14-.185.186-.185.233 0 .372.279.14 1.023.372 1.907.511.326.047.558.186.512.28-.186.278 2.325.232 5.72-.094 1.256-.139 2.93-.279 3.627-.279l1.349-.046.418-1.21c.605-1.86.605-1.952.326-1.952-.186 0-1.489.232-2.93.51m20.556.325c-.744.372-.837.419-.558.558.185.047.93.14 1.674.14h1.349v-1.069h-.837c-.512 0-1.07.14-1.628.371m-39.066.558c-.232.094-1.069.28-1.86.466-.837.186-1.673.418-1.907.557-.418.187-.744.652-.744.977 0 .233 1.257.512 2.651.512 1.72.047 2.047-.14 2.372-1.489a12 12 0 0 0 .233-1.115c0-.14-.326-.094-.745.092m22.695 1.954c-1.907.418-2.93 1.116-3.115 2-.233 1.115.605 1.627 2.697 1.627 2.511 0 5.628-.744 6.79-1.628.558-.465 1.07-1.302.883-1.488-.14-.14-6.045-.65-6.65-.605-.14 0-.418.047-.605.094m11.162.511c-.744.186-1.395.697-1.535 1.256-.186.744.047.837 2.372.884 1.21 0 2.233-.047 2.279-.14.046-.046-.14-.558-.419-1.116l-.51-1.023h-.792c-.418 0-1.07.093-1.395.14m12.696.744c-.65.419-.977.93-.977 1.442v.465h4.698l-.605-.465c-.652-.465-2.558-1.72-2.604-1.72 0 0-.233.139-.512.278m16.51.791c0 .28-2.744 3.023-3.86 3.86-2.511 1.907-4.697 2.604-7.534 2.465-.93-.046-1.953-.187-2.279-.28-.558-.186-.558-.186-1.535.698-2.371 2.186-4.697 3.86-6.418 4.605-2.371 1.069-4.185 1.208-9.115.604-4.604-.512-6.278-.558-6.929-.233l-.512.28-.511-.559c-.697-.744-.697-1.394 0-2.046.511-.465 5.627-4.65 6.232-5.116.232-.185.092-.14-.837.047-.652.186-3.953.976-7.395 1.767-9.069 2.186-10.37 2.465-14.045 2.791-4.185.372-7.673-.047-14.23-1.675-4-.976-7.163-1.673-8.512-1.952-1.302-.187-7.533-.28-10.09-.14-3.861.28-4.559.325-4.838.325-.465 0-.325.279.232.373 1.489.324 3.117.557 4.14.65 3.627.233 5.534.465 10.324 1.163 5.534.79 6.697.977 8.976 1.628 7.627 2 7.534 2 10.743 1.86 2.744-.093 4.139-.325 7.627-1.209 1.953-.465 2.837-.79 4.65-1.675 2.418-1.209 3.721-1.673 6.14-2.139 1.627-.325 4.697-.697 4.836-.604 0 .047-.465.232-1.07.418s-1.86.698-2.836 1.116c-2.186.977-5.35 3.07-5.023 3.256.512.371 4.185 1.953 5.208 2.186.744.232 1.675.51 2.046.651 1.442.511 3.023.604 6.884.232 1.952-.14 4.232-.326 4.976-.418 1.627-.094 3.86-.791 5.813-1.768.697-.325 1.907-.79 2.604-.976.745-.186 1.442-.372 1.535-.465.325-.186.836-1.442.836-2.14 0-.464-.092-.604-.418-.837l-.464-.232.464.093c2.14.418 3.395 1.162 4.186 2.464.14.187.28.187 1.442 0 1.953-.279 2.697-.79 4.046-2.697.279-.372 1.21-1.349 2.046-2.093 2.092-1.86 2.79-2.79 2.79-3.72 0-.372-.093-.697-.139-.697-.094 0-.186.046-.186.14m-57.435 1.627a34 34 0 0 0-2.093.699c-.605.324-1.395.93-1.395 1.115 0 .047.28.28.604.419.884.465 3.116.651 8.464.697 3.907 0 4.744 0 5.256-.232.372-.14.651-.279.697-.373 0-.092-7.58-2.325-9.58-2.79-.14 0-.976.186-1.953.465m48.226-.371c-.232.371 1.116 1.07 2.047 1.07s.79-.187-.419-.699c-1.441-.558-1.488-.604-1.628-.371m-58.178 1.21c-.28.139-.558.37-.651.51-.14.28-.14.28.558 0 .418-.14 1.023-.418 1.302-.51l.558-.234-.652-.046c-.324 0-.837.14-1.115.28m37.716.79c-.418.232-.884.604-1.07.883l-.279.512.652.465c1.208.883 3.348 1.255 5.813.976l1.255-.093-2.65-1.627c-1.442-.838-2.698-1.582-2.791-1.582s-.511.233-.93.465m10.417.79c.094.186 1.814.744 3.07.976.976.234 5.255.513 4.51.326-1.162-.279-7.673-1.396-7.58-1.302"/><path fill="gray" fill-rule="evenodd" d="M535.808 277.353c-.14.232-1.21 1.349-2.42 2.557-1.209 1.21-2.557 2.604-3.022 3.163-.976 1.116-1.535 1.442-3.302 1.767l-1.209.233-.326-.652c-.51-.883-1.72-1.58-3.44-2-.42-.139-.42-.139-.187.28.233.326.233.512.092 1.116-.279 1.162-.697 1.721-1.394 1.86-1.163.186-2.279.559-3.488 1.163-1.954.977-4.186 1.674-6 1.813-8.138.745-9.906.792-11.998.14-.697-.232-1.72-.558-2.325-.744s-1.954-.744-3.023-1.256l-1.953-.93.418-.325c1.954-1.535 4.743-3.024 7.255-3.953.93-.326.976-.326.465-.373-.79 0-4 .558-5.72 1.024-.884.233-2.465.837-3.86 1.535-2.604 1.208-3.488 1.534-6.046 2.186-2.976.697-4.604.93-7.3.93-2.791 0-3.257-.094-6.884-1.117-4.976-1.349-6.325-1.628-11.161-2.278-1.023-.14-2.698-.419-3.721-.56-1.023-.184-3.302-.418-5.022-.557-2.838-.185-6.511-.697-6.884-.93-.186-.139-.14.325.093.605.094.14.512.28 1.117.325.51.047 1.952.418 3.209.884 1.302.418 3.394 1.023 4.65 1.395 1.302.325 3.023.837 3.814 1.07 2.465.744 3.069.837 6.464.93l3.256.093 1.906.79c1.07.42 2.465.884 3.069.977 1.443.233 4.976.279 8.79.093 4.79-.232 7.255-.232 8.696.14.698.14 2.651.698 4.372 1.255 4.744 1.489 6.046 1.768 10.139 2.14.464.046 1.534.186 2.371.278.884.094 3.582.187 6.092.233 6.14.14 6.79 0 10-2.093 1.907-1.255 2.51-1.488 4.603-1.907 2.697-.51 3.21-.79 5.767-3.627 2.14-2.372 2.977-3.441 3.535-4.65.465-.977.883-2.605.744-3.117-.047-.279-.047-.232-.232.094"/><path fill="silver" fill-rule="evenodd" d="M482.977 265.82c-5.768.743-10.046 2.045-18.417 5.626-1.023.465-3.302 1.21-5.116 1.722-8.696 2.51-10.324 3.069-12.463 4.324-.605.326-1.395.884-1.813 1.256-.745.604-1.954 1.953-1.954 2.232 0 .093.605.093 4.976-.232 2.558-.14 8.79-.047 10.091.14 1.35.279 4.511.976 8.511 1.952 6.558 1.628 10.046 2.047 14.231 1.675 3.674-.326 4.976-.605 14.045-2.79 3.442-.792 6.743-1.582 7.395-1.768.93-.186 1.069-.232.837-.047-.605.466-5.721 4.65-6.232 5.116-.697.652-.697 1.302 0 2.046l.511.558.512-.279c.65-.325 2.325-.279 6.93.233 4.929.604 6.743.465 9.114-.604 1.721-.744 4.047-2.42 6.418-4.605.977-.884.977-.884 1.535-.697.326.092 1.349.233 2.232.279 1.814.093 3.209-.14 4.79-.79 1.814-.745 4.232-2.605 6-4.745l.883-.976-.65-.605c-.931-.79-2.42-1.302-5.628-1.813-3.163-.559-4.651-.93-5.86-1.582-.93-.464-2.464-1.069-3.953-1.627-.604-.186-1.349-.279-3.022-.279-2.233-.047-2.326-.047-5.35-.93-6.277-1.72-8.975-2.14-16.043-2.418-2.093-.094-4.744-.233-5.907-.326-2.046-.14-5.627-.14-6.603-.047m-.419 2.79c-.233.232-.093.371.698.604.465.14 1.628.28 2.604.326l1.767.046-2-.511c-1.953-.558-2.883-.652-3.069-.465m8.65 2.139c-3.115.604-4.697 1.023-6.14 1.628l-1.068.465-1.396-.326c-1.441-.279-2-.279-2.325.14-.185.186-.185.233 0 .372.279.14 1.023.372 1.907.511.326.047.558.186.512.28-.186.278 2.325.232 5.72-.094 1.256-.139 2.93-.279 3.627-.279l1.349-.046.418-1.21c.605-1.86.605-1.952.326-1.952-.186 0-1.489.232-2.93.51m20.556.325c-.744.372-.837.419-.558.558.185.047.93.14 1.674.14h1.349v-1.069h-.837c-.512 0-1.07.14-1.628.371m-39.066.558c-.232.094-1.069.28-1.86.466-.837.186-1.673.418-1.907.557-.418.187-.744.652-.744.977 0 .233 1.257.512 2.651.512 1.72.047 2.047-.14 2.372-1.489a12 12 0 0 0 .233-1.115c0-.14-.326-.094-.745.092m22.695 1.954c-1.907.418-2.93 1.116-3.115 2-.233 1.115.605 1.627 2.697 1.627 2.511 0 5.628-.744 6.79-1.628.558-.465 1.07-1.302.883-1.488-.14-.14-6.045-.65-6.65-.605-.14 0-.418.047-.605.094m11.162.511c-.744.186-1.395.697-1.535 1.256-.186.744.047.837 2.372.884 1.21 0 2.233-.047 2.279-.14.046-.046-.14-.558-.419-1.116l-.51-1.023h-.792c-.418 0-1.07.093-1.395.14m12.696.744c-.65.419-.977.93-.977 1.442v.465h4.698l-.605-.465c-.652-.465-2.558-1.72-2.604-1.72 0 0-.233.139-.512.278m-40.925 2.418a34 34 0 0 0-2.093.699c-.605.324-1.395.93-1.395 1.115 0 .047.28.28.604.419.884.465 3.116.651 8.464.697 3.907 0 4.744 0 5.256-.232.372-.14.651-.279.697-.373 0-.092-7.58-2.325-9.58-2.79-.14 0-.976.186-1.953.465m48.226-.371c-.232.371 1.116 1.07 2.047 1.07s.79-.187-.419-.699c-1.441-.558-1.488-.604-1.628-.371m-58.178 1.21c-.28.139-.558.37-.651.51-.14.28-.14.28.558 0 .418-.14 1.023-.418 1.302-.51l.558-.234-.652-.046c-.324 0-.837.14-1.115.28m37.716.79c-.418.232-.884.604-1.07.883l-.279.512.652.465c1.208.883 3.348 1.255 5.813.976l1.255-.093-2.65-1.627c-1.442-.838-2.698-1.582-2.791-1.582s-.511.233-.93.465m10.417.79c.094.186 1.814.744 3.07.976.976.234 5.255.513 4.51.326-1.162-.279-7.673-1.396-7.58-1.302m-16.184 1.581c.186.093.372.093.512 0 .232-.14.186-.186-.232-.186-.466 0-.512.047-.28.186m-51.854 1.023h1.023c.232-.046.047-.092-.512-.092-.558 0-.79.046-.51.092m2.093.14c.232.047.604.047.837 0s.046-.047-.418-.047c-.466 0-.652 0-.419.047m25.345 4.51h1.954c.511-.046.093-.046-.976-.046-1.07 0-1.536 0-.978.047m33.298 1.86h1.024c.279-.045.046-.092-.512-.092s-.744.047-.512.093"/><path d="M529.974 216.496V203.74h19.134v12.756z"/><path fill="#ff0" d="M532.1 214.37v-8.504h14.882v8.504z"/><path d="M537.415 274.96V137.836h21.26v137.126z"/><path fill="maroon" d="M539.54 272.835V139.96h17.009v132.874z"/><path d="M540.604 277.087V134.646h14.882v142.44z"/><path fill="maroon" d="M542.73 274.96V136.773h10.63v138.189z"/><path fill="#e0e0e0" fill-rule="evenodd" d="M595.944 268.61c-.233.232-.094.371.698.604.465.14 1.627.28 2.604.326l1.767.046-2-.511c-1.953-.558-2.884-.652-3.069-.465m8.65 2.139c-3.116.604-4.698 1.023-6.14 1.628l-1.068.465-1.396-.326c-1.442-.279-2-.279-2.325.14-.186.186-.186.233 0 .372.279.14 1.023.372 1.907.511.325.047.557.186.512.28-.187.278 2.325.232 5.72-.094 1.255-.139 2.93-.279 3.627-.279l1.349-.046.418-1.21c.605-1.86.605-1.952.326-1.952-.187 0-1.489.232-2.93.51m20.556.325c-.745.372-.837.419-.558.558.185.047.93.14 1.673.14h1.35v-1.069h-.837c-.513 0-1.07.14-1.628.371m-39.066.558c-.232.094-1.069.28-1.86.466-.837.186-1.674.418-1.907.557-.418.187-.744.652-.744.977 0 .233 1.256.512 2.651.512 1.72.047 2.046-.14 2.372-1.489a12 12 0 0 0 .232-1.115c0-.14-.325-.094-.744.092m22.695 1.954c-1.907.418-2.93 1.116-3.115 2-.233 1.115.604 1.627 2.697 1.627 2.511 0 5.627-.744 6.79-1.628.558-.465 1.07-1.302.883-1.488-.14-.14-6.046-.65-6.65-.605-.14 0-.419.047-.605.094m11.162.511c-.744.186-1.396.697-1.535 1.256-.186.744.047.837 2.372.884 1.21 0 2.233-.047 2.278-.14.047-.046-.139-.558-.418-1.116l-.511-1.023h-.791c-.419 0-1.07.093-1.395.14m12.696.744c-.651.419-.977.93-.977 1.442v.465h4.698l-.605-.465c-.652-.465-2.558-1.72-2.604-1.72 0 0-.234.139-.512.278m16.51.791c0 .28-2.744 3.023-3.86 3.86-2.511 1.907-4.697 2.604-7.535 2.465-.93-.046-1.952-.187-2.278-.28-.558-.186-.558-.186-1.535.698-2.371 2.186-4.697 3.86-6.417 4.605-2.372 1.069-4.187 1.208-9.116.604-4.604-.512-6.279-.558-6.93-.233l-.511.28-.511-.559c-.698-.744-.698-1.394 0-2.046.51-.465 5.627-4.65 6.231-5.116.232-.185.093-.14-.837.047-.651.186-3.953.976-7.394 1.767-9.069 2.186-10.37 2.465-14.045 2.791-4.185.372-7.673-.047-14.23-1.675-4-.976-7.163-1.673-8.512-1.952-1.302-.187-7.534-.28-10.091-.14-3.86.28-4.558.325-4.837.325-.465 0-.326.279.233.373 1.488.324 3.116.557 4.139.65 3.627.233 5.534.465 10.324 1.163 5.534.79 6.697.977 8.975 1.628 7.628 2 7.535 2 10.744 1.86 2.744-.093 4.139-.325 7.627-1.209 1.953-.465 2.837-.79 4.65-1.675 2.418-1.209 3.721-1.673 6.139-2.139 1.628-.325 4.697-.697 4.837-.604 0 .047-.465.232-1.07.418s-1.86.698-2.836 1.116c-2.186.977-5.35 3.07-5.024 3.256.512.371 4.186 1.953 5.209 2.186.744.232 1.675.51 2.046.651 1.442.511 3.023.604 6.883.232 1.953-.14 4.233-.326 4.977-.418 1.627-.094 3.86-.791 5.813-1.768.697-.325 1.907-.79 2.604-.976.744-.186 1.442-.372 1.534-.465.326-.186.837-1.442.837-2.14 0-.464-.092-.604-.418-.837l-.464-.232.464.093c2.14.418 3.395 1.162 4.186 2.464.14.187.28.187 1.442 0 1.952-.279 2.697-.79 4.046-2.697.279-.372 1.209-1.349 2.046-2.093 2.092-1.86 2.79-2.79 2.79-3.72 0-.372-.093-.697-.14-.697-.093 0-.185.046-.185.14m-57.435 1.627c-.93.28-1.861.605-2.093.699-.605.324-1.395.93-1.395 1.115 0 .047.279.28.605.419.883.465 3.115.651 8.463.697 3.906 0 4.744 0 5.255-.232.373-.14.652-.279.698-.373 0-.092-7.58-2.325-9.58-2.79-.14 0-.977.186-1.953.465m48.226-.371c-.232.371 1.116 1.07 2.046 1.07s.792-.187-.418-.699c-1.442-.558-1.488-.604-1.628-.371m-58.179 1.21c-.279.139-.558.37-.65.51-.14.28-.14.28.558 0 .418-.14 1.023-.418 1.302-.51l.558-.234-.652-.046c-.325 0-.837.14-1.116.28m37.717.79c-.419.232-.884.604-1.07.883l-.279.512.652.465c1.208.883 3.348 1.255 5.813.976l1.255-.093-2.651-1.627c-1.442-.838-2.697-1.582-2.79-1.582s-.512.233-.93.465m10.417.79c.093.186 1.814.744 3.07.976.976.234 5.255.513 4.51.326-1.162-.279-7.673-1.396-7.58-1.302"/><path fill="gray" fill-rule="evenodd" d="M649.193 277.353c-.139.232-1.209 1.349-2.418 2.557-1.21 1.21-2.558 2.604-3.023 3.163-.976 1.116-1.535 1.442-3.302 1.767l-1.21.233-.325-.652c-.511-.883-1.72-1.58-3.441-2-.419-.139-.419-.139-.186.28.233.326.233.512.092 1.116-.279 1.162-.697 1.721-1.395 1.86-1.162.186-2.278.559-3.487 1.163-1.954.977-4.186 1.674-6 1.813-8.138.745-9.906.792-11.998.14-.697-.232-1.72-.558-2.325-.744s-1.954-.744-3.023-1.256l-1.954-.93.419-.325c1.954-1.535 4.743-3.024 7.255-3.953.93-.326.977-.326.465-.373-.791 0-4 .558-5.72 1.024-.884.233-2.465.837-3.86 1.535-2.604 1.208-3.488 1.534-6.046 2.186-2.976.697-4.604.93-7.301.93-2.79 0-3.256-.094-6.883-1.117-4.977-1.349-6.326-1.628-11.161-2.278-1.024-.14-2.698-.419-3.721-.56-1.024-.184-3.302-.418-5.023-.557-2.837-.185-6.51-.697-6.883-.93-.186-.139-.14.325.093.605.093.14.512.28 1.117.325.51.047 1.952.418 3.209.884 1.302.418 3.394 1.023 4.65 1.395 1.302.325 3.023.837 3.814 1.07 2.465.744 3.068.837 6.464.93l3.255.093 1.907.79c1.07.42 2.465.884 3.07.977 1.441.233 4.975.279 8.789.093 4.79-.232 7.255-.232 8.696.14.699.14 2.651.698 4.372 1.255 4.744 1.489 6.046 1.768 10.139 2.14.464.046 1.534.186 2.37.278.885.094 3.582.187 6.093.233 6.139.14 6.79 0 10-2.093 1.906-1.255 2.51-1.488 4.603-1.907 2.697-.51 3.21-.79 5.767-3.627 2.14-2.372 2.976-3.441 3.534-4.65.466-.977.884-2.605.745-3.117-.047-.279-.047-.232-.233.094"/><path fill="silver" fill-rule="evenodd" d="M596.363 265.82c-5.768.743-10.046 2.045-18.417 5.626-1.024.465-3.302 1.21-5.116 1.722-8.697 2.51-10.324 3.069-12.463 4.324-.605.326-1.395.884-1.814 1.256-.744.604-1.953 1.953-1.953 2.232 0 .093.604.093 4.976-.232 2.557-.14 8.79-.047 10.091.14 1.35.279 4.511.976 8.511 1.952 6.558 1.628 10.046 2.047 14.23 1.675 3.675-.326 4.977-.605 14.046-2.79 3.441-.792 6.743-1.582 7.394-1.768.93-.186 1.07-.232.837-.047-.604.466-5.72 4.65-6.231 5.116-.698.652-.698 1.302 0 2.046l.51.558.513-.279c.65-.325 2.325-.279 6.929.233 4.93.604 6.744.465 9.116-.604 1.72-.744 4.046-2.42 6.417-4.605.977-.884.977-.884 1.535-.697.326.092 1.349.233 2.233.279 1.813.093 3.208-.14 4.79-.79 1.813-.745 4.23-2.605 5.998-4.745l.884-.976-.65-.605c-.931-.79-2.42-1.302-5.629-1.813-3.162-.559-4.65-.93-5.859-1.582-.93-.464-2.464-1.069-3.953-1.627-.605-.186-1.349-.279-3.023-.279-2.232-.047-2.325-.047-5.349-.93-6.277-1.72-8.975-2.14-16.043-2.418-2.093-.094-4.745-.233-5.907-.326-2.047-.14-5.627-.14-6.603-.047m-.419 2.79c-.233.232-.094.371.698.604.465.14 1.627.28 2.604.326l1.767.046-2-.511c-1.953-.558-2.884-.652-3.069-.465m8.65 2.139c-3.116.604-4.698 1.023-6.14 1.628l-1.068.465-1.396-.326c-1.442-.279-2-.279-2.325.14-.186.186-.186.233 0 .372.279.14 1.023.372 1.907.511.325.047.557.186.512.28-.187.278 2.325.232 5.72-.094 1.255-.139 2.93-.279 3.627-.279l1.349-.046.418-1.21c.605-1.86.605-1.952.326-1.952-.187 0-1.489.232-2.93.51m20.556.325c-.745.372-.837.419-.558.558.185.047.93.14 1.673.14h1.35v-1.069h-.837c-.513 0-1.07.14-1.628.371m-39.066.558c-.232.094-1.069.28-1.86.466-.837.186-1.674.418-1.907.557-.418.187-.744.652-.744.977 0 .233 1.256.512 2.651.512 1.72.047 2.046-.14 2.372-1.489a12 12 0 0 0 .232-1.115c0-.14-.325-.094-.744.092m22.695 1.954c-1.907.418-2.93 1.116-3.115 2-.233 1.115.604 1.627 2.697 1.627 2.511 0 5.627-.744 6.79-1.628.558-.465 1.07-1.302.883-1.488-.14-.14-6.046-.65-6.65-.605-.14 0-.419.047-.605.094m11.162.511c-.744.186-1.396.697-1.535 1.256-.186.744.047.837 2.372.884 1.21 0 2.233-.047 2.278-.14.047-.046-.139-.558-.418-1.116l-.511-1.023h-.791c-.419 0-1.07.093-1.395.14m12.696.744c-.651.419-.977.93-.977 1.442v.465h4.698l-.605-.465c-.652-.465-2.558-1.72-2.604-1.72 0 0-.234.139-.512.278m-40.925 2.418c-.93.28-1.861.605-2.093.699-.605.324-1.395.93-1.395 1.115 0 .047.279.28.605.419.883.465 3.115.651 8.463.697 3.906 0 4.744 0 5.255-.232.373-.14.652-.279.698-.373 0-.092-7.58-2.325-9.58-2.79-.14 0-.977.186-1.953.465m48.226-.371c-.232.371 1.116 1.07 2.046 1.07s.792-.187-.418-.699c-1.442-.558-1.488-.604-1.628-.371m-58.179 1.21c-.279.139-.558.37-.65.51-.14.28-.14.28.558 0 .418-.14 1.023-.418 1.302-.51l.558-.234-.652-.046c-.325 0-.837.14-1.116.28m37.717.79c-.419.232-.884.604-1.07.883l-.279.512.652.465c1.208.883 3.348 1.255 5.813.976l1.255-.093-2.651-1.627c-1.442-.838-2.697-1.582-2.79-1.582s-.512.233-.93.465m10.417.79c.093.186 1.814.744 3.07.976.976.234 5.255.513 4.51.326-1.162-.279-7.673-1.396-7.58-1.302m-16.184 1.581c.186.093.372.093.512 0 .232-.14.186-.186-.233-.186-.465 0-.512.047-.28.186m-51.854 1.023h1.023c.232-.046.047-.092-.512-.092-.558 0-.79.046-.511.092m2.093.14c.232.047.604.047.837 0s.046-.047-.418-.047c-.466 0-.652 0-.419.047m25.345 4.51h1.954c.51-.046.092-.046-.977-.046-1.07 0-1.535 0-.977.047m33.298 1.86h1.023c.28-.045.047-.092-.51-.092s-.745.047-.513.093"/><path fill="#79ad14" d="M686.57 220.979c1.755-3.03 4.146-6.538 5.9-8.77 0-.638-.16-1.276-.16-2.073-.637-3.189-3.348-5.58-6.218-5.102s-4.783 3.508-4.145 6.856c.159 1.435 1.275 4.784 2.551 8.132.638.16 1.435.478 2.072.957"/><path fill="none" stroke="#000" stroke-linecap="round" stroke-linejoin="round" stroke-miterlimit="10.037" stroke-width="2.025" d="M686.57 220.979c1.755-3.03 4.146-6.538 5.9-8.77 0-.638-.16-1.276-.16-2.073-.637-3.189-3.348-5.58-6.218-5.102s-4.783 3.508-4.145 6.856c.159 1.435 1.275 4.784 2.551 8.132.638.16 1.435.478 2.072.957"/><path fill="#79ad14" d="M690.875 225.284c3.03-1.754 6.538-4.146 8.77-5.9.638 0 1.275.16 2.073.16 3.19.637 5.58 3.348 5.102 6.218s-3.507 4.624-6.856 4.146c-1.435-.16-4.783-1.276-8.131-2.551-.16-.638-.479-1.435-.958-2.073"/><path fill="none" stroke="#000" stroke-linecap="round" stroke-linejoin="round" stroke-miterlimit="10.037" stroke-width="2.025" d="M690.875 225.284c3.03-1.754 6.538-4.146 8.77-5.9.638 0 1.275.16 2.073.16 3.19.637 5.58 3.348 5.102 6.218s-3.507 4.624-6.856 4.146c-1.435-.16-4.783-1.276-8.131-2.551-.16-.638-.479-1.435-.958-2.073"/><path fill="#a5ce34" d="M688.962 222.892a7.1 7.1 0 0 1 1.913 2.392c3.987-2.073 8.93-5.74 10.364-7.175 2.392-2.392 2.552-5.9.48-7.973-1.914-2.073-5.582-1.754-7.974.479-1.434 1.435-4.942 6.377-7.175 10.364a7.1 7.1 0 0 1 2.392 1.913"/><path fill="none" stroke="#000" stroke-linecap="round" stroke-linejoin="round" stroke-miterlimit="10.037" stroke-width="2.025" d="M688.962 222.892a7.1 7.1 0 0 1 1.913 2.392c3.987-2.073 8.93-5.74 10.364-7.175 2.392-2.392 2.552-5.9.48-7.973-1.914-2.073-5.582-1.754-7.974.479-1.434 1.435-4.942 6.377-7.175 10.364a7.1 7.1 0 0 1 2.392 1.913"/><path fill="#f36d21" d="M688.962 222.892c-4.943-4.943-13.075-4.624-18.177.638-7.973 7.972-26.309 32.05-20.409 37.948 5.899 5.9 29.976-12.436 37.949-20.41 5.261-5.26 5.58-13.233.637-18.176"/><path fill="#ce5c1c" d="M688.962 222.892c2.073 4.624.957 10.524-3.03 14.51-7.493 7.494-29.179 23.917-36.673 21.206 0 1.276.319 2.233 1.117 2.87 5.899 5.9 29.976-12.436 37.949-20.41 5.261-5.101 5.58-13.233.637-18.176"/><path fill="none" stroke="#000" stroke-linecap="round" stroke-linejoin="round" stroke-miterlimit="10.037" stroke-width="2.025" d="M687.367 242.186s-4.783-1.595-9.566-6.378m-9.408 5.102s-3.03-2.711-6.218-7.175m18.495 14.031s-3.986-1.116-6.536-3.667m1.276 7.493s-4.146-.797-8.452-5.101m-11.002-3.349s1.755 3.349 5.262 6.219m5.899-21.845s.958 2.87 3.668 5.58m-13.872 23.44s2.232 2.551 4.943 3.667m34.441-44.646-7.335 7.335m-1.595-10.205.958 5.422m10.842 6.378-5.422-.957"/><path fill="none" stroke="#000" stroke-linecap="round" stroke-linejoin="round" stroke-miterlimit="10.037" stroke-width="2.025" d="M688.962 222.892c-4.943-4.943-13.075-4.624-18.177.638-7.973 7.972-26.309 32.05-20.409 37.948 5.899 5.9 29.976-12.436 37.949-20.41 5.261-5.26 5.58-13.233.637-18.176"/></g></svg>