<svg xmlns="http://www.w3.org/2000/svg" width="995pt" height="940" viewBox="0 -705 995 705"><g id="page1"><path fill="#cc9c6f" d="M193.758-607.617c124.551 4.531 249.344 6.801 374.172 6.801s249.621-2.27 374.172-6.801v-17.008c-124.551-4.535-249.344-6.805-374.172-6.805s-249.621 2.27-374.172 6.805z"/><path fill="none" stroke="#000" stroke-linecap="round" stroke-linejoin="round" stroke-width="2" d="M193.758-607.617c124.551 4.531 249.344 6.801 374.172 6.801s249.621-2.27 374.172-6.801v-17.008c-124.551-4.535-249.344-6.805-374.172-6.805s-249.621 2.27-374.172 6.805z"/><path fill="#fff" d="M233.441-616.121a5.67 5.67 0 1 0-11.341-.003 5.67 5.67 0 0 0 11.341.003"/><path fill="none" stroke="#000" stroke-linecap="round" stroke-linejoin="round" stroke-width="2" d="M233.441-616.121a5.67 5.67 0 1 0-11.341-.003 5.67 5.67 0 0 0 11.341.003"/><path fill="#fff" d="M913.758-616.121c0-3.133-2.539-5.672-5.672-5.672s-5.668 2.539-5.668 5.672a5.67 5.67 0 0 0 11.34 0"/><path fill="none" stroke="#000" stroke-linecap="round" stroke-linejoin="round" stroke-width="2" d="M913.758-616.121c0-3.133-2.539-5.672-5.672-5.672s-5.668 2.539-5.668 5.672a5.67 5.67 0 0 0 11.34 0"/><path fill="#cc9c6f" d="M553.758-29.352h28.344v-623.621h-28.344Z"/><path fill="none" stroke="#000" stroke-linecap="round" stroke-linejoin="round" stroke-width="2" d="M553.758-29.352h28.344v-623.621h-28.344z"/><path fill="#cc9c6f" d="M575.016-616.121a7.09 7.09 0 0 0-7.086-7.09 7.089 7.089 0 0 0 0 14.176 7.085 7.085 0 0 0 7.086-7.086"/><path fill="none" stroke="#000" stroke-linecap="round" stroke-linejoin="round" stroke-width="2" d="M575.016-616.121a7.09 7.09 0 0 0-7.086-7.09 7.089 7.089 0 0 0 0 14.176 7.085 7.085 0 0 0 7.086-7.086"/><path fill="#cc9c6f" d="M570.766-652.973a20.56 20.56 0 0 0 5.668-14.172 20.57 20.57 0 0 0-5.668-14.175h-5.672a20.55 20.55 0 0 0-5.668 14.175 20.54 20.54 0 0 0 5.668 14.172z"/><path fill="none" stroke="#000" stroke-linecap="round" stroke-linejoin="round" stroke-width="2" d="M570.766-652.973a20.56 20.56 0 0 0 5.668-14.172 20.57 20.57 0 0 0-5.668-14.175h-5.672a20.55 20.55 0 0 0-5.668 14.175 20.54 20.54 0 0 0 5.668 14.172z"/><path fill="#cc9c6f" d="M579.27-692.656c0-6.266-5.079-11.34-11.34-11.34s-11.34 5.074-11.34 11.34c0 6.261 5.078 11.336 11.34 11.336s11.34-5.075 11.34-11.336"/><path fill="none" stroke="#000" stroke-linecap="round" stroke-linejoin="round" stroke-width="2" d="M579.27-692.656c0-6.266-5.079-11.34-11.34-11.34s-11.34 5.074-11.34 11.34c0 6.261 5.078 11.336 11.34 11.336s11.34-5.075 11.34-11.336"/><path fill="#cc9c6f" d="M610.449-1.004c-13.691 0-22.676-13.621-22.676-28.348h-39.687c0 14.727-8.984 28.348-22.676 28.348z"/><path fill="none" stroke="#000" stroke-linecap="round" stroke-linejoin="round" stroke-width="2" d="M610.449-1.004c-13.691 0-22.676-13.621-22.676-28.348h-39.687c0 14.727-8.984 28.348-22.676 28.348z"/><path fill="#d3ae37" d="M993.125-369.508c0-15.656-38.07-28.347-85.039-28.347-46.965 0-85.039 12.691-85.039 28.347s38.074 28.348 85.039 28.348c46.969 0 85.039-12.692 85.039-28.348"/><path fill="none" stroke="#000" stroke-linecap="round" stroke-linejoin="round" stroke-width="2" d="M993.125-369.508c0-15.656-38.07-28.347-85.039-28.347-46.965 0-85.039 12.691-85.039 28.347s38.074 28.348 85.039 28.348c46.969 0 85.039-12.692 85.039-28.348m-85.039-226.773 80.707 217.812m-80.707-217.812L881.207-396.41m26.879-199.871L832.539-356.48m75.547-239.801v-19.84"/><path fill="#79ac14" d="M933.613-419.965c3.446-5.949 8.145-12.84 11.59-17.223 0-1.253-.312-2.507-.312-4.074-1.254-6.261-6.578-10.961-12.215-10.019-5.637.937-9.399 6.89-8.145 13.465.313 2.82 2.508 9.398 5.012 15.972 1.254.317 2.82.942 4.07 1.879"/><path fill="none" stroke="#000" stroke-linecap="round" stroke-linejoin="round" stroke-width="3.977" d="M933.613-419.965c3.446-5.949 8.145-12.84 11.59-17.223 0-1.253-.312-2.507-.312-4.074-1.254-6.261-6.578-10.961-12.215-10.019-5.637.937-9.399 6.89-8.145 13.465.313 2.82 2.508 9.398 5.012 15.972 1.254.317 2.82.942 4.07 1.879"/><path fill="#79ac14" d="M942.07-411.508c5.95-3.445 12.84-8.14 17.227-11.586 1.25 0 2.504.313 4.07.313 6.266 1.254 10.961 6.578 10.024 12.215-.942 5.636-6.891 9.082-13.469 8.14-2.817-.312-9.395-2.504-15.973-5.012-.312-1.25-.937-2.816-1.879-4.07"/><path fill="none" stroke="#000" stroke-linecap="round" stroke-linejoin="round" stroke-width="3.977" d="M942.07-411.508c5.95-3.445 12.84-8.14 17.227-11.586 1.25 0 2.504.313 4.07.313 6.266 1.254 10.961 6.578 10.024 12.215-.942 5.636-6.891 9.082-13.469 8.14-2.817-.312-9.395-2.504-15.973-5.012-.312-1.25-.937-2.816-1.879-4.07"/><path fill="#a4cd34" d="M938.313-416.203q2.35 1.876 3.757 4.695c7.828-4.07 17.539-11.273 20.36-14.094 4.695-4.695 5.008-11.586.937-15.66-3.758-4.07-10.961-3.441-15.66.942-2.816 2.816-9.707 12.527-14.094 20.355q2.819 1.412 4.7 3.762"/><path fill="none" stroke="#000" stroke-linecap="round" stroke-linejoin="round" stroke-width="3.977" d="M938.313-416.203q2.35 1.876 3.757 4.695c7.828-4.07 17.539-11.273 20.36-14.094 4.695-4.695 5.008-11.586.937-15.66-3.758-4.07-10.961-3.441-15.66.942-2.816 2.816-9.707 12.527-14.094 20.355q2.819 1.412 4.7 3.762"/><path fill="#cb0066" d="M938.313-416.203c-9.708-9.711-25.68-9.082-35.704 1.25-15.66 15.66-51.675 62.953-40.089 74.539 11.589 11.59 58.878-24.43 74.539-40.086 10.336-10.336 10.961-25.996 1.254-35.703"/><path fill="#ad0056" d="M938.313-416.203c4.07 9.082 1.878 20.668-5.95 28.5-14.722 14.719-57.316 46.976-72.035 41.652 0 2.504.625 4.387 2.192 5.637 11.589 11.59 58.878-24.43 74.539-40.086 10.336-10.023 10.961-25.996 1.254-35.703"/><path fill="none" stroke="#bf0000" stroke-linecap="round" stroke-linejoin="round" stroke-width="3.977" d="M935.18-378.309s-9.395-3.132-18.789-12.527m-18.481 10.02s-5.949-5.325-12.215-14.09m36.332 27.558s-7.832-2.191-12.839-7.203m2.503 14.719s-8.144-1.566-16.597-10.02m-21.614-6.578s3.45 6.578 10.336 12.215m11.59-42.906s1.879 5.637 7.203 10.961m-27.246 46.039s4.383 5.012 9.707 7.203"/><path fill="none" stroke="#000" stroke-linecap="round" stroke-linejoin="round" stroke-width="3.977" d="m952.719-430.609-14.406 14.406m-3.133-20.047 1.879 10.648m21.296 12.528-10.648-1.879m-9.394-1.25c-9.708-9.711-25.68-9.082-35.704 1.25-15.66 15.66-51.675 62.953-40.089 74.539 11.589 11.59 58.878-24.43 74.539-40.086 10.336-10.336 10.961-25.996 1.254-35.703"/><path fill="#bc9a16" d="M823.047-369.508c0 36.176 43.398 49.606 85.039 49.606 41.644 0 85.039-13.43 85.039-49.606 0 15.656-38.07 28.348-85.039 28.348-46.965 0-85.039-12.692-85.039-28.348"/><path fill="none" stroke="#000" stroke-linecap="round" stroke-linejoin="round" stroke-width="2" d="M823.047-369.508c0 36.176 43.398 49.606 85.039 49.606 41.644 0 85.039-13.43 85.039-49.606 0 15.656-38.07 28.348-85.039 28.348-46.965 0-85.039-12.692-85.039-28.348"/><path fill="#cc9c6f" d="M71.867-465.887c51.555 4.528 103.688 6.805 155.906 6.805 52.215 0 104.352-2.277 155.903-6.805v-17.008c-51.551-4.527-103.688-6.8-155.903-6.8-52.218 0-104.351 2.273-155.906 6.8z"/><path fill="none" stroke="#000" stroke-linecap="round" stroke-linejoin="round" stroke-width="2" d="M71.867-465.887c51.555 4.528 103.688 6.805 155.906 6.805 52.215 0 104.352-2.277 155.903-6.805v-17.008c-51.551-4.527-103.688-6.8-155.903-6.8-52.218 0-104.351 2.273-155.906 6.8z"/><path fill="#fff" d="M91.707-474.391c0-3.129-2.535-5.668-5.668-5.668s-5.668 2.539-5.668 5.668a5.668 5.668 0 1 0 11.336 0"/><path fill="none" stroke="#000" stroke-linecap="round" stroke-linejoin="round" stroke-width="2" d="M91.707-474.391c0-3.129-2.535-5.668-5.668-5.668s-5.668 2.539-5.668 5.668a5.668 5.668 0 1 0 11.336 0"/><path fill="#fff" d="M375.172-474.391c0-3.129-2.535-5.668-5.668-5.668s-5.668 2.539-5.668 5.668a5.668 5.668 0 1 0 11.336 0"/><path fill="none" stroke="#000" stroke-linecap="round" stroke-linejoin="round" stroke-width="2" d="M375.172-474.391c0-3.129-2.535-5.668-5.668-5.668s-5.668 2.539-5.668 5.668a5.668 5.668 0 1 0 11.336 0"/><path fill="#d3ae37" d="M171.078-227.773c0-15.657-38.074-28.348-85.039-28.348S1-243.43 1-227.773c0 15.652 38.074 28.343 85.04 28.343s85.038-12.691 85.038-28.343"/><path fill="none" stroke="#000" stroke-linecap="round" stroke-linejoin="round" stroke-width="2" d="M171.078-227.773c0-15.657-38.074-28.348-85.039-28.348S1-243.43 1-227.773c0 15.652 38.074 28.343 85.04 28.343s85.038-12.691 85.038-28.343M86.04-454.547l80.702 217.813M86.04-454.547 59.16-254.676m26.88-199.871L10.491-214.75M86.04-454.547v-19.844"/><path fill="#79ac14" d="M111.566-278.23c3.446-5.95 8.145-12.84 11.59-17.227 0-1.254-.312-2.504-.312-4.07-1.254-6.262-6.578-10.961-12.215-10.024-5.641.942-9.399 6.891-8.145 13.469.313 2.816 2.504 9.394 5.012 15.973 1.25.312 2.817.937 4.07 1.879"/><path fill="none" stroke="#000" stroke-linecap="round" stroke-linejoin="round" stroke-width="3.977" d="M111.566-278.23c3.446-5.95 8.145-12.84 11.59-17.227 0-1.254-.312-2.504-.312-4.07-1.254-6.262-6.578-10.961-12.215-10.024-5.641.942-9.399 6.891-8.145 13.469.313 2.816 2.504 9.394 5.012 15.973 1.25.312 2.817.937 4.07 1.879"/><path fill="#79ac14" d="M120.023-269.773c5.95-3.446 12.84-8.145 17.223-11.59 1.254 0 2.508.312 4.074.312 6.266 1.254 10.961 6.578 10.024 12.215-.942 5.637-6.891 9.082-13.469 8.145-2.82-.317-9.395-2.508-15.973-5.012-.312-1.254-.937-2.82-1.879-4.07"/><path fill="none" stroke="#000" stroke-linecap="round" stroke-linejoin="round" stroke-width="3.977" d="M120.023-269.773c5.95-3.446 12.84-8.145 17.223-11.59 1.254 0 2.508.312 4.074.312 6.266 1.254 10.961 6.578 10.024 12.215-.942 5.637-6.891 9.082-13.469 8.145-2.82-.317-9.395-2.508-15.973-5.012-.312-1.254-.937-2.82-1.879-4.07"/><path fill="#a4cd34" d="M116.266-274.473q2.35 1.881 3.757 4.7c7.829-4.075 17.54-11.278 20.356-14.094 4.699-4.699 5.012-11.59.941-15.66-3.757-4.071-10.961-3.446-15.66.937-2.816 2.82-9.707 12.531-14.094 20.36q2.819 1.41 4.7 3.757"/><path fill="none" stroke="#000" stroke-linecap="round" stroke-linejoin="round" stroke-width="3.977" d="M116.266-274.473q2.35 1.881 3.757 4.7c7.829-4.075 17.54-11.278 20.356-14.094 4.699-4.699 5.012-11.59.941-15.66-3.757-4.071-10.961-3.446-15.66.937-2.816 2.82-9.707 12.531-14.094 20.36q2.819 1.41 4.7 3.757"/><path fill="#f94616" d="M116.266-274.473c-9.711-9.707-25.684-9.082-35.704 1.254-15.66 15.66-51.675 62.949-40.09 74.539 11.59 11.586 58.88-24.429 74.54-40.09 10.336-10.335 10.961-25.996 1.254-35.703"/><path fill="#d43b13" d="M116.266-274.473c4.07 9.082 1.879 20.672-5.953 28.5-14.72 14.719-57.313 46.981-72.032 41.657 0 2.503.625 4.382 2.192 5.636 11.59 11.586 58.879-24.429 74.539-40.09 10.336-10.019 10.961-25.996 1.254-35.703"/><path fill="none" stroke="#bf0000" stroke-linecap="round" stroke-linejoin="round" stroke-width="3.977" d="M113.133-236.578s-9.395-3.133-18.79-12.527m-18.48 10.023s-5.949-5.324-12.215-14.094m36.332 27.563s-7.832-2.196-12.84-7.203m2.505 14.718s-8.145-1.566-16.598-10.023m-21.613-6.578s3.445 6.578 10.336 12.215m11.59-42.907s1.878 5.637 7.203 10.961m-27.247 46.039s4.383 5.012 9.707 7.203"/><path fill="none" stroke="#000" stroke-linecap="round" stroke-linejoin="round" stroke-width="3.977" d="m130.672-288.879-14.406 14.406m-3.133-20.043 1.879 10.649m21.297 12.527-10.649-1.879m-9.394-1.254c-9.711-9.707-25.684-9.082-35.704 1.254-15.66 15.66-51.675 62.949-40.09 74.539 11.59 11.586 58.88-24.429 74.54-40.09 10.336-10.335 10.961-25.996 1.254-35.703"/><path fill="#bc9a16" d="M1-227.773c0 36.175 43.398 49.605 85.04 49.605 41.644 0 85.038-13.43 85.038-49.605 0 15.652-38.074 28.343-85.039 28.343S1-212.121 1-227.773"/><path fill="none" stroke="#000" stroke-linecap="round" stroke-linejoin="round" stroke-width="2" d="M1-227.773c0 36.175 43.398 49.605 85.04 49.605 41.644 0 85.038-13.43 85.038-49.605 0 15.652-38.074 28.343-85.039 28.343S1-212.121 1-227.773"/><path fill="#d3ae37" d="M454.543-227.773c0-15.657-38.074-28.348-85.039-28.348s-85.039 12.691-85.039 28.348c0 15.652 38.074 28.343 85.039 28.343s85.039-12.691 85.039-28.343"/><path fill="none" stroke="#000" stroke-linecap="round" stroke-linejoin="round" stroke-width="2" d="M454.543-227.773c0-15.657-38.074-28.348-85.039-28.348s-85.039 12.691-85.039 28.348c0 15.652 38.074 28.343 85.039 28.343s85.039-12.691 85.039-28.343m-85.039-226.774 80.703 217.813m-80.703-217.813-26.879 199.871m26.879-199.871L293.957-214.75m75.547-239.797v-19.844"/><path fill="#79ac14" d="M395.031-278.23c3.446-5.95 8.145-12.84 11.59-17.227 0-1.254-.312-2.504-.312-4.07-1.254-6.262-6.579-10.961-12.215-10.024-5.641.942-9.399 6.891-8.145 13.469.313 2.816 2.504 9.394 5.012 15.973 1.254.312 2.816.937 4.07 1.879"/><path fill="none" stroke="#000" stroke-linecap="round" stroke-linejoin="round" stroke-width="3.977" d="M395.031-278.23c3.446-5.95 8.145-12.84 11.59-17.227 0-1.254-.312-2.504-.312-4.07-1.254-6.262-6.579-10.961-12.215-10.024-5.641.942-9.399 6.891-8.145 13.469.313 2.816 2.504 9.394 5.012 15.973 1.254.312 2.816.937 4.07 1.879"/><path fill="#79ac14" d="M403.488-269.773c5.95-3.446 12.84-8.145 17.227-11.59 1.25 0 2.504.312 4.07.312 6.262 1.254 10.961 6.578 10.024 12.215-.942 5.637-6.891 9.082-13.469 8.145-2.82-.317-9.395-2.508-15.973-5.012-.312-1.254-.941-2.82-1.879-4.07"/><path fill="none" stroke="#000" stroke-linecap="round" stroke-linejoin="round" stroke-width="3.977" d="M403.488-269.773c5.95-3.446 12.84-8.145 17.227-11.59 1.25 0 2.504.312 4.07.312 6.262 1.254 10.961 6.578 10.024 12.215-.942 5.637-6.891 9.082-13.469 8.145-2.82-.317-9.395-2.508-15.973-5.012-.312-1.254-.941-2.82-1.879-4.07"/><path fill="#a4cd34" d="M399.73-274.473c1.567 1.254 2.817 2.821 3.758 4.7 7.828-4.075 17.539-11.278 20.356-14.094 4.699-4.699 5.011-11.59.941-15.66-3.758-4.071-10.961-3.446-15.66.937-2.816 2.82-9.711 12.531-14.094 20.36q2.819 1.41 4.699 3.757"/><path fill="none" stroke="#000" stroke-linecap="round" stroke-linejoin="round" stroke-width="3.977" d="M399.73-274.473c1.567 1.254 2.817 2.821 3.758 4.7 7.828-4.075 17.539-11.278 20.356-14.094 4.699-4.699 5.011-11.59.941-15.66-3.758-4.071-10.961-3.446-15.66.937-2.816 2.82-9.711 12.531-14.094 20.36q2.819 1.41 4.699 3.757"/><path fill="#f94616" d="M399.73-274.473c-9.71-9.707-25.683-9.082-35.703 1.254-15.66 15.66-51.675 62.949-40.089 74.539 11.589 11.586 58.878-24.429 74.539-40.09 10.336-10.335 10.961-25.996 1.253-35.703"/><path fill="#d43b13" d="M399.73-274.473c4.071 9.082 1.879 20.672-5.953 28.5-14.718 14.719-57.312 46.981-72.031 41.657 0 2.503.625 4.382 2.192 5.636 11.589 11.586 58.878-24.429 74.539-40.09 10.336-10.019 10.961-25.996 1.253-35.703"/><path fill="none" stroke="#bf0000" stroke-linecap="round" stroke-linejoin="round" stroke-width="3.977" d="M396.598-236.578s-9.395-3.133-18.789-12.527m-18.481 10.023s-5.949-5.324-12.215-14.094m36.332 27.563s-7.832-2.196-12.843-7.203m2.507 14.718s-8.144-1.566-16.597-10.023m-21.614-6.578s3.446 6.578 10.336 12.215m11.59-42.907s1.879 5.637 7.203 10.961m-27.25 46.039s4.387 5.012 9.711 7.203"/><path fill="none" stroke="#000" stroke-linecap="round" stroke-linejoin="round" stroke-width="3.977" d="m414.137-288.879-14.407 14.406m-3.132-20.043 1.879 10.649m21.296 12.527-10.648-1.879m-9.395-1.254c-9.71-9.707-25.683-9.082-35.703 1.254-15.66 15.66-51.675 62.949-40.089 74.539 11.589 11.586 58.878-24.429 74.539-40.09 10.336-10.335 10.961-25.996 1.253-35.703"/><path fill="#bc9a16" d="M284.465-227.773c0 36.175 43.394 49.605 85.039 49.605 41.641 0 85.039-13.43 85.039-49.605 0 15.652-38.074 28.343-85.039 28.343s-85.039-12.691-85.039-28.343"/><path fill="none" stroke="#000" stroke-linecap="round" stroke-linejoin="round" stroke-width="2" d="M284.465-227.773c0 36.175 43.394 49.605 85.039 49.605 41.641 0 85.039-13.43 85.039-49.605 0 15.652-38.074 28.343-85.039 28.343s-85.039-12.691-85.039-28.343"/><path fill="#cc9c6f" d="M234.859-474.391a7.088 7.088 0 0 0-14.175 0 7.088 7.088 0 0 0 14.175 0"/><path fill="none" stroke="#000" stroke-linecap="round" stroke-linejoin="round" stroke-width="2" d="M234.859-474.391a7.088 7.088 0 0 0-14.175 0 7.088 7.088 0 0 0 14.175 0m-7.086 0v-141.73"/><path fill="#fff" d="M915.207-385.609c-2.031-2.032-2.477-4.571-1.488-8.246.535-2.09.027-3.676-1.047-4.75-1.074-1.075-4.449-3.079-9.918 2.39-3.914 3.914-3.645 7.469-1.856 9.262 1.047 1.047 2.153.418 2.508.062.449-.449.84-1.554-.027-2.422-.477-.476-.777-.48-1.043-.507-.18-1.02.148-2.66 2.148-4.66 3.141-3.137 5.258-3.168 6.246-2.184.836.836.536 2.031.418 2.449-1.793 6.871.594 9.442 2.118 10.969 1.074 1.074 1.492 1.492 2.57.418 1.074-1.078.566-1.586-.09-2.242zm5.824 5.289c-.746-.746-1.941-.746-2.687 0s-.75 1.941 0 2.687c.746.75 1.941.75 2.687 0a1.893 1.893 0 0 0 0-2.687M93.207-243.809c-2.031-2.031-2.476-4.57-1.488-8.246.535-2.09.027-3.675-1.047-4.75-1.074-1.074-4.45-3.078-9.918 2.391-3.914 3.914-3.645 7.469-1.856 9.262 1.047 1.047 2.153.418 2.508.058.45-.445.84-1.554-.027-2.418-.477-.48-.777-.48-1.043-.508-.18-1.019.148-2.66 2.148-4.66 3.141-3.14 5.258-3.168 6.247-2.183.835.836.535 2.031.417 2.449-1.792 6.871.594 9.441 2.118 10.969 1.074 1.074 1.492 1.492 2.57.414 1.074-1.074.566-1.582-.09-2.239zm5.824 5.289a1.893 1.893 0 0 0-2.687 0 1.89 1.89 0 0 0 0 2.688 1.89 1.89 0 0 0 2.687 0 1.894 1.894 0 0 0 0-2.688m277.578-5.289c-2.031-2.031-2.48-4.57-1.492-8.246.539-2.09.031-3.675-1.047-4.75-1.074-1.074-4.449-3.078-9.914 2.391-3.914 3.914-3.648 7.469-1.855 9.262 1.043 1.047 2.148.418 2.508.058.449-.445.836-1.554-.028-2.418-.48-.48-.777-.48-1.047-.508-.179-1.019.149-2.66 2.153-4.66 3.136-3.14 5.258-3.168 6.242-2.183.836.836.539 2.031.418 2.449-1.793 6.871.594 9.441 2.117 10.969 1.078 1.074 1.492 1.492 2.57.414 1.075-1.074.571-1.582-.089-2.239zm5.821 5.289a1.894 1.894 0 0 0-2.688 0 1.894 1.894 0 0 0 0 2.688 1.89 1.89 0 0 0 2.688 0c.75-.746.75-1.941 0-2.688"/></g></svg>