<svg xmlns="http://www.w3.org/2000/svg" width="284pt" height="284pt" viewBox="0 -284 284 284"><g id="page1"><path fill="#ccc" d="M141.73-177.109h35.372v-35.368H141.73Zm70.743 0h35.371v-35.368h-35.371Zm-106.11 35.371h35.367v-35.371h-35.367Zm35.367 0h35.372v-35.371H141.73Zm35.372 0h35.371v-35.371h-35.371Zm35.371 0h35.371v-35.371h-35.371Z"/><path fill="none" stroke="#000" stroke-linecap="round" stroke-linejoin="round" stroke-width=".5" d="M.25-.254v-282.965M.25-.254h282.965m-247.594 0v-282.965M.25-35.625h282.965M70.992-.254v-282.965M.25-70.996h282.965M106.363-.254v-282.965M.25-106.367h282.965M141.73-.254v-282.965M.25-141.738h282.965M177.102-.254v-282.965M.25-177.109h282.965M212.473-.254v-282.965M.25-212.477h282.965M247.844-.254v-282.965M.25-247.848h282.965m0 247.594v-282.965m-282.965 0h282.965"/><path d="M12.52-269.297a4.5 4.5 0 0 0 1.335.227c1.696 0 2.778-1.246 2.778-1.457 0-.059-.031-.133-.121-.133-.032 0-.063 0-.196.058-.84.36-1.562.407-1.949.407-.992 0-1.695-.301-1.984-.422-.102-.043-.133-.043-.149-.043-.117 0-.117.09-.117.328v4.457c0 .27 0 .359.18.359.074 0 .086-.015.238-.195a2.27 2.27 0 0 1 1.875-.977c.793 0 1.184.739 1.305.993.254.586.27 1.32.27 1.89 0 .571 0 1.426-.419 2.102-.332.539-.918.914-1.574.914a2.32 2.32 0 0 1-2.238-1.774.7.7 0 0 0 .242.047c.254 0 .66-.148.66-.66 0-.418-.285-.66-.66-.66-.27 0-.66.137-.66.719 0 1.277 1.02 2.734 2.684 2.734 1.695 0 3.18-1.426 3.18-3.332 0-1.785-1.2-3.269-2.774-3.269-.856 0-1.516.375-1.906.793zm10.87 4.231c0 3.543-1.574 4.277-2.476 4.277-.36 0-1.152-.047-1.531-.57h.094c.101.031.644-.063.644-.618 0-.328-.226-.613-.617-.613-.387 0-.629.254-.629.645 0 .929.75 1.562 2.055 1.562 1.875 0 3.691-1.996 3.691-5.254 0-4.035-1.68-5.039-3-5.039-1.652 0-3.105 1.379-3.105 3.36s1.394 3.332 2.894 3.332c1.11 0 1.68-.813 1.98-1.579zm-1.921.781c-.946 0-1.348-.766-1.485-1.051-.238-.57-.238-1.289-.238-1.965 0-.84 0-1.558.39-2.176.27-.406.677-.839 1.485-.839.856 0 1.29.75 1.442 1.097.296.735.296 2.008.296 2.235 0 1.257-.57 2.699-1.89 2.699m26.375-1.637c0-3.793 1.847-4.394 2.656-4.394.54 0 1.082.164 1.367.617-.18 0-.75 0-.75.613 0 .328.223.617.614.617.374 0 .628-.226.628-.664 0-.777-.57-1.543-1.875-1.543-1.89 0-3.867 1.934-3.867 5.235 0 4.125 1.797 5.058 3.074 5.058 1.633 0 3.028-1.426 3.028-3.379 0-1.992-1.395-3.328-2.895-3.328-1.332 0-1.828 1.152-1.98 1.574zm1.847 5.133c-.945 0-1.394-.84-1.53-1.156-.138-.391-.286-1.125-.286-2.176 0-1.184.54-2.668 1.89-2.668.825 0 1.258.555 1.485 1.062.242.555.242 1.305.242 1.954 0 .761 0 1.437-.289 2.007-.375.719-.914.977-1.512.977m6.372-5.297c-.258.016-.317.031-.317.164 0 .152.074.152.344.152h.691c1.274 0 1.844 1.051 1.844 2.489 0 1.965-1.02 2.492-1.754 2.492-.723 0-1.95-.344-2.387-1.336.48.074.914-.195.914-.734 0-.438-.312-.735-.734-.735-.36 0-.75.207-.75.778 0 1.336 1.336 2.433 3 2.433 1.785 0 3.105-1.367 3.105-2.883 0-1.379-1.109-2.461-2.55-2.714 1.304-.375 2.148-1.469 2.148-2.641 0-1.184-1.23-2.055-2.687-2.055-1.5 0-2.61.914-2.61 2.012 0 .598.465.719.688.719.316 0 .68-.227.68-.676 0-.481-.364-.692-.692-.692-.09 0-.121 0-.168.016.57-1.019 1.984-1.019 2.059-1.019.492 0 1.468.226 1.468 1.695 0 .285-.042 1.125-.48 1.769-.45.661-.96.707-1.363.719zm27.156-3.211a4.5 4.5 0 0 0 1.336.227c1.695 0 2.777-1.246 2.777-1.457 0-.059-.031-.133-.121-.133-.031 0-.063 0-.195.058a4.95 4.95 0 0 1-1.95.407c-.992 0-1.695-.301-1.98-.422-.105-.043-.137-.043-.152-.043-.118 0-.118.09-.118.328v4.457c0 .27 0 .359.18.359.074 0 .09-.015.238-.195a2.27 2.27 0 0 1 1.875-.977c.797 0 1.188.739 1.305.993.258.586.273 1.32.273 1.89 0 .571 0 1.426-.421 2.102-.329.539-.914.914-1.575.914a2.324 2.324 0 0 1-2.238-1.774.7.7 0 0 0 .242.047c.254 0 .66-.148.66-.66 0-.418-.285-.66-.66-.66-.27 0-.66.137-.66.719 0 1.277 1.02 2.734 2.684 2.734 1.695 0 3.18-1.426 3.18-3.332 0-1.785-1.2-3.269-2.774-3.269-.856 0-1.516.375-1.906.793zm9.953 3.18c.75-.403 1.844-1.094 1.844-2.352 0-1.308-1.262-2.207-2.641-2.207-1.484 0-2.656 1.094-2.656 2.461 0 .508.152 1.02.57 1.527.164.196.18.211 1.23.946-1.453.676-2.203 1.679-2.203 2.777 0 1.59 1.512 2.582 3.043 2.582 1.664 0 3.063-1.234 3.063-2.808 0-1.528-1.082-2.204-2.25-2.926m-2.043-1.348c-.192-.137-.793-.527-.793-1.262 0-.972 1.02-1.589 2.023-1.589 1.082 0 2.04.781 2.04 1.859 0 .918-.657 1.652-1.528 2.133zm.707 1.934 1.812 1.187c.391.254 1.083.719 1.083 1.633 0 1.141-1.157 1.922-2.356 1.922-1.273 0-2.371-.93-2.371-2.176 0-1.172.855-2.113 1.832-2.566m26.711-.391c0-3.793 1.844-4.394 2.652-4.394.543 0 1.082.164 1.367.617-.179 0-.75 0-.75.613 0 .328.223.617.614.617.375 0 .633-.226.633-.664 0-.777-.571-1.543-1.875-1.543-1.891 0-3.872 1.934-3.872 5.235 0 4.125 1.801 5.058 3.075 5.058 1.632 0 3.031-1.426 3.031-3.379 0-1.992-1.399-3.328-2.899-3.328-1.332 0-1.828 1.152-1.976 1.574zm1.844 5.133c-.946 0-1.395-.84-1.532-1.156-.132-.391-.285-1.125-.285-2.176 0-1.184.543-2.668 1.891-2.668.824 0 1.262.555 1.484 1.062.242.555.242 1.305.242 1.954 0 .761 0 1.437-.285 2.007-.375.719-.914.977-1.515.977m10.211-2.43h-.332c-.043.254-.165 1.078-.313 1.321-.105.132-.961.132-1.41.132h-2.777c.406-.343 1.32-1.304 1.71-1.664 2.282-2.101 3.122-2.883 3.122-4.367 0-1.723-1.368-2.879-3.106-2.879-1.742 0-2.762 1.485-2.762 2.778 0 .761.661.761.707.761.313 0 .704-.222.704-.703 0-.422-.286-.707-.704-.707-.136 0-.168 0-.211.016.286-1.02 1.094-1.711 2.071-1.711 1.273 0 2.054 1.066 2.054 2.445 0 1.277-.734 2.387-1.589 3.348l-3.032 3.39v.36h5.477zm23.343-2.703c0-3.793 1.844-4.394 2.657-4.394.539 0 1.078.164 1.363.617-.18 0-.75 0-.75.613 0 .328.226.617.617.617.375 0 .629-.226.629-.664 0-.777-.57-1.543-1.875-1.543-1.891 0-3.871 1.934-3.871 5.235 0 4.125 1.801 5.058 3.074 5.058 1.637 0 3.031-1.426 3.031-3.379 0-1.992-1.394-3.328-2.894-3.328-1.336 0-1.832 1.152-1.981 1.574zm1.844 5.133c-.945 0-1.394-.84-1.527-1.156-.137-.391-.285-1.125-.285-2.176 0-1.184.539-2.668 1.89-2.668.824 0 1.258.555 1.485 1.062.238.555.238 1.305.238 1.954 0 .761 0 1.437-.285 2.007-.375.719-.914.977-1.516.977m9.027-9.676c0-.289 0-.363-.211-.363-.121 0-.164 0-.285.183l-4.515 7.004v.438h3.945v1.363c0 .555-.031.707-1.125.707h-.301v.434c.348-.031 1.531-.031 1.949-.031.422 0 1.622 0 1.969.031v-.434h-.301c-1.082 0-1.125-.152-1.125-.707v-1.363h1.516v-.438h-1.516zm-.992 1.168v5.656h-3.644zm25.422 3.375c0-3.793 1.844-4.394 2.652-4.394.543 0 1.082.164 1.368.617-.18 0-.75 0-.75.613 0 .328.226.617.617.617.375 0 .629-.226.629-.664 0-.777-.571-1.543-1.875-1.543-1.891 0-3.871 1.934-3.871 5.235 0 4.125 1.8 5.058 3.074 5.058 1.637 0 3.031-1.426 3.031-3.379 0-1.992-1.394-3.328-2.894-3.328-1.336 0-1.832 1.152-1.981 1.574zm1.844 5.133c-.945 0-1.395-.84-1.527-1.156-.137-.391-.29-1.125-.29-2.176 0-1.184.543-2.668 1.891-2.668.828 0 1.262.555 1.484 1.062.243.555.243 1.305.243 1.954 0 .761 0 1.437-.286 2.007-.375.719-.914.977-1.515.977m8.031-9.527c0-.344 0-.36-.301-.36-.359.406-1.109.961-2.656.961v.434c.344 0 1.098 0 1.922-.391v7.817c0 .539-.047.722-1.367.722h-.465v.434c.406-.031 1.863-.031 2.355-.031.496 0 1.938 0 2.34.031v-.434h-.465c-1.32 0-1.363-.183-1.363-.722zm25.524 4.394c0-3.793 1.847-4.394 2.656-4.394.539 0 1.082.164 1.363.617-.18 0-.75 0-.75.613 0 .328.227.617.617.617.375 0 .629-.226.629-.664 0-.777-.57-1.543-1.875-1.543-1.89 0-3.871 1.934-3.871 5.235 0 4.125 1.801 5.058 3.078 5.058 1.633 0 3.028-1.426 3.028-3.379 0-1.992-1.395-3.328-2.895-3.328-1.336 0-1.828 1.152-1.98 1.574zm1.847 5.133c-.945 0-1.398-.84-1.531-1.156-.137-.391-.285-1.125-.285-2.176 0-1.184.539-2.668 1.89-2.668.825 0 1.258.555 1.485 1.062.238.555.238 1.305.238 1.954 0 .761 0 1.437-.285 2.007-.375.719-.914.977-1.512.977m10.43-4.711c0-1.246-.078-2.461-.617-3.602-.614-1.242-1.696-1.574-2.43-1.574-.871 0-1.934.434-2.492 1.68-.418.945-.567 1.875-.567 3.496 0 1.453.106 2.551.645 3.617.586 1.137 1.617 1.5 2.398 1.5 1.305 0 2.055-.781 2.493-1.652.539-1.125.57-2.594.57-3.465m-3.063 4.816c-.48 0-1.453-.269-1.738-1.906-.168-.902-.168-2.039-.168-3.09 0-1.23 0-2.34.242-3.226.254-1.004 1.02-1.473 1.664-1.473.571 0 1.442.348 1.727 1.637.195.855.195 2.043.195 3.062 0 1.004 0 2.145-.164 3.059-.289 1.652-1.23 1.937-1.758 1.937m26.262-8.613a4.4 4.4 0 0 0 1.332.227c1.695 0 2.777-1.246 2.777-1.457 0-.059-.031-.133-.121-.133-.027 0-.058 0-.195.058-.84.36-1.559.407-1.949.407-.988 0-1.695-.301-1.981-.422-.105-.043-.132-.043-.148-.043-.121 0-.121.09-.121.328v4.457c0 .27 0 .359.18.359.074 0 .089-.015.242-.195a2.27 2.27 0 0 1 1.875-.977c.793 0 1.183.739 1.304.993.254.586.27 1.32.27 1.89 0 .571 0 1.426-.422 2.102-.328.539-.914.914-1.574.914a2.32 2.32 0 0 1-2.235-1.774.6.6 0 0 0 .239.047c.258 0 .66-.148.66-.66 0-.418-.285-.66-.66-.66-.27 0-.66.137-.66.719 0 1.277 1.019 2.734 2.687 2.734 1.695 0 3.18-1.426 3.18-3.332 0-1.785-1.199-3.269-2.778-3.269a2.6 2.6 0 0 0-1.902.793zm11.981 6.078h-.332c-.043.254-.165 1.078-.313 1.321-.105.132-.961.132-1.41.132h-2.777c.406-.343 1.32-1.304 1.71-1.664 2.282-2.101 3.122-2.883 3.122-4.367 0-1.723-1.368-2.879-3.106-2.879-1.742 0-2.762 1.485-2.762 2.778 0 .761.661.761.707.761.313 0 .704-.222.704-.703 0-.422-.286-.707-.704-.707-.136 0-.168 0-.211.016.286-1.02 1.094-1.711 2.071-1.711 1.273 0 2.054 1.066 2.054 2.445 0 1.277-.734 2.387-1.589 3.348l-3.032 3.39v.36h5.477zM12.52-233.895a4.5 4.5 0 0 0 1.335.223c1.696 0 2.778-1.242 2.778-1.457 0-.059-.031-.133-.121-.133-.032 0-.063 0-.196.059a4.9 4.9 0 0 1-1.949.406c-.992 0-1.695-.297-1.984-.418-.102-.047-.133-.047-.149-.047-.117 0-.117.09-.117.332v4.453c0 .274 0 .36.18.36.074 0 .086-.012.238-.196a2.26 2.26 0 0 1 1.875-.972c.793 0 1.184.734 1.305.988.254.586.27 1.32.27 1.891 0 .57 0 1.426-.419 2.101-.332.539-.918.914-1.574.914a2.32 2.32 0 0 1-2.238-1.769.7.7 0 0 0 .242.043c.254 0 .66-.149.66-.656 0-.422-.285-.665-.66-.665-.27 0-.66.137-.66.723 0 1.274 1.02 2.731 2.684 2.731 1.695 0 3.18-1.426 3.18-3.332 0-1.786-1.2-3.27-2.774-3.27-.856 0-1.516.375-1.906.797zm10.796-1.171c0-.286 0-.36-.21-.36-.122 0-.165 0-.286.18l-4.515 7.004v.437h3.945v1.364c0 .558-.031.707-1.125.707h-.3v.433c.347-.027 1.53-.027 1.948-.027.422 0 1.622 0 1.97.027v-.433h-.302c-1.082 0-1.125-.149-1.125-.707v-1.364h1.516v-.437h-1.516zm-.992 1.171v5.653H18.68zm30.278 6.075h-.332c-.043.254-.165 1.078-.313 1.32-.105.133-.96.133-1.41.133H47.77c.406-.344 1.32-1.305 1.71-1.664 2.282-2.098 3.122-2.879 3.122-4.364 0-1.726-1.368-2.882-3.106-2.882-1.742 0-2.762 1.488-2.762 2.777 0 .766.66.766.707.766.313 0 .703-.227.703-.707 0-.418-.285-.704-.703-.704a.8.8 0 0 0-.21.012c.285-1.015 1.093-1.707 2.07-1.707 1.273 0 2.054 1.067 2.054 2.445 0 1.274-.734 2.383-1.59 3.344l-3.03 3.391v.359h5.476zm7.418-2.282c0-1.242-.075-2.461-.614-3.597-.617-1.246-1.695-1.578-2.43-1.578-.87 0-1.937.437-2.492 1.683-.418.946-.57 1.875-.57 3.492 0 1.457.105 2.551.645 3.618a2.67 2.67 0 0 0 2.402 1.5c1.305 0 2.055-.782 2.488-1.649.543-1.129.57-2.597.57-3.469m-3.06 4.817c-.48 0-1.456-.27-1.741-1.906-.164-.899-.164-2.039-.164-3.09 0-1.231 0-2.34.242-3.227.254-1.004 1.02-1.469 1.664-1.469.57 0 1.437.344 1.727 1.637.195.856.195 2.039.195 3.059 0 1.008 0 2.144-.168 3.062-.285 1.649-1.23 1.934-1.754 1.934m30.938-2.535h-.328c-.047.254-.164 1.078-.312 1.32-.11.133-.961.133-1.414.133H83.07c.407-.344 1.32-1.305 1.711-1.664 2.281-2.098 3.117-2.879 3.117-4.364 0-1.726-1.363-2.882-3.101-2.882-1.742 0-2.762 1.488-2.762 2.777 0 .766.66.766.707.766.313 0 .703-.227.703-.707 0-.418-.285-.704-.703-.704a.8.8 0 0 0-.21.012c.284-1.015 1.093-1.707 2.07-1.707 1.273 0 2.054 1.067 2.054 2.445 0 1.274-.734 2.383-1.59 3.344l-3.03 3.391v.359h5.476zm2.723-6.075a4.5 4.5 0 0 0 1.332.223c1.695 0 2.778-1.242 2.778-1.457 0-.059-.032-.133-.122-.133-.027 0-.058 0-.195.059a4.9 4.9 0 0 1-1.95.406 4.9 4.9 0 0 1-1.98-.418c-.105-.047-.132-.047-.148-.047-.121 0-.121.09-.121.332v4.453c0 .274 0 .36.18.36.074 0 .09-.012.242-.196a2.26 2.26 0 0 1 1.875-.972c.793 0 1.183.734 1.304.988.254.586.27 1.32.27 1.891 0 .57 0 1.426-.422 2.101-.328.539-.914.914-1.574.914a2.32 2.32 0 0 1-2.234-1.769.7.7 0 0 0 .238.043c.258 0 .66-.149.66-.656 0-.422-.285-.665-.66-.665-.27 0-.66.137-.66.723 0 1.274 1.02 2.731 2.687 2.731 1.695 0 3.18-1.426 3.18-3.332 0-1.786-1.2-3.27-2.778-3.27-.851 0-1.511.375-1.902.797zm32.68 6.075h-.332c-.043.254-.164 1.078-.313 1.32-.105.133-.961.133-1.41.133h-2.777c.406-.344 1.32-1.305 1.711-1.664 2.281-2.098 3.121-2.879 3.121-4.364 0-1.726-1.363-2.882-3.106-2.882s-2.761 1.488-2.761 2.777c0 .766.66.766.707.766.312 0 .703-.227.703-.707 0-.418-.281-.704-.703-.704-.137 0-.164 0-.211.012.285-1.015 1.093-1.707 2.07-1.707 1.273 0 2.055 1.067 2.055 2.445 0 1.274-.735 2.383-1.59 3.344l-3.031 3.391v.359h5.476zm7.301 0h-.332c-.043.254-.165 1.078-.313 1.32-.105.133-.961.133-1.41.133h-2.777c.406-.344 1.32-1.305 1.71-1.664 2.282-2.098 3.122-2.879 3.122-4.364 0-1.726-1.368-2.882-3.106-2.882-1.742 0-2.762 1.488-2.762 2.777 0 .766.661.766.707.766.313 0 .704-.227.704-.707 0-.418-.286-.704-.704-.704-.136 0-.168 0-.211.012.286-1.015 1.094-1.707 2.071-1.707 1.273 0 2.054 1.067 2.054 2.445 0 1.274-.734 2.383-1.589 3.344l-3.032 3.391v.359h5.477zm28.097 0h-.328c-.047.254-.164 1.078-.316 1.32-.106.133-.961.133-1.41.133h-2.774c.402-.344 1.32-1.305 1.707-1.664 2.281-2.098 3.121-2.879 3.121-4.364 0-1.726-1.363-2.882-3.105-2.882-1.739 0-2.758 1.488-2.758 2.777 0 .766.66.766.703.766.316 0 .707-.227.707-.707 0-.418-.285-.704-.707-.704-.133 0-.164 0-.211.012.289-1.015 1.098-1.707 2.07-1.707 1.278 0 2.055 1.067 2.055 2.445 0 1.274-.734 2.383-1.586 3.344l-3.031 3.391v.359h5.477zm5.02-7.094c0-.348 0-.363-.297-.363-.359.406-1.109.961-2.656.961v.433c.343 0 1.093 0 1.922-.387v7.817c0 .539-.047.719-1.368.719h-.465v.433c.407-.027 1.86-.027 2.356-.027.492 0 1.934 0 2.34.027v-.433h-.465c-1.32 0-1.367-.18-1.367-.719zM194-227.82h-.328c-.047.254-.164 1.078-.317 1.32-.105.133-.96.133-1.41.133h-2.773c.402-.344 1.32-1.305 1.707-1.664 2.281-2.098 3.121-2.879 3.121-4.364 0-1.726-1.363-2.882-3.105-2.882-1.739 0-2.762 1.488-2.762 2.777 0 .766.664.766.707.766.316 0 .707-.227.707-.707 0-.418-.285-.704-.707-.704-.137 0-.164 0-.211.012.285-1.015 1.098-1.707 2.07-1.707 1.278 0 2.055 1.067 2.055 2.445 0 1.274-.734 2.383-1.59 3.344l-3.031 3.391v.359h5.476zm3.563-2.868c-.258.016-.317.032-.317.168 0 .149.074.149.344.149h.691c1.274 0 1.844 1.051 1.844 2.492 0 1.965-1.02 2.488-1.754 2.488-.723 0-1.949-.343-2.387-1.336.481.079.914-.195.914-.734a.707.707 0 0 0-.734-.734c-.359 0-.75.211-.75.781 0 1.336 1.336 2.43 3 2.43 1.785 0 3.106-1.368 3.106-2.883 0-1.379-1.11-2.457-2.551-2.711 1.304-.379 2.148-1.473 2.148-2.641 0-1.187-1.23-2.058-2.687-2.058-1.5 0-2.61.918-2.61 2.011 0 .602.465.719.688.719.316 0 .68-.223.68-.672 0-.48-.364-.691-.692-.691-.09 0-.121 0-.168.015.57-1.019 1.985-1.019 2.059-1.019.492 0 1.468.223 1.468 1.695 0 .281-.042 1.125-.48 1.77-.449.66-.961.703-1.363.719zm31.835 2.868h-.328c-.047.254-.164 1.078-.312 1.32-.11.133-.961.133-1.414.133h-2.774c.407-.344 1.321-1.305 1.711-1.664 2.282-2.098 3.117-2.879 3.117-4.364 0-1.726-1.363-2.882-3.101-2.882-1.742 0-2.762 1.488-2.762 2.777 0 .766.66.766.707.766.313 0 .703-.227.703-.707 0-.418-.285-.704-.703-.704-.137 0-.168 0-.211.012.285-1.015 1.094-1.707 2.071-1.707 1.273 0 2.054 1.067 2.054 2.445 0 1.274-.734 2.383-1.59 3.344l-3.031 3.391v.359h5.477zm6.219-7.246c0-.286 0-.36-.211-.36-.121 0-.164 0-.285.18l-4.516 7.004v.437h3.946v1.364c0 .558-.031.707-1.125.707h-.301v.433c.344-.027 1.531-.027 1.949-.027.422 0 1.621 0 1.965.027v-.433h-.297c-1.082 0-1.125-.149-1.125-.707v-1.364h1.516v-.437h-1.516zm-.992 1.171v5.653h-3.645zm27.895-1.019c0-.348 0-.363-.301-.363-.36.406-1.11.961-2.653.961v.433c.344 0 1.094 0 1.918-.387v7.817c0 .539-.043.719-1.363.719h-.465v.433c.407-.027 1.86-.027 2.356-.027.492 0 1.933 0 2.34.027v-.433h-.465c-1.321 0-1.367-.18-1.367-.719zm4.824 4.394c0-3.796 1.847-4.394 2.656-4.394.539 0 1.082.16 1.367.613-.179 0-.75 0-.75.613 0 .333.223.618.613.618.375 0 .629-.227.629-.66 0-.782-.57-1.547-1.875-1.547-1.89 0-3.867 1.937-3.867 5.238 0 4.125 1.797 5.055 3.074 5.055 1.633 0 3.028-1.426 3.028-3.375 0-1.996-1.395-3.332-2.895-3.332-1.332 0-1.828 1.156-1.98 1.574zm1.847 5.129c-.945 0-1.394-.839-1.531-1.156-.137-.387-.285-1.125-.285-2.172 0-1.187.539-2.672 1.891-2.672.824 0 1.257.555 1.484 1.067.242.554.242 1.304.242 1.949 0 .766 0 1.441-.289 2.008-.375.722-.914.976-1.512.976M12.52-198.594a4.5 4.5 0 0 0 1.335.223c1.696 0 2.778-1.246 2.778-1.457 0-.059-.031-.133-.121-.133-.032 0-.063 0-.196.059a4.9 4.9 0 0 1-1.949.406c-.992 0-1.695-.301-1.984-.418-.102-.047-.133-.047-.149-.047-.117 0-.117.09-.117.328v4.457c0 .27 0 .36.18.36.074 0 .086-.012.238-.196a2.26 2.26 0 0 1 1.875-.972c.793 0 1.184.734 1.305.988.254.586.27 1.32.27 1.891 0 .57 0 1.425-.419 2.101-.332.539-.918.914-1.574.914a2.32 2.32 0 0 1-2.238-1.769.7.7 0 0 0 .242.043c.254 0 .66-.149.66-.661 0-.418-.285-.66-.66-.66-.27 0-.66.137-.66.723 0 1.273 1.02 2.73 2.684 2.73 1.695 0 3.18-1.425 3.18-3.332 0-1.785-1.2-3.269-2.774-3.269-.856 0-1.516.375-1.906.793zm7.3 0a4.5 4.5 0 0 0 1.336.223c1.696 0 2.774-1.246 2.774-1.457 0-.059-.032-.133-.117-.133-.032 0-.063 0-.196.059a4.9 4.9 0 0 1-1.953.406c-.988 0-1.695-.301-1.98-.418-.106-.047-.133-.047-.149-.047-.12 0-.12.09-.12.328v4.457c0 .27 0 .36.179.36.078 0 .09-.012.242-.196a2.26 2.26 0 0 1 1.875-.972c.793 0 1.184.734 1.305.988.254.586.27 1.32.27 1.891 0 .57 0 1.425-.419 2.101-.332.539-.918.914-1.578.914a2.32 2.32 0 0 1-2.234-1.769.7.7 0 0 0 .242.043c.254 0 .656-.149.656-.661 0-.418-.281-.66-.656-.66-.274 0-.664.137-.664.723 0 1.273 1.023 2.73 2.687 2.73 1.696 0 3.18-1.425 3.18-3.332 0-1.785-1.2-3.269-2.773-3.269-.856 0-1.516.375-1.907.793zm30.5-1.023c0-.344 0-.36-.3-.36-.36.407-1.11.961-2.653.961v.434c.344 0 1.094 0 1.918-.387v7.813c0 .539-.043.722-1.363.722h-.469v.434c.406-.031 1.863-.031 2.36-.031.492 0 1.933 0 2.335.031v-.434h-.46c-1.32 0-1.368-.183-1.368-.722zm7.45 4.203c.75-.406 1.847-1.098 1.847-2.356 0-1.308-1.261-2.207-2.64-2.207-1.485 0-2.657 1.094-2.657 2.461 0 .508.149 1.02.57 1.532.165.195.18.211 1.231.945-1.457.672-2.207 1.68-2.207 2.773 0 1.59 1.516 2.582 3.047 2.582 1.664 0 3.059-1.23 3.059-2.808 0-1.528-1.079-2.203-2.25-2.922m-2.04-1.352c-.195-.132-.796-.523-.796-1.257 0-.977 1.02-1.594 2.027-1.594 1.078 0 2.039.781 2.039 1.859 0 .918-.66 1.653-1.531 2.133zm.708 1.938 1.812 1.183c.39.254 1.082.719 1.082 1.633 0 1.141-1.156 1.922-2.355 1.922-1.278 0-2.371-.93-2.371-2.176 0-1.172.855-2.113 1.831-2.562m29.184-4.789c0-.344 0-.36-.3-.36-.36.407-1.11.961-2.657.961v.434c.344 0 1.098 0 1.922-.387v7.813c0 .539-.047.722-1.367.722h-.465v.434c.406-.031 1.863-.031 2.355-.031.497 0 1.938 0 2.34.031v-.434h-.465c-1.32 0-1.363-.183-1.363-.722zm5 1.023a4.5 4.5 0 0 0 1.332.223c1.695 0 2.778-1.246 2.778-1.457 0-.059-.032-.133-.122-.133-.027 0-.058 0-.195.059a4.9 4.9 0 0 1-1.95.406c-.987 0-1.695-.301-1.98-.418-.105-.047-.132-.047-.148-.047-.121 0-.121.09-.121.328v4.457c0 .27 0 .36.18.36.074 0 .09-.012.242-.196a2.26 2.26 0 0 1 1.875-.972c.793 0 1.183.734 1.304.988.254.586.27 1.32.27 1.891 0 .57 0 1.425-.422 2.101-.328.539-.914.914-1.574.914a2.32 2.32 0 0 1-2.234-1.769.7.7 0 0 0 .238.043c.258 0 .66-.149.66-.661 0-.418-.285-.66-.66-.66-.27 0-.66.137-.66.723 0 1.273 1.02 2.73 2.687 2.73 1.695 0 3.18-1.425 3.18-3.332 0-1.785-1.2-3.269-2.778-3.269a2.6 2.6 0 0 0-1.902.793zm35.27 4.227c0 3.543-1.575 4.277-2.477 4.277-.359 0-1.152-.043-1.531-.57h.094c.101.031.644-.059.644-.613 0-.332-.226-.618-.617-.618-.387 0-.629.258-.629.645 0 .93.75 1.562 2.055 1.562 1.875 0 3.691-1.996 3.691-5.254 0-4.031-1.68-5.039-3-5.039-1.652 0-3.105 1.383-3.105 3.36 0 1.98 1.394 3.332 2.894 3.332 1.11 0 1.68-.809 1.981-1.574zm-1.922.781c-.946 0-1.348-.766-1.485-1.051-.238-.566-.238-1.289-.238-1.965 0-.839 0-1.558.391-2.171.269-.407.676-.844 1.484-.844.856 0 1.289.75 1.442 1.097.296.735.296 2.008.296 2.235 0 1.262-.57 2.699-1.89 2.699m33.652-5.008a4.5 4.5 0 0 0 1.332.223c1.695 0 2.777-1.246 2.777-1.457 0-.059-.031-.133-.121-.133-.027 0-.058 0-.195.059a4.9 4.9 0 0 1-1.949.406c-.988 0-1.695-.301-1.981-.418-.105-.047-.132-.047-.148-.047-.121 0-.121.09-.121.328v4.457c0 .27 0 .36.18.36.074 0 .089-.012.242-.196a2.26 2.26 0 0 1 1.875-.972c.793 0 1.183.734 1.304.988.254.586.27 1.32.27 1.891 0 .57 0 1.425-.422 2.101-.328.539-.914.914-1.574.914a2.32 2.32 0 0 1-2.235-1.769.7.7 0 0 0 .239.043c.258 0 .66-.149.66-.661 0-.418-.285-.66-.66-.66-.27 0-.66.137-.66.723 0 1.273 1.019 2.73 2.687 2.73 1.695 0 3.18-1.425 3.18-3.332 0-1.785-1.199-3.269-2.778-3.269a2.6 2.6 0 0 0-1.902.793zm40.606-.722v-.344h-3.618c-1.812 0-1.843-.195-1.906-.481h-.328l-.465 3h.332c.043-.269.18-1.199.375-1.367.117-.086 1.242-.086 1.453-.086h3.18l-1.59 2.278c-.406.586-1.918 3.046-1.918 5.867 0 .164 0 .765.613.765.629 0 .629-.586.629-.781v-.75c0-2.234.36-3.976 1.067-4.98zm30.117 4.097c0-3.797 1.847-4.398 2.656-4.398.539 0 1.082.164 1.367.617-.179 0-.75 0-.75.613 0 .332.223.617.613.617.375 0 .629-.226.629-.66 0-.781-.57-1.547-1.875-1.547-1.89 0-3.867 1.938-3.867 5.235 0 4.125 1.797 5.058 3.074 5.058 1.633 0 3.028-1.425 3.028-3.379 0-1.992-1.395-3.328-2.895-3.328-1.332 0-1.828 1.157-1.98 1.575zm1.847 5.129c-.945 0-1.394-.84-1.531-1.156-.137-.387-.285-1.125-.285-2.176 0-1.183.539-2.668 1.891-2.668.824 0 1.257.555 1.484 1.067.242.554.242 1.304.242 1.949 0 .761 0 1.441-.289 2.008-.375.722-.914.976-1.512.976m34.61-2.43h-.332c-.043.254-.164 1.079-.313 1.321-.105.133-.961.133-1.41.133h-2.777c.406-.344 1.32-1.305 1.711-1.664 2.281-2.098 3.121-2.879 3.121-4.364 0-1.726-1.363-2.883-3.106-2.883s-2.761 1.485-2.761 2.778c0 .761.66.761.707.761.312 0 .703-.222.703-.703 0-.422-.281-.703-.703-.703-.137 0-.164 0-.211.012.285-1.02 1.093-1.707 2.07-1.707 1.273 0 2.055 1.062 2.055 2.445 0 1.274-.735 2.383-1.59 3.344l-3.031 3.391v.359h5.476zm7.824-6.796v-.344h-3.613c-1.817 0-1.848-.195-1.907-.481h-.332l-.464 3h.332c.043-.269.179-1.199.375-1.367.117-.086 1.246-.086 1.453-.086h3.179l-1.585 2.278c-.407.586-1.922 3.046-1.922 5.867 0 .164 0 .765.613.765.633 0 .633-.586.633-.781v-.75c0-2.234.359-3.976 1.062-4.98zM12.52-163.195a4.4 4.4 0 0 0 1.335.226c1.696 0 2.778-1.246 2.778-1.457 0-.058-.031-.137-.121-.137-.032 0-.063 0-.196.059a4.9 4.9 0 0 1-1.949.41c-.992 0-1.695-.301-1.984-.422-.102-.047-.133-.047-.149-.047-.117 0-.117.094-.117.333v4.457c0 .269 0 .359.18.359.074 0 .086-.016.238-.195a2.26 2.26 0 0 1 1.875-.977c.793 0 1.184.734 1.305.992.254.582.27 1.321.27 1.891 0 .566 0 1.422-.419 2.098-.332.539-.918.914-1.574.914a2.32 2.32 0 0 1-2.238-1.77.7.7 0 0 0 .242.047c.254 0 .66-.152.66-.66 0-.422-.285-.66-.66-.66-.27 0-.66.132-.66.718 0 1.274 1.02 2.731 2.684 2.731 1.695 0 3.18-1.426 3.18-3.332 0-1.781-1.2-3.27-2.774-3.27-.856 0-1.516.375-1.906.797zm12.503-.719v-.348H21.41c-1.816 0-1.844-.195-1.906-.48h-.328l-.465 3h.328c.047-.27.18-1.199.375-1.363.121-.09 1.246-.09 1.457-.09h3.18l-1.59 2.281c-.406.582-1.922 3.043-1.922 5.863 0 .168 0 .766.617.766.63 0 .63-.586.63-.781v-.75c0-2.235.358-3.973 1.066-4.981zm25.297-.301c0-.348 0-.363-.3-.363-.36.406-1.11.961-2.653.961v.437c.344 0 1.094 0 1.918-.39v7.816c0 .539-.043.719-1.363.719h-.469v.433c.406-.027 1.863-.027 2.36-.027.492 0 1.933 0 2.335.027v-.433h-.46c-1.32 0-1.368-.18-1.368-.719zm8.47 5.25c0 3.539-1.575 4.274-2.474 4.274-.363 0-1.156-.043-1.53-.567h.089c.105.028.645-.062.645-.617 0-.328-.223-.617-.614-.617-.39 0-.633.258-.633.648 0 .93.75 1.559 2.055 1.559 1.875 0 3.691-1.996 3.691-5.25 0-4.035-1.68-5.043-3-5.043-1.648 0-3.105 1.383-3.105 3.363 0 1.981 1.398 3.328 2.898 3.328 1.11 0 1.68-.808 1.977-1.574zm-1.919.777c-.945 0-1.352-.761-1.484-1.046-.242-.571-.242-1.289-.242-1.965 0-.84 0-1.563.39-2.176.27-.406.676-.84 1.485-.84.855 0 1.292.75 1.44 1.094.302.734.302 2.012.302 2.234 0 1.262-.57 2.699-1.89 2.699m28.749-6.027c0-.348 0-.363-.3-.363-.36.406-1.11.961-2.657.961v.437c.344 0 1.098 0 1.922-.39v7.816c0 .539-.047.719-1.367.719h-.465v.433c.406-.027 1.863-.027 2.355-.027.497 0 1.938 0 2.34.027v-.433h-.465c-1.32 0-1.363-.18-1.363-.719zm5.839 4.231c-.257.015-.316.031-.316.164 0 .148.075.148.348.148h.688c1.273 0 1.843 1.051 1.843 2.492 0 1.965-1.02 2.489-1.754 2.489-.718 0-1.949-.344-2.386-1.332.484.074.918-.196.918-.739a.71.71 0 0 0-.735-.734c-.363 0-.75.211-.75.781 0 1.336 1.332 2.43 3 2.43 1.786 0 3.106-1.363 3.106-2.879 0-1.383-1.11-2.461-2.55-2.715 1.304-.379 2.144-1.473 2.144-2.641 0-1.187-1.23-2.058-2.688-2.058-1.5 0-2.61.918-2.61 2.012 0 .601.466.722.692.722.317 0 .676-.226.676-.676 0-.48-.36-.691-.692-.691-.09 0-.12 0-.163.016.57-1.02 1.98-1.02 2.054-1.02.496 0 1.469.223 1.469 1.695 0 .286-.043 1.125-.48 1.77-.45.66-.958.703-1.364.719zm34.356-4.383c0-.285 0-.36-.211-.36-.121 0-.164 0-.285.18l-4.515 7.008v.434h3.945v1.363c0 .558-.031.707-1.125.707h-.301v.433c.348-.027 1.531-.027 1.949-.027.422 0 1.622 0 1.969.027v-.433h-.301c-1.082 0-1.125-.149-1.125-.707v-1.363h1.516v-.434h-1.516zm-.992 1.172v5.656h-3.644zm37.477 6.074h-.332c-.043.254-.164 1.082-.313 1.32-.105.137-.961.137-1.41.137h-2.777c.406-.344 1.32-1.305 1.711-1.664 2.281-2.102 3.121-2.883 3.121-4.367 0-1.727-1.363-2.883-3.106-2.883s-2.761 1.488-2.761 2.777c0 .766.66.766.707.766.312 0 .703-.227.703-.707 0-.418-.281-.703-.703-.703-.137 0-.164 0-.211.015.285-1.019 1.093-1.711 2.07-1.711 1.273 0 2.055 1.067 2.055 2.446 0 1.273-.735 2.382-1.59 3.343l-3.031 3.391v.359h5.476zm33.121-7.094c0-.348 0-.363-.301-.363-.359.406-1.109.961-2.656.961v.437c.344 0 1.098 0 1.922-.39v7.816c0 .539-.047.719-1.367.719h-.465v.433c.406-.027 1.859-.027 2.355-.027s1.934 0 2.34.027v-.433h-.465c-1.32 0-1.363-.18-1.363-.719zm33.84 4.231c-.258.015-.317.031-.317.164 0 .148.075.148.344.148h.691c1.274 0 1.844 1.051 1.844 2.492 0 1.965-1.019 2.489-1.754 2.489-.718 0-1.949-.344-2.386-1.332.48.074.918-.196.918-.739a.71.71 0 0 0-.735-.734c-.363 0-.75.211-.75.781 0 1.336 1.332 2.43 3 2.43 1.781 0 3.102-1.363 3.102-2.879 0-1.383-1.11-2.461-2.547-2.715 1.305-.379 2.144-1.473 2.144-2.641 0-1.187-1.23-2.058-2.687-2.058-1.5 0-2.609.918-2.609 2.012 0 .601.464.722.691.722.312 0 .676-.226.676-.676 0-.48-.364-.691-.692-.691-.09 0-.121 0-.164.016.571-1.02 1.981-1.02 2.055-1.02.492 0 1.469.223 1.469 1.695 0 .286-.043 1.125-.481 1.77-.449.66-.957.703-1.363.719zm35.539 2.863h-.332c-.043.254-.164 1.082-.313 1.32-.105.137-.961.137-1.41.137h-2.777c.406-.344 1.32-1.305 1.711-1.664 2.281-2.102 3.121-2.883 3.121-4.367 0-1.727-1.363-2.883-3.106-2.883s-2.761 1.488-2.761 2.777c0 .766.66.766.707.766.312 0 .703-.227.703-.707 0-.418-.281-.703-.703-.703-.137 0-.164 0-.211.015.285-1.019 1.093-1.711 2.07-1.711 1.273 0 2.055 1.067 2.055 2.446 0 1.273-.735 2.382-1.59 3.343l-3.031 3.391v.359h5.476zm2.543-2.699c0-3.797 1.847-4.395 2.656-4.395.539 0 1.082.164 1.367.613-.179 0-.75 0-.75.618 0 .328.223.613.613.613.375 0 .629-.223.629-.66 0-.782-.57-1.547-1.875-1.547-1.89 0-3.867 1.937-3.867 5.238 0 4.125 1.797 5.055 3.074 5.055 1.633 0 3.028-1.426 3.028-3.375 0-1.996-1.395-3.332-2.895-3.332-1.332 0-1.828 1.156-1.98 1.578zm1.847 5.129c-.945 0-1.394-.84-1.531-1.153-.137-.39-.285-1.125-.285-2.176 0-1.183.539-2.671 1.891-2.671.824 0 1.257.554 1.484 1.066.242.555.242 1.305.242 1.949 0 .766 0 1.442-.289 2.012-.375.719-.914.973-1.512.973M12.52-127.797a4.5 4.5 0 0 0 1.335.227c1.696 0 2.778-1.246 2.778-1.457 0-.059-.031-.133-.121-.133-.032 0-.063 0-.196.058-.84.36-1.562.407-1.949.407-.992 0-1.695-.301-1.984-.422-.102-.043-.133-.043-.149-.043-.117 0-.117.09-.117.328v4.457c0 .27 0 .359.18.359.074 0 .086-.015.238-.195a2.27 2.27 0 0 1 1.875-.977c.793 0 1.184.739 1.305.993.254.586.27 1.32.27 1.89 0 .571 0 1.426-.419 2.102-.332.539-.918.914-1.574.914a2.32 2.32 0 0 1-2.238-1.774.7.7 0 0 0 .242.047c.254 0 .66-.148.66-.66 0-.418-.285-.66-.66-.66-.27 0-.66.137-.66.719 0 1.277 1.02 2.734 2.684 2.734 1.695 0 3.18-1.426 3.18-3.332 0-1.785-1.2-3.269-2.774-3.269-.856 0-1.516.375-1.906.793zm8.14 3.211c-.254.016-.316.031-.316.164 0 .152.078.152.347.152h.688c1.277 0 1.848 1.051 1.848 2.489 0 1.965-1.024 2.492-1.758 2.492-.719 0-1.95-.344-2.383-1.336.48.074.914-.195.914-.734a.71.71 0 0 0-.734-.735c-.36 0-.75.207-.75.778 0 1.336 1.336 2.433 3 2.433 1.785 0 3.105-1.367 3.105-2.883 0-1.379-1.11-2.461-2.55-2.714 1.304-.375 2.144-1.469 2.144-2.641 0-1.184-1.23-2.055-2.684-2.055-1.5 0-2.61.914-2.61 2.012 0 .598.462.719.688.719.317 0 .676-.227.676-.676 0-.481-.36-.692-.691-.692a.4.4 0 0 0-.164.016c.57-1.019 1.98-1.019 2.054-1.019.496 0 1.47.226 1.47 1.695 0 .285-.044 1.125-.477 1.769-.454.661-.961.707-1.368.719zm29.66-4.23c0-.344 0-.36-.3-.36-.36.406-1.11.961-2.653.961v.434c.344 0 1.094 0 1.918-.391v7.817c0 .539-.043.722-1.363.722h-.469v.434c.406-.031 1.863-.031 2.36-.031.492 0 1.933 0 2.335.031v-.434h-.46c-1.32 0-1.368-.183-1.368-.722zm10.106.3v-.343h-3.614c-1.816 0-1.847-.196-1.906-.481h-.332l-.465 3h.332c.043-.269.18-1.199.375-1.367.118-.09 1.246-.09 1.453-.09h3.18l-1.59 2.281c-.406.586-1.918 3.047-1.918 5.868 0 .164 0 .765.614.765.633 0 .633-.586.633-.781v-.75c0-2.234.359-3.977 1.062-4.981zm25.195-.3c0-.344 0-.36-.3-.36-.36.406-1.11.961-2.657.961v.434c.344 0 1.098 0 1.922-.391v7.817c0 .539-.047.722-1.367.722h-.465v.434c.406-.031 1.863-.031 2.355-.031.497 0 1.938 0 2.34.031v-.434h-.465c-1.32 0-1.363-.183-1.363-.722zm7.399 0c0-.344 0-.36-.301-.36-.36.406-1.11.961-2.653.961v.434c.344 0 1.094 0 1.918-.391v7.817c0 .539-.043.722-1.363.722h-.465v.434c.406-.031 1.86-.031 2.356-.031.492 0 1.933 0 2.34.031v-.434h-.465c-1.32 0-1.368-.183-1.368-.722zm28 0c0-.344 0-.36-.301-.36-.36.406-1.11.961-2.653.961v.434c.344 0 1.094 0 1.918-.391v7.817c0 .539-.043.722-1.363.722h-.465v.434c.407-.031 1.86-.031 2.356-.031.492 0 1.933 0 2.34.031v-.434h-.465c-1.321 0-1.367-.183-1.367-.722zm8.394-.149c0-.289 0-.363-.211-.363-.117 0-.164 0-.281.183l-4.516 7.004v.438h3.946v1.363c0 .555-.032.707-1.125.707h-.301v.434c.344-.031 1.527-.031 1.949-.031s1.621 0 1.965.031v-.434h-.301c-1.078 0-1.125-.152-1.125-.707v-1.363h1.516v-.438h-1.516zm-.988 1.168v5.656h-3.645zm27.996-1.019c0-.344 0-.36-.301-.36-.359.406-1.109.961-2.656.961v.434c.344 0 1.098 0 1.922-.391v7.817c0 .539-.047.722-1.367.722h-.465v.434c.406-.031 1.859-.031 2.355-.031s1.934 0 2.34.031v-.434h-.465c-1.32 0-1.363-.183-1.363-.722zm9.578 7.097h-.328c-.047.254-.164 1.078-.317 1.321-.105.132-.96.132-1.41.132h-2.773c.402-.343 1.32-1.304 1.707-1.664 2.281-2.101 3.121-2.883 3.121-4.367 0-1.723-1.363-2.879-3.105-2.879-1.739 0-2.762 1.485-2.762 2.778 0 .761.664.761.707.761.316 0 .707-.222.707-.703 0-.422-.285-.707-.707-.707-.137 0-.164 0-.211.016.285-1.02 1.098-1.711 2.07-1.711 1.278 0 2.055 1.066 2.055 2.445 0 1.277-.734 2.387-1.59 3.348l-3.031 3.39v.36h5.476zm29.57-2.898c.75-.403 1.844-1.094 1.844-2.352 0-1.308-1.258-2.207-2.641-2.207-1.484 0-2.652 1.094-2.652 2.461 0 .508.149 1.02.57 1.527.164.196.18.211 1.231.946-1.457.676-2.207 1.679-2.207 2.777 0 1.59 1.515 2.582 3.047 2.582 1.664 0 3.058-1.234 3.058-2.808 0-1.528-1.078-2.204-2.25-2.926m-2.039-1.348c-.195-.137-.797-.527-.797-1.262 0-.972 1.02-1.589 2.028-1.589 1.078 0 2.039.781 2.039 1.859 0 .918-.66 1.652-1.531 2.133zm.703 1.934 1.817 1.187c.39.254 1.082.719 1.082 1.633 0 1.141-1.156 1.922-2.36 1.922-1.273 0-2.367-.93-2.367-2.176 0-1.172.856-2.113 1.828-2.566m32.887-4.785c0-.344 0-.36-.301-.36-.359.406-1.109.961-2.656.961v.434c.344 0 1.098 0 1.922-.391v7.817c0 .539-.047.722-1.367.722h-.465v.434c.406-.031 1.863-.031 2.355-.031.496 0 1.938 0 2.34.031v-.434h-.465c-1.32 0-1.363-.183-1.363-.722zm9.801 4.816c0-1.246-.078-2.461-.617-3.602-.614-1.242-1.696-1.574-2.43-1.574-.871 0-1.934.434-2.492 1.68-.418.945-.567 1.875-.567 3.496 0 1.453.106 2.551.645 3.617.586 1.137 1.617 1.5 2.398 1.5 1.305 0 2.055-.781 2.493-1.652.539-1.125.57-2.594.57-3.465m-3.063 4.816c-.48 0-1.453-.269-1.738-1.906-.168-.902-.168-2.039-.168-3.09 0-1.23 0-2.34.242-3.226.254-1.004 1.02-1.473 1.664-1.473.571 0 1.442.348 1.727 1.637.195.855.195 2.043.195 3.062 0 1.004 0 2.145-.164 3.059-.289 1.652-1.23 1.937-1.758 1.937m30.942-2.535h-.332c-.043.254-.164 1.078-.313 1.321-.105.132-.961.132-1.41.132h-2.777c.406-.343 1.32-1.304 1.711-1.664 2.281-2.101 3.121-2.883 3.121-4.367 0-1.723-1.363-2.879-3.106-2.879s-2.761 1.485-2.761 2.778c0 .761.66.761.707.761.312 0 .703-.222.703-.703 0-.422-.281-.707-.703-.707-.137 0-.164 0-.211.016.285-1.02 1.093-1.711 2.07-1.711 1.273 0 2.055 1.066 2.055 2.445 0 1.277-.735 2.387-1.59 3.348l-3.031 3.39v.36h5.476zm6.191-1.847c0 3.543-1.578 4.277-2.476 4.277-.36 0-1.157-.047-1.532-.57h.09c.106.031.645-.063.645-.618 0-.328-.223-.613-.614-.613-.39 0-.628.254-.628.645 0 .929.75 1.562 2.054 1.562 1.875 0 3.688-1.996 3.688-5.254 0-4.035-1.68-5.039-3-5.039-1.649 0-3.102 1.379-3.102 3.36s1.395 3.332 2.895 3.332c1.109 0 1.679-.813 1.98-1.579zm-1.922.781c-.945 0-1.351-.766-1.484-1.051-.242-.57-.242-1.289-.242-1.965 0-.84 0-1.558.39-2.176.27-.406.676-.839 1.485-.839.855 0 1.293.75 1.441 1.097.301.735.301 2.008.301 2.235 0 1.257-.57 2.699-1.891 2.699M16.016-93.566c0-.286 0-.36-.211-.36-.117 0-.164 0-.285.18l-4.516 7.004v.437h3.945v1.364c0 .558-.027.707-1.125.707h-.3v.433c.347-.027 1.53-.027 1.953-.027.418 0 1.617 0 1.964.027v-.433h-.3c-1.078 0-1.125-.149-1.125-.707v-1.364h1.515v-.437h-1.515zm-.993 1.172v5.652H11.38zm10-.723v-.344H21.41c-1.816 0-1.844-.195-1.906-.48h-.328l-.465 3h.328c.047-.27.18-1.2.375-1.364.121-.09 1.246-.09 1.457-.09h3.18l-1.59 2.278c-.406.586-1.922 3.047-1.922 5.867 0 .164 0 .766.617.766.63 0 .63-.586.63-.782v-.75c0-2.234.358-3.976 1.066-4.98zm23.739 3.93c-.258.015-.317.03-.317.168 0 .148.075.148.344.148h.691c1.274 0 1.844 1.05 1.844 2.492 0 1.965-1.02 2.488-1.754 2.488-.718 0-1.949-.343-2.386-1.336.48.079.918-.195.918-.734a.71.71 0 0 0-.735-.734c-.363 0-.75.21-.75.78 0 1.337 1.332 2.43 3 2.43 1.781 0 3.102-1.367 3.102-2.882 0-1.38-1.11-2.457-2.547-2.711 1.305-.379 2.144-1.473 2.144-2.64 0-1.188-1.23-2.06-2.687-2.06-1.5 0-2.61.919-2.61 2.012 0 .602.465.72.692.72.312 0 .676-.223.676-.673 0-.48-.364-.691-.692-.691-.09 0-.12 0-.164.016.57-1.02 1.98-1.02 2.055-1.02.492 0 1.469.223 1.469 1.695 0 .281-.043 1.125-.48 1.77-.45.66-.958.703-1.364.718zm11.136 2.867h-.328c-.047.254-.164 1.078-.312 1.32-.11.133-.961.133-1.414.133H55.07c.407-.344 1.32-1.305 1.711-1.664 2.282-2.098 3.117-2.88 3.117-4.363 0-1.727-1.363-2.883-3.101-2.883-1.742 0-2.762 1.488-2.762 2.777 0 .766.66.766.707.766.313 0 .703-.227.703-.707 0-.418-.285-.703-.703-.703-.136 0-.168 0-.21.011.284-1.015 1.093-1.707 2.07-1.707 1.273 0 2.054 1.067 2.054 2.446 0 1.273-.734 2.382-1.59 3.343l-3.03 3.39v.36h5.476zm24.165-2.867c-.258.015-.317.03-.317.168 0 .148.074.148.344.148h.691c1.274 0 1.844 1.05 1.844 2.492 0 1.965-1.02 2.488-1.754 2.488-.723 0-1.95-.343-2.387-1.336.48.079.914-.195.914-.734a.71.71 0 0 0-.734-.734c-.36 0-.75.21-.75.78 0 1.337 1.336 2.43 3 2.43 1.785 0 3.105-1.367 3.105-2.882 0-1.38-1.109-2.457-2.55-2.711 1.304-.379 2.148-1.473 2.148-2.64 0-1.188-1.23-2.06-2.687-2.06-1.5 0-2.61.919-2.61 2.012 0 .602.465.72.688.72.316 0 .68-.223.68-.673 0-.48-.364-.691-.692-.691-.09 0-.121 0-.168.016.57-1.02 1.984-1.02 2.059-1.02.492 0 1.469.223 1.469 1.695 0 .281-.043 1.125-.481 1.77-.45.66-.96.703-1.363.718zm11.359.585c0-1.242-.078-2.46-.617-3.597-.614-1.246-1.696-1.578-2.43-1.578-.871 0-1.934.437-2.492 1.683-.418.946-.567 1.875-.567 3.492 0 1.458.106 2.551.645 3.618.586 1.14 1.617 1.5 2.398 1.5 1.305 0 2.055-.782 2.493-1.649.539-1.129.57-2.598.57-3.469m-3.063 4.817c-.48 0-1.453-.27-1.738-1.906-.168-.899-.168-2.04-.168-3.09 0-1.23 0-2.34.242-3.227.254-1.004 1.02-1.469 1.664-1.469.57 0 1.442.344 1.727 1.637.195.856.195 2.04.195 3.059 0 1.008 0 2.144-.164 3.062-.289 1.649-1.23 1.934-1.758 1.934m30.942-2.535h-.332c-.043.254-.164 1.078-.313 1.32-.105.133-.961.133-1.41.133h-2.777c.406-.344 1.32-1.305 1.711-1.664 2.281-2.098 3.121-2.88 3.121-4.363 0-1.727-1.363-2.883-3.106-2.883s-2.761 1.488-2.761 2.777c0 .766.66.766.707.766.312 0 .703-.227.703-.707 0-.418-.281-.703-.703-.703-.137 0-.164 0-.211.011.285-1.015 1.093-1.707 2.07-1.707 1.273 0 2.055 1.067 2.055 2.446 0 1.273-.735 2.382-1.59 3.343l-3.031 3.39v.36h5.476zm5.168-2.895c.75-.406 1.847-1.097 1.847-2.355 0-1.305-1.261-2.207-2.64-2.207-1.485 0-2.656 1.097-2.656 2.46 0 .512.152 1.02.57 1.532.164.195.18.21 1.23.945-1.453.676-2.203 1.68-2.203 2.774 0 1.59 1.512 2.582 3.043 2.582 1.664 0 3.059-1.23 3.059-2.805 0-1.531-1.078-2.207-2.25-2.926m-2.039-1.351c-.196-.133-.797-.524-.797-1.258 0-.977 1.023-1.59 2.027-1.59 1.082 0 2.039.777 2.039 1.86 0 .913-.66 1.648-1.527 2.128zm.707 1.937 1.812 1.184c.391.254 1.082.718 1.082 1.632 0 1.141-1.156 1.922-2.355 1.922-1.278 0-2.371-.93-2.371-2.175 0-1.168.855-2.114 1.832-2.563m27.722-.558c-.254.015-.312.03-.312.168 0 .148.074.148.344.148h.687c1.277 0 1.848 1.05 1.848 2.492 0 1.965-1.02 2.488-1.754 2.488-.723 0-1.953-.343-2.387-1.336.481.079.914-.195.914-.734a.71.71 0 0 0-.734-.734c-.36 0-.75.21-.75.78 0 1.337 1.336 2.43 3 2.43 1.785 0 3.105-1.367 3.105-2.882 0-1.38-1.109-2.457-2.55-2.711 1.304-.379 2.144-1.473 2.144-2.64 0-1.188-1.226-2.06-2.684-2.06-1.5 0-2.609.919-2.609 2.012 0 .602.465.72.688.72.316 0 .675-.223.675-.673 0-.48-.359-.691-.687-.691a.5.5 0 0 0-.168.016c.57-1.02 1.98-1.02 2.059-1.02.492 0 1.468.223 1.468 1.695 0 .281-.047 1.125-.48 1.77-.449.66-.961.703-1.363.718zm7.301 0c-.254.015-.316.03-.316.168 0 .148.078.148.347.148h.688c1.277 0 1.848 1.05 1.848 2.492 0 1.965-1.024 2.488-1.758 2.488-.719 0-1.949-.343-2.383-1.336.48.079.914-.195.914-.734a.71.71 0 0 0-.734-.734c-.36 0-.75.21-.75.78 0 1.337 1.336 2.43 3 2.43 1.785 0 3.105-1.367 3.105-2.882 0-1.38-1.109-2.457-2.551-2.711 1.305-.379 2.145-1.473 2.145-2.64 0-1.188-1.231-2.06-2.684-2.06-1.5 0-2.609.919-2.609 2.012 0 .602.461.72.687.72.317 0 .676-.223.676-.673 0-.48-.359-.691-.691-.691-.09 0-.117 0-.164.016.57-1.02 1.98-1.02 2.054-1.02.496 0 1.469.223 1.469 1.695 0 .281-.043 1.125-.476 1.77-.454.66-.961.703-1.368.718zm28 0c-.254.015-.316.03-.316.168 0 .148.078.148.347.148h.688c1.277 0 1.848 1.05 1.848 2.492 0 1.965-1.024 2.488-1.758 2.488-.719 0-1.949-.343-2.383-1.336.48.079.914-.195.914-.734a.71.71 0 0 0-.734-.734c-.36 0-.75.21-.75.78 0 1.337 1.336 2.43 3 2.43 1.785 0 3.105-1.367 3.105-2.882 0-1.38-1.109-2.457-2.551-2.711 1.305-.379 2.145-1.473 2.145-2.64 0-1.188-1.231-2.06-2.684-2.06-1.5 0-2.609.919-2.609 2.012 0 .602.461.72.687.72.317 0 .676-.223.676-.673 0-.48-.359-.691-.691-.691-.09 0-.117 0-.164.016.57-1.02 1.98-1.02 2.054-1.02.496 0 1.469.223 1.469 1.695 0 .281-.043 1.125-.476 1.77-.454.66-.961.703-1.368.718zm8.961-4.227c0-.348 0-.363-.301-.363-.359.406-1.109.96-2.656.96v.434c.344 0 1.098 0 1.922-.386v7.816c0 .539-.047.719-1.367.719h-.465v.433c.406-.027 1.863-.027 2.355-.027.496 0 1.938 0 2.34.027v-.433h-.465c-1.32 0-1.363-.18-1.363-.72zm26.442 4.227c-.258.015-.317.03-.317.168 0 .148.074.148.344.148h.691c1.274 0 1.844 1.05 1.844 2.492 0 1.965-1.02 2.488-1.754 2.488-.723 0-1.949-.343-2.387-1.336.481.079.914-.195.914-.734a.707.707 0 0 0-.734-.734c-.359 0-.75.21-.75.78 0 1.337 1.336 2.43 3 2.43 1.785 0 3.106-1.367 3.106-2.882 0-1.38-1.11-2.457-2.551-2.711 1.304-.379 2.148-1.473 2.148-2.64 0-1.188-1.23-2.06-2.687-2.06-1.5 0-2.61.919-2.61 2.012 0 .602.465.72.688.72.316 0 .68-.223.68-.673 0-.48-.364-.691-.692-.691-.09 0-.121 0-.168.016.57-1.02 1.985-1.02 2.059-1.02.492 0 1.468.223 1.468 1.695 0 .281-.042 1.125-.48 1.77-.449.66-.961.703-1.363.718zm6.558-3.207a4.5 4.5 0 0 0 1.332.222c1.695 0 2.777-1.242 2.777-1.453 0-.062-.031-.137-.121-.137-.027 0-.058 0-.195.059a4.9 4.9 0 0 1-1.949.406 4.9 4.9 0 0 1-1.981-.418c-.105-.047-.132-.047-.148-.047-.121 0-.121.09-.121.332v4.453c0 .274 0 .36.18.36.074 0 .089-.012.242-.195a2.26 2.26 0 0 1 1.875-.973c.793 0 1.183.734 1.304.988.254.586.27 1.32.27 1.89 0 .571 0 1.426-.422 2.102-.328.54-.914.914-1.574.914a2.32 2.32 0 0 1-2.235-1.77.7.7 0 0 0 .239.044c.258 0 .66-.149.66-.656 0-.422-.285-.665-.66-.665-.27 0-.66.137-.66.723 0 1.274 1.019 2.73 2.687 2.73 1.695 0 3.18-1.425 3.18-3.331 0-1.786-1.199-3.27-2.778-3.27-.851 0-1.511.375-1.902.797zm28.84 3.207c-.258.015-.316.03-.316.168 0 .148.074.148.347.148h.688c1.273 0 1.843 1.05 1.843 2.492 0 1.965-1.019 2.488-1.753 2.488-.719 0-1.95-.343-2.387-1.336.484.079.918-.195.918-.734a.71.71 0 0 0-.735-.734c-.363 0-.75.21-.75.78 0 1.337 1.332 2.43 3 2.43 1.786 0 3.106-1.367 3.106-2.882 0-1.38-1.109-2.457-2.551-2.711 1.305-.379 2.145-1.473 2.145-2.64 0-1.188-1.231-2.06-2.688-2.06-1.5 0-2.609.919-2.609 2.012 0 .602.465.72.691.72.317 0 .676-.223.676-.673 0-.48-.359-.691-.691-.691a.4.4 0 0 0-.165.016c.571-1.02 1.981-1.02 2.055-1.02.496 0 1.469.223 1.469 1.695 0 .281-.043 1.125-.481 1.77-.449.66-.957.703-1.363.718zm9.953-4.379c0-.286 0-.36-.211-.36-.117 0-.164 0-.281.18l-4.516 7.004v.437h3.946v1.364c0 .558-.032.707-1.125.707h-.301v.433c.344-.027 1.527-.027 1.949-.027s1.621 0 1.965.027v-.433h-.301c-1.078 0-1.125-.149-1.125-.707v-1.364h1.516v-.437h-1.516zm-.988 1.172v5.652h-3.645zM12.52-57.094a4.5 4.5 0 0 0 1.335.223c1.696 0 2.778-1.246 2.778-1.457 0-.059-.031-.133-.121-.133-.032 0-.063 0-.196.059a4.9 4.9 0 0 1-1.949.406c-.992 0-1.695-.3-1.984-.418-.102-.047-.133-.047-.149-.047-.117 0-.117.09-.117.328v4.457c0 .27 0 .36.18.36.074 0 .086-.012.238-.196a2.26 2.26 0 0 1 1.875-.972c.793 0 1.184.734 1.305.988.254.586.27 1.32.27 1.89s0 1.426-.419 2.102c-.332.54-.918.914-1.574.914a2.32 2.32 0 0 1-2.238-1.77.7.7 0 0 0 .242.044c.254 0 .66-.149.66-.66 0-.419-.285-.66-.66-.66-.27 0-.66.136-.66.722 0 1.273 1.02 2.73 2.684 2.73 1.695 0 3.18-1.425 3.18-3.332 0-1.785-1.2-3.27-2.774-3.27-.856 0-1.516.376-1.906.794zm7.226 3.375c0-3.797 1.844-4.398 2.652-4.398.543 0 1.082.164 1.368.617-.18 0-.75 0-.75.613 0 .332.226.617.617.617.375 0 .629-.226.629-.66 0-.78-.57-1.547-1.875-1.547-1.89 0-3.871 1.938-3.871 5.235 0 4.125 1.8 5.058 3.074 5.058 1.637 0 3.031-1.425 3.031-3.379 0-1.992-1.394-3.328-2.894-3.328-1.336 0-1.832 1.157-1.98 1.575zm1.844 5.13c-.945 0-1.395-.84-1.527-1.157-.137-.387-.29-1.125-.29-2.176 0-1.184.543-2.668 1.891-2.668.828 0 1.262.555 1.484 1.067.243.554.243 1.304.243 1.949 0 .761 0 1.441-.285 2.008-.376.722-.915.976-1.516.976m29.824-9.676c0-.285 0-.359-.21-.359-.118 0-.165 0-.282.18l-4.516 7.004v.437h3.946v1.363c0 .555-.032.707-1.125.707h-.301v.434c.343-.031 1.527-.031 1.949-.031s1.621 0 1.965.031v-.434h-.3c-1.08 0-1.126-.152-1.126-.707v-1.363h1.516v-.437h-1.516zm-.988 1.172v5.653H46.78zm5.637 3.207c-.258.016-.317.032-.317.168 0 .149.074.149.344.149h.691c1.274 0 1.844 1.05 1.844 2.492 0 1.96-1.02 2.488-1.754 2.488-.723 0-1.95-.344-2.387-1.336.48.074.914-.195.914-.734a.71.71 0 0 0-.734-.735c-.36 0-.75.208-.75.778 0 1.336 1.336 2.433 3 2.433 1.785 0 3.105-1.367 3.105-2.882 0-1.38-1.109-2.457-2.55-2.715 1.304-.375 2.148-1.469 2.148-2.64 0-1.184-1.23-2.056-2.687-2.056-1.5 0-2.61.914-2.61 2.012 0 .598.465.719.688.719.316 0 .68-.223.68-.676 0-.476-.364-.687-.692-.687-.09 0-.121 0-.168.015.57-1.023 1.984-1.023 2.059-1.023.492 0 1.468.226 1.468 1.695 0 .285-.042 1.125-.48 1.774-.45.656-.96.703-1.363.718zm30.652-4.379c0-.285 0-.359-.211-.359-.117 0-.164 0-.285.18l-4.516 7.004v.437h3.945v1.363c0 .555-.027.707-1.125.707h-.296v.434c.343-.031 1.527-.031 1.949-.031.418 0 1.62 0 1.965.031v-.434h-.301c-1.078 0-1.125-.152-1.125-.707v-1.363h1.516v-.437h-1.516zm-.988 1.172v5.653h-3.649zm9.695 3.794c0-1.247-.078-2.462-.617-3.598-.614-1.246-1.696-1.579-2.43-1.579-.871 0-1.934.438-2.492 1.68-.418.945-.567 1.875-.567 3.496 0 1.457.106 2.551.645 3.617.586 1.137 1.617 1.5 2.398 1.5 1.305 0 2.055-.78 2.493-1.652.539-1.125.57-2.594.57-3.465m-3.063 4.816c-.48 0-1.453-.27-1.738-1.907-.168-.898-.168-2.039-.168-3.09 0-1.23 0-2.34.242-3.226.254-1.004 1.02-1.469 1.664-1.469.57 0 1.442.344 1.727 1.637.195.852.195 2.039.195 3.059 0 1.003 0 2.144-.164 3.058-.289 1.652-1.23 1.938-1.758 1.938m27.102-5.402c-.258.016-.316.032-.316.168 0 .149.074.149.347.149h.688c1.273 0 1.843 1.05 1.843 2.492 0 1.96-1.019 2.488-1.753 2.488-.719 0-1.95-.344-2.387-1.336.484.074.918-.195.918-.734a.71.71 0 0 0-.735-.735c-.363 0-.75.208-.75.778 0 1.336 1.332 2.433 3 2.433 1.786 0 3.106-1.367 3.106-2.882 0-1.38-1.109-2.457-2.551-2.715 1.305-.375 2.145-1.469 2.145-2.64 0-1.184-1.231-2.056-2.688-2.056-1.5 0-2.609.914-2.609 2.012 0 .598.465.719.691.719.317 0 .676-.223.676-.676 0-.476-.359-.687-.691-.687a.5.5 0 0 0-.165.015c.571-1.023 1.981-1.023 2.055-1.023.496 0 1.469.226 1.469 1.695 0 .285-.043 1.125-.481 1.774-.449.656-.957.703-1.363.718zm6.383.168c0-3.797 1.847-4.398 2.656-4.398.539 0 1.082.164 1.367.617-.179 0-.75 0-.75.613 0 .332.223.617.613.617.375 0 .629-.226.629-.66 0-.78-.57-1.547-1.875-1.547-1.89 0-3.867 1.938-3.867 5.235 0 4.125 1.797 5.058 3.074 5.058 1.633 0 3.028-1.425 3.028-3.379 0-1.992-1.395-3.328-2.895-3.328-1.332 0-1.828 1.157-1.98 1.575zm1.847 5.13c-.945 0-1.394-.84-1.531-1.157-.137-.387-.285-1.125-.285-2.176 0-1.184.539-2.668 1.891-2.668.824 0 1.257.555 1.484 1.067.242.554.242 1.304.242 1.949 0 .761 0 1.441-.289 2.008-.375.722-.914.976-1.512.976m27.168-5.297c-.254.016-.312.032-.312.168 0 .149.074.149.344.149h.687c1.277 0 1.848 1.05 1.848 2.492 0 1.96-1.02 2.488-1.754 2.488-.723 0-1.953-.344-2.387-1.336.481.074.914-.195.914-.734a.71.71 0 0 0-.734-.735c-.36 0-.75.208-.75.778 0 1.336 1.336 2.433 3 2.433 1.785 0 3.105-1.367 3.105-2.882 0-1.38-1.109-2.457-2.55-2.715 1.304-.375 2.144-1.469 2.144-2.64 0-1.184-1.226-2.056-2.684-2.056-1.5 0-2.609.914-2.609 2.012 0 .598.465.719.688.719.316 0 .675-.223.675-.676 0-.476-.359-.687-.687-.687a.5.5 0 0 0-.168.015c.57-1.023 1.98-1.023 2.059-1.023.492 0 1.468.226 1.468 1.695 0 .285-.047 1.125-.48 1.774-.449.656-.961.703-1.363.718zm11.664-3.929v-.344h-3.613c-1.816 0-1.844-.196-1.906-.48h-.328l-.465 3h.328c.047-.27.18-1.2.375-1.368.121-.086 1.246-.086 1.457-.086h3.18l-1.59 2.278c-.406.586-1.922 3.047-1.922 5.867 0 .164 0 .765.617.765.629 0 .629-.586.629-.78v-.75c0-2.235.36-3.977 1.067-4.981zm26.293-.45c0-.285 0-.359-.211-.359-.121 0-.164 0-.285.18l-4.515 7.004v.437h3.945v1.363c0 .555-.031.707-1.125.707h-.301v.434c.348-.031 1.531-.031 1.949-.031.422 0 1.622 0 1.969.031v-.434h-.301c-1.082 0-1.125-.152-1.125-.707v-1.363h1.516v-.437h-1.516zm-.992 1.172v5.653h-3.644zm7.297-1.023c0-.344 0-.36-.301-.36-.359.407-1.109.961-2.656.961v.434c.344 0 1.098 0 1.922-.387v7.813c0 .539-.047.722-1.367.722h-.465v.434c.406-.031 1.863-.031 2.355-.031.496 0 1.938 0 2.34.031v-.434h-.465c-1.32 0-1.363-.183-1.363-.722zm26.442 4.23c-.258.016-.317.032-.317.168 0 .149.074.149.344.149h.691c1.274 0 1.844 1.05 1.844 2.492 0 1.96-1.02 2.488-1.754 2.488-.723 0-1.949-.344-2.387-1.336.481.074.914-.195.914-.734a.707.707 0 0 0-.734-.735c-.359 0-.75.208-.75.778 0 1.336 1.336 2.433 3 2.433 1.785 0 3.106-1.367 3.106-2.882 0-1.38-1.11-2.457-2.551-2.715 1.304-.375 2.148-1.469 2.148-2.64 0-1.184-1.23-2.056-2.687-2.056-1.5 0-2.61.914-2.61 2.012 0 .598.465.719.688.719.316 0 .68-.223.68-.676 0-.476-.364-.687-.692-.687-.09 0-.121 0-.168.015.57-1.023 1.985-1.023 2.059-1.023.492 0 1.468.226 1.468 1.695 0 .285-.042 1.125-.48 1.774-.449.656-.961.703-1.363.718zm10.128 1.02c0 3.543-1.574 4.277-2.476 4.277-.36 0-1.152-.043-1.531-.57h.089c.106.031.649-.059.649-.613 0-.332-.227-.618-.617-.618-.391 0-.629.258-.629.645 0 .93.75 1.562 2.054 1.562 1.875 0 3.692-1.996 3.692-5.254 0-4.03-1.68-5.039-3-5.039-1.652 0-3.106 1.383-3.106 3.36 0 1.98 1.395 3.332 2.895 3.332 1.109 0 1.68-.809 1.98-1.574zm-1.921.781c-.946 0-1.348-.766-1.485-1.05-.238-.567-.238-1.29-.238-1.966 0-.84 0-1.558.391-2.171.265-.407.671-.844 1.484-.844.851 0 1.289.75 1.437 1.097.301.735.301 2.008.301 2.235 0 1.262-.57 2.7-1.89 2.7m27.191-1.802c-.258.016-.316.032-.316.168 0 .149.074.149.347.149h.688c1.273 0 1.843 1.05 1.843 2.492 0 1.96-1.019 2.488-1.753 2.488-.719 0-1.95-.344-2.387-1.336.484.074.918-.195.918-.734a.71.71 0 0 0-.735-.735c-.363 0-.75.208-.75.778 0 1.336 1.332 2.433 3 2.433 1.786 0 3.106-1.367 3.106-2.882 0-1.38-1.109-2.457-2.551-2.715 1.305-.375 2.145-1.469 2.145-2.64 0-1.184-1.231-2.056-2.688-2.056-1.5 0-2.609.914-2.609 2.012 0 .598.465.719.691.719.317 0 .676-.223.676-.676 0-.476-.359-.687-.691-.687a.5.5 0 0 0-.165.015c.571-1.023 1.981-1.023 2.055-1.023.496 0 1.469.226 1.469 1.695 0 .285-.043 1.125-.481 1.774-.449.656-.957.703-1.363.718zm9.008-.027c.75-.406 1.847-1.098 1.847-2.355 0-1.31-1.261-2.208-2.64-2.208-1.485 0-2.656 1.094-2.656 2.461 0 .508.152 1.02.57 1.532.164.195.18.21 1.23.945-1.453.672-2.203 1.68-2.203 2.773 0 1.59 1.512 2.582 3.043 2.582 1.664 0 3.059-1.23 3.059-2.808 0-1.528-1.078-2.203-2.25-2.922m-2.039-1.352c-.196-.132-.797-.523-.797-1.257 0-.977 1.023-1.594 2.027-1.594 1.082 0 2.039.781 2.039 1.86 0 .917-.66 1.651-1.527 2.132zm.707 1.938 1.812 1.184c.391.253 1.082.718 1.082 1.632 0 1.14-1.156 1.922-2.355 1.922-1.278 0-2.371-.93-2.371-2.176 0-1.172.855-2.113 1.832-2.562M12.52-21.695a4.5 4.5 0 0 0 1.335.226c1.696 0 2.778-1.246 2.778-1.457 0-.058-.031-.137-.121-.137-.032 0-.063 0-.196.063a4.9 4.9 0 0 1-1.949.406c-.992 0-1.695-.3-1.984-.422-.102-.047-.133-.047-.149-.047-.117 0-.117.094-.117.332v4.458c0 .27 0 .359.18.359.074 0 .086-.016.238-.195a2.26 2.26 0 0 1 1.875-.977c.793 0 1.184.734 1.305.992.254.582.27 1.32.27 1.89 0 .567 0 1.423-.419 2.099-.332.539-.918.914-1.574.914a2.32 2.32 0 0 1-2.238-1.77.7.7 0 0 0 .242.047c.254 0 .66-.152.66-.66 0-.422-.285-.66-.66-.66-.27 0-.66.132-.66.718 0 1.274 1.02 2.73 2.684 2.73 1.695 0 3.18-1.425 3.18-3.331 0-1.781-1.2-3.27-2.774-3.27-.856 0-1.516.375-1.906.797zm9.699-1.02c0-.348 0-.363-.297-.363-.36.406-1.11.96-2.656.96v.438c.343 0 1.093 0 1.922-.39v7.816c0 .54-.047.719-1.368.719h-.465v.433c.407-.027 1.86-.027 2.356-.027.492 0 1.934 0 2.34.027v-.433h-.465c-1.32 0-1.367-.18-1.367-.719zm29.195-.152c0-.285 0-.36-.21-.36-.118 0-.165 0-.282.18l-4.516 7.008v.434h3.946v1.363c0 .558-.032.707-1.125.707h-.301v.433c.343-.027 1.527-.027 1.949-.027s1.621 0 1.965.027v-.433h-.3c-1.08 0-1.126-.149-1.126-.707v-1.363h1.516v-.434h-1.516zm-.988 1.172v5.656H46.78zm8.364 4.23c0 3.54-1.575 4.274-2.474 4.274-.363 0-1.156-.043-1.53-.567h.089c.105.027.645-.062.645-.617 0-.328-.223-.617-.614-.617-.39 0-.633.258-.633.648 0 .93.75 1.559 2.055 1.559 1.875 0 3.691-1.996 3.691-5.25 0-4.035-1.68-5.043-3-5.043-1.648 0-3.105 1.383-3.105 3.363s1.398 3.328 2.898 3.328c1.11 0 1.68-.808 1.977-1.574zm-1.919.777c-.945 0-1.352-.761-1.484-1.046-.242-.57-.242-1.29-.242-1.965 0-.84 0-1.563.39-2.176.27-.406.676-.84 1.485-.84.855 0 1.292.75 1.44 1.094.302.734.302 2.012.302 2.234 0 1.262-.57 2.7-1.89 2.7m29.843-6.18c0-.285 0-.36-.211-.36-.117 0-.164 0-.285.18l-4.516 7.008v.434h3.945v1.363c0 .558-.027.707-1.125.707h-.296v.433c.343-.027 1.527-.027 1.949-.027.418 0 1.62 0 1.965.027v-.433h-.301c-1.078 0-1.125-.149-1.125-.707v-1.363h1.516v-.434h-1.516zm-.988 1.172v5.656h-3.649zm7.445 3.179c.75-.406 1.844-1.093 1.844-2.355 0-1.305-1.262-2.207-2.641-2.207-1.484 0-2.656 1.098-2.656 2.46 0 .512.152 1.024.57 1.532.164.195.18.211 1.23.945-1.453.676-2.203 1.68-2.203 2.774 0 1.594 1.512 2.582 3.043 2.582 1.664 0 3.063-1.23 3.063-2.805 0-1.531-1.082-2.207-2.25-2.926m-2.043-1.351c-.192-.133-.793-.524-.793-1.258 0-.977 1.02-1.59 2.023-1.59 1.082 0 2.04.777 2.04 1.86 0 .914-.657 1.648-1.528 2.128zm.707 1.937 1.812 1.184c.391.254 1.083.723 1.083 1.637 0 1.14-1.157 1.918-2.356 1.918-1.273 0-2.371-.93-2.371-2.176 0-1.168.855-2.113 1.832-2.563m30.281-4.937c0-.285 0-.36-.211-.36-.121 0-.164 0-.285.18l-4.516 7.008v.434h3.946v1.363c0 .558-.031.707-1.125.707h-.301v.433c.344-.027 1.531-.027 1.949-.027.422 0 1.621 0 1.965.027v-.433h-.297c-1.082 0-1.125-.149-1.125-.707v-1.363h1.516v-.434h-1.516zm-.992 1.172v5.656h-3.645zm4.797 0c.644.21 1.168.226 1.332.226 1.695 0 2.777-1.246 2.777-1.457 0-.058-.031-.137-.121-.137-.027 0-.058 0-.195.063a4.87 4.87 0 0 1-3.93-.016c-.105-.047-.137-.047-.152-.047-.117 0-.117.094-.117.332v4.458c0 .27 0 .359.179.359.075 0 .09-.016.243-.195a2.26 2.26 0 0 1 1.875-.977c.792 0 1.183.734 1.304.992.254.582.27 1.32.27 1.89 0 .567 0 1.423-.422 2.099-.328.539-.914.914-1.574.914a2.32 2.32 0 0 1-2.235-1.77.7.7 0 0 0 .239.047c.253 0 .66-.152.66-.66 0-.422-.285-.66-.66-.66-.27 0-.661.132-.661.718 0 1.274 1.02 2.73 2.688 2.73 1.695 0 3.18-1.425 3.18-3.331 0-1.781-1.204-3.27-2.778-3.27-.855 0-1.511.375-1.902.797zm28.098 0a4.5 4.5 0 0 0 1.335.226c1.696 0 2.778-1.246 2.778-1.457 0-.058-.031-.137-.121-.137-.032 0-.063 0-.196.063a4.95 4.95 0 0 1-1.949.406c-.992 0-1.695-.3-1.984-.422-.102-.047-.133-.047-.149-.047-.117 0-.117.094-.117.332v4.458c0 .27 0 .359.18.359.074 0 .086-.016.238-.195a2.26 2.26 0 0 1 1.875-.977c.793 0 1.184.734 1.305.992.254.582.269 1.32.269 1.89 0 .567 0 1.423-.418 2.099-.332.539-.918.914-1.574.914a2.32 2.32 0 0 1-2.238-1.77.7.7 0 0 0 .242.047c.254 0 .66-.152.66-.66 0-.422-.285-.66-.66-.66-.269 0-.66.132-.66.718 0 1.274 1.019 2.73 2.684 2.73 1.695 0 3.179-1.425 3.179-3.331 0-1.781-1.199-3.27-2.773-3.27-.856 0-1.516.375-1.906.797zm12.101 3.797c0-1.247-.074-2.461-.613-3.602-.617-1.246-1.695-1.578-2.434-1.578-.871 0-1.933.437-2.488 1.683-.422.946-.57 1.875-.57 3.497 0 1.453.105 2.546.644 3.613a2.67 2.67 0 0 0 2.403 1.5c1.304 0 2.054-.781 2.488-1.649.539-1.129.57-2.597.57-3.464m-3.058 4.812c-.485 0-1.458-.27-1.743-1.906-.164-.899-.164-2.04-.164-3.086 0-1.235 0-2.344.239-3.227.253-1.008 1.019-1.472 1.668-1.472.566 0 1.437.347 1.722 1.636.195.856.195 2.04.195 3.063 0 1.004 0 2.14-.164 3.058-.285 1.649-1.23 1.934-1.753 1.934m29.753-9.781c0-.285 0-.36-.211-.36-.121 0-.164 0-.285.18l-4.515 7.008v.434h3.945v1.363c0 .558-.031.707-1.125.707h-.301v.433c.348-.027 1.531-.027 1.949-.027.422 0 1.622 0 1.969.027v-.433h-.301c-1.082 0-1.125-.149-1.125-.707v-1.363h1.516v-.434h-1.516zm-.992 1.172v5.656h-3.644zm4.821 3.375c0-3.797 1.847-4.395 2.656-4.395.539 0 1.082.164 1.363.613-.18 0-.75 0-.75.618 0 .328.227.613.617.613.375 0 .629-.223.629-.66 0-.782-.57-1.547-1.875-1.547-1.89 0-3.871 1.937-3.871 5.238 0 4.125 1.801 5.055 3.078 5.055 1.633 0 3.028-1.426 3.028-3.375 0-1.996-1.395-3.332-2.895-3.332-1.336 0-1.828 1.156-1.98 1.578zm1.847 5.129c-.945 0-1.398-.84-1.531-1.153-.137-.39-.285-1.125-.285-2.176 0-1.183.539-2.671 1.89-2.671.825 0 1.258.554 1.485 1.066.238.555.238 1.305.238 1.95 0 .765 0 1.44-.285 2.01-.375.72-.914.974-1.512.974m29.723-9.676c0-.285 0-.36-.211-.36-.117 0-.164 0-.285.18l-4.516 7.008v.434h3.945v1.363c0 .558-.027.707-1.125.707h-.296v.433c.343-.027 1.527-.027 1.949-.027.418 0 1.621 0 1.965.027v-.433h-.301c-1.078 0-1.125-.149-1.125-.707v-1.363h1.515v-.434h-1.515zm-.988 1.172v5.656h-3.649zm8.39-1.172c0-.285 0-.36-.211-.36-.121 0-.164 0-.285.18l-4.516 7.008v.434h3.946v1.363c0 .558-.031.707-1.125.707h-.301v.433c.344-.027 1.531-.027 1.949-.027.422 0 1.621 0 1.965.027v-.433h-.297c-1.082 0-1.125-.149-1.125-.707v-1.363h1.516v-.434h-1.516zm-.992 1.172v5.656h-3.645zm28.992-1.172c0-.285 0-.36-.211-.36-.121 0-.164 0-.285.18l-4.516 7.008v.434h3.946v1.363c0 .558-.031.707-1.125.707h-.301v.433c.344-.027 1.531-.027 1.949-.027.422 0 1.621 0 1.965.027v-.433h-.297c-1.082 0-1.125-.149-1.125-.707v-1.363h1.516v-.434h-1.516zm-.992 1.172v5.656h-3.645zm9.477 6.074h-.332c-.043.254-.165 1.082-.313 1.32-.105.137-.961.137-1.41.137h-2.777c.406-.344 1.32-1.305 1.71-1.664 2.282-2.102 3.122-2.883 3.122-4.367 0-1.727-1.368-2.883-3.106-2.883-1.742 0-2.762 1.488-2.762 2.777 0 .766.661.766.707.766.313 0 .704-.227.704-.707 0-.418-.286-.703-.704-.703-.136 0-.168 0-.211.015.286-1.02 1.094-1.71 2.071-1.71 1.273 0 2.054 1.066 2.054 2.445 0 1.273-.734 2.383-1.589 3.343l-3.032 3.391v.36h5.477z"/></g></svg>