<svg xmlns="http://www.w3.org/2000/svg" width="323pt" height="323pt" viewBox="0 -323 323 323"><g id="page1"><path fill="#ffff80" d="M319.98-161.242c0-9.391-7.613-17.008-17.007-17.008s-17.008 7.617-17.008 17.008c0 9.394 7.613 17.008 17.008 17.008s17.007-7.614 17.007-17.008"/><path fill="none" stroke="#000" stroke-linecap="round" stroke-linejoin="round" stroke-width="5" d="M319.98-161.242c0-9.391-7.613-17.008-17.007-17.008s-17.008 7.617-17.008 17.008c0 9.394 7.613 17.008 17.008 17.008s17.007-7.614 17.007-17.008"/><path fill="#ffff80" d="M121.555-19.508c0-9.394-7.614-17.008-17.008-17.008-9.395 0-17.008 7.614-17.008 17.008 0 9.39 7.613 17.008 17.008 17.008s17.008-7.617 17.008-17.008"/><path fill="none" stroke="#000" stroke-linecap="round" stroke-linejoin="round" stroke-width="5" d="M121.555-19.508c0-9.394-7.614-17.008-17.008-17.008-9.395 0-17.008 7.614-17.008 17.008 0 9.39 7.613 17.008 17.008 17.008s17.008-7.617 17.008-17.008"/><path fill="#ffff80" d="M36.516-104.547c0-9.394-7.614-17.008-17.008-17.008S2.5-113.941 2.5-104.547c0 9.39 7.613 17.008 17.008 17.008s17.008-7.617 17.008-17.008"/><path fill="none" stroke="#000" stroke-linecap="round" stroke-linejoin="round" stroke-width="5" d="M36.516-104.547c0-9.394-7.614-17.008-17.008-17.008S2.5-113.941 2.5-104.547c0 9.39 7.613 17.008 17.008 17.008s17.008-7.617 17.008-17.008"/><path fill="#ffff80" d="M64.863-246.281c0-9.395-7.617-17.008-17.007-17.008-9.395 0-17.008 7.613-17.008 17.008s7.613 17.008 17.008 17.008c9.39 0 17.007-7.614 17.007-17.008"/><path fill="none" stroke="#000" stroke-linecap="round" stroke-linejoin="round" stroke-width="5" d="M64.863-246.281c0-9.395-7.617-17.008-17.007-17.008-9.395 0-17.008 7.613-17.008 17.008s7.613 17.008 17.008 17.008c9.39 0 17.007-7.614 17.007-17.008"/><path fill="#ffff80" d="M263.289-47.855c0-9.395-7.617-17.008-17.008-17.008-9.394 0-17.011 7.613-17.011 17.008s7.617 17.007 17.011 17.007c9.391 0 17.008-7.613 17.008-17.007"/><path fill="none" stroke="#000" stroke-linecap="round" stroke-linejoin="round" stroke-width="5" d="M263.289-47.855c0-9.395-7.617-17.008-17.008-17.008-9.394 0-17.011 7.613-17.011 17.008s7.617 17.007 17.011 17.007c9.391 0 17.008-7.613 17.008-17.007"/><path fill="#ffff80" d="M234.941-302.973c0-9.394-7.617-17.007-17.007-17.007-9.395 0-17.008 7.613-17.008 17.007s7.613 17.008 17.008 17.008c9.39 0 17.007-7.613 17.007-17.008"/><path fill="none" stroke="#000" stroke-linecap="round" stroke-linejoin="round" stroke-width="5" d="M234.941-302.973c0-9.394-7.617-17.007-17.007-17.007-9.395 0-17.008 7.613-17.008 17.007s7.613 17.008 17.008 17.008c9.39 0 17.007-7.613 17.007-17.008"/><path fill="#ffff80" d="M291.633-217.934c0-9.394-7.613-17.007-17.008-17.007-9.391 0-17.008 7.613-17.008 17.007s7.617 17.008 17.008 17.008c9.395 0 17.008-7.613 17.008-17.008"/><g fill="none" stroke-linecap="round" stroke-linejoin="round" stroke-width="5"><path stroke="#000" d="M291.633-217.934c0-9.394-7.613-17.007-17.008-17.007-9.391 0-17.008 7.613-17.008 17.007s7.617 17.008 17.008 17.008c9.395 0 17.008-7.613 17.008-17.008"/><g stroke="maroon"><path d="M286.84-166.617a2869 2869 0 0 0-110.668-39.418 2874 2874 0 0 0-112.184-34.867m36.434 204.894a2239 2239 0 0 1-26.387-96.344 2239 2239 0 0 1-22.054-97.429m7.902-4.473A44931 44931 0 0 0 234.254-59.883"/><path d="M249.074-64.633a1777 1777 0 0 0 12.703-68.043 1781 1781 0 0 0 10.051-68.48m-65.922-89.789q-43.594 43.588-87.187 87.183-43.589 43.594-87.184 87.188"/></g></g><path d="M307.805-161.148c0-1.981-.117-3.918-.977-5.735-.98-1.984-2.703-2.508-3.875-2.508-1.383 0-3.082.692-3.965 2.676-.668 1.504-.91 2.988-.91 5.567 0 2.32.168 4.062 1.031 5.761.93 1.817 2.579 2.391 3.821 2.391 2.078 0 3.273-1.246 3.968-2.633.86-1.789.907-4.133.907-5.519m-4.875 7.671c-.766 0-2.317-.429-2.77-3.035-.265-1.433-.265-3.25-.265-4.922 0-1.961 0-3.726.382-5.136.407-1.602 1.625-2.344 2.653-2.344.91 0 2.297.551 2.75 2.605.308 1.364.308 3.25.308 4.875 0 1.602 0 3.418-.261 4.875-.454 2.629-1.961 3.082-2.797 3.082M105.582-27.117c0-.551 0-.574-.477-.574-.574.644-1.769 1.527-4.23 1.527v.695c.551 0 1.742 0 3.059-.62v12.448c0 .86-.075 1.149-2.176 1.149h-.738v.691c.644-.047 2.96-.047 3.75-.047.789 0 3.082 0 3.726.047v-.691h-.738c-2.102 0-2.176-.29-2.176-1.149zm-81.367-73.696h-.527c-.07.407-.262 1.72-.5 2.102-.168.215-1.532.215-2.247.215H16.52c.644-.55 2.105-2.078 2.722-2.652 3.633-3.348 4.973-4.59 4.973-6.954 0-2.75-2.176-4.589-4.95-4.589-2.769 0-4.394 2.367-4.394 4.421 0 1.219 1.05 1.219 1.121 1.219.504 0 1.125-.359 1.125-1.125 0-.668-.453-1.121-1.125-1.121-.21 0-.262 0-.332.024.453-1.625 1.746-2.723 3.297-2.723 2.031 0 3.273 1.695 3.273 3.894 0 2.032-1.168 3.797-2.53 5.329l-4.829 5.398v.574h8.723zM46.398-247.18c-.406.024-.504.047-.504.266 0 .238.122.238.551.238h1.098c2.031 0 2.941 1.672 2.941 3.965 0 3.133-1.625 3.969-2.797 3.969-1.148 0-3.105-.551-3.8-2.129.765.121 1.457-.309 1.457-1.168 0-.695-.5-1.176-1.168-1.176-.574 0-1.196.336-1.196 1.246 0 2.125 2.126 3.871 4.778 3.871 2.844 0 4.949-2.175 4.949-4.59 0-2.195-1.77-3.917-4.062-4.324 2.078-.597 3.417-2.34 3.417-4.207 0-1.886-1.96-3.273-4.28-3.273-2.387 0-4.157 1.457-4.157 3.203 0 .957.742 1.148 1.102 1.148.5 0 1.074-.359 1.074-1.078 0-.765-.574-1.097-1.102-1.097-.144 0-.191 0-.261.023.906-1.625 3.156-1.625 3.273-1.625.789 0 2.344.359 2.344 2.699 0 .453-.075 1.793-.766 2.821-.719 1.05-1.531 1.125-2.176 1.148zM249.027-55.758c0-.453 0-.57-.336-.57-.187 0-.261 0-.453.285l-7.191 11.16v.692h6.281v2.175c0 .883-.047 1.121-1.789 1.121h-.48v.696c.55-.051 2.437-.051 3.109-.051.668 0 2.578 0 3.129.05v-.694h-.477c-1.722 0-1.793-.239-1.793-1.122v-2.175h2.414v-.692h-2.414zm-1.578 1.867v9.008h-5.808zM215.16-308.992a7 7 0 0 0 2.125.359c2.699 0 4.422-1.984 4.422-2.32 0-.094-.047-.215-.191-.215-.047 0-.094 0-.313.098a7.8 7.8 0 0 1-3.105.644c-1.578 0-2.7-.48-3.153-.668-.168-.074-.218-.074-.242-.074-.187 0-.187.145-.187.527v7.098c0 .43 0 .574.285.574.121 0 .144-.027.383-.312a3.6 3.6 0 0 1 2.988-1.555c1.266 0 1.887 1.172 2.074 1.578.41.934.434 2.102.434 3.012 0 .906 0 2.269-.672 3.344-.524.863-1.457 1.457-2.508 1.457a3.69 3.69 0 0 1-3.559-2.817c.118.047.262.071.379.071.407 0 1.051-.239 1.051-1.051 0-.672-.449-1.051-1.051-1.051-.429 0-1.05.215-1.05 1.145 0 2.031 1.625 4.351 4.277 4.351 2.699 0 5.066-2.273 5.066-5.305 0-2.843-1.91-5.211-4.418-5.211-1.363 0-2.414.598-3.035 1.266zm56.578 90.476c0-6.047 2.942-7 4.231-7 .859 0 1.719.262 2.176.977-.29 0-1.196 0-1.196.98 0 .528.36.981.981.981.597 0 1.004-.36 1.004-1.051 0-1.242-.911-2.461-2.989-2.461-3.011 0-6.164 3.082-6.164 8.336 0 6.574 2.867 8.055 4.899 8.055 2.601 0 4.828-2.27 4.828-5.375 0-3.18-2.227-5.305-4.613-5.305-2.129 0-2.918 1.84-3.157 2.508zm2.942 8.172c-1.508 0-2.223-1.336-2.438-1.84-.215-.621-.453-1.793-.453-3.464 0-1.887.859-4.254 3.008-4.254 1.316 0 2.008.886 2.367 1.699.383.883.383 2.074.383 3.105 0 1.219 0 2.293-.453 3.2-.598 1.148-1.461 1.554-2.414 1.554"/></g></svg>