<svg xmlns="http://www.w3.org/2000/svg" width="578pt" height="544" viewBox="0 -408 578 408"><g id="page1"><path fill="#ffff80" d="M149.902-388.012c0-9.394-7.617-17.008-17.007-17.008-9.395 0-17.008 7.614-17.008 17.008 0 9.391 7.613 17.008 17.008 17.008 9.39 0 17.007-7.617 17.007-17.008"/><path fill="none" stroke="#000" stroke-linecap="round" stroke-linejoin="round" stroke-width="5" d="M149.902-388.012c0-9.394-7.617-17.008-17.007-17.008-9.395 0-17.008 7.614-17.008 17.008 0 9.391 7.613 17.008 17.008 17.008 9.39 0 17.007-7.617 17.007-17.008"/><path fill="#ffff80" d="M36.516-246.281c0-9.395-7.614-17.008-17.008-17.008S2.5-255.676 2.5-246.281s7.613 17.008 17.008 17.008 17.008-7.614 17.008-17.008"/><path fill="none" stroke="#000" stroke-linecap="round" stroke-linejoin="round" stroke-width="5" d="M36.516-246.281c0-9.395-7.614-17.008-17.008-17.008S2.5-255.676 2.5-246.281s7.613 17.008 17.008 17.008 17.008-7.614 17.008-17.008"/><path fill="#ffff80" d="M234.941-161.242c0-9.391-7.617-17.008-17.007-17.008-9.395 0-17.008 7.617-17.008 17.008 0 9.394 7.613 17.008 17.008 17.008 9.39 0 17.007-7.614 17.007-17.008"/><path fill="none" stroke="#000" stroke-linecap="round" stroke-linejoin="round" stroke-width="5" d="M234.941-161.242c0-9.391-7.617-17.008-17.007-17.008-9.395 0-17.008 7.617-17.008 17.008 0 9.394 7.613 17.008 17.008 17.008 9.39 0 17.007-7.614 17.007-17.008"/><path fill="#ffff80" d="M291.633-359.664c0-9.395-7.613-17.012-17.008-17.012-9.391 0-17.008 7.617-17.008 17.012 0 9.391 7.617 17.008 17.008 17.008 9.395 0 17.008-7.617 17.008-17.008"/><path fill="none" stroke="#000" stroke-linecap="round" stroke-linejoin="round" stroke-width="5" d="M291.633-359.664c0-9.395-7.613-17.012-17.008-17.012-9.391 0-17.008 7.617-17.008 17.012 0 9.391 7.617 17.008 17.008 17.008 9.395 0 17.008-7.617 17.008-17.008"/><path fill="#ffff80" d="M546.754-388.012c0-9.394-7.617-17.008-17.012-17.008-9.39 0-17.008 7.614-17.008 17.008 0 9.391 7.618 17.008 17.008 17.008 9.395 0 17.012-7.617 17.012-17.008"/><path fill="none" stroke="#000" stroke-linecap="round" stroke-linejoin="round" stroke-width="5" d="M546.754-388.012c0-9.394-7.617-17.008-17.012-17.008-9.39 0-17.008 7.614-17.008 17.008 0 9.391 7.618 17.008 17.008 17.008 9.395 0 17.012-7.617 17.012-17.008"/><path fill="#ffff80" d="M575.098-246.281c0-9.395-7.614-17.008-17.008-17.008-9.395 0-17.008 7.613-17.008 17.008s7.613 17.008 17.008 17.008 17.008-7.614 17.008-17.008"/><path fill="none" stroke="#000" stroke-linecap="round" stroke-linejoin="round" stroke-width="5" d="M575.098-246.281c0-9.395-7.614-17.008-17.008-17.008-9.395 0-17.008 7.613-17.008 17.008s7.613 17.008 17.008 17.008 17.008-7.614 17.008-17.008"/><path fill="#ffff80" d="M319.98-274.629c0-9.391-7.613-17.008-17.007-17.008s-17.008 7.617-17.008 17.008c0 9.395 7.613 17.012 17.008 17.012s17.007-7.617 17.007-17.012"/><path fill="none" stroke="#000" stroke-linecap="round" stroke-linejoin="round" stroke-width="5" d="M319.98-274.629c0-9.391-7.613-17.008-17.007-17.008s-17.008 7.617-17.008 17.008c0 9.395 7.613 17.012 17.008 17.012s17.007-7.617 17.007-17.012"/><path fill="#ffff80" d="M93.207-19.508c0-9.394-7.613-17.008-17.008-17.008-9.39 0-17.008 7.614-17.008 17.008C59.191-10.118 66.81-2.5 76.2-2.5c9.395 0 17.008-7.617 17.008-17.008"/><path fill="none" stroke="#000" stroke-linecap="round" stroke-linejoin="round" stroke-width="5" d="M93.207-19.508c0-9.394-7.613-17.008-17.008-17.008-9.39 0-17.008 7.614-17.008 17.008C59.191-10.118 66.81-2.5 76.2-2.5c9.395 0 17.008-7.617 17.008-17.008"/><path fill="#ffff80" d="M490.059-104.547c0-9.394-7.614-17.008-17.008-17.008-9.395 0-17.008 7.614-17.008 17.008 0 9.39 7.613 17.008 17.008 17.008s17.008-7.617 17.008-17.008"/><path fill="none" stroke="#000" stroke-linecap="round" stroke-linejoin="round" stroke-width="5" d="M490.059-104.547c0-9.394-7.614-17.008-17.008-17.008-9.395 0-17.008 7.614-17.008 17.008 0 9.39 7.613 17.008 17.008 17.008s17.008-7.617 17.008-17.008"/><path fill="#ffff80" d="M546.754-132.895c0-9.394-7.617-17.007-17.012-17.007-9.39 0-17.008 7.613-17.008 17.007s7.618 17.008 17.008 17.008c9.395 0 17.012-7.613 17.012-17.008"/><path fill="none" stroke="#000" stroke-linecap="round" stroke-linejoin="round" stroke-width="5" d="M546.754-132.895c0-9.394-7.617-17.007-17.012-17.007-9.39 0-17.008 7.613-17.008 17.007s7.618 17.008 17.008 17.008c9.395 0 17.012-7.613 17.012-17.008"/><path fill="#ffff80" d="M348.328-104.547c0-9.394-7.617-17.008-17.008-17.008-9.394 0-17.007 7.614-17.007 17.008 0 9.39 7.613 17.008 17.007 17.008 9.391 0 17.008-7.617 17.008-17.008"/><path fill="none" stroke="#000" stroke-linecap="round" stroke-linejoin="round" stroke-width="5" d="M348.328-104.547c0-9.394-7.617-17.008-17.008-17.008-9.394 0-17.007 7.614-17.007 17.008 0 9.39 7.613 17.008 17.007 17.008 9.391 0 17.008-7.617 17.008-17.008"/><path fill="#ffff80" d="M433.367-47.855c0-9.395-7.613-17.008-17.008-17.008s-17.007 7.613-17.007 17.008 7.613 17.007 17.007 17.007 17.008-7.613 17.008-17.007"/><path fill="none" stroke="#000" stroke-linecap="round" stroke-linejoin="round" stroke-width="5" d="M433.367-47.855c0-9.395-7.613-17.008-17.008-17.008s-17.007 7.613-17.007 17.008 7.613 17.007 17.007 17.007 17.008-7.613 17.008-17.007"/><path fill="#ffff80" d="M121.555-161.242c0-9.391-7.614-17.008-17.008-17.008-9.395 0-17.008 7.617-17.008 17.008 0 9.394 7.613 17.008 17.008 17.008s17.008-7.614 17.008-17.008"/><path fill="none" stroke="#000" stroke-linecap="round" stroke-linejoin="round" stroke-width="5" d="M121.555-161.242c0-9.391-7.614-17.008-17.008-17.008-9.395 0-17.008 7.617-17.008 17.008 0 9.394 7.613 17.008 17.008 17.008s17.008-7.614 17.008-17.008"/><path fill="#ffff80" d="M518.406-189.59c0-9.39-7.613-17.008-17.008-17.008s-17.007 7.618-17.007 17.008c0 9.395 7.613 17.012 17.007 17.012s17.008-7.617 17.008-17.012"/><path fill="none" stroke="#000" stroke-linecap="round" stroke-linejoin="round" stroke-width="5" d="M518.406-189.59c0-9.39-7.613-17.008-17.008-17.008s-17.007 7.618-17.007 17.008c0 9.395 7.613 17.012 17.007 17.012s17.008-7.617 17.008-17.012"/><path fill="#ffff80" d="M433.367-331.32c0-9.395-7.613-17.008-17.008-17.008s-17.007 7.613-17.007 17.008 7.613 17.007 17.007 17.007 17.008-7.613 17.008-17.007"/><path fill="none" stroke="#000" stroke-linecap="round" stroke-linejoin="round" stroke-width="5" d="M433.367-331.32c0-9.395-7.613-17.008-17.008-17.008s-17.007 7.613-17.007 17.008 7.613 17.007 17.007 17.007 17.008-7.613 17.008-17.007"/><path fill="#ffff80" d="M149.902-302.973c0-9.394-7.617-17.007-17.007-17.007-9.395 0-17.008 7.613-17.008 17.007s7.613 17.008 17.008 17.008c9.39 0 17.007-7.613 17.007-17.008"/><path fill="none" stroke="#000" stroke-linecap="round" stroke-linejoin="round" stroke-width="5" d="M149.902-302.973c0-9.394-7.617-17.007-17.007-17.007-9.395 0-17.008 7.613-17.008 17.007s7.613 17.008 17.008 17.008c9.39 0 17.007-7.613 17.007-17.008"/><path fill="#ffff80" d="M348.328-189.59c0-9.39-7.617-17.008-17.008-17.008-9.394 0-17.007 7.618-17.007 17.008 0 9.395 7.613 17.012 17.007 17.012 9.391 0 17.008-7.617 17.008-17.012"/><path fill="none" stroke="#000" stroke-linecap="round" stroke-linejoin="round" stroke-width="5" d="M348.328-189.59c0-9.39-7.617-17.008-17.008-17.008-9.394 0-17.007 7.618-17.007 17.008 0 9.395 7.613 17.012 17.007 17.012 9.391 0 17.008-7.617 17.008-17.012"/><path fill="#ffff80" d="M206.594-76.203c0-9.39-7.614-17.008-17.008-17.008-9.395 0-17.008 7.617-17.008 17.008 0 9.394 7.613 17.008 17.008 17.008s17.008-7.614 17.008-17.008"/><path fill="none" stroke="#000" stroke-linecap="round" stroke-linejoin="round" stroke-width="5" d="M206.594-76.203c0-9.39-7.614-17.008-17.008-17.008-9.395 0-17.008 7.617-17.008 17.008 0 9.394 7.613 17.008 17.008 17.008s17.008-7.614 17.008-17.008"/><path fill="#ffff80" d="M36.516-104.547c0-9.394-7.614-17.008-17.008-17.008S2.5-113.941 2.5-104.547c0 9.39 7.613 17.008 17.008 17.008s17.008-7.617 17.008-17.008"/><path fill="none" stroke="#000" stroke-linecap="round" stroke-linejoin="round" stroke-width="5" d="M36.516-104.547c0-9.394-7.614-17.008-17.008-17.008S2.5-113.941 2.5-104.547c0 9.39 7.613 17.008 17.008 17.008s17.008-7.617 17.008-17.008"/><path fill="#ffff80" d="M348.328-19.508c0-9.394-7.617-17.008-17.008-17.008-9.394 0-17.007 7.614-17.007 17.008 0 9.39 7.613 17.008 17.007 17.008 9.391 0 17.008-7.617 17.008-17.008"/><g fill="none" stroke-linecap="round" stroke-linejoin="round" stroke-width="5"><path stroke="#000" d="M348.328-19.508c0-9.394-7.617-17.008-17.008-17.008-9.394 0-17.007 7.614-17.007 17.008 0 9.39 7.613 17.008 17.007 17.008 9.391 0 17.008-7.617 17.008-17.008"/><g stroke="maroon"><path d="M30.133-259.563a1628 1628 0 0 1 44.758-58.632 1623 1623 0 0 1 47.379-56.535M36.43-247.973q62.437-5.94 124.84-12.179 62.402-6.242 124.781-12.782M147.047-378.578a1896 1896 0 0 1 71.945 45.668 1899 1899 0 0 1 69.828 48.847m3.95 23.043a901 901 0 0 1-31.032 44.051 902 902 0 0 1-33.601 42.121"/><path d="M107.883-177.918a2205 2205 0 0 1 10.152-54.324 2192 2192 0 0 1 11.524-54.055m18.101-8.238a6779 6779 0 0 1 168.891 96.508m31.269 4.312c32.293-8.07 64.59-16.144 96.883-24.219l96.887-24.222M331.32-36.516v-51.023m17.008-17.008h107.715m-419.758 2.793A1175 1175 0 0 1 172.81-78.996M91.414-27.113a529 529 0 0 0 82.96-41.48m32.091-5.501c32.168 4.024 64.34 8.043 96.508 12.067 32.168 4.02 64.34 8.043 96.507 12.062m130.262-321.039v221.102m-238.437-206.43 54.187 10.84q27.094 5.414 54.188 10.836"/><path d="m425.109-316.734 33.77 56.281c11.254 18.762 22.512 37.519 33.769 56.281"/></g></g><path d="M137.707-387.945c0-1.985-.121-3.922-.98-5.739-.981-1.98-2.704-2.507-3.872-2.507-1.386 0-3.082.695-3.968 2.675-.668 1.508-.907 2.989-.907 5.571 0 2.316.168 4.062 1.028 5.757.93 1.817 2.582 2.391 3.824 2.391 2.078 0 3.273-1.242 3.965-2.629.859-1.793.91-4.137.91-5.519m-4.875 7.668c-.766 0-2.32-.43-2.773-3.036-.262-1.433-.262-3.25-.262-4.921 0-1.961 0-3.727.383-5.137.406-1.602 1.625-2.344 2.652-2.344.906 0 2.293.551 2.746 2.606.313 1.363.313 3.25.313 4.875 0 1.601 0 3.418-.262 4.875-.457 2.629-1.961 3.082-2.797 3.082M20.582-253.918c0-.551 0-.574-.477-.574-.574.648-1.77 1.527-4.23 1.527v.695c.55 0 1.742 0 3.059-.621v12.45c0 .863-.075 1.148-2.176 1.148h-.738v.691c.644-.046 2.96-.046 3.75-.046.789 0 3.082 0 3.726.046v-.691h-.738c-2.102 0-2.176-.285-2.176-1.148zm202.031 96.402h-.523c-.074.407-.262 1.723-.5 2.102-.168.219-1.531.219-2.25.219h-4.418c.644-.551 2.101-2.078 2.723-2.653 3.632-3.347 4.968-4.59 4.968-6.957 0-2.746-2.172-4.586-4.945-4.586s-4.398 2.368-4.398 4.422c0 1.215 1.05 1.215 1.125 1.215.5 0 1.121-.355 1.121-1.121 0-.668-.453-1.121-1.121-1.121-.215 0-.262 0-.336.023.457-1.625 1.746-2.726 3.3-2.726 2.032 0 3.274 1.695 3.274 3.894 0 2.032-1.172 3.801-2.535 5.332l-4.828 5.399v.574h8.722zm50.582-203.062c-.406.023-.5.047-.5.262 0 .238.118.238.551.238h1.098c2.031 0 2.937 1.672 2.937 3.969 0 3.129-1.625 3.964-2.793 3.964-1.148 0-3.105-.55-3.8-2.125.765.122 1.457-.312 1.457-1.171 0-.692-.5-1.172-1.168-1.172-.575 0-1.196.336-1.196 1.246 0 2.125 2.125 3.871 4.778 3.871 2.843 0 4.949-2.176 4.949-4.59 0-2.199-1.77-3.918-4.063-4.324 2.078-.598 3.414-2.344 3.414-4.207 0-1.887-1.957-3.274-4.277-3.274-2.387 0-4.156 1.457-4.156 3.203 0 .954.738 1.145 1.097 1.145.504 0 1.079-.355 1.079-1.074 0-.766-.575-1.102-1.102-1.102-.145 0-.191 0-.262.028.907-1.625 3.153-1.625 3.274-1.625.789 0 2.34.355 2.34 2.699 0 .453-.071 1.793-.762 2.82-.719 1.051-1.531 1.121-2.176 1.149zm259.332-35.277c0-.458 0-.575-.336-.575-.187 0-.261 0-.453.285l-7.191 11.161v.695h6.281v2.172c0 .887-.047 1.125-1.789 1.125h-.48v.691c.55-.047 2.437-.047 3.109-.047.668 0 2.578 0 3.129.047v-.691h-.477c-1.722 0-1.793-.238-1.793-1.125v-2.172h2.414v-.695h-2.414zm-1.578 1.863v9.008h-5.808zm24.309 141.699a7 7 0 0 0 2.129.359c2.699 0 4.418-1.984 4.418-2.32 0-.094-.047-.215-.188-.215-.051 0-.097 0-.312.098a7.8 7.8 0 0 1-3.106.644 7.8 7.8 0 0 1-3.156-.668c-.164-.074-.215-.074-.238-.074-.192 0-.192.145-.192.528v7.097c0 .43 0 .574.285.574.122 0 .145-.027.383-.312a3.6 3.6 0 0 1 2.989-1.551c1.265 0 1.886 1.168 2.078 1.574.406.934.433 2.106.433 3.012s0 2.27-.672 3.344c-.523.863-1.457 1.461-2.507 1.461a3.69 3.69 0 0 1-3.559-2.821c.117.047.262.071.379.071.406 0 1.051-.238 1.051-1.051 0-.672-.453-1.051-1.051-1.051-.43 0-1.051.215-1.051 1.149 0 2.031 1.625 4.347 4.277 4.347 2.7 0 5.067-2.269 5.067-5.304 0-2.844-1.91-5.211-4.422-5.211-1.363 0-2.414.597-3.035 1.265zm-255.219-22.922c0-6.047 2.938-7.004 4.231-7.004.859 0 1.718.266 2.175.981-.289 0-1.199 0-1.199.98 0 .524.363.981.981.981.601 0 1.007-.36 1.007-1.051 0-1.242-.91-2.461-2.988-2.461-3.012 0-6.168 3.078-6.168 8.336 0 6.574 2.867 8.055 4.899 8.055 2.605 0 4.828-2.27 4.828-5.375 0-3.18-2.223-5.305-4.61-5.305-2.129 0-2.918 1.836-3.156 2.508zm2.938 8.172c-1.504 0-2.219-1.34-2.438-1.84-.211-.621-.449-1.793-.449-3.465 0-1.886.855-4.254 3.008-4.254 1.316 0 2.007.883 2.367 1.696.383.883.383 2.078.383 3.109 0 1.219 0 2.293-.457 3.199-.594 1.149-1.457 1.555-2.414 1.555M81.652-26.64v-.547h-5.761c-2.891 0-2.938-.313-3.035-.766h-.524l-.742 4.777h.527c.07-.43.285-1.91.598-2.176.191-.14 1.98-.14 2.316-.14h5.067l-2.535 3.633c-.645.93-3.055 4.851-3.055 9.343 0 .262 0 1.22.976 1.22 1.004 0 1.004-.934 1.004-1.243v-1.195c0-3.563.575-6.336 1.7-7.934zm392.668-78.786c1.196-.644 2.942-1.746 2.942-3.754 0-2.078-2.008-3.511-4.207-3.511-2.367 0-4.231 1.746-4.231 3.918 0 .812.239 1.625.91 2.437.262.313.286.336 1.957 1.508-2.316 1.074-3.511 2.676-3.511 4.422 0 2.531 2.414 4.11 4.851 4.11 2.653 0 4.875-1.962 4.875-4.47 0-2.437-1.718-3.515-3.586-4.66m-3.25-2.152c-.308-.215-1.265-.836-1.265-2.008 0-1.551 1.625-2.531 3.226-2.531 1.723 0 3.25 1.242 3.25 2.961 0 1.461-1.051 2.629-2.437 3.394zm1.125 3.082 2.891 1.891c.621.406 1.719 1.144 1.719 2.601 0 1.817-1.836 3.059-3.75 3.059-2.032 0-3.774-1.48-3.774-3.461 0-1.867 1.36-3.371 2.914-4.09m60.453-27.66c0 5.64-2.511 6.812-3.945 6.812-.574 0-1.84-.07-2.437-.91h.144c.168.051 1.028-.094 1.028-.976 0-.528-.36-.981-.981-.981s-1.004.406-1.004 1.027c0 1.481 1.195 2.485 3.274 2.485 2.988 0 5.878-3.18 5.878-8.364 0-6.429-2.675-8.027-4.777-8.027-2.629 0-4.949 2.199-4.949 5.352 0 3.152 2.223 5.304 4.613 5.304 1.77 0 2.676-1.289 3.156-2.507zm-3.058 1.246c-1.508 0-2.152-1.219-2.367-1.676-.383-.906-.383-2.055-.383-3.129 0-1.34 0-2.484.621-3.465.43-.644 1.074-1.336 2.367-1.336 1.36 0 2.055 1.192 2.293 1.743.477 1.171.477 3.203.477 3.558 0 2.012-.907 4.305-3.008 4.305m-203.106 18.793c0-.551 0-.574-.48-.574-.574.644-1.77 1.527-4.231 1.527v.695c.551 0 1.747 0 3.059-.621v12.45c0 .859-.07 1.148-2.172 1.148h-.742v.691c.645-.047 2.965-.047 3.754-.047.785 0 3.082 0 3.726.047v-.691h-.742c-2.101 0-2.172-.29-2.172-1.149zm15.524 7.672c0-1.985-.121-3.922-.981-5.739-.98-1.98-2.703-2.507-3.871-2.507-1.386 0-3.086.695-3.968 2.675-.668 1.508-.907 2.989-.907 5.571 0 2.316.164 4.062 1.028 5.757.929 1.817 2.578 2.391 3.824 2.391 2.078 0 3.273-1.242 3.965-2.629.859-1.793.91-4.137.91-5.519m-4.875 7.668c-.766 0-2.32-.43-2.774-3.035-.265-1.434-.265-3.251-.265-4.922 0-1.961 0-3.727.383-5.137.406-1.602 1.625-2.344 2.656-2.344.906 0 2.293.551 2.746 2.606.309 1.363.309 3.25.309 4.875 0 1.601 0 3.418-.262 4.875-.453 2.628-1.957 3.082-2.793 3.082m74.449 41.261c0-.55 0-.574-.477-.574-.574.645-1.769 1.528-4.23 1.528v.695c.551 0 1.742 0 3.059-.625v12.453c0 .86-.075 1.145-2.176 1.145h-.738v.695c.644-.051 2.96-.051 3.75-.051.789 0 3.082 0 3.726.05v-.694h-.738c-2.102 0-2.176-.286-2.176-1.145zm11.699 0c0-.55 0-.574-.476-.574-.575.645-1.77 1.528-4.231 1.528v.695c.551 0 1.746 0 3.059-.625v12.453c0 .86-.07 1.145-2.172 1.145h-.742v.695c.644-.051 2.961-.051 3.75-.051s3.086 0 3.726.05v-.694h-.738c-2.102 0-2.176-.286-2.176-1.145zm-323.597-113.3c0-.551 0-.575-.48-.575-.571.645-1.766 1.528-4.227 1.528v.695c.546 0 1.742 0 3.054-.621v12.449c0 .86-.07 1.145-2.172 1.145h-.742v.695c.645-.047 2.965-.047 3.754-.047.785 0 3.082 0 3.727.047v-.695h-.743c-2.101 0-2.171-.285-2.171-1.145zm15.332 11.3h-.528c-.07.407-.261 1.723-.5 2.102-.168.219-1.531.219-2.246.219h-4.422c.645-.551 2.102-2.078 2.723-2.653 3.633-3.347 4.973-4.59 4.973-6.957 0-2.746-2.176-4.586-4.95-4.586-2.769 0-4.394 2.368-4.394 4.422 0 1.215 1.051 1.215 1.121 1.215.504 0 1.125-.355 1.125-1.121 0-.668-.453-1.121-1.125-1.121-.215 0-.262 0-.332.023.453-1.625 1.742-2.726 3.297-2.726 2.031 0 3.273 1.695 3.273 3.894 0 2.032-1.172 3.801-2.535 5.332l-4.824 5.399v.574h8.723zm381.566-39.703c0-.547 0-.57-.477-.57-.574.644-1.769 1.527-4.23 1.527v.692c.551 0 1.742 0 3.059-.621v12.449c0 .863-.075 1.148-2.176 1.148h-.738v.696c.644-.051 2.96-.051 3.75-.051.789 0 3.082 0 3.726.051v-.696h-.738c-2.102 0-2.176-.285-2.176-1.148zm9.215 6.739c-.406.027-.5.05-.5.265 0 .238.117.238.547.238h1.101c2.032 0 2.938 1.672 2.938 3.965 0 3.133-1.625 3.969-2.793 3.969-1.149 0-3.11-.551-3.801-2.129.766.121 1.457-.308 1.457-1.168 0-.695-.504-1.172-1.172-1.172-.57 0-1.195.332-1.195 1.242 0 2.129 2.129 3.872 4.781 3.872 2.844 0 4.945-2.176 4.945-4.586 0-2.2-1.765-3.922-4.062-4.329 2.078-.597 3.418-2.339 3.418-4.203 0-1.89-1.957-3.273-4.277-3.273-2.391 0-4.161 1.453-4.161 3.199 0 .957.743 1.149 1.102 1.149.504 0 1.074-.36 1.074-1.075 0-.765-.57-1.101-1.097-1.101-.145 0-.192 0-.262.023.906-1.625 3.152-1.625 3.269-1.625.789 0 2.344.36 2.344 2.703 0 .453-.07 1.789-.765 2.821-.715 1.047-1.528 1.121-2.172 1.144zm-94.215-148.438c0-.551 0-.574-.477-.574-.574.648-1.769 1.527-4.23 1.527v.695c.551 0 1.742 0 3.059-.621v12.45c0 .863-.075 1.148-2.176 1.148h-.738v.691c.644-.046 2.96-.046 3.75-.046.789 0 3.082 0 3.726.046v-.691h-.738c-2.102 0-2.176-.285-2.176-1.148zm13.445-.238c0-.453 0-.574-.336-.574-.187 0-.261 0-.453.285l-7.191 11.16v.695h6.281v2.176c0 .883-.047 1.121-1.789 1.121h-.48v.691c.55-.046 2.437-.046 3.109-.046.668 0 2.578 0 3.129.046v-.691h-.477c-1.722 0-1.793-.238-1.793-1.121v-2.176h2.414v-.695h-2.414zm-1.578 1.863v9.008h-5.808zm-295.367 26.676c0-.551 0-.574-.477-.574-.574.644-1.769 1.527-4.23 1.527v.695c.551 0 1.742 0 3.059-.621v12.449c0 .86-.075 1.149-2.176 1.149h-.738v.691c.644-.047 2.96-.047 3.75-.047.789 0 3.082 0 3.726.047v-.691h-.738c-2.102 0-2.176-.289-2.176-1.149zm7.879 1.625a7 7 0 0 0 2.125.359c2.699 0 4.422-1.984 4.422-2.32 0-.094-.047-.215-.192-.215-.05 0-.097 0-.312.098a7.8 7.8 0 0 1-3.106.644c-1.578 0-2.699-.48-3.156-.668-.164-.074-.215-.074-.238-.074-.191 0-.191.145-.191.527v7.098c0 .43 0 .574.289.574.117 0 .14-.027.382-.312a3.6 3.6 0 0 1 2.985-1.555c1.265 0 1.89 1.172 2.078 1.578.406.934.433 2.102.433 3.012 0 .906 0 2.269-.671 3.344-.524.863-1.457 1.457-2.508 1.457a3.69 3.69 0 0 1-3.559-2.817c.117.047.262.071.379.071.406 0 1.051-.239 1.051-1.051 0-.672-.453-1.051-1.051-1.051-.43 0-1.051.215-1.051 1.145 0 2.031 1.625 4.351 4.278 4.351 2.699 0 5.066-2.273 5.066-5.305 0-2.843-1.91-5.211-4.422-5.211-1.359 0-2.414.598-3.031 1.266zm190.523 111.773c0-.547 0-.57-.48-.57-.574.644-1.77 1.527-4.231 1.527v.692c.551 0 1.747 0 3.059-.621v12.449c0 .863-.07 1.148-2.172 1.148h-.742v.696c.645-.051 2.965-.051 3.754-.051.785 0 3.082 0 3.726.051v-.696h-.742c-2.101 0-2.172-.285-2.172-1.148zm7.754 7.004c0-6.047 2.942-7.004 4.231-7.004.859 0 1.719.266 2.176.981-.29 0-1.196 0-1.196.98 0 .524.36.981.981.981.597 0 1.004-.36 1.004-1.051 0-1.242-.911-2.461-2.989-2.461-3.011 0-6.164 3.078-6.164 8.336 0 6.574 2.867 8.055 4.899 8.055 2.601 0 4.828-2.27 4.828-5.375 0-3.18-2.227-5.305-4.613-5.305-2.129 0-2.918 1.836-3.157 2.508zm2.942 8.172c-1.508 0-2.223-1.34-2.438-1.84-.215-.621-.453-1.793-.453-3.465 0-1.886.859-4.254 3.008-4.254 1.316 0 2.008.883 2.367 1.696.383.883.383 2.078.383 3.109 0 1.219 0 2.293-.453 3.199-.598 1.149-1.461 1.555-2.414 1.555M184.781-83.816c0-.551 0-.575-.476-.575-.575.645-1.77 1.528-4.231 1.528v.695c.551 0 1.746 0 3.059-.621v12.45c0 .858-.07 1.144-2.172 1.144h-.742v.695c.644-.047 2.961-.047 3.75-.047s3.086 0 3.726.047v-.695h-.738c-2.102 0-2.176-.286-2.176-1.145zm16.172.476v-.55h-5.762c-2.89 0-2.937-.31-3.035-.766h-.523l-.742 4.781h.523c.074-.43.289-1.91.602-2.176.187-.14 1.98-.14 2.316-.14h5.066l-2.535 3.629c-.644.933-3.058 4.851-3.058 9.343 0 .266 0 1.219.98 1.219 1.004 0 1.004-.93 1.004-1.242v-1.195c0-3.56.574-6.332 1.695-7.93zM14.684-112.117c0-.551 0-.574-.48-.574-.571.644-1.767 1.527-4.227 1.527v.695c.546 0 1.742 0 3.054-.621v12.45c0 .859-.07 1.148-2.172 1.148h-.742v.691c.645-.047 2.965-.047 3.754-.047.785 0 3.082 0 3.727.047v-.691h-.742c-2.102 0-2.172-.29-2.172-1.149zm11.937 6.691c1.195-.644 2.942-1.746 2.942-3.754 0-2.078-2.008-3.511-4.207-3.511-2.368 0-4.231 1.746-4.231 3.918 0 .812.238 1.625.906 2.437.266.313.29.336 1.961 1.508-2.316 1.074-3.512 2.676-3.512 4.422 0 2.531 2.415 4.11 4.852 4.11 2.652 0 4.875-1.962 4.875-4.47 0-2.437-1.723-3.515-3.586-4.66m-3.25-2.152c-.308-.215-1.265-.836-1.265-2.008 0-1.551 1.624-2.531 3.226-2.531 1.719 0 3.25 1.242 3.25 2.961 0 1.461-1.05 2.629-2.437 3.394zm1.121 3.082 2.895 1.891c.62.406 1.718 1.144 1.718 2.601 0 1.817-1.84 3.059-3.75 3.059-2.03 0-3.777-1.48-3.777-3.461 0-1.867 1.363-3.371 2.914-4.09m301.992 77.379c0-.551 0-.574-.48-.574-.574.644-1.77 1.527-4.231 1.527v.695c.551 0 1.747 0 3.059-.62v12.448c0 .86-.07 1.149-2.172 1.149h-.742v.691c.645-.047 2.965-.047 3.754-.047.785 0 3.082 0 3.726.047v-.691h-.742c-2.101 0-2.172-.29-2.172-1.149zm13.563 8.363c0 5.64-2.508 6.809-3.945 6.809-.571 0-1.84-.07-2.438-.907h.145c.168.047 1.027-.093 1.027-.98 0-.523-.359-.98-.981-.98-.621 0-1.003.406-1.003 1.03 0 1.481 1.195 2.485 3.277 2.485 2.984 0 5.879-3.18 5.879-8.367 0-6.426-2.68-8.027-4.781-8.027-2.629 0-4.946 2.199-4.946 5.351 0 3.156 2.223 5.309 4.61 5.309 1.769 0 2.679-1.293 3.156-2.512zm-3.059 1.242c-1.508 0-2.152-1.218-2.367-1.672-.383-.91-.383-2.054-.383-3.128 0-1.34 0-2.489.621-3.47.43-.644 1.079-1.335 2.368-1.335 1.363 0 2.054 1.195 2.293 1.742.476 1.172.476 3.203.476 3.563 0 2.007-.906 4.3-3.008 4.3"/></g></svg>