<svg xmlns="http://www.w3.org/2000/svg" width="320" height="34pt" viewBox="0 -34 240 34"><g id="page1"><path fill="#1a1a1a" d="M6.297-30.844a28.35 28.35 0 0 0 0 28.348h92.125c13.734-5 28.789-5 42.519 0h92.129a28.35 28.35 0 0 0 0-28.348h-92.129c-13.73 5-28.785 5-42.52 0z"/><path fill="none" stroke="#8c8c8c" stroke-linecap="round" stroke-linejoin="round" stroke-width="5" d="M6.297-30.844a28.35 28.35 0 0 0 0 28.348h92.125c13.734-5 28.789-5 42.519 0h92.129a28.35 28.35 0 0 0 0-28.348h-92.129c-13.73 5-28.785 5-42.52 0z"/></g></svg>