<svg xmlns="http://www.w3.org/2000/svg" width="667.376" height="69.527" viewBox="56.675 104.931 500.532 52.145"><g id="page1"><path fill="none" stroke="#e6e6e6" stroke-linecap="round" stroke-linejoin="round" stroke-miterlimit="10.037" stroke-width="1.999" d="M156.941 156.004h100v-50h-100z"/><path fill="none" stroke="#e6e6e6" stroke-linecap="round" stroke-linejoin="round" stroke-miterlimit="10.037" stroke-width="3" d="M206.94 146.004v-30"/><path fill="none" stroke="#e6e6e6" stroke-linecap="round" stroke-linejoin="round" stroke-miterlimit="10.037" stroke-width="1.999" d="M256.941 156.004h100v-50h-100z"/><path fill="none" stroke="#e6e6e6" stroke-linecap="round" stroke-linejoin="round" stroke-miterlimit="10.037" stroke-width="3" d="M306.94 146.004v-30"/><path fill="none" stroke="#e6e6e6" stroke-linecap="round" stroke-linejoin="round" stroke-miterlimit="10.037" stroke-width="1.999" d="M356.941 156.004h100v-50h-100z"/><path fill="none" stroke="#e6e6e6" stroke-linecap="round" stroke-linejoin="round" stroke-miterlimit="10.037" stroke-width="3" d="M406.94 146.004v-30"/><path fill="#ffffc0" d="M62.691 156.004c2.95.097 85.551.097 88.5 0 2.74-.09 4.957-2.274 5-5 .021-1.333.021-38.667 0-40-.043-2.727-2.26-4.91-5-5-2.949-.097-85.55-.097-88.5 0-2.74.09-4.956 2.273-5 5-.021 1.333-.021 38.667 0 40 .044 2.726 2.26 4.91 5 5"/><path fill="none" stroke="#0c0c0c" stroke-linecap="round" stroke-linejoin="round" stroke-miterlimit="10.037" stroke-width="1.999" d="M62.691 156.004c2.95.097 85.551.097 88.5 0 2.74-.09 4.957-2.274 5-5 .021-1.333.021-38.667 0-40-.043-2.727-2.26-4.91-5-5-2.949-.097-85.55-.097-88.5 0-2.74.09-4.956 2.273-5 5-.021 1.333-.021 38.667 0 40 .044 2.726 2.26 4.91 5 5"/><path fill="none" stroke="#0c0c0c" stroke-linecap="round" stroke-linejoin="round" stroke-miterlimit="10.037" stroke-width="3" d="M106.941 146.004v-30"/><path d="M74.441 143.504a5 5 0 1 0-10 0 5 5 0 0 0 10 0m0-25a5 5 0 1 0-10 0 5 5 0 0 0 10 0m25 25a5 5 0 1 0-10 0 5 5 0 0 0 10 0m0-25a5 5 0 1 0-10 0 5 5 0 0 0 10 0m25 25a5 5 0 1 0-10 0 5 5 0 0 0 10 0m12.5-12.5a5 5 0 1 0-10 0 5 5 0 0 0 10 0m12.5-12.5a5 5 0 1 0-10 0 5 5 0 0 0 10 0"/><path fill="#ffffc0" d="M462.69 156.004c2.95.097 85.552.097 88.5 0 2.742-.09 4.958-2.274 5.001-5 .021-1.333.021-38.667 0-40-.043-2.727-2.26-4.91-5-5-2.95-.097-85.55-.097-88.5 0-2.74.09-4.957 2.273-5 5-.021 1.333-.021 38.667 0 40 .043 2.726 2.26 4.91 5 5"/><path fill="none" stroke="#0c0c0c" stroke-linecap="round" stroke-linejoin="round" stroke-miterlimit="10.037" stroke-width="1.999" d="M462.69 156.004c2.95.097 85.552.097 88.5 0 2.742-.09 4.958-2.274 5.001-5 .021-1.333.021-38.667 0-40-.043-2.727-2.26-4.91-5-5-2.95-.097-85.55-.097-88.5 0-2.74.09-4.957 2.273-5 5-.021 1.333-.021 38.667 0 40 .043 2.726 2.26 4.91 5 5"/><path fill="none" stroke="#0c0c0c" stroke-linecap="round" stroke-linejoin="round" stroke-miterlimit="10.037" stroke-width="3" d="M506.94 146.004v-30"/><path d="M486.94 131.004a5 5 0 1 0-9.999 0 5 5 0 0 0 10 0m37.5 12.5a5 5 0 1 0-10 0 5 5 0 0 0 10 0m0-25a5 5 0 1 0-10 0 5 5 0 0 0 10 0m25 25a5 5 0 1 0-10 0 5 5 0 0 0 10 0m0-25a5 5 0 1 0-10 0 5 5 0 0 0 10 0m-12.5 25a5 5 0 1 0-10 0 5 5 0 0 0 10 0m0-25a5 5 0 1 0-10 0 5 5 0 0 0 10 0"/></g></svg>