<svg xmlns="http://www.w3.org/2000/svg" width="124.017" height="35.917" viewBox="102.916 67.317 93.013 26.937"><g id="page1" fill-rule="evenodd"><path fill="#e0e0e0" d="M142.4 70.172c-.232.233-.093.372.698.605.465.14 1.628.279 2.604.325l1.768.047-2-.512c-1.953-.558-2.884-.651-3.07-.465m8.65 2.14c-3.115.604-4.697 1.022-6.138 1.627l-1.07.465-1.395-.326c-1.442-.279-2-.279-2.325.14-.186.186-.186.233 0 .372.279.14 1.023.372 1.906.512.326.046.558.186.512.279-.186.279 2.325.232 5.72-.093 1.256-.14 2.93-.28 3.628-.28l1.348-.046.419-1.21c.604-1.86.604-1.952.325-1.952-.186 0-1.488.232-2.93.511m20.556.325c-.744.372-.837.418-.558.558.186.046.93.14 1.674.14h1.349v-1.07h-.837c-.512 0-1.07.14-1.628.372m-39.065.558c-.232.093-1.07.279-1.86.465-.837.186-1.674.418-1.907.558-.418.186-.744.651-.744.977 0 .232 1.256.511 2.651.511 1.72.047 2.046-.14 2.372-1.488.14-.558.232-1.07.232-1.116 0-.14-.325-.093-.744.093m22.695 1.953c-1.907.419-2.93 1.116-3.116 2-.232 1.116.605 1.628 2.697 1.628 2.512 0 5.628-.744 6.79-1.628.558-.465 1.07-1.302.884-1.488-.14-.14-6.046-.651-6.65-.605a3 3 0 0 0-.605.093m11.161.512c-.744.186-1.395.697-1.534 1.255-.186.744.046.837 2.372.884 1.209 0 2.232-.047 2.278-.14.047-.046-.14-.558-.418-1.116l-.512-1.023h-.79c-.419 0-1.07.093-1.396.14m12.697.744c-.652.418-.977.93-.977 1.441v.465h4.697l-.605-.465c-.65-.465-2.557-1.72-2.604-1.72 0 0-.232.14-.511.279m16.51.79c0 .28-2.745 3.023-3.86 3.86-2.512 1.907-4.698 2.605-7.535 2.465-.93-.046-1.953-.186-2.279-.279-.558-.186-.558-.186-1.534.698-2.372 2.185-4.697 3.86-6.418 4.604-2.372 1.07-4.186 1.209-9.115.604-4.604-.511-6.279-.558-6.93-.232l-.511.279-.512-.558c-.697-.744-.697-1.395 0-2.046.512-.466 5.628-4.651 6.232-5.116.233-.186.093-.14-.837.046-.651.186-3.953.977-7.394 1.768-9.07 2.185-10.371 2.464-14.045 2.79-4.186.372-7.674-.046-14.231-1.674-4-.977-7.162-1.674-8.51-1.953-1.303-.186-7.535-.28-10.092-.14-3.86.279-4.558.326-4.837.326-.465 0-.326.279.232.372a37 37 0 0 0 4.14.65c3.627.233 5.534.466 10.324 1.163 5.534.79 6.697.977 8.975 1.628 7.627 2 7.534 2 10.743 1.86 2.744-.093 4.14-.325 7.627-1.209 1.954-.465 2.837-.79 4.65-1.674 2.42-1.21 3.721-1.674 6.14-2.14 1.627-.325 4.697-.697 4.836-.604 0 .047-.465.233-1.07.419-.604.186-1.86.697-2.836 1.116-2.186.976-5.348 3.07-5.023 3.255.512.372 4.186 1.953 5.209 2.186.744.232 1.674.512 2.046.651 1.442.512 3.023.605 6.883.233 1.953-.14 4.232-.326 4.976-.419 1.628-.093 3.86-.79 5.813-1.767.698-.326 1.907-.79 2.605-.977.744-.186 1.441-.372 1.534-.465.326-.186.837-1.442.837-2.14 0-.464-.093-.604-.418-.836l-.465-.233.465.093c2.14.419 3.395 1.163 4.185 2.465.14.186.28.186 1.442 0 1.953-.279 2.697-.79 4.046-2.697.28-.372 1.21-1.349 2.046-2.093 2.093-1.86 2.79-2.79 2.79-3.72 0-.373-.092-.698-.139-.698-.093 0-.186.046-.186.14m-57.436 1.628c-.93.28-1.86.605-2.092.698-.605.325-1.396.93-1.396 1.116 0 .046.28.279.605.418.884.465 3.116.651 8.464.698 3.907 0 4.744 0 5.255-.233.372-.14.651-.279.698-.372 0-.093-7.58-2.325-9.58-2.79-.14 0-.977.186-1.954.465m48.227-.372c-.232.372 1.116 1.07 2.046 1.07s.79-.186-.418-.698c-1.442-.558-1.488-.604-1.628-.372m-58.179 1.21c-.279.139-.558.371-.65.51-.14.28-.14.28.557 0 .419-.139 1.023-.418 1.302-.51l.558-.233-.65-.047c-.326 0-.838.14-1.117.28m37.716.79c-.418.232-.883.604-1.07.883l-.278.512.65.465c1.21.884 3.35 1.256 5.814.977l1.256-.093-2.651-1.628c-1.442-.837-2.697-1.581-2.79-1.581s-.512.232-.93.465m10.418.79c.093.186 1.814.744 3.07.977.976.233 5.254.512 4.51.326-1.162-.28-7.673-1.396-7.58-1.303"/><path fill="gray" d="M195.65 78.915c-.14.233-1.21 1.349-2.419 2.558s-2.557 2.604-3.022 3.162c-.977 1.116-1.535 1.442-3.302 1.768l-1.21.232-.325-.651c-.512-.884-1.72-1.581-3.442-2-.418-.14-.418-.14-.186.28.233.325.233.51.093 1.115-.279 1.163-.697 1.721-1.395 1.86-1.162.187-2.278.559-3.488 1.163-1.953.977-4.185 1.675-5.999 1.814-8.138.744-9.906.79-11.998.14-.698-.233-1.721-.559-2.326-.745-.604-.186-1.953-.744-3.023-1.255l-1.953-.93.419-.326c1.953-1.535 4.743-3.023 7.255-3.953.93-.325.976-.325.465-.372-.79 0-4 .558-5.72 1.023-.884.233-2.465.837-3.86 1.535-2.605 1.21-3.488 1.535-6.046 2.186-2.977.697-4.604.93-7.302.93-2.79 0-3.255-.093-6.883-1.116-4.976-1.349-6.324-1.628-11.161-2.28-1.023-.139-2.697-.418-3.72-.557-1.024-.186-3.302-.419-5.023-.558-2.837-.186-6.511-.698-6.883-.93-.186-.14-.14.325.093.604.093.14.512.28 1.116.326.512.046 1.953.418 3.209.883 1.302.419 3.395 1.023 4.65 1.396 1.303.325 3.024.837 3.814 1.07 2.465.743 3.07.836 6.464.93l3.256.092 1.907.79c1.07.42 2.464.884 3.069.978 1.442.232 4.976.279 8.79.093 4.79-.233 7.254-.233 8.696.14.698.139 2.651.697 4.372 1.255 4.743 1.488 6.045 1.767 10.138 2.139.465.046 1.535.186 2.372.279.883.093 3.58.186 6.092.233 6.139.139 6.79 0 9.999-2.093 1.907-1.256 2.511-1.488 4.604-1.907 2.697-.512 3.209-.79 5.767-3.627 2.139-2.372 2.976-3.442 3.534-4.651.465-.977.884-2.604.744-3.116-.046-.279-.046-.232-.232.093"/><path fill="silver" d="M142.819 67.382c-5.767.744-10.045 2.046-18.416 5.627-1.023.465-3.302 1.209-5.116 1.72-8.697 2.512-10.324 3.07-12.464 4.326a11.3 11.3 0 0 0-1.813 1.255c-.744.605-1.954 1.954-1.954 2.233 0 .093.605.093 4.977-.233 2.557-.14 8.79-.046 10.091.14 1.349.279 4.511.976 8.511 1.953 6.557 1.628 10.045 2.046 14.23 1.674 3.675-.326 4.977-.605 14.046-2.79 3.44-.79 6.743-1.582 7.394-1.768.93-.186 1.07-.232.837-.046-.604.465-5.72 4.65-6.232 5.116-.697.65-.697 1.302 0 2.046l.512.558.511-.28c.651-.325 2.326-.278 6.93.233 4.93.605 6.743.465 9.115-.604 1.72-.744 4.046-2.419 6.418-4.604.976-.884.976-.884 1.534-.698.326.093 1.35.233 2.233.28 1.813.092 3.209-.14 4.79-.791 1.814-.745 4.232-2.605 6-4.744l.883-.977-.651-.604c-.93-.79-2.419-1.302-5.628-1.814-3.162-.558-4.65-.93-5.86-1.581-.93-.465-2.464-1.07-3.952-1.628-.605-.186-1.349-.279-3.023-.279-2.233-.046-2.326-.046-5.348-.93-6.279-1.72-8.976-2.14-16.045-2.418-2.093-.093-4.744-.233-5.906-.326-2.046-.14-5.627-.14-6.604-.046m-.419 2.79c-.232.233-.093.372.698.605.465.14 1.628.279 2.604.325l1.768.047-2-.512c-1.953-.558-2.884-.651-3.07-.465m8.65 2.14c-3.115.604-4.697 1.022-6.138 1.627l-1.07.465-1.395-.326c-1.442-.279-2-.279-2.325.14-.186.186-.186.233 0 .372.279.14 1.023.372 1.906.512.326.046.558.186.512.279-.186.279 2.325.232 5.72-.093 1.256-.14 2.93-.28 3.628-.28l1.348-.046.419-1.21c.604-1.86.604-1.952.325-1.952-.186 0-1.488.232-2.93.511m20.556.325c-.744.372-.837.418-.558.558.186.046.93.14 1.674.14h1.349v-1.07h-.837c-.512 0-1.07.14-1.628.372m-39.065.558c-.232.093-1.07.279-1.86.465-.837.186-1.674.418-1.907.558-.418.186-.744.651-.744.977 0 .232 1.256.511 2.651.511 1.72.047 2.046-.14 2.372-1.488.14-.558.232-1.07.232-1.116 0-.14-.325-.093-.744.093m22.695 1.953c-1.907.419-2.93 1.116-3.116 2-.232 1.116.605 1.628 2.697 1.628 2.512 0 5.628-.744 6.79-1.628.558-.465 1.07-1.302.884-1.488-.14-.14-6.046-.651-6.65-.605a3 3 0 0 0-.605.093m11.161.512c-.744.186-1.395.697-1.534 1.255-.186.744.046.837 2.372.884 1.209 0 2.232-.047 2.278-.14.047-.046-.14-.558-.418-1.116l-.512-1.023h-.79c-.419 0-1.07.093-1.396.14m12.697.744c-.652.418-.977.93-.977 1.441v.465h4.697l-.605-.465c-.65-.465-2.557-1.72-2.604-1.72 0 0-.232.14-.511.279m-40.926 2.418c-.93.28-1.86.605-2.092.698-.605.325-1.396.93-1.396 1.116 0 .046.28.279.605.418.884.465 3.116.651 8.464.698 3.907 0 4.744 0 5.255-.233.372-.14.651-.279.698-.372 0-.093-7.58-2.325-9.58-2.79-.14 0-.977.186-1.954.465m48.227-.372c-.232.372 1.116 1.07 2.046 1.07s.79-.186-.418-.698c-1.442-.558-1.488-.604-1.628-.372m-58.179 1.21c-.279.139-.558.371-.65.51-.14.28-.14.28.557 0 .419-.139 1.023-.418 1.302-.51l.558-.233-.65-.047c-.326 0-.838.14-1.117.28m37.716.79c-.418.232-.883.604-1.07.883l-.278.512.65.465c1.21.884 3.35 1.256 5.814.977l1.256-.093-2.651-1.628c-1.442-.837-2.697-1.581-2.79-1.581s-.512.232-.93.465m10.418.79c.093.186 1.814.744 3.07.977.976.233 5.254.512 4.51.326-1.162-.28-7.673-1.396-7.58-1.303m-16.184 1.582c.186.093.372.093.511 0 .233-.14.186-.186-.232-.186-.465 0-.512.046-.28.186m-51.854 1.023h1.023c.232-.047.046-.093-.512-.093s-.79.046-.511.093m2.092.14c.233.046.605.046.837 0 .233-.047.047-.047-.418-.047s-.651 0-.419.046m25.346 4.51h1.953c.512-.046.093-.046-.976-.046-1.07 0-1.535 0-.977.046m33.298 1.86h1.023c.28-.046.047-.092-.511-.092s-.744.046-.512.093"/></g></svg>