<svg xmlns="http://www.w3.org/2000/svg" width="172pt" height="456" viewBox="0 -342 172 342"><g id="page1"><path fill="#ffd9b2" d="M10.004-8.95h5.953c1.633 0 3.2.65 4.355 1.805l4.895 4.895c.996 1 2.613 1 3.61 0l4.894-4.895a6.16 6.16 0 0 1 4.355-1.804h129.547a2.55 2.55 0 0 0 2.551-2.551v-47.644a2.55 2.55 0 0 0-2.551-2.551H38.066a6.16 6.16 0 0 0-4.355 1.804l-4.895 4.895a2.553 2.553 0 0 1-3.609 0l-4.895-4.895a6.16 6.16 0 0 0-4.355-1.804H4.051a2.55 2.55 0 0 0-2.551 2.55V-11.5c0 1.41 1.14 2.55 2.55 2.55z"/><path fill="none" stroke="#b25900" stroke-linecap="round" stroke-linejoin="round" stroke-width="3" d="M10.004-8.95h5.953c1.633 0 3.2.65 4.355 1.805l4.895 4.895c.996 1 2.613 1 3.61 0l4.894-4.895a6.16 6.16 0 0 1 4.355-1.804h129.547a2.55 2.55 0 0 0 2.551-2.551v-47.644a2.55 2.55 0 0 0-2.551-2.551H38.066a6.16 6.16 0 0 0-4.355 1.804l-4.895 4.895a2.553 2.553 0 0 1-3.609 0l-4.895-4.895a6.16 6.16 0 0 0-4.355-1.804H4.051a2.55 2.55 0 0 0-2.551 2.55V-11.5c0 1.41 1.14 2.55 2.55 2.55z"/><path fill="#ffd9b2" d="M10.004-64.64h5.953c1.633 0 3.2.648 4.355 1.804l4.895 4.895a2.553 2.553 0 0 0 3.61 0l4.894-4.895a6.16 6.16 0 0 1 4.355-1.805h129.547a2.55 2.55 0 0 0 2.551-2.55v-47.649a2.55 2.55 0 0 0-2.551-2.551H38.066a6.18 6.18 0 0 0-4.355 1.805l-4.895 4.898a2.55 2.55 0 0 1-3.609 0l-4.895-4.898a6.18 6.18 0 0 0-4.355-1.805H4.051A2.55 2.55 0 0 0 1.5-114.84v47.649a2.55 2.55 0 0 0 2.55 2.55z"/><path fill="none" stroke="#b25900" stroke-linecap="round" stroke-linejoin="round" stroke-width="3" d="M10.004-64.64h5.953c1.633 0 3.2.648 4.355 1.804l4.895 4.895a2.553 2.553 0 0 0 3.61 0l4.894-4.895a6.16 6.16 0 0 1 4.355-1.805h129.547a2.55 2.55 0 0 0 2.551-2.55v-47.649a2.55 2.55 0 0 0-2.551-2.551H38.066a6.18 6.18 0 0 0-4.355 1.805l-4.895 4.898a2.55 2.55 0 0 1-3.609 0l-4.895-4.898a6.18 6.18 0 0 0-4.355-1.805H4.051A2.55 2.55 0 0 0 1.5-114.84v47.649a2.55 2.55 0 0 0 2.55 2.55z"/><path fill="#ffd9b2" d="M10.004-120.336h5.953c1.633 0 3.2.652 4.355 1.805l4.895 4.894c.996 1 2.613 1 3.61 0l4.894-4.894a6.17 6.17 0 0 1 4.355-1.805h129.547a2.55 2.55 0 0 0 2.551-2.551v-47.644a2.55 2.55 0 0 0-2.551-2.551H38.066a6.16 6.16 0 0 0-4.355 1.805l-4.895 4.894a2.554 2.554 0 0 1-3.609 0l-4.895-4.894a6.16 6.16 0 0 0-4.355-1.805H4.051a2.55 2.55 0 0 0-2.551 2.551v47.644a2.55 2.55 0 0 0 2.55 2.551z"/><path fill="none" stroke="#b25900" stroke-linecap="round" stroke-linejoin="round" stroke-width="3" d="M10.004-120.336h5.953c1.633 0 3.2.652 4.355 1.805l4.895 4.894c.996 1 2.613 1 3.61 0l4.894-4.894a6.17 6.17 0 0 1 4.355-1.805h129.547a2.55 2.55 0 0 0 2.551-2.551v-47.644a2.55 2.55 0 0 0-2.551-2.551H38.066a6.16 6.16 0 0 0-4.355 1.805l-4.895 4.894a2.554 2.554 0 0 1-3.609 0l-4.895-4.894a6.16 6.16 0 0 0-4.355-1.805H4.051a2.55 2.55 0 0 0-2.551 2.551v47.644a2.55 2.55 0 0 0 2.55 2.551z"/><path fill="#ffd9b2" d="M10.004-176.027h5.953c1.633 0 3.2.648 4.355 1.804l4.895 4.895a2.554 2.554 0 0 0 3.61 0l4.894-4.895a6.16 6.16 0 0 1 4.355-1.804h129.547a2.55 2.55 0 0 0 2.551-2.551v-47.645c0-1.41-1.141-2.55-2.551-2.55H38.066a6.17 6.17 0 0 0-4.355 1.8l-4.895 4.899a2.554 2.554 0 0 1-3.609 0l-4.895-4.899a6.17 6.17 0 0 0-4.355-1.8H4.051a2.55 2.55 0 0 0-2.551 2.55v47.645a2.55 2.55 0 0 0 2.55 2.551z"/><path fill="none" stroke="#b25900" stroke-linecap="round" stroke-linejoin="round" stroke-width="3" d="M10.004-176.027h5.953c1.633 0 3.2.648 4.355 1.804l4.895 4.895a2.554 2.554 0 0 0 3.61 0l4.894-4.895a6.16 6.16 0 0 1 4.355-1.804h129.547a2.55 2.55 0 0 0 2.551-2.551v-47.645c0-1.41-1.141-2.55-2.551-2.55H38.066a6.17 6.17 0 0 0-4.355 1.8l-4.895 4.899a2.554 2.554 0 0 1-3.609 0l-4.895-4.899a6.17 6.17 0 0 0-4.355-1.8H4.051a2.55 2.55 0 0 0-2.551 2.55v47.645a2.55 2.55 0 0 0 2.55 2.551z"/><path fill="#ffd9b2" d="M10.004-231.723h5.953c1.633 0 3.2.653 4.355 1.805l4.895 4.898a2.55 2.55 0 0 0 3.61 0l4.894-4.898a6.18 6.18 0 0 1 4.355-1.805h129.547c1.41 0 2.551-1.14 2.551-2.55v-47.645a2.55 2.55 0 0 0-2.551-2.551H38.066a6.16 6.16 0 0 0-4.355 1.805l-4.895 4.894a2.55 2.55 0 0 1-3.609 0l-4.895-4.894a6.16 6.16 0 0 0-4.355-1.805H4.051a2.55 2.55 0 0 0-2.551 2.551v47.645c0 1.41 1.14 2.55 2.55 2.55z"/><path fill="none" stroke="#b25900" stroke-linecap="round" stroke-linejoin="round" stroke-width="3" d="M10.004-231.723h5.953c1.633 0 3.2.653 4.355 1.805l4.895 4.898a2.55 2.55 0 0 0 3.61 0l4.894-4.898a6.18 6.18 0 0 1 4.355-1.805h129.547c1.41 0 2.551-1.14 2.551-2.55v-47.645a2.55 2.55 0 0 0-2.551-2.551H38.066a6.16 6.16 0 0 0-4.355 1.805l-4.895 4.894a2.55 2.55 0 0 1-3.609 0l-4.895-4.894a6.16 6.16 0 0 0-4.355-1.805H4.051a2.55 2.55 0 0 0-2.551 2.551v47.645c0 1.41 1.14 2.55 2.55 2.55z"/><path fill="#ffd9b2" d="M10.004-287.414h5.953c1.633 0 3.2.648 4.355 1.805l4.895 4.894a2.554 2.554 0 0 0 3.61 0l4.894-4.894a6.16 6.16 0 0 1 4.355-1.805h129.547a2.55 2.55 0 0 0 2.551-2.551v-47.644a2.55 2.55 0 0 0-2.551-2.551H38.066a6.16 6.16 0 0 0-4.355 1.805l-4.895 4.894a2.554 2.554 0 0 1-3.609 0l-4.895-4.894a6.16 6.16 0 0 0-4.355-1.805H4.051a2.55 2.55 0 0 0-2.551 2.551v47.644a2.55 2.55 0 0 0 2.55 2.551z"/><path fill="none" stroke="#b25900" stroke-linecap="round" stroke-linejoin="round" stroke-width="3" d="M10.004-287.414h5.953c1.633 0 3.2.648 4.355 1.805l4.895 4.894a2.554 2.554 0 0 0 3.61 0l4.894-4.894a6.16 6.16 0 0 1 4.355-1.805h129.547a2.55 2.55 0 0 0 2.551-2.551v-47.644a2.55 2.55 0 0 0-2.551-2.551H38.066a6.16 6.16 0 0 0-4.355 1.805l-4.895 4.894a2.554 2.554 0 0 1-3.609 0l-4.895-4.894a6.16 6.16 0 0 0-4.355-1.805H4.051a2.55 2.55 0 0 0-2.551 2.551v47.644a2.55 2.55 0 0 0 2.55 2.551z"/><path d="M30.133-35.105c0-2.223 0-2.895-.547-3.657-.695-.933-1.816-1.078-2.629-1.078-1.984 0-2.988 1.434-3.371 2.367-.336-1.84-1.625-2.367-3.129-2.367-2.32 0-3.227 1.985-3.418 2.465h-.023v-2.465l-3.25.266v.691c1.625 0 1.816.168 1.816 1.34v6.473c0 1.078-.262 1.078-1.816 1.078v.691c.62-.047 1.91-.047 2.578-.047.695 0 1.984 0 2.605.047v-.691c-1.527 0-1.816 0-1.816-1.078v-4.442c0-2.511 1.648-3.847 3.133-3.847 1.48 0 1.816 1.218 1.816 2.675v5.614c0 1.078-.266 1.078-1.816 1.078v.691c.62-.047 1.91-.047 2.578-.047.695 0 1.984 0 2.605.047v-.691c-1.527 0-1.816 0-1.816-1.078v-4.442c0-2.511 1.648-3.847 3.133-3.847 1.48 0 1.816 1.218 1.816 2.675v5.614c0 1.078-.266 1.078-1.816 1.078v.691c.62-.047 1.91-.047 2.578-.047.695 0 1.984 0 2.605.047v-.691c-1.195 0-1.793 0-1.816-.719zm11.59-.575c0-1.289 0-2.246-1.051-3.18-.836-.765-1.91-1.097-2.961-1.097-1.961 0-3.469 1.289-3.469 2.844 0 .691.457 1.027 1.008 1.027.57 0 .977-.406.977-.98 0-.98-.86-.98-1.22-.98.552-1.005 1.7-1.434 2.653-1.434 1.102 0 2.512.91 2.512 3.058v.957c-4.805.07-6.621 2.078-6.621 3.918 0 1.89 2.199 2.485 3.656 2.485 1.578 0 2.652-.954 3.105-2.102.098 1.125.836 1.984 1.868 1.984.5 0 1.886-.336 1.886-2.246v-1.34h-.527v1.34c0 1.363-.57 1.551-.906 1.551-.91 0-.91-1.266-.91-1.625zm-1.551 3.012c0 2.34-1.746 3.129-2.774 3.129-1.171 0-2.148-.86-2.148-2.008 0-3.152 4.063-3.441 4.922-3.488zm14.664-2.437c0-2.223 0-2.895-.55-3.657-.696-.933-1.817-1.078-2.63-1.078-2.32 0-3.226 1.985-3.418 2.465h-.023v-2.465l-3.25.266v.691c1.625 0 1.816.168 1.816 1.34v6.473c0 1.078-.261 1.078-1.816 1.078v.691c.62-.047 1.91-.047 2.582-.047.691 0 1.984 0 2.601.047v-.691c-1.527 0-1.812 0-1.812-1.078v-4.442c0-2.511 1.648-3.847 3.129-3.847 1.48 0 1.816 1.218 1.816 2.675v5.614c0 1.078-.265 1.078-1.816 1.078v.691c.62-.047 1.91-.047 2.582-.047.691 0 1.98 0 2.601.047v-.691c-1.195 0-1.789 0-1.812-.719zm5.207 1.48c1.125.742 2.082.742 2.344.742 2.148 0 3.75-1.625 3.75-3.469a3.25 3.25 0 0 0-.957-2.316c.933-.957 2.054-.957 2.175-.957.098 0 .215 0 .313.05-.238.095-.36.333-.36.598 0 .332.239.621.622.621.191 0 .62-.12.62-.644 0-.434-.335-1.102-1.171-1.102-1.242 0-2.176.766-2.508 1.125-.715-.55-1.555-.863-2.46-.863-2.153 0-3.755 1.625-3.755 3.465 0 1.363.836 2.25 1.078 2.46-.289.36-.718 1.056-.718 1.985 0 1.387.836 1.985 1.027 2.106-1.098.308-2.2 1.168-2.2 2.41 0 1.648 2.25 3.012 5.188 3.012 2.844 0 5.211-1.266 5.211-3.059 0-.598-.168-2.008-1.601-2.746-1.22-.621-2.414-.621-4.47-.621-1.46 0-1.624 0-2.054-.453-.242-.242-.457-.696-.457-1.196 0-.406.145-.812.383-1.148m2.367.238c-2.105 0-2.105-2.414-2.105-2.965 0-.43 0-1.406.406-2.054a2.05 2.05 0 0 1 1.676-.93c2.101 0 2.101 2.414 2.101 2.961 0 .43 0 1.41-.406 2.055a2.04 2.04 0 0 1-1.672.933m.645 8.485c-2.293 0-4.04-1.172-4.04-2.535 0-.188.047-1.122.958-1.743.527-.336.738-.336 2.414-.336 1.98 0 4.683 0 4.683 2.078 0 1.41-1.816 2.536-4.015 2.536M73.059-44.02c0-.62-.504-1.171-1.172-1.171-.621 0-1.145.504-1.145 1.148 0 .715.57 1.168 1.145 1.168.742 0 1.172-.621 1.172-1.145m-3.297 4.446v.691c1.527 0 1.742.145 1.742 1.313v6.5c0 1.078-.262 1.078-1.817 1.078v.691c.672-.047 1.817-.047 2.512-.047.262 0 1.649 0 2.461.047v-.691c-1.554 0-1.648-.121-1.648-1.051v-8.797zm14.863 3.894c0-1.289 0-2.246-1.05-3.18-.84-.765-1.915-1.097-2.966-1.097-1.96 0-3.465 1.289-3.465 2.844 0 .691.454 1.027 1.004 1.027.575 0 .98-.406.98-.98 0-.98-.862-.98-1.218-.98.55-1.005 1.696-1.434 2.653-1.434 1.097 0 2.507.91 2.507 3.058v.957c-4.804.07-6.617 2.078-6.617 3.918 0 1.89 2.195 2.485 3.656 2.485 1.575 0 2.653-.954 3.106-2.102.094 1.125.836 1.984 1.863 1.984.5 0 1.887-.336 1.887-2.246v-1.34h-.524v1.34c0 1.363-.574 1.551-.91 1.551-.906 0-.906-1.266-.906-1.625zm-1.555 3.012c0 2.34-1.742 3.129-2.773 3.129-1.168 0-2.149-.86-2.149-2.008 0-3.152 4.063-3.441 4.922-3.488zm20.481-5.472c-.285 0-1.172 0-1.172.976 0 .574.406.98.98.98.551 0 1.004-.332 1.004-1.027 0-1.602-1.672-2.746-3.609-2.746-2.793 0-5.02 2.484-5.02 5.496 0 3.059 2.297 5.398 4.996 5.398 3.157 0 3.872-2.867 3.872-3.082s-.168-.214-.239-.214c-.215 0-.242.07-.308.359-.528 1.695-1.821 2.414-3.11 2.414-1.457 0-3.39-1.266-3.39-4.898 0-3.97 2.03-4.95 3.222-4.95.911 0 2.227.36 2.774 1.293m10.972 2.461c0-1.289 0-2.246-1.05-3.18-.836-.765-1.91-1.097-2.965-1.097-1.957 0-3.465 1.289-3.465 2.844 0 .691.453 1.027 1.004 1.027.574 0 .98-.406.98-.98 0-.98-.859-.98-1.218-.98.55-1.005 1.699-1.434 2.652-1.434 1.102 0 2.508.91 2.508 3.058v.957c-4.801.07-6.617 2.078-6.617 3.918 0 1.89 2.199 2.485 3.656 2.485 1.578 0 2.652-.954 3.105-2.102.098 1.125.836 1.984 1.864 1.984.503 0 1.89-.336 1.89-2.246v-1.34h-.527v1.34c0 1.363-.574 1.551-.906 1.551-.911 0-.911-1.266-.911-1.625zm-1.554 3.012c0 2.34-1.742 3.129-2.77 3.129-1.172 0-2.152-.86-2.152-2.008 0-3.152 4.062-3.441 4.922-3.488zm8.023-2.199c0-2.32.953-4.492 2.793-4.492.192 0 .238 0 .336.023-.191.094-.574.238-.574.883 0 .695.551.957.933.957.477 0 .958-.313.958-.957 0-.715-.649-1.387-1.676-1.387-2.032 0-2.723 2.2-2.867 2.653h-.024v-2.653l-3.203.266v.691c1.625 0 1.816.168 1.816 1.34v6.473c0 1.078-.261 1.078-1.816 1.078v.691c.672-.047 1.984-.047 2.699-.047.649 0 2.344 0 2.895.047v-.691h-.481c-1.742 0-1.789-.266-1.789-1.125zm16.078.453c0-3.082-2.343-5.543-5.117-5.543-2.863 0-5.137 2.531-5.137 5.543 0 3.059 2.391 5.352 5.114 5.352 2.82 0 5.14-2.34 5.14-5.352m-5.117 4.828c-.883 0-1.957-.383-2.652-1.555-.645-1.074-.668-2.484-.668-3.488 0-.91 0-2.367.738-3.441a3.07 3.07 0 0 1 2.559-1.41c.933 0 1.937.43 2.582 1.363.742 1.097.742 2.605.742 3.488 0 .836 0 2.316-.621 3.441-.668 1.149-1.77 1.602-2.68 1.602m9.86-9.32h3.371v-.696h-3.371v-4.394h-.524c-.023 2.246-.883 4.539-3.059 4.613v.477h2.032v6.644c0 2.653 1.769 3.2 3.035 3.2 1.504 0 2.293-1.481 2.293-3.2v-1.363h-.527v1.313c0 1.722-.692 2.726-1.625 2.726-1.625 0-1.625-2.223-1.625-2.629zm14.41 3.226c0-1.289 0-2.246-1.051-3.18-.836-.765-1.91-1.097-2.961-1.097-1.961 0-3.469 1.289-3.469 2.844 0 .691.457 1.027 1.004 1.027.574 0 .981-.406.981-.98 0-.98-.86-.98-1.219-.98.551-1.005 1.699-1.434 2.652-1.434 1.102 0 2.512.91 2.512 3.058v.957c-4.805.07-6.621 2.078-6.621 3.918 0 1.89 2.199 2.485 3.656 2.485 1.578 0 2.652-.954 3.106-2.102.097 1.125.835 1.984 1.867 1.984.5 0 1.886-.336 1.886-2.246v-1.34h-.527v1.34c0 1.363-.57 1.551-.906 1.551-.91 0-.91-1.266-.91-1.625zm-1.551 3.012c0 2.34-1.746 3.129-2.774 3.129-1.171 0-2.152-.86-2.152-2.008 0-3.152 4.067-3.441 4.926-3.488zM22.223-91.379c0-1.293 0-2.246-1.051-3.18-.836-.765-1.91-1.097-2.961-1.097-1.961 0-3.469 1.289-3.469 2.844 0 .69.457 1.027 1.008 1.027.57 0 .977-.406.977-.98 0-.981-.86-.981-1.22-.981.552-1.004 1.7-1.434 2.653-1.434 1.102 0 2.512.907 2.512 3.059v.957c-4.805.07-6.621 2.078-6.621 3.918 0 1.887 2.199 2.484 3.656 2.484 1.578 0 2.652-.957 3.105-2.101.098 1.12.836 1.98 1.868 1.98.5 0 1.886-.332 1.886-2.242v-1.34h-.527v1.34c0 1.36-.57 1.55-.906 1.55-.91 0-.91-1.265-.91-1.624zm-1.551 3.012c0 2.34-1.746 3.129-2.774 3.129-1.171 0-2.148-.864-2.148-2.008 0-3.152 4.063-3.442 4.922-3.488zm13.18-4.664c.214-.524.62-1.551 2.148-1.575v-.695c-.691.051-1.027.051-1.766.051-.504 0-.863 0-1.96-.05v.694c1.003.047 1.12.762 1.12 1.028 0 .215-.046.336-.167.621l-2.438 6.164-2.676-6.738c-.117-.336-.14-.336-.14-.453 0-.622.906-.622 1.336-.622v-.695c-.598.051-1.84.051-2.485.051-.789 0-.836 0-2.293-.05v.694c1.336 0 1.578.094 1.864.837l3.418 8.554c.117.332.164.453.453.453.168 0 .312-.047.476-.453zm10.472 1.652c0-1.293 0-2.246-1.05-3.18-.837-.765-1.915-1.097-2.965-1.097-1.957 0-3.465 1.289-3.465 2.844 0 .69.453 1.027 1.004 1.027.574 0 .98-.406.98-.98 0-.981-.86-.981-1.219-.981.551-1.004 1.696-1.434 2.653-1.434 1.097 0 2.508.907 2.508 3.059v.957c-4.801.07-6.618 2.078-6.618 3.918 0 1.887 2.2 2.484 3.657 2.484 1.574 0 2.652-.957 3.105-2.101.094 1.12.836 1.98 1.863 1.98.504 0 1.887-.332 1.887-2.242v-1.34h-.523v1.34c0 1.36-.575 1.55-.907 1.55-.91 0-.91-1.265-.91-1.624zm-1.554 3.012c0 2.34-1.743 3.129-2.77 3.129-1.172 0-2.152-.864-2.152-2.008 0-3.152 4.062-3.442 4.922-3.488zm14.664-2.438c0-2.226 0-2.894-.551-3.656-.692-.933-1.813-1.078-2.625-1.078-2.32 0-3.227 1.984-3.418 2.46h-.028v-2.46l-3.25.266v.691c1.626 0 1.82.168 1.82 1.34v6.473c0 1.074-.265 1.074-1.82 1.074V-85c.626-.047 1.915-.047 2.583-.047.695 0 1.984 0 2.605.047v-.695c-1.531 0-1.816 0-1.816-1.075v-4.44c0-2.513 1.648-3.853 3.129-3.853 1.484 0 1.82 1.22 1.82 2.68v5.614c0 1.074-.266 1.074-1.82 1.074V-85c.624-.047 1.914-.047 2.581-.047.696 0 1.985 0 2.606.047v-.695c-1.195 0-1.793 0-1.816-.715zm11.472-3.824c.215-.265.215-.312.215-.406 0-.266-.168-.266-.574-.266h-7.504l-.262 3.801h.524c.144-2.437.597-3.32 3.203-3.32h2.773l-6.836 9.39c0 .43.047.43.575.43h7.789l.382-4.398h-.527c-.215 2.726-.621 3.875-3.465 3.875h-2.89zm10.516 3.25c0-1.293 0-2.246-1.047-3.18-.84-.765-1.914-1.097-2.965-1.097-1.96 0-3.465 1.289-3.465 2.844 0 .69.453 1.027 1.004 1.027.574 0 .98-.406.98-.98 0-.981-.863-.981-1.218-.981.547-1.004 1.695-1.434 2.648-1.434 1.102 0 2.512.907 2.512 3.059v.957c-4.805.07-6.621 2.078-6.621 3.918 0 1.887 2.2 2.484 3.656 2.484 1.578 0 2.656-.957 3.11-2.101.093 1.12.836 1.98 1.863 1.98.5 0 1.887-.332 1.887-2.242v-1.34h-.524v1.34c0 1.36-.574 1.55-.91 1.55-.91 0-.91-1.265-.91-1.624zm-1.55 3.012c0 2.34-1.747 3.129-2.774 3.129-1.168 0-2.149-.864-2.149-2.008 0-3.152 4.063-3.442 4.922-3.488zm-55.649-58.711c0-1.293 0-2.25-1.051-3.18-.836-.765-1.91-1.101-2.961-1.101-1.961 0-3.469 1.293-3.469 2.843 0 .696.457 1.032 1.008 1.032.57 0 .977-.407.977-.985 0-.976-.86-.976-1.22-.976.552-1.004 1.7-1.434 2.653-1.434 1.102 0 2.512.906 2.512 3.059v.953c-4.805.074-6.621 2.082-6.621 3.922 0 1.886 2.199 2.484 3.656 2.484 1.578 0 2.652-.957 3.105-2.102.098 1.122.836 1.981 1.868 1.981.5 0 1.886-.332 1.886-2.246v-1.336h-.527v1.336c0 1.363-.57 1.555-.906 1.555-.91 0-.91-1.266-.91-1.625zm-1.551 3.008c0 2.343-1.746 3.132-2.774 3.132-1.171 0-2.148-.863-2.148-2.007 0-3.157 4.063-3.442 4.922-3.493zm9.883 7.312c-1.532 0-1.817 0-1.817-1.074v-4.16c.43.597 1.41 1.531 2.942 1.531 2.746 0 5.16-2.32 5.16-5.398 0-3.039-2.246-5.379-4.852-5.379-2.101 0-3.226 1.504-3.297 1.601v-1.601l-3.324.261v.696c1.676 0 1.82.164 1.82 1.218v11.231c0 1.074-.265 1.074-1.82 1.074v.695c.625-.05 1.914-.05 2.582-.05.692 0 1.985 0 2.606.05zm-1.817-11.566c0-.453 0-.477.262-.86.719-1.074 1.89-1.531 2.797-1.531 1.793 0 3.226 2.176 3.226 4.856 0 2.839-1.625 4.921-3.464 4.921a2.8 2.8 0 0 1-1.91-.765c-.551-.551-.91-1.027-.91-1.695zm12.953 2.058c0-2.32.957-4.496 2.793-4.496.196 0 .243 0 .336.028-.191.093-.57.238-.57.882 0 .692.547.954.93.954.476 0 .957-.309.957-.954 0-.718-.645-1.386-1.676-1.386-2.031 0-2.723 2.199-2.867 2.652h-.024v-2.652l-3.203.261v.696c1.625 0 1.82.164 1.82 1.336v6.476c0 1.074-.265 1.074-1.82 1.074v.696c.672-.047 1.985-.047 2.703-.047.645 0 2.34 0 2.89.047v-.696h-.476c-1.746 0-1.793-.261-1.793-1.121zm9.266-9.156c0-.621-.5-1.168-1.168-1.168-.625 0-1.148.5-1.148 1.145 0 .718.574 1.172 1.148 1.172.738 0 1.168-.622 1.168-1.149m-3.297 4.445v.696c1.528 0 1.746.14 1.746 1.312v6.5c0 1.074-.265 1.074-1.816 1.074v.696c.668-.047 1.816-.047 2.508-.047.261 0 1.648 0 2.46.047v-.696c-1.55 0-1.648-.117-1.648-1.05v-8.793zm19.293 14.219c-1.527 0-1.812 0-1.812-1.074v-4.16c.43.597 1.406 1.531 2.937 1.531 2.75 0 5.16-2.32 5.16-5.398 0-3.039-2.246-5.379-4.847-5.379-2.106 0-3.227 1.504-3.301 1.601v-1.601l-3.32.261v.696c1.671 0 1.816.164 1.816 1.218v11.231c0 1.074-.266 1.074-1.816 1.074v.695c.62-.05 1.91-.05 2.582-.05.691 0 1.98 0 2.601.05zm-1.812-11.566c0-.453 0-.477.261-.86.715-1.074 1.887-1.531 2.793-1.531 1.793 0 3.227 2.176 3.227 4.856 0 2.839-1.625 4.921-3.465 4.921a2.82 2.82 0 0 1-1.91-.765c-.55-.551-.906-1.027-.906-1.695zm20.629 2.511c0-3.085-2.344-5.546-5.114-5.546-2.867 0-5.14 2.535-5.14 5.546 0 3.059 2.39 5.352 5.117 5.352 2.816 0 5.136-2.344 5.136-5.352m-5.114 4.825c-.887 0-1.96-.379-2.656-1.551-.644-1.078-.668-2.484-.668-3.492 0-.907 0-2.364.742-3.438a3.06 3.06 0 0 1 2.559-1.41c.93 0 1.933.43 2.578 1.363.742 1.098.742 2.602.742 3.485 0 .84 0 2.32-.621 3.441-.668 1.149-1.77 1.602-2.676 1.602m9.837-5.278c0-2.32.953-4.496 2.793-4.496.192 0 .238 0 .336.028-.191.093-.574.238-.574.882 0 .692.55.954.934.954.476 0 .957-.309.957-.954 0-.718-.649-1.386-1.676-1.386-2.031 0-2.723 2.199-2.868 2.652h-.023v-2.652l-3.203.261v.696c1.625 0 1.816.164 1.816 1.336v6.476c0 1.074-.261 1.074-1.816 1.074v.696c.668-.047 1.984-.047 2.7-.047.648 0 2.343 0 2.894.047v-.696h-.48c-1.743 0-1.79-.261-1.79-1.121zm9.121-4.039h3.371V-151h-3.37v-4.398h-.524c-.024 2.25-.887 4.543-3.059 4.613v.48h2.031v6.641c0 2.652 1.766 3.203 3.036 3.203 1.504 0 2.293-1.48 2.293-3.203v-1.359h-.528v1.312c0 1.719-.691 2.723-1.625 2.723-1.625 0-1.625-2.223-1.625-2.629zm14.309 3.227c0-1.293 0-2.25-1.051-3.18-.836-.765-1.91-1.101-2.961-1.101-1.961 0-3.465 1.293-3.465 2.843 0 .696.453 1.032 1.004 1.032.574 0 .981-.407.981-.985 0-.976-.864-.976-1.219-.976.547-1.004 1.695-1.434 2.648-1.434 1.102 0 2.512.906 2.512 3.059v.953c-4.805.074-6.617 2.082-6.617 3.922 0 1.886 2.195 2.484 3.652 2.484 1.578 0 2.657-.957 3.11-2.102.093 1.122.836 1.981 1.863 1.981.5 0 1.887-.332 1.887-2.246v-1.336h-.524v1.336c0 1.363-.574 1.555-.91 1.555-.91 0-.91-1.266-.91-1.625zm-1.551 3.008c0 2.343-1.742 3.132-2.773 3.132-1.168 0-2.149-.863-2.149-2.007 0-3.157 4.063-3.442 4.922-3.493zm-90.148-58.711c0-1.289 0-2.246-1.051-3.18-.836-.762-1.91-1.098-2.961-1.098-1.961 0-3.469 1.293-3.469 2.844 0 .692.457 1.027 1.008 1.027.57 0 .977-.406.977-.98 0-.98-.86-.98-1.22-.98.552-1 1.7-1.43 2.653-1.43 1.102 0 2.512.906 2.512 3.055v.957c-4.805.074-6.621 2.082-6.621 3.918 0 1.89 2.199 2.488 3.656 2.488 1.578 0 2.652-.957 3.105-2.106.098 1.125.836 1.985 1.868 1.985.5 0 1.886-.336 1.886-2.246v-1.34h-.527v1.34c0 1.363-.57 1.554-.906 1.554-.91 0-.91-1.269-.91-1.625zm-1.551 3.011c0 2.34-1.746 3.129-2.774 3.129-1.171 0-2.148-.859-2.148-2.007 0-3.153 4.063-3.442 4.922-3.489zm13.18-4.66c.214-.523.62-1.554 2.148-1.578v-.691c-.691.047-1.027.047-1.766.047-.504 0-.863 0-1.96-.047v.691c1.003.047 1.12.766 1.12 1.028 0 .214-.046.335-.167.621l-2.438 6.168-2.676-6.739c-.117-.336-.14-.336-.14-.457 0-.621.906-.621 1.336-.621v-.691c-.598.047-1.84.047-2.485.047-.789 0-.836 0-2.293-.047v.691c1.336 0 1.578.098 1.864.836l3.418 8.555c.117.336.164.457.453.457.168 0 .312-.051.476-.457zm10.472 1.649c0-1.289 0-2.246-1.05-3.18-.837-.762-1.915-1.098-2.965-1.098-1.957 0-3.465 1.293-3.465 2.844 0 .692.453 1.027 1.004 1.027.574 0 .98-.406.98-.98 0-.98-.86-.98-1.219-.98.551-1 1.696-1.43 2.653-1.43 1.097 0 2.508.906 2.508 3.055v.957c-4.801.074-6.618 2.082-6.618 3.918 0 1.89 2.2 2.488 3.657 2.488 1.574 0 2.652-.957 3.105-2.106.094 1.125.836 1.985 1.863 1.985.504 0 1.887-.336 1.887-2.246v-1.34h-.523v1.34c0 1.363-.575 1.554-.907 1.554-.91 0-.91-1.269-.91-1.625zm-1.554 3.011c0 2.34-1.743 3.129-2.77 3.129-1.172 0-2.152-.859-2.152-2.007 0-3.153 4.062-3.442 4.922-3.489zm14.664-2.437c0-2.223 0-2.891-.551-3.656-.692-.934-1.813-1.075-2.625-1.075-2.32 0-3.227 1.985-3.418 2.461h-.028v-2.461l-3.25.262v.692c1.626 0 1.82.168 1.82 1.339v6.477c0 1.074-.265 1.074-1.82 1.074v.696c.626-.051 1.915-.051 2.583-.051.695 0 1.984 0 2.605.051v-.696c-1.531 0-1.816 0-1.816-1.074v-4.445c0-2.508 1.648-3.848 3.129-3.848 1.484 0 1.82 1.219 1.82 2.676v5.617c0 1.074-.266 1.074-1.82 1.074v.696c.624-.051 1.914-.051 2.581-.051.696 0 1.985 0 2.606.051v-.696c-1.195 0-1.793 0-1.816-.715zm11.472-3.824c.215-.262.215-.309.215-.407 0-.261-.168-.261-.574-.261h-7.504l-.262 3.801h.524c.144-2.442.597-3.325 3.203-3.325h2.773l-6.836 9.395c0 .43.047.43.575.43h7.789l.382-4.399h-.527c-.215 2.723-.621 3.871-3.465 3.871h-2.89zm10.516 3.25c0-1.289 0-2.246-1.047-3.18-.84-.762-1.914-1.098-2.965-1.098-1.96 0-3.465 1.293-3.465 2.844 0 .692.453 1.027 1.004 1.027.574 0 .98-.406.98-.98 0-.98-.863-.98-1.218-.98.547-1 1.695-1.43 2.648-1.43 1.102 0 2.512.906 2.512 3.055v.957c-4.805.074-6.621 2.082-6.621 3.918 0 1.89 2.2 2.488 3.656 2.488 1.578 0 2.656-.957 3.11-2.106.093 1.125.836 1.985 1.863 1.985.5 0 1.887-.336 1.887-2.246v-1.34h-.524v1.34c0 1.363-.574 1.554-.91 1.554-.91 0-.91-1.269-.91-1.625zm-1.55 3.011c0 2.34-1.747 3.129-2.774 3.129-1.168 0-2.149-.859-2.149-2.007 0-3.153 4.063-3.442 4.922-3.489zm-55.649-58.71c0-1.29 0-2.247-1.051-3.18-.836-.762-1.91-1.098-2.961-1.098-1.961 0-3.469 1.289-3.469 2.844 0 .691.457 1.027 1.008 1.027.57 0 .977-.406.977-.98 0-.981-.86-.981-1.22-.981.552-1.004 1.7-1.433 2.653-1.433 1.102 0 2.512.91 2.512 3.058v.957c-4.805.071-6.621 2.078-6.621 3.918 0 1.891 2.199 2.489 3.656 2.489 1.578 0 2.652-.957 3.105-2.106.098 1.125.836 1.985 1.868 1.985.5 0 1.886-.336 1.886-2.247v-1.339h-.527v1.339c0 1.364-.57 1.555-.906 1.555-.91 0-.91-1.269-.91-1.625zm-1.551 3.011c0 2.34-1.746 3.129-2.774 3.129-1.171 0-2.148-.859-2.148-2.008 0-3.152 4.063-3.441 4.922-3.488zm9.883 7.313c-1.532 0-1.817 0-1.817-1.078v-4.157c.43.598 1.41 1.532 2.942 1.532 2.746 0 5.16-2.321 5.16-5.403 0-3.035-2.246-5.379-4.852-5.379-2.101 0-3.226 1.508-3.297 1.602v-1.602l-3.324.266v.691c1.676 0 1.82.168 1.82 1.219v11.231c0 1.078-.265 1.078-1.82 1.078v.691c.625-.047 1.914-.047 2.582-.047.692 0 1.985 0 2.606.047zm-1.817-11.567c0-.453 0-.48.262-.859.719-1.078 1.89-1.531 2.797-1.531 1.793 0 3.226 2.175 3.226 4.851 0 2.844-1.625 4.922-3.464 4.922a2.8 2.8 0 0 1-1.91-.762c-.551-.55-.91-1.031-.91-1.699zm12.953 2.055c0-2.316.957-4.492 2.793-4.492.196 0 .243 0 .336.023-.191.098-.57.239-.57.883 0 .695.547.957.93.957.476 0 .957-.312.957-.957 0-.715-.645-1.387-1.676-1.387-2.031 0-2.723 2.2-2.867 2.657h-.024v-2.657l-3.203.266v.691c1.625 0 1.82.168 1.82 1.34v6.477c0 1.074-.265 1.074-1.82 1.074v.691c.672-.046 1.985-.046 2.703-.046.645 0 2.34 0 2.89.046v-.691h-.476c-1.746 0-1.793-.262-1.793-1.121zm9.266-9.152c0-.621-.5-1.172-1.168-1.172-.625 0-1.148.504-1.148 1.148 0 .715.574 1.172 1.148 1.172.738 0 1.168-.625 1.168-1.148m-3.297 4.445v.691c1.528 0 1.746.145 1.746 1.317v6.5c0 1.074-.265 1.074-1.816 1.074v.691c.668-.046 1.816-.046 2.508-.046.261 0 1.648 0 2.46.046v-.691c-1.55 0-1.648-.121-1.648-1.051v-8.797zm19.293 14.219c-1.527 0-1.812 0-1.812-1.078v-4.157c.43.598 1.406 1.532 2.937 1.532 2.75 0 5.16-2.321 5.16-5.403 0-3.035-2.246-5.379-4.847-5.379-2.106 0-3.227 1.508-3.301 1.602v-1.602l-3.32.266v.691c1.671 0 1.816.168 1.816 1.219v11.231c0 1.078-.266 1.078-1.816 1.078v.691c.62-.047 1.91-.047 2.582-.047.691 0 1.98 0 2.601.047zm-1.812-11.567c0-.453 0-.48.261-.859a3.44 3.44 0 0 1 2.793-1.531c1.793 0 3.227 2.175 3.227 4.851 0 2.844-1.625 4.922-3.465 4.922a2.8 2.8 0 0 1-1.91-.762c-.55-.55-.906-1.031-.906-1.699zm20.629 2.508c0-3.082-2.344-5.543-5.114-5.543-2.867 0-5.14 2.531-5.14 5.543 0 3.059 2.39 5.356 5.117 5.356 2.816 0 5.136-2.344 5.136-5.356m-5.114 4.828c-.887 0-1.96-.383-2.656-1.554-.644-1.075-.668-2.485-.668-3.489 0-.91 0-2.367.742-3.441a3.06 3.06 0 0 1 2.559-1.41c.93 0 1.933.429 2.578 1.363.742 1.098.742 2.605.742 3.488 0 .836 0 2.321-.621 3.442-.668 1.148-1.77 1.601-2.676 1.601m9.837-5.281c0-2.316.953-4.492 2.793-4.492.192 0 .238 0 .336.023-.191.098-.574.239-.574.883 0 .695.55.957.934.957.476 0 .957-.312.957-.957 0-.715-.649-1.387-1.676-1.387-2.031 0-2.723 2.2-2.868 2.657h-.023v-2.657l-3.203.266v.691c1.625 0 1.816.168 1.816 1.34v6.477c0 1.074-.261 1.074-1.816 1.074v.691c.668-.046 1.984-.046 2.7-.046.648 0 2.343 0 2.894.046v-.691h-.48c-1.743 0-1.79-.262-1.79-1.121zm9.121-4.039h3.371v-.691h-3.37v-4.399h-.524c-.024 2.246-.887 4.539-3.059 4.613v.477h2.031v6.644c0 2.653 1.766 3.204 3.036 3.204 1.504 0 2.293-1.485 2.293-3.204v-1.363h-.528v1.317c0 1.718-.691 2.722-1.625 2.722-1.625 0-1.625-2.222-1.625-2.629zm14.309 3.227c0-1.29 0-2.247-1.051-3.18-.836-.762-1.91-1.098-2.961-1.098-1.961 0-3.465 1.289-3.465 2.844 0 .691.453 1.027 1.004 1.027.574 0 .981-.406.981-.98 0-.981-.864-.981-1.219-.981.547-1.004 1.695-1.433 2.648-1.433 1.102 0 2.512.91 2.512 3.058v.957c-4.805.071-6.617 2.078-6.617 3.918 0 1.891 2.195 2.489 3.652 2.489 1.578 0 2.657-.957 3.11-2.106.093 1.125.836 1.985 1.863 1.985.5 0 1.887-.336 1.887-2.247v-1.339h-.524v1.339c0 1.364-.574 1.555-.91 1.555-.91 0-.91-1.269-.91-1.625zm-1.551 3.011c0 2.34-1.742 3.129-2.773 3.129-1.168 0-2.149-.859-2.149-2.008 0-3.152 4.063-3.441 4.922-3.488zM22.223-314.18c0-1.289 0-2.246-1.051-3.179-.836-.762-1.91-1.098-2.961-1.098-1.961 0-3.469 1.289-3.469 2.844 0 .691.457 1.027 1.008 1.027.57 0 .977-.406.977-.98 0-.981-.86-.981-1.22-.981.552-1.004 1.7-1.433 2.653-1.433 1.102 0 2.512.91 2.512 3.058v.957c-4.805.07-6.621 2.078-6.621 3.918 0 1.891 2.199 2.484 3.656 2.484 1.578 0 2.652-.953 3.105-2.101.098 1.125.836 1.984 1.868 1.984.5 0 1.886-.336 1.886-2.246v-1.34h-.527v1.34c0 1.363-.57 1.555-.906 1.555-.91 0-.91-1.27-.91-1.625zm-1.551 3.012c0 2.34-1.746 3.129-2.774 3.129-1.171 0-2.148-.859-2.148-2.008 0-3.152 4.063-3.441 4.922-3.488zm13.18-4.66c.214-.527.62-1.555 2.148-1.578v-.696c-.691.051-1.027.051-1.766.051-.504 0-.863 0-1.96-.051v.696c1.003.047 1.12.765 1.12 1.027 0 .215-.046.336-.167.621l-2.438 6.164-2.676-6.738c-.117-.332-.14-.332-.14-.453 0-.621.906-.621 1.336-.621v-.696c-.598.051-1.84.051-2.485.051-.789 0-.836 0-2.293-.051v.696c1.336 0 1.578.093 1.864.836l3.418 8.554c.117.336.164.453.453.453.168 0 .312-.046.476-.453zm10.472 1.648c0-1.289 0-2.246-1.05-3.179-.837-.762-1.915-1.098-2.965-1.098-1.957 0-3.465 1.289-3.465 2.844 0 .691.453 1.027 1.004 1.027.574 0 .98-.406.98-.98 0-.981-.86-.981-1.219-.981.551-1.004 1.696-1.433 2.653-1.433 1.097 0 2.508.91 2.508 3.058v.957c-4.801.07-6.618 2.078-6.618 3.918 0 1.891 2.2 2.484 3.657 2.484 1.574 0 2.652-.953 3.105-2.101.094 1.125.836 1.984 1.863 1.984.504 0 1.887-.336 1.887-2.246v-1.34h-.523v1.34c0 1.363-.575 1.555-.907 1.555-.91 0-.91-1.27-.91-1.625zm-1.554 3.012c0 2.34-1.743 3.129-2.77 3.129-1.172 0-2.152-.859-2.152-2.008 0-3.152 4.062-3.441 4.922-3.488zm14.664-2.437c0-2.223 0-2.891-.551-3.657-.692-.933-1.813-1.078-2.625-1.078-2.32 0-3.227 1.985-3.418 2.461h-.028v-2.461l-3.25.266v.691c1.626 0 1.82.168 1.82 1.34v6.473c0 1.078-.265 1.078-1.82 1.078v.691c.626-.047 1.915-.047 2.583-.047.695 0 1.984 0 2.605.047v-.691c-1.531 0-1.816 0-1.816-1.078v-4.442c0-2.511 1.648-3.847 3.129-3.847 1.484 0 1.82 1.218 1.82 2.675v5.614c0 1.078-.266 1.078-1.82 1.078v.691c.624-.047 1.914-.047 2.581-.047.696 0 1.985 0 2.606.047v-.691c-1.195 0-1.793 0-1.816-.719zm11.472-3.825c.215-.265.215-.312.215-.406 0-.266-.168-.266-.574-.266h-7.504l-.262 3.801h.524c.144-2.437.597-3.32 3.203-3.32h2.773l-6.836 9.391c0 .429.047.429.575.429h7.789l.382-4.394h-.527c-.215 2.722-.621 3.871-3.465 3.871h-2.89zm10.516 3.25c0-1.289 0-2.246-1.047-3.179-.84-.762-1.914-1.098-2.965-1.098-1.96 0-3.465 1.289-3.465 2.844 0 .691.453 1.027 1.004 1.027.574 0 .98-.406.98-.98 0-.981-.863-.981-1.218-.981.547-1.004 1.695-1.433 2.648-1.433 1.102 0 2.512.91 2.512 3.058v.957c-4.805.07-6.621 2.078-6.621 3.918 0 1.891 2.2 2.484 3.656 2.484 1.578 0 2.656-.953 3.11-2.101.093 1.125.836 1.984 1.863 1.984.5 0 1.887-.336 1.887-2.246v-1.34h-.524v1.34c0 1.363-.574 1.555-.91 1.555-.91 0-.91-1.27-.91-1.625zm-1.55 3.012c0 2.34-1.747 3.129-2.774 3.129-1.168 0-2.149-.859-2.149-2.008 0-3.152 4.063-3.441 4.922-3.488z"/></g></svg>