<svg xmlns="http://www.w3.org/2000/svg" width="39.283" height="484.099" viewBox="59.846 416.104 29.462 363.074"><g id="page1"><path fill="#954520" d="M60.271 778.35V416.933a3.01 3.01 0 0 1 3.012 0V778.35a3.01 3.01 0 0 1-3.012 0"/><path fill="none" stroke="#000" stroke-linecap="round" stroke-linejoin="round" stroke-miterlimit="10.037" stroke-width=".85" d="M60.271 778.35V416.933a3.01 3.01 0 0 1 3.012 0V778.35a3.01 3.01 0 0 1-3.012 0"/><path fill="#954520" d="M85.872 778.35V416.933a3.01 3.01 0 0 1 3.012 0V778.35a3.01 3.01 0 0 1-3.012 0"/><path fill="none" stroke="#000" stroke-linecap="round" stroke-linejoin="round" stroke-miterlimit="10.037" stroke-width=".85" d="M85.872 778.35V416.933a3.01 3.01 0 0 1 3.012 0V778.35a3.01 3.01 0 0 1-3.012 0"/><path fill="#954520" d="M63.283 761.785h22.589a3.01 3.01 0 0 1 0 3.011H63.283a3.01 3.01 0 0 1 0-3.011"/><path fill="none" stroke="#000" stroke-linecap="round" stroke-linejoin="round" stroke-miterlimit="10.037" stroke-width=".85" d="M63.283 761.785h22.589a3.01 3.01 0 0 1 0 3.011H63.283a3.01 3.01 0 0 1 0-3.011"/><path fill="#954520" d="M63.283 746.726h22.589c.538.932.538 2.08 0 3.012H63.283a3.01 3.01 0 0 1 0-3.012"/><path fill="none" stroke="#000" stroke-linecap="round" stroke-linejoin="round" stroke-miterlimit="10.037" stroke-width=".85" d="M63.283 746.726h22.589c.538.932.538 2.08 0 3.012H63.283a3.01 3.01 0 0 1 0-3.012"/><path fill="#954520" d="M63.283 731.667h22.589a3.01 3.01 0 0 1 0 3.011H63.283a3.01 3.01 0 0 1 0-3.011"/><path fill="none" stroke="#000" stroke-linecap="round" stroke-linejoin="round" stroke-miterlimit="10.037" stroke-width=".85" d="M63.283 731.667h22.589a3.01 3.01 0 0 1 0 3.011H63.283a3.01 3.01 0 0 1 0-3.011"/><path fill="#954520" d="M63.283 716.608h22.589c.538.932.538 2.08 0 3.012H63.283a3.01 3.01 0 0 1 0-3.012"/><path fill="none" stroke="#000" stroke-linecap="round" stroke-linejoin="round" stroke-miterlimit="10.037" stroke-width=".85" d="M63.283 716.608h22.589c.538.932.538 2.08 0 3.012H63.283a3.01 3.01 0 0 1 0-3.012"/><path fill="#954520" d="M63.283 701.549h22.589a3.01 3.01 0 0 1 0 3.011H63.283a3.01 3.01 0 0 1 0-3.011"/><path fill="none" stroke="#000" stroke-linecap="round" stroke-linejoin="round" stroke-miterlimit="10.037" stroke-width=".85" d="M63.283 701.549h22.589a3.01 3.01 0 0 1 0 3.011H63.283a3.01 3.01 0 0 1 0-3.011"/><path fill="#954520" d="M63.283 686.49h22.589c.538.932.538 2.08 0 3.012H63.283a3.01 3.01 0 0 1 0-3.012"/><path fill="none" stroke="#000" stroke-linecap="round" stroke-linejoin="round" stroke-miterlimit="10.037" stroke-width=".85" d="M63.283 686.49h22.589c.538.932.538 2.08 0 3.012H63.283a3.01 3.01 0 0 1 0-3.012"/><path fill="#954520" d="M63.283 671.43h22.589c.538.932.538 2.08 0 3.012H63.283a3.01 3.01 0 0 1 0-3.011"/><path fill="none" stroke="#000" stroke-linecap="round" stroke-linejoin="round" stroke-miterlimit="10.037" stroke-width=".85" d="M63.283 671.43h22.589c.538.932.538 2.08 0 3.012H63.283a3.01 3.01 0 0 1 0-3.011"/><path fill="#954520" d="M63.283 656.371h22.589c.538.932.538 2.08 0 3.013H63.283a3.01 3.01 0 0 1 0-3.013"/><path fill="none" stroke="#000" stroke-linecap="round" stroke-linejoin="round" stroke-miterlimit="10.037" stroke-width=".85" d="M63.283 656.371h22.589c.538.932.538 2.08 0 3.013H63.283a3.01 3.01 0 0 1 0-3.013"/><path fill="#954520" d="M63.283 641.312h22.589c.538.932.538 2.08 0 3.012H63.283a3.01 3.01 0 0 1 0-3.012"/><path fill="none" stroke="#000" stroke-linecap="round" stroke-linejoin="round" stroke-miterlimit="10.037" stroke-width=".85" d="M63.283 641.312h22.589c.538.932.538 2.08 0 3.012H63.283a3.01 3.01 0 0 1 0-3.012"/><path fill="#954520" d="M63.283 626.253h22.589c.538.932.538 2.08 0 3.013H63.283a3.01 3.01 0 0 1 0-3.013"/><path fill="none" stroke="#000" stroke-linecap="round" stroke-linejoin="round" stroke-miterlimit="10.037" stroke-width=".85" d="M63.283 626.253h22.589c.538.932.538 2.08 0 3.013H63.283a3.01 3.01 0 0 1 0-3.013"/><path fill="#954520" d="M63.283 611.194h22.589c.538.932.538 2.08 0 3.012H63.283a3.01 3.01 0 0 1 0-3.012"/><path fill="none" stroke="#000" stroke-linecap="round" stroke-linejoin="round" stroke-miterlimit="10.037" stroke-width=".85" d="M63.283 611.194h22.589c.538.932.538 2.08 0 3.012H63.283a3.01 3.01 0 0 1 0-3.012"/><path fill="#954520" d="M63.283 596.135h22.589c.538.932.538 2.08 0 3.012H63.283a3.01 3.01 0 0 1 0-3.012"/><path fill="none" stroke="#000" stroke-linecap="round" stroke-linejoin="round" stroke-miterlimit="10.037" stroke-width=".85" d="M63.283 596.135h22.589c.538.932.538 2.08 0 3.012H63.283a3.01 3.01 0 0 1 0-3.012"/><path fill="#954520" d="M63.283 581.076h22.589c.538.932.538 2.08 0 3.012H63.283a3.01 3.01 0 0 1 0-3.012"/><path fill="none" stroke="#000" stroke-linecap="round" stroke-linejoin="round" stroke-miterlimit="10.037" stroke-width=".85" d="M63.283 581.076h22.589c.538.932.538 2.08 0 3.012H63.283a3.01 3.01 0 0 1 0-3.012"/><path fill="#954520" d="M63.283 566.017h22.589c.538.932.538 2.08 0 3.012H63.283a3.01 3.01 0 0 1 0-3.012"/><path fill="none" stroke="#000" stroke-linecap="round" stroke-linejoin="round" stroke-miterlimit="10.037" stroke-width=".85" d="M63.283 566.017h22.589c.538.932.538 2.08 0 3.012H63.283a3.01 3.01 0 0 1 0-3.012"/><path fill="#954520" d="M63.283 550.958h22.589c.538.932.538 2.08 0 3.012H63.283a3.01 3.01 0 0 1 0-3.012"/><path fill="none" stroke="#000" stroke-linecap="round" stroke-linejoin="round" stroke-miterlimit="10.037" stroke-width=".85" d="M63.283 550.958h22.589c.538.932.538 2.08 0 3.012H63.283a3.01 3.01 0 0 1 0-3.012"/><path fill="#954520" d="M63.283 535.899h22.589a3.01 3.01 0 0 1 0 3.011H63.283a3.01 3.01 0 0 1 0-3.011"/><path fill="none" stroke="#000" stroke-linecap="round" stroke-linejoin="round" stroke-miterlimit="10.037" stroke-width=".85" d="M63.283 535.899h22.589a3.01 3.01 0 0 1 0 3.011H63.283a3.01 3.01 0 0 1 0-3.011"/><path fill="#954520" d="M63.283 520.84h22.589c.538.932.538 2.08 0 3.012H63.283a3.01 3.01 0 0 1 0-3.012"/><path fill="none" stroke="#000" stroke-linecap="round" stroke-linejoin="round" stroke-miterlimit="10.037" stroke-width=".85" d="M63.283 520.84h22.589c.538.932.538 2.08 0 3.012H63.283a3.01 3.01 0 0 1 0-3.012"/><path fill="#954520" d="M63.283 505.78h22.589c.538.933.538 2.08 0 3.013H63.283a3.01 3.01 0 0 1 0-3.012"/><path fill="none" stroke="#000" stroke-linecap="round" stroke-linejoin="round" stroke-miterlimit="10.037" stroke-width=".85" d="M63.283 505.78h22.589c.538.933.538 2.08 0 3.013H63.283a3.01 3.01 0 0 1 0-3.012"/><path fill="#954520" d="M63.283 490.722h22.589c.538.932.538 2.08 0 3.012H63.283a3.01 3.01 0 0 1 0-3.012"/><path fill="none" stroke="#000" stroke-linecap="round" stroke-linejoin="round" stroke-miterlimit="10.037" stroke-width=".85" d="M63.283 490.722h22.589c.538.932.538 2.08 0 3.012H63.283a3.01 3.01 0 0 1 0-3.012"/><path fill="#954520" d="M63.283 475.663h22.589c.538.932.538 2.08 0 3.012H63.283a3.01 3.01 0 0 1 0-3.012"/><path fill="none" stroke="#000" stroke-linecap="round" stroke-linejoin="round" stroke-miterlimit="10.037" stroke-width=".85" d="M63.283 475.663h22.589c.538.932.538 2.08 0 3.012H63.283a3.01 3.01 0 0 1 0-3.012"/><path fill="#954520" d="M63.283 460.604h22.589c.538.932.538 2.08 0 3.012H63.283a3.01 3.01 0 0 1 0-3.012"/><path fill="none" stroke="#000" stroke-linecap="round" stroke-linejoin="round" stroke-miterlimit="10.037" stroke-width=".85" d="M63.283 460.604h22.589c.538.932.538 2.08 0 3.012H63.283a3.01 3.01 0 0 1 0-3.012"/><path fill="#954520" d="M63.283 445.545h22.589c.538.932.538 2.08 0 3.012H63.283a3.01 3.01 0 0 1 0-3.012"/><path fill="none" stroke="#000" stroke-linecap="round" stroke-linejoin="round" stroke-miterlimit="10.037" stroke-width=".85" d="M63.283 445.545h22.589c.538.932.538 2.08 0 3.012H63.283a3.01 3.01 0 0 1 0-3.012"/><path fill="#954520" d="M63.283 430.486h22.589a3.01 3.01 0 0 1 0 3.011H63.283a3.01 3.01 0 0 1 0-3.011"/><path fill="none" stroke="#000" stroke-linecap="round" stroke-linejoin="round" stroke-miterlimit="10.037" stroke-width=".85" d="M63.283 430.486h22.589a3.01 3.01 0 0 1 0 3.011H63.283a3.01 3.01 0 0 1 0-3.011"/></g></svg>