<svg xmlns="http://www.w3.org/2000/svg" width="107pt" height="96" viewBox="0 -72 107 72"><g id="page1"><path fill="none" stroke="#000" stroke-linecap="round" stroke-linejoin="round" stroke-width="1.3" d="M.648-.648v-70m35 70v-70m35 70v-70m35 70v-70m-105 70h105m-105-35h105m-105-35h105"/><path d="M22.082-16.07c0-.52-.5-.52-.66-.52-.457 0-.535.16-.637.442-.437 1.093-1.414 1.21-1.89 1.21-1.692 0-3.125-1.414-3.125-3.265 0-1.016.574-3.305 3.183-3.305.54 0 .957.04 1.137.063.137.039.16.058.16.156.059.816.676.836.797.836.437 0 .812-.297.812-.836 0-1.375-2.007-1.375-2.886-1.375-3.403 0-4.5 2.789-4.5 4.46 0 2.43 1.851 4.423 4.242 4.423 2.668 0 3.367-1.969 3.367-2.29m-5.875-42.382c0-.617-.121-.813-.797-.813h-1.316c-.278 0-.797 0-.797.575 0 .578.52.578.797.578h.82v10.195c0 .36 0 .816.656.816.637 0 .637-.418.637-.992.477.535 1.215 1.114 2.328 1.114 2.113 0 3.965-1.891 3.965-4.422 0-2.45-1.672-4.403-3.746-4.403a3.57 3.57 0 0 0-2.547 1.078zm0 6.055c0-1.133 1.113-2.25 2.41-2.25 1.434 0 2.586 1.453 2.586 3.246 0 1.914-1.351 3.265-2.765 3.265-1.497 0-2.231-1.691-2.231-2.687zm40.035 32.843c0-1.515-1.133-3.11-3.82-3.11-.836 0-2.77 0-2.77 1.376 0 .539.38.836.817.836.12 0 .777-.04.797-.875 0-.102.02-.117.437-.16.238-.02.5-.02.738-.02.457 0 1.137 0 1.793.5.715.555.715 1.113.715 1.692-1.176.039-2.328.12-3.562.52-.996.335-2.27 1.054-2.27 2.405 0 1.414 1.254 2.61 3.106 2.61.636 0 1.87-.098 2.906-.817.398.66 1.394.7 2.152.7.477 0 .953 0 .953-.579 0-.578-.515-.578-.797-.578-.515 0-.914-.039-1.195-.16zm-1.293 3.028c0 .457 0 .875-.816 1.254-.696.335-1.633.335-1.692.335-1.175 0-2.03-.636-2.03-1.453 0-1.172 2.128-1.851 4.538-1.851zm1.293-38.028c0-1.515-1.133-3.11-3.82-3.11-.836 0-2.77 0-2.77 1.376 0 .539.38.836.817.836.12 0 .777-.04.797-.875 0-.102.02-.117.437-.16.238-.02.5-.02.738-.02.457 0 1.137 0 1.793.5.715.555.715 1.114.715 1.692-1.176.039-2.328.12-3.562.52-.996.335-2.27 1.054-2.27 2.405 0 1.414 1.254 2.61 3.106 2.61.636 0 1.87-.098 2.906-.817.398.66 1.394.7 2.152.7.477 0 .953 0 .953-.579 0-.578-.515-.578-.797-.578-.515 0-.914-.039-1.195-.16zm-1.293 3.028c0 .457 0 .875-.816 1.254-.696.336-1.633.336-1.692.336-1.175 0-2.03-.637-2.03-1.454 0-1.172 2.128-1.851 4.538-1.851zM92.082-16.07c0-.52-.5-.52-.66-.52-.457 0-.535.16-.637.442-.437 1.093-1.414 1.21-1.89 1.21-1.692 0-3.126-1.414-3.126-3.265 0-1.016.575-3.305 3.184-3.305.54 0 .957.04 1.137.063.137.039.16.058.16.156.059.816.676.836.797.836.437 0 .812-.297.812-.836 0-1.375-2.007-1.375-2.886-1.375-3.403 0-4.5 2.789-4.5 4.46 0 2.43 1.851 4.423 4.242 4.423 2.668 0 3.367-1.969 3.367-2.29m0-34.999c0-.52-.5-.52-.66-.52-.457 0-.535.16-.637.442-.437 1.093-1.414 1.21-1.89 1.21-1.692 0-3.126-1.414-3.126-3.265 0-1.016.575-3.305 3.184-3.305.54 0 .957.04 1.137.063.137.039.16.058.16.156.059.816.676.836.797.836.437 0 .812-.297.812-.836 0-1.375-2.007-1.375-2.886-1.375-3.403 0-4.5 2.789-4.5 4.46 0 2.43 1.851 4.423 4.242 4.423 2.668 0 3.367-1.969 3.367-2.29"/></g></svg>