<svg xmlns="http://www.w3.org/2000/svg" width="443pt" height="151pt" viewBox="0 -151 443 151"><g id="page1" fill-rule="evenodd"><path fill="#a7410e" d="M257.762-127.031c-.668.265-1.332.664-1.465.664s1.195 1.461 2.926 3.191c1.726 1.727 3.851 3.985 4.781 5.313.93 1.199 2.391 3.457 3.191 4.918.664 1.461 1.594 3.851 2.125 5.179.399 1.465.797 3.856.93 5.184 0 1.461.266 2.656.531 2.789.133.133 1.196.266 2.258.266 1.598 0 1.996-.133 2.125-.532.137-.265 0-1.593-.262-3.054-.265-1.328-.933-3.985-1.597-5.715-.532-1.86-1.461-4.383-2.125-5.711s-1.86-3.59-2.789-4.918c-.797-1.328-2.125-3.055-2.789-3.852-.801-.664-1.997-1.726-2.661-2.394-.796-.531-1.726-1.195-2.257-1.461s-1.196-.399-1.329-.399c-.265 0-.929.266-1.593.532m38 17.937h1.593c.532-.133.133-.133-.796-.133-.797 0-1.196 0-.797.133m-44.645 86.77a35 35 0 0 1 1.727 1.594c.133 0-.531-.797-1.461-1.594-.797-.934-1.594-1.73-1.727-1.73-.136 0 .532.796 1.461 1.73m-16.211 3.453c.797.93 1.594 1.726 1.727 1.726s-.531-.796-1.461-1.726c-.93-.797-1.727-1.594-1.727-1.594-.132 0 .532.797 1.461 1.594"/><path fill="red" d="M291.91-108.297c-1.195.399-2.66.934-3.058 1.199-.532.262-2.789 1.594-4.914 3.055-2.262 1.328-4.918 2.922-5.981 3.453-1.727.797-2.125.797-5.184.797-2.656 0-3.585-.133-5.578-.797-1.199-.398-4.785-1.859-7.707-3.32-3.058-1.328-6.511-2.789-7.707-3.188-1.195-.398-3.191-.933-4.519-1.062-1.992-.27-2.789-.27-4.782.129-1.328.265-3.722 1.062-5.316 1.73-1.594.531-3.851 1.594-4.918 2.258-1.062.664-2.789 1.727-3.586 2.391-.93.797-2.39 2.125-3.453 3.187-1.062 1.067-2.394 2.793-3.191 3.856-.664 1.062-1.727 3.054-2.391 4.386-.664 1.196-1.594 3.32-1.992 4.649-.399 1.328-1.063 3.59-1.328 5.183-.399 1.594-.797 4.383-.934 6.243-.266 1.996-.266 5.05-.133 7.441.133 2.262.403 5.582.668 7.309.133 1.726.797 4.652 1.196 6.511.398 1.86 1.328 5.317 2.125 7.84.796 2.39 2.523 6.379 3.718 8.77 1.2 2.523 3.059 5.847 4.121 7.574 1.196 1.726 2.922 4.117 3.852 5.312 1.062 1.2 3.324 3.59 5.051 5.317 1.726 1.726 4.25 3.855 5.445 4.652 1.199.93 2.926 1.992 3.856 2.524.929.398 3.054 1.328 4.785 1.859 1.593.531 4.25 1.195 5.976 1.46 1.864.266 3.723.4 5.317.266 1.461 0 3.453-.53 5.316-1.062 2.258-.664 3.453-.93 5.445-.93 2.258-.133 2.793 0 6.645 1.328 3.055 1.196 4.516 1.461 5.848 1.461 1.062 0 2.789-.265 3.984-.664 1.195-.265 3.191-1.062 4.519-1.593 1.329-.665 3.586-1.727 4.915-2.524 1.46-.93 3.589-2.39 4.918-3.457 1.328-.93 3.453-2.922 4.781-4.25 1.332-1.328 3.324-3.457 4.386-4.785s2.79-3.719 3.856-5.18c.93-1.593 2.523-4.254 3.453-5.847s2.391-4.52 3.32-6.512c.797-1.86 2.125-5.313 2.926-7.441.797-2.126 1.727-5.18 2.125-6.907a87 87 0 0 0 1.195-5.715c.133-1.46.399-4.386.532-6.378.133-2.125.133-5.047-.133-7.043-.133-1.86-.664-4.649-.93-6.11-.265-1.465-.929-3.855-1.461-5.184-.398-1.46-1.328-3.585-1.996-4.917-.664-1.329-1.859-3.32-2.656-4.516s-2.258-3.055-3.453-4.254c-1.195-1.062-2.793-2.656-3.856-3.32-.929-.664-2.789-1.86-4.117-2.524s-3.32-1.461-4.519-1.859c-1.063-.402-3.055-.801-4.25-1.067-1.328-.265-3.59-.531-5.184-.398-2.258 0-3.32.133-5.047.664m-59.797 32.688c-.398.93-1.062 2.66-1.328 3.988-.398 1.328-.797 3.852-1.062 5.445-.266 1.73-.399 5.184-.399 7.574 0 2.66.133 5.98.399 7.575.265 1.593.664 3.988 1.062 5.316.266 1.328 1.067 3.719 1.731 5.313.664 1.597 1.859 4.12 2.789 5.582.929 1.593 2.39 3.722 3.32 5.05 1.063 1.196 2.926 3.188 4.254 4.516s3.586 3.191 4.914 4.254c1.465.93 3.457 2.258 4.652 2.789s2.391 1.063 2.922 1.063c.531.132.797.132.797-.133 0-.133-2.125-2.391-4.516-4.914a168 168 0 0 1-6.246-6.645c-.797-1.195-2.257-3.191-3.187-4.387-.801-1.195-2.125-3.586-2.926-5.18-.797-1.593-1.859-4.12-2.391-5.581-.398-1.461-1.195-3.723-1.46-5.051-.266-1.328-.797-3.719-1.063-5.446-.266-1.992-.531-6.113-.531-11.828-.133-4.914-.266-9.3-.266-9.832-.133-.53-.265-1.062-.398-1.062-.266 0-.664.797-1.067 1.594"/><path d="M301.609-150.02c-.664.133-2.257 1.2-3.589 2.395-1.329 1.062-3.055 2.391-3.719 2.922-.93.664-1.992 1.062-3.586 1.328-1.199.133-3.988.664-6.113.93-3.192.535-4.254.797-6.247 1.859-1.726.801-2.789 1.598-4.121 3.059-.929 1.062-2.257 2.789-2.921 4.121-.665 1.328-1.329 2.922-1.594 3.453l-.266 1.062-1.992-1.461c-1.195-.796-3.191-1.996-4.52-2.66-2.257-1.062-2.656-1.195-3.984-.929-.797 0-2.66.664-4.121 1.199-1.859.797-2.922 1.461-3.719 2.39-.664.664-1.328 1.727-1.461 2.391-.265.797-.265 1.859-.136 2.523 0 .665.402 1.727.8 2.262.266.664 1.328 1.727 2.258 2.524.93.664 2.789 2.257 3.985 3.586 1.199 1.199 2.925 3.191 3.722 4.386s1.461 2.258 1.328 2.391c0 0-1.726-.664-3.718-1.594-2.129-.797-4.918-1.859-6.247-2.258-1.859-.398-3.324-.664-6.113-.664-3.187 0-4.121.133-6.512.797-1.46.531-3.984 1.328-5.445 1.992-1.465.664-3.723 1.86-4.918 2.657-1.328.664-3.586 2.39-5.051 3.589-1.593 1.329-3.586 3.321-4.515 4.516-1.063 1.195-2.391 2.922-3.055 3.856-.668 1.062-1.73 3.054-2.527 4.515-.664 1.461-1.727 3.723-2.258 5.184-.531 1.46-1.195 4.25-1.594 6.242-.398 1.996-.93 5.45-1.062 7.844-.266 3.187-.266 5.312 0 9.031.132 2.527.531 6.246.929 8.238.266 1.996.93 4.918 1.328 6.512.399 1.598 1.196 4.387 1.727 6.113a307 307 0 0 0 2.395 6.38c.664 1.726 1.992 4.515 2.921 6.112.797 1.727 2.391 4.383 3.454 5.977 1.062 1.594 2.925 4.254 4.253 5.848 1.329 1.593 3.719 4.25 5.446 5.847 1.73 1.727 4.254 3.852 5.715 4.914 1.461 1.196 3.988 2.66 5.582 3.59 1.726.797 3.984 1.727 5.312 2.125 1.328.531 3.59 1.063 5.051 1.461 1.461.266 4.383.664 6.512.664 3.586.133 4.117.133 6.773-.664 1.598-.398 3.723-.93 4.652-1.195l1.594-.531 4.785 1.593c4.25 1.461 4.914 1.594 7.442 1.594 2.39 0 3.32-.133 6.246-.93 2.125-.664 5.047-1.859 7.703-3.187 2.262-1.195 5.449-3.059 7.043-4.121 1.594-1.195 4.652-3.852 6.91-6.11 2.258-2.261 5.051-5.183 5.981-6.511s2.656-3.723 3.718-5.317c1.063-1.593 2.66-4.382 3.59-5.98.93-1.594 2.391-4.781 3.32-6.906 1.063-2.262 2.391-5.715 3.188-7.973.797-2.129 1.727-5.582 2.262-7.441.398-1.993 1.062-5.184 1.328-7.043a73 73 0 0 0 .531-8.504c0-3.454-.133-6.246-.531-8.504-.266-1.727-.797-4.52-1.195-5.98-.399-1.595-1.2-3.72-1.598-4.915-.399-1.062-1.461-3.324-2.258-4.918s-2.258-3.988-3.187-5.316c-1.063-1.328-2.528-3.188-3.457-4.117-.93-1.063-2.391-2.391-3.454-3.192-.929-.797-2.921-2.258-4.382-3.054-1.465-.93-3.989-2.258-5.715-2.922-1.727-.664-4.653-1.461-6.512-1.86-1.859-.398-3.984-.668-4.785-.797h-1.328l1.593-.8c.934-.399 2.528-1.594 3.59-2.657 1.196-1.195 2.391-2.789 3.055-3.984.531-1.195 1.328-3.059 1.594-4.254.398-1.328.801-3.851 1.066-5.98.266-1.993.531-5.313.664-7.309.133-2.391.133-4.117-.133-4.914-.132-.664-.664-1.727-1.062-2.258-.27-.531-1.199-1.332-1.863-1.594-.664-.402-1.727-.8-2.391-.8-.797-.129-1.859 0-2.391.132m-1.062 8.11c-1.461 1.191-3.457 2.523-4.387 3.055-1.062.531-2.922 1.062-4.121 1.328-1.324.265-3.851.664-5.578.797-1.727.265-3.856.796-4.652 1.062-.93.398-2.125 1.195-2.789 1.859s-1.594 1.996-2.125 2.926c-.532.93-1.196 2.391-1.461 3.453-.27.93-.532 2.657-.532 4.121 0 1.196.262 2.922.399 3.586l.929 2.789.665 1.332 2.656-1.464c1.461-.797 3.457-1.594 4.387-1.86.796-.265 3.187-.664 5.046-.929 1.996-.133 4.121-.532 4.918-.797.797-.133 1.993-.532 2.657-.93.796-.398 1.859-1.195 2.39-1.727.403-.664 1.196-1.597 1.465-2.261.266-.532.797-1.993 1.195-3.055.399-1.195.797-3.32 1.063-4.914.266-1.598.531-4.52.664-6.777 0-2.129.133-3.856 0-3.856 0 0-1.328 1.063-2.789 2.262m-42.785 14.879c-.668.265-1.332.664-1.465.664s1.195 1.461 2.926 3.191c1.726 1.727 3.851 3.985 4.781 5.313.93 1.199 2.391 3.457 3.191 4.918.664 1.461 1.594 3.851 2.125 5.179.399 1.465.797 3.856.93 5.317.133 1.992 0 2.523-.266 2.523-.132 0-1.461-.398-2.921-.797-1.333-.531-3.989-1.593-5.715-2.39-1.86-.93-4.653-2.125-6.246-2.789-1.727-.664-4.25-1.594-5.582-1.996-2.125-.532-3.188-.532-5.047-.399-1.461 0-3.321.399-5.184 1.067-1.594.531-3.984 1.593-5.445 2.257-1.461.797-3.723 2.125-4.918 3.055s-3.055 2.524-3.852 3.586c-.929.934-2.394 2.66-3.191 3.855s-1.86 2.922-2.258 3.856c-.531 1.062-1.328 2.922-1.859 4.383a140 140 0 0 0-1.461 5.316c-.399 1.461-.797 3.719-.934 4.914-.133 1.195-.266 4.918-.133 8.106 0 3.457.27 7.308.532 9.035.269 1.726.933 4.918 1.464 6.91a173 173 0 0 0 1.993 7.176c.664 1.86 1.726 4.785 2.523 6.379.664 1.726 2.129 4.383 3.059 6.109 1.062 1.73 2.656 4.254 3.718 5.715.93 1.328 2.657 3.59 3.856 4.918 1.062 1.328 3.187 3.586 4.648 4.781 1.461 1.328 3.586 2.922 4.52 3.723.929.664 2.789 1.726 4.117 2.39s3.453 1.461 4.785 1.993c1.328.398 3.586.93 4.914 1.195 1.461.266 3.59.531 4.918.531 1.727 0 3.055-.266 6.11-1.195 2.793-.797 4.253-1.063 5.847-1.063 1.727 0 2.793.266 6.246 1.328 3.188 1.196 4.52 1.461 6.114 1.461 1.593.133 2.656-.132 4.648-.796 1.328-.399 3.723-1.329 5.184-2.125 1.593-.665 4.117-2.126 5.582-3.188 1.593-.93 4.117-2.793 5.445-3.988s3.453-3.32 4.652-4.782c1.196-1.328 2.922-3.324 3.719-4.52.93-1.194 2.129-3.054 2.926-4.116.664-1.196 1.992-3.457 2.922-5.051.929-1.727 2.39-4.781 3.32-6.777.93-2.125 2.395-5.848 3.324-8.504.797-2.657 1.86-6.242 2.125-7.973.399-1.86.797-4.516.93-5.977.133-1.464.266-4.12.266-5.98s-.133-4.918-.399-6.512c-.266-1.726-.664-4.25-1.062-5.582-.266-1.328-.93-3.453-1.329-4.515-.531-1.196-1.328-3.192-1.863-4.254-.527-1.196-1.726-3.055-2.523-4.25-.797-1.196-2.524-3.32-3.852-4.653-1.328-1.328-3.191-2.921-4.254-3.586-1.062-.796-2.922-1.859-4.25-2.39-1.328-.664-3.59-1.598-5.05-1.996-1.461-.399-3.985-.797-5.848-1.063-2.789-.265-3.453-.265-5.445.133-1.196.266-3.192 1.063-4.52 1.731-1.195.531-3.852 2.125-5.844 3.32-1.863 1.328-4.121 2.656-4.918 3.055-.929.265-1.859.664-2.258.796-.796.266-.796.133-1.328-2.656-.265-1.594-.933-4.254-1.597-6.113-.532-1.86-1.461-4.383-2.125-5.711s-1.86-3.59-2.789-4.918c-.797-1.328-2.125-3.055-2.789-3.852-.801-.664-1.997-1.726-2.661-2.394-.796-.531-1.726-1.195-2.257-1.461s-1.196-.399-1.329-.399c-.265 0-.929.266-1.593.532M285-113.078c-.664.265-1.992.93-3.059 1.594-1.062.531-1.859 1.195-1.859 1.461 0 .265 0 .398.133.398 0 0 .797-.398 1.726-1.063.797-.531 2.395-1.328 3.325-1.859.929-.531 1.461-.93 1.328-.93-.266 0-.93.266-1.594.399m-53.02 37.867c-.394.797-.929 3.059-1.328 4.785-.398 1.727-.929 4.516-1.062 5.98-.133 1.594-.266 4.383-.266 6.11 0 1.863.133 4.785.399 6.645.265 1.859.797 4.52 1.195 6.113.398 1.46 1.062 3.586 1.465 4.648.398 1.2 1.195 2.926 1.726 3.989.532 1.062 1.86 3.187 2.789 4.648 1.063 1.461 3.192 4.121 4.786 5.715 1.461 1.594 3.851 3.855 5.312 4.785 1.328 1.063 3.723 2.523 5.184 3.32 1.593.797 2.922 1.328 3.453 1.196.531 0 .265-.532-3.188-3.852-2.125-2.129-4.918-5.183-6.246-6.644-1.195-1.594-3.054-4.122-3.984-5.582-1.063-1.461-2.395-3.72-3.059-5.18-.664-1.328-1.726-3.856-2.39-5.582-.532-1.594-1.328-4.653-1.727-6.645-.398-1.86-.797-5.047-1.062-6.777-.133-1.86-.266-6.375-.266-10.098 0-3.719-.133-7.308-.266-7.972 0-.664-.265-1.196-.398-1.196s-.664.664-1.067 1.594"/><path fill="#8a0" d="M300.547-141.91c-1.461 1.191-3.457 2.523-4.387 3.055-1.062.531-2.922 1.062-4.121 1.328-1.324.265-3.851.664-5.578.797-1.727.265-3.856.796-4.652 1.062-.93.398-2.125 1.195-2.789 1.859s-1.594 1.996-2.125 2.926c-.532.93-1.196 2.391-1.461 3.453-.27.93-.532 2.657-.532 4.121 0 1.196.262 2.922.399 3.586l.929 2.789.665 1.332 2.656-1.464c1.461-.797 3.457-1.594 4.387-1.86.796-.265 3.187-.664 5.046-.929 1.996-.133 4.121-.532 4.918-.797.797-.133 1.993-.532 2.657-.93.796-.398 1.859-1.195 2.39-1.727.403-.664 1.196-1.597 1.465-2.261.266-.532.797-1.993 1.195-3.055.399-1.195.797-3.32 1.063-4.914.266-1.598.531-4.52.664-6.777 0-2.129.133-3.856 0-3.856 0 0-1.328 1.063-2.789 2.262m11.957 127.558-1.594 1.727 1.727-1.594c.929-.933 1.726-1.73 1.726-1.73l-.133-.133z"/></g></svg>