<svg xmlns="http://www.w3.org/2000/svg" width="229pt" height="188pt" viewBox="0 -188 229 188"><g id="page1"><path fill="none" stroke="#000" stroke-linecap="round" stroke-linejoin="round" stroke-width="2" d="M1-16.277v-170.078h226.77v170.078z"/><path fill="#0000bf" d="M15.172-16.277H43.52v-148.215H15.172Z"/><path fill="none" stroke="#000" stroke-linecap="round" stroke-linejoin="round" stroke-width="2" d="M15.172-16.277v-148.215H43.52v148.215z"/><path fill="#0000bf" d="M57.691-16.277H86.04v-51.465H57.691Z"/><path fill="none" stroke="#000" stroke-linecap="round" stroke-linejoin="round" stroke-width="2" d="M57.691-16.277v-51.465H86.04v51.465z"/><path fill="#0000bf" d="M100.215-16.277h28.344v-96.75h-28.344Z"/><path fill="none" stroke="#000" stroke-linecap="round" stroke-linejoin="round" stroke-width="2" d="M100.215-16.277v-96.75h28.344v96.75z"/><path fill="#0000bf" d="M142.73-16.277h28.348V-28.63H142.73Z"/><path fill="none" stroke="#000" stroke-linecap="round" stroke-linejoin="round" stroke-width="2" d="M142.73-16.277V-28.63h28.348v12.352z"/><path fill="#0000bf" d="M185.254-16.277h28.344v-2.059h-28.344Z"/><path fill="none" stroke="#000" stroke-linecap="round" stroke-linejoin="round" stroke-width="2" d="M185.254-16.277v-2.059h28.344v2.059z"/><path d="M85.89-168.242c-1.148 0-1.363 0-1.363-.809v-3.117c.325.449 1.059 1.148 2.204 1.148 2.058 0 3.87-1.738 3.87-4.05 0-2.274-1.683-4.032-3.636-4.032-1.578 0-2.418 1.129-2.473 1.204v-1.204l-2.492.2v.519c1.258 0 1.363.125 1.363.914v8.418c0 .809-.199.809-1.363.809v.515c.469-.035 1.434-.035 1.938-.035.519 0 1.484 0 1.953.035zm-1.363-8.672c0-.34 0-.359.2-.645a2.57 2.57 0 0 1 2.093-1.148c1.344 0 2.418 1.629 2.418 3.637 0 2.132-1.219 3.691-2.597 3.691a2.12 2.12 0 0 1-1.434-.574c-.41-.41-.68-.77-.68-1.274zm12.118-1.988v.519c1.218 0 1.363.125 1.363 1v3.211c0 1.52-.805 2.793-2.149 2.793-1.468 0-1.558-.844-1.558-1.793v-5.93l-2.528.2v.519c1.36 0 1.36.055 1.36 1.649v2.687c0 1.109 0 1.754.539 2.344.43.469 1.164.683 2.078.683.305 0 .879 0 1.488-.519.52-.414.805-1.094.805-1.094v1.613l2.492-.179v-.52c-1.219 0-1.363-.125-1.363-1.004v-6.379zm12.328 3.347c0-1.664 0-2.164-.414-2.738-.52-.699-1.36-.809-1.969-.809-1.738 0-2.418 1.489-2.563 1.848h-.019v-1.848l-2.434.2v.519c1.219 0 1.36.125 1.36 1v4.86c0 .804-.196.804-1.36.804v.52c.465-.035 1.434-.035 1.934-.035.519 0 1.488 0 1.953.035v-.52c-1.148 0-1.359 0-1.359-.804v-3.336c0-1.879 1.234-2.883 2.343-2.883 1.11 0 1.364.914 1.364 2.008v4.211c0 .804-.2.804-1.364.804v.52c.469-.035 1.434-.035 1.938-.035.515 0 1.484 0 1.953.035v-.52c-.898 0-1.344 0-1.363-.539zm4.238-2.847h2.523v-.52h-2.523v-3.297h-.395c-.019 1.684-.664 3.406-2.293 3.461v.356h1.524v4.98c0 1.988 1.324 2.402 2.273 2.402 1.129 0 1.719-1.113 1.719-2.402v-1.019h-.394v.984c0 1.289-.516 2.043-1.215 2.043-1.219 0-1.219-1.668-1.219-1.973zm10.75 3.047c.394 0 .43 0 .43-.34 0-1.813-.969-3.496-3.133-3.496-2.043 0-3.621 1.847-3.621 4.07 0 2.363 1.828 4.101 3.816 4.101 2.133 0 2.938-1.937 2.938-2.312 0-.106-.09-.18-.196-.18-.144 0-.179.09-.215.18-.464 1.504-1.667 1.918-2.417 1.918-.754 0-2.567-.504-2.567-3.602v-.339zm-4.945-.34c.144-2.813 1.718-3.137 2.222-3.137 1.918 0 2.024 2.527 2.043 3.137zm8.015 1.254c.84.554 1.559.554 1.758.554 1.609 0 2.813-1.218 2.813-2.597a2.44 2.44 0 0 0-.719-1.739c.699-.715 1.539-.715 1.633-.715.07 0 .16 0 .23.036-.18.07-.269.25-.269.445 0 .254.179.469.468.469.145 0 .465-.09.465-.485a.84.84 0 0 0-.879-.824c-.929 0-1.629.574-1.883.84a3 3 0 0 0-1.843-.645c-1.61 0-2.813 1.219-2.813 2.598 0 1.024.629 1.684.805 1.848-.211.265-.535.789-.535 1.484 0 1.039.629 1.488.769 1.578-.824.235-1.648.879-1.648 1.809 0 1.238 1.683 2.258 3.89 2.258 2.129 0 3.903-.95 3.903-2.293 0-.45-.125-1.504-1.199-2.063-.914-.465-1.809-.465-3.348-.465-1.098 0-1.223 0-1.543-.34-.18-.179-.34-.519-.34-.894 0-.305.106-.609.285-.859m1.774.175c-1.575 0-1.575-1.808-1.575-2.218 0-.325 0-1.059.301-1.539.34-.524.879-.7 1.258-.7 1.574 0 1.574 1.809 1.574 2.219 0 .324 0 1.059-.304 1.539-.34.524-.879.699-1.254.699m.484 6.364c-1.719 0-3.027-.879-3.027-1.903 0-.14.035-.84.715-1.304.394-.25.554-.25 1.812-.25 1.484 0 3.508 0 3.508 1.554 0 1.059-1.359 1.903-3.008 1.903m6.543-6.539c.84.554 1.559.554 1.758.554 1.609 0 2.808-1.218 2.808-2.597 0-.485-.14-1.164-.714-1.739.699-.715 1.539-.715 1.629-.715.074 0 .164 0 .234.036-.18.07-.27.25-.27.445 0 .254.18.469.465.469.145 0 .469-.09.469-.485a.84.84 0 0 0-.879-.824c-.934 0-1.629.574-1.883.84a3 3 0 0 0-1.844-.645c-1.613 0-2.812 1.219-2.812 2.598 0 1.024.629 1.684.805 1.848a2.4 2.4 0 0 0-.535 1.484c0 1.039.625 1.488.769 1.578-.824.235-1.648.879-1.648 1.809 0 1.238 1.683 2.258 3.886 2.258 2.133 0 3.907-.95 3.907-2.293 0-.45-.125-1.504-1.2-2.063-.914-.465-1.808-.465-3.351-.465-1.094 0-1.219 0-1.539-.34-.18-.179-.34-.519-.34-.894 0-.305.105-.609.285-.859m1.773.175c-1.574 0-1.574-1.808-1.574-2.218 0-.325 0-1.059.301-1.539.34-.524.879-.7 1.258-.7 1.574 0 1.574 1.809 1.574 2.219 0 .324 0 1.059-.305 1.539a1.52 1.52 0 0 1-1.254.699m.485 6.364c-1.723 0-3.027-.879-3.027-1.903 0-.14.035-.84.714-1.304.395-.25.555-.25 1.813-.25 1.484 0 3.508 0 3.508 1.554 0 1.059-1.36 1.903-3.008 1.903m7.426-14.332a.877.877 0 0 0-.875-.879.857.857 0 0 0-.86.859c0 .539.43.879.86.879a.87.87 0 0 0 .875-.859m-2.469 3.332v.519c1.144 0 1.305.106 1.305.985v4.875c0 .804-.196.804-1.36.804v.52c.5-.035 1.36-.035 1.879-.035.199 0 1.238 0 1.848.035v-.52c-1.164 0-1.239-.09-1.239-.789v-6.594z"/><path fill="#fff" d="M29.11-95.727v-.41h-4.317c-2.168 0-2.203-.234-2.277-.574h-.391l-.559 3.582h.395c.055-.32.215-1.433.45-1.629.144-.11 1.487-.11 1.737-.11h3.797l-1.898 2.727c-.485.696-2.293 3.637-2.293 7.004 0 .196 0 .914.734.914.754 0 .754-.699.754-.933v-.895c0-2.668.43-4.746 1.27-5.949zm8.074 8.117h-.395c-.055.305-.2 1.29-.375 1.579-.125.16-1.148.16-1.687.16h-3.313c.484-.414 1.578-1.559 2.043-1.988 2.723-2.508 3.727-3.442 3.727-5.215 0-2.059-1.633-3.442-3.711-3.442s-3.293 1.778-3.293 3.317c0 .914.785.914.84.914.375 0 .843-.27.843-.844 0-.5-.34-.84-.843-.84-.16 0-.196 0-.25.016.34-1.219 1.308-2.04 2.472-2.04 1.524 0 2.453 1.27 2.453 2.919 0 1.523-.879 2.847-1.898 3.996l-3.617 4.047v.43h6.539z"/><path d="M31.754-5.324c0-.992-.059-1.957-.492-2.867-.489-.993-1.348-1.254-1.934-1.254-.695 0-1.543.347-1.984 1.336-.336.754-.453 1.496-.453 2.785 0 1.16.082 2.031.511 2.879a2.13 2.13 0 0 0 1.914 1.195c1.04 0 1.637-.621 1.98-1.312.434-.899.458-2.067.458-2.762m-2.438 3.836c-.382 0-1.16-.215-1.386-1.52-.133-.715-.133-1.62-.133-2.46 0-.977 0-1.864.191-2.567.203-.8.813-1.172 1.328-1.172.454 0 1.145.277 1.372 1.3.156.684.156 1.626.156 2.438 0 .805 0 1.711-.13 2.438-.23 1.316-.98 1.543-1.398 1.543M70.984-75.91h-.394c-.055.304-.2 1.289-.38 1.578-.124.16-1.144.16-1.683.16h-3.312c.48-.414 1.574-1.559 2.043-1.988 2.723-2.508 3.726-3.442 3.726-5.215 0-2.059-1.632-3.437-3.71-3.437s-3.297 1.773-3.297 3.312c0 .914.789.914.843.914.375 0 .844-.27.844-.844 0-.5-.344-.84-.844-.84-.164 0-.195 0-.25.02.34-1.219 1.305-2.043 2.47-2.043 1.522 0 2.456 1.27 2.456 2.918 0 1.523-.879 2.852-1.898 3.996l-3.621 4.05v.43h6.539zm3.211-7.254a5.3 5.3 0 0 0 1.594.266c2.023 0 3.313-1.485 3.313-1.735 0-.074-.036-.164-.145-.164-.035 0-.07 0-.23.074a5.88 5.88 0 0 1-4.696-.02c-.125-.054-.16-.054-.18-.054-.14 0-.14.11-.14.395v5.32c0 .324 0 .434.215.434.09 0 .105-.02.285-.235a2.7 2.7 0 0 1 2.238-1.164c.95 0 1.418.875 1.559 1.18.305.699.324 1.578.324 2.258s0 1.703-.504 2.507c-.39.649-1.09 1.094-1.879 1.094a2.76 2.76 0 0 1-2.668-2.113.8.8 0 0 0 .285.055c.305 0 .79-.18.79-.79 0-.503-.34-.788-.79-.788-.324 0-.789.16-.789.859 0 1.523 1.22 3.262 3.207 3.262 2.024 0 3.797-1.704 3.797-3.977 0-2.133-1.43-3.906-3.312-3.906-1.024 0-1.809.449-2.274.949zM62.629-8.348c.516.168.934.18 1.062.18 1.352 0 2.211-.992 2.211-1.16 0-.047-.023-.106-.093-.106-.024 0-.051 0-.157.047a3.87 3.87 0 0 1-3.129-.012c-.085-.035-.109-.035-.12-.035-.098 0-.098.07-.098.262v3.55c0 .216 0 .286.144.286.059 0 .074-.012.192-.156a1.81 1.81 0 0 1 1.492-.774c.636 0 .945.586 1.043.79.203.464.215 1.046.215 1.503 0 .453 0 1.137-.336 1.672-.262.43-.727.73-1.254.73a1.85 1.85 0 0 1-1.782-1.41.6.6 0 0 0 .192.036c.203 0 .527-.121.527-.528 0-.332-.23-.523-.527-.523-.215 0-.523.105-.523.574 0 1.016.812 2.172 2.136 2.172 1.352 0 2.535-1.133 2.535-2.652 0-1.422-.957-2.606-2.21-2.606-.684 0-1.208.301-1.52.633zm7.609 4.59v-.644h-3.105v.644zM74.34-9.16c0-.274 0-.285-.238-.285-.286.32-.883.765-2.114.765v.344c.274 0 .871 0 1.528-.309v6.223c0 .43-.035.574-1.086.574h-.371v.348c.324-.023 1.48-.023 1.875-.023s1.543 0 1.863.023v-.348h-.367c-1.055 0-1.09-.144-1.09-.574zm3.89.812c.512.168.93.18 1.063.18 1.348 0 2.21-.992 2.21-1.16 0-.047-.022-.106-.097-.106-.023 0-.047 0-.156.047a3.9 3.9 0 0 1-3.129-.011c-.082-.036-.105-.036-.117-.036-.098 0-.098.07-.098.262v3.55c0 .216 0 .286.145.286.058 0 .07-.012.191-.156a1.8 1.8 0 0 1 1.492-.774c.633 0 .946.586 1.04.79.203.464.214 1.046.214 1.503 0 .453 0 1.137-.332 1.672-.265.43-.73.73-1.258.73a1.85 1.85 0 0 1-1.777-1.41.5.5 0 0 0 .192.036c.203 0 .523-.121.523-.528 0-.332-.227-.523-.523-.523-.215 0-.528.105-.528.574 0 1.016.813 2.172 2.14 2.172 1.348 0 2.532-1.133 2.532-2.652 0-1.422-.957-2.606-2.21-2.606-.68 0-1.208.301-1.516.633z"/><path fill="#fff" d="M112.066-70.562c0-.34 0-.43-.25-.43-.144 0-.199 0-.339.215l-5.391 8.367v.52h4.711v1.628c0 .664-.039.844-1.344.844h-.359v.52c.41-.04 1.828-.04 2.328-.04s1.937 0 2.348.04v-.52h-.36c-1.289 0-1.344-.18-1.344-.844v-1.629h1.813v-.52h-1.813zm-1.183 1.398v6.754h-4.352zm12.027-.859v-.415h-4.316c-2.168 0-2.203-.234-2.278-.574h-.394l-.555 3.582h.395c.054-.32.215-1.43.449-1.629.141-.105 1.484-.105 1.734-.105h3.801l-1.902 2.723c-.481.699-2.289 3.636-2.289 7.004 0 .195 0 .914.734.914.75 0 .75-.7.75-.93v-.899c0-2.668.43-4.746 1.274-5.945z"/><path d="M105.957-3.508h-.262c-.039.203-.132.86-.25 1.051-.086.11-.765.11-1.125.11h-2.211c.325-.278 1.051-1.04 1.364-1.329 1.816-1.672 2.484-2.293 2.484-3.476 0-1.371-1.086-2.293-2.473-2.293s-2.199 1.183-2.199 2.21c0 .61.528.61.563.61.25 0 .562-.18.562-.562a.535.535 0 0 0-.562-.563c-.11 0-.133 0-.168.012.226-.813.871-1.36 1.648-1.36 1.016 0 1.637.848 1.637 1.946 0 1.015-.586 1.902-1.266 2.664l-2.414 2.699v.289h4.363zm5.996-1.816c0-.992-.058-1.957-.488-2.867-.492-.993-1.352-1.254-1.938-1.254-.691 0-1.543.347-1.984 1.336-.332.754-.453 1.496-.453 2.785 0 1.16.082 2.031.512 2.879a2.13 2.13 0 0 0 1.914 1.195c1.039 0 1.636-.621 1.98-1.312.434-.899.457-2.067.457-2.762m-2.437 3.836c-.383 0-1.161-.215-1.387-1.52-.133-.715-.133-1.62-.133-2.46 0-.977 0-1.864.192-2.567.203-.8.816-1.172 1.328-1.172.453 0 1.148.277 1.375 1.3.156.684.156 1.626.156 2.438 0 .805 0 1.711-.133 2.438-.226 1.316-.98 1.543-1.398 1.543m6.121-2.27v-.644h-3.106v.644zm2.859-2.032c-.199.013-.25.024-.25.134 0 .117.063.117.277.117h.547c1.02 0 1.473.836 1.473 1.984 0 1.563-.813 1.985-1.398 1.985-.575 0-1.555-.278-1.903-1.063.387.059.731-.156.731-.586a.564.564 0 0 0-.586-.586c-.285 0-.598.164-.598.621 0 1.063 1.063 1.934 2.391 1.934 1.422 0 2.472-1.086 2.472-2.293 0-1.098-.882-1.96-2.031-2.164 1.039-.297 1.707-1.168 1.707-2.102 0-.945-.976-1.636-2.137-1.636-1.195 0-2.078.726-2.078 1.601 0 .477.371.574.551.574.25 0 .535-.18.535-.539 0-.382-.285-.55-.551-.55a.4.4 0 0 0-.128.011c.453-.812 1.574-.812 1.636-.812.395 0 1.172.18 1.172 1.351 0 .227-.039.895-.383 1.41-.359.524-.765.563-1.09.575zm9.059.466c0-.992-.063-1.957-.492-2.867-.489-.993-1.348-1.254-1.934-1.254-.695 0-1.543.347-1.984 1.336-.336.754-.454 1.496-.454 2.785 0 1.16.082 2.031.512 2.879a2.12 2.12 0 0 0 1.914 1.195c1.039 0 1.637-.621 1.981-1.312.433-.899.457-2.067.457-2.762m-2.438 3.836c-.383 0-1.16-.215-1.387-1.52-.132-.715-.132-1.62-.132-2.46 0-.977 0-1.864.191-2.567.203-.8.813-1.172 1.328-1.172.453 0 1.145.277 1.371 1.3.157.684.157 1.626.157 2.438 0 .805 0 1.711-.129 2.438-.231 1.316-.985 1.543-1.399 1.543m29.586-38.547c0-4.531 2.203-5.246 3.172-5.246.645 0 1.289.195 1.629.734-.215 0-.895 0-.895.734 0 .391.27.735.735.735.445 0 .75-.27.75-.79 0-.933-.68-1.847-2.239-1.847-2.253 0-4.621 2.313-4.621 6.254 0 4.926 2.149 6.04 3.672 6.04 1.953 0 3.621-1.704 3.621-4.032 0-2.383-1.668-3.977-3.457-3.977-1.597 0-2.187 1.38-2.367 1.88zm2.203 6.129c-1.129 0-1.664-1.004-1.828-1.383-.16-.465-.34-1.344-.34-2.594 0-1.418.645-3.191 2.258-3.191.984 0 1.508.664 1.774 1.273.285.66.285 1.559.285 2.328 0 .914 0 1.72-.336 2.403-.449.86-1.098 1.164-1.813 1.164M145.398-5.79c-.203.013-.25.024-.25.134 0 .117.059.117.274.117h.551c1.015 0 1.468.836 1.468 1.984 0 1.563-.812 1.985-1.398 1.985-.574 0-1.551-.278-1.898-1.063.382.059.726-.156.726-.586a.563.563 0 0 0-.582-.586c-.289 0-.598.164-.598.621 0 1.063 1.063 1.934 2.387 1.934 1.426 0 2.477-1.086 2.477-2.293 0-1.098-.887-1.96-2.032-2.164 1.04-.297 1.707-1.168 1.707-2.102 0-.945-.98-1.636-2.136-1.636-1.196 0-2.082.726-2.082 1.601 0 .477.371.574.551.574.25 0 .539-.18.539-.539 0-.382-.289-.55-.551-.55-.074 0-.098 0-.133.011.453-.812 1.578-.812 1.637-.812.394 0 1.172.18 1.172 1.351 0 .227-.036.895-.383 1.41-.36.524-.766.563-1.086.575zm5.231-2.558c.516.168.934.18 1.062.18 1.352 0 2.211-.992 2.211-1.16 0-.047-.023-.106-.093-.106-.024 0-.051 0-.157.047a3.86 3.86 0 0 1-3.129-.012c-.085-.035-.109-.035-.121-.035-.097 0-.097.07-.097.262v3.55c0 .216 0 .286.144.286.059 0 .074-.012.192-.156a1.81 1.81 0 0 1 1.492-.774c.637 0 .945.586 1.043.79.203.464.215 1.046.215 1.503 0 .453 0 1.137-.336 1.672-.262.43-.727.73-1.254.73a1.85 1.85 0 0 1-1.781-1.41.6.6 0 0 0 .191.036c.203 0 .527-.121.527-.528 0-.332-.23-.523-.527-.523-.215 0-.523.105-.523.574 0 1.016.808 2.172 2.136 2.172 1.352 0 2.535-1.133 2.535-2.652 0-1.422-.957-2.606-2.211-2.606-.683 0-1.207.301-1.519.633zm7.609 4.59v-.644h-3.105v.644zm4.977-5.519c0-.227 0-.29-.168-.29-.098 0-.133 0-.227.145l-3.597 5.578v.348h3.144v1.09c0 .441-.027.558-.898.558h-.239v.348c.274-.023 1.219-.023 1.551-.023.336 0 1.293 0 1.567.023v-.348h-.239c-.863 0-.894-.117-.894-.558v-1.09h1.207v-.348h-1.207zm-.789.93v4.503h-2.903zm3.804-.001c.512.168.93.18 1.063.18 1.348 0 2.211-.992 2.211-1.16 0-.047-.024-.106-.098-.106-.023 0-.047 0-.152.047a3.88 3.88 0 0 1-3.133-.012c-.082-.035-.105-.035-.117-.035-.098 0-.098.07-.098.262v3.55c0 .216 0 .286.145.286.058 0 .07-.012.191-.156a1.8 1.8 0 0 1 1.492-.774c.633 0 .946.586 1.039.79.204.464.215 1.046.215 1.503 0 .453 0 1.137-.332 1.672-.265.43-.73.73-1.258.73a1.85 1.85 0 0 1-1.777-1.41.6.6 0 0 0 .192.036c.203 0 .527-.121.527-.528 0-.332-.231-.523-.527-.523-.215 0-.528.105-.528.574 0 1.016.813 2.172 2.141 2.172 1.347 0 2.531-1.133 2.531-2.652 0-1.422-.953-2.606-2.211-2.606-.68 0-1.207.301-1.516.633zm33.93-26.636c0-.41 0-.43-.359-.43-.43.484-1.324 1.148-3.172 1.148v.52c.414 0 1.309 0 2.293-.465v9.332c0 .645-.051.86-1.629.86h-.555v.519c.485-.035 2.223-.035 2.813-.035s2.308 0 2.793.035v-.52h-.555c-1.574 0-1.629-.214-1.629-.859zm-5.031 26.636c.516.168.934.18 1.062.18 1.352 0 2.211-.992 2.211-1.16 0-.047-.023-.106-.093-.106-.024 0-.051 0-.157.047a3.86 3.86 0 0 1-3.129-.012c-.085-.035-.109-.035-.121-.035-.097 0-.097.07-.097.262v3.55c0 .216 0 .286.144.286.059 0 .074-.012.192-.156a1.81 1.81 0 0 1 1.492-.774c.637 0 .945.586 1.043.79.203.464.215 1.046.215 1.503 0 .453 0 1.137-.336 1.672-.262.43-.727.73-1.254.73a1.85 1.85 0 0 1-1.781-1.41.6.6 0 0 0 .191.036c.203 0 .527-.121.527-.528 0-.332-.23-.523-.527-.523-.215 0-.523.105-.523.574 0 1.016.808 2.172 2.136 2.172 1.352 0 2.535-1.133 2.535-2.652 0-1.422-.957-2.606-2.211-2.606-.683 0-1.207.301-1.519.633zm9.625 3.024c0-.992-.059-1.957-.492-2.867-.489-.993-1.348-1.254-1.934-1.254-.695 0-1.543.347-1.984 1.336-.336.754-.453 1.496-.453 2.785 0 1.16.082 2.031.511 2.879a2.13 2.13 0 0 0 1.914 1.195c1.039 0 1.637-.621 1.981-1.312.433-.899.457-2.067.457-2.762m-2.438 3.836c-.382 0-1.16-.215-1.386-1.52-.133-.715-.133-1.62-.133-2.46 0-.977 0-1.864.191-2.567.203-.8.813-1.172 1.328-1.172.454 0 1.149.277 1.372 1.3.156.684.156 1.626.156 2.438 0 .805 0 1.711-.129 2.438-.231 1.316-.981 1.543-1.399 1.543"/></g></svg>