<svg xmlns="http://www.w3.org/2000/svg" width="455pt" height="46pt" viewBox="0 -46 455 46"><g id="page1"><path fill="none" stroke="#000" stroke-linecap="round" stroke-linejoin="round" stroke-width=".5" d="M.25-45.61h45.356V-.253H.25zm45.356 0h45.351V-.253H45.606zm45.351 0h45.356V-.253H90.957zm45.356 0h45.355V-.253h-45.355zm45.355 0h45.352V-.253h-45.352zm45.352 0h45.355V-.253H227.02zm45.355 0h45.355V-.253h-45.355zm45.355 0h45.356V-.253H317.73zm45.356 0h45.352V-.253h-45.352zm45.352 0h45.355V-.253h-45.355z"/><path d="M20.555-28.383a6.1 6.1 0 0 0 1.922.348c1.921 0 2.976-1.031 3.574-1.63 0-.167 0-.269-.125-.269-.02 0-.063 0-.227.082-.722.309-1.57.559-2.605.559a6.2 6.2 0 0 1-2.559-.539c-.226-.102-.27-.102-.289-.102-.105 0-.125.02-.125.434v5.992c0 .371 0 .473.207.473.102 0 .145-.04.246-.184.66-.93 1.57-1.324 2.606-1.324.722 0 2.273.457 2.273 3.988 0 .66 0 1.86-.621 2.809-.52.848-1.324 1.281-2.21 1.281-1.364 0-2.747-.95-3.122-2.543.086.024.25.063.332.063.27 0 .785-.145.785-.785 0-.56-.39-.786-.785-.786-.477 0-.785.29-.785.868 0 1.796 1.426 3.68 3.617 3.68 2.125 0 4.148-1.84 4.148-4.505 0-2.48-1.609-4.402-3.613-4.402a3.52 3.52 0 0 0-2.644 1.137zm52.261-.789v-.453h-4.855c-2.414 0-2.457-.266-2.54-.66h-.37l-.602 3.863h.371c.063-.39.207-1.445.457-1.84.121-.164 1.653-.164 2.004-.164h4.543l-2.293 3.41c-1.527 2.29-2.582 5.391-2.582 8.094 0 .25 0 .953.746.953.743 0 .743-.703.743-.972v-.95c0-3.386.578-5.617 1.527-7.043zm45.403 0v-.453h-4.856c-2.418 0-2.461-.266-2.543-.66h-.371l-.597 3.863h.371c.062-.39.207-1.445.453-1.84.125-.164 1.652-.164 2.004-.164h4.547l-2.293 3.41c-1.532 2.29-2.582 5.391-2.582 8.094 0 .25 0 .953.742.953.746 0 .746-.703.746-.972v-.95c0-3.386.574-5.617 1.527-7.043zm42.922-.492c0-.438-.02-.457-.395-.457l-6.133 9.773v.535h5.328v2.024c0 .746-.039.953-1.484.953h-.394v.535c.66-.039 1.777-.039 2.48-.039.699 0 1.816 0 2.477.04v-.536h-.391c-1.445 0-1.488-.207-1.488-.953v-2.023h2.105v-.536h-2.105zm-1.137 1.363v7.953h-4.977zm41.785 4.875c0-4.937 2.313-6.055 3.656-6.055.434 0 1.489.083 1.903.891-.332 0-.95 0-.95.723 0 .555.454.742.743.742.187 0 .742-.082.742-.785 0-1.3-1.031-2.043-2.457-2.043-2.457 0-5.043 2.558-5.043 7.125 0 5.617 2.336 6.86 3.988 6.86 2.004 0 3.906-1.798 3.906-4.567 0-2.582-1.675-4.461-3.781-4.461-1.262 0-2.191.824-2.707 2.27zm2.582 6.961c-2.539 0-2.539-3.8-2.539-4.566 0-1.489.699-3.633 2.621-3.633.352 0 1.367 0 2.047 1.422.371.805.371 1.652.371 2.687 0 1.114 0 1.942-.433 2.766-.454.848-1.118 1.324-2.067 1.324m42.817-6.961c0-4.937 2.316-6.055 3.66-6.055.433 0 1.484.083 1.898.891-.332 0-.949 0-.949.723 0 .555.457.742.742.742.188 0 .746-.082.746-.785 0-1.3-1.031-2.043-2.461-2.043-2.457 0-5.039 2.558-5.039 7.125 0 5.617 2.332 6.86 3.988 6.86 2 0 3.903-1.798 3.903-4.567 0-2.582-1.672-4.461-3.781-4.461-1.258 0-2.188.824-2.707 2.27zm2.585 6.961c-2.543 0-2.543-3.8-2.543-4.566 0-1.489.704-3.633 2.625-3.633.352 0 1.364 0 2.043 1.422.375.805.375 1.652.375 2.687 0 1.114 0 1.942-.433 2.766-.457.848-1.117 1.324-2.067 1.324m45.094-6.859c1.836 0 2.641 1.59 2.641 3.43 0 2.48-1.32 3.43-2.52 3.43-1.093 0-2.871-.54-3.429-2.13a.8.8 0 0 0 .312.043c.496 0 .867-.332.867-.867 0-.602-.457-.871-.867-.871-.351 0-.891.168-.891.93 0 1.902 1.86 3.39 4.051 3.39 2.293 0 4.047-1.797 4.047-3.906 0-2.004-1.652-3.45-3.613-3.676 1.57-.332 3.078-1.734 3.078-3.613 0-1.613-1.633-2.79-3.492-2.79-1.879 0-3.531 1.157-3.531 2.81 0 .722.535.847.804.847.434 0 .805-.27.805-.808 0-.536-.371-.805-.805-.805-.082 0-.183 0-.269.043.601-1.363 2.234-1.613 2.953-1.613.726 0 2.09.351 2.09 2.335 0 .579-.082 1.61-.785 2.52-.622.805-1.325.848-2.004.91-.106 0-.579.04-.661.04-.144.019-.23.042-.23.187s.023.164.434.164zm50.149-5.848v-.453h-4.852c-2.418 0-2.461-.266-2.543-.66h-.371l-.602 3.863h.375c.063-.39.204-1.445.454-1.84.125-.164 1.652-.164 2.003-.164h4.543l-2.289 3.41c-1.531 2.29-2.586 5.391-2.586 8.094 0 .25 0 .953.747.953.742 0 .742-.703.742-.972v-.95c0-3.386.578-5.617 1.527-7.043zm44.66 6.242c0-1.261-.02-3.41-.887-5.062-.766-1.445-1.984-1.961-3.059-1.961-.992 0-2.25.453-3.035 1.941-.828 1.547-.91 3.469-.91 5.082 0 1.176.02 2.973.66 4.543.891 2.13 2.481 2.418 3.285 2.418.95 0 2.399-.394 3.243-2.355.621-1.426.703-3.098.703-4.606m-3.946 6.63c-1.324 0-2.109-1.137-2.394-2.708-.227-1.219-.227-2.992-.227-4.148 0-1.594 0-2.914.266-4.176.395-1.754 1.551-2.293 2.355-2.293.848 0 1.942.559 2.336 2.254.266 1.176.289 2.558.289 4.215 0 1.34 0 2.992-.25 4.21-.433 2.255-1.652 2.645-2.375 2.645m42.86-7.125c0-4.937 2.312-6.055 3.656-6.055.434 0 1.488.083 1.902.891-.332 0-.953 0-.953.723 0 .555.457.742.746.742.188 0 .743-.082.743-.785 0-1.3-1.032-2.043-2.457-2.043-2.461 0-5.043 2.558-5.043 7.125 0 5.617 2.336 6.86 3.988 6.86 2.004 0 3.906-1.798 3.906-4.567 0-2.582-1.676-4.461-3.781-4.461-1.262 0-2.192.824-2.707 2.27zm2.582 6.961c-2.539 0-2.539-3.8-2.539-4.566 0-1.489.699-3.633 2.621-3.633.351 0 1.363 0 2.047 1.422.371.805.371 1.652.371 2.687 0 1.114 0 1.942-.434 2.766-.457.848-1.117 1.324-2.066 1.324"/></g></svg>