<svg xmlns="http://www.w3.org/2000/svg" width="904pt" height="596" viewBox="0 -447 904 447"><g id="page1" transform="scale(1 -1)"><path fill="#cc9c6f" d="M143.008 392.828a7150 7150 0 0 1 617.555-86.793l2.367 16.844a7141 7141 0 0 1-307.832 50.133 7144 7144 0 0 1-309.723 36.66z"/><path fill="none" stroke="#000" stroke-linecap="round" stroke-linejoin="round" stroke-width="2" d="M143.008 392.828a7150 7150 0 0 1 617.555-86.793l2.367 16.844a7141 7141 0 0 1-307.832 50.133 7144 7144 0 0 1-309.723 36.66z"/><path fill="#fff" d="M176.746 397.387a5.668 5.668 0 1 1-11.336 0 5.667 5.667 0 1 1 11.336 0"/><path fill="none" stroke="#000" stroke-linecap="round" stroke-linejoin="round" stroke-width="2" d="M176.746 397.387a5.668 5.668 0 1 1-11.336 0 5.667 5.667 0 1 1 11.336 0"/><path fill="#fff" d="M738.16 318.484a5.67 5.67 0 1 1-11.341.003 5.67 5.67 0 0 1 11.341-.003"/><path fill="none" stroke="#000" stroke-linecap="round" stroke-linejoin="round" stroke-width="2" d="M738.16 318.484a5.67 5.67 0 1 1-11.341.003 5.67 5.67 0 0 1 11.341-.003"/><path fill="#d3ae37" d="M341.156 150.773c0 15.657-76.144 28.348-170.078 28.348C77.148 179.121 1 166.43 1 150.773s76.148-28.347 170.078-28.347c93.934 0 170.078 12.691 170.078 28.347"/><path fill="none" stroke="#000" stroke-linecap="round" stroke-linejoin="round" stroke-width="2" d="M341.156 150.773c0 15.657-76.144 28.348-170.078 28.348C77.148 179.121 1 166.43 1 150.773s76.148-28.347 170.078-28.347c93.934 0 170.078 12.691 170.078 28.347M171.078 377.547l161.41-217.813m-161.41 217.813L117.32 177.676m53.758 199.871L19.984 137.746m151.094 239.801v19.84"/><g fill-rule="evenodd"><path d="M134.172 196.316c-2.293-1.414-4.387-4.093-4.387-5.652 0-.926.828-2.242 2.582-4.094 1.414-1.507 3.117-3.797 3.75-5.113l1.121-2.387-1.363-2.73c-.781-1.512-1.898-4.383-2.484-6.43-6.383-20.758-12.911-28.355-35.227-40.828-6.965-3.848-9.402-5.75-11.008-8.281-1.512-2.535-1.512-5.117.145-7.504 4.773-7.067 24.066-6.188 40.097 1.801 11.743 5.8 20.317 14.129 24.75 24.019 5.067 11.156 6.286 22.801 3.36 31.719-1.117 3.41-4.531 8.477-6.672 9.891-1.465.972-1.949 1.753-2.68 4.531-1.367 5.015-4.191 10.328-5.992 11.254-2 1.023-4.094.972-5.992-.196m5.551-4.386c-.582-1.071-.438-1.657.976-4.434 2.192-4.336 4.531-11.84 5.555-17.781 4.383-25.774-14.664-49.988-43.313-55.004-2.488-.441-5.703-.781-7.113-.781-1.95 0-2.633-.242-3.023-1.024-.485-.926-.34-1.07 1.414-1.558 2.875-.828 11.351-.684 16.222.242 15.204 2.875 28.942 11.351 36.297 22.461 10.621 15.933 11.012 37.808.782 44.871-1.852 1.269-2.243 1.949-3.461 5.848-1.215 3.945-3.067 8.332-3.555 8.332-.051 0-.438-.536-.781-1.172m-4.09-2.778-1.707-.73 1.804-2.289c.922-1.266 2.141-3.36 2.629-4.676.926-2.34.926-2.34-.679-6.141-.832-2.093-2.293-6.187-3.219-9.011-3.652-11.45-7.063-17.344-13.738-24.02-5.164-5.164-8.625-7.601-19.34-13.789-8.625-4.922-11.645-6.965-12.035-8.039-.149-.34.73-1.605 1.898-2.871l2.145-2.242 4.093.34c12.032 1.023 24.02 6.136 32.543 13.984 6.969 6.43 11.5 13.785 13.887 22.555 1.363 5.019 1.656 16.468.535 21.097-1.754 7.16-4.094 13.059-6.136 15.446-.926 1.019-1.122 1.07-2.68.386"/><path fill="#f5a701" d="M136.945 197.438c.391-.149.828-.098 1.024.046.148.196-.145.293-.68.293-.637-.047-.73-.144-.344-.339m-5.406-2.875-1.512-1.708 1.707 1.512c.926.875 1.657 1.61 1.657 1.703 0 .391-.391.051-1.852-1.507m10.477.097c.195-.246.437-.488.582-.488.148 0 .097.242-.047.488-.196.293-.442.535-.586.535-.145 0-.145-.242.051-.535m-2.293-2.73c-.582-1.071-.438-1.657.976-4.434 2.192-4.336 4.531-11.84 5.555-17.781 4.383-25.774-14.664-49.988-43.313-55.004-2.488-.441-5.703-.781-7.113-.781-1.95 0-2.633-.242-3.023-1.024-.485-.926-.34-1.07 1.414-1.558 2.875-.828 11.351-.684 16.222.242 15.204 2.875 28.942 11.351 36.297 22.461 10.621 15.933 11.012 37.808.782 44.871-1.852 1.269-2.243 1.949-3.461 5.848-1.215 3.945-3.067 8.332-3.555 8.332-.051 0-.438-.536-.781-1.172m-.828-4.871c.976-1.61 2.144-4.09 2.632-5.504.489-1.414.973-2.485 1.071-2.34.632.586-3.75 9.746-4.969 10.523-.293.149.293-1.023 1.266-2.679m5.992 1.902c0-.391.148-.539.343-.344a.47.47 0 0 1 0 .684c-.195.195-.343.047-.343-.34m-10.668-.488c-.149-.246.144-.782.633-1.168.828-.637.828-.586.242.144-.582.731-.582.926 0 1.168.441.149.488.246.051.293-.34 0-.782-.144-.926-.437m-2.098-2.145c1.121-1.121 2.145-2.047 2.293-2.047.145 0-.684.926-1.805 2.047-1.121 1.168-2.14 2.094-2.289 2.094-.144 0 .684-.926 1.801-2.094m13.254 1.07c0-.386.195-.535.391-.339a.47.47 0 0 1 0 .683c-.196.196-.391.047-.391-.344m-9.109-2.093c.195-.293.437-.535.582-.535.148 0 .148.242-.047.535-.196.293-.438.535-.586.535-.145 0-.098-.242.051-.535m1.363-2.094c.73-1.609.973-1.902.973-1.219 0 .293-.34.977-.778 1.512-.781.973-.781.926-.195-.293m8.816.535c0-.391.149-.535.344-.34.195.196.195.485 0 .68s-.344.051-.344-.34m1.805-2.633c.195-.242.438-.484.586-.484.144 0 .144.242-.051.484-.195.293-.437.539-.586.539-.144 0-.094-.246.051-.539m-9.648-.484c0-.391.195-.535.39-.344a.58.58 0 0 1 0 .684c-.195.195-.39.051-.39-.34m.39-2.047c-.195-.879-.144-1.07.246-.684.289.293.438.829.34 1.219-.144.391-.39.149-.586-.535m3.899-.586c0-.437.195-1.363.437-2.094.344-1.023.391-1.074.442-.246 0 .586-.196 1.512-.442 2.098-.293.633-.437.73-.437.242m9.011-.484c.196-.293.442-.539.586-.539.149 0 .098.246-.047.539-.195.242-.437.484-.586.484-.144 0-.097-.242.047-.484m-13.98-1.367c-.535-1.266-.391-1.606.242-.582.293.535.438 1.07.293 1.214-.098.149-.391-.144-.535-.632m15.055-.243c.144-.246.437-.488.535-.488.144 0 .144.242-.047.488-.149.293-.442.536-.586.536-.149 0-.098-.243.098-.536m-9.161-2.047c0-.39.196-.535.391-.339.145.144.145.488 0 .679-.195.196-.391.051-.391-.34m-9.89-1.07c0-.39.144-.539.34-.344a.473.473 0 0 1 0 .684c-.196.195-.34.051-.34-.34m2.633 0c0-.39.144-.539.339-.344a.47.47 0 0 1 0 .684c-.195.195-.339.051-.339-.34m7.89-1.558c0-.735.098-1.024.242-.633.149.34.149.922 0 1.312-.144.34-.242.051-.242-.679m-8.429 0c0-.391.148-.539.343-.344a.47.47 0 0 1 0 .683c-.195.196-.343.047-.343-.339m-.536-1.563c0-.387.149-.535.34-.34a.47.47 0 0 1 0 .684c-.191.195-.34.047-.34-.344m-3.117-1.559c0-.386.145-.535.34-.339a.47.47 0 0 1 0 .683c-.195.196-.34.047-.34-.344m2.629 0c0-.386.149-.535.344-.339a.47.47 0 0 1 0 .683c-.195.196-.344.047-.344-.344m10.086-4.433c0-2.871.051-3.945.195-2.434.098 1.508.098 3.848 0 5.211-.144 1.317-.195.098-.195-2.777m11.305 3.605c0-.582.144-.73.293-.293.144.344.144.832 0 .977-.196.195-.34-.145-.293-.684m-21.926-.73c0-.391.148-.535.344-.34a.48.48 0 0 1 0 .684c-.196.195-.344.047-.344-.344m-2.629-.535c0-.391.195-.535.391-.34a.59.59 0 0 1 0 .68c-.196.195-.391.05-.391-.34m2.145-1.317c.046-.632.144-.73.289-.34.195.391.148.829 0 1.024-.196.144-.289-.149-.289-.684m-2.633-.242c0-.39.144-.535.34-.34a.47.47 0 0 1 0 .68c-.196.195-.34.051-.34-.34m25.629-.781c0-.875.093-1.117.242-.633.144.488.144 1.219 0 1.559-.149.343-.242-.047-.242-.926m-24.071-1.801c0-.391.149-.535.34-.344.196.149.196.489 0 .684-.191.195-.34.051-.34-.34m-.535-1.558c0-.391.145-.536.34-.391a.53.53 0 0 1 0 .73c-.195.196-.34 0-.34-.339m-.972-2.387c-.832-1.903-.684-2.34.242-.586.437.828.73 1.558.586 1.707-.102.094-.489-.391-.828-1.121m25.578-1.024c0-.879.093-1.121.242-.632.144.484.144 1.214 0 1.558-.149.34-.242-.051-.242-.926m-12.524-.246c0-.73.098-1.019.242-.679.149.386.149.972 0 1.312-.144.344-.242.051-.242-.633m-16.222 0c0-.386.144-.535.339-.34a.47.47 0 0 1 0 .684c-.195.195-.339.047-.339-.344m15.636-2.922c.051-.586.149-.73.344-.293.145.34.098.829-.051.977-.191.191-.293-.148-.293-.684m-15.148-1.265c-.293-.586-.442-1.024-.293-1.024.144 0 .535.438.828 1.024.289.582.438 1.07.289 1.07-.144 0-.484-.488-.824-1.07m27.672.242c0-.633.144-.731.293-.34.144.391.144.828 0 1.024-.196.144-.34-.149-.293-.684m-13.008-1.07c0-.586.144-.735.293-.293.144.34.144.828-.051.972-.144.196-.293-.097-.242-.679m-16.031-1.317c-.196-.39-.094-.488.246-.246.34.195.633.488.633.586 0 .438-.489.242-.879-.34m15.445-.437c0-.391.145-.539.34-.344.195.148.195.488 0 .684-.195.195-.34.046-.34-.34m-19.051-.633c-.242-.344-.144-.441.196-.195.632.339.828.828.39.828-.144 0-.39-.293-.586-.633m2.582-.488c-.242-.391-.144-.489.246-.246.582.39.778.828.34.828-.097 0-.39-.289-.586-.582m-4.433-1.903c-.633-.828-.633-.828.195-.191.879.68 1.121 1.117.73 1.117-.144 0-.535-.387-.925-.926m2.582-.484c-.633-.828-.633-.879.195-.246.879.683 1.172 1.121.73 1.121-.093 0-.535-.391-.925-.875m17.101.098c-.535-1.317-.386-1.657.246-.586.289.488.438 1.023.289 1.168-.144.148-.386-.145-.535-.582m13.203-.247c0-.386.149-.535.344-.339a.47.47 0 0 1 0 .679c-.195.196-.344.051-.344-.34m-.535-1.558c0-.391.149-.535.344-.34a.475.475 0 0 1 0 .68c-.195.195-.344.051-.344-.34m-33.617-2.727-2.582-2.777 2.727 2.629c2.535 2.387 2.972 2.875 2.585 2.875-.097 0-1.316-1.266-2.73-2.727m18.758.098c-.195-.344-.242-.684-.098-.828.149-.149.391.098.535.535.391.926.098 1.121-.437.293m-24.02-1.609c-.195-.391-.097-.489.242-.243.344.196.637.485.637.582 0 .442-.488.247-.879-.339m22.95-.536c-.247-.39-.149-.488.242-.246.34.196.586.489.586.586 0 .438-.442.242-.828-.34m-25.29-1.367c-.632-.828-.632-.828.196-.191.879.68 1.172 1.121.73 1.121-.144 0-.535-.441-.926-.93m2.875-.777-.972-1.168 1.168.973c.633.586 1.172 1.074 1.172 1.168 0 .441-.442.148-1.368-.973m21.391.586c-.246-.391-.148-.488.195-.246.633.39.829.828.387.828-.144 0-.387-.242-.582-.582m-26.066-1.074c-.243-.34-.149-.438.242-.196.293.196.586.442.586.586 0 .438-.438.242-.828-.39m24.75-.828c-.684-.829-.633-.829.195-.196.828.684 1.121 1.121.68 1.121-.094 0-.485-.39-.875-.925m-26.309-.196c-.242-.387-.148-.437.242-.242.293.195.586.488.586.633 0 .437-.488.195-.828-.391m4.141 0c-.196-.387-.145-.437.242-.242.344.195.586.488.586.633 0 .437-.438.195-.828-.391m-2.047-1.558c-.242-.387-.145-.489.195-.243.34.196.633.489.633.633 0 .391-.488.196-.828-.39m19.539-3.457-3.363-3.508 3.507 3.359c1.95 1.852 3.555 3.461 3.555 3.559 0 .34-.535-.149-3.699-3.41m17.441 1.898c-.246-.391-.148-.488.242-.242.293.195.586.484.586.586 0 .437-.437.242-.828-.344m-44.824-.535c-.242-.391-.144-.438.242-.242.344.242.586.484.586.632 0 .438-.437.196-.828-.39m4.191-.195c-.976-.782-.976-.782.145-.243.684.293 1.172.68 1.172.778 0 .437-.246.293-1.317-.535m-2.582-1.559c-.976-.781-.976-.781.145-.242.633.293 1.172.679 1.172.777 0 .438-.293.293-1.317-.535m40.34-1.656c-.683-.828-.633-.879.196-.196.875.684 1.121 1.071.679 1.071-.097 0-.484-.387-.875-.875m-43.996-.438c-.972-.781-.972-.781.149-.246.632.293 1.168.684 1.168.828 0 .391-.243.246-1.317-.582m24.457-1.949-.972-1.172 1.168 1.024c1.074.925 1.414 1.367.976 1.367-.098 0-.633-.539-1.172-1.219m-28.11-.148c-.976-.778-.976-.778.145-.243.633.34 1.172.684 1.172.828 0 .391-.246.293-1.316-.585m26.016-1.364c-.195-.34-.144-.437.243-.195.343.195.586.437.586.586 0 .437-.438.242-.829-.391m-34.64-1.316c-.68-.828-.633-.875.195-.195.88.683 1.121 1.074.684 1.074-.098 0-.488-.391-.88-.879m4.433.293c-.242-.391-.144-.438.246-.242.29.195.583.488.583.632 0 .438-.438.196-.829-.39m28.649 0c-.242-.391-.149-.438.242-.242.344.195.586.488.586.632 0 .438-.437.196-.828-.39m-30.207-1.024c-.242-.39-.145-.488.242-.242.293.196.586.488.586.582 0 .442-.488.246-.828-.34m24.019-2.093c-2.289-1.121-3.605-1.903-2.875-1.707 1.559.441 7.309 3.265 7.309 3.605 0 .344.391.488-4.434-1.898m22.606 1.265c-.68-.828-.633-.875.195-.242.879.68 1.121 1.121.684 1.121-.098 0-.489-.39-.879-.879m-48.965-1.07-1.266-1.414 1.414 1.266c1.364 1.171 1.704 1.609 1.266 1.609-.098 0-.73-.684-1.414-1.461m-2.871.34c-.246-.391-.148-.488.242-.242.293.195.586.488.586.582 0 .441-.441.246-.828-.34m49.5-1.071c-.246-.39-.149-.441.242-.246.293.246.582.489.582.633 0 .442-.437.196-.824-.387m-25.578-1.804a.466.466 0 0 1 .679 0c.196.148.047.344-.339.344-.391 0-.536-.196-.34-.344m-20.223-.731c.149-.293.441-.484.586-.484s.098.191-.047.484c-.195.293-.488.535-.586.535-.144 0-.144-.242.047-.535m18.66.196a.47.47 0 0 1 .684 0c.195.195.047.339-.344.339-.387 0-.531-.144-.34-.339m-1.851-.536c.39-.144.828-.144 1.023.047.149.149-.144.293-.68.246-.632 0-.734-.148-.343-.293m24.312-.246c-.242-.386-.144-.484.196-.242.339.196.632.488.632.633 0 .391-.488.195-.828-.391m-26.355-.289c.34-.148.828-.097.972.047.196.196-.144.293-.683.293-.582-.051-.731-.144-.289-.34m-2.098-.488c.391-.144.828-.144.977 0 .191.195-.098.34-.684.293-.586 0-.73-.148-.293-.293m-10.914-.879c.246-.242 1.707-.34 3.266-.242l2.777.144-3.215.293c-1.804.149-3.07.051-2.828-.195m7.504.344c.488-.149 1.219-.149 1.559 0 .343.144-.047.242-.926.242-.875 0-1.168-.098-.633-.242m-13.445-2.777c.195-.293.437-.536.582-.536.148 0 .148.243-.047.536s-.438.535-.586.535c-.145 0-.098-.242.05-.535m33.812-1.368a.475.475 0 0 1 .68 0c.195.149.051.344-.34.344s-.535-.195-.34-.344m-1.558-.535c.144-.191.484-.191.679 0 .196.196.047.344-.34.344-.39 0-.535-.148-.339-.344m-29.626-.679c.149-.293.442-.536.587-.536s.097.243-.098.536c-.145.242-.438.488-.586.488-.098 0-.098-.246.097-.488m28.016.144a.53.53 0 0 1 .731 0c.195.195 0 .344-.34.344-.391 0-.535-.149-.391-.344m-6.234-1.559a.467.467 0 0 1 .679 0c.196.196.047.34-.339.34-.391 0-.536-.144-.34-.34m-17.2-.535c.196-.195.536-.195.68 0 .196.196.051.34-.34.34s-.535-.144-.34-.34m14.325 0c.387-.144.828-.144 1.019.047.149.195-.144.293-.679.293-.633-.047-.731-.144-.34-.34m-11.258-.535c.539-.098 1.367-.098 1.851 0 .489.145.098.242-.925.242-.973 0-1.41-.097-.926-.242m6.043 0c.633-.098 1.559-.098 2.047 0 .535.145 0 .242-1.168.242-1.121 0-1.563-.097-.879-.242"/><path fill="#fcd900" d="m135.633 188.863-1.172-.586 1.852-2.484c.976-1.363 2.144-3.461 2.582-4.727.781-2.093.734-2.339-.438-4.871-.684-1.414-2.34-5.992-3.703-10.183-6.137-18.61-13.348-26.649-34.688-38.586-3.8-2.145-7.797-4.68-8.918-5.606l-2.046-1.75 2.097-2.097 2.145-2.145 4.527.344c8.332.633 19.684 4.578 26.457 9.258 3.703 2.531 9.988 8.672 12.473 12.179 2.875 4.141 5.601 9.985 6.82 14.86 1.461 5.75 1.363 18.125-.144 23.187-1.563 5.168-2.973 8.774-4.582 11.453-1.461 2.532-1.508 2.582-3.262 1.754"/><path fill="#88d055" d="M248.609 185.324c-.754-.621 1.329-.621.973-1.508 1.375-3.23 2.703-6.554 3.277-10.054 2.172-11.203-.574-23.297-7.527-32.375-7-9.567-17.629-16.61-29.367-18.559-10.719-1.859-22.012.664-31.223 6.379-2.304 1.418-4.476 3.012-6.554 4.738 6.464-7.308 15.898-11.558 25.464-12.625 13.996-1.593 28.703 2.969 38.977 12.668 7 6.559 11.824 15.504 12.801 25.071.84 7.707.043 15.812-3.453 22.765a22.3 22.3 0 0 1-2.528 3.852c-.351.137-.574-.219-.84-.352"/><path fill="#b9f88c" d="M248.387 185.059c-.93-.356-2.438-1.11-1.949-2.395 2.968-5.934 4.207-12.664 4.074-19.309-.176-6.246-1.637-12.625-5.137-17.894-4.074-6.246-10.23-10.984-17.098-13.773-9.832-4.254-21.035-5.672-31.488-3.059-6.512 1.641-12.801 4.785-17.273 9.922-.797.844-1.418 1.816-1.95 2.879-.398 1.242-1.726 1.285-2.66.488-1.371-.574-.84-2.125-.086-3.012 1.95-3.808 5.18-6.867 8.903-9.035 6.199-3.941 13.285-6.687 20.636-7.398 7.575-.84 15.371.398 22.282 3.632 12.089 5.493 21.836 16.301 25.511 29.145 2.614 9.391 1.551 19.621-2.523 28.434-.223.578-.488 1.375-1.242 1.375"/><path d="M247.457 187.359c-5.094-1.683-9.348-5.046-14.172-7.261-20.019-10.852-39.375-22.766-58.379-35.211-1.636-1.153-3.41-2.746-3.41-4.875.133-2.614 1.949-4.692 3.457-6.688 5.891-7.176 14.438-11.781 23.43-13.816 8.328-1.863 17.051-.977 25.246 1.148 9.476 2.571 18.469 7.754 24.758 15.371 7.75 9.477 11.34 22.192 9.699 34.325-.574 4.828-1.902 9.699-4.516 13.82-1.199 1.726-3.011 3.41-5.273 3.367-.266-.047-.574-.09-.84-.18m1.285-1.949c-.887-.664-2.523-.972-2.48-2.344.218-.843.797-1.597 1.062-2.437 4.074-9.742 4.297-21.172.223-30.961-2.438-5.625-6.692-10.363-11.738-13.773-8.196-5.625-18.204-8.282-28.082-8.372-7.973-.089-16.164 1.684-22.856 6.157-3.32 2.258-6.152 5.316-7.883 8.945-1.195.047-2.566-.531-2.965-1.727-.089-1.105.797-1.949 1.239-2.921 4.297-7.086 11.515-12.09 19.355-14.661 15.856-5.183 34.281-1.418 46.86 9.567 6.07 5.312 10.628 12.355 12.8 20.109 1.461 5.313 1.727 10.895 1.243 16.387-.532 4.871-1.864 9.742-4.43 13.996-.711.664-.797 2.125-1.949 2.215-.176.043-.266-.133-.399-.18m-4.785-2.789c-17.359-8.902-33.926-19.223-50.844-28.832-5.492-3.277-10.898-6.777-15.812-10.809 2.879-5.667 8.324-9.699 14.215-11.871 9.656-3.496 20.418-3.41 30.297-.75 7.75 2.082 15.191 5.977 20.46 12.09 3.325 3.899 5.227 8.77 6.157 13.774 1.465 7.441 1.418 15.414-1.282 22.59-.445 1.238-1.062 2.39-1.726 3.542-.313.489-1.02.754-1.465.266m-2.922-13.152c-1.238-.754-.043-2.969 1.285-2.528 1.063.446.84 1.997-.132 2.395-.356.176-.754.266-1.153.133m-10.277-10.676c-1.106-.441-.617-2.082.355-2.438 1.11-.351 2.039 1.067 1.371 1.997-.308.664-1.148.929-1.726.441m10.012-.133c-1.196-.84-.309-2.789.972-2.969 1.153-.218 2.215 1.196 1.508 2.215-.531.797-1.641.887-2.48.754m-21.172-7.617c-.887-1.242.308-3.367 1.816-3.102 1.238.446.973 2.172.043 2.789-.484.399-1.238.622-1.859.313m10.941-2.613c-1.062-.887-.266-2.348.352-3.192.711-.972 2.437-.75 2.703.399.222 1.062-.531 2.039-1.328 2.613-.489.355-1.196.445-1.727.18m-24.672-3.543c-1.371-.578-1.062-3.102.442-3.192 1.64.133 1.816 2.969.222 3.325a.88.88 0 0 1-.664-.133m-13.019-1.598c-1.332-.441-1.774-2.566-.489-3.32 1.153-.442 2.125.976 2.036 2.039.046.754-.75 1.902-1.547 1.281m22.277-4.473c-1.508-.972-.355-3.765 1.418-3.41 1.238.266 1.238 1.992.484 2.789-.398.578-1.238 1.02-1.902.621m-16.391-1.949c-1.461-.707-1.195-3.41.489-3.629 1.507 0 2.082 2.082 1.285 3.145-.356.574-1.153.93-1.774.484"/><path fill="#e96c92" d="M243.957 182.621c-17.359-8.902-33.926-19.223-50.844-28.832-5.492-3.277-10.898-6.777-15.812-10.809 2.879-5.667 8.324-9.699 14.215-11.871 9.656-3.496 20.418-3.41 30.297-.75 7.75 2.082 15.191 5.977 20.46 12.09 3.325 3.899 5.227 8.77 6.157 13.774 1.465 7.441 1.418 15.414-1.282 22.59-.445 1.238-1.062 2.39-1.726 3.542-.313.489-1.02.754-1.465.266m-2.922-13.152c-1.238-.754-.043-2.969 1.285-2.528 1.063.446.84 1.997-.132 2.395-.356.176-.754.266-1.153.133m-10.277-10.676c-1.106-.441-.617-2.082.355-2.438 1.11-.351 2.039 1.067 1.371 1.997-.308.664-1.148.929-1.726.441m10.012-.133c-1.196-.84-.309-2.789.972-2.969 1.153-.218 2.215 1.196 1.508 2.215-.531.797-1.641.887-2.48.754m-21.172-7.617c-.887-1.242.308-3.367 1.816-3.102 1.238.446.973 2.172.043 2.789-.484.399-1.238.622-1.859.313m10.941-2.613c-1.062-.887-.266-2.348.352-3.192.711-.972 2.437-.75 2.703.399.222 1.062-.531 2.039-1.328 2.613-.489.355-1.196.445-1.727.18m-24.672-3.543c-1.371-.578-1.062-3.102.442-3.192 1.64.133 1.816 2.969.222 3.325a.88.88 0 0 1-.664-.133m-13.019-1.598c-1.332-.441-1.774-2.566-.489-3.32 1.153-.442 2.125.976 2.036 2.039.046.754-.75 1.902-1.547 1.281m22.277-4.473c-1.508-.972-.355-3.765 1.418-3.41 1.238.266 1.238 1.992.484 2.789-.398.578-1.238 1.02-1.902.621m-16.391-1.949c-1.461-.707-1.195-3.41.489-3.629 1.507 0 2.082 2.082 1.285 3.145-.356.574-1.153.93-1.774.484"/></g><path fill="#bc9a16" d="M1 150.773c0-68.597 90.55-70.867 170.078-70.867 79.527 0 170.078 2.27 170.078 70.867 0-15.656-76.144-28.347-170.078-28.347C77.148 122.426 1 135.117 1 150.773"/><path fill="none" stroke="#000" stroke-linecap="round" stroke-linejoin="round" stroke-width="2" d="M1 150.773c0-68.597 90.55-70.867 170.078-70.867 79.527 0 170.078 2.27 170.078 70.867 0-15.656-76.144-28.347-170.078-28.347C77.148 122.426 1 135.117 1 150.773"/><path fill="#d3ae37" d="M902.57 71.871c0 15.656-76.148 28.348-170.078 28.348-93.933 0-170.082-12.692-170.082-28.348 0-15.652 76.149-28.344 170.082-28.344 93.93 0 170.078 12.692 170.078 28.344"/><path fill="none" stroke="#000" stroke-linecap="round" stroke-linejoin="round" stroke-width="2" d="M902.57 71.871c0 15.656-76.148 28.348-170.078 28.348-93.933 0-170.082-12.692-170.082-28.348 0-15.652 76.149-28.344 170.082-28.344 93.93 0 170.078 12.692 170.078 28.344M732.492 298.645 893.898 80.832M732.492 298.645 678.73 98.773m53.762 199.872L581.395 58.844m151.097 239.801v19.839"/><g fill-rule="evenodd"><path fill="#247040" d="M682.184 114.742c-.637.293-1.121-.437-.879-.972.242-.731.925-.051 1.414-.149.73.051 1.605-.098 2.242.442.582.535-.488 1.07-1.023.972-.586-.051-1.172-.242-1.754-.293m2.777-.679c-.734-.489-2.535-.196-3.266-.684-.488-.438.293-1.316.391-1.805a3.76 3.76 0 0 0 .242-2.191c-.242-1.606-1.07-3.02-1.754-4.481-1.707-3.656-3.652-7.164-5.261-10.914 1.023-.39 1.996.293 2.972.586.778.192 1.024 1.07 1.219 1.754.144.73.293 1.41.68 2.043 1.461 3.266 3.168 6.434 4.629 9.695.585 1.657.925 3.411.875 5.118.39 1.316-.34 1.121-.727.879m-23.289-13.79c-1.512-.39-3.168-.535-4.434-1.511 2.825-.438 5.36-2.047 7.207-4.188 1.028-1.465 1.754-3.218 3.266-4.242.781-.582 1.707-1.023 2.68-1.07.632 0 1.023.535 1.558.828.926.683 1.121 1.996 2.098 2.633.535 1.117.098 2.433-.488 3.457-.684 1.168-1.657 2.386-2.778 3.117-2.535 1.512-5.699 1.465-8.527 1.074-.195-.051-.391-.051-.582-.098m24.848-2.972c-2.829-1.899-6.239-2.582-9.454-3.606-1.023-.293-2-.73-2.828-1.46-1.215-1.024-2.093-2.68-1.754-4.337.246-.976 1.219-1.851 2.243-1.511.535.05 1.074.683 1.265.05.196-.488.344-1.171 1.024-1.171 2.535-.243 5.07.828 6.824 2.632a8.4 8.4 0 0 1 2.484 4.922c.34 1.559.485 3.118.582 4.676-.097.195-.34-.05-.386-.195m-25.094-1.754c-2.727-.828-5.699-1.414-8.574-.973-.243.828-1.559-.05-.586-.39 1.218-1.657 3.07-2.73 4.922-3.461 1.656 0 3.117.78 4.675 1.074.735.437 1.903.34 2.731.633.73.34-.489 1.507-.731 1.949-.437.535-.828.973-1.511 1.215-.293.097-.633.148-.926-.047m28.988-.586c-1.219-.293-2.582-.535-3.359-1.605-.293-.489-.442-1.122-.442-1.708 0-.777.93 0 1.024-.046-.438-.536-.973-.926-1.461-1.415-.535-1.023-1.168-2.144-2.192-2.726-.488-.54 0-1.27.633-1.367.586-.196 1.168.05 1.754.148 3.266.582 5.895 2.922 9.16 3.606.535-.344 1.168.195 1.219.73.145.582-.148 1.121-.633 1.461-.586.633-1.074 1.363-1.804 1.898-1.122.829-2.532 1.317-3.899 1.024m16.176-.68c-2.238-1.754-5.164-2.387-7.942-2.437-.488-.098-1.168.195-1.363-.39-.195-.634.34-1.266.051-1.852-.391-.387-1.023-.196-1.563-.293-.437.097-.679-.536-.144-.387.293.097 1.023 0 .437-.293-.488-.39.536-.242.782-.488 1.265-.438 2.484-1.07 3.847-1.414 1.559.097 2.825 1.218 4.043 2.144 1.512 1.461 2.582 3.656 2.242 5.797-.195 0-.195-.34-.39-.387m-14.469-6.433c-.683-.535-1.656-.485-2.289-1.168-.586-.586 1.023-.243.731-.633-.879.39-.879.39-1.708-.293-.632-.973.34-1.512.684-1.852 1.168-1.07 2.68-1.609 4.094-2.093 3.41-.977 7.062-1.461 10.57-.782a14.1 14.1 0 0 1 3.996 1.461c-.683.781-1.804.442-2.679.73-.489.247-1.024.587-1.61.829-2.726 1.414-5.359 3.316-8.476 3.95-1.071.241-2.243.241-3.313-.15"/><path fill="#d1242b" d="M653.68 88.043c-1.801-1.899-2.973-4.285-3.899-6.676-1.363-3.992-1.605-8.281-1.312-12.469.484-4.875 1.996-9.601 3.894-14.082 1.95-4.336 3.852-8.672 5.946-12.91 1.316-2.68 2.629-5.312 4.382-7.699 1.856-2.387 4.68-4.187 7.797-4.043 2.145 0 4.094 1.07 5.895 2.145 2.875 1.605 5.652 3.359 8.527 5.066 6.918 5.02 12.766 11.398 18.074 18.027 1.657 2.192 2.926 4.727 3.266 7.5.535 3.508.488 7.114-.242 10.621-.539 2.047-1.61 3.899-2.535 5.75-.782 1.266-2.243.684-3.461.73-3.36.196-6.77 1.024-9.696 2.778-.875.73-1.312 1.805-1.996 2.68-1.265.926-2.972-.34-4.238.586-1.07.586-2.34-.098-3.266-.633-1.656-.73-3.703-.73-5.211.293-1.023.387-2.292.535-3.019 1.508.191 1.12-1.074 2.191-2.145 1.707-.976-.293-2.046.34-2.875.875-.925.535-1.609 1.61-2.679 1.95-3.559-.294-8.821-2.048-11.207-3.704"/><path d="M681.84 115.23c-1.266.047-2.094-1.804-.777-2.386 1.265-1.367.972-3.41.437-5.02-.828-2.629-2.387-4.871-3.605-7.308-.926-1.801-1.903-3.653-2.633-5.504-1.266.195-.922 1.8-1.703 2.484-1.903 2.434-5.02 3.652-8.086 3.75-3.121.098-6.239-.535-8.965-2.047.144-1.117 1.461-.828 2.238-1.117.781-.684 2.145-.637 2.731-1.61-.391-.878-1.559-.73-2.34-.925-1.559-.242-3.117-.73-4.727-.633a5.13 5.13 0 0 0-3.312 1.219c-1.024-.149.293-1.317.535-1.805 1.219-1.559 2.73-3.07 4.629-3.75-.731-1.316-2.532-1.512-3.313-2.777-3.265-3.364-4.824-7.992-5.308-12.57-.828-7.454 1.168-14.958 4.336-21.68 2.628-5.457 5.359-10.914 7.988-16.371 1.461-2.68 3.117-5.504 5.945-6.918 2.68-1.317 6.09-1.219 8.672.39 3.457 1.754 6.723 3.703 10.035 5.649 7.649 5.117 13.887 12.035 19.293 19.441 1.852 2.824 2.828 6.188 3.313 9.551.586 4.773-.289 9.793-2.871 13.883-.832 1.363 1.168 1.754 2.14 2 .879.34 2.973.777 2.289 2.043-1.019.637-2.336.246-3.359.828-1.317.539-2.484 1.316-3.703 1.95.242 1.12 1.558 1.022 2.34 1.609 1.656 1.511 3.214 3.41 3.507 5.699.387.828-.05 2.437-1.171 1.851-.485-.875-1.461-1.265-2.336-1.558-2.293-.926-4.778-1.024-7.164-1.414-1.317 1.367-2.629 2.972-4.629 3.218-1.606.34-3.457 0-4.723-1.12-1.074.632-.195 1.898-.148 2.777.195.68-.489 1.754-1.024.777-1.219-1.121-2.875-1.461-4.336-2.094-.73-.148-1.605-.828-2.238-.195-.293 1.023.484 1.898.726 2.777 1.805 4.387 4.582 8.379 5.411 13.059.195 1.019.586 2.14.144 3.117-.582 1.07-1.996 1.121-3.066.973a10 10 0 0 1-1.172-.243m.293-.39c-1.219.488-1.121-2.047.097-1.121.926.097 2.536-.196 2.973.73-.488 1.219-2.144.442-3.07.391m2.34-1.219c-.782-.535-2.485.391-2.68-.875.145-.879.68-1.707.586-2.633-.051-1.558-.684-3.019-1.27-4.433-1.754-3.946-4.093-7.598-5.796-11.594 1.167-.39 2.289.437 3.41.777.972 1.024.73 2.582 1.511 3.703 1.704 3.95 4.09 7.602 5.211 11.84.196 1.071.243 2.192.243 3.313-.438 0-.829.051-1.215-.098m-22.801-13.25c-1.414-.39-3.024-.39-4.145-1.414 1.707-.535 3.461-1.07 4.825-2.34 2.195-1.8 3.461-4.531 5.652-6.332.73-.586 1.609-1.023 2.535-1.12.731 1.167-1.465 1.265-1.656 2.288-1.121 1.461-1.707 3.215-2.731 4.727 1.61-1.168 1.903-3.36 3.364-4.727.632-.633 1.41-1.605 2.433-1.219 1.024.735 1.414 2 2.196 2.926.535 1.168-.247 2.387-.782 3.41-1.218 2.094-3.508 3.559-5.941 3.848-1.902.293-3.852.246-5.75-.047m24.848-2.973c-3.219-2.242-7.211-2.73-10.77-4.14-1.754-.781-3.457-2.387-3.312-4.434 0-1.12.73-2.386 1.902-2.484 1.312.144 1.652 1.703 2.531 2.433 1.852 1.657 4.336 2.34 6.332 3.801.735.34-.582-.777-.824-.875-1.563-1.023-3.414-1.61-4.824-2.828a6.04 6.04 0 0 1-1.805-2.047c.535-.484.293-1.605 1.414-1.46 1.949-.243 3.899.534 5.504 1.609 1.656 1.12 2.926 2.875 3.41 4.87.488 1.657.535 3.41.926 5.118.051.293-.145.68-.484.437m-25.094-1.851c-2.727-.828-5.653-1.316-8.524-.879-.246.976-1.754-.242-.636-.484 1.367-1.512 3.121-2.68 5.019-3.461 1.903.488 3.801 1.218 5.75 1.363-.148 1.074-1.707.246-2.484.488-1.219 0-2.438 0-3.656.098 2.144.39 4.386.195 6.578.097.683-.875 1.804.731.632.973-.535.926-1.363 2.489-2.679 1.805m28.988-.488c-1.266-.293-2.824-.582-3.508-1.852-.191-.582-.777-2.387.442-1.656 1.996 1.27 4.629 1.27 6.82.343-1.363 0-2.633.583-3.945.34-1.512-.195-3.121-.78-4.047-2.046-.535-1.024-1.168-2.047-2.192-2.68-.781-1.168 1.071-1.656 1.899-1.266 3.508.438 6.238 3.02 9.648 3.703 1.071-.539 1.61 1.168.973 1.852-.68.484-1.117 1.312-1.75 1.851-1.172 1.02-2.777 1.754-4.34 1.41m16.176-.68c-2.485-2-5.797-2.535-8.914-2.438-1.172-.437.633-2.386-.879-2.484-.438-.098-1.801.098-1.461-.437 2.68 0 5.312.34 7.844 1.168-1.852-1.461-4.336-1.461-6.528-1.364-.632.293-1.218-.437-.293-.437 1.461-.442 2.825-1.172 4.336-1.563 1.559.098 2.825 1.219 3.996 2.145 1.559 1.46 2.629 3.605 2.289 5.797-.195 0-.195-.34-.39-.387m-42.582-2.777c-3.75-.536-7.598-1.512-10.719-3.754-1.07-1.215-1.656-2.727-2.582-4.043-2.289-4.336-2.434-9.403-2.289-14.176.391-6.676 2.973-13.012 5.797-19.004 2.484-5.457 4.777-10.96 8.09-15.93 1.8-2.828 5.117-4.773 8.523-4.53 2.242.194 4.238 1.362 6.141 2.437 2.875 1.8 5.797 3.41 8.574 5.308 5.797 4.29 10.77 9.55 15.445 15.008 2.336 2.777 4.578 5.895 5.164 9.598.684 3.605.536 7.355-.195 10.96-.633 2.34-1.852 4.481-3.019 6.579-4.434-.344-9.063.484-12.817 2.875-.926.777-1.168 2.043-2.191 2.726-1.266.535-2.778-.488-3.946.39-1.07.634-2.242-.148-3.214-.632-1.61-.73-3.657-.781-5.165.293-1.023.438-2.292.438-2.972 1.41 0 1.219-1.168 2.438-2.34 1.707-1.559-.097-2.871.926-3.992 1.95-.586.484-1.414 1.312-2.293.828m-6.77-2.829c-1.414.293-.828-2.726.196-1.41.289.34.921 2.094-.196 1.41m7.942-.242c-1.024-.242-1.075-2.242.097-2.191 1.168.097 1.461 2.433.094 2.289a.37.37 0 0 1-.191-.098m.047-.144c-1.461-.196 0-2.828.73-1.317.344.485.148 1.899-.73 1.317m-8.282-.098c-1.414-.488 1.168-1.805.778-.246-.047.39-.582.684-.778.246m35.176-.344c-.73-.535-2.34-.632-2.437-1.507 1.367-.344 2.777 0 4.14-.391 2.489-.586 4.824-1.805 7.36-2.29.679-.292-1.121-.05-1.414.048-3.02.535-5.75 2.144-8.868 2.191-.828.39-2.824 0-2.093-1.215 1.023-1.465 2.777-2.144 4.382-2.73 3.122-.973 6.383-1.461 9.598-1.121 1.902.195 3.754.73 5.41 1.656-.828.977-2.34.195-3.215 1.023-3.461 1.559-6.531 4.192-10.425 4.63-.829.05-1.661 0-2.438-.294m-35.711-3.8c-.344-.926-1.512-2.239-.441-3.067 1.074-.293 1.902 1.215 1.414 2.043.195-.777-.684-2.336-1.512-1.46-.535 1.171.734 2 1.27 2.827-.246.047-.536-.097-.731-.344m12.762-3.262c-1.024-.39-.535-2.68.637-1.95.875.438.73 2.63-.442 2.145l-.097-.097zm.344.144c-1.219-.046-.586-2.68.437-1.656.438.488.535 1.805-.437 1.656m7.89-1.07c.684-1.363-1.754-.828-1.316-.535-.047-1.27 2.293-.637 1.465.484 0 .098-.149.344-.149.051m8.918-.246c-1.269-.387-.148-2.922.875-1.703.391.293.344 1.558.293 1.46.633-.925-1.512-2.093-1.512-.73-.144.145.977 1.414.344.973m7.891-1.559c.246-.34 1.609-1.023.781-.097-.242.148-.535.195-.781.097m-33.52-.875c.731-.925-1.656-1.511-1.218-.343-1.122-1.215 2.097-1.364 1.269.097 0 .051.047.586-.051.246m33.618-.05c-.875-.778-1.071-2.485 0-3.165 1.218.047 1.511 1.657 1.023 2.532-.195.39-.582.828-1.023.633m-.34-.68c-.977-.781.488-2.875 1.265-1.512.438.684-.047 2.34-1.07 1.805a1 1 0 0 1-.195-.293m7.308-2.098c-1.172-.73.926-2.824 1.215-1.215-.144.633-.535-.976-1.07-.246-.34.438-.293 1.27-.145 1.461m-37.906-2.043c-.73-.828 1.316.242.293.192-.098 0-.195-.094-.293-.192m-10.473-.293c-.441-.976 1.95-.976 1.024-2.097-.149-.829-1.563-.68-1.465.148-.633-.926 1.172-1.46 1.512-.488.828.926-.684 1.851-.438 2.484.438.633-.488.098-.633-.047m10.473-.586c-.879-.586-.582-2.535.633-2.437.926.344.926 1.707.39 2.39-.195.29-.781.485-1.023.047m0-.195c-.828-.535-.145-2.047.781-1.851.778.437.485 2.288-.488 2.097-.098-.05-.195-.148-.293-.246m20.023-.098c-1.312-.437 0-2.824.977-1.703.73.633.047 2.727-.977 1.703m.098-.144c-1.461-.633 1.172-2.34 1.024-.633.148.535-.68 1.508-1.024.633m-9.937-.535c-.586-.828-1.707-2.39-.536-3.121.973-.243 1.411 1.367 1.266 1.754.34-1.118-1.851-1.95-1.512-.438 0 .684 1.219 1.512.977 1.805zm23.336-1.754c.293-.246.925-1.754.878-.637-.148.344-.488.637-.878.637m-.489-1.172c-1.019-.633-1.703-2.145-1.019-3.262.972-.637 1.996.582 2.043 1.461.097.582-.145.828-.145.098 0-1.27-2.144-1.707-1.949-.149.098.926.879 1.754 1.852 1.754-.196.196-.586.344-.782.098m6.09-4.434c.051-.39 1.27-1.07.734-.242-.148.195-.488.39-.734.242m-46.625-.39c-.973-.582.879-2.043 1.172-1.02-.684-.879-1.316.387-1.172 1.02m24.07-.145c-1.023-.34-.632-2.34.489-2.094 1.019.34 1.07 2.485-.196 2.29l-.148-.051zm.196 0c-1.461-.242.097-2.777.73-1.265.293.488.098 1.949-.73 1.265m21.875-.683c-.782-.68-.828-2.434.34-2.63 1.218.294 1.461 2.387.293 2.876a.64.64 0 0 1-.633-.246m.144-.047c-1.265-.438-.195-3.02.879-1.754.438.633.242 2.289-.879 1.754m-38.828-1.414c.289-1.266-1.609-.293-1.465-.098-.144-1.363 2.391-.875 1.66.39-.148.149-.195-.195-.195-.292m25.137.195c-.098-.582 1.023-1.508.488-.39-.144.148-.293.292-.488.39m-1.07-1.266c-1.071-.39-1.266-2.777.195-2.484 1.07.293 1.656 2.145.535 2.727-.293.097-.582-.047-.73-.243m.046-.242c-1.41-.246-.289-2.875.782-1.61.632.536.34 2.583-.782 1.61m-16.66-.246c-.535-.777-1.218-2.094-.293-2.922.684-.34 1.512 1.508.586.438-1.265-.145-1.172 1.609-.195 2.047.242.195.684.972 0 .535zm-12.765-3.36c-.293-.976 1.316.778.097.047-.047 0-.047-.046-.097-.046m.195-.734c-.828-.73-.973-2.336.051-2.968 1.168-.051 1.558 1.507 1.117 2.386-.191.438-.68 1.024-1.168.582m.195.051c-.828-.535-1.023-2.242.098-2.484.973.097 1.07 1.46.586 2.144a.86.86 0 0 1-.684.34m36.055-1.852c.242-.292.926-1.8.973-.73-.145.39-.489.777-.973.73m-.977-1.558c-.781-.73-1.168-2.242-.195-2.973 1.074-.195 1.754 1.024 1.805 1.996.242.828-1.024 2.098-1.61.977m.149-.05c-1.121-.485-.828-3.118.633-2.24.875.485.972 2.68-.344 2.485l-.145-.097zm-11.891-2.68c-1.219-.34-.828-2.97.535-2.044.684.485.735 2.485-.535 2.043m-18.707-.243c-.879-.586-.344-2.582.875-2.144.828.586.442 2.68-.777 2.242a.1.1 0 0 1-.098-.098m18.707.051c-1.508-.293.196-2.875.781-1.219.243.485 0 1.801-.781 1.219m-18.609-.05c-1.219-.587.535-2.825.972-1.317.149.586-.242 1.656-.972 1.316m11.012-.536c-1.317-.437-.196-3.07.777-1.805.34.637.051.489-.242.098-1.512-.34-1.075 2.387.34 1.754.437.246-1.024.441-.875-.047m7.355-6.285c1.121-.781-1.07-2.824-1.219-1.316.098.34.489 1.363-.195.683-.731-.976 1.023-2.289 1.512-1.023.242.488.535 1.316-.098 1.656m-13.738-1.805c-1.172-.34-.535-2.773.633-1.945.925.484.632 2.922-.633 1.945m.242.149c-1.363-.196-.195-2.875.633-1.461.293.535.293 1.8-.633 1.46m5.894-4.14c-1.265-.392-.39-2.927.731-1.95.242.34.633 1.46.242.488-.824-.832-1.996.582-.973 1.215.149.098.34.586 0 .246"/><path fill="#ffc13f" d="M665.227 88.29c-1.512-.345.535-2.583.781-.88.191.488-.195 1.61-.781.88m-8.622-.294c-.539-1.27 1.946-.05.68.39a1.4 1.4 0 0 1-.68-.39m-.246-4.727c-1.168-.148-.437-2.484.536-1.656.539.438.488 2.243-.536 1.656m13.008-2.437c-1.508-.242.442-2.68.781-1.023.196.488-.097 1.754-.781 1.023m7.164-.242c-1.465-.535 1.071-2.387.778-.633 0 .39-.387 1.07-.778.633m-24.945-.684c-1.121-.633 1.168-1.605.68-.34.05.391-.582.926-.68.34m34.836-.293c-1.414-.582.973-2.484.973-.73.148.488-.489 1.511-.973.73M659.82 77.57c-1.316-.293.731-2.144.731-.73.34.437-.442 1.605-.731.73m34.297-.78c-.633-.587-.34-2.243.637-2.095 1.019.39.582 2.532-.586 2.094zm7.309-2.388c-1.219-.879 1.609-1.851.879-.39-.098.34-.586.879-.879.39m-48.184-2.875c-1.316-.144-.34-2.824.535-1.511.243.539.149 1.465-.535 1.511m10.133-.144c-.926-.54.195-2.39.977-1.61.484.586-.051 2.29-.977 1.61m20.172-.344c-1.461-.68 1.266-2.14.926-.437.097.488-.731 1.316-.926.437m-10.328-1.508c-1.512-.293.484-2.73.777-1.023.195.484-.098 1.754-.777 1.023m22.847-2.387c-1.023-.488-.73-3.023.633-2.097.828.535.879 2.484-.386 2.289l-.098-.047zm-39.851-3.949c-1.168-.68 1.168-2.191.926-.582.047.438-.586 1.215-.926.582m23.871-.68c-1.461-.343.633-2.535.828-.925.293.484-.242 1.8-.828.926m22.316-.44c-.832-.29-.925-1.997.047-2.141.977.097 1.071 2.14-.047 2.14m-40-.731c-1.316-.73 1.266-2.14.875-.582.051.437-.586 1.215-.875.582m25.188-2.047c-.977-.145-.926-1.8 0-1.945.926.097 1.363 1.898.34 2.093a.44.44 0 0 1-.34-.148m-16.953-1.266c-1.465-.437.777-2.433.875-.828.195.488-.391 1.61-.875.828m-12.473-3.457c-1.172-.586.098-2.972.973-1.656.39.633 0 2.238-.973 1.656m35.469-3.168c-1.121-.488-.586-3.07.68-2.047.828.535.828 2.535-.438 2.243l-.098-.098zm-30.453-2.922c-1.317-.539.73-2.73.925-1.074.051.488-.292 1.363-.925 1.074m18.465-.05c-1.461-.489.925-2.387.925-.778.196.485-.437 1.559-.925.778m-7.114-.293c-1.508-.098-.144-2.922.489-1.22.195.442.148 1.22-.489 1.22m6.141-6.868c-1.461-.73 1.219-2.195 1.023-.539.196.637-.781 1.414-1.023.54m-12.813-1.464c-1.511-.34.68-2.532.829-.875.144.437-.344 1.707-.829.875m6.188-4.043c-1.512-.438.777-2.485.875-.828.144.44-.391 1.609-.875.828"/><path fill="#88d055" d="M800.203 104.75c-.754-.617 1.328-.617.973-1.504 1.375-3.234 2.703-6.555 3.277-10.055 2.172-11.207-.574-23.297-7.527-32.379-7-9.566-17.629-16.609-29.367-18.558-10.719-1.86-22.012.664-31.223 6.379-2.305 1.418-4.477 3.011-6.559 4.738 6.469-7.305 15.903-11.559 25.469-12.621 13.996-1.594 28.699 2.969 38.977 12.668 6.996 6.555 11.824 15.5 12.8 25.066.84 7.707.043 15.813-3.457 22.77a22 22 0 0 1-2.523 3.851c-.355.133-.574-.222-.84-.355"/><path fill="#b9f88c" d="M799.98 104.484c-.929-.351-2.437-1.105-1.949-2.39 2.969-5.938 4.207-12.668 4.074-19.313-.175-6.246-1.636-12.62-5.136-17.894-4.074-6.242-10.231-10.985-17.098-13.774-9.832-4.25-21.035-5.668-31.488-3.054-6.512 1.636-12.801 4.78-17.278 9.922-.796.84-1.414 1.812-1.945 2.878-.398 1.239-1.73 1.282-2.66.485-1.371-.575-.84-2.125-.086-3.012 1.945-3.809 5.18-6.863 8.902-9.035 6.2-3.941 13.286-6.688 20.637-7.395 7.574-.843 15.371.399 22.281 3.63 12.09 5.491 21.836 16.3 25.512 29.144 2.613 9.39 1.551 19.62-2.527 28.437-.219.575-.485 1.371-1.239 1.371"/><path d="M799.051 106.789c-5.094-1.684-9.348-5.051-14.172-7.266-20.024-10.851-39.375-22.765-58.379-35.21-1.637-1.153-3.41-2.747-3.41-4.872.133-2.613 1.949-4.695 3.457-6.687 5.891-7.176 14.437-11.781 23.43-13.82 8.324-1.86 17.05-.973 25.246 1.152 9.476 2.566 18.468 7.75 24.757 15.367 7.75 9.48 11.34 22.191 9.7 34.328-.575 4.828-1.907 9.7-4.516 13.817-1.199 1.726-3.016 3.414-5.273 3.367-.266-.043-.575-.086-.84-.176m1.285-1.949c-.887-.664-2.527-.977-2.481-2.348.219-.844.797-1.594 1.063-2.437 4.074-9.743 4.297-21.172.223-30.957-2.438-5.625-6.692-10.367-11.739-13.778-8.195-5.625-18.203-8.28-28.082-8.37-7.972-.087-16.164 1.683-22.855 6.155-3.32 2.262-6.156 5.317-7.883 8.95-1.195.043-2.566-.532-2.969-1.727-.086-1.11.801-1.95 1.242-2.926 4.297-7.086 11.516-12.09 19.356-14.66 15.855-5.183 34.281-1.418 46.859 9.567 6.071 5.316 10.629 12.359 12.801 20.109 1.461 5.316 1.727 10.894 1.238 16.387-.531 4.87-1.859 9.746-4.425 13.996-.711.664-.797 2.129-1.95 2.215-.179.047-.265-.133-.398-.176m-4.785-2.789c-17.363-8.907-33.926-19.223-50.848-28.836-5.488-3.278-10.894-6.778-15.808-10.809 2.875-5.668 8.324-9.699 14.214-11.867 9.657-3.5 20.418-3.41 30.297-.754 7.75 2.082 15.192 5.98 20.461 12.09 3.324 3.898 5.227 8.77 6.156 13.777 1.461 7.442 1.418 15.414-1.285 22.586-.441 1.243-1.062 2.395-1.726 3.543-.309.489-1.02.754-1.461.27m-2.922-13.157c-1.242-.753-.043-2.968 1.285-2.523 1.063.442.84 1.992-.133 2.39-.355.177-.754.266-1.152.133M782.352 78.22c-1.106-.442-.622-2.082.355-2.434 1.106-.355 2.035 1.063 1.371 1.992-.308.664-1.148.93-1.726.442m10.011-.133c-1.195-.84-.312-2.79.973-2.965 1.152-.223 2.215 1.195 1.508 2.215-.531.797-1.641.883-2.481.75m-21.172-7.617c-.886-1.238.309-3.367 1.817-3.102 1.238.445.972 2.172.043 2.793-.488.399-1.238.617-1.86.309m10.942-2.613c-1.067-.887-.27-2.348.351-3.188.711-.977 2.438-.754 2.704.398.222 1.063-.532 2.036-1.329 2.614-.488.351-1.195.441-1.726.175m-24.672-3.543c-1.371-.575-1.063-3.102.441-3.188 1.641.133 1.817 2.965.223 3.32-.223.043-.488 0-.664-.132m-13.023-1.594c-1.329-.446-1.77-2.57-.485-3.325 1.149-.44 2.125.977 2.035 2.04.047.754-.754 1.906-1.55 1.285m22.281-4.473c-1.508-.977-.356-3.766 1.418-3.41 1.238.266 1.238 1.992.484 2.789-.398.574-1.238 1.02-1.902.621m-16.391-1.95c-1.461-.71-1.195-3.41.488-3.632 1.508 0 2.082 2.082 1.286 3.145-.356.574-1.153.93-1.774.488"/><path fill="#e96c92" d="M795.551 102.051c-17.363-8.907-33.926-19.223-50.848-28.836-5.488-3.278-10.894-6.778-15.808-10.809 2.875-5.668 8.324-9.699 14.214-11.867 9.657-3.5 20.418-3.41 30.297-.754 7.75 2.082 15.192 5.98 20.461 12.09 3.324 3.898 5.227 8.77 6.156 13.777 1.461 7.442 1.418 15.414-1.285 22.586-.441 1.243-1.062 2.395-1.726 3.543-.309.489-1.02.754-1.461.27m-2.922-13.157c-1.242-.753-.043-2.968 1.285-2.523 1.063.442.84 1.992-.133 2.39-.355.177-.754.266-1.152.133M782.352 78.22c-1.106-.442-.622-2.082.355-2.434 1.106-.355 2.035 1.063 1.371 1.992-.308.664-1.148.93-1.726.442m10.011-.133c-1.195-.84-.312-2.79.973-2.965 1.152-.223 2.215 1.195 1.508 2.215-.531.797-1.641.883-2.481.75m-21.172-7.617c-.886-1.238.309-3.367 1.817-3.102 1.238.445.972 2.172.043 2.793-.488.399-1.238.617-1.86.309m10.942-2.613c-1.067-.887-.27-2.348.351-3.188.711-.977 2.438-.754 2.704.398.222 1.063-.532 2.036-1.329 2.614-.488.351-1.195.441-1.726.175m-24.672-3.543c-1.371-.575-1.063-3.102.441-3.188 1.641.133 1.817 2.965.223 3.32-.223.043-.488 0-.664-.132m-13.023-1.594c-1.329-.446-1.77-2.57-.485-3.325 1.149-.44 2.125.977 2.035 2.04.047.754-.754 1.906-1.55 1.285m22.281-4.473c-1.508-.977-.356-3.766 1.418-3.41 1.238.266 1.238 1.992.484 2.789-.398.574-1.238 1.02-1.902.621m-16.391-1.95c-1.461-.71-1.195-3.41.488-3.632 1.508 0 2.082 2.082 1.286 3.145-.356.574-1.153.93-1.774.488"/></g><path fill="#bc9a16" d="M562.41 71.871c0-68.598 90.555-70.863 170.082-70.863 79.528 0 170.078 2.265 170.078 70.863 0-15.652-76.148-28.344-170.078-28.344-93.933 0-170.082 12.692-170.082 28.344"/><path fill="none" stroke="#000" stroke-linecap="round" stroke-linejoin="round" stroke-width="2" d="M562.41 71.871c0-68.598 90.555-70.863 170.082-70.863 79.528 0 170.078 2.265 170.078 70.863 0-15.652-76.148-28.344-170.078-28.344-93.933 0-170.082 12.692-170.082 28.344"/><path fill="#cc9c6f" d="M458.871 357.938c0 3.914-3.172 7.085-7.086 7.085s-7.086-3.171-7.086-7.085 3.172-7.086 7.086-7.086 7.086 3.171 7.086 7.086"/><path fill="none" stroke="#000" stroke-linecap="round" stroke-linejoin="round" stroke-width="2" d="M458.871 357.938c0 3.914-3.172 7.085-7.086 7.085s-7.086-3.171-7.086-7.085 3.172-7.086 7.086-7.086 7.086 3.171 7.086 7.086"/><circle cx="451.785" cy="357.938" r="1"/><path fill="#cc9c6f" d="M437.609 54.629h28.348v340.156h-28.348Z"/><path fill="none" stroke="#000" stroke-linecap="round" stroke-linejoin="round" stroke-width="2" d="M437.609 54.629h28.348v340.156h-28.348z"/><path fill="#cc9c6f" d="M458.871 357.938c0 3.914-3.172 7.085-7.086 7.085s-7.086-3.171-7.086-7.085 3.172-7.086 7.086-7.086 7.086 3.171 7.086 7.086"/><path fill="none" stroke="#000" stroke-linecap="round" stroke-linejoin="round" stroke-width="2" d="M458.871 357.938c0 3.914-3.172 7.085-7.086 7.085s-7.086-3.171-7.086-7.085 3.172-7.086 7.086-7.086 7.086 3.171 7.086 7.086"/><path fill="#cc9c6f" d="M454.617 394.785c3.641 3.824 5.672 8.899 5.672 14.176s-2.031 10.352-5.672 14.172h-5.668c-3.636-3.82-5.668-8.895-5.668-14.172s2.032-10.352 5.668-14.176z"/><path fill="none" stroke="#000" stroke-linecap="round" stroke-linejoin="round" stroke-width="2" d="M454.617 394.785c3.641 3.824 5.672 8.899 5.672 14.176s-2.031 10.352-5.672 14.172h-5.668c-3.636-3.82-5.668-8.895-5.668-14.172s2.032-10.352 5.668-14.176z"/><path fill="#cc9c6f" d="M463.121 434.473c0 6.261-5.074 11.34-11.336 11.34s-11.34-5.079-11.34-11.34 5.078-11.34 11.34-11.34 11.336 5.078 11.336 11.34"/><path fill="none" stroke="#000" stroke-linecap="round" stroke-linejoin="round" stroke-width="2" d="M463.121 434.473c0 6.261-5.074 11.34-11.336 11.34s-11.34-5.079-11.34-11.34 5.078-11.34 11.34-11.34 11.336 5.078 11.336 11.34"/><path fill="#cc9c6f" d="M494.305 26.281c-13.692 0-22.676 13.625-22.676 28.348h-39.688c0-14.723-8.988-28.348-22.675-28.348z"/><path fill="none" stroke="#000" stroke-linecap="round" stroke-linejoin="round" stroke-width="2" d="M494.305 26.281c-13.692 0-22.676 13.625-22.676 28.348h-39.688c0-14.723-8.988-28.348-22.675-28.348z"/></g></svg>