<svg xmlns="http://www.w3.org/2000/svg" width="1262pt" height="71pt" viewBox="0 -71 1262 71"><g id="page1"><g fill="#ffbfbf"><path d="M.5-.5h70.086v-69.746H.5Zm70.086 0h70.086v-69.746H70.586Zm70.09 0h70.086v-69.746h-70.086Zm70.086 0h70.086v-69.746h-70.086Zm70.086 0h70.086v-69.746h-70.086Zm210.261 0h70.086v-69.746h-70.086Zm70.086 0h70.09v-69.746h-70.09Z"/><path d="M631.285-.5h70.086v-69.746h-70.086Zm70.086 0h70.086v-69.746h-70.086Zm70.086 0h70.086v-69.746h-70.086Zm70.09 0h70.086v-69.746h-70.086Zm70.086 0h70.086v-69.746h-70.086Z"/><path d="M981.719-.5h70.091v-69.746h-70.091Zm70.091 0h70.08v-69.746h-70.08Zm70.08 0h70.09v-69.746h-70.09Z"/></g><path fill="none" stroke="#000" stroke-linecap="round" stroke-linejoin="round" d="M.5-.5h1260.57M.5-69.246h1260.57M.5-.5v-68.746M70.531-.5v-68.746M140.563-.5v-68.746M210.594-.5v-68.746M280.625-.5v-68.746M350.656-.5v-68.746M420.688-.5v-68.746M490.719-.5v-68.746M560.754-.5v-68.746M630.785-.5v-68.746M700.816-.5v-68.746M770.848-.5v-68.746M840.879-.5v-68.746M910.91-.5v-68.746M980.941-.5v-68.746M1050.97-.5v-68.746M1121-.5v-68.746M1191.04-.5v-68.746M1261.07-.5v-68.746"/><path fill="#b8ebb8" d="M21.344-1h28.344l-6.754-32.215H28.098z"/><path fill="none" stroke="#060" stroke-linecap="round" stroke-linejoin="round" stroke-width=".5" d="M21.344-1h28.344l-6.754-32.215H28.098z"/><path fill="#fff" d="M32.637-1h5.129v-6.02h-5.13Z"/><path fill="none" stroke="#59a659" stroke-linecap="round" stroke-linejoin="round" stroke-width=".5" d="M32.637-1h5.129v-6.02h-5.13z"/><path fill="#fff" d="M25.621-6.367h4.453v-5.934h-4.453Z"/><path fill="none" stroke="#59a659" stroke-linecap="round" stroke-linejoin="round" stroke-width=".5" d="M25.621-6.367h4.453v-5.934h-4.453z"/><path fill="#fff" d="M29.418-11.738h3.125v-4.63h-3.125Z"/><path fill="none" stroke="#59a659" stroke-linecap="round" stroke-linejoin="round" stroke-width=".5" d="M29.418-11.738h3.121v-4.63h-3.121z"/><path fill="#fff" d="M28.621-17.105h5.043v-6.68h-5.043Z"/><path fill="none" stroke="#59a659" stroke-linecap="round" stroke-linejoin="round" stroke-width=".5" d="M28.621-17.105h5.043v-6.68h-5.043z"/><path fill="#fff" d="M27.965-22.477h4.418v-7.539h-4.418Z"/><path fill="none" stroke="#59a659" stroke-linecap="round" stroke-linejoin="round" stroke-width=".5" d="M27.965-22.477h4.418v-7.539h-4.418z"/><path fill="#fff" d="M32.828-27.848h2.945v-3.414h-2.945Z"/><path fill="none" stroke="#59a659" stroke-linecap="round" stroke-linejoin="round" stroke-width=".5" d="M32.828-27.848h2.945v-3.414h-2.945z"/><path fill="#b8b8eb" d="M91.375-1h28.344l-7.887-39.14h-12.57z"/><path fill="none" stroke="#006" stroke-linecap="round" stroke-linejoin="round" stroke-width=".5" d="M91.375-1h28.344l-7.887-39.14h-12.57zm14.172-39.14v-12.13"/><path fill="#006" d="M106.5-52.27c0-.523-.426-.953-.953-.953s-.953.43-.953.953a.952.952 0 1 0 1.906 0"/><path fill="#fff" d="M102.488-1h3.5v-6.527h-3.5Z"/><path fill="none" stroke="#5959a6" stroke-linecap="round" stroke-linejoin="round" stroke-width=".5" d="M102.488-1h3.5v-6.527h-3.5z"/><path fill="#fff" d="M102.023-10.785h4.536v-5.98h-4.536Z"/><path fill="none" stroke="#5959a6" stroke-linecap="round" stroke-linejoin="round" stroke-width=".5" d="M102.023-10.785h4.536v-5.98h-4.536z"/><path fill="#fff" d="M98.594-20.57h4.043v-5.36h-4.043Z"/><path fill="none" stroke="#5959a6" stroke-linecap="round" stroke-linejoin="round" stroke-width=".5" d="M98.594-20.57h4.043v-5.36h-4.043z"/><path fill="#fff" d="M103.191-30.355h4.954v-9.692h-4.954Z"/><path fill="none" stroke="#5959a6" stroke-linecap="round" stroke-linejoin="round" stroke-width=".5" d="M103.191-30.355h4.954v-9.692h-4.954z"/><path fill="#ebded1" d="m209.594-1.5-1.797-8.227-.609-10.972-2.403-8.238-3.699-11.434-9.992 1.008-7.192 3.285-12.933 6.812-9.129 2.532-7.102 7.32-4.148 4.898-4.387 4.586-4.64 8.43z"/><path fill="none" stroke="#664d33" stroke-linecap="round" stroke-linejoin="round" d="m209.594-1.5-1.797-8.227-.609-10.972-2.403-8.238-3.699-11.434-9.992 1.008-7.192 3.285-12.933 6.812-9.129 2.532-7.102 7.32-4.148 4.898-4.387 4.586-4.64 8.43z"/><g fill="#ccbfb2"><path d="m191.34-4.2 5.465 2.65 1.258-12.102-8.692 3.824z"/><path d="m194.969-9.617 8.457-.953-3.574-1.418-3.274 2.644zm-35.645-3.985 7.989 2.446 2.652-8.824-12.156 1.488zm15.891-6.098 11.777 1.278 1.914-7.652-10.215-.797z"/></g><path fill="none" stroke="#664d33" stroke-linecap="round" stroke-linejoin="round" d="M175.578-39.223c5.41-1.562 7.891-6.765 5.25-11-1.66-2.656-5.269-4.308-6.07-7.27-.781-2.882 1.34-5.757 4.777-6.48m2.848 24.75c4.281-.242 7.312-3.597 6.402-7.093-.57-2.196-2.789-3.989-2.668-6.262.117-2.211 2.328-3.945 4.988-3.902m-25.73 17.257c2.238-2.172 1.641-5.492-1.262-7.023-1.82-.961-4.293-.91-5.777-2.246-1.449-1.297-1.391-3.324.129-4.563"/><path fill="gray" d="M179.273-11.95c.571-.491 4.68-3.988 4.68-8.5 0-4.628-3.82-7.882-8.902-7.882-4.715 0-7.848 3.535-7.848 6.953 0 1.707 1.426 1.828 1.672 1.828.727 0 1.621-.57 1.621-1.668 0-.773-.281-1.015-.484-1.18.566-2.152 2.433-3.578 4.793-3.578 3.457 0 6.5 1.993 6.5 5.528 0 3.172-2.395 5.613-4.59 7.52l-8.942 7.765c-.445.367-.57.484-.57.973 0 1.18 1.098 1.18 1.672 1.18h14.18c.898-.243.898-1.06.898-1.669v-.851c0-.73 0-1.668-1.305-1.668-1.343 0-1.343.855-1.343 1.828h-9.789z"/><path fill="none" stroke="#000" stroke-linecap="round" stroke-linejoin="round" d="M179.273-11.95c.571-.491 4.68-3.988 4.68-8.5 0-4.628-3.82-7.882-8.902-7.882-4.715 0-7.848 3.535-7.848 6.953 0 1.707 1.426 1.828 1.672 1.828.727 0 1.621-.57 1.621-1.668 0-.773-.281-1.015-.484-1.18.566-2.152 2.433-3.578 4.793-3.578 3.457 0 6.5 1.993 6.5 5.528 0 3.172-2.395 5.613-4.59 7.52l-8.942 7.765c-.445.367-.57.484-.57.973 0 1.18 1.098 1.18 1.672 1.18h14.18c.898-.243.898-1.06.898-1.669v-.851c0-.73 0-1.668-1.305-1.668-1.343 0-1.343.855-1.343 1.828h-9.789z"/><path fill="#ebb8eb" d="M231.438-1h28.347l-4.504-38.969h-19.343z"/><path fill="none" stroke="#606" stroke-linecap="round" stroke-linejoin="round" stroke-width=".5" d="M231.438-1h28.347l-4.504-38.969h-19.343z"/><path fill="#fff" d="M244.953-1h5.242v-6.543h-5.242Z"/><path fill="none" stroke="#a659a6" stroke-linecap="round" stroke-linejoin="round" stroke-width=".5" d="M244.953-1h5.242v-6.543h-5.242z"/><path fill="#fff" d="M250.98-10.742h3.95v-4.86h-3.95Z"/><path fill="none" stroke="#a659a6" stroke-linecap="round" stroke-linejoin="round" stroke-width=".5" d="M250.98-10.742h3.95v-4.86h-3.95z"/><path fill="#fff" d="M235.176-20.484h4.457v-6.91h-4.457Z"/><path fill="none" stroke="#a659a6" stroke-linecap="round" stroke-linejoin="round" stroke-width=".5" d="M235.176-20.484h4.457v-6.91h-4.457z"/><path fill="#fff" d="M236.219-30.227h3.441v-4.722h-3.441Z"/><path fill="none" stroke="#a659a6" stroke-linecap="round" stroke-linejoin="round" stroke-width=".5" d="M236.219-30.227h3.441v-4.722h-3.441z"/><path fill="#d1b8eb" d="M301.469-1h28.347l-6.73-53.957h-14.887z"/><path fill="none" stroke="#306" stroke-linecap="round" stroke-linejoin="round" stroke-width=".5" d="M301.469-1h28.347l-6.73-53.957h-14.887zm14.172-53.957v-11.395"/><path fill="#306" d="M316.605-66.352a.963.963 0 1 0-1.924-.003.963.963 0 0 0 1.924.003"/><path fill="#fff" d="M315.59-1h4.187v-4.348h-4.187Z"/><path fill="none" stroke="#8059a6" stroke-linecap="round" stroke-linejoin="round" stroke-width=".5" d="M315.59-1h4.187v-4.344h-4.187z"/><path fill="#fff" d="M303.699-7.742h3.61v-4.246h-3.61Z"/><path fill="none" stroke="#8059a6" stroke-linecap="round" stroke-linejoin="round" stroke-width=".5" d="M303.699-7.742h3.61v-4.246h-3.61z"/><path fill="#fff" d="M322.813-14.488h2.929v-4.492h-2.929Z"/><path fill="none" stroke="#8059a6" stroke-linecap="round" stroke-linejoin="round" stroke-width=".5" d="M322.813-14.488h2.929v-4.492h-2.929z"/><path fill="#fff" d="M306.473-21.23h3.379v-5.125h-3.379Z"/><path fill="none" stroke="#8059a6" stroke-linecap="round" stroke-linejoin="round" stroke-width=".5" d="M306.473-21.23h3.379v-5.125h-3.379z"/><path fill="#fff" d="M308.418-27.977h3.152v-6.148h-3.152Z"/><path fill="none" stroke="#8059a6" stroke-linecap="round" stroke-linejoin="round" stroke-width=".5" d="M308.418-27.977h3.152v-6.148h-3.152z"/><path fill="#fff" d="M318.363-34.723h4.317v-7.797h-4.317Z"/><path fill="none" stroke="#8059a6" stroke-linecap="round" stroke-linejoin="round" stroke-width=".5" d="M318.363-34.723h4.317v-7.797h-4.317z"/><path fill="#fff" d="M310.602-41.465h4.816v-5.992h-4.816Z"/><path fill="none" stroke="#8059a6" stroke-linecap="round" stroke-linejoin="round" stroke-width=".5" d="M310.602-41.465h4.816v-5.992h-4.816z"/><path fill="#fff" d="M315.898-48.21h3.192v-6.368h-3.192Z"/><path fill="none" stroke="#8059a6" stroke-linecap="round" stroke-linejoin="round" stroke-width=".5" d="M315.898-48.21h3.192v-6.368h-3.192z"/><path fill="#b8ebb8" d="M371.5-1h28.348l-5.645-35.898h-17.058z"/><path fill="none" stroke="#060" stroke-linecap="round" stroke-linejoin="round" stroke-width=".5" d="M371.5-1h28.348l-5.645-35.898h-17.058zm14.172-35.898v-12.559"/><path fill="#060" d="M387.207-49.457a1.534 1.534 0 0 0-3.066 0 1.534 1.534 0 1 0 3.066 0"/><path fill="#fff" d="M376.766-1h4.871v-9.715h-4.871Z"/><path fill="none" stroke="#59a659" stroke-linecap="round" stroke-linejoin="round" stroke-width=".5" d="M376.766-1h4.871v-9.715h-4.871z"/><path fill="#fff" d="M386.469-9.973h4.285v-6.629h-4.285Z"/><path fill="none" stroke="#59a659" stroke-linecap="round" stroke-linejoin="round" stroke-width=".5" d="M386.469-9.973h4.285v-6.629h-4.285z"/><path fill="#fff" d="M387.773-18.95h2.856v-3.386h-2.856Z"/><path fill="none" stroke="#59a659" stroke-linecap="round" stroke-linejoin="round" stroke-width=".5" d="M387.773-18.95h2.856v-3.386h-2.856z"/><path fill="#fff" d="M380.488-27.922h3.223v-4.972h-3.223Z"/><path fill="none" stroke="#59a659" stroke-linecap="round" stroke-linejoin="round" stroke-width=".5" d="M380.488-27.922h3.223v-4.972h-3.223z"/><path fill="#b8dede" d="M441.531-1h28.348l-7.664-53.855h-13.02z"/><path fill="none" stroke="#004d4d" stroke-linecap="round" stroke-linejoin="round" stroke-width=".5" d="M441.531-1h28.348l-7.664-53.855h-13.02zm14.172-53.855v-13.047"/><path fill="#004d4d" d="M457.047-67.902a1.343 1.343 0 1 0-2.682-.001 1.343 1.343 0 0 0 2.682 0"/><path fill="#fff" d="M448.625-1h4.797v-7.793h-4.797Z"/><path fill="none" stroke="#599292" stroke-linecap="round" stroke-linejoin="round" stroke-width=".5" d="M448.625-1h4.797v-7.793h-4.797z"/><path fill="#fff" d="M447.68-9.977h3.867v-5.667h-3.867Z"/><path fill="none" stroke="#599292" stroke-linecap="round" stroke-linejoin="round" stroke-width=".5" d="M447.68-9.977h3.867v-5.667h-3.867z"/><path fill="#fff" d="M456.023-18.95h4.957v-5.784h-4.957Z"/><path fill="none" stroke="#599292" stroke-linecap="round" stroke-linejoin="round" stroke-width=".5" d="M456.023-18.95h4.957v-5.784h-4.957z"/><path fill="#fff" d="M458.797-27.926h3.707v-6.805h-3.707Z"/><path fill="none" stroke="#599292" stroke-linecap="round" stroke-linejoin="round" stroke-width=".5" d="M458.797-27.926h3.707v-6.805h-3.707z"/><path fill="#fff" d="M450.223-36.902h4.98v-5.387h-4.98Z"/><path fill="none" stroke="#599292" stroke-linecap="round" stroke-linejoin="round" stroke-width=".5" d="M450.223-36.902h4.98v-5.387h-4.98z"/><path fill="#fff" d="M449.984-45.879h2.856v-3.223h-2.856Z"/><path fill="none" stroke="#599292" stroke-linecap="round" stroke-linejoin="round" stroke-width=".5" d="M449.984-45.879h2.856v-3.223h-2.856z"/><path fill="#b8ebb8" d="M511.563-1h28.347l-4.265-46.477h-19.821z"/><path fill="none" stroke="#060" stroke-linecap="round" stroke-linejoin="round" stroke-width=".5" d="M511.563-1h28.347l-4.265-46.477h-19.821zm14.171-46.477V-59.14"/><path fill="#060" d="M526.902-59.14a1.169 1.169 0 1 0-2.334.002 1.169 1.169 0 0 0 2.334-.003"/><path fill="#fff" d="M531.496-1h5.602v-8.613h-5.602Z"/><path fill="none" stroke="#59a659" stroke-linecap="round" stroke-linejoin="round" stroke-width=".5" d="M531.496-1h5.602v-8.613h-5.602z"/><path fill="#fff" d="M524.129-8.742h4.512v-8.047h-4.512Z"/><path fill="none" stroke="#59a659" stroke-linecap="round" stroke-linejoin="round" stroke-width=".5" d="M524.129-8.742h4.512v-8.047h-4.512z"/><path fill="#fff" d="M514.492-16.492h4.957v-8.594h-4.957Z"/><path fill="none" stroke="#59a659" stroke-linecap="round" stroke-linejoin="round" stroke-width=".5" d="M514.492-16.492h4.957v-8.594h-4.957z"/><path fill="#fff" d="M515.887-24.238h3.136v-4.13h-3.136Z"/><path fill="none" stroke="#59a659" stroke-linecap="round" stroke-linejoin="round" stroke-width=".5" d="M515.887-24.238h3.136v-4.13h-3.136z"/><path fill="#fff" d="M530.965-31.984h3.89v-7.426h-3.89Z"/><path fill="none" stroke="#59a659" stroke-linecap="round" stroke-linejoin="round" stroke-width=".5" d="M530.965-31.984h3.89v-7.426h-3.89z"/><path fill="#fff" d="M524.953-38.676h5.117v-8.8h-5.117Z"/><path fill="none" stroke="#59a659" stroke-linecap="round" stroke-linejoin="round" stroke-width=".5" d="M524.953-38.676h5.117v-8.8h-5.117z"/><path fill="#ebded1" d="m629.785-1.5-3.082-10.148-8.816-9.094-2.352-5.14-4.051-10.356-7.617 1.07-8.726.832-8.645-1.926-11.898 2.797-5.836 5.55-2.766 8.005.07 9.266-4.312 9.144z"/><path fill="none" stroke="#664d33" stroke-linecap="round" stroke-linejoin="round" d="m629.785-1.5-3.082-10.148-8.816-9.094-2.352-5.14-4.051-10.356-7.617 1.07-8.726.832-8.645-1.926-11.898 2.797-5.836 5.55-2.766 8.005.07 9.266-4.312 9.144z"/><g fill="#ccbfb2"><path d="m593.422-5.04 7.789-.741 1.676 1.683-9.571-1.316zm-22.606-2.405 10.93-2.196-4.687-4.8-9.965.25z"/><path d="m574.789-9.719 5.27-1.793-.211.032-3.078.75zm29.883-3.199 5.195 1.863-.398-2.328-2.574.055zm-9.727-4.844 6.043.336 1.157-1.55-7.09-1.715zm-9.355-.047 2.148-2.074 1.934-1.957-2.555 2.363z"/></g><path fill="none" stroke="#664d33" stroke-linecap="round" stroke-linejoin="round" d="M595.77-40.523c5.242-1.914 7.222-7.266 4.187-11.309-1.906-2.54-5.66-3.953-6.738-6.848-1.055-2.824.785-5.828 4.144-6.777m5.207 24.934c4.285.242 7.828-2.746 7.489-6.313-.211-2.238-2.121-4.262-1.637-6.5.476-2.184 2.949-3.652 5.574-3.312m-28.433 16.125c1.796-2.438.578-5.641-2.583-6.766-1.98-.707-4.41-.332-6.132-1.453-1.676-1.09-2.004-3.098-.743-4.524"/><path fill="gray" d="M597.191-26.668c0-.605 0-1.664-1.179-1.664-.692 0-.934.367-1.18.895-.769 1.746-2.109 3.898-4.269 4.066-.602.039-1.461.121-1.461 1.18 0 .687.406 1.171 1.304 1.171 2.274 0 4.024-1.703 4.145-1.785V-5.37h-3.578c-.567 0-1.668 0-1.668 1.18s1.101 1.18 1.668 1.18h9.797c.57 0 1.664 0 1.664-1.18s-1.094-1.18-1.664-1.18h-3.579z"/><path fill="none" stroke="#000" stroke-linecap="round" stroke-linejoin="round" d="M597.191-26.668c0-.605 0-1.664-1.179-1.664-.692 0-.934.367-1.18.895-.769 1.746-2.109 3.898-4.269 4.066-.602.039-1.461.121-1.461 1.18 0 .687.406 1.171 1.304 1.171 2.274 0 4.024-1.703 4.145-1.785V-5.37h-3.578c-.567 0-1.668 0-1.668 1.18s1.101 1.18 1.668 1.18h9.797c.57 0 1.664 0 1.664-1.18s-1.094-1.18-1.664-1.18h-3.579z"/><path fill="#ebded1" d="m699.816-1.5-5.687-9.71 1.293-6.934-5.324-2.7-4.27-9-12.367.434-8.395-4.832-7.703-3.567-11.808.59-5.328 8.844-.817 10.55-2.961 8.641-4.664 7.684z"/><path fill="none" stroke="#664d33" stroke-linecap="round" stroke-linejoin="round" d="m699.816-1.5-5.687-9.71 1.293-6.934-5.324-2.7-4.27-9-12.367.434-8.395-4.832-7.703-3.567-11.808.59-5.328 8.844-.817 10.55-2.961 8.641-4.664 7.684z"/><g fill="#ccbfb2"><path d="m683.293-1.555 5.965-2.976-.238-5.852-8.188-3.316zm-7.715-5.136-.535-.754.406-3.575-4.769.665z"/><path d="m670.656-7.227.852-3.453-1.914-.324-.981 1.234zm10.735-5.402 12.07 1.027 1.285-3.09-9.18-1.581zm-15.481.539 7.043-1.84 1.774-10.168-8.336 3.508zm-19.961-6.5 4.793.227 2.227-1.79-8.641 1.544zm33.309 1.453 4.226.946 2.848-7.395-9.293.684z"/></g><path fill="none" stroke="#664d33" stroke-linecap="round" stroke-linejoin="round" d="M665.801-39.2c5.164-2.062 6.929-7.46 3.734-11.421-2.004-2.484-5.812-3.793-7.008-6.66-1.164-2.79.555-5.844 3.875-6.887m6.2 24.968c4.281.29 7.875-2.652 7.597-6.222-.172-2.242-2.047-4.289-1.519-6.523.511-2.172 3.011-3.61 5.633-3.239M655.594-39.2c2.41-2.042 2.086-5.39-.684-7.081-1.738-1.063-4.211-1.153-5.586-2.567-1.336-1.375-1.113-3.394.504-4.543"/><path fill="gray" d="M667.223-26.668c0-.605 0-1.664-1.18-1.664-.691 0-.934.367-1.18.895-.769 1.746-2.109 3.898-4.265 4.066-.61.039-1.465.121-1.465 1.18 0 .687.406 1.171 1.305 1.171 2.273 0 4.023-1.703 4.144-1.785V-5.37h-3.578c-.566 0-1.668 0-1.668 1.18s1.102 1.18 1.668 1.18h9.797c.57 0 1.664 0 1.664-1.18s-1.094-1.18-1.664-1.18h-3.578z"/><path fill="none" stroke="#000" stroke-linecap="round" stroke-linejoin="round" d="M667.223-26.668c0-.605 0-1.664-1.18-1.664-.691 0-.934.367-1.18.895-.769 1.746-2.109 3.898-4.265 4.066-.61.039-1.465.121-1.465 1.18 0 .687.406 1.171 1.305 1.171 2.273 0 4.023-1.703 4.144-1.785V-5.37h-3.578c-.566 0-1.668 0-1.668 1.18s1.102 1.18 1.668 1.18h9.797c.57 0 1.664 0 1.664-1.18s-1.094-1.18-1.664-1.18h-3.578z"/><path fill="#ebd1b8" d="M721.656-1h28.348l-4.934-51.777h-18.48z"/><path fill="none" stroke="#630" stroke-linecap="round" stroke-linejoin="round" stroke-width=".5" d="M721.656-1h28.348l-4.934-51.777h-18.48zm14.176-51.777v-9.813"/><path fill="#630" d="M737.113-62.59a1.283 1.283 0 1 0-2.565-.005 1.283 1.283 0 0 0 2.565.005"/><path fill="#fff" d="M726.52-1h4.769v-5.988h-4.769Z"/><path fill="none" stroke="#a68059" stroke-linecap="round" stroke-linejoin="round" stroke-width=".5" d="M726.52-1h4.769v-5.988h-4.769z"/><path fill="#fff" d="M735.914-9.629h3.984v-5.57h-3.984Z"/><path fill="none" stroke="#a68059" stroke-linecap="round" stroke-linejoin="round" stroke-width=".5" d="M735.914-9.629h3.984v-5.57h-3.984z"/><path fill="#fff" d="M739.785-18.258h4.813v-6.262h-4.813Z"/><path fill="none" stroke="#a68059" stroke-linecap="round" stroke-linejoin="round" stroke-width=".5" d="M739.785-18.258h4.813v-6.262h-4.813z"/><path fill="#fff" d="M740.176-26.887h3.25v-3.836h-3.25Z"/><path fill="none" stroke="#a68059" stroke-linecap="round" stroke-linejoin="round" stroke-width=".5" d="M740.176-26.887h3.25v-3.836h-3.25z"/><path fill="#fff" d="M740.516-35.52h4.238v-6.113h-4.238Z"/><path fill="none" stroke="#a68059" stroke-linecap="round" stroke-linejoin="round" stroke-width=".5" d="M740.516-35.52h4.238v-6.113h-4.238z"/><path fill="#fff" d="M735.816-44.148h5.567v-5.723h-5.567Z"/><path fill="none" stroke="#a68059" stroke-linecap="round" stroke-linejoin="round" stroke-width=".5" d="M735.816-44.148h5.567v-5.723h-5.567z"/><path fill="#b8b8b8" d="M791.688-1h28.347l-6.316-28.941h-15.711z"/><path fill="none" stroke="#000" stroke-linecap="round" stroke-linejoin="round" stroke-width=".5" d="M791.688-1h28.347l-6.316-28.941h-15.711zm14.175-28.941v-8.672"/><path d="M806.719-38.613a.856.856 0 1 0-1.711 0 .856.856 0 0 0 1.711 0"/><path fill="#fff" d="M813.207-1h4.023v-6.05h-4.023Z"/><path fill="none" stroke="#595959" stroke-linecap="round" stroke-linejoin="round" stroke-width=".5" d="M813.207-1h4.023v-6.05h-4.023z"/><path fill="#fff" d="M806.184-4.617h5.636v-11.055h-5.636Z"/><path fill="none" stroke="#595959" stroke-linecap="round" stroke-linejoin="round" stroke-width=".5" d="M806.184-4.617h5.636v-11.055h-5.636z"/><path fill="#fff" d="M806.746-8.234h5.457v-8.473h-5.457Z"/><path fill="none" stroke="#595959" stroke-linecap="round" stroke-linejoin="round" stroke-width=".5" d="M806.746-8.234h5.453v-8.473h-5.453z"/><path fill="#fff" d="M810.891-11.852h3.023v-4.082h-3.023Z"/><path fill="none" stroke="#595959" stroke-linecap="round" stroke-linejoin="round" stroke-width=".5" d="M810.891-11.852h3.023v-4.082h-3.023z"/><path fill="#fff" d="M807.117-15.469h5.371v-9.656h-5.371Z"/><path fill="none" stroke="#595959" stroke-linecap="round" stroke-linejoin="round" stroke-width=".5" d="M807.117-15.469h5.371v-9.66h-5.371z"/><path fill="#fff" d="M798.305-19.086h4.832v-8.46h-4.832Z"/><path fill="none" stroke="#595959" stroke-linecap="round" stroke-linejoin="round" stroke-width=".5" d="M798.305-19.086h4.832v-8.46h-4.832z"/><path fill="#fff" d="M797.648-19.734h5.512v-10.207h-5.512Z"/><path fill="none" stroke="#595959" stroke-linecap="round" stroke-linejoin="round" stroke-width=".5" d="M797.648-19.734h5.512v-10.207h-5.512z"/><path fill="#fff" d="M802.852-21.164h5.273v-8.777h-5.273Z"/><path fill="none" stroke="#595959" stroke-linecap="round" stroke-linejoin="round" stroke-width=".5" d="M802.852-21.164h5.273v-8.777h-5.273z"/><path fill="#ebded1" d="m909.91-1.5-5.094-6.86-6.328-9.43-4.64-11.14-3.934-7.683-9.625-1.996-13.254 2.414-8.648-1.508-7.985.476-3.066 9.266-4.563 6.328 2.582 11.434-3.476 8.699z"/><path fill="none" stroke="#664d33" stroke-linecap="round" stroke-linejoin="round" d="m909.91-1.5-5.094-6.86-6.328-9.43-4.64-11.14-3.934-7.683-9.625-1.996-13.254 2.414-8.648-1.508-7.985.476-3.066 9.266-4.563 6.328 2.582 11.434-3.476 8.699z"/><g fill="#ccbfb2"><path d="m892.984-2.2 5.5-.464 3.731-9.86-9.32 2.942z"/><path d="m892.762-8.457 5.015 3.645-2.867-.493-6.18-1.777zm-30.254-2.113 2.734-.774 5.16-2.703-5.172-.234zm-7.336 2.43 6.039-3.43 1.238-1.942-4.601.602z"/><path d="m861.137-14.91 9.047 4.363 2.464-14.113-12.796 2.305zm35.527-2.184 1.801 4.778-1.981-3.153-1.285-3.222zm-11.891 2.762 10.094-2.582-.433-6.816-3.75.566z"/><path d="m882.152-17.719 7.512-.281 2.473-7.21-5.328 5.331z"/></g><path fill="none" stroke="#664d33" stroke-linecap="round" stroke-linejoin="round" d="M875.895-42.59c5.113-2.144 6.75-7.574 3.46-11.48-2.062-2.453-5.902-3.696-7.164-6.54-1.23-2.773.414-5.855 3.707-6.953m6.797 24.973c4.285-.234 7.325-3.582 6.43-7.082-.562-2.195-2.777-3.992-2.648-6.266.125-2.21 2.343-3.937 5.003-3.89M865.688-42.59c1.949-2.36.925-5.61-2.157-6.87-1.933-.794-4.383-.524-6.035-1.716-1.605-1.164-1.808-3.18-.457-4.55"/><path fill="gray" d="M875.855-15.492c4.223 0 6.094 2.969 6.094 5.164 0 2.683-2.359 5.203-5.937 5.203-4.059 0-5.895-2.195-5.895-2.766 0-.078.043-.16.086-.203.16-.285.281-.61.281-.976 0-.852-.644-1.621-1.625-1.621-.851 0-1.664.527-1.664 1.785 0 3.535 3.86 6.14 8.817 6.14 5.125 0 8.582-3.656 8.582-7.52 0-2.073-1.141-4.96-4.715-6.503 2.476-1.547 3.574-3.984 3.574-6.094 0-3.05-3.051-5.695-7.441-5.695-4.512 0-7.68 1.953-7.68 4.96 0 1.34 1.016 1.75 1.664 1.75.734 0 1.629-.57 1.629-1.671 0-.648-.324-1.012-.324-1.055 1.219-1.543 4.019-1.629 4.711-1.629 2.765 0 4.801 1.47 4.801 3.375 0 1.18-.778 4.555-5.043 4.836-1.504.082-2.153.168-2.317.168-.808.078-1.015.606-1.015 1.18 0 1.172.855 1.172 1.546 1.172z"/><path fill="none" stroke="#000" stroke-linecap="round" stroke-linejoin="round" d="M875.855-15.492c4.223 0 6.094 2.969 6.094 5.164 0 2.683-2.359 5.203-5.937 5.203-4.059 0-5.895-2.195-5.895-2.766 0-.078.043-.16.086-.203.16-.285.281-.61.281-.976 0-.852-.644-1.621-1.625-1.621-.851 0-1.664.527-1.664 1.785 0 3.535 3.86 6.14 8.817 6.14 5.125 0 8.582-3.656 8.582-7.52 0-2.073-1.141-4.96-4.715-6.503 2.476-1.547 3.574-3.984 3.574-6.094 0-3.05-3.051-5.695-7.441-5.695-4.512 0-7.68 1.953-7.68 4.96 0 1.34 1.016 1.75 1.664 1.75.734 0 1.629-.57 1.629-1.671 0-.648-.324-1.012-.324-1.055 1.219-1.543 4.019-1.629 4.711-1.629 2.765 0 4.801 1.47 4.801 3.375 0 1.18-.778 4.555-5.043 4.836-1.504.082-2.153.168-2.317.168-.808.078-1.015.606-1.015 1.18 0 1.172.855 1.172 1.546 1.172z"/><path fill="#b8ebb8" d="M931.754-1h28.344l-7.512-36.902h-13.32z"/><path fill="none" stroke="#060" stroke-linecap="round" stroke-linejoin="round" stroke-width=".5" d="M931.754-1h28.344l-7.512-36.902h-13.32zm14.172-36.902v-12.586"/><path fill="#060" d="M947.148-50.488c0-.68-.546-1.227-1.222-1.227s-1.227.547-1.227 1.227a1.226 1.226 0 0 0 2.449 0"/><path fill="#fff" d="M945.824-1h3.582v-5.133h-3.582Z"/><path fill="none" stroke="#59a659" stroke-linecap="round" stroke-linejoin="round" stroke-width=".5" d="M945.824-1h3.582v-5.133h-3.582z"/><path fill="#fff" d="M939.465-10.223h4.16v-7.136h-4.16Z"/><path fill="none" stroke="#59a659" stroke-linecap="round" stroke-linejoin="round" stroke-width=".5" d="M939.465-10.223h4.164v-7.136h-4.164z"/><path fill="#fff" d="M939.73-19.45h3.477v-4.16h-3.477Z"/><path fill="none" stroke="#59a659" stroke-linecap="round" stroke-linejoin="round" stroke-width=".5" d="M939.73-19.45h3.473v-4.16h-3.473z"/><path fill="#fff" d="M942.074-28.676h3.653v-4.336h-3.653Z"/><path fill="none" stroke="#59a659" stroke-linecap="round" stroke-linejoin="round" stroke-width=".5" d="M942.074-28.676h3.653v-4.336h-3.653z"/><path fill="#ebded1" d="m1049.97-1.5-.57-5.54-4.18-10.608-5.07-6.184-3.94-6.477-12.01-2.699-10.04-2.047-10.66 2.54-8.734-3.204-6.188 8.54 3.024 10.042-5.266 8.473-4.395 7.164z"/><path fill="none" stroke="#664d33" stroke-linecap="round" stroke-linejoin="round" d="m1049.97-1.5-.57-5.54-4.18-10.608-5.07-6.184-3.94-6.477-12.01-2.699-10.04-2.047-10.66 2.54-8.734-3.204-6.188 8.54 3.024 10.042-5.266 8.473-4.395 7.164z"/><g fill="#ccbfb2"><path d="m996.078-4.512 4.362-1.316-.13-4.168-3.787 3.738zm5.972.864 13.31-1.293-.52-10.688-7.36-1.246zm-13.495-6.629 7.293-.524.277.418-3.535-3.37z"/><path d="m1008.16-9.895 7.68.34 4.63-4.773-11.14-.688zm-11.496-3.449 6.056.649-.04-2.953-3.551-.684zm8.996-2.152 8.35.402.93-8.113-10.32-.184z"/><path d="m1003.95-16.2 8.46-.738 3.2-3.738-9.56-.547z"/><path d="m1008.14-16.758 9.87-2.734-2.03-10.758-11.48 4.297z"/></g><path fill="none" stroke="#664d33" stroke-linecap="round" stroke-linejoin="round" d="M1015.96-38.684c5.42-1.527 7.96-6.71 5.36-10.96-1.64-2.669-5.23-4.348-6-7.313-.75-2.89 1.4-5.75 4.84-6.45m2.6 24.723c4.28.336 7.91-2.574 7.69-6.144-.14-2.242-1.99-4.309-1.43-6.535.54-2.172 3.06-3.582 5.68-3.188m-28.95 15.867c2.33-2.109 1.86-5.445-.98-7.054-1.78-1.012-4.25-1.032-5.68-2.407-1.399-1.335-1.258-3.359.312-4.554"/><path fill="gray" d="M1019.65-11.95c.57-.491 4.68-3.988 4.68-8.5 0-4.628-3.82-7.882-8.9-7.882-4.72 0-7.85 3.535-7.85 6.953 0 1.707 1.43 1.828 1.67 1.828.73 0 1.62-.57 1.62-1.668 0-.773-.28-1.015-.48-1.18.57-2.152 2.43-3.578 4.79-3.578 3.46 0 6.5 1.993 6.5 5.528 0 3.172-2.39 5.613-4.59 7.52l-8.94 7.765c-.44.367-.57.484-.57.973 0 1.18 1.1 1.18 1.67 1.18h14.18c.9-.243.9-1.06.9-1.669v-.851c0-.73 0-1.668-1.3-1.668-1.35 0-1.35.855-1.35 1.828h-9.79z"/><path fill="none" stroke="#000" stroke-linecap="round" stroke-linejoin="round" d="M1019.65-11.95c.57-.491 4.68-3.988 4.68-8.5 0-4.628-3.82-7.882-8.9-7.882-4.72 0-7.85 3.535-7.85 6.953 0 1.707 1.43 1.828 1.67 1.828.73 0 1.62-.57 1.62-1.668 0-.773-.28-1.015-.48-1.18.57-2.152 2.43-3.578 4.79-3.578 3.46 0 6.5 1.993 6.5 5.528 0 3.172-2.39 5.613-4.59 7.52l-8.94 7.765c-.44.367-.57.484-.57.973 0 1.18 1.1 1.18 1.67 1.18h14.18c.9-.243.9-1.06.9-1.669v-.851c0-.73 0-1.668-1.3-1.668-1.35 0-1.35.855-1.35 1.828h-9.79z"/><path fill="#d1b8eb" d="M1071.81-1h28.35l-3.99-29.836h-20.37z"/><path fill="none" stroke="#306" stroke-linecap="round" stroke-linejoin="round" stroke-width=".5" d="M1071.81-1h28.35l-3.99-29.836h-20.37z"/><path fill="#fff" d="M1081.91-1h4.39v-8.777h-4.39Z"/><path fill="none" stroke="#8059a6" stroke-linecap="round" stroke-linejoin="round" stroke-width=".5" d="M1081.91-1h4.39v-8.777h-4.39z"/><path fill="#fff" d="M1089.03-8.457h4.36v-7.613h-4.36Z"/><path fill="none" stroke="#8059a6" stroke-linecap="round" stroke-linejoin="round" stroke-width=".5" d="M1089.03-8.457h4.36v-7.613h-4.36z"/><path fill="#fff" d="M1078.55-15.918h4.18v-7.75h-4.18Z"/><path fill="none" stroke="#8059a6" stroke-linecap="round" stroke-linejoin="round" stroke-width=".5" d="M1078.55-15.918h4.18v-7.746h-4.18z"/><path fill="#fff" d="M1078.53-23.375h4.87v-5.187h-4.87Z"/><path fill="none" stroke="#8059a6" stroke-linecap="round" stroke-linejoin="round" stroke-width=".5" d="M1078.53-23.375h4.87v-5.187h-4.87z"/><path fill="#b8b8b8" d="M1141.85-1h28.34l-4.45-21.305h-19.44z"/><path fill="none" stroke="#000" stroke-linecap="round" stroke-linejoin="round" stroke-width=".5" d="M1141.85-1h28.34l-4.45-21.305h-19.44zm14.17-21.305v-10.054"/><path d="M1157.24-32.36a1.22 1.22 0 0 0-2.44 0 1.22 1.22 0 0 0 2.44 0"/><path fill="#fff" d="M1152.03-1h3.98v-5.281h-3.98Z"/><path fill="none" stroke="#595959" stroke-linecap="round" stroke-linejoin="round" stroke-width=".5" d="M1152.03-1h3.98v-5.281h-3.98z"/><path fill="#fff" d="M1147.26-11.652h3.83v-5.786h-3.83Z"/><path fill="none" stroke="#595959" stroke-linecap="round" stroke-linejoin="round" stroke-width=".5" d="M1147.26-11.652h3.83v-5.786h-3.83z"/><path fill="#ebd1b8" d="M1211.88-1h28.34l-4.73-25.36h-18.87z"/><path fill="none" stroke="#630" stroke-linecap="round" stroke-linejoin="round" stroke-width=".5" d="M1211.88-1h28.34l-4.73-25.36h-18.87zm14.17-25.36v-5.867"/><path fill="#630" d="M1227.05-32.227a1 1 0 1 0-1.998.007 1 1 0 0 0 1.998-.007"/><path fill="#fff" d="M1222.12-1h3.1v-3.523h-3.1Z"/><path fill="none" stroke="#a68059" stroke-linecap="round" stroke-linejoin="round" stroke-width=".5" d="M1222.12-1h3.1v-3.523h-3.1z"/><path fill="#fff" d="M1228.22-9.453h3.15v-5.352h-3.15Z"/><path fill="none" stroke="#a68059" stroke-linecap="round" stroke-linejoin="round" stroke-width=".5" d="M1228.22-9.453h3.15v-5.352h-3.15z"/><path fill="#fff" d="M1216.72-16.988h4.77v-9.371h-4.77Z"/><path fill="none" stroke="#a68059" stroke-linecap="round" stroke-linejoin="round" stroke-width=".5" d="M1216.72-16.988h4.77v-9.371h-4.77z"/></g></svg>