<svg xmlns="http://www.w3.org/2000/svg" width="443pt" height="157pt" viewBox="0 -157 443 157"><g id="page1"><path fill="#b7875a" d="M189.109-54.02c-1.773-17.624 5.844-35.785 19.489-46.949 5.136-3.808 10.629-6.996 16.476-9.652 2.922-1.242 5.934-2.305 8.504-4.254 7.973-5.758 13.906-13.73 20.992-20.461 7.086-7.086 15.325-13.289 24.895-16.832 11.777-4.516 24.976-5.934 37.293-2.656 10.894 3.101 20.195 10.804 25.863 20.461 6.469 10.984 7.973 24.183 6.91 36.676-.176 4.695-1.418 9.386-3.543 13.55-5.402 10.719-13.73 19.668-22.234 27.907-15.234 14.437-32.156 27.015-49.961 38.09-7.086 4.163-14.262 8.413-22.145 11.16-4.164 1.503-8.593.62-12.843-.09-12.047-2.657-23.567-8.059-33.043-16.032-8.414-7.175-14.617-17.097-16.297-28.171-.18-.883-.27-1.86-.356-2.746"/><path fill="#865b52" d="M281.59-61.46c-4.695 3.19-8.949 6.91-13.555 10.1-11.07 7.973-23.472 14.794-37.117 16.829-7.352 1.062-14.879.535-22.145-1.063-6.734-1.683-13.82-4.781-17.804-10.804-.531-.711-1.239-2.836-.707-.797 3.008 12.578 9.386 24.625 19.133 33.394 9.476 8.504 22.054 13.375 34.812 13.73 9.125.442 18.07-1.327 26.754-3.898 10.805-3.453 20.551-9.39 30.559-14.617 13.554-7.527 26.664-16.297 36.851-28.078 6.289-7.176 10.539-16.035 13.551-25.07 4.344-12.668 5.141-26.575 1.508-39.508-2.391-8.594-6.379-16.832-11.34-24.274-1.949-2.922-3.985-5.757-6.555-8.148 1.774 10.984 2.125 22.324.356 33.309-1.328 7.972-4.164 15.765-9.391 22.054-7.352 9.57-17.098 17.719-28.523 21.793-4.872 1.95-10.098 2.656-15.059 4.43-.441.176-.887.355-1.328.617"/><path fill="#513531" d="M271.313-33.113c1.242 1.949 4.253 1.242 6.289 1.328 3.722-.176 7.441-.797 11.074-1.414 2.215-.09 3.898-2.48 1.769-4.078-2.39-2.657-5.492-4.957-9.035-5.578-2.215-.266-3.984 1.593-5.578 3.011-1.773 1.86-3.812 3.899-4.519 6.465zm32.332 3.367c1.593 1.152 3.632-.442 4.96-1.328 1.86-1.594 3.192-3.899 3.458-6.38-.356-2.034-3.368-1.593-4.875-1.151-3.012.976-4.25 4.609-3.985 7.53.086.442.176.973.442 1.329m42.433-84.863c-1.773-1.77-3.101 1.949-3.723 3.277-.886 1.859-.972 4.609 1.153 5.758 1.683 1.332 4.605.621 4.781-1.77.27-2.57-1.059-5.051-2.211-7.265M224.012-19.383c-1.242 2.305 1.504 4.074 3.187 5.14 1.77.798 3.985 1.415 5.758.442 1.238-1.683-1.152-3.277-2.215-4.43-1.508-1.328-3.453-3.187-5.582-2.214a2.7 2.7 0 0 0-1.148 1.062"/><path fill="#865b52" d="M207.887-51.008c-1.328 1.418-.797 3.633-.617 5.317-.09 2.214 1.503 3.367 3.628 3.101 1.774 0 4.961.442 5.317-1.95-.531-2.48-2.656-4.339-4.52-5.933-1.062-.8-2.656-1.418-3.808-.535m12.312-12.398c1.067 1.683 3.367 1.148 4.61-.09 1.593-1.328 3.011-4.074 1.418-6.023-1.774-1.594-4.344 0-5.497 1.593-.796 1.328-1.503 3.102-.531 4.52m27.551-55.102c-2.125-1.148-3.809.977-4.43 2.836-.886 2.57-2.836 4.695-3.367 7.352.445 2.129 3.543 1.332 5.141 1.242 1.769-.18 3.984-.977 4.34-3.012.621-2.57.796-5.492-.797-7.707-.176-.355-.532-.531-.887-.711"/><path fill="#d8ab81" d="M200.535-57.562c2.125.71 3.985-1.239 5.403-2.657 3.632-3.718 6.027-8.414 9.746-12.047 5.226-5.136 11.25-9.476 17.714-12.933 7.973-4.164 16.922-5.492 25.602-7.528 4.52-1.066 9.215-2.835 12.402-6.468 6.996-7.442 10.453-17.364 16.563-25.512 3.633-4.871 9.125-8.414 15.238-8.945 3.102-.446 6.289.175 9.301-.711 2.391-.797 2.57-4.075 1.684-6.11-1.95-3.988-6.379-5.937-10.454-6.91-8.945-1.949-18.601.086-25.867 5.668-6.554 4.785-11.16 11.606-15.234 18.516-3.543 5.488-6.645 11.336-11.25 16.031-3.192 3.191-7.442 4.695-11.695 5.938-9.122 2.921-17.981 7.171-25.157 13.64-4.785 4.074-8.945 8.946-11.871 14.528-1.945 3.898-3.984 7.972-3.894 12.402 0 1.238.531 2.566 1.769 3.097"/><path fill="#865b52" d="M298.332-120.809c.707 3.809 4.606 5.844 8.059 6.645 2.836.797 6.468.086 7.797-2.836.886-1.949-.887-3.723-2.481-4.43-2.215-1.062-4.695-1.593-6.555-3.367-1.328-1.418-3.632-1.859-5.226-.531-1.328 1.062-1.684 2.926-1.594 4.519"/></g></svg>