<svg xmlns="http://www.w3.org/2000/svg" width="910pt" height="422pt" viewBox="0 -422 910 422"><g id="page1" transform="scale(1 -1)"><path fill="#cc9c6f" d="M142.73 324.148a7141 7141 0 0 1 311.813-6.804c104.062 0 208.082 2.269 311.812 6.804v17.008a7141 7141 0 0 1-311.812 6.805 7141 7141 0 0 1-311.813-6.805z"/><path fill="none" stroke="#000" stroke-linecap="round" stroke-linejoin="round" stroke-width="2" d="M142.73 324.148a7141 7141 0 0 1 311.813-6.804c104.062 0 208.082 2.269 311.812 6.804v17.008a7141 7141 0 0 1-311.812 6.805 7141 7141 0 0 1-311.813-6.805z"/><path fill="#fff" d="M176.746 332.652a5.665 5.665 0 0 1-5.668 5.668 5.667 5.667 0 1 1 0-11.336 5.667 5.667 0 0 1 5.668 5.668"/><path fill="none" stroke="#000" stroke-linecap="round" stroke-linejoin="round" stroke-width="2" d="M176.746 332.652a5.665 5.665 0 0 1-5.668 5.668 5.667 5.667 0 1 1 0-11.336 5.667 5.667 0 0 1 5.668 5.668"/><path fill="#fff" d="M743.676 332.652a5.665 5.665 0 0 1-5.668 5.668 5.667 5.667 0 1 1 0-11.336 5.667 5.667 0 0 1 5.668 5.668"/><path fill="none" stroke="#000" stroke-linecap="round" stroke-linejoin="round" stroke-width="2" d="M743.676 332.652a5.665 5.665 0 0 1-5.668 5.668 5.667 5.667 0 1 1 0-11.336 5.667 5.667 0 0 1 5.668 5.668"/><path fill="#d3ae37" d="M341.156 86.04c0 15.655-76.144 28.347-170.078 28.347C77.148 114.387 1 101.695 1 86.039s76.148-28.348 170.078-28.348c93.934 0 170.078 12.692 170.078 28.348"/><path fill="none" stroke="#000" stroke-linecap="round" stroke-linejoin="round" stroke-width="2" d="M341.156 86.04c0 15.655-76.144 28.347-170.078 28.347C77.148 114.387 1 101.695 1 86.039s76.148-28.348 170.078-28.348c93.934 0 170.078 12.692 170.078 28.348m-170.078 226.77 161.41-217.813m-161.41 217.813L117.32 112.941m53.758 199.868L19.984 73.012m151.094 239.797v19.843"/><g fill-rule="evenodd"><path fill="#a7410e" d="M80.73 108.469c-.312-.125-.62-.313-.683-.313s.559-.679 1.363-1.488c.809-.805 1.8-1.859 2.234-2.48.434-.555 1.114-1.61 1.489-2.293.308-.68.742-1.797.992-2.418a19 19 0 0 0 .434-2.418c0-.684.12-1.243.246-1.301.062-.063.558-.125 1.054-.125.747 0 .93.062.993.246.062.125 0 .746-.125 1.426-.121.62-.434 1.86-.743 2.668-.25.867-.683 2.047-.992 2.668-.312.617-.867 1.672-1.3 2.293-.376.621-.993 1.425-1.305 1.796-.371.309-.93.805-1.239 1.118-.375.246-.808.558-1.054.679a2 2 0 0 1-.621.188c-.125 0-.434-.121-.742-.246m17.735-8.371h.742c.25.058.063.058-.371.058-.371 0-.559 0-.371-.058M77.629 59.606c.433-.372.805-.747.805-.747.062 0-.246.375-.68.746-.375.434-.746.805-.809.805s.25-.37.684-.804m-7.567-1.614c.372-.433.747-.804.81-.804.058 0-.25.37-.684.804-.434.371-.805.746-.805.746-.063 0 .246-.375.68-.746"/><path fill="red" d="M96.664 99.723c-.558-.184-1.238-.434-1.426-.559-.246-.121-1.3-.742-2.293-1.426-1.054-.617-2.297-1.363-2.793-1.61-.804-.37-.992-.37-2.418-.37-1.238 0-1.671.058-2.601.37-.559.184-2.235.868-3.598 1.552-1.426.617-3.039 1.3-3.597 1.484-.56.188-1.489.438-2.106.496-.934.125-1.305.125-2.234-.058-.621-.125-1.735-.496-2.48-.809-.743-.246-1.798-.742-2.294-1.055-.496-.308-1.305-.804-1.676-1.113-.433-.371-1.117-.992-1.613-1.488s-1.113-1.301-1.488-1.797c-.309-.496-.805-1.43-1.113-2.05-.313-.556-.746-1.548-.93-2.169-.188-.621-.496-1.676-.621-2.418-.188-.742-.371-2.047-.434-2.914-.125-.93-.125-2.355-.062-3.473.062-1.054.187-2.605.308-3.41.063-.808.375-2.172.559-3.039.187-.867.621-2.48.992-3.656.371-1.117 1.18-2.98 1.738-4.094a42 42 0 0 1 1.922-3.535 72 72 0 0 1 1.797-2.48 71 71 0 0 1 2.356-2.48c.808-.806 1.984-1.798 2.543-2.169.558-.437 1.363-.934 1.796-1.18.438-.187 1.43-.62 2.235-.867.742-.25 1.984-.558 2.789-.683.867-.125 1.738-.188 2.48-.125.684 0 1.614.25 2.48.496 1.055.312 1.614.433 2.544.433 1.055.063 1.3 0 3.101-.617 1.426-.558 2.106-.683 2.727-.683.496 0 1.3.125 1.86.308.558.125 1.488.496 2.109.746.62.309 1.675.805 2.293 1.18.683.434 1.675 1.113 2.297 1.61.621.433 1.613 1.363 2.23 1.984.621.62 1.551 1.613 2.047 2.23.496.621 1.301 1.738 1.797 2.422.433.742 1.179 1.984 1.613 2.727.434.746 1.117 2.109 1.551 3.039.371.867.992 2.48 1.363 3.472s.809 2.418.992 3.223c.188.746.434 1.926.559 2.668.062.683.187 2.047.25 2.977.058.992.058 2.355-.063 3.285-.062.87-.312 2.171-.433 2.855-.125.68-.438 1.797-.684 2.414-.187.684-.621 1.676-.93 2.297-.308.621-.867 1.55-1.242 2.11-.371.558-1.05 1.425-1.609 1.984-.559.496-1.305 1.238-1.801 1.547-.433.312-1.301.87-1.922 1.18s-1.551.68-2.105.867c-.496.187-1.43.37-1.988.496-.618.125-1.672.25-2.419.187-1.05 0-1.546-.062-2.355-.312M68.762 84.469c-.188-.434-.496-1.238-.621-1.86-.184-.62-.372-1.796-.497-2.543-.125-.804-.183-2.418-.183-3.53 0-1.243.058-2.794.183-3.536.125-.746.313-1.86.497-2.48.125-.622.496-1.739.808-2.48.309-.747.867-1.923 1.301-2.606.434-.743 1.117-1.735 1.55-2.356a58 58 0 0 1 1.985-2.11c.617-.62 1.672-1.488 2.293-1.984.684-.433 1.613-1.054 2.172-1.3.555-.25 1.113-.496 1.363-.496.246-.063.371-.063.371.062 0 .063-.992 1.113-2.109 2.293a80 80 0 0 0-2.914 3.102 42 42 0 0 1-1.488 2.046c-.371.555-.992 1.672-1.364 2.418a30 30 0 0 0-1.117 2.606c-.183.68-.558 1.734-.68 2.355-.124.618-.37 1.735-.496 2.54-.125.93-.25 2.855-.25 5.519-.062 2.297-.12 4.34-.12 4.59-.063.25-.126.496-.188.496-.125 0-.309-.371-.496-.746"/><path d="M101.191 119.195c-.308-.062-1.054-.558-1.675-1.117-.618-.496-1.426-1.113-1.735-1.363-.433-.313-.93-.496-1.675-.621-.56-.063-1.86-.309-2.852-.434-1.488-.25-1.985-.371-2.914-.867-.805-.371-1.3-.746-1.922-1.426-.434-.496-1.055-1.304-1.363-1.922-.313-.621-.621-1.367-.746-1.613l-.125-.496-.93.684c-.555.371-1.488.929-2.106 1.238-1.054.496-1.242.558-1.863.433-.37 0-1.238-.308-1.922-.558-.867-.371-1.363-.68-1.734-1.113-.309-.313-.621-.809-.684-1.118-.12-.375-.12-.871-.062-1.179 0-.309.187-.805.375-1.055.12-.309.617-.805 1.05-1.176a14 14 0 0 0 1.864-1.676c.559-.558 1.363-1.488 1.734-2.046.371-.555.684-1.051.621-1.118 0 0-.804.313-1.738.746-.992.372-2.293.868-2.914 1.055-.867.188-1.547.309-2.852.309-1.488 0-1.921-.063-3.039-.371-.68-.246-1.859-.621-2.539-.93-.683-.309-1.738-.867-2.297-1.242-.62-.309-1.671-1.113-2.355-1.672-.746-.621-1.676-1.55-2.11-2.11a26 26 0 0 1-1.425-1.796c-.309-.497-.805-1.426-1.176-2.11-.312-.683-.809-1.738-1.055-2.418-.25-.683-.558-1.984-.746-2.914-.183-.93-.433-2.543-.496-3.66-.125-1.488-.125-2.48 0-4.215.063-1.18.25-2.914.434-3.843.125-.93.433-2.297.62-3.04.188-.746.56-2.047.806-2.851.312-.871.808-2.172 1.117-2.977.312-.808.93-2.11 1.363-2.851.375-.809 1.117-2.047 1.613-2.793.496-.742 1.364-1.985 1.985-2.727.62-.746 1.738-1.984 2.543-2.73a27 27 0 0 1 2.664-2.293c.683-.559 1.863-1.242 2.605-1.676.809-.371 1.86-.805 2.48-.992.622-.246 1.676-.496 2.356-.68.684-.125 2.047-.312 3.04-.312 1.675-.063 1.921-.063 3.163.312a83 83 0 0 1 2.168.559l.746.246 2.23-.742c1.985-.684 2.298-.746 3.473-.746 1.118 0 1.551.062 2.915.433.992.313 2.359.867 3.597 1.488 1.055.559 2.543 1.426 3.285 1.922.746.559 2.172 1.801 3.227 2.856 1.055 1.05 2.355 2.418 2.789 3.035.434.621 1.242 1.738 1.738 2.48.496.746 1.238 2.047 1.672 2.793.434.743 1.117 2.23 1.551 3.223.496 1.055 1.117 2.668 1.488 3.723.371.992.805 2.601 1.055 3.468.183.93.496 2.422.621 3.29.125.992.246 2.48.246 3.968 0 1.61-.062 2.914-.246 3.969-.125.805-.375 2.105-.559 2.789-.187.742-.558 1.734-.746 2.293-.183.496-.679 1.55-1.054 2.297a24 24 0 0 1-1.489 2.48c-.496.618-1.176 1.489-1.609 1.922a12.3 12.3 0 0 1-1.613 1.489c-.434.37-1.364 1.05-2.047 1.425-.684.434-1.86 1.055-2.664 1.364-.809.308-2.172.683-3.039.867-.871.187-1.864.312-2.235.375h-.617l.742.371c.434.183 1.18.742 1.672 1.238a9.4 9.4 0 0 1 1.43 1.859c.246.559.621 1.426.742 1.989.187.617.371 1.797.496 2.789.125.93.25 2.48.313 3.41.058 1.113.058 1.922-.063 2.293-.062.312-.312.809-.496 1.055-.125.25-.559.621-.867.746-.313.183-.809.371-1.117.371-.371.062-.871 0-1.118-.063m-.496-3.785a19 19 0 0 0-2.047-1.426c-.496-.246-1.363-.496-1.921-.617a26 26 0 0 0-2.606-.375c-.805-.121-1.797-.371-2.168-.496a4.7 4.7 0 0 1-1.305-.867c-.308-.309-.742-.93-.992-1.363-.246-.434-.554-1.118-.68-1.614-.124-.433-.25-1.238-.25-1.922 0-.558.126-1.363.188-1.671l.434-1.305.308-.617 1.242.679c.684.372 1.614.747 2.047.868.371.125 1.489.312 2.356.433.93.063 1.922.25 2.293.375.375.063.93.246 1.242.434a5.2 5.2 0 0 1 1.117.804c.184.309.555.747.68 1.055.125.246.371.93.558 1.426.188.559.372 1.551.497 2.297.125.742.25 2.105.308 3.16 0 .992.063 1.801 0 1.801 0 0-.617-.5-1.301-1.059m-19.964-6.941c-.313-.125-.622-.313-.684-.313s.559-.679 1.363-1.488c.809-.805 1.8-1.859 2.234-2.48.434-.555 1.114-1.61 1.489-2.293.308-.68.742-1.797.992-2.418a18 18 0 0 0 .434-2.48c.062-.93 0-1.18-.125-1.18-.063 0-.684.187-1.364.374-.62.246-1.86.743-2.668 1.114-.867.433-2.168.992-2.914 1.304-.804.309-1.984.743-2.605.93-.992.246-1.489.246-2.356.184-.68 0-1.55-.184-2.418-.496-.742-.246-1.859-.743-2.543-1.051-.68-.375-1.734-.992-2.293-1.43-.558-.433-1.425-1.176-1.796-1.672a14 14 0 0 1-1.489-1.797c-.375-.558-.87-1.367-1.054-1.8a21 21 0 0 1-.868-2.047 66 66 0 0 1-.683-2.477 18 18 0 0 1-.434-2.297c-.062-.558-.125-2.293-.062-3.781 0-1.613.125-3.41.246-4.219.125-.804.437-2.293.683-3.222.25-.993.684-2.543.93-3.348.309-.867.805-2.234 1.18-2.977.308-.808.992-2.046 1.426-2.851.496-.809 1.238-1.985 1.734-2.668.433-.621 1.242-1.676 1.8-2.297.497-.617 1.489-1.672 2.169-2.23.683-.622 1.675-1.364 2.11-1.735.433-.312 1.3-.809 1.92-1.117s1.614-.684 2.235-.93a30 30 0 0 1 2.293-.558c.68-.125 1.672-.25 2.293-.25.809 0 1.426.125 2.852.558 1.305.375 1.984.496 2.73.496.805 0 1.301-.12 2.914-.617 1.489-.558 2.11-.683 2.852-.683.746-.063 1.242.062 2.172.37.617.188 1.734.622 2.418.993.742.312 1.922.992 2.601 1.488.746.434 1.926 1.305 2.543 1.86.621.558 1.614 1.55 2.172 2.234.559.617 1.363 1.55 1.735 2.11.433.558.992 1.425 1.367 1.921.308.559.929 1.61 1.363 2.356.434.804 1.117 2.23 1.551 3.16.433.996 1.113 2.73 1.551 3.969.371 1.242.867 2.914.992 3.722.183.867.371 2.11.433 2.79.063.683.121 1.921.121 2.788 0 .871-.058 2.297-.183 3.04-.125.808-.313 1.984-.496 2.605-.125.62-.434 1.613-.621 2.11-.246.558-.621 1.488-.868 1.984-.25.558-.804 1.425-1.179 1.984-.371.558-1.18 1.55-1.797 2.168-.621.621-1.488 1.363-1.984 1.676-.497.37-1.364.867-1.985 1.113-.621.313-1.676.746-2.355.934-.684.183-1.864.37-2.731.496-1.3.121-1.61.121-2.543-.063-.554-.125-1.488-.496-2.105-.808-.559-.246-1.801-.993-2.73-1.547-.868-.621-1.923-1.243-2.294-1.426-.433-.125-.867-.313-1.054-.375-.371-.121-.371-.063-.621 1.242a19 19 0 0 1-.743 2.852c-.25.867-.683 2.047-.992 2.668-.312.617-.867 1.672-1.3 2.293-.376.621-.993 1.425-1.305 1.796-.371.309-.93.805-1.239 1.118-.375.246-.808.558-1.054.679a2 2 0 0 1-.621.188c-.125 0-.434-.121-.742-.246m12.71-6.512c-.312-.125-.93-.434-1.425-.742-.497-.25-.872-.563-.872-.684 0-.125 0-.187.063-.187 0 0 .375.187.809.496.37.25 1.113.621 1.55.871.434.246.68.434.618.434-.125 0-.434-.125-.743-.188M68.7 84.285c-.187-.375-.433-1.426-.62-2.234-.184-.805-.434-2.106-.497-2.79a42 42 0 0 1-.121-2.85c0-.872.058-2.235.183-3.102s.372-2.106.56-2.852a31 31 0 0 1 .683-2.172c.183-.558.558-1.363.804-1.86.25-.495.868-1.487 1.301-2.167.496-.684 1.489-1.922 2.235-2.668.68-.746 1.796-1.8 2.48-2.235.621-.496 1.734-1.175 2.418-1.546.742-.375 1.363-.621 1.613-.559.246 0 .121.246-1.488 1.797-.992.992-2.297 2.418-2.914 3.101-.559.743-1.43 1.922-1.863 2.606a16.6 16.6 0 0 0-1.426 2.414c-.309.621-.805 1.8-1.117 2.605a33 33 0 0 0-.805 3.102c-.184.867-.371 2.356-.496 3.16-.063.871-.125 2.98-.125 4.715s-.059 3.41-.121 3.719c0 .312-.125.558-.188.558s-.308-.308-.496-.742"/><path fill="#8a0" d="M100.695 115.41a19 19 0 0 0-2.047-1.426c-.496-.246-1.363-.496-1.921-.617a26 26 0 0 0-2.606-.375c-.805-.121-1.797-.371-2.168-.496a4.7 4.7 0 0 1-1.305-.867c-.308-.309-.742-.93-.992-1.363-.246-.434-.554-1.118-.68-1.614-.124-.433-.25-1.238-.25-1.922 0-.558.126-1.363.188-1.671l.434-1.305.308-.617 1.242.679c.684.372 1.614.747 2.047.868.371.125 1.489.312 2.356.433.93.063 1.922.25 2.293.375.375.063.93.246 1.242.434a5.2 5.2 0 0 1 1.117.804c.184.309.555.747.68 1.055.125.246.371.93.558 1.426.188.559.372 1.551.497 2.297.125.742.25 2.105.308 3.16 0 .992.063 1.801 0 1.801 0 0-.617-.5-1.301-1.059m5.582-59.523-.746-.809.809.746.805.805-.063.062z"/><path fill="#a7410e" d="M140.41 108.469c-.308-.125-.621-.313-.68-.313-.062 0 .559-.679 1.364-1.488.804-.805 1.797-1.859 2.23-2.48.438-.555 1.117-1.61 1.489-2.293.312-.68.746-1.797.992-2.418.187-.684.375-1.797.433-2.418 0-.684.125-1.243.25-1.301.063-.063.559-.125 1.055-.125.742 0 .93.062.992.246.063.125 0 .746-.125 1.426-.125.62-.433 1.86-.746 2.668-.246.867-.68 2.047-.988 2.668-.313.617-.871 1.672-1.305 2.293-.371.621-.992 1.425-1.301 1.796-.371.309-.929.805-1.242 1.118-.371.246-.805.558-1.051.679-.25.125-.558.188-.621.188-.125 0-.433-.121-.746-.246m17.735-8.371h.746c.246.058.062.058-.371.058-.375 0-.559 0-.375-.058m-20.832-40.492c.433-.372.804-.747.804-.747.063 0-.25.375-.683.746-.371.434-.743.805-.805.805s.25-.37.684-.804m-7.567-1.614c.371-.433.742-.804.805-.804.062 0-.246.37-.68.804-.433.371-.808.746-.808.746-.059 0 .25-.375.683-.746"/><path fill="red" d="M156.348 99.723c-.559-.184-1.243-.434-1.426-.559-.25-.121-1.305-.742-2.293-1.426-1.055-.617-2.297-1.363-2.793-1.61-.805-.37-.992-.37-2.418-.37-1.238 0-1.676.058-2.605.37-.555.184-2.231.868-3.594 1.552-1.43.617-3.039 1.3-3.598 1.484-.558.188-1.488.438-2.109.496-.93.125-1.301.125-2.231-.058-.621-.125-1.738-.496-2.48-.809-.746-.246-1.797-.742-2.293-1.055-.496-.308-1.305-.804-1.676-1.113-.434-.371-1.117-.992-1.613-1.488s-1.114-1.301-1.489-1.797c-.308-.496-.804-1.43-1.117-2.05-.308-.556-.742-1.548-.929-2.169-.184-.621-.496-1.676-.618-2.418-.187-.742-.375-2.047-.433-2.914-.125-.93-.125-2.355-.063-3.473.063-1.054.184-2.605.309-3.41.062-.808.371-2.172.559-3.039.183-.867.621-2.48.992-3.656.371-1.117 1.175-2.98 1.734-4.094a42 42 0 0 1 1.926-3.535 67 67 0 0 1 1.797-2.48 72 72 0 0 1 2.355-2.48c.805-.806 1.985-1.798 2.543-2.169.559-.437 1.363-.934 1.797-1.18.434-.187 1.426-.62 2.234-.867.743-.25 1.985-.558 2.789-.683.868-.125 1.735-.188 2.481-.125.684 0 1.613.25 2.48.496 1.055.312 1.614.433 2.543.433 1.055.063 1.301 0 3.102-.617 1.426-.558 2.105-.683 2.727-.683.496 0 1.3.125 1.859.308.558.125 1.488.496 2.109.746.621.309 1.672.805 2.293 1.18.684.434 1.676 1.113 2.293 1.61.621.433 1.613 1.363 2.235 1.984.621.62 1.55 1.613 2.046 2.23.497.621 1.301 1.738 1.797 2.422.434.742 1.18 1.984 1.614 2.727.433.746 1.117 2.109 1.55 3.039.371.867.993 2.48 1.364 3.472s.804 2.418.992 3.223c.187.746.433 1.926.558 2.668.063.683.188 2.047.247 2.977.062.992.062 2.355-.059 3.285-.066.87-.313 2.171-.438 2.855-.121.68-.433 1.797-.679 2.414-.188.684-.621 1.676-.93 2.297-.312.621-.871 1.55-1.242 2.11s-1.055 1.425-1.613 1.984c-.555.496-1.301 1.238-1.797 1.547-.434.312-1.301.87-1.922 1.18s-1.551.68-2.11.867c-.496.187-1.425.37-1.984.496-.617.125-1.672.25-2.418.187-1.055 0-1.551-.062-2.355-.312m-27.903-15.254c-.187-.434-.496-1.238-.621-1.86-.187-.62-.371-1.796-.496-2.543-.125-.804-.187-2.418-.187-3.53 0-1.243.062-2.794.187-3.536.125-.746.309-1.86.496-2.48.125-.622.496-1.739.805-2.48.312-.747.867-1.923 1.305-2.606.433-.743 1.113-1.735 1.546-2.356a66 66 0 0 1 1.985-2.11c.621-.62 1.676-1.488 2.297-1.984.679-.433 1.609-1.054 2.168-1.3.558-.25 1.117-.496 1.367-.496.246-.063.371-.063.371.062 0 .063-.992 1.113-2.109 2.293a80 80 0 0 0-2.914 3.102 43 43 0 0 1-1.489 2.046c-.371.555-.992 1.672-1.363 2.418a30 30 0 0 0-1.117 2.606c-.188.68-.559 1.734-.684 2.355-.121.618-.371 1.735-.496 2.54-.121.93-.246 2.855-.246 5.519-.062 2.297-.125 4.34-.125 4.59-.062.25-.121.496-.184.496-.125 0-.312-.371-.496-.746"/><path d="M160.875 119.195c-.312-.062-1.055-.558-1.676-1.117-.621-.496-1.426-1.113-1.734-1.363-.434-.313-.93-.496-1.676-.621-.559-.063-1.859-.309-2.851-.434-1.489-.25-1.985-.371-2.915-.867-.808-.371-1.304-.746-1.921-1.426-.438-.496-1.055-1.304-1.368-1.922-.308-.621-.617-1.367-.742-1.613l-.125-.496-.929.684c-.559.371-1.489.929-2.11 1.238-1.051.496-1.238.558-1.859.433-.371 0-1.239-.308-1.922-.558-.867-.371-1.363-.68-1.734-1.113-.313-.313-.622-.809-.684-1.118-.125-.375-.125-.871-.063-1.179 0-.309.188-.805.372-1.055.125-.309.621-.805 1.054-1.176a14 14 0 0 0 1.863-1.676c.555-.558 1.364-1.488 1.735-2.046.371-.555.68-1.051.621-1.118 0 0-.809.313-1.738.746-.993.372-2.293.868-2.914 1.055-.868.188-1.551.309-2.852.309-1.488 0-1.922-.063-3.039-.371-.684-.246-1.859-.621-2.543-.93-.68-.309-1.734-.867-2.293-1.242-.621-.309-1.676-1.113-2.355-1.672-.747-.621-1.676-1.55-2.11-2.11a25 25 0 0 1-1.426-1.796c-.308-.497-.804-1.426-1.179-2.11-.309-.683-.805-1.738-1.051-2.418-.25-.683-.559-1.984-.746-2.914-.188-.93-.434-2.543-.496-3.66-.125-1.488-.125-2.48 0-4.215.062-1.18.246-2.914.433-3.843.125-.93.434-2.297.621-3.04.188-.746.559-2.047.805-2.851.313-.871.809-2.172 1.117-2.977.309-.808.93-2.11 1.364-2.851.371-.809 1.117-2.047 1.613-2.793.496-.742 1.363-1.985 1.984-2.727.621-.746 1.735-1.984 2.543-2.73a27 27 0 0 1 2.664-2.293c.684-.559 1.864-1.242 2.606-1.676.804-.371 1.859-.805 2.48-.992.621-.246 1.672-.496 2.356-.68.683-.125 2.047-.312 3.039-.312 1.676-.063 1.922-.063 3.164.312.742.184 1.734.434 2.168.559l.746.246 2.23-.742c1.985-.684 2.293-.746 3.473-.746 1.117 0 1.551.062 2.914.433.992.313 2.356.867 3.598 1.488 1.054.559 2.543 1.426 3.285 1.922.742.559 2.172 1.801 3.223 2.856 1.054 1.05 2.359 2.418 2.793 3.035.433.621 1.238 1.738 1.734 2.48.496.746 1.242 2.047 1.676 2.793.433.743 1.117 2.23 1.55 3.223.497 1.055 1.118 2.668 1.489 3.723.371.992.804 2.601 1.054 3.468.184.93.497 2.422.618 3.29.125.992.25 2.48.25 3.968 0 1.61-.063 2.914-.25 3.969-.121.805-.371 2.105-.555 2.789-.188.742-.559 1.734-.746 2.293-.188.496-.684 1.55-1.055 2.297a24 24 0 0 1-1.488 2.48c-.496.618-1.176 1.489-1.61 1.922a12.5 12.5 0 0 1-1.613 1.489c-.433.37-1.363 1.05-2.047 1.425-.683.434-1.859 1.055-2.668 1.364-.804.308-2.168.683-3.039.867-.867.187-1.859.312-2.23.375h-.621l.746.371c.433.183 1.176.742 1.672 1.238.558.559 1.117 1.305 1.425 1.859.25.559.622 1.426.747 1.989.187.617.371 1.797.496 2.789.125.93.246 2.48.308 3.41.063 1.113.063 1.922-.062 2.293-.059.312-.309.809-.492 1.055-.125.25-.563.621-.872.746-.308.183-.804.371-1.117.371-.371.062-.867 0-1.113-.063m-.496-3.785a19 19 0 0 0-2.047-1.426c-.496-.246-1.363-.496-1.922-.617a26 26 0 0 0-2.605-.375c-.805-.121-1.797-.371-2.168-.496a4.7 4.7 0 0 1-1.305-.867c-.309-.309-.742-.93-.992-1.363-.246-.434-.559-1.118-.68-1.614-.125-.433-.25-1.238-.25-1.922 0-.558.125-1.363.188-1.671.121-.375.308-.93.433-1.305l.309-.617 1.242.679c.68.372 1.609.747 2.047.868.371.125 1.484.312 2.355.433.93.063 1.922.25 2.293.375.371.063.93.246 1.243.434.371.183.867.558 1.113.804.187.309.558.747.683 1.055.125.246.372.93.559 1.426.184.559.371 1.551.496 2.297.121.742.246 2.105.309 3.16 0 .992.062 1.801 0 1.801 0 0-.621-.5-1.301-1.059m-19.969-6.941c-.308-.125-.621-.313-.68-.313-.062 0 .559-.679 1.364-1.488.804-.805 1.797-1.859 2.23-2.48.438-.555 1.117-1.61 1.489-2.293.312-.68.746-1.797.992-2.418a17 17 0 0 0 .433-2.48c.063-.93 0-1.18-.121-1.18-.062 0-.683.187-1.363.374-.621.246-1.863.743-2.668 1.114-.867.433-2.172.992-2.914 1.304-.809.309-1.984.743-2.606.93-.992.246-1.488.246-2.355.184-.684 0-1.551-.184-2.418-.496-.746-.246-1.859-.743-2.543-1.051-.684-.375-1.734-.992-2.293-1.43-.559-.433-1.426-1.176-1.801-1.672-.433-.433-1.117-1.238-1.488-1.797s-.867-1.367-1.055-1.8a24 24 0 0 1-.867-2.047 68 68 0 0 1-.68-2.477 18 18 0 0 1-.433-2.297c-.063-.558-.125-2.293-.063-3.781 0-1.613.121-3.41.246-4.219.125-.804.434-2.293.684-3.222.246-.993.68-2.543.93-3.348.308-.867.804-2.234 1.175-2.977.313-.808.997-2.046 1.43-2.851.496-.809 1.238-1.985 1.735-2.668a30 30 0 0 1 1.796-2.297c.497-.617 1.489-1.672 2.172-2.23.684-.622 1.676-1.364 2.11-1.735.433-.312 1.3-.809 1.922-1.117.621-.309 1.613-.684 2.23-.93a31 31 0 0 1 2.297-.558c.68-.125 1.672-.25 2.293-.25.805 0 1.426.125 2.851.558 1.301.375 1.985.496 2.731.496.805 0 1.301-.12 2.914-.617 1.488-.558 2.105-.683 2.852-.683.742-.063 1.238.062 2.167.37.622.188 1.739.622 2.422.993.743.312 1.922.992 2.602 1.488.746.434 1.922 1.305 2.543 1.86.621.558 1.613 1.55 2.172 2.234.558.617 1.363 1.55 1.734 2.11.434.558.992 1.425 1.363 1.921.313.559.93 1.61 1.368 2.356.433.804 1.113 2.23 1.546 3.16.434.996 1.118 2.73 1.551 3.969.375 1.242.871 2.914.992 3.722.188.867.372 2.11.438 2.79.059.683.121 1.921.121 2.788 0 .871-.062 2.297-.187 3.04-.122.808-.309 1.984-.493 2.605-.125.62-.437 1.613-.621 2.11-.25.558-.621 1.488-.867 1.984-.25.558-.809 1.425-1.18 1.984s-1.179 1.55-1.796 2.168c-.622.621-1.489 1.363-1.985 1.676-.496.37-1.363.867-1.984 1.113-.621.313-1.676.746-2.36.934-.679.183-1.859.37-2.726.496-1.301.121-1.613.121-2.543-.063-.559-.125-1.488-.496-2.11-.808-.554-.246-1.796-.993-2.726-1.547-.867-.621-1.922-1.243-2.293-1.426-.434-.125-.871-.313-1.055-.375-.371-.121-.371-.063-.621 1.242a19 19 0 0 1-.746 2.852c-.246.867-.68 2.047-.988 2.668-.313.617-.871 1.672-1.305 2.293-.371.621-.992 1.425-1.301 1.796-.371.309-.929.805-1.242 1.118-.371.246-.805.558-1.051.679-.25.125-.558.188-.621.188-.125 0-.433-.121-.746-.246m12.711-6.512c-.308-.125-.93-.434-1.426-.742-.496-.25-.867-.563-.867-.684 0-.125 0-.187.063-.187 0 0 .371.187.804.496.375.25 1.118.621 1.551.871.434.246.684.434.621.434-.125 0-.433-.125-.746-.188m-24.738-17.672c-.188-.375-.434-1.426-.621-2.234-.188-.805-.434-2.106-.496-2.79a41 41 0 0 1-.125-2.85c0-.872.062-2.235.187-3.102s.371-2.106.559-2.852a31 31 0 0 1 .679-2.172c.188-.558.559-1.363.809-1.86.246-.495.867-1.487 1.301-2.167.496-.684 1.488-1.922 2.234-2.668.68-.746 1.797-1.8 2.481-2.235.617-.496 1.734-1.175 2.418-1.546.742-.375 1.363-.621 1.609-.559.25 0 .125.246-1.488 1.797-.992.992-2.293 2.418-2.914 3.101-.555.743-1.426 1.922-1.86 2.606-.496.68-1.117 1.734-1.426 2.414-.308.621-.804 1.8-1.117 2.605a32 32 0 0 0-.804 3.102c-.188.867-.371 2.356-.496 3.16-.063.871-.125 2.98-.125 4.715s-.063 3.41-.125 3.719c0 .312-.122.558-.184.558-.063 0-.313-.308-.496-.742"/><path fill="#8a0" d="M160.379 115.41a19 19 0 0 0-2.047-1.426c-.496-.246-1.363-.496-1.922-.617a26 26 0 0 0-2.605-.375c-.805-.121-1.797-.371-2.168-.496a4.7 4.7 0 0 1-1.305-.867c-.309-.309-.742-.93-.992-1.363-.246-.434-.559-1.118-.68-1.614-.125-.433-.25-1.238-.25-1.922 0-.558.125-1.363.188-1.671.121-.375.308-.93.433-1.305l.309-.617 1.242.679c.68.372 1.609.747 2.047.868.371.125 1.484.312 2.355.433.93.063 1.922.25 2.293.375.371.063.93.246 1.243.434.371.183.867.558 1.113.804.187.309.558.747.683 1.055.125.246.372.93.559 1.426.184.559.371 1.551.496 2.297.121.742.246 2.105.309 3.16 0 .992.062 1.801 0 1.801 0 0-.621-.5-1.301-1.059m5.582-59.523-.746-.809.805.746c.433.434.808.805.808.805l-.062.062z"/></g><path fill="#79ac14" d="M219.676 98.48c1.949 3.368 4.605 7.266 6.554 9.747 0 .707-.175 1.418-.175 2.3-.707 3.543-3.719 6.203-6.91 5.672-3.188-.531-5.317-3.898-4.606-7.621.176-1.594 1.418-5.312 2.832-9.035.711-.176 1.598-.531 2.305-1.062"/><path fill="none" stroke="#000" stroke-linecap="round" stroke-linejoin="round" stroke-width="2.25" d="M219.676 98.48c1.949 3.368 4.605 7.266 6.554 9.747 0 .707-.175 1.418-.175 2.3-.707 3.543-3.719 6.203-6.91 5.672-3.188-.531-5.317-3.898-4.606-7.621.176-1.594 1.418-5.312 2.832-9.035.711-.176 1.598-.531 2.305-1.062"/><path fill="#79ac14" d="M224.461 93.7c3.363 1.948 7.262 4.605 9.742 6.554.711 0 1.418-.18 2.305-.18 3.543-.707 6.199-3.718 5.668-6.906-.531-3.191-3.899-5.137-7.617-4.61-1.594.18-5.317 1.419-9.036 2.836-.175.708-.531 1.594-1.062 2.305"/><path fill="none" stroke="#000" stroke-linecap="round" stroke-linejoin="round" stroke-width="2.25" d="M224.461 93.7c3.363 1.948 7.262 4.605 9.742 6.554.711 0 1.418-.18 2.305-.18 3.543-.707 6.199-3.718 5.668-6.906-.531-3.191-3.899-5.137-7.617-4.61-1.594.18-5.317 1.419-9.036 2.836-.175.708-.531 1.594-1.062 2.305"/><path fill="#a4cd34" d="M222.336 96.356a7.9 7.9 0 0 0 2.125-2.657c4.43 2.301 9.922 6.375 11.516 7.973 2.656 2.656 2.836 6.555.531 8.855-2.125 2.305-6.199 1.95-8.86-.531-1.593-1.594-5.492-7.086-7.972-11.515a7.9 7.9 0 0 0 2.66-2.125"/><path fill="none" stroke="#000" stroke-linecap="round" stroke-linejoin="round" stroke-width="2.25" d="M222.336 96.356a7.9 7.9 0 0 0 2.125-2.657c4.43 2.301 9.922 6.375 11.516 7.973 2.656 2.656 2.836 6.555.531 8.855-2.125 2.305-6.199 1.95-8.86-.531-1.593-1.594-5.492-7.086-7.972-11.515a7.9 7.9 0 0 0 2.66-2.125"/><path fill="#f26d21" d="M222.336 96.356c-5.492 5.492-14.527 5.136-20.199-.708-8.86-8.859-29.231-35.613-22.676-42.167s33.305 13.82 42.164 22.68c5.848 5.843 6.199 14.702.711 20.195"/><path fill="#ce5c1c" d="M222.336 96.356c2.301-5.137 1.062-11.692-3.367-16.122-8.328-8.328-32.422-26.574-40.75-23.562 0-1.418.355-2.48 1.242-3.191 6.555-6.555 33.305 13.82 42.164 22.68 5.848 5.667 6.199 14.702.711 20.195"/><g fill="none" stroke="#000" stroke-linecap="round" stroke-linejoin="round" stroke-width="2.25"><path d="M220.563 74.918s-5.317 1.773-10.629 7.086m-10.454-5.668s-3.367 3.012-6.91 7.973m20.551-15.59s-4.43 1.238-7.262 4.074m1.414-8.328s-4.605.887-9.386 5.672m-12.227 3.719s1.949-3.72 5.848-6.91m6.555 24.273s1.062-3.188 4.074-6.203m-15.414-26.043s2.48-2.832 5.492-4.075m38.269 49.606-8.148-8.148m-1.773 11.339 1.062-6.023m12.047-7.086-6.024 1.062"/><path d="M222.336 96.356c-5.492 5.492-14.527 5.136-20.199-.708-8.86-8.859-29.231-35.613-22.676-42.167s33.305 13.82 42.164 22.68c5.848 5.843 6.199 14.702.711 20.195"/></g><path fill="#79ac14" d="M257.641 98.48c1.949 3.368 4.605 7.266 6.554 9.747 0 .707-.175 1.418-.175 2.3-.707 3.543-3.719 6.203-6.911 5.672-3.187-.531-5.312-3.898-4.605-7.621.176-1.594 1.418-5.312 2.836-9.035.707-.176 1.594-.531 2.301-1.062"/><path fill="none" stroke="#000" stroke-linecap="round" stroke-linejoin="round" stroke-width="2.25" d="M257.641 98.48c1.949 3.368 4.605 7.266 6.554 9.747 0 .707-.175 1.418-.175 2.3-.707 3.543-3.719 6.203-6.911 5.672-3.187-.531-5.312-3.898-4.605-7.621.176-1.594 1.418-5.312 2.836-9.035.707-.176 1.594-.531 2.301-1.062"/><path fill="#79ac14" d="M262.426 93.7c3.363 1.948 7.262 4.605 9.742 6.554.711 0 1.418-.18 2.305-.18 3.543-.707 6.199-3.718 5.668-6.906-.532-3.191-3.899-5.137-7.618-4.61-1.593.18-5.312 1.419-9.035 2.836-.175.708-.531 1.594-1.062 2.305"/><path fill="none" stroke="#000" stroke-linecap="round" stroke-linejoin="round" stroke-width="2.25" d="M262.426 93.7c3.363 1.948 7.262 4.605 9.742 6.554.711 0 1.418-.18 2.305-.18 3.543-.707 6.199-3.718 5.668-6.906-.532-3.191-3.899-5.137-7.618-4.61-1.593.18-5.312 1.419-9.035 2.836-.175.708-.531 1.594-1.062 2.305"/><path fill="#a4cd34" d="M260.301 96.356a7.9 7.9 0 0 0 2.125-2.657c4.429 2.301 9.922 6.375 11.515 7.973 2.657 2.656 2.832 6.555.532 8.855-2.125 2.305-6.203 1.95-8.86-.531-1.593-1.594-5.492-7.086-7.972-11.515a7.9 7.9 0 0 0 2.66-2.125"/><path fill="none" stroke="#000" stroke-linecap="round" stroke-linejoin="round" stroke-width="2.25" d="M260.301 96.356a7.9 7.9 0 0 0 2.125-2.657c4.429 2.301 9.922 6.375 11.515 7.973 2.657 2.656 2.832 6.555.532 8.855-2.125 2.305-6.203 1.95-8.86-.531-1.593-1.594-5.492-7.086-7.972-11.515a7.9 7.9 0 0 0 2.66-2.125"/><path fill="#f26d21" d="M260.301 96.356c-5.492 5.492-14.531 5.136-20.199-.708-8.86-8.859-29.231-35.613-22.676-42.167 6.554-6.555 33.304 13.82 42.164 22.68 5.848 5.843 6.199 14.702.711 20.195"/><path fill="#ce5c1c" d="M260.301 96.356c2.301-5.137 1.062-11.692-3.367-16.122-8.329-8.328-32.422-26.574-40.75-23.562 0-1.418.355-2.48 1.242-3.191 6.554-6.555 33.304 13.82 42.164 22.68 5.848 5.667 6.199 14.702.711 20.195"/><g fill="none" stroke="#000" stroke-linecap="round" stroke-linejoin="round" stroke-width="2.25"><path d="M258.527 74.918s-5.312 1.773-10.629 7.086m-10.453-5.668s-3.367 3.012-6.91 7.973m20.551-15.59s-4.43 1.238-7.262 4.074m1.414-8.328s-4.605.887-9.386 5.672m-12.227 3.719s1.949-3.72 5.848-6.91m6.554 24.273s1.063-3.188 4.075-6.203m-15.414-26.043s2.48-2.832 5.492-4.075m38.269 49.606-8.148-8.148m-1.774 11.339 1.063-6.023m12.047-7.086-6.024 1.062"/><path d="M260.301 96.356c-5.492 5.492-14.531 5.136-20.199-.708-8.86-8.859-29.231-35.613-22.676-42.167 6.554-6.555 33.304 13.82 42.164 22.68 5.848 5.843 6.199 14.702.711 20.195"/></g><path fill="#bc9a16" d="M1 86.04c0-68.6 90.55-70.869 170.078-70.869 79.527 0 170.078 2.27 170.078 70.867 0-15.656-76.144-28.348-170.078-28.348C77.148 57.691 1 70.383 1 86.04"/><path fill="none" stroke="#000" stroke-linecap="round" stroke-linejoin="round" stroke-width="2" d="M1 86.04c0-68.6 90.55-70.869 170.078-70.869 79.527 0 170.078 2.27 170.078 70.867 0-15.656-76.144-28.348-170.078-28.348C77.148 57.691 1 70.383 1 86.04"/><path fill="#d3ae37" d="M908.086 86.04c0 15.655-76.145 28.347-170.078 28.347S567.93 101.695 567.93 86.039s76.144-28.348 170.078-28.348S908.086 70.383 908.086 86.04"/><path fill="none" stroke="#000" stroke-linecap="round" stroke-linejoin="round" stroke-width="2" d="M908.086 86.04c0 15.655-76.145 28.347-170.078 28.347S567.93 101.695 567.93 86.039s76.144-28.348 170.078-28.348S908.086 70.383 908.086 86.04M738.008 312.809l161.41-217.813m-161.41 217.813L684.25 112.941m53.758 199.868L586.914 73.012m151.094 239.797v19.843"/><path fill="#79ac14" d="M709.762 96.59c1.949 3.367 4.605 7.265 6.554 9.746 0 .707-.179 1.414-.179 2.301-.707 3.543-3.719 6.203-6.907 5.668-3.191-.532-5.316-3.895-4.609-7.617.18-1.594 1.418-5.313 2.836-9.036.711-.175 1.594-.53 2.305-1.062"/><path fill="none" stroke="#000" stroke-linecap="round" stroke-linejoin="round" stroke-width="2.25" d="M709.762 96.59c1.949 3.367 4.605 7.265 6.554 9.746 0 .707-.179 1.414-.179 2.301-.707 3.543-3.719 6.203-6.907 5.668-3.191-.532-5.316-3.895-4.609-7.617.18-1.594 1.418-5.313 2.836-9.036.711-.175 1.594-.53 2.305-1.062"/><path fill="#79ac14" d="M714.543 91.805c3.367 1.949 7.266 4.61 9.746 6.558.707 0 1.414-.18 2.301-.18 3.543-.706 6.203-3.718 5.672-6.906-.532-3.191-3.899-5.14-7.621-4.609-1.594.18-5.313 1.418-9.036 2.836-.175.707-.531 1.594-1.062 2.3"/><path fill="none" stroke="#000" stroke-linecap="round" stroke-linejoin="round" stroke-width="2.25" d="M714.543 91.805c3.367 1.949 7.266 4.61 9.746 6.558.707 0 1.414-.18 2.301-.18 3.543-.706 6.203-3.718 5.672-6.906-.532-3.191-3.899-5.14-7.621-4.609-1.594.18-5.313 1.418-9.036 2.836-.175.707-.531 1.594-1.062 2.3"/><path fill="#a4cd34" d="M712.418 94.465a7.8 7.8 0 0 0 2.125-2.66c4.43 2.304 9.922 6.379 11.516 7.976 2.66 2.657 2.836 6.555.531 8.856-2.125 2.304-6.199 1.949-8.856-.532-1.597-1.593-5.492-7.085-7.972-11.515a7.9 7.9 0 0 0 2.656-2.125"/><path fill="none" stroke="#000" stroke-linecap="round" stroke-linejoin="round" stroke-width="2.25" d="M712.418 94.465a7.8 7.8 0 0 0 2.125-2.66c4.43 2.304 9.922 6.379 11.516 7.976 2.66 2.657 2.836 6.555.531 8.856-2.125 2.304-6.199 1.949-8.856-.532-1.597-1.593-5.492-7.085-7.972-11.515a7.9 7.9 0 0 0 2.656-2.125"/><path fill="#f26d21" d="M712.418 94.465c-5.492 5.492-14.527 5.137-20.195-.711-8.86-8.856-29.235-35.61-22.68-42.164s33.309 13.82 42.168 22.68c5.844 5.843 6.199 14.703.707 20.195"/><path fill="#ce5c1c" d="M712.418 94.465c2.305-5.137 1.062-11.692-3.367-16.121-8.324-8.328-32.422-26.574-40.746-23.563 0-1.418.351-2.484 1.238-3.191 6.555-6.555 33.309 13.82 42.168 22.68 5.844 5.668 6.199 14.703.707 20.195"/><g fill="none" stroke="#000" stroke-linecap="round" stroke-linejoin="round" stroke-width="2.25"><path d="M710.645 73.027s-5.313 1.77-10.629 7.086m-10.453-5.668s-3.368 3.012-6.911 7.973m20.551-15.59s-4.426 1.238-7.262 4.074m1.418-8.328s-4.605.887-9.39 5.668m-12.223 3.723s1.945-3.723 5.844-6.91m6.555 24.273s1.066-3.191 4.078-6.203m-15.414-26.043s2.48-2.836 5.492-4.074m38.265 49.605-8.148-8.148m-1.773 11.34 1.066-6.024m12.047-7.09-6.024 1.063"/><path d="M712.418 94.465c-5.492 5.492-14.527 5.137-20.195-.711-8.86-8.856-29.235-35.61-22.68-42.164s33.309 13.82 42.168 22.68c5.844 5.843 6.199 14.703.707 20.195"/></g><path fill="#79ac14" d="M747.727 96.59c1.949 3.367 4.605 7.265 6.554 9.746 0 .707-.179 1.414-.179 2.301-.707 3.543-3.719 6.203-6.907 5.668-3.191-.532-5.316-3.895-4.605-7.617.176-1.594 1.414-5.313 2.832-9.036.711-.175 1.594-.53 2.305-1.062"/><path fill="none" stroke="#000" stroke-linecap="round" stroke-linejoin="round" stroke-width="2.25" d="M747.727 96.59c1.949 3.367 4.605 7.265 6.554 9.746 0 .707-.179 1.414-.179 2.301-.707 3.543-3.719 6.203-6.907 5.668-3.191-.532-5.316-3.895-4.605-7.617.176-1.594 1.414-5.313 2.832-9.036.711-.175 1.594-.53 2.305-1.062"/><path fill="#79ac14" d="M752.508 91.805c3.367 1.949 7.265 4.61 9.746 6.558.707 0 1.418-.18 2.301-.18 3.543-.706 6.203-3.718 5.672-6.906-.532-3.191-3.899-5.14-7.622-4.609-1.593.18-5.312 1.418-9.035 2.836-.175.707-.531 1.594-1.062 2.3"/><path fill="none" stroke="#000" stroke-linecap="round" stroke-linejoin="round" stroke-width="2.25" d="M752.508 91.805c3.367 1.949 7.265 4.61 9.746 6.558.707 0 1.418-.18 2.301-.18 3.543-.706 6.203-3.718 5.672-6.906-.532-3.191-3.899-5.14-7.622-4.609-1.593.18-5.312 1.418-9.035 2.836-.175.707-.531 1.594-1.062 2.3"/><path fill="#a4cd34" d="M750.383 94.465a7.8 7.8 0 0 0 2.125-2.66c4.43 2.304 9.922 6.379 11.515 7.976 2.661 2.657 2.836 6.555.532 8.856-2.125 2.304-6.2 1.949-8.856-.532-1.597-1.593-5.492-7.085-7.972-11.515a7.9 7.9 0 0 0 2.656-2.125"/><path fill="none" stroke="#000" stroke-linecap="round" stroke-linejoin="round" stroke-width="2.25" d="M750.383 94.465a7.8 7.8 0 0 0 2.125-2.66c4.43 2.304 9.922 6.379 11.515 7.976 2.661 2.657 2.836 6.555.532 8.856-2.125 2.304-6.2 1.949-8.856-.532-1.597-1.593-5.492-7.085-7.972-11.515a7.9 7.9 0 0 0 2.656-2.125"/><path fill="#f26d21" d="M750.383 94.465c-5.492 5.492-14.528 5.137-20.195-.711-8.86-8.856-29.235-35.61-22.68-42.164s33.308 13.82 42.168 22.68c5.844 5.843 6.199 14.703.707 20.195"/><path fill="#ce5c1c" d="M750.383 94.465c2.305-5.137 1.062-11.692-3.367-16.121-8.325-8.328-32.422-26.574-40.746-23.563 0-1.418.351-2.484 1.238-3.191 6.555-6.555 33.308 13.82 42.168 22.68 5.844 5.668 6.199 14.703.707 20.195"/><g fill="none" stroke="#000" stroke-linecap="round" stroke-linejoin="round" stroke-width="2.25"><path d="M748.609 73.027s-5.312 1.77-10.629 7.086m-10.453-5.668s-3.363 3.012-6.91 7.973m20.555-15.59s-4.43 1.238-7.266 4.074m1.418-8.328s-4.605.887-9.39 5.668m-12.223 3.723s1.949-3.723 5.844-6.91m6.554 24.273s1.067-3.191 4.079-6.203m-15.415-26.043s2.481-2.836 5.493-4.074m38.265 49.605-8.148-8.148m-1.774 11.34 1.067-6.024m12.047-7.09-6.024 1.063"/><path d="M750.383 94.465c-5.492 5.492-14.528 5.137-20.195-.711-8.86-8.856-29.235-35.61-22.68-42.164s33.308 13.82 42.168 22.68c5.844 5.843 6.199 14.703.707 20.195"/></g><path fill="#79ac14" d="M785.691 96.59c1.95 3.367 4.606 7.265 6.555 9.746 0 .707-.18 1.414-.18 2.301-.707 3.543-3.718 6.203-6.906 5.668-3.191-.532-5.316-3.895-4.609-7.617.179-1.594 1.418-5.313 2.836-9.036.711-.175 1.593-.53 2.304-1.062"/><path fill="none" stroke="#000" stroke-linecap="round" stroke-linejoin="round" stroke-width="2.25" d="M785.691 96.59c1.95 3.367 4.606 7.265 6.555 9.746 0 .707-.18 1.414-.18 2.301-.707 3.543-3.718 6.203-6.906 5.668-3.191-.532-5.316-3.895-4.609-7.617.179-1.594 1.418-5.313 2.836-9.036.711-.175 1.593-.53 2.304-1.062"/><path fill="#79ac14" d="M790.473 91.805c3.367 1.949 7.265 4.61 9.746 6.558.707 0 1.418-.18 2.301-.18 3.543-.706 6.203-3.718 5.671-6.906-.531-3.191-3.898-5.14-7.621-4.609-1.593.18-5.312 1.418-9.035 2.836-.176.707-.531 1.594-1.062 2.3"/><path fill="none" stroke="#000" stroke-linecap="round" stroke-linejoin="round" stroke-width="2.25" d="M790.473 91.805c3.367 1.949 7.265 4.61 9.746 6.558.707 0 1.418-.18 2.301-.18 3.543-.706 6.203-3.718 5.671-6.906-.531-3.191-3.898-5.14-7.621-4.609-1.593.18-5.312 1.418-9.035 2.836-.176.707-.531 1.594-1.062 2.3"/><path fill="#a4cd34" d="M788.348 94.465a7.8 7.8 0 0 0 2.125-2.66c4.429 2.304 9.922 6.379 11.515 7.976 2.66 2.657 2.836 6.555.532 8.856-2.125 2.304-6.2 1.949-8.856-.532-1.598-1.593-5.492-7.085-7.973-11.515a7.9 7.9 0 0 0 2.657-2.125"/><path fill="none" stroke="#000" stroke-linecap="round" stroke-linejoin="round" stroke-width="2.25" d="M788.348 94.465a7.8 7.8 0 0 0 2.125-2.66c4.429 2.304 9.922 6.379 11.515 7.976 2.66 2.657 2.836 6.555.532 8.856-2.125 2.304-6.2 1.949-8.856-.532-1.598-1.593-5.492-7.085-7.973-11.515a7.9 7.9 0 0 0 2.657-2.125"/><path fill="#f26d21" d="M788.348 94.465c-5.493 5.492-14.528 5.137-20.196-.711-8.859-8.856-29.234-35.61-22.679-42.164 6.554-6.555 33.308 13.82 42.168 22.68 5.843 5.843 6.199 14.703.707 20.195"/><path fill="#ce5c1c" d="M788.348 94.465c2.304-5.137 1.062-11.692-3.368-16.121-8.324-8.328-32.417-26.574-40.746-23.563 0-1.418.356-2.484 1.239-3.191 6.554-6.555 33.308 13.82 42.168 22.68 5.843 5.668 6.199 14.703.707 20.195"/><g fill="none" stroke="#000" stroke-linecap="round" stroke-linejoin="round" stroke-width="2.25"><path d="M786.574 73.027s-5.312 1.77-10.629 7.086m-10.453-5.668s-3.363 3.012-6.906 7.973m20.551-15.59s-4.43 1.238-7.266 4.074m1.418-8.328s-4.605.887-9.391 5.668m-12.222 3.723s1.945-3.723 5.844-6.91m6.554 24.273s1.067-3.191 4.078-6.203m-15.414-26.043s2.481-2.836 5.492-4.074m38.266 49.605-8.148-8.148m-1.774 11.34 1.067-6.024m12.047-7.09-6.024 1.063"/><path d="M788.348 94.465c-5.493 5.492-14.528 5.137-20.196-.711-8.859-8.856-29.234-35.61-22.679-42.164 6.554-6.555 33.308 13.82 42.168 22.68 5.843 5.843 6.199 14.703.707 20.195"/></g><path fill="#bc9a16" d="M567.93 86.04c0-68.599 90.55-70.868 170.078-70.868 79.527 0 170.078 2.27 170.078 70.867 0-15.656-76.145-28.348-170.078-28.348S567.93 70.383 567.93 86.04"/><path fill="none" stroke="#000" stroke-linecap="round" stroke-linejoin="round" stroke-width="2" d="M567.93 86.04c0-68.599 90.55-70.868 170.078-70.868 79.527 0 170.078 2.27 170.078 70.867 0-15.656-76.145-28.348-170.078-28.348S567.93 70.383 567.93 86.04"/><path fill="#cc9c6f" d="M461.629 332.652c0 3.914-3.172 7.086-7.086 7.086s-7.086-3.172-7.086-7.086 3.172-7.086 7.086-7.086 7.086 3.172 7.086 7.086"/><path fill="none" stroke="#000" stroke-linecap="round" stroke-linejoin="round" stroke-width="2" d="M461.629 332.652c0 3.914-3.172 7.086-7.086 7.086s-7.086-3.172-7.086-7.086 3.172-7.086 7.086-7.086 7.086 3.172 7.086 7.086"/><circle cx="454.543" cy="332.652" r="1"/><path fill="#cc9c6f" d="M440.371 29.344h28.344v340.16h-28.344Z"/><path fill="none" stroke="#000" stroke-linecap="round" stroke-linejoin="round" stroke-width="2" d="M440.371 29.344h28.344v340.16h-28.344z"/><path fill="#cc9c6f" d="M461.629 332.652c0 3.914-3.172 7.086-7.086 7.086s-7.086-3.172-7.086-7.086 3.172-7.086 7.086-7.086 7.086 3.172 7.086 7.086"/><path fill="none" stroke="#000" stroke-linecap="round" stroke-linejoin="round" stroke-width="2" d="M461.629 332.652c0 3.914-3.172 7.086-7.086 7.086s-7.086-3.172-7.086-7.086 3.172-7.086 7.086-7.086 7.086 3.172 7.086 7.086"/><path fill="#cc9c6f" d="M457.379 369.504a20.554 20.554 0 0 1 0 28.344h-5.668a20.543 20.543 0 0 1 0-28.344z"/><path fill="none" stroke="#000" stroke-linecap="round" stroke-linejoin="round" stroke-width="2" d="M457.379 369.504a20.554 20.554 0 0 1 0 28.344h-5.668a20.543 20.543 0 0 1 0-28.344z"/><path fill="#cc9c6f" d="M465.883 409.188c0 6.261-5.078 11.339-11.34 11.339s-11.34-5.078-11.34-11.339 5.078-11.34 11.34-11.34 11.34 5.078 11.34 11.34"/><path fill="none" stroke="#000" stroke-linecap="round" stroke-linejoin="round" stroke-width="2" d="M465.883 409.188c0 6.261-5.078 11.339-11.34 11.339s-11.34-5.078-11.34-11.339 5.078-11.34 11.34-11.34 11.34 5.078 11.34 11.34"/><path fill="#cc9c6f" d="M497.063 1c-13.692 0-22.676 13.621-22.676 28.344h-39.688C434.699 14.62 425.715 1 412.023 1z"/><path fill="none" stroke="#000" stroke-linecap="round" stroke-linejoin="round" stroke-width="2" d="M497.063 1c-13.692 0-22.676 13.621-22.676 28.344h-39.688C434.699 14.62 425.715 1 412.023 1z"/></g></svg>