<svg xmlns="http://www.w3.org/2000/svg" width="1188" height="221pt" viewBox="0 -221 891 221"><g id="page1"><path fill="#b1887b" d="M38.785-33.21v-49.892l85.039 21.543 85.039-58.961 85.039 36.286 85.043-47.621 85.039 36.28 85.039-79.366 85.04 65.761 85.039 24.946 85.039-61.231 85.039 49.89v62.364z"/><path fill="#fff" d="m208.863-120.52-42.519 29.48c24.621 18.423 56.867 3.571 85.043-11.335zm170.082-11.335-42.519 23.808c25.238 18.113 59.347 12.977 85.039-5.668zm170.078-43.086-42.519 39.683c23.934 18.856 56.355 5.938 85.039-6.805zm255.118 29.476-42.52 30.617c27.363 13.762 60.109 12.024 85.039-5.672z"/><path fill="none" stroke="maroon" stroke-linecap="round" stroke-linejoin="round" stroke-width="2" d="M38.785-33.21v-49.892l85.039 21.543 85.039-58.961 85.039 36.286 85.043-47.621 85.039 36.28 85.039-79.366 85.04 65.761 85.039 24.946 85.039-61.231 85.039 49.89v62.364zm85.039 0v-28.35m85.039 28.35v-87.31m85.039 87.31v-51.024m85.043 51.024v-98.645m85.039 98.645v-62.364m85.039 62.364v-141.731m85.04 141.731v-75.97m85.039 75.97v-51.024m85.039 51.024v-112.255M889.18-33.21v-62.364"/><path fill="none" stroke="#000" stroke-linecap="round" stroke-linejoin="round" stroke-width="2" d="M187.605-113.488h42.52"/><path fill="#ff8080" d="M194.691-113.488h28.348v-21.262h-28.348Z"/><path fill="none" stroke="#000" stroke-linecap="round" stroke-linejoin="round" stroke-width="2" d="M194.691-113.488v-21.258h28.348v21.258z"/><path fill="#bfbfbf" d="M191.855-134.746h34.016v-2.836h-34.016Z"/><path fill="none" stroke="#000" stroke-linecap="round" stroke-linejoin="round" stroke-width="2" d="M191.855-134.746v-2.836h34.016v2.836z"/><path fill="maroon" d="M194.691-137.582h1.418v-21.262h-1.418Z"/><path fill="none" stroke="#000" stroke-linecap="round" stroke-linejoin="round" stroke-width="2" d="M194.691-137.582v-21.262h1.418v21.262z"/><path fill="maroon" d="M221.621-137.582h1.418v-21.262h-1.418Z"/><path fill="none" stroke="#000" stroke-linecap="round" stroke-linejoin="round" stroke-width="2" d="M223.039-137.582v-21.262h-1.418v21.262z"/><path fill="#ff8080" d="M194.691-167.348h28.348l5.668 8.504h-39.684z"/><path fill="none" stroke="#000" stroke-linecap="round" stroke-linejoin="round" stroke-width="2" d="M194.691-167.348h28.348l5.668 8.504h-39.684z"/><path fill="#f2f2f2" d="M189.023-158.844h5.668v2.836a2.835 2.835 0 1 1-5.668 0z"/><path fill="none" stroke="#000" stroke-linecap="round" stroke-linejoin="round" stroke-width="2" d="M189.023-158.844h5.668v2.836a2.835 2.835 0 1 1-5.668 0z"/><path fill="#f2f2f2" d="M194.691-158.844h5.668v2.836a2.83 2.83 0 0 1-2.832 2.836 2.836 2.836 0 0 1-2.836-2.836z"/><path fill="none" stroke="#000" stroke-linecap="round" stroke-linejoin="round" stroke-width="2" d="M194.691-158.844h5.668v2.836a2.83 2.83 0 0 1-2.832 2.836 2.836 2.836 0 0 1-2.836-2.836z"/><path fill="#f2f2f2" d="M200.359-158.844h5.672v2.836a2.835 2.835 0 1 1-5.672 0z"/><path fill="none" stroke="#000" stroke-linecap="round" stroke-linejoin="round" stroke-width="2" d="M200.359-158.844h5.672v2.836a2.835 2.835 0 1 1-5.672 0z"/><path fill="#f2f2f2" d="M206.031-158.844h5.668v2.836a2.835 2.835 0 1 1-5.668 0z"/><path fill="none" stroke="#000" stroke-linecap="round" stroke-linejoin="round" stroke-width="2" d="M206.031-158.844h5.668v2.836a2.835 2.835 0 1 1-5.668 0z"/><path fill="#f2f2f2" d="M211.699-158.844h5.668v2.836a2.83 2.83 0 0 1-2.832 2.836 2.836 2.836 0 0 1-2.836-2.836z"/><path fill="none" stroke="#000" stroke-linecap="round" stroke-linejoin="round" stroke-width="2" d="M211.699-158.844h5.668v2.836a2.83 2.83 0 0 1-2.832 2.836 2.836 2.836 0 0 1-2.836-2.836z"/><path fill="#f2f2f2" d="M217.367-158.844h5.672v2.836a2.835 2.835 0 1 1-5.672 0z"/><path fill="none" stroke="#000" stroke-linecap="round" stroke-linejoin="round" stroke-width="2" d="M217.367-158.844h5.672v2.836a2.835 2.835 0 1 1-5.672 0z"/><path fill="#f2f2f2" d="M223.039-158.844h5.668v2.836a2.835 2.835 0 1 1-5.668 0z"/><path fill="none" stroke="#000" stroke-linecap="round" stroke-linejoin="round" stroke-width="2" d="M223.039-158.844h5.668v2.836a2.835 2.835 0 1 1-5.668 0zm304.723-6.574h42.519"/><path fill="#ff8080" d="M534.848-165.418h28.347v-21.262h-28.347Z"/><path fill="none" stroke="#000" stroke-linecap="round" stroke-linejoin="round" stroke-width="2" d="M534.848-165.418v-21.262h28.347v21.262z"/><path fill="#bfbfbf" d="M532.016-186.68h34.015v-2.832h-34.015Z"/><path fill="none" stroke="#000" stroke-linecap="round" stroke-linejoin="round" stroke-width="2" d="M532.016-186.68v-2.832h34.015v2.832z"/><path fill="maroon" d="M534.848-189.512h1.418v-21.261h-1.418Z"/><path fill="none" stroke="#000" stroke-linecap="round" stroke-linejoin="round" stroke-width="2" d="M534.848-189.512v-21.261h1.418v21.261z"/><path fill="maroon" d="M561.777-189.512h1.418v-21.261h-1.418Z"/><path fill="none" stroke="#000" stroke-linecap="round" stroke-linejoin="round" stroke-width="2" d="M563.195-189.512v-21.261h-1.418v21.261z"/><path fill="#ff8080" d="M534.848-219.277h28.347l5.668 8.504H529.18z"/><path fill="none" stroke="#000" stroke-linecap="round" stroke-linejoin="round" stroke-width="2" d="M534.848-219.277h28.347l5.668 8.504H529.18z"/><path fill="#f2f2f2" d="M529.18-210.773h5.668v2.835a2.83 2.83 0 0 1-2.832 2.833 2.833 2.833 0 0 1-2.836-2.833z"/><path fill="none" stroke="#000" stroke-linecap="round" stroke-linejoin="round" stroke-width="2" d="M529.18-210.773h5.668v2.835a2.83 2.83 0 0 1-2.832 2.833 2.833 2.833 0 0 1-2.836-2.833z"/><path fill="#f2f2f2" d="M534.848-210.773h5.672v2.835a2.833 2.833 0 0 1-2.836 2.833 2.833 2.833 0 0 1-2.836-2.833z"/><path fill="none" stroke="#000" stroke-linecap="round" stroke-linejoin="round" stroke-width="2" d="M534.848-210.773h5.672v2.835a2.833 2.833 0 0 1-2.836 2.833 2.833 2.833 0 0 1-2.836-2.833z"/><path fill="#f2f2f2" d="M540.52-210.773h5.668v2.835a2.833 2.833 0 0 1-2.836 2.833 2.83 2.83 0 0 1-2.832-2.833z"/><path fill="none" stroke="#000" stroke-linecap="round" stroke-linejoin="round" stroke-width="2" d="M540.52-210.773h5.668v2.835a2.833 2.833 0 0 1-2.836 2.833 2.83 2.83 0 0 1-2.832-2.833z"/><path fill="#f2f2f2" d="M546.188-210.773h5.667v2.835a2.83 2.83 0 0 1-2.832 2.833 2.83 2.83 0 0 1-2.835-2.833z"/><path fill="none" stroke="#000" stroke-linecap="round" stroke-linejoin="round" stroke-width="2" d="M546.188-210.773h5.667v2.835a2.83 2.83 0 0 1-2.832 2.833 2.83 2.83 0 0 1-2.835-2.833z"/><path fill="#f2f2f2" d="M551.855-210.773h5.672v2.835a2.833 2.833 0 0 1-2.836 2.833 2.833 2.833 0 0 1-2.836-2.833z"/><path fill="none" stroke="#000" stroke-linecap="round" stroke-linejoin="round" stroke-width="2" d="M551.855-210.773h5.672v2.835a2.833 2.833 0 0 1-2.836 2.833 2.833 2.833 0 0 1-2.836-2.833z"/><path fill="#f2f2f2" d="M557.527-210.773h5.668v2.835a2.833 2.833 0 0 1-2.836 2.833 2.83 2.83 0 0 1-2.832-2.833z"/><path fill="none" stroke="#000" stroke-linecap="round" stroke-linejoin="round" stroke-width="2" d="M557.527-210.773h5.668v2.835a2.833 2.833 0 0 1-2.836 2.833 2.83 2.83 0 0 1-2.832-2.833z"/><path fill="#f2f2f2" d="M563.195-210.773h5.668v2.835a2.83 2.83 0 0 1-2.832 2.833 2.833 2.833 0 0 1-2.836-2.833z"/><path fill="none" stroke="#000" stroke-linecap="round" stroke-linejoin="round" stroke-width="2" d="M563.195-210.773h5.668v2.835a2.83 2.83 0 0 1-2.832 2.833 2.833 2.833 0 0 1-2.836-2.833zM697.84-86.277h42.519"/><path fill="#ff8080" d="M704.93-86.277h28.343v-21.258H704.93Z"/><path fill="none" stroke="#000" stroke-linecap="round" stroke-linejoin="round" stroke-width="2" d="M704.93-86.277v-21.258h28.343v21.258z"/><path fill="#bfbfbf" d="M702.094-107.535h34.015v-2.836h-34.015Z"/><path fill="none" stroke="#000" stroke-linecap="round" stroke-linejoin="round" stroke-width="2" d="M702.094-107.535v-2.836h34.015v2.836z"/><path fill="maroon" d="M704.93-110.371h1.414v-21.258h-1.414Z"/><path fill="none" stroke="#000" stroke-linecap="round" stroke-linejoin="round" stroke-width="2" d="M704.93-110.371v-21.258h1.414v21.258z"/><path fill="maroon" d="M731.855-110.371h1.418v-21.258h-1.418Z"/><path fill="none" stroke="#000" stroke-linecap="round" stroke-linejoin="round" stroke-width="2" d="M733.273-110.371v-21.258h-1.418v21.258z"/><path fill="#ff8080" d="M704.93-140.133h28.343l5.672 8.504h-39.687z"/><path fill="none" stroke="#000" stroke-linecap="round" stroke-linejoin="round" stroke-width="2" d="M704.93-140.133h28.343l5.672 8.504h-39.687z"/><path fill="#f2f2f2" d="M699.258-131.629h5.672v2.832a2.836 2.836 0 1 1-5.672 0z"/><path fill="none" stroke="#000" stroke-linecap="round" stroke-linejoin="round" stroke-width="2" d="M699.258-131.629h5.672v2.832a2.836 2.836 0 1 1-5.672 0z"/><path fill="#f2f2f2" d="M704.93-131.629h5.668v2.832a2.836 2.836 0 0 1-2.836 2.836 2.83 2.83 0 0 1-2.832-2.836z"/><path fill="none" stroke="#000" stroke-linecap="round" stroke-linejoin="round" stroke-width="2" d="M704.93-131.629h5.668v2.832a2.836 2.836 0 0 1-2.836 2.836 2.83 2.83 0 0 1-2.832-2.836z"/><path fill="#f2f2f2" d="M710.598-131.629h5.668v2.832a2.835 2.835 0 1 1-5.668 0z"/><path fill="none" stroke="#000" stroke-linecap="round" stroke-linejoin="round" stroke-width="2" d="M710.598-131.629h5.668v2.832a2.835 2.835 0 1 1-5.668 0z"/><path fill="#f2f2f2" d="M716.266-131.629h5.672v2.832a2.836 2.836 0 1 1-5.672 0z"/><path fill="none" stroke="#000" stroke-linecap="round" stroke-linejoin="round" stroke-width="2" d="M716.266-131.629h5.672v2.832a2.836 2.836 0 1 1-5.672 0z"/><path fill="#f2f2f2" d="M721.938-131.629h5.667v2.832a2.835 2.835 0 0 1-2.835 2.836 2.83 2.83 0 0 1-2.832-2.836z"/><path fill="none" stroke="#000" stroke-linecap="round" stroke-linejoin="round" stroke-width="2" d="M721.938-131.629h5.667v2.832a2.835 2.835 0 0 1-2.835 2.836 2.83 2.83 0 0 1-2.832-2.836z"/><path fill="#f2f2f2" d="M727.605-131.629h5.668v2.832a2.834 2.834 0 1 1-5.668 0z"/><path fill="none" stroke="#000" stroke-linecap="round" stroke-linejoin="round" stroke-width="2" d="M727.605-131.629h5.668v2.832a2.834 2.834 0 1 1-5.668 0z"/><path fill="#f2f2f2" d="M733.273-131.629h5.672v2.832a2.835 2.835 0 1 1-5.672 0z"/><path fill="none" stroke="#000" stroke-linecap="round" stroke-linejoin="round" stroke-width="2" d="M733.273-131.629h5.672v2.832a2.835 2.835 0 1 1-5.672 0zm49.61-6.012h42.515"/><path fill="#ff8080" d="M789.969-137.641h28.344v-21.257h-28.344Z"/><path fill="none" stroke="#000" stroke-linecap="round" stroke-linejoin="round" stroke-width="2" d="M789.969-137.641v-21.257h28.344v21.257z"/><path fill="#bfbfbf" d="M787.133-158.898h34.015v-2.836h-34.015Z"/><path fill="none" stroke="#000" stroke-linecap="round" stroke-linejoin="round" stroke-width="2" d="M787.133-158.898v-2.836h34.015v2.836z"/><path fill="maroon" d="M789.969-161.734h1.418v-21.262h-1.418Z"/><path fill="none" stroke="#000" stroke-linecap="round" stroke-linejoin="round" stroke-width="2" d="M789.969-161.734v-21.258h1.418v21.258z"/><path fill="maroon" d="M816.895-161.734h1.418v-21.262h-1.418Z"/><path fill="none" stroke="#000" stroke-linecap="round" stroke-linejoin="round" stroke-width="2" d="M818.313-161.734v-21.258h-1.418v21.258z"/><path fill="#ff8080" d="M789.969-191.496h28.344l5.671 8.504h-39.687z"/><path fill="none" stroke="#000" stroke-linecap="round" stroke-linejoin="round" stroke-width="2" d="M789.969-191.496h28.344l5.671 8.504h-39.687z"/><path fill="#f2f2f2" d="M784.297-182.992h5.672v2.832a2.836 2.836 0 0 1-5.672 0z"/><path fill="none" stroke="#000" stroke-linecap="round" stroke-linejoin="round" stroke-width="2" d="M784.297-182.992h5.672v2.832a2.836 2.836 0 0 1-5.672 0z"/><path fill="#f2f2f2" d="M789.969-182.992h5.668v2.832a2.836 2.836 0 0 1-2.836 2.836 2.83 2.83 0 0 1-2.832-2.836z"/><path fill="none" stroke="#000" stroke-linecap="round" stroke-linejoin="round" stroke-width="2" d="M789.969-182.992h5.668v2.832a2.836 2.836 0 0 1-2.836 2.836 2.83 2.83 0 0 1-2.832-2.836z"/><path fill="#f2f2f2" d="M795.637-182.992h5.668v2.832a2.836 2.836 0 0 1-2.832 2.836 2.836 2.836 0 0 1-2.836-2.836z"/><path fill="none" stroke="#000" stroke-linecap="round" stroke-linejoin="round" stroke-width="2" d="M795.637-182.992h5.668v2.832a2.836 2.836 0 0 1-2.832 2.836 2.836 2.836 0 0 1-2.836-2.836z"/><path fill="#f2f2f2" d="M801.305-182.992h5.672v2.832a2.836 2.836 0 0 1-5.672 0z"/><path fill="none" stroke="#000" stroke-linecap="round" stroke-linejoin="round" stroke-width="2" d="M801.305-182.992h5.672v2.832a2.836 2.836 0 0 1-5.672 0z"/><path fill="#f2f2f2" d="M806.977-182.992h5.668v2.832a2.835 2.835 0 1 1-5.668 0z"/><path fill="none" stroke="#000" stroke-linecap="round" stroke-linejoin="round" stroke-width="2" d="M806.977-182.992h5.668v2.832a2.835 2.835 0 1 1-5.668 0z"/><path fill="#f2f2f2" d="M812.645-182.992h5.668v2.832a2.833 2.833 0 1 1-5.668 0z"/><path fill="none" stroke="#000" stroke-linecap="round" stroke-linejoin="round" stroke-width="2" d="M812.645-182.992h5.668v2.832a2.833 2.833 0 1 1-5.668 0z"/><path fill="#f2f2f2" d="M818.313-182.992h5.671v2.832a2.836 2.836 0 1 1-5.671 0z"/><path fill="none" stroke="#000" stroke-linecap="round" stroke-linejoin="round" stroke-width="2" d="M818.313-182.992h5.671v2.832a2.836 2.836 0 1 1-5.671 0z"/><path fill="none" stroke="#000" stroke-linecap="round" stroke-linejoin="round" stroke-width="3" d="m84.875-50.504-23.41-16.723"/><path d="m101.148-38.879-13.16-15.988-6.23 8.722z"/><path fill="none" stroke="#000" stroke-linecap="round" stroke-linejoin="round" stroke-width="3" d="m101.148-38.879-13.16-15.988-6.23 8.722zm68.766-16.723-23.41 16.723"/><path d="m186.188-67.227-19.391 7.262 6.23 8.723z"/><path fill="none" stroke="#000" stroke-linecap="round" stroke-linejoin="round" stroke-width="3" d="m186.188-67.227-19.391 7.262 6.23 8.723zm68.765 16.723-23.41-16.723"/><path d="m271.227-38.879-13.161-15.988-6.226 8.722z"/><path fill="none" stroke="#000" stroke-linecap="round" stroke-linejoin="round" stroke-width="3" d="m271.227-38.879-13.161-15.988-6.226 8.722zm68.765-16.723-23.41 16.723"/><path d="m356.266-67.227-19.387 7.262 6.226 8.723z"/><path fill="none" stroke="#000" stroke-linecap="round" stroke-linejoin="round" stroke-width="3" d="m356.266-67.227-19.387 7.262 6.226 8.723zm68.765 16.723-23.41-16.723"/><path d="m441.305-38.879-13.16-15.988-6.227 8.722z"/><path fill="none" stroke="#000" stroke-linecap="round" stroke-linejoin="round" stroke-width="3" d="m441.305-38.879-13.16-15.988-6.227 8.722zm68.765-16.723-23.41 16.723"/><path d="m526.344-67.227-19.387 7.262 6.231 8.723z"/><path fill="none" stroke="#000" stroke-linecap="round" stroke-linejoin="round" stroke-width="3" d="m526.344-67.227-19.387 7.262 6.231 8.723zm68.765 16.723-23.41-16.723"/><path d="m611.387-38.879-13.16-15.988-6.231 8.722z"/><path fill="none" stroke="#000" stroke-linecap="round" stroke-linejoin="round" stroke-width="3" d="m611.387-38.879-13.16-15.988-6.231 8.722zm68.761-11.625-23.41-16.723"/><path d="m696.426-38.879-13.16-15.988-6.231 8.722z"/><path fill="none" stroke="#000" stroke-linecap="round" stroke-linejoin="round" stroke-width="3" d="m696.426-38.879-13.16-15.988-6.231 8.722zm68.762-16.723-23.411 16.723"/><path d="m781.465-67.227-19.391 7.262 6.231 8.723z"/><path fill="none" stroke="#000" stroke-linecap="round" stroke-linejoin="round" stroke-width="3" d="m781.465-67.227-19.391 7.262 6.231 8.723zm68.762 16.723-23.411-16.723"/><path d="m866.504-38.879-13.16-15.988-6.231 8.722z"/><path fill="none" stroke="#000" stroke-linecap="round" stroke-linejoin="round" stroke-width="3" d="m866.504-38.879-13.16-15.988-6.231 8.722z"/><path fill="#dac292" d="M13.504-90.207c-4.55.555-8.29-.285-10.074 1.539C1.812-86.875 1.215-86 1.55-84.773c.247.898-1.046.468-1.132 1.304-.094.903 1.934.781 2.164 1.594.281.957-.84.879-1.34 1.324.13 4.282 3.031 4.317 5.465 4.442 3.54.191 7-.243 10.54.128 4.444.043 9.241-.109 13.687-.035 2.324-.144 5.277-.562 6.277-3.007.492-.903.82-3.555-.832-3.168-.496-1.094.883-1.586.894-1.977.012-.371-.523-.441-.722-.867.8-1.613-.485-2.91-2.137-4.047-1.062-.625-2.582-1.047-3.812-1.059-3.532.504-4.774.16-7.676-.043-2.867.18-5.27.711-9.422-.023"/><path fill="#e9dbbe" fill-rule="evenodd" d="M21.79-89.918c-1.61.168-3.18.656-4.81.676-.761.011-1.558-.094-2.226-.489-.234-.015-.094.364-.098.508.063.594.36 1.172.871 1.5.688.45 1.555.492 2.352.403 1.043-.133 2.05-.48 2.992-.95.5-.257 1.035-.605 1.211-1.175.012-.149.18-.434-.023-.489a1.3 1.3 0 0 0-.27.016m-9.767.121c-.867.344-1.824.395-2.746.336-.84-.055-1.68-.176-2.515-.285-.254-.031-.137.32-.13.469.122.597.673 1.011 1.247 1.136.844.247 1.75.207 2.601.016.606-.148 1.239-.406 1.598-.941.137-.223.219-.512.133-.766-.059-.04-.133.02-.188.035m17.782.098c-.965.265-1.977.332-2.977.34-.828-.008-1.668-.043-2.465-.27-.125-.082-.351-.09-.281.125.09.434.332.82.605 1.16.567.656 1.438 1.051 2.305 1.012.563-.012 1.106-.187 1.617-.399.485-.171 1.028-.316 1.344-.753.238-.329.215-.754.188-1.133-.004-.215-.215-.11-.336-.082"/><path fill="#ffdf01" d="M34.77-85.062c-1.97.101-3.938.218-5.907.32-1.285.09-2.578.105-3.87.094-.95-.004-1.9.039-2.837.175-1.035.18-2.086.2-3.129.246-1.05.043-2.101.114-3.152.168-1.707.125-3.418.157-5.125.278-1.324.043-2.645.113-3.969.12-1.586.028-3.176.06-4.758.005-.332-.016-.273-.598-.691-.43-.293.125-.648.293-.762.617-.117.309.082.719.438.73.726.15 1.488.036 2.168-.245.48-.149.472.496.844.613.71.355 1.546.14 2.23-.176.258-.18.656-.539.898-.137.602.551 1.582.657 2.278.227.168-.324.672-.477.914-.156.351.27.82.37 1.265.375.586.007 1.149-.235 1.582-.618.278-.253.665-.214.958-.015.734.406 1.593.512 2.421.469.567-.035 1.141-.141 1.63-.442.273-.144.566-.344.898-.254.422.094.812.336 1.261.32.91.055 1.739-.374 2.594-.609.516-.16 1.07-.304 1.606-.136.37.129.707.359 1.09.46.382.106.8.227 1.195.11.5-.176.84-.645 1.351-.79.457-.105.786.321 1.196.43.617.145 1.258.102 1.886.118.399-.082.782-.336 1.204-.223.683.074 1.355.328 2.05.266.317-.125-.109-.86.383-.657.625.188 1.297.34 1.942.192.398-.16.421-.781.039-.973-.465-.304-1.032-.394-1.57-.453a5 5 0 0 0-.551-.02"/><path fill="#bfffbf" d="M35.848-81.937c-.79.168-1.59.37-2.407.331-.382.012-.757.13-1.125.227-.492.02-.98-.07-1.468-.027-1.254.02-2.52.172-3.762-.051-.293-.09-.703-.402-.961-.094-.375.305-.883.153-1.32.164-1.176-.004-2.344.153-3.516.243-.484.062-.969.148-1.46.14-.306-.113-.618-.402-.954-.23-.418.27-.937.164-1.406.171-1.149-.058-2.305-.128-3.446.047-.886.106-1.812.239-2.68-.054-.585-.133-1.183-.008-1.777-.028-1.27.02-2.535 0-3.804.098-.938.066-1.875.055-2.813.066a.5.5 0 0 0-.582.434c-.062.246.106.535.375.535.727.121 1.434-.164 2.094-.426.348-.093.676.122.902.36.59.453 1.426.554 2.098.238.453-.191.96-.48 1.453-.266.828.348 1.742.141 2.578-.054.317-.106.645-.364.996-.239.45.29 1.016.286 1.528.235.601-.086 1.203-.203 1.816-.184.969-.02 1.945.188 2.91.024.477-.09.953-.176 1.438-.18 1.425-.047 2.847.203 4.27.039.406-.16.823.04 1.222.106.75-.024 1.488-.301 2.242-.169.703.063 1.461.301 2.137-.027.347-.152.765-.25 1.117-.047.668.266 1.313.711 2.063.645.468-.055.652-.563 1.03-.77.473.063 1.051.078 1.383-.324.247-.258.286-.89-.171-.933"/><path fill="#bf0000" d="M23.8-83.43c-1.25.059-2.327.914-3.593.852-.34-.117-.91-.137-1.004.305-.098.484.18 1.125.738 1.125 1.997-.043 3.985-.301 5.977-.375.598-.13.61-1.192-.031-1.246-.719-.157-1.313-.735-2.086-.66m11.602 0c-.402.16-.718.602-1.199.477-.379-.004-.832-.242-1.148.07-.239.277-.328.801-.028 1.063.332.156.711-.008 1.059.007.527-.039 1.055-.09 1.566-.222.364-.356.352-1.254-.191-1.395zm-32.25.555c-.53-.02-.847.559-.664 1.031.012.438.367.867.84.75 2.164-.152 4.34-.054 6.512-.144.5-.04 1.008-.028 1.492-.043.465-.133.422-.863-.105-.801-.383.008-.735-.149-1.051-.348-.516-.234-.91.356-1.414.352-.543.094-1.149.023-1.559-.371-.379-.371-.84-.04-1.215.133-.66.27-1.433.359-2.101.078-.262-.196-.36-.621-.735-.637"/><path fill="#d24d4d" d="M28.215-83.469c-.219.031-.41.156-.613.246a7 7 0 0 0-.829.5.58.58 0 0 0-.222.653c.062.261.344.363.586.402a9.3 9.3 0 0 0 1.922.176c.832 0 1.66-.035 2.492-.031.308-.004.617.007.922-.028.258-.082.343-.367.363-.613.027-.297.121-.629-.063-.895-.308-.187-.722-.289-1.05-.093-.25.144-.535.21-.82.218-.739.016-1.462-.16-2.157-.382-.18-.047-.34-.157-.531-.153m-9.477.664c-.547.067-1.027.383-1.562.512s-1.098.219-1.649.129c-.59-.11-1.12-.418-1.707-.54-.386-.054-.777.087-1.078.325-.281.164-.574.363-.91.375-.16.078-.191.305-.152.465a.46.46 0 0 0 .496.34c1.34.176 2.683-.008 4.023-.078.766-.035 1.54-.07 2.305-.032.254.067.48-.148.555-.37.05-.173.09-.352.136-.524.07-.27-.117-.602-.414-.602z"/><path fill-rule="evenodd" d="M30.078-90.79c-.015.493-.617.497-.98.567-1.446.254-2.973.391-4.395-.07-1.219-.39-2.523-.39-3.77-.187-1.593.242-3.19.73-4.82.527-.422-.074-.883-.137-1.195-.461-.285-.344-.738-.336-1.129-.215-.621.152-1.266-.015-1.887.133-.683.176-1.347.5-2.07.484-1.234.031-2.426-.449-3.66-.37-1.918.148-3.692 1.39-4.563 3.097-.386.808-.515 1.73-.414 2.62-.441.388-1.086.68-1.183 1.321-.086.52.328 1.047.851 1.098.426.09.86.035 1.282.09.199.355.187 1.039-.387.86-.457-.071-.77.32-.738.745-.145 1.059.062 2.207.734 3.059.86.969 2.082 1.535 3.308 1.886 1.29.34 2.633.235 3.942.122 1.39-.145 2.781-.34 4.18-.27 1.648.04 3.297.156 4.949.188 1.324.05 2.652.03 3.976-.082a65 65 0 0 1 6.743.035c1.308.05 2.64-.028 3.898-.418 1.207-.297 2.516-.524 3.473-1.387.78-.684 1.254-1.66 1.402-2.676.117-.64.152-1.289.2-1.933-.231-.41-.735-.508-1.153-.598-.242.027-.547-.371-.121-.32.73-.047 1.285-.844 1.066-1.547-.039-.5-.636-.473-.828-.84-.027-.328.191-.64.117-.988-.054-1.207-.84-2.258-1.785-2.961-1.062-.797-2.34-1.297-3.644-1.516a5.4 5.4 0 0 0-1.399.008m.524.65c-.204.726.027 1.566-.45 2.206-.543.563-1.34.743-2.07.946-1.2.261-2.59.097-3.508-.781-.535-.508-.847-1.22-.945-1.946-.242-.308-1.035-.379-1.121.043a2.15 2.15 0 0 1-.926 1.45c-.816.527-1.723.906-2.652 1.183-.985.266-2.078.41-3.051.031a2.43 2.43 0 0 1-1.465-1.566 4.3 4.3 0 0 1-.191-1.262c-.383-.293-.891-.023-1.32-.05-.352.257-.321.769-.516 1.128-.262.598-.895.91-1.48 1.11-1.044.3-2.184.261-3.223-.059-.434-.168-.942-.344-1.184-.77-.195-.355-.215-.761-.293-1.144-.496-.129-.984.121-1.45.265-1.562.645-2.847 2.114-3.023 3.829-.035.468.036.945.215 1.379.457.171.953.03 1.426.085 2.54.032 5.07-.171 7.605-.19 1.66-.036 3.32-.044 4.973-.228a25 25 0 0 1 3.258-.136 25 25 0 0 0 3.234-.203c1.414-.145 2.836-.16 4.25-.215 1.684-.102 3.356-.25 5.04-.348 1.234-.09 2.48-.258 3.718-.105.277.023.617.066.8-.196.274-.355.138-.828-.023-1.199-.472-1.203-1.52-2.11-2.703-2.586a9.7 9.7 0 0 0-2.687-.687 1.2 1.2 0 0 0-.238.015m-8.856.19c-1.844.18-3.656.852-5.531.634-.504-.063-1-.215-1.453-.446-.36.192-.063.676-.051.985.293.91 1.242 1.472 2.168 1.523 1.371.121 2.7-.39 3.922-.95.605-.277 1.234-.71 1.36-1.41.089-.367-.13-.374-.415-.335m-9.832.157c-1.527.54-3.172.27-4.734.063-.274-.032-.711-.192-.614.253.004.575.45 1.043.965 1.243.969.421 2.086.367 3.094.117.629-.18 1.3-.512 1.586-1.133.105-.254.14-.797-.297-.543m17.883.063c-1.645.421-3.383.445-5.043.136-.274-.039-.777-.289-.684.2.137.406.34.8.63 1.12.886.962 2.402 1.25 3.585.712.492-.223 1.047-.32 1.473-.669.254-.19.41-.492.418-.808.062-.27.074-.879-.38-.692m2.414 1.378c-.11.41-.668.637-.563 1.114.434.12.665-.406.813-.719.121-.176.023-.59-.25-.395m.852.371c-.266.133-.7.833-.208.864.348-.145.438-.383.422-.735.028-.136-.113-.18-.215-.129m-10.454.735c-.14.293.606.512.344.133-.082-.07-.238-.305-.344-.133m-1.03.11c-.274.355.69.706.401.198-.097-.105-.242-.308-.402-.199m-16.282.163c-.32.192.129.856.379.504-.18-.129-.13-.453-.38-.504m-.75.313c-.192.258.387.804.492.558-.027-.246-.215-.57-.492-.558m6.957.047c-.414.027-.012.761.117.285.008-.098.094-.441-.117-.285m.687.363c-.402.14.153.586.207.125.028-.121-.109-.219-.207-.125M34.5-85.004c-2.434.145-4.871.297-7.309.39-1.722.032-3.457-.05-5.164.22-1.136.156-2.28.199-3.425.246-5.508.289-11.02.675-16.536.554-.386.059-.39-.77-.84-.39-.34.125-.726.445-.632.843.133.395.62.438.976.407.606-.016 1.211-.102 1.762-.364.356.09.36.606.738.696.457.242 1.004.16 1.492.062.477-.129.899-.39 1.305-.664.59.715 1.715 1 2.531.512.215-.285.598-.578.88-.2.8.567 1.968.52 2.742-.078.273-.296.71-.437 1.074-.19.98.562 2.18.624 3.265.394.48-.094.891-.375 1.332-.57.54-.137 1.004.304 1.536.296 1.214.086 2.304-.578 3.468-.789.457-.082.926.012 1.317.25.531.238 1.117.488 1.71.406.614-.136.989-.796 1.637-.836.465.055.809.47 1.29.48.59.102 1.19.067 1.788.083.594-.418 1.34-.2 1.985-.055.363.067.738.153 1.105.07.25-.163-.183-.812.336-.663.617.234 1.297.343 1.953.265.403-.164.371-.875-.066-.98-.684-.368-1.484-.446-2.25-.395m-6.578 1.797c-.45.23-.996.402-1.23.887-.094.386.363.539.667.558 1.66.219 3.332.031 4.996.094.426-.195.364-.785.36-1.176-.2-.375-.738-.277-1.05-.113-.618.242-1.31.191-1.95.078-.488-.105-.961-.273-1.43-.437-.129-.008-.246.07-.363.109m-4.293-.035c-1.211.156-2.29.957-3.543.84-.324-.153-.848-.121-.707.367-.031.437.328.824.77.687 1.921-.008 3.824-.296 5.746-.343.343-.106.472-.844.027-.883-.453-.102-.867-.32-1.277-.532a2.2 2.2 0 0 0-1.016-.136m11.652.02c-.261.44-.828.456-1.277.429-.305-.008-.805-.242-.926.176-.066.305-.172.926.344.676.726-.059 1.469-.067 2.176-.274.175-.304.215-1.043-.266-1.031zm-32.3.585c-.575.051-.239.743-.243 1.098.082.433.59.238.89.238 2.524-.117 5.056-.015 7.579-.183.363.046.434-.524.02-.422-.45.058-.805-.203-1.176-.399-.418-.105-.692.364-1.114.371-.546.13-1.16.086-1.656-.191-.215-.29-.57-.496-.87-.184-.567.305-1.223.43-1.86.422-.383-.02-.797-.132-1.02-.476-.156-.18-.27-.473-.55-.274m15.44.047c-.995.41-2.1.8-3.183.516-.531-.133-1.02-.445-1.57-.496-.531.023-.937.41-1.398.629-.454-.145-.704.718-.149.636 1.938.082 3.875-.168 5.817-.152.394-.035.949.152 1.023-.399.18-.32.121-.968-.395-.769l-.074.016zm17.958.52c.094.449.078.972-.293 1.293-.367.383-.965.558-1.469.37-.386.231-.601.755-1.101.766-.852.09-1.512-.582-2.305-.753-.316-.07-.645.023-.914.19-.5.243-1.067.165-1.594.079-.668-.098-1.36-.144-2.008.066-.445.149-.879-.035-1.3-.129-.454-.003-.88.215-1.332.149-1.02-.05-2.036-.348-3.06-.176-1.19.145-2.382.457-3.589.305-.918-.067-1.855-.156-2.766.043-.699.09-1.453.094-2.085-.246-.524.035-.973.34-1.481.433-.652.18-1.379.188-1.992-.125-.531-.11-.95.336-1.457.399-.88.183-1.809-.117-2.508-.664-.457-.133-.867.207-1.312.257-.532.16-1.18.25-1.641-.132-.149-.235.121-1.055-.402-.727-.352.328-.297.863-.262 1.297.18 1.2 1.144 2.129 2.21 2.606 1.595.722 3.387.75 5.106.722 1.63-.062 3.25-.262 4.88-.246 3.339-.023 6.679.277 10.01-.004 1.634-.101 3.274-.055 4.907.082 1.79.106 3.59-.133 5.32-.582.582-.18 1.188-.34 1.7-.676.906-.656 1.304-1.773 1.527-2.824.094-.457.148-.926.164-1.39-.203-.317-.613-.372-.953-.383m-.57.25c-.743.187-1.496.34-2.266.324-.383.02-.781.055-1.129.242-.605-.02-1.207-.078-1.812-.035-1.278.035-2.586.203-3.832-.156-.254-.172-.59-.203-.743.097-.43.207-.918.032-1.375.075-1.105.007-2.21.148-3.312.234-.516.062-1.031.168-1.55.14-.34-.152-.708-.484-1.04-.117-.367.114-.762.051-1.145.07-1.09-.038-2.183-.148-3.27.012-.886.09-1.788.239-2.679.078-.695-.292-1.449-.113-2.18-.125-1.285.024-2.574.004-3.859.102-.965.074-1.93.027-2.898.07-.469.227-.219.946.297.762.714.004 1.367-.332 2.047-.504.472.04.707.551 1.148.68.668.293 1.418.078 2.039-.223.379-.164.824-.215 1.2-.02.71.25 1.476.102 2.187-.058.375-.05.683-.347 1.058-.328.39.106.754.336 1.176.297.86.016 1.695-.29 2.55-.211 1 .023 2.017.21 3-.047 1.938-.34 3.907.23 5.84-.137.41.02.798.301 1.223.137.586-.098 1.18-.238 1.778-.137.644.059 1.312.262 1.953.067.414-.219.906-.375 1.351-.13.676.25 1.336.731 2.09.618.504-.055.621-.84 1.121-.746.47.105 1.09 0 1.285-.5.063-.156.004-.625-.253-.531M13.71-79.332c-.379.445.644.281.3-.094-.105-.07-.269-.031-.3.094m.816.516c-.359.035-.046.629.121.242.106-.094.067-.387-.12-.242m9.778.117c-.047.238.242.906.472.515 0-.207-.207-.687-.472-.515m-1.633.062c-.086.203.2.887.375.524-.024-.184-.063-.77-.375-.524m-16.328.446c-.2.238.273.789.246.265-.008-.11-.082-.445-.246-.265m-1.02.085c-.156.286.301.91.508.606-.098-.219-.215-.66-.484-.625l-.016.012z"/><path fill="#b1887b" d="M13.504-105.797c-4.55.555-8.29-.285-10.074 1.535-1.618 1.797-2.215 2.668-1.88 3.899.247.898-1.046.469-1.132 1.3-.094.907 1.934.782 2.164 1.594.281.957-.84.883-1.34 1.328.13 4.282 3.031 4.313 5.465 4.438 3.54.195 7-.242 10.54.133 4.444.043 9.241-.11 13.687-.036 2.324-.144 5.277-.562 6.277-3.007.492-.906.82-3.555-.832-3.172-.496-1.094.883-1.582.894-1.977.012-.367-.523-.437-.722-.863.8-1.613-.485-2.91-2.137-4.047-1.062-.625-2.582-1.047-3.812-1.058-3.532.5-4.774.16-7.676-.043-2.867.179-5.27.707-9.422-.024"/><path fill="#d0b8b0" fill-rule="evenodd" d="M21.79-105.512c-1.61.172-3.18.66-4.81.68-.761.012-1.558-.094-2.226-.488-.234-.016-.094.363-.098.507.063.59.36 1.168.871 1.497.688.453 1.555.496 2.352.406 1.043-.133 2.05-.485 2.992-.949.5-.258 1.035-.61 1.211-1.176.012-.149.18-.434-.023-.488-.09-.008-.18.003-.27.011m-9.767.125c-.867.344-1.824.395-2.746.336-.84-.054-1.68-.179-2.515-.285-.254-.031-.137.32-.13.469.122.594.673 1.012 1.247 1.137.844.246 1.75.207 2.601.015.606-.148 1.239-.41 1.598-.941.137-.223.219-.512.133-.77-.059-.035-.133.024-.188.039m17.782.098c-.965.266-1.977.332-2.977.34-.828-.008-1.668-.043-2.465-.27-.125-.082-.351-.09-.281.125.09.434.332.817.605 1.16a2.94 2.94 0 0 0 2.305 1.012c.563-.012 1.106-.187 1.617-.398.485-.172 1.028-.317 1.344-.754.238-.328.215-.754.188-1.137-.004-.211-.215-.105-.336-.078"/><path fill="#ffdf01" d="M34.77-100.652c-1.97.101-3.938.218-5.907.32-1.285.09-2.578.105-3.87.094-.95-.004-1.9.039-2.837.175-1.035.18-2.086.2-3.129.247-1.05.039-2.101.109-3.152.164-1.707.129-3.418.16-5.125.28-1.324.044-2.645.11-3.969.122-1.586.027-3.176.059-4.758.004-.332-.02-.273-.598-.691-.43-.293.125-.648.293-.762.614-.117.312.082.722.438.734.726.148 1.488.035 2.168-.25.48-.145.472.496.844.617.71.36 1.546.14 2.23-.18.258-.18.656-.535.898-.132.602.55 1.582.656 2.278.226.168-.324.672-.48.914-.156.351.27.82.371 1.265.375.586.008 1.149-.238 1.582-.617.278-.258.665-.215.958-.016.734.406 1.593.508 2.421.469.567-.04 1.141-.14 1.63-.442.273-.148.566-.347.898-.254.422.09.812.336 1.261.32.91.055 1.739-.374 2.594-.609.516-.16 1.07-.304 1.606-.136.37.129.707.36 1.09.46.382.106.8.227 1.195.11.5-.176.84-.648 1.351-.789.457-.106.786.316 1.196.43.617.14 1.258.101 1.886.117.399-.082.782-.336 1.204-.223.683.074 1.355.328 2.05.266.317-.125-.109-.86.383-.656.625.187 1.297.34 1.942.191.398-.16.421-.781.039-.973-.465-.304-1.032-.394-1.57-.457a7 7 0 0 0-.551-.015"/><path fill="#bfffbf" d="M35.848-97.527c-.79.168-1.59.367-2.407.332-.382.011-.757.129-1.125.226-.492.02-.98-.07-1.468-.027-1.254.02-2.52.168-3.762-.05-.293-.095-.703-.407-.961-.098-.375.304-.883.156-1.32.167-1.176-.004-2.344.153-3.516.243-.484.062-.969.148-1.46.136-.306-.109-.618-.398-.954-.226-.418.27-.937.164-1.406.172-1.149-.063-2.305-.13-3.446.046-.886.106-1.812.239-2.68-.058-.585-.129-1.183-.004-1.777-.023-1.27.019-2.535 0-3.804.097-.938.067-1.875.055-2.813.067a.5.5 0 0 0-.582.433c-.062.246.106.535.375.535.727.121 1.434-.164 2.094-.425.348-.098.676.12.902.359.59.453 1.426.555 2.098.234.453-.187.96-.476 1.453-.261.828.347 1.742.14 2.578-.055.317-.106.645-.367.996-.238.45.289 1.016.285 1.528.234.601-.086 1.203-.203 1.816-.184.969-.02 1.945.188 2.91.024.477-.09.953-.176 1.438-.18 1.425-.047 2.847.203 4.27.04.406-.161.823.038 1.222.105.75-.024 1.488-.301 2.242-.168.703.062 1.461.297 2.137-.028.347-.156.765-.25 1.117-.05.668.265 1.313.714 2.063.644.468-.05.652-.558 1.03-.765.473.058 1.051.078 1.383-.325.247-.258.286-.89-.171-.933"/><path fill="#bf0000" d="M23.8-99.023c-1.25.062-2.327.917-3.593.859-.34-.121-.91-.14-1.004.3-.098.485.18 1.126.738 1.126 1.997-.043 3.985-.301 5.977-.375.598-.13.61-1.192-.031-1.246-.719-.16-1.313-.735-2.086-.664m11.602.004c-.402.16-.718.601-1.199.476-.379-.004-.832-.242-1.148.07-.239.278-.328.801-.028 1.063.332.156.711-.008 1.059.008.527-.04 1.055-.09 1.566-.223.364-.356.352-1.254-.191-1.394zm-32.25.554c-.53-.02-.847.559-.664 1.031.012.438.367.868.84.75 2.164-.152 4.34-.054 6.512-.148.5-.035 1.008-.024 1.492-.04.465-.132.422-.862-.105-.8-.383.008-.735-.152-1.051-.351-.516-.23-.91.359-1.414.355-.543.09-1.149.024-1.559-.371-.379-.371-.84-.043-1.215.133-.66.27-1.433.36-2.101.074-.262-.191-.36-.617-.735-.633"/><path fill="#d24d4d" d="M28.215-99.062c-.219.035-.41.16-.613.25a7 7 0 0 0-.829.496.58.58 0 0 0-.222.656c.062.262.344.363.586.398a9.3 9.3 0 0 0 1.922.18c.832 0 1.66-.035 2.492-.031.308-.004.617.007.922-.031.258-.083.343-.368.363-.61.027-.297.121-.629-.063-.898-.308-.184-.722-.285-1.05-.09-.25.144-.535.21-.82.215-.739.02-1.462-.157-2.157-.383-.18-.043-.34-.156-.531-.153m-9.477.664c-.547.07-1.027.382-1.562.511-.535.133-1.098.223-1.649.133-.59-.11-1.12-.418-1.707-.539-.386-.059-.777.086-1.078.324-.281.164-.574.363-.91.375-.16.078-.191.305-.152.465a.46.46 0 0 0 .496.34c1.34.176 2.683-.008 4.023-.078.766-.04 1.54-.074 2.305-.031.254.066.48-.149.555-.375.05-.172.09-.348.136-.52.07-.273-.117-.601-.414-.605z"/><path fill-rule="evenodd" d="M30.078-106.379c-.015.492-.617.496-.98.563-1.446.253-2.973.394-4.395-.067-1.219-.39-2.523-.394-3.77-.187-1.593.238-3.19.73-4.82.527-.422-.074-.883-.137-1.195-.465-.285-.34-.738-.332-1.129-.215-.621.157-1.266-.011-1.887.137-.683.176-1.347.5-2.07.484-1.234.032-2.426-.453-3.66-.375-1.918.153-3.692 1.395-4.563 3.102-.386.809-.515 1.73-.414 2.621-.441.387-1.086.676-1.183 1.32-.086.52.328 1.047.851 1.094.426.094.86.04 1.282.094.199.352.187 1.035-.387.855-.457-.066-.77.325-.738.75-.145 1.055.062 2.207.734 3.055.86.977 2.082 1.54 3.308 1.89 1.29.344 2.633.235 3.942.122 1.39-.145 2.781-.34 4.18-.27 1.648.04 3.297.153 4.949.188a32 32 0 0 0 3.976-.082 65 65 0 0 1 6.743.035c1.308.05 2.64-.028 3.898-.418 1.207-.297 2.516-.527 3.473-1.387.78-.683 1.254-1.66 1.402-2.676.117-.64.152-1.289.2-1.933-.231-.414-.735-.508-1.153-.602-.242.031-.547-.367-.121-.316.73-.05 1.285-.844 1.066-1.551-.039-.496-.636-.469-.828-.836-.027-.328.191-.641.117-.988-.054-1.207-.84-2.262-1.785-2.961-1.062-.797-2.34-1.297-3.644-1.516a5.4 5.4 0 0 0-1.399.008m.524.649c-.204.726.027 1.566-.45 2.203-.543.566-1.34.746-2.07.949-1.2.258-2.59.098-3.508-.781-.535-.508-.847-1.219-.945-1.946-.242-.308-1.035-.379-1.121.043a2.15 2.15 0 0 1-.926 1.449c-.816.528-1.723.907-2.652 1.18-.985.27-2.078.414-3.051.035a2.42 2.42 0 0 1-1.465-1.566 4.3 4.3 0 0 1-.191-1.266c-.383-.289-.891-.019-1.32-.047-.352.258-.321.77-.516 1.129-.262.598-.895.91-1.48 1.11-1.044.3-2.184.258-3.223-.059-.434-.168-.942-.344-1.184-.769-.195-.356-.215-.762-.293-1.149-.496-.125-.984.125-1.45.27-1.562.644-2.847 2.113-3.023 3.828-.035.469.036.945.215 1.379.457.172.953.027 1.426.086 2.54.027 5.07-.172 7.605-.192 1.66-.035 3.32-.047 4.973-.23 1.082-.11 2.172-.16 3.258-.133a25 25 0 0 0 3.234-.203c1.414-.145 2.836-.16 4.25-.219 1.684-.098 3.356-.25 5.04-.344 1.234-.09 2.48-.257 3.718-.109.277.027.617.066.8-.195.274-.352.138-.825-.023-1.196-.472-1.203-1.52-2.113-2.703-2.586a9.7 9.7 0 0 0-2.687-.687 1.2 1.2 0 0 0-.238.016m-8.856.191c-1.844.18-3.656.848-5.531.633a4.4 4.4 0 0 1-1.453-.446c-.36.192-.063.676-.051.985.293.91 1.242 1.469 2.168 1.519 1.371.125 2.7-.386 3.922-.945.605-.277 1.234-.711 1.36-1.41.089-.367-.13-.375-.415-.336m-9.832.152c-1.527.543-3.172.274-4.734.067-.274-.032-.711-.192-.614.254.004.574.45 1.043.965 1.238.969.426 2.086.367 3.094.117.629-.18 1.3-.512 1.586-1.129.105-.254.14-.797-.297-.547m17.883.067c-1.645.418-3.383.445-5.043.136-.274-.039-.777-.289-.684.2.137.406.34.8.63 1.121.886.961 2.402 1.25 3.585.711.492-.223 1.047-.325 1.473-.668.254-.192.41-.493.418-.813.062-.269.074-.875-.38-.687m2.414 1.375c-.11.414-.668.64-.563 1.117.434.121.665-.406.813-.719.121-.18.023-.594-.25-.398m.852.375c-.266.132-.7.832-.208.863.348-.145.438-.383.422-.738.028-.133-.113-.176-.215-.125m-10.454.734c-.14.289.606.512.344.133-.082-.07-.238-.309-.344-.133m-1.03.109c-.274.356.69.704.401.2-.097-.106-.242-.309-.402-.2m-16.282.161c-.32.195.129.855.379.507-.18-.132-.13-.453-.38-.507m-.75.312c-.192.262.387.809.492.559-.027-.243-.215-.567-.492-.559m6.957.047c-.414.031-.012.766.117.285.008-.094.094-.437-.117-.285m.687.367c-.402.141.153.586.207.125.028-.125-.109-.219-.207-.125m22.309 1.246c-2.434.145-4.871.293-7.309.387-1.722.035-3.457-.047-5.164.223-1.136.156-2.28.199-3.425.246-5.508.285-11.02.675-16.536.554-.386.059-.39-.77-.84-.394-.34.125-.726.445-.632.847.133.395.62.438.976.407.606-.016 1.211-.102 1.762-.364.356.09.36.602.738.696.457.238 1.004.156 1.492.062.477-.129.899-.39 1.305-.664.59.715 1.715 1 2.531.512.215-.285.598-.578.88-.203.8.566 1.968.52 2.742-.074.273-.297.71-.434 1.074-.192.98.563 2.18.625 3.265.395.48-.098.891-.375 1.332-.57.54-.137 1.004.304 1.536.296 1.214.082 2.304-.582 3.468-.789.457-.082.926.012 1.317.25.531.242 1.117.488 1.71.406.614-.14.989-.796 1.637-.835.465.054.809.468 1.29.48.59.102 1.19.066 1.788.082.594-.418 1.34-.2 1.985-.058.363.07.738.156 1.105.074.25-.164-.183-.813.336-.664a4.2 4.2 0 0 0 1.953.265c.403-.164.371-.875-.066-.98-.684-.367-1.484-.446-2.25-.395m-6.578 1.801c-.45.223-.996.399-1.23.883-.094.387.363.535.667.558 1.66.22 3.332.032 4.996.094.426-.199.364-.785.36-1.176-.2-.375-.738-.28-1.05-.113-.618.242-1.31.191-1.95.078-.488-.105-.961-.273-1.43-.441-.129-.004-.246.074-.363.117m-4.293-.039c-1.211.156-2.29.957-3.543.84-.324-.156-.848-.121-.707.367-.031.434.328.824.77.688 1.921-.008 3.824-.297 5.746-.344.343-.11.472-.844.027-.883-.453-.105-.867-.32-1.277-.531a2.2 2.2 0 0 0-1.016-.137m11.652.016c-.261.445-.828.46-1.277.433-.305-.011-.805-.246-.926.176-.066.305-.172.926.344.676.726-.059 1.469-.067 2.176-.274.175-.304.215-1.043-.266-1.03zm-32.3.59c-.575.05-.239.742-.243 1.097.082.434.59.235.89.238 2.524-.117 5.056-.015 7.579-.183.363.047.434-.524.02-.422-.45.055-.805-.203-1.176-.398-.418-.11-.692.363-1.114.37-.546.13-1.16.083-1.656-.19-.215-.29-.57-.497-.87-.184-.567.304-1.223.425-1.86.421-.383-.02-.797-.132-1.02-.476-.156-.184-.27-.473-.55-.274m15.44.046c-.995.407-2.1.801-3.183.516-.531-.133-1.02-.445-1.57-.496-.531.023-.937.406-1.398.629-.454-.145-.704.715-.149.633 1.938.085 3.875-.165 5.817-.149.394-.035.949.153 1.023-.398.18-.325.121-.97-.395-.774l-.074.02zm17.958.52c.094.45.078.972-.293 1.293-.367.386-.965.558-1.469.37-.386.228-.601.755-1.101.766-.852.087-1.512-.585-2.305-.75-.316-.074-.645.016-.914.188-.5.242-1.067.164-1.594.078-.668-.101-1.36-.144-2.008.067-.445.144-.879-.04-1.3-.133-.454-.004-.88.219-1.332.152-1.02-.05-2.036-.348-3.06-.176-1.19.145-2.382.457-3.589.305-.918-.066-1.855-.156-2.766.043-.699.09-1.453.094-2.085-.25-.524.039-.973.344-1.481.438-.652.18-1.379.183-1.992-.125-.531-.11-.95.335-1.457.398-.88.183-1.809-.117-2.508-.664-.457-.133-.867.203-1.312.258-.532.16-1.18.246-1.641-.133-.149-.238.121-1.055-.402-.73-.352.331-.297.863-.262 1.3.18 1.2 1.144 2.13 2.21 2.606 1.595.722 3.387.75 5.106.722 1.63-.062 3.25-.265 4.88-.25 3.339-.02 6.679.281 10.01 0a33 33 0 0 1 4.907.082c1.79.102 3.59-.132 5.32-.586.582-.175 1.188-.336 1.7-.671.906-.657 1.304-1.774 1.527-2.829q.14-.687.164-1.386c-.203-.317-.613-.371-.953-.383m-.57.25c-.743.183-1.496.336-2.266.324-.383.02-.781.055-1.129.242-.605-.02-1.207-.078-1.812-.039-1.278.04-2.586.207-3.832-.152-.254-.172-.59-.203-.743.094-.43.21-.918.03-1.375.078-1.105.007-2.21.148-3.312.234-.516.063-1.031.164-1.55.14-.34-.152-.708-.484-1.04-.117-.367.114-.762.051-1.145.07-1.09-.038-2.183-.148-3.27.009-.886.093-1.788.242-2.679.082-.695-.293-1.449-.114-2.18-.125-1.285.023-2.574.004-3.859.101-.965.07-1.93.024-2.898.07-.469.227-.219.946.297.758.714.008 1.367-.328 2.047-.503.472.042.707.554 1.148.683.668.293 1.418.078 2.039-.227.379-.16.824-.214 1.2-.015.71.246 1.476.101 2.187-.063.375-.046.683-.343 1.058-.324.39.11.754.332 1.176.297.86.016 1.695-.289 2.55-.21 1 .022 2.017.21 3-.044 1.938-.347 3.907.223 5.84-.14.41.019.798.296 1.223.14.586-.105 1.18-.242 1.778-.14.644.054 1.312.261 1.953.066.414-.223.906-.375 1.351-.133.676.25 1.336.73 2.09.617.504-.05.621-.836 1.121-.746.47.11 1.09 0 1.285-.5.063-.152.004-.62-.253-.527M13.71-94.922c-.379.445.644.278.3-.097-.105-.07-.269-.028-.3.097m.816.512c-.359.039-.046.629.121.246.106-.098.067-.387-.12-.246m9.778.12c-.047.24.242.907.472.517 0-.208-.207-.692-.472-.516m-1.633.063c-.086.204.2.887.375.524-.024-.184-.063-.77-.375-.524m-16.328.442c-.2.242.273.793.246.27-.008-.11-.082-.45-.246-.27m-1.02.09c-.156.285.301.91.508.605-.098-.219-.215-.66-.484-.629l-.016.016z"/><path fill="maroon" d="M13.504-121.387c-4.55.551-8.29-.289-10.074 1.535-1.618 1.797-2.215 2.668-1.88 3.899.247.894-1.046.465-1.132 1.301-.094.906 1.934.781 2.164 1.593.281.957-.84.879-1.34 1.329.13 4.277 3.031 4.312 5.465 4.437 3.54.195 7-.242 10.54.133 4.444.043 9.241-.11 13.687-.035 2.324-.145 5.277-.563 6.277-3.008.492-.906.82-3.555-.832-3.172-.496-1.094.883-1.586.894-1.977.012-.367-.523-.437-.722-.863.8-1.613-.485-2.91-2.137-4.047-1.062-.625-2.582-1.051-3.812-1.058-3.532.5-4.774.16-7.676-.043-2.867.179-5.27.707-9.422-.024"/><path fill="#b26666" fill-rule="evenodd" d="M21.79-121.102c-1.61.172-3.18.661-4.81.68-.761.012-1.558-.094-2.226-.488-.234-.02-.094.363-.098.508.063.589.36 1.168.871 1.496.688.453 1.555.496 2.352.402 1.043-.129 2.05-.48 2.992-.945.5-.258 1.035-.61 1.211-1.176.012-.148.18-.434-.023-.492-.09-.004-.18.008-.27.015m-9.767.122c-.867.347-1.824.398-2.746.339-.84-.054-1.68-.179-2.515-.289-.254-.031-.137.325-.13.473.122.594.673 1.012 1.247 1.137.844.246 1.75.207 2.601.015.606-.148 1.239-.41 1.598-.941.137-.223.219-.512.133-.77-.059-.035-.133.024-.188.036m17.782.101c-.965.266-1.977.332-2.977.34-.828-.008-1.668-.043-2.465-.27-.125-.082-.351-.093-.281.125.09.43.332.817.605 1.157a2.92 2.92 0 0 0 2.305 1.011c.563-.007 1.106-.183 1.617-.394.485-.172 1.028-.32 1.344-.754.238-.328.215-.754.188-1.137-.004-.211-.215-.105-.336-.078"/><path fill="#ffdf01" d="M34.77-116.242c-1.97.101-3.938.219-5.907.32a53 53 0 0 1-3.87.094c-.95-.008-1.9.035-2.837.176-1.035.179-2.086.199-3.129.246-1.05.039-2.101.109-3.152.164-1.707.129-3.418.16-5.125.277-1.324.043-2.645.113-3.969.125-1.586.024-3.176.059-4.758.004-.332-.019-.273-.598-.691-.43-.293.125-.648.289-.762.614-.117.312.082.722.438.734.726.145 1.488.035 2.168-.25.48-.145.472.496.844.617.71.356 1.546.141 2.23-.179.258-.18.656-.536.898-.133.602.55 1.582.656 2.278.222.168-.32.672-.476.914-.156.351.274.82.375 1.265.379.586.008 1.149-.238 1.582-.617.278-.258.665-.215.958-.016.734.406 1.593.508 2.421.465.567-.035 1.141-.137 1.63-.437.273-.149.566-.348.898-.254.422.089.812.336 1.261.32.91.055 1.739-.375 2.594-.609.516-.161 1.07-.305 1.606-.137.37.129.707.355 1.09.461.382.105.8.222 1.195.109.5-.176.84-.648 1.351-.793.457-.101.786.321 1.196.434.617.14 1.258.101 1.886.117.399-.082.782-.34 1.204-.223.683.075 1.355.328 2.05.266.317-.125-.109-.863.383-.656.625.187 1.297.34 1.942.191.398-.16.421-.781.039-.973-.465-.304-1.032-.394-1.57-.457a7 7 0 0 0-.551-.015"/><path fill="#bfffbf" d="M35.848-113.117c-.79.168-1.59.367-2.407.332-.382.008-.757.129-1.125.222-.492.024-.98-.066-1.468-.023-1.254.02-2.52.168-3.762-.051-.293-.093-.703-.406-.961-.097-.375.304-.883.156-1.32.168-1.176-.004-2.344.152-3.516.242-.484.058-.969.148-1.46.136-.306-.109-.618-.398-.954-.226-.418.269-.937.164-1.406.172-1.149-.063-2.305-.129-3.446.043-.886.109-1.812.238-2.68-.055-.585-.129-1.183-.008-1.777-.023-1.27.019-2.535 0-3.804.097-.938.067-1.875.055-2.813.067a.5.5 0 0 0-.582.433c-.062.246.106.535.375.535.727.118 1.434-.164 2.094-.425.348-.094.676.121.902.359.59.453 1.426.555 2.098.234.453-.187.96-.476 1.453-.261.828.343 1.742.14 2.578-.055.317-.109.645-.367.996-.238.45.289 1.016.285 1.528.23.601-.082 1.203-.199 1.816-.183.969-.016 1.945.191 2.91.027.477-.094.953-.176 1.438-.18 1.425-.047 2.847.203 4.27.035.406-.156.823.043 1.222.11.75-.024 1.488-.305 2.242-.168.703.058 1.461.297 2.137-.028.347-.156.765-.25 1.117-.05.668.265 1.313.715 2.063.644.468-.051.652-.558 1.03-.765.473.058 1.051.078 1.383-.325.247-.261.286-.894-.171-.933"/><path fill="#bf0000" d="M23.8-114.613c-1.25.062-2.327.918-3.593.855-.34-.117-.91-.137-1.004.305-.098.48.18 1.121.738 1.125 1.997-.043 3.985-.301 5.977-.375.598-.129.61-1.192-.031-1.246-.719-.16-1.313-.735-2.086-.664m11.602.004c-.402.16-.718.601-1.199.476-.379-.004-.832-.246-1.148.07-.239.278-.328.801-.028 1.063.332.156.711-.008 1.059.008.527-.039 1.055-.094 1.566-.227.364-.355.352-1.25-.191-1.39zm-32.25.554c-.53-.019-.847.559-.664 1.028.012.441.367.871.84.754 2.164-.153 4.34-.059 6.512-.149.5-.039 1.008-.027 1.492-.043.465-.129.422-.859-.105-.797-.383.008-.735-.152-1.051-.351-.516-.231-.91.355-1.414.355-.543.09-1.149.024-1.559-.375-.379-.367-.84-.039-1.215.137-.66.269-1.433.355-2.101.074-.262-.191-.36-.617-.735-.633"/><path fill="#d24d4d" d="M28.215-114.652c-.219.035-.41.16-.613.25a7 7 0 0 0-.829.496c-.203.148-.308.414-.222.652.062.266.344.363.586.402a9.6 9.6 0 0 0 1.922.18c.832 0 1.66-.039 2.492-.031.308-.008.617.008.922-.031.258-.082.343-.368.363-.61.027-.297.121-.629-.063-.898-.308-.188-.722-.285-1.05-.09-.25.144-.535.211-.82.215-.739.019-1.462-.156-2.157-.383-.18-.043-.34-.156-.531-.152m-9.477.664c-.547.07-1.027.383-1.562.511-.535.133-1.098.219-1.649.133-.59-.109-1.12-.418-1.707-.543-.386-.054-.777.086-1.078.328-.281.164-.574.364-.91.375-.16.079-.191.305-.152.465.054.211.273.375.496.336 1.34.18 2.683-.004 4.023-.074.766-.039 1.54-.074 2.305-.031.254.062.48-.149.555-.375.05-.172.09-.348.136-.524.07-.269-.117-.597-.414-.601z"/><g fill-rule="evenodd"><path d="M30.078-121.973c-.015.493-.617.496-.98.567-1.446.254-2.973.394-4.395-.071-1.219-.386-2.523-.39-3.77-.183-1.593.238-3.19.73-4.82.527-.422-.074-.883-.137-1.195-.465-.285-.343-.738-.332-1.129-.215-.621.157-1.266-.015-1.887.137-.683.176-1.347.5-2.07.481-1.234.035-2.426-.45-3.66-.371-1.918.148-3.692 1.394-4.563 3.101-.386.809-.515 1.731-.414 2.621-.441.383-1.086.676-1.183 1.321-.086.519.328 1.046.851 1.093.426.09.86.039 1.282.094.199.352.187 1.035-.387.856-.457-.067-.77.324-.738.75-.145 1.054.062 2.207.734 3.054.86.973 2.082 1.539 3.308 1.887 1.29.344 2.633.238 3.942.125 1.39-.145 2.781-.34 4.18-.274 1.648.043 3.297.157 4.949.192 1.324.051 2.652.031 3.976-.082 2.246-.11 4.496-.09 6.743.035 1.308.051 2.64-.027 3.898-.418 1.207-.301 2.516-.527 3.473-1.387.78-.683 1.254-1.664 1.402-2.675.117-.641.152-1.29.2-1.938-.231-.41-.735-.508-1.153-.598-.242.032-.547-.371-.121-.316.73-.051 1.285-.844 1.066-1.551-.039-.496-.636-.469-.828-.836-.027-.328.191-.64.117-.988-.054-1.211-.84-2.262-1.785-2.961-1.062-.801-2.34-1.297-3.644-1.516a5.6 5.6 0 0 0-1.399.004m.524.653c-.204.726.027 1.562-.45 2.203-.543.566-1.34.746-2.07.945-1.2.262-2.59.102-3.508-.777-.535-.512-.847-1.223-.945-1.949-.242-.305-1.035-.375-1.121.046a2.15 2.15 0 0 1-.926 1.45c-.816.523-1.723.906-2.652 1.179-.985.27-2.078.414-3.051.035a2.43 2.43 0 0 1-1.465-1.57 4.3 4.3 0 0 1-.191-1.262c-.383-.293-.891-.019-1.32-.046-.352.257-.321.765-.516 1.128-.262.598-.895.911-1.48 1.11-1.044.301-2.184.258-3.223-.059-.434-.168-.942-.343-1.184-.773-.195-.352-.215-.758-.293-1.145-.496-.125-.984.125-1.45.266-1.562.648-2.847 2.117-3.023 3.828-.035.473.036.949.215 1.383.457.168.953.027 1.426.086 2.54.027 5.07-.172 7.605-.192 1.66-.039 3.32-.046 4.973-.23a27 27 0 0 1 3.258-.137 24 24 0 0 0 3.234-.203c1.414-.141 2.836-.156 4.25-.215 1.684-.097 3.356-.25 5.04-.344 1.234-.089 2.48-.257 3.718-.109.277.024.617.067.8-.195.274-.352.138-.824-.023-1.196-.472-1.203-1.52-2.113-2.703-2.589a10 10 0 0 0-2.687-.684 1.2 1.2 0 0 0-.238.016m-8.856.187c-1.844.184-3.656.852-5.531.637-.504-.063-1-.215-1.453-.445-.36.191-.063.671-.051.98.293.914 1.242 1.473 2.168 1.523 1.371.122 2.7-.386 3.922-.945.605-.277 1.234-.711 1.36-1.414.089-.363-.13-.371-.415-.336m-9.832.156c-1.527.543-3.172.274-4.734.067-.274-.031-.711-.192-.614.254.004.574.45 1.043.965 1.238.969.426 2.086.367 3.094.117.629-.179 1.3-.512 1.586-1.129.105-.254.14-.8-.297-.547m17.883.067c-1.645.418-3.383.441-5.043.137-.274-.043-.777-.29-.684.199.137.402.34.801.63 1.121.886.961 2.402 1.246 3.585.711.492-.223 1.047-.324 1.473-.668.254-.192.41-.492.418-.813.062-.269.074-.875-.38-.687m2.414 1.375c-.11.414-.668.64-.563 1.113.434.125.665-.402.813-.715.121-.179.023-.593-.25-.398m.852.371c-.266.137-.7.836-.208.863.348-.14.438-.379.422-.734.028-.133-.113-.176-.215-.129m-10.454.734c-.14.293.606.516.344.133-.082-.066-.238-.305-.344-.133m-1.03.114c-.274.355.69.703.401.195-.097-.102-.242-.309-.402-.195m-16.282.16c-.32.195.129.855.379.508-.18-.133-.13-.457-.38-.508m-.75.312c-.192.262.387.809.492.559-.027-.242-.215-.567-.492-.559m6.957.047c-.414.031-.012.766.117.285.008-.093.094-.437-.117-.285m.687.367c-.402.141.153.586.207.125.028-.125-.109-.222-.207-.125m22.309 1.246c-2.434.145-4.871.293-7.309.387-1.722.035-3.457-.047-5.164.223-1.136.152-2.28.195-3.425.246-5.508.289-11.02.676-16.536.555-.386.058-.39-.77-.84-.395-.34.129-.726.445-.632.848.133.39.62.433.976.406.606-.016 1.211-.106 1.762-.363.356.089.36.601.738.695.457.238 1.004.156 1.492.062.477-.128.899-.39 1.305-.664.59.715 1.715 1 2.531.512.215-.285.598-.578.88-.203.8.566 1.968.52 2.742-.078.273-.297.71-.434 1.074-.188.98.563 2.18.621 3.265.395.48-.098.891-.375 1.332-.57.54-.137 1.004.3 1.536.296 1.214.082 2.304-.582 3.468-.789a1.9 1.9 0 0 1 1.317.246c.531.243 1.117.493 1.71.411.614-.141.989-.797 1.637-.836.465.054.809.468 1.29.48.59.102 1.19.067 1.788.078.594-.414 1.34-.195 1.985-.054.363.07.738.156 1.105.074.25-.164-.183-.817.336-.664.617.234 1.297.34 1.953.265.403-.164.371-.879-.066-.98-.684-.367-1.484-.445-2.25-.395m-6.578 1.797c-.45.227-.996.403-1.23.883-.094.391.363.539.667.563 1.66.218 3.332.031 4.996.093.426-.199.364-.789.36-1.175-.2-.379-.738-.282-1.05-.114-.618.242-1.31.192-1.95.078-.488-.105-.961-.277-1.43-.441-.129-.004-.246.07-.363.113m-4.293-.039c-1.211.156-2.29.957-3.543.844-.324-.156-.848-.125-.707.363-.031.438.328.828.77.692 1.921-.008 3.824-.301 5.746-.344.343-.109.472-.844.027-.883-.453-.105-.867-.32-1.277-.531a2.26 2.26 0 0 0-1.016-.141m11.652.02c-.261.441-.828.461-1.277.433-.305-.011-.805-.246-.926.172-.066.309-.172.93.344.676.726-.055 1.469-.066 2.176-.27.175-.304.215-1.043-.266-1.031zm-32.3.59c-.575.05-.239.742-.243 1.097.082.434.59.235.89.239 2.524-.118 5.056-.016 7.579-.184.363.047.434-.524.02-.422-.45.055-.805-.203-1.176-.398-.418-.11-.692.363-1.114.371-.546.129-1.16.082-1.656-.192-.215-.289-.57-.496-.87-.183-.567.304-1.223.425-1.86.422-.383-.024-.797-.133-1.02-.477-.156-.184-.27-.473-.55-.273m15.44.043c-.995.41-2.1.8-3.183.515-.531-.129-1.02-.441-1.57-.492-.531.023-.937.406-1.398.629-.454-.145-.704.715-.149.633 1.938.086 3.875-.164 5.817-.149.394-.039.949.153 1.023-.398.18-.324.121-.969-.395-.774l-.074.02zm17.958.523c.094.445.078.973-.293 1.293-.367.383-.965.559-1.469.371-.386.227-.601.75-1.101.766-.852.086-1.512-.586-2.305-.754-.316-.071-.645.019-.914.187-.5.246-1.067.164-1.594.082-.668-.101-1.36-.144-2.008.067-.445.144-.879-.039-1.3-.133-.454-.004-.88.219-1.332.148-1.02-.047-2.036-.343-3.06-.172-1.19.141-2.382.457-3.589.305-.918-.066-1.855-.156-2.766.039-.699.094-1.453.098-2.085-.246-.524.039-.973.344-1.481.438-.652.179-1.379.183-1.992-.129-.531-.106-.95.34-1.457.398-.88.188-1.809-.113-2.508-.664-.457-.133-.867.207-1.312.262-.532.156-1.18.246-1.641-.133-.149-.238.121-1.055-.402-.73-.352.332-.297.863-.262 1.3.18 1.2 1.144 2.129 2.21 2.606 1.595.722 3.387.746 5.106.722 1.63-.062 3.25-.265 4.88-.25 3.339-.019 6.679.282 10.01-.003a34 34 0 0 1 4.907.082c1.79.105 3.59-.129 5.32-.582.582-.176 1.188-.336 1.7-.672.906-.657 1.304-1.774 1.527-2.828a8.3 8.3 0 0 0 .164-1.387c-.203-.317-.613-.371-.953-.383m-.57.25c-.743.184-1.496.336-2.266.324-.383.02-.781.055-1.129.242-.605-.019-1.207-.082-1.812-.039-1.278.039-2.586.207-3.832-.156-.254-.168-.59-.199-.743.098-.43.211-.918.031-1.375.078-1.105.008-2.21.148-3.312.234-.516.063-1.031.164-1.55.141-.34-.152-.708-.485-1.04-.121-.367.117-.762.054-1.145.07-1.09-.035-2.183-.144-3.27.012-.886.094-1.788.238-2.679.082-.695-.293-1.449-.113-2.18-.125-1.285.023-2.574.004-3.859.101-.965.071-1.93.024-2.898.071-.469.222-.219.945.297.758.714.007 1.367-.329 2.047-.504.472.043.707.554 1.148.683.668.289 1.418.078 2.039-.226.379-.161.824-.215 1.2-.016.71.246 1.476.102 2.187-.062.375-.047.683-.344 1.058-.325.39.106.754.332 1.176.297.86.016 1.695-.289 2.55-.211 1 .024 2.017.211 3-.047 1.938-.343 3.907.227 5.84-.136.41.019.798.297 1.223.136.586-.101 1.18-.238 1.778-.136.644.054 1.312.261 1.953.062.414-.219.906-.371 1.351-.129.676.25 1.336.731 2.09.617.504-.05.621-.836 1.121-.746.47.11 1.09 0 1.285-.5.063-.152.004-.621-.253-.527m-22.098 2.488c-.379.446.644.278.3-.097-.105-.071-.269-.032-.3.097m.816.512c-.359.039-.046.629.121.246.106-.098.067-.391-.12-.246m9.778.121c-.047.238.242.906.472.516 0-.207-.207-.692-.472-.516m-1.633.063c-.086.203.2.886.375.519-.024-.18-.063-.769-.375-.519m-16.328.441c-.2.238.273.789.246.27-.008-.114-.082-.45-.246-.27m-1.02.09c-.156.281.301.906.508.605-.098-.218-.215-.66-.484-.629l-.016.012z"/><path fill="#f8eee5" d="M39.246-101.348c.461.246.426.957-.035 1.168-.531.211-.992-.285-.813-.812a.59.59 0 0 1 .848-.356m6.7.176c.28.106.35.496.175.707-.25.32-.742.18-.781-.211 0-.39.285-.637.605-.496m-1.633 2.871c2.054.176 3.722.672 4.96 1.453l.356.246-.106.25c-2.02 5.067-12.687 6.696-18.105 2.727-.215-.14-.355-.281-.355-.316 3.117-2.766 9.07-4.715 13.25-4.36m-.036.567c.711.175.782.53.18 1.132l-.355.356.07.39c.035.282.035.497 0 .672-.07.32-.035.356.105.426.25.14.676.035 1.028-.25.25-.176.285-.176.18.074-.286.496-.958.743-1.419.496-.175-.074-.214-.074-.25-.035-.46.532-1.949.496-2.55-.109-.317-.316-.356-.496-.035-.246 1.027.777 2.55.355 2.55-.711-.035-.637-.035-.672-.425-.813-.567-.214-1.133-.636-1.133-.886 0-.356 1.347-.672 2.054-.496m-3.082 6.875c.817 1.132 2.055 3.578 2.621 5.101l.145.32-.426.282c-1.773 1.133-1.172 4.219.852 4.465l.246.035-.07.39c-.922 5.848-7.973 5.918-8.895.106l-.035-.211.285.176c3.684 2.02 6.164-2.766 2.55-4.996a11.6 11.6 0 0 1-1.562-1.168l-.246-.215.14-.848c.18-1.062.286-2.02.356-2.906l.035-.64.426.038c.461.036 3.188 0 3.367-.039.106-.035.141 0 .211.11"/><path fill="#e1bc97" d="M38.008-125.055c.742.145 1.488.676 1.629 1.453.21 1.028.035 2.09-.246 3.082-.887 2.551-2.73 4.68-3.508 7.301-.25.852-.25 1.735-.145 2.586-.175.07-.847.32-.39.25 2.445-.355 5.105-.496 7.441.531 1.984.848 3.438 2.692 4.29 4.676.636 1.629 1.417 3.227 2.089 4.856.426 1.097.887 2.3.531 3.472 0 .387-.246.106-.426 0-2.125-1.347-4.746-1.629-7.226-1.453-3.899.32-7.727 1.809-10.809 4.25-.246.11-.035.426-.316.145-.922-.957-1.774-1.985-2.235-3.227-1.203-2.836-.742-6.164.887-8.715 1.028-1.703 2.516-3.047 4.215-4.039.215-.25-.637.317-.707-.144-1.629-2.16-2.941-4.782-2.871-7.582.07-2.375 1.242-4.676 3.152-6.094 1.313-.957 2.977-1.664 4.645-1.348m-.18 2.41c.285.071 1.027.497.356.321-.672-.285-.496.601-.532 1.027-.035 1.309-.496 2.551-1.062 3.684-.707 1.523-1.594 2.976-2.02 4.605-.035.285-.105.606-.14.887.14.355.316.676.386 1.027-.636-.777-1.062-1.734-1.379-2.726-.675-2.235-.57-4.75.497-6.875.566-1.098 1.629-2.125 2.937-2.09.32 0 .676.035.957.14m12.723 1.559c1.383.285 2.836.957 3.578 2.234.32.532.32 1.274-.035 1.805-.746 1.348-2.196 1.984-3.543 2.555-2.375.953-4.926 1.414-7.196 2.586a5.7 5.7 0 0 0-1.449 1.168c-.64-.141-1.277-.25-1.914-.356.035-1.804.426-3.648 1.274-5.242 1.312-2.516 3.828-4.465 6.699-4.82a9 9 0 0 1 2.586.07m-.532 2.094c1.028.211 2.126.883 2.301 1.98.11.391-.21-.281-.316-.351-.18-.285-.32-.071-.461.105-.852.887-1.844 1.664-3.012 2.125-1.738.707-3.613 1.203-5.281 2.199-.566.317-.957.883-1.168 1.524-.176.246.035-.496.035-.641.531-2.656 2.27-5.101 4.676-6.379.992-.496 2.129-.777 3.227-.562m-9.992 16.933c1.168.391 1.664 1.914 1.098 2.942-.426.957-1.734 1.418-2.586.746-1.062-.781-1.098-2.59-.035-3.367.426-.356 1.027-.496 1.523-.321m6.73.321c.993.601 1.063 2.09.391 2.941-.425.602-1.453.637-1.914.035-.742-.886-.601-2.48.461-3.011a1.13 1.13 0 0 1 1.063.035M34.357-91.606c.816.286 1.667.426 2.515.567 0 1.348-.176 2.695-.387 4.004-.215.426-.566-.457-.746-.637-.531-.851-.992-1.734-1.308-2.691-.145.07.105.847.175 1.168.532 1.949 2.09 3.437 3.72 4.5.745.496 1.487 1.207 1.452 2.16 0 .18.07.426-.21.46-.426.286-.993.286-1.454.036.176.25.707.426 1.098.426.531-.176.426.18.14.425-.386.567-1.238.747-1.84.391-.425-.035 1.063.531.282.496-1.383.106-2.586-.851-3.437-1.879-1.594-1.879-2.337-4.5-1.7-6.875.25-.918.637-1.84 1.242-2.586.141-.105.317 0 .457.035m8.007.958c1.774 1.453 3.367 3.261 4.078 5.457.317 1.132.387 2.55-.425 3.507-.25.32-.637.496-1.028.567.246-.211.461-.461.602-.742-.426.46-1.098.742-1.7.496-.214-.11-.535-.39-.605-.567.606 0 1.137-.355 1.348-.886-.356.32-.852.707-1.383.496-.46-.32-.39-.993-.316-1.453.14-.602.672-.993 1.132-1.313.567-.426.957-1.133.887-1.84-.18.352-.355.778-.64 1.063-.672-1.703-1.524-3.332-2.481-4.926-.46-.781.355.035.531.14m-10.379 4.004c.211 2.125 1.203 4.18 2.797 5.632.567.25.64.817.711 1.383.317 1.664 1.489 3.262 3.153 3.793.992.355 2.09.281 3.046-.07a10.6 10.6 0 0 1-3.828 1.523c-.496-.144-.457-.922-.742-1.312-.71-1.453-1.559-2.942-2.906-3.828-.567-.387-1.309-.532-1.914-.211-.672-.07-1.453-.211-2.055.32a1.76 1.76 0 0 0-.777 1.91c-.145.215-.285 1.137-.496.531-.746-1.308-.746-2.902-.25-4.285.566-1.734 1.773-3.117 2.62-4.715.18-.246.462-1.023.606-.953 0 .07.035.176.035.282m-4.785 2.8c.496.14.852.496 1.098.922.215-.18.746-.887.992-.64-1.062 1.632-1.664 3.652-1.203 5.566.07.527.46 1.023.531 1.523-.531.106-1.027-.144-1.383-.535-.316 0-.636.145-.957.035-.847-.175-1.418-1.168-1.097-1.984.355-.672-.778-.246-.922-.812-.39-.532-.035-1.383.64-1.454.247 0 .602.07.352-.25-.46-.953.18-2.265 1.242-2.406.246-.035.496-.035.707.035m22.395 2.871c.566.035 1.133.532 1.168 1.133.07.317-.176 1.028-.07 1.063.285-.391.285-.922.355-1.383.39.637.176 1.453-.07 2.125-.356.781-.887 1.453-1.418 2.129-.25-.32-.711-.39-1.063-.215-1.027.39-1.879 1.168-2.445 2.129-.32.351.105 1.308-.672.918-.676-.211-1.102-.813-1.738-1.028-.887-.386-1.844-.566-2.762-.777 1.77-.887 3.363-2.375 3.93-4.324.214-.426.425.496.601.71.39.497.04 1.099-.031 1.665-.074.21-.11.707.07.246.496-1.098.957-2.266 1.84-3.152.39-.426 1.137-.391 1.453.07.285.355.285.781.25 1.203-.105-.637-.922-.352-.957.18-.215.707.778.672.852.07.21-.39-.145.672.14.14.391-.671.496-1.663-.18-2.195-.14-.25-1.097-.285-.456-.53.386-.141.777-.286 1.203-.177m.922 1.098c.351.422.105 1.203-.356 1.453-.672.106-.496-.922-.21-1.277.14-.14.35-.32.566-.176m-16.727.602c1.027.601 1.703 1.664 2.34 2.691.742 1.383 1.453 2.871 1.594 4.465.07.531-.035 1.312-.707 1.348-1.098.14-2.125-.356-3.118-.817-1.492-.777-2.941-1.805-3.863-3.258-.39-.637-.601-1.418-.285-2.129.355.5.957.817 1.559.996-.567-.57-1.309-1.101-1.344-1.988.07-.883 1.027-1.664 1.914-1.308.707.246 1.098.886 1.414 1.488.07-.285-.246-1.028-.531-1.418-.176-.531.781-.176 1.027-.07m.32.425c.532.317.106 1.239-.425.778-.567-.246-.356-1.344.32-.848l.035.035zm-2.27.387c.532.25.958.957.642 1.488-.426.461-1.172.11-1.383-.386-.285-.391-.211-1.102.39-1.102a.67.67 0 0 1 .352 0m-1.308 2.484c.742.352.106 1.415-.496.778-.566-.426-.07-1.274.496-.778m4.145.282a3.82 3.82 0 0 1 2.304 2.726c.141.606-.144 1.383-.851 1.492-.922.07-1.773-.605-2.34-1.277-.531-.637-.957-1.488-.742-2.34.176-.707 1.027-.847 1.629-.601"/><path fill="#f8b2b0" d="M37.156-121.477c-.035 1.528-.25 2.27-1.097 4.043-1.207 2.481-1.63 3.579-1.774 4.536l-.035.316-.246-.707c-1.453-4.395-.106-8.539 2.941-9.035l.246-.035zm12.899 3.012c.39.074 1.238.426 1.347.57.035.071-.675.813-1.207 1.239-.851.711-1.453 1.027-2.87 1.558-2.692 1.028-3.614 1.453-4.536 2.2l-.14.105.105-.32c1.703-3.864 4.465-5.879 7.3-5.352m.46 38.766c.282.39-.285 1.488-.605 1.097-.176-.21-.07-.777.215-1.062.14-.176.281-.176.39-.035m-16.511.992c.246.246.246.566 0 .601-.25.036-.602-.46-.461-.707.07-.144.281-.105.46.106m14.738.035c.106.07.07.39-.035.602-.246.32-.566.285-.566-.07 0-.391.39-.743.601-.532m-16.902.426c.11.07.285.176.355.281.637.711-.035 1.453-.742.817-.676-.602-.355-1.489.387-1.098m17.223 2.125a.64.64 0 0 1 .246.215l.109.105-.57.567c-.953.921-2.442 2.054-2.762 2.054-.14 0 .14-.707.496-1.203.816-1.172 1.879-1.914 2.48-1.738m-18.602.285c.426.317.246.852-.215.567-.176-.07-.316-.32-.316-.462 0-.246.28-.32.53-.105m4.039.246c1.273.39 2.48 1.984 2.336 3.082-.176 1.563-2.516.817-3.434-1.098-.605-1.347-.074-2.335 1.098-1.984"/><path d="M37.938-125.516c1.593.25 2.23 1.067 2.23 2.871 0 1.704-.426 2.907-2.125 5.848-1.523 2.727-1.914 3.754-1.914 5.207 0 .852 0 .852.566.711.746-.18 1.168-.215 2.02-.25h.816l.035-.566c.32-4.996 3.012-8.539 7.297-9.637 4.996-1.277 9.711 1.949 7.266 4.996-1.133 1.383-2.445 2.09-6.2 3.223-3.226.957-4.394 1.488-5.245 2.234l-.32.316.46.18c2.305.992 3.758 2.586 4.89 5.387.25.566.602 1.379.782 1.84 1.133 2.515 1.523 3.472 1.664 4.183.781 3.47-2.02 6.446-7.086 7.617l-.601.141.46.356c4.32 3.613 5.739 9.28 2.477 10.097-.457.106-.457.461-.105 1.098.144.25.32.566.39.707.176.355.176.355.32.039.993-2.094 3.083-3.121 4.43-2.164.106.07.282.18.387.18 1.879.386.781 3.789-2.02 6.34-2.37 2.164-3.402 2.445-4.675 1.277-.461-.426-1.809-.887-3.473-1.172l-.566-.07-.602.18c-.32.105-.816.245-1.098.316-.32.07-.57.11-.57.11s.074.28.145.6c.21.813.28 1.56.21 1.95-.495 2.902-7.972-.676-8.964-4.254-.14-.46-.176-.496-.39-.426-.497.11-1.204 0-1.56-.316-.14-.106-.175-.145-.601-.145-1.203 0-2.02-.812-2.02-1.98v-.426l-.285-.144c-.992-.532-.918-2.055.11-2.516.175-.035.246-.106.21-.14-.53-1.915 1.985-3.473 3.473-2.126l.176.176.215-.14c.281-.176.672-.32.922-.32.246 0 .386-.177 1.238-1.665.992-1.773 1.277-2.34 1.383-2.941a9.4 9.4 0 0 1 1.168-2.836l.215-.352-.25-.11c-7.157-2.902-7.582-13.956-.707-17.433l.28-.14c.036 0-.14-.211-.316-.497-3.296-4.464-3.617-9.175-.851-12.578 1.629-2.019 4.254-3.187 6.308-2.836m.07.461c1.383.321 1.879 1.207 1.699 2.977-.176 1.488-.531 2.41-2.02 4.996-1.734 3.047-2.124 4.289-1.984 6.133l.035.316-.316.145c-.426.175-.39.175.351.066 6.024-.883 9.532.852 11.48 5.672.392.957.567 1.348 1.278 2.941 1.239 2.727 1.489 3.684 1.168 4.996-1.168 4.711-10.418 7.051-16.617 4.18-6.98-3.187-6.695-12.859.496-17.078.39-.25.426-.281.07-.176-.39.106-.39.106-.707-.355-2.836-3.793-3.472-7.547-1.843-10.738 1.347-2.727 4.5-4.571 6.91-4.075m-.18 2.41c.25.071.711.321.711.391 0 0-.14-.035-.355-.07-.532-.106-.496-.145-.532.707-.07 1.738-.32 2.515-1.523 4.961-1.168 2.304-1.523 3.152-1.629 4.109l-.07.391.21.566c.286.641.25.641-.105.145-3.226-4.821-.922-12.543 3.293-11.2m-.672 1.168c-.035 1.528-.25 2.27-1.097 4.043-1.207 2.481-1.63 3.579-1.774 4.536l-.035.316-.246-.707c-1.453-4.395-.106-8.539 2.941-9.035l.246-.035zm13.395.391c2.48.461 4.285 2.27 3.718 3.688-.671 1.593-2.265 2.55-6.519 3.859-3.543 1.101-4.781 1.668-5.633 2.551l-.21.25-.606-.106c-.352-.07-.707-.144-.813-.179-.105 0-.285-.036-.355-.071h-.14l.034-.636c.317-6.059 5.137-10.348 10.524-9.356m-.532 2.094c1.204.246 2.196 1.062 2.301 1.945l.035.215-.14-.25c-.106-.106-.211-.281-.281-.316l-.145-.145-.426.461c-1.238 1.207-2.054 1.703-4.074 2.41-3.719 1.348-4.64 1.879-5.066 2.906-.246.637-.282.637-.141-.105.707-4.219 4.676-7.762 7.938-7.121m.036.527c.39.074 1.238.426 1.347.57.035.071-.675.813-1.207 1.239-.851.711-1.453 1.027-2.87 1.558-2.692 1.028-3.614 1.453-4.536 2.2l-.14.105.105-.32c1.703-3.864 4.465-5.879 7.3-5.352m-10.028 16.406c1.84.676 1.735 3.473-.105 3.934-1.242.32-2.375-.887-2.2-2.305.18-1.168 1.313-1.98 2.305-1.629m6.73.321c1.384.777.923 3.402-.566 3.402-1.097.035-1.77-1.488-1.203-2.695.352-.778 1.133-1.063 1.77-.707m-7.476.39c.215.141.32.317.32.602a.623.623 0 0 1-1.062.461c-.566-.496.105-1.453.742-1.063m6.77.211c.176.106.246.391.14.602-.175.426-.78.32-.851-.176-.07-.391.39-.672.71-.426m-2.02 3.403c.922.14 1.028.671.282 1.273l-.176.145v.742c0 .71 0 .746.105.816.25.176.746.07 1.098-.25.215-.176.215-.14.07.11-.281.496-.883.671-1.414.425-.144-.074-.18-.074-.25 0-.602.532-2.195.422-2.586-.215-.176-.285-.14-.32.035-.14.567.496 1.914.531 2.375.035.211-.25.282-.531.211-1.203l-.035-.25-.281-.106c-1.703-.53-1.242-1.667.566-1.382m-9.675 6.128c.496.18 1.417.391 1.984.497l.531.07v.531c0 .852-.352 3.512-.46 3.617-.177.211-1.485-2.054-1.84-3.156q-.322-.85-.106.215c.316 1.95 1.523 3.578 3.648 4.996 1.203.777 1.664 1.418 1.664 2.23v.426l-.28.176c-.392.18-.852.18-1.243.035-.281-.14-.211-.035.105.145.32.176.746.246 1.067.21.246-.07.281-.07.07.25-.46.708-1.207.958-1.914.602-.25-.105-.25-.105-.14 0 .07.035.245.14.386.246.39.18.32.215-.316.215-1.985 0-4.29-2.55-4.89-5.386a7.32 7.32 0 0 1 1.062-5.669c.25-.39.25-.39.672-.25m8.007.958c3.121 2.55 4.75 5.632 4.184 7.902-.18.852-.746 1.488-1.383 1.594l-.176.035.211-.211c.106-.106.25-.25.285-.356l.106-.175-.211.175c-.57.532-1.418.532-1.914 0l-.18-.21.25-.075c.356-.035.707-.246.922-.566.246-.317.246-.387 0-.14-.566.566-1.348.53-1.488-.036-.25-.852.035-1.664.777-2.125.781-.496 1.207-1.207 1.207-1.879v-.21l-.11.21c-.21.461-.495.887-.53.852s-.141-.32-.282-.676c-.355-.848-1.277-2.692-1.879-3.684-.636-1.097-.636-1.133.211-.425m-.742.46c.957 1.524 1.523 2.657 2.055 3.97.355.886.355.78-.106 1.062-1.773 1.133-1.242 4.074.778 4.465.355.035.355 0 .215.672-.32 1.597-1.313 3.12-2.305 3.582-3.117 1.484-6.164-.215-6.59-3.653l-.035-.281.426.21c3.789 1.774 5.882-2.726 2.34-5.03-.747-.496-1.313-.957-1.598-1.239l-.14-.144.105-.813c.215-1.277.32-1.949.32-2.8l.035-.817.531.035c.672.075 2.235.075 2.942 0l.566-.035zm-9.637 3.544c.211 2.304 1.559 4.785 3.258 5.988.07.07.106.14.145.46.422 3.403 3.258 5.352 6.27 4.29.25-.07-.497.351-1.063.637-.707.316-1.559.601-2.27.78-.672.141-.636.177-.847-.355-1.383-3.508-3.473-5.562-4.996-4.96-.286.105-.32.105-.497.07-1.277-.461-2.8.777-2.515 2.02.035.175.035.245-.035.355-.075.07-.145.28-.18.425-.106.317-.14.317-.426-.355-.848-1.809-.496-3.934 1.102-6.344a59 59 0 0 0 1.593-2.691c.211-.39.387-.711.387-.711.04 0 .04.144.074.39m-4.785 2.8c.356.106.746.387.957.707.211.285.176.285.356 0 .14-.21.39-.39.672-.46.175-.071.175-.071-.106.39-1.277 2.09-1.488 4.465-.601 6.273.246.496.246.461-.145.461-.352 0-.637-.109-.922-.39l-.21-.18-.282.07a1.52 1.52 0 0 1-1.809-1.308c-.035-.211 0-.39.141-.957.035-.106 0-.106-.176-.106a.93.93 0 0 1-.957-.957c0-.531.39-.922.992-.922h.246l-.14-.32c-.531-1.309.637-2.691 1.984-2.3m22.395 2.871c.992.141 1.383.883 1.062 2.16-.035.141-.035.141.035.036.141-.18.32-.746.32-1.098 0-.356.071-.356.176 0 .25.918-.21 2.16-1.277 3.508l-.351.46-.215-.179c-.813-.742-3.79 1.773-3.438 2.906.11.426-.883.106-1.52-.496-.425-.39-1.527-.781-3.12-1.097l-.387-.106.352-.18c1.738-.957 3.011-2.37 3.542-3.968.145-.496.11-.496.496.285.391.746.391.707.25 1.238-.14.461-.25 1.207-.214 1.137.035 0 .144-.25.25-.496 1.168-2.621 2.02-3.543 2.906-3.047q.582.316.531 1.168v.281l-.07-.176c-.25-.601-1.102.07-.887.672.176.426.672.25.852-.246.07-.25.105-.105.035.176-.074.25.035.11.21-.246.462-1.063.141-1.985-.78-2.235-.141-.035-.246-.105-.211-.105.07-.14.922-.426 1.132-.39 0 0 .145 0 .32.038m.922 1.098c.28.176.21.918-.11 1.273-.422.461-.847.07-.672-.53.145-.602.496-.923.782-.743m0 .176c.28.39-.285 1.488-.606 1.097-.176-.21-.07-.777.215-1.062.14-.176.281-.176.39-.035m-16.727.426c2.2 1.097 4.961 7.582 3.578 8.398-1.062.602-4.285-.781-6.234-2.66-1.277-1.203-1.735-2.336-1.453-3.293l.07-.145.18.215c.246.285.601.531 1.027.672l.352.11-.532-.497c-.922-.921-1.062-1.633-.386-2.375.812-.921 2.015-.566 2.726.778.14.285.246.39.211.32-.105-.602-.246-1.027-.531-1.348-.316-.425.285-.53.992-.175m.32.425c.391.387.32.852-.105.883-.32.04-.781-.496-.676-.847.11-.32.461-.32.781-.036m-.105.141c.246.246.246.566 0 .601-.25.036-.602-.46-.461-.707.07-.144.281-.105.46.106m14.738.035c.106.07.07.39-.035.602-.246.32-.566.285-.566-.07 0-.391.39-.743.601-.532m-16.902.211c.887.39 1.027 1.703.18 1.703-1.028 0-1.524-1.629-.532-1.703.14-.031.282 0 .352 0m0 .215c.11.07.285.176.355.281.637.711-.035 1.453-.742.817-.676-.602-.355-1.489.387-1.098m17.223 2.125a.64.64 0 0 1 .246.215l.109.105-.57.567c-.953.921-2.442 2.054-2.762 2.054-.14 0 .14-.707.496-1.203.816-1.172 1.879-1.914 2.48-1.738m-18.532.144c.211.141.39.496.317.672-.141.567-.992.246-1.063-.39-.035-.39.356-.567.746-.282m-.07.141c.426.317.246.852-.215.567-.176-.07-.316-.32-.316-.462 0-.246.28-.32.53-.105m4.215.14c1.523.532 2.73 2.587 2.195 3.65-.742 1.487-3.508-.212-3.86-2.337-.179-1.062.602-1.703 1.665-1.312m-.176.106c1.273.39 2.48 1.984 2.336 3.082-.176 1.563-2.516.817-3.434-1.098-.605-1.347-.074-2.335 1.098-1.984"/></g><path d="M199.727-120.727c-.762 0-.907 0-.907-.539v-2.078c.215.297.703.762 1.469.762 1.375 0 2.582-1.156 2.582-2.699 0-1.516-1.125-2.688-2.426-2.688-1.054 0-1.613.75-1.648.801v-.801l-1.664.129v.348c.836 0 .91.086.91.609v5.617c0 .539-.133.539-.91.539v.344c.312-.023.957-.023 1.293-.023.347 0 .992 0 1.301.023zm-.907-5.785c0-.226 0-.238.129-.429.36-.539.946-.766 1.399-.766.898 0 1.613 1.09 1.613 2.426 0 1.422-.813 2.461-1.731 2.461-.371 0-.718-.157-.957-.383-.277-.274-.453-.512-.453-.848zm9.094.621c0-.644 0-1.125-.527-1.589a2.2 2.2 0 0 0-1.481-.551c-.98 0-1.734.648-1.734 1.422 0 .347.226.515.5.515a.47.47 0 0 0 .492-.488c0-.492-.43-.492-.609-.492.273-.5.847-.715 1.328-.715.547 0 1.254.453 1.254 1.527v.481c-2.403.035-3.313 1.039-3.313 1.957 0 .945 1.102 1.242 1.828 1.242a1.63 1.63 0 0 0 1.555-1.051c.047.563.418.992.934.992.25 0 .941-.168.941-1.125v-.668h-.262v.668c0 .684-.289.778-.453.778-.453 0-.453-.633-.453-.813zm-.777 1.508c0 1.168-.875 1.563-1.387 1.563-.586 0-1.078-.43-1.078-1.004 0-1.574 2.031-1.719 2.465-1.742zm7.379-1.219c0-1.113 0-1.445-.274-1.828-.347-.468-.906-.539-1.312-.539-1.16 0-1.614.992-1.711 1.231h-.012v-1.231l-1.625.129v.348c.813 0 .91.086.91.672v3.234c0 .539-.133.539-.91.539v.348c.313-.024.957-.024 1.289-.024.348 0 .992 0 1.305.024v-.348c-.766 0-.91 0-.91-.539v-2.219c0-1.258.828-1.925 1.566-1.925.742 0 .91.609.91 1.339v2.805c0 .539-.133.539-.91.539v.348c.309-.024.957-.024 1.289-.024.348 0 .992 0 1.305.024v-.348c-.598 0-.895 0-.91-.359zm5.761.129c.262 0 .286 0 .286-.226 0-1.207-.645-2.332-2.09-2.332-1.364 0-2.414 1.234-2.414 2.715 0 1.578 1.218 2.734 2.543 2.734 1.421 0 1.961-1.289 1.961-1.539 0-.074-.059-.121-.133-.121-.094 0-.117.062-.141.121-.312 1.004-1.113 1.277-1.613 1.277-.504 0-1.707-.336-1.707-2.402v-.227zm-3.3-.226c.097-1.875 1.148-2.09 1.484-2.09 1.277 0 1.352 1.684 1.359 2.09zm322.953-46.93c-.766 0-.91 0-.91-.535v-2.082c.214.301.707.766 1.468.766 1.375 0 2.582-1.161 2.582-2.7 0-1.519-1.125-2.687-2.425-2.687-1.051 0-1.614.75-1.649.797v-.797l-1.66.129v.347c.836 0 .906.082.906.61v5.617c0 .535-.133.535-.906.535v.348c.309-.024.957-.024 1.289-.024.348 0 .992 0 1.305.024zm-.91-5.781c0-.231 0-.238.128-.434a1.73 1.73 0 0 1 1.399-.761c.898 0 1.613 1.085 1.613 2.425 0 1.422-.812 2.461-1.73 2.461-.371 0-.715-.156-.957-.383-.274-.277-.453-.515-.453-.847zm9.093.621c0-.649 0-1.125-.527-1.59a2.18 2.18 0 0 0-1.481-.551c-.98 0-1.734.645-1.734 1.422 0 .348.231.516.5.516a.47.47 0 0 0 .492-.492c0-.489-.429-.489-.609-.489.277-.504.848-.718 1.328-.718.547 0 1.254.457 1.254 1.531v.476c-2.402.036-3.313 1.039-3.313 1.961 0 .942 1.102 1.243 1.829 1.243.789 0 1.328-.477 1.554-1.051.047.562.418.992.934.992.25 0 .941-.168.941-1.125v-.668h-.261v.668c0 .68-.286.777-.454.777-.453 0-.453-.633-.453-.812zm-.777 1.504c0 1.172-.871 1.566-1.387 1.566-.586 0-1.078-.429-1.078-1.004 0-1.578 2.035-1.722 2.465-1.746zm7.281-1.219c0-1.109 0-1.445-.273-1.828-.348-.465-.91-.535-1.317-.535-1.16 0-1.609.988-1.707 1.226h-.011v-1.226l-1.625.129v.347c.812 0 .906.082.906.668v3.239c0 .539-.129.539-.906.539v.343c.308-.019.953-.019 1.289-.019.347 0 .992 0 1.3.019v-.343c-.761 0-.906 0-.906-.539v-2.223c0-1.254.824-1.922 1.567-1.922.738 0 .906.609.906 1.336v2.809c0 .539-.129.539-.906.539v.343c.308-.019.953-.019 1.289-.019.347 0 .992 0 1.3.019v-.343c-.593 0-.894 0-.906-.36zm5.762.133c.262 0 .285 0 .285-.227 0-1.207-.648-2.332-2.094-2.332-1.359 0-2.414 1.231-2.414 2.711 0 1.578 1.223 2.739 2.547 2.739 1.422 0 1.961-1.29 1.961-1.543 0-.071-.062-.118-.133-.118-.093 0-.117.059-.144.118-.309 1.003-1.11 1.281-1.614 1.281-.5 0-1.707-.336-1.707-2.403v-.226zm-3.301-.227c.094-1.879 1.149-2.093 1.481-2.093 1.281 0 1.351 1.687 1.363 2.093zm152.949 84.071c-.765 0-.91 0-.91-.54v-2.078c.219.297.707.762 1.473.762 1.375 0 2.582-1.156 2.582-2.699 0-1.516-1.125-2.688-2.43-2.688-1.051 0-1.609.754-1.648.801v-.801l-1.66.133v.348c.836 0 .91.082.91.61v5.613c0 .539-.133.539-.91.539v.347c.312-.027.957-.027 1.293-.027.343 0 .992 0 1.3.027zm-.91-5.785c0-.227 0-.239.133-.43a1.72 1.72 0 0 1 1.398-.766c.899 0 1.614 1.09 1.614 2.426 0 1.422-.813 2.465-1.731 2.465-.371 0-.718-.156-.957-.383-.277-.277-.457-.516-.457-.852zm9.098.621c0-.645 0-1.121-.527-1.59-.418-.379-.958-.547-1.485-.547-.976 0-1.73.644-1.73 1.422 0 .344.226.512.5.512a.47.47 0 0 0 .492-.489c0-.492-.43-.492-.61-.492.274-.5.848-.715 1.325-.715.55 0 1.258.453 1.258 1.528v.48c-2.403.035-3.313 1.039-3.313 1.957 0 .945 1.102 1.242 1.828 1.242a1.63 1.63 0 0 0 1.555-1.047c.047.559.418.989.93.989.253 0 .945-.168.945-1.121v-.672h-.262v.671c0 .68-.289.774-.453.774-.453 0-.453-.633-.453-.813zm-.777 1.507c0 1.168-.875 1.567-1.387 1.567-.586 0-1.078-.434-1.078-1.008 0-1.574 2.031-1.719 2.465-1.742zm7.281-1.218c0-1.114 0-1.446-.278-1.828-.347-.465-.906-.54-1.312-.54-1.16 0-1.613.993-1.711 1.23h-.012v-1.23l-1.625.133v.348c.813 0 .91.082.91.668v3.238c0 .535-.132.535-.91.535v.348c.313-.023.957-.023 1.293-.023.344 0 .989 0 1.301.023v-.348c-.766 0-.906 0-.906-.535v-2.223c0-1.253.824-1.925 1.562-1.925.742 0 .91.61.91 1.34v2.808c0 .535-.132.535-.91.535v.348c.313-.023.957-.023 1.293-.023.344 0 .989 0 1.301.023v-.348c-.598 0-.895 0-.906-.355zm5.758.129c.261 0 .285 0 .285-.227 0-1.207-.645-2.328-2.09-2.328-1.363 0-2.414 1.23-2.414 2.71 0 1.579 1.219 2.735 2.547 2.735 1.422 0 1.957-1.289 1.957-1.539 0-.07-.059-.117-.129-.117-.098 0-.121.058-.145.117-.308 1.004-1.109 1.278-1.613 1.278s-1.707-.333-1.707-2.403v-.226zm-3.297-.227c.093-1.875 1.144-2.09 1.48-2.09 1.278 0 1.352 1.684 1.363 2.09zm67.847-46.43c-.765 0-.91 0-.91-.535v-2.082c.219.301.707.766 1.473.766 1.375 0 2.582-1.157 2.582-2.699 0-1.516-1.125-2.688-2.43-2.688-1.051 0-1.609.75-1.648.801v-.801l-1.66.129v.348c.836 0 .91.082.91.609v5.617c0 .535-.133.535-.91.535v.348c.312-.023.957-.023 1.293-.023.343 0 .992 0 1.3.023zm-.91-5.781c0-.227 0-.238.133-.43a1.72 1.72 0 0 1 1.398-.765c.899 0 1.614 1.086 1.614 2.426 0 1.421-.813 2.46-1.731 2.46-.371 0-.718-.156-.957-.382-.277-.274-.457-.512-.457-.848zm9.098.621c0-.644 0-1.125-.527-1.59-.418-.383-.958-.55-1.485-.55-.976 0-1.73.644-1.73 1.421 0 .348.226.516.5.516a.47.47 0 0 0 .492-.488c0-.492-.43-.492-.61-.492.274-.5.848-.719 1.325-.719.55 0 1.258.457 1.258 1.531v.477c-2.403.039-3.313 1.039-3.313 1.961 0 .945 1.102 1.242 1.828 1.242a1.63 1.63 0 0 0 1.555-1.051c.047.562.418.992.93.992.253 0 .945-.168.945-1.125v-.668h-.262v.668c0 .684-.289.777-.453.777-.453 0-.453-.632-.453-.812zm-.777 1.504c0 1.172-.875 1.566-1.387 1.566-.586 0-1.078-.429-1.078-1.003 0-1.579 2.031-1.719 2.465-1.743zm7.378-1.219c0-1.109 0-1.441-.273-1.828-.348-.465-.91-.535-1.316-.535-1.157 0-1.61.988-1.707 1.23h-.012v-1.23l-1.625.129v.348c.812 0 .91.082.91.668v3.238c0 .539-.133.539-.91.539v.348c.312-.024.957-.024 1.289-.024.348 0 .992 0 1.305.024v-.348c-.766 0-.911 0-.911-.539v-2.223c0-1.254.825-1.922 1.567-1.922.738 0 .91.61.91 1.336v2.809c0 .539-.133.539-.91.539v.348c.308-.024.957-.024 1.289-.024.348 0 .992 0 1.305.024v-.348c-.598 0-.899 0-.911-.359zm5.762.133c.262 0 .285 0 .285-.226 0-1.207-.644-2.332-2.09-2.332-1.363 0-2.414 1.234-2.414 2.714 0 1.578 1.219 2.735 2.543 2.735 1.422 0 1.961-1.289 1.961-1.539 0-.075-.058-.121-.133-.121-.093 0-.117.058-.14.121-.313 1-1.113 1.277-1.613 1.277-.504 0-1.711-.336-1.711-2.402v-.227zm-3.301-.226c.094-1.875 1.149-2.094 1.481-2.094 1.281 0 1.351 1.687 1.363 2.094zM82.606-22.852c0-.687 0-.718-.598-.718-.719.808-2.211 1.914-5.29 1.914v.867c.688 0 2.18 0 3.825-.777V-6c0 1.074-.09 1.434-2.719 1.434h-.926v.867c.805-.059 3.704-.059 4.692-.059.984 0 3.855 0 4.66.059v-.867h-.926c-2.629 0-2.718-.36-2.718-1.434zm89.542 14.133h-.66c-.09.508-.328 2.149-.625 2.63-.211.269-1.914.269-2.808.269h-5.532c.809-.688 2.633-2.602 3.407-3.317 4.543-4.183 6.218-5.738 6.218-8.695 0-3.437-2.718-5.738-6.187-5.738-3.465 0-5.496 2.96-5.496 5.527 0 1.527 1.312 1.527 1.402 1.527.629 0 1.406-.449 1.406-1.406 0-.836-.57-1.406-1.406-1.406-.265 0-.328 0-.418.031.567-2.031 2.184-3.406 4.125-3.406 2.539 0 4.094 2.121 4.094 4.871 0 2.539-1.465 4.75-3.168 6.66l-6.035 6.754v.719h10.906zm77.45-5.707c-.508.028-.629.059-.629.328 0 .301.152.301.687.301h1.375c2.539 0 3.676 2.09 3.676 4.957 0 3.914-2.031 4.961-3.496 4.961-1.434 0-3.883-.687-4.75-2.66.957.148 1.82-.387 1.82-1.465 0-.863-.625-1.465-1.461-1.465-.718 0-1.496.422-1.496 1.555 0 2.66 2.66 4.844 5.977 4.844 3.554 0 6.183-2.723 6.183-5.739 0-2.75-2.211-4.902-5.078-5.41 2.602-.746 4.274-2.926 4.274-5.258 0-2.359-2.453-4.093-5.348-4.093-2.988 0-5.199 1.824-5.199 4.004 0 1.195.926 1.433 1.375 1.433.625 0 1.344-.445 1.344-1.344 0-.953-.719-1.375-1.375-1.375-.18 0-.239 0-.329.032 1.133-2.032 3.946-2.032 4.094-2.032.985 0 2.926.446 2.926 3.375 0 .57-.09 2.243-.953 3.528-.899 1.312-1.914 1.402-2.723 1.433zm90.289-8.726c0-.567 0-.715-.418-.715-.242 0-.328 0-.571.36l-8.992 13.952v.867h7.86v2.72c0 1.1-.063 1.402-2.243 1.402h-.597v.867c.687-.059 3.047-.059 3.887-.059.835 0 3.226 0 3.914.059v-.867h-.598c-2.152 0-2.242-.301-2.242-1.403v-2.718h3.019v-.868h-3.019zm-1.973 2.332v11.265h-7.262zm80.012 0a8.9 8.9 0 0 0 2.66.449c3.375 0 5.523-2.48 5.523-2.899 0-.12-.058-.27-.238-.27-.058 0-.117 0-.387.118a9.8 9.8 0 0 1-3.882.809c-1.973 0-3.379-.598-3.946-.836-.211-.09-.269-.09-.301-.09-.238 0-.238.18-.238.656v8.875c0 .54 0 .719.36.719.148 0 .179-.031.476-.39.84-1.227 2.242-1.942 3.735-1.942 1.585 0 2.363 1.465 2.601 1.973.508 1.164.539 2.628.539 3.765 0 1.133 0 2.836-.84 4.18-.656 1.078-1.82 1.824-3.136 1.824a4.624 4.624 0 0 1-4.454-3.527c.153.062.332.09.481.09.508 0 1.316-.297 1.316-1.313 0-.84-.57-1.316-1.316-1.316-.539 0-1.316.27-1.316 1.433 0 2.543 2.031 5.442 5.351 5.442 3.375 0 6.332-2.84 6.332-6.637 0-3.555-2.391-6.512-5.527-6.512-1.703 0-3.016.746-3.793 1.582zm84.949 6.722c0-7.558 3.676-8.754 5.289-8.754 1.074 0 2.152.329 2.719 1.227-.36 0-1.492 0-1.492 1.223 0 .656.449 1.226 1.222 1.226.746 0 1.254-.449 1.254-1.316 0-1.555-1.133-3.078-3.734-3.078-3.766 0-7.707 3.855-7.707 10.43 0 8.214 3.586 10.07 6.125 10.07 3.254 0 6.035-2.84 6.035-6.727 0-3.972-2.781-6.633-5.766-6.633-2.66 0-3.648 2.301-3.945 3.14zm3.676 10.22c-1.883 0-2.778-1.677-3.047-2.302-.27-.777-.57-2.242-.57-4.332 0-2.363 1.078-5.32 3.765-5.32 1.645 0 2.512 1.105 2.957 2.121.481 1.11.481 2.602.481 3.887 0 1.523 0 2.867-.571 4.004-.746 1.433-1.82 1.941-3.015 1.941m91.84-18.375v-.687h-7.2c-3.613 0-3.675-.387-3.793-.957h-.66l-.925 5.976h.656c.094-.539.359-2.39.75-2.719.238-.18 2.48-.18 2.898-.18h6.332l-3.168 4.544c-.804 1.164-3.82 6.062-3.82 11.68 0 .331 0 1.527 1.223 1.527 1.254 0 1.254-1.168 1.254-1.555v-1.496c0-4.45.718-7.918 2.121-9.918zm79.812 7.77c1.496-.809 3.676-2.184 3.676-4.692 0-2.601-2.512-4.394-5.258-4.394-2.957 0-5.289 2.183-5.289 4.902 0 1.016.301 2.031 1.137 3.047.328.387.355.418 2.449 1.883-2.898 1.343-4.395 3.347-4.395 5.527 0 3.164 3.02 5.14 6.067 5.14 3.316 0 6.098-2.452 6.098-5.59 0-3.046-2.153-4.39-4.485-5.823m-4.062-2.692c-.387-.27-1.586-1.043-1.586-2.508 0-1.941 2.035-3.168 4.035-3.168 2.152 0 4.062 1.555 4.062 3.704 0 1.824-1.312 3.289-3.047 4.242zm1.406 3.856 3.613 2.36c.778.507 2.153 1.433 2.153 3.257 0 2.27-2.301 3.824-4.692 3.824-2.539 0-4.723-1.851-4.723-4.332 0-2.332 1.704-4.215 3.649-5.11m89.687.927c0 7.05-3.136 8.515-4.929 8.515-.715 0-2.301-.09-3.047-1.137h.18c.21.063 1.285-.117 1.285-1.222 0-.66-.45-1.227-1.227-1.227s-1.254.508-1.254 1.285c0 1.852 1.492 3.11 4.094 3.11 3.734 0 7.352-3.977 7.352-10.461 0-8.035-3.348-10.04-5.977-10.04-3.289 0-6.188 2.75-6.188 6.696 0 3.941 2.782 6.633 5.77 6.633 2.211 0 3.344-1.613 3.941-3.14zm-3.824 1.554c-1.883 0-2.687-1.523-2.957-2.094-.476-1.132-.476-2.566-.476-3.914 0-1.672 0-3.105.777-4.332.535-.804 1.344-1.672 2.957-1.672 1.703 0 2.57 1.493 2.867 2.18.598 1.465.598 4.004.598 4.453 0 2.508-1.133 5.38-3.766 5.38m79.195-12.013c0-.687 0-.718-.597-.718-.715.808-2.211 1.914-5.289 1.914v.867c.687 0 2.179 0 3.824-.777V-6c0 1.074-.09 1.434-2.719 1.434h-.926v.867c.805-.059 3.704-.059 4.692-.059.984 0 3.855 0 4.66.059v-.867h-.926c-2.629 0-2.719-.36-2.719-1.434zm19.481 9.59c0-2.48-.148-4.898-1.227-7.168-1.222-2.484-3.375-3.14-4.839-3.14-1.731 0-3.852.867-4.957 3.347-.84 1.883-1.137 3.735-1.137 6.961 0 2.899.207 5.082 1.285 7.2 1.164 2.273 3.227 2.992 4.781 2.992 2.598 0 4.094-1.555 4.957-3.29 1.078-2.242 1.137-5.167 1.137-6.902m-6.094 9.59c-.957 0-2.898-.535-3.469-3.793-.328-1.793-.328-4.062-.328-6.156 0-2.45 0-4.66.477-6.422.508-2.004 2.035-2.93 3.32-2.93 1.133 0 2.867.688 3.434 3.258.39 1.703.39 4.063.39 6.094 0 2.004 0 4.273-.332 6.098-.566 3.285-2.449 3.851-3.492 3.851"/></g></svg>