<svg xmlns="http://www.w3.org/2000/svg" width="466pt" height="358pt" viewBox="0 -358 466 358"><g id="page1"><path fill="#ffd9b2" d="M10.004-142.434h5.953c1.633 0 3.2.649 4.355 1.805l4.895 4.895a2.554 2.554 0 0 0 3.61 0l4.894-4.895a6.16 6.16 0 0 1 4.355-1.805h67.766c1.41 0 2.551-1.14 2.551-2.55v-47.645a2.55 2.55 0 0 0-2.551-2.551H38.066a6.17 6.17 0 0 0-4.355 1.801l-4.895 4.899a2.554 2.554 0 0 1-3.609 0l-4.895-4.899a6.17 6.17 0 0 0-4.355-1.801H4.051a2.55 2.55 0 0 0-2.551 2.551v47.645c0 1.41 1.14 2.55 2.55 2.55z"/><path fill="none" stroke="#b25900" stroke-linecap="round" stroke-linejoin="round" stroke-width="3" d="M10.004-142.434h5.953c1.633 0 3.2.649 4.355 1.805l4.895 4.895a2.554 2.554 0 0 0 3.61 0l4.894-4.895a6.16 6.16 0 0 1 4.355-1.805h67.766c1.41 0 2.551-1.14 2.551-2.55v-47.645a2.55 2.55 0 0 0-2.551-2.551H38.066a6.17 6.17 0 0 0-4.355 1.801l-4.895 4.899a2.554 2.554 0 0 1-3.609 0l-4.895-4.899a6.17 6.17 0 0 0-4.355-1.801H4.051a2.55 2.55 0 0 0-2.551 2.551v47.645c0 1.41 1.14 2.55 2.55 2.55z"/><path fill="#b2ffff" d="M1.5-198.125h14.457c1.633 0 3.2.648 4.355 1.801l4.895 4.898a2.554 2.554 0 0 0 3.61 0l4.894-4.898a6.17 6.17 0 0 1 4.355-1.801h70.317v-52.75c-15.625-11.063-34.297-17.008-53.442-17.008S17.125-261.938 1.5-250.875z"/><path fill="none" stroke="#00b2b2" stroke-linecap="round" stroke-linejoin="round" stroke-width="3" d="M1.5-198.125h14.457c1.633 0 3.2.648 4.355 1.801l4.895 4.898a2.554 2.554 0 0 0 3.61 0l4.894-4.898a6.17 6.17 0 0 1 4.355-1.801h70.317v-52.75c-15.625-11.063-34.297-17.008-53.442-17.008S17.125-261.938 1.5-250.875z"/><path fill="#ffffb2" d="M153.738-109.613h5.953c1.633 0 3.2.648 4.356 1.804l4.894 4.899a2.554 2.554 0 0 0 3.61 0l4.894-4.899a6.16 6.16 0 0 1 4.356-1.804h271.015a2.55 2.55 0 0 0 2.551-2.551v-168.422c0-1.41-1.14-2.551-2.551-2.551H181.801a6.18 6.18 0 0 0-4.356 1.801l-4.894 4.898a2.55 2.55 0 0 1-3.61 0l-4.894-4.898a6.17 6.17 0 0 0-4.356-1.801h-11.906a2.55 2.55 0 0 0-2.551 2.551v168.422a2.55 2.55 0 0 0 2.551 2.551z"/><path fill="none" stroke="#b2b200" stroke-linecap="round" stroke-linejoin="round" stroke-width="3" d="M153.738-109.613h5.953c1.633 0 3.2.648 4.356 1.804l4.894 4.899a2.554 2.554 0 0 0 3.61 0l4.894-4.899a6.16 6.16 0 0 1 4.356-1.804h271.015a2.55 2.55 0 0 0 2.551-2.551v-168.422c0-1.41-1.14-2.551-2.551-2.551H181.801a6.18 6.18 0 0 0-4.356 1.801l-4.894 4.898a2.55 2.55 0 0 1-3.61 0l-4.894-4.898a6.17 6.17 0 0 0-4.356-1.801h-11.906a2.55 2.55 0 0 0-2.551 2.551v168.422a2.55 2.55 0 0 0 2.551 2.551z"/><path fill="#ffd9b2" d="M179.25-126.617h5.953c1.633 0 3.199.644 4.356 1.801l4.894 4.898c.996.996 2.61.996 3.61 0l4.894-4.898a6.15 6.15 0 0 1 4.356-1.801H461.32a2.553 2.553 0 0 0 2.551-2.555v-47.644a2.55 2.55 0 0 0-2.551-2.551H207.313a6.16 6.16 0 0 0-4.356 1.804l-4.894 4.895c-1 .996-2.614.996-3.61 0l-4.894-4.895a6.16 6.16 0 0 0-4.356-1.804h-11.906a2.55 2.55 0 0 0-2.551 2.551v47.644a2.553 2.553 0 0 0 2.551 2.555z"/><path fill="none" stroke="#b25900" stroke-linecap="round" stroke-linejoin="round" stroke-width="3" d="M179.25-126.617h5.953c1.633 0 3.199.644 4.356 1.801l4.894 4.898c.996.996 2.61.996 3.61 0l4.894-4.898a6.15 6.15 0 0 1 4.356-1.801H461.32a2.553 2.553 0 0 0 2.551-2.555v-47.644a2.55 2.55 0 0 0-2.551-2.551H207.313a6.16 6.16 0 0 0-4.356 1.804l-4.894 4.895c-1 .996-2.614.996-3.61 0l-4.894-4.895a6.16 6.16 0 0 0-4.356-1.804h-11.906a2.55 2.55 0 0 0-2.551 2.551v47.644a2.553 2.553 0 0 0 2.551 2.555z"/><path fill="#b2ffb2" d="m194.949-208.938 10.434 14.403a12.5 12.5 0 0 0 10.117 5.164h148.914c4.008 0 7.774-1.922 10.121-5.164l20.863-28.801a8.805 8.805 0 0 0 0-10.328l-20.863-28.801a12.49 12.49 0 0 0-10.121-5.164H215.5c-4.004 0-7.77 1.918-10.117 5.164l-20.863 28.801a8.79 8.79 0 0 0 0 10.328z"/><path fill="none" stroke="#00b200" stroke-linecap="round" stroke-linejoin="round" stroke-width="3" d="m194.949-208.938 10.434 14.403a12.5 12.5 0 0 0 10.117 5.164h148.914c4.008 0 7.774-1.922 10.121-5.164l20.863-28.801a8.805 8.805 0 0 0 0-10.328l-20.863-28.801a12.49 12.49 0 0 0-10.121-5.164H215.5c-4.004 0-7.77 1.918-10.117 5.164l-20.863 28.801a8.79 8.79 0 0 0 0 10.328z"/><path fill="#b2ffb2" d="m255.66-215.313 9.504 8.84c3 2.793 6.945 4.344 11.047 4.344h79.699c4.102 0 8.047-1.551 11.051-4.344l19.008-17.683a5.94 5.94 0 0 0 0-8.688l-19.008-17.687a16.24 16.24 0 0 0-11.051-4.344h-79.699a16.23 16.23 0 0 0-11.047 4.344l-19.008 17.687a5.93 5.93 0 0 0 0 8.688z"/><path fill="none" stroke="#00b200" stroke-linecap="round" stroke-linejoin="round" stroke-width="3" d="m255.66-215.313 9.504 8.84c3 2.793 6.945 4.344 11.047 4.344h79.699c4.102 0 8.047-1.551 11.051-4.344l19.008-17.683a5.94 5.94 0 0 0 0-8.688l-19.008-17.687a16.24 16.24 0 0 0-11.051-4.344h-79.699a16.23 16.23 0 0 0-11.047 4.344l-19.008 17.687a5.93 5.93 0 0 0 0 8.688z"/><path fill="#b2ffff" d="M145.234-286.086h14.457c1.633 0 3.2.652 4.356 1.805l4.894 4.898a2.554 2.554 0 0 0 3.61 0l4.894-4.898a6.18 6.18 0 0 1 4.356-1.805h273.566v-52.746a715.4 715.4 0 0 0-310.133 0z"/><path fill="none" stroke="#00b2b2" stroke-linecap="round" stroke-linejoin="round" stroke-width="3" d="M145.234-286.086h14.457c1.633 0 3.2.652 4.356 1.805l4.894 4.898a2.554 2.554 0 0 0 3.61 0l4.894-4.898a6.18 6.18 0 0 1 4.356-1.805h273.566v-52.746a715.4 715.4 0 0 0-310.133 0z"/><path d="M14.395-102.387c0-1.816-1.364-3.726-4.59-3.726-1.004 0-3.32 0-3.32 1.648 0 .645.452 1 .976 1 .144 0 .934-.043.957-1.051 0-.117.023-.14.527-.187.285-.024.598-.024.883-.024.55 0 1.363 0 2.153.594.859.668.859 1.34.859 2.031-1.41.051-2.797.145-4.277.625-1.196.407-2.727 1.262-2.727 2.891 0 1.695 1.508 3.129 3.73 3.129.766 0 2.246-.121 3.489-.98.476.789 1.672.835 2.582.835.574 0 1.144 0 1.144-.691s-.62-.691-.953-.691c-.621 0-1.101-.051-1.433-.192zm-1.555 3.633c0 .55 0 1.05-.98 1.504-.837.406-1.962.406-2.032.406-1.41 0-2.437-.765-2.437-1.742 0-1.41 2.558-2.223 5.449-2.223zm14.094-5.762h.62c.333 0 .977 0 .977-.691s-.644-.691-.976-.691h-2.63c-.335 0-.98 0-.98.691s.645.691.98.691h.598l-2.582 7.696-2.582-7.696h.598c.336 0 .98 0 .98-.691s-.644-.691-.98-.691h-2.629c-.332 0-.976 0-.976.691s.644.691.976.691h.621l2.75 8.223c.262.813.79.813 1.242.813s.98 0 1.243-.813zm12.058 2.129c0-1.816-1.36-3.726-4.586-3.726-1.004 0-3.324 0-3.324 1.648 0 .645.457 1 .98 1 .145 0 .934-.043.958-1.051 0-.117.023-.14.527-.187.285-.024.594-.024.883-.024.547 0 1.36 0 2.148.594.863.668.863 1.34.863 2.031-1.41.051-2.797.145-4.277.625-1.195.407-2.727 1.262-2.727 2.891 0 1.695 1.508 3.129 3.727 3.129.766 0 2.25-.121 3.492-.98.477.789 1.672.835 2.578.835.575 0 1.149 0 1.149-.691s-.621-.691-.957-.691c-.621 0-1.098-.051-1.434-.192zm-1.55 3.633c0 .55 0 1.05-.981 1.504-.836.406-1.961.406-2.031.406-1.41 0-2.438-.765-2.438-1.742 0-1.41 2.555-2.223 5.45-2.223zm13.948-3.848c0-2.343-1.1-3.441-3.062-3.441-1.625 0-2.676.91-3.082 1.363 0-.886 0-1.218-.953-1.218h-1.578c-.336 0-.957 0-.957.691s.62.691.957.691h.98v7.532h-.98c-.336 0-.957 0-.957.691s.62.691.957.691h3.512c.336 0 .957 0 .957-.691s-.621-.691-.957-.691h-.98v-4.329c0-2.316 1.624-3.343 2.917-3.343 1.383 0 1.672.789 1.672 2.148v5.524h-.98c-.333 0-.958 0-.958.691s.625.691.957.691h3.512c.336 0 .957 0 .957-.691s-.62-.691-.957-.691h-.976zm12.993-1.718c.285-.266.383-.36.383-.789 0-.789-.528-.789-.98-.789h-7.958c-.789 0-.98.191-.98.976v.957c0 .43 0 .981.765.981.785 0 .785-.524.785-.981v-.551h6.047l-7.597 7.34c-.285.262-.383.356-.383.785 0 .79.527.79.98.79h8.434c.789 0 .957-.215.957-.977v-1.219c0-.43 0-.98-.766-.98-.789 0-.789.523-.789.98v.813h-6.5zm11.512 1.933c0-1.816-1.364-3.726-4.59-3.726-1.004 0-3.32 0-3.32 1.648 0 .645.453 1 .976 1 .145 0 .933-.043.957-1.051 0-.117.023-.14.527-.187.286-.024.598-.024.883-.024.55 0 1.363 0 2.153.594.859.668.859 1.34.859 2.031-1.41.051-2.797.145-4.278.625-1.195.407-2.726 1.262-2.726 2.891 0 1.695 1.508 3.129 3.73 3.129.766 0 2.246-.121 3.489-.98.476.789 1.672.835 2.582.835.574 0 1.144 0 1.144-.691s-.62-.691-.953-.691c-.621 0-1.101-.051-1.434-.192zm-1.555 3.633c0 .55 0 1.05-.98 1.504-.837.406-1.962.406-2.032.406-1.41 0-2.437-.765-2.437-1.742 0-1.41 2.558-2.223 5.449-2.223zm14.187 4.516c0-.309-.168-.406-.5-.645-3.3-2.27-4.113-5.687-4.113-8.008 0-2.269.766-5.711 4.113-8.027.332-.238.5-.336.5-.645 0-.238-.12-.621-.691-.621-.598 0-2.367 1.387-3.465 2.938-1.34 1.863-2.008 4.086-2.008 6.355 0 2.657.957 4.875 1.957 6.29 1.102 1.527 2.844 2.984 3.516 2.984.57 0 .691-.406.691-.621m10.293-8.653a10.93 10.93 0 0 0-2.175-6.593c-.813-1.098-2.579-2.7-3.297-2.7-.551 0-.692.407-.692.621 0 .286.164.407.598.692 2.914 2.055 4.012 5.258 4.012 7.957 0 2.152-.692 5.664-4.11 8.031-.308.215-.5.336-.5.645 0 .215.14.62.692.62.597 0 2.367-1.386 3.465-2.937a11 11 0 0 0 2.007-6.336M22.223-169.18c0-1.289 0-2.246-1.051-3.179-.836-.762-1.91-1.098-2.961-1.098-1.961 0-3.469 1.289-3.469 2.844 0 .691.457 1.027 1.008 1.027.57 0 .977-.406.977-.98 0-.981-.86-.981-1.22-.981.552-1.004 1.7-1.433 2.653-1.433 1.102 0 2.512.91 2.512 3.058v.957c-4.805.07-6.621 2.078-6.621 3.918 0 1.891 2.199 2.484 3.656 2.484 1.578 0 2.652-.953 3.105-2.101.098 1.125.836 1.984 1.868 1.984.5 0 1.886-.336 1.886-2.246v-1.34h-.527v1.34c0 1.363-.57 1.555-.906 1.555-.91 0-.91-1.27-.91-1.625zm-1.551 3.012c0 2.34-1.746 3.129-2.774 3.129-1.171 0-2.148-.859-2.148-2.008 0-3.152 4.063-3.441 4.922-3.488zm13.18-4.66c.214-.527.62-1.555 2.148-1.578v-.696c-.691.051-1.027.051-1.766.051-.504 0-.863 0-1.96-.051v.696c1.003.047 1.12.765 1.12 1.027 0 .215-.046.336-.167.621l-2.438 6.164-2.676-6.738c-.117-.332-.14-.332-.14-.453 0-.621.906-.621 1.336-.621v-.696c-.598.051-1.84.051-2.485.051-.789 0-.836 0-2.293-.051v.696c1.336 0 1.578.093 1.864.836l3.418 8.554c.117.336.164.453.453.453.168 0 .312-.046.476-.453zm10.472 1.648c0-1.289 0-2.246-1.05-3.179-.837-.762-1.915-1.098-2.965-1.098-1.957 0-3.465 1.289-3.465 2.844 0 .691.453 1.027 1.004 1.027.574 0 .98-.406.98-.98 0-.981-.86-.981-1.219-.981.551-1.004 1.696-1.433 2.653-1.433 1.097 0 2.508.91 2.508 3.058v.957c-4.801.07-6.618 2.078-6.618 3.918 0 1.891 2.2 2.484 3.657 2.484 1.574 0 2.652-.953 3.105-2.101.094 1.125.836 1.984 1.863 1.984.504 0 1.887-.336 1.887-2.246v-1.34h-.523v1.34c0 1.363-.575 1.555-.907 1.555-.91 0-.91-1.27-.91-1.625zm-1.554 3.012c0 2.34-1.743 3.129-2.77 3.129-1.172 0-2.152-.859-2.152-2.008 0-3.152 4.062-3.441 4.922-3.488zm14.664-2.437c0-2.223 0-2.891-.551-3.657-.692-.933-1.813-1.078-2.625-1.078-2.32 0-3.227 1.985-3.418 2.461h-.028v-2.461l-3.25.266v.691c1.626 0 1.82.168 1.82 1.34v6.473c0 1.078-.265 1.078-1.82 1.078v.691c.626-.047 1.915-.047 2.583-.047.695 0 1.984 0 2.605.047v-.691c-1.531 0-1.816 0-1.816-1.078v-4.442c0-2.511 1.648-3.847 3.129-3.847 1.484 0 1.82 1.218 1.82 2.675v5.614c0 1.078-.266 1.078-1.82 1.078v.691c.624-.047 1.914-.047 2.581-.047.696 0 1.985 0 2.606.047v-.691c-1.195 0-1.793 0-1.816-.719zm11.472-3.825c.215-.265.215-.312.215-.406 0-.266-.168-.266-.574-.266h-7.504l-.262 3.801h.524c.144-2.437.597-3.32 3.203-3.32h2.773l-6.836 9.391c0 .429.047.429.575.429h7.789l.382-4.394h-.527c-.215 2.722-.621 3.871-3.465 3.871h-2.89zm10.516 3.25c0-1.289 0-2.246-1.047-3.179-.84-.762-1.914-1.098-2.965-1.098-1.96 0-3.465 1.289-3.465 2.844 0 .691.453 1.027 1.004 1.027.574 0 .98-.406.98-.98 0-.981-.863-.981-1.218-.981.547-1.004 1.695-1.433 2.648-1.433 1.102 0 2.512.91 2.512 3.058v.957c-4.805.07-6.621 2.078-6.621 3.918 0 1.891 2.2 2.484 3.656 2.484 1.578 0 2.656-.953 3.11-2.101.093 1.125.836 1.984 1.863 1.984.5 0 1.887-.336 1.887-2.246v-1.34h-.524v1.34c0 1.363-.574 1.555-.91 1.555-.91 0-.91-1.27-.91-1.625zm-1.55 3.012c0 2.34-1.747 3.129-2.774 3.129-1.168 0-2.149-.859-2.149-2.008 0-3.152 4.063-3.441 4.922-3.488zm-60.88-68.918-3.324.266v.691c1.625 0 1.816.168 1.816 1.34v14.289h.528a72 72 0 0 1 .86-1.555c.55.887 1.577 1.793 3.105 1.793 2.75 0 5.164-2.316 5.164-5.398 0-3.035-2.246-5.379-4.899-5.379-1.316 0-2.437.598-3.25 1.601zm.047 8.938c0-.43 0-.477.262-.86.574-.859 1.625-1.555 2.797-1.555.715 0 3.226.29 3.226 4.875 0 1.602-.238 2.606-.812 3.469-.48.739-1.434 1.481-2.63 1.481-1.288 0-2.128-.836-2.534-1.481-.309-.504-.309-.601-.309-1.008zm13.071-8.938-3.32.266v.691c1.624 0 1.816.168 1.816 1.34v12.519c0 1.075-.262 1.075-1.817 1.075v.695c.668-.047 1.84-.047 2.555-.047.718 0 1.914 0 2.582.047v-.695c-1.528 0-1.817 0-1.817-1.075zm13.359 11.473c0-3.082-2.344-5.543-5.114-5.543-2.867 0-5.136 2.531-5.136 5.543 0 3.058 2.386 5.351 5.113 5.351 2.816 0 5.137-2.34 5.137-5.351m-5.114 4.824c-.886 0-1.96-.379-2.652-1.551-.648-1.074-.672-2.484-.672-3.488 0-.91 0-2.367.742-3.442a3.06 3.06 0 0 1 2.559-1.41c.93 0 1.934.43 2.578 1.364.742 1.097.742 2.601.742 3.488 0 .836 0 2.316-.62 3.441-.669 1.145-1.77 1.598-2.676 1.598m15.194-8.555c-.284 0-1.171 0-1.171.981 0 .574.406.98.98.98.551 0 1.004-.336 1.004-1.027 0-1.602-1.672-2.746-3.61-2.746-2.792 0-5.019 2.484-5.019 5.496 0 3.058 2.297 5.398 4.996 5.398 3.157 0 3.872-2.867 3.872-3.082s-.168-.215-.239-.215c-.215 0-.238.071-.308.36-.528 1.695-1.82 2.41-3.11 2.41-1.457 0-3.39-1.266-3.39-4.899 0-3.964 2.03-4.945 3.222-4.945.91 0 2.223.36 2.774 1.289m10.399 0c-.286 0-1.169 0-1.169.981 0 .574.407.98.977.98.55 0 1.004-.336 1.004-1.027 0-1.602-1.672-2.746-3.606-2.746-2.797 0-5.02 2.484-5.02 5.496 0 3.058 2.294 5.398 4.997 5.398 3.152 0 3.867-2.867 3.867-3.082s-.164-.215-.238-.215c-.215 0-.239.071-.309.36-.527 1.695-1.816 2.41-3.11 2.41-1.456 0-3.39-1.266-3.39-4.899 0-3.964 2.031-4.945 3.227-4.945.906 0 2.222.36 2.77 1.289m12.718 3.731c0-3.082-2.34-5.543-5.113-5.543-2.868 0-5.137 2.531-5.137 5.543 0 3.058 2.387 5.351 5.113 5.351 2.82 0 5.137-2.34 5.137-5.351m-5.113 4.824c-.883 0-1.961-.379-2.653-1.551-.644-1.074-.668-2.484-.668-3.488 0-.91 0-2.367.739-3.442a3.07 3.07 0 0 1 2.558-1.41c.93 0 1.938.43 2.578 1.364.743 1.097.743 2.601.743 3.488 0 .836 0 2.316-.621 3.441-.668 1.145-1.77 1.598-2.676 1.598m22.273-15.266c0-.457 0-.574-.336-.574-.191 0-.261 0-.453.285l-7.195 11.16v.692h6.285v2.176c0 .886-.047 1.121-1.793 1.121h-.477v.695c.551-.047 2.438-.047 3.11-.047.668 0 2.578 0 3.129.047v-.695h-.48c-1.72 0-1.79-.235-1.79-1.121v-2.176h2.414v-.692h-2.414zm-1.578 1.864v9.007h-5.809zm65.891 220.004c.5 0 .957 0 .957-.883 0-2.797-1.578-5.043-4.567-5.043-2.769 0-4.992 2.386-4.992 5.304a5.327 5.327 0 0 0 5.352 5.352c3.082 0 4.207-2.125 4.207-2.746 0-.145-.051-.672-.789-.672-.454 0-.598.168-.743.527-.597 1.387-2.148 1.504-2.601 1.504-1.985 0-3.563-1.504-3.824-3.344zm-6.977-1.317c.309-2.031 1.863-3.223 3.367-3.223 2.391 0 2.891 2.032 2.989 3.223zm19.324-1.098c0-2.343-1.097-3.441-3.058-3.441-1.625 0-2.676.91-3.082 1.363 0-.886 0-1.218-.957-1.218h-1.578c-.333 0-.954 0-.954.691s.621.691.954.691h.98v7.532h-.98c-.333 0-.954 0-.954.691s.621.691.954.691h3.515c.332 0 .953 0 .953-.691s-.621-.691-.953-.691h-.98v-4.328c0-2.317 1.625-3.344 2.914-3.344 1.386 0 1.676.789 1.676 2.148v5.524h-.981c-.336 0-.957 0-.957.691s.621.691.957.691h3.512c.336 0 .957 0 .957-.691s-.621-.691-.957-.691h-.981zm12.301-6.621c0-.738-.144-.98-.957-.98h-1.574c-.336 0-.957 0-.957.695 0 .692.621.692.957.692h.976v3.968c-.382-.383-1.363-1.195-2.82-1.195-2.531 0-4.73 2.293-4.73 5.305 0 2.941 2.054 5.281 4.515 5.281 1.555 0 2.582-.934 3.035-1.457 0 1.004 0 1.312.957 1.312h1.579c.332 0 .957 0 .957-.691s-.625-.691-.957-.691h-.981zm-1.555 9.082c0 1.34-1.097 3.297-2.89 3.297-1.723 0-3.106-1.742-3.106-3.894 0-2.293 1.625-3.918 3.321-3.918 1.554 0 2.675 1.41 2.675 2.652zm23.383-9.007c0-.598-.476-1.079-1.074-1.079s-1.078.48-1.078 1.079c0 .597.48 1.074 1.078 1.074s1.074-.477 1.074-1.074m-4.109 3.25c-.336 0-.957 0-.957.691s.621.691.957.691h2.555v7.532h-2.723c-.336 0-.981 0-.981.691s.645.691.981.691h6.644c.332 0 .954 0 .954-.691s-.622-.691-.954-.691h-2.367v-7.938c0-.738-.144-.976-.957-.976zm15.195 1.382h2.891c.336 0 .957 0 .957-.691s-.621-.691-.957-.691h-2.891v-1.196c0-1.863 1.672-1.863 2.438-1.863 0 .047.191.93.98.93.383 0 .93-.285.93-.957 0-1.36-1.817-1.36-2.172-1.36-1.816 0-3.731 1.028-3.731 3.153v1.293h-2.367c-.332 0-.976 0-.976.691s.621.691.953.691h2.39v7.532h-2.269c-.336 0-.957 0-.957.691s.621.691.957.691h6.094c.336 0 .957 0 .957-.691s-.621-.691-.957-.691h-2.27zm-13.476-13.679c.336 0 .957 0 .957-.692 0-.695-.621-.695-.957-.695h-.981v-5.113c.574.644 1.457 1.34 2.797 1.34 2.535 0 4.754-2.27 4.754-5.305 0-2.942-2.008-5.281-4.492-5.281a4.3 4.3 0 0 0-3.059 1.289c0-.79 0-1.149-.953-1.149h-1.578c-.336 0-.957 0-.957.696 0 .69.621.69.957.69h.98v12.833h-.98c-.336 0-.957 0-.957.695 0 .692.621.692.957.692zm-.981-11.66c0-1.364 1.34-2.7 2.895-2.7 1.718 0 3.105 1.742 3.105 3.895 0 2.293-1.625 3.918-3.324 3.918-1.789 0-2.676-2.031-2.676-3.227zm13.613 1.839c0-2.843 2.008-4.539 4.039-4.539.122 0 .266 0 .383.024.074.86.742.93.91.93.551 0 .93-.407.93-.93 0-1.032-1.004-1.41-2.199-1.41-1.598 0-2.961.714-4.063 2.054v-.933c0-.742-.14-.98-.953-.98h-2.414c-.336 0-.957 0-.957.694 0 .692.621.692.957.692h1.817v7.527h-1.817c-.336 0-.957 0-.957.692 0 .695.621.695.957.695h5.879c.332 0 .957 0 .957-.695 0-.692-.625-.692-.957-.692h-2.512zm17.082-.07c.5 0 .957 0 .957-.887 0-2.797-1.578-5.043-4.566-5.043-2.769 0-4.992 2.391-4.992 5.305a5.33 5.33 0 0 0 5.351 5.355c3.082 0 4.207-2.128 4.207-2.75 0-.144-.05-.667-.789-.667-.453 0-.597.168-.742.523-.597 1.387-2.148 1.508-2.605 1.508-1.981 0-3.559-1.508-3.824-3.344zm-6.976-1.316c.308-2.032 1.863-3.227 3.367-3.227 2.391 0 2.891 2.031 2.988 3.227zm20.16-1.34c0-.524 0-3.2-2.102-3.2-.835 0-1.652.38-2.296 1.266-.141-.36-.668-1.265-1.813-1.265-1.078 0-1.82.691-2.008.906-.023-.766-.527-.766-.957-.766h-.719c-.332 0-.953 0-.953.696 0 .69.547.69 1.289.69v7.528c-.765 0-1.289 0-1.289.692 0 .695.621.695.953.695h2.008c.336 0 .957 0 .957-.695 0-.692-.55-.692-1.289-.692v-4.394c0-2.008.86-3.274 1.91-3.274.668 0 .86.836.86 1.957v5.711c-.406 0-1.051 0-1.051.692 0 .695.645.695.98.695h1.747c.332 0 .953 0 .953-.695 0-.692-.547-.692-1.289-.692v-4.394c0-2.008.859-3.274 1.91-3.274.668 0 .863.836.863 1.957v5.711c-.406 0-1.055 0-1.055.692 0 .695.649.695.981.695h1.746c.332 0 .953 0 .953-.695 0-.692-.547-.692-1.289-.692zm8.793-6.308a1.07 1.07 0 0 0-1.074-1.075 1.07 1.07 0 0 0-1.078 1.074c0 .598.476 1.078 1.078 1.078.594 0 1.074-.48 1.074-1.078m-4.113 3.25c-.332 0-.953 0-.953.694 0 .692.621.692.953.692h2.558v7.527h-2.722c-.336 0-.981 0-.981.692 0 .695.645.695.981.695h6.64c.336 0 .957 0 .957-.695 0-.692-.621-.692-.957-.692h-2.363v-7.933c0-.742-.145-.98-.957-.98z"/><path fill="none" stroke="#000" stroke-width=".796" d="M260.434-35.945h7.382"/><path d="M275.016-49.05a1.07 1.07 0 0 0-1.075-1.075c-.597 0-1.074.477-1.074 1.074s.477 1.078 1.074 1.078 1.075-.48 1.075-1.078m-4.11 3.25c-.336 0-.957 0-.957.694 0 .692.621.692.957.692h2.559v7.527h-2.727c-.332 0-.98 0-.98.692 0 .695.648.695.98.695h6.645c.336 0 .957 0 .957-.695 0-.692-.621-.692-.957-.692h-2.367v-7.933c0-.742-.145-.98-.953-.98zM290.09-42.5c0-2.344-1.102-3.441-3.059-3.441a4.2 4.2 0 0 0-3.086 1.359c0-.883 0-1.219-.953-1.219h-1.578c-.336 0-.957 0-.957.696 0 .69.621.69.957.69h.981v7.528h-.981c-.336 0-.957 0-.957.692 0 .695.621.695.957.695h3.512c.336 0 .957 0 .957-.695 0-.692-.621-.692-.957-.692h-.981v-4.324c0-2.32 1.625-3.344 2.918-3.344 1.383 0 1.672.785 1.672 2.149v5.52h-.98c-.332 0-.953 0-.953.69 0 .696.621.696.953.696h3.515c.332 0 .953 0 .953-.695 0-.692-.621-.692-.953-.692h-.98zm7.473-1.914h3.871c.332 0 .957 0 .957-.691 0-.696-.625-.696-.957-.696h-3.871v-1.957c0-.43 0-.98-.766-.98-.789 0-.789.55-.789.98v1.957h-2.031c-.336 0-.981 0-.981.696 0 .69.621.69.957.69h2.055v6.024c0 2.223 1.531 3.035 3.25 3.035 1.289 0 3.656-.644 3.656-3.081 0-.481 0-1.004-.785-1.004-.77 0-.77.523-.77 1.027-.019 1.434-1.382 1.672-1.933 1.672-1.863 0-1.863-1.196-1.863-1.77zm17.078 4.328c.5 0 .957 0 .957-.887 0-2.797-1.578-5.043-4.567-5.043-2.769 0-4.992 2.391-4.992 5.305a5.33 5.33 0 0 0 5.352 5.355c3.082 0 4.207-2.128 4.207-2.75 0-.144-.051-.667-.789-.667-.454 0-.598.168-.743.523-.597 1.387-2.148 1.508-2.601 1.508-1.985 0-3.563-1.508-3.824-3.344zm-6.977-1.316c.309-2.032 1.863-3.227 3.367-3.227 2.391 0 2.891 2.031 2.989 3.227zm14.496 1.386c0-2.843 2.008-4.539 4.039-4.539.121 0 .266 0 .383.024.074.86.742.93.91.93.547 0 .93-.407.93-.93 0-1.032-1.004-1.41-2.199-1.41-1.602 0-2.961.714-4.063 2.054v-.933c0-.742-.14-.98-.953-.98h-2.414c-.336 0-.957 0-.957.694 0 .692.621.692.957.692h1.816v7.527h-1.816c-.336 0-.957 0-.957.692 0 .695.621.695.957.695h5.879c.332 0 .957 0 .957-.695 0-.692-.625-.692-.957-.692h-2.512zm12.301 0c0-2.843 2.008-4.539 4.039-4.539.121 0 .262 0 .383.024.07.86.738.93.906.93a.904.904 0 0 0 .934-.93c0-1.032-1.004-1.41-2.2-1.41-1.601 0-2.96.714-4.062 2.054v-.933c0-.742-.141-.98-.953-.98h-2.414c-.336 0-.957 0-.957.694 0 .692.621.692.957.692h1.812v7.527h-1.812c-.336 0-.957 0-.957.692 0 .695.621.695.957.695h5.875c.336 0 .957 0 .957-.695 0-.692-.621-.692-.957-.692h-2.508zm17.129-4.804c0-.742-.145-.98-.957-.98h-1.578c-.332 0-.953 0-.953.694 0 .692.621.692.953.692h.98v5.187c0 1.957-1.625 2.485-2.699 2.485-1.891 0-1.891-.86-1.891-1.602v-6.476c0-.742-.14-.98-.953-.98h-1.578c-.336 0-.957 0-.957.694 0 .692.621.692.957.692h.981v6.187c0 2.204 1.433 2.871 3.273 2.871 1.457 0 2.367-.597 2.844-1.003 0 .859.574.859.98.859h1.578c.332 0 .953 0 .953-.695 0-.692-.621-.692-.953-.692h-.98zm7.473.406h3.871c.332 0 .957 0 .957-.691 0-.696-.625-.696-.957-.696h-3.871v-1.957c0-.43 0-.98-.766-.98-.789 0-.789.55-.789.98v1.957h-2.031c-.336 0-.981 0-.981.696 0 .69.621.69.957.69h2.055v6.024c0 2.223 1.531 3.035 3.25 3.035 1.289 0 3.656-.644 3.656-3.081 0-.481 0-1.004-.785-1.004-.77 0-.77.523-.77 1.027-.019 1.434-1.382 1.672-1.933 1.672-1.863 0-1.863-1.196-1.863-1.77zm12.296 0h3.875c.332 0 .954 0 .954-.691 0-.696-.622-.696-.954-.696h-3.875v-1.957c0-.43 0-.98-.761-.98-.789 0-.789.55-.789.98v1.957h-2.032c-.336 0-.98 0-.98.696 0 .69.621.69.957.69h2.055v6.024c0 2.223 1.531 3.035 3.25 3.035 1.289 0 3.656-.644 3.656-3.081 0-.481 0-1.004-.789-1.004-.766 0-.766.523-.766 1.027-.023 1.434-1.387 1.672-1.933 1.672-1.868 0-1.868-1.196-1.868-1.77zm18.137 3.754c0-2.988-2.176-5.356-4.754-5.356-2.582 0-4.758 2.368-4.758 5.356 0 3.012 2.2 5.304 4.758 5.304 2.555 0 4.754-2.292 4.754-5.304m-4.754 3.918c-1.722 0-3.203-1.817-3.203-4.086 0-2.223 1.531-3.8 3.203-3.8s3.203 1.577 3.203 3.8c0 2.293-1.48 4.086-3.203 4.086m11.321-3.274c0-2.843 2.007-4.539 4.039-4.539.117 0 .261 0 .382.024.071.86.739.93.907.93.55 0 .929-.407.929-.93 0-1.032-1-1.41-2.199-1.41-1.598 0-2.961.714-4.058 2.054v-.933c0-.742-.145-.98-.958-.98h-2.414c-.332 0-.957 0-.957.694 0 .692.625.692.957.692h1.817v7.527h-1.817c-.332 0-.957 0-.957.692 0 .695.625.695.957.695h5.879c.336 0 .957 0 .957-.695 0-.692-.621-.692-.957-.692h-2.507zm17.078-.07c.5 0 .957 0 .957-.887 0-2.797-1.578-5.043-4.567-5.043-2.769 0-4.992 2.391-4.992 5.305a5.33 5.33 0 0 0 5.352 5.355c3.082 0 4.207-2.128 4.207-2.75 0-.144-.051-.667-.789-.667-.454 0-.598.168-.743.523-.597 1.387-2.148 1.508-2.601 1.508-1.985 0-3.563-1.508-3.824-3.344zm-6.977-1.316c.309-2.032 1.863-3.227 3.367-3.227 2.391 0 2.891 2.031 2.989 3.227zm19.563 7.265c0-.312-.164-.406-.5-.644-3.297-2.274-4.11-5.688-4.11-8.008 0-2.27.762-5.711 4.11-8.027.336-.239.5-.336.5-.645 0-.242-.118-.625-.692-.625-.597 0-2.367 1.387-3.465 2.941-1.34 1.864-2.007 4.086-2.007 6.356 0 2.652.957 4.875 1.96 6.285 1.098 1.527 2.844 2.988 3.512 2.988.574 0 .692-.406.692-.62m10.293-8.654a10.93 10.93 0 0 0-2.176-6.593c-.813-1.101-2.578-2.703-3.297-2.703-.551 0-.692.406-.692.625 0 .285.168.406.598.691 2.914 2.055 4.016 5.258 4.016 7.958 0 2.152-.696 5.664-4.114 8.03-.308.212-.5.333-.5.645 0 .215.141.621.692.621.598 0 2.367-1.386 3.465-2.941a10.96 10.96 0 0 0 2.008-6.332M155.418-76.352c0-.593-.48-1.074-1.074-1.074-.602 0-1.078.48-1.078 1.074a1.07 1.07 0 0 0 1.078 1.079c.594 0 1.074-.477 1.074-1.079m-4.113 3.25c-.332 0-.953 0-.953.696 0 .691.621.691.953.691h2.558v7.528h-2.722c-.336 0-.981 0-.981.695 0 .691.645.691.981.691h6.64c.336 0 .957 0 .957-.691 0-.696-.621-.696-.957-.696h-2.363v-7.933c0-.738-.145-.98-.957-.98zm15.097 1.387h2.891c.336 0 .957 0 .957-.691 0-.696-.621-.696-.957-.696h-2.891v-1.191c0-1.863 1.672-1.863 2.438-1.863 0 .047.191.93.98.93.383 0 .934-.286.934-.958 0-1.359-1.816-1.359-2.176-1.359-1.816 0-3.73 1.027-3.73 3.152v1.29h-2.364c-.336 0-.98 0-.98.695 0 .691.621.691.957.691h2.387v7.528h-2.27c-.336 0-.957 0-.957.695 0 .691.621.691.957.691h6.094c.336 0 .957 0 .957-.691 0-.696-.621-.696-.957-.696h-2.27zM195.09-69.8c0-2.344-1.102-3.442-3.059-3.442a4.2 4.2 0 0 0-3.086 1.36c0-.884 0-1.22-.953-1.22h-1.578c-.336 0-.957 0-.957.696 0 .691.621.691.957.691h.981v7.528h-.981c-.336 0-.957 0-.957.695 0 .691.621.691.957.691h3.512c.336 0 .957 0 .957-.691 0-.696-.621-.696-.957-.696h-.981v-4.324c0-2.316 1.625-3.344 2.918-3.344 1.383 0 1.672.786 1.672 2.149v5.52h-.98c-.332 0-.953 0-.953.695 0 .691.621.691.953.691h3.515c.332 0 .953 0 .953-.691 0-.696-.621-.696-.953-.696h-.98zm13.207 1.84c0-2.99-2.176-5.353-4.754-5.353-2.582 0-4.758 2.364-4.758 5.352 0 3.012 2.199 5.305 4.758 5.305 2.555 0 4.754-2.293 4.754-5.305m-4.754 3.917c-1.723 0-3.203-1.816-3.203-4.086 0-2.223 1.527-3.8 3.203-3.8 1.672 0 3.199 1.577 3.199 3.8 0 2.293-1.48 4.086-3.199 4.086m11.418-7.671h3.871c.336 0 .957 0 .957-.691 0-.696-.621-.696-.957-.696h-3.871v-1.957c0-.43 0-.98-.766-.98-.789 0-.789.55-.789.98v1.957h-2.027c-.336 0-.981 0-.981.696 0 .691.622.691.954.691h2.054v6.024c0 2.222 1.532 3.035 3.25 3.035 1.293 0 3.657-.645 3.657-3.082 0-.48 0-1.004-.786-1.004-.765 0-.765.523-.765 1.027-.024 1.434-1.387 1.672-1.938 1.672-1.863 0-1.863-1.195-1.863-1.77zm26.269-4.707c0-.742-.144-.98-.957-.98h-3.511c-.336 0-.957 0-.957.695 0 .691.621.691.957.691h2.914v11.829h-2.914c-.336 0-.957 0-.957.695 0 .691.621.691.957.691h7.383c.335 0 .957 0 .957-.691 0-.696-.622-.696-.957-.696h-2.915zm15.36 4.301c0-.738-.145-.98-.957-.98h-1.578c-.332 0-.953 0-.953.695 0 .691.621.691.953.691h.98v5.188c0 1.957-1.625 2.484-2.699 2.484-1.891 0-1.891-.86-1.891-1.601v-6.477c0-.738-.14-.98-.953-.98h-1.578c-.336 0-.957 0-.957.695 0 .691.621.691.957.691h.981v6.192c0 2.199 1.433 2.867 3.273 2.867 1.457 0 2.367-.598 2.844-1.004 0 .86.574.86.98.86h1.578c.332 0 .953 0 .953-.692 0-.696-.621-.696-.953-.696h-.98zm13.308 6.715c0-.621-.597-.621-.789-.621-.55 0-.644.191-.765.527-.528 1.313-1.696 1.457-2.27 1.457-2.031 0-3.754-1.695-3.754-3.918 0-1.219.696-3.969 3.825-3.969.644 0 1.148.047 1.363.075.168.046.191.07.191.19.071.978.813 1 .957 1 .524 0 .977-.354.977-1 0-1.647-2.414-1.647-3.465-1.647-4.086 0-5.398 3.343-5.398 5.351 0 2.914 2.222 5.305 5.089 5.305 3.204 0 4.039-2.367 4.039-2.75m11.344-1.981c.5 0 .953 0 .953-.886 0-2.797-1.574-5.04-4.562-5.04-2.774 0-4.996 2.387-4.996 5.305a5.33 5.33 0 0 0 5.355 5.352c3.082 0 4.203-2.125 4.203-2.75 0-.14-.047-.668-.789-.668-.453 0-.593.168-.738.527-.598 1.383-2.152 1.504-2.605 1.504-1.985 0-3.559-1.504-3.825-3.344zm-6.98-1.316c.312-2.031 1.867-3.227 3.371-3.227 2.39 0 2.89 2.032 2.988 3.227z"/><path fill="none" stroke="#000" stroke-width=".796" d="M285.043-63.18h7.383"/><path d="M302.293-69.586c0-1.816-1.363-3.727-4.59-3.727-1 0-3.32 0-3.32 1.649 0 .645.457 1 .98 1 .145 0 .934-.047.957-1.05 0-.118.024-.142.524-.192.289-.024.597-.024.886-.024.547 0 1.36 0 2.149.598.863.668.863 1.34.863 2.031-1.414.051-2.797.145-4.277.621-1.199.407-2.727 1.266-2.727 2.89 0 1.7 1.504 3.134 3.727 3.134.765 0 2.25-.121 3.488-.98.481.788 1.676.835 2.582.835.574 0 1.149 0 1.149-.691 0-.696-.621-.696-.957-.696-.622 0-1.098-.046-1.434-.187zm-1.551 3.633c0 .547 0 1.05-.98 1.504-.84.406-1.961.406-2.032.406-1.41 0-2.437-.766-2.437-1.746 0-1.406 2.555-2.219 5.449-2.219zm14.856.547c0-.621-.598-.621-.789-.621-.551 0-.645.191-.766.527-.527 1.313-1.695 1.457-2.27 1.457-2.031 0-3.75-1.695-3.75-3.918 0-1.219.692-3.969 3.821-3.969.648 0 1.148.047 1.363.075.168.046.191.07.191.19.071.978.813 1 .957 1 .524 0 .981-.354.981-1 0-1.647-2.414-1.647-3.469-1.647-4.086 0-5.398 3.343-5.398 5.351 0 2.914 2.222 5.305 5.09 5.305 3.203 0 4.039-2.367 4.039-2.75m12.3 0c0-.621-.597-.621-.789-.621-.55 0-.644.191-.765.527-.528 1.313-1.696 1.457-2.27 1.457-2.031 0-3.754-1.695-3.754-3.918 0-1.219.696-3.969 3.825-3.969.644 0 1.148.047 1.363.075.168.046.191.07.191.19.071.978.813 1 .957 1 .524 0 .977-.354.977-1 0-1.647-2.414-1.647-3.465-1.647-4.086 0-5.398 3.343-5.398 5.351 0 2.914 2.222 5.305 5.089 5.305 3.204 0 4.039-2.367 4.039-2.75m11.344-1.981c.5 0 .953 0 .953-.886 0-2.797-1.574-5.04-4.562-5.04-2.774 0-4.996 2.387-4.996 5.305a5.33 5.33 0 0 0 5.355 5.352c3.082 0 4.203-2.125 4.203-2.75 0-.14-.047-.668-.789-.668-.453 0-.593.168-.738.527-.598 1.383-2.152 1.504-2.605 1.504-1.985 0-3.559-1.504-3.825-3.344zm-6.98-1.316c.312-2.031 1.867-3.227 3.371-3.227 2.39 0 2.89 2.032 2.988 3.227zm19.375-3.703c0-.383 0-.906-.668-.906-.574 0-.719.546-.719.57-.953-.57-2.055-.57-2.531-.57-3.899 0-4.422 1.98-4.422 2.793 0 .98.574 1.648 1.387 2.105.761.43 1.457.547 3.418.86.929.167 2.843.476 2.843 1.792 0 .883-.812 1.719-3.035 1.719-1.531 0-2.535-.598-3.039-2.316-.117-.336-.187-.598-.785-.598-.789 0-.789.453-.789.93v2.465c0 .378 0 .906.668.906.289 0 .504 0 .863-.98 1.098.91 2.34.98 3.082.98 4.418 0 4.418-2.867 4.418-3.106 0-2.488-2.961-2.988-4.109-3.156-2.102-.36-3.535-.598-3.535-1.601 0-.645.738-1.41 2.988-1.41 2.269 0 2.363 1.077 2.41 1.698.051.477.481.547.766.547.789 0 .789-.43.789-.906zm12.156 2.82c0-1.816-1.363-3.727-4.59-3.727-1 0-3.32 0-3.32 1.649 0 .645.457 1 .98 1 .145 0 .934-.047.957-1.05 0-.118.024-.142.524-.192.289-.024.597-.024.886-.024.547 0 1.36 0 2.149.598.863.668.863 1.34.863 2.031-1.414.051-2.797.145-4.277.621-1.199.407-2.727 1.266-2.727 2.89 0 1.7 1.504 3.134 3.727 3.134.765 0 2.25-.121 3.488-.98.481.788 1.676.835 2.582.835.574 0 1.149 0 1.149-.691 0-.696-.621-.696-.957-.696-.622 0-1.098-.046-1.434-.187zm-1.551 3.633c0 .547 0 1.05-.98 1.504-.84.406-1.961.406-2.032.406-1.41 0-2.437-.766-2.437-1.746 0-1.406 2.555-2.219 5.449-2.219zm14.188 4.516c0-.313-.168-.407-.504-.645-3.297-2.27-4.11-5.687-4.11-8.008 0-2.27.762-5.71 4.11-8.027.336-.239.504-.336.504-.645 0-.238-.121-.62-.696-.62-.597 0-2.367 1.382-3.464 2.937-1.34 1.863-2.008 4.086-2.008 6.355 0 2.653.957 4.875 1.961 6.285 1.097 1.532 2.843 2.989 3.511 2.989.575 0 .696-.407.696-.621m10.39-8.653a10.93 10.93 0 0 0-2.175-6.594c-.813-1.097-2.579-2.699-3.297-2.699-.551 0-.692.406-.692.621 0 .285.164.406.598.692 2.914 2.054 4.012 5.257 4.012 7.957 0 2.152-.692 5.664-4.11 8.031-.308.215-.5.332-.5.645 0 .214.141.62.692.62.597 0 2.367-1.386 3.465-2.94a10.96 10.96 0 0 0 2.007-6.333m21.442-1.625h3.871c.336 0 .957 0 .957-.691 0-.696-.621-.696-.957-.696h-3.871v-1.957c0-.43 0-.98-.766-.98-.789 0-.789.55-.789.98v1.957h-2.031c-.332 0-.981 0-.981.696 0 .691.625.691.957.691h2.055v6.024c0 2.222 1.531 3.035 3.25 3.035 1.289 0 3.656-.645 3.656-3.082 0-.48 0-1.004-.785-1.004-.765 0-.765.523-.765 1.027-.024 1.434-1.387 1.672-1.938 1.672-1.863 0-1.863-1.195-1.863-1.77zm17.129 1.915c0-2.344-1.102-3.442-3.063-3.442a4.18 4.18 0 0 0-3.082 1.36v-4.54c0-.742-.141-.98-.953-.98h-1.578c-.336 0-.957 0-.957.695 0 .691.621.691.957.691h.98v11.829h-.98c-.336 0-.957 0-.957.695 0 .691.621.691.957.691h3.512c.336 0 .957 0 .957-.691 0-.696-.621-.696-.957-.696h-.981v-4.324c0-2.316 1.625-3.344 2.918-3.344 1.383 0 1.672.786 1.672 2.149v5.52h-.981c-.332 0-.957 0-.957.695 0 .691.625.691.957.691h3.512c.336 0 .957 0 .957-.691 0-.696-.621-.696-.957-.696h-.976zm12.351 2.413c.5 0 .953 0 .953-.886 0-2.797-1.574-5.04-4.562-5.04-2.774 0-4.996 2.387-4.996 5.305a5.33 5.33 0 0 0 5.355 5.352c3.082 0 4.203-2.125 4.203-2.75 0-.14-.047-.668-.789-.668-.453 0-.593.168-.738.527-.598 1.383-2.152 1.504-2.605 1.504-1.985 0-3.559-1.504-3.825-3.344zm-6.98-1.316c.312-2.031 1.867-3.227 3.371-3.227 2.39 0 2.89 2.032 2.988 3.227zM450.09-69.8c0-2.344-1.102-3.442-3.059-3.442a4.2 4.2 0 0 0-3.086 1.36c0-.884 0-1.22-.953-1.22h-1.578c-.336 0-.957 0-.957.696 0 .691.621.691.957.691h.981v7.528h-.981c-.336 0-.957 0-.957.695 0 .691.621.691.957.691h3.512c.336 0 .957 0 .957-.691 0-.696-.621-.696-.957-.696h-.981v-4.324c0-2.316 1.625-3.344 2.918-3.344 1.383 0 1.672.786 1.672 2.149v5.52h-.98c-.332 0-.953 0-.953.695 0 .691.621.691.953.691h3.515c.332 0 .953 0 .953-.691 0-.696-.621-.696-.953-.696h-.98zm-262.035-73.259c-1.532 0-1.817 0-1.817-1.074v-4.156c.43.594 1.41 1.527 2.942 1.527 2.746 0 5.16-2.316 5.16-5.398 0-3.035-2.246-5.379-4.852-5.379-2.101 0-3.226 1.508-3.297 1.601v-1.601l-3.324.266v.691c1.676 0 1.821.168 1.821 1.219v11.23c0 1.074-.266 1.074-1.821 1.074v.696c.625-.051 1.914-.051 2.582-.051.692 0 1.985 0 2.606.051zm-1.817-11.562c0-.457 0-.481.266-.863a3.44 3.44 0 0 1 2.793-1.528c1.793 0 3.226 2.172 3.226 4.852 0 2.84-1.625 4.922-3.464 4.922a2.82 2.82 0 0 1-1.911-.766c-.55-.551-.91-1.027-.91-1.695zm12.953 2.055c0-2.321.957-4.497 2.793-4.497.196 0 .243 0 .336.028-.191.094-.574.238-.574.883 0 .691.551.957.934.957.476 0 .957-.313.957-.957 0-.715-.645-1.387-1.672-1.387-2.035 0-2.727 2.199-2.871 2.652h-.024v-2.652l-3.203.266v.691c1.625 0 1.821.168 1.821 1.34v6.472c0 1.075-.266 1.075-1.821 1.075v.695c.672-.047 1.985-.047 2.703-.047.645 0 2.34 0 2.891.047v-.695h-.477c-1.746 0-1.793-.262-1.793-1.121zm14.364.023c.523 0 .574 0 .574-.453 0-2.414-1.293-4.66-4.184-4.66-2.726 0-4.828 2.461-4.828 5.422 0 3.156 2.438 5.472 5.09 5.472 2.844 0 3.922-2.582 3.922-3.082 0-.144-.121-.238-.266-.238-.191 0-.242.117-.285.238-.625 2.008-2.223 2.555-3.226 2.555s-3.418-.668-3.418-4.801v-.453zm-6.598-.453c.191-3.754 2.297-4.184 2.965-4.184 2.555 0 2.699 3.367 2.723 4.184zm24.977.191c0-2.226 0-2.894-.551-3.66-.692-.93-1.813-1.074-2.625-1.074-1.985 0-2.988 1.434-3.371 2.367-.336-1.84-1.625-2.367-3.129-2.367-2.32 0-3.227 1.984-3.418 2.461h-.027v-2.461l-3.25.266v.691c1.625 0 1.82.168 1.82 1.34v6.472c0 1.075-.266 1.075-1.82 1.075v.695c.625-.047 1.914-.047 2.582-.047.695 0 1.984 0 2.605.047v-.695c-1.531 0-1.816 0-1.816-1.075v-4.445c0-2.508 1.648-3.848 3.129-3.848 1.484 0 1.82 1.219 1.82 2.68v5.613c0 1.075-.266 1.075-1.82 1.075v.695c.625-.047 1.914-.047 2.582-.047.695 0 1.984 0 2.605.047v-.695c-1.531 0-1.816 0-1.816-1.075v-4.445c0-2.508 1.648-3.848 3.129-3.848 1.484 0 1.82 1.219 1.82 2.68v5.613c0 1.075-.266 1.075-1.82 1.075v.695c.625-.047 1.914-.047 2.582-.047.695 0 1.984 0 2.605.047v-.695c-1.195 0-1.793 0-1.816-.715zm6.523-8.914c0-.625-.5-1.172-1.168-1.172-.625 0-1.148.5-1.148 1.149a1.15 1.15 0 0 0 1.148 1.168c.738 0 1.168-.621 1.168-1.145m-3.297 4.446v.691c1.528 0 1.746.144 1.746 1.312v6.5c0 1.075-.265 1.075-1.816 1.075v.695c.668-.047 1.816-.047 2.508-.047.261 0 1.648 0 2.461.047v-.695c-1.551 0-1.649-.118-1.649-1.047v-8.797zm17.598-4.446c0-.625-.5-1.172-1.168-1.172-.625 0-1.149.5-1.149 1.149 0 .715.575 1.168 1.149 1.168.738 0 1.168-.621 1.168-1.145m-3.297 4.446v.691c1.527 0 1.742.144 1.742 1.312v6.5c0 1.075-.262 1.075-1.812 1.075v.695c.668-.047 1.812-.047 2.507-.047.262 0 1.649 0 2.461.047v-.695c-1.554 0-1.648-.118-1.648-1.047v-8.797zm16.273 4.468c0-2.226 0-2.894-.55-3.66-.692-.93-1.817-1.074-2.629-1.074-2.317 0-3.227 1.984-3.414 2.461h-.028v-2.461l-3.25.266v.691c1.625 0 1.817.168 1.817 1.34v6.472c0 1.075-.262 1.075-1.817 1.075v.695c.621-.047 1.914-.047 2.582-.047.696 0 1.985 0 2.606.047v-.695c-1.531 0-1.817 0-1.817-1.075v-4.445c0-2.508 1.649-3.848 3.129-3.848 1.485 0 1.817 1.219 1.817 2.68v5.613c0 1.075-.262 1.075-1.817 1.075v.695c.621-.047 1.914-.047 2.582-.047.696 0 1.985 0 2.606.047v-.695c-1.196 0-1.793 0-1.817-.715zm5.68-3.8h3.371v-.696h-3.371v-4.394h-.523c-.024 2.246-.887 4.539-3.063 4.609v.481h2.031v6.64c0 2.652 1.77 3.203 3.039 3.203 1.504 0 2.293-1.48 2.293-3.203v-1.359h-.527v1.312c0 1.723-.691 2.723-1.625 2.723-1.625 0-1.625-2.219-1.625-2.625zm14.238 4.062c.528 0 .575 0 .575-.453 0-2.414-1.289-4.66-4.184-4.66-2.723 0-4.824 2.461-4.824 5.422 0 3.156 2.437 5.472 5.086 5.472 2.843 0 3.922-2.582 3.922-3.082 0-.144-.122-.238-.262-.238-.192 0-.242.117-.289.238-.621 2.008-2.223 2.555-3.227 2.555s-3.418-.668-3.418-4.801v-.453zm-6.597-.453c.191-3.754 2.297-4.184 2.965-4.184 2.558 0 2.699 3.367 2.722 4.184zm11.836.43c0-2.321.957-4.497 2.797-4.497.191 0 .238 0 .335.028-.195.094-.574.238-.574.883 0 .691.547.957.93.957.48 0 .957-.313.957-.957 0-.715-.645-1.387-1.672-1.387-2.031 0-2.726 2.199-2.867 2.652h-.024v-2.652l-3.203.266v.691c1.625 0 1.817.168 1.817 1.34v6.472c0 1.075-.266 1.075-1.817 1.075v.695c.668-.047 1.985-.047 2.7-.047.644 0 2.339 0 2.89.047v-.695h-.476c-1.746 0-1.793-.262-1.793-1.121zm9.101 0c0-2.321.953-4.497 2.793-4.497.192 0 .238 0 .336.028-.191.094-.574.238-.574.883 0 .691.551.957.933.957.477 0 .958-.313.958-.957 0-.715-.649-1.387-1.676-1.387-2.032 0-2.723 2.199-2.867 2.652h-.024v-2.652l-3.203.266v.691c1.625 0 1.816.168 1.816 1.34v6.472c0 1.075-.261 1.075-1.816 1.075v.695c.672-.047 1.984-.047 2.699-.047.649 0 2.344 0 2.895.047v-.695h-.481c-1.742 0-1.789-.262-1.789-1.121zm12.473-4.707v.691c1.625 0 1.816.168 1.816 1.34v4.273c0 2.031-1.078 3.731-2.867 3.731-1.961 0-2.078-1.125-2.078-2.391v-7.91l-3.371.266v.691c1.816 0 1.816.07 1.816 2.199v3.582c0 1.481 0 2.344.715 3.133.574.621 1.555.906 2.774.906.406 0 1.171 0 1.984-.691.691-.551 1.074-1.461 1.074-1.461v2.152l3.32-.238v-.695c-1.625 0-1.812-.164-1.812-1.336v-8.508zm9.75.668h3.371v-.696h-3.371v-4.394h-.527c-.024 2.246-.883 4.539-3.059 4.609v.481h2.031v6.64c0 2.652 1.77 3.203 3.035 3.203 1.508 0 2.297-1.48 2.297-3.203v-1.359h-.527v1.312c0 1.723-.692 2.723-1.625 2.723-1.625 0-1.625-2.219-1.625-2.625zm9.098 0h3.371v-.696h-3.371v-4.394h-.524c-.023 2.246-.883 4.539-3.059 4.609v.481h2.032v6.64c0 2.652 1.769 3.203 3.035 3.203 1.504 0 2.293-1.48 2.293-3.203v-1.359h-.527v1.312c0 1.723-.692 2.723-1.625 2.723-1.625 0-1.625-2.219-1.625-2.625zm16.054 4.492c0-3.082-2.34-5.543-5.113-5.543-2.867 0-5.137 2.531-5.137 5.543 0 3.058 2.391 5.351 5.113 5.351 2.821 0 5.137-2.34 5.137-5.351m-5.113 4.824c-.883 0-1.957-.379-2.652-1.551-.645-1.074-.668-2.484-.668-3.488 0-.91 0-2.367.738-3.442a3.07 3.07 0 0 1 2.558-1.41c.934 0 1.938.43 2.583 1.364.742 1.097.742 2.601.742 3.488 0 .836 0 2.316-.625 3.441-.668 1.145-1.766 1.598-2.676 1.598m9.836-5.277c0-2.321.957-4.497 2.797-4.497.191 0 .238 0 .336.028-.192.094-.575.238-.575.883 0 .691.547.957.93.957.481 0 .957-.313.957-.957 0-.715-.644-1.387-1.672-1.387-2.031 0-2.722 2.199-2.867 2.652h-.023v-2.652l-3.203.266v.691c1.625 0 1.816.168 1.816 1.34v6.472c0 1.075-.266 1.075-1.816 1.075v.695c.668-.047 1.984-.047 2.699-.047.644 0 2.344 0 2.89.047v-.695h-.476c-1.742 0-1.793-.262-1.793-1.121zm14.262.023c.527 0 .574 0 .574-.453 0-2.414-1.289-4.66-4.184-4.66-2.722 0-4.824 2.461-4.824 5.422 0 3.156 2.437 5.472 5.09 5.472 2.844 0 3.918-2.582 3.918-3.082 0-.144-.121-.238-.262-.238-.191 0-.242.117-.285.238-.625 2.008-2.223 2.555-3.231 2.555-1 0-3.414-.668-3.414-4.801v-.453zm-6.594-.453c.191-3.754 2.293-4.184 2.961-4.184 2.558 0 2.703 3.367 2.726 4.184zm-195.219-79.613c0-.43 0-.547-.242-.547-.188 0-.641.523-.813.738-.738-.598-1.48-.738-2.242-.738-2.894 0-3.754 1.574-3.754 2.89 0 .262 0 1.098.91 1.934.762.672 1.575.84 2.676 1.051 1.313.265 1.625.336 2.223.812.43.36.738.887.738 1.555 0 1.027-.597 2.176-2.699 2.176-1.578 0-2.723-.91-3.25-3.297-.094-.434-.094-.457-.117-.481-.051-.093-.145-.093-.215-.093-.266 0-.266.117-.266.546v3.25c0 .43 0 .551.239.551.121 0 .144-.023.55-.527.121-.164.121-.215.477-.594.91 1.121 2.199 1.121 2.605 1.121 2.508 0 3.75-1.386 3.75-3.273 0-1.289-.785-2.055-1-2.27-.863-.742-1.507-.883-3.086-1.172-.714-.14-2.46-.476-2.46-1.91 0-.742.503-1.84 2.656-1.84 2.601 0 2.746 2.223 2.793 2.961.023.192.191.192.261.192.266 0 .266-.117.266-.547zm10.613 4.566c.528 0 .575 0 .575-.453 0-2.414-1.289-4.66-4.184-4.66-2.723 0-4.824 2.461-4.824 5.422 0 3.156 2.437 5.472 5.086 5.472 2.843 0 3.922-2.582 3.922-3.082 0-.144-.122-.238-.262-.238-.192 0-.242.117-.289.238-.621 2.008-2.223 2.555-3.227 2.555s-3.418-.668-3.418-4.801v-.453zm-6.597-.453c.191-3.754 2.297-4.184 2.965-4.184 2.558 0 2.699 3.367 2.722 4.184zm41.48.191c0-2.226 0-2.894-.551-3.66-.695-.93-1.816-1.074-2.629-1.074-2.316 0-3.226 1.984-3.417 2.461h-.024v-2.461l-3.25.266v.691c1.625 0 1.816.168 1.816 1.34v6.472c0 1.075-.261 1.075-1.816 1.075v.695c.621-.047 1.914-.047 2.582-.047.692 0 1.984 0 2.606.047v-.695c-1.532 0-1.817 0-1.817-1.075v-4.445c0-2.508 1.649-3.848 3.129-3.848 1.484 0 1.816 1.219 1.816 2.68v5.613c0 1.075-.261 1.075-1.816 1.075v.695c.621-.047 1.914-.047 2.582-.047.692 0 1.981 0 2.606.047v-.695c-1.196 0-1.793 0-1.817-.715zm13.332.692c0-3.082-2.34-5.543-5.113-5.543-2.867 0-5.137 2.531-5.137 5.543 0 3.058 2.391 5.351 5.113 5.351 2.821 0 5.137-2.34 5.137-5.351m-5.113 4.824c-.883 0-1.957-.379-2.652-1.551-.645-1.074-.668-2.484-.668-3.488 0-.91 0-2.367.738-3.442a3.07 3.07 0 0 1 2.558-1.41c.934 0 1.938.43 2.583 1.364.742 1.097.742 2.601.742 3.488 0 .836 0 2.316-.625 3.441-.668 1.145-1.766 1.598-2.676 1.598m16.48-5.516c0-2.226 0-2.894-.55-3.66-.692-.93-1.817-1.074-2.629-1.074-2.317 0-3.227 1.984-3.414 2.461h-.028v-2.461l-3.25.266v.691c1.625 0 1.817.168 1.817 1.34v6.472c0 1.075-.262 1.075-1.817 1.075v.695c.621-.047 1.914-.047 2.582-.047.696 0 1.985 0 2.606.047v-.695c-1.531 0-1.817 0-1.817-1.075v-4.445c0-2.508 1.649-3.848 3.129-3.848 1.485 0 1.817 1.219 1.817 2.68v5.613c0 1.075-.262 1.075-1.817 1.075v.695c.621-.047 1.914-.047 2.582-.047.696 0 1.985 0 2.606.047v-.695c-1.196 0-1.793 0-1.817-.715zm29.477-10.781-3.32.266v.691c1.625 0 1.812.168 1.812 1.34v12.519c0 1.075-.262 1.075-1.812 1.075v.695c.668-.047 1.836-.047 2.554-.047.719 0 1.914 0 2.582.047v-.695c-1.531 0-1.816 0-1.816-1.075zm9.652 6.313v.691c1.625 0 1.817.168 1.817 1.34v4.273c0 2.031-1.075 3.731-2.867 3.731-1.961 0-2.079-1.125-2.079-2.391v-7.91l-3.371.266v.691c1.817 0 1.817.07 1.817 2.199v3.582c0 1.481 0 2.344.718 3.133.575.621 1.555.906 2.774.906.406 0 1.168 0 1.98-.691.696-.551 1.075-1.461 1.075-1.461v2.152l3.324-.238v-.695c-1.625 0-1.817-.164-1.817-1.336v-8.508zm14.387 1.429c-.285 0-1.172 0-1.172.981 0 .574.406.98.981.98.55 0 1.004-.336 1.004-1.027 0-1.602-1.672-2.746-3.61-2.746-2.793 0-5.015 2.484-5.015 5.496 0 3.058 2.292 5.398 4.992 5.398 3.156 0 3.871-2.867 3.871-3.082s-.168-.215-.238-.215c-.215 0-.239.071-.309.36-.527 1.695-1.816 2.41-3.109 2.41-1.457 0-3.391-1.266-3.391-4.899 0-3.964 2.031-4.945 3.223-4.945.91 0 2.226.36 2.773 1.289m10.902 3.301c.528 0 .575 0 .575-.453 0-2.414-1.289-4.66-4.184-4.66-2.723 0-4.824 2.461-4.824 5.422 0 3.156 2.437 5.472 5.086 5.472 2.843 0 3.922-2.582 3.922-3.082 0-.144-.122-.238-.262-.238-.192 0-.242.117-.289.238-.621 2.008-2.223 2.555-3.227 2.555s-3.418-.668-3.418-4.801v-.453zm-6.597-.453c.191-3.754 2.297-4.184 2.965-4.184 2.558 0 2.699 3.367 2.722 4.184zm24.867-.383c0-1.293 0-2.25-1.051-3.18-.836-.765-1.91-1.097-2.961-1.097-1.961 0-3.465 1.289-3.465 2.843 0 .692.453 1.028 1.004 1.028.574 0 .981-.406.981-.981 0-.98-.864-.98-1.219-.98.547-1.004 1.695-1.434 2.648-1.434 1.102 0 2.512.907 2.512 3.059v.957c-4.805.07-6.617 2.078-6.617 3.918 0 1.887 2.195 2.484 3.652 2.484 1.578 0 2.657-.957 3.11-2.101.093 1.121.836 1.98 1.863 1.98.5 0 1.887-.332 1.887-2.246v-1.336h-.524v1.336c0 1.363-.574 1.555-.91 1.555-.91 0-.91-1.266-.91-1.625zm-1.551 3.012c0 2.34-1.742 3.129-2.773 3.129-1.168 0-2.149-.864-2.149-2.008 0-3.152 4.063-3.442 4.922-3.488zm12.68-5.477c-.285 0-1.172 0-1.172.981 0 .574.406.98.98.98.551 0 1.004-.336 1.004-1.027 0-1.602-1.672-2.746-3.609-2.746-2.793 0-5.02 2.484-5.02 5.496 0 3.058 2.297 5.398 4.996 5.398 3.157 0 3.872-2.867 3.872-3.082s-.168-.215-.239-.215c-.215 0-.242.071-.308.36-.528 1.695-1.821 2.41-3.11 2.41-1.457 0-3.39-1.266-3.39-4.899 0-3.964 2.031-4.945 3.222-4.945.911 0 2.227.36 2.774 1.289m10.398 0c-.285 0-1.168 0-1.168.981 0 .574.407.98.977.98.551 0 1.004-.336 1.004-1.027 0-1.602-1.672-2.746-3.606-2.746-2.797 0-5.019 2.484-5.019 5.496 0 3.058 2.293 5.398 4.996 5.398 3.152 0 3.871-2.867 3.871-3.082s-.168-.215-.242-.215c-.215 0-.239.071-.309.36-.527 1.695-1.816 2.41-3.109 2.41-1.457 0-3.391-1.266-3.391-4.899 0-3.964 2.031-4.945 3.227-4.945.906 0 2.222.36 2.769 1.289m10.903 3.301c.527 0 .574 0 .574-.453 0-2.414-1.289-4.66-4.184-4.66-2.722 0-4.824 2.461-4.824 5.422 0 3.156 2.437 5.472 5.09 5.472 2.844 0 3.918-2.582 3.918-3.082 0-.144-.121-.238-.262-.238-.191 0-.242.117-.285.238-.625 2.008-2.223 2.555-3.231 2.555-1 0-3.414-.668-3.414-4.801v-.453zm-6.594-.453c.191-3.754 2.293-4.184 2.961-4.184 2.558 0 2.703 3.367 2.726 4.184zm15.68-4.113c0-.43 0-.547-.239-.547-.191 0-.644.523-.812.738-.742-.598-1.481-.738-2.246-.738-2.895 0-3.75 1.574-3.75 2.89 0 .262 0 1.098.906 1.934.766.672 1.574.84 2.676 1.051 1.316.265 1.625.336 2.222.812.43.36.743.887.743 1.555 0 1.027-.598 2.176-2.704 2.176-1.574 0-2.722-.91-3.25-3.297-.093-.434-.093-.457-.117-.481-.047-.093-.144-.093-.215-.093-.261 0-.261.117-.261.546v3.25c0 .43 0 .551.238.551.117 0 .141-.023.547-.527.121-.164.121-.215.48-.594.907 1.121 2.196 1.121 2.602 1.121 2.512 0 3.754-1.386 3.754-3.273 0-1.289-.789-2.055-1.004-2.27-.86-.742-1.504-.883-3.082-1.172-.719-.14-2.461-.476-2.461-1.91 0-.742.5-1.84 2.652-1.84 2.606 0 2.746 2.223 2.797 2.961.024.192.188.192.262.192.262 0 .262-.117.262-.547zm10.585 3.73c0-1.293 0-2.25-1.05-3.18-.836-.765-1.91-1.097-2.965-1.097-1.957 0-3.465 1.289-3.465 2.843 0 .692.453 1.028 1.004 1.028.574 0 .98-.406.98-.981 0-.98-.859-.98-1.218-.98.55-1.004 1.699-1.434 2.652-1.434 1.102 0 2.508.907 2.508 3.059v.957c-4.801.07-6.617 2.078-6.617 3.918 0 1.887 2.199 2.484 3.656 2.484 1.578 0 2.652-.957 3.105-2.101.098 1.121.836 1.98 1.864 1.98.503 0 1.89-.332 1.89-2.246v-1.336h-.527v1.336c0 1.363-.574 1.555-.906 1.555-.911 0-.911-1.266-.911-1.625zm-1.554 3.012c0 2.34-1.742 3.129-2.77 3.129-1.172 0-2.152-.864-2.152-2.008 0-3.152 4.062-3.442 4.922-3.488zm39.64-6.238h2.704v-.696h-2.75v-2.793c0-2.152 1.097-3.25 2.078-3.25.191 0 .55.047.836.188-.094.027-.692.242-.692.933 0 .551.383.934.934.934.574 0 .953-.383.953-.957 0-.883-.859-1.578-2.004-1.578-1.676 0-3.563 1.293-3.563 3.73v2.793h-1.863v.696h1.863v7.835c0 1.075-.261 1.075-1.816 1.075v.695c.668-.047 1.984-.047 2.699-.047.645 0 2.344 0 2.891.047v-.695h-.477c-1.746 0-1.793-.262-1.793-1.121zm12.313 3.226c0-1.293 0-2.25-1.051-3.18-.836-.765-1.91-1.097-2.961-1.097-1.961 0-3.465 1.289-3.465 2.843 0 .692.453 1.028 1.004 1.028.574 0 .981-.406.981-.981 0-.98-.864-.98-1.219-.98.547-1.004 1.695-1.434 2.648-1.434 1.102 0 2.512.907 2.512 3.059v.957c-4.805.07-6.617 2.078-6.617 3.918 0 1.887 2.195 2.484 3.652 2.484 1.578 0 2.657-.957 3.11-2.101.093 1.121.836 1.98 1.863 1.98.5 0 1.887-.332 1.887-2.246v-1.336h-.524v1.336c0 1.363-.574 1.555-.91 1.555-.91 0-.91-1.266-.91-1.625zm-1.551 3.012c0 2.34-1.742 3.129-2.773 3.129-1.168 0-2.149-.864-2.149-2.008 0-3.152 4.063-3.442 4.922-3.488zm8.188-11.352c0-.625-.504-1.172-1.172-1.172-.621 0-1.145.5-1.145 1.149 0 .715.571 1.168 1.145 1.168.742 0 1.172-.621 1.172-1.145m-3.297 4.446v.691c1.527 0 1.742.144 1.742 1.312v6.5c0 1.075-.262 1.075-1.816 1.075v.695c.671-.047 1.816-.047 2.511-.047.262 0 1.649 0 2.461.047v-.695c-1.555 0-1.648-.118-1.648-1.047v-8.797zm10.035 1.121c0-.645-.551-1.149-1.149-1.149-.691 0-1.168.551-1.168 1.149a1.17 1.17 0 0 0 1.149 1.172c.644 0 1.168-.504 1.168-1.172m0 7.98c0-.644-.551-1.148-1.149-1.148-.691 0-1.168.55-1.168 1.148 0 .719.598 1.172 1.149 1.172.644 0 1.168-.504 1.168-1.172m-272.606-99.414-3.324.266v.691c1.625 0 1.821.168 1.821 1.34v14.289h.523c.094-.191.766-1.387.859-1.555.551.887 1.578 1.793 3.11 1.793 2.746 0 5.16-2.316 5.16-5.398 0-3.035-2.246-5.379-4.899-5.379-1.312 0-2.437.598-3.25 1.601zm.047 8.938c0-.43 0-.477.266-.86.57-.859 1.625-1.555 2.793-1.555.719 0 3.226.29 3.226 4.875 0 1.602-.238 2.606-.812 3.469-.477.739-1.434 1.481-2.629 1.481-1.289 0-2.129-.836-2.535-1.481-.309-.504-.309-.601-.309-1.008zm13.075-8.938-3.325.266v.691c1.625 0 1.817.168 1.817 1.34v12.519c0 1.075-.262 1.075-1.817 1.075v.695c.668-.047 1.84-.047 2.559-.047.715 0 1.91 0 2.582.047v-.695c-1.531 0-1.816 0-1.816-1.075zm13.355 11.473c0-3.082-2.34-5.543-5.113-5.543-2.867 0-5.137 2.531-5.137 5.543 0 3.058 2.387 5.351 5.113 5.351 2.821 0 5.137-2.34 5.137-5.351m-5.113 4.824c-.883 0-1.961-.379-2.653-1.551-.644-1.074-.668-2.484-.668-3.488 0-.91 0-2.367.739-3.442a3.06 3.06 0 0 1 2.558-1.41c.934 0 1.938.43 2.578 1.364.743 1.097.743 2.601.743 3.488 0 .836 0 2.316-.622 3.441-.667 1.145-1.765 1.598-2.675 1.598m15.195-8.555c-.285 0-1.172 0-1.172.981 0 .574.406.98.981.98.55 0 1.004-.336 1.004-1.027 0-1.602-1.672-2.746-3.61-2.746-2.793 0-5.015 2.484-5.015 5.496 0 3.058 2.292 5.398 4.992 5.398 3.156 0 3.871-2.867 3.871-3.082s-.168-.215-.238-.215c-.215 0-.239.071-.309.36-.527 1.695-1.816 2.41-3.109 2.41-1.457 0-3.391-1.266-3.391-4.899 0-3.964 2.031-4.945 3.223-4.945.91 0 2.226.36 2.773 1.289m10.398 0c-.285 0-1.168 0-1.168.981 0 .574.407.98.981.98.547 0 1.004-.336 1.004-1.027 0-1.602-1.676-2.746-3.61-2.746-2.796 0-5.019 2.484-5.019 5.496 0 3.058 2.293 5.398 4.996 5.398 3.152 0 3.871-2.867 3.871-3.082s-.168-.215-.238-.215c-.219 0-.242.071-.313.36-.523 1.695-1.816 2.41-3.105 2.41-1.457 0-3.395-1.266-3.395-4.899 0-3.964 2.032-4.945 3.227-4.945.906 0 2.223.36 2.769 1.289m12.719 3.731c0-3.082-2.34-5.543-5.113-5.543-2.867 0-5.137 2.531-5.137 5.543 0 3.058 2.391 5.351 5.113 5.351 2.821 0 5.137-2.34 5.137-5.351m-5.113 4.824c-.883 0-1.957-.379-2.652-1.551-.645-1.074-.668-2.484-.668-3.488 0-.91 0-2.367.738-3.442a3.07 3.07 0 0 1 2.558-1.41c.934 0 1.938.43 2.583 1.364.742 1.097.742 2.601.742 3.488 0 .836 0 2.316-.625 3.441-.668 1.145-1.766 1.598-2.676 1.598m16.707-13.402a7.1 7.1 0 0 0 2.125.355c2.699 0 4.422-1.98 4.422-2.316 0-.094-.047-.215-.192-.215-.05 0-.097 0-.312.094a7.8 7.8 0 0 1-3.106.644c-1.578 0-2.699-.476-3.156-.668-.164-.07-.215-.07-.238-.07-.191 0-.191.144-.191.523v7.102c0 .429 0 .57.289.57.117 0 .14-.023.382-.308a3.6 3.6 0 0 1 2.985-1.555c1.265 0 1.89 1.172 2.078 1.578.406.934.433 2.102.433 3.012 0 .906 0 2.269-.671 3.343-.524.86-1.457 1.457-2.508 1.457a3.69 3.69 0 0 1-3.559-2.82c.117.051.262.074.379.074.406 0 1.051-.238 1.051-1.05 0-.672-.453-1.051-1.051-1.051-.43 0-1.051.211-1.051 1.144 0 2.032 1.625 4.352 4.278 4.352 2.699 0 5.066-2.274 5.066-5.309 0-2.843-1.91-5.207-4.422-5.207-1.359 0-2.414.598-3.031 1.266z"/></g></svg>