<svg xmlns="http://www.w3.org/2000/svg" width="203pt" height="215pt" viewBox="0 -215 203 215"><g id="page1"><path fill="#ffd9b2" d="M10.004-8.953h5.953c1.633 0 3.2.648 4.355 1.805l4.895 4.894a2.553 2.553 0 0 0 3.61 0l4.894-4.894a6.16 6.16 0 0 1 4.355-1.805h151.758a2.55 2.55 0 0 0 2.551-2.55v-47.645a2.55 2.55 0 0 0-2.551-2.551H38.066a6.16 6.16 0 0 0-4.355 1.804L28.816-55a2.553 2.553 0 0 1-3.609 0l-4.895-4.895a6.16 6.16 0 0 0-4.355-1.804H4.051a2.55 2.55 0 0 0-2.551 2.55v47.645c0 1.41 1.14 2.55 2.55 2.55z"/><path fill="none" stroke="#b25900" stroke-linecap="round" stroke-linejoin="round" stroke-width="3" d="M10.004-8.953h5.953c1.633 0 3.2.648 4.355 1.805l4.895 4.894a2.553 2.553 0 0 0 3.61 0l4.894-4.894a6.16 6.16 0 0 1 4.355-1.805h151.758a2.55 2.55 0 0 0 2.551-2.55v-47.645a2.55 2.55 0 0 0-2.551-2.551H38.066a6.16 6.16 0 0 0-4.355 1.804L28.816-55a2.553 2.553 0 0 1-3.609 0l-4.895-4.895a6.16 6.16 0 0 0-4.355-1.804H4.051a2.55 2.55 0 0 0-2.551 2.55v47.645c0 1.41 1.14 2.55 2.55 2.55z"/><path fill="#ffffb2" d="M10.004-64.644h5.953c1.633 0 3.2.648 4.355 1.804l4.895 4.895a2.553 2.553 0 0 0 3.61 0l4.894-4.895a6.16 6.16 0 0 1 4.355-1.804h151.758a2.55 2.55 0 0 0 2.551-2.551V-210.11a2.55 2.55 0 0 0-2.551-2.551H38.066a6.16 6.16 0 0 0-4.355 1.805l-4.895 4.894a2.554 2.554 0 0 1-3.609 0l-4.895-4.894a6.16 6.16 0 0 0-4.355-1.805H4.051A2.55 2.55 0 0 0 1.5-210.11v142.914a2.55 2.55 0 0 0 2.55 2.55z"/><path fill="none" stroke="#b2b200" stroke-linecap="round" stroke-linejoin="round" stroke-width="3" d="M10.004-64.644h5.953c1.633 0 3.2.648 4.355 1.804l4.895 4.895a2.553 2.553 0 0 0 3.61 0l4.894-4.895a6.16 6.16 0 0 1 4.355-1.804h151.758a2.55 2.55 0 0 0 2.551-2.551V-210.11a2.55 2.55 0 0 0-2.551-2.551H38.066a6.16 6.16 0 0 0-4.355 1.805l-4.895 4.894a2.554 2.554 0 0 1-3.609 0l-4.895-4.894a6.16 6.16 0 0 0-4.355-1.805H4.051A2.55 2.55 0 0 0 1.5-210.11v142.914a2.55 2.55 0 0 0 2.55 2.55z"/><path fill="#ffd9b2" d="M35.516-81.652h5.953c1.633 0 3.199.648 4.355 1.804l4.895 4.895a2.553 2.553 0 0 0 3.61 0l4.894-4.895a6.16 6.16 0 0 1 4.355-1.804h134.75a2.55 2.55 0 0 0 2.551-2.551v-47.649a2.55 2.55 0 0 0-2.551-2.55H63.578c-1.633 0-3.2.648-4.355 1.804l-4.895 4.899a2.553 2.553 0 0 1-3.61 0l-4.894-4.899a6.16 6.16 0 0 0-4.355-1.804H29.562a2.55 2.55 0 0 0-2.55 2.55v47.649a2.55 2.55 0 0 0 2.55 2.55z"/><path fill="none" stroke="#b25900" stroke-linecap="round" stroke-linejoin="round" stroke-width="3" d="M35.516-81.652h5.953c1.633 0 3.199.648 4.355 1.804l4.895 4.895a2.553 2.553 0 0 0 3.61 0l4.894-4.895a6.16 6.16 0 0 1 4.355-1.804h134.75a2.55 2.55 0 0 0 2.551-2.551v-47.649a2.55 2.55 0 0 0-2.551-2.55H63.578c-1.633 0-3.2.648-4.355 1.804l-4.895 4.899a2.553 2.553 0 0 1-3.61 0l-4.894-4.899a6.16 6.16 0 0 0-4.355-1.804H29.562a2.55 2.55 0 0 0-2.55 2.55v47.649a2.55 2.55 0 0 0 2.55 2.55z"/><path fill="#b2ffb2" d="m51.215-157.59 9.504 8.84a16.22 16.22 0 0 0 11.05 4.344h22.47c4.1 0 8.046-1.551 11.05-4.344l19.008-17.684c2.519-2.347 2.519-6.343 0-8.687l-19.008-17.688a16.22 16.22 0 0 0-11.05-4.343h-22.47c-4.101 0-8.046 1.55-11.05 4.343l-19.004 17.688a5.93 5.93 0 0 0 0 8.687z"/><path fill="none" stroke="#00b200" stroke-linecap="round" stroke-linejoin="round" stroke-width="3" d="m51.215-157.59 9.504 8.84a16.22 16.22 0 0 0 11.05 4.344h22.47c4.1 0 8.046-1.551 11.05-4.344l19.008-17.684c2.519-2.347 2.519-6.343 0-8.687l-19.008-17.688a16.22 16.22 0 0 0-11.05-4.343h-22.47c-4.101 0-8.046 1.55-11.05 4.343l-19.004 17.688a5.93 5.93 0 0 0 0 8.687z"/><path d="M21.648-38.14c-.285 0-1.168 0-1.168.976 0 .574.407.98.98.98.548 0 1-.332 1-1.027 0-1.602-1.67-2.746-3.605-2.746-2.796 0-5.02 2.484-5.02 5.496 0 3.059 2.294 5.398 4.997 5.398 3.152 0 3.871-2.867 3.871-3.082s-.168-.214-.242-.214c-.211 0-.238.07-.309.359-.527 1.695-1.816 2.414-3.105 2.414-1.461 0-3.395-1.266-3.395-4.898 0-3.97 2.032-4.95 3.227-4.95.906 0 2.223.36 2.77 1.293m10.976 2.461c0-1.289 0-2.246-1.05-3.18-.84-.765-1.915-1.097-2.966-1.097-1.96 0-3.465 1.289-3.465 2.844 0 .691.454 1.027 1.004 1.027.575 0 .98-.406.98-.98 0-.98-.862-.98-1.218-.98.55-1.005 1.695-1.434 2.653-1.434 1.097 0 2.507.91 2.507 3.058v.957c-4.804.07-6.617 2.078-6.617 3.918 0 1.89 2.195 2.485 3.656 2.485 1.575 0 2.653-.954 3.106-2.102.094 1.125.836 1.984 1.863 1.984.5 0 1.887-.336 1.887-2.246v-1.34h-.524v1.34c0 1.363-.574 1.551-.91 1.551-.906 0-.906-1.266-.906-1.625zm-1.555 3.012c0 2.34-1.742 3.129-2.773 3.129-1.168 0-2.149-.86-2.149-2.008 0-3.152 4.063-3.441 4.922-3.488zm21.164-2.437c0-2.223 0-2.895-.55-3.657-.692-.933-1.817-1.078-2.63-1.078-1.984 0-2.984 1.434-3.367 2.367-.335-1.84-1.624-2.367-3.132-2.367-2.317 0-3.227 1.985-3.414 2.465h-.028v-2.465l-3.25.266v.691c1.625 0 1.817.168 1.817 1.34v6.473c0 1.078-.262 1.078-1.817 1.078v.691c.621-.047 1.914-.047 2.582-.047.696 0 1.985 0 2.606.047v-.691c-1.532 0-1.817 0-1.817-1.078v-4.442c0-2.511 1.649-3.847 3.13-3.847 1.484 0 1.816 1.218 1.816 2.675v5.614c0 1.078-.262 1.078-1.817 1.078v.691c.621-.047 1.914-.047 2.582-.047.696 0 1.985 0 2.606.047v-.691c-1.532 0-1.817 0-1.817-1.078v-4.442c0-2.511 1.649-3.847 3.13-3.847s1.816 1.218 1.816 2.675v5.614c0 1.078-.262 1.078-1.817 1.078v.691c.621-.047 1.914-.047 2.582-.047.696 0 1.985 0 2.606.047v-.691c-1.196 0-1.793 0-1.817-.719zm19.5 0c0-2.223 0-2.895-.55-3.657-.692-.933-1.817-1.078-2.63-1.078-1.984 0-2.984 1.434-3.367 2.367-.335-1.84-1.624-2.367-3.132-2.367-2.317 0-3.227 1.985-3.414 2.465h-.028v-2.465l-3.25.266v.691c1.625 0 1.817.168 1.817 1.34v6.473c0 1.078-.262 1.078-1.817 1.078v.691c.621-.047 1.914-.047 2.582-.047.696 0 1.985 0 2.606.047v-.691c-1.532 0-1.817 0-1.817-1.078v-4.442c0-2.511 1.649-3.847 3.13-3.847 1.484 0 1.816 1.218 1.816 2.675v5.614c0 1.078-.262 1.078-1.817 1.078v.691c.621-.047 1.914-.047 2.582-.047.696 0 1.985 0 2.606.047v-.691c-1.532 0-1.817 0-1.817-1.078v-4.442c0-2.511 1.649-3.847 3.13-3.847s1.816 1.218 1.816 2.675v5.614c0 1.078-.262 1.078-1.817 1.078v.691c.621-.047 1.914-.047 2.582-.047.696 0 1.985 0 2.606.047v-.691c-1.195 0-1.793 0-1.817-.719zm6.524-8.915c0-.62-.5-1.171-1.172-1.171-.621 0-1.145.504-1.145 1.148a1.15 1.15 0 0 0 1.145 1.168c.742 0 1.172-.621 1.172-1.145m-3.297 4.446v.691c1.527 0 1.742.145 1.742 1.313v6.5c0 1.078-.262 1.078-1.812 1.078v.691c.668-.047 1.812-.047 2.507-.047.262 0 1.649 0 2.461.047v-.691c-1.554 0-1.648-.121-1.648-1.051v-8.797zm16.273 4.469c0-2.223 0-2.895-.55-3.657-.692-.933-1.817-1.078-2.63-1.078-2.316 0-3.226 1.985-3.413 2.465h-.028v-2.465l-3.25.266v.691c1.625 0 1.817.168 1.817 1.34v6.473c0 1.078-.262 1.078-1.817 1.078v.691c.621-.047 1.914-.047 2.582-.047.696 0 1.985 0 2.606.047v-.691c-1.532 0-1.817 0-1.817-1.078v-4.442c0-2.511 1.649-3.847 3.13-3.847 1.484 0 1.816 1.218 1.816 2.675v5.614c0 1.078-.262 1.078-1.817 1.078v.691c.621-.047 1.914-.047 2.582-.047.696 0 1.985 0 2.606.047v-.691c-1.195 0-1.793 0-1.817-.719zm11.59-.575c0-1.289 0-2.246-1.051-3.18-.835-.765-1.914-1.097-2.964-1.097-1.957 0-3.465 1.289-3.465 2.844 0 .691.453 1.027 1.004 1.027.574 0 .98-.406.98-.98 0-.98-.86-.98-1.219-.98.551-1.005 1.696-1.434 2.653-1.434 1.097 0 2.508.91 2.508 3.058v.957c-4.801.07-6.618 2.078-6.618 3.918 0 1.89 2.2 2.485 3.657 2.485 1.574 0 2.652-.954 3.105-2.102.094 1.125.836 1.984 1.863 1.984.504 0 1.887-.336 1.887-2.246v-1.34h-.523v1.34c0 1.363-.575 1.551-.907 1.551-.91 0-.91-1.266-.91-1.625zm-1.554 3.012c0 2.34-1.743 3.129-2.77 3.129-1.172 0-2.152-.86-2.152-2.008 0-3.152 4.062-3.441 4.922-3.488zm-45.637-75.137c0-2.226 0-2.894-.547-3.66-.695-.93-1.816-1.074-2.629-1.074-1.984 0-2.988 1.434-3.371 2.367-.336-1.84-1.625-2.367-3.129-2.367-2.32 0-3.227 1.984-3.418 2.461h-.023v-2.461l-3.25.266v.691c1.625 0 1.816.168 1.816 1.34v6.472c0 1.075-.262 1.075-1.816 1.075v.695c.62-.047 1.91-.047 2.578-.047.695 0 1.984 0 2.605.047v-.695c-1.527 0-1.816 0-1.816-1.075v-4.445c0-2.508 1.648-3.848 3.133-3.848 1.48 0 1.816 1.219 1.816 2.68v5.613c0 1.075-.266 1.075-1.816 1.075v.695c.62-.047 1.91-.047 2.578-.047.695 0 1.984 0 2.605.047v-.695c-1.527 0-1.816 0-1.816-1.075v-4.445c0-2.508 1.648-3.848 3.133-3.848 1.48 0 1.816 1.219 1.816 2.68v5.613c0 1.075-.266 1.075-1.816 1.075v.695c.62-.047 1.91-.047 2.578-.047.695 0 1.984 0 2.605.047v-.695c-1.195 0-1.793 0-1.816-.715zm11.59-.574c0-1.293 0-2.25-1.051-3.18-.836-.765-1.91-1.097-2.961-1.097-1.961 0-3.469 1.289-3.469 2.843 0 .692.457 1.028 1.008 1.028.57 0 .977-.406.977-.981 0-.98-.86-.98-1.22-.98.552-1.004 1.7-1.434 2.653-1.434 1.102 0 2.512.907 2.512 3.059v.957c-4.805.07-6.621 2.078-6.621 3.918 0 1.887 2.199 2.484 3.656 2.484 1.578 0 2.652-.957 3.105-2.101.098 1.121.836 1.98 1.868 1.98.5 0 1.886-.332 1.886-2.246v-1.336h-.527v1.336c0 1.363-.57 1.555-.906 1.555-.91 0-.91-1.266-.91-1.625zm-1.551 3.012c0 2.34-1.746 3.129-2.774 3.129-1.171 0-2.148-.864-2.148-2.008 0-3.152 4.063-3.442 4.922-3.488zm14.664-2.438c0-2.226 0-2.894-.55-3.66-.696-.93-1.817-1.074-2.63-1.074-2.32 0-3.226 1.984-3.418 2.461h-.023v-2.461l-3.25.266v.691c1.625 0 1.816.168 1.816 1.34v6.472c0 1.075-.262 1.075-1.816 1.075v.695c.62-.047 1.91-.047 2.582-.047.691 0 1.984 0 2.601.047v-.695c-1.527 0-1.812 0-1.812-1.075v-4.445c0-2.508 1.648-3.848 3.129-3.848 1.48 0 1.816 1.219 1.816 2.68v5.613c0 1.075-.265 1.075-1.816 1.075v.695c.62-.047 1.91-.047 2.582-.047.691 0 1.98 0 2.601.047v-.695c-1.195 0-1.789 0-1.812-.715zm5.207 1.481c1.125.738 2.082.738 2.344.738 2.148 0 3.75-1.625 3.75-3.465 0-.644-.192-1.551-.957-2.316.933-.957 2.054-.957 2.175-.957.098 0 .215 0 .313.051-.238.093-.36.332-.36.593 0 .336.239.625.622.625.191 0 .62-.121.62-.648 0-.43-.335-1.098-1.171-1.098-1.242 0-2.176.766-2.508 1.121-.715-.547-1.555-.859-2.46-.859-2.153 0-3.755 1.625-3.755 3.465 0 1.363.836 2.246 1.078 2.461-.289.359-.718 1.05-.718 1.984 0 1.387.836 1.984 1.027 2.106-1.098.308-2.2 1.168-2.2 2.41 0 1.648 2.25 3.011 5.188 3.011 2.844 0 5.211-1.265 5.211-3.058 0-.598-.168-2.008-1.601-2.746-1.22-.625-2.414-.625-4.47-.625-1.46 0-1.624 0-2.054-.453-.242-.239-.457-.692-.457-1.196 0-.406.145-.812.383-1.144m2.367.238c-2.105 0-2.105-2.414-2.105-2.965 0-.429 0-1.41.406-2.054a2.05 2.05 0 0 1 1.676-.93c2.101 0 2.101 2.414 2.101 2.961 0 .429 0 1.41-.406 2.054a2.03 2.03 0 0 1-1.672.934m.645 8.484c-2.293 0-4.04-1.171-4.04-2.535 0-.191.047-1.121.958-1.746.527-.332.738-.332 2.414-.332 1.98 0 4.683 0 4.683 2.078 0 1.41-1.816 2.535-4.015 2.535m10.004-19.117c0-.625-.504-1.172-1.172-1.172-.621 0-1.145.5-1.145 1.149 0 .715.57 1.168 1.145 1.168.742 0 1.172-.621 1.172-1.145m-3.297 4.446v.691c1.527 0 1.742.144 1.742 1.312v6.5c0 1.075-.262 1.075-1.817 1.075v.695c.672-.047 1.817-.047 2.512-.047.262 0 1.649 0 2.461.047v-.695c-1.554 0-1.648-.118-1.648-1.047v-8.797zm14.859 3.894c0-1.293 0-2.25-1.047-3.18-.84-.765-1.914-1.097-2.965-1.097-1.961 0-3.464 1.289-3.464 2.843 0 .692.453 1.028 1.003 1.028.575 0 .981-.406.981-.981 0-.98-.863-.98-1.219-.98.551-1.004 1.695-1.434 2.653-1.434 1.097 0 2.507.907 2.507 3.059v.957c-4.804.07-6.617 2.078-6.617 3.918 0 1.887 2.195 2.484 3.656 2.484 1.575 0 2.653-.957 3.106-2.101.094 1.121.836 1.98 1.863 1.98.5 0 1.887-.332 1.887-2.246v-1.336h-.524v1.336c0 1.363-.574 1.555-.91 1.555-.91 0-.91-1.266-.91-1.625zm-1.551 3.012c0 2.34-1.742 3.129-2.773 3.129-1.168 0-2.149-.864-2.149-2.008 0-3.152 4.063-3.442 4.922-3.488zm17.684 7.308c-1.527 0-1.816 0-1.816-1.074v-4.156c.429.594 1.41 1.527 2.941 1.527 2.75 0 5.16-2.316 5.16-5.398 0-3.035-2.246-5.379-4.851-5.379-2.102 0-3.223 1.508-3.297 1.601v-1.601l-3.321.266v.691c1.672 0 1.817.168 1.817 1.219v11.23c0 1.074-.266 1.074-1.817 1.074v.696c.621-.051 1.91-.051 2.578-.051.696 0 1.985 0 2.606.05zm-1.816-11.562c0-.457 0-.481.265-.863a3.44 3.44 0 0 1 2.793-1.528c1.793 0 3.227 2.172 3.227 4.852 0 2.84-1.625 4.922-3.465 4.922a2.8 2.8 0 0 1-1.91-.766c-.551-.551-.91-1.027-.91-1.695zm18.183 1.242c0-1.293 0-2.25-1.047-3.18-.84-.765-1.914-1.097-2.965-1.097-1.961 0-3.464 1.289-3.464 2.843 0 .692.453 1.028 1.003 1.028.575 0 .981-.406.981-.981 0-.98-.863-.98-1.219-.98.551-1.004 1.695-1.434 2.653-1.434 1.097 0 2.507.907 2.507 3.059v.957c-4.804.07-6.617 2.078-6.617 3.918 0 1.887 2.195 2.484 3.656 2.484 1.575 0 2.653-.957 3.106-2.101.094 1.121.836 1.98 1.863 1.98.5 0 1.887-.332 1.887-2.246v-1.336h-.524v1.336c0 1.363-.574 1.555-.91 1.555-.91 0-.91-1.266-.91-1.625zm-1.551 3.012c0 2.34-1.742 3.129-2.773 3.129-1.168 0-2.149-.864-2.149-2.008 0-3.152 4.063-3.442 4.922-3.488zm14.766-2.438c0-2.226 0-2.894-.551-3.66-.695-.93-1.816-1.074-2.629-1.074-2.316 0-3.226 1.984-3.418 2.461h-.023v-2.461l-3.25.266v.691c1.625 0 1.816.168 1.816 1.34v6.472c0 1.075-.261 1.075-1.816 1.075v.695c.621-.047 1.914-.047 2.582-.047.691 0 1.984 0 2.601.047v-.695c-1.527 0-1.812 0-1.812-1.075v-4.445c0-2.508 1.648-3.848 3.129-3.848 1.48 0 1.816 1.219 1.816 2.68v5.613c0 1.075-.265 1.075-1.816 1.075v.695c.621-.047 1.914-.047 2.582-.047.691 0 1.98 0 2.601.047v-.695c-1.195 0-1.789 0-1.812-.715zm6.523-8.914c0-.625-.504-1.172-1.171-1.172-.622 0-1.149.5-1.149 1.149 0 .715.574 1.168 1.149 1.168.742 0 1.171-.621 1.171-1.145m-3.296 4.446v.691c1.527 0 1.742.144 1.742 1.312v6.5c0 1.075-.262 1.075-1.817 1.075v.695c.668-.047 1.817-.047 2.508-.047.266 0 1.652 0 2.465.047v-.695c-1.555 0-1.648-.118-1.648-1.047v-8.797zm16.273 4.468c0-2.226 0-2.894-.551-3.66-.695-.93-1.816-1.074-2.629-1.074-2.316 0-3.226 1.984-3.418 2.461h-.023v-2.461l-3.25.266v.691c1.625 0 1.816.168 1.816 1.34v6.472c0 1.075-.261 1.075-1.816 1.075v.695c.621-.047 1.914-.047 2.582-.047.691 0 1.984 0 2.601.047v-.695c-1.527 0-1.812 0-1.812-1.075v-4.445c0-2.508 1.648-3.848 3.129-3.848 1.48 0 1.816 1.219 1.816 2.68v5.613c0 1.075-.265 1.075-1.816 1.075v.695c.621-.047 1.914-.047 2.582-.047.691 0 1.98 0 2.601.047v-.695c-1.195 0-1.789 0-1.812-.715zm13.332.692c0-3.082-2.34-5.543-5.113-5.543-2.867 0-5.137 2.531-5.137 5.543 0 3.058 2.387 5.351 5.113 5.351 2.821 0 5.137-2.34 5.137-5.351m-5.113 4.824c-.883 0-1.961-.379-2.653-1.551-.644-1.074-.668-2.484-.668-3.488 0-.91 0-2.367.739-3.442a3.06 3.06 0 0 1 2.558-1.41c.934 0 1.938.43 2.578 1.364.743 1.097.743 2.601.743 3.488 0 .836 0 2.316-.622 3.441-.667 1.145-1.765 1.598-2.675 1.598M20.836-174.906c0-.434 0-.551-.238-.551-.192 0-.645.523-.813.738-.738-.594-1.48-.738-2.246-.738-2.89 0-3.75 1.574-3.75 2.891 0 .261 0 1.097.906 1.933.766.672 1.578.84 2.68 1.055 1.313.262 1.625.332 2.219.812.43.36.742.883.742 1.551 0 1.027-.598 2.176-2.7 2.176-1.577 0-2.722-.906-3.25-3.297-.097-.43-.097-.453-.12-.477-.047-.097-.141-.097-.215-.097-.262 0-.262.121-.262.551v3.25c0 .429 0 .546.238.546.121 0 .145-.023.551-.527.117-.164.117-.211.477-.594.906 1.121 2.199 1.121 2.605 1.121 2.508 0 3.75-1.382 3.75-3.273 0-1.289-.785-2.055-1.004-2.269-.86-.739-1.504-.883-3.082-1.172-.715-.141-2.46-.477-2.46-1.911 0-.742.503-1.839 2.652-1.839 2.605 0 2.75 2.222 2.797 2.964.023.192.19.192.261.192.262 0 .262-.121.262-.551zm10.516 4.562c.527 0 .574 0 .574-.453 0-2.414-1.29-4.66-4.184-4.66-2.722 0-4.824 2.461-4.824 5.426 0 3.152 2.438 5.468 5.09 5.468 2.844 0 3.918-2.578 3.918-3.082 0-.144-.121-.238-.262-.238-.191 0-.242.121-.289.238-.621 2.008-2.219 2.555-3.227 2.555-1 0-3.414-.668-3.414-4.801v-.453zm-6.594-.453c.191-3.754 2.293-4.183 2.96-4.183 2.56 0 2.704 3.371 2.727 4.183zm38.68-4.109c0-.434 0-.551-.239-.551-.191 0-.644.523-.812.738-.742-.594-1.48-.738-2.246-.738-2.891 0-3.75 1.574-3.75 2.891 0 .261 0 1.097.906 1.933.766.672 1.578.84 2.676 1.055 1.316.262 1.625.332 2.222.812.43.36.742.883.742 1.551 0 1.027-.597 2.176-2.703 2.176-1.574 0-2.722-.906-3.25-3.297-.093-.43-.093-.453-.117-.477-.047-.097-.144-.097-.215-.097-.261 0-.261.121-.261.551v3.25c0 .429 0 .546.238.546.117 0 .14-.023.547-.527.12-.164.12-.211.48-.594.907 1.121 2.196 1.121 2.602 1.121 2.511 0 3.754-1.382 3.754-3.273 0-1.289-.79-2.055-1.004-2.269-.86-.739-1.504-.883-3.082-1.172-.719-.141-2.461-.477-2.461-1.911 0-.742.5-1.839 2.652-1.839 2.606 0 2.746 2.222 2.797 2.964.023.192.188.192.262.192.261 0 .261-.121.261-.551zm10.687 3.726c0-1.289 0-2.246-1.05-3.179-.84-.762-1.915-1.098-2.966-1.098-1.96 0-3.465 1.289-3.465 2.844 0 .691.454 1.027 1.004 1.027.575 0 .98-.406.98-.98 0-.981-.862-.981-1.218-.981.55-1.004 1.696-1.433 2.653-1.433 1.097 0 2.507.91 2.507 3.058v.957c-4.804.07-6.617 2.078-6.617 3.918 0 1.891 2.195 2.484 3.656 2.484 1.575 0 2.653-.953 3.106-2.101.094 1.125.836 1.984 1.863 1.984.5 0 1.887-.336 1.887-2.246v-1.34h-.524v1.34c0 1.363-.574 1.555-.91 1.555-.906 0-.906-1.27-.906-1.625zm-1.555 3.012c0 2.34-1.742 3.129-2.773 3.129-1.168 0-2.149-.859-2.149-2.008 0-3.152 4.063-3.441 4.922-3.488zm8.14-13.215-3.32.262v.691c1.626 0 1.813.168 1.813 1.34v12.52c0 1.078-.262 1.078-1.812 1.078v.691c.668-.047 1.836-.047 2.554-.047.72 0 1.914 0 2.582.047v-.691c-1.53 0-1.816 0-1.816-1.078zm6.548 1.863c0-.621-.5-1.171-1.172-1.171-.621 0-1.145.503-1.145 1.148 0 .715.575 1.172 1.145 1.172.742 0 1.172-.625 1.172-1.149m-3.297 4.446v.691c1.527 0 1.742.145 1.742 1.313v6.5c0 1.078-.262 1.078-1.812 1.078v.691c.668-.047 1.812-.047 2.507-.047.262 0 1.649 0 2.461.047v-.691c-1.554 0-1.648-.121-1.648-1.051v-8.797zm9.652.668h3.371v-.696h-3.37v-4.394h-.524c-.024 2.246-.887 4.539-3.059 4.613v.477h2.031v6.644c0 2.653 1.766 3.199 3.036 3.199 1.504 0 2.293-1.48 2.293-3.199v-1.363h-.528v1.312c0 1.723-.691 2.723-1.625 2.723-1.625 0-1.625-2.219-1.625-2.625zm14.309 3.226c0-1.289 0-2.246-1.051-3.179-.836-.762-1.91-1.098-2.961-1.098-1.961 0-3.465 1.289-3.465 2.844 0 .691.453 1.027 1.004 1.027.574 0 .981-.406.981-.98 0-.981-.864-.981-1.219-.981.547-1.004 1.695-1.433 2.648-1.433 1.102 0 2.512.91 2.512 3.058v.957c-4.805.07-6.621 2.078-6.621 3.918 0 1.891 2.199 2.484 3.656 2.484 1.578 0 2.657-.953 3.11-2.101.093 1.125.836 1.984 1.863 1.984.5 0 1.887-.336 1.887-2.246v-1.34h-.524v1.34c0 1.363-.574 1.555-.91 1.555-.91 0-.91-1.27-.91-1.625zm-1.551 3.012c0 2.34-1.742 3.129-2.773 3.129-1.168 0-2.149-.859-2.149-2.008 0-3.152 4.063-3.441 4.922-3.488zm31.141-6.238h2.699v-.696h-2.746v-2.793c0-2.152 1.098-3.25 2.078-3.25.191 0 .547.047.836.192-.098.023-.695.238-.695.93 0 .55.382.933.933.933.574 0 .957-.383.957-.957 0-.883-.859-1.574-2.008-1.574-1.675 0-3.562 1.289-3.562 3.726v2.793h-1.863v.696h1.863v7.836c0 1.078-.262 1.078-1.816 1.078v.691c.671-.047 1.984-.047 2.703-.047.644 0 2.339 0 2.89.047v-.691h-.476c-1.746 0-1.793-.266-1.793-1.125zm12.211 3.226c0-1.289 0-2.246-1.051-3.179-.836-.762-1.91-1.098-2.961-1.098-1.961 0-3.469 1.289-3.469 2.844 0 .691.457 1.027 1.004 1.027.574 0 .981-.406.981-.98 0-.981-.86-.981-1.219-.981.551-1.004 1.699-1.433 2.652-1.433 1.102 0 2.512.91 2.512 3.058v.957c-4.805.07-6.621 2.078-6.621 3.918 0 1.891 2.199 2.484 3.656 2.484 1.578 0 2.652-.953 3.106-2.101.097 1.125.835 1.984 1.867 1.984.5 0 1.886-.336 1.886-2.246v-1.34h-.527v1.34c0 1.363-.57 1.555-.906 1.555-.91 0-.91-1.27-.91-1.625zm-1.551 3.012c0 2.34-1.746 3.129-2.774 3.129-1.171 0-2.152-.859-2.152-2.008 0-3.152 4.067-3.441 4.926-3.488zm8.187-11.352c0-.621-.504-1.171-1.171-1.171a1.15 1.15 0 0 0-1.149 1.148c0 .715.574 1.172 1.149 1.172.742 0 1.171-.625 1.171-1.149m-3.296 4.446v.691c1.527 0 1.742.145 1.742 1.313v6.5c0 1.078-.262 1.078-1.817 1.078v.691c.668-.047 1.817-.047 2.508-.047.266 0 1.652 0 2.465.047v-.691c-1.555 0-1.648-.121-1.648-1.051v-8.797zm10.035 1.121c0-.645-.551-1.149-1.149-1.149-.691 0-1.168.551-1.168 1.149 0 .719.598 1.172 1.145 1.172.644 0 1.172-.5 1.172-1.172m0 7.984c0-.648-.551-1.148-1.149-1.148a1.15 1.15 0 0 0-1.168 1.148 1.158 1.158 0 1 0 2.317 0"/></g></svg>