<svg xmlns="http://www.w3.org/2000/svg" width="455pt" height="46pt" viewBox="0 -46 455 46"><g id="page1"><path fill="none" stroke="#000" stroke-linecap="round" stroke-linejoin="round" stroke-width=".5" d="M.25-45.61h45.356V-.253H.25zm45.356 0h45.351V-.253H45.606zm45.351 0h45.356V-.253H90.957zm45.356 0h45.355V-.253h-45.355zm45.355 0h45.352V-.253h-45.352zm45.352 0h45.355V-.253H227.02zm45.355 0h45.355V-.253h-45.355zm45.355 0h45.356V-.253H317.73zm45.356 0h45.352V-.253h-45.352zm45.352 0h45.355V-.253h-45.355z"/><path d="M23.82-23.738c1.301-.66 2.621-1.653 2.621-3.242 0-1.88-1.816-2.973-3.488-2.973-1.883 0-3.535 1.363-3.535 3.242 0 .516.125 1.406.93 2.188.207.207 1.074.828 1.633 1.218-.93.477-3.098 1.614-3.098 3.887 0 2.125 2.023 3.45 4.027 3.45 2.211 0 4.07-1.59 4.07-3.7 0-1.879-1.261-2.746-2.085-3.305zm-2.707-1.817c-.168-.101-.992-.742-.992-1.715 0-1.261 1.3-2.21 2.79-2.21 1.632 0 2.831 1.156 2.831 2.5 0 1.921-2.148 3.015-2.254 3.015-.02 0-.043 0-.207-.12zm3.801 4.235c.309.226 1.3.91 1.3 2.172 0 1.527-1.526 2.683-3.26 2.683-1.884 0-3.31-1.344-3.31-2.976 0-1.63 1.262-2.997 2.688-3.633zm44.203-2.418c1.305-.66 2.625-1.653 2.625-3.242 0-1.88-1.816-2.973-3.492-2.973-1.879 0-3.531 1.363-3.531 3.242 0 .516.125 1.406.93 2.188.207.207 1.074.828 1.632 1.218-.93.477-3.101 1.614-3.101 3.887 0 2.125 2.027 3.45 4.03 3.45 2.212 0 4.071-1.59 4.071-3.7 0-1.879-1.262-2.746-2.086-3.305zm-2.703-1.817c-.168-.101-.992-.742-.992-1.715 0-1.261 1.3-2.21 2.789-2.21 1.633 0 2.828 1.156 2.828 2.5 0 1.921-2.148 3.015-2.25 3.015-.023 0-.043 0-.207-.12zm3.8 4.235c.31.226 1.302.91 1.302 2.172 0 1.527-1.532 2.683-3.266 2.683-1.879 0-3.305-1.344-3.305-2.976 0-1.63 1.262-2.997 2.688-3.633zm40.876-2.106c0-4.937 2.312-6.055 3.656-6.055.434 0 1.488.083 1.902.891-.332 0-.953 0-.953.723 0 .555.457.742.746.742.188 0 .743-.082.743-.785 0-1.3-1.032-2.043-2.457-2.043-2.461 0-5.043 2.558-5.043 7.125 0 5.617 2.336 6.86 3.988 6.86 2.004 0 3.906-1.798 3.906-4.567 0-2.582-1.676-4.461-3.781-4.461-1.262 0-2.192.824-2.707 2.27zm2.582 6.961c-2.539 0-2.539-3.8-2.539-4.566 0-1.489.699-3.633 2.621-3.633.351 0 1.363 0 2.047 1.422.371.805.371 1.652.371 2.687 0 1.114 0 1.942-.434 2.766-.457.848-1.117 1.324-2.066 1.324m47.469-13.199c0-.438-.02-.457-.395-.457l-6.133 9.773v.535h5.328v2.024c0 .746-.039.953-1.484.953h-.394v.535c.66-.039 1.777-.039 2.48-.039.699 0 1.816 0 2.477.04v-.536h-.391c-1.445 0-1.488-.207-1.488-.953v-2.023h2.105v-.536h-2.105zm-1.137 1.363v7.953h-4.977zm41.949-.082a6.1 6.1 0 0 0 1.926.348c1.918 0 2.973-1.031 3.57-1.63 0-.167 0-.269-.121-.269-.023 0-.062 0-.23.082-.723.309-1.571.559-2.602.559a6.2 6.2 0 0 1-2.562-.539c-.227-.102-.27-.102-.289-.102-.102 0-.122.02-.122.434v5.992c0 .371 0 .473.204.473.105 0 .144-.04.25-.184.66-.93 1.57-1.324 2.601-1.324.723 0 2.274.457 2.274 3.988 0 .66 0 1.86-.622 2.809-.515.848-1.32 1.281-2.21 1.281-1.364 0-2.747-.95-3.118-2.543.082.024.246.063.328.063.27 0 .786-.145.786-.785 0-.56-.391-.786-.786-.786-.472 0-.785.29-.785.868 0 1.796 1.426 3.68 3.618 3.68 2.125 0 4.152-1.84 4.152-4.505 0-2.48-1.613-4.402-3.617-4.402a3.53 3.53 0 0 0-2.645 1.137zm49.988-1.281c0-.438-.019-.457-.394-.457l-6.133 9.773v.535h5.328v2.024c0 .746-.039.953-1.484.953h-.395v.535c.66-.039 1.778-.039 2.481-.039.699 0 1.816 0 2.476.04v-.536h-.39c-1.446 0-1.489-.207-1.489-.953v-2.023h2.106v-.536h-2.106zm-1.136 1.363v7.953h-4.977zm48.109 8.801h-.371c-.207 1.465-.371 1.71-.453 1.836-.106.164-1.594.164-1.883.164h-3.965c.742-.805 2.188-2.27 3.946-3.965 1.257-1.2 2.726-2.601 2.726-4.648 0-2.438-1.941-3.84-4.109-3.84-2.274 0-3.657 2-3.657 3.86 0 .808.598.91.844.91.207 0 .828-.122.828-.848 0-.64-.539-.825-.828-.825a.8.8 0 0 0-.328.063c.391-1.758 1.59-2.625 2.852-2.625 1.797 0 2.972 1.426 2.972 3.305 0 1.797-1.05 3.347-2.23 4.691l-4.11 4.649v.472h7.27zm42.406-4.238c1.301-.66 2.621-1.653 2.621-3.242 0-1.88-1.816-2.973-3.488-2.973-1.883 0-3.535 1.363-3.535 3.242 0 .516.125 1.406.93 2.188.207.207 1.074.828 1.632 1.218-.929.477-3.097 1.614-3.097 3.887 0 2.125 2.023 3.45 4.027 3.45 2.211 0 4.07-1.59 4.07-3.7 0-1.879-1.261-2.746-2.085-3.305zm-2.707-1.817c-.168-.101-.992-.742-.992-1.715 0-1.261 1.301-2.21 2.789-2.21 1.633 0 2.832 1.156 2.832 2.5 0 1.921-2.148 3.015-2.254 3.015-.019 0-.043 0-.207-.12zm3.801 4.235c.309.226 1.301.91 1.301 2.172 0 1.527-1.527 2.683-3.262 2.683-1.883 0-3.308-1.344-3.308-2.976 0-1.63 1.261-2.997 2.687-3.633zm45.527-8.344c0-.438-.019-.457-.394-.457l-6.133 9.773v.535h5.328v2.024c0 .746-.039.953-1.484.953h-.395v.535c.66-.039 1.778-.039 2.481-.039.699 0 1.816 0 2.476.04v-.536h-.39c-1.446 0-1.489-.207-1.489-.953v-2.023h2.106v-.536h-2.106zm-1.136 1.363v7.953h-4.977zm45.09-1.199c0-.434-.02-.453-.309-.453-.805.969-2.023 1.281-3.184 1.32-.058 0-.164 0-.183.043-.024.04-.024.082-.024.516.645 0 1.719-.125 2.543-.621v10.886c0 .723-.043.973-1.816.973h-.621v.535c.992-.02 2.023-.039 3.015-.039.993 0 2.024.02 3.016.04v-.536h-.617c-1.777 0-1.82-.227-1.82-.973z"/></g></svg>