<svg xmlns="http://www.w3.org/2000/svg" width="312" height="46pt" viewBox="0 -46 234 46"><g id="page1"><path fill="none" stroke="#000" stroke-linecap="round" stroke-linejoin="round" d="M.5-.504h232.008M.5-44.746h232.008M.5-.504v-44.242M46.902-.504v-44.242M93.305-.504v-44.242M139.707-.504v-44.242M186.109-.504v-44.242M232.508-.504v-44.242"/><path d="M20.86-30.293a7 7 0 0 0 2.124.36c2.703 0 4.422-1.985 4.422-2.317 0-.098-.047-.219-.191-.219-.047 0-.094 0-.309.098a7.9 7.9 0 0 1-3.11.644c-1.577 0-2.698-.476-3.151-.668-.168-.074-.215-.074-.239-.074-.191 0-.191.145-.191.528v7.097c0 .43 0 .575.285.575.121 0 .145-.028.383-.313.668-.98 1.793-1.55 2.988-1.55 1.266 0 1.887 1.167 2.078 1.573.406.934.43 2.106.43 3.012s0 2.27-.668 3.344c-.527.863-1.461 1.46-2.512 1.46a3.7 3.7 0 0 1-3.558-2.82c.117.047.261.07.382.07.407 0 1.051-.238 1.051-1.05 0-.668-.453-1.05-1.05-1.05-.43 0-1.055.214-1.055 1.148 0 2.03 1.625 4.347 4.281 4.347 2.7 0 5.063-2.27 5.063-5.304 0-2.844-1.91-5.211-4.418-5.211-1.364 0-2.415.597-3.036 1.265zm44.421-1.625c0-.55 0-.574-.476-.574-.575.648-1.77 1.531-4.23 1.531v.691c.55 0 1.745 0 3.058-.62v12.449c0 .863-.07 1.148-2.172 1.148h-.742v.691c.644-.046 2.96-.046 3.75-.046.789 0 3.086 0 3.726.046v-.691h-.738c-2.101 0-2.176-.285-2.176-1.148zm15.524 7.672c0-1.985-.118-3.918-.977-5.738-.98-1.98-2.703-2.508-3.875-2.508-1.383 0-3.082.695-3.965 2.676-.668 1.507-.91 2.988-.91 5.57 0 2.316.168 4.062 1.031 5.758.93 1.816 2.579 2.39 3.82 2.39 2.079 0 3.274-1.242 3.97-2.629.859-1.793.906-4.132.906-5.52m-4.875 7.668c-.766 0-2.317-.43-2.77-3.031-.266-1.438-.266-3.25-.266-4.926 0-1.957 0-3.727.383-5.137.407-1.601 1.625-2.344 2.653-2.344.91 0 2.297.551 2.75 2.606.308 1.363.308 3.25.308 4.875 0 1.601 0 3.418-.261 4.875-.454 2.629-1.961 3.082-2.797 3.082m45.476-7.667c0-1.985-.121-3.918-.98-5.738-.981-1.98-2.699-2.508-3.871-2.508-1.387 0-3.082.695-3.965 2.676-.672 1.507-.91 2.988-.91 5.57 0 2.316.168 4.062 1.027 5.758.934 1.816 2.582 2.39 3.824 2.39 2.078 0 3.274-1.242 3.965-2.629.863-1.793.91-4.132.91-5.52m-4.875 7.668c-.765 0-2.316-.43-2.773-3.031-.262-1.438-.262-3.25-.262-4.926 0-1.957 0-3.727.383-5.137.406-1.601 1.625-2.344 2.652-2.344.907 0 2.293.551 2.75 2.606.309 1.363.309 3.25.309 4.875 0 1.601 0 3.418-.262 4.875-.457 2.629-1.961 3.082-2.797 3.082m51.082-4.034h-.523c-.074.406-.262 1.718-.5 2.101-.168.215-1.531.215-2.25.215h-4.418c.644-.55 2.101-2.078 2.723-2.652 3.632-3.348 4.968-4.59 4.968-6.953 0-2.75-2.172-4.59-4.945-4.59s-4.398 2.367-4.398 4.422c0 1.218 1.05 1.218 1.125 1.218.5 0 1.121-.359 1.121-1.125 0-.668-.453-1.12-1.121-1.12-.215 0-.262 0-.336.023.457-1.625 1.746-2.723 3.3-2.723 2.032 0 3.274 1.695 3.274 3.895 0 2.03-1.172 3.8-2.535 5.328l-4.828 5.402v.57h8.722zm38.825-4.301c0-6.047 2.941-7.004 4.23-7.004.863 0 1.723.262 2.176.98-.289 0-1.196 0-1.196.981 0 .523.36.98.981.98.598 0 1.004-.359 1.004-1.054 0-1.242-.91-2.461-2.988-2.461-3.012 0-6.165 3.082-6.165 8.34 0 6.574 2.868 8.054 4.899 8.054 2.605 0 4.828-2.27 4.828-5.379 0-3.175-2.223-5.304-4.613-5.304-2.125 0-2.914 1.84-3.156 2.511zm2.941 8.172c-1.508 0-2.223-1.34-2.438-1.84-.214-.621-.453-1.793-.453-3.465 0-1.89.86-4.254 3.008-4.254 1.317 0 2.008.883 2.367 1.695.383.883.383 2.079.383 3.106 0 1.219 0 2.297-.453 3.203-.598 1.149-1.457 1.555-2.414 1.555"/></g></svg>