<svg xmlns="http://www.w3.org/2000/svg" width="58pt" height="82pt" viewBox="0 -82 58 82"><g id="page1"><path fill="gray" d="M8.8-48.894A28.26 28.26 0 0 0 .5-28.848C.5-13.195 13.191-.504 28.848-.504S57.19-13.195 57.19-28.848a28.26 28.26 0 0 0-8.3-20.046 28.26 28.26 0 0 1-8.301-20.043 2.836 2.836 0 0 0-2.836-2.836H19.94a2.836 2.836 0 0 0-2.835 2.835A28.24 28.24 0 0 1 8.8-48.893"/><path fill="none" stroke="#000" stroke-linecap="round" stroke-linejoin="round" d="M8.8-48.894A28.26 28.26 0 0 0 .5-28.848C.5-13.195 13.191-.504 28.848-.504S57.19-13.195 57.19-28.848a28.26 28.26 0 0 0-8.3-20.046 28.26 28.26 0 0 1-8.301-20.043 2.836 2.836 0 0 0-2.836-2.836H19.94a2.836 2.836 0 0 0-2.835 2.835A28.24 28.24 0 0 1 8.8-48.893"/><path fill="gray" d="M37.352-71.773v-5.668a2.84 2.84 0 0 0-2.344-2.793l-5.668-1a2.9 2.9 0 0 0-.985 0l-5.671 1a2.84 2.84 0 0 0-2.34 2.793v5.668z"/><path fill="none" stroke="#000" stroke-linecap="round" stroke-linejoin="round" d="M37.352-71.773v-5.668a2.84 2.84 0 0 0-2.344-2.793l-5.668-1a2.9 2.9 0 0 0-.985 0l-5.671 1a2.84 2.84 0 0 0-2.34 2.793v5.668z"/><path fill="none" stroke="#000" stroke-linecap="round" stroke-linejoin="round" d="M34.516-71.773c0 14.585 13.988 25.523 14.172 40.09.054 4.226-1.88 8.425-5.669 8.503-2.945.059-5.011-2.636-5.667-5.668-.598-2.758.453-5.62 2.832-5.672 2.43-.05 3.691 2.876 2.836 5.672-.833 2.707-2.97 4.809-5.668 5.668-4.754 1.516-9.883-.96-11.34-5.668-.856-2.761.398-5.672 2.836-5.672 2.433 0 3.687 2.91 2.832 5.672-1.457 4.707-6.582 7.184-11.336 5.668-2.703-.86-4.84-2.96-5.672-5.668-.856-2.797.406-5.722 2.836-5.672 2.379.051 3.43 2.915 2.836 5.672-.657 3.032-2.727 5.727-5.672 5.668-3.785-.078-5.723-4.277-5.668-8.504.187-14.566 14.172-25.503 14.172-40.09"/></g></svg>