<svg xmlns="http://www.w3.org/2000/svg" width="1070pt" height="1364" viewBox="0 -1023 1070 1023"><g id="page1"><path fill="#9fcf40" d="M448.672-931.414c-94.344-19.805-115.953 50.973-123.559 124.387-127.703 5.047-104.511 69.273-95.476 134.402-103.004 2.559-96.676 68.066-77.176 144.266-116.633-1.657-138.016 64.226-83.73 158.648-125.743 16.113-55.34 146.602 24.019 179.504 200.813 90.656 831.336 225.059 927.11 6.699 58.13-50.824 74.24-155.633.08-178.375 23.87-73.035 20.85-144.113-89.155-161.957 44.953-89.902-22.66-164.746-106.918-128.152 13.403-81.094-23.941-164.824-110.008-119.418 25.602-60.313-10.839-174.613-94.644-122.133-59.258-121.607-129.434-197.347-170.543-37.871"/><path fill="#80bf00" d="M227.004-374.078c-51.352 14.004-37.199 58.051-35.992 80.34-60.16-7.153-64.907 54.363-47.285 95.25-61.442-49.321-150.516-1.282-129.282 66.031C83.488-16.801 255.914-15.672 364.414-7.844 586.613 3.98 901.121 14.293 1036.95-71.016c42.47-36.668 38.48-100.894-17.09-112.492-39.907-5.043-72.055 47.285-91.782 76.352 21.832-151.871-106.769-98.711-178.902-59.11-37.875-122.203-195.465-133.043-224.684-34.031-49.996-54.363-86.062-61.441-133.047-12.348-39-82.3-90.804-174.687-164.441-161.433"/><path fill="maroon" d="M475.852-808.758c-4.289 23.867-6.926 51.727-9.938 78.004-5.269 45.481-4.742 41.789-6.176 40.586-2.859-2.336-23.566-34.711-34.105-53.16-11.598-20.402-12.352-1.277-1.129 29.668 6.398 17.695 14.457 34.785 24.922 53.156 9.484 16.566 10.012 23.871 10.012 145.547 0 110.91.378 114.75 11.296 120.246 9.485 4.82 16.188 2.484 15.508-5.344-7.226-75.222 13.629-139.297 72.438-222.875 7.601-10.918 8.582-13.855 4.668-14.304-6.477-.754-52.106 51.125-73.567 83.652-4.59-47.586-6.551-154.809-7.754-212.938-.902-44.347-1.281-47.132-6.175-42.238m248.175 317.594c-.379.527-2.035 9.488-3.765 19.805-7.078 42.765-20.707 105.488-37.27 171.671-4.519 27.184-15.363 57.149-19.652 82.149 6.172 3.988 18.445 14.383 24.32 15.359 1.957-14.605 6.098-31.324 9.035-43.293 5.871-24.925 9.637-31.398 30.043-51.578 15.133-15.058 23.942-25.375 51.352-60.238 25.824-32.902 28.082-35.914 26.953-37.27-1.656-2.035 1.883-4.742-38.777 29.743-56.696 48.187-51.348 43.972-50.524 40.132.227-1.129 1.281-5.8 2.336-10.39 10.992-47.891 15.738-171.449 5.949-156.09"/></g></svg>