<svg xmlns="http://www.w3.org/2000/svg" width="958pt" height="650pt" viewBox="0 -650 958 650"><g id="page1"><path fill="#ffd9b2" d="M10.004-8.95h5.953c1.633 0 3.2.65 4.355 1.802l4.895 4.898a2.553 2.553 0 0 0 3.61 0l4.894-4.898a6.17 6.17 0 0 1 4.355-1.801h898.075a2.554 2.554 0 0 0 2.55-2.555v-47.644a2.553 2.553 0 0 0-2.55-2.551H38.066a6.16 6.16 0 0 0-4.355 1.804L28.816-55a2.553 2.553 0 0 1-3.609 0l-4.895-4.895a6.16 6.16 0 0 0-4.355-1.804H4.051A2.55 2.55 0 0 0 1.5-59.15v47.645c0 1.41 1.14 2.555 2.55 2.555z"/><path fill="none" stroke="#b25900" stroke-linecap="round" stroke-linejoin="round" stroke-width="3" d="M10.004-8.95h5.953c1.633 0 3.2.65 4.355 1.802l4.895 4.898a2.553 2.553 0 0 0 3.61 0l4.894-4.898a6.17 6.17 0 0 1 4.355-1.801h898.075a2.554 2.554 0 0 0 2.55-2.555v-47.644a2.553 2.553 0 0 0-2.55-2.551H38.066a6.16 6.16 0 0 0-4.355 1.804L28.816-55a2.553 2.553 0 0 1-3.609 0l-4.895-4.895a6.16 6.16 0 0 0-4.355-1.804H4.051A2.55 2.55 0 0 0 1.5-59.15v47.645c0 1.41 1.14 2.555 2.55 2.555z"/><path fill="#ffb2ff" d="M10.004-64.644h5.953c1.633 0 3.2.648 4.355 1.804l4.895 4.895a2.553 2.553 0 0 0 3.61 0l4.894-4.895a6.16 6.16 0 0 1 4.355-1.804h898.075a2.55 2.55 0 0 0 2.55-2.551v-496.746a2.553 2.553 0 0 0-2.55-2.551H38.066a6.16 6.16 0 0 0-4.355 1.804l-4.895 4.895a2.554 2.554 0 0 1-3.609 0l-4.895-4.895a6.16 6.16 0 0 0-4.355-1.804H4.051a2.55 2.55 0 0 0-2.551 2.551v496.746c0 1.41 1.14 2.55 2.55 2.55z"/><path fill="none" stroke="#b200b2" stroke-linecap="round" stroke-linejoin="round" stroke-width="3" d="M10.004-64.644h5.953c1.633 0 3.2.648 4.355 1.804l4.895 4.895a2.553 2.553 0 0 0 3.61 0l4.894-4.895a6.16 6.16 0 0 1 4.355-1.804h898.075a2.55 2.55 0 0 0 2.55-2.551v-496.746a2.553 2.553 0 0 0-2.55-2.551H38.066a6.16 6.16 0 0 0-4.355 1.804l-4.895 4.895a2.554 2.554 0 0 1-3.609 0l-4.895-4.895a6.16 6.16 0 0 0-4.355-1.804H4.051a2.55 2.55 0 0 0-2.551 2.551v496.746c0 1.41 1.14 2.55 2.55 2.55z"/><path fill="#ffffb2" d="M35.516-81.652h5.953c1.633 0 3.199.648 4.355 1.804l4.895 4.895a2.553 2.553 0 0 0 3.61 0l4.894-4.895a6.16 6.16 0 0 1 4.355-1.804h881.067a2.55 2.55 0 0 0 2.55-2.551v-375.969a2.554 2.554 0 0 0-2.55-2.551H63.578c-1.633 0-3.2.653-4.355 1.805l-4.895 4.898a2.55 2.55 0 0 1-3.61 0l-4.894-4.898a6.18 6.18 0 0 0-4.355-1.805H29.562a2.55 2.55 0 0 0-2.55 2.551v375.969c0 1.41 1.14 2.55 2.55 2.55z"/><path fill="none" stroke="#b2b200" stroke-linecap="round" stroke-linejoin="round" stroke-width="3" d="M35.516-81.652h5.953c1.633 0 3.199.648 4.355 1.804l4.895 4.895a2.553 2.553 0 0 0 3.61 0l4.894-4.895a6.16 6.16 0 0 1 4.355-1.804h881.067a2.55 2.55 0 0 0 2.55-2.551v-375.969a2.554 2.554 0 0 0-2.55-2.551H63.578c-1.633 0-3.2.653-4.355 1.805l-4.895 4.898a2.55 2.55 0 0 1-3.61 0l-4.894-4.898a6.18 6.18 0 0 0-4.355-1.805H29.562a2.55 2.55 0 0 0-2.55 2.551v375.969c0 1.41 1.14 2.55 2.55 2.55z"/><path fill="#ffd9b2" d="M61.027-98.66h5.954a6.16 6.16 0 0 1 4.355 1.804l4.895 4.895a2.553 2.553 0 0 0 3.609 0l4.894-4.895a6.16 6.16 0 0 1 4.356-1.804h864.058a2.55 2.55 0 0 0 2.551-2.551v-73.156a2.55 2.55 0 0 0-2.551-2.551H89.09c-1.633 0-3.2.648-4.356 1.805l-4.894 4.894a2.553 2.553 0 0 1-3.61 0l-4.894-4.894a6.16 6.16 0 0 0-4.355-1.805H55.074a2.55 2.55 0 0 0-2.55 2.551v73.156c0 1.41 1.14 2.55 2.55 2.55z"/><path fill="none" stroke="#b25900" stroke-linecap="round" stroke-linejoin="round" stroke-width="3" d="M61.027-98.66h5.954a6.16 6.16 0 0 1 4.355 1.804l4.895 4.895a2.553 2.553 0 0 0 3.609 0l4.894-4.895a6.16 6.16 0 0 1 4.356-1.804h864.058a2.55 2.55 0 0 0 2.551-2.551v-73.156a2.55 2.55 0 0 0-2.551-2.551H89.09c-1.633 0-3.2.648-4.356 1.805l-4.894 4.894a2.553 2.553 0 0 1-3.61 0l-4.894-4.894a6.16 6.16 0 0 0-4.355-1.805H55.074a2.55 2.55 0 0 0-2.55 2.551v73.156c0 1.41 1.14 2.55 2.55 2.55z"/><path fill="#c6c6ff" d="M221.367-111.414h55.508a2.553 2.553 0 0 0 2.551-2.555v-47.644a2.55 2.55 0 0 0-2.551-2.551H165.859a2.55 2.55 0 0 0-2.55 2.551v47.644c0 1.41 1.14 2.555 2.55 2.555z"/><path fill="none" stroke="#2d2db2" stroke-linecap="round" stroke-linejoin="round" stroke-width="3" d="M221.367-111.414h55.508a2.553 2.553 0 0 0 2.551-2.555v-47.644a2.55 2.55 0 0 0-2.551-2.551H165.859a2.55 2.55 0 0 0-2.55 2.551v47.644c0 1.41 1.14 2.555 2.55 2.555z"/><path fill="#d9b2b2" d="M321.926-137.789c0 13.172 5.683 26.375 17.347 26.375s17.348-13.203 17.348-26.375c0-13.176-5.683-26.375-17.348-26.375s-17.347 13.199-17.347 26.375"/><path fill="none" stroke="#590000" stroke-linecap="round" stroke-linejoin="round" stroke-width="3" d="M321.926-137.789c0 13.172 5.683 26.375 17.347 26.375s17.348-13.203 17.348-26.375c0-13.176-5.683-26.375-17.348-26.375s-17.347 13.199-17.347 26.375"/><path fill="#ffd9b2" d="M61.027-231.168h5.954c1.632 0 3.199.648 4.355 1.805l4.895 4.894c.996 1 2.613 1 3.609 0l4.894-4.894a6.16 6.16 0 0 1 4.356-1.805h864.058a2.55 2.55 0 0 0 2.551-2.551v-73.156a2.55 2.55 0 0 0-2.551-2.551H89.09a6.16 6.16 0 0 0-4.356 1.805l-4.894 4.894a2.55 2.55 0 0 1-3.61 0l-4.894-4.894a6.16 6.16 0 0 0-4.355-1.805H55.074a2.55 2.55 0 0 0-2.55 2.551v73.156a2.55 2.55 0 0 0 2.55 2.551z"/><path fill="none" stroke="#b25900" stroke-linecap="round" stroke-linejoin="round" stroke-width="3" d="M61.027-231.168h5.954c1.632 0 3.199.648 4.355 1.805l4.895 4.894c.996 1 2.613 1 3.609 0l4.894-4.894a6.16 6.16 0 0 1 4.356-1.805h864.058a2.55 2.55 0 0 0 2.551-2.551v-73.156a2.55 2.55 0 0 0-2.551-2.551H89.09a6.16 6.16 0 0 0-4.356 1.805l-4.894 4.894a2.55 2.55 0 0 1-3.61 0l-4.894-4.894a6.16 6.16 0 0 0-4.355-1.805H55.074a2.55 2.55 0 0 0-2.55 2.551v73.156a2.55 2.55 0 0 0 2.55 2.551z"/><path fill="#c6c6ff" d="M237.105-243.922h55.508a2.55 2.55 0 0 0 2.551-2.551v-47.644a2.553 2.553 0 0 0-2.551-2.555H181.598a2.553 2.553 0 0 0-2.551 2.555v47.644a2.55 2.55 0 0 0 2.551 2.551z"/><path fill="none" stroke="#2d2db2" stroke-linecap="round" stroke-linejoin="round" stroke-width="3" d="M237.105-243.922h55.508a2.55 2.55 0 0 0 2.551-2.551v-47.644a2.553 2.553 0 0 0-2.551-2.555H181.598a2.553 2.553 0 0 0-2.551 2.555v47.644a2.55 2.55 0 0 0 2.551 2.551z"/><path fill="#d9b2b2" d="M337.664-270.297c0 13.176 5.684 26.375 17.348 26.375s17.347-13.199 17.347-26.375c0-13.172-5.683-26.375-17.347-26.375s-17.348 13.203-17.348 26.375"/><path fill="none" stroke="#590000" stroke-linecap="round" stroke-linejoin="round" stroke-width="3" d="M337.664-270.297c0 13.176 5.684 26.375 17.348 26.375s17.347-13.199 17.347-26.375c0-13.172-5.683-26.375-17.347-26.375s-17.348 13.203-17.348 26.375"/><path fill="#b2ffb2" d="m76.727-351.75 11.613 26.477a9.76 9.76 0 0 0 8.941 5.843h813.774a9.76 9.76 0 0 0 8.937-5.843l23.223-52.957a14.55 14.55 0 0 0 0-11.684l-23.223-52.957a9.77 9.77 0 0 0-8.937-5.844H97.281a9.76 9.76 0 0 0-8.941 5.844l-23.223 52.957a14.55 14.55 0 0 0 0 11.684z"/><path fill="none" stroke="#00b200" stroke-linecap="round" stroke-linejoin="round" stroke-width="3" d="m76.727-351.75 11.613 26.477a9.76 9.76 0 0 0 8.941 5.843h813.774a9.76 9.76 0 0 0 8.937-5.843l23.223-52.957a14.55 14.55 0 0 0 0-11.684l-23.223-52.957a9.77 9.77 0 0 0-8.937-5.844H97.281a9.76 9.76 0 0 0-8.941 5.844l-23.223 52.957a14.55 14.55 0 0 0 0 11.684z"/><path fill="#d9b2b2" d="M78.145-384.07c0 24.785 4.23 51.882 25.511 51.882h361.18c21.281 0 25.512-27.097 25.512-51.882 0-24.789-4.231-51.887-25.512-51.887h-361.18c-21.281 0-25.512 27.098-25.512 51.887"/><path fill="none" stroke="#590000" stroke-linecap="round" stroke-linejoin="round" stroke-width="3" d="M78.145-384.07c0 24.785 4.23 51.882 25.511 51.882h361.18c21.281 0 25.512-27.097 25.512-51.882 0-24.789-4.231-51.887-25.512-51.887h-361.18c-21.281 0-25.512 27.098-25.512 51.887"/><path fill="#d9b2b2" d="M272.824-384.07c0 19.511 8.262 39.129 25.512 39.129h157.996c17.25 0 25.512-19.618 25.512-39.129 0-19.516-8.262-39.129-25.512-39.129H298.336c-17.25 0-25.512 19.613-25.512 39.129"/><path fill="none" stroke="#590000" stroke-linecap="round" stroke-linejoin="round" stroke-width="3" d="M272.824-384.07c0 19.511 8.262 39.129 25.512 39.129h157.996c17.25 0 25.512-19.618 25.512-39.129 0-19.516-8.262-39.129-25.512-39.129H298.336c-17.25 0-25.512 19.613-25.512 39.129"/><path fill="#d9b2b2" d="M281.328-384.07c0 14.41 11.262 26.371 25.512 26.371h65.094c14.25 0 25.511-11.961 25.511-26.371 0-14.414-11.261-26.375-25.511-26.375H306.84c-14.25 0-25.512 11.961-25.512 26.375"/><path fill="none" stroke="#590000" stroke-linecap="round" stroke-linejoin="round" stroke-width="3" d="M281.328-384.07c0 14.41 11.262 26.371 25.512 26.371h65.094c14.25 0 25.511-11.961 25.511-26.371 0-14.414-11.261-26.375-25.511-26.375H306.84c-14.25 0-25.512 11.961-25.512 26.375"/><path fill="#d9b2b2" d="M438.645-384.07c0 13.172 5.683 26.371 17.347 26.371s17.348-13.199 17.348-26.371c0-13.176-5.684-26.375-17.348-26.375s-17.347 13.199-17.347 26.375"/><path fill="none" stroke="#590000" stroke-linecap="round" stroke-linejoin="round" stroke-width="3" d="M438.645-384.07c0 13.172 5.683 26.371 17.347 26.371s17.348-13.199 17.348-26.371c0-13.176-5.684-26.375-17.348-26.375s-17.347 13.199-17.347 26.375"/><path fill="#d9b2b2" d="M610.887-384.07c0 19.511 8.261 39.129 25.511 39.129h268.278c17.25 0 25.512-19.618 25.512-39.129 0-19.516-8.262-39.129-25.512-39.129H636.398c-17.25 0-25.511 19.613-25.511 39.129"/><path fill="none" stroke="#590000" stroke-linecap="round" stroke-linejoin="round" stroke-width="3" d="M610.887-384.07c0 19.511 8.261 39.129 25.511 39.129h268.278c17.25 0 25.512-19.618 25.512-39.129 0-19.516-8.262-39.129-25.512-39.129H636.398c-17.25 0-25.511 19.613-25.511 39.129"/><path fill="#d9b2b2" d="M805.566-384.07c0 14.41 11.262 26.371 25.512 26.371h65.094c14.25 0 25.512-11.961 25.512-26.371 0-14.414-11.262-26.375-25.512-26.375h-65.094c-14.25 0-25.512 11.961-25.512 26.375"/><path fill="none" stroke="#590000" stroke-linecap="round" stroke-linejoin="round" stroke-width="3" d="M805.566-384.07c0 14.41 11.262 26.371 25.512 26.371h65.094c14.25 0 25.512-11.961 25.512-26.371 0-14.414-11.262-26.375-25.512-26.375h-65.094c-14.25 0-25.512 11.961-25.512 26.375"/><path fill="#b2ffb2" d="m165.547-492.289 10.43 14.398a12.49 12.49 0 0 0 10.121 5.164h233.086c4.004 0 7.769-1.918 10.117-5.164l20.863-28.797a8.81 8.81 0 0 0 0-10.332l-20.863-28.796a12.5 12.5 0 0 0-10.117-5.168H186.098c-4.008 0-7.77 1.921-10.121 5.168l-20.864 28.796a8.815 8.815 0 0 0 0 10.332z"/><path fill="none" stroke="#00b200" stroke-linecap="round" stroke-linejoin="round" stroke-width="3" d="m165.547-492.289 10.43 14.398a12.49 12.49 0 0 0 10.121 5.164h233.086c4.004 0 7.769-1.918 10.117-5.164l20.863-28.797a8.81 8.81 0 0 0 0-10.332l-20.863-28.796a12.5 12.5 0 0 0-10.117-5.168H186.098c-4.008 0-7.77 1.921-10.121 5.168l-20.864 28.796a8.815 8.815 0 0 0 0 10.332z"/><path fill="#d9b2b2" d="M166.965-511.855c0 14.414 11.262 26.375 25.508 26.375h65.093c14.25 0 25.512-11.961 25.512-26.375 0-14.411-11.262-26.372-25.512-26.372h-65.093c-14.246 0-25.508 11.961-25.508 26.372"/><path fill="none" stroke="#590000" stroke-linecap="round" stroke-linejoin="round" stroke-width="3" d="M166.965-511.855c0 14.414 11.262 26.375 25.508 26.375h65.093c14.25 0 25.512-11.961 25.512-26.375 0-14.411-11.262-26.372-25.512-26.372h-65.093c-14.246 0-25.508 11.961-25.508 26.372"/><path fill="#d9b2b2" d="M403.621-511.855c0 13.175 5.68 26.375 17.348 26.375 11.664 0 17.347-13.2 17.347-26.375 0-13.172-5.683-26.372-17.347-26.372-11.668 0-17.348 13.2-17.348 26.372"/><path fill="none" stroke="#590000" stroke-linecap="round" stroke-linejoin="round" stroke-width="3" d="M403.621-511.855c0 13.175 5.68 26.375 17.348 26.375 11.664 0 17.347-13.2 17.347-26.375 0-13.172-5.683-26.372-17.347-26.372-11.668 0-17.348 13.2-17.348 26.372"/><path fill="#ffd9b2" d="M10.004-569.438h5.953c1.633 0 3.2.649 4.355 1.805l4.895 4.895a2.554 2.554 0 0 0 3.61 0l4.894-4.895a6.16 6.16 0 0 1 4.355-1.805h898.075a2.55 2.55 0 0 0 2.55-2.55v-73.157a2.55 2.55 0 0 0-2.55-2.55H38.066a6.17 6.17 0 0 0-4.355 1.8l-4.895 4.899a2.554 2.554 0 0 1-3.609 0l-4.895-4.899a6.17 6.17 0 0 0-4.355-1.8H4.051a2.55 2.55 0 0 0-2.551 2.55v73.157c0 1.41 1.14 2.55 2.55 2.55z"/><path fill="none" stroke="#b25900" stroke-linecap="round" stroke-linejoin="round" stroke-width="3" d="M10.004-569.438h5.953c1.633 0 3.2.649 4.355 1.805l4.895 4.895a2.554 2.554 0 0 0 3.61 0l4.894-4.895a6.16 6.16 0 0 1 4.355-1.805h898.075a2.55 2.55 0 0 0 2.55-2.55v-73.157a2.55 2.55 0 0 0-2.55-2.55H38.066a6.17 6.17 0 0 0-4.355 1.8l-4.895 4.899a2.554 2.554 0 0 1-3.609 0l-4.895-4.899a6.17 6.17 0 0 0-4.355-1.8H4.051a2.55 2.55 0 0 0-2.551 2.55v73.157c0 1.41 1.14 2.55 2.55 2.55z"/><path fill="#c6c6ff" d="M163.969-582.191h55.508c1.41 0 2.55-1.145 2.55-2.551v-47.649c0-1.41-1.14-2.55-2.55-2.55H108.465a2.55 2.55 0 0 0-2.555 2.55v47.649a2.556 2.556 0 0 0 2.555 2.551z"/><path fill="none" stroke="#2d2db2" stroke-linecap="round" stroke-linejoin="round" stroke-width="3" d="M163.969-582.191h55.508c1.41 0 2.55-1.145 2.55-2.551v-47.649c0-1.41-1.14-2.55-2.55-2.55H108.465a2.55 2.55 0 0 0-2.555 2.55v47.649a2.556 2.556 0 0 0 2.555 2.551z"/><path fill="#d9b2b2" d="M256.727-608.566c0 13.171 5.679 26.375 17.347 26.375 11.664 0 17.348-13.204 17.348-26.375 0-13.172-5.684-26.375-17.348-26.375-11.668 0-17.347 13.203-17.347 26.375"/><path fill="none" stroke="#590000" stroke-linecap="round" stroke-linejoin="round" stroke-width="3" d="M256.727-608.566c0 13.171 5.679 26.375 17.347 26.375 11.664 0 17.348-13.204 17.348-26.375 0-13.172-5.684-26.375-17.348-26.375-11.668 0-17.347 13.203-17.347 26.375"/><path d="M22.152-34.844c.528 0 .575 0 .575-.453 0-2.414-1.29-4.66-4.184-4.66-2.723 0-4.824 2.46-4.824 5.426 0 3.152 2.437 5.468 5.086 5.468 2.843 0 3.922-2.578 3.922-3.082 0-.144-.122-.238-.266-.238-.188 0-.238.121-.285.239-.621 2.007-2.223 2.558-3.227 2.558s-3.418-.672-3.418-4.805v-.453zm-6.597-.453c.195-3.754 2.297-4.184 2.965-4.184 2.558 0 2.699 3.372 2.722 4.184zm15.683-4.109c0-.434 0-.551-.238-.551-.191 0-.645.523-.812.738-.743-.593-1.485-.738-2.247-.738-2.894 0-3.753 1.574-3.753 2.89 0 .262 0 1.098.91 1.934.761.672 1.574.84 2.675 1.055 1.313.262 1.625.332 2.223.812.43.36.738.883.738 1.551 0 1.027-.593 2.176-2.699 2.176-1.574 0-2.722-.906-3.25-3.297-.094-.43-.094-.453-.117-.477-.05-.097-.145-.097-.215-.097-.265 0-.265.12-.265.55v3.25c0 .43 0 .547.242.547.117 0 .14-.023.547-.523.12-.168.12-.215.476-.598.91 1.122 2.2 1.122 2.606 1.122 2.511 0 3.753-1.383 3.753-3.274 0-1.289-.789-2.055-1.003-2.27-.86-.738-1.504-.882-3.082-1.171-.72-.141-2.461-.477-2.461-1.91 0-.743.5-1.84 2.652-1.84 2.605 0 2.746 2.222 2.793 2.965.023.187.191.187.266.187.261 0 .261-.117.261-.547zM41.25-38.14c-.285 0-1.172 0-1.172.976 0 .574.406.98.98.98.551 0 1.005-.332 1.005-1.027 0-1.602-1.672-2.746-3.61-2.746-2.793 0-5.016 2.484-5.016 5.496 0 3.059 2.294 5.398 4.993 5.398 3.156 0 3.87-2.867 3.87-3.082s-.167-.214-.237-.214c-.215 0-.239.07-.31.359-.526 1.695-1.815 2.414-3.108 2.414-1.458 0-3.391-1.266-3.391-4.898 0-3.97 2.031-4.95 3.223-4.95.91 0 2.226.36 2.773 1.293m5.906-5.879c0-.62-.5-1.171-1.168-1.171a1.15 1.15 0 0 0-1.148 1.148 1.15 1.15 0 0 0 1.148 1.168c.739 0 1.168-.621 1.168-1.145m-3.297 4.446v.691c1.532 0 1.746.145 1.746 1.313v6.5c0 1.078-.261 1.078-1.816 1.078v.691c.668-.047 1.816-.047 2.508-.047.266 0 1.648 0 2.46.047v-.691c-1.55 0-1.648-.121-1.648-1.051v-8.797zm20.61-6.047v.691c1.625 0 1.816.168 1.816 1.34v5.281c-.504-.691-1.527-1.53-2.988-1.53-2.77 0-5.16 2.343-5.16 5.401 0 3.036 2.27 5.376 4.898 5.376 1.817 0 2.867-1.196 3.203-1.649v1.648l3.368-.238v-.691c-1.625 0-1.817-.168-1.817-1.34v-14.55zm1.77 13.527c0 .43 0 .5-.337 1.024-.574.84-1.55 1.53-2.746 1.53-.625 0-3.203-.237-3.203-4.874 0-1.719.285-2.676.813-3.465.476-.742 1.433-1.48 2.629-1.48 1.48 0 2.316 1.074 2.554 1.457.29.406.29.453.29.883zm13.284-3.586c0-1.289 0-2.246-1.05-3.18-.836-.765-1.91-1.097-2.965-1.097-1.957 0-3.465 1.289-3.465 2.844 0 .691.457 1.027 1.004 1.027.574 0 .98-.406.98-.98 0-.98-.859-.98-1.218-.98.55-1.005 1.699-1.434 2.652-1.434 1.102 0 2.508.91 2.508 3.058v.957c-4.801.07-6.617 2.078-6.617 3.918 0 1.89 2.199 2.485 3.656 2.485 1.578 0 2.652-.954 3.105-2.102.098 1.125.836 1.984 1.864 1.984.504 0 1.89-.336 1.89-2.246v-1.34h-.527v1.34c0 1.363-.574 1.551-.906 1.551-.91 0-.91-1.266-.91-1.625zm-1.554 3.012c0 2.34-1.742 3.129-2.77 3.129-1.172 0-2.152-.86-2.152-2.008 0-3.152 4.062-3.441 4.922-3.488zm8.241-13.215-3.32.262v.691c1.626 0 1.813.168 1.813 1.34v12.52c0 1.078-.262 1.078-1.812 1.078v.691c.668-.047 1.836-.047 2.554-.047.72 0 1.914 0 2.582.047v-.691c-1.53 0-1.816 0-1.816-1.078zm17.786 6.211c-.141 0-.379.024-.426.047s-.097.023-.429.023h-2.797V-42.3c0-2.437 2.078-3.343 3.488-3.343.238 0 1.387.023 2.102.835-1.004 0-1.075.739-1.075 1.004 0 .692.575 1.004.981 1.004.43 0 1.004-.289 1.004-1.027 0-1.219-1.125-2.297-2.965-2.297-2.176 0-4.992 1.195-4.992 3.777v2.746h-1.864v.696h1.864v7.836c0 1.078-.266 1.078-1.817 1.078v.691c.668-.047 1.84-.047 2.555-.047.719 0 1.914 0 2.582.047v-.691c-1.527 0-1.816 0-1.816-1.078v-7.836h3.75c1.101 0 1.246.312 1.246 1.289v6.547c0 1.078-.266 1.078-1.817 1.078v.691c.668-.047 1.84-.047 2.559-.047.715 0 1.91 0 2.578.047v-.691c-1.527 0-1.816 0-1.816-1.078v-8.793zm14.559 4.828c.523 0 .574 0 .574-.453 0-2.414-1.293-4.66-4.184-4.66-2.726 0-4.828 2.46-4.828 5.426 0 3.152 2.438 5.468 5.09 5.468 2.844 0 3.922-2.578 3.922-3.082 0-.144-.121-.238-.266-.238-.191 0-.242.121-.285.239-.625 2.007-2.223 2.558-3.226 2.558s-3.418-.672-3.418-4.805v-.453zm-6.598-.453c.191-3.754 2.297-4.184 2.965-4.184 2.555 0 2.699 3.372 2.723 4.184zm18.477.192c0-2.223 0-2.895-.551-3.657-.692-.933-1.813-1.078-2.625-1.078-2.32 0-3.227 1.985-3.418 2.465h-.027v-2.465l-3.25.266v.691c1.625 0 1.82.168 1.82 1.34v6.473c0 1.078-.266 1.078-1.82 1.078v.691c.625-.047 1.914-.047 2.582-.047.695 0 1.984 0 2.605.047v-.691c-1.531 0-1.816 0-1.816-1.078v-4.442c0-2.511 1.648-3.847 3.129-3.847 1.484 0 1.82 1.218 1.82 2.675v5.614c0 1.078-.266 1.078-1.82 1.078v.691c.625-.047 1.914-.047 2.582-.047.695 0 1.984 0 2.605.047v-.691c-1.195 0-1.793 0-1.816-.719zm6.523-8.915c0-.62-.5-1.171-1.168-1.171-.625 0-1.148.504-1.148 1.148a1.15 1.15 0 0 0 1.148 1.168c.738 0 1.168-.621 1.168-1.145m-3.297 4.446v.691c1.528 0 1.746.145 1.746 1.313v6.5c0 1.078-.265 1.078-1.816 1.078v.691c.668-.047 1.816-.047 2.508-.047.261 0 1.648 0 2.461.047v-.691c-1.551 0-1.649-.121-1.649-1.051v-8.797zm9.75-6.309-3.32.262v.691c1.625 0 1.816.168 1.816 1.34v12.52c0 1.078-.265 1.078-1.816 1.078v.691c.668-.047 1.84-.047 2.555-.047.718 0 1.914 0 2.582.047v-.691c-1.532 0-1.817 0-1.817-1.078zm11.543 11.039c.524 0 .574 0 .574-.453 0-2.414-1.293-4.66-4.183-4.66-2.723 0-4.828 2.46-4.828 5.426 0 3.152 2.437 5.468 5.089 5.468 2.844 0 3.922-2.578 3.922-3.082 0-.144-.121-.238-.265-.238-.192 0-.239.121-.285.239-.622 2.007-2.223 2.558-3.227 2.558s-3.418-.672-3.418-4.805v-.453zm-6.598-.453c.192-3.754 2.297-4.184 2.965-4.184 2.559 0 2.7 3.372 2.723 4.184zM73.223-138.18c0-1.289 0-2.246-1.051-3.179-.836-.762-1.91-1.098-2.961-1.098-1.961 0-3.469 1.289-3.469 2.844 0 .691.457 1.027 1.008 1.027.57 0 .977-.406.977-.98 0-.981-.86-.981-1.22-.981.552-1.004 1.7-1.433 2.653-1.433 1.102 0 2.512.91 2.512 3.058v.957c-4.805.07-6.621 2.078-6.621 3.918 0 1.891 2.199 2.484 3.656 2.484 1.578 0 2.652-.953 3.106-2.101.097 1.125.835 1.984 1.867 1.984.5 0 1.886-.336 1.886-2.246v-1.34h-.527v1.34c0 1.363-.57 1.555-.906 1.555-.91 0-.91-1.27-.91-1.625zm-1.551 3.012c0 2.34-1.746 3.129-2.774 3.129-1.171 0-2.148-.859-2.148-2.008 0-3.152 4.063-3.441 4.922-3.488zm11.293-6.906v.691c1.625 0 1.816.168 1.816 1.34v4.277c0 2.032-1.078 3.727-2.867 3.727-1.96 0-2.078-1.125-2.078-2.391v-7.91l-3.371.266v.691c1.816 0 1.816.07 1.816 2.199v3.582c0 1.485 0 2.344.719 3.133.57.621 1.55.906 2.77.906.406 0 1.171 0 1.984-.691.691-.551 1.074-1.461 1.074-1.461v2.152l3.32-.238v-.691c-1.625 0-1.812-.168-1.812-1.34v-8.508zm22.871 4.469c0-2.223 0-2.891-.551-3.657-.695-.933-1.816-1.078-2.629-1.078-1.984 0-2.988 1.434-3.37 2.367-.333-1.84-1.626-2.367-3.13-2.367-2.32 0-3.226 1.985-3.418 2.461h-.023v-2.461l-3.25.266v.691c1.625 0 1.816.168 1.816 1.34v6.473c0 1.078-.262 1.078-1.816 1.078v.691c.62-.047 1.91-.047 2.582-.047.691 0 1.984 0 2.601.047v-.691c-1.527 0-1.812 0-1.812-1.078v-4.442c0-2.511 1.648-3.847 3.129-3.847 1.48 0 1.816 1.218 1.816 2.675v5.614c0 1.078-.265 1.078-1.816 1.078v.691c.62-.047 1.91-.047 2.582-.047.691 0 1.98 0 2.601.047v-.691c-1.527 0-1.812 0-1.812-1.078v-4.442c0-2.511 1.648-3.847 3.129-3.847 1.48 0 1.816 1.218 1.816 2.675v5.614c0 1.078-.265 1.078-1.816 1.078v.691c.621-.047 1.914-.047 2.582-.047.691 0 1.98 0 2.601.047v-.691c-1.195 0-1.789 0-1.812-.719zm11.516.261c.527 0 .574 0 .574-.453 0-2.414-1.289-4.66-4.184-4.66-2.722 0-4.824 2.461-4.824 5.426 0 3.152 2.437 5.468 5.09 5.468 2.844 0 3.918-2.578 3.918-3.082 0-.144-.121-.238-.262-.238-.191 0-.242.121-.285.238-.625 2.008-2.223 2.555-3.231 2.555-1 0-3.414-.668-3.414-4.801v-.453zm-6.594-.453c.191-3.754 2.293-4.183 2.961-4.183 2.558 0 2.703 3.371 2.726 4.183zm18.476.192c0-2.223 0-2.891-.55-3.657-.692-.933-1.817-1.078-2.629-1.078-2.317 0-3.227 1.985-3.414 2.461h-.028v-2.461l-3.25.266v.691c1.625 0 1.817.168 1.817 1.34v6.473c0 1.078-.262 1.078-1.817 1.078v.691c.621-.047 1.914-.047 2.582-.047.696 0 1.985 0 2.606.047v-.691c-1.531 0-1.817 0-1.817-1.078v-4.442c0-2.511 1.649-3.847 3.129-3.847 1.485 0 1.817 1.218 1.817 2.675v5.614c0 1.078-.262 1.078-1.817 1.078v.691c.621-.047 1.914-.047 2.582-.047.696 0 1.985 0 2.606.047v-.691c-1.196 0-1.793 0-1.817-.719zm5.782-3.801h3.367v-.696h-3.367v-4.394h-.528c-.023 2.246-.883 4.539-3.058 4.613v.477h2.031v6.644c0 2.653 1.769 3.199 3.035 3.199 1.508 0 2.293-1.48 2.293-3.199v-1.363h-.523v1.312c0 1.723-.696 2.723-1.625 2.723-1.625 0-1.625-2.219-1.625-2.625zm14.308 3.226c0-1.289 0-2.246-1.051-3.179-.835-.762-1.914-1.098-2.964-1.098-1.957 0-3.465 1.289-3.465 2.844 0 .691.453 1.027 1.004 1.027.574 0 .98-.406.98-.98 0-.981-.859-.981-1.219-.981.551-1.004 1.696-1.433 2.653-1.433 1.097 0 2.508.91 2.508 3.058v.957c-4.801.07-6.618 2.078-6.618 3.918 0 1.891 2.2 2.484 3.657 2.484 1.574 0 2.652-.953 3.105-2.101.094 1.125.836 1.984 1.863 1.984.504 0 1.887-.336 1.887-2.246v-1.34h-.523v1.34c0 1.363-.575 1.555-.907 1.555-.91 0-.91-1.27-.91-1.625zm-1.554 3.012c0 2.34-1.743 3.129-2.774 3.129-1.168 0-2.148-.859-2.148-2.008 0-3.152 4.062-3.441 4.922-3.488zm32.886 7.309c-1.531 0-1.816 0-1.816-1.075v-4.156c.43.598 1.406 1.527 2.937 1.527 2.75 0 5.161-2.316 5.161-5.398 0-3.035-2.243-5.379-4.848-5.379-2.106 0-3.227 1.508-3.301 1.602v-1.602l-3.32.266v.691c1.672 0 1.816.168 1.816 1.219v11.23c0 1.075-.262 1.075-1.816 1.075v.695c.621-.051 1.914-.051 2.582-.051.691 0 1.98 0 2.605.051zm-1.816-11.563c0-.457 0-.48.262-.859.718-1.078 1.886-1.532 2.796-1.532 1.79 0 3.223 2.176 3.223 4.852 0 2.844-1.625 4.922-3.465 4.922a2.83 2.83 0 0 1-1.91-.766c-.551-.547-.906-1.027-.906-1.695zm20.629 2.508c0-3.082-2.34-5.543-5.114-5.543-2.867 0-5.136 2.531-5.136 5.543 0 3.059 2.386 5.351 5.113 5.351 2.816 0 5.137-2.339 5.137-5.351m-5.114 4.824c-.886 0-1.96-.379-2.652-1.551-.648-1.074-.672-2.484-.672-3.488 0-.91 0-2.367.742-3.441a3.06 3.06 0 0 1 2.559-1.41c.93 0 1.934.429 2.578 1.363.742 1.097.742 2.605.742 3.488 0 .836 0 2.316-.621 3.441-.668 1.149-1.769 1.598-2.676 1.598m13.684-9.816c0-.434 0-.551-.242-.551-.188 0-.641.523-.813.738-.738-.594-1.48-.738-2.242-.738-2.894 0-3.754 1.574-3.754 2.891 0 .261 0 1.097.91 1.933.762.672 1.575.84 2.676 1.055 1.313.262 1.625.332 2.223.812.43.36.738.883.738 1.551 0 1.027-.597 2.176-2.699 2.176-1.578 0-2.723-.906-3.25-3.297-.094-.43-.094-.453-.117-.477-.051-.097-.145-.097-.215-.097-.266 0-.266.121-.266.551v3.25c0 .429 0 .546.239.546.121 0 .144-.023.55-.527.121-.164.121-.211.477-.594.91 1.121 2.199 1.121 2.605 1.121 2.508 0 3.75-1.382 3.75-3.273 0-1.289-.785-2.055-1-2.269-.863-.739-1.507-.883-3.086-1.172-.714-.141-2.46-.477-2.46-1.911 0-.742.503-1.839 2.656-1.839 2.601 0 2.746 2.222 2.793 2.964.023.192.191.192.261.192.266 0 .266-.121.266-.551zm5.52-4.614c0-.621-.504-1.171-1.172-1.171-.621 0-1.145.503-1.145 1.148 0 .715.571 1.172 1.145 1.172.742 0 1.172-.625 1.172-1.149m-3.297 4.446v.691c1.527 0 1.742.145 1.742 1.313v6.5c0 1.078-.262 1.078-1.816 1.078v.691c.671-.047 1.816-.047 2.511-.047.262 0 1.649 0 2.461.047v-.691c-1.555 0-1.648-.121-1.648-1.051v-8.797zm14.742.644c.215-.265.215-.312.215-.406 0-.266-.164-.266-.571-.266h-7.507l-.262 3.801h.527c.141-2.437.598-3.32 3.203-3.32h2.77l-6.832 9.391c0 .429.047.429.57.429h7.793l.379-4.394h-.523c-.215 2.722-.621 3.871-3.465 3.871h-2.891zm5.453-5.09c0-.621-.5-1.171-1.168-1.171-.625 0-1.148.503-1.148 1.148 0 .715.574 1.172 1.148 1.172.738 0 1.168-.625 1.168-1.149m-3.297 4.446v.691c1.528 0 1.746.145 1.746 1.313v6.5c0 1.078-.265 1.078-1.816 1.078v.691c.668-.047 1.816-.047 2.508-.047.261 0 1.648 0 2.461.047v-.691c-1.551 0-1.649-.121-1.649-1.051v-8.797zm16.61 5.16c0-3.082-2.344-5.543-5.114-5.543-2.867 0-5.14 2.531-5.14 5.543 0 3.059 2.39 5.351 5.117 5.351 2.816 0 5.137-2.339 5.137-5.351m-5.114 4.824c-.886 0-1.961-.379-2.652-1.551-.649-1.074-.672-2.484-.672-3.488 0-.91 0-2.367.742-3.441a3.06 3.06 0 0 1 2.559-1.41c.93 0 1.933.429 2.578 1.363.742 1.097.742 2.605.742 3.488 0 .836 0 2.316-.621 3.441-.668 1.149-1.769 1.598-2.676 1.598m16.477-5.515c0-2.223 0-2.891-.547-3.657-.695-.933-1.816-1.078-2.629-1.078-2.32 0-3.227 1.985-3.418 2.461h-.023v-2.461l-3.25.266v.691c1.625 0 1.816.168 1.816 1.34v6.473c0 1.078-.262 1.078-1.816 1.078v.691c.621-.047 1.91-.047 2.578-.047.695 0 1.984 0 2.605.047v-.691c-1.527 0-1.816 0-1.816-1.078v-4.442c0-2.511 1.648-3.847 3.133-3.847 1.48 0 1.816 1.218 1.816 2.675v5.614c0 1.078-.266 1.078-1.816 1.078v.691c.621-.047 1.91-.047 2.578-.047.695 0 1.984 0 2.605.047v-.691c-1.195 0-1.793 0-1.816-.719zm11.519.261c.528 0 .575 0 .575-.453 0-2.414-1.289-4.66-4.184-4.66-2.723 0-4.824 2.461-4.824 5.426 0 3.152 2.437 5.468 5.086 5.468 2.843 0 3.922-2.578 3.922-3.082 0-.144-.122-.238-.262-.238-.192 0-.242.121-.289.238-.621 2.008-2.223 2.555-3.227 2.555s-3.418-.668-3.418-4.801v-.453zm-6.597-.453c.191-3.754 2.297-4.183 2.965-4.183 2.558 0 2.699 3.371 2.722 4.183zm38.015-10.324v.691c1.625 0 1.817.168 1.817 1.34v5.281c-.504-.695-1.532-1.531-2.989-1.531-2.769 0-5.164 2.344-5.164 5.402 0 3.036 2.274 5.375 4.903 5.375 1.816 0 2.867-1.195 3.203-1.648v1.648l3.367-.238v-.691c-1.625 0-1.816-.168-1.816-1.34v-14.551zm1.77 13.527c0 .43 0 .5-.336 1.024-.574.84-1.555 1.531-2.75 1.531-.621 0-3.199-.238-3.199-4.875 0-1.719.285-2.676.812-3.465.477-.742 1.43-1.48 2.625-1.48 1.485 0 2.321 1.074 2.559 1.457.289.406.289.453.289.882zm8.219-11.926c0-.621-.504-1.171-1.172-1.171-.621 0-1.145.503-1.145 1.148 0 .715.571 1.172 1.145 1.172.742 0 1.172-.625 1.172-1.149m-3.297 4.446v.691c1.527 0 1.742.145 1.742 1.313v6.5c0 1.078-.262 1.078-1.816 1.078v.691c.671-.047 1.816-.047 2.511-.047.262 0 1.649 0 2.461.047v-.691c-1.555 0-1.648-.121-1.648-1.051v-8.797zm39.152 6.261h-.523c-.075.407-.262 1.719-.504 2.098-.168.219-1.528.219-2.246.219h-4.422c.648-.551 2.105-2.078 2.726-2.652 3.633-3.348 4.969-4.59 4.969-6.954 0-2.75-2.172-4.589-4.945-4.589s-4.399 2.367-4.399 4.421c0 1.219 1.051 1.219 1.125 1.219.5 0 1.121-.359 1.121-1.125 0-.668-.453-1.121-1.121-1.121-.215 0-.265 0-.336.024.454-1.625 1.746-2.723 3.297-2.723 2.032 0 3.274 1.695 3.274 3.894 0 2.032-1.168 3.797-2.532 5.329l-4.828 5.402v.57h8.723zM47.723-200.98c0-1.29 0-2.247-1.051-3.18-.836-.762-1.91-1.098-2.961-1.098-1.961 0-3.469 1.289-3.469 2.844 0 .691.457 1.027 1.008 1.027.57 0 .977-.406.977-.98 0-.981-.86-.981-1.22-.981.552-1.004 1.7-1.433 2.653-1.433 1.102 0 2.512.91 2.512 3.058v.957c-4.805.071-6.621 2.078-6.621 3.918 0 1.891 2.199 2.489 3.656 2.489 1.578 0 2.652-.957 3.105-2.106.098 1.125.836 1.985 1.868 1.985.5 0 1.886-.336 1.886-2.247v-1.339h-.527v1.339c0 1.364-.57 1.555-.906 1.555-.91 0-.91-1.269-.91-1.625zm-1.551 3.011c0 2.34-1.746 3.129-2.774 3.129-1.171 0-2.148-.859-2.148-2.008 0-3.152 4.063-3.441 4.922-3.488zm8.141-13.215-3.325.262v.695c1.625 0 1.817.164 1.817 1.336v12.524c0 1.074-.262 1.074-1.817 1.074v.691c.668-.046 1.84-.046 2.559-.046.715 0 1.91 0 2.578.046v-.691c-1.527 0-1.812 0-1.812-1.074zm6.402 6.977h3.37v-.691h-3.37v-4.399h-.528c-.023 2.246-.882 4.539-3.058 4.613v.477h2.031v6.644c0 2.653 1.77 3.204 3.035 3.204 1.508 0 2.297-1.485 2.297-3.204v-1.363h-.527v1.317c0 1.718-.692 2.722-1.625 2.722-1.625 0-1.625-2.222-1.625-2.629zm9.075 4.039c0-2.316.956-4.492 2.796-4.492.191 0 .238 0 .336.023-.191.098-.574.239-.574.883 0 .695.55.957.933.957.477 0 .953-.312.953-.957 0-.715-.644-1.387-1.671-1.387-2.032 0-2.723 2.2-2.868 2.657h-.023v-2.657l-3.203.266v.691c1.625 0 1.816.168 1.816 1.34v6.477c0 1.074-.262 1.074-1.816 1.074v.691c.668-.046 1.984-.046 2.699-.046.644 0 2.344 0 2.894.046v-.691h-.48c-1.742 0-1.793-.262-1.793-1.121zm9.269-9.152c0-.621-.504-1.172-1.172-1.172-.621 0-1.145.504-1.145 1.148 0 .715.57 1.172 1.145 1.172.742 0 1.172-.625 1.172-1.148m-3.297 4.445v.691c1.527 0 1.742.145 1.742 1.317v6.5c0 1.074-.262 1.074-1.817 1.074v.691c.672-.046 1.817-.046 2.512-.046.262 0 1.649 0 2.461.046v-.691c-1.554 0-1.648-.121-1.648-1.051v-8.797zm22.773 4.469c0-2.223 0-2.891-.55-3.657-.696-.933-1.817-1.078-2.63-1.078-1.984 0-2.988 1.438-3.37 2.368-.333-1.84-1.626-2.368-3.13-2.368-2.316 0-3.226 1.985-3.418 2.465h-.023v-2.465l-3.25.266v.691c1.625 0 1.817.168 1.817 1.34v6.477c0 1.074-.262 1.074-1.817 1.074v.691c.621-.046 1.914-.046 2.582-.046.692 0 1.985 0 2.606.046v-.691c-1.532 0-1.817 0-1.817-1.074v-4.446c0-2.507 1.649-3.847 3.13-3.847 1.483 0 1.816 1.219 1.816 2.676v5.617c0 1.074-.262 1.074-1.817 1.074v.691c.621-.046 1.914-.046 2.582-.046.692 0 1.98 0 2.606.046v-.691c-1.532 0-1.817 0-1.817-1.074v-4.446c0-2.507 1.649-3.847 3.13-3.847s1.816 1.219 1.816 2.676v5.617c0 1.074-.262 1.074-1.817 1.074v.691c.621-.046 1.914-.046 2.582-.046.692 0 1.98 0 2.606.046v-.691c-1.196 0-1.793 0-1.817-.715zm11.52.261c.523 0 .574 0 .574-.453 0-2.414-1.293-4.66-4.184-4.66-2.726 0-4.828 2.461-4.828 5.426 0 3.152 2.438 5.473 5.09 5.473 2.844 0 3.922-2.582 3.922-3.086 0-.145-.121-.239-.266-.239-.191 0-.242.121-.285.239-.625 2.007-2.223 2.558-3.226 2.558s-3.418-.668-3.418-4.804v-.454zm-6.598-.453c.191-3.754 2.297-4.183 2.965-4.183 2.555 0 2.699 3.371 2.723 4.183zm18.477.192c0-2.223 0-2.891-.551-3.657-.692-.933-1.813-1.078-2.625-1.078-2.32 0-3.227 1.985-3.418 2.465h-.027v-2.465l-3.25.266v.691c1.625 0 1.82.168 1.82 1.34v6.477c0 1.074-.266 1.074-1.82 1.074v.691c.625-.046 1.914-.046 2.582-.046.695 0 1.984 0 2.605.046v-.691c-1.531 0-1.816 0-1.816-1.074v-4.446c0-2.507 1.648-3.847 3.129-3.847 1.484 0 1.82 1.219 1.82 2.676v5.617c0 1.074-.266 1.074-1.82 1.074v.691c.625-.046 1.914-.046 2.582-.046.695 0 1.984 0 2.605.046v-.691c-1.195 0-1.793 0-1.816-.715zm5.781-3.801h3.371v-.691h-3.371v-4.399h-.527c-.024 2.246-.883 4.539-3.059 4.613v.477h2.031v6.644c0 2.653 1.77 3.204 3.035 3.204 1.508 0 2.297-1.485 2.297-3.204v-1.363h-.527v1.317c0 1.718-.692 2.722-1.625 2.722-1.625 0-1.625-2.222-1.625-2.629zm9.242-5.113c0-.621-.5-1.172-1.168-1.172-.625 0-1.148.504-1.148 1.148 0 .715.574 1.172 1.148 1.172.738 0 1.168-.625 1.168-1.148m-3.297 4.445v.691c1.528 0 1.746.145 1.746 1.317v6.5c0 1.074-.265 1.074-1.816 1.074v.691c.668-.046 1.816-.046 2.508-.046.261 0 1.648 0 2.461.046v-.691c-1.551 0-1.649-.121-1.649-1.051v-8.797zm10.035 1.121c0-.644-.547-1.144-1.144-1.144-.696 0-1.172.546-1.172 1.144 0 .719.598 1.172 1.148 1.172.645 0 1.168-.5 1.168-1.172m0 7.984c0-.644-.547-1.148-1.144-1.148-.696 0-1.172.551-1.172 1.148 0 .715.598 1.168 1.148 1.168.645 0 1.168-.5 1.168-1.168m-72.527-84.851v.691c1.625 0 1.816.168 1.816 1.34v5.281c-.5-.695-1.527-1.531-2.984-1.531-2.773 0-5.164 2.344-5.164 5.402 0 3.036 2.27 5.375 4.898 5.375 1.817 0 2.868-1.195 3.204-1.648v1.648l3.367-.238v-.691c-1.625 0-1.813-.168-1.813-1.34v-14.551zm1.77 13.527c0 .43 0 .5-.336 1.024-.57.84-1.551 1.531-2.746 1.531-.622 0-3.204-.238-3.204-4.875 0-1.719.285-2.676.813-3.465.476-.742 1.433-1.48 2.629-1.48 1.48 0 2.316 1.074 2.554 1.457.29.406.29.453.29.882zm8.218-11.926c0-.621-.5-1.171-1.168-1.171a1.15 1.15 0 0 0-1.148 1.148c0 .715.574 1.172 1.148 1.172.739 0 1.168-.625 1.168-1.149m-3.297 4.446v.691c1.532 0 1.747.145 1.747 1.313v6.5c0 1.078-.262 1.078-1.817 1.078v.691c.668-.047 1.817-.047 2.508-.047.266 0 1.648 0 2.46.047v-.691c-1.55 0-1.648-.121-1.648-1.051v-8.797zm22.774 4.469c0-2.223 0-2.891-.547-3.657-.695-.933-1.817-1.078-2.629-1.078-1.984 0-2.988 1.434-3.371 2.367-.336-1.84-1.625-2.367-3.129-2.367-2.32 0-3.226 1.985-3.418 2.461h-.023v-2.461l-3.25.266v.691c1.625 0 1.816.168 1.816 1.34v6.473c0 1.078-.262 1.078-1.816 1.078v.691c.62-.047 1.91-.047 2.578-.047.695 0 1.984 0 2.605.047v-.691c-1.527 0-1.816 0-1.816-1.078v-4.442c0-2.511 1.648-3.847 3.133-3.847 1.48 0 1.816 1.218 1.816 2.675v5.614c0 1.078-.266 1.078-1.816 1.078v.691c.62-.047 1.91-.047 2.578-.047.695 0 1.984 0 2.605.047v-.691c-1.527 0-1.816 0-1.816-1.078v-4.442c0-2.511 1.648-3.847 3.133-3.847 1.48 0 1.816 1.218 1.816 2.675v5.614c0 1.078-.266 1.078-1.816 1.078v.691c.62-.047 1.91-.047 2.578-.047.695 0 1.984 0 2.605.047v-.691c-1.195 0-1.793 0-1.816-.719zm6.523-8.915c0-.621-.5-1.171-1.168-1.171a1.15 1.15 0 0 0-1.148 1.148c0 .715.574 1.172 1.148 1.172.739 0 1.168-.625 1.168-1.149m-3.297 4.446v.691c1.532 0 1.746.145 1.746 1.313v6.5c0 1.078-.261 1.078-1.816 1.078v.691c.668-.047 1.816-.047 2.508-.047.266 0 1.648 0 2.461.047v-.691c-1.551 0-1.649-.121-1.649-1.051v-8.797zm16.274 4.469c0-2.223 0-2.891-.547-3.657-.695-.933-1.816-1.078-2.629-1.078-2.32 0-3.227 1.985-3.418 2.461h-.023v-2.461l-3.25.266v.691c1.625 0 1.816.168 1.816 1.34v6.473c0 1.078-.262 1.078-1.816 1.078v.691c.621-.047 1.91-.047 2.578-.047.695 0 1.984 0 2.605.047v-.691c-1.527 0-1.816 0-1.816-1.078v-4.442c0-2.511 1.648-3.847 3.133-3.847 1.48 0 1.816 1.218 1.816 2.675v5.614c0 1.078-.266 1.078-1.816 1.078v.691c.621-.047 1.91-.047 2.578-.047.695 0 1.984 0 2.605.047v-.691c-1.195 0-1.793 0-1.816-.719zm9.031-4.469v.691c1.625 0 1.816.168 1.816 1.34v4.277c0 2.032-1.074 3.727-2.867 3.727-1.961 0-2.078-1.125-2.078-2.391v-7.91l-3.371.266v.691c1.816 0 1.816.07 1.816 2.199v3.582c0 1.485 0 2.344.719 3.133.574.621 1.555.906 2.77.906.41 0 1.172 0 1.984-.691.695-.551 1.074-1.461 1.074-1.461v2.152l3.325-.238v-.691c-1.625 0-1.817-.168-1.817-1.34v-8.508zm9.895-4.446c0-.621-.504-1.171-1.172-1.171-.621 0-1.145.503-1.145 1.148 0 .715.571 1.172 1.145 1.172.742 0 1.172-.625 1.172-1.149m-3.297 4.446v.691c1.527 0 1.742.145 1.742 1.313v6.5c0 1.078-.262 1.078-1.816 1.078v.691c.671-.047 1.816-.047 2.511-.047.262 0 1.649 0 2.461.047v-.691c-1.555 0-1.648-.121-1.648-1.051v-8.797zm13.476.168c0-.434 0-.551-.242-.551-.187 0-.641.523-.808.738-.743-.594-1.485-.738-2.247-.738-2.894 0-3.753 1.574-3.753 2.891 0 .261 0 1.097.91 1.933.761.672 1.574.84 2.675 1.055 1.317.262 1.625.332 2.223.812.43.36.738.883.738 1.551 0 1.027-.593 2.176-2.699 2.176-1.574 0-2.722-.906-3.25-3.297-.094-.43-.094-.453-.117-.477-.051-.097-.145-.097-.215-.097-.265 0-.265.121-.265.551v3.25c0 .429 0 .546.242.546.117 0 .14-.023.547-.527.121-.164.121-.211.476-.594.91 1.121 2.199 1.121 2.606 1.121 2.511 0 3.754-1.382 3.754-3.273 0-1.289-.79-2.055-1.004-2.269-.86-.739-1.504-.883-3.082-1.172-.719-.141-2.461-.477-2.461-1.911 0-.742.5-1.839 2.652-1.839 2.605 0 2.746 2.222 2.797 2.964.019.192.187.192.262.192.261 0 .261-.121.261-.551zm10.012 1.265c-.285 0-1.172 0-1.172.977 0 .574.406.98.981.98.55 0 1.004-.332 1.004-1.027 0-1.602-1.672-2.746-3.61-2.746-2.793 0-5.015 2.484-5.015 5.496 0 3.059 2.292 5.398 4.992 5.398 3.156 0 3.871-2.867 3.871-3.082s-.168-.214-.238-.214c-.215 0-.239.07-.309.359-.527 1.695-1.816 2.41-3.109 2.41-1.457 0-3.391-1.262-3.391-4.894 0-3.969 2.031-4.95 3.223-4.95.91 0 2.226.36 2.773 1.293m6.008-5.879c0-.621-.5-1.171-1.168-1.171-.625 0-1.149.503-1.149 1.148 0 .715.575 1.172 1.149 1.172.738 0 1.168-.625 1.168-1.149m-3.297 4.446v.691c1.527 0 1.742.145 1.742 1.313v6.5c0 1.078-.262 1.078-1.812 1.078v.691c.668-.047 1.812-.047 2.507-.047.262 0 1.649 0 2.461.047v-.691c-1.554 0-1.648-.121-1.648-1.051v-8.797zm34.394 14.215c-1.531 0-1.816 0-1.816-1.075v-4.156c.43.598 1.41 1.527 2.938 1.527 2.75 0 5.164-2.316 5.164-5.398 0-3.035-2.246-5.379-4.852-5.379-2.101 0-3.226 1.508-3.297 1.602v-1.602l-3.324.266v.691c1.676 0 1.816.168 1.816 1.219v11.23c0 1.075-.261 1.075-1.816 1.075v.695c.621-.051 1.914-.051 2.582-.051.691 0 1.984 0 2.605.051zm-1.816-11.563c0-.457 0-.48.262-.859.719-1.078 1.887-1.532 2.797-1.532 1.793 0 3.226 2.176 3.226 4.852 0 2.844-1.625 4.922-3.465 4.922a2.83 2.83 0 0 1-1.914-.766c-.547-.547-.906-1.027-.906-1.695zm20.629 2.508c0-3.082-2.34-5.543-5.113-5.543-2.867 0-5.137 2.531-5.137 5.543 0 3.059 2.387 5.351 5.113 5.351 2.821 0 5.137-2.339 5.137-5.351m-5.113 4.824c-.883 0-1.961-.379-2.653-1.551-.644-1.074-.668-2.484-.668-3.488 0-.91 0-2.367.739-3.441a3.06 3.06 0 0 1 2.558-1.41c.934 0 1.938.429 2.578 1.363.743 1.097.743 2.605.743 3.488 0 .836 0 2.316-.622 3.441-.667 1.149-1.765 1.598-2.675 1.598m13.683-9.816c0-.434 0-.551-.242-.551-.187 0-.641.523-.808.738-.743-.594-1.485-.738-2.247-.738-2.894 0-3.753 1.574-3.753 2.891 0 .261 0 1.097.91 1.933.761.672 1.574.84 2.675 1.055 1.317.262 1.625.332 2.223.812.43.36.738.883.738 1.551 0 1.027-.593 2.176-2.699 2.176-1.574 0-2.722-.906-3.25-3.297-.094-.43-.094-.453-.117-.477-.051-.097-.145-.097-.215-.097-.265 0-.265.121-.265.551v3.25c0 .429 0 .546.242.546.117 0 .14-.023.547-.527.121-.164.121-.211.476-.594.91 1.121 2.199 1.121 2.606 1.121 2.511 0 3.754-1.382 3.754-3.273 0-1.289-.79-2.055-1.004-2.269-.86-.739-1.504-.883-3.082-1.172-.719-.141-2.461-.477-2.461-1.911 0-.742.5-1.839 2.652-1.839 2.605 0 2.746 2.222 2.797 2.964.019.192.187.192.262.192.261 0 .261-.121.261-.551zm5.52-4.614c0-.621-.5-1.171-1.168-1.171-.625 0-1.149.503-1.149 1.148 0 .715.575 1.172 1.149 1.172.738 0 1.168-.625 1.168-1.149m-3.297 4.446v.691c1.527 0 1.742.145 1.742 1.313v6.5c0 1.078-.262 1.078-1.812 1.078v.691c.668-.047 1.812-.047 2.507-.047.262 0 1.649 0 2.461.047v-.691c-1.554 0-1.648-.121-1.648-1.051v-8.797zm14.742.644c.219-.265.219-.312.219-.406 0-.266-.168-.266-.574-.266h-7.504l-.266 3.801h.527c.141-2.437.598-3.32 3.204-3.32h2.769l-6.832 9.391c0 .429.047.429.574.429h7.789l.383-4.394h-.527c-.215 2.722-.621 3.871-3.465 3.871h-2.891zm5.453-5.09c0-.621-.5-1.171-1.168-1.171a1.15 1.15 0 0 0-1.148 1.148c0 .715.574 1.172 1.148 1.172.739 0 1.168-.625 1.168-1.149m-3.297 4.446v.691c1.532 0 1.746.145 1.746 1.313v6.5c0 1.078-.261 1.078-1.816 1.078v.691c.668-.047 1.816-.047 2.508-.047.266 0 1.648 0 2.461.047v-.691c-1.551 0-1.649-.121-1.649-1.051v-8.797zm16.61 5.16c0-3.082-2.34-5.543-5.114-5.543-2.867 0-5.136 2.531-5.136 5.543 0 3.059 2.386 5.351 5.113 5.351 2.816 0 5.137-2.339 5.137-5.351m-5.114 4.824c-.886 0-1.96-.379-2.652-1.551-.648-1.074-.672-2.484-.672-3.488 0-.91 0-2.367.742-3.441a3.06 3.06 0 0 1 2.559-1.41c.93 0 1.934.429 2.578 1.363.742 1.097.742 2.605.742 3.488 0 .836 0 2.316-.621 3.441-.668 1.149-1.769 1.598-2.676 1.598m16.579-5.515c0-2.223 0-2.891-.551-3.657-.692-.933-1.813-1.078-2.625-1.078-2.32 0-3.227 1.985-3.418 2.461h-.027v-2.461l-3.25.266v.691c1.625 0 1.82.168 1.82 1.34v6.473c0 1.078-.266 1.078-1.82 1.078v.691c.625-.047 1.914-.047 2.582-.047.695 0 1.984 0 2.605.047v-.691c-1.531 0-1.816 0-1.816-1.078v-4.442c0-2.511 1.648-3.847 3.129-3.847 1.484 0 1.82 1.218 1.82 2.675v5.614c0 1.078-.266 1.078-1.82 1.078v.691c.625-.047 1.914-.047 2.582-.047.695 0 1.984 0 2.605.047v-.691c-1.195 0-1.793 0-1.816-.719zm11.519.261c.524 0 .574 0 .574-.453 0-2.414-1.293-4.66-4.183-4.66-2.723 0-4.828 2.461-4.828 5.426 0 3.152 2.437 5.468 5.089 5.468 2.844 0 3.922-2.578 3.922-3.082 0-.144-.121-.238-.265-.238-.192 0-.239.121-.285.238-.622 2.008-2.223 2.555-3.227 2.555s-3.418-.668-3.418-4.801v-.453zm-6.598-.453c.192-3.754 2.297-4.183 2.965-4.183 2.559 0 2.7 3.371 2.723 4.183zm38.012-10.324v.691c1.625 0 1.821.168 1.821 1.34v5.281c-.504-.695-1.532-1.531-2.989-1.531-2.773 0-5.164 2.344-5.164 5.402 0 3.036 2.27 5.375 4.903 5.375 1.816 0 2.867-1.195 3.199-1.648v1.648l3.371-.238v-.691c-1.625 0-1.817-.168-1.817-1.34v-14.551zm1.77 13.527c0 .43 0 .5-.332 1.024-.575.84-1.555 1.531-2.75 1.531-.621 0-3.203-.238-3.203-4.875 0-1.719.289-2.676.812-3.465.477-.742 1.434-1.48 2.629-1.48 1.48 0 2.316 1.074 2.559 1.457.285.406.285.453.285.882zm8.222-11.926c0-.621-.504-1.171-1.171-1.171a1.15 1.15 0 0 0-1.149 1.148c0 .715.574 1.172 1.149 1.172.742 0 1.171-.625 1.171-1.149m-3.296 4.446v.691c1.527 0 1.742.145 1.742 1.313v6.5c0 1.078-.262 1.078-1.817 1.078v.691c.668-.047 1.817-.047 2.508-.047.266 0 1.652 0 2.465.047v-.691c-1.555 0-1.648-.121-1.648-1.051v-8.797zm35.519-5.043c0-.551 0-.574-.477-.574-.574.644-1.769 1.527-4.23 1.527v.695c.551 0 1.742 0 3.059-.621v12.449c0 .86-.075 1.149-2.176 1.149h-.738v.691c.644-.047 2.96-.047 3.75-.047.789 0 3.082 0 3.726.047v-.691h-.738c-2.102 0-2.176-.289-2.176-1.149zM46.336-388.207c0-.434 0-.551-.238-.551-.192 0-.645.524-.813.742-.738-.597-1.48-.742-2.246-.742-2.89 0-3.75 1.578-3.75 2.891 0 .265 0 1.101.906 1.937.766.668 1.578.836 2.68 1.051 1.313.262 1.625.332 2.219.813.43.359.742.882.742 1.55 0 1.032-.598 2.176-2.7 2.176-1.577 0-2.722-.906-3.25-3.297-.097-.429-.097-.453-.12-.476-.047-.098-.141-.098-.215-.098-.262 0-.262.121-.262.551v3.25c0 .43 0 .551.238.551.121 0 .145-.024.551-.528.117-.168.117-.215.477-.597.906 1.125 2.199 1.125 2.605 1.125 2.508 0 3.75-1.387 3.75-3.274 0-1.293-.785-2.058-1.004-2.273-.86-.739-1.504-.883-3.082-1.172-.715-.141-2.46-.477-2.46-1.91 0-.739.503-1.84 2.652-1.84 2.605 0 2.75 2.223 2.797 2.965.023.191.19.191.261.191.262 0 .262-.121.262-.551zm10.516 4.562c.527 0 .574 0 .574-.453 0-2.414-1.29-4.66-4.184-4.66-2.722 0-4.824 2.461-4.824 5.426 0 3.152 2.438 5.473 5.09 5.473 2.844 0 3.918-2.582 3.918-3.086 0-.145-.121-.239-.262-.239-.191 0-.242.121-.289.239-.621 2.007-2.219 2.558-3.227 2.558-1 0-3.414-.668-3.414-4.804v-.454zm-6.594-.453c.191-3.754 2.293-4.183 2.96-4.183 2.56 0 2.704 3.371 2.727 4.183zm48.566-.382c0-1.29 0-2.247-1.05-3.18-.837-.762-1.915-1.098-2.965-1.098-1.957 0-3.465 1.289-3.465 2.844 0 .691.453 1.027 1.004 1.027.574 0 .98-.406.98-.98 0-.981-.86-.981-1.219-.981.551-1.004 1.696-1.433 2.653-1.433 1.097 0 2.507.91 2.507 3.058v.957c-4.8.071-6.617 2.078-6.617 3.918 0 1.891 2.2 2.489 3.657 2.489 1.574 0 2.652-.957 3.105-2.106.094 1.125.836 1.985 1.863 1.985.504 0 1.887-.336 1.887-2.247v-1.339h-.523v1.339c0 1.364-.575 1.555-.907 1.555-.91 0-.91-1.269-.91-1.625zm-1.555 3.011c0 2.34-1.742 3.129-2.769 3.129-1.172 0-2.152-.859-2.152-2.008 0-3.152 4.062-3.441 4.921-3.488zm8.141-13.215-3.32.262v.695c1.625 0 1.816.164 1.816 1.336v12.524c0 1.074-.265 1.074-1.816 1.074v.691c.668-.046 1.84-.046 2.555-.046.718 0 1.914 0 2.582.046v-.691c-1.532 0-1.817 0-1.817-1.074zm6.403 6.977h3.371v-.691h-3.371v-4.399h-.524c-.023 2.246-.883 4.539-3.059 4.613v.477h2.032v6.644c0 2.653 1.769 3.204 3.035 3.204 1.504 0 2.293-1.485 2.293-3.204v-1.363h-.527v1.317c0 1.718-.692 2.722-1.625 2.722-1.625 0-1.625-2.222-1.625-2.629zm14.339 4.062c.528 0 .575 0 .575-.453 0-2.414-1.289-4.66-4.184-4.66-2.723 0-4.824 2.461-4.824 5.426 0 3.152 2.437 5.473 5.086 5.473 2.843 0 3.922-2.582 3.922-3.086 0-.145-.122-.239-.262-.239-.192 0-.242.121-.289.239-.621 2.007-2.223 2.558-3.227 2.558s-3.418-.668-3.418-4.804v-.454zm-6.597-.453c.191-3.754 2.297-4.183 2.965-4.183 2.558 0 2.699 3.371 2.722 4.183zm16.949-3.632c.215-.262.215-.309.215-.407 0-.261-.164-.261-.571-.261h-7.507l-.262 3.796h.527c.141-2.437.598-3.32 3.203-3.32h2.77l-6.832 9.391c0 .429.047.429.57.429h7.793l.379-4.394h-.523c-.215 2.723-.621 3.871-3.465 3.871h-2.891zm10.402 0c.215-.262.215-.309.215-.407 0-.261-.168-.261-.574-.261h-7.504l-.262 3.796h.524c.144-2.437.597-3.32 3.203-3.32h2.773l-6.836 9.391c0 .429.047.429.575.429h7.789l.382-4.394h-.527c-.215 2.723-.621 3.871-3.465 3.871h-2.89zm10.516 3.25c0-1.29 0-2.247-1.051-3.18-.836-.762-1.91-1.098-2.961-1.098-1.961 0-3.465 1.289-3.465 2.844 0 .691.453 1.027 1.004 1.027.574 0 .981-.406.981-.98 0-.981-.864-.981-1.219-.981.547-1.004 1.695-1.433 2.648-1.433 1.102 0 2.512.91 2.512 3.058v.957c-4.805.071-6.617 2.078-6.617 3.918 0 1.891 2.195 2.489 3.652 2.489 1.578 0 2.657-.957 3.11-2.106.093 1.125.836 1.985 1.863 1.985.5 0 1.887-.336 1.887-2.247v-1.339h-.524v1.339c0 1.364-.574 1.555-.91 1.555-.91 0-.91-1.269-.91-1.625zm-1.551 3.011c0 2.34-1.742 3.129-2.773 3.129-1.168 0-2.149-.859-2.149-2.008 0-3.152 4.063-3.441 4.922-3.488zm18.996-12.953v.695c1.625 0 1.821.164 1.821 1.336v5.282c-.504-.692-1.532-1.532-2.989-1.532-2.773 0-5.164 2.344-5.164 5.403 0 3.035 2.27 5.379 4.903 5.379 1.816 0 2.867-1.196 3.199-1.649v1.649l3.371-.243v-.691c-1.625 0-1.817-.168-1.817-1.34v-14.551zm1.77 13.527c0 .43 0 .5-.332 1.028-.575.836-1.555 1.527-2.75 1.527-.621 0-3.203-.238-3.203-4.875 0-1.719.289-2.676.812-3.465.477-.742 1.434-1.48 2.629-1.48 1.48 0 2.316 1.074 2.559 1.457.285.406.285.457.285.883zm13.215-2.75c.527 0 .574 0 .574-.453 0-2.414-1.289-4.66-4.184-4.66-2.722 0-4.824 2.461-4.824 5.426 0 3.152 2.437 5.473 5.09 5.473 2.844 0 3.918-2.582 3.918-3.086 0-.145-.121-.239-.262-.239-.191 0-.242.121-.285.239-.625 2.007-2.223 2.558-3.231 2.558-1 0-3.414-.668-3.414-4.804v-.454zm-6.594-.453c.191-3.754 2.293-4.183 2.961-4.183 2.558 0 2.703 3.371 2.726 4.183zm11.953-10.586-3.32.262v.695c1.625 0 1.812.164 1.812 1.336v12.524c0 1.074-.262 1.074-1.812 1.074v.691c.668-.046 1.836-.046 2.554-.046.719 0 1.914 0 2.582.046v-.691c-1.531 0-1.816 0-1.816-1.074zm6.5 0-3.32.262v.695c1.625 0 1.812.164 1.812 1.336v12.524c0 1.074-.262 1.074-1.812 1.074v.691c.668-.046 1.836-.046 2.554-.046.719 0 1.914 0 2.582.046v-.691c-1.531 0-1.816 0-1.816-1.074zm11.613 10.204c0-1.29 0-2.247-1.051-3.18-.835-.762-1.914-1.098-2.964-1.098-1.957 0-3.465 1.289-3.465 2.844 0 .691.453 1.027 1.004 1.027.574 0 .98-.406.98-.98 0-.981-.859-.981-1.219-.981.551-1.004 1.696-1.433 2.653-1.433 1.097 0 2.508.91 2.508 3.058v.957c-4.801.071-6.618 2.078-6.618 3.918 0 1.891 2.2 2.489 3.657 2.489 1.574 0 2.652-.957 3.105-2.106.094 1.125.836 1.985 1.863 1.985.504 0 1.887-.336 1.887-2.247v-1.339h-.523v1.339c0 1.364-.575 1.555-.907 1.555-.91 0-.91-1.269-.91-1.625zm-1.554 3.011c0 2.34-1.743 3.129-2.774 3.129-1.168 0-2.148-.859-2.148-2.008 0-3.152 4.062-3.441 4.922-3.488zm17.683 7.313c-1.527 0-1.812 0-1.812-1.078v-4.157c.429.598 1.406 1.532 2.937 1.532 2.75 0 5.16-2.321 5.16-5.403 0-3.035-2.246-5.379-4.847-5.379-2.106 0-3.227 1.508-3.301 1.602v-1.602l-3.32.266v.691c1.671 0 1.816.168 1.816 1.219v11.231c0 1.078-.266 1.078-1.816 1.078v.691c.621-.047 1.91-.047 2.582-.047.691 0 1.98 0 2.601.047zm-1.812-11.567c0-.453 0-.48.261-.859a3.44 3.44 0 0 1 2.793-1.531c1.793 0 3.227 2.175 3.227 4.851 0 2.844-1.625 4.922-3.465 4.922a2.8 2.8 0 0 1-1.91-.762c-.551-.55-.906-1.031-.906-1.699zm13.117-7.097c0-.621-.5-1.172-1.168-1.172-.625 0-1.149.504-1.149 1.148 0 .715.575 1.172 1.149 1.172.738 0 1.168-.625 1.168-1.148m-3.297 4.445v.691c1.527 0 1.742.145 1.742 1.317v6.5c0 1.074-.262 1.074-1.812 1.074v.691c.668-.046 1.812-.046 2.507-.046.262 0 1.649 0 2.461.046v-.691c-1.554 0-1.648-.121-1.648-1.051v-8.797zm9.75-6.309-3.32.262v.695c1.625 0 1.812.164 1.812 1.336v12.524c0 1.074-.262 1.074-1.812 1.074v.691c.668-.046 1.836-.046 2.554-.046.719 0 1.914 0 2.582.046v-.691c-1.531 0-1.816 0-1.816-1.074zm11.613 10.204c0-1.29 0-2.247-1.051-3.18-.835-.762-1.914-1.098-2.964-1.098-1.957 0-3.465 1.289-3.465 2.844 0 .691.453 1.027 1.004 1.027.574 0 .98-.406.98-.98 0-.981-.859-.981-1.219-.981.551-1.004 1.696-1.433 2.653-1.433 1.097 0 2.508.91 2.508 3.058v.957c-4.801.071-6.618 2.078-6.618 3.918 0 1.891 2.2 2.489 3.657 2.489 1.574 0 2.652-.957 3.105-2.106.094 1.125.836 1.985 1.863 1.985.504 0 1.887-.336 1.887-2.247v-1.339h-.523v1.339c0 1.364-.575 1.555-.907 1.555-.91 0-.91-1.269-.91-1.625zm-1.554 3.011c0 2.34-1.743 3.129-2.774 3.129-1.168 0-2.148-.859-2.148-2.008 0-3.152 4.062-3.441 4.922-3.488zm41.386 7.313c-1.531 0-1.816 0-1.816-1.078v-4.157c.43.598 1.406 1.532 2.937 1.532 2.75 0 5.161-2.321 5.161-5.403 0-3.035-2.243-5.379-4.848-5.379-2.106 0-3.227 1.508-3.301 1.602v-1.602l-3.32.266v.691c1.672 0 1.816.168 1.816 1.219v11.231c0 1.078-.262 1.078-1.816 1.078v.691c.621-.047 1.914-.047 2.582-.047.691 0 1.98 0 2.605.047zm-1.816-11.567c0-.453 0-.48.262-.859.718-1.078 1.886-1.531 2.796-1.531 1.79 0 3.223 2.175 3.223 4.851 0 2.844-1.625 4.922-3.465 4.922a2.82 2.82 0 0 1-1.91-.762c-.551-.55-.906-1.031-.906-1.699zm20.629 2.508c0-3.082-2.34-5.543-5.114-5.543-2.867 0-5.136 2.531-5.136 5.543 0 3.059 2.386 5.356 5.113 5.356 2.816 0 5.137-2.344 5.137-5.356m-5.114 4.828c-.886 0-1.96-.383-2.652-1.554-.648-1.075-.672-2.485-.672-3.489 0-.91 0-2.367.742-3.441a3.06 3.06 0 0 1 2.559-1.41c.93 0 1.934.429 2.578 1.363.742 1.098.742 2.605.742 3.488 0 .836 0 2.321-.621 3.442-.668 1.148-1.769 1.601-2.676 1.601m13.684-9.82c0-.434 0-.551-.242-.551-.188 0-.641.524-.813.742-.738-.597-1.48-.742-2.242-.742-2.894 0-3.754 1.578-3.754 2.891 0 .265 0 1.101.91 1.937.762.668 1.575.836 2.676 1.051 1.313.262 1.625.332 2.223.813.43.359.738.882.738 1.55 0 1.032-.597 2.176-2.699 2.176-1.578 0-2.723-.906-3.25-3.297-.094-.429-.094-.453-.117-.476-.051-.098-.145-.098-.215-.098-.266 0-.266.121-.266.551v3.25c0 .43 0 .551.239.551.121 0 .144-.024.55-.528.121-.168.121-.215.477-.597.91 1.125 2.199 1.125 2.605 1.125 2.508 0 3.75-1.387 3.75-3.274 0-1.293-.785-2.058-1-2.273-.863-.739-1.507-.883-3.086-1.172-.714-.141-2.46-.477-2.46-1.91 0-.739.503-1.84 2.656-1.84 2.601 0 2.746 2.223 2.793 2.965.023.191.191.191.261.191.266 0 .266-.121.266-.551zm5.52-4.613c0-.621-.504-1.172-1.172-1.172-.621 0-1.145.504-1.145 1.148 0 .715.571 1.172 1.145 1.172.742 0 1.172-.625 1.172-1.148m-3.297 4.445v.691c1.527 0 1.742.145 1.742 1.317v6.5c0 1.074-.262 1.074-1.816 1.074v.691c.671-.046 1.816-.046 2.511-.046.262 0 1.649 0 2.461.046v-.691c-1.555 0-1.648-.121-1.648-1.051v-8.797zm14.742.645c.215-.262.215-.309.215-.407 0-.261-.164-.261-.571-.261h-7.507l-.262 3.796h.527c.141-2.437.598-3.32 3.203-3.32h2.77l-6.832 9.391c0 .429.047.429.57.429h7.793l.379-4.394h-.523c-.215 2.723-.621 3.871-3.465 3.871h-2.891zm5.453-5.09c0-.621-.5-1.172-1.168-1.172-.625 0-1.148.504-1.148 1.148 0 .715.574 1.172 1.148 1.172.738 0 1.168-.625 1.168-1.148m-3.297 4.445v.691c1.528 0 1.746.145 1.746 1.317v6.5c0 1.074-.265 1.074-1.816 1.074v.691c.668-.046 1.816-.046 2.508-.046.261 0 1.648 0 2.461.046v-.691c-1.551 0-1.649-.121-1.649-1.051v-8.797zm16.61 5.16c0-3.082-2.344-5.543-5.114-5.543-2.867 0-5.14 2.531-5.14 5.543 0 3.059 2.39 5.356 5.117 5.356 2.816 0 5.137-2.344 5.137-5.356m-5.114 4.828c-.886 0-1.961-.383-2.652-1.554-.649-1.075-.672-2.485-.672-3.489 0-.91 0-2.367.742-3.441a3.06 3.06 0 0 1 2.559-1.41c.93 0 1.933.429 2.578 1.363.742 1.098.742 2.605.742 3.488 0 .836 0 2.321-.621 3.442-.668 1.148-1.769 1.601-2.676 1.601m16.477-5.519c0-2.223 0-2.891-.547-3.657-.695-.933-1.816-1.078-2.629-1.078-2.32 0-3.227 1.985-3.418 2.465h-.023v-2.465l-3.25.266v.691c1.625 0 1.816.168 1.816 1.34v6.477c0 1.074-.262 1.074-1.816 1.074v.691c.621-.046 1.91-.046 2.578-.046.695 0 1.984 0 2.605.046v-.691c-1.527 0-1.816 0-1.816-1.074v-4.446c0-2.507 1.648-3.847 3.133-3.847 1.48 0 1.816 1.219 1.816 2.676v5.617c0 1.074-.266 1.074-1.816 1.074v.691c.621-.046 1.91-.046 2.578-.046.695 0 1.984 0 2.605.046v-.691c-1.195 0-1.793 0-1.816-.715zm11.519.261c.528 0 .575 0 .575-.453 0-2.414-1.289-4.66-4.184-4.66-2.723 0-4.824 2.461-4.824 5.426 0 3.152 2.437 5.473 5.086 5.473 2.843 0 3.922-2.582 3.922-3.086 0-.145-.122-.239-.262-.239-.192 0-.242.121-.289.239-.621 2.007-2.223 2.558-3.227 2.558s-3.418-.668-3.418-4.804v-.454zm-6.597-.453c.191-3.754 2.297-4.183 2.965-4.183 2.558 0 2.699 3.371 2.722 4.183zm40.379.477h6.597c.332 0 .766 0 .766-.43 0-.453-.406-.453-.766-.453h-6.597v-6.598c0-.332 0-.761-.43-.761-.453 0-.453.406-.453.761v6.598h-6.598c-.332 0-.762 0-.762.43 0 .453.407.453.762.453h6.598v6.598c0 .332 0 .765.429.765.454 0 .454-.406.454-.765zm38.55-9.797c0-.551 0-.574-.48-.574-.574.648-1.77 1.527-4.231 1.527v.695c.551 0 1.747 0 3.059-.621v12.45c0 .863-.07 1.148-2.172 1.148h-.742v.691c.645-.046 2.965-.046 3.754-.046.785 0 3.082 0 3.726.046v-.691h-.742c-2.101 0-2.172-.285-2.172-1.148zm61.95 9.512c0-2.223 0-2.891-.551-3.657-.692-.933-1.813-1.078-2.625-1.078-1.985 0-2.988 1.438-3.371 2.368-.336-1.84-1.625-2.368-3.129-2.368-2.32 0-3.227 1.985-3.418 2.465h-.027v-2.465l-3.25.266v.691c1.625 0 1.82.168 1.82 1.34v6.477c0 1.074-.266 1.074-1.82 1.074v.691c.625-.046 1.914-.046 2.582-.046.695 0 1.984 0 2.605.046v-.691c-1.531 0-1.816 0-1.816-1.074v-4.446c0-2.507 1.648-3.847 3.129-3.847 1.484 0 1.82 1.219 1.82 2.676v5.617c0 1.074-.266 1.074-1.82 1.074v.691c.625-.046 1.914-.046 2.582-.046.695 0 1.984 0 2.605.046v-.691c-1.531 0-1.816 0-1.816-1.074v-4.446c0-2.507 1.648-3.847 3.129-3.847 1.484 0 1.82 1.219 1.82 2.676v5.617c0 1.074-.266 1.074-1.82 1.074v.691c.625-.046 1.914-.046 2.582-.046.695 0 1.984 0 2.605.046v-.691c-1.195 0-1.793 0-1.816-.715zm6.625-8.914c0-.621-.504-1.172-1.172-1.172-.621 0-1.145.504-1.145 1.148 0 .715.571 1.172 1.145 1.172.742 0 1.172-.625 1.172-1.148m-3.297 4.445v.691c1.527 0 1.742.145 1.742 1.317v6.5c0 1.074-.262 1.074-1.816 1.074v.691c.671-.046 1.816-.046 2.511-.046.262 0 1.649 0 2.461.046v-.691c-1.555 0-1.648-.121-1.648-1.051v-8.797zm16.273 4.469c0-2.223 0-2.891-.551-3.657-.691-.933-1.816-1.078-2.629-1.078-2.316 0-3.226 1.985-3.417 2.465h-.024v-2.465l-3.25.266v.691c1.625 0 1.816.168 1.816 1.34v6.477c0 1.074-.261 1.074-1.816 1.074v.691c.621-.046 1.914-.046 2.582-.046.692 0 1.984 0 2.606.046v-.691c-1.532 0-1.817 0-1.817-1.074v-4.446c0-2.507 1.649-3.847 3.129-3.847 1.484 0 1.816 1.219 1.816 2.676v5.617c0 1.074-.261 1.074-1.816 1.074v.691c.621-.046 1.914-.046 2.582-.046.692 0 1.981 0 2.606.046v-.691c-1.196 0-1.793 0-1.817-.715zm13.332.691c0-3.082-2.34-5.543-5.113-5.543-2.867 0-5.137 2.531-5.137 5.543 0 3.059 2.391 5.356 5.113 5.356 2.821 0 5.137-2.344 5.137-5.356m-5.113 4.828c-.883 0-1.957-.383-2.652-1.554-.645-1.075-.668-2.485-.668-3.489 0-.91 0-2.367.738-3.441a3.07 3.07 0 0 1 2.558-1.41c.934 0 1.938.429 2.583 1.363.742 1.098.742 2.605.742 3.488 0 .836 0 2.321-.625 3.442-.668 1.148-1.766 1.601-2.676 1.601m9.836-5.281c0-2.316.957-4.492 2.797-4.492.191 0 .238 0 .336.023-.192.098-.575.239-.575.883 0 .695.547.957.93.957.481 0 .957-.312.957-.957 0-.715-.644-1.387-1.672-1.387-2.031 0-2.722 2.2-2.867 2.657h-.023v-2.657l-3.203.266v.691c1.625 0 1.816.168 1.816 1.34v6.477c0 1.074-.266 1.074-1.816 1.074v.691c.668-.046 1.984-.046 2.699-.046.644 0 2.344 0 2.89.046v-.691h-.476c-1.742 0-1.793-.262-1.793-1.121zm14.262.023c.527 0 .574 0 .574-.453 0-2.414-1.289-4.66-4.184-4.66-2.722 0-4.824 2.461-4.824 5.426 0 3.152 2.437 5.473 5.09 5.473 2.844 0 3.918-2.582 3.918-3.086 0-.145-.121-.239-.262-.239-.191 0-.242.121-.285.239-.625 2.007-2.223 2.558-3.231 2.558-1 0-3.414-.668-3.414-4.804v-.454zm-6.594-.453c.191-3.754 2.293-4.183 2.961-4.183 2.558 0 2.703 3.371 2.726 4.183zm22.812-10.324v.695c1.625 0 1.817.164 1.817 1.336v5.282c-.504-.692-1.532-1.532-2.989-1.532-2.769 0-5.164 2.344-5.164 5.403 0 3.035 2.274 5.379 4.903 5.379 1.816 0 2.867-1.196 3.203-1.649v1.649l3.367-.243v-.691c-1.625 0-1.816-.168-1.816-1.34v-14.551zm1.77 13.527c0 .43 0 .5-.336 1.028-.574.836-1.555 1.527-2.75 1.527-.621 0-3.199-.238-3.199-4.875 0-1.719.285-2.676.812-3.465.477-.742 1.43-1.48 2.625-1.48 1.485 0 2.321 1.074 2.559 1.457.289.406.289.457.289.883zm8.219-11.925c0-.621-.504-1.172-1.172-1.172-.621 0-1.145.504-1.145 1.148 0 .715.571 1.172 1.145 1.172.742 0 1.172-.625 1.172-1.148m-3.297 4.445v.691c1.527 0 1.742.145 1.742 1.317v6.5c0 1.074-.262 1.074-1.816 1.074v.691c.671-.046 1.816-.046 2.511-.046.262 0 1.649 0 2.461.046v-.691c-1.555 0-1.648-.121-1.648-1.051v-8.797zm37.859 3.895c0-1.29 0-2.247-1.047-3.18-.84-.762-1.914-1.098-2.965-1.098-1.961 0-3.464 1.289-3.464 2.844 0 .691.453 1.027 1.003 1.027.575 0 .981-.406.981-.98 0-.981-.863-.981-1.219-.981.551-1.004 1.695-1.433 2.653-1.433 1.097 0 2.507.91 2.507 3.058v.957c-4.804.071-6.617 2.078-6.617 3.918 0 1.891 2.195 2.489 3.656 2.489 1.575 0 2.653-.957 3.106-2.106.094 1.125.836 1.985 1.863 1.985.5 0 1.887-.336 1.887-2.247v-1.339h-.524v1.339c0 1.364-.574 1.555-.91 1.555-.91 0-.91-1.269-.91-1.625zm-1.551 3.011c0 2.34-1.742 3.129-2.773 3.129-1.168 0-2.149-.859-2.149-2.008 0-3.152 4.063-3.441 4.922-3.488zm8.141-13.215-3.32.262v.695c1.625 0 1.812.164 1.812 1.336v12.524c0 1.074-.262 1.074-1.812 1.074v.691c.668-.046 1.836-.046 2.554-.046.719 0 1.914 0 2.582.046v-.691c-1.531 0-1.816 0-1.816-1.074zm6.402 6.977h3.371v-.691h-3.371v-4.399h-.523c-.024 2.246-.887 4.539-3.059 4.613v.477h2.032v6.644c0 2.653 1.765 3.204 3.035 3.204 1.504 0 2.293-1.485 2.293-3.204v-1.363h-.528v1.317c0 1.718-.691 2.722-1.625 2.722-1.625 0-1.625-2.222-1.625-2.629zm14.239 4.062c.527 0 .574 0 .574-.453 0-2.414-1.289-4.66-4.184-4.66-2.722 0-4.824 2.461-4.824 5.426 0 3.152 2.437 5.473 5.09 5.473 2.844 0 3.918-2.582 3.918-3.086 0-.145-.121-.239-.262-.239-.191 0-.242.121-.285.239-.625 2.007-2.223 2.558-3.231 2.558-1 0-3.414-.668-3.414-4.804v-.454zm-6.594-.453c.191-3.754 2.293-4.183 2.961-4.183 2.558 0 2.703 3.371 2.726 4.183zm16.945-3.632c.219-.262.219-.309.219-.407 0-.261-.168-.261-.574-.261h-7.504l-.266 3.796h.527c.141-2.437.598-3.32 3.204-3.32h2.769l-6.832 9.391c0 .429.047.429.574.429h7.789l.383-4.394h-.527c-.215 2.723-.621 3.871-3.465 3.871h-2.891zm10.402 0c.215-.262.215-.309.215-.407 0-.261-.168-.261-.574-.261h-7.504l-.262 3.796h.528c.14-2.437.594-3.32 3.199-3.32h2.773l-6.835 9.391c0 .429.05.429.574.429h7.789l.383-4.394h-.524c-.219 2.723-.625 3.871-3.469 3.871h-2.89zm10.516 3.25c0-1.29 0-2.247-1.047-3.18-.84-.762-1.914-1.098-2.965-1.098-1.961 0-3.464 1.289-3.464 2.844 0 .691.453 1.027 1.003 1.027.575 0 .981-.406.981-.98 0-.981-.863-.981-1.219-.981.551-1.004 1.695-1.433 2.653-1.433 1.097 0 2.507.91 2.507 3.058v.957c-4.804.071-6.617 2.078-6.617 3.918 0 1.891 2.195 2.489 3.656 2.489 1.575 0 2.653-.957 3.106-2.106.094 1.125.836 1.985 1.863 1.985.5 0 1.887-.336 1.887-2.247v-1.339h-.524v1.339c0 1.364-.574 1.555-.91 1.555-.91 0-.91-1.269-.91-1.625zm-1.551 3.011c0 2.34-1.742 3.129-2.773 3.129-1.168 0-2.149-.859-2.149-2.008 0-3.152 4.063-3.441 4.922-3.488zm19-12.953v.695c1.625 0 1.817.164 1.817 1.336v5.282c-.504-.692-1.532-1.532-2.989-1.532-2.769 0-5.164 2.344-5.164 5.403 0 3.035 2.274 5.379 4.903 5.379 1.816 0 2.867-1.196 3.203-1.649v1.649l3.367-.243v-.691c-1.625 0-1.816-.168-1.816-1.34v-14.551zm1.77 13.527c0 .43 0 .5-.336 1.028-.574.836-1.555 1.527-2.75 1.527-.621 0-3.199-.238-3.199-4.875 0-1.719.285-2.676.812-3.465.477-.742 1.43-1.48 2.625-1.48 1.485 0 2.321 1.074 2.559 1.457.289.406.289.457.289.883zm13.215-2.75c.523 0 .574 0 .574-.453 0-2.414-1.293-4.66-4.184-4.66-2.726 0-4.828 2.461-4.828 5.426 0 3.152 2.438 5.473 5.09 5.473 2.844 0 3.922-2.582 3.922-3.086 0-.145-.121-.239-.266-.239-.191 0-.242.121-.285.239-.625 2.007-2.223 2.558-3.226 2.558s-3.418-.668-3.418-4.804v-.454zm-6.598-.453c.191-3.754 2.297-4.183 2.965-4.183 2.555 0 2.699 3.371 2.723 4.183zm11.953-10.586-3.32.262v.695c1.625 0 1.816.164 1.816 1.336v12.524c0 1.074-.265 1.074-1.816 1.074v.691c.668-.046 1.84-.046 2.555-.046.718 0 1.914 0 2.582.046v-.691c-1.532 0-1.817 0-1.817-1.074zm6.5 0-3.32.262v.695c1.625 0 1.816.164 1.816 1.336v12.524c0 1.074-.265 1.074-1.816 1.074v.691c.668-.046 1.84-.046 2.555-.046.718 0 1.914 0 2.582.046v-.691c-1.532 0-1.817 0-1.817-1.074zm11.613 10.204c0-1.29 0-2.247-1.05-3.18-.836-.762-1.91-1.098-2.965-1.098-1.957 0-3.465 1.289-3.465 2.844 0 .691.453 1.027 1.004 1.027.574 0 .98-.406.98-.98 0-.981-.859-.981-1.218-.981.55-1.004 1.699-1.433 2.652-1.433 1.102 0 2.508.91 2.508 3.058v.957c-4.801.071-6.617 2.078-6.617 3.918 0 1.891 2.199 2.489 3.656 2.489 1.578 0 2.652-.957 3.105-2.106.098 1.125.836 1.985 1.864 1.985.503 0 1.89-.336 1.89-2.247v-1.339h-.527v1.339c0 1.364-.574 1.555-.906 1.555-.911 0-.911-1.269-.911-1.625zm-1.554 3.011c0 2.34-1.742 3.129-2.77 3.129-1.172 0-2.152-.859-2.152-2.008 0-3.152 4.062-3.441 4.922-3.488zm17.785 7.313c-1.527 0-1.816 0-1.816-1.078v-4.157c.429.598 1.41 1.532 2.941 1.532 2.75 0 5.16-2.321 5.16-5.403 0-3.035-2.246-5.379-4.851-5.379-2.102 0-3.223 1.508-3.297 1.602v-1.602l-3.321.266v.691c1.672 0 1.817.168 1.817 1.219v11.231c0 1.078-.266 1.078-1.817 1.078v.691c.621-.047 1.91-.047 2.578-.047.696 0 1.985 0 2.606.047zm-1.816-11.567c0-.453 0-.48.265-.859a3.44 3.44 0 0 1 2.793-1.531c1.793 0 3.227 2.175 3.227 4.851 0 2.844-1.625 4.922-3.465 4.922a2.8 2.8 0 0 1-1.91-.762c-.551-.55-.91-1.031-.91-1.699zm13.019-7.097c0-.621-.5-1.172-1.168-1.172a1.15 1.15 0 0 0-1.148 1.148c0 .715.574 1.172 1.148 1.172.738 0 1.168-.625 1.168-1.148m-3.297 4.445v.691c1.528 0 1.746.145 1.746 1.317v6.5c0 1.074-.265 1.074-1.816 1.074v.691c.668-.046 1.816-.046 2.508-.046.261 0 1.648 0 2.461.046v-.691c-1.551 0-1.649-.121-1.649-1.051v-8.797zm9.75-6.309-3.32.262v.695c1.625 0 1.816.164 1.816 1.336v12.524c0 1.074-.265 1.074-1.816 1.074v.691c.668-.046 1.84-.046 2.555-.046.718 0 1.914 0 2.582.046v-.691c-1.532 0-1.817 0-1.817-1.074zm11.613 10.204c0-1.29 0-2.247-1.05-3.18-.836-.762-1.91-1.098-2.965-1.098-1.957 0-3.465 1.289-3.465 2.844 0 .691.453 1.027 1.004 1.027.574 0 .98-.406.98-.98 0-.981-.859-.981-1.218-.981.55-1.004 1.699-1.433 2.652-1.433 1.102 0 2.508.91 2.508 3.058v.957c-4.801.071-6.617 2.078-6.617 3.918 0 1.891 2.199 2.489 3.656 2.489 1.578 0 2.652-.957 3.105-2.106.098 1.125.836 1.985 1.864 1.985.503 0 1.89-.336 1.89-2.247v-1.339h-.527v1.339c0 1.364-.574 1.555-.906 1.555-.911 0-.911-1.269-.911-1.625zm-1.554 3.011c0 2.34-1.742 3.129-2.77 3.129-1.172 0-2.152-.859-2.152-2.008 0-3.152 4.062-3.441 4.922-3.488zm32.984 7.313c-1.527 0-1.812 0-1.812-1.078v-4.157c.429.598 1.406 1.532 2.937 1.532 2.75 0 5.16-2.321 5.16-5.403 0-3.035-2.246-5.379-4.847-5.379-2.106 0-3.227 1.508-3.301 1.602v-1.602l-3.32.266v.691c1.671 0 1.816.168 1.816 1.219v11.231c0 1.078-.266 1.078-1.816 1.078v.691c.621-.047 1.91-.047 2.582-.047.691 0 1.98 0 2.601.047zm-1.812-11.567c0-.453 0-.48.261-.859a3.44 3.44 0 0 1 2.793-1.531c1.793 0 3.227 2.175 3.227 4.851 0 2.844-1.625 4.922-3.465 4.922a2.8 2.8 0 0 1-1.91-.762c-.551-.55-.906-1.031-.906-1.699zm20.527 2.508c0-3.082-2.34-5.543-5.113-5.543-2.867 0-5.137 2.531-5.137 5.543 0 3.059 2.387 5.356 5.113 5.356 2.821 0 5.137-2.344 5.137-5.356m-5.113 4.828c-.883 0-1.961-.383-2.653-1.554-.644-1.075-.668-2.485-.668-3.489 0-.91 0-2.367.739-3.441a3.06 3.06 0 0 1 2.558-1.41c.934 0 1.938.429 2.578 1.363.743 1.098.743 2.605.743 3.488 0 .836 0 2.321-.622 3.442-.667 1.148-1.765 1.601-2.675 1.601m13.683-9.82c0-.434 0-.551-.238-.551-.191 0-.645.524-.812.742-.743-.597-1.485-.742-2.247-.742-2.894 0-3.753 1.578-3.753 2.891 0 .265 0 1.101.91 1.937.761.668 1.574.836 2.675 1.051 1.317.262 1.625.332 2.223.813.43.359.738.882.738 1.55 0 1.032-.593 2.176-2.699 2.176-1.574 0-2.722-.906-3.25-3.297-.094-.429-.094-.453-.117-.476-.051-.098-.145-.098-.215-.098-.265 0-.265.121-.265.551v3.25c0 .43 0 .551.242.551.117 0 .14-.024.547-.528.121-.168.121-.215.476-.597.91 1.125 2.199 1.125 2.606 1.125 2.511 0 3.754-1.387 3.754-3.274 0-1.293-.79-2.058-1.004-2.273-.86-.739-1.504-.883-3.082-1.172-.719-.141-2.461-.477-2.461-1.91 0-.739.5-1.84 2.652-1.84 2.605 0 2.746 2.223 2.797 2.965.019.191.187.191.262.191.261 0 .261-.121.261-.551zm5.621-4.613c0-.621-.504-1.172-1.171-1.172-.622 0-1.145.504-1.145 1.148 0 .715.57 1.172 1.145 1.172.742 0 1.171-.625 1.171-1.148m-3.296 4.445v.691c1.527 0 1.742.145 1.742 1.317v6.5c0 1.074-.262 1.074-1.817 1.074v.691c.668-.046 1.817-.046 2.512-.046.262 0 1.648 0 2.461.046v-.691c-1.555 0-1.648-.121-1.648-1.051v-8.797zm14.742.645c.215-.262.215-.309.215-.407 0-.261-.168-.261-.575-.261h-7.504l-.261 3.796h.527c.141-2.437.598-3.32 3.199-3.32h2.774l-6.836 9.391c0 .429.051.429.574.429h7.793l.379-4.394h-.524c-.214 2.723-.621 3.871-3.464 3.871h-2.891zm5.453-5.09c0-.621-.5-1.172-1.168-1.172-.625 0-1.149.504-1.149 1.148 0 .715.575 1.172 1.149 1.172.738 0 1.168-.625 1.168-1.148m-3.297 4.445v.691c1.527 0 1.742.145 1.742 1.317v6.5c0 1.074-.262 1.074-1.812 1.074v.691c.668-.046 1.812-.046 2.507-.046.262 0 1.649 0 2.461.046v-.691c-1.554 0-1.648-.121-1.648-1.051v-8.797zm16.609 5.16c0-3.082-2.343-5.543-5.117-5.543-2.863 0-5.137 2.531-5.137 5.543 0 3.059 2.391 5.356 5.114 5.356 2.82 0 5.14-2.344 5.14-5.356m-5.117 4.828c-.883 0-1.957-.383-2.652-1.554-.645-1.075-.668-2.485-.668-3.489 0-.91 0-2.367.742-3.441a3.06 3.06 0 0 1 2.555-1.41c.933 0 1.937.429 2.582 1.363.742 1.098.742 2.605.742 3.488 0 .836 0 2.321-.621 3.442-.668 1.148-1.77 1.601-2.68 1.601m16.481-5.519c0-2.223 0-2.891-.551-3.657-.692-.933-1.813-1.078-2.625-1.078-2.32 0-3.227 1.985-3.418 2.465h-.027v-2.465l-3.25.266v.691c1.625 0 1.82.168 1.82 1.34v6.477c0 1.074-.266 1.074-1.82 1.074v.691c.625-.046 1.914-.046 2.582-.046.695 0 1.984 0 2.605.046v-.691c-1.531 0-1.816 0-1.816-1.074v-4.446c0-2.507 1.648-3.847 3.129-3.847 1.484 0 1.82 1.219 1.82 2.676v5.617c0 1.074-.266 1.074-1.82 1.074v.691c.625-.046 1.914-.046 2.582-.046.695 0 1.984 0 2.605.046v-.691c-1.195 0-1.793 0-1.816-.715zm11.519.261c.524 0 .574 0 .574-.453 0-2.414-1.293-4.66-4.183-4.66-2.723 0-4.828 2.461-4.828 5.426 0 3.152 2.437 5.473 5.089 5.473 2.844 0 3.922-2.582 3.922-3.086 0-.145-.121-.239-.265-.239-.192 0-.239.121-.285.239-.622 2.007-2.223 2.558-3.227 2.558s-3.418-.668-3.418-4.804v-.454zm-6.598-.453c.192-3.754 2.297-4.183 2.965-4.183 2.559 0 2.7 3.371 2.723 4.183zM16.992-511.469c0-2.316.953-4.492 2.793-4.492.192 0 .238 0 .336.023-.191.098-.574.243-.574.883 0 .696.55.957.933.957.477 0 .957-.308.957-.957 0-.715-.648-1.383-1.675-1.383-2.032 0-2.723 2.196-2.867 2.653h-.024v-2.653l-3.203.262v.692c1.625 0 1.816.168 1.816 1.339v6.477c0 1.074-.261 1.074-1.816 1.074v.696c.668-.051 1.984-.051 2.7-.051.648 0 2.343 0 2.894.051v-.696h-.48c-1.743 0-1.79-.261-1.79-1.121zm9.266-9.152c0-.621-.5-1.172-1.172-1.172-.621 0-1.145.504-1.145 1.148 0 .715.575 1.172 1.145 1.172.742 0 1.172-.621 1.172-1.148m-3.297 4.445v.692c1.527 0 1.742.144 1.742 1.316v6.5c0 1.074-.262 1.074-1.812 1.074v.696c.668-.051 1.812-.051 2.507-.051.262 0 1.649 0 2.461.051v-.696c-1.554 0-1.648-.121-1.648-1.051v-8.793zm11.492 14.219c-1.527 0-1.812 0-1.812-1.074v-4.16c.43.597 1.406 1.531 2.937 1.531 2.75 0 5.16-2.32 5.16-5.403 0-3.035-2.246-5.375-4.847-5.375-2.106 0-3.227 1.504-3.301 1.598v-1.598l-3.32.262v.692c1.671 0 1.816.168 1.816 1.218v11.235c0 1.074-.266 1.074-1.816 1.074v.691c.62-.047 1.91-.047 2.582-.047.691 0 1.98 0 2.601.047zm-1.812-11.566c0-.454 0-.481.261-.86a3.44 3.44 0 0 1 2.793-1.531c1.793 0 3.227 2.176 3.227 4.851 0 2.844-1.625 4.922-3.465 4.922a2.82 2.82 0 0 1-1.91-.761c-.55-.551-.906-1.028-.906-1.7zm18.812 2.078c.524 0 .574 0 .574-.453 0-2.415-1.293-4.661-4.183-4.661-2.723 0-4.828 2.461-4.828 5.426 0 3.153 2.437 5.473 5.09 5.473 2.843 0 3.921-2.582 3.921-3.082 0-.145-.12-.242-.265-.242-.192 0-.239.121-.285.242-.621 2.008-2.223 2.554-3.227 2.554s-3.418-.667-3.418-4.804v-.453zm-6.598-.453c.192-3.75 2.297-4.18 2.965-4.18 2.555 0 2.7 3.367 2.723 4.18zm11.86-3.61h3.37v-.691h-3.37v-4.399h-.528c-.023 2.246-.882 4.543-3.058 4.614v.476h2.031v6.645c0 2.652 1.77 3.203 3.035 3.203 1.508 0 2.297-1.481 2.297-3.203v-1.364h-.527v1.317c0 1.719-.692 2.722-1.625 2.722-1.625 0-1.625-2.222-1.625-2.628zm9.242-5.113c0-.621-.5-1.172-1.168-1.172-.625 0-1.148.504-1.148 1.148 0 .715.574 1.172 1.148 1.172.738 0 1.168-.621 1.168-1.148m-3.297 4.445v.692c1.528 0 1.746.144 1.746 1.316v6.5c0 1.074-.265 1.074-1.816 1.074v.696c.668-.051 1.816-.051 2.508-.051.261 0 1.648 0 2.46.051v-.696c-1.55 0-1.648-.121-1.648-1.051v-8.793zm30.574 4.469c0-2.223 0-2.891-.55-3.656-.692-.934-1.817-1.075-2.63-1.075-1.984 0-2.984 1.434-3.367 2.364-.335-1.84-1.624-2.364-3.132-2.364-2.317 0-3.227 1.985-3.414 2.461h-.028v-2.461l-3.25.262v.692c1.625 0 1.817.168 1.817 1.339v6.477c0 1.074-.262 1.074-1.817 1.074v.696c.621-.051 1.914-.051 2.582-.051.696 0 1.985 0 2.606.051v-.696c-1.532 0-1.817 0-1.817-1.074v-4.445c0-2.508 1.649-3.848 3.13-3.848 1.484 0 1.816 1.219 1.816 2.676v5.617c0 1.074-.262 1.074-1.817 1.074v.696c.621-.051 1.914-.051 2.582-.051.696 0 1.985 0 2.606.051v-.696c-1.532 0-1.817 0-1.817-1.074v-4.445c0-2.508 1.649-3.848 3.13-3.848s1.816 1.219 1.816 2.676v5.617c0 1.074-.262 1.074-1.817 1.074v.696c.621-.051 1.914-.051 2.582-.051.696 0 1.985 0 2.606.051v-.696c-1.195 0-1.793 0-1.817-.715zm11.52.262c.523 0 .574 0 .574-.453 0-2.415-1.293-4.661-4.183-4.661-2.723 0-4.829 2.461-4.829 5.426 0 3.153 2.438 5.473 5.09 5.473 2.844 0 3.922-2.582 3.922-3.082 0-.145-.121-.242-.265-.242-.192 0-.239.121-.286.242-.621 2.008-2.222 2.554-3.226 2.554s-3.418-.667-3.418-4.804v-.453zm-6.598-.453c.192-3.75 2.297-4.18 2.965-4.18 2.555 0 2.699 3.367 2.723 4.18zm18.477.191c0-2.223 0-2.891-.547-3.656-.695-.934-1.816-1.075-2.629-1.075-2.32 0-3.227 1.985-3.418 2.461h-.023v-2.461l-3.25.262v.692c1.625 0 1.816.168 1.816 1.339v6.477c0 1.074-.262 1.074-1.816 1.074v.696c.621-.051 1.91-.051 2.578-.051.695 0 1.984 0 2.605.051v-.696c-1.527 0-1.816 0-1.816-1.074v-4.445c0-2.508 1.648-3.848 3.133-3.848 1.48 0 1.816 1.219 1.816 2.676v5.617c0 1.074-.266 1.074-1.816 1.074v.696c.621-.051 1.91-.051 2.578-.051.695 0 1.984 0 2.605.051v-.696c-1.195 0-1.793 0-1.816-.715zm5.68-3.801h3.371v-.691h-3.371v-4.399h-.524c-.023 2.246-.883 4.543-3.059 4.614v.476h2.032v6.645c0 2.652 1.769 3.203 3.035 3.203 1.504 0 2.293-1.481 2.293-3.203v-1.364h-.527v1.317c0 1.719-.692 2.722-1.625 2.722-1.625 0-1.625-2.222-1.625-2.628zm9.078 4.039c0-2.316.957-4.492 2.797-4.492.191 0 .238 0 .335.023-.195.098-.574.243-.574.883 0 .696.547.957.93.957.48 0 .957-.308.957-.957 0-.715-.645-1.383-1.672-1.383-2.031 0-2.726 2.196-2.867 2.653h-.024v-2.653l-3.203.262v.692c1.625 0 1.817.168 1.817 1.339v6.477c0 1.074-.266 1.074-1.817 1.074v.696c.668-.051 1.985-.051 2.7-.051.644 0 2.339 0 2.89.051v-.696h-.476c-1.746 0-1.793-.261-1.793-1.121zm14.363.024c.523 0 .574 0 .574-.453 0-2.415-1.293-4.661-4.183-4.661-2.723 0-4.829 2.461-4.829 5.426 0 3.153 2.438 5.473 5.09 5.473 2.844 0 3.922-2.582 3.922-3.082 0-.145-.121-.242-.265-.242-.192 0-.239.121-.286.242-.621 2.008-2.222 2.554-3.226 2.554s-3.418-.667-3.418-4.804v-.453zm-6.598-.453c.192-3.75 2.297-4.18 2.965-4.18 2.555 0 2.699 3.367 2.723 4.18zm45.199 9.941c-1.531 0-1.816 0-1.816-1.074v-4.16c.43.597 1.41 1.531 2.938 1.531 2.75 0 5.164-2.32 5.164-5.403 0-3.035-2.246-5.375-4.852-5.375-2.101 0-3.226 1.504-3.297 1.598v-1.598l-3.324.262v.692c1.676 0 1.816.168 1.816 1.218v11.235c0 1.074-.261 1.074-1.816 1.074v.691c.621-.047 1.914-.047 2.582-.047.691 0 1.984 0 2.605.047zm-1.816-11.566c0-.454 0-.481.262-.86.719-1.078 1.887-1.531 2.797-1.531 1.793 0 3.226 2.176 3.226 4.851 0 2.844-1.625 4.922-3.465 4.922a2.83 2.83 0 0 1-1.914-.761c-.547-.551-.906-1.028-.906-1.7zm20.531 2.507c0-3.082-2.343-5.543-5.117-5.543-2.863 0-5.137 2.536-5.137 5.543 0 3.063 2.391 5.356 5.114 5.356 2.82 0 5.14-2.344 5.14-5.356m-5.117 4.828c-.883 0-1.957-.382-2.652-1.554-.645-1.074-.668-2.485-.668-3.488 0-.907 0-2.364.738-3.442a3.08 3.08 0 0 1 2.559-1.406c.933 0 1.937.43 2.582 1.359.742 1.102.742 2.606.742 3.489 0 .839 0 2.32-.621 3.441-.668 1.148-1.77 1.601-2.68 1.601m13.684-9.82c0-.43 0-.551-.239-.551-.191 0-.644.528-.812.743-.742-.598-1.481-.743-2.246-.743-2.891 0-3.75 1.579-3.75 2.891 0 .266 0 1.102.906 1.938.766.667 1.578.835 2.676 1.05 1.316.262 1.625.336 2.223.813.429.359.742.883.742 1.554 0 1.028-.598 2.172-2.699 2.172-1.579 0-2.723-.906-3.25-3.297-.098-.429-.098-.453-.122-.476-.046-.098-.144-.098-.214-.098-.262 0-.262.121-.262.551v3.25c0 .43 0 .551.238.551.117 0 .141-.024.551-.528.117-.167.117-.214.476-.597.907 1.125 2.2 1.125 2.606 1.125 2.508 0 3.75-1.387 3.75-3.274 0-1.293-.789-2.058-1.004-2.269-.859-.742-1.504-.887-3.082-1.176-.719-.141-2.461-.476-2.461-1.91 0-.738.5-1.84 2.652-1.84 2.606 0 2.747 2.223 2.797 2.965.024.191.192.191.262.191.262 0 .262-.121.262-.55zm5.519-4.613c0-.621-.5-1.172-1.168-1.172a1.15 1.15 0 0 0-1.148 1.148c0 .715.574 1.172 1.148 1.172.739 0 1.168-.621 1.168-1.148m-3.297 4.445v.692c1.532 0 1.746.144 1.746 1.316v6.5c0 1.074-.261 1.074-1.816 1.074v.696c.668-.051 1.816-.051 2.508-.051.266 0 1.648 0 2.461.051v-.696c-1.551 0-1.649-.121-1.649-1.051v-8.793zm14.844.645c.219-.262.219-.309.219-.407 0-.261-.168-.261-.574-.261h-7.504l-.266 3.801h.527c.141-2.442.598-3.325 3.204-3.325h2.769l-6.832 9.395c0 .43.047.43.574.43h7.789l.383-4.399h-.527c-.215 2.723-.621 3.871-3.465 3.871h-2.891zm5.453-5.09c0-.621-.5-1.172-1.168-1.172a1.15 1.15 0 0 0-1.148 1.148c0 .715.574 1.172 1.148 1.172.739 0 1.168-.621 1.168-1.148m-3.297 4.445v.692c1.532 0 1.746.144 1.746 1.316v6.5c0 1.074-.261 1.074-1.816 1.074v.696c.668-.051 1.816-.051 2.508-.051.266 0 1.648 0 2.461.051v-.696c-1.551 0-1.649-.121-1.649-1.051v-8.793zm16.61 5.16c0-3.082-2.34-5.543-5.114-5.543-2.867 0-5.136 2.536-5.136 5.543 0 3.063 2.386 5.356 5.113 5.356 2.816 0 5.137-2.344 5.137-5.356m-5.114 4.828c-.886 0-1.96-.382-2.652-1.554-.648-1.074-.672-2.485-.672-3.488 0-.907 0-2.364.742-3.442a3.07 3.07 0 0 1 2.559-1.406c.93 0 1.934.43 2.578 1.359.742 1.102.742 2.606.742 3.489 0 .839 0 2.32-.621 3.441-.668 1.148-1.769 1.601-2.676 1.601m16.481-5.519c0-2.223 0-2.891-.551-3.656-.695-.934-1.816-1.075-2.629-1.075-2.316 0-3.226 1.985-3.418 2.461h-.023v-2.461l-3.25.262v.692c1.625 0 1.816.168 1.816 1.339v6.477c0 1.074-.261 1.074-1.816 1.074v.696c.621-.051 1.914-.051 2.582-.051.691 0 1.984 0 2.601.051v-.696c-1.527 0-1.812 0-1.812-1.074v-4.445c0-2.508 1.648-3.848 3.129-3.848 1.48 0 1.816 1.219 1.816 2.676v5.617c0 1.074-.265 1.074-1.816 1.074v.696c.621-.051 1.914-.051 2.582-.051.691 0 1.98 0 2.601.051v-.696c-1.195 0-1.789 0-1.812-.715zm11.516.262c.527 0 .574 0 .574-.453 0-2.415-1.289-4.661-4.184-4.661-2.722 0-4.824 2.461-4.824 5.426 0 3.153 2.437 5.473 5.09 5.473 2.844 0 3.918-2.582 3.918-3.082 0-.145-.121-.242-.262-.242-.191 0-.242.121-.285.242-.625 2.008-2.223 2.554-3.231 2.554-1 0-3.414-.667-3.414-4.804v-.453zm-6.594-.453c.191-3.75 2.293-4.18 2.961-4.18 2.558 0 2.703 3.367 2.726 4.18zm47.976.191c0-2.223 0-2.891-.55-3.656-.692-.934-1.817-1.075-2.629-1.075-1.985 0-2.985 1.434-3.367 2.364-.336-1.84-1.625-2.364-3.133-2.364-2.317 0-3.227 1.985-3.414 2.461h-.028v-2.461l-3.25.262v.692c1.625 0 1.817.168 1.817 1.339v6.477c0 1.074-.262 1.074-1.817 1.074v.696c.621-.051 1.914-.051 2.582-.051.696 0 1.985 0 2.606.051v-.696c-1.531 0-1.817 0-1.817-1.074v-4.445c0-2.508 1.649-3.848 3.129-3.848 1.485 0 1.817 1.219 1.817 2.676v5.617c0 1.074-.262 1.074-1.817 1.074v.696c.621-.051 1.914-.051 2.582-.051.696 0 1.985 0 2.606.051v-.696c-1.531 0-1.817 0-1.817-1.074v-4.445c0-2.508 1.649-3.848 3.129-3.848 1.481 0 1.817 1.219 1.817 2.676v5.617c0 1.074-.262 1.074-1.817 1.074v.696c.621-.051 1.914-.051 2.582-.051.696 0 1.985 0 2.606.051v-.696c-1.196 0-1.793 0-1.817-.715zm6.524-8.914c0-.621-.5-1.172-1.168-1.172-.625 0-1.149.504-1.149 1.148 0 .715.575 1.172 1.149 1.172.738 0 1.168-.621 1.168-1.148m-3.297 4.445v.692c1.527 0 1.742.144 1.742 1.316v6.5c0 1.074-.262 1.074-1.812 1.074v.696c.668-.051 1.812-.051 2.507-.051.262 0 1.649 0 2.461.051v-.696c-1.554 0-1.648-.121-1.648-1.051v-8.793zm16.273 4.469c0-2.223 0-2.891-.55-3.656-.692-.934-1.817-1.075-2.629-1.075-2.317 0-3.227 1.985-3.414 2.461h-.028v-2.461l-3.25.262v.692c1.625 0 1.817.168 1.817 1.339v6.477c0 1.074-.262 1.074-1.817 1.074v.696c.621-.051 1.914-.051 2.582-.051.696 0 1.985 0 2.606.051v-.696c-1.531 0-1.817 0-1.817-1.074v-4.445c0-2.508 1.649-3.848 3.129-3.848 1.485 0 1.817 1.219 1.817 2.676v5.617c0 1.074-.262 1.074-1.817 1.074v.696c.621-.051 1.914-.051 2.582-.051.696 0 1.985 0 2.606.051v-.696c-1.196 0-1.793 0-1.817-.715zm13.336.691c0-3.082-2.343-5.543-5.117-5.543-2.863 0-5.137 2.536-5.137 5.543 0 3.063 2.391 5.356 5.114 5.356 2.82 0 5.14-2.344 5.14-5.356m-5.117 4.828c-.883 0-1.957-.382-2.652-1.554-.645-1.074-.668-2.485-.668-3.488 0-.907 0-2.364.738-3.442a3.08 3.08 0 0 1 2.559-1.406c.933 0 1.937.43 2.582 1.359.742 1.102.742 2.606.742 3.489 0 .839 0 2.32-.621 3.441-.668 1.148-1.77 1.601-2.68 1.601m9.836-5.281c0-2.316.957-4.492 2.797-4.492.191 0 .238 0 .336.023-.192.098-.574.243-.574.883 0 .696.55.957.933.957.477 0 .953-.308.953-.957 0-.715-.644-1.383-1.671-1.383-2.032 0-2.723 2.196-2.868 2.653h-.023v-2.653l-3.203.262v.692c1.625 0 1.816.168 1.816 1.339v6.477c0 1.074-.262 1.074-1.816 1.074v.696c.668-.051 1.984-.051 2.699-.051.645 0 2.344 0 2.895.051v-.696h-.481c-1.742 0-1.793-.261-1.793-1.121zm14.266.024c.523 0 .574 0 .574-.453 0-2.415-1.293-4.661-4.184-4.661-2.726 0-4.828 2.461-4.828 5.426 0 3.153 2.438 5.473 5.09 5.473 2.844 0 3.922-2.582 3.922-3.082 0-.145-.121-.242-.266-.242-.191 0-.242.121-.285.242-.625 2.008-2.223 2.554-3.226 2.554s-3.418-.667-3.418-4.804v-.453zm-6.598-.453c.191-3.75 2.297-4.18 2.965-4.18 2.555 0 2.699 3.367 2.723 4.18zm22.813-10.325v.696c1.625 0 1.816.168 1.816 1.336v5.281c-.504-.692-1.531-1.528-2.988-1.528-2.77 0-5.16 2.34-5.16 5.399 0 3.035 2.269 5.379 4.898 5.379 1.816 0 2.867-1.195 3.203-1.649v1.649l3.367-.238v-.696c-1.625 0-1.816-.168-1.816-1.336v-14.554zm1.769 13.528c0 .429 0 .5-.336 1.027-.574.836-1.555 1.527-2.75 1.527-.621 0-3.199-.238-3.199-4.875 0-1.718.285-2.675.812-3.464.477-.739 1.43-1.481 2.629-1.481 1.481 0 2.317 1.074 2.555 1.457.289.406.289.457.289.887zm8.219-11.926c0-.621-.5-1.172-1.168-1.172-.625 0-1.149.504-1.149 1.148 0 .715.575 1.172 1.149 1.172.738 0 1.168-.621 1.168-1.148m-3.297 4.445v.692c1.527 0 1.742.144 1.742 1.316v6.5c0 1.074-.262 1.074-1.812 1.074v.696c.668-.051 1.812-.051 2.507-.051.262 0 1.649 0 2.461.051v-.696c-1.554 0-1.648-.121-1.648-1.051v-8.793zm37.387 3.321c0 5.64-2.508 6.812-3.946 6.812-.574 0-1.839-.074-2.437-.91h.144c.168.051 1.028-.094 1.028-.977 0-.527-.36-.98-.981-.98s-1.004.406-1.004 1.027c0 1.481 1.196 2.485 3.274 2.485 2.988 0 5.879-3.18 5.879-8.364 0-6.429-2.676-8.031-4.778-8.031-2.629 0-4.949 2.199-4.949 5.355 0 3.153 2.223 5.305 4.613 5.305 1.77 0 2.676-1.289 3.157-2.508zm-3.059 1.246c-1.508 0-2.152-1.219-2.367-1.676-.383-.906-.383-2.055-.383-3.129 0-1.34 0-2.484.621-3.465.43-.644 1.074-1.34 2.367-1.34 1.364 0 2.055 1.196 2.293 1.746.477 1.168.477 3.2.477 3.559 0 2.008-.906 4.305-3.008 4.305m41.906-3.446c0-.64-.547-1.144-1.144-1.144-.696 0-1.172.551-1.172 1.144 0 .719.598 1.172 1.148 1.172.645 0 1.168-.5 1.168-1.172m0 7.985c0-.645-.547-1.149-1.144-1.149-.696 0-1.172.551-1.172 1.149a1.17 1.17 0 0 0 1.148 1.172c.645 0 1.168-.504 1.168-1.172M17.156-617.32c0-.621-.5-1.172-1.168-1.172a1.15 1.15 0 0 0-1.148 1.148c0 .715.574 1.172 1.148 1.172.739 0 1.168-.625 1.168-1.148m-3.297 4.445v.691c1.532 0 1.746.145 1.746 1.317v6.5c0 1.074-.261 1.074-1.816 1.074v.691c.668-.046 1.816-.046 2.508-.046.265 0 1.648 0 2.46.046v-.691c-1.55 0-1.648-.121-1.648-1.051v-8.797zm22.774 4.469c0-2.223 0-2.891-.547-3.657-.695-.933-1.816-1.078-2.629-1.078-1.984 0-2.988 1.438-3.371 2.368-.336-1.84-1.625-2.368-3.129-2.368-2.32 0-3.227 1.985-3.418 2.465h-.023v-2.465l-3.25.266v.691c1.625 0 1.816.168 1.816 1.34v6.477c0 1.074-.262 1.074-1.816 1.074v.691c.62-.046 1.91-.046 2.578-.046.695 0 1.984 0 2.605.046v-.691c-1.527 0-1.816 0-1.816-1.074v-4.446c0-2.507 1.648-3.847 3.133-3.847 1.48 0 1.816 1.219 1.816 2.676v5.617c0 1.074-.266 1.074-1.816 1.074v.691c.62-.046 1.91-.046 2.578-.046.695 0 1.984 0 2.605.046v-.691c-1.527 0-1.816 0-1.816-1.074v-4.446c0-2.507 1.648-3.847 3.133-3.847 1.48 0 1.816 1.219 1.816 2.676v5.617c0 1.074-.266 1.074-1.816 1.074v.691c.62-.046 1.91-.046 2.578-.046.695 0 1.984 0 2.605.046v-.691c-1.195 0-1.793 0-1.816-.715zm8.223 9.75c-1.532 0-1.817 0-1.817-1.078v-4.157c.43.598 1.41 1.532 2.938 1.532 2.75 0 5.164-2.321 5.164-5.403 0-3.035-2.246-5.379-4.852-5.379-2.102 0-3.227 1.508-3.297 1.602v-1.602l-3.324.266v.691c1.676 0 1.816.168 1.816 1.219v11.231c0 1.078-.261 1.078-1.816 1.078v.691c.621-.047 1.914-.047 2.582-.047.691 0 1.984 0 2.605.047zm-1.817-11.567c0-.453 0-.48.262-.859.718-1.078 1.886-1.531 2.797-1.531 1.793 0 3.226 2.175 3.226 4.851 0 2.844-1.625 4.922-3.465 4.922a2.82 2.82 0 0 1-1.914-.762c-.547-.55-.906-1.031-.906-1.699zm20.629 2.508c0-3.082-2.34-5.543-5.113-5.543-2.867 0-5.137 2.531-5.137 5.543 0 3.059 2.387 5.356 5.113 5.356 2.82 0 5.137-2.344 5.137-5.356m-5.113 4.828c-.883 0-1.961-.383-2.653-1.554-.644-1.075-.668-2.485-.668-3.489 0-.91 0-2.367.739-3.441a3.07 3.07 0 0 1 2.558-1.41c.93 0 1.938.429 2.578 1.363.743 1.098.743 2.605.743 3.488 0 .836 0 2.321-.621 3.442-.669 1.148-1.77 1.601-2.676 1.601m13.683-9.82c0-.434 0-.551-.238-.551-.191 0-.644.524-.812.742-.743-.597-1.485-.742-2.247-.742-2.894 0-3.754 1.578-3.754 2.891 0 .265 0 1.101.91 1.937.762.668 1.575.836 2.676 1.051 1.313.262 1.625.332 2.223.813.43.359.738.882.738 1.55 0 1.032-.593 2.176-2.699 2.176-1.574 0-2.722-.906-3.25-3.297-.094-.429-.094-.453-.117-.476-.05-.098-.145-.098-.215-.098-.266 0-.266.121-.266.551v3.25c0 .43 0 .551.243.551.117 0 .14-.024.547-.528.12-.168.12-.215.476-.597.91 1.125 2.2 1.125 2.606 1.125 2.511 0 3.754-1.387 3.754-3.274 0-1.293-.79-2.058-1.004-2.273-.86-.739-1.504-.883-3.082-1.172-.72-.141-2.461-.477-2.461-1.91 0-.739.5-1.84 2.652-1.84 2.605 0 2.746 2.223 2.793 2.965.023.191.191.191.266.191.261 0 .261-.121.261-.551zm5.375.5h3.371v-.691h-3.37v-4.399h-.524c-.024 2.246-.887 4.539-3.059 4.613v.477h2.031v6.644c0 2.653 1.766 3.204 3.036 3.204 1.504 0 2.293-1.485 2.293-3.204v-1.363h-.528v1.317c0 1.718-.691 2.722-1.625 2.722-1.625 0-1.625-2.222-1.625-2.629zm14.309 3.227c0-1.29 0-2.247-1.047-3.18-.84-.762-1.914-1.098-2.965-1.098-1.96 0-3.465 1.289-3.465 2.844 0 .691.453 1.027 1.004 1.027.574 0 .98-.406.98-.98 0-.981-.863-.981-1.218-.981.547-1.004 1.695-1.433 2.648-1.433 1.102 0 2.512.91 2.512 3.058v.957c-4.805.071-6.621 2.078-6.621 3.918 0 1.891 2.2 2.489 3.656 2.489 1.578 0 2.656-.957 3.11-2.106.093 1.125.836 1.985 1.863 1.985.5 0 1.887-.336 1.887-2.247v-1.339h-.524v1.339c0 1.364-.574 1.555-.91 1.555-.91 0-.91-1.269-.91-1.625zm-1.55 3.011c0 2.34-1.747 3.129-2.774 3.129-1.168 0-2.149-.859-2.149-2.008 0-3.152 4.063-3.441 4.922-3.488zm32.882 7.313c-1.527 0-1.816 0-1.816-1.078v-4.157c.429.598 1.41 1.532 2.941 1.532 2.75 0 5.16-2.321 5.16-5.403 0-3.035-2.246-5.379-4.851-5.379-2.102 0-3.223 1.508-3.297 1.602v-1.602l-3.321.266v.691c1.672 0 1.817.168 1.817 1.219v11.231c0 1.078-.266 1.078-1.817 1.078v.691c.621-.047 1.91-.047 2.578-.047.696 0 1.985 0 2.606.047zm-1.816-11.567c0-.453 0-.48.265-.859a3.44 3.44 0 0 1 2.793-1.531c1.793 0 3.227 2.175 3.227 4.851 0 2.844-1.625 4.922-3.465 4.922a2.8 2.8 0 0 1-1.91-.762c-.551-.55-.91-1.031-.91-1.699zm20.632 2.508c0-3.082-2.343-5.543-5.117-5.543-2.863 0-5.137 2.531-5.137 5.543 0 3.059 2.391 5.356 5.114 5.356 2.82 0 5.14-2.344 5.14-5.356m-5.117 4.828c-.883 0-1.957-.383-2.652-1.554-.645-1.075-.668-2.485-.668-3.489 0-.91 0-2.367.738-3.441a3.07 3.07 0 0 1 2.559-1.41c.933 0 1.937.429 2.582 1.363.742 1.098.742 2.605.742 3.488 0 .836 0 2.321-.621 3.442-.668 1.148-1.77 1.601-2.68 1.601m13.684-9.82c0-.434 0-.551-.239-.551-.191 0-.644.524-.812.742-.742-.597-1.481-.742-2.246-.742-2.891 0-3.75 1.578-3.75 2.891 0 .265 0 1.101.906 1.937.766.668 1.578.836 2.676 1.051 1.316.262 1.625.332 2.223.813.429.359.742.882.742 1.55 0 1.032-.598 2.176-2.699 2.176-1.579 0-2.723-.906-3.25-3.297-.098-.429-.098-.453-.122-.476-.046-.098-.144-.098-.214-.098-.262 0-.262.121-.262.551v3.25c0 .43 0 .551.238.551.117 0 .141-.024.551-.528.117-.168.117-.215.476-.597.907 1.125 2.2 1.125 2.606 1.125 2.508 0 3.75-1.387 3.75-3.274 0-1.293-.789-2.058-1.004-2.273-.859-.739-1.504-.883-3.082-1.172-.719-.141-2.461-.477-2.461-1.91 0-.739.5-1.84 2.652-1.84 2.606 0 2.747 2.223 2.797 2.965.024.191.192.191.262.191.262 0 .262-.121.262-.551zm5.519-4.613c0-.621-.5-1.172-1.168-1.172a1.15 1.15 0 0 0-1.148 1.148c0 .715.574 1.172 1.148 1.172.739 0 1.168-.625 1.168-1.148m-3.297 4.445v.691c1.532 0 1.746.145 1.746 1.317v6.5c0 1.074-.261 1.074-1.816 1.074v.691c.668-.046 1.816-.046 2.508-.046.266 0 1.648 0 2.461.046v-.691c-1.551 0-1.649-.121-1.649-1.051v-8.797zm14.746.645c.215-.262.215-.313.215-.407 0-.261-.168-.261-.574-.261h-7.504l-.262 3.796h.528c.14-2.437.594-3.32 3.199-3.32h2.773l-6.835 9.391c0 .429.05.429.574.429h7.789l.383-4.394h-.524c-.219 2.723-.625 3.871-3.469 3.871h-2.89zm5.454-5.09c0-.621-.504-1.172-1.172-1.172-.621 0-1.145.504-1.145 1.148 0 .715.571 1.172 1.145 1.172.742 0 1.172-.625 1.172-1.148m-3.297 4.445v.691c1.527 0 1.742.145 1.742 1.317v6.5c0 1.074-.262 1.074-1.816 1.074v.691c.671-.046 1.816-.046 2.511-.046.262 0 1.649 0 2.461.046v-.691c-1.555 0-1.648-.121-1.648-1.051v-8.797zm16.605 5.16c0-3.082-2.34-5.543-5.113-5.543-2.867 0-5.137 2.531-5.137 5.543 0 3.059 2.391 5.356 5.113 5.356 2.821 0 5.137-2.344 5.137-5.356m-5.113 4.828c-.883 0-1.957-.383-2.652-1.554-.645-1.075-.668-2.485-.668-3.489 0-.91 0-2.367.738-3.441a3.07 3.07 0 0 1 2.558-1.41c.934 0 1.938.429 2.583 1.363.742 1.098.742 2.605.742 3.488 0 .836 0 2.321-.625 3.442-.668 1.148-1.766 1.601-2.676 1.601m16.48-5.519c0-2.223 0-2.891-.55-3.657-.692-.933-1.817-1.078-2.629-1.078-2.317 0-3.227 1.985-3.414 2.465h-.028v-2.465l-3.25.266v.691c1.625 0 1.817.168 1.817 1.34v6.477c0 1.074-.262 1.074-1.817 1.074v.691c.621-.046 1.914-.046 2.582-.046.696 0 1.985 0 2.606.046v-.691c-1.531 0-1.817 0-1.817-1.074v-4.446c0-2.507 1.649-3.847 3.129-3.847 1.485 0 1.817 1.219 1.817 2.676v5.617c0 1.074-.262 1.074-1.817 1.074v.691c.621-.046 1.914-.046 2.582-.046.696 0 1.985 0 2.606.046v-.691c-1.196 0-1.793 0-1.817-.715zm11.52.261c.523 0 .574 0 .574-.453 0-2.414-1.293-4.66-4.183-4.66-2.723 0-4.829 2.461-4.829 5.426 0 3.152 2.438 5.473 5.09 5.473 2.844 0 3.922-2.582 3.922-3.086 0-.145-.121-.239-.265-.239-.192 0-.239.121-.286.239-.621 2.007-2.222 2.558-3.226 2.558s-3.418-.668-3.418-4.804v-.454zm-6.598-.453c.192-3.754 2.297-4.183 2.965-4.183 2.555 0 2.699 3.371 2.723 4.183zm40.067-.382c0-1.29 0-2.247-1.051-3.18-.836-.762-1.91-1.098-2.961-1.098-1.961 0-3.469 1.289-3.469 2.844 0 .691.457 1.027 1.004 1.027.574 0 .981-.406.981-.98 0-.981-.86-.981-1.219-.981.551-1.004 1.699-1.433 2.652-1.433 1.102 0 2.512.91 2.512 3.058v.957c-4.805.071-6.621 2.078-6.621 3.918 0 1.891 2.199 2.489 3.656 2.489 1.578 0 2.652-.957 3.106-2.106.097 1.125.835 1.985 1.867 1.985.5 0 1.886-.336 1.886-2.247v-1.339h-.527v1.339c0 1.364-.57 1.555-.906 1.555-.91 0-.91-1.269-.91-1.625zm-1.551 3.011c0 2.34-1.746 3.129-2.774 3.129-1.171 0-2.152-.859-2.152-2.008 0-3.152 4.067-3.441 4.926-3.488zm33.91-11.949c0-.551 0-.574-.477-.574-.574.648-1.769 1.527-4.23 1.527v.695c.551 0 1.742 0 3.059-.621v12.45c0 .863-.075 1.148-2.176 1.148h-.738v.691c.644-.046 2.96-.046 3.75-.046.789 0 3.082 0 3.726.046v-.691h-.738c-2.102 0-2.176-.285-2.176-1.148z"/></g></svg>