<svg xmlns="http://www.w3.org/2000/svg" width="868" height="120" viewBox="0 -90 651 90"><g id="page1"><path fill="none" stroke="#000" stroke-linecap="round" stroke-linejoin="round" d="M.5-.496h649.629M.5-44.738h649.629M.5-88.984h649.629M.5-.496v-88.488M46.902-.496v-88.488M93.305-.496v-88.488M139.707-.496v-88.488M186.109-.496v-88.488M232.508-.496v-88.488M278.91-.496v-88.488M325.313-.496v-88.488M371.715-.496v-88.488M418.117-.496v-88.488M464.52-.496v-88.488M510.922-.496v-88.488M557.324-.496v-88.488M603.727-.496v-88.488M650.129-.496v-88.488"/><path d="M18.883-31.918c0-.55 0-.574-.477-.574-.574.648-1.77 1.531-4.23 1.531v.691c.55 0 1.742 0 3.058-.62v12.449c0 .863-.074 1.148-2.175 1.148h-.739v.691c.64-.046 2.961-.046 3.75-.046s3.082 0 3.727.046v-.691h-.742c-2.102 0-2.172-.285-2.172-1.148zm16.167.477v-.547h-5.757c-2.895 0-2.941-.313-3.035-.766h-.527l-.739 4.777h.524c.07-.43.289-1.91.597-2.171.192-.145 1.985-.145 2.317-.145h5.066l-2.531 3.633c-.645.933-3.059 4.851-3.059 9.344 0 .261 0 1.218.98 1.218 1.005 0 1.005-.933 1.005-1.242v-1.195c0-3.563.57-6.332 1.695-7.934zm30.231-.477c0-.55 0-.574-.476-.574-.575.648-1.77 1.531-4.23 1.531v.691c.55 0 1.745 0 3.058-.62v12.449c0 .863-.07 1.148-2.172 1.148h-.742v.691c.644-.046 2.96-.046 3.75-.046.789 0 3.086 0 3.726.046v-.691h-.738c-2.101 0-2.176-.285-2.176-1.148zm16.172.477v-.547h-5.762c-2.89 0-2.937-.313-3.035-.766h-.523l-.742 4.777h.523c.074-.43.29-1.91.602-2.171.187-.145 1.98-.145 2.316-.145h5.066l-2.535 3.633c-.644.933-3.058 4.851-3.058 9.344 0 .261 0 1.218.98 1.218 1.004 0 1.004-.933 1.004-1.242v-1.195c0-3.563.574-6.332 1.695-7.934zm33.86 10.828h-.524c-.07.406-.262 1.718-.5 2.101-.168.215-1.531.215-2.25.215h-4.418c.645-.55 2.102-2.078 2.723-2.652 3.633-3.348 4.969-4.59 4.969-6.953 0-2.75-2.172-4.59-4.946-4.59s-4.398 2.367-4.398 4.422c0 1.218 1.054 1.218 1.125 1.218.5 0 1.125-.359 1.125-1.125 0-.668-.457-1.12-1.125-1.12-.215 0-.262 0-.336.023.457-1.625 1.746-2.723 3.301-2.723 2.031 0 3.273 1.695 3.273 3.895 0 2.03-1.172 3.8-2.535 5.328l-4.828 5.402v.57h8.726zm11.894-3.633c0-1.985-.121-3.918-.98-5.738-.981-1.98-2.704-2.508-3.872-2.508-1.386 0-3.082.695-3.968 2.676-.668 1.507-.907 2.988-.907 5.57 0 2.316.168 4.062 1.028 5.758.93 1.816 2.582 2.39 3.824 2.39 2.078 0 3.273-1.242 3.965-2.629.859-1.793.91-4.132.91-5.52m-4.875 7.668c-.766 0-2.32-.43-2.773-3.031-.262-1.438-.262-3.25-.262-4.926 0-1.957 0-3.727.383-5.137.406-1.601 1.625-2.344 2.652-2.344.906 0 2.293.551 2.746 2.606.313 1.363.313 3.25.313 4.875 0 1.601 0 3.418-.262 4.875-.457 2.629-1.961 3.082-2.797 3.082m39.383-4.034h-.527c-.071.406-.262 1.718-.5 2.101-.168.215-1.532.215-2.247.215h-4.421c.644-.55 2.101-2.078 2.722-2.652 3.637-3.348 4.973-4.59 4.973-6.953 0-2.75-2.176-4.59-4.949-4.59-2.77 0-4.395 2.367-4.395 4.422 0 1.218 1.051 1.218 1.121 1.218.504 0 1.125-.359 1.125-1.125 0-.668-.453-1.12-1.125-1.12-.211 0-.262 0-.332.023.453-1.625 1.746-2.723 3.297-2.723 2.031 0 3.273 1.695 3.273 3.895 0 2.03-1.167 3.8-2.531 5.328l-4.828 5.402v.57h8.723zm5.582-4.567c-.406.024-.5.047-.5.266 0 .238.117.238.547.238h1.101c2.032 0 2.938 1.672 2.938 3.965 0 3.133-1.625 3.969-2.793 3.969-1.149 0-3.11-.551-3.801-2.13.766.122 1.457-.308 1.457-1.167 0-.695-.504-1.172-1.172-1.172-.57 0-1.195.332-1.195 1.242 0 2.125 2.129 3.871 4.781 3.871 2.844 0 4.945-2.175 4.945-4.59 0-2.195-1.765-3.918-4.062-4.324 2.078-.597 3.418-2.34 3.418-4.207 0-1.886-1.957-3.273-4.277-3.273-2.391 0-4.161 1.457-4.161 3.203 0 .957.743 1.148 1.102 1.148.504 0 1.074-.359 1.074-1.078 0-.765-.57-1.097-1.097-1.097-.145 0-.192 0-.262.023.906-1.625 3.152-1.625 3.269-1.625.789 0 2.344.36 2.344 2.7 0 .452-.07 1.792-.765 2.82-.715 1.05-1.528 1.125-2.172 1.148zm34.699 0c-.406.024-.5.047-.5.266 0 .238.117.238.551.238h1.098c2.031 0 2.937 1.672 2.937 3.965 0 3.133-1.625 3.969-2.793 3.969-1.148 0-3.109-.551-3.801-2.13.766.122 1.457-.308 1.457-1.167 0-.695-.5-1.172-1.172-1.172-.57 0-1.195.332-1.195 1.242 0 2.125 2.129 3.871 4.781 3.871 2.844 0 4.946-2.175 4.946-4.59 0-2.195-1.766-3.918-4.063-4.324 2.078-.597 3.418-2.34 3.418-4.207 0-1.886-1.957-3.273-4.277-3.273-2.391 0-4.156 1.457-4.156 3.203 0 .957.738 1.148 1.097 1.148.504 0 1.074-.359 1.074-1.078 0-.765-.57-1.097-1.097-1.097-.145 0-.192 0-.262.023.906-1.625 3.152-1.625 3.274-1.625.789 0 2.339.36 2.339 2.7 0 .452-.07 1.792-.761 2.82-.719 1.05-1.532 1.125-2.176 1.148zm14.426-.047c1.195-.644 2.937-1.746 2.937-3.75 0-2.082-2.007-3.515-4.203-3.515-2.367 0-4.23 1.746-4.23 3.922 0 .812.238 1.625.906 2.437.262.309.289.332 1.961 1.504-2.316 1.074-3.512 2.676-3.512 4.422 0 2.531 2.414 4.11 4.852 4.11 2.648 0 4.875-1.962 4.875-4.47 0-2.437-1.723-3.511-3.586-4.66m-3.25-2.152c-.313-.215-1.266-.836-1.266-2.004 0-1.555 1.625-2.535 3.227-2.535 1.719 0 3.25 1.242 3.25 2.965 0 1.457-1.055 2.625-2.438 3.39zm1.121 3.082 2.895 1.89c.621.407 1.718 1.15 1.718 2.606 0 1.817-1.84 3.059-3.75 3.059-2.035 0-3.777-1.485-3.777-3.465 0-1.863 1.363-3.371 2.914-4.09m38.336-7.859c0-.453 0-.575-.336-.575-.191 0-.262 0-.453.286l-7.195 11.16v.695h6.285v2.176c0 .883-.047 1.121-1.793 1.121h-.477v.691c.551-.046 2.438-.046 3.106-.046.672 0 2.582 0 3.132.046v-.691h-.48c-1.719 0-1.789-.238-1.789-1.121v-2.176h2.41v-.695h-2.41zm-1.578 1.863v9.008h-5.809zm15.355 6.047c0-1.985-.121-3.918-.98-5.738-.981-1.98-2.699-2.508-3.871-2.508-1.387 0-3.082.695-3.965 2.676-.672 1.507-.91 2.988-.91 5.57 0 2.316.168 4.062 1.027 5.758.934 1.816 2.582 2.39 3.824 2.39 2.078 0 3.274-1.242 3.965-2.629.863-1.793.91-4.132.91-5.52m-4.875 7.668c-.765 0-2.316-.43-2.773-3.031-.262-1.438-.262-3.25-.262-4.926 0-1.957 0-3.727.383-5.137.406-1.601 1.625-2.344 2.652-2.344.907 0 2.293.551 2.75 2.606.309 1.363.309 3.25.309 4.875 0 1.601 0 3.418-.262 4.875-.457 2.629-1.961 3.082-2.797 3.082m37.496-15.577c0-.453 0-.575-.336-.575-.187 0-.261 0-.453.286l-7.191 11.16v.695h6.281v2.176c0 .883-.047 1.121-1.789 1.121h-.48v.691c.55-.046 2.437-.046 3.109-.046.668 0 2.578 0 3.129.046v-.691h-.477c-1.722 0-1.793-.238-1.793-1.121v-2.176h2.414v-.695h-2.414zm-1.578 1.863v9.008h-5.808zm7.59 5.379c0-6.047 2.938-7.004 4.231-7.004.859 0 1.718.262 2.175.98-.289 0-1.199 0-1.199.981 0 .523.363.98.981.98.601 0 1.007-.359 1.007-1.054 0-1.242-.91-2.461-2.988-2.461-3.012 0-6.168 3.082-6.168 8.34 0 6.574 2.867 8.054 4.899 8.054 2.605 0 4.828-2.27 4.828-5.379 0-3.175-2.223-5.304-4.61-5.304-2.129 0-2.918 1.84-3.156 2.511zm2.938 8.172c-1.504 0-2.219-1.34-2.438-1.84-.211-.621-.449-1.793-.449-3.465 0-1.89.855-4.254 3.008-4.254 1.316 0 2.007.883 2.367 1.695.383.883.383 2.079.383 3.106 0 1.219 0 2.297-.457 3.203-.594 1.149-1.457 1.555-2.414 1.555m31.882-13.551a7 7 0 0 0 2.125.36c2.704 0 4.422-1.985 4.422-2.317 0-.098-.047-.219-.191-.219-.047 0-.094 0-.309.098a7.9 7.9 0 0 1-3.109.644c-1.578 0-2.699-.476-3.152-.668-.168-.074-.215-.074-.239-.074-.191 0-.191.145-.191.528v7.097c0 .43 0 .575.285.575.121 0 .145-.028.383-.313.668-.98 1.793-1.55 2.988-1.55 1.266 0 1.887 1.167 2.078 1.573.406.934.43 2.106.43 3.012s0 2.27-.668 3.344c-.527.863-1.457 1.46-2.512 1.46a3.69 3.69 0 0 1-3.558-2.82c.117.047.261.07.382.07.407 0 1.051-.238 1.051-1.05 0-.668-.453-1.05-1.051-1.05-.429 0-1.054.214-1.054 1.148 0 2.03 1.625 4.347 4.277 4.347 2.703 0 5.067-2.27 5.067-5.304 0-2.844-1.911-5.211-4.418-5.211-1.364 0-2.415.597-3.036 1.265zm17.387 6.738c0 5.64-2.508 6.813-3.941 6.813-.575 0-1.84-.074-2.438-.91h.141c.168.05 1.027-.094 1.027-.98 0-.524-.355-.977-.98-.977-.617 0-1 .406-1 1.027 0 1.48 1.191 2.484 3.273 2.484 2.985 0 5.879-3.18 5.879-8.363 0-6.43-2.676-8.031-4.781-8.031-2.629 0-4.946 2.199-4.946 5.351 0 3.157 2.223 5.309 4.614 5.309 1.765 0 2.676-1.293 3.152-2.512zm-3.058 1.242c-1.508 0-2.153-1.218-2.368-1.671-.382-.907-.382-2.055-.382-3.13 0-1.34 0-2.488.625-3.464.429-.649 1.074-1.34 2.363-1.34 1.363 0 2.054 1.195 2.293 1.746.48 1.168.48 3.2.48 3.559 0 2.008-.91 4.3-3.011 4.3m32.07-7.98a7 7 0 0 0 2.129.36c2.699 0 4.418-1.985 4.418-2.317 0-.098-.047-.219-.188-.219-.051 0-.097 0-.312.098a7.8 7.8 0 0 1-3.106.644 7.8 7.8 0 0 1-3.156-.668c-.164-.074-.215-.074-.238-.074-.192 0-.192.145-.192.528v7.097c0 .43 0 .575.285.575.122 0 .145-.028.383-.313a3.61 3.61 0 0 1 2.989-1.55c1.265 0 1.886 1.167 2.078 1.573.406.934.433 2.106.433 3.012s0 2.27-.672 3.344c-.523.863-1.457 1.46-2.507 1.46a3.7 3.7 0 0 1-3.563-2.82c.121.047.266.07.383.07.406 0 1.051-.238 1.051-1.05 0-.668-.453-1.05-1.051-1.05-.43 0-1.051.214-1.051 1.148 0 2.03 1.625 4.347 4.277 4.347 2.7 0 5.067-2.27 5.067-5.304 0-2.844-1.91-5.211-4.422-5.211-1.363 0-2.414.597-3.035 1.265zm17.39 6.738c0 5.64-2.511 6.813-3.945 6.813-.574 0-1.84-.074-2.437-.91h.144c.168.05 1.028-.094 1.028-.98 0-.524-.36-.977-.981-.977s-1.004.406-1.004 1.027c0 1.48 1.195 2.484 3.274 2.484 2.988 0 5.878-3.18 5.878-8.363 0-6.43-2.675-8.031-4.777-8.031-2.629 0-4.949 2.199-4.949 5.351 0 3.157 2.223 5.309 4.613 5.309 1.77 0 2.676-1.293 3.156-2.512zm-3.058 1.242c-1.508 0-2.152-1.218-2.367-1.671-.383-.907-.383-2.055-.383-3.13 0-1.34 0-2.488.621-3.464.43-.649 1.074-1.34 2.367-1.34 1.36 0 2.055 1.195 2.293 1.746.477 1.168.477 3.2.477 3.559 0 2.008-.907 4.3-3.008 4.3m40.363-9.128v-.547h-5.762c-2.89 0-2.937-.313-3.035-.766h-.523l-.742 4.777h.527c.07-.43.285-1.91.598-2.171.187-.145 1.98-.145 2.316-.145h5.066l-2.535 3.633c-.644.933-3.058 4.851-3.058 9.344 0 .261 0 1.218.98 1.218 1.004 0 1.004-.933 1.004-1.242v-1.195c0-3.563.574-6.332 1.695-7.934zm10.86 10.828h-.524c-.07.406-.262 1.718-.5 2.101-.168.215-1.531.215-2.246.215h-4.422c.645-.55 2.102-2.078 2.723-2.652 3.633-3.348 4.969-4.59 4.969-6.953 0-2.75-2.172-4.59-4.946-4.59s-4.398 2.367-4.398 4.422c0 1.218 1.054 1.218 1.125 1.218.5 0 1.125-.359 1.125-1.125 0-.668-.457-1.12-1.125-1.12-.215 0-.262 0-.336.023.457-1.625 1.746-2.723 3.301-2.723 2.031 0 3.273 1.695 3.273 3.895 0 2.03-1.172 3.8-2.535 5.328l-4.828 5.402v.57h8.726zm35.539-10.828v-.547h-5.758c-2.895 0-2.942-.313-3.039-.766h-.524l-.738 4.777h.523c.071-.43.286-1.91.598-2.171.191-.145 1.984-.145 2.316-.145h5.067l-2.531 3.633c-.649.933-3.059 4.851-3.059 9.344 0 .261 0 1.218.981 1.218 1 0 1-.933 1-1.242v-1.195c0-3.563.574-6.332 1.699-7.934zm10.863 10.828h-.527c-.071.406-.262 1.718-.5 2.101-.168.215-1.532.215-2.247.215h-4.421c.648-.55 2.101-2.078 2.722-2.652 3.637-3.348 4.973-4.59 4.973-6.953 0-2.75-2.172-4.59-4.949-4.59-2.77 0-4.395 2.367-4.395 4.422 0 1.218 1.051 1.218 1.121 1.218.504 0 1.125-.359 1.125-1.125 0-.668-.453-1.12-1.125-1.12-.211 0-.262 0-.332.023.453-1.625 1.746-2.723 3.297-2.723 2.031 0 3.273 1.695 3.273 3.895 0 2.03-1.167 3.8-2.531 5.328l-4.828 5.402v.57h8.723zm35.539-10.828v-.547h-5.762c-2.89 0-2.937-.313-3.035-.766h-.527l-.739 4.777h.524c.074-.43.289-1.91.598-2.171.191-.145 1.984-.145 2.32-.145h5.062l-2.531 3.633c-.644.933-3.059 4.851-3.059 9.344 0 .261 0 1.218.981 1.218 1.004 0 1.004-.933 1.004-1.242v-1.195c0-3.563.574-6.332 1.695-7.934zm8.973-.715c0-.453 0-.575-.336-.575-.188 0-.262 0-.453.286l-7.192 11.16v.695h6.285v2.176c0 .883-.047 1.121-1.793 1.121h-.48v.691c.551-.046 2.437-.046 3.109-.046.668 0 2.578 0 3.129.046v-.691h-.476c-1.723 0-1.793-.238-1.793-1.121v-2.176h2.414v-.695h-2.414zm-1.579 1.863v9.008h-5.804zm34.774 5.066c1.195-.644 2.937-1.746 2.937-3.75 0-2.082-2.007-3.515-4.203-3.515-2.367 0-4.23 1.746-4.23 3.922 0 .812.238 1.625.906 2.437.262.309.289.332 1.961 1.504-2.316 1.074-3.512 2.676-3.512 4.422 0 2.531 2.414 4.11 4.852 4.11 2.648 0 4.875-1.962 4.875-4.47 0-2.437-1.723-3.511-3.586-4.66m-3.25-2.152c-.313-.215-1.266-.836-1.266-2.004 0-1.555 1.625-2.535 3.227-2.535 1.719 0 3.25 1.242 3.25 2.965 0 1.457-1.055 2.625-2.438 3.39zm1.121 3.082 2.895 1.89c.621.407 1.718 1.15 1.718 2.606 0 1.817-1.84 3.059-3.75 3.059-2.035 0-3.777-1.485-3.777-3.465 0-1.863 1.363-3.371 2.914-4.09m11.105-.883c-.406.024-.503.047-.503.266 0 .238.121.238.55.238h1.098c2.031 0 2.941 1.672 2.941 3.965 0 3.133-1.625 3.969-2.796 3.969-1.145 0-3.106-.551-3.801-2.13.765.122 1.457-.308 1.457-1.167 0-.695-.5-1.172-1.168-1.172-.574 0-1.196.332-1.196 1.242 0 2.125 2.125 3.871 4.778 3.871 2.844 0 4.949-2.175 4.949-4.59 0-2.195-1.769-3.918-4.062-4.324 2.078-.597 3.418-2.34 3.418-4.207 0-1.886-1.961-3.273-4.282-3.273-2.386 0-4.156 1.457-4.156 3.203 0 .957.742 1.148 1.102 1.148.5 0 1.074-.359 1.074-1.078 0-.765-.574-1.097-1.102-1.097-.144 0-.191 0-.261.023.906-1.625 3.156-1.625 3.273-1.625.789 0 2.344.36 2.344 2.7 0 .452-.075 1.792-.766 2.82-.719 1.05-1.531 1.125-2.176 1.148zm37.422-.047c1.196-.644 2.942-1.746 2.942-3.75 0-2.082-2.008-3.515-4.207-3.515-2.367 0-4.231 1.746-4.231 3.922 0 .812.239 1.625.91 2.437.262.309.286.332 1.957 1.504-2.316 1.074-3.511 2.676-3.511 4.422 0 2.531 2.414 4.11 4.851 4.11 2.653 0 4.875-1.962 4.875-4.47 0-2.437-1.718-3.511-3.586-4.66m-3.25-2.152c-.308-.215-1.265-.836-1.265-2.004 0-1.555 1.625-2.535 3.226-2.535 1.723 0 3.25 1.242 3.25 2.965 0 1.457-1.051 2.625-2.437 3.39zm1.125 3.082 2.891 1.89c.621.407 1.719 1.15 1.719 2.606 0 1.817-1.836 3.059-3.75 3.059-2.032 0-3.774-1.485-3.774-3.465 0-1.863 1.36-3.371 2.914-4.09m18.059-7.144v-.547h-5.762c-2.89 0-2.937-.313-3.035-.766h-.527l-.739 4.777h.524c.074-.43.289-1.91.598-2.171.191-.145 1.984-.145 2.32-.145h5.062l-2.531 3.633c-.644.933-3.059 4.851-3.059 9.344 0 .261 0 1.218.981 1.218 1.004 0 1.004-.933 1.004-1.242v-1.195c0-3.563.574-6.332 1.695-7.934zM18.883-76.219c0-.547 0-.57-.477-.57-.574.645-1.77 1.527-4.23 1.527v.692c.55 0 1.742 0 3.058-.621v12.449c0 .863-.074 1.148-2.175 1.148h-.739v.696c.64-.051 2.961-.051 3.75-.051s3.082 0 3.727.05v-.695h-.742c-2.102 0-2.172-.285-2.172-1.148zm16.167.477v-.547h-5.757c-2.895 0-2.941-.313-3.035-.766h-.527l-.739 4.782h.524c.07-.43.289-1.915.597-2.176.192-.145 1.985-.145 2.317-.145h5.066l-2.531 3.633c-.645.934-3.059 4.852-3.059 9.344 0 .261 0 1.219.98 1.219 1.005 0 1.005-.93 1.005-1.243v-1.195c0-3.562.57-6.332 1.695-7.933zm30.231-.477c0-.547 0-.57-.476-.57-.575.645-1.77 1.527-4.23 1.527v.692c.55 0 1.745 0 3.058-.621v12.449c0 .863-.07 1.148-2.172 1.148h-.742v.696c.644-.051 2.96-.051 3.75-.051.789 0 3.086 0 3.726.05v-.695h-.738c-2.101 0-2.176-.285-2.176-1.148zm16.172.477v-.547h-5.762c-2.89 0-2.937-.313-3.035-.766h-.523l-.742 4.782h.523c.074-.43.29-1.915.602-2.176.187-.145 1.98-.145 2.316-.145h5.066l-2.535 3.633c-.644.934-3.058 4.852-3.058 9.344 0 .261 0 1.219.98 1.219 1.004 0 1.004-.93 1.004-1.243v-1.195c0-3.562.574-6.332 1.695-7.933zm33.645 6.262c-.407.027-.504.05-.504.265 0 .238.121.238.551.238h1.097c2.031 0 2.942 1.672 2.942 3.965 0 3.133-1.625 3.969-2.797 3.969-1.145 0-3.106-.55-3.797-2.129.762.121 1.457-.309 1.457-1.168 0-.695-.504-1.172-1.172-1.172-.574 0-1.195.332-1.195 1.243 0 2.128 2.125 3.87 4.781 3.87 2.844 0 4.945-2.175 4.945-4.585 0-2.2-1.769-3.922-4.062-4.329 2.078-.597 3.418-2.34 3.418-4.203 0-1.89-1.961-3.273-4.278-3.273-2.39 0-4.16 1.453-4.16 3.2 0 .956.742 1.148 1.102 1.148.5 0 1.074-.36 1.074-1.075 0-.765-.574-1.101-1.102-1.101-.14 0-.187 0-.261.023.91-1.625 3.156-1.625 3.273-1.625.789 0 2.344.36 2.344 2.703 0 .454-.074 1.79-.766 2.82-.715 1.048-1.527 1.122-2.175 1.145zm44.941.265c0-6.047 2.938-7.004 4.231-7.004.859 0 1.718.266 2.175.98-.289 0-1.199 0-1.199.981 0 .524.363.98.981.98.601 0 1.007-.359 1.007-1.05 0-1.242-.91-2.461-2.988-2.461-3.012 0-6.168 3.078-6.168 8.336 0 6.574 2.867 8.055 4.899 8.055 2.605 0 4.828-2.27 4.828-5.375 0-3.18-2.223-5.305-4.61-5.305-2.129 0-2.918 1.836-3.156 2.508zm2.938 8.172c-1.504 0-2.219-1.34-2.438-1.84-.211-.62-.449-1.793-.449-3.465 0-1.886.855-4.254 3.008-4.254 1.316 0 2.007.883 2.367 1.696.383.883.383 2.078.383 3.11 0 1.218 0 2.292-.457 3.198-.594 1.149-1.457 1.555-2.414 1.555m41.507-15.176c0-.547 0-.57-.48-.57-.574.645-1.77 1.527-4.231 1.527v.692c.551 0 1.747 0 3.059-.621v12.449c0 .863-.07 1.148-2.172 1.148h-.742v.696c.645-.051 2.965-.051 3.754-.051.785 0 3.082 0 3.726.05v-.695h-.742c-2.101 0-2.172-.285-2.172-1.148zm11.938 6.692c1.195-.645 2.937-1.746 2.937-3.75 0-2.082-2.007-3.512-4.203-3.512-2.367 0-4.23 1.742-4.23 3.918 0 .812.238 1.625.906 2.437.262.309.289.332 1.961 1.504-2.316 1.075-3.512 2.676-3.512 4.422 0 2.531 2.414 4.11 4.852 4.11 2.648 0 4.875-1.961 4.875-4.47 0-2.437-1.723-3.51-3.586-4.66m-3.25-2.153c-.313-.21-1.266-.836-1.266-2.004 0-1.554 1.625-2.535 3.227-2.535 1.719 0 3.25 1.242 3.25 2.965 0 1.457-1.055 2.629-2.438 3.395zm1.121 3.086 2.895 1.887c.621.406 1.718 1.148 1.718 2.605 0 1.817-1.84 3.059-3.75 3.059-2.035 0-3.777-1.48-3.777-3.465 0-1.863 1.363-3.37 2.914-4.086m36.59-7.624c0-.547 0-.57-.477-.57-.574.645-1.769 1.527-4.23 1.527v.692c.551 0 1.742 0 3.058-.621v12.449c0 .863-.074 1.148-2.175 1.148h-.739v.696c.645-.051 2.961-.051 3.75-.051s3.082 0 3.727.05v-.695h-.742c-2.102 0-2.172-.285-2.172-1.148zm16.168.477v-.547h-5.758c-2.895 0-2.941-.313-3.035-.766h-.528l-.738 4.782h.524c.074-.43.289-1.915.597-2.176.192-.145 1.985-.145 2.317-.145h5.066l-2.531 3.633c-.645.934-3.059 4.852-3.059 9.344 0 .261 0 1.219.981 1.219 1.004 0 1.004-.93 1.004-1.243v-1.195c0-3.562.574-6.332 1.695-7.933zm36.371 6.215c1.195-.645 2.937-1.746 2.937-3.75 0-2.082-2.007-3.512-4.203-3.512-2.367 0-4.23 1.742-4.23 3.918 0 .812.238 1.625.906 2.437.262.309.289.332 1.961 1.504-2.316 1.075-3.512 2.676-3.512 4.422 0 2.531 2.414 4.11 4.852 4.11 2.648 0 4.875-1.961 4.875-4.47 0-2.437-1.723-3.51-3.586-4.66m-3.25-2.153c-.313-.21-1.266-.836-1.266-2.004 0-1.554 1.625-2.535 3.227-2.535 1.719 0 3.25 1.242 3.25 2.965 0 1.457-1.055 2.629-2.438 3.395zm1.121 3.086 2.895 1.887c.621.406 1.718 1.148 1.718 2.605 0 1.817-1.84 3.059-3.75 3.059-2.035 0-3.777-1.48-3.777-3.465 0-1.863 1.363-3.37 2.914-4.086m42.391-7.624c0-.547 0-.57-.481-.57-.57.645-1.765 1.527-4.226 1.527v.692c.546 0 1.742 0 3.054-.621v12.449c0 .863-.07 1.148-2.172 1.148h-.742v.696c.645-.051 2.965-.051 3.754-.051.785 0 3.082 0 3.727.05v-.695h-.743c-2.101 0-2.171-.285-2.171-1.148zm13.562 8.364c0 5.64-2.508 6.812-3.941 6.812-.575 0-1.84-.074-2.438-.91h.141c.168.05 1.027-.094 1.027-.977 0-.527-.355-.98-.98-.98-.617 0-1 .406-1 1.027 0 1.48 1.191 2.485 3.273 2.485 2.985 0 5.879-3.18 5.879-8.364 0-6.43-2.676-8.027-4.781-8.027-2.629 0-4.946 2.195-4.946 5.352 0 3.152 2.223 5.304 4.614 5.304 1.765 0 2.676-1.289 3.152-2.508zm-3.058 1.246c-1.508 0-2.153-1.22-2.368-1.676-.382-.906-.382-2.055-.382-3.13 0-1.339 0-2.483.625-3.464.429-.644 1.074-1.34 2.363-1.34 1.363 0 2.054 1.196 2.293 1.746.48 1.168.48 3.2.48 3.559 0 2.008-.91 4.305-3.011 4.305m45.425 1.695h-.523c-.074.406-.262 1.719-.5 2.102-.168.214-1.531.214-2.25.214h-4.418c.644-.55 2.101-2.078 2.723-2.652 3.632-3.344 4.968-4.586 4.968-6.953 0-2.75-2.172-4.586-4.945-4.586s-4.398 2.363-4.398 4.418c0 1.219 1.05 1.219 1.125 1.219.5 0 1.121-.356 1.121-1.121 0-.672-.453-1.125-1.121-1.125-.215 0-.262 0-.336.023.457-1.625 1.746-2.723 3.3-2.723 2.032 0 3.274 1.696 3.274 3.895 0 2.031-1.172 3.8-2.535 5.328l-4.828 5.402v.575h8.722zm36.871-11.305c0-.547 0-.57-.48-.57-.574.645-1.77 1.527-4.231 1.527v.692c.551 0 1.747 0 3.059-.621v12.449c0 .863-.07 1.148-2.172 1.148h-.742v.696c.645-.051 2.965-.051 3.754-.051.785 0 3.082 0 3.726.05v-.695h-.742c-2.101 0-2.172-.285-2.172-1.148zm9.211 6.739c-.402.027-.5.05-.5.265 0 .238.118.238.551.238h1.098c2.031 0 2.937 1.672 2.937 3.965 0 3.133-1.625 3.969-2.793 3.969-1.148 0-3.105-.55-3.8-2.129.765.121 1.457-.309 1.457-1.168 0-.695-.5-1.172-1.168-1.172-.575 0-1.196.332-1.196 1.243 0 2.128 2.125 3.87 4.778 3.87 2.843 0 4.949-2.175 4.949-4.585 0-2.2-1.77-3.922-4.063-4.329 2.078-.597 3.414-2.34 3.414-4.203 0-1.89-1.957-3.273-4.277-3.273-2.387 0-4.156 1.453-4.156 3.2 0 .956.742 1.148 1.097 1.148.504 0 1.079-.36 1.079-1.075 0-.765-.575-1.101-1.102-1.101-.145 0-.191 0-.262.023.907-1.625 3.153-1.625 3.274-1.625.789 0 2.34.36 2.34 2.703 0 .454-.071 1.79-.762 2.82-.719 1.048-1.531 1.122-2.176 1.145zm37.188-6.739c0-.547 0-.57-.477-.57-.574.645-1.769 1.527-4.23 1.527v.692c.551 0 1.742 0 3.058-.621v12.449c0 .863-.074 1.148-2.175 1.148h-.739v.696c.645-.051 2.961-.051 3.75-.051s3.082 0 3.727.05v-.695h-.742c-2.102 0-2.172-.285-2.172-1.148zm15.523 7.672c0-1.984-.121-3.918-.98-5.734-.981-1.985-2.699-2.508-3.871-2.508-1.387 0-3.082.691-3.965 2.672-.672 1.508-.91 2.988-.91 5.57 0 2.316.168 4.063 1.027 5.758.934 1.816 2.582 2.39 3.824 2.39 2.078 0 3.274-1.242 3.965-2.628.863-1.793.91-4.133.91-5.52m-4.875 7.672c-.765 0-2.316-.43-2.773-3.035-.262-1.434-.262-3.25-.262-4.926 0-1.957 0-3.727.383-5.137.406-1.597 1.625-2.34 2.652-2.34.907 0 2.293.547 2.75 2.602.309 1.363.309 3.25.309 4.875 0 1.602 0 3.418-.262 4.875-.457 2.633-1.961 3.086-2.797 3.086m45.282-4.039h-.524c-.07.406-.262 1.719-.5 2.102-.168.214-1.531.214-2.246.214h-4.422c.645-.55 2.102-2.078 2.723-2.652 3.633-3.344 4.969-4.586 4.969-6.953 0-2.75-2.172-4.586-4.946-4.586s-4.398 2.363-4.398 4.418c0 1.219 1.054 1.219 1.125 1.219.5 0 1.125-.356 1.125-1.121 0-.672-.457-1.125-1.125-1.125-.215 0-.262 0-.336.023.457-1.625 1.746-2.723 3.301-2.723 2.031 0 3.273 1.696 3.273 3.895 0 2.031-1.172 3.8-2.535 5.328l-4.828 5.402v.575h8.726zm36.871-11.305c0-.547 0-.57-.481-.57-.57.645-1.765 1.527-4.226 1.527v.692c.546 0 1.742 0 3.054-.621v12.449c0 .863-.07 1.148-2.172 1.148h-.742v.696c.645-.051 2.965-.051 3.754-.051.785 0 3.082 0 3.727.05v-.695h-.743c-2.101 0-2.171-.285-2.171-1.148zm11.699 0c0-.547 0-.57-.477-.57-.574.645-1.769 1.527-4.23 1.527v.692c.551 0 1.742 0 3.058-.621v12.449c0 .863-.074 1.148-2.175 1.148h-.739v.696c.645-.051 2.961-.051 3.75-.051s3.082 0 3.727.05v-.695h-.742c-2.102 0-2.172-.285-2.172-1.148zm34.699 0c0-.547 0-.57-.477-.57-.574.645-1.769 1.527-4.23 1.527v.692c.551 0 1.742 0 3.059-.621v12.449c0 .863-.075 1.148-2.176 1.148h-.738v.696c.644-.051 2.96-.051 3.75-.051.789 0 3.082 0 3.726.05v-.695h-.738c-2.102 0-2.176-.285-2.176-1.148zm9.215 6.739c-.406.027-.5.05-.5.265 0 .238.117.238.547.238h1.101c2.032 0 2.938 1.672 2.938 3.965 0 3.133-1.625 3.969-2.793 3.969-1.149 0-3.11-.55-3.801-2.129.766.121 1.457-.309 1.457-1.168 0-.695-.504-1.172-1.172-1.172-.57 0-1.195.332-1.195 1.243 0 2.128 2.129 3.87 4.781 3.87 2.844 0 4.945-2.175 4.945-4.585 0-2.2-1.765-3.922-4.062-4.329 2.078-.597 3.418-2.34 3.418-4.203 0-1.89-1.957-3.273-4.277-3.273-2.391 0-4.161 1.453-4.161 3.2 0 .956.743 1.148 1.102 1.148.504 0 1.074-.36 1.074-1.075 0-.765-.57-1.101-1.097-1.101-.145 0-.192 0-.262.023.906-1.625 3.152-1.625 3.269-1.625.789 0 2.344.36 2.344 2.703 0 .454-.07 1.79-.765 2.82-.715 1.048-1.528 1.122-2.172 1.145z"/></g></svg>