<svg xmlns="http://www.w3.org/2000/svg" width="868" height="46pt" viewBox="0 -46 651 46"><g id="page1"><path fill="none" stroke="#000" stroke-linecap="round" stroke-linejoin="round" d="M.5-.504h649.629M.5-44.746h649.629M.5-.504v-44.242M46.902-.504v-44.242M93.305-.504v-44.242M139.707-.504v-44.242M186.109-.504v-44.242M232.508-.504v-44.242M278.91-.504v-44.242M325.313-.504v-44.242M371.715-.504v-44.242M418.117-.504v-44.242M464.52-.504v-44.242M510.922-.504v-44.242M557.324-.504v-44.242M603.727-.504v-44.242M650.129-.504v-44.242"/><path d="M18.883-31.918c0-.55 0-.574-.477-.574-.574.648-1.77 1.531-4.23 1.531v.691c.55 0 1.742 0 3.058-.62v12.449c0 .863-.074 1.148-2.175 1.148h-.739v.691c.64-.046 2.961-.046 3.75-.046s3.082 0 3.727.046v-.691h-.742c-2.102 0-2.172-.285-2.172-1.148zm11.699 0c0-.55 0-.574-.477-.574-.574.648-1.77 1.531-4.23 1.531v.691c.55 0 1.742 0 3.059-.62v12.449c0 .863-.075 1.148-2.176 1.148h-.738v.691c.644-.046 2.96-.046 3.75-.046.789 0 3.082 0 3.726.046v-.691h-.738c-2.102 0-2.176-.285-2.176-1.148zm40.602 0c0-.55 0-.574-.48-.574-.571.648-1.766 1.531-4.227 1.531v.691c.546 0 1.742 0 3.054-.62v12.449c0 .863-.07 1.148-2.172 1.148h-.742v.691c.645-.046 2.965-.046 3.754-.046.785 0 3.082 0 3.727.046v-.691h-.742c-2.102 0-2.172-.285-2.172-1.148zm40.5 0c0-.55 0-.574-.481-.574-.57.648-1.765 1.531-4.226 1.531v.691c.546 0 1.742 0 3.054-.62v12.449c0 .863-.07 1.148-2.172 1.148h-.742v.691c.645-.046 2.965-.046 3.754-.046.785 0 3.082 0 3.727.046v-.691h-.743c-2.101 0-2.171-.285-2.171-1.148zm9.214 6.738c-.406.024-.503.047-.503.266 0 .238.121.238.55.238h1.098c2.031 0 2.941 1.672 2.941 3.965 0 3.133-1.625 3.969-2.796 3.969-1.149 0-3.106-.551-3.801-2.13.765.122 1.457-.308 1.457-1.167 0-.695-.5-1.172-1.168-1.172-.574 0-1.196.332-1.196 1.242 0 2.125 2.125 3.871 4.778 3.871 2.844 0 4.949-2.175 4.949-4.59 0-2.195-1.769-3.918-4.062-4.324 2.078-.597 3.418-2.34 3.418-4.207 0-1.886-1.961-3.273-4.282-3.273-2.386 0-4.156 1.457-4.156 3.203 0 .957.742 1.148 1.102 1.148.5 0 1.074-.359 1.074-1.078 0-.765-.574-1.097-1.102-1.097-.144 0-.191 0-.261.023.906-1.625 3.156-1.625 3.273-1.625.789 0 2.344.36 2.344 2.7 0 .452-.075 1.792-.766 2.82-.719 1.05-1.531 1.125-2.176 1.148zm44.829-6.976c0-.453 0-.575-.336-.575-.188 0-.262 0-.453.286l-7.192 11.16v.695h6.285v2.176c0 .883-.047 1.121-1.793 1.121h-.48v.691c.551-.046 2.437-.046 3.109-.046.668 0 2.578 0 3.129.046v-.691h-.476c-1.723 0-1.793-.238-1.793-1.121v-2.176h2.414v-.695h-2.414zm-1.579 1.863v9.008h-5.804zm40.336-1.625c0-.55 0-.574-.48-.574-.574.648-1.77 1.531-4.231 1.531v.691c.551 0 1.747 0 3.059-.62v12.449c0 .863-.07 1.148-2.172 1.148h-.742v.691c.645-.046 2.965-.046 3.754-.046.785 0 3.082 0 3.726.046v-.691h-.742c-2.101 0-2.172-.285-2.172-1.148zm13.563 8.363c0 5.64-2.508 6.813-3.945 6.813-.571 0-1.84-.074-2.438-.91h.145c.168.05 1.027-.094 1.027-.98 0-.524-.359-.977-.981-.977-.621 0-1.003.406-1.003 1.027 0 1.48 1.195 2.484 3.277 2.484 2.984 0 5.879-3.18 5.879-8.363 0-6.43-2.68-8.031-4.781-8.031-2.629 0-4.946 2.199-4.946 5.351 0 3.157 2.223 5.309 4.61 5.309 1.769 0 2.679-1.293 3.156-2.512zm-3.059 1.242c-1.508 0-2.152-1.218-2.367-1.671-.383-.907-.383-2.055-.383-3.13 0-1.34 0-2.488.621-3.464.43-.649 1.079-1.34 2.368-1.34 1.363 0 2.054 1.195 2.293 1.746.476 1.168.476 3.2.476 3.559 0 2.008-.906 4.3-3.008 4.3m35.895-9.605c0-.55 0-.574-.477-.574-.574.648-1.769 1.531-4.23 1.531v.691c.551 0 1.742 0 3.058-.62v12.449c0 .863-.074 1.148-2.175 1.148h-.739v.691c.645-.046 2.961-.046 3.75-.046s3.082 0 3.727.046v-.691h-.742c-2.102 0-2.172-.285-2.172-1.148zm11.699 0c0-.55 0-.574-.477-.574-.574.648-1.769 1.531-4.23 1.531v.691c.551 0 1.742 0 3.059-.62v12.449c0 .863-.075 1.148-2.176 1.148h-.738v.691c.644-.046 2.96-.046 3.75-.046.789 0 3.082 0 3.726.046v-.691h-.738c-2.102 0-2.176-.285-2.176-1.148zm34.699 0c0-.55 0-.574-.476-.574-.575.648-1.77 1.531-4.231 1.531v.691c.551 0 1.746 0 3.059-.62v12.449c0 .863-.07 1.148-2.172 1.148h-.742v.691c.644-.046 2.961-.046 3.75-.046s3.086 0 3.726.046v-.691h-.738c-2.102 0-2.176-.285-2.176-1.148zm15.332 11.305h-.523c-.074.406-.262 1.718-.5 2.101-.168.215-1.531.215-2.25.215h-4.418c.644-.55 2.101-2.078 2.723-2.652 3.632-3.348 4.968-4.59 4.968-6.953 0-2.75-2.172-4.59-4.945-4.59s-4.398 2.367-4.398 4.422c0 1.218 1.05 1.218 1.125 1.218.5 0 1.121-.359 1.121-1.125 0-.668-.453-1.12-1.121-1.12-.215 0-.262 0-.336.023.457-1.625 1.746-2.723 3.3-2.723 2.032 0 3.274 1.695 3.274 3.895 0 2.03-1.172 3.8-2.535 5.328l-4.828 5.402v.57h8.722zm31.071-11.305c0-.55 0-.574-.481-.574-.57.648-1.765 1.531-4.226 1.531v.691c.546 0 1.742 0 3.054-.62v12.449c0 .863-.07 1.148-2.172 1.148h-.742v.691c.645-.046 2.965-.046 3.754-.046.785 0 3.082 0 3.727.046v-.691h-.743c-2.101 0-2.171-.285-2.171-1.148zm9.214 6.738c-.406.024-.503.047-.503.266 0 .238.121.238.55.238h1.098c2.031 0 2.941 1.672 2.941 3.965 0 3.133-1.625 3.969-2.796 3.969-1.149 0-3.106-.551-3.801-2.13.765.122 1.457-.308 1.457-1.167 0-.695-.5-1.172-1.168-1.172-.574 0-1.196.332-1.196 1.242 0 2.125 2.125 3.871 4.778 3.871 2.844 0 4.949-2.175 4.949-4.59 0-2.195-1.769-3.918-4.062-4.324 2.078-.597 3.418-2.34 3.418-4.207 0-1.886-1.961-3.273-4.282-3.273-2.386 0-4.156 1.457-4.156 3.203 0 .957.742 1.148 1.102 1.148.5 0 1.074-.359 1.074-1.078 0-.765-.574-1.097-1.102-1.097-.144 0-.191 0-.261.023.906-1.625 3.156-1.625 3.273-1.625.789 0 2.344.36 2.344 2.7 0 .452-.075 1.792-.766 2.82-.719 1.05-1.531 1.125-2.176 1.148zm44.95 1.625c0 5.64-2.508 6.813-3.946 6.813-.574 0-1.839-.074-2.437-.91h.144c.168.05 1.028-.094 1.028-.98 0-.524-.36-.977-.981-.977s-1.004.406-1.004 1.027c0 1.48 1.196 2.484 3.274 2.484 2.988 0 5.879-3.18 5.879-8.363 0-6.43-2.676-8.031-4.778-8.031-2.629 0-4.949 2.199-4.949 5.351 0 3.157 2.223 5.309 4.613 5.309 1.77 0 2.676-1.293 3.157-2.512zm-3.059 1.242c-1.508 0-2.152-1.218-2.367-1.671-.383-.907-.383-2.055-.383-3.13 0-1.34 0-2.488.621-3.464.43-.649 1.074-1.34 2.367-1.34 1.364 0 2.055 1.195 2.293 1.746.477 1.168.477 3.2.477 3.559 0 2.008-.906 4.3-3.008 4.3m47.832-2.914c1.195-.644 2.942-1.746 2.942-3.75 0-2.082-2.008-3.515-4.208-3.515-2.367 0-4.23 1.746-4.23 3.922 0 .812.238 1.625.906 2.437.266.309.289.332 1.961 1.504-2.316 1.074-3.512 2.676-3.512 4.422 0 2.531 2.415 4.11 4.852 4.11 2.652 0 4.875-1.962 4.875-4.47 0-2.437-1.723-3.511-3.586-4.66m-3.25-2.152c-.308-.215-1.266-.836-1.266-2.004 0-1.555 1.625-2.535 3.227-2.535 1.719 0 3.25 1.242 3.25 2.965 0 1.457-1.051 2.625-2.437 3.39zm1.121 3.082 2.895 1.89c.621.407 1.718 1.15 1.718 2.606 0 1.817-1.839 3.059-3.75 3.059-2.031 0-3.777-1.485-3.777-3.465 0-1.863 1.363-3.371 2.914-4.09m42.391-7.621c0-.55 0-.574-.477-.574-.574.648-1.769 1.531-4.23 1.531v.691c.551 0 1.742 0 3.058-.62v12.449c0 .863-.074 1.148-2.175 1.148h-.739v.691c.645-.046 2.961-.046 3.75-.046s3.082 0 3.727.046v-.691h-.742c-2.102 0-2.172-.285-2.172-1.148zm13.445-.238c0-.453 0-.575-.336-.575-.191 0-.262 0-.453.286l-7.195 11.16v.695h6.285v2.176c0 .883-.047 1.121-1.789 1.121h-.481v.691c.551-.046 2.438-.046 3.11-.046.668 0 2.578 0 3.129.046v-.691h-.481c-1.719 0-1.789-.238-1.789-1.121v-2.176h2.414v-.695h-2.414zm-1.578 1.863v9.008h-5.809zm36.609 0a7 7 0 0 0 2.125.36c2.704 0 4.422-1.985 4.422-2.317 0-.098-.047-.219-.191-.219-.047 0-.094 0-.309.098a7.9 7.9 0 0 1-3.109.644c-1.578 0-2.699-.476-3.152-.668-.168-.074-.215-.074-.239-.074-.191 0-.191.145-.191.528v7.097c0 .43 0 .575.285.575.121 0 .145-.028.383-.313.668-.98 1.793-1.55 2.988-1.55 1.266 0 1.887 1.167 2.078 1.573.406.934.43 2.106.43 3.012s0 2.27-.668 3.344c-.527.863-1.457 1.46-2.512 1.46a3.69 3.69 0 0 1-3.558-2.82c.117.047.261.07.382.07.407 0 1.051-.238 1.051-1.05 0-.668-.453-1.05-1.051-1.05-.429 0-1.054.214-1.054 1.148 0 2.03 1.625 4.347 4.277 4.347 2.703 0 5.067-2.27 5.067-5.304 0-2.844-1.911-5.211-4.418-5.211-1.364 0-2.415.597-3.036 1.265zm52.086 6.738c0 5.64-2.507 6.813-3.941 6.813-.574 0-1.84-.074-2.438-.91h.145c.168.05 1.023-.094 1.023-.98 0-.524-.355-.977-.976-.977s-1.004.406-1.004 1.027c0 1.48 1.195 2.484 3.273 2.484 2.989 0 5.879-3.18 5.879-8.363 0-6.43-2.676-8.031-4.777-8.031-2.633 0-4.949 2.199-4.949 5.351 0 3.157 2.222 5.309 4.613 5.309 1.77 0 2.676-1.293 3.152-2.512zm-3.058 1.242c-1.504 0-2.153-1.218-2.364-1.671-.382-.907-.382-2.055-.382-3.13 0-1.34 0-2.488.621-3.464.429-.649 1.074-1.34 2.367-1.34 1.359 0 2.051 1.195 2.293 1.746.476 1.168.476 3.2.476 3.559 0 2.008-.906 4.3-3.011 4.3m41.695-9.605c0-.55 0-.574-.477-.574-.574.648-1.769 1.531-4.23 1.531v.691c.551 0 1.742 0 3.059-.62v12.449c0 .863-.075 1.148-2.176 1.148h-.738v.691c.644-.046 2.96-.046 3.75-.046.789 0 3.082 0 3.726.046v-.691h-.738c-2.102 0-2.176-.285-2.176-1.148zm11.699 0c0-.55 0-.574-.476-.574-.575.648-1.77 1.531-4.231 1.531v.691c.551 0 1.746 0 3.059-.62v12.449c0 .863-.07 1.148-2.172 1.148h-.742v.691c.644-.046 2.961-.046 3.75-.046s3.086 0 3.726.046v-.691h-.738c-2.102 0-2.176-.285-2.176-1.148z"/></g></svg>