<svg xmlns="http://www.w3.org/2000/svg" width="457pt" height="488" viewBox="0 -366 457 366"><g id="page1"><path fill="#ffd9b2" d="M10.004-123.531h5.953c1.633 0 3.2.648 4.355 1.804l4.895 4.895a2.554 2.554 0 0 0 3.61 0l4.894-4.895a6.16 6.16 0 0 1 4.355-1.804h67.766a2.55 2.55 0 0 0 2.551-2.551v-47.645c0-1.41-1.141-2.55-2.551-2.55H38.066a6.17 6.17 0 0 0-4.355 1.8l-4.895 4.899a2.554 2.554 0 0 1-3.609 0l-4.895-4.899a6.17 6.17 0 0 0-4.355-1.8H4.051a2.55 2.55 0 0 0-2.551 2.55v47.645a2.55 2.55 0 0 0 2.55 2.551z"/><path fill="none" stroke="#b25900" stroke-linecap="round" stroke-linejoin="round" stroke-width="3" d="M10.004-123.531h5.953c1.633 0 3.2.648 4.355 1.804l4.895 4.895a2.554 2.554 0 0 0 3.61 0l4.894-4.895a6.16 6.16 0 0 1 4.355-1.804h67.766a2.55 2.55 0 0 0 2.551-2.551v-47.645c0-1.41-1.141-2.55-2.551-2.55H38.066a6.17 6.17 0 0 0-4.355 1.8l-4.895 4.899a2.554 2.554 0 0 1-3.609 0l-4.895-4.899a6.17 6.17 0 0 0-4.355-1.8H4.051a2.55 2.55 0 0 0-2.551 2.55v47.645a2.55 2.55 0 0 0 2.55 2.551z"/><path fill="#b2ffff" d="M1.5-179.227h14.457c1.633 0 3.2.653 4.355 1.805l4.895 4.899a2.554 2.554 0 0 0 3.61 0l4.894-4.899a6.18 6.18 0 0 1 4.355-1.805h70.317v-52.746a92.46 92.46 0 0 0-106.883 0z"/><path fill="none" stroke="#00b2b2" stroke-linecap="round" stroke-linejoin="round" stroke-width="3" d="M1.5-179.227h14.457c1.633 0 3.2.653 4.355 1.805l4.895 4.899a2.554 2.554 0 0 0 3.61 0l4.894-4.899a6.18 6.18 0 0 1 4.355-1.805h70.317v-52.746a92.46 92.46 0 0 0-106.883 0z"/><path fill="#ffffb2" d="M153.738-8.95h5.953c1.633 0 3.2.65 4.356 1.805l4.894 4.895a2.554 2.554 0 0 0 3.61 0l4.894-4.895a6.16 6.16 0 0 1 4.356-1.804h262.558a2.55 2.55 0 0 0 2.551-2.551v-276.813a2.55 2.55 0 0 0-2.551-2.55H181.801a6.16 6.16 0 0 0-4.356 1.804l-4.894 4.899a2.554 2.554 0 0 1-3.61 0l-4.894-4.899a6.16 6.16 0 0 0-4.356-1.804h-11.906a2.55 2.55 0 0 0-2.551 2.55V-11.5a2.55 2.55 0 0 0 2.551 2.55z"/><path fill="none" stroke="#b2b200" stroke-linecap="round" stroke-linejoin="round" stroke-width="3" d="M153.738-8.95h5.953c1.633 0 3.2.65 4.356 1.805l4.894 4.895a2.554 2.554 0 0 0 3.61 0l4.894-4.895a6.16 6.16 0 0 1 4.356-1.804h262.558a2.55 2.55 0 0 0 2.551-2.551v-276.813a2.55 2.55 0 0 0-2.551-2.55H181.801a6.16 6.16 0 0 0-4.356 1.804l-4.894 4.899a2.554 2.554 0 0 1-3.61 0l-4.894-4.899a6.16 6.16 0 0 0-4.356-1.804h-11.906a2.55 2.55 0 0 0-2.551 2.55V-11.5a2.55 2.55 0 0 0 2.551 2.55z"/><path fill="#ffd9b2" d="M179.25-25.957h5.953a6.16 6.16 0 0 1 4.356 1.805l4.894 4.894c.996.996 2.61.996 3.61 0l4.894-4.894a6.16 6.16 0 0 1 4.356-1.805h245.55a2.55 2.55 0 0 0 2.551-2.55v-47.645a2.55 2.55 0 0 0-2.551-2.551h-245.55c-1.633 0-3.2.648-4.356 1.8l-4.894 4.9c-1 .995-2.614.995-3.61 0l-4.894-4.9a6.17 6.17 0 0 0-4.356-1.8h-11.906a2.55 2.55 0 0 0-2.551 2.55v47.645a2.55 2.55 0 0 0 2.551 2.551z"/><path fill="none" stroke="#b25900" stroke-linecap="round" stroke-linejoin="round" stroke-width="3" d="M179.25-25.957h5.953a6.16 6.16 0 0 1 4.356 1.805l4.894 4.894c.996.996 2.61.996 3.61 0l4.894-4.894a6.16 6.16 0 0 1 4.356-1.805h245.55a2.55 2.55 0 0 0 2.551-2.55v-47.645a2.55 2.55 0 0 0-2.551-2.551h-245.55c-1.633 0-3.2.648-4.356 1.8l-4.894 4.9c-1 .995-2.614.995-3.61 0l-4.894-4.9a6.17 6.17 0 0 0-4.356-1.8h-11.906a2.55 2.55 0 0 0-2.551 2.55v47.645a2.55 2.55 0 0 0 2.551 2.551z"/><path fill="#ffd9b2" d="M179.25-81.648h5.953c1.633 0 3.199.648 4.356 1.8l4.894 4.899c.996.996 2.61.996 3.61 0l4.894-4.899a6.17 6.17 0 0 1 4.356-1.8h245.55a2.555 2.555 0 0 0 2.551-2.555v-47.645a2.55 2.55 0 0 0-2.551-2.55h-245.55a6.16 6.16 0 0 0-4.356 1.804l-4.894 4.895c-1 1-2.614 1-3.61 0l-4.894-4.895a6.16 6.16 0 0 0-4.356-1.804h-11.906a2.55 2.55 0 0 0-2.551 2.55v47.645a2.553 2.553 0 0 0 2.551 2.555z"/><path fill="none" stroke="#b25900" stroke-linecap="round" stroke-linejoin="round" stroke-width="3" d="M179.25-81.648h5.953c1.633 0 3.199.648 4.356 1.8l4.894 4.899c.996.996 2.61.996 3.61 0l4.894-4.899a6.17 6.17 0 0 1 4.356-1.8h245.55a2.555 2.555 0 0 0 2.551-2.555v-47.645a2.55 2.55 0 0 0-2.551-2.55h-245.55a6.16 6.16 0 0 0-4.356 1.804l-4.894 4.895c-1 1-2.614 1-3.61 0l-4.894-4.895a6.16 6.16 0 0 0-4.356-1.804h-11.906a2.55 2.55 0 0 0-2.551 2.55v47.645a2.553 2.553 0 0 0 2.551 2.555z"/><path fill="#ffd9b2" d="M179.25-137.344h5.953c1.633 0 3.199.649 4.356 1.805l4.894 4.894c.996.997 2.61.997 3.61 0l4.894-4.894a6.16 6.16 0 0 1 4.356-1.805h245.55a2.55 2.55 0 0 0 2.551-2.551v-47.644a2.55 2.55 0 0 0-2.551-2.551h-245.55a6.16 6.16 0 0 0-4.356 1.805l-4.894 4.894c-1 .996-2.614.996-3.61 0l-4.894-4.894a6.16 6.16 0 0 0-4.356-1.805h-11.906a2.55 2.55 0 0 0-2.551 2.551v47.644a2.55 2.55 0 0 0 2.551 2.551z"/><path fill="none" stroke="#b25900" stroke-linecap="round" stroke-linejoin="round" stroke-width="3" d="M179.25-137.344h5.953c1.633 0 3.199.649 4.356 1.805l4.894 4.894c.996.997 2.61.997 3.61 0l4.894-4.894a6.16 6.16 0 0 1 4.356-1.805h245.55a2.55 2.55 0 0 0 2.551-2.551v-47.644a2.55 2.55 0 0 0-2.551-2.551h-245.55a6.16 6.16 0 0 0-4.356 1.805l-4.894 4.894c-1 .996-2.614.996-3.61 0l-4.894-4.894a6.16 6.16 0 0 0-4.356-1.805h-11.906a2.55 2.55 0 0 0-2.551 2.551v47.644a2.55 2.55 0 0 0 2.551 2.551z"/><path fill="#b2ffb2" d="m194.949-219.66 10.434 14.398a12.49 12.49 0 0 0 10.117 5.168h148.914a12.49 12.49 0 0 0 10.121-5.168l20.863-28.797a8.81 8.81 0 0 0 0-10.332l-20.863-28.797a12.5 12.5 0 0 0-10.121-5.167H215.5c-4.004 0-7.77 1.921-10.117 5.167l-20.863 28.797a8.8 8.8 0 0 0 0 10.332z"/><path fill="none" stroke="#00b200" stroke-linecap="round" stroke-linejoin="round" stroke-width="3" d="m194.949-219.66 10.434 14.398a12.49 12.49 0 0 0 10.117 5.168h148.914a12.49 12.49 0 0 0 10.121-5.168l20.863-28.797a8.81 8.81 0 0 0 0-10.332l-20.863-28.797a12.5 12.5 0 0 0-10.121-5.167H215.5c-4.004 0-7.77 1.921-10.117 5.167l-20.863 28.797a8.8 8.8 0 0 0 0 10.332z"/><path fill="#b2ffb2" d="m255.66-226.039 9.504 8.844c3 2.793 6.945 4.343 11.047 4.343h79.699c4.102 0 8.047-1.55 11.051-4.343l19.008-17.684a5.94 5.94 0 0 0 0-8.691l-19.008-17.684a16.22 16.22 0 0 0-11.051-4.344h-79.699a16.2 16.2 0 0 0-11.047 4.344l-19.008 17.684a5.936 5.936 0 0 0 0 8.691z"/><path fill="none" stroke="#00b200" stroke-linecap="round" stroke-linejoin="round" stroke-width="3" d="m255.66-226.039 9.504 8.844c3 2.793 6.945 4.343 11.047 4.343h79.699c4.102 0 8.047-1.55 11.051-4.343l19.008-17.684a5.94 5.94 0 0 0 0-8.691l-19.008-17.684a16.22 16.22 0 0 0-11.051-4.344h-79.699a16.2 16.2 0 0 0-11.047 4.344l-19.008 17.684a5.936 5.936 0 0 0 0 8.691z"/><path fill="#b2ffff" d="M145.234-293.809h14.457c1.633 0 3.2.649 4.356 1.805l4.894 4.899a2.554 2.554 0 0 0 3.61 0l4.894-4.899a6.16 6.16 0 0 1 4.356-1.805H446.91v-52.746a677.6 677.6 0 0 0-150.84-17.008 677.5 677.5 0 0 0-150.836 17.008z"/><path fill="none" stroke="#00b2b2" stroke-linecap="round" stroke-linejoin="round" stroke-width="3" d="M145.234-293.809h14.457c1.633 0 3.2.649 4.356 1.805l4.894 4.899a2.554 2.554 0 0 0 3.61 0l4.894-4.899a6.16 6.16 0 0 1 4.356-1.805H446.91v-52.746a677.6 677.6 0 0 0-150.84-17.008 677.5 677.5 0 0 0-150.836 17.008z"/><path d="M22.223-150.281c0-1.289 0-2.246-1.051-3.18-.836-.762-1.91-1.098-2.961-1.098-1.961 0-3.469 1.293-3.469 2.844 0 .692.457 1.027 1.008 1.027.57 0 .977-.406.977-.98 0-.98-.86-.98-1.22-.98.552-1 1.7-1.43 2.653-1.43 1.102 0 2.512.906 2.512 3.055v.957c-4.805.074-6.621 2.082-6.621 3.918 0 1.89 2.199 2.488 3.656 2.488 1.578 0 2.652-.957 3.105-2.106.098 1.125.836 1.985 1.868 1.985.5 0 1.886-.336 1.886-2.246v-1.34h-.527v1.34c0 1.363-.57 1.554-.906 1.554-.91 0-.91-1.269-.91-1.625zm-1.551 3.011c0 2.34-1.746 3.129-2.774 3.129-1.171 0-2.148-.859-2.148-2.007 0-3.153 4.063-3.442 4.922-3.489zm13.18-4.66c.214-.523.62-1.554 2.148-1.578v-.691c-.691.047-1.027.047-1.766.047-.504 0-.863 0-1.96-.047v.691c1.003.047 1.12.766 1.12 1.028 0 .214-.046.335-.167.621l-2.438 6.168-2.676-6.739c-.117-.336-.14-.336-.14-.457 0-.621.906-.621 1.336-.621v-.691c-.598.047-1.84.047-2.485.047-.789 0-.836 0-2.293-.047v.691c1.336 0 1.578.098 1.864.836l3.418 8.555c.117.336.164.457.453.457.168 0 .312-.051.476-.457zm10.472 1.649c0-1.289 0-2.246-1.05-3.18-.837-.762-1.915-1.098-2.965-1.098-1.957 0-3.465 1.293-3.465 2.844 0 .692.453 1.027 1.004 1.027.574 0 .98-.406.98-.98 0-.98-.86-.98-1.219-.98.551-1 1.696-1.43 2.653-1.43 1.097 0 2.508.906 2.508 3.055v.957c-4.801.074-6.618 2.082-6.618 3.918 0 1.89 2.2 2.488 3.657 2.488 1.574 0 2.652-.957 3.105-2.106.094 1.125.836 1.985 1.863 1.985.504 0 1.887-.336 1.887-2.246v-1.34h-.523v1.34c0 1.363-.575 1.554-.907 1.554-.91 0-.91-1.269-.91-1.625zm-1.554 3.011c0 2.34-1.743 3.129-2.77 3.129-1.172 0-2.152-.859-2.152-2.007 0-3.153 4.062-3.442 4.922-3.489zm14.664-2.437c0-2.223 0-2.891-.551-3.656-.692-.934-1.813-1.075-2.625-1.075-2.32 0-3.227 1.985-3.418 2.461h-.028v-2.461l-3.25.262v.692c1.626 0 1.82.168 1.82 1.339v6.477c0 1.074-.265 1.074-1.82 1.074v.696c.626-.051 1.915-.051 2.583-.051.695 0 1.984 0 2.605.051v-.696c-1.531 0-1.816 0-1.816-1.074v-4.445c0-2.508 1.648-3.848 3.129-3.848 1.484 0 1.82 1.219 1.82 2.676v5.617c0 1.074-.266 1.074-1.82 1.074v.696c.624-.051 1.914-.051 2.581-.051.696 0 1.985 0 2.606.051v-.696c-1.195 0-1.793 0-1.816-.715zm11.472-3.824c.215-.262.215-.309.215-.407 0-.261-.168-.261-.574-.261h-7.504l-.262 3.801h.524c.144-2.442.597-3.325 3.203-3.325h2.773l-6.836 9.395c0 .43.047.43.575.43h7.789l.382-4.399h-.527c-.215 2.723-.621 3.871-3.465 3.871h-2.89zm10.516 3.25c0-1.289 0-2.246-1.047-3.18-.84-.762-1.914-1.098-2.965-1.098-1.96 0-3.465 1.293-3.465 2.844 0 .692.453 1.027 1.004 1.027.574 0 .98-.406.98-.98 0-.98-.863-.98-1.218-.98.547-1 1.695-1.43 2.648-1.43 1.102 0 2.512.906 2.512 3.055v.957c-4.805.074-6.621 2.082-6.621 3.918 0 1.89 2.2 2.488 3.656 2.488 1.578 0 2.656-.957 3.11-2.106.093 1.125.836 1.985 1.863 1.985.5 0 1.887-.336 1.887-2.246v-1.34h-.524v1.34c0 1.363-.574 1.554-.91 1.554-.91 0-.91-1.269-.91-1.625zm-1.55 3.011c0 2.34-1.747 3.129-2.774 3.129-1.168 0-2.149-.859-2.149-2.007 0-3.153 4.063-3.442 4.922-3.489zm-60.88-68.914-3.324.262v.695c1.625 0 1.816.164 1.816 1.336v14.289h.528c.093-.187.761-1.382.86-1.55.55.882 1.577 1.793 3.105 1.793 2.75 0 5.164-2.321 5.164-5.403 0-3.035-2.246-5.379-4.899-5.379-1.316 0-2.437.602-3.25 1.602zm.047 8.938c0-.43 0-.481.262-.863.574-.86 1.625-1.551 2.797-1.551.715 0 3.226.289 3.226 4.875 0 1.601-.238 2.605-.812 3.465-.48.742-1.434 1.48-2.63 1.48-1.288 0-2.128-.836-2.534-1.48-.309-.5-.309-.598-.309-1.004zm13.071-8.938-3.32.262v.695c1.624 0 1.816.164 1.816 1.336v12.524c0 1.074-.262 1.074-1.817 1.074v.691c.668-.046 1.84-.046 2.555-.046.718 0 1.914 0 2.582.046v-.691c-1.528 0-1.817 0-1.817-1.074zm13.359 11.469c0-3.082-2.344-5.543-5.114-5.543-2.867 0-5.136 2.531-5.136 5.543 0 3.059 2.386 5.356 5.113 5.356 2.816 0 5.137-2.344 5.137-5.356m-5.114 4.828c-.886 0-1.96-.383-2.652-1.554-.648-1.075-.672-2.485-.672-3.489 0-.91 0-2.367.742-3.441a3.06 3.06 0 0 1 2.559-1.41c.93 0 1.934.429 2.578 1.363.742 1.098.742 2.605.742 3.488 0 .836 0 2.321-.62 3.442-.669 1.148-1.77 1.601-2.676 1.601m15.194-8.554c-.284 0-1.171 0-1.171.976 0 .574.406.981.98.981.551 0 1.004-.332 1.004-1.024 0-1.601-1.672-2.75-3.61-2.75-2.792 0-5.019 2.485-5.019 5.496 0 3.059 2.297 5.403 4.996 5.403 3.157 0 3.872-2.868 3.872-3.086 0-.215-.168-.215-.239-.215-.215 0-.238.07-.308.359-.528 1.699-1.82 2.414-3.11 2.414-1.457 0-3.39-1.265-3.39-4.898 0-3.969 2.03-4.949 3.222-4.949.91 0 2.223.363 2.774 1.293m10.399 0c-.286 0-1.169 0-1.169.976 0 .574.407.981.977.981.55 0 1.004-.332 1.004-1.024 0-1.601-1.672-2.75-3.606-2.75-2.797 0-5.02 2.485-5.02 5.496 0 3.059 2.294 5.403 4.997 5.403 3.152 0 3.867-2.868 3.867-3.086 0-.215-.164-.215-.238-.215-.215 0-.239.07-.309.359-.527 1.699-1.816 2.414-3.11 2.414-1.456 0-3.39-1.265-3.39-4.898 0-3.969 2.031-4.949 3.227-4.949.906 0 2.222.363 2.77 1.293m12.718 3.726c0-3.082-2.34-5.543-5.113-5.543-2.868 0-5.137 2.531-5.137 5.543 0 3.059 2.387 5.356 5.113 5.356 2.82 0 5.137-2.344 5.137-5.356m-5.113 4.828c-.883 0-1.961-.383-2.653-1.554-.644-1.075-.668-2.485-.668-3.489 0-.91 0-2.367.739-3.441a3.07 3.07 0 0 1 2.558-1.41c.93 0 1.938.429 2.578 1.363.743 1.098.743 2.605.743 3.488 0 .836 0 2.321-.621 3.442-.668 1.148-1.77 1.601-2.676 1.601m22.273-15.269c0-.453 0-.574-.336-.574-.191 0-.261 0-.453.285l-7.195 11.16v.695h6.285v2.176c0 .883-.047 1.121-1.793 1.121h-.477v.691c.551-.046 2.438-.046 3.11-.046.668 0 2.578 0 3.129.046v-.691h-.48c-1.72 0-1.79-.238-1.79-1.121v-2.176h2.414v-.695h-2.414zm-1.578 1.863v9.008h-5.809zm99.172 160.512c0-1.29 0-2.246-1.051-3.18-.836-.762-1.91-1.098-2.961-1.098-1.961 0-3.465 1.293-3.465 2.844 0 .692.453 1.028 1.004 1.028.574 0 .981-.407.981-.981 0-.98-.864-.98-1.219-.98.547-1 1.695-1.43 2.648-1.43 1.102 0 2.512.906 2.512 3.055v.957c-4.805.074-6.617 2.082-6.617 3.918 0 1.89 2.195 2.488 3.652 2.488 1.578 0 2.657-.957 3.11-2.106.093 1.125.836 1.985 1.863 1.985.5 0 1.887-.336 1.887-2.246v-1.34h-.524v1.34c0 1.363-.574 1.554-.91 1.554-.91 0-.91-1.27-.91-1.625zm-1.551 3.011c0 2.34-1.742 3.13-2.773 3.13-1.168 0-2.149-.86-2.149-2.008 0-3.153 4.063-3.438 4.922-3.489zm13.18-4.66c.215-.523.621-1.554 2.148-1.578v-.691c-.691.047-1.027.047-1.765.047-.504 0-.864 0-1.961-.047v.691c1.004.047 1.121.766 1.121 1.028 0 .214-.047.335-.164.62l-2.438 6.169-2.679-6.739c-.118-.336-.141-.336-.141-.457 0-.62.906-.62 1.336-.62v-.692c-.594.047-1.84.047-2.485.047-.789 0-.835 0-2.293-.047v.691c1.34 0 1.579.098 1.864.836l3.418 8.555c.121.336.168.457.453.457.168 0 .312-.05.48-.457zm10.472 1.649c0-1.29 0-2.246-1.05-3.18-.836-.762-1.91-1.098-2.965-1.098-1.957 0-3.465 1.293-3.465 2.844 0 .692.453 1.028 1.004 1.028.574 0 .98-.407.98-.981 0-.98-.859-.98-1.218-.98.55-1 1.699-1.43 2.652-1.43 1.102 0 2.508.906 2.508 3.055v.957c-4.801.074-6.617 2.082-6.617 3.918 0 1.89 2.199 2.488 3.656 2.488 1.578 0 2.652-.957 3.105-2.106.098 1.125.836 1.985 1.864 1.985.503 0 1.89-.336 1.89-2.246v-1.34h-.527v1.34c0 1.363-.574 1.554-.906 1.554-.911 0-.911-1.27-.911-1.625zm-1.554 3.011c0 2.34-1.742 3.13-2.77 3.13-1.172 0-2.152-.86-2.152-2.008 0-3.153 4.062-3.438 4.922-3.489zm14.664-2.437c0-2.223 0-2.89-.547-3.656-.695-.934-1.816-1.075-2.629-1.075-2.32 0-3.227 1.985-3.418 2.461h-.023v-2.46l-3.25.261v.692c1.625 0 1.816.168 1.816 1.34v6.476c0 1.074-.262 1.074-1.816 1.074v.696c.621-.051 1.91-.051 2.578-.051.695 0 1.984 0 2.605.05v-.695c-1.527 0-1.816 0-1.816-1.074v-4.445c0-2.508 1.648-3.848 3.133-3.848 1.48 0 1.816 1.219 1.816 2.676v5.617c0 1.074-.266 1.074-1.816 1.074v.696c.621-.051 1.91-.051 2.578-.051.695 0 1.984 0 2.605.05v-.695c-1.195 0-1.793 0-1.816-.715zm11.57-3.824c.219-.262.219-.309.219-.407 0-.261-.168-.261-.574-.261h-7.504l-.266 3.8h.527c.141-2.437.598-3.324 3.204-3.324h2.769l-6.832 9.395c0 .43.047.43.574.43h7.789l.383-4.399h-.527c-.215 2.723-.621 3.871-3.465 3.871h-2.891zm10.52 3.25c0-1.29 0-2.246-1.051-3.18-.836-.762-1.91-1.098-2.961-1.098-1.961 0-3.469 1.293-3.469 2.844 0 .692.457 1.028 1.004 1.028.574 0 .981-.407.981-.981 0-.98-.86-.98-1.219-.98.551-1 1.699-1.43 2.652-1.43 1.102 0 2.512.906 2.512 3.055v.957c-4.805.074-6.621 2.082-6.621 3.918 0 1.89 2.199 2.488 3.656 2.488 1.578 0 2.652-.957 3.106-2.106.097 1.125.835 1.985 1.867 1.985.5 0 1.886-.336 1.886-2.246v-1.34h-.527v1.34c0 1.363-.57 1.554-.906 1.554-.91 0-.91-1.27-.91-1.625zm-1.551 3.011c0 2.34-1.746 3.13-2.774 3.13-1.171 0-2.152-.86-2.152-2.008 0-3.153 4.067-3.438 4.926-3.489zm-59.117-48.289c-1.532 0-1.817 0-1.817-1.074v-4.156c.43.594 1.41 1.527 2.942 1.527 2.746 0 5.16-2.316 5.16-5.398 0-3.035-2.246-5.379-4.852-5.379-2.101 0-3.226 1.508-3.297 1.601v-1.601l-3.324.266v.691c1.676 0 1.821.168 1.821 1.219v11.23c0 1.074-.266 1.074-1.821 1.074v.696c.625-.051 1.914-.051 2.582-.051.692 0 1.985 0 2.606.05zm-1.817-11.562c0-.457 0-.481.266-.863a3.44 3.44 0 0 1 2.793-1.528c1.793 0 3.226 2.172 3.226 4.852 0 2.84-1.625 4.922-3.464 4.922a2.82 2.82 0 0 1-1.911-.766c-.55-.551-.91-1.027-.91-1.695zm12.953 2.055c0-2.321.957-4.497 2.793-4.497.196 0 .243 0 .336.028-.191.094-.574.238-.574.883 0 .691.551.957.934.957.476 0 .957-.313.957-.957 0-.715-.645-1.387-1.672-1.387-2.035 0-2.727 2.199-2.871 2.652h-.024v-2.652l-3.203.266v.691c1.625 0 1.821.168 1.821 1.34v6.472c0 1.075-.266 1.075-1.821 1.075v.695c.672-.047 1.985-.047 2.703-.047.645 0 2.34 0 2.891.047v-.695h-.477c-1.746 0-1.793-.262-1.793-1.121zm14.262.023c.524 0 .574 0 .574-.453 0-2.414-1.293-4.66-4.183-4.66-2.723 0-4.828 2.461-4.828 5.422 0 3.156 2.437 5.472 5.089 5.472 2.844 0 3.922-2.582 3.922-3.082 0-.144-.121-.238-.265-.238-.192 0-.239.117-.285.238-.622 2.008-2.223 2.555-3.227 2.555s-3.418-.668-3.418-4.801v-.453zm-6.598-.453c.192-3.754 2.297-4.184 2.965-4.184 2.559 0 2.7 3.367 2.723 4.184zm25.079.191c0-2.226 0-2.894-.551-3.66-.692-.93-1.813-1.074-2.625-1.074-1.985 0-2.988 1.434-3.371 2.367-.336-1.84-1.625-2.367-3.129-2.367-2.32 0-3.227 1.984-3.418 2.461h-.027v-2.461l-3.25.266v.691c1.625 0 1.82.168 1.82 1.34v6.472c0 1.075-.266 1.075-1.82 1.075v.695c.625-.047 1.914-.047 2.582-.047.695 0 1.984 0 2.605.047v-.695c-1.531 0-1.816 0-1.816-1.075v-4.445c0-2.508 1.648-3.848 3.129-3.848 1.484 0 1.82 1.219 1.82 2.68v5.613c0 1.075-.266 1.075-1.82 1.075v.695c.625-.047 1.914-.047 2.582-.047.695 0 1.984 0 2.605.047v-.695c-1.531 0-1.816 0-1.816-1.075v-4.445c0-2.508 1.648-3.848 3.129-3.848 1.484 0 1.82 1.219 1.82 2.68v5.613c0 1.075-.266 1.075-1.82 1.075v.695c.625-.047 1.914-.047 2.582-.047.695 0 1.984 0 2.605.047v-.695c-1.195 0-1.793 0-1.816-.715zm6.523-8.914c0-.625-.5-1.172-1.168-1.172-.625 0-1.148.5-1.148 1.149a1.15 1.15 0 0 0 1.148 1.168c.738 0 1.168-.621 1.168-1.145m-3.297 4.446v.691c1.528 0 1.746.144 1.746 1.312v6.5c0 1.075-.265 1.075-1.816 1.075v.695c.668-.047 1.816-.047 2.508-.047.261 0 1.648 0 2.461.047v-.695c-1.551 0-1.649-.118-1.649-1.047v-8.797zm17.598-4.446c0-.625-.5-1.172-1.168-1.172-.625 0-1.149.5-1.149 1.149 0 .715.575 1.168 1.149 1.168.738 0 1.168-.621 1.168-1.145m-3.297 4.446v.691c1.527 0 1.742.144 1.742 1.312v6.5c0 1.075-.262 1.075-1.812 1.075v.695c.668-.047 1.812-.047 2.507-.047.262 0 1.649 0 2.461.047v-.695c-1.554 0-1.648-.118-1.648-1.047v-8.797zm16.273 4.468c0-2.226 0-2.894-.55-3.66-.692-.93-1.817-1.074-2.629-1.074-2.317 0-3.227 1.984-3.414 2.461h-.028v-2.461l-3.25.266v.691c1.625 0 1.817.168 1.817 1.34v6.472c0 1.075-.262 1.075-1.817 1.075v.695c.621-.047 1.914-.047 2.582-.047.696 0 1.985 0 2.606.047v-.695c-1.531 0-1.817 0-1.817-1.075v-4.445c0-2.508 1.649-3.848 3.129-3.848 1.485 0 1.817 1.219 1.817 2.68v5.613c0 1.075-.262 1.075-1.817 1.075v.695c.621-.047 1.914-.047 2.582-.047.696 0 1.985 0 2.606.047v-.695c-1.196 0-1.793 0-1.817-.715zm5.68-3.8h3.371v-.696h-3.371v-4.394h-.523c-.024 2.246-.887 4.539-3.063 4.609v.481h2.031v6.64c0 2.652 1.77 3.203 3.039 3.203 1.504 0 2.293-1.48 2.293-3.203v-1.359h-.527v1.312c0 1.723-.691 2.723-1.625 2.723-1.625 0-1.625-2.219-1.625-2.625zm14.238 4.062c.528 0 .575 0 .575-.453 0-2.414-1.289-4.66-4.184-4.66-2.723 0-4.824 2.461-4.824 5.422 0 3.156 2.437 5.472 5.086 5.472 2.843 0 3.922-2.582 3.922-3.082 0-.144-.122-.238-.262-.238-.192 0-.242.117-.289.238-.621 2.008-2.223 2.555-3.227 2.555s-3.418-.668-3.418-4.801v-.453zm-6.597-.453c.191-3.754 2.297-4.184 2.965-4.184 2.558 0 2.699 3.367 2.722 4.184zm11.836.43c0-2.321.957-4.497 2.797-4.497.191 0 .238 0 .335.028-.195.094-.574.238-.574.883 0 .691.547.957.93.957.48 0 .957-.313.957-.957 0-.715-.645-1.387-1.672-1.387-2.031 0-2.726 2.199-2.867 2.652h-.024v-2.652l-3.203.266v.691c1.625 0 1.817.168 1.817 1.34v6.472c0 1.075-.266 1.075-1.817 1.075v.695c.668-.047 1.985-.047 2.7-.047.644 0 2.339 0 2.89.047v-.695h-.476c-1.746 0-1.793-.262-1.793-1.121zm9.101 0c0-2.321.953-4.497 2.793-4.497.192 0 .238 0 .336.028-.191.094-.574.238-.574.883 0 .691.551.957.933.957.477 0 .958-.313.958-.957 0-.715-.649-1.387-1.676-1.387-2.032 0-2.723 2.199-2.867 2.652h-.024v-2.652l-3.203.266v.691c1.625 0 1.816.168 1.816 1.34v6.472c0 1.075-.261 1.075-1.816 1.075v.695c.672-.047 1.984-.047 2.699-.047.649 0 2.344 0 2.895.047v-.695h-.481c-1.742 0-1.789-.262-1.789-1.121zm12.371-4.707v.691c1.625 0 1.817.168 1.817 1.34v4.273c0 2.031-1.075 3.731-2.867 3.731-1.961 0-2.079-1.125-2.079-2.391v-7.91l-3.371.266v.691c1.817 0 1.817.07 1.817 2.199v3.582c0 1.481 0 2.344.718 3.133.575.621 1.555.906 2.774.906.406 0 1.168 0 1.98-.691.696-.551 1.075-1.461 1.075-1.461v2.152l3.324-.238v-.695c-1.625 0-1.817-.164-1.817-1.336v-8.508zm9.852.668h3.371v-.696h-3.371v-4.394h-.527c-.024 2.246-.883 4.539-3.059 4.609v.481h2.031v6.64c0 2.652 1.77 3.203 3.035 3.203 1.508 0 2.297-1.48 2.297-3.203v-1.359h-.527v1.312c0 1.723-.692 2.723-1.625 2.723-1.625 0-1.625-2.219-1.625-2.625zm9.098 0h3.371v-.696h-3.371v-4.394h-.524c-.023 2.246-.883 4.539-3.059 4.609v.481h2.032v6.64c0 2.652 1.769 3.203 3.035 3.203 1.504 0 2.293-1.48 2.293-3.203v-1.359h-.527v1.312c0 1.723-.692 2.723-1.625 2.723-1.625 0-1.625-2.219-1.625-2.625zm16.054 4.492c0-3.082-2.34-5.543-5.113-5.543-2.867 0-5.137 2.531-5.137 5.543 0 3.058 2.391 5.351 5.113 5.351 2.821 0 5.137-2.34 5.137-5.351m-5.113 4.824c-.883 0-1.957-.379-2.652-1.551-.645-1.074-.668-2.484-.668-3.488 0-.91 0-2.367.738-3.442a3.07 3.07 0 0 1 2.558-1.41c.934 0 1.938.43 2.583 1.364.742 1.097.742 2.601.742 3.488 0 .836 0 2.316-.625 3.441-.668 1.145-1.766 1.598-2.676 1.598m9.836-5.277c0-2.321.957-4.497 2.797-4.497.191 0 .238 0 .336.028-.192.094-.575.238-.575.883 0 .691.547.957.93.957.481 0 .957-.313.957-.957 0-.715-.644-1.387-1.672-1.387-2.031 0-2.722 2.199-2.867 2.652h-.023v-2.652l-3.203.266v.691c1.625 0 1.816.168 1.816 1.34v6.472c0 1.075-.266 1.075-1.816 1.075v.695c.668-.047 1.984-.047 2.699-.047.644 0 2.344 0 2.89.047v-.695h-.476c-1.742 0-1.793-.262-1.793-1.121zm14.262.023c.527 0 .574 0 .574-.453 0-2.414-1.289-4.66-4.184-4.66-2.722 0-4.824 2.461-4.824 5.422 0 3.156 2.437 5.472 5.09 5.472 2.844 0 3.918-2.582 3.918-3.082 0-.144-.121-.238-.262-.238-.191 0-.242.117-.285.238-.625 2.008-2.223 2.555-3.231 2.555-1 0-3.414-.668-3.414-4.801v-.453zm-6.594-.453c.191-3.754 2.293-4.184 2.961-4.184 2.558 0 2.703 3.367 2.726 4.184zm-168.336-56.082c0-1.293 0-2.25-1.051-3.18-.836-.765-1.91-1.101-2.961-1.101-1.961 0-3.465 1.293-3.465 2.843 0 .696.453 1.032 1.004 1.032.574 0 .981-.407.981-.985 0-.976-.864-.976-1.219-.976.547-1.004 1.695-1.434 2.648-1.434 1.102 0 2.512.906 2.512 3.059v.953c-4.805.074-6.617 2.082-6.617 3.922 0 1.886 2.195 2.484 3.652 2.484 1.578 0 2.657-.957 3.11-2.102.093 1.122.836 1.981 1.863 1.981.5 0 1.887-.332 1.887-2.246v-1.336h-.524v1.336c0 1.363-.574 1.555-.91 1.555-.91 0-.91-1.266-.91-1.625zm-1.551 3.008c0 2.343-1.742 3.132-2.773 3.132-1.168 0-2.149-.863-2.149-2.007 0-3.157 4.063-3.442 4.922-3.493zm8.02-2.196c0-2.32.957-4.496 2.797-4.496.191 0 .238 0 .335.028-.195.093-.574.238-.574.882 0 .692.547.954.93.954.48 0 .957-.309.957-.954 0-.718-.645-1.386-1.672-1.386-2.031 0-2.726 2.199-2.867 2.652h-.024v-2.652l-3.203.261v.696c1.625 0 1.817.164 1.817 1.336v6.476c0 1.074-.266 1.074-1.817 1.074v.696c.668-.047 1.985-.047 2.7-.047.644 0 2.339 0 2.89.047v-.696h-.476c-1.746 0-1.793-.261-1.793-1.121zm9.101 0c0-2.32.953-4.496 2.793-4.496.192 0 .238 0 .336.028-.191.093-.574.238-.574.882 0 .692.551.954.933.954.477 0 .958-.309.958-.954 0-.718-.649-1.386-1.676-1.386-2.032 0-2.723 2.199-2.867 2.652h-.024v-2.652l-3.203.261v.696c1.625 0 1.816.164 1.816 1.336v6.476c0 1.074-.261 1.074-1.816 1.074v.696c.672-.047 1.984-.047 2.699-.047.649 0 2.344 0 2.895.047v-.696h-.481c-1.742 0-1.789-.261-1.789-1.121zm14.36.024c.527 0 .574 0 .574-.457 0-2.41-1.289-4.66-4.184-4.66-2.722 0-4.824 2.461-4.824 5.425 0 3.153 2.437 5.473 5.09 5.473 2.844 0 3.918-2.582 3.918-3.082 0-.145-.121-.238-.262-.238-.191 0-.242.117-.285.238-.625 2.008-2.223 2.555-3.231 2.555-1 0-3.414-.668-3.414-4.801v-.453zm-6.594-.457c.191-3.75 2.293-4.18 2.961-4.18 2.558 0 2.703 3.367 2.726 4.18zm11.855-3.606h3.371V-168h-3.371v-4.398h-.523c-.024 2.25-.887 4.543-3.059 4.613v.48h2.032v6.641c0 2.652 1.765 3.203 3.035 3.203 1.504 0 2.293-1.48 2.293-3.203v-1.359h-.528v1.312c0 1.719-.691 2.723-1.625 2.723-1.625 0-1.625-2.223-1.625-2.629zm9.078 4.039c0-2.32.957-4.496 2.793-4.496.196 0 .243 0 .336.028-.191.093-.574.238-.574.882 0 .692.551.954.934.954.476 0 .957-.309.957-.954 0-.718-.645-1.386-1.672-1.386-2.035 0-2.727 2.199-2.871 2.652h-.024v-2.652l-3.203.261v.696c1.625 0 1.821.164 1.821 1.336v6.476c0 1.074-.266 1.074-1.821 1.074v.696c.672-.047 1.985-.047 2.703-.047.645 0 2.34 0 2.891.047v-.696h-.477c-1.746 0-1.793-.261-1.793-1.121zm14.332-.812c0-1.293 0-2.25-1.05-3.18-.836-.765-1.91-1.101-2.965-1.101-1.957 0-3.465 1.293-3.465 2.843 0 .696.453 1.032 1.004 1.032.574 0 .98-.407.98-.985 0-.976-.859-.976-1.218-.976.55-1.004 1.699-1.434 2.652-1.434 1.102 0 2.508.906 2.508 3.059v.953c-4.801.074-6.617 2.082-6.617 3.922 0 1.886 2.199 2.484 3.656 2.484 1.578 0 2.652-.957 3.105-2.102.098 1.122.836 1.981 1.864 1.981.503 0 1.89-.332 1.89-2.246v-1.336h-.527v1.336c0 1.363-.574 1.555-.906 1.555-.911 0-.911-1.266-.911-1.625zm-1.554 3.008c0 2.343-1.742 3.132-2.77 3.132-1.172 0-2.152-.863-2.152-2.007 0-3.157 4.062-3.442 4.922-3.493zm-83.93-82.239c0-.429 0-.55-.242-.55-.188 0-.641.527-.813.742-.738-.598-1.48-.742-2.242-.742-2.894 0-3.754 1.578-3.754 2.89 0 .266 0 1.102.91 1.938.762.672 1.575.836 2.676 1.051 1.313.261 1.625.335 2.223.812.43.359.738.887.738 1.555 0 1.027-.597 2.175-2.699 2.175-1.578 0-2.723-.91-3.25-3.296-.094-.434-.094-.457-.117-.481-.051-.098-.145-.098-.215-.098-.266 0-.266.122-.266.551v3.25c0 .43 0 .551.239.551.121 0 .144-.023.55-.527.121-.168.121-.215.477-.598.91 1.125 2.199 1.125 2.605 1.125 2.508 0 3.75-1.387 3.75-3.273 0-1.289-.785-2.055-1-2.27-.863-.742-1.507-.887-3.086-1.172-.714-.144-2.46-.48-2.46-1.914 0-.738.503-1.84 2.656-1.84 2.601 0 2.746 2.227 2.793 2.965.023.192.191.192.261.192.266 0 .266-.118.266-.551zm10.613 4.567c.528 0 .575 0 .575-.457 0-2.41-1.289-4.66-4.184-4.66-2.723 0-4.824 2.461-4.824 5.425 0 3.153 2.437 5.473 5.086 5.473 2.843 0 3.922-2.582 3.922-3.082 0-.145-.122-.238-.262-.238-.192 0-.242.117-.289.238-.621 2.008-2.223 2.555-3.227 2.555s-3.418-.668-3.418-4.801v-.453zm-6.597-.457c.191-3.75 2.297-4.18 2.965-4.18 2.558 0 2.699 3.367 2.722 4.18zm41.48.191c0-2.222 0-2.89-.551-3.656-.695-.93-1.816-1.074-2.629-1.074-2.316 0-3.226 1.984-3.417 2.461h-.024v-2.461l-3.25.261v.696c1.625 0 1.816.164 1.816 1.336v6.476c0 1.074-.261 1.074-1.816 1.074v.696c.621-.047 1.914-.047 2.582-.047.692 0 1.984 0 2.606.047v-.696c-1.532 0-1.817 0-1.817-1.074v-4.445c0-2.508 1.649-3.848 3.129-3.848 1.484 0 1.816 1.219 1.816 2.676v5.617c0 1.074-.261 1.074-1.816 1.074v.696c.621-.047 1.914-.047 2.582-.047.692 0 1.981 0 2.606.047v-.696c-1.196 0-1.793 0-1.817-.714zm13.332.695c0-3.085-2.34-5.546-5.113-5.546-2.867 0-5.137 2.535-5.137 5.546 0 3.059 2.391 5.352 5.113 5.352 2.821 0 5.137-2.344 5.137-5.352m-5.113 4.825c-.883 0-1.957-.379-2.652-1.551-.645-1.078-.668-2.484-.668-3.492 0-.907 0-2.364.738-3.438a3.07 3.07 0 0 1 2.558-1.41c.934 0 1.938.43 2.583 1.363.742 1.098.742 2.602.742 3.485 0 .84 0 2.32-.625 3.441-.668 1.149-1.766 1.602-2.676 1.602m16.48-5.52c0-2.222 0-2.89-.55-3.656-.692-.93-1.817-1.074-2.629-1.074-2.317 0-3.227 1.984-3.414 2.461h-.028v-2.461l-3.25.261v.696c1.625 0 1.817.164 1.817 1.336v6.476c0 1.074-.262 1.074-1.817 1.074v.696c.621-.047 1.914-.047 2.582-.047.696 0 1.985 0 2.606.047v-.696c-1.531 0-1.817 0-1.817-1.074v-4.445c0-2.508 1.649-3.848 3.129-3.848 1.485 0 1.817 1.219 1.817 2.676v5.617c0 1.074-.262 1.074-1.817 1.074v.696c.621-.047 1.914-.047 2.582-.047.696 0 1.985 0 2.606.047v-.696c-1.196 0-1.793 0-1.817-.714zm29.477-10.777-3.32.262v.695c1.625 0 1.812.168 1.812 1.336v12.523c0 1.074-.262 1.074-1.812 1.074v.696c.668-.047 1.836-.047 2.554-.047.719 0 1.914 0 2.582.047v-.696c-1.531 0-1.816 0-1.816-1.074zm9.652 6.308v.696c1.625 0 1.817.164 1.817 1.336v4.277c0 2.031-1.075 3.73-2.867 3.73-1.961 0-2.079-1.125-2.079-2.39v-7.91l-3.371.261v.696c1.817 0 1.817.07 1.817 2.195V-237c0 1.48 0 2.344.718 3.133.575.621 1.555.906 2.774.906.406 0 1.168 0 1.98-.695.696-.547 1.075-1.457 1.075-1.457v2.152l3.324-.238v-.696c-1.625 0-1.817-.168-1.817-1.335v-8.508zm14.387 1.434c-.285 0-1.172 0-1.172.98 0 .575.406.981.981.981.55 0 1.004-.336 1.004-1.027 0-1.602-1.672-2.75-3.61-2.75-2.793 0-5.015 2.488-5.015 5.5 0 3.054 2.292 5.398 4.992 5.398 3.156 0 3.871-2.867 3.871-3.082s-.168-.215-.238-.215c-.215 0-.239.07-.309.36-.527 1.695-1.816 2.41-3.109 2.41-1.457 0-3.391-1.266-3.391-4.899 0-3.965 2.031-4.945 3.223-4.945.91 0 2.226.359 2.773 1.289m10.902 3.301c.528 0 .575 0 .575-.457 0-2.41-1.289-4.66-4.184-4.66-2.723 0-4.824 2.461-4.824 5.425 0 3.153 2.437 5.473 5.086 5.473 2.843 0 3.922-2.582 3.922-3.082 0-.145-.122-.238-.262-.238-.192 0-.242.117-.289.238-.621 2.008-2.223 2.555-3.227 2.555s-3.418-.668-3.418-4.801v-.453zm-6.597-.457c.191-3.75 2.297-4.18 2.965-4.18 2.558 0 2.699 3.367 2.722 4.18zm24.867-.379c0-1.293 0-2.25-1.051-3.18-.836-.765-1.91-1.101-2.961-1.101-1.961 0-3.465 1.293-3.465 2.843 0 .696.453 1.032 1.004 1.032.574 0 .981-.407.981-.985 0-.976-.864-.976-1.219-.976.547-1.004 1.695-1.434 2.648-1.434 1.102 0 2.512.906 2.512 3.059v.953c-4.805.074-6.617 2.082-6.617 3.922 0 1.886 2.195 2.484 3.652 2.484 1.578 0 2.657-.957 3.11-2.102.093 1.122.836 1.981 1.863 1.981.5 0 1.887-.332 1.887-2.246v-1.336h-.524v1.336c0 1.363-.574 1.555-.91 1.555-.91 0-.91-1.266-.91-1.625zm-1.551 3.008c0 2.343-1.742 3.132-2.773 3.132-1.168 0-2.149-.863-2.149-2.007 0-3.157 4.063-3.442 4.922-3.493zm12.68-5.473c-.285 0-1.172 0-1.172.98 0 .575.406.981.98.981.551 0 1.004-.336 1.004-1.027 0-1.602-1.672-2.75-3.609-2.75-2.793 0-5.02 2.488-5.02 5.5 0 3.054 2.297 5.398 4.996 5.398 3.157 0 3.872-2.867 3.872-3.082s-.168-.215-.239-.215c-.215 0-.242.07-.308.36-.528 1.695-1.821 2.41-3.11 2.41-1.457 0-3.39-1.266-3.39-4.899 0-3.965 2.031-4.945 3.222-4.945.911 0 2.227.359 2.774 1.289m10.398 0c-.285 0-1.168 0-1.168.98 0 .575.407.981.977.981.551 0 1.004-.336 1.004-1.027 0-1.602-1.672-2.75-3.606-2.75-2.797 0-5.019 2.488-5.019 5.5 0 3.054 2.293 5.398 4.996 5.398 3.152 0 3.871-2.867 3.871-3.082s-.168-.215-.242-.215c-.215 0-.239.07-.309.36-.527 1.695-1.816 2.41-3.109 2.41-1.457 0-3.391-1.266-3.391-4.899 0-3.965 2.031-4.945 3.227-4.945.906 0 2.222.359 2.769 1.289m10.903 3.301c.527 0 .574 0 .574-.457 0-2.41-1.289-4.66-4.184-4.66-2.722 0-4.824 2.461-4.824 5.425 0 3.153 2.437 5.473 5.09 5.473 2.844 0 3.918-2.582 3.918-3.082 0-.145-.121-.238-.262-.238-.191 0-.242.117-.285.238-.625 2.008-2.223 2.555-3.231 2.555-1 0-3.414-.668-3.414-4.801v-.453zm-6.594-.457c.191-3.75 2.293-4.18 2.961-4.18 2.558 0 2.703 3.367 2.726 4.18zm15.68-4.11c0-.429 0-.55-.239-.55-.191 0-.644.527-.812.742-.742-.598-1.481-.742-2.246-.742-2.895 0-3.75 1.578-3.75 2.89 0 .266 0 1.102.906 1.938.766.672 1.574.836 2.676 1.051 1.316.261 1.625.335 2.222.812.43.359.743.887.743 1.555 0 1.027-.598 2.175-2.704 2.175-1.574 0-2.722-.91-3.25-3.296-.093-.434-.093-.457-.117-.481-.047-.098-.144-.098-.215-.098-.261 0-.261.122-.261.551v3.25c0 .43 0 .551.238.551.117 0 .141-.023.547-.527.121-.168.121-.215.48-.598.907 1.125 2.196 1.125 2.602 1.125 2.512 0 3.754-1.387 3.754-3.273 0-1.289-.789-2.055-1.004-2.27-.86-.742-1.504-.887-3.082-1.172-.719-.144-2.461-.48-2.461-1.914 0-.738.5-1.84 2.652-1.84 2.606 0 2.746 2.227 2.797 2.965.024.192.188.192.262.192.262 0 .262-.118.262-.551zm10.585 3.731c0-1.293 0-2.25-1.05-3.18-.836-.765-1.91-1.101-2.965-1.101-1.957 0-3.465 1.293-3.465 2.843 0 .696.453 1.032 1.004 1.032.574 0 .98-.407.98-.985 0-.976-.859-.976-1.218-.976.55-1.004 1.699-1.434 2.652-1.434 1.102 0 2.508.906 2.508 3.059v.953c-4.801.074-6.617 2.082-6.617 3.922 0 1.886 2.199 2.484 3.656 2.484 1.578 0 2.652-.957 3.105-2.102.098 1.122.836 1.981 1.864 1.981.503 0 1.89-.332 1.89-2.246v-1.336h-.527v1.336c0 1.363-.574 1.555-.906 1.555-.911 0-.911-1.266-.911-1.625zm-1.554 3.008c0 2.343-1.742 3.132-2.77 3.132-1.172 0-2.152-.863-2.152-2.007 0-3.157 4.062-3.442 4.922-3.493zm39.64-6.235h2.704v-.695h-2.75v-2.797c0-2.148 1.097-3.25 2.078-3.25.191 0 .55.051.836.192-.094.027-.692.238-.692.933 0 .551.383.93.934.93.574 0 .953-.379.953-.953 0-.883-.859-1.578-2.004-1.578-1.676 0-3.563 1.289-3.563 3.726v2.797h-1.863v.695h1.863v7.836c0 1.074-.261 1.074-1.816 1.074v.696c.668-.047 1.984-.047 2.699-.047.645 0 2.344 0 2.891.047v-.696h-.477c-1.746 0-1.793-.261-1.793-1.121zm12.313 3.227c0-1.293 0-2.25-1.051-3.18-.836-.765-1.91-1.101-2.961-1.101-1.961 0-3.465 1.293-3.465 2.843 0 .696.453 1.032 1.004 1.032.574 0 .981-.407.981-.985 0-.976-.864-.976-1.219-.976.547-1.004 1.695-1.434 2.648-1.434 1.102 0 2.512.906 2.512 3.059v.953c-4.805.074-6.617 2.082-6.617 3.922 0 1.886 2.195 2.484 3.652 2.484 1.578 0 2.657-.957 3.11-2.102.093 1.122.836 1.981 1.863 1.981.5 0 1.887-.332 1.887-2.246v-1.336h-.524v1.336c0 1.363-.574 1.555-.91 1.555-.91 0-.91-1.266-.91-1.625zm-1.551 3.008c0 2.343-1.742 3.132-2.773 3.132-1.168 0-2.149-.863-2.149-2.007 0-3.157 4.063-3.442 4.922-3.493zm8.188-11.352c0-.621-.504-1.168-1.172-1.168-.621 0-1.145.5-1.145 1.145a1.15 1.15 0 0 0 1.145 1.172c.742 0 1.172-.622 1.172-1.149m-3.297 4.445v.696c1.527 0 1.742.14 1.742 1.312v6.5c0 1.074-.262 1.074-1.816 1.074v.696c.671-.047 1.816-.047 2.511-.047.262 0 1.649 0 2.461.047v-.696c-1.555 0-1.648-.117-1.648-1.05v-8.793zm10.035 1.125c0-.644-.551-1.148-1.149-1.148-.691 0-1.168.551-1.168 1.148a1.17 1.17 0 0 0 1.149 1.172c.644 0 1.168-.504 1.168-1.172m0 7.981c0-.645-.551-1.149-1.149-1.149-.691 0-1.168.551-1.168 1.149a1.17 1.17 0 0 0 1.149 1.172c.644 0 1.168-.504 1.168-1.172m-272.606-96.414-3.324.262v.695c1.625 0 1.821.168 1.821 1.336v14.293h.523c.094-.192.766-1.387.859-1.555.551.887 1.578 1.793 3.11 1.793 2.746 0 5.16-2.32 5.16-5.398 0-3.039-2.246-5.379-4.899-5.379-1.312 0-2.437.597-3.25 1.601zm.047 8.937c0-.429 0-.476.266-.859.57-.859 1.625-1.555 2.793-1.555.719 0 3.226.289 3.226 4.875 0 1.602-.238 2.606-.812 3.465-.477.742-1.434 1.484-2.629 1.484-1.289 0-2.129-.835-2.535-1.484-.309-.5-.309-.598-.309-1.004zm13.075-8.937-3.325.262v.695c1.625 0 1.817.168 1.817 1.336v12.523c0 1.074-.262 1.074-1.817 1.074v.696c.668-.047 1.84-.047 2.559-.047.715 0 1.91 0 2.582.047v-.696c-1.531 0-1.816 0-1.816-1.074zm13.355 11.472c0-3.085-2.34-5.546-5.113-5.546-2.867 0-5.137 2.535-5.137 5.546 0 3.059 2.387 5.352 5.113 5.352 2.821 0 5.137-2.344 5.137-5.352m-5.113 4.825c-.883 0-1.961-.379-2.653-1.551-.644-1.078-.668-2.484-.668-3.492 0-.907 0-2.364.739-3.438a3.06 3.06 0 0 1 2.558-1.41c.934 0 1.938.43 2.578 1.363.743 1.098.743 2.602.743 3.485 0 .84 0 2.32-.622 3.441-.667 1.149-1.765 1.602-2.675 1.602m15.195-8.555c-.285 0-1.172 0-1.172.98 0 .575.406.981.981.981.55 0 1.004-.336 1.004-1.027 0-1.602-1.672-2.75-3.61-2.75-2.793 0-5.015 2.488-5.015 5.5 0 3.054 2.292 5.398 4.992 5.398 3.156 0 3.871-2.867 3.871-3.082s-.168-.215-.238-.215c-.215 0-.239.07-.309.36-.527 1.695-1.816 2.41-3.109 2.41-1.457 0-3.391-1.266-3.391-4.899 0-3.965 2.031-4.945 3.223-4.945.91 0 2.226.359 2.773 1.289m10.398 0c-.285 0-1.168 0-1.168.98 0 .575.407.981.981.981.547 0 1.004-.336 1.004-1.027 0-1.602-1.676-2.75-3.61-2.75-2.796 0-5.019 2.488-5.019 5.5 0 3.054 2.293 5.398 4.996 5.398 3.152 0 3.871-2.867 3.871-3.082s-.168-.215-.238-.215c-.219 0-.242.07-.313.36-.523 1.695-1.816 2.41-3.105 2.41-1.457 0-3.395-1.266-3.395-4.899 0-3.965 2.032-4.945 3.227-4.945.906 0 2.223.359 2.769 1.289m12.719 3.73c0-3.085-2.34-5.546-5.113-5.546-2.867 0-5.137 2.535-5.137 5.546 0 3.059 2.391 5.352 5.113 5.352 2.821 0 5.137-2.344 5.137-5.352m-5.113 4.825c-.883 0-1.957-.379-2.652-1.551-.645-1.078-.668-2.484-.668-3.492 0-.907 0-2.364.738-3.438a3.07 3.07 0 0 1 2.558-1.41c.934 0 1.938.43 2.583 1.363.742 1.098.742 2.602.742 3.485 0 .84 0 2.32-.625 3.441-.668 1.149-1.766 1.602-2.676 1.602m16.707-13.403a7.1 7.1 0 0 0 2.125.356c2.699 0 4.422-1.981 4.422-2.317 0-.097-.047-.214-.192-.214-.05 0-.097 0-.312.093a7.8 7.8 0 0 1-3.106.645c-1.578 0-2.699-.477-3.156-.668-.164-.07-.215-.07-.238-.07-.191 0-.191.144-.191.523v7.098c0 .429 0 .574.289.574.117 0 .14-.024.382-.309a3.6 3.6 0 0 1 2.985-1.554c1.265 0 1.89 1.171 2.078 1.578.406.929.433 2.101.433 3.008 0 .91 0 2.269-.671 3.347-.524.86-1.457 1.457-2.508 1.457a3.69 3.69 0 0 1-3.559-2.82c.117.047.262.07.379.07.406 0 1.051-.234 1.051-1.047 0-.672-.453-1.054-1.051-1.054-.43 0-1.051.215-1.051 1.148 0 2.031 1.625 4.348 4.278 4.348 2.699 0 5.066-2.27 5.066-5.305 0-2.844-1.91-5.211-4.422-5.211-1.359 0-2.414.598-3.031 1.27z"/></g></svg>