<svg xmlns="http://www.w3.org/2000/svg" width="910pt" height="422pt" viewBox="0 -422 910 422"><g id="page1" transform="scale(1 -1)"><path fill="#cc9c6f" d="M142.73 324.148a7141 7141 0 0 1 311.813-6.804c104.062 0 208.082 2.269 311.812 6.804v17.008a7141 7141 0 0 1-311.812 6.805 7141 7141 0 0 1-311.813-6.805z"/><path fill="none" stroke="#000" stroke-linecap="round" stroke-linejoin="round" stroke-width="2" d="M142.73 324.148a7141 7141 0 0 1 311.813-6.804c104.062 0 208.082 2.269 311.812 6.804v17.008a7141 7141 0 0 1-311.812 6.805 7141 7141 0 0 1-311.813-6.805z"/><path fill="#fff" d="M176.746 332.652a5.665 5.665 0 0 1-5.668 5.668 5.667 5.667 0 1 1 0-11.336 5.667 5.667 0 0 1 5.668 5.668"/><path fill="none" stroke="#000" stroke-linecap="round" stroke-linejoin="round" stroke-width="2" d="M176.746 332.652a5.665 5.665 0 0 1-5.668 5.668 5.667 5.667 0 1 1 0-11.336 5.667 5.667 0 0 1 5.668 5.668"/><path fill="#fff" d="M743.676 332.652a5.665 5.665 0 0 1-5.668 5.668 5.667 5.667 0 1 1 0-11.336 5.667 5.667 0 0 1 5.668 5.668"/><path fill="none" stroke="#000" stroke-linecap="round" stroke-linejoin="round" stroke-width="2" d="M743.676 332.652a5.665 5.665 0 0 1-5.668 5.668 5.667 5.667 0 1 1 0-11.336 5.667 5.667 0 0 1 5.668 5.668"/><path fill="#d3ae37" d="M341.156 86.04c0 15.655-76.144 28.347-170.078 28.347C77.148 114.387 1 101.695 1 86.039s76.148-28.348 170.078-28.348c93.934 0 170.078 12.692 170.078 28.348"/><path fill="none" stroke="#000" stroke-linecap="round" stroke-linejoin="round" stroke-width="2" d="M341.156 86.04c0 15.655-76.144 28.347-170.078 28.347C77.148 114.387 1 101.695 1 86.039s76.148-28.348 170.078-28.348c93.934 0 170.078 12.692 170.078 28.348m-170.078 226.77 161.41-217.813m-161.41 217.813L117.32 112.941m53.758 199.868L19.984 73.012m151.094 239.797v19.843"/><g fill-rule="evenodd"><path fill="#247040" d="M49.902 136.25c-.633.293-1.12-.437-.875-.977.242-.73.926-.046 1.414-.144.73.051 1.606-.098 2.239.437.586.536-.485 1.075-1.024.977-.582-.051-1.168-.246-1.754-.293m2.778-.684c-.73-.488-2.532-.195-3.262-.679-.488-.442.293-1.317.387-1.805.293-.68.39-1.461.246-2.191-.246-1.61-1.074-3.02-1.754-4.485-1.707-3.652-3.656-7.16-5.262-10.91 1.024-.391 1.996.289 2.973.582.777.195 1.023 1.074 1.215 1.754.148.731.293 1.414.683 2.047 1.461 3.266 3.168 6.434 4.63 9.695.581 1.656.925 3.41.874 5.117.39 1.317-.34 1.122-.73.875m-23.285-13.789c-1.512-.386-3.168-.535-4.434-1.507 2.824-.438 5.355-2.047 7.207-4.192 1.023-1.461 1.754-3.215 3.266-4.238.78-.582 1.707-1.024 2.68-1.07.632 0 1.023.535 1.558.828.926.679 1.121 1.996 2.098 2.629.535 1.121.093 2.437-.489 3.461-.683 1.167-1.656 2.386-2.777 3.117-2.535 1.511-5.703 1.461-8.527 1.074-.196-.051-.391-.051-.582-.102m24.843-2.968c-2.824-1.903-6.234-2.582-9.449-3.606-1.023-.293-2-.73-2.828-1.461-1.219-1.023-2.094-2.679-1.754-4.34.246-.972 1.219-1.847 2.242-1.507.535.046 1.074.679 1.266.046.195-.484.344-1.168 1.023-1.168 2.535-.242 5.067.829 6.82 2.629a8.37 8.37 0 0 1 2.485 4.922c.344 1.563.488 3.121.586 4.68-.098.191-.34-.051-.39-.195m-25.09-1.754c-2.726-.828-5.699-1.414-8.574-.977-.242.828-1.558-.047-.586-.387 1.219-1.66 3.07-2.73 4.922-3.461 1.656 0 3.117.782 4.676 1.071.73.441 1.902.344 2.73.637.73.339-.488 1.507-.73 1.949-.438.535-.828.972-1.512 1.215-.293.097-.633.148-.926-.047m28.989-.586c-1.219-.293-2.582-.535-3.36-1.61-.293-.484-.441-1.117-.441-1.703 0-.777.926 0 1.023-.051-.437-.535-.972-.921-1.46-1.41-.536-1.023-1.169-2.144-2.192-2.73-.488-.535 0-1.266.633-1.363.586-.196 1.168.05 1.754.144 3.265.586 5.894 2.926 9.16 3.606.535-.34 1.168.195 1.219.734.144.582-.149 1.117-.633 1.461-.586.633-1.074 1.363-1.805 1.898-1.12.828-2.535 1.317-3.898 1.024m16.176-.684c-2.243-1.754-5.165-2.387-7.942-2.433-.488-.098-1.168.195-1.363-.391-.195-.633.34-1.266.047-1.852-.39-.39-1.024-.195-1.559-.293-.437.098-.68-.535-.144-.386.293.093 1.023 0 .437-.293-.488-.391.535-.246.781-.489 1.266-.437 2.485-1.074 3.848-1.414 1.559.098 2.824 1.219 4.043 2.145 1.512 1.461 2.582 3.652 2.242 5.797-.195 0-.195-.34-.39-.391m-14.47-6.43c-.683-.535-1.656-.488-2.292-1.167-.582-.586 1.023-.247.734-.633-.879.386-.879.386-1.707-.293-.633-.977.34-1.512.684-1.852 1.168-1.07 2.68-1.609 4.09-2.094 3.41-.976 7.066-1.464 10.574-.781 1.414.293 2.777.781 3.996 1.461-.684.781-1.805.438-2.68.731-.488.246-1.023.586-1.61.828-2.726 1.414-5.359 3.312-8.476 3.949-1.07.242-2.242.242-3.312-.149"/><path fill="#d1242b" d="M21.402 109.551c-1.804-1.899-2.972-4.289-3.898-6.676-1.363-3.992-1.606-8.281-1.317-12.473.489-4.87 2-9.597 3.899-14.078 1.95-4.336 3.848-8.672 5.945-12.914 1.317-2.676 2.63-5.308 4.383-7.695 1.852-2.387 4.68-4.192 7.797-4.043 2.145 0 4.094 1.07 5.895 2.144 2.874 1.606 5.652 3.36 8.527 5.067 6.918 5.015 12.765 11.398 18.074 18.023 1.656 2.196 2.922 4.727 3.266 7.504.535 3.508.488 7.113-.246 10.621-.536 2.047-1.606 3.899-2.532 5.75-.78 1.266-2.242.684-3.46.731-3.36.195-6.77 1.023-9.696 2.777-.875.731-1.316 1.805-1.996 2.68-1.266.926-2.973-.34-4.238.586-1.075.582-2.34-.098-3.266-.633-1.656-.734-3.703-.734-5.21.289-1.024.391-2.294.535-3.024 1.512.195 1.121-1.07 2.191-2.145 1.707-.972-.293-2.043.34-2.87.875-.927.535-1.61 1.605-2.68 1.949-3.56-.293-8.82-2.047-11.208-3.703"/><path d="M49.563 136.738c-1.266.047-2.094-1.804-.782-2.39 1.27-1.364.977-3.41.442-5.016-.828-2.633-2.387-4.871-3.606-7.309-.926-1.804-1.902-3.656-2.633-5.503-1.265.195-.925 1.8-1.703 2.484-1.902 2.434-5.02 3.652-8.09 3.75-3.117.098-6.234-.535-8.964-2.047.148-1.121 1.464-.828 2.242-1.121.781-.68 2.144-.633 2.73-1.606-.39-.878-1.562-.73-2.34-.925-1.558-.246-3.117-.731-4.726-.633a5.15 5.15 0 0 0-3.313 1.215c-1.023-.145.293-1.313.535-1.801 1.22-1.559 2.73-3.07 4.63-3.75-.731-1.316-2.536-1.512-3.313-2.777-3.266-3.364-4.824-7.993-5.313-12.57-.828-7.458 1.172-14.958 4.336-21.684 2.633-5.457 5.36-10.91 7.993-16.368 1.46-2.68 3.117-5.507 5.945-6.917 2.676-1.317 6.09-1.22 8.672.386 3.457 1.754 6.722 3.703 10.035 5.653 7.648 5.117 13.887 12.035 19.293 19.441 1.851 2.824 2.828 6.188 3.312 9.547.586 4.777-.293 9.793-2.875 13.887-.828 1.363 1.172 1.754 2.145 1.996.879.343 2.972.781 2.289 2.047-1.023.632-2.336.246-3.36.828-1.316.539-2.484 1.316-3.703 1.949.243 1.121 1.559 1.023 2.34 1.609 1.653 1.508 3.215 3.41 3.504 5.7.39.828-.047 2.437-1.168 1.851-.488-.879-1.46-1.266-2.336-1.559-2.293-.925-4.777-1.023-7.164-1.414-1.316 1.364-2.633 2.973-4.629 3.215-1.605.344-3.457 0-4.726-1.121-1.07.637-.196 1.903-.145 2.778.196.683-.488 1.753-1.023.781-1.219-1.121-2.875-1.461-4.336-2.094-.73-.148-1.61-.828-2.242-.195-.293 1.023.488 1.898.73 2.777 1.805 4.383 4.582 8.379 5.41 13.055.196 1.023.582 2.144.145 3.121-.582 1.07-1.996 1.121-3.07.972a10 10 0 0 1-1.169-.242m.292-.39c-1.218.488-1.12-2.047.098-1.121.926.097 2.531-.196 2.973.73-.489 1.219-2.145.438-3.07.391m2.34-1.219c-.78-.535-2.484.391-2.68-.875.145-.879.68-1.707.583-2.633-.047-1.558-.68-3.019-1.266-4.433-1.754-3.946-4.094-7.602-5.797-11.594 1.168-.391 2.29.437 3.41.777.973 1.024.73 2.582 1.512 3.703 1.703 3.946 4.09 7.602 5.211 11.84.195 1.07.242 2.191.242 3.313-.437 0-.828.046-1.215-.098m-22.8-13.25c-1.415-.391-3.024-.391-4.145-1.414 1.707-.535 3.46-1.074 4.824-2.34 2.192-1.801 3.461-4.531 5.653-6.332.73-.586 1.609-1.023 2.53-1.121.731 1.168-1.46 1.266-1.655 2.289-1.121 1.461-1.704 3.215-2.727 4.727 1.605-1.168 1.898-3.364 3.36-4.727.636-.633 1.413-1.609 2.437-1.219 1.023.731 1.414 2 2.191 2.926.54 1.168-.242 2.387-.777 3.41-1.219 2.094-3.508 3.555-5.945 3.848-1.899.293-3.848.242-5.746-.047m24.843-2.973c-3.215-2.242-7.207-2.73-10.765-4.14-1.754-.782-3.461-2.387-3.313-4.438 0-1.117.73-2.387 1.899-2.484 1.316.148 1.656 1.707 2.535 2.437 1.851 1.657 4.336 2.34 6.332 3.801.73.34-.582-.781-.828-.879-1.559-1.019-3.41-1.605-4.82-2.824a6.04 6.04 0 0 1-1.805-2.047c.535-.488.293-1.605 1.414-1.461 1.949-.242 3.894.535 5.504 1.609 1.656 1.118 2.922 2.872 3.41 4.872.488 1.656.535 3.41.926 5.117.05.289-.145.679-.489.437m-25.09-1.851c-2.726-.828-5.652-1.317-8.527-.879-.242.976-1.754-.242-.633-.485 1.364-1.511 3.117-2.679 5.02-3.461 1.898.489 3.8 1.219 5.75 1.364-.149 1.074-1.707.246-2.485.488-1.218 0-2.437 0-3.656.098 2.145.39 4.387.195 6.578.097.684-.879 1.801.731.633.973-.535.926-1.363 2.484-2.68 1.805m28.989-.489c-1.266-.293-2.825-.586-3.508-1.851-.195-.582-.777-2.387.437-1.656 2 1.265 4.63 1.265 6.825.339-1.368 0-2.633.586-3.95.344-1.507-.195-3.117-.781-4.043-2.047-.535-1.023-1.168-2.047-2.191-2.679-.781-1.172 1.07-1.657 1.898-1.27 3.508.442 6.239 3.024 9.649 3.703 1.07-.535 1.605 1.172.973 1.852-.68.488-1.122 1.316-1.754 1.851-1.168 1.024-2.778 1.754-4.336 1.414m16.176-.679c-2.485-2-5.797-2.535-8.915-2.438-1.171-.437.633-2.386-.879-2.484-.437-.098-1.8.098-1.46-.442 2.68 0 5.308.344 7.843 1.172-1.851-1.461-4.336-1.461-6.527-1.367-.637.293-1.219-.437-.293-.437 1.461-.438 2.824-1.168 4.336-1.559 1.559.098 2.824 1.219 3.996 2.145 1.559 1.461 2.629 3.605 2.29 5.796-.196 0-.196-.339-.391-.386m-42.582-2.782c-3.75-.535-7.602-1.507-10.72-3.75-1.07-1.218-1.655-2.726-2.581-4.042-2.29-4.336-2.438-9.403-2.29-14.18.391-6.672 2.973-13.008 5.797-19 2.485-5.457 4.778-10.961 8.09-15.93 1.801-2.828 5.114-4.777 8.524-4.531 2.242.195 4.238 1.363 6.14 2.434 2.875 1.804 5.797 3.413 8.575 5.312 5.797 4.289 10.765 9.55 15.445 15.004 2.336 2.777 4.578 5.898 5.164 9.601.68 3.602.535 7.356-.195 10.961-.633 2.336-1.852 4.48-3.02 6.579-4.433-.344-9.062.484-12.816 2.871-.926.781-1.168 2.046-2.192 2.73-1.265.535-2.777-.488-3.945.391-1.074.633-2.242-.149-3.215-.633-1.61-.734-3.656-.781-5.164.289-1.023.441-2.293.441-2.973 1.414 0 1.219-1.171 2.438-2.34 1.703-1.558-.094-2.874.93-3.995 1.949-.583.489-1.41 1.317-2.29.828m-6.77-2.824c-1.414.293-.832-2.726.191-1.414.293.344.926 2.098-.191 1.414m7.941-.242c-1.023-.246-1.074-2.242.094-2.195 1.172.097 1.465 2.437.098 2.293a.4.4 0 0 1-.192-.098m.047-.148c-1.46-.196 0-2.825.73-1.317.34.489.145 1.903-.73 1.317m-8.281-.098c-1.414-.484 1.168-1.801.777-.242-.047.39-.586.683-.777.242m35.176-.34c-.73-.535-2.34-.633-2.438-1.512 1.364-.339 2.778 0 4.14-.386 2.485-.586 4.825-1.805 7.36-2.293.68-.289-1.12-.047-1.414.051-3.02.535-5.75 2.144-8.867 2.191-.828.391-2.828 0-2.094-1.219 1.02-1.461 2.774-2.14 4.383-2.726 3.117-.973 6.383-1.461 9.598-1.121 1.902.195 3.754.73 5.41 1.656-.828.976-2.34.195-3.215 1.023-3.46 1.559-6.531 4.192-10.43 4.629-.828.047-1.656 0-2.433-.293m-35.715-3.801c-.34-.925-1.508-2.242-.438-3.066 1.075-.293 1.903 1.215 1.415 2.043.195-.777-.684-2.336-1.512-1.461-.535 1.172.73 1.996 1.265 2.824-.242.051-.535-.094-.73-.34m12.766-3.261c-1.024-.391-.536-2.68.632-1.95.88.438.73 2.629-.437 2.145l-.098-.102zm.34.144c-1.215-.051-.583-2.68.44-1.656.438.488.536 1.801-.44 1.656m7.894-1.07c.684-1.367-1.754-.828-1.316-.539-.047-1.266 2.289-.633 1.464.488 0 .098-.148.344-.148.051m8.914-.246c-1.266-.391-.145-2.922.879-1.703.39.289.34 1.558.293 1.461.633-.926-1.512-2.094-1.512-.731-.144.145.977 1.41.34.973m7.895-1.559c.242-.34 1.609-1.023.78-.097-.245.148-.538.195-.78.097m-33.52-.875c.73-.926-1.656-1.512-1.219-.344-1.12-1.218 2.094-1.363 1.27.098 0 .05.047.586-.051.246m33.617-.05c-.879-.778-1.07-2.485 0-3.169 1.219.051 1.512 1.657 1.024 2.536-.196.39-.586.828-1.024.632m-.34-.684c-.976-.778.485-2.871 1.266-1.508.437.68-.05 2.34-1.07 1.8a.9.9 0 0 1-.196-.292m7.309-2.094c-1.172-.73.922-2.824 1.215-1.219-.145.633-.535-.972-1.07-.242-.34.438-.293 1.266-.145 1.461M31.098 93.91c-.73-.828 1.316.246.293.196-.098 0-.196-.098-.293-.196m-10.477-.293c-.437-.973 1.95-.973 1.024-2.094-.145-.828-1.56-.68-1.461.149-.633-.926 1.168-1.461 1.511-.488.828.925-.683 1.851-.437 2.484.437.633-.488.098-.637-.05m10.477-.582c-.88-.586-.586-2.535.633-2.437.925.343.925 1.707.39 2.386-.195.293-.781.489-1.023.051m0-.195c-.828-.535-.145-2.047.78-1.852.778.438.485 2.29-.487 2.094-.098-.047-.196-.144-.293-.242m20.023-.098c-1.316-.437 0-2.824.977-1.707.73.637.047 2.73-.977 1.707m.098-.144c-1.461-.633 1.168-2.34 1.023-.633.145.535-.683 1.508-1.023.633m-9.938-.54c-.586-.828-1.707-2.386-.539-3.117.977-.242 1.414 1.364 1.27 1.754.34-1.12-1.852-1.949-1.512-.437 0 .683 1.219 1.511.977 1.8zm23.336-1.753c.293-.243.926-1.754.875-.633-.144.344-.484.633-.875.633m-.488-1.168c-1.024-.633-1.703-2.145-1.024-3.266.977-.633 2 .586 2.047 1.465.098.582-.144.824-.144.094 0-1.266-2.145-1.703-1.95-.145.098.926.876 1.754 1.852 1.754-.195.195-.586.34-.781.098m6.09-4.434c.05-.39 1.27-1.07.73-.242-.144.195-.484.387-.73.242m-46.625-.39c-.973-.582.879-2.044 1.172-1.024-.684-.875-1.317.39-1.172 1.023m24.07-.145c-1.023-.34-.633-2.34.484-2.094 1.024.34 1.075 2.485-.191 2.29l-.148-.052zm.191 0c-1.46-.246.102-2.777.735-1.266.289.485.094 1.946-.735 1.266m21.88-.684c-.782-.68-.829-2.433.34-2.628 1.218.292 1.46 2.386.292 2.875a.64.64 0 0 1-.633-.247m.144-.046c-1.266-.442-.195-3.024.879-1.754.437.632.242 2.289-.88 1.754m-38.832-1.415c.293-1.265-1.606-.292-1.461-.097-.145-1.364 2.387-.875 1.656.39-.144.145-.195-.195-.195-.293m25.14.196c-.097-.586 1.024-1.512.489-.39-.145.144-.293.292-.489.39m-1.07-1.266c-1.074-.39-1.265-2.777.196-2.484 1.07.289 1.656 2.14.535 2.726-.293.098-.586-.047-.73-.242m.047-.246c-1.41-.242-.293-2.871.781-1.605.633.535.34 2.582-.78 1.605m-16.66-.242c-.535-.781-1.219-2.094-.293-2.922.684-.344 1.512 1.508.586.438-1.27-.145-1.172 1.609-.195 2.046.242.196.68.973 0 .535zm-12.766-3.363c-.293-.973 1.317.78.098.05-.05 0-.05-.05-.098-.05m.196-.73c-.829-.731-.973-2.337.046-2.97 1.172-.05 1.56 1.508 1.122 2.383-.196.442-.68 1.024-1.168.586m.195.05c-.828-.535-1.024-2.242.098-2.484.972.097 1.07 1.46.582 2.144a.85.85 0 0 1-.68.34m36.05-1.852c.247-.293.926-1.804.977-.73-.148.387-.488.777-.976.73m-.972-1.558c-.781-.73-1.168-2.243-.195-2.973 1.074-.195 1.754 1.023 1.804 1.996.243.828-1.023 2.098-1.609.977m.145-.051c-1.121-.488-.829-3.117.632-2.242.88.488.977 2.683-.34 2.488l-.144-.098zm-11.887-2.68c-1.219-.34-.828-2.972.535-2.047.684.489.73 2.485-.535 2.047m-18.707-.242c-.88-.586-.344-2.582.875-2.145.828.587.437 2.68-.777 2.243-.051 0-.098-.051-.098-.098m18.707.047c-1.508-.293.195-2.871.781-1.219.242.489 0 1.805-.781 1.219m-18.61-.047c-1.218-.586.536-2.824.973-1.316.145.586-.242 1.656-.973 1.316m11.008-.535c-1.312-.442-.195-3.07.782-1.805.34.633.046.489-.243.098-1.511-.34-1.074 2.387.34 1.754.438.242-1.023.437-.879-.047m7.36-6.285c1.12-.782-1.075-2.828-1.22-1.317.099.34.49 1.364-.194.684-.73-.977 1.023-2.293 1.511-1.023.242.484.535 1.312-.097 1.656M35.48 61.414c-1.169-.34-.536-2.777.636-1.95.926.49.633 2.927-.636 1.95m.246.148c-1.364-.195-.196-2.874.632-1.464.293.539.293 1.804-.632 1.465m5.894-4.144c-1.266-.387-.39-2.922.73-1.945.243.34.633 1.46.243.484-.825-.828-1.996.586-.973 1.219.148.097.34.586 0 .242"/><path fill="#ffc13f" d="M32.95 109.793c-1.513-.34.534-2.582.777-.875.195.484-.192 1.605-.778.875m-8.626-.289c-.535-1.27 1.95-.051.684.387-.242-.047-.488-.196-.684-.387m-.242-4.727c-1.168-.148-.437-2.484.535-1.656.535.438.488 2.238-.535 1.656m13.008-2.437c-1.508-.242.437-2.68.781-1.024.195.489-.098 1.754-.781 1.024m7.164-.242c-1.465-.535 1.07-2.387.777-.633 0 .387-.39 1.07-.777.633m-24.945-.684c-1.122-.633 1.168-1.61.68-.34.05.391-.583.926-.68.34m34.835-.293c-1.413-.586.973-2.484.973-.73.145.488-.488 1.511-.972.73M27.54 99.078c-1.312-.293.734-2.144.734-.734.34.441-.441 1.61-.734.734m34.3-.781c-.632-.586-.339-2.242.634-2.094 1.023.387.586 2.531-.582 2.094zm7.31-2.387c-1.22-.879 1.609-1.851.878-.39-.101.34-.586.878-.879.39m-48.184-2.875c-1.317-.144-.344-2.824.535-1.512.242.536.145 1.461-.535 1.512m10.133-.144c-.926-.54.195-2.391.972-1.61.489.582-.047 2.29-.972 1.61m20.172-.344c-1.465-.684 1.265-2.145.925-.438.094.489-.73 1.317-.925.438m-10.333-1.512c-1.507-.289.489-2.726.782-1.02.195.485-.098 1.754-.782 1.02m22.852-2.387c-1.023-.488-.73-3.02.633-2.093.828.535.879 2.484-.39 2.289l-.098-.047zm-39.855-3.945c-1.168-.68 1.171-2.191.925-.586.051.442-.582 1.219-.925.586m23.875-.68c-1.461-.343.632-2.535.828-.93.293.489-.242 1.805-.828.93m22.312-.441c-.828-.293-.926-1.996.05-2.144.973.097 1.071 2.144-.05 2.144m-40-.73c-1.312-.73 1.27-2.145.879-.583.047.438-.586 1.215-.879.583m25.192-2.047c-.977-.145-.926-1.801 0-1.95.925.098 1.363 1.903.34 2.098a.44.44 0 0 1-.34-.148m-16.958-1.266c-1.46-.437.782-2.437.88-.828.195.488-.391 1.61-.88.828m-12.472-3.457c-1.168-.586.098-2.973.976-1.66.391.633 0 2.242-.976 1.66m35.469-3.168c-1.121-.488-.582-3.07.683-2.047.828.535.828 2.535-.437 2.242l-.098-.097zm-30.45-2.926c-1.316-.535.73-2.726.926-1.07.05.488-.293 1.363-.926 1.07m18.465-.047c-1.46-.488.926-2.386.926-.78.195.487-.437 1.558-.926.78m-7.113-.293c-1.512-.097-.145-2.921.488-1.218.196.437.145 1.218-.488 1.218m6.14-6.867c-1.464-.734 1.215-2.195 1.024-.539.191.633-.781 1.414-1.023.54m-12.812-1.465c-1.512-.34.68-2.53.824-.875.149.438-.34 1.703-.824.875m6.188-4.043c-1.512-.437.777-2.484.874-.828.145.438-.39 1.61-.874.828"/><path fill="#247040" d="M105.699 136.25c-.633.293-1.121-.437-.875-.977.242-.73.926-.046 1.41-.144.735.051 1.61-.098 2.243.437.586.536-.489 1.075-1.024.977-.582-.051-1.168-.246-1.754-.293m2.778-.684c-.731-.488-2.532-.195-3.262-.679-.488-.442.289-1.317.387-1.805.293-.68.39-1.461.246-2.191-.246-1.61-1.075-3.02-1.754-4.485-1.707-3.652-3.656-7.16-5.262-10.91 1.024-.391 1.996.289 2.973.582.777.195 1.019 1.074 1.215 1.754.148.731.293 1.414.683 2.047 1.461 3.266 3.168 6.434 4.629 9.695.582 1.656.926 3.41.875 5.117.391 1.317-.34 1.122-.73.875m-23.29-13.789c-1.507-.386-3.164-.535-4.433-1.507 2.828-.438 5.36-2.047 7.21-4.192 1.024-1.461 1.755-3.215 3.267-4.238.78-.582 1.707-1.024 2.68-1.07.632 0 1.023.535 1.558.828.925.679 1.12 1.996 2.094 2.629.539 1.121.097 2.437-.485 3.461-.684 1.167-1.656 2.386-2.777 3.117-2.535 1.511-5.703 1.461-8.528 1.074-.195-.051-.39-.051-.585-.102m24.848-2.968c-2.824-1.903-6.234-2.582-9.449-3.606-1.023-.293-2-.73-2.828-1.461-1.219-1.023-2.094-2.679-1.754-4.34.246-.972 1.219-1.847 2.242-1.507.535.046 1.07.679 1.266.046.195-.484.344-1.168 1.023-1.168 2.535-.242 5.067.829 6.82 2.629a8.4 8.4 0 0 1 2.489 4.922c.34 1.563.484 3.121.582 4.68-.098.191-.34-.051-.391-.195m-25.09-1.754c-2.726-.828-5.699-1.414-8.574-.977-.242.828-1.558-.047-.586-.387 1.219-1.66 3.07-2.73 4.922-3.461 1.656 0 3.117.782 4.676 1.071.73.441 1.902.344 2.73.637.73.339-.488 1.507-.73 1.949-.442.535-.828.972-1.512 1.215-.293.097-.633.148-.926-.047m28.989-.586c-1.219-.293-2.582-.535-3.36-1.61-.293-.484-.441-1.117-.441-1.703 0-.777.926 0 1.023-.051-.437-.535-.972-.921-1.461-1.41-.535-1.023-1.168-2.144-2.191-2.73-.488-.535 0-1.266.633-1.363.586-.196 1.168.05 1.754.144 3.265.586 5.894 2.926 9.16 3.606.535-.34 1.168.195 1.219.734.144.582-.149 1.117-.633 1.461-.586.633-1.074 1.363-1.805 1.898-1.121.828-2.535 1.317-3.898 1.024m16.175-.684c-2.242-1.754-5.164-2.387-7.941-2.433-.488-.098-1.168.195-1.363-.391-.196-.633.34-1.266.047-1.852-.387-.39-1.024-.195-1.559-.293-.438.098-.684-.535-.145-.386.293.093 1.024 0 .438-.293-.488-.391.535-.246.777-.489 1.27-.437 2.489-1.074 3.852-1.414 1.558.098 2.824 1.219 4.043 2.145 1.512 1.461 2.582 3.652 2.242 5.797-.195 0-.195-.34-.391-.391m-14.468-6.43c-.684-.535-1.657-.488-2.289-1.167-.586-.586 1.019-.247.726-.633-.875.386-.875.386-1.703-.293-.633-.977.34-1.512.684-1.852 1.168-1.07 2.679-1.609 4.089-2.094 3.411-.976 7.067-1.464 10.575-.781 1.414.293 2.777.781 3.996 1.461-.684.781-1.805.438-2.68.731-.488.246-1.023.586-1.609.828-2.727 1.414-5.36 3.312-8.477 3.949-1.074.242-2.242.242-3.312-.149"/><path fill="#d1242b" d="M77.2 109.551c-1.802-1.899-2.973-4.289-3.9-6.676-1.362-3.992-1.605-8.281-1.316-12.473.489-4.87 2-9.597 3.899-14.078 1.949-4.336 3.848-8.672 5.945-12.914 1.316-2.676 2.629-5.308 4.383-7.695 1.852-2.387 4.68-4.192 7.797-4.043 2.144 0 4.094 1.07 5.894 2.144 2.875 1.606 5.653 3.36 8.528 5.067 6.918 5.015 12.765 11.398 18.074 18.023 1.656 2.196 2.922 4.727 3.266 7.504.535 3.508.484 7.113-.247 10.621-.535 2.047-1.605 3.899-2.531 5.75-.781 1.266-2.242.684-3.461.731-3.359.195-6.769 1.023-9.695 2.777-.875.731-1.316 1.805-1.996 2.68-1.266.926-2.973-.34-4.238.586-1.075.582-2.34-.098-3.266-.633-1.656-.734-3.703-.734-5.211.289-1.023.391-2.293.535-3.023 1.512.195 1.121-1.07 2.191-2.141 1.707-.977-.293-2.047.34-2.875.875-.926.535-1.61 1.605-2.68 1.949-3.558-.293-8.82-2.047-11.207-3.703"/><path d="M105.359 136.738c-1.265.047-2.093-1.804-.781-2.39 1.27-1.364.977-3.41.442-5.016-.829-2.633-2.387-4.871-3.606-7.309-.926-1.804-1.902-3.656-2.633-5.503-1.265.195-.925 1.8-1.703 2.484-1.902 2.434-5.02 3.652-8.09 3.75-3.117.098-6.234-.535-8.965-2.047.149-1.121 1.461-.828 2.243-1.121.78-.68 2.144-.633 2.726-1.606-.386-.878-1.558-.73-2.336-.925-1.558-.246-3.117-.731-4.726-.633a5.15 5.15 0 0 0-3.313 1.215c-1.023-.145.293-1.313.535-1.801 1.22-1.559 2.73-3.07 4.63-3.75-.731-1.316-2.536-1.512-3.313-2.777-3.266-3.364-4.824-7.993-5.313-12.57-.828-7.458 1.172-14.958 4.336-21.684 2.633-5.457 5.36-10.91 7.992-16.368 1.461-2.68 3.118-5.507 5.942-6.917 2.68-1.317 6.093-1.22 8.676.386 3.457 1.754 6.722 3.703 10.035 5.653 7.648 5.117 13.886 12.035 19.293 19.441 1.851 2.824 2.824 6.188 3.312 9.547.586 4.777-.293 9.793-2.875 13.887-.828 1.363 1.172 1.754 2.145 1.996.879.343 2.972.781 2.289 2.047-1.024.632-2.336.246-3.36.828-1.316.539-2.488 1.316-3.703 1.949.242 1.121 1.559 1.023 2.336 1.609 1.656 1.508 3.215 3.41 3.512 5.7.387.828-.051 2.437-1.172 1.851-.488-.879-1.461-1.266-2.34-1.559-2.289-.925-4.773-1.023-7.16-1.414-1.316 1.364-2.633 2.973-4.629 3.215-1.605.344-3.457 0-4.726-1.121-1.071.637-.196 1.903-.145 2.778.195.683-.488 1.753-1.023.781-1.219-1.121-2.875-1.461-4.336-2.094-.731-.148-1.61-.828-2.242-.195-.293 1.023.488 1.898.73 2.777 1.805 4.383 4.582 8.379 5.41 13.055.195 1.023.582 2.144.145 3.121-.582 1.07-1.996 1.121-3.071.972a10 10 0 0 1-1.168-.242m.293-.39c-1.218.488-1.121-2.047.098-1.121.926.097 2.531-.196 2.973.73-.489 1.219-2.145.438-3.071.391m2.336-1.219c-.777-.535-2.484.391-2.675-.875.144-.879.679-1.707.582-2.633-.047-1.558-.68-3.019-1.266-4.433-1.754-3.946-4.094-7.602-5.797-11.594 1.168-.391 2.289.437 3.41.777.973 1.024.731 2.582 1.512 3.703 1.703 3.946 4.09 7.602 5.211 11.84.195 1.07.242 2.191.242 3.313-.437 0-.828.046-1.219-.098m-22.8-13.25c-1.41-.391-3.02-.391-4.141-1.414 1.707-.535 3.46-1.074 4.824-2.34 2.192-1.801 3.461-4.531 5.652-6.332.73-.586 1.606-1.023 2.532-1.121.73 1.168-1.461 1.266-1.657 2.289-1.117 1.461-1.703 3.215-2.726 4.727 1.61-1.168 1.898-3.364 3.36-4.727.636-.633 1.413-1.609 2.437-1.219 1.023.731 1.414 2 2.191 2.926.54 1.168-.242 2.387-.777 3.41-1.219 2.094-3.508 3.555-5.945 3.848-1.899.293-3.848.242-5.75-.047m24.847-2.973c-3.215-2.242-7.211-2.73-10.766-4.14-1.753-.782-3.46-2.387-3.312-4.438 0-1.117.73-2.387 1.899-2.484 1.316.148 1.656 1.707 2.535 2.437 1.851 1.657 4.336 2.34 6.332 3.801.73.34-.582-.781-.828-.879-1.559-1.019-3.411-1.605-4.825-2.824a6.1 6.1 0 0 1-1.8-2.047c.535-.488.293-1.605 1.414-1.461 1.949-.242 3.894.535 5.504 1.609 1.656 1.118 2.921 2.872 3.41 4.872.488 1.656.535 3.41.925 5.117.051.289-.144.679-.488.437m-25.09-1.851c-2.726-.828-5.652-1.317-8.527-.879-.242.976-1.754-.242-.633-.485 1.367-1.511 3.121-2.679 5.02-3.461 1.898.489 3.8 1.219 5.75 1.364-.149 1.074-1.707.246-2.485.488-1.218 0-2.437 0-3.656.098 2.145.39 4.387.195 6.578.097.68-.879 1.801.731.633.973-.535.926-1.363 2.484-2.68 1.805m28.989-.489c-1.266-.293-2.825-.586-3.508-1.851-.196-.582-.778-2.387.437-1.656 2 1.265 4.629 1.265 6.825.339-1.368 0-2.633.586-3.95.344-1.508-.195-3.117-.781-4.043-2.047-.535-1.023-1.168-2.047-2.191-2.679-.781-1.172 1.07-1.657 1.898-1.27 3.508.442 6.239 3.024 9.649 3.703 1.07-.535 1.605 1.172.972 1.852-.679.488-1.121 1.316-1.753 1.851-1.168 1.024-2.778 1.754-4.336 1.414m16.175-.679c-2.484-2-5.796-2.535-8.914-2.438-1.172-.437.633-2.386-.879-2.484-.437-.098-1.8.098-1.461-.442 2.68 0 5.309.344 7.844 1.172-1.851-1.461-4.336-1.461-6.527-1.367-.637.293-1.219-.437-.293-.437 1.461-.438 2.824-1.168 4.336-1.559 1.558.098 2.824 1.219 3.996 2.145 1.559 1.461 2.629 3.605 2.289 5.796-.195 0-.195-.339-.391-.386m-42.582-2.782c-3.75-.535-7.601-1.507-10.718-3.75-1.07-1.218-1.657-2.726-2.582-4.042-2.29-4.336-2.438-9.403-2.29-14.18.391-6.672 2.973-13.008 5.797-19 2.485-5.457 4.778-10.961 8.09-15.93 1.801-2.828 5.114-4.777 8.524-4.531 2.242.195 4.238 1.363 6.14 2.434 2.875 1.804 5.797 3.413 8.575 5.312 5.796 4.289 10.765 9.55 15.445 15.004 2.336 2.777 4.578 5.898 5.164 9.601.68 3.602.535 7.356-.195 10.961-.633 2.336-1.852 4.48-3.024 6.579-4.43-.344-9.058.484-12.812 2.871-.926.781-1.168 2.046-2.192 2.73-1.265.535-2.777-.488-3.945.391-1.074.633-2.242-.149-3.215-.633-1.609-.734-3.656-.781-5.164.289-1.023.441-2.293.441-2.973 1.414 0 1.219-1.171 2.438-2.34 1.703-1.558-.094-2.874.93-3.996 1.949-.582.489-1.41 1.317-2.289.828m-6.773-2.824c-1.41.293-.828-2.726.195-1.414.293.344.926 2.098-.195 1.414m7.945-.242c-1.027-.246-1.074-2.242.094-2.195 1.172.097 1.465 2.437.098 2.293a.4.4 0 0 1-.192-.098m.047-.148c-1.46-.196 0-2.825.73-1.317.34.489.145 1.903-.73 1.317m-8.281-.098c-1.414-.484 1.168-1.801.777-.242-.047.39-.586.683-.777.242m35.176-.34c-.731-.535-2.34-.633-2.438-1.512 1.363-.339 2.777 0 4.141-.386 2.484-.586 4.824-1.805 7.359-2.293.68-.289-1.121-.047-1.414.051-3.019.535-5.75 2.144-8.867 2.191-.828.391-2.824 0-2.094-1.219 1.024-1.461 2.777-2.14 4.383-2.726 3.117-.973 6.383-1.461 9.598-1.121 1.902.195 3.754.73 5.41 1.656-.828.976-2.34.195-3.215 1.023-3.461 1.559-6.531 4.192-10.43 4.629-.828.047-1.656 0-2.433-.293m-35.715-3.801c-.34-.925-1.508-2.242-.438-3.066 1.075-.293 1.903 1.215 1.414 2.043.196-.777-.683-2.336-1.511-1.461-.535 1.172.73 1.996 1.265 2.824-.242.051-.535-.094-.73-.34m12.765-3.261c-1.023-.391-.535-2.68.633-1.95.88.438.73 2.629-.437 2.145l-.098-.102zm.34.144c-1.215-.051-.582-2.68.442-1.656.437.488.535 1.801-.442 1.656m7.895-1.07c.683-1.367-1.754-.828-1.317-.539-.046-1.266 2.289-.633 1.461.488 0 .098-.144.344-.144.051m8.918-.246c-1.27-.391-.149-2.922.875-1.703.39.289.34 1.558.293 1.461.633-.926-1.512-2.094-1.512-.731-.145.145.977 1.41.344.973m7.89-1.559c.243-.34 1.61-1.023.782-.097-.246.148-.539.195-.782.097m-33.52-.875c.731-.926-1.655-1.512-1.218-.344-1.121-1.218 2.098-1.363 1.27.098 0 .05.046.586-.051.246m33.618-.05c-.879-.778-1.07-2.485 0-3.169 1.219.051 1.512 1.657 1.023 2.536-.195.39-.585.828-1.023.632m-.34-.684c-.976-.778.485-2.871 1.266-1.508.437.68-.047 2.34-1.07 1.8a.9.9 0 0 1-.196-.292m7.309-2.094c-1.172-.73.926-2.824 1.215-1.219-.145.633-.536-.972-1.071-.242-.34.438-.293 1.266-.144 1.461M86.894 93.91c-.73-.828 1.317.246.293.196-.097 0-.195-.098-.293-.196m-10.476-.293c-.437-.973 1.95-.973 1.023-2.094-.144-.828-1.558-.68-1.46.149-.633-.926 1.171-1.461 1.511-.488.828.925-.683 1.851-.441 2.484.441.633-.485.098-.633-.05m10.476-.582c-.875-.586-.585-2.535.633-2.437.926.343.926 1.707.391 2.386-.195.293-.781.489-1.024.051m0-.195c-.828-.535-.144-2.047.778-1.852.781.438.488 2.29-.484 2.094-.098-.047-.196-.144-.294-.242m20.024-.098c-1.316-.437 0-2.824.977-1.707.73.637.046 2.73-.977 1.707m.098-.144c-1.461-.633 1.168-2.34 1.023-.633.145.535-.684 1.508-1.023.633m-9.938-.54c-.586-.828-1.707-2.386-.539-3.117.977-.242 1.414 1.364 1.27 1.754.34-1.12-1.852-1.949-1.512-.437 0 .683 1.219 1.511.976 1.8zm23.336-1.753c.293-.243.926-1.754.875-.633-.144.344-.484.633-.875.633m-.488-1.168c-1.024-.633-1.703-2.145-1.024-3.266.977-.633 2 .586 2.047 1.465.098.582-.144.824-.144.094 0-1.266-2.145-1.703-1.95-.145.098.926.875 1.754 1.852 1.754-.195.195-.586.34-.781.098m6.09-4.434c.05-.39 1.269-1.07.73-.242-.144.195-.484.387-.73.242m-46.625-.39c-.973-.582.878-2.044 1.171-1.024-.683-.875-1.316.39-1.171 1.023m24.07-.145c-1.023-.34-.637-2.34.484-2.094 1.024.34 1.075 2.485-.191 2.29l-.149-.052zm.191 0c-1.461-.246.102-2.777.735-1.266.289.485.093 1.946-.735 1.266m21.879-.684c-.781-.68-.828-2.433.34-2.628 1.219.292 1.461 2.386.293 2.875a.64.64 0 0 1-.633-.247m.145-.046c-1.266-.442-.196-3.024.879-1.754.437.632.242 2.289-.879 1.754m-38.832-1.415c.293-1.265-1.606-.292-1.461-.097-.145-1.364 2.39-.875 1.656.39-.145.145-.195-.195-.195-.293m25.14.196c-.097-.586 1.024-1.512.489-.39-.145.144-.293.292-.489.39m-1.07-1.266c-1.07-.39-1.266-2.777.195-2.484 1.071.289 1.657 2.14.536 2.726-.293.098-.586-.047-.731-.242m.051-.246c-1.414-.242-.293-2.871.777-1.605.633.535.34 2.582-.777 1.605m-16.664-.242c-.535-.781-1.219-2.094-.293-2.922.683-.344 1.511 1.508.586.438-1.27-.145-1.172 1.609-.196 2.046.243.196.68.973 0 .535zm-12.766-3.363c-.293-.973 1.317.78.098.05-.047 0-.047-.05-.098-.05m.196-.73c-.829-.731-.977-2.337.046-2.97 1.172-.05 1.563 1.508 1.121 2.383-.195.442-.68 1.024-1.167.586m.195.05c-.828-.535-1.024-2.242.097-2.484.973.097 1.07 1.46.583 2.144a.85.85 0 0 1-.68.34m36.051-1.852c.246-.293.925-1.804.976-.73-.148.387-.488.777-.976.73m-.973-1.558c-.781-.73-1.168-2.243-.195-2.973 1.07-.195 1.754 1.023 1.8 1.996.246.828-1.019 2.098-1.605.977m.144-.051c-1.121-.488-.828-3.117.633-2.242.879.488.977 2.683-.34 2.488l-.144-.098zm-11.886-2.68c-1.219-.34-.828-2.972.535-2.047.683.489.73 2.485-.535 2.047m-18.707-.242c-.88-.586-.344-2.582.875-2.145.828.587.437 2.68-.778 2.243-.05 0-.097-.051-.097-.098m18.707.047c-1.508-.293.195-2.871.777-1.219.246.489 0 1.805-.777 1.219m-18.61-.047c-1.218-.586.535-2.824.973-1.316.148.586-.242 1.656-.973 1.316m11.008-.535c-1.312-.442-.191-3.07.781-1.805.34.633.047.489-.242.098-1.511-.34-1.074 2.387.34 1.754.438.242-1.023.437-.879-.047m7.36-6.285c1.121-.782-1.075-2.828-1.219-1.317.097.34.488 1.364-.196.684-.73-.977 1.024-2.293 1.512-1.023.242.484.535 1.312-.097 1.656m-13.739-1.805c-1.172-.34-.539-2.777.633-1.95.926.49.633 2.927-.633 1.95m.242.148c-1.363-.195-.195-2.874.633-1.464.293.539.293 1.804-.633 1.465m5.895-4.144c-1.266-.387-.39-2.922.73-1.945.246.34.633 1.46.246.484-.832-.828-2 .586-.976 1.219.144.097.34.586 0 .242"/><path fill="#ffc13f" d="M88.746 109.793c-1.512-.34.535-2.582.781-.875.192.484-.195 1.605-.78.875m-8.625-.289c-.535-1.27 1.95-.051.684.387-.243-.047-.489-.196-.684-.387m-.242-4.727c-1.168-.148-.438-2.484.535-1.656.535.438.488 2.238-.535 1.656m13.008-2.437c-1.512-.242.437-2.68.781-1.024.191.489-.098 1.754-.781 1.024m7.164-.242c-1.465-.535 1.07-2.387.777-.633 0 .387-.39 1.07-.777.633m-24.945-.684c-1.122-.633 1.167-1.61.68-.34.05.391-.583.926-.68.34m34.832-.293c-1.411-.586.976-2.484.976-.73.145.488-.488 1.511-.976.73M83.34 99.078c-1.317-.293.73-2.144.73-.734.34.441-.441 1.61-.73.734m34.297-.781c-.633-.586-.34-2.242.633-2.094 1.023.387.585 2.531-.582 2.094zm7.308-2.387c-1.218-.879 1.61-1.851.875-.39-.093.34-.582.878-.875.39m-48.183-2.875c-1.317-.144-.344-2.824.535-1.512.242.536.144 1.461-.535 1.512m10.132-.144c-.925-.54.196-2.391.973-1.61.489.582-.047 2.29-.973 1.61m20.172-.344c-1.464-.684 1.266-2.145.922-.438.102.489-.726 1.317-.922.438m-10.332-1.512c-1.507-.289.489-2.726.782-1.02.195.485-.098 1.754-.782 1.02m22.852-2.387c-1.023-.488-.731-3.02.633-2.093.828.535.879 2.484-.391 2.289l-.098-.047zm-39.855-3.945c-1.168-.68 1.171-2.191.925-.586.051.442-.582 1.219-.925.586m23.874-.68c-1.46-.343.633-2.535.829-.93.293.489-.243 1.805-.829.93m22.317-.441c-.832-.293-.93-1.996.047-2.144.972.097 1.07 2.144-.047 2.144m-40.004-.73c-1.312-.73 1.27-2.145.879-.583.047.438-.586 1.215-.879.583m25.191-2.047c-.976-.145-.925-1.801 0-1.95.926.098 1.364 1.903.34 2.098a.45.45 0 0 1-.34-.148m-16.957-1.266c-1.46-.437.782-2.437.88-.828.195.488-.391 1.61-.88.828M81.68 76.082c-1.168-.586.097-2.973.976-1.66.39.633 0 2.242-.976 1.66m35.468-3.168c-1.121-.488-.582-3.07.684-2.047.828.535.828 2.535-.437 2.242l-.098-.097zm-30.449-2.926c-1.316-.535.73-2.726.926-1.07.047.488-.293 1.363-.926 1.07m18.465-.047c-1.461-.488.926-2.386.926-.78.195.487-.438 1.558-.926.78m-7.113-.293c-1.512-.097-.145-2.921.488-1.218.195.437.145 1.218-.488 1.218m6.14-6.867c-1.461-.734 1.215-2.195 1.024-.539.191.633-.781 1.414-1.024.54m-12.816-1.465c-1.508-.34.684-2.53.832-.875.145.438-.344 1.703-.832.875m6.188-4.043c-1.508-.437.78-2.484.878-.828.145.438-.39 1.61-.879.828"/><path d="M166.395 137.25c-2.29-1.414-4.387-4.094-4.387-5.652 0-.926.828-2.239 2.582-4.09 1.414-1.512 3.121-3.801 3.754-5.117l1.121-2.387-1.367-2.731c-.778-1.507-1.899-4.382-2.485-6.429-6.383-20.754-12.91-28.356-35.222-40.828-6.969-3.848-9.407-5.75-11.012-8.282-1.512-2.535-1.512-5.117.144-7.504 4.778-7.066 24.071-6.187 40.098 1.805 11.742 5.797 20.317 14.125 24.75 24.016 5.067 11.16 6.285 22.804 3.363 31.719-1.121 3.41-4.531 8.476-6.675 9.89-1.461.973-1.95 1.754-2.68 4.531-1.363 5.02-4.191 10.329-5.992 11.254-2 1.024-4.094.977-5.992-.195m5.55-4.387c-.582-1.07-.437-1.652.977-4.429 2.191-4.336 4.531-11.84 5.555-17.786 4.382-25.773-14.664-49.988-43.313-55.003-2.484-.438-5.699-.782-7.113-.782-1.949 0-2.629-.242-3.02-1.023-.488-.926-.343-1.07 1.41-1.559 2.875-.828 11.356-.683 16.223.246 15.203 2.871 28.941 11.352 36.301 22.457 10.621 15.934 11.008 37.809.777 44.871-1.851 1.27-2.238 1.95-3.457 5.848-1.219 3.945-3.07 8.332-3.558 8.332-.047 0-.438-.535-.782-1.172m-4.09-2.773-1.707-.731 1.805-2.293c.926-1.265 2.145-3.359 2.629-4.675.926-2.34.926-2.34-.68-6.137-.828-2.098-2.293-6.191-3.214-9.016-3.657-11.449-7.067-17.344-13.743-24.02-5.164-5.163-8.621-7.6-19.34-13.788-8.625-4.918-11.644-6.965-12.035-8.036-.144-.343.731-1.609 1.903-2.874l2.14-2.243 4.094.34c12.035 1.024 24.02 6.14 32.547 13.985 6.965 6.43 11.496 13.789 13.883 22.558 1.367 5.016 1.656 16.465.535 21.094-1.75 7.16-4.09 13.059-6.137 15.445-.926 1.024-1.121 1.071-2.68.391"/><path fill="#f5a701" d="M169.172 138.371c.387-.144.824-.098 1.019.051.149.191-.144.289-.679.289-.633-.047-.731-.145-.34-.34m-5.41-2.875-1.508-1.707 1.703 1.512c.926.879 1.656 1.609 1.656 1.707 0 .387-.39.047-1.851-1.512m10.476.098c.196-.242.438-.489.582-.489.149 0 .102.247-.047.489-.195.293-.437.535-.585.535-.145 0-.145-.242.05-.535m-2.293-2.731c-.582-1.07-.437-1.652.977-4.429 2.191-4.336 4.531-11.84 5.555-17.786 4.382-25.773-14.664-49.988-43.313-55.003-2.484-.438-5.699-.782-7.113-.782-1.949 0-2.629-.242-3.02-1.023-.488-.926-.343-1.07 1.41-1.559 2.875-.828 11.356-.683 16.223.246 15.203 2.871 28.941 11.352 36.301 22.457 10.621 15.934 11.008 37.809.777 44.871-1.851 1.27-2.238 1.95-3.457 5.848-1.219 3.945-3.07 8.332-3.558 8.332-.047 0-.438-.535-.782-1.172m-.828-4.871c.977-1.605 2.145-4.09 2.633-5.504s.977-2.484 1.07-2.34c.633.586-3.75 9.747-4.968 10.524-.293.148.293-1.024 1.265-2.68m5.996 1.903c0-.391.145-.536.34-.34a.467.467 0 0 1 0 .679c-.195.196-.34.047-.34-.339m-10.672-.489c-.144-.242.149-.777.633-1.168.828-.633.828-.586.246.145-.586.73-.586.926 0 1.172.438.144.485.242.047.289-.34 0-.777-.145-.926-.438m-2.093-2.144c1.121-1.121 2.144-2.047 2.289-2.047.144 0-.684.926-1.801 2.047-1.121 1.172-2.145 2.097-2.289 2.097-.149 0 .68-.925 1.801-2.097m13.25 1.074c0-.391.195-.535.39-.344a.47.47 0 0 1 0 .684c-.195.195-.39.047-.39-.34m-9.11-2.098c.196-.293.438-.535.586-.535.145 0 .145.242-.051.535s-.437.535-.585.535c-.145 0-.094-.242.05-.535m1.364-2.093c.73-1.61.976-1.903.976-1.219 0 .293-.344.976-.781 1.512-.777.972-.777.925-.195-.293m8.82.535c0-.391.144-.535.34-.34a.47.47 0 0 1 0 .68c-.196.195-.34.05-.34-.34m1.801-2.629c.195-.246.437-.488.586-.488.144 0 .144.242-.051.488-.195.293-.438.535-.582.535-.149 0-.098-.242.047-.535m-9.645-.488c0-.391.195-.536.391-.34a.59.59 0 0 1 0 .679c-.196.196-.391.051-.391-.339m.391-2.047c-.196-.875-.149-1.071.242-.68.293.289.437.824.34 1.215-.145.39-.391.148-.582-.535m3.894-.586c0-.438.196-1.364.442-2.094.34-1.023.386-1.07.437-.242 0 .586-.195 1.508-.437 2.094-.293.632-.442.73-.442.242m9.016-.485c.191-.293.437-.539.582-.539.148 0 .098.246-.047.539-.195.243-.437.485-.586.485-.144 0-.098-.242.051-.485m-13.984-1.367c-.536-1.265-.391-1.605.242-.582.293.535.441 1.07.293 1.219-.098.144-.391-.149-.535-.637m15.054-.242c.149-.242.438-.488.535-.488.149 0 .149.246-.046.488-.149.293-.442.535-.586.535-.145 0-.098-.242.097-.535m-9.16-2.047c0-.391.195-.535.391-.34.144.145.144.489 0 .684-.196.191-.391.047-.391-.344m-9.891-1.07c0-.391.149-.535.344-.34a.467.467 0 0 1 0 .68c-.195.195-.344.05-.344-.34m2.633 0c0-.391.145-.535.34-.34a.47.47 0 0 1 0 .68c-.195.195-.34.05-.34-.34m7.891-1.559c0-.73.098-1.023.246-.633.145.34.145.922 0 1.313-.148.344-.246.051-.246-.68m-8.426 0c0-.39.145-.539.34-.344s.195.489 0 .684-.34.051-.34-.34m-.535-1.558c0-.391.144-.539.34-.344a.47.47 0 0 1 0 .683c-.196.196-.34.047-.34-.339m-3.121-1.563c0-.387.148-.535.344-.34a.473.473 0 0 1 0 .684c-.196.195-.344.047-.344-.344m2.633 0c0-.387.144-.535.34-.34a.473.473 0 0 1 0 .684c-.196.195-.34.047-.34-.344m10.086-4.43c0-2.875.046-3.949.195-2.437.094 1.512.094 3.848 0 5.215-.149 1.312-.195.093-.195-2.778m11.3 3.606c0-.586.149-.735.293-.293.145.34.145.828 0 .973-.195.195-.339-.145-.293-.68m-21.921-.735c0-.386.144-.535.339-.339a.47.47 0 0 1 0 .683c-.195.196-.339.047-.339-.344m-2.633-.535c0-.39.195-.535.39-.34a.59.59 0 0 1 0 .68c-.195.195-.39.051-.39-.34m2.144-1.312c.047-.637.145-.735.293-.344.196.391.145.828 0 1.024-.195.148-.293-.145-.293-.68m-2.633-.246c0-.391.149-.535.344-.34s.195.484 0 .68c-.195.195-.344.05-.344-.34m25.629-.778c0-.879.098-1.121.243-.636.148.488.148 1.218 0 1.558-.145.344-.243-.047-.243-.922m-24.066-1.804c0-.391.144-.535.34-.34.195.144.195.484 0 .68-.196.195-.34.05-.34-.34m-.539-1.559c0-.391.148-.535.344-.391a.53.53 0 0 1 0 .731c-.196.195-.344 0-.344-.34m-.973-2.387c-.828-1.902-.683-2.34.242-.586.438.829.731 1.559.586 1.708-.097.093-.488-.391-.828-1.122m25.578-1.023c0-.879.098-1.121.243-.633.148.484.148 1.215 0 1.559-.145.34-.243-.051-.243-.926m-12.523-.242c0-.735.098-1.024.246-.684.145.39.145.973 0 1.317-.148.34-.246.046-.246-.633m-16.223 0c0-.39.149-.54.34-.344a.473.473 0 0 1 0 .684c-.191.195-.34.047-.34-.34m15.641-2.926c.047-.582.144-.73.34-.293.144.344.097.828-.047.977-.195.195-.293-.149-.293-.684m-15.152-1.266c-.293-.586-.442-1.023-.293-1.023.144 0 .535.437.828 1.023.293.582.437 1.07.293 1.07-.149 0-.489-.488-.828-1.07m27.671.242c0-.632.149-.73.293-.34.145.391.145.829 0 1.024-.195.145-.339-.148-.293-.684m-13.007-1.07c0-.586.144-.73.293-.293.144.34.144.828-.051.973-.145.195-.289-.094-.242-.68m-16.032-1.316c-.191-.39-.093-.489.246-.242.34.195.633.484.633.582 0 .441-.488.246-.879-.34m15.446-.438c0-.39.148-.535.343-.343.196.148.196.488 0 .683-.195.196-.343.05-.343-.34m-19.047-.632c-.246-.344-.149-.442.191-.196.637.34.828.828.391.828-.145 0-.391-.293-.582-.632m2.582-.489c-.246-.39-.149-.488.242-.242.586.387.777.828.34.828-.098 0-.391-.293-.582-.586m-4.434-1.902c-.637-.824-.637-.824.196-.191.875.68 1.117 1.117.726 1.117-.144 0-.535-.387-.922-.926m2.582-.484c-.636-.829-.636-.88.196-.247.875.684 1.168 1.121.726 1.121-.094 0-.531-.39-.922-.874m17.102.097c-.539-1.316-.391-1.656.242-.586.293.489.437 1.024.293 1.168-.148.149-.391-.144-.535-.582m13.203-.246c0-.387.144-.535.34-.34a.473.473 0 0 1 0 .684c-.196.195-.34.047-.34-.344m-.539-1.558c0-.387.148-.536.344-.34a.473.473 0 0 1 0 .683c-.196.195-.344.047-.344-.343m-33.617-2.727-2.582-2.777 2.73 2.629c2.531 2.386 2.973 2.875 2.582 2.875-.098 0-1.316-1.266-2.73-2.727m18.757.098c-.195-.344-.242-.684-.097-.829.148-.148.39.098.539.536.387.925.094 1.12-.442.293m-24.019-1.61c-.195-.39-.098-.488.246-.242.34.195.633.484.633.586 0 .437-.488.242-.879-.344m22.949-.535c-.246-.39-.148-.488.242-.242.34.195.586.484.586.582 0 .437-.437.246-.828-.34m-25.289-1.363c-.633-.828-.633-.828.195-.196.879.684 1.172 1.121.735 1.121-.149 0-.539-.437-.93-.925m2.875-.781-.973-1.169 1.168.973c.633.586 1.172 1.074 1.172 1.172 0 .438-.437.145-1.367-.977m21.391.585c-.242-.39-.149-.488.195-.242.633.387.828.825.391.825-.149 0-.391-.243-.586-.583m-26.067-1.07c-.242-.344-.144-.441.243-.195.292.195.585.437.585.582 0 .441-.437.246-.828-.387m24.75-.832c-.679-.828-.632-.828.196-.195.828.683 1.121 1.12.683 1.12-.097 0-.488-.386-.879-.925m-26.308-.195c-.242-.387-.145-.438.242-.242.293.195.586.488.586.632 0 .442-.488.196-.828-.39m4.14 0c-.195-.387-.144-.438.246-.242.34.195.582.488.582.632 0 .442-.437.196-.828-.39m-2.047-1.559c-.242-.386-.144-.484.196-.242.344.195.633.488.633.633 0 .39-.485.195-.829-.39m19.54-3.457-3.364-3.508 3.508 3.364c1.949 1.847 3.559 3.457 3.559 3.554 0 .34-.535-.148-3.703-3.41m17.441 1.899c-.242-.391-.148-.485.242-.243.293.196.586.489.586.586 0 .438-.437.242-.828-.343m-44.824-.536c-.242-.39-.145-.437.246-.242.34.242.582.488.582.633 0 .438-.438.195-.828-.39m4.191-.195c-.973-.777-.973-.777.145-.242.683.293 1.172.683 1.172.777 0 .442-.247.293-1.317-.535m-2.582-1.559c-.976-.78-.976-.78.145-.242.632.293 1.172.68 1.172.778 0 .437-.293.293-1.317-.536m40.34-1.656c-.684-.828-.633-.879.195-.195.875.684 1.121 1.07.684 1.07-.098 0-.488-.386-.879-.875m-43.992-.437c-.977-.782-.977-.782.144-.246.633.293 1.168.683 1.168.828 0 .39-.242.246-1.312-.582m24.457-1.95-.977-1.171 1.168 1.027c1.074.922 1.414 1.363.977 1.363-.098 0-.633-.535-1.168-1.218m-28.113-.144c-.973-.781-.973-.781.148-.246.633.34 1.168.683 1.168.828 0 .39-.246.293-1.316-.582m26.015-1.367c-.195-.34-.144-.438.246-.196.34.196.582.442.582.587 0 .437-.437.242-.828-.391m-34.64-1.313c-.68-.832-.633-.879.195-.195.879.68 1.121 1.07.683 1.07-.097 0-.488-.39-.878-.875m4.433.29c-.242-.391-.144-.438.246-.243.293.195.582.489.582.633 0 .438-.437.195-.828-.39m28.649 0c-.243-.391-.145-.438.246-.243.339.195.582.489.582.633 0 .438-.438.195-.828-.39m-30.207-1.024c-.243-.387-.145-.484.246-.242.293.195.582.488.582.586 0 .437-.485.242-.828-.344m24.019-2.094c-2.289-1.12-3.605-1.898-2.875-1.707 1.559.442 7.309 3.266 7.309 3.606 0 .343.39.488-4.434-1.899m22.606 1.266c-.68-.828-.633-.875.195-.242.879.683 1.121 1.12.683 1.12-.097 0-.488-.39-.878-.878m-48.961-1.07-1.27-1.415 1.414 1.266c1.363 1.172 1.703 1.61 1.266 1.61-.098 0-.731-.684-1.41-1.462m-2.875.34c-.247-.387-.149-.489.242-.243.293.196.586.489.586.586 0 .438-.442.242-.828-.344m49.5-1.07c-.247-.392-.149-.438.242-.247.293.246.586.488.586.637 0 .437-.442.191-.828-.39m-25.579-1.806a.47.47 0 0 1 .68 0c.195.149.051.344-.34.344-.39 0-.535-.195-.34-.344m-20.218-.73c.144-.29.437-.484.582-.484.148 0 .097.195-.047.484-.195.293-.488.535-.586.535-.145 0-.145-.242.051-.535m18.66.195a.47.47 0 0 1 .68 0c.195.196.05.34-.34.34-.391 0-.535-.145-.34-.34m-1.852-.535c.391-.145.828-.145 1.024.05.144.145-.149.29-.684.243-.633 0-.73-.148-.34-.293m24.309-.242c-.242-.39-.145-.488.195-.246.344.195.637.488.637.633 0 .39-.488.195-.832-.387m-26.356-.293c.34-.148.829-.098.973.047.195.195-.144.293-.68.293-.586-.047-.73-.145-.293-.34m-2.093-.488c.386-.145.828-.145.972 0 .196.195-.097.34-.683.293-.582 0-.731-.149-.289-.293m-10.914-.875c.242-.246 1.703-.344 3.261-.246l2.778.148-3.215.293c-1.805.145-3.07.047-2.824-.195m7.5.34c.488-.145 1.218-.145 1.558 0 .344.144-.047.242-.926.242-.875 0-1.168-.098-.632-.242m-13.446-2.778c.196-.293.438-.535.586-.535.145 0 .145.242-.051.535s-.437.535-.585.535c-.145 0-.094-.242.05-.535m33.813-1.363a.467.467 0 0 1 .679 0c.196.144.051.34-.339.34-.387 0-.536-.196-.34-.34m-1.559-.54c.145-.19.488-.19.68 0 .195.196.051.345-.34.345s-.535-.149-.34-.344m-29.625-.679c.149-.293.442-.535.586-.535.149 0 .098.242-.098.535-.144.242-.437.488-.582.488-.097 0-.097-.246.094-.488m28.016.145a.53.53 0 0 1 .73 0c.196.195 0 .343-.34.343-.39 0-.535-.148-.39-.343m-6.235-1.559c.196-.195.485-.195.68 0s.051.34-.34.34c-.39 0-.535-.145-.34-.34m-17.199-.535c.196-.195.535-.195.684 0 .191.195.047.34-.344.34s-.535-.145-.34-.34m14.324 0c.391-.145.829-.145 1.024.05.144.192-.149.29-.684.29-.633-.047-.73-.145-.34-.34m-11.253-.535c.535-.098 1.363-.098 1.851 0 .484.144.098.242-.926.242-.976 0-1.414-.098-.925-.242m6.039 0c.632-.098 1.558-.098 2.046 0 .536.144 0 .242-1.167.242-1.122 0-1.559-.098-.879-.242"/><path fill="#fcd900" d="m167.855 129.797-1.167-.586 1.847-2.484c.977-1.364 2.145-3.461 2.582-4.727.781-2.094.735-2.34-.437-4.871-.684-1.414-2.336-5.992-3.703-10.184-6.137-18.61-13.348-26.648-34.688-38.586-3.801-2.144-7.797-4.675-8.918-5.601l-2.043-1.754 2.094-2.098 2.144-2.14 4.532.34c8.332.632 19.683 4.578 26.453 9.257 3.703 2.531 9.988 8.672 12.472 12.18 2.875 4.14 5.606 9.988 6.821 14.86 1.465 5.75 1.367 18.124-.145 23.191-1.558 5.164-2.972 8.769-4.582 11.449-1.461 2.531-1.508 2.582-3.262 1.754"/><path d="M229.176 137.25c-2.293-1.414-4.387-4.094-4.387-5.652 0-.926.828-2.239 2.582-4.09 1.414-1.512 3.117-3.801 3.75-5.117l1.121-2.387-1.363-2.731c-.777-1.507-1.899-4.382-2.484-6.429-6.383-20.754-12.911-28.356-35.223-40.828-6.969-3.848-9.406-5.75-11.012-8.282-1.512-2.535-1.512-5.117.145-7.504 4.773-7.066 24.066-6.187 40.097 1.805 11.743 5.797 20.317 14.125 24.75 24.016 5.067 11.16 6.286 22.804 3.364 31.719-1.121 3.41-4.532 8.476-6.676 9.89-1.461.973-1.949 1.754-2.68 4.531-1.363 5.02-4.191 10.329-5.992 11.254-2 1.024-4.094.977-5.992-.195m5.551-4.387c-.582-1.07-.438-1.652.976-4.429 2.192-4.336 4.531-11.84 5.555-17.786 4.383-25.773-14.664-49.988-43.313-55.003-2.484-.438-5.703-.782-7.113-.782-1.949 0-2.633-.242-3.019-1.023-.489-.926-.344-1.07 1.41-1.559 2.875-.828 11.351-.683 16.222.246 15.203 2.871 28.942 11.352 36.297 22.457 10.621 15.934 11.012 37.809.781 44.871-1.851 1.27-2.242 1.95-3.46 5.848-1.215 3.945-3.067 8.332-3.555 8.332-.047 0-.438-.535-.781-1.172m-4.09-2.773-1.707-.731 1.804-2.293c.926-1.265 2.145-3.359 2.629-4.675.926-2.34.926-2.34-.679-6.137-.829-2.098-2.293-6.191-3.219-9.016-3.652-11.449-7.063-17.344-13.738-24.02-5.164-5.163-8.622-7.6-19.34-13.788-8.625-4.918-11.645-6.965-12.035-8.036-.149-.343.73-1.609 1.902-2.874l2.141-2.243 4.093.34c12.032 1.024 24.02 6.14 32.543 13.985 6.969 6.43 11.5 13.789 13.887 22.558 1.363 5.016 1.656 16.465.535 21.094-1.754 7.16-4.09 13.059-6.137 15.445-.925 1.024-1.121 1.071-2.679.391"/><path fill="#f5a701" d="M231.949 138.371c.391-.144.828-.098 1.024.051.148.191-.145.289-.68.289-.633-.047-.73-.145-.344-.34m-5.406-2.875-1.512-1.707 1.707 1.512c.926.879 1.657 1.609 1.657 1.707 0 .387-.391.047-1.852-1.512m10.477.098c.195-.242.437-.489.582-.489.148 0 .097.247-.047.489-.196.293-.438.535-.586.535-.145 0-.145-.242.051-.535m-2.293-2.731c-.582-1.07-.438-1.652.976-4.429 2.192-4.336 4.531-11.84 5.555-17.786 4.383-25.773-14.664-49.988-43.313-55.003-2.484-.438-5.703-.782-7.113-.782-1.949 0-2.633-.242-3.019-1.023-.489-.926-.344-1.07 1.41-1.559 2.875-.828 11.351-.683 16.222.246 15.203 2.871 28.942 11.352 36.297 22.457 10.621 15.934 11.012 37.809.781 44.871-1.851 1.27-2.242 1.95-3.46 5.848-1.215 3.945-3.067 8.332-3.555 8.332-.047 0-.438-.535-.781-1.172m-.829-4.871c.977-1.605 2.145-4.09 2.633-5.504.489-1.414.973-2.484 1.071-2.34.632.586-3.75 9.747-4.969 10.524-.293.148.293-1.024 1.265-2.68m5.997 1.903c0-.391.144-.536.339-.34a.466.466 0 0 1 0 .679c-.195.196-.339.047-.339-.339m-10.672-.489c-.145-.242.144-.777.632-1.168.829-.633.829-.586.247.145-.586.73-.586.926 0 1.172.437.144.484.242.046.289-.339 0-.781-.145-.925-.438m-2.094-2.144c1.117-1.121 2.141-2.047 2.289-2.047.145 0-.684.926-1.805 2.047-1.117 1.172-2.14 2.097-2.289 2.097-.144 0 .684-.925 1.805-2.097m13.25 1.074c0-.391.195-.535.391-.344a.473.473 0 0 1 0 .684c-.196.195-.391.047-.391-.34m-9.109-2.098c.195-.293.437-.535.585-.535.145 0 .145.242-.05.535-.196.293-.438.535-.586.535-.145 0-.098-.242.051-.535m1.363-2.093c.73-1.61.976-1.903.976-1.219 0 .293-.343.976-.781 1.512-.777.972-.777.925-.195-.293m8.82.535c0-.391.145-.535.34-.34s.195.484 0 .68c-.195.195-.34.05-.34-.34m1.801-2.629c.195-.246.437-.488.586-.488.144 0 .144.242-.051.488-.195.293-.437.535-.586.535-.144 0-.094-.242.051-.535m-9.645-.488c0-.391.196-.536.387-.34a.57.57 0 0 1 0 .679c-.191.196-.387.051-.387-.339m.387-2.047c-.191-.875-.144-1.071.246-.68.289.289.438.824.34 1.215-.144.39-.391.148-.586-.535m3.899-.586c0-.438.195-1.364.441-2.094.34-1.023.387-1.07.437-.242 0 .586-.195 1.508-.437 2.094-.297.632-.441.73-.441.242m9.011-.485c.196-.293.442-.539.586-.539.149 0 .098.246-.047.539-.195.243-.437.485-.586.485-.144 0-.097-.242.047-.485m-13.98-1.367c-.535-1.265-.391-1.605.242-.582.293.535.441 1.07.293 1.219-.098.144-.391-.149-.535-.637m15.054-.242c.149-.242.438-.488.536-.488.148 0 .148.246-.047.488-.149.293-.442.535-.586.535-.145 0-.098-.242.097-.535m-9.16-2.047c0-.391.196-.535.391-.34.144.145.144.489 0 .684-.195.191-.391.047-.391-.344m-9.89-1.07c0-.391.148-.535.34-.34a.47.47 0 0 1 0 .68c-.192.195-.34.05-.34-.34m2.633 0c0-.391.144-.535.339-.34a.467.467 0 0 1 0 .68c-.195.195-.339.05-.339-.34m7.89-1.559c0-.73.098-1.023.246-.633.145.34.145.922 0 1.313-.148.344-.246.051-.246-.68m-8.43 0c0-.39.149-.539.344-.344a.47.47 0 0 1 0 .684c-.195.195-.344.051-.344-.34m-.535-1.558c0-.391.149-.539.34-.344a.47.47 0 0 1 0 .683c-.191.196-.34.047-.34-.339m-3.117-1.563c0-.387.149-.535.344-.34a.48.48 0 0 1 0 .684c-.195.195-.344.047-.344-.344m2.633 0c0-.387.144-.535.34-.34a.473.473 0 0 1 0 .684c-.196.195-.34.047-.34-.344m10.086-4.43c0-2.875.047-3.949.191-2.437.098 1.512.098 3.848 0 5.215-.144 1.312-.191.093-.191-2.778m11.301 3.606c0-.586.144-.735.293-.293.144.34.144.828 0 .973-.196.195-.34-.145-.293-.68m-21.926-.735c0-.386.148-.535.344-.339a.47.47 0 0 1 0 .683c-.196.196-.344.047-.344-.344m-2.629-.535c0-.39.195-.535.391-.34a.59.59 0 0 1 0 .68c-.196.195-.391.051-.391-.34m2.144-1.312c.047-.637.145-.735.29-.344.195.391.148.828 0 1.024-.192.148-.29-.145-.29-.68m-2.632-.246c0-.391.148-.535.34-.34a.47.47 0 0 1 0 .68c-.192.195-.34.05-.34-.34m25.629-.778c0-.879.097-1.121.242-.636.144.488.144 1.218 0 1.558-.145.344-.242-.047-.242-.922m-24.071-1.804c0-.391.149-.535.34-.34.195.144.195.484 0 .68-.191.195-.34.05-.34-.34m-.535-1.559c0-.391.149-.535.344-.391a.54.54 0 0 1 0 .731c-.195.195-.344 0-.344-.34m-.973-2.387c-.828-1.902-.683-2.34.243-.586.437.829.73 1.559.586 1.708-.098.093-.489-.391-.829-1.122m25.579-1.023c0-.879.097-1.121.242-.633.144.484.144 1.215 0 1.559-.145.34-.242-.051-.242-.926m-12.524-.242c0-.735.098-1.024.246-.684.145.39.145.973 0 1.317-.148.34-.246.046-.246-.633m-16.223 0c0-.39.149-.54.34-.344a.47.47 0 0 1 0 .684c-.191.195-.34.047-.34-.34m15.641-2.926c.047-.582.145-.73.34-.293.144.344.098.828-.051.977-.191.195-.289-.149-.289-.684m-15.152-1.266c-.293-.586-.442-1.023-.293-1.023.144 0 .535.437.828 1.023.293.582.437 1.07.293 1.07-.149 0-.488-.488-.828-1.07m27.672.242c0-.632.144-.73.293-.34.144.391.144.829 0 1.024-.196.145-.34-.148-.293-.684m-13.008-1.07c0-.586.144-.73.293-.293.144.34.144.828-.051.973-.145.195-.289-.094-.242-.68m-16.031-1.316c-.196-.39-.094-.489.246-.242.34.195.632.484.632.582 0 .441-.488.246-.878-.34m15.445-.438c0-.39.148-.535.344-.343.195.148.195.488 0 .683-.196.196-.344.05-.344-.34m-19.051-.632c-.242-.344-.144-.442.195-.196.633.34.829.828.391.828-.144 0-.391-.293-.586-.632m2.582-.489c-.242-.39-.144-.488.246-.242.582.387.778.828.34.828-.098 0-.391-.293-.586-.586m-4.433-1.902c-.633-.824-.633-.824.195-.191.879.68 1.121 1.117.73 1.117-.144 0-.535-.387-.925-.926m2.585-.484c-.636-.829-.636-.88.196-.247.875.684 1.168 1.121.726 1.121-.093 0-.535-.39-.922-.874m17.098.097c-.535-1.316-.387-1.656.246-.586.293.489.438 1.024.293 1.168-.148.149-.39-.144-.539-.582m13.203-.246c0-.387.149-.535.344-.34s.195.489 0 .684-.344.047-.344-.344m-.535-1.558c0-.387.149-.536.344-.34a.48.48 0 0 1 0 .683c-.195.195-.344.047-.344-.343m-33.617-2.727-2.582-2.777 2.73 2.629c2.532 2.386 2.969 2.875 2.582 2.875-.097 0-1.316-1.266-2.73-2.727m18.758.098c-.196-.344-.242-.684-.098-.829.149-.148.391.098.535.536.391.925.098 1.12-.437.293m-24.02-1.61c-.195-.39-.097-.488.246-.242.34.195.633.484.633.586 0 .437-.488.242-.879-.344m22.949-.535c-.246-.39-.148-.488.243-.242.339.195.586.484.586.582 0 .437-.442.246-.829-.34m-25.289-1.363c-.632-.828-.632-.828.196-.196.879.684 1.172 1.121.73 1.121-.144 0-.535-.437-.926-.925m2.875-.781-.972-1.169 1.168.973c.632.586 1.172 1.074 1.172 1.172 0 .438-.442.145-1.368-.977m21.391.585c-.242-.39-.148-.488.195-.242.633.387.828.825.391.825-.149 0-.391-.243-.586-.583m-26.066-1.07c-.243-.344-.149-.441.242-.195.293.195.586.437.586.582 0 .441-.438.246-.828-.387m24.75-.832c-.68-.828-.633-.828.195-.195.828.683 1.121 1.12.683 1.12-.097 0-.488-.386-.878-.925m-26.309-.195c-.242-.387-.148-.438.242-.242.293.195.586.488.586.632 0 .442-.488.196-.828-.39m4.141 0c-.196-.387-.145-.438.246-.242.34.195.582.488.582.632 0 .442-.438.196-.828-.39m-2.047-1.559c-.242-.386-.145-.484.195-.242.344.195.633.488.633.633 0 .39-.485.195-.828-.39m19.539-3.457-3.363-3.508 3.507 3.364c1.95 1.847 3.559 3.457 3.559 3.554 0 .34-.539-.148-3.703-3.41m17.441 1.899c-.246-.391-.148-.485.242-.243.293.196.586.489.586.586 0 .438-.437.242-.828-.343m-44.824-.536c-.242-.39-.145-.437.246-.242.34.242.582.488.582.633 0 .438-.437.195-.828-.39m4.191-.195c-.976-.777-.976-.777.145-.242.684.293 1.172.683 1.172.777 0 .442-.246.293-1.317-.535m-2.582-1.559c-.976-.78-.976-.78.145-.242.633.293 1.172.68 1.172.778 0 .437-.293.293-1.317-.536m40.34-1.656c-.683-.828-.633-.879.196-.195.875.684 1.121 1.07.679 1.07-.097 0-.484-.386-.875-.875m-43.996-.437c-.973-.782-.973-.782.149-.246.632.293 1.168.683 1.168.828 0 .39-.243.246-1.317-.582m24.457-1.95-.973-1.171 1.168 1.027c1.075.922 1.415 1.363.977 1.363-.098 0-.633-.535-1.172-1.218m-28.109-.144c-.977-.781-.977-.781.144-.246.633.34 1.172.683 1.172.828 0 .39-.246.293-1.316-.582m26.015-1.367c-.195-.34-.144-.438.246-.196.34.196.583.442.583.587 0 .437-.438.242-.829-.391m-34.64-1.313c-.68-.832-.633-.879.195-.195.879.68 1.121 1.07.684 1.07-.098 0-.489-.39-.879-.875m4.433.29c-.242-.391-.144-.438.246-.243.29.195.582.489.582.633 0 .438-.437.195-.828-.39m28.649 0c-.242-.391-.145-.438.246-.243.34.195.582.489.582.633 0 .438-.438.195-.828-.39m-30.207-1.024c-.242-.387-.145-.484.246-.242.289.195.582.488.582.586 0 .437-.484.242-.828-.344m24.019-2.094c-2.289-1.12-3.605-1.898-2.875-1.707 1.559.442 7.309 3.266 7.309 3.606 0 .343.391.488-4.434-1.899m22.606 1.266c-.68-.828-.633-.875.195-.242.879.683 1.121 1.12.684 1.12-.098 0-.489-.39-.879-.878m-48.961-1.07-1.27-1.415 1.414 1.266c1.364 1.172 1.703 1.61 1.266 1.61-.098 0-.73-.684-1.41-1.462m-2.875.34c-.246-.387-.149-.489.242-.243.293.196.586.489.586.586 0 .438-.441.242-.828-.344m49.5-1.07c-.246-.392-.149-.438.242-.247.293.246.586.488.586.637 0 .437-.441.191-.828-.39m-25.578-1.806a.467.467 0 0 1 .679 0c.196.149.051.344-.339.344-.391 0-.536-.195-.34-.344m-20.219-.73c.144-.29.437-.484.582-.484.148 0 .098.195-.047.484-.195.293-.488.535-.586.535-.144 0-.144-.242.051-.535m18.656.195a.473.473 0 0 1 .684 0c.195.196.051.34-.34.34s-.535-.145-.344-.34m-1.847-.535c.386-.145.828-.145 1.019.05.149.145-.144.29-.68.243-.632 0-.73-.148-.339-.293m24.308-.242c-.242-.39-.144-.488.195-.246.34.195.633.488.633.633 0 .39-.484.195-.828-.387m-26.355-.293c.34-.148.828-.098.972.047.196.195-.144.293-.679.293-.586-.047-.735-.145-.293-.34m-2.094-.488c.387-.145.824-.145.973 0 .195.195-.098.34-.684.293-.582 0-.73-.149-.289-.293m-10.914-.875c.242-.246 1.703-.344 3.262-.246l2.777.148-3.215.293c-1.805.145-3.07.047-2.824-.195m7.5.34c.488-.145 1.219-.145 1.558 0 .344.144-.046.242-.925.242-.875 0-1.168-.098-.633-.242m-13.445-2.778c.195-.293.437-.535.585-.535.145 0 .145.242-.05.535-.196.293-.438.535-.586.535-.145 0-.098-.242.051-.535m33.812-1.363a.47.47 0 0 1 .68 0c.195.144.051.34-.34.34s-.535-.196-.34-.34m-1.559-.54c.145-.19.485-.19.68 0 .195.196.051.345-.34.345-.39 0-.535-.149-.34-.344m-29.625-.679c.149-.293.442-.535.586-.535.149 0 .098.242-.097.535-.145.242-.438.488-.582.488-.102 0-.102-.246.093-.488m28.016.145a.53.53 0 0 1 .731 0c.195.195 0 .343-.34.343-.391 0-.535-.148-.391-.343m-6.234-1.559a.467.467 0 0 1 .679 0c.196.195.051.34-.339.34-.391 0-.536-.145-.34-.34m-17.2-.535c.196-.195.536-.195.68 0 .195.195.051.34-.34.34-.39 0-.535-.145-.34-.34m14.325 0c.386-.145.828-.145 1.023.05.145.192-.148.29-.683.29-.633-.047-.731-.145-.34-.34m-11.254-.535c.535-.098 1.363-.098 1.847 0 .489.144.098.242-.921.242-.977 0-1.414-.098-.926-.242m6.039 0c.633-.098 1.558-.098 2.047 0 .535.144 0 .242-1.168.242-1.121 0-1.563-.098-.879-.242"/><path fill="#fcd900" d="m230.637 129.797-1.172-.586 1.851-2.484c.977-1.364 2.145-3.461 2.582-4.727.782-2.094.735-2.34-.437-4.871-.684-1.414-2.34-5.992-3.703-10.184-6.137-18.61-13.348-26.648-34.688-38.586-3.8-2.144-7.797-4.675-8.918-5.601l-2.043-1.754 2.094-2.098 2.145-2.14 4.531.34c8.332.632 19.684 4.578 26.453 9.257 3.703 2.531 9.988 8.672 12.473 12.18 2.875 4.14 5.601 9.988 6.82 14.86 1.465 5.75 1.363 18.124-.145 23.191-1.558 5.164-2.972 8.769-4.582 11.449-1.46 2.531-1.507 2.582-3.261 1.754"/><path fill="#a7410e" d="M261.191 118.184c-.308-.125-.621-.313-.683-.313s.558-.68 1.363-1.488c.809-.805 1.801-1.86 2.234-2.481a20.5 20.5 0 0 0 1.489-2.293c.308-.683.746-1.796.992-2.418.187-.683.371-1.796.434-2.418 0-.683.125-1.242.25-1.304.058-.063.554-.121 1.05-.121.746 0 .934.058.993.246.062.125 0 .746-.122 1.426-.125.621-.433 1.863-.746 2.668-.246.867-.679 2.046-.992 2.664-.308.621-.867 1.675-1.301 2.296-.371.622-.992 1.426-1.3 1.797-.375.313-.93.809-1.243 1.118-.371.246-.804.558-1.054.679a2 2 0 0 1-.621.188c-.121 0-.434-.125-.743-.246m17.735-8.371h.746c.246.058.058.058-.375.058-.371 0-.559 0-.371-.058M258.09 69.32c.433-.37.808-.742.808-.742.063 0-.25.371-.683.742-.371.434-.742.805-.805.805-.062 0 .246-.371.68-.805m-7.563-1.613c.371-.434.743-.805.805-.805s-.246.371-.684.805c-.433.375-.804.746-.804.746-.063 0 .25-.371.683-.746"/><path fill="red" d="M277.129 109.438c-.559-.184-1.242-.434-1.43-.555-.246-.125-1.301-.746-2.293-1.43-1.054-.617-2.293-1.363-2.789-1.609-.808-.375-.992-.375-2.418-.375-1.242 0-1.676.062-2.605.375-.559.183-2.235.867-3.598 1.551-1.426.617-3.035 1.3-3.594 1.488-.558.183-1.488.433-2.109.496-.93.121-1.301.121-2.234-.063-.618-.125-1.735-.496-2.481-.808-.742-.246-1.797-.742-2.293-1.055-.496-.308-1.301-.805-1.676-1.113a33 33 0 0 1-1.609-1.488c-.496-.497-1.117-1.305-1.488-1.801-.313-.496-.809-1.426-1.117-2.043-.309-.559-.743-1.551-.93-2.172s-.496-1.676-.621-2.418c-.184-.746-.371-2.047-.434-2.914-.125-.93-.125-2.356-.062-3.473.062-1.054.187-2.605.312-3.41.063-.808.371-2.172.559-3.039.183-.867.617-2.48.992-3.66.371-1.113 1.176-2.977 1.734-4.09a43 43 0 0 1 1.922-3.535 69 69 0 0 1 1.797-2.48 69 69 0 0 1 2.359-2.481c.805-.805 1.985-1.797 2.54-2.172.558-.433 1.367-.93 1.8-1.176.434-.187 1.426-.62 2.231-.87a21 21 0 0 1 2.793-.68c.867-.126 1.734-.188 2.48-.126.68 0 1.61.25 2.481.497 1.05.308 1.609.433 2.539.433 1.054.063 1.304 0 3.101-.62 1.426-.556 2.11-.68 2.731-.68.496 0 1.301.124 1.859.308.559.125 1.488.496 2.106.746.621.309 1.675.805 2.296 1.176.68.434 1.672 1.117 2.293 1.613.622.434 1.614 1.363 2.235 1.984.617.622 1.547 1.614 2.043 2.235.496.617 1.304 1.734 1.801 2.418.433.742 1.175 1.984 1.613 2.726.433.746 1.113 2.11 1.547 3.04.375.867.992 2.48 1.367 3.472.371.992.805 2.418.992 3.223.184.746.434 1.922.555 2.668.062.68.187 2.047.25 2.976.062.992.062 2.356-.063 3.285-.062.868-.308 2.172-.433 2.852-.125.684-.434 1.8-.684 2.422-.183.68-.617 1.672-.93 2.293a23 23 0 0 1-1.238 2.105c-.375.559-1.055 1.43-1.613 1.985-.559.5-1.301 1.242-1.797 1.551-.438.312-1.305.871-1.922 1.179-.621.309-1.551.684-2.109.867-.496.188-1.426.372-1.985.497-.621.125-1.675.25-2.418.187-1.054 0-1.55-.062-2.355-.312m-27.906-15.254c-.184-.434-.496-1.239-.618-1.86-.187-.617-.375-1.797-.5-2.543-.121-.804-.183-2.418-.183-3.535 0-1.238.062-2.789.183-3.531.125-.746.313-1.863.5-2.48.122-.622.497-1.739.805-2.481.309-.746.867-1.922 1.301-2.606.434-.742 1.117-1.734 1.551-2.355.496-.559 1.363-1.488 1.984-2.11s1.676-1.488 2.293-1.984c.684-.433 1.613-1.055 2.172-1.3.559-.25 1.117-.497 1.363-.497.25-.062.371-.062.371.063 0 .062-.992 1.117-2.105 2.293a77 77 0 0 0-2.914 3.101 46 46 0 0 1-1.488 2.047c-.375.559-.993 1.672-1.368 2.418a30 30 0 0 0-1.113 2.602c-.187.683-.559 1.738-.684 2.36-.125.616-.371 1.733-.496 2.542-.125.93-.246 2.852-.246 5.516-.062 2.297-.125 4.34-.125 4.59-.062.246-.125.496-.187.496-.121 0-.309-.371-.496-.746"/><path d="M281.652 128.91c-.308-.062-1.05-.558-1.672-1.117-.621-.496-1.425-1.117-1.738-1.363-.433-.313-.929-.496-1.672-.621-.558-.063-1.859-.309-2.851-.434-1.489-.246-1.989-.371-2.918-.867-.805-.371-1.301-.746-1.922-1.426-.434-.496-1.055-1.305-1.363-1.926-.309-.617-.621-1.363-.743-1.609l-.125-.496-.929.679c-.559.375-1.489.93-2.11 1.243-1.054.496-1.238.558-1.859.433-.371 0-1.242-.308-1.922-.558-.867-.371-1.363-.68-1.738-1.118-.309-.308-.617-.804-.68-1.113-.125-.375-.125-.871-.062-1.179 0-.309.183-.805.371-1.055.125-.309.621-.805 1.054-1.176a14 14 0 0 0 1.86-1.676c.558-.558 1.363-1.488 1.738-2.047.371-.558.68-1.054.617-1.117 0 0-.804.313-1.734.746-.992.371-2.293.867-2.914 1.055-.867.184-1.551.309-2.856.309-1.488 0-1.921-.063-3.035-.372-.683-.25-1.859-.621-2.543-.929-.683-.313-1.734-.867-2.297-1.242-.617-.309-1.671-1.114-2.355-1.672-.742-.621-1.672-1.551-2.106-2.11a25 25 0 0 1-1.425-1.797c-.313-.496-.809-1.425-1.18-2.109-.313-.683-.809-1.734-1.055-2.418s-.558-1.984-.742-2.914c-.187-.93-.437-2.543-.5-3.66-.121-1.488-.121-2.48 0-4.215.063-1.18.25-2.914.438-3.844.121-.93.433-2.297.617-3.039.187-.746.558-2.047.808-2.851.309-.871.805-2.172 1.118-2.977.308-.809.929-2.11 1.363-2.855.371-.805 1.113-2.043 1.609-2.79.496-.742 1.367-1.984 1.985-2.726.621-.746 1.738-1.984 2.543-2.73.808-.805 1.984-1.797 2.668-2.293.679-.559 1.859-1.243 2.601-1.676.809-.371 1.863-.805 2.484-.992.618-.246 1.672-.496 2.356-.68.68-.125 2.047-.313 3.035-.313 1.676-.058 1.926-.058 3.164.313a80 80 0 0 1 2.172.559l.742.246 2.235-.743c1.984-.683 2.293-.746 3.472-.746 1.114 0 1.547.063 2.914.434.993.312 2.356.871 3.594 1.488 1.055.559 2.543 1.426 3.289 1.922.742.559 2.168 1.8 3.223 2.852 1.054 1.054 2.355 2.421 2.793 3.039.433.62 1.238 1.738 1.734 2.48.496.746 1.238 2.047 1.676 2.793.434.742 1.113 2.23 1.547 3.223.496 1.055 1.117 2.668 1.488 3.719.375.992.809 2.605 1.055 3.476.187.93.496 2.414.621 3.285.125.993.25 2.48.25 3.969 0 1.61-.063 2.914-.25 3.969-.125.805-.371 2.105-.559 2.789-.183.746-.558 1.734-.742 2.293-.187.496-.684 1.551-1.055 2.297a24 24 0 0 1-1.488 2.476c-.496.621-1.18 1.492-1.613 1.926a12.3 12.3 0 0 1-1.613 1.488c-.434.371-1.364 1.051-2.043 1.426-.684.434-1.864 1.055-2.668 1.363-.805.309-2.172.684-3.039.868-.868.187-1.86.308-2.231.371h-.621l.742.375c.438.183 1.18.742 1.676 1.238.559.559 1.117 1.305 1.426 1.859.25.559.621 1.426.746 1.985.183.621.371 1.8.496 2.793.121.929.246 2.48.309 3.41.062 1.113.062 1.922-.063 2.293-.062.308-.309.804-.496 1.054-.125.247-.559.622-.867.743-.313.187-.809.375-1.117.375-.372.058-.868 0-1.118-.063m-.496-3.781a18 18 0 0 0-2.047-1.43c-.492-.246-1.363-.496-1.921-.617a25 25 0 0 0-2.602-.371 17 17 0 0 1-2.172-.496 4.9 4.9 0 0 1-1.301-.871c-.312-.309-.746-.93-.992-1.364-.25-.433-.558-1.117-.683-1.613-.125-.433-.247-1.238-.247-1.922 0-.558.122-1.363.184-1.672.125-.375.313-.929.434-1.304l.312-.621 1.238.683c.684.371 1.614.746 2.047.867.371.125 1.489.313 2.356.438.929.059 1.922.246 2.297.371.371.063.929.246 1.238.434.375.183.867.558 1.117.804.188.313.559.746.684 1.055.121.246.371.93.554 1.426.188.558.375 1.551.496 2.293.125.746.25 2.109.313 3.164 0 .992.062 1.797 0 1.797 0 0-.621-.496-1.305-1.051m-19.965-6.945c-.308-.125-.621-.313-.683-.313s.558-.68 1.363-1.488c.809-.805 1.801-1.86 2.234-2.481a20.5 20.5 0 0 0 1.489-2.293c.308-.683.746-1.796.992-2.418.187-.683.371-1.796.434-2.48.062-.93 0-1.18-.125-1.18-.059 0-.68.188-1.364.371-.621.25-1.859.746-2.664 1.118-.871.433-2.172.992-2.918 1.304-.804.309-1.98.742-2.601.93-.993.246-1.489.246-2.356.184-.683 0-1.551-.184-2.422-.497-.742-.246-1.859-.742-2.539-1.05-.683-.375-1.738-.993-2.297-1.426-.558-.438-1.425-1.18-1.796-1.676-.434-.434-1.118-1.242-1.489-1.801-.371-.554-.867-1.363-1.054-1.797a22 22 0 0 1-.868-2.047 64 64 0 0 1-.683-2.48 19 19 0 0 1-.434-2.293c-.062-.558-.125-2.293-.062-3.781 0-1.613.125-3.41.25-4.219.125-.805.433-2.293.679-3.223.25-.992.684-2.542.934-3.347.309-.871.805-2.235 1.176-2.977.308-.808.992-2.047 1.426-2.855.496-.805 1.242-1.985 1.738-2.664.433-.621 1.238-1.676 1.797-2.293.496-.621 1.488-1.676 2.172-2.235.679-.62 1.671-1.363 2.105-1.734.434-.312 1.305-.809 1.922-1.117.621-.313 1.613-.684 2.234-.93a31 31 0 0 1 2.293-.559c.684-.124 1.676-.25 2.297-.25.805 0 1.426.126 2.852.56 1.3.37 1.984.495 2.726.495.809 0 1.305-.125 2.914-.62 1.489-.556 2.11-.68 2.856-.68.742-.063 1.238.062 2.168.37.621.188 1.734.622 2.418.993.746.308 1.922.992 2.605 1.488.742.434 1.922 1.3 2.543 1.86.617.558 1.61 1.55 2.168 2.234.559.62 1.363 1.55 1.738 2.105.434.559.993 1.43 1.364 1.926.308.555.929 1.61 1.363 2.355.434.805 1.117 2.23 1.551 3.16a68 68 0 0 1 1.551 3.97c.371 1.241.867 2.913.992 3.722.187.867.371 2.106.433 2.79.063.683.125 1.92.125 2.792 0 .867-.062 2.293-.187 3.035-.125.809-.309 1.985-.496 2.606-.125.62-.434 1.613-.621 2.109-.246.559-.618 1.488-.868 1.984-.246.555-.804 1.426-1.175 1.985a18 18 0 0 1-1.801 2.168c-.617.621-1.488 1.367-1.985 1.676a10.4 10.4 0 0 1-1.984 1.117c-.617.308-1.672.742-2.355.929-.68.184-1.86.372-2.727.497-1.305.121-1.613.121-2.543-.063-.558-.125-1.488-.496-2.109-.809-.559-.246-1.797-.992-2.727-1.546-.871-.622-1.926-1.243-2.297-1.426-.433-.125-.867-.313-1.054-.375-.371-.125-.371-.063-.618 1.242a19 19 0 0 1-.746 2.852c-.246.867-.679 2.046-.992 2.664-.308.621-.867 1.675-1.301 2.296-.371.622-.992 1.426-1.3 1.797-.375.313-.93.809-1.243 1.118-.371.246-.804.558-1.054.679a2 2 0 0 1-.621.188c-.121 0-.434-.125-.743-.246m12.711-6.512a11 11 0 0 1-1.425-.746c-.497-.246-.868-.559-.868-.68 0-.125 0-.187.063-.187 0 0 .371.187.805.496.371.25 1.117.621 1.55.867.434.25.684.433.621.433-.125 0-.433-.121-.746-.183M249.16 94c-.183-.371-.433-1.426-.617-2.234-.188-.805-.438-2.106-.496-2.79a42 42 0 0 1-.125-2.851c0-.867.062-2.234.183-3.102a34 34 0 0 1 .559-2.851 31 31 0 0 1 .684-2.172c.187-.559.558-1.363.804-1.86.25-.496.871-1.488 1.305-2.171.496-.68 1.488-1.922 2.231-2.664.683-.746 1.796-1.797 2.48-2.235.621-.492 1.738-1.175 2.418-1.547.746-.375 1.363-.62 1.613-.558.246 0 .125.246-1.488 1.797-.992.992-2.293 2.418-2.914 3.101-.559.743-1.426 1.922-1.859 2.606-.497.68-1.118 1.734-1.426 2.418-.313.617-.809 1.797-1.117 2.601-.25.746-.622 2.172-.805 3.102-.188.867-.375 2.355-.496 3.164-.063.867-.125 2.973-.125 4.71 0 1.74-.063 3.411-.125 3.72 0 .312-.125.558-.188.558-.058 0-.308-.308-.496-.742"/><path fill="#8a0" d="M281.156 125.129a18 18 0 0 0-2.047-1.43c-.492-.246-1.363-.496-1.921-.617a25 25 0 0 0-2.602-.371 17 17 0 0 1-2.172-.496 4.9 4.9 0 0 1-1.301-.871c-.312-.309-.746-.93-.992-1.364-.25-.433-.558-1.117-.683-1.613-.125-.433-.247-1.238-.247-1.922 0-.558.122-1.363.184-1.672.125-.375.313-.929.434-1.304l.312-.621 1.238.683c.684.371 1.614.746 2.047.867.371.125 1.489.313 2.356.438.929.059 1.922.246 2.297.371.371.063.929.246 1.238.434.375.183.867.558 1.117.804.188.313.559.746.684 1.055.121.246.371.93.554 1.426.188.558.375 1.551.496 2.293.125.746.25 2.109.313 3.164 0 .992.062 1.797 0 1.797 0 0-.621-.496-1.305-1.051m5.582-59.531-.742-.805.805.746.804.805-.058.062s-.375-.37-.809-.808"/></g><path fill="#bc9a16" d="M1 86.04c0-68.6 90.55-70.869 170.078-70.869 79.527 0 170.078 2.27 170.078 70.867 0-15.656-76.144-28.348-170.078-28.348C77.148 57.691 1 70.383 1 86.04"/><path fill="none" stroke="#000" stroke-linecap="round" stroke-linejoin="round" stroke-width="2" d="M1 86.04c0-68.6 90.55-70.869 170.078-70.869 79.527 0 170.078 2.27 170.078 70.867 0-15.656-76.144-28.348-170.078-28.348C77.148 57.691 1 70.383 1 86.04"/><path fill="#d3ae37" d="M908.086 86.04c0 15.655-76.145 28.347-170.078 28.347S567.93 101.695 567.93 86.039s76.144-28.348 170.078-28.348S908.086 70.383 908.086 86.04"/><path fill="none" stroke="#000" stroke-linecap="round" stroke-linejoin="round" stroke-width="2" d="M908.086 86.04c0 15.655-76.145 28.347-170.078 28.347S567.93 101.695 567.93 86.039s76.144-28.348 170.078-28.348S908.086 70.383 908.086 86.04M738.008 312.809l161.41-217.813m-161.41 217.813L684.25 112.941m53.758 199.868L586.914 73.012m151.094 239.797v19.843"/><path fill="#bc9a16" d="M567.93 86.04c0-68.599 90.55-70.868 170.078-70.868 79.527 0 170.078 2.27 170.078 70.867 0-15.656-76.145-28.348-170.078-28.348S567.93 70.383 567.93 86.04"/><path fill="none" stroke="#000" stroke-linecap="round" stroke-linejoin="round" stroke-width="2" d="M567.93 86.04c0-68.599 90.55-70.868 170.078-70.868 79.527 0 170.078 2.27 170.078 70.867 0-15.656-76.145-28.348-170.078-28.348S567.93 70.383 567.93 86.04"/><path fill="#cc9c6f" d="M461.629 332.652c0 3.914-3.172 7.086-7.086 7.086s-7.086-3.172-7.086-7.086 3.172-7.086 7.086-7.086 7.086 3.172 7.086 7.086"/><path fill="none" stroke="#000" stroke-linecap="round" stroke-linejoin="round" stroke-width="2" d="M461.629 332.652c0 3.914-3.172 7.086-7.086 7.086s-7.086-3.172-7.086-7.086 3.172-7.086 7.086-7.086 7.086 3.172 7.086 7.086"/><circle cx="454.543" cy="332.652" r="1"/><path fill="#cc9c6f" d="M440.371 29.344h28.344v340.16h-28.344Z"/><path fill="none" stroke="#000" stroke-linecap="round" stroke-linejoin="round" stroke-width="2" d="M440.371 29.344h28.344v340.16h-28.344z"/><path fill="#cc9c6f" d="M461.629 332.652c0 3.914-3.172 7.086-7.086 7.086s-7.086-3.172-7.086-7.086 3.172-7.086 7.086-7.086 7.086 3.172 7.086 7.086"/><path fill="none" stroke="#000" stroke-linecap="round" stroke-linejoin="round" stroke-width="2" d="M461.629 332.652c0 3.914-3.172 7.086-7.086 7.086s-7.086-3.172-7.086-7.086 3.172-7.086 7.086-7.086 7.086 3.172 7.086 7.086"/><path fill="#cc9c6f" d="M457.379 369.504a20.554 20.554 0 0 1 0 28.344h-5.668a20.543 20.543 0 0 1 0-28.344z"/><path fill="none" stroke="#000" stroke-linecap="round" stroke-linejoin="round" stroke-width="2" d="M457.379 369.504a20.554 20.554 0 0 1 0 28.344h-5.668a20.543 20.543 0 0 1 0-28.344z"/><path fill="#cc9c6f" d="M465.883 409.188c0 6.261-5.078 11.339-11.34 11.339s-11.34-5.078-11.34-11.339 5.078-11.34 11.34-11.34 11.34 5.078 11.34 11.34"/><path fill="none" stroke="#000" stroke-linecap="round" stroke-linejoin="round" stroke-width="2" d="M465.883 409.188c0 6.261-5.078 11.339-11.34 11.339s-11.34-5.078-11.34-11.339 5.078-11.34 11.34-11.34 11.34 5.078 11.34 11.34"/><path fill="#cc9c6f" d="M497.063 1c-13.692 0-22.676 13.621-22.676 28.344h-39.688C434.699 14.62 425.715 1 412.023 1z"/><path fill="none" stroke="#000" stroke-linecap="round" stroke-linejoin="round" stroke-width="2" d="M497.063 1c-13.692 0-22.676 13.621-22.676 28.344h-39.688C434.699 14.62 425.715 1 412.023 1z"/><path d="M741.188 108.484c0 10.563 5.433 18.332 17.55 25.321 6.836 4.039 9.633 9.476 9.633 15.066 0 5.594-3.574 19.574-32 19.574-20.351 0-28.894-9.941-28.894-19.261 0-5.438 4.503-6.68 6.367-6.68 2.332 0 6.215 1.863 6.215 6.367 0 2.488-.778 3.266-1.399 4.043 2.176 3.106 7.305 6.524 17.711 6.524 16.309 0 21.902-5.438 21.902-10.567 0-4.348-3.882-6.676-5.281-7.453-22.523-13.203-22.988-26.098-22.988-34.02 0-5.593 0-7.77 5.59-7.77 5.594 0 5.594 2.642 5.594 6.06zm1.398-28.894c0 3.883-3.109 6.992-6.992 6.992s-6.992-3.11-6.992-6.992 3.109-6.988 6.992-6.988 6.992 3.105 6.992 6.988"/></g></svg>