<svg xmlns="http://www.w3.org/2000/svg" width="188pt" height="68" viewBox="0 -51 188 51"><g id="page1"><g fill-rule="evenodd"><path fill="#a7410e" d="M16.453-42.34c-.219.086-.441.223-.484.223-.047 0 .398.484.972 1.062.575.575 1.286 1.328 1.594 1.77.313.398.797 1.152 1.063 1.64.222.485.53 1.286.71 1.727a13 13 0 0 1 .31 1.727c0 .488.089.886.175.93.047.046.402.09.754.09.531 0 .664-.044.71-.177.044-.09 0-.535-.089-1.02-.09-.444-.309-1.327-.531-1.905-.176-.621-.489-1.461-.711-1.903-.219-.445-.617-1.195-.93-1.64a12 12 0 0 0-.93-1.286 15 15 0 0 1-.886-.796c-.266-.176-.575-.399-.75-.489a1.5 1.5 0 0 0-.446-.133c-.086 0-.308.09-.53.18m12.668 5.98h.531c.18-.046.047-.046-.265-.046-.266 0-.399 0-.266.047M14.238-7.436c.313.265.578.53.578.53.043 0-.18-.265-.488-.53-.265-.313-.531-.579-.574-.579-.047 0 .176.266.484.579M8.836-6.29c.266.312.531.578.574.578.047 0-.176-.266-.484-.578-.313-.266-.578-.531-.578-.531-.043 0 .18.265.488.53"/><path fill="red" d="M27.836-36.094c-.398.133-.883.309-1.016.399-.18.086-.933.53-1.64 1.015-.754.446-1.64.977-1.992 1.153-.579.265-.711.265-1.727.265-.887 0-1.2-.043-1.863-.265-.399-.133-1.594-.621-2.567-1.106-1.02-.445-2.172-.93-2.57-1.062-.399-.133-1.063-.313-1.504-.356-.668-.09-.934-.09-1.598.043-.441.09-1.238.356-1.77.578a9.7 9.7 0 0 0-1.64.75c-.351.223-.93.578-1.195.797-.309.27-.797.711-1.152 1.067-.352.351-.797.93-1.063 1.28a24 24 0 0 0-.797 1.466 9.5 9.5 0 0 0-.664 1.547c-.133.445-.355 1.199-.441 1.73-.133.531-.266 1.461-.313 2.082-.086.664-.086 1.68-.043 2.48.043.75.133 1.86.223 2.434.043.578.266 1.55.398 2.172.133.617.442 1.77.707 2.613.266.797.84 2.125 1.243 2.922.398.844 1.015 1.95 1.37 2.524.4.578.977 1.375 1.286 1.773A52 52 0 0 0 9.19-6.02c.575.575 1.418 1.282 1.817 1.547.398.313.973.664 1.281.844.313.133 1.02.442 1.598.617.531.18 1.414.399 1.992.489.621.09 1.238.132 1.77.09.488 0 1.152-.18 1.773-.356.754-.223 1.152-.309 1.816-.309.754-.047.93 0 2.215.442 1.02.398 1.504.488 1.95.488.35 0 .929-.09 1.328-.223.398-.09 1.062-.351 1.503-.53.446-.224 1.196-.575 1.641-.84a22 22 0 0 0 1.637-1.153c.445-.313 1.152-.973 1.597-1.418a25 25 0 0 0 1.461-1.594c.352-.441.93-1.242 1.285-1.726.31-.532.84-1.418 1.149-1.95.312-.53.797-1.507 1.11-2.171.265-.622.706-1.77.972-2.48a22 22 0 0 0 .71-2.302 30 30 0 0 0 .4-1.906c.042-.488.132-1.46.175-2.125.043-.71.043-1.684-.043-2.348-.047-.62-.223-1.55-.312-2.039a11 11 0 0 0-.485-1.726c-.133-.488-.445-1.195-.664-1.637a17 17 0 0 0-.886-1.508 11 11 0 0 0-1.153-1.418c-.398-.351-.93-.886-1.285-1.105-.309-.223-.93-.621-1.371-.844a14 14 0 0 0-1.508-.617c-.355-.133-1.02-.266-1.418-.356-.441-.09-1.195-.175-1.726-.132-.754 0-1.106.043-1.684.222M7.906-25.199c-.133.308-.355.887-.441 1.328-.133.441-.266 1.285-.356 1.816-.09.575-.132 1.727-.132 2.524 0 .886.043 1.992.132 2.523.09.535.223 1.332.356 1.774.086.441.351 1.242.574 1.773s.621 1.371.93 1.86c.308.53.797 1.238 1.11 1.683.35.398.972 1.063 1.413 1.504.445.445 1.2 1.062 1.64 1.418.49.309 1.153.754 1.552.93.398.18.797.355.972.355.18.043.266.043.266-.047 0-.043-.707-.797-1.504-1.637a54 54 0 0 1-2.082-2.214 31 31 0 0 0-1.063-1.461 20 20 0 0 1-.976-1.727A21 21 0 0 1 9.5-14.66c-.133-.485-.398-1.238-.488-1.68-.086-.445-.266-1.242-.352-1.816-.09-.664-.18-2.04-.18-3.942-.043-1.64-.085-3.101-.085-3.28-.047-.177-.09-.352-.133-.352-.09 0-.223.265-.356.53"/><path d="M31.07-50.004c-.222.047-.754.398-1.195.797-.445.355-1.02.797-1.242.977-.309.218-.664.351-1.195.44-.399.048-1.329.224-2.036.313-1.062.176-1.418.266-2.082.618-.578.265-.93.53-1.375 1.02-.308.355-.75.929-.972 1.374-.223.442-.446.973-.532 1.149l-.09.355-.663-.488a16 16 0 0 0-1.508-.883c-.75-.355-.883-.398-1.328-.312-.266 0-.883.222-1.372.398-.62.266-.976.488-1.242.797-.218.222-.441.578-.484.797a1.85 1.85 0 0 0-.047.843c0 .223.133.575.266.754.09.22.445.575.754.84.308.223.93.754 1.328 1.196.398.398.976 1.062 1.242 1.46s.484.754.441.797c0 0-.574-.218-1.238-.531-.71-.266-1.64-.617-2.082-.75a8.4 8.4 0 0 0-2.04-.223c-1.062 0-1.37.043-2.167.266-.488.176-1.332.441-1.816.664-.489.223-1.243.621-1.641.887-.441.222-1.195.797-1.684 1.195-.53.441-1.195 1.106-1.504 1.508a19 19 0 0 0-1.02 1.281c-.222.356-.573 1.02-.839 1.508-.223.488-.578 1.238-.754 1.727-.18.488-.398 1.418-.531 2.082s-.313 1.816-.356 2.613c-.09 1.062-.09 1.77 0 3.012.043.84.176 2.082.309 2.746.09.664.313 1.636.445 2.172.133.53.399 1.46.575 2.035.222.62.578 1.55.796 2.125.223.578.664 1.508.977 2.039.266.574.797 1.46 1.152 1.992.352.531.973 1.418 1.414 1.95.446.53 1.243 1.417 1.817 1.948a20 20 0 0 0 1.906 1.641c.488.395 1.328.883 1.86 1.195.574.266 1.328.575 1.773.707.441.176 1.195.356 1.68.489.488.09 1.464.218 2.171.218 1.196.047 1.375.047 2.258-.218a84 84 0 0 0 1.551-.399l.531-.18 1.594.532c1.418.488 1.64.535 2.48.535.797 0 1.11-.047 2.082-.313.711-.222 1.684-.62 2.57-1.062a34 34 0 0 0 2.348-1.371 26 26 0 0 0 2.301-2.04c.754-.753 1.684-1.726 1.996-2.171.309-.442.883-1.238 1.239-1.77.355-.53.886-1.46 1.195-1.992.312-.531.797-1.598 1.11-2.305.35-.753.796-1.906 1.062-2.656.265-.71.574-1.863.754-2.48.133-.664.351-1.73.441-2.348.09-.71.176-1.773.176-2.836 0-1.152-.043-2.082-.176-2.836-.09-.574-.266-1.504-.398-1.992-.133-.531-.399-1.238-.532-1.637-.132-.355-.488-1.11-.754-1.64a17 17 0 0 0-1.062-1.77c-.355-.445-.84-1.066-1.152-1.375a8.4 8.4 0 0 0-1.153-1.062 10 10 0 0 0-1.46-1.02c-.485-.309-1.329-.754-1.903-.973-.578-.222-1.55-.488-2.172-.62s-1.328-.223-1.594-.266h-.441l.531-.266c.309-.133.84-.531 1.196-.887.398-.398.796-.93 1.02-1.328.175-.398.44-1.02.53-1.418.133-.441.266-1.285.352-1.992.09-.664.18-1.773.223-2.437.043-.797.043-1.371-.043-1.637a2.4 2.4 0 0 0-.356-.754c-.09-.176-.398-.441-.62-.531-.22-.133-.575-.266-.798-.266-.265-.043-.62 0-.797.043m-.355 2.703a13 13 0 0 1-1.461 1.02c-.356.175-.973.351-1.371.441a18 18 0 0 1-1.863.266c-.575.09-1.282.265-1.547.355a3.4 3.4 0 0 0-.934.621c-.219.22-.531.664-.707.973s-.398.797-.488 1.152a6 6 0 0 0-.176 1.371c0 .399.09.977.133 1.196.09.265.222.668.308.933l.223.442.887-.489a9 9 0 0 1 1.46-.62c.266-.087 1.063-.22 1.684-.31.664-.042 1.371-.175 1.637-.265.266-.043.664-.176.887-.308.265-.133.62-.399.797-.579.132-.218.398-.53.488-.75.09-.18.265-.668.398-1.02.133-.398.266-1.108.356-1.64.086-.531.176-1.504.219-2.258 0-.707.046-1.285 0-1.285 0 0-.442.356-.93.754M16.453-42.34c-.219.086-.441.223-.484.223-.047 0 .398.484.972 1.062.575.575 1.286 1.328 1.594 1.77.313.398.797 1.152 1.063 1.64.222.485.53 1.286.71 1.727.133.488.266 1.285.31 1.77.042.668 0 .843-.09.843-.044 0-.485-.133-.973-.265a47 47 0 0 1-1.907-.797 34 34 0 0 0-2.078-.93 33 33 0 0 0-1.863-.664c-.707-.18-1.062-.18-1.684-.133-.484 0-1.105.133-1.726.352-.531.18-1.328.531-1.817.754-.484.265-1.238.707-1.636 1.02-.399.308-1.02.84-1.285 1.195-.309.308-.797.886-1.063 1.285s-.621.972-.754 1.285c-.176.351-.441.973-.62 1.46a47 47 0 0 0-.485 1.77 14 14 0 0 0-.313 1.641c-.043.398-.086 1.637-.043 2.7 0 1.152.09 2.437.176 3.015.09.574.313 1.637.488 2.3.176.712.489 1.817.664 2.391.223.621.579 1.598.84 2.13.223.573.711 1.46 1.02 2.034.355.578.886 1.418 1.242 1.907.309.44.887 1.195 1.285 1.636.352.446 1.063 1.2 1.547 1.594.488.445 1.2.977 1.508 1.242.308.223.93.574 1.37.797.446.223 1.153.488 1.599.664.44.133 1.195.309 1.636.399.489.09 1.196.18 1.64.18.575 0 1.02-.09 2.036-.4.93-.269 1.418-.355 1.95-.355.577 0 .929.086 2.081.442 1.063.398 1.508.488 2.04.488.53.043.882-.043 1.55-.266.442-.132 1.238-.441 1.727-.71.53-.22 1.37-.708 1.86-1.063a14 14 0 0 0 1.816-1.328c.44-.399 1.152-1.106 1.55-1.594.399-.441.973-1.11 1.239-1.508.312-.398.71-1.015.976-1.37.219-.4.664-1.153.973-1.684a61 61 0 0 0 1.11-2.258 49 49 0 0 0 1.105-2.836c.265-.887.62-2.082.707-2.656a22 22 0 0 0 .312-1.993c.043-.488.086-1.375.086-1.996 0-.617-.043-1.636-.133-2.168-.086-.578-.218-1.418-.351-1.859a12 12 0 0 0-.446-1.508c-.175-.398-.441-1.062-.617-1.418-.18-.398-.578-1.02-.844-1.418a12 12 0 0 0-1.285-1.547c-.441-.445-1.062-.976-1.414-1.199a7.6 7.6 0 0 0-1.418-.797c-.445-.218-1.195-.531-1.683-.664-.489-.133-1.328-.265-1.95-.351-.93-.09-1.152-.09-1.816.043-.398.09-1.062.355-1.504.574-.402.18-1.285.71-1.95 1.11a16 16 0 0 1-1.64 1.019c-.308.086-.62.218-.754.265-.265.086-.265.043-.441-.886a14 14 0 0 0-.531-2.04c-.176-.62-.489-1.46-.711-1.902-.219-.445-.617-1.195-.93-1.64a12 12 0 0 0-.93-1.286 15 15 0 0 1-.886-.796c-.266-.176-.575-.399-.75-.489a1.5 1.5 0 0 0-.446-.133c-.086 0-.308.09-.53.18m9.082 4.649c-.223.09-.664.312-1.02.53-.355.18-.62.4-.62.49s0 .132.046.132c0 0 .266-.133.575-.355.265-.176.797-.442 1.105-.618.313-.18.488-.312.445-.312-.09 0-.312.09-.53.133M7.863-25.066c-.133.265-.312 1.02-.445 1.593-.133.575-.309 1.508-.356 1.992a31 31 0 0 0-.085 2.04c0 .62.043 1.593.132 2.214.09.622.266 1.504.399 2.036.133.488.355 1.199.488 1.55.133.399.399.977.574 1.329.176.355.621 1.066.93 1.55.355.489 1.063 1.375 1.594 1.907.488.53 1.285 1.285 1.773 1.593.442.356 1.238.84 1.727 1.106.531.27.976.445 1.152.398.176 0 .09-.176-1.062-1.281a73 73 0 0 1-2.082-2.215c-.399-.531-1.02-1.375-1.329-1.86a12 12 0 0 1-1.02-1.73 24 24 0 0 1-.796-1.86 22 22 0 0 1-.578-2.214c-.133-.621-.266-1.684-.352-2.258-.047-.62-.09-2.125-.09-3.367 0-1.238-.042-2.434-.09-2.656 0-.223-.085-.399-.132-.399-.043 0-.219.22-.352.532"/><path fill="#8a0" d="M30.715-47.3c-.485.398-1.149.84-1.461 1.019-.356.175-.973.351-1.371.441a18 18 0 0 1-1.863.266c-.575.09-1.282.265-1.547.355a3.4 3.4 0 0 0-.934.621c-.219.22-.531.664-.707.973s-.398.797-.488 1.152a6 6 0 0 0-.176 1.371c0 .399.09.977.133 1.196.09.265.222.668.308.933l.223.442.887-.489a9 9 0 0 1 1.46-.62c.266-.087 1.063-.22 1.684-.31.664-.042 1.371-.175 1.637-.265.266-.043.664-.176.887-.308.265-.133.62-.399.797-.579.132-.218.398-.53.488-.75.09-.18.265-.668.398-1.02.133-.398.266-1.108.356-1.64.086-.531.176-1.504.219-2.258 0-.707.046-1.285 0-1.285 0 0-.442.356-.93.754m3.988 42.519-.531.574.574-.531c.309-.309.578-.574.578-.574l-.047-.043z"/><path d="M97.23-48.648c-1.25.77-2.39 2.23-2.39 3.082 0 .504.45 1.222 1.406 2.23.77.824 1.703 2.074 2.047 2.793l.61 1.3-.743 1.49c-.426.823-1.035 2.39-1.355 3.507-3.48 11.32-7.043 15.465-19.215 22.27-3.8 2.097-5.13 3.136-6.004 4.515-.824 1.383-.824 2.793.078 4.094C74.27.488 84.793.008 93.535-4.352c6.406-3.16 11.082-7.703 13.5-13.101 2.766-6.082 3.43-12.434 1.836-17.297-.613-1.863-2.473-4.625-3.641-5.395-.796-.53-1.066-.957-1.464-2.472-.743-2.739-2.286-5.633-3.27-6.14-1.086-.56-2.23-.532-3.265.109m3.028 2.39c-.317.586-.238.903.531 2.418 1.199 2.363 2.473 6.457 3.031 9.7 2.391 14.058-8 27.265-23.625 30.003-1.355.239-3.11.426-3.879.426-1.062 0-1.437.133-1.648.555-.266.508-.187.586.77.851 1.57.453 6.19.375 8.851-.132 8.29-1.567 15.785-6.192 19.797-12.25 5.793-8.692 6.008-20.622.426-24.477-1.008-.691-1.223-1.063-1.887-3.188-.664-2.152-1.676-4.543-1.941-4.543-.028 0-.239.29-.426.637m-2.23 1.516-.93.398.984 1.246c.504.692 1.168 1.836 1.434 2.555.504 1.273.504 1.273-.372 3.348-.453 1.14-1.25 3.375-1.753 4.914-1.997 6.246-3.856 9.46-7.497 13.101-2.816 2.817-4.703 4.149-10.55 7.524-4.703 2.683-6.352 3.797-6.563 4.383-.078.187.399.878 1.035 1.566l1.172 1.223 2.23-.184c6.563-.559 13.102-3.348 17.755-7.629 3.796-3.508 6.269-7.52 7.574-12.305.742-2.734.902-8.98.289-11.503-.957-3.907-2.231-7.126-3.348-8.426-.504-.559-.61-.586-1.46-.211"/><path fill="#f5a701" d="M98.746-49.262c.211.082.45.055.555-.027.082-.105-.078-.16-.371-.16-.344.027-.399.082-.184.187m-2.953 1.567-.82.933.93-.824c.503-.48.902-.879.902-.93 0-.215-.211-.027-1.012.82m5.715-.051c.105.133.238.266.32.266.078 0 .051-.133-.027-.266-.106-.16-.238-.293-.321-.293-.078 0-.078.133.028.293m-1.25 1.488c-.317.586-.238.903.531 2.418 1.199 2.363 2.473 6.457 3.031 9.7 2.391 14.058-8 27.265-23.625 30.003-1.355.239-3.11.426-3.879.426-1.062 0-1.437.133-1.648.555-.266.508-.187.586.77.851 1.57.453 6.19.375 8.851-.132 8.29-1.567 15.785-6.192 19.797-12.25 5.793-8.692 6.008-20.622.426-24.477-1.008-.691-1.223-1.063-1.887-3.188-.664-2.152-1.676-4.543-1.941-4.543-.028 0-.239.29-.426.637m-.45 2.656c.532.88 1.169 2.235 1.434 3.004.266.77.531 1.356.586 1.274.344-.317-2.047-5.313-2.71-5.739-.161-.078.16.56.69 1.461m3.266-1.035c0 .211.082.293.188.184a.26.26 0 0 0 0-.371c-.106-.106-.188-.028-.188.187m-5.816.266c-.082.133.078.426.344.637.453.347.453.32.132-.078s-.32-.508 0-.641c.239-.078.266-.133.028-.156-.188 0-.426.078-.504.238m-1.145 1.168c.614.613 1.168 1.117 1.25 1.117.078 0-.37-.504-.984-1.117-.61-.637-1.168-1.14-1.25-1.14-.078 0 .375.503.984 1.14m7.231-.582c0 .21.105.289.211.183a.26.26 0 0 0 0-.37c-.106-.106-.211-.028-.211.187m-4.973 1.14c.11.16.242.293.32.293s.078-.132-.027-.293-.238-.292-.316-.292c-.082 0-.055.132.023.292m.746 1.145c.399.875.531 1.035.531.664 0-.16-.187-.531-.425-.824-.426-.531-.426-.504-.106.16m4.809-.293c0 .211.082.293.187.184a.256.256 0 0 0 0-.371c-.105-.106-.187-.028-.187.187m.984 1.434c.106.132.238.265.32.265.079 0 .079-.133-.027-.265-.105-.16-.238-.293-.32-.293-.078 0-.055.133.027.293m-5.262.265c0 .215.106.293.211.188a.32.32 0 0 0 0-.375c-.105-.106-.21-.024-.21.187m.211 1.117c-.105.477-.078.586.133.371a.76.76 0 0 0 .188-.663c-.078-.212-.211-.079-.32.292m2.129.32c0 .239.106.743.239 1.141.183.559.211.586.238.133a3.5 3.5 0 0 0-.238-1.14c-.161-.348-.239-.399-.239-.133m4.914.266c.106.157.239.29.321.29.078 0 .05-.133-.028-.29-.105-.132-.238-.265-.316-.265-.082 0-.055.133.023.265m-7.625.743c-.293.691-.215.879.133.32.16-.293.238-.586.16-.664-.054-.082-.214.078-.293.344m8.211.132c.078.133.239.266.293.266.078 0 .078-.133-.027-.266-.078-.16-.238-.293-.32-.293-.079 0-.051.133.054.293m-4.996 1.118c0 .21.106.293.211.183.082-.078.082-.265 0-.37-.105-.106-.211-.028-.211.187m-5.394.582c0 .214.078.293.183.187a.25.25 0 0 0 0-.371c-.105-.105-.183-.027-.183.184m1.433 0c0 .214.082.293.188.187a.257.257 0 0 0 0-.371c-.106-.105-.188-.027-.188.184m4.305.851c0 .399.055.559.133.348.082-.188.082-.508 0-.719-.078-.187-.133-.027-.133.371m-4.598 0c0 .215.082.293.188.188a.257.257 0 0 0 0-.371c-.106-.11-.188-.028-.188.183m-.289.852c0 .21.078.293.184.187.105-.11.105-.27 0-.375s-.184-.027-.184.188m-1.703.851c0 .211.082.29.188.184a.257.257 0 0 0 0-.371c-.106-.106-.188-.028-.188.187m1.434 0c0 .211.082.29.187.184a.257.257 0 0 0 0-.371c-.105-.106-.187-.028-.187.187m5.504 2.418c0 1.567.027 2.153.105 1.328.055-.824.055-2.101 0-2.843-.078-.72-.105-.055-.105 1.515m6.164-1.968c0 .32.082.398.16.16.078-.188.078-.453 0-.532-.106-.105-.188.078-.16.371m-11.957.398c0 .215.078.293.183.187a.257.257 0 0 0 0-.37c-.105-.11-.183-.028-.183.183m-1.438.293c0 .215.106.293.215.187a.32.32 0 0 0 0-.37c-.11-.11-.215-.028-.215.183m1.172.719c.023.343.078.398.156.183.11-.21.082-.449 0-.554-.105-.082-.156.078-.156.37m-1.437.133c0 .21.081.292.187.183a.257.257 0 0 0 0-.371c-.106-.105-.187-.027-.187.188m13.98.425c0 .477.051.61.133.344.078-.266.078-.664 0-.852-.082-.183-.133.028-.133.508m-13.129.98c0 .216.078.294.188.188.105-.078.105-.265 0-.37-.11-.11-.188-.028-.188.183m-.293.852c0 .215.082.293.188.215a.295.295 0 0 0 0-.402c-.106-.106-.188 0-.188.187m-.531 1.301c-.453 1.04-.371 1.277.133.32.238-.453.398-.851.32-.93-.055-.054-.266.212-.453.61m13.953.559c0 .48.051.613.133.347.078-.265.078-.664 0-.851-.082-.188-.133.027-.133.504m-6.832.133c0 .398.055.558.133.374.082-.214.082-.53 0-.718-.078-.188-.133-.028-.133.343m-8.848 0c0 .214.078.292.184.187a.25.25 0 0 0 0-.371c-.106-.106-.184-.027-.184.183m8.532 1.597c.027.317.078.399.183.156.082-.183.055-.449-.023-.53-.11-.106-.16.081-.16.374m-8.266.688c-.16.32-.238.558-.16.558s.293-.238.453-.558c.16-.317.238-.582.16-.582-.082 0-.266.265-.453.582m15.094-.133c0 .348.082.398.16.187s.078-.453 0-.558c-.106-.078-.188.082-.16.37m-7.094.586c0 .32.078.398.156.16.082-.188.082-.453-.023-.531-.082-.106-.16.05-.133.37m-8.746.718c-.106.211-.051.266.133.133.187-.105.347-.265.347-.32 0-.238-.265-.133-.48.188m8.426.239c0 .21.078.293.187.187.106-.082.106-.27 0-.375-.109-.105-.187-.023-.187.188m-10.391.344c-.133.187-.078.242.105.109.348-.188.454-.453.215-.453-.082 0-.215.16-.32.344m1.41.265c-.133.215-.082.266.133.133.316-.211.422-.45.183-.45-.05 0-.21.16-.316.317m-2.422 1.04c-.344.448-.344.448.11.105.476-.371.609-.61.398-.61-.082 0-.293.211-.508.504m1.41.265c-.343.45-.343.476.106.133.48-.371.637-.614.398-.614-.05 0-.293.215-.504.48m9.329-.055c-.293.719-.211.906.132.32.161-.265.239-.558.161-.636-.083-.082-.215.078-.293.316m7.203.133c0 .215.078.293.183.188a.256.256 0 0 0 0-.372c-.105-.109-.183-.027-.183.184m-.293.852c0 .21.078.293.183.187a.254.254 0 0 0 0-.375c-.105-.105-.183-.027-.183.188m-18.336 1.488-1.41 1.515 1.488-1.437c1.383-1.3 1.621-1.566 1.41-1.566-.055 0-.719.69-1.488 1.488m10.23-.055c-.105.188-.133.375-.054.453.082.078.214-.054.293-.293.21-.504.054-.61-.239-.16m-13.101.879c-.106.211-.055.266.133.133.183-.106.343-.266.343-.32 0-.239-.265-.133-.476.187m12.515.293c-.132.21-.078.266.133.133.188-.11.32-.266.32-.32 0-.239-.238-.133-.453.187m-13.793.742c-.343.453-.343.453.106.106.48-.371.64-.61.402-.61-.082 0-.293.239-.508.504m1.57.426-.53.637.636-.532c.344-.316.637-.582.637-.636 0-.239-.239-.082-.742.531m11.665-.32c-.133.215-.078.265.105.133.348-.212.453-.45.215-.45-.082 0-.215.133-.32.317m-14.215.586c-.133.187-.082.238.133.105.156-.105.316-.238.316-.32 0-.239-.238-.13-.45.215m13.5.453c-.375.449-.348.449.105.105.45-.37.61-.613.371-.613-.054 0-.265.215-.476.508m-14.352.105c-.132.211-.082.238.133.133.16-.105.32-.266.32-.348 0-.238-.27-.105-.453.215m2.258 0c-.105.211-.078.238.133.133.187-.105.32-.266.32-.348 0-.238-.238-.105-.453.215m-1.117.852c-.133.21-.078.265.11.133.183-.11.343-.266.343-.348 0-.211-.266-.106-.453.215m10.656 1.886-1.832 1.91 1.914-1.831c1.063-1.012 1.938-1.887 1.938-1.942 0-.183-.29.082-2.02 1.863m9.516-1.039c-.133.215-.078.266.133.133.16-.105.32-.265.32-.316 0-.242-.242-.133-.453.183m-24.45.293c-.132.215-.078.239.133.133.188-.133.32-.265.32-.344 0-.242-.238-.109-.452.211m2.286.106c-.531.426-.531.426.082.133.37-.157.637-.371.637-.426 0-.238-.133-.156-.72.293m-1.406.851c-.532.426-.532.426.078.133.343-.16.636-.37.636-.426 0-.238-.16-.16-.714.293m22.003.903c-.375.453-.347.48.106.11.476-.376.609-.587.371-.587-.055 0-.266.211-.477.477m-24 .242c-.53.422-.53.422.082.133.344-.16.637-.375.637-.453 0-.215-.133-.133-.719.32m13.344 1.062-.535.637.64-.558c.583-.504.77-.743.532-.743-.055 0-.348.29-.637.664m-15.336.079c-.531.425-.531.425.082.132.344-.187.637-.37.637-.453 0-.21-.133-.156-.719.32m14.192.742c-.106.187-.078.242.132.11.188-.11.32-.24.32-.321 0-.238-.242-.133-.452.21m-18.895.719c-.371.453-.344.48.105.105.481-.371.614-.582.372-.582-.051 0-.266.21-.477.476m2.418-.16c-.133.214-.078.242.133.132.16-.105.32-.265.32-.344 0-.238-.242-.105-.453.211m15.625 0c-.133.214-.078.242.133.132.187-.105.32-.265.32-.344 0-.238-.238-.105-.453.211M74.483-8.8c-.133.215-.079.266.132.133.16-.106.32-.266.32-.317 0-.242-.265-.132-.453.184m13.101 1.144c-1.246.61-1.965 1.036-1.566.93C86.867-6.953 90-8.496 90-8.68c0-.187.215-.27-2.418 1.035m12.332-.69c-.371.452-.344.476.106.132.476-.371.613-.61.371-.61-.051 0-.262.211-.477.477m-26.707.585-.691.77.77-.692c.745-.637.929-.879.69-.879-.054 0-.398.375-.769.801m-1.57-.187c-.133.21-.078.265.132.132.16-.105.32-.265.32-.32 0-.238-.237-.133-.452.188m27 .585c-.133.211-.078.239.132.133.16-.133.32-.265.32-.347 0-.239-.237-.106-.452.214m-13.95.98a.25.25 0 0 0 .372 0c.105-.077.027-.183-.188-.183-.21 0-.289.106-.183.184m-11.03.4c.081.16.241.265.32.265.078 0 .054-.106-.028-.266-.105-.156-.265-.289-.316-.289-.082 0-.082.133.023.29m10.179-.106a.257.257 0 0 0 .371 0c.11-.106.027-.184-.184-.184-.214 0-.292.078-.187.184m-1.008.293c.211.078.45.078.555-.027.082-.079-.078-.16-.371-.133-.344 0-.399.082-.184.16m13.258.133c-.133.215-.078.265.11.132.183-.105.343-.265.343-.343 0-.215-.266-.11-.453.21m-14.375.16c.183.078.45.054.531-.028.106-.105-.082-.16-.37-.16-.321.028-.4.082-.161.188m-1.145.265c.215.079.453.079.532 0 .109-.105-.051-.187-.371-.16-.32 0-.399.082-.16.16m-5.953.477c.133.133.93.188 1.781.133l1.516-.078-1.754-.16c-.984-.079-1.675-.028-1.543.105m4.094-.184c.266.079.664.079.852 0 .183-.082-.028-.132-.508-.132-.477 0-.637.05-.344.132m-7.336 1.516c.11.156.242.29.32.29s.078-.134-.027-.29c-.105-.16-.238-.293-.316-.293-.082 0-.055.133.023.293m18.445.742a.257.257 0 0 0 .371 0c.106-.078.028-.187-.187-.187-.21 0-.29.11-.184.187m-.851.293c.078.106.266.106.37 0 .11-.105.028-.187-.183-.187-.215 0-.293.082-.187.187m-16.156.371c.078.16.238.293.316.293.082 0 .055-.133-.05-.293-.083-.133-.24-.265-.321-.265-.05 0-.05.132.055.265m15.28-.078a.29.29 0 0 0 .4 0c.105-.11 0-.187-.188-.187-.211 0-.293.078-.211.187m-3.401.848a.25.25 0 0 0 .37 0c.106-.106.028-.184-.187-.184-.21 0-.289.078-.183.184m-9.383.293c.105.105.293.105.37 0 .11-.106.028-.184-.183-.184-.215 0-.293.078-.187.184m7.812 0c.215.082.453.082.559-.028.082-.105-.078-.156-.371-.156-.344.024-.399.078-.188.184m-6.136.293c.292.054.742.054 1.007 0 .266-.078.055-.133-.504-.133-.53 0-.77.055-.503.133m3.292 0c.348.054.852.054 1.118 0 .293-.078 0-.133-.637-.133-.613 0-.852.055-.48.133"/><path fill="#fcd900" d="m98.027-44.586-.636.32 1.007 1.356c.532.746 1.172 1.887 1.41 2.578.426 1.14.399 1.277-.238 2.656-.375.77-1.277 3.27-2.023 5.555-3.348 10.152-7.281 14.535-18.918 21.047-2.074 1.168-4.254 2.55-4.863 3.058l-1.118.954 1.141 1.144 1.172 1.168 2.469-.184c4.547-.347 10.738-2.5 14.433-5.05 2.02-1.383 5.446-4.73 6.801-6.645 1.57-2.258 3.059-5.445 3.723-8.105.797-3.133.742-9.883-.082-12.649-.852-2.816-1.621-4.781-2.496-6.246-.797-1.379-.825-1.406-1.782-.957"/></g><path fill="#79ac14" d="M170.172-35.715c1.461-2.527 3.453-5.45 4.914-7.308 0-.532-.133-1.063-.133-1.73-.531-2.657-2.789-4.65-5.183-4.25-2.391.398-3.985 2.921-3.454 5.714.133 1.195 1.063 3.984 2.125 6.773.532.133 1.196.403 1.731.801"/><path fill="none" stroke="#000" stroke-linecap="round" stroke-linejoin="round" stroke-width="1.688" d="M170.172-35.715c1.461-2.527 3.453-5.45 4.914-7.308 0-.532-.133-1.063-.133-1.73-.531-2.657-2.789-4.65-5.183-4.25-2.391.398-3.985 2.921-3.454 5.714.133 1.195 1.063 3.984 2.125 6.773.532.133 1.196.403 1.731.801"/><path fill="#79ac14" d="M173.758-32.129c2.523-1.46 5.445-3.453 7.308-4.918.532 0 1.063.133 1.727.133 2.656.531 4.648 2.793 4.254 5.184-.402 2.39-2.926 3.851-5.715 3.453-1.195-.133-3.988-1.063-6.777-2.125-.133-.532-.399-1.196-.797-1.727"/><path fill="none" stroke="#000" stroke-linecap="round" stroke-linejoin="round" stroke-width="1.688" d="M173.758-32.129c2.523-1.46 5.445-3.453 7.308-4.918.532 0 1.063.133 1.727.133 2.656.531 4.648 2.793 4.254 5.184-.402 2.39-2.926 3.851-5.715 3.453-1.195-.133-3.988-1.063-6.777-2.125-.133-.532-.399-1.196-.797-1.727"/><path fill="#a4cd34" d="M172.164-34.121a5.9 5.9 0 0 1 1.594 1.992c3.32-1.727 7.441-4.785 8.637-5.98 1.992-1.993 2.125-4.914.398-6.645-1.594-1.727-4.652-1.46-6.645.402-1.195 1.196-4.117 5.313-5.976 8.637q1.195.598 1.992 1.594"/><path fill="none" stroke="#000" stroke-linecap="round" stroke-linejoin="round" stroke-width="1.688" d="M172.164-34.121a5.9 5.9 0 0 1 1.594 1.992c3.32-1.727 7.441-4.785 8.637-5.98 1.992-1.993 2.125-4.914.398-6.645-1.594-1.727-4.652-1.46-6.645.402-1.195 1.196-4.117 5.313-5.976 8.637q1.195.598 1.992 1.594"/><path fill="#f26d21" d="M172.164-34.121c-4.121-4.121-10.898-3.856-15.148.531-6.645 6.645-21.926 26.707-17.008 31.625 4.918 4.914 24.98-10.367 31.625-17.008 4.383-4.386 4.648-11.03.531-15.148"/><path fill="#ce5c1c" d="M172.164-34.121c1.727 3.852.797 8.77-2.527 12.09-6.242 6.246-24.317 19.93-30.559 17.672 0 1.062.266 1.859.93 2.394 4.918 4.914 24.98-10.367 31.625-17.008 4.383-4.254 4.648-11.03.531-15.148"/><g fill="none" stroke="#000" stroke-linecap="round" stroke-linejoin="round" stroke-width="1.688"><path d="M170.836-18.043s-3.988-1.328-7.973-5.316m-7.84 4.254s-2.527-2.262-5.183-5.98m15.414 11.691s-3.32-.93-5.449-3.055m1.062 6.246s-3.453-.664-7.039-4.254m-9.172-2.789s1.465 2.789 4.387 5.18m4.918-18.204s.797 2.391 3.055 4.653M145.453-6.086s1.863 2.125 4.121 3.055m28.699-37.203-6.109 6.113m-1.328-8.504.797 4.516m9.035 5.316-4.52-.797"/><path d="M172.164-34.121c-4.121-4.121-10.898-3.856-15.148.531-6.645 6.645-21.926 26.707-17.008 31.625 4.918 4.914 24.98-10.367 31.625-17.008 4.383-4.386 4.648-11.03.531-15.148"/></g></g></svg>