<svg xmlns="http://www.w3.org/2000/svg" width="239pt" height="220pt" viewBox="0 -220 239 220"><g id="page1"><path fill="maroon" d="M.25-.254h238.109v-181.418H.25Z"/><path fill="none" stroke="#000" stroke-linecap="round" stroke-linejoin="round" stroke-width=".5" d="M.25-.254v-181.418h238.109V-.254z"/><path fill="#fff" d="M5.918-5.922h226.773V-176H5.918Z"/><path fill="none" stroke="#000" stroke-linecap="round" stroke-linejoin="round" stroke-width=".5" d="M5.918-5.922V-176h226.773V-5.922z"/><path fill="#bf80ff" d="M5.918-5.922h56.695v-56.695H5.918Z"/><path fill="none" stroke="#000" stroke-linecap="round" stroke-linejoin="round" stroke-width=".5" d="M5.918-5.922v-56.691h56.695v56.691z"/><path fill="#0f0" d="M5.918-62.613h56.695v-56.696H5.918Z"/><path fill="none" stroke="#000" stroke-linecap="round" stroke-linejoin="round" stroke-width=".5" d="M5.918-62.613v-56.696h56.695v56.696z"/><path fill="#ffbfff" d="M5.918-119.309h56.695V-176H5.918Z"/><path fill="none" stroke="#000" stroke-linecap="round" stroke-linejoin="round" stroke-width=".5" d="M5.918-119.309V-176h56.695v56.691z"/><path fill="red" d="M62.613-5.922h56.692v-56.695H62.613Z"/><path fill="none" stroke="#000" stroke-linecap="round" stroke-linejoin="round" stroke-width=".5" d="M62.613-5.922v-56.691h56.692v56.691z"/><path fill="#0ff" d="M62.613-119.309h56.692V-176H62.613Z"/><path fill="none" stroke="#000" stroke-linecap="round" stroke-linejoin="round" stroke-width=".5" d="M62.613-119.309V-176h56.692v56.691z"/><path fill="#f0f" d="M119.305-5.922h56.691v-56.695h-56.691Z"/><path fill="none" stroke="#000" stroke-linecap="round" stroke-linejoin="round" stroke-width=".5" d="M119.305-5.922v-56.691h56.691v56.691z"/><path fill="#00ff80" d="M119.305-119.309h56.691V-176h-56.691Z"/><path fill="none" stroke="#000" stroke-linecap="round" stroke-linejoin="round" stroke-width=".5" d="M119.305-119.309V-176h56.691v56.691z"/><path fill="#ff0" d="M175.996-5.922h56.695v-56.695h-56.695Z"/><path fill="none" stroke="#000" stroke-linecap="round" stroke-linejoin="round" stroke-width=".5" d="M175.996-5.922v-56.691h56.695v56.691z"/><path fill="#ff8000" d="M175.996-62.613h56.695v-56.696h-56.695Z"/><path fill="none" stroke="#000" stroke-linecap="round" stroke-linejoin="round" stroke-width=".5" d="M175.996-62.613v-56.696h56.695v56.696z"/><path fill="#ff80bf" d="M175.996-119.309h56.695V-176h-56.695Z"/><path fill="none" stroke="#000" stroke-linecap="round" stroke-linejoin="round" stroke-width=".5" d="M175.996-119.309V-176h56.695v56.691z"/><path fill="maroon" d="M56.941-56.945h124.727v-68.032H56.941Z"/><path fill="none" stroke="#000" stroke-linecap="round" stroke-linejoin="round" stroke-width=".5" d="M56.941-56.945v-68.032h124.727v68.032z"/><path fill="#fff" d="M62.613-62.613H176v-56.696H62.613Z"/><path fill="none" stroke="#000" stroke-linecap="round" stroke-linejoin="round" stroke-width=".5" d="M62.613-62.613v-56.696h113.383v56.696z"/><path d="M27.8-160.5c-.445 0-1.863-.09-3.277-.176-1.418 0-2.925-.09-3.457-.176-2.57-.265-4.695-1.152-6.644-2.746l-.531-.445-.352.18c-.621.265-1.418.441-2.039.265-.887-.179-1.508-.535-2.48-1.507-1.86-1.86-2.48-3.368-2.04-5.317.356-1.594.801-2.48 1.508-2.922.442-.176.532-.265.973-.265.531.089.531.089.621-.176.09-.18.18-1.153.18-2.395.086-1.328.086-2.3.175-2.746.797-3.543 2.481-6.375 5.227-9.035 5.668-5.402 11.957-6.641 18.246-3.633l1.063.535.976-.621c.532-.265 1.239-.711 1.594-.886.977-.442 1.152-.707 1.328-1.95.09-.797.356-1.593.977-2.746.797-1.593.797-1.859-.532-3.453-3.277-3.808-4.785-7.265-4.785-10.719 0-1.418 0-1.683.797-3.367.797-1.769.887-2.039.887-3.101.09-.532.09-.973.09-1.063.175-.176.53-.086.797.18.175.176.796 1.328 1.593 2.832 1.418 2.746 2.125 3.898 2.39 4.164.18.09.18.09.18-.09.087-.086.087-.441.087-.707 0-.973.355-2.57.796-3.898.266-.883.446-1.063.711-1.063.442 0 .618.266.797 1.242.176.797.532 1.414 1.239 2.391 1.949 2.391 2.48 3.277 3.19 5.051.708 1.769.974 3.453.974 5.843 0 1.329 0 1.684.09 1.864.265.261.886.527 2.3.797.977.175 1.332.261 1.864.531.882.441 1.593 1.062 2.035 1.68.71.886 4.34 6.644 4.52 7.175.085.18.175.532.265.797l.176.621-.356.621c-.531.973-1.062 1.684-1.86 2.301-.972.797-1.949 1.153-3.452 1.598-2.04.441-2.746.797-3.102 1.328-.266.441-.176.887.09 2.125.352 1.238.441 2.125.441 3.367 0 .973-.09 2.125-.265 2.567-.09.179-.09.179-.266-.086l-.266-.266v.352c0 .265-.09.71-.09.976-.351 1.328-.796 2.125-1.238 2.125-.175 0-.265.09-.355.356-.086.265-.442.707-1.418 1.503-.797.711-1.063 1.243-1.063 2.129.09.618.266 1.063.711 1.594.352.356.707.617 2.215 1.594 1.504.887 2.125 2.035 1.594 2.836-.266.621-.711.707-2.305.797-1.77.175-2.836.086-3.898-.176-1.95-.535-3.719-1.508-5.934-3.457l-.886-.707-2.481.617c-1.328.356-2.48.711-2.566.801 0 0 .086.441.265.972.176.622.266 1.153.266 1.329 0 .796-.711 1.328-2.13 1.769-.53.18-3.01.18-4.16.09m8.286 4.352c0-.813-.059-.813-.953-.813-2.07 1.793-5.18 1.793-5.793 1.793h-.535v1.203h.535c.98 0 2.46-.168 3.582-.531v14.691h-3.89v1.203c1.175-.054 4.113-.054 5.429-.054s4.281 0 5.457.054v-1.203h-3.832zm61.148 11.531H96.06c-.082.586-.282 2.238-.7 2.519-.226.196-2.406.196-2.828.196h-4.336c1.063-.895 3.61-3.024 4.028-3.332 3.109-2.321 5.011-3.75 5.011-6.438 0-3.301-2.996-5.289-6.687-5.289-3.164 0-5.879 1.793-5.879 4.453 0 1.481 1.203 1.903 1.848 1.903.867 0 1.875-.59 1.875-1.875 0-1.176-.868-1.766-1.735-1.879 1.117-1.286 2.602-1.399 3.188-1.399 2.578 0 3.808 2.102 3.808 4.117 0 2.18-1.484 4.196-2.633 5.399l-6.074 6.355c-.277.25-.277.309-.277.809v.476h11.754zm49.871-3.246c3.133 0 3.133 2.91 3.133 4.254 0 1.257 0 4.226-3.019 4.226-.59 0-2.438-.086-3.781-1.035 1.203-.254 1.625-1.121 1.625-1.961 0-1.148-.813-1.961-1.961-1.961-1.176 0-1.985.813-1.985 1.988 0 2.579 2.797 4.086 6.238 4.086 4.622 0 6.833-2.547 6.833-5.343 0-1.371-.704-4.032-5.04-4.786 2.461-.757 4.172-2.492 4.172-4.703 0-2.097-2.015-3.863-5.906-3.863-3.137 0-5.43 1.652-5.43 3.918 0 1.402 1.09 1.848 1.817 1.848.812 0 1.793-.532 1.793-1.821 0-.64-.281-1.593-1.598-1.789 1.176-1.148 3.082-1.148 3.25-1.148 2.488 0 2.488 1.93 2.488 2.773 0 .836-.113 2.125-1.007 3.274-.727.949-1.454 1.008-2.516 1.062-.34.028-.898.055-1.008.114-.168.082-.168.277-.168.39 0 .477.168.477.727.477zm61.512 4.871h2.719v-1.203h-2.719v-12.008c0-.703-.027-.813-.726-.813-.504 0-.559 0-.895.418l-9.629 12.403v1.203h7.949v3.187h-3.05v1.203c.812-.054 3.582-.054 4.589-.054.954 0 3.723 0 4.481.054v-1.203h-2.719zm-3.047-10.106v8.903h-6.914zm-4.761 56.672a9 9 0 0 0 2.129.223c.671 0 2.265 0 4.14-1.149.867-.53 2.324-1.789 2.324-2.433 0-.14 0-.473-.336-.473-.027 0-.082 0-.363.137-1.289.45-2.66.758-4.226.758-1.594 0-2.938-.309-4.254-.785-.196-.055-.282-.11-.364-.11-.336 0-.336.277-.336.754v8.145c0 .53 0 .84.559.84.281 0 .336-.028.559-.31.336-.39 1.343-1.624 3.722-1.624 2.575 0 2.575 2.633 2.575 4.844 0 2.015 0 4.925-3.442 4.925-1.035 0-2.797-.39-3.75-1.988 1.484 0 1.848-1.117 1.848-1.734 0-1.008-.727-1.762-1.762-1.762-.84 0-1.766.504-1.766 1.816 0 2.438 2.211 4.79 5.543 4.79 4.309 0 7.024-2.493 7.024-5.961 0-3.418-2.32-5.852-6.156-5.852-1.118 0-2.461.223-3.668 1.117zm.562 61.094c0-1.707.082-3.441.867-4.953.614-1.176 2.043-2.27 3.864-2.27.531 0 1.539.086 2.211.785-1.067.114-1.512.895-1.512 1.653 0 1.008.754 1.652 1.652 1.652.727 0 1.649-.476 1.649-1.707 0-1.68-1.118-3.387-4.059-3.387-3.496 0-8.227 2.184-8.227 9.489 0 1.875 0 9.207 6.633 9.207 3.696 0 6.438-2.184 6.438-6.102s-2.715-5.988-6.047-5.988c-.559 0-2.352 0-3.469 2.375zm3.051 9.348c-1.793 0-2.492-1.512-2.606-1.735-.39-.922-.39-3.164-.39-3.414 0-3.445 1.484-4.898 3.137-4.898 2.769 0 2.769 2.238 2.769 5.039 0 2.77 0 5.008-2.91 5.008m-49.621-15.981c.254-.281.254-.336.254-1.262h-5.907c-.195 0-4.367-.136-4.703-.195-.699-.11-.754-.418-.812-.7h-1.172l-.926 6.915h1.176c.027-.277.254-2.238.727-2.547.253-.168 2.578-.168 3.023-.168h5.066c-3.246 3.945-3.609 4.395-4.48 6.047-1.649 3.246-1.902 5.766-1.902 7.137 0 1.875 1.429 1.875 1.652 1.875.699 0 1.094-.364 1.289-.559.363-.45.363-.785.363-2.015 0-4.286.391-7.418 2.153-9.516zM93.652-35.5c1.399-.727 2.965-1.762 2.965-3.945 0-2.883-2.574-4.114-5.625-4.114-3.723 0-5.71 2.125-5.71 4.84 0 1.512.757 3.192 2.827 4.282-3.164 1.402-3.695 3.331-3.695 4.789 0 3.218 2.8 4.785 6.496 4.785 4.14 0 6.574-2.239 6.574-5.489 0-3.046-2.406-4.363-3.832-5.148m-5.039-2.883c-.558-.308-1.344-.953-1.344-1.875 0-2.238 2.997-2.297 3.641-2.297 2.38 0 3.723 1.262 3.723 3.11 0 1.148-.508 2.351-2.102 3.273zm.645 4.617 3.863 2.211c.922.532 2.125 1.203 2.125 2.633 0 2.238-2.238 2.938-4.254 2.938-2.77 0-4.336-1.485-4.336-3.696 0-2.043 1.258-3.328 2.602-4.086m-52.028.672c0 1.961 0 7.11-4.363 7.11-.87 0-1.875-.223-2.465-.672.813-.168 1.399-.754 1.399-1.649 0-1.008-.754-1.652-1.653-1.652-.726 0-1.648.473-1.648 1.707 0 1.957 1.54 3.387 4.422 3.387 3.555 0 7.863-2.325 7.863-9.543 0-1.875 0-9.153-6.465-9.153-3.863 0-6.605 2.239-6.605 6.075 0 3.886 2.687 5.988 6.047 5.988 1.175 0 2.574-.422 3.468-2.41zm-3.19.672c-2.77 0-2.77-2.266-2.77-5.008 0-2.687 0-5.125 3.05-5.125 1.793 0 2.438 1.598 2.547 1.907.281.84.336 2.574.336 3.496 0 1.96-.812 4.73-3.164 4.73M28.184-99.45c0-.808-.055-.808-.95-.808-2.074 1.79-5.18 1.79-5.797 1.79h-.53v1.202h.53c.981 0 2.465-.168 3.586-.53v14.694h-3.89v1.204c1.172-.059 4.113-.059 5.43-.059 1.312 0 4.28 0 5.457.059v-1.204h-3.836zm20.586 8.622c0-2.688 0-9.43-6.606-9.43-6.633 0-6.633 6.715-6.633 9.43 0 2.687 0 9.266 6.606 9.266s6.633-6.497 6.633-9.266m-6.606 8.34c-.895 0-1.566-.364-2.125-.95-.703-.703-1.148-1.148-1.148-7.726 0-1.961 0-3.75.222-5.207.395-2.77 2.407-2.965 3.024-2.965.894 0 2.629.418 3.023 2.77.25 1.425.25 3.695.25 5.402 0 6.605-.418 6.996-1.258 7.836a2.86 2.86 0 0 1-1.988.84"/></g></svg>