<svg xmlns="http://www.w3.org/2000/svg" width="89pt" height="136" viewBox="0 -102 89 102"><g id="page1" transform="scale(1 -1)"><path fill="gray" d="M2.875 13.988h85.04v85.04L.75 101.151z"/><path fill="none" stroke="#4d4d4d" stroke-linecap="round" stroke-linejoin="round" stroke-width="1.5" d="M2.875 13.988h85.04v85.04L.75 101.151z"/><path fill="#ccc" d="M2.875 13.988h85.04v85.04H2.874Z"/><path fill="none" stroke="#4d4d4d" stroke-linecap="round" stroke-linejoin="round" stroke-width="1.5" d="M2.875 13.988h85.04v85.04H2.874z"/><path fill="none" stroke="#000" stroke-dasharray="7.73085 7.73085" stroke-linecap="round" stroke-linejoin="round" d="M45.395 13.988v85.04"/><path fill="gray" d="M43.348 12.293c-2.664-3.672-3.235-6.355-4.137-6.098-1.836 1.528-5.461 1.524-6.234-1.61-1.102-4.987 5.398-5.737 6.777-2.237.937 2.066 1.418 4.797 4.445 7.144l2.32 1.797 8.044 11.348c.898 1.468 1.437 3.422.273 5.285-3.824-5.211-7.66-10.418-11.488-15.629m-8.621-6.848c1.546 1.547 4.293.606 4.285-1.46.105-1.895-2.2-3.622-3.914-2.54-1.442.758-1.43 2.942-.371 4"/><path fill="none" stroke="#000" stroke-linecap="round" stroke-width=".377" d="M43.348 12.293c-2.664-3.672-3.235-6.355-4.137-6.098-1.836 1.528-5.461 1.524-6.234-1.61-1.102-4.987 5.398-5.737 6.777-2.237.937 2.066 1.418 4.797 4.445 7.144l2.32 1.797 8.044 11.348c.898 1.468 1.437 3.422.273 5.285-3.824-5.211-7.66-10.418-11.488-15.629Z"/><path fill="none" stroke="#000" stroke-linecap="round" stroke-width=".377" d="M34.727 5.445c1.546 1.547 4.293.606 4.285-1.46.105-1.895-2.2-3.622-3.914-2.54-1.442.758-1.43 2.942-.371 4Z"/><path fill="gray" d="M47.46 12.395c2.653-3.68 3.224-6.364 4.126-6.114 1.84 1.535 5.469 1.508 6.227-1.613 1.097-4.992-5.407-5.734-6.778-2.227-.937 2.067-1.406 4.805-4.43 7.157l-2.32 1.8-8.012 11.368c-.894 1.468-1.433 3.422-.265 5.28 3.82-5.214 7.633-10.437 11.453-15.651m8.606-6.872c-1.543 1.551-4.285.614-4.285-1.449-.113-1.89 2.192-3.625 3.907-2.55 1.44.757 1.44 2.945.378 4"/><path fill="none" stroke="#000" stroke-linecap="round" stroke-width=".377" d="M47.46 12.395c2.653-3.68 3.224-6.364 4.126-6.114 1.84 1.535 5.469 1.508 6.227-1.613 1.097-4.992-5.407-5.734-6.778-2.227-.937 2.067-1.406 4.805-4.43 7.157l-2.32 1.8-8.012 11.368c-.894 1.468-1.433 3.422-.265 5.28 3.82-5.214 7.633-10.437 11.453-15.651Z"/><path fill="none" stroke="#000" stroke-linecap="round" stroke-width=".377" d="M56.066 5.523c-1.543 1.551-4.285.614-4.285-1.449-.113-1.89 2.192-3.625 3.907-2.55 1.44.757 1.44 2.945.378 4Z"/><circle cx="45.395" cy="12.328" r=".377"/></g></svg>