<svg xmlns="http://www.w3.org/2000/svg" width="660" height="768" viewBox="0 -576 495 576"><g id="page1"><path fill="#ffd9b2" d="M10.004-8.95h5.953c1.633 0 3.2.65 4.355 1.802l4.895 4.898a2.553 2.553 0 0 0 3.61 0l4.894-4.898a6.17 6.17 0 0 1 4.355-1.801H482.43a2.554 2.554 0 0 0 2.55-2.555V-84.66a2.553 2.553 0 0 0-2.55-2.55H38.066a6.16 6.16 0 0 0-4.355 1.804l-4.895 4.894a2.553 2.553 0 0 1-3.609 0l-4.895-4.894a6.16 6.16 0 0 0-4.355-1.805H4.051A2.55 2.55 0 0 0 1.5-84.66v73.157c0 1.41 1.14 2.555 2.55 2.555z"/><path fill="none" stroke="#b25900" stroke-linecap="round" stroke-linejoin="round" stroke-width="3" d="M10.004-8.95h5.953c1.633 0 3.2.65 4.355 1.802l4.895 4.898a2.553 2.553 0 0 0 3.61 0l4.894-4.898a6.17 6.17 0 0 1 4.355-1.801H482.43a2.554 2.554 0 0 0 2.55-2.555V-84.66a2.553 2.553 0 0 0-2.55-2.55H38.066a6.16 6.16 0 0 0-4.355 1.804l-4.895 4.894a2.553 2.553 0 0 1-3.609 0l-4.895-4.894a6.16 6.16 0 0 0-4.355-1.805H4.051A2.55 2.55 0 0 0 1.5-84.66v73.157c0 1.41 1.14 2.555 2.55 2.555z"/><path fill="#d9b2b2" d="M98.758-48.082c0 13.684 8.289 26.375 20.992 26.375s20.988-12.691 20.988-26.375-8.285-26.371-20.988-26.371-20.992 12.687-20.992 26.371"/><path fill="none" stroke="#590000" stroke-linecap="round" stroke-linejoin="round" stroke-width="3" d="M98.758-48.082c0 13.684 8.289 26.375 20.992 26.375s20.988-12.691 20.988-26.375-8.285-26.371-20.988-26.371-20.992 12.687-20.992 26.371"/><path fill="#ffffb2" d="M10.004-90.156h5.953c1.633 0 3.2.648 4.355 1.804l4.895 4.895a2.553 2.553 0 0 0 3.61 0l4.894-4.895a6.16 6.16 0 0 1 4.355-1.804H482.43a2.55 2.55 0 0 0 2.55-2.551v-193.938a2.553 2.553 0 0 0-2.55-2.55H38.066a6.16 6.16 0 0 0-4.355 1.804l-4.895 4.899a2.554 2.554 0 0 1-3.609 0l-4.895-4.899a6.16 6.16 0 0 0-4.355-1.804H4.051a2.55 2.55 0 0 0-2.551 2.55v193.938c0 1.41 1.14 2.55 2.55 2.55z"/><path fill="none" stroke="#b2b200" stroke-linecap="round" stroke-linejoin="round" stroke-width="3" d="M10.004-90.156h5.953c1.633 0 3.2.648 4.355 1.804l4.895 4.895a2.553 2.553 0 0 0 3.61 0l4.894-4.895a6.16 6.16 0 0 1 4.355-1.804H482.43a2.55 2.55 0 0 0 2.55-2.551v-193.938a2.553 2.553 0 0 0-2.55-2.55H38.066a6.16 6.16 0 0 0-4.355 1.804l-4.895 4.899a2.554 2.554 0 0 1-3.609 0l-4.895-4.899a6.16 6.16 0 0 0-4.355-1.804H4.051a2.55 2.55 0 0 0-2.551 2.55v193.938c0 1.41 1.14 2.55 2.55 2.55z"/><path fill="#ffd9b2" d="M35.516-107.164h5.953c1.633 0 3.199.648 4.355 1.805l4.895 4.894a2.553 2.553 0 0 0 3.61 0l4.894-4.894a6.16 6.16 0 0 1 4.355-1.805h427.356a2.55 2.55 0 0 0 2.55-2.551v-73.156a2.55 2.55 0 0 0-2.55-2.551H63.578a6.16 6.16 0 0 0-4.355 1.805l-4.895 4.894a2.553 2.553 0 0 1-3.61 0l-4.894-4.894a6.16 6.16 0 0 0-4.355-1.805H29.562a2.55 2.55 0 0 0-2.55 2.551v73.156a2.55 2.55 0 0 0 2.55 2.551z"/><path fill="none" stroke="#b25900" stroke-linecap="round" stroke-linejoin="round" stroke-width="3" d="M35.516-107.164h5.953c1.633 0 3.199.648 4.355 1.805l4.895 4.894a2.553 2.553 0 0 0 3.61 0l4.894-4.894a6.16 6.16 0 0 1 4.355-1.805h427.356a2.55 2.55 0 0 0 2.55-2.551v-73.156a2.55 2.55 0 0 0-2.55-2.551H63.578a6.16 6.16 0 0 0-4.355 1.805l-4.895 4.894a2.553 2.553 0 0 1-3.61 0l-4.894-4.894a6.16 6.16 0 0 0-4.355-1.805H29.562a2.55 2.55 0 0 0-2.55 2.551v73.156a2.55 2.55 0 0 0 2.55 2.551z"/><path fill="#d9b2b2" d="M247.832-146.293c0 13.578 7.789 26.371 20.27 26.371s20.269-12.793 20.269-26.371-7.789-26.375-20.269-26.375c-12.481 0-20.27 12.797-20.27 26.375"/><path fill="none" stroke="#590000" stroke-linecap="round" stroke-linejoin="round" stroke-width="3" d="M247.832-146.293c0 13.578 7.789 26.371 20.27 26.371s20.269-12.793 20.269-26.371-7.789-26.375-20.269-26.375c-12.481 0-20.27 12.797-20.27 26.375"/><path fill="#d9b2b2" d="M442.078-146.293c0 13.684 8.289 26.371 20.992 26.371s20.993-12.687 20.993-26.371-8.29-26.375-20.993-26.375-20.992 12.691-20.992 26.375"/><path fill="none" stroke="#590000" stroke-linecap="round" stroke-linejoin="round" stroke-width="3" d="M442.078-146.293c0 13.684 8.289 26.371 20.992 26.371s20.993-12.687 20.993-26.371-8.29-26.375-20.993-26.375-20.992 12.691-20.992 26.375"/><path fill="#b2ffb2" d="m51.215-214.992 10.433 14.398a12.49 12.49 0 0 0 10.121 5.168h222.024c4.004 0 7.77-1.922 10.117-5.168l20.863-28.797a8.8 8.8 0 0 0 0-10.332L303.91-268.52a12.49 12.49 0 0 0-10.117-5.168H71.77a12.49 12.49 0 0 0-10.122 5.168l-20.863 28.797a8.8 8.8 0 0 0 0 10.332z"/><path fill="none" stroke="#00b200" stroke-linecap="round" stroke-linejoin="round" stroke-width="3" d="m51.215-214.992 10.433 14.398a12.49 12.49 0 0 0 10.121 5.168h222.024c4.004 0 7.77-1.922 10.117-5.168l20.863-28.797a8.8 8.8 0 0 0 0-10.332L303.91-268.52a12.49 12.49 0 0 0-10.117-5.168H71.77a12.49 12.49 0 0 0-10.122 5.168l-20.863 28.797a8.8 8.8 0 0 0 0 10.332z"/><path fill="#d9b2b2" d="M52.633-234.559c0 13.579 7.793 26.375 20.273 26.375 12.477 0 20.27-12.796 20.27-26.375 0-13.574-7.793-26.371-20.27-26.371-12.48 0-20.273 12.797-20.273 26.371"/><path fill="none" stroke="#590000" stroke-linecap="round" stroke-linejoin="round" stroke-width="3" d="M52.633-234.559c0 13.579 7.793 26.375 20.273 26.375 12.477 0 20.27-12.796 20.27-26.375 0-13.574-7.793-26.371-20.27-26.371-12.48 0-20.273 12.797-20.273 26.371"/><path fill="#d9b2b2" d="M270.945-234.559c0 13.684 8.285 26.375 20.989 26.375 12.703 0 20.992-12.691 20.992-26.375 0-13.679-8.289-26.371-20.992-26.371s-20.989 12.692-20.989 26.371"/><path fill="none" stroke="#590000" stroke-linecap="round" stroke-linejoin="round" stroke-width="3" d="M270.945-234.559c0 13.684 8.285 26.375 20.989 26.375 12.703 0 20.992-12.691 20.992-26.375 0-13.679-8.289-26.371-20.992-26.371s-20.989 12.692-20.989 26.371"/><path fill="#ffffb2" d="M10.004-292.141h5.953c1.633 0 3.2.649 4.355 1.805l4.895 4.895c.996 1 2.613 1 3.61 0l4.894-4.895a6.16 6.16 0 0 1 4.355-1.805H482.43a2.55 2.55 0 0 0 2.55-2.55v-193.938a2.554 2.554 0 0 0-2.55-2.551H38.066a6.18 6.18 0 0 0-4.355 1.805l-4.895 4.898a2.55 2.55 0 0 1-3.609 0l-4.895-4.898a6.18 6.18 0 0 0-4.355-1.805H4.051a2.55 2.55 0 0 0-2.551 2.551v193.938c0 1.41 1.14 2.55 2.55 2.55z"/><path fill="none" stroke="#b2b200" stroke-linecap="round" stroke-linejoin="round" stroke-width="3" d="M10.004-292.141h5.953c1.633 0 3.2.649 4.355 1.805l4.895 4.895c.996 1 2.613 1 3.61 0l4.894-4.895a6.16 6.16 0 0 1 4.355-1.805H482.43a2.55 2.55 0 0 0 2.55-2.55v-193.938a2.554 2.554 0 0 0-2.55-2.551H38.066a6.18 6.18 0 0 0-4.355 1.805l-4.895 4.898a2.55 2.55 0 0 1-3.609 0l-4.895-4.898a6.18 6.18 0 0 0-4.355-1.805H4.051a2.55 2.55 0 0 0-2.551 2.551v193.938c0 1.41 1.14 2.55 2.55 2.55z"/><path fill="#ffd9b2" d="M35.516-309.148h5.953c1.633 0 3.199.648 4.355 1.804l4.895 4.895a2.553 2.553 0 0 0 3.61 0l4.894-4.895a6.16 6.16 0 0 1 4.355-1.804h427.356a2.55 2.55 0 0 0 2.55-2.551v-73.156a2.55 2.55 0 0 0-2.55-2.551H63.578c-1.633 0-3.2.648-4.355 1.804l-4.895 4.895a2.553 2.553 0 0 1-3.61 0l-4.894-4.895a6.16 6.16 0 0 0-4.355-1.804H29.562c-1.41 0-2.55 1.14-2.55 2.551v73.156a2.55 2.55 0 0 0 2.55 2.551z"/><path fill="none" stroke="#b25900" stroke-linecap="round" stroke-linejoin="round" stroke-width="3" d="M35.516-309.148h5.953c1.633 0 3.199.648 4.355 1.804l4.895 4.895a2.553 2.553 0 0 0 3.61 0l4.894-4.895a6.16 6.16 0 0 1 4.355-1.804h427.356a2.55 2.55 0 0 0 2.55-2.551v-73.156a2.55 2.55 0 0 0-2.55-2.551H63.578c-1.633 0-3.2.648-4.355 1.804l-4.895 4.895a2.553 2.553 0 0 1-3.61 0l-4.894-4.895a6.16 6.16 0 0 0-4.355-1.804H29.562c-1.41 0-2.55 1.14-2.55 2.551v73.156a2.55 2.55 0 0 0 2.55 2.551z"/><path fill="#d9b2b2" d="M247.832-348.277c0 13.683 8.289 26.375 20.992 26.375s20.992-12.692 20.992-26.375-8.289-26.375-20.992-26.375-20.992 12.691-20.992 26.375"/><path fill="none" stroke="#590000" stroke-linecap="round" stroke-linejoin="round" stroke-width="3" d="M247.832-348.277c0 13.683 8.289 26.375 20.992 26.375s20.992-12.692 20.992-26.375-8.289-26.375-20.992-26.375-20.992 12.691-20.992 26.375"/><path fill="#d9b2b2" d="M443.523-348.277c0 13.644 8.106 26.375 20.727 26.375s20.73-12.731 20.73-26.375-8.109-26.375-20.73-26.375-20.727 12.73-20.727 26.375"/><path fill="none" stroke="#590000" stroke-linecap="round" stroke-linejoin="round" stroke-width="3" d="M443.523-348.277c0 13.644 8.106 26.375 20.727 26.375s20.73-12.731 20.73-26.375-8.109-26.375-20.73-26.375-20.727 12.73-20.727 26.375"/><path fill="#b2ffb2" d="m51.215-416.977 10.433 14.403a12.5 12.5 0 0 0 10.121 5.164h222.942c4.004 0 7.769-1.922 10.117-5.164l20.863-28.801a8.81 8.81 0 0 0 0-10.332l-20.863-28.797a12.5 12.5 0 0 0-10.117-5.168H71.769a12.49 12.49 0 0 0-10.12 5.168l-20.864 28.797a8.8 8.8 0 0 0 0 10.332z"/><path fill="none" stroke="#00b200" stroke-linecap="round" stroke-linejoin="round" stroke-width="3" d="m51.215-416.977 10.433 14.403a12.5 12.5 0 0 0 10.121 5.164h222.942c4.004 0 7.769-1.922 10.117-5.164l20.863-28.801a8.81 8.81 0 0 0 0-10.332l-20.863-28.797a12.5 12.5 0 0 0-10.117-5.168H71.769a12.49 12.49 0 0 0-10.12 5.168l-20.864 28.797a8.8 8.8 0 0 0 0 10.332z"/><path fill="#d9b2b2" d="M52.633-436.543c0 13.684 8.289 26.375 20.992 26.375s20.992-12.691 20.992-26.375c0-13.68-8.289-26.371-20.992-26.371s-20.992 12.691-20.992 26.371"/><path fill="none" stroke="#590000" stroke-linecap="round" stroke-linejoin="round" stroke-width="3" d="M52.633-436.543c0 13.684 8.289 26.375 20.992 26.375s20.992-12.691 20.992-26.375c0-13.68-8.289-26.371-20.992-26.371s-20.992 12.691-20.992 26.371"/><path fill="#d9b2b2" d="M272.387-436.543c0 13.648 8.105 26.375 20.726 26.375s20.731-12.727 20.731-26.375c0-13.641-8.11-26.371-20.731-26.371s-20.726 12.73-20.726 26.371"/><path fill="none" stroke="#590000" stroke-linecap="round" stroke-linejoin="round" stroke-width="3" d="M272.387-436.543c0 13.648 8.105 26.375 20.726 26.375s20.731-12.727 20.731-26.375c0-13.641-8.11-26.371-20.731-26.371s-20.726 12.73-20.726 26.371"/><path fill="#fff" d="M480.727-574.105H38.067c-1.633 0-3.2.648-4.356 1.8l-4.895 4.899a2.554 2.554 0 0 1-3.609 0l-4.895-4.899a6.17 6.17 0 0 0-4.355-1.8H4.051a2.55 2.55 0 0 0-2.551 2.55v74.879a2.55 2.55 0 0 0 2.55 2.551h11.907c1.633 0 3.2.648 4.355 1.805l4.895 4.894c.996 1 2.613 1 3.61 0l4.894-4.894a6.16 6.16 0 0 1 4.355-1.805h442.661z"/><path fill="none" stroke="#b2b2b2" stroke-linecap="round" stroke-linejoin="round" stroke-width="3" d="M480.727-574.105H38.067c-1.633 0-3.2.648-4.356 1.8l-4.895 4.899a2.554 2.554 0 0 1-3.609 0l-4.895-4.899a6.17 6.17 0 0 0-4.355-1.8H4.051a2.55 2.55 0 0 0-2.551 2.55v74.879a2.55 2.55 0 0 0 2.55 2.551h11.907c1.633 0 3.2.648 4.355 1.805l4.895 4.894c.996 1 2.613 1 3.61 0l4.894-4.894a6.16 6.16 0 0 1 4.355-1.805h442.661"/><path d="M20.836-52.207c0-.434 0-.55-.238-.55-.192 0-.645.523-.813.741-.738-.597-1.48-.742-2.246-.742-2.89 0-3.75 1.578-3.75 2.89 0 .266 0 1.102.906 1.938.766.668 1.578.836 2.68 1.051 1.313.262 1.625.332 2.219.813.43.359.742.882.742 1.55 0 1.032-.598 2.176-2.7 2.176-1.577 0-2.722-.906-3.25-3.297-.097-.43-.097-.453-.12-.476-.047-.098-.141-.098-.215-.098-.262 0-.262.121-.262.55v3.25c0 .43 0 .552.238.552.121 0 .145-.024.551-.528.117-.168.117-.215.477-.597.906 1.125 2.199 1.125 2.605 1.125 2.508 0 3.75-1.387 3.75-3.274 0-1.293-.785-2.058-1.004-2.273-.86-.739-1.504-.883-3.082-1.172-.715-.14-2.46-.477-2.46-1.91 0-.739.503-1.84 2.652-1.84 2.605 0 2.75 2.223 2.797 2.965.023.191.19.191.261.191.262 0 .262-.121.262-.55zm5.379.5h3.37v-.691h-3.37v-4.399h-.527c-.024 2.246-.883 4.54-3.06 4.613v.477h2.032v6.645c0 2.652 1.77 3.203 3.035 3.203 1.508 0 2.297-1.485 2.297-3.203v-1.364h-.527v1.317c0 1.718-.692 2.722-1.625 2.722-1.625 0-1.625-2.222-1.625-2.629zm14.308 3.227c0-1.29 0-2.247-1.05-3.18-.836-.762-1.91-1.098-2.965-1.098-1.957 0-3.465 1.29-3.465 2.844 0 .691.457 1.027 1.004 1.027.574 0 .98-.406.98-.98 0-.98-.859-.98-1.218-.98.55-1.005 1.699-1.434 2.652-1.434 1.102 0 2.508.91 2.508 3.058v.957c-4.801.07-6.617 2.078-6.617 3.918 0 1.891 2.199 2.489 3.656 2.489 1.578 0 2.652-.957 3.105-2.106.098 1.125.836 1.985 1.864 1.985.504 0 1.89-.336 1.89-2.247v-1.34h-.527v1.34c0 1.364-.574 1.555-.906 1.555-.91 0-.91-1.27-.91-1.625zm-1.553 3.01c0 2.34-1.742 3.13-2.77 3.13-1.172 0-2.152-.86-2.152-2.009 0-3.152 4.062-3.441 4.922-3.488zm21.163-2.436c0-2.223 0-2.89-.547-3.657-.695-.933-1.816-1.078-2.629-1.078-1.984 0-2.988 1.438-3.371 2.368-.336-1.84-1.625-2.368-3.129-2.368-2.32 0-3.227 1.985-3.418 2.465h-.023v-2.465l-3.25.266v.691c1.625 0 1.816.168 1.816 1.34v6.477c0 1.074-.262 1.074-1.816 1.074v.691c.62-.046 1.91-.046 2.578-.046.695 0 1.984 0 2.605.046v-.691c-1.527 0-1.816 0-1.816-1.074v-4.446c0-2.507 1.648-3.847 3.133-3.847 1.48 0 1.816 1.219 1.816 2.676v5.617c0 1.074-.266 1.074-1.816 1.074v.691c.62-.046 1.91-.046 2.578-.046.695 0 1.984 0 2.605.046v-.691c-1.527 0-1.816 0-1.816-1.074v-4.446c0-2.507 1.648-3.847 3.133-3.847 1.48 0 1.816 1.219 1.816 2.676v5.617c0 1.074-.266 1.074-1.816 1.074v.691c.62-.046 1.91-.046 2.578-.046.695 0 1.984 0 2.605.046v-.691c-1.195 0-1.793 0-1.816-.715zm8.223 9.75c-1.532 0-1.817 0-1.817-1.078v-4.157c.43.598 1.41 1.532 2.938 1.532 2.75 0 5.164-2.32 5.164-5.403 0-3.035-2.247-5.379-4.852-5.379-2.102 0-3.227 1.508-3.297 1.602v-1.602l-3.324.266v.691c1.676 0 1.816.168 1.816 1.22v11.23c0 1.078-.261 1.078-1.816 1.078v.691c.621-.047 1.914-.047 2.582-.047.691 0 1.984 0 2.606.047zm-1.817-11.567c0-.453 0-.48.262-.859.718-1.078 1.886-1.531 2.797-1.531 1.793 0 3.226 2.175 3.226 4.851 0 2.844-1.625 4.922-3.465 4.922a2.83 2.83 0 0 1-1.914-.762c-.547-.55-.906-1.03-.906-1.699zm18.285 1.243c0-1.29 0-2.247-1.05-3.18-.837-.762-1.915-1.098-2.965-1.098-1.957 0-3.465 1.29-3.465 2.844 0 .691.453 1.027 1.004 1.027.574 0 .98-.406.98-.98 0-.98-.86-.98-1.219-.98.551-1.005 1.696-1.434 2.653-1.434 1.097 0 2.507.91 2.507 3.058v.957c-4.8.07-6.617 2.078-6.617 3.918 0 1.891 2.2 2.489 3.657 2.489 1.574 0 2.652-.957 3.105-2.106.094 1.125.836 1.985 1.863 1.985.504 0 1.887-.336 1.887-2.247v-1.34h-.523v1.34c0 1.364-.575 1.555-.907 1.555-.91 0-.91-1.27-.91-1.625zm-1.554 3.01c0 2.34-1.742 3.13-2.769 3.13-1.172 0-2.152-.86-2.152-2.009 0-3.152 4.062-3.441 4.921-3.488zm35.675-11.327c.215-.883.313-.93 1.243-.93h3.109c2.699 0 2.699 2.293 2.699 2.508 0 1.934-1.937 4.399-5.09 4.399h-3.441zm4.039 6.164c2.606-.476 4.969-2.293 4.969-4.492 0-1.863-1.648-3.297-4.348-3.297h-7.667c-.458 0-.672 0-.672.453 0 .242.214.242.574.242 1.457 0 1.457.188 1.457.454 0 .046 0 .191-.094.546l-3.226 12.86c-.215.836-.262 1.074-1.938 1.074-.453 0-.691 0-.691.43 0 .261.144.261.621.261h8.195c3.656 0 6.477-2.77 6.477-5.183 0-1.961-1.719-3.156-3.657-3.348m-3.394 7.84h-3.223c-.336 0-.383 0-.527-.023-.262-.024-.285-.075-.285-.262 0-.168.047-.313.093-.527l1.672-6.739h4.493c2.82 0 2.82 2.63 2.82 2.82 0 2.294-2.078 4.731-5.043 4.731M46.336-150.406c0-.434 0-.551-.238-.551-.192 0-.645.523-.813.738-.738-.594-1.48-.738-2.246-.738-2.89 0-3.75 1.574-3.75 2.891 0 .261 0 1.097.906 1.933.766.672 1.578.84 2.68 1.055 1.313.262 1.625.332 2.219.812.43.36.742.883.742 1.551 0 1.027-.598 2.176-2.7 2.176-1.577 0-2.722-.906-3.25-3.297-.097-.43-.097-.453-.12-.477-.047-.097-.141-.097-.215-.097-.262 0-.262.121-.262.551v3.25c0 .429 0 .546.238.546.121 0 .145-.023.551-.527.117-.164.117-.211.477-.594.906 1.121 2.199 1.121 2.605 1.121 2.508 0 3.75-1.382 3.75-3.273 0-1.289-.785-2.055-1.004-2.269-.86-.739-1.504-.883-3.082-1.172-.715-.141-2.46-.477-2.46-1.911 0-.742.503-1.839 2.652-1.839 2.605 0 2.75 2.222 2.797 2.964.023.192.19.192.261.192.262 0 .262-.121.262-.551zm10.016 1.265c-.29 0-1.172 0-1.172.977 0 .574.406.98.98.98.55 0 1.004-.332 1.004-1.027 0-1.602-1.672-2.746-3.61-2.746-2.796 0-5.019 2.484-5.019 5.496 0 3.059 2.293 5.398 4.996 5.398 3.157 0 3.871-2.867 3.871-3.082s-.168-.214-.238-.214c-.215 0-.242.07-.312.359-.524 1.695-1.817 2.41-3.106 2.41-1.457 0-3.394-1.262-3.394-4.894 0-3.969 2.03-4.95 3.226-4.95.906 0 2.223.36 2.774 1.293m10.972 2.461c0-1.289 0-2.246-1.05-3.179-.837-.762-1.915-1.098-2.965-1.098-1.957 0-3.465 1.289-3.465 2.844 0 .691.453 1.027 1.004 1.027.574 0 .98-.406.98-.98 0-.981-.86-.981-1.219-.981.551-1.004 1.696-1.433 2.653-1.433 1.097 0 2.507.91 2.507 3.058v.957c-4.8.07-6.617 2.078-6.617 3.918 0 1.891 2.2 2.484 3.657 2.484 1.574 0 2.652-.953 3.105-2.101.094 1.125.836 1.984 1.863 1.984.504 0 1.887-.336 1.887-2.246v-1.34h-.523v1.34c0 1.363-.575 1.555-.907 1.555-.91 0-.91-1.27-.91-1.625zm-1.555 3.012c0 2.34-1.742 3.129-2.769 3.129-1.172 0-2.152-.859-2.152-2.008 0-3.152 4.062-3.441 4.921-3.488zm21.165-2.437c0-2.223 0-2.891-.551-3.657-.692-.933-1.813-1.078-2.625-1.078-1.985 0-2.989 1.434-3.371 2.367-.336-1.84-1.625-2.367-3.13-2.367-2.32 0-3.226 1.985-3.417 2.461h-.028v-2.461l-3.25.266v.691c1.626 0 1.82.168 1.82 1.34v6.473c0 1.078-.265 1.078-1.82 1.078v.691c.626-.047 1.915-.047 2.582-.047.696 0 1.985 0 2.606.047v-.691c-1.531 0-1.816 0-1.816-1.078v-4.442c0-2.511 1.648-3.847 3.129-3.847 1.484 0 1.82 1.218 1.82 2.675v5.614c0 1.078-.266 1.078-1.82 1.078v.691c.624-.047 1.914-.047 2.581-.047.696 0 1.985 0 2.606.047v-.691c-1.531 0-1.816 0-1.816-1.078v-4.442c0-2.511 1.648-3.847 3.129-3.847 1.484 0 1.82 1.218 1.82 2.675v5.614c0 1.078-.266 1.078-1.82 1.078v.691c.624-.047 1.914-.047 2.581-.047.696 0 1.985 0 2.606.047v-.691c-1.195 0-1.793 0-1.816-.719zm5.757-10.778-3.324.262v.691c1.625 0 1.82.168 1.82 1.34v14.289h.524c.094-.191.766-1.387.86-1.551.55.883 1.577 1.789 3.109 1.789 2.746 0 5.16-2.316 5.16-5.398 0-3.035-2.246-5.379-4.899-5.379-1.316 0-2.437.598-3.25 1.602zm.047 8.938c0-.434 0-.481.262-.864.574-.859 1.625-1.55 2.797-1.55.719 0 3.226.285 3.226 4.875 0 1.601-.238 2.601-.812 3.464-.477.739-1.434 1.481-2.629 1.481-1.289 0-2.129-.836-2.535-1.481-.309-.503-.309-.597-.309-1.003zm13.121-7.075c0-.621-.504-1.171-1.171-1.171a1.15 1.15 0 0 0-1.149 1.148c0 .715.574 1.172 1.149 1.172.742 0 1.171-.625 1.171-1.149m-3.296 4.446v.691c1.527 0 1.742.145 1.742 1.313v6.5c0 1.078-.262 1.078-1.817 1.078v.691c.668-.047 1.817-.047 2.508-.047.266 0 1.652 0 2.465.047v-.691c-1.555 0-1.648-.121-1.648-1.051v-8.797zm14.859 3.894c0-1.289 0-2.246-1.051-3.179-.836-.762-1.91-1.098-2.961-1.098-1.961 0-3.465 1.289-3.465 2.844 0 .691.453 1.027 1.004 1.027.574 0 .981-.406.981-.98 0-.981-.864-.981-1.219-.981.547-1.004 1.695-1.433 2.648-1.433 1.102 0 2.512.91 2.512 3.058v.957c-4.805.07-6.617 2.078-6.617 3.918 0 1.891 2.195 2.484 3.652 2.484 1.578 0 2.657-.953 3.11-2.101.093 1.125.836 1.984 1.863 1.984.5 0 1.887-.336 1.887-2.246v-1.34h-.524v1.34c0 1.363-.574 1.555-.91 1.555-.91 0-.91-1.27-.91-1.625zm-1.551 3.012c0 2.34-1.742 3.129-2.773 3.129-1.168 0-2.149-.859-2.149-2.008 0-3.152 4.063-3.441 4.922-3.488zm15.988-11.352c0-.621-.504-1.171-1.171-1.171a1.15 1.15 0 0 0-1.149 1.148c0 .715.574 1.172 1.149 1.172.742 0 1.171-.625 1.171-1.149m-3.296 4.446v.691c1.527 0 1.742.145 1.742 1.313v6.5c0 1.078-.262 1.078-1.817 1.078v.691c.668-.047 1.817-.047 2.508-.047.266 0 1.652 0 2.465.047v-.691c-1.555 0-1.648-.121-1.648-1.051v-8.797zm9.75-6.309-3.325.262v.691c1.625 0 1.817.168 1.817 1.34v12.52c0 1.078-.262 1.078-1.817 1.078v.691c.668-.047 1.84-.047 2.559-.047.715 0 1.91 0 2.582.047v-.691c-1.531 0-1.816 0-1.816-1.078zm19.937 8.555c.215-.527.621-1.555 2.148-1.578v-.696c-.691.051-1.027.051-1.765.051-.504 0-.86 0-1.961-.051v.696c1.004.047 1.125.765 1.125 1.027 0 .215-.051.336-.168.621l-2.438 6.164-2.675-6.738c-.121-.332-.145-.332-.145-.453 0-.621.91-.621 1.34-.621v-.696c-.598.051-1.844.051-2.484.051-.789 0-.84 0-2.297-.051v.696c1.34 0 1.578.093 1.863.836l3.418 8.554c.121.336.168.453.453.453.168 0 .313-.046.481-.453zm10.574 1.648c0-1.289 0-2.246-1.051-3.179-.835-.762-1.914-1.098-2.964-1.098-1.957 0-3.465 1.289-3.465 2.844 0 .691.453 1.027 1.004 1.027.574 0 .98-.406.98-.98 0-.981-.859-.981-1.219-.981.551-1.004 1.696-1.433 2.653-1.433 1.097 0 2.508.91 2.508 3.058v.957c-4.801.07-6.618 2.078-6.618 3.918 0 1.891 2.2 2.484 3.657 2.484 1.574 0 2.652-.953 3.105-2.101.094 1.125.836 1.984 1.863 1.984.504 0 1.887-.336 1.887-2.246v-1.34h-.523v1.34c0 1.363-.575 1.555-.907 1.555-.91 0-.91-1.27-.91-1.625zm-1.554 3.012c0 2.34-1.743 3.129-2.774 3.129-1.168 0-2.148-.859-2.148-2.008 0-3.152 4.062-3.441 4.922-3.488zm8.14-13.215-3.32.262v.691c1.625 0 1.816.168 1.816 1.34v12.52c0 1.078-.265 1.078-1.816 1.078v.691c.668-.047 1.84-.047 2.555-.047.718 0 1.914 0 2.582.047v-.691c-1.532 0-1.817 0-1.817-1.078zm13.36 11.469c0-3.082-2.344-5.543-5.114-5.543-2.867 0-5.14 2.531-5.14 5.543 0 3.059 2.39 5.351 5.117 5.351 2.816 0 5.137-2.339 5.137-5.351m-5.114 4.824c-.886 0-1.961-.379-2.652-1.551-.649-1.074-.672-2.484-.672-3.488 0-.91 0-2.367.742-3.441a3.06 3.06 0 0 1 2.559-1.41c.93 0 1.933.429 2.578 1.363.742 1.097.742 2.605.742 3.488 0 .836 0 2.316-.621 3.441-.668 1.149-1.769 1.598-2.676 1.598m9.836-5.277c0-2.321.953-4.492 2.793-4.492.192 0 .238 0 .336.023-.191.094-.574.238-.574.883 0 .695.551.957.933.957.477 0 .958-.313.958-.957 0-.715-.649-1.387-1.676-1.387-2.032 0-2.723 2.199-2.867 2.652h-.024v-2.652l-3.203.266v.691c1.625 0 1.816.168 1.816 1.34v6.473c0 1.078-.261 1.078-1.816 1.078v.691c.672-.047 1.984-.047 2.699-.047.649 0 2.344 0 2.895.047v-.691h-.481c-1.742 0-1.789-.266-1.789-1.125zm14.262.023c.523 0 .574 0 .574-.453 0-2.414-1.293-4.66-4.183-4.66-2.723 0-4.829 2.461-4.829 5.426 0 3.152 2.438 5.468 5.09 5.468 2.844 0 3.922-2.578 3.922-3.082 0-.144-.121-.238-.265-.238-.192 0-.239.121-.286.238-.621 2.008-2.222 2.555-3.226 2.555s-3.418-.668-3.418-4.801v-.453zm-6.598-.453c.192-3.754 2.297-4.183 2.965-4.183 2.555 0 2.699 3.371 2.723 4.183zm22.813-10.324v.691c1.625 0 1.816.168 1.816 1.34v5.281c-.504-.695-1.527-1.531-2.988-1.531-2.77 0-5.16 2.344-5.16 5.402 0 3.036 2.269 5.375 4.898 5.375 1.817 0 2.867-1.195 3.203-1.648v1.648l3.367-.238v-.691c-1.625 0-1.816-.168-1.816-1.34v-14.551zm1.769 13.527c0 .43 0 .5-.336 1.024-.574.84-1.55 1.531-2.746 1.531-.625 0-3.203-.238-3.203-4.875 0-1.719.285-2.676.813-3.465.476-.742 1.433-1.48 2.629-1.48 1.48 0 2.316 1.074 2.554 1.457.289.406.289.453.289.882zm8.219-11.926c0-.621-.5-1.171-1.168-1.171-.625 0-1.148.503-1.148 1.148 0 .715.574 1.172 1.148 1.172.738 0 1.168-.625 1.168-1.149m-3.297 4.446v.691c1.528 0 1.746.145 1.746 1.313v6.5c0 1.078-.265 1.078-1.816 1.078v.691c.668-.047 1.816-.047 2.508-.047.261 0 1.648 0 2.461.047v-.691c-1.551 0-1.649-.121-1.649-1.051v-8.797zm32.703 7.621c-.836 1.41-1.648 1.89-2.797 1.961-.261.023-.453.023-.453.453 0 .144.117.238.285.238.43 0 1.508-.047 1.938-.047.691 0 1.457.047 2.125.047.144 0 .43 0 .43-.453 0-.215-.192-.238-.332-.238-.551-.047-1.004-.238-1.004-.813 0-.336.14-.597.453-1.125l1.816-3.008h6.094c.023.211.023.407.047.618.074.625.359 3.105.359 3.562 0 .719-1.219.766-1.601.766-.262 0-.528 0-.528.429 0 .262.219.262.36.262.406 0 .883-.047 1.289-.047h1.363c1.457 0 2.512.047 2.535.047.164 0 .43 0 .43-.453 0-.238-.215-.238-.574-.238-1.317 0-1.34-.215-1.41-.934l-1.458-14.91c-.046-.477-.144-.527-.406-.527-.238 0-.383.05-.597.406zm2.867-3.68 4.801-8.031.813 8.031zm42.321-2.508c-.285 0-1.172 0-1.172.977 0 .574.406.98.98.98.551 0 1.004-.332 1.004-1.027 0-1.602-1.672-2.746-3.609-2.746-2.793 0-5.02 2.484-5.02 5.496 0 3.059 2.297 5.398 4.996 5.398 3.157 0 3.872-2.867 3.872-3.082s-.168-.214-.239-.214c-.215 0-.242.07-.308.359-.528 1.695-1.821 2.41-3.11 2.41-1.457 0-3.39-1.262-3.39-4.894 0-3.969 2.031-4.95 3.222-4.95.911 0 2.227.36 2.774 1.293m12.719 3.727c0-3.082-2.344-5.543-5.114-5.543-2.867 0-5.14 2.531-5.14 5.543 0 3.059 2.39 5.351 5.117 5.351 2.816 0 5.137-2.339 5.137-5.351m-5.114 4.824c-.886 0-1.961-.379-2.652-1.551-.649-1.074-.672-2.484-.672-3.488 0-.91 0-2.367.742-3.441a3.06 3.06 0 0 1 2.559-1.41c.93 0 1.933.429 2.578 1.363.742 1.097.742 2.605.742 3.488 0 .836 0 2.316-.621 3.441-.668 1.149-1.769 1.598-2.676 1.598m16.477-5.515c0-2.223 0-2.891-.547-3.657-.695-.933-1.816-1.078-2.629-1.078-2.32 0-3.227 1.985-3.418 2.461h-.023v-2.461l-3.25.266v.691c1.625 0 1.816.168 1.816 1.34v6.473c0 1.078-.262 1.078-1.816 1.078v.691c.621-.047 1.91-.047 2.578-.047.695 0 1.984 0 2.605.047v-.691c-1.527 0-1.816 0-1.816-1.078v-4.442c0-2.511 1.648-3.847 3.133-3.847 1.48 0 1.816 1.218 1.816 2.675v5.614c0 1.078-.266 1.078-1.816 1.078v.691c.621-.047 1.91-.047 2.578-.047.695 0 1.984 0 2.605.047v-.691c-1.195 0-1.793 0-1.816-.719zm20.656-4.735h-.476l-.883 2.223c-.434-.906-1.364-2.223-3.18-2.223-2.629 0-5.113 2.246-5.113 5.402 0 3.036 2.293 5.375 4.898 5.375 1.289 0 2.344-.593 3.203-1.789v4.418c0 1.075-.261 1.075-1.816 1.075v.695c.621-.051 1.91-.051 2.582-.051.691 0 1.98 0 2.601.051v-.695c-1.527 0-1.816 0-1.816-1.075zm-1.504 7.336c0 .766-.43 1.461-.98 2.008-.86.887-1.766.957-2.125.957-1.817 0-3.227-2.246-3.227-4.899 0-2.867 1.672-4.875 3.442-4.875 1.886 0 2.89 2.055 2.89 3.297zm10.578-7.07v.691c1.625 0 1.817.168 1.817 1.34v4.277c0 2.032-1.075 3.727-2.867 3.727-1.961 0-2.079-1.125-2.079-2.391v-7.91l-3.371.266v.691c1.817 0 1.817.07 1.817 2.199v3.582c0 1.485 0 2.344.718 3.133.575.621 1.555.906 2.774.906.406 0 1.168 0 1.98-.691.696-.551 1.075-1.461 1.075-1.461v2.152l3.324-.238v-.691c-1.625 0-1.817-.168-1.817-1.34v-8.508zm14.891 4.73c.523 0 .574 0 .574-.453 0-2.414-1.293-4.66-4.183-4.66-2.723 0-4.829 2.461-4.829 5.426 0 3.152 2.438 5.468 5.09 5.468 2.844 0 3.922-2.578 3.922-3.082 0-.144-.121-.238-.265-.238-.192 0-.239.121-.286.238-.621 2.008-2.222 2.555-3.226 2.555s-3.418-.668-3.418-4.801v-.453zm-6.598-.453c.192-3.754 2.297-4.183 2.965-4.183 2.555 0 2.699 3.371 2.723 4.183zm11.953-10.586-3.32.262v.691c1.625 0 1.816.168 1.816 1.34v12.52c0 1.078-.261 1.078-1.816 1.078v.691c.668-.047 1.84-.047 2.555-.047.719 0 1.914 0 2.582.047v-.691c-1.528 0-1.817 0-1.817-1.078zm6.5 0-3.32.262v.691c1.625 0 1.816.168 1.816 1.34v12.52c0 1.078-.261 1.078-1.816 1.078v.691c.668-.047 1.84-.047 2.555-.047.719 0 1.914 0 2.582.047v-.691c-1.528 0-1.817 0-1.817-1.078zm13.461 11.469c0-3.082-2.343-5.543-5.117-5.543-2.863 0-5.137 2.531-5.137 5.543 0 3.059 2.391 5.351 5.114 5.351 2.82 0 5.14-2.339 5.14-5.351m-5.117 4.824c-.883 0-1.957-.379-2.652-1.551-.645-1.074-.668-2.484-.668-3.488 0-.91 0-2.367.738-3.441a3.07 3.07 0 0 1 2.559-1.41c.933 0 1.937.429 2.582 1.363.742 1.097.742 2.605.742 3.488 0 .836 0 2.316-.621 3.441-.668 1.149-1.77 1.598-2.68 1.598m20.817-16.031v.691c1.625 0 1.816.168 1.816 1.34v5.281c-.504-.695-1.531-1.531-2.988-1.531-2.77 0-5.16 2.344-5.16 5.402 0 3.036 2.269 5.375 4.898 5.375 1.816 0 2.867-1.195 3.203-1.648v1.648l3.367-.238v-.691c-1.625 0-1.816-.168-1.816-1.34v-14.551zm1.769 13.527c0 .43 0 .5-.336 1.024-.574.84-1.555 1.531-2.75 1.531-.621 0-3.199-.238-3.199-4.875 0-1.719.285-2.676.812-3.465.477-.742 1.43-1.48 2.629-1.48 1.481 0 2.317 1.074 2.555 1.457.289.406.289.453.289.882zm8.219-11.926c0-.621-.5-1.171-1.168-1.171-.625 0-1.149.503-1.149 1.148 0 .715.575 1.172 1.149 1.172.738 0 1.168-.625 1.168-1.149m-3.297 4.446v.691c1.527 0 1.742.145 1.742 1.313v6.5c0 1.078-.262 1.078-1.812 1.078v.691c.668-.047 1.812-.047 2.507-.047.262 0 1.649 0 2.461.047v-.691c-1.554 0-1.648-.121-1.648-1.051v-8.797zm37.387-4.422c.215-.887.308-.934 1.242-.934h3.105c2.7 0 2.7 2.297 2.7 2.512 0 1.934-1.934 4.395-5.09 4.395h-3.442zm4.035 6.164c2.605-.477 4.972-2.293 4.972-4.492 0-1.864-1.648-3.297-4.347-3.297h-7.672c-.453 0-.668 0-.668.453 0 .238.215.238.57.238 1.457 0 1.457.192 1.457.453 0 .051 0 .196-.093.551l-3.227 12.856c-.215.84-.262 1.078-1.934 1.078-.457 0-.695 0-.695.429 0 .262.145.262.621.262h8.199c3.657 0 6.477-2.769 6.477-5.183 0-1.961-1.723-3.157-3.66-3.348m-3.391 7.84h-3.226c-.336 0-.383 0-.528-.024-.261-.023-.285-.074-.285-.265 0-.164.047-.309.094-.524l1.676-6.738h4.492c2.82 0 2.82 2.629 2.82 2.816 0 2.297-2.082 4.735-5.043 4.735M20.836-238.707c0-.434 0-.551-.238-.551-.192 0-.645.524-.813.742-.738-.597-1.48-.742-2.246-.742-2.89 0-3.75 1.578-3.75 2.891 0 .265 0 1.101.906 1.937.766.668 1.578.836 2.68 1.051 1.313.262 1.625.332 2.219.813.43.359.742.882.742 1.55 0 1.032-.598 2.176-2.7 2.176-1.577 0-2.722-.906-3.25-3.297-.097-.429-.097-.453-.12-.476-.047-.098-.141-.098-.215-.098-.262 0-.262.121-.262.551v3.25c0 .43 0 .551.238.551.121 0 .145-.024.551-.528.117-.168.117-.215.477-.597.906 1.125 2.199 1.125 2.605 1.125 2.508 0 3.75-1.387 3.75-3.274 0-1.293-.785-2.058-1.004-2.273-.86-.739-1.504-.883-3.082-1.172-.715-.141-2.46-.477-2.46-1.91 0-.739.503-1.84 2.652-1.84 2.605 0 2.75 2.223 2.797 2.965.023.191.19.191.261.191.262 0 .262-.121.262-.551zm10.516 4.562c.527 0 .574 0 .574-.453 0-2.414-1.29-4.66-4.184-4.66-2.722 0-4.824 2.461-4.824 5.426 0 3.152 2.438 5.473 5.09 5.473 2.844 0 3.918-2.582 3.918-3.086 0-.145-.121-.239-.262-.239-.191 0-.242.121-.289.239-.621 2.007-2.219 2.558-3.227 2.558-1 0-3.414-.668-3.414-4.804v-.454zm-6.594-.453c.191-3.754 2.293-4.183 2.96-4.183 2.56 0 2.704 3.371 2.727 4.183zm43.406 3.344c-.836 1.41-1.648 1.891-2.797 1.961-.265.023-.453.023-.453.453 0 .145.117.238.285.238.43 0 1.504-.046 1.934-.046.695 0 1.46.046 2.129.046.144 0 .43 0 .43-.453 0-.215-.192-.238-.333-.238-.55-.047-1.007-.238-1.007-.812 0-.336.144-.598.457-1.122l1.816-3.011h6.094c.023.215.023.406.047.621.07.621.359 3.105.359 3.558 0 .719-1.219.766-1.602.766-.265 0-.527 0-.527.43 0 .261.215.261.36.261.406 0 .882-.046 1.288-.046h1.364c1.457 0 2.508.046 2.531.046.168 0 .43 0 .43-.453 0-.238-.211-.238-.57-.238-1.317 0-1.34-.215-1.41-.934l-1.458-14.91c-.047-.476-.144-.527-.406-.527-.242 0-.383.051-.598.406zm2.867-3.68 4.801-8.031.813 8.031zm39.446-5.879.382-.359-2.843-3.68c-.121-.14-.336-.406-.672-.406-.406 0-.813.36-.813.789 0 .242.098.453.336.649zm3.375 6.668c.527 0 .574 0 .574-.453 0-2.414-1.289-4.66-4.184-4.66-2.722 0-4.824 2.461-4.824 5.426 0 3.152 2.437 5.473 5.09 5.473 2.844 0 3.918-2.582 3.918-3.086 0-.145-.121-.239-.262-.239-.191 0-.242.121-.285.239-.625 2.007-2.223 2.558-3.231 2.558-1 0-3.414-.668-3.414-4.804v-.454zm-6.594-.453c.191-3.754 2.293-4.183 2.961-4.183 2.558 0 2.703 3.371 2.726 4.183zm21.496 9.942c-1.527 0-1.816 0-1.816-1.078v-4.157c.429.598 1.41 1.532 2.941 1.532 2.75 0 5.16-2.321 5.16-5.403 0-3.035-2.246-5.379-4.851-5.379-2.102 0-3.223 1.508-3.297 1.602v-1.602l-3.321.266v.691c1.672 0 1.817.168 1.817 1.219v11.231c0 1.078-.266 1.078-1.817 1.078v.691c.621-.047 1.91-.047 2.578-.047.696 0 1.985 0 2.606.047zm-1.816-11.567c0-.453 0-.48.265-.859a3.44 3.44 0 0 1 2.793-1.531c1.793 0 3.227 2.175 3.227 4.851 0 2.844-1.625 4.922-3.465 4.922a2.8 2.8 0 0 1-1.91-.762c-.551-.55-.91-1.031-.91-1.699zm13.121-7.097c0-.621-.504-1.172-1.172-1.172-.621 0-1.145.504-1.145 1.148 0 .715.571 1.172 1.145 1.172.742 0 1.172-.625 1.172-1.148m-3.297 4.445v.691c1.527 0 1.742.145 1.742 1.317v6.5c0 1.074-.262 1.074-1.816 1.074v.691c.671-.046 1.816-.046 2.511-.046.262 0 1.649 0 2.461.046v-.691c-1.555 0-1.648-.121-1.648-1.051v-8.797zm12.715-1.938.382-.359-2.843-3.68c-.121-.14-.336-.406-.672-.406-.406 0-.813.36-.813.789 0 .242.098.453.336.649zm.187 1.938v.691c1.625 0 1.816.168 1.816 1.34v4.278c0 2.031-1.074 3.726-2.867 3.726-1.961 0-2.078-1.125-2.078-2.387v-7.914l-3.371.266v.691c1.816 0 1.816.075 1.816 2.2v3.586c0 1.48 0 2.339.719 3.128.574.622 1.555.911 2.77.911.41 0 1.172 0 1.984-.696.695-.547 1.074-1.457 1.074-1.457v2.153l3.325-.243v-.691c-1.625 0-1.817-.168-1.817-1.34v-8.508zm16.379 5.949c1.125.742 2.078.742 2.344.742 2.148 0 3.75-1.625 3.75-3.464 0-.649-.192-1.555-.957-2.321.933-.953 2.054-.953 2.175-.953.098 0 .215 0 .313.047-.238.094-.359.336-.359.598 0 .332.238.621.621.621.191 0 .621-.121.621-.645 0-.433-.336-1.101-1.172-1.101-1.242 0-2.176.765-2.508 1.125-.715-.551-1.555-.864-2.461-.864-2.152 0-3.754 1.625-3.754 3.469 0 1.359.836 2.246 1.078 2.457-.289.363-.718 1.055-.718 1.988 0 1.383.836 1.981 1.027 2.102-1.098.309-2.199 1.172-2.199 2.41 0 1.652 2.25 3.012 5.187 3.012 2.844 0 5.211-1.266 5.211-3.055 0-.601-.168-2.008-1.601-2.75-1.219-.621-2.414-.621-4.469-.621-1.457 0-1.625 0-2.055-.453-.238-.238-.457-.695-.457-1.195 0-.407.145-.813.383-1.149m2.367.238c-2.105 0-2.105-2.414-2.105-2.96 0-.43 0-1.411.41-2.055a2.03 2.03 0 0 1 1.672-.934c2.101 0 2.101 2.414 2.101 2.965 0 .43 0 1.406-.406 2.055a2.04 2.04 0 0 1-1.672.929m.645 8.485c-2.293 0-4.039-1.168-4.039-2.531 0-.192.047-1.125.957-1.746.523-.336.742-.336 2.414-.336 1.98 0 4.683 0 4.683 2.082 0 1.406-1.816 2.531-4.015 2.531m9.836-9.965c0-2.316.957-4.492 2.797-4.492.191 0 .238 0 .335.023-.195.098-.574.239-.574.883 0 .695.547.957.93.957.48 0 .957-.312.957-.957 0-.715-.645-1.387-1.672-1.387-2.031 0-2.726 2.2-2.867 2.657h-.024v-2.657l-3.203.266v.691c1.625 0 1.817.168 1.817 1.34v6.477c0 1.074-.266 1.074-1.817 1.074v.691c.668-.046 1.985-.046 2.7-.046.644 0 2.339 0 2.89.046v-.691h-.476c-1.746 0-1.793-.262-1.793-1.121zm14.332-.812c0-1.29 0-2.247-1.051-3.18-.836-.762-1.91-1.098-2.961-1.098-1.961 0-3.469 1.289-3.469 2.844 0 .691.457 1.027 1.004 1.027.574 0 .981-.406.981-.98 0-.981-.86-.981-1.219-.981.551-1.004 1.699-1.433 2.652-1.433 1.102 0 2.512.91 2.512 3.058v.957c-4.805.071-6.621 2.078-6.621 3.918 0 1.891 2.199 2.489 3.656 2.489 1.578 0 2.652-.957 3.106-2.106.097 1.125.835 1.985 1.867 1.985.5 0 1.886-.336 1.886-2.247v-1.339h-.527v1.339c0 1.364-.57 1.555-.906 1.555-.91 0-.91-1.269-.91-1.625zm-1.551 3.011c0 2.34-1.746 3.129-2.774 3.129-1.171 0-2.152-.859-2.152-2.008 0-3.152 4.067-3.441 4.926-3.488zm14.664-2.437c0-2.223 0-2.891-.551-3.657-.695-.933-1.816-1.078-2.629-1.078-2.316 0-3.226 1.985-3.418 2.465h-.023v-2.465l-3.25.266v.691c1.625 0 1.816.168 1.816 1.34v6.477c0 1.074-.261 1.074-1.816 1.074v.691c.621-.046 1.914-.046 2.582-.046.691 0 1.984 0 2.601.046v-.691c-1.527 0-1.812 0-1.812-1.074v-4.446c0-2.507 1.648-3.847 3.129-3.847 1.48 0 1.816 1.219 1.816 2.676v5.617c0 1.074-.265 1.074-1.816 1.074v.691c.621-.046 1.914-.046 2.582-.046.691 0 1.98 0 2.601.046v-.691c-1.195 0-1.789 0-1.812-.715zm9.531-10.516v.695c1.625 0 1.821.164 1.821 1.336v5.282c-.504-.692-1.532-1.532-2.989-1.532-2.773 0-5.164 2.344-5.164 5.403 0 3.035 2.27 5.379 4.903 5.379 1.816 0 2.867-1.196 3.199-1.649v1.649l3.371-.243v-.691c-1.625 0-1.817-.168-1.817-1.34v-14.551zm1.77 13.527c0 .43 0 .5-.332 1.028-.575.836-1.555 1.527-2.75 1.527-.621 0-3.203-.238-3.203-4.875 0-1.719.289-2.676.812-3.465.477-.742 1.434-1.48 2.629-1.48 1.48 0 2.316 1.074 2.559 1.457.285.406.285.457.285.883zm13.215-2.75c.527 0 .574 0 .574-.453 0-2.414-1.289-4.66-4.184-4.66-2.722 0-4.824 2.461-4.824 5.426 0 3.152 2.437 5.473 5.09 5.473 2.844 0 3.918-2.582 3.918-3.086 0-.145-.121-.239-.262-.239-.191 0-.242.121-.285.239-.625 2.007-2.223 2.558-3.231 2.558-1 0-3.414-.668-3.414-4.804v-.454zm-6.594-.453c.191-3.754 2.293-4.183 2.961-4.183 2.558 0 2.703 3.371 2.726 4.183zm22.812-10.324v.695c1.625 0 1.817.164 1.817 1.336v5.282c-.504-.692-1.532-1.532-2.989-1.532-2.769 0-5.164 2.344-5.164 5.403 0 3.035 2.274 5.379 4.903 5.379 1.816 0 2.867-1.196 3.203-1.649v1.649l3.367-.243v-.691c-1.625 0-1.816-.168-1.816-1.34v-14.551zm1.77 13.527c0 .43 0 .5-.336 1.028-.574.836-1.555 1.527-2.75 1.527-.621 0-3.199-.238-3.199-4.875 0-1.719.285-2.676.812-3.465.477-.742 1.43-1.48 2.625-1.48 1.485 0 2.321 1.074 2.559 1.457.289.406.289.457.289.883zm8.219-11.925c0-.621-.504-1.172-1.172-1.172-.621 0-1.145.504-1.145 1.148 0 .715.571 1.172 1.145 1.172.742 0 1.172-.625 1.172-1.148m-3.297 4.445v.691c1.527 0 1.742.145 1.742 1.317v6.5c0 1.074-.262 1.074-1.816 1.074v.691c.671-.046 1.816-.046 2.511-.046.262 0 1.649 0 2.461.046v-.691c-1.555 0-1.648-.121-1.648-1.051v-8.797zm37.386-4.422c.211-.883.309-.93 1.243-.93h3.105c2.699 0 2.699 2.293 2.699 2.508 0 1.934-1.937 4.399-5.09 4.399h-3.441zm4.036 6.164c2.605-.476 4.972-2.293 4.972-4.488 0-1.867-1.648-3.301-4.351-3.301h-7.668c-.457 0-.672 0-.672.453 0 .242.215.242.574.242 1.457 0 1.457.188 1.457.454 0 .046 0 .191-.094.546l-3.226 12.86c-.215.836-.262 1.074-1.934 1.074-.457 0-.695 0-.695.43 0 .261.144.261.621.261h8.199c3.656 0 6.473-2.769 6.473-5.183 0-1.961-1.719-3.156-3.656-3.348m-3.395 7.84h-3.223c-.336 0-.382 0-.527-.023-.262-.024-.285-.075-.285-.262 0-.168.047-.313.094-.527l1.675-6.739h4.493c2.82 0 2.82 2.629 2.82 2.821 0 2.293-2.082 4.73-5.047 4.73m45.223-8.914h2.699v-.691h-2.746v-2.797c0-2.149 1.098-3.25 2.078-3.25.191 0 .547.047.836.191-.098.024-.695.238-.695.934 0 .547.382.929.933.929.574 0 .957-.382.957-.953 0-.886-.859-1.578-2.008-1.578-1.675 0-3.562 1.289-3.562 3.727v2.797h-1.863v.691h1.863v7.84c0 1.074-.262 1.074-1.816 1.074v.691c.671-.046 1.984-.046 2.703-.046.644 0 2.339 0 2.89.046v-.691h-.476c-1.746 0-1.793-.262-1.793-1.121zm12.312 3.227c0-1.29 0-2.247-1.051-3.18-.835-.762-1.914-1.098-2.964-1.098-1.957 0-3.465 1.289-3.465 2.844 0 .691.453 1.027 1.004 1.027.574 0 .98-.406.98-.98 0-.981-.859-.981-1.219-.981.551-1.004 1.696-1.433 2.653-1.433 1.097 0 2.508.91 2.508 3.058v.957c-4.801.071-6.618 2.078-6.618 3.918 0 1.891 2.2 2.489 3.657 2.489 1.574 0 2.652-.957 3.105-2.106.094 1.125.836 1.985 1.863 1.985.504 0 1.887-.336 1.887-2.247v-1.339h-.523v1.339c0 1.364-.575 1.555-.907 1.555-.91 0-.91-1.269-.91-1.625zm-1.554 3.011c0 2.34-1.743 3.129-2.774 3.129-1.168 0-2.148-.859-2.148-2.008 0-3.152 4.062-3.441 4.922-3.488zm8.187-11.351c0-.621-.5-1.172-1.168-1.172-.625 0-1.148.504-1.148 1.148 0 .715.574 1.172 1.148 1.172.738 0 1.168-.625 1.168-1.148m-3.297 4.445v.691c1.528 0 1.746.145 1.746 1.317v6.5c0 1.074-.265 1.074-1.816 1.074v.691c.668-.046 1.816-.046 2.508-.046.261 0 1.648 0 2.461.046v-.691c-1.551 0-1.649-.121-1.649-1.051v-8.797zm10.035 1.121c0-.644-.547-1.144-1.144-1.144-.696 0-1.172.546-1.172 1.144 0 .719.598 1.172 1.148 1.172.645 0 1.168-.5 1.168-1.172m0 7.984c0-.644-.547-1.148-1.144-1.148-.696 0-1.172.551-1.172 1.148 0 .715.598 1.168 1.148 1.168.645 0 1.168-.5 1.168-1.168M46.336-352.406c0-.434 0-.551-.238-.551-.192 0-.645.523-.813.738-.738-.594-1.48-.738-2.246-.738-2.89 0-3.75 1.574-3.75 2.891 0 .261 0 1.097.906 1.933.766.672 1.578.84 2.68 1.055 1.313.262 1.625.332 2.219.812.43.36.742.883.742 1.551 0 1.027-.598 2.176-2.7 2.176-1.577 0-2.722-.906-3.25-3.297-.097-.43-.097-.453-.12-.477-.047-.097-.141-.097-.215-.097-.262 0-.262.121-.262.551v3.25c0 .429 0 .546.238.546.121 0 .145-.023.551-.527.117-.164.117-.211.477-.594.906 1.121 2.199 1.121 2.605 1.121 2.508 0 3.75-1.382 3.75-3.273 0-1.289-.785-2.055-1.004-2.269-.86-.739-1.504-.883-3.082-1.172-.715-.141-2.46-.477-2.46-1.911 0-.742.503-1.839 2.652-1.839 2.605 0 2.75 2.222 2.797 2.964.023.192.19.192.261.192.262 0 .262-.121.262-.551zm10.016 1.265c-.29 0-1.172 0-1.172.977 0 .574.406.98.98.98.55 0 1.004-.332 1.004-1.027 0-1.602-1.672-2.746-3.61-2.746-2.796 0-5.019 2.484-5.019 5.496 0 3.059 2.293 5.398 4.996 5.398 3.157 0 3.871-2.867 3.871-3.082s-.168-.214-.238-.214c-.215 0-.242.07-.312.359-.524 1.695-1.817 2.41-3.106 2.41-1.457 0-3.394-1.262-3.394-4.894 0-3.969 2.03-4.95 3.226-4.95.906 0 2.223.36 2.774 1.293m10.972 2.461c0-1.289 0-2.246-1.05-3.179-.837-.762-1.915-1.098-2.965-1.098-1.957 0-3.465 1.289-3.465 2.844 0 .691.453 1.027 1.004 1.027.574 0 .98-.406.98-.98 0-.981-.86-.981-1.219-.981.551-1.004 1.696-1.433 2.653-1.433 1.097 0 2.507.91 2.507 3.058v.957c-4.8.07-6.617 2.078-6.617 3.918 0 1.891 2.2 2.484 3.657 2.484 1.574 0 2.652-.953 3.105-2.101.094 1.125.836 1.984 1.863 1.984.504 0 1.887-.336 1.887-2.246v-1.34h-.523v1.34c0 1.363-.575 1.555-.907 1.555-.91 0-.91-1.27-.91-1.625zm-1.555 3.012c0 2.34-1.742 3.129-2.769 3.129-1.172 0-2.152-.859-2.152-2.008 0-3.152 4.062-3.441 4.921-3.488zm21.165-2.437c0-2.223 0-2.891-.551-3.657-.692-.933-1.813-1.078-2.625-1.078-1.985 0-2.989 1.434-3.371 2.367-.336-1.84-1.625-2.367-3.13-2.367-2.32 0-3.226 1.985-3.417 2.461h-.028v-2.461l-3.25.266v.691c1.626 0 1.82.168 1.82 1.34v6.473c0 1.078-.265 1.078-1.82 1.078v.691c.626-.047 1.915-.047 2.582-.047.696 0 1.985 0 2.606.047v-.691c-1.531 0-1.816 0-1.816-1.078v-4.442c0-2.511 1.648-3.847 3.129-3.847 1.484 0 1.82 1.218 1.82 2.675v5.614c0 1.078-.266 1.078-1.82 1.078v.691c.624-.047 1.914-.047 2.581-.047.696 0 1.985 0 2.606.047v-.691c-1.531 0-1.816 0-1.816-1.078v-4.442c0-2.511 1.648-3.847 3.129-3.847 1.484 0 1.82 1.218 1.82 2.675v5.614c0 1.078-.266 1.078-1.82 1.078v.691c.624-.047 1.914-.047 2.581-.047.696 0 1.985 0 2.606.047v-.691c-1.195 0-1.793 0-1.816-.719zm5.757-10.778-3.324.262v.691c1.625 0 1.82.168 1.82 1.34v14.289h.524c.094-.191.766-1.387.86-1.551.55.883 1.577 1.789 3.109 1.789 2.746 0 5.16-2.316 5.16-5.398 0-3.035-2.246-5.379-4.899-5.379-1.316 0-2.437.598-3.25 1.602zm.047 8.938c0-.434 0-.481.262-.864.574-.859 1.625-1.55 2.797-1.55.719 0 3.226.285 3.226 4.875 0 1.601-.238 2.601-.812 3.464-.477.739-1.434 1.481-2.629 1.481-1.289 0-2.129-.836-2.535-1.481-.309-.503-.309-.597-.309-1.003zm13.121-7.075c0-.621-.504-1.171-1.171-1.171a1.15 1.15 0 0 0-1.149 1.148c0 .715.574 1.172 1.149 1.172.742 0 1.171-.625 1.171-1.149m-3.296 4.446v.691c1.527 0 1.742.145 1.742 1.313v6.5c0 1.078-.262 1.078-1.817 1.078v.691c.668-.047 1.817-.047 2.508-.047.266 0 1.652 0 2.465.047v-.691c-1.555 0-1.648-.121-1.648-1.051v-8.797zm14.859 3.894c0-1.289 0-2.246-1.051-3.179-.836-.762-1.91-1.098-2.961-1.098-1.961 0-3.465 1.289-3.465 2.844 0 .691.453 1.027 1.004 1.027.574 0 .981-.406.981-.98 0-.981-.864-.981-1.219-.981.547-1.004 1.695-1.433 2.648-1.433 1.102 0 2.512.91 2.512 3.058v.957c-4.805.07-6.617 2.078-6.617 3.918 0 1.891 2.195 2.484 3.652 2.484 1.578 0 2.657-.953 3.11-2.101.093 1.125.836 1.984 1.863 1.984.5 0 1.887-.336 1.887-2.246v-1.34h-.524v1.34c0 1.363-.574 1.555-.91 1.555-.91 0-.91-1.27-.91-1.625zm-1.551 3.012c0 2.34-1.742 3.129-2.773 3.129-1.168 0-2.149-.859-2.149-2.008 0-3.152 4.063-3.441 4.922-3.488zm15.988-11.352c0-.621-.504-1.171-1.171-1.171a1.15 1.15 0 0 0-1.149 1.148c0 .715.574 1.172 1.149 1.172.742 0 1.171-.625 1.171-1.149m-3.296 4.446v.691c1.527 0 1.742.145 1.742 1.313v6.5c0 1.078-.262 1.078-1.817 1.078v.691c.668-.047 1.817-.047 2.508-.047.266 0 1.652 0 2.465.047v-.691c-1.555 0-1.648-.121-1.648-1.051v-8.797zm9.75-6.309-3.325.262v.691c1.625 0 1.817.168 1.817 1.34v12.52c0 1.078-.262 1.078-1.817 1.078v.691c.668-.047 1.84-.047 2.559-.047.715 0 1.91 0 2.582.047v-.691c-1.531 0-1.816 0-1.816-1.078zm19.937 8.555c.215-.527.621-1.555 2.148-1.578v-.696c-.691.051-1.027.051-1.765.051-.504 0-.86 0-1.961-.051v.696c1.004.047 1.125.765 1.125 1.027 0 .215-.051.336-.168.621l-2.438 6.164-2.675-6.738c-.121-.332-.145-.332-.145-.453 0-.621.91-.621 1.34-.621v-.696c-.598.051-1.844.051-2.484.051-.789 0-.84 0-2.297-.051v.696c1.34 0 1.578.093 1.863.836l3.418 8.554c.121.336.168.453.453.453.168 0 .313-.046.481-.453zm10.574 1.648c0-1.289 0-2.246-1.051-3.179-.835-.762-1.914-1.098-2.964-1.098-1.957 0-3.465 1.289-3.465 2.844 0 .691.453 1.027 1.004 1.027.574 0 .98-.406.98-.98 0-.981-.859-.981-1.219-.981.551-1.004 1.696-1.433 2.653-1.433 1.097 0 2.508.91 2.508 3.058v.957c-4.801.07-6.618 2.078-6.618 3.918 0 1.891 2.2 2.484 3.657 2.484 1.574 0 2.652-.953 3.105-2.101.094 1.125.836 1.984 1.863 1.984.504 0 1.887-.336 1.887-2.246v-1.34h-.523v1.34c0 1.363-.575 1.555-.907 1.555-.91 0-.91-1.27-.91-1.625zm-1.554 3.012c0 2.34-1.743 3.129-2.774 3.129-1.168 0-2.148-.859-2.148-2.008 0-3.152 4.062-3.441 4.922-3.488zm8.14-13.215-3.32.262v.691c1.625 0 1.816.168 1.816 1.34v12.52c0 1.078-.265 1.078-1.816 1.078v.691c.668-.047 1.84-.047 2.555-.047.718 0 1.914 0 2.582.047v-.691c-1.532 0-1.817 0-1.817-1.078zm13.36 11.469c0-3.082-2.344-5.543-5.114-5.543-2.867 0-5.14 2.531-5.14 5.543 0 3.059 2.39 5.351 5.117 5.351 2.816 0 5.137-2.339 5.137-5.351m-5.114 4.824c-.886 0-1.961-.379-2.652-1.551-.649-1.074-.672-2.484-.672-3.488 0-.91 0-2.367.742-3.441a3.06 3.06 0 0 1 2.559-1.41c.93 0 1.933.429 2.578 1.363.742 1.097.742 2.605.742 3.488 0 .836 0 2.316-.621 3.441-.668 1.149-1.769 1.598-2.676 1.598m9.836-5.277c0-2.321.953-4.492 2.793-4.492.192 0 .238 0 .336.023-.191.094-.574.238-.574.883 0 .695.551.957.933.957.477 0 .958-.313.958-.957 0-.715-.649-1.387-1.676-1.387-2.032 0-2.723 2.199-2.867 2.652h-.024v-2.652l-3.203.266v.691c1.625 0 1.816.168 1.816 1.34v6.473c0 1.078-.261 1.078-1.816 1.078v.691c.672-.047 1.984-.047 2.699-.047.649 0 2.344 0 2.895.047v-.691h-.481c-1.742 0-1.789-.266-1.789-1.125zm14.262.023c.523 0 .574 0 .574-.453 0-2.414-1.293-4.66-4.183-4.66-2.723 0-4.829 2.461-4.829 5.426 0 3.152 2.438 5.468 5.09 5.468 2.844 0 3.922-2.578 3.922-3.082 0-.144-.121-.238-.265-.238-.192 0-.239.121-.286.238-.621 2.008-2.222 2.555-3.226 2.555s-3.418-.668-3.418-4.801v-.453zm-6.598-.453c.192-3.754 2.297-4.183 2.965-4.183 2.555 0 2.699 3.371 2.723 4.183zm22.813-10.324v.691c1.625 0 1.816.168 1.816 1.34v5.281c-.504-.695-1.527-1.531-2.988-1.531-2.77 0-5.16 2.344-5.16 5.402 0 3.036 2.269 5.375 4.898 5.375 1.817 0 2.867-1.195 3.203-1.648v1.648l3.367-.238v-.691c-1.625 0-1.816-.168-1.816-1.34v-14.551zm1.769 13.527c0 .43 0 .5-.336 1.024-.574.84-1.55 1.531-2.746 1.531-.625 0-3.203-.238-3.203-4.875 0-1.719.285-2.676.813-3.465.476-.742 1.433-1.48 2.629-1.48 1.48 0 2.316 1.074 2.554 1.457.289.406.289.453.289.882zm8.219-11.926c0-.621-.5-1.171-1.168-1.171-.625 0-1.148.503-1.148 1.148 0 .715.574 1.172 1.148 1.172.738 0 1.168-.625 1.168-1.149m-3.297 4.446v.691c1.528 0 1.746.145 1.746 1.313v6.5c0 1.078-.265 1.078-1.816 1.078v.691c.668-.047 1.816-.047 2.508-.047.261 0 1.648 0 2.461.047v-.691c-1.551 0-1.649-.121-1.649-1.051v-8.797zm37.387-4.422c.215-.887.308-.934 1.242-.934h3.106c2.699 0 2.699 2.297 2.699 2.512 0 1.934-1.934 4.395-5.086 4.395h-3.445zm4.039 6.164c2.602-.477 4.969-2.293 4.969-4.492 0-1.864-1.649-3.297-4.348-3.297h-7.672c-.453 0-.668 0-.668.453 0 .238.215.238.571.238 1.46 0 1.46.192 1.46.453 0 .051 0 .196-.097.551l-3.227 12.856c-.215.84-.261 1.078-1.933 1.078-.453 0-.696 0-.696.429 0 .262.145.262.625.262h8.196c3.656 0 6.476-2.769 6.476-5.183 0-1.961-1.722-3.157-3.656-3.348m-3.395 7.84h-3.226c-.332 0-.383 0-.527-.024-.262-.023-.286-.074-.286-.265 0-.164.047-.309.094-.524l1.676-6.738h4.492c2.82 0 2.82 2.629 2.82 2.816 0 2.297-2.078 4.735-5.043 4.735m41.258-8.149c-.285 0-1.168 0-1.168.977 0 .574.407.98.977.98.551 0 1.004-.332 1.004-1.027 0-1.602-1.672-2.746-3.606-2.746-2.797 0-5.019 2.484-5.019 5.496 0 3.059 2.293 5.398 4.996 5.398 3.152 0 3.871-2.867 3.871-3.082s-.168-.214-.242-.214c-.215 0-.239.07-.309.359-.527 1.695-1.816 2.41-3.109 2.41-1.457 0-3.391-1.262-3.391-4.894 0-3.969 2.031-4.95 3.227-4.95.906 0 2.222.36 2.769 1.293m12.719 3.727c0-3.082-2.34-5.543-5.113-5.543-2.867 0-5.137 2.531-5.137 5.543 0 3.059 2.387 5.351 5.113 5.351 2.821 0 5.137-2.339 5.137-5.351m-5.113 4.824c-.883 0-1.961-.379-2.653-1.551-.644-1.074-.668-2.484-.668-3.488 0-.91 0-2.367.739-3.441a3.06 3.06 0 0 1 2.558-1.41c.934 0 1.938.429 2.578 1.363.743 1.097.743 2.605.743 3.488 0 .836 0 2.316-.622 3.441-.667 1.149-1.765 1.598-2.675 1.598m16.48-5.515c0-2.223 0-2.891-.551-3.657-.695-.933-1.816-1.078-2.629-1.078-2.316 0-3.226 1.985-3.417 2.461h-.024v-2.461l-3.25.266v.691c1.625 0 1.816.168 1.816 1.34v6.473c0 1.078-.261 1.078-1.816 1.078v.691c.621-.047 1.914-.047 2.582-.047.692 0 1.984 0 2.606.047v-.691c-1.532 0-1.817 0-1.817-1.078v-4.442c0-2.511 1.649-3.847 3.129-3.847 1.484 0 1.816 1.218 1.816 2.675v5.614c0 1.078-.261 1.078-1.816 1.078v.691c.621-.047 1.914-.047 2.582-.047.692 0 1.981 0 2.606.047v-.691c-1.196 0-1.793 0-1.817-.719zm20.656-4.735h-.476l-.887 2.223c-.43-.906-1.359-2.223-3.18-2.223-2.625 0-5.113 2.246-5.113 5.402 0 3.036 2.293 5.375 4.903 5.375 1.289 0 2.339-.593 3.199-1.789v4.418c0 1.075-.262 1.075-1.817 1.075v.695c.621-.051 1.914-.051 2.582-.051.692 0 1.985 0 2.606.051v-.695c-1.531 0-1.817 0-1.817-1.075zm-1.503 7.336c0 .766-.434 1.461-.985 2.008-.859.887-1.765.957-2.125.957-1.816 0-3.226-2.246-3.226-4.899 0-2.867 1.671-4.875 3.441-4.875 1.887 0 2.895 2.055 2.895 3.297zm10.675-7.07v.691c1.625 0 1.817.168 1.817 1.34v4.277c0 2.032-1.075 3.727-2.867 3.727-1.961 0-2.079-1.125-2.079-2.391v-7.91l-3.371.266v.691c1.817 0 1.817.07 1.817 2.199v3.582c0 1.485 0 2.344.718 3.133.575.621 1.555.906 2.774.906.406 0 1.168 0 1.98-.691.696-.551 1.075-1.461 1.075-1.461v2.152l3.324-.238v-.691c-1.625 0-1.817-.168-1.817-1.34v-8.508zm14.891 4.73c.523 0 .574 0 .574-.453 0-2.414-1.293-4.66-4.183-4.66-2.723 0-4.829 2.461-4.829 5.426 0 3.152 2.438 5.468 5.09 5.468 2.844 0 3.922-2.578 3.922-3.082 0-.144-.121-.238-.265-.238-.192 0-.239.121-.286.238-.621 2.008-2.222 2.555-3.226 2.555s-3.418-.668-3.418-4.801v-.453zm-6.598-.453c.192-3.754 2.297-4.183 2.965-4.183 2.555 0 2.699 3.371 2.723 4.183zm11.953-10.586-3.32.262v.691c1.625 0 1.816.168 1.816 1.34v12.52c0 1.078-.261 1.078-1.816 1.078v.691c.668-.047 1.84-.047 2.555-.047.719 0 1.914 0 2.582.047v-.691c-1.528 0-1.817 0-1.817-1.078zm6.5 0-3.32.262v.691c1.625 0 1.816.168 1.816 1.34v12.52c0 1.078-.261 1.078-1.816 1.078v.691c.668-.047 1.84-.047 2.555-.047.719 0 1.914 0 2.582.047v-.691c-1.528 0-1.817 0-1.817-1.078zm13.36 11.469c0-3.082-2.34-5.543-5.114-5.543-2.867 0-5.136 2.531-5.136 5.543 0 3.059 2.386 5.351 5.113 5.351 2.816 0 5.137-2.339 5.137-5.351m-5.114 4.824c-.886 0-1.96-.379-2.652-1.551-.648-1.074-.672-2.484-.672-3.488 0-.91 0-2.367.742-3.441a3.06 3.06 0 0 1 2.559-1.41c.93 0 1.934.429 2.578 1.363.742 1.097.742 2.605.742 3.488 0 .836 0 2.316-.621 3.441-.668 1.149-1.769 1.598-2.676 1.598m20.813-16.031v.691c1.625 0 1.816.168 1.816 1.34v5.281c-.5-.695-1.527-1.531-2.988-1.531-2.769 0-5.16 2.344-5.16 5.402 0 3.036 2.269 5.375 4.898 5.375 1.817 0 2.868-1.195 3.204-1.648v1.648l3.367-.238v-.691c-1.625 0-1.813-.168-1.813-1.34v-14.551zm1.77 13.527c0 .43 0 .5-.336 1.024-.571.84-1.551 1.531-2.747 1.531-.621 0-3.203-.238-3.203-4.875 0-1.719.286-2.676.813-3.465.476-.742 1.433-1.48 2.629-1.48 1.48 0 2.316 1.074 2.554 1.457.29.406.29.453.29.882zm8.218-11.926c0-.621-.5-1.171-1.168-1.171a1.15 1.15 0 0 0-1.148 1.148c0 .715.574 1.172 1.148 1.172.739 0 1.168-.625 1.168-1.149m-3.297 4.446v.691c1.532 0 1.746.145 1.746 1.313v6.5c0 1.078-.261 1.078-1.816 1.078v.691c.668-.047 1.816-.047 2.508-.047.266 0 1.648 0 2.461.047v-.691c-1.551 0-1.649-.121-1.649-1.051v-8.797zm46.493-6.332c0-.215-.168-.215-.215-.215s-.145 0-.336.238l-1.649 2.004c-.836-1.434-2.148-2.242-3.941-2.242-5.164 0-10.516 5.23-10.516 10.848 0 3.992 2.797 6.476 6.285 6.476 1.911 0 3.583-.812 4.969-1.984 2.082-1.746 2.699-4.063 2.699-4.254 0-.215-.187-.215-.261-.215-.215 0-.239.145-.285.238-1.098 3.731-4.329 5.52-6.715 5.52-2.535 0-4.731-1.625-4.731-5.016 0-.765.239-4.926 2.938-8.055 1.312-1.531 3.562-2.867 5.832-2.867 2.629 0 3.797 2.172 3.797 4.61 0 .625-.071 1.148-.071 1.246 0 .215.239.215.313.215.262 0 .285-.024.379-.454zM20.836-440.707c0-.434 0-.551-.238-.551-.192 0-.645.524-.813.742-.738-.597-1.48-.742-2.246-.742-2.89 0-3.75 1.578-3.75 2.891 0 .265 0 1.101.906 1.937.766.668 1.578.836 2.68 1.051 1.313.262 1.625.332 2.219.813.43.359.742.882.742 1.55 0 1.032-.598 2.176-2.7 2.176-1.577 0-2.722-.906-3.25-3.297-.097-.429-.097-.453-.12-.476-.047-.098-.141-.098-.215-.098-.262 0-.262.121-.262.551v3.25c0 .43 0 .551.238.551.121 0 .145-.024.551-.528.117-.168.117-.215.477-.597.906 1.125 2.199 1.125 2.605 1.125 2.508 0 3.75-1.387 3.75-3.274 0-1.293-.785-2.058-1.004-2.273-.86-.739-1.504-.883-3.082-1.172-.715-.141-2.46-.477-2.46-1.91 0-.739.503-1.84 2.652-1.84 2.605 0 2.75 2.223 2.797 2.965.023.191.19.191.261.191.262 0 .262-.121.262-.551zm10.516 4.562c.527 0 .574 0 .574-.453 0-2.414-1.29-4.66-4.184-4.66-2.722 0-4.824 2.461-4.824 5.426 0 3.152 2.438 5.473 5.09 5.473 2.844 0 3.918-2.582 3.918-3.086 0-.145-.121-.239-.262-.239-.191 0-.242.121-.289.239-.621 2.007-2.219 2.558-3.227 2.558-1 0-3.414-.668-3.414-4.804v-.454zm-6.594-.453c.191-3.754 2.293-4.183 2.96-4.183 2.56 0 2.704 3.371 2.727 4.183zm48.09-8.699c.215-.883.308-.93 1.242-.93h3.105c2.7 0 2.7 2.293 2.7 2.508 0 1.934-1.934 4.399-5.09 4.399h-3.442zm4.035 6.164c2.605-.476 4.973-2.293 4.973-4.488 0-1.867-1.649-3.301-4.348-3.301h-7.672c-.453 0-.672 0-.672.453 0 .242.219.242.574.242 1.457 0 1.457.188 1.457.454 0 .046 0 .191-.093.546l-3.227 12.86c-.215.836-.262 1.074-1.934 1.074-.457 0-.695 0-.695.43 0 .261.145.261.621.261h8.2c3.656 0 6.472-2.769 6.472-5.183 0-1.961-1.719-3.156-3.656-3.348m-3.39 7.84h-3.227c-.336 0-.383 0-.528-.023-.261-.024-.285-.075-.285-.262 0-.168.047-.313.094-.527l1.676-6.739h4.492c2.82 0 2.82 2.629 2.82 2.821 0 2.293-2.082 4.73-5.043 4.73m38.485-11.52.382-.359-2.843-3.68c-.121-.14-.336-.406-.672-.406-.406 0-.813.36-.813.789 0 .242.098.453.336.649zm3.277 6.668c.523 0 .574 0 .574-.453 0-2.414-1.293-4.66-4.183-4.66-2.723 0-4.829 2.461-4.829 5.426 0 3.152 2.438 5.473 5.09 5.473 2.844 0 3.922-2.582 3.922-3.086 0-.145-.121-.239-.265-.239-.192 0-.239.121-.286.239-.621 2.007-2.222 2.558-3.226 2.558s-3.418-.668-3.418-4.804v-.454zm-6.598-.453c.192-3.754 2.297-4.183 2.965-4.183 2.555 0 2.699 3.371 2.723 4.183zm21.5 9.942c-1.531 0-1.816 0-1.816-1.078v-4.157c.43.598 1.406 1.532 2.937 1.532 2.75 0 5.161-2.321 5.161-5.403 0-3.035-2.243-5.379-4.848-5.379-2.106 0-3.227 1.508-3.301 1.602v-1.602l-3.32.266v.691c1.672 0 1.816.168 1.816 1.219v11.231c0 1.078-.262 1.078-1.816 1.078v.691c.621-.047 1.914-.047 2.582-.047.691 0 1.98 0 2.605.047zm-1.816-11.567c0-.453 0-.48.262-.859.718-1.078 1.886-1.531 2.796-1.531 1.79 0 3.223 2.175 3.223 4.851 0 2.844-1.625 4.922-3.465 4.922a2.82 2.82 0 0 1-1.91-.762c-.551-.55-.906-1.031-.906-1.699zm13.117-7.097c0-.621-.5-1.172-1.168-1.172-.625 0-1.148.504-1.148 1.148 0 .715.574 1.172 1.148 1.172.738 0 1.168-.625 1.168-1.148m-3.297 4.445v.691c1.528 0 1.746.145 1.746 1.317v6.5c0 1.074-.265 1.074-1.816 1.074v.691c.668-.046 1.816-.046 2.508-.046.261 0 1.648 0 2.461.046v-.691c-1.551 0-1.649-.121-1.649-1.051v-8.797zm12.817-1.938.382-.359-2.843-3.68c-.121-.14-.336-.406-.672-.406-.406 0-.813.36-.813.789 0 .242.098.453.336.649zm.086 1.938v.691c1.625 0 1.82.168 1.82 1.34v4.278c0 2.031-1.078 3.726-2.871 3.726-1.957 0-2.078-1.125-2.078-2.387v-7.914l-3.371.266v.691c1.82 0 1.82.075 1.82 2.2v3.586c0 1.48 0 2.339.715 3.128.574.622 1.554.911 2.773.911.406 0 1.168 0 1.981-.696.695-.547 1.078-1.457 1.078-1.457v2.153l3.32-.243v-.691c-1.625 0-1.816-.168-1.816-1.34v-8.508zm16.382 5.949c1.121.742 2.078.742 2.34.742 2.153 0 3.754-1.625 3.754-3.464 0-.649-.191-1.555-.957-2.321.934-.953 2.055-.953 2.176-.953.094 0 .215 0 .308.047-.238.094-.359.332-.359.598 0 .332.238.621.621.621.192 0 .625-.121.625-.645 0-.433-.336-1.101-1.172-1.101-1.242 0-2.176.765-2.511 1.125-.715-.551-1.551-.864-2.461-.864-2.149 0-3.75 1.625-3.75 3.469 0 1.359.836 2.246 1.074 2.457-.285.363-.719 1.055-.719 1.988 0 1.383.84 1.981 1.031 2.102-1.101.309-2.199 1.172-2.199 2.41 0 1.652 2.246 3.012 5.184 3.012 2.843 0 5.211-1.266 5.211-3.055 0-.601-.168-2.008-1.602-2.75-1.219-.621-2.414-.621-4.469-.621-1.457 0-1.625 0-2.054-.453-.239-.238-.453-.695-.453-1.195 0-.407.14-.813.382-1.149m2.364.238c-2.102 0-2.102-2.414-2.102-2.96 0-.43 0-1.411.406-2.055a2.04 2.04 0 0 1 1.672-.934c2.106 0 2.106 2.414 2.106 2.965 0 .43 0 1.406-.407 2.055a2.05 2.05 0 0 1-1.675.929m.644 8.485c-2.293 0-4.039-1.168-4.039-2.531 0-.192.051-1.125.957-1.746.527-.336.742-.336 2.414-.336 1.985 0 4.684 0 4.684 2.082 0 1.406-1.817 2.531-4.016 2.531m9.836-9.965c0-2.316.957-4.492 2.797-4.492.191 0 .238 0 .336.023-.192.094-.574.239-.574.883 0 .695.55.957.933.957.477 0 .953-.312.953-.957 0-.715-.644-1.387-1.671-1.387-2.032 0-2.723 2.2-2.868 2.657h-.023v-2.657l-3.203.266v.691c1.625 0 1.816.168 1.816 1.34v6.477c0 1.074-.262 1.074-1.816 1.074v.691c.668-.046 1.984-.046 2.699-.046.645 0 2.344 0 2.895.046v-.691h-.481c-1.742 0-1.793-.262-1.793-1.125zm14.434-.812c0-1.29 0-2.247-1.051-3.18-.836-.762-1.91-1.098-2.961-1.098-1.961 0-3.469 1.289-3.469 2.844 0 .691.457 1.027 1.004 1.027.574 0 .981-.406.981-.98 0-.981-.86-.981-1.219-.981.551-1.004 1.699-1.433 2.652-1.433 1.102 0 2.512.91 2.512 3.058v.957c-4.805.071-6.621 2.078-6.621 3.918 0 1.891 2.199 2.489 3.656 2.489 1.578 0 2.652-.957 3.106-2.106.097 1.125.835 1.985 1.867 1.985.5 0 1.886-.336 1.886-2.247v-1.339h-.527v1.339c0 1.364-.57 1.555-.906 1.555-.91 0-.91-1.269-.91-1.625zm-1.551 3.011c0 2.34-1.746 3.129-2.774 3.129-1.171 0-2.152-.859-2.152-2.008 0-3.152 4.067-3.441 4.926-3.488zm14.664-2.437c0-2.223 0-2.891-.551-3.657-.695-.933-1.816-1.078-2.629-1.078-2.316 0-3.226 1.985-3.418 2.465h-.023v-2.465l-3.25.266v.691c1.625 0 1.816.168 1.816 1.34v6.477c0 1.074-.261 1.074-1.816 1.074v.691c.621-.046 1.914-.046 2.582-.046.691 0 1.984 0 2.601.046v-.691c-1.527 0-1.812 0-1.812-1.074v-4.446c0-2.507 1.648-3.847 3.129-3.847 1.48 0 1.816 1.219 1.816 2.676v5.617c0 1.074-.265 1.074-1.816 1.074v.691c.621-.046 1.914-.046 2.582-.046.691 0 1.98 0 2.601.046v-.691c-1.195 0-1.789 0-1.812-.715zm9.531-10.516v.695c1.625 0 1.821.164 1.821 1.336v5.282c-.504-.692-1.532-1.532-2.989-1.532-2.773 0-5.164 2.344-5.164 5.403 0 3.035 2.27 5.379 4.903 5.379 1.816 0 2.867-1.196 3.199-1.649v1.649l3.371-.243v-.691c-1.625 0-1.817-.168-1.817-1.34v-14.551zm1.77 13.527c0 .43 0 .5-.332 1.028-.575.836-1.555 1.527-2.75 1.527-.621 0-3.203-.238-3.203-4.875 0-1.719.289-2.676.812-3.465.477-.742 1.434-1.48 2.629-1.48 1.48 0 2.316 1.074 2.559 1.457.285.406.285.457.285.883zm13.215-2.75c.527 0 .574 0 .574-.453 0-2.414-1.289-4.66-4.184-4.66-2.722 0-4.824 2.461-4.824 5.426 0 3.152 2.437 5.473 5.09 5.473 2.844 0 3.918-2.582 3.918-3.086 0-.145-.121-.239-.262-.239-.191 0-.242.121-.285.239-.625 2.007-2.223 2.558-3.231 2.558-1 0-3.414-.668-3.414-4.804v-.454zm-6.594-.453c.191-3.754 2.293-4.183 2.961-4.183 2.558 0 2.703 3.371 2.726 4.183zm22.812-10.324v.695c1.625 0 1.817.164 1.817 1.336v5.282c-.504-.692-1.532-1.532-2.989-1.532-2.769 0-5.164 2.344-5.164 5.403 0 3.035 2.274 5.379 4.903 5.379 1.816 0 2.867-1.196 3.203-1.649v1.649l3.367-.243v-.691c-1.625 0-1.816-.168-1.816-1.34v-14.551zm1.77 13.527c0 .43 0 .5-.336 1.028-.574.836-1.555 1.527-2.75 1.527-.621 0-3.199-.238-3.199-4.875 0-1.719.285-2.676.812-3.465.477-.742 1.43-1.48 2.625-1.48 1.485 0 2.321 1.074 2.559 1.457.289.406.289.457.289.883zm8.219-11.925c0-.621-.504-1.172-1.172-1.172-.621 0-1.145.504-1.145 1.148 0 .715.571 1.172 1.145 1.172.742 0 1.172-.625 1.172-1.148m-3.297 4.445v.691c1.527 0 1.742.145 1.742 1.317v6.5c0 1.074-.262 1.074-1.816 1.074v.691c.671-.046 1.816-.046 2.511-.046.262 0 1.649 0 2.461.046v-.691c-1.555 0-1.648-.121-1.648-1.051v-8.797zm46.492-6.332c0-.215-.172-.215-.219-.215s-.144 0-.332.238l-1.652 2.008c-.836-1.433-2.149-2.246-3.942-2.246-5.16 0-10.515 5.231-10.515 10.848 0 3.992 2.797 6.476 6.285 6.476 1.91 0 3.586-.812 4.973-1.984 2.078-1.746 2.699-4.063 2.699-4.254 0-.215-.192-.215-.262-.215-.219 0-.242.145-.285.238-1.102 3.731-4.328 5.52-6.719 5.52-2.531 0-4.73-1.625-4.73-5.016 0-.765.238-4.925 2.937-8.054 1.317-1.528 3.563-2.867 5.832-2.867 2.629 0 3.797 2.175 3.797 4.613 0 .621-.07 1.144-.07 1.242 0 .215.238.215.312.215.266 0 .285-.024.383-.453zm36.156 7h2.699v-.691h-2.746v-2.797c0-2.149 1.098-3.25 2.078-3.25.192 0 .551.047.836.191-.093.024-.691.238-.691.934 0 .547.383.929.93.929.574 0 .957-.382.957-.953 0-.886-.86-1.578-2.008-1.578-1.672 0-3.559 1.289-3.559 3.727v2.797h-1.867v.691h1.867v7.84c0 1.074-.265 1.074-1.816 1.074v.691c.668-.046 1.98-.046 2.699-.046.645 0 2.344 0 2.891.046v-.691h-.477c-1.746 0-1.793-.262-1.793-1.125zm12.313 3.227c0-1.29 0-2.247-1.051-3.18-.836-.762-1.91-1.098-2.961-1.098-1.961 0-3.469 1.289-3.469 2.844 0 .691.457 1.027 1.004 1.027.574 0 .981-.406.981-.98 0-.981-.86-.981-1.219-.981.551-1.004 1.699-1.433 2.652-1.433 1.102 0 2.512.91 2.512 3.058v.957c-4.805.071-6.621 2.078-6.621 3.918 0 1.891 2.199 2.489 3.656 2.489 1.578 0 2.652-.957 3.106-2.106.097 1.125.835 1.985 1.867 1.985.5 0 1.886-.336 1.886-2.247v-1.339h-.527v1.339c0 1.364-.57 1.555-.906 1.555-.91 0-.91-1.269-.91-1.625zm-1.551 3.011c0 2.34-1.746 3.129-2.774 3.129-1.171 0-2.152-.859-2.152-2.008 0-3.152 4.067-3.441 4.926-3.488zm8.187-11.351c0-.621-.504-1.172-1.171-1.172a1.15 1.15 0 0 0-1.149 1.148c0 .715.574 1.172 1.149 1.172.742 0 1.171-.625 1.171-1.148m-3.296 4.445v.691c1.527 0 1.742.145 1.742 1.317v6.5c0 1.074-.262 1.074-1.817 1.074v.691c.668-.046 1.817-.046 2.508-.046.266 0 1.652 0 2.465.046v-.691c-1.555 0-1.648-.121-1.648-1.051v-8.797zm10.035 1.121c0-.644-.551-1.144-1.149-1.144-.691 0-1.168.546-1.168 1.144 0 .719.598 1.172 1.145 1.172.644 0 1.172-.5 1.172-1.172m0 7.984c0-.648-.551-1.148-1.149-1.148-.691 0-1.168.551-1.168 1.148a1.158 1.158 0 1 0 2.317 0M28.906-535.063c0-4.203 2.727-7.265 6.313-9.417 1.004-.622 3.156-1.911 3.156-4.973 0-6.215-8.414-6.215-10.137-6.215-6.215 0-9.273 2.965-9.273 6.172 0 1.957 1.433 2.867 2.82 2.867 1.527 0 2.82-1.055 2.82-2.824 0-.813-.335-2.391-2.343-2.77 1.96-1.769 4.687-1.867 5.738-1.867 4.492 0 4.637 1.914 4.637 4.305 0 2.629-.575 3.25-1.434 4.062-4.305 4.45-4.305 9.325-4.305 11.141v1.527c.098.481.625.481 1.008.481 1 0 1-.239 1-1.242zm2.442 9.422a3.43 3.43 0 0 0-3.442-3.445 3.43 3.43 0 0 0-3.445 3.445 3.43 3.43 0 0 0 3.445 3.442 3.43 3.43 0 0 0 3.442-3.442m22.961-9.422c0-4.203 2.722-7.265 6.308-9.417 1.008-.622 3.156-1.911 3.156-4.973 0-6.215-8.414-6.215-10.132-6.215-6.22 0-9.278 2.965-9.278 6.172 0 1.957 1.434 2.867 2.82 2.867 1.532 0 2.825-1.055 2.825-2.824 0-.813-.336-2.391-2.344-2.77 1.961-1.769 4.684-1.867 5.734-1.867 4.496 0 4.641 1.914 4.641 4.305 0 2.629-.574 3.25-1.437 4.062-4.301 4.45-4.301 9.325-4.301 11.141v1.527c.093.481.62.481 1.004.481 1.004 0 1.004-.239 1.004-1.242zm2.437 9.422c0-1.914-1.527-3.445-3.441-3.445s-3.442 1.531-3.442 3.445c0 1.911 1.528 3.442 3.442 3.442s3.441-1.531 3.441-3.442m22.961-9.422c0-4.203 2.727-7.265 6.313-9.417 1.003-.622 3.156-1.911 3.156-4.973 0-6.215-8.414-6.215-10.137-6.215-6.215 0-9.273 2.965-9.273 6.172 0 1.957 1.433 2.867 2.82 2.867 1.527 0 2.82-1.055 2.82-2.824 0-.813-.336-2.391-2.344-2.77 1.961-1.769 4.688-1.867 5.739-1.867 4.492 0 4.636 1.914 4.636 4.305 0 2.629-.574 3.25-1.433 4.062-4.305 4.45-4.305 9.325-4.305 11.141v1.527c.098.481.621.481 1.004.481 1.004 0 1.004-.239 1.004-1.242zm2.441 9.422a3.43 3.43 0 0 0-3.445-3.445 3.43 3.43 0 0 0-3.441 3.445 3.43 3.43 0 0 0 3.441 3.442 3.43 3.43 0 0 0 3.445-3.442"/></g></svg>