<svg xmlns="http://www.w3.org/2000/svg" width="904pt" height="596" viewBox="0 -447 904 447"><g id="page1" transform="scale(1 -1)"><path fill="#cc9c6f" d="M143.008 392.828a7150 7150 0 0 1 617.555-86.793l2.367 16.844a7141 7141 0 0 1-307.832 50.133 7144 7144 0 0 1-309.723 36.66z"/><path fill="none" stroke="#000" stroke-linecap="round" stroke-linejoin="round" stroke-width="2" d="M143.008 392.828a7150 7150 0 0 1 617.555-86.793l2.367 16.844a7141 7141 0 0 1-307.832 50.133 7144 7144 0 0 1-309.723 36.66z"/><path fill="#fff" d="M176.746 397.387a5.668 5.668 0 1 1-11.336 0 5.667 5.667 0 1 1 11.336 0"/><path fill="none" stroke="#000" stroke-linecap="round" stroke-linejoin="round" stroke-width="2" d="M176.746 397.387a5.668 5.668 0 1 1-11.336 0 5.667 5.667 0 1 1 11.336 0"/><path fill="#fff" d="M738.16 318.484a5.67 5.67 0 1 1-11.341.003 5.67 5.67 0 0 1 11.341-.003"/><path fill="none" stroke="#000" stroke-linecap="round" stroke-linejoin="round" stroke-width="2" d="M738.16 318.484a5.67 5.67 0 1 1-11.341.003 5.67 5.67 0 0 1 11.341-.003"/><path fill="#d3ae37" d="M341.156 150.773c0 15.657-76.144 28.348-170.078 28.348C77.148 179.121 1 166.43 1 150.773s76.148-28.347 170.078-28.347c93.934 0 170.078 12.691 170.078 28.347"/><path fill="none" stroke="#000" stroke-linecap="round" stroke-linejoin="round" stroke-width="2" d="M341.156 150.773c0 15.657-76.144 28.348-170.078 28.348C77.148 179.121 1 166.43 1 150.773s76.148-28.347 170.078-28.347c93.934 0 170.078 12.691 170.078 28.347M171.078 377.547l161.41-217.813m-161.41 217.813L117.32 177.676m53.758 199.871L19.984 137.746m151.094 239.801v19.84"/><g fill-rule="evenodd"><path d="M148.344 196.316c-2.289-1.414-4.387-4.093-4.387-5.652 0-.926.828-2.242 2.582-4.094 1.414-1.507 3.121-3.797 3.754-5.113l1.121-2.387-1.367-2.73c-.777-1.512-1.899-4.383-2.484-6.43-6.383-20.758-12.911-28.355-35.223-40.828-6.969-3.848-9.402-5.75-11.012-8.281-1.512-2.535-1.512-5.117.145-7.504 4.773-7.067 24.07-6.188 40.097 1.801 11.743 5.8 20.317 14.129 24.75 24.019 5.067 11.156 6.285 22.801 3.364 31.719-1.121 3.41-4.532 8.477-6.676 9.891-1.461.972-1.949 1.753-2.68 4.531-1.363 5.015-4.191 10.328-5.992 11.254-1.996 1.023-4.094.972-5.992-.196m5.554-4.386c-.585-1.071-.437-1.657.973-4.434 2.192-4.336 4.531-11.84 5.555-17.781 4.387-25.774-14.664-49.988-43.313-55.004-2.484-.441-5.699-.781-7.113-.781-1.949 0-2.633-.242-3.02-1.024-.488-.926-.343-1.07 1.411-1.558 2.875-.828 11.351-.684 16.226.242 15.199 2.875 28.938 11.351 36.297 22.461 10.621 15.933 11.012 37.808.777 44.871-1.851 1.269-2.242 1.949-3.457 5.848-1.218 3.945-3.07 8.332-3.558 8.332-.047 0-.438-.536-.778-1.172m-4.093-2.778-1.707-.73 1.804-2.289c.926-1.266 2.145-3.36 2.629-4.676.93-2.34.93-2.34-.679-6.141-.829-2.093-2.289-6.187-3.215-9.011-3.657-11.45-7.067-17.344-13.742-24.02-5.165-5.164-8.622-7.601-19.34-13.789-8.625-4.922-11.645-6.965-12.035-8.039-.145-.34.73-1.605 1.902-2.871l2.141-2.242 4.093.34c12.035 1.023 24.02 6.136 32.547 13.984 6.965 6.43 11.496 13.785 13.883 22.555 1.363 5.019 1.656 16.468.535 21.097-1.754 7.16-4.09 13.059-6.137 15.446-.925 1.019-1.121 1.07-2.679.386"/><path fill="#f5a701" d="M151.121 197.438c.391-.149.828-.098 1.024.046.144.196-.149.293-.684.293-.633-.047-.731-.144-.34-.339m-5.41-2.875-1.508-1.708 1.703 1.512c.926.875 1.657 1.61 1.657 1.703 0 .391-.387.051-1.852-1.507m10.477.097c.195-.246.437-.488.582-.488.148 0 .097.242-.047.488-.196.293-.438.535-.586.535-.145 0-.145-.242.051-.535m-2.29-2.73c-.585-1.071-.437-1.657.973-4.434 2.192-4.336 4.531-11.84 5.555-17.781 4.387-25.774-14.664-49.988-43.313-55.004-2.484-.441-5.699-.781-7.113-.781-1.949 0-2.633-.242-3.02-1.024-.488-.926-.343-1.07 1.411-1.558 2.875-.828 11.351-.684 16.226.242 15.199 2.875 28.938 11.351 36.297 22.461 10.621 15.933 11.012 37.808.777 44.871-1.851 1.269-2.242 1.949-3.457 5.848-1.218 3.945-3.07 8.332-3.558 8.332-.047 0-.438-.536-.778-1.172m-.828-4.871c.973-1.61 2.145-4.09 2.629-5.504.489-1.414.977-2.485 1.071-2.34.636.586-3.75 9.746-4.969 10.523-.289.149.293-1.023 1.269-2.679m5.993 1.902c0-.391.144-.539.339-.344a.47.47 0 0 1 0 .684c-.195.195-.339.047-.339-.34m-10.672-.488c-.145-.246.148-.782.632-1.168.829-.637.829-.586.247.144-.586.731-.586.926 0 1.168.437.149.488.246.046.293-.339 0-.777-.144-.925-.437m-2.094-2.145c1.121-1.121 2.144-2.047 2.289-2.047.148 0-.684.926-1.801 2.047-1.121 1.168-2.144 2.094-2.293 2.094-.144 0 .684-.926 1.805-2.094m13.254 1.07c0-.386.191-.535.387-.339a.47.47 0 0 1 0 .683c-.196.196-.387.047-.387-.344m-9.113-2.093c.195-.293.441-.535.585-.535.145 0 .145.242-.05.535-.196.293-.438.535-.582.535-.149 0-.098-.242.047-.535m1.363-2.094c.73-1.609.976-1.902.976-1.219 0 .293-.339.977-.781 1.512-.777.973-.777.926-.195-.293m8.82.535c0-.391.145-.535.34-.34.195.196.195.485 0 .68s-.34.051-.34-.34m1.801-2.633c.195-.242.441-.484.586-.484s.144.242-.047.484c-.195.293-.441.539-.586.539-.148 0-.098-.246.047-.539m-9.645-.484c0-.391.196-.535.387-.344a.58.58 0 0 1 0 .684c-.191.195-.387.051-.387-.34m.387-2.047c-.191-.879-.144-1.07.246-.684.293.293.438.829.34 1.219-.145.391-.391.149-.586-.535m3.899-.586c0-.437.195-1.363.441-2.094.34-1.023.387-1.074.437-.246 0 .586-.195 1.512-.437 2.098-.293.633-.441.73-.441.242m9.015-.484c.195-.293.438-.539.582-.539.149 0 .098.246-.047.539-.195.242-.437.484-.586.484-.144 0-.097-.242.051-.484m-13.984-1.367c-.535-1.266-.391-1.606.246-.582.289.535.437 1.07.289 1.214-.098.149-.387-.144-.535-.632m15.054-.243c.149-.246.442-.488.536-.488.148 0 .148.242-.047.488-.149.293-.438.536-.586.536-.145 0-.098-.243.097-.536m-9.16-2.047c0-.39.196-.535.391-.339.144.144.144.488 0 .679-.195.196-.391.051-.391-.34m-9.89-1.07c0-.39.148-.539.343-.344a.47.47 0 0 1 0 .684c-.195.195-.343.051-.343-.34m2.632 0c0-.39.149-.539.34-.344a.47.47 0 0 1 0 .684c-.191.195-.34.051-.34-.34m7.891-1.558c0-.735.098-1.024.246-.633.145.34.145.922 0 1.312-.148.34-.246.051-.246-.679m-8.426 0c0-.391.145-.539.34-.344s.195.488 0 .683-.34.047-.34-.339m-.535-1.563c0-.387.145-.535.34-.34.195.196.195.489 0 .684s-.34.047-.34-.344m-3.121-1.559c0-.386.149-.535.344-.339a.48.48 0 0 1 0 .683c-.195.196-.344.047-.344-.344m2.633 0c0-.386.144-.535.34-.339a.47.47 0 0 1 0 .683c-.196.196-.34.047-.34-.344m10.086-4.433c0-2.871.047-3.945.191-2.434.102 1.508.102 3.848 0 5.211-.144 1.317-.191.098-.191-2.777m11.301 3.605c0-.582.144-.73.293-.293.144.344.144.832 0 .977-.196.195-.34-.145-.293-.684m-21.922-.73c0-.391.144-.535.34-.34a.473.473 0 0 1 0 .684c-.196.195-.34.047-.34-.344m-2.633-.535c0-.391.195-.535.391-.34a.59.59 0 0 1 0 .68c-.196.195-.391.05-.391-.34m2.144-1.317c.047-.632.145-.73.293-.34.196.391.145.829 0 1.024-.195.144-.293-.149-.293-.684m-2.632-.242c0-.39.148-.535.343-.34a.467.467 0 0 1 0 .68c-.195.195-.343.051-.343-.34m25.629-.781c0-.875.097-1.117.242-.633.148.488.148 1.219 0 1.559-.145.343-.242-.047-.242-.926m-24.071-1.801c0-.391.149-.535.344-.344.195.149.195.489 0 .684s-.344.051-.344-.34m-.535-1.558c0-.391.149-.536.344-.391a.537.537 0 0 1 0 .73c-.195.196-.344 0-.344-.339m-.973-2.387c-.828-1.903-.683-2.34.243-.586.437.828.73 1.558.586 1.707-.098.094-.489-.391-.829-1.121m25.579-1.024c0-.879.097-1.121.242-.632.148.484.148 1.214 0 1.558-.145.34-.242-.051-.242-.926m-12.524-.246c0-.73.098-1.019.246-.679.145.386.145.972 0 1.312-.148.344-.246.051-.246-.633m-16.223 0c0-.386.149-.535.34-.34a.47.47 0 0 1 0 .684c-.191.195-.34.047-.34-.344m15.641-2.922c.047-.586.145-.73.34-.293.144.34.098.829-.051.977-.191.191-.289-.148-.289-.684m-15.152-1.265c-.293-.586-.438-1.024-.293-1.024.144 0 .535.438.828 1.024.293.582.437 1.07.293 1.07-.149 0-.488-.488-.828-1.07m27.672.242c0-.633.144-.731.293-.34.144.391.144.828 0 1.024-.196.144-.34-.149-.293-.684m-13.008-1.07c0-.586.144-.735.293-.293.144.34.144.828-.047.972-.149.196-.293-.097-.246-.679m-16.028-1.317c-.195-.39-.097-.488.243-.246.339.195.632.488.632.586 0 .438-.488.242-.875-.34m15.442-.437c0-.391.148-.539.344-.344.195.148.195.488 0 .684-.196.195-.344.046-.344-.34m-19.047-.633c-.246-.344-.148-.441.195-.195.633.339.828.828.391.828-.149 0-.391-.293-.586-.633m2.582-.488c-.246-.391-.148-.489.242-.246.586.39.781.828.344.828-.102 0-.391-.289-.586-.582m-4.434-1.903c-.632-.828-.632-.828.196-.191.875.68 1.121 1.117.73 1.117-.148 0-.539-.387-.926-.926m2.582-.484c-.632-.828-.632-.879.196-.246.875.683 1.168 1.121.73 1.121-.097 0-.535-.391-.926-.875m17.098.098c-.531-1.317-.387-1.657.246-.586.293.488.438 1.023.293 1.168-.148.148-.39-.145-.539-.582m13.207-.247c0-.386.145-.535.34-.339a.467.467 0 0 1 0 .679c-.195.196-.34.051-.34-.34m-.539-1.558c0-.391.149-.535.344-.34s.195.488 0 .68c-.195.195-.344.051-.344-.34m-33.613-2.727-2.586-2.777 2.73 2.629c2.532 2.387 2.973 2.875 2.582 2.875-.097 0-1.316-1.266-2.726-2.727m18.754.098c-.196-.344-.242-.684-.094-.828.144-.149.387.098.535.535.387.926.098 1.121-.441.293m-24.02-1.609c-.191-.391-.097-.489.246-.243.34.196.633.485.633.582 0 .442-.488.247-.879-.339m22.949-.536c-.242-.39-.144-.488.243-.246.343.196.586.489.586.586 0 .438-.438.242-.829-.34m-25.285-1.367c-.633-.828-.633-.828.196-.191.875.68 1.168 1.121.73 1.121-.148 0-.535-.441-.926-.93m2.875-.777-.976-1.168 1.172.973c.632.586 1.168 1.074 1.168 1.168 0 .441-.442.148-1.364-.973m21.387.586c-.242-.391-.145-.488.195-.246.633.39.828.828.391.828-.149 0-.391-.242-.586-.582m-26.066-1.074c-.243-.34-.145-.438.246-.196.293.196.582.442.582.586 0 .438-.438.242-.828-.39m24.75-.828c-.68-.829-.633-.829.195-.196.828.684 1.121 1.121.683 1.121-.097 0-.488-.39-.878-.925m-26.309-.196c-.242-.387-.145-.437.242-.242.293.195.586.488.586.633 0 .437-.484.195-.828-.391m4.141 0c-.196-.387-.145-.437.246-.242.34.195.582.488.582.633 0 .437-.438.195-.828-.391m-2.043-1.558c-.246-.387-.149-.489.195-.243.34.196.633.489.633.633 0 .391-.489.196-.828-.39m19.535-3.457-3.364-3.508 3.508 3.359c1.95 1.852 3.559 3.461 3.559 3.559 0 .34-.535-.149-3.703-3.41m17.441 1.898c-.242-.391-.144-.488.242-.242.293.195.586.484.586.586 0 .437-.437.242-.828-.344m-44.82-.535c-.246-.391-.149-.438.242-.242.34.242.582.484.582.632 0 .438-.437.196-.824-.39m4.187-.195c-.972-.782-.972-.782.149-.243.679.293 1.168.68 1.168.778 0 .437-.246.293-1.317-.535m-2.582-1.559c-.972-.781-.972-.781.145-.242.637.293 1.172.679 1.172.777 0 .438-.293.293-1.317-.535m40.34-1.656c-.68-.828-.633-.879.195-.196.879.684 1.122 1.071.684 1.071-.098 0-.488-.387-.879-.875m-43.996-.438c-.973-.781-.973-.781.149-.246.632.293 1.167.684 1.167.828 0 .391-.242.246-1.316-.582m24.461-1.949-.977-1.172 1.172 1.024c1.071.925 1.41 1.367.973 1.367-.098 0-.633-.539-1.168-1.219m-28.113-.148c-.973-.778-.973-.778.148-.243.633.34 1.168.684 1.168.828 0 .391-.242.293-1.316-.585m26.015-1.364c-.191-.34-.144-.437.246-.195.34.195.582.437.582.586 0 .437-.437.242-.828-.391m-34.636-1.316c-.684-.828-.637-.875.195-.195.875.683 1.117 1.074.68 1.074-.098 0-.489-.391-.875-.879m4.429.293c-.242-.391-.144-.438.246-.242.293.195.582.488.582.632 0 .438-.437.196-.828-.39m28.649 0c-.242-.391-.145-.438.246-.242.34.195.582.488.582.632 0 .438-.438.196-.828-.39m-30.207-1.024c-.242-.39-.145-.488.246-.242.293.196.582.488.582.582 0 .442-.485.246-.828-.34m24.019-2.093c-2.289-1.121-3.605-1.903-2.875-1.707 1.563.441 7.309 3.265 7.309 3.605 0 .344.39.488-4.434-1.898m22.61 1.265c-.684-.828-.637-.875.195-.242.875.68 1.117 1.121.68 1.121-.098 0-.489-.39-.875-.879m-48.965-1.07-1.27-1.414 1.414 1.266c1.364 1.171 1.707 1.609 1.27 1.609-.102 0-.735-.684-1.414-1.461m-2.875.34c-.242-.391-.149-.488.242-.242.293.195.586.488.586.582 0 .441-.438.246-.828-.34m49.5-1.071c-.242-.39-.149-.441.242-.246.293.246.586.489.586.633 0 .442-.438.196-.828-.387m-25.578-1.804a.466.466 0 0 1 .679 0c.196.148.051.344-.339.344-.391 0-.536-.196-.34-.344m-20.219-.731c.144-.293.437-.484.586-.484.144 0 .094.191-.051.484-.195.293-.488.535-.586.535-.144 0-.144-.242.051-.535m18.66.196a.467.467 0 0 1 .68 0c.195.195.051.339-.34.339s-.535-.144-.34-.339m-1.851-.536c.386-.144.828-.144 1.023.047.144.149-.148.293-.684.246-.632 0-.73-.148-.339-.293m24.308-.246c-.242-.386-.144-.484.195-.242.344.196.633.488.633.633 0 .391-.484.195-.828-.391m-26.355-.289c.339-.148.828-.097.972.047.196.196-.144.293-.679.293-.586-.051-.731-.144-.293-.34m-2.094-.488c.387-.144.824-.144.973 0 .195.195-.098.34-.68.293-.586 0-.735-.148-.293-.293m-10.914-.879c.242-.242 1.703-.34 3.262-.242l2.777.144-3.215.293c-1.801.149-3.07.051-2.824-.195m7.504.344c.484-.149 1.215-.149 1.558 0 .34.144-.05.242-.925.242-.879 0-1.172-.098-.633-.242m-13.449-2.777c.195-.293.441-.536.585-.536.145 0 .145.243-.05.536-.196.293-.438.535-.582.535-.149 0-.098-.242.047-.535m33.812-1.368a.48.48 0 0 1 .684 0c.195.149.046.344-.344.344-.391 0-.535-.195-.34-.344m-1.559-.535c.145-.191.489-.191.68 0 .195.196.051.344-.34.344-.39 0-.535-.148-.34-.344m-29.621-.679c.145-.293.438-.536.582-.536.149 0 .098.243-.097.536-.145.242-.438.488-.582.488-.098 0-.098-.246.097-.488m28.012.144a.53.53 0 0 1 .731 0c.195.195 0 .344-.34.344-.391 0-.535-.149-.391-.344m-6.234-1.559a.467.467 0 0 1 .679 0c.196.196.051.34-.339.34-.391 0-.536-.144-.34-.34m-17.2-.535c.196-.195.536-.195.68 0 .195.196.051.34-.34.34-.386 0-.535-.144-.34-.34m14.325 0c.39-.144.828-.144 1.023.047.145.195-.148.293-.683.293-.633-.047-.731-.144-.34-.34m-11.254-.535c.535-.098 1.363-.098 1.851 0 .489.145.098.242-.925.242-.977 0-1.415-.097-.926-.242m6.039 0c.637-.098 1.558-.098 2.047 0 .535.145 0 .242-1.168.242-1.121 0-1.559-.097-.879-.242"/><path fill="#fcd900" d="m149.805 188.863-1.168-.586 1.851-2.484c.973-1.363 2.141-3.461 2.582-4.727.778-2.093.731-2.339-.441-4.871-.68-1.414-2.336-5.992-3.699-10.183-6.141-18.61-13.352-26.649-34.692-38.586-3.8-2.145-7.797-4.68-8.914-5.606l-2.047-1.75 2.094-2.097 2.145-2.145 4.531.344c8.332.633 19.683 4.578 26.457 9.258 3.699 2.531 9.984 8.672 12.469 12.179 2.875 4.141 5.605 9.985 6.824 14.86 1.461 5.75 1.363 18.125-.149 23.187-1.558 5.168-2.972 8.774-4.578 11.453-1.465 2.532-1.511 2.582-3.265 1.754"/><path d="M228.133 196.316c-2.289-1.414-4.387-4.093-4.387-5.652 0-.926.828-2.242 2.582-4.094 1.414-1.507 3.117-3.797 3.75-5.113l1.121-2.387-1.363-2.73c-.777-1.512-1.898-4.383-2.484-6.43-6.383-20.758-12.911-28.355-35.223-40.828-6.969-3.848-9.406-5.75-11.012-8.281-1.512-2.535-1.512-5.117.145-7.504 4.773-7.067 24.066-6.188 40.097 1.801 11.743 5.8 20.317 14.129 24.75 24.019 5.067 11.156 6.286 22.801 3.364 31.719-1.121 3.41-4.532 8.477-6.676 9.891-1.461.972-1.949 1.753-2.68 4.531-1.363 5.015-4.191 10.328-5.992 11.254-1.996 1.023-4.094.972-5.992-.196m5.555-4.386c-.586-1.071-.442-1.657.972-4.434 2.192-4.336 4.531-11.84 5.555-17.781 4.383-25.774-14.664-49.988-43.313-55.004-2.484-.441-5.699-.781-7.113-.781-1.949 0-2.633-.242-3.019-1.024-.489-.926-.344-1.07 1.41-1.558 2.875-.828 11.351-.684 16.226.242 15.199 2.875 28.938 11.351 36.297 22.461 10.621 15.933 11.012 37.808.777 44.871-1.851 1.269-2.242 1.949-3.457 5.848-1.218 3.945-3.07 8.332-3.558 8.332-.047 0-.438-.536-.777-1.172m-4.094-2.778-1.707-.73 1.804-2.289c.926-1.266 2.145-3.36 2.629-4.676.926-2.34.926-2.34-.679-6.141-.828-2.093-2.289-6.187-3.215-9.011-3.656-11.45-7.067-17.344-13.742-24.02-5.164-5.164-8.621-7.601-19.34-13.789-8.625-4.922-11.645-6.965-12.035-8.039-.145-.34.73-1.605 1.902-2.871l2.141-2.242 4.093.34c12.035 1.023 24.02 6.136 32.543 13.984 6.969 6.43 11.5 13.785 13.887 22.555 1.363 5.019 1.656 16.468.535 21.097-1.754 7.16-4.09 13.059-6.137 15.446-.925 1.019-1.121 1.07-2.679.386"/><path fill="#f5a701" d="M230.91 197.438c.387-.149.828-.098 1.024.046.144.196-.149.293-.684.293-.633-.047-.73-.144-.34-.339m-5.41-2.875-1.512-1.708 1.707 1.512c.926.875 1.657 1.61 1.657 1.703 0 .391-.387.051-1.852-1.507m10.477.097c.195-.246.437-.488.582-.488.148 0 .097.242-.047.488-.196.293-.438.535-.586.535-.145 0-.145-.242.051-.535m-2.289-2.73c-.586-1.071-.442-1.657.972-4.434 2.192-4.336 4.531-11.84 5.555-17.781 4.383-25.774-14.664-49.988-43.313-55.004-2.484-.441-5.699-.781-7.113-.781-1.949 0-2.633-.242-3.019-1.024-.489-.926-.344-1.07 1.41-1.558 2.875-.828 11.351-.684 16.226.242 15.199 2.875 28.938 11.351 36.297 22.461 10.621 15.933 11.012 37.808.777 44.871-1.851 1.269-2.242 1.949-3.457 5.848-1.218 3.945-3.07 8.332-3.558 8.332-.047 0-.438-.536-.777-1.172m-.833-4.871c.977-1.61 2.145-4.09 2.633-5.504.489-1.414.977-2.485 1.071-2.34.636.586-3.75 9.746-4.969 10.523-.293.149.293-1.023 1.265-2.679m5.997 1.902c0-.391.144-.539.339-.344a.47.47 0 0 1 0 .684c-.195.195-.339.047-.339-.34m-10.672-.488c-.145-.246.148-.782.633-1.168.828-.637.828-.586.246.144-.586.731-.586.926 0 1.168.437.149.488.246.046.293-.339 0-.777-.144-.925-.437m-2.094-2.145c1.121-1.121 2.144-2.047 2.289-2.047s-.684.926-1.801 2.047c-1.121 1.168-2.144 2.094-2.293 2.094-.144 0 .684-.926 1.805-2.094m13.254 1.07c0-.386.191-.535.387-.339a.47.47 0 0 1 0 .683c-.196.196-.387.047-.387-.344m-9.113-2.093c.195-.293.437-.535.586-.535.144 0 .144.242-.051.535-.196.293-.438.535-.582.535-.149 0-.102-.242.047-.535m1.363-2.094c.73-1.609.976-1.902.976-1.219 0 .293-.343.977-.781 1.512-.777.973-.777.926-.195-.293m8.82.535c0-.391.145-.535.34-.34.195.196.195.485 0 .68s-.34.051-.34-.34m1.801-2.633c.195-.242.437-.484.586-.484.144 0 .144.242-.051.484-.191.293-.437.539-.582.539-.148 0-.098-.246.047-.539m-9.645-.484c0-.391.196-.535.387-.344a.58.58 0 0 1 0 .684c-.191.195-.387.051-.387-.34m.387-2.047c-.191-.879-.144-1.07.246-.684.293.293.438.829.34 1.219-.144.391-.391.149-.586-.535m3.899-.586c0-.437.195-1.363.437-2.094.344-1.023.391-1.074.441-.246 0 .586-.195 1.512-.441 2.098-.289.633-.437.73-.437.242m9.015-.484c.196-.293.438-.539.582-.539.149 0 .098.246-.047.539-.195.242-.437.484-.586.484-.144 0-.097-.242.051-.484m-13.984-1.367c-.535-1.266-.391-1.606.246-.582.289.535.437 1.07.289 1.214-.098.149-.391-.144-.535-.632m15.055-.243c.148-.246.437-.488.535-.488.148 0 .148.242-.047.488-.149.293-.442.536-.586.536-.145 0-.098-.243.098-.536m-9.161-2.047c0-.39.196-.535.391-.339.145.144.145.488 0 .679-.195.196-.391.051-.391-.34m-9.89-1.07c0-.39.148-.539.343-.344a.47.47 0 0 1 0 .684c-.195.195-.343.051-.343-.34m2.633 0c0-.39.144-.539.339-.344a.47.47 0 0 1 0 .684c-.195.195-.339.051-.339-.34m7.89-1.558c0-.735.098-1.024.246-.633.145.34.145.922 0 1.312-.148.34-.246.051-.246-.679m-8.426 0c0-.391.145-.539.34-.344a.47.47 0 0 1 0 .683c-.195.196-.34.047-.34-.339m-.539-1.563c0-.387.149-.535.344-.34.195.196.195.489 0 .684s-.344.047-.344-.344m-3.117-1.559c0-.386.149-.535.344-.339a.48.48 0 0 1 0 .683c-.195.196-.344.047-.344-.344m2.633 0c0-.386.144-.535.34-.339a.47.47 0 0 1 0 .683c-.196.196-.34.047-.34-.344m10.086-4.433c0-2.871.047-3.945.191-2.434.102 1.508.102 3.848 0 5.211-.144 1.317-.191.098-.191-2.777m11.301 3.605c0-.582.148-.73.293-.293.144.344.144.832 0 .977-.196.195-.34-.145-.293-.684m-21.922-.73c0-.391.144-.535.34-.34a.473.473 0 0 1 0 .684c-.196.195-.34.047-.34-.344m-2.633-.535c0-.391.195-.535.391-.34a.59.59 0 0 1 0 .68c-.196.195-.391.05-.391-.34m2.145-1.317c.046-.632.144-.73.292-.34.196.391.145.829 0 1.024-.195.144-.292-.149-.292-.684m-2.633-.242c0-.39.148-.535.343-.34a.467.467 0 0 1 0 .68c-.195.195-.343.051-.343-.34m25.629-.781c0-.875.097-1.117.242-.633.148.488.148 1.219 0 1.559-.145.343-.242-.047-.242-.926m-24.071-1.801c0-.391.149-.535.344-.344.195.149.195.489 0 .684s-.344.051-.344-.34m-.535-1.558c0-.391.149-.536.344-.391a.537.537 0 0 1 0 .73c-.195.196-.344 0-.344-.339m-.973-2.387c-.828-1.903-.683-2.34.243-.586.437.828.73 1.558.586 1.707-.098.094-.489-.391-.829-1.121m25.579-1.024c0-.879.097-1.121.242-.632.148.484.148 1.214 0 1.558-.145.34-.242-.051-.242-.926m-12.524-.246c0-.73.098-1.019.246-.679.145.386.145.972 0 1.312-.148.344-.246.051-.246-.633m-16.222 0c0-.386.148-.535.339-.34a.47.47 0 0 1 0 .684c-.191.195-.339.047-.339-.344m15.64-2.922c.047-.586.145-.73.34-.293.145.34.098.829-.047.977-.195.191-.293-.148-.293-.684m-15.152-1.265c-.293-.586-.442-1.024-.293-1.024.144 0 .535.438.828 1.024.293.582.437 1.07.293 1.07-.149 0-.488-.488-.828-1.07m27.672.242c0-.633.148-.731.293-.34.144.391.144.828 0 1.024-.196.144-.34-.149-.293-.684m-13.008-1.07c0-.586.144-.735.293-.293.144.34.144.828-.047.972-.148.196-.297-.097-.246-.679m-16.027-1.317c-.196-.39-.098-.488.242-.246.34.195.633.488.633.586 0 .438-.489.242-.875-.34m15.441-.437c0-.391.148-.539.344-.344.191.148.191.488 0 .684-.196.195-.344.046-.344-.34m-19.051-.633c-.242-.344-.144-.441.195-.195.637.339.832.828.391.828-.144 0-.391-.293-.586-.633m2.586-.488c-.246-.391-.148-.489.242-.246.586.39.782.828.34.828-.098 0-.391-.289-.582-.582m-4.434-1.903c-.632-.828-.632-.828.196-.191.875.68 1.121 1.117.73 1.117-.148 0-.539-.387-.926-.926m2.583-.484c-.633-.828-.633-.879.195-.246.875.683 1.168 1.121.73 1.121-.097 0-.539-.391-.925-.875m17.097.098c-.535-1.317-.387-1.657.246-.586.293.488.438 1.023.293 1.168-.148.148-.39-.145-.539-.582m13.207-.247c0-.386.145-.535.34-.339a.467.467 0 0 1 0 .679c-.195.196-.34.051-.34-.34m-.539-1.558c0-.391.149-.535.344-.34s.195.488 0 .68c-.195.195-.344.051-.344-.34m-33.613-2.727-2.586-2.777 2.73 2.629c2.532 2.387 2.969 2.875 2.582 2.875-.097 0-1.316-1.266-2.726-2.727m18.754.098c-.196-.344-.242-.684-.098-.828.149-.149.391.098.535.535.391.926.102 1.121-.437.293m-24.02-1.609c-.191-.391-.097-.489.246-.243.34.196.633.485.633.582 0 .442-.488.247-.879-.339m22.949-.536c-.246-.39-.144-.488.243-.246.339.196.586.489.586.586 0 .438-.438.242-.829-.34m-25.285-1.367c-.633-.828-.633-.828.196-.191.875.68 1.168 1.121.73 1.121-.148 0-.535-.441-.926-.93m2.871-.777-.972-1.168 1.168.973c.636.586 1.172 1.074 1.172 1.168 0 .441-.442.148-1.368-.973m21.391.586c-.242-.391-.145-.488.195-.246.633.39.828.828.391.828-.148 0-.391-.242-.586-.582m-26.066-1.074c-.243-.34-.145-.438.246-.196.289.196.582.442.582.586 0 .438-.438.242-.828-.39m24.75-.828c-.68-.829-.633-.829.195-.196.828.684 1.121 1.121.684 1.121-.098 0-.489-.39-.879-.925m-26.309-.196c-.242-.387-.145-.437.242-.242.293.195.586.488.586.633 0 .437-.488.195-.828-.391m4.141 0c-.196-.387-.145-.437.246-.242.34.195.582.488.582.633 0 .437-.438.195-.828-.391m-2.047-1.558c-.242-.387-.145-.489.195-.243.344.196.633.489.633.633 0 .391-.484.196-.828-.39m19.539-3.457-3.363-3.508 3.507 3.359c1.95 1.852 3.559 3.461 3.559 3.559 0 .34-.535-.149-3.703-3.41m17.441 1.898c-.246-.391-.144-.488.242-.242.293.195.586.484.586.586 0 .437-.437.242-.828-.344m-44.824-.535c-.242-.391-.145-.438.246-.242.34.242.582.484.582.632 0 .438-.437.196-.828-.39m4.191-.195c-.972-.782-.972-.782.149-.243.68.293 1.168.68 1.168.778 0 .437-.246.293-1.317-.535m-2.582-1.559c-.972-.781-.972-.781.145-.242.637.293 1.172.679 1.172.777 0 .438-.293.293-1.317-.535m40.34-1.656c-.679-.828-.633-.879.196-.196.875.684 1.121 1.071.683 1.071-.098 0-.488-.387-.879-.875m-43.996-.438c-.973-.781-.973-.781.149-.246.632.293 1.168.684 1.168.828 0 .391-.243.246-1.317-.582m24.461-1.949-.976-1.172 1.167 1.024c1.075.925 1.415 1.367.977 1.367-.098 0-.633-.539-1.168-1.219m-28.113-.148c-.973-.778-.973-.778.144-.243.633.34 1.172.684 1.172.828 0 .391-.246.293-1.316-.585m26.015-1.364c-.195-.34-.144-.437.247-.195.339.195.582.437.582.586 0 .437-.438.242-.829-.391m-34.64-1.316c-.68-.828-.633-.875.195-.195.879.683 1.121 1.074.684 1.074-.098 0-.489-.391-.879-.879m4.433.293c-.242-.391-.144-.438.246-.242.293.195.583.488.583.632 0 .438-.438.196-.829-.39m28.649 0c-.242-.391-.145-.438.246-.242.34.195.582.488.582.632 0 .438-.438.196-.828-.39m-30.207-1.024c-.242-.39-.145-.488.246-.242.293.196.582.488.582.582 0 .442-.484.246-.828-.34m24.019-2.093c-2.289-1.121-3.605-1.903-2.875-1.707 1.563.441 7.309 3.265 7.309 3.605 0 .344.391.488-4.434-1.898m22.606 1.265c-.68-.828-.633-.875.195-.242.879.68 1.121 1.121.684 1.121-.098 0-.489-.39-.879-.879m-48.961-1.07-1.27-1.414 1.414 1.266c1.364 1.171 1.707 1.609 1.266 1.609-.098 0-.73-.684-1.41-1.461m-2.875.34c-.246-.391-.149-.488.242-.242.293.195.586.488.586.582 0 .441-.438.246-.828-.34m49.5-1.071c-.246-.39-.149-.441.242-.246.293.246.586.489.586.633 0 .442-.438.196-.828-.387m-25.578-1.804a.466.466 0 0 1 .679 0c.196.148.051.344-.339.344-.391 0-.536-.196-.34-.344m-20.223-.731c.149-.293.441-.484.586-.484.148 0 .098.191-.047.484-.195.293-.488.535-.586.535-.144 0-.144-.242.047-.535m18.664.196a.467.467 0 0 1 .68 0c.195.195.051.339-.34.339s-.535-.144-.34-.339m-1.851-.536c.386-.144.828-.144 1.019.047.149.149-.144.293-.68.246-.632 0-.73-.148-.339-.293m24.308-.246c-.242-.386-.144-.484.195-.242.344.196.633.488.633.633 0 .391-.484.195-.828-.391m-26.355-.289c.34-.148.828-.097.972.047.196.196-.144.293-.679.293-.586-.051-.735-.144-.293-.34m-2.094-.488c.387-.144.824-.144.973 0 .195.195-.098.34-.684.293-.582 0-.73-.148-.289-.293m-10.914-.879c.242-.242 1.703-.34 3.262-.242l2.777.144-3.215.293c-1.801.149-3.07.051-2.824-.195m7.5.344c.488-.149 1.219-.149 1.558 0 .344.144-.046.242-.921.242-.879 0-1.172-.098-.637-.242m-13.445-2.777c.195-.293.437-.536.586-.536.144 0 .144.243-.051.536-.196.293-.438.535-.582.535-.149 0-.102-.242.047-.535m33.812-1.368a.48.48 0 0 1 .684 0c.191.149.047.344-.344.344s-.535-.195-.34-.344m-1.559-.535c.145-.191.489-.191.68 0 .195.196.051.344-.34.344-.39 0-.535-.148-.34-.344m-29.625-.679c.149-.293.442-.536.586-.536.149 0 .098.243-.097.536-.145.242-.438.488-.582.488-.098 0-.098-.246.093-.488m28.016.144a.53.53 0 0 1 .731 0c.195.195 0 .344-.34.344-.391 0-.535-.149-.391-.344m-6.234-1.559a.467.467 0 0 1 .679 0c.196.196.051.34-.339.34-.391 0-.536-.144-.34-.34m-17.199-.535c.195-.195.535-.195.683 0 .192.196.047.34-.344.34-.386 0-.535-.144-.339-.34m14.324 0c.39-.144.828-.144 1.023.047.145.195-.148.293-.683.293-.633-.047-.731-.144-.34-.34m-11.254-.535c.535-.098 1.363-.098 1.851 0 .485.145.094.242-.925.242-.977 0-1.414-.097-.926-.242m6.039 0c.633-.098 1.558-.098 2.047 0 .535.145 0 .242-1.168.242-1.121 0-1.559-.097-.879-.242"/><path fill="#fcd900" d="m229.594 188.863-1.168-.586 1.847-2.484c.977-1.363 2.145-3.461 2.582-4.727.782-2.093.735-2.339-.437-4.871-.68-1.414-2.34-5.992-3.703-10.183-6.137-18.61-13.348-26.649-34.688-38.586-3.8-2.145-7.797-4.68-8.918-5.606l-2.043-1.75 2.094-2.097 2.145-2.145 4.531.344c8.328.633 19.684 4.578 26.453 9.258 3.703 2.531 9.988 8.672 12.473 12.179 2.875 4.141 5.601 9.985 6.824 14.86 1.461 5.75 1.363 18.125-.148 23.187-1.559 5.168-2.973 8.774-4.583 11.453-1.46 2.532-1.507 2.582-3.261 1.754"/></g><path fill="#bc9a16" d="M1 150.773c0-68.597 90.55-70.867 170.078-70.867 79.527 0 170.078 2.27 170.078 70.867 0-15.656-76.144-28.347-170.078-28.347C77.148 122.426 1 135.117 1 150.773"/><path fill="none" stroke="#000" stroke-linecap="round" stroke-linejoin="round" stroke-width="2" d="M1 150.773c0-68.597 90.55-70.867 170.078-70.867 79.527 0 170.078 2.27 170.078 70.867 0-15.656-76.144-28.347-170.078-28.347C77.148 122.426 1 135.117 1 150.773"/><path fill="#d3ae37" d="M902.57 71.871c0 15.656-76.148 28.348-170.078 28.348-93.933 0-170.082-12.692-170.082-28.348 0-15.652 76.149-28.344 170.082-28.344 93.93 0 170.078 12.692 170.078 28.344"/><path fill="none" stroke="#000" stroke-linecap="round" stroke-linejoin="round" stroke-width="2" d="M902.57 71.871c0 15.656-76.148 28.348-170.078 28.348-93.933 0-170.082-12.692-170.082-28.348 0-15.652 76.149-28.344 170.082-28.344 93.93 0 170.078 12.692 170.078 28.344M732.492 298.645 893.898 80.832M732.492 298.645 678.73 98.773m53.762 199.872L581.395 58.844m151.097 239.801v19.839"/><g fill-rule="evenodd"><path fill="#88d055" d="M724.563 104.75c-.754-.617 1.328-.617.972-1.504 1.375-3.234 2.703-6.555 3.278-10.055 2.171-11.207-.575-23.297-7.528-32.379-7-9.566-17.629-16.609-29.363-18.558-10.723-1.86-22.016.664-31.227 6.379-2.304 1.418-4.472 3.011-6.554 4.738 6.464-7.305 15.898-11.559 25.464-12.621 13.997-1.594 28.704 2.969 38.977 12.668 7 6.555 11.828 15.5 12.801 25.066.844 7.707.047 15.813-3.453 22.77a22.2 22.2 0 0 1-2.528 3.851c-.351.133-.574-.222-.839-.355"/><path fill="#b9f88c" d="M724.34 104.484c-.93-.351-2.434-1.105-1.949-2.39 2.968-5.938 4.211-12.668 4.078-19.313-.18-6.246-1.641-12.62-5.141-17.894-4.074-6.242-10.23-10.985-17.094-13.774-9.836-4.25-21.039-5.668-31.492-3.054-6.512 1.636-12.801 4.78-17.273 9.922-.797.84-1.418 1.812-1.949 2.878-.399 1.239-1.727 1.282-2.657.485-1.375-.575-.843-2.125-.09-3.012 1.95-3.809 5.18-6.863 8.903-9.035 6.203-3.941 13.289-6.688 20.64-7.395 7.575-.843 15.368.399 22.278 3.63 12.094 5.491 21.836 16.3 25.511 29.144 2.614 9.39 1.551 19.62-2.523 28.437-.223.575-.488 1.371-1.242 1.371"/><path d="M723.41 106.789c-5.094-1.684-9.344-5.051-14.172-7.266-20.019-10.851-39.375-22.765-58.375-35.21-1.64-1.153-3.414-2.747-3.414-4.872.137-2.613 1.949-4.695 3.457-6.687 5.891-7.176 14.438-11.781 23.43-13.82 8.328-1.86 17.051-.973 25.246 1.152 9.481 2.566 18.469 7.75 24.758 15.367 7.754 9.48 11.34 22.191 9.703 34.328-.578 4.828-1.906 9.7-4.52 13.817-1.195 1.726-3.011 3.414-5.269 3.367-.266-.043-.578-.086-.844-.176m1.285-1.949c-.886-.664-2.523-.977-2.48-2.348.223-.844.797-1.594 1.062-2.437 4.075-9.743 4.297-21.172.223-30.957-2.437-5.625-6.687-10.367-11.738-13.778-8.196-5.625-18.203-8.28-28.078-8.37-7.973-.087-16.168 1.683-22.856 6.155-3.324 2.262-6.156 5.317-7.887 8.95-1.195.043-2.566-.532-2.964-1.727-.09-1.11.796-1.95 1.238-2.926 4.297-7.086 11.515-12.09 19.355-14.66 15.86-5.183 34.282-1.418 46.864 9.567 6.066 5.316 10.629 12.359 12.796 20.109 1.461 5.316 1.731 10.894 1.243 16.387-.532 4.87-1.86 9.746-4.43 13.996-.707.664-.797 2.129-1.949 2.215-.176.047-.266-.133-.399-.176m-4.785-2.789c-17.359-8.907-33.926-19.223-50.844-28.836-5.492-3.278-10.894-6.778-15.812-10.809 2.879-5.668 8.324-9.699 14.219-11.867 9.656-3.5 20.418-3.41 30.293-.754 7.75 2.082 15.191 5.98 20.464 12.09 3.321 3.898 5.223 8.77 6.157 13.777 1.461 7.442 1.418 15.414-1.285 22.586-.446 1.243-1.063 2.395-1.731 3.543-.308.489-1.016.754-1.461.27m-2.922-13.157c-1.242-.753-.043-2.968 1.285-2.523 1.063.442.84 1.992-.132 2.39-.356.177-.754.266-1.153.133M706.715 78.22c-1.11-.442-.621-2.082.351-2.434 1.11-.355 2.039 1.063 1.375 1.992-.312.664-1.152.93-1.726.442m10.008-.133c-1.196-.84-.309-2.79.972-2.965 1.153-.223 2.215 1.195 1.508 2.215-.531.797-1.64.883-2.48.75m-21.172-7.617c-.883-1.238.312-3.367 1.816-3.102 1.242.445.977 2.172.043 2.793-.484.399-1.238.617-1.859.309m10.941-2.613c-1.062-.887-.265-2.348.356-3.188.707-.977 2.433-.754 2.699.398.223 1.063-.531 2.036-1.328 2.614-.489.351-1.196.441-1.727.175m-24.672-3.543c-1.371-.575-1.062-3.102.446-3.188 1.636.133 1.812 2.965.218 3.32-.218.043-.488 0-.664-.132m-13.019-1.594c-1.328-.446-1.774-2.57-.488-3.325 1.152-.44 2.125.977 2.039 2.04.043.754-.754 1.906-1.551 1.285m22.277-4.473c-1.508-.977-.355-3.766 1.418-3.41 1.238.266 1.238 1.992.488 2.789-.398.574-1.242 1.02-1.906.621m-16.387-1.95c-1.461-.71-1.195-3.41.489-3.632 1.504 0 2.078 2.082 1.281 3.145-.352.574-1.148.93-1.77.488"/><path fill="#e96c92" d="M719.91 102.051c-17.359-8.907-33.926-19.223-50.844-28.836-5.492-3.278-10.894-6.778-15.812-10.809 2.879-5.668 8.324-9.699 14.219-11.867 9.656-3.5 20.418-3.41 30.293-.754 7.75 2.082 15.191 5.98 20.464 12.09 3.321 3.898 5.223 8.77 6.157 13.777 1.461 7.442 1.418 15.414-1.285 22.586-.446 1.243-1.063 2.395-1.731 3.543-.308.489-1.016.754-1.461.27m-2.922-13.157c-1.242-.753-.043-2.968 1.285-2.523 1.063.442.84 1.992-.132 2.39-.356.177-.754.266-1.153.133M706.715 78.22c-1.11-.442-.621-2.082.351-2.434 1.11-.355 2.039 1.063 1.375 1.992-.312.664-1.152.93-1.726.442m10.008-.133c-1.196-.84-.309-2.79.972-2.965 1.153-.223 2.215 1.195 1.508 2.215-.531.797-1.64.883-2.48.75m-21.172-7.617c-.883-1.238.312-3.367 1.816-3.102 1.242.445.977 2.172.043 2.793-.484.399-1.238.617-1.859.309m10.941-2.613c-1.062-.887-.265-2.348.356-3.188.707-.977 2.433-.754 2.699.398.223 1.063-.531 2.036-1.328 2.614-.489.351-1.196.441-1.727.175m-24.672-3.543c-1.371-.575-1.062-3.102.446-3.188 1.636.133 1.812 2.965.218 3.32-.218.043-.488 0-.664-.132m-13.019-1.594c-1.328-.446-1.774-2.57-.488-3.325 1.152-.44 2.125.977 2.039 2.04.043.754-.754 1.906-1.551 1.285m22.277-4.473c-1.508-.977-.355-3.766 1.418-3.41 1.238.266 1.238 1.992.488 2.789-.398.574-1.242 1.02-1.906.621m-16.387-1.95c-1.461-.71-1.195-3.41.489-3.632 1.504 0 2.078 2.082 1.281 3.145-.352.574-1.148.93-1.77.488"/><path fill="#247040" d="M783.336 114.742c-.637.293-1.121-.437-.879-.972.242-.731.926-.051 1.414-.149.731.051 1.606-.098 2.238.442.586.535-.484 1.07-1.019.972-.586-.051-1.172-.242-1.754-.293m2.773-.679c-.73-.489-2.531-.196-3.261-.684-.489-.438.293-1.316.39-1.805a3.8 3.8 0 0 0 .242-2.191c-.242-1.606-1.074-3.02-1.753-4.481-1.707-3.656-3.657-7.164-5.262-10.914 1.023-.39 1.996.293 2.973.586.777.192 1.023 1.07 1.214 1.754.149.73.293 1.41.684 2.043 1.461 3.266 3.168 6.434 4.629 9.695.586 1.657.926 3.411.879 5.118.386 1.316-.344 1.121-.735.879m-23.285-13.79c-1.511-.39-3.168-.535-4.433-1.511 2.824-.438 5.355-2.047 7.211-4.188 1.019-1.465 1.753-3.218 3.261-4.242.782-.582 1.707-1.023 2.68-1.07.633 0 1.023.535 1.559.828.925.683 1.121 1.996 2.097 2.633.535 1.117.098 2.433-.488 3.457-.684 1.168-1.656 2.386-2.777 3.117-2.536 1.512-5.7 1.465-8.528 1.074-.191-.051-.386-.051-.582-.098m24.848-2.972c-2.828-1.899-6.238-2.582-9.453-3.606-1.024-.293-1.996-.73-2.824-1.46-1.219-1.024-2.098-2.68-1.754-4.337.242-.976 1.214-1.851 2.238-1.511.539.05 1.074.683 1.266.05.195-.488.343-1.171 1.027-1.171 2.531-.243 5.066.828 6.82 2.632a8.42 8.42 0 0 1 2.485 4.922c.339 1.559.488 3.118.582 4.676-.094.195-.34-.05-.387-.195m-25.094-1.754c-2.726-.828-5.699-1.414-8.574-.973-.242.828-1.559-.05-.582-.39 1.215-1.657 3.066-2.73 4.918-3.461 1.656 0 3.121.78 4.68 1.074.726.437 1.898.34 2.726.633.731.34-.488 1.507-.73 1.949-.438.535-.828.973-1.512 1.215-.289.097-.633.148-.926-.047m28.988-.586c-1.214-.293-2.582-.535-3.359-1.605-.293-.489-.437-1.122-.437-1.708 0-.777.921 0 1.023-.046-.441-.536-.977-.926-1.465-1.415-.535-1.023-1.168-2.144-2.191-2.726-.489-.54 0-1.27.633-1.367.585-.196 1.168.05 1.753.148 3.266.582 5.895 2.922 9.161 3.606.535-.344 1.168.195 1.218.73.145.582-.148 1.121-.632 1.461-.586.633-1.075 1.363-1.805 1.898-1.121.829-2.531 1.317-3.899 1.024m16.176-.68c-2.238-1.754-5.164-2.387-7.941-2.437-.488-.098-1.168.195-1.363-.39-.196-.634.339-1.266.046-1.852-.386-.387-1.019-.196-1.558-.293-.438.097-.68-.536-.145-.387.293.097 1.024 0 .438-.293-.489-.39.535-.242.781-.488 1.266-.438 2.484-1.07 3.848-1.414 1.558.097 2.824 1.218 4.043 2.144 1.511 1.461 2.582 3.656 2.242 5.797-.195 0-.195-.34-.391-.387m-14.469-6.433c-.683-.535-1.656-.485-2.289-1.168-.586-.586 1.024-.243.731-.633-.879.39-.879.39-1.707-.293-.633-.973.344-1.512.683-1.852 1.168-1.07 2.68-1.609 4.09-2.093 3.414-.977 7.067-1.461 10.574-.782 1.415.293 2.778.782 3.997 1.461-.684.781-1.805.442-2.68.73-.488.247-1.024.587-1.609.829-2.727 1.414-5.36 3.316-8.477 3.95-1.07.241-2.242.241-3.313-.15"/><path fill="#d1242b" d="M754.832 88.043c-1.801-1.899-2.973-4.285-3.898-6.676-1.364-3.992-1.606-8.281-1.313-12.469.484-4.875 1.996-9.601 3.895-14.082 1.949-4.336 3.851-8.672 5.945-12.91 1.316-2.68 2.633-5.312 4.387-7.699 1.847-2.387 4.675-4.187 7.793-4.043 2.144 0 4.093 1.07 5.894 2.145 2.875 1.605 5.653 3.359 8.528 5.066 6.917 5.02 12.765 11.398 18.074 18.027 1.656 2.192 2.926 4.727 3.265 7.5.536 3.508.489 7.114-.246 10.621-.535 2.047-1.605 3.899-2.531 5.75-.781 1.266-2.242.684-3.457.73-3.363.196-6.773 1.024-9.699 2.778-.875.73-1.313 1.805-1.996 2.68-1.266.926-2.973-.34-4.239.586-1.07.586-2.339-.098-3.265-.633-1.656-.73-3.703-.73-5.211.293-1.024.387-2.289.535-3.024 1.508.196 1.12-1.07 2.191-2.14 1.707-.977-.293-2.047.34-2.875.875-.926.535-1.61 1.61-2.68 1.95-3.559-.294-8.82-2.048-11.207-3.704"/><path d="M782.992 115.23c-1.265.047-2.094-1.804-.777-2.386 1.265-1.367.973-3.41.437-5.02-.828-2.629-2.386-4.871-3.605-7.308-.926-1.801-1.902-3.653-2.629-5.504-1.27.195-.93 1.8-1.707 2.484-1.898 2.434-5.02 3.652-8.09 3.75-3.117.098-6.234-.535-8.965-2.047.149-1.117 1.465-.828 2.242-1.117.782-.684 2.145-.637 2.731-1.61-.391-.878-1.559-.73-2.34-.925-1.559-.242-3.117-.73-4.726-.633a5.14 5.14 0 0 0-3.313 1.219c-1.023-.149.293-1.317.535-1.805 1.219-1.559 2.731-3.07 4.629-3.75-.73-1.316-2.531-1.512-3.312-2.777-3.262-3.364-4.825-7.992-5.309-12.57-.828-7.454 1.168-14.958 4.336-21.68 2.629-5.457 5.359-10.914 7.988-16.371 1.461-2.68 3.117-5.504 5.946-6.918 2.679-1.317 6.089-1.219 8.671.39 3.457 1.754 6.723 3.703 10.036 5.649 7.648 5.117 13.886 12.035 19.293 19.441 1.851 2.824 2.828 6.188 3.312 9.551.586 4.773-.289 9.793-2.871 13.883-.832 1.363 1.168 1.754 2.141 2 .878.34 2.972.777 2.293 2.043-1.024.637-2.34.246-3.364.828-1.316.539-2.484 1.316-3.703 1.95.242 1.12 1.559 1.022 2.34 1.609 1.656 1.511 3.215 3.41 3.508 5.699.386.828-.051 2.437-1.172 1.851-.484-.875-1.461-1.265-2.336-1.558-2.289-.926-4.777-1.024-7.164-1.414-1.317 1.367-2.629 2.972-4.629 3.218-1.605.34-3.457 0-4.727-1.12-1.07.632-.195 1.898-.144 2.777.195.68-.488 1.754-1.024.777-1.218-1.121-2.875-1.461-4.335-2.094-.731-.148-1.61-.828-2.243-.195-.293 1.023.489 1.898.731 2.777 1.804 4.387 4.582 8.379 5.41 13.059.195 1.019.586 2.14.144 3.117-.582 1.07-1.996 1.121-3.066.973-.391-.047-.781-.145-1.172-.243m.293-.39c-1.219.488-1.121-2.047.098-1.121.926.097 2.535-.196 2.972.73-.488 1.219-2.144.442-3.07.391m2.34-1.219c-.781-.535-2.484.391-2.68-.875.145-.879.68-1.707.582-2.633-.047-1.558-.679-3.019-1.265-4.433-1.754-3.946-4.09-7.598-5.797-11.594 1.168-.39 2.289.437 3.41.777.973 1.024.73 2.582 1.512 3.703 1.703 3.95 4.09 7.602 5.211 11.84.195 1.071.246 2.192.246 3.313-.442 0-.828.051-1.219-.098m-22.801-13.25c-1.414-.39-3.023-.39-4.14-1.414 1.703-.535 3.457-1.07 4.82-2.34 2.191-1.8 3.461-4.531 5.652-6.332.731-.586 1.61-1.023 2.535-1.12.731 1.167-1.464 1.265-1.66 2.288-1.117 1.461-1.703 3.215-2.726 4.727 1.609-1.168 1.898-3.36 3.363-4.727.633-.633 1.41-1.605 2.434-1.219 1.023.735 1.414 2 2.195 2.926.535 1.168-.246 2.387-.781 3.41-1.219 2.094-3.508 3.559-5.946 3.848-1.898.293-3.847.246-5.746-.047m24.848-2.973c-3.219-2.242-7.211-2.73-10.77-4.14-1.754-.781-3.457-2.387-3.312-4.434 0-1.12.73-2.386 1.898-2.484 1.317.144 1.657 1.703 2.535 2.433 1.852 1.657 4.336 2.34 6.332 3.801.735.34-.582-.777-.828-.875-1.558-1.023-3.41-1.61-4.824-2.828-.726-.535-1.363-1.219-1.801-2.047.536-.484.293-1.605 1.414-1.46 1.95-.243 3.899.534 5.504 1.609 1.657 1.12 2.926 2.875 3.41 4.87.489 1.657.54 3.41.926 5.118.051.293-.144.68-.484.437m-25.094-1.851c-2.726-.828-5.652-1.316-8.523-.879-.246.976-1.754-.242-.633-.484 1.363-1.512 3.117-2.68 5.016-3.461 1.902.488 3.8 1.218 5.75 1.363-.145 1.074-1.708.246-2.485.488-1.219 0-2.437 0-3.656.098 2.144.39 4.387.195 6.578.097.684-.875 1.805.731.633.973-.535.926-1.363 2.489-2.68 1.805m28.988-.488c-1.265-.293-2.824-.582-3.507-1.852-.196-.582-.778-2.387.437-1.656 2 1.27 4.633 1.27 6.824.343-1.367 0-2.632.583-3.949.34-1.508-.195-3.117-.78-4.043-2.046-.535-1.024-1.168-2.047-2.191-2.68-.782-1.168 1.074-1.656 1.898-1.266 3.512.438 6.238 3.02 9.649 3.703 1.07-.539 1.609 1.168.972 1.852-.679.484-1.117 1.312-1.754 1.851-1.168 1.02-2.773 1.754-4.336 1.41m16.176-.68c-2.484-2-5.797-2.535-8.914-2.438-1.172-.437.633-2.386-.879-2.484-.437-.098-1.801.098-1.461-.437 2.68 0 5.313.34 7.844 1.168-1.852-1.461-4.336-1.461-6.527-1.364-.633.293-1.219-.437-.293-.437 1.461-.442 2.828-1.172 4.336-1.563 1.558.098 2.824 1.219 3.996 2.145 1.558 1.46 2.629 3.605 2.289 5.797-.195 0-.195-.34-.391-.387m-42.582-2.777c-3.75-.536-7.597-1.512-10.719-3.754-1.07-1.215-1.656-2.727-2.582-4.043-2.289-4.336-2.433-9.403-2.289-14.176.391-6.676 2.973-13.012 5.797-19.004 2.485-5.457 4.778-10.96 8.09-15.93 1.801-2.828 5.113-4.773 8.523-4.53 2.243.194 4.243 1.362 6.141 2.437 2.875 1.8 5.797 3.41 8.574 5.308 5.797 4.29 10.77 9.55 15.446 15.008 2.339 2.777 4.578 5.895 5.164 9.598.683 3.605.535 7.355-.196 10.96-.632 2.34-1.851 4.481-3.019 6.579-4.434-.344-9.063.484-12.817 2.875-.921.777-1.168 2.043-2.191 2.726-1.266.535-2.777-.488-3.945.39-1.071.634-2.242-.148-3.215-.632-1.609-.73-3.656-.781-5.164.293-1.024.438-2.289.438-2.973 1.41 0 1.219-1.168 2.438-2.34 1.707-1.558-.097-2.875.926-3.996 1.95-.582.484-1.41 1.312-2.289.828m-6.769-2.829c-1.414.293-.828-2.726.195-1.41.289.34.926 2.094-.195 1.41m7.937-.242c-1.019-.242-1.07-2.242.102-2.191 1.168.097 1.461 2.433.093 2.289a.4.4 0 0 1-.195-.098m.051-.144c-1.461-.196 0-2.828.73-1.317.34.485.149 1.899-.73 1.317m-8.281-.098c-1.414-.488 1.168-1.805.777-.246-.047.39-.582.684-.777.246m35.175-.344c-.73-.535-2.339-.632-2.437-1.507 1.363-.344 2.777 0 4.141-.391 2.488-.586 4.824-1.805 7.359-2.29.68-.292-1.121-.05-1.414.048-3.02.535-5.75 2.144-8.867 2.191-.828.39-2.825 0-2.094-1.215 1.023-1.465 2.777-2.144 4.383-2.73 3.121-.973 6.383-1.461 9.597-1.121 1.903.195 3.754.73 5.411 1.656-.829.977-2.34.195-3.215 1.023-3.461 1.559-6.532 4.192-10.426 4.63-.828.05-1.66 0-2.438-.294m-35.71-3.8c-.344-.926-1.512-2.239-.442-3.067 1.074-.293 1.902 1.215 1.414 2.043.195-.777-.683-2.336-1.512-1.46-.535 1.171.735 2 1.27 2.827-.246.047-.535-.097-.73-.344m12.761-3.262c-1.023-.39-.535-2.68.637-1.95.875.438.73 2.63-.441 2.145l-.098-.097zm.344.144c-1.219-.046-.586-2.68.437-1.656.438.488.536 1.805-.437 1.656m7.891-1.07c.683-1.363-1.754-.828-1.317-.535-.047-1.27 2.293-.637 1.461.484 0 .098-.144.344-.144.051m8.918-.246c-1.266-.387-.149-2.922.875-1.703.39.293.339 1.558.293 1.46.632-.925-1.512-2.093-1.512-.73-.145.145.976 1.414.344.973m7.89-1.559c.246-.34 1.61-1.023.781-.097-.246.148-.535.195-.781.097m-33.519-.875c.73-.925-1.657-1.511-1.219-.343-1.117-1.215 2.098-1.364 1.269.097 0 .051.047.586-.05.246m33.617-.05c-.875-.778-1.07-2.485 0-3.165 1.219.047 1.512 1.657 1.023 2.532-.195.39-.586.828-1.023.633m-.34-.68c-.977-.781.488-2.875 1.266-1.512.437.684-.047 2.34-1.071 1.805a1 1 0 0 1-.195-.293m7.309-2.098c-1.172-.73.925-2.824 1.214-1.215-.144.633-.535-.976-1.07-.246-.34.438-.293 1.27-.144 1.461m-37.907-2.043c-.73-.828 1.317.242.293.192-.097 0-.195-.094-.293-.192m-10.472-.293c-.442-.976 1.949-.976 1.019-2.097-.144-.829-1.558-.68-1.461.148-.633-.926 1.172-1.46 1.512-.488.828.926-.684 1.851-.437 2.484.437.633-.489.098-.633-.047m10.472-.586c-.875-.586-.586-2.535.633-2.437.926.344.926 1.707.391 2.39-.196.29-.781.485-1.024.047m0-.195c-.828-.535-.144-2.047.782-1.851.777.437.488 2.288-.489 2.097a1.4 1.4 0 0 1-.293-.246m20.024-.098c-1.313-.437 0-2.824.976-1.703.731.633.047 2.727-.976 1.703m.097-.144c-1.46-.633 1.172-2.34 1.024-.633.148.535-.68 1.508-1.024.633m-9.937-.535c-.586-.828-1.707-2.39-.535-3.121.972-.243 1.414 1.367 1.265 1.754.34-1.118-1.851-1.95-1.511-.438 0 .684 1.218 1.512.976 1.805zm23.336-1.754c.293-.246.926-1.754.879-.637-.149.344-.488.637-.879.637m-.484-1.172c-1.024-.633-1.708-2.145-1.024-3.262.973-.637 1.996.582 2.047 1.461.094.582-.148.828-.148.098 0-1.27-2.145-1.707-1.95-.149.098.926.879 1.754 1.852 1.754-.195.196-.586.344-.777.098m6.085-4.434c.051-.39 1.27-1.07.735-.242-.149.195-.488.39-.735.242m-46.625-.39c-.972-.582.879-2.043 1.172-1.02-.683-.879-1.316.387-1.172 1.02m24.071-.145c-1.024-.34-.633-2.34.484-2.094 1.024.34 1.074 2.485-.191 2.29l-.149-.051zm.195 0c-1.465-.242.098-2.777.731-1.265.293.488.097 1.949-.731 1.265m21.875-.683c-.781-.68-.828-2.434.34-2.63 1.219.294 1.461 2.387.293 2.876a.64.64 0 0 1-.633-.246m.145-.047c-1.266-.438-.196-3.02.879-1.754.437.633.242 2.289-.879 1.754m-38.829-1.414c.29-1.266-1.609-.293-1.46-.098-.149-1.363 2.386-.875 1.656.39-.149.149-.196-.195-.196-.292m25.137.195c-.097-.582 1.024-1.508.488-.39-.144.148-.292.292-.488.39m-1.07-1.266c-1.07-.39-1.266-2.777.195-2.484 1.071.293 1.656 2.145.535 2.727a.67.67 0 0 1-.73-.243m.051-.242c-1.414-.246-.293-2.875.777-1.61.633.536.34 2.583-.777 1.61m-16.664-.246c-.536-.777-1.219-2.094-.293-2.922.683-.34 1.511 1.508.586.438-1.266-.145-1.168 1.609-.196 2.047.242.195.684.972 0 .535zm-12.766-3.36c-.293-.976 1.316.778.098.047-.047 0-.047-.046-.098-.046m.195-.734c-.828-.73-.972-2.336.051-2.968 1.168-.051 1.559 1.507 1.117 2.386-.191.438-.679 1.024-1.168.582m.196.051c-.829-.535-1.024-2.242.097-2.484.973.097 1.071 1.46.586 2.144a.85.85 0 0 1-.683.34m36.054-1.852c.242-.292.926-1.8.973-.73-.145.39-.488.777-.973.73m-.976-1.558c-.778-.73-1.168-2.242-.196-2.973 1.075-.195 1.754 1.024 1.805 1.996.242.828-1.023 2.098-1.609.977m.144-.05c-1.117-.485-.828-3.118.637-2.24.875.485.973 2.68-.344 2.485l-.144-.097zm-11.886-2.68c-1.219-.34-.829-2.97.539-2.044.679.485.73 2.485-.539 2.043m-18.707-.243c-.879-.586-.34-2.582.875-2.144.828.586.441 2.68-.778 2.242a.1.1 0 0 1-.097-.098m18.707.051c-1.508-.293.195-2.875.781-1.219.242.485 0 1.801-.781 1.219m-18.61-.05c-1.219-.587.535-2.825.973-1.317.148.586-.242 1.656-.973 1.316m11.012-.536c-1.317-.437-.195-3.07.777-1.805.344.637.047.489-.242.098-1.512-.34-1.074 2.387.34 1.754.437.246-1.024.441-.875-.047m7.355-6.285c1.121-.781-1.074-2.824-1.218-1.316.097.34.488 1.363-.196.683-.73-.976 1.024-2.289 1.512-1.023.242.488.535 1.316-.098 1.656m-13.738-1.805c-1.172-.34-.535-2.773.633-1.945.926.484.633 2.922-.633 1.945m.242.149c-1.363-.196-.195-2.875.633-1.461.293.535.293 1.8-.633 1.46m5.895-4.14c-1.266-.392-.391-2.927.73-1.95.246.34.637 1.46.246.488-.828-.832-2 .582-.976 1.215.148.098.344.586 0 .246"/><path fill="#ffc13f" d="M766.379 88.29c-1.512-.345.535-2.583.781-.88.195.488-.195 1.61-.781.88m-8.621-.294c-.539-1.27 1.945-.05.68.39a1.4 1.4 0 0 1-.68-.39m-.246-4.727c-1.168-.148-.438-2.484.535-1.656.539.438.488 2.243-.535 1.656m13.008-2.437c-1.508-.242.441-2.68.781-1.023.195.488-.098 1.754-.781 1.023m7.164-.242c-1.461-.535 1.07-2.387.777-.633 0 .39-.391 1.07-.777.633m-24.946-.684c-1.121-.633 1.168-1.605.684-.34.047.391-.586.926-.684.34m34.836-.293c-1.414-.582.973-2.484.973-.73.144.488-.488 1.511-.973.73m-26.601-2.043c-1.317-.293.73-2.144.73-.73.34.437-.437 1.605-.73.73m34.297-.78c-.633-.587-.34-2.243.632-2.095 1.024.39.586 2.532-.582 2.094zm7.308-2.388c-1.219-.879 1.61-1.851.875-.39-.094.34-.582.879-.875.39m-48.183-2.875c-1.317-.144-.34-2.824.535-1.511.242.539.144 1.465-.535 1.511m10.132-.144c-.925-.54.196-2.39.977-1.61.484.586-.051 2.29-.977 1.61m20.172-.344c-1.461-.68 1.266-2.14.926-.437.098.488-.73 1.316-.926.437m-10.328-1.508c-1.512-.293.484-2.73.777-1.023.196.484-.097 1.754-.777 1.023m22.848-2.387c-1.024-.488-.731-3.023.633-2.097.828.535.878 2.484-.387 2.289l-.098-.047zm-39.852-3.949c-1.172-.68 1.168-2.191.926-.582.047.438-.586 1.215-.926.582m23.871-.68c-1.461-.343.633-2.535.828-.925.293.484-.242 1.8-.828.926m22.317-.44c-.828-.29-.926-1.997.047-2.141.972.097 1.07 2.14-.047 2.14m-40-.731c-1.317-.73 1.265-2.14.875-.582.05.437-.582 1.215-.875.582m25.187-2.047c-.972-.145-.926-1.8 0-1.945.926.097 1.363 1.898.34 2.093a.45.45 0 0 1-.34-.148m-16.953-1.266c-1.465-.437.777-2.433.875-.828.195.488-.391 1.61-.875.828m-12.473-3.457c-1.171-.586.098-2.972.973-1.656.391.633 0 2.238-.973 1.656m35.465-3.168c-1.117-.488-.582-3.07.684-2.047.828.535.828 2.535-.438 2.243l-.097-.098zm-30.449-2.922c-1.312-.539.731-2.73.926-1.074.051.488-.293 1.363-.926 1.074m18.465-.05c-1.461-.489.926-2.387.926-.778.195.485-.438 1.559-.926.778m-7.113-.293c-1.508-.098-.145-2.922.488-1.22.195.442.144 1.22-.488 1.22m6.14-6.868c-1.461-.73 1.219-2.195 1.024-.539.195.637-.782 1.414-1.024.54m-12.812-1.464c-1.512-.34.679-2.532.828-.875.144.437-.344 1.707-.828.875m6.187-4.043c-1.511-.438.778-2.485.875-.828.149.44-.39 1.609-.875.828"/></g><path fill="#bc9a16" d="M562.41 71.871c0-68.598 90.555-70.863 170.082-70.863 79.528 0 170.078 2.265 170.078 70.863 0-15.652-76.148-28.344-170.078-28.344-93.933 0-170.082 12.692-170.082 28.344"/><path fill="none" stroke="#000" stroke-linecap="round" stroke-linejoin="round" stroke-width="2" d="M562.41 71.871c0-68.598 90.555-70.863 170.082-70.863 79.528 0 170.078 2.265 170.078 70.863 0-15.652-76.148-28.344-170.078-28.344-93.933 0-170.082 12.692-170.082 28.344"/><path fill="#cc9c6f" d="M458.871 357.938c0 3.914-3.172 7.085-7.086 7.085s-7.086-3.171-7.086-7.085 3.172-7.086 7.086-7.086 7.086 3.171 7.086 7.086"/><path fill="none" stroke="#000" stroke-linecap="round" stroke-linejoin="round" stroke-width="2" d="M458.871 357.938c0 3.914-3.172 7.085-7.086 7.085s-7.086-3.171-7.086-7.085 3.172-7.086 7.086-7.086 7.086 3.171 7.086 7.086"/><circle cx="451.785" cy="357.938" r="1"/><path fill="#cc9c6f" d="M437.609 54.629h28.348v340.156h-28.348Z"/><path fill="none" stroke="#000" stroke-linecap="round" stroke-linejoin="round" stroke-width="2" d="M437.609 54.629h28.348v340.156h-28.348z"/><path fill="#cc9c6f" d="M458.871 357.938c0 3.914-3.172 7.085-7.086 7.085s-7.086-3.171-7.086-7.085 3.172-7.086 7.086-7.086 7.086 3.171 7.086 7.086"/><path fill="none" stroke="#000" stroke-linecap="round" stroke-linejoin="round" stroke-width="2" d="M458.871 357.938c0 3.914-3.172 7.085-7.086 7.085s-7.086-3.171-7.086-7.085 3.172-7.086 7.086-7.086 7.086 3.171 7.086 7.086"/><path fill="#cc9c6f" d="M454.617 394.785c3.641 3.824 5.672 8.899 5.672 14.176s-2.031 10.352-5.672 14.172h-5.668c-3.636-3.82-5.668-8.895-5.668-14.172s2.032-10.352 5.668-14.176z"/><path fill="none" stroke="#000" stroke-linecap="round" stroke-linejoin="round" stroke-width="2" d="M454.617 394.785c3.641 3.824 5.672 8.899 5.672 14.176s-2.031 10.352-5.672 14.172h-5.668c-3.636-3.82-5.668-8.895-5.668-14.172s2.032-10.352 5.668-14.176z"/><path fill="#cc9c6f" d="M463.121 434.473c0 6.261-5.074 11.34-11.336 11.34s-11.34-5.079-11.34-11.34 5.078-11.34 11.34-11.34 11.336 5.078 11.336 11.34"/><path fill="none" stroke="#000" stroke-linecap="round" stroke-linejoin="round" stroke-width="2" d="M463.121 434.473c0 6.261-5.074 11.34-11.336 11.34s-11.34-5.079-11.34-11.34 5.078-11.34 11.34-11.34 11.336 5.078 11.336 11.34"/><path fill="#cc9c6f" d="M494.305 26.281c-13.692 0-22.676 13.625-22.676 28.348h-39.688c0-14.723-8.988-28.348-22.675-28.348z"/><path fill="none" stroke="#000" stroke-linecap="round" stroke-linejoin="round" stroke-width="2" d="M494.305 26.281c-13.692 0-22.676 13.625-22.676 28.348h-39.688c0-14.723-8.988-28.348-22.675-28.348z"/></g></svg>