<svg xmlns="http://www.w3.org/2000/svg" width="332pt" height="332pt" viewBox="0 -332 332 332"><g id="page1"><path fill="#79ac14" d="M213.094-237.008c9.742-16.832 23.031-36.32 32.773-48.722 0-3.543-.883-7.086-.883-11.512-3.546-17.719-18.605-31.004-34.546-28.348-15.946 2.656-26.579 19.488-23.036 38.09.887 7.973 7.09 26.574 14.176 45.176 3.543.886 7.973 2.66 11.516 5.316"/><path fill="none" stroke="#000" stroke-linecap="round" stroke-linejoin="round" stroke-width="11.25" d="M213.094-237.008c9.742-16.832 23.031-36.32 32.773-48.722 0-3.543-.883-7.086-.883-11.512-3.546-17.719-18.605-31.004-34.546-28.348-15.946 2.656-26.579 19.488-23.036 38.09.887 7.973 7.09 26.574 14.176 45.176 3.543.886 7.973 2.66 11.516 5.316"/><path fill="#79ac14" d="M237.012-213.09c16.828-9.746 36.316-23.031 48.718-32.777 3.543 0 7.086.887 11.516.887 17.719 3.542 31.004 18.601 28.348 34.546s-19.489 25.692-38.09 23.032c-7.973-.887-26.574-7.086-45.18-14.172-.886-3.543-2.656-7.973-5.312-11.516"/><path fill="none" stroke="#000" stroke-linecap="round" stroke-linejoin="round" stroke-width="11.25" d="M237.012-213.09c16.828-9.746 36.316-23.031 48.718-32.777 3.543 0 7.086.887 11.516.887 17.719 3.542 31.004 18.601 28.348 34.546s-19.489 25.692-38.09 23.032c-7.973-.887-26.574-7.086-45.18-14.172-.886-3.543-2.656-7.973-5.312-11.516"/><path fill="#a4cd34" d="M226.379-226.379q6.644 5.315 10.633 13.289c22.144-11.515 49.605-31.89 57.578-39.863 13.289-13.289 14.172-32.777 2.656-44.289-10.629-11.52-31.004-9.746-44.293 2.656-7.969 7.973-27.457 35.434-39.859 57.578q7.97 3.984 13.285 10.629"/><path fill="none" stroke="#000" stroke-linecap="round" stroke-linejoin="round" stroke-width="11.25" d="M226.379-226.379q6.644 5.315 10.633 13.289c22.144-11.515 49.605-31.89 57.578-39.863 13.289-13.289 14.172-32.777 2.656-44.289-10.629-11.52-31.004-9.746-44.293 2.656-7.969 7.973-27.457 35.434-39.859 57.578q7.97 3.984 13.285 10.629"/><path fill="#f26d21" d="M226.379-226.379c-27.457-27.461-72.637-25.687-100.984 3.543-44.29 44.293-146.16 178.05-113.383 210.828 32.773 32.774 166.535-69.094 210.824-113.387 29.234-29.234 31.004-73.523 3.543-100.984"/><path fill="#ce5c1c" d="M226.379-226.379c11.516 25.691 5.316 58.465-16.828 80.609C167.914-104.133 47.445-12.894 5.809-27.953c0 7.086 1.773 12.402 6.203 15.945 32.773 32.774 166.535-69.094 210.824-113.387 29.234-28.347 31.004-73.523 3.543-100.984"/><g fill="none" stroke="#000" stroke-linecap="round" stroke-linejoin="round" stroke-width="11.25"><path d="M217.523-119.191s-26.578-8.86-53.152-35.438m-52.262 28.348s-16.832-15.059-34.546-39.86m102.753 77.95s-22.144-6.2-36.32-20.372m7.09 41.633s-23.031-4.43-46.949-28.347m-61.121-18.602s9.742 18.602 29.23 34.547m32.777-121.356s5.313 15.946 20.372 31M48.328-39.469S60.73-25.297 75.79-19.094m191.339-248.035-40.75 40.75m-8.856-56.691 5.313 30.117m60.238 35.433-30.121-5.316"/><path d="M226.379-226.379c-27.457-27.461-72.637-25.687-100.984 3.543-44.29 44.293-146.16 178.05-113.383 210.828 32.773 32.774 166.535-69.094 210.824-113.387 29.234-29.234 31.004-73.523 3.543-100.984"/></g></g></svg>