<svg xmlns="http://www.w3.org/2000/svg" width="868" height="46pt" viewBox="0 -46 651 46"><g id="page1"><path fill="none" stroke="#000" stroke-linecap="round" stroke-linejoin="round" d="M.5-.504h649.629M.5-44.746h649.629M.5-.504v-44.242M46.902-.504v-44.242M93.305-.504v-44.242M139.707-.504v-44.242M186.109-.504v-44.242M232.508-.504v-44.242M278.91-.504v-44.242M325.313-.504v-44.242M371.715-.504v-44.242M418.117-.504v-44.242M464.52-.504v-44.242M510.922-.504v-44.242M557.324-.504v-44.242M603.727-.504v-44.242M650.129-.504v-44.242"/><path d="M26.426-32.156c0-.453 0-.575-.332-.575-.192 0-.266 0-.457.286l-7.192 11.16v.695h6.285v2.176c0 .883-.046 1.121-1.793 1.121h-.476v.691c.547-.046 2.437-.046 3.105-.046s2.582 0 3.13.046v-.691h-.477c-1.719 0-1.793-.238-1.793-1.121v-2.176h2.414v-.695h-2.414zm-1.574 1.863v9.008h-5.809zm40.429-1.625c0-.55 0-.574-.476-.574-.575.648-1.77 1.531-4.23 1.531v.691c.55 0 1.745 0 3.058-.62v12.449c0 .863-.07 1.148-2.172 1.148h-.742v.691c.644-.046 2.96-.046 3.75-.046.789 0 3.086 0 3.726.046v-.691h-.738c-2.101 0-2.176-.285-2.176-1.148zm16.172.477v-.547h-5.762c-2.89 0-2.937-.313-3.035-.766h-.523l-.742 4.777h.523c.074-.43.29-1.91.602-2.171.187-.145 1.98-.145 2.316-.145h5.066l-2.535 3.633c-.644.933-3.058 4.851-3.058 9.344 0 .261 0 1.218.98 1.218 1.004 0 1.004-.933 1.004-1.242v-1.195c0-3.563.574-6.332 1.695-7.934zm36.129-.477c0-.55 0-.574-.477-.574-.574.648-1.769 1.531-4.23 1.531v.691c.551 0 1.742 0 3.059-.62v12.449c0 .863-.075 1.148-2.176 1.148h-.738v.691c.644-.046 2.96-.046 3.75-.046.789 0 3.082 0 3.726.046v-.691h-.738c-2.102 0-2.176-.285-2.176-1.148zm48.145-.238c0-.453 0-.575-.336-.575-.188 0-.262 0-.453.286l-7.192 11.16v.695h6.285v2.176c0 .883-.047 1.121-1.793 1.121h-.48v.691c.551-.046 2.437-.046 3.109-.046.668 0 2.578 0 3.129.046v-.691h-.476c-1.723 0-1.793-.238-1.793-1.121v-2.176h2.414v-.695h-2.414zm-1.579 1.863v9.008h-5.804zm42.29 5.379c0-6.047 2.941-7.004 4.23-7.004.863 0 1.723.262 2.176.98-.289 0-1.196 0-1.196.981 0 .523.36.98.981.98.598 0 1.004-.359 1.004-1.054 0-1.242-.91-2.461-2.988-2.461-3.012 0-6.165 3.082-6.165 8.34 0 6.574 2.868 8.054 4.899 8.054 2.605 0 4.828-2.27 4.828-5.379 0-3.175-2.223-5.304-4.613-5.304-2.125 0-2.914 1.84-3.156 2.511zm2.941 8.172c-1.508 0-2.223-1.34-2.438-1.84-.214-.621-.453-1.793-.453-3.465 0-1.89.86-4.254 3.008-4.254 1.317 0 2.008.883 2.367 1.695.383.883.383 2.079.383 3.106 0 1.219 0 2.297-.453 3.203-.598 1.149-1.457 1.555-2.414 1.555m49.148-15.414c0-.453 0-.575-.336-.575-.187 0-.261 0-.453.286l-7.191 11.16v.695h6.281v2.176c0 .883-.047 1.121-1.789 1.121h-.48v.691c.55-.046 2.437-.046 3.109-.046.668 0 2.578 0 3.129.046v-.691h-.477c-1.722 0-1.793-.238-1.793-1.121v-2.176h2.414v-.695h-2.414zm-1.578 1.863v9.008h-5.808zm40.332-1.625c0-.55 0-.574-.476-.574-.575.648-1.77 1.531-4.231 1.531v.691c.551 0 1.746 0 3.059-.62v12.449c0 .863-.07 1.148-2.172 1.148h-.742v.691c.644-.046 2.961-.046 3.75-.046s3.086 0 3.726.046v-.691h-.738c-2.102 0-2.176-.285-2.176-1.148zm16.172.477v-.547h-5.762c-2.89 0-2.937-.313-3.035-.766h-.523l-.742 4.777h.523c.074-.43.289-1.91.602-2.171.187-.145 1.98-.145 2.316-.145h5.066l-2.535 3.633c-.644.933-3.058 4.851-3.058 9.344 0 .261 0 1.218.98 1.218 1.004 0 1.004-.933 1.004-1.242v-1.195c0-3.563.574-6.332 1.695-7.934zm30.231-.477c0-.55 0-.574-.481-.574-.57.648-1.765 1.531-4.226 1.531v.691c.546 0 1.742 0 3.054-.62v12.449c0 .863-.07 1.148-2.172 1.148h-.742v.691c.645-.046 2.965-.046 3.754-.046.785 0 3.082 0 3.727.046v-.691h-.743c-2.101 0-2.171-.285-2.171-1.148zm16.168.477v-.547h-5.758c-2.895 0-2.942-.313-3.039-.766h-.524l-.742 4.777h.527c.071-.43.286-1.91.598-2.171.191-.145 1.984-.145 2.316-.145h5.067l-2.531 3.633c-.649.933-3.059 4.851-3.059 9.344 0 .261 0 1.218.981 1.218 1 0 1-.933 1-1.242v-1.195c0-3.563.574-6.332 1.699-7.934zm32.187 6.527c0-6.047 2.938-7.004 4.231-7.004.859 0 1.718.262 2.175.98-.289 0-1.199 0-1.199.981 0 .523.363.98.981.98.601 0 1.007-.359 1.007-1.054 0-1.242-.91-2.461-2.988-2.461-3.012 0-6.168 3.082-6.168 8.34 0 6.574 2.867 8.054 4.899 8.054 2.605 0 4.828-2.27 4.828-5.379 0-3.175-2.223-5.304-4.61-5.304-2.129 0-2.918 1.84-3.156 2.511zm2.938 8.172c-1.504 0-2.219-1.34-2.438-1.84-.211-.621-.449-1.793-.449-3.465 0-1.89.855-4.254 3.008-4.254 1.316 0 2.007.883 2.367 1.695.383.883.383 2.079.383 3.106 0 1.219 0 2.297-.457 3.203-.594 1.149-1.457 1.555-2.414 1.555m41.507-15.176c0-.55 0-.574-.48-.574-.574.648-1.77 1.531-4.231 1.531v.691c.551 0 1.747 0 3.059-.62v12.449c0 .863-.07 1.148-2.172 1.148h-.742v.691c.645-.046 2.965-.046 3.754-.046.785 0 3.082 0 3.726.046v-.691h-.742c-2.101 0-2.172-.285-2.172-1.148zm15.524 7.672c0-1.985-.121-3.918-.981-5.738-.98-1.98-2.703-2.508-3.871-2.508-1.386 0-3.086.695-3.968 2.676-.668 1.507-.907 2.988-.907 5.57 0 2.316.164 4.062 1.028 5.758.929 1.816 2.578 2.39 3.824 2.39 2.078 0 3.273-1.242 3.965-2.629.859-1.793.91-4.132.91-5.52m-4.875 7.668c-.766 0-2.32-.43-2.774-3.031-.265-1.438-.265-3.25-.265-4.926 0-1.957 0-3.727.383-5.137.406-1.601 1.625-2.344 2.656-2.344.906 0 2.293.551 2.746 2.606.309 1.363.309 3.25.309 4.875 0 1.601 0 3.418-.262 4.875-.453 2.629-1.957 3.082-2.793 3.082m35.75-15.339c0-.55 0-.574-.477-.574-.574.648-1.769 1.531-4.23 1.531v.691c.551 0 1.742 0 3.058-.62v12.449c0 .863-.074 1.148-2.175 1.148h-.739v.691c.645-.046 2.961-.046 3.75-.046s3.082 0 3.727.046v-.691h-.742c-2.102 0-2.172-.285-2.172-1.148zm16.168.477v-.547h-5.758c-2.895 0-2.941-.313-3.035-.766h-.528l-.738 4.777h.524c.074-.43.289-1.91.597-2.171.192-.145 1.985-.145 2.317-.145h5.066l-2.531 3.633c-.645.933-3.059 4.851-3.059 9.344 0 .261 0 1.218.981 1.218 1.004 0 1.004-.933 1.004-1.242v-1.195c0-3.563.574-6.332 1.695-7.934zm33.644 6.261c-.402.024-.5.047-.5.266 0 .238.118.238.551.238h1.098c2.031 0 2.937 1.672 2.937 3.965 0 3.133-1.625 3.969-2.793 3.969-1.148 0-3.105-.551-3.8-2.13.765.122 1.457-.308 1.457-1.167 0-.695-.5-1.172-1.168-1.172-.575 0-1.196.332-1.196 1.242 0 2.125 2.125 3.871 4.778 3.871 2.843 0 4.949-2.175 4.949-4.59 0-2.195-1.77-3.918-4.063-4.324 2.078-.597 3.414-2.34 3.414-4.207 0-1.886-1.957-3.273-4.277-3.273-2.387 0-4.156 1.457-4.156 3.203 0 .957.742 1.148 1.097 1.148.504 0 1.079-.359 1.079-1.078 0-.765-.575-1.097-1.102-1.097-.145 0-.191 0-.262.023.907-1.625 3.153-1.625 3.274-1.625.789 0 2.34.36 2.34 2.7 0 .452-.071 1.792-.762 2.82-.719 1.05-1.531 1.125-2.176 1.148zm46.618 4.567h-.524c-.07.406-.262 1.718-.5 2.101-.168.215-1.531.215-2.246.215h-4.422c.645-.55 2.102-2.078 2.723-2.652 3.633-3.348 4.969-4.59 4.969-6.953 0-2.75-2.172-4.59-4.946-4.59s-4.398 2.367-4.398 4.422c0 1.218 1.054 1.218 1.125 1.218.5 0 1.125-.359 1.125-1.125 0-.668-.457-1.12-1.125-1.12-.215 0-.262 0-.336.023.457-1.625 1.746-2.723 3.301-2.723 2.031 0 3.273 1.695 3.273 3.895 0 2.03-1.172 3.8-2.535 5.328l-4.828 5.402v.57h8.726zm11.894-3.633c0-1.985-.121-3.918-.98-5.738-.981-1.98-2.704-2.508-3.872-2.508-1.386 0-3.082.695-3.968 2.676-.668 1.507-.907 2.988-.907 5.57 0 2.316.168 4.062 1.028 5.758.93 1.816 2.582 2.39 3.824 2.39 2.078 0 3.273-1.242 3.965-2.629.859-1.793.91-4.132.91-5.52m-4.875 7.668c-.766 0-2.32-.43-2.773-3.031-.262-1.438-.262-3.25-.262-4.926 0-1.957 0-3.727.383-5.137.406-1.601 1.625-2.344 2.652-2.344.906 0 2.293.551 2.746 2.606.313 1.363.313 3.25.313 4.875 0 1.601 0 3.418-.262 4.875-.457 2.629-1.961 3.082-2.797 3.082m45.281-4.034h-.523c-.074.406-.262 1.718-.5 2.101-.168.215-1.531.215-2.25.215h-4.418c.644-.55 2.101-2.078 2.723-2.652 3.632-3.348 4.968-4.59 4.968-6.953 0-2.75-2.172-4.59-4.945-4.59s-4.398 2.367-4.398 4.422c0 1.218 1.05 1.218 1.125 1.218.5 0 1.121-.359 1.121-1.125 0-.668-.453-1.12-1.121-1.12-.215 0-.262 0-.336.023.457-1.625 1.746-2.723 3.3-2.723 2.032 0 3.274 1.695 3.274 3.895 0 2.03-1.172 3.8-2.535 5.328l-4.828 5.402v.57h8.722z"/></g></svg>