<svg xmlns="http://www.w3.org/2000/svg" width="188pt" height="68" viewBox="0 -51 188 51"><g id="page1"><g fill-rule="evenodd"><path d="M26.254-48.648c-1.25.77-2.395 2.23-2.395 3.082 0 .504.453 1.222 1.41 2.23.77.824 1.7 2.074 2.047 2.793l.61 1.3-.742 1.49c-.426.823-1.036 2.39-1.356 3.507-3.48 11.32-7.043 15.465-19.215 22.27C2.813-9.88 1.484-8.84.61-7.462c-.824 1.383-.824 2.793.079 4.094C3.293.488 13.816.008 22.558-4.352c6.407-3.16 11.083-7.703 13.5-13.101 2.766-6.082 3.43-12.434 1.837-17.297-.614-1.863-2.473-4.625-3.641-5.395-.8-.53-1.066-.957-1.465-2.472-.742-2.739-2.285-5.633-3.266-6.14-1.09-.56-2.234-.532-3.27.109m3.027 2.39c-.316.586-.238.903.532 2.418 1.199 2.363 2.472 6.457 3.03 9.7 2.391 14.058-8 27.265-23.624 30.003-1.356.239-3.11.426-3.88.426-1.066 0-1.437.133-1.648.555-.265.508-.187.586.77.851 1.57.453 6.191.375 8.851-.132 8.29-1.567 15.786-6.192 19.797-12.25 5.793-8.692 6.004-20.622.426-24.477-1.012-.691-1.222-1.063-1.887-3.188-.664-2.152-1.675-4.543-1.941-4.543-.027 0-.238.29-.426.637m-2.23 1.516-.93.398.98 1.246c.508.692 1.172 1.836 1.438 2.555.504 1.273.504 1.273-.371 3.348-.453 1.14-1.25 3.375-1.754 4.914-1.996 6.246-3.855 9.46-7.496 13.101-2.816 2.817-4.703 4.149-10.55 7.524C3.663-8.973 2.015-7.86 1.804-7.273c-.082.187.398.878 1.035 1.566l1.172 1.223 2.23-.184c6.563-.559 13.102-3.348 17.75-7.629 3.801-3.508 6.274-7.52 7.574-12.305.747-2.734.907-8.98.293-11.503-.957-3.907-2.23-7.126-3.347-8.426-.504-.559-.61-.586-1.461-.211"/><path fill="#f5a701" d="M27.77-49.262c.21.082.449.055.554-.027.082-.105-.078-.16-.37-.16-.345.027-.4.082-.184.187m-2.954 1.567-.824.933.934-.824c.504-.48.902-.879.902-.93 0-.215-.215-.027-1.012.82m5.715-.051c.106.133.239.266.32.266.079 0 .051-.133-.027-.266-.105-.16-.238-.293-.32-.293-.078 0-.078.133.027.293m-1.25 1.488c-.316.586-.238.903.532 2.418 1.199 2.363 2.472 6.457 3.03 9.7 2.391 14.058-8 27.265-23.624 30.003-1.356.239-3.11.426-3.88.426-1.066 0-1.437.133-1.648.555-.265.508-.187.586.77.851 1.57.453 6.191.375 8.851-.132 8.29-1.567 15.786-6.192 19.797-12.25 5.793-8.692 6.004-20.622.426-24.477-1.012-.691-1.222-1.063-1.887-3.188-.664-2.152-1.675-4.543-1.941-4.543-.027 0-.238.29-.426.637m-.449 2.656c.531.88 1.168 2.235 1.434 3.004.265.77.53 1.356.586 1.274.343-.317-2.047-5.313-2.711-5.739-.16-.078.16.56.691 1.461m3.266-1.035c0 .211.082.293.187.184a.257.257 0 0 0 0-.371c-.105-.106-.187-.028-.187.187m-5.817.266c-.082.133.078.426.344.637.453.347.453.32.133-.078s-.32-.508 0-.641c.238-.078.265-.133.027-.156-.187 0-.426.078-.504.238m-1.144 1.168c.61.613 1.168 1.117 1.25 1.117.078 0-.371-.504-.985-1.117-.609-.637-1.168-1.14-1.25-1.14-.078 0 .375.503.985 1.14m7.226-.582c0 .21.11.289.215.183a.257.257 0 0 0 0-.37c-.105-.106-.215-.028-.215.187m-4.968 1.14c.109.16.242.293.32.293s.078-.132-.027-.293c-.106-.16-.239-.292-.32-.292-.079 0-.052.132.027.292m.746 1.145c.398.875.53 1.035.53.664 0-.16-.187-.531-.425-.824-.426-.531-.426-.504-.105.16m4.808-.293c0 .211.082.293.188.184a.257.257 0 0 0 0-.371c-.106-.106-.188-.028-.188.187m.985 1.434c.105.132.238.265.32.265.078 0 .078-.133-.027-.265-.11-.16-.243-.293-.32-.293-.079 0-.055.133.027.293m-5.262.265c0 .215.105.293.21.188a.32.32 0 0 0 0-.375c-.105-.106-.21-.024-.21.187m.21 1.117c-.105.477-.077.586.134.371a.76.76 0 0 0 .187-.663c-.082-.212-.215-.079-.32.292m2.13.32c0 .239.105.743.238 1.141.184.559.21.586.238.133 0-.32-.105-.824-.238-1.14-.16-.348-.238-.399-.238-.133m4.914.266c.105.157.238.29.32.29.078 0 .05-.133-.027-.29-.106-.132-.239-.265-.32-.265-.079 0-.051.133.027.265m-7.625.743c-.293.691-.215.879.133.32.156-.293.238-.586.156-.664-.05-.082-.211.078-.29.344m8.21.132c.079.133.239.266.294.266.078 0 .078-.133-.028-.266-.082-.16-.238-.293-.32-.293-.078 0-.05.133.055.293m-4.995 1.118c0 .21.105.293.21.183.083-.078.083-.265 0-.37-.105-.106-.21-.028-.21.187m-5.395.582c0 .214.078.293.184.187a.25.25 0 0 0 0-.371c-.106-.105-.184-.027-.184.184m1.434 0c0 .214.082.293.187.187s.106-.266 0-.371-.187-.027-.187.184m4.304.851c0 .399.055.559.133.348.082-.188.082-.508 0-.719-.078-.187-.133-.027-.133.371m-4.597 0c0 .215.082.293.187.188a.257.257 0 0 0 0-.371c-.105-.11-.187-.028-.187.183m-.293.852c0 .21.082.293.187.187a.26.26 0 0 0 0-.375c-.105-.105-.187-.027-.187.188m-1.7.851c0 .211.079.29.188.184a.257.257 0 0 0 0-.371c-.11-.106-.187-.028-.187.187m1.434 0c0 .211.082.29.188.184a.257.257 0 0 0 0-.371c-.106-.106-.188-.028-.188.187m5.504 2.418c0 1.567.023 2.153.105 1.328a26 26 0 0 0 0-2.843c-.081-.72-.105-.055-.105 1.515m6.164-1.968c0 .32.078.398.16.16.078-.188.078-.453 0-.532-.105-.105-.187.078-.16.371m-11.957.398c0 .215.078.293.184.187a.257.257 0 0 0 0-.37c-.106-.11-.184-.028-.184.183m-1.437.293c0 .215.105.293.214.187a.32.32 0 0 0 0-.37c-.109-.11-.214-.028-.214.183m1.171.719c.024.343.079.398.157.183.11-.21.082-.449 0-.554-.106-.082-.157.078-.157.37m-1.437.133c0 .21.082.292.187.183a.257.257 0 0 0 0-.371c-.105-.105-.187-.027-.187.188m13.98.425c0 .477.051.61.133.344.078-.266.078-.664 0-.852-.082-.183-.133.028-.133.508m-13.129.98c0 .216.079.294.184.188.11-.078.11-.265 0-.37-.105-.11-.183-.028-.183.183m-.293.852c0 .215.079.293.188.215a.295.295 0 0 0 0-.402c-.11-.106-.187 0-.187.187m-.53 1.301c-.454 1.04-.372 1.277.132.32.238-.453.399-.851.32-.93-.054-.054-.265.212-.453.61m13.952.559c0 .48.051.613.133.347.078-.265.078-.664 0-.851-.082-.188-.133.027-.133.504m-6.832.133c0 .398.055.558.133.374.082-.214.082-.53 0-.718-.078-.188-.133-.028-.133.343m-8.847 0c0 .214.078.292.183.187a.25.25 0 0 0 0-.371c-.105-.106-.183-.027-.183.183m8.531 1.597c.023.317.078.399.184.156.082-.183.054-.449-.028-.53-.105-.106-.156.081-.156.374m-8.266.688c-.16.32-.238.558-.16.558s.293-.238.453-.558c.157-.317.239-.582.157-.582-.079 0-.266.265-.45.582m15.094-.133c0 .348.078.398.16.187.078-.21.078-.453 0-.558-.105-.078-.187.082-.16.37m-7.094.586c0 .32.078.398.157.16.082-.188.082-.453-.024-.531-.082-.106-.16.05-.133.37m-8.746.718c-.105.211-.05.266.133.133.188-.105.348-.265.348-.32 0-.238-.266-.133-.48.188m8.426.239c0 .21.078.293.188.187.105-.082.105-.27 0-.375-.11-.105-.188-.023-.188.188m-10.39.344c-.133.187-.083.242.105.109.348-.188.453-.453.215-.453-.082 0-.215.16-.32.344m1.406.265c-.133.215-.078.266.133.133.32-.211.425-.45.187-.45-.055 0-.211.16-.32.317m-2.418 1.04c-.344.448-.344.448.11.105.476-.371.608-.61.398-.61-.082 0-.293.211-.508.504m1.41.265c-.348.45-.348.476.105.133.48-.371.637-.614.399-.614-.051 0-.293.215-.504.48m9.328-.055c-.293.719-.215.906.133.32.16-.265.238-.558.16-.636-.082-.082-.215.078-.293.316m7.2.133c0 .215.081.293.187.188a.257.257 0 0 0 0-.372c-.106-.109-.188-.027-.188.184m-.29.852c0 .21.078.293.184.187a.26.26 0 0 0 0-.375c-.106-.105-.184-.027-.184.188m-18.34 1.488-1.406 1.515 1.488-1.437c1.383-1.3 1.621-1.566 1.407-1.566-.051 0-.715.69-1.489 1.488m10.235-.055c-.11.188-.133.375-.055.453s.215-.054.293-.293c.21-.504.055-.61-.238-.16m-13.102.879c-.105.211-.055.266.133.133.183-.106.344-.266.344-.32 0-.239-.266-.133-.477.187m12.516.293c-.133.21-.078.266.133.133.187-.11.32-.266.32-.32 0-.239-.242-.133-.453.187m-13.793.742c-.344.453-.344.453.105.106.48-.371.64-.61.399-.61-.079 0-.29.239-.504.504m1.57.426-.531.637.637-.532c.343-.316.636-.582.636-.636 0-.239-.238-.082-.742.531m11.664-.32c-.133.215-.078.265.106.133.347-.212.453-.45.214-.45-.082 0-.214.133-.32.317m-14.219.586c-.132.187-.078.238.133.105.16-.105.32-.238.32-.32 0-.239-.238-.13-.453.215m13.5.453c-.37.449-.343.449.11.105.449-.37.61-.613.37-.613-.054 0-.265.215-.48.508m-14.347.105c-.133.211-.082.238.133.133.16-.105.316-.266.316-.348 0-.238-.266-.105-.45.215m2.258 0c-.106.211-.079.238.132.133.188-.105.32-.266.32-.348 0-.238-.242-.105-.452.215m-1.118.852c-.132.21-.078.265.11.133.183-.11.343-.266.343-.348 0-.211-.265-.106-.453.215m10.657 1.886-1.832 1.91 1.914-1.831c1.062-1.012 1.937-1.887 1.937-1.942 0-.183-.289.082-2.02 1.863M34.2-14.19c-.133.215-.082.266.133.133.16-.105.32-.265.32-.316 0-.242-.242-.133-.453.183m-24.45.3c-.133.215-.078.239.133.133.187-.133.32-.265.32-.344 0-.242-.242-.109-.453.211m2.285.106c-.531.426-.531.426.078.133.375-.157.64-.371.64-.426 0-.238-.132-.156-.718.293m-1.406.851c-.535.426-.535.426.078.133.344-.16.637-.37.637-.426 0-.238-.16-.16-.715.293m22.004.903c-.375.453-.348.48.105.11.477-.376.61-.587.371-.587-.054 0-.265.211-.476.477m-24 .242c-.531.422-.531.422.082.133.344-.16.637-.375.637-.453 0-.215-.133-.133-.72.32m13.34 1.062-.532.637.641-.558c.582-.504.77-.743.531-.743-.054 0-.347.29-.64.664m-15.332.079c-.532.425-.532.425.078.132.347-.187.64-.37.64-.453 0-.21-.132-.156-.718.32m14.191.742c-.105.187-.078.242.133.11.187-.11.32-.24.32-.321 0-.238-.242-.133-.453.21m-18.894.719c-.372.453-.348.48.105.105.477-.371.613-.582.371-.582-.05 0-.266.21-.477.476m2.417-.16c-.132.214-.082.242.133.132.16-.105.32-.265.32-.344 0-.238-.242-.105-.453.211m15.625 0c-.132.214-.078.242.133.132.188-.105.32-.265.32-.344 0-.238-.238-.105-.453.211M3.505-8.79c-.133.215-.078.266.133.133.16-.106.32-.266.32-.317 0-.242-.266-.132-.453.184m13.102 1.144c-1.25.61-1.965 1.036-1.567.93.852-.238 3.984-1.781 3.984-1.965 0-.187.215-.27-2.418 1.035m12.331-.69c-.37.452-.347.476.106.132.48-.371.613-.61.371-.61-.05 0-.266.211-.477.477M2.23-7.75l-.69.77.769-.692c.746-.637.93-.879.691-.879-.055 0-.398.375-.77.801M.66-7.937c-.133.21-.078.265.133.132.16-.105.32-.265.32-.32 0-.238-.238-.133-.453.188m27 .585c-.133.211-.078.239.133.133.16-.133.32-.265.32-.347 0-.239-.238-.106-.453.214m-13.95.98a.25.25 0 0 0 .372 0c.105-.077.027-.183-.187-.183-.211 0-.293.106-.184.184m-11.03.4c.082.16.242.265.32.265s.055-.106-.027-.266c-.106-.156-.266-.289-.317-.289-.082 0-.082.133.024.29m10.18-.106a.257.257 0 0 0 .37 0c.106-.106.028-.184-.183-.184-.215 0-.293.078-.188.184m-1.012.293c.214.078.453.078.558-.027.082-.079-.078-.16-.37-.133-.345 0-.4.082-.188.16m13.261.133c-.132.215-.078.265.106.132.187-.105.348-.265.348-.343 0-.215-.266-.11-.454.21m-14.375.16c.184.078.45.054.532-.028.105-.105-.082-.16-.371-.16-.32.028-.403.082-.16.188m-1.144.265c.215.079.453.079.531 0 .106-.105-.05-.187-.371-.16-.32 0-.398.082-.16.16m-5.953.477c.133.133.93.188 1.781.133l1.516-.078-1.754-.16c-.985-.079-1.676-.028-1.543.105m4.093-.184c.266.079.665.079.852 0 .184-.082-.027-.132-.508-.132-.476 0-.636.05-.344.132M.395-3.418c.105.156.242.29.32.29s.078-.134-.027-.29c-.106-.16-.239-.293-.317-.293-.082 0-.055.133.024.293m18.445.742a.257.257 0 0 0 .37 0c.106-.078.028-.187-.187-.187-.21 0-.293.11-.183.187m-.852.293c.078.106.266.106.371 0 .106-.105.028-.187-.183-.187-.215 0-.293.082-.188.187m-16.156.371c.078.16.238.293.316.293.082 0 .055-.133-.05-.293-.082-.133-.243-.265-.32-.265-.055 0-.055.132.054.265m15.277-.078c.11.106.293.106.403 0 .105-.11 0-.187-.188-.187-.215 0-.293.078-.215.187m-3.398.848a.25.25 0 0 0 .371 0c.105-.106.027-.184-.187-.184-.211 0-.293.078-.184.184M4.328-.95c.106.105.293.105.371 0 .11-.106.028-.184-.183-.184-.215 0-.293.078-.188.184m7.813 0c.214.082.453.082.558-.028.082-.105-.078-.156-.37-.156-.349.024-.4.078-.188.184m-6.137.293c.293.054.742.054 1.008 0 .265-.078.054-.133-.504-.133-.531 0-.77.055-.504.133m3.293 0c.348.054.851.054 1.117 0 .293-.078 0-.133-.637-.133-.613 0-.851.055-.48.133"/><path fill="#fcd900" d="m27.05-44.586-.636.32 1.008 1.356c.531.746 1.168 1.887 1.41 2.578.426 1.14.398 1.277-.242 2.656-.371.77-1.274 3.27-2.02 5.555-3.347 10.152-7.28 14.535-18.922 21.047-2.07 1.168-4.25 2.55-4.859 3.058l-1.117.954 1.14 1.144L3.984-4.75l2.47-.184C11-5.28 17.19-7.434 20.886-9.984c2.02-1.383 5.445-4.73 6.8-6.645 1.57-2.258 3.055-5.445 3.723-8.105.797-3.133.742-9.883-.082-12.649-.851-2.816-1.621-4.781-2.496-6.246-.797-1.379-.824-1.406-1.781-.957"/><path fill="#a7410e" d="M83.684-42.34c-.223.086-.446.223-.489.223s.399.484.977 1.062c.574.575 1.285 1.328 1.594 1.77a15 15 0 0 1 1.062 1.64c.223.485.531 1.286.707 1.727.133.488.266 1.285.313 1.727 0 .488.086.886.175.93.043.046.399.09.754.09.532 0 .664-.044.707-.177.047-.09 0-.535-.086-1.02-.09-.444-.312-1.327-.535-1.905-.175-.621-.484-1.461-.707-1.903-.222-.445-.62-1.195-.93-1.64a12 12 0 0 0-.93-1.286 15 15 0 0 1-.886-.796c-.266-.176-.574-.399-.754-.489a1.5 1.5 0 0 0-.441-.133c-.09 0-.309.09-.531.18m12.668 5.98h.53c.177-.046.044-.046-.265-.046-.265 0-.398 0-.265.047M81.469-7.436c.308.265.574.53.574.53.047 0-.176-.265-.484-.53-.266-.313-.532-.579-.578-.579-.043 0 .18.266.488.579M76.066-6.29c.266.312.532.578.575.578s-.176-.266-.489-.578c-.308-.266-.574-.531-.574-.531-.043 0 .176.265.488.53"/><path fill="red" d="M95.066-36.094c-.398.133-.886.309-1.02.399-.175.086-.929.53-1.636 1.015-.754.446-1.64.977-1.996 1.153-.574.265-.707.265-1.727.265-.886 0-1.195-.043-1.859-.265-.398-.133-1.594-.621-2.57-1.106-1.02-.445-2.168-.93-2.567-1.062s-1.062-.313-1.507-.356c-.665-.09-.93-.09-1.594.043-.442.09-1.242.356-1.774.578a9.6 9.6 0 0 0-1.636.75c-.356.223-.93.578-1.196.797-.312.27-.796.711-1.152 1.067-.355.351-.797.93-1.062 1.28a20 20 0 0 0-.797 1.466 9.5 9.5 0 0 0-.664 1.547c-.133.445-.356 1.199-.446 1.73-.132.531-.265 1.461-.308 2.082-.09.664-.09 1.68-.043 2.48.043.75.132 1.86.219 2.434.046.578.265 1.55.398 2.172.133.617.445 1.77.71 2.613.267.797.84 2.125 1.24 2.922.398.844 1.019 1.95 1.374 2.524.399.578.973 1.375 1.281 1.773.356.398 1.11 1.195 1.684 1.773.578.575 1.418 1.282 1.816 1.547.399.313.977.664 1.285.844.313.133 1.02.442 1.594.617a14.4 14.4 0 0 0 1.993.489c.62.09 1.242.132 1.773.09.488 0 1.152-.18 1.773-.356.75-.223 1.149-.309 1.817-.309.75-.047.93 0 2.21.442 1.02.398 1.508.488 1.95.488.355 0 .93-.09 1.332-.223.395-.09 1.062-.351 1.504-.53.441-.224 1.195-.575 1.637-.84a22 22 0 0 0 1.64-1.153c.442-.313 1.152-.973 1.594-1.418.445-.441 1.109-1.152 1.461-1.594.355-.441.933-1.242 1.285-1.726.313-.532.844-1.418 1.152-1.95.313-.53.797-1.507 1.11-2.171.261-.622.707-1.77.972-2.48.266-.708.575-1.727.707-2.302a28 28 0 0 0 .399-1.906c.047-.488.133-1.46.18-2.125.043-.71.043-1.684-.047-2.348-.043-.62-.219-1.55-.309-2.039-.09-.484-.308-1.285-.488-1.726-.133-.488-.442-1.195-.664-1.637a17 17 0 0 0-.883-1.508c-.27-.398-.754-1.02-1.152-1.418-.399-.351-.93-.886-1.286-1.105a12 12 0 0 0-1.375-.844 14 14 0 0 0-1.504-.617c-.355-.133-1.019-.266-1.417-.356-.442-.09-1.196-.175-1.727-.132-.754 0-1.11.043-1.684.222m-19.93 10.895c-.132.308-.355.887-.445 1.328-.132.441-.265 1.285-.351 1.816-.09.575-.133 1.727-.133 2.524 0 .886.043 1.992.133 2.523.086.535.219 1.332.351 1.774.09.441.356 1.242.578 1.773.22.531.618 1.371.93 1.86.309.53.797 1.238 1.106 1.683.355.398.976 1.063 1.418 1.504.441.445 1.195 1.062 1.636 1.418.489.309 1.153.754 1.551.93.399.18.8.355.977.355.175.043.265.043.265-.047 0-.043-.71-.797-1.508-1.637a60 60 0 0 1-2.082-2.214A29 29 0 0 0 78.5-11.07c-.266-.399-.707-1.196-.973-1.727a21 21 0 0 1-.796-1.863c-.133-.485-.399-1.238-.489-1.68-.09-.445-.265-1.242-.355-1.816-.086-.664-.176-2.04-.176-3.942-.043-1.64-.09-3.101-.09-3.28-.043-.177-.086-.352-.133-.352-.086 0-.219.265-.351.53"/><path d="M98.3-50.004c-.222.047-.753.398-1.198.797-.442.355-1.016.797-1.239.977-.308.218-.664.351-1.195.44-.399.048-1.328.224-2.04.313-1.062.176-1.413.266-2.081.618-.574.265-.93.53-1.371 1.02-.313.355-.754.929-.973 1.374-.222.442-.445.973-.535 1.149l-.086.355-.664-.488a16 16 0 0 0-1.508-.883c-.754-.355-.887-.398-1.328-.312-.266 0-.887.222-1.371.398-.621.266-.977.488-1.242.797-.223.222-.442.578-.488.797a1.9 1.9 0 0 0-.043.843c0 .223.132.575.265.754.09.22.441.575.754.84.309.223.93.754 1.328 1.196.399.398.973 1.062 1.238 1.46.266.399.489.754.446.797 0 0-.578-.218-1.242-.531-.708-.266-1.637-.617-2.083-.75a8.4 8.4 0 0 0-2.035-.223c-1.062 0-1.375.043-2.171.266-.485.176-1.329.441-1.817.664-.484.223-1.238.621-1.637.887-.445.222-1.195.797-1.683 1.195-.532.441-1.195 1.106-1.508 1.508-.352.398-.797.973-1.016 1.281-.222.356-.578 1.02-.843 1.508-.22.488-.575 1.238-.754 1.727-.176.488-.399 1.418-.532 2.082-.132.664-.308 1.816-.351 2.613-.09 1.062-.09 1.77 0 3.012.043.84.176 2.082.309 2.746.09.664.308 1.636.44 2.172.134.53.403 1.46.579 2.035.219.62.574 1.55.797 2.125.222.578.664 1.508.972 2.039.266.574.797 1.46 1.153 1.992.355.531.976 1.418 1.418 1.95.441.53 1.242 1.417 1.816 1.948a20 20 0 0 0 1.903 1.641c.488.395 1.332.883 1.863 1.195.574.266 1.328.575 1.77.707.445.176 1.195.356 1.683.489.488.09 1.46.218 2.172.218 1.195.047 1.371.047 2.258-.218a94 94 0 0 0 1.55-.399l.532-.18 1.594.532c1.417.488 1.636.535 2.48.535.797 0 1.105-.047 2.082-.313a19 19 0 0 0 2.566-1.062 35 35 0 0 0 2.352-1.371c.527-.403 1.547-1.285 2.301-2.04s1.683-1.726 1.992-2.171c.312-.442.887-1.238 1.242-1.77.356-.53.887-1.46 1.195-1.992.309-.531.797-1.598 1.106-2.305.355-.753.801-1.906 1.062-2.656.27-.71.579-1.863.754-2.48.133-.664.356-1.73.446-2.348.086-.71.175-1.773.175-2.836 0-1.152-.043-2.082-.175-2.836a25 25 0 0 0-.399-1.992c-.133-.531-.398-1.238-.531-1.637a25 25 0 0 0-.754-1.64 17 17 0 0 0-1.062-1.77c-.356-.445-.844-1.066-1.153-1.375a8.4 8.4 0 0 0-1.152-1.062 10.3 10.3 0 0 0-1.461-1.02c-.488-.309-1.328-.754-1.906-.973-.575-.222-1.547-.488-2.168-.62s-1.329-.223-1.594-.266h-.445l.53-.266c.313-.133.845-.531 1.196-.887.399-.398.8-.93 1.02-1.328.175-.398.441-1.02.531-1.418.133-.441.266-1.285.355-1.992.09-.664.176-1.773.223-2.437.043-.797.043-1.371-.047-1.637-.043-.223-.219-.578-.351-.754-.09-.176-.403-.441-.622-.531-.222-.133-.578-.266-.796-.266-.266-.043-.621 0-.797.043m-.355 2.703a14 14 0 0 1-1.46 1.02c-.356.175-.977.351-1.376.441-.441.09-1.28.223-1.859.266-.574.09-1.285.265-1.55.355a3.4 3.4 0 0 0-.93.621c-.223.22-.532.664-.707.973a5.2 5.2 0 0 0-.489 1.152c-.09.309-.176.887-.176 1.371 0 .399.086.977.133 1.196.086.265.219.668.309.933l.222.442.887-.489a9 9 0 0 1 1.461-.62c.266-.087 1.063-.22 1.684-.31.664-.042 1.37-.175 1.637-.265.265-.043.663-.176.886-.308.266-.133.617-.399.797-.579.133-.218.398-.53.488-.75.086-.18.266-.668.399-1.02.133-.398.265-1.108.351-1.64.09-.531.18-1.504.223-2.258 0-.707.043-1.285 0-1.285 0 0-.441.356-.93.754M83.684-42.34c-.223.086-.446.223-.489.223s.399.484.977 1.062c.574.575 1.285 1.328 1.594 1.77a15 15 0 0 1 1.062 1.64c.223.485.531 1.286.707 1.727.133.488.266 1.285.313 1.77.043.668 0 .843-.09.843-.043 0-.489-.133-.973-.265a45 45 0 0 1-1.906-.797 35 35 0 0 0-2.082-.93 33 33 0 0 0-1.86-.664c-.71-.18-1.062-.18-1.683-.133-.488 0-1.106.133-1.727.352-.53.18-1.328.531-1.816.754-.488.265-1.242.707-1.637 1.02-.402.308-1.02.84-1.285 1.195-.312.308-.8.886-1.066 1.285-.262.398-.617.972-.75 1.285-.18.351-.446.973-.621 1.46a47 47 0 0 0-.489 1.77 13 13 0 0 0-.308 1.641c-.043.398-.09 1.637-.043 2.7 0 1.152.086 2.437.175 3.015a27 27 0 0 0 .489 2.3c.176.712.484 1.817.664 2.391.219.621.574 1.598.84 2.13.222.573.71 1.46 1.02 2.034a38 38 0 0 0 1.237 1.907c.313.44.887 1.195 1.286 1.636.355.446 1.062 1.2 1.55 1.594.489.445 1.196.977 1.508 1.242.309.223.93.574 1.371.797.442.223 1.153.488 1.594.664.445.133 1.195.309 1.64.399.489.09 1.196.18 1.637.18.579 0 1.02-.09 2.04-.4.93-.269 1.418-.355 1.949-.355.574 0 .93.086 2.082.442 1.062.398 1.504.488 2.035.488.531.043.887-.043 1.55-.266.446-.132 1.243-.441 1.727-.71.531-.22 1.375-.708 1.863-1.063.532-.309 1.372-.93 1.817-1.328.441-.399 1.148-1.106 1.547-1.594.398-.441.976-1.11 1.242-1.508.309-.398.707-1.015.973-1.37.222-.4.664-1.153.976-1.684.309-.575.797-1.594 1.106-2.258.308-.711.797-1.95 1.109-2.836.266-.887.617-2.082.707-2.656a20 20 0 0 0 .309-1.993c.047-.488.09-1.375.09-1.996 0-.617-.043-1.636-.133-2.168-.09-.578-.223-1.418-.356-1.859a12 12 0 0 0-.441-1.508c-.176-.398-.442-1.062-.621-1.418-.176-.398-.574-1.02-.84-1.418a12.6 12.6 0 0 0-1.285-1.547c-.442-.445-1.063-.976-1.418-1.199a7.5 7.5 0 0 0-1.418-.797c-.442-.218-1.195-.531-1.68-.664-.488-.133-1.332-.265-1.95-.351-.929-.09-1.151-.09-1.815.043-.399.09-1.063.355-1.508.574-.399.18-1.286.71-1.95 1.11a16 16 0 0 1-1.636 1.019c-.313.086-.621.218-.754.265-.266.086-.266.043-.442-.886a14 14 0 0 0-.535-2.04c-.175-.62-.484-1.46-.707-1.902-.222-.445-.62-1.195-.93-1.64a12 12 0 0 0-.93-1.286 15 15 0 0 1-.886-.796c-.266-.176-.574-.399-.754-.489a1.5 1.5 0 0 0-.441-.133c-.09 0-.309.09-.531.18m9.078 4.649a8.5 8.5 0 0 0-1.02.53c-.351.18-.617.4-.617.49s0 .132.043.132c0 0 .266-.133.574-.355.27-.176.801-.442 1.11-.618.308-.18.488-.312.441-.312-.086 0-.309.09-.531.133M75.09-25.066c-.133.265-.309 1.02-.442 1.593-.132.575-.308 1.508-.355 1.992a31 31 0 0 0-.086 2.04c0 .62.043 1.593.133 2.214.086.622.262 1.504.394 2.036.133.488.356 1.199.489 1.55.133.399.398.977.578 1.329.176.355.617 1.066.93 1.55.355.489 1.062 1.375 1.593 1.907.489.53 1.285 1.285 1.77 1.593.445.356 1.242.84 1.73 1.106.532.27.973.445 1.149.398.18 0 .09-.176-1.063-1.281a79 79 0 0 1-2.078-2.215 38 38 0 0 1-1.332-1.86 12 12 0 0 1-1.02-1.73 28 28 0 0 1-.796-1.86 23 23 0 0 1-.575-2.214c-.132-.621-.265-1.684-.355-2.258a63 63 0 0 1-.086-3.367c0-1.238-.047-2.434-.09-2.656 0-.223-.09-.399-.133-.399s-.222.22-.355.532"/><path fill="#8a0" d="M97.945-47.3a14 14 0 0 1-1.46 1.019c-.356.175-.977.351-1.376.441-.441.09-1.28.223-1.859.266-.574.09-1.285.265-1.55.355a3.4 3.4 0 0 0-.93.621c-.223.22-.532.664-.707.973a5.2 5.2 0 0 0-.489 1.152c-.09.309-.176.887-.176 1.371 0 .399.086.977.133 1.196.086.265.219.668.309.933l.222.442.887-.489a9 9 0 0 1 1.461-.62c.266-.087 1.063-.22 1.684-.31.664-.042 1.37-.175 1.637-.265.265-.043.663-.176.886-.308.266-.133.617-.399.797-.579.133-.218.398-.53.488-.75.086-.18.266-.668.399-1.02.133-.398.265-1.108.351-1.64.09-.531.18-1.504.223-2.258 0-.707.043-1.285 0-1.285 0 0-.441.356-.93.754m3.985 42.519-.532.574.579-.531.574-.574-.043-.043z"/></g><path fill="#79ac14" d="M170.172-35.715c1.461-2.527 3.453-5.45 4.914-7.308 0-.532-.133-1.063-.133-1.73-.531-2.657-2.789-4.65-5.183-4.25-2.391.398-3.985 2.921-3.454 5.714.133 1.195 1.063 3.984 2.125 6.773.532.133 1.196.403 1.731.801"/><path fill="none" stroke="#000" stroke-linecap="round" stroke-linejoin="round" stroke-width="1.688" d="M170.172-35.715c1.461-2.527 3.453-5.45 4.914-7.308 0-.532-.133-1.063-.133-1.73-.531-2.657-2.789-4.65-5.183-4.25-2.391.398-3.985 2.921-3.454 5.714.133 1.195 1.063 3.984 2.125 6.773.532.133 1.196.403 1.731.801"/><path fill="#79ac14" d="M173.758-32.129c2.523-1.46 5.445-3.453 7.308-4.918.532 0 1.063.133 1.727.133 2.656.531 4.648 2.793 4.254 5.184-.402 2.39-2.926 3.851-5.715 3.453-1.195-.133-3.988-1.063-6.777-2.125-.133-.532-.399-1.196-.797-1.727"/><path fill="none" stroke="#000" stroke-linecap="round" stroke-linejoin="round" stroke-width="1.688" d="M173.758-32.129c2.523-1.46 5.445-3.453 7.308-4.918.532 0 1.063.133 1.727.133 2.656.531 4.648 2.793 4.254 5.184-.402 2.39-2.926 3.851-5.715 3.453-1.195-.133-3.988-1.063-6.777-2.125-.133-.532-.399-1.196-.797-1.727"/><path fill="#a4cd34" d="M172.164-34.121a5.9 5.9 0 0 1 1.594 1.992c3.32-1.727 7.441-4.785 8.637-5.98 1.992-1.993 2.125-4.914.398-6.645-1.594-1.727-4.652-1.46-6.645.402-1.195 1.196-4.117 5.313-5.976 8.637q1.195.598 1.992 1.594"/><path fill="none" stroke="#000" stroke-linecap="round" stroke-linejoin="round" stroke-width="1.688" d="M172.164-34.121a5.9 5.9 0 0 1 1.594 1.992c3.32-1.727 7.441-4.785 8.637-5.98 1.992-1.993 2.125-4.914.398-6.645-1.594-1.727-4.652-1.46-6.645.402-1.195 1.196-4.117 5.313-5.976 8.637q1.195.598 1.992 1.594"/><path fill="#f26d21" d="M172.164-34.121c-4.121-4.121-10.898-3.856-15.148.531-6.645 6.645-21.926 26.707-17.008 31.625 4.918 4.914 24.98-10.367 31.625-17.008 4.383-4.386 4.648-11.03.531-15.148"/><path fill="#ce5c1c" d="M172.164-34.121c1.727 3.852.797 8.77-2.527 12.09-6.242 6.246-24.317 19.93-30.559 17.672 0 1.062.266 1.859.93 2.394 4.918 4.914 24.98-10.367 31.625-17.008 4.383-4.254 4.648-11.03.531-15.148"/><g fill="none" stroke="#000" stroke-linecap="round" stroke-linejoin="round" stroke-width="1.688"><path d="M170.836-18.043s-3.988-1.328-7.973-5.316m-7.84 4.254s-2.527-2.262-5.183-5.98m15.414 11.691s-3.32-.93-5.449-3.055m1.062 6.246s-3.453-.664-7.039-4.254m-9.172-2.789s1.465 2.789 4.387 5.18m4.918-18.204s.797 2.391 3.055 4.653M145.453-6.086s1.863 2.125 4.121 3.055m28.699-37.203-6.109 6.113m-1.328-8.504.797 4.516m9.035 5.316-4.52-.797"/><path d="M172.164-34.121c-4.121-4.121-10.898-3.856-15.148.531-6.645 6.645-21.926 26.707-17.008 31.625 4.918 4.914 24.98-10.367 31.625-17.008 4.383-4.386 4.648-11.03.531-15.148"/></g></g></svg>