<svg xmlns="http://www.w3.org/2000/svg" width="904pt" height="596" viewBox="0 -447 904 447"><g id="page1" transform="scale(1 -1)"><path fill="#cc9c6f" d="M143.008 392.828a7150 7150 0 0 1 617.555-86.793l2.367 16.844a7141 7141 0 0 1-307.832 50.133 7144 7144 0 0 1-309.723 36.66z"/><path fill="none" stroke="#000" stroke-linecap="round" stroke-linejoin="round" stroke-width="2" d="M143.008 392.828a7150 7150 0 0 1 617.555-86.793l2.367 16.844a7141 7141 0 0 1-307.832 50.133 7144 7144 0 0 1-309.723 36.66z"/><path fill="#fff" d="M176.746 397.387a5.668 5.668 0 1 1-11.336 0 5.667 5.667 0 1 1 11.336 0"/><path fill="none" stroke="#000" stroke-linecap="round" stroke-linejoin="round" stroke-width="2" d="M176.746 397.387a5.668 5.668 0 1 1-11.336 0 5.667 5.667 0 1 1 11.336 0"/><path fill="#fff" d="M738.16 318.484a5.67 5.67 0 1 1-11.341.003 5.67 5.67 0 0 1 11.341-.003"/><path fill="none" stroke="#000" stroke-linecap="round" stroke-linejoin="round" stroke-width="2" d="M738.16 318.484a5.67 5.67 0 1 1-11.341.003 5.67 5.67 0 0 1 11.341-.003"/><path fill="#d3ae37" d="M341.156 150.773c0 15.657-76.144 28.348-170.078 28.348C77.148 179.121 1 166.43 1 150.773s76.148-28.347 170.078-28.347c93.934 0 170.078 12.691 170.078 28.347"/><path fill="none" stroke="#000" stroke-linecap="round" stroke-linejoin="round" stroke-width="2" d="M341.156 150.773c0 15.657-76.144 28.348-170.078 28.348C77.148 179.121 1 166.43 1 150.773s76.148-28.347 170.078-28.347c93.934 0 170.078 12.691 170.078 28.347M171.078 377.547l161.41-217.813m-161.41 217.813L117.32 177.676m53.758 199.871L19.984 137.746m151.094 239.801v19.84"/><path fill="#662d90" d="M120.004 132.703c-.621 4.52-2.879 8.86-6.336 11.871-6.82 6.465-12.223 14.528-15.059 23.563-2.39.308-4.738 1.062-6.597 2.57-1.64 1.106-3.102 2.523-4.871 3.453-1.11.707-1.684-.707-1.551-1.594-.09-2.66.219-5.316.664-7.929-2.48.179-4.43 2.215-5.317 4.386-.706 1.504-1.503 3.012-2.523 4.34-.797.84-2.172-.043-2.039-1.152-.531-2.969-1.02-5.934-2.082-8.77-.973-2.168-2.746-3.851-4.562-5.359 1.417-8.281 2.878-16.609 5.406-24.625 1.285-3.898 2.746-7.707 4.96-11.16 3.055-4.609 7.438-8.418 12.579-10.586 3.984-1.731 8.594-2.215 12.801-1.063 5.89 1.547 10.937 5.934 13.242 11.559 1.371 3.277 1.816 6.953 1.285 10.496"/><path fill="#39b44a" d="M97.59 172.258c-.707 5.004-3.809 9.699-8.457 11.867a14.2 14.2 0 0 1-7.75 1.285c-.801 3.188-1.64 6.422-2.438 9.656-1.152-1.375-2.48-2.66-3.011-4.429-.578-1.641-.489-3.453.043-5.094.132-.531.265-1.105.398-1.641-5.312-2.656-8.68-8.589-8.414-14.48.133-2.262.664-4.43.973-6.645.265-1.55.53-3.144.797-4.695 2.128 1.773 4.296 3.898 5.007 6.645.84 2.656 1.285 5.402 1.727 8.148.355 1.152 1.992.977 2.347-.043 1.063-1.461 1.77-3.144 2.57-4.738 1.016-1.774 2.79-3.278 4.872-3.457-.445 2.836-.844 5.672-.621 8.551-.09 1.152 1.195 1.414 1.949.75 2.258-1.415 4.164-3.364 6.555-4.559 1.418-.664 2.922-1.02 4.472-1.242a26 26 0 0 0-1.02 4.121"/><path fill-rule="evenodd" d="M121.773 132.969c-.707 4.918-3.144 9.613-6.91 12.89-6.687 6.375-12 14.352-14.703 23.207-.574 1.727-.797 3.5-1.195 5.274-1.196 5.137-4.871 9.742-9.79 11.734a16.1 16.1 0 0 1-6.464 1.196c-.711 2.793-1.375 5.625-2.129 8.46-.441 1.196-2.215 1.504-2.965.489-1.242-1.461-2.66-2.879-3.277-4.742-.754-2.036-.711-4.293-.09-6.375.223-.711-1.106-.887-1.46-1.418-4.919-3.856-7.442-10.496-6.337-16.61 1.55-9.523 3.059-19.047 5.406-28.39 1.461-5.715 3.278-11.426 6.243-16.524 2.703-4.426 6.554-8.101 11.074-10.715 4.562-2.613 10.055-3.855 15.234-2.836 5.805 1.063 11.074 4.653 14.219 9.657 2.793 4.297 3.898 9.609 3.144 14.703m-44.601 49.34c.887.445 1.152 1.507.844 2.394-.399 1.551-.977 3.145-.579 4.738.09.442.489 1.86.711 1.551.532-2.082 1.02-4.121 1.551-6.203.352-1.062 1.547-1.328 2.524-1.105 4.164.308 8.37-1.641 10.851-5.004 1.637-2.129 2.524-4.696 2.88-7.309.042-.445.398-1.152-.31-.711-1.906.711-3.413 2.125-5.05 3.278-1.242.886-2.48 2.039-4.031 2.171-1.329.09-2.434-1.062-2.614-2.347-.308-2.039-.09-4.164.133-6.246-1.46 1.328-1.86 3.324-2.922 4.875-.71 1.148-1.328 2.566-2.746 2.964-1.64.532-3.5-.707-3.723-2.39-.484-2.969-.972-5.938-1.992-8.77-.441-.976-1.062-1.816-1.77-2.613-.398 2.438-.886 4.871-1.152 7.309-.488 5.449 2.524 10.984 7.395 13.418m37.691-63.289c-3.496-4.786-9.566-7.665-15.543-7.176-5.226.441-10.011 3.187-13.777 6.73-2.524 2.348-4.606 5.184-5.977 8.371-3.101 6.645-4.742 13.821-6.203 20.95a350 350 0 0 0-1.726 9.48c2.172 1.859 4.12 4.16 4.828 6.996.664 2.172 1.105 4.387 1.46 6.602 1.153-1.774 1.684-3.899 3.145-5.45 1.375-1.55 3.325-2.613 5.403-2.613 1.242.09 1.863 1.504 1.418 2.613-.309 2.125-.575 4.297-.575 6.465 2.082-1.461 3.985-3.23 6.29-4.34 1.152-.488 2.39-.839 3.632-1.105 1.95-5.672 4.871-10.984 8.504-15.77-.976.266-2.262.665-3.012-.308-.886-.977-.265-2.656 1.016-2.879a17.87 17.87 0 0 0 9.438-5.004c4.605-4.477 6.375-11.473 4.605-17.629-.574-2.125-1.594-4.117-2.926-5.933"/><path fill-rule="evenodd" d="M98.523 151.352c-.976-.047-2.261-.133-2.66-1.286-.484-1.152.664-2.57 1.906-2.347.973.09 2.168.133 2.524 1.195.574 1.152-.441 2.613-1.77 2.438"/><path fill="#662d90" d="M184.313 132.703c-.618 4.52-2.875 8.86-6.333 11.871-6.82 6.465-12.222 14.528-15.058 23.563-2.391.308-4.738 1.062-6.602 2.57-1.636 1.106-3.097 2.523-4.871 3.453-1.105.707-1.683-.707-1.551-1.594-.085-2.66.223-5.316.665-7.929-2.477.179-4.426 2.215-5.313 4.386-.711 1.504-1.508 3.012-2.523 4.34-.797.84-2.172-.043-2.039-1.152-.532-2.969-1.02-5.934-2.083-8.77-.972-2.168-2.746-3.851-4.562-5.359 1.418-8.281 2.879-16.609 5.402-24.625 1.285-3.898 2.746-7.707 4.961-11.16 3.059-4.609 7.442-8.418 12.582-10.586 3.985-1.731 8.59-2.215 12.797-1.063 5.895 1.547 10.942 5.934 13.246 11.559 1.371 3.277 1.817 6.953 1.282 10.496"/><path fill="#39b44a" d="M161.902 172.258c-.707 5.004-3.808 9.699-8.461 11.867a14.2 14.2 0 0 1-7.75 1.285c-.796 3.188-1.636 6.422-2.433 9.656-1.153-1.375-2.481-2.66-3.012-4.429-.578-1.641-.488-3.453.043-5.094.133-.531.266-1.105.399-1.641-5.317-2.656-8.68-8.589-8.415-14.48.133-2.262.665-4.43.973-6.645.266-1.55.531-3.144.797-4.695 2.129 1.773 4.297 3.898 5.008 6.645.84 2.656 1.281 5.402 1.726 8.148.352 1.152 1.993.977 2.344-.043 1.067-1.461 1.774-3.144 2.57-4.738 1.02-1.774 2.793-3.278 4.872-3.457-.442 2.836-.84 5.672-.618 8.551-.09 1.152 1.196 1.414 1.95.75 2.257-1.415 4.164-3.364 6.554-4.559 1.418-.664 2.922-1.02 4.473-1.242a25.7 25.7 0 0 0-1.02 4.121"/><path fill-rule="evenodd" d="M186.086 132.969c-.707 4.918-3.145 9.613-6.91 12.89-6.688 6.375-12 14.352-14.703 23.207-.578 1.727-.797 3.5-1.196 5.274-1.199 5.137-4.875 9.742-9.789 11.734a16.1 16.1 0 0 1-6.468 1.196c-.707 2.793-1.372 5.625-2.125 8.46-.442 1.196-2.215 1.504-2.965.489-1.242-1.461-2.66-2.879-3.282-4.742-.75-2.036-.707-4.293-.085-6.375.218-.711-1.11-.887-1.461-1.418-4.918-3.856-7.442-10.496-6.336-16.61 1.55-9.523 3.054-19.047 5.406-28.39 1.461-5.715 3.273-11.426 6.242-16.524 2.703-4.426 6.555-8.101 11.074-10.715 4.563-2.613 10.055-3.855 15.235-2.836 5.804 1.063 11.074 4.653 14.218 9.657 2.789 4.297 3.899 9.609 3.145 14.703m-44.602 49.34c.887.445 1.153 1.507.84 2.394-.394 1.551-.972 3.145-.574 4.738.09.442.488 1.86.711 1.551.531-2.082 1.016-4.121 1.547-6.203.355-1.062 1.551-1.328 2.527-1.105 4.16.308 8.371-1.641 10.852-5.004 1.636-2.129 2.523-4.696 2.879-7.309.043-.445.398-1.152-.313-.711-1.902.711-3.41 2.125-5.047 3.278-1.242.886-2.48 2.039-4.031 2.171-1.328.09-2.437-1.062-2.613-2.347-.313-2.039-.09-4.164.133-6.246-1.461 1.328-1.86 3.324-2.922 4.875-.711 1.148-1.332 2.566-2.746 2.964-1.641.532-3.5-.707-3.723-2.39-.488-2.969-.973-5.938-1.992-8.77-.446-.976-1.063-1.816-1.774-2.613-.398 2.438-.883 4.871-1.148 7.309-.488 5.449 2.523 10.984 7.394 13.418m37.692-63.289c-3.496-4.786-9.567-7.665-15.547-7.176-5.227.441-10.008 3.187-13.774 6.73-2.523 2.348-4.605 5.184-5.976 8.371-3.102 6.645-4.742 13.821-6.203 20.95a349 349 0 0 0-1.727 9.48c2.168 1.859 4.117 4.16 4.828 6.996.664 2.172 1.106 4.387 1.461 6.602 1.153-1.774 1.684-3.899 3.145-5.45 1.371-1.55 3.32-2.613 5.402-2.613 1.242.09 1.86 1.504 1.418 2.613-.308 2.125-.574 4.297-.574 6.465 2.082-1.461 3.984-3.23 6.289-4.34 1.148-.488 2.391-.839 3.633-1.105 1.945-5.672 4.871-10.984 8.504-15.77-.977.266-2.262.665-3.016-.308-.883-.977-.266-2.656 1.02-2.879a17.85 17.85 0 0 0 9.433-5.004c4.61-4.477 6.379-11.473 4.61-17.629-.579-2.125-1.598-4.117-2.926-5.933"/><path fill-rule="evenodd" d="M162.832 151.352c-.973-.047-2.258-.133-2.656-1.286-.488-1.152.664-2.57 1.902-2.347.977.09 2.172.133 2.527 1.195.575 1.152-.445 2.613-1.773 2.438"/><path fill="#79ac14" d="M243.109 166.789c1.95 3.367 4.606 7.262 6.555 9.742 0 .711-.18 1.418-.18 2.305-.707 3.543-3.718 6.199-6.906 5.668-3.191-.531-5.316-3.895-4.609-7.617.179-1.594 1.418-5.317 2.836-9.035.711-.176 1.593-.532 2.304-1.063"/><path fill="none" stroke="#000" stroke-linecap="round" stroke-linejoin="round" stroke-width="2.25" d="M243.109 166.789c1.95 3.367 4.606 7.262 6.555 9.742 0 .711-.18 1.418-.18 2.305-.707 3.543-3.718 6.199-6.906 5.668-3.191-.531-5.316-3.895-4.609-7.617.179-1.594 1.418-5.317 2.836-9.035.711-.176 1.593-.532 2.304-1.063"/><path fill="#79ac14" d="M247.891 162.004c3.367 1.949 7.265 4.605 9.746 6.555.707 0 1.418-.176 2.301-.176 3.542-.707 6.203-3.719 5.671-6.91-.531-3.188-3.898-5.137-7.621-4.606-1.593.18-5.312 1.418-9.035 2.836-.176.707-.531 1.594-1.062 2.301"/><path fill="none" stroke="#000" stroke-linecap="round" stroke-linejoin="round" stroke-width="2.25" d="M247.891 162.004c3.367 1.949 7.265 4.605 9.746 6.555.707 0 1.418-.176 2.301-.176 3.542-.707 6.203-3.719 5.671-6.91-.531-3.188-3.898-5.137-7.621-4.606-1.593.18-5.312 1.418-9.035 2.836-.176.707-.531 1.594-1.062 2.301"/><path fill="#a4cd34" d="M245.766 164.664a7.9 7.9 0 0 0 2.125-2.66c4.429 2.305 9.922 6.379 11.515 7.973 2.66 2.66 2.836 6.554.532 8.859-2.125 2.305-6.2 1.949-8.86-.531-1.594-1.594-5.488-7.086-7.969-11.516a7.8 7.8 0 0 0 2.657-2.125"/><path fill="none" stroke="#000" stroke-linecap="round" stroke-linejoin="round" stroke-width="2.25" d="M245.766 164.664a7.9 7.9 0 0 0 2.125-2.66c4.429 2.305 9.922 6.379 11.515 7.973 2.66 2.66 2.836 6.554.532 8.859-2.125 2.305-6.2 1.949-8.86-.531-1.594-1.594-5.488-7.086-7.969-11.516a7.8 7.8 0 0 0 2.657-2.125"/><path fill="#f26d21" d="M245.766 164.664c-5.493 5.492-14.528 5.137-20.196-.711-8.859-8.855-29.234-35.609-22.679-42.164 6.554-6.555 33.308 13.82 42.168 22.676 5.843 5.848 6.199 14.707.707 20.199"/><path fill="#ce5c1c" d="M245.766 164.664c2.304-5.141 1.062-11.695-3.368-16.125-8.324-8.324-32.421-26.574-40.746-23.562 0-1.418.352-2.481 1.239-3.188 6.554-6.555 33.308 13.82 42.168 22.676 5.843 5.672 6.199 14.707.707 20.199"/><g fill="none" stroke="#000" stroke-linecap="round" stroke-linejoin="round" stroke-width="2.25"><path d="M243.992 143.227s-5.312 1.769-10.629 7.086m-10.453-5.668s-3.363 3.011-6.906 7.968m20.551-15.59s-4.43 1.243-7.266 4.079m1.418-8.329s-4.605.887-9.391 5.668m-12.222 3.723s1.945-3.723 5.844-6.91m6.554 24.269s1.067-3.187 4.078-6.199m-15.414-26.043s2.481-2.836 5.492-4.074m38.266 49.606-8.148-8.149M243.992 176l1.067-6.023m12.046-7.086-6.027 1.062"/><path d="M245.766 164.664c-5.493 5.492-14.528 5.137-20.196-.711-8.859-8.855-29.234-35.609-22.679-42.164 6.554-6.555 33.308 13.82 42.168 22.676 5.843 5.848 6.199 14.707.707 20.199"/></g><path fill="#bc9a16" d="M1 150.773c0-68.597 90.55-70.867 170.078-70.867 79.527 0 170.078 2.27 170.078 70.867 0-15.656-76.144-28.347-170.078-28.347C77.148 122.426 1 135.117 1 150.773"/><path fill="none" stroke="#000" stroke-linecap="round" stroke-linejoin="round" stroke-width="2" d="M1 150.773c0-68.597 90.55-70.867 170.078-70.867 79.527 0 170.078 2.27 170.078 70.867 0-15.656-76.144-28.347-170.078-28.347C77.148 122.426 1 135.117 1 150.773"/><path fill="#d3ae37" d="M902.57 71.871c0 15.656-76.148 28.348-170.078 28.348-93.933 0-170.082-12.692-170.082-28.348 0-15.652 76.149-28.344 170.082-28.344 93.93 0 170.078 12.692 170.078 28.344"/><path fill="none" stroke="#000" stroke-linecap="round" stroke-linejoin="round" stroke-width="2" d="M902.57 71.871c0 15.656-76.148 28.348-170.078 28.348-93.933 0-170.082-12.692-170.082-28.348 0-15.652 76.149-28.344 170.082-28.344 93.93 0 170.078 12.692 170.078 28.344M732.492 298.645 893.898 80.832M732.492 298.645 678.73 98.773m53.762 199.872L581.395 58.844m151.097 239.801v19.839"/><path fill="#865b52" d="M627.723 62.71c-.797 7.93 2.632 16.103 8.769 21.126a40.6 40.6 0 0 0 7.414 4.344c1.317.558 2.672 1.039 3.828 1.914 3.586 2.594 6.258 6.18 9.446 9.21 3.191 3.188 6.898 5.977 11.203 7.575 5.301 2.031 11.238 2.668 16.781 1.195 4.902-1.394 9.09-4.863 11.641-9.21 2.91-4.942 3.586-10.883 3.109-16.5a14.8 14.8 0 0 0-1.594-6.102c-2.433-4.82-6.179-8.848-10.007-12.555-6.856-6.5-14.469-12.16-22.481-17.14-3.191-1.876-6.418-3.79-9.965-5.024-1.875-.68-3.867-.277-5.781.039-5.422 1.195-10.606 3.629-14.867 7.215-3.789 3.23-6.578 7.695-7.336 12.676-.082.398-.121.84-.16 1.238"/><path fill="#513531" d="M669.34 66.059c-2.113-1.438-4.027-3.11-6.102-4.543-4.98-3.59-10.562-6.66-16.699-7.575-3.309-.48-6.699-.242-9.969.477-3.027.758-6.215 2.152-8.011 4.863-.239.32-.555 1.278-.317.36 1.356-5.66 4.223-11.082 8.61-15.028 4.265-3.828 9.925-6.02 15.664-6.18 4.105-.199 8.132.598 12.039 1.755 4.863 1.554 9.25 4.226 13.754 6.578 6.097 3.386 12 7.332 16.582 12.636 2.832 3.227 4.742 7.215 6.097 11.282 1.953 5.699 2.313 11.957.68 17.777-1.078 3.867-2.871 7.574-5.102 10.922-.878 1.316-1.796 2.59-2.953 3.668.797-4.945.957-10.047.16-14.989-.597-3.59-1.871-7.093-4.222-9.925-3.309-4.305-7.696-7.973-12.836-9.805-2.195-.879-4.547-1.2-6.777-1.996a4 4 0 0 1-.598-.277"/><path fill="#30201d" d="M664.715 53.3c.558-.874 1.914-.558 2.832-.597 1.672.082 3.348.36 4.98.64.996.04 1.754 1.114.797 1.833-1.074 1.195-2.469 2.23-4.066 2.511-.996.118-1.793-.718-2.512-1.355-.797-.836-1.711-1.754-2.031-2.91zm14.551-1.51c.714-.52 1.632.198 2.23.597.84.715 1.438 1.754 1.555 2.867-.16.918-1.516.719-2.192.52-1.355-.438-1.914-2.075-1.793-3.387.039-.2.079-.442.2-.598m19.093 38.188c-.796.796-1.394-.88-1.675-1.477-.399-.836-.438-2.074.519-2.59.758-.597 2.07-.281 2.152.797.122 1.156-.476 2.274-.996 3.27M643.43 47.125c-.559-1.04.675-1.836 1.433-2.312.797-.36 1.793-.641 2.59-.2.559.758-.515 1.473-.996 1.992-.676.598-1.555 1.434-2.512.997a1.2 1.2 0 0 1-.515-.477"/><path fill="#513531" d="M636.172 61.356c-.598-.637-.356-1.637-.277-2.395-.04-.996.675-1.512 1.632-1.395.797 0 2.235-.199 2.395.88-.238 1.113-1.195 1.952-2.035 2.667-.477.36-1.196.64-1.715.242m5.543 5.579c.476-.758 1.515-.516 2.07.043.719.597 1.36 1.832.641 2.707-.797.718-1.953 0-2.473-.715-.359-.598-.676-1.395-.238-2.035m12.398 24.796c-.957.516-1.715-.44-1.996-1.277-.398-1.156-1.273-2.113-1.512-3.309.2-.957 1.594-.597 2.313-.558.797.082 1.793.441 1.949 1.355.281 1.157.36 2.473-.355 3.47-.082.16-.242.237-.399.32"/><path fill="#c3ada8" d="M632.863 64.305c.957-.32 1.797.558 2.434 1.195 1.633 1.676 2.711 3.785 4.387 5.422 2.347 2.312 5.058 4.266 7.968 5.82 3.59 1.871 7.618 2.469 11.524 3.387 2.031.48 4.144 1.277 5.578 2.91 3.148 3.348 4.707 7.813 7.457 11.48 1.633 2.192 4.105 3.786 6.855 4.028 1.395.2 2.829-.082 4.184.316 1.078.36 1.156 1.836.758 2.75-.875 1.797-2.871 2.672-4.703 3.114-4.028.875-8.371-.043-11.641-2.551-2.949-2.156-5.023-5.223-6.855-8.332-1.594-2.473-2.989-5.106-5.063-7.215-1.433-1.438-3.348-2.113-5.262-2.672-4.105-1.316-8.093-3.23-11.32-6.14-2.152-1.833-4.027-4.024-5.344-6.536-.875-1.754-1.793-3.59-1.754-5.582 0-.558.243-1.156.797-1.394"/><path fill="#513531" d="M676.871 92.766c.32-1.715 2.074-2.63 3.629-2.989 1.277-.359 2.91-.043 3.508 1.274.398.879-.399 1.676-1.117 1.992-.996.48-2.114.719-2.95 1.516-.597.64-1.632.84-2.351.238-.598-.477-.758-1.313-.719-2.031"/><path fill="#865b52" d="M711.32 62.71c-.797 7.93 2.629 16.103 8.77 21.126a40.4 40.4 0 0 0 7.414 4.344c1.316.558 2.672 1.039 3.824 1.914 3.59 2.594 6.262 6.18 9.449 9.21 3.192 3.188 6.899 5.977 11.203 7.575 5.301 2.031 11.239 2.668 16.782 1.195 4.902-1.394 9.09-4.863 11.64-9.21 2.911-4.942 3.586-10.883 3.11-16.5a14.85 14.85 0 0 0-1.594-6.102c-2.434-4.82-6.18-8.848-10.008-12.555-6.855-6.5-14.469-12.16-22.48-17.14-3.192-1.876-6.418-3.79-9.965-5.024-1.875-.68-3.867-.277-5.781.039-5.422 1.195-10.606 3.629-14.871 7.215-3.786 3.23-6.575 7.695-7.333 12.676-.082.398-.121.84-.16 1.238"/><path fill="#513531" d="M752.938 66.059c-2.114-1.438-4.028-3.11-6.102-4.543-4.981-3.59-10.563-6.66-16.699-7.575-3.313-.48-6.699-.242-9.969.477-3.027.758-6.219 2.152-8.012 4.863-.238.32-.558 1.278-.316.36 1.351-5.66 4.223-11.082 8.609-15.028 4.266-3.828 9.926-6.02 15.664-6.18 4.106-.199 8.133.598 12.039 1.755 4.864 1.554 9.246 4.226 13.754 6.578 6.098 3.386 11.996 7.332 16.582 12.636 2.828 3.227 4.742 7.215 6.098 11.282 1.953 5.699 2.312 11.957.68 17.777-1.078 3.867-2.871 7.574-5.106 10.922-.875 1.316-1.793 2.59-2.949 3.668.797-4.945.957-10.047.16-14.989-.598-3.59-1.875-7.093-4.226-9.925-3.305-4.305-7.692-7.973-12.836-9.805-2.192-.879-4.543-1.2-6.774-1.996a4 4 0 0 1-.597-.277"/><path fill="#30201d" d="M748.313 53.3c.558-.874 1.914-.558 2.828-.597 1.675.082 3.351.36 4.984.64.996.04 1.754 1.114.797 1.833-1.074 1.195-2.473 2.23-4.067 2.511-.996.118-1.792-.718-2.511-1.355-.797-.836-1.711-1.754-2.031-2.91zm14.55-1.51c.715-.52 1.633.198 2.231.597.836.715 1.433 1.754 1.554 2.867-.16.918-1.515.719-2.191.52-1.355-.438-1.914-2.075-1.797-3.387.043-.2.082-.442.203-.598m19.09 38.188c-.797.796-1.394-.88-1.672-1.477-.398-.836-.437-2.074.52-2.59.758-.597 2.07-.281 2.152.797.117 1.156-.48 2.274-1 3.27m-54.93-42.852c-.554-1.04.68-1.836 1.438-2.312.797-.36 1.793-.641 2.59-.2.558.758-.52 1.473-.996 1.992-.676.598-1.555 1.434-2.512.997a1.24 1.24 0 0 1-.52-.477"/><path fill="#513531" d="M719.77 61.356c-.598-.637-.36-1.637-.278-2.395-.039-.996.676-1.512 1.633-1.395.797 0 2.234-.199 2.395.88-.243 1.113-1.2 1.952-2.036 2.667-.476.36-1.195.64-1.714.242m5.543 5.579c.476-.758 1.511-.516 2.07.043.719.597 1.355 1.832.64 2.707-.796.718-1.953 0-2.472-.715-.36-.598-.68-1.395-.238-2.035m12.398 24.796c-.957.516-1.715-.44-1.996-1.277-.399-1.156-1.274-2.113-1.516-3.309.199-.957 1.598-.597 2.313-.558.797.082 1.793.441 1.953 1.355.281 1.157.359 2.473-.36 3.47-.078.16-.238.237-.394.32"/><path fill="#c3ada8" d="M716.461 64.305c.957-.32 1.797.558 2.434 1.195 1.632 1.676 2.71 3.785 4.382 5.422 2.352 2.312 5.063 4.266 7.973 5.82 3.59 1.871 7.613 2.469 11.52 3.387 2.035.48 4.148 1.277 5.582 2.91 3.148 3.348 4.703 7.813 7.453 11.48 1.636 2.192 4.105 3.786 6.855 4.028 1.399.2 2.832-.082 4.188.316 1.078.36 1.156 1.836.757 2.75-.878 1.797-2.871 2.672-4.703 3.114-4.027.875-8.371-.043-11.64-2.551-2.949-2.156-5.024-5.223-6.856-8.332-1.593-2.473-2.988-5.106-5.062-7.215-1.438-1.438-3.348-2.113-5.262-2.672-4.105-1.316-8.094-3.23-11.32-6.14-2.157-1.833-4.028-4.024-5.344-6.536-.875-1.754-1.793-3.59-1.754-5.582 0-.558.238-1.156.797-1.394"/><path fill="#513531" d="M760.469 92.766c.32-1.715 2.074-2.63 3.629-2.989 1.273-.359 2.91-.043 3.507 1.274.399.879-.398 1.676-1.117 1.992-.996.48-2.113.719-2.949 1.516-.598.64-1.633.84-2.351.238-.598-.477-.758-1.313-.719-2.031"/><path fill="#662d90" d="M854.277 53.8c-.621 4.52-2.879 8.86-6.332 11.872-6.82 6.469-12.226 14.527-15.058 23.562-2.395.313-4.742 1.063-6.602 2.57-1.637 1.106-3.101 2.524-4.871 3.454-1.109.71-1.684-.707-1.551-1.594-.09-2.656.223-5.316.664-7.93-2.48.18-4.429 2.215-5.312 4.387-.711 1.508-1.508 3.012-2.527 4.34-.797.844-2.168-.043-2.036-1.152-.535-2.965-1.019-5.934-2.082-8.77-.976-2.168-2.746-3.852-4.562-5.36 1.418-8.28 2.879-16.609 5.402-24.624 1.285-3.899 2.746-7.707 4.961-11.16 3.055-4.606 7.442-8.418 12.578-10.586 3.989-1.727 8.594-2.215 12.801-1.063 5.891 1.55 10.941 5.934 13.242 11.559 1.375 3.277 1.817 6.953 1.285 10.496"/><path fill="#39b44a" d="M831.867 93.356c-.711 5.003-3.808 9.699-8.461 11.871a14.2 14.2 0 0 1-7.75 1.281c-.797 3.191-1.64 6.422-2.437 9.656-1.153-1.371-2.481-2.656-3.012-4.43-.574-1.636-.484-3.453.047-5.093.133-.532.266-1.106.398-1.637-5.316-2.656-8.683-8.594-8.418-14.485.133-2.257.664-4.43.977-6.644.266-1.55.531-3.144.797-4.695 2.125 1.773 4.297 3.898 5.004 6.644.843 2.657 1.285 5.403 1.726 8.149.356 1.152 1.992.976 2.348-.043 1.062-1.461 1.773-3.145 2.57-4.739 1.02-1.773 2.789-3.277 4.871-3.457-.441 2.836-.839 5.672-.621 8.551-.086 1.153 1.199 1.418 1.949.754 2.258-1.418 4.165-3.367 6.555-4.562 1.418-.665 2.926-1.02 4.477-1.243a25.3 25.3 0 0 0-1.02 4.122"/><path fill-rule="evenodd" d="M856.051 54.066c-.711 4.918-3.145 9.614-6.91 12.891-6.688 6.379-12.004 14.352-14.707 23.207-.575 1.73-.797 3.5-1.196 5.273-1.195 5.137-4.871 9.743-9.789 11.739a16.1 16.1 0 0 1-6.465 1.191c-.707 2.793-1.375 5.625-2.125 8.461-.441 1.195-2.214 1.508-2.968.488-1.239-1.461-2.657-2.878-3.278-4.738-.754-2.039-.707-4.297-.09-6.379.223-.711-1.105-.886-1.46-1.418-4.915-3.851-7.442-10.496-6.333-16.61 1.551-9.523 3.055-19.042 5.403-28.39 1.461-5.715 3.277-11.425 6.246-16.52 2.699-4.429 6.555-8.105 11.07-10.718 4.563-2.613 10.055-3.855 15.239-2.836 5.8 1.063 11.074 4.652 14.218 9.656 2.789 4.297 3.895 9.61 3.145 14.703m-44.602 49.344c.887.442 1.153 1.504.84 2.391-.398 1.551-.973 3.144-.574 4.738.086.445.484 1.859.707 1.551.531-2.082 1.019-4.117 1.551-6.199.355-1.067 1.55-1.332 2.523-1.11 4.164.313 8.371-1.636 10.852-5.004 1.64-2.125 2.527-4.695 2.879-7.308.046-.442.398-1.153-.309-.707-1.906.707-3.41 2.125-5.051 3.277-1.238.883-2.48 2.035-4.027 2.168-1.332.09-2.438-1.062-2.613-2.348-.313-2.035-.09-4.164.128-6.246-1.46 1.332-1.859 3.325-2.921 4.875-.707 1.153-1.329 2.567-2.746 2.965-1.637.531-3.5-.707-3.719-2.39-.489-2.97-.977-5.934-1.992-8.77-.446-.973-1.067-1.816-1.774-2.613-.398 2.437-.887 4.87-1.152 7.308-.488 5.45 2.523 10.985 7.398 13.422m37.692-63.293c-3.5-4.785-9.567-7.664-15.547-7.176-5.227.442-10.008 3.188-13.774 6.73-2.523 2.349-4.605 5.185-5.98 8.372-3.102 6.645-4.738 13.82-6.199 20.95-.621 3.148-1.2 6.335-1.731 9.48 2.172 1.859 4.121 4.164 4.828 6.996.664 2.172 1.11 4.387 1.461 6.601 1.153-1.773 1.684-3.898 3.149-5.449 1.371-1.55 3.32-2.613 5.402-2.613 1.238.09 1.859 1.508 1.418 2.613-.313 2.125-.578 4.297-.578 6.469 2.082-1.461 3.988-3.234 6.289-4.344 1.152-.484 2.394-.84 3.633-1.105 1.949-5.668 4.871-10.985 8.504-15.77-.973.27-2.258.668-3.012-.308-.887-.973-.266-2.657 1.019-2.88a17.86 17.86 0 0 0 9.434-5.003c4.606-4.473 6.379-11.473 4.606-17.63-.575-2.124-1.594-4.116-2.922-5.933"/><path fill-rule="evenodd" d="M832.797 72.45c-.977-.044-2.258-.134-2.656-1.286-.489-1.152.664-2.57 1.902-2.348.977.09 2.172.133 2.523 1.196.579 1.152-.441 2.613-1.769 2.437"/><path fill="#bc9a16" d="M562.41 71.871c0-68.598 90.555-70.863 170.082-70.863 79.528 0 170.078 2.265 170.078 70.863 0-15.652-76.148-28.344-170.078-28.344-93.933 0-170.082 12.692-170.082 28.344"/><path fill="none" stroke="#000" stroke-linecap="round" stroke-linejoin="round" stroke-width="2" d="M562.41 71.871c0-68.598 90.555-70.863 170.082-70.863 79.528 0 170.078 2.265 170.078 70.863 0-15.652-76.148-28.344-170.078-28.344-93.933 0-170.082 12.692-170.082 28.344"/><path fill="#cc9c6f" d="M458.871 357.938c0 3.914-3.172 7.085-7.086 7.085s-7.086-3.171-7.086-7.085 3.172-7.086 7.086-7.086 7.086 3.171 7.086 7.086"/><path fill="none" stroke="#000" stroke-linecap="round" stroke-linejoin="round" stroke-width="2" d="M458.871 357.938c0 3.914-3.172 7.085-7.086 7.085s-7.086-3.171-7.086-7.085 3.172-7.086 7.086-7.086 7.086 3.171 7.086 7.086"/><circle cx="451.785" cy="357.938" r="1"/><path fill="#cc9c6f" d="M437.609 54.629h28.348v340.156h-28.348Z"/><path fill="none" stroke="#000" stroke-linecap="round" stroke-linejoin="round" stroke-width="2" d="M437.609 54.629h28.348v340.156h-28.348z"/><path fill="#cc9c6f" d="M458.871 357.938c0 3.914-3.172 7.085-7.086 7.085s-7.086-3.171-7.086-7.085 3.172-7.086 7.086-7.086 7.086 3.171 7.086 7.086"/><path fill="none" stroke="#000" stroke-linecap="round" stroke-linejoin="round" stroke-width="2" d="M458.871 357.938c0 3.914-3.172 7.085-7.086 7.085s-7.086-3.171-7.086-7.085 3.172-7.086 7.086-7.086 7.086 3.171 7.086 7.086"/><path fill="#cc9c6f" d="M454.617 394.785c3.641 3.824 5.672 8.899 5.672 14.176s-2.031 10.352-5.672 14.172h-5.668c-3.636-3.82-5.668-8.895-5.668-14.172s2.032-10.352 5.668-14.176z"/><path fill="none" stroke="#000" stroke-linecap="round" stroke-linejoin="round" stroke-width="2" d="M454.617 394.785c3.641 3.824 5.672 8.899 5.672 14.176s-2.031 10.352-5.672 14.172h-5.668c-3.636-3.82-5.668-8.895-5.668-14.172s2.032-10.352 5.668-14.176z"/><path fill="#cc9c6f" d="M463.121 434.473c0 6.261-5.074 11.34-11.336 11.34s-11.34-5.079-11.34-11.34 5.078-11.34 11.34-11.34 11.336 5.078 11.336 11.34"/><path fill="none" stroke="#000" stroke-linecap="round" stroke-linejoin="round" stroke-width="2" d="M463.121 434.473c0 6.261-5.074 11.34-11.336 11.34s-11.34-5.079-11.34-11.34 5.078-11.34 11.34-11.34 11.336 5.078 11.336 11.34"/><path fill="#cc9c6f" d="M494.305 26.281c-13.692 0-22.676 13.625-22.676 28.348h-39.688c0-14.723-8.988-28.348-22.675-28.348z"/><path fill="none" stroke="#000" stroke-linecap="round" stroke-linejoin="round" stroke-width="2" d="M494.305 26.281c-13.692 0-22.676 13.625-22.676 28.348h-39.688c0-14.723-8.988-28.348-22.675-28.348z"/></g></svg>