<svg xmlns="http://www.w3.org/2000/svg" width="443pt" height="163pt" viewBox="0 -163 443 163"><g id="page1" fill-rule="evenodd"><path d="M300.281-160.113c-4.164 2.566-7.972 7.441-7.972 10.273 0 1.684 1.504 4.074 4.695 7.442 2.566 2.746 5.668 6.91 6.82 9.3l2.035 4.34-2.48 4.961c-1.414 2.746-3.453 7.973-4.516 11.695-11.605 37.735-23.476 51.555-64.047 74.23-12.668 7-17.097 10.454-20.019 15.06-2.746 4.605-2.746 9.3.266 13.644 8.679 12.844 43.761 11.25 72.902-3.277 21.351-10.543 36.941-25.692 45-43.672 9.215-20.285 11.43-41.457 6.113-57.668-2.039-6.199-8.238-15.414-12.137-17.985-2.656-1.769-3.543-3.187-4.871-8.238-2.48-9.121-7.617-18.777-10.894-20.461-3.633-1.859-7.442-1.769-10.895.356m10.098 7.972c-1.063 1.95-.797 3.012 1.769 8.059 3.989 7.887 8.239 21.527 10.098 32.336 7.973 46.86-26.66 90.883-78.75 100.008-4.516.797-10.363 1.418-12.93 1.418-3.546 0-4.785.441-5.492 1.86-.886 1.683-.621 1.948 2.567 2.835 5.226 1.504 20.64 1.238 29.5-.445 27.636-5.223 52.617-20.64 65.992-40.836 19.312-28.965 20.019-68.739 1.418-81.582-3.367-2.305-4.074-3.543-6.289-10.633-2.215-7.176-5.582-15.149-6.465-15.149-.09 0-.801.977-1.418 2.129m-7.441 5.047-3.102 1.328 3.277 4.164c1.684 2.305 3.899 6.114 4.785 8.504 1.684 4.254 1.684 4.254-1.242 11.164-1.504 3.809-4.164 11.25-5.843 16.387-6.645 20.816-12.848 31.535-24.981 43.672-9.391 9.39-15.68 13.816-35.168 25.066-15.68 8.95-21.172 12.668-21.879 14.618-.265.62 1.328 2.921 3.453 5.226l3.899 4.074 7.441-.62c21.879-1.86 43.668-11.16 59.172-25.423 12.668-11.691 20.906-25.07 25.246-41.011 2.481-9.125 3.012-29.942.973-38.36-3.188-13.019-7.438-23.738-11.16-28.078-1.684-1.859-2.039-1.949-4.871-.711"/><path fill="#f5a701" d="M305.328-162.152c.711.265 1.508.179 1.86-.086.265-.356-.266-.535-1.239-.535-1.152.089-1.328.265-.621.621m-9.832 5.226-2.746 3.102 3.102-2.746c1.683-1.594 3.011-2.922 3.011-3.102 0-.707-.711-.09-3.367 2.746m19.043-.176c.356.442.801.883 1.066.883.266 0 .176-.441-.089-.883-.356-.531-.797-.976-1.063-.976s-.265.445.086.976m-4.16 4.961c-1.063 1.95-.797 3.012 1.769 8.059 3.989 7.887 8.239 21.527 10.098 32.336 7.973 46.86-26.66 90.883-78.75 100.008-4.516.797-10.363 1.418-12.93 1.418-3.546 0-4.785.441-5.492 1.86-.886 1.683-.621 1.948 2.567 2.835 5.226 1.504 20.64 1.238 29.5-.445 27.636-5.223 52.617-20.64 65.992-40.836 19.312-28.965 20.019-68.739 1.418-81.582-3.367-2.305-4.074-3.543-6.289-10.633-2.215-7.176-5.582-15.149-6.465-15.149-.09 0-.801.977-1.418 2.129m-1.508 8.86c1.774 2.922 3.899 7.437 4.785 10.008.883 2.57 1.77 4.515 1.949 4.25 1.153-1.063-6.82-17.715-9.035-19.133-.531-.266.532 1.859 2.301 4.875m10.899-3.457c0 .707.265.972.617.621a.857.857 0 0 0 0-1.242c-.352-.356-.617-.086-.617.621m-19.403.886c-.265.442.266 1.418 1.153 2.125 1.507 1.153 1.507 1.063.445-.265-1.067-1.328-1.067-1.684 0-2.125.797-.266.883-.446.086-.531-.621 0-1.418.265-1.684.796m-3.808 3.899c2.039 2.035 3.898 3.719 4.164 3.719s-1.243-1.684-3.278-3.719c-2.039-2.129-3.898-3.813-4.164-3.813s1.239 1.684 3.278 3.813m24.093-1.949c0 .707.356.972.711.621a.86.86 0 0 0 0-1.242c-.355-.356-.711-.09-.711.621m-16.562 3.808c.351.531.797.973 1.062.973.266 0 .266-.442-.089-.973-.352-.531-.797-.976-1.063-.976s-.176.445.09.976m2.48 3.809c1.328 2.922 1.77 3.453 1.77 2.215 0-.532-.621-1.774-1.418-2.746-1.414-1.774-1.414-1.684-.352.531m16.032-.977c0 .711.265.977.621.621a.853.853 0 0 0 0-1.238c-.356-.355-.621-.09-.621.617m3.277 4.785c.355.446.797.887 1.062.887.27 0 .27-.441-.086-.887-.355-.531-.796-.972-1.066-.972-.262 0-.176.441.09.972m-17.539.887c0 .707.355.973.711.617a1.06 1.06 0 0 0 0-1.238c-.356-.355-.711-.09-.711.621m.711 3.719c-.356 1.594-.266 1.949.441 1.242.531-.531.797-1.508.621-2.215-.265-.711-.711-.265-1.062.973m7.086 1.062c0 .797.351 2.481.797 3.813.621 1.859.707 1.945.796.441 0-1.062-.355-2.746-.796-3.808-.532-1.153-.797-1.328-.797-.446m16.386.887c.356.531.797.977 1.063.977s.18-.446-.09-.977c-.351-.441-.797-.887-1.062-.887-.266 0-.176.446.089.887m-25.421 2.481c-.977 2.304-.711 2.921.441 1.062.531-.973.797-1.949.531-2.215-.176-.265-.707.266-.972 1.153m27.371.445c.265.441.797.883.972.883.27 0 .27-.442-.086-.883-.265-.535-.796-.977-1.062-.977s-.18.442.176.977m-16.653 3.719c0 .707.352.972.707.621.266-.266.266-.887 0-1.242-.355-.356-.707-.086-.707.621m-17.984 1.949c0 .707.266.973.621.617a.85.85 0 0 0 0-1.238c-.355-.356-.621-.086-.621.621m4.785 0c0 .707.266.973.617.617a.85.85 0 0 0 0-1.238c-.351-.356-.617-.086-.617.621m14.348 2.836c0 1.328.179 1.859.445 1.148.266-.621.266-1.683 0-2.39-.266-.621-.445-.09-.445 1.242m-15.324 0c0 .707.265.972.621.617a.853.853 0 0 0 0-1.238c-.356-.356-.621-.09-.621.621m-.973 2.832c0 .711.266.976.617.621a.856.856 0 0 0 0-1.242c-.351-.352-.617-.086-.617.621m-5.668 2.836c0 .707.266.972.617.621a.856.856 0 0 0 0-1.242c-.351-.356-.617-.086-.617.621m4.781 0c0 .707.266.972.621.621a.856.856 0 0 0 0-1.242c-.355-.356-.621-.086-.621.621m18.336 8.058c0 5.23.09 7.176.356 4.43.175-2.746.175-6.996 0-9.477-.266-2.39-.356-.175-.356 5.047m20.551-6.554c0 1.062.266 1.332.531.535.266-.621.266-1.508 0-1.774-.351-.355-.617.266-.531 1.239m-39.859 1.332c0 .707.265.972.617.617a.853.853 0 0 0 0-1.238c-.352-.356-.617-.09-.617.621m-4.786.972c0 .707.356.977.707.621.27-.355.27-.886 0-1.242-.351-.351-.707-.086-.707.621m3.899 2.391c.09 1.152.265 1.328.531.621.356-.711.266-1.508 0-1.859-.355-.266-.531.265-.531 1.238m-4.785.445c0 .707.265.973.621.617a.853.853 0 0 0 0-1.238c-.356-.355-.621-.09-.621.621m46.593 1.414c0 1.598.18 2.04.446 1.153.265-.883.265-2.215 0-2.832-.266-.621-.446.086-.446 1.679m-43.757 3.282c0 .707.265.972.621.617.351-.266.351-.887 0-1.239-.356-.355-.621-.09-.621.622m-.973 2.832c0 .71.266.976.617.71a.964.964 0 0 0 0-1.331c-.351-.352-.617 0-.617.62m-1.774 4.34c-1.503 3.456-1.242 4.253.442 1.066.797-1.508 1.332-2.836 1.062-3.102-.175-.18-.882.707-1.504 2.035m46.504 1.859c0 1.597.18 2.039.446 1.156.265-.887.265-2.219 0-2.836-.266-.62-.446.09-.446 1.68m-22.765.445c0 1.328.179 1.86.445 1.239.266-.708.266-1.77 0-2.391s-.445-.086-.445 1.152m-29.496 0c0 .711.265.973.621.621a.864.864 0 0 0 0-1.242c-.356-.352-.621-.09-.621.621m28.433 5.317c.09 1.062.266 1.328.621.53.266-.62.176-1.507-.089-1.773-.352-.351-.532.266-.532 1.243m-27.547 2.3c-.531 1.063-.796 1.86-.531 1.86.266 0 .973-.797 1.504-1.86s.797-1.949.531-1.949c-.265 0-.883.887-1.504 1.95m50.313-.441c0 1.152.266 1.328.531.617.266-.707.266-1.504 0-1.86-.351-.265-.617.266-.531 1.243m-23.652 1.95c0 1.062.269 1.327.535.53.265-.62.265-1.507-.09-1.773-.266-.352-.531.18-.445 1.242m-29.141 2.39c-.356.707-.18.886.441.445.621-.355 1.153-.887 1.153-1.066 0-.797-.887-.442-1.594.62m28.082.797c0 .71.266.976.617.62.356-.265.356-.886 0-1.241-.351-.352-.617-.086-.617.62m-34.637 1.152c-.445.621-.265.797.352.356 1.152-.622 1.508-1.508.711-1.508-.266 0-.711.53-1.063 1.152m4.696.887c-.446.707-.266.883.441.441 1.062-.707 1.418-1.504.621-1.504-.18 0-.711.531-1.062 1.063m-8.063 3.453c-1.152 1.508-1.152 1.508.356.355 1.593-1.242 2.035-2.039 1.328-2.039-.266 0-.977.711-1.684 1.684m4.695.887c-1.152 1.504-1.152 1.593.356.441 1.594-1.238 2.125-2.035 1.328-2.035-.18 0-.977.707-1.684 1.594m31.09-.176c-.972 2.39-.707 3.011.446 1.062.531-.886.796-1.86.531-2.129-.266-.265-.707.27-.977 1.067m24.008.441c0 .707.266.973.621.621a.856.856 0 0 0 0-1.242c-.355-.355-.621-.09-.621.621m-.973 2.832c0 .711.262.977.618.621a.853.853 0 0 0 0-1.238c-.356-.355-.618-.09-.618.617m-61.125 4.961-4.691 5.051 4.957-4.781c4.609-4.344 5.406-5.23 4.695-5.23-.175 0-2.39 2.304-4.961 4.96m34.106-.176c-.356.621-.442 1.243-.176 1.508s.707-.18.973-.976c.711-1.684.175-2.035-.797-.532m-43.672 2.922c-.356.711-.176.887.445.446.617-.356 1.149-.887 1.149-1.063 0-.797-.883-.445-1.594.617m41.723.977c-.442.707-.266.887.445.441.617-.351 1.062-.883 1.062-1.062 0-.797-.796-.442-1.507.62m-45.973 2.48c-1.152 1.508-1.152 1.508.352.352 1.597-1.238 2.128-2.035 1.332-2.035-.266 0-.977.797-1.684 1.683m5.227 1.418-1.774 2.125 2.125-1.773c1.152-1.063 2.125-1.946 2.125-2.125 0-.797-.797-.266-2.476 1.773m38.886-1.066c-.441.71-.265.887.356.445 1.148-.71 1.504-1.508.707-1.508-.266 0-.707.446-1.063 1.063m-47.39 1.95c-.446.62-.27.796.441.355.531-.356 1.063-.797 1.063-1.063 0-.797-.797-.441-1.504.707m45 1.507c-1.243 1.508-1.153 1.508.351.355 1.508-1.242 2.039-2.039 1.242-2.039-.175 0-.886.711-1.593 1.684m-47.836.355c-.442.707-.266.797.441.442.531-.356 1.066-.887 1.066-1.153 0-.796-.886-.355-1.507.711m7.531 0c-.356.707-.27.797.441.442.621-.356 1.063-.887 1.063-1.153 0-.796-.797-.355-1.504.711m-3.723 2.832c-.441.711-.265.887.356.446.621-.356 1.152-.887 1.152-1.153 0-.707-.887-.355-1.508.707m35.524 6.29-6.114 6.378 6.379-6.113c3.543-3.363 6.465-6.285 6.465-6.465 0-.62-.972.266-6.73 6.2m31.711-3.454c-.442.707-.266.887.445.442.527-.352 1.059-.883 1.059-1.063 0-.797-.793-.441-1.504.621m-81.496.977c-.442.707-.266.793.445.441.617-.441 1.062-.886 1.062-1.152 0-.797-.797-.355-1.507.71m7.617.352c-1.77 1.417-1.77 1.417.265.44 1.243-.526 2.129-1.237 2.129-1.413 0-.797-.445-.531-2.394.972m-4.696 2.835c-1.769 1.418-1.769 1.418.27.442 1.148-.531 2.125-1.239 2.125-1.418 0-.797-.531-.531-2.395.976m73.348 3.012c-1.238 1.508-1.152 1.594.356.356 1.593-1.243 2.035-1.95 1.238-1.95-.176 0-.887.707-1.594 1.594m-79.988.797c-1.774 1.418-1.774 1.418.265.441 1.149-.53 2.125-1.238 2.125-1.504 0-.71-.445-.445-2.39 1.063m44.469 3.543-1.774 2.125 2.125-1.86c1.949-1.683 2.57-2.48 1.774-2.48-.18 0-1.153.977-2.125 2.215m-51.114.266c-1.773 1.418-1.773 1.418.266.445 1.152-.621 2.125-1.242 2.125-1.508 0-.71-.442-.531-2.391 1.063m47.305 2.48c-.356.621-.27.797.441.355.618-.355 1.063-.796 1.063-1.062 0-.8-.797-.445-1.504.707m-62.984 2.39c-1.243 1.509-1.153 1.598.355.356 1.594-1.242 2.035-1.95 1.238-1.95-.175 0-.886.708-1.593 1.595m8.062-.53c-.445.71-.269.796.441.445.532-.356 1.063-.887 1.063-1.153 0-.796-.797-.355-1.504.707m52.086 0c-.445.71-.266.796.441.445.622-.356 1.063-.887 1.063-1.153 0-.796-.797-.355-1.504.707m-54.922 1.863c-.441.707-.265.883.442.441.531-.355 1.066-.887 1.066-1.062 0-.797-.887-.446-1.508.62m43.672 3.808c-4.164 2.035-6.555 3.453-5.227 3.098 2.832-.797 13.286-5.934 13.286-6.555s.711-.886-8.059 3.457m41.102-2.304c-1.243 1.507-1.153 1.593.355.445 1.594-1.242 2.035-2.04 1.238-2.04-.175 0-.886.708-1.593 1.595m-89.028 1.949-2.301 2.57 2.567-2.305c2.48-2.125 3.101-2.921 2.305-2.921-.176 0-1.329 1.238-2.571 2.656m-5.222-.621c-.446.71-.266.886.441.441.531-.351 1.062-.883 1.062-1.062 0-.797-.796-.442-1.503.62m90 1.949c-.446.71-.266.797.441.441.531-.441 1.062-.882 1.062-1.148 0-.8-.796-.355-1.503.707m-46.508 3.277a.857.857 0 0 0 1.242 0c.352-.265.086-.617-.621-.617-.711 0-.977.352-.621.617m-36.762 1.328c.266.532.797.887 1.063.887s.175-.355-.09-.887c-.352-.53-.883-.972-1.063-.972-.265 0-.265.441.09.972m33.926-.355a.857.857 0 0 0 1.242 0c.355-.352.09-.617-.621-.617-.707 0-.973.265-.621.617m-3.363.977c.707.265 1.503.265 1.859-.09.266-.266-.266-.532-1.242-.442-1.153 0-1.328.266-.617.532m44.199.445c-.442.707-.266.883.355.441.621-.355 1.153-.886 1.153-1.152 0-.711-.887-.356-1.508.71m-47.922.527c.621.27 1.508.18 1.773-.086.352-.355-.265-.531-1.242-.531-1.062.09-1.328.266-.531.617m-3.809.887c.707.266 1.504.266 1.774 0 .351-.352-.18-.617-1.242-.531-1.063 0-1.329.265-.532.53m-19.843 1.594c.445.445 3.101.62 5.937.445l5.047-.266-5.844-.53c-3.277-.267-5.582-.09-5.14.35m13.644-.618c.883.266 2.215.266 2.832 0 .621-.265-.086-.445-1.683-.445-1.594 0-2.125.18-1.149.445M214.09-9.347c.351.532.797.977 1.062.977.266 0 .266-.445-.089-.977-.352-.53-.797-.972-1.063-.972s-.176.441.09.972m61.476 2.48a.853.853 0 0 0 1.239 0c.355-.265.09-.62-.621-.62-.707 0-.973.355-.618.62m-2.836.977c.266.352.887.352 1.239 0 .355-.355.09-.62-.617-.62-.711 0-.977.265-.622.62m-53.859 1.239c.266.53.797.976 1.063.976s.179-.445-.176-.976c-.266-.442-.797-.887-1.063-.887-.175 0-.175.445.176.887m50.938-.266c.351.356.972.356 1.328 0 .351-.355 0-.621-.621-.621-.707 0-.977.266-.707.621m-11.34 2.836a.863.863 0 0 0 1.242 0c.352-.356.086-.621-.621-.621-.711 0-.977.265-.621.621m-31.27.973c.356.355.973.355 1.239 0 .355-.352.089-.621-.618-.621-.711 0-.976.27-.621.62m26.043 0c.707.265 1.504.265 1.86-.086.265-.356-.266-.535-1.239-.535-1.152.09-1.328.27-.621.62m-20.461.976c.973.176 2.481.176 3.364 0 .886-.265.179-.445-1.68-.445-1.774 0-2.57.18-1.684.445m10.985 0c1.148.176 2.832.176 3.718 0 .977-.265 0-.445-2.125-.445-2.039 0-2.836.18-1.593.445"/><path fill="#fcd900" d="m302.938-146.563-2.125 1.067 3.363 4.516c1.773 2.48 3.898 6.289 4.695 8.593 1.418 3.809 1.328 4.25-.797 8.856-1.238 2.57-4.25 10.898-6.73 18.515-11.164 33.84-24.274 48.454-63.074 70.157-6.907 3.898-14.172 8.504-16.207 10.187l-3.723 3.192 3.808 3.808 3.899 3.895 8.238-.618c15.149-1.152 35.789-8.328 48.102-16.832 6.73-4.605 18.16-15.765 22.676-22.144 5.226-7.531 10.187-18.16 12.402-27.02 2.656-10.453 2.48-32.953-.266-42.164-2.836-9.39-5.402-15.945-8.328-20.816-2.656-4.606-2.746-4.695-5.933-3.192"/></g></svg>