<svg xmlns="http://www.w3.org/2000/svg" width="494pt" height="235pt" viewBox="0 -235 494 235"><g id="page1"><g fill-rule="evenodd"><path fill="#f8eee5" d="M46.852-150.762c-.805.438-.743 1.676.062 2.047.93.375 1.738-.496 1.43-1.426-.188-.621-.871-.929-1.492-.621m-11.72.313c-.495.183-.616.867-.308 1.238.434.559 1.301.313 1.364-.371 0-.684-.497-1.113-1.055-.867m2.852 5.023c-3.593.309-6.507 1.176-8.68 2.539l-.62.438.187.433c3.535 8.868 22.2 11.719 31.688 4.774.37-.246.617-.496.617-.559-5.457-4.836-15.871-8.246-23.192-7.625m.063.992c-1.238.309-1.363.93-.309 1.985l.621.621-.125.68c-.062.496-.062.867 0 1.179.125.559.063.617-.187.742-.434.25-1.176.063-1.797-.433-.434-.309-.496-.309-.309.125.496.867 1.672 1.301 2.48.867.31-.125.372-.125.434-.062.805.929 3.41.867 4.465-.184.559-.559.617-.871.063-.438-1.801 1.368-4.465.622-4.465-1.238.059-1.117.059-1.18.742-1.426.992-.375 1.985-1.117 1.985-1.55 0-.622-2.356-1.18-3.598-.868m5.394 12.028c-1.425 1.984-3.593 6.265-4.586 8.929l-.25.559.747.496c3.097 1.984 2.046 7.379-1.489 7.813l-.433.062.12.684c1.614 10.23 13.954 10.351 15.567.183l.063-.371-.496.309c-6.45 3.535-10.79-4.836-4.465-8.742.992-.621 1.984-1.364 2.726-2.047l.434-.371-.246-1.489a59 59 0 0 1-.621-5.086l-.063-1.113-.742.063c-.809.058-5.582 0-5.89-.063-.188-.062-.25 0-.376.184"/><path fill="#e1bc97" d="M49.023-192.242c-1.3.246-2.605 1.176-2.851 2.543-.371 1.797-.063 3.656.434 5.394 1.55 4.465 4.773 8.184 6.136 12.774.438 1.488.438 3.039.25 4.523.309.125 1.489.563.684.438-4.282-.621-8.93-.871-13.024.929-3.472 1.489-6.015 4.711-7.504 8.184-1.113 2.852-2.48 5.644-3.656 8.496-.746 1.922-1.55 4.031-.93 6.074 0 .684.434.188.743 0 3.722-2.355 8.308-2.851 12.648-2.539 6.824.559 13.52 3.16 18.914 7.442.434.183.063.742.559.246 1.613-1.672 3.101-3.473 3.906-5.645 2.11-4.957 1.3-10.789-1.55-15.254-1.798-2.972-4.403-5.332-7.38-7.066-.37-.434 1.117.558 1.242-.246 2.852-3.785 5.145-8.371 5.02-13.274-.121-4.152-2.168-8.183-5.516-10.664-2.296-1.676-5.21-2.914-8.125-2.355m.309 4.215c-.496.125-1.797.871-.617.558 1.176-.496.867 1.055.93 1.797.062 2.297.867 4.469 1.859 6.449 1.238 2.668 2.789 5.211 3.535 8.063.063.496.184 1.055.246 1.551-.246.621-.558 1.175-.68 1.796 1.114-1.363 1.86-3.039 2.418-4.773 1.176-3.906.993-8.309-.867-12.031-.992-1.922-2.855-3.719-5.148-3.656-.559 0-1.18.062-1.676.246m-22.258 2.73c-2.418.496-4.96 1.672-6.265 3.906-.555.93-.555 2.231.062 3.161 1.305 2.359 3.848 3.472 6.203 4.464 4.153 1.676 8.617 2.481 12.586 4.528.992.558 1.797 1.242 2.543 2.047 1.117-.25 2.23-.434 3.348-.622-.063-3.16-.742-6.386-2.23-9.175-2.298-4.403-6.7-7.813-11.723-8.434-1.489-.187-3.035-.125-4.524.125m.93 3.656c-1.8.375-3.723 1.551-4.031 3.473-.188.684.37-.496.558-.617.309-.496.559-.125.805.183 1.488 1.551 3.227 2.914 5.27 3.719 3.038 1.242 6.328 2.11 9.242 3.848.992.558 1.672 1.551 2.047 2.664.308.433-.063-.867-.063-1.113-.93-4.653-3.969-8.93-8.187-11.164-1.735-.868-3.72-1.364-5.641-.993M45.488-152c-2.047.684-2.914 3.348-1.922 5.148.746 1.672 3.04 2.481 4.528 1.301 1.86-1.363 1.922-4.527.062-5.89-.746-.622-1.8-.868-2.668-.559m-11.781.559c-1.734 1.054-1.86 3.66-.68 5.144.742 1.055 2.54 1.117 3.348.063 1.3-1.547 1.055-4.34-.809-5.27-.617-.309-1.3-.25-1.859.063m21.703 17.734c-1.426.496-2.914.742-4.402.992 0 2.356.308 4.711.683 7.008.371.742.993-.809 1.301-1.117.93-1.489 1.735-3.039 2.293-4.711.25.121-.183 1.484-.308 2.043-.93 3.414-3.66 6.015-6.512 7.875-1.3.871-2.606 2.109-2.543 3.785 0 .309-.121.742.375.805.742.496 1.734.496 2.539.062-.309.434-1.238.742-1.922.742-.93-.308-.742.313-.246.746.68.993 2.168 1.301 3.223.68.746-.058-1.86.934-.496.871 2.417.184 4.527-1.488 6.015-3.289 2.79-3.285 4.094-7.875 2.977-12.027-.434-1.613-1.117-3.227-2.168-4.528-.25-.183-.559 0-.809.063m-14.012 1.676c-3.101 2.539-5.89 5.703-7.132 9.547-.559 1.984-.684 4.464.746 6.14.433.559 1.113.867 1.797.992-.434-.375-.805-.808-1.055-1.304.742.808 1.922 1.304 2.977.871.37-.188.93-.684 1.054-.992-1.054 0-1.984-.621-2.355-1.551.617.558 1.488 1.238 2.418.867.804-.559.68-1.734.558-2.543-.25-1.055-1.18-1.734-1.984-2.293-.992-.746-1.676-1.984-1.55-3.226.308.621.616 1.367 1.112 1.863 1.18-2.981 2.668-5.832 4.344-8.621.805-1.364-.621.062-.93.25m18.168 7.004c-.375 3.722-2.109 7.316-4.898 9.859-.992.434-1.117 1.426-1.242 2.418-.559 2.914-2.606 5.707-5.52 6.637-1.734.621-3.656.496-5.332-.125 1.985 1.3 4.34 2.23 6.7 2.668.867-.25.804-1.614 1.3-2.297 1.239-2.539 2.727-5.145 5.086-6.696.992-.683 2.293-.929 3.348-.371 1.176-.125 2.543-.375 3.594.555 1.117.684 1.675 2.051 1.367 3.352.246.371.496 1.984.867.929 1.3-2.293 1.3-5.086.433-7.504-.992-3.039-3.101-5.457-4.59-8.246-.308-.433-.804-1.797-1.05-1.675 0 .125-.063.312-.063.496m8.371 4.898c-.87.25-1.488.867-1.921 1.613-.375-.308-1.305-1.55-1.739-1.117 1.86 2.856 2.914 6.387 2.11 9.738-.125.93-.809 1.797-.93 2.665.93.187 1.797-.247 2.418-.93.559 0 1.113.25 1.672.062 1.488-.308 2.48-2.047 1.922-3.472-.617-1.18 1.367-.434 1.613-1.426.684-.93.063-2.418-1.113-2.543-.438 0-1.055.125-.621-.434.804-1.675-.313-3.968-2.172-4.218-.434-.063-.867-.063-1.239.062m-39.19 5.024c-.993.062-1.985.929-2.048 1.984-.12.558.313 1.801.125 1.859-.496-.679-.496-1.609-.62-2.418-.68 1.117-.31 2.543.124 3.723.621 1.363 1.55 2.543 2.48 3.719.434-.559 1.243-.684 1.86-.371 1.8.679 3.289 2.046 4.281 3.718.559.621-.187 2.297 1.176 1.614 1.18-.371 1.922-1.426 3.04-1.797 1.55-.684 3.226-.992 4.835-1.367-3.098-1.547-5.89-4.153-6.883-7.563-.37-.746-.742.867-1.054 1.238-.68.871-.06 1.922.062 2.914.125.375.188 1.243-.121.438-.871-1.926-1.676-3.973-3.227-5.52-.683-.746-1.984-.683-2.543.121-.496.622-.496 1.368-.433 2.11.187-1.117 1.613-.617 1.676.312.37 1.239-1.368 1.176-1.489.121-.375-.679.246 1.18-.25.25-.68-1.179-.867-2.914.313-3.843.246-.438 1.922-.496.805-.934-.684-.246-1.364-.492-2.11-.308m-1.61 1.921c-.621.746-.188 2.11.617 2.543 1.18.188.867-1.613.375-2.23-.25-.25-.621-.559-.992-.313m29.265 1.055c-1.797 1.055-2.976 2.914-4.093 4.715-1.301 2.418-2.54 5.019-2.79 7.812-.124.93.063 2.293 1.243 2.356 1.922.246 3.718-.621 5.457-1.426 2.601-1.363 5.144-3.164 6.758-5.707.68-1.113 1.054-2.48.496-3.719-.621.868-1.676 1.426-2.73 1.735.991-.992 2.296-1.922 2.355-3.473-.121-1.551-1.797-2.914-3.348-2.293-1.238.434-1.922 1.551-2.48 2.606-.122-.497.433-1.797.93-2.481.312-.93-1.364-.312-1.798-.125m-.558.742c-.93.563-.184 2.172.746 1.367.992-.433.617-2.359-.559-1.488l-.062.063zm3.968.684c-.93.433-1.671 1.676-1.117 2.605.746.805 2.047.188 2.418-.683.496-.68.375-1.922-.68-1.922a1.04 1.04 0 0 0-.62 0m2.294 4.34c-1.301.621-.184 2.48.87 1.367.993-.746.122-2.234-.87-1.367m-7.254.496c-2.047.808-3.594 2.668-4.032 4.777-.246 1.055.25 2.418 1.489 2.602 1.613.125 3.101-1.051 4.093-2.231.93-1.117 1.676-2.605 1.301-4.094-.309-1.238-1.797-1.488-2.851-1.054"/><path fill="#f8b2b0" d="M50.512-185.98c.062 2.667.433 3.968 1.922 7.07 2.109 4.34 2.851 6.262 3.101 7.937l.063.559.433-1.242c2.543-7.688.188-14.946-5.148-15.813l-.434-.062zm-22.57 5.269c-.684.125-2.172.746-2.356.992-.063.125 1.176 1.43 2.105 2.172 1.489 1.238 2.543 1.797 5.024 2.727 4.715 1.8 6.324 2.543 7.937 3.847l.25.184-.187-.559c-2.977-6.757-7.813-10.293-12.774-9.363m-.805 67.84c-.496.68.496 2.601 1.05 1.922.313-.371.125-1.367-.37-1.864-.247-.308-.497-.308-.68-.058m28.894 1.734c-.433.434-.433.992 0 1.055.434.062 1.055-.809.805-1.238-.121-.25-.496-.188-.805.183m-25.797.063c-.183.125-.125.683.063 1.054.433.559.992.497.992-.125 0-.679-.684-1.3-1.055-.929m29.579.746c-.184.121-.497.308-.622.492-1.113 1.242.063 2.543 1.305 1.43 1.176-1.055.617-2.606-.684-1.922m-30.137 3.719a1.2 1.2 0 0 0-.434.371l-.183.187.992.992c1.672 1.614 4.277 3.594 4.836 3.594.246 0-.25-1.238-.867-2.105-1.426-2.047-3.29-3.352-4.344-3.039m32.554.496c-.742.558-.433 1.488.372.992.312-.125.558-.559.558-.809 0-.433-.496-.554-.93-.183m-7.066.433c-2.234.684-4.344 3.473-4.094 5.395.309 2.726 4.403 1.426 6.016-1.922 1.055-2.356.121-4.094-1.922-3.473"/><path d="M49.148-193.051c-2.793.438-3.906 1.863-3.906 5.024 0 2.976.742 5.086 3.719 10.23 2.668 4.777 3.348 6.574 3.348 9.117 0 1.489 0 1.489-.993 1.239-1.3-.309-2.043-.372-3.53-.434h-1.43l-.06-.992c-.558-8.742-5.273-14.942-12.773-16.863-8.746-2.235-16.992 3.41-12.714 8.742 1.984 2.418 4.28 3.66 10.851 5.64 5.645 1.676 7.692 2.606 9.18 3.907l.558.558-.808.313c-4.031 1.734-6.57 4.523-8.555 9.425-.437.993-1.054 2.418-1.367 3.223-1.984 4.402-2.664 6.078-2.914 7.317-1.363 6.078 3.535 11.285 12.402 13.332l1.055.25-.805.617c-7.566 6.328-10.047 16.246-4.343 17.672.808.187.808.808.187 1.921a38 38 0 0 0-.684 1.243c-.308.621-.308.621-.554.062-1.739-3.66-5.399-5.457-7.754-3.781-.184.121-.496.309-.68.309-3.289.679-1.367 6.632 3.531 11.097 4.157 3.785 5.953 4.281 8.188 2.235.805-.747 3.16-1.551 6.074-2.047l.992-.125 1.055.308c.559.188 1.426.438 1.926.563.554.121.988.183.988.183s-.121.496-.246 1.055c-.371 1.426-.496 2.727-.371 3.41.867 5.086 13.95-1.18 15.687-7.441.246-.805.309-.867.68-.742.871.183 2.11 0 2.73-.559.247-.187.31-.25 1.055-.25 2.106 0 3.535-1.426 3.535-3.473v-.742l.496-.25c1.735-.93 1.61-3.594-.187-4.402-.309-.063-.434-.184-.371-.246.93-3.352-3.473-6.078-6.078-3.723l-.309.313-.375-.25c-.496-.309-1.176-.559-1.61-.559-.433 0-.683-.309-2.171-2.914-1.734-3.102-2.23-4.094-2.418-5.145-.371-1.675-1.117-3.472-2.047-4.961l-.371-.621.434-.183c12.527-5.086 13.27-24.434 1.242-30.512-.25-.121-.496-.246-.496-.246-.063 0 .246-.371.554-.867 5.77-7.817 6.328-16.063 1.489-22.016-2.852-3.531-7.442-5.578-11.036-4.961m-.125.809c-2.418.558-3.285 2.105-2.976 5.207.309 2.605.93 4.219 3.535 8.746 3.04 5.332 3.719 7.5 3.473 10.726l-.063.555.559.25c.742.313.68.313-.621.125-10.54-1.551-16.68 1.488-20.09 9.922-.684 1.672-.992 2.356-2.235 5.145-2.168 4.777-2.601 6.449-2.043 8.746 2.043 8.246 18.231 12.336 29.083 7.312 12.214-5.578 11.718-22.508-.872-29.887-.68-.433-.742-.496-.12-.308.679.187.679.187 1.238-.621 4.96-6.633 6.078-13.207 3.222-18.789-2.355-4.774-7.875-7.996-12.09-7.129m.309 4.215c-.434.125-1.238.558-1.238.683 0 0 .25-.062.62-.125.93-.183.868-.246.93 1.242.126 3.036.56 4.403 2.665 8.68 2.047 4.031 2.668 5.52 2.855 7.192l.121.683-.37.992c-.497 1.117-.434 1.117.187.246 5.64-8.429 1.613-21.949-5.77-19.593m1.18 2.047c.062 2.667.433 3.968 1.922 7.07 2.109 4.34 2.851 6.262 3.101 7.937l.063.559.433-1.242c2.543-7.688.188-14.946-5.148-15.813l-.434-.062zm-23.438.683c-4.344.805-7.504 3.969-6.512 6.449 1.176 2.789 3.97 4.461 11.41 6.758 6.2 1.922 8.372 2.914 9.86 4.465l.371.434 1.055-.188c.62-.125 1.238-.246 1.426-.309.183 0 .496-.062.62-.125h.247l-.063-1.117c-.558-10.601-8.992-18.105-18.414-16.367m.93 3.656c-2.11.438-3.844 1.864-4.031 3.411l-.063.375.25-.434c.184-.188.371-.496.496-.559l.246-.25.746.809c2.168 2.105 3.594 2.973 7.13 4.215 6.511 2.355 8.124 3.285 8.867 5.086.433 1.113.496 1.113.25-.188-1.243-7.379-8.188-13.582-13.891-12.465m-.063.93c-.683.125-2.171.746-2.355.992-.063.125 1.176 1.43 2.105 2.172 1.489 1.238 2.543 1.797 5.024 2.727 4.715 1.8 6.324 2.543 7.937 3.847l.25.184-.187-.559c-2.977-6.757-7.813-10.293-12.774-9.363M45.488-152c-3.222 1.18-3.039 6.078.188 6.883 2.168.558 4.152-1.551 3.843-4.031-.308-2.047-2.292-3.473-4.03-2.852m-11.781.559c-2.418 1.363-1.613 5.953.992 5.953 1.922.062 3.102-2.606 2.11-4.711-.621-1.367-1.985-1.864-3.102-1.242m13.086.679c-.375.25-.559.563-.559 1.059 0 .988 1.114 1.484 1.86.805.992-.868-.188-2.543-1.301-1.864m-11.844.375c-.312.188-.433.684-.25 1.055.313.742 1.364.559 1.489-.313.124-.679-.68-1.175-1.239-.742m3.532 5.953c-1.61.246-1.797 1.176-.497 2.231l.313.25v1.301c0 1.242 0 1.3-.188 1.425-.433.313-1.3.125-1.922-.433-.37-.309-.37-.246-.124.187.496.868 1.55 1.176 2.48.743.25-.125.313-.125.434 0 1.054.929 3.847.746 4.527-.372.312-.496.25-.558-.063-.25-.992.872-3.347.93-4.152.063-.371-.434-.496-.93-.371-2.106l.059-.433.496-.188c2.976-.929 2.172-2.914-.992-2.418m16.93 10.727c-.868.309-2.481.684-3.474.867l-.93.125v.93c0 1.488.622 6.14.806 6.324.312.371 2.605-3.598 3.226-5.519q.558-1.49.184.375c-.555 3.41-2.664 6.261-6.387 8.742-2.105 1.363-2.914 2.48-2.914 3.906v.742l.496.313c.684.308 1.488.308 2.172.062.496-.25.37-.062-.188.246-.558.313-1.3.434-1.859.371-.434-.121-.496-.121-.125.438.809 1.238 2.11 1.672 3.352 1.051.433-.184.433-.184.246 0a6 6 0 0 0-.684.433c-.68.313-.555.375.559.375 3.472 0 7.504-4.465 8.558-9.426.742-3.41.125-6.945-1.86-9.921-.433-.68-.433-.68-1.179-.434m-14.013 1.676c-5.457 4.461-8.312 9.855-7.32 13.828.313 1.484 1.305 2.601 2.418 2.789l.313.062-.371-.375c-.188-.183-.434-.433-.497-.617l-.187-.312.371.312c.992.93 2.48.93 3.348 0l.312-.375-.433-.121a2.26 2.26 0 0 1-1.614-.992c-.433-.559-.433-.684 0-.25.992.992 2.356.93 2.606-.063.433-1.488-.063-2.914-1.367-3.718-1.364-.867-2.106-2.11-2.106-3.285v-.375l.184.375c.375.804.87 1.546.93 1.488.062-.063.25-.559.495-1.18.622-1.488 2.235-4.715 3.29-6.449 1.117-1.922 1.117-1.984-.372-.742m1.301.804c-1.676 2.664-2.668 4.653-3.597 6.946-.621 1.551-.621 1.363.187 1.859 3.102 1.984 2.168 7.133-1.363 7.813-.621.062-.621 0-.375 1.179.558 2.789 2.297 5.457 4.031 6.262 5.457 2.605 10.79-.371 11.535-6.387l.063-.496-.746.371c-6.633 3.102-10.293-4.773-4.09-8.804 1.3-.868 2.293-1.672 2.789-2.168l.246-.25-.184-1.426c-.375-2.235-.558-3.41-.558-4.899l-.063-1.425-.93.062c-1.18.121-3.906.121-5.148 0l-.992-.062zm16.867 6.2c-.375 4.031-2.73 8.371-5.707 10.48-.125.125-.183.246-.246.805-.746 5.953-5.707 9.363-10.976 7.504-.434-.125.867.621 1.86 1.117a25 25 0 0 0 3.968 1.363c1.18.246 1.117.313 1.488-.621 2.418-6.137 6.078-9.734 8.742-8.68.496.188.559.188.871.125 2.23-.808 4.899 1.364 4.403 3.536-.063.308-.063.433.062.617.121.125.246.496.309.746.187.558.25.558.742-.621 1.488-3.164.871-6.883-1.922-11.102-1.113-1.797-1.86-3.035-2.789-4.711-.371-.679-.684-1.238-.684-1.238-.058 0-.058.246-.12.68m8.371 4.898c-.62.188-1.304.684-1.675 1.242-.371.496-.309.496-.621 0-.247-.375-.68-.683-1.176-.808-.313-.121-.313-.121.183.683 2.235 3.66 2.606 7.813 1.055 10.977-.434.867-.434.805.25.805.617 0 1.113-.184 1.61-.68l.374-.313.497.125c1.488.309 2.976-.746 3.16-2.293.062-.375 0-.683-.246-1.675-.063-.188 0-.188.308-.188.992 0 1.676-.742 1.676-1.672s-.684-1.613-1.738-1.613h-.434l.25-.559c.93-2.293-1.117-4.711-3.472-4.031m-39.19 5.024c-1.735.25-2.419 1.55-1.86 3.785.062.246.062.246-.063.058-.246-.308-.558-1.301-.558-1.922s-.121-.621-.309 0c-.434 1.614.371 3.786 2.23 6.141l.622.805.37-.309c1.427-1.305 6.637 3.102 6.016 5.082-.183.746 1.551.188 2.668-.867.742-.684 2.664-1.363 5.457-1.922l.68-.187-.617-.309c-3.04-1.676-5.274-4.152-6.203-6.945-.246-.868-.188-.868-.867.496-.684 1.304-.684 1.242-.434 2.172.246.804.434 2.105.371 1.984-.062 0-.246-.434-.434-.867-2.047-4.59-3.535-6.203-5.086-5.336q-1.022.56-.93 2.047v.496l.126-.309c.433-1.054 1.922.121 1.55 1.176-.312.746-1.18.438-1.488-.434-.125-.433-.187-.183-.062.313.125.434-.063.184-.371-.434-.809-1.863-.25-3.472 1.363-3.91.246-.058.434-.183.371-.183-.125-.25-1.613-.746-1.984-.684 0 0-.246 0-.559.063m-1.61 1.921c-.496.313-.375 1.614.183 2.235.746.804 1.489.125 1.18-.934-.25-1.051-.867-1.609-1.363-1.301m0 .313c-.496.68.496 2.601 1.05 1.922.313-.371.125-1.367-.37-1.864-.247-.308-.497-.308-.68-.058m29.265.742c-3.843 1.922-8.68 13.27-6.261 14.695 1.859 1.055 7.504-1.363 10.914-4.648 2.23-2.109 3.039-4.094 2.539-5.77l-.121-.246-.313.371a4.16 4.16 0 0 1-1.797 1.18l-.62.184.929-.867c1.613-1.614 1.863-2.852.684-4.157-1.426-1.609-3.536-.992-4.774 1.367-.25.497-.434.68-.375.559.188-1.055.438-1.801.934-2.359.554-.743-.496-.93-1.739-.309m-.558.742c-.68.684-.559 1.492.187 1.551.559.063 1.364-.867 1.176-1.484-.184-.563-.805-.563-1.363-.067m.187.25c-.433.434-.433.992 0 1.055.434.062 1.055-.809.805-1.238-.121-.25-.496-.188-.805.183m-25.797.063c-.183.125-.125.683.063 1.054.433.559.992.497.992-.125 0-.679-.684-1.3-1.055-.929m29.579.371c-1.551.683-1.797 2.976-.31 2.976 1.798 0 2.665-2.851.93-2.976-.25-.063-.495 0-.62 0m0 .375c-.184.121-.497.308-.622.492-1.113 1.242.063 2.543 1.305 1.43 1.176-1.055.617-2.606-.684-1.922m-30.137 3.719a1.2 1.2 0 0 0-.434.371l-.183.187.992.992c1.672 1.614 4.277 3.594 4.836 3.594.246 0-.25-1.238-.867-2.105-1.426-2.047-3.29-3.352-4.344-3.039m32.43.246c-.372.25-.68.871-.555 1.179.246.993 1.734.434 1.86-.683.062-.68-.622-.992-1.306-.496m.124.25c-.742.558-.433 1.488.372.992.312-.125.558-.559.558-.809 0-.433-.496-.554-.93-.183m-7.378.246c-2.664.929-4.774 4.527-3.844 6.386 1.3 2.606 6.14-.37 6.758-4.089.312-1.864-1.051-2.977-2.914-2.297m.312.187c-2.234.684-4.344 3.473-4.094 5.395.309 2.726 4.403 1.426 6.016-1.922 1.055-2.356.121-4.094-1.922-3.473"/><path fill="#f2f2f2" d="M146.82-174.039c-1.152.617-1.062 2.391.086 2.922 1.328.531 2.481-.707 2.039-2.039-.265-.883-1.242-1.328-2.125-.883m-16.742.441c-.711.266-.887 1.239-.445 1.774.621.797 1.859.441 1.949-.535 0-.973-.707-1.594-1.504-1.239m4.074 7.176c-5.136.442-9.3 1.684-12.402 3.633l-.887.617.266.621c5.051 12.668 31.715 16.742 45.266 6.821.531-.356.886-.708.886-.797-7.797-6.911-22.676-11.782-33.129-10.895m.086 1.418c-1.769.441-1.949 1.328-.441 2.832l.887.887-.176.976c-.09.707-.09 1.239 0 1.68.176.801.086.887-.27 1.063-.617.355-1.679.089-2.566-.618-.621-.445-.707-.445-.442.176.708 1.242 2.391 1.86 3.543 1.242.442-.179.532-.179.618-.089 1.152 1.328 4.875 1.238 6.379-.266.796-.797.886-1.242.089-.621-2.57 1.949-6.379.887-6.379-1.774.09-1.593.09-1.679 1.063-2.035 1.418-.531 2.836-1.594 2.836-2.215 0-.886-3.367-1.683-5.141-1.238m7.707 17.184c-2.035 2.836-5.136 8.945-6.554 12.754l-.352.8 1.063.707c4.429 2.836 2.921 10.543-2.125 11.161l-.622.089.176.973c2.305 14.617 19.934 14.797 22.235.266l.089-.532-.71.446c-9.211 5.047-15.415-6.91-6.375-12.492 1.414-.883 2.832-1.95 3.894-2.922l.621-.532-.355-2.125a85 85 0 0 1-.883-7.265l-.09-1.594-1.062.09c-1.153.086-7.973 0-8.415-.09-.265-.09-.355 0-.535.266"/><path fill="#ccc" d="M149.922-233.305c-1.863.356-3.723 1.684-4.078 3.633-.531 2.57-.086 5.227.621 7.707 2.215 6.379 6.82 11.695 8.769 18.25.621 2.125.621 4.34.356 6.465.441.18 2.125.797.973.621-6.114-.887-12.754-1.242-18.602 1.328-4.961 2.125-8.594 6.731-10.719 11.692-1.594 4.078-3.543 8.062-5.226 12.136-1.063 2.746-2.215 5.758-1.328 8.684 0 .973.621.266 1.062 0 5.316-3.367 11.871-4.078 18.07-3.633 9.746.797 19.313 4.516 27.02 10.629.621.266.086 1.063.797.355 2.301-2.39 4.429-4.96 5.582-8.062 3.011-7.086 1.859-15.414-2.215-21.789-2.57-4.254-6.289-7.621-10.543-10.102-.531-.617 1.594.797 1.769-.351 4.079-5.406 7.356-11.961 7.176-18.957-.176-5.938-3.097-11.696-7.883-15.239-3.277-2.39-7.441-4.164-11.601-3.367m.441 6.028c-.711.175-2.57 1.238-.886.797 1.683-.711 1.242 1.503 1.328 2.566.09 3.277 1.242 6.379 2.66 9.215 1.769 3.808 3.984 7.441 5.047 11.515.09.707.265 1.504.355 2.215-.355.883-.797 1.684-.976 2.567 1.593-1.95 2.66-4.34 3.457-6.821 1.683-5.582 1.418-11.871-1.243-17.183-1.417-2.746-4.074-5.317-7.351-5.227-.797 0-1.684.086-2.391.356m-31.8 3.894c-3.458.711-7.086 2.395-8.95 5.582-.797 1.328-.797 3.188.09 4.52 1.86 3.363 5.492 4.961 8.86 6.375 5.933 2.39 12.312 3.543 17.98 6.468 1.418.797 2.57 1.77 3.633 2.922 1.594-.355 3.187-.621 4.785-.886-.09-4.516-1.066-9.121-3.191-13.11-3.278-6.289-9.567-11.16-16.743-12.047-2.125-.265-4.339-.175-6.464.176m1.328 5.227c-2.571.531-5.317 2.215-5.758 4.961-.266.976.531-.707.797-.883.441-.711.797-.18 1.152.262 2.125 2.214 4.606 4.164 7.527 5.316 4.34 1.773 9.036 3.012 13.2 5.492 1.418.797 2.39 2.215 2.921 3.809.446.621-.085-1.239-.085-1.594-1.329-6.645-5.668-12.758-11.696-15.945-2.476-1.239-5.312-1.95-8.058-1.418m24.98 42.343c-2.926.973-4.164 4.786-2.746 7.352 1.063 2.391 4.34 3.543 6.465 1.859 2.656-1.949 2.746-6.464.09-8.414-1.063-.886-2.571-1.238-3.809-.797m-16.832.797c-2.48 1.508-2.656 5.227-.973 7.352 1.063 1.508 3.629 1.594 4.782.09 1.863-2.215 1.507-6.199-1.153-7.531-.882-.442-1.859-.352-2.656.089m31.004 25.336c-2.035.707-4.164 1.063-6.289 1.414 0 3.368.441 6.735.976 10.012.532 1.063 1.415-1.152 1.86-1.594 1.328-2.125 2.48-4.34 3.277-6.73.356.176-.265 2.125-.445 2.922-1.328 4.871-5.227 8.59-9.301 11.25-1.859 1.238-3.719 3.011-3.633 5.402 0 .445-.175 1.063.535 1.152 1.063.707 2.481.707 3.629.086-.441.621-1.769 1.067-2.746 1.067-1.328-.446-1.062.441-.351 1.062.972 1.418 3.097 1.86 4.605.973 1.063-.086-2.656 1.328-.711 1.242 3.457.266 6.469-2.129 8.594-4.695 3.988-4.696 5.848-11.25 4.254-17.188-.621-2.3-1.598-4.605-3.102-6.465-.355-.265-.797 0-1.152.09m-20.02 2.391c-4.429 3.633-8.414 8.148-10.187 13.641-.797 2.835-.973 6.378 1.062 8.769.622.801 1.594 1.242 2.571 1.418-.621-.531-1.153-1.152-1.504-1.859 1.062 1.152 2.746 1.859 4.25 1.242.531-.27 1.328-.977 1.508-1.418-1.508 0-2.836-.887-3.368-2.215.883.797 2.125 1.77 3.454 1.238 1.152-.797.976-2.48.796-3.632-.351-1.504-1.683-2.481-2.832-3.278-1.418-1.062-2.394-2.832-2.214-4.605.441.886.882 1.949 1.593 2.66 1.684-4.254 3.809-8.328 6.2-12.317 1.152-1.949-.883.09-1.329.356m25.957 10.012c-.535 5.312-3.011 10.453-7 14.082-1.417.621-1.593 2.039-1.769 3.457-.801 4.164-3.723 8.148-7.887 9.476-2.48.887-5.226.707-7.617-.176 2.832 1.86 6.199 3.188 9.566 3.809 1.243-.355 1.153-2.305 1.86-3.277 1.773-3.633 3.898-7.352 7.265-9.567 1.418-.976 3.278-1.332 4.782-.531 1.683-.18 3.633-.531 5.14.797 1.594.973 2.391 2.922 1.95 4.781.351.531.707 2.836 1.238 1.328 1.859-3.277 1.859-7.261.621-10.718-1.418-4.34-4.43-7.793-6.555-11.782-.445-.617-1.152-2.566-1.508-2.39 0 .179-.086.441-.086.711m11.958 6.996c-1.243.355-2.125 1.242-2.747 2.304-.531-.445-1.859-2.214-2.48-1.593 2.656 4.074 4.164 9.121 3.012 13.906-.176 1.328-1.153 2.566-1.328 3.809 1.328.265 2.57-.356 3.453-1.329.797 0 1.593.356 2.39.086 2.129-.441 3.547-2.922 2.746-4.957-.882-1.683 1.95-.621 2.305-2.039.977-1.328.09-3.457-1.594-3.633-.621 0-1.507.176-.886-.621 1.152-2.39-.442-5.668-3.098-6.023-.621-.086-1.242-.086-1.773.09m-55.985 7.176c-1.418.089-2.836 1.328-2.922 2.835-.179.797.442 2.567.176 2.657-.711-.977-.711-2.305-.887-3.457-.972 1.597-.441 3.632.176 5.316.887 1.949 2.219 3.633 3.543 5.316.621-.796 1.774-.976 2.66-.531 2.571.973 4.696 2.922 6.114 5.313.796.886-.266 3.277 1.679 2.304 1.684-.531 2.746-2.039 4.344-2.57 2.215-.973 4.605-1.418 6.906-1.949-4.426-2.215-8.414-5.934-9.832-10.805-.531-1.062-1.062 1.238-1.504 1.77-.976 1.242-.09 2.746.086 4.164.18.531.27 1.773-.176.621-1.238-2.746-2.39-5.668-4.605-7.883-.977-1.066-2.836-.976-3.633.176-.707.887-.707 1.949-.617 3.012.266-1.594 2.301-.887 2.391.441.531 1.773-1.95 1.684-2.125.18-.536-.977.351 1.679-.356.351-.976-1.679-1.242-4.16.442-5.492.355-.617 2.746-.707 1.152-1.328-.977-.352-1.949-.707-3.012-.441m-2.305 2.746c-.882 1.062-.265 3.011.887 3.632 1.684.266 1.242-2.304.531-3.191-.351-.352-.886-.797-1.418-.441m41.813 1.504c-2.57 1.507-4.25 4.164-5.848 6.734-1.859 3.453-3.633 7.176-3.984 11.16-.18 1.328.09 3.277 1.769 3.367 2.747.356 5.317-.887 7.797-2.039 3.719-1.945 7.352-4.515 9.657-8.148.972-1.594 1.503-3.543.707-5.317-.887 1.243-2.391 2.039-3.899 2.481 1.418-1.414 3.278-2.746 3.367-4.957-.175-2.215-2.566-4.164-4.785-3.281-1.769.621-2.746 2.214-3.543 3.722-.176-.711.621-2.57 1.332-3.543.442-1.328-1.949-.445-2.57-.179m-.797 1.066c-1.328.797-.266 3.098 1.063 1.945 1.418-.617.886-3.363-.797-2.125l-.09.09zm5.668.973c-1.328.621-2.391 2.39-1.594 3.718 1.063 1.153 2.922.27 3.453-.972.711-.977.536-2.746-.972-2.746a1.5 1.5 0 0 0-.887 0m3.277 6.199c-1.859.887-.265 3.547 1.243 1.949 1.418-1.062.175-3.187-1.243-1.949m-10.363.711c-2.922 1.152-5.137 3.808-5.758 6.82-.355 1.508.356 3.453 2.125 3.719 2.305.18 4.43-1.504 5.848-3.188 1.328-1.593 2.391-3.718 1.859-5.847-.441-1.77-2.566-2.125-4.074-1.504"/><path fill="#f8b2b0" d="M152.047-224.355c.086 3.808.617 5.667 2.742 10.097 3.016 6.203 4.078 8.949 4.434 11.34l.086.797.621-1.774c3.633-10.984.265-21.347-7.352-22.585l-.621-.09zm-32.246 7.531c-.973.176-3.102 1.058-3.367 1.414-.086.18 1.683 2.039 3.011 3.101 2.129 1.774 3.633 2.571 7.176 3.899 6.734 2.566 9.035 3.633 11.34 5.492l.355.266-.265-.797c-4.254-9.656-11.164-14.707-18.25-13.375m-1.153 96.906c-.707.977.711 3.723 1.508 2.746.442-.531.176-1.949-.531-2.656-.355-.442-.711-.442-.977-.09m41.282 2.48c-.621.622-.621 1.418 0 1.508.621.086 1.504-1.152 1.152-1.773-.18-.352-.711-.266-1.152.265m-36.852.09c-.265.176-.176.973.09 1.504.621.797 1.418.711 1.418-.176 0-.972-.977-1.859-1.508-1.328m42.254 1.063c-.266.176-.707.441-.887.711-1.593 1.769.09 3.629 1.864 2.035 1.679-1.508.882-3.719-.977-2.746m-43.051 5.316a1.7 1.7 0 0 0-.621.531l-.265.266 1.418 1.418c2.39 2.301 6.113 5.137 6.91 5.137.355 0-.356-1.774-1.243-3.012-2.035-2.926-4.691-4.785-6.199-4.34m46.508.707c-1.062.797-.621 2.125.531 1.418.442-.176.797-.797.797-1.152 0-.621-.711-.797-1.328-.266m-10.101.621c-3.188.973-6.2 4.961-5.844 7.707.441 3.899 6.289 2.036 8.59-2.746 1.507-3.367.179-5.847-2.746-4.961"/><path d="M150.098-234.453c-3.989.617-5.582 2.656-5.582 7.176 0 4.25 1.062 7.261 5.316 14.613 3.809 6.82 4.781 9.391 4.781 13.023 0 2.125 0 2.125-1.418 1.77-1.859-.442-2.922-.531-5.047-.617h-2.039l-.086-1.418c-.796-12.492-7.531-21.348-18.25-24.094-12.488-3.191-24.269 4.871-18.16 12.488 2.836 3.457 6.114 5.227 15.504 8.063 8.059 2.39 10.985 3.719 13.11 5.578l.796.801-1.152.441c-5.758 2.481-9.391 6.465-12.223 13.465-.621 1.418-1.507 3.453-1.949 4.605-2.836 6.289-3.808 8.68-4.164 10.454-1.949 8.679 5.051 16.121 17.719 19.046l1.504.352-1.153.887c-10.804 9.035-14.347 23.207-6.199 25.246 1.153.265 1.153 1.152.266 2.746a52 52 0 0 0-.977 1.773c-.441.883-.441.883-.797.086-2.476-5.226-7.707-7.797-11.07-5.402-.265.176-.711.441-.976.441-4.696.977-1.95 9.481 5.05 15.86 5.934 5.402 8.504 6.109 11.692 3.187 1.152-1.062 4.519-2.215 8.683-2.922l1.414-.179 1.508.445c.797.266 2.035.617 2.746.797.797.176 1.418.265 1.418.265s-.179.707-.355 1.504c-.531 2.039-.707 3.899-.531 4.875 1.242 7.262 19.929-1.683 22.41-10.632.355-1.153.445-1.239.976-1.063 1.239.266 3.012 0 3.899-.797.351-.265.441-.355 1.504-.355 3.011 0 5.05-2.035 5.05-4.961v-1.063l.707-.351c2.481-1.332 2.305-5.141-.265-6.293-.442-.086-.621-.266-.531-.352 1.328-4.785-4.961-8.683-8.68-5.316l-.445.441-.532-.351c-.707-.446-1.683-.797-2.3-.797-.622 0-.977-.446-3.102-4.164-2.48-4.43-3.188-5.848-3.453-7.352-.535-2.394-1.598-4.961-2.926-7.09l-.531-.883.621-.265c17.894-7.266 18.957-34.903 1.769-43.582-.351-.18-.707-.356-.707-.356-.089 0 .356-.531.797-1.242 8.239-11.16 9.035-22.941 2.125-31.445-4.074-5.051-10.629-7.973-15.765-7.086m-.176 1.148c-3.457.801-4.695 3.016-4.254 7.442.441 3.722 1.328 6.023 5.051 12.492 4.34 7.617 5.312 10.719 4.957 15.324l-.086.797.797.355c1.062.442.972.442-.887.176-15.059-2.215-23.828 2.125-28.699 14.172-.977 2.395-1.418 3.367-3.192 7.356-3.097 6.82-3.718 9.211-2.921 12.488 2.921 11.781 26.042 17.629 41.542 10.453 17.454-7.973 16.747-32.156-1.238-42.695-.972-.621-1.062-.711-.176-.446.973.266.973.266 1.77-.882 7.086-9.481 8.684-18.872 4.605-26.844-3.363-6.821-11.25-11.426-17.269-10.188m.441 6.028c-.621.175-1.773.797-1.773.972 0 0 .355-.09.887-.175 1.328-.266 1.242-.356 1.328 1.769.175 4.34.797 6.289 3.808 12.402 2.926 5.758 3.809 7.883 4.075 10.278l.179.972-.531 1.418c-.711 1.594-.621 1.594.266.356 8.058-12.051 2.3-31.36-8.239-27.992m1.684 2.922c.086 3.808.617 5.667 2.742 10.097 3.016 6.203 4.078 8.949 4.434 11.34l.086.797.621-1.774c3.633-10.984.265-21.347-7.352-22.585l-.621-.09zm-33.484.972c-6.204 1.153-10.719 5.672-9.301 9.215 1.679 3.984 5.668 6.379 16.297 9.652 8.859 2.75 11.961 4.164 14.086 6.379l.531.621 1.504-.265c.886-.176 1.773-.356 2.039-.442.265 0 .707-.09.886-.179h.356l-.09-1.594c-.797-15.149-12.844-25.867-26.308-23.387m1.328 5.227c-3.012.621-5.493 2.66-5.758 4.875l-.09.531.355-.621c.266-.266.532-.707.707-.797l.356-.355 1.062 1.152c3.102 3.012 5.137 4.25 10.188 6.023 9.301 3.368 11.605 4.696 12.668 7.262.617 1.598.707 1.598.351-.266-1.769-10.539-11.691-19.398-19.839-17.804m-.09 1.332c-.973.176-3.102 1.058-3.367 1.414-.086.18 1.683 2.039 3.011 3.101 2.129 1.774 3.633 2.571 7.176 3.899 6.734 2.566 9.035 3.633 11.34 5.492l.355.266-.265-.797c-4.254-9.656-11.164-14.707-18.25-13.375m25.07 41.011c-4.605 1.684-4.34 8.68.266 9.833 3.097.796 5.933-2.215 5.492-5.758-.445-2.922-3.277-4.961-5.758-4.075m-16.832.797c-3.453 1.95-2.305 8.504 1.418 8.504 2.746.09 4.43-3.718 3.012-6.73-.887-1.949-2.836-2.66-4.43-1.774m18.691.977c-.531.351-.796.797-.796 1.504 0 1.418 1.593 2.125 2.656 1.152 1.418-1.242-.266-3.633-1.86-2.656m-16.917.531c-.446.266-.622.973-.356 1.504.441 1.063 1.949.797 2.125-.441.18-.977-.973-1.684-1.769-1.063m5.046 8.504c-2.3.352-2.57 1.684-.707 3.188l.442.355v1.859c0 1.774 0 1.86-.266 2.036-.617.445-1.859.179-2.746-.618-.531-.445-.531-.355-.176.266.707 1.238 2.215 1.684 3.543 1.063.356-.176.442-.176.621 0 1.504 1.328 5.493 1.062 6.465-.532.445-.711.356-.797-.09-.355-1.414 1.242-4.781 1.328-5.933.09-.532-.621-.707-1.328-.532-3.012l.09-.621.707-.266c4.254-1.328 3.102-4.164-1.418-3.453m24.184 15.324c-1.238.442-3.543.973-4.961 1.239l-1.328.175v1.332c0 2.125.887 8.77 1.152 9.036.442.531 3.719-5.137 4.606-7.883q.798-2.128.265.531c-.797 4.871-3.808 8.945-9.125 12.488-3.011 1.949-4.164 3.543-4.164 5.582v1.063l.711.441c.973.446 2.125.446 3.102.09.707-.355.531-.09-.266.356-.801.441-1.863.617-2.66.531-.617-.18-.707-.18-.176.621 1.153 1.769 3.012 2.39 4.781 1.504.622-.266.622-.266.356 0a8 8 0 0 0-.973.621c-.976.441-.797.531.797.531 4.961 0 10.719-6.379 12.223-13.465 1.062-4.871.18-9.922-2.656-14.172-.622-.976-.622-.976-1.684-.621m-20.02 2.391c-7.793 6.379-11.871 14.086-10.453 19.754.446 2.125 1.86 3.719 3.457 3.984l.442.09-.531-.531c-.266-.266-.622-.621-.708-.887l-.265-.441.527.441c1.418 1.328 3.547 1.328 4.785 0l.446-.531-.621-.176c-.887-.09-1.774-.621-2.305-1.418-.621-.797-.621-.973 0-.355 1.418 1.418 3.367 1.332 3.723-.086.617-2.125-.09-4.164-1.95-5.317-1.949-1.238-3.011-3.011-3.011-4.695v-.531l.265.531c.531 1.152 1.239 2.215 1.328 2.129.086-.09.356-.801.707-1.688.887-2.125 3.192-6.73 4.696-9.211 1.593-2.746 1.593-2.832-.532-1.062m1.86 1.152c-2.391 3.809-3.809 6.645-5.137 9.922-.887 2.215-.887 1.949.266 2.656 4.429 2.836 3.101 10.188-1.949 11.161-.887.089-.887 0-.532 1.683.797 3.988 3.278 7.797 5.758 8.949 7.797 3.719 15.414-.535 16.477-9.125l.089-.711-1.066.532c-9.476 4.429-14.703-6.821-5.844-12.578 1.86-1.239 3.278-2.391 3.985-3.098l.355-.356-.265-2.039c-.532-3.187-.797-4.871-.797-6.996l-.09-2.039-1.328.09c-1.684.176-5.578.176-7.352 0l-1.418-.09zm24.097 8.86c-.535 5.757-3.898 11.957-8.152 14.968-.176.176-.265.356-.351 1.153-1.067 8.504-8.153 13.375-15.68 10.718-.621-.179 1.238.883 2.656 1.594 1.774.797 3.899 1.504 5.668 1.949 1.684.356 1.598.442 2.125-.886 3.457-8.77 8.684-13.907 12.492-12.403.707.266.797.266 1.242.18 3.188-1.152 6.997 1.949 6.29 5.047-.09.441-.09.621.085.887.18.175.356.707.446 1.062.265.797.351.797 1.062-.887 2.125-4.515 1.239-9.832-2.746-15.855-1.594-2.57-2.656-4.34-3.988-6.73-.531-.977-.973-1.774-.973-1.774-.09 0-.09.356-.176.977m11.958 6.996c-.887.265-1.86.976-2.391 1.773-.531.707-.445.707-.887 0-.355-.531-.976-.976-1.683-1.152-.442-.18-.442-.18.265.972 3.188 5.227 3.723 11.165 1.504 15.68-.617 1.242-.617 1.153.356 1.153.886 0 1.593-.266 2.304-.973l.532-.445.707.175c2.128.446 4.253-1.062 4.519-3.277.09-.531 0-.973-.355-2.391-.086-.265 0-.265.445-.265 1.418 0 2.391-1.063 2.391-2.391s-.973-2.305-2.481-2.305h-.621l.355-.796c1.329-3.278-1.593-6.731-4.96-5.758m-55.985 7.176c-2.48.355-3.457 2.214-2.656 5.402.086.355.086.355-.09.09-.355-.442-.797-1.86-.797-2.746 0-.887-.18-.887-.441 0-.621 2.304.527 5.402 3.187 8.769l.883 1.152.535-.445c2.035-1.859 9.477 4.43 8.59 7.266-.266 1.062 2.215.265 3.813-1.242 1.062-.973 3.808-1.946 7.793-2.746l.972-.266-.883-.442c-4.339-2.39-7.531-5.933-8.859-9.921-.355-1.239-.266-1.239-1.238.711-.977 1.859-.977 1.769-.621 3.097.351 1.153.621 3.012.531 2.836-.09 0-.356-.621-.621-1.238-2.922-6.559-5.047-8.86-7.262-7.621q-1.463.798-1.328 2.926v.707l.176-.442c.621-1.508 2.746.176 2.215 1.684-.446 1.058-1.684.617-2.125-.621-.18-.621-.266-.266-.09.441.176.621-.09.266-.532-.621-1.152-2.656-.355-4.961 1.95-5.578.351-.09.617-.266.531-.266-.18-.355-2.305-1.062-2.836-.976 0 0-.355 0-.797.09m-2.305 2.746c-.707.441-.531 2.304.266 3.187 1.066 1.152 2.125.18 1.684-1.328-.356-1.504-1.239-2.305-1.95-1.859m0 .441c-.707.977.711 3.723 1.508 2.746.442-.531.176-1.949-.531-2.656-.355-.442-.711-.442-.977-.09m41.813 1.063c-5.492 2.746-12.402 18.957-8.945 20.996 2.656 1.507 10.714-1.95 15.589-6.645 3.188-3.012 4.34-5.848 3.629-8.238l-.175-.356-.442.532a5.9 5.9 0 0 1-2.57 1.683l-.887.266 1.328-1.238c2.305-2.305 2.66-4.075.977-5.934-2.039-2.305-5.051-1.418-6.82 1.945-.356.711-.622.977-.532.797.266-1.504.617-2.566 1.328-3.363.797-1.063-.711-1.328-2.48-.445m-.797 1.066c-.976.973-.797 2.125.266 2.215.797.086 1.949-1.242 1.683-2.129-.265-.797-1.152-.797-1.949-.086m.266.351c-.621.622-.621 1.418 0 1.508.621.086 1.504-1.152 1.152-1.773-.18-.352-.711-.266-1.152.265m-36.852.09c-.265.176-.176.973.09 1.504.621.797 1.418.711 1.418-.176 0-.972-.977-1.859-1.508-1.328m42.254.532c-2.215.972-2.566 4.25-.441 4.25 2.57 0 3.808-4.075 1.328-4.25-.356-.09-.707 0-.887 0m0 .531c-.266.176-.707.441-.887.711-1.593 1.769.09 3.629 1.864 2.035 1.679-1.508.882-3.719-.977-2.746m-43.051 5.316a1.7 1.7 0 0 0-.621.531l-.265.266 1.418 1.418c2.39 2.301 6.113 5.137 6.91 5.137.355 0-.356-1.774-1.243-3.012-2.035-2.926-4.691-4.785-6.199-4.34m46.328.352c-.531.355-.972 1.242-.796 1.683.355 1.418 2.48.621 2.66-.972.086-.977-.887-1.418-1.864-.711m.18.355c-1.062.797-.621 2.125.531 1.418.442-.176.797-.797.797-1.152 0-.621-.711-.797-1.328-.266m-10.543.356c-3.808 1.328-6.82 6.465-5.492 9.125 1.859 3.719 8.769-.535 9.656-5.848.442-2.656-1.508-4.254-4.164-3.277m.442.265c-3.188.973-6.2 4.961-5.844 7.707.441 3.899 6.289 2.036 8.59-2.746 1.507-3.367.179-5.847-2.746-4.961"/><path fill="#fce6e5" d="M238.828-174.039c-1.148.617-1.062 2.391.09 2.922 1.328.531 2.48-.707 2.039-2.039-.266-.883-1.242-1.328-2.129-.883m-16.738.441c-.711.266-.887 1.239-.445 1.774.621.797 1.859.441 1.949-.535 0-.973-.707-1.594-1.504-1.239m4.074 7.176c-5.141.442-9.301 1.684-12.402 3.633l-.887.617.266.621c5.05 12.668 31.714 16.742 45.265 6.821.532-.356.887-.708.887-.797-7.797-6.911-22.676-11.782-33.129-10.895m.09 1.418c-1.774.441-1.949 1.328-.445 2.832l.886.887-.179.976c-.086.707-.086 1.239 0 1.68.179.801.089.887-.262 1.063-.621.355-1.688.089-2.57-.618-.621-.445-.711-.445-.446.176.711 1.242 2.395 1.86 3.543 1.242.446-.179.532-.179.621-.089 1.153 1.328 4.871 1.238 6.379-.266.797-.797.887-1.242.09-.621-2.57 1.949-6.379.887-6.379-1.774.086-1.593.086-1.679 1.063-2.035 1.418-.531 2.836-1.594 2.836-2.215 0-.886-3.368-1.683-5.137-1.238m7.703 17.184c-2.035 2.836-5.137 8.945-6.555 12.754l-.355.8 1.066.707c4.426 2.836 2.922 10.543-2.129 11.161l-.617.089.176.973c2.305 14.617 19.93 14.797 22.234.266l.09-.532-.711.446c-9.211 5.047-15.414-6.91-6.379-12.492 1.418-.883 2.836-1.95 3.899-2.922l.621-.532-.356-2.125a85 85 0 0 1-.882-7.265l-.09-1.594-1.063.09c-1.152.086-7.972 0-8.418-.09-.265-.09-.351 0-.531.266"/><path fill="#f19c97" d="M241.93-233.305c-1.86.356-3.719 1.684-4.075 3.633-.531 2.57-.089 5.227.622 7.707 2.214 6.379 6.82 11.695 8.769 18.25.621 2.125.621 4.34.356 6.465.441.18 2.125.797.972.621-6.113-.887-12.758-1.242-18.601 1.328-4.961 2.125-8.594 6.731-10.719 11.692-1.594 4.078-3.543 8.062-5.227 12.136-1.062 2.746-2.214 5.758-1.328 8.684 0 .973.617.266 1.063 0 5.312-3.367 11.871-4.078 18.07-3.633 9.742.797 19.313 4.516 27.02 10.629.617.266.086 1.063.796.355 2.301-2.39 4.426-4.96 5.579-8.062 3.011-7.086 1.863-15.414-2.215-21.789-2.567-4.254-6.289-7.621-10.539-10.102-.532-.617 1.593.797 1.769-.351 4.074-5.406 7.356-11.961 7.176-18.957-.176-5.938-3.102-11.696-7.883-15.239-3.277-2.39-7.441-4.164-11.605-3.367m.441 6.028c-.707.175-2.566 1.238-.883.797 1.684-.711 1.239 1.503 1.328 2.566.09 3.277 1.243 6.379 2.657 9.215 1.773 3.808 3.988 7.441 5.05 11.515.09.707.266 1.504.356 2.215-.356.883-.801 1.684-.977 2.567 1.594-1.95 2.661-4.34 3.457-6.821 1.68-5.582 1.414-11.871-1.242-17.183-1.418-2.746-4.074-5.317-7.351-5.227-.797 0-1.684.086-2.395.356m-31.801 3.894c-3.453.711-7.086 2.395-8.945 5.582-.797 1.328-.797 3.188.09 4.52 1.859 3.363 5.492 4.961 8.855 6.375 5.938 2.39 12.317 3.543 17.985 6.468 1.418.797 2.566 1.77 3.633 2.922 1.593-.355 3.187-.621 4.781-.886-.086-4.516-1.063-9.121-3.188-13.11-3.277-6.289-9.566-11.16-16.742-12.047-2.125-.265-4.34-.175-6.469.176m1.332 5.227c-2.57.531-5.316 2.215-5.757 4.961-.266.976.531-.707.796-.883.442-.711.797-.18 1.153.262 2.125 2.214 4.605 4.164 7.527 5.316 4.34 1.773 9.035 3.012 13.199 5.492 1.418.797 2.391 2.215 2.922 3.809.446.621-.086-1.239-.086-1.594-1.332-6.645-5.672-12.758-11.695-15.945-2.481-1.239-5.313-1.95-8.059-1.418m24.981 42.343c-2.926.973-4.164 4.786-2.746 7.352 1.062 2.391 4.34 3.543 6.465 1.859 2.656-1.949 2.746-6.464.089-8.414-1.062-.886-2.57-1.238-3.808-.797m-16.832.797c-2.481 1.508-2.656 5.227-.977 7.352 1.067 1.508 3.633 1.594 4.785.09 1.86-2.215 1.508-6.199-1.152-7.531-.887-.442-1.859-.352-2.656.089m31.004 25.336c-2.039.707-4.164 1.063-6.289 1.414 0 3.368.441 6.735.972 10.012.532 1.063 1.418-1.152 1.864-1.594 1.328-2.125 2.476-4.34 3.277-6.73.351.176-.266 2.125-.445 2.922-1.329 4.871-5.227 8.59-9.301 11.25-1.86 1.238-3.719 3.011-3.629 5.402 0 .445-.18 1.063.527 1.152 1.067.707 2.481.707 3.633.086-.441.621-1.769 1.067-2.746 1.067-1.328-.446-1.063.441-.355 1.062.976 1.418 3.101 1.86 4.609.973 1.062-.086-2.66 1.328-.711 1.242 3.457.266 6.469-2.129 8.594-4.695 3.984-4.696 5.847-11.25 4.254-17.188-.621-2.3-1.598-4.605-3.102-6.465-.355-.265-.797 0-1.152.09m-20.02 2.391c-4.43 3.633-8.414 8.148-10.187 13.641-.797 2.835-.977 6.378 1.062 8.769.621.801 1.594 1.242 2.57 1.418-.621-.531-1.152-1.152-1.507-1.859 1.062 1.152 2.746 1.859 4.254 1.242.531-.27 1.328-.977 1.503-1.418-1.503 0-2.832-.887-3.363-2.215.887.797 2.125 1.77 3.453 1.238 1.153-.797.977-2.48.797-3.632-.355-1.504-1.683-2.481-2.836-3.278-1.414-1.062-2.39-2.832-2.215-4.605.446.886.887 1.949 1.598 2.66 1.684-4.254 3.809-8.328 6.199-12.317 1.153-1.949-.886.09-1.328.356m25.953 10.012c-.531 5.312-3.011 10.453-6.996 14.082-1.418.621-1.594 2.039-1.773 3.457-.797 4.164-3.719 8.148-7.883 9.476-2.481.887-5.227.707-7.617-.176 2.836 1.86 6.199 3.188 9.566 3.809 1.238-.355 1.153-2.305 1.86-3.277 1.773-3.633 3.898-7.352 7.265-9.567 1.414-.976 3.278-1.332 4.781-.531 1.684-.18 3.633-.531 5.137.797 1.598.973 2.395 2.922 1.949 4.781.356.531.711 2.836 1.243 1.328 1.859-3.277 1.859-7.261.621-10.718-1.418-4.34-4.43-7.793-6.555-11.782-.445-.617-1.152-2.566-1.508-2.39 0 .179-.09.441-.09.711m11.961 6.996c-1.242.355-2.129 1.242-2.746 2.304-.531-.445-1.859-2.214-2.48-1.593 2.656 4.074 4.164 9.121 3.011 13.906-.175 1.328-1.152 2.566-1.328 3.809 1.328.265 2.567-.356 3.453-1.329.797 0 1.594.356 2.395.086 2.125-.441 3.543-2.922 2.742-4.957-.883-1.683 1.949-.621 2.305-2.039.972-1.328.09-3.457-1.594-3.633-.621 0-1.508.176-.887-.621 1.153-2.39-.441-5.668-3.101-6.023-.617-.086-1.239-.086-1.77.09m-55.984 7.176c-1.418.089-2.836 1.328-2.926 2.835-.176.797.445 2.567.18 2.657-.711-.977-.711-2.305-.887-3.457-.973 1.597-.441 3.632.176 5.316.887 1.949 2.215 3.633 3.547 5.316.617-.796 1.769-.976 2.656-.531 2.566.973 4.695 2.922 6.109 5.313.801.886-.261 3.277 1.684 2.304 1.684-.531 2.75-2.039 4.344-2.57 2.215-.973 4.605-1.418 6.906-1.949-4.43-2.215-8.414-5.934-9.832-10.805-.531-1.062-1.063 1.238-1.504 1.77-.977 1.242-.09 2.746.086 4.164.18.531.266 1.773-.176.621-1.238-2.746-2.39-5.668-4.605-7.883-.977-1.066-2.836-.976-3.633.176-.707.887-.707 1.949-.621 3.012.265-1.594 2.304-.887 2.394.441.532 1.773-1.949 1.684-2.129.18-.531-.977.356 1.679-.351.351-.977-1.679-1.242-4.16.441-5.492.356-.617 2.746-.707 1.153-1.328-.973-.352-1.95-.707-3.012-.441m-2.305 2.746c-.887 1.062-.265 3.011.887 3.632 1.683.266 1.238-2.304.531-3.191-.355-.352-.887-.797-1.418-.441m41.813 1.504c-2.571 1.507-4.254 4.164-5.848 6.734-1.859 3.453-3.633 7.176-3.984 11.16-.18 1.328.086 3.277 1.769 3.367 2.746.356 5.317-.887 7.797-2.039 3.719-1.945 7.352-4.515 9.656-8.148.973-1.594 1.504-3.543.707-5.317-.886 1.243-2.39 2.039-3.898 2.481 1.418-1.414 3.277-2.746 3.367-4.957-.176-2.215-2.57-4.164-4.785-3.281-1.77.621-2.746 2.214-3.543 3.722-.176-.711.621-2.57 1.328-3.543.445-1.328-1.945-.445-2.566-.179m-.797 1.066c-1.328.797-.266 3.098 1.062 1.945 1.418-.617.883-3.363-.797-2.125l-.089.09zm5.668.973c-1.328.621-2.391 2.39-1.594 3.718 1.063 1.153 2.922.27 3.453-.972.711-.977.531-2.746-.973-2.746a1.5 1.5 0 0 0-.886 0m3.277 6.199c-1.859.887-.266 3.547 1.242 1.949 1.414-1.062.176-3.187-1.242-1.949m-10.363.711c-2.922 1.152-5.137 3.808-5.758 6.82-.355 1.508.355 3.453 2.125 3.719 2.305.18 4.43-1.504 5.848-3.188 1.328-1.593 2.39-3.718 1.859-5.847-.441-1.77-2.57-2.125-4.074-1.504"/><path fill="#f8b2b0" d="M244.059-224.355c.086 3.808.617 5.667 2.746 10.097 3.008 6.203 4.074 8.949 4.425 11.34l.09.797.621-1.774c3.629-10.984.266-21.347-7.351-22.585l-.621-.09zm-32.246 7.531c-.973.176-3.102 1.058-3.368 1.414-.086.18 1.684 2.039 3.012 3.101 2.129 1.774 3.633 2.571 7.176 3.899 6.734 2.566 9.035 3.633 11.34 5.492l.351.266-.261-.797c-4.254-9.656-11.165-14.707-18.25-13.375m-1.153 96.906c-.707.977.711 3.723 1.508 2.746.441-.531.176-1.949-.531-2.656-.356-.442-.711-.442-.977-.09m41.281 2.48c-.621.622-.621 1.418 0 1.508.622.086 1.504-1.152 1.153-1.773-.18-.352-.711-.266-1.153.265m-36.851.09c-.266.176-.176.973.09 1.504.617.797 1.418.711 1.418-.176 0-.972-.977-1.859-1.508-1.328m42.254 1.063c-.266.176-.707.441-.887.711-1.594 1.769.09 3.629 1.859 2.035 1.688-1.508.887-3.719-.972-2.746m-43.051 5.316a1.7 1.7 0 0 0-.621.531l-.266.266 1.418 1.418c2.391 2.301 6.114 5.137 6.91 5.137.356 0-.355-1.774-1.242-3.012-2.035-2.926-4.695-4.785-6.199-4.34m46.504.707c-1.063.797-.617 2.125.531 1.418.445-.176.801-.797.801-1.152 0-.621-.711-.797-1.332-.266m-10.098.621c-3.187.973-6.199 4.961-5.844 7.707.442 3.899 6.29 2.036 8.59-2.746 1.508-3.367.176-5.847-2.746-4.961"/><path d="M242.109-234.453c-3.988.617-5.582 2.656-5.582 7.176 0 4.25 1.063 7.261 5.317 14.613 3.808 6.82 4.781 9.391 4.781 13.023 0 2.125 0 2.125-1.418 1.77-1.859-.442-2.922-.531-5.047-.617h-2.039l-.09-1.418c-.797-12.492-7.527-21.348-18.246-24.094-12.488-3.191-24.273 4.871-18.16 12.488 2.836 3.457 6.113 5.227 15.504 8.063 8.059 2.39 10.984 3.719 13.109 5.578l.797.801-1.152.441c-5.758 2.481-9.391 6.465-12.223 13.465-.621 1.418-1.508 3.453-1.949 4.605-2.836 6.289-3.809 8.68-4.164 10.454-1.949 8.679 5.051 16.121 17.715 19.046l1.508.352-1.153.887c-10.804 9.035-14.351 23.207-6.199 25.246 1.148.265 1.148 1.152.266 2.746a52 52 0 0 0-.977 1.773c-.441.883-.441.883-.797.086-2.48-5.226-7.707-7.797-11.07-5.402-.27.176-.711.441-.977.441-4.695.977-1.949 9.481 5.051 15.86 5.934 5.402 8.504 6.109 11.691 3.187 1.153-1.062 4.516-2.215 8.68-2.922l1.418-.179 1.508.445c.797.266 2.035.617 2.746.797.797.176 1.414.265 1.414.265s-.176.707-.351 1.504c-.532 2.039-.707 3.899-.532 4.875 1.239 7.262 19.93-1.683 22.41-10.632.356-1.153.446-1.239.973-1.063 1.242.266 3.016 0 3.899-.797.355-.265.445-.355 1.507-.355 3.012 0 5.047-2.035 5.047-4.961v-1.063l.711-.351c2.481-1.332 2.305-5.141-.265-6.293-.446-.086-.622-.266-.532-.352 1.328-4.785-4.961-8.683-8.679-5.316l-.446.441-.531-.351c-.711-.446-1.684-.797-2.305-.797-.617 0-.972-.446-3.097-4.164-2.481-4.43-3.192-5.848-3.457-7.352-.532-2.394-1.594-4.961-2.922-7.09l-.531-.883.621-.265c17.89-7.266 18.957-34.903 1.769-43.582-.351-.18-.707-.356-.707-.356-.09 0 .356-.531.797-1.242 8.238-11.16 9.035-22.941 2.125-31.445-4.074-5.051-10.629-7.973-15.766-7.086m-.179 1.148c-3.453.801-4.696 3.016-4.25 7.442.441 3.722 1.328 6.023 5.047 12.492 4.339 7.617 5.316 10.719 4.961 15.324l-.086.797.796.355c1.063.442.973.442-.886.176-15.059-2.215-23.828 2.125-28.699 14.172-.977 2.395-1.418 3.367-3.192 7.356-3.101 6.82-3.719 9.211-2.922 12.488 2.922 11.781 26.043 17.629 41.543 10.453 17.453-7.973 16.742-32.156-1.238-42.695-.977-.621-1.063-.711-.18-.446.977.266.977.266 1.774-.882 7.086-9.481 8.679-18.872 4.605-26.844-3.363-6.821-11.25-11.426-17.273-10.188m.441 6.028c-.617.175-1.769.797-1.769.972 0 0 .355-.09.886-.175 1.328-.266 1.239-.356 1.328 1.769.176 4.34.797 6.289 3.809 12.402 2.922 5.758 3.809 7.883 4.074 10.278l.18.972-.531 1.418c-.711 1.594-.621 1.594.265.356 8.059-12.051 2.301-31.36-8.242-27.992m1.688 2.922c.086 3.808.617 5.667 2.746 10.097 3.008 6.203 4.074 8.949 4.425 11.34l.09.797.621-1.774c3.629-10.984.266-21.347-7.351-22.585l-.621-.09zm-33.489.972c-6.199 1.153-10.715 5.672-9.3 9.215 1.683 3.984 5.671 6.379 16.3 9.652 8.86 2.75 11.957 4.164 14.086 6.379l.532.621 1.503-.265c.887-.176 1.774-.356 2.039-.442.266 0 .708-.09.887-.179h.352l-.086-1.594c-.797-15.149-12.848-25.867-26.313-23.387m1.332 5.227c-3.011.621-5.492 2.66-5.757 4.875l-.09.531.355-.621c.266-.266.531-.707.707-.797l.356-.355 1.062 1.152c3.102 3.012 5.137 4.25 10.188 6.023 9.3 3.368 11.601 4.696 12.668 7.262.617 1.598.707 1.598.351-.266-1.769-10.539-11.691-19.398-19.84-17.804m-.089 1.332c-.973.176-3.102 1.058-3.368 1.414-.086.18 1.684 2.039 3.012 3.101 2.129 1.774 3.633 2.571 7.176 3.899 6.734 2.566 9.035 3.633 11.34 5.492l.351.266-.261-.797c-4.254-9.656-11.165-14.707-18.25-13.375m25.07 41.011c-4.61 1.684-4.344 8.68.265 9.833 3.098.796 5.934-2.215 5.493-5.758-.446-2.922-3.278-4.961-5.758-4.075m-16.832.797c-3.453 1.95-2.305 8.504 1.418 8.504 2.746.09 4.429-3.718 3.011-6.73-.886-1.949-2.835-2.66-4.429-1.774m18.691.977c-.531.351-.797.797-.797 1.504 0 1.418 1.594 2.125 2.657 1.152 1.418-1.242-.266-3.633-1.86-2.656m-16.922.531c-.441.266-.617.973-.351 1.504.441 1.063 1.949.797 2.125-.441.176-.977-.973-1.684-1.774-1.063m5.051 8.504c-2.305.352-2.566 1.684-.707 3.188l.441.355v1.859c0 1.774 0 1.86-.265 2.036-.621.445-1.86.179-2.746-.618-.531-.445-.531-.355-.176.266.707 1.238 2.215 1.684 3.543 1.063.352-.176.441-.176.617 0 1.508 1.328 5.492 1.062 6.469-.532.441-.711.355-.797-.09-.355-1.418 1.242-4.781 1.328-5.934.09-.531-.621-.71-1.328-.531-3.012l.086-.621.711-.266c4.25-1.328 3.102-4.164-1.418-3.453m24.184 15.324c-1.242.442-3.543.973-4.961 1.239l-1.328.175v1.332c0 2.125.886 8.77 1.152 9.036.441.531 3.719-5.137 4.605-7.883q.799-2.128.266.531c-.797 4.871-3.809 8.945-9.125 12.488-3.012 1.949-4.16 3.543-4.16 5.582v1.063l.707.441c.973.446 2.125.446 3.102.09.707-.355.531-.09-.266.356-.801.441-1.863.617-2.66.531-.621-.18-.707-.18-.176.621 1.152 1.769 3.012 2.39 4.781 1.504.621-.266.621-.266.356 0-.176.09-.621.355-.977.621-.973.441-.797.531.801.531 4.961 0 10.719-6.379 12.223-13.465 1.062-4.871.175-9.922-2.657-14.172-.621-.976-.621-.976-1.683-.621m-20.02 2.391c-7.797 6.379-11.871 14.086-10.453 19.754.441 2.125 1.859 3.719 3.453 3.984l.445.09-.531-.531c-.265-.266-.621-.621-.711-.887l-.265-.441.531.441c1.418 1.328 3.543 1.328 4.785 0l.441-.531-.617-.176c-.886-.09-1.773-.621-2.304-1.418-.621-.797-.621-.973 0-.355 1.418 1.418 3.367 1.332 3.718-.086.621-2.125-.086-4.164-1.949-5.317-1.945-1.238-3.012-3.011-3.012-4.695v-.531l.27.531c.531 1.152 1.238 2.215 1.328 2.129.09-.09.352-.801.707-1.688.887-2.125 3.192-6.73 4.695-9.211 1.594-2.746 1.594-2.832-.531-1.062m1.86 1.152c-2.391 3.809-3.809 6.645-5.137 9.922-.887 2.215-.887 1.949.265 2.656 4.43 2.836 3.098 10.188-1.949 11.161-.886.089-.886 0-.531 1.683.797 3.988 3.277 7.797 5.758 8.949 7.797 3.719 15.414-.535 16.476-9.125l.09-.711-1.062.532c-9.481 4.429-14.707-6.821-5.848-12.578 1.859-1.239 3.277-2.391 3.984-3.098l.356-.356-.266-2.039c-.531-3.187-.797-4.871-.797-6.996l-.089-2.039-1.329.09c-1.683.176-5.582.176-7.351 0l-1.418-.09zm24.093 8.86c-.531 5.757-3.894 11.957-8.148 14.968-.176.176-.266.356-.356 1.153-1.062 8.504-8.148 13.375-15.675 10.718-.621-.179 1.238.883 2.656 1.594 1.769.797 3.898 1.504 5.668 1.949 1.683.356 1.594.442 2.125-.886 3.457-8.77 8.683-13.907 12.492-12.403.707.266.797.266 1.238.18 3.192-1.152 7 1.949 6.289 5.047-.086.441-.086.621.09.887.18.175.356.707.446 1.062.261.797.351.797 1.058-.887 2.129-4.515 1.242-9.832-2.742-15.855-1.598-2.57-2.66-4.34-3.988-6.73-.532-.977-.973-1.774-.973-1.774-.09 0-.09.356-.18.977m11.961 6.996c-.886.265-1.859.976-2.39 1.773-.536.707-.446.707-.887 0-.356-.531-.977-.976-1.684-1.152-.441-.18-.441-.18.266.972 3.187 5.227 3.719 11.165 1.504 15.68-.617 1.242-.617 1.153.355 1.153.887 0 1.594-.266 2.305-.973l.531-.445.707.175c2.125.446 4.254-1.062 4.52-3.277.086-.531 0-.973-.356-2.391-.09-.265 0-.265.442-.265 1.418 0 2.394-1.063 2.394-2.391s-.976-2.305-2.48-2.305h-.621l.355-.796c1.328-3.278-1.597-6.731-4.961-5.758m-55.984 7.176c-2.481.355-3.457 2.214-2.656 5.402.086.355.086.355-.09.09-.356-.442-.797-1.86-.797-2.746 0-.887-.18-.887-.445 0-.618 2.304.531 5.402 3.191 8.769l.887 1.152.531-.445c2.035-1.859 9.477 4.43 8.59 7.266-.266 1.062 2.215.265 3.808-1.242 1.063-.973 3.813-1.946 7.797-2.746l.973-.266-.883-.442c-4.344-2.39-7.531-5.933-8.859-9.921-.356-1.239-.266-1.239-1.242.711-.973 1.859-.973 1.769-.618 3.097.352 1.153.618 3.012.532 2.836-.09 0-.356-.621-.621-1.238-2.922-6.559-5.051-8.86-7.266-7.621q-1.458.798-1.328 2.926v.707l.179-.442c.618-1.508 2.747.176 2.215 1.684-.445 1.058-1.683.617-2.129-.621-.175-.621-.265-.266-.086.441.176.621-.089.266-.531-.621-1.152-2.656-.355-4.961 1.946-5.578.355-.09.621-.266.535-.266-.18-.355-2.305-1.062-2.836-.976 0 0-.356 0-.797.09m-2.305 2.746c-.707.441-.531 2.304.266 3.187 1.062 1.152 2.129.18 1.683-1.328-.355-1.504-1.238-2.305-1.949-1.859m0 .441c-.707.977.711 3.723 1.508 2.746.441-.531.176-1.949-.531-2.656-.356-.442-.711-.442-.977-.09m41.813 1.063c-5.493 2.746-12.403 18.957-8.95 20.996 2.661 1.507 10.719-1.95 15.594-6.645 3.188-3.012 4.34-5.848 3.629-8.238l-.176-.356-.441.532a5.9 5.9 0 0 1-2.57 1.683l-.887.266 1.332-1.238c2.301-2.305 2.656-4.075.973-5.934-2.039-2.305-5.051-1.418-6.821 1.945-.355.711-.621.977-.535.797.27-1.504.621-2.566 1.332-3.363.797-1.063-.711-1.328-2.48-.445m-.797 1.066c-.977.973-.797 2.125.265 2.215.797.086 1.95-1.242 1.68-2.129-.262-.797-1.148-.797-1.945-.086m.265.351c-.621.622-.621 1.418 0 1.508.622.086 1.504-1.152 1.153-1.773-.18-.352-.711-.266-1.153.265m-36.851.09c-.266.176-.176.973.09 1.504.617.797 1.418.711 1.418-.176 0-.972-.977-1.859-1.508-1.328m42.254.532c-2.215.972-2.571 4.25-.442 4.25 2.567 0 3.809-4.075 1.328-4.25-.355-.09-.71 0-.886 0m0 .531c-.266.176-.707.441-.887.711-1.594 1.769.09 3.629 1.859 2.035 1.688-1.508.887-3.719-.972-2.746m-43.051 5.316a1.7 1.7 0 0 0-.621.531l-.266.266 1.418 1.418c2.391 2.301 6.114 5.137 6.91 5.137.356 0-.355-1.774-1.242-3.012-2.035-2.926-4.695-4.785-6.199-4.34m46.328.352c-.531.355-.973 1.242-.797 1.683.356 1.418 2.481.621 2.656-.972.09-.977-.882-1.418-1.859-.711m.176.355c-1.063.797-.617 2.125.531 1.418.445-.176.801-.797.801-1.152 0-.621-.711-.797-1.332-.266m-10.539.356c-3.809 1.328-6.82 6.465-5.492 9.125 1.859 3.719 8.769-.535 9.656-5.848.441-2.656-1.508-4.254-4.164-3.277m.441.265c-3.187.973-6.199 4.961-5.844 7.707.442 3.899 6.29 2.036 8.59-2.746 1.508-3.367.176-5.847-2.746-4.961"/><path fill="#f8eee5" d="M338.824-150.762c-.804.438-.742 1.676.063 2.047.929.375 1.738-.496 1.426-1.426-.184-.621-.868-.929-1.489-.621m-11.719.313c-.496.183-.621.867-.308 1.238.433.559 1.301.313 1.363-.371 0-.684-.496-1.113-1.055-.867m2.856 5.023c-3.598.309-6.512 1.176-8.684 2.539l-.621.438.188.433c3.535 8.868 22.199 11.719 31.683 4.774.375-.246.621-.496.621-.559-5.457-4.836-15.875-8.246-23.187-7.625m.059.992c-1.239.309-1.364.93-.309 1.985l.621.621-.125.68c-.062.496-.062.867 0 1.179.125.559.063.617-.187.742-.434.25-1.176.063-1.797-.433-.434-.309-.496-.309-.309.125.496.867 1.672 1.301 2.481.867.308-.125.371-.125.433-.062.805.929 3.41.867 4.461-.184.559-.559.621-.871.063-.438-1.797 1.368-4.461.622-4.461-1.238.058-1.117.058-1.18.742-1.426.992-.375 1.984-1.117 1.984-1.55 0-.622-2.355-1.18-3.597-.868m5.394 12.028c-1.426 1.984-3.594 6.265-4.586 8.929l-.25.559.746.496c3.098 1.984 2.043 7.379-1.488 7.813l-.438.062.125.684c1.614 10.23 13.954 10.351 15.567.183l.058-.371-.496.309c-6.445 3.535-10.789-4.836-4.461-8.742.993-.621 1.985-1.364 2.727-2.047l.434-.371-.247-1.489a59 59 0 0 1-.621-5.086l-.062-1.113-.742.063c-.809.058-5.582 0-5.891-.063-.187-.062-.25 0-.375.184"/><path fill="#e1bc97" d="M340.996-192.242c-1.301.246-2.605 1.176-2.851 2.543-.375 1.797-.063 3.656.433 5.394 1.551 4.465 4.774 8.184 6.137 12.774.433 1.488.433 3.039.25 4.523.308.125 1.488.563.68.438-4.278-.621-8.926-.871-13.02.929-3.473 1.489-6.016 4.711-7.504 8.184-1.113 2.852-2.48 5.644-3.656 8.496-.746 1.922-1.551 4.031-.93 6.074 0 .684.434.188.742 0 3.719-2.355 8.309-2.851 12.649-2.539 6.82.559 13.519 3.16 18.914 7.442.433.183.062.742.558.246 1.614-1.672 3.098-3.473 3.907-5.645 2.109-4.957 1.3-10.789-1.551-15.254-1.797-2.972-4.402-5.332-7.379-7.066-.371-.434 1.117.558 1.238-.246 2.856-3.785 5.149-8.371 5.024-13.274-.121-4.152-2.168-8.183-5.52-10.664-2.293-1.676-5.207-2.914-8.121-2.355m.309 4.215c-.496.125-1.797.871-.617.558 1.175-.496.867 1.055.929 1.797.063 2.297.867 4.469 1.86 6.449 1.238 2.668 2.789 5.211 3.535 8.063.062.496.183 1.055.246 1.551-.246.621-.559 1.175-.68 1.796 1.113-1.363 1.86-3.039 2.418-4.773 1.176-3.906.992-8.309-.867-12.031-.992-1.922-2.856-3.719-5.149-3.656-.558 0-1.179.062-1.675.246m-22.258 2.73c-2.418.496-4.961 1.672-6.266 3.906-.558.93-.558 2.231.063 3.161 1.301 2.359 3.844 3.472 6.203 4.464 4.152 1.676 8.617 2.481 12.586 4.528.992.558 1.797 1.242 2.543 2.047 1.113-.25 2.23-.434 3.347-.622-.062-3.16-.746-6.386-2.234-9.175-2.293-4.403-6.695-7.813-11.719-8.434-1.484-.187-3.035-.125-4.523.125m.93 3.656c-1.801.375-3.723 1.551-4.032 3.473-.187.684.371-.496.559-.617.309-.496.559-.125.805.183 1.488 1.551 3.226 2.914 5.269 3.719 3.039 1.242 6.324 2.11 9.242 3.848.993.558 1.672 1.551 2.043 2.664.313.433-.058-.867-.058-1.113-.934-4.653-3.969-8.93-8.188-11.164-1.734-.868-3.719-1.364-5.64-.993M337.461-152c-2.047.684-2.914 3.348-1.922 5.148.746 1.672 3.039 2.481 4.527 1.301 1.86-1.363 1.922-4.527.063-5.89-.746-.622-1.801-.868-2.668-.559m-11.781.559c-1.735 1.054-1.86 3.66-.684 5.144.746 1.055 2.543 1.117 3.352.063 1.3-1.547 1.05-4.34-.809-5.27-.617-.309-1.301-.25-1.859.063m21.703 17.734c-1.426.496-2.914.742-4.403.992 0 2.356.309 4.711.684 7.008.371.742.988-.809 1.301-1.117.93-1.489 1.734-3.039 2.293-4.711.25.121-.184 1.484-.309 2.043-.929 3.414-3.66 6.015-6.511 7.875-1.301.871-2.602 2.109-2.543 3.785 0 .309-.125.742.375.805.742.496 1.734.496 2.539.062-.309.434-1.239.742-1.922.742-.93-.308-.742.313-.246.746.679.993 2.168 1.301 3.222.68.746-.058-1.859.934-.496.871 2.418.184 4.528-1.488 6.016-3.289 2.789-3.285 4.094-7.875 2.976-12.027-.433-1.613-1.117-3.227-2.171-4.528-.247-.183-.555 0-.805.063m-14.016 1.676c-3.097 2.539-5.89 5.703-7.129 9.547-.558 1.984-.683 4.464.742 6.14.434.559 1.118.867 1.801.992-.433-.375-.808-.808-1.054-1.304.742.808 1.921 1.304 2.976.871.371-.188.93-.684 1.055-.992-1.055 0-1.985-.621-2.36-1.551.622.558 1.493 1.238 2.422.867.805-.559.68-1.734.559-2.543-.25-1.055-1.18-1.734-1.984-2.293-.997-.746-1.676-1.984-1.551-3.226.308.621.621 1.367 1.117 1.863 1.176-2.981 2.664-5.832 4.34-8.621.804-1.364-.621.062-.934.25m18.172 7.004c-.375 3.722-2.109 7.316-4.898 9.859-.996.434-1.118 1.426-1.243 2.418-.558 2.914-2.605 5.707-5.519 6.637-1.734.621-3.656.496-5.332-.125 1.984 1.3 4.34 2.23 6.695 2.668.871-.25.809-1.614 1.305-2.297 1.238-2.539 2.726-5.145 5.086-6.696.988-.683 2.293-.929 3.347-.371 1.176-.125 2.54-.375 3.594.555 1.117.684 1.676 2.051 1.367 3.352.247.371.497 1.984.868.929 1.3-2.293 1.3-5.086.433-7.504-.992-3.039-3.101-5.457-4.59-8.246-.308-.433-.804-1.797-1.054-1.675 0 .125-.059.312-.059.496m8.371 4.898c-.871.25-1.488.867-1.926 1.613-.371-.308-1.3-1.55-1.734-1.117 1.859 2.856 2.914 6.387 2.109 9.738-.125.93-.808 1.797-.929 2.665.929.187 1.797-.247 2.418-.93.554 0 1.117.25 1.672.062 1.488-.308 2.48-2.047 1.921-3.472-.617-1.18 1.368-.434 1.614-1.426.683-.93.062-2.418-1.117-2.543-.434 0-1.051.125-.618-.434.805-1.675-.312-3.968-2.172-4.218-.433-.063-.867-.063-1.238.062m-39.191 5.024c-.992.062-1.985.929-2.047 1.984-.121.558.312 1.801.125 1.859-.496-.679-.496-1.609-.621-2.418-.68 1.117-.309 2.543.125 3.723.621 1.363 1.551 2.543 2.48 3.719.434-.559 1.239-.684 1.86-.371 1.8.679 3.289 2.046 4.281 3.718.555.621-.188 2.297 1.176 1.614 1.179-.371 1.922-1.426 3.039-1.797 1.551-.684 3.222-.992 4.836-1.367-3.102-1.547-5.891-4.153-6.883-7.563-.371-.746-.742.867-1.055 1.238-.68.871-.062 1.922.063 2.914.125.375.187 1.243-.125.438-.868-1.926-1.672-3.973-3.223-5.52-.684-.746-1.984-.683-2.543.121-.496.622-.496 1.368-.434 2.11.188-1.117 1.614-.617 1.676.312.371 1.239-1.363 1.176-1.488.121-.371-.679.246 1.18-.25.25-.684-1.179-.867-2.914.309-3.843.25-.438 1.925-.496.808-.934-.683-.246-1.363-.492-2.109-.308m-1.614 1.921c-.617.746-.183 2.11.622 2.543 1.179.188.867-1.613.371-2.23-.246-.25-.618-.559-.993-.313m29.27 1.055c-1.797 1.055-2.977 2.914-4.094 4.715-1.301 2.418-2.543 5.019-2.789 7.812-.125.93.063 2.293 1.238 2.356 1.922.246 3.723-.621 5.458-1.426 2.605-1.363 5.148-3.164 6.761-5.707.68-1.113 1.055-2.48.496-3.719-.621.868-1.675 1.426-2.73 1.735.992-.992 2.297-1.922 2.355-3.473-.121-1.551-1.797-2.914-3.347-2.293-1.239.434-1.922 1.551-2.481 2.606-.125-.497.434-1.797.93-2.481.312-.93-1.363-.312-1.797-.125m-.559.742c-.929.563-.183 2.172.747 1.367.992-.433.617-2.359-.559-1.488l-.063.063zm3.969.684c-.93.433-1.676 1.676-1.117 2.605.746.805 2.047.188 2.422-.683.496-.68.371-1.922-.684-1.922a1.04 1.04 0 0 0-.621 0m2.293 4.34c-1.301.621-.183 2.48.871 1.367.992-.746.121-2.234-.871-1.367m-7.254.496c-2.047.808-3.597 2.668-4.031 4.777-.246 1.055.25 2.418 1.488 2.602 1.614.125 3.102-1.051 4.094-2.231.93-1.117 1.676-2.605 1.301-4.094-.309-1.238-1.797-1.488-2.852-1.054"/><path fill="#f8b2b0" d="M342.484-185.98c.063 2.667.434 3.968 1.922 7.07 2.11 4.34 2.852 6.262 3.102 7.937l.062.559.434-1.242c2.543-7.688.184-14.946-5.149-15.813l-.433-.062zm-22.57 5.269c-.684.125-2.172.746-2.355.992-.063.125 1.175 1.43 2.105 2.172 1.488 1.238 2.543 1.797 5.024 2.727 4.71 1.8 6.324 2.543 7.937 3.847l.246.184-.183-.559c-2.977-6.757-7.813-10.293-12.774-9.363m-.809 67.84c-.496.68.497 2.601 1.055 1.922.313-.371.125-1.367-.371-1.864-.25-.308-.496-.308-.684-.058m28.899 1.734c-.434.434-.434.992 0 1.055s1.055-.809.805-1.238c-.125-.25-.496-.188-.805.183m-25.797.063c-.187.125-.121.683.063 1.054.433.559.992.497.992-.125 0-.679-.684-1.3-1.055-.929m29.578.746c-.187.121-.496.308-.621.492-1.113 1.242.063 2.543 1.305 1.43 1.176-1.055.621-2.606-.684-1.922m-30.137 3.719a1.14 1.14 0 0 0-.433.371l-.188.187.993.992c1.675 1.614 4.281 3.594 4.839 3.594.246 0-.25-1.238-.871-2.105-1.425-2.047-3.285-3.352-4.34-3.039m32.555.496c-.742.558-.433 1.488.371.992.313-.125.559-.559.559-.809 0-.433-.496-.554-.93-.183m-7.066.433c-2.235.684-4.344 3.473-4.094 5.395.309 2.726 4.402 1.426 6.016-1.922 1.05-2.356.121-4.094-1.922-3.473"/><path d="M341.121-193.051c-2.793.438-3.906 1.863-3.906 5.024 0 2.976.742 5.086 3.719 10.23 2.668 4.777 3.347 6.574 3.347 9.117 0 1.489 0 1.489-.992 1.239-1.301-.309-2.047-.372-3.531-.434h-1.43l-.058-.992c-.559-8.742-5.274-14.942-12.778-16.863-8.742-2.235-16.988 3.41-12.711 8.742 1.985 2.418 4.282 3.66 10.852 5.64 5.644 1.676 7.691 2.606 9.18 3.907l.554.558-.804.313c-4.032 1.734-6.575 4.523-8.555 9.425-.438.993-1.055 2.418-1.367 3.223-1.985 4.402-2.664 6.078-2.914 7.317-1.364 6.078 3.535 11.285 12.402 13.332l1.055.25-.805.617c-7.566 6.328-10.047 16.246-4.344 17.672.809.187.809.808.188 1.921-.25.434-.559.993-.684 1.243-.309.621-.309.621-.559.062-1.734-3.66-5.39-5.457-7.75-3.781-.183.121-.496.309-.679.309-3.289.679-1.367 6.632 3.535 11.097 4.152 3.785 5.949 4.281 8.184 2.235.804-.747 3.16-1.551 6.074-2.047l.996-.125 1.051.308c.558.188 1.425.438 1.922.563.558.121.992.183.992.183s-.121.496-.246 1.055c-.371 1.426-.496 2.727-.371 3.41.867 5.086 13.949-1.18 15.687-7.441.246-.805.309-.867.68-.742.871.183 2.109 0 2.73-.559.246-.187.309-.25 1.055-.25 2.105 0 3.531-1.426 3.531-3.473v-.742l.496-.25c1.738-.93 1.613-3.594-.183-4.402-.313-.063-.434-.184-.371-.246.929-3.352-3.473-6.078-6.079-3.723l-.308.313-.375-.25c-.496-.309-1.176-.559-1.61-.559-.433 0-.683-.309-2.171-2.914-1.735-3.102-2.231-4.094-2.418-5.145-.372-1.675-1.118-3.472-2.047-4.961l-.371-.621.433-.183c12.528-5.086 13.27-24.434 1.238-30.512l-.496-.246c-.058 0 .25-.371.559-.867 5.77-7.817 6.324-16.063 1.488-22.016-2.851-3.531-7.441-5.578-11.035-4.961m-.125.809c-2.418.558-3.285 2.105-2.976 5.207.308 2.605.929 4.219 3.535 8.746 3.039 5.332 3.718 7.5 3.472 10.726l-.062.555.558.25c.743.313.68.313-.621.125-10.543-1.551-16.679 1.488-20.089 9.922-.684 1.672-.993 2.356-2.235 5.145-2.168 4.777-2.601 6.449-2.043 8.746 2.043 8.246 18.231 12.336 29.078 7.312 12.219-5.578 11.723-22.508-.867-29.887-.68-.433-.742-.496-.125-.308.684.187.684.187 1.242-.621 4.961-6.633 6.078-13.207 3.227-18.789-2.36-4.774-7.875-7.996-12.094-7.129m.309 4.215c-.434.125-1.239.558-1.239.683 0 0 .247-.062.622-.125.929-.183.867-.246.929 1.242.121 3.036.559 4.403 2.664 8.68 2.047 4.031 2.668 5.52 2.856 7.192l.121.683-.371.992c-.496 1.117-.434 1.117.187.246 5.641-8.429 1.61-21.949-5.769-19.593m1.179 2.047c.063 2.667.434 3.968 1.922 7.07 2.11 4.34 2.852 6.262 3.102 7.937l.062.559.434-1.242c2.543-7.688.184-14.946-5.149-15.813l-.433-.062zm-23.437.683c-4.344.805-7.504 3.969-6.512 6.449 1.18 2.789 3.969 4.461 11.41 6.758 6.2 1.922 8.371 2.914 9.86 4.465l.371.434 1.054-.188c.618-.125 1.239-.246 1.426-.309.184 0 .496-.062.617-.125h.25l-.062-1.117c-.559-10.601-8.992-18.105-18.414-16.367m.93 3.656c-2.11.438-3.844 1.864-4.032 3.411l-.062.375.25-.434c.183-.188.371-.496.496-.559l.246-.25.742.809c2.172 2.105 3.598 2.973 7.133 4.215 6.512 2.355 8.121 3.285 8.867 5.086.434 1.113.496 1.113.246-.188-1.238-7.379-8.183-13.582-13.886-12.465m-.063.93c-.684.125-2.172.746-2.355.992-.063.125 1.175 1.43 2.105 2.172 1.488 1.238 2.543 1.797 5.024 2.727 4.71 1.8 6.324 2.543 7.937 3.847l.246.184-.183-.559c-2.977-6.757-7.813-10.293-12.774-9.363M337.461-152c-3.223 1.18-3.039 6.078.187 6.883 2.168.558 4.153-1.551 3.844-4.031-.308-2.047-2.293-3.473-4.031-2.852m-11.781.559c-2.418 1.363-1.614 5.953.992 5.953 1.922.062 3.101-2.606 2.109-4.711-.621-1.367-1.984-1.864-3.101-1.242m13.086.679c-.375.25-.559.563-.559 1.059 0 .988 1.113 1.484 1.859.805.993-.868-.187-2.543-1.3-1.864m-11.844.375c-.313.188-.438.684-.25 1.055.308.742 1.363.559 1.488-.313.125-.679-.683-1.175-1.238-.742m3.531 5.953c-1.609.246-1.797 1.176-.492 2.231l.309.25v1.301c0 1.242 0 1.3-.188 1.425-.434.313-1.301.125-1.922-.433-.371-.309-.371-.246-.125.187.496.868 1.551 1.176 2.481.743.25-.125.312-.125.433 0 1.055.929 3.848.746 4.528-.372.312-.496.25-.558-.063-.25-.992.872-3.348.93-4.152.063-.371-.434-.496-.93-.371-2.106l.058-.433.496-.188c2.977-.929 2.172-2.914-.992-2.418m16.93 10.727c-.867.309-2.481.684-3.473.867l-.93.125v.93c0 1.488.622 6.14.805 6.324.313.371 2.606-3.598 3.227-5.519q.557-1.49.183.375c-.554 3.41-2.664 6.261-6.386 8.742-2.106 1.363-2.914 2.48-2.914 3.906v.742l.496.313c.683.308 1.488.308 2.172.062.496-.25.371-.062-.188.246a3.3 3.3 0 0 1-1.859.371c-.434-.121-.496-.121-.125.438.808 1.238 2.109 1.672 3.347 1.051.438-.184.438-.184.25 0-.125.062-.433.25-.683.433-.68.313-.559.375.558.375 3.473 0 7.504-4.465 8.559-9.426.742-3.41.125-6.945-1.859-9.921-.434-.68-.434-.68-1.18-.434m-14.016 1.676c-5.453 4.461-8.308 9.855-7.316 13.828.312 1.484 1.304 2.601 2.418 2.789l.312.062-.371-.375c-.187-.183-.437-.433-.496-.617l-.187-.312.371.312c.992.93 2.48.93 3.347 0l.313-.375-.434-.121c-.621-.062-1.242-.433-1.613-.992-.434-.559-.434-.684 0-.25.992.992 2.355.93 2.605-.063.434-1.488-.062-2.914-1.367-3.718-1.363-.867-2.105-2.11-2.105-3.285v-.375l.183.375c.371.804.868 1.546.934 1.488.059-.063.246-.559.492-1.18.621-1.488 2.235-4.715 3.289-6.449 1.113-1.922 1.113-1.984-.375-.742m1.305.804c-1.676 2.664-2.668 4.653-3.598 6.946-.621 1.551-.621 1.363.188 1.859 3.097 1.984 2.168 7.133-1.367 7.813-.618.062-.618 0-.372 1.179.559 2.789 2.297 5.457 4.032 6.262 5.457 2.605 10.789-.371 11.535-6.387l.058-.496-.742.371c-6.636 3.102-10.293-4.773-4.093-8.804 1.304-.868 2.296-1.672 2.792-2.168l.247-.25-.188-1.426c-.371-2.235-.555-3.41-.555-4.899l-.062-1.425-.93.062c-1.179.121-3.906.121-5.148 0l-.992-.062zm16.867 6.2c-.375 4.031-2.73 8.371-5.707 10.48-.121.125-.187.246-.246.805-.746 5.953-5.707 9.363-10.977 7.504-.433-.125.868.621 1.86 1.117a25 25 0 0 0 3.969 1.363c1.179.246 1.117.313 1.488-.621 2.418-6.137 6.078-9.734 8.742-8.68.496.188.559.188.871.125 2.231-.808 4.899 1.364 4.402 3.536-.062.308-.062.433.063.617.121.125.246.496.309.746.183.558.246.558.742-.621 1.488-3.164.871-6.883-1.922-11.102-1.113-1.797-1.86-3.035-2.789-4.711-.371-.679-.684-1.238-.684-1.238-.062 0-.062.246-.121.68m8.371 4.898c-.621.188-1.305.684-1.676 1.242-.371.496-.308.496-.621 0-.246-.375-.679-.683-1.175-.808-.313-.121-.313-.121.183.683 2.234 3.66 2.606 7.813 1.055 10.977-.434.867-.434.805.25.805.617 0 1.113-.184 1.609-.68l.375-.313.492.125c1.493.309 2.981-.746 3.164-2.293.063-.375 0-.683-.246-1.675-.062-.188 0-.188.309-.188.992 0 1.676-.742 1.676-1.672s-.684-1.613-1.739-1.613h-.433l.25-.559c.93-2.293-1.117-4.711-3.473-4.031m-39.191 5.024c-1.735.25-2.418 1.55-1.86 3.785.063.246.063.246-.062.058-.246-.308-.559-1.301-.559-1.922s-.125-.621-.308 0c-.434 1.614.371 3.786 2.23 6.141l.621.805.371-.309c1.426-1.305 6.637 3.102 6.016 5.082-.188.746 1.551.188 2.668-.867.742-.684 2.664-1.363 5.453-1.922l.684-.187-.621-.309c-3.036-1.676-5.27-4.152-6.2-6.945-.25-.868-.187-.868-.867.496-.683 1.304-.683 1.242-.433 2.172.246.804.433 2.105.371 1.984-.063 0-.25-.434-.434-.867-2.047-4.59-3.535-6.203-5.086-5.336q-1.024.56-.93 2.047v.496l.125-.309c.434-1.054 1.922.121 1.551 1.176-.312.746-1.179.438-1.488-.434-.125-.433-.188-.183-.063.313.122.434-.062.184-.375-.434-.804-1.863-.246-3.472 1.368-3.91.246-.058.433-.183.371-.183-.125-.25-1.614-.746-1.985-.684 0 0-.25 0-.558.063m-1.614 1.921c-.496.313-.371 1.614.188 2.235.746.804 1.488.125 1.18-.934-.25-1.051-.871-1.609-1.368-1.301m0 .313c-.496.68.497 2.601 1.055 1.922.313-.371.125-1.367-.371-1.864-.25-.308-.496-.308-.684-.058m29.27.742c-3.844 1.922-8.68 13.27-6.262 14.695 1.86 1.055 7.5-1.363 10.91-4.648 2.235-2.109 3.04-4.094 2.543-5.77l-.121-.246-.312.371a4.17 4.17 0 0 1-1.797 1.18l-.621.184.93-.867c1.613-1.614 1.863-2.852.683-4.157-1.426-1.609-3.535-.992-4.773 1.367-.25.497-.438.68-.375.559.187-1.055.433-1.801.929-2.359.559-.743-.496-.93-1.734-.309m-.559.742c-.679.684-.558 1.492.188 1.551.559.063 1.363-.867 1.176-1.484-.184-.563-.805-.563-1.364-.067m.188.25c-.434.434-.434.992 0 1.055s1.055-.809.805-1.238c-.125-.25-.496-.188-.805.183m-25.797.063c-.187.125-.121.683.063 1.054.433.559.992.497.992-.125 0-.679-.684-1.3-1.055-.929m29.578.371c-1.551.683-1.797 2.976-.308 2.976 1.796 0 2.664-2.851.929-2.976-.25-.063-.496 0-.621 0m0 .375c-.187.121-.496.308-.621.492-1.113 1.242.063 2.543 1.305 1.43 1.176-1.055.621-2.606-.684-1.922m-30.137 3.719a1.14 1.14 0 0 0-.433.371l-.188.187.993.992c1.675 1.614 4.281 3.594 4.839 3.594.246 0-.25-1.238-.871-2.105-1.425-2.047-3.285-3.352-4.34-3.039m32.43.246c-.371.25-.68.871-.558 1.179.25.993 1.738.434 1.863-.683.062-.68-.621-.992-1.305-.496m.125.25c-.742.558-.433 1.488.371.992.313-.125.559-.559.559-.809 0-.433-.496-.554-.93-.183m-7.379.246c-2.664.929-4.773 4.527-3.844 6.386 1.301 2.606 6.137-.37 6.758-4.089.313-1.864-1.054-2.977-2.914-2.297m.313.187c-2.235.684-4.344 3.473-4.094 5.395.309 2.726 4.402 1.426 6.016-1.922 1.05-2.356.121-4.094-1.922-3.473"/><path fill="#eee5f1" d="M446.777-150.762c-.808.438-.746 1.676.063 2.047.93.375 1.734-.496 1.426-1.426-.188-.621-.871-.929-1.489-.621m-11.722.313c-.496.183-.617.867-.309 1.238.434.559 1.301.313 1.363-.371 0-.684-.496-1.113-1.054-.867m2.855 5.023c-3.597.309-6.512 1.176-8.683 2.539l-.622.438.188.433c3.535 8.868 22.199 11.719 31.687 4.774.372-.246.622-.496.622-.559-5.457-4.836-15.875-8.246-23.192-7.625m.063.992c-1.243.309-1.368.93-.313 1.985l.621.621-.125.68c-.062.496-.062.867 0 1.179.125.559.063.617-.183.742-.438.25-1.18.063-1.801-.433-.434-.309-.496-.309-.309.125.496.867 1.672 1.301 2.481.867.308-.125.371-.125.433-.062.805.929 3.411.867 4.465-.184.559-.559.621-.871.063-.438-1.801 1.368-4.465.622-4.465-1.238.062-1.117.062-1.18.742-1.426.992-.375 1.984-1.117 1.984-1.55 0-.622-2.355-1.18-3.593-.868m5.394 12.028c-1.429 1.984-3.597 6.265-4.59 8.929l-.25.559.746.496c3.098 1.984 2.047 7.379-1.488 7.813l-.433.062.125.684c1.609 10.23 13.949 10.351 15.562.183l.063-.371-.497.309c-6.449 3.535-10.789-4.836-4.464-8.742.992-.621 1.984-1.364 2.726-2.047l.434-.371-.246-1.489a60 60 0 0 1-.621-5.086l-.063-1.113-.742.063c-.809.058-5.582 0-5.891-.063-.187-.062-.25 0-.371.184"/><path fill="#b994c6" d="M448.945-192.242c-1.3.246-2.601 1.176-2.851 2.543-.371 1.797-.063 3.656.433 5.394 1.551 4.465 4.774 8.184 6.141 12.774.434 1.488.434 3.039.246 4.523.313.125 1.488.563.684.438-4.282-.621-8.93-.871-13.024.929-3.472 1.489-6.015 4.711-7.504 8.184-1.113 2.852-2.476 5.644-3.656 8.496-.742 1.922-1.551 4.031-.93 6.074 0 .684.434.188.743 0 3.722-2.355 8.308-2.851 12.652-2.539 6.82.559 13.516 3.16 18.91 7.442.434.183.063.742.559.246 1.613-1.672 3.101-3.473 3.906-5.645 2.109-4.957 1.301-10.789-1.551-15.254-1.797-2.972-4.402-5.332-7.379-7.066-.371-.434 1.117.558 1.242-.246 2.852-3.785 5.145-8.371 5.024-13.274-.125-4.152-2.172-8.183-5.52-10.664-2.297-1.676-5.211-2.914-8.125-2.355m.313 4.215c-.496.125-1.801.871-.621.558 1.176-.496.867 1.055.929 1.797.063 2.297.868 4.469 1.86 6.449 1.242 2.668 2.793 5.211 3.535 8.063.062.496.187 1.055.25 1.551-.25.621-.559 1.175-.684 1.796 1.118-1.363 1.86-3.039 2.418-4.773 1.176-3.906.993-8.309-.867-12.031-.992-1.922-2.851-3.719-5.148-3.656-.559 0-1.176.062-1.672.246m-22.262 2.73c-2.418.496-4.961 1.672-6.266 3.906-.554.93-.554 2.231.067 3.161 1.301 2.359 3.844 3.472 6.199 4.464 4.152 1.676 8.617 2.481 12.586 4.528.992.558 1.801 1.242 2.543 2.047 1.117-.25 2.23-.434 3.348-.622-.063-3.16-.743-6.386-2.231-9.175-2.297-4.403-6.695-7.813-11.719-8.434-1.488-.187-3.039-.125-4.527.125m.93 3.656c-1.797.375-3.723 1.551-4.031 3.473-.184.684.371-.496.558-.617.309-.496.559-.125.805.183 1.488 1.551 3.226 2.914 5.273 3.719 3.035 1.242 6.324 2.11 9.239 3.848.992.558 1.671 1.551 2.046 2.664.309.433-.062-.867-.062-1.113-.93-4.653-3.969-8.93-8.188-11.164-1.734-.868-3.718-1.364-5.64-.993M445.41-152c-2.043.684-2.914 3.348-1.922 5.148.746 1.672 3.039 2.481 4.528 1.301 1.859-1.363 1.922-4.527.062-5.89-.742-.622-1.797-.868-2.668-.559m-11.781.559c-1.734 1.054-1.859 3.66-.68 5.144.742 1.055 2.543 1.117 3.348.063 1.301-1.547 1.055-4.34-.805-5.27-.621-.309-1.304-.25-1.863.063m21.703 17.734c-1.426.496-2.914.742-4.402.992 0 2.356.312 4.711.683 7.008.371.742.992-.809 1.301-1.117.93-1.489 1.738-3.039 2.297-4.711.246.121-.188 1.484-.313 2.043-.929 3.414-3.656 6.015-6.511 7.875-1.301.871-2.602 2.109-2.539 3.785 0 .309-.125.742.371.805.742.496 1.734.496 2.543.062-.313.434-1.242.742-1.922.742-.934-.308-.746.313-.25.746.683.993 2.172 1.301 3.223.68.746-.058-1.86.934-.497.871 2.422.184 4.528-1.488 6.016-3.289 2.789-3.285 4.094-7.875 2.977-12.027-.434-1.613-1.118-3.227-2.168-4.528-.25-.183-.559 0-.809.063m-14.012 1.676c-3.101 2.539-5.89 5.703-7.132 9.547-.559 1.984-.68 4.464.746 6.14.433.559 1.113.867 1.796.992-.433-.375-.804-.808-1.054-1.304.746.808 1.922 1.304 2.976.871.371-.188.93-.684 1.055-.992-1.055 0-1.984-.621-2.355-1.551.621.558 1.488 1.238 2.418.867.804-.559.679-1.734.558-2.543-.25-1.055-1.18-1.734-1.984-2.293-.992-.746-1.676-1.984-1.551-3.226.309.621.621 1.367 1.117 1.863 1.176-2.981 2.664-5.832 4.34-8.621.805-1.364-.621.062-.93.25m18.168 7.004c-.371 3.722-2.109 7.316-4.898 9.859-.992.434-1.117 1.426-1.242 2.418-.555 2.914-2.602 5.707-5.52 6.637-1.734.621-3.656.496-5.332-.125 1.984 1.3 4.344 2.23 6.699 2.668.868-.25.805-1.614 1.301-2.297 1.242-2.539 2.731-5.145 5.086-6.696.992-.683 2.293-.929 3.348-.371 1.175-.125 2.543-.375 3.597.555 1.114.684 1.672 2.051 1.364 3.352.246.371.496 1.984.867.929 1.301-2.293 1.301-5.086.433-7.504-.992-3.039-3.097-5.457-4.586-8.246-.312-.433-.808-1.797-1.054-1.675 0 .125-.063.312-.063.496m8.371 4.898c-.867.25-1.488.867-1.921 1.613-.375-.308-1.305-1.55-1.739-1.117 1.86 2.856 2.914 6.387 2.11 9.738-.125.93-.805 1.797-.93 2.665.93.187 1.797-.247 2.418-.93.558 0 1.117.25 1.676.062 1.488-.308 2.476-2.047 1.922-3.472-.622-1.18 1.363-.434 1.609-1.426.684-.93.062-2.418-1.113-2.543-.438 0-1.055.125-.621-.434.804-1.675-.309-3.968-2.172-4.218-.434-.063-.868-.063-1.239.062m-39.187 5.024c-.996.062-1.988.929-2.051 1.984-.121.558.313 1.801.125 1.859-.496-.679-.496-1.609-.617-2.418-.684 1.117-.313 2.543.121 3.723.621 1.363 1.551 2.543 2.48 3.719.438-.559 1.243-.684 1.864-.371 1.797.679 3.285 2.046 4.277 3.718.559.621-.187 2.297 1.176 1.614 1.18-.371 1.926-1.426 3.039-1.797 1.551-.684 3.227-.992 4.836-1.367-3.098-1.547-5.891-4.153-6.879-7.563-.375-.746-.746.867-1.055 1.238-.683.871-.062 1.922.059 2.914.125.375.187 1.243-.121.438-.871-1.926-1.676-3.973-3.227-5.52-.679-.746-1.984-.683-2.543.121-.496.622-.496 1.368-.433 2.11.187-1.117 1.613-.617 1.675.312.372 1.239-1.363 1.176-1.488.121-.371-.679.246 1.18-.25.25-.68-1.179-.867-2.914.313-3.843.246-.438 1.922-.496.804-.934-.679-.246-1.363-.492-2.105-.308m-1.613 1.921c-.621.746-.188 2.11.617 2.543 1.179.188.871-1.613.375-2.23-.25-.25-.621-.559-.992-.313m29.265 1.055c-1.797 1.055-2.976 2.914-4.094 4.715-1.3 2.418-2.539 5.019-2.789 7.812-.125.93.063 2.293 1.243 2.356 1.921.246 3.718-.621 5.457-1.426 2.601-1.363 5.144-3.164 6.757-5.707.68-1.113 1.055-2.48.497-3.719-.622.868-1.676 1.426-2.727 1.735.988-.992 2.293-1.922 2.355-3.473-.125-1.551-1.8-2.914-3.351-2.293-1.238.434-1.922 1.551-2.481 2.606-.121-.497.438-1.797.93-2.481.313-.93-1.363-.312-1.797-.125m-.558.742c-.93.563-.184 2.172.746 1.367.992-.433.621-2.359-.559-1.488l-.062.063zm3.968.684c-.929.433-1.671 1.676-1.113 2.605.742.805 2.047.188 2.418-.683.496-.68.371-1.922-.684-1.922a1.04 1.04 0 0 0-.621 0m2.297 4.34c-1.304.621-.187 2.48.867 1.367.993-.746.125-2.234-.867-1.367m-7.258.496c-2.043.808-3.593 2.668-4.027 4.777-.25 1.055.246 2.418 1.484 2.602 1.614.125 3.102-1.051 4.094-2.231.93-1.117 1.676-2.605 1.305-4.094-.313-1.238-1.801-1.488-2.856-1.054"/><path fill="#f8b2b0" d="M450.434-185.98c.062 2.667.433 3.968 1.921 7.07 2.11 4.34 2.856 6.262 3.102 7.937l.063.559.433-1.242c2.543-7.688.188-14.946-5.148-15.813l-.434-.062zm-22.571 5.269c-.683.125-2.172.746-2.355.992-.063.125 1.176 1.43 2.109 2.172 1.488 1.238 2.539 1.797 5.02 2.727 4.715 1.8 6.328 2.543 7.937 3.847l.25.184-.187-.559c-2.977-6.757-7.813-10.293-12.774-9.363m-.804 67.84c-.496.68.496 2.601 1.054 1.922.309-.371.121-1.367-.375-1.864-.246-.308-.496-.308-.679-.058m28.894 1.734c-.433.434-.433.992 0 1.055.434.062 1.055-.809.805-1.238-.121-.25-.496-.188-.805.183m-25.797.063c-.183.125-.121.683.063 1.054.433.559.992.497.992-.125 0-.679-.68-1.3-1.055-.929m29.578.746c-.183.121-.496.308-.617.492-1.117 1.242.059 2.543 1.301 1.43 1.18-1.055.621-2.606-.684-1.922m-30.132 3.719a1.1 1.1 0 0 0-.434.371l-.188.187.993.992c1.672 1.614 4.277 3.594 4.836 3.594.246 0-.25-1.238-.868-2.105-1.425-2.047-3.289-3.352-4.339-3.039m32.55.496c-.742.558-.433 1.488.375.992.309-.125.559-.559.559-.809 0-.433-.496-.554-.934-.183m-7.066.433c-2.234.684-4.34 3.473-4.094 5.395.309 2.726 4.403 1.426 6.016-1.922 1.055-2.356.125-4.094-1.922-3.473"/><path d="M449.07-193.051c-2.789.438-3.906 1.863-3.906 5.024 0 2.976.742 5.086 3.719 10.23 2.668 4.777 3.347 6.574 3.347 9.117 0 1.489 0 1.489-.988 1.239-1.304-.309-2.047-.372-3.535-.434h-1.426l-.062-.992c-.559-8.742-5.274-14.942-12.774-16.863-8.746-2.235-16.992 3.41-12.715 8.742 1.989 2.418 4.282 3.66 10.856 5.64 5.641 1.676 7.687 2.606 9.176 3.907l.558.558-.808.313c-4.032 1.734-6.571 4.523-8.555 9.425-.434.993-1.055 2.418-1.363 3.223-1.989 4.402-2.668 6.078-2.918 7.317-1.363 6.078 3.535 11.285 12.402 13.332l1.055.25-.805.617c-7.566 6.328-10.047 16.246-4.34 17.672.805.187.805.808.184 1.921a31 31 0 0 0-.68 1.243c-.312.621-.312.621-.558.062-1.739-3.66-5.395-5.457-7.754-3.781-.184.121-.496.309-.68.309-3.285.679-1.363 6.632 3.535 11.097 4.153 3.785 5.953 4.281 8.184 2.235.804-.747 3.164-1.551 6.078-2.047l.992-.125 1.055.308c.554.188 1.426.438 1.922.563.554.121.992.183.992.183s-.125.496-.25 1.055c-.371 1.426-.496 2.727-.371 3.41.867 5.086 13.953-1.18 15.687-7.441.246-.805.309-.867.684-.742.867.183 2.105 0 2.726-.559.246-.187.313-.25 1.055-.25 2.109 0 3.535-1.426 3.535-3.473v-.742l.496-.25c1.735-.93 1.61-3.594-.187-4.402-.309-.063-.434-.184-.371-.246.929-3.352-3.473-6.078-6.078-3.723l-.309.313-.371-.25c-.496-.309-1.18-.559-1.613-.559s-.684-.309-2.172-2.914c-1.735-3.102-2.231-4.094-2.418-5.145-.371-1.675-1.117-3.472-2.047-4.961l-.371-.621.433-.183c12.528-5.086 13.27-24.434 1.243-30.512-.25-.121-.496-.246-.496-.246-.063 0 .246-.371.558-.867 5.766-7.817 6.324-16.063 1.484-22.016-2.851-3.531-7.437-5.578-11.035-4.961m-.125.809c-2.418.558-3.285 2.105-2.976 5.207.312 2.605.929 4.219 3.535 8.746 3.039 5.332 3.723 7.5 3.473 10.726l-.063.555.559.25c.746.313.683.313-.621.125-10.539-1.551-16.68 1.488-20.09 9.922-.684 1.672-.992 2.356-2.231 5.145-2.172 4.777-2.605 6.449-2.047 8.746 2.047 8.246 18.231 12.336 29.082 7.312 12.215-5.578 11.719-22.508-.871-29.887-.679-.433-.742-.496-.121-.308.68.187.68.187 1.239-.621 4.96-6.633 6.078-13.207 3.226-18.789-2.359-4.774-7.875-7.996-12.094-7.129m.313 4.215c-.438.125-1.242.558-1.242.683 0 0 .25-.062.621-.125.929-.183.867-.246.929 1.242.125 3.036.559 4.403 2.664 8.68 2.047 4.031 2.668 5.52 2.856 7.192l.125.683-.375.992c-.496 1.117-.434 1.117.187.246 5.645-8.429 1.614-21.949-5.765-19.593m1.176 2.047c.062 2.667.433 3.968 1.921 7.07 2.11 4.34 2.856 6.262 3.102 7.937l.063.559.433-1.242c2.543-7.688.188-14.946-5.148-15.813l-.434-.062zm-23.438.683c-4.34.805-7.504 3.969-6.512 6.449 1.18 2.789 3.969 4.461 11.411 6.758 6.199 1.922 8.371 2.914 9.859 4.465l.371.434 1.055-.188c.621-.125 1.242-.246 1.425-.309.188 0 .497-.062.622-.125h.246l-.063-1.117c-.555-10.601-8.988-18.105-18.414-16.367m.93 3.656c-2.11.438-3.844 1.864-4.031 3.411l-.063.375.25-.434c.184-.188.371-.496.496-.559l.246-.25.746.809c2.168 2.105 3.598 2.973 7.129 4.215 6.512 2.355 8.125 3.285 8.867 5.086.434 1.113.497 1.113.25-.188-1.242-7.379-8.187-13.582-13.89-12.465m-.063.93c-.683.125-2.172.746-2.355.992-.063.125 1.176 1.43 2.109 2.172 1.488 1.238 2.539 1.797 5.02 2.727 4.715 1.8 6.328 2.543 7.937 3.847l.25.184-.187-.559c-2.977-6.757-7.813-10.293-12.774-9.363M445.41-152c-3.222 1.18-3.039 6.078.188 6.883 2.172.558 4.156-1.551 3.843-4.031-.308-2.047-2.293-3.473-4.031-2.852m-11.781.559c-2.418 1.363-1.609 5.953.992 5.953 1.926.062 3.102-2.606 2.109-4.711-.621-1.367-1.984-1.864-3.101-1.242m13.086.679c-.371.25-.559.563-.559 1.059 0 .988 1.117 1.484 1.86.805.992-.868-.188-2.543-1.301-1.864m-11.844.375c-.312.188-.433.684-.25 1.055.313.742 1.367.559 1.488-.313.125-.679-.679-1.175-1.238-.742m3.535 5.953c-1.613.246-1.801 1.176-.496 2.231l.309.25v1.301c0 1.242 0 1.3-.188 1.425-.433.313-1.301.125-1.922-.433-.371-.309-.371-.246-.121.187.492.868 1.547 1.176 2.481.743.246-.125.308-.125.433 0 1.051.929 3.844.746 4.524-.372.312-.496.25-.558-.059-.25-.996.872-3.351.93-4.156.063-.371-.434-.496-.93-.371-2.106l.062-.433.496-.188c2.973-.929 2.168-2.914-.992-2.418m16.926 10.727c-.867.309-2.48.684-3.473.867l-.929.125v.93c0 1.488.621 6.14.808 6.324.309.371 2.602-3.598 3.223-5.519q.557-1.49.187.375c-.558 3.41-2.668 6.261-6.386 8.742-2.11 1.363-2.914 2.48-2.914 3.906v.742l.496.313c.679.308 1.484.308 2.168.062.496-.25.371-.062-.188.246-.554.313-1.301.434-1.859.371-.434-.121-.496-.121-.121.438.804 1.238 2.105 1.672 3.347 1.051.434-.184.434-.184.247 0a6 6 0 0 0-.68.433c-.684.313-.559.375.555.375 3.472 0 7.503-4.465 8.558-9.426.746-3.41.125-6.945-1.859-9.921-.434-.68-.434-.68-1.18-.434m-14.012 1.676c-5.457 4.461-8.308 9.855-7.316 13.828.309 1.484 1.301 2.601 2.418 2.789l.308.062-.371-.375c-.187-.183-.433-.433-.496-.617l-.187-.312.371.312c.996.93 2.48.93 3.351 0l.309-.375-.434-.121c-.621-.062-1.242-.433-1.613-.992-.433-.559-.433-.684 0-.25.992.992 2.356.93 2.606-.063.433-1.488-.063-2.914-1.364-3.718-1.367-.867-2.109-2.11-2.109-3.285v-.375l.187.375c.372.804.868 1.546.93 1.488.063-.063.246-.559.496-1.18.617-1.488 2.231-4.715 3.285-6.449 1.118-1.922 1.118-1.984-.371-.742m1.301.804c-1.676 2.664-2.668 4.653-3.598 6.946-.617 1.551-.617 1.363.188 1.859 3.102 1.984 2.172 7.133-1.363 7.813-.621.062-.621 0-.371 1.179.554 2.789 2.293 5.457 4.027 6.262 5.457 2.605 10.793-.371 11.535-6.387l.063-.496-.747.371c-6.632 3.102-10.292-4.773-4.089-8.804 1.3-.868 2.293-1.672 2.789-2.168l.246-.25-.184-1.426c-.371-2.235-.558-3.41-.558-4.899l-.063-1.425-.93.062c-1.179.121-3.906.121-5.144 0l-.996-.062zm16.867 6.2c-.371 4.031-2.73 8.371-5.707 10.48-.121.125-.183.246-.246.805-.742 5.953-5.707 9.363-10.976 7.504-.434-.125.867.621 1.863 1.117a25 25 0 0 0 3.965 1.363c1.179.246 1.117.313 1.488-.621 2.422-6.137 6.078-9.734 8.746-8.68.496.188.555.188.867.125 2.231-.808 4.899 1.364 4.403 3.536-.063.308-.063.433.062.617.121.125.246.496.309.746.187.558.25.558.746-.621 1.488-3.164.867-6.883-1.922-11.102-1.117-1.797-1.863-3.035-2.793-4.711-.371-.679-.68-1.238-.68-1.238-.062 0-.062.246-.125.68m8.371 4.898c-.621.188-1.304.684-1.675 1.242-.371.496-.309.496-.621 0-.247-.375-.68-.683-1.176-.808-.313-.121-.313-.121.183.683 2.235 3.66 2.606 7.813 1.055 10.977-.434.867-.434.805.25.805.621 0 1.117-.184 1.613-.68l.371-.313.496.125c1.489.309 2.977-.746 3.161-2.293.062-.375 0-.683-.246-1.675-.063-.188 0-.188.308-.188.992 0 1.676-.742 1.676-1.672s-.684-1.613-1.738-1.613h-.434l.25-.559c.93-2.293-1.117-4.711-3.473-4.031m-39.187 5.024c-1.738.25-2.422 1.55-1.863 3.785.062.246.062.246-.063.058-.246-.308-.558-1.301-.558-1.922s-.122-.621-.309 0c-.434 1.614.371 3.786 2.234 6.141l.617.805.375-.309c1.426-1.305 6.633 3.102 6.012 5.082-.183.746 1.551.188 2.668-.867.742-.684 2.664-1.363 5.457-1.922l.68-.187-.617-.309c-3.039-1.676-5.274-4.152-6.203-6.945-.247-.868-.184-.868-.868.496-.683 1.304-.683 1.242-.433 2.172.246.804.433 2.105.371 1.984-.063 0-.246-.434-.434-.867-2.047-4.59-3.535-6.203-5.086-5.336-.679.375-.992 1.055-.929 2.047v.496l.125-.309c.433-1.054 1.922.121 1.55 1.176-.308.746-1.179.438-1.488-.434-.125-.433-.187-.183-.062.313.125.434-.063.184-.371-.434-.805-1.863-.25-3.472 1.363-3.91.25-.058.433-.183.371-.183-.121-.25-1.609-.746-1.984-.684 0 0-.247 0-.555.063m-1.613 1.921c-.496.313-.375 1.614.183 2.235.746.804 1.488.125 1.18-.934-.25-1.051-.867-1.609-1.363-1.301m0 .313c-.496.68.496 2.601 1.054 1.922.309-.371.121-1.367-.375-1.864-.246-.308-.496-.308-.679-.058m29.265.742c-3.844 1.922-8.679 13.27-6.261 14.695 1.859 1.055 7.503-1.363 10.914-4.648 2.23-2.109 3.039-4.094 2.543-5.77l-.125-.246-.309.371a4.2 4.2 0 0 1-1.801 1.18l-.617.184.93-.867c1.609-1.614 1.859-2.852.679-4.157-1.425-1.609-3.535-.992-4.773 1.367-.25.497-.434.68-.371.559.183-1.055.433-1.801.93-2.359.558-.743-.497-.93-1.739-.309m-.558.742c-.68.684-.555 1.492.187 1.551.559.063 1.363-.867 1.18-1.484-.188-.563-.809-.563-1.367-.067m.187.25c-.433.434-.433.992 0 1.055.434.062 1.055-.809.805-1.238-.121-.25-.496-.188-.805.183m-25.797.063c-.183.125-.121.683.063 1.054.433.559.992.497.992-.125 0-.679-.68-1.3-1.055-.929m29.578.371c-1.55.683-1.796 2.976-.308 2.976 1.797 0 2.668-2.851.929-2.976-.25-.063-.496 0-.621 0m0 .375c-.183.121-.496.308-.617.492-1.117 1.242.059 2.543 1.301 1.43 1.18-1.055.621-2.606-.684-1.922m-30.132 3.719a1.1 1.1 0 0 0-.434.371l-.188.187.993.992c1.672 1.614 4.277 3.594 4.836 3.594.246 0-.25-1.238-.868-2.105-1.425-2.047-3.289-3.352-4.339-3.039m32.429.246c-.375.25-.683.871-.558 1.179.246.993 1.734.434 1.859-.683.063-.68-.621-.992-1.301-.496m.121.25c-.742.558-.433 1.488.375.992.309-.125.559-.559.559-.809 0-.433-.496-.554-.934-.183m-7.379.246c-2.664.929-4.773 4.527-3.843 6.386 1.3 2.606 6.14-.37 6.758-4.089.312-1.864-1.051-2.977-2.915-2.297m.313.187c-2.234.684-4.34 3.473-4.094 5.395.309 2.726 4.403 1.426 6.016-1.922 1.055-2.356.125-4.094-1.922-3.473"/></g><path d="M49.203-33.977c0-1.039-.07-1.039-1.219-1.039-2.652 2.297-6.632 2.297-7.422 2.297h-.68v1.54h.68c1.258 0 3.157-.216 4.59-.68v18.82h-4.984v1.539c1.508-.07 5.27-.07 6.957-.07 1.684 0 5.484 0 6.988.07v-1.54h-4.91zM6.992-79.285l-3.324.262v.695c1.625 0 1.816.168 1.816 1.336V-62.7h.528c.093-.192.761-1.387.86-1.555.55.887 1.577 1.793 3.105 1.793 2.75 0 5.164-2.32 5.164-5.398 0-3.04-2.246-5.38-4.899-5.38-1.316 0-2.437.598-3.25 1.602zm.047 8.937c0-.43 0-.476.262-.859.574-.86 1.625-1.555 2.797-1.555.714 0 3.226.29 3.226 4.875 0 1.602-.238 2.606-.812 3.465-.48.742-1.434 1.484-2.63 1.484-1.288 0-2.128-.835-2.534-1.484-.309-.5-.309-.597-.309-1.004zm18.184 1.27c0-1.293 0-2.25-1.051-3.18-.836-.765-1.91-1.101-2.961-1.101-1.961 0-3.469 1.293-3.469 2.843 0 .696.457 1.032 1.008 1.032.57 0 .977-.407.977-.985 0-.976-.86-.976-1.22-.976.552-1.004 1.7-1.434 2.653-1.434 1.102 0 2.512.906 2.512 3.059v.953c-4.805.074-6.621 2.082-6.621 3.922 0 1.886 2.199 2.484 3.656 2.484 1.578 0 2.652-.957 3.105-2.102.098 1.122.836 1.981 1.868 1.981.5 0 1.886-.332 1.886-2.246v-1.336h-.527v1.336c0 1.363-.57 1.555-.906 1.555-.91 0-.91-1.266-.91-1.625zm-1.551 3.008c0 2.343-1.746 3.132-2.774 3.132-1.171 0-2.148-.863-2.148-2.007 0-3.157 4.063-3.442 4.922-3.493zm21.164-2.438c0-2.223 0-2.89-.55-3.656-.696-.93-1.817-1.074-2.63-1.074-1.984 0-2.988 1.433-3.37 2.363-.333-1.836-1.626-2.363-3.13-2.363-2.32 0-3.226 1.984-3.418 2.46h-.023v-2.46l-3.25.261v.696c1.625 0 1.816.164 1.816 1.336v6.476c0 1.074-.261 1.074-1.816 1.074v.696c.62-.051 1.91-.051 2.582-.051.691 0 1.984 0 2.601.05v-.694c-1.527 0-1.812 0-1.812-1.075v-4.445c0-2.508 1.648-3.848 3.129-3.848 1.48 0 1.816 1.219 1.816 2.676v5.617c0 1.074-.265 1.074-1.816 1.074v.696c.62-.051 1.91-.051 2.582-.051.691 0 1.98 0 2.601.05v-.694c-1.527 0-1.812 0-1.812-1.075v-4.445c0-2.508 1.648-3.848 3.129-3.848 1.48 0 1.816 1.219 1.816 2.676v5.617c0 1.074-.265 1.074-1.816 1.074v.696c.62-.051 1.91-.051 2.582-.051.691 0 1.98 0 2.601.05v-.694c-1.195 0-1.789 0-1.812-.715zm5.754-10.777-3.32.262v.695c1.624 0 1.816.168 1.816 1.336V-62.7h.523c.098-.192.766-1.387.864-1.555.547.887 1.574 1.793 3.105 1.793 2.75 0 5.16-2.32 5.16-5.398 0-3.04-2.246-5.38-4.898-5.38-1.313 0-2.438.598-3.25 1.602zm.05 8.937c0-.43 0-.476.262-.859.575-.86 1.625-1.555 2.793-1.555.72 0 3.227.29 3.227 4.875 0 1.602-.238 2.606-.813 3.465-.476.742-1.433 1.484-2.625 1.484-1.293 0-2.129-.835-2.535-1.484-.308-.5-.308-.597-.308-1.004zm13.118-7.074c0-.621-.5-1.168-1.172-1.168-.621 0-1.145.5-1.145 1.145 0 .718.575 1.172 1.145 1.172.742 0 1.172-.621 1.172-1.149m-3.297 4.445v.696c1.527 0 1.742.14 1.742 1.312v6.5c0 1.074-.262 1.074-1.812 1.074v.696c.668-.051 1.812-.051 2.507-.051.262 0 1.649 0 2.461.05v-.694c-1.554 0-1.648-.118-1.648-1.051v-8.793zm16.273 4.469c0-2.223 0-2.89-.55-3.656-.692-.93-1.817-1.074-2.63-1.074-2.316 0-3.226 1.984-3.413 2.46h-.028v-2.46l-3.25.261v.696c1.625 0 1.817.164 1.817 1.336v6.476c0 1.074-.262 1.074-1.817 1.074v.696c.621-.051 1.914-.051 2.582-.051.696 0 1.985 0 2.606.05v-.694c-1.532 0-1.817 0-1.817-1.075v-4.445c0-2.508 1.649-3.848 3.13-3.848 1.484 0 1.816 1.219 1.816 2.676v5.617c0 1.074-.262 1.074-1.817 1.074v.696c.621-.051 1.914-.051 2.582-.051.696 0 1.985 0 2.606.05v-.694c-1.195 0-1.793 0-1.817-.715zm13.336.696c0-3.086-2.343-5.547-5.117-5.547-2.867 0-5.137 2.535-5.137 5.546 0 3.06 2.391 5.352 5.114 5.352 2.82 0 5.14-2.344 5.14-5.352m-5.117 4.824c-.883 0-1.957-.38-2.652-1.551-.645-1.078-.668-2.484-.668-3.492 0-.906 0-2.363.742-3.438a3.06 3.06 0 0 1 2.555-1.41c.933 0 1.937.43 2.582 1.363.742 1.098.742 2.602.742 3.485 0 .84 0 2.32-.621 3.445-.672 1.145-1.77 1.598-2.68 1.598m69.949 43.782h-1.504c-.109.754-.359 2.867-.898 3.227-.285.25-3.082.25-3.621.25h-5.555c1.364-1.145 4.625-3.872 5.16-4.266 3.981-2.973 6.418-4.8 6.418-8.242 0-4.23-3.836-6.778-8.566-6.778-4.051 0-7.527 2.297-7.527 5.7 0 1.902 1.539 2.437 2.363 2.437 1.113 0 2.402-.75 2.402-2.402 0-1.504-1.109-2.258-2.222-2.399 1.433-1.648 3.336-1.793 4.086-1.793 3.296 0 4.875 2.688 4.875 5.27 0 2.797-1.899 5.375-3.368 6.918l-7.781 8.137c-.355.32-.355.394-.355 1.039v.609h15.054zm-31.281-49.871c0-1.293 0-2.25-1.047-3.18-.84-.765-1.914-1.101-2.965-1.101-1.961 0-3.464 1.293-3.464 2.843 0 .696.453 1.032 1.003 1.032.575 0 .981-.407.981-.985 0-.976-.863-.976-1.219-.976.551-1.004 1.695-1.434 2.653-1.434 1.097 0 2.507.906 2.507 3.059v.953c-4.804.074-6.617 2.082-6.617 3.922 0 1.886 2.195 2.484 3.656 2.484 1.575 0 2.653-.957 3.106-2.102.094 1.122.836 1.981 1.863 1.981.5 0 1.887-.332 1.887-2.246v-1.336h-.524v1.336c0 1.363-.574 1.555-.91 1.555-.91 0-.91-1.266-.91-1.625zm-1.551 3.008c0 2.343-1.742 3.132-2.773 3.132-1.168 0-2.149-.863-2.149-2.007 0-3.157 4.063-3.442 4.922-3.493zm11.2-12.953v.695c1.625 0 1.816.168 1.816 1.336v5.281c-.504-.691-1.531-1.527-2.988-1.527-2.77 0-5.16 2.34-5.16 5.402 0 3.031 2.269 5.375 4.898 5.375 1.816 0 2.867-1.195 3.203-1.648v1.648l3.367-.238v-.696c-1.625 0-1.816-.167-1.816-1.336v-14.554zm1.769 13.527c0 .43 0 .504-.336 1.027-.574.836-1.555 1.531-2.75 1.531-.621 0-3.199-.242-3.199-4.874 0-1.723.285-2.68.812-3.47.477-.737 1.43-1.48 2.629-1.48 1.481 0 2.317 1.075 2.555 1.457.289.407.289.457.289.887zm11.324-7.481v.696c1.625 0 1.817.164 1.817 1.336v4.277c0 2.031-1.075 3.73-2.867 3.73-1.961 0-2.079-1.124-2.079-2.39v-7.91l-3.371.261v.696c1.817 0 1.817.07 1.817 2.195v3.586c0 1.48 0 2.344.718 3.133.575.617 1.555.906 2.774.906.406 0 1.168 0 1.98-.695.696-.547 1.075-1.457 1.075-1.457v2.152l3.324-.238v-.696c-1.625 0-1.817-.167-1.817-1.336v-8.507zm9.848-6.308-3.32.262v.695c1.625 0 1.812.168 1.812 1.336v12.523c0 1.074-.262 1.074-1.812 1.074v.696c.668-.051 1.836-.051 2.554-.051.719 0 1.914 0 2.582.05v-.694c-1.531 0-1.816 0-1.816-1.075zm6.402 6.98h3.371V-73h-3.371v-4.398h-.523c-.024 2.25-.887 4.542-3.059 4.613v.48h2.032v6.64c0 2.653 1.765 3.204 3.035 3.204 1.504 0 2.293-1.48 2.293-3.203v-1.36h-.528v1.313c0 1.719-.691 2.723-1.625 2.723-1.625 0-1.625-2.223-1.625-2.63zm16.055 4.493c0-3.086-2.34-5.547-5.113-5.547-2.867 0-5.137 2.535-5.137 5.546 0 3.06 2.387 5.352 5.113 5.352 2.821 0 5.137-2.344 5.137-5.352m-5.113 4.824c-.883 0-1.961-.38-2.653-1.551-.644-1.078-.668-2.484-.668-3.492 0-.906 0-2.363.739-3.438a3.06 3.06 0 0 1 2.558-1.41c.934 0 1.938.43 2.578 1.363.743 1.098.743 2.602.743 3.485 0 .84 0 2.32-.622 3.445-.667 1.145-1.765 1.598-2.675 1.598m64.601 39.626c4.016 0 4.016 3.726 4.016 5.449 0 1.61 0 5.41-3.875 5.41-.75 0-3.117-.105-4.836-1.324 1.543-.324 2.078-1.438 2.078-2.512 0-1.469-1.039-2.508-2.508-2.508-1.508 0-2.547 1.04-2.547 2.543 0 3.297 3.586 5.235 7.993 5.235 5.914 0 8.75-3.262 8.75-6.844 0-1.758-.899-5.164-6.454-6.133 3.153-.969 5.34-3.187 5.34-6.02 0-2.69-2.582-4.949-7.562-4.949-4.016 0-6.957 2.118-6.957 5.02 0 1.793 1.398 2.367 2.332 2.367 1.039 0 2.293-.683 2.293-2.332 0-.824-.36-2.043-2.043-2.293 1.508-1.469 3.945-1.469 4.16-1.469 3.187 0 3.187 2.473 3.187 3.547s-.14 2.723-1.289 4.195c-.929 1.22-1.863 1.29-3.226 1.364-.43.035-1.149.07-1.289.14-.215.11-.215.36-.215.504 0 .61.215.61.93.61zm-22.535-45.715c0-1.293 0-2.25-1.047-3.18-.84-.765-1.914-1.101-2.965-1.101-1.961 0-3.464 1.293-3.464 2.843 0 .696.453 1.032 1.003 1.032.575 0 .981-.407.981-.985 0-.976-.863-.976-1.219-.976.551-1.004 1.695-1.434 2.653-1.434 1.097 0 2.507.906 2.507 3.059v.953c-4.804.074-6.617 2.082-6.617 3.922 0 1.886 2.195 2.484 3.656 2.484 1.575 0 2.653-.957 3.106-2.102.094 1.122.836 1.981 1.863 1.981.5 0 1.887-.332 1.887-2.246v-1.336h-.524v1.336c0 1.363-.574 1.555-.91 1.555-.91 0-.91-1.266-.91-1.625zm-1.551 3.008c0 2.343-1.742 3.132-2.773 3.132-1.168 0-2.149-.863-2.149-2.007 0-3.157 4.063-3.442 4.922-3.493zm11.2-12.953v.695c1.625 0 1.816.168 1.816 1.336v5.281c-.504-.691-1.531-1.527-2.988-1.527-2.77 0-5.16 2.34-5.16 5.402 0 3.031 2.269 5.375 4.898 5.375 1.816 0 2.867-1.195 3.203-1.648v1.648l3.367-.238v-.696c-1.625 0-1.816-.167-1.816-1.336v-14.554zm1.769 13.527c0 .43 0 .504-.336 1.027-.574.836-1.555 1.531-2.75 1.531-.621 0-3.199-.242-3.199-4.874 0-1.723.285-2.68.812-3.47.477-.737 1.43-1.48 2.629-1.48 1.481 0 2.317 1.075 2.555 1.457.289.407.289.457.289.887zm11.324-7.481v.696c1.625 0 1.817.164 1.817 1.336v4.277c0 2.031-1.075 3.73-2.867 3.73-1.961 0-2.079-1.124-2.079-2.39v-7.91l-3.371.261v.696c1.817 0 1.817.07 1.817 2.195v3.586c0 1.48 0 2.344.718 3.133.575.617 1.555.906 2.774.906.406 0 1.168 0 1.98-.695.696-.547 1.075-1.457 1.075-1.457v2.152l3.324-.238v-.696c-1.625 0-1.817-.167-1.817-1.336v-8.507zm9.848-6.308-3.32.262v.695c1.625 0 1.812.168 1.812 1.336v12.523c0 1.074-.262 1.074-1.812 1.074v.696c.668-.051 1.836-.051 2.554-.051.719 0 1.914 0 2.582.05v-.694c-1.531 0-1.816 0-1.816-1.075zm6.402 6.98h3.371V-73h-3.371v-4.398h-.523c-.024 2.25-.887 4.542-3.059 4.613v.48h2.032v6.64c0 2.653 1.765 3.204 3.035 3.204 1.504 0 2.293-1.48 2.293-3.203v-1.36h-.528v1.313c0 1.719-.691 2.723-1.625 2.723-1.625 0-1.625-2.223-1.625-2.63zm16.055 4.493c0-3.086-2.34-5.547-5.113-5.547-2.867 0-5.137 2.535-5.137 5.546 0 3.06 2.387 5.352 5.113 5.352 2.821 0 5.137-2.344 5.137-5.352m-5.113 4.824c-.883 0-1.961-.38-2.653-1.551-.644-1.078-.668-2.484-.668-3.492 0-.906 0-2.363.739-3.438a3.06 3.06 0 0 1 2.558-1.41c.934 0 1.938.43 2.578 1.363.743 1.098.743 2.602.743 3.485 0 .84 0 2.32-.622 3.445-.667 1.145-1.765 1.598-2.675 1.598m78.765 45.86h3.477v-1.539h-3.477v-15.379c0-.894-.035-1.039-.929-1.039-.649 0-.719 0-1.149.54L329.91-18.669v1.54h10.18v4.089h-3.906v1.539c1.039-.07 4.589-.07 5.879-.07 1.218 0 4.765 0 5.734.07v-1.54h-3.477zm-3.906-12.937v11.398h-8.855zm-41.422-49.219-3.324.262v.695c1.625 0 1.816.168 1.816 1.336V-62.7h.528c.093-.192.761-1.387.859-1.555.551.887 1.578 1.793 3.106 1.793 2.75 0 5.164-2.32 5.164-5.398 0-3.04-2.246-5.38-4.899-5.38-1.316 0-2.437.598-3.25 1.602zm.047 8.937c0-.43 0-.476.262-.859.574-.86 1.625-1.555 2.797-1.555.715 0 3.226.29 3.226 4.875 0 1.602-.238 2.606-.812 3.465-.481.742-1.434 1.484-2.629 1.484-1.289 0-2.129-.835-2.535-1.484-.309-.5-.309-.597-.309-1.004zm18.184 1.27c0-1.293 0-2.25-1.051-3.18-.836-.765-1.91-1.101-2.961-1.101-1.961 0-3.469 1.293-3.469 2.843 0 .696.457 1.032 1.004 1.032.574 0 .981-.407.981-.985 0-.976-.86-.976-1.219-.976.551-1.004 1.699-1.434 2.652-1.434 1.102 0 2.512.906 2.512 3.059v.953c-4.805.074-6.621 2.082-6.621 3.922 0 1.886 2.199 2.484 3.656 2.484 1.578 0 2.652-.957 3.106-2.102.097 1.122.835 1.981 1.867 1.981.5 0 1.886-.332 1.886-2.246v-1.336h-.527v1.336c0 1.363-.57 1.555-.906 1.555-.91 0-.91-1.266-.91-1.625zm-1.551 3.008c0 2.343-1.746 3.132-2.774 3.132-1.171 0-2.152-.863-2.152-2.007 0-3.157 4.067-3.442 4.926-3.493zm21.164-2.438c0-2.223 0-2.89-.551-3.656-.695-.93-1.816-1.074-2.629-1.074-1.984 0-2.988 1.433-3.371 2.363-.332-1.836-1.625-2.363-3.129-2.363-2.316 0-3.226 1.984-3.418 2.46h-.023v-2.46l-3.25.261v.696c1.625 0 1.816.164 1.816 1.336v6.476c0 1.074-.261 1.074-1.816 1.074v.696c.621-.051 1.914-.051 2.582-.051.691 0 1.984 0 2.601.05v-.694c-1.527 0-1.812 0-1.812-1.075v-4.445c0-2.508 1.648-3.848 3.129-3.848 1.48 0 1.816 1.219 1.816 2.676v5.617c0 1.074-.265 1.074-1.816 1.074v.696c.621-.051 1.914-.051 2.582-.051.691 0 1.98 0 2.601.05v-.694c-1.527 0-1.812 0-1.812-1.075v-4.445c0-2.508 1.648-3.848 3.129-3.848 1.48 0 1.816 1.219 1.816 2.676v5.617c0 1.074-.265 1.074-1.816 1.074v.696c.621-.051 1.914-.051 2.582-.051.691 0 1.98 0 2.601.05v-.694c-1.195 0-1.789 0-1.812-.715zm5.656-10.777-3.324.262v.695c1.625 0 1.816.168 1.816 1.336V-62.7h.528c.093-.192.761-1.387.859-1.555.551.887 1.578 1.793 3.106 1.793 2.75 0 5.164-2.32 5.164-5.398 0-3.04-2.246-5.38-4.899-5.38-1.316 0-2.437.598-3.25 1.602zm.047 8.937c0-.43 0-.476.262-.859.574-.86 1.625-1.555 2.797-1.555.715 0 3.226.29 3.226 4.875 0 1.602-.238 2.606-.812 3.465-.481.742-1.434 1.484-2.629 1.484-1.289 0-2.129-.835-2.535-1.484-.309-.5-.309-.597-.309-1.004zm13.117-7.074c0-.621-.5-1.168-1.168-1.168-.621 0-1.148.5-1.148 1.145 0 .718.574 1.172 1.148 1.172.739 0 1.168-.621 1.168-1.149m-3.297 4.445v.696c1.532 0 1.746.14 1.746 1.312v6.5c0 1.074-.261 1.074-1.816 1.074v.696c.668-.051 1.816-.051 2.508-.051.266 0 1.648 0 2.461.05v-.694c-1.551 0-1.649-.118-1.649-1.051v-8.793zm16.375 4.469c0-2.223 0-2.89-.55-3.656-.692-.93-1.817-1.074-2.629-1.074-2.317 0-3.227 1.984-3.414 2.46h-.028v-2.46l-3.25.261v.696c1.625 0 1.817.164 1.817 1.336v6.476c0 1.074-.262 1.074-1.817 1.074v.696c.621-.051 1.914-.051 2.582-.051.696 0 1.985 0 2.606.05v-.694c-1.531 0-1.817 0-1.817-1.075v-4.445c0-2.508 1.649-3.848 3.129-3.848 1.485 0 1.817 1.219 1.817 2.676v5.617c0 1.074-.262 1.074-1.817 1.074v.696c.621-.051 1.914-.051 2.582-.051.696 0 1.985 0 2.606.05v-.694c-1.196 0-1.793 0-1.817-.715zm13.336.696c0-3.086-2.343-5.547-5.117-5.547-2.863 0-5.137 2.535-5.137 5.546 0 3.06 2.391 5.352 5.114 5.352 2.82 0 5.14-2.344 5.14-5.352m-5.117 4.824c-.883 0-1.957-.38-2.652-1.551-.645-1.078-.668-2.484-.668-3.492 0-.906 0-2.363.738-3.438a3.07 3.07 0 0 1 2.559-1.41c.933 0 1.937.43 2.582 1.363.742 1.098.742 2.602.742 3.485 0 .84 0 2.32-.621 3.445-.668 1.145-1.77 1.598-2.68 1.598m65.266 32.887c1.219.286 2.187.286 2.726.286.86 0 2.903 0 5.305-1.47 1.109-.683 2.977-2.296 2.977-3.12 0-.18 0-.61-.434-.61-.035 0-.105 0-.465.18-1.648.574-3.406.969-5.41.969-2.047 0-3.766-.395-5.449-1.004-.25-.07-.36-.145-.465-.145-.434 0-.434.36-.434.97v10.429c0 .683 0 1.078.719 1.078.359 0 .43-.04.715-.395.434-.503 1.723-2.082 4.769-2.082 3.297 0 3.297 3.371 3.297 6.203 0 2.582 0 6.31-4.41 6.31-1.324 0-3.582-.505-4.801-2.544 1.899 0 2.364-1.437 2.364-2.222 0-1.294-.93-2.262-2.258-2.262-1.074 0-2.258.648-2.258 2.332 0 3.117 2.832 6.129 7.098 6.129 5.519 0 8.996-3.188 8.996-7.633 0-4.375-2.973-7.492-7.883-7.492-1.434 0-3.156.285-4.699 1.433zm-35.328-49.183-3.321.262v.695c1.625 0 1.817.168 1.817 1.336V-62.7h.523c.098-.192.766-1.387.863-1.555.547.887 1.575 1.793 3.106 1.793 2.75 0 5.16-2.32 5.16-5.398 0-3.04-2.246-5.38-4.898-5.38-1.313 0-2.438.598-3.25 1.602zm.047 8.937c0-.43 0-.476.265-.859.57-.86 1.625-1.555 2.793-1.555.719 0 3.227.29 3.227 4.875 0 1.602-.239 2.606-.813 3.465-.476.742-1.433 1.484-2.629 1.484-1.289 0-2.125-.835-2.535-1.484-.308-.5-.308-.597-.308-1.004zm18.183 1.27c0-1.293 0-2.25-1.047-3.18-.84-.765-1.914-1.101-2.965-1.101-1.961 0-3.464 1.293-3.464 2.843 0 .696.453 1.032 1.003 1.032.575 0 .981-.407.981-.985 0-.976-.863-.976-1.219-.976.551-1.004 1.695-1.434 2.653-1.434 1.097 0 2.507.906 2.507 3.059v.953c-4.804.074-6.617 2.082-6.617 3.922 0 1.886 2.195 2.484 3.656 2.484 1.575 0 2.653-.957 3.106-2.102.094 1.122.836 1.981 1.863 1.981.5 0 1.887-.332 1.887-2.246v-1.336h-.524v1.336c0 1.363-.574 1.555-.91 1.555-.91 0-.91-1.266-.91-1.625zm-1.551 3.008c0 2.343-1.742 3.132-2.773 3.132-1.168 0-2.149-.863-2.149-2.007 0-3.157 4.063-3.442 4.922-3.493zm21.164-2.438c0-2.223 0-2.89-.55-3.656-.692-.93-1.817-1.074-2.629-1.074-1.985 0-2.985 1.433-3.367 2.363-.336-1.836-1.625-2.363-3.133-2.363-2.317 0-3.227 1.984-3.414 2.46h-.028v-2.46l-3.25.261v.696c1.625 0 1.817.164 1.817 1.336v6.476c0 1.074-.262 1.074-1.817 1.074v.696c.621-.051 1.914-.051 2.582-.051.696 0 1.985 0 2.606.05v-.694c-1.531 0-1.817 0-1.817-1.075v-4.445c0-2.508 1.649-3.848 3.129-3.848 1.485 0 1.817 1.219 1.817 2.676v5.617c0 1.074-.262 1.074-1.817 1.074v.696c.621-.051 1.914-.051 2.582-.051.696 0 1.985 0 2.606.05v-.694c-1.531 0-1.817 0-1.817-1.075v-4.445c0-2.508 1.649-3.848 3.129-3.848 1.481 0 1.817 1.219 1.817 2.676v5.617c0 1.074-.262 1.074-1.817 1.074v.696c.621-.051 1.914-.051 2.582-.051.696 0 1.985 0 2.606.05v-.694c-1.196 0-1.793 0-1.817-.715zm5.758-10.777-3.324.262v.695c1.625 0 1.816.168 1.816 1.336V-62.7h.528c.093-.192.761-1.387.859-1.555.551.887 1.578 1.793 3.106 1.793 2.75 0 5.164-2.32 5.164-5.398 0-3.04-2.246-5.38-4.899-5.38-1.316 0-2.437.598-3.25 1.602zm.047 8.937c0-.43 0-.476.262-.859.574-.86 1.625-1.555 2.797-1.555.715 0 3.226.29 3.226 4.875 0 1.602-.238 2.606-.812 3.465-.481.742-1.434 1.484-2.629 1.484-1.289 0-2.129-.835-2.535-1.484-.309-.5-.309-.597-.309-1.004zm13.117-7.074c0-.621-.5-1.168-1.168-1.168-.621 0-1.148.5-1.148 1.145 0 .718.574 1.172 1.148 1.172.739 0 1.168-.621 1.168-1.149m-3.297 4.445v.696c1.532 0 1.746.14 1.746 1.312v6.5c0 1.074-.261 1.074-1.816 1.074v.696c.668-.051 1.816-.051 2.508-.051.266 0 1.648 0 2.461.05v-.694c-1.551 0-1.649-.118-1.649-1.051v-8.793zm16.274 4.469c0-2.223 0-2.89-.547-3.656-.695-.93-1.816-1.074-2.629-1.074-2.32 0-3.227 1.984-3.418 2.46h-.023v-2.46l-3.25.261v.696c1.625 0 1.816.164 1.816 1.336v6.476c0 1.074-.262 1.074-1.816 1.074v.696c.621-.051 1.91-.051 2.578-.051.695 0 1.984 0 2.605.05v-.694c-1.527 0-1.816 0-1.816-1.075v-4.445c0-2.508 1.648-3.848 3.133-3.848 1.48 0 1.816 1.219 1.816 2.676v5.617c0 1.074-.266 1.074-1.816 1.074v.696c.621-.051 1.91-.051 2.578-.051.695 0 1.984 0 2.605.05v-.694c-1.195 0-1.793 0-1.816-.715zm13.336.696c0-3.086-2.34-5.547-5.114-5.547-2.867 0-5.136 2.535-5.136 5.546 0 3.06 2.386 5.352 5.113 5.352 2.816 0 5.137-2.344 5.137-5.352m-5.114 4.824c-.886 0-1.96-.38-2.652-1.551-.648-1.078-.672-2.484-.672-3.492 0-.906 0-2.363.742-3.438a3.06 3.06 0 0 1 2.559-1.41c.93 0 1.934.43 2.578 1.363.742 1.098.742 2.602.742 3.485 0 .84 0 2.32-.621 3.445-.668 1.145-1.769 1.598-2.676 1.598"/></g></svg>