<svg xmlns="http://www.w3.org/2000/svg" width="188pt" height="68" viewBox="0 -51 188 51"><g id="page1"><path fill="#79ac14" d="M31.965-35.715c1.46-2.527 3.453-5.45 4.914-7.308 0-.532-.133-1.063-.133-1.73-.531-2.657-2.789-4.65-5.18-4.25-2.394.398-3.988 2.921-3.457 5.714.133 1.195 1.063 3.984 2.13 6.773.53.133 1.195.403 1.726.801"/><path fill="none" stroke="#000" stroke-linecap="round" stroke-linejoin="round" stroke-width="1.688" d="M31.965-35.715c1.46-2.527 3.453-5.45 4.914-7.308 0-.532-.133-1.063-.133-1.73-.531-2.657-2.789-4.65-5.18-4.25-2.394.398-3.988 2.921-3.457 5.714.133 1.195 1.063 3.984 2.13 6.773.53.133 1.195.403 1.726.801"/><path fill="#79ac14" d="M35.55-32.129c2.528-1.46 5.45-3.453 7.31-4.918.53 0 1.062.133 1.726.133 2.66.531 4.652 2.793 4.254 5.184s-2.926 3.851-5.715 3.453c-1.195-.133-3.984-1.063-6.777-2.125-.133-.532-.399-1.196-.797-1.727"/><path fill="none" stroke="#000" stroke-linecap="round" stroke-linejoin="round" stroke-width="1.688" d="M35.55-32.129c2.528-1.46 5.45-3.453 7.31-4.918.53 0 1.062.133 1.726.133 2.66.531 4.652 2.793 4.254 5.184s-2.926 3.851-5.715 3.453c-1.195-.133-3.984-1.063-6.777-2.125-.133-.532-.399-1.196-.797-1.727"/><path fill="#a4cd34" d="M33.957-34.121a5.9 5.9 0 0 1 1.594 1.992c3.324-1.727 7.441-4.785 8.636-5.98 1.993-1.993 2.13-4.914.399-6.645-1.594-1.727-4.648-1.46-6.64.402-1.2 1.196-4.122 5.313-5.981 8.637q1.195.598 1.992 1.594"/><path fill="none" stroke="#000" stroke-linecap="round" stroke-linejoin="round" stroke-width="1.688" d="M33.957-34.121a5.9 5.9 0 0 1 1.594 1.992c3.324-1.727 7.441-4.785 8.636-5.98 1.993-1.993 2.13-4.914.399-6.645-1.594-1.727-4.648-1.46-6.64.402-1.2 1.196-4.122 5.313-5.981 8.637q1.195.598 1.992 1.594"/><path fill="#f26d21" d="M33.957-34.121c-4.117-4.121-10.894-3.856-15.148.531C12.164-26.945-3.113-6.883 1.8-1.965 6.719 2.95 26.78-12.332 33.426-18.973c4.383-4.386 4.652-11.03.531-15.148"/><path fill="#ce5c1c" d="M33.957-34.121c1.727 3.852.797 8.77-2.523 12.09C25.187-15.785 7.117-2.101.87-4.36c0 1.062.266 1.859.93 2.394C6.719 2.95 26.78-12.332 33.426-18.973c4.383-4.254 4.652-11.03.531-15.148"/><g fill="none" stroke="#000" stroke-linecap="round" stroke-linejoin="round" stroke-width="1.688"><path d="M32.629-18.043s-3.988-1.328-7.973-5.316m-7.84 4.254s-2.523-2.262-5.183-5.98m15.414 11.691s-3.32-.93-5.45-3.055m1.067 6.246s-3.457-.664-7.043-4.254m-9.168-2.789s1.461 2.789 4.383 5.18m4.918-18.204s.797 2.391 3.055 4.653M7.25-6.086S9.11-3.96 11.367-3.03M40.07-40.234l-6.113 6.113m-1.328-8.504.797 4.516m9.034 5.316-4.515-.797"/><path d="M33.957-34.121c-4.117-4.121-10.894-3.856-15.148.531C12.164-26.945-3.113-6.883 1.8-1.965 6.719 2.95 26.78-12.332 33.426-18.973c4.383-4.386 4.652-11.03.531-15.148"/></g><g fill-rule="evenodd"><path fill="#a7410e" d="M94.535-42.34c-.222.086-.445.223-.488.223s.398.484.976 1.062c.575.575 1.282 1.328 1.594 1.77a15 15 0 0 1 1.063 1.64c.222.485.53 1.286.707 1.727.132.488.265 1.285.312 1.727 0 .488.086.886.176.93.043.046.398.09.754.09.531 0 .664-.044.707-.177.047-.09 0-.535-.09-1.02-.086-.444-.308-1.327-.531-1.905-.176-.621-.484-1.461-.707-1.903-.223-.445-.621-1.195-.93-1.64a13 13 0 0 0-.93-1.286 15 15 0 0 1-.886-.796c-.266-.176-.575-.399-.754-.489a1.5 1.5 0 0 0-.442-.133c-.09 0-.308.09-.53.18m12.668 5.98h.531c.176-.046.043-.046-.265-.046-.266 0-.399 0-.266.047M92.32-7.436c.309.265.575.53.575.53.046 0-.176-.265-.489-.53-.262-.313-.527-.579-.574-.579-.043 0 .18.266.488.579M86.914-6.29c.27.312.535.578.578.578s-.176-.266-.488-.578c-.309-.266-.574-.531-.574-.531-.043 0 .175.265.484.53"/><path fill="red" d="M105.918-36.094c-.398.133-.887.309-1.02.399-.175.086-.929.53-1.636 1.015-.754.446-1.641.977-1.996 1.153-.575.265-.707.265-1.727.265-.887 0-1.195-.043-1.86-.265-.398-.133-1.593-.621-2.57-1.106-1.02-.445-2.168-.93-2.57-1.062-.395-.133-1.062-.313-1.504-.356-.664-.09-.93-.09-1.594.043-.445.09-1.242.356-1.773.578a9.6 9.6 0 0 0-1.637.75c-.355.223-.93.578-1.195.797-.313.27-.8.711-1.152 1.067-.356.351-.797.93-1.063 1.28a20 20 0 0 0-.797 1.466 9.5 9.5 0 0 0-.668 1.547c-.129.445-.351 1.199-.441 1.73-.133.531-.266 1.461-.309 2.082-.09.664-.09 1.68-.047 2.48.047.75.133 1.86.223 2.434.047.578.266 1.55.399 2.172.132.617.445 1.77.71 2.613.266.797.84 2.125 1.239 2.922.398.844 1.02 1.95 1.375 2.524a49 49 0 0 0 1.28 1.773c.356.398 1.11 1.195 1.685 1.773.578.575 1.418 1.282 1.816 1.547.398.313.977.664 1.285.844.309.133 1.02.442 1.594.617.531.18 1.418.399 1.992.489.621.09 1.242.132 1.774.09.488 0 1.152-.18 1.773-.356.75-.223 1.148-.309 1.812-.309.754-.047.93 0 2.215.442 1.02.398 1.508.488 1.949.488.356 0 .93-.09 1.329-.223.402-.09 1.062-.351 1.507-.53.442-.224 1.196-.575 1.637-.84a23 23 0 0 0 1.641-1.153c.441-.313 1.152-.973 1.594-1.418.445-.441 1.109-1.152 1.46-1.594.356-.441.93-1.242 1.286-1.726.308-.532.839-1.418 1.152-1.95.309-.53.797-1.507 1.105-2.171.27-.622.711-1.77.977-2.48.266-.708.574-1.727.707-2.302a27 27 0 0 0 .398-1.906c.047-.488.133-1.46.18-2.125.043-.71.043-1.684-.047-2.348-.043-.62-.218-1.55-.308-2.039a11.4 11.4 0 0 0-.489-1.726c-.132-.488-.441-1.195-.664-1.637a17 17 0 0 0-.886-1.508 10.5 10.5 0 0 0-1.153-1.418c-.394-.351-.929-.886-1.281-1.105a12.5 12.5 0 0 0-1.375-.844 14 14 0 0 0-1.504-.617c-.355-.133-1.019-.266-1.418-.356-.441-.09-1.195-.175-1.726-.132-.754 0-1.11.043-1.684.222M85.984-25.199c-.132.308-.351.887-.441 1.328-.133.441-.266 1.285-.356 1.816-.085.575-.132 1.727-.132 2.524 0 .886.047 1.992.132 2.523.09.535.223 1.332.356 1.774.09.441.355 1.242.574 1.773.223.531.621 1.371.934 1.86.308.53.797 1.238 1.105 1.683.356.398.977 1.063 1.418 1.504.442.445 1.195 1.062 1.637 1.418.488.309 1.152.754 1.55.93.4.18.798.355.977.355.176.043.266.043.266-.047 0-.043-.711-.797-1.508-1.637a60 60 0 0 1-2.082-2.214 31 31 0 0 0-1.062-1.461c-.266-.399-.708-1.196-.973-1.727a21 21 0 0 1-.797-1.863c-.133-.485-.398-1.238-.488-1.68-.09-.445-.266-1.242-.356-1.816-.086-.664-.175-2.04-.175-3.942-.044-1.64-.09-3.101-.09-3.28-.043-.177-.086-.352-.133-.352-.086 0-.223.265-.356.53"/><path d="M109.148-50.004c-.218.047-.75.398-1.195.797-.441.355-1.015.797-1.238.977-.313.218-.664.351-1.195.44-.399.048-1.329.224-2.04.313-1.062.176-1.417.266-2.082.618-.574.265-.929.53-1.371 1.02-.312.355-.754.929-.976 1.374-.219.442-.442.973-.532 1.149l-.085.355-.665-.488a17 17 0 0 0-1.507-.883c-.754-.355-.887-.398-1.328-.312-.266 0-.887.222-1.375.398-.618.266-.973.488-1.239.797-.222.222-.441.578-.488.797-.09.265-.09.62-.043.843 0 .223.133.575.266.754.09.22.441.575.754.84.308.223.93.754 1.328 1.196.398.398.972 1.062 1.238 1.46s.488.754.445.797c0 0-.578-.218-1.242-.531-.707-.266-1.637-.617-2.082-.75a8.4 8.4 0 0 0-2.035-.223c-1.063 0-1.375.043-2.172.266-.488.176-1.328.441-1.816.664-.489.223-1.239.621-1.637.887-.445.222-1.195.797-1.684 1.195-.53.441-1.195 1.106-1.508 1.508-.355.398-.796.973-1.015 1.281-.223.356-.578 1.02-.844 1.508-.222.488-.574 1.238-.754 1.727-.175.488-.398 1.418-.531 2.082s-.309 1.816-.352 2.613c-.09 1.062-.09 1.77 0 3.012.043.84.176 2.082.309 2.746.086.664.309 1.636.441 2.172.133.53.399 1.46.579 2.035.218.62.574 1.55.796 2.125.22.578.665 1.508.973 2.039.266.574.797 1.46 1.152 1.992.356.531.973 1.418 1.418 1.95.442.53 1.239 1.417 1.817 1.948a20 20 0 0 0 1.902 1.641c.488.395 1.328.883 1.863 1.195.575.266 1.329.575 1.77.707.441.176 1.195.356 1.684.489.488.09 1.46.218 2.171.218 1.196.047 1.371.047 2.258-.218a94 94 0 0 0 1.551-.399l.531-.18 1.594.532c1.418.488 1.637.535 2.481.535.796 0 1.105-.047 2.082-.313.707-.222 1.683-.62 2.57-1.062.75-.399 1.812-1.02 2.344-1.371.531-.403 1.55-1.285 2.304-2.04s1.684-1.726 1.992-2.171c.309-.442.887-1.238 1.243-1.77.351-.53.882-1.46 1.195-1.992.309-.531.797-1.598 1.105-2.305.356-.753.797-1.906 1.067-2.656.262-.71.574-1.863.75-2.48.133-.664.355-1.73.441-2.348.09-.71.18-1.773.18-2.836 0-1.152-.047-2.082-.18-2.836-.086-.574-.261-1.504-.394-1.992-.133-.531-.403-1.238-.535-1.637-.133-.355-.485-1.11-.75-1.64a16 16 0 0 0-1.067-1.77c-.351-.445-.84-1.066-1.148-1.375a8.6 8.6 0 0 0-1.153-1.062 10 10 0 0 0-1.461-1.02c-.488-.309-1.328-.754-1.906-.973-.574-.222-1.551-.488-2.168-.62-.621-.133-1.332-.223-1.597-.266h-.442l.531-.266c.313-.133.84-.531 1.196-.887a6.7 6.7 0 0 0 1.019-1.328c.18-.398.442-1.02.532-1.418.132-.441.265-1.285.355-1.992.09-.664.176-1.773.223-2.437.043-.797.043-1.371-.047-1.637-.043-.223-.223-.578-.356-.754-.086-.176-.398-.441-.617-.531-.223-.133-.578-.266-.797-.266-.265-.043-.621 0-.801.043m-.351 2.703a14 14 0 0 1-1.461 1.02c-.356.175-.977.351-1.375.441-.441.09-1.285.223-1.859.266-.579.09-1.286.265-1.551.355a3.4 3.4 0 0 0-.93.621c-.223.22-.531.664-.711.973a5.4 5.4 0 0 0-.484 1.152c-.09.309-.18.887-.18 1.371 0 .399.09.977.137 1.196.086.265.219.668.308.933l.219.442.887-.489a9 9 0 0 1 1.465-.62c.261-.087 1.062-.22 1.679-.31.664-.042 1.375-.175 1.641-.265a3 3 0 0 0 .887-.308c.265-.133.621-.399.797-.579.132-.218.398-.53.488-.75.086-.18.266-.668.394-1.02.133-.398.266-1.108.356-1.64s.18-1.504.223-2.258c0-.707.043-1.285 0-1.285 0 0-.446.356-.93.754M94.535-42.34c-.222.086-.445.223-.488.223s.398.484.976 1.062c.575.575 1.282 1.328 1.594 1.77a15 15 0 0 1 1.063 1.64c.222.485.53 1.286.707 1.727.132.488.265 1.285.312 1.77.043.668 0 .843-.09.843-.043 0-.488-.133-.972-.265a43 43 0 0 1-1.906-.797 35 35 0 0 0-2.083-.93 33 33 0 0 0-1.859-.664c-.71-.18-1.062-.18-1.683-.133-.489 0-1.11.133-1.727.352-.531.18-1.328.531-1.817.754-.488.265-1.242.707-1.64 1.02-.399.308-1.016.84-1.281 1.195-.313.308-.801.886-1.067 1.285s-.617.972-.75 1.285c-.18.351-.445.973-.62 1.46a47 47 0 0 0-.49 1.77 13 13 0 0 0-.308 1.641c-.047.398-.09 1.637-.047 2.7 0 1.152.09 2.437.18 3.015.09.574.309 1.637.488 2.3.176.712.485 1.817.664 2.391.22.621.575 1.598.84 2.13.223.573.707 1.46 1.02 2.034.355.578.886 1.418 1.238 1.907a21 21 0 0 0 1.285 1.636c.356.446 1.063 1.2 1.551 1.594.488.445 1.195.977 1.508 1.242.308.223.93.574 1.37.797.442.223 1.153.488 1.595.664.441.133 1.195.309 1.64.399.485.09 1.196.18 1.637.18.578 0 1.02-.09 2.04-.4.929-.269 1.417-.355 1.948-.355.575 0 .93.086 2.082.442 1.063.398 1.504.488 2.035.488.532.043.887-.043 1.551-.266.442-.132 1.239-.441 1.727-.71.531-.22 1.375-.708 1.859-1.063.531-.309 1.375-.93 1.817-1.328.445-.399 1.152-1.106 1.55-1.594.399-.441.977-1.11 1.243-1.508.308-.398.707-1.015.972-1.37.223-.4.664-1.153.977-1.684.308-.575.797-1.594 1.105-2.258.309-.711.797-1.95 1.11-2.836.261-.887.617-2.082.707-2.656.132-.622.265-1.508.308-1.993.047-.488.09-1.375.09-1.996 0-.617-.043-1.636-.133-2.168-.09-.578-.222-1.418-.355-1.859a12 12 0 0 0-.442-1.508c-.175-.398-.445-1.062-.621-1.418-.175-.398-.574-1.02-.84-1.418a12.4 12.4 0 0 0-1.285-1.547c-.441-.445-1.062-.976-1.418-1.199a7.4 7.4 0 0 0-1.418-.797c-.441-.218-1.195-.531-1.683-.664-.485-.133-1.328-.265-1.949-.351-.93-.09-1.149-.09-1.817.043-.394.09-1.062.355-1.504.574-.398.18-1.285.71-1.949 1.11a16 16 0 0 1-1.637 1.019c-.312.086-.621.218-.754.265-.265.086-.265.043-.445-.886a13.5 13.5 0 0 0-.531-2.04c-.176-.62-.484-1.46-.707-1.902-.223-.445-.621-1.195-.93-1.64a13 13 0 0 0-.93-1.286 15 15 0 0 1-.886-.796c-.266-.176-.575-.399-.754-.489a1.5 1.5 0 0 0-.442-.133c-.09 0-.308.09-.53.18m9.078 4.649c-.218.09-.664.312-1.019.53-.352.18-.617.4-.617.49s0 .132.043.132c0 0 .265-.133.574-.355.265-.176.801-.442 1.109-.618.309-.18.488-.312.442-.312-.086 0-.309.09-.532.133M85.941-25.066c-.132.265-.308 1.02-.441 1.593-.133.575-.312 1.508-.356 1.992-.042.532-.09 1.462-.09 2.04 0 .62.048 1.593.133 2.214.09.622.266 1.504.399 2.036.133.488.355 1.199.488 1.55.133.399.399.977.578 1.329.176.355.617 1.066.93 1.55.352.489 1.063 1.375 1.594 1.907.484.53 1.285 1.285 1.77 1.593.445.356 1.242.84 1.73 1.106.531.27.972.445 1.148.398.18 0 .09-.176-1.062-1.281-.707-.711-1.637-1.73-2.082-2.215-.399-.531-1.02-1.375-1.328-1.86a12 12 0 0 1-1.02-1.73 28 28 0 0 1-.797-1.86 23 23 0 0 1-.574-2.214c-.133-.621-.266-1.684-.355-2.258a63 63 0 0 1-.087-3.367c0-1.238-.046-2.434-.09-2.656 0-.223-.09-.399-.132-.399s-.223.22-.356.532"/><path fill="#8a0" d="M108.797-47.3a14 14 0 0 1-1.461 1.019c-.356.175-.977.351-1.375.441-.441.09-1.285.223-1.859.266-.579.09-1.286.265-1.551.355a3.4 3.4 0 0 0-.93.621c-.223.22-.531.664-.711.973a5.4 5.4 0 0 0-.484 1.152c-.09.309-.18.887-.18 1.371 0 .399.09.977.137 1.196.086.265.219.668.308.933l.219.442.887-.489a9 9 0 0 1 1.465-.62c.261-.087 1.062-.22 1.679-.31.664-.042 1.375-.175 1.641-.265a3 3 0 0 0 .887-.308c.265-.133.621-.399.797-.579.132-.218.398-.53.488-.75.086-.18.266-.668.394-1.02.133-.398.266-1.108.356-1.64s.18-1.504.223-2.258c0-.707.043-1.285 0-1.285 0 0-.446.356-.93.754m3.984 42.519-.531.574.578-.531.574-.574-.043-.043s-.265.265-.578.574"/><path d="M175.309-48.648c-1.246.77-2.391 2.23-2.391 3.082 0 .504.453 1.222 1.41 2.23.77.824 1.699 2.074 2.043 2.793l.613 1.3-.746 1.49c-.422.823-1.035 2.39-1.351 3.507-3.485 11.32-7.043 15.465-19.215 22.27-3.801 2.097-5.129 3.136-6.008 4.515-.824 1.383-.824 2.793.082 4.094 2.602 3.855 13.125 3.375 21.871-.985 6.403-3.16 11.082-7.703 13.5-13.101 2.762-6.082 3.426-12.434 1.832-17.297-.609-1.863-2.472-4.625-3.64-5.395-.797-.53-1.063-.957-1.461-2.472-.746-2.739-2.285-5.633-3.27-6.14-1.09-.56-2.23-.532-3.269.109m3.031 2.39c-.32.586-.238.903.531 2.418 1.195 2.363 2.473 6.457 3.027 9.7 2.395 14.058-7.996 27.265-23.625 30.003-1.351.239-3.109.426-3.878.426-1.063 0-1.434.133-1.649.555-.266.508-.183.586.774.851 1.566.453 6.191.375 8.847-.132 8.293-1.567 15.785-6.192 19.797-12.25 5.797-8.692 6.008-20.622.426-24.477-1.008-.691-1.223-1.063-1.887-3.188-.664-2.152-1.672-4.543-1.937-4.543-.028 0-.243.29-.426.637m-2.235 1.516-.929.398.984 1.246c.504.692 1.168 1.836 1.434 2.555.508 1.273.508 1.273-.371 3.348-.453 1.14-1.25 3.375-1.754 4.914-1.992 6.246-3.852 9.46-7.492 13.101-2.821 2.817-4.707 4.149-10.551 7.524-4.703 2.683-6.352 3.797-6.567 4.383-.078.187.403.878 1.039 1.566l1.168 1.223 2.235-.184c6.562-.559 13.097-3.348 17.75-7.629 3.801-3.508 6.273-7.52 7.574-12.305.742-2.734.902-8.98.293-11.503-.957-3.907-2.234-7.126-3.348-8.426-.507-.559-.613-.586-1.465-.211"/><path fill="#f5a701" d="M176.824-49.262c.211.082.453.055.559-.027.082-.105-.078-.16-.371-.16-.348.027-.399.082-.188.187m-2.949 1.567-.824.933.929-.824c.504-.48.907-.879.907-.93 0-.215-.215-.027-1.012.82m5.715-.051c.105.133.238.266.316.266.082 0 .055-.133-.023-.266-.11-.16-.242-.293-.32-.293-.083 0-.083.133.027.293m-1.25 1.488c-.32.586-.238.903.531 2.418 1.195 2.363 2.473 6.457 3.027 9.7 2.395 14.058-7.996 27.265-23.625 30.003-1.351.239-3.109.426-3.878.426-1.063 0-1.434.133-1.649.555-.266.508-.183.586.774.851 1.566.453 6.191.375 8.847-.132 8.293-1.567 15.785-6.192 19.797-12.25 5.797-8.692 6.008-20.622.426-24.477-1.008-.691-1.223-1.063-1.887-3.188-.664-2.152-1.672-4.543-1.937-4.543-.028 0-.243.29-.426.637m-.453 2.656c.531.88 1.172 2.235 1.437 3.004s.531 1.356.582 1.274c.348-.317-2.047-5.313-2.711-5.739-.16-.078.16.56.692 1.461m3.269-1.035c0 .211.078.293.188.184a.26.26 0 0 0 0-.371c-.11-.106-.188-.028-.188.187m-5.82.266c-.078.133.078.426.348.637.449.347.449.32.132-.078-.32-.399-.32-.508 0-.641.239-.078.262-.133.024-.156-.184 0-.426.078-.504.238m-1.141 1.168c.61.613 1.168 1.117 1.246 1.117.082 0-.371-.504-.98-1.117-.613-.637-1.172-1.14-1.25-1.14s.371.503.984 1.14m7.227-.582c0 .21.105.289.215.183a.26.26 0 0 0 0-.37c-.11-.106-.215-.028-.215.187m-4.969 1.14c.106.16.238.293.317.293.082 0 .082-.132-.024-.293-.105-.16-.238-.292-.32-.292-.078 0-.055.132.027.292m.742 1.145c.399.875.532 1.035.532.664 0-.16-.184-.531-.422-.824-.426-.531-.426-.504-.11.16m4.813-.293c0 .211.078.293.183.184a.25.25 0 0 0 0-.371c-.105-.106-.183-.028-.183.187m.98 1.434c.11.132.242.265.321.265.082 0 .082-.133-.028-.265-.105-.16-.238-.293-.316-.293-.082 0-.055.133.023.293m-5.261.265c0 .215.109.293.214.188a.33.33 0 0 0 0-.375c-.105-.106-.214-.024-.214.187m.214 1.117c-.105.477-.082.586.133.371a.77.77 0 0 0 .188-.663c-.082-.212-.215-.079-.321.292m2.125.32c0 .239.106.743.239 1.141.187.559.215.586.242.133 0-.32-.109-.824-.242-1.14-.16-.348-.239-.399-.239-.133m4.918.266c.106.157.239.29.317.29.082 0 .054-.133-.028-.29-.105-.132-.238-.265-.316-.265s-.055.133.027.265m-7.629.743c-.292.691-.21.879.133.32.16-.293.239-.586.16-.664-.054-.082-.21.078-.293.344m8.211.132c.082.133.243.266.293.266.082 0 .082-.133-.023-.266-.082-.16-.242-.293-.32-.293-.082 0-.055.133.05.293m-4.996 1.118c0 .21.11.293.215.183.078-.078.078-.265 0-.37-.105-.106-.215-.028-.215.187m-5.394.582c0 .214.082.293.187.187a.256.256 0 0 0 0-.371c-.105-.105-.187-.027-.187.184m1.437 0c0 .214.078.293.184.187a.26.26 0 0 0 0-.371c-.106-.105-.184-.027-.184.184m4.305.851c0 .399.051.559.133.348.078-.188.078-.508 0-.719-.082-.187-.133-.027-.133.371m-4.598 0c0 .215.078.293.188.188a.26.26 0 0 0 0-.371c-.11-.11-.188-.028-.188.183m-.293.852c0 .21.078.293.188.187a.263.263 0 0 0 0-.375c-.11-.105-.188-.027-.188.188m-1.699.851c0 .211.078.29.184.184a.26.26 0 0 0 0-.371c-.106-.106-.184-.028-.184.187m1.434 0c0 .211.078.29.187.184a.256.256 0 0 0 0-.371c-.109-.106-.187-.028-.187.187m5.5 2.418c0 1.567.027 2.153.105 1.328.055-.824.055-2.101 0-2.843-.078-.72-.105-.055-.105 1.515m6.168-1.968c0 .32.078.398.16.16.078-.188.078-.453 0-.532-.11-.105-.188.078-.16.371m-11.961.398c0 .215.082.293.187.187a.256.256 0 0 0 0-.37c-.105-.11-.187-.028-.187.183m-1.434.293c0 .215.106.293.211.187a.31.31 0 0 0 0-.37c-.105-.11-.211-.028-.211.183m1.168.719c.027.343.078.398.16.183.106-.21.078-.449 0-.554-.105-.082-.16.078-.16.37m-1.433.133c0 .21.078.292.183.183a.25.25 0 0 0 0-.371c-.105-.105-.183-.027-.183.188m13.976.425c0 .477.055.61.133.344.082-.266.082-.664 0-.852-.078-.183-.133.028-.133.508m-13.129.98c0 .216.082.294.188.188.105-.078.105-.265 0-.37-.106-.11-.188-.028-.188.183m-.289.852c0 .215.078.293.184.215a.296.296 0 0 0 0-.402c-.106-.106-.184 0-.184.187m-.531 1.301c-.453 1.04-.375 1.277.133.32.238-.453.398-.851.316-.93-.051-.054-.266.212-.449.61m13.949.559c0 .48.055.613.133.347.082-.265.082-.664 0-.851-.078-.188-.133.027-.133.504m-6.828.133c0 .398.051.558.133.374.078-.214.078-.53 0-.718-.082-.188-.133-.028-.133.343m-8.852 0c0 .214.082.292.188.187a.26.26 0 0 0 0-.371c-.106-.106-.188-.027-.188.183m8.532 1.597c.027.317.082.399.187.156.078-.183.055-.449-.027-.53-.106-.106-.16.081-.16.374m-8.262.688c-.16.32-.242.558-.16.558.078 0 .289-.238.449-.558.16-.317.238-.582.16-.582-.082 0-.265.265-.449.582m15.094-.133c0 .348.078.398.16.187.078-.21.078-.453 0-.558-.11-.078-.188.082-.16.37m-7.098.586c0 .32.078.398.16.16.078-.188.078-.453-.027-.531-.078-.106-.16.05-.133.37m-8.742.718c-.106.211-.055.266.133.133.183-.105.343-.265.343-.32 0-.238-.265-.133-.476.188m8.426.239c0 .21.078.293.183.187.106-.082.106-.27 0-.375-.105-.105-.183-.023-.183.188m-10.395.344c-.133.187-.078.242.109.109.344-.188.45-.453.211-.453-.078 0-.211.16-.32.344m1.41.265c-.133.215-.078.266.133.133.32-.211.426-.45.188-.45-.055 0-.215.16-.321.317m-2.418 1.04c-.343.448-.343.448.106.105.48-.371.609-.61.398-.61-.078 0-.293.211-.504.504m1.407.265c-.344.45-.344.476.109.133.476-.371.637-.614.398-.614-.054 0-.293.215-.507.48m9.328-.055c-.289.719-.211.906.132.32.161-.265.243-.558.161-.636-.078-.082-.211.078-.293.316m7.203.133c0 .215.082.293.187.188a.256.256 0 0 0 0-.372c-.105-.109-.187-.027-.187.184m-.293.852c0 .21.082.293.187.187a.26.26 0 0 0 0-.375c-.105-.105-.187-.027-.187.188m-18.336 1.488-1.406 1.515 1.488-1.437c1.379-1.3 1.617-1.566 1.406-1.566-.055 0-.719.69-1.488 1.488m10.23-.055c-.105.188-.132.375-.05.453.078.078.211-.054.293-.293.21-.504.05-.61-.243-.16m-13.101.879c-.106.211-.051.266.133.133.187-.106.347-.266.347-.32 0-.239-.265-.133-.48.187m12.519.293c-.132.21-.082.266.133.133.184-.11.317-.266.317-.32 0-.239-.239-.133-.45.187m-13.793.742c-.347.453-.347.453.106.106.476-.371.637-.61.398-.61-.078 0-.293.239-.504.504m1.567.426-.531.637.636-.532c.348-.316.641-.582.641-.636 0-.239-.242-.082-.746.531m11.668-.32c-.133.215-.082.265.105.133.348-.212.453-.45.211-.45-.078 0-.211.133-.316.317m-14.219.586c-.133.187-.078.238.133.105.16-.105.32-.238.32-.32 0-.239-.238-.13-.453.215m13.5.453c-.371.449-.344.449.105.105.454-.37.614-.613.372-.613-.051 0-.262.215-.477.508m-14.352.105c-.132.211-.078.238.133.133.16-.105.321-.266.321-.348 0-.238-.266-.105-.454.215m2.262 0c-.109.211-.082.238.133.133.184-.105.316-.266.316-.348 0-.238-.238-.105-.449.215m-1.117.852c-.133.21-.078.265.105.133.188-.11.344-.266.344-.348 0-.211-.265-.106-.449.215m10.656 1.886-1.836 1.91 1.914-1.831c1.067-1.012 1.942-1.887 1.942-1.942 0-.183-.293.082-2.02 1.863m9.516-1.039c-.137.215-.082.266.133.133.156-.105.316-.265.316-.316 0-.242-.238-.133-.449.183m-24.449.293c-.133.215-.082.239.132.133.184-.133.317-.265.317-.344 0-.242-.238-.109-.449.211m2.285.106c-.531.426-.531.426.078.133.371-.157.637-.371.637-.426 0-.238-.133-.156-.715.293m-1.41.851c-.532.426-.532.426.082.133.343-.16.636-.37.636-.426 0-.238-.16-.16-.718.293m22.004.903c-.372.453-.344.48.105.11.48-.376.613-.587.371-.587-.051 0-.266.211-.476.477m-23.997.242c-.531.422-.531.422.079.133.347-.16.636-.375.636-.453 0-.215-.133-.133-.715.32m13.34 1.062-.531.637.637-.558c.586-.504.769-.743.531-.743-.051 0-.344.29-.637.664m-15.332.079c-.535.425-.535.425.078.132.344-.187.637-.37.637-.453 0-.21-.133-.156-.715.32m14.192.742c-.11.187-.082.242.129.11.187-.11.32-.24.32-.321 0-.238-.238-.133-.449.21m-18.899.719c-.371.453-.344.48.11.105.476-.371.609-.582.371-.582-.055 0-.266.21-.481.476m2.418-.16c-.133.214-.078.242.137.132.156-.105.316-.265.316-.344 0-.238-.238-.105-.453.211m15.629 0c-.133.214-.078.242.133.132.183-.105.316-.265.316-.344 0-.238-.238-.105-.449.211m-16.476.558c-.133.215-.083.266.132.133.16-.106.321-.266.321-.317 0-.242-.27-.132-.453.184m13.101 1.144c-1.25.61-1.969 1.036-1.57.93.851-.238 3.988-1.781 3.988-1.965 0-.187.211-.27-2.418 1.035m12.328-.69c-.371.452-.344.476.11.132.476-.371.609-.61.371-.61-.055 0-.266.211-.481.477m-26.707.585-.691.77.773-.692c.742-.637.93-.879.692-.879-.055 0-.403.375-.774.801m-1.566-.187c-.133.21-.078.265.133.132.16-.105.32-.265.32-.32 0-.238-.242-.133-.453.188m27 .585c-.133.211-.078.239.133.133.16-.133.32-.265.32-.347 0-.239-.242-.106-.453.214m-13.953.98c.105.11.265.11.375 0 .105-.077.023-.183-.188-.183-.215 0-.293.106-.187.184m-11.028.4c.078.16.239.265.321.265.078 0 .05-.106-.028-.266-.105-.156-.265-.289-.32-.289-.078 0-.078.133.027.29m10.176-.106c.109.105.27.105.375 0 .106-.106.027-.184-.187-.184-.211 0-.293.078-.188.184m-1.008.293c.211.078.453.078.559-.027.078-.079-.078-.16-.371-.133-.348 0-.399.082-.188.16m13.262.133c-.133.215-.078.265.105.132.188-.105.344-.265.344-.343 0-.215-.265-.11-.449.21m-14.379.16c.188.078.453.054.531-.028.11-.105-.078-.16-.371-.16-.316.028-.398.082-.16.188m-1.141.265c.211.079.45.079.532 0 .105-.105-.055-.187-.371-.16-.321 0-.403.082-.161.16m-5.953.477c.133.133.93.188 1.782.133l1.511-.078-1.754-.16c-.98-.079-1.671-.028-1.539.105m4.09-.184c.27.079.668.079.852 0 .187-.082-.028-.132-.504-.132-.481 0-.637.05-.348.132m-7.332 1.516c.106.156.238.29.317.29.082 0 .082-.134-.024-.29-.105-.16-.238-.293-.32-.293-.078 0-.055.133.027.293m18.442.742a.26.26 0 0 0 .375 0c.105-.078.023-.187-.188-.187-.215 0-.293.11-.187.187m-.848.293c.078.106.266.106.371 0s.027-.187-.188-.187c-.21 0-.292.082-.183.187m-16.16.371c.082.16.242.293.32.293s.055-.133-.055-.293c-.078-.133-.238-.265-.316-.265-.055 0-.055.132.051.265m15.281-.078a.29.29 0 0 0 .398 0c.106-.11 0-.187-.183-.187-.215 0-.293.078-.215.187m-3.402.848c.105.11.265.11.375 0 .105-.106.023-.184-.188-.184-.215 0-.293.078-.187.184m-9.379.293c.105.105.293.105.371 0 .105-.106.027-.184-.188-.184-.211 0-.293.078-.183.184m7.812 0c.211.082.449.082.559-.028.078-.105-.082-.156-.371-.156-.348.024-.403.078-.188.184m-6.14.293c.293.054.746.054 1.011 0 .266-.078.051-.133-.504-.133-.535 0-.773.055-.507.133m3.296 0c.344.054.848.054 1.118 0 .293-.078 0-.133-.637-.133-.613 0-.852.055-.481.133"/><path fill="#fcd900" d="m176.105-44.586-.636.32 1.011 1.356c.532.746 1.168 1.887 1.407 2.578.426 1.14.398 1.277-.239 2.656-.371.77-1.277 3.27-2.019 5.555-3.348 10.152-7.281 14.535-18.922 21.047-2.07 1.168-4.254 2.55-4.863 3.058l-1.117.954 1.144 1.144 1.168 1.168 2.473-.184c4.543-.347 10.734-2.5 14.429-5.05 2.02-1.383 5.45-4.73 6.805-6.645 1.567-2.258 3.055-5.445 3.719-8.105.797-3.133.746-9.883-.078-12.649-.852-2.816-1.621-4.781-2.5-6.246-.797-1.379-.824-1.406-1.782-.957"/></g></g></svg>