<svg xmlns="http://www.w3.org/2000/svg" width="124" height="101pt" viewBox="0 -101 93 101"><g id="page1"><path fill="#ccc" d="M5.613-4.59v-56.125l10.203-25.512H46.43L87.25-47.96 46.43-14.793z"/><path fill="gray" d="M10.715-86.738C7.145-76.023 3.57-64.797 0-53.574c1.531 13.777 4.594 27.554 3.063 41.84V.004l5.613-7.145c2.55-9.183 9.183-18.37 13.773-27.554L40.82-44.898c-6.632 2.039-16.328 1.02-23.472 2.55 0 0-5.102 15.817-7.145 13.266-1.02-7.652-2.55-14.797-3.058-21.941l-.512-4.59c3.062-8.676 6.633-16.328 10.207-24.493z"/><path fill="gray" d="M10.715-86.738c7.652-3.57 16.328-6.121 23.98-8.672 6.125-1.531 11.735-5.613 17.348-4.594 7.145 6.633 14.797 12.754 21.43 19.899 6.125 8.675 12.758 17.347 18.879 26.53v29.087c-.508 2.55 1.02 6.12-1.02 8.164-13.266 1.531-26.531 2.55-40.309 4.082-8.675.508-15.308 7.14-23.472 10.203C19.39-1.02 11.227-.508 3.063.004l5.613-7.145c11.222-6.125 20.918-16.328 32.144-20.41 14.797-6.633 30.102-13.777 45.41-20.41 2.04-2.039-5.613 1.02-7.652 1.02-18.879 3.574-37.25 8.164-56.129 12.246L40.82-44.898c-11.226-2.043-22.453-4.082-33.675-6.125l-.512-4.59c11.734 2.039 23.473 2.55 35.207 5.101 0-5.613-2.043-10.715-2.55-16.328-1.02-5.101-.513-10.715-8.165-11.222-4.594-.512-9.695-2.551-14.285-2.044z"/><path fill="none" stroke="gray" stroke-linecap="round" stroke-linejoin="round" stroke-width=".05" d="m3.063.004 5.613-7.145M22.45-34.695l18.37-10.203M7.145-51.023l-.512-4.59M16.84-80.105l-6.125-6.633"/></g></svg>