<svg xmlns="http://www.w3.org/2000/svg" width="904pt" height="596" viewBox="0 -447 904 447"><g id="page1" transform="scale(1 -1)"><path fill="#cc9c6f" d="M143.008 392.828a7150 7150 0 0 1 617.555-86.793l2.367 16.844a7141 7141 0 0 1-307.832 50.133 7144 7144 0 0 1-309.723 36.66z"/><path fill="none" stroke="#000" stroke-linecap="round" stroke-linejoin="round" stroke-width="2" d="M143.008 392.828a7150 7150 0 0 1 617.555-86.793l2.367 16.844a7141 7141 0 0 1-307.832 50.133 7144 7144 0 0 1-309.723 36.66z"/><path fill="#fff" d="M176.746 397.387a5.668 5.668 0 1 1-11.336 0 5.667 5.667 0 1 1 11.336 0"/><path fill="none" stroke="#000" stroke-linecap="round" stroke-linejoin="round" stroke-width="2" d="M176.746 397.387a5.668 5.668 0 1 1-11.336 0 5.667 5.667 0 1 1 11.336 0"/><path fill="#fff" d="M738.16 318.484a5.67 5.67 0 1 1-11.341.003 5.67 5.67 0 0 1 11.341-.003"/><path fill="none" stroke="#000" stroke-linecap="round" stroke-linejoin="round" stroke-width="2" d="M738.16 318.484a5.67 5.67 0 1 1-11.341.003 5.67 5.67 0 0 1 11.341-.003"/><path fill="#d3ae37" d="M341.156 150.773c0 15.657-76.144 28.348-170.078 28.348C77.148 179.121 1 166.43 1 150.773s76.148-28.347 170.078-28.347c93.934 0 170.078 12.691 170.078 28.347"/><path fill="none" stroke="#000" stroke-linecap="round" stroke-linejoin="round" stroke-width="2" d="M341.156 150.773c0 15.657-76.144 28.348-170.078 28.348C77.148 179.121 1 166.43 1 150.773s76.148-28.347 170.078-28.347c93.934 0 170.078 12.691 170.078 28.347M171.078 377.547l161.41-217.813m-161.41 217.813L117.32 177.676m53.758 199.871L19.984 137.746m151.094 239.801v19.84"/><path fill="#662d90" d="M120.004 132.703c-.621 4.52-2.879 8.86-6.336 11.871-6.82 6.465-12.223 14.528-15.059 23.563-2.39.308-4.738 1.062-6.597 2.57-1.64 1.106-3.102 2.523-4.871 3.453-1.11.707-1.684-.707-1.551-1.594-.09-2.66.219-5.316.664-7.929-2.48.179-4.43 2.215-5.317 4.386-.706 1.504-1.503 3.012-2.523 4.34-.797.84-2.172-.043-2.039-1.152-.531-2.969-1.02-5.934-2.082-8.77-.973-2.168-2.746-3.851-4.562-5.359 1.417-8.281 2.878-16.609 5.406-24.625 1.285-3.898 2.746-7.707 4.96-11.16 3.055-4.609 7.438-8.418 12.579-10.586 3.984-1.731 8.594-2.215 12.801-1.063 5.89 1.547 10.937 5.934 13.242 11.559 1.371 3.277 1.816 6.953 1.285 10.496"/><path fill="#39b44a" d="M97.59 172.258c-.707 5.004-3.809 9.699-8.457 11.867a14.2 14.2 0 0 1-7.75 1.285c-.801 3.188-1.64 6.422-2.438 9.656-1.152-1.375-2.48-2.66-3.011-4.429-.578-1.641-.489-3.453.043-5.094.132-.531.265-1.105.398-1.641-5.312-2.656-8.68-8.589-8.414-14.48.133-2.262.664-4.43.973-6.645.265-1.55.53-3.144.797-4.695 2.128 1.773 4.296 3.898 5.007 6.645.84 2.656 1.285 5.402 1.727 8.148.355 1.152 1.992.977 2.347-.043 1.063-1.461 1.77-3.144 2.57-4.738 1.016-1.774 2.79-3.278 4.872-3.457-.445 2.836-.844 5.672-.621 8.551-.09 1.152 1.195 1.414 1.949.75 2.258-1.415 4.164-3.364 6.555-4.559 1.418-.664 2.922-1.02 4.472-1.242a26 26 0 0 0-1.02 4.121"/><path fill-rule="evenodd" d="M121.773 132.969c-.707 4.918-3.144 9.613-6.91 12.89-6.687 6.375-12 14.352-14.703 23.207-.574 1.727-.797 3.5-1.195 5.274-1.196 5.137-4.871 9.742-9.79 11.734a16.1 16.1 0 0 1-6.464 1.196c-.711 2.793-1.375 5.625-2.129 8.46-.441 1.196-2.215 1.504-2.965.489-1.242-1.461-2.66-2.879-3.277-4.742-.754-2.036-.711-4.293-.09-6.375.223-.711-1.106-.887-1.46-1.418-4.919-3.856-7.442-10.496-6.337-16.61 1.55-9.523 3.059-19.047 5.406-28.39 1.461-5.715 3.278-11.426 6.243-16.524 2.703-4.426 6.554-8.101 11.074-10.715 4.562-2.613 10.055-3.855 15.234-2.836 5.805 1.063 11.074 4.653 14.219 9.657 2.793 4.297 3.898 9.609 3.144 14.703m-44.601 49.34c.887.445 1.152 1.507.844 2.394-.399 1.551-.977 3.145-.579 4.738.09.442.489 1.86.711 1.551.532-2.082 1.02-4.121 1.551-6.203.352-1.062 1.547-1.328 2.524-1.105 4.164.308 8.37-1.641 10.851-5.004 1.637-2.129 2.524-4.696 2.88-7.309.042-.445.398-1.152-.31-.711-1.906.711-3.413 2.125-5.05 3.278-1.242.886-2.48 2.039-4.031 2.171-1.329.09-2.434-1.062-2.614-2.347-.308-2.039-.09-4.164.133-6.246-1.46 1.328-1.86 3.324-2.922 4.875-.71 1.148-1.328 2.566-2.746 2.964-1.64.532-3.5-.707-3.723-2.39-.484-2.969-.972-5.938-1.992-8.77-.441-.976-1.062-1.816-1.77-2.613-.398 2.438-.886 4.871-1.152 7.309-.488 5.449 2.524 10.984 7.395 13.418m37.691-63.289c-3.496-4.786-9.566-7.665-15.543-7.176-5.226.441-10.011 3.187-13.777 6.73-2.524 2.348-4.606 5.184-5.977 8.371-3.101 6.645-4.742 13.821-6.203 20.95a350 350 0 0 0-1.726 9.48c2.172 1.859 4.12 4.16 4.828 6.996.664 2.172 1.105 4.387 1.46 6.602 1.153-1.774 1.684-3.899 3.145-5.45 1.375-1.55 3.325-2.613 5.403-2.613 1.242.09 1.863 1.504 1.418 2.613-.309 2.125-.575 4.297-.575 6.465 2.082-1.461 3.985-3.23 6.29-4.34 1.152-.488 2.39-.839 3.632-1.105 1.95-5.672 4.871-10.984 8.504-15.77-.976.266-2.262.665-3.012-.308-.886-.977-.265-2.656 1.016-2.879a17.87 17.87 0 0 0 9.438-5.004c4.605-4.477 6.375-11.473 4.605-17.629-.574-2.125-1.594-4.117-2.926-5.933"/><path fill-rule="evenodd" d="M98.523 151.352c-.976-.047-2.261-.133-2.66-1.286-.484-1.152.664-2.57 1.906-2.347.973.09 2.168.133 2.524 1.195.574 1.152-.441 2.613-1.77 2.438"/><path fill="#662d90" d="M184.313 132.703c-.618 4.52-2.875 8.86-6.333 11.871-6.82 6.465-12.222 14.528-15.058 23.563-2.391.308-4.738 1.062-6.602 2.57-1.636 1.106-3.097 2.523-4.871 3.453-1.105.707-1.683-.707-1.551-1.594-.085-2.66.223-5.316.665-7.929-2.477.179-4.426 2.215-5.313 4.386-.711 1.504-1.508 3.012-2.523 4.34-.797.84-2.172-.043-2.039-1.152-.532-2.969-1.02-5.934-2.083-8.77-.972-2.168-2.746-3.851-4.562-5.359 1.418-8.281 2.879-16.609 5.402-24.625 1.285-3.898 2.746-7.707 4.961-11.16 3.059-4.609 7.442-8.418 12.582-10.586 3.985-1.731 8.59-2.215 12.797-1.063 5.895 1.547 10.942 5.934 13.246 11.559 1.371 3.277 1.817 6.953 1.282 10.496"/><path fill="#39b44a" d="M161.902 172.258c-.707 5.004-3.808 9.699-8.461 11.867a14.2 14.2 0 0 1-7.75 1.285c-.796 3.188-1.636 6.422-2.433 9.656-1.153-1.375-2.481-2.66-3.012-4.429-.578-1.641-.488-3.453.043-5.094.133-.531.266-1.105.399-1.641-5.317-2.656-8.68-8.589-8.415-14.48.133-2.262.665-4.43.973-6.645.266-1.55.531-3.144.797-4.695 2.129 1.773 4.297 3.898 5.008 6.645.84 2.656 1.281 5.402 1.726 8.148.352 1.152 1.993.977 2.344-.043 1.067-1.461 1.774-3.144 2.57-4.738 1.02-1.774 2.793-3.278 4.872-3.457-.442 2.836-.84 5.672-.618 8.551-.09 1.152 1.196 1.414 1.95.75 2.257-1.415 4.164-3.364 6.554-4.559 1.418-.664 2.922-1.02 4.473-1.242a25.7 25.7 0 0 0-1.02 4.121"/><path fill-rule="evenodd" d="M186.086 132.969c-.707 4.918-3.145 9.613-6.91 12.89-6.688 6.375-12 14.352-14.703 23.207-.578 1.727-.797 3.5-1.196 5.274-1.199 5.137-4.875 9.742-9.789 11.734a16.1 16.1 0 0 1-6.468 1.196c-.707 2.793-1.372 5.625-2.125 8.46-.442 1.196-2.215 1.504-2.965.489-1.242-1.461-2.66-2.879-3.282-4.742-.75-2.036-.707-4.293-.085-6.375.218-.711-1.11-.887-1.461-1.418-4.918-3.856-7.442-10.496-6.336-16.61 1.55-9.523 3.054-19.047 5.406-28.39 1.461-5.715 3.273-11.426 6.242-16.524 2.703-4.426 6.555-8.101 11.074-10.715 4.563-2.613 10.055-3.855 15.235-2.836 5.804 1.063 11.074 4.653 14.218 9.657 2.789 4.297 3.899 9.609 3.145 14.703m-44.602 49.34c.887.445 1.153 1.507.84 2.394-.394 1.551-.972 3.145-.574 4.738.09.442.488 1.86.711 1.551.531-2.082 1.016-4.121 1.547-6.203.355-1.062 1.551-1.328 2.527-1.105 4.16.308 8.371-1.641 10.852-5.004 1.636-2.129 2.523-4.696 2.879-7.309.043-.445.398-1.152-.313-.711-1.902.711-3.41 2.125-5.047 3.278-1.242.886-2.48 2.039-4.031 2.171-1.328.09-2.437-1.062-2.613-2.347-.313-2.039-.09-4.164.133-6.246-1.461 1.328-1.86 3.324-2.922 4.875-.711 1.148-1.332 2.566-2.746 2.964-1.641.532-3.5-.707-3.723-2.39-.488-2.969-.973-5.938-1.992-8.77-.446-.976-1.063-1.816-1.774-2.613-.398 2.438-.883 4.871-1.148 7.309-.488 5.449 2.523 10.984 7.394 13.418m37.692-63.289c-3.496-4.786-9.567-7.665-15.547-7.176-5.227.441-10.008 3.187-13.774 6.73-2.523 2.348-4.605 5.184-5.976 8.371-3.102 6.645-4.742 13.821-6.203 20.95a349 349 0 0 0-1.727 9.48c2.168 1.859 4.117 4.16 4.828 6.996.664 2.172 1.106 4.387 1.461 6.602 1.153-1.774 1.684-3.899 3.145-5.45 1.371-1.55 3.32-2.613 5.402-2.613 1.242.09 1.86 1.504 1.418 2.613-.308 2.125-.574 4.297-.574 6.465 2.082-1.461 3.984-3.23 6.289-4.34 1.148-.488 2.391-.839 3.633-1.105 1.945-5.672 4.871-10.984 8.504-15.77-.977.266-2.262.665-3.016-.308-.883-.977-.266-2.656 1.02-2.879a17.85 17.85 0 0 0 9.433-5.004c4.61-4.477 6.379-11.473 4.61-17.629-.579-2.125-1.598-4.117-2.926-5.933"/><path fill-rule="evenodd" d="M162.832 151.352c-.973-.047-2.258-.133-2.656-1.286-.488-1.152.664-2.57 1.902-2.347.977.09 2.172.133 2.527 1.195.575 1.152-.445 2.613-1.773 2.438"/><path fill="#865b52" d="M200.605 141.609c-.8 7.934 2.629 16.106 8.766 21.129a40.5 40.5 0 0 0 7.418 4.344c1.313.559 2.668 1.039 3.824 1.914 3.59 2.594 6.258 6.18 9.45 9.207 3.187 3.192 6.894 5.981 11.199 7.574 5.304 2.036 11.242 2.672 16.785 1.196 4.902-1.395 9.086-4.864 11.637-9.207 2.91-4.942 3.589-10.883 3.109-16.504a14.7 14.7 0 0 0-1.594-6.098c-2.429-4.824-6.179-8.848-10.004-12.555-6.855-6.5-14.472-12.16-22.484-17.14-3.188-1.875-6.418-3.789-9.965-5.024-1.875-.679-3.867-.281-5.781.039-5.418 1.196-10.602 3.625-14.867 7.215-3.785 3.231-6.578 7.696-7.336 12.676-.078.398-.117.84-.157 1.234"/><path fill="#513531" d="M242.219 144.961c-2.114-1.438-4.024-3.109-6.098-4.547-4.984-3.586-10.562-6.656-16.703-7.57-3.309-.481-6.695-.242-9.965.476-3.031.758-6.219 2.153-8.012 4.864-.238.32-.558 1.277-.32.359 1.356-5.66 4.227-11.082 8.609-15.027 4.266-3.828 9.926-6.02 15.668-6.18 4.106-.199 8.133.598 12.04 1.754 4.863 1.555 9.246 4.223 13.75 6.574 6.101 3.391 12 7.336 16.582 12.637 2.832 3.23 4.746 7.219 6.101 11.285 1.953 5.699 2.313 11.957.676 17.777-1.074 3.867-2.867 7.575-5.102 10.922-.875 1.317-1.793 2.59-2.949 3.668.797-4.945.957-10.047.16-14.988-.597-3.59-1.875-7.098-4.226-9.926-3.309-4.305-7.696-7.973-12.836-9.809-2.192-.875-4.543-1.195-6.778-1.992a4 4 0 0 1-.597-.277"/><path fill="#30201d" d="M237.598 132.203c.554-.875 1.91-.558 2.828-.598 1.676.079 3.347.36 4.984.637.996.039 1.754 1.117.797 1.836-1.078 1.195-2.473 2.231-4.066 2.512-.996.117-1.793-.719-2.512-1.356-.797-.839-1.715-1.754-2.031-2.91zm14.547-1.515c.718-.516 1.636.199 2.234.597.836.719 1.434 1.754 1.555 2.871-.161.918-1.516.719-2.196.52-1.355-.442-1.91-2.074-1.793-3.391.039-.195.082-.437.2-.597m19.093 38.191c-.797.797-1.394-.879-1.672-1.477-.402-.836-.437-2.074.516-2.589.758-.598 2.074-.282 2.152.796.121 1.157-.476 2.27-.996 3.27m-54.929-42.856c-.559-1.035.679-1.832 1.433-2.308.797-.36 1.797-.641 2.594-.199.559.754-.52 1.472-.996 1.992-.68.597-1.555 1.433-2.512.996a1.24 1.24 0 0 1-.519-.481"/><path fill="#513531" d="M209.055 140.258c-.598-.641-.36-1.637-.282-2.395-.039-.996.68-1.515 1.637-1.394.797 0 2.231-.199 2.391.879-.238 1.113-1.196 1.953-2.031 2.668-.481.359-1.196.636-1.715.242m5.539 5.578c.48-.758 1.515-.516 2.074.039.719.598 1.355 1.836.637 2.711-.797.719-1.953 0-2.469-.715-.359-.598-.68-1.398-.242-2.035m12.398 24.797c-.957.515-1.715-.442-1.992-1.278-.398-1.156-1.277-2.113-1.516-3.308.2-.957 1.594-.598 2.313-.559.797.082 1.793.438 1.953 1.356.277 1.156.359 2.472-.359 3.469-.078.16-.239.238-.399.32"/><path fill="#c3ada8" d="M205.746 143.207c.957-.32 1.793.559 2.43 1.195 1.637 1.672 2.711 3.786 4.387 5.422 2.351 2.313 5.062 4.266 7.972 5.821 3.586 1.871 7.613 2.468 11.52 3.386 2.035.477 4.144 1.274 5.582 2.91 3.148 3.348 4.703 7.813 7.453 11.481 1.633 2.191 4.105 3.785 6.855 4.023 1.395.203 2.832-.078 4.188.321 1.074.359 1.156 1.836.758 2.75-.879 1.793-2.871 2.672-4.707 3.109-4.024.879-8.371-.039-11.637-2.551-2.949-2.152-5.024-5.222-6.859-8.332-1.594-2.469-2.989-5.101-5.059-7.215-1.438-1.433-3.352-2.113-5.266-2.668-4.105-1.316-8.09-3.23-11.32-6.14-2.152-1.832-4.023-4.028-5.34-6.539-.879-1.754-1.793-3.586-1.754-5.578 0-.559.239-1.157.797-1.395"/><path fill="#513531" d="M249.754 171.668c.32-1.715 2.074-2.633 3.629-2.992 1.273-.356 2.906-.039 3.508 1.277.398.875-.403 1.676-1.118 1.992-.996.481-2.113.719-2.949 1.516-.597.637-1.636.836-2.351.238-.602-.476-.758-1.312-.719-2.031"/><path fill="#bc9a16" d="M1 150.773c0-68.597 90.55-70.867 170.078-70.867 79.527 0 170.078 2.27 170.078 70.867 0-15.656-76.144-28.347-170.078-28.347C77.148 122.426 1 135.117 1 150.773"/><path fill="none" stroke="#000" stroke-linecap="round" stroke-linejoin="round" stroke-width="2" d="M1 150.773c0-68.597 90.55-70.867 170.078-70.867 79.527 0 170.078 2.27 170.078 70.867 0-15.656-76.144-28.347-170.078-28.347C77.148 122.426 1 135.117 1 150.773"/><path fill="#d3ae37" d="M902.57 71.871c0 15.656-76.148 28.348-170.078 28.348-93.933 0-170.082-12.692-170.082-28.348 0-15.652 76.149-28.344 170.082-28.344 93.93 0 170.078 12.692 170.078 28.344"/><path fill="none" stroke="#000" stroke-linecap="round" stroke-linejoin="round" stroke-width="2" d="M902.57 71.871c0 15.656-76.148 28.348-170.078 28.348-93.933 0-170.082-12.692-170.082-28.348 0-15.652 76.149-28.344 170.082-28.344 93.93 0 170.078 12.692 170.078 28.344M732.492 298.645 893.898 80.832M732.492 298.645 678.73 98.773m53.762 199.872L581.395 58.844m151.097 239.801v19.839"/><path fill="#79ac14" d="M670.227 87.887c1.949 3.367 4.609 7.265 6.554 9.746 0 .707-.176 1.414-.176 2.3-.71 3.544-3.718 6.204-6.91 5.672-3.187-.535-5.312-3.898-4.605-7.62.176-1.594 1.418-5.313 2.836-9.036.707-.176 1.594-.531 2.301-1.062"/><path fill="none" stroke="#000" stroke-linecap="round" stroke-linejoin="round" stroke-width="2.25" d="M670.227 87.887c1.949 3.367 4.609 7.265 6.554 9.746 0 .707-.176 1.414-.176 2.3-.71 3.544-3.718 6.204-6.91 5.672-3.187-.535-5.312-3.898-4.605-7.62.176-1.594 1.418-5.313 2.836-9.036.707-.176 1.594-.531 2.301-1.062"/><path fill="#79ac14" d="M675.012 83.106c3.367 1.945 7.261 4.605 9.742 6.554.711 0 1.418-.18 2.305-.18 3.543-.707 6.199-3.718 5.668-6.906-.532-3.191-3.899-5.14-7.618-4.61-1.593.18-5.316 1.419-9.035 2.837-.179.707-.531 1.593-1.062 2.305"/><path fill="none" stroke="#000" stroke-linecap="round" stroke-linejoin="round" stroke-width="2.25" d="M675.012 83.106c3.367 1.945 7.261 4.605 9.742 6.554.711 0 1.418-.18 2.305-.18 3.543-.707 6.199-3.718 5.668-6.906-.532-3.191-3.899-5.14-7.618-4.61-1.593.18-5.316 1.419-9.035 2.837-.179.707-.531 1.593-1.062 2.305"/><path fill="#a4cd34" d="M672.887 85.762a7.9 7.9 0 0 0 2.125-2.656c4.429 2.3 9.922 6.375 11.515 7.972 2.657 2.656 2.832 6.555.532 8.856-2.125 2.304-6.204 1.949-8.86-.532-1.594-1.593-5.492-7.086-7.972-11.515a7.9 7.9 0 0 0 2.66-2.125"/><path fill="none" stroke="#000" stroke-linecap="round" stroke-linejoin="round" stroke-width="2.25" d="M672.887 85.762a7.9 7.9 0 0 0 2.125-2.656c4.429 2.3 9.922 6.375 11.515 7.972 2.657 2.656 2.832 6.555.532 8.856-2.125 2.304-6.204 1.949-8.86-.532-1.594-1.593-5.492-7.086-7.972-11.515a7.9 7.9 0 0 0 2.66-2.125"/><path fill="#f26d21" d="M672.887 85.762c-5.492 5.492-14.532 5.136-20.199-.711-8.86-8.856-29.235-35.61-22.676-42.164 6.554-6.555 33.304 13.82 42.164 22.68 5.847 5.843 6.203 14.703.711 20.195"/><path fill="#ce5c1c" d="M672.887 85.762c2.301-5.137 1.062-11.692-3.367-16.121-8.329-8.329-32.422-26.575-40.75-23.563 0-1.418.355-2.48 1.242-3.191 6.554-6.555 33.304 13.82 42.164 22.68 5.847 5.667 6.203 14.703.711 20.195"/><g fill="none" stroke="#000" stroke-linecap="round" stroke-linejoin="round" stroke-width="2.25"><path d="M671.113 64.324s-5.316 1.774-10.629 7.086m-10.453-5.668s-3.367 3.012-6.91 7.973m20.551-15.59s-4.43 1.238-7.266 4.074m1.418-8.328s-4.605.887-9.386 5.668m-12.227 3.723s1.949-3.723 5.848-6.91m6.554 24.273s1.063-3.191 4.075-6.203m-15.415-26.043s2.481-2.836 5.493-4.074m38.269 49.605-8.148-8.148m-1.774 11.34 1.063-6.024m12.047-7.09-6.024 1.063"/><path d="M672.887 85.762c-5.492 5.492-14.532 5.136-20.199-.711-8.86-8.856-29.235-35.61-22.676-42.164 6.554-6.555 33.304 13.82 42.164 22.68 5.847 5.843 6.203 14.703.711 20.195"/></g><path fill="#79ac14" d="M745.043 87.887c1.949 3.367 4.605 7.265 6.555 9.746 0 .707-.176 1.414-.176 2.3-.711 3.544-3.723 6.204-6.91 5.672-3.192-.535-5.317-3.898-4.606-7.62.176-1.594 1.414-5.313 2.832-9.036.711-.176 1.598-.531 2.305-1.062"/><path fill="none" stroke="#000" stroke-linecap="round" stroke-linejoin="round" stroke-width="2.25" d="M745.043 87.887c1.949 3.367 4.605 7.265 6.555 9.746 0 .707-.176 1.414-.176 2.3-.711 3.544-3.723 6.204-6.91 5.672-3.192-.535-5.317-3.898-4.606-7.62.176-1.594 1.414-5.313 2.832-9.036.711-.176 1.598-.531 2.305-1.062"/><path fill="#79ac14" d="M749.824 83.106c3.367 1.945 7.266 4.605 9.746 6.554.707 0 1.418-.18 2.301-.18 3.547-.707 6.203-3.718 5.672-6.906-.531-3.191-3.898-5.14-7.617-4.61-1.598.18-5.317 1.419-9.035 2.837-.18.707-.532 1.593-1.067 2.305"/><path fill="none" stroke="#000" stroke-linecap="round" stroke-linejoin="round" stroke-width="2.25" d="M749.824 83.106c3.367 1.945 7.266 4.605 9.746 6.554.707 0 1.418-.18 2.301-.18 3.547-.707 6.203-3.718 5.672-6.906-.531-3.191-3.898-5.14-7.617-4.61-1.598.18-5.317 1.419-9.035 2.837-.18.707-.532 1.593-1.067 2.305"/><path fill="#a4cd34" d="M747.699 85.762a7.8 7.8 0 0 0 2.125-2.656c4.43 2.3 9.922 6.375 11.52 7.972 2.656 2.656 2.832 6.555.527 8.856-2.125 2.304-6.199 1.949-8.855-.532-1.594-1.593-5.493-7.086-7.973-11.515a7.8 7.8 0 0 0 2.656-2.125"/><path fill="none" stroke="#000" stroke-linecap="round" stroke-linejoin="round" stroke-width="2.25" d="M747.699 85.762a7.8 7.8 0 0 0 2.125-2.656c4.43 2.3 9.922 6.375 11.52 7.972 2.656 2.656 2.832 6.555.527 8.856-2.125 2.304-6.199 1.949-8.855-.532-1.594-1.593-5.493-7.086-7.973-11.515a7.8 7.8 0 0 0 2.656-2.125"/><path fill="#f26d21" d="M747.699 85.762c-5.492 5.492-14.527 5.136-20.195-.711-8.859-8.856-29.234-35.61-22.68-42.164 6.559-6.555 33.309 13.82 42.168 22.68 5.848 5.843 6.199 14.703.707 20.195"/><path fill="#ce5c1c" d="M747.699 85.762c2.305-5.137 1.063-11.692-3.363-16.121-8.328-8.329-32.422-26.575-40.75-23.563 0-1.418.355-2.48 1.238-3.191 6.559-6.555 33.309 13.82 42.168 22.68 5.848 5.667 6.199 14.703.707 20.195"/><g fill="none" stroke="#000" stroke-linecap="round" stroke-linejoin="round" stroke-width="2.25"><path d="M745.93 64.324s-5.317 1.774-10.633 7.086m-10.449-5.668s-3.368 3.012-6.91 7.973m20.55-15.59s-4.429 1.238-7.265 4.074m1.418-8.328s-4.606.887-9.391 5.668m-12.223 3.723s1.95-3.723 5.844-6.91m6.559 24.273s1.062-3.191 4.074-6.203M712.09 48.379s2.48-2.836 5.492-4.074m38.27 49.605-8.153-8.148m-1.769 11.34 1.062-6.024m12.047-7.09-6.023 1.063"/><path d="M747.699 85.762c-5.492 5.492-14.527 5.136-20.195-.711-8.859-8.856-29.234-35.61-22.68-42.164 6.559-6.555 33.309 13.82 42.168 22.68 5.848 5.843 6.199 14.703.707 20.195"/></g><path fill="#662d90" d="M836.715 53.8c-.621 4.52-2.879 8.86-6.332 11.872-6.824 6.469-12.227 14.527-15.063 23.562-2.39.313-4.738 1.063-6.597 2.57-1.637 1.106-3.102 2.524-4.871 3.454-1.11.71-1.684-.707-1.551-1.594-.09-2.656.222-5.316.664-7.93-2.481.18-4.43 2.215-5.317 4.387-.707 1.508-1.503 3.012-2.523 4.34-.797.844-2.172-.043-2.035-1.152-.535-2.965-1.02-5.934-2.082-8.77-.977-2.168-2.746-3.852-4.563-5.36 1.414-8.28 2.879-16.609 5.403-24.624 1.285-3.899 2.746-7.707 4.961-11.16 3.054-4.606 7.441-8.418 12.578-10.586 3.984-1.727 8.593-2.215 12.801-1.063 5.89 1.55 10.941 5.934 13.242 11.559 1.375 3.277 1.816 6.953 1.285 10.496"/><path fill="#39b44a" d="M814.305 93.356c-.711 5.003-3.813 9.699-8.461 11.871a14.2 14.2 0 0 1-7.75 1.281c-.797 3.191-1.641 6.422-2.438 9.656-1.152-1.371-2.48-2.656-3.011-4.43-.575-1.636-.489-3.453.043-5.093.132-.532.265-1.106.402-1.637-5.317-2.656-8.684-8.594-8.418-14.485.133-2.257.664-4.43.976-6.644.266-1.55.532-3.144.797-4.695 2.125 1.773 4.293 3.898 5.004 6.644.844 2.657 1.285 5.403 1.727 8.149.355 1.152 1.996.976 2.347-.043 1.063-1.461 1.774-3.145 2.571-4.739 1.015-1.773 2.789-3.277 4.871-3.457-.442 2.836-.844 5.672-.621 8.551-.086 1.153 1.199 1.418 1.949.754 2.258-1.418 4.164-3.367 6.555-4.562 1.418-.665 2.925-1.02 4.472-1.243a25 25 0 0 0-1.015 4.122"/><path fill-rule="evenodd" d="M838.484 54.066c-.707 4.918-3.14 9.614-6.906 12.891-6.687 6.379-12.004 14.352-14.707 23.207-.574 1.73-.797 3.5-1.195 5.273-1.196 5.137-4.871 9.743-9.789 11.739a16.1 16.1 0 0 1-6.465 1.191c-.707 2.793-1.375 5.625-2.125 8.461-.445 1.195-2.215 1.508-2.969.488-1.238-1.461-2.656-2.878-3.277-4.738-.754-2.039-.707-4.297-.09-6.379.223-.711-1.106-.886-1.461-1.418-4.914-3.851-7.441-10.496-6.332-16.61 1.551-9.523 3.055-19.042 5.402-28.39 1.461-5.715 3.278-11.425 6.246-16.52 2.7-4.429 6.555-8.105 11.071-10.718 4.562-2.613 10.054-3.855 15.238-2.836 5.801 1.063 11.07 4.652 14.219 9.656 2.789 4.297 3.894 9.61 3.14 14.703m-44.597 49.344c.883.442 1.148 1.504.84 2.391-.399 1.551-.973 3.144-.575 4.738.086.445.485 1.859.707 1.551.532-2.082 1.02-4.117 1.551-6.199.356-1.067 1.551-1.332 2.524-1.11 4.164.313 8.371-1.636 10.851-5.004 1.641-2.125 2.524-4.695 2.879-7.308.047-.442.399-1.153-.309-.707-1.906.707-3.41 2.125-5.05 3.277-1.239.883-2.481 2.035-4.032 2.168-1.328.09-2.433-1.062-2.613-2.348-.308-2.035-.086-4.164.137-6.246-1.465 1.332-1.863 3.325-2.926 4.875-.707 1.153-1.328 2.567-2.746 2.965-1.641.531-3.5-.707-3.719-2.39-.488-2.97-.976-5.934-1.996-8.77-.441-.973-1.062-1.816-1.769-2.613-.399 2.437-.887 4.87-1.153 7.308-.488 5.45 2.524 10.985 7.399 13.422m37.691-63.293c-3.5-4.785-9.566-7.664-15.547-7.176-5.226.442-10.011 3.188-13.773 6.73-2.528 2.349-4.61 5.185-5.981 8.372-3.101 6.645-4.738 13.82-6.203 20.95a369 369 0 0 0-1.726 9.48c2.172 1.859 4.121 4.164 4.828 6.996.664 2.172 1.109 4.387 1.461 6.601 1.152-1.773 1.683-3.898 3.144-5.449 1.375-1.55 3.324-2.613 5.407-2.613 1.238.09 1.859 1.508 1.417 2.613-.312 2.125-.578 4.297-.578 6.469 2.082-1.461 3.989-3.234 6.289-4.344 1.153-.484 2.395-.84 3.633-1.105 1.949-5.668 4.871-10.985 8.504-15.77-.973.27-2.258.668-3.012-.308-.886-.973-.265-2.657 1.02-2.88a17.9 17.9 0 0 0 9.434-5.003c4.605-4.473 6.378-11.473 4.605-17.63-.574-2.124-1.594-4.116-2.922-5.933"/><path fill-rule="evenodd" d="M815.234 72.45c-.976-.044-2.257-.134-2.66-1.286-.484-1.152.664-2.57 1.906-2.348.973.09 2.172.133 2.524 1.196.578 1.152-.441 2.613-1.77 2.437"/><path fill="#bc9a16" d="M562.41 71.871c0-68.598 90.555-70.863 170.082-70.863 79.528 0 170.078 2.265 170.078 70.863 0-15.652-76.148-28.344-170.078-28.344-93.933 0-170.082 12.692-170.082 28.344"/><path fill="none" stroke="#000" stroke-linecap="round" stroke-linejoin="round" stroke-width="2" d="M562.41 71.871c0-68.598 90.555-70.863 170.082-70.863 79.528 0 170.078 2.265 170.078 70.863 0-15.652-76.148-28.344-170.078-28.344-93.933 0-170.082 12.692-170.082 28.344"/><path fill="#cc9c6f" d="M458.871 357.938c0 3.914-3.172 7.085-7.086 7.085s-7.086-3.171-7.086-7.085 3.172-7.086 7.086-7.086 7.086 3.171 7.086 7.086"/><path fill="none" stroke="#000" stroke-linecap="round" stroke-linejoin="round" stroke-width="2" d="M458.871 357.938c0 3.914-3.172 7.085-7.086 7.085s-7.086-3.171-7.086-7.085 3.172-7.086 7.086-7.086 7.086 3.171 7.086 7.086"/><circle cx="451.785" cy="357.938" r="1"/><path fill="#cc9c6f" d="M437.609 54.629h28.348v340.156h-28.348Z"/><path fill="none" stroke="#000" stroke-linecap="round" stroke-linejoin="round" stroke-width="2" d="M437.609 54.629h28.348v340.156h-28.348z"/><path fill="#cc9c6f" d="M458.871 357.938c0 3.914-3.172 7.085-7.086 7.085s-7.086-3.171-7.086-7.085 3.172-7.086 7.086-7.086 7.086 3.171 7.086 7.086"/><path fill="none" stroke="#000" stroke-linecap="round" stroke-linejoin="round" stroke-width="2" d="M458.871 357.938c0 3.914-3.172 7.085-7.086 7.085s-7.086-3.171-7.086-7.085 3.172-7.086 7.086-7.086 7.086 3.171 7.086 7.086"/><path fill="#cc9c6f" d="M454.617 394.785c3.641 3.824 5.672 8.899 5.672 14.176s-2.031 10.352-5.672 14.172h-5.668c-3.636-3.82-5.668-8.895-5.668-14.172s2.032-10.352 5.668-14.176z"/><path fill="none" stroke="#000" stroke-linecap="round" stroke-linejoin="round" stroke-width="2" d="M454.617 394.785c3.641 3.824 5.672 8.899 5.672 14.176s-2.031 10.352-5.672 14.172h-5.668c-3.636-3.82-5.668-8.895-5.668-14.172s2.032-10.352 5.668-14.176z"/><path fill="#cc9c6f" d="M463.121 434.473c0 6.261-5.074 11.34-11.336 11.34s-11.34-5.079-11.34-11.34 5.078-11.34 11.34-11.34 11.336 5.078 11.336 11.34"/><path fill="none" stroke="#000" stroke-linecap="round" stroke-linejoin="round" stroke-width="2" d="M463.121 434.473c0 6.261-5.074 11.34-11.336 11.34s-11.34-5.079-11.34-11.34 5.078-11.34 11.34-11.34 11.336 5.078 11.336 11.34"/><path fill="#cc9c6f" d="M494.305 26.281c-13.692 0-22.676 13.625-22.676 28.348h-39.688c0-14.723-8.988-28.348-22.675-28.348z"/><path fill="none" stroke="#000" stroke-linecap="round" stroke-linejoin="round" stroke-width="2" d="M494.305 26.281c-13.692 0-22.676 13.625-22.676 28.348h-39.688c0-14.723-8.988-28.348-22.675-28.348z"/></g></svg>