<svg xmlns="http://www.w3.org/2000/svg" width="904pt" height="596" viewBox="0 -447 904 447"><g id="page1" transform="scale(1 -1)"><path fill="#cc9c6f" d="M143.008 392.828a7150 7150 0 0 1 617.555-86.793l2.367 16.844a7141 7141 0 0 1-307.832 50.133 7144 7144 0 0 1-309.723 36.66z"/><path fill="none" stroke="#000" stroke-linecap="round" stroke-linejoin="round" stroke-width="2" d="M143.008 392.828a7150 7150 0 0 1 617.555-86.793l2.367 16.844a7141 7141 0 0 1-307.832 50.133 7144 7144 0 0 1-309.723 36.66z"/><path fill="#fff" d="M176.746 397.387a5.668 5.668 0 1 1-11.336 0 5.667 5.667 0 1 1 11.336 0"/><path fill="none" stroke="#000" stroke-linecap="round" stroke-linejoin="round" stroke-width="2" d="M176.746 397.387a5.668 5.668 0 1 1-11.336 0 5.667 5.667 0 1 1 11.336 0"/><path fill="#fff" d="M738.16 318.484a5.67 5.67 0 1 1-11.341.003 5.67 5.67 0 0 1 11.341-.003"/><path fill="none" stroke="#000" stroke-linecap="round" stroke-linejoin="round" stroke-width="2" d="M738.16 318.484a5.67 5.67 0 1 1-11.341.003 5.67 5.67 0 0 1 11.341-.003"/><path fill="#d3ae37" d="M341.156 150.773c0 15.657-76.144 28.348-170.078 28.348C77.148 179.121 1 166.43 1 150.773s76.148-28.347 170.078-28.347c93.934 0 170.078 12.691 170.078 28.347"/><path fill="none" stroke="#000" stroke-linecap="round" stroke-linejoin="round" stroke-width="2" d="M341.156 150.773c0 15.657-76.144 28.348-170.078 28.348C77.148 179.121 1 166.43 1 150.773s76.148-28.347 170.078-28.347c93.934 0 170.078 12.691 170.078 28.347M171.078 377.547l161.41-217.813m-161.41 217.813L117.32 177.676m53.758 199.871L19.984 137.746m151.094 239.801v19.84"/><g fill-rule="evenodd"><path fill="#247040" d="M120.77 195.316c-.633.293-1.122-.437-.875-.976.242-.731.921-.047 1.41-.145.73.047 1.609-.097 2.242.438.586.535-.488 1.07-1.024.976-.585-.05-1.168-.246-1.753-.293m2.777-.683c-.731-.488-2.535-.195-3.266-.684-.484-.437.293-1.312.391-1.801.293-.679.391-1.46.242-2.191-.242-1.609-1.07-3.023-1.754-4.484-1.703-3.653-3.652-7.16-5.262-10.914 1.024-.387 2 .293 2.973.586.781.195 1.024 1.074 1.219 1.753.144.731.293 1.415.683 2.047 1.461 3.266 3.165 6.43 4.629 9.696.582 1.656.926 3.41.875 5.117.391 1.312-.339 1.121-.73.875m-23.289-13.789c-1.512-.387-3.164-.535-4.434-1.508 2.828-.438 5.36-2.047 7.211-4.191 1.024-1.461 1.754-3.215 3.266-4.239.777-.586 1.703-1.023 2.679-1.07.633 0 1.024.535 1.559.828.926.68 1.121 1.996 2.094 2.629.539 1.121.097 2.437-.488 3.461-.68 1.168-1.657 2.387-2.778 3.117-2.531 1.512-5.699 1.461-8.523 1.07-.196-.046-.391-.046-.586-.097m24.847-2.973c-2.824-1.898-6.234-2.582-9.453-3.601-1.019-.293-1.996-.735-2.824-1.465-1.219-1.024-2.094-2.676-1.754-4.336.242-.973 1.219-1.852 2.242-1.508.536.047 1.071.68 1.266.047.195-.485.34-1.168 1.023-1.168 2.536-.242 5.067.828 6.821 2.629a8.4 8.4 0 0 1 2.484 4.922c.344 1.558.488 3.117.586 4.675-.098.196-.34-.046-.391-.195m-25.089-1.754c-2.73-.828-5.7-1.41-8.575-.972-.246.828-1.558-.047-.585-.391 1.218-1.656 3.07-2.727 4.921-3.457 1.657 0 3.117.777 4.676 1.07.731.438 1.902.344 2.731.633.73.344-.489 1.512-.735 1.949-.437.535-.828.977-1.508 1.219-.293.098-.632.145-.925-.051m28.988-.582c-1.219-.293-2.582-.535-3.363-1.609-.289-.485-.438-1.121-.438-1.703 0-.782.926 0 1.024-.051-.438-.535-.973-.926-1.461-1.41-.536-1.024-1.168-2.145-2.192-2.731-.488-.535 0-1.265.633-1.363.582-.195 1.168.051 1.754.145 3.262.585 5.894 2.925 9.156 3.605.539-.34 1.172.195 1.219.73.148.586-.145 1.122-.633 1.461-.586.637-1.07 1.368-1.801 1.903-1.121.828-2.535 1.316-3.898 1.023m16.176-.683c-2.242-1.754-5.164-2.387-7.942-2.434-.488-.098-1.172.191-1.367-.391-.191-.632.344-1.265.051-1.851-.391-.391-1.024-.196-1.559-.293-.437.097-.683-.535-.144-.391.289.098 1.019 0 .437-.293-.488-.386.535-.242.778-.484 1.269-.438 2.488-1.074 3.851-1.414 1.559.097 2.824 1.219 4.043 2.144 1.512 1.461 2.582 3.653 2.238 5.797-.191 0-.191-.34-.386-.39m-14.469-6.43c-.684-.535-1.66-.488-2.293-1.168-.582-.586 1.023-.246.73-.637-.875.391-.875.391-1.703-.289-.632-.976.34-1.512.684-1.851 1.168-1.075 2.676-1.61 4.09-2.098 3.41-.973 7.066-1.461 10.57-.777 1.414.293 2.777.777 3.996 1.461-.68.781-1.801.437-2.68.73-.484.242-1.019.586-1.605.828-2.73 1.414-5.359 3.313-8.477 3.945-1.074.247-2.242.247-3.312-.144"/><path fill="#d1242b" d="M92.27 168.617c-1.805-1.898-2.973-4.289-3.899-6.676-1.363-3.996-1.61-8.281-1.316-12.472.488-4.871 1.996-9.598 3.898-14.078 1.95-4.336 3.848-8.672 5.945-12.914 1.313-2.676 2.63-5.309 4.383-7.696 1.852-2.386 4.68-4.191 7.797-4.047 2.145 0 4.094 1.075 5.895 2.145 2.875 1.609 5.652 3.363 8.523 5.066 6.918 5.02 12.766 11.403 18.078 18.028 1.656 2.191 2.922 4.726 3.266 7.504.535 3.507.484 7.113-.246 10.621-.535 2.047-1.61 3.898-2.531 5.75-.782 1.265-2.243.679-3.461.73-3.364.195-6.774 1.024-9.696 2.777-.879.731-1.316 1.801-1.996 2.68-1.269.926-2.972-.344-4.238.582-1.074.586-2.34-.094-3.266-.633-1.656-.73-3.703-.73-5.215.293-1.019.391-2.289.536-3.019 1.512.195 1.121-1.07 2.191-2.145 1.703-.972-.293-2.047.344-2.875.879-.925.535-1.605 1.606-2.679 1.949-3.555-.293-8.817-2.047-11.204-3.703"/><path d="M120.43 195.801c-1.27.051-2.094-1.801-.782-2.387 1.266-1.363.977-3.41.442-5.016-.832-2.632-2.391-4.875-3.61-7.308-.921-1.805-1.898-3.656-2.628-5.508-1.266.195-.926 1.805-1.707 2.484-1.899 2.438-5.016 3.657-8.086 3.754-3.118.098-6.235-.535-8.965-2.047.144-1.121 1.46-.828 2.242-1.121.777-.679 2.145-.632 2.727-1.605-.391-.879-1.56-.734-2.336-.93-1.563-.242-3.121-.726-4.727-.633a5.16 5.16 0 0 0-3.312 1.219c-1.024-.144.289-1.312.535-1.801 1.218-1.558 2.726-3.07 4.629-3.754-.73-1.312-2.536-1.507-3.313-2.777-3.266-3.359-4.824-7.988-5.312-12.566-.829-7.457 1.171-14.957 4.335-21.684 2.633-5.457 5.36-10.91 7.993-16.367 1.461-2.68 3.117-5.508 5.941-6.918 2.68-1.316 6.09-1.219 8.676.387 3.457 1.754 6.723 3.703 10.035 5.652 7.648 5.117 13.883 12.035 19.293 19.441 1.852 2.825 2.824 6.188 3.313 9.547.585 4.778-.293 9.793-2.875 13.887-.829 1.363 1.167 1.754 2.144 1.996.875.344 2.973.781 2.289 2.047-1.023.633-2.34.242-3.363.828-1.313.535-2.485 1.317-3.699 1.949.242 1.121 1.558 1.024 2.336 1.61 1.656 1.508 3.214 3.41 3.507 5.699.391.828-.047 2.434-1.168 1.851-.488-.878-1.461-1.265-2.339-1.558-2.29-.926-4.774-1.024-7.161-1.414-1.316 1.363-2.632 2.972-4.629 3.215-1.609.34-3.46 0-4.726-1.121-1.07.632-.195 1.902-.145 2.777.196.684-.488 1.754-1.023.781-1.219-1.121-2.875-1.461-4.336-2.097-.73-.145-1.609-.829-2.242-.196-.293 1.028.488 1.903.73 2.781 1.801 4.383 4.578 8.379 5.407 13.055.195 1.024.585 2.145.148 3.117-.586 1.075-1.996 1.121-3.07.977a10 10 0 0 1-1.168-.246m.293-.387c-1.219.484-1.121-2.047.093-1.121.926.098 2.536-.195 2.973.73-.484 1.219-2.141.438-3.066.391m2.336-1.219c-.778-.535-2.485.391-2.68-.879.148-.875.684-1.703.586-2.628-.051-1.559-.684-3.024-1.266-4.434-1.754-3.945-4.094-7.602-5.801-11.598 1.172-.386 2.293.442 3.415.782.972 1.023.726 2.582 1.507 3.703 1.707 3.945 4.094 7.597 5.215 11.839.195 1.071.242 2.192.242 3.313-.437 0-.828.047-1.218-.098m-22.801-13.254c-1.414-.386-3.02-.386-4.14-1.41 1.706-.539 3.46-1.074 4.823-2.34 2.192-1.8 3.457-4.531 5.653-6.332.73-.586 1.605-1.023 2.531-1.121.73 1.168-1.461 1.266-1.656 2.289-1.121 1.461-1.703 3.215-2.727 4.727 1.606-1.172 1.899-3.363 3.36-4.727.632-.632 1.414-1.609 2.437-1.218 1.024.73 1.414 1.996 2.191 2.921.536 1.172-.242 2.387-.777 3.415-1.219 2.093-3.512 3.554-5.945 3.847-1.903.293-3.848.242-5.75-.051m24.847-2.968c-3.214-2.243-7.21-2.731-10.765-4.145-1.754-.777-3.461-2.387-3.313-4.433 0-1.118.731-2.387 1.899-2.485 1.316.149 1.656 1.707 2.535 2.438 1.852 1.656 4.336 2.34 6.332 3.8.73.34-.586-.781-.828-.878-1.559-1.024-3.41-1.606-4.824-2.825-.731-.535-1.364-1.218-1.801-2.047.535-.488.293-1.609 1.414-1.46 1.945-.247 3.894.535 5.504 1.609 1.656 1.117 2.922 2.871 3.41 4.871.488 1.656.535 3.41.926 5.113.047.293-.149.684-.489.442m-25.089-1.856c-2.73-.828-5.653-1.312-8.528-.875-.242.977-1.754-.242-.632-.488 1.363-1.508 3.117-2.68 5.019-3.457 1.898.484 3.797 1.219 5.746 1.363-.144 1.07-1.703.242-2.484.488-1.219 0-2.434 0-3.653.098 2.145.391 4.383.195 6.579.098.679-.879 1.8.73.632.972-.535.926-1.367 2.485-2.679 1.801m28.988-.484c-1.266-.293-2.824-.586-3.508-1.852-.195-.586-.781-2.386.438-1.656 2 1.266 4.629 1.266 6.82.34-1.363 0-2.629.586-3.945.34-1.512-.196-3.118-.778-4.043-2.043-.536-1.024-1.168-2.047-2.192-2.68-.781-1.172 1.071-1.656 1.899-1.269 3.507.441 6.238 3.023 9.644 3.703 1.074-.536 1.61 1.172.977 1.851-.684.488-1.121 1.317-1.754 1.852-1.168 1.023-2.777 1.754-4.336 1.414m16.176-.684c-2.485-1.996-5.797-2.531-8.918-2.433-1.168-.442.633-2.387-.875-2.489-.438-.093-1.805.102-1.461-.437 2.679 0 5.308.344 7.844 1.172-1.852-1.461-4.336-1.461-6.532-1.367-.633.293-1.215-.438-.289-.438 1.461-.437 2.824-1.168 4.336-1.559 1.559.098 2.824 1.219 3.992 2.145 1.563 1.461 2.633 3.605 2.289 5.797-.191 0-.191-.34-.386-.391m-42.582-2.777c-3.754-.535-7.602-1.508-10.72-3.75-1.073-1.219-1.655-2.731-2.581-4.043-2.29-4.336-2.438-9.402-2.29-14.18.391-6.672 2.97-13.008 5.798-19 2.484-5.457 4.773-10.961 8.086-15.929 1.804-2.829 5.117-4.778 8.527-4.536 2.242.196 4.238 1.368 6.141 2.438 2.871 1.805 5.796 3.41 8.574 5.312 5.797 4.286 10.765 9.547 15.441 15.004 2.34 2.778 4.582 5.895 5.164 9.598.684 3.605.539 7.359-.191 10.965-.637 2.336-1.852 4.48-3.024 6.574-4.433-.34-9.058.488-12.812 2.875-.926.781-1.168 2.047-2.191 2.73-1.266.536-2.778-.488-3.946.387-1.074.637-2.242-.144-3.219-.633-1.605-.73-3.652-.777-5.164.293-1.019.442-2.289.442-2.968 1.414 0 1.219-1.172 2.438-2.34 1.704-1.559-.094-2.875.925-3.996 1.949-.586.488-1.414 1.316-2.289.828m-6.774-2.824c-1.414.293-.828-2.731.195-1.414.293.343.926 2.093-.195 1.414m7.942-.243c-1.024-.246-1.071-2.242.097-2.195 1.168.098 1.461 2.438.098 2.289a.4.4 0 0 1-.195-.094m.05-.148c-1.461-.195 0-2.824.731-1.316.34.488.144 1.902-.731 1.316m-8.285-.098c-1.41-.488 1.172-1.8.781-.242-.05.391-.585.684-.78.242m35.18-.339c-.734-.536-2.34-.633-2.438-1.512 1.364-.34 2.778 0 4.141-.391 2.484-.582 4.824-1.801 7.356-2.289.683-.293-1.122-.047-1.411.051-3.023.535-5.75 2.144-8.867 2.191-.828.391-2.828 0-2.097-1.218 1.023-1.461 2.777-2.145 4.386-2.727 3.117-.977 6.383-1.465 9.598-1.121 1.898.195 3.75.73 5.406 1.656-.828.973-2.336.195-3.215 1.024-3.457 1.558-6.527 4.187-10.425 4.629-.829.046-1.657 0-2.434-.293m-35.715-3.801c-.34-.926-1.512-2.242-.437-3.071 1.07-.293 1.898 1.219 1.414 2.047.191-.781-.684-2.34-1.512-1.461-.535 1.168.73 1.996 1.266 2.825-.243.05-.536-.094-.73-.34m12.766-3.266c-1.024-.387-.535-2.68.633-1.945.878.437.73 2.629-.438 2.14l-.098-.097zm.34.149c-1.219-.051-.582-2.68.437-1.657.441.485.539 1.801-.437 1.657m7.894-1.075c.68-1.363-1.754-.828-1.316-.535-.047-1.265 2.289-.633 1.461.488 0 .098-.145.34-.145.047m8.914-.242c-1.265-.39-.144-2.922.879-1.707.391.293.34 1.563.289 1.465.637-.926-1.508-2.098-1.508-.73-.144.144.977 1.41.34.972m7.895-1.558c.242-.34 1.605-1.024.777-.098-.242.144-.535.195-.777.098m-33.52-.879c.731-.922-1.656-1.508-1.219-.34-1.12-1.219 2.094-1.363 1.266.097 0 .047.05.586-.047.243m33.617-.047c-.879-.781-1.074-2.485 0-3.168 1.215.051 1.508 1.656 1.024 2.535-.196.391-.586.828-1.024.633m-.343-.684c-.973-.777.488-2.875 1.269-1.508.438.68-.051 2.336-1.074 1.801-.098-.097-.145-.195-.195-.293m7.308-2.094c-1.168-.73.926-2.824 1.219-1.218-.145.633-.535-.973-1.07-.242-.344.437-.293 1.265-.149 1.46m-37.902-2.046c-.731-.829 1.312.246.293.195-.098 0-.195-.098-.293-.195m-10.477-.293c-.437-.973 1.95-.973 1.024-2.094-.145-.828-1.559-.684-1.461.144-.633-.925 1.168-1.461 1.508-.484.832.926-.68 1.852-.438 2.484.438.633-.484.098-.633-.05m10.477-.582c-.879-.586-.586-2.536.633-2.438.925.34.925 1.703.39 2.387-.195.293-.781.488-1.023.051m0-.196c-.828-.539-.149-2.047.777-1.851.781.437.488 2.289-.484 2.093-.098-.046-.195-.144-.293-.242m20.023-.097c-1.316-.442 0-2.829.973-1.707.73.632.051 2.73-.973 1.707m.098-.149c-1.461-.633 1.168-2.336 1.023-.633.145.536-.683 1.512-1.023.633m-9.941-.535c-.582-.828-1.704-2.387-.536-3.117.977-.242 1.414 1.363 1.27 1.754.34-1.121-1.852-1.949-1.512-.438 0 .68 1.219 1.508.973 1.801zm23.339-1.754c.293-.242.926-1.754.875-.633-.144.34-.488.633-.875.633m-.488-1.168c-1.023-.633-1.707-2.144-1.023-3.265.976-.633 2 .585 2.047 1.46.097.586-.149.829-.149.098 0-1.266-2.141-1.703-1.945-.144.097.925.875 1.753 1.851 1.753-.195.196-.586.34-.781.098m6.09-4.433c.051-.391 1.266-1.075.73-.243-.144.192-.488.387-.73.243m-46.625-.391c-.977-.582.879-2.047 1.168-1.024-.68-.875-1.313.391-1.168 1.024m24.066-.145c-1.023-.343-.632-2.339.489-2.097 1.023.343 1.074 2.484-.196 2.293l-.144-.051zm.196 0c-1.461-.246.097-2.777.73-1.265.293.484.098 1.945-.73 1.265m21.875-.683c-.778-.684-.828-2.438.343-2.629 1.215.293 1.461 2.387.289 2.875a.64.64 0 0 1-.632-.246m.148-.047c-1.266-.441-.195-3.024.875-1.758.442.637.246 2.293-.875 1.758m-38.832-1.414c.293-1.266-1.605-.293-1.461-.098-.144-1.363 2.387-.879 1.656.391-.144.144-.195-.195-.195-.293m25.141.195c-.098-.586 1.023-1.512.488-.39-.148.144-.293.293-.488.39m-1.071-1.265c-1.074-.391-1.269-2.782.196-2.489 1.07.293 1.656 2.145.535 2.731-.293.097-.586-.047-.731-.242m.047-.247c-1.414-.242-.293-2.875.782-1.609.632.539.339 2.582-.782 1.609m-16.664-.242c-.535-.781-1.215-2.097-.289-2.926.68-.339 1.508 1.512.582.442-1.265-.149-1.168 1.605-.191 2.047.242.191.679.972 0 .535zm-12.761-3.363c-.293-.973 1.312.781.097.051-.05 0-.05-.051-.097-.051m.195-.73c-.828-.731-.977-2.34.047-2.973 1.168-.047 1.558 1.512 1.12 2.387-.195.441-.683 1.023-1.167.586m.191.046c-.828-.535-1.02-2.238.102-2.48.972.094 1.07 1.461.582 2.141a.85.85 0 0 1-.684.339m36.055-1.847c.242-.293.926-1.805.976-.735-.148.391-.488.782-.976.735m-.973-1.563c-.781-.73-1.172-2.238-.195-2.969 1.07-.195 1.754 1.024 1.801 1.997.246.828-1.024 2.093-1.606.972m.145-.047c-1.121-.488-.828-3.117.633-2.242.878.488.976 2.68-.34 2.485l-.149-.094zm-11.887-2.679c-1.219-.34-.828-2.973.535-2.047.684.488.731 2.484-.535 2.047m-18.711-.243c-.875-.585-.34-2.582.879-2.144.828.586.438 2.68-.781 2.242-.047 0-.098-.051-.098-.098m18.711.047c-1.512-.293.195-2.875.777-1.218.246.488 0 1.804-.777 1.218m-18.613-.047c-1.215-.585.539-2.828.976-1.316.145.586-.246 1.656-.976 1.316m11.011-.539c-1.316-.437-.195-3.066.782-1.8.34.632.047.488-.246.097-1.508-.34-1.071 2.387.343 1.754.438.242-1.023.438-.879-.051m7.36-6.285c1.117-.777-1.074-2.824-1.219-1.312.098.34.484 1.363-.195.679-.731-.972 1.023-2.289 1.508-1.019.246.484.539 1.312-.094 1.652m-13.742-1.801c-1.168-.339-.535-2.777.632-1.949.926.489.633 2.922-.632 1.949m.246.149c-1.367-.195-.196-2.875.633-1.465.293.535.293 1.805-.633 1.465m5.894-4.145c-1.265-.386-.39-2.921.731-1.949.242.344.633 1.465.242.488-.828-.828-1.996.586-.973 1.219.145.098.34.586 0 .242"/><path fill="#ffc13f" d="M103.816 168.859c-1.511-.339.536-2.582.778-.875.195.485-.196 1.606-.778.875m-8.625-.293c-.535-1.265 1.95-.046.684.391-.246-.047-.488-.195-.684-.391m-.242-4.722c-1.172-.149-.441-2.489.535-1.66.535.441.489 2.242-.535 1.66m13.008-2.438c-1.512-.246.438-2.679.777-1.023.196.488-.097 1.754-.777 1.023m7.16-.246c-1.461-.535 1.074-2.387.781-.633 0 .391-.39 1.075-.781.633m-24.945-.68c-1.121-.632 1.172-1.609.684-.339.05.386-.587.925-.684.339m34.836-.292c-1.41-.586.976-2.485.976-.731.145.488-.488 1.512-.976.731m-26.602-2.047c-1.312-.293.73-2.145.73-.731.345.438-.437 1.61-.73.731m34.301-.778c-.633-.586-.344-2.242.633-2.097 1.023.39.586 2.535-.586 2.097zm7.309-2.386c-1.219-.879 1.605-1.856.875-.391-.098.34-.582.875-.875.391m-48.188-2.875c-1.312-.149-.34-2.829.54-1.512.241.535.144 1.461-.54 1.512m10.137-.149c-.926-.535.195-2.387.973-1.605.488.582-.047 2.289-.973 1.605m20.168-.34c-1.461-.683 1.269-2.144.926-.437.097.484-.731 1.312-.926.437m-10.328-1.511c-1.508-.293.488-2.727.781-1.024.195.488-.098 1.754-.781 1.024m22.851-2.387c-1.023-.488-.73-3.02.633-2.094.828.535.875 2.484-.391 2.289l-.097-.051zm-39.855-3.945c-1.168-.684 1.172-2.192.926-.586.05.437-.583 1.218-.926.586m23.875-.684c-1.461-.34.633-2.531.828-.926.293.488-.246 1.805-.828.926m22.312-.438c-.828-.293-.925-1.996.051-2.144.973.098 1.07 2.144-.051 2.144m-40-.73c-1.316-.73 1.27-2.145.879-.586.047.441-.586 1.219-.879.586m25.192-2.047c-.977-.144-.926-1.801 0-1.949.925.098 1.363 1.902.34 2.098a.43.43 0 0 1-.34-.149m-16.957-1.266c-1.461-.441.781-2.437.879-.828.195.489-.391 1.606-.879.828m-12.473-3.46c-1.168-.582.098-2.969.977-1.657.386.633 0 2.242-.977 1.657m35.469-3.165c-1.121-.488-.586-3.07.683-2.046.828.535.828 2.531-.437 2.242l-.102-.102zm-30.449-2.925c-1.317-.535.73-2.727.925-1.071.047.489-.293 1.364-.925 1.071m18.464-.047c-1.461-.488.926-2.391.926-.781.195.488-.437 1.558-.926.781m-7.113-.293c-1.512-.098-.144-2.926.488-1.219.196.438.145 1.219-.488 1.219m6.137-6.871c-1.461-.731 1.219-2.192 1.023-.535.196.632-.777 1.414-1.023.535m-12.813-1.461c-1.507-.34.684-2.531.828-.875.149.437-.339 1.703-.828.875m6.188-4.043c-1.512-.438.781-2.485.879-.828.144.437-.391 1.605-.879.828"/><path d="M209.809 196.316c-2.289-1.414-4.383-4.093-4.383-5.652 0-.926.828-2.242 2.582-4.094 1.41-1.507 3.117-3.797 3.75-5.113l1.121-2.387-1.363-2.73c-.782-1.512-1.903-4.383-2.485-6.43-6.383-20.758-12.914-28.355-35.226-40.828-6.965-3.848-9.403-5.75-11.012-8.281-1.508-2.535-1.508-5.117.148-7.504 4.774-7.067 24.067-6.188 40.094 1.801 11.742 5.8 20.32 14.129 24.75 24.019 5.07 11.156 6.285 22.801 3.363 31.719-1.121 3.41-4.531 8.477-6.675 9.891-1.461.972-1.95 1.753-2.68 4.531-1.363 5.015-4.188 10.328-5.992 11.254-1.996 1.023-4.09.972-5.992-.196m5.554-4.386c-.586-1.071-.437-1.657.977-4.434 2.191-4.336 4.527-11.84 5.551-17.781 4.386-25.774-14.664-49.988-43.313-55.004-2.484-.441-5.699-.781-7.113-.781-1.949 0-2.629-.242-3.02-1.024-.488-.926-.34-1.07 1.414-1.558 2.875-.828 11.352-.684 16.223.242 15.199 2.875 28.941 11.351 36.297 22.461 10.621 15.933 11.012 37.808.781 44.871-1.851 1.269-2.242 1.949-3.461 5.848-1.219 3.945-3.07 8.332-3.554 8.332-.051 0-.442-.536-.782-1.172m-4.093-2.778-1.704-.73 1.801-2.289c.926-1.266 2.145-3.36 2.633-4.676.926-2.34.926-2.34-.684-6.141-.828-2.093-2.289-6.187-3.214-9.011-3.657-11.45-7.067-17.344-13.739-24.02-5.164-5.164-8.625-7.601-19.343-13.789-8.625-4.922-11.645-6.965-12.036-8.039-.144-.34.735-1.605 1.903-2.871l2.144-2.242 4.09.34c12.035 1.023 24.02 6.136 32.547 13.984 6.969 6.43 11.496 13.785 13.887 22.555 1.363 5.019 1.656 16.468.535 21.097-1.754 7.16-4.094 13.059-6.141 15.446-.926 1.019-1.121 1.07-2.679.386"/><path fill="#f5a701" d="M212.586 197.438c.391-.149.828-.098 1.023.046.145.196-.144.293-.683.293-.633-.047-.731-.144-.34-.339m-5.406-2.875-1.512-1.708 1.703 1.512c.93.875 1.66 1.61 1.66 1.703 0 .391-.39.051-1.851-1.507m10.472.097c.196-.246.438-.488.586-.488.145 0 .098.242-.05.488-.196.293-.438.535-.583.535-.148 0-.148-.242.047-.535m-2.289-2.73c-.586-1.071-.437-1.657.977-4.434 2.191-4.336 4.527-11.84 5.551-17.781 4.386-25.774-14.664-49.988-43.313-55.004-2.484-.441-5.699-.781-7.113-.781-1.949 0-2.629-.242-3.02-1.024-.488-.926-.34-1.07 1.414-1.558 2.875-.828 11.352-.684 16.223.242 15.199 2.875 28.941 11.351 36.297 22.461 10.621 15.933 11.012 37.808.781 44.871-1.851 1.269-2.242 1.949-3.461 5.848-1.219 3.945-3.07 8.332-3.554 8.332-.051 0-.442-.536-.782-1.172m-.828-4.871c.973-1.61 2.145-4.09 2.629-5.504.488-1.414.977-2.485 1.074-2.34.633.586-3.754 9.746-4.968 10.523-.293.149.293-1.023 1.265-2.679m5.992 1.902c0-.391.149-.539.34-.344a.47.47 0 0 1 0 .684c-.191.195-.34.047-.34-.34m-10.668-.488c-.148-.246.145-.782.633-1.168.828-.637.828-.586.242.144-.586.731-.586.926 0 1.168.438.149.489.246.051.293-.344 0-.781-.144-.926-.437m-2.097-2.145c1.121-1.121 2.144-2.047 2.293-2.047.144 0-.684.926-1.805 2.047-1.121 1.168-2.145 2.094-2.289 2.094-.148 0 .68-.926 1.801-2.094m13.254 1.07c0-.386.195-.535.39-.339a.477.477 0 0 1 0 .683c-.195.196-.39.047-.39-.344m-9.114-2.093c.196-.293.442-.535.586-.535.149 0 .149.242-.047.535-.195.293-.437.535-.586.535-.144 0-.097-.242.047-.535m1.368-2.094c.73-1.609.972-1.902.972-1.219 0 .293-.34.977-.777 1.512-.781.973-.781.926-.195-.293m8.816.535c0-.391.148-.535.344-.34a.475.475 0 0 1 0 .68c-.196.195-.344.051-.344-.34m1.805-2.633c.195-.242.437-.484.582-.484.148 0 .148.242-.047.484-.196.293-.438.539-.586.539-.145 0-.098-.246.051-.539m-9.649-.484c0-.391.196-.535.391-.344a.595.595 0 0 1 0 .684c-.195.195-.391.051-.391-.34m.391-2.047c-.195-.879-.149-1.07.242-.684.293.293.438.829.344 1.219-.149.391-.391.149-.586-.535m3.898-.586c0-.437.196-1.363.438-2.094.34-1.023.39-1.074.437-.246 0 .586-.195 1.512-.437 2.098-.293.633-.438.73-.438.242m9.012-.484c.195-.293.437-.539.586-.539.144 0 .098.246-.051.539-.195.242-.437.484-.582.484-.148 0-.098-.242.047-.484m-13.98-1.367c-.54-1.266-.391-1.606.242-.582.293.535.437 1.07.293 1.214-.098.149-.391-.144-.535-.632m15.05-.243c.149-.246.442-.488.539-.488.145 0 .145.242-.05.488-.145.293-.438.536-.582.536-.149 0-.098-.243.093-.536m-9.156-2.047c0-.39.191-.535.387-.339.148.144.148.488 0 .679-.196.196-.387.051-.387-.34m-9.891-1.07c0-.39.145-.539.34-.344a.47.47 0 0 1 0 .684c-.195.195-.34.051-.34-.34m2.629 0c0-.39.149-.539.344-.344a.48.48 0 0 1 0 .684c-.195.195-.344.051-.344-.34m7.895-1.558c0-.735.098-1.024.242-.633.148.34.148.922 0 1.312-.144.34-.242.051-.242-.679m-8.43 0c0-.391.149-.539.344-.344a.48.48 0 0 1 0 .683c-.195.196-.344.047-.344-.339m-.535-1.563c0-.387.145-.535.34-.34.195.196.195.489 0 .684s-.34.047-.34-.344m-3.117-1.559c0-.386.144-.535.34-.339a.47.47 0 0 1 0 .683c-.196.196-.34.047-.34-.344m2.629 0c0-.386.148-.535.343-.339a.477.477 0 0 1 0 .683c-.195.196-.343.047-.343-.344m10.086-4.433c0-2.871.047-3.945.195-2.434.098 1.508.098 3.848 0 5.211-.148 1.317-.195.098-.195-2.777m11.3 3.605c0-.582.149-.73.293-.293.149.344.149.832 0 .977-.195.195-.339-.145-.293-.684m-21.921-.73c0-.391.144-.535.339-.34a.47.47 0 0 1 0 .684c-.195.195-.339.047-.339-.344m-2.633-.535c0-.391.195-.535.39-.34a.57.57 0 0 1 0 .68c-.195.195-.39.05-.39-.34m2.144-1.317c.051-.632.149-.73.293-.34.196.391.149.829 0 1.024-.195.144-.293-.149-.293-.684m-2.629-.242c0-.39.145-.535.34-.34a.467.467 0 0 1 0 .68c-.195.195-.34.051-.34-.34m25.625-.781c0-.875.098-1.117.246-.633.145.488.145 1.219 0 1.559-.148.343-.246-.047-.246-.926m-24.066-1.801c0-.391.145-.535.34-.344.195.149.195.489 0 .684s-.34.051-.34-.34m-.535-1.558c0-.391.144-.536.34-.391a.53.53 0 0 1 0 .73c-.196.196-.34 0-.34-.339m-.977-2.387c-.828-1.903-.679-2.34.242-.586.442.828.735 1.558.586 1.707-.097.094-.488-.391-.828-1.121m25.578-1.024c0-.879.098-1.121.246-.632.145.484.145 1.214 0 1.558-.148.34-.246-.051-.246-.926m-12.519-.246c0-.73.098-1.019.242-.679.148.386.148.972 0 1.312-.144.344-.242.051-.242-.633m-16.227 0c0-.386.149-.535.344-.34.195.196.195.489 0 .684s-.344.047-.344-.344m15.641-2.922c.051-.586.144-.73.34-.293.148.34.097.829-.047.977-.195.191-.293-.148-.293-.684m-15.152-1.265c-.293-.586-.438-1.024-.293-1.024.148 0 .539.438.828 1.024.293.582.441 1.07.293 1.07-.145 0-.489-.488-.828-1.07m27.671.242c0-.633.149-.731.293-.34.149.391.149.828 0 1.024-.195.144-.339-.149-.293-.684m-13.007-1.07c0-.586.148-.735.293-.293.148.34.148.828-.047.972-.149.196-.293-.097-.246-.679m-16.028-1.317c-.195-.39-.097-.488.242-.246.344.195.633.488.633.586 0 .438-.484.242-.875-.34m15.446-.437c0-.391.144-.539.339-.344.196.148.196.488 0 .684-.195.195-.339.046-.339-.34m-19.051-.633c-.242-.344-.145-.441.195-.195.633.339.828.828.391.828-.149 0-.391-.293-.586-.633m2.582-.488c-.242-.391-.145-.489.246-.246.582.39.777.828.34.828-.098 0-.391-.289-.586-.582m-4.434-1.903c-.633-.828-.633-.828.196-.191.878.68 1.121 1.117.73 1.117-.144 0-.535-.387-.926-.926m2.582-.484c-.633-.828-.633-.879.196-.246.879.683 1.168 1.121.73 1.121-.098 0-.535-.391-.926-.875m17.102.098c-.535-1.317-.391-1.657.242-.586.293.488.438 1.023.293 1.168-.145.148-.391-.145-.535-.582m13.203-.247c0-.386.145-.535.34-.339a.467.467 0 0 1 0 .679c-.195.196-.34.051-.34-.34m-.535-1.558c0-.391.144-.535.34-.34a.47.47 0 0 1 0 .68c-.196.195-.34.051-.34-.34m-33.617-2.727-2.582-2.777 2.726 2.629c2.535 2.387 2.973 2.875 2.582 2.875-.097 0-1.312-1.266-2.726-2.727m18.757.098c-.195-.344-.246-.684-.097-.828.144-.149.387.098.535.535.391.926.098 1.121-.438.293m-24.019-1.609c-.195-.391-.098-.489.242-.243.344.196.633.485.633.582 0 .442-.484.247-.875-.339m22.945-.536c-.242-.39-.144-.488.246-.246.34.196.582.489.582.586 0 .438-.437.242-.828-.34m-25.285-1.367c-.633-.828-.633-.828.195-.191.875.68 1.168 1.121.731 1.121-.145 0-.535-.441-.926-.93m2.875-.777-.976-1.168 1.171.973c.633.586 1.168 1.074 1.168 1.168 0 .441-.437.148-1.363-.973m21.387.586c-.242-.391-.145-.488.195-.246.633.39.828.828.391.828-.145 0-.391-.242-.586-.582m-26.063-1.074c-.246-.34-.148-.438.242-.196.293.196.586.442.586.586 0 .438-.437.242-.828-.39m24.75-.828c-.683-.829-.633-.829.196-.196.828.684 1.117 1.121.679 1.121-.097 0-.484-.39-.875-.925m-26.308-.196c-.246-.387-.149-.437.242-.242.293.195.586.488.586.633 0 .437-.488.195-.828-.391m4.14 0c-.195-.387-.148-.437.243-.242.339.195.585.488.585.633 0 .437-.437.195-.828-.391m-2.047-1.558c-.246-.387-.144-.489.196-.243.34.196.633.489.633.633 0 .391-.489.196-.829-.39m19.536-3.457-3.36-3.508 3.508 3.359c1.949 1.852 3.555 3.461 3.555 3.559 0 .34-.535-.149-3.703-3.41m17.445 1.898c-.246-.391-.149-.488.242-.242.293.195.582.484.582.586 0 .437-.437.242-.824-.344m-44.824-.535c-.246-.391-.149-.438.242-.242.34.242.586.484.586.632 0 .438-.442.196-.828-.39m4.187-.195c-.972-.782-.972-.782.149-.243.679.293 1.168.68 1.168.778 0 .437-.243.293-1.317-.535m-2.582-1.559c-.972-.781-.972-.781.149-.242.632.293 1.168.679 1.168.777 0 .438-.293.293-1.317-.535m40.344-1.656c-.684-.828-.637-.879.191-.196.879.684 1.121 1.071.684 1.071-.098 0-.488-.387-.875-.875m-43.996-.438c-.977-.781-.977-.781.144-.246.633.293 1.172.684 1.172.828 0 .391-.246.246-1.316-.582m24.457-1.949-.973-1.172 1.168 1.024c1.07.925 1.414 1.367.973 1.367-.098 0-.633-.539-1.168-1.219m-28.11-.148c-.976-.778-.976-.778.145-.243.633.34 1.168.684 1.168.828 0 .391-.242.293-1.313-.585m26.016-1.364c-.195-.34-.148-.437.242-.195.34.195.586.437.586.586 0 .437-.437.242-.828-.391m-34.641-1.316c-.683-.828-.632-.875.196-.195.875.683 1.121 1.074.679 1.074-.097 0-.484-.391-.875-.879m4.434.293c-.242-.391-.148-.438.242-.242.293.195.586.488.586.632 0 .438-.437.196-.828-.39m28.649 0c-.247-.391-.149-.438.242-.242.34.195.586.488.586.632 0 .438-.442.196-.828-.39m-30.208-1.024c-.246-.39-.148-.488.243-.242.293.196.586.488.586.582 0 .442-.489.246-.829-.34m24.016-2.093c-2.285-1.121-3.601-1.903-2.871-1.707 1.559.441 7.309 3.265 7.309 3.605 0 .344.386.488-4.438-1.898m22.609 1.265c-.683-.828-.632-.875.196-.242.875.68 1.121 1.121.679 1.121-.097 0-.484-.39-.875-.879m-48.964-1.07-1.266-1.414 1.41 1.266c1.367 1.171 1.707 1.609 1.27 1.609-.098 0-.731-.684-1.414-1.461m-2.875.34c-.243-.391-.145-.488.246-.242.289.195.582.488.582.582 0 .441-.438.246-.828-.34m49.5-1.071c-.243-.39-.145-.441.246-.246.289.246.582.489.582.633 0 .442-.438.196-.828-.387m-25.578-1.804a.47.47 0 0 1 .683 0c.195.148.047.344-.344.344-.386 0-.535-.196-.339-.344m-20.219-.731c.144-.293.437-.484.586-.484.144 0 .097.191-.051.484-.195.293-.484.535-.582.535-.149 0-.149-.242.047-.535m18.66.196a.47.47 0 0 1 .684 0c.195.195.046.339-.344.339-.391 0-.535-.144-.34-.339m-1.852-.536c.391-.144.828-.144 1.024.047.144.149-.145.293-.684.246-.633 0-.73-.148-.34-.293m24.313-.246c-.246-.386-.149-.484.195-.242.34.196.633.488.633.633 0 .391-.488.195-.828-.391m-26.36-.289c.34-.148.829-.097.977.047.191.196-.148.293-.684.293-.585-.051-.73-.144-.293-.34m-2.093-.488c.39-.144.828-.144.972 0 .196.195-.097.34-.679.293-.586 0-.731-.148-.293-.293m-10.914-.879c.242-.242 1.707-.34 3.265-.242l2.778.144-3.215.293c-1.805.149-3.071.051-2.828-.195m7.504.344c.488-.149 1.218-.149 1.558 0 .34.144-.051.242-.926.242-.879 0-1.168-.098-.632-.242m-13.45-2.777c.196-.293.442-.536.586-.536.149 0 .149.243-.047.536-.195.293-.437.535-.586.535-.144 0-.097-.242.047-.535m33.813-1.368a.48.48 0 0 1 .683 0c.196.149.047.344-.339.344-.391 0-.539-.195-.344-.344m-1.559-.535c.149-.191.489-.191.684 0 .195.196.047.344-.344.344-.387 0-.535-.148-.34-.344m-29.621-.679c.145-.293.438-.536.586-.536.145 0 .098.243-.098.536-.148.242-.437.488-.585.488-.098 0-.098-.246.097-.488m28.016.144a.53.53 0 0 1 .73 0c.196.195 0 .344-.343.344-.387 0-.536-.149-.387-.344m-6.238-1.559a.47.47 0 0 1 .683 0c.195.196.047.34-.344.34-.386 0-.535-.144-.339-.34m-17.2-.535c.196-.195.535-.195.684 0 .195.196.047.34-.34.34-.391 0-.535-.144-.344-.34m14.325 0c.39-.144.828-.144 1.023.047.148.195-.145.293-.68.293-.636-.047-.73-.144-.343-.34m-11.254-.535c.535-.098 1.363-.098 1.851 0 .488.145.098.242-.926.242-.972 0-1.414-.097-.925-.242m6.043 0c.632-.098 1.558-.098 2.043 0 .539.145 0 .242-1.168.242-1.122 0-1.559-.097-.875-.242"/><path fill="#fcd900" d="m211.27 188.863-1.168-.586 1.851-2.484c.973-1.363 2.145-3.461 2.582-4.727.778-2.093.731-2.339-.437-4.871-.684-1.414-2.34-5.992-3.703-10.183-6.141-18.61-13.352-26.649-34.692-38.586-3.797-2.145-7.793-4.68-8.914-5.606l-2.047-1.75 2.098-2.097 2.14-2.145 4.532.344c8.332.633 19.683 4.578 26.457 9.258 3.703 2.531 9.984 8.672 12.472 12.179 2.872 4.141 5.602 9.985 6.821 14.86 1.461 5.75 1.363 18.125-.149 23.187-1.558 5.168-2.968 8.774-4.578 11.453-1.461 2.532-1.512 2.582-3.265 1.754"/></g><path fill="#bc9a16" d="M1 150.773c0-68.597 90.55-70.867 170.078-70.867 79.527 0 170.078 2.27 170.078 70.867 0-15.656-76.144-28.347-170.078-28.347C77.148 122.426 1 135.117 1 150.773"/><path fill="none" stroke="#000" stroke-linecap="round" stroke-linejoin="round" stroke-width="2" d="M1 150.773c0-68.597 90.55-70.867 170.078-70.867 79.527 0 170.078 2.27 170.078 70.867 0-15.656-76.144-28.347-170.078-28.347C77.148 122.426 1 135.117 1 150.773"/><path fill="#d3ae37" d="M902.57 71.871c0 15.656-76.148 28.348-170.078 28.348-93.933 0-170.082-12.692-170.082-28.348 0-15.652 76.149-28.344 170.082-28.344 93.93 0 170.078 12.692 170.078 28.344"/><path fill="none" stroke="#000" stroke-linecap="round" stroke-linejoin="round" stroke-width="2" d="M902.57 71.871c0 15.656-76.148 28.348-170.078 28.348-93.933 0-170.082-12.692-170.082-28.348 0-15.652 76.149-28.344 170.082-28.344 93.93 0 170.078 12.692 170.078 28.344M732.492 298.645 893.898 80.832M732.492 298.645 678.73 98.773m53.762 199.872L581.395 58.844m151.097 239.801v19.839"/><g fill-rule="evenodd"><path fill="#88d055" d="M724.563 106.422c-.754-.621 1.328-.621.972-1.508 1.375-3.23 2.703-6.555 3.278-10.05 2.171-11.208-.575-23.298-7.528-32.38-7-9.566-17.629-16.609-29.363-18.558-10.723-1.86-22.016.664-31.227 6.379-2.304 1.418-4.472 3.011-6.554 4.738 6.464-7.309 15.898-11.559 25.464-12.621 13.997-1.594 28.704 2.965 38.977 12.668 7 6.554 11.828 15.5 12.801 25.066.844 7.707.047 15.813-3.453 22.766a22 22 0 0 1-2.528 3.855c-.351.133-.574-.222-.839-.355"/><path fill="#b9f88c" d="M724.34 106.156c-.93-.355-2.434-1.105-1.949-2.39 2.968-5.938 4.211-12.668 4.078-19.313-.18-6.246-1.641-12.621-5.141-17.894-4.074-6.243-10.23-10.985-17.094-13.774-9.836-4.254-21.039-5.668-31.492-3.054-6.512 1.636-12.801 4.78-17.273 9.921-.797.84-1.418 1.813-1.949 2.88-.399 1.238-1.727 1.28-2.657.484-1.375-.575-.843-2.125-.09-3.012 1.95-3.809 5.18-6.863 8.903-9.035 6.203-3.942 13.289-6.688 20.64-7.395 7.575-.843 15.368.399 22.278 3.63 12.094 5.491 21.836 16.3 25.511 29.144 2.614 9.39 1.551 19.62-2.523 28.433-.223.578-.488 1.375-1.242 1.375"/><path d="M723.41 108.461c-5.094-1.684-9.344-5.051-14.172-7.266-20.019-10.851-39.375-22.765-58.375-35.21-1.64-1.153-3.414-2.747-3.414-4.872.137-2.613 1.949-4.695 3.457-6.691 5.891-7.172 14.438-11.781 23.43-13.816 8.328-1.86 17.051-.977 25.246 1.152 9.481 2.566 18.469 7.75 24.758 15.367 7.754 9.48 11.34 22.191 9.703 34.328-.578 4.828-1.906 9.699-4.52 13.817-1.195 1.726-3.011 3.41-5.269 3.367-.266-.043-.578-.09-.844-.176m1.285-1.949c-.886-.664-2.523-.977-2.48-2.348.223-.844.797-1.594 1.062-2.437 4.075-9.743 4.297-21.172.223-30.961-2.437-5.625-6.687-10.364-11.738-13.774-8.196-5.625-18.203-8.281-28.078-8.37-7.973-.09-16.168 1.683-22.856 6.155-3.324 2.258-6.156 5.317-7.887 8.95-1.195.043-2.566-.532-2.964-1.73-.09-1.106.796-1.95 1.238-2.923 4.297-7.086 11.515-12.09 19.355-14.66 15.86-5.184 34.282-1.418 46.864 9.566 6.066 5.317 10.629 12.36 12.796 20.11 1.461 5.316 1.731 10.894 1.243 16.387-.532 4.87-1.86 9.746-4.43 13.996-.707.664-.797 2.125-1.949 2.215-.176.042-.266-.133-.399-.176m-4.785-2.793c-17.359-8.903-33.926-19.223-50.844-28.832-5.492-3.278-10.894-6.778-15.812-10.809 2.879-5.668 8.324-9.7 14.219-11.867 9.656-3.5 20.418-3.414 30.293-.754 7.75 2.082 15.191 5.977 20.464 12.09 3.321 3.898 5.223 8.77 6.157 13.777 1.461 7.438 1.418 15.41-1.285 22.586-.446 1.242-1.063 2.395-1.731 3.543-.308.488-1.016.754-1.461.266m-2.922-13.153c-1.242-.754-.043-2.968 1.285-2.527 1.063.445.84 1.996-.132 2.395-.356.175-.754.265-1.153.132m-10.273-10.675c-1.11-.442-.621-2.082.351-2.434 1.11-.355 2.039 1.063 1.375 1.992-.312.664-1.152.93-1.726.442m10.008-.133c-1.196-.84-.309-2.79.972-2.969 1.153-.219 2.215 1.2 1.508 2.215-.531.797-1.64.887-2.48.754m-21.172-7.617c-.883-1.239.312-3.368 1.816-3.102 1.242.445.977 2.172.043 2.793-.484.399-1.238.617-1.859.309m10.941-2.614c-1.062-.886-.265-2.347.356-3.187.707-.977 2.433-.754 2.699.398.223 1.063-.531 2.035-1.328 2.614-.489.351-1.196.441-1.727.175m-24.672-3.543c-1.371-.578-1.062-3.101.446-3.191 1.636.133 1.812 2.969.218 3.324-.218.043-.488 0-.664-.133m-13.019-1.593c-1.328-.446-1.774-2.57-.488-3.325 1.152-.441 2.125.977 2.039 2.04.043.753-.754 1.902-1.551 1.285m22.277-4.477c-1.508-.973-.355-3.762 1.418-3.41 1.238.266 1.238 1.996.488 2.793-.398.574-1.242 1.02-1.906.617m-16.387-1.945c-1.461-.711-1.195-3.414.489-3.633 1.504 0 2.078 2.082 1.281 3.145-.352.574-1.148.93-1.77.488"/><path fill="#e96c92" d="M719.91 103.719c-17.359-8.903-33.926-19.223-50.844-28.832-5.492-3.278-10.894-6.778-15.812-10.809 2.879-5.668 8.324-9.7 14.219-11.867 9.656-3.5 20.418-3.414 30.293-.754 7.75 2.082 15.191 5.977 20.464 12.09 3.321 3.898 5.223 8.77 6.157 13.777 1.461 7.438 1.418 15.41-1.285 22.586-.446 1.242-1.063 2.395-1.731 3.543-.308.488-1.016.754-1.461.266m-2.922-13.153c-1.242-.754-.043-2.968 1.285-2.527 1.063.445.84 1.996-.132 2.395-.356.175-.754.265-1.153.132m-10.273-10.675c-1.11-.442-.621-2.082.351-2.434 1.11-.355 2.039 1.063 1.375 1.992-.312.664-1.152.93-1.726.442m10.008-.133c-1.196-.84-.309-2.79.972-2.969 1.153-.219 2.215 1.2 1.508 2.215-.531.797-1.64.887-2.48.754m-21.172-7.617c-.883-1.239.312-3.368 1.816-3.102 1.242.445.977 2.172.043 2.793-.484.399-1.238.617-1.859.309m10.941-2.614c-1.062-.886-.265-2.347.356-3.187.707-.977 2.433-.754 2.699.398.223 1.063-.531 2.035-1.328 2.614-.489.351-1.196.441-1.727.175m-24.672-3.543c-1.371-.578-1.062-3.101.446-3.191 1.636.133 1.812 2.969.218 3.324-.218.043-.488 0-.664-.133m-13.019-1.593c-1.328-.446-1.774-2.57-.488-3.325 1.152-.441 2.125.977 2.039 2.04.043.753-.754 1.902-1.551 1.285m22.277-4.477c-1.508-.973-.355-3.762 1.418-3.41 1.238.266 1.238 1.996.488 2.793-.398.574-1.242 1.02-1.906.617m-16.387-1.945c-1.461-.711-1.195-3.414.489-3.633 1.504 0 2.078 2.082 1.281 3.145-.352.574-1.148.93-1.77.488"/><path d="M796.734 117.414c-2.289-1.41-4.386-4.094-4.386-5.652 0-.922.828-2.239 2.582-4.09 1.414-1.512 3.121-3.801 3.754-5.117l1.121-2.387-1.367-2.73c-.778-1.508-1.899-4.383-2.485-6.43-6.383-20.754-12.91-28.356-35.223-40.828-6.968-3.848-9.402-5.75-11.011-8.282-1.512-2.535-1.512-5.117.144-7.504 4.778-7.062 24.071-6.187 40.098 1.805 11.742 5.797 20.316 14.13 24.75 24.02 5.066 11.156 6.285 22.8 3.363 31.715-1.121 3.41-4.531 8.476-6.676 9.89-1.46.977-1.949 1.754-2.679 4.531-1.364 5.016-4.192 10.329-5.992 11.254-1.997 1.024-4.094.977-5.993-.195m5.555-4.383c-.586-1.074-.437-1.66.973-4.433 2.191-4.336 4.531-11.84 5.554-17.785 4.387-25.774-14.664-49.985-43.312-55.004-2.484-.442-5.699-.782-7.113-.782-1.95 0-2.629-.242-3.02-1.023-.488-.926-.344-1.07 1.41-1.559 2.875-.828 11.356-.68 16.227.246 15.199 2.871 28.937 11.352 36.297 22.457 10.621 15.934 11.011 37.809.777 44.875-1.852 1.266-2.238 1.946-3.457 5.844-1.219 3.946-3.07 8.332-3.559 8.332-.046 0-.437-.535-.777-1.168m-4.094-2.777-1.707-.731 1.805-2.293c.926-1.265 2.145-3.359 2.633-4.675.926-2.336.926-2.336-.684-6.14-.828-2.095-2.289-6.188-3.215-9.013-3.656-11.449-7.066-17.343-13.742-24.02-5.164-5.163-8.621-7.6-19.34-13.788-8.625-4.918-11.644-6.965-12.035-8.04-.144-.34.731-1.605 1.903-2.87l2.14-2.243 4.094.34c12.035 1.024 24.019 6.14 32.547 13.985 6.965 6.43 11.496 13.785 13.883 22.558 1.367 5.016 1.656 16.465.539 21.094-1.754 7.164-4.094 13.059-6.141 15.445-.926 1.024-1.121 1.071-2.68.391"/><path fill="#f5a701" d="M799.512 118.535c.39-.144.828-.097 1.023.051.145.191-.148.289-.683.289-.633-.047-.731-.145-.34-.34m-5.41-2.875-1.508-1.703 1.703 1.508c.926.879 1.656 1.609 1.656 1.707 0 .391-.387.047-1.851-1.512m10.476.098c.195-.242.438-.488.586-.488.145 0 .098.246-.051.488-.195.293-.437.535-.586.535-.144 0-.144-.242.051-.535m-2.289-2.727c-.586-1.074-.437-1.66.973-4.433 2.191-4.336 4.531-11.84 5.554-17.785 4.387-25.774-14.664-49.985-43.312-55.004-2.484-.442-5.699-.782-7.113-.782-1.95 0-2.629-.242-3.02-1.023-.488-.926-.344-1.07 1.41-1.559 2.875-.828 11.356-.68 16.227.246 15.199 2.871 28.937 11.352 36.297 22.457 10.621 15.934 11.011 37.809.777 44.875-1.852 1.266-2.238 1.946-3.457 5.844-1.219 3.946-3.07 8.332-3.559 8.332-.046 0-.437-.535-.777-1.168m-.828-4.875c.973-1.605 2.144-4.09 2.629-5.504.488-1.414.976-2.484 1.074-2.339.633.585-3.754 9.746-4.973 10.527-.289.144.293-1.027 1.27-2.684m5.992 1.903c0-.391.145-.536.34-.34a.467.467 0 0 1 0 .679c-.195.196-.34.051-.34-.339m-10.672-.489c-.144-.242.149-.781.637-1.168.824-.632.824-.586.242.145-.586.73-.586.926 0 1.172.438.144.488.242.047.289-.34 0-.777-.145-.926-.438m-2.093-2.144c1.121-1.121 2.144-2.043 2.289-2.043.148 0-.68.922-1.801 2.043-1.121 1.172-2.145 2.097-2.289 2.097-.149 0 .679-.925 1.801-2.097m13.253 1.074c0-.391.192-.535.387-.344.195.196.195.489 0 .684s-.387.051-.387-.34m-9.113-2.098c.195-.293.442-.535.586-.535.145 0 .145.242-.051.535-.191.293-.437.539-.582.539-.148 0-.097-.246.047-.539m1.363-2.093c.735-1.61.977-1.899.977-1.219 0 .293-.34.976-.781 1.512-.778.972-.778.925-.196-.293m8.821.535c0-.391.144-.535.34-.34a.473.473 0 0 1 0 .684c-.196.195-.34.046-.34-.344m1.801-2.629c.195-.246.441-.488.585-.488.149 0 .149.242-.046.488-.196.293-.442.535-.586.535-.149 0-.098-.242.047-.535m-9.645-.488c0-.391.195-.536.391-.34a.59.59 0 0 1 0 .679c-.196.196-.391.051-.391-.339m.391-2.047c-.196-.875-.149-1.07.242-.684.293.293.437.832.34 1.223-.145.386-.387.144-.582-.54m3.894-.586c0-.438.195-1.363.442-2.094.339-1.023.386-1.07.437-.242 0 .586-.195 1.511-.437 2.094-.293.632-.442.73-.442.242m9.016-.485c.195-.293.437-.535.586-.535.144 0 .093.242-.051.535-.195.243-.438.485-.582.485-.149 0-.102-.242.047-.485m-13.985-1.367c-.535-1.265-.386-1.605.246-.582.29.535.438 1.07.29 1.219-.094.144-.387-.148-.536-.637M815.539 97c.149-.242.441-.484.535-.484.149 0 .149.242-.047.484-.144.293-.437.535-.586.535-.144 0-.097-.242.098-.535m-9.16-2.047c0-.387.195-.535.391-.34.148.145.148.489 0 .684-.196.191-.391.047-.391-.344m-9.891-1.07c0-.39.149-.535.344-.34a.47.47 0 0 1 0 .68c-.195.195-.344.05-.344-.34m2.633 0c0-.39.149-.535.34-.34a.47.47 0 0 1 0 .68c-.191.195-.34.05-.34-.34m7.895-1.559c0-.73.093-1.023.242-.633.144.34.144.926 0 1.313-.149.344-.242.05-.242-.68m-8.43 0c0-.39.144-.535.34-.343a.473.473 0 0 1 0 .683c-.196.195-.34.05-.34-.34m-.535-1.558c0-.391.144-.54.34-.344a.473.473 0 0 1 0 .684c-.196.195-.34.05-.34-.34m-3.121-1.559c0-.39.148-.539.343-.344a.47.47 0 0 1 0 .684c-.195.195-.343.047-.343-.34m2.633 0c0-.39.144-.539.339-.344a.47.47 0 0 1 0 .684c-.195.195-.339.047-.339-.34m10.085-4.434c0-2.875.047-3.949.196-2.437.097 1.512.097 3.848 0 5.21-.149 1.317-.196.102-.196-2.773m11.301 3.606c0-.586.149-.73.293-.293.149.34.149.828 0 .973-.195.195-.34-.145-.293-.68m-21.922-.73c0-.391.145-.54.34-.344a.47.47 0 0 1 0 .683c-.195.196-.34.047-.34-.34m-2.632-.54c0-.39.195-.535.39-.34a.59.59 0 0 1 0 .684c-.195.195-.39.047-.39-.344m2.144-1.316c.051-.633.145-.73.293-.34.195.39.145.828 0 1.024-.195.144-.293-.145-.293-.684m-2.633-.242c0-.39.149-.535.344-.34a.473.473 0 0 1 0 .683c-.195.192-.344.047-.344-.343m25.629-.778c0-.879.098-1.12.242-.632.149.484.149 1.215 0 1.558-.144.34-.242-.05-.242-.926m-24.066-1.804c0-.39.144-.535.34-.34.195.144.195.484 0 .68-.196.195-.34.05-.34-.34m-.539-1.559c0-.39.148-.535.343-.39a.527.527 0 0 1 0 .73c-.195.195-.343 0-.343-.34m-.973-2.387c-.828-1.902-.684-2.34.242-.585.442.828.731 1.558.586 1.706-.097.098-.488-.39-.828-1.12M819.535 78c0-.879.098-1.121.242-.633.149.485.149 1.219 0 1.559-.144.34-.242-.051-.242-.926m-12.519-.242c0-.73.093-1.024.242-.684.144.39.144.973 0 1.317-.149.34-.242.046-.242-.633m-16.227 0c0-.39.149-.54.344-.344a.48.48 0 0 1 0 .684c-.195.195-.344.046-.344-.34m15.641-2.926c.047-.586.144-.73.34-.293.148.344.097.828-.047.977-.196.195-.293-.149-.293-.684m-15.153-1.266c-.293-.585-.437-1.023-.293-1.023.149 0 .536.438.829 1.023.292.586.441 1.07.292 1.07-.144 0-.488-.484-.828-1.07m27.672.243c0-.633.149-.73.293-.34.149.39.149.828 0 1.023-.195.145-.34-.148-.293-.683m-13.008-1.07c0-.587.149-.731.293-.294.145.34.145.828-.046.973-.149.195-.293-.094-.247-.68m-16.027-1.317c-.195-.39-.098-.488.242-.242.34.195.633.484.633.586 0 .437-.484.242-.875-.344m15.441-.438c0-.39.149-.535.344-.34.196.145.196.485 0 .68-.195.195-.344.051-.344-.34m-19.046-.632c-.246-.344-.149-.442.195-.196.633.34.828.828.391.828-.149 0-.391-.293-.586-.632m2.582-.489c-.246-.39-.149-.488.242-.242.586.387.781.828.344.828-.098 0-.391-.293-.586-.586m-4.434-1.898c-.633-.828-.633-.828.195-.196.875.68 1.121 1.122.731 1.122-.149 0-.535-.391-.926-.926m2.582-.488c-.633-.829-.633-.88.195-.246.875.683 1.168 1.12.731 1.12-.098 0-.535-.386-.926-.874m17.102.097c-.536-1.316-.391-1.656.242-.586.293.489.437 1.024.293 1.168-.149.149-.391-.144-.535-.582m13.203-.242c0-.39.144-.539.34-.344a.473.473 0 0 1 0 .684c-.196.195-.34.047-.34-.34m-.535-1.562c0-.387.144-.536.339-.34a.47.47 0 0 1 0 .683c-.195.192-.339.047-.339-.344m-33.618-2.727-2.586-2.777 2.731 2.632c2.531 2.387 2.973 2.871 2.582 2.871-.098 0-1.316-1.265-2.727-2.726m18.754.098c-.191-.344-.242-.684-.093-.828.144-.149.386.097.535.535.386.925.097 1.12-.442.293m-24.015-1.61c-.196-.386-.102-.488.242-.242.34.195.633.488.633.582 0 .441-.489.246-.875-.34m22.945-.535c-.242-.39-.145-.488.242-.242.344.195.586.484.586.582 0 .441-.437.246-.828-.34m-25.285-1.363c-.633-.828-.633-.828.195-.196.875.68 1.168 1.122.731 1.122-.149 0-.536-.442-.926-.926m2.875-.781-.977-1.168 1.172.972c.633.586 1.168 1.075 1.168 1.172 0 .438-.437.145-1.363-.976m21.387.586c-.243-.391-.145-.489.195-.243.633.387.828.828.391.828-.145 0-.391-.246-.586-.586m-26.067-1.075c-.242-.34-.144-.437.246-.191.293.191.582.437.582.582 0 .441-.437.246-.828-.39m24.75-.828c-.68-.824-.633-.824.195-.191.829.68 1.122 1.12.684 1.12-.098 0-.488-.39-.879-.929m-26.308-.191c-.243-.39-.145-.442.246-.246.289.195.582.488.582.633 0 .44-.485.195-.828-.387m4.14 0c-.191-.39-.144-.442.246-.246.34.195.582.488.582.633 0 .44-.437.195-.828-.387m-2.043-1.563c-.246-.386-.148-.484.196-.242.339.195.632.488.632.633 0 .39-.488.195-.828-.39m19.535-3.457-3.363-3.508 3.508 3.36c1.949 1.855 3.559 3.46 3.559 3.558 0 .34-.536-.144-3.704-3.41m17.442 1.899c-.242-.387-.145-.485.246-.242.289.195.582.488.582.585 0 .438-.438.243-.828-.343m-44.821-.535c-.246-.391-.148-.438.243-.243.34.242.586.485.586.633 0 .438-.442.195-.829-.39m4.188-.196c-.973-.777-.973-.777.148-.242.68.293 1.168.68 1.168.781 0 .438-.246.29-1.316-.539m-2.582-1.558c-.973-.778-.973-.778.144-.243.637.293 1.172.68 1.172.778 0 .441-.293.293-1.316-.535m40.34-1.657c-.68-.828-.633-.875.195-.195.879.684 1.121 1.074.684 1.074-.098 0-.489-.39-.879-.879m-43.992-.437c-.977-.781-.977-.781.144-.246.633.293 1.168.683 1.168.828 0 .39-.242.246-1.312-.582m24.457-1.95-.973-1.167 1.168 1.02c1.07.925 1.41 1.366.973 1.366-.098 0-.633-.535-1.168-1.218m-28.114-.148c-.972-.777-.972-.777.149-.242.633.344 1.168.684 1.168.828 0 .39-.242.293-1.317-.586m26.02-1.363c-.195-.34-.149-.438.242-.195.34.195.582.441.582.586 0 .437-.437.246-.824-.391m-34.641-1.313c-.683-.832-.636-.879.196-.195.875.68 1.117 1.07.679 1.07-.097 0-.484-.39-.875-.875m4.434.29c-.246-.387-.149-.438.242-.243.293.196.586.489.586.633 0 .438-.441.195-.828-.39m28.644 0c-.242-.387-.144-.438.246-.243.34.196.583.489.583.633 0 .438-.438.195-.829-.39m-30.207-1.02c-.242-.39-.144-.488.246-.246.293.195.582.488.582.586 0 .437-.484.242-.828-.34m24.02-2.098c-2.289-1.12-3.606-1.898-2.871-1.703 1.558.438 7.304 3.262 7.304 3.606 0 .34.391.484-4.433-1.903m22.609 1.266c-.683-.828-.636-.875.196-.242.875.683 1.117 1.12.679 1.12-.097 0-.484-.39-.875-.878m-48.965-1.07-1.265-1.414 1.41 1.27c1.363 1.167 1.707 1.605 1.269 1.605-.097 0-.734-.68-1.414-1.461m-2.875.34c-.242-.387-.144-.485.243-.243.293.196.586.489.586.586 0 .438-.438.242-.829-.344m49.5-1.07c-.242-.392-.144-.438.243-.243.293.242.586.484.586.633 0 .437-.438.195-.829-.39m-25.578-1.802a.47.47 0 0 1 .684 0c.191.145.047.34-.344.34s-.535-.195-.34-.34m-20.218-.734c.144-.29.437-.484.585-.484.145 0 .094.195-.05.484-.196.293-.489.539-.586.539-.145 0-.145-.246.051-.539m18.66.195a.467.467 0 0 1 .679 0c.196.196.051.344-.339.344-.391 0-.536-.148-.34-.344m-1.852-.535c.391-.144.828-.144 1.024.05.144.145-.149.29-.684.243-.633 0-.73-.148-.34-.293m24.313-.242c-.246-.39-.149-.488.195-.246.34.195.633.488.633.633 0 .39-.489.195-.828-.387m-26.36-.293c.34-.145.828-.098.973.047.195.195-.145.293-.68.293-.586-.047-.73-.145-.293-.34m-2.093-.488c.386-.145.828-.145.972 0 .195.195-.097.343-.68.293-.585 0-.734-.145-.292-.293m-10.915-.875c.243-.246 1.704-.344 3.262-.246l2.778.148-3.215.29c-1.801.148-3.071.05-2.825-.192m7.504.34c.485-.149 1.215-.149 1.559 0 .34.144-.051.242-.926.242-.879 0-1.172-.098-.633-.242m-13.449-2.778c.195-.293.442-.535.586-.535.145 0 .145.242-.051.535-.191.293-.437.535-.582.535-.148 0-.097-.242.047-.535m33.813-1.363a.47.47 0 0 1 .683 0c.196.144.047.34-.344.34-.386 0-.535-.196-.339-.34m-1.559-.535c.145-.196.488-.196.684 0 .195.191.047.34-.344.34s-.535-.149-.34-.34m-29.621-.684c.144-.293.437-.535.586-.535.144 0 .094.242-.102.535-.144.242-.437.488-.582.488-.097 0-.097-.246.098-.488m28.012.145a.53.53 0 0 1 .73 0c.195.195 0 .343-.34.343-.39 0-.535-.148-.39-.343m-6.235-1.559a.47.47 0 0 1 .684 0c.191.195.047.344-.344.344s-.535-.149-.34-.344m-17.199-.535c.195-.195.535-.195.684 0 .195.195.047.34-.344.34-.387 0-.535-.145-.34-.34m14.324 0c.391-.145.828-.145 1.024.05.144.196-.149.29-.684.29-.633-.047-.73-.145-.34-.34m-11.254-.535c.536-.098 1.364-.098 1.852 0 .488.144.098.242-.926.242-.976 0-1.414-.098-.926-.242m6.039 0c.637-.098 1.563-.098 2.047 0 .535.144 0 .242-1.168.242-1.121 0-1.558-.098-.879-.242"/><path fill="#fcd900" d="m798.195 109.961-1.168-.586 1.852-2.484c.973-1.364 2.141-3.457 2.582-4.727.777-2.094.73-2.336-.441-4.871-.68-1.414-2.336-5.992-3.7-10.184-6.14-18.609-13.351-26.648-34.691-38.586-3.801-2.144-7.793-4.675-8.914-5.601l-2.047-1.754 2.094-2.098 2.144-2.14 4.532.34c8.332.632 19.683 4.578 26.457 9.257 3.699 2.532 9.984 8.672 12.468 12.18 2.875 4.14 5.606 9.988 6.825 14.86 1.46 5.75 1.363 18.124-.149 23.19-1.559 5.165-2.973 8.77-4.578 11.45-1.465 2.531-1.512 2.582-3.266 1.754"/></g><path fill="#bc9a16" d="M562.41 71.871c0-68.598 90.555-70.863 170.082-70.863 79.528 0 170.078 2.265 170.078 70.863 0-15.652-76.148-28.344-170.078-28.344-93.933 0-170.082 12.692-170.082 28.344"/><path fill="none" stroke="#000" stroke-linecap="round" stroke-linejoin="round" stroke-width="2" d="M562.41 71.871c0-68.598 90.555-70.863 170.082-70.863 79.528 0 170.078 2.265 170.078 70.863 0-15.652-76.148-28.344-170.078-28.344-93.933 0-170.082 12.692-170.082 28.344"/><path fill="#cc9c6f" d="M458.871 357.938c0 3.914-3.172 7.085-7.086 7.085s-7.086-3.171-7.086-7.085 3.172-7.086 7.086-7.086 7.086 3.171 7.086 7.086"/><path fill="none" stroke="#000" stroke-linecap="round" stroke-linejoin="round" stroke-width="2" d="M458.871 357.938c0 3.914-3.172 7.085-7.086 7.085s-7.086-3.171-7.086-7.085 3.172-7.086 7.086-7.086 7.086 3.171 7.086 7.086"/><circle cx="451.785" cy="357.938" r="1"/><path fill="#cc9c6f" d="M437.609 54.629h28.348v340.156h-28.348Z"/><path fill="none" stroke="#000" stroke-linecap="round" stroke-linejoin="round" stroke-width="2" d="M437.609 54.629h28.348v340.156h-28.348z"/><path fill="#cc9c6f" d="M458.871 357.938c0 3.914-3.172 7.085-7.086 7.085s-7.086-3.171-7.086-7.085 3.172-7.086 7.086-7.086 7.086 3.171 7.086 7.086"/><path fill="none" stroke="#000" stroke-linecap="round" stroke-linejoin="round" stroke-width="2" d="M458.871 357.938c0 3.914-3.172 7.085-7.086 7.085s-7.086-3.171-7.086-7.085 3.172-7.086 7.086-7.086 7.086 3.171 7.086 7.086"/><path fill="#cc9c6f" d="M454.617 394.785c3.641 3.824 5.672 8.899 5.672 14.176s-2.031 10.352-5.672 14.172h-5.668c-3.636-3.82-5.668-8.895-5.668-14.172s2.032-10.352 5.668-14.176z"/><path fill="none" stroke="#000" stroke-linecap="round" stroke-linejoin="round" stroke-width="2" d="M454.617 394.785c3.641 3.824 5.672 8.899 5.672 14.176s-2.031 10.352-5.672 14.172h-5.668c-3.636-3.82-5.668-8.895-5.668-14.172s2.032-10.352 5.668-14.176z"/><path fill="#cc9c6f" d="M463.121 434.473c0 6.261-5.074 11.34-11.336 11.34s-11.34-5.079-11.34-11.34 5.078-11.34 11.34-11.34 11.336 5.078 11.336 11.34"/><path fill="none" stroke="#000" stroke-linecap="round" stroke-linejoin="round" stroke-width="2" d="M463.121 434.473c0 6.261-5.074 11.34-11.336 11.34s-11.34-5.079-11.34-11.34 5.078-11.34 11.34-11.34 11.336 5.078 11.336 11.34"/><path fill="#cc9c6f" d="M494.305 26.281c-13.692 0-22.676 13.625-22.676 28.348h-39.688c0-14.723-8.988-28.348-22.675-28.348z"/><path fill="none" stroke="#000" stroke-linecap="round" stroke-linejoin="round" stroke-width="2" d="M494.305 26.281c-13.692 0-22.676 13.625-22.676 28.348h-39.688c0-14.723-8.988-28.348-22.675-28.348z"/></g></svg>