<svg xmlns="http://www.w3.org/2000/svg" width="524" height="1172" viewBox="0 -879 393 879"><g id="page1"><path fill="#ffb2ff" d="M10.004-8.95h5.953c1.633 0 3.2.653 4.355 1.805l4.895 4.899a2.553 2.553 0 0 0 3.61 0l4.894-4.899a6.18 6.18 0 0 1 4.355-1.804h333.461a2.55 2.55 0 0 0 2.551-2.551v-700.395c0-1.41-1.14-2.554-2.551-2.554H38.067a6.16 6.16 0 0 0-4.356 1.804l-4.895 4.899a2.56 2.56 0 0 1-3.609 0l-4.895-4.899a6.16 6.16 0 0 0-4.355-1.804H4.051a2.55 2.55 0 0 0-2.551 2.554V-11.5c0 1.41 1.14 2.55 2.55 2.55z"/><path fill="none" stroke="#b200b2" stroke-linecap="round" stroke-linejoin="round" stroke-width="3" d="M10.004-8.95h5.953c1.633 0 3.2.653 4.355 1.805l4.895 4.899a2.553 2.553 0 0 0 3.61 0l4.894-4.899a6.18 6.18 0 0 1 4.355-1.804h333.461a2.55 2.55 0 0 0 2.551-2.551v-700.395c0-1.41-1.14-2.554-2.551-2.554H38.067a6.16 6.16 0 0 0-4.356 1.804l-4.895 4.899a2.56 2.56 0 0 1-3.609 0l-4.895-4.899a6.16 6.16 0 0 0-4.355-1.804H4.051a2.55 2.55 0 0 0-2.551 2.554V-11.5c0 1.41 1.14 2.55 2.55 2.55z"/><path fill="#ffd9b2" d="M35.516-25.957h5.953a6.17 6.17 0 0 1 4.355 1.805l4.895 4.898a2.553 2.553 0 0 0 3.61 0l4.894-4.898a6.18 6.18 0 0 1 4.355-1.805h316.453c1.41 0 2.555-1.14 2.555-2.55v-47.645a2.555 2.555 0 0 0-2.555-2.551H63.578c-1.633 0-3.2.648-4.355 1.805l-4.895 4.894a2.553 2.553 0 0 1-3.61 0l-4.894-4.894a6.16 6.16 0 0 0-4.355-1.805H29.562a2.55 2.55 0 0 0-2.55 2.55v47.645c0 1.41 1.14 2.551 2.55 2.551z"/><path fill="none" stroke="#b25900" stroke-linecap="round" stroke-linejoin="round" stroke-width="3" d="M35.516-25.957h5.953a6.17 6.17 0 0 1 4.355 1.805l4.895 4.898a2.553 2.553 0 0 0 3.61 0l4.894-4.898a6.18 6.18 0 0 1 4.355-1.805h316.453c1.41 0 2.555-1.14 2.555-2.55v-47.645a2.555 2.555 0 0 0-2.555-2.551H63.578c-1.633 0-3.2.648-4.355 1.805l-4.895 4.894a2.553 2.553 0 0 1-3.61 0l-4.894-4.894a6.16 6.16 0 0 0-4.355-1.805H29.562a2.55 2.55 0 0 0-2.55 2.55v47.645c0 1.41 1.14 2.551 2.55 2.551z"/><path fill="#ffffb2" d="M35.516-81.648h5.953c1.633 0 3.199.648 4.355 1.804l4.895 4.895a2.553 2.553 0 0 0 3.61 0l4.894-4.895a6.16 6.16 0 0 1 4.355-1.804h316.453a2.553 2.553 0 0 0 2.555-2.551v-193.938a2.556 2.556 0 0 0-2.555-2.551H63.578a6.16 6.16 0 0 0-4.355 1.805l-4.895 4.899a2.553 2.553 0 0 1-3.61 0l-4.894-4.899a6.16 6.16 0 0 0-4.355-1.805H29.562a2.55 2.55 0 0 0-2.55 2.551v193.938c0 1.41 1.14 2.55 2.55 2.55z"/><path fill="none" stroke="#b2b200" stroke-linecap="round" stroke-linejoin="round" stroke-width="3" d="M35.516-81.648h5.953c1.633 0 3.199.648 4.355 1.804l4.895 4.895a2.553 2.553 0 0 0 3.61 0l4.894-4.895a6.16 6.16 0 0 1 4.355-1.804h316.453a2.553 2.553 0 0 0 2.555-2.551v-193.938a2.556 2.556 0 0 0-2.555-2.551H63.578a6.16 6.16 0 0 0-4.355 1.805l-4.895 4.899a2.553 2.553 0 0 1-3.61 0l-4.894-4.899a6.16 6.16 0 0 0-4.355-1.805H29.562a2.55 2.55 0 0 0-2.55 2.551v193.938c0 1.41 1.14 2.55 2.55 2.55z"/><path fill="#ffd9b2" d="M61.027-98.656h5.954a6.16 6.16 0 0 1 4.355 1.804l4.895 4.895a2.553 2.553 0 0 0 3.609 0l4.894-4.895a6.16 6.16 0 0 1 4.356-1.804h299.445c1.41 0 2.555-1.14 2.555-2.551v-73.156a2.553 2.553 0 0 0-2.555-2.551H89.09c-1.633 0-3.2.648-4.356 1.805l-4.894 4.894a2.553 2.553 0 0 1-3.61 0l-4.894-4.894a6.16 6.16 0 0 0-4.355-1.805H55.074a2.55 2.55 0 0 0-2.55 2.551v73.156c0 1.41 1.14 2.55 2.55 2.55z"/><path fill="none" stroke="#b25900" stroke-linecap="round" stroke-linejoin="round" stroke-width="3" d="M61.027-98.656h5.954a6.16 6.16 0 0 1 4.355 1.804l4.895 4.895a2.553 2.553 0 0 0 3.609 0l4.894-4.895a6.16 6.16 0 0 1 4.356-1.804h299.445c1.41 0 2.555-1.14 2.555-2.551v-73.156a2.553 2.553 0 0 0-2.555-2.551H89.09c-1.633 0-3.2.648-4.356 1.805l-4.894 4.894a2.553 2.553 0 0 1-3.61 0l-4.894-4.894a6.16 6.16 0 0 0-4.355-1.805H55.074a2.55 2.55 0 0 0-2.55 2.551v73.156c0 1.41 1.14 2.55 2.55 2.55z"/><path fill="#c6c6ff" d="M203.547-111.41h44.062a2.55 2.55 0 0 0 2.551-2.555v-47.644a2.55 2.55 0 0 0-2.551-2.551h-88.125a2.553 2.553 0 0 0-2.55 2.551v47.644a2.555 2.555 0 0 0 2.55 2.555z"/><path fill="none" stroke="#2d2db2" stroke-linecap="round" stroke-linejoin="round" stroke-width="3" d="M203.547-111.41h44.062a2.55 2.55 0 0 0 2.551-2.555v-47.644a2.55 2.55 0 0 0-2.551-2.551h-88.125a2.553 2.553 0 0 0-2.55 2.551v47.644a2.555 2.555 0 0 0 2.55 2.555z"/><path fill="#d9b2b2" d="M284.855-137.785c0 13.172 5.684 26.375 17.348 26.375 11.668 0 17.352-13.203 17.352-26.375 0-13.176-5.684-26.375-17.352-26.375-11.664 0-17.348 13.199-17.348 26.375"/><path fill="none" stroke="#590000" stroke-linecap="round" stroke-linejoin="round" stroke-width="3" d="M284.855-137.785c0 13.172 5.684 26.375 17.348 26.375 11.668 0 17.352-13.203 17.352-26.375 0-13.176-5.684-26.375-17.352-26.375-11.664 0-17.348 13.199-17.348 26.375"/><path fill="#b2ffb2" d="m76.727-206.484 10.433 14.398a12.5 12.5 0 0 0 10.121 5.168h119.145c4.008 0 7.769-1.922 10.121-5.168l20.863-28.797a8.81 8.81 0 0 0 0-10.332l-20.863-28.797a12.5 12.5 0 0 0-10.121-5.168H97.281c-4.008 0-7.77 1.922-10.12 5.168l-20.864 28.797a8.81 8.81 0 0 0 0 10.332z"/><path fill="none" stroke="#00b200" stroke-linecap="round" stroke-linejoin="round" stroke-width="3" d="m76.727-206.484 10.433 14.398a12.5 12.5 0 0 0 10.121 5.168h119.145c4.008 0 7.769-1.922 10.121-5.168l20.863-28.797a8.81 8.81 0 0 0 0-10.332l-20.863-28.797a12.5 12.5 0 0 0-10.121-5.168H97.281c-4.008 0-7.77 1.922-10.12 5.168l-20.864 28.797a8.81 8.81 0 0 0 0 10.332z"/><path fill="#d9b2b2" d="M78.145-226.051c0 14.414 11.261 26.375 25.511 26.375h30.496c14.25 0 25.512-11.961 25.512-26.375 0-14.41-11.262-26.371-25.512-26.371h-30.496c-14.25 0-25.512 11.961-25.512 26.371"/><path fill="none" stroke="#590000" stroke-linecap="round" stroke-linejoin="round" stroke-width="3" d="M78.145-226.051c0 14.414 11.261 26.375 25.511 26.375h30.496c14.25 0 25.512-11.961 25.512-26.375 0-14.41-11.262-26.371-25.512-26.371h-30.496c-14.25 0-25.512 11.961-25.512 26.371"/><path fill="#d9b2b2" d="M200.863-226.051c0 13.176 5.684 26.375 17.352 26.375 11.664 0 17.348-13.199 17.348-26.375 0-13.172-5.684-26.371-17.348-26.371-11.668 0-17.352 13.199-17.352 26.371"/><path fill="none" stroke="#590000" stroke-linecap="round" stroke-linejoin="round" stroke-width="3" d="M200.863-226.051c0 13.176 5.684 26.375 17.352 26.375 11.664 0 17.348-13.199 17.348-26.375 0-13.172-5.684-26.371-17.348-26.371-11.668 0-17.352 13.199-17.352 26.371"/><path fill="#ffffb2" d="M35.516-283.633h5.953c1.633 0 3.199.649 4.355 1.805l4.895 4.894a2.553 2.553 0 0 0 3.61 0l4.894-4.894a6.16 6.16 0 0 1 4.355-1.805h316.453c1.41 0 2.555-1.14 2.555-2.551v-324.941a2.553 2.553 0 0 0-2.555-2.551H63.578a6.16 6.16 0 0 0-4.355 1.805l-4.895 4.894a2.55 2.55 0 0 1-3.61 0l-4.894-4.894a6.16 6.16 0 0 0-4.355-1.805H29.562a2.55 2.55 0 0 0-2.55 2.551v324.941a2.55 2.55 0 0 0 2.55 2.551z"/><path fill="none" stroke="#b2b200" stroke-linecap="round" stroke-linejoin="round" stroke-width="3" d="M35.516-283.633h5.953c1.633 0 3.199.649 4.355 1.805l4.895 4.894a2.553 2.553 0 0 0 3.61 0l4.894-4.894a6.16 6.16 0 0 1 4.355-1.805h316.453c1.41 0 2.555-1.14 2.555-2.551v-324.941a2.553 2.553 0 0 0-2.555-2.551H63.578a6.16 6.16 0 0 0-4.355 1.805l-4.895 4.894a2.55 2.55 0 0 1-3.61 0l-4.894-4.894a6.16 6.16 0 0 0-4.355-1.805H29.562a2.55 2.55 0 0 0-2.55 2.551v324.941a2.55 2.55 0 0 0 2.55 2.551z"/><path fill="#ffd9b2" d="M61.027-300.641h5.954a6.16 6.16 0 0 1 4.355 1.805l4.895 4.895a2.553 2.553 0 0 0 3.609 0l4.894-4.895a6.16 6.16 0 0 1 4.356-1.805h299.445c1.41 0 2.555-1.14 2.555-2.55v-73.157c0-1.41-1.145-2.55-2.555-2.55H89.09a6.16 6.16 0 0 0-4.356 1.804l-4.894 4.895a2.553 2.553 0 0 1-3.61 0l-4.894-4.895a6.16 6.16 0 0 0-4.355-1.804H55.074c-1.41 0-2.55 1.14-2.55 2.55v73.157c0 1.41 1.14 2.55 2.55 2.55z"/><path fill="none" stroke="#b25900" stroke-linecap="round" stroke-linejoin="round" stroke-width="3" d="M61.027-300.641h5.954a6.16 6.16 0 0 1 4.355 1.805l4.895 4.895a2.553 2.553 0 0 0 3.609 0l4.894-4.895a6.16 6.16 0 0 1 4.356-1.805h299.445c1.41 0 2.555-1.14 2.555-2.55v-73.157c0-1.41-1.145-2.55-2.555-2.55H89.09a6.16 6.16 0 0 0-4.356 1.804l-4.894 4.895a2.553 2.553 0 0 1-3.61 0l-4.894-4.895a6.16 6.16 0 0 0-4.355-1.804H55.074c-1.41 0-2.55 1.14-2.55 2.55v73.157c0 1.41 1.14 2.55 2.55 2.55z"/><path fill="#c6c6ff" d="M188.461-313.395h38.207a2.55 2.55 0 0 0 2.551-2.55v-47.649a2.55 2.55 0 0 0-2.551-2.551h-76.414a2.556 2.556 0 0 0-2.555 2.551v47.649a2.555 2.555 0 0 0 2.555 2.55z"/><path fill="none" stroke="#2d2db2" stroke-linecap="round" stroke-linejoin="round" stroke-width="3" d="M188.461-313.395h38.207a2.55 2.55 0 0 0 2.551-2.55v-47.649a2.55 2.55 0 0 0-2.551-2.551h-76.414a2.556 2.556 0 0 0-2.555 2.551v47.649a2.555 2.555 0 0 0 2.555 2.55z"/><path fill="#d9b2b2" d="M271.719-339.77c0 13.723 8.465 26.375 21.25 26.375s21.25-12.652 21.25-26.375c0-13.722-8.465-26.375-21.25-26.375s-21.25 12.653-21.25 26.375"/><path fill="none" stroke="#590000" stroke-linecap="round" stroke-linejoin="round" stroke-width="3" d="M271.719-339.77c0 13.723 8.465 26.375 21.25 26.375s21.25-12.652 21.25-26.375c0-13.722-8.465-26.375-21.25-26.375s-21.25 12.653-21.25 26.375"/><path fill="#ffd9b2" d="M61.027-433.145h5.954c1.632 0 3.199.649 4.355 1.801l4.895 4.899a2.553 2.553 0 0 0 3.609 0l4.894-4.899a6.17 6.17 0 0 1 4.356-1.801h299.445a2.556 2.556 0 0 0 2.555-2.554v-73.156a2.55 2.55 0 0 0-2.555-2.551H89.09a6.16 6.16 0 0 0-4.356 1.804l-4.894 4.895a2.553 2.553 0 0 1-3.61 0l-4.894-4.895a6.16 6.16 0 0 0-4.355-1.804H55.074c-1.41 0-2.55 1.14-2.55 2.551v73.156c0 1.41 1.14 2.554 2.55 2.554z"/><path fill="none" stroke="#b25900" stroke-linecap="round" stroke-linejoin="round" stroke-width="3" d="M61.027-433.145h5.954c1.632 0 3.199.649 4.355 1.801l4.895 4.899a2.553 2.553 0 0 0 3.609 0l4.894-4.899a6.17 6.17 0 0 1 4.356-1.801h299.445a2.556 2.556 0 0 0 2.555-2.554v-73.156a2.55 2.55 0 0 0-2.555-2.551H89.09a6.16 6.16 0 0 0-4.356 1.804l-4.894 4.895a2.553 2.553 0 0 1-3.61 0l-4.894-4.895a6.16 6.16 0 0 0-4.355-1.804H55.074c-1.41 0-2.55 1.14-2.55 2.551v73.156c0 1.41 1.14 2.554 2.55 2.554z"/><path fill="#c6c6ff" d="M188.461-445.902h38.207a2.55 2.55 0 0 0 2.551-2.551v-47.645c0-1.41-1.141-2.55-2.551-2.55h-76.414a2.55 2.55 0 0 0-2.555 2.55v47.645a2.556 2.556 0 0 0 2.555 2.551z"/><path fill="none" stroke="#2d2db2" stroke-linecap="round" stroke-linejoin="round" stroke-width="3" d="M188.461-445.902h38.207a2.55 2.55 0 0 0 2.551-2.551v-47.645c0-1.41-1.141-2.55-2.551-2.55h-76.414a2.55 2.55 0 0 0-2.555 2.55v47.645a2.556 2.556 0 0 0 2.555 2.551z"/><path fill="#d9b2b2" d="M271.719-472.277c0 13.175 5.683 26.375 17.347 26.375 11.668 0 17.348-13.2 17.348-26.375 0-13.172-5.68-26.371-17.348-26.371-11.664 0-17.347 13.199-17.347 26.371"/><path fill="none" stroke="#590000" stroke-linecap="round" stroke-linejoin="round" stroke-width="3" d="M271.719-472.277c0 13.175 5.683 26.375 17.347 26.375 11.668 0 17.348-13.2 17.348-26.375 0-13.172-5.68-26.371-17.348-26.371-11.664 0-17.347 13.199-17.347 26.371"/><path fill="#b2ffb2" d="m76.727-540.977 10.433 14.403a12.5 12.5 0 0 0 10.121 5.164H299.93c4.008 0 7.769-1.918 10.121-5.164l20.859-28.801a8.79 8.79 0 0 0 0-10.328l-20.859-28.801a12.5 12.5 0 0 0-10.121-5.164H97.281c-4.008 0-7.77 1.922-10.12 5.164l-20.864 28.801a8.81 8.81 0 0 0 0 10.328z"/><path fill="none" stroke="#00b200" stroke-linecap="round" stroke-linejoin="round" stroke-width="3" d="m76.727-540.977 10.433 14.403a12.5 12.5 0 0 0 10.121 5.164H299.93c4.008 0 7.769-1.918 10.121-5.164l20.859-28.801a8.79 8.79 0 0 0 0-10.328l-20.859-28.801a12.5 12.5 0 0 0-10.121-5.164H97.281c-4.008 0-7.77 1.922-10.12 5.164l-20.864 28.801a8.81 8.81 0 0 0 0 10.328z"/><path fill="#d9b2b2" d="M78.145-560.539c0 14.41 11.261 26.371 25.511 26.371h61.973c14.25 0 25.512-11.961 25.512-26.371s-11.262-26.375-25.512-26.375h-61.973c-14.25 0-25.512 11.965-25.512 26.375"/><path fill="none" stroke="#590000" stroke-linecap="round" stroke-linejoin="round" stroke-width="3" d="M78.145-560.539c0 14.41 11.261 26.371 25.511 26.371h61.973c14.25 0 25.512-11.961 25.512-26.371s-11.262-26.375-25.512-26.375h-61.973c-14.25 0-25.512 11.965-25.512 26.375"/><path fill="#d9b2b2" d="M232.34-560.539c0 14.41 11.265 26.371 25.512 26.371h35.699c14.25 0 25.512-11.961 25.512-26.371s-11.262-26.375-25.512-26.375h-35.699c-14.247 0-25.512 11.965-25.512 26.375"/><path fill="none" stroke="#590000" stroke-linecap="round" stroke-linejoin="round" stroke-width="3" d="M232.34-560.539c0 14.41 11.265 26.371 25.512 26.371h35.699c14.25 0 25.512-11.961 25.512-26.371s-11.262-26.375-25.512-26.375h-35.699c-14.247 0-25.512 11.965-25.512 26.375"/><path fill="#b2ffb2" d="m165.547-643.246 10.43 14.398a12.5 12.5 0 0 0 10.121 5.168h130.851c4.008 0 7.77-1.922 10.121-5.168l20.864-28.797a8.815 8.815 0 0 0 0-10.332l-20.864-28.796a12.5 12.5 0 0 0-10.121-5.168H186.098c-4.008 0-7.77 1.921-10.121 5.168l-20.864 28.796a8.815 8.815 0 0 0 0 10.332z"/><path fill="none" stroke="#00b200" stroke-linecap="round" stroke-linejoin="round" stroke-width="3" d="m165.547-643.246 10.43 14.398a12.5 12.5 0 0 0 10.121 5.168h130.851c4.008 0 7.77-1.922 10.121-5.168l20.864-28.797a8.815 8.815 0 0 0 0-10.332l-20.864-28.796a12.5 12.5 0 0 0-10.121-5.168H186.098c-4.008 0-7.77 1.921-10.121 5.168l-20.864 28.796a8.815 8.815 0 0 0 0 10.332z"/><path fill="#d9b2b2" d="M166.965-662.809c0 14.411 11.262 26.371 25.508 26.371h42.203c14.25 0 25.512-11.96 25.512-26.371 0-14.414-11.262-26.375-25.512-26.375h-42.203c-14.246 0-25.508 11.961-25.508 26.375"/><path fill="none" stroke="#590000" stroke-linecap="round" stroke-linejoin="round" stroke-width="3" d="M166.965-662.809c0 14.411 11.262 26.371 25.508 26.371h42.203c14.25 0 25.512-11.96 25.512-26.371 0-14.414-11.262-26.375-25.512-26.375h-42.203c-14.246 0-25.508 11.961-25.508 26.375"/><path fill="#d9b2b2" d="M301.387-662.809c0 13.172 5.683 26.371 17.347 26.371 11.668 0 17.348-13.199 17.348-26.371 0-13.175-5.68-26.375-17.348-26.375-11.664 0-17.347 13.2-17.347 26.375"/><path fill="none" stroke="#590000" stroke-linecap="round" stroke-linejoin="round" stroke-width="3" d="M301.387-662.809c0 13.172 5.683 26.371 17.347 26.371 11.668 0 17.348-13.199 17.348-26.371 0-13.175-5.68-26.375-17.348-26.375-11.664 0-17.347 13.2-17.347 26.375"/><path fill="#ffd9b2" d="M10.004-717.395h5.953c1.633 0 3.2.649 4.355 1.805l4.895 4.899a2.554 2.554 0 0 0 3.61 0l4.894-4.899a6.16 6.16 0 0 1 4.355-1.805h333.461a2.55 2.55 0 0 0 2.551-2.55v-73.157c0-1.41-1.14-2.55-2.551-2.55H38.067a6.16 6.16 0 0 0-4.356 1.804l-4.895 4.895a2.554 2.554 0 0 1-3.609 0l-4.895-4.895a6.16 6.16 0 0 0-4.355-1.804H4.051a2.55 2.55 0 0 0-2.551 2.55v73.157c0 1.41 1.14 2.55 2.55 2.55z"/><path fill="none" stroke="#b25900" stroke-linecap="round" stroke-linejoin="round" stroke-width="3" d="M10.004-717.395h5.953c1.633 0 3.2.649 4.355 1.805l4.895 4.899a2.554 2.554 0 0 0 3.61 0l4.894-4.899a6.16 6.16 0 0 1 4.355-1.805h333.461a2.55 2.55 0 0 0 2.551-2.55v-73.157c0-1.41-1.14-2.55-2.551-2.55H38.067a6.16 6.16 0 0 0-4.356 1.804l-4.895 4.895a2.554 2.554 0 0 1-3.609 0l-4.895-4.895a6.16 6.16 0 0 0-4.355-1.804H4.051a2.55 2.55 0 0 0-2.551 2.55v73.157c0 1.41 1.14 2.55 2.55 2.55z"/><path fill="#c6c6ff" d="M146.672-730.148h38.207a2.55 2.55 0 0 0 2.551-2.551v-47.649a2.55 2.55 0 0 0-2.551-2.55h-76.414a2.555 2.555 0 0 0-2.555 2.55v47.649a2.556 2.556 0 0 0 2.555 2.551z"/><path fill="none" stroke="#2d2db2" stroke-linecap="round" stroke-linejoin="round" stroke-width="3" d="M146.672-730.148h38.207a2.55 2.55 0 0 0 2.551-2.551v-47.649a2.55 2.55 0 0 0-2.551-2.55h-76.414a2.555 2.555 0 0 0-2.555 2.55v47.649a2.556 2.556 0 0 0 2.555 2.551z"/><path fill="#d9b2b2" d="M222.129-756.523c0 13.171 5.68 26.375 17.348 26.375 11.664 0 17.347-13.204 17.347-26.375 0-13.172-5.683-26.375-17.347-26.375-11.668 0-17.348 13.203-17.348 26.375"/><path fill="none" stroke="#590000" stroke-linecap="round" stroke-linejoin="round" stroke-width="3" d="M222.129-756.523c0 13.171 5.68 26.375 17.348 26.375 11.664 0 17.347-13.204 17.347-26.375 0-13.172-5.683-26.375-17.347-26.375-11.668 0-17.348 13.203-17.348 26.375"/><path fill="#ffd9b2" d="M10.004-798.598h5.953c1.633 0 3.2.649 4.355 1.801l4.895 4.899a2.554 2.554 0 0 0 3.61 0l4.894-4.899a6.17 6.17 0 0 1 4.355-1.801h333.461a2.55 2.55 0 0 0 2.551-2.55v-73.157c0-1.41-1.14-2.55-2.551-2.55H38.067c-1.633 0-3.2.644-4.356 1.8l-4.895 4.899a2.554 2.554 0 0 1-3.609 0l-4.895-4.899a6.16 6.16 0 0 0-4.355-1.8H4.051a2.55 2.55 0 0 0-2.551 2.55v73.157a2.55 2.55 0 0 0 2.55 2.55z"/><path fill="none" stroke="#b25900" stroke-linecap="round" stroke-linejoin="round" stroke-width="3" d="M10.004-798.598h5.953c1.633 0 3.2.649 4.355 1.801l4.895 4.899a2.554 2.554 0 0 0 3.61 0l4.894-4.899a6.17 6.17 0 0 1 4.355-1.801h333.461a2.55 2.55 0 0 0 2.551-2.55v-73.157c0-1.41-1.14-2.55-2.551-2.55H38.067c-1.633 0-3.2.644-4.356 1.8l-4.895 4.899a2.554 2.554 0 0 1-3.609 0l-4.895-4.899a6.16 6.16 0 0 0-4.355-1.8H4.051a2.55 2.55 0 0 0-2.551 2.55v73.157a2.55 2.55 0 0 0 2.55 2.55z"/><path fill="#c6c6ff" d="M152.523-811.355h44.063a2.55 2.55 0 0 0 2.551-2.551v-47.645a2.55 2.55 0 0 0-2.551-2.551h-88.121a2.553 2.553 0 0 0-2.555 2.551v47.645a2.553 2.553 0 0 0 2.555 2.551z"/><path fill="none" stroke="#2d2db2" stroke-linecap="round" stroke-linejoin="round" stroke-width="3" d="M152.523-811.355h44.063a2.55 2.55 0 0 0 2.551-2.551v-47.645a2.55 2.55 0 0 0-2.551-2.551h-88.121a2.553 2.553 0 0 0-2.555 2.551v47.645a2.553 2.553 0 0 0 2.555 2.551z"/><path fill="#d9b2b2" d="M233.832-837.727c0 13.172 5.684 26.372 17.348 26.372 11.668 0 17.347-13.2 17.347-26.372 0-13.175-5.679-26.375-17.347-26.375-11.664 0-17.348 13.2-17.348 26.375"/><path fill="none" stroke="#590000" stroke-linecap="round" stroke-linejoin="round" stroke-width="3" d="M233.832-837.727c0 13.172 5.684 26.372 17.348 26.372 11.668 0 17.347-13.2 17.347-26.372 0-13.175-5.679-26.375-17.347-26.375-11.664 0-17.348 13.2-17.348 26.375"/><path d="M55.633-52.207c0-2.223 0-2.89-.547-3.656-.695-.934-1.816-1.075-2.629-1.075-1.984 0-2.988 1.434-3.371 2.364-.336-1.84-1.625-2.364-3.129-2.364-2.32 0-3.227 1.985-3.418 2.461h-.023v-2.46l-3.25.261v.692c1.625 0 1.816.168 1.816 1.34v6.476c0 1.074-.262 1.074-1.816 1.074v.696c.62-.051 1.91-.051 2.578-.051.695 0 1.984 0 2.605.05v-.695c-1.527 0-1.816 0-1.816-1.074v-4.445c0-2.508 1.648-3.848 3.133-3.848 1.48 0 1.816 1.219 1.816 2.676v5.617c0 1.074-.266 1.074-1.816 1.074v.696c.62-.051 1.91-.051 2.578-.051.695 0 1.984 0 2.605.05v-.695c-1.527 0-1.816 0-1.816-1.074v-4.445c0-2.508 1.648-3.848 3.133-3.848 1.48 0 1.816 1.219 1.816 2.676v5.617c0 1.074-.266 1.074-1.816 1.074v.696c.62-.051 1.91-.051 2.578-.051.695 0 1.984 0 2.605.05v-.695c-1.195 0-1.793 0-1.816-.715zm11.59-.574c0-1.29 0-2.246-1.051-3.18-.836-.762-1.91-1.098-2.961-1.098-1.961 0-3.469 1.293-3.469 2.844 0 .692.457 1.028 1.008 1.028.57 0 .977-.407.977-.981 0-.98-.86-.98-1.22-.98.552-1 1.7-1.43 2.653-1.43 1.102 0 2.512.906 2.512 3.055v.957c-4.805.074-6.621 2.082-6.621 3.918 0 1.89 2.199 2.488 3.656 2.488 1.578 0 2.652-.957 3.105-2.106.098 1.125.836 1.985 1.868 1.985.5 0 1.886-.336 1.886-2.246v-1.34h-.527v1.34c0 1.363-.57 1.554-.906 1.554-.91 0-.91-1.27-.91-1.625zm-1.551 3.011c0 2.34-1.746 3.13-2.774 3.13-1.171 0-2.148-.86-2.148-2.008 0-3.153 4.063-3.438 4.922-3.489zm14.664-2.437c0-2.223 0-2.89-.55-3.656-.696-.934-1.817-1.075-2.63-1.075-2.32 0-3.226 1.985-3.418 2.461h-.023v-2.46l-3.25.261v.692c1.625 0 1.816.168 1.816 1.34v6.476c0 1.074-.262 1.074-1.816 1.074v.696c.62-.051 1.91-.051 2.582-.051.691 0 1.984 0 2.601.05v-.695c-1.527 0-1.812 0-1.812-1.074v-4.445c0-2.508 1.648-3.848 3.129-3.848 1.48 0 1.816 1.219 1.816 2.676v5.617c0 1.074-.265 1.074-1.816 1.074v.696c.62-.051 1.91-.051 2.582-.051.691 0 1.98 0 2.601.05v-.695c-1.195 0-1.789 0-1.812-.715zm5.207 1.48c1.125.743 2.082.743 2.344.743 2.148 0 3.75-1.625 3.75-3.465 0-.645-.192-1.555-.957-2.317.933-.957 2.054-.957 2.175-.957.098 0 .215 0 .313.047-.238.098-.36.336-.36.598 0 .336.239.621.622.621.191 0 .62-.121.62-.645 0-.43-.335-1.101-1.171-1.101-1.242 0-2.176.766-2.508 1.125-.715-.55-1.555-.86-2.46-.86-2.153 0-3.755 1.626-3.755 3.465 0 1.364.836 2.246 1.078 2.461-.289.36-.718 1.051-.718 1.985 0 1.386.836 1.98 1.027 2.101-1.098.309-2.2 1.172-2.2 2.414 0 1.649 2.25 3.012 5.188 3.012 2.844 0 5.211-1.266 5.211-3.059 0-.597-.168-2.007-1.601-2.75-1.22-.62-2.414-.62-4.47-.62-1.46 0-1.624 0-2.054-.454-.242-.238-.457-.695-.457-1.195 0-.406.145-.813.383-1.149m2.367.243c-2.105 0-2.105-2.414-2.105-2.965 0-.43 0-1.41.406-2.055a2.05 2.05 0 0 1 1.676-.934c2.101 0 2.101 2.415 2.101 2.965 0 .43 0 1.41-.406 2.055a2.05 2.05 0 0 1-1.672.934m.645 8.48c-2.293 0-4.04-1.168-4.04-2.531 0-.192.047-1.125.958-1.746.527-.336.738-.336 2.414-.336 1.98 0 4.683 0 4.683 2.082 0 1.41-1.816 2.531-4.015 2.531m10.004-19.117c0-.621-.504-1.168-1.172-1.168-.621 0-1.145.5-1.145 1.145 0 .714.57 1.171 1.145 1.171.742 0 1.172-.62 1.172-1.148m-3.297 4.445v.692c1.527 0 1.742.144 1.742 1.316v6.5c0 1.074-.262 1.074-1.817 1.074v.696c.672-.051 1.817-.051 2.512-.051.262 0 1.649 0 2.461.05v-.695c-1.554 0-1.648-.117-1.648-1.05v-8.794zm14.859 3.895c0-1.29 0-2.246-1.047-3.18-.84-.762-1.914-1.098-2.965-1.098-1.961 0-3.464 1.293-3.464 2.844 0 .692.453 1.028 1.003 1.028.575 0 .981-.407.981-.981 0-.98-.863-.98-1.219-.98.551-1 1.695-1.43 2.653-1.43 1.097 0 2.507.906 2.507 3.055v.957c-4.804.074-6.617 2.082-6.617 3.918 0 1.89 2.195 2.488 3.656 2.488 1.575 0 2.653-.957 3.106-2.106.094 1.125.836 1.985 1.863 1.985.5 0 1.887-.336 1.887-2.246v-1.34h-.524v1.34c0 1.363-.574 1.554-.91 1.554-.91 0-.91-1.27-.91-1.625zm-1.551 3.011c0 2.34-1.742 3.13-2.773 3.13-1.168 0-2.149-.86-2.149-2.008 0-3.153 4.063-3.438 4.922-3.489zm17.684 7.313c-1.527 0-1.816 0-1.816-1.074v-4.16c.429.597 1.41 1.53 2.941 1.53 2.75 0 5.16-2.32 5.16-5.401 0-3.036-2.246-5.376-4.851-5.376-2.102 0-3.223 1.504-3.297 1.602v-1.602l-3.321.262v.692c1.672 0 1.817.168 1.817 1.218v11.235c0 1.074-.266 1.074-1.817 1.074v.691c.621-.047 1.91-.047 2.578-.047.696 0 1.985 0 2.606.047zm-1.816-11.566c0-.454 0-.477.265-.86a3.44 3.44 0 0 1 2.793-1.531c1.793 0 3.227 2.176 3.227 4.852 0 2.843-1.625 4.921-3.465 4.921a2.8 2.8 0 0 1-1.91-.761c-.551-.551-.91-1.028-.91-1.7zm12.953 2.054c0-2.316.957-4.492 2.797-4.492.191 0 .238 0 .335.023-.195.098-.574.243-.574.883 0 .696.547.957.93.957.48 0 .957-.308.957-.957 0-.715-.645-1.383-1.672-1.383-2.031 0-2.726 2.196-2.867 2.653h-.024v-2.653l-3.203.262v.692c1.625 0 1.817.168 1.817 1.34v6.476c0 1.074-.266 1.074-1.817 1.074v.696c.668-.051 1.985-.051 2.7-.051.644 0 2.339 0 2.89.05v-.695h-.476c-1.746 0-1.793-.261-1.793-1.12zm16.179.453c0-3.082-2.343-5.543-5.117-5.543-2.863 0-5.137 2.536-5.137 5.543 0 3.063 2.391 5.356 5.114 5.356 2.82 0 5.14-2.344 5.14-5.356m-5.117 4.828c-.883 0-1.957-.382-2.652-1.554-.645-1.074-.668-2.485-.668-3.489 0-.906 0-2.363.738-3.44a3.08 3.08 0 0 1 2.559-1.407c.933 0 1.937.43 2.582 1.36.742 1.1.742 2.605.742 3.488 0 .84 0 2.32-.621 3.44-.668 1.15-1.77 1.602-2.68 1.602m13.684-9.82c0-.43 0-.55-.239-.55-.191 0-.644.527-.812.742-.742-.598-1.481-.743-2.246-.743-2.891 0-3.75 1.578-3.75 2.891 0 .266 0 1.102.906 1.938.766.667 1.578.835 2.676 1.05 1.316.262 1.625.336 2.223.813.429.36.742.883.742 1.554 0 1.028-.598 2.172-2.699 2.172-1.579 0-2.723-.906-3.25-3.297-.098-.43-.098-.453-.122-.476-.046-.098-.144-.098-.214-.098-.262 0-.262.121-.262.551v3.25c0 .43 0 .55.238.55.117 0 .141-.023.551-.526.117-.169.117-.215.476-.598.907 1.125 2.2 1.125 2.606 1.125 2.508 0 3.75-1.387 3.75-3.274 0-1.293-.789-2.058-1.004-2.27-.859-.741-1.504-.886-3.082-1.171-.719-.145-2.461-.48-2.461-1.914 0-.738.5-1.84 2.652-1.84 2.606 0 2.747 2.223 2.797 2.965.024.191.192.191.262.191.262 0 .262-.12.262-.55zm9.203 0c0-.43 0-.55-.242-.55-.192 0-.645.527-.813.742-.738-.598-1.48-.743-2.246-.743-2.891 0-3.75 1.578-3.75 2.891 0 .266 0 1.102.906 1.938.766.667 1.578.835 2.676 1.05 1.317.262 1.625.336 2.223.813.429.36.742.883.742 1.554 0 1.028-.598 2.172-2.699 2.172-1.578 0-2.723-.906-3.25-3.297-.098-.43-.098-.453-.121-.476-.047-.098-.145-.098-.215-.098-.262 0-.262.121-.262.551v3.25c0 .43 0 .55.238.55.121 0 .145-.023.551-.526.117-.169.117-.215.477-.598.91 1.125 2.199 1.125 2.605 1.125 2.508 0 3.75-1.387 3.75-3.274 0-1.293-.789-2.058-1.004-2.27-.859-.741-1.504-.886-3.082-1.171-.715-.145-2.461-.48-2.461-1.914 0-.738.504-1.84 2.653-1.84 2.605 0 2.75 2.223 2.797 2.965.023.191.191.191.261.191.266 0 .266-.12.266-.55zm5.519-4.613c0-.621-.504-1.168-1.171-1.168-.622 0-1.149.5-1.149 1.145 0 .714.574 1.171 1.149 1.171.742 0 1.171-.62 1.171-1.148m-3.296 4.445v.692c1.527 0 1.742.144 1.742 1.316v6.5c0 1.074-.262 1.074-1.817 1.074v.696c.668-.051 1.817-.051 2.508-.051.266 0 1.652 0 2.465.05v-.695c-1.555 0-1.648-.117-1.648-1.05v-8.794zm22.773 4.469c0-2.223 0-2.89-.551-3.656-.695-.934-1.816-1.075-2.629-1.075-1.984 0-2.988 1.434-3.371 2.364-.332-1.84-1.625-2.364-3.129-2.364-2.316 0-3.226 1.985-3.418 2.461h-.023v-2.46l-3.25.261v.692c1.625 0 1.816.168 1.816 1.34v6.476c0 1.074-.261 1.074-1.816 1.074v.696c.621-.051 1.914-.051 2.582-.051.691 0 1.984 0 2.601.05v-.695c-1.527 0-1.812 0-1.812-1.074v-4.445c0-2.508 1.648-3.848 3.129-3.848 1.48 0 1.816 1.219 1.816 2.676v5.617c0 1.074-.265 1.074-1.816 1.074v.696c.621-.051 1.914-.051 2.582-.051.691 0 1.98 0 2.601.05v-.695c-1.527 0-1.812 0-1.812-1.074v-4.445c0-2.508 1.648-3.848 3.129-3.848 1.48 0 1.816 1.219 1.816 2.676v5.617c0 1.074-.265 1.074-1.816 1.074v.696c.621-.051 1.914-.051 2.582-.051.691 0 1.98 0 2.601.05v-.695c-1.195 0-1.789 0-1.812-.715zm13.332.691c0-3.082-2.34-5.543-5.113-5.543-2.867 0-5.137 2.536-5.137 5.543 0 3.063 2.387 5.356 5.113 5.356 2.821 0 5.137-2.344 5.137-5.356m-5.113 4.828c-.883 0-1.961-.382-2.653-1.554-.644-1.074-.668-2.485-.668-3.489 0-.906 0-2.363.739-3.44a3.07 3.07 0 0 1 2.558-1.407c.934 0 1.938.43 2.578 1.36.743 1.1.743 2.605.743 3.488 0 .84 0 2.32-.622 3.44-.667 1.15-1.765 1.602-2.675 1.602M68.156-146.52c0-.621-.5-1.171-1.168-1.171a1.15 1.15 0 0 0-1.148 1.148c0 .715.574 1.172 1.148 1.172.739 0 1.168-.625 1.168-1.149m-3.297 4.446v.691c1.532 0 1.747.145 1.747 1.313v6.5c0 1.078-.262 1.078-1.817 1.078v.691c.668-.047 1.817-.047 2.508-.047.266 0 1.648 0 2.46.047v-.691c-1.55 0-1.648-.121-1.648-1.051v-8.797zm22.774 4.469c0-2.223 0-2.891-.547-3.657-.695-.933-1.817-1.078-2.629-1.078-1.984 0-2.988 1.434-3.371 2.367-.336-1.84-1.625-2.367-3.129-2.367-2.32 0-3.226 1.985-3.418 2.461h-.023v-2.461l-3.25.266v.691c1.625 0 1.816.168 1.816 1.34v6.473c0 1.078-.262 1.078-1.816 1.078v.691c.62-.047 1.91-.047 2.578-.047.695 0 1.984 0 2.605.047v-.691c-1.527 0-1.816 0-1.816-1.078v-4.442c0-2.511 1.648-3.847 3.133-3.847 1.48 0 1.816 1.218 1.816 2.675v5.614c0 1.078-.266 1.078-1.816 1.078v.691c.62-.047 1.91-.047 2.578-.047.695 0 1.984 0 2.605.047v-.691c-1.527 0-1.816 0-1.816-1.078v-4.442c0-2.511 1.648-3.847 3.133-3.847 1.48 0 1.816 1.218 1.816 2.675v5.614c0 1.078-.266 1.078-1.816 1.078v.691c.62-.047 1.91-.047 2.578-.047.695 0 1.984 0 2.605.047v-.691c-1.195 0-1.793 0-1.816-.719zm8.223 9.746c-1.532 0-1.817 0-1.817-1.075v-4.156c.43.598 1.41 1.527 2.938 1.527 2.75 0 5.164-2.316 5.164-5.398 0-3.035-2.247-5.379-4.852-5.379-2.102 0-3.227 1.508-3.297 1.602v-1.602l-3.324.266v.691c1.676 0 1.816.168 1.816 1.219v11.23c0 1.075-.261 1.075-1.816 1.075v.695c.621-.051 1.914-.051 2.582-.051.691 0 1.984 0 2.606.051zm-1.817-11.563c0-.457 0-.48.262-.859.718-1.078 1.886-1.532 2.797-1.532 1.793 0 3.226 2.176 3.226 4.852 0 2.844-1.625 4.922-3.465 4.922a2.83 2.83 0 0 1-1.914-.766c-.547-.547-.906-1.027-.906-1.695zm20.629 2.508c0-3.082-2.34-5.543-5.113-5.543-2.867 0-5.137 2.531-5.137 5.543 0 3.059 2.387 5.351 5.113 5.351 2.821 0 5.137-2.339 5.137-5.351m-5.113 4.824c-.883 0-1.961-.379-2.653-1.551-.644-1.074-.668-2.484-.668-3.488 0-.91 0-2.367.739-3.441a3.06 3.06 0 0 1 2.558-1.41c.934 0 1.938.429 2.578 1.363.743 1.097.743 2.605.743 3.488 0 .836 0 2.316-.622 3.441-.667 1.149-1.765 1.598-2.675 1.598m13.683-9.816c0-.434 0-.551-.242-.551-.187 0-.641.523-.808.738-.743-.594-1.485-.738-2.247-.738-2.894 0-3.753 1.574-3.753 2.891 0 .261 0 1.097.91 1.933.761.672 1.574.84 2.675 1.055 1.317.262 1.625.332 2.223.812.43.36.738.883.738 1.551 0 1.027-.593 2.176-2.699 2.176-1.574 0-2.722-.906-3.25-3.297-.094-.43-.094-.453-.117-.477-.051-.097-.145-.097-.215-.097-.265 0-.265.121-.265.551v3.25c0 .429 0 .546.242.546.117 0 .14-.023.547-.527.121-.164.121-.211.476-.594.91 1.121 2.199 1.121 2.606 1.121 2.511 0 3.754-1.382 3.754-3.273 0-1.289-.79-2.055-1.004-2.269-.86-.739-1.504-.883-3.082-1.172-.719-.141-2.461-.477-2.461-1.911 0-.742.5-1.839 2.652-1.839 2.605 0 2.746 2.222 2.797 2.964.019.192.187.192.262.192.261 0 .261-.121.261-.551zm5.375.5h3.371v-.696h-3.371v-4.394h-.523c-.024 2.246-.887 4.539-3.059 4.613v.477h2.032v6.644c0 2.653 1.765 3.199 3.035 3.199 1.504 0 2.293-1.48 2.293-3.199v-1.363h-.528v1.312c0 1.723-.691 2.723-1.625 2.723-1.625 0-1.625-2.219-1.625-2.625zm14.309 3.226c0-1.289 0-2.246-1.051-3.179-.836-.762-1.91-1.098-2.961-1.098-1.961 0-3.465 1.289-3.465 2.844 0 .691.453 1.027 1.004 1.027.574 0 .981-.406.981-.98 0-.981-.864-.981-1.219-.981.547-1.004 1.695-1.433 2.648-1.433 1.102 0 2.512.91 2.512 3.058v.957c-4.805.07-6.617 2.078-6.617 3.918 0 1.891 2.195 2.484 3.652 2.484 1.578 0 2.657-.953 3.11-2.101.093 1.125.836 1.984 1.863 1.984.5 0 1.887-.336 1.887-2.246v-1.34h-.524v1.34c0 1.363-.574 1.555-.91 1.555-.91 0-.91-1.27-.91-1.625zm-1.551 3.012c0 2.34-1.742 3.129-2.773 3.129-1.168 0-2.149-.859-2.149-2.008 0-3.152 4.063-3.441 4.922-3.488zm35.68-5.473c-.285 0-1.172 0-1.172.977 0 .574.406.98.98.98.551 0 1.004-.332 1.004-1.027 0-1.602-1.672-2.746-3.609-2.746-2.793 0-5.02 2.484-5.02 5.496 0 3.059 2.297 5.398 4.996 5.398 3.157 0 3.872-2.867 3.872-3.082s-.168-.214-.239-.214c-.215 0-.242.07-.308.359-.528 1.695-1.821 2.41-3.11 2.41-1.457 0-3.39-1.262-3.39-4.894 0-3.969 2.031-4.95 3.222-4.95.911 0 2.227.36 2.774 1.293m10.972 2.461c0-1.289 0-2.246-1.05-3.179-.836-.762-1.91-1.098-2.965-1.098-1.957 0-3.465 1.289-3.465 2.844 0 .691.453 1.027 1.004 1.027.574 0 .98-.406.98-.98 0-.981-.859-.981-1.218-.981.55-1.004 1.699-1.433 2.652-1.433 1.102 0 2.508.91 2.508 3.058v.957c-4.801.07-6.617 2.078-6.617 3.918 0 1.891 2.199 2.484 3.656 2.484 1.578 0 2.652-.953 3.105-2.101.098 1.125.836 1.984 1.864 1.984.503 0 1.89-.336 1.89-2.246v-1.34h-.527v1.34c0 1.363-.574 1.555-.906 1.555-.911 0-.911-1.27-.911-1.625zm-1.554 3.012c0 2.34-1.742 3.129-2.77 3.129-1.172 0-2.152-.859-2.152-2.008 0-3.152 4.062-3.441 4.922-3.488zm8.047-6.238h3.367v-.696h-3.367v-4.394h-.528c-.023 2.246-.883 4.539-3.058 4.613v.477h2.031v6.644c0 2.653 1.769 3.199 3.035 3.199 1.508 0 2.293-1.48 2.293-3.199v-1.363h-.523v1.312c0 1.723-.696 2.723-1.625 2.723-1.625 0-1.625-2.219-1.625-2.625zm9.097 0h3.371v-.696h-3.371v-4.394h-.523c-.024 2.246-.887 4.539-3.059 4.613v.477h2.032v6.644c0 2.653 1.765 3.199 3.035 3.199 1.504 0 2.293-1.48 2.293-3.199v-1.363h-.528v1.312c0 1.723-.691 2.723-1.625 2.723-1.625 0-1.625-2.219-1.625-2.625zm9.344-5.114c0-.621-.5-1.171-1.168-1.171-.625 0-1.148.503-1.148 1.148 0 .715.574 1.172 1.148 1.172.738 0 1.168-.625 1.168-1.149m-3.297 4.446v.691c1.528 0 1.746.145 1.746 1.313v6.5c0 1.078-.265 1.078-1.816 1.078v.691c.668-.047 1.816-.047 2.508-.047.261 0 1.648 0 2.461.047v-.691c-1.551 0-1.649-.121-1.649-1.051v-8.797zm15.391 2.246c.215-.527.621-1.555 2.148-1.578v-.696c-.691.051-1.027.051-1.765.051-.504 0-.864 0-1.961-.051v.696c1.004.047 1.121.765 1.121 1.027 0 .215-.047.336-.164.621l-2.438 6.164-2.679-6.738c-.118-.332-.141-.332-.141-.453 0-.621.906-.621 1.336-.621v-.696c-.594.051-1.84.051-2.485.051-.789 0-.835 0-2.293-.051v.696c1.34 0 1.579.093 1.864.836l3.418 8.554c.121.336.168.453.453.453.168 0 .312-.046.48-.453zm12.918 2.914c0-3.082-2.34-5.543-5.114-5.543-2.867 0-5.136 2.531-5.136 5.543 0 3.059 2.386 5.351 5.113 5.351 2.816 0 5.137-2.339 5.137-5.351m-5.114 4.824c-.886 0-1.96-.379-2.652-1.551-.648-1.074-.672-2.484-.672-3.488 0-.91 0-2.367.742-3.441a3.06 3.06 0 0 1 2.559-1.41c.93 0 1.934.429 2.578 1.363.742 1.097.742 2.605.742 3.488 0 .836 0 2.316-.621 3.441-.668 1.149-1.769 1.598-2.676 1.598m38.067-6.09c0-1.289 0-2.246-1.051-3.179-.836-.762-1.91-1.098-2.961-1.098-1.961 0-3.465 1.289-3.465 2.844 0 .691.453 1.027 1.004 1.027.574 0 .981-.406.981-.98 0-.981-.864-.981-1.219-.981.547-1.004 1.695-1.433 2.648-1.433 1.102 0 2.512.91 2.512 3.058v.957c-4.805.07-6.617 2.078-6.617 3.918 0 1.891 2.195 2.484 3.652 2.484 1.578 0 2.657-.953 3.11-2.101.093 1.125.836 1.984 1.863 1.984.5 0 1.887-.336 1.887-2.246v-1.34h-.524v1.34c0 1.363-.574 1.555-.91 1.555-.91 0-.91-1.27-.91-1.625zm-1.551 3.012c0 2.34-1.742 3.129-2.773 3.129-1.168 0-2.149-.859-2.149-2.008 0-3.152 4.063-3.441 4.922-3.488zm33.91-11.949c0-.551 0-.574-.476-.574-.575.644-1.77 1.527-4.231 1.527v.695c.551 0 1.746 0 3.059-.621v12.449c0 .86-.07 1.149-2.172 1.149h-.742v.691c.644-.047 2.961-.047 3.75-.047s3.086 0 3.726.047v-.691h-.738c-2.102 0-2.176-.289-2.176-1.149zm-256.945-83.09c0-.434 0-.551-.238-.551-.192 0-.645.524-.813.742-.738-.597-1.48-.742-2.246-.742-2.89 0-3.75 1.578-3.75 2.891 0 .265 0 1.101.906 1.937.766.668 1.578.836 2.68 1.051 1.313.262 1.625.332 2.219.813.43.359.742.882.742 1.55 0 1.032-.598 2.176-2.7 2.176-1.577 0-2.722-.906-3.25-3.297-.097-.429-.097-.453-.12-.476-.047-.098-.141-.098-.215-.098-.262 0-.262.121-.262.551v3.25c0 .43 0 .551.238.551.121 0 .145-.024.551-.528.117-.168.117-.215.477-.597.906 1.125 2.199 1.125 2.605 1.125 2.508 0 3.75-1.387 3.75-3.274 0-1.293-.785-2.058-1.004-2.273-.86-.739-1.504-.883-3.082-1.172-.715-.141-2.46-.477-2.46-1.91 0-.739.503-1.84 2.652-1.84 2.605 0 2.75 2.223 2.797 2.965.023.191.19.191.261.191.262 0 .262-.121.262-.551zm10.516 4.562c.527 0 .574 0 .574-.453 0-2.414-1.29-4.66-4.184-4.66-2.722 0-4.824 2.461-4.824 5.426 0 3.152 2.438 5.473 5.09 5.473 2.844 0 3.918-2.582 3.918-3.086 0-.145-.121-.239-.262-.239-.191 0-.242.121-.289.239-.621 2.007-2.219 2.558-3.227 2.558-1 0-3.414-.668-3.414-4.804v-.454zm-6.594-.453c.191-3.754 2.293-4.183 2.96-4.183 2.56 0 2.704 3.371 2.727 4.183zm43.355-3.609h3.371v-.691h-3.37v-4.399h-.524c-.024 2.246-.887 4.539-3.059 4.613v.477h2.031v6.644c0 2.653 1.766 3.204 3.036 3.204 1.504 0 2.293-1.485 2.293-3.204v-1.363h-.528v1.317c0 1.718-.691 2.722-1.625 2.722-1.625 0-1.625-2.222-1.625-2.629zm16.055 4.492c0-3.082-2.34-5.543-5.113-5.543-2.867 0-5.137 2.531-5.137 5.543 0 3.059 2.387 5.356 5.113 5.356 2.821 0 5.137-2.344 5.137-5.356m-5.113 4.828c-.883 0-1.961-.383-2.653-1.554-.644-1.075-.668-2.485-.668-3.489 0-.91 0-2.367.739-3.441a3.06 3.06 0 0 1 2.558-1.41c.934 0 1.938.429 2.578 1.363.743 1.098.743 2.605.743 3.488 0 .836 0 2.321-.622 3.442-.667 1.148-1.765 1.601-2.675 1.601m9.961-9.32h3.367v-.691h-3.367v-4.399h-.528c-.023 2.246-.883 4.539-3.058 4.613v.477h2.031v6.644c0 2.653 1.769 3.204 3.035 3.204 1.508 0 2.293-1.485 2.293-3.204v-1.363h-.523v1.317c0 1.718-.696 2.722-1.625 2.722-1.625 0-1.625-2.222-1.625-2.629zm14.308 3.227c0-1.29 0-2.247-1.051-3.18-.835-.762-1.914-1.098-2.964-1.098-1.957 0-3.465 1.289-3.465 2.844 0 .691.453 1.027 1.004 1.027.574 0 .98-.406.98-.98 0-.981-.859-.981-1.219-.981.551-1.004 1.696-1.433 2.653-1.433 1.097 0 2.508.91 2.508 3.058v.957c-4.801.071-6.618 2.078-6.618 3.918 0 1.891 2.2 2.489 3.657 2.489 1.574 0 2.652-.957 3.105-2.106.094 1.125.836 1.985 1.863 1.985.504 0 1.887-.336 1.887-2.247v-1.339h-.523v1.339c0 1.364-.575 1.555-.907 1.555-.91 0-.91-1.269-.91-1.625zm-1.554 3.011c0 2.34-1.743 3.129-2.774 3.129-1.168 0-2.148-.859-2.148-2.008 0-3.152 4.062-3.441 4.922-3.488zm8.14-13.215-3.32.262v.695c1.625 0 1.816.164 1.816 1.336v12.524c0 1.074-.265 1.074-1.816 1.074v.691c.668-.046 1.84-.046 2.555-.046.718 0 1.914 0 2.582.046v-.691c-1.532 0-1.817 0-1.817-1.074zm11.543 11.039c.524 0 .574 0 .574-.453 0-2.414-1.293-4.66-4.183-4.66-2.723 0-4.828 2.461-4.828 5.426 0 3.152 2.437 5.473 5.089 5.473 2.844 0 3.922-2.582 3.922-3.086 0-.145-.121-.239-.265-.239-.192 0-.239.121-.285.239-.622 2.007-2.223 2.558-3.227 2.558s-3.418-.668-3.418-4.804v-.454zm-6.598-.453c.192-3.754 2.297-4.183 2.965-4.183 2.559 0 2.7 3.371 2.723 4.183zm46.594-5.64c.43-.192.477-.36.477-.5a.44.44 0 0 0-.453-.457c-.051 0-.075.023-.407.168l-12.929 5.949c-.43.195-.477.359-.477.504 0 .168.024.308.477.527l12.929 5.949c.313.145.356.168.407.168a.44.44 0 0 0 .453-.453c0-.144-.047-.312-.477-.504l-12.308-5.664zm36.156 3.992c0-1.984-.121-3.918-.976-5.738-.981-1.981-2.703-2.508-3.875-2.508-1.387 0-3.082.695-3.965 2.676-.672 1.507-.91 2.988-.91 5.57 0 2.316.168 4.062 1.027 5.758.934 1.816 2.582 2.39 3.824 2.39 2.079 0 3.274-1.242 3.965-2.629.864-1.793.91-4.132.91-5.519m-4.875 7.668c-.765 0-2.316-.43-2.769-3.031-.266-1.438-.266-3.25-.266-4.926 0-1.957 0-3.727.383-5.137.406-1.601 1.625-2.344 2.652-2.344.911 0 2.293.551 2.75 2.606.309 1.363.309 3.25.309 4.875 0 1.601 0 3.418-.262 4.875-.453 2.629-1.961 3.082-2.797 3.082m41.481-9.629h2.699v-.691h-2.746v-2.797c0-2.149 1.098-3.25 2.078-3.25.192 0 .547.047.836.191-.094.024-.695.238-.695.934 0 .547.383.929.933.929.575 0 .957-.382.957-.953 0-.886-.859-1.578-2.007-1.578-1.672 0-3.563 1.289-3.563 3.727v2.797h-1.863v.691h1.863v7.84c0 1.074-.262 1.074-1.812 1.074v.691c.668-.046 1.98-.046 2.699-.046.644 0 2.34 0 2.89.046v-.691h-.476c-1.746 0-1.793-.262-1.793-1.121zm12.211 3.227c0-1.29 0-2.247-1.051-3.18-.836-.762-1.91-1.098-2.961-1.098-1.961 0-3.465 1.289-3.465 2.844 0 .691.453 1.027 1.004 1.027.574 0 .981-.406.981-.98 0-.981-.864-.981-1.219-.981.547-1.004 1.695-1.433 2.648-1.433 1.102 0 2.512.91 2.512 3.058v.957c-4.805.071-6.617 2.078-6.617 3.918 0 1.891 2.195 2.489 3.652 2.489 1.578 0 2.657-.957 3.11-2.106.093 1.125.836 1.985 1.863 1.985.5 0 1.887-.336 1.887-2.247v-1.339h-.524v1.339c0 1.364-.574 1.555-.91 1.555-.91 0-.91-1.269-.91-1.625zm-1.551 3.011c0 2.34-1.742 3.129-2.773 3.129-1.168 0-2.149-.859-2.149-2.008 0-3.152 4.063-3.441 4.922-3.488zm8.188-11.351c0-.621-.504-1.172-1.172-1.172-.621 0-1.145.504-1.145 1.148 0 .715.571 1.172 1.145 1.172.742 0 1.172-.625 1.172-1.148m-3.297 4.445v.691c1.527 0 1.742.145 1.742 1.317v6.5c0 1.074-.262 1.074-1.816 1.074v.691c.671-.046 1.816-.046 2.511-.046.262 0 1.649 0 2.461.046v-.691c-1.555 0-1.648-.121-1.648-1.051v-8.797zm10.035 1.121c0-.644-.551-1.144-1.149-1.144-.691 0-1.168.546-1.168 1.144 0 .719.598 1.172 1.149 1.172.644 0 1.168-.5 1.168-1.172m0 7.984c0-.644-.551-1.148-1.149-1.148-.691 0-1.168.551-1.168 1.148 0 .715.598 1.168 1.149 1.168.644 0 1.168-.5 1.168-1.168M72.648-342.641c-.285 0-1.167 0-1.167.977 0 .574.406.98.98.98.547 0 1-.332 1-1.027 0-1.602-1.672-2.746-3.605-2.746-2.797 0-5.02 2.484-5.02 5.496 0 3.059 2.293 5.398 4.996 5.398 3.152 0 3.871-2.867 3.871-3.082s-.168-.214-.242-.214c-.211 0-.238.07-.309.359-.527 1.695-1.816 2.41-3.105 2.41-1.461 0-3.395-1.262-3.395-4.894 0-3.969 2.032-4.95 3.227-4.95.906 0 2.223.36 2.77 1.293m10.976 2.461c0-1.289 0-2.246-1.05-3.179-.84-.762-1.915-1.098-2.966-1.098-1.96 0-3.465 1.289-3.465 2.844 0 .691.454 1.027 1.004 1.027.575 0 .98-.406.98-.98 0-.981-.862-.981-1.218-.981.55-1.004 1.696-1.433 2.653-1.433 1.097 0 2.507.91 2.507 3.058v.957c-4.804.07-6.617 2.078-6.617 3.918 0 1.891 2.195 2.484 3.656 2.484 1.575 0 2.653-.953 3.106-2.101.094 1.125.836 1.984 1.863 1.984.5 0 1.887-.336 1.887-2.246v-1.34h-.524v1.34c0 1.363-.574 1.555-.91 1.555-.906 0-.906-1.27-.906-1.625zm-1.555 3.012c0 2.34-1.742 3.129-2.773 3.129-1.168 0-2.149-.859-2.149-2.008 0-3.152 4.063-3.441 4.922-3.488zm21.164-2.437c0-2.223 0-2.891-.55-3.657-.692-.933-1.817-1.078-2.629-1.078-1.985 0-2.985 1.434-3.368 2.367-.335-1.84-1.624-2.367-3.132-2.367-2.317 0-3.227 1.985-3.414 2.461h-.028v-2.461l-3.25.266v.691c1.625 0 1.817.168 1.817 1.34v6.473c0 1.078-.262 1.078-1.817 1.078v.691c.621-.047 1.914-.047 2.582-.047.696 0 1.985 0 2.606.047v-.691c-1.532 0-1.817 0-1.817-1.078v-4.442c0-2.511 1.649-3.847 3.13-3.847 1.484 0 1.816 1.218 1.816 2.675v5.614c0 1.078-.262 1.078-1.817 1.078v.691c.621-.047 1.914-.047 2.582-.047.696 0 1.985 0 2.606.047v-.691c-1.532 0-1.817 0-1.817-1.078v-4.442c0-2.511 1.649-3.847 3.13-3.847s1.816 1.218 1.816 2.675v5.614c0 1.078-.262 1.078-1.817 1.078v.691c.621-.047 1.914-.047 2.582-.047.696 0 1.985 0 2.606.047v-.691c-1.196 0-1.793 0-1.817-.719zm5.758-10.778-3.324.262v.691c1.625 0 1.816.168 1.816 1.34v14.289h.528c.093-.191.761-1.387.859-1.551.551.883 1.578 1.789 3.106 1.789 2.75 0 5.164-2.316 5.164-5.398 0-3.035-2.246-5.379-4.899-5.379-1.316 0-2.437.598-3.25 1.602zm.047 8.938c0-.434 0-.481.262-.864.574-.859 1.625-1.55 2.797-1.55.715 0 3.226.285 3.226 4.875 0 1.601-.238 2.601-.812 3.464-.481.739-1.434 1.481-2.629 1.481-1.289 0-2.129-.836-2.535-1.481-.309-.503-.309-.597-.309-1.003zm13.117-7.075c0-.621-.5-1.171-1.168-1.171a1.15 1.15 0 0 0-1.148 1.148c0 .715.574 1.172 1.148 1.172.739 0 1.168-.625 1.168-1.149m-3.297 4.446v.691c1.532 0 1.746.145 1.746 1.313v6.5c0 1.078-.261 1.078-1.816 1.078v.691c.668-.047 1.816-.047 2.508-.047.266 0 1.648 0 2.461.047v-.691c-1.551 0-1.649-.121-1.649-1.051v-8.797zm14.864 3.894c0-1.289 0-2.246-1.051-3.179-.836-.762-1.91-1.098-2.961-1.098-1.961 0-3.469 1.289-3.469 2.844 0 .691.457 1.027 1.004 1.027.574 0 .981-.406.981-.98 0-.981-.86-.981-1.219-.981.551-1.004 1.699-1.433 2.652-1.433 1.102 0 2.512.91 2.512 3.058v.957c-4.805.07-6.621 2.078-6.621 3.918 0 1.891 2.199 2.484 3.656 2.484 1.578 0 2.652-.953 3.106-2.101.097 1.125.835 1.984 1.867 1.984.5 0 1.886-.336 1.886-2.246v-1.34h-.527v1.34c0 1.363-.57 1.555-.906 1.555-.91 0-.91-1.27-.91-1.625zm-1.551 3.012c0 2.34-1.746 3.129-2.774 3.129-1.171 0-2.152-.859-2.152-2.008 0-3.152 4.067-3.441 4.926-3.488zm31.043-6.238h3.371v-.696h-3.371v-4.394h-.527c-.024 2.246-.883 4.539-3.059 4.613v.477h2.031v6.644c0 2.653 1.77 3.199 3.035 3.199 1.508 0 2.297-1.48 2.297-3.199v-1.363h-.527v1.312c0 1.723-.692 2.723-1.625 2.723-1.625 0-1.625-2.219-1.625-2.625zm16.055 4.492c0-3.082-2.344-5.543-5.114-5.543-2.867 0-5.14 2.531-5.14 5.543 0 3.059 2.39 5.351 5.117 5.351 2.816 0 5.137-2.339 5.137-5.351m-5.114 4.824c-.886 0-1.961-.379-2.652-1.551-.649-1.074-.672-2.484-.672-3.488 0-.91 0-2.367.742-3.441a3.06 3.06 0 0 1 2.559-1.41c.93 0 1.933.429 2.578 1.363.742 1.097.742 2.605.742 3.488 0 .836 0 2.316-.621 3.441-.668 1.149-1.769 1.598-2.676 1.598m9.86-9.316h3.367v-.696h-3.367v-4.394h-.528c-.023 2.246-.883 4.539-3.058 4.613v.477h2.031v6.644c0 2.653 1.769 3.199 3.035 3.199 1.508 0 2.293-1.48 2.293-3.199v-1.363h-.523v1.312c0 1.723-.696 2.723-1.625 2.723-1.625 0-1.625-2.219-1.625-2.625zm14.308 3.226c0-1.289 0-2.246-1.051-3.179-.835-.762-1.914-1.098-2.964-1.098-1.957 0-3.465 1.289-3.465 2.844 0 .691.453 1.027 1.004 1.027.574 0 .98-.406.98-.98 0-.981-.859-.981-1.219-.981.551-1.004 1.696-1.433 2.653-1.433 1.097 0 2.508.91 2.508 3.058v.957c-4.801.07-6.618 2.078-6.618 3.918 0 1.891 2.2 2.484 3.657 2.484 1.574 0 2.652-.953 3.105-2.101.094 1.125.836 1.984 1.863 1.984.504 0 1.887-.336 1.887-2.246v-1.34h-.523v1.34c0 1.363-.575 1.555-.907 1.555-.91 0-.91-1.27-.91-1.625zm-1.554 3.012c0 2.34-1.743 3.129-2.774 3.129-1.168 0-2.148-.859-2.148-2.008 0-3.152 4.062-3.441 4.922-3.488zm8.14-13.215-3.32.262v.691c1.625 0 1.816.168 1.816 1.34v12.52c0 1.078-.265 1.078-1.816 1.078v.691c.668-.047 1.84-.047 2.555-.047.718 0 1.914 0 2.582.047v-.691c-1.532 0-1.817 0-1.817-1.078zm11.543 11.039c.524 0 .574 0 .574-.453 0-2.414-1.293-4.66-4.183-4.66-2.723 0-4.828 2.461-4.828 5.426 0 3.152 2.437 5.468 5.089 5.468 2.844 0 3.922-2.578 3.922-3.082 0-.144-.121-.238-.265-.238-.192 0-.239.121-.285.238-.622 2.008-2.223 2.555-3.227 2.555s-3.418-.668-3.418-4.801v-.453zm-6.598-.453c.192-3.754 2.297-4.183 2.965-4.183 2.559 0 2.7 3.371 2.723 4.183zm38.012-10.324v.691c1.625 0 1.821.168 1.821 1.34v5.281c-.504-.695-1.532-1.531-2.989-1.531-2.773 0-5.164 2.344-5.164 5.402 0 3.036 2.27 5.375 4.903 5.375 1.816 0 2.867-1.195 3.199-1.648v1.648l3.371-.238v-.691c-1.625 0-1.817-.168-1.817-1.34v-14.551zm1.77 13.527c0 .43 0 .5-.332 1.024-.575.84-1.555 1.531-2.75 1.531-.621 0-3.203-.238-3.203-4.875 0-1.719.289-2.676.812-3.465.477-.742 1.434-1.48 2.629-1.48 1.48 0 2.316 1.074 2.559 1.457.285.406.285.453.285.882zm8.222-11.926c0-.621-.504-1.171-1.171-1.171a1.15 1.15 0 0 0-1.149 1.148c0 .715.574 1.172 1.149 1.172.742 0 1.171-.625 1.171-1.149m-3.296 4.446v.691c1.527 0 1.742.145 1.742 1.313v6.5c0 1.078-.262 1.078-1.817 1.078v.691c.668-.047 1.817-.047 2.508-.047.266 0 1.652 0 2.465.047v-.691c-1.555 0-1.648-.121-1.648-1.051v-8.797zm35.113 5.758v-1.289h-6.211v1.289zm8.207-10.801c0-.551 0-.574-.477-.574-.574.644-1.769 1.527-4.23 1.527v.695c.551 0 1.742 0 3.058-.621v12.449c0 .86-.074 1.149-2.175 1.149h-.739v.691c.645-.047 2.961-.047 3.75-.047s3.082 0 3.727.047v-.691h-.742c-2.102 0-2.172-.289-2.172-1.149zm-250.16-53.762c0-1.293 0-2.25-1.051-3.18-.836-.765-1.91-1.097-2.961-1.097-1.961 0-3.469 1.289-3.469 2.843 0 .692.457 1.028 1.008 1.028.57 0 .977-.406.977-.981 0-.98-.86-.98-1.22-.98.552-1.004 1.7-1.434 2.653-1.434 1.102 0 2.512.907 2.512 3.059v.957c-4.805.07-6.621 2.078-6.621 3.918 0 1.887 2.199 2.484 3.656 2.484 1.578 0 2.652-.957 3.105-2.101.098 1.121.836 1.98 1.868 1.98.5 0 1.886-.332 1.886-2.246v-1.336h-.527v1.336c0 1.363-.57 1.555-.906 1.555-.91 0-.91-1.266-.91-1.625zm-1.551 3.012c0 2.34-1.746 3.129-2.774 3.129-1.171 0-2.148-.864-2.148-2.008 0-3.152 4.063-3.442 4.922-3.488zm8.141-13.219-3.325.266v.691c1.625 0 1.817.168 1.817 1.336v12.523c0 1.075-.262 1.075-1.817 1.075v.695c.668-.047 1.84-.047 2.559-.047.715 0 1.91 0 2.578.047v-.695c-1.527 0-1.812 0-1.812-1.075zm6.402 6.981h3.37v-.696h-3.37v-4.394h-.528c-.023 2.246-.882 4.539-3.058 4.609v.481h2.031v6.64c0 2.652 1.77 3.203 3.035 3.203 1.508 0 2.297-1.48 2.297-3.203v-1.359h-.527v1.312c0 1.723-.692 2.723-1.625 2.723-1.625 0-1.625-2.219-1.625-2.625zm9.075 4.039c0-2.321.956-4.497 2.796-4.497.191 0 .238 0 .336.028-.191.094-.574.238-.574.883 0 .691.55.957.933.957.477 0 .953-.313.953-.957 0-.715-.644-1.387-1.671-1.387-2.032 0-2.723 2.199-2.868 2.652h-.023v-2.652l-3.203.266v.691c1.625 0 1.816.168 1.816 1.34v6.472c0 1.075-.262 1.075-1.816 1.075v.695c.668-.047 1.984-.047 2.699-.047.644 0 2.344 0 2.894.047v-.695h-.48c-1.742 0-1.793-.262-1.793-1.121zm9.269-9.153c0-.625-.504-1.172-1.172-1.172-.621 0-1.145.5-1.145 1.149 0 .715.57 1.168 1.145 1.168.742 0 1.172-.621 1.172-1.145m-3.297 4.446v.691c1.527 0 1.742.144 1.742 1.312v6.5c0 1.075-.262 1.075-1.817 1.075v.695c.672-.047 1.817-.047 2.512-.047.262 0 1.649 0 2.461.047v-.695c-1.554 0-1.648-.118-1.648-1.047v-8.797zm22.773 4.468c0-2.226 0-2.894-.55-3.66-.696-.93-1.817-1.074-2.63-1.074-1.984 0-2.988 1.434-3.37 2.367-.333-1.84-1.626-2.367-3.13-2.367-2.316 0-3.226 1.984-3.418 2.461h-.023v-2.461l-3.25.266v.691c1.625 0 1.817.168 1.817 1.34v6.472c0 1.075-.262 1.075-1.817 1.075v.695c.621-.047 1.914-.047 2.582-.047.692 0 1.985 0 2.606.047v-.695c-1.532 0-1.817 0-1.817-1.075v-4.445c0-2.508 1.649-3.848 3.13-3.848 1.483 0 1.816 1.219 1.816 2.68v5.613c0 1.075-.262 1.075-1.817 1.075v.695c.621-.047 1.914-.047 2.582-.047.692 0 1.98 0 2.606.047v-.695c-1.532 0-1.817 0-1.817-1.075v-4.445c0-2.508 1.649-3.848 3.13-3.848s1.816 1.219 1.816 2.68v5.613c0 1.075-.262 1.075-1.817 1.075v.695c.621-.047 1.914-.047 2.582-.047.692 0 1.98 0 2.606.047v-.695c-1.196 0-1.793 0-1.817-.715zm11.52.262c.523 0 .574 0 .574-.453 0-2.414-1.293-4.66-4.184-4.66-2.726 0-4.828 2.461-4.828 5.422 0 3.156 2.438 5.472 5.09 5.472 2.844 0 3.922-2.582 3.922-3.082 0-.144-.121-.238-.266-.238-.191 0-.242.117-.285.238-.625 2.008-2.223 2.555-3.226 2.555s-3.418-.668-3.418-4.801v-.453zm-6.598-.453c.191-3.754 2.297-4.184 2.965-4.184 2.555 0 2.699 3.367 2.723 4.184zm18.477.191c0-2.226 0-2.894-.551-3.66-.692-.93-1.813-1.074-2.625-1.074-2.32 0-3.227 1.984-3.418 2.461h-.027v-2.461l-3.25.266v.691c1.625 0 1.82.168 1.82 1.34v6.472c0 1.075-.266 1.075-1.82 1.075v.695c.625-.047 1.914-.047 2.582-.047.695 0 1.984 0 2.605.047v-.695c-1.531 0-1.816 0-1.816-1.075v-4.445c0-2.508 1.648-3.848 3.129-3.848 1.484 0 1.82 1.219 1.82 2.68v5.613c0 1.075-.266 1.075-1.82 1.075v.695c.625-.047 1.914-.047 2.582-.047.695 0 1.984 0 2.605.047v-.695c-1.195 0-1.793 0-1.816-.715zm5.781-3.8h3.371v-.696h-3.371v-4.394h-.527c-.024 2.246-.883 4.539-3.059 4.609v.481h2.031v6.64c0 2.652 1.77 3.203 3.035 3.203 1.508 0 2.297-1.48 2.297-3.203v-1.359h-.527v1.312c0 1.723-.692 2.723-1.625 2.723-1.625 0-1.625-2.219-1.625-2.625zm9.242-5.114c0-.625-.5-1.172-1.168-1.172-.625 0-1.148.5-1.148 1.149a1.15 1.15 0 0 0 1.148 1.168c.738 0 1.168-.621 1.168-1.145m-3.297 4.446v.691c1.528 0 1.746.144 1.746 1.312v6.5c0 1.075-.265 1.075-1.816 1.075v.695c.668-.047 1.816-.047 2.508-.047.261 0 1.648 0 2.461.047v-.695c-1.551 0-1.649-.118-1.649-1.047v-8.797zm10.035 1.121c0-.645-.547-1.149-1.144-1.149-.696 0-1.172.551-1.172 1.149a1.17 1.17 0 0 0 1.148 1.172c.645 0 1.168-.504 1.168-1.172m0 7.98c0-.644-.547-1.148-1.144-1.148-.696 0-1.172.55-1.172 1.148 0 .719.598 1.172 1.148 1.172.645 0 1.168-.504 1.168-1.172m-71.047-77.469c-.285 0-1.167 0-1.167.977 0 .574.406.98.98.98.547 0 1-.332 1-1.027 0-1.602-1.672-2.746-3.605-2.746-2.797 0-5.02 2.484-5.02 5.496 0 3.059 2.293 5.398 4.996 5.398 3.152 0 3.871-2.867 3.871-3.082s-.168-.214-.242-.214c-.211 0-.238.07-.309.359-.527 1.695-1.816 2.41-3.105 2.41-1.461 0-3.395-1.262-3.395-4.894 0-3.969 2.032-4.95 3.227-4.95.906 0 2.223.36 2.77 1.293m10.976 2.461c0-1.289 0-2.246-1.05-3.179-.84-.762-1.915-1.098-2.966-1.098-1.96 0-3.465 1.289-3.465 2.844 0 .691.454 1.027 1.004 1.027.575 0 .98-.406.98-.98 0-.981-.862-.981-1.218-.981.55-1.004 1.696-1.433 2.653-1.433 1.097 0 2.507.91 2.507 3.058v.957c-4.804.07-6.617 2.078-6.617 3.918 0 1.891 2.195 2.484 3.656 2.484 1.575 0 2.653-.953 3.106-2.101.094 1.121.836 1.984 1.863 1.984.5 0 1.887-.336 1.887-2.246v-1.34h-.524v1.34c0 1.363-.574 1.555-.91 1.555-.906 0-.906-1.27-.906-1.625zm-1.555 3.012c0 2.34-1.742 3.129-2.773 3.129-1.168 0-2.149-.859-2.149-2.008 0-3.152 4.063-3.441 4.922-3.488zm21.164-2.437c0-2.223 0-2.891-.55-3.657-.692-.933-1.817-1.078-2.629-1.078-1.985 0-2.985 1.434-3.368 2.367-.335-1.84-1.624-2.367-3.132-2.367-2.317 0-3.227 1.985-3.414 2.461h-.028v-2.461l-3.25.266v.691c1.625 0 1.817.168 1.817 1.34v6.473c0 1.078-.262 1.078-1.817 1.078v.691c.621-.047 1.914-.047 2.582-.047.696 0 1.985 0 2.606.047v-.691c-1.532 0-1.817 0-1.817-1.078v-4.442c0-2.511 1.649-3.847 3.13-3.847 1.484 0 1.816 1.218 1.816 2.675v5.614c0 1.078-.262 1.078-1.817 1.078v.691c.621-.047 1.914-.047 2.582-.047.696 0 1.985 0 2.606.047v-.691c-1.532 0-1.817 0-1.817-1.078v-4.442c0-2.511 1.649-3.847 3.13-3.847s1.816 1.218 1.816 2.675v5.614c0 1.078-.262 1.078-1.817 1.078v.691c.621-.047 1.914-.047 2.582-.047.696 0 1.985 0 2.606.047v-.691c-1.196 0-1.793 0-1.817-.719zm5.758-10.778-3.324.262v.691c1.625 0 1.816.168 1.816 1.34v14.289h.528c.093-.191.761-1.387.859-1.551.551.883 1.578 1.789 3.106 1.789 2.75 0 5.164-2.316 5.164-5.398 0-3.035-2.246-5.379-4.899-5.379-1.316 0-2.437.598-3.25 1.602zm.047 8.938c0-.434 0-.481.262-.864.574-.859 1.625-1.55 2.797-1.55.715 0 3.226.285 3.226 4.875 0 1.601-.238 2.601-.812 3.464-.481.739-1.434 1.481-2.629 1.481-1.289 0-2.129-.836-2.535-1.481-.309-.503-.309-.597-.309-1.003zm13.117-7.075c0-.621-.5-1.171-1.168-1.171a1.15 1.15 0 0 0-1.148 1.148c0 .715.574 1.172 1.148 1.172.739 0 1.168-.625 1.168-1.149m-3.297 4.446v.691c1.532 0 1.746.145 1.746 1.313v6.5c0 1.078-.261 1.078-1.816 1.078v.691c.668-.047 1.816-.047 2.508-.047.266 0 1.648 0 2.461.047v-.691c-1.551 0-1.649-.121-1.649-1.051v-8.797zm14.864 3.894c0-1.289 0-2.246-1.051-3.179-.836-.762-1.91-1.098-2.961-1.098-1.961 0-3.469 1.289-3.469 2.844 0 .691.457 1.027 1.004 1.027.574 0 .981-.406.981-.98 0-.981-.86-.981-1.219-.981.551-1.004 1.699-1.433 2.652-1.433 1.102 0 2.512.91 2.512 3.058v.957c-4.805.07-6.621 2.078-6.621 3.918 0 1.891 2.199 2.484 3.656 2.484 1.578 0 2.652-.953 3.106-2.101.097 1.121.835 1.984 1.867 1.984.5 0 1.886-.336 1.886-2.246v-1.34h-.527v1.34c0 1.363-.57 1.555-.906 1.555-.91 0-.91-1.27-.91-1.625zm-1.551 3.012c0 2.34-1.746 3.129-2.774 3.129-1.171 0-2.152-.859-2.152-2.008 0-3.152 4.067-3.441 4.926-3.488zm31.043-6.238h3.371v-.696h-3.371v-4.394h-.527c-.024 2.246-.883 4.539-3.059 4.613v.477h2.031v6.644c0 2.653 1.77 3.199 3.035 3.199 1.508 0 2.297-1.48 2.297-3.199v-1.363h-.527v1.312c0 1.723-.692 2.723-1.625 2.723-1.625 0-1.625-2.219-1.625-2.625zm16.055 4.492c0-3.082-2.344-5.543-5.114-5.543-2.867 0-5.14 2.531-5.14 5.543 0 3.059 2.39 5.351 5.117 5.351 2.816 0 5.137-2.339 5.137-5.351m-5.114 4.824c-.886 0-1.961-.379-2.652-1.551-.649-1.074-.672-2.484-.672-3.488 0-.91 0-2.367.742-3.441a3.06 3.06 0 0 1 2.559-1.41c.93 0 1.933.429 2.578 1.363.742 1.097.742 2.605.742 3.488 0 .836 0 2.316-.621 3.441-.668 1.145-1.769 1.598-2.676 1.598m9.86-9.316h3.367v-.696h-3.367v-4.394h-.528c-.023 2.246-.883 4.539-3.058 4.613v.477h2.031v6.644c0 2.653 1.769 3.199 3.035 3.199 1.508 0 2.293-1.48 2.293-3.199v-1.363h-.523v1.312c0 1.723-.696 2.723-1.625 2.723-1.625 0-1.625-2.219-1.625-2.625zm14.308 3.226c0-1.289 0-2.246-1.051-3.179-.835-.762-1.914-1.098-2.964-1.098-1.957 0-3.465 1.289-3.465 2.844 0 .691.453 1.027 1.004 1.027.574 0 .98-.406.98-.98 0-.981-.859-.981-1.219-.981.551-1.004 1.696-1.433 2.653-1.433 1.097 0 2.508.91 2.508 3.058v.957c-4.801.07-6.618 2.078-6.618 3.918 0 1.891 2.2 2.484 3.657 2.484 1.574 0 2.652-.953 3.105-2.101.094 1.121.836 1.984 1.863 1.984.504 0 1.887-.336 1.887-2.246v-1.34h-.523v1.34c0 1.363-.575 1.555-.907 1.555-.91 0-.91-1.27-.91-1.625zm-1.554 3.012c0 2.34-1.743 3.129-2.774 3.129-1.168 0-2.148-.859-2.148-2.008 0-3.152 4.062-3.441 4.922-3.488zm8.14-13.215-3.32.262v.691c1.625 0 1.816.168 1.816 1.34v12.52c0 1.078-.265 1.078-1.816 1.078v.691c.668-.047 1.84-.047 2.555-.047.718 0 1.914 0 2.582.047v-.691c-1.532 0-1.817 0-1.817-1.078zm11.543 11.039c.524 0 .574 0 .574-.453 0-2.414-1.293-4.66-4.183-4.66-2.723 0-4.828 2.461-4.828 5.426 0 3.152 2.437 5.468 5.089 5.468 2.844 0 3.922-2.578 3.922-3.082 0-.144-.121-.238-.265-.238-.192 0-.239.121-.285.238-.622 2.008-2.223 2.555-3.227 2.555s-3.418-.668-3.418-4.801v-.453zm-6.598-.453c.192-3.754 2.297-4.183 2.965-4.183 2.559 0 2.7 3.371 2.723 4.183zm38.012-10.324v.691c1.625 0 1.821.168 1.821 1.34v5.281c-.504-.695-1.532-1.531-2.989-1.531-2.773 0-5.164 2.344-5.164 5.402 0 3.036 2.27 5.375 4.903 5.375 1.816 0 2.867-1.195 3.199-1.648v1.648l3.371-.238v-.691c-1.625 0-1.817-.168-1.817-1.34v-14.551zm1.77 13.527c0 .426 0 .5-.332 1.024-.575.84-1.555 1.531-2.75 1.531-.621 0-3.203-.238-3.203-4.875 0-1.719.289-2.676.812-3.465.477-.742 1.434-1.48 2.629-1.48 1.48 0 2.316 1.074 2.559 1.457.285.406.285.453.285.882zm8.222-11.926c0-.621-.504-1.171-1.171-1.171a1.15 1.15 0 0 0-1.149 1.148c0 .715.574 1.172 1.149 1.172.742 0 1.171-.625 1.171-1.149m-3.296 4.446v.691c1.527 0 1.742.145 1.742 1.313v6.5c0 1.078-.262 1.078-1.817 1.078v.691c.668-.047 1.817-.047 2.508-.047.266 0 1.652 0 2.465.047v-.691c-1.555 0-1.648-.121-1.648-1.051v-8.797zm35.519-5.043c0-.551 0-.574-.477-.574-.574.644-1.769 1.527-4.23 1.527v.695c.551 0 1.742 0 3.059-.621v12.449c0 .86-.075 1.149-2.176 1.149h-.738v.691c.644-.047 2.96-.047 3.75-.047.789 0 3.082 0 3.726.047v-.691h-.738c-2.102 0-2.176-.289-2.176-1.149zm-243.746-83.09c0-.434 0-.551-.238-.551-.192 0-.645.524-.813.742-.738-.597-1.48-.742-2.246-.742-2.89 0-3.75 1.578-3.75 2.891 0 .265 0 1.101.906 1.937.766.668 1.578.836 2.68 1.051 1.313.262 1.625.332 2.219.813.43.359.742.882.742 1.55 0 1.032-.598 2.176-2.7 2.176-1.577 0-2.722-.906-3.25-3.297-.097-.429-.097-.453-.12-.476-.047-.098-.141-.098-.215-.098-.262 0-.262.121-.262.551v3.25c0 .43 0 .551.238.551.121 0 .145-.024.551-.528.117-.168.117-.215.477-.597.906 1.125 2.199 1.125 2.605 1.125 2.508 0 3.75-1.387 3.75-3.274 0-1.293-.785-2.058-1.004-2.273-.86-.739-1.504-.883-3.082-1.172-.715-.141-2.46-.477-2.46-1.91 0-.739.503-1.84 2.652-1.84 2.605 0 2.75 2.223 2.797 2.965.023.191.19.191.261.191.262 0 .262-.121.262-.551zm10.516 4.562c.527 0 .574 0 .574-.453 0-2.414-1.29-4.66-4.184-4.66-2.722 0-4.824 2.461-4.824 5.426 0 3.152 2.438 5.473 5.09 5.473 2.844 0 3.918-2.582 3.918-3.086 0-.145-.121-.239-.262-.239-.191 0-.242.121-.289.239-.621 2.007-2.219 2.558-3.227 2.558-1 0-3.414-.668-3.414-4.804v-.454zm-6.594-.453c.191-3.754 2.293-4.183 2.96-4.183 2.56 0 2.704 3.371 2.727 4.183zm45.195 9.942c-1.527 0-1.812 0-1.812-1.078v-4.157c.43.598 1.406 1.532 2.937 1.532 2.75 0 5.16-2.321 5.16-5.403 0-3.035-2.246-5.379-4.847-5.379-2.106 0-3.227 1.508-3.301 1.602v-1.602l-3.32.266v.691c1.671 0 1.816.168 1.816 1.219v11.231c0 1.078-.266 1.078-1.817 1.078v.691c.622-.047 1.91-.047 2.583-.047.691 0 1.98 0 2.601.047zm-1.812-11.567c0-.453 0-.48.261-.859a3.44 3.44 0 0 1 2.793-1.531c1.793 0 3.227 2.175 3.227 4.851 0 2.844-1.625 4.922-3.465 4.922a2.8 2.8 0 0 1-1.91-.762c-.55-.55-.906-1.031-.906-1.699zm12.949 2.055c0-2.316.957-4.492 2.797-4.492.191 0 .238 0 .336.023-.192.094-.575.239-.575.883 0 .695.547.957.93.957.481 0 .957-.312.957-.957 0-.715-.644-1.387-1.672-1.387-2.031 0-2.722 2.2-2.867 2.657h-.023v-2.657l-3.203.266v.691c1.625 0 1.816.168 1.816 1.34v6.477c0 1.074-.266 1.074-1.816 1.074v.691c.668-.046 1.984-.046 2.699-.046.644 0 2.344 0 2.89.046v-.691h-.476c-1.742 0-1.793-.262-1.793-1.125zm16.18.453c0-3.082-2.344-5.543-5.114-5.543-2.867 0-5.14 2.531-5.14 5.543 0 3.059 2.39 5.356 5.117 5.356 2.816 0 5.137-2.344 5.137-5.356m-5.114 4.828c-.886 0-1.961-.383-2.652-1.554-.649-1.075-.672-2.485-.672-3.489 0-.91 0-2.367.742-3.441a3.06 3.06 0 0 1 2.559-1.41c.93 0 1.933.429 2.578 1.363.742 1.098.742 2.605.742 3.488 0 .836 0 2.321-.621 3.442-.668 1.148-1.769 1.601-2.676 1.601m13.684-9.82c0-.434 0-.551-.242-.551-.192 0-.645.524-.813.742-.738-.597-1.48-.742-2.246-.742-2.891 0-3.75 1.578-3.75 2.891 0 .265 0 1.101.906 1.937.766.668 1.578.836 2.676 1.051 1.317.262 1.625.332 2.223.813.429.359.742.882.742 1.55 0 1.032-.598 2.176-2.699 2.176-1.578 0-2.723-.906-3.25-3.297-.098-.429-.098-.453-.121-.476-.047-.098-.145-.098-.215-.098-.262 0-.262.121-.262.551v3.25c0 .43 0 .551.238.551.121 0 .145-.024.551-.528.117-.168.117-.215.477-.597.91 1.125 2.199 1.125 2.605 1.125 2.508 0 3.75-1.387 3.75-3.274 0-1.293-.789-2.058-1.004-2.273-.859-.739-1.504-.883-3.082-1.172-.715-.141-2.461-.477-2.461-1.91 0-.739.504-1.84 2.653-1.84 2.605 0 2.75 2.223 2.797 2.965.023.191.191.191.261.191.266 0 .266-.121.266-.551zm9.199 0c0-.434 0-.551-.242-.551-.188 0-.641.524-.813.742-.738-.597-1.48-.742-2.242-.742-2.894 0-3.754 1.578-3.754 2.891 0 .265 0 1.101.91 1.937.762.668 1.575.836 2.676 1.051 1.313.262 1.625.332 2.223.813.43.359.738.882.738 1.55 0 1.032-.597 2.176-2.699 2.176-1.578 0-2.723-.906-3.25-3.297-.094-.429-.094-.453-.117-.476-.051-.098-.145-.098-.215-.098-.266 0-.266.121-.266.551v3.25c0 .43 0 .551.239.551.121 0 .144-.024.55-.528.121-.168.121-.215.477-.597.91 1.125 2.199 1.125 2.605 1.125 2.508 0 3.75-1.387 3.75-3.274 0-1.293-.785-2.058-1-2.273-.863-.739-1.507-.883-3.086-1.172-.714-.141-2.46-.477-2.46-1.91 0-.739.503-1.84 2.656-1.84 2.601 0 2.746 2.223 2.793 2.965.023.191.191.191.261.191.266 0 .266-.121.266-.551zm5.52-4.613c0-.621-.504-1.172-1.172-1.172-.621 0-1.145.504-1.145 1.148 0 .715.571 1.172 1.145 1.172.742 0 1.172-.625 1.172-1.148m-3.297 4.445v.691c1.527 0 1.742.145 1.742 1.317v6.5c0 1.074-.262 1.074-1.816 1.074v.691c.671-.046 1.816-.046 2.511-.046.262 0 1.649 0 2.461.046v-.691c-1.555 0-1.648-.121-1.648-1.051v-8.797zm22.773 4.469c0-2.223 0-2.891-.551-3.657-.695-.933-1.816-1.078-2.629-1.078-1.984 0-2.988 1.438-3.371 2.368-.332-1.84-1.625-2.368-3.129-2.368-2.316 0-3.226 1.985-3.417 2.465h-.024v-2.465l-3.25.266v.691c1.625 0 1.816.168 1.816 1.34v6.477c0 1.074-.261 1.074-1.816 1.074v.691c.621-.046 1.914-.046 2.582-.046.692 0 1.984 0 2.606.046v-.691c-1.532 0-1.817 0-1.817-1.074v-4.446c0-2.507 1.649-3.847 3.129-3.847 1.484 0 1.816 1.219 1.816 2.676v5.617c0 1.074-.261 1.074-1.816 1.074v.691c.621-.046 1.914-.046 2.582-.046.692 0 1.981 0 2.606.046v-.691c-1.532 0-1.817 0-1.817-1.074v-4.446c0-2.507 1.649-3.847 3.129-3.847 1.481 0 1.816 1.219 1.816 2.676v5.617c0 1.074-.261 1.074-1.816 1.074v.691c.621-.046 1.914-.046 2.582-.046.692 0 1.981 0 2.606.046v-.691c-1.196 0-1.793 0-1.817-.715zm13.332.691c0-3.082-2.34-5.543-5.113-5.543-2.867 0-5.137 2.531-5.137 5.543 0 3.059 2.391 5.356 5.113 5.356 2.821 0 5.137-2.344 5.137-5.356m-5.113 4.828c-.883 0-1.957-.383-2.652-1.554-.645-1.075-.668-2.485-.668-3.489 0-.91 0-2.367.738-3.441a3.07 3.07 0 0 1 2.558-1.41c.934 0 1.938.429 2.583 1.363.742 1.098.742 2.605.742 3.488 0 .836 0 2.321-.625 3.442-.668 1.148-1.766 1.601-2.676 1.601m44.976-7.457c.333 0 .766 0 .766-.429 0-.454-.406-.454-.766-.454h-14.074c-.336 0-.765 0-.765.43 0 .453.406.453.765.453zm0 4.446c.333 0 .766 0 .766-.43 0-.453-.406-.453-.766-.453h-14.074c-.336 0-.765 0-.765.429 0 .454.406.454.765.454zm33.719-5.543c-.285 0-1.168 0-1.168.976 0 .574.407.981.977.981.551 0 1.004-.332 1.004-1.024 0-1.601-1.672-2.75-3.606-2.75-2.797 0-5.019 2.485-5.019 5.496 0 3.059 2.293 5.403 4.996 5.403 3.152 0 3.871-2.868 3.871-3.086 0-.215-.168-.215-.242-.215-.215 0-.239.07-.309.359-.527 1.699-1.816 2.414-3.109 2.414-1.457 0-3.391-1.265-3.391-4.898 0-3.969 2.031-4.949 3.227-4.949.906 0 2.222.363 2.769 1.293m10.973 2.461c0-1.29 0-2.247-1.051-3.18-.836-.762-1.91-1.098-2.961-1.098-1.961 0-3.465 1.289-3.465 2.844 0 .691.453 1.027 1.004 1.027.574 0 .981-.406.981-.98 0-.981-.864-.981-1.219-.981.547-1.004 1.695-1.433 2.648-1.433 1.102 0 2.512.91 2.512 3.058v.957c-4.805.071-6.617 2.078-6.617 3.918 0 1.891 2.195 2.489 3.652 2.489 1.578 0 2.657-.957 3.11-2.106.093 1.125.836 1.985 1.863 1.985.5 0 1.887-.336 1.887-2.247v-1.339h-.524v1.339c0 1.364-.574 1.555-.91 1.555-.91 0-.91-1.269-.91-1.625zm-1.551 3.011c0 2.34-1.742 3.129-2.773 3.129-1.168 0-2.149-.859-2.149-2.008 0-3.152 4.063-3.441 4.922-3.488zm8.02-2.199c0-2.316.957-4.492 2.797-4.492.191 0 .238 0 .335.023-.195.094-.574.239-.574.883 0 .695.547.957.93.957.48 0 .957-.312.957-.957 0-.715-.645-1.387-1.672-1.387-2.031 0-2.726 2.2-2.867 2.657h-.024v-2.657l-3.203.266v.691c1.625 0 1.817.168 1.817 1.34v6.477c0 1.074-.266 1.074-1.817 1.074v.691c.668-.046 1.985-.046 2.7-.046.644 0 2.339 0 2.89.046v-.691h-.476c-1.746 0-1.793-.262-1.793-1.125zm16.179.453c0-3.082-2.343-5.543-5.117-5.543-2.863 0-5.137 2.531-5.137 5.543 0 3.059 2.391 5.356 5.114 5.356 2.82 0 5.14-2.344 5.14-5.356m-5.117 4.828c-.883 0-1.957-.383-2.652-1.554-.645-1.075-.668-2.485-.668-3.489 0-.91 0-2.367.738-3.441a3.07 3.07 0 0 1 2.559-1.41c.933 0 1.937.429 2.582 1.363.742 1.098.742 2.605.742 3.488 0 .836 0 2.321-.621 3.442-.668 1.148-1.77 1.601-2.68 1.601m9.86-9.32h3.371v-.691h-3.371v-4.399h-.524c-.023 2.246-.883 4.539-3.059 4.613v.477h2.032v6.644c0 2.653 1.769 3.204 3.035 3.204 1.504 0 2.293-1.485 2.293-3.204v-1.363h-.527v1.317c0 1.718-.692 2.722-1.625 2.722-1.625 0-1.625-2.222-1.625-2.629zm14.308 3.227c0-1.29 0-2.247-1.047-3.18-.84-.762-1.914-1.098-2.965-1.098-1.961 0-3.464 1.289-3.464 2.844 0 .691.453 1.027 1.003 1.027.575 0 .981-.406.981-.98 0-.981-.863-.981-1.219-.981.551-1.004 1.695-1.433 2.653-1.433 1.097 0 2.507.91 2.507 3.058v.957c-4.804.071-6.617 2.078-6.617 3.918 0 1.891 2.195 2.489 3.656 2.489 1.575 0 2.653-.957 3.106-2.106.094 1.125.836 1.985 1.863 1.985.5 0 1.887-.336 1.887-2.247v-1.339h-.524v1.339c0 1.364-.574 1.555-.91 1.555-.91 0-.91-1.269-.91-1.625zm-1.551 3.011c0 2.34-1.742 3.129-2.773 3.129-1.168 0-2.149-.859-2.149-2.008 0-3.152 4.063-3.441 4.922-3.488zm39.641-6.238h2.699v-.691h-2.746v-2.797c0-2.149 1.098-3.25 2.078-3.25.192 0 .547.047.836.191-.094.024-.695.238-.695.934 0 .547.383.929.933.929.575 0 .957-.382.957-.953 0-.886-.859-1.578-2.007-1.578-1.672 0-3.563 1.289-3.563 3.727v2.797h-1.863v.691h1.863v7.84c0 1.074-.262 1.074-1.812 1.074v.691c.668-.046 1.98-.046 2.699-.046.644 0 2.34 0 2.89.046v-.691h-.476c-1.746 0-1.793-.262-1.793-1.125zm12.211 3.227c0-1.29 0-2.247-1.051-3.18-.836-.762-1.91-1.098-2.961-1.098-1.961 0-3.465 1.289-3.465 2.844 0 .691.453 1.027 1.004 1.027.574 0 .981-.406.981-.98 0-.981-.864-.981-1.219-.981.547-1.004 1.695-1.433 2.648-1.433 1.102 0 2.512.91 2.512 3.058v.957c-4.805.071-6.617 2.078-6.617 3.918 0 1.891 2.195 2.489 3.652 2.489 1.578 0 2.657-.957 3.11-2.106.093 1.125.836 1.985 1.863 1.985.5 0 1.887-.336 1.887-2.247v-1.339h-.524v1.339c0 1.364-.574 1.555-.91 1.555-.91 0-.91-1.269-.91-1.625zm-1.551 3.011c0 2.34-1.742 3.129-2.773 3.129-1.168 0-2.149-.859-2.149-2.008 0-3.152 4.063-3.441 4.922-3.488zm8.188-11.351c0-.621-.504-1.172-1.172-1.172-.621 0-1.145.504-1.145 1.148 0 .715.571 1.172 1.145 1.172.742 0 1.172-.625 1.172-1.148m-3.297 4.445v.691c1.527 0 1.742.145 1.742 1.317v6.5c0 1.074-.262 1.074-1.816 1.074v.691c.671-.046 1.816-.046 2.511-.046.262 0 1.649 0 2.461.046v-.691c-1.555 0-1.648-.121-1.648-1.051v-8.797zm10.035 1.121c0-.644-.551-1.144-1.149-1.144-.691 0-1.168.546-1.168 1.144 0 .719.598 1.172 1.149 1.172.644 0 1.168-.5 1.168-1.172m0 7.984c0-.648-.551-1.148-1.149-1.148-.691 0-1.168.551-1.168 1.148 0 .715.598 1.168 1.149 1.168.644 0 1.168-.5 1.168-1.168M16.992-662.367c0-2.321.953-4.492 2.793-4.492.192 0 .238 0 .336.023-.191.094-.574.238-.574.883 0 .695.55.957.933.957.477 0 .957-.313.957-.957 0-.715-.648-1.387-1.675-1.387-2.032 0-2.723 2.199-2.867 2.652h-.024v-2.652l-3.203.266v.691c1.625 0 1.816.168 1.816 1.34v6.473c0 1.078-.261 1.078-1.816 1.078v.691c.668-.047 1.984-.047 2.7-.047.648 0 2.343 0 2.894.047v-.691h-.48c-1.743 0-1.79-.266-1.79-1.125zm9.266-9.153c0-.621-.5-1.171-1.172-1.171-.621 0-1.145.503-1.145 1.148 0 .715.575 1.172 1.145 1.172.742 0 1.172-.625 1.172-1.149m-3.297 4.446v.691c1.527 0 1.742.145 1.742 1.313v6.5c0 1.078-.262 1.078-1.812 1.078v.691c.668-.047 1.812-.047 2.507-.047.262 0 1.649 0 2.461.047v-.691c-1.554 0-1.648-.121-1.648-1.051v-8.797zm11.492 14.215c-1.527 0-1.812 0-1.812-1.075v-4.156c.43.598 1.406 1.527 2.937 1.527 2.75 0 5.16-2.316 5.16-5.398 0-3.035-2.246-5.379-4.847-5.379-2.106 0-3.227 1.508-3.301 1.602v-1.602l-3.32.266v.691c1.671 0 1.816.168 1.816 1.219v11.23c0 1.075-.266 1.075-1.816 1.075v.695c.62-.051 1.91-.051 2.582-.051.691 0 1.98 0 2.601.051zm-1.812-11.563c0-.457 0-.48.261-.859.715-1.078 1.887-1.532 2.793-1.532 1.793 0 3.227 2.176 3.227 4.852 0 2.844-1.625 4.922-3.465 4.922a2.82 2.82 0 0 1-1.91-.766c-.55-.547-.906-1.027-.906-1.695zm18.812 2.078c.524 0 .574 0 .574-.453 0-2.414-1.293-4.66-4.183-4.66-2.723 0-4.828 2.461-4.828 5.426 0 3.152 2.437 5.468 5.09 5.468 2.843 0 3.921-2.578 3.921-3.082 0-.144-.12-.238-.265-.238-.192 0-.239.121-.285.238-.621 2.008-2.223 2.555-3.227 2.555s-3.418-.668-3.418-4.801v-.453zm-6.598-.453c.192-3.754 2.297-4.183 2.965-4.183 2.555 0 2.7 3.371 2.723 4.183zm11.86-3.609h3.37v-.696h-3.37v-4.394h-.528c-.023 2.246-.882 4.539-3.058 4.613v.477h2.031v6.644c0 2.653 1.77 3.199 3.035 3.199 1.508 0 2.297-1.48 2.297-3.199v-1.363h-.527v1.312c0 1.723-.692 2.723-1.625 2.723-1.625 0-1.625-2.219-1.625-2.625zm9.242-5.114c0-.621-.5-1.171-1.168-1.171-.625 0-1.148.503-1.148 1.148 0 .715.574 1.172 1.148 1.172.738 0 1.168-.625 1.168-1.149m-3.297 4.446v.691c1.528 0 1.746.145 1.746 1.313v6.5c0 1.078-.265 1.078-1.816 1.078v.691c.668-.047 1.816-.047 2.508-.047.261 0 1.648 0 2.46.047v-.691c-1.55 0-1.648-.121-1.648-1.051v-8.797zm30.574 4.469c0-2.223 0-2.891-.55-3.657-.692-.933-1.817-1.078-2.63-1.078-1.984 0-2.984 1.434-3.367 2.367-.335-1.84-1.624-2.367-3.132-2.367-2.317 0-3.227 1.985-3.414 2.461h-.028v-2.461l-3.25.266v.691c1.625 0 1.817.168 1.817 1.34v6.473c0 1.078-.262 1.078-1.817 1.078v.691c.621-.047 1.914-.047 2.582-.047.696 0 1.985 0 2.606.047v-.691c-1.532 0-1.817 0-1.817-1.078v-4.442c0-2.511 1.649-3.847 3.13-3.847 1.484 0 1.816 1.218 1.816 2.675v5.614c0 1.078-.262 1.078-1.817 1.078v.691c.621-.047 1.914-.047 2.582-.047.696 0 1.985 0 2.606.047v-.691c-1.532 0-1.817 0-1.817-1.078v-4.442c0-2.511 1.649-3.847 3.13-3.847s1.816 1.218 1.816 2.675v5.614c0 1.078-.262 1.078-1.817 1.078v.691c.621-.047 1.914-.047 2.582-.047.696 0 1.985 0 2.606.047v-.691c-1.195 0-1.793 0-1.817-.719zm11.52.261c.523 0 .574 0 .574-.453 0-2.414-1.293-4.66-4.183-4.66-2.723 0-4.829 2.461-4.829 5.426 0 3.152 2.438 5.468 5.09 5.468 2.844 0 3.922-2.578 3.922-3.082 0-.144-.121-.238-.265-.238-.192 0-.239.121-.286.238-.621 2.008-2.222 2.555-3.226 2.555s-3.418-.668-3.418-4.801v-.453zm-6.598-.453c.192-3.754 2.297-4.183 2.965-4.183 2.555 0 2.699 3.371 2.723 4.183zm18.477.192c0-2.223 0-2.891-.547-3.657-.695-.933-1.816-1.078-2.629-1.078-2.32 0-3.227 1.985-3.418 2.461h-.023v-2.461l-3.25.266v.691c1.625 0 1.816.168 1.816 1.34v6.473c0 1.078-.262 1.078-1.816 1.078v.691c.621-.047 1.91-.047 2.578-.047.695 0 1.984 0 2.605.047v-.691c-1.527 0-1.816 0-1.816-1.078v-4.442c0-2.511 1.648-3.847 3.133-3.847 1.48 0 1.816 1.218 1.816 2.675v5.614c0 1.078-.266 1.078-1.816 1.078v.691c.621-.047 1.91-.047 2.578-.047.695 0 1.984 0 2.605.047v-.691c-1.195 0-1.793 0-1.816-.719zm5.68-3.801h3.371v-.696h-3.371v-4.394h-.524c-.023 2.246-.883 4.539-3.059 4.613v.477h2.032v6.644c0 2.653 1.769 3.199 3.035 3.199 1.504 0 2.293-1.48 2.293-3.199v-1.363h-.527v1.312c0 1.723-.692 2.723-1.625 2.723-1.625 0-1.625-2.219-1.625-2.625zm9.078 4.039c0-2.321.957-4.492 2.797-4.492.191 0 .238 0 .335.023-.195.094-.574.238-.574.883 0 .695.547.957.93.957.48 0 .957-.313.957-.957 0-.715-.645-1.387-1.672-1.387-2.031 0-2.726 2.199-2.867 2.652h-.024v-2.652l-3.203.266v.691c1.625 0 1.817.168 1.817 1.34v6.473c0 1.078-.266 1.078-1.817 1.078v.691c.668-.047 1.985-.047 2.7-.047.644 0 2.339 0 2.89.047v-.691h-.476c-1.746 0-1.793-.266-1.793-1.125zm14.363.023c.523 0 .574 0 .574-.453 0-2.414-1.293-4.66-4.183-4.66-2.723 0-4.829 2.461-4.829 5.426 0 3.152 2.438 5.468 5.09 5.468 2.844 0 3.922-2.578 3.922-3.082 0-.144-.121-.238-.265-.238-.192 0-.239.121-.286.238-.621 2.008-2.222 2.555-3.226 2.555s-3.418-.668-3.418-4.801v-.453zm-6.598-.453c.192-3.754 2.297-4.183 2.965-4.183 2.555 0 2.699 3.371 2.723 4.183zm47.992-2.844c-.285 0-1.168 0-1.168.977 0 .574.407.98.981.98.547 0 1.004-.332 1.004-1.027 0-1.602-1.676-2.746-3.61-2.746-2.796 0-5.019 2.484-5.019 5.496 0 3.059 2.293 5.398 4.996 5.398 3.152 0 3.871-2.867 3.871-3.082s-.168-.214-.238-.214c-.219 0-.242.07-.313.359-.523 1.695-1.816 2.41-3.105 2.41-1.457 0-3.395-1.262-3.395-4.894 0-3.969 2.032-4.95 3.227-4.95.906 0 2.223.36 2.769 1.293m10.973 2.461c0-1.289 0-2.246-1.047-3.179-.84-.762-1.914-1.098-2.965-1.098-1.961 0-3.464 1.289-3.464 2.844 0 .691.453 1.027 1.003 1.027.575 0 .981-.406.981-.98 0-.981-.863-.981-1.219-.981.551-1.004 1.695-1.433 2.653-1.433 1.097 0 2.507.91 2.507 3.058v.957c-4.804.07-6.617 2.078-6.617 3.918 0 1.891 2.195 2.484 3.656 2.484 1.575 0 2.653-.953 3.106-2.101.094 1.121.836 1.984 1.863 1.984.5 0 1.887-.336 1.887-2.246v-1.34h-.524v1.34c0 1.363-.574 1.555-.91 1.555-.91 0-.91-1.27-.91-1.625zm-1.551 3.012c0 2.34-1.742 3.129-2.773 3.129-1.168 0-2.149-.859-2.149-2.008 0-3.152 4.063-3.441 4.922-3.488zm8.043-6.238h3.371v-.696h-3.371v-4.394h-.523c-.024 2.246-.887 4.539-3.059 4.613v.477h2.032v6.644c0 2.653 1.765 3.199 3.035 3.199 1.504 0 2.293-1.48 2.293-3.199v-1.363h-.528v1.312c0 1.723-.691 2.723-1.625 2.723-1.625 0-1.625-2.219-1.625-2.625zm9.102 0h3.371v-.696h-3.371v-4.394h-.527c-.024 2.246-.883 4.539-3.059 4.613v.477h2.031v6.644c0 2.653 1.77 3.199 3.035 3.199 1.508 0 2.297-1.48 2.297-3.199v-1.363h-.527v1.312c0 1.723-.692 2.723-1.625 2.723-1.625 0-1.625-2.219-1.625-2.625zm9.242-5.114c0-.621-.5-1.171-1.168-1.171-.625 0-1.148.503-1.148 1.148 0 .715.574 1.172 1.148 1.172.738 0 1.168-.625 1.168-1.149m-3.297 4.446v.691c1.528 0 1.746.145 1.746 1.313v6.5c0 1.078-.265 1.078-1.816 1.078v.691c.668-.047 1.816-.047 2.508-.047.261 0 1.648 0 2.461.047v-.691c-1.551 0-1.649-.121-1.649-1.051v-8.797zm15.391 2.246c.215-.527.621-1.555 2.148-1.578v-.696c-.691.051-1.027.051-1.765.051-.504 0-.864 0-1.961-.051v.696c1.004.047 1.121.765 1.121 1.027 0 .215-.047.336-.164.621l-2.438 6.164-2.679-6.738c-.118-.336-.141-.336-.141-.453 0-.621.906-.621 1.336-.621v-.696c-.594.051-1.84.051-2.485.051-.789 0-.835 0-2.293-.051v.696c1.34 0 1.579.093 1.864.836l3.418 8.554c.121.336.168.453.453.453.168 0 .312-.046.48-.453zm12.918 2.914c0-3.082-2.34-5.543-5.114-5.543-2.867 0-5.136 2.531-5.136 5.543 0 3.059 2.386 5.351 5.113 5.351 2.816 0 5.137-2.339 5.137-5.351m-5.114 4.824c-.886 0-1.96-.379-2.652-1.551-.648-1.074-.672-2.484-.672-3.488 0-.91 0-2.367.742-3.441a3.06 3.06 0 0 1 2.559-1.41c.93 0 1.934.429 2.578 1.363.742 1.097.742 2.605.742 3.488 0 .836 0 2.316-.621 3.441-.668 1.145-1.769 1.598-2.676 1.598m44.973-7.453c.336 0 .766 0 .766-.43 0-.453-.406-.453-.766-.453h-14.074c-.332 0-.762 0-.762.43 0 .453.406.453.762.453zm0 4.445c.336 0 .766 0 .766-.429 0-.453-.406-.453-.766-.453h-14.074c-.332 0-.762 0-.762.429 0 .453.406.453.762.453zm35.777-4.347c0-1.985-.121-3.922-.976-5.739-.981-1.984-2.703-2.507-3.875-2.507-1.387 0-3.082.695-3.965 2.675-.672 1.508-.91 2.989-.91 5.571 0 2.316.168 4.062 1.027 5.757.934 1.817 2.582 2.391 3.824 2.391 2.079 0 3.274-1.246 3.965-2.629.864-1.793.91-4.137.91-5.519m-4.875 7.668c-.765 0-2.316-.43-2.769-3.036-.266-1.433-.266-3.25-.266-4.921 0-1.961 0-3.727.383-5.137.406-1.602 1.625-2.344 2.652-2.344.911 0 2.293.551 2.75 2.606.309 1.363.309 3.25.309 4.875 0 1.601 0 3.418-.262 4.875-.453 2.629-1.961 3.082-2.797 3.082m41.766-9.176c0-.645-.551-1.149-1.144-1.149-.696 0-1.172.551-1.172 1.149 0 .719.597 1.172 1.148 1.172.645 0 1.168-.5 1.168-1.172m0 7.984c0-.648-.551-1.148-1.144-1.148a1.15 1.15 0 0 0-1.172 1.148c0 .715.597 1.168 1.148 1.168.645 0 1.168-.5 1.168-1.168m-343.34-107.25c0-.625-.5-1.172-1.168-1.172-.62 0-1.148.5-1.148 1.149a1.15 1.15 0 0 0 1.148 1.168c.739 0 1.168-.621 1.168-1.145m-3.297 4.446v.691c1.532 0 1.746.144 1.746 1.312v6.5c0 1.075-.261 1.075-1.816 1.075v.695c.668-.047 1.816-.047 2.508-.047.265 0 1.648 0 2.46.047v-.695c-1.55 0-1.648-.118-1.648-1.047v-8.797zm22.774 4.468c0-2.226 0-2.894-.547-3.66-.695-.93-1.816-1.074-2.629-1.074-1.984 0-2.988 1.434-3.371 2.367-.336-1.84-1.625-2.367-3.129-2.367-2.32 0-3.227 1.984-3.418 2.461h-.023v-2.461l-3.25.266v.691c1.625 0 1.816.164 1.816 1.34v6.472c0 1.075-.262 1.075-1.816 1.075v.695c.62-.047 1.91-.047 2.578-.047.695 0 1.984 0 2.605.047v-.695c-1.527 0-1.816 0-1.816-1.075v-4.445c0-2.508 1.648-3.848 3.133-3.848 1.48 0 1.816 1.219 1.816 2.68v5.613c0 1.075-.266 1.075-1.816 1.075v.695c.62-.047 1.91-.047 2.578-.047.695 0 1.984 0 2.605.047v-.695c-1.527 0-1.816 0-1.816-1.075v-4.445c0-2.508 1.648-3.848 3.133-3.848 1.48 0 1.816 1.219 1.816 2.68v5.613c0 1.075-.266 1.075-1.816 1.075v.695c.62-.047 1.91-.047 2.578-.047.695 0 1.984 0 2.605.047v-.695c-1.195 0-1.793 0-1.816-.715zm8.223 9.746c-1.532 0-1.817 0-1.817-1.074v-4.16c.43.598 1.41 1.531 2.938 1.531 2.75 0 5.164-2.316 5.164-5.398 0-3.035-2.246-5.379-4.852-5.379-2.102 0-3.227 1.508-3.297 1.601v-1.601l-3.324.266v.691c1.676 0 1.816.164 1.816 1.219v11.23c0 1.074-.261 1.074-1.816 1.074v.696c.621-.051 1.914-.051 2.582-.051.691 0 1.984 0 2.605.051zm-1.817-11.562c0-.457 0-.481.262-.863.718-1.075 1.886-1.528 2.797-1.528 1.793 0 3.226 2.172 3.226 4.852 0 2.84-1.625 4.922-3.465 4.922a2.83 2.83 0 0 1-1.914-.766c-.547-.551-.906-1.027-.906-1.695zm20.629 2.508c0-3.082-2.34-5.543-5.113-5.543-2.867 0-5.137 2.531-5.137 5.543 0 3.058 2.387 5.351 5.113 5.351 2.82 0 5.137-2.34 5.137-5.351m-5.113 4.824c-.883 0-1.961-.379-2.653-1.551-.644-1.078-.668-2.484-.668-3.488 0-.91 0-2.367.739-3.442a3.07 3.07 0 0 1 2.558-1.41c.93 0 1.938.43 2.578 1.364.743 1.097.743 2.601.743 3.488 0 .836 0 2.316-.621 3.441-.669 1.145-1.77 1.598-2.676 1.598m13.683-9.82c0-.43 0-.547-.238-.547-.191 0-.644.523-.812.738-.743-.598-1.485-.738-2.247-.738-2.894 0-3.754 1.574-3.754 2.89 0 .262 0 1.098.91 1.934.762.672 1.575.84 2.676 1.051 1.313.265 1.625.336 2.223.812.43.36.738.887.738 1.555 0 1.027-.593 2.176-2.699 2.176-1.574 0-2.722-.91-3.25-3.297-.094-.434-.094-.457-.117-.481-.05-.093-.145-.093-.215-.093-.266 0-.266.117-.266.546v3.25c0 .43 0 .551.243.551.117 0 .14-.023.547-.527.12-.164.12-.215.476-.594.91 1.121 2.2 1.121 2.606 1.121 2.511 0 3.754-1.386 3.754-3.273 0-1.289-.79-2.055-1.004-2.27-.86-.742-1.504-.883-3.082-1.172-.72-.14-2.461-.476-2.461-1.91 0-.742.5-1.84 2.652-1.84 2.605 0 2.746 2.223 2.793 2.961.023.192.191.192.266.192.261 0 .261-.117.261-.547zm5.375.504h3.371v-.696h-3.37v-4.394h-.524c-.024 2.246-.887 4.539-3.059 4.609v.481h2.031v6.64c0 2.652 1.766 3.203 3.036 3.203 1.504 0 2.293-1.48 2.293-3.203v-1.359h-.528v1.312c0 1.719-.691 2.723-1.625 2.723-1.625 0-1.625-2.219-1.625-2.629zm14.309 3.226c0-1.293 0-2.25-1.047-3.18-.84-.765-1.914-1.097-2.965-1.097-1.96 0-3.465 1.289-3.465 2.843 0 .692.453 1.028 1.004 1.028.574 0 .98-.406.98-.981 0-.98-.863-.98-1.218-.98.547-1.004 1.695-1.434 2.648-1.434 1.102 0 2.512.907 2.512 3.059v.953c-4.805.074-6.621 2.082-6.621 3.922 0 1.887 2.2 2.484 3.656 2.484 1.578 0 2.656-.957 3.11-2.101.093 1.121.836 1.98 1.863 1.98.5 0 1.887-.332 1.887-2.246v-1.336h-.524v1.336c0 1.363-.574 1.555-.91 1.555-.91 0-.91-1.266-.91-1.625zm-1.55 3.012c0 2.34-1.747 3.129-2.774 3.129-1.168 0-2.149-.864-2.149-2.008 0-3.152 4.063-3.442 4.922-3.488zm31.042-6.238h3.371v-.696h-3.371v-4.394h-.523c-.024 2.246-.887 4.539-3.063 4.609v.481h2.031v6.64c0 2.652 1.77 3.203 3.039 3.203 1.504 0 2.293-1.48 2.293-3.203v-1.359h-.527v1.312c0 1.719-.691 2.723-1.625 2.723-1.625 0-1.625-2.219-1.625-2.629zm16.055 4.492c0-3.082-2.34-5.543-5.114-5.543-2.867 0-5.136 2.531-5.136 5.543 0 3.058 2.386 5.351 5.113 5.351 2.816 0 5.137-2.34 5.137-5.351m-5.114 4.824c-.886 0-1.96-.379-2.652-1.551-.648-1.078-.672-2.484-.672-3.488 0-.91 0-2.367.742-3.442a3.06 3.06 0 0 1 2.559-1.41c.93 0 1.934.43 2.578 1.364.742 1.097.742 2.601.742 3.488 0 .836 0 2.316-.621 3.441-.668 1.145-1.769 1.598-2.676 1.598m9.86-9.316h3.371v-.696h-3.371v-4.394h-.527c-.024 2.246-.883 4.539-3.059 4.609v.481h2.031v6.64c0 2.652 1.77 3.203 3.035 3.203 1.508 0 2.297-1.48 2.297-3.203v-1.359h-.527v1.312c0 1.719-.692 2.723-1.625 2.723-1.625 0-1.625-2.219-1.625-2.629zm14.308 3.226c0-1.293 0-2.25-1.05-3.18-.836-.765-1.91-1.097-2.965-1.097-1.957 0-3.465 1.289-3.465 2.843 0 .692.453 1.028 1.004 1.028.574 0 .98-.406.98-.981 0-.98-.859-.98-1.218-.98.55-1.004 1.699-1.434 2.652-1.434 1.102 0 2.508.907 2.508 3.059v.953c-4.801.074-6.617 2.082-6.617 3.922 0 1.887 2.199 2.484 3.656 2.484 1.578 0 2.652-.957 3.105-2.101.098 1.121.836 1.98 1.864 1.98.503 0 1.89-.332 1.89-2.246v-1.336h-.527v1.336c0 1.363-.574 1.555-.906 1.555-.911 0-.911-1.266-.911-1.625zm-1.554 3.012c0 2.34-1.742 3.129-2.77 3.129-1.172 0-2.152-.864-2.152-2.008 0-3.152 4.062-3.442 4.922-3.488zm8.14-13.219-3.32.266v.691c1.625 0 1.816.168 1.816 1.336v12.523c0 1.075-.261 1.075-1.816 1.075v.695c.668-.047 1.84-.047 2.555-.047.719 0 1.914 0 2.582.047v-.695c-1.528 0-1.817 0-1.817-1.075zm11.543 11.043c.528 0 .575 0 .575-.453 0-2.414-1.289-4.66-4.184-4.66-2.723 0-4.824 2.461-4.824 5.422 0 3.156 2.437 5.472 5.086 5.472 2.843 0 3.922-2.582 3.922-3.082 0-.144-.122-.238-.262-.238-.192 0-.242.117-.289.238-.621 2.008-2.223 2.555-3.227 2.555s-3.418-.668-3.418-4.801v-.453zm-6.597-.453c.191-3.754 2.297-4.184 2.965-4.184 2.558 0 2.699 3.367 2.722 4.184zm40.066-.383c0-1.293 0-2.25-1.047-3.18-.84-.765-1.914-1.097-2.965-1.097-1.961 0-3.464 1.289-3.464 2.843 0 .692.453 1.028 1.003 1.028.575 0 .981-.406.981-.981 0-.98-.863-.98-1.219-.98.551-1.004 1.695-1.434 2.653-1.434 1.097 0 2.507.907 2.507 3.059v.953c-4.804.074-6.617 2.082-6.617 3.922 0 1.887 2.195 2.484 3.656 2.484 1.575 0 2.653-.957 3.106-2.101.094 1.121.836 1.98 1.863 1.98.5 0 1.887-.332 1.887-2.246v-1.336h-.524v1.336c0 1.363-.574 1.555-.91 1.555-.91 0-.91-1.266-.91-1.625zm-1.551 3.012c0 2.34-1.742 3.129-2.773 3.129-1.168 0-2.149-.864-2.149-2.008 0-3.152 4.063-3.442 4.922-3.488zm37.735-4.281c0-1.981-.117-3.918-.977-5.735-.98-1.984-2.703-2.508-3.875-2.508-1.383 0-3.082.692-3.965 2.676-.668 1.504-.91 2.988-.91 5.567 0 2.32.168 4.062 1.031 5.761.93 1.817 2.579 2.391 3.821 2.391 2.078 0 3.273-1.246 3.968-2.633.86-1.789.907-4.133.907-5.519m-4.875 7.671c-.766 0-2.317-.429-2.77-3.035-.265-1.433-.265-3.25-.265-4.922 0-1.961 0-3.726.382-5.136.407-1.602 1.625-2.344 2.653-2.344.91 0 2.297.551 2.75 2.605.308 1.364.308 3.25.308 4.875 0 1.602 0 3.418-.261 4.875-.454 2.629-1.961 3.082-2.797 3.082M17.156-846.52c0-.621-.5-1.171-1.168-1.171a1.15 1.15 0 0 0-1.148 1.148 1.15 1.15 0 0 0 1.148 1.168c.739 0 1.168-.621 1.168-1.145m-3.297 4.446v.691c1.532 0 1.746.145 1.746 1.313v6.5c0 1.078-.261 1.078-1.816 1.078v.691c.668-.047 1.816-.047 2.508-.047.265 0 1.648 0 2.46.047v-.691c-1.55 0-1.648-.121-1.648-1.051v-8.797zm22.774 4.469c0-2.223 0-2.895-.547-3.657-.695-.933-1.816-1.078-2.629-1.078-1.984 0-2.988 1.434-3.371 2.367-.336-1.84-1.625-2.367-3.129-2.367-2.32 0-3.227 1.985-3.418 2.461h-.023v-2.461l-3.25.266v.691c1.625 0 1.816.168 1.816 1.34v6.473c0 1.078-.262 1.078-1.816 1.078v.691c.62-.047 1.91-.047 2.578-.047.695 0 1.984 0 2.605.047v-.691c-1.527 0-1.816 0-1.816-1.078v-4.442c0-2.511 1.648-3.847 3.133-3.847 1.48 0 1.816 1.218 1.816 2.675v5.614c0 1.078-.266 1.078-1.816 1.078v.691c.62-.047 1.91-.047 2.578-.047.695 0 1.984 0 2.605.047v-.691c-1.527 0-1.816 0-1.816-1.078v-4.442c0-2.511 1.648-3.847 3.133-3.847 1.48 0 1.816 1.218 1.816 2.675v5.614c0 1.078-.266 1.078-1.816 1.078v.691c.62-.047 1.91-.047 2.578-.047.695 0 1.984 0 2.605.047v-.691c-1.195 0-1.793 0-1.816-.719zm8.223 9.746c-1.532 0-1.817 0-1.817-1.075v-4.156c.43.598 1.41 1.527 2.938 1.527 2.75 0 5.164-2.316 5.164-5.398 0-3.035-2.246-5.379-4.852-5.379-2.102 0-3.227 1.508-3.297 1.602v-1.602l-3.324.266v.691c1.676 0 1.816.168 1.816 1.219v11.23c0 1.075-.261 1.075-1.816 1.075v.695c.621-.051 1.914-.051 2.582-.051.691 0 1.984 0 2.605.051zm-1.817-11.563c0-.457 0-.48.262-.859.718-1.078 1.886-1.532 2.797-1.532 1.793 0 3.226 2.176 3.226 4.852 0 2.844-1.625 4.922-3.465 4.922a2.83 2.83 0 0 1-1.914-.766c-.547-.547-.906-1.027-.906-1.695zm20.629 2.508c0-3.082-2.34-5.543-5.113-5.543-2.867 0-5.137 2.531-5.137 5.543 0 3.059 2.387 5.351 5.113 5.351 2.82 0 5.137-2.339 5.137-5.351m-5.113 4.824c-.883 0-1.961-.379-2.653-1.551-.644-1.074-.668-2.484-.668-3.488 0-.91 0-2.367.739-3.441a3.06 3.06 0 0 1 2.558-1.41c.93 0 1.938.429 2.578 1.363.743 1.097.743 2.605.743 3.488 0 .836 0 2.316-.621 3.441-.669 1.145-1.77 1.598-2.676 1.598m13.683-9.816c0-.434 0-.551-.238-.551-.191 0-.644.523-.812.738-.743-.594-1.485-.738-2.247-.738-2.894 0-3.754 1.574-3.754 2.891 0 .261 0 1.097.91 1.933.762.672 1.575.84 2.676 1.055 1.313.262 1.625.332 2.223.812.43.36.738.883.738 1.551 0 1.027-.593 2.176-2.699 2.176-1.574 0-2.722-.906-3.25-3.297-.094-.43-.094-.457-.117-.477-.05-.097-.145-.097-.215-.097-.266 0-.266.117-.266.551v3.25c0 .429 0 .546.243.546.117 0 .14-.023.547-.527.12-.164.12-.211.476-.594.91 1.121 2.2 1.121 2.606 1.121 2.511 0 3.754-1.382 3.754-3.273 0-1.289-.79-2.055-1.004-2.269-.86-.739-1.504-.883-3.082-1.172-.72-.141-2.461-.477-2.461-1.911 0-.742.5-1.839 2.652-1.839 2.605 0 2.746 2.222 2.793 2.964.023.188.191.188.266.188.261 0 .261-.117.261-.547zm5.375.5h3.371v-.696h-3.37v-4.394h-.524c-.024 2.246-.887 4.539-3.059 4.613v.477h2.031v6.644c0 2.653 1.766 3.199 3.036 3.199 1.504 0 2.293-1.48 2.293-3.199v-1.363h-.528v1.312c0 1.723-.691 2.723-1.625 2.723-1.625 0-1.625-2.219-1.625-2.625zm14.309 3.226c0-1.289 0-2.246-1.047-3.179-.84-.766-1.914-1.098-2.965-1.098-1.96 0-3.465 1.289-3.465 2.844 0 .691.453 1.027 1.004 1.027.574 0 .98-.406.98-.98 0-.981-.863-.981-1.218-.981.547-1.004 1.695-1.433 2.648-1.433 1.102 0 2.512.91 2.512 3.058v.957c-4.805.07-6.621 2.078-6.621 3.918 0 1.891 2.2 2.484 3.656 2.484 1.578 0 2.656-.953 3.11-2.101.093 1.121.836 1.984 1.863 1.984.5 0 1.887-.336 1.887-2.246v-1.34h-.524v1.34c0 1.363-.574 1.551-.91 1.551-.91 0-.91-1.266-.91-1.625zm-1.55 3.012c0 2.34-1.747 3.129-2.774 3.129-1.168 0-2.149-.859-2.149-2.008 0-3.152 4.063-3.441 4.922-3.488zm35.679-5.473c-.285 0-1.172 0-1.172.977 0 .574.406.98.98.98.551 0 1.004-.332 1.004-1.027 0-1.602-1.672-2.746-3.609-2.746-2.793 0-5.02 2.484-5.02 5.496 0 3.059 2.297 5.398 4.996 5.398 3.157 0 3.872-2.867 3.872-3.082s-.168-.214-.239-.214c-.215 0-.242.07-.308.359-.528 1.695-1.821 2.41-3.11 2.41-1.457 0-3.39-1.262-3.39-4.894 0-3.969 2.031-4.95 3.222-4.95.911 0 2.227.36 2.774 1.293m10.972 2.461c0-1.289 0-2.246-1.05-3.179-.836-.766-1.91-1.098-2.965-1.098-1.957 0-3.465 1.289-3.465 2.844 0 .691.453 1.027 1.004 1.027.574 0 .98-.406.98-.98 0-.981-.859-.981-1.218-.981.55-1.004 1.699-1.433 2.652-1.433 1.102 0 2.508.91 2.508 3.058v.957c-4.801.07-6.617 2.078-6.617 3.918 0 1.891 2.199 2.484 3.656 2.484 1.578 0 2.652-.953 3.105-2.101.098 1.121.836 1.984 1.864 1.984.503 0 1.89-.336 1.89-2.246v-1.34h-.527v1.34c0 1.363-.574 1.551-.906 1.551-.911 0-.911-1.266-.911-1.625zm-1.554 3.012c0 2.34-1.742 3.129-2.77 3.129-1.172 0-2.152-.859-2.152-2.008 0-3.152 4.062-3.441 4.922-3.488zm8.047-6.238h3.367v-.696h-3.367v-4.394h-.528c-.023 2.246-.883 4.539-3.058 4.613v.477h2.031v6.644c0 2.653 1.769 3.199 3.035 3.199 1.508 0 2.293-1.48 2.293-3.199v-1.363h-.523v1.312c0 1.723-.696 2.723-1.625 2.723-1.625 0-1.625-2.219-1.625-2.625zm9.097 0h3.371v-.696h-3.371v-4.394h-.523c-.024 2.246-.887 4.539-3.059 4.613v.477h2.032v6.644c0 2.653 1.765 3.199 3.035 3.199 1.504 0 2.293-1.48 2.293-3.199v-1.363h-.528v1.312c0 1.723-.691 2.723-1.625 2.723-1.625 0-1.625-2.219-1.625-2.625zm9.246-5.114c0-.621-.504-1.171-1.171-1.171a1.15 1.15 0 0 0-1.149 1.148c0 .715.574 1.168 1.149 1.168.742 0 1.171-.621 1.171-1.145m-3.296 4.446v.691c1.527 0 1.742.145 1.742 1.313v6.5c0 1.078-.262 1.078-1.817 1.078v.691c.668-.047 1.817-.047 2.508-.047.266 0 1.652 0 2.465.047v-.691c-1.555 0-1.648-.121-1.648-1.051v-8.797zm15.386 2.246c.215-.527.621-1.555 2.153-1.578v-.696c-.696.051-1.028.051-1.77.051-.504 0-.859 0-1.961-.051v.696c1.008.047 1.125.765 1.125 1.027 0 .215-.047.336-.168.621l-2.437 6.164-2.676-6.738c-.121-.336-.145-.336-.145-.453 0-.621.91-.621 1.34-.621v-.696c-.597.051-1.84.051-2.484.051-.789 0-.836 0-2.297-.051v.696c1.34 0 1.578.093 1.863.836l3.418 8.554c.121.336.168.453.457.453.164 0 .309-.046.477-.453zm12.918 2.914c0-3.082-2.34-5.543-5.113-5.543-2.867 0-5.137 2.531-5.137 5.543 0 3.059 2.391 5.351 5.113 5.351 2.821 0 5.137-2.339 5.137-5.351m-5.113 4.824c-.883 0-1.957-.379-2.652-1.551-.645-1.074-.668-2.484-.668-3.488 0-.91 0-2.367.738-3.441a3.07 3.07 0 0 1 2.558-1.41c.934 0 1.938.429 2.583 1.363.742 1.097.742 2.605.742 3.488 0 .836 0 2.316-.625 3.441-.668 1.145-1.766 1.598-2.676 1.598m38.07-6.09c0-1.289 0-2.246-1.051-3.179-.835-.766-1.914-1.098-2.964-1.098-1.957 0-3.465 1.289-3.465 2.844 0 .691.453 1.027 1.004 1.027.574 0 .98-.406.98-.98 0-.981-.859-.981-1.219-.981.551-1.004 1.696-1.433 2.653-1.433 1.097 0 2.508.91 2.508 3.058v.957c-4.801.07-6.618 2.078-6.618 3.918 0 1.891 2.2 2.484 3.657 2.484 1.574 0 2.652-.953 3.105-2.101.094 1.121.836 1.984 1.863 1.984.504 0 1.887-.336 1.887-2.246v-1.34h-.523v1.34c0 1.363-.575 1.551-.907 1.551-.91 0-.91-1.266-.91-1.625zm-1.554 3.012c0 2.34-1.743 3.129-2.774 3.129-1.168 0-2.148-.859-2.148-2.008 0-3.152 4.062-3.441 4.922-3.488zm37.738-4.277c0-1.985-.121-3.922-.981-5.739-.98-1.984-2.703-2.507-3.871-2.507-1.386 0-3.086.691-3.968 2.675-.668 1.508-.907 2.989-.907 5.571 0 2.316.164 4.062 1.028 5.757.929 1.817 2.578 2.391 3.824 2.391 2.078 0 3.273-1.246 3.965-2.629.859-1.793.91-4.137.91-5.519m-4.875 7.668c-.766 0-2.32-.43-2.774-3.036-.265-1.433-.265-3.25-.265-4.921 0-1.961 0-3.727.383-5.137.406-1.602 1.625-2.344 2.656-2.344.906 0 2.293.551 2.746 2.606.309 1.363.309 3.25.309 4.875 0 1.601 0 3.418-.262 4.875-.453 2.629-1.957 3.082-2.793 3.082"/></g></svg>