<svg xmlns="http://www.w3.org/2000/svg" width="910pt" height="422pt" viewBox="0 -422 910 422"><g id="page1" transform="scale(1 -1)"><path fill="#cc9c6f" d="M142.73 324.148a7141 7141 0 0 1 311.813-6.804c104.062 0 208.082 2.269 311.812 6.804v17.008a7141 7141 0 0 1-311.812 6.805 7141 7141 0 0 1-311.813-6.805z"/><path fill="none" stroke="#000" stroke-linecap="round" stroke-linejoin="round" stroke-width="2" d="M142.73 324.148a7141 7141 0 0 1 311.813-6.804c104.062 0 208.082 2.269 311.812 6.804v17.008a7141 7141 0 0 1-311.812 6.805 7141 7141 0 0 1-311.813-6.805z"/><path fill="#fff" d="M176.746 332.652a5.665 5.665 0 0 1-5.668 5.668 5.667 5.667 0 1 1 0-11.336 5.667 5.667 0 0 1 5.668 5.668"/><path fill="none" stroke="#000" stroke-linecap="round" stroke-linejoin="round" stroke-width="2" d="M176.746 332.652a5.665 5.665 0 0 1-5.668 5.668 5.667 5.667 0 1 1 0-11.336 5.667 5.667 0 0 1 5.668 5.668"/><path fill="#fff" d="M743.676 332.652a5.665 5.665 0 0 1-5.668 5.668 5.667 5.667 0 1 1 0-11.336 5.667 5.667 0 0 1 5.668 5.668"/><path fill="none" stroke="#000" stroke-linecap="round" stroke-linejoin="round" stroke-width="2" d="M743.676 332.652a5.665 5.665 0 0 1-5.668 5.668 5.667 5.667 0 1 1 0-11.336 5.667 5.667 0 0 1 5.668 5.668"/><path fill="#d3ae37" d="M341.156 86.04c0 15.655-76.144 28.347-170.078 28.347C77.148 114.387 1 101.695 1 86.039s76.148-28.348 170.078-28.348c93.934 0 170.078 12.692 170.078 28.348"/><path fill="none" stroke="#000" stroke-linecap="round" stroke-linejoin="round" stroke-width="2" d="M341.156 86.04c0 15.655-76.144 28.347-170.078 28.347C77.148 114.387 1 101.695 1 86.039s76.148-28.348 170.078-28.348c93.934 0 170.078 12.692 170.078 28.348m-170.078 226.77 161.41-217.813m-161.41 217.813L117.32 112.941m53.758 199.868L19.984 73.012m151.094 239.797v19.843"/><g fill-rule="evenodd"><path fill="#88d055" d="M163.152 116.02c-.754-.622 1.328-.622.973-1.508 1.371-3.235 2.703-6.555 3.277-10.051 2.172-11.207-.574-23.3-7.531-32.379-6.996-9.566-17.625-16.61-29.363-18.559-10.719-1.859-22.012.664-31.227 6.38-2.3 1.417-4.472 3.011-6.554 4.738 6.468-7.309 15.902-11.559 25.468-12.622 13.996-1.597 28.7 2.965 38.977 12.665 6.996 6.554 11.824 15.504 12.801 25.07.84 7.707.043 15.812-3.457 22.766a22 22 0 0 1-2.524 3.851c-.355.137-.578-.219-.84-.351"/><path fill="#b9f88c" d="M162.93 115.754c-.93-.356-2.438-1.109-1.95-2.395 2.969-5.933 4.208-12.664 4.075-19.308-.176-6.246-1.641-12.625-5.137-17.895-4.074-6.246-10.23-10.984-17.098-13.773-9.832-4.254-21.039-5.668-31.492-3.059-6.508 1.64-12.797 4.785-17.273 9.922-.797.844-1.414 1.817-1.95 2.879-.398 1.242-1.726 1.285-2.656.488-1.37-.578-.84-2.125-.09-3.011 1.95-3.809 5.184-6.868 8.907-9.036 6.199-3.941 13.285-6.687 20.636-7.398 7.575-.84 15.371.398 22.282 3.633 12.089 5.492 21.836 16.3 25.511 29.144 2.614 9.39 1.547 19.621-2.527 28.434-.219.578-.484 1.375-1.238 1.375"/><path d="M162 118.055c-5.094-1.684-9.348-5.047-14.176-7.262-20.019-10.852-39.375-22.766-58.375-35.211-1.636-1.152-3.41-2.746-3.41-4.871.133-2.617 1.95-4.695 3.453-6.692 5.895-7.175 14.442-11.78 23.434-13.816 8.324-1.863 17.051-.976 25.246 1.149 9.476 2.57 18.469 7.754 24.758 15.37 7.75 9.477 11.34 22.188 9.699 34.325-.574 4.828-1.902 9.699-4.52 13.82-1.195 1.727-3.007 3.41-5.269 3.367-.266-.046-.574-.089-.84-.179m1.285-1.95c-.887-.664-2.527-.972-2.48-2.343.218-.844.797-1.598 1.062-2.438 4.074-9.746 4.297-21.172.223-30.96-2.438-5.626-6.692-10.364-11.738-13.774-8.196-5.625-18.207-8.281-28.082-8.371-7.973-.09-16.165 1.683-22.856 6.156-3.32 2.258-6.156 5.316-7.883 8.945-1.195.047-2.57-.53-2.969-1.726-.085-1.106.797-1.95 1.243-2.922 4.297-7.086 11.515-12.09 19.355-14.66 15.856-5.184 34.281-1.418 46.86 9.566 6.07 5.316 10.628 12.356 12.8 20.11 1.461 5.312 1.727 10.894 1.239 16.386-.532 4.871-1.86 9.742-4.426 13.996-.711.664-.797 2.125-1.949 2.215-.18.043-.27-.133-.399-.18m-4.785-2.789c-17.363-8.902-33.926-19.222-50.848-28.832-5.492-3.277-10.894-6.777-15.812-10.808 2.879-5.668 8.328-9.7 14.219-11.871 9.656-3.496 20.418-3.41 30.296-.75 7.75 2.082 15.192 5.976 20.461 12.09 3.325 3.898 5.227 8.77 6.157 13.773 1.461 7.441 1.418 15.414-1.285 22.59-.442 1.238-1.063 2.39-1.727 3.543-.309.488-1.02.754-1.461.265m-2.922-13.156c-1.242-.75-.047-2.965 1.281-2.523 1.067.445.844 1.996-.129 2.39-.355.18-.753.27-1.152.133m-10.277-10.672c-1.106-.445-.621-2.082.355-2.437 1.106-.352 2.035 1.062 1.371 1.992-.308.668-1.148.934-1.726.445m10.012-.132c-1.2-.84-.313-2.79.972-2.97 1.153-.222 2.215 1.2 1.504 2.216-.527.796-1.637.886-2.476.754m-21.172-7.618c-.887-1.242.308-3.367 1.816-3.101 1.238.445.973 2.172.043 2.789-.488.398-1.238.62-1.859.312m10.937-2.613c-1.062-.887-.265-2.348.356-3.191.711-.973 2.437-.75 2.703.402.218 1.062-.532 2.035-1.328 2.61-.489.355-1.2.445-1.731.179m-24.668-3.543c-1.375-.578-1.062-3.101.442-3.191 1.64.132 1.816 2.968.222 3.324-.222.043-.488 0-.664-.133m-13.023-1.598c-1.328-.441-1.77-2.566-.485-3.32 1.149-.441 2.125.977 2.036 2.04.042.753-.754 1.902-1.551 1.28m22.277-4.472c-1.504-.973-.351-3.766 1.422-3.41 1.238.265 1.238 1.992.484 2.792-.398.575-1.238 1.016-1.906.618m-16.387-1.95c-1.461-.706-1.195-3.41.489-3.628 1.504 0 2.082 2.082 1.285 3.144-.356.574-1.153.93-1.774.484"/><path fill="#e96c92" d="M158.5 113.316c-17.363-8.902-33.926-19.222-50.848-28.832-5.492-3.277-10.894-6.777-15.812-10.808 2.879-5.668 8.328-9.7 14.219-11.871 9.656-3.496 20.418-3.41 30.296-.75 7.75 2.082 15.192 5.976 20.461 12.09 3.325 3.898 5.227 8.77 6.157 13.773 1.461 7.441 1.418 15.414-1.285 22.59-.442 1.238-1.063 2.39-1.727 3.543-.309.488-1.02.754-1.461.265m-2.922-13.156c-1.242-.75-.047-2.965 1.281-2.523 1.067.445.844 1.996-.129 2.39-.355.18-.753.27-1.152.133m-10.277-10.672c-1.106-.445-.621-2.082.355-2.437 1.106-.352 2.035 1.062 1.371 1.992-.308.668-1.148.934-1.726.445m10.012-.132c-1.2-.84-.313-2.79.972-2.97 1.153-.222 2.215 1.2 1.504 2.216-.527.796-1.637.886-2.476.754m-21.172-7.618c-.887-1.242.308-3.367 1.816-3.101 1.238.445.973 2.172.043 2.789-.488.398-1.238.62-1.859.312m10.937-2.613c-1.062-.887-.265-2.348.356-3.191.711-.973 2.437-.75 2.703.402.218 1.062-.532 2.035-1.328 2.61-.489.355-1.2.445-1.731.179m-24.668-3.543c-1.375-.578-1.062-3.101.442-3.191 1.64.132 1.816 2.968.222 3.324-.222.043-.488 0-.664-.133m-13.023-1.598c-1.328-.441-1.77-2.566-.485-3.32 1.149-.441 2.125.977 2.036 2.04.042.753-.754 1.902-1.551 1.28m22.277-4.472c-1.504-.973-.351-3.766 1.422-3.41 1.238.265 1.238 1.992.484 2.792-.398.575-1.238 1.016-1.906.618m-16.387-1.95c-1.461-.706-1.195-3.41.489-3.628 1.504 0 2.082 2.082 1.285 3.144-.356.574-1.153.93-1.774.484"/><path fill="#88d055" d="M221.781 116.02c-.75-.622 1.332-.622.977-1.508 1.375-3.235 2.703-6.555 3.277-10.051 2.168-11.207-.574-23.3-7.527-32.379-7-9.566-17.629-16.61-29.367-18.559-10.719-1.859-22.012.664-31.227 6.38-2.301 1.417-4.473 3.011-6.555 4.738 6.469-7.309 15.903-11.559 25.469-12.622 13.996-1.597 28.699 2.965 38.977 12.665 6.996 6.554 11.824 15.504 12.8 25.07.84 7.707.043 15.812-3.457 22.766a22 22 0 0 1-2.523 3.851c-.355.137-.574-.219-.844-.351"/><path fill="#b9f88c" d="M221.563 115.754c-.93-.356-2.438-1.109-1.95-2.395 2.965-5.933 4.207-12.664 4.075-19.308-.176-6.246-1.637-12.625-5.137-17.895-4.074-6.246-10.231-10.984-17.098-13.773-9.832-4.254-21.039-5.668-31.488-3.059-6.512 1.64-12.805 4.785-17.277 9.922-.797.844-1.418 1.817-1.95 2.879-.398 1.242-1.726 1.285-2.656.488-1.371-.578-.84-2.125-.09-3.011 1.949-3.809 5.184-6.868 8.903-9.036 6.203-3.941 13.289-6.687 20.64-7.398 7.574-.84 15.371.398 22.281 3.633 12.09 5.492 21.832 16.3 25.512 29.144 2.613 9.39 1.551 19.621-2.527 28.434-.223.578-.485 1.375-1.238 1.375"/><path d="M220.633 118.055c-5.094-1.684-9.348-5.047-14.172-7.262-20.023-10.852-39.375-22.766-58.379-35.211-1.637-1.152-3.41-2.746-3.41-4.871.133-2.617 1.949-4.695 3.457-6.692 5.891-7.175 14.437-11.78 23.43-13.816 8.324-1.863 17.05-.976 25.246 1.149 9.476 2.57 18.468 7.754 24.758 15.37 7.75 9.477 11.335 22.188 9.699 34.325-.574 4.828-1.907 9.699-4.52 13.82-1.195 1.727-3.012 3.41-5.269 3.367-.266-.046-.575-.089-.84-.179m1.281-1.95c-.883-.664-2.523-.972-2.476-2.343.218-.844.796-1.598 1.062-2.438 4.074-9.746 4.297-21.172.219-30.96-2.434-5.626-6.688-10.364-11.735-13.774-8.195-5.625-18.207-8.281-28.082-8.371-7.972-.09-16.168 1.683-22.855 6.156-3.32 2.258-6.156 5.316-7.883 8.945-1.195.047-2.57-.53-2.969-1.726-.086-1.106.797-1.95 1.243-2.922 4.296-7.086 11.515-12.09 19.355-14.66 15.855-5.184 34.281-1.418 46.859 9.566 6.067 5.316 10.629 12.356 12.801 20.11 1.461 5.312 1.727 10.894 1.238 16.386-.531 4.871-1.859 9.742-4.425 13.996-.711.664-.801 2.125-1.95 2.215-.179.043-.265-.133-.402-.18m-4.781-2.789c-17.363-8.902-33.93-19.222-50.848-28.832-5.492-3.277-10.894-6.777-15.812-10.808 2.879-5.668 8.328-9.7 14.218-11.871 9.657-3.496 20.418-3.41 30.297-.75 7.75 2.082 15.192 5.976 20.461 12.09 3.321 3.898 5.227 8.77 6.156 13.773 1.461 7.441 1.418 15.414-1.285 22.59-.441 1.238-1.062 2.39-1.726 3.543-.309.488-1.02.754-1.461.265m-2.922-13.156c-1.242-.75-.047-2.965 1.281-2.523 1.067.445.844 1.996-.133 2.39-.351.18-.75.27-1.148.133m-10.277-10.672c-1.106-.445-.621-2.082.355-2.437 1.106-.352 2.035 1.062 1.371 1.992-.308.668-1.148.934-1.726.445m10.011-.132c-1.199-.84-.312-2.79.973-2.97 1.152-.222 2.215 1.2 1.508 2.216-.531.796-1.641.886-2.481.754m-21.172-7.618c-.886-1.242.309-3.367 1.817-3.101 1.238.445.973 2.172.043 2.789-.488.398-1.238.62-1.86.312m10.942-2.613c-1.067-.887-.27-2.348.351-3.191.707-.973 2.438-.75 2.704.402.218 1.062-.532 2.035-1.329 2.61-.488.355-1.199.445-1.726.179m-24.672-3.543c-1.375-.578-1.063-3.101.441-3.191 1.641.132 1.817 2.968.223 3.324-.223.043-.488 0-.664-.133m-13.023-1.598c-1.329-.441-1.77-2.566-.489-3.32 1.153-.441 2.129.977 2.039 2.04.043.753-.754 1.902-1.55 1.28m22.281-4.472c-1.508-.973-.356-3.766 1.414-3.41 1.242.265 1.242 1.992.488 2.792-.398.575-1.238 1.016-1.902.618m-16.391-1.95c-1.461-.706-1.195-3.41.488-3.628 1.504 0 2.082 2.082 1.286 3.144-.356.574-1.153.93-1.774.484"/><path fill="#e96c92" d="M217.133 113.316c-17.363-8.902-33.93-19.222-50.848-28.832-5.492-3.277-10.894-6.777-15.812-10.808 2.879-5.668 8.328-9.7 14.218-11.871 9.657-3.496 20.418-3.41 30.297-.75 7.75 2.082 15.192 5.976 20.461 12.09 3.321 3.898 5.227 8.77 6.156 13.773 1.461 7.441 1.418 15.414-1.285 22.59-.441 1.238-1.062 2.39-1.726 3.543-.309.488-1.02.754-1.461.265m-2.922-13.156c-1.242-.75-.047-2.965 1.281-2.523 1.067.445.844 1.996-.133 2.39-.351.18-.75.27-1.148.133m-10.277-10.672c-1.106-.445-.621-2.082.355-2.437 1.106-.352 2.035 1.062 1.371 1.992-.308.668-1.148.934-1.726.445m10.011-.132c-1.199-.84-.312-2.79.973-2.97 1.152-.222 2.215 1.2 1.508 2.216-.531.796-1.641.886-2.481.754m-21.172-7.618c-.886-1.242.309-3.367 1.817-3.101 1.238.445.973 2.172.043 2.789-.488.398-1.238.62-1.86.312m10.942-2.613c-1.067-.887-.27-2.348.351-3.191.707-.973 2.438-.75 2.704.402.218 1.062-.532 2.035-1.329 2.61-.488.355-1.199.445-1.726.179m-24.672-3.543c-1.375-.578-1.063-3.101.441-3.191 1.641.132 1.817 2.968.223 3.324-.223.043-.488 0-.664-.133m-13.023-1.598c-1.329-.441-1.77-2.566-.489-3.32 1.153-.441 2.129.977 2.039 2.04.043.753-.754 1.902-1.55 1.28m22.281-4.472c-1.508-.973-.356-3.766 1.414-3.41 1.242.265 1.242 1.992.488 2.792-.398.575-1.238 1.016-1.902.618m-16.391-1.95c-1.461-.706-1.195-3.41.488-3.628 1.504 0 2.082 2.082 1.286 3.144-.356.574-1.153.93-1.774.484"/></g><path fill="#79ac14" d="M274.27 97.957c1.949 3.367 4.605 7.266 6.554 9.742 0 .711-.176 1.418-.176 2.305-.71 3.543-3.722 6.199-6.91 5.672-3.187-.535-5.316-3.899-4.605-7.621.176-1.594 1.418-5.313 2.836-9.036.707-.175 1.594-.53 2.301-1.062"/><path fill="none" stroke="#000" stroke-linecap="round" stroke-linejoin="round" stroke-width="2.25" d="M274.27 97.957c1.949 3.367 4.605 7.266 6.554 9.742 0 .711-.176 1.418-.176 2.305-.71 3.543-3.722 6.199-6.91 5.672-3.187-.535-5.316-3.899-4.605-7.621.176-1.594 1.418-5.313 2.836-9.036.707-.175 1.594-.53 2.301-1.062"/><path fill="#79ac14" d="M279.055 93.172c3.367 1.95 7.261 4.61 9.742 6.559.711 0 1.418-.18 2.305-.18 3.543-.707 6.199-3.719 5.668-6.907-.532-3.19-3.899-5.14-7.618-4.609-1.593.18-5.316 1.418-9.035 2.836-.179.707-.531 1.594-1.062 2.3"/><path fill="none" stroke="#000" stroke-linecap="round" stroke-linejoin="round" stroke-width="2.25" d="M279.055 93.172c3.367 1.95 7.261 4.61 9.742 6.559.711 0 1.418-.18 2.305-.18 3.543-.707 6.199-3.719 5.668-6.907-.532-3.19-3.899-5.14-7.618-4.609-1.593.18-5.316 1.418-9.035 2.836-.179.707-.531 1.594-1.062 2.3"/><path fill="#a4cd34" d="M276.926 95.832a7.8 7.8 0 0 0 2.129-2.66c4.425 2.305 9.922 6.379 11.515 7.973 2.657 2.66 2.832 6.554.532 8.859-2.125 2.305-6.204 1.949-8.86-.531-1.594-1.594-5.492-7.086-7.972-11.516a7.8 7.8 0 0 0 2.656-2.125"/><path fill="none" stroke="#000" stroke-linecap="round" stroke-linejoin="round" stroke-width="2.25" d="M276.926 95.832a7.8 7.8 0 0 0 2.129-2.66c4.425 2.305 9.922 6.379 11.515 7.973 2.657 2.66 2.832 6.554.532 8.859-2.125 2.305-6.204 1.949-8.86-.531-1.594-1.594-5.492-7.086-7.972-11.516a7.8 7.8 0 0 0 2.656-2.125"/><path fill="#f26d21" d="M276.926 95.832c-5.492 5.492-14.528 5.137-20.196-.71-8.859-8.856-29.234-35.61-22.675-42.165 6.554-6.555 33.304 13.82 42.164 22.676 5.847 5.848 6.203 14.707.707 20.199"/><path fill="#ce5c1c" d="M276.926 95.832c2.304-5.137 1.062-11.691-3.363-16.121-8.329-8.328-32.422-26.578-40.75-23.563 0-1.418.355-2.484 1.242-3.191 6.554-6.555 33.304 13.82 42.164 22.676 5.847 5.672 6.203 14.707.707 20.199"/><g fill="none" stroke="#000" stroke-linecap="round" stroke-linejoin="round" stroke-width="2.25"><path d="M275.156 74.395s-5.316 1.77-10.629 7.086m-10.453-5.668s-3.367 3.011-6.91 7.972m20.551-15.59s-4.43 1.239-7.266 4.075m1.418-8.329s-4.605.887-9.387 5.668m-12.226 3.723s1.949-3.723 5.848-6.91m6.554 24.273s1.063-3.191 4.074-6.203M241.316 58.45s2.481-2.837 5.493-4.075m38.269 49.605-8.152-8.148m-1.77 11.34 1.063-6.027m12.047-7.086-6.024 1.062"/><path d="M276.926 95.832c-5.492 5.492-14.528 5.137-20.196-.71-8.859-8.856-29.234-35.61-22.675-42.165 6.554-6.555 33.304 13.82 42.164 22.676 5.847 5.848 6.203 14.707.707 20.199"/></g><path fill="#bc9a16" d="M1 86.04c0-68.6 90.55-70.869 170.078-70.869 79.527 0 170.078 2.27 170.078 70.867 0-15.656-76.144-28.348-170.078-28.348C77.148 57.691 1 70.383 1 86.04"/><path fill="none" stroke="#000" stroke-linecap="round" stroke-linejoin="round" stroke-width="2" d="M1 86.04c0-68.6 90.55-70.869 170.078-70.869 79.527 0 170.078 2.27 170.078 70.867 0-15.656-76.144-28.348-170.078-28.348C77.148 57.691 1 70.383 1 86.04"/><path fill="#d3ae37" d="M908.086 86.04c0 15.655-76.145 28.347-170.078 28.347S567.93 101.695 567.93 86.039s76.144-28.348 170.078-28.348S908.086 70.383 908.086 86.04"/><path fill="none" stroke="#000" stroke-linecap="round" stroke-linejoin="round" stroke-width="2" d="M908.086 86.04c0 15.655-76.145 28.347-170.078 28.347S567.93 101.695 567.93 86.039s76.144-28.348 170.078-28.348S908.086 70.383 908.086 86.04M738.008 312.809l161.41-217.813m-161.41 217.813L684.25 112.941m53.758 199.868L586.914 73.012m151.094 239.797v19.843"/><g fill-rule="evenodd"><path fill="#a7410e" d="M718.523 108.469c-.308-.125-.621-.313-.679-.313-.063 0 .554-.679 1.363-1.488.805-.805 1.797-1.859 2.231-2.48a20.5 20.5 0 0 0 1.488-2.293c.312-.68.746-1.797.992-2.418.187-.684.375-1.797.434-2.418 0-.684.125-1.243.25-1.301.062-.063.558-.125 1.054-.125.742 0 .93.062.992.246.063.125 0 .746-.125 1.426-.125.62-.433 1.86-.746 2.668-.246.867-.679 2.047-.992 2.668-.308.617-.867 1.672-1.301 2.293-.371.621-.992 1.425-1.3 1.796-.371.309-.93.805-1.243 1.118-.371.246-.804.558-1.054.679a2 2 0 0 1-.617.188c-.125 0-.434-.121-.747-.246m17.735-8.371h.746c.246.058.059.058-.375.058-.371 0-.559 0-.371-.058m-20.832-40.492c.433-.372.804-.747.804-.747.063 0-.25.375-.683.746-.371.434-.742.805-.805.805-.062 0 .246-.37.684-.804m-7.567-1.614c.371-.433.743-.804.805-.804s-.246.37-.68.804c-.433.371-.808.746-.808.746-.063 0 .25-.375.683-.746"/><path fill="red" d="M734.461 99.723c-.559-.184-1.242-.434-1.426-.559-.25-.121-1.305-.742-2.297-1.426-1.05-.617-2.293-1.363-2.789-1.61-.804-.37-.992-.37-2.418-.37-1.238 0-1.676.058-2.605.37-.559.184-2.231.868-3.598 1.552-1.426.617-3.035 1.3-3.594 1.484-.558.188-1.488.438-2.109.496-.93.125-1.301.125-2.23-.058-.622-.125-1.739-.496-2.481-.809-.746-.246-1.801-.742-2.297-1.055-.496-.308-1.301-.804-1.672-1.113-.433-.371-1.117-.992-1.613-1.488s-1.117-1.301-1.488-1.797c-.309-.496-.805-1.43-1.117-2.05-.309-.556-.743-1.548-.93-2.169-.184-.621-.496-1.676-.617-2.418-.188-.742-.375-2.047-.438-2.914-.121-.93-.121-2.355-.058-3.473.058-1.054.183-2.605.308-3.41.063-.808.371-2.172.559-3.039.183-.867.621-2.48.992-3.656.371-1.117 1.176-2.98 1.734-4.094a43 43 0 0 1 1.922-3.535 74 74 0 0 1 1.797-2.48c.5-.559 1.555-1.676 2.359-2.48.805-.806 1.985-1.798 2.543-2.169.555-.437 1.364-.934 1.797-1.18.434-.187 1.426-.62 2.235-.867.742-.25 1.98-.558 2.789-.683.867-.125 1.734-.188 2.48-.125.68 0 1.614.25 2.481.496 1.054.312 1.613.433 2.543.433 1.05.063 1.3 0 3.097-.617 1.426-.558 2.11-.683 2.731-.683.496 0 1.301.125 1.859.308.559.125 1.488.496 2.11.746.617.309 1.671.805 2.293 1.18.683.434 1.675 1.113 2.292 1.61.622.433 1.614 1.363 2.235 1.984s1.551 1.613 2.047 2.23c.496.621 1.301 1.738 1.797 2.422.433.742 1.179 1.984 1.613 2.727.433.746 1.113 2.109 1.551 3.039.371.867.992 2.48 1.363 3.472s.805 2.418.992 3.223c.184.746.434 1.926.559 2.668.058.683.183 2.047.246 2.977.062.992.062 2.355-.063 3.285-.062.87-.308 2.171-.433 2.855-.125.68-.434 1.797-.684 2.414-.183.684-.617 1.676-.93 2.297-.308.621-.867 1.55-1.238 2.11s-1.055 1.425-1.613 1.984c-.559.496-1.301 1.238-1.797 1.547-.434.312-1.305.87-1.922 1.18a20 20 0 0 1-2.109.867c-.496.187-1.426.37-1.985.496-.621.125-1.671.25-2.418.187-1.054 0-1.55-.062-2.355-.312m-27.902-15.254c-.188-.434-.496-1.238-.621-1.86-.188-.62-.375-1.796-.497-2.543-.125-.804-.187-2.418-.187-3.53 0-1.243.062-2.794.187-3.536.122-.746.309-1.86.497-2.48.125-.622.496-1.739.804-2.48.313-.747.867-1.923 1.305-2.606.433-.743 1.113-1.735 1.547-2.356a62 62 0 0 1 1.984-2.11c.621-.62 1.676-1.488 2.293-1.984.684-.433 1.613-1.054 2.172-1.3.559-.25 1.117-.496 1.363-.496.25-.063.375-.063.375.062 0 .063-.992 1.113-2.109 2.293a77 77 0 0 0-2.914 3.102 43 43 0 0 1-1.488 2.046c-.372.555-.993 1.672-1.364 2.418a28 28 0 0 0-1.117 2.606c-.187.68-.559 1.734-.684 2.355-.121.618-.371 1.735-.496 2.54-.121.93-.246 2.855-.246 5.519-.062 2.297-.125 4.34-.125 4.59-.062.25-.125.496-.183.496-.125 0-.313-.371-.496-.746"/><path d="M738.988 119.195c-.312-.062-1.054-.558-1.675-1.117-.622-.496-1.426-1.113-1.739-1.363-.433-.313-.929-.496-1.672-.621-.558-.063-1.859-.309-2.851-.434-1.488-.25-1.985-.371-2.914-.867-.809-.371-1.305-.746-1.922-1.426-.438-.496-1.055-1.304-1.367-1.922-.309-.621-.618-1.367-.743-1.613l-.125-.496-.929.684c-.559.371-1.488.929-2.11 1.238-1.054.496-1.238.558-1.859.433-.371 0-1.238-.308-1.922-.558-.867-.371-1.363-.68-1.734-1.113-.313-.313-.621-.809-.684-1.118-.125-.375-.125-.871-.062-1.179 0-.309.187-.805.371-1.055.125-.309.621-.805 1.054-1.176a14 14 0 0 0 1.86-1.676c.558-.558 1.363-1.488 1.738-2.046.371-.555.68-1.051.617-1.118 0 0-.804.313-1.734.746-.992.372-2.293.868-2.914 1.055-.867.188-1.551.309-2.852.309-1.488 0-1.922-.063-3.039-.371-.683-.246-1.859-.621-2.543-.93-.679-.309-1.734-.867-2.293-1.242-.621-.309-1.675-1.113-2.355-1.672-.746-.621-1.676-1.55-2.11-2.11a25 25 0 0 1-1.425-1.796c-.313-.497-.809-1.426-1.18-2.11-.309-.683-.805-1.738-1.055-2.418-.246-.683-.558-1.984-.742-2.914-.187-.93-.433-2.543-.496-3.66-.125-1.488-.125-2.48 0-4.215.063-1.18.246-2.914.434-3.843.125-.93.433-2.297.621-3.04.183-.746.554-2.047.804-2.851.313-.871.805-2.172 1.118-2.977.308-.808.929-2.11 1.363-2.851.371-.809 1.117-2.047 1.613-2.793.496-.742 1.363-1.985 1.985-2.727.617-.746 1.734-1.984 2.543-2.73a27 27 0 0 1 2.664-2.293c.683-.559 1.859-1.242 2.605-1.676.805-.371 1.859-.805 2.481-.992.621-.246 1.671-.496 2.355-.68.684-.125 2.047-.312 3.039-.312 1.672-.063 1.922-.063 3.16.312a80 80 0 0 1 2.172.559l.742.246 2.235-.742c1.984-.684 2.293-.746 3.472-.746 1.117 0 1.551.062 2.914.433.993.313 2.356.867 3.594 1.488 1.059.559 2.547 1.426 3.289 1.922.742.559 2.168 1.801 3.223 2.856 1.055 1.05 2.359 2.418 2.793 3.035.433.621 1.238 1.738 1.734 2.48.496.746 1.242 2.047 1.676 2.793.434.743 1.113 2.23 1.551 3.223.496 1.055 1.117 2.668 1.484 3.723.375.992.809 2.601 1.059 3.468.183.93.496 2.422.617 3.29.125.992.25 2.48.25 3.968 0 1.61-.063 2.914-.25 3.969-.121.805-.371 2.105-.559 2.789-.183.742-.554 1.734-.742 2.293-.187.496-.683 1.55-1.055 2.297a24 24 0 0 1-1.488 2.48c-.496.618-1.18 1.489-1.613 1.922a12 12 0 0 1-1.61 1.489c-.433.37-1.367 1.05-2.046 1.425-.684.434-1.864 1.055-2.668 1.364-.805.308-2.168.683-3.039.867-.868.187-1.86.312-2.231.375h-.621l.746.371c.434.183 1.176.742 1.672 1.238.559.559 1.117 1.305 1.426 1.859.25.559.621 1.426.746 1.989.183.617.371 1.797.496 2.789.125.93.246 2.48.309 3.41.062 1.113.062 1.922-.063 2.293-.062.312-.309.809-.496 1.055-.121.25-.559.621-.867.746-.309.183-.805.371-1.117.371-.372.062-.868 0-1.114-.063m-.496-3.785a19 19 0 0 0-2.047-1.426c-.496-.246-1.367-.496-1.922-.617-.621-.125-1.8-.312-2.605-.375a16 16 0 0 1-2.172-.496c-.433-.183-.992-.555-1.301-.867-.308-.309-.746-.93-.992-1.363-.25-.434-.558-1.118-.683-1.614a8 8 0 0 1-.247-1.922c0-.558.125-1.363.188-1.671.121-.375.309-.93.434-1.305l.308-.617 1.238.679c.684.372 1.614.747 2.047.868.375.125 1.489.312 2.36.433.929.063 1.922.25 2.293.375.371.063.929.246 1.238.434.375.183.867.558 1.117.804.188.309.559.747.684 1.055.125.246.371.93.558 1.426.184.559.371 1.551.496 2.297.121.742.246 2.105.309 3.16 0 .992.062 1.801 0 1.801 0 0-.621-.5-1.301-1.059m-19.969-6.941c-.308-.125-.621-.313-.679-.313-.063 0 .554-.679 1.363-1.488.805-.805 1.797-1.859 2.231-2.48a20.5 20.5 0 0 0 1.488-2.293c.312-.68.746-1.797.992-2.418.187-.684.375-1.797.434-2.48.062-.93 0-1.18-.122-1.18-.062 0-.683.187-1.367.374-.617.246-1.859.743-2.664 1.114-.871.433-2.172.992-2.914 1.304-.808.309-1.984.743-2.605.93-.992.246-1.489.246-2.356.184-.683 0-1.551-.184-2.418-.496-.746-.246-1.859-.743-2.543-1.051-.683-.375-1.734-.992-2.297-1.43-.554-.433-1.425-1.176-1.796-1.672-.434-.433-1.118-1.238-1.489-1.797s-.867-1.367-1.054-1.8a23 23 0 0 1-.868-2.047 66 66 0 0 1-.679-2.477 18 18 0 0 1-.438-2.297c-.058-.558-.121-2.293-.058-3.781 0-1.613.121-3.41.246-4.219a38 38 0 0 1 .683-3.222c.246-.993.68-2.543.93-3.348.309-.867.805-2.234 1.176-2.977.312-.808.992-2.046 1.426-2.851.496-.809 1.242-1.985 1.738-2.668.433-.621 1.238-1.676 1.797-2.297.496-.617 1.488-1.672 2.172-2.23.679-.622 1.671-1.364 2.109-1.735.434-.312 1.301-.809 1.922-1.117s1.609-.684 2.23-.93a31 31 0 0 1 2.293-.558c.684-.125 1.676-.25 2.297-.25.805 0 1.426.125 2.852.558 1.3.375 1.984.496 2.726.496.809 0 1.305-.12 2.914-.617 1.493-.558 2.11-.683 2.856-.683.742-.063 1.238.062 2.168.37.621.188 1.738.622 2.418.993.746.312 1.926.992 2.605 1.488.746.434 1.922 1.305 2.543 1.86.621.558 1.613 1.55 2.168 2.234.559.617 1.367 1.55 1.738 2.11.434.558.993 1.425 1.364 1.921.312.559.929 1.61 1.367 2.356.433.804 1.113 2.23 1.547 3.16a69 69 0 0 1 1.551 3.969c.371 1.242.867 2.914.992 3.722.187.867.371 2.11.433 2.79.063.683.125 1.921.125 2.788 0 .871-.062 2.297-.187 3.04-.121.808-.309 1.984-.496 2.605-.121.62-.434 1.613-.617 2.11-.25.558-.622 1.488-.872 1.984-.246.558-.804 1.425-1.175 1.984s-1.18 1.55-1.797 2.168c-.621.621-1.488 1.363-1.988 1.676-.497.37-1.364.867-1.985 1.113-.617.313-1.672.746-2.355.934-.68.183-1.86.37-2.727.496-1.305.121-1.613.121-2.543-.063-.558-.125-1.488-.496-2.109-.808-.559-.246-1.797-.993-2.727-1.547-.871-.621-1.922-1.243-2.297-1.426-.433-.125-.867-.313-1.05-.375-.375-.121-.375-.063-.622 1.242a19 19 0 0 1-.746 2.852c-.246.867-.679 2.047-.992 2.668-.308.617-.867 1.672-1.301 2.293-.371.621-.992 1.425-1.3 1.796-.371.309-.93.805-1.243 1.118-.371.246-.804.558-1.054.679a2 2 0 0 1-.617.188c-.125 0-.434-.121-.747-.246m12.711-6.512a11 11 0 0 1-1.425-.742c-.496-.25-.868-.563-.868-.684 0-.125 0-.187.063-.187 0 0 .371.187.805.496.375.25 1.117.621 1.55.871.434.246.684.434.621.434-.125 0-.433-.125-.746-.188m-24.738-17.672c-.187-.375-.433-1.426-.621-2.234-.187-.805-.434-2.106-.496-2.79a41 41 0 0 1-.125-2.85c0-.872.062-2.235.187-3.102.122-.868.372-2.106.555-2.852.188-.684.5-1.676.684-2.172.187-.558.558-1.363.808-1.86.246-.495.867-1.487 1.301-2.167.496-.684 1.488-1.922 2.231-2.668.683-.746 1.8-1.8 2.484-2.235.617-.496 1.734-1.175 2.418-1.546.742-.375 1.363-.621 1.609-.559.25 0 .125.246-1.488 1.797-.992.992-2.293 2.418-2.914 3.101-.559.743-1.426 1.922-1.859 2.606-.497.68-1.118 1.734-1.426 2.414-.313.621-.809 1.8-1.117 2.605a32 32 0 0 0-.805 3.102c-.188.867-.371 2.356-.496 3.16-.063.871-.125 2.98-.125 4.715s-.063 3.41-.125 3.719c0 .312-.121.558-.184.558-.062 0-.312-.308-.496-.742"/><path fill="#8a0" d="M738.492 115.41a19 19 0 0 0-2.047-1.426c-.496-.246-1.367-.496-1.922-.617-.621-.125-1.8-.312-2.605-.375a16 16 0 0 1-2.172-.496c-.433-.183-.992-.555-1.301-.867-.308-.309-.746-.93-.992-1.363-.25-.434-.558-1.118-.683-1.614a8 8 0 0 1-.247-1.922c0-.558.125-1.363.188-1.671.121-.375.309-.93.434-1.305l.308-.617 1.238.679c.684.372 1.614.747 2.047.868.375.125 1.489.312 2.36.433.929.063 1.922.25 2.293.375.371.063.929.246 1.238.434.375.183.867.558 1.117.804.188.309.559.747.684 1.055.125.246.371.93.558 1.426.184.559.371 1.551.496 2.297.121.742.246 2.105.309 3.16 0 .992.062 1.801 0 1.801 0 0-.621-.5-1.301-1.059m5.578-59.523-.742-.809.805.746.805.805-.059.062s-.375-.37-.809-.804"/></g><path fill="#bc9a16" d="M567.93 86.04c0-68.599 90.55-70.868 170.078-70.868 79.527 0 170.078 2.27 170.078 70.867 0-15.656-76.145-28.348-170.078-28.348S567.93 70.383 567.93 86.04"/><path fill="none" stroke="#000" stroke-linecap="round" stroke-linejoin="round" stroke-width="2" d="M567.93 86.04c0-68.599 90.55-70.868 170.078-70.868 79.527 0 170.078 2.27 170.078 70.867 0-15.656-76.145-28.348-170.078-28.348S567.93 70.383 567.93 86.04"/><path fill="#cc9c6f" d="M461.629 332.652c0 3.914-3.172 7.086-7.086 7.086s-7.086-3.172-7.086-7.086 3.172-7.086 7.086-7.086 7.086 3.172 7.086 7.086"/><path fill="none" stroke="#000" stroke-linecap="round" stroke-linejoin="round" stroke-width="2" d="M461.629 332.652c0 3.914-3.172 7.086-7.086 7.086s-7.086-3.172-7.086-7.086 3.172-7.086 7.086-7.086 7.086 3.172 7.086 7.086"/><circle cx="454.543" cy="332.652" r="1"/><path fill="#cc9c6f" d="M440.371 29.344h28.344v340.16h-28.344Z"/><path fill="none" stroke="#000" stroke-linecap="round" stroke-linejoin="round" stroke-width="2" d="M440.371 29.344h28.344v340.16h-28.344z"/><path fill="#cc9c6f" d="M461.629 332.652c0 3.914-3.172 7.086-7.086 7.086s-7.086-3.172-7.086-7.086 3.172-7.086 7.086-7.086 7.086 3.172 7.086 7.086"/><path fill="none" stroke="#000" stroke-linecap="round" stroke-linejoin="round" stroke-width="2" d="M461.629 332.652c0 3.914-3.172 7.086-7.086 7.086s-7.086-3.172-7.086-7.086 3.172-7.086 7.086-7.086 7.086 3.172 7.086 7.086"/><path fill="#cc9c6f" d="M457.379 369.504a20.554 20.554 0 0 1 0 28.344h-5.668a20.543 20.543 0 0 1 0-28.344z"/><path fill="none" stroke="#000" stroke-linecap="round" stroke-linejoin="round" stroke-width="2" d="M457.379 369.504a20.554 20.554 0 0 1 0 28.344h-5.668a20.543 20.543 0 0 1 0-28.344z"/><path fill="#cc9c6f" d="M465.883 409.188c0 6.261-5.078 11.339-11.34 11.339s-11.34-5.078-11.34-11.339 5.078-11.34 11.34-11.34 11.34 5.078 11.34 11.34"/><path fill="none" stroke="#000" stroke-linecap="round" stroke-linejoin="round" stroke-width="2" d="M465.883 409.188c0 6.261-5.078 11.339-11.34 11.339s-11.34-5.078-11.34-11.339 5.078-11.34 11.34-11.34 11.34 5.078 11.34 11.34"/><path fill="#cc9c6f" d="M497.063 1c-13.692 0-22.676 13.621-22.676 28.344h-39.688C434.699 14.62 425.715 1 412.023 1z"/><path fill="none" stroke="#000" stroke-linecap="round" stroke-linejoin="round" stroke-width="2" d="M497.063 1c-13.692 0-22.676 13.621-22.676 28.344h-39.688C434.699 14.62 425.715 1 412.023 1z"/></g></svg>