<svg xmlns="http://www.w3.org/2000/svg" width="455pt" height="46pt" viewBox="0 -46 455 46"><g id="page1"><path fill="none" stroke="#000" stroke-linecap="round" stroke-linejoin="round" stroke-width=".5" d="M.25-45.61h45.356V-.253H.25zm45.356 0h45.351V-.253H45.606zm45.351 0h45.356V-.253H90.957zm45.356 0h45.355V-.253h-45.355zm45.355 0h45.352V-.253h-45.352zm45.352 0h45.355V-.253H227.02zm45.355 0h45.355V-.253h-45.355zm45.355 0h45.356V-.253H317.73zm45.356 0h45.352V-.253h-45.352zm45.352 0h45.355V-.253h-45.355z"/><path d="M22.766-23.324c1.84 0 2.644 1.59 2.644 3.43 0 2.48-1.324 3.43-2.52 3.43-1.097 0-2.874-.54-3.43-2.13a.8.8 0 0 0 .31.043c.496 0 .867-.332.867-.867 0-.602-.453-.871-.867-.871-.352 0-.887.168-.887.93 0 1.902 1.86 3.39 4.047 3.39 2.293 0 4.05-1.797 4.05-3.906 0-2.004-1.652-3.45-3.617-3.676 1.57-.332 3.078-1.734 3.078-3.613 0-1.613-1.628-2.79-3.488-2.79-1.883 0-3.535 1.157-3.535 2.81 0 .722.539.847.809.847.43 0 .804-.27.804-.808 0-.536-.375-.805-.804-.805-.086 0-.188 0-.27.043.598-1.363 2.23-1.613 2.953-1.613s2.086.351 2.086 2.335c0 .579-.082 1.61-.785 2.52-.617.805-1.32.848-2.004.91-.102 0-.578.04-.66.04-.145.019-.227.042-.227.187s.02.164.434.164zm47.675-6.34c0-.438-.02-.457-.394-.457l-6.133 9.773v.535h5.328v2.024c0 .746-.039.953-1.484.953h-.395v.535c.66-.039 1.778-.039 2.48-.039.7 0 1.817 0 2.477.04v-.536h-.39c-1.446 0-1.489-.207-1.489-.953v-2.023h2.106v-.536H70.44zm-1.136 1.363v7.953h-4.977zm45.09-1.199c0-.434-.02-.453-.309-.453-.805.969-2.023 1.281-3.184 1.32-.058 0-.164 0-.183.043-.024.04-.024.082-.024.516.645 0 1.719-.125 2.543-.621v10.886c0 .723-.043.973-1.816.973h-.621v.535c.992-.02 2.023-.039 3.015-.039.993 0 2.024.02 3.016.04v-.536h-.617c-1.777 0-1.82-.227-1.82-.973zm41.996 6.074c0-4.937 2.312-6.055 3.656-6.055.433 0 1.484.083 1.898.891-.328 0-.949 0-.949.723 0 .555.457.742.746.742.184 0 .742-.082.742-.785 0-1.3-1.031-2.043-2.461-2.043-2.457 0-5.039 2.558-5.039 7.125 0 5.617 2.336 6.86 3.989 6.86 2.004 0 3.906-1.798 3.906-4.567 0-2.582-1.676-4.461-3.785-4.461-1.258 0-2.188.824-2.703 2.27zm2.582 6.961c-2.543 0-2.543-3.8-2.543-4.566 0-1.489.703-3.633 2.625-3.633.351 0 1.363 0 2.047 1.422.371.805.371 1.652.371 2.687 0 1.114 0 1.942-.434 2.766-.457.848-1.117 1.324-2.066 1.324m49.945-12.707v-.453h-4.855c-2.418 0-2.461-.266-2.54-.66h-.375l-.597 3.863h.371c.062-.39.207-1.445.457-1.84.121-.164 1.652-.164 2-.164h4.547l-2.293 3.41c-1.531 2.29-2.582 5.391-2.582 8.094 0 .25 0 .953.742.953.746 0 .746-.703.746-.972v-.95c0-3.386.578-5.617 1.527-7.043zm44.695 9.672h-.371c-.207 1.465-.371 1.71-.453 1.836-.105.164-1.594.164-1.883.164h-3.965c.747-.805 2.192-2.27 3.946-3.965 1.261-1.2 2.726-2.601 2.726-4.648 0-2.438-1.941-3.84-4.109-3.84-2.274 0-3.656 2-3.656 3.86 0 .808.597.91.847.91.203 0 .825-.122.825-.848 0-.64-.536-.825-.825-.825-.125 0-.25.02-.332.063.395-1.758 1.59-2.625 2.852-2.625 1.797 0 2.973 1.426 2.973 3.305 0 1.797-1.051 3.347-2.231 4.691l-4.109 4.649v.472h7.269zm42.184-10c0-.434-.024-.453-.313-.453-.804.969-2.023 1.281-3.179 1.32-.063 0-.164 0-.188.043-.019.04-.019.082-.019.516.64 0 1.715-.125 2.539-.621v10.886c0 .723-.039.973-1.817.973h-.621v.535c.992-.02 2.028-.039 3.02-.039.988 0 2.023.02 3.015.04v-.536h-.621c-1.777 0-1.816-.227-1.816-.973zm45.398 0c0-.434-.019-.453-.312-.453-.805.969-2.024 1.281-3.18 1.32-.062 0-.164 0-.187.043-.02.04-.02.082-.02.516.641 0 1.719-.125 2.543-.621v10.886c0 .723-.043.973-1.82.973h-.617v.535c.992-.02 2.023-.039 3.015-.039s2.024.02 3.016.04v-.536h-.621c-1.778 0-1.817-.227-1.817-.973zm45.301 0c0-.434-.019-.453-.312-.453-.805.969-2.024 1.281-3.18 1.32-.063 0-.164 0-.188.043-.019.04-.019.082-.019.516.641 0 1.715-.125 2.543-.621v10.886c0 .723-.043.973-1.82.973h-.622v.535c.993-.02 2.028-.039 3.02-.039.988 0 2.023.02 3.016.04v-.536h-.621c-1.778 0-1.817-.227-1.817-.973zm48.582 6.57c0-1.261-.023-3.41-.89-5.062-.766-1.445-1.985-1.961-3.055-1.961-.992 0-2.254.453-3.039 1.941-.828 1.547-.91 3.469-.91 5.082 0 1.176.023 2.973.66 4.543.89 2.13 2.48 2.418 3.289 2.418.949 0 2.394-.394 3.238-2.355.621-1.426.707-3.098.707-4.606m-3.945 6.63c-1.324 0-2.11-1.137-2.399-2.708-.226-1.219-.226-2.992-.226-4.148 0-1.594 0-2.914.265-4.176.395-1.754 1.551-2.293 2.36-2.293.844 0 1.937.559 2.332 2.254.269 1.176.289 2.558.289 4.215 0 1.34 0 2.992-.246 4.21-.438 2.255-1.656 2.645-2.375 2.645"/></g></svg>