<svg xmlns="http://www.w3.org/2000/svg" width="910pt" height="422pt" viewBox="0 -422 910 422"><g id="page1" transform="scale(1 -1)"><path fill="#cc9c6f" d="M142.73 324.148a7141 7141 0 0 1 311.813-6.804c104.062 0 208.082 2.269 311.812 6.804v17.008a7141 7141 0 0 1-311.812 6.805 7141 7141 0 0 1-311.813-6.805z"/><path fill="none" stroke="#000" stroke-linecap="round" stroke-linejoin="round" stroke-width="2" d="M142.73 324.148a7141 7141 0 0 1 311.813-6.804c104.062 0 208.082 2.269 311.812 6.804v17.008a7141 7141 0 0 1-311.812 6.805 7141 7141 0 0 1-311.813-6.805z"/><path fill="#fff" d="M176.746 332.652a5.665 5.665 0 0 1-5.668 5.668 5.667 5.667 0 1 1 0-11.336 5.667 5.667 0 0 1 5.668 5.668"/><path fill="none" stroke="#000" stroke-linecap="round" stroke-linejoin="round" stroke-width="2" d="M176.746 332.652a5.665 5.665 0 0 1-5.668 5.668 5.667 5.667 0 1 1 0-11.336 5.667 5.667 0 0 1 5.668 5.668"/><path fill="#fff" d="M743.676 332.652a5.665 5.665 0 0 1-5.668 5.668 5.667 5.667 0 1 1 0-11.336 5.667 5.667 0 0 1 5.668 5.668"/><path fill="none" stroke="#000" stroke-linecap="round" stroke-linejoin="round" stroke-width="2" d="M743.676 332.652a5.665 5.665 0 0 1-5.668 5.668 5.667 5.667 0 1 1 0-11.336 5.667 5.667 0 0 1 5.668 5.668"/><path fill="#d3ae37" d="M341.156 86.04c0 15.655-76.144 28.347-170.078 28.347C77.148 114.387 1 101.695 1 86.039s76.148-28.348 170.078-28.348c93.934 0 170.078 12.692 170.078 28.348"/><path fill="none" stroke="#000" stroke-linecap="round" stroke-linejoin="round" stroke-width="2" d="M341.156 86.04c0 15.655-76.144 28.347-170.078 28.347C77.148 114.387 1 101.695 1 86.039s76.148-28.348 170.078-28.348c93.934 0 170.078 12.692 170.078 28.348m-170.078 226.77 161.41-217.813m-161.41 217.813L117.32 112.941m53.758 199.868L19.984 73.012m151.094 239.797v19.843"/><g fill-rule="evenodd"><path fill="#88d055" d="M92.285 126.258c-.754-.621 1.328-.621.973-1.504 1.375-3.234 2.703-6.559 3.277-10.059 2.172-11.203-.574-23.293-7.527-32.375-7-9.566-17.63-16.61-29.367-18.558-10.72-1.86-22.012.664-31.223 6.379-2.305 1.418-4.477 3.011-6.559 4.738 6.47-7.309 15.903-11.559 25.47-12.621 13.995-1.598 28.702 2.965 38.976 12.664 7 6.559 11.828 15.504 12.8 25.07.84 7.707.043 15.813-3.453 22.766a22.3 22.3 0 0 1-2.527 3.855c-.352.133-.574-.222-.84-.355"/><path fill="#b9f88c" d="M92.063 125.992c-.93-.355-2.434-1.105-1.95-2.39 2.969-5.938 4.207-12.668 4.075-19.313-.176-6.246-1.637-12.625-5.137-17.895-4.074-6.242-10.23-10.984-17.098-13.773-9.832-4.254-21.035-5.668-31.488-3.055-6.512 1.637-12.8 4.782-17.274 9.918-.796.844-1.418 1.817-1.949 2.88-.398 1.242-1.726 1.284-2.66.488-1.371-.575-.84-2.125-.086-3.012 1.95-3.809 5.18-6.863 8.902-9.035 6.2-3.942 13.286-6.688 20.641-7.399 7.57-.84 15.367.399 22.277 3.633 12.09 5.492 21.836 16.3 25.512 29.145 2.613 9.39 1.55 19.621-2.523 28.433-.223.578-.489 1.375-1.243 1.375"/><path d="M91.133 128.297c-5.094-1.684-9.344-5.051-14.172-7.266-20.02-10.851-39.375-22.765-58.379-35.21-1.637-1.153-3.41-2.747-3.41-4.872.133-2.613 1.95-4.695 3.457-6.691 5.89-7.172 14.437-11.781 23.43-13.817 8.328-1.859 17.05-.976 25.246 1.153 9.476 2.566 18.468 7.75 24.757 15.367 7.75 9.48 11.34 22.191 9.7 34.324-.574 4.828-1.903 9.703-4.516 13.82-1.195 1.727-3.012 3.411-5.273 3.368-.266-.043-.575-.09-.84-.176m1.285-1.949c-.887-.664-2.524-.977-2.48-2.348.222-.844.796-1.598 1.062-2.437 4.074-9.743 4.297-21.172.223-30.961-2.438-5.625-6.688-10.364-11.739-13.774-8.195-5.625-18.203-8.281-28.082-8.371-7.972-.09-16.164 1.684-22.851 6.156-3.324 2.258-6.156 5.317-7.887 8.946-1.195.047-2.566-.528-2.965-1.727-.09-1.105.797-1.95 1.238-2.922 4.297-7.086 11.516-12.09 19.356-14.66 15.855-5.184 34.281-1.418 46.86 9.566 6.07 5.317 10.632 12.356 12.8 20.11 1.461 5.312 1.727 10.894 1.242 16.387-.53 4.871-1.863 9.746-4.43 13.996-.71.664-.796 2.125-1.949 2.214-.175.043-.265-.132-.398-.175m-4.785-2.793c-17.36-8.903-33.926-19.223-50.844-28.832-5.492-3.278-10.898-6.778-15.812-10.809 2.878-5.668 8.324-9.7 14.214-11.871 9.657-3.496 20.418-3.41 30.297-.75 7.75 2.082 15.192 5.98 20.461 12.09 3.324 3.898 5.227 8.77 6.157 13.773 1.464 7.442 1.417 15.414-1.282 22.59-.445 1.242-1.062 2.391-1.73 3.543-.309.488-1.016.754-1.461.266m-2.922-13.153c-1.242-.754-.043-2.968 1.285-2.523 1.063.441.84 1.992-.133 2.391-.355.175-.754.265-1.152.132M74.434 99.727c-1.106-.442-.618-2.083.355-2.438 1.11-.352 2.04 1.067 1.375 1.996-.312.664-1.152.93-1.73.442m10.011-.133c-1.195-.84-.308-2.79.973-2.969 1.152-.219 2.215 1.2 1.508 2.215-.532.8-1.64.887-2.48.754m-21.172-7.617c-.886-1.243.309-3.368 1.817-3.102 1.238.445.972 2.172.043 2.79-.485.401-1.238.62-1.86.312m10.942-2.614c-1.063-.886-.266-2.347.351-3.191.711-.973 2.438-.75 2.703.402.223 1.063-.53 2.035-1.328 2.61-.488.355-1.195.445-1.726.18M49.543 85.82c-1.371-.578-1.062-3.101.441-3.191 1.641.137 1.817 2.969.223 3.324-.223.043-.488 0-.664-.133m-13.02-1.593c-1.332-.446-1.773-2.57-.488-3.325 1.153-.441 2.125.977 2.035 2.04.047.753-.75 1.902-1.547 1.285m22.278-4.477c-1.508-.973-.356-3.762 1.418-3.41 1.238.266 1.238 1.996.484 2.793-.398.574-1.238 1.02-1.902.617M42.414 77.8c-1.465-.706-1.2-3.406.484-3.628 1.508 0 2.082 2.082 1.286 3.144-.356.575-1.153.93-1.77.485"/><path fill="#e96c92" d="M87.633 123.555c-17.36-8.903-33.926-19.223-50.844-28.832-5.492-3.278-10.898-6.778-15.812-10.809 2.878-5.668 8.324-9.7 14.214-11.871 9.657-3.496 20.418-3.41 30.297-.75 7.75 2.082 15.192 5.98 20.461 12.09 3.324 3.898 5.227 8.77 6.157 13.773 1.464 7.442 1.417 15.414-1.282 22.59-.445 1.242-1.062 2.391-1.73 3.543-.309.488-1.016.754-1.461.266m-2.922-13.153c-1.242-.754-.043-2.968 1.285-2.523 1.063.441.84 1.992-.133 2.391-.355.175-.754.265-1.152.132M74.434 99.727c-1.106-.442-.618-2.083.355-2.438 1.11-.352 2.04 1.067 1.375 1.996-.312.664-1.152.93-1.73.442m10.011-.133c-1.195-.84-.308-2.79.973-2.969 1.152-.219 2.215 1.2 1.508 2.215-.532.8-1.64.887-2.48.754m-21.172-7.617c-.886-1.243.309-3.368 1.817-3.102 1.238.445.972 2.172.043 2.79-.485.401-1.238.62-1.86.312m10.942-2.614c-1.063-.886-.266-2.347.351-3.191.711-.973 2.438-.75 2.703.402.223 1.063-.53 2.035-1.328 2.61-.488.355-1.195.445-1.726.18M49.543 85.82c-1.371-.578-1.062-3.101.441-3.191 1.641.137 1.817 2.969.223 3.324-.223.043-.488 0-.664-.133m-13.02-1.593c-1.332-.446-1.773-2.57-.488-3.325 1.153-.441 2.125.977 2.035 2.04.047.753-.75 1.902-1.547 1.285m22.278-4.477c-1.508-.973-.356-3.762 1.418-3.41 1.238.266 1.238 1.996.484 2.793-.398.574-1.238 1.02-1.902.617M42.414 77.8c-1.465-.706-1.2-3.406.484-3.628 1.508 0 2.082 2.082 1.286 3.144-.356.575-1.153.93-1.77.485"/><path fill="#88d055" d="M150.918 126.258c-.754-.621 1.328-.621.973-1.504 1.375-3.234 2.703-6.559 3.277-10.059 2.172-11.203-.574-23.293-7.527-32.375-7-9.566-17.629-16.61-29.368-18.558-10.718-1.86-22.011.664-31.222 6.379-2.305 1.418-4.477 3.011-6.559 4.738 6.469-7.309 15.902-11.559 25.469-12.621 13.996-1.598 28.699 2.965 38.977 12.664 7 6.559 11.828 15.504 12.8 25.07.84 7.707.043 15.813-3.457 22.766a22 22 0 0 1-2.523 3.855c-.356.133-.574-.222-.84-.355"/><path fill="#b9f88c" d="M150.695 125.992c-.929-.355-2.433-1.105-1.949-2.39 2.969-5.938 4.207-12.668 4.074-19.313-.175-6.246-1.636-12.625-5.136-17.895-4.075-6.242-10.231-10.984-17.094-13.773-9.836-4.254-21.039-5.668-31.492-3.055-6.512 1.637-12.801 4.782-17.274 9.918-.797.844-1.418 1.817-1.949 2.88-.398 1.242-1.727 1.284-2.66.488-1.371-.575-.84-2.125-.086-3.012 1.95-3.809 5.18-6.863 8.902-9.035 6.2-3.942 13.285-6.688 20.641-7.399 7.57-.84 15.367.399 22.277 3.633 12.09 5.492 21.836 16.3 25.512 29.145 2.613 9.39 1.551 19.621-2.523 28.433-.223.578-.489 1.375-1.243 1.375"/><path d="M149.766 128.297c-5.094-1.684-9.344-5.051-14.172-7.266-20.02-10.851-39.375-22.765-58.38-35.21-1.636-1.153-3.41-2.747-3.41-4.872.133-2.613 1.95-4.695 3.458-6.691 5.89-7.172 14.437-11.781 23.429-13.817 8.329-1.859 17.051-.976 25.247 1.153 9.476 2.566 18.468 7.75 24.757 15.367 7.75 9.48 11.34 22.191 9.7 34.324-.575 4.828-1.903 9.703-4.516 13.82-1.195 1.727-3.012 3.411-5.274 3.368-.265-.043-.574-.09-.839-.176m1.285-1.949c-.887-.664-2.528-.977-2.481-2.348.219-.844.797-1.598 1.063-2.437 4.074-9.743 4.297-21.172.222-30.961-2.437-5.625-6.691-10.364-11.738-13.774-8.195-5.625-18.203-8.281-28.082-8.371-7.972-.09-16.164 1.684-22.851 6.156-3.325 2.258-6.157 5.317-7.887 8.946-1.195.047-2.566-.528-2.965-1.727-.09-1.105.797-1.95 1.238-2.922 4.297-7.086 11.516-12.09 19.356-14.66 15.855-5.184 34.281-1.418 46.859 9.566 6.07 5.317 10.629 12.356 12.801 20.11 1.461 5.312 1.727 10.894 1.242 16.387-.531 4.871-1.863 9.746-4.43 13.996-.71.664-.796 2.125-1.949 2.214-.179.043-.265-.132-.398-.175m-4.785-2.793c-17.364-8.903-33.926-19.223-50.844-28.832-5.492-3.278-10.899-6.778-15.813-10.809 2.88-5.668 8.325-9.7 14.215-11.871 9.656-3.496 20.418-3.41 30.297-.75 7.75 2.082 15.192 5.98 20.465 12.09 3.32 3.898 5.223 8.77 6.152 13.773 1.465 7.442 1.418 15.414-1.285 22.59-.441 1.242-1.058 2.391-1.726 3.543-.309.488-1.016.754-1.461.266m-2.922-13.153c-1.242-.754-.043-2.968 1.285-2.523 1.062.441.84 1.992-.133 2.391-.355.175-.754.265-1.152.132m-10.278-10.675c-1.105-.442-.617-2.083.356-2.438 1.105-.352 2.039 1.067 1.375 1.996-.313.664-1.152.93-1.731.442m10.012-.133c-1.195-.84-.308-2.79.973-2.969 1.152-.219 2.215 1.2 1.508 2.215-.532.8-1.641.887-2.481.754m-21.172-7.617c-.886-1.243.309-3.368 1.817-3.102 1.242.445.972 2.172.043 2.79-.489.401-1.239.62-1.86.312m10.942-2.614c-1.067-.886-.27-2.347.351-3.191.711-.973 2.438-.75 2.703.402.223 1.063-.531 2.035-1.328 2.61-.488.355-1.195.445-1.726.18m-24.672-3.543c-1.371-.578-1.063-3.101.441-3.191 1.641.137 1.817 2.969.223 3.324-.223.043-.488 0-.664-.133m-13.02-1.593c-1.332-.446-1.773-2.57-.488-3.325 1.152-.441 2.125.977 2.035 2.04.047.753-.75 1.902-1.547 1.285m22.278-4.477c-1.508-.973-.356-3.762 1.418-3.41 1.238.266 1.238 1.996.488 2.793-.402.574-1.242 1.02-1.906.617m-16.387-1.95c-1.465-.706-1.2-3.406.484-3.628 1.508 0 2.082 2.082 1.285 3.144-.351.575-1.152.93-1.769.485"/><path fill="#e96c92" d="M146.266 123.555c-17.364-8.903-33.926-19.223-50.844-28.832-5.492-3.278-10.899-6.778-15.813-10.809 2.88-5.668 8.325-9.7 14.215-11.871 9.656-3.496 20.418-3.41 30.297-.75 7.75 2.082 15.192 5.98 20.465 12.09 3.32 3.898 5.223 8.77 6.152 13.773 1.465 7.442 1.418 15.414-1.285 22.59-.441 1.242-1.058 2.391-1.726 3.543-.309.488-1.016.754-1.461.266m-2.922-13.153c-1.242-.754-.043-2.968 1.285-2.523 1.062.441.84 1.992-.133 2.391-.355.175-.754.265-1.152.132m-10.278-10.675c-1.105-.442-.617-2.083.356-2.438 1.105-.352 2.039 1.067 1.375 1.996-.313.664-1.152.93-1.731.442m10.012-.133c-1.195-.84-.308-2.79.973-2.969 1.152-.219 2.215 1.2 1.508 2.215-.532.8-1.641.887-2.481.754m-21.172-7.617c-.886-1.243.309-3.368 1.817-3.102 1.242.445.972 2.172.043 2.79-.489.401-1.239.62-1.86.312m10.942-2.614c-1.067-.886-.27-2.347.351-3.191.711-.973 2.438-.75 2.703.402.223 1.063-.531 2.035-1.328 2.61-.488.355-1.195.445-1.726.18m-24.672-3.543c-1.371-.578-1.063-3.101.441-3.191 1.641.137 1.817 2.969.223 3.324-.223.043-.488 0-.664-.133m-13.02-1.593c-1.332-.446-1.773-2.57-.488-3.325 1.152-.441 2.125.977 2.035 2.04.047.753-.75 1.902-1.547 1.285m22.278-4.477c-1.508-.973-.356-3.762 1.418-3.41 1.238.266 1.238 1.996.488 2.793-.402.574-1.242 1.02-1.906.617m-16.387-1.95c-1.465-.706-1.2-3.406.484-3.628 1.508 0 2.082 2.082 1.285 3.144-.351.575-1.152.93-1.769.485"/><path fill="#247040" d="M181.344 136.25c-.633.293-1.121-.437-.879-.977.246-.73.926-.046 1.414-.144.73.051 1.605-.098 2.242.437.582.536-.488 1.075-1.023.977-.586-.051-1.172-.246-1.754-.293m2.777-.684c-.73-.488-2.535-.195-3.266-.679-.488-.442.293-1.317.391-1.805.289-.68.391-1.461.242-2.191-.242-1.61-1.07-3.02-1.754-4.485-1.707-3.652-3.656-7.16-5.261-10.91 1.023-.391 1.996.289 2.972.582.778.195 1.024 1.074 1.219 1.754.145.731.289 1.414.68 2.047 1.461 3.266 3.168 6.434 4.629 9.695.586 1.656.925 3.41.879 5.117.386 1.317-.344 1.122-.731.875m-23.289-13.789c-1.512-.386-3.168-.535-4.434-1.507 2.825-.438 5.36-2.047 7.211-4.192 1.024-1.461 1.754-3.215 3.262-4.238.781-.582 1.707-1.024 2.68-1.07.637 0 1.023.535 1.558.828.926.679 1.121 1.996 2.098 2.629.535 1.121.098 2.437-.488 3.461-.684 1.167-1.656 2.386-2.778 3.117-2.535 1.511-5.699 1.461-8.527 1.074-.191-.051-.387-.051-.582-.102m24.848-2.968c-2.828-1.903-6.239-2.582-9.453-3.606-1.024-.293-1.997-.73-2.825-1.461-1.218-1.023-2.097-2.679-1.754-4.34.243-.972 1.215-1.847 2.239-1.507.539.046 1.074.679 1.269.046.196-.484.34-1.168 1.024-1.168 2.531-.242 5.066.829 6.82 2.629a8.42 8.42 0 0 1 2.484 4.922c.34 1.563.489 3.121.582 4.68-.093.191-.339-.051-.386-.195m-25.09-1.754c-2.731-.828-5.703-1.414-8.578-.977-.242.828-1.559-.047-.582-.387 1.215-1.66 3.066-2.73 4.918-3.461 1.656 0 3.121.782 4.679 1.071.731.441 1.899.344 2.727.637.73.339-.488 1.507-.731 1.949-.437.535-.828.972-1.511 1.215-.289.097-.633.148-.922-.047m28.984-.586c-1.215-.293-2.582-.535-3.359-1.61-.293-.484-.438-1.117-.438-1.703 0-.777.926 0 1.024-.051-.442-.535-.977-.921-1.461-1.41-.539-1.023-1.172-2.144-2.195-2.73-.489-.535 0-1.266.632-1.363.586-.196 1.172.05 1.754.144 3.266.586 5.895 2.926 9.16 3.606.536-.34 1.168.195 1.219.734.145.582-.144 1.117-.633 1.461-.586.633-1.074 1.363-1.804 1.898-1.121.828-2.532 1.317-3.899 1.024m16.176-.684c-2.238-1.754-5.164-2.387-7.941-2.433-.485-.098-1.168.195-1.364-.391-.195-.633.34-1.266.051-1.852-.391-.39-1.023-.195-1.558-.293-.442.098-.684-.535-.149-.386.293.093 1.024 0 .438-.293-.485-.391.539-.246.781-.489 1.265-.437 2.484-1.074 3.847-1.414 1.559.098 2.829 1.219 4.043 2.145 1.512 1.461 2.582 3.652 2.243 5.797-.196 0-.196-.34-.391-.391m-14.469-6.43c-.683-.535-1.656-.488-2.289-1.167-.586-.586 1.024-.247.731-.633-.879.386-.879.386-1.707-.293-.633-.977.343-1.512.683-1.852 1.168-1.07 2.68-1.609 4.094-2.094 3.41-.976 7.062-1.464 10.57-.781 1.414.293 2.778.781 3.996 1.461-.683.781-1.804.438-2.679.731-.489.246-1.024.586-1.61.828-2.726 1.414-5.355 3.312-8.476 3.949-1.071.242-2.242.242-3.313-.149"/><path fill="#d1242b" d="M152.84 109.551c-1.801-1.899-2.973-4.289-3.899-6.676-1.363-3.992-1.605-8.281-1.312-12.473.484-4.87 1.996-9.597 3.894-14.078 1.95-4.336 3.852-8.672 5.946-12.914 1.316-2.676 2.633-5.308 4.386-7.695 1.848-2.387 4.676-4.192 7.793-4.043 2.145 0 4.094 1.07 5.899 2.144 2.871 1.606 5.648 3.36 8.523 5.067 6.918 5.015 12.766 11.398 18.075 18.023 1.656 2.196 2.925 4.727 3.265 7.504.535 3.508.488 7.113-.242 10.621-.535 2.047-1.609 3.899-2.535 5.75-.778 1.266-2.242.684-3.457.731-3.363.195-6.774 1.023-9.696 2.777-.878.731-1.316 1.805-2 2.68-1.265.926-2.972-.34-4.238.586-1.07.582-2.34-.098-3.265-.633-1.657-.734-3.704-.734-5.211.289-1.024.391-2.289.535-3.02 1.512.192 1.121-1.074 2.191-2.144 1.707-.977-.293-2.047.34-2.875.875-.926.535-1.61 1.605-2.68 1.949-3.559-.293-8.82-2.047-11.207-3.703"/><path d="M181 136.738c-1.266.047-2.094-1.804-.777-2.39 1.265-1.364.972-3.41.437-5.016-.828-2.633-2.387-4.871-3.605-7.309-.926-1.804-1.899-3.656-2.629-5.503-1.27.195-.93 1.8-1.707 2.484-1.899 2.434-5.02 3.652-8.086 3.75-3.121.098-6.238-.535-8.965-2.047.145-1.121 1.461-.828 2.238-1.121.782-.68 2.145-.633 2.731-1.606-.391-.878-1.559-.73-2.34-.925-1.559-.246-3.117-.731-4.727-.633a5.15 5.15 0 0 0-3.312 1.215c-1.024-.145.293-1.313.539-1.801 1.215-1.559 2.726-3.07 4.625-3.75-.731-1.316-2.531-1.512-3.313-2.777-3.261-3.364-4.824-7.993-5.308-12.57-.828-7.458 1.168-14.958 4.336-21.684 2.629-5.457 5.359-10.91 7.988-16.368 1.465-2.68 3.117-5.507 5.945-6.917 2.68-1.317 6.09-1.22 8.672.386 3.457 1.754 6.723 3.703 10.035 5.653 7.649 5.117 13.887 12.035 19.293 19.441 1.852 2.824 2.828 6.188 3.317 9.547.582 4.777-.293 9.793-2.875 13.887-.828 1.363 1.168 1.754 2.14 1.996.879.343 2.973.781 2.293 2.047-1.023.632-2.34.246-3.363.828-1.316.539-2.484 1.316-3.703 1.949.242 1.121 1.559 1.023 2.34 1.609 1.656 1.508 3.215 3.41 3.508 5.7.39.828-.051 2.437-1.172 1.851-.485-.879-1.461-1.266-2.336-1.559-2.289-.925-4.778-1.023-7.164-1.414-1.313 1.364-2.629 2.973-4.629 3.215-1.606.344-3.457 0-4.723-1.121-1.074.637-.195 1.903-.148 2.778.195.683-.489 1.753-1.024.781-1.218-1.121-2.875-1.461-4.336-2.094-.73-.148-1.605-.828-2.242-.195-.289 1.023.488 1.898.735 2.777 1.8 4.383 4.578 8.379 5.406 13.055.195 1.023.586 2.144.144 3.121-.582 1.07-1.996 1.121-3.066.972-.391-.046-.781-.144-1.172-.242m.293-.39c-1.219.488-1.121-2.047.098-1.121.925.097 2.535-.196 2.972.73-.488 1.219-2.144.438-3.07.391m2.34-1.219c-.781-.535-2.485.391-2.68-.875.145-.879.684-1.707.582-2.633-.047-1.558-.68-3.019-1.265-4.433-1.754-3.946-4.09-7.602-5.797-11.594 1.168-.391 2.289.437 3.41.777.972 1.024.73 2.582 1.512 3.703 1.703 3.946 4.089 7.602 5.21 11.84.196 1.07.247 2.191.247 3.313-.442 0-.829.046-1.219-.098m-22.801-13.25c-1.414-.391-3.019-.391-4.141-1.414 1.704-.535 3.457-1.074 4.821-2.34 2.191-1.801 3.461-4.531 5.652-6.332.731-.586 1.609-1.023 2.535-1.121.731 1.168-1.461 1.266-1.656 2.289-1.121 1.461-1.707 3.215-2.73 4.727 1.609-1.168 1.902-3.364 3.363-4.727.633-.633 1.414-1.609 2.433-1.219 1.024.731 1.414 2 2.196 2.926.535 1.168-.246 2.387-.782 3.41-1.218 2.094-3.507 3.555-5.945 3.848-1.898.293-3.848.242-5.746-.047m24.848-2.973c-3.215-2.242-7.211-2.73-10.77-4.14-1.754-.782-3.457-2.387-3.312-4.438 0-1.117.73-2.387 1.898-2.484 1.317.148 1.66 1.707 2.535 2.437 1.852 1.657 4.336 2.34 6.336 3.801.731.34-.586-.781-.832-.879-1.558-1.019-3.406-1.605-4.82-2.824a6.1 6.1 0 0 1-1.805-2.047c.535-.488.293-1.605 1.414-1.461 1.949-.242 3.899.535 5.504 1.609 1.656 1.118 2.926 2.872 3.41 4.872.489 1.656.539 3.41.926 5.117.051.289-.144.679-.484.437m-25.09-1.851c-2.731-.828-5.652-1.317-8.527-.879-.247.976-1.754-.242-.633-.485 1.363-1.511 3.117-2.679 5.015-3.461 1.903.489 3.801 1.219 5.75 1.364-.144 1.074-1.707.246-2.484.488-1.219 0-2.438 0-3.656.098 2.144.39 4.386.195 6.578.097.683-.879 1.805.731.633.973-.536.926-1.364 2.484-2.676 1.805m28.984-.489c-1.265-.293-2.824-.586-3.508-1.851-.195-.582-.777-2.387.442-1.656 1.996 1.265 4.629 1.265 6.82.339-1.363 0-2.633.586-3.945.344-1.512-.195-3.121-.781-4.043-2.047-.539-1.023-1.172-2.047-2.195-2.679-.778-1.172 1.074-1.657 1.902-1.27 3.508.442 6.234 3.024 9.644 3.703 1.075-.535 1.61 1.172.973 1.852-.68.488-1.117 1.316-1.754 1.851-1.168 1.024-2.773 1.754-4.336 1.414m16.176-.679c-2.484-2-5.797-2.535-8.914-2.438-1.172-.437.633-2.386-.875-2.484-.441-.098-1.805.098-1.465-.442 2.68 0 5.313.344 7.844 1.172-1.852-1.461-4.336-1.461-6.527-1.367-.633.293-1.219-.437-.293-.437 1.46-.438 2.828-1.168 4.335-1.559 1.559.098 2.829 1.219 3.997 2.145 1.558 1.461 2.628 3.605 2.289 5.796-.196 0-.196-.339-.391-.386m-42.578-2.782c-3.754-.535-7.602-1.507-10.723-3.75-1.07-1.218-1.652-2.726-2.582-4.042-2.289-4.336-2.433-9.403-2.289-14.18.391-6.672 2.973-13.008 5.801-19 2.484-5.457 4.773-10.961 8.086-15.93 1.801-2.828 5.113-4.777 8.527-4.531 2.238.195 4.238 1.363 6.137 2.434 2.875 1.804 5.797 3.413 8.574 5.312 5.801 4.289 10.77 9.55 15.445 15.004 2.34 2.777 4.579 5.898 5.165 9.601.683 3.602.535 7.356-.196 10.961-.633 2.336-1.851 4.48-3.019 6.579-4.434-.344-9.063.484-12.813 2.871-.926.781-1.172 2.046-2.195 2.73-1.266.535-2.777-.488-3.945.391-1.071.633-2.243-.149-3.215-.633-1.61-.734-3.657-.781-5.164.289-1.024.441-2.289.441-2.973 1.414 0 1.219-1.168 2.438-2.34 1.703-1.558-.094-2.875.93-3.992 1.949-.586.489-1.414 1.317-2.289.828m-6.774-2.824c-1.414.293-.828-2.726.196-1.414.293.344.926 2.098-.196 1.414m7.942-.242c-1.024-.246-1.074-2.242.098-2.195 1.167.097 1.46 2.437.097 2.293a.37.37 0 0 1-.195-.098m.047-.148c-1.461-.196 0-2.825.73-1.317.344.489.149 1.903-.73 1.317m-8.282-.098c-1.414-.484 1.168-1.801.782-.242-.051.39-.586.683-.782.242m35.176-.34c-.73-.535-2.34-.633-2.437-1.512 1.367-.339 2.777 0 4.144-.386 2.485-.586 4.821-1.805 7.356-2.293.679-.289-1.121-.047-1.414.051-3.02.535-5.75 2.144-8.867 2.191-.829.391-2.825 0-2.094-1.219 1.023-1.461 2.777-2.14 4.383-2.726 3.121-.973 6.382-1.461 9.597-1.121 1.903.195 3.754.73 5.41 1.656-.828.976-2.339.195-3.214 1.023-3.461 1.559-6.532 4.192-10.426 4.629-.828.047-1.656 0-2.438-.293m-35.711-3.801c-.343-.925-1.511-2.242-.437-3.066 1.07-.293 1.898 1.215 1.41 2.043.195-.777-.68-2.336-1.512-1.461-.535 1.172.735 1.996 1.27 2.824-.246.051-.535-.094-.731-.34m12.766-3.261c-1.023-.391-.539-2.68.633-1.95.875.438.73 2.629-.442 2.145l-.097-.102zm.34.144c-1.219-.051-.586-2.68.437-1.656.438.488.535 1.801-.437 1.656m7.89-1.07c.684-1.367-1.753-.828-1.312-.539-.051-1.266 2.289-.633 1.461.488 0 .098-.149.344-.149.051m8.918-.246c-1.265-.391-.144-2.922.875-1.703.391.289.344 1.558.293 1.461.633-.926-1.507-2.094-1.507-.731-.149.145.972 1.41.339.973m7.891-1.559c.246-.34 1.609-1.023.781-.097-.246.148-.535.195-.781.097m-33.52-.875c.735-.926-1.656-1.512-1.214-.344-1.121-1.218 2.093-1.363 1.265.098 0 .05.047.586-.051.246m33.618-.05c-.875-.778-1.071-2.485 0-3.169 1.218.051 1.511 1.657 1.023 2.536-.195.39-.586.828-1.023.632m-.34-.684c-.977-.778.488-2.871 1.265-1.508.442.68-.046 2.34-1.07 1.8a.9.9 0 0 1-.195-.292m7.308-2.094c-1.171-.73.926-2.824 1.219-1.219-.148.633-.539-.972-1.074-.242-.34.438-.289 1.266-.145 1.461m-37.906-2.047c-.73-.828 1.317.246.293.196-.098 0-.195-.098-.293-.196m-10.472-.293c-.442-.973 1.949-.973 1.023-2.094-.148-.828-1.563-.68-1.465.149-.633-.926 1.172-1.461 1.512-.488.828.925-.684 1.851-.438 2.484.438.633-.488.098-.632-.05m10.472-.582c-.875-.586-.582-2.535.637-2.437.922.343.922 1.707.387 2.386-.196.293-.778.489-1.024.051m0-.195c-.828-.535-.144-2.047.781-1.852.778.438.489 2.29-.488 2.094-.098-.047-.195-.144-.293-.242m20.028-.098c-1.317-.437 0-2.824.972-1.707.731.637.051 2.73-.972 1.707m.093-.144c-1.461-.633 1.172-2.34 1.024-.633.148.535-.68 1.508-1.024.633m-9.937-.54c-.586-.828-1.703-2.386-.535-3.117.972-.242 1.414 1.364 1.265 1.754.34-1.12-1.851-1.949-1.511-.437 0 .683 1.218 1.511.976 1.8zm23.336-1.753c.293-.243.925-1.754.879-.633-.149.344-.489.633-.879.633m-.485-1.168c-1.023-.633-1.707-2.145-1.023-3.266.973-.633 1.996.586 2.047 1.465.094.582-.149.824-.149.094 0-1.266-2.144-1.703-1.949-.145.098.926.879 1.754 1.852 1.754-.196.195-.582.34-.778.098m6.09-4.434c.047-.39 1.266-1.07.731-.242-.149.195-.489.387-.731.242m-46.629-.39c-.972-.582.879-2.044 1.172-1.024-.683-.875-1.316.39-1.172 1.023m24.071-.145c-1.024-.34-.633-2.34.488-2.094 1.023.34 1.07 2.485-.195 2.29l-.149-.052zm.195 0c-1.461-.246.098-2.777.73-1.266.293.485.098 1.946-.73 1.266m21.875-.684c-.781-.68-.828-2.433.34-2.628 1.218.292 1.461 2.386.293 2.875a.64.64 0 0 1-.633-.247m.144-.046c-1.265-.442-.195-3.024.879-1.754.438.632.243 2.289-.879 1.754m-38.828-1.415c.293-1.265-1.609-.292-1.461-.097-.148-1.364 2.387-.875 1.657.39-.149.145-.196-.195-.196-.293m25.141.196c-.098-.586 1.019-1.512.484-.39-.144.144-.293.292-.484.39m-1.074-1.266c-1.071-.39-1.266-2.777.195-2.484 1.07.289 1.656 2.14.535 2.726-.293.098-.582-.047-.73-.242m.05-.246c-1.414-.242-.292-2.871.778-1.605.633.535.344 2.582-.778 1.605m-16.664-.242c-.535-.781-1.218-2.094-.293-2.922.684-.344 1.512 1.508.586.438-1.265-.145-1.168 1.609-.195 2.046.242.196.684.973 0 .535zm-12.765-3.363c-.289-.973 1.316.78.097.05-.046 0-.046-.05-.097-.05m.195-.73c-.828-.731-.973-2.337.051-2.97 1.168-.05 1.558 1.508 1.117 2.383-.191.442-.68 1.024-1.168.586m.195.05c-.828-.535-1.023-2.242.098-2.484.977.097 1.07 1.46.586 2.144a.87.87 0 0 1-.684.34m36.055-1.852c.242-.293.926-1.804.973-.73-.145.387-.489.777-.973.73m-.976-1.558c-.778-.73-1.168-2.243-.196-2.973 1.074-.195 1.754 1.023 1.805 1.996.242.828-1.024 2.098-1.609.977m.148-.051c-1.121-.488-.828-3.117.633-2.242.875.488.972 2.683-.34 2.488l-.148-.098zm-11.891-2.68c-1.214-.34-.828-2.972.539-2.047.68.489.731 2.485-.539 2.047m-18.707-.242c-.879-.586-.34-2.582.875-2.145.828.587.442 2.68-.777 2.243-.051 0-.098-.051-.098-.098m18.707.047c-1.507-.293.196-2.871.782-1.219.242.489 0 1.805-.782 1.219m-18.609-.047c-1.219-.586.535-2.824.973-1.316.148.586-.243 1.656-.973 1.316m11.012-.535c-1.317-.442-.196-3.07.777-1.805.344.633.051.489-.242.098-1.512-.34-1.07 2.387.34 1.754.437.242-1.024.437-.875-.047m7.355-6.285c1.121-.782-1.07-2.828-1.219-1.317.098.34.489 1.364-.195.684-.73-.977 1.024-2.293 1.512-1.023.242.484.535 1.312-.098 1.656m-13.738-1.805c-1.168-.34-.535-2.777.633-1.95.925.49.633 2.927-.633 1.95m.242.148c-1.363-.195-.195-2.874.633-1.464.293.539.293 1.804-.633 1.465m5.895-4.144c-1.266-.387-.387-2.922.73-1.945.246.34.637 1.46.246.484-.828-.828-2 .586-.976 1.219.148.097.343.586 0 .242"/><path fill="#ffc13f" d="M164.387 109.793c-1.508-.34.535-2.582.781-.875.195.484-.195 1.605-.781.875m-8.621-.289c-.539-1.27 1.949-.051.679.387-.242-.047-.484-.196-.679-.387m-.246-4.727c-1.168-.148-.438-2.484.535-1.656.539.438.488 2.238-.535 1.656m13.007-2.437c-1.507-.242.442-2.68.782-1.024.195.489-.098 1.754-.782 1.024m7.164-.242c-1.461-.535 1.071-2.387.778-.633 0 .387-.391 1.07-.778.633m-24.945-.684c-1.121-.633 1.168-1.61.684-.34.047.391-.586.926-.684.34m34.836-.293c-1.414-.586.973-2.484.973-.73.148.488-.489 1.511-.973.73m-26.602-2.043c-1.316-.293.731-2.144.731-.734.34.441-.438 1.61-.731.734m34.297-.781c-.632-.586-.339-2.242.633-2.094 1.028.387.586 2.531-.582 2.094zm7.309-2.387c-1.219-.879 1.609-1.851.879-.39-.098.34-.586.878-.879.39m-48.184-2.875c-1.316-.144-.339-2.824.536-1.512.246.536.148 1.461-.536 1.512m10.133-.144c-.926-.54.195-2.391.977-1.61.484.582-.051 2.29-.977 1.61m20.172-.344c-1.461-.684 1.266-2.145.926-.438.097.489-.731 1.317-.926.438m-10.328-1.512c-1.512-.289.484-2.726.777-1.02.196.485-.097 1.754-.777 1.02m22.848-2.387c-1.024-.488-.731-3.02.632-2.093.829.535.879 2.484-.386 2.289l-.098-.047zm-39.852-3.945c-1.172-.68 1.168-2.191.926-.586.047.442-.586 1.219-.926.586m23.871-.68c-1.461-.343.637-2.535.828-.93.293.489-.242 1.805-.828.93m22.317-.441c-.829-.293-.926-1.996.046-2.144.977.097 1.075 2.144-.046 2.144m-40-.73c-1.317-.73 1.265-2.145.875-.583.05.438-.583 1.215-.875.583m25.187-2.047c-.973-.145-.926-1.801 0-1.95.926.098 1.363 1.903.34 2.098a.44.44 0 0 1-.34-.148m-16.953-1.266c-1.461-.437.777-2.437.875-.828.195.488-.391 1.61-.875.828m-12.473-3.457c-1.172-.586.098-2.973.973-1.66.391.633 0 2.242-.973 1.66m35.469-3.168c-1.121-.488-.586-3.07.68-2.047.828.535.828 2.535-.438 2.242l-.097-.097zm-30.453-2.926c-1.313-.535.73-2.726.926-1.07.05.488-.289 1.363-.926 1.07m18.465-.047c-1.461-.488.925-2.386.925-.78.196.487-.437 1.558-.925.78m-7.114-.293c-1.507-.097-.144-2.921.489-1.218.195.437.148 1.218-.489 1.218m6.141-6.867c-1.461-.734 1.219-2.195 1.023-.539.196.633-.781 1.414-1.023.54m-12.812-1.465c-1.512-.34.679-2.53.828-.875.144.438-.34 1.703-.828.875m6.187-4.043c-1.512-.437.777-2.484.875-.828.148.438-.391 1.61-.875.828"/><path fill="#247040" d="M237.141 136.25c-.633.293-1.121-.437-.879-.977.246-.73.926-.046 1.414-.144.73.051 1.605-.098 2.238.437.586.536-.484 1.075-1.019.977-.586-.051-1.172-.246-1.754-.293m2.773-.684c-.726-.488-2.531-.195-3.262-.679-.488-.442.293-1.317.391-1.805.293-.68.391-1.461.242-2.191-.242-1.61-1.07-3.02-1.754-4.485-1.707-3.652-3.652-7.16-5.261-10.91 1.023-.391 1.996.289 2.972.582.778.195 1.024 1.074 1.219 1.754.144.731.293 1.414.68 2.047 1.461 3.266 3.168 6.434 4.629 9.695.585 1.656.925 3.41.878 5.117.387 1.317-.343 1.122-.734.875m-23.285-13.789c-1.512-.386-3.168-.535-4.434-1.507 2.825-.438 5.36-2.047 7.211-4.192 1.024-1.461 1.754-3.215 3.262-4.238.781-.582 1.707-1.024 2.68-1.07.632 0 1.023.535 1.558.828.93.679 1.121 1.996 2.098 2.629.535 1.121.098 2.437-.488 3.461-.68 1.167-1.657 2.386-2.778 3.117-2.535 1.511-5.699 1.461-8.523 1.074-.195-.051-.391-.051-.586-.102m24.848-2.968c-2.829-1.903-6.239-2.582-9.454-3.606-1.023-.293-1.996-.73-2.824-1.461-1.219-1.023-2.097-2.679-1.754-4.34.243-.972 1.215-1.847 2.239-1.507.539.046 1.074.679 1.269.046.192-.484.34-1.168 1.024-1.168 2.531-.242 5.066.829 6.82 2.629a8.42 8.42 0 0 1 2.484 4.922c.34 1.563.489 3.121.582 4.68-.093.191-.34-.051-.386-.195m-25.094-1.754c-2.727-.828-5.699-1.414-8.574-.977-.243.828-1.559-.047-.582-.387 1.214-1.66 3.066-2.73 4.918-3.461 1.656 0 3.121.782 4.679 1.071.731.441 1.899.344 2.727.637.73.339-.488 1.507-.731 1.949-.437.535-.828.972-1.511 1.215-.289.097-.633.148-.926-.047m28.988-.586c-1.215-.293-2.582-.535-3.359-1.61-.293-.484-.438-1.117-.438-1.703 0-.777.922 0 1.024-.051-.442-.535-.977-.921-1.465-1.41-.535-1.023-1.168-2.144-2.192-2.73-.488-.535 0-1.266.633-1.363.586-.196 1.172.05 1.754.144 3.266.586 5.895 2.926 9.16 3.606.535-.34 1.168.195 1.219.734.145.582-.144 1.117-.633 1.461-.586.633-1.074 1.363-1.804 1.898-1.122.828-2.532 1.317-3.899 1.024m16.176-.684c-2.238-1.754-5.164-2.387-7.942-2.433-.484-.098-1.167.195-1.363-.391-.195-.633.344-1.266.047-1.852-.387-.39-1.019-.195-1.559-.293-.437.098-.679-.535-.144-.386.293.093 1.023 0 .437-.293-.488-.391.54-.246.782-.489 1.265-.437 2.484-1.074 3.847-1.414 1.559.098 2.828 1.219 4.043 2.145 1.512 1.461 2.582 3.652 2.243 5.797-.196 0-.196-.34-.391-.391m-14.469-6.43c-.683-.535-1.656-.488-2.289-1.167-.586-.586 1.024-.247.731-.633-.879.386-.879.386-1.707-.293-.633-.977.343-1.512.683-1.852 1.168-1.07 2.68-1.609 4.094-2.094 3.41-.976 7.062-1.464 10.57-.781 1.414.293 2.778.781 3.996 1.461-.683.781-1.804.438-2.679.731-.489.246-1.024.586-1.61.828-2.726 1.414-5.359 3.312-8.476 3.949-1.071.242-2.243.242-3.313-.149"/><path fill="#d1242b" d="M208.637 109.551c-1.801-1.899-2.973-4.289-3.899-6.676-1.363-3.992-1.605-8.281-1.312-12.473.484-4.87 1.996-9.597 3.894-14.078 1.95-4.336 3.852-8.672 5.946-12.914 1.316-2.676 2.632-5.308 4.386-7.695 1.852-2.387 4.676-4.192 7.793-4.043 2.145 0 4.094 1.07 5.895 2.144 2.875 1.606 5.652 3.36 8.527 5.067 6.918 5.015 12.766 11.398 18.074 18.023 1.657 2.196 2.926 4.727 3.266 7.504.535 3.508.488 7.113-.242 10.621-.539 2.047-1.61 3.899-2.535 5.75-.782 1.266-2.242.684-3.457.731-3.364.195-6.774 1.023-9.7 2.777-.875.731-1.312 1.805-1.996 2.68-1.265.926-2.972-.34-4.238.586-1.07.582-2.34-.098-3.266-.633-1.656-.734-3.703-.734-5.21.289-1.024.391-2.29.535-3.024 1.512.195 1.121-1.07 2.191-2.141 1.707-.976-.293-2.046.34-2.875.875-.925.535-1.609 1.605-2.679 1.949-3.559-.293-8.821-2.047-11.207-3.703"/><path d="M236.797 136.738c-1.266.047-2.094-1.804-.777-2.39 1.265-1.364.972-3.41.437-5.016-.828-2.633-2.387-4.871-3.605-7.309-.926-1.804-1.899-3.656-2.629-5.503-1.27.195-.926 1.8-1.707 2.484-1.899 2.434-5.02 3.652-8.086 3.75-3.121.098-6.239-.535-8.965-2.047.144-1.121 1.461-.828 2.238-1.121.781-.68 2.145-.633 2.731-1.606-.391-.878-1.559-.73-2.34-.925-1.559-.246-3.117-.731-4.727-.633a5.14 5.14 0 0 0-3.312 1.215c-1.024-.145.293-1.313.535-1.801 1.219-1.559 2.73-3.07 4.629-3.75-.731-1.316-2.531-1.512-3.313-2.777-3.261-3.364-4.82-7.993-5.308-12.57-.828-7.458 1.168-14.958 4.336-21.684 2.629-5.457 5.359-10.91 7.988-16.368 1.461-2.68 3.117-5.507 5.945-6.917 2.68-1.317 6.09-1.22 8.672.386 3.457 1.754 6.723 3.703 10.035 5.653 7.649 5.117 13.887 12.035 19.293 19.441 1.852 2.824 2.828 6.188 3.317 9.547.582 4.777-.293 9.793-2.875 13.887-.829 1.363 1.168 1.754 2.14 1.996.879.343 2.973.781 2.293 2.047-1.023.632-2.34.246-3.363.828-1.316.539-2.484 1.316-3.703 1.949.246 1.121 1.558 1.023 2.34 1.609 1.656 1.508 3.214 3.41 3.507 5.7.387.828-.05 2.437-1.171 1.851-.485-.879-1.461-1.266-2.336-1.559-2.289-.925-4.778-1.023-7.164-1.414-1.317 1.364-2.629 2.973-4.629 3.215-1.606.344-3.457 0-4.727-1.121-1.07.637-.191 1.903-.144 2.778.195.683-.489 1.753-1.024.781-1.219-1.121-2.875-1.461-4.336-2.094-.73-.148-1.605-.828-2.238-.195-.293 1.023.484 1.898.73 2.777 1.801 4.383 4.579 8.379 5.407 13.055.195 1.023.586 2.144.144 3.121-.582 1.07-1.996 1.121-3.066.972-.391-.046-.781-.144-1.172-.242m.293-.39c-1.219.488-1.121-2.047.098-1.121.925.097 2.535-.196 2.972.73-.488 1.219-2.144.438-3.07.391m2.34-1.219c-.782-.535-2.485.391-2.68-.875.145-.879.684-1.707.586-2.633-.051-1.558-.684-3.019-1.27-4.433-1.753-3.946-4.089-7.602-5.796-11.594 1.168-.391 2.289.437 3.41.777.972 1.024.73 2.582 1.511 3.703 1.704 3.946 4.09 7.602 5.211 11.84.196 1.07.246 2.191.246 3.313-.437 0-.828.046-1.218-.098m-22.801-13.25c-1.414-.391-3.024-.391-4.141-1.414 1.703-.535 3.457-1.074 4.821-2.34 2.195-1.801 3.461-4.531 5.652-6.332.73-.586 1.609-1.023 2.535-1.121.731 1.168-1.465 1.266-1.656 2.289-1.121 1.461-1.707 3.215-2.731 4.727 1.61-1.168 1.903-3.364 3.364-4.727.632-.633 1.414-1.609 2.433-1.219 1.024.731 1.414 2 2.196 2.926.535 1.168-.247 2.387-.782 3.41-1.218 2.094-3.507 3.555-5.941 3.848-1.902.293-3.852.242-5.75-.047m24.848-2.973c-3.215-2.242-7.211-2.73-10.77-4.14-1.754-.782-3.457-2.387-3.312-4.438 0-1.117.73-2.387 1.902-2.484 1.312.148 1.656 1.707 2.531 2.437 1.852 1.657 4.336 2.34 6.332 3.801.735.34-.582-.781-.824-.879-1.563-1.019-3.414-1.605-4.824-2.824-.731-.535-1.367-1.219-1.805-2.047.535-.488.293-1.605 1.414-1.461 1.949-.242 3.899.535 5.504 1.609 1.656 1.118 2.926 2.872 3.41 4.872.488 1.656.539 3.41.93 5.117.047.289-.149.679-.488.437m-25.094-1.851c-2.727-.828-5.649-1.317-8.524-.879-.246.976-1.754-.242-.632-.485 1.363-1.511 3.117-2.679 5.015-3.461 1.903.489 3.801 1.219 5.75 1.364-.144 1.074-1.707.246-2.484.488-1.219 0-2.438 0-3.656.098 2.144.39 4.386.195 6.578.097.683-.879 1.804.731.633.973-.536.926-1.364 2.484-2.68 1.805m28.988-.489c-1.266-.293-2.824-.586-3.508-1.851-.191-.582-.777-2.387.442-1.656 1.996 1.265 4.629 1.265 6.82.339-1.363 0-2.633.586-3.945.344-1.512-.195-3.121-.781-4.047-2.047-.535-1.023-1.168-2.047-2.192-2.679-.781-1.172 1.075-1.657 1.903-1.27 3.508.442 6.234 3.024 9.644 3.703 1.075-.535 1.61 1.172.977 1.852-.684.488-1.121 1.316-1.754 1.851-1.172 1.024-2.777 1.754-4.34 1.414m16.176-.679c-2.484-2-5.797-2.535-8.914-2.438-1.168-.437.633-2.386-.879-2.484-.438-.098-1.801.098-1.461-.442 2.68 0 5.312.344 7.844 1.172-1.852-1.461-4.336-1.461-6.528-1.367-.632.293-1.218-.437-.293-.437 1.461-.438 2.829-1.168 4.336-1.559 1.559.098 2.828 1.219 3.996 2.145 1.559 1.461 2.629 3.605 2.29 5.796-.196 0-.196-.339-.391-.386m-42.582-2.782c-3.75-.535-7.598-1.507-10.719-3.75-1.07-1.218-1.656-2.726-2.582-4.042-2.289-4.336-2.434-9.403-2.289-14.18.391-6.672 2.973-13.008 5.797-19 2.484-5.457 4.777-10.961 8.09-15.93 1.801-2.828 5.117-4.777 8.523-4.531 2.242.195 4.242 1.363 6.141 2.434 2.875 1.804 5.797 3.413 8.574 5.312 5.797 4.289 10.77 9.55 15.445 15.004 2.34 2.777 4.578 5.898 5.164 9.601.684 3.602.536 7.356-.195 10.961-.633 2.336-1.851 4.48-3.019 6.579-4.434-.344-9.063.484-12.817 2.871-.922.781-1.168 2.046-2.191 2.73-1.266.535-2.778-.488-3.946.391-1.07.633-2.242-.149-3.214-.633-1.61-.734-3.657-.781-5.164.289-1.024.441-2.29.441-2.973 1.414 0 1.219-1.168 2.438-2.34 1.703-1.559-.094-2.871.93-3.992 1.949-.586.489-1.414 1.317-2.293.828m-6.77-2.824c-1.414.293-.828-2.726.196-1.414.293.344.925 2.098-.196 1.414m7.942-.242c-1.024-.246-1.074-2.242.097-2.195 1.168.097 1.461 2.437.094 2.293a.37.37 0 0 1-.191-.098m.047-.148c-1.461-.196 0-2.825.73-1.317.344.489.149 1.903-.73 1.317m-8.282-.098c-1.414-.484 1.168-1.801.782-.242-.051.39-.586.683-.782.242m35.176-.34c-.73-.535-2.34-.633-2.437-1.512 1.367-.339 2.777 0 4.14-.386 2.489-.586 4.824-1.805 7.36-2.293.679-.289-1.121-.047-1.414.051-3.02.535-5.75 2.144-8.868 2.191-.828.391-2.824 0-2.093-1.219 1.023-1.461 2.777-2.14 4.382-2.726 3.122-.973 6.383-1.461 9.598-1.121 1.902.195 3.754.73 5.41 1.656-.828.976-2.34.195-3.215 1.023-3.461 1.559-6.531 4.192-10.425 4.629-.828.047-1.657 0-2.438-.293m-35.711-3.801c-.344-.925-1.512-2.242-.441-3.066 1.074-.293 1.902 1.215 1.414 2.043.195-.777-.684-2.336-1.512-1.461-.535 1.172.735 1.996 1.27 2.824-.246.051-.535-.094-.731-.34m12.766-3.261c-1.024-.391-.539-2.68.633-1.95.875.438.73 2.629-.442 2.145l-.097-.102zm.34.144c-1.219-.051-.586-2.68.437-1.656.438.488.535 1.801-.437 1.656m7.89-1.07c.684-1.367-1.754-.828-1.312-.539-.051-1.266 2.289-.633 1.461.488 0 .098-.149.344-.149.051m8.918-.246c-1.265-.391-.148-2.922.875-1.703.391.289.34 1.558.293 1.461.633-.926-1.511-2.094-1.511-.731-.145.145.976 1.41.343.973m7.891-1.559c.246-.34 1.609-1.023.781-.097-.242.148-.535.195-.781.097m-33.52-.875c.731-.926-1.656-1.512-1.214-.344-1.122-1.218 2.093-1.363 1.265.098 0 .05.047.586-.051.246m33.618-.05c-.875-.778-1.071-2.485 0-3.169 1.218.051 1.511 1.657 1.023 2.536-.195.39-.582.828-1.023.632m-.34-.684c-.977-.778.488-2.871 1.265-1.508.442.68-.047 2.34-1.07 1.8a.9.9 0 0 1-.195-.292m7.308-2.094c-1.172-.73.926-2.824 1.215-1.219-.144.633-.531-.972-1.07-.242-.34.438-.293 1.266-.145 1.461m-37.906-2.047c-.73-.828 1.316.246.293.196-.098 0-.195-.098-.293-.196m-10.473-.293c-.437-.973 1.95-.973 1.024-2.094-.149-.828-1.563-.68-1.461.149-.637-.926 1.168-1.461 1.508-.488.828.925-.684 1.851-.438 2.484.438.633-.488.098-.633-.05m10.473-.582c-.875-.586-.586-2.535.633-2.437.926.343.926 1.707.39 2.386-.195.293-.777.489-1.023.051m0-.195c-.828-.535-.144-2.047.781-1.852.778.438.489 2.29-.488 2.094-.098-.047-.195-.144-.293-.242m20.023-.098c-1.312-.437 0-2.824.977-1.707.731.637.047 2.73-.977 1.707m.098-.144c-1.461-.633 1.172-2.34 1.024-.633.148.535-.68 1.508-1.024.633m-9.937-.54c-.586-.828-1.703-2.386-.536-3.117.973-.242 1.415 1.364 1.266 1.754.344-1.12-1.851-1.949-1.512-.437 0 .683 1.219 1.511.977 1.8zm23.336-1.753c.293-.243.925-1.754.878-.633-.144.344-.488.633-.878.633m-.485-1.168c-1.023-.633-1.707-2.145-1.023-3.266.972-.633 1.996.586 2.047 1.465.093.582-.149.824-.149.094 0-1.266-2.144-1.703-1.949-.145.098.926.879 1.754 1.852 1.754-.196.195-.582.34-.778.098m6.086-4.434c.051-.39 1.27-1.07.735-.242-.149.195-.489.387-.735.242m-46.625-.39c-.973-.582.879-2.044 1.172-1.024-.684-.875-1.316.39-1.172 1.023m24.07-.145c-1.023-.34-.632-2.34.489-2.094 1.019.34 1.07 2.485-.196 2.29l-.148-.052zm.196 0c-1.461-.246.097-2.777.73-1.266.293.485.098 1.946-.73 1.266m21.875-.684c-.781-.68-.828-2.433.34-2.628 1.218.292 1.461 2.386.293 2.875a.64.64 0 0 1-.633-.247m.144-.046c-1.265-.442-.191-3.024.879-1.754.438.632.242 2.289-.879 1.754m-38.828-1.415c.293-1.265-1.609-.292-1.461-.097-.148-1.364 2.387-.875 1.656.39-.148.145-.195-.195-.195-.293m25.141.196c-.098-.586 1.019-1.512.484-.39-.144.144-.293.292-.484.39m-1.074-1.266c-1.071-.39-1.266-2.777.195-2.484 1.07.289 1.656 2.14.535 2.726-.293.098-.586-.047-.73-.242m.05-.246c-1.414-.242-.293-2.871.778-1.605.633.535.34 2.582-.778 1.605m-16.664-.242c-.535-.781-1.218-2.094-.293-2.922.684-.344 1.512 1.508.586.438-1.265-.145-1.168 1.609-.195 2.046.242.196.684.973 0 .535zm-12.765-3.363c-.289-.973 1.316.78.097.05-.047 0-.047-.05-.097-.05m.195-.73c-.828-.731-.973-2.337.051-2.97 1.168-.05 1.558 1.508 1.121 2.383-.195.442-.684 1.024-1.172.586m.195.05c-.828-.535-1.023-2.242.098-2.484.977.097 1.07 1.46.586 2.144a.87.87 0 0 1-.684.34m36.055-1.852c.242-.293.926-1.804.973-.73-.145.387-.489.777-.973.73m-.977-1.558c-.777-.73-1.168-2.243-.195-2.973 1.074-.195 1.754 1.023 1.805 1.996.242.828-1.024 2.098-1.61.977m.149-.051c-1.121-.488-.828-3.117.633-2.242.875.488.972 2.683-.34 2.488l-.149-.098zm-11.891-2.68c-1.215-.34-.828-2.972.539-2.047.68.489.731 2.485-.539 2.047m-18.707-.242c-.879-.586-.34-2.582.875-2.145.828.587.442 2.68-.777 2.243-.051 0-.098-.051-.098-.098m18.707.047c-1.508-.293.196-2.871.781-1.219.243.489 0 1.805-.781 1.219m-18.609-.047c-1.219-.586.535-2.824.973-1.316.148.586-.243 1.656-.973 1.316m11.012-.535c-1.317-.442-.196-3.07.777-1.805.344.633.051.489-.242.098-1.512-.34-1.074 2.387.34 1.754.437.242-1.024.437-.875-.047m7.355-6.285c1.121-.782-1.07-2.828-1.219-1.317.098.34.489 1.364-.195.684-.73-.977 1.023-2.293 1.512-1.023.242.484.535 1.312-.098 1.656m-13.738-1.805c-1.172-.34-.535-2.777.633-1.95.925.49.632 2.927-.633 1.95m.242.148c-1.363-.195-.195-2.874.633-1.464.293.539.293 1.804-.633 1.465m5.894-4.144c-1.265-.387-.386-2.922.735-1.945.242.34.633 1.46.242.484-.828-.828-1.996.586-.977 1.219.149.097.344.586 0 .242"/><path fill="#ffc13f" d="M220.184 109.793c-1.508-.34.535-2.582.781-.875.195.484-.195 1.605-.781.875m-8.621-.289c-.54-1.27 1.949-.051.679.387-.242-.047-.484-.196-.679-.387m-.247-4.727c-1.168-.148-.437-2.484.536-1.656.539.438.488 2.238-.536 1.656m13.008-2.437c-1.508-.242.442-2.68.781-1.024.196.489-.097 1.754-.781 1.024m7.164-.242c-1.461-.535 1.071-2.387.778-.633 0 .387-.387 1.07-.778.633m-24.945-.684c-1.121-.633 1.168-1.61.684-.34.046.391-.586.926-.684.34m34.836-.293c-1.414-.586.973-2.484.973-.73.144.488-.489 1.511-.973.73m-26.602-2.043c-1.316-.293.731-2.144.731-.734.34.441-.438 1.61-.731.734m34.297-.781c-.633-.586-.34-2.242.637-2.094 1.019.387.582 2.531-.586 2.094zm7.309-2.387c-1.219-.879 1.609-1.851.879-.39-.098.34-.586.878-.879.39m-48.184-2.875c-1.316-.144-.34-2.824.535-1.512.246.536.149 1.461-.535 1.512m10.133-.144c-.926-.54.195-2.391.977-1.61.488.582-.051 2.29-.977 1.61m20.172-.344c-1.461-.684 1.266-2.145.926-.438.097.489-.731 1.317-.926.438m-10.328-1.512c-1.512-.289.484-2.726.777-1.02.195.485-.098 1.754-.777 1.02m22.847-2.387c-1.023-.488-.73-3.02.633-2.093.828.535.879 2.484-.386 2.289l-.098-.047zm-39.851-3.945c-1.168-.68 1.168-2.191.926-.586.047.442-.586 1.219-.926.586m23.871-.68c-1.461-.343.633-2.535.828-.93.293.489-.242 1.805-.828.93m22.316-.441c-.828-.293-.925-1.996.047-2.144.977.097 1.074 2.144-.047 2.144m-40-.73c-1.316-.73 1.266-2.145.875-.583.051.438-.582 1.215-.875.583m25.188-2.047c-.973-.145-.926-1.801 0-1.95.926.098 1.363 1.903.34 2.098a.44.44 0 0 1-.34-.148m-16.953-1.266c-1.461-.437.777-2.437.875-.828.195.488-.391 1.61-.875.828m-12.473-3.457c-1.172-.586.098-2.973.973-1.66.39.633 0 2.242-.973 1.66m35.469-3.168c-1.121-.488-.586-3.07.68-2.047.828.535.828 2.535-.438 2.242l-.098-.097zm-30.453-2.926c-1.313-.535.73-2.726.926-1.07.05.488-.293 1.363-.926 1.07m18.465-.047c-1.461-.488.925-2.386.925-.78.196.487-.437 1.558-.925.78m-7.114-.293c-1.508-.097-.144-2.921.489-1.218.195.437.144 1.218-.489 1.218m6.141-6.867c-1.461-.734 1.219-2.195 1.023-.539.196.633-.781 1.414-1.023.54m-12.813-1.465c-1.511-.34.68-2.53.829-.875.144.438-.344 1.703-.829.875m6.188-4.043c-1.512-.437.777-2.484.875-.828.148.438-.391 1.61-.875.828"/><path d="M297.832 137.25c-2.289-1.414-4.387-4.094-4.387-5.652 0-.926.828-2.239 2.582-4.09 1.414-1.512 3.121-3.801 3.754-5.117l1.121-2.387-1.367-2.731c-.777-1.507-1.898-4.382-2.484-6.429-6.379-20.754-12.91-28.356-35.223-40.828-6.969-3.848-9.402-5.75-11.012-8.282-1.511-2.535-1.511-5.117.149-7.504 4.773-7.066 24.066-6.187 40.094 1.805 11.742 5.797 20.316 14.125 24.75 24.016 5.07 11.16 6.285 22.804 3.363 31.719-1.121 3.41-4.531 8.476-6.676 9.89-1.461.973-1.949 1.754-2.68 4.531-1.363 5.02-4.187 10.329-5.992 11.254-1.996 1.024-4.094.977-5.992-.195m5.555-4.387c-.586-1.07-.438-1.652.972-4.429 2.196-4.336 4.532-11.84 5.555-17.786 4.387-25.773-14.664-49.988-43.312-55.003-2.485-.438-5.7-.782-7.114-.782-1.949 0-2.629-.242-3.019-1.023-.489-.926-.34-1.07 1.414-1.559 2.871-.828 11.351-.683 16.222.246 15.2 2.871 28.942 11.352 36.297 22.457 10.621 15.934 11.012 37.809.778 44.871-1.852 1.27-2.239 1.95-3.457 5.848-1.219 3.945-3.071 8.332-3.559 8.332-.047 0-.437-.535-.777-1.172m-4.094-2.773-1.703-.731 1.801-2.293c.925-1.265 2.144-3.359 2.632-4.675.926-2.34.926-2.34-.683-6.137-.828-2.098-2.289-6.191-3.215-9.016-3.656-11.449-7.066-17.344-13.738-24.02-5.164-5.163-8.625-7.6-19.344-13.788-8.621-4.918-11.645-6.965-12.035-8.036-.145-.343.73-1.609 1.902-2.874l2.145-2.243 4.09.34c12.035 1.024 24.019 6.14 32.546 13.985 6.965 6.43 11.497 13.789 13.883 22.558 1.367 5.016 1.656 16.465.539 21.094-1.754 7.16-4.093 13.059-6.14 15.445-.926 1.024-1.121 1.071-2.68.391"/><path fill="#f5a701" d="M300.609 138.371c.391-.144.829-.098 1.024.051.144.191-.149.289-.684.289-.633-.047-.73-.145-.34-.34m-5.41-2.875-1.508-1.707 1.704 1.512c.925.879 1.656 1.609 1.656 1.707 0 .387-.387.047-1.852-1.512m10.477.098c.195-.242.437-.489.586-.489.144 0 .097.247-.051.489-.195.293-.438.535-.582.535-.149 0-.149-.242.047-.535m-2.289-2.731c-.586-1.07-.438-1.652.972-4.429 2.196-4.336 4.532-11.84 5.555-17.786 4.387-25.773-14.664-49.988-43.312-55.003-2.485-.438-5.7-.782-7.114-.782-1.949 0-2.629-.242-3.019-1.023-.489-.926-.34-1.07 1.414-1.559 2.871-.828 11.351-.683 16.222.246 15.2 2.871 28.942 11.352 36.297 22.457 10.621 15.934 11.012 37.809.778 44.871-1.852 1.27-2.239 1.95-3.457 5.848-1.219 3.945-3.071 8.332-3.559 8.332-.047 0-.437-.535-.777-1.172m-.828-4.871c.972-1.605 2.144-4.09 2.629-5.504.488-1.414.976-2.484 1.074-2.34.633.586-3.754 9.747-4.973 10.524-.289.148.293-1.024 1.27-2.68m5.992 1.903c0-.391.144-.536.34-.34a.467.467 0 0 1 0 .679c-.196.196-.34.047-.34-.339m-10.672-.489c-.145-.242.148-.777.637-1.168.828-.633.828-.586.242.145-.586.73-.586.926 0 1.172.437.144.488.242.047.289-.34 0-.778-.145-.926-.438m-2.094-2.144c1.121-1.121 2.145-2.047 2.289-2.047.149 0-.679.926-1.801 2.047-1.121 1.172-2.144 2.097-2.289 2.097-.148 0 .68-.925 1.801-2.097m13.254 1.074c0-.391.191-.535.387-.344a.473.473 0 0 1 0 .684c-.196.195-.387.047-.387-.34m-9.113-2.098c.195-.293.437-.535.586-.535.144 0 .144.242-.047.535-.195.293-.442.535-.586.535-.149 0-.098-.242.047-.535m1.363-2.093c.734-1.61.977-1.903.977-1.219 0 .293-.34.976-.782 1.512-.777.972-.777.925-.195-.293m8.82.535c0-.391.145-.535.34-.34a.467.467 0 0 1 0 .68c-.195.195-.34.05-.34-.34m1.801-2.629c.195-.246.442-.488.586-.488.149 0 .149.242-.047.488-.195.293-.437.535-.586.535-.144 0-.097-.242.047-.535m-9.644-.488c0-.391.195-.536.39-.34a.58.58 0 0 1 0 .679c-.195.196-.39.051-.39-.339m.39-2.047c-.195-.875-.148-1.071.242-.68.293.289.442.824.34 1.215-.144.39-.386.148-.582-.535m3.899-.586c0-.438.191-1.364.437-2.094.34-1.023.391-1.07.438-.242 0 .586-.196 1.508-.438 2.094-.293.632-.437.73-.437.242m9.011-.485c.196-.293.438-.539.586-.539.145 0 .094.246-.05.539-.196.243-.438.485-.582.485-.149 0-.098-.242.046-.485m-13.984-1.367c-.535-1.265-.387-1.605.246-.582.289.535.438 1.07.289 1.219-.094.144-.387-.149-.535-.637m15.055-.242c.148-.242.441-.488.539-.488.144 0 .144.246-.051.488-.145.293-.437.535-.586.535-.144 0-.098-.242.098-.535m-9.157-2.047c0-.391.192-.535.387-.34.149.145.149.489 0 .684-.195.191-.387.047-.387-.344m-9.89-1.07c0-.391.144-.535.34-.34a.47.47 0 0 1 0 .68c-.196.195-.34.05-.34-.34m2.629 0c0-.391.144-.535.34-.34a.47.47 0 0 1 0 .68c-.196.195-.34.05-.34-.34m7.894-1.559c0-.73.098-1.023.242-.633.149.34.149.922 0 1.313-.144.344-.242.051-.242-.68m-8.429 0c0-.39.144-.539.339-.344a.47.47 0 0 1 0 .684c-.195.195-.339.051-.339-.34m-.536-1.558c0-.391.145-.539.34-.344a.47.47 0 0 1 0 .683c-.195.196-.34.047-.34-.339m-3.121-1.563c0-.387.149-.535.344-.34.195.196.195.489 0 .684s-.344.047-.344-.344m2.633 0c0-.387.145-.535.34-.34.195.196.195.489 0 .684s-.34.047-.34-.344m10.086-4.43c0-2.875.047-3.949.195-2.437.098 1.512.098 3.848 0 5.215-.148 1.312-.195.093-.195-2.778m11.301 3.606c0-.586.148-.735.293-.293.148.34.148.828 0 .973-.195.195-.34-.145-.293-.68m-21.922-.735c0-.386.145-.535.34-.339a.47.47 0 0 1 0 .683c-.195.196-.34.047-.34-.344m-2.633-.535c0-.39.196-.535.391-.34a.59.59 0 0 1 0 .68c-.195.195-.391.051-.391-.34m2.145-1.312c.051-.637.144-.735.293-.344.195.391.144.828 0 1.024-.196.148-.293-.145-.293-.68m-2.629-.246c0-.391.144-.535.34-.34a.47.47 0 0 1 0 .68c-.196.195-.34.05-.34-.34m25.625-.778c0-.879.097-1.121.246-.636.144.488.144 1.218 0 1.558-.149.344-.246-.047-.246-.922m-24.067-1.804c0-.391.145-.535.34-.34.196.144.196.484 0 .68-.195.195-.34.05-.34-.34m-.539-1.559c0-.391.149-.535.344-.391.195.196.195.536 0 .731s-.344 0-.344-.34m-.972-2.387c-.828-1.902-.684-2.34.242-.586.441.829.73 1.559.586 1.708-.098.093-.488-.391-.828-1.122m25.578-1.023c0-.879.097-1.121.246-.633.144.484.144 1.215 0 1.559-.149.34-.246-.051-.246-.926m-12.52-.242c0-.735.098-1.024.242-.684.149.39.149.973 0 1.317-.144.34-.242.046-.242-.633m-16.226 0c0-.39.148-.54.343-.344a.47.47 0 0 1 0 .684c-.195.195-.343.047-.343-.34m15.64-2.926c.047-.582.145-.73.34-.293.149.344.098.828-.047.977-.195.195-.293-.149-.293-.684m-15.152-1.266c-.293-.586-.437-1.023-.293-1.023.148 0 .535.437.828 1.023.293.582.442 1.07.293 1.07-.144 0-.488-.488-.828-1.07m27.672.242c0-.632.148-.73.293-.34.148.391.148.829 0 1.024-.195.145-.34-.148-.293-.684m-13.008-1.07c0-.586.149-.73.293-.293.148.34.148.828-.047.973-.148.195-.293-.094-.246-.68m-16.027-1.316c-.196-.39-.098-.489.242-.242.344.195.633.484.633.582 0 .441-.485.246-.875-.34m15.441-.438c0-.39.149-.535.344-.343.195.148.195.488 0 .683s-.344.05-.344-.34m-19.047-.632c-.246-.344-.144-.442.196-.196.632.34.828.828.386.828-.144 0-.386-.293-.582-.632m2.582-.489c-.246-.39-.144-.488.242-.242.586.387.782.828.344.828-.097 0-.39-.293-.586-.586m-4.433-1.902c-.633-.824-.633-.824.195-.191.875.68 1.121 1.117.73 1.117-.144 0-.535-.387-.925-.926m2.582-.484c-.633-.829-.633-.88.195-.247.875.684 1.168 1.121.731 1.121-.098 0-.536-.39-.926-.874m17.101.097c-.535-1.316-.39-1.656.242-.586.293.489.442 1.024.293 1.168-.144.149-.39-.144-.535-.582m13.203-.246c0-.387.145-.535.34-.34a.47.47 0 0 1 0 .684c-.195.195-.34.047-.34-.344m-.535-1.558c0-.387.145-.536.34-.34s.195.488 0 .683-.34.047-.34-.343m-33.617-2.727-2.586-2.777 2.731 2.629c2.535 2.386 2.972 2.875 2.582 2.875-.098 0-1.317-1.266-2.727-2.727m18.758.098c-.195-.344-.246-.684-.098-.829.145-.148.391.098.535.536.387.925.098 1.12-.437.293m-24.02-1.61c-.195-.39-.097-.488.243-.242.339.195.632.484.632.586 0 .437-.488.242-.875-.344m22.946-.535c-.243-.39-.145-.488.246-.242.34.195.582.484.582.582 0 .437-.438.246-.828-.34m-25.285-1.363c-.633-.828-.633-.828.195-.196.875.684 1.168 1.121.73 1.121-.144 0-.535-.437-.925-.925m2.875-.781-.973-1.169 1.168.973c.633.586 1.168 1.074 1.168 1.172 0 .438-.438.145-1.363-.977m21.386.585c-.242-.39-.144-.488.196-.242.632.387.828.825.39.825-.144 0-.39-.243-.586-.583m-26.062-1.07c-.246-.344-.149-.441.242-.195.293.195.586.437.586.582 0 .441-.442.246-.828-.387m24.75-.832c-.684-.828-.637-.828.191-.195.828.683 1.121 1.12.684 1.12-.098 0-.489-.386-.875-.925m-26.313-.195c-.242-.387-.144-.438.246-.242.289.195.582.488.582.632 0 .442-.488.196-.828-.39m4.145 0c-.196-.387-.149-.438.242-.242.34.195.586.488.586.632 0 .442-.442.196-.828-.39m-2.047-1.559c-.246-.386-.149-.484.191-.242.344.195.637.488.637.633 0 .39-.488.195-.828-.39m19.535-3.457-3.359-3.508 3.507 3.364c1.946 1.847 3.555 3.457 3.555 3.554 0 .34-.535-.148-3.703-3.41m17.441 1.899c-.242-.391-.144-.485.247-.243.289.196.582.489.582.586 0 .438-.438.242-.829-.343m-44.82-.536c-.246-.39-.148-.437.242-.242.34.242.586.488.586.633 0 .438-.441.195-.828-.39m4.188-.195c-.973-.777-.973-.777.148-.242.68.293 1.168.683 1.168.777 0 .442-.242.293-1.316-.535m-2.582-1.559c-.973-.78-.973-.78.144-.242.637.293 1.172.68 1.172.778 0 .437-.293.293-1.316-.536m40.339-1.656c-.679-.828-.632-.879.196-.195.879.684 1.121 1.07.683 1.07-.097 0-.488-.386-.879-.875m-43.992-.437c-.976-.782-.976-.782.145-.246.633.293 1.172.683 1.172.828 0 .39-.246.246-1.317-.582m24.457-1.95-.972-1.171 1.168 1.027c1.07.922 1.414 1.363.972 1.363-.097 0-.633-.535-1.168-1.218m-28.113-.144c-.973-.781-.973-.781.148-.246.633.34 1.168.683 1.168.828 0 .39-.242.293-1.316-.582m26.02-1.367c-.196-.34-.149-.438.242-.196.34.196.586.442.586.587 0 .437-.442.242-.828-.391m-34.641-1.313c-.684-.832-.637-.879.195-.195.875.68 1.117 1.07.68 1.07-.098 0-.484-.39-.875-.875m4.434.29c-.247-.391-.149-.438.242-.243.293.195.586.489.586.633 0 .438-.442.195-.828-.39m28.648 0c-.246-.391-.148-.438.242-.243.34.195.582.489.582.633 0 .438-.437.195-.824-.39m-30.207-1.024c-.246-.387-.149-.484.242-.242.293.195.582.488.582.586 0 .437-.484.242-.824-.344m24.016-2.094c-2.29-1.12-3.606-1.898-2.872-1.707 1.559.442 7.305 3.266 7.305 3.606 0 .343.391.488-4.433-1.899m22.609 1.266c-.684-.828-.637-.875.195-.242.875.683 1.117 1.12.68 1.12-.098 0-.484-.39-.875-.878m-48.965-1.07-1.266-1.415 1.411 1.266c1.367 1.172 1.707 1.61 1.269 1.61-.098 0-.73-.684-1.414-1.462m-2.875.34c-.242-.387-.144-.489.242-.243.293.196.586.489.586.586 0 .438-.437.242-.828-.344m49.5-1.07c-.242-.392-.144-.438.242-.247.293.246.586.488.586.637 0 .437-.437.191-.828-.39m-25.578-1.806a.47.47 0 0 1 .684 0c.195.149.046.344-.344.344-.391 0-.535-.195-.34-.344m-20.219-.73c.145-.29.438-.484.586-.484.145 0 .098.195-.051.484-.195.293-.488.535-.586.535-.144 0-.144-.242.051-.535m18.66.195a.47.47 0 0 1 .684 0c.191.196.047.34-.344.34s-.535-.145-.34-.34m-1.851-.535c.39-.145.828-.145 1.023.05.145.145-.148.29-.683.243-.633 0-.731-.148-.34-.293m24.312-.242c-.246-.39-.148-.488.196-.246.339.195.632.488.632.633 0 .39-.488.195-.828-.387m-26.359-.293c.34-.148.828-.098.976.047.192.195-.148.293-.683.293-.586-.047-.731-.145-.293-.34m-2.094-.488c.391-.145.828-.145.973 0 .195.195-.098.34-.68.293-.586 0-.73-.149-.293-.293m-10.914-.875c.242-.246 1.703-.344 3.266-.246l2.773.148-3.215.293c-1.8.145-3.066.047-2.824-.195m7.504.34c.484-.145 1.219-.145 1.559 0 .339.144-.051.242-.926.242-.879 0-1.168-.098-.633-.242m-13.449-2.778c.195-.293.437-.535.586-.535.144 0 .144.242-.047.535-.195.293-.442.535-.586.535-.149 0-.098-.242.047-.535m33.812-1.363a.47.47 0 0 1 .684 0c.195.144.047.34-.344.34-.387 0-.535-.196-.34-.34m-1.558-.54c.144-.19.488-.19.683 0 .196.196.047.345-.343.345-.387 0-.536-.149-.34-.344m-29.621-.679c.144-.293.437-.535.586-.535.144 0 .093.242-.098.535-.149.242-.442.488-.586.488-.098 0-.098-.246.098-.488m28.011.145a.534.534 0 0 1 .735 0c.191.195 0 .343-.344.343-.391 0-.535-.148-.391-.343m-6.234-1.559a.47.47 0 0 1 .684 0c.195.195.046.34-.344.34-.391 0-.535-.145-.34-.34m-17.199-.535c.195-.195.535-.195.683 0 .196.195.047.34-.34.34-.39 0-.539-.145-.343-.34m14.324 0c.391-.145.828-.145 1.023.05.145.192-.144.29-.683.29-.633-.047-.731-.145-.34-.34m-11.254-.535c.535-.098 1.363-.098 1.852 0 .488.144.097.242-.926.242-.977 0-1.414-.098-.926-.242m6.039 0c.637-.098 1.563-.098 2.051 0 .531.144 0 .242-1.172.242-1.121 0-1.559-.098-.879-.242"/><path fill="#fcd900" d="m299.293 129.797-1.168-.586 1.852-2.484c.972-1.364 2.14-3.461 2.582-4.727.781-2.094.73-2.34-.442-4.871-.679-1.414-2.336-5.992-3.703-10.184-6.137-18.61-13.348-26.648-34.687-38.586-3.801-2.144-7.793-4.675-8.914-5.601l-2.047-1.754 2.093-2.098 2.145-2.14 4.531.34c8.332.632 19.684 4.578 26.453 9.257 3.703 2.531 9.989 8.672 12.477 12.18 2.875 4.14 5.601 9.988 6.82 14.86 1.461 5.75 1.363 18.124-.148 23.191-1.559 5.164-2.973 8.769-4.578 11.449-1.461 2.531-1.512 2.582-3.266 1.754"/></g><path fill="#bc9a16" d="M1 86.04c0-68.6 90.55-70.869 170.078-70.869 79.527 0 170.078 2.27 170.078 70.867 0-15.656-76.144-28.348-170.078-28.348C77.148 57.691 1 70.383 1 86.04"/><path fill="none" stroke="#000" stroke-linecap="round" stroke-linejoin="round" stroke-width="2" d="M1 86.04c0-68.6 90.55-70.869 170.078-70.869 79.527 0 170.078 2.27 170.078 70.867 0-15.656-76.144-28.348-170.078-28.348C77.148 57.691 1 70.383 1 86.04"/><path fill="#d3ae37" d="M908.086 86.04c0 15.655-76.145 28.347-170.078 28.347S567.93 101.695 567.93 86.039s76.144-28.348 170.078-28.348S908.086 70.383 908.086 86.04"/><path fill="none" stroke="#000" stroke-linecap="round" stroke-linejoin="round" stroke-width="2" d="M908.086 86.04c0 15.655-76.145 28.347-170.078 28.347S567.93 101.695 567.93 86.039s76.144-28.348 170.078-28.348S908.086 70.383 908.086 86.04M738.008 312.809l161.41-217.813m-161.41 217.813L684.25 112.941m53.758 199.868L586.914 73.012m151.094 239.797v19.843"/><path fill="#bc9a16" d="M567.93 86.04c0-68.599 90.55-70.868 170.078-70.868 79.527 0 170.078 2.27 170.078 70.867 0-15.656-76.145-28.348-170.078-28.348S567.93 70.383 567.93 86.04"/><path fill="none" stroke="#000" stroke-linecap="round" stroke-linejoin="round" stroke-width="2" d="M567.93 86.04c0-68.599 90.55-70.868 170.078-70.868 79.527 0 170.078 2.27 170.078 70.867 0-15.656-76.145-28.348-170.078-28.348S567.93 70.383 567.93 86.04"/><path fill="#cc9c6f" d="M461.629 332.652c0 3.914-3.172 7.086-7.086 7.086s-7.086-3.172-7.086-7.086 3.172-7.086 7.086-7.086 7.086 3.172 7.086 7.086"/><path fill="none" stroke="#000" stroke-linecap="round" stroke-linejoin="round" stroke-width="2" d="M461.629 332.652c0 3.914-3.172 7.086-7.086 7.086s-7.086-3.172-7.086-7.086 3.172-7.086 7.086-7.086 7.086 3.172 7.086 7.086"/><circle cx="454.543" cy="332.652" r="1"/><path fill="#cc9c6f" d="M440.371 29.344h28.344v340.16h-28.344Z"/><path fill="none" stroke="#000" stroke-linecap="round" stroke-linejoin="round" stroke-width="2" d="M440.371 29.344h28.344v340.16h-28.344z"/><path fill="#cc9c6f" d="M461.629 332.652c0 3.914-3.172 7.086-7.086 7.086s-7.086-3.172-7.086-7.086 3.172-7.086 7.086-7.086 7.086 3.172 7.086 7.086"/><path fill="none" stroke="#000" stroke-linecap="round" stroke-linejoin="round" stroke-width="2" d="M461.629 332.652c0 3.914-3.172 7.086-7.086 7.086s-7.086-3.172-7.086-7.086 3.172-7.086 7.086-7.086 7.086 3.172 7.086 7.086"/><path fill="#cc9c6f" d="M457.379 369.504a20.554 20.554 0 0 1 0 28.344h-5.668a20.543 20.543 0 0 1 0-28.344z"/><path fill="none" stroke="#000" stroke-linecap="round" stroke-linejoin="round" stroke-width="2" d="M457.379 369.504a20.554 20.554 0 0 1 0 28.344h-5.668a20.543 20.543 0 0 1 0-28.344z"/><path fill="#cc9c6f" d="M465.883 409.188c0 6.261-5.078 11.339-11.34 11.339s-11.34-5.078-11.34-11.339 5.078-11.34 11.34-11.34 11.34 5.078 11.34 11.34"/><path fill="none" stroke="#000" stroke-linecap="round" stroke-linejoin="round" stroke-width="2" d="M465.883 409.188c0 6.261-5.078 11.339-11.34 11.339s-11.34-5.078-11.34-11.339 5.078-11.34 11.34-11.34 11.34 5.078 11.34 11.34"/><path fill="#cc9c6f" d="M497.063 1c-13.692 0-22.676 13.621-22.676 28.344h-39.688C434.699 14.62 425.715 1 412.023 1z"/><path fill="none" stroke="#000" stroke-linecap="round" stroke-linejoin="round" stroke-width="2" d="M497.063 1c-13.692 0-22.676 13.621-22.676 28.344h-39.688C434.699 14.62 425.715 1 412.023 1z"/><path d="M741.188 108.484c0 10.563 5.433 18.332 17.55 25.321 6.836 4.039 9.633 9.476 9.633 15.066 0 5.594-3.574 19.574-32 19.574-20.351 0-28.894-9.941-28.894-19.261 0-5.438 4.503-6.68 6.367-6.68 2.332 0 6.215 1.863 6.215 6.367 0 2.488-.778 3.266-1.399 4.043 2.176 3.106 7.305 6.524 17.711 6.524 16.309 0 21.902-5.438 21.902-10.567 0-4.348-3.882-6.676-5.281-7.453-22.523-13.203-22.988-26.098-22.988-34.02 0-5.593 0-7.77 5.59-7.77 5.594 0 5.594 2.642 5.594 6.06zm1.398-28.894c0 3.883-3.109 6.992-6.992 6.992s-6.992-3.11-6.992-6.992 3.109-6.988 6.992-6.988 6.992 3.105 6.992 6.988"/></g></svg>