<svg xmlns="http://www.w3.org/2000/svg" width="236" height="236" viewBox="0 -177 177 177"><g id="page1"><path fill="#f18224" d="M176.055-88.164c0-48.434-39.266-87.699-87.7-87.699C39.923-175.863.66-136.598.66-88.164S39.922-.47 88.356-.47s87.699-39.261 87.699-87.695"/><path fill-rule="evenodd" d="M85.078-176.57c-16.121 1.062-32.332 5.402-45.887 14.527-10.363 6.82-19.132 16.031-25.863 26.398-11.34 17.891-15.59 39.95-12.137 60.766 2.57 16.922 10.188 33.043 21.704 45.711C37.066-13.223 57.085-2.594 78.348-.378c6.023.616 12.046.355 18.07.085 7.707-.707 15.324-2.656 22.676-5.312 14.086-5.137 26.754-13.91 36.761-25.16 12.137-12.844 18.872-30.118 20.375-47.657.442-4.516.356-8.86.266-13.375-.797-18.867-7-37.734-18.781-52.617-12.313-15.238-30.027-25.867-49.074-30.117-7.707-1.684-15.68-2.305-23.563-2.039m-4.695 4.164c-5.402.707-10.895 2.746-14.438 7.086-8.68 9.035-13.554 20.992-17.097 32.773-1.063 3.633-1.95 7.266-2.567 10.984 2.922.266 4.871.266 7.883.446 2.832 0 6.73.621 7.707-2.571 1.504-5.843 4.606-11.25 8.504-15.765 7.793-8.949 19.043-14.176 30.473-16.832 10.984-2.57 22.32-2.746 33.484-1.86 3.277 0-1.684-2.214-2.746-3.011-13.199-7.532-28.438-12.403-43.762-11.696-2.48.09-4.96.09-7.441.446m-22.055 4.871c-8.86 3.457-17.453 7.797-24.805 13.82-2.214 1.77-3.277 4.516-3.011 7.262-.356 8.328.175 16.742-.442 25.07-.18 1.86 2.832 1.153 5.137 1.063 2.746-.09 6.379.265 6.82-1.418.797-2.481.797-5.227 1.684-7.707 3.719-14.438 10.984-27.817 20.02-39.684-1.86.356-3.633.973-5.403 1.594m57.137 12.222c-14.352 1.067-28.793 5.938-39.512 15.86-5.226 4.871-9.3 11.07-11.07 17.98 3.363 1.418 4.695 1.153 7.176 1.418 25.246 2.481 50.668 6.024 74.32 15.414 7.883 3.102 15.5 7.086 21.969 12.489 1.148.796 4.25 3.722 4.25.886.09-3.101-.176-6.199-.442-9.3-1.593-12.493-7.176-24.094-13.465-34.903-3.722-6.023-8.152-12.136-14.527-15.59-7.351-3.808-15.855-4.339-24.008-4.519-1.593 0-3.097.09-4.691.265m-92.219 12.848c-6.555 7.973-11.691 17.094-15.144 26.75 1.503.531 3.011 0 4.605-.531 4.25-1.418 8.594-2.391 13.02-3.188 1.066-1.773 1.418-3.988 1.507-7.086.266-6.027.356-12.05-.355-17.984-.266-2.215-2.39.441-3.633 2.039m23.742 25.156c-2.656.09-2.57 5.137-2.922 7.352-3.101 18.867-2.129 38.18 1.328 56.871 2.391 11.957 6.024 23.828 12.489 34.192 4.164 6.468 10.543 11.78 18.07 13.82 9.035 2.48 18.606 1.773 27.727.09 13.109-2.48 25.867-7.797 36.054-16.567-2.039-2.039-2.656-2.215-5.492-4.074-14.703-8.684-27.992-19.578-39.949-31.715-6.734-6.64-13.645-13.195-19.578-20.637-7.442-9.304-13.11-20.464-13.996-32.511-.442-2.035.355-5.047-.621-6.465-4.34-.621-8.77-.531-13.11-.356m-15.234.707c-3.016.446-2.395 3.278-3.016 5.672-3.011 16.121-13.02 29.762-16.472 45.707-1.243 6.2-1.332 13.024 1.945 18.602 3.988 7.176 9.39 13.555 15.238 19.312 8.946 8.504 19.844 14.704 31.27 19.313-.266-2.746-2.836-4.344-4.164-6.645C47.43-27.398 43.09-42.812 40.523-58.137c-2.129-12.664-2.746-25.422-1.773-38.18.531-6.644 1.418-13.285 1.95-19.929-1.153-.887-3.013-.707-5.493-.621q-1.73.001-3.453.265m32.508.09c-.266 8.414 2.304 16.743 5.933 24.274C76.133-80.191 85.523-70.45 94.91-61.234 108.465-47.86 123.523-36.168 140-26.867c1.418.887 2.746 1.594 4.164 2.394 6.289-6.293 12.488-12.757 16.828-20.554 5.141-8.856 9.215-18.422 11.34-28.434.887-3.898 1.063-8.414-1.769-11.605-3.809-4.426-9.125-7.352-14.086-10.274-14.352-7.621-30.118-12.312-45.887-15.59-14.969-3.101-30.117-4.875-45.356-6.023-.351 0-.796.086-.972.441m-40.305 1.242c-5.848 1.239-11.605 3.008-17.098 5.493-1.683 2.832-1.593 6.199-2.214 9.3-1.329 10.985-1.239 22.235 1.593 32.864.532 1.949 1.242 3.898 2.04 5.758 2.39-12.668 8.148-24.184 12.667-36.141 2.125-5.406 4.43-11.074 3.899-16.922a.84.84 0 0 0-.887-.352M.039-89.316c-.09-58.289 0-29.145 0 0"/></g></svg>