<svg xmlns="http://www.w3.org/2000/svg" width="312" height="284" viewBox="0 -213 234 213"><g id="page1" fill-rule="evenodd"><path fill="#f8eee5" d="M64.914-139.801c1.383.746 1.277 2.871-.105 3.512-1.594.637-2.977-.852-2.446-2.445.317-1.067 1.489-1.598 2.551-1.067m20.09.531c.852.321 1.062 1.493.531 2.129-.742.957-2.23.532-2.336-.636 0-1.172.848-1.914 1.805-1.493m-4.89 8.614c6.167.531 11.163 2.019 14.882 4.355l1.063.746-.317.742c-6.062 15.204-38.058 20.094-54.32 8.188-.637-.426-1.063-.852-1.063-.957 9.356-8.293 27.211-14.137 39.754-13.074m-.106 1.699c2.125.531 2.34 1.594.531 3.402l-1.062 1.063.214 1.168c.106.851.106 1.488 0 2.019-.214.957-.109 1.067.317 1.278.746.425 2.02.105 3.082-.746.746-.532.851-.532.531.214-.848 1.489-2.867 2.231-4.25 1.489-.531-.211-.64-.211-.746-.106-1.379 1.594-5.844 1.488-7.652-.32-.957-.957-1.063-1.488-.106-.742 3.082 2.336 7.652 1.062 7.652-2.129-.105-1.91-.105-2.02-1.273-2.446-1.703-.636-3.402-1.91-3.402-2.656 0-1.062 4.039-2.019 6.164-1.488m-9.246 20.621c2.445 3.402 6.164 10.738 7.863 15.309l.426.957-1.274.851c-5.316 3.399-3.508 12.649 2.551 13.39l.742.11-.21 1.168c-2.766 17.54-23.919 17.75-26.684.32l-.106-.64.852.531c11.055 6.059 18.496-8.289 7.652-14.988-1.699-1.063-3.402-2.336-4.676-3.508l-.746-.637.426-2.55c.531-3.192.852-6.059 1.063-8.715l.109-1.914 1.273.105c1.383.106 9.567 0 10.098-.105.32-.11.426 0 .64.316"/><path fill="#e1bc97" d="M61.195-210.914c2.23.426 4.461 2.019 4.887 4.359.637 3.082.11 6.274-.742 9.246-2.66 7.657-8.188 14.036-10.524 21.899-.746 2.551-.746 5.211-.425 7.762-.532.21-2.551.957-1.172.742 7.336-1.063 15.308-1.489 22.324 1.593 5.953 2.551 10.313 8.083 12.863 14.036 1.914 4.886 4.25 9.672 6.27 14.562 1.277 3.293 2.66 6.906 1.597 10.414 0 1.172-.746.321-1.277 0-6.379-4.039-14.242-4.887-21.683-4.355-11.696.957-23.176 5.422-32.422 12.754-.746.32-.106 1.277-.957.425-2.766-2.871-5.317-5.953-6.7-9.671-3.613-8.504-2.23-18.497 2.66-26.153 3.083-5.101 7.547-9.14 12.649-12.117.637-.742-1.914.957-2.125-.426-4.89-6.484-8.824-14.347-8.61-22.746.212-7.125 3.72-14.031 9.462-18.285 3.933-2.867 8.93-4.996 13.925-4.039m-.535 7.23c.852.211 3.086 1.489 1.063.957-2.016-.851-1.489 1.805-1.594 3.082-.106 3.93-1.488 7.653-3.188 11.055-2.125 4.57-4.785 8.93-6.058 13.817-.106.851-.32 1.808-.426 2.66.426 1.062.957 2.019 1.168 3.082-1.91-2.34-3.187-5.207-4.145-8.184-2.02-6.699-1.699-14.246 1.489-20.625 1.699-3.293 4.89-6.375 8.824-6.269.957 0 2.02.105 2.867.425m38.164 4.676c4.145.852 8.504 2.871 10.735 6.695.957 1.598.957 3.829-.106 5.422-2.23 4.039-6.59 5.953-10.629 7.657-7.12 2.867-14.777 4.25-21.578 7.757-1.703.957-3.086 2.125-4.36 3.508-1.913-.426-3.827-.746-5.742-1.062.11-5.422 1.278-10.949 3.829-15.735 3.933-7.547 11.48-13.39 20.09-14.453 2.55-.32 5.21-.215 7.761.211m-1.597 6.274c3.086.636 6.378 2.656 6.91 5.953.32 1.168-.637-.852-.957-1.067-.532-.847-.953-.211-1.379.321-2.551 2.656-5.528 4.996-9.035 6.379-5.211 2.125-10.844 3.613-15.84 6.589-1.703.957-2.871 2.657-3.508 4.571-.531.746.105-1.489.105-1.914 1.594-7.973 6.805-15.309 14.032-19.133 2.976-1.488 6.379-2.34 9.672-1.699m-29.973 50.808c3.508 1.168 4.996 5.742 3.293 8.824-1.274 2.872-5.207 4.25-7.758 2.231-3.191-2.34-3.297-7.758-.11-10.098 1.278-1.062 3.087-1.488 4.575-.957m20.195.957c2.977 1.809 3.188 6.274 1.168 8.824-1.273 1.805-4.355 1.915-5.738.106-2.235-2.656-1.809-7.441 1.383-9.035 1.062-.531 2.23-.426 3.187.105m-37.203 30.403c2.445.851 4.996 1.277 7.547 1.699 0 4.039-.531 8.082-1.172 12.011-.637 1.278-1.7-1.378-2.23-1.913-1.594-2.551-2.977-5.208-3.934-8.079-.426.215.32 2.551.531 3.508 1.594 5.848 6.274 10.313 11.16 13.5 2.235 1.488 4.465 3.617 4.36 6.484 0 .532.21 1.278-.637 1.383-1.277.852-2.976.852-4.36.106.532.746 2.126 1.277 3.298 1.277 1.593-.531 1.273.531.422 1.274-1.168 1.703-3.72 2.234-5.524 1.172-1.277-.11 3.188 1.593.848 1.488-4.145.316-7.758-2.551-10.309-5.637-4.785-5.633-7.02-13.5-5.105-20.621.746-2.762 1.914-5.527 3.722-7.758.426-.32.957 0 1.383.106m24.023 2.871c5.313 4.355 10.098 9.777 12.223 16.367.957 3.402 1.168 7.656-1.273 10.523-.746.957-1.914 1.489-3.086 1.703.746-.636 1.383-1.382 1.808-2.234-1.277 1.383-3.297 2.234-5.101 1.488-.637-.316-1.594-1.168-1.809-1.699 1.809 0 3.403-1.062 4.04-2.656-1.063.957-2.552 2.125-4.145 1.488-1.383-.957-1.168-2.976-.957-4.36.425-1.808 2.02-2.976 3.402-3.933 1.7-1.273 2.871-3.402 2.656-5.527-.53 1.062-1.062 2.34-1.914 3.187-2.02-5.101-4.57-9.992-7.441-14.773-1.379-2.34 1.062.105 1.597.426M43.122-95.684c.64 6.375 3.613 12.543 8.398 16.903 1.7.742 1.915 2.441 2.126 4.144.957 4.996 4.464 9.778 9.46 11.371 2.977 1.067 6.274.852 9.145-.21-3.402 2.234-7.441 3.828-11.48 4.57-1.489-.426-1.383-2.762-2.235-3.934-2.125-4.355-4.676-8.82-8.715-11.48-1.703-1.168-3.933-1.594-5.742-.637-2.02-.211-4.36-.637-6.164.957-1.914 1.168-2.871 3.508-2.34 5.738-.426.64-.851 3.403-1.488 1.598-2.23-3.934-2.23-8.719-.742-12.863 1.699-5.207 5.312-9.356 7.867-14.137.531-.746 1.379-3.082 1.805-2.871 0 .21.105.531.105.851m-14.348 8.399c1.489.422 2.551 1.484 3.293 2.762.641-.532 2.235-2.657 2.977-1.915-3.187 4.891-4.996 10.95-3.613 16.692.21 1.594 1.383 3.082 1.593 4.57-1.593.317-3.082-.426-4.144-1.597-.957 0-1.914.425-2.871.109-2.551-.531-4.25-3.508-3.293-5.953 1.062-2.02-2.34-.746-2.766-2.445-1.168-1.594-.105-4.145 1.914-4.36.742 0 1.805.215 1.063-.742-1.383-2.871.531-6.805 3.719-7.23.746-.106 1.488-.106 2.128.109m67.18 8.61c1.7.105 3.403 1.593 3.508 3.398.21.957-.531 3.086-.211 3.191.848-1.172.848-2.766 1.063-4.145 1.167 1.91.531 4.356-.215 6.375-1.063 2.34-2.657 4.36-4.25 6.38-.746-.958-2.13-1.168-3.192-.637-3.082 1.168-5.633 3.508-7.332 6.379-.957 1.062.317 3.93-2.02 2.761-2.019-.636-3.296-2.445-5.21-3.082-2.656-1.168-5.528-1.703-8.29-2.34 5.313-2.656 10.098-7.12 11.798-12.968.64-1.274 1.277 1.488 1.808 2.129 1.168 1.488.106 3.293-.105 4.996-.215.636-.32 2.125.21.742 1.489-3.297 2.872-6.805 5.528-9.461 1.172-1.274 3.402-1.168 4.36.215.85 1.062.85 2.336.741 3.613-.316-1.914-2.761-1.062-2.867.531-.64 2.125 2.336 2.02 2.551.211.637-1.168-.426 2.02.426.426 1.168-2.02 1.488-4.996-.535-6.59-.422-.746-3.293-.851-1.38-1.593 1.169-.426 2.337-.852 3.614-.532m2.766 3.292c1.062 1.277.316 3.614-1.067 4.36-2.02.32-1.488-2.762-.636-3.829.425-.425 1.062-.957 1.703-.53m-50.176 1.809c3.082 1.805 5.102 4.996 7.016 8.078 2.234 4.144 4.359 8.61 4.785 13.394.21 1.594-.11 3.934-2.125 4.04-3.297.425-6.38-1.063-9.356-2.446-4.465-2.34-8.824-5.422-11.586-9.777-1.172-1.914-1.808-4.254-.851-6.38 1.062 1.49 2.87 2.446 4.676 2.978-1.7-1.704-3.934-3.297-4.04-5.954.215-2.66 3.083-4.996 5.743-3.933 2.125.742 3.293 2.656 4.25 4.465.215-.852-.742-3.082-1.594-4.254-.531-1.594 2.34-.531 3.082-.211m.957 1.273c1.594.957.32 3.723-1.277 2.34-1.7-.742-1.063-4.039.957-2.55l.11.105zm-6.8 1.172c1.593.742 2.866 2.867 1.91 4.465-1.274 1.383-3.508.316-4.145-1.172-.852-1.168-.637-3.293 1.168-3.293.32-.105.746-.105 1.066 0m-3.934 7.442c2.23 1.062.316 4.25-1.489 2.335-1.703-1.273-.215-3.824 1.489-2.336m12.437.847c3.508 1.383 6.164 4.57 6.906 8.188.426 1.804-.425 4.144-2.55 4.465-2.762.21-5.313-1.81-7.016-3.829-1.594-1.914-2.871-4.465-2.23-7.015.53-2.125 3.081-2.551 4.89-1.809"/><path fill="#f8b2b0" d="M58.64-200.176c-.105 4.571-.742 6.801-3.292 12.117-3.617 7.442-4.891 10.735-5.317 13.606l-.105.957-.746-2.125c-4.356-13.184-.317-25.617 8.824-27.106l.746-.109zm38.696 9.035c1.168.211 3.719 1.274 4.039 1.7.105.214-2.02 2.445-3.613 3.722-2.551 2.125-4.36 3.082-8.614 4.676-8.078 3.082-10.84 4.359-13.605 6.59l-.426.32.32-.957c5.102-11.586 13.395-17.644 21.899-16.051m1.383 116.29c.847 1.171-.852 4.464-1.809 3.296-.531-.636-.21-2.34.637-3.187.426-.535.851-.535 1.172-.11m-49.54 2.976c.747.746.747 1.703 0 1.809-.742.105-1.804-1.383-1.378-2.125.21-.426.847-.32 1.379.316m44.223.106c.317.214.211 1.171-.105 1.808-.746.957-1.703.852-1.703-.21 0-1.173 1.172-2.235 1.808-1.598M42.7-70.492c.317.21.848.531 1.063.851 1.91 2.125-.11 4.36-2.235 2.446-2.02-1.809-1.062-4.465 1.172-3.297m51.66 6.379c.211.105.532.316.743.636l.32.32-1.703 1.7c-2.867 2.766-7.332 6.164-8.29 6.164-.425 0 .427-2.125 1.489-3.613 2.445-3.508 5.633-5.738 7.441-5.207m-55.808.847c1.277.957.746 2.555-.637 1.703-.531-.214-.957-.956-.957-1.382 0-.742.852-.957 1.594-.32m12.117.746c3.828 1.168 7.441 5.954 7.016 9.247-.532 4.68-7.547 2.445-10.309-3.293-1.809-4.04-.215-7.016 3.293-5.953"/><path d="M60.98-212.297c4.786.746 6.696 3.192 6.696 8.613 0 5.102-1.274 8.715-6.375 17.539-4.574 8.184-5.742 11.266-5.742 15.625 0 2.551 0 2.551 1.703 2.125 2.23-.531 3.508-.636 6.058-.742h2.446l.105-1.703c.957-14.988 9.035-25.617 21.899-28.914 14.988-3.824 29.125 5.848 21.789 14.988-3.403 4.149-7.332 6.274-18.602 9.676-9.672 2.871-13.18 4.465-15.734 6.695l-.954.957 1.38.532c6.91 2.976 11.269 7.761 14.671 16.16.743 1.699 1.805 4.144 2.336 5.527 3.403 7.547 4.57 10.414 4.996 12.543 2.34 10.414-6.058 19.344-21.258 22.852l-1.808.426 1.383 1.062C88.938-97.492 93.19-80.484 83.41-78.039c-1.383.32-1.383 1.383-.32 3.297.426.742.957 1.699 1.172 2.125.531 1.062.531 1.062.957.105 2.976-6.27 9.246-9.355 13.285-6.484.32.215.852.531 1.168.531 5.637 1.168 2.34 11.375-6.059 19.028-7.12 6.484-10.203 7.335-14.031 3.828-1.379-1.278-5.422-2.66-10.418-3.508l-1.7-.215-1.808.531a51 51 0 0 1-3.293.957c-.957.215-1.703.32-1.703.32s.215.852.426 1.81c.637 2.44.852 4.675.637 5.843-1.489 8.719-23.914-2.02-26.891-12.754-.426-1.383-.531-1.488-1.172-1.277-1.488.32-3.613 0-4.676-.957-.425-.317-.53-.422-1.808-.422-3.613 0-6.059-2.446-6.059-5.953v-1.278l-.848-.425c-2.976-1.594-2.765-6.165.317-7.547.531-.106.746-.32.637-.426-1.594-5.738 5.953-10.418 10.418-6.375l.53.527.642-.422c.847-.53 2.019-.957 2.761-.957.746 0 1.172-.531 3.723-4.996 2.976-5.316 3.824-7.015 4.144-8.824.637-2.871 1.914-5.953 3.508-8.504l.637-1.062-.742-.321c-21.473-8.715-22.75-41.879-2.125-52.297.422-.214.847-.425.847-.425.106 0-.425-.637-.957-1.489-9.886-13.394-10.84-27.531-2.55-37.734 4.89-6.063 12.757-9.57 18.922-8.508m.215 1.383c4.145.957 5.633 3.613 5.102 8.93-.531 4.464-1.594 7.226-6.063 14.988-5.207 9.141-6.375 12.863-5.949 18.391l.106.957-.957.425c-1.278.532-1.168.532 1.062.211 18.07-2.656 28.594 2.551 34.442 17.008 1.168 2.871 1.699 4.039 3.828 8.824 3.718 8.184 4.46 11.055 3.507 14.989-3.507 14.136-31.254 21.152-49.855 12.543-20.941-9.567-20.09-38.586 1.488-51.239 1.168-.742 1.274-.847.211-.531-1.168.32-1.168.32-2.125-1.062-8.504-11.375-10.418-22.641-5.527-32.208 4.039-8.187 13.5-13.714 20.73-12.226m-.535 7.23c.746.211 2.13.957 2.13 1.168 0 0-.427-.105-1.067-.211-1.594-.32-1.489-.425-1.594 2.125-.211 5.207-.957 7.547-4.57 14.883-3.508 6.906-4.57 9.457-4.891 12.328l-.211 1.172.637 1.699c.851 1.915.746 1.915-.317.426-9.675-14.457-2.765-37.629 9.883-33.59m-2.02 3.508c-.105 4.571-.742 6.801-3.292 12.117-3.617 7.442-4.891 10.735-5.317 13.606l-.105.957-.746-2.125c-4.356-13.184-.317-25.617 8.824-27.106l.746-.109zm40.184 1.168c7.442 1.383 12.86 6.805 11.16 11.055-2.019 4.785-6.804 7.652-19.558 11.586-10.63 3.297-14.352 4.996-16.903 7.652l-.636.746-1.809-.316c-1.062-.215-2.125-.43-2.445-.535-.317 0-.848-.106-1.063-.211h-.425l.109-1.914c.957-18.176 15.41-31.039 31.57-28.063m-1.597 6.274c3.617.742 6.593 3.187 6.91 5.843l.109.637-.426-.742c-.32-.32-.64-.852-.851-.957l-.426-.426-1.273 1.383c-3.723 3.613-6.168 5.101-12.227 7.226-11.16 4.043-13.926 5.637-15.2 8.719-.745 1.914-.85 1.914-.425-.32 2.125-12.649 14.031-23.277 23.809-21.363m.109 1.593c1.168.211 3.719 1.274 4.039 1.7.105.214-2.02 2.445-3.613 3.722-2.551 2.125-4.36 3.082-8.614 4.676-8.078 3.082-10.84 4.359-13.605 6.59l-.426.32.32-.957c5.102-11.586 13.395-17.644 21.899-16.051m-30.082 49.215c5.527 2.02 5.207 10.418-.32 11.801-3.72.957-7.121-2.656-6.59-6.91.531-3.508 3.933-5.953 6.91-4.891m20.195.957c4.145 2.34 2.766 10.203-1.699 10.203-3.297.11-5.316-4.461-3.617-8.078 1.066-2.336 3.402-3.187 5.316-2.125m-22.43 1.168c.637.426.958.957.958 1.809 0 1.703-1.915 2.551-3.188 1.383-1.703-1.489.316-4.36 2.23-3.192m20.305.641c.532.316.742 1.168.426 1.805-.531 1.277-2.34.957-2.55-.532-.216-1.168 1.167-2.019 2.124-1.273m-6.058 10.203c2.761.426 3.082 2.019.847 3.828l-.531.426v2.23c0 2.125 0 2.235.32 2.446.742.531 2.23.211 3.297-.746.637-.532.637-.422.211.32-.851 1.488-2.656 2.019-4.254 1.277-.425-.215-.531-.215-.742 0-1.808 1.594-6.59 1.274-7.762-.64-.53-.848-.425-.957.11-.422 1.699 1.484 5.738 1.593 7.12.105.637-.746.849-1.594.637-3.613l-.105-.746-.852-.321c-5.101-1.593-3.718-4.996 1.704-4.144m-29.02 18.391c1.484.531 4.25 1.168 5.953 1.488l1.594.211v1.594c0 2.554-1.066 10.527-1.383 10.843-.531.637-4.465-6.164-5.527-9.461q-.957-2.55-.32.637c.956 5.848 4.57 10.738 10.949 14.988 3.613 2.34 4.996 4.254 4.996 6.7v1.273l-.852.531c-1.168.535-2.55.535-3.719.11-.851-.426-.636-.11.32.425.958.532 2.231.743 3.188.637.746-.215.852-.215.211.742-1.379 2.13-3.613 2.871-5.738 1.809-.746-.32-.746-.32-.426 0 .215.105.742.426 1.168.742 1.172.531.957.64-.953.64-5.953 0-12.863-7.656-14.672-16.16-1.273-5.843-.21-11.902 3.188-17.007.746-1.168.746-1.168 2.023-.742m24.023 2.871c9.352 7.652 14.243 16.898 12.543 23.703-.53 2.55-2.234 4.465-4.148 4.785l-.531.105.64-.636c.317-.32.743-.746.848-1.067l.32-.53-.636.53c-1.703 1.598-4.254 1.598-5.743 0l-.53-.636.745-.211c1.063-.11 2.125-.746 2.762-1.704.746-.957.746-1.167 0-.425-1.7 1.703-4.039 1.597-4.465-.106-.742-2.55.106-4.996 2.34-6.379 2.34-1.488 3.613-3.613 3.613-5.632v-.637l-.316.637c-.64 1.382-1.492 2.66-1.598 2.55-.105-.105-.422-.957-.847-2.02-1.063-2.55-3.829-8.077-5.637-11.054-1.91-3.293-1.91-3.402.64-1.273m-2.234 1.379c2.871 4.574 4.57 7.972 6.168 11.906 1.063 2.656 1.063 2.34-.32 3.191-5.317 3.399-3.723 12.223 2.336 13.39 1.066.11 1.066 0 .64 2.02-.957 4.786-3.933 9.356-6.91 10.739-9.355 4.464-18.496-.637-19.773-10.95l-.106-.851 1.278.64c11.37 5.313 17.644-8.187 7.015-15.097-2.234-1.488-3.933-2.867-4.785-3.719l-.426-.426.32-2.445c.637-3.824.958-5.848.958-8.398l.105-2.446 1.594.11c2.02.211 6.7.211 8.824 0l1.7-.11zM43.121-95.684c.64 6.907 4.68 14.348 9.781 17.965.211.211.317.422.426 1.38 1.274 10.206 9.777 16.054 18.813 12.862.746-.21-1.489 1.063-3.188 1.914-2.125.958-4.676 1.805-6.805 2.34-2.02.422-1.914.532-2.55-1.062-4.145-10.528-10.418-16.692-14.989-14.883-.847.316-.957.316-1.488.211-3.824-1.383-8.398 2.34-7.547 6.059.106.53.106.746-.105 1.062-.211.215-.426.852-.532 1.277-.32.957-.425.957-1.277-1.062-2.55-5.422-1.488-11.8 3.297-19.027 1.914-3.083 3.188-5.211 4.785-8.079.637-1.171 1.168-2.129 1.168-2.129.106 0 .106.426.211 1.172m-14.348 8.399c1.063.316 2.23 1.168 2.868 2.125.64.847.53.847 1.066 0 .422-.64 1.168-1.172 2.016-1.383.535-.215.535-.215-.317 1.168-3.828 6.273-4.465 13.394-1.808 18.816.746 1.489.746 1.383-.426 1.383-1.063 0-1.91-.32-2.762-1.172l-.637-.53-.851.214c-2.55.531-5.102-1.277-5.422-3.934-.105-.636 0-1.171.426-2.87.105-.317 0-.317-.531-.317-1.7 0-2.872-1.278-2.872-2.871 0-1.598 1.172-2.766 2.977-2.766h.746l-.426-.957c-1.597-3.933 1.91-8.078 5.953-6.906m67.18 8.61c2.977.421 4.145 2.656 3.188 6.484-.106.422-.106.422.109.105.422-.531.953-2.234.953-3.297s.215-1.062.531 0c.746 2.766-.636 6.485-3.824 10.524l-1.062 1.382-.637-.53c-2.445-2.231-11.375 5.316-10.313 8.714.32 1.277-2.656.32-4.57-1.488-1.277-1.168-4.57-2.336-9.355-3.293l-1.168-.32 1.062-.532c5.207-2.87 9.035-7.12 10.63-11.906.425-1.488.32-1.488 1.487.851 1.168 2.235 1.168 2.125.743 3.72-.422 1.382-.743 3.617-.637 3.402.11 0 .426-.743.746-1.489 3.508-7.863 6.058-10.629 8.715-9.14 1.168.636 1.703 1.808 1.593 3.507v.852l-.21-.531c-.743-1.809-3.297.21-2.657 2.02.532 1.273 2.02.742 2.551-.747.211-.742.316-.316.106.531-.215.747.105.32.636-.742 1.383-3.187.426-5.953-2.34-6.699-.421-.105-.742-.316-.636-.316.215-.426 2.765-1.278 3.402-1.168 0 0 .426 0 .957.105m2.766 3.292c.847.531.637 2.766-.32 3.828-1.278 1.383-2.551.211-2.02-1.593.426-1.809 1.488-2.766 2.34-2.235m0 .531c.847 1.172-.852 4.465-1.809 3.297-.531-.636-.21-2.34.637-3.187.426-.535.851-.535 1.172-.11m-50.176 1.278c6.59 3.293 14.883 22.746 10.738 25.191-3.191 1.809-12.863-2.336-18.71-7.972-3.825-3.614-5.208-7.016-4.356-9.883l.21-.426.532.637c.746.851 1.809 1.593 3.082 2.02l1.063.32-1.594-1.489c-2.762-2.765-3.188-4.89-1.168-7.125 2.445-2.761 6.058-1.699 8.183 2.34.426.852.746 1.168.637.957-.316-1.808-.742-3.082-1.594-4.039-.957-1.277.852-1.594 2.977-.531m.957 1.273c1.168 1.172.957 2.555-.32 2.66-.957.106-2.336-1.488-2.02-2.55.32-.957 1.383-.957 2.34-.11m-.32.426c.746.746.746 1.703 0 1.809-.742.105-1.805-1.383-1.38-2.125.212-.426.848-.32 1.38.316m44.222.106c.317.214.211 1.171-.105 1.808-.746.957-1.703.852-1.703-.21 0-1.173 1.172-2.235 1.808-1.598m-50.703.64c2.657 1.168 3.082 5.102.528 5.102-3.082 0-4.57-4.891-1.594-5.102.426-.105.851 0 1.066 0m0 .637c.317.21.848.531 1.063.851 1.91 2.125-.11 4.36-2.235 2.446-2.02-1.809-1.062-4.465 1.172-3.297m51.66 6.379c.211.105.532.316.743.636l.32.32-1.703 1.7c-2.867 2.766-7.332 6.164-8.29 6.164-.425 0 .427-2.125 1.489-3.613 2.445-3.508 5.633-5.738 7.441-5.207m-55.593.425c.636.422 1.168 1.489.953 2.02-.422 1.7-2.973.742-3.188-1.172-.105-1.168 1.063-1.7 2.235-.847m-.215.422c1.277.957.746 2.555-.637 1.703-.531-.214-.957-.956-.957-1.382 0-.742.852-.957 1.594-.32m12.652.426c4.57 1.598 8.184 7.762 6.59 10.95-2.234 4.464-10.523-.637-11.586-7.016-.535-3.188 1.805-5.102 4.996-3.934m-.535.32c3.828 1.168 7.441 5.954 7.016 9.247-.532 4.68-7.547 2.445-10.309-3.293-1.809-4.04-.215-7.016 3.293-5.953"/><path fill="#80ff80" d="M204.309-129.645c-1.676-.078-3.309.36-4.946.637-1.832.403-3.707.801-5.461 1.438-.515.078-.558.718-.277 1.117.875-.121 1.672-.559 2.551-.758 5.539-1.594 11.398-1.754 17.101-1.195 3.11.316 6.137 1.152 9.086 2.191.52.32 1.598-.476.602-.598-1.637-.519-3.231-1.234-4.945-1.632-2.75-.68-5.622-.957-8.45-1.157-1.754-.043-3.507-.121-5.261-.043m16.582 9.372c-2.672.996-5.461 1.511-8.293 1.953-.914.078-.278 1.234-.637 1.832.918.238 1.953-.121 2.871-.16 3.066-.481 6.18-1.075 9.047-2.235.641-.117.719-.676 0-.715-.758-.16-1.434-.558-2.07-.996-.321.117-.598.199-.918.321m-8.453 5.66c-.676.754-.399 1.91-.278 2.828.078.558.438 1.515.957 1.555-.082-1.196-.277-2.43-.277-3.629-.043-.239.117-1.235-.402-.754m4.027 1.992c-.676.359.879.316 1.078.676.996.718.953 2.113 1.355 3.187.36 1.16.598 2.395 1.274 3.391.637-.278-.078-1.637-.16-2.274-.438-1.433-.754-2.988-1.672-4.222-.442-.559-1.156-1.039-1.875-.758m7.973 41.894c-1.516.239-3.227.676-4.067 2.114-.398.597-.437 1.515.481 1.554.117-.797.675-1.515 1.394-1.914 1.633-.836 3.547-.918 5.34-.836q1.794.118 3.59.598c.316-.598-.879-1.277-1.516-1.316-1.515-.399-3.148-.36-4.703-.2zm-10.485 6.817c-.875 0-1.633.437-2.113 1.156-.36.238-.477 1.117.121.559 1.273-1.239 3.23-1.317 4.824-.88 1.113-.116-.519-1.034-1.039-.874a9 9 0 0 0-1.754.039z"/><path fill="#0f0" d="M203.867-128.605c-3.426.199-6.734 1.035-9.965 2.113-.398.117-.476-.559-.437.156.082 1.754 1.594 2.992 2.988 3.828 3.192 1.754 6.899 2.352 10.485 2.473 3.746.078 7.574-.598 11.003-2.195 1.395-.598 2.75-1.356 3.825-2.43.48-.438 1.394-1.195 1.437-1.637-.879.203-1.754-.316-2.594-.516-4.105-1.355-8.41-1.914-12.714-1.914-1.356 0-2.711.039-4.028.122m19.336 11.718c-1.797.477-3.551 1.117-5.422 1.356-1.515.277-3.031.515-4.547.597-.996.039-.117 1.356-.355 1.993.078.918.117 1.836.316 2.711.797.636 1.356-.719 1.836-1.196.516-.519 1.074-1.234 1.914-1.277 1.157.082 1.793 1.195 2.153 2.195.554 1.555 1.035 3.11 1.355 4.703.317.559-.64.438 0 .758.953-.082 1.555-1.117 1.832-1.957.836-2.469.918-5.101 1.235-7.691 0-.715.402-1.715.043-2.274-.122 0-.243.043-.36.082m1.633 47.078c-1.316.239-2.871.598-3.668 1.793-.238.438-.199 1.395-.836.72-.16.038.957.796 1.395.913 2.152.88 4.625 1.156 6.937.68 1.234-.36 2.629-.996 3.109-2.313.2-.68-.199-1.355-.679-1.793.597.996-.715.356-1.235.278-1.632-.317-3.347-.477-5.023-.278m-10.047 6.536c-.875.082-1.793.398-2.391 1.039-1.195.277.243 1.234.879 1.312 1.473.441 3.348.48 4.422-.797.559-.597.16-1.793-.676-1.355-.718-.2-1.476-.239-2.234-.2"/><path fill="#00b200" d="M193.105-127.254c-1.472.481-2.91 1.238-4.183 2.113-.801.758.676 1.555 1.156 2.036 1.473 1.078 3.188 1.875 4.863 2.511.836.438 1.832.559 2.75.797 1.356.32 2.711.676 4.106.758 4.183.559 8.488.559 12.676-.16 1.953-.321 3.906-.68 5.742-1.356 1.832-.836 3.586-1.832 5.18-3.07.918-.516.636-1.473-.2-1.871-.597-.281-1.195-1.156-1.715-1.078-.597.597-1.074 1.316-1.753 1.836-3.11 2.629-7.176 3.902-11.2 4.422-4.148.519-8.453.16-12.359-1.395-1.832-.758-3.785-1.875-4.504-3.867-.238-.598-.199-1.195-.16-1.832zm31.094 9.051c-3.867 1.476-8.011 1.953-12.039 2.672-.918 0-.277 1.316-.437 1.875.078 1.711.078 3.508.918 5.058.394.84 1.593.801 2.109.16.758-.914 1.078-2.152 1.953-2.949.84-.078 1.277.996 1.516 1.676.558 1.555.996 3.148 1.515 4.742 0 .879.719 2.074 1.754 1.832 1.035-.355 1.516-1.511 1.953-2.429 1.157-3.032 1.473-6.297 1.793-9.528.082-.996.282-2.035.121-3.07-.121-.637-.796-.199-1.156-.039m-.996 1.316c-1.992.559-3.945 1.235-6.019 1.555-1.395.238-2.871.277-4.266.559-1.035.277-.879 1.511-.879 2.308.082.719.16 1.598.801 2.035.555.598 1.433.321 1.711-.398.441-.598.996-1.074 1.515-1.594.758.117 1.594.277 1.993 1.035.519.836.519 1.914.879 2.832.398 1.114.597 2.391 1.316 3.387.914.359 1.672-.918 1.992-1.633.797-2.234.875-4.625 1.195-6.976.079-1.039.278-2.114.239-3.149-.117-.121-.321.039-.477.039m7.774 46.88c-.282-.122.636.597.597.956.36.996-.199 2.032-1.078 2.508-1.875 1.04-4.105 1.04-6.18.758-1.472-.238-2.949-.676-4.144-1.555-.16-.476-.117-.516-.078.043.316 1.352 1.754 1.992 2.988 2.39 2.551.716 5.383.716 7.852-.237 1-.481 2.273-1.04 2.511-2.235.039-1.195-1.117-1.953-2.07-2.512-.082 0-.359-.277-.398-.117m-13.555 6.534c.918.68.359 1.992-.559 2.352-1.433.758-3.269.52-4.625-.36-.957-.554.481-1.753.403-1.792-.602.398-1.317 1.277-.758 1.992 1.035 1.238 2.789 1.437 4.305 1.277 1.035-.121 2.308-.477 2.71-1.555.239-1.035-.796-1.714-1.597-2.074v.043z"/><path fill="#060" d="M224.797-125.695c.637.355 1.676 1.113.797 1.832-1.516 1.476-3.469 2.273-5.34 3.148.914-.199 1.832-.637 2.668-1.074 1.238-.719 2.512-1.438 3.348-2.594.121-.836-1.114-1.152-1.672-1.594-.321-.16-.957-.437-.282-.039.161.121.321.2.481.321m-34.121 3.027c1.113.758 2.39 1.316 3.668 1.875.597.16-.918-.48-1.239-.641-.796-.394-1.632-.836-2.429-1.234m34.64 51.543c-1.554.2-3.152.719-4.425 1.672-.52.441-1.196.957-1.078 1.797 0 1.234.996 2.152 2.074 2.629 1.035.558 2.152.957 3.308.879 1.395.039 2.828.117 4.227-.043 1.273-.317 2.551-.915 3.547-1.754.676-.676 1.035-1.832.398-2.63-.437-.636-1.039-1.194-1.754-1.515-1.953-.875-4.144-1.195-6.297-1.035m-.558.398c-1.555.2-3.352.637-4.305 2.032-.64.879-.281 2.113.559 2.71 1.551 1.2 3.586 1.477 5.5 1.555 2.074 0 4.343-.316 6.019-1.672.754-.52 1.114-1.636.477-2.394-1.278-1.672-3.469-2.192-5.461-2.309-.918-.043-1.875 0-2.789.078m-10.285 6.536c-.879.203-1.832.48-2.473 1.16-.797.636-.598 1.832.121 2.43.996.956 2.473.995 3.785 1.117 1.117-.082 2.074-.72 2.949-1.317.52-.718.52-1.875-.277-2.39-1.156-.88-2.672-1.157-4.105-1m-.16.32c-.958.121-1.993.52-2.43 1.477-.559.913.515 1.714 1.312 1.992 1.637.636 3.668.68 5.106-.438.875-.558.676-1.797-.16-2.312-1.078-.758-2.512-.918-3.828-.72"/><path fill="#f2f2f2" d="M203.551-138.055c-3.348.2-6.699.797-9.965 1.715-3.27.996-6.617 2.391-9.051 4.902-1.394 1.395-2.351 3.547-1.754 5.543.719 2.508 2.91 4.223 5.102 5.5 4.387 2.391 9.41 3.469 14.351 3.946 2.672.277 5.383.277 8.051.199.84.121 1.637-.637 1.356-1.516-.715-.437-1.633-.277-2.43-.355-3.391-.082-6.816-.043-10.164-.762-3.43-.715-6.899-1.793-9.609-4.062-1.473-1.239-2.668-3.149-2.192-5.145.52-2.191 2.473-3.707 4.387-4.742 4.543-2.434 9.765-3.27 14.906-3.387 5.102-.082 10.324.559 15.109 2.469 2.192.957 4.465 2.191 5.661 4.348 1.035 1.832.558 4.304-.957 5.777-.997 1.117-2.391 1.797-3.586 2.672-.243.758 1.195.758 1.711 1.074.359.082.718.281 1.078.32 2.429-1.234 4.902-2.75 6.218-5.179.957-1.715.797-3.91-.32-5.504-1.676-2.473-4.383-3.946-7.055-5.063a42.3 42.3 0 0 0-10.324-2.511 94 94 0 0 0-10.523-.239m-19.254 19.973c0 1.355-.121 2.711 0 4.066.598.637.719-.957.836-1.355.082-.879.957-1.399.918-2.274.078-.878.039-1.753.199-2.628-.52-.563-1.234-1.2-1.875-1.399-.078 1.195-.078 2.395-.078 3.59m5.461-.121c-.16.48.519.48.758.797 1.554 1.394 1.672 3.945.675 5.703-.316.797-1.234 1.035-1.711 1.555-.16 2.39-.042 4.82-.082 7.21 0 7.497.04 14.95.04 22.407.839.996 2.113 1.394 3.269 1.91 1.754.719 3.629 1.355 5.539 1.555.762-.399.242-1.633.402-2.391.118-12 .157-23.996.118-35.996.199-1.035-1.395-.598-2.032-.957a37.6 37.6 0 0 1-6.937-2.113c-.078.121-.039.203-.039.32m-2.832 1.156c-.914.481-1.356 1.555-1.356 2.551.68.359 1.754-1.156 2.274-.16.519.918-.598 1.996-1.317 1.039-1.156-.082-.875 1.312-.238 1.793.52.719 1.715.918 2.274.121.917-1.238 1.117-2.992.398-4.387-.359-.637-1.234-1.476-2.035-.957m-2.391 4.344c-.398.043-.238.441-.277.719.117 8.132.039 16.265.156 24.355.121 1.156.641 2.235 1.199 3.23.399.36.157-.917.278-1.238.121-7.492.082-14.984.238-22.48 0-.996-.039-1.992-.039-3.031-.438-.477-.676-1.114-1.074-1.633-.161-.078-.321.039-.481.078"/><path fill="#d9d9d9" d="M206.18-138.094c.398.039 1.996 0 .84 0-.122 0-1.278-.039-.84 0m-22.84 15.465c-.039.84-.039 1.637.039 2.473.043-.918.082-1.832 0-2.672v.043zm2.871 2.395c-.121 1.074-.039 2.191-.238 3.226.437-.476 1.234-.676 1.91-.836.597-.121 1.238-.199 1.875-.039-.078-.281.121-.68-.238-.758a27 27 0 0 1-3.149-1.675h-.121zm40.219 1.511c-.676.602-.715 1.559-.715 2.395-.36 3.707-.559 7.492-1.793 11.082-.442 1.074-1.039 2.391-2.274 2.711-1.117.156-1.875-.957-2.312-1.836-.559-1.434-.875-2.949-1.395-4.387-.199-.715-.398-1.711-1.195-1.988-.601.676-.879 1.594-1.437 2.308-.477.719-1.395 1.278-2.274.879-1.035-.48-1.234-1.836-1.433-2.871-.278-1.593-.2-3.226-.36-4.824-.597-.199-1.512.039-2.23-.039-2.633 0-5.262 0-7.895-.398-.758-.079-1.554-.239-2.351-.278 0 11.879.039 23.758-.118 35.594-.043 1.078.04 2.156-.121 3.23-.879.278-1.754-.16-2.589-.359-2.075-.637-4.11-1.355-5.942-2.469-.359-.242-.676-.558-.558-1 0-9.726-.079-19.492 0-29.218.042-.36-.758-.039-1.036-.2-.797-.078-1.632-.238-2.273-.675-.039 1.753 0 3.507-.039 5.222-.16 6.973-.078 13.91-.238 20.887.039.438-.122 1.074-.399.316-.48-.796-.758-1.71-1.039-2.628-.039.996.441 1.953.879 2.828.879 1.554 2.312 2.754 3.629 3.949 2.109 1.793 4.82 2.55 7.453 3.27 2.352.515 4.742.953 7.176 1.113 2.629 0 5.301.082 7.929-.118 3.711-.359 7.418-1.195 10.805-2.75 1.555-.68 2.91-1.996 3.387-3.707.84-2.672.758-5.504.879-8.293.16-8.851.277-17.699.238-26.546-.117-.321.281-1.715-.359-1.2m-37.75 1.317c-.239.797 1 1.554.957 2.433.398 1.317-.117 2.629-.836 3.707.277.797 1.836-.121 1.992-.839.758-1.512.641-3.465-.477-4.782-.398-.398-1.039-.718-1.636-.519m43.011 1.793c0 .359.039 1.957.039.84 0-.84 0-1.676-.039-2.512zm-47.355 22.086c0 .437.039 1.754.039.636 0-.515 0-1.593-.039-1.753z"/><path fill="#bfbfbf" d="M206.938-136.18c.441.039 1.835 0 .679 0-.121 0-1.039-.039-.679 0m-1.793.598c-4.465.277-8.969 1.035-12.957 3.109-1.793.957-3.665 2.274-4.305 4.344-.238.797-.238 1.754.203 2.512.715.437 1.394-.477 2.07-.68 3.032-1.672 6.34-2.629 9.727-3.148 6.18-.996 12.597-.836 18.656.679 2.629.676 5.141 1.672 7.453 3.071.879.715 1.317-.399 1.278-1.157.199-1.914-1.239-3.546-2.711-4.586-3.071-2.113-6.7-3.07-10.325-3.667-2.992-.477-6.058-.637-9.089-.477m-22.442 8.41v.199c.039-.359 0-1.234 0-.398zm48.988 7.492c0 .36 0 1.676.039 1.399v-2.871c-.039.519-.039.996-.039 1.472m-1.671-1.593c-1.157.957-2.512 1.675-3.829 2.472-.796.598-.476 1.715-.636 2.59-.239 3.551-.598 7.137-1.676 10.523-.438 1.118-.996 2.473-2.191 2.911-1.079.281-1.793-.754-2.153-1.594-.797-1.992-1.156-4.145-1.953-6.098-.359-1.039-1.316-.437-1.516.36-.519.957-1.074 2.113-2.191 2.511-.918.118-1.395-.879-1.715-1.554a11 11 0 0 1-.68-2.473c.083 1.316.122 2.828 1.161 3.828.636.555 1.793.555 2.308-.242.68-.758 1.156-1.715 1.676-2.629.797-.121 1.117 1.156 1.316 1.832.438 1.395.797 2.871 1.356 4.305.398.918 1.074 2.074 2.23 1.996 1.239-.199 1.875-1.477 2.313-2.512 1.277-3.551 1.515-7.375 1.875-11.082 0-.957 0-1.992.797-2.672.558-.121.16 1.117.277 1.516.039 8.93-.078 17.816-.238 26.707-.121 2.672-.078 5.422-.918 7.972-.516 1.676-1.832 2.95-3.387 3.668-2.273 1.036-4.703 1.754-7.137 2.192a48.9 48.9 0 0 1-18.175-.32c-2.993-.758-6.141-1.672-8.454-3.825-1.234-1.117-2.507-2.273-3.308-3.75-.399-.796-.715-1.671-.797-2.55a72 72 0 0 0 0 4.105c-.039-.676.281.84 0 .32.598 1.196 1.316 2.352 2.395 3.188 2.949 2.394 6.656 3.668 10.324 4.508a48.5 48.5 0 0 0 19.89.199c3.786-.797 7.692-1.953 10.762-4.387 1.317-1.035 2.391-2.39 2.988-3.945 0-11.32.043-22.602.043-33.926-.043-1.434.039-2.867-.199-4.262-.082-.437-.398 0-.558.118m-22.801 5.144c.437 0 1.754-.043.636-.043-.121 0-.996 0-.636.043m-.758.836c.316.039 2.07 0 .996 0-.16 0-1.394-.039-.996 0m-23 6.656c-.039.442 0 1.395 0 .399v-1.235zm.836 3.391v2.789q.058-2.81 0-5.621zm47.355-.801v1.875a63 63 0 0 0 0-3.824zm-48.191 8.73c-.039.399 0 1.239 0 .36v-.715zm48.152 4.106v1.598-3.668zm-47.277 3.113c0 .438.039 1.395.039.356 0-.317 0-1.356-.039-1.235zm-.836 2.309v1.836a59 59 0 0 0 0-3.707zm22.879 14.71c.32 0 1.676-.038.719-.038-.078 0-1.078 0-.719.039"/><path d="M204.027-138.93a49 49 0 0 0-9.007 1.313c-3.79 1-7.614 2.472-10.524 5.144-1.715 1.555-3.07 3.785-2.672 6.137.16 1.238.836 2.395 1.555 3.43q.123 4.905 0 9.804c-1.113.559-2.113 1.356-3.109 2.153-1.434 1.277-2.911 2.754-3.387 4.664-.32 1 .199 2.113 1.156 2.551 1.274.597 2.75.203 4.066-.118.516-.16 1.434-.519 1.235.399.199 6.855.121 13.71.238 20.566.121 1.078.879 1.957 1.516 2.754 1.715 2.11 4.144 3.348 6.578 4.383 3.668 1.394 7.492 2.152 11.359 2.512a86 86 0 0 0 9.649-.078c3.625-.36 7.215-1.078 10.562-2.434 2.391-.957 4.781-2.23 6.535-4.144.758-.837 1.317-1.837 1.715-2.872.121-3.226.082-6.457.121-9.687.039-10.004 0-20.051.117-30.055-.039-.32-.039-.597.204-.836.554-.719.796-1.597 1.234-2.351.477-1.559-.121-3.192-.84-4.547-1.234-2.231-3.426-3.746-5.656-4.903-3.949-1.953-8.293-2.949-12.637-3.507-3.351-.321-6.699-.36-10.008-.278m-1.117.836a49.2 49.2 0 0 0-10.762 2.192c-2.949.996-5.859 2.472-8.011 4.824-.957 1.035-1.594 2.39-1.477 3.824.043 2.434 1.676 4.508 3.59 5.902 2.91 2.075 6.418 3.188 9.926 3.985a67.3 67.3 0 0 0 12.355 1.277c.918-.039 1.914 0 2.793-.359.516-.438.598-1.832-.398-1.633-3.309-.16-6.656-.039-9.965-.52-3.75-.597-7.535-1.593-10.727-3.785-1.632-1.156-3.187-2.91-3.066-5.023.117-2.153 1.871-3.746 3.586-4.863 3.785-2.352 8.293-3.348 12.715-3.747 5.504-.48 11.164-.082 16.426 1.672 2.628.918 5.339 2.153 7.015 4.465.957 1.235 1.317 2.988.598 4.426-.918 1.992-2.789 3.227-4.586 4.305-.914.757.918.996 1.394 1.234.801.48 1.715.359 2.434-.238 2.23-1.235 4.504-2.91 5.383-5.379.715-1.996-.082-4.227-1.477-5.742-2.273-2.512-5.5-3.907-8.691-4.942-3.664-1.117-7.492-1.797-11.32-1.836-2.59-.078-5.141-.16-7.735-.039m2.235 2.512c-4.465.277-8.969 1.035-12.957 3.109-1.793.957-3.665 2.274-4.305 4.344-.238.797-.238 1.754.203 2.512.715.437 1.394-.477 2.07-.68 3.032-1.672 6.34-2.629 9.727-3.148 6.18-.996 12.597-.836 18.656.679 2.629.676 5.141 1.672 7.453 3.071.879.715 1.317-.399 1.278-1.157.199-1.914-1.239-3.546-2.711-4.586-3.071-2.113-6.7-3.07-10.325-3.667-2.992-.477-6.058-.637-9.089-.477m-.04 6.059c-3.468 0-6.894.757-10.207 1.675-1.035.278-2.031.676-3.027 1.075-1.117.519-2.234 1.117-3.191 1.914.043.836 1.16 1.355 1.754 1.914 3.308 2.312 7.375 3.265 11.281 3.824 3.39.441 6.816.641 10.207.199 2.59-.277 5.223-.598 7.691-1.433.719-.36 1.516-.598 2.274-.958 1.515-.757 3.07-1.593 4.265-2.871.598-.836-.879-1.273-1.433-1.671-2.516-1.239-5.145-2.313-7.934-2.833-3.828-.875-7.773-.914-11.68-.835m-20.808 8.011a162 162 0 0 0-.039 7.535c.558.715.797-.878.875-1.316.238-1.074.957-2.113 2.113-2.352 1.035-.32 2.391-.558 3.27.278 1.472 1.398 1.632 3.789.714 5.543a3.34 3.34 0 0 1-1.671 1.472c-1.317-.039-2.871 0-3.707-1.195-.438-.437-.598-1.715-1.477-1.113-.238.117-.039.555-.117.836.039 9.687.039 19.37.117 29.058.598 1.118 1.238 2.274 2.273 3.07 2.832 2.391 6.457 3.669 10.047 4.544 6.375 1.437 13.035 1.554 19.45.437 3.828-.715 7.695-1.793 10.925-4.023 1.594-1.118 2.989-2.633 3.664-4.465 0-11.32.043-22.602.043-33.926-.043-1.434.039-2.867-.199-4.262-.359-.48-.957.676-1.476.797-.957.715-2.075 1.196-3.032 1.871-.636.719-.355 1.797-.515 2.672-.239 3.469-.598 6.977-1.676 10.324-.438 1.157-1.035 2.512-2.274 2.993-1.074.238-1.792-.84-2.109-1.715-.758-1.992-1.117-4.149-1.992-6.141-.602-1.113-1.359.121-1.598.797-.476.797-.914 1.797-1.832 2.234-.957.278-1.594-.796-1.953-1.515-.758-1.953-.68-4.067-.797-6.141 0-.316-.519-.078-.758-.156-2.55-.039-5.101.117-7.656-.121-4.062-.438-8.129-1.156-11.957-2.59-2.273-.879-4.426-2.113-6.379-3.59-.078-.078-.316-.117-.277.16m36.633 1.196c-2.711.996-5.539 1.554-8.41 1.953-.797.16-.239 1.277-.598 1.875.797.238 1.793-.039 2.672-.078 3.187-.481 6.418-1.157 9.406-2.356.875-.156.398-.676-.199-.715-.879-.082-1.516-1.039-2.352-.879-.16.082-.32.121-.519.2m3.23 2.113c-3.906 1.555-8.094 2.152-12.238 2.672-.359.039-.082.515-.16.797.078 1.875.078 3.828.676 5.66.203.758 1.078 1.394 1.835.957 1.075-.797 1.317-2.313 2.274-3.27.797-.437 1.351.797 1.594 1.438.757 1.992 1.156 4.105 2.031 6.015.398 1.079 1.754.996 2.273.082 1.235-1.593 1.555-3.707 1.953-5.621.516-2.871.875-5.742.875-8.609 0-.719-.753-.199-1.113-.121m-35.48.797c.281.84 1.117 1.593 1.16 2.59.238 1.316-.32 2.632-1.039 3.711.597.437 1.554-.243 1.875-.84.875-1.516.797-3.707-.52-4.981-.398-.281-.957-.558-1.476-.48m-1.754.277c-.996.52-1.434 1.719-1.395 2.832.719-.078 1.317-.758 2.074-.637.758.52 0 2.391-.835 1.434-.797-.516-1.477.559-.879 1.195.398.719 1.355 1.516 2.23.996 1.238-.836 1.477-2.589 1.156-3.984-.199-.957-.914-1.914-1.953-1.953-.117 0-.238.082-.398.117m-4.024 5.344c-1.953 1.355-3.789 3.07-4.785 5.262-.437.679-.398 1.914.641 1.953 1.394.238 2.75-.239 4.101-.559.879-.316.442-1.555.602-2.269 0-1.516.039-3.032-.121-4.504-.039-.203-.32.117-.438.117"/><path fill="#c2dbf5" d="M100.203-38.992c-4.871 1.152-8.855 4.254-10.894 8.68-3.899 8.328.445 18.16 9.39 21.085 6.91 2.301 14.793-1.066 18.16-7.796 1.329-2.48 1.95-5.934 1.594-8.329-.531-4.074-1.773-6.73-4.519-9.386-1.95-1.95-4.161-3.282-6.821-3.989-1.769-.53-5.136-.62-6.91-.265m.531.265c-4.78.797-8.945 3.989-11.07 8.414-2.746 5.938-1.508 12.848 3.277 17.364 1.684 1.594 3.188 2.48 5.493 3.277 3.277 1.152 7.086 1.063 10.363-.265 3.543-1.418 6.644-4.43 8.148-7.973.977-2.215 1.153-3.277 1.153-5.934 0-3.011-.176-4.074-1.328-6.554-.973-2.04-3.188-4.696-5.047-5.848-3.282-2.215-7.176-3.102-10.989-2.48m-.086 2.922c-.796.09-2.48.621-3.277.977-.887.355-3.012 1.86-3.012 2.035 0 .09-.265.445-.53.711-.622.707-1.329 2.215-1.774 3.453-.442 1.418-.532 1.774-.266 1.95.355.265.442.175.977-.887 2.035-3.543 4.515-5.758 8.679-7.528.621-.18.442-.886-.175-.797-.09 0-.356.086-.622.086"/><path fill="#0080ff" d="M100.734-38.727c-4.78.797-8.945 3.989-11.07 8.414-2.746 5.938-1.508 12.848 3.277 17.364 1.684 1.594 3.188 2.48 5.493 3.277 3.277 1.152 7.086 1.063 10.363-.265 3.543-1.418 6.644-4.43 8.148-7.973.977-2.215 1.153-3.277 1.153-5.934 0-3.011-.176-4.074-1.328-6.554-.973-2.04-3.188-4.696-5.047-5.848-3.282-2.215-7.176-3.102-10.989-2.48m-.086 2.922c-.796.09-2.48.621-3.277.977-.887.355-3.012 1.86-3.012 2.035 0 .09-.265.445-.53.711-.622.707-1.329 2.215-1.774 3.453-.442 1.418-.532 1.774-.266 1.95.355.265.442.175.977-.887 2.035-3.543 4.515-5.758 8.679-7.528.621-.18.442-.886-.175-.797-.09 0-.356.086-.622.086"/><path fill="#f5c2c2" d="M125.719-30.488c-4.875 1.152-8.86 4.254-10.899 8.68-3.898 8.328.446 18.16 9.391 21.085 6.91 2.301 14.793-1.066 18.16-7.797 1.328-2.48 1.949-5.933 1.594-8.328-.531-4.074-1.774-6.73-4.52-9.386-1.949-1.95-4.16-3.282-6.82-3.989-1.77-.53-5.137-.62-6.906-.265m.527.265c-4.781.797-8.945 3.989-11.07 8.414-2.746 5.938-1.504 12.848 3.277 17.364 1.684 1.593 3.188 2.48 5.492 3.277 3.278 1.152 7.086 1.063 10.364-.266 3.543-1.418 6.644-4.43 8.152-7.972.973-2.215 1.148-3.278 1.148-5.934 0-3.012-.175-4.074-1.328-6.555-.972-2.039-3.187-4.695-5.051-5.847-3.277-2.215-7.171-3.102-10.984-2.48m-.086 2.922c-.797.09-2.48.621-3.277.977-.887.355-3.012 1.86-3.012 2.039 0 .086-.266.441-.531.707-.621.707-1.328 2.215-1.774 3.453-.441 1.418-.531 1.773-.265 1.95.355.265.445.179.976-.887 2.036-3.543 4.516-5.758 8.68-7.528.621-.18.441-.887-.176-.797-.09 0-.355.086-.621.086"/><path fill="red" d="M126.246-30.223c-4.781.797-8.945 3.989-11.07 8.414-2.746 5.938-1.504 12.848 3.277 17.364 1.684 1.593 3.188 2.48 5.492 3.277 3.278 1.152 7.086 1.063 10.364-.266 3.543-1.418 6.644-4.43 8.152-7.972.973-2.215 1.148-3.278 1.148-5.934 0-3.012-.175-4.074-1.328-6.555-.972-2.039-3.187-4.695-5.051-5.847-3.277-2.215-7.171-3.102-10.984-2.48m-.086 2.922c-.797.09-2.48.621-3.277.977-.887.355-3.012 1.86-3.012 2.039 0 .086-.266.441-.531.707-.621.707-1.328 2.215-1.774 3.453-.441 1.418-.531 1.773-.265 1.95.355.265.445.179.976-.887 2.036-3.543 4.516-5.758 8.68-7.528.621-.18.441-.887-.176-.797-.09 0-.355.086-.621.086"/><path fill="#f5c2c2" d="M139.891-84.348c-4.871 1.153-8.86 4.254-10.895 8.684-3.898 8.324.442 18.156 9.387 21.082 6.91 2.3 14.793-1.062 18.16-7.797 1.328-2.48 1.949-5.934 1.594-8.324-.532-4.078-1.77-6.734-4.516-9.39-1.949-1.95-4.164-3.278-6.82-3.989-1.774-.531-5.141-.617-6.91-.266m.531.266c-4.785.8-8.945 3.988-11.074 8.418-2.746 5.933-1.504 12.844 3.277 17.36 1.684 1.597 3.191 2.48 5.492 3.277 3.278 1.152 7.086 1.066 10.363-.266 3.547-1.414 6.645-4.426 8.153-7.973.972-2.21 1.152-3.277 1.152-5.933 0-3.012-.18-4.074-1.332-6.555-.973-2.039-3.187-4.695-5.047-5.848-3.277-2.214-7.176-3.097-10.984-2.48m-.09 2.926c-.797.086-2.48.62-3.277.972-.883.356-3.012 1.86-3.012 2.04 0 .085-.266.44-.531.707-.621.71-1.328 2.214-1.77 3.456-.445 1.415-.531 1.77-.265 1.95.351.262.441.175.972-.887 2.035-3.543 4.52-5.758 8.68-7.531.621-.176.445-.887-.176-.797-.09 0-.355.09-.621.09"/><path fill="red" d="M140.422-84.082c-4.785.8-8.945 3.988-11.074 8.418-2.746 5.933-1.504 12.844 3.277 17.36 1.684 1.597 3.191 2.48 5.492 3.277 3.278 1.152 7.086 1.066 10.363-.266 3.547-1.414 6.645-4.426 8.153-7.973.972-2.21 1.152-3.277 1.152-5.933 0-3.012-.18-4.074-1.332-6.555-.973-2.039-3.187-4.695-5.047-5.848-3.277-2.214-7.176-3.097-10.984-2.48m-.09 2.926c-.797.086-2.48.62-3.277.972-.883.356-3.012 1.86-3.012 2.04 0 .085-.266.44-.531.707-.621.71-1.328 2.214-1.77 3.456-.445 1.415-.531 1.77-.265 1.95.351.262.441.175.972-.887 2.035-3.543 4.52-5.758 8.68-7.531.621-.176.445-.887-.176-.797-.09 0-.355.09-.621.09"/><path fill="#c2dbf5" d="M196.582-41.828c-4.871 1.152-8.855 4.254-10.894 8.684-3.899 8.324.441 18.16 9.39 21.082 6.906 2.3 14.793-1.063 18.156-7.797 1.332-2.48 1.95-5.934 1.598-8.325-.531-4.078-1.773-6.734-4.519-9.39-1.95-1.95-4.165-3.278-6.821-3.989-1.769-.53-5.137-.617-6.91-.265m.531.266c-4.781.796-8.945 3.988-11.07 8.417-2.746 5.934-1.508 12.844 3.277 17.364 1.684 1.594 3.188 2.476 5.493 3.273 3.277 1.152 7.085 1.067 10.363-.265 3.543-1.415 6.644-4.426 8.148-7.97.977-2.214 1.153-3.28 1.153-5.937 0-3.011-.176-4.074-1.329-6.554-.976-2.04-3.187-4.696-5.05-5.848-3.278-2.215-7.176-3.098-10.985-2.48m-.086 2.925c-.797.086-2.48.617-3.281.973-.883.355-3.012 1.86-3.012 2.039 0 .09-.261.441-.531.707-.617.711-1.328 2.215-1.769 3.457-.442 1.414-.532 1.77-.266 1.945.355.27.441.18.973-.882 2.039-3.543 4.519-5.758 8.683-7.532.617-.175.442-.886-.179-.797-.086 0-.352.09-.618.09"/><path fill="#0080ff" d="M197.113-41.562c-4.781.796-8.945 3.988-11.07 8.417-2.746 5.934-1.508 12.844 3.277 17.364 1.684 1.594 3.188 2.476 5.493 3.273 3.277 1.152 7.085 1.067 10.363-.265 3.543-1.415 6.644-4.426 8.148-7.97.977-2.214 1.153-3.28 1.153-5.937 0-3.011-.176-4.074-1.329-6.554-.976-2.04-3.187-4.696-5.05-5.848-3.278-2.215-7.176-3.098-10.985-2.48m-.086 2.925c-.797.086-2.48.617-3.281.973-.883.355-3.012 1.86-3.012 2.039 0 .09-.261.441-.531.707-.617.711-1.328 2.215-1.769 3.457-.442 1.414-.532 1.77-.266 1.945.355.27.441.18.973-.882 2.039-3.543 4.519-5.758 8.683-7.532.617-.175.442-.886-.179-.797-.086 0-.352.09-.618.09"/><path fill="#f5c2c2" d="M12.332-50.332c-4.875 1.152-8.86 4.254-10.898 8.684-3.895 8.324.445 18.16 9.39 21.082 6.91 2.3 14.793-1.063 18.16-7.797 1.328-2.48 1.95-5.934 1.594-8.324-.531-4.079-1.77-6.735-4.515-9.391-1.95-1.95-4.165-3.277-6.82-3.988-1.774-.532-5.141-.618-6.911-.266m.531.266c-4.785.797-8.949 3.988-11.074 8.418C-.957-35.715.285-28.805 5.066-24.285c1.684 1.594 3.192 2.476 5.493 3.273 3.277 1.153 7.086 1.067 10.363-.265 3.547-1.414 6.644-4.426 8.152-7.97.973-2.214 1.149-3.28 1.149-5.937 0-3.011-.176-4.074-1.328-6.554-.973-2.04-3.188-4.696-5.047-5.848-3.278-2.215-7.176-3.098-10.985-2.48m-.09 2.925c-.796.086-2.48.618-3.277.973-.887.355-3.012 1.86-3.012 2.04 0 .085-.265.44-.53.706-.622.711-1.329 2.215-1.774 3.457-.442 1.414-.532 1.77-.266 1.946.356.265.445.18.977-.883 2.035-3.543 4.515-5.758 8.68-7.532.62-.175.445-.886-.176-.797-.09 0-.356.09-.622.09"/><path fill="red" d="M12.863-50.066c-4.785.797-8.949 3.988-11.074 8.418C-.957-35.715.285-28.805 5.066-24.285c1.684 1.594 3.192 2.476 5.493 3.273 3.277 1.153 7.086 1.067 10.363-.265 3.547-1.414 6.644-4.426 8.152-7.97.973-2.214 1.149-3.28 1.149-5.937 0-3.011-.176-4.074-1.328-6.554-.973-2.04-3.188-4.696-5.047-5.848-3.278-2.215-7.176-3.098-10.985-2.48m-.09 2.925c-.796.086-2.48.618-3.277.973-.887.355-3.012 1.86-3.012 2.04 0 .085-.265.44-.53.706-.622.711-1.329 2.215-1.774 3.457-.442 1.414-.532 1.77-.266 1.946.356.265.445.18.977-.883 2.035-3.543 4.515-5.758 8.68-7.532.62-.175.445-.886-.176-.797-.09 0-.356.09-.622.09"/></g></svg>