<svg xmlns="http://www.w3.org/2000/svg" width="455pt" height="46pt" viewBox="0 -46 455 46"><g id="page1"><path fill="none" stroke="#000" stroke-linecap="round" stroke-linejoin="round" stroke-width=".5" d="M.25-45.61h45.356V-.253H.25zm45.356 0h45.351V-.253H45.606zm45.351 0h45.356V-.253H90.957zm45.356 0h45.355V-.253h-45.355zm45.355 0h45.352V-.253h-45.352zm45.352 0h45.355V-.253H227.02zm45.355 0h45.355V-.253h-45.355zm45.355 0h45.356V-.253H317.73zm45.356 0h45.352V-.253h-45.352zm45.352 0h45.355V-.253h-45.355z"/><path d="M26.875-22.93c0-1.261-.02-3.41-.887-5.062-.765-1.445-1.984-1.961-3.058-1.961-.992 0-2.25.453-3.035 1.941-.829 1.547-.91 3.469-.91 5.082 0 1.176.023 2.973.66 4.543.89 2.13 2.48 2.418 3.285 2.418.953 0 2.398-.394 3.242-2.355.621-1.426.703-3.098.703-4.606M22.93-16.3c-1.32 0-2.106-1.137-2.395-2.708-.226-1.219-.226-2.992-.226-4.148 0-1.594 0-2.914.265-4.176.395-1.754 1.551-2.293 2.356-2.293.847 0 1.941.559 2.336 2.254.265 1.176.289 2.558.289 4.215 0 1.34 0 2.992-.25 4.21-.434 2.255-1.653 2.645-2.375 2.645m46.187-7.437c1.305-.66 2.625-1.653 2.625-3.242 0-1.88-1.816-2.973-3.492-2.973-1.879 0-3.531 1.363-3.531 3.242 0 .516.125 1.406.93 2.188.207.207 1.074.828 1.632 1.218-.93.477-3.101 1.614-3.101 3.887 0 2.125 2.027 3.45 4.03 3.45 2.212 0 4.071-1.59 4.071-3.7 0-1.879-1.262-2.746-2.086-3.305zm-2.703-1.817c-.168-.101-.992-.742-.992-1.715 0-1.261 1.3-2.21 2.789-2.21 1.633 0 2.828 1.156 2.828 2.5 0 1.921-2.148 3.015-2.25 3.015-.023 0-.043 0-.207-.12zm3.8 4.235c.31.226 1.302.91 1.302 2.172 0 1.527-1.532 2.683-3.266 2.683-1.879 0-3.305-1.344-3.305-2.976 0-1.63 1.262-2.997 2.688-3.633zm44.181-8.18c0-.434-.02-.453-.309-.453-.805.969-2.023 1.281-3.184 1.32-.058 0-.164 0-.183.043-.024.04-.024.082-.024.516.645 0 1.719-.125 2.543-.621v10.886c0 .723-.043.973-1.816.973h-.621v.535c.992-.02 2.023-.039 3.015-.039.993 0 2.024.02 3.016.04v-.536h-.617c-1.777 0-1.82-.227-1.82-.973zm45.3 0c0-.434-.019-.453-.312-.453-.805.969-2.024 1.281-3.18 1.32-.062 0-.164 0-.187.043-.02.04-.02.082-.02.516.641 0 1.719-.125 2.543-.621v10.886c0 .723-.043.973-1.82.973h-.617v.535c.992-.02 2.023-.039 3.015-.039s2.024.02 3.016.04v-.536h-.621c-1.778 0-1.817-.227-1.817-.973zm45.524 5.762c1.301-.66 2.625-1.653 2.625-3.242 0-1.88-1.821-2.973-3.492-2.973-1.879 0-3.532 1.363-3.532 3.242 0 .516.121 1.406.926 2.188.207.207 1.074.828 1.633 1.218-.93.477-3.098 1.614-3.098 3.887 0 2.125 2.024 3.45 4.028 3.45 2.211 0 4.07-1.59 4.07-3.7 0-1.879-1.262-2.746-2.086-3.305zm-2.707-1.817c-.164-.101-.989-.742-.989-1.715 0-1.261 1.297-2.21 2.786-2.21 1.632 0 2.832 1.156 2.832 2.5 0 1.921-2.149 3.015-2.25 3.015-.024 0-.043 0-.211-.12zm3.801 4.235c.308.226 1.304.91 1.304 2.172 0 1.527-1.531 2.683-3.265 2.683-1.879 0-3.305-1.344-3.305-2.976 0-1.63 1.258-2.997 2.683-3.633zm43.253-2.004c1.84 0 2.645 1.59 2.645 3.43 0 2.48-1.324 3.43-2.523 3.43-1.094 0-2.872-.54-3.43-2.13a.8.8 0 0 0 .312.043c.496 0 .868-.332.868-.867 0-.602-.454-.871-.868-.871-.351 0-.89.168-.89.93 0 1.902 1.859 3.39 4.05 3.39 2.293 0 4.051-1.797 4.051-3.906 0-2.004-1.652-3.45-3.617-3.676 1.57-.332 3.078-1.734 3.078-3.613 0-1.613-1.633-2.79-3.488-2.79-1.883 0-3.535 1.157-3.535 2.81 0 .722.539.847.804.847.434 0 .805-.27.805-.808 0-.536-.371-.805-.805-.805-.082 0-.183 0-.265.043.597-1.363 2.23-1.613 2.953-1.613s2.086.351 2.086 2.335c0 .579-.082 1.61-.785 2.52-.621.805-1.324.848-2.004.91-.102 0-.578.04-.66.04-.145.019-.231.042-.231.187s.024.164.438.164zm42.922-.102c0-4.937 2.317-6.055 3.66-6.055.43 0 1.485.083 1.899.891-.332 0-.949 0-.949.723 0 .555.453.742.742.742.187 0 .746-.082.746-.785 0-1.3-1.035-2.043-2.461-2.043-2.457 0-5.039 2.558-5.039 7.125 0 5.617 2.332 6.86 3.984 6.86 2.004 0 3.907-1.798 3.907-4.567 0-2.582-1.672-4.461-3.782-4.461-1.257 0-2.187.824-2.707 2.27zm2.582 6.961c-2.539 0-2.539-3.8-2.539-4.566 0-1.489.703-3.633 2.625-3.633.352 0 1.364 0 2.043 1.422.371.805.371 1.652.371 2.687 0 1.114 0 1.942-.433 2.766-.453.848-1.114 1.324-2.067 1.324m42.985-11.918a6 6 0 0 0 1.922.348c1.921 0 2.976-1.031 3.574-1.63 0-.167 0-.269-.125-.269-.02 0-.063 0-.227.082-.722.309-1.57.559-2.605.559a6.2 6.2 0 0 1-2.559-.539c-.226-.102-.269-.102-.289-.102-.105 0-.125.02-.125.434v5.992c0 .371 0 .473.207.473.102 0 .145-.04.246-.184.66-.93 1.571-1.324 2.606-1.324.722 0 2.273.457 2.273 3.988 0 .66 0 1.86-.621 2.809-.519.848-1.324 1.281-2.211 1.281-1.363 0-2.75-.95-3.117-2.543.082.024.246.063.328.063.27 0 .785-.145.785-.785 0-.56-.39-.786-.785-.786-.477 0-.785.29-.785.868 0 1.796 1.426 3.68 3.617 3.68 2.125 0 4.149-1.84 4.149-4.505 0-2.48-1.61-4.402-3.614-4.402a3.52 3.52 0 0 0-2.644 1.137zm48.562 4.645c1.305-.66 2.625-1.653 2.625-3.242 0-1.88-1.816-2.973-3.488-2.973-1.883 0-3.535 1.363-3.535 3.242 0 .516.125 1.406.929 2.188.207.207 1.075.828 1.633 1.218-.929.477-3.101 1.614-3.101 3.887 0 2.125 2.027 3.45 4.031 3.45 2.211 0 4.07-1.59 4.07-3.7 0-1.879-1.261-2.746-2.086-3.305zm-2.703-1.817c-.168-.101-.992-.742-.992-1.715 0-1.261 1.301-2.21 2.789-2.21 1.633 0 2.828 1.156 2.828 2.5 0 1.921-2.148 3.015-2.25 3.015-.023 0-.043 0-.207-.12zm3.801 4.235c.308.226 1.301.91 1.301 2.172 0 1.527-1.532 2.683-3.262 2.683-1.883 0-3.309-1.344-3.309-2.976 0-1.63 1.262-2.997 2.688-3.633zm45.625-8.344c0-.438-.02-.457-.391-.457l-6.136 9.773v.535h5.328v2.024c0 .746-.039.953-1.485.953h-.394v.535c.66-.039 1.777-.039 2.48-.039s1.817 0 2.477.04v-.536h-.391c-1.445 0-1.488-.207-1.488-.953v-2.023h2.109v-.536h-2.109zm-1.137 1.363v7.953h-4.976z"/></g></svg>