<svg xmlns="http://www.w3.org/2000/svg" width="868" height="46pt" viewBox="0 -46 651 46"><g id="page1"><path fill="none" stroke="#000" stroke-linecap="round" stroke-linejoin="round" d="M.5-.504h649.629M.5-44.746h649.629M.5-.504v-44.242M46.902-.504v-44.242M93.305-.504v-44.242M139.707-.504v-44.242M186.109-.504v-44.242M232.508-.504v-44.242M278.91-.504v-44.242M325.313-.504v-44.242M371.715-.504v-44.242M418.117-.504v-44.242M464.52-.504v-44.242M510.922-.504v-44.242M557.324-.504v-44.242M603.727-.504v-44.242M650.129-.504v-44.242"/><path d="M18.883-31.918c0-.55 0-.574-.477-.574-.574.648-1.77 1.531-4.23 1.531v.691c.55 0 1.742 0 3.058-.62v12.449c0 .863-.074 1.148-2.175 1.148h-.739v.691c.64-.046 2.961-.046 3.75-.046s3.082 0 3.727.046v-.691h-.742c-2.102 0-2.172-.285-2.172-1.148zm13.562 8.363c0 5.64-2.508 6.813-3.941 6.813-.574 0-1.84-.074-2.438-.91h.145c.164.05 1.023-.094 1.023-.98 0-.524-.355-.977-.976-.977s-1.004.406-1.004 1.027c0 1.48 1.195 2.484 3.273 2.484 2.989 0 5.88-3.18 5.88-8.363 0-6.43-2.676-8.031-4.782-8.031-2.625 0-4.945 2.199-4.945 5.351 0 3.157 2.222 5.309 4.613 5.309 1.77 0 2.676-1.293 3.152-2.512zm-3.058 1.242c-1.504 0-2.153-1.218-2.364-1.671-.382-.907-.382-2.055-.382-3.13 0-1.34 0-2.488.62-3.464.43-.649 1.075-1.34 2.364-1.34 1.363 0 2.055 1.195 2.297 1.746.476 1.168.476 3.2.476 3.559 0 2.008-.906 4.3-3.011 4.3m45.621-1.933c0-1.985-.121-3.918-.98-5.738-.981-1.98-2.704-2.508-3.872-2.508-1.387 0-3.086.695-3.969 2.676-.668 1.507-.906 2.988-.906 5.57 0 2.316.164 4.062 1.028 5.758.93 1.816 2.578 2.39 3.824 2.39 2.078 0 3.273-1.242 3.965-2.629.859-1.793.91-4.132.91-5.52m-4.875 7.668c-.766 0-2.32-.43-2.774-3.031-.265-1.438-.265-3.25-.265-4.926 0-1.957 0-3.727.383-5.137.406-1.601 1.625-2.344 2.656-2.344.906 0 2.293.551 2.746 2.606.308 1.363.308 3.25.308 4.875 0 1.601 0 3.418-.261 4.875-.453 2.629-1.957 3.082-2.793 3.082m41.551-15.339c0-.55 0-.574-.481-.574-.57.648-1.765 1.531-4.226 1.531v.691c.546 0 1.742 0 3.054-.62v12.449c0 .863-.07 1.148-2.172 1.148h-.742v.691c.645-.046 2.965-.046 3.754-.046.785 0 3.082 0 3.727.046v-.691h-.743c-2.101 0-2.171-.285-2.171-1.148zm13.445-.238c0-.453 0-.575-.336-.575-.191 0-.262 0-.453.286l-7.195 11.16v.695h6.285v2.176c0 .883-.047 1.121-1.793 1.121h-.477v.691c.551-.046 2.438-.046 3.106-.046.672 0 2.582 0 3.132.046v-.691h-.48c-1.719 0-1.789-.238-1.789-1.121v-2.176h2.41v-.695h-2.41zm-1.578 1.863v9.008h-5.809zm40.672 5.066c1.191-.644 2.937-1.746 2.937-3.75 0-2.082-2.008-3.515-4.207-3.515-2.363 0-4.226 1.746-4.226 3.922 0 .812.238 1.625.906 2.437.262.309.289.332 1.961 1.504-2.321 1.074-3.516 2.676-3.516 4.422 0 2.531 2.414 4.11 4.852 4.11 2.652 0 4.875-1.962 4.875-4.47 0-2.437-1.719-3.511-3.582-4.66m-3.25-2.152c-.313-.215-1.27-.836-1.27-2.004 0-1.555 1.625-2.535 3.227-2.535 1.722 0 3.25 1.242 3.25 2.965 0 1.457-1.051 2.625-2.438 3.39zm1.121 3.082 2.89 1.89c.625.407 1.723 1.15 1.723 2.606 0 1.817-1.84 3.059-3.754 3.059-2.031 0-3.773-1.485-3.773-3.465 0-1.863 1.359-3.371 2.914-4.09m52.758-7.144v-.547h-5.758c-2.895 0-2.942-.313-3.039-.766h-.524l-.742 4.777h.527c.071-.43.286-1.91.598-2.171.191-.145 1.984-.145 2.316-.145h5.067l-2.531 3.633c-.649.933-3.059 4.851-3.059 9.344 0 .261 0 1.218.981 1.218 1 0 1-.933 1-1.242v-1.195c0-3.563.574-6.332 1.699-7.934zm36.031-.477c0-.55 0-.574-.477-.574-.574.648-1.769 1.531-4.23 1.531v.691c.551 0 1.742 0 3.058-.62v12.449c0 .863-.074 1.148-2.175 1.148h-.739v.691c.645-.046 2.961-.046 3.75-.046s3.082 0 3.727.046v-.691h-.742c-2.102 0-2.172-.285-2.172-1.148zm11.937 6.691c1.196-.644 2.942-1.746 2.942-3.75 0-2.082-2.008-3.515-4.207-3.515-2.367 0-4.231 1.746-4.231 3.922 0 .812.239 1.625.91 2.437.262.309.286.332 1.957 1.504-2.316 1.074-3.511 2.676-3.511 4.422 0 2.531 2.414 4.11 4.851 4.11 2.653 0 4.875-1.962 4.875-4.47 0-2.437-1.718-3.511-3.586-4.66m-3.25-2.152c-.308-.215-1.265-.836-1.265-2.004 0-1.555 1.625-2.535 3.226-2.535 1.723 0 3.25 1.242 3.25 2.965 0 1.457-1.051 2.625-2.437 3.39zm1.125 3.082 2.891 1.89c.621.407 1.719 1.15 1.719 2.606 0 1.817-1.836 3.059-3.75 3.059-2.032 0-3.774-1.485-3.774-3.465 0-1.863 1.36-3.371 2.914-4.09m40-.883c-.406.024-.5.047-.5.266 0 .238.118.238.551.238h1.098c2.031 0 2.937 1.672 2.937 3.965 0 3.133-1.625 3.969-2.793 3.969-1.148 0-3.105-.551-3.8-2.13.765.122 1.457-.308 1.457-1.167 0-.695-.5-1.172-1.168-1.172-.575 0-1.196.332-1.196 1.242 0 2.125 2.125 3.871 4.778 3.871 2.843 0 4.949-2.175 4.949-4.59 0-2.195-1.77-3.918-4.063-4.324 2.078-.597 3.414-2.34 3.414-4.207 0-1.886-1.957-3.273-4.277-3.273-2.387 0-4.156 1.457-4.156 3.203 0 .957.738 1.148 1.097 1.148.504 0 1.079-.359 1.079-1.078 0-.765-.575-1.097-1.102-1.097-.145 0-.191 0-.262.023.907-1.625 3.153-1.625 3.274-1.625.789 0 2.34.36 2.34 2.7 0 .452-.071 1.792-.762 2.82-.719 1.05-1.531 1.125-2.176 1.148zm42.989-6.738c0-.55 0-.574-.481-.574-.57.648-1.765 1.531-4.226 1.531v.691c.546 0 1.742 0 3.054-.62v12.449c0 .863-.07 1.148-2.172 1.148h-.742v.691c.645-.046 2.965-.046 3.754-.046.785 0 3.082 0 3.727.046v-.691h-.743c-2.101 0-2.171-.285-2.171-1.148zm15.523 7.672c0-1.985-.121-3.918-.98-5.738-.981-1.98-2.704-2.508-3.872-2.508-1.386 0-3.082.695-3.968 2.676-.668 1.507-.907 2.988-.907 5.57 0 2.316.168 4.062 1.028 5.758.93 1.816 2.582 2.39 3.824 2.39 2.078 0 3.273-1.242 3.965-2.629.859-1.793.91-4.132.91-5.52m-4.875 7.668c-.766 0-2.32-.43-2.773-3.031-.262-1.438-.262-3.25-.262-4.926 0-1.957 0-3.727.383-5.137.406-1.601 1.625-2.344 2.652-2.344.906 0 2.293.551 2.746 2.606.313 1.363.313 3.25.313 4.875 0 1.601 0 3.418-.262 4.875-.457 2.629-1.961 3.082-2.797 3.082m45.473-7.667c0-1.985-.117-3.918-.977-5.738-.98-1.98-2.703-2.508-3.875-2.508-1.383 0-3.082.695-3.965 2.676-.668 1.507-.91 2.988-.91 5.57 0 2.316.168 4.062 1.031 5.758.93 1.816 2.579 2.39 3.821 2.39 2.078 0 3.273-1.242 3.968-2.629.86-1.793.907-4.132.907-5.52m-4.875 7.668c-.766 0-2.317-.43-2.77-3.031-.265-1.438-.265-3.25-.265-4.926 0-1.957 0-3.727.382-5.137.407-1.601 1.625-2.344 2.653-2.344.91 0 2.297.551 2.75 2.606.308 1.363.308 3.25.308 4.875 0 1.601 0 3.418-.261 4.875-.454 2.629-1.961 3.082-2.797 3.082m51.277-7.667c0-1.985-.121-3.918-.98-5.738-.981-1.98-2.704-2.508-3.872-2.508-1.386 0-3.082.695-3.968 2.676-.668 1.507-.907 2.988-.907 5.57 0 2.316.168 4.062 1.028 5.758.93 1.816 2.582 2.39 3.824 2.39 2.078 0 3.273-1.242 3.965-2.629.859-1.793.91-4.132.91-5.52m-4.875 7.668c-.766 0-2.32-.43-2.773-3.031-.262-1.438-.262-3.25-.262-4.926 0-1.957 0-3.727.383-5.137.406-1.601 1.625-2.344 2.652-2.344.906 0 2.293.551 2.746 2.606.313 1.363.313 3.25.313 4.875 0 1.601 0 3.418-.262 4.875-.457 2.629-1.961 3.082-2.797 3.082m51.273-7.667c0-1.985-.121-3.918-.976-5.738-.981-1.98-2.703-2.508-3.875-2.508-1.387 0-3.082.695-3.965 2.676-.672 1.507-.91 2.988-.91 5.57 0 2.316.168 4.062 1.027 5.758.934 1.816 2.582 2.39 3.824 2.39 2.079 0 3.274-1.242 3.965-2.629.864-1.793.91-4.132.91-5.52m-4.875 7.668c-.765 0-2.316-.43-2.769-3.031-.266-1.438-.266-3.25-.266-4.926 0-1.957 0-3.727.383-5.137.406-1.601 1.625-2.344 2.652-2.344.911 0 2.293.551 2.75 2.606.309 1.363.309 3.25.309 4.875 0 1.601 0 3.418-.262 4.875-.453 2.629-1.961 3.082-2.797 3.082m45.184-4.034h-.523c-.075.406-.262 1.718-.504 2.101-.168.215-1.528.215-2.246.215h-4.422c.648-.55 2.105-2.078 2.726-2.652 3.633-3.348 4.969-4.59 4.969-6.953 0-2.75-2.172-4.59-4.945-4.59s-4.399 2.367-4.399 4.422c0 1.218 1.051 1.218 1.125 1.218.5 0 1.121-.359 1.121-1.125 0-.668-.453-1.12-1.121-1.12-.215 0-.265 0-.336.023.454-1.625 1.746-2.723 3.297-2.723 2.032 0 3.274 1.695 3.274 3.895 0 2.03-1.168 3.8-2.532 5.328l-4.828 5.402v.57h8.723zm11.891-3.633c0-1.985-.117-3.918-.977-5.738-.98-1.98-2.703-2.508-3.875-2.508-1.383 0-3.082.695-3.965 2.676-.668 1.507-.91 2.988-.91 5.57 0 2.316.168 4.062 1.031 5.758.93 1.816 2.579 2.39 3.821 2.39 2.078 0 3.273-1.242 3.968-2.629.86-1.793.907-4.132.907-5.52m-4.875 7.668c-.762 0-2.317-.43-2.77-3.031-.265-1.438-.265-3.25-.265-4.926 0-1.957 0-3.727.382-5.137.407-1.601 1.625-2.344 2.653-2.344.91 0 2.297.551 2.75 2.606.308 1.363.308 3.25.308 4.875 0 1.601 0 3.418-.261 4.875-.454 2.629-1.961 3.082-2.797 3.082m35.754-15.339c0-.55 0-.574-.481-.574-.57.648-1.765 1.531-4.226 1.531v.691c.546 0 1.742 0 3.054-.62v12.449c0 .863-.07 1.148-2.172 1.148h-.742v.691c.645-.046 2.965-.046 3.754-.046.785 0 3.082 0 3.727.046v-.691h-.743c-2.101 0-2.171-.285-2.171-1.148zm16.168.477v-.547h-5.758c-2.895 0-2.942-.313-3.039-.766h-.524l-.738 4.777h.523c.071-.43.286-1.91.598-2.171.191-.145 1.984-.145 2.316-.145h5.067l-2.531 3.633c-.649.933-3.059 4.851-3.059 9.344 0 .261 0 1.218.981 1.218 1 0 1-.933 1-1.242v-1.195c0-3.563.574-6.332 1.699-7.934zm39.953 7.195c0-1.985-.117-3.918-.977-5.738-.98-1.98-2.703-2.508-3.875-2.508-1.383 0-3.082.695-3.965 2.676-.668 1.507-.91 2.988-.91 5.57 0 2.316.168 4.062 1.031 5.758.93 1.816 2.579 2.39 3.821 2.39 2.078 0 3.273-1.242 3.968-2.629.86-1.793.907-4.132.907-5.52m-4.875 7.668c-.762 0-2.317-.43-2.77-3.031-.265-1.438-.265-3.25-.265-4.926 0-1.957 0-3.727.382-5.137.407-1.601 1.625-2.344 2.653-2.344.91 0 2.297.551 2.75 2.606.308 1.363.308 3.25.308 4.875 0 1.601 0 3.418-.261 4.875-.454 2.629-1.961 3.082-2.797 3.082"/></g></svg>