<svg xmlns="http://www.w3.org/2000/svg" width="804" height="485pt" viewBox="0 -485 603 485"><g id="page1"><path fill="#ffd9b2" d="M10.004-8.945h5.953c1.633 0 3.2.648 4.355 1.804l4.895 4.899a2.553 2.553 0 0 0 3.61 0l4.894-4.899a6.16 6.16 0 0 1 4.355-1.804h129.547a2.55 2.55 0 0 0 2.551-2.551v-47.645a2.55 2.55 0 0 0-2.551-2.55H38.066a6.16 6.16 0 0 0-4.355 1.804l-4.895 4.895a2.553 2.553 0 0 1-3.609 0l-4.895-4.895a6.16 6.16 0 0 0-4.355-1.804H4.051a2.55 2.55 0 0 0-2.551 2.55v47.645c0 1.41 1.14 2.55 2.55 2.55z"/><path fill="none" stroke="#b25900" stroke-linecap="round" stroke-linejoin="round" stroke-width="3" d="M10.004-8.945h5.953c1.633 0 3.2.648 4.355 1.804l4.895 4.899a2.553 2.553 0 0 0 3.61 0l4.894-4.899a6.16 6.16 0 0 1 4.355-1.804h129.547a2.55 2.55 0 0 0 2.551-2.551v-47.645a2.55 2.55 0 0 0-2.551-2.55H38.066a6.16 6.16 0 0 0-4.355 1.804l-4.895 4.895a2.553 2.553 0 0 1-3.609 0l-4.895-4.895a6.16 6.16 0 0 0-4.355-1.804H4.051a2.55 2.55 0 0 0-2.551 2.55v47.645c0 1.41 1.14 2.55 2.55 2.55z"/><path fill="#ffd9b2" d="M10.004-64.637h5.953c1.633 0 3.2.649 4.355 1.805l4.895 4.895a2.553 2.553 0 0 0 3.61 0l4.894-4.895a6.16 6.16 0 0 1 4.355-1.805h129.547a2.55 2.55 0 0 0 2.551-2.55v-47.649a2.55 2.55 0 0 0-2.551-2.551H38.066a6.18 6.18 0 0 0-4.355 1.805l-4.895 4.898a2.554 2.554 0 0 1-3.609 0l-4.895-4.898a6.18 6.18 0 0 0-4.355-1.805H4.051a2.55 2.55 0 0 0-2.551 2.551v47.649a2.55 2.55 0 0 0 2.55 2.55z"/><path fill="none" stroke="#b25900" stroke-linecap="round" stroke-linejoin="round" stroke-width="3" d="M10.004-64.637h5.953c1.633 0 3.2.649 4.355 1.805l4.895 4.895a2.553 2.553 0 0 0 3.61 0l4.894-4.895a6.16 6.16 0 0 1 4.355-1.805h129.547a2.55 2.55 0 0 0 2.551-2.55v-47.649a2.55 2.55 0 0 0-2.551-2.551H38.066a6.18 6.18 0 0 0-4.355 1.805l-4.895 4.898a2.554 2.554 0 0 1-3.609 0l-4.895-4.898a6.18 6.18 0 0 0-4.355-1.805H4.051a2.55 2.55 0 0 0-2.551 2.551v47.649a2.55 2.55 0 0 0 2.55 2.55z"/><path fill="#ffd9b2" d="M10.004-120.328h5.953c1.633 0 3.2.648 4.355 1.801l4.895 4.894c.996 1 2.613 1 3.61 0l4.894-4.894a6.17 6.17 0 0 1 4.355-1.801h129.547a2.553 2.553 0 0 0 2.551-2.555v-47.644a2.55 2.55 0 0 0-2.551-2.551H38.066a6.16 6.16 0 0 0-4.355 1.805l-4.895 4.894a2.554 2.554 0 0 1-3.609 0l-4.895-4.894a6.16 6.16 0 0 0-4.355-1.805H4.051a2.55 2.55 0 0 0-2.551 2.551v47.644c0 1.41 1.14 2.555 2.55 2.555z"/><path fill="none" stroke="#b25900" stroke-linecap="round" stroke-linejoin="round" stroke-width="3" d="M10.004-120.328h5.953c1.633 0 3.2.648 4.355 1.801l4.895 4.894c.996 1 2.613 1 3.61 0l4.894-4.894a6.17 6.17 0 0 1 4.355-1.801h129.547a2.553 2.553 0 0 0 2.551-2.555v-47.644a2.55 2.55 0 0 0-2.551-2.551H38.066a6.16 6.16 0 0 0-4.355 1.805l-4.895 4.894a2.554 2.554 0 0 1-3.609 0l-4.895-4.894a6.16 6.16 0 0 0-4.355-1.805H4.051a2.55 2.55 0 0 0-2.551 2.551v47.644c0 1.41 1.14 2.555 2.55 2.555z"/><path fill="#ffb2ff" d="M10.004-176.023h5.953c1.633 0 3.2.648 4.355 1.804l4.895 4.895a2.554 2.554 0 0 0 3.61 0l4.894-4.895a6.16 6.16 0 0 1 4.355-1.804h129.547a2.55 2.55 0 0 0 2.551-2.551v-117.403a2.55 2.55 0 0 0-2.551-2.55H38.066a6.16 6.16 0 0 0-4.355 1.804l-4.895 4.899a2.554 2.554 0 0 1-3.609 0l-4.895-4.899a6.16 6.16 0 0 0-4.355-1.804H4.051a2.55 2.55 0 0 0-2.551 2.55v117.403a2.55 2.55 0 0 0 2.55 2.551z"/><path fill="none" stroke="#b200b2" stroke-linecap="round" stroke-linejoin="round" stroke-width="3" d="M10.004-176.023h5.953c1.633 0 3.2.648 4.355 1.804l4.895 4.895a2.554 2.554 0 0 0 3.61 0l4.894-4.895a6.16 6.16 0 0 1 4.355-1.804h129.547a2.55 2.55 0 0 0 2.551-2.551v-117.403a2.55 2.55 0 0 0-2.551-2.55H38.066a6.16 6.16 0 0 0-4.355 1.804l-4.895 4.899a2.554 2.554 0 0 1-3.609 0l-4.895-4.899a6.16 6.16 0 0 0-4.355-1.804H4.051a2.55 2.55 0 0 0-2.551 2.55v117.403a2.55 2.55 0 0 0 2.55 2.551z"/><path fill="#ffd9b2" d="M35.516-193.031h5.953c1.633 0 3.199.648 4.355 1.804l4.895 4.895a2.553 2.553 0 0 0 3.61 0l4.894-4.895a6.16 6.16 0 0 1 4.355-1.804h112.539a2.55 2.55 0 0 0 2.551-2.551v-47.645c0-1.41-1.141-2.55-2.551-2.55H63.578c-1.633 0-3.2.648-4.355 1.8l-4.895 4.899a2.553 2.553 0 0 1-3.61 0l-4.894-4.899a6.17 6.17 0 0 0-4.355-1.8H29.562c-1.41 0-2.55 1.14-2.55 2.55v47.645a2.55 2.55 0 0 0 2.55 2.551z"/><path fill="none" stroke="#b25900" stroke-linecap="round" stroke-linejoin="round" stroke-width="3" d="M35.516-193.031h5.953c1.633 0 3.199.648 4.355 1.804l4.895 4.895a2.553 2.553 0 0 0 3.61 0l4.894-4.895a6.16 6.16 0 0 1 4.355-1.804h112.539a2.55 2.55 0 0 0 2.551-2.551v-47.645c0-1.41-1.141-2.55-2.551-2.55H63.578c-1.633 0-3.2.648-4.355 1.8l-4.895 4.899a2.553 2.553 0 0 1-3.61 0l-4.894-4.899a6.17 6.17 0 0 0-4.355-1.8H29.562c-1.41 0-2.55 1.14-2.55 2.55v47.645a2.55 2.55 0 0 0 2.55 2.551z"/><path fill="#ffd9b2" d="M10.004-301.473h5.953c1.633 0 3.2.649 4.355 1.805l4.895 4.895a2.554 2.554 0 0 0 3.61 0l4.894-4.895a6.16 6.16 0 0 1 4.355-1.805h129.547c1.41 0 2.551-1.14 2.551-2.55v-47.645a2.55 2.55 0 0 0-2.551-2.551H38.066a6.16 6.16 0 0 0-4.355 1.805l-4.895 4.894a2.55 2.55 0 0 1-3.609 0l-4.895-4.894a6.16 6.16 0 0 0-4.355-1.805H4.051a2.55 2.55 0 0 0-2.551 2.551v47.645c0 1.41 1.14 2.55 2.55 2.55z"/><path fill="none" stroke="#b25900" stroke-linecap="round" stroke-linejoin="round" stroke-width="3" d="M10.004-301.473h5.953c1.633 0 3.2.649 4.355 1.805l4.895 4.895a2.554 2.554 0 0 0 3.61 0l4.894-4.895a6.16 6.16 0 0 1 4.355-1.805h129.547c1.41 0 2.551-1.14 2.551-2.55v-47.645a2.55 2.55 0 0 0-2.551-2.551H38.066a6.16 6.16 0 0 0-4.355 1.805l-4.895 4.894a2.55 2.55 0 0 1-3.609 0l-4.895-4.894a6.16 6.16 0 0 0-4.355-1.805H4.051a2.55 2.55 0 0 0-2.551 2.551v47.645c0 1.41 1.14 2.55 2.55 2.55z"/><path fill="#ffd9b2" d="M10.004-357.164h5.953c1.633 0 3.2.648 4.355 1.805l4.895 4.894a2.554 2.554 0 0 0 3.61 0l4.894-4.894a6.16 6.16 0 0 1 4.355-1.805h129.547a2.55 2.55 0 0 0 2.551-2.551v-47.644a2.55 2.55 0 0 0-2.551-2.551H38.066a6.17 6.17 0 0 0-4.355 1.801l-4.895 4.898a2.554 2.554 0 0 1-3.609 0l-4.895-4.898a6.17 6.17 0 0 0-4.355-1.801H4.051a2.55 2.55 0 0 0-2.551 2.551v47.644a2.55 2.55 0 0 0 2.55 2.551z"/><path fill="none" stroke="#b25900" stroke-linecap="round" stroke-linejoin="round" stroke-width="3" d="M10.004-357.164h5.953c1.633 0 3.2.648 4.355 1.805l4.895 4.894a2.554 2.554 0 0 0 3.61 0l4.894-4.894a6.16 6.16 0 0 1 4.355-1.805h129.547a2.55 2.55 0 0 0 2.551-2.551v-47.644a2.55 2.55 0 0 0-2.551-2.551H38.066a6.17 6.17 0 0 0-4.355 1.801l-4.895 4.898a2.554 2.554 0 0 1-3.609 0l-4.895-4.898a6.17 6.17 0 0 0-4.355-1.801H4.051a2.55 2.55 0 0 0-2.551 2.551v47.644a2.55 2.55 0 0 0 2.55 2.551z"/><path fill="#b2ffff" d="M1.5-412.859h14.457c1.633 0 3.2.648 4.355 1.804l4.895 4.899a2.554 2.554 0 0 0 3.61 0l4.894-4.899a6.16 6.16 0 0 1 4.355-1.804h132.098v-52.746a217.55 217.55 0 0 0-84.332-17.008c-28.96 0-57.633 5.781-84.332 17.008z"/><path fill="none" stroke="#00b2b2" stroke-linecap="round" stroke-linejoin="round" stroke-width="3" d="M1.5-412.859h14.457c1.633 0 3.2.648 4.355 1.804l4.895 4.899a2.554 2.554 0 0 0 3.61 0l4.894-4.899a6.16 6.16 0 0 1 4.355-1.804h132.098v-52.746a217.55 217.55 0 0 0-84.332-17.008c-28.96 0-57.633 5.781-84.332 17.008z"/><path fill="#ffd9b2" d="M221.188-63.137h5.953a6.16 6.16 0 0 1 4.355 1.805l4.895 4.895a2.553 2.553 0 0 0 3.609 0l4.895-4.895a6.16 6.16 0 0 1 4.355-1.805h129.547a2.55 2.55 0 0 0 2.551-2.55v-47.649a2.55 2.55 0 0 0-2.551-2.551H249.25a6.18 6.18 0 0 0-4.355 1.805L240-109.184a2.553 2.553 0 0 1-3.609 0l-4.895-4.898a6.18 6.18 0 0 0-4.355-1.805h-11.907a2.55 2.55 0 0 0-2.55 2.551v47.649a2.55 2.55 0 0 0 2.55 2.55z"/><path fill="none" stroke="#b25900" stroke-linecap="round" stroke-linejoin="round" stroke-width="3" d="M221.188-63.137h5.953a6.16 6.16 0 0 1 4.355 1.805l4.895 4.895a2.553 2.553 0 0 0 3.609 0l4.895-4.895a6.16 6.16 0 0 1 4.355-1.805h129.547a2.55 2.55 0 0 0 2.551-2.55v-47.649a2.55 2.55 0 0 0-2.551-2.551H249.25a6.18 6.18 0 0 0-4.355 1.805L240-109.184a2.553 2.553 0 0 1-3.609 0l-4.895-4.898a6.18 6.18 0 0 0-4.355-1.805h-11.907a2.55 2.55 0 0 0-2.55 2.551v47.649a2.55 2.55 0 0 0 2.55 2.55z"/><path fill="#ffb2ff" d="M221.188-118.828h5.953c1.632 0 3.199.648 4.355 1.801l4.895 4.894c.996 1 2.613 1 3.609 0l4.895-4.894a6.17 6.17 0 0 1 4.355-1.801h129.547a2.553 2.553 0 0 0 2.551-2.555v-171.594a2.55 2.55 0 0 0-2.551-2.55H249.25a6.16 6.16 0 0 0-4.355 1.804L240-288.824a2.553 2.553 0 0 1-3.609 0l-4.895-4.899a6.16 6.16 0 0 0-4.355-1.804h-11.907a2.55 2.55 0 0 0-2.55 2.55v171.594c0 1.41 1.14 2.555 2.55 2.555z"/><path fill="none" stroke="#b200b2" stroke-linecap="round" stroke-linejoin="round" stroke-width="3" d="M221.188-118.828h5.953c1.632 0 3.199.648 4.355 1.801l4.895 4.894c.996 1 2.613 1 3.609 0l4.895-4.894a6.17 6.17 0 0 1 4.355-1.801h129.547a2.553 2.553 0 0 0 2.551-2.555v-171.594a2.55 2.55 0 0 0-2.551-2.55H249.25a6.16 6.16 0 0 0-4.355 1.804L240-288.824a2.553 2.553 0 0 1-3.609 0l-4.895-4.899a6.16 6.16 0 0 0-4.355-1.804h-11.907a2.55 2.55 0 0 0-2.55 2.55v171.594c0 1.41 1.14 2.555 2.55 2.555z"/><path fill="#ffd9b2" d="M246.699-135.84h5.953c1.633 0 3.2.652 4.356 1.805l4.894 4.898a2.554 2.554 0 0 0 3.61 0l4.894-4.898a6.18 6.18 0 0 1 4.356-1.805h112.539c1.41 0 2.551-1.14 2.551-2.551v-47.644a2.55 2.55 0 0 0-2.551-2.551H274.762a6.16 6.16 0 0 0-4.356 1.805l-4.894 4.894a2.554 2.554 0 0 1-3.61 0l-4.894-4.894a6.16 6.16 0 0 0-4.356-1.805h-11.906a2.555 2.555 0 0 0-2.551 2.551v47.644a2.55 2.55 0 0 0 2.551 2.551z"/><path fill="none" stroke="#b25900" stroke-linecap="round" stroke-linejoin="round" stroke-width="3" d="M246.699-135.84h5.953c1.633 0 3.2.652 4.356 1.805l4.894 4.898a2.554 2.554 0 0 0 3.61 0l4.894-4.898a6.18 6.18 0 0 1 4.356-1.805h112.539c1.41 0 2.551-1.14 2.551-2.551v-47.644a2.55 2.55 0 0 0-2.551-2.551H274.762a6.16 6.16 0 0 0-4.356 1.805l-4.894 4.894a2.554 2.554 0 0 1-3.61 0l-4.894-4.894a6.16 6.16 0 0 0-4.356-1.805h-11.906a2.555 2.555 0 0 0-2.551 2.551v47.644a2.55 2.55 0 0 0 2.551 2.551z"/><path fill="#ffd9b2" d="M246.699-191.531h5.953c1.633 0 3.2.648 4.356 1.804l4.894 4.895a2.554 2.554 0 0 0 3.61 0l4.894-4.895a6.16 6.16 0 0 1 4.356-1.804h112.539a2.55 2.55 0 0 0 2.551-2.551v-47.645c0-1.41-1.141-2.55-2.551-2.55H274.762a6.17 6.17 0 0 0-4.356 1.8l-4.894 4.899a2.554 2.554 0 0 1-3.61 0l-4.894-4.899a6.17 6.17 0 0 0-4.356-1.8h-11.906a2.55 2.55 0 0 0-2.551 2.55v47.645a2.555 2.555 0 0 0 2.551 2.551z"/><path fill="none" stroke="#b25900" stroke-linecap="round" stroke-linejoin="round" stroke-width="3" d="M246.699-191.531h5.953c1.633 0 3.2.648 4.356 1.804l4.894 4.895a2.554 2.554 0 0 0 3.61 0l4.894-4.895a6.16 6.16 0 0 1 4.356-1.804h112.539a2.55 2.55 0 0 0 2.551-2.551v-47.645c0-1.41-1.141-2.55-2.551-2.55H274.762a6.17 6.17 0 0 0-4.356 1.8l-4.894 4.899a2.554 2.554 0 0 1-3.61 0l-4.894-4.899a6.17 6.17 0 0 0-4.356-1.8h-11.906a2.55 2.55 0 0 0-2.551 2.55v47.645a2.555 2.555 0 0 0 2.551 2.551z"/><path fill="#ffd9b2" d="M221.188-298.473h5.953a6.16 6.16 0 0 1 4.355 1.805l4.895 4.895a2.553 2.553 0 0 0 3.609 0l4.895-4.895a6.16 6.16 0 0 1 4.355-1.805h129.547c1.41 0 2.551-1.14 2.551-2.55v-47.645a2.55 2.55 0 0 0-2.551-2.551H249.25a6.16 6.16 0 0 0-4.355 1.805L240-344.52a2.55 2.55 0 0 1-3.609 0l-4.895-4.894a6.16 6.16 0 0 0-4.355-1.805h-11.907a2.55 2.55 0 0 0-2.55 2.551v47.645c0 1.41 1.14 2.55 2.55 2.55z"/><path fill="none" stroke="#b25900" stroke-linecap="round" stroke-linejoin="round" stroke-width="3" d="M221.188-298.473h5.953a6.16 6.16 0 0 1 4.355 1.805l4.895 4.895a2.553 2.553 0 0 0 3.609 0l4.895-4.895a6.16 6.16 0 0 1 4.355-1.805h129.547c1.41 0 2.551-1.14 2.551-2.55v-47.645a2.55 2.55 0 0 0-2.551-2.551H249.25a6.16 6.16 0 0 0-4.355 1.805L240-344.52a2.55 2.55 0 0 1-3.609 0l-4.895-4.894a6.16 6.16 0 0 0-4.355-1.805h-11.907a2.55 2.55 0 0 0-2.55 2.551v47.645c0 1.41 1.14 2.55 2.55 2.55z"/><path fill="#b2ffff" d="M212.684-354.164h14.457c1.632 0 3.199.648 4.355 1.805l4.895 4.894a2.553 2.553 0 0 0 3.609 0l4.895-4.894a6.15 6.15 0 0 1 4.355-1.805h132.098v-52.746a217.6 217.6 0 0 0-84.332-17.012 217.6 217.6 0 0 0-84.332 17.012z"/><path fill="none" stroke="#00b2b2" stroke-linecap="round" stroke-linejoin="round" stroke-width="3" d="M212.684-354.164h14.457c1.632 0 3.199.648 4.355 1.805l4.895 4.894a2.553 2.553 0 0 0 3.609 0l4.895-4.894a6.15 6.15 0 0 1 4.355-1.805h132.098v-52.746a217.6 217.6 0 0 0-84.332-17.012 217.6 217.6 0 0 0-84.332 17.012z"/><path fill="#ffd9b2" d="M432.371-63.137h5.953a6.16 6.16 0 0 1 4.356 1.805l4.894 4.895a2.554 2.554 0 0 0 3.61 0l4.894-4.895a6.16 6.16 0 0 1 4.356-1.805H589.98a2.55 2.55 0 0 0 2.551-2.55v-47.649a2.55 2.55 0 0 0-2.551-2.551H460.434c-1.633 0-3.2.653-4.356 1.805l-4.894 4.898a2.554 2.554 0 0 1-3.61 0l-4.894-4.898a6.18 6.18 0 0 0-4.356-1.805h-11.906a2.555 2.555 0 0 0-2.551 2.551v47.649a2.554 2.554 0 0 0 2.551 2.55z"/><path fill="none" stroke="#b25900" stroke-linecap="round" stroke-linejoin="round" stroke-width="3" d="M432.371-63.137h5.953a6.16 6.16 0 0 1 4.356 1.805l4.894 4.895a2.554 2.554 0 0 0 3.61 0l4.894-4.895a6.16 6.16 0 0 1 4.356-1.805H589.98a2.55 2.55 0 0 0 2.551-2.55v-47.649a2.55 2.55 0 0 0-2.551-2.551H460.434c-1.633 0-3.2.653-4.356 1.805l-4.894 4.898a2.554 2.554 0 0 1-3.61 0l-4.894-4.898a6.18 6.18 0 0 0-4.356-1.805h-11.906a2.555 2.555 0 0 0-2.551 2.551v47.649a2.554 2.554 0 0 0 2.551 2.55z"/><path fill="#ffb2ff" d="M432.371-118.828h5.953c1.633 0 3.199.648 4.356 1.801l4.894 4.894c.996 1 2.614 1 3.61 0l4.894-4.894a6.17 6.17 0 0 1 4.356-1.801H589.98a2.55 2.55 0 0 0 2.551-2.555v-225.785c0-1.41-1.14-2.551-2.551-2.551H460.434a6.16 6.16 0 0 0-4.356 1.805l-4.894 4.894a2.55 2.55 0 0 1-3.61 0l-4.894-4.894a6.16 6.16 0 0 0-4.356-1.805h-11.906a2.55 2.55 0 0 0-2.551 2.551v225.785a2.556 2.556 0 0 0 2.551 2.555z"/><path fill="none" stroke="#b200b2" stroke-linecap="round" stroke-linejoin="round" stroke-width="3" d="M432.371-118.828h5.953c1.633 0 3.199.648 4.356 1.801l4.894 4.894c.996 1 2.614 1 3.61 0l4.894-4.894a6.17 6.17 0 0 1 4.356-1.801H589.98a2.55 2.55 0 0 0 2.551-2.555v-225.785c0-1.41-1.14-2.551-2.551-2.551H460.434a6.16 6.16 0 0 0-4.356 1.805l-4.894 4.894a2.55 2.55 0 0 1-3.61 0l-4.894-4.894a6.16 6.16 0 0 0-4.356-1.805h-11.906a2.55 2.55 0 0 0-2.551 2.551v225.785a2.556 2.556 0 0 0 2.551 2.555z"/><path fill="#ffd9b2" d="M457.883-135.84h5.953a6.17 6.17 0 0 1 4.355 1.805l4.899 4.898a2.55 2.55 0 0 0 3.605 0l4.899-4.898a6.16 6.16 0 0 1 4.351-1.805h112.539a2.55 2.55 0 0 0 2.551-2.551v-47.644a2.55 2.55 0 0 0-2.551-2.551H485.945a6.14 6.14 0 0 0-4.351 1.805l-4.899 4.894a2.55 2.55 0 0 1-3.605 0l-4.899-4.894a6.15 6.15 0 0 0-4.355-1.805H451.93a2.554 2.554 0 0 0-2.551 2.551v47.644a2.55 2.55 0 0 0 2.551 2.551z"/><path fill="none" stroke="#b25900" stroke-linecap="round" stroke-linejoin="round" stroke-width="3" d="M457.883-135.84h5.953a6.17 6.17 0 0 1 4.355 1.805l4.899 4.898a2.55 2.55 0 0 0 3.605 0l4.899-4.898a6.16 6.16 0 0 1 4.351-1.805h112.539a2.55 2.55 0 0 0 2.551-2.551v-47.644a2.55 2.55 0 0 0-2.551-2.551H485.945a6.14 6.14 0 0 0-4.351 1.805l-4.899 4.894a2.55 2.55 0 0 1-3.605 0l-4.899-4.894a6.15 6.15 0 0 0-4.355-1.805H451.93a2.554 2.554 0 0 0-2.551 2.551v47.644a2.55 2.55 0 0 0 2.551 2.551z"/><path fill="#ffd9b2" d="M457.883-191.531h5.953c1.633 0 3.199.648 4.355 1.804l4.899 4.895a2.55 2.55 0 0 0 3.605 0l4.899-4.895a6.14 6.14 0 0 1 4.351-1.804h112.539a2.55 2.55 0 0 0 2.551-2.551v-47.645c0-1.41-1.14-2.55-2.551-2.55H485.945a6.16 6.16 0 0 0-4.351 1.8l-4.899 4.899a2.55 2.55 0 0 1-3.605 0l-4.899-4.899a6.17 6.17 0 0 0-4.355-1.8H451.93a2.55 2.55 0 0 0-2.551 2.55v47.645a2.554 2.554 0 0 0 2.551 2.551z"/><path fill="none" stroke="#b25900" stroke-linecap="round" stroke-linejoin="round" stroke-width="3" d="M457.883-191.531h5.953c1.633 0 3.199.648 4.355 1.804l4.899 4.895a2.55 2.55 0 0 0 3.605 0l4.899-4.895a6.14 6.14 0 0 1 4.351-1.804h112.539a2.55 2.55 0 0 0 2.551-2.551v-47.645c0-1.41-1.14-2.55-2.551-2.55H485.945a6.16 6.16 0 0 0-4.351 1.8l-4.899 4.899a2.55 2.55 0 0 1-3.605 0l-4.899-4.899a6.17 6.17 0 0 0-4.355-1.8H451.93a2.55 2.55 0 0 0-2.551 2.55v47.645a2.554 2.554 0 0 0 2.551 2.551z"/><path fill="#ffd9b2" d="M457.883-247.223h5.953c1.633 0 3.199.649 4.355 1.801l4.899 4.899a2.55 2.55 0 0 0 3.605 0l4.899-4.899a6.16 6.16 0 0 1 4.351-1.801h112.539a2.55 2.55 0 0 0 2.551-2.554v-47.645a2.55 2.55 0 0 0-2.551-2.551H485.945a6.14 6.14 0 0 0-4.351 1.805l-4.899 4.895a2.55 2.55 0 0 1-3.605 0l-4.899-4.895a6.16 6.16 0 0 0-4.355-1.805H451.93a2.554 2.554 0 0 0-2.551 2.551v47.645a2.554 2.554 0 0 0 2.551 2.554z"/><path fill="none" stroke="#b25900" stroke-linecap="round" stroke-linejoin="round" stroke-width="3" d="M457.883-247.223h5.953c1.633 0 3.199.649 4.355 1.801l4.899 4.899a2.55 2.55 0 0 0 3.605 0l4.899-4.899a6.16 6.16 0 0 1 4.351-1.801h112.539a2.55 2.55 0 0 0 2.551-2.554v-47.645a2.55 2.55 0 0 0-2.551-2.551H485.945a6.14 6.14 0 0 0-4.351 1.805l-4.899 4.895a2.55 2.55 0 0 1-3.605 0l-4.899-4.895a6.16 6.16 0 0 0-4.355-1.805H451.93a2.554 2.554 0 0 0-2.551 2.551v47.645a2.554 2.554 0 0 0 2.551 2.554z"/><path fill="#b2ffff" d="M423.867-352.664h14.457c1.633 0 3.199.648 4.356 1.805l4.894 4.894a2.554 2.554 0 0 0 3.61 0l4.894-4.894a6.16 6.16 0 0 1 4.356-1.805h132.097v-52.746a217.54 217.54 0 0 0-168.664 0z"/><path fill="none" stroke="#00b2b2" stroke-linecap="round" stroke-linejoin="round" stroke-width="3" d="M423.867-352.664h14.457c1.633 0 3.199.648 4.356 1.805l4.894 4.894a2.554 2.554 0 0 0 3.61 0l4.894-4.894a6.16 6.16 0 0 1 4.356-1.805h132.097v-52.746a217.54 217.54 0 0 0-168.664 0z"/><path d="M30.133-35.105c0-2.223 0-2.895-.547-3.657-.695-.933-1.816-1.078-2.629-1.078-1.984 0-2.988 1.434-3.371 2.367-.336-1.84-1.625-2.367-3.129-2.367-2.32 0-3.227 1.985-3.418 2.465h-.023v-2.465l-3.25.266v.691c1.625 0 1.816.168 1.816 1.34v6.473c0 1.078-.262 1.078-1.816 1.078v.691c.62-.047 1.91-.047 2.578-.047.695 0 1.984 0 2.605.047v-.691c-1.527 0-1.816 0-1.816-1.078v-4.442c0-2.511 1.648-3.847 3.133-3.847 1.48 0 1.816 1.218 1.816 2.675v5.614c0 1.078-.266 1.078-1.816 1.078v.691c.62-.047 1.91-.047 2.578-.047.695 0 1.984 0 2.605.047v-.691c-1.527 0-1.816 0-1.816-1.078v-4.442c0-2.511 1.648-3.847 3.133-3.847 1.48 0 1.816 1.218 1.816 2.675v5.614c0 1.078-.266 1.078-1.816 1.078v.691c.62-.047 1.91-.047 2.578-.047.695 0 1.984 0 2.605.047v-.691c-1.195 0-1.793 0-1.816-.719zm11.59-.575c0-1.289 0-2.246-1.051-3.18-.836-.765-1.91-1.097-2.961-1.097-1.961 0-3.469 1.289-3.469 2.844 0 .691.457 1.027 1.008 1.027.57 0 .977-.406.977-.98 0-.98-.86-.98-1.22-.98.552-1.005 1.7-1.434 2.653-1.434 1.102 0 2.512.91 2.512 3.058v.957c-4.805.07-6.621 2.078-6.621 3.918 0 1.89 2.199 2.485 3.656 2.485 1.578 0 2.652-.954 3.105-2.102.098 1.125.836 1.984 1.868 1.984.5 0 1.886-.336 1.886-2.246v-1.34h-.527v1.34c0 1.363-.57 1.551-.906 1.551-.91 0-.91-1.266-.91-1.625zm-1.551 3.012c0 2.34-1.746 3.129-2.774 3.129-1.171 0-2.148-.86-2.148-2.008 0-3.152 4.063-3.441 4.922-3.488zm14.664-2.437c0-2.223 0-2.895-.55-3.657-.696-.933-1.817-1.078-2.63-1.078-2.32 0-3.226 1.985-3.418 2.465h-.023v-2.465l-3.25.266v.691c1.625 0 1.816.168 1.816 1.34v6.473c0 1.078-.261 1.078-1.816 1.078v.691c.62-.047 1.91-.047 2.582-.047.691 0 1.984 0 2.601.047v-.691c-1.527 0-1.812 0-1.812-1.078v-4.442c0-2.511 1.648-3.847 3.129-3.847 1.48 0 1.816 1.218 1.816 2.675v5.614c0 1.078-.265 1.078-1.816 1.078v.691c.62-.047 1.91-.047 2.582-.047.691 0 1.98 0 2.601.047v-.691c-1.195 0-1.789 0-1.812-.719zm5.207 1.48c1.125.742 2.082.742 2.344.742 2.148 0 3.75-1.625 3.75-3.469a3.25 3.25 0 0 0-.957-2.316c.933-.957 2.054-.957 2.175-.957.098 0 .215 0 .313.05-.238.095-.36.333-.36.598 0 .332.239.621.622.621.191 0 .62-.12.62-.644 0-.434-.335-1.102-1.171-1.102-1.242 0-2.176.766-2.508 1.125-.715-.55-1.555-.863-2.46-.863-2.153 0-3.755 1.625-3.755 3.465 0 1.363.836 2.25 1.078 2.46-.289.36-.718 1.056-.718 1.985 0 1.387.836 1.985 1.027 2.106-1.098.308-2.2 1.168-2.2 2.41 0 1.648 2.25 3.012 5.188 3.012 2.844 0 5.211-1.266 5.211-3.059 0-.598-.168-2.008-1.601-2.746-1.22-.621-2.414-.621-4.47-.621-1.46 0-1.624 0-2.054-.453-.242-.242-.457-.696-.457-1.196 0-.406.145-.812.383-1.148m2.367.238c-2.105 0-2.105-2.414-2.105-2.965 0-.43 0-1.406.406-2.054a2.05 2.05 0 0 1 1.676-.93c2.101 0 2.101 2.414 2.101 2.961 0 .43 0 1.41-.406 2.055a2.04 2.04 0 0 1-1.672.933m.645 8.485c-2.293 0-4.04-1.172-4.04-2.535 0-.188.047-1.122.958-1.743.527-.336.738-.336 2.414-.336 1.98 0 4.683 0 4.683 2.078 0 1.41-1.816 2.536-4.015 2.536M73.059-44.02c0-.62-.504-1.171-1.172-1.171-.621 0-1.145.504-1.145 1.148 0 .715.57 1.168 1.145 1.168.742 0 1.172-.621 1.172-1.145m-3.297 4.446v.691c1.527 0 1.742.145 1.742 1.313v6.5c0 1.078-.262 1.078-1.817 1.078v.691c.672-.047 1.817-.047 2.512-.047.262 0 1.649 0 2.461.047v-.691c-1.554 0-1.648-.121-1.648-1.051v-8.797zm14.863 3.894c0-1.289 0-2.246-1.05-3.18-.84-.765-1.915-1.097-2.966-1.097-1.96 0-3.465 1.289-3.465 2.844 0 .691.454 1.027 1.004 1.027.575 0 .98-.406.98-.98 0-.98-.862-.98-1.218-.98.55-1.005 1.696-1.434 2.653-1.434 1.097 0 2.507.91 2.507 3.058v.957c-4.804.07-6.617 2.078-6.617 3.918 0 1.89 2.195 2.485 3.656 2.485 1.575 0 2.653-.954 3.106-2.102.094 1.125.836 1.984 1.863 1.984.5 0 1.887-.336 1.887-2.246v-1.34h-.524v1.34c0 1.363-.574 1.551-.91 1.551-.906 0-.906-1.266-.906-1.625zm-1.555 3.012c0 2.34-1.742 3.129-2.773 3.129-1.168 0-2.149-.86-2.149-2.008 0-3.152 4.063-3.441 4.922-3.488zm20.481-5.472c-.285 0-1.172 0-1.172.976 0 .574.406.98.98.98.551 0 1.004-.332 1.004-1.027 0-1.602-1.672-2.746-3.609-2.746-2.793 0-5.02 2.484-5.02 5.496 0 3.059 2.297 5.398 4.996 5.398 3.157 0 3.872-2.867 3.872-3.082s-.168-.214-.239-.214c-.215 0-.242.07-.308.359-.528 1.695-1.821 2.414-3.11 2.414-1.457 0-3.39-1.266-3.39-4.898 0-3.97 2.03-4.95 3.222-4.95.911 0 2.227.36 2.774 1.293m10.972 2.461c0-1.289 0-2.246-1.05-3.18-.836-.765-1.91-1.097-2.965-1.097-1.957 0-3.465 1.289-3.465 2.844 0 .691.453 1.027 1.004 1.027.574 0 .98-.406.98-.98 0-.98-.859-.98-1.218-.98.55-1.005 1.699-1.434 2.652-1.434 1.102 0 2.508.91 2.508 3.058v.957c-4.801.07-6.617 2.078-6.617 3.918 0 1.89 2.199 2.485 3.656 2.485 1.578 0 2.652-.954 3.105-2.102.098 1.125.836 1.984 1.864 1.984.503 0 1.89-.336 1.89-2.246v-1.34h-.527v1.34c0 1.363-.574 1.551-.906 1.551-.911 0-.911-1.266-.911-1.625zm-1.554 3.012c0 2.34-1.742 3.129-2.77 3.129-1.172 0-2.152-.86-2.152-2.008 0-3.152 4.062-3.441 4.922-3.488zm8.023-2.199c0-2.32.953-4.492 2.793-4.492.192 0 .238 0 .336.023-.191.094-.574.238-.574.883 0 .695.551.957.933.957.477 0 .958-.313.958-.957 0-.715-.649-1.387-1.676-1.387-2.032 0-2.723 2.2-2.867 2.653h-.024v-2.653l-3.203.266v.691c1.625 0 1.816.168 1.816 1.34v6.473c0 1.078-.261 1.078-1.816 1.078v.691c.672-.047 1.984-.047 2.699-.047.649 0 2.344 0 2.895.047v-.691h-.481c-1.742 0-1.789-.266-1.789-1.125zm16.078.453c0-3.082-2.343-5.543-5.117-5.543-2.863 0-5.137 2.531-5.137 5.543 0 3.059 2.391 5.352 5.114 5.352 2.82 0 5.14-2.34 5.14-5.352m-5.117 4.828c-.883 0-1.957-.383-2.652-1.555-.645-1.074-.668-2.484-.668-3.488 0-.91 0-2.367.738-3.441a3.07 3.07 0 0 1 2.559-1.41c.933 0 1.937.43 2.582 1.363.742 1.097.742 2.605.742 3.488 0 .836 0 2.316-.621 3.441-.668 1.149-1.77 1.602-2.68 1.602m9.961-9.32h3.371v-.696h-3.371v-4.394h-.523c-.024 2.246-.887 4.539-3.063 4.613v.477h2.031v6.644c0 2.653 1.77 3.2 3.039 3.2 1.504 0 2.293-1.481 2.293-3.2v-1.363h-.527v1.313c0 1.722-.691 2.726-1.625 2.726-1.625 0-1.625-2.223-1.625-2.629zm14.309 3.226c0-1.289 0-2.246-1.051-3.18-.836-.765-1.91-1.097-2.961-1.097-1.961 0-3.469 1.289-3.469 2.844 0 .691.457 1.027 1.004 1.027.574 0 .981-.406.981-.98 0-.98-.86-.98-1.219-.98.551-1.005 1.699-1.434 2.652-1.434 1.102 0 2.512.91 2.512 3.058v.957c-4.805.07-6.621 2.078-6.621 3.918 0 1.89 2.199 2.485 3.656 2.485 1.578 0 2.652-.954 3.106-2.102.097 1.125.835 1.984 1.867 1.984.5 0 1.886-.336 1.886-2.246v-1.34h-.527v1.34c0 1.363-.57 1.551-.906 1.551-.91 0-.91-1.266-.91-1.625zm-1.551 3.012c0 2.34-1.746 3.129-2.774 3.129-1.171 0-2.152-.86-2.152-2.008 0-3.152 4.067-3.441 4.926-3.488zM22.223-91.379c0-1.293 0-2.246-1.051-3.18-.836-.765-1.91-1.097-2.961-1.097-1.961 0-3.469 1.289-3.469 2.844 0 .69.457 1.027 1.008 1.027.57 0 .977-.406.977-.98 0-.981-.86-.981-1.22-.981.552-1.004 1.7-1.434 2.653-1.434 1.102 0 2.512.907 2.512 3.059v.957c-4.805.07-6.621 2.078-6.621 3.918 0 1.887 2.199 2.484 3.656 2.484 1.578 0 2.652-.957 3.105-2.101.098 1.12.836 1.98 1.868 1.98.5 0 1.886-.332 1.886-2.242v-1.34h-.527v1.34c0 1.36-.57 1.55-.906 1.55-.91 0-.91-1.265-.91-1.624zm-1.551 3.012c0 2.34-1.746 3.129-2.774 3.129-1.171 0-2.148-.864-2.148-2.008 0-3.152 4.063-3.442 4.922-3.488zm13.18-4.664c.214-.524.62-1.551 2.148-1.575v-.695c-.691.051-1.027.051-1.766.051-.504 0-.863 0-1.96-.05v.694c1.003.047 1.12.762 1.12 1.028 0 .215-.046.336-.167.621l-2.438 6.164-2.676-6.738c-.117-.336-.14-.336-.14-.453 0-.622.906-.622 1.336-.622v-.695c-.598.051-1.84.051-2.485.051-.789 0-.836 0-2.293-.05v.694c1.336 0 1.578.094 1.864.837l3.418 8.554c.117.332.164.453.453.453.168 0 .312-.047.476-.453zm10.472 1.652c0-1.293 0-2.246-1.05-3.18-.837-.765-1.915-1.097-2.965-1.097-1.957 0-3.465 1.289-3.465 2.844 0 .69.453 1.027 1.004 1.027.574 0 .98-.406.98-.98 0-.981-.86-.981-1.219-.981.551-1.004 1.696-1.434 2.653-1.434 1.097 0 2.508.907 2.508 3.059v.957c-4.801.07-6.618 2.078-6.618 3.918 0 1.887 2.2 2.484 3.657 2.484 1.574 0 2.652-.957 3.105-2.101.094 1.12.836 1.98 1.863 1.98.504 0 1.887-.332 1.887-2.242v-1.34h-.523v1.34c0 1.36-.575 1.55-.907 1.55-.91 0-.91-1.265-.91-1.624zm-1.554 3.012c0 2.34-1.743 3.129-2.77 3.129-1.172 0-2.152-.864-2.152-2.008 0-3.152 4.062-3.442 4.922-3.488zm14.664-2.438c0-2.226 0-2.894-.551-3.656-.692-.933-1.813-1.078-2.625-1.078-2.32 0-3.227 1.984-3.418 2.46h-.028v-2.46l-3.25.266v.691c1.626 0 1.82.168 1.82 1.34v6.473c0 1.074-.265 1.074-1.82 1.074V-85c.626-.047 1.915-.047 2.583-.047.695 0 1.984 0 2.605.047v-.695c-1.531 0-1.816 0-1.816-1.075v-4.44c0-2.513 1.648-3.853 3.129-3.853 1.484 0 1.82 1.22 1.82 2.68v5.614c0 1.074-.266 1.074-1.82 1.074V-85c.624-.047 1.914-.047 2.581-.047.696 0 1.985 0 2.606.047v-.695c-1.195 0-1.793 0-1.816-.715zm11.472-3.824c.215-.265.215-.312.215-.406 0-.266-.168-.266-.574-.266h-7.504l-.262 3.801h.524c.144-2.437.597-3.32 3.203-3.32h2.773l-6.836 9.39c0 .43.047.43.575.43h7.789l.382-4.398h-.527c-.215 2.726-.621 3.875-3.465 3.875h-2.89zm10.516 3.25c0-1.293 0-2.246-1.047-3.18-.84-.765-1.914-1.097-2.965-1.097-1.96 0-3.465 1.289-3.465 2.844 0 .69.453 1.027 1.004 1.027.574 0 .98-.406.98-.98 0-.981-.863-.981-1.218-.981.547-1.004 1.695-1.434 2.648-1.434 1.102 0 2.512.907 2.512 3.059v.957c-4.805.07-6.621 2.078-6.621 3.918 0 1.887 2.2 2.484 3.656 2.484 1.578 0 2.656-.957 3.11-2.101.093 1.12.836 1.98 1.863 1.98.5 0 1.887-.332 1.887-2.242v-1.34h-.524v1.34c0 1.36-.574 1.55-.91 1.55-.91 0-.91-1.265-.91-1.624zm-1.55 3.012c0 2.34-1.747 3.129-2.774 3.129-1.168 0-2.149-.864-2.149-2.008 0-3.152 4.063-3.442 4.922-3.488zm-55.649-58.711c0-1.293 0-2.25-1.051-3.18-.836-.765-1.91-1.101-2.961-1.101-1.961 0-3.469 1.293-3.469 2.843 0 .696.457 1.032 1.008 1.032.57 0 .977-.407.977-.985 0-.976-.86-.976-1.22-.976.552-1.004 1.7-1.434 2.653-1.434 1.102 0 2.512.906 2.512 3.059v.953c-4.805.074-6.621 2.082-6.621 3.922 0 1.886 2.199 2.484 3.656 2.484 1.578 0 2.652-.957 3.105-2.102.098 1.122.836 1.981 1.868 1.981.5 0 1.886-.332 1.886-2.246v-1.336h-.527v1.336c0 1.363-.57 1.555-.906 1.555-.91 0-.91-1.266-.91-1.625zm-1.551 3.008c0 2.343-1.746 3.132-2.774 3.132-1.171 0-2.148-.863-2.148-2.007 0-3.157 4.063-3.442 4.922-3.493zm9.883 7.312c-1.532 0-1.817 0-1.817-1.074v-4.16c.43.597 1.41 1.531 2.942 1.531 2.746 0 5.16-2.32 5.16-5.398 0-3.039-2.246-5.379-4.852-5.379-2.101 0-3.226 1.504-3.297 1.601v-1.601l-3.324.261v.696c1.676 0 1.82.164 1.82 1.218v11.231c0 1.074-.265 1.074-1.82 1.074v.695c.625-.05 1.914-.05 2.582-.05.692 0 1.985 0 2.606.05zm-1.817-11.566c0-.453 0-.477.262-.86.719-1.074 1.89-1.531 2.797-1.531 1.793 0 3.226 2.176 3.226 4.856 0 2.839-1.625 4.921-3.464 4.921a2.8 2.8 0 0 1-1.91-.765c-.551-.551-.91-1.027-.91-1.695zm12.953 2.058c0-2.32.957-4.496 2.793-4.496.196 0 .243 0 .336.028-.191.093-.57.238-.57.882 0 .692.547.954.93.954.476 0 .957-.309.957-.954 0-.718-.645-1.386-1.676-1.386-2.031 0-2.723 2.199-2.867 2.652h-.024v-2.652l-3.203.261v.696c1.625 0 1.82.164 1.82 1.336v6.476c0 1.074-.265 1.074-1.82 1.074v.696c.672-.047 1.985-.047 2.703-.047.645 0 2.34 0 2.89.047v-.696h-.476c-1.746 0-1.793-.261-1.793-1.121zm9.266-9.156c0-.621-.5-1.168-1.168-1.168-.625 0-1.148.5-1.148 1.145 0 .718.574 1.172 1.148 1.172.738 0 1.168-.622 1.168-1.149m-3.297 4.445v.696c1.528 0 1.746.14 1.746 1.312v6.5c0 1.074-.265 1.074-1.816 1.074v.696c.668-.047 1.816-.047 2.508-.047.261 0 1.648 0 2.46.047v-.696c-1.55 0-1.648-.117-1.648-1.05v-8.793zm19.293 14.219c-1.527 0-1.812 0-1.812-1.074v-4.16c.43.597 1.406 1.531 2.937 1.531 2.75 0 5.16-2.32 5.16-5.398 0-3.039-2.246-5.379-4.847-5.379-2.106 0-3.227 1.504-3.301 1.601v-1.601l-3.32.261v.696c1.671 0 1.816.164 1.816 1.218v11.231c0 1.074-.266 1.074-1.816 1.074v.695c.62-.05 1.91-.05 2.582-.05.691 0 1.98 0 2.601.05zm-1.812-11.566c0-.453 0-.477.261-.86.715-1.074 1.887-1.531 2.793-1.531 1.793 0 3.227 2.176 3.227 4.856 0 2.839-1.625 4.921-3.465 4.921a2.82 2.82 0 0 1-1.91-.765c-.55-.551-.906-1.027-.906-1.695zm20.629 2.511c0-3.085-2.344-5.546-5.114-5.546-2.867 0-5.14 2.535-5.14 5.546 0 3.059 2.39 5.352 5.117 5.352 2.816 0 5.136-2.344 5.136-5.352m-5.114 4.825c-.887 0-1.96-.379-2.656-1.551-.644-1.078-.668-2.484-.668-3.492 0-.907 0-2.364.742-3.438a3.06 3.06 0 0 1 2.559-1.41c.93 0 1.933.43 2.578 1.363.742 1.098.742 2.602.742 3.485 0 .84 0 2.32-.621 3.441-.668 1.149-1.77 1.602-2.676 1.602m9.837-5.278c0-2.32.953-4.496 2.793-4.496.192 0 .238 0 .336.028-.191.093-.574.238-.574.882 0 .692.55.954.934.954.476 0 .957-.309.957-.954 0-.718-.649-1.386-1.676-1.386-2.031 0-2.723 2.199-2.868 2.652h-.023v-2.652l-3.203.261v.696c1.625 0 1.816.164 1.816 1.336v6.476c0 1.074-.261 1.074-1.816 1.074v.696c.668-.047 1.984-.047 2.7-.047.648 0 2.343 0 2.894.047v-.696h-.48c-1.743 0-1.79-.261-1.79-1.121zm9.121-4.039h3.371V-151h-3.37v-4.398h-.524c-.024 2.25-.887 4.543-3.059 4.613v.48h2.031v6.641c0 2.652 1.766 3.203 3.036 3.203 1.504 0 2.293-1.48 2.293-3.203v-1.359h-.528v1.312c0 1.719-.691 2.723-1.625 2.723-1.625 0-1.625-2.223-1.625-2.629zm14.309 3.227c0-1.293 0-2.25-1.051-3.18-.836-.765-1.91-1.101-2.961-1.101-1.961 0-3.465 1.293-3.465 2.843 0 .696.453 1.032 1.004 1.032.574 0 .981-.407.981-.985 0-.976-.864-.976-1.219-.976.547-1.004 1.695-1.434 2.648-1.434 1.102 0 2.512.906 2.512 3.059v.953c-4.805.074-6.617 2.082-6.617 3.922 0 1.886 2.195 2.484 3.652 2.484 1.578 0 2.657-.957 3.11-2.102.093 1.122.836 1.981 1.863 1.981.5 0 1.887-.332 1.887-2.246v-1.336h-.524v1.336c0 1.363-.574 1.555-.91 1.555-.91 0-.91-1.266-.91-1.625zm-1.551 3.008c0 2.343-1.742 3.132-2.773 3.132-1.168 0-2.149-.863-2.149-2.007 0-3.157 4.063-3.442 4.922-3.493zm-64.648-75.711c0-1.289 0-2.246-1.051-3.18-.836-.762-1.91-1.098-2.961-1.098-1.961 0-3.469 1.293-3.469 2.844 0 .692.457 1.027 1.008 1.027.57 0 .977-.406.977-.98 0-.98-.86-.98-1.22-.98.552-1 1.7-1.43 2.653-1.43 1.102 0 2.512.906 2.512 3.055v.957c-4.805.074-6.621 2.082-6.621 3.918 0 1.89 2.199 2.488 3.656 2.488 1.578 0 2.652-.957 3.105-2.106.098 1.125.836 1.985 1.868 1.985.5 0 1.886-.336 1.886-2.246v-1.34h-.527v1.34c0 1.363-.57 1.554-.906 1.554-.91 0-.91-1.269-.91-1.625zm-1.551 3.011c0 2.34-1.746 3.129-2.774 3.129-1.171 0-2.148-.859-2.148-2.007 0-3.153 4.063-3.442 4.922-3.489zm13.18-4.66c.214-.523.62-1.554 2.148-1.578v-.691c-.691.047-1.027.047-1.766.047-.504 0-.863 0-1.96-.047v.691c1.003.047 1.12.766 1.12 1.028 0 .214-.046.335-.167.621l-2.438 6.168-2.676-6.739c-.117-.336-.14-.336-.14-.457 0-.621.906-.621 1.336-.621v-.691c-.598.047-1.84.047-2.485.047-.789 0-.836 0-2.293-.047v.691c1.336 0 1.578.098 1.864.836l3.417 8.555c.118.336.165.457.454.457.168 0 .312-.051.476-.457zm10.472 1.649c0-1.289 0-2.246-1.05-3.18-.837-.762-1.915-1.098-2.965-1.098-1.957 0-3.465 1.293-3.465 2.844 0 .692.453 1.027 1.004 1.027.574 0 .98-.406.98-.98 0-.98-.86-.98-1.219-.98.551-1 1.696-1.43 2.653-1.43 1.097 0 2.507.906 2.507 3.055v.957c-4.8.074-6.617 2.082-6.617 3.918 0 1.89 2.2 2.488 3.657 2.488 1.574 0 2.652-.957 3.105-2.106.094 1.125.836 1.985 1.863 1.985.504 0 1.887-.336 1.887-2.246v-1.34h-.523v1.34c0 1.363-.575 1.554-.907 1.554-.91 0-.91-1.269-.91-1.625zm-1.555 3.011c0 2.34-1.742 3.129-2.769 3.129-1.172 0-2.152-.859-2.152-2.007 0-3.153 4.062-3.442 4.921-3.489zm14.665-2.437c0-2.223 0-2.891-.551-3.656-.692-.934-1.813-1.075-2.625-1.075-2.32 0-3.227 1.985-3.418 2.461h-.028v-2.461l-3.25.262v.692c1.626 0 1.82.168 1.82 1.339v6.477c0 1.074-.265 1.074-1.82 1.074v.696c.626-.051 1.915-.051 2.582-.051.696 0 1.985 0 2.606.051v-.696c-1.531 0-1.816 0-1.816-1.074v-4.445c0-2.508 1.648-3.848 3.129-3.848 1.484 0 1.82 1.219 1.82 2.676v5.617c0 1.074-.266 1.074-1.82 1.074v.696c.624-.051 1.914-.051 2.581-.051.696 0 1.985 0 2.606.051v-.696c-1.195 0-1.793 0-1.816-.715zm11.472-3.824c.215-.262.215-.309.215-.407 0-.261-.168-.261-.574-.261h-7.504l-.262 3.801h.524c.144-2.442.597-3.325 3.203-3.325h2.773l-6.836 9.395c0 .43.047.43.575.43h7.789l.382-4.399h-.527c-.215 2.723-.621 3.871-3.465 3.871h-2.89zm10.516 3.25c0-1.289 0-2.246-1.051-3.18-.836-.762-1.91-1.098-2.961-1.098-1.96 0-3.465 1.293-3.465 2.844 0 .692.453 1.027 1.004 1.027.574 0 .98-.406.98-.98 0-.98-.863-.98-1.218-.98.547-1 1.695-1.43 2.648-1.43 1.102 0 2.512.906 2.512 3.055v.957c-4.805.074-6.621 2.082-6.621 3.918 0 1.89 2.2 2.488 3.656 2.488 1.578 0 2.657-.957 3.11-2.106.093 1.125.836 1.985 1.863 1.985.5 0 1.887-.336 1.887-2.246v-1.34h-.524v1.34c0 1.363-.574 1.554-.91 1.554-.91 0-.91-1.269-.91-1.625zm-1.551 3.011c0 2.34-1.742 3.129-2.773 3.129-1.168 0-2.149-.859-2.149-2.007 0-3.153 4.063-3.442 4.922-3.489zm-86.379-52.199c0-2.316.953-4.492 2.793-4.492.192 0 .238 0 .336.023-.191.098-.574.243-.574.883 0 .696.55.957.933.957.477 0 .957-.308.957-.957 0-.715-.648-1.383-1.675-1.383-2.032 0-2.723 2.196-2.867 2.653h-.024v-2.653l-3.203.262v.692c1.625 0 1.816.168 1.816 1.339v6.477c0 1.074-.261 1.074-1.816 1.074v.696c.668-.051 1.984-.051 2.7-.051.648 0 2.343 0 2.894.051v-.696h-.48c-1.743 0-1.79-.261-1.79-1.121zm9.266-9.152c0-.621-.5-1.168-1.172-1.168-.621 0-1.145.5-1.145 1.144 0 .715.575 1.172 1.145 1.172.742 0 1.172-.621 1.172-1.148m-3.297 4.445v.692c1.527 0 1.742.144 1.742 1.316v6.5c0 1.074-.262 1.074-1.812 1.074v.696c.668-.051 1.812-.051 2.507-.051.262 0 1.649 0 2.461.051v-.696c-1.554 0-1.648-.121-1.648-1.051v-8.793zm11.492 14.219c-1.527 0-1.812 0-1.812-1.074v-4.16c.43.597 1.406 1.531 2.937 1.531 2.75 0 5.16-2.32 5.16-5.403 0-3.035-2.246-5.375-4.847-5.375-2.106 0-3.227 1.504-3.301 1.598v-1.598l-3.32.262v.692c1.671 0 1.816.168 1.816 1.218v11.235c0 1.074-.266 1.074-1.816 1.074v.691c.62-.047 1.91-.047 2.582-.047.691 0 1.98 0 2.601.047zm-1.812-11.566c0-.454 0-.481.261-.86a3.44 3.44 0 0 1 2.793-1.531c1.793 0 3.227 2.176 3.227 4.851 0 2.844-1.625 4.922-3.465 4.922a2.82 2.82 0 0 1-1.91-.761c-.55-.551-.906-1.028-.906-1.7zm18.812 2.078c.524 0 .574 0 .574-.453 0-2.415-1.293-4.661-4.183-4.661-2.723 0-4.828 2.461-4.828 5.426 0 3.153 2.437 5.473 5.09 5.473 2.843 0 3.921-2.582 3.921-3.082 0-.145-.12-.242-.265-.242-.192 0-.239.121-.285.242-.621 2.008-2.223 2.554-3.227 2.554s-3.418-.667-3.418-4.804v-.453zm-6.598-.453c.192-3.75 2.297-4.18 2.965-4.18 2.555 0 2.7 3.367 2.723 4.18zm11.86-3.61h3.37v-.691h-3.37v-4.399h-.528c-.023 2.246-.882 4.543-3.058 4.614v.476h2.031v6.645c0 2.652 1.77 3.203 3.035 3.203 1.508 0 2.297-1.481 2.297-3.203v-1.364h-.527v1.317c0 1.719-.692 2.722-1.625 2.722-1.625 0-1.625-2.222-1.625-2.628zm9.242-5.113c0-.621-.5-1.168-1.168-1.168-.625 0-1.148.5-1.148 1.144 0 .715.574 1.172 1.148 1.172.738 0 1.168-.621 1.168-1.148m-3.297 4.445v.692c1.528 0 1.746.144 1.746 1.316v6.5c0 1.074-.265 1.074-1.816 1.074v.696c.668-.051 1.816-.051 2.508-.051.261 0 1.648 0 2.46.051v-.696c-1.55 0-1.648-.121-1.648-1.051v-8.793zm23.953 6.262h-.523c-.074.406-.262 1.719-.504 2.101-.164.215-1.527.215-2.246.215h-4.418c.644-.55 2.101-2.078 2.722-2.648 3.633-3.348 4.97-4.594 4.97-6.957 0-2.75-2.173-4.586-4.946-4.586-2.774 0-4.399 2.363-4.399 4.418 0 1.219 1.051 1.219 1.125 1.219.5 0 1.122-.356 1.122-1.121 0-.672-.454-1.125-1.122-1.125-.214 0-.261 0-.335.027.457-1.625 1.746-2.727 3.3-2.727 2.032 0 3.274 1.696 3.274 3.895 0 2.031-1.172 3.801-2.535 5.332l-4.829 5.398v.575h8.723zm18.739-4.016c.214-.523.621-1.554 2.148-1.578v-.691c-.691.047-1.027.047-1.766.047-.504 0-.863 0-1.961-.047v.691c1.004.047 1.122.766 1.122 1.028 0 .214-.047.335-.168.621l-2.438 6.168-2.676-6.739c-.117-.336-.14-.336-.14-.457 0-.621.906-.621 1.336-.621v-.691c-.594.047-1.84.047-2.485.047-.789 0-.836 0-2.293-.047v.691c1.336 0 1.578.098 1.863.836l3.419 8.555c.117.336.164.457.453.457.168 0 .312-.051.476-.457zm12.918 2.914c0-3.082-2.344-5.543-5.114-5.543-2.867 0-5.14 2.536-5.14 5.543 0 3.063 2.39 5.356 5.117 5.356 2.816 0 5.137-2.344 5.137-5.356m-5.114 4.828c-.886 0-1.961-.382-2.652-1.554-.649-1.074-.672-2.485-.672-3.488 0-.907 0-2.364.742-3.442a3.07 3.07 0 0 1 2.559-1.406c.93 0 1.933.43 2.578 1.359.742 1.102.742 2.606.742 3.489 0 .839 0 2.32-.621 3.441-.668 1.148-1.769 1.601-2.676 1.601m9.953-16.296-3.32.261v.696c1.625 0 1.816.168 1.816 1.336v12.523c0 1.074-.261 1.074-1.816 1.074v.696c.668-.051 1.84-.051 2.555-.051.719 0 1.914 0 2.582.051v-.696c-1.528 0-1.817 0-1.817-1.074zm6.407 6.976h3.367v-.691h-3.367v-4.399h-.528c-.023 2.246-.883 4.543-3.058 4.614v.476h2.031v6.645c0 2.652 1.769 3.203 3.035 3.203 1.508 0 2.293-1.481 2.293-3.203v-1.364h-.523v1.317c0 1.719-.696 2.722-1.625 2.722-1.625 0-1.625-2.222-1.625-2.628zm14.238 4.063c.523 0 .574 0 .574-.453 0-2.415-1.293-4.661-4.183-4.661-2.723 0-4.829 2.461-4.829 5.426 0 3.153 2.438 5.473 5.09 5.473 2.844 0 3.922-2.582 3.922-3.082 0-.145-.121-.242-.265-.242-.192 0-.239.121-.286.242-.621 2.008-2.222 2.554-3.226 2.554s-3.418-.667-3.418-4.804v-.453zm-6.598-.453c.192-3.75 2.297-4.18 2.965-4.18 2.555 0 2.699 3.367 2.723 4.18zm12.242-3.157c0-.64-.55-1.144-1.148-1.144-.695 0-1.172.551-1.172 1.144 0 .719.598 1.172 1.149 1.172.644 0 1.171-.5 1.171-1.172m0 7.985c0-.645-.55-1.149-1.148-1.149-.695 0-1.172.551-1.172 1.149a1.17 1.17 0 0 0 1.149 1.172 1.16 1.16 0 0 0 1.171-1.172M22.223-328.281c0-1.289 0-2.246-1.051-3.18-.836-.762-1.91-1.098-2.961-1.098-1.961 0-3.469 1.293-3.469 2.844 0 .692.457 1.027 1.008 1.027.57 0 .977-.406.977-.98 0-.98-.86-.98-1.22-.98.552-1 1.7-1.43 2.653-1.43 1.102 0 2.512.906 2.512 3.055v.957c-4.805.074-6.621 2.082-6.621 3.918 0 1.89 2.199 2.488 3.656 2.488 1.578 0 2.652-.957 3.105-2.106.098 1.125.836 1.985 1.868 1.985.5 0 1.886-.336 1.886-2.246v-1.34h-.527v1.34c0 1.363-.57 1.554-.906 1.554-.91 0-.91-1.269-.91-1.625zm-1.551 3.011c0 2.34-1.746 3.129-2.774 3.129-1.171 0-2.148-.859-2.148-2.007 0-3.153 4.063-3.442 4.922-3.489zm9.883 7.313c-1.532 0-1.817 0-1.817-1.074v-4.16c.43.597 1.41 1.531 2.942 1.531 2.746 0 5.16-2.32 5.16-5.403 0-3.035-2.246-5.375-4.852-5.375-2.101 0-3.226 1.504-3.297 1.598v-1.598l-3.324.262v.692c1.676 0 1.82.168 1.82 1.218v11.235c0 1.074-.265 1.074-1.82 1.074v.691c.625-.047 1.914-.047 2.582-.047.692 0 1.985 0 2.606.047zm-1.817-11.566c0-.454 0-.481.262-.86.719-1.078 1.89-1.531 2.797-1.531 1.793 0 3.226 2.176 3.226 4.851 0 2.844-1.625 4.922-3.464 4.922a2.8 2.8 0 0 1-1.91-.761c-.551-.551-.91-1.028-.91-1.7zm12.953 2.054c0-2.316.957-4.492 2.793-4.492.196 0 .243 0 .336.023-.191.098-.57.243-.57.883 0 .696.547.957.93.957.476 0 .957-.308.957-.957 0-.715-.645-1.383-1.676-1.383-2.031 0-2.723 2.196-2.867 2.653h-.024v-2.653l-3.203.262v.692c1.625 0 1.82.168 1.82 1.339v6.477c0 1.074-.265 1.074-1.82 1.074v.696c.672-.051 1.985-.051 2.703-.051.645 0 2.34 0 2.89.051v-.696h-.476c-1.746 0-1.793-.261-1.793-1.121zm9.266-9.152c0-.621-.5-1.168-1.168-1.168-.625 0-1.148.5-1.148 1.144 0 .715.574 1.172 1.148 1.172.738 0 1.168-.621 1.168-1.148m-3.297 4.445v.692c1.528 0 1.746.144 1.746 1.316v6.5c0 1.074-.265 1.074-1.816 1.074v.696c.668-.051 1.816-.051 2.508-.051.261 0 1.648 0 2.46.051v-.696c-1.55 0-1.648-.121-1.648-1.051v-8.793zm19.293 14.219c-1.527 0-1.812 0-1.812-1.074v-4.16c.43.597 1.406 1.531 2.937 1.531 2.75 0 5.16-2.32 5.16-5.403 0-3.035-2.246-5.375-4.847-5.375-2.106 0-3.227 1.504-3.301 1.598v-1.598l-3.32.262v.692c1.671 0 1.816.168 1.816 1.218v11.235c0 1.074-.266 1.074-1.816 1.074v.691c.62-.047 1.91-.047 2.582-.047.691 0 1.98 0 2.601.047zm-1.812-11.566c0-.454 0-.481.261-.86a3.44 3.44 0 0 1 2.793-1.531c1.793 0 3.227 2.176 3.227 4.851 0 2.844-1.625 4.922-3.465 4.922a2.82 2.82 0 0 1-1.91-.761c-.55-.551-.906-1.028-.906-1.7zm20.629 2.507c0-3.082-2.344-5.543-5.114-5.543-2.867 0-5.14 2.536-5.14 5.543 0 3.063 2.39 5.356 5.117 5.356 2.816 0 5.136-2.344 5.136-5.356m-5.114 4.828c-.887 0-1.96-.382-2.656-1.554-.644-1.074-.668-2.485-.668-3.488 0-.907 0-2.364.742-3.442a3.07 3.07 0 0 1 2.559-1.406c.93 0 1.933.43 2.578 1.359.742 1.102.742 2.606.742 3.489 0 .839 0 2.32-.621 3.441-.668 1.148-1.77 1.601-2.676 1.601m9.837-5.281c0-2.316.953-4.492 2.793-4.492.192 0 .238 0 .336.023-.191.098-.574.243-.574.883 0 .696.55.957.934.957.476 0 .957-.308.957-.957 0-.715-.649-1.383-1.676-1.383-2.031 0-2.723 2.196-2.868 2.653h-.023v-2.653l-3.203.262v.692c1.625 0 1.816.168 1.816 1.339v6.477c0 1.074-.261 1.074-1.816 1.074v.696c.668-.051 1.984-.051 2.7-.051.648 0 2.343 0 2.894.051v-.696h-.48c-1.743 0-1.79-.261-1.79-1.121zm9.121-4.039h3.371v-.691h-3.37v-4.399h-.524c-.024 2.246-.887 4.543-3.059 4.614v.476h2.031v6.645c0 2.652 1.766 3.203 3.036 3.203 1.504 0 2.293-1.481 2.293-3.203v-1.364h-.528v1.317c0 1.719-.691 2.722-1.625 2.722-1.625 0-1.625-2.222-1.625-2.628zm14.309 3.227c0-1.289 0-2.246-1.051-3.18-.836-.762-1.91-1.098-2.961-1.098-1.961 0-3.465 1.293-3.465 2.844 0 .692.453 1.027 1.004 1.027.574 0 .981-.406.981-.98 0-.98-.864-.98-1.219-.98.547-1 1.695-1.43 2.648-1.43 1.102 0 2.512.906 2.512 3.055v.957c-4.805.074-6.617 2.082-6.617 3.918 0 1.89 2.195 2.488 3.652 2.488 1.578 0 2.657-.957 3.11-2.106.093 1.125.836 1.985 1.863 1.985.5 0 1.887-.336 1.887-2.246v-1.34h-.524v1.34c0 1.363-.574 1.554-.91 1.554-.91 0-.91-1.269-.91-1.625zm-1.551 3.011c0 2.34-1.742 3.129-2.773 3.129-1.168 0-2.149-.859-2.149-2.007 0-3.153 4.063-3.442 4.922-3.489zm-90.148-58.71c0-1.29 0-2.247-1.051-3.18-.836-.762-1.91-1.098-2.961-1.098-1.961 0-3.469 1.289-3.469 2.844 0 .691.457 1.027 1.008 1.027.57 0 .977-.406.977-.98 0-.981-.86-.981-1.22-.981.552-1.004 1.7-1.433 2.653-1.433 1.102 0 2.512.91 2.512 3.058v.957c-4.805.071-6.621 2.078-6.621 3.918 0 1.891 2.199 2.489 3.656 2.489 1.578 0 2.652-.957 3.105-2.106.098 1.125.836 1.985 1.868 1.985.5 0 1.886-.336 1.886-2.247v-1.339h-.527v1.339c0 1.364-.57 1.555-.906 1.555-.91 0-.91-1.269-.91-1.625zm-1.551 3.011c0 2.34-1.746 3.129-2.774 3.129-1.171 0-2.148-.859-2.148-2.008 0-3.152 4.063-3.441 4.922-3.488zm13.18-4.66c.214-.527.62-1.555 2.148-1.578v-.691c-.691.046-1.027.046-1.766.046-.504 0-.863 0-1.96-.046v.691c1.003.047 1.12.766 1.12 1.027 0 .215-.046.336-.167.621l-2.438 6.168-2.676-6.742c-.117-.332-.14-.332-.14-.453 0-.621.906-.621 1.336-.621v-.691c-.598.046-1.84.046-2.485.046-.789 0-.836 0-2.293-.046v.691c1.336 0 1.578.098 1.864.836l3.418 8.555c.117.336.164.457.453.457.168 0 .312-.051.476-.457zm10.472 1.649c0-1.29 0-2.247-1.05-3.18-.837-.762-1.915-1.098-2.965-1.098-1.957 0-3.465 1.289-3.465 2.844 0 .691.453 1.027 1.004 1.027.574 0 .98-.406.98-.98 0-.981-.86-.981-1.219-.981.551-1.004 1.696-1.433 2.653-1.433 1.097 0 2.508.91 2.508 3.058v.957c-4.801.071-6.618 2.078-6.618 3.918 0 1.891 2.2 2.489 3.657 2.489 1.574 0 2.652-.957 3.105-2.106.094 1.125.836 1.985 1.863 1.985.504 0 1.887-.336 1.887-2.247v-1.339h-.523v1.339c0 1.364-.575 1.555-.907 1.555-.91 0-.91-1.269-.91-1.625zm-1.554 3.011c0 2.34-1.743 3.129-2.77 3.129-1.172 0-2.152-.859-2.152-2.008 0-3.152 4.062-3.441 4.922-3.488zm14.664-2.437c0-2.223 0-2.891-.551-3.657-.692-.933-1.813-1.078-2.625-1.078-2.32 0-3.227 1.985-3.418 2.465h-.028v-2.465l-3.25.266v.691c1.626 0 1.82.168 1.82 1.34v6.477c0 1.074-.265 1.074-1.82 1.074v.691c.626-.046 1.915-.046 2.583-.046.695 0 1.984 0 2.605.046v-.691c-1.531 0-1.816 0-1.816-1.074v-4.446c0-2.507 1.648-3.847 3.129-3.847 1.484 0 1.82 1.219 1.82 2.676v5.617c0 1.074-.266 1.074-1.82 1.074v.691c.624-.046 1.914-.046 2.581-.046.696 0 1.985 0 2.606.046v-.691c-1.195 0-1.793 0-1.816-.715zm11.472-3.824c.215-.262.215-.309.215-.407 0-.261-.168-.261-.574-.261h-7.504l-.262 3.796h.524c.144-2.437.597-3.32 3.203-3.32h2.773l-6.836 9.391c0 .429.047.429.575.429h7.789l.382-4.394h-.527c-.215 2.723-.621 3.871-3.465 3.871h-2.89zm10.516 3.25c0-1.29 0-2.247-1.047-3.18-.84-.762-1.914-1.098-2.965-1.098-1.96 0-3.465 1.289-3.465 2.844 0 .691.453 1.027 1.004 1.027.574 0 .98-.406.98-.98 0-.981-.863-.981-1.218-.981.547-1.004 1.695-1.433 2.648-1.433 1.102 0 2.512.91 2.512 3.058v.957c-4.805.071-6.621 2.078-6.621 3.918 0 1.891 2.2 2.489 3.656 2.489 1.578 0 2.656-.957 3.11-2.106.093 1.125.836 1.985 1.863 1.985.5 0 1.887-.336 1.887-2.247v-1.339h-.524v1.339c0 1.364-.574 1.555-.91 1.555-.91 0-.91-1.269-.91-1.625zm-1.55 3.011c0 2.34-1.747 3.129-2.774 3.129-1.168 0-2.149-.859-2.149-2.008 0-3.152 4.063-3.441 4.922-3.488zm-47.977-60.433c0-4.946-3.633-8.719-7.79-8.719-4.253 0-7.816 3.82-7.816 8.719 0 4.851 3.61 8.605 7.793 8.605 4.277 0 7.813-3.801 7.813-8.605m-7.79 8.054c-2.437 0-5.593-2.293-5.593-8.41 0-5.855 3.324-7.84 5.57-7.84 2.363 0 5.59 2.055 5.59 7.84 0 6.211-3.25 8.41-5.567 8.41m14.95 3.989c-1.532 0-1.817 0-1.817-1.075v-4.156c.43.598 1.41 1.527 2.942 1.527 2.746 0 5.16-2.316 5.16-5.398 0-3.035-2.246-5.379-4.852-5.379-2.101 0-3.226 1.508-3.297 1.602v-1.602l-3.324.266v.691c1.676 0 1.82.168 1.82 1.219v11.23c0 1.075-.265 1.075-1.82 1.075v.695c.625-.051 1.914-.051 2.582-.051.692 0 1.985 0 2.606.051zm-1.817-11.563c0-.457 0-.48.262-.859.719-1.078 1.89-1.532 2.797-1.532 1.793 0 3.226 2.176 3.226 4.852 0 2.844-1.625 4.922-3.464 4.922a2.8 2.8 0 0 1-1.91-.766c-.551-.547-.91-1.027-.91-1.695zm18.067-2.008c.215-.265.215-.312.215-.406 0-.266-.168-.266-.575-.266h-7.504l-.261 3.801h.527c.14-2.437.598-3.32 3.2-3.32h2.773l-6.836 9.391c0 .429.05.429.574.429h7.793l.379-4.394h-.524c-.214 2.722-.62 3.871-3.464 3.871H46.71zm5.453-5.09c0-.621-.5-1.171-1.172-1.171-.621 0-1.145.503-1.145 1.148 0 .715.575 1.172 1.145 1.172.742 0 1.172-.625 1.172-1.149m-3.297 4.446v.691c1.527 0 1.742.145 1.742 1.313v6.5c0 1.078-.262 1.078-1.812 1.078v.691c.668-.047 1.812-.047 2.507-.047.262 0 1.649 0 2.461.047v-.691c-1.554 0-1.648-.121-1.648-1.051v-8.797zm16.609 5.16c0-3.082-2.343-5.543-5.117-5.543-2.867 0-5.137 2.531-5.137 5.543 0 3.059 2.391 5.351 5.114 5.351 2.82 0 5.14-2.339 5.14-5.351m-5.117 4.824c-.883 0-1.957-.379-2.652-1.551-.645-1.074-.668-2.484-.668-3.488 0-.91 0-2.367.742-3.441a3.06 3.06 0 0 1 2.555-1.41c.933 0 1.937.429 2.582 1.363.742 1.097.742 2.605.742 3.488 0 .836 0 2.316-.621 3.441-.672 1.145-1.77 1.598-2.68 1.598m16.481-5.515c0-2.223 0-2.891-.551-3.657-.692-.933-1.813-1.078-2.625-1.078-2.32 0-3.227 1.985-3.418 2.461h-.028v-2.461l-3.25.266v.691c1.626 0 1.82.168 1.82 1.34v6.473c0 1.078-.265 1.078-1.82 1.078v.691c.626-.047 1.915-.047 2.582-.047.696 0 1.985 0 2.606.047v-.691c-1.531 0-1.816 0-1.816-1.078v-4.442c0-2.511 1.648-3.847 3.129-3.847 1.484 0 1.82 1.218 1.82 2.675v5.614c0 1.078-.266 1.078-1.82 1.078v.691c.624-.047 1.914-.047 2.581-.047.696 0 1.985 0 2.606.047v-.691c-1.195 0-1.793 0-1.816-.719zm11.519.261c.524 0 .574 0 .574-.453 0-2.414-1.293-4.66-4.183-4.66-2.723 0-4.828 2.461-4.828 5.426 0 3.152 2.437 5.468 5.09 5.468 2.843 0 3.921-2.578 3.921-3.082 0-.144-.12-.238-.265-.238-.192 0-.239.121-.285.238-.621 2.008-2.223 2.555-3.227 2.555s-3.418-.668-3.418-4.801v-.453zm-6.597-.453c.19-3.754 2.296-4.183 2.964-4.183 2.555 0 2.7 3.371 2.723 4.183zm22.527-9.32c0-.551 0-.574-.477-.574-.574.644-1.769 1.527-4.23 1.527v.695c.551 0 1.742 0 3.058-.621v12.449c0 .86-.074 1.149-2.175 1.149h-.739v.691c.645-.047 2.961-.047 3.75-.047s3.082 0 3.727.047v-.691h-.742c-2.102 0-2.172-.289-2.172-1.149zm9.215 6.164c0-.645-.551-1.149-1.149-1.149-.691 0-1.168.551-1.168 1.149 0 .719.598 1.172 1.145 1.172.644 0 1.172-.5 1.172-1.172m0 7.984c0-.648-.551-1.148-1.149-1.148a1.15 1.15 0 0 0-1.168 1.148 1.158 1.158 0 1 0 2.317 0M241.336-89.305c0-2.226 0-2.894-.551-3.656-.695-.933-1.816-1.078-2.629-1.078-1.984 0-2.988 1.433-3.371 2.367-.332-1.84-1.625-2.367-3.129-2.367-2.316 0-3.226 1.984-3.418 2.46h-.023v-2.46l-3.25.266v.691c1.625 0 1.816.168 1.816 1.34v6.473c0 1.074-.261 1.074-1.816 1.074v.695c.621-.047 1.914-.047 2.582-.047.691 0 1.984 0 2.601.047v-.695c-1.527 0-1.812 0-1.812-1.075v-4.44c0-2.513 1.648-3.853 3.129-3.853 1.48 0 1.816 1.22 1.816 2.68v5.614c0 1.074-.265 1.074-1.816 1.074v.695c.621-.047 1.914-.047 2.582-.047.691 0 1.98 0 2.601.047v-.695c-1.527 0-1.812 0-1.812-1.075v-4.44c0-2.513 1.648-3.853 3.129-3.853 1.48 0 1.816 1.22 1.816 2.68v5.614c0 1.074-.265 1.074-1.816 1.074v.695c.621-.047 1.914-.047 2.582-.047.691 0 1.98 0 2.601.047v-.695c-1.195 0-1.789 0-1.812-.715zm11.586-.574c0-1.293 0-2.246-1.051-3.18-.836-.765-1.91-1.097-2.961-1.097-1.961 0-3.465 1.289-3.465 2.844 0 .69.453 1.027 1.004 1.027.574 0 .981-.406.981-.98 0-.981-.864-.981-1.219-.981.547-1.004 1.695-1.434 2.648-1.434 1.102 0 2.512.907 2.512 3.059v.957c-4.805.07-6.617 2.078-6.617 3.918 0 1.887 2.195 2.484 3.652 2.484 1.578 0 2.657-.957 3.11-2.101.093 1.12.836 1.98 1.863 1.98.5 0 1.887-.332 1.887-2.242v-1.34h-.524v1.34c0 1.36-.574 1.55-.91 1.55-.91 0-.91-1.265-.91-1.624zm-1.551 3.012c0 2.34-1.742 3.129-2.773 3.129-1.168 0-2.149-.864-2.149-2.008 0-3.152 4.063-3.442 4.922-3.488zm14.664-2.438c0-2.226 0-2.894-.551-3.656-.695-.933-1.816-1.078-2.629-1.078-2.316 0-3.226 1.984-3.417 2.46h-.024v-2.46l-3.25.266v.691c1.625 0 1.816.168 1.816 1.34v6.473c0 1.074-.261 1.074-1.816 1.074v.695c.621-.047 1.914-.047 2.582-.047.692 0 1.984 0 2.606.047v-.695c-1.532 0-1.817 0-1.817-1.075v-4.44c0-2.513 1.649-3.853 3.129-3.853 1.484 0 1.816 1.22 1.816 2.68v5.614c0 1.074-.261 1.074-1.816 1.074v.695c.621-.047 1.914-.047 2.582-.047.692 0 1.981 0 2.606.047v-.695c-1.196 0-1.793 0-1.817-.715zm5.207 1.481c1.125.738 2.082.738 2.344.738 2.148 0 3.754-1.625 3.754-3.465a3.25 3.25 0 0 0-.957-2.316c.93-.957 2.055-.957 2.172-.957.097 0 .218 0 .312.05-.238.094-.359.333-.359.594 0 .336.238.625.621.625.191 0 .625-.12.625-.648 0-.43-.34-1.098-1.176-1.098-1.238 0-2.172.766-2.508 1.121-.715-.547-1.554-.86-2.461-.86-2.148 0-3.75 1.626-3.75 3.466 0 1.363.836 2.246 1.075 2.46-.286.36-.719 1.052-.719 1.985 0 1.387.84 1.985 1.027 2.106-1.097.308-2.195 1.167-2.195 2.41 0 1.648 2.246 3.011 5.183 3.011 2.844 0 5.211-1.265 5.211-3.058 0-.598-.168-2.008-1.601-2.746-1.219-.625-2.414-.625-4.469-.625-1.457 0-1.625 0-2.055-.453-.238-.239-.457-.692-.457-1.196 0-.406.145-.812.383-1.144m2.367.238c-2.101 0-2.101-2.414-2.101-2.965 0-.43 0-1.41.406-2.055a2.04 2.04 0 0 1 1.672-.93c2.102 0 2.102 2.411 2.102 2.962 0 .43 0 1.41-.407 2.055a2.04 2.04 0 0 1-1.672.933m.645 8.484c-2.293 0-4.039-1.171-4.039-2.535 0-.191.051-1.12.957-1.746.527-.332.742-.332 2.414-.332 1.984 0 4.684 0 4.684 2.078 0 1.41-1.817 2.535-4.016 2.535m10.004-19.117c0-.625-.5-1.172-1.168-1.172-.625 0-1.149.5-1.149 1.149 0 .715.575 1.168 1.149 1.168.738 0 1.168-.621 1.168-1.145m-3.297 4.446v.691c1.527 0 1.742.144 1.742 1.313v6.5c0 1.074-.262 1.074-1.812 1.074v.695c.668-.047 1.812-.047 2.507-.047.262 0 1.649 0 2.461.047v-.695c-1.554 0-1.648-.118-1.648-1.047v-8.797zm14.863 3.894c0-1.293 0-2.246-1.051-3.18-.835-.765-1.914-1.097-2.964-1.097-1.957 0-3.465 1.289-3.465 2.844 0 .69.453 1.027 1.004 1.027.574 0 .98-.406.98-.98 0-.981-.859-.981-1.219-.981.551-1.004 1.696-1.434 2.653-1.434 1.097 0 2.508.907 2.508 3.059v.957c-4.801.07-6.618 2.078-6.618 3.918 0 1.887 2.2 2.484 3.657 2.484 1.574 0 2.652-.957 3.105-2.101.094 1.12.836 1.98 1.863 1.98.504 0 1.887-.332 1.887-2.242v-1.34h-.523v1.34c0 1.36-.575 1.55-.907 1.55-.91 0-.91-1.265-.91-1.624zm-1.554 3.012c0 2.34-1.743 3.129-2.774 3.129-1.168 0-2.148-.864-2.148-2.008 0-3.152 4.062-3.442 4.922-3.488zm20.48-5.477c-.285 0-1.172 0-1.172.98 0 .575.406.981.981.981.55 0 1.004-.336 1.004-1.027 0-1.602-1.672-2.746-3.61-2.746-2.793 0-5.015 2.484-5.015 5.496 0 3.058 2.292 5.398 4.992 5.398 3.156 0 3.871-2.867 3.871-3.082s-.168-.215-.238-.215c-.215 0-.239.07-.309.36-.527 1.695-1.816 2.41-3.109 2.41-1.457 0-3.391-1.266-3.391-4.898 0-3.965 2.031-4.946 3.223-4.946.91 0 2.226.36 2.773 1.29m10.973 2.464c0-1.293 0-2.246-1.051-3.18-.836-.765-1.91-1.097-2.961-1.097-1.961 0-3.469 1.289-3.469 2.844 0 .69.457 1.027 1.004 1.027.574 0 .981-.406.981-.98 0-.981-.86-.981-1.219-.981.551-1.004 1.699-1.434 2.652-1.434 1.102 0 2.512.907 2.512 3.059v.957c-4.805.07-6.621 2.078-6.621 3.918 0 1.887 2.199 2.484 3.656 2.484 1.578 0 2.652-.957 3.106-2.101.097 1.12.835 1.98 1.867 1.98.5 0 1.886-.332 1.886-2.242v-1.34h-.527v1.34c0 1.36-.57 1.55-.906 1.55-.91 0-.91-1.265-.91-1.624zm-1.551 3.012c0 2.34-1.746 3.129-2.774 3.129-1.171 0-2.152-.864-2.152-2.008 0-3.152 4.067-3.442 4.926-3.488zm8.019-2.199c0-2.32.957-4.496 2.793-4.496.196 0 .243 0 .336.027-.191.094-.574.238-.574.883 0 .691.551.957.934.957.476 0 .957-.313.957-.957 0-.715-.645-1.387-1.672-1.387-2.035 0-2.727 2.2-2.871 2.652h-.024v-2.652l-3.203.266v.691c1.625 0 1.821.168 1.821 1.34v6.473c0 1.074-.266 1.074-1.821 1.074v.695c.672-.047 1.985-.047 2.703-.047.645 0 2.34 0 2.891.047v-.695h-.477c-1.746 0-1.793-.262-1.793-1.121zm16.079.453c0-3.082-2.344-5.543-5.114-5.543-2.867 0-5.14 2.531-5.14 5.543 0 3.058 2.39 5.351 5.117 5.351 2.816 0 5.137-2.34 5.137-5.351m-5.114 4.824c-.886 0-1.961-.379-2.652-1.55-.649-1.075-.672-2.485-.672-3.49 0-.91 0-2.366.742-3.44a3.06 3.06 0 0 1 2.559-1.41c.93 0 1.933.429 2.578 1.363.742 1.097.742 2.605.742 3.488 0 .836 0 2.316-.621 3.441-.668 1.145-1.769 1.598-2.676 1.598m9.86-9.316h3.367v-.696h-3.367v-4.394h-.528c-.023 2.246-.883 4.539-3.058 4.61v.48h2.031v6.644c0 2.648 1.769 3.2 3.035 3.2 1.508 0 2.293-1.481 2.293-3.2v-1.363h-.523v1.312c0 1.723-.696 2.723-1.625 2.723-1.625 0-1.625-2.219-1.625-2.625zm14.308 3.226c0-1.293 0-2.246-1.051-3.18-.835-.765-1.914-1.097-2.964-1.097-1.957 0-3.465 1.289-3.465 2.844 0 .69.453 1.027 1.004 1.027.574 0 .98-.406.98-.98 0-.981-.859-.981-1.219-.981.551-1.004 1.696-1.434 2.653-1.434 1.097 0 2.508.907 2.508 3.059v.957c-4.801.07-6.618 2.078-6.618 3.918 0 1.887 2.2 2.484 3.657 2.484 1.574 0 2.652-.957 3.105-2.101.094 1.12.836 1.98 1.863 1.98.504 0 1.887-.332 1.887-2.242v-1.34h-.523v1.34c0 1.36-.575 1.55-.907 1.55-.91 0-.91-1.265-.91-1.624zm-1.554 3.012c0 2.34-1.743 3.129-2.774 3.129-1.168 0-2.148-.864-2.148-2.008 0-3.152 4.062-3.442 4.922-3.488zm-106.848-75.711c0-1.293 0-2.25-1.051-3.18-.836-.765-1.91-1.101-2.961-1.101-1.961 0-3.465 1.293-3.465 2.843 0 .696.453 1.032 1.004 1.032.574 0 .981-.407.981-.985 0-.976-.864-.976-1.219-.976.547-1.004 1.695-1.434 2.648-1.434 1.102 0 2.512.906 2.512 3.059v.953c-4.805.074-6.617 2.082-6.617 3.922 0 1.886 2.195 2.484 3.652 2.484 1.578 0 2.657-.957 3.11-2.102.093 1.122.836 1.981 1.863 1.981.5 0 1.887-.332 1.887-2.246v-1.336h-.524v1.336c0 1.363-.574 1.555-.91 1.555-.91 0-.91-1.266-.91-1.625zm-1.551 3.008c0 2.343-1.742 3.132-2.773 3.132-1.168 0-2.149-.863-2.149-2.007 0-3.157 4.063-3.442 4.922-3.493zm13.18-4.66c.215-.524.621-1.551 2.148-1.575v-.695c-.691.047-1.027.047-1.765.047-.504 0-.864 0-1.961-.047v.695c1.004.047 1.121.762 1.121 1.024 0 .218-.047.336-.164.625l-2.438 6.164-2.679-6.738c-.118-.336-.141-.336-.141-.458 0-.617.906-.617 1.336-.617v-.695c-.594.047-1.84.047-2.485.047-.789 0-.835 0-2.293-.047v.695c1.34 0 1.579.094 1.864.836l3.418 8.555c.121.332.168.453.453.453.168 0 .312-.047.48-.453zm10.472 1.652c0-1.293 0-2.25-1.05-3.18-.836-.765-1.91-1.101-2.965-1.101-1.957 0-3.465 1.293-3.465 2.843 0 .696.453 1.032 1.004 1.032.574 0 .98-.407.98-.985 0-.976-.859-.976-1.218-.976.55-1.004 1.699-1.434 2.652-1.434 1.102 0 2.508.906 2.508 3.059v.953c-4.801.074-6.617 2.082-6.617 3.922 0 1.886 2.199 2.484 3.656 2.484 1.578 0 2.652-.957 3.105-2.102.098 1.122.836 1.981 1.864 1.981.503 0 1.89-.332 1.89-2.246v-1.336h-.527v1.336c0 1.363-.574 1.555-.906 1.555-.911 0-.911-1.266-.911-1.625zm-1.554 3.008c0 2.343-1.742 3.132-2.77 3.132-1.172 0-2.152-.863-2.152-2.007 0-3.157 4.062-3.442 4.922-3.493zm14.664-2.438c0-2.222 0-2.89-.547-3.656-.695-.93-1.816-1.074-2.629-1.074-2.32 0-3.227 1.984-3.418 2.461h-.023v-2.461l-3.25.261v.696c1.625 0 1.816.164 1.816 1.336v6.476c0 1.074-.262 1.074-1.816 1.074v.696c.621-.047 1.91-.047 2.578-.047.695 0 1.984 0 2.605.047v-.696c-1.527 0-1.816 0-1.816-1.074v-4.445c0-2.508 1.648-3.848 3.133-3.848 1.48 0 1.816 1.219 1.816 2.676v5.617c0 1.074-.266 1.074-1.816 1.074v.696c.621-.047 1.91-.047 2.578-.047.695 0 1.984 0 2.605.047v-.696c-1.195 0-1.793 0-1.816-.714zm11.472-3.82c.215-.266.215-.313.215-.406 0-.266-.168-.266-.574-.266h-7.504l-.262 3.801h.528c.14-2.438.594-3.324 3.199-3.324h2.773l-6.835 9.394c0 .43.05.43.574.43h7.789l.383-4.399h-.524c-.219 2.727-.625 3.871-3.469 3.871h-2.89zm10.516 3.25c0-1.293 0-2.25-1.047-3.18-.84-.765-1.914-1.101-2.965-1.101-1.961 0-3.464 1.293-3.464 2.843 0 .696.453 1.032 1.003 1.032.575 0 .981-.407.981-.985 0-.976-.863-.976-1.219-.976.551-1.004 1.695-1.434 2.653-1.434 1.097 0 2.507.906 2.507 3.059v.953c-4.804.074-6.617 2.082-6.617 3.922 0 1.886 2.195 2.484 3.656 2.484 1.575 0 2.653-.957 3.106-2.102.094 1.122.836 1.981 1.863 1.981.5 0 1.887-.332 1.887-2.246v-1.336h-.524v1.336c0 1.363-.574 1.555-.91 1.555-.91 0-.91-1.266-.91-1.625zm-1.551 3.008c0 2.343-1.742 3.132-2.773 3.132-1.168 0-2.149-.863-2.149-2.007 0-3.157 4.063-3.442 4.922-3.493zm-55.648-58.711c0-1.289 0-2.246-1.051-3.18-.836-.762-1.91-1.098-2.961-1.098-1.961 0-3.465 1.293-3.465 2.844 0 .692.453 1.027 1.004 1.027.574 0 .981-.406.981-.98 0-.98-.864-.98-1.219-.98.547-1 1.695-1.43 2.648-1.43 1.102 0 2.512.906 2.512 3.055v.957c-4.805.074-6.617 2.082-6.617 3.918 0 1.89 2.195 2.488 3.652 2.488 1.578 0 2.657-.957 3.11-2.106.093 1.125.836 1.985 1.863 1.985.5 0 1.887-.336 1.887-2.246v-1.34h-.524v1.34c0 1.363-.574 1.554-.91 1.554-.91 0-.91-1.269-.91-1.625zm-1.551 3.011c0 2.34-1.742 3.129-2.773 3.129-1.168 0-2.149-.859-2.149-2.007 0-3.153 4.063-3.442 4.922-3.489zm9.883 7.313c-1.527 0-1.816 0-1.816-1.074v-4.16c.429.597 1.41 1.531 2.941 1.531 2.75 0 5.16-2.32 5.16-5.403 0-3.035-2.246-5.375-4.851-5.375-2.102 0-3.223 1.504-3.297 1.598v-1.598l-3.321.262v.692c1.672 0 1.817.168 1.817 1.218v11.235c0 1.074-.266 1.074-1.817 1.074v.691c.621-.047 1.91-.047 2.578-.047.696 0 1.985 0 2.606.047zm-1.816-11.566c0-.454 0-.481.265-.86a3.44 3.44 0 0 1 2.793-1.531c1.793 0 3.227 2.176 3.227 4.851 0 2.844-1.625 4.922-3.465 4.922a2.8 2.8 0 0 1-1.91-.761c-.551-.551-.91-1.028-.91-1.7zm12.953 2.054c0-2.316.957-4.492 2.797-4.492.191 0 .238 0 .335.023-.195.098-.574.243-.574.883 0 .696.547.957.93.957.48 0 .957-.308.957-.957 0-.715-.645-1.383-1.672-1.383-2.031 0-2.726 2.196-2.867 2.653h-.024v-2.653l-3.203.262v.692c1.625 0 1.817.168 1.817 1.339v6.477c0 1.074-.266 1.074-1.817 1.074v.696c.668-.051 1.985-.051 2.7-.051.644 0 2.339 0 2.89.051v-.696h-.476c-1.746 0-1.793-.261-1.793-1.121zm9.265-9.152c0-.621-.5-1.168-1.168-1.168-.621 0-1.148.5-1.148 1.144 0 .715.574 1.172 1.148 1.172.739 0 1.168-.621 1.168-1.148m-3.297 4.445v.692c1.532 0 1.746.144 1.746 1.316v6.5c0 1.074-.261 1.074-1.816 1.074v.696c.668-.051 1.816-.051 2.508-.051.266 0 1.648 0 2.461.051v-.696c-1.551 0-1.649-.121-1.649-1.051v-8.793zm19.297 14.219c-1.531 0-1.816 0-1.816-1.074v-4.16c.43.597 1.406 1.531 2.937 1.531 2.75 0 5.161-2.32 5.161-5.403 0-3.035-2.243-5.375-4.848-5.375-2.106 0-3.227 1.504-3.301 1.598v-1.598l-3.32.262v.692c1.672 0 1.816.168 1.816 1.218v11.235c0 1.074-.262 1.074-1.816 1.074v.691c.621-.047 1.914-.047 2.582-.047.691 0 1.98 0 2.605.047zm-1.816-11.566c0-.454 0-.481.262-.86.718-1.078 1.886-1.531 2.796-1.531 1.79 0 3.223 2.176 3.223 4.851 0 2.844-1.625 4.922-3.465 4.922a2.83 2.83 0 0 1-1.91-.761c-.551-.551-.906-1.028-.906-1.7zm20.629 2.507c0-3.082-2.34-5.543-5.114-5.543-2.867 0-5.136 2.536-5.136 5.543 0 3.063 2.386 5.356 5.113 5.356 2.816 0 5.137-2.344 5.137-5.356m-5.114 4.828c-.886 0-1.96-.382-2.652-1.554-.648-1.074-.672-2.485-.672-3.488 0-.907 0-2.364.742-3.442a3.07 3.07 0 0 1 2.559-1.406c.93 0 1.934.43 2.578 1.359.742 1.102.742 2.606.742 3.489 0 .839 0 2.32-.621 3.441-.668 1.148-1.769 1.601-2.676 1.601m9.836-5.281c0-2.316.957-4.492 2.793-4.492.196 0 .243 0 .336.023-.191.098-.574.243-.574.883 0 .696.551.957.934.957.476 0 .957-.308.957-.957 0-.715-.645-1.383-1.672-1.383-2.035 0-2.727 2.196-2.871 2.653h-.024v-2.653l-3.203.262v.692c1.625 0 1.821.168 1.821 1.339v6.477c0 1.074-.266 1.074-1.821 1.074v.696c.672-.051 1.985-.051 2.703-.051.645 0 2.34 0 2.891.051v-.696h-.477c-1.746 0-1.793-.261-1.793-1.121zm9.122-4.039h3.371v-.691h-3.371v-4.399h-.524c-.023 2.246-.883 4.543-3.059 4.614v.476h2.032v6.645c0 2.652 1.769 3.203 3.035 3.203 1.504 0 2.293-1.481 2.293-3.203v-1.364h-.527v1.317c0 1.719-.692 2.722-1.625 2.722-1.625 0-1.625-2.222-1.625-2.628zm14.308 3.227c0-1.289 0-2.246-1.047-3.18-.84-.762-1.914-1.098-2.965-1.098-1.961 0-3.464 1.293-3.464 2.844 0 .692.453 1.027 1.003 1.027.575 0 .981-.406.981-.98 0-.98-.863-.98-1.219-.98.551-1 1.695-1.43 2.653-1.43 1.097 0 2.507.906 2.507 3.055v.957c-4.804.074-6.617 2.082-6.617 3.918 0 1.89 2.195 2.488 3.656 2.488 1.575 0 2.653-.957 3.106-2.106.094 1.125.836 1.985 1.863 1.985.5 0 1.887-.336 1.887-2.246v-1.34h-.524v1.34c0 1.363-.574 1.554-.91 1.554-.91 0-.91-1.269-.91-1.625zm-1.551 3.011c0 2.34-1.742 3.129-2.773 3.129-1.168 0-2.149-.859-2.149-2.007 0-3.153 4.063-3.442 4.922-3.489zm-120.879-52.199c0-2.316.957-4.492 2.793-4.492.196 0 .243 0 .336.023-.191.098-.574.243-.574.883 0 .696.551.957.934.957.476 0 .957-.308.957-.957 0-.715-.645-1.383-1.672-1.383-2.035 0-2.727 2.196-2.871 2.653h-.024v-2.653l-3.203.262v.692c1.625 0 1.821.168 1.821 1.339v6.477c0 1.074-.266 1.074-1.821 1.074v.696c.672-.051 1.985-.051 2.703-.051.645 0 2.34 0 2.891.051v-.696h-.477c-1.746 0-1.793-.261-1.793-1.121zm9.266-9.152c0-.621-.5-1.168-1.168-1.168-.625 0-1.148.5-1.148 1.144 0 .715.574 1.172 1.148 1.172.738 0 1.168-.621 1.168-1.148m-3.297 4.445v.692c1.528 0 1.746.144 1.746 1.316v6.5c0 1.074-.265 1.074-1.816 1.074v.696c.668-.051 1.816-.051 2.508-.051.261 0 1.648 0 2.461.051v-.696c-1.551 0-1.649-.121-1.649-1.051v-8.793zm11.496 14.219c-1.531 0-1.816 0-1.816-1.074v-4.16c.43.597 1.406 1.531 2.937 1.531 2.75 0 5.161-2.32 5.161-5.403 0-3.035-2.243-5.375-4.848-5.375-2.106 0-3.227 1.504-3.301 1.598v-1.598l-3.32.262v.692c1.672 0 1.816.168 1.816 1.218v11.235c0 1.074-.262 1.074-1.816 1.074v.691c.621-.047 1.914-.047 2.582-.047.691 0 1.98 0 2.605.047zm-1.816-11.566c0-.454 0-.481.262-.86.718-1.078 1.886-1.531 2.796-1.531 1.79 0 3.223 2.176 3.223 4.851 0 2.844-1.625 4.922-3.465 4.922a2.83 2.83 0 0 1-1.91-.761c-.551-.551-.906-1.028-.906-1.7zm18.715 2.078c.523 0 .574 0 .574-.453 0-2.415-1.293-4.661-4.184-4.661-2.726 0-4.828 2.461-4.828 5.426 0 3.153 2.438 5.473 5.09 5.473 2.844 0 3.922-2.582 3.922-3.082 0-.145-.121-.242-.266-.242-.191 0-.242.121-.285.242-.625 2.008-2.223 2.554-3.226 2.554s-3.418-.667-3.418-4.804v-.453zm-6.598-.453c.191-3.75 2.297-4.18 2.965-4.18 2.555 0 2.699 3.367 2.723 4.18zm11.856-3.61h3.371v-.691h-3.371v-4.399h-.524c-.023 2.246-.883 4.543-3.059 4.614v.476h2.032v6.645c0 2.652 1.769 3.203 3.035 3.203 1.504 0 2.293-1.481 2.293-3.203v-1.364h-.527v1.317c0 1.719-.692 2.722-1.625 2.722-1.625 0-1.625-2.222-1.625-2.628zm9.343-5.113c0-.621-.5-1.168-1.168-1.168-.621 0-1.148.5-1.148 1.144 0 .715.574 1.172 1.148 1.172.739 0 1.168-.621 1.168-1.148m-3.297 4.445v.692c1.532 0 1.746.144 1.746 1.316v6.5c0 1.074-.261 1.074-1.816 1.074v.696c.668-.051 1.816-.051 2.508-.051.266 0 1.648 0 2.461.051v-.696c-1.551 0-1.649-.121-1.649-1.051v-8.793zm23.954 6.262h-.524c-.07.406-.262 1.719-.5 2.101-.168.215-1.531.215-2.25.215h-4.418c.645-.55 2.102-2.078 2.723-2.648 3.633-3.348 4.969-4.594 4.969-6.957 0-2.75-2.172-4.586-4.946-4.586s-4.398 2.363-4.398 4.418c0 1.219 1.054 1.219 1.125 1.219.5 0 1.125-.356 1.125-1.121 0-.672-.457-1.125-1.125-1.125-.215 0-.262 0-.336.027.457-1.625 1.746-2.727 3.301-2.727 2.031 0 3.273 1.696 3.273 3.895 0 2.031-1.172 3.801-2.535 5.332l-4.828 5.398v.575h8.726zm18.738-4.016c.215-.523.621-1.554 2.148-1.578v-.691c-.691.047-1.027.047-1.765.047-.504 0-.864 0-1.961-.047v.691c1.004.047 1.121.766 1.121 1.028 0 .214-.047.335-.164.621l-2.438 6.168-2.679-6.739c-.118-.336-.141-.336-.141-.457 0-.621.906-.621 1.336-.621v-.691c-.594.047-1.84.047-2.485.047-.789 0-.835 0-2.293-.047v.691c1.34 0 1.579.098 1.864.836l3.418 8.555c.121.336.168.457.453.457.168 0 .312-.051.48-.457zm12.918 2.914c0-3.082-2.34-5.543-5.114-5.543-2.867 0-5.136 2.536-5.136 5.543 0 3.063 2.386 5.356 5.113 5.356 2.816 0 5.137-2.344 5.137-5.356m-5.114 4.828c-.886 0-1.96-.382-2.652-1.554-.648-1.074-.672-2.485-.672-3.488 0-.907 0-2.364.742-3.442a3.07 3.07 0 0 1 2.559-1.406c.93 0 1.934.43 2.578 1.359.742 1.102.742 2.606.742 3.489 0 .839 0 2.32-.621 3.441-.668 1.148-1.769 1.601-2.676 1.601m9.958-16.296-3.325.261v.696c1.625 0 1.817.168 1.817 1.336v12.523c0 1.074-.262 1.074-1.817 1.074v.696c.668-.051 1.84-.051 2.559-.051.715 0 1.91 0 2.582.051v-.696c-1.531 0-1.816 0-1.816-1.074zm6.402 6.976h3.371v-.691h-3.371v-4.399h-.527c-.024 2.246-.883 4.543-3.059 4.614v.476h2.031v6.645c0 2.652 1.77 3.203 3.035 3.203 1.508 0 2.297-1.481 2.297-3.203v-1.364h-.527v1.317c0 1.719-.692 2.722-1.625 2.722-1.625 0-1.625-2.222-1.625-2.628zm14.238 4.063c.524 0 .574 0 .574-.453 0-2.415-1.293-4.661-4.183-4.661-2.723 0-4.828 2.461-4.828 5.426 0 3.153 2.437 5.473 5.089 5.473 2.844 0 3.922-2.582 3.922-3.082 0-.145-.121-.242-.265-.242-.192 0-.239.121-.285.242-.622 2.008-2.223 2.554-3.227 2.554s-3.418-.667-3.418-4.804v-.453zm-6.598-.453c.192-3.75 2.297-4.18 2.965-4.18 2.559 0 2.7 3.367 2.723 4.18zm12.243-3.157c0-.64-.551-1.144-1.149-1.144-.691 0-1.168.551-1.168 1.144 0 .719.598 1.172 1.145 1.172.644 0 1.172-.5 1.172-1.172m0 7.985c0-.645-.551-1.149-1.149-1.149-.691 0-1.168.551-1.168 1.149 0 .715.598 1.172 1.145 1.172.644 0 1.172-.504 1.172-1.172m-127.176-62.211c0-1.289 0-2.246-1.051-3.18-.836-.762-1.91-1.098-2.961-1.098-1.961 0-3.465 1.293-3.465 2.844 0 .692.453 1.027 1.004 1.027.574 0 .981-.406.981-.98 0-.98-.864-.98-1.219-.98.547-1 1.695-1.43 2.648-1.43 1.102 0 2.512.906 2.512 3.055v.957c-4.805.074-6.617 2.082-6.617 3.918 0 1.89 2.195 2.488 3.652 2.488 1.578 0 2.657-.957 3.11-2.106.093 1.125.836 1.985 1.863 1.985.5 0 1.887-.336 1.887-2.246v-1.34h-.524v1.34c0 1.363-.574 1.554-.91 1.554-.91 0-.91-1.269-.91-1.625zm-1.551 3.011c0 2.34-1.742 3.129-2.773 3.129-1.168 0-2.149-.859-2.149-2.007 0-3.153 4.063-3.442 4.922-3.489zm13.078-4.66c.215-.523.621-1.554 2.153-1.578v-.691c-.696.047-1.028.047-1.77.047-.504 0-.859 0-1.961-.047v.691c1.008.047 1.125.766 1.125 1.028 0 .214-.047.335-.168.621l-2.437 6.168-2.676-6.739c-.121-.336-.145-.336-.145-.457 0-.621.91-.621 1.34-.621v-.691c-.597.047-1.84.047-2.484.047-.789 0-.836 0-2.297-.047v.691c1.34 0 1.578.098 1.863.836l3.418 8.555c.121.336.168.457.457.457.164 0 .309-.051.477-.457zm10.574 1.649c0-1.289 0-2.246-1.05-3.18-.836-.762-1.91-1.098-2.965-1.098-1.957 0-3.465 1.293-3.465 2.844 0 .692.453 1.027 1.004 1.027.574 0 .98-.406.98-.98 0-.98-.859-.98-1.218-.98.55-1 1.699-1.43 2.652-1.43 1.102 0 2.508.906 2.508 3.055v.957c-4.801.074-6.617 2.082-6.617 3.918 0 1.89 2.199 2.488 3.656 2.488 1.578 0 2.652-.957 3.105-2.106.098 1.125.836 1.985 1.864 1.985.503 0 1.89-.336 1.89-2.246v-1.34h-.527v1.34c0 1.363-.574 1.554-.906 1.554-.911 0-.911-1.269-.911-1.625zm-1.554 3.011c0 2.34-1.742 3.129-2.77 3.129-1.172 0-2.152-.859-2.152-2.007 0-3.153 4.062-3.442 4.922-3.489zm14.664-2.437c0-2.223 0-2.891-.547-3.656-.695-.934-1.816-1.075-2.629-1.075-2.32 0-3.227 1.985-3.418 2.461h-.023v-2.461l-3.25.262v.692c1.625 0 1.816.168 1.816 1.339v6.477c0 1.074-.262 1.074-1.816 1.074v.696c.621-.051 1.91-.051 2.578-.051.695 0 1.984 0 2.605.051v-.696c-1.527 0-1.816 0-1.816-1.074v-4.445c0-2.508 1.648-3.848 3.133-3.848 1.48 0 1.816 1.219 1.816 2.676v5.617c0 1.074-.266 1.074-1.816 1.074v.696c.621-.051 1.91-.051 2.578-.051.695 0 1.984 0 2.605.051v-.696c-1.195 0-1.793 0-1.816-.715zm11.472-3.824c.215-.262.215-.309.215-.407 0-.261-.168-.261-.574-.261h-7.504l-.262 3.801h.528c.14-2.442.594-3.325 3.199-3.325h2.773l-6.835 9.395c0 .43.05.43.574.43h7.789l.383-4.399h-.524c-.219 2.723-.625 3.871-3.469 3.871h-2.89zm10.516 3.25c0-1.289 0-2.246-1.047-3.18-.84-.762-1.914-1.098-2.965-1.098-1.961 0-3.464 1.293-3.464 2.844 0 .692.453 1.027 1.003 1.027.575 0 .981-.406.981-.98 0-.98-.863-.98-1.219-.98.551-1 1.695-1.43 2.653-1.43 1.097 0 2.507.906 2.507 3.055v.957c-4.804.074-6.617 2.082-6.617 3.918 0 1.89 2.195 2.488 3.656 2.488 1.575 0 2.653-.957 3.106-2.106.094 1.125.836 1.985 1.863 1.985.5 0 1.887-.336 1.887-2.246v-1.34h-.524v1.34c0 1.363-.574 1.554-.91 1.554-.91 0-.91-1.269-.91-1.625zm-1.551 3.011c0 2.34-1.742 3.129-2.773 3.129-1.168 0-2.149-.859-2.149-2.007 0-3.153 4.063-3.442 4.922-3.489zm-47.976-60.433c0-4.945-3.629-8.719-7.789-8.719-4.254 0-7.813 3.82-7.813 8.719 0 4.851 3.606 8.605 7.789 8.605 4.278 0 7.813-3.8 7.813-8.605m-7.789 8.055c-2.438 0-5.59-2.293-5.59-8.411 0-5.855 3.32-7.839 5.566-7.839 2.367 0 5.59 2.054 5.59 7.839 0 6.211-3.25 8.411-5.566 8.411m14.949 3.992c-1.527 0-1.816 0-1.816-1.078v-4.157c.429.598 1.41 1.532 2.941 1.532 2.75 0 5.16-2.321 5.16-5.403 0-3.035-2.246-5.379-4.851-5.379-2.102 0-3.223 1.508-3.297 1.602v-1.602l-3.321.266v.691c1.672 0 1.817.168 1.817 1.219v11.231c0 1.078-.266 1.078-1.817 1.078v.691c.621-.047 1.91-.047 2.578-.047.696 0 1.985 0 2.606.047zm-1.816-11.567c0-.453 0-.48.265-.859a3.44 3.44 0 0 1 2.793-1.531c1.793 0 3.227 2.175 3.227 4.851 0 2.844-1.625 4.922-3.465 4.922a2.8 2.8 0 0 1-1.91-.762c-.551-.55-.91-1.031-.91-1.699zm18.066-2.007c.215-.262.215-.309.215-.407 0-.261-.164-.261-.571-.261h-7.507l-.262 3.796h.527c.141-2.437.598-3.32 3.203-3.32h2.77l-6.832 9.391c0 .429.047.429.57.429h7.793l.379-4.394h-.523c-.215 2.723-.621 3.871-3.465 3.871h-2.891zm5.453-5.09c0-.621-.5-1.172-1.168-1.172-.625 0-1.148.504-1.148 1.148 0 .715.574 1.172 1.148 1.172.738 0 1.168-.625 1.168-1.148m-3.297 4.445v.691c1.528 0 1.746.145 1.746 1.317v6.5c0 1.074-.265 1.074-1.816 1.074v.691c.668-.046 1.816-.046 2.508-.046.261 0 1.648 0 2.461.046v-.691c-1.551 0-1.649-.121-1.649-1.051v-8.797zm16.61 5.16c0-3.082-2.344-5.543-5.114-5.543-2.867 0-5.14 2.531-5.14 5.543 0 3.059 2.39 5.356 5.117 5.356 2.816 0 5.137-2.344 5.137-5.356m-5.114 4.828c-.886 0-1.961-.383-2.652-1.554-.649-1.075-.672-2.485-.672-3.489 0-.91 0-2.367.742-3.441a3.06 3.06 0 0 1 2.559-1.41c.93 0 1.933.429 2.578 1.363.742 1.098.742 2.605.742 3.488 0 .836 0 2.321-.621 3.442-.668 1.148-1.769 1.601-2.676 1.601m16.477-5.519c0-2.223 0-2.891-.547-3.657-.695-.933-1.816-1.078-2.629-1.078-2.32 0-3.227 1.985-3.418 2.465h-.023v-2.465l-3.25.266v.691c1.625 0 1.816.168 1.816 1.34v6.477c0 1.074-.262 1.074-1.816 1.074v.691c.621-.046 1.91-.046 2.578-.046.695 0 1.984 0 2.605.046v-.691c-1.527 0-1.816 0-1.816-1.074v-4.446c0-2.507 1.648-3.847 3.133-3.847 1.48 0 1.816 1.219 1.816 2.676v5.617c0 1.074-.266 1.074-1.816 1.074v.691c.621-.046 1.91-.046 2.578-.046.695 0 1.984 0 2.605.046v-.691c-1.195 0-1.793 0-1.816-.715zm11.519.261c.528 0 .575 0 .575-.453 0-2.414-1.289-4.66-4.184-4.66-2.723 0-4.824 2.461-4.824 5.426 0 3.152 2.437 5.473 5.086 5.473 2.843 0 3.922-2.582 3.922-3.086 0-.145-.122-.239-.262-.239-.192 0-.242.121-.289.239-.621 2.007-2.223 2.558-3.227 2.558s-3.418-.668-3.418-4.804v-.454zm-6.597-.453c.191-3.754 2.297-4.183 2.965-4.183 2.558 0 2.699 3.371 2.722 4.183zm26.16 1.985h-.527c-.071.406-.262 1.718-.5 2.101-.168.215-1.532.215-2.247.215h-4.421c.644-.551 2.101-2.078 2.722-2.652 3.637-3.348 4.973-4.59 4.973-6.953 0-2.75-2.176-4.59-4.949-4.59-2.77 0-4.395 2.367-4.395 4.422 0 1.218 1.051 1.218 1.121 1.218.504 0 1.125-.359 1.125-1.125 0-.668-.453-1.121-1.125-1.121-.211 0-.262 0-.332.024.453-1.625 1.746-2.723 3.297-2.723 2.031 0 3.273 1.695 3.273 3.895 0 2.031-1.167 3.8-2.531 5.328l-4.828 5.402v.57h8.723zm5.582-5.141c0-.644-.551-1.144-1.149-1.144-.691 0-1.168.546-1.168 1.144 0 .719.598 1.172 1.149 1.172.644 0 1.168-.5 1.168-1.172m0 7.984c0-.644-.551-1.148-1.149-1.148-.691 0-1.168.551-1.168 1.148 0 .715.598 1.168 1.149 1.168.644 0 1.168-.5 1.168-1.168M452.535-89.305c0-2.226 0-2.894-.551-3.656-.691-.933-1.816-1.078-2.629-1.078-1.984 0-2.988 1.433-3.371 2.367-.332-1.84-1.625-2.367-3.129-2.367-2.316 0-3.226 1.984-3.417 2.46h-.024v-2.46l-3.25.266v.691c1.625 0 1.816.168 1.816 1.34v6.473c0 1.074-.261 1.074-1.816 1.074v.695c.621-.047 1.914-.047 2.582-.047.692 0 1.984 0 2.606.047v-.695c-1.532 0-1.817 0-1.817-1.075v-4.44c0-2.513 1.649-3.853 3.129-3.853 1.484 0 1.816 1.22 1.816 2.68v5.614c0 1.074-.261 1.074-1.816 1.074v.695c.621-.047 1.914-.047 2.582-.047.692 0 1.981 0 2.606.047v-.695c-1.532 0-1.817 0-1.817-1.075v-4.44c0-2.513 1.649-3.853 3.129-3.853 1.481 0 1.816 1.22 1.816 2.68v5.614c0 1.074-.261 1.074-1.816 1.074v.695c.621-.047 1.914-.047 2.582-.047.692 0 1.981 0 2.606.047v-.695c-1.196 0-1.793 0-1.817-.715zm11.586-.574c0-1.293 0-2.246-1.047-3.18-.84-.765-1.914-1.097-2.965-1.097-1.961 0-3.464 1.289-3.464 2.844 0 .69.453 1.027 1.003 1.027.575 0 .981-.406.981-.98 0-.981-.863-.981-1.219-.981.551-1.004 1.695-1.434 2.653-1.434 1.097 0 2.507.907 2.507 3.059v.957c-4.804.07-6.617 2.078-6.617 3.918 0 1.887 2.195 2.484 3.656 2.484 1.575 0 2.653-.957 3.106-2.101.094 1.12.836 1.98 1.863 1.98.5 0 1.887-.332 1.887-2.242v-1.34h-.524v1.34c0 1.36-.574 1.55-.91 1.55-.91 0-.91-1.265-.91-1.624zm-1.551 3.012c0 2.34-1.742 3.129-2.773 3.129-1.168 0-2.149-.864-2.149-2.008 0-3.152 4.063-3.442 4.922-3.488zm14.664-2.438c0-2.226 0-2.894-.55-3.656-.692-.933-1.817-1.078-2.629-1.078-2.317 0-3.227 1.984-3.414 2.46h-.028v-2.46l-3.25.266v.691c1.625 0 1.817.168 1.817 1.34v6.473c0 1.074-.262 1.074-1.817 1.074v.695c.621-.047 1.914-.047 2.582-.047.696 0 1.985 0 2.606.047v-.695c-1.531 0-1.817 0-1.817-1.075v-4.44c0-2.513 1.649-3.853 3.129-3.853 1.485 0 1.817 1.22 1.817 2.68v5.614c0 1.074-.262 1.074-1.817 1.074v.695c.621-.047 1.914-.047 2.582-.047.696 0 1.985 0 2.606.047v-.695c-1.196 0-1.793 0-1.817-.715zm5.211 1.481c1.121.738 2.078.738 2.34.738 2.153 0 3.754-1.625 3.754-3.465 0-.644-.191-1.55-.957-2.316.934-.957 2.055-.957 2.176-.957.094 0 .215 0 .308.05-.238.094-.359.333-.359.594 0 .336.238.625.621.625.192 0 .625-.12.625-.648 0-.43-.336-1.098-1.172-1.098-1.242 0-2.176.766-2.511 1.121-.715-.547-1.551-.86-2.461-.86-2.149 0-3.75 1.626-3.75 3.466 0 1.363.836 2.246 1.074 2.46-.285.36-.715 1.052-.715 1.985 0 1.387.836 1.985 1.027 2.106-1.101.308-2.199 1.167-2.199 2.41 0 1.648 2.246 3.011 5.184 3.011 2.843 0 5.211-1.265 5.211-3.058 0-.598-.168-2.008-1.602-2.746-1.219-.625-2.414-.625-4.469-.625-1.457 0-1.625 0-2.054-.453-.239-.239-.453-.692-.453-1.196 0-.406.14-.812.382-1.144m2.364.238c-2.102 0-2.102-2.414-2.102-2.965 0-.43 0-1.41.406-2.055a2.04 2.04 0 0 1 1.672-.93c2.106 0 2.106 2.411 2.106 2.962 0 .43 0 1.41-.407 2.055a2.04 2.04 0 0 1-1.675.933m.644 8.484c-2.293 0-4.035-1.171-4.035-2.535 0-.191.047-1.12.953-1.746.527-.332.742-.332 2.414-.332 1.985 0 4.684 0 4.684 2.078 0 1.41-1.817 2.535-4.016 2.535m10.004-19.117c0-.625-.5-1.172-1.168-1.172-.621 0-1.148.5-1.148 1.149a1.15 1.15 0 0 0 1.148 1.168c.738 0 1.168-.621 1.168-1.145m-3.297 4.446v.691c1.528 0 1.746.144 1.746 1.313v6.5c0 1.074-.265 1.074-1.816 1.074v.695c.668-.047 1.816-.047 2.508-.047.261 0 1.648 0 2.461.047v-.695c-1.551 0-1.649-.118-1.649-1.047v-8.797zm14.863 3.894c0-1.293 0-2.246-1.05-3.18-.836-.765-1.91-1.097-2.965-1.097-1.957 0-3.465 1.289-3.465 2.844 0 .69.453 1.027 1.004 1.027.574 0 .98-.406.98-.98 0-.981-.859-.981-1.218-.981.55-1.004 1.699-1.434 2.652-1.434 1.102 0 2.508.907 2.508 3.059v.957c-4.801.07-6.617 2.078-6.617 3.918 0 1.887 2.199 2.484 3.656 2.484 1.578 0 2.652-.957 3.105-2.101.098 1.12.836 1.98 1.864 1.98.503 0 1.89-.332 1.89-2.242v-1.34h-.527v1.34c0 1.36-.574 1.55-.906 1.55-.911 0-.911-1.265-.911-1.624zm-1.554 3.012c0 2.34-1.742 3.129-2.77 3.129-1.172 0-2.152-.864-2.152-2.008 0-3.152 4.062-3.442 4.922-3.488zm20.48-5.477c-.285 0-1.168 0-1.168.98 0 .575.407.981.977.981.551 0 1.004-.336 1.004-1.027 0-1.602-1.672-2.746-3.606-2.746-2.797 0-5.019 2.484-5.019 5.496 0 3.058 2.293 5.398 4.996 5.398 3.152 0 3.871-2.867 3.871-3.082s-.168-.215-.242-.215c-.215 0-.239.07-.309.36-.527 1.695-1.816 2.41-3.109 2.41-1.457 0-3.391-1.266-3.391-4.898 0-3.965 2.031-4.946 3.227-4.946.906 0 2.222.36 2.769 1.29m10.973 2.464c0-1.293 0-2.246-1.051-3.18-.836-.765-1.91-1.097-2.961-1.097-1.961 0-3.465 1.289-3.465 2.844 0 .69.453 1.027 1.004 1.027.574 0 .981-.406.981-.98 0-.981-.864-.981-1.219-.981.547-1.004 1.695-1.434 2.648-1.434 1.102 0 2.512.907 2.512 3.059v.957c-4.805.07-6.617 2.078-6.617 3.918 0 1.887 2.195 2.484 3.652 2.484 1.578 0 2.657-.957 3.11-2.101.093 1.12.836 1.98 1.863 1.98.5 0 1.887-.332 1.887-2.242v-1.34h-.524v1.34c0 1.36-.574 1.55-.91 1.55-.91 0-.91-1.265-.91-1.624zm-1.551 3.012c0 2.34-1.742 3.129-2.773 3.129-1.168 0-2.149-.864-2.149-2.008 0-3.152 4.063-3.442 4.922-3.488zm8.02-2.199c0-2.32.957-4.496 2.797-4.496.191 0 .238 0 .335.027-.195.094-.574.238-.574.883 0 .691.547.957.93.957.48 0 .957-.313.957-.957 0-.715-.645-1.387-1.672-1.387-2.031 0-2.726 2.2-2.867 2.652h-.024v-2.652l-3.203.266v.691c1.625 0 1.817.168 1.817 1.34v6.473c0 1.074-.266 1.074-1.817 1.074v.695c.668-.047 1.985-.047 2.7-.047.644 0 2.339 0 2.89.047v-.695h-.476c-1.746 0-1.793-.262-1.793-1.121zm16.078.453c0-3.082-2.34-5.543-5.114-5.543-2.867 0-5.136 2.531-5.136 5.543 0 3.058 2.386 5.351 5.113 5.351 2.816 0 5.137-2.34 5.137-5.351m-5.114 4.824c-.886 0-1.96-.379-2.652-1.55-.648-1.075-.672-2.485-.672-3.49 0-.91 0-2.366.742-3.44a3.06 3.06 0 0 1 2.559-1.41c.93 0 1.934.429 2.578 1.363.742 1.097.742 2.605.742 3.488 0 .836 0 2.316-.621 3.441-.668 1.145-1.769 1.598-2.676 1.598m9.86-9.316h3.371v-.696h-3.371v-4.394h-.527c-.02 2.246-.883 4.539-3.059 4.61v.48h2.031v6.644c0 2.648 1.77 3.2 3.035 3.2 1.508 0 2.297-1.481 2.297-3.2v-1.363h-.527v1.312c0 1.723-.692 2.723-1.625 2.723-1.625 0-1.625-2.219-1.625-2.625zm14.308 3.226c0-1.293 0-2.246-1.05-3.18-.836-.765-1.91-1.097-2.965-1.097-1.957 0-3.465 1.289-3.465 2.844 0 .69.453 1.027 1.004 1.027.574 0 .98-.406.98-.98 0-.981-.859-.981-1.218-.981.55-1.004 1.699-1.434 2.652-1.434 1.102 0 2.508.907 2.508 3.059v.957c-4.801.07-6.617 2.078-6.617 3.918 0 1.887 2.199 2.484 3.656 2.484 1.578 0 2.652-.957 3.105-2.101.098 1.12.836 1.98 1.864 1.98.503 0 1.89-.332 1.89-2.242v-1.34h-.527v1.34c0 1.36-.574 1.55-.906 1.55-.911 0-.911-1.265-.911-1.624zm-1.554 3.012c0 2.34-1.742 3.129-2.77 3.129-1.172 0-2.152-.864-2.152-2.008 0-3.152 4.062-3.442 4.922-3.488zm-106.848-75.711c0-1.293 0-2.25-1.047-3.18-.84-.765-1.914-1.101-2.965-1.101-1.961 0-3.464 1.293-3.464 2.843 0 .696.453 1.032 1.003 1.032.575 0 .981-.407.981-.985 0-.976-.863-.976-1.219-.976.551-1.004 1.695-1.434 2.653-1.434 1.097 0 2.507.906 2.507 3.059v.953c-4.804.074-6.617 2.082-6.617 3.922 0 1.886 2.195 2.484 3.656 2.484 1.575 0 2.653-.957 3.106-2.102.094 1.122.836 1.981 1.863 1.981.5 0 1.887-.332 1.887-2.246v-1.336h-.524v1.336c0 1.363-.574 1.555-.91 1.555-.91 0-.91-1.266-.91-1.625zm-1.551 3.008c0 2.343-1.742 3.132-2.773 3.132-1.168 0-2.149-.863-2.149-2.007 0-3.157 4.063-3.442 4.922-3.493zm13.078-4.66c.219-.524.625-1.551 2.153-1.575v-.695c-.692.047-1.028.047-1.77.047-.5 0-.859 0-1.957-.047v.695c1.004.047 1.121.762 1.121 1.024 0 .218-.047.336-.168.625l-2.437 6.164-2.676-6.738c-.117-.336-.141-.336-.141-.458 0-.617.907-.617 1.336-.617v-.695c-.597.047-1.839.047-2.484.047-.789 0-.836 0-2.297-.047v.695c1.34 0 1.578.094 1.867.836l3.414 8.555c.121.332.168.453.457.453.168 0 .313-.047.477-.453zm10.575 1.652c0-1.293 0-2.25-1.051-3.18-.836-.765-1.91-1.101-2.961-1.101-1.961 0-3.469 1.293-3.469 2.843 0 .696.457 1.032 1.004 1.032.574 0 .981-.407.981-.985 0-.976-.86-.976-1.219-.976.551-1.004 1.699-1.434 2.652-1.434 1.102 0 2.512.906 2.512 3.059v.953c-4.805.074-6.621 2.082-6.621 3.922 0 1.886 2.199 2.484 3.656 2.484 1.578 0 2.652-.957 3.106-2.102.097 1.122.835 1.981 1.867 1.981.5 0 1.886-.332 1.886-2.246v-1.336h-.523v1.336c0 1.363-.574 1.555-.91 1.555-.91 0-.91-1.266-.91-1.625zm-1.551 3.008c0 2.343-1.746 3.132-2.774 3.132-1.171 0-2.152-.863-2.152-2.007 0-3.157 4.067-3.442 4.926-3.493zm14.664-2.438c0-2.222 0-2.89-.551-3.656-.695-.93-1.816-1.074-2.629-1.074-2.316 0-3.226 1.984-3.418 2.461h-.023v-2.461l-3.25.261v.696c1.625 0 1.816.164 1.816 1.336v6.476c0 1.074-.261 1.074-1.816 1.074v.696c.621-.047 1.914-.047 2.582-.047.691 0 1.984 0 2.601.047v-.696c-1.527 0-1.812 0-1.812-1.074v-4.445c0-2.508 1.648-3.848 3.129-3.848 1.48 0 1.816 1.219 1.816 2.676v5.617c0 1.074-.265 1.074-1.816 1.074v.696c.621-.047 1.914-.047 2.582-.047.691 0 1.98 0 2.601.047v-.696c-1.195 0-1.789 0-1.812-.714zm11.469-3.82c.215-.266.215-.313.215-.406 0-.266-.168-.266-.575-.266h-7.504l-.261 3.801h.527c.141-2.438.598-3.324 3.199-3.324h2.774l-6.836 9.394c0 .43.051.43.574.43h7.793l.379-4.399h-.524c-.214 2.727-.621 3.871-3.464 3.871h-2.891zm10.519 3.25c0-1.293 0-2.25-1.051-3.18-.835-.765-1.914-1.101-2.964-1.101-1.957 0-3.465 1.293-3.465 2.843 0 .696.453 1.032 1.004 1.032.574 0 .98-.407.98-.985 0-.976-.859-.976-1.219-.976.551-1.004 1.696-1.434 2.653-1.434 1.097 0 2.508.906 2.508 3.059v.953c-4.801.074-6.618 2.082-6.618 3.922 0 1.886 2.2 2.484 3.657 2.484 1.574 0 2.652-.957 3.105-2.102.094 1.122.836 1.981 1.863 1.981.504 0 1.891-.332 1.891-2.246v-1.336h-.527v1.336c0 1.363-.575 1.555-.907 1.555-.91 0-.91-1.266-.91-1.625zm-1.554 3.008c0 2.343-1.743 3.132-2.774 3.132-1.168 0-2.148-.863-2.148-2.007 0-3.157 4.062-3.442 4.922-3.493zm-55.649-58.711c0-1.289 0-2.246-1.047-3.18-.84-.762-1.914-1.098-2.965-1.098-1.961 0-3.464 1.293-3.464 2.844 0 .692.453 1.027 1.003 1.027.575 0 .981-.406.981-.98 0-.98-.863-.98-1.219-.98.551-1 1.695-1.43 2.653-1.43 1.097 0 2.507.906 2.507 3.055v.957c-4.804.074-6.617 2.082-6.617 3.918 0 1.89 2.195 2.488 3.656 2.488 1.575 0 2.653-.957 3.106-2.106.094 1.125.836 1.985 1.863 1.985.5 0 1.887-.336 1.887-2.246v-1.34h-.524v1.34c0 1.363-.574 1.554-.91 1.554-.91 0-.91-1.269-.91-1.625zm-1.551 3.011c0 2.34-1.742 3.129-2.773 3.129-1.168 0-2.149-.859-2.149-2.007 0-3.153 4.063-3.442 4.922-3.489zm9.883 7.313c-1.527 0-1.812 0-1.812-1.074v-4.16c.429.597 1.406 1.531 2.937 1.531 2.75 0 5.16-2.32 5.16-5.403 0-3.035-2.246-5.375-4.847-5.375-2.106 0-3.227 1.504-3.301 1.598v-1.598l-3.32.262v.692c1.671 0 1.816.168 1.816 1.218v11.235c0 1.074-.266 1.074-1.816 1.074v.691c.621-.047 1.91-.047 2.582-.047.691 0 1.98 0 2.601.047zm-1.812-11.566c0-.454 0-.481.261-.86a3.44 3.44 0 0 1 2.793-1.531c1.793 0 3.227 2.176 3.227 4.851 0 2.844-1.625 4.922-3.465 4.922a2.82 2.82 0 0 1-1.91-.761c-.551-.551-.906-1.028-.906-1.7zm12.949 2.054c0-2.316.957-4.492 2.797-4.492.191 0 .238 0 .336.023-.192.098-.575.243-.575.883 0 .696.547.957.93.957.481 0 .957-.308.957-.957 0-.715-.644-1.383-1.672-1.383-2.031 0-2.722 2.196-2.867 2.653h-.023v-2.653l-3.203.262v.692c1.625 0 1.816.168 1.816 1.339v6.477c0 1.074-.266 1.074-1.816 1.074v.696c.668-.051 1.984-.051 2.699-.051.644 0 2.344 0 2.89.051v-.696h-.476c-1.742 0-1.793-.261-1.793-1.121zm9.269-9.152c0-.621-.504-1.168-1.171-1.168-.622 0-1.145.5-1.145 1.144 0 .715.57 1.172 1.145 1.172.742 0 1.171-.621 1.171-1.148m-3.296 4.445v.692c1.527 0 1.742.144 1.742 1.316v6.5c0 1.074-.262 1.074-1.817 1.074v.696c.668-.051 1.817-.051 2.508-.051.266 0 1.652 0 2.465.051v-.696c-1.555 0-1.648-.121-1.648-1.051v-8.793zm19.292 14.219c-1.531 0-1.816 0-1.816-1.074v-4.16c.43.597 1.41 1.531 2.938 1.531 2.75 0 5.164-2.32 5.164-5.403 0-3.035-2.246-5.375-4.852-5.375-2.101 0-3.226 1.504-3.297 1.598v-1.598l-3.324.262v.692c1.676 0 1.816.168 1.816 1.218v11.235c0 1.074-.261 1.074-1.816 1.074v.691c.625-.047 1.914-.047 2.582-.047.691 0 1.984 0 2.605.047zm-1.816-11.566c0-.454 0-.481.262-.86.719-1.078 1.887-1.531 2.797-1.531 1.793 0 3.226 2.176 3.226 4.851 0 2.844-1.625 4.922-3.465 4.922a2.83 2.83 0 0 1-1.914-.761c-.547-.551-.906-1.028-.906-1.7zm20.531 2.507c0-3.082-2.343-5.543-5.117-5.543-2.863 0-5.137 2.536-5.137 5.543 0 3.063 2.391 5.356 5.114 5.356 2.82 0 5.14-2.344 5.14-5.356m-5.117 4.828c-.883 0-1.957-.382-2.652-1.554-.645-1.074-.668-2.485-.668-3.488 0-.907 0-2.364.738-3.442a3.08 3.08 0 0 1 2.559-1.406c.933 0 1.937.43 2.582 1.359.742 1.102.742 2.606.742 3.489 0 .839 0 2.32-.621 3.441-.668 1.148-1.77 1.601-2.68 1.601m9.938-5.281c0-2.316.957-4.492 2.797-4.492.191 0 .238 0 .335.023-.195.098-.574.243-.574.883 0 .696.547.957.93.957.48 0 .957-.308.957-.957 0-.715-.645-1.383-1.672-1.383-2.031 0-2.726 2.196-2.867 2.653h-.024v-2.653l-3.203.262v.692c1.625 0 1.817.168 1.817 1.339v6.477c0 1.074-.266 1.074-1.817 1.074v.696c.668-.051 1.985-.051 2.7-.051.644 0 2.339 0 2.89.051v-.696h-.476c-1.746 0-1.793-.261-1.793-1.121zm9.125-4.039h3.367v-.691h-3.367v-4.399h-.528c-.023 2.246-.883 4.543-3.058 4.614v.476h2.031v6.645c0 2.652 1.769 3.203 3.035 3.203 1.508 0 2.297-1.481 2.297-3.203v-1.364h-.527v1.317c0 1.719-.696 2.722-1.625 2.722-1.625 0-1.625-2.222-1.625-2.628zm14.308 3.227c0-1.289 0-2.246-1.051-3.18-.835-.762-1.914-1.098-2.964-1.098-1.957 0-3.465 1.293-3.465 2.844 0 .692.453 1.027 1.004 1.027.574 0 .98-.406.98-.98 0-.98-.859-.98-1.219-.98.551-1 1.696-1.43 2.653-1.43 1.097 0 2.508.906 2.508 3.055v.957c-4.801.074-6.618 2.082-6.618 3.918 0 1.89 2.2 2.488 3.657 2.488 1.574 0 2.652-.957 3.105-2.106.094 1.125.836 1.985 1.863 1.985.504 0 1.891-.336 1.891-2.246v-1.34h-.527v1.34c0 1.363-.575 1.554-.907 1.554-.91 0-.91-1.269-.91-1.625zm-1.554 3.011c0 2.34-1.743 3.129-2.774 3.129-1.168 0-2.148-.859-2.148-2.007 0-3.153 4.062-3.442 4.922-3.489zm-90.149-58.71c0-1.29 0-2.247-1.047-3.18-.84-.762-1.914-1.098-2.965-1.098-1.961 0-3.464 1.289-3.464 2.844 0 .691.453 1.027 1.003 1.027.575 0 .981-.406.981-.98 0-.981-.863-.981-1.219-.981.551-1.004 1.695-1.433 2.653-1.433 1.097 0 2.507.91 2.507 3.058v.957c-4.804.071-6.617 2.078-6.617 3.918 0 1.891 2.195 2.489 3.656 2.489 1.575 0 2.653-.957 3.106-2.106.094 1.125.836 1.985 1.863 1.985.5 0 1.887-.336 1.887-2.247v-1.339h-.524v1.339c0 1.364-.574 1.555-.91 1.555-.91 0-.91-1.269-.91-1.625zm-1.551 3.011c0 2.34-1.742 3.129-2.773 3.129-1.168 0-2.149-.859-2.149-2.008 0-3.152 4.063-3.441 4.922-3.488zm13.078-4.66c.219-.527.625-1.555 2.153-1.578v-.691c-.692.046-1.028.046-1.77.046-.5 0-.859 0-1.957-.046v.691c1.004.047 1.121.766 1.121 1.027 0 .215-.047.336-.168.621l-2.437 6.168-2.676-6.742c-.117-.332-.141-.332-.141-.453 0-.621.907-.621 1.336-.621v-.691c-.597.046-1.839.046-2.484.046-.789 0-.836 0-2.297-.046v.691c1.34 0 1.578.098 1.867.836l3.414 8.555c.121.336.168.457.457.457.168 0 .313-.051.477-.457zm10.575 1.649c0-1.29 0-2.247-1.051-3.18-.836-.762-1.91-1.098-2.961-1.098-1.961 0-3.469 1.289-3.469 2.844 0 .691.457 1.027 1.004 1.027.574 0 .981-.406.981-.98 0-.981-.86-.981-1.219-.981.551-1.004 1.699-1.433 2.652-1.433 1.102 0 2.512.91 2.512 3.058v.957c-4.805.071-6.621 2.078-6.621 3.918 0 1.891 2.199 2.489 3.656 2.489 1.578 0 2.652-.957 3.106-2.106.097 1.125.835 1.985 1.867 1.985.5 0 1.886-.336 1.886-2.247v-1.339h-.523v1.339c0 1.364-.574 1.555-.91 1.555-.91 0-.91-1.269-.91-1.625zm-1.551 3.011c0 2.34-1.746 3.129-2.774 3.129-1.171 0-2.152-.859-2.152-2.008 0-3.152 4.067-3.441 4.926-3.488zm14.664-2.437c0-2.223 0-2.891-.551-3.657-.695-.933-1.816-1.078-2.629-1.078-2.316 0-3.226 1.985-3.418 2.465h-.023v-2.465l-3.25.266v.691c1.625 0 1.816.168 1.816 1.34v6.477c0 1.074-.261 1.074-1.816 1.074v.691c.621-.046 1.914-.046 2.582-.046.691 0 1.984 0 2.601.046v-.691c-1.527 0-1.812 0-1.812-1.074v-4.446c0-2.507 1.648-3.847 3.129-3.847 1.48 0 1.816 1.219 1.816 2.676v5.617c0 1.074-.265 1.074-1.816 1.074v.691c.621-.046 1.914-.046 2.582-.046.691 0 1.98 0 2.601.046v-.691c-1.195 0-1.789 0-1.812-.715zm11.469-3.824c.215-.262.215-.309.215-.407 0-.261-.168-.261-.575-.261h-7.504l-.261 3.796h.527c.141-2.437.598-3.32 3.199-3.32h2.774l-6.836 9.391c0 .429.051.429.574.429h7.793l.379-4.394h-.524c-.214 2.723-.621 3.871-3.464 3.871h-2.891zm10.519 3.25c0-1.29 0-2.247-1.051-3.18-.835-.762-1.914-1.098-2.964-1.098-1.957 0-3.465 1.289-3.465 2.844 0 .691.453 1.027 1.004 1.027.574 0 .98-.406.98-.98 0-.981-.859-.981-1.219-.981.551-1.004 1.696-1.433 2.653-1.433 1.097 0 2.508.91 2.508 3.058v.957c-4.801.071-6.618 2.078-6.618 3.918 0 1.891 2.2 2.489 3.657 2.489 1.574 0 2.652-.957 3.105-2.106.094 1.125.836 1.985 1.863 1.985.504 0 1.891-.336 1.891-2.247v-1.339h-.527v1.339c0 1.364-.575 1.555-.907 1.555-.91 0-.91-1.269-.91-1.625zm-1.554 3.011c0 2.34-1.743 3.129-2.774 3.129-1.168 0-2.148-.859-2.148-2.008 0-3.152 4.062-3.441 4.922-3.488zm-86.379-52.199c0-2.316.957-4.492 2.797-4.492.191 0 .238 0 .335.023-.195.098-.574.239-.574.883 0 .695.547.957.93.957.48 0 .957-.312.957-.957 0-.715-.645-1.387-1.672-1.387-2.031 0-2.726 2.2-2.867 2.657h-.024v-2.657l-3.203.266v.691c1.625 0 1.817.168 1.817 1.34v6.477c0 1.074-.266 1.074-1.817 1.074v.691c.668-.046 1.985-.046 2.7-.046.644 0 2.339 0 2.89.046v-.691h-.476c-1.746 0-1.793-.262-1.793-1.121zm9.265-9.152c0-.621-.5-1.172-1.168-1.172a1.15 1.15 0 0 0-1.148 1.148c0 .715.574 1.172 1.148 1.172.739 0 1.168-.625 1.168-1.148m-3.297 4.445v.691c1.532 0 1.746.145 1.746 1.317v6.5c0 1.074-.261 1.074-1.816 1.074v.691c.668-.046 1.816-.046 2.508-.046.266 0 1.648 0 2.461.046v-.691c-1.551 0-1.649-.121-1.649-1.051v-8.797zm11.496 14.219c-1.531 0-1.816 0-1.816-1.078v-4.157c.43.598 1.41 1.532 2.938 1.532 2.75 0 5.164-2.321 5.164-5.403 0-3.035-2.246-5.379-4.852-5.379-2.101 0-3.226 1.508-3.297 1.602v-1.602l-3.324.266v.691c1.676 0 1.816.168 1.816 1.219v11.231c0 1.078-.261 1.078-1.816 1.078v.691c.625-.047 1.914-.047 2.582-.047.691 0 1.984 0 2.605.047zm-1.816-11.567c0-.453 0-.48.262-.859.719-1.078 1.887-1.531 2.797-1.531 1.793 0 3.226 2.175 3.226 4.851 0 2.844-1.625 4.922-3.465 4.922a2.83 2.83 0 0 1-1.914-.762c-.547-.55-.906-1.031-.906-1.699zm18.715 2.078c.523 0 .574 0 .574-.453 0-2.414-1.293-4.66-4.183-4.66-2.723 0-4.829 2.461-4.829 5.426 0 3.152 2.438 5.473 5.09 5.473 2.844 0 3.922-2.582 3.922-3.086 0-.145-.121-.239-.265-.239-.192 0-.239.121-.286.239-.621 2.007-2.222 2.558-3.226 2.558s-3.418-.668-3.418-4.804v-.454zm-6.598-.453c.192-3.754 2.297-4.183 2.965-4.183 2.555 0 2.699 3.371 2.723 4.183zm11.86-3.609h3.367v-.691h-3.367v-4.399h-.528c-.023 2.246-.883 4.539-3.058 4.613v.477h2.031v6.644c0 2.653 1.769 3.204 3.035 3.204 1.508 0 2.297-1.485 2.297-3.204v-1.363h-.527v1.317c0 1.718-.696 2.722-1.625 2.722-1.625 0-1.625-2.222-1.625-2.629zm9.242-5.113c0-.621-.5-1.172-1.168-1.172-.625 0-1.149.504-1.149 1.148 0 .715.575 1.172 1.149 1.172.738 0 1.168-.625 1.168-1.148m-3.297 4.445v.691c1.527 0 1.742.145 1.742 1.317v6.5c0 1.074-.262 1.074-1.812 1.074v.691c.668-.046 1.812-.046 2.507-.046.262 0 1.649 0 2.461.046v-.691c-1.554 0-1.648-.121-1.648-1.051v-8.797zm24.055 6.262h-.528c-.07.406-.261 1.718-.5 2.101-.168.215-1.531.215-2.246.215h-4.422c.645-.551 2.102-2.078 2.723-2.652 3.633-3.348 4.973-4.59 4.973-6.953 0-2.75-2.176-4.59-4.95-4.59-2.769 0-4.394 2.367-4.394 4.422 0 1.218 1.051 1.218 1.121 1.218.504 0 1.125-.359 1.125-1.125 0-.668-.453-1.121-1.125-1.121-.215 0-.262 0-.332.024.453-1.625 1.742-2.723 3.297-2.723 2.031 0 3.273 1.695 3.273 3.895 0 2.031-1.172 3.8-2.535 5.328l-4.824 5.402v.57h8.723zm18.734-4.016c.215-.527.621-1.555 2.148-1.578v-.691c-.691.046-1.027.046-1.765.046-.504 0-.86 0-1.961-.046v.691c1.004.047 1.125.766 1.125 1.027 0 .215-.051.336-.168.621l-2.438 6.168-2.675-6.742c-.121-.332-.145-.332-.145-.453 0-.621.91-.621 1.34-.621v-.691c-.598.046-1.844.046-2.484.046-.789 0-.84 0-2.297-.046v.691c1.34 0 1.578.098 1.863.836l3.418 8.555c.121.336.168.457.457.457.164 0 .309-.051.477-.457zm12.918 2.914c0-3.082-2.34-5.543-5.113-5.543-2.867 0-5.137 2.531-5.137 5.543 0 3.059 2.387 5.356 5.113 5.356 2.821 0 5.137-2.344 5.137-5.356m-5.113 4.828c-.883 0-1.961-.383-2.653-1.554-.644-1.075-.668-2.485-.668-3.489 0-.91 0-2.367.739-3.441a3.06 3.06 0 0 1 2.558-1.41c.934 0 1.938.429 2.578 1.363.743 1.098.743 2.605.743 3.488 0 .836 0 2.321-.622 3.442-.667 1.148-1.765 1.601-2.675 1.601m9.957-16.297-3.324.262v.695c1.625 0 1.816.164 1.816 1.336v12.524c0 1.074-.262 1.074-1.816 1.074v.691c.671-.046 1.839-.046 2.558-.046s1.91 0 2.582.046v-.691c-1.531 0-1.816 0-1.816-1.074zm6.402 6.977h3.371v-.691h-3.371v-4.399h-.523c-.024 2.246-.887 4.539-3.063 4.613v.477h2.031v6.644c0 2.653 1.77 3.204 3.039 3.204 1.504 0 2.293-1.485 2.293-3.204v-1.363h-.527v1.317c0 1.718-.691 2.722-1.625 2.722-1.625 0-1.625-2.222-1.625-2.629zm14.238 4.062c.528 0 .575 0 .575-.453 0-2.414-1.289-4.66-4.184-4.66-2.723 0-4.824 2.461-4.824 5.426 0 3.152 2.437 5.473 5.086 5.473 2.843 0 3.922-2.582 3.922-3.086 0-.145-.122-.239-.262-.239-.192 0-.242.121-.289.239-.621 2.007-2.223 2.558-3.227 2.558s-3.418-.668-3.418-4.804v-.454zm-6.597-.453c.191-3.754 2.297-4.183 2.965-4.183 2.558 0 2.699 3.371 2.722 4.183zm12.242-3.156c0-.644-.551-1.144-1.149-1.144-.691 0-1.168.546-1.168 1.144 0 .719.598 1.172 1.149 1.172.644 0 1.168-.5 1.168-1.172m0 7.984c0-.644-.551-1.148-1.149-1.148-.691 0-1.168.551-1.168 1.148 0 .715.598 1.168 1.149 1.168.644 0 1.168-.5 1.168-1.168m-119.5-62.433c0-4.945-3.633-8.719-7.793-8.719-4.25 0-7.813 3.82-7.813 8.719 0 4.851 3.606 8.605 7.789 8.605 4.278 0 7.817-3.8 7.817-8.605m-7.793 8.055c-2.438 0-5.59-2.293-5.59-8.411 0-5.855 3.32-7.839 5.566-7.839 2.368 0 5.59 2.054 5.59 7.839 0 6.211-3.25 8.411-5.566 8.411m14.949 3.992c-1.527 0-1.812 0-1.812-1.078v-4.157c.429.598 1.406 1.532 2.937 1.532 2.75 0 5.16-2.321 5.16-5.403 0-3.035-2.246-5.379-4.847-5.379-2.106 0-3.227 1.508-3.301 1.602v-1.602l-3.32.266v.691c1.671 0 1.816.168 1.816 1.219v11.231c0 1.078-.266 1.078-1.816 1.078v.691c.621-.047 1.91-.047 2.582-.047.691 0 1.98 0 2.601.047zm-1.812-11.567c0-.453 0-.48.261-.859a3.44 3.44 0 0 1 2.793-1.531c1.793 0 3.227 2.175 3.227 4.851 0 2.844-1.625 4.922-3.465 4.922a2.8 2.8 0 0 1-1.91-.762c-.551-.55-.906-1.031-.906-1.699zm18.062-2.007c.219-.262.219-.309.219-.407 0-.261-.168-.261-.574-.261h-7.504l-.266 3.796h.527c.141-2.437.598-3.32 3.204-3.32h2.769l-6.832 9.391c0 .429.047.429.574.429h7.789l.383-4.394h-.527c-.215 2.723-.621 3.871-3.465 3.871h-2.891zm5.453-5.09c0-.621-.5-1.172-1.168-1.172a1.15 1.15 0 0 0-1.148 1.148c0 .715.574 1.172 1.148 1.172.739 0 1.168-.625 1.168-1.148m-3.297 4.445v.691c1.532 0 1.746.145 1.746 1.317v6.5c0 1.074-.261 1.074-1.816 1.074v.691c.668-.046 1.816-.046 2.508-.046.266 0 1.648 0 2.461.046v-.691c-1.551 0-1.649-.121-1.649-1.051v-8.797zm16.61 5.16c0-3.082-2.34-5.543-5.114-5.543-2.867 0-5.136 2.531-5.136 5.543 0 3.059 2.386 5.356 5.113 5.356 2.816 0 5.137-2.344 5.137-5.356m-5.114 4.828c-.886 0-1.96-.383-2.652-1.554-.648-1.075-.672-2.485-.672-3.489 0-.91 0-2.367.742-3.441a3.06 3.06 0 0 1 2.559-1.41c.93 0 1.934.429 2.578 1.363.742 1.098.742 2.605.742 3.488 0 .836 0 2.321-.621 3.442-.668 1.148-1.769 1.601-2.676 1.601m16.481-5.519c0-2.223 0-2.891-.551-3.657-.695-.933-1.816-1.078-2.629-1.078-2.316 0-3.226 1.985-3.418 2.465h-.023v-2.465l-3.25.266v.691c1.625 0 1.816.168 1.816 1.34v6.477c0 1.074-.261 1.074-1.816 1.074v.691c.621-.046 1.914-.046 2.582-.046.691 0 1.984 0 2.601.046v-.691c-1.527 0-1.812 0-1.812-1.074v-4.446c0-2.507 1.648-3.847 3.129-3.847 1.48 0 1.816 1.219 1.816 2.676v5.617c0 1.074-.265 1.074-1.816 1.074v.691c.621-.046 1.914-.046 2.582-.046.691 0 1.98 0 2.601.046v-.691c-1.195 0-1.789 0-1.812-.715zm11.516.261c.527 0 .574 0 .574-.453 0-2.414-1.289-4.66-4.184-4.66-2.722 0-4.824 2.461-4.824 5.426 0 3.152 2.437 5.473 5.09 5.473 2.844 0 3.918-2.582 3.918-3.086 0-.145-.121-.239-.262-.239-.191 0-.242.121-.285.239-.625 2.007-2.223 2.558-3.231 2.558-1 0-3.414-.668-3.414-4.804v-.454zm-6.594-.453c.191-3.754 2.293-4.183 2.961-4.183 2.558 0 2.703 3.371 2.726 4.183zm20.039-2.582c-.406.024-.5.047-.5.266 0 .238.117.238.547.238h1.101c2.032 0 2.938 1.672 2.938 3.965 0 3.133-1.625 3.969-2.793 3.969-1.149 0-3.11-.551-3.801-2.129.766.121 1.457-.309 1.457-1.168 0-.695-.504-1.176-1.172-1.176-.57 0-1.195.336-1.195 1.246 0 2.125 2.129 3.871 4.781 3.871 2.844 0 4.945-2.175 4.945-4.59 0-2.195-1.765-3.917-4.062-4.324 2.078-.597 3.418-2.34 3.418-4.207 0-1.886-1.957-3.273-4.277-3.273-2.391 0-4.161 1.457-4.161 3.203 0 .957.743 1.148 1.102 1.148.504 0 1.074-.359 1.074-1.078 0-.765-.57-1.097-1.097-1.097-.145 0-.192 0-.262.023.906-1.625 3.152-1.625 3.269-1.625.789 0 2.344.359 2.344 2.699 0 .453-.07 1.793-.765 2.821-.715 1.05-1.528 1.125-2.172 1.148zm11.699-.574c0-.644-.551-1.144-1.144-1.144-.696 0-1.172.546-1.172 1.144 0 .719.597 1.172 1.148 1.172.645 0 1.168-.5 1.168-1.172m0 7.984c0-.644-.551-1.148-1.144-1.148-.696 0-1.172.551-1.172 1.148 0 .715.597 1.168 1.148 1.168.645 0 1.168-.5 1.168-1.168"/></g></svg>