<svg xmlns="http://www.w3.org/2000/svg" width="65pt" height="178pt" viewBox="0 -178 65 178"><g id="page1"><path fill="#cc6" d="m37.898-177.172-26.574 17.719v141.73L37.898-.008l26.575-17.715v-141.73z"/><path fill="#99994d" d="M11.324-159.453v141.73L37.898-.008v-141.73z"/><path fill="#e6e673" d="m64.473-159.453-26.575-17.719-26.574 17.719 26.574 17.715z"/><path fill="#404020" d="M19.383-144.043v13.289l6.113 4.074v-13.289z"/><path fill="#663" d="m21.508-142.625-2.125-1.418v7.621z"/><g fill="none" stroke="#090" stroke-linecap="round" stroke-linejoin="round"><path d="M11.324-106.305 37.898-88.59l26.575-17.715"/><path d="M11.324-103.648 37.898-85.93l26.575-17.718"/><path d="m11.324-100.988 26.574 17.715 26.575-17.715"/></g><path d="M21.508-132.703c-.352 5.933-.442 11.871-.707 17.805 2.922 10.718 5.847 19.667 8.504 29.585.886 2.747 1.504 5.582 1.328 8.504-.266 12.758-1.152 26.313-2.39 37.829-.798 6.906-4.165 14.261-6.114 20.285-2.035 2.566-7.527 3.277-10.188 3.808-1.418.266-2.921-.531-3.367-1.86a363 363 0 0 0-4.515-10.01c1.949-3.278 5.05-7.087 7.265-10.364v-6.469C6.714-38.008 3.352-33.047.16-27.996c-.617 1.86.711 3.453 1.328 5.047 1.864 3.988 3.633 8.062 5.492 12.047.977.976 2.48.53 3.633.18 4.43-1.419 8.77-2.481 12.844-3.813 2.66-6.11 5.492-14.527 7.441-20.637 1.418-14.351 1.86-28.258 2.926-42.434.266-3.898-1.152-7.527-2.039-11.25-2.746-9.566-5.492-18.335-7.883-27.281.352-6.468.797-12.492 1.504-19.136.09-.973-1.238-3.454-2.746-2.391-1.594 1.152-1.062 3.543-1.152 4.961"/><path fill="#0f0" fill-rule="evenodd" d="M40.555-139.969v42.524l22.058-14.707v-42.52zm4.52 15.594c0-5.852 2.59-11.473 7.437-14.707 3.148-2.098 7.441.551 7.441 4.785 0 7.258-4.39 13.477-7.441 20.02-3.403-2.856-7.438-5.684-7.438-10.098"/><path fill="#0f0" d="M40.555-62.016v60.239L62.613-16.48v-60.24z"/><path fill="#090" fill-rule="evenodd" d="M45.074-124.375c0-5.852 2.59-11.473 7.438-14.707 3.148-2.098 7.441.551 7.441 4.785 0 7.258-4.39 13.477-7.441 20.02-3.403-2.856-7.438-5.684-7.438-10.098m1.328-.887c0-4.504 2.36-8.66 6.11-11.16 2.629-1.754 6.113-.004 6.113 3.012 0 4.504-2.36 8.656-6.113 11.16-2.63 1.754-6.11 0-6.11-3.012"/><path fill="#090" d="M50.918-130.398c-1.684 3.453-1.684 3.894.18 2.832.972-.532 1.062-.442.797.886-.446 2.125.085 1.594 1.683-1.593 1.945-3.989 1.945-4.254.086-3.102-.887.531-1.238.445-.973-.266.266-.707.266-1.683 0-1.683-.18 0-.976 1.332-1.773 2.926"/></g></svg>