<svg xmlns="http://www.w3.org/2000/svg" width="202pt" height="68" viewBox="0 -51 202 51"><g id="page1"><g fill-rule="evenodd"><path fill="#88d055" d="M46.266-44.418c-.45.375.797.375.586.906.824 1.938 1.62 3.934 1.964 6.032 1.305 6.722-.343 13.976-4.515 19.425C40.1-12.312 33.723-8.09 26.68-6.918c-6.43 1.113-13.207-.398-18.735-3.828a35 35 0 0 1-3.933-2.844c3.883 4.387 9.543 6.938 15.281 7.574 8.398.957 17.223-1.78 23.387-7.601 4.199-3.934 7.093-9.301 7.68-15.04.503-4.624.027-9.487-2.075-13.66a13.5 13.5 0 0 0-1.512-2.312c-.214-.078-.347.133-.507.211"/><path fill="#b9f88c" d="M46.133-44.258c-.559.215-1.461.664-1.168 1.438 1.781 3.558 2.523 7.597 2.445 11.586-.105 3.746-.984 7.574-3.082 10.734-2.445 3.746-6.14 6.59-10.258 8.266-5.902 2.55-12.625 3.402-18.894 1.832-3.906-.98-7.684-2.868-10.367-5.95-.477-.507-.848-1.09-1.168-1.73-.239-.742-1.036-.77-1.594-.29-.824.345-.504 1.274-.055 1.806 1.172 2.285 3.11 4.12 5.344 5.421 3.719 2.364 7.973 4.012 12.383 4.438 4.543.504 9.222-.238 13.367-2.18 7.254-3.293 13.102-9.777 15.309-17.484 1.566-5.637.93-11.774-1.516-17.063-.133-.343-.293-.824-.746-.824"/><path d="M45.574-45.64c-3.054 1.011-5.605 3.03-8.504 4.359-12.01 6.511-23.625 13.66-35.023 21.129C1.062-19.461 0-18.508 0-17.23c.078 1.566 1.168 2.816 2.074 4.011 3.531 4.305 8.66 7.07 14.059 8.293 4.996 1.117 10.23.586 15.144-.691C36.965-7.16 42.36-10.27 46.133-14.84c4.652-5.687 6.804-13.312 5.82-20.594-.344-2.898-1.14-5.82-2.71-8.293-.716-1.035-1.806-2.046-3.161-2.02-.16.028-.348.056-.508.106m.774 1.171c-.532.399-1.516.582-1.489 1.407.133.507.477.956.637 1.464 2.445 5.844 2.578 12.7.133 18.575-1.461 3.375-4.012 6.218-7.043 8.265-4.914 3.375-10.922 4.969-16.848 5.02-4.785.054-9.699-1.008-13.71-3.692-1.997-1.355-3.696-3.187-4.731-5.367-.719-.027-1.543.317-1.781 1.035-.055.664.476 1.168.742 1.754 2.578 4.25 6.91 7.254 11.613 8.797 9.516 3.11 20.57.848 28.117-5.742 3.64-3.188 6.38-7.414 7.68-12.063.879-3.191 1.035-6.539.746-9.832-.32-2.925-1.117-5.847-2.66-8.398-.426-.398-.477-1.277-1.168-1.328-.105-.028-.16.078-.238.105m-2.871 1.672c-10.418 5.344-20.356 11.535-30.508 17.3-3.297 1.97-6.54 4.067-9.489 6.485 1.727 3.403 4.997 5.82 8.532 7.121 5.793 2.102 12.25 2.047 18.176.454 4.652-1.25 9.117-3.586 12.277-7.254 1.996-2.34 3.137-5.262 3.695-8.266.88-4.465.852-9.246-.77-13.555-.265-.742-.636-1.433-1.038-2.125-.184-.293-.61-.449-.875-.16m-1.754 7.895c-.746.453-.028 1.78.77 1.515.64-.265.503-1.195-.079-1.437-.215-.106-.453-.157-.691-.078m-6.164 6.406c-.664.265-.375 1.246.21 1.46.665.212 1.223-.64.825-1.194-.188-.403-.692-.56-1.035-.266m6.004.078c-.72.504-.184 1.676.585 1.781.692.133 1.329-.718.903-1.328-.32-.48-.985-.531-1.489-.453m-12.704 4.57c-.53.746.188 2.02 1.09 1.86.746-.266.586-1.301.028-1.672-.293-.242-.747-.375-1.118-.188m6.567 1.567c-.64.535-.16 1.41.21 1.914.426.586 1.462.453 1.622-.238.133-.637-.32-1.223-.797-1.567-.293-.215-.719-.265-1.035-.11M20.62-20.152c-.824.343-.637 1.859.266 1.914.984-.082 1.09-1.782.133-1.996a.5.5 0 0 0-.399.082m-7.812.957c-.797.265-1.063 1.539-.293 1.992.691.265 1.277-.586 1.222-1.223.028-.453-.449-1.144-.93-.77m13.367 2.683c-.903.582-.211 2.258.851 2.047.742-.16.742-1.2.293-1.676-.242-.343-.746-.613-1.144-.37m-9.832 1.168c-.88.426-.719 2.047.293 2.18.902 0 1.25-1.25.77-1.887-.212-.347-.692-.558-1.063-.293"/><path fill="#e96c92" d="M43.477-42.797c-10.418 5.344-20.356 11.535-30.508 17.3-3.297 1.97-6.54 4.067-9.489 6.485 1.727 3.403 4.997 5.82 8.532 7.121 5.793 2.102 12.25 2.047 18.176.454 4.652-1.25 9.117-3.586 12.277-7.254 1.996-2.34 3.137-5.262 3.695-8.266.88-4.465.852-9.246-.77-13.555-.265-.742-.636-1.433-1.038-2.125-.184-.293-.61-.449-.875-.16m-1.754 7.895c-.746.453-.028 1.78.77 1.515.64-.265.503-1.195-.079-1.437-.215-.106-.453-.157-.691-.078m-6.164 6.406c-.664.265-.375 1.246.21 1.46.665.212 1.223-.64.825-1.194-.188-.403-.692-.56-1.035-.266m6.004.078c-.72.504-.184 1.676.585 1.781.692.133 1.329-.718.903-1.328-.32-.48-.985-.531-1.489-.453m-12.704 4.57c-.53.746.188 2.02 1.09 1.86.746-.266.586-1.301.028-1.672-.293-.242-.747-.375-1.118-.188m6.567 1.567c-.64.535-.16 1.41.21 1.914.426.586 1.462.453 1.622-.238.133-.637-.32-1.223-.797-1.567-.293-.215-.719-.265-1.035-.11m-14.805 2.13c-.824.343-.637 1.859.266 1.914.984-.082 1.09-1.782.133-1.996a.5.5 0 0 0-.399.082m-7.812.957c-.797.265-1.063 1.539-.293 1.992.691.265 1.277-.586 1.222-1.223.028-.453-.449-1.144-.93-.77m13.367 2.683c-.903.582-.211 2.258.851 2.047.742-.16.742-1.2.293-1.676-.242-.343-.746-.613-1.144-.37m-9.832 1.168c-.88.426-.719 2.047.293 2.18.902 0 1.25-1.25.77-1.887-.212-.347-.692-.558-1.063-.293"/></g><path fill="#79ac14" d="M112.496-35.715c1.465-2.527 3.457-5.45 4.918-7.308 0-.532-.133-1.063-.133-1.73-.531-2.657-2.789-4.65-5.183-4.25-2.391.398-3.985 2.921-3.453 5.714.132 1.195 1.062 3.984 2.125 6.773.531.133 1.195.403 1.726.801"/><path fill="none" stroke="#000" stroke-linecap="round" stroke-linejoin="round" stroke-width="1.688" d="M112.496-35.715c1.465-2.527 3.457-5.45 4.918-7.308 0-.532-.133-1.063-.133-1.73-.531-2.657-2.789-4.65-5.183-4.25-2.391.398-3.985 2.921-3.453 5.714.132 1.195 1.062 3.984 2.125 6.773.531.133 1.195.403 1.726.801"/><path fill="#79ac14" d="M116.086-32.129c2.523-1.46 5.445-3.453 7.309-4.918.531 0 1.062.133 1.726.133 2.656.531 4.649 2.793 4.25 5.184-.398 2.39-2.922 3.851-5.711 3.453-1.195-.133-3.988-1.063-6.777-2.125-.133-.532-.399-1.196-.797-1.727"/><path fill="none" stroke="#000" stroke-linecap="round" stroke-linejoin="round" stroke-width="1.688" d="M116.086-32.129c2.523-1.46 5.445-3.453 7.309-4.918.531 0 1.062.133 1.726.133 2.656.531 4.649 2.793 4.25 5.184-.398 2.39-2.922 3.851-5.711 3.453-1.195-.133-3.988-1.063-6.777-2.125-.133-.532-.399-1.196-.797-1.727"/><path fill="#a4cd34" d="M114.492-34.121a5.9 5.9 0 0 1 1.594 1.992c3.32-1.727 7.441-4.785 8.637-5.98 1.992-1.993 2.125-4.914.398-6.645-1.594-1.727-4.652-1.46-6.644.402-1.196 1.196-4.118 5.313-5.981 8.637q1.2.598 1.996 1.594"/><path fill="none" stroke="#000" stroke-linecap="round" stroke-linejoin="round" stroke-width="1.688" d="M114.492-34.121a5.9 5.9 0 0 1 1.594 1.992c3.32-1.727 7.441-4.785 8.637-5.98 1.992-1.993 2.125-4.914.398-6.645-1.594-1.727-4.652-1.46-6.644.402-1.196 1.196-4.118 5.313-5.981 8.637q1.2.598 1.996 1.594"/><path fill="#f26d21" d="M114.492-34.121c-4.121-4.121-10.898-3.856-15.148.531-6.645 6.645-21.926 26.707-17.008 31.625 4.918 4.914 24.98-10.367 31.625-17.008 4.383-4.386 4.648-11.03.531-15.148"/><path fill="#ce5c1c" d="M114.492-34.121c1.727 3.852.797 8.77-2.527 12.09-6.242 6.246-24.313 19.93-30.559 17.672 0 1.062.266 1.859.93 2.394 4.918 4.914 24.98-10.367 31.625-17.008 4.383-4.254 4.648-11.03.531-15.148"/><g fill="none" stroke="#000" stroke-linecap="round" stroke-linejoin="round" stroke-width="1.688"><path d="M113.16-18.043s-3.984-1.328-7.969-5.316m-7.839 4.254s-2.528-2.262-5.184-5.98m15.414 11.691s-3.32-.93-5.449-3.055m1.062 6.246s-3.453-.664-7.039-4.254m-9.172-2.789s1.465 2.789 4.387 5.18m4.914-18.204s.8 2.391 3.059 4.653M87.781-6.086s1.863 2.125 4.121 3.055m28.7-37.203-6.11 6.113m-1.332-8.504.801 4.516m9.035 5.316-4.519-.797"/><path d="M114.492-34.121c-4.121-4.121-10.898-3.856-15.148.531-6.645 6.645-21.926 26.707-17.008 31.625 4.918 4.914 24.98-10.367 31.625-17.008 4.383-4.386 4.648-11.03.531-15.148"/></g><g fill-rule="evenodd"><path fill="#a7410e" d="M175.066-42.34c-.218.086-.441.223-.484.223-.047 0 .398.484.973 1.062.578.575 1.285 1.328 1.593 1.77a15 15 0 0 1 1.067 1.64c.219.485.531 1.286.707 1.727.133.488.266 1.285.308 1.727 0 .488.09.886.18.93.043.046.399.09.75.09.531 0 .664-.044.711-.177.043-.09 0-.535-.09-1.02-.09-.444-.308-1.327-.531-1.905-.176-.621-.488-1.461-.707-1.903-.223-.445-.621-1.195-.93-1.64a12 12 0 0 0-.933-1.286 14 14 0 0 1-.883-.796c-.266-.176-.578-.399-.754-.489a1.5 1.5 0 0 0-.441-.133c-.09 0-.313.09-.536.18m12.668 5.98h.532c.179-.046.047-.046-.266-.046-.266 0-.398 0-.266.047M172.855-7.436c.309.265.575.53.575.53.043 0-.176-.265-.489-.53-.265-.313-.531-.579-.574-.579-.047 0 .176.266.488.579m-5.406 1.148c.266.312.531.578.578.578.043 0-.179-.266-.488-.578-.309-.266-.574-.531-.574-.531-.047 0 .176.265.484.53"/><path fill="red" d="M186.449-36.094c-.398.133-.883.309-1.015.399-.18.086-.93.53-1.641 1.015-.754.446-1.637.977-1.992 1.153-.574.265-.707.265-1.727.265-.886 0-1.195-.043-1.859-.265-.402-.133-1.598-.621-2.57-1.106-1.02-.445-2.172-.93-2.571-1.062-.398-.133-1.062-.313-1.504-.356-.664-.09-.929-.09-1.593.043-.446.09-1.243.356-1.774.578a9.7 9.7 0 0 0-1.64.75c-.352.223-.93.578-1.196.797-.308.27-.797.711-1.148 1.067-.356.351-.797.93-1.067 1.28-.218.356-.574 1.02-.797 1.466a10 10 0 0 0-.664 1.547c-.132.445-.351 1.199-.441 1.73-.133.531-.266 1.461-.312 2.082-.086.664-.086 1.68-.043 2.48.043.75.132 1.86.222 2.434.043.578.266 1.55.399 2.172.132.617.441 1.77.707 2.613.265.797.843 2.125 1.242 2.922.398.844 1.015 1.95 1.371 2.524a49 49 0 0 0 1.285 1.773 56 56 0 0 0 1.684 1.773c.574.575 1.418 1.282 1.816 1.547.399.313.973.664 1.285.844.309.133 1.016.442 1.594.617.531.18 1.418.399 1.992.489.621.09 1.238.132 1.774.09.484 0 1.148-.18 1.769-.356.754-.223 1.153-.309 1.817-.309.753-.047.929 0 2.214.442 1.02.398 1.504.488 1.95.488.355 0 .929-.09 1.328-.223.398-.09 1.062-.351 1.508-.53.441-.224 1.195-.575 1.636-.84a22 22 0 0 0 1.641-1.153c.441-.313 1.148-.973 1.594-1.418a25 25 0 0 0 1.461-1.594c.355-.441.929-1.242 1.285-1.726.308-.532.84-1.418 1.152-1.95.309-.53.797-1.507 1.106-2.171.265-.622.711-1.77.972-2.48.27-.708.578-1.727.711-2.302.133-.53.309-1.375.399-1.906.043-.488.132-1.46.175-2.125.047-.71.047-1.684-.043-2.348-.043-.62-.222-1.55-.308-2.039a11.5 11.5 0 0 0-.488-1.726c-.133-.488-.446-1.195-.665-1.637a17 17 0 0 0-.886-1.508 11 11 0 0 0-1.153-1.418c-.398-.351-.929-.886-1.285-1.105a12 12 0 0 0-1.371-.844 14 14 0 0 0-1.508-.617c-.351-.133-1.015-.266-1.414-.356-.445-.09-1.199-.175-1.73-.132-.75 0-1.106.043-1.684.222M166.52-25.199c-.133.308-.356.887-.442 1.328-.133.441-.265 1.285-.355 1.816-.09.575-.133 1.727-.133 2.524 0 .886.043 1.992.133 2.523.09.535.222 1.332.355 1.774.086.441.352 1.242.574 1.773.223.531.621 1.371.93 1.86.313.53.797 1.238 1.109 1.683a44 44 0 0 0 1.414 1.504c.446.445 1.2 1.062 1.641 1.418.488.309 1.152.754 1.551.93.398.18.797.355.973.355.179.043.265.043.265-.047 0-.043-.707-.797-1.504-1.637a55 55 0 0 1-2.082-2.214 31 31 0 0 0-1.062-1.461 20 20 0 0 1-.977-1.727 22 22 0 0 1-.797-1.863c-.133-.485-.398-1.238-.484-1.68-.09-.445-.266-1.242-.356-1.816-.089-.664-.175-2.04-.175-3.942-.047-1.64-.09-3.101-.09-3.28-.043-.177-.09-.352-.133-.352-.09 0-.223.265-.355.53"/><path d="M189.684-50.004c-.219.047-.754.398-1.196.797-.441.355-1.019.797-1.242.977-.308.218-.66.351-1.195.44-.399.048-1.328.224-2.035.313-1.063.176-1.418.266-2.082.618-.579.265-.93.53-1.371 1.02-.313.355-.754.929-.977 1.374-.223.442-.441.973-.531 1.149l-.09.355-.664-.488a16 16 0 0 0-1.504-.883c-.754-.355-.887-.398-1.328-.312-.27 0-.887.222-1.375.398-.621.266-.973.488-1.239.797-.222.222-.445.578-.488.797-.09.265-.09.62-.047.843 0 .223.133.575.27.754.086.22.441.575.75.84.312.223.93.754 1.332 1.196.394.398.973 1.062 1.238 1.46.266.399.488.754.442.797 0 0-.575-.218-1.239-.531-.711-.266-1.64-.617-2.082-.75a8.4 8.4 0 0 0-2.039-.223c-1.062 0-1.371.043-2.168.266-.488.176-1.328.441-1.816.664s-1.242.621-1.641.887c-.441.222-1.195.797-1.679 1.195-.536.441-1.2 1.106-1.508 1.508-.356.398-.797.973-1.02 1.281-.222.356-.574 1.02-.84 1.508-.222.488-.578 1.238-.754 1.727-.175.488-.398 1.418-.531 2.082s-.308 1.816-.355 2.613c-.086 1.062-.086 1.77 0 3.012.047.84.175 2.082.312 2.746.086.664.309 1.636.442 2.172.132.53.398 1.46.574 2.035.222.62.578 1.55.797 2.125.222.578.668 1.508.976 2.039.266.574.797 1.46 1.153 1.992.351.531.972 1.418 1.418 1.95.441.53 1.238 1.417 1.812 1.948a20 20 0 0 0 1.906 1.641c.489.395 1.328.883 1.86 1.195.578.266 1.328.575 1.773.707.442.176 1.195.356 1.684.489.484.09 1.461.218 2.168.218 1.195.047 1.375.047 2.258-.218a76 76 0 0 0 1.55-.399l.532-.18 1.597.532c1.414.488 1.637.535 2.481.535.797 0 1.105-.047 2.078-.313.711-.222 1.683-.62 2.57-1.062a34 34 0 0 0 2.348-1.371 27 27 0 0 0 2.304-2.04c.75-.753 1.68-1.726 1.993-2.171.308-.442.886-1.238 1.238-1.77.355-.53.887-1.46 1.195-1.992.313-.531.797-1.598 1.11-2.305.355-.753.796-1.906 1.062-2.656.266-.71.574-1.863.754-2.48.133-.664.355-1.73.441-2.348.09-.71.18-1.773.18-2.836 0-1.152-.047-2.082-.18-2.836a22 22 0 0 0-.398-1.992c-.133-.531-.398-1.238-.531-1.637-.133-.355-.489-1.11-.754-1.64a16 16 0 0 0-1.063-1.77c-.351-.445-.84-1.066-1.148-1.375a9 9 0 0 0-1.152-1.062c-.313-.266-.977-.754-1.465-1.02-.485-.309-1.328-.754-1.903-.973-.578-.222-1.55-.488-2.172-.62-.617-.133-1.328-.223-1.593-.266h-.442l.532-.266c.308-.133.839-.531 1.195-.887a6.7 6.7 0 0 0 1.019-1.328c.176-.398.442-1.02.532-1.418.132-.441.265-1.285.351-1.992.09-.664.18-1.773.223-2.437.047-.797.047-1.371-.043-1.637-.043-.223-.223-.578-.356-.754-.085-.176-.398-.441-.621-.531-.218-.133-.574-.266-.797-.266-.265-.043-.617 0-.796.043m-.356 2.703a13 13 0 0 1-1.461 1.02c-.351.175-.972.351-1.371.441-.445.09-1.285.223-1.859.266-.578.09-1.285.265-1.551.355a3.3 3.3 0 0 0-.93.621c-.222.22-.535.664-.711.973s-.398.797-.484 1.152c-.09.309-.18.887-.18 1.371 0 .399.09.977.133 1.196.09.265.223.668.313.933l.218.442.887-.489a9 9 0 0 1 1.461-.62c.266-.087 1.062-.22 1.684-.31.664-.042 1.375-.175 1.64-.265.266-.043.664-.176.883-.308a3.6 3.6 0 0 0 .797-.579c.133-.218.398-.53.488-.75.09-.18.266-.668.399-1.02.132-.398.265-1.108.355-1.64s.176-1.504.223-2.258c0-.707.043-1.285 0-1.285 0 0-.446.356-.934.754m-14.262 4.961c-.218.086-.441.223-.484.223-.047 0 .398.484.973 1.062.578.575 1.285 1.328 1.593 1.77a15 15 0 0 1 1.067 1.64c.219.485.531 1.286.707 1.727.133.488.266 1.285.308 1.77.047.668 0 .843-.085.843-.047 0-.489-.133-.977-.265a45 45 0 0 1-1.902-.797 35 35 0 0 0-2.082-.93 32 32 0 0 0-1.864-.664c-.707-.18-1.062-.18-1.679-.133-.489 0-1.11.133-1.731.352-.531.18-1.328.531-1.812.754-.489.265-1.243.707-1.641 1.02-.398.308-1.019.84-1.285 1.195-.309.308-.797.886-1.063 1.285s-.621.972-.754 1.285a16 16 0 0 0-.617 1.46 47 47 0 0 0-.488 1.77 14 14 0 0 0-.312 1.641c-.043.398-.086 1.637-.043 2.7 0 1.152.089 2.437.175 3.015.09.574.313 1.637.489 2.3.179.712.488 1.817.664 2.391.222.621.578 1.598.843 2.13.219.573.707 1.46 1.02 2.034.352.578.883 1.418 1.238 1.907.309.44.887 1.195 1.285 1.636.356.446 1.063 1.2 1.551 1.594.485.445 1.195.977 1.504 1.242.313.223.93.574 1.375.797.441.223 1.149.488 1.594.664.441.133 1.195.309 1.637.399.488.09 1.199.18 1.64.18.574 0 1.02-.09 2.035-.4.934-.269 1.418-.355 1.95-.355.578 0 .929.086 2.082.442 1.062.398 1.507.488 2.039.488.531.043.886-.043 1.55-.266.442-.132 1.239-.441 1.727-.71.531-.22 1.371-.708 1.859-1.063.532-.309 1.375-.93 1.817-1.328.441-.399 1.152-1.106 1.551-1.594.398-.441.972-1.11 1.238-1.508.312-.398.711-1.015.976-1.37.219-.4.664-1.153.973-1.684.313-.575.797-1.594 1.109-2.258a48 48 0 0 0 1.106-2.836c.266-.887.621-2.082.711-2.656.133-.622.265-1.508.308-1.993.043-.488.09-1.375.09-1.996 0-.617-.047-1.636-.133-2.168-.089-.578-.222-1.418-.355-1.859a13 13 0 0 0-.441-1.508c-.18-.398-.446-1.062-.622-1.418-.179-.398-.578-1.02-.843-1.418a12.4 12.4 0 0 0-1.282-1.547c-.445-.445-1.066-.976-1.417-1.199a7.6 7.6 0 0 0-1.418-.797c-.446-.218-1.196-.531-1.684-.664s-1.328-.265-1.949-.351c-.93-.09-1.153-.09-1.817.043-.398.09-1.062.355-1.504.574-.398.18-1.285.71-1.949 1.11a17 17 0 0 1-1.64 1.019c-.309.086-.622.218-.75.265-.266.086-.266.043-.446-.886a14 14 0 0 0-.531-2.04c-.176-.62-.488-1.46-.707-1.902-.223-.445-.621-1.195-.93-1.64a12 12 0 0 0-.933-1.286 14 14 0 0 1-.883-.796c-.266-.176-.578-.399-.754-.489a1.5 1.5 0 0 0-.441-.133c-.09 0-.313.09-.536.18m9.082 4.649c-.222.09-.664.312-1.019.53-.356.18-.621.4-.621.49s0 .132.047.132c0 0 .265-.133.574-.355.266-.176.797-.442 1.109-.618.309-.18.485-.312.442-.312-.09 0-.309.09-.532.133m-17.671 12.625c-.133.265-.313 1.02-.446 1.593-.133.575-.308 1.508-.351 1.992-.047.532-.09 1.462-.09 2.04 0 .62.043 1.593.133 2.214s.265 1.504.398 2.036c.133.488.356 1.199.488 1.55.133.399.399.977.575 1.329.179.355.621 1.066.929 1.55.356.489 1.063 1.375 1.598 1.907.484.53 1.281 1.285 1.769 1.593.442.356 1.243.84 1.727 1.106.531.27.977.445 1.152.398.176 0 .09-.176-1.062-1.281a79 79 0 0 1-2.082-2.215c-.399-.531-1.02-1.375-1.328-1.86a12 12 0 0 1-1.02-1.73c-.222-.441-.574-1.285-.797-1.86a24 24 0 0 1-.574-2.214c-.133-.621-.266-1.684-.355-2.258a62 62 0 0 1-.09-3.367c0-1.238-.043-2.434-.086-2.656 0-.223-.09-.399-.137-.399-.043 0-.219.22-.351.532"/><path fill="#8a0" d="M189.328-47.3a13 13 0 0 1-1.461 1.019c-.351.175-.972.351-1.371.441-.445.09-1.285.223-1.859.266-.578.09-1.285.265-1.551.355a3.3 3.3 0 0 0-.93.621c-.222.22-.535.664-.711.973s-.398.797-.484 1.152c-.09.309-.18.887-.18 1.371 0 .399.09.977.133 1.196.09.265.223.668.313.933l.218.442.887-.489a9 9 0 0 1 1.461-.62c.266-.087 1.062-.22 1.684-.31.664-.042 1.375-.175 1.64-.265.266-.043.664-.176.883-.308a3.6 3.6 0 0 0 .797-.579c.133-.218.398-.53.488-.75.09-.18.266-.668.399-1.02.132-.398.265-1.108.355-1.64s.176-1.504.223-2.258c0-.707.043-1.285 0-1.285 0 0-.446.356-.934.754m3.988 42.519-.531.574.574-.531.579-.574-.047-.043z"/></g></g></svg>