<svg xmlns="http://www.w3.org/2000/svg" width="55pt" height="55pt" viewBox="0 -55 55 55"><g id="page1"><path fill="gray" d="M7.168-52.527A5.67 5.67 0 0 0 1.5-46.86v39.687a5.67 5.67 0 0 0 5.668 5.668h39.687a5.67 5.67 0 0 0 5.668-5.668V-46.86a5.67 5.67 0 0 0-5.668-5.668z"/><path fill="none" stroke="#000" stroke-linecap="round" stroke-linejoin="round" stroke-width="3" d="M7.168-52.527A5.67 5.67 0 0 0 1.5-46.86v39.687a5.67 5.67 0 0 0 5.668 5.668h39.687a5.67 5.67 0 0 0 5.668-5.668V-46.86a5.67 5.67 0 0 0-5.668-5.668z"/><path fill="#f2f2f2" d="m19.926-41.187 4.25 24.093h14.176l-4.254-24.093z"/><path fill="none" stroke="#000" stroke-linecap="round" stroke-linejoin="round" d="m19.926-41.187 4.25 24.093h14.176l-4.254-24.093z"/><path fill="#919191" d="M19.926-12.844h14.172l4.254-4.25H24.176z"/><path fill="none" stroke="#000" stroke-linecap="round" stroke-linejoin="round" d="M19.926-12.844h14.172l4.254-4.25H24.176z"/><path fill="#c2c2c2" d="M19.926-41.187v28.343l4.25-4.25z"/><path fill="none" stroke="#000" stroke-linecap="round" stroke-linejoin="round" d="M19.926-41.187v28.343l4.25-4.25z"/></g></svg>