<svg xmlns="http://www.w3.org/2000/svg" width="229pt" height="248" viewBox="0 -186 229 186"><g id="page1"><path fill="none" stroke="#000" stroke-linecap="round" stroke-linejoin="round" stroke-width="2" d="M1-14.488v-170.078h226.77v170.078z"/><path fill="#0000bf" d="M33.395-14.488h64.793v-77.274H33.394Z"/><path fill="none" stroke="#000" stroke-linecap="round" stroke-linejoin="round" stroke-width="2" d="M33.395-14.488v-77.274h64.793v77.274z"/><path fill="#0000bf" d="M130.586-14.488h64.789v-151.446h-64.789Z"/><path fill="none" stroke="#000" stroke-linecap="round" stroke-linejoin="round" stroke-width="2" d="M130.586-14.488v-151.446h64.789v151.446z"/><path d="M79.875-176.578c0-.32 0-.414-.18-.414-.14 0-.484.398-.61.558-.554-.449-1.108-.558-1.683-.558-2.168 0-2.812 1.183-2.812 2.172 0 .195 0 .824.683 1.449.57.5 1.18.629 2.004.789.989.195 1.22.25 1.668.609.32.27.555.66.555 1.164 0 .77-.45 1.629-2.023 1.629-1.184 0-2.043-.679-2.438-2.472-.07-.321-.07-.34-.09-.356-.035-.074-.105-.074-.16-.074-.2 0-.2.09-.2.414v2.434c0 .324 0 .414.18.414.09 0 .11-.02.415-.395.09-.125.09-.164.355-.449.684.844 1.648.844 1.953.844 1.883 0 2.813-1.039 2.813-2.453 0-.969-.59-1.543-.75-1.704-.645-.554-1.13-.664-2.313-.878-.539-.11-1.844-.36-1.844-1.434 0-.555.375-1.379 1.989-1.379 1.953 0 2.058 1.664 2.094 2.223.019.14.144.14.199.14.195 0 .195-.086.195-.41zm7.609.949c-.215 0-.875 0-.875.734 0 .43.305.735.735.735.41 0 .75-.25.75-.77 0-1.199-1.254-2.062-2.703-2.062-2.098 0-3.766 1.863-3.766 4.121 0 2.293 1.723 4.051 3.746 4.051 2.363 0 2.902-2.149 2.902-2.313 0-.16-.125-.16-.18-.16-.16 0-.179.055-.234.27-.39 1.269-1.359 1.808-2.328 1.808-1.094 0-2.543-.949-2.543-3.672 0-2.972 1.524-3.707 2.418-3.707.68 0 1.668.266 2.078.965m9.539 2.793c0-2.309-1.757-4.156-3.835-4.156-2.149 0-3.852 1.902-3.852 4.156 0 2.297 1.793 4.016 3.836 4.016 2.113 0 3.851-1.758 3.851-4.016m-3.835 3.621c-.66 0-1.47-.289-1.989-1.164-.48-.809-.5-1.863-.5-2.617 0-.68 0-1.774.555-2.578a2.3 2.3 0 0 1 1.918-1.059c.7 0 1.45.324 1.934 1.024.554.824.554 1.953.554 2.613 0 .629 0 1.738-.465 2.582-.5.859-1.324 1.199-2.007 1.199m7.492-12.219-2.489.2v.519c1.22 0 1.364.125 1.364 1v9.391c0 .804-.2.804-1.364.804v.52c.5-.035 1.38-.035 1.918-.035.536 0 1.43 0 1.934.035v-.52c-1.145 0-1.363 0-1.363-.804zm8.636 7.653c0-.969 0-1.688-.789-2.383-.629-.574-1.433-.828-2.222-.828-1.469 0-2.598.969-2.598 2.133 0 .519.34.769.754.769.43 0 .734-.301.734-.73 0-.735-.644-.735-.914-.735.414-.754 1.274-1.078 1.989-1.078.824 0 1.878.68 1.878 2.293v.719c-3.597.051-4.96 1.558-4.96 2.937 0 1.414 1.648 1.864 2.742 1.864 1.179 0 1.988-.719 2.328-1.578.07.843.625 1.488 1.398 1.488.375 0 1.414-.25 1.414-1.684v-1.004h-.394v1.004c0 1.02-.43 1.164-.68 1.164-.68 0-.68-.949-.68-1.218zm-1.168 2.254c0 1.757-1.304 2.347-2.078 2.347-.875 0-1.609-.644-1.609-1.504 0-2.363 3.047-2.582 3.687-2.617zm8.93-5.051c0-.32 0-.414-.18-.414-.144 0-.484.398-.609.558-.555-.449-1.113-.558-1.687-.558-2.164 0-2.813 1.183-2.813 2.172 0 .195 0 .824.684 1.449.574.5 1.183.629 2.004.789.988.195 1.218.25 1.668.609.324.27.554.66.554 1.164 0 .77-.445 1.629-2.023 1.629-1.184 0-2.043-.679-2.438-2.472-.07-.321-.07-.34-.09-.356-.035-.074-.105-.074-.16-.074-.199 0-.199.09-.199.414v2.434c0 .324 0 .414.18.414.09 0 .109-.02.414-.395.09-.125.09-.164.359-.449.68.844 1.649.844 1.953.844 1.879 0 2.813-1.039 2.813-2.453 0-.969-.594-1.543-.754-1.704-.645-.554-1.129-.664-2.313-.878-.535-.11-1.843-.36-1.843-1.434 0-.555.375-1.379 1.988-1.379 1.953 0 2.059 1.664 2.094 2.223.019.14.144.14.199.14.199 0 .199-.086.199-.41zm4.031.375h2.528v-.52h-2.528v-3.293h-.394c-.02 1.68-.66 3.403-2.293 3.457v.356h1.523v4.98c0 1.989 1.325 2.403 2.274 2.403 1.129 0 1.722-1.11 1.722-2.403v-1.019h-.394v.984c0 1.289-.52 2.043-1.219 2.043-1.219 0-1.219-1.668-1.219-1.973zm7.008-3.832a.88.88 0 0 0-.879-.879.86.86 0 0 0-.859.859c0 .539.43.879.859.879a.87.87 0 0 0 .879-.859m-2.472 3.332v.519c1.148 0 1.308.106 1.308.985v4.875c0 .804-.195.804-1.363.804v.52c.504-.035 1.363-.035 1.883-.035.195 0 1.234 0 1.843.035v-.52c-1.164 0-1.234-.089-1.234-.789v-6.589zm10.64 1.074c-.215 0-.879 0-.879.734 0 .43.309.735.735.735.414 0 .754-.25.754-.77 0-1.199-1.254-2.062-2.707-2.062-2.094 0-3.762 1.863-3.762 4.121 0 2.293 1.722 4.051 3.746 4.051 2.363 0 2.902-2.149 2.902-2.313 0-.16-.125-.16-.179-.16-.161 0-.18.055-.235.27-.394 1.269-1.359 1.808-2.328 1.808-1.094 0-2.543-.949-2.543-3.672 0-2.972 1.524-3.707 2.418-3.707.68 0 1.664.266 2.078.965m8.887 2.277c0-1.668 0-2.168-.414-2.742-.516-.699-1.36-.804-1.969-.804-1.543 0-2.258 1.164-2.508 1.718h-.015v-6.254l-2.493.2v.519c1.219 0 1.36.125 1.36 1v9.391c0 .804-.195.804-1.36.804v.52c.465-.035 1.434-.035 1.934-.035.52 0 1.488 0 1.953.035v-.52c-1.144 0-1.359 0-1.359-.804v-3.332c0-1.883 1.234-2.887 2.344-2.887 1.113 0 1.363.914 1.363 2.008v4.211c0 .804-.195.804-1.363.804v.52c.468-.035 1.433-.035 1.937-.035.52 0 1.484 0 1.953.035v-.52c-.898 0-1.344 0-1.363-.535zm8.59.196c.394 0 .429 0 .429-.34 0-1.809-.968-3.496-3.136-3.496-2.039 0-3.617 1.847-3.617 4.07 0 2.363 1.828 4.102 3.816 4.102 2.129 0 2.937-1.938 2.937-2.313 0-.105-.089-.18-.199-.18-.14 0-.176.09-.211.18-.468 1.504-1.668 1.918-2.422 1.918-.75 0-2.562-.504-2.562-3.601v-.34zm-4.946-.34c.145-2.813 1.719-3.137 2.223-3.137 1.914 0 2.024 2.528 2.043 3.137z"/><path fill="#fff" d="M54.668-58.96c0-.345 0-.43-.25-.43-.145 0-.2 0-.34.21l-5.394 8.368v.519h4.71v1.633c0 .66-.035.84-1.343.84h-.356v.52c.41-.036 1.825-.036 2.328-.036.5 0 1.934 0 2.344.035v-.52h-.355c-1.293 0-1.344-.179-1.344-.84v-1.632h1.809v-.52h-1.809zm-1.184 1.394v6.754h-4.351zm5.719 4.031c0-4.531 2.203-5.246 3.172-5.246.645 0 1.29.195 1.629.734-.215 0-.895 0-.895.734 0 .391.27.735.735.735.445 0 .75-.27.75-.79 0-.933-.68-1.847-2.238-1.847-2.254 0-4.622 2.313-4.622 6.254 0 4.926 2.149 6.04 3.672 6.04 1.953 0 3.621-1.704 3.621-4.032 0-2.383-1.668-3.977-3.457-3.977-1.597 0-2.187 1.38-2.367 1.88zm2.203 6.129c-1.129 0-1.664-1.004-1.828-1.383-.16-.465-.34-1.344-.34-2.594 0-1.418.645-3.191 2.258-3.191.984 0 1.504.664 1.773 1.273.286.66.286 1.559.286 2.328 0 .914 0 1.72-.336 2.403-.45.86-1.094 1.164-1.813 1.164m9.734-6.36c.895-.484 2.204-1.308 2.204-2.812 0-1.563-1.508-2.637-3.156-2.637-1.774 0-3.169 1.309-3.169 2.942 0 .609.176 1.214.68 1.824.195.234.215.254 1.469 1.129-1.738.808-2.633 2.008-2.633 3.316 0 1.898 1.809 3.082 3.637 3.082 1.988 0 3.656-1.469 3.656-3.351 0-1.829-1.293-2.633-2.687-3.493m-2.437-1.613c-.234-.16-.95-.629-.95-1.504 0-1.164 1.216-1.898 2.419-1.898 1.289 0 2.437.93 2.437 2.218 0 1.094-.789 1.973-1.828 2.544zm.84 2.309 2.168 1.418c.469.304 1.289.859 1.289 1.953 0 1.36-1.379 2.293-2.812 2.293-1.524 0-2.829-1.114-2.829-2.598 0-1.398 1.02-2.527 2.184-3.066m13.081.039c0-1.489-.09-2.938-.734-4.301-.735-1.488-2.024-1.883-2.903-1.883-1.039 0-2.308.52-2.972 2.008-.5 1.129-.68 2.238-.68 4.176 0 1.734.125 3.043.77 4.316.699 1.363 1.933 1.793 2.867 1.793 1.558 0 2.453-.934 2.972-1.973.645-1.343.68-3.097.68-4.136m-3.652 5.75c-.575 0-1.739-.325-2.079-2.278-.199-1.074-.199-2.433-.199-3.691 0-1.469 0-2.793.29-3.852.304-1.199 1.218-1.754 1.988-1.754.68 0 1.718.41 2.058 1.954.235 1.02.235 2.437.235 3.652 0 1.203 0 2.563-.2 3.656-.34 1.973-1.468 2.313-2.093 2.313"/><path d="M49.926-5.922c-.145 0-.586 0-.586.492a.47.47 0 0 0 .488.489c.277 0 .504-.168.504-.512 0-.8-.836-1.375-1.805-1.375-1.398 0-2.508 1.242-2.508 2.746 0 1.531 1.145 2.7 2.497 2.7 1.578 0 1.937-1.43 1.937-1.54s-.086-.11-.121-.11c-.11 0-.121.04-.156.18-.262.852-.907 1.207-1.551 1.207-.73 0-1.7-.632-1.7-2.449 0-1.984 1.016-2.472 1.614-2.472.453 0 1.11.18 1.387.644m6.359 1.867c0-1.543-1.172-2.773-2.558-2.773-1.434 0-2.57 1.266-2.57 2.773 0 1.528 1.195 2.672 2.558 2.672 1.41 0 2.57-1.168 2.57-2.672m-2.558 2.41c-.442 0-.98-.19-1.325-.777-.324-.535-.336-1.242-.336-1.742 0-.453 0-1.184.371-1.719.336-.515.86-.707 1.278-.707.465 0 .969.215 1.293.68.367.55.367 1.305.367 1.746 0 .418 0 1.156-.309 1.719a1.56 1.56 0 0 1-1.34.8m4.969-2.64c0-1.156.477-2.246 1.399-2.246.093 0 .117 0 .168.011-.098.051-.29.122-.29.442 0 .348.278.48.465.48.243 0 .481-.156.481-.48 0-.356-.324-.692-.836-.692-1.016 0-1.363 1.098-1.434 1.329h-.011V-6.77l-1.602.133v.348c.813 0 .906.082.906.668v3.238c0 .535-.129.535-.906.535v.348c.332-.023.992-.023 1.348-.023.324 0 1.172 0 1.445.023v-.348h-.234c-.875 0-.899-.129-.899-.558zm4.5 0c0-1.156.477-2.246 1.399-2.246.094 0 .117 0 .168.011-.098.051-.29.122-.29.442 0 .348.278.48.466.48.242 0 .48-.156.48-.48 0-.356-.324-.692-.836-.692-1.016 0-1.363 1.098-1.434 1.329h-.011V-6.77l-1.602.133v.348c.813 0 .906.082.906.668v3.238c0 .535-.129.535-.906.535v.348c.332-.023.992-.023 1.348-.023.324 0 1.172 0 1.445.023v-.348h-.234c-.875 0-.899-.129-.899-.558zm7.18.012c.266 0 .29 0 .29-.227 0-1.207-.65-2.328-2.095-2.328-1.36 0-2.414 1.23-2.414 2.71 0 1.579 1.219 2.735 2.547 2.735 1.422 0 1.961-1.289 1.961-1.539 0-.07-.062-.117-.133-.117-.094 0-.117.059-.144.117-.309 1.004-1.11 1.277-1.614 1.277-.5 0-1.707-.332-1.707-2.402v-.226zM67.078-4.5c.094-1.875 1.149-2.09 1.48-2.09 1.282 0 1.352 1.684 1.364 2.09zm5.93-1.805h1.683v-.343h-1.683v-2.2h-.266c-.008 1.121-.437 2.27-1.527 2.305v.238h1.016v3.325c0 1.324.886 1.597 1.519 1.597.75 0 1.144-.738 1.144-1.597v-.684h-.261v.656c0 .863-.348 1.363-.813 1.363-.812 0-.812-1.109-.812-1.312zm4.5 0h1.683v-.343h-1.683v-2.2h-.266c-.008 1.121-.437 2.27-1.527 2.305v.238h1.016v3.325c0 1.324.886 1.597 1.519 1.597.75 0 1.144-.738 1.144-1.597v-.684h-.261v.656c0 .863-.348 1.363-.813 1.363-.812 0-.812-1.109-.812-1.312zm7.202 1.614c0-.645 0-1.122-.522-1.59-.419-.38-.957-.547-1.485-.547-.976 0-1.73.644-1.73 1.422 0 .343.226.511.5.511a.47.47 0 0 0 .492-.488c0-.492-.43-.492-.61-.492.274-.5.848-.715 1.325-.715.55 0 1.257.453 1.257 1.527v.481c-2.402.035-3.312 1.039-3.312 1.957 0 .945 1.102 1.242 1.828 1.242a1.63 1.63 0 0 0 1.555-1.047c.047.559.418.989.93.989.253 0 .945-.168.945-1.121v-.672h-.262v.672c0 .68-.289.773-.457.773-.453 0-.453-.633-.453-.813zm-.772 1.507c0 1.168-.876 1.567-1.387 1.567-.586 0-1.078-.434-1.078-1.008 0-1.574 2.03-1.719 2.465-1.742z"/><path fill="#fff" d="M151.957-89.613c0 4.226-1.883 5.105-2.953 5.105-.434 0-1.383-.055-1.832-.68h.109c.125.036.77-.07.77-.734 0-.394-.27-.734-.735-.734s-.753.304-.753.77c0 1.109.898 1.863 2.457 1.863 2.238 0 4.406-2.383 4.406-6.27 0-4.82-2.008-6.02-3.582-6.02-1.973 0-3.711 1.649-3.711 4.012s1.668 3.977 3.461 3.977c1.324 0 2.004-.965 2.363-1.88zm-2.293.933c-1.129 0-1.613-.914-1.773-1.257-.289-.68-.289-1.54-.289-2.344 0-1.004 0-1.863.468-2.598.321-.484.805-1.004 1.774-1.004 1.019 0 1.539.895 1.719 1.309.359.875.359 2.398.359 2.668 0 1.504-.68 3.226-2.258 3.226m9.695-7.203c0-.414 0-.43-.355-.43-.434.485-1.328 1.145-3.176 1.145v.52c.414 0 1.309 0 2.293-.465v9.332c0 .648-.051.863-1.629.863h-.554v.52c.484-.04 2.222-.04 2.812-.04.594 0 2.313 0 2.797.04v-.52h-.559c-1.574 0-1.629-.215-1.629-.863zm12.149.36v-.415h-4.317c-2.168 0-2.203-.234-2.273-.574h-.395l-.554 3.582h.39c.055-.32.219-1.43.45-1.629.144-.105 1.488-.105 1.738-.105h3.797l-1.899 2.723c-.48.699-2.293 3.636-2.293 7.004 0 .195 0 .914.735.914.754 0 .754-.7.754-.93v-.899c0-2.667.429-4.746 1.273-5.945zm8.176 8.113h-.395c-.055.304-.199 1.289-.375 1.578-.125.16-1.148.16-1.687.16h-3.313c.484-.414 1.578-1.559 2.043-1.988 2.723-2.508 3.727-3.442 3.727-5.215 0-2.059-1.633-3.437-3.711-3.437S172.68-94.54 172.68-93c0 .914.785.914.84.914.375 0 .843-.27.843-.844 0-.5-.34-.84-.843-.84-.161 0-.196 0-.25.02.339-1.219 1.308-2.043 2.472-2.043 1.524 0 2.453 1.27 2.453 2.918 0 1.523-.879 2.852-1.898 3.996l-3.617 4.05v.43h6.539z"/><path d="M136.719-4.402c0-1.114 0-1.446-.278-1.828-.347-.465-.906-.54-1.312-.54-1.16 0-1.613.993-1.711 1.23h-.012v-1.23l-1.625.133v.348c.813 0 .91.082.91.668v3.238c0 .535-.132.535-.91.535v.348c.313-.023.957-.023 1.293-.023.344 0 .989 0 1.301.023v-.348c-.766 0-.906 0-.906-.535v-2.222c0-1.254.824-1.926 1.562-1.926.742 0 .91.61.91 1.34v2.808c0 .535-.132.535-.91.535v.348c.313-.023.957-.023 1.293-.023.344 0 .989 0 1.301.023v-.348c-.598 0-.895 0-.906-.355zm6.664.347c0-1.543-1.168-2.773-2.555-2.773-1.433 0-2.57 1.266-2.57 2.773 0 1.528 1.195 2.672 2.558 2.672 1.411 0 2.567-1.168 2.567-2.672m-2.555 2.41c-.441 0-.98-.19-1.324-.777-.324-.535-.336-1.242-.336-1.742 0-.453 0-1.184.371-1.719a1.52 1.52 0 0 1 1.277-.707c.465 0 .965.215 1.289.68.372.55.372 1.305.372 1.746 0 .418 0 1.156-.313 1.719a1.55 1.55 0 0 1-1.336.8m8.289-2.757c0-1.114 0-1.446-.273-1.828-.348-.465-.91-.54-1.317-.54-1.16 0-1.613.993-1.707 1.23h-.011v-1.23l-1.625.133v.348c.812 0 .906.082.906.668v3.238c0 .535-.129.535-.906.535v.348c.308-.023.953-.023 1.289-.023.347 0 .992 0 1.3.023v-.348c-.761 0-.906 0-.906-.535v-2.222c0-1.254.824-1.926 1.567-1.926.738 0 .906.61.906 1.34v2.808c0 .535-.129.535-.906.535v.348c.308-.023.953-.023 1.289-.023.347 0 .992 0 1.3.023v-.348c-.593 0-.894 0-.906-.355zm9.406-1.52c-.14 0-.585 0-.585.492a.47.47 0 0 0 .492.489c.273 0 .5-.168.5-.512 0-.8-.836-1.375-1.801-1.375-1.399 0-2.512 1.242-2.512 2.746 0 1.531 1.149 2.7 2.5 2.7 1.574 0 1.934-1.43 1.934-1.54s-.082-.11-.121-.11c-.106 0-.117.04-.153.18-.261.852-.91 1.207-1.554 1.207-.731 0-1.696-.632-1.696-2.449 0-1.984 1.016-2.472 1.614-2.472.453 0 1.109.18 1.382.644m6.36 1.867c0-1.543-1.168-2.773-2.555-2.773-1.433 0-2.57 1.266-2.57 2.773 0 1.528 1.195 2.672 2.558 2.672 1.411 0 2.567-1.168 2.567-2.672m-2.555 2.41c-.441 0-.98-.19-1.324-.777-.324-.535-.336-1.242-.336-1.742 0-.453 0-1.184.371-1.719a1.52 1.52 0 0 1 1.277-.707c.465 0 .965.215 1.289.68.372.55.372 1.305.372 1.746 0 .418 0 1.156-.313 1.719a1.55 1.55 0 0 1-1.336.8m4.867-2.64c0-1.156.477-2.246 1.399-2.246.094 0 .121 0 .168.011-.098.051-.289.122-.289.442 0 .348.273.48.465.48.242 0 .48-.156.48-.48 0-.356-.324-.692-.836-.692-1.016 0-1.363 1.098-1.434 1.329h-.011V-6.77l-1.602.133v.348c.813 0 .906.082.906.668v3.238c0 .535-.128.535-.906.535v.348c.332-.023.992-.023 1.348-.023.324 0 1.172 0 1.445.023v-.348h-.234c-.875 0-.899-.129-.899-.558zm4.602 0c0-1.156.476-2.246 1.398-2.246.094 0 .118 0 .164.011-.093.051-.285.122-.285.442 0 .348.274.48.465.48.238 0 .477-.156.477-.48 0-.356-.321-.692-.836-.692-1.016 0-1.36 1.098-1.434 1.329h-.012V-6.77l-1.601.133v.348c.812 0 .91.082.91.668v3.238c0 .535-.133.535-.91.535v.348c.336-.023.996-.023 1.351-.023.325 0 1.172 0 1.446.023v-.348h-.239c-.871 0-.894-.129-.894-.558zm7.18.012c.261 0 .285 0 .285-.227 0-1.207-.645-2.328-2.09-2.328-1.363 0-2.414 1.23-2.414 2.71 0 1.579 1.219 2.735 2.547 2.735 1.422 0 1.957-1.289 1.957-1.539 0-.07-.059-.117-.129-.117-.098 0-.121.059-.145.117-.308 1.004-1.109 1.277-1.613 1.277s-1.707-.332-1.707-2.402v-.226zM175.68-4.5c.093-1.875 1.144-2.09 1.48-2.09 1.278 0 1.352 1.684 1.363 2.09zm5.929-1.805h1.684v-.343h-1.684v-2.2h-.265c-.012 1.121-.442 2.27-1.528 2.305v.238h1.016v3.325c0 1.324.883 1.597 1.516 1.597.754 0 1.148-.738 1.148-1.597v-.684h-.262v.656c0 .863-.347 1.363-.812 1.363-.813 0-.813-1.109-.813-1.312zm4.5 0h1.684v-.343h-1.684v-2.2h-.265c-.012 1.121-.442 2.27-1.528 2.305v.238h1.016v3.325c0 1.324.883 1.597 1.516 1.597.754 0 1.148-.738 1.148-1.597v-.684h-.262v.656c0 .863-.347 1.363-.812 1.363-.813 0-.813-1.109-.813-1.312zm7.204 1.614c0-.645 0-1.122-.528-1.59a2.2 2.2 0 0 0-1.48-.547c-.981 0-1.735.644-1.735 1.422 0 .343.231.511.504.511a.47.47 0 0 0 .489-.488c0-.492-.43-.492-.61-.492.277-.5.852-.715 1.328-.715.547 0 1.254.453 1.254 1.527v.481c-2.402.035-3.308 1.039-3.308 1.957 0 .945 1.097 1.242 1.828 1.242.789 0 1.324-.476 1.554-1.047.047.559.414.989.93.989.25 0 .945-.168.945-1.121v-.672h-.265v.672c0 .68-.285.773-.453.773-.453 0-.453-.633-.453-.813zm-.778 1.507c0 1.168-.871 1.567-1.387 1.567-.585 0-1.074-.434-1.074-1.008 0-1.574 2.031-1.719 2.461-1.742z"/></g></svg>