<svg xmlns="http://www.w3.org/2000/svg" width="1319pt" height="505pt" viewBox="0 -505 1319 505"><g id="page1"><path fill="none" stroke="#404040" stroke-dasharray="0 7.93502" stroke-linecap="round" stroke-linejoin="round" stroke-width="2" d="M239.801-199.43V-1.004M353.188-199.43V-1.004M466.574-199.43V-1.004M579.961-199.43V-1.004M693.344-199.43V-1.004M806.73-199.43V-1.004M920.117-199.43V-1.004M1033.5-199.43V-1.004m113.39-198.426V-1.004m113.38-198.426V-1.004"/><path fill="none" stroke="#000" stroke-linecap="round" stroke-linejoin="round" stroke-width="2" d="M309.129-193.91q-6.317.15-12.633.148c-19.141 0-41.117 0-56.695-5.668"/><path d="M339.086-195.461a536 536 0 0 1-30.145-6.391l.375 15.942a533 533 0 0 0 29.77-9.551"/><path fill="none" stroke="#000" stroke-linecap="round" stroke-linejoin="round" stroke-width="2" d="M339.086-195.461a536 536 0 0 1-30.145-6.391l.375 15.942a533 533 0 0 0 29.77-9.551"/><path fill="none" stroke="maroon" stroke-dasharray="16.2926 16.2926" stroke-linecap="round" stroke-linejoin="round" stroke-width="2" d="M1001-45.406C926.672-1.004 760.195-1.004 636.652-1.004c-190.015 0-396.851-35.215-396.851-198.426"/><path fill="maroon" d="M1020.83-60.531c-6.78 3.98-14.52 7.176-23.088 9.672l6.608 11.058c6.72-6.676 12.28-13.582 16.48-20.73"/><path fill="none" stroke="maroon" stroke-linecap="round" stroke-linejoin="round" stroke-width="2" d="M1020.83-60.531c-6.78 3.98-14.52 7.176-23.088 9.672l6.608 11.058c6.72-6.676 12.28-13.582 16.48-20.73"/><path fill="#bfffff" d="M282.32-241.949c0-23.485-19.035-42.52-42.519-42.52-23.481 0-42.52 19.035-42.52 42.52 0 23.484 19.039 42.519 42.52 42.519 23.484 0 42.519-19.035 42.519-42.519"/><path fill="none" stroke="#000" stroke-linecap="round" stroke-linejoin="round" stroke-width="3" d="M282.32-241.949c0-23.485-19.035-42.52-42.519-42.52-23.481 0-42.52 19.035-42.52 42.52 0 23.484 19.039 42.519 42.52 42.519 23.484 0 42.519-19.035 42.519-42.519"/><path fill="#f2f2f2" d="M183.109-390.77h113.387v-111.964H183.109Z"/><path fill="none" stroke="#000" stroke-linecap="round" stroke-linejoin="round" stroke-width="4" d="M183.109-390.77v-111.964h113.387v111.964z"/><path fill="#ffbfbf" d="M183.109-275.965h113.387v-111.969H183.109Z"/><path fill="none" stroke="maroon" stroke-linecap="round" stroke-linejoin="round" stroke-width="4" d="M183.109-387.934v111.969h113.387v-111.969z"/><path fill="none" stroke="#000" stroke-linecap="round" stroke-linejoin="round" stroke-width="2" d="M422.516-193.91q-6.317.15-12.633.148c-19.145 0-41.117 0-56.695-5.668"/><path d="M452.473-195.461a535 535 0 0 1-30.145-6.391l.375 15.942a533 533 0 0 0 29.77-9.551"/><path fill="none" stroke="#000" stroke-linecap="round" stroke-linejoin="round" stroke-width="2" d="M452.473-195.461a535 535 0 0 1-30.145-6.391l.375 15.942a533 533 0 0 0 29.77-9.551"/><path fill="none" stroke="maroon" stroke-dasharray="17.0351 17.0351" stroke-linecap="round" stroke-linejoin="round" stroke-width="2" d="M276.488-172.789a118 118 0 0 0 20.008 1.707c21.957 0 41.121-12.777 56.692-28.348"/><path fill="maroon" d="M252.48-179.586a118 118 0 0 0 22.836 13.617l2.313-13.461c-8.348.84-16.777.793-25.149-.156"/><path fill="none" stroke="maroon" stroke-linecap="round" stroke-linejoin="round" stroke-width="2" d="M252.48-179.586a118 118 0 0 0 22.836 13.617l2.313-13.461c-8.348.84-16.777.793-25.149-.156"/><path fill="#bfffff" d="M395.707-241.949c0-23.485-19.035-42.52-42.519-42.52-23.485 0-42.52 19.035-42.52 42.52 0 23.484 19.035 42.519 42.52 42.519 23.484 0 42.519-19.035 42.519-42.519"/><path fill="none" stroke="#000" stroke-linecap="round" stroke-linejoin="round" stroke-width="3" d="M395.707-241.949c0-23.485-19.035-42.52-42.519-42.52-23.485 0-42.52 19.035-42.52 42.52 0 23.484 19.035 42.519 42.52 42.519 23.484 0 42.519-19.035 42.519-42.519"/><path fill="#f2f2f2" d="M296.496-390.77h113.387v-111.964H296.496Z"/><path fill="none" stroke="#000" stroke-linecap="round" stroke-linejoin="round" stroke-width="4" d="M296.496-390.77v-111.964h113.387v111.964z"/><path fill="#ffbfbf" d="M296.496-275.965h113.387v-111.969H296.496Z"/><path fill="none" stroke="maroon" stroke-linecap="round" stroke-linejoin="round" stroke-width="4" d="M296.496-387.934v111.969h113.387v-111.969z"/><path fill="none" stroke="#000" stroke-linecap="round" stroke-linejoin="round" stroke-width="2" d="M535.902-193.91q-6.316.15-12.636.148c-19.141 0-41.118 0-56.692-5.668"/><path d="M565.855-195.461a534 534 0 0 1-30.14-6.391l.375 15.942a534 534 0 0 0 29.765-9.551"/><path fill="none" stroke="#000" stroke-linecap="round" stroke-linejoin="round" stroke-width="2" d="M565.855-195.461a534 534 0 0 1-30.14-6.391l.375 15.942a534 534 0 0 0 29.765-9.551"/><path fill="none" stroke="maroon" stroke-dasharray="15.9909 15.9909" stroke-linecap="round" stroke-linejoin="round" stroke-width="2" d="M888.18-85.23c-48.051 27.535-128.59 27.535-194.836 27.535-112.281 0-226.77-43.215-226.77-141.735"/><path fill="maroon" d="M908.098-100.219c-6.993 4.113-14.727 7.235-23.059 9.508l6.375 11.125c6.676-6.352 12.316-13.207 16.684-20.633"/><path fill="none" stroke="maroon" stroke-linecap="round" stroke-linejoin="round" stroke-width="2" d="M908.098-100.219c-6.993 4.113-14.727 7.235-23.059 9.508l6.375 11.125c6.676-6.352 12.316-13.207 16.684-20.633"/><path fill="#bfffff" d="M509.094-241.949c0-23.485-19.035-42.52-42.52-42.52-23.484 0-42.519 19.035-42.519 42.52 0 23.484 19.035 42.519 42.519 42.519 23.485 0 42.52-19.035 42.52-42.519"/><path fill="none" stroke="#000" stroke-linecap="round" stroke-linejoin="round" stroke-width="3" d="M509.094-241.949c0-23.485-19.035-42.52-42.52-42.52-23.484 0-42.519 19.035-42.519 42.52 0 23.484 19.035 42.519 42.519 42.519 23.485 0 42.52-19.035 42.52-42.519"/><path fill="#f2f2f2" d="M409.883-390.77h113.383v-111.964H409.883Z"/><path fill="none" stroke="#000" stroke-linecap="round" stroke-linejoin="round" stroke-width="4" d="M409.883-390.77v-111.964h113.383v111.964z"/><path fill="#ffbfbf" d="M409.883-275.965h113.383v-111.969H409.883Z"/><path fill="none" stroke="maroon" stroke-linecap="round" stroke-linejoin="round" stroke-width="4" d="M409.883-387.934v111.969h113.383v-111.969z"/><path fill="none" stroke="#000" stroke-linecap="round" stroke-linejoin="round" stroke-width="2" d="M282.672-153.91a729.6 729.6 0 0 0 127.211 11.176c65.441 0 138.148-1.395 170.078-56.696"/><path d="M253.246-159.742a730 730 0 0 0 28.016 13.808l2.816-15.91a733 733 0 0 1-30.832 2.102"/><path fill="none" stroke="#000" stroke-linecap="round" stroke-linejoin="round" stroke-width="2" d="M253.246-159.742a730 730 0 0 0 28.016 13.808l2.816-15.91a733 733 0 0 1-30.832 2.102"/><path fill="none" stroke="maroon" stroke-dasharray="17.0351 17.0351" stroke-linecap="round" stroke-linejoin="round" stroke-width="2" d="M503.262-172.789a118 118 0 0 0 20.004 1.707c21.961 0 41.121-12.777 56.695-28.348"/><path fill="maroon" d="M479.25-179.586a118 118 0 0 0 22.84 13.617l2.312-13.461c-8.347.84-16.781.793-25.152-.156"/><path fill="none" stroke="maroon" stroke-linecap="round" stroke-linejoin="round" stroke-width="2" d="M479.25-179.586a118 118 0 0 0 22.84 13.617l2.312-13.461c-8.347.84-16.781.793-25.152-.156"/><path fill="#bfffff" d="M622.48-241.949c0-23.485-19.039-42.52-42.519-42.52-23.484 0-42.52 19.035-42.52 42.52 0 23.484 19.036 42.519 42.52 42.519 23.48 0 42.519-19.035 42.519-42.519"/><path fill="none" stroke="#000" stroke-linecap="round" stroke-linejoin="round" stroke-width="3" d="M622.48-241.949c0-23.485-19.039-42.52-42.519-42.52-23.484 0-42.52 19.035-42.52 42.52 0 23.484 19.036 42.519 42.52 42.519 23.48 0 42.519-19.035 42.519-42.519"/><path fill="#f2f2f2" d="M523.266-390.77h113.386v-111.964H523.266Z"/><path fill="none" stroke="#000" stroke-linecap="round" stroke-linejoin="round" stroke-width="4" d="M523.266-390.77v-111.964h113.386v111.964z"/><path fill="#ffbfbf" d="M523.266-275.965h113.386v-111.969H523.266Z"/><path fill="none" stroke="maroon" stroke-linecap="round" stroke-linejoin="round" stroke-width="4" d="M523.266-387.934v111.969h113.386v-111.969z"/><path fill="none" stroke="#000" stroke-linecap="round" stroke-linejoin="round" stroke-width="2" d="M762.672-193.91q-6.317.15-12.633.148c-19.141 0-41.117 0-56.695-5.668"/><path d="M792.629-195.461a536 536 0 0 1-30.145-6.391l.379 15.942a534 534 0 0 0 29.766-9.551"/><path fill="none" stroke="#000" stroke-linecap="round" stroke-linejoin="round" stroke-width="2" d="M792.629-195.461a536 536 0 0 1-30.145-6.391l.379 15.942a534 534 0 0 0 29.766-9.551"/><path fill="none" stroke="maroon" stroke-dasharray="15.9099 15.9099" stroke-linecap="round" stroke-linejoin="round" stroke-width="2" d="M886.09-129.434a216.8 216.8 0 0 1-79.36 15.043c-58.07 0-113.386-32.015-113.386-85.039"/><path fill="maroon" d="M908.777-139.902a216 216 0 0 1-25.078 4.386l4.817 12.25a217 217 0 0 0 20.261-16.636"/><path fill="none" stroke="maroon" stroke-linecap="round" stroke-linejoin="round" stroke-width="2" d="M908.777-139.902a216 216 0 0 1-25.078 4.386l4.817 12.25a217 217 0 0 0 20.261-16.636"/><path fill="#bfffff" d="M735.863-241.949c0-23.485-19.035-42.52-42.519-42.52-23.481 0-42.52 19.035-42.52 42.52 0 23.484 19.039 42.519 42.52 42.519 23.484 0 42.519-19.035 42.519-42.519"/><path fill="none" stroke="#000" stroke-linecap="round" stroke-linejoin="round" stroke-width="3" d="M735.863-241.949c0-23.485-19.035-42.52-42.519-42.52-23.481 0-42.52 19.035-42.52 42.52 0 23.484 19.039 42.519 42.52 42.519 23.484 0 42.519-19.035 42.519-42.519"/><path fill="#f2f2f2" d="M636.652-390.77h113.387v-111.964H636.652Z"/><path fill="none" stroke="#000" stroke-linecap="round" stroke-linejoin="round" stroke-width="4" d="M636.652-390.77v-111.964h113.387v111.964z"/><path fill="#ffbfbf" d="M636.652-275.965h113.387v-111.969H636.652Z"/><path fill="none" stroke="maroon" stroke-linecap="round" stroke-linejoin="round" stroke-width="4" d="M636.652-387.934v111.969h113.387v-111.969z"/><path fill="none" stroke="#000" stroke-linecap="round" stroke-linejoin="round" stroke-width="2" d="M876.059-193.91q-6.316.15-12.633.148c-19.145 0-41.117 0-56.696-5.668"/><path d="M906.016-195.461a535 535 0 0 1-30.145-6.391l.379 15.942a534 534 0 0 0 29.766-9.551"/><path fill="none" stroke="#000" stroke-linecap="round" stroke-linejoin="round" stroke-width="2" d="M906.016-195.461a535 535 0 0 1-30.145-6.391l.379 15.942a534 534 0 0 0 29.766-9.551"/><path fill="none" stroke="maroon" stroke-dasharray="15.5794 15.5794" stroke-linecap="round" stroke-linejoin="round" stroke-width="2" d="M609.727-104.836c24.394 14.379 54.332 18.793 83.617 18.793 62.625 0 113.386-50.766 113.386-113.387"/><path fill="maroon" d="M589.98-120.059c4.493 7.93 9.973 14.961 16.219 21.211l6.946-11.785c-7.989-2.14-15.747-5.222-23.165-9.426"/><path fill="none" stroke="maroon" stroke-linecap="round" stroke-linejoin="round" stroke-width="2" d="M589.98-120.059c4.493 7.93 9.973 14.961 16.219 21.211l6.946-11.785c-7.989-2.14-15.747-5.222-23.165-9.426"/><path fill="#bfffff" d="M849.25-241.949c0-23.485-19.035-42.52-42.52-42.52-23.484 0-42.519 19.035-42.519 42.52 0 23.484 19.035 42.519 42.519 42.519 23.485 0 42.52-19.035 42.52-42.519"/><path fill="none" stroke="#000" stroke-linecap="round" stroke-linejoin="round" stroke-width="3" d="M849.25-241.949c0-23.485-19.035-42.52-42.52-42.52-23.484 0-42.519 19.035-42.519 42.52 0 23.484 19.035 42.519 42.519 42.519 23.485 0 42.52-19.035 42.52-42.519"/><path fill="#f2f2f2" d="M750.039-390.77h113.387v-111.964H750.039Z"/><path fill="none" stroke="#000" stroke-linecap="round" stroke-linejoin="round" stroke-width="4" d="M750.039-390.77v-111.964h113.387v111.964z"/><path fill="#ffbfbf" d="M750.039-275.965h113.387v-111.969H750.039Z"/><path fill="none" stroke="maroon" stroke-linecap="round" stroke-linejoin="round" stroke-width="4" d="M750.039-387.934v111.969h113.387v-111.969z"/><path fill="none" stroke="#000" stroke-linecap="round" stroke-linejoin="round" stroke-width="2" d="M989.445-193.91q-6.316.15-12.636.148c-19.141 0-41.118 0-56.692-5.668"/><path d="M1019.4-195.461a534 534 0 0 1-30.142-6.391l.375 15.942a534 534 0 0 0 29.767-9.551"/><path fill="none" stroke="#000" stroke-linecap="round" stroke-linejoin="round" stroke-width="2" d="M1019.4-195.461a534 534 0 0 1-30.142-6.391l.375 15.942a534 534 0 0 0 29.767-9.551"/><path fill="none" stroke="maroon" stroke-dasharray="17.0351 17.0351" stroke-linecap="round" stroke-linejoin="round" stroke-width="2" d="M843.418-172.789a118 118 0 0 0 20.008 1.707c21.957 0 41.121-12.777 56.691-28.348"/><path fill="maroon" d="M819.406-179.586a118.3 118.3 0 0 0 22.84 13.617l2.313-13.461c-8.348.84-16.778.793-25.153-.156"/><path fill="none" stroke="maroon" stroke-linecap="round" stroke-linejoin="round" stroke-width="2" d="M819.406-179.586a118.3 118.3 0 0 0 22.84 13.617l2.313-13.461c-8.348.84-16.778.793-25.153-.156"/><path fill="#bfffff" d="M962.637-241.949c0-23.485-19.035-42.52-42.52-42.52-23.484 0-42.519 19.035-42.519 42.52 0 23.484 19.035 42.519 42.519 42.519 23.485 0 42.52-19.035 42.52-42.519"/><path fill="none" stroke="#000" stroke-linecap="round" stroke-linejoin="round" stroke-width="3" d="M962.637-241.949c0-23.485-19.035-42.52-42.52-42.52-23.484 0-42.519 19.035-42.519 42.52 0 23.484 19.035 42.519 42.519 42.519 23.485 0 42.52-19.035 42.52-42.519"/><path fill="#f2f2f2" d="M863.426-390.77h113.383v-111.964H863.426Z"/><path fill="none" stroke="#000" stroke-linecap="round" stroke-linejoin="round" stroke-width="4" d="M863.426-390.77v-111.964h113.383v111.964z"/><path fill="#ffbfbf" d="M863.426-275.965h113.383v-111.969H863.426Z"/><path fill="none" stroke="maroon" stroke-linecap="round" stroke-linejoin="round" stroke-width="4" d="M863.426-387.934v111.969h113.383v-111.969z"/><path fill="none" stroke="#000" stroke-linecap="round" stroke-linejoin="round" stroke-width="2" d="M1102.83-193.91q-6.315.15-12.63.148c-19.15 0-41.12 0-56.7-5.668"/><path d="M1132.79-195.461a537 537 0 0 1-30.15-6.391l.38 15.942a535 535 0 0 0 29.77-9.551"/><path fill="none" stroke="#000" stroke-linecap="round" stroke-linejoin="round" stroke-width="2" d="M1132.79-195.461a537 537 0 0 1-30.15-6.391l.38 15.942a535 535 0 0 0 29.77-9.551"/><path fill="none" stroke="maroon" stroke-dasharray="15.6675 15.6675" stroke-linecap="round" stroke-linejoin="round" stroke-width="2" d="M610.57-64.508c51.961 35.156 127.903 35.156 196.16 35.156 116.145 0 226.77-64.035 226.77-170.078"/><path fill="maroon" d="M591.297-80.375c4.43 7.781 9.601 14.953 15.406 21.582l7.645-11.297c-7.946-2.676-15.649-6.07-23.051-10.285"/><path fill="none" stroke="maroon" stroke-linecap="round" stroke-linejoin="round" stroke-width="2" d="M591.297-80.375c4.43 7.781 9.601 14.953 15.406 21.582l7.645-11.297c-7.946-2.676-15.649-6.07-23.051-10.285"/><path fill="#bfffff" d="M1076.02-241.949c0-23.485-19.03-42.52-42.52-42.52-23.48 0-42.516 19.035-42.516 42.52 0 23.484 19.036 42.519 42.516 42.519 23.49 0 42.52-19.035 42.52-42.519"/><path fill="none" stroke="#000" stroke-linecap="round" stroke-linejoin="round" stroke-width="3" d="M1076.02-241.949c0-23.485-19.03-42.52-42.52-42.52-23.48 0-42.516 19.035-42.516 42.52 0 23.484 19.036 42.519 42.516 42.519 23.49 0 42.52-19.035 42.52-42.519"/><path fill="#f2f2f2" d="M976.809-390.77H1090.2v-111.964H976.809Z"/><path fill="none" stroke="#000" stroke-linecap="round" stroke-linejoin="round" stroke-width="4" d="M976.809-390.77v-111.964H1090.2v111.964z"/><path fill="#ffbfbf" d="M976.809-275.965H1090.2v-111.969H976.809Z"/><path fill="none" stroke="maroon" stroke-linecap="round" stroke-linejoin="round" stroke-width="4" d="M976.809-387.934v111.969H1090.2v-111.969z"/><path fill="none" stroke="#000" stroke-linecap="round" stroke-linejoin="round" stroke-width="2" d="M1216.22-193.91c-4.21.101-8.43.148-12.64.148-19.14 0-41.12 0-56.69-5.668"/><path d="M1246.17-195.461a534 534 0 0 1-30.14-6.391l.38 15.942a535 535 0 0 0 29.76-9.551"/><path fill="none" stroke="#000" stroke-linecap="round" stroke-linejoin="round" stroke-width="2" d="M1246.17-195.461a534 534 0 0 1-30.14-6.391l.38 15.942a535 535 0 0 0 29.76-9.551"/><path fill="none" stroke="maroon" stroke-dasharray="15.0177 15.0177" stroke-linecap="round" stroke-linejoin="round" stroke-width="2" d="M958.59-175.875a588 588 0 0 0 74.91 4.793c40.77 0 85.04 0 113.39-28.348"/><path fill="maroon" d="M933.867-179.586a591 591 0 0 0 23.86 10.41l1.718-13.359a590 590 0 0 1-25.578 2.949"/><path fill="none" stroke="maroon" stroke-linecap="round" stroke-linejoin="round" stroke-width="2" d="M933.867-179.586a591 591 0 0 0 23.86 10.41l1.718-13.359a590 590 0 0 1-25.578 2.949"/><path fill="#bfffff" d="M1189.41-241.949c0-23.485-19.04-42.52-42.52-42.52s-42.52 19.035-42.52 42.52c0 23.484 19.04 42.519 42.52 42.519s42.52-19.035 42.52-42.519"/><path fill="none" stroke="#000" stroke-linecap="round" stroke-linejoin="round" stroke-width="3" d="M1189.41-241.949c0-23.485-19.04-42.52-42.52-42.52s-42.52 19.035-42.52 42.52c0 23.484 19.04 42.519 42.52 42.519s42.52-19.035 42.52-42.519"/><path fill="#f2f2f2" d="M1090.2-390.77h113.38v-111.964H1090.2Z"/><path fill="none" stroke="#000" stroke-linecap="round" stroke-linejoin="round" stroke-width="4" d="M1090.2-390.77v-111.964h113.38v111.964z"/><path fill="#ffbfbf" d="M1090.2-275.965h113.38v-111.969H1090.2Z"/><path fill="none" stroke="maroon" stroke-linecap="round" stroke-linejoin="round" stroke-width="4" d="M1090.2-387.934v111.969h113.38v-111.969z"/><path fill="none" stroke="#000" stroke-linecap="round" stroke-linejoin="round" stroke-width="2" d="M737.031-156.184a2145 2145 0 0 0 239.778 13.45c106.301 0 250.731 0 283.461-56.696"/><path d="M707.242-159.742a2192 2192 0 0 0 28.887 11.57l1.801-16.004a2175 2175 0 0 1-30.688 4.434"/><path fill="none" stroke="#000" stroke-linecap="round" stroke-linejoin="round" stroke-width="2" d="M707.242-159.742a2192 2192 0 0 0 28.887 11.57l1.801-16.004a2175 2175 0 0 1-30.688 4.434"/><path fill="none" stroke="maroon" stroke-dasharray="15.9099 15.9099" stroke-linecap="round" stroke-linejoin="round" stroke-width="2" d="M1067.53-129.434a216.8 216.8 0 0 0 79.36 15.043c58.07 0 113.38-32.015 113.38-85.039"/><path fill="maroon" d="M1044.84-139.902a216 216 0 0 0 20.19 16.832l4.96-12.629a218 218 0 0 1-25.15-4.203"/><path fill="none" stroke="maroon" stroke-linecap="round" stroke-linejoin="round" stroke-width="2" d="M1044.84-139.902a216 216 0 0 0 20.19 16.832l4.96-12.629a218 218 0 0 1-25.15-4.203"/><path fill="#bfffff" d="M1302.79-241.949c0-23.485-19.03-42.52-42.52-42.52-23.48 0-42.52 19.035-42.52 42.52 0 23.484 19.04 42.519 42.52 42.519 23.49 0 42.52-19.035 42.52-42.519"/><path fill="none" stroke="#000" stroke-linecap="round" stroke-linejoin="round" stroke-width="3" d="M1302.79-241.949c0-23.485-19.03-42.52-42.52-42.52-23.48 0-42.52 19.035-42.52 42.52 0 23.484 19.04 42.519 42.52 42.519 23.49 0 42.52-19.035 42.52-42.519"/><path fill="#f2f2f2" d="M1203.58-390.77h113.39v-111.964h-113.39Z"/><path fill="none" stroke="#000" stroke-linecap="round" stroke-linejoin="round" stroke-width="4" d="M1203.58-390.77v-111.964h113.39v111.964z"/><path fill="#ffbfbf" d="M1203.58-275.965h113.39v-111.969h-113.39Z"/><path fill="none" stroke="maroon" stroke-linecap="round" stroke-linejoin="round" stroke-width="4" d="M1203.58-387.934v111.969h113.39v-111.969z"/><path d="M250.563-250.16c0-1.34 0-8.031-6.075-8.031-11.332 0-14.343 21.418-14.343 24.859 0 2.82.765 7.937 6.168 7.937 3.875 0 7.601-2.726 10.421-8.656 1.532-3.344 3.829-11.566 3.829-16.109m-14.059 23.808c-2.055 0-3.535-1.722-3.535-4.687 0-3.774 3.535-18.5 5.594-22.133 1.718-2.965 4.015-4.066 5.64-4.066 1.289 0 3.633.672 3.633 4.636 0 4.45-3.633 16.832-3.922 17.739-.715 2.058-2.82 8.511-7.41 8.511m5.363-234.894c0-1.098 0-1.145-.953-1.145-1.148 1.289-3.539 3.059-8.465 3.059v1.387c1.102 0 3.492 0 6.121-1.243v24.907c0 1.718-.144 2.297-4.351 2.297h-1.481v1.382c1.289-.093 5.926-.093 7.504-.093s6.168 0 7.461.093v-1.382h-1.484c-4.207 0-4.352-.579-4.352-2.297z"/><path fill="maroon" d="M250.809-346.891v-1.097h-11.52c-5.785 0-5.883-.621-6.074-1.532h-1.051l-1.484 9.563h1.054c.145-.859.575-3.824 1.196-4.352.383-.285 3.968-.285 4.636-.285h10.137l-5.07 7.266c-1.289 1.863-6.117 9.707-6.117 18.695 0 .524 0 2.438 1.961 2.438 2.007 0 2.007-1.868 2.007-2.489v-2.386c0-7.125 1.145-12.672 3.395-15.875z"/><path d="M359.563-257.047c.046-.191.093-.476.093-.668 0-.191-.14-.476-.476-.476-.239 0-.289.046-.715.621-2.012 2.773-4.641 5.164-8.129 5.496-.574.097-.957.097-.957.91 0 .383.238.523.668.523 1.34 0 3.348-.621 5.308-2.007l-5.691 22.804c-.383 1.625-.812 2.059-4.445 2.059h-.383c-.859 0-1.289 0-1.289.906 0 .481.43.481.766.481 1.957 0 4.015-.098 6.023-.098 2.055 0 4.156.098 6.168.098.43 0 .953 0 .953-.864 0-.523-.336-.523-1.144-.523h-.383c-3.395 0-3.395-.434-3.395-1.004 0-.051 0-.336.192-1.055zm2.972-181.586h-1.051c-.144.813-.527 3.445-1.004 4.207-.335.434-3.058.434-4.496.434h-8.843c1.293-1.102 4.207-4.16 5.453-5.309 7.265-6.691 9.941-9.179 9.941-13.914 0-5.496-4.347-9.176-9.894-9.176s-8.797 4.731-8.797 8.844c0 2.438 2.101 2.438 2.246 2.438 1.004 0 2.246-.719 2.246-2.246 0-1.34-.906-2.25-2.246-2.25-.43 0-.527 0-.668.05.906-3.254 3.488-5.453 6.594-5.453 4.066 0 6.55 3.395 6.55 7.793 0 4.067-2.339 7.602-5.066 10.664l-9.656 10.805v1.144h17.449z"/><path fill="maroon" d="M362.918-332.496c0-3.973-.238-7.844-1.961-11.477-1.961-3.968-5.402-5.019-7.742-5.019-2.774 0-6.168 1.387-7.938 5.351-1.339 3.012-1.816 5.977-1.816 11.145 0 4.637.336 8.125 2.055 11.519 1.867 3.633 5.164 4.782 7.648 4.782 4.16 0 6.551-2.489 7.938-5.258 1.722-3.586 1.816-8.274 1.816-11.043m-9.754 15.344c-1.527 0-4.637-.86-5.543-6.071-.527-2.871-.527-6.504-.527-9.847 0-3.922 0-7.461.765-10.282.813-3.203 3.25-4.687 5.305-4.687 1.82 0 4.59 1.101 5.5 5.215.621 2.722.621 6.5.621 9.754 0 3.203 0 6.836-.527 9.75-.906 5.257-3.918 6.168-5.594 6.168"/><path d="M468.277-238.352c1.196-.671 2.34-1.484 3.489-2.296 3.3-2.532 5.547-5.211 5.547-9.61 0-4.59-3.012-7.933-7.266-7.933-7.031 0-10.805 9.703-10.805 12.812 0 1.574.621 2.914 2.293 2.914 3.778 0 5.692-5.879 5.692-7.551 0-1.007-.481-2.488-.957-2.488-.192 0-.528.191-.528.481 0 .093 0 .187.145.429.332.715.383 1.434.383 1.578 0 1.336-1.676 6.594-4.688 6.594-.906 0-1.051-.762-1.051-1.574 0-3.207 3.492-12.242 9.371-12.242 2.153 0 4.254 1.578 4.254 5.355 0 .813-.093 4.781-2.535 8.274-2.242 3.105-6.117 5.351-7.359 6.07-7.172 4.16-8.895 11.281-8.895 11.711 0 .433.383.433.672.433.524 0 .57-.097.766-.621.429-1.531 1.191-2.964 2.625-2.964 1.535 0 2.773.906 4.16 1.863 1.293.906 2.629 1.722 4.305 1.722 5.449 0 7.554-8.418 7.554-8.796 0-.43-.433-.43-.621-.43-.574 0-.574.094-.765.762-.766 2.437-2.774 5.402-5.692 5.402-1.433 0-3.105-.43-4.254-.715-1.961-.48-3.25-.766-4.496-.766-.238 0-.859 0-1.242.145 2.441-4.352 6.215-6.453 6.266-6.504zm-4.582-209.414c-.812.051-1.004.098-1.004.528 0 .48.239.48 1.102.48h2.199c4.063 0 5.879 3.344 5.879 7.934 0 6.261-3.25 7.937-5.594 7.937-2.293 0-6.214-1.097-7.601-4.254 1.531.239 2.918-.625 2.918-2.343 0-1.387-1.004-2.344-2.344-2.344-1.148 0-2.391.672-2.391 2.488 0 4.254 4.258 7.746 9.563 7.746 5.687 0 9.898-4.351 9.898-9.179 0-4.399-3.539-7.844-8.129-8.657 4.161-1.191 6.836-4.683 6.836-8.414 0-3.777-3.918-6.547-8.558-6.547-4.781 0-8.317 2.914-8.317 6.407 0 1.91 1.481 2.293 2.2 2.293 1.003 0 2.152-.719 2.152-2.153 0-1.527-1.149-2.199-2.199-2.199-.289 0-.383 0-.528.051 1.817-3.254 6.313-3.254 6.551-3.254 1.578 0 4.684.719 4.684 5.402 0 .91-.145 3.586-1.532 5.641-1.433 2.105-3.058 2.25-4.347 2.297z"/><path fill="maroon" d="M460.781-333.84c0-12.094 5.879-14.004 8.461-14.004 1.723 0 3.442.524 4.352 1.957-.574 0-2.391 0-2.391 1.961 0 1.055.719 1.961 1.961 1.961 1.195 0 2.008-.719 2.008-2.105 0-2.485-1.817-4.922-5.977-4.922-6.023 0-12.336 6.168-12.336 16.683 0 13.149 5.739 16.114 9.801 16.114 5.211 0 9.66-4.543 9.66-10.758 0-6.36-4.449-10.613-9.23-10.613-4.254 0-5.832 3.679-6.309 5.019zm5.879 16.352c-3.012 0-4.445-2.676-4.875-3.68-.43-1.242-.906-3.586-.906-6.934 0-3.777 1.719-8.507 6.019-8.507 2.633 0 4.02 1.765 4.735 3.394.765 1.77.765 4.16.765 6.211 0 2.441 0 4.594-.91 6.41-1.195 2.293-2.914 3.106-4.828 3.106"/><path d="M578.996-243.086c-.812 0-1.195 0-1.195.91 0 .477.285.477 1.144.477h1.293c.668 0 3.778 0 3.778 4.066 0 .86-.528 5.211-2.489 7.934-1.718 2.293-4.3 3.347-6.168 3.347-2.531 0-4.828-1.625-4.828-5.164 2.489 0 2.489-2.054 2.489-2.101 0-1.196-1.051-1.438-1.485-1.438-2.34 0-2.34 3.012-2.34 3.633 0 3.301 2.246 6.027 6.164 6.027 5.93 0 11.813-5.07 11.813-10.71 0-1.672-.527-4.59-3.828-6.024 5.211-1.816 7.797-6.406 7.797-9.754 0-3.394-2.442-6.308-6.696-6.308-5.547 0-10.328 5.019-10.328 9.082 0 2.246 1.293 3.011 2.535 3.011 1.817 0 3.918-1.722 3.918-4.062 0-.957-.523-2.344-1-2.344-.191 0-.527.191-.527.481 0 .093 0 .187.191.476.336.668.383 1.242.383 1.434 0 1.722-1.625 3.058-2.918 3.058-1.051 0-1.289-1.004-1.289-1.863 0-3.684 4.254-8.32 8.942-8.32 1.957 0 4.062 1.054 4.062 4.304 0 .668-.43 9.848-8.367 9.848zm10.723-202.812c0-3.969-.239-7.84-1.961-11.473-1.961-3.969-5.403-5.02-7.746-5.02-2.77 0-6.168 1.383-7.934 5.352-1.34 3.012-1.816 5.976-1.816 11.141 0 4.636.332 8.125 2.054 11.519 1.864 3.637 5.164 4.785 7.649 4.785 4.16 0 6.551-2.488 7.937-5.261 1.719-3.586 1.817-8.274 1.817-11.043m-9.754 15.347c-1.527 0-4.637-.863-5.543-6.07-.527-2.871-.527-6.508-.527-9.852 0-3.918 0-7.457.761-10.281.817-3.199 3.254-4.684 5.309-4.684 1.816 0 4.59 1.098 5.5 5.211.621 2.727.621 6.504.621 9.754 0 3.203 0 6.836-.527 9.754-.911 5.258-3.918 6.168-5.594 6.168"/><path fill="maroon" d="M589.336-325.23h-1.051c-.144.812-.527 3.441-1.004 4.207-.336.429-3.062.429-4.496.429h-8.844c1.293-1.101 4.207-4.16 5.45-5.308 7.269-6.692 9.945-9.18 9.945-13.911 0-5.5-4.352-9.179-9.898-9.179-5.543 0-8.797 4.734-8.797 8.844 0 2.437 2.105 2.437 2.25 2.437 1.004 0 2.246-.715 2.246-2.246 0-1.34-.91-2.246-2.246-2.246-.43 0-.528 0-.672.047.91-3.25 3.492-5.449 6.597-5.449 4.067 0 6.551 3.39 6.551 7.792 0 4.063-2.344 7.598-5.066 10.661l-9.66 10.804v1.149h17.453z"/><path d="M697.414-240.613c.145-.575.191-.719.191-.864 0-.714-.574-1.195-1.242-1.195-.336 0-1.097.195-1.48.863-.336.715-1.961 7.649-2.344 9.18-.621-.238-2.246-.863-2.918-1.051-1.672-.574-2.437-.574-3.535-.574-.813 0-.91 0-1.34.047 2.344-2.297 5.356-5.262 8.891-11.094 4.687-7.601 6.695-15.965 6.695-16.445 0-.477-.336-1.145-1.242-1.145-1.34 0-1.625 1.192-1.817 1.911-1.339 5.019-3.156 10.996-6.839 17.257-2.723 4.637-6.789 9.133-8.942 10.328-.621.332-1.336 1.051-1.336 1.481 0 .144.383.766.668.766.289 0 .91-.524 1.485-1.004.429-.332.906-.715 3.632-.715 1.051 0 1.77 0 3.442.57 1.289.43-.047 0 2.773 1.055l-1.578 6.453c-.191.574-.43 1.578-.43 1.816 0 .528.383 1.149 1.243 1.149.91 0 1.531-.668 1.769-1.672l1.723-6.981c.285.047.715.047 1 .047 1.484 0 4.351-.672 4.351-1.293 0-.191-.332-.812-.668-.812-.144 0-.144.051-.429.144-.813.286-1.817.575-3.059.575-.238 0-.625 0-.863-.051zm-9.695-217.379c2.054.668 3.73.715 4.258.715 5.402 0 8.843-3.969 8.843-4.637 0-.191-.097-.43-.382-.43-.098 0-.192 0-.622.192a15.8 15.8 0 0 1-6.214 1.289c-3.157 0-5.407-.957-6.313-1.34-.336-.141-.43-.141-.476-.141-.383 0-.383.285-.383 1.051v14.199c0 .86 0 1.149.574 1.149.238 0 .285-.047.762-.625 1.339-1.957 3.586-3.106 5.976-3.106 2.535 0 3.778 2.344 4.16 3.156.813 1.864.864 4.207.864 6.024 0 1.816 0 4.543-1.34 6.691-1.055 1.723-2.918 2.918-5.02 2.918-3.156 0-6.265-2.152-7.125-5.64.239.093.528.144.766.144.812 0 2.101-.48 2.101-2.105 0-1.34-.906-2.106-2.101-2.106-.859 0-2.106.43-2.106 2.297 0 4.063 3.254 8.703 8.559 8.703 5.402 0 10.137-4.543 10.137-10.617 0-5.687-3.824-10.422-8.844-10.422-2.727 0-4.828 1.195-6.074 2.535z"/><path fill="maroon" d="M687.48-333.84c0-12.094 5.879-14.004 8.461-14.004 1.723 0 3.442.524 4.352 1.957-.574 0-2.391 0-2.391 1.961 0 1.055.719 1.961 1.961 1.961 1.196 0 2.008-.719 2.008-2.105 0-2.485-1.816-4.922-5.976-4.922-6.024 0-12.332 6.168-12.332 16.683 0 13.149 5.734 16.114 9.796 16.114 5.211 0 9.661-4.543 9.661-10.758 0-6.36-4.45-10.613-9.227-10.613-4.258 0-5.836 3.679-6.313 5.019zm5.879 16.352c-3.011 0-4.445-2.676-4.875-3.68-.429-1.242-.906-3.586-.906-6.934 0-3.777 1.719-8.507 6.024-8.507 2.628 0 4.015 1.765 4.73 3.394.766 1.77.766 4.16.766 6.211 0 2.441 0 4.594-.91 6.41-1.196 2.293-2.915 3.106-4.829 3.106"/><path d="M805.27-254.082c1.671.719 3.058.719 3.777.719 5.164 0 9.133-3.731 9.133-4.399 0-.336-.242-.383-.383-.383-.098 0-.145 0-.574.141-2.153.957-4.16 1.34-6.028 1.34-1.863 0-3.773-.43-5.304-1.289-.239-.098-.43-.192-.575-.192-.285 0-.382.141-.523.766l-3.637 14.484a3.3 3.3 0 0 0-.093.668c0 .145.046.481.527.481.332 0 .379-.098.621-.383.668-.766 2.961-3.348 6.5-3.348 2.68 0 3.012 3.063 3.012 4.352 0 2.152-1.196 7.312-2.485 9.656-1.961 3.539-4.687 4.781-6.644 4.781-3.301 0-4.926-2.914-4.688-5.785 1.77.289 2.727-1.195 2.727-2.199 0-1.48-1.438-1.531-1.578-1.531-2.535 0-2.535 3.398-2.535 4.258 0 3.632 2.152 6.55 6.023 6.55 6.023 0 12.289-6.55 12.289-13.722 0-3.922-2.105-7.313-6.027-7.313-3.297 0-5.735 2.102-5.973 2.293zm-4.387-193.156c0-12.094 5.879-14.008 8.461-14.008 1.719 0 3.441.527 4.351 1.961-.574 0-2.39 0-2.39 1.961 0 1.051.715 1.957 1.957 1.957 1.195 0 2.008-.715 2.008-2.102 0-2.484-1.817-4.922-5.973-4.922-6.027 0-12.336 6.164-12.336 16.684 0 13.144 5.734 16.113 9.801 16.113 5.211 0 9.656-4.543 9.656-10.758 0-6.359-4.445-10.617-9.227-10.617-4.253 0-5.832 3.684-6.308 5.024zm5.879 16.351c-3.016 0-4.449-2.676-4.879-3.683-.43-1.243-.906-3.582-.906-6.93 0-3.777 1.718-8.512 6.023-8.512 2.629 0 4.016 1.77 4.734 3.395.762 1.769.762 4.16.762 6.215 0 2.437 0 4.589-.906 6.41-1.195 2.293-2.918 3.105-4.828 3.105"/><path fill="maroon" d="M803.797-334.363c-.813.047-1.004.097-1.004.523 0 .481.238.481 1.098.481h2.203c4.062 0 5.879 3.347 5.879 7.937 0 6.262-3.25 7.934-5.594 7.934-2.293 0-6.215-1.098-7.602-4.254 1.528.238 2.918-.621 2.918-2.344 0-1.383-1.007-2.34-2.343-2.34-1.149 0-2.391.668-2.391 2.485 0 4.253 4.254 7.746 9.562 7.746 5.688 0 9.895-4.352 9.895-9.18 0-4.398-3.535-7.84-8.125-8.652 4.156-1.196 6.836-4.688 6.836-8.418 0-3.774-3.922-6.547-8.559-6.547-4.781 0-8.316 2.914-8.316 6.406 0 1.914 1.48 2.293 2.195 2.293 1.004 0 2.153-.715 2.153-2.152 0-1.528-1.149-2.196-2.2-2.196-.285 0-.382 0-.523.047 1.816-3.25 6.309-3.25 6.547-3.25 1.578 0 4.683.715 4.683 5.399 0 .91-.14 3.586-1.527 5.644-1.434 2.102-3.059 2.246-4.352 2.293z"/><path d="M915.609-242.367c3.297-13.723 9.801-14.68 11.379-14.68 1.434 0 2.821.43 3.203 1.914-2.343.094-2.343 2.055-2.343 2.153 0 .906.668 1.386 1.48 1.386.242 0 2.25 0 2.25-2.965s-2.535-3.632-4.496-3.632c-2.769 0-7.168 1.48-11.519 7.742-4.114 5.883-5.02 14.105-5.02 16.59 0 3.109.859 8.464 6.215 8.464 6.121 0 11.902-7.125 11.902-14.011 0-1.864-1.051-7.36-6.406-7.36-3.203 0-5.305 2.344-6.645 4.399m1.289 15.679c-2.484 0-3.441-2.246-3.441-4.492 0-4.207 2.344-14.633 8.559-14.633 3.441 0 3.441 3.684 3.441 4.305 0 1.817-1.387 7.84-2.578 10.375-.289.524-2.297 4.445-5.981 4.445m14.211-233.601v-1.102H919.59c-5.785 0-5.883-.621-6.074-1.527h-1.051l-1.485 9.563h1.051c.145-.864.578-3.825 1.196-4.352.382-.285 3.968-.285 4.64-.285h10.137l-5.07 7.265c-1.289 1.864-6.121 9.704-6.121 18.692 0 .527 0 2.441 1.96 2.441 2.008 0 2.008-1.867 2.008-2.488v-2.391c0-7.121 1.149-12.668 3.395-15.871z"/><path fill="maroon" d="M914.52-344.594c2.054.668 3.73.715 4.253.715 5.403 0 8.844-3.965 8.844-4.637 0-.191-.094-.429-.383-.429-.093 0-.187 0-.617.191a15.7 15.7 0 0 1-6.219 1.289c-3.152 0-5.402-.953-6.308-1.336-.336-.144-.43-.144-.481-.144-.382 0-.382.289-.382 1.05v14.2c0 .863 0 1.148.578 1.148.238 0 .285-.047.761-.621 1.34-1.961 3.586-3.105 5.977-3.105 2.535 0 3.777 2.339 4.16 3.152.813 1.863.86 4.207.86 6.023 0 1.817 0 4.543-1.336 6.696-1.055 1.718-2.918 2.914-5.024 2.914-3.152 0-6.262-2.149-7.121-5.641.238.098.527.145.766.145.812 0 2.101-.481 2.101-2.106 0-1.336-.906-2.101-2.101-2.101-.864 0-2.106.429-2.106 2.293 0 4.066 3.25 8.703 8.559 8.703 5.402 0 10.137-4.543 10.137-10.614 0-5.687-3.829-10.421-8.848-10.421-2.723 0-4.828 1.195-6.07 2.531z"/><path d="M1031.5-262.465c0-.426-.34-.426-.67-.426-.43 0-.53 0-.86.715l-4.5 9.801c-.24.527-.24.574-.24.668 0 .383.38.383.62.383.43 0 .48-.047.91-.766 2.87-5.59 6.74-7.742 9.42-7.742.86 0 1.15.336 1.82 1.625.43.953.91 1.863 2.29 1.863 1.01 0 1.91-.429 2.3-.621-3.49 5.594-4.98 8.414-6.22 10.949-4.11 8.176-5.45 14.055-5.45 14.485 0 .527.34 1.437 1.58 1.437 1.72 0 2.05-1.293 2.58-3.492 1.63-6.359 5.26-17.641 11.76-27.586.77-1.101.77-1.195.77-1.34 0-.379-.38-.379-.62-.379-.44 0-.48.047-1.1.86-1.25 1.91-3.3 4.73-5.55 4.73-1.05 0-1.24-.621-1.39-2.387-.14-1.675-.24-3.203-2.2-3.203-2.48 0-4.78 1.481-6.45 3.153zm4.55-185.394c2.39-1.289 5.88-3.489 5.88-7.508 0-4.156-4.02-7.024-8.42-7.024-4.73 0-8.46 3.489-8.46 7.84 0 1.625.48 3.25 1.82 4.875.52.621.57.668 3.92 3.012-4.64 2.152-7.03 5.355-7.03 8.844 0 5.066 4.83 8.226 9.71 8.226 5.3 0 9.75-3.922 9.75-8.941 0-4.879-3.44-7.028-7.17-9.324m-6.5-4.305c-.63-.43-2.54-1.672-2.54-4.016 0-3.105 3.25-5.066 6.46-5.066 3.44 0 6.5 2.488 6.5 5.93 0 2.914-2.11 5.257-4.88 6.789zm2.24 6.172 5.79 3.773c1.24.813 3.44 2.297 3.44 5.211 0 3.637-3.68 6.121-7.51 6.121-4.06 0-7.55-2.965-7.55-6.933 0-3.727 2.72-6.743 5.83-8.172"/><path fill="maroon" d="M1030.6-334.363c-.82.047-1.01.097-1.01.523 0 .481.24.481 1.1.481h2.2c4.06 0 5.88 3.347 5.88 7.937 0 6.262-3.25 7.934-5.59 7.934-2.3 0-6.22-1.098-7.6-4.254 1.53.238 2.91-.621 2.91-2.344 0-1.383-1-2.34-2.34-2.34-1.15 0-2.39.668-2.39 2.485 0 4.253 4.26 7.746 9.56 7.746 5.69 0 9.9-4.352 9.9-9.18 0-4.398-3.54-7.84-8.13-8.652 4.16-1.196 6.84-4.688 6.84-8.418 0-3.774-3.92-6.547-8.56-6.547-4.78 0-8.32 2.914-8.32 6.406 0 1.914 1.48 2.293 2.2 2.293 1 0 2.15-.715 2.15-2.152 0-1.528-1.15-2.196-2.2-2.196-.28 0-.38 0-.52.047 1.81-3.25 6.31-3.25 6.55-3.25 1.57 0 4.68.715 4.68 5.399 0 .91-.14 3.586-1.53 5.644-1.43 2.102-3.06 2.246-4.35 2.293z"/><path d="M1150.15-243.516c3.11-1.625 7.56-4.492 7.56-9.086 0-3.679-3.01-5.589-6.22-5.589-5.02 0-9.8 4.683-9.8 9.558 0 2.965 1.24 4.016 3.64 6.024-5.79 2.586-9.04 6.742-9.04 10.757 0 3.969 3.2 6.457 7.17 6.457 5.93 0 11.33-5.546 11.33-10.902 0-3.441-1.72-4.828-4.64-7.219m-4.68-4.16c-.48-.429-1.34-1.195-1.34-2.914 0-3.441 3.73-6.457 7.22-6.457 2.39 0 4.35 1.531 4.35 4.352 0 3.062-2.34 6.312-6.36 8.414zm4.06 8.75c1.77 1.578 2.63 2.344 2.63 4.496 0 4.016-4.35 7.742-8.51 7.742-3.25 0-5.16-2.246-5.16-5.117 0-3.918 3.49-8.172 7.65-10.039zm3.17-205.586c0 11.282-5.02 13.625-7.89 13.625-1.15 0-3.68-.144-4.88-1.816h.29c.33.094 2.06-.192 2.06-1.961 0-1.051-.72-1.957-1.96-1.957-1.25 0-2.01.808-2.01 2.051 0 2.965 2.39 4.976 6.55 4.976 5.97 0 11.76-6.359 11.76-16.734 0-12.86-5.36-16.063-9.56-16.063-5.26 0-9.9 4.399-9.9 10.707 0 6.313 4.45 10.614 9.23 10.614 3.54 0 5.35-2.582 6.31-5.02zm-6.12 2.485c-3.01 0-4.3-2.438-4.73-3.344-.77-1.817-.77-4.113-.77-6.266 0-2.676 0-4.972 1.24-6.933.86-1.289 2.16-2.676 4.74-2.676 2.72 0 4.11 2.391 4.59 3.492.95 2.34.95 6.406.95 7.121 0 4.016-1.81 8.606-6.02 8.606"/><path fill="maroon" d="M1141.08-333.84c0-12.094 5.88-14.004 8.46-14.004 1.72 0 3.44.524 4.35 1.957-.57 0-2.39 0-2.39 1.961 0 1.055.72 1.961 1.96 1.961 1.2 0 2.01-.719 2.01-2.105 0-2.485-1.82-4.922-5.97-4.922-6.03 0-12.34 6.168-12.34 16.683 0 13.149 5.74 16.114 9.8 16.114 5.21 0 9.66-4.543 9.66-10.758 0-6.36-4.45-10.613-9.23-10.613-4.25 0-5.83 3.679-6.31 5.019zm5.88 16.352c-3.01 0-4.45-2.676-4.88-3.68-.43-1.242-.9-3.586-.9-6.934 0-3.777 1.72-8.507 6.02-8.507 2.63 0 4.02 1.765 4.73 3.394.77 1.77.77 4.16.77 6.211 0 2.441 0 4.594-.91 6.41-1.2 2.293-2.92 3.106-4.83 3.106"/><path d="M1265.95-241.27c-2.97 12.813-8.56 14.582-10.86 14.582-1.19 0-2.96-.238-3.63-1.718 1.67-.145 2.25-1.387 2.25-2.203 0-.907-.67-1.383-1.49-1.383-.33 0-2.24.094-2.24 2.914 0 3.207 3.34 3.683 5.02 3.683 4.16 0 7.74-3.253 10.23-6.503 4.64-6.168 5.78-14.485 5.78-17.93 0-1.434 0-8.363-5.97-8.363-6.17 0-12.15 6.929-12.15 13.957 0 1.867 1.1 7.363 6.41 7.363 2.87 0 5.07-1.863 6.65-4.399m-6.41 3.442c-3.44 0-3.44-3.774-3.44-4.254 0-2.199 1.62-8.316 2.29-9.754 1.24-2.676 3.49-5.211 6.55-5.211 3.01 0 3.25 3.586 3.25 4.352 0 3.492-2.1 14.867-8.65 14.867m6.32-223.895c0-.91 0-1.148-.67-1.148-.38 0-.53 0-.91.574l-14.39 22.328v1.383h12.57v4.352c0 1.769-.09 2.25-3.58 2.25h-.96v1.382c1.1-.093 4.88-.093 6.22-.093s5.16 0 6.26.093v-1.382h-.95c-3.45 0-3.59-.481-3.59-2.25v-4.352h4.83v-1.383h-4.83zm-3.16 3.731v18.023h-11.61z"/><path fill="maroon" d="M1271.31-346.891v-1.097h-11.52c-5.79 0-5.88-.621-6.07-1.532h-1.06l-1.48 9.563h1.05c.15-.859.58-3.824 1.2-4.352.38-.285 3.97-.285 4.64-.285h10.13l-5.07 7.266c-1.29 1.863-6.12 9.707-6.12 18.695 0 .524 0 2.438 1.97 2.438 2 0 2-1.868 2-2.489v-2.386c0-7.125 1.15-12.672 3.4-15.875z"/><path d="M50.586-448.109c0-4.684-2.203-6.883-6.121-6.883-3.25 0-5.356 1.816-6.168 2.726 0-1.769 0-2.441-1.914-2.441H33.23c-.667 0-1.914 0-1.914 1.387 0 1.386 1.247 1.386 1.915 1.386h1.956v15.063h-1.956c-.669 0-1.915 0-1.915 1.387 0 1.382 1.247 1.382 1.915 1.382h7.027c.668 0 1.914 0 1.914-1.382 0-1.387-1.246-1.387-1.914-1.387h-1.961v-8.656c0-4.637 3.25-6.692 5.832-6.692 2.773 0 3.348 1.578 3.348 4.301v11.047h-1.961c-.668 0-1.91 0-1.91 1.387 0 1.382 1.242 1.382 1.91 1.382h7.027c.672 0 1.914 0 1.914-1.382 0-1.387-1.242-1.387-1.914-1.387h-1.957zm24.504 4.828c1.004 0 1.91 0 1.91-1.766 0-5.594-3.156-10.09-9.133-10.09-5.543 0-9.992 4.782-9.992 10.614 0 6.027 4.832 10.71 10.71 10.71 6.169 0 8.415-4.257 8.415-5.5 0-.285-.094-1.335-1.578-1.335-.906 0-1.195.332-1.48 1.05-1.196 2.774-4.301 3.012-5.211 3.012-3.97 0-7.125-3.012-7.649-6.695zm-13.961-2.629c.621-4.063 3.73-6.453 6.738-6.453 4.781 0 5.79 4.062 5.977 6.453zm28.996 2.773c0-5.687 4.016-9.082 8.082-9.082.238 0 .527 0 .766.047.14 1.723 1.48 1.863 1.816 1.863 1.098 0 1.863-.812 1.863-1.863 0-2.055-2.007-2.82-4.398-2.82-3.203 0-5.926 1.433-8.129 4.109v-1.863c0-1.481-.285-1.961-1.91-1.961h-4.828c-.672 0-1.914 0-1.914 1.387 0 1.386 1.242 1.386 1.914 1.386h3.632v15.063h-3.632c-.672 0-1.914 0-1.914 1.387 0 1.382 1.242 1.382 1.914 1.382h11.761c.668 0 1.91 0 1.91-1.382 0-1.387-1.242-1.387-1.91-1.387h-5.023zm36.078-1.289c0-5.976-4.351-10.711-9.515-10.711s-9.516 4.735-9.516 10.711c0 6.024 4.398 10.613 9.516 10.613 5.117 0 9.515-4.589 9.515-10.613m-9.515 7.84c-3.442 0-6.407-3.633-6.407-8.176 0-4.445 3.059-7.601 6.407-7.601 3.343 0 6.406 3.156 6.406 7.601 0 4.59-2.965 8.176-6.406 8.176m24.265 14.438v-1.77h-4.64v-44.27h4.64v-1.769h-6.406v47.809zm14.578-18.79c0-.238-.191-.429-.48-.429-.43 0-.477.144-.715.957-1.242 4.347-3.203 5.832-4.781 5.832-.575 0-1.242-.145-1.242-1.578 0-1.289.57-2.727 1.097-4.16l3.348-8.891c.14-.383.476-1.242.476-2.152 0-2.008-1.433-3.825-3.777-3.825-4.398 0-6.168 6.93-6.168 7.317 0 .187.195.429.527.429.43 0 .481-.191.668-.863 1.149-4.015 2.965-5.926 4.829-5.926.433 0 1.246.047 1.246 1.579 0 1.242-.621 2.82-1.004 3.871l-3.348 8.894c-.285.762-.574 1.528-.574 2.391 0 2.148 1.484 3.871 3.777 3.871 4.399 0 6.121-6.981 6.121-7.317m-.383-22.996a1.6 1.6 0 0 0-1.625-1.578c-1.101 0-2.343 1.051-2.343 2.297 0 1.195 1.004 1.578 1.578 1.578 1.289 0 2.39-1.246 2.39-2.297m10.262-6.023h-6.406v1.769h4.637v44.27h-4.637v1.77h6.406z"/><path fill="maroon" d="M16.328-329.734c0-5.692 4.016-9.086 8.078-9.086.239 0 .528 0 .766.047.14 1.722 1.48 1.867 1.816 1.867 1.098 0 1.864-.813 1.864-1.867 0-2.055-2.008-2.821-4.399-2.821-3.203 0-5.926 1.438-8.125 4.114v-1.864c0-1.484-.289-1.961-1.914-1.961H9.586c-.672 0-1.914 0-1.914 1.387s1.242 1.387 1.914 1.387h3.633v15.058H9.586c-.672 0-1.914 0-1.914 1.387s1.242 1.387 1.914 1.387h11.762c.668 0 1.91 0 1.91-1.387s-1.242-1.387-1.91-1.387h-5.02zm36.074-1.293c0-5.977-4.351-10.707-9.515-10.707s-9.512 4.73-9.512 10.707c0 6.023 4.398 10.613 9.512 10.613 5.117 0 9.515-4.59 9.515-10.613m-9.515 7.839c-3.442 0-6.407-3.632-6.407-8.171 0-4.45 3.06-7.606 6.407-7.606s6.406 3.156 6.406 7.606c0 4.586-2.965 8.171-6.406 8.171m32.394-16.73c0-.766 0-1.816-1.34-1.816-1.148 0-1.433 1.097-1.433 1.144-1.914-1.144-4.114-1.144-5.07-1.144-7.79 0-8.844 3.968-8.844 5.593 0 1.957 1.148 3.297 2.773 4.207 1.531.86 2.918 1.098 6.836 1.719 1.867.336 5.691.957 5.691 3.586 0 1.77-1.628 3.441-6.074 3.441-3.058 0-5.066-1.195-6.07-4.636-.238-.668-.383-1.196-1.578-1.196-1.578 0-1.578.911-1.578 1.864v4.926c0 .765 0 1.816 1.34 1.816.574 0 1.004 0 1.722-1.957 2.196 1.816 4.684 1.957 6.164 1.957 8.844 0 8.844-5.734 8.844-6.215 0-4.973-5.926-5.976-8.219-6.309-4.21-.718-7.078-1.195-7.078-3.203 0-1.293 1.485-2.824 5.977-2.824 4.543 0 4.734 2.152 4.828 3.395.094.957.957 1.101 1.531 1.101 1.578 0 1.578-.859 1.578-1.816zm24.598 0c0-.766 0-1.816-1.34-1.816-1.145 0-1.433 1.097-1.433 1.144-1.91-1.144-4.11-1.144-5.067-1.144-7.793 0-8.844 3.968-8.844 5.593 0 1.957 1.149 3.297 2.774 4.207 1.527.86 2.914 1.098 6.836 1.719 1.863.336 5.687.957 5.687 3.586 0 1.77-1.625 3.441-6.07 3.441-3.059 0-5.07-1.195-6.07-4.636-.243-.668-.383-1.196-1.579-1.196-1.578 0-1.578.911-1.578 1.864v4.926c0 .765 0 1.816 1.336 1.816.575 0 1.008 0 1.723-1.957 2.2 1.816 4.683 1.957 6.168 1.957 8.844 0 8.844-5.734 8.844-6.215 0-4.973-5.93-5.976-8.223-6.309-4.207-.718-7.074-1.195-7.074-3.203 0-1.293 1.48-2.824 5.976-2.824 4.54 0 4.73 2.152 4.828 3.395.094.957.954 1.101 1.528 1.101 1.578 0 1.578-.859 1.578-1.816zm26.324 8.891c0-5.977-4.351-10.707-9.515-10.707s-9.516 4.73-9.516 10.707c0 6.023 4.398 10.613 9.516 10.613 5.117 0 9.515-4.59 9.515-10.613m-9.515 7.839c-3.442 0-6.407-3.632-6.407-8.171 0-4.45 3.059-7.606 6.407-7.606 3.343 0 6.406 3.156 6.406 7.606 0 4.586-2.965 8.171-6.406 8.171m24.265 14.442v-1.77h-4.64v-44.273h4.64v-1.766h-6.406v47.809zm14.578-18.789c0-.238-.191-.434-.48-.434-.43 0-.477.145-.715.957-1.242 4.352-3.203 5.832-4.781 5.832-.575 0-1.242-.14-1.242-1.578 0-1.289.57-2.722 1.097-4.156l3.348-8.895c.14-.382.476-1.242.476-2.152 0-2.008-1.433-3.824-3.777-3.824-4.398 0-6.168 6.933-6.168 7.316 0 .192.195.43.527.43.43 0 .481-.191.668-.859 1.149-4.016 2.965-5.93 4.829-5.93.433 0 1.246.047 1.246 1.578 0 1.242-.621 2.82-1.004 3.871l-3.348 8.895c-.285.765-.574 1.531-.574 2.39 0 2.149 1.484 3.871 3.777 3.871 4.399 0 6.121-6.98 6.121-7.312m-.383-22.996c0-.719-.574-1.578-1.625-1.578-1.101 0-2.343 1.05-2.343 2.293 0 1.195 1.004 1.578 1.578 1.578 1.289 0 2.39-1.242 2.39-2.293m10.262-6.024h-6.406v1.766h4.637v44.273h-4.637v1.77h6.406z"/><path d="M152.93-233.137c0-.238-.192-.429-.477-.429-.43 0-.48.144-.719.957-1.242 4.347-3.203 5.832-4.781 5.832-.574 0-1.242-.145-1.242-1.578 0-1.293.574-2.727 1.102-4.161l3.343-8.89c.145-.383.477-1.242.477-2.153 0-2.007-1.43-3.824-3.774-3.824-4.398 0-6.168 6.93-6.168 7.313 0 .191.192.429.528.429.429 0 .476-.187.668-.859 1.144-4.016 2.965-5.93 4.828-5.93.43 0 1.242.051 1.242 1.578 0 1.247-.621 2.821-1.004 3.875l-3.344 8.891c-.289.766-.578 1.531-.578 2.391 0 2.152 1.485 3.875 3.782 3.875 4.398 0 6.117-6.981 6.117-7.317m-.383-22.996c0-.719-.574-1.578-1.625-1.578-1.102 0-2.344 1.051-2.344 2.297 0 1.195 1.004 1.574 1.578 1.574 1.293 0 2.391-1.242 2.391-2.293"/></g></svg>