<svg xmlns="http://www.w3.org/2000/svg" width="904pt" height="596" viewBox="0 -447 904 447"><g id="page1" transform="scale(1 -1)"><path fill="#cc9c6f" d="M143.008 392.828a7150 7150 0 0 1 617.555-86.793l2.367 16.844a7141 7141 0 0 1-307.832 50.133 7144 7144 0 0 1-309.723 36.66z"/><path fill="none" stroke="#000" stroke-linecap="round" stroke-linejoin="round" stroke-width="2" d="M143.008 392.828a7150 7150 0 0 1 617.555-86.793l2.367 16.844a7141 7141 0 0 1-307.832 50.133 7144 7144 0 0 1-309.723 36.66z"/><path fill="#fff" d="M176.746 397.387a5.668 5.668 0 1 1-11.336 0 5.667 5.667 0 1 1 11.336 0"/><path fill="none" stroke="#000" stroke-linecap="round" stroke-linejoin="round" stroke-width="2" d="M176.746 397.387a5.668 5.668 0 1 1-11.336 0 5.667 5.667 0 1 1 11.336 0"/><path fill="#fff" d="M738.16 318.484a5.67 5.67 0 1 1-11.341.003 5.67 5.67 0 0 1 11.341-.003"/><path fill="none" stroke="#000" stroke-linecap="round" stroke-linejoin="round" stroke-width="2" d="M738.16 318.484a5.67 5.67 0 1 1-11.341.003 5.67 5.67 0 0 1 11.341-.003"/><path fill="#d3ae37" d="M341.156 150.773c0 15.657-76.144 28.348-170.078 28.348C77.148 179.121 1 166.43 1 150.773s76.148-28.347 170.078-28.347c93.934 0 170.078 12.691 170.078 28.347"/><path fill="none" stroke="#000" stroke-linecap="round" stroke-linejoin="round" stroke-width="2" d="M341.156 150.773c0 15.657-76.144 28.348-170.078 28.348C77.148 179.121 1 166.43 1 150.773s76.148-28.347 170.078-28.347c93.934 0 170.078 12.691 170.078 28.347M171.078 377.547l161.41-217.813m-161.41 217.813L117.32 177.676m53.758 199.871L19.984 137.746m151.094 239.801v19.84"/><path fill="#662d90" d="M111.5 132.703c-.621 4.52-2.879 8.86-6.336 11.871-6.82 6.465-12.223 14.528-15.058 23.563-2.391.308-4.739 1.062-6.598 2.57-1.64 1.106-3.102 2.523-4.871 3.453-1.11.707-1.684-.707-1.551-1.594-.09-2.66.219-5.316.664-7.929-2.48.179-4.43 2.215-5.316 4.386-.707 1.504-1.504 3.012-2.524 4.34-.797.84-2.172-.043-2.039-1.152-.531-2.969-1.02-5.934-2.082-8.77-.973-2.168-2.746-3.851-4.562-5.359 1.418-8.281 2.879-16.609 5.406-24.625 1.285-3.898 2.746-7.707 4.96-11.16 3.055-4.609 7.438-8.418 12.579-10.586 3.984-1.731 8.594-2.215 12.8-1.063 5.891 1.547 10.938 5.934 13.243 11.559 1.375 3.277 1.816 6.953 1.285 10.496"/><path fill="#39b44a" d="M89.086 172.258c-.707 5.004-3.809 9.699-8.457 11.867a14.2 14.2 0 0 1-7.75 1.285c-.8 3.188-1.64 6.422-2.438 9.656-1.152-1.375-2.48-2.66-3.011-4.429-.578-1.641-.489-3.453.043-5.094.133-.531.265-1.105.398-1.641-5.312-2.656-8.68-8.589-8.414-14.48.133-2.262.664-4.43.973-6.645.265-1.55.53-3.144.797-4.695 2.129 1.773 4.296 3.898 5.007 6.645.84 2.656 1.285 5.402 1.727 8.148.355 1.152 1.992.977 2.348-.043 1.062-1.461 1.77-3.144 2.57-4.738 1.015-1.774 2.789-3.278 4.871-3.457-.445 2.836-.844 5.672-.621 8.551-.09 1.152 1.195 1.414 1.95.75 2.257-1.415 4.163-3.364 6.554-4.559 1.418-.664 2.922-1.02 4.473-1.242a26 26 0 0 0-1.02 4.121"/><path fill-rule="evenodd" d="M113.27 132.969c-.707 4.918-3.145 9.613-6.911 12.89-6.687 6.375-12 14.352-14.703 23.207-.574 1.727-.797 3.5-1.195 5.274-1.195 5.137-4.871 9.742-9.79 11.734a16.1 16.1 0 0 1-6.464 1.196c-.71 2.793-1.375 5.625-2.129 8.46-.441 1.196-2.215 1.504-2.965.489-1.242-1.461-2.66-2.879-3.277-4.742-.754-2.036-.711-4.293-.09-6.375.223-.711-1.105-.887-1.46-1.418-4.919-3.856-7.442-10.496-6.337-16.61 1.551-9.523 3.059-19.047 5.407-28.39 1.46-5.715 3.277-11.426 6.242-16.524 2.703-4.426 6.558-8.101 11.074-10.715 4.562-2.613 10.055-3.855 15.234-2.836 5.805 1.063 11.074 4.653 14.219 9.657 2.789 4.297 3.898 9.609 3.145 14.703m-44.602 49.34c.887.445 1.152 1.507.844 2.394-.399 1.551-.977 3.145-.578 4.738.09.442.488 1.86.71 1.551.532-2.082 1.016-4.121 1.551-6.203.352-1.062 1.547-1.328 2.524-1.105 4.164.308 8.37-1.641 10.851-5.004 1.637-2.129 2.524-4.696 2.88-7.309.042-.445.398-1.152-.31-.711-1.906.711-3.413 2.125-5.05 3.278-1.242.886-2.48 2.039-4.031 2.171-1.328.09-2.438-1.062-2.614-2.347-.308-2.039-.09-4.164.133-6.246-1.46 1.328-1.86 3.324-2.922 4.875-.71 1.148-1.328 2.566-2.746 2.964-1.64.532-3.5-.707-3.722-2.39-.485-2.969-.973-5.938-1.993-8.77-.441-.976-1.062-1.816-1.77-2.613-.398 2.438-.886 4.871-1.152 7.309-.488 5.449 2.524 10.984 7.395 13.418m37.691-63.289c-3.496-4.786-9.566-7.665-15.543-7.176-5.226.441-10.011 3.187-13.777 6.73-2.523 2.348-4.605 5.184-5.977 8.371-3.101 6.645-4.742 13.821-6.203 20.95a350 350 0 0 0-1.726 9.48c2.172 1.859 4.12 4.16 4.828 6.996.664 2.172 1.105 4.387 1.46 6.602 1.153-1.774 1.685-3.899 3.145-5.45 1.375-1.55 3.325-2.613 5.403-2.613 1.242.09 1.863 1.504 1.418 2.613-.309 2.125-.575 4.297-.575 6.465 2.082-1.461 3.985-3.23 6.29-4.34 1.152-.488 2.39-.839 3.632-1.105 1.95-5.672 4.872-10.984 8.504-15.77-.976.266-2.261.665-3.011-.308-.887-.977-.266-2.656 1.015-2.879a17.87 17.87 0 0 0 9.438-5.004c4.605-4.477 6.375-11.473 4.605-17.629-.574-2.125-1.594-4.117-2.926-5.933"/><path fill-rule="evenodd" d="M90.02 151.352c-.977-.047-2.262-.133-2.66-1.286-.489-1.152.663-2.57 1.906-2.347.972.09 2.168.133 2.523 1.195.574 1.152-.441 2.613-1.77 2.438"/><path fill="#865b52" d="M127.789 141.609c-.797 7.934 2.629 16.106 8.77 21.129a40.4 40.4 0 0 0 7.414 4.344c1.316.559 2.672 1.039 3.828 1.914 3.586 2.594 6.258 6.18 9.445 9.207 3.188 3.192 6.895 5.981 11.199 7.574 5.305 2.036 11.243 2.672 16.785 1.196 4.903-1.395 9.086-4.864 11.637-9.207 2.91-4.942 3.59-10.883 3.113-16.504a14.8 14.8 0 0 0-1.597-6.098c-2.43-4.824-6.18-8.848-10.004-12.555-6.856-6.5-14.469-12.16-22.484-17.14-3.188-1.875-6.415-3.789-9.965-5.024-1.871-.679-3.867-.281-5.778.039-5.422 1.196-10.605 3.625-14.871 7.215-3.785 3.231-6.578 7.696-7.336 12.676-.078.398-.117.84-.156 1.234"/><path fill="#513531" d="M169.402 144.961c-2.113-1.438-4.023-3.109-6.097-4.547-4.985-3.586-10.563-6.656-16.703-7.57-3.305-.481-6.696-.242-9.965.476-3.028.758-6.219 2.153-8.012 4.864-.238.32-.559 1.277-.32.359 1.355-5.66 4.226-11.082 8.609-15.027 4.27-3.828 9.93-6.02 15.668-6.18 4.106-.199 8.133.598 12.039 1.754 4.863 1.555 9.246 4.223 13.75 6.574 6.102 3.391 12 7.336 16.586 12.637 2.828 3.23 4.742 7.219 6.098 11.285 1.953 5.699 2.312 11.957.675 17.777-1.074 3.867-2.867 7.575-5.101 10.922-.875 1.317-1.793 2.59-2.949 3.668.797-4.945.957-10.047.16-14.988-.598-3.59-1.875-7.098-4.227-9.926-3.308-4.305-7.691-7.973-12.836-9.809-2.191-.875-4.543-1.195-6.773-1.992a4 4 0 0 1-.602-.277"/><path fill="#30201d" d="M164.781 132.203c.559-.875 1.91-.558 2.828-.598 1.676.079 3.352.36 4.985.637.996.039 1.754 1.117.797 1.836-1.078 1.195-2.473 2.231-4.067 2.512-.996.117-1.793-.719-2.511-1.356-.797-.839-1.715-1.754-2.032-2.91zm14.547-1.515c.719-.516 1.637.199 2.235.597.835.719 1.433 1.754 1.554 2.871-.16.918-1.515.719-2.191.52-1.356-.442-1.914-2.074-1.797-3.391.043-.195.082-.437.199-.597m19.098 38.191c-.797.797-1.399-.879-1.676-1.477-.398-.836-.437-2.074.52-2.589.753-.598 2.07-.282 2.152.796.117 1.157-.481 2.27-.996 3.27m-54.934-42.856c-.554-1.035.68-1.832 1.438-2.308.797-.36 1.793-.641 2.59-.199.558.754-.516 1.472-.997 1.992-.675.597-1.554 1.433-2.511.996a1.24 1.24 0 0 1-.52-.481"/><path fill="#513531" d="M136.238 140.258c-.597-.641-.359-1.637-.277-2.395-.039-.996.676-1.515 1.633-1.394.797 0 2.23-.199 2.39.879-.238 1.113-1.195 1.953-2.031 2.668-.476.359-1.195.636-1.715.242m5.543 5.578c.477-.758 1.516-.516 2.071.039.718.598 1.355 1.836.636 2.711-.797.719-1.953 0-2.468-.715-.36-.598-.68-1.398-.239-2.035m12.395 24.797c-.957.515-1.711-.442-1.992-1.278-.399-1.156-1.278-2.113-1.516-3.308.199-.957 1.594-.598 2.312-.559.797.082 1.793.438 1.954 1.356.281 1.156.359 2.472-.36 3.469-.078.16-.238.238-.398.32"/><path fill="#c3ada8" d="M132.93 143.207c.957-.32 1.793.559 2.433 1.195 1.633 1.672 2.707 3.786 4.383 5.422 2.352 2.313 5.063 4.266 7.973 5.821 3.59 1.871 7.613 2.468 11.519 3.386 2.035.477 4.149 1.274 5.582 2.91 3.149 3.348 4.703 7.813 7.453 11.481 1.637 2.191 4.106 3.785 6.856 4.023 1.398.203 2.832-.078 4.187.321 1.075.359 1.157 1.836.758 2.75-.879 1.793-2.871 2.672-4.703 3.109-4.027.879-8.375-.039-11.641-2.551-2.949-2.152-5.023-5.222-6.859-8.332-1.594-2.469-2.988-5.101-5.058-7.215-1.438-1.433-3.348-2.113-5.262-2.668-4.11-1.316-8.094-3.23-11.321-6.14-2.156-1.832-4.027-4.028-5.343-6.539-.875-1.754-1.793-3.586-1.754-5.578 0-.559.238-1.157.797-1.395"/><path fill="#513531" d="M176.938 171.668c.32-1.715 2.074-2.633 3.628-2.992 1.274-.356 2.911-.039 3.508 1.277.399.875-.398 1.676-1.117 1.992-.996.481-2.113.719-2.949 1.516-.598.637-1.637.836-2.352.238-.597-.476-.758-1.312-.718-2.031"/><path fill="#865b52" d="M211.387 141.609c-.797 7.934 2.629 16.106 8.769 21.129a40.3 40.3 0 0 0 7.414 4.344c1.313.559 2.668 1.039 3.825 1.914 3.589 2.594 6.257 6.18 9.449 9.207 3.187 3.192 6.894 5.981 11.199 7.574 5.305 2.036 11.242 2.672 16.781 1.196 4.906-1.395 9.09-4.864 11.641-9.207 2.91-4.942 3.59-10.883 3.109-16.504a14.7 14.7 0 0 0-1.594-6.098c-2.429-4.824-6.179-8.848-10.003-12.555-6.86-6.5-14.473-12.16-22.485-17.14-3.187-1.875-6.418-3.789-9.965-5.024-1.875-.679-3.867-.281-5.781.039-5.422 1.196-10.601 3.625-14.867 7.215-3.785 3.231-6.578 7.696-7.336 12.676-.078.398-.117.84-.156 1.234"/><path fill="#513531" d="M253 144.961c-2.113-1.438-4.023-3.109-6.098-4.547-4.984-3.586-10.562-6.656-16.703-7.57-3.308-.481-6.695-.242-9.965.476-3.031.758-6.218 2.153-8.011 4.864-.239.32-.559 1.277-.321.359 1.356-5.66 4.227-11.082 8.61-15.027 4.265-3.828 9.926-6.02 15.668-6.18 4.105-.199 8.133.598 12.039 1.754 4.863 1.555 9.246 4.223 13.75 6.574 6.101 3.391 12 7.336 16.586 12.637 2.828 3.23 4.742 7.219 6.097 11.285 1.953 5.699 2.313 11.957.676 17.777-1.074 3.867-2.867 7.575-5.101 10.922-.875 1.317-1.793 2.59-2.95 3.668.797-4.945.957-10.047.161-14.988-.598-3.59-1.875-7.098-4.227-9.926-3.309-4.305-7.691-7.973-12.836-9.809-2.191-.875-4.543-1.195-6.777-1.992-.2-.078-.399-.16-.598-.277"/><path fill="#30201d" d="M248.379 132.203c.555-.875 1.91-.558 2.828-.598 1.676.079 3.348.36 4.984.637.997.039 1.754 1.117.797 1.836-1.078 1.195-2.472 2.231-4.066 2.512-.996.117-1.793-.719-2.512-1.356-.797-.839-1.715-1.754-2.031-2.91zm14.547-1.515c.719-.516 1.637.199 2.234.597.836.719 1.434 1.754 1.555 2.871-.16.918-1.516.719-2.195.52-1.356-.442-1.911-2.074-1.793-3.391.039-.195.082-.437.199-.597m19.094 38.191c-.797.797-1.395-.879-1.672-1.477-.399-.836-.442-2.074.515-2.589.758-.598 2.075-.282 2.153.796.121 1.157-.477 2.27-.996 3.27m-54.93-42.856c-.559-1.035.68-1.832 1.437-2.308.797-.36 1.793-.641 2.59-.199.559.754-.519 1.472-.996 1.992-.68.597-1.555 1.433-2.512.996a1.24 1.24 0 0 1-.519-.481"/><path fill="#513531" d="M219.836 140.258c-.598-.641-.359-1.637-.277-2.395-.043-.996.675-1.515 1.632-1.394.797 0 2.231-.199 2.391.879-.238 1.113-1.195 1.953-2.031 2.668-.481.359-1.196.636-1.715.242m5.543 5.578c.476-.758 1.512-.516 2.07.039.719.598 1.356 1.836.637 2.711-.797.719-1.953 0-2.469-.715-.359-.598-.679-1.398-.238-2.035m12.394 24.797c-.957.515-1.714-.442-1.992-1.278-.398-1.156-1.277-2.113-1.515-3.308.199-.957 1.593-.598 2.312-.559.797.082 1.793.438 1.953 1.356.278 1.156.36 2.472-.359 3.469-.078.16-.238.238-.399.32"/><path fill="#c3ada8" d="M216.527 143.207c.957-.32 1.793.559 2.434 1.195 1.633 1.672 2.707 3.786 4.383 5.422 2.351 2.313 5.062 4.266 7.972 5.821 3.586 1.871 7.614 2.468 11.52 3.386 2.031.477 4.144 1.274 5.582 2.91 3.148 3.348 4.703 7.813 7.453 11.481 1.633 2.191 4.106 3.785 6.856 4.023 1.394.203 2.832-.078 4.187.321 1.074.359 1.156 1.836.758 2.75-.879 1.793-2.871 2.672-4.707 3.109-4.024.879-8.371-.039-11.637-2.551-2.949-2.152-5.023-5.222-6.859-8.332-1.594-2.469-2.989-5.101-5.063-7.215-1.433-1.433-3.347-2.113-5.261-2.668-4.106-1.316-8.09-3.23-11.321-6.14-2.152-1.832-4.023-4.028-5.34-6.539-.879-1.754-1.793-3.586-1.754-5.578 0-.559.239-1.157.797-1.395"/><path fill="#513531" d="M260.535 171.668c.32-1.715 2.074-2.633 3.629-2.992 1.274-.356 2.906-.039 3.508 1.277.398.875-.402 1.676-1.117 1.992-.996.481-2.114.719-2.95 1.516-.597.637-1.636.836-2.351.238-.598-.476-.758-1.312-.719-2.031"/><path fill="#bc9a16" d="M1 150.773c0-68.597 90.55-70.867 170.078-70.867 79.527 0 170.078 2.27 170.078 70.867 0-15.656-76.144-28.347-170.078-28.347C77.148 122.426 1 135.117 1 150.773"/><path fill="none" stroke="#000" stroke-linecap="round" stroke-linejoin="round" stroke-width="2" d="M1 150.773c0-68.597 90.55-70.867 170.078-70.867 79.527 0 170.078 2.27 170.078 70.867 0-15.656-76.144-28.347-170.078-28.347C77.148 122.426 1 135.117 1 150.773"/><path fill="#d3ae37" d="M902.57 71.871c0 15.656-76.148 28.348-170.078 28.348-93.933 0-170.082-12.692-170.082-28.348 0-15.652 76.149-28.344 170.082-28.344 93.93 0 170.078 12.692 170.078 28.344"/><path fill="none" stroke="#000" stroke-linecap="round" stroke-linejoin="round" stroke-width="2" d="M902.57 71.871c0 15.656-76.148 28.348-170.078 28.348-93.933 0-170.082-12.692-170.082-28.348 0-15.652 76.149-28.344 170.082-28.344 93.93 0 170.078 12.692 170.078 28.344M732.492 298.645 893.898 80.832M732.492 298.645 678.73 98.773m53.762 199.872L581.395 58.844m151.097 239.801v19.839"/><path fill="#79ac14" d="M690.07 78.836c1.95 3.367 4.606 7.266 6.555 9.746 0 .707-.176 1.414-.176 2.3-.711 3.544-3.722 6.204-6.91 5.673-3.191-.532-5.316-3.899-4.605-7.621.175-1.594 1.414-5.313 2.832-9.036.711-.175 1.593-.53 2.304-1.062"/><path fill="none" stroke="#000" stroke-linecap="round" stroke-linejoin="round" stroke-width="2.25" d="M690.07 78.836c1.95 3.367 4.606 7.266 6.555 9.746 0 .707-.176 1.414-.176 2.3-.711 3.544-3.722 6.204-6.91 5.673-3.191-.532-5.316-3.899-4.605-7.621.175-1.594 1.414-5.313 2.832-9.036.711-.175 1.593-.53 2.304-1.062"/><path fill="#79ac14" d="M694.852 74.055c3.367 1.949 7.265 4.605 9.746 6.554.707 0 1.418-.18 2.3-.18 3.547-.706 6.204-3.718 5.672-6.906-.531-3.191-3.898-5.14-7.617-4.609-1.598.18-5.316 1.418-9.035 2.836-.18.707-.531 1.594-1.066 2.305"/><path fill="none" stroke="#000" stroke-linecap="round" stroke-linejoin="round" stroke-width="2.25" d="M694.852 74.055c3.367 1.949 7.265 4.605 9.746 6.554.707 0 1.418-.18 2.3-.18 3.547-.706 6.204-3.718 5.672-6.906-.531-3.191-3.898-5.14-7.617-4.609-1.598.18-5.316 1.418-9.035 2.836-.18.707-.531 1.594-1.066 2.305"/><path fill="#a4cd34" d="M692.727 76.71a7.8 7.8 0 0 0 2.125-2.655c4.429 2.3 9.921 6.375 11.515 7.972 2.66 2.657 2.836 6.555.531 8.856-2.125 2.305-6.199 1.949-8.855-.531-1.594-1.594-5.492-7.086-7.973-11.516a7.8 7.8 0 0 0 2.657-2.125"/><path fill="none" stroke="#000" stroke-linecap="round" stroke-linejoin="round" stroke-width="2.25" d="M692.727 76.71a7.8 7.8 0 0 0 2.125-2.655c4.429 2.3 9.921 6.375 11.515 7.972 2.66 2.657 2.836 6.555.531 8.856-2.125 2.305-6.199 1.949-8.855-.531-1.594-1.594-5.492-7.086-7.973-11.516a7.8 7.8 0 0 0 2.657-2.125"/><path fill="#f26d21" d="M692.727 76.71c-5.493 5.493-14.528 5.138-20.196-.706-8.859-8.86-29.234-35.613-22.679-42.168 6.554-6.555 33.308 13.82 42.168 22.68 5.843 5.843 6.199 14.703.707 20.195"/><path fill="#ce5c1c" d="M692.727 76.71c2.304-5.136 1.062-11.69-3.368-16.12-8.324-8.328-32.418-26.574-40.746-23.563 0-1.418.356-2.48 1.239-3.191 6.554-6.555 33.308 13.82 42.168 22.68 5.843 5.668 6.199 14.703.707 20.195"/><g fill="none" stroke="#000" stroke-linecap="round" stroke-linejoin="round" stroke-width="2.25"><path d="M690.953 55.273s-5.312 1.774-10.629 7.086m-10.453-5.668s-3.363 3.012-6.906 7.973m20.551-15.59s-4.43 1.239-7.266 4.074m1.418-8.328s-4.605.887-9.391 5.668m-12.222 3.722s1.949-3.722 5.843-6.91m6.555 24.274s1.067-3.191 4.078-6.203m-15.414-26.043s2.481-2.836 5.492-4.074m38.27 49.606-8.152-8.15m-1.774 11.34 1.067-6.023m12.046-7.089-6.023 1.066"/><path d="M692.727 76.71c-5.493 5.493-14.528 5.138-20.196-.706-8.859-8.86-29.234-35.613-22.679-42.168 6.554-6.555 33.308 13.82 42.168 22.68 5.843 5.843 6.199 14.703.707 20.195"/></g><path fill="#79ac14" d="M764.887 78.836c1.949 3.367 4.605 7.266 6.554 9.746 0 .707-.179 1.414-.179 2.3-.707 3.544-3.719 6.204-6.907 5.673-3.191-.532-5.316-3.899-4.609-7.621.18-1.594 1.418-5.313 2.836-9.036.711-.175 1.594-.53 2.305-1.062"/><path fill="none" stroke="#000" stroke-linecap="round" stroke-linejoin="round" stroke-width="2.25" d="M764.887 78.836c1.949 3.367 4.605 7.266 6.554 9.746 0 .707-.179 1.414-.179 2.3-.707 3.544-3.719 6.204-6.907 5.673-3.191-.532-5.316-3.899-4.609-7.621.18-1.594 1.418-5.313 2.836-9.036.711-.175 1.594-.53 2.305-1.062"/><path fill="#79ac14" d="M769.668 74.055c3.367 1.949 7.266 4.605 9.746 6.554.707 0 1.414-.18 2.301-.18 3.543-.706 6.203-3.718 5.672-6.906-.532-3.191-3.899-5.14-7.621-4.609-1.594.18-5.313 1.418-9.036 2.836-.175.707-.531 1.594-1.062 2.305"/><path fill="none" stroke="#000" stroke-linecap="round" stroke-linejoin="round" stroke-width="2.25" d="M769.668 74.055c3.367 1.949 7.266 4.605 9.746 6.554.707 0 1.414-.18 2.301-.18 3.543-.706 6.203-3.718 5.672-6.906-.532-3.191-3.899-5.14-7.621-4.609-1.594.18-5.313 1.418-9.036 2.836-.175.707-.531 1.594-1.062 2.305"/><path fill="#a4cd34" d="M767.543 76.71a7.8 7.8 0 0 0 2.125-2.655c4.43 2.3 9.922 6.375 11.516 7.972 2.66 2.657 2.836 6.555.531 8.856-2.125 2.305-6.199 1.949-8.856-.531-1.597-1.594-5.492-7.086-7.972-11.516a7.8 7.8 0 0 0 2.656-2.125"/><path fill="none" stroke="#000" stroke-linecap="round" stroke-linejoin="round" stroke-width="2.25" d="M767.543 76.71a7.8 7.8 0 0 0 2.125-2.655c4.43 2.3 9.922 6.375 11.516 7.972 2.66 2.657 2.836 6.555.531 8.856-2.125 2.305-6.199 1.949-8.856-.531-1.597-1.594-5.492-7.086-7.972-11.516a7.8 7.8 0 0 0 2.656-2.125"/><path fill="#f26d21" d="M767.543 76.71c-5.492 5.493-14.527 5.138-20.195-.706-8.86-8.86-29.235-35.613-22.68-42.168s33.309 13.82 42.168 22.68c5.844 5.843 6.199 14.703.707 20.195"/><path fill="#ce5c1c" d="M767.543 76.71c2.305-5.136 1.062-11.69-3.367-16.12-8.324-8.328-32.422-26.574-40.746-23.563 0-1.418.351-2.48 1.238-3.191 6.555-6.555 33.309 13.82 42.168 22.68 5.844 5.668 6.199 14.703.707 20.195"/><g fill="none" stroke="#000" stroke-linecap="round" stroke-linejoin="round" stroke-width="2.25"><path d="M765.77 55.273s-5.313 1.774-10.629 7.086m-10.453-5.668s-3.368 3.012-6.911 7.973m20.551-15.59s-4.426 1.239-7.262 4.074m1.418-8.328s-4.605.887-9.39 5.668m-12.223 3.722s1.945-3.722 5.844-6.91m6.555 24.274s1.066-3.191 4.078-6.203m-15.414-26.043s2.48-2.836 5.492-4.074m38.265 49.606-8.148-8.15m-1.773 11.34 1.066-6.023m12.047-7.089-6.024 1.066"/><path d="M767.543 76.71c-5.492 5.493-14.527 5.138-20.195-.706-8.86-8.86-29.235-35.613-22.68-42.168s33.309 13.82 42.168 22.68c5.844 5.843 6.199 14.703.707 20.195"/></g><path fill="#865b52" d="M802.863 53.66c-.797 7.93 2.633 16.102 8.774 21.125a40.5 40.5 0 0 0 7.414 4.348c1.312.555 2.668 1.035 3.824 1.91 3.59 2.594 6.258 6.18 9.449 9.21 3.188 3.188 6.895 5.978 11.199 7.575 5.305 2.031 11.243 2.668 16.786 1.195 4.902-1.394 9.086-4.863 11.636-9.21 2.91-4.942 3.59-10.883 3.11-16.5a14.7 14.7 0 0 0-1.594-6.102c-2.43-4.82-6.18-8.848-10.004-12.555-6.855-6.5-14.473-12.16-22.484-17.14-3.188-1.875-6.418-3.79-9.965-5.024-1.875-.676-3.867-.277-5.781.04-5.418 1.195-10.602 3.628-14.868 7.214-3.785 3.23-6.578 7.695-7.336 12.676-.078.398-.117.84-.16 1.238"/><path fill="#513531" d="M844.48 57.008c-2.113-1.434-4.027-3.11-6.097-4.543-4.985-3.59-10.563-6.66-16.703-7.574-3.309-.48-6.696-.243-9.965.476-3.031.758-6.219 2.153-8.012 4.864-.238.32-.558 1.277-.32.359 1.355-5.66 4.226-11.082 8.609-15.028 4.266-3.828 9.93-6.019 15.668-6.18 4.106-.198 8.133.598 12.039 1.755 4.864 1.554 9.246 4.226 13.75 6.578 6.102 3.387 12 7.332 16.582 12.637 2.832 3.226 4.746 7.214 6.102 11.28 1.953 5.7 2.312 11.958.676 17.778-1.075 3.867-2.868 7.574-5.102 10.922-.879 1.316-1.793 2.59-2.949 3.668.797-4.945.957-10.047.16-14.988-.598-3.59-1.875-7.098-4.227-9.926-3.308-4.305-7.691-7.973-12.836-9.805-2.191-.879-4.542-1.199-6.777-1.996-.199-.078-.398-.156-.598-.277"/><path fill="#30201d" d="M839.855 44.25c.563-.875 1.915-.555 2.833-.598 1.675.082 3.347.36 4.984.641.996.039 1.754 1.113.797 1.832-1.078 1.195-2.473 2.23-4.067 2.512-.996.12-1.793-.719-2.511-1.356-.797-.836-1.715-1.754-2.036-2.91zm14.551-1.512c.719-.52 1.637.2 2.235.598.836.715 1.433 1.754 1.554 2.867-.16.918-1.515.719-2.191.52-1.359-.438-1.914-2.075-1.797-3.387.043-.2.082-.441.199-.598M873.5 80.926c-.797.797-1.395-.88-1.672-1.477-.398-.836-.437-2.07.516-2.59.758-.597 2.074-.28 2.156.797.117 1.156-.48 2.274-1 3.27m-54.93-42.852c-.558-1.039.68-1.836 1.438-2.312.797-.36 1.793-.64 2.59-.2.558.758-.52 1.473-.996 1.993-.68.597-1.555 1.433-2.512.996a1.24 1.24 0 0 1-.52-.477"/><path fill="#513531" d="M811.316 52.305c-.597-.64-.359-1.637-.281-2.395-.039-.996.68-1.512 1.637-1.394.797 0 2.23-.2 2.391.879-.239 1.117-1.196 1.953-2.032 2.671-.48.356-1.195.637-1.715.239m5.539 5.578c.481-.754 1.516-.516 2.075.043.718.597 1.355 1.832.636 2.71-.796.716-1.953 0-2.468-.718-.36-.598-.68-1.395-.243-2.035m12.399 24.797c-.957.515-1.715-.442-1.992-1.278-.399-1.156-1.278-2.113-1.516-3.308.199-.957 1.594-.598 2.313-.559.796.082 1.793.442 1.953 1.356.281 1.156.359 2.472-.36 3.468-.078.16-.238.239-.398.32"/><path fill="#c3ada8" d="M808.008 55.254c.957-.32 1.793.559 2.43 1.195 1.636 1.676 2.71 3.785 4.386 5.422 2.352 2.313 5.063 4.266 7.973 5.82 3.586 1.871 7.613 2.47 11.519 3.387 2.036.48 4.149 1.278 5.582 2.91 3.149 3.348 4.704 7.813 7.454 11.48 1.632 2.192 4.105 3.79 6.855 4.028 1.395.2 2.832-.082 4.188.317 1.074.359 1.156 1.835.757 2.753-.879 1.793-2.871 2.668-4.707 3.106-4.023.879-8.371-.04-11.636-2.55-2.954-2.153-5.024-5.22-6.86-8.329-1.594-2.473-2.988-5.106-5.058-7.215-1.438-1.437-3.352-2.113-5.262-2.672-4.109-1.316-8.094-3.23-11.324-6.14-2.153-1.832-4.024-4.024-5.34-6.536-.879-1.753-1.793-3.59-1.754-5.582 0-.558.238-1.156.797-1.394"/><path fill="#513531" d="M852.016 83.715c.32-1.715 2.074-2.63 3.629-2.988 1.273-.36 2.91-.043 3.507 1.273.399.879-.398 1.676-1.117 1.992-.996.48-2.113.719-2.949 1.516-.598.64-1.637.84-2.352.238-.597-.477-.757-1.312-.718-2.031"/><path fill="#bc9a16" d="M562.41 71.871c0-68.598 90.555-70.863 170.082-70.863 79.528 0 170.078 2.265 170.078 70.863 0-15.652-76.148-28.344-170.078-28.344-93.933 0-170.082 12.692-170.082 28.344"/><path fill="none" stroke="#000" stroke-linecap="round" stroke-linejoin="round" stroke-width="2" d="M562.41 71.871c0-68.598 90.555-70.863 170.082-70.863 79.528 0 170.078 2.265 170.078 70.863 0-15.652-76.148-28.344-170.078-28.344-93.933 0-170.082 12.692-170.082 28.344"/><path fill="#cc9c6f" d="M458.871 357.938c0 3.914-3.172 7.085-7.086 7.085s-7.086-3.171-7.086-7.085 3.172-7.086 7.086-7.086 7.086 3.171 7.086 7.086"/><path fill="none" stroke="#000" stroke-linecap="round" stroke-linejoin="round" stroke-width="2" d="M458.871 357.938c0 3.914-3.172 7.085-7.086 7.085s-7.086-3.171-7.086-7.085 3.172-7.086 7.086-7.086 7.086 3.171 7.086 7.086"/><circle cx="451.785" cy="357.938" r="1"/><path fill="#cc9c6f" d="M437.609 54.629h28.348v340.156h-28.348Z"/><path fill="none" stroke="#000" stroke-linecap="round" stroke-linejoin="round" stroke-width="2" d="M437.609 54.629h28.348v340.156h-28.348z"/><path fill="#cc9c6f" d="M458.871 357.938c0 3.914-3.172 7.085-7.086 7.085s-7.086-3.171-7.086-7.085 3.172-7.086 7.086-7.086 7.086 3.171 7.086 7.086"/><path fill="none" stroke="#000" stroke-linecap="round" stroke-linejoin="round" stroke-width="2" d="M458.871 357.938c0 3.914-3.172 7.085-7.086 7.085s-7.086-3.171-7.086-7.085 3.172-7.086 7.086-7.086 7.086 3.171 7.086 7.086"/><path fill="#cc9c6f" d="M454.617 394.785c3.641 3.824 5.672 8.899 5.672 14.176s-2.031 10.352-5.672 14.172h-5.668c-3.636-3.82-5.668-8.895-5.668-14.172s2.032-10.352 5.668-14.176z"/><path fill="none" stroke="#000" stroke-linecap="round" stroke-linejoin="round" stroke-width="2" d="M454.617 394.785c3.641 3.824 5.672 8.899 5.672 14.176s-2.031 10.352-5.672 14.172h-5.668c-3.636-3.82-5.668-8.895-5.668-14.172s2.032-10.352 5.668-14.176z"/><path fill="#cc9c6f" d="M463.121 434.473c0 6.261-5.074 11.34-11.336 11.34s-11.34-5.079-11.34-11.34 5.078-11.34 11.34-11.34 11.336 5.078 11.336 11.34"/><path fill="none" stroke="#000" stroke-linecap="round" stroke-linejoin="round" stroke-width="2" d="M463.121 434.473c0 6.261-5.074 11.34-11.336 11.34s-11.34-5.079-11.34-11.34 5.078-11.34 11.34-11.34 11.336 5.078 11.336 11.34"/><path fill="#cc9c6f" d="M494.305 26.281c-13.692 0-22.676 13.625-22.676 28.348h-39.688c0-14.723-8.988-28.348-22.675-28.348z"/><path fill="none" stroke="#000" stroke-linecap="round" stroke-linejoin="round" stroke-width="2" d="M494.305 26.281c-13.692 0-22.676 13.625-22.676 28.348h-39.688c0-14.723-8.988-28.348-22.675-28.348z"/></g></svg>