<svg xmlns="http://www.w3.org/2000/svg" width="910pt" height="422pt" viewBox="0 -422 910 422"><g id="page1" transform="scale(1 -1)"><path fill="#cc9c6f" d="M142.73 324.148a7141 7141 0 0 1 311.813-6.804c104.062 0 208.082 2.269 311.812 6.804v17.008a7141 7141 0 0 1-311.812 6.805 7141 7141 0 0 1-311.813-6.805z"/><path fill="none" stroke="#000" stroke-linecap="round" stroke-linejoin="round" stroke-width="2" d="M142.73 324.148a7141 7141 0 0 1 311.813-6.804c104.062 0 208.082 2.269 311.812 6.804v17.008a7141 7141 0 0 1-311.812 6.805 7141 7141 0 0 1-311.813-6.805z"/><path fill="#fff" d="M176.746 332.652a5.665 5.665 0 0 1-5.668 5.668 5.667 5.667 0 1 1 0-11.336 5.667 5.667 0 0 1 5.668 5.668"/><path fill="none" stroke="#000" stroke-linecap="round" stroke-linejoin="round" stroke-width="2" d="M176.746 332.652a5.665 5.665 0 0 1-5.668 5.668 5.667 5.667 0 1 1 0-11.336 5.667 5.667 0 0 1 5.668 5.668"/><path fill="#fff" d="M743.676 332.652a5.665 5.665 0 0 1-5.668 5.668 5.667 5.667 0 1 1 0-11.336 5.667 5.667 0 0 1 5.668 5.668"/><path fill="none" stroke="#000" stroke-linecap="round" stroke-linejoin="round" stroke-width="2" d="M743.676 332.652a5.665 5.665 0 0 1-5.668 5.668 5.667 5.667 0 1 1 0-11.336 5.667 5.667 0 0 1 5.668 5.668"/><path fill="#d3ae37" d="M341.156 86.04c0 15.655-76.144 28.347-170.078 28.347C77.148 114.387 1 101.695 1 86.039s76.148-28.348 170.078-28.348c93.934 0 170.078 12.692 170.078 28.348"/><path fill="none" stroke="#000" stroke-linecap="round" stroke-linejoin="round" stroke-width="2" d="M341.156 86.04c0 15.655-76.144 28.347-170.078 28.347C77.148 114.387 1 101.695 1 86.039s76.148-28.348 170.078-28.348c93.934 0 170.078 12.692 170.078 28.348m-170.078 226.77 161.41-217.813m-161.41 217.813L117.32 112.941m53.758 199.868L19.984 73.012m151.094 239.797v19.843"/><path fill="#79ac14" d="M108.816 108.195c1.95 3.368 4.606 7.266 6.555 9.746 0 .707-.18 1.418-.18 2.301-.707 3.543-3.718 6.203-6.906 5.672-3.191-.531-5.316-3.898-4.605-7.617.175-1.598 1.414-5.317 2.832-9.039.711-.176 1.593-.531 2.304-1.063"/><path fill="none" stroke="#000" stroke-linecap="round" stroke-linejoin="round" stroke-width="2.25" d="M108.816 108.195c1.95 3.368 4.606 7.266 6.555 9.746 0 .707-.18 1.418-.18 2.301-.707 3.543-3.718 6.203-6.906 5.672-3.191-.531-5.316-3.898-4.605-7.617.175-1.598 1.414-5.317 2.832-9.039.711-.176 1.593-.531 2.304-1.063"/><path fill="#79ac14" d="M113.598 103.414c3.367 1.949 7.265 4.606 9.746 6.555.707 0 1.418-.18 2.301-.18 3.543-.707 6.203-3.719 5.671-6.906-.531-3.192-3.898-5.14-7.621-4.606-1.593.176-5.312 1.414-9.035 2.832-.176.707-.531 1.594-1.062 2.305"/><path fill="none" stroke="#000" stroke-linecap="round" stroke-linejoin="round" stroke-width="2.25" d="M113.598 103.414c3.367 1.949 7.265 4.606 9.746 6.555.707 0 1.418-.18 2.301-.18 3.543-.707 6.203-3.719 5.671-6.906-.531-3.192-3.898-5.14-7.621-4.606-1.593.176-5.312 1.414-9.035 2.832-.176.707-.531 1.594-1.062 2.305"/><path fill="#a4cd34" d="M111.473 106.07a7.8 7.8 0 0 0 2.125-2.656c4.429 2.301 9.922 6.375 11.515 7.973 2.66 2.656 2.836 6.554.532 8.855-2.125 2.305-6.2 1.949-8.856-.531-1.598-1.594-5.492-7.086-7.973-11.516a7.8 7.8 0 0 0 2.657-2.125"/><path fill="none" stroke="#000" stroke-linecap="round" stroke-linejoin="round" stroke-width="2.25" d="M111.473 106.07a7.8 7.8 0 0 0 2.125-2.656c4.429 2.301 9.922 6.375 11.515 7.973 2.66 2.656 2.836 6.554.532 8.855-2.125 2.305-6.2 1.949-8.856-.531-1.598-1.594-5.492-7.086-7.973-11.516a7.8 7.8 0 0 0 2.657-2.125"/><path fill="#f26d21" d="M111.473 106.07c-5.493 5.493-14.528 5.137-20.196-.707-8.859-8.86-29.234-35.613-22.68-42.168s33.309 13.82 42.169 22.68c5.843 5.844 6.199 14.703.707 20.195"/><path fill="#ce5c1c" d="M111.473 106.07c2.304-5.136 1.062-11.691-3.368-16.12-8.324-8.329-32.421-26.575-40.746-23.563 0-1.418.356-2.48 1.239-3.192 6.554-6.554 33.308 13.82 42.168 22.68 5.843 5.668 6.199 14.703.707 20.195"/><g fill="none" stroke="#000" stroke-linecap="round" stroke-linejoin="round" stroke-width="2.25"><path d="M109.699 84.633s-5.312 1.773-10.629 7.086M88.617 86.05s-3.363 3.013-6.906 7.973m20.551-15.589s-4.43 1.238-7.266 4.074m1.418-8.328s-4.605.886-9.39 5.668M74.8 83.57s1.95-3.722 5.844-6.91m6.559 24.274s1.063-3.192 4.074-6.203M75.863 68.688s2.48-2.836 5.493-4.075m38.265 49.606-8.148-8.149m-1.774 11.34 1.067-6.023m12.047-7.086-6.024 1.062"/><path d="M111.473 106.07c-5.493 5.493-14.528 5.137-20.196-.707-8.859-8.86-29.234-35.613-22.68-42.168s33.309 13.82 42.169 22.68c5.843 5.844 6.199 14.703.707 20.195"/></g><g fill-rule="evenodd"><path fill="#247040" d="M170.074 136.25c-.633.293-1.121-.437-.879-.977.246-.73.926-.046 1.414-.144.731.051 1.61-.098 2.243.437.582.536-.489 1.075-1.024.977-.586-.051-1.172-.246-1.754-.293m2.778-.684c-.731-.488-2.536-.195-3.266-.679-.488-.442.293-1.317.391-1.805.293-.68.39-1.461.242-2.191-.242-1.61-1.071-3.02-1.754-4.485-1.703-3.652-3.652-7.16-5.262-10.91 1.024-.391 2 .289 2.973.582.777.195 1.023 1.074 1.219 1.754.144.731.293 1.414.679 2.047 1.465 3.266 3.168 6.434 4.629 9.695.586 1.656.926 3.41.879 5.117.391 1.317-.344 1.122-.73.875m-23.289-13.789c-1.512-.386-3.168-.535-4.434-1.507 2.824-.438 5.359-2.047 7.211-4.192 1.023-1.461 1.754-3.215 3.265-4.238.778-.582 1.704-1.024 2.676-1.07.633 0 1.024.535 1.563.828.926.679 1.121 1.996 2.094 2.629.535 1.121.097 2.437-.489 3.461-.679 1.167-1.656 2.386-2.777 3.117-2.531 1.511-5.699 1.461-8.524 1.074-.195-.051-.39-.051-.585-.102m24.847-2.968c-2.824-1.903-6.238-2.582-9.453-3.606-1.023-.293-1.996-.73-2.824-1.461-1.219-1.023-2.098-2.679-1.754-4.34.242-.972 1.219-1.847 2.238-1.507.539.046 1.074.679 1.27.046.195-.484.34-1.168 1.023-1.168 2.531-.242 5.067.829 6.82 2.629a8.4 8.4 0 0 1 2.485 4.922c.34 1.563.488 3.121.586 4.68-.098.191-.344-.051-.391-.195m-25.094-1.754c-2.726-.828-5.699-1.414-8.574-.977-.242.828-1.558-.047-.582-.387 1.219-1.66 3.07-2.73 4.918-3.461 1.656 0 3.121.782 4.68 1.071.73.441 1.898.344 2.726.637.731.339-.488 1.507-.73 1.949-.438.535-.828.972-1.512 1.215-.289.097-.633.148-.926-.047m28.993-.586c-1.219-.293-2.582-.535-3.364-1.61-.293-.484-.437-1.117-.437-1.703 0-.777.926 0 1.023-.051-.437-.535-.976-.921-1.465-1.41-.535-1.023-1.168-2.144-2.191-2.73-.484-.535 0-1.266.633-1.363.586-.196 1.172.05 1.754.144 3.265.586 5.898 2.926 9.16 3.606.539-.34 1.172.195 1.219.734.144.582-.145 1.117-.633 1.461-.586.633-1.07 1.363-1.805 1.898-1.117.828-2.531 1.317-3.894 1.024m16.171-.684c-2.238-1.754-5.164-2.387-7.941-2.433-.484-.098-1.168.195-1.363-.391-.196-.633.344-1.266.051-1.852-.391-.39-1.024-.195-1.563-.293-.437.098-.68-.535-.144-.386.293.093 1.023 0 .441-.293-.488-.391.535-.246.777-.489 1.266-.437 2.485-1.074 3.848-1.414 1.559.098 2.828 1.219 4.047 2.145 1.508 1.461 2.582 3.652 2.238 5.797-.195 0-.195-.34-.391-.391m-14.468-6.43c-.684-.535-1.657-.488-2.289-1.167-.586-.586 1.023-.247.73-.633-.875.386-.875.386-1.707-.293-.633-.977.344-1.512.684-1.852 1.172-1.07 2.679-1.609 4.093-2.094 3.411-.976 7.063-1.464 10.571-.781 1.414.293 2.777.781 3.996 1.461-.684.781-1.801.438-2.68.731-.488.246-1.023.586-1.605.828-2.731 1.414-5.364 3.312-8.481 3.949-1.07.242-2.238.242-3.312-.149"/><path fill="#d1242b" d="M141.57 109.551c-1.8-1.899-2.968-4.289-3.894-6.676-1.367-3.992-1.61-8.281-1.317-12.473.489-4.87 1.996-9.597 3.899-14.078 1.945-4.336 3.847-8.672 5.941-12.914 1.317-2.676 2.633-5.308 4.387-7.695 1.852-2.387 4.676-4.192 7.793-4.043 2.144 0 4.094 1.07 5.898 2.144 2.871 1.606 5.649 3.36 8.524 5.067 6.918 5.015 12.765 11.398 18.078 18.023 1.656 2.196 2.922 4.727 3.262 7.504.535 3.508.488 7.113-.243 10.621-.535 2.047-1.609 3.899-2.535 5.75-.777 1.266-2.242.684-3.457.731-3.363.195-6.773 1.023-9.695 2.777-.879.731-1.316 1.805-2 2.68-1.266.926-2.973-.34-4.238.586-1.071.582-2.336-.098-3.262-.633-1.656-.734-3.703-.734-5.215.289-1.023.391-2.289.535-3.019 1.512.195 1.121-1.075 2.191-2.145 1.707-.977-.293-2.047.34-2.875.875-.926.535-1.605 1.605-2.68 1.949-3.554-.293-8.816-2.047-11.207-3.703"/><path d="M169.73 136.738c-1.265.047-2.093-1.804-.777-2.39 1.266-1.364.973-3.41.438-5.016-.828-2.633-2.387-4.871-3.606-7.309-.926-1.804-1.898-3.656-2.629-5.503-1.269.195-.926 1.8-1.707 2.484-1.898 2.434-5.015 3.652-8.086 3.75-3.121.098-6.238-.535-8.965-2.047.145-1.121 1.461-.828 2.243-1.121.777-.68 2.14-.633 2.726-1.606-.39-.878-1.558-.73-2.34-.925-1.558-.246-3.117-.731-4.722-.633a5.16 5.16 0 0 0-3.317 1.215c-1.019-.145.293-1.313.539-1.801 1.215-1.559 2.727-3.07 4.625-3.75-.73-1.316-2.531-1.512-3.312-2.777-3.262-3.364-4.82-7.993-5.309-12.57-.828-7.458 1.168-14.958 4.336-21.684 2.629-5.457 5.36-10.91 7.988-16.368 1.461-2.68 3.122-5.507 5.946-6.917 2.679-1.317 6.09-1.22 8.672.386 3.461 1.754 6.722 3.703 10.035 5.653 7.652 5.117 13.887 12.035 19.297 19.441 1.847 2.824 2.824 6.188 3.312 9.547.582 4.777-.293 9.793-2.875 13.887-.828 1.363 1.168 1.754 2.145 1.996.875.343 2.968.781 2.289 2.047-1.024.632-2.34.246-3.363.828-1.317.539-2.485 1.316-3.704 1.949.246 1.121 1.563 1.023 2.34 1.609 1.656 1.508 3.215 3.41 3.508 5.7.391.828-.051 2.437-1.168 1.851-.488-.879-1.465-1.266-2.34-1.559-2.289-.925-4.773-1.023-7.164-1.414-1.312 1.364-2.629 2.973-4.625 3.215-1.609.344-3.461 0-4.726-1.121-1.075.637-.196 1.903-.149 2.778.195.683-.484 1.753-1.023.781-1.215-1.121-2.871-1.461-4.336-2.094-.731-.148-1.606-.828-2.238-.195-.293 1.023.484 1.898.73 2.777 1.801 4.383 4.578 8.379 5.406 13.055.196 1.023.586 2.144.149 3.121-.586 1.07-2 1.121-3.071.972a9 9 0 0 1-1.172-.242m.293-.39c-1.214.488-1.121-2.047.098-1.121.926.097 2.535-.196 2.973.73-.489 1.219-2.145.438-3.071.391m2.34-1.219c-.777-.535-2.484.391-2.679-.875.144-.879.683-1.707.586-2.633-.051-1.558-.684-3.019-1.266-4.433-1.758-3.946-4.094-7.602-5.801-11.594 1.168-.391 2.289.437 3.41.777.977 1.024.731 2.582 1.512 3.703 1.703 3.946 4.094 7.602 5.215 11.84.191 1.07.242 2.191.242 3.313-.437 0-.828.046-1.219-.098m-22.8-13.25c-1.415-.391-3.024-.391-4.141-1.414 1.703-.535 3.457-1.074 4.82-2.34 2.196-1.801 3.461-4.531 5.653-6.332.734-.586 1.609-1.023 2.535-1.121.73 1.168-1.461 1.266-1.657 2.289-1.121 1.461-1.707 3.215-2.726 4.727 1.605-1.168 1.898-3.364 3.359-4.727.633-.633 1.414-1.609 2.438-1.219 1.019.731 1.41 2 2.191 2.926.535 1.168-.246 2.387-.781 3.41-1.219 2.094-3.508 3.555-5.941 3.848-1.903.293-3.852.242-5.75-.047m24.847-2.973c-3.215-2.242-7.211-2.73-10.769-4.14-1.754-.782-3.457-2.387-3.313-4.438 0-1.117.731-2.387 1.902-2.484 1.317.148 1.657 1.707 2.532 2.437 1.851 1.657 4.336 2.34 6.336 3.801.73.34-.586-.781-.828-.879-1.559-1.019-3.411-1.605-4.825-2.824a6.1 6.1 0 0 1-1.804-2.047c.539-.488.293-1.605 1.414-1.461 1.949-.242 3.898.535 5.508 1.609 1.656 1.118 2.921 2.872 3.41 4.872.484 1.656.535 3.41.925 5.117.047.289-.148.679-.488.437m-25.094-1.851c-2.726-.828-5.648-1.317-8.523-.879-.242.976-1.754-.242-.633-.485 1.363-1.511 3.117-2.679 5.016-3.461 1.902.489 3.801 1.219 5.75 1.364-.145 1.074-1.703.246-2.485.488-1.218 0-2.437 0-3.652.098 2.141.39 4.383.195 6.574.097.684-.879 1.805.731.633.973-.535.926-1.363 2.484-2.68 1.805m28.993-.489c-1.27-.293-2.829-.586-3.508-1.851-.196-.582-.781-2.387.437-1.656 1.996 1.265 4.629 1.265 6.821.339-1.364 0-2.629.586-3.946.344-1.511-.195-3.121-.781-4.047-2.047-.535-1.023-1.168-2.047-2.191-2.679-.777-1.172 1.074-1.657 1.902-1.27 3.508.442 6.235 3.024 9.645 3.703 1.074-.535 1.609 1.172.976 1.852-.683.488-1.121 1.316-1.753 1.851-1.172 1.024-2.778 1.754-4.336 1.414m16.171-.679c-2.484-2-5.796-2.535-8.914-2.438-1.168-.437.633-2.386-.878-2.484-.438-.098-1.801.098-1.461-.442 2.679 0 5.312.344 7.843 1.172-1.847-1.461-4.336-1.461-6.527-1.367-.633.293-1.219-.437-.293-.437 1.465-.438 2.828-1.168 4.336-1.559 1.559.098 2.828 1.219 3.996 2.145 1.559 1.461 2.633 3.605 2.289 5.796-.195 0-.195-.339-.391-.386m-42.578-2.782c-3.754-.535-7.601-1.507-10.718-3.75-1.075-1.218-1.657-2.726-2.582-4.042-2.293-4.336-2.438-9.403-2.293-14.18.39-6.672 2.972-13.008 5.8-19 2.485-5.457 4.774-10.961 8.086-15.93 1.801-2.828 5.118-4.777 8.528-4.531 2.242.195 4.238 1.363 6.136 2.434 2.875 1.804 5.797 3.413 8.575 5.312 5.8 4.289 10.769 9.55 15.445 15.004 2.34 2.777 4.582 5.898 5.164 9.601.684 3.602.535 7.356-.195 10.961-.633 2.336-1.852 4.48-3.02 6.579-4.433-.344-9.062.484-12.812 2.871-.926.781-1.168 2.046-2.196 2.73-1.265.535-2.773-.488-3.945.391-1.07.633-2.238-.149-3.215-.633-1.605-.734-3.652-.781-5.164.289-1.023.441-2.289.441-2.973 1.414 0 1.219-1.168 2.438-2.335 1.703-1.559-.094-2.875.93-3.997 1.949-.586.489-1.414 1.317-2.289.828m-6.773-2.824c-1.414.293-.828-2.726.195-1.414.293.344.926 2.098-.195 1.414m7.941-.242c-1.023-.246-1.074-2.242.098-2.195 1.168.097 1.461 2.437.098 2.293a.37.37 0 0 1-.196-.098m.047-.148c-1.461-.196 0-2.825.735-1.317.339.489.144 1.903-.735 1.317m-8.281-.098c-1.414-.484 1.168-1.801.781-.242-.051.39-.586.683-.781.242m35.176-.34c-.731-.535-2.336-.633-2.434-1.512 1.363-.339 2.777 0 4.141-.386 2.484-.586 4.82-1.805 7.355-2.293.684-.289-1.121-.047-1.414.051-3.019.535-5.746 2.144-8.863 2.191-.832.391-2.828 0-2.098-1.219 1.024-1.461 2.778-2.14 4.387-2.726 3.117-.973 6.383-1.461 9.598-1.121 1.898.195 3.75.73 5.406 1.656-.828.976-2.336.195-3.215 1.023-3.461 1.559-6.527 4.192-10.426 4.629-.828.047-1.656 0-2.437-.293m-35.711-3.801c-.34-.925-1.512-2.242-.438-3.066 1.071-.293 1.899 1.215 1.41 2.043.196-.777-.679-2.336-1.507-1.461-.536 1.172.73 1.996 1.265 2.824-.242.051-.535-.094-.73-.34m12.765-3.261c-1.023-.391-.539-2.68.633-1.95.875.438.731 2.629-.437 2.145l-.098-.102zm.34.144c-1.218-.051-.586-2.68.438-1.656.437.488.535 1.801-.438 1.656m7.895-1.07c.679-1.367-1.754-.828-1.317-.539-.05-1.266 2.289-.633 1.461.488 0 .098-.144.344-.144.051m8.914-.246c-1.266-.391-.149-2.922.879-1.703.386.289.34 1.558.289 1.461.633-.926-1.512-2.094-1.512-.731-.144.145.977 1.41.344.973m7.89-1.559c.247-.34 1.61-1.023.782-.097-.242.148-.535.195-.782.097m-33.515-.875c.726-.926-1.66-1.512-1.219-.344-1.121-1.218 2.094-1.363 1.266.098 0 .05.047.586-.047.246m33.613-.05c-.875-.778-1.07-2.485 0-3.169 1.219.051 1.512 1.657 1.024 2.536-.196.39-.582.828-1.024.632m-.34-.684c-.972-.778.489-2.871 1.266-1.508.441.68-.047 2.34-1.07 1.8a1 1 0 0 1-.196-.292m7.309-2.094c-1.168-.73.926-2.824 1.219-1.219-.149.633-.536-.972-1.075-.242-.339.438-.289 1.266-.144 1.461m-37.906-2.047c-.731-.828 1.316.246.293.196-.098 0-.196-.098-.293-.196m-10.473-.293c-.438-.973 1.949-.973 1.023-2.094-.144-.828-1.558-.68-1.461.149-.632-.926 1.168-1.461 1.508-.488.828.925-.679 1.851-.437 2.484.437.633-.488.098-.633-.05m10.473-.582c-.875-.586-.582-2.535.636-2.437.926.343.926 1.707.387 2.386-.191.293-.777.489-1.023.051m0-.195c-.828-.535-.145-2.047.781-1.852.781.438.488 2.29-.488 2.094-.098-.047-.196-.144-.293-.242m20.023-.098c-1.312-.437 0-2.824.977-1.707.73.637.047 2.73-.977 1.707m.102-.144c-1.465-.633 1.168-2.34 1.019-.633.149.535-.68 1.508-1.019.633m-9.942-.54c-.586-.828-1.703-2.386-.535-3.117.973-.242 1.414 1.364 1.266 1.754.343-1.12-1.852-1.949-1.508-.437 0 .683 1.215 1.511.973 1.8zm23.336-1.753c.293-.243.93-1.754.879-.633-.144.344-.488.633-.879.633m-.484-1.168c-1.024-.633-1.707-2.145-1.024-3.266.973-.633 1.996.586 2.047 1.465.098.582-.148.824-.148.094 0-1.266-2.145-1.703-1.949-.145.097.926.878 1.754 1.851 1.754-.195.195-.582.34-.777.098m6.09-4.434c.047-.39 1.265-1.07.73-.242-.144.195-.488.387-.73.242m-46.625-.39c-.977-.582.875-2.044 1.168-1.024-.68-.875-1.317.39-1.168 1.023m24.066-.145c-1.023-.34-.633-2.34.488-2.094 1.024.34 1.071 2.485-.195 2.29l-.145-.052zm.195 0c-1.461-.246.098-2.777.731-1.266.293.485.097 1.946-.731 1.266m21.875-.684c-.781-.68-.828-2.433.34-2.628 1.219.292 1.461 2.386.293 2.875a.64.64 0 0 1-.633-.247m.149-.046c-1.27-.442-.196-3.024.875-1.754.437.632.246 2.289-.875 1.754m-38.832-1.415c.293-1.265-1.61-.292-1.461-.097-.149-1.364 2.387-.875 1.656.39-.148.145-.195-.195-.195-.293m25.14.196c-.097-.586 1.024-1.512.489-.39-.149.144-.293.292-.489.39m-1.074-1.266c-1.07-.39-1.265-2.777.195-2.484 1.075.289 1.657 2.14.536 2.726-.289.098-.582-.047-.731-.242m.051-.246c-1.414-.242-.293-2.871.777-1.605.633.535.344 2.582-.777 1.605m-16.664-.242c-.535-.781-1.219-2.094-.293-2.922.684-.344 1.512 1.508.586.438-1.266-.145-1.168 1.609-.195 2.046.246.196.683.973 0 .535zm-12.766-3.363c-.289-.973 1.317.78.098.05-.047 0-.047-.05-.098-.05m.196-.73c-.829-.731-.973-2.337.05-2.97 1.168-.05 1.559 1.508 1.121 2.383-.195.442-.683 1.024-1.171.586m.195.05c-.828-.535-1.024-2.242.098-2.484.976.097 1.074 1.46.585 2.144a.86.86 0 0 1-.683.34m36.055-1.852c.242-.293.925-1.804.972-.73-.144.387-.484.777-.972.73m-.973-1.558c-.781-.73-1.172-2.243-.195-2.973 1.07-.195 1.754 1.023 1.8 1.996.243.828-1.023 2.098-1.605.977m.144-.051c-1.121-.488-.828-3.117.633-2.242.875.488.973 2.683-.34 2.488l-.148-.098zm-11.886-2.68c-1.219-.34-.828-2.972.535-2.047.68.489.73 2.485-.535 2.047m-18.711-.242c-.875-.586-.34-2.582.879-2.145.828.587.437 2.68-.782 2.243-.046 0-.097-.051-.097-.098m18.711.047c-1.512-.293.191-2.871.777-1.219.242.489 0 1.805-.777 1.219m-18.614-.047c-1.218-.586.536-2.824.973-1.316.149.586-.242 1.656-.973 1.316m11.012-.535c-1.316-.442-.195-3.07.778-1.805.343.633.05.489-.243.098-1.511-.34-1.074 2.387.34 1.754.442.242-1.023.437-.875-.047m7.356-6.285c1.121-.782-1.071-2.828-1.219-1.317.098.34.488 1.364-.192.684-.734-.977 1.024-2.293 1.508-1.023.242.484.535 1.312-.097 1.656m-13.739-1.805c-1.168-.34-.535-2.777.633-1.95.926.49.633 2.927-.633 1.95m.243.148c-1.364-.195-.196-2.874.632-1.464.293.539.293 1.804-.632 1.465m5.894-4.144c-1.266-.387-.387-2.922.734-1.945.243.34.633 1.46.243.484-.828-.828-1.996.586-.977 1.219.149.097.344.586 0 .242"/><path fill="#ffc13f" d="M153.117 109.793c-1.508-.34.539-2.582.781-.875.196.484-.195 1.605-.781.875m-8.621-.289c-.535-1.27 1.949-.051.68.387-.242-.047-.485-.196-.68-.387m-.242-4.727c-1.172-.148-.441-2.484.535-1.656.535.438.484 2.238-.535 1.656m13.008-2.437c-1.512-.242.437-2.68.777-1.024.195.489-.098 1.754-.777 1.024m7.16-.242c-1.461-.535 1.07-2.387.781-.633 0 .387-.39 1.07-.781.633m-24.945-.684c-1.122-.633 1.168-1.61.683-.34.047.391-.586.926-.683.34m34.836-.293c-1.415-.586.972-2.484.972-.73.149.488-.484 1.511-.972.73m-26.602-2.043c-1.316-.293.73-2.144.73-.734.34.441-.437 1.61-.73.734m34.301-.781c-.633-.586-.344-2.242.633-2.094 1.019.387.582 2.531-.586 2.094zm7.304-2.387c-1.214-.879 1.61-1.851.879-.39-.097.34-.586.878-.879.39m-48.183-2.875c-1.317-.144-.34-2.824.539-1.512.242.536.144 1.461-.539 1.512m10.133-.144c-.922-.54.195-2.391.976-1.61.488.582-.051 2.29-.976 1.61m20.172-.344c-1.461-.684 1.265-2.145.925-.438.098.489-.73 1.317-.925.438m-10.329-1.512c-1.511-.289.489-2.726.778-1.02.195.485-.098 1.754-.778 1.02m22.852-2.387c-1.023-.488-.734-3.02.633-2.093.828.535.875 2.484-.391 2.289l-.098-.047zm-39.856-3.945c-1.167-.68 1.168-2.191.926-.586.047.442-.586 1.219-.926.586m23.875-.68c-1.464-.343.633-2.535.829-.93.289.489-.246 1.805-.829.93m22.313-.441c-.828-.293-.926-1.996.047-2.144.976.097 1.074 2.144-.047 2.144m-40-.73c-1.316-.73 1.266-2.145.879-.583.047.438-.586 1.215-.879.583m25.187-2.047c-.972-.145-.925-1.801 0-1.95.926.098 1.368 1.903.34 2.098a.45.45 0 0 1-.34-.148m-16.953-1.266c-1.461-.437.778-2.437.875-.828.196.488-.386 1.61-.875.828m-12.472-3.457c-1.168-.586.097-2.973.972-1.66.391.633 0 2.242-.972 1.66m35.468-3.168c-1.121-.488-.585-3.07.68-2.047.828.535.828 2.535-.437 2.242l-.098-.097zm-30.453-2.926c-1.312-.535.735-2.726.926-1.07.051.488-.289 1.363-.926 1.07m18.469-.047c-1.465-.488.926-2.386.926-.78.191.487-.442 1.558-.926.78m-7.113-.293c-1.512-.097-.149-2.921.484-1.218.195.437.149 1.218-.484 1.218m6.137-6.867c-1.461-.734 1.218-2.195 1.023-.539.195.633-.777 1.414-1.023.54m-12.813-1.465c-1.512-.34.684-2.53.828-.875.145.438-.34 1.703-.828.875m6.188-4.043c-1.512-.437.781-2.484.875-.828.148.438-.387 1.61-.875.828"/><path d="M247.773 137.25c-2.289-1.414-4.382-4.094-4.382-5.652 0-.926.828-2.239 2.582-4.09 1.41-1.512 3.117-3.801 3.75-5.117l1.121-2.387-1.364-2.731c-.781-1.507-1.902-4.382-2.484-6.429-6.383-20.754-12.91-28.356-35.226-40.828-6.965-3.848-9.403-5.75-11.012-8.282-1.512-2.535-1.512-5.117.148-7.504 4.774-7.066 24.067-6.187 40.098 1.805 11.738 5.797 20.312 14.125 24.75 24.016 5.066 11.16 6.281 22.804 3.359 31.719-1.121 3.41-4.531 8.476-6.675 9.89-1.461.973-1.95 1.754-2.68 4.531-1.363 5.02-4.188 10.329-5.992 11.254-1.996 1.024-4.09.977-5.993-.195m5.555-4.387c-.586-1.07-.437-1.652.977-4.429 2.191-4.336 4.531-11.84 5.55-17.786 4.387-25.773-14.664-49.988-43.312-55.003-2.484-.438-5.699-.782-7.113-.782-1.95 0-2.629-.242-3.02-1.023-.488-.926-.34-1.07 1.414-1.559 2.875-.828 11.352-.683 16.223.246 15.199 2.871 28.941 11.352 36.297 22.457 10.621 15.934 11.011 37.809.777 44.871-1.848 1.27-2.238 1.95-3.457 5.848-1.219 3.945-3.07 8.332-3.555 8.332-.05 0-.441-.535-.781-1.172m-4.094-2.773-1.703-.731 1.801-2.293c.926-1.265 2.145-3.359 2.633-4.675.926-2.34.926-2.34-.684-6.137-.828-2.098-2.289-6.191-3.215-9.016-3.652-11.449-7.062-17.344-13.738-24.02-5.164-5.163-8.625-7.6-19.344-13.788-8.621-4.918-11.644-6.965-12.035-8.036-.144-.343.735-1.609 1.903-2.874l2.144-2.243 4.094.34c12.031 1.024 24.015 6.14 32.543 13.985 6.969 6.43 11.5 13.789 13.887 22.558 1.363 5.016 1.656 16.465.535 21.094-1.754 7.16-4.094 13.059-6.141 15.445-.926 1.024-1.117 1.071-2.68.391"/><path fill="#f5a701" d="M250.551 138.371c.39-.144.828-.098 1.023.051.145.191-.144.289-.683.289-.633-.047-.731-.145-.34-.34m-5.406-2.875-1.512-1.707 1.707 1.512c.926.879 1.656 1.609 1.656 1.707 0 .387-.391.047-1.851-1.512m10.472.098c.196-.242.442-.489.586-.489.145 0 .098.247-.051.489-.191.293-.437.535-.582.535-.148 0-.148-.242.047-.535m-2.289-2.731c-.586-1.07-.437-1.652.977-4.429 2.191-4.336 4.531-11.84 5.55-17.786 4.387-25.773-14.664-49.988-43.312-55.003-2.484-.438-5.699-.782-7.113-.782-1.95 0-2.629-.242-3.02-1.023-.488-.926-.34-1.07 1.414-1.559 2.875-.828 11.352-.683 16.223.246 15.199 2.871 28.941 11.352 36.297 22.457 10.621 15.934 11.011 37.809.777 44.871-1.848 1.27-2.238 1.95-3.457 5.848-1.219 3.945-3.07 8.332-3.555 8.332-.05 0-.441-.535-.781-1.172m-.828-4.871c.973-1.605 2.145-4.09 2.633-5.504.484-1.414.972-2.484 1.07-2.34.633.586-3.754 9.747-4.969 10.524-.293.148.289-1.024 1.266-2.68m5.992 1.903c0-.391.149-.536.344-.34a.474.474 0 0 1 0 .679c-.195.196-.344.047-.344-.339m-10.668-.489c-.148-.242.145-.777.633-1.168.828-.633.828-.586.242.145-.586.73-.586.926 0 1.172.438.144.489.242.047.289-.34 0-.777-.145-.922-.438m-2.097-2.144c1.121-1.121 2.144-2.047 2.293-2.047.144 0-.684.926-1.805 2.047-1.121 1.172-2.145 2.097-2.289 2.097-.149 0 .679-.925 1.801-2.097m13.253 1.074c0-.391.196-.535.391-.344a.48.48 0 0 1 0 .684c-.195.195-.391.047-.391-.34m-9.113-2.098c.196-.293.442-.535.586-.535.149 0 .149.242-.047.535-.195.293-.441.535-.586.535s-.097-.242.047-.535m1.367-2.093c.731-1.61.973-1.903.973-1.219 0 .293-.34.976-.777 1.512-.782.972-.782.925-.196-.293m8.817.535c0-.391.148-.535.344-.34a.47.47 0 0 1 0 .68c-.196.195-.344.05-.344-.34m1.804-2.629c.196-.246.438-.488.583-.488.148 0 .148.242-.047.488-.196.293-.438.535-.586.535-.145 0-.098-.242.05-.535m-9.648-.488c0-.391.195-.536.391-.34a.59.59 0 0 1 0 .679c-.196.196-.391.051-.391-.339m.391-2.047c-.196-.875-.149-1.071.242-.68.293.289.437.824.344 1.215-.149.39-.391.148-.586-.535m3.898-.586c0-.438.195-1.364.438-2.094.339-1.023.39-1.07.437-.242 0 .586-.195 1.508-.437 2.094-.293.632-.438.73-.438.242m9.012-.485c.195-.293.437-.539.586-.539.144 0 .097.246-.051.539-.195.243-.438.485-.582.485-.148 0-.098-.242.047-.485m-13.985-1.367c-.535-1.265-.386-1.605.247-.582.293.535.437 1.07.293 1.219-.098.144-.391-.149-.54-.637m15.055-.242c.149-.242.442-.488.539-.488.145 0 .145.246-.051.488-.144.293-.437.535-.582.535-.148 0-.097-.242.094-.535m-9.156-2.047c0-.391.195-.535.391-.34.144.145.144.489 0 .684-.196.191-.391.047-.391-.344m-9.891-1.07c0-.391.145-.535.34-.34a.47.47 0 0 1 0 .68c-.195.195-.34.05-.34-.34m2.629 0c0-.391.149-.535.344-.34a.475.475 0 0 1 0 .68c-.195.195-.344.05-.344-.34m7.895-1.559c0-.73.097-1.023.242-.633.148.34.148.922 0 1.313-.145.344-.242.051-.242-.68m-8.43 0c0-.39.145-.539.34-.344s.195.489 0 .684-.34.051-.34-.34m-.535-1.558c0-.391.144-.539.34-.344a.47.47 0 0 1 0 .683c-.196.196-.34.047-.34-.339m-3.117-1.563c0-.387.144-.535.34-.34a.473.473 0 0 1 0 .684c-.196.195-.34.047-.34-.344m2.629 0c0-.387.144-.535.339-.34a.47.47 0 0 1 0 .684c-.195.195-.339.047-.339-.344m10.086-4.43c0-2.875.046-3.949.195-2.437.097 1.512.097 3.848 0 5.215-.149 1.312-.195.093-.195-2.778m11.304 3.606c0-.586.145-.735.289-.293.149.34.149.828 0 .973-.191.195-.34-.145-.289-.68m-21.926-.735c0-.386.149-.535.34-.339a.47.47 0 0 1 0 .683c-.191.196-.34.047-.34-.344m-2.628-.535c0-.39.191-.535.386-.34a.57.57 0 0 1 0 .68c-.195.195-.386.051-.386-.34m2.14-1.312c.051-.637.149-.735.293-.344.195.391.149.828 0 1.024-.195.148-.293-.145-.293-.68m-2.629-.246c0-.391.145-.535.34-.34s.195.484 0 .68c-.195.195-.34.05-.34-.34m25.625-.778c0-.879.098-1.121.246-.636.145.488.145 1.218 0 1.558-.148.344-.246-.047-.246-.922m-24.066-1.804c0-.391.144-.535.34-.34.195.144.195.484 0 .68-.196.195-.34.05-.34-.34m-.535-1.559c0-.391.144-.535.34-.391a.53.53 0 0 1 0 .731c-.196.195-.34 0-.34-.34m-.977-2.387c-.828-1.902-.68-2.34.246-.586.438.829.731 1.559.582 1.708-.097.093-.484-.391-.828-1.122m25.578-1.023c0-.879.098-1.121.246-.633.145.484.145 1.215 0 1.559-.148.34-.246-.051-.246-.926m-12.519-.242c0-.735.097-1.024.242-.684.148.39.148.973 0 1.317-.145.34-.242.046-.242-.633m-16.227 0c0-.39.149-.54.344-.344s.195.488 0 .684-.344.047-.344-.34m15.641-2.926c.051-.582.148-.73.344-.293.144.344.093.828-.051.977-.196.195-.293-.149-.293-.684m-15.153-1.266c-.293-.586-.437-1.023-.293-1.023.149 0 .54.437.829 1.023.293.582.441 1.07.293 1.07-.145 0-.485-.488-.829-1.07m27.676.242c0-.632.145-.73.289-.34.149.391.149.829 0 1.024-.191.145-.34-.148-.289-.684m-13.012-1.07c0-.586.149-.73.293-.293.149.34.149.828-.046.973-.149.195-.293-.094-.247-.68m-16.027-1.316c-.195-.39-.098-.489.242-.242.344.195.633.484.633.582 0 .441-.484.246-.875-.34m15.445-.438c0-.39.145-.535.34-.343.196.148.196.488 0 .683-.195.196-.34.05-.34-.34m-19.05-.632c-.243-.344-.145-.442.195-.196.633.34.828.828.391.828-.149 0-.391-.293-.586-.632m2.582-.489c-.242-.39-.145-.488.246-.242.582.387.777.828.34.828-.098 0-.391-.293-.586-.586m-4.434-1.902c-.633-.824-.633-.824.195-.191.875.68 1.122 1.117.731 1.117-.145 0-.535-.387-.926-.926m2.582-.484c-.633-.829-.633-.88.195-.247.875.684 1.168 1.121.731 1.121-.098 0-.535-.39-.926-.874m17.102.097c-.535-1.316-.391-1.656.242-.586.293.489.441 1.024.293 1.168-.145.149-.391-.144-.535-.582m13.203-.246c0-.387.144-.535.34-.34a.473.473 0 0 1 0 .684c-.196.195-.34.047-.34-.344m-.535-1.558c0-.387.144-.536.34-.34a.473.473 0 0 1 0 .683c-.196.195-.34.047-.34-.343m-33.618-2.727-2.582-2.777 2.727 2.629c2.535 2.386 2.973 2.875 2.582 2.875-.098 0-1.312-1.266-2.727-2.727m18.758.098c-.195-.344-.246-.684-.097-.829.144-.148.386.098.535.536.39.925.097 1.12-.438.293m-24.019-1.61c-.196-.39-.098-.488.242-.242.344.195.633.484.633.586 0 .437-.485.242-.875-.344m22.945-.535c-.242-.39-.144-.488.246-.242.34.195.582.484.582.582 0 .437-.437.246-.828-.34m-25.285-1.363c-.633-.828-.633-.828.195-.196.875.684 1.168 1.121.731 1.121-.145 0-.535-.437-.926-.925m2.875-.781-.977-1.169 1.172.973c.633.586 1.168 1.074 1.168 1.172 0 .438-.437.145-1.363-.977m21.387.585c-.243-.39-.145-.488.195-.242.633.387.828.825.391.825-.145 0-.391-.243-.586-.583m-26.063-1.07c-.246-.344-.148-.441.242-.195.293.195.586.437.586.582 0 .441-.441.246-.828-.387m24.75-.832c-.683-.828-.637-.828.192-.195.832.683 1.121 1.12.683 1.12-.098 0-.488-.386-.875-.925m-26.308-.195c-.247-.387-.149-.438.242-.242.293.195.586.488.586.632 0 .442-.489.196-.828-.39m4.14 0c-.195-.387-.148-.438.242-.242.34.195.586.488.586.632 0 .442-.437.196-.828-.39m-2.047-1.559c-.246-.386-.148-.484.196-.242.339.195.632.488.632.633 0 .39-.488.195-.828-.39m19.535-3.457-3.359-3.508 3.508 3.364c1.949 1.847 3.555 3.457 3.555 3.554 0 .34-.536-.148-3.704-3.41m17.442 1.899c-.242-.391-.145-.485.246-.243.293.196.586.489.586.586 0 .438-.442.242-.832-.343m-44.82-.536c-.247-.39-.149-.437.242-.242.34.242.586.488.586.633 0 .438-.438.195-.828-.39m4.191-.195c-.977-.777-.977-.777.144-.242.68.293 1.168.683 1.168.777 0 .442-.242.293-1.312-.535m-2.582-1.559c-.977-.78-.977-.78.144-.242.633.293 1.168.68 1.168.778 0 .437-.293.293-1.312-.536m40.34-1.656c-.684-.828-.633-.879.191-.195.879.684 1.121 1.07.684 1.07-.098 0-.489-.386-.875-.875m-43.996-.437c-.977-.782-.977-.782.144-.246.637.293 1.172.683 1.172.828 0 .39-.246.246-1.316-.582m24.457-1.95-.977-1.171 1.172 1.027c1.07.922 1.414 1.363.973 1.363-.094 0-.633-.535-1.168-1.218m-28.114-.144c-.972-.781-.972-.781.149-.246.633.34 1.168.683 1.168.828 0 .39-.242.293-1.317-.582m26.02-1.367c-.195-.34-.148-.438.242-.196.344.196.586.442.586.587 0 .437-.437.242-.828-.391m-34.641-1.313c-.683-.832-.632-.879.196-.195.875.68 1.121 1.07.679 1.07-.097 0-.484-.39-.875-.875m4.434.29c-.242-.391-.149-.438.242-.243.293.195.586.489.586.633 0 .438-.437.195-.828-.39m28.648 0c-.246-.391-.148-.438.243-.243.339.195.585.489.585.633 0 .438-.441.195-.828-.39M206.07 64.17c-.246-.387-.148-.484.243-.242.292.195.585.488.585.586 0 .437-.488.242-.828-.344m24.02-2.094c-2.289-1.12-3.606-1.898-2.875-1.707 1.558.442 7.308 3.266 7.308 3.606 0 .343.387.488-4.433-1.899m22.605 1.266c-.683-.828-.632-.875.196-.242.875.683 1.121 1.12.679 1.12-.097 0-.484-.39-.875-.878m-48.965-1.07-1.265-1.415 1.414 1.266c1.363 1.172 1.703 1.61 1.266 1.61-.098 0-.731-.684-1.415-1.462m-2.875.34c-.242-.387-.144-.489.247-.243.289.196.582.489.582.586 0 .438-.438.242-.829-.344m49.5-1.07c-.242-.392-.144-.438.247-.247.289.246.582.488.582.637 0 .437-.438.191-.829-.39m-25.578-1.806a.47.47 0 0 1 .684 0c.195.149.047.344-.344.344-.387 0-.535-.195-.34-.344m-20.218-.73c.144-.29.437-.484.586-.484.144 0 .097.195-.051.484-.196.293-.485.535-.582.535-.149 0-.149-.242.047-.535m18.66.195a.47.47 0 0 1 .683 0c.196.196.047.34-.343.34-.387 0-.536-.145-.34-.34m-1.852-.535c.391-.145.828-.145 1.024.05.144.145-.145.29-.68.243-.637 0-.734-.148-.344-.293m24.313-.242c-.242-.39-.149-.488.195-.246.34.195.633.488.633.633 0 .39-.488.195-.828-.387m-26.36-.293c.344-.148.828-.098.977.047.195.195-.149.293-.684.293-.586-.047-.73-.145-.293-.34m-2.093-.488c.39-.145.828-.145.972 0 .196.195-.097.34-.679.293-.586 0-.731-.149-.293-.293m-10.914-.875c.246-.246 1.707-.344 3.265-.246l2.777.148-3.214.293c-1.805.145-3.071.047-2.828-.195m7.503.34c.489-.145 1.219-.145 1.559 0 .34.144-.051.242-.926.242-.879 0-1.168-.098-.633-.242m-13.449-2.778c.196-.293.442-.535.586-.535.149 0 .149.242-.047.535-.195.293-.441.535-.586.535s-.097-.242.047-.535m33.813-1.363a.47.47 0 0 1 .683 0c.196.144.047.34-.34.34-.39 0-.539-.196-.343-.34m-1.559-.54c.149-.19.488-.19.684 0 .195.196.047.345-.34.345-.391 0-.539-.149-.344-.344M203 51.747c.145-.293.438-.535.586-.535.144 0 .098.242-.098.535-.148.242-.437.488-.586.488-.097 0-.097-.246.098-.488m28.016.145c.195-.196.535-.196.73 0s0 .343-.344.343c-.386 0-.535-.148-.386-.343m-6.239-1.559c.196-.195.489-.195.684 0s.047.34-.344.34c-.387 0-.535-.145-.34-.34m-17.199-.535c.195-.195.539-.195.684 0 .195.195.051.34-.34.34s-.535-.145-.344-.34m14.324 0c.391-.145.828-.145 1.024.05.148.192-.145.29-.68.29-.637-.047-.73-.145-.344-.34m-11.254-.535c.536-.098 1.364-.098 1.852 0 .488.144.098.242-.926.242-.972 0-1.414-.098-.926-.242m6.043 0c.633-.098 1.559-.098 2.047 0 .535.144 0 .242-1.172.242-1.121 0-1.558-.098-.875-.242"/><path fill="#fcd900" d="m249.234 129.797-1.168-.586 1.852-2.484c.973-1.364 2.145-3.461 2.582-4.727.777-2.094.73-2.34-.437-4.871-.684-1.414-2.34-5.992-3.704-10.184-6.14-18.61-13.351-26.648-34.687-38.586-3.801-2.144-7.797-4.675-8.918-5.601l-2.047-1.754 2.098-2.098 2.14-2.14 4.532.34c8.332.632 19.683 4.578 26.457 9.257 3.703 2.531 9.988 8.672 12.472 12.18 2.871 4.14 5.602 9.988 6.821 14.86 1.461 5.75 1.363 18.124-.149 23.191-1.558 5.164-2.969 8.769-4.578 11.449-1.461 2.531-1.512 2.582-3.266 1.754"/></g><path fill="#bc9a16" d="M1 86.04c0-68.6 90.55-70.869 170.078-70.869 79.527 0 170.078 2.27 170.078 70.867 0-15.656-76.144-28.348-170.078-28.348C77.148 57.691 1 70.383 1 86.04"/><path fill="none" stroke="#000" stroke-linecap="round" stroke-linejoin="round" stroke-width="2" d="M1 86.04c0-68.6 90.55-70.869 170.078-70.869 79.527 0 170.078 2.27 170.078 70.867 0-15.656-76.144-28.348-170.078-28.348C77.148 57.691 1 70.383 1 86.04"/><path fill="#d3ae37" d="M908.086 86.04c0 15.655-76.145 28.347-170.078 28.347S567.93 101.695 567.93 86.039s76.144-28.348 170.078-28.348S908.086 70.383 908.086 86.04"/><path fill="none" stroke="#000" stroke-linecap="round" stroke-linejoin="round" stroke-width="2" d="M908.086 86.04c0 15.655-76.145 28.347-170.078 28.347S567.93 101.695 567.93 86.039s76.144-28.348 170.078-28.348S908.086 70.383 908.086 86.04M738.008 312.809l161.41-217.813m-161.41 217.813L684.25 112.941m53.758 199.868L586.914 73.012m151.094 239.797v19.843"/><g fill-rule="evenodd"><path fill="#a7410e" d="M718.523 108.469c-.308-.125-.621-.313-.679-.313-.063 0 .554-.679 1.363-1.488.805-.805 1.797-1.859 2.231-2.48a20.5 20.5 0 0 0 1.488-2.293c.312-.68.746-1.797.992-2.418.187-.684.375-1.797.434-2.418 0-.684.125-1.243.25-1.301.062-.063.558-.125 1.054-.125.742 0 .93.062.992.246.063.125 0 .746-.125 1.426-.125.62-.433 1.86-.746 2.668-.246.867-.679 2.047-.992 2.668-.308.617-.867 1.672-1.301 2.293-.371.621-.992 1.425-1.3 1.796-.371.309-.93.805-1.243 1.118-.371.246-.804.558-1.054.679a2 2 0 0 1-.617.188c-.125 0-.434-.121-.747-.246m17.735-8.371h.746c.246.058.059.058-.375.058-.371 0-.559 0-.371-.058m-20.832-40.492c.433-.372.804-.747.804-.747.063 0-.25.375-.683.746-.371.434-.742.805-.805.805-.062 0 .246-.37.684-.804m-7.567-1.614c.371-.433.743-.804.805-.804s-.246.37-.68.804c-.433.371-.808.746-.808.746-.063 0 .25-.375.683-.746"/><path fill="red" d="M734.461 99.723c-.559-.184-1.242-.434-1.426-.559-.25-.121-1.305-.742-2.297-1.426-1.05-.617-2.293-1.363-2.789-1.61-.804-.37-.992-.37-2.418-.37-1.238 0-1.676.058-2.605.37-.559.184-2.231.868-3.598 1.552-1.426.617-3.035 1.3-3.594 1.484-.558.188-1.488.438-2.109.496-.93.125-1.301.125-2.23-.058-.622-.125-1.739-.496-2.481-.809-.746-.246-1.801-.742-2.297-1.055-.496-.308-1.301-.804-1.672-1.113-.433-.371-1.117-.992-1.613-1.488s-1.117-1.301-1.488-1.797c-.309-.496-.805-1.43-1.117-2.05-.309-.556-.743-1.548-.93-2.169-.184-.621-.496-1.676-.617-2.418-.188-.742-.375-2.047-.438-2.914-.121-.93-.121-2.355-.058-3.473.058-1.054.183-2.605.308-3.41.063-.808.371-2.172.559-3.039.183-.867.621-2.48.992-3.656.371-1.117 1.176-2.98 1.734-4.094a43 43 0 0 1 1.922-3.535 74 74 0 0 1 1.797-2.48c.5-.559 1.555-1.676 2.359-2.48.805-.806 1.985-1.798 2.543-2.169.555-.437 1.364-.934 1.797-1.18.434-.187 1.426-.62 2.235-.867.742-.25 1.98-.558 2.789-.683.867-.125 1.734-.188 2.48-.125.68 0 1.614.25 2.481.496 1.054.312 1.613.433 2.543.433 1.05.063 1.3 0 3.097-.617 1.426-.558 2.11-.683 2.731-.683.496 0 1.301.125 1.859.308.559.125 1.488.496 2.11.746.617.309 1.671.805 2.293 1.18.683.434 1.675 1.113 2.292 1.61.622.433 1.614 1.363 2.235 1.984s1.551 1.613 2.047 2.23c.496.621 1.301 1.738 1.797 2.422.433.742 1.179 1.984 1.613 2.727.433.746 1.113 2.109 1.551 3.039.371.867.992 2.48 1.363 3.472s.805 2.418.992 3.223c.184.746.434 1.926.559 2.668.058.683.183 2.047.246 2.977.062.992.062 2.355-.063 3.285-.062.87-.308 2.171-.433 2.855-.125.68-.434 1.797-.684 2.414-.183.684-.617 1.676-.93 2.297-.308.621-.867 1.55-1.238 2.11s-1.055 1.425-1.613 1.984c-.559.496-1.301 1.238-1.797 1.547-.434.312-1.305.87-1.922 1.18a20 20 0 0 1-2.109.867c-.496.187-1.426.37-1.985.496-.621.125-1.671.25-2.418.187-1.054 0-1.55-.062-2.355-.312m-27.902-15.254c-.188-.434-.496-1.238-.621-1.86-.188-.62-.375-1.796-.497-2.543-.125-.804-.187-2.418-.187-3.53 0-1.243.062-2.794.187-3.536.122-.746.309-1.86.497-2.48.125-.622.496-1.739.804-2.48.313-.747.867-1.923 1.305-2.606.433-.743 1.113-1.735 1.547-2.356a62 62 0 0 1 1.984-2.11c.621-.62 1.676-1.488 2.293-1.984.684-.433 1.613-1.054 2.172-1.3.559-.25 1.117-.496 1.363-.496.25-.063.375-.063.375.062 0 .063-.992 1.113-2.109 2.293a77 77 0 0 0-2.914 3.102 43 43 0 0 1-1.488 2.046c-.372.555-.993 1.672-1.364 2.418a28 28 0 0 0-1.117 2.606c-.187.68-.559 1.734-.684 2.355-.121.618-.371 1.735-.496 2.54-.121.93-.246 2.855-.246 5.519-.062 2.297-.125 4.34-.125 4.59-.062.25-.125.496-.183.496-.125 0-.313-.371-.496-.746"/><path d="M738.988 119.195c-.312-.062-1.054-.558-1.675-1.117-.622-.496-1.426-1.113-1.739-1.363-.433-.313-.929-.496-1.672-.621-.558-.063-1.859-.309-2.851-.434-1.488-.25-1.985-.371-2.914-.867-.809-.371-1.305-.746-1.922-1.426-.438-.496-1.055-1.304-1.367-1.922-.309-.621-.618-1.367-.743-1.613l-.125-.496-.929.684c-.559.371-1.488.929-2.11 1.238-1.054.496-1.238.558-1.859.433-.371 0-1.238-.308-1.922-.558-.867-.371-1.363-.68-1.734-1.113-.313-.313-.621-.809-.684-1.118-.125-.375-.125-.871-.062-1.179 0-.309.187-.805.371-1.055.125-.309.621-.805 1.054-1.176a14 14 0 0 0 1.86-1.676c.558-.558 1.363-1.488 1.738-2.046.371-.555.68-1.051.617-1.118 0 0-.804.313-1.734.746-.992.372-2.293.868-2.914 1.055-.867.188-1.551.309-2.852.309-1.488 0-1.922-.063-3.039-.371-.683-.246-1.859-.621-2.543-.93-.679-.309-1.734-.867-2.293-1.242-.621-.309-1.675-1.113-2.355-1.672-.746-.621-1.676-1.55-2.11-2.11a25 25 0 0 1-1.425-1.796c-.313-.497-.809-1.426-1.18-2.11-.309-.683-.805-1.738-1.055-2.418-.246-.683-.558-1.984-.742-2.914-.187-.93-.433-2.543-.496-3.66-.125-1.488-.125-2.48 0-4.215.063-1.18.246-2.914.434-3.843.125-.93.433-2.297.621-3.04.183-.746.554-2.047.804-2.851.313-.871.805-2.172 1.118-2.977.308-.808.929-2.11 1.363-2.851.371-.809 1.117-2.047 1.613-2.793.496-.742 1.363-1.985 1.985-2.727.617-.746 1.734-1.984 2.543-2.73a27 27 0 0 1 2.664-2.293c.683-.559 1.859-1.242 2.605-1.676.805-.371 1.859-.805 2.481-.992.621-.246 1.671-.496 2.355-.68.684-.125 2.047-.312 3.039-.312 1.672-.063 1.922-.063 3.16.312a80 80 0 0 1 2.172.559l.742.246 2.235-.742c1.984-.684 2.293-.746 3.472-.746 1.117 0 1.551.062 2.914.433.993.313 2.356.867 3.594 1.488 1.059.559 2.547 1.426 3.289 1.922.742.559 2.168 1.801 3.223 2.856 1.055 1.05 2.359 2.418 2.793 3.035.433.621 1.238 1.738 1.734 2.48.496.746 1.242 2.047 1.676 2.793.434.743 1.113 2.23 1.551 3.223.496 1.055 1.117 2.668 1.484 3.723.375.992.809 2.601 1.059 3.468.183.93.496 2.422.617 3.29.125.992.25 2.48.25 3.968 0 1.61-.063 2.914-.25 3.969-.121.805-.371 2.105-.559 2.789-.183.742-.554 1.734-.742 2.293-.187.496-.683 1.55-1.055 2.297a24 24 0 0 1-1.488 2.48c-.496.618-1.18 1.489-1.613 1.922a12 12 0 0 1-1.61 1.489c-.433.37-1.367 1.05-2.046 1.425-.684.434-1.864 1.055-2.668 1.364-.805.308-2.168.683-3.039.867-.868.187-1.86.312-2.231.375h-.621l.746.371c.434.183 1.176.742 1.672 1.238.559.559 1.117 1.305 1.426 1.859.25.559.621 1.426.746 1.989.183.617.371 1.797.496 2.789.125.93.246 2.48.309 3.41.062 1.113.062 1.922-.063 2.293-.062.312-.309.809-.496 1.055-.121.25-.559.621-.867.746-.309.183-.805.371-1.117.371-.372.062-.868 0-1.114-.063m-.496-3.785a19 19 0 0 0-2.047-1.426c-.496-.246-1.367-.496-1.922-.617-.621-.125-1.8-.312-2.605-.375a16 16 0 0 1-2.172-.496c-.433-.183-.992-.555-1.301-.867-.308-.309-.746-.93-.992-1.363-.25-.434-.558-1.118-.683-1.614a8 8 0 0 1-.247-1.922c0-.558.125-1.363.188-1.671.121-.375.309-.93.434-1.305l.308-.617 1.238.679c.684.372 1.614.747 2.047.868.375.125 1.489.312 2.36.433.929.063 1.922.25 2.293.375.371.063.929.246 1.238.434.375.183.867.558 1.117.804.188.309.559.747.684 1.055.125.246.371.93.558 1.426.184.559.371 1.551.496 2.297.121.742.246 2.105.309 3.16 0 .992.062 1.801 0 1.801 0 0-.621-.5-1.301-1.059m-19.969-6.941c-.308-.125-.621-.313-.679-.313-.063 0 .554-.679 1.363-1.488.805-.805 1.797-1.859 2.231-2.48a20.5 20.5 0 0 0 1.488-2.293c.312-.68.746-1.797.992-2.418.187-.684.375-1.797.434-2.48.062-.93 0-1.18-.122-1.18-.062 0-.683.187-1.367.374-.617.246-1.859.743-2.664 1.114-.871.433-2.172.992-2.914 1.304-.808.309-1.984.743-2.605.93-.992.246-1.489.246-2.356.184-.683 0-1.551-.184-2.418-.496-.746-.246-1.859-.743-2.543-1.051-.683-.375-1.734-.992-2.297-1.43-.554-.433-1.425-1.176-1.796-1.672-.434-.433-1.118-1.238-1.489-1.797s-.867-1.367-1.054-1.8a23 23 0 0 1-.868-2.047 66 66 0 0 1-.679-2.477 18 18 0 0 1-.438-2.297c-.058-.558-.121-2.293-.058-3.781 0-1.613.121-3.41.246-4.219a38 38 0 0 1 .683-3.222c.246-.993.68-2.543.93-3.348.309-.867.805-2.234 1.176-2.977.312-.808.992-2.046 1.426-2.851.496-.809 1.242-1.985 1.738-2.668.433-.621 1.238-1.676 1.797-2.297.496-.617 1.488-1.672 2.172-2.23.679-.622 1.671-1.364 2.109-1.735.434-.312 1.301-.809 1.922-1.117s1.609-.684 2.23-.93a31 31 0 0 1 2.293-.558c.684-.125 1.676-.25 2.297-.25.805 0 1.426.125 2.852.558 1.3.375 1.984.496 2.726.496.809 0 1.305-.12 2.914-.617 1.493-.558 2.11-.683 2.856-.683.742-.063 1.238.062 2.168.37.621.188 1.738.622 2.418.993.746.312 1.926.992 2.605 1.488.746.434 1.922 1.305 2.543 1.86.621.558 1.613 1.55 2.168 2.234.559.617 1.367 1.55 1.738 2.11.434.558.993 1.425 1.364 1.921.312.559.929 1.61 1.367 2.356.433.804 1.113 2.23 1.547 3.16a69 69 0 0 1 1.551 3.969c.371 1.242.867 2.914.992 3.722.187.867.371 2.11.433 2.79.063.683.125 1.921.125 2.788 0 .871-.062 2.297-.187 3.04-.121.808-.309 1.984-.496 2.605-.121.62-.434 1.613-.617 2.11-.25.558-.622 1.488-.872 1.984-.246.558-.804 1.425-1.175 1.984s-1.18 1.55-1.797 2.168c-.621.621-1.488 1.363-1.988 1.676-.497.37-1.364.867-1.985 1.113-.617.313-1.672.746-2.355.934-.68.183-1.86.37-2.727.496-1.305.121-1.613.121-2.543-.063-.558-.125-1.488-.496-2.109-.808-.559-.246-1.797-.993-2.727-1.547-.871-.621-1.922-1.243-2.297-1.426-.433-.125-.867-.313-1.05-.375-.375-.121-.375-.063-.622 1.242a19 19 0 0 1-.746 2.852c-.246.867-.679 2.047-.992 2.668-.308.617-.867 1.672-1.301 2.293-.371.621-.992 1.425-1.3 1.796-.371.309-.93.805-1.243 1.118-.371.246-.804.558-1.054.679a2 2 0 0 1-.617.188c-.125 0-.434-.121-.747-.246m12.711-6.512a11 11 0 0 1-1.425-.742c-.496-.25-.868-.563-.868-.684 0-.125 0-.187.063-.187 0 0 .371.187.805.496.375.25 1.117.621 1.55.871.434.246.684.434.621.434-.125 0-.433-.125-.746-.188m-24.738-17.672c-.187-.375-.433-1.426-.621-2.234-.187-.805-.434-2.106-.496-2.79a41 41 0 0 1-.125-2.85c0-.872.062-2.235.187-3.102.122-.868.372-2.106.555-2.852.188-.684.5-1.676.684-2.172.187-.558.558-1.363.808-1.86.246-.495.867-1.487 1.301-2.167.496-.684 1.488-1.922 2.231-2.668.683-.746 1.8-1.8 2.484-2.235.617-.496 1.734-1.175 2.418-1.546.742-.375 1.363-.621 1.609-.559.25 0 .125.246-1.488 1.797-.992.992-2.293 2.418-2.914 3.101-.559.743-1.426 1.922-1.859 2.606-.497.68-1.118 1.734-1.426 2.414-.313.621-.809 1.8-1.117 2.605a32 32 0 0 0-.805 3.102c-.188.867-.371 2.356-.496 3.16-.063.871-.125 2.98-.125 4.715s-.063 3.41-.125 3.719c0 .312-.121.558-.184.558-.062 0-.312-.308-.496-.742"/><path fill="#8a0" d="M738.492 115.41a19 19 0 0 0-2.047-1.426c-.496-.246-1.367-.496-1.922-.617-.621-.125-1.8-.312-2.605-.375a16 16 0 0 1-2.172-.496c-.433-.183-.992-.555-1.301-.867-.308-.309-.746-.93-.992-1.363-.25-.434-.558-1.118-.683-1.614a8 8 0 0 1-.247-1.922c0-.558.125-1.363.188-1.671.121-.375.309-.93.434-1.305l.308-.617 1.238.679c.684.372 1.614.747 2.047.868.375.125 1.489.312 2.36.433.929.063 1.922.25 2.293.375.371.063.929.246 1.238.434.375.183.867.558 1.117.804.188.309.559.747.684 1.055.125.246.371.93.558 1.426.184.559.371 1.551.496 2.297.121.742.246 2.105.309 3.16 0 .992.062 1.801 0 1.801 0 0-.621-.5-1.301-1.059m5.578-59.523-.742-.809.805.746.805.805-.059.062s-.375-.37-.809-.804"/></g><path fill="#bc9a16" d="M567.93 86.04c0-68.599 90.55-70.868 170.078-70.868 79.527 0 170.078 2.27 170.078 70.867 0-15.656-76.145-28.348-170.078-28.348S567.93 70.383 567.93 86.04"/><path fill="none" stroke="#000" stroke-linecap="round" stroke-linejoin="round" stroke-width="2" d="M567.93 86.04c0-68.599 90.55-70.868 170.078-70.868 79.527 0 170.078 2.27 170.078 70.867 0-15.656-76.145-28.348-170.078-28.348S567.93 70.383 567.93 86.04"/><path fill="#cc9c6f" d="M461.629 332.652c0 3.914-3.172 7.086-7.086 7.086s-7.086-3.172-7.086-7.086 3.172-7.086 7.086-7.086 7.086 3.172 7.086 7.086"/><path fill="none" stroke="#000" stroke-linecap="round" stroke-linejoin="round" stroke-width="2" d="M461.629 332.652c0 3.914-3.172 7.086-7.086 7.086s-7.086-3.172-7.086-7.086 3.172-7.086 7.086-7.086 7.086 3.172 7.086 7.086"/><circle cx="454.543" cy="332.652" r="1"/><path fill="#cc9c6f" d="M440.371 29.344h28.344v340.16h-28.344Z"/><path fill="none" stroke="#000" stroke-linecap="round" stroke-linejoin="round" stroke-width="2" d="M440.371 29.344h28.344v340.16h-28.344z"/><path fill="#cc9c6f" d="M461.629 332.652c0 3.914-3.172 7.086-7.086 7.086s-7.086-3.172-7.086-7.086 3.172-7.086 7.086-7.086 7.086 3.172 7.086 7.086"/><path fill="none" stroke="#000" stroke-linecap="round" stroke-linejoin="round" stroke-width="2" d="M461.629 332.652c0 3.914-3.172 7.086-7.086 7.086s-7.086-3.172-7.086-7.086 3.172-7.086 7.086-7.086 7.086 3.172 7.086 7.086"/><path fill="#cc9c6f" d="M457.379 369.504a20.554 20.554 0 0 1 0 28.344h-5.668a20.543 20.543 0 0 1 0-28.344z"/><path fill="none" stroke="#000" stroke-linecap="round" stroke-linejoin="round" stroke-width="2" d="M457.379 369.504a20.554 20.554 0 0 1 0 28.344h-5.668a20.543 20.543 0 0 1 0-28.344z"/><path fill="#cc9c6f" d="M465.883 409.188c0 6.261-5.078 11.339-11.34 11.339s-11.34-5.078-11.34-11.339 5.078-11.34 11.34-11.34 11.34 5.078 11.34 11.34"/><path fill="none" stroke="#000" stroke-linecap="round" stroke-linejoin="round" stroke-width="2" d="M465.883 409.188c0 6.261-5.078 11.339-11.34 11.339s-11.34-5.078-11.34-11.339 5.078-11.34 11.34-11.34 11.34 5.078 11.34 11.34"/><path fill="#cc9c6f" d="M497.063 1c-13.692 0-22.676 13.621-22.676 28.344h-39.688C434.699 14.62 425.715 1 412.023 1z"/><path fill="none" stroke="#000" stroke-linecap="round" stroke-linejoin="round" stroke-width="2" d="M497.063 1c-13.692 0-22.676 13.621-22.676 28.344h-39.688C434.699 14.62 425.715 1 412.023 1z"/></g></svg>