<svg xmlns="http://www.w3.org/2000/svg" width="997pt" height="228" viewBox="0 -171 997 171"><g id="page1"><path fill="#fff" d="M2-16.02h992.996v-28.035H2Z"/><path fill="none" stroke="gray" stroke-linecap="round" stroke-linejoin="round" stroke-width=".5" d="M2-16.02v-28.035h992.996v28.036z"/><path fill="#f2f2f2" d="M2-44.055h992.996V-72.09H2Z"/><path fill="none" stroke="gray" stroke-linecap="round" stroke-linejoin="round" stroke-width=".5" d="M2-44.055V-72.09h992.996v28.035z"/><path fill="#fff" d="M2-72.09h992.996v-28.035H2Z"/><path fill="none" stroke="gray" stroke-linecap="round" stroke-linejoin="round" stroke-width=".5" d="M2-72.09v-28.035h992.996v28.035z"/><path fill="#f2f2f2" d="M2-100.125h992.996v-28.035H2Z"/><path fill="none" stroke="gray" stroke-linecap="round" stroke-linejoin="round" stroke-width=".5" d="M2-100.125v-28.035h992.996v28.035z"/><path fill="#fff" d="M2-128.16h992.996v-28.035H2Z"/><path fill="none" stroke="gray" stroke-linecap="round" stroke-linejoin="round" stroke-width=".5" d="M2-128.16v-28.035h992.996v28.035z"/><path fill="#865b52" d="M2-2.004h992.996v-16.851H2Z"/><path fill="none" stroke="#513631" stroke-linecap="round" stroke-linejoin="round" stroke-width="4" d="M2-2.004v-16.851h992.996v16.851z"/><path fill="#d1d1d1" d="m141.246-16.75 45.18-1.773c-2.656 0-5.317-1.77-7.086-3.543-1.774-1.77-2.656-4.43-2.656-7.086 0-3.543.882-6.2 2.656-7.973 1.769-2.656 4.43-4.43 7.086-4.43l-44.293-.886-5.313 13.289z"/><path d="M84.555-14.98H23.434c-3.543-2.657-6.2-6.2-7.086-12.403-.887-5.312 1.77-13.285 4.43-15.941.882 0 1.769-.887 2.656-1.774h1.773l80.609-.886h80.61v4.43h-21.262c-19.484 0-20.371 0-21.258.886-3.543.887-5.316 7.086-4.429 13.285 0 3.547 1.769 7.09 3.543 7.973l.886.887 19.489-.887c13.289 0 19.488.887 19.488.887h3.543v3.543z"/><path d="M143.02-38.898h37.207s-6.204.886-18.606.886c-12.398 0-18.601-.886-18.601-.886m-2.657 5.316v-.887h18.602c15.945 0 17.719 0 17.719.887zm-.886 5.316c0-.886 6.203-.886 18.601-.886 11.516 0 17.719 0 17.719.886zm1.769 4.43h37.207s-6.199.883-18.601.883c-15.946 0-18.606 0-18.606-.883"/><path fill="#40bf40" d="m138.59-18.523-.887-.887c-.883-.883-1.769-5.313-2.656-7.973v-5.312c.887-2.657 1.773-6.203 2.656-7.973l.887-.887h-1.77c-1.773 0-1.773 0-2.66.887-.883.887-.883 1.77-1.769 4.43-.887 1.77-.887 2.656-.887 6.199 0 4.43 0 4.43.887 7.086.886 1.773 1.769 2.66 2.656 3.543 0 .887.887.887 1.773.887z"/><path fill="#71cb71" d="M132.391-18.523c-2.657-5.313-2.657-7.973-2.657-13.286 0-3.543.883-5.316 2.657-7.972v-1.774h-1.774c-1.769 0-1.769 0-2.656.887-1.773 1.77-2.656 5.316-2.656 10.629 0 4.43.883 6.203 1.769 8.86.887 2.656 1.774 2.656 3.543 2.656z"/><path fill="#40bf40" d="M126.188-18.523s0-.887-.883-1.77c-.887-2.66-.887-5.316-.887-9.746s0-7.086 1.77-9.742v-1.774h-85.04l-.882.887s-.887.887-.887 1.77c-.887.886-1.773 6.203-1.773 8.859 0 4.43.886 9.746 2.66 11.516z"/><path fill="#71cb71" d="M38.492-18.523s-.886-.887-.886-1.77c-.883-1.773-1.77-7.09-1.77-9.746s.887-7.973 1.77-9.742c0-.887.886-1.774.886-1.774h-2.656c-1.773 0-2.66 0-2.66.887-2.657 1.77-3.543 5.316-3.543 10.629 0 5.316 1.773 8.86 3.543 10.629 0 .887.886.887 2.66.887z"/><path fill="#40bf40" d="M30.52-18.523s0-.887-.887-1.77c-.883-2.66-1.77-6.203-1.77-9.746 0-4.43.887-7.086 1.77-9.742.887-.887.887-1.774.887-1.774h-4.43c-2.656.887-4.43 6.203-4.43 11.516 0 5.316 1.774 10.629 4.43 11.516z"/><path fill="#d1d1d1" d="m141.246-44.785 45.18-1.774c-2.656 0-5.317-1.77-7.086-3.543-1.774-1.77-2.656-4.43-2.656-7.086 0-3.542.882-6.199 2.656-7.972 1.769-2.656 4.43-4.43 7.086-4.43l-44.293-.883-5.313 13.285z"/><path d="M84.555-43.016H23.434c-3.543-2.656-6.2-6.199-7.086-12.398-.887-5.316 1.77-13.29 4.43-15.945.882 0 1.769-.887 2.656-1.774h1.773l80.609-.886h80.61v4.43h-21.262c-19.484 0-20.371 0-21.258.886-3.543.887-5.316 7.086-4.429 13.289 0 3.543 1.769 7.086 3.543 7.973l.886.882 19.489-.882c13.289 0 19.488.882 19.488.882h3.543v3.544z"/><path d="M143.02-66.93h37.207s-6.204.883-18.606.883c-12.398 0-18.601-.883-18.601-.883m-2.657 5.313v-.887h18.602c15.945 0 17.719 0 17.719.887zm-.886 5.317c0-.888 6.203-.888 18.601-.888 11.516 0 17.719 0 17.719.887zm1.769 4.43h37.207s-6.199.887-18.601.887c-15.946 0-18.606 0-18.606-.887"/><path fill="#8080bf" d="m138.59-46.559-.887-.882c-.883-.887-1.769-5.317-2.656-7.973v-5.316c.887-2.657 1.773-6.2 2.656-7.973l.887-.887h-1.77c-1.773 0-1.773 0-2.66.887-.883.887-.883 1.773-1.769 4.43-.887 1.77-.887 2.656-.887 6.199 0 4.43 0 4.43.887 7.09.886 1.77 1.769 2.656 2.656 3.543 0 .882.887.882 1.773.882z"/><path fill="#9e9ecb" d="M132.391-46.559c-2.657-5.312-2.657-7.972-2.657-13.285 0-3.543.883-5.316 2.657-7.972v-1.774h-1.774c-1.769 0-1.769 0-2.656.887q-2.658 2.66-2.656 10.629c0 4.43.883 6.203 1.769 8.86.887 2.655 1.774 2.655 3.543 2.655z"/><path fill="#8080bf" d="M126.188-46.559s0-.882-.883-1.77c-.887-2.655-.887-5.315-.887-9.745s0-7.086 1.77-9.742v-1.774h-85.04l-.882.887s-.887.887-.887 1.773c-.887.883-1.773 6.2-1.773 8.856 0 4.43.886 9.746 2.66 11.515z"/><path fill="#9e9ecb" d="M38.492-46.559s-.886-.882-.886-1.77c-.883-1.773-1.77-7.085-1.77-9.745 0-2.657.887-7.973 1.77-9.742 0-.887.886-1.774.886-1.774h-2.656c-1.773 0-2.66 0-2.66.887-2.657 1.773-3.543 5.316-3.543 10.629 0 5.316 1.773 8.86 3.543 10.633 0 .882.886.882 2.66.882z"/><path fill="#8080bf" d="M30.52-46.559s0-.882-.887-1.77c-.883-2.655-1.77-6.202-1.77-9.745 0-4.43.887-7.086 1.77-9.742.887-.887.887-1.774.887-1.774h-4.43c-2.656.887-4.43 6.203-4.43 11.516 0 5.316 1.774 10.633 4.43 11.515z"/><path fill="#d1d1d1" d="m141.246-72.82 45.18-1.774c-2.656 0-5.317-1.77-7.086-3.543-1.774-1.77-2.656-4.425-2.656-7.086 0-3.543.882-6.199 2.656-7.972 1.769-2.657 4.43-4.426 7.086-4.426l-44.293-.887-5.313 13.285z"/><path d="M84.555-71.047H23.434c-3.543-2.66-6.2-6.203-7.086-12.402-.887-5.317 1.77-13.29 4.43-15.945.882 0 1.769-.887 2.656-1.774h1.773l80.609-.883h80.61v4.43h-21.262c-19.484 0-20.371 0-21.258.883-3.543.886-5.316 7.086-4.429 13.289 0 3.543 1.769 7.086 3.543 7.972l.886.883 19.489-.883c13.289 0 19.488.883 19.488.883h3.543v3.547z"/><path d="M143.02-94.965h37.207s-6.204.883-18.606.883c-12.398 0-18.601-.883-18.601-.883m-2.657 5.313v-.883h18.602c15.945 0 17.719 0 17.719.883zm-.886 5.316c0-.887 6.203-.887 18.601-.887 11.516 0 17.719 0 17.719.887zm1.769 4.43h37.207s-6.199.887-18.601.887c-15.946 0-18.606 0-18.606-.887"/><path fill="#bf4040" d="m138.59-74.594-.887-.883c-.883-.886-1.769-5.316-2.656-7.972v-5.317c.887-2.656 1.773-6.199 2.656-7.972l.887-.883h-1.77c-1.773 0-1.773 0-2.66.883-.883.886-.883 1.773-1.769 4.43-.887 1.773-.887 2.656-.887 6.203 0 4.425 0 4.425.887 7.086.886 1.769 1.769 2.656 2.656 3.542 0 .883.887.883 1.773.883z"/><path fill="#cb7171" d="M132.391-74.594c-2.657-5.312-2.657-7.969-2.657-13.285 0-3.543.883-5.316 2.657-7.973v-1.77h-1.774c-1.769 0-1.769 0-2.656.884q-2.658 2.659-2.656 10.632c0 4.426.883 6.2 1.769 8.856.887 2.656 1.774 2.656 3.543 2.656z"/><path fill="#bf4040" d="M126.188-74.594s0-.883-.883-1.77c-.887-2.655-.887-5.316-.887-9.742 0-4.43 0-7.09 1.77-9.746v-1.77h-85.04l-.882.884s-.887.886-.887 1.773c-.887.883-1.773 6.2-1.773 8.86 0 4.425.886 9.742 2.66 11.511z"/><path fill="#cb7171" d="M38.492-74.594s-.886-.883-.886-1.77c-.883-1.773-1.77-7.085-1.77-9.742 0-2.66.887-7.976 1.77-9.746 0-.886.886-1.77.886-1.77h-2.656c-1.773 0-2.66 0-2.66.884-2.657 1.773-3.543 5.316-3.543 10.632 0 5.313 1.773 8.856 3.543 10.63 0 .882.886.882 2.66.882z"/><path fill="#bf4040" d="M30.52-74.594s0-.883-.887-1.77c-.883-2.655-1.77-6.198-1.77-9.742 0-4.43.887-7.09 1.77-9.746.887-.886.887-1.77.887-1.77h-4.43c-2.656.884-4.43 6.2-4.43 11.516 0 5.313 1.774 10.63 4.43 11.512z"/><path fill="#d1d1d1" d="m339.848-16.75 45.175-1.773c-2.656 0-5.312-1.77-7.085-3.543-1.774-1.77-2.657-4.43-2.657-7.086 0-3.543.883-6.2 2.657-7.973 1.773-2.656 4.429-4.43 7.085-4.43l-44.289-.886-5.316 13.289z"/><path d="M283.156-14.98h-61.125c-3.543-2.657-6.199-6.2-7.086-12.403-.886-5.312 1.774-13.285 4.43-15.941.887 0 1.773-.887 2.656-1.774h1.774l80.609-.886h80.609v4.43h-21.257c-19.489 0-20.375 0-21.262.886-3.543.887-5.313 7.086-4.43 13.285 0 3.547 1.774 7.09 3.543 7.973l.887.887 19.488-.887c13.289 0 19.488.887 19.488.887h3.543v3.543z"/><path d="M341.617-38.898h37.207s-6.203.886-18.601.886c-12.403 0-18.606-.886-18.606-.886m-2.656 5.316v-.887h18.602c15.945 0 17.718 0 17.718.887zm-.887 5.316c0-.886 6.203-.886 18.606-.886 11.515 0 17.715 0 17.715.886zm1.774 4.43h37.203s-6.199.883-18.602.883c-15.945 0-18.601 0-18.601-.883"/><path fill="#9266bf" d="m337.191-18.523-.886-.887c-.887-.883-1.774-5.313-2.657-7.973v-5.312c.883-2.657 1.77-6.203 2.657-7.973l.886-.887h-1.773c-1.77 0-1.77 0-2.656.887s-.887 1.77-1.774 4.43c-.883 1.77-.883 2.656-.883 6.199 0 4.43 0 4.43.883 7.086.887 1.773 1.774 2.66 2.66 3.543 0 .887.883.887 1.77.887z"/><path fill="#ab8ccb" d="M330.988-18.523c-2.656-5.313-2.656-7.973-2.656-13.286 0-3.543.887-5.316 2.656-7.972v-1.774h-1.769c-1.774 0-1.774 0-2.66.887-1.77 1.77-2.657 5.316-2.657 10.629 0 4.43.887 6.203 1.774 8.86.883 2.656 1.769 2.656 3.543 2.656z"/><path fill="#9266bf" d="M324.789-18.523s0-.887-.887-1.77c-.886-2.66-.886-5.316-.886-9.746s0-7.086 1.773-9.742v-1.774H239.75l-.887.887s-.886.887-.886 1.77c-.883.886-1.77 6.203-1.77 8.859 0 4.43.887 9.746 2.656 11.516z"/><path fill="#ab8ccb" d="M237.094-18.523s-.887-.887-.887-1.77c-.887-1.773-1.773-7.09-1.773-9.746s.886-7.973 1.773-9.742c0-.887.887-1.774.887-1.774h-2.66c-1.77 0-2.657 0-2.657.887-2.66 1.77-3.543 5.316-3.543 10.629 0 5.316 1.77 8.86 3.543 10.629 0 .887.887.887 2.657.887z"/><path fill="#9266bf" d="M229.117-18.523s0-.887-.883-1.77c-.886-2.66-1.773-6.203-1.773-9.746 0-4.43.887-7.086 1.773-9.742.883-.887.883-1.774.883-1.774h-4.426c-2.66.887-4.429 6.203-4.429 11.516 0 5.316 1.769 10.629 4.429 11.516z"/><path fill="#d1d1d1" d="m339.848-44.785 45.175-1.774c-2.656 0-5.312-1.77-7.085-3.543-1.774-1.77-2.657-4.43-2.657-7.086 0-3.542.883-6.199 2.657-7.972 1.773-2.656 4.429-4.43 7.085-4.43l-44.289-.883-5.316 13.285z"/><path d="M283.156-43.016h-61.125c-3.543-2.656-6.199-6.199-7.086-12.398-.886-5.316 1.774-13.29 4.43-15.945.887 0 1.773-.887 2.656-1.774h1.774l80.609-.886h80.609v4.43h-21.257c-19.489 0-20.375 0-21.262.886-3.543.887-5.313 7.086-4.43 13.289 0 3.543 1.774 7.086 3.543 7.973l.887.882 19.488-.882c13.289 0 19.488.882 19.488.882h3.543v3.544z"/><path d="M341.617-66.93h37.207s-6.203.883-18.601.883c-12.403 0-18.606-.883-18.606-.883m-2.656 5.313v-.887h18.602c15.945 0 17.718 0 17.718.887zm-.887 5.317c0-.888 6.203-.888 18.606-.888 11.515 0 17.715 0 17.715.887zm1.774 4.43h37.203s-6.199.887-18.602.887c-15.945 0-18.601 0-18.601-.887"/><path fill="#bf8040" d="m337.191-46.559-.886-.882c-.887-.887-1.774-5.317-2.657-7.973v-5.316c.883-2.657 1.77-6.2 2.657-7.973l.886-.887h-1.773c-1.77 0-1.77 0-2.656.887s-.887 1.773-1.774 4.43c-.883 1.77-.883 2.656-.883 6.199 0 4.43 0 4.43.883 7.09.887 1.77 1.774 2.656 2.66 3.543 0 .882.883.882 1.77.882z"/><path fill="#cb9e71" d="M330.988-46.559c-2.656-5.312-2.656-7.972-2.656-13.285 0-3.543.887-5.316 2.656-7.972v-1.774h-1.769c-1.774 0-1.774 0-2.66.887q-2.656 2.66-2.657 10.629c0 4.43.887 6.203 1.774 8.86.883 2.655 1.769 2.655 3.543 2.655z"/><path fill="#bf8040" d="M324.789-46.559s0-.882-.887-1.77c-.886-2.655-.886-5.315-.886-9.745s0-7.086 1.773-9.742v-1.774H239.75l-.887.887s-.886.887-.886 1.773c-.883.883-1.77 6.2-1.77 8.856 0 4.43.887 9.746 2.656 11.515z"/><path fill="#cb9e71" d="M237.094-46.559s-.887-.882-.887-1.77c-.887-1.773-1.773-7.085-1.773-9.745 0-2.657.886-7.973 1.773-9.742 0-.887.887-1.774.887-1.774h-2.66c-1.77 0-2.657 0-2.657.887-2.66 1.773-3.543 5.316-3.543 10.629 0 5.316 1.77 8.86 3.543 10.633 0 .882.887.882 2.657.882z"/><path fill="#bf8040" d="M229.117-46.559s0-.882-.883-1.77c-.886-2.655-1.773-6.202-1.773-9.745 0-4.43.887-7.086 1.773-9.742.883-.887.883-1.774.883-1.774h-4.426c-2.66.887-4.429 6.203-4.429 11.516 0 5.316 1.769 10.633 4.429 11.515z"/><path fill="#d1d1d1" d="m339.848-72.82 45.175-1.774c-2.656 0-5.312-1.77-7.085-3.543-1.774-1.77-2.657-4.425-2.657-7.086 0-3.543.883-6.199 2.657-7.972 1.773-2.657 4.429-4.426 7.085-4.426l-44.289-.887-5.316 13.285z"/><path d="M283.156-71.047h-61.125c-3.543-2.66-6.199-6.203-7.086-12.402-.886-5.317 1.774-13.29 4.43-15.945.887 0 1.773-.887 2.656-1.774h1.774l80.609-.883h80.609v4.43h-21.257c-19.489 0-20.375 0-21.262.883-3.543.886-5.313 7.086-4.43 13.289 0 3.543 1.774 7.086 3.543 7.972l.887.883 19.488-.883c13.289 0 19.488.883 19.488.883h3.543v3.547z"/><path d="M341.617-94.965h37.207s-6.203.883-18.601.883c-12.403 0-18.606-.883-18.606-.883m-2.656 5.313v-.883h18.602c15.945 0 17.718 0 17.718.883zm-.887 5.316c0-.887 6.203-.887 18.606-.887 11.515 0 17.715 0 17.715.887zm1.774 4.43h37.203s-6.199.887-18.602.887c-15.945 0-18.601 0-18.601-.887"/><path fill="#40bf40" d="m337.191-74.594-.886-.883c-.887-.886-1.774-5.316-2.657-7.972v-5.317c.883-2.656 1.77-6.199 2.657-7.972l.886-.883h-1.773c-1.77 0-1.77 0-2.656.883-.887.886-.887 1.773-1.774 4.43-.883 1.773-.883 2.656-.883 6.203 0 4.425 0 4.425.883 7.086.887 1.769 1.774 2.656 2.66 3.542 0 .883.883.883 1.77.883z"/><path fill="#71cb71" d="M330.988-74.594c-2.656-5.312-2.656-7.969-2.656-13.285 0-3.543.887-5.316 2.656-7.973v-1.77h-1.769c-1.774 0-1.774 0-2.66.884q-2.656 2.659-2.657 10.632c0 4.426.887 6.2 1.774 8.856.883 2.656 1.769 2.656 3.543 2.656z"/><path fill="#40bf40" d="M324.789-74.594s0-.883-.887-1.77c-.886-2.655-.886-5.316-.886-9.742 0-4.43 0-7.09 1.773-9.746v-1.77H239.75l-.887.884s-.886.886-.886 1.773c-.883.883-1.77 6.2-1.77 8.86 0 4.425.887 9.742 2.656 11.511z"/><path fill="#71cb71" d="M237.094-74.594s-.887-.883-.887-1.77c-.887-1.773-1.773-7.085-1.773-9.742 0-2.66.886-7.976 1.773-9.746 0-.886.887-1.77.887-1.77h-2.66c-1.77 0-2.657 0-2.657.884-2.66 1.773-3.543 5.316-3.543 10.632 0 5.313 1.77 8.856 3.543 10.63 0 .882.887.882 2.657.882z"/><path fill="#40bf40" d="M229.117-74.594s0-.883-.883-1.77c-.886-2.655-1.773-6.198-1.773-9.742 0-4.43.887-7.09 1.773-9.746.883-.886.883-1.77.883-1.77h-4.426c-2.66.884-4.429 6.2-4.429 11.516 0 5.313 1.769 10.63 4.429 11.512z"/><path fill="#d1d1d1" d="m339.848-100.855 45.175-1.77c-2.656 0-5.312-1.773-7.085-3.547-1.774-1.769-2.657-4.426-2.657-7.086 0-3.543.883-6.199 2.657-7.972 1.773-2.657 4.429-4.426 7.085-4.426l-44.289-.887-5.316 13.285z"/><path d="M283.156-99.082h-61.125c-3.543-2.66-6.199-6.203-7.086-12.402-.886-5.317 1.774-13.289 4.43-15.946.887 0 1.773-.886 2.656-1.769h1.774l80.609-.887h80.609v4.43h-21.257c-19.489 0-20.375 0-21.262.883-3.543.886-5.313 7.089-4.43 13.289 0 3.543 1.774 7.086 3.543 7.972l.887.887 19.488-.887c13.289 0 19.488.887 19.488.887h3.543v3.543z"/><path d="M341.617-123h37.207s-6.203.887-18.601.887c-12.403 0-18.606-.887-18.606-.887m-2.656 5.316v-.886h18.602c15.945 0 17.718 0 17.718.886zm-.887 5.313c0-.887 6.203-.887 18.606-.887 11.515 0 17.715 0 17.715.887zm1.774 4.43h37.203s-6.199.886-18.602.886c-15.945 0-18.601 0-18.601-.886m4.429-16.832h36.321c0 .886-5.317.886-17.719.886s-18.602 0-18.602-.886m-4.429 4.429s7.086-.886 18.601-.886c12.403 0 18.602.886 18.602.886zm-1.774 5.317s7.09-.887 18.606-.887c11.515 0 17.715.887 17.715.887zm.887 5.312v-.883h36.32c0 .883-1.773.883-17.718.883zm2.656 4.43h37.207s-7.086.887-18.601.887c-12.403 0-18.606-.887-18.606-.887"/><path fill="#8080bf" d="m337.191-102.625-.886-.887c-.887-.886-1.774-5.316-2.657-7.972v-5.317c.883-2.656 1.77-6.199 2.657-7.972l.886-.883h-1.773c-1.77 0-1.77 0-2.656.883-.887.886-.887 1.773-1.774 4.429-.883 1.774-.883 2.66-.883 6.203 0 4.426 0 4.426.883 7.086.887 1.77 1.774 2.657 2.66 3.543 0 .887.883.887 1.77.887z"/><path fill="#9e9ecb" d="M330.988-102.625c-2.656-5.316-2.656-7.973-2.656-13.289 0-3.543.887-5.316 2.656-7.973v-1.769h-1.769c-1.774 0-1.774 0-2.66.883q-2.656 2.659-2.657 10.632c0 4.426.887 6.2 1.774 8.856.883 2.66 1.769 2.66 3.543 2.66z"/><path fill="#8080bf" d="M324.789-102.625s0-.887-.887-1.773c-.886-2.657-.886-5.317-.886-9.743 0-4.429 0-7.089 1.773-9.746v-1.769H239.75l-.887.883s-.886.886-.886 1.773c-.883.887-1.77 6.199-1.77 8.859 0 4.426.887 9.743 2.656 11.516z"/><path fill="#9e9ecb" d="M237.094-102.625s-.887-.887-.887-1.773c-.887-1.774-1.773-7.086-1.773-9.743 0-2.66.886-7.972 1.773-9.746 0-.886.887-1.769.887-1.769h-2.66c-1.77 0-2.657 0-2.657.883-2.66 1.773-3.543 5.316-3.543 10.632 0 5.313 1.77 8.856 3.543 10.629 0 .887.887.887 2.657.887z"/><path fill="#8080bf" d="M229.117-102.625s0-.887-.883-1.773c-.886-2.657-1.773-6.2-1.773-9.743 0-4.429.887-7.089 1.773-9.746.883-.886.883-1.769.883-1.769h-4.426c-2.66.883-4.429 6.199-4.429 11.515 0 5.313 1.769 10.629 4.429 11.516z"/><path fill="#d1d1d1" d="m339.848-128.891 45.175-1.769c-2.656 0-5.312-1.774-7.085-3.543-1.774-1.774-2.657-4.43-2.657-7.086 0-3.547.883-6.203 2.657-7.973 1.773-2.66 4.429-4.429 7.085-4.429l-44.289-.887-5.316 13.289z"/><path d="M283.156-127.117h-61.125c-3.543-2.656-6.199-6.199-7.086-12.403-.886-5.316 1.774-13.289 4.43-15.945.887 0 1.773-.887 2.656-1.769h1.774l80.609-.887h80.609v4.43h-21.257c-19.489 0-20.375 0-21.262.882-3.543.887-5.313 7.09-4.43 13.289 0 3.543 1.774 7.086 3.543 7.973l.887.887 19.488-.887c13.289 0 19.488.887 19.488.887h3.543v3.543z"/><path d="M341.617-151.035h37.207s-6.203.887-18.601.887c-12.403 0-18.606-.887-18.606-.887m-2.656 5.316v-.886h18.602c15.945 0 17.718 0 17.718.886zm-.887 5.313c0-.883 6.203-.883 18.606-.883 11.515 0 17.715 0 17.715.883zm1.774 4.429h37.203s-6.199.887-18.602.887c-15.945 0-18.601 0-18.601-.887"/><path fill="#bf4040" d="m337.191-130.66-.886-.887c-.887-.887-1.774-5.316-2.657-7.973v-5.316c.883-2.656 1.77-6.199 2.657-7.973l.886-.882h-1.773c-1.77 0-1.77 0-2.656.882-.887.887-.887 1.774-1.774 4.43-.883 1.774-.883 2.66-.883 6.203 0 4.43 0 4.43.883 7.086.887 1.774 1.774 2.656 2.66 3.543 0 .887.883.887 1.77.887z"/><path fill="#cb7171" d="M330.988-130.66c-2.656-5.317-2.656-7.973-2.656-13.289 0-3.543.887-5.313 2.656-7.973v-1.769h-1.769c-1.774 0-1.774 0-2.66.882q-2.656 2.66-2.657 10.633c0 4.43.887 6.199 1.774 8.86.883 2.656 1.769 2.656 3.543 2.656z"/><path fill="#bf4040" d="M324.789-130.66s0-.887-.887-1.774c-.886-2.656-.886-5.312-.886-9.742 0-4.429 0-7.086 1.773-9.746v-1.769H239.75l-.887.882s-.886.887-.886 1.774c-.883.887-1.77 6.199-1.77 8.859 0 4.43.887 9.742 2.656 11.516z"/><path fill="#cb7171" d="M237.094-130.66s-.887-.887-.887-1.774c-.887-1.769-1.773-7.086-1.773-9.742 0-2.66.886-7.972 1.773-9.746 0-.887.887-1.769.887-1.769h-2.66c-1.77 0-2.657 0-2.657.882-2.66 1.774-3.543 5.317-3.543 10.633 0 5.313 1.77 8.86 3.543 10.629 0 .887.887.887 2.657.887z"/><path fill="#bf4040" d="M229.117-130.66s0-.887-.883-1.774c-.886-2.656-1.773-6.199-1.773-9.742 0-4.429.887-7.086 1.773-9.746.883-.887.883-1.769.883-1.769h-4.426c-2.66.882-4.429 6.199-4.429 11.515 0 5.313 1.769 10.629 4.429 11.516z"/><path fill="#d1d1d1" d="m538.445-16.75 45.18-1.773c-2.66 0-5.316-1.77-7.09-3.543-1.769-1.77-2.656-4.43-2.656-7.086q.001-5.314 2.656-7.973c1.774-2.656 4.43-4.43 7.09-4.43l-44.293-.886-5.312 13.289z"/><path d="M481.754-14.98h-61.121c-3.543-2.657-6.203-6.2-7.086-12.403-.887-5.312 1.769-13.285 4.426-15.941.886 0 1.773-.887 2.66-1.774h1.769l80.61-.886h80.613v4.43h-21.262c-19.488 0-20.375 0-21.258.886-3.542.887-5.316 7.086-4.429 13.285 0 3.547 1.769 7.09 3.543 7.973l.886.887 19.489-.887c13.285 0 19.484.887 19.484.887h3.547v3.543z"/><path d="M540.219-38.898h37.203s-6.199.886-18.602.886c-12.402 0-18.601-.886-18.601-.886m-2.656 5.316v-.887h18.601c15.945 0 17.715 0 17.715.887zm-.887 5.316c0-.886 6.199-.886 18.601-.886 11.516 0 17.715 0 17.715.886zm1.769 4.43h37.207s-6.203.883-18.601.883c-15.946 0-18.606 0-18.606-.883"/><path fill="#40bf40" d="m535.789-18.523-.887-.887c-.882-.883-1.769-5.313-2.656-7.973v-5.312c.887-2.657 1.774-6.203 2.656-7.973l.887-.887h-1.769c-1.774 0-1.774 0-2.661.887-.886.887-.886 1.77-1.769 4.43-.887 1.77-.887 2.656-.887 6.199 0 4.43 0 4.43.887 7.086.883 1.773 1.769 2.66 2.656 3.543 0 .887.887.887 1.774.887z"/><path fill="#71cb71" d="M529.59-18.523c-2.66-5.313-2.66-7.973-2.66-13.286 0-3.543.886-5.316 2.66-7.972v-1.774h-1.774c-1.769 0-1.769 0-2.656.887-1.773 1.77-2.656 5.316-2.656 10.629 0 4.43.883 6.203 1.769 8.86.887 2.656 1.774 2.656 3.543 2.656z"/><path fill="#40bf40" d="M523.387-18.523s0-.887-.883-1.77c-.887-2.66-.887-5.316-.887-9.746s0-7.086 1.77-9.742v-1.774h-85.039l-.887.887s-.883.887-.883 1.77c-.887.886-1.773 6.203-1.773 8.859 0 4.43.886 9.746 2.656 11.516z"/><path fill="#71cb71" d="M435.691-18.523s-.886-.887-.886-1.77c-.887-1.773-1.774-7.09-1.774-9.746s.887-7.973 1.774-9.742c0-.887.886-1.774.886-1.774h-2.66c-1.769 0-2.656 0-2.656.887-2.656 1.77-3.543 5.316-3.543 10.629 0 5.316 1.773 8.86 3.543 10.629 0 .887.887.887 2.656.887z"/><path fill="#40bf40" d="M427.719-18.523s0-.887-.887-1.77c-.887-2.66-1.769-6.203-1.769-9.746 0-4.43.882-7.086 1.769-9.742.887-.887.887-1.774.887-1.774h-4.43c-2.656.887-4.43 6.203-4.43 11.516 0 5.316 1.774 10.629 4.43 11.516z"/><path fill="#d1d1d1" d="m538.445-44.785 45.18-1.774c-2.66 0-5.316-1.77-7.09-3.543-1.769-1.77-2.656-4.43-2.656-7.086q.001-5.313 2.656-7.972c1.774-2.656 4.43-4.43 7.09-4.43l-44.293-.883-5.312 13.285z"/><path d="M481.754-43.016h-61.121c-3.543-2.656-6.203-6.199-7.086-12.398-.887-5.316 1.769-13.29 4.426-15.945.886 0 1.773-.887 2.66-1.774h1.769l80.61-.886h80.613v4.43h-21.262c-19.488 0-20.375 0-21.258.886-3.542.887-5.316 7.086-4.429 13.289 0 3.543 1.769 7.086 3.543 7.973l.886.882 19.489-.882c13.285 0 19.484.882 19.484.882h3.547v3.544z"/><path d="M540.219-66.93h37.203s-6.199.883-18.602.883c-12.402 0-18.601-.883-18.601-.883m-2.656 5.313v-.887h18.601c15.945 0 17.715 0 17.715.887zm-.887 5.317c0-.888 6.199-.888 18.601-.888 11.516 0 17.715 0 17.715.887zm1.769 4.43h37.207s-6.203.887-18.601.887c-15.946 0-18.606 0-18.606-.887m4.43-16.832h36.32c0 .887-5.316.887-17.718.887-12.399 0-18.602 0-18.602-.887m-4.43 4.43s7.086-.887 18.606-.887c12.398 0 18.601.887 18.601.887zm-1.769 5.313s7.086-.884 18.601-.884c11.516 0 17.715.883 17.715.883zm.887 5.317v-.887h36.316c0 .886-1.77.886-17.715.886zm2.656 4.429h37.203s-7.086.887-18.602.887c-12.402 0-18.601-.887-18.601-.887"/><path fill="#8080bf" d="m535.789-46.559-.887-.882c-.882-.887-1.769-5.317-2.656-7.973v-5.316c.887-2.657 1.774-6.2 2.656-7.973l.887-.887h-1.769c-1.774 0-1.774 0-2.661.887-.886.887-.886 1.773-1.769 4.43-.887 1.77-.887 2.656-.887 6.199 0 4.43 0 4.43.887 7.09.883 1.77 1.769 2.656 2.656 3.543 0 .882.887.882 1.774.882z"/><path fill="#9e9ecb" d="M529.59-46.559c-2.66-5.312-2.66-7.972-2.66-13.285 0-3.543.886-5.316 2.66-7.972v-1.774h-1.774c-1.769 0-1.769 0-2.656.887q-2.658 2.66-2.656 10.629c0 4.43.883 6.203 1.769 8.86.887 2.655 1.774 2.655 3.543 2.655z"/><path fill="#8080bf" d="M523.387-46.559s0-.882-.883-1.77c-.887-2.655-.887-5.315-.887-9.745s0-7.086 1.77-9.742v-1.774h-85.039l-.887.887s-.883.887-.883 1.773c-.887.883-1.773 6.2-1.773 8.856 0 4.43.886 9.746 2.656 11.515z"/><path fill="#9e9ecb" d="M435.691-46.559s-.886-.882-.886-1.77c-.887-1.773-1.774-7.085-1.774-9.745 0-2.657.887-7.973 1.774-9.742 0-.887.886-1.774.886-1.774h-2.66c-1.769 0-2.656 0-2.656.887-2.656 1.773-3.543 5.316-3.543 10.629 0 5.316 1.773 8.86 3.543 10.633 0 .882.887.882 2.656.882z"/><path fill="#8080bf" d="M427.719-46.559s0-.882-.887-1.77c-.887-2.655-1.769-6.202-1.769-9.745 0-4.43.882-7.086 1.769-9.742.887-.887.887-1.774.887-1.774h-4.43c-2.656.887-4.43 6.203-4.43 11.516 0 5.316 1.774 10.633 4.43 11.515z"/><path fill="#d1d1d1" d="m538.445-72.82 45.18-1.774c-2.66 0-5.316-1.77-7.09-3.543-1.769-1.77-2.656-4.425-2.656-7.086q.001-5.314 2.656-7.972c1.774-2.657 4.43-4.426 7.09-4.426l-44.293-.887-5.312 13.285z"/><path d="M481.754-71.047h-61.121c-3.543-2.66-6.203-6.203-7.086-12.402-.887-5.317 1.769-13.29 4.426-15.945.886 0 1.773-.887 2.66-1.774h1.769l80.61-.883h80.613v4.43h-21.262c-19.488 0-20.375 0-21.258.883-3.542.886-5.316 7.086-4.429 13.289 0 3.543 1.769 7.086 3.543 7.972l.886.883 19.489-.883c13.285 0 19.484.883 19.484.883h3.547v3.547z"/><path d="M540.219-94.965h37.203s-6.199.883-18.602.883c-12.402 0-18.601-.883-18.601-.883m-2.656 5.313v-.883h18.601c15.945 0 17.715 0 17.715.883zm-.887 5.316c0-.887 6.199-.887 18.601-.887 11.516 0 17.715 0 17.715.887zm1.769 4.43h37.207s-6.203.887-18.601.887c-15.946 0-18.606 0-18.606-.887"/><path fill="#bf4040" d="m535.789-74.594-.887-.883c-.882-.886-1.769-5.316-2.656-7.972v-5.317c.887-2.656 1.774-6.199 2.656-7.972l.887-.883h-1.769c-1.774 0-1.774 0-2.661.883-.886.886-.886 1.773-1.769 4.43-.887 1.773-.887 2.656-.887 6.203 0 4.425 0 4.425.887 7.086.883 1.769 1.769 2.656 2.656 3.542 0 .883.887.883 1.774.883z"/><path fill="#cb7171" d="M529.59-74.594c-2.66-5.312-2.66-7.969-2.66-13.285 0-3.543.886-5.316 2.66-7.973v-1.77h-1.774c-1.769 0-1.769 0-2.656.884q-2.658 2.659-2.656 10.632c0 4.426.883 6.2 1.769 8.856.887 2.656 1.774 2.656 3.543 2.656z"/><path fill="#bf4040" d="M523.387-74.594s0-.883-.883-1.77c-.887-2.655-.887-5.316-.887-9.742 0-4.43 0-7.09 1.77-9.746v-1.77h-85.039l-.887.884s-.883.886-.883 1.773c-.887.883-1.773 6.2-1.773 8.86 0 4.425.886 9.742 2.656 11.511z"/><path fill="#cb7171" d="M435.691-74.594s-.886-.883-.886-1.77c-.887-1.773-1.774-7.085-1.774-9.742 0-2.66.887-7.976 1.774-9.746 0-.886.886-1.77.886-1.77h-2.66c-1.769 0-2.656 0-2.656.884-2.656 1.773-3.543 5.316-3.543 10.632 0 5.313 1.773 8.856 3.543 10.63 0 .882.887.882 2.656.882z"/><path fill="#bf4040" d="M427.719-74.594s0-.883-.887-1.77c-.887-2.655-1.769-6.198-1.769-9.742 0-4.43.882-7.09 1.769-9.746.887-.886.887-1.77.887-1.77h-4.43c-2.656.884-4.43 6.2-4.43 11.516 0 5.313 1.774 10.63 4.43 11.512z"/><path fill="#d1d1d1" d="m737.047-16.75 45.176-1.773c-2.657 0-5.317-1.77-7.086-3.543-1.774-1.77-2.657-4.43-2.657-7.086 0-3.543.883-6.2 2.657-7.973 1.769-2.656 4.429-4.43 7.086-4.43l-44.293-.886-5.313 13.289z"/><path d="M680.352-14.98H619.23c-3.542-2.657-6.199-6.2-7.085-12.403-.887-5.312 1.773-13.285 4.429-15.941.887 0 1.77-.887 2.656-1.774h1.774l80.609-.886h80.61v4.43h-21.258c-19.488 0-20.375 0-21.262.886-3.543.887-5.316 7.086-4.43 13.285 0 3.547 1.774 7.09 3.543 7.973l.887.887 19.488-.887c13.289 0 19.489.887 19.489.887h3.543v3.543z"/><path d="M738.816-38.898h37.207s-6.203.886-18.601.886c-12.402 0-18.606-.886-18.606-.886m-2.656 5.316v-.887h18.602c15.945 0 17.718 0 17.718.887zm-.887 5.316c0-.886 6.204-.886 18.602-.886 11.516 0 17.719 0 17.719.886zm1.774 4.43h37.203s-6.199.883-18.602.883c-15.945 0-18.601 0-18.601-.883m4.43-16.832h36.316c0 .887-5.313.887-17.715.887s-18.601 0-18.601-.887m-4.43 4.43s7.086-.887 18.601-.887c12.403 0 18.602.887 18.602.887zm-1.774 5.312s7.086-.883 18.602-.883 17.719.883 17.719.883zm.887 5.316v-.886h36.32c0 .887-1.773.887-17.718.887zm2.656 4.43h37.207s-7.089.887-18.601.887c-12.402 0-18.606-.887-18.606-.887"/><path fill="#bf8040" d="m734.387-18.523-.883-.887c-.887-.883-1.774-5.313-2.66-7.973v-5.312c.886-2.657 1.773-6.203 2.66-7.973l.883-.887h-1.77c-1.773 0-1.773 0-2.656.887-.887.887-.887 1.77-1.773 4.43-.887 1.77-.887 2.656-.887 6.199 0 4.43 0 4.43.887 7.086.886 1.773 1.773 2.66 2.656 3.543 0 .887.886.887 1.773.887z"/><path fill="#cb9e71" d="M728.188-18.523c-2.657-5.313-2.657-7.973-2.657-13.286 0-3.543.887-5.316 2.657-7.972v-1.774h-1.77c-1.773 0-1.773 0-2.66.887-1.774 1.77-2.656 5.316-2.656 10.629 0 4.43.882 6.203 1.769 8.86s1.774 2.656 3.547 2.656z"/><path fill="#bf8040" d="M721.984-18.523s0-.887-.882-1.77c-.887-2.66-.887-5.316-.887-9.746s0-7.086 1.769-9.742v-1.774h-85.039l-.882.887s-.887.887-.887 1.77c-.887.886-1.774 6.203-1.774 8.859 0 4.43.887 9.746 2.661 11.516z"/><path fill="#cb9e71" d="M634.289-18.523s-.887-.887-.887-1.77c-.882-1.773-1.769-7.09-1.769-9.746s.887-7.973 1.769-9.742c0-.887.887-1.774.887-1.774h-2.656c-1.774 0-2.656 0-2.656.887-2.661 1.77-3.547 5.316-3.547 10.629 0 5.316 1.773 8.86 3.547 10.629 0 .887.882.887 2.656.887z"/><path fill="#bf8040" d="M626.316-18.523s0-.887-.886-1.77c-.883-2.66-1.77-6.203-1.77-9.746 0-4.43.887-7.086 1.77-9.742.886-.887.886-1.774.886-1.774h-4.429c-2.657.887-4.426 6.203-4.426 11.516 0 5.316 1.769 10.629 4.426 11.516z"/><path fill="#d1d1d1" d="m737.047-44.785 45.176-1.774c-2.657 0-5.317-1.77-7.086-3.543-1.774-1.77-2.657-4.43-2.657-7.086 0-3.542.883-6.199 2.657-7.972 1.769-2.656 4.429-4.43 7.086-4.43l-44.293-.883-5.313 13.285z"/><path d="M680.352-43.016H619.23c-3.542-2.656-6.199-6.199-7.085-12.398-.887-5.316 1.773-13.29 4.429-15.945.887 0 1.77-.887 2.656-1.774h1.774l80.609-.886h80.61v4.43h-21.258c-19.488 0-20.375 0-21.262.886-3.543.887-5.316 7.086-4.43 13.289 0 3.543 1.774 7.086 3.543 7.973l.887.882 19.488-.882c13.289 0 19.489.882 19.489.882h3.543v3.544z"/><path d="M738.816-66.93h37.207s-6.203.883-18.601.883c-12.402 0-18.606-.883-18.606-.883m-2.656 5.313v-.887h18.602c15.945 0 17.718 0 17.718.887zm-.887 5.317c0-.888 6.204-.888 18.602-.888 11.516 0 17.719 0 17.719.887zm1.774 4.43h37.203s-6.199.887-18.602.887c-15.945 0-18.601 0-18.601-.887m4.43-16.832h36.316c0 .887-5.313.887-17.715.887s-18.601 0-18.601-.887m-4.43 4.43s7.086-.887 18.601-.887c12.403 0 18.602.887 18.602.887zm-1.774 5.313s7.086-.884 18.602-.884 17.719.883 17.719.883zm.887 5.317v-.887h36.32c0 .886-1.773.886-17.718.886zm2.656 4.429h37.207s-7.089.887-18.601.887c-12.402 0-18.606-.887-18.606-.887"/><path fill="#40bf40" d="m734.387-46.559-.883-.882c-.887-.887-1.774-5.317-2.66-7.973v-5.316c.886-2.657 1.773-6.2 2.66-7.973l.883-.887h-1.77c-1.773 0-1.773 0-2.656.887-.887.887-.887 1.773-1.773 4.43-.887 1.77-.887 2.656-.887 6.199 0 4.43 0 4.43.887 7.09.886 1.77 1.773 2.656 2.656 3.543 0 .882.886.882 1.773.882z"/><path fill="#71cb71" d="M728.188-46.559c-2.657-5.312-2.657-7.972-2.657-13.285 0-3.543.887-5.316 2.657-7.972v-1.774h-1.77c-1.773 0-1.773 0-2.66.887-1.774 1.773-2.656 5.316-2.656 10.629 0 4.43.882 6.203 1.769 8.86.887 2.655 1.774 2.655 3.547 2.655z"/><path fill="#40bf40" d="M721.984-46.559s0-.882-.882-1.77c-.887-2.655-.887-5.315-.887-9.745s0-7.086 1.769-9.742v-1.774h-85.039l-.882.887s-.887.887-.887 1.773c-.887.883-1.774 6.2-1.774 8.856 0 4.43.887 9.746 2.661 11.515z"/><path fill="#71cb71" d="M634.289-46.559s-.887-.882-.887-1.77c-.882-1.773-1.769-7.085-1.769-9.745 0-2.657.887-7.973 1.769-9.742 0-.887.887-1.774.887-1.774h-2.656c-1.774 0-2.656 0-2.656.887-2.661 1.773-3.547 5.316-3.547 10.629 0 5.316 1.773 8.86 3.547 10.633 0 .882.882.882 2.656.882z"/><path fill="#40bf40" d="M626.316-46.559s0-.882-.886-1.77c-.883-2.655-1.77-6.202-1.77-9.745 0-4.43.887-7.086 1.77-9.742.886-.887.886-1.774.886-1.774h-4.429c-2.657.887-4.426 6.203-4.426 11.516 0 5.316 1.769 10.633 4.426 11.515z"/><path fill="#d1d1d1" d="m737.047-72.82 45.176-1.774c-2.657 0-5.317-1.77-7.086-3.543-1.774-1.77-2.657-4.425-2.657-7.086 0-3.543.883-6.199 2.657-7.972 1.769-2.657 4.429-4.426 7.086-4.426l-44.293-.887-5.313 13.285z"/><path d="M680.352-71.047H619.23c-3.542-2.66-6.199-6.203-7.085-12.402-.887-5.317 1.773-13.29 4.429-15.945.887 0 1.77-.887 2.656-1.774h1.774l80.609-.883h80.61v4.43h-21.258c-19.488 0-20.375 0-21.262.883-3.543.886-5.316 7.086-4.43 13.289 0 3.543 1.774 7.086 3.543 7.972l.887.883 19.488-.883c13.289 0 19.489.883 19.489.883h3.543v3.547z"/><path d="M738.816-94.965h37.207s-6.203.883-18.601.883c-12.402 0-18.606-.883-18.606-.883m-2.656 5.313v-.883h18.602c15.945 0 17.718 0 17.718.883zm-.887 5.316c0-.887 6.204-.887 18.602-.887 11.516 0 17.719 0 17.719.887zm1.774 4.43h37.203s-6.199.887-18.602.887c-15.945 0-18.601 0-18.601-.887m4.43-16.832h36.316c0 .886-5.313.886-17.715.886s-18.601 0-18.601-.886m-4.43 4.429s7.086-.886 18.601-.886c12.403 0 18.602.886 18.602.886zm-1.774 5.317s7.086-.887 18.602-.887 17.719.887 17.719.887zm.887 5.312v-.882h36.32c0 .882-1.773.882-17.718.882zm2.656 4.43h37.207s-7.089.887-18.601.887c-12.402 0-18.606-.887-18.606-.887"/><path fill="#8080bf" d="m734.387-74.594-.883-.883c-.887-.886-1.774-5.316-2.66-7.972v-5.317c.886-2.656 1.773-6.199 2.66-7.972l.883-.883h-1.77c-1.773 0-1.773 0-2.656.883-.887.886-.887 1.773-1.773 4.43-.887 1.773-.887 2.656-.887 6.203 0 4.425 0 4.425.887 7.086.886 1.769 1.773 2.656 2.656 3.542 0 .883.886.883 1.773.883z"/><path fill="#9e9ecb" d="M728.188-74.594c-2.657-5.312-2.657-7.969-2.657-13.285 0-3.543.887-5.316 2.657-7.973v-1.77h-1.77c-1.773 0-1.773 0-2.66.884-1.774 1.773-2.656 5.316-2.656 10.632 0 4.426.882 6.2 1.769 8.856s1.774 2.656 3.547 2.656z"/><path fill="#8080bf" d="M721.984-74.594s0-.883-.882-1.77c-.887-2.655-.887-5.316-.887-9.742 0-4.43 0-7.09 1.769-9.746v-1.77h-85.039l-.882.884s-.887.886-.887 1.773c-.887.883-1.774 6.2-1.774 8.86 0 4.425.887 9.742 2.661 11.511z"/><path fill="#9e9ecb" d="M634.289-74.594s-.887-.883-.887-1.77c-.882-1.773-1.769-7.085-1.769-9.742 0-2.66.887-7.976 1.769-9.746 0-.886.887-1.77.887-1.77h-2.656c-1.774 0-2.656 0-2.656.884-2.661 1.773-3.547 5.316-3.547 10.632 0 5.313 1.773 8.856 3.547 10.63 0 .882.882.882 2.656.882z"/><path fill="#8080bf" d="M626.316-74.594s0-.883-.886-1.77c-.883-2.655-1.77-6.198-1.77-9.742 0-4.43.887-7.09 1.77-9.746.886-.886.886-1.77.886-1.77h-4.429c-2.657.884-4.426 6.2-4.426 11.516 0 5.313 1.769 10.63 4.426 11.512z"/><path fill="#d1d1d1" d="m737.047-100.855 45.176-1.77c-2.657 0-5.317-1.773-7.086-3.547-1.774-1.769-2.657-4.426-2.657-7.086 0-3.543.883-6.199 2.657-7.972 1.769-2.657 4.429-4.426 7.086-4.426l-44.293-.887-5.313 13.285z"/><path d="M680.352-99.082H619.23c-3.542-2.66-6.199-6.203-7.085-12.402-.887-5.317 1.773-13.289 4.429-15.946.887 0 1.77-.886 2.656-1.769h1.774l80.609-.887h80.61v4.43h-21.258c-19.488 0-20.375 0-21.262.883-3.543.886-5.316 7.089-4.43 13.289 0 3.543 1.774 7.086 3.543 7.972l.887.887 19.488-.887c13.289 0 19.489.887 19.489.887h3.543v3.543z"/><path d="M738.816-123h37.207s-6.203.887-18.601.887c-12.402 0-18.606-.887-18.606-.887m-2.656 5.316v-.886h18.602c15.945 0 17.718 0 17.718.886zm-.887 5.313c0-.887 6.204-.887 18.602-.887 11.516 0 17.719 0 17.719.887zm1.774 4.43h37.203s-6.199.886-18.602.886c-15.945 0-18.601 0-18.601-.886"/><path fill="#bf4040" d="m734.387-102.625-.883-.887c-.887-.886-1.774-5.316-2.66-7.972v-5.317c.886-2.656 1.773-6.199 2.66-7.972l.883-.883h-1.77c-1.773 0-1.773 0-2.656.883-.887.886-.887 1.773-1.773 4.429-.887 1.774-.887 2.66-.887 6.203 0 4.426 0 4.426.887 7.086.886 1.77 1.773 2.657 2.656 3.543 0 .887.886.887 1.773.887z"/><path fill="#cb7171" d="M728.188-102.625c-2.657-5.316-2.657-7.973-2.657-13.289 0-3.543.887-5.316 2.657-7.973v-1.769h-1.77c-1.773 0-1.773 0-2.66.883-1.774 1.773-2.656 5.316-2.656 10.632 0 4.426.882 6.2 1.769 8.856.887 2.66 1.774 2.66 3.547 2.66z"/><path fill="#bf4040" d="M721.984-102.625s0-.887-.882-1.773c-.887-2.657-.887-5.317-.887-9.743 0-4.429 0-7.089 1.769-9.746v-1.769h-85.039l-.882.883s-.887.886-.887 1.773c-.887.887-1.774 6.199-1.774 8.859 0 4.426.887 9.743 2.661 11.516z"/><path fill="#cb7171" d="M634.289-102.625s-.887-.887-.887-1.773c-.882-1.774-1.769-7.086-1.769-9.743 0-2.66.887-7.972 1.769-9.746 0-.886.887-1.769.887-1.769h-2.656c-1.774 0-2.656 0-2.656.883-2.661 1.773-3.547 5.316-3.547 10.632 0 5.313 1.773 8.856 3.547 10.629 0 .887.882.887 2.656.887z"/><path fill="#bf4040" d="M626.316-102.625s0-.887-.886-1.773c-.883-2.657-1.77-6.2-1.77-9.743 0-4.429.887-7.089 1.77-9.746.886-.886.886-1.769.886-1.769h-4.429c-2.657.883-4.426 6.199-4.426 11.515 0 5.313 1.769 10.629 4.426 11.516z"/><path fill="#d1d1d1" d="m935.645-16.75 45.175-1.773c-2.656 0-5.312-1.77-7.086-3.543-1.769-1.77-2.656-4.43-2.656-7.086q.001-5.314 2.656-7.973c1.774-2.656 4.43-4.43 7.086-4.43l-44.289-.886-5.316 13.289z"/><path d="M878.953-14.98h-61.125c-3.543-2.657-6.199-6.2-7.086-12.403-.887-5.312 1.774-13.285 4.43-15.941.887 0 1.773-.887 2.656-1.774h1.774l80.609-.886h80.609v4.43h-21.257c-19.489 0-20.375 0-21.262.886-3.543.887-5.313 7.086-4.426 13.285 0 3.547 1.77 7.09 3.543 7.973l.883.887 19.488-.887c13.289 0 19.488.887 19.488.887h3.543v3.543z"/><path d="M937.418-38.898h37.203s-6.199.886-18.601.886c-12.403 0-18.602-.886-18.602-.886m-2.66 5.316v-.887h18.601c15.946 0 17.719 0 17.719.887zm-.883 5.316c0-.886 6.199-.886 18.602-.886 11.515 0 17.714 0 17.714.886zm1.77 4.43h37.203s-6.2.883-18.602.883c-15.945 0-18.601 0-18.601-.883m4.429-16.832h36.321c0 .887-5.317.887-17.719.887s-18.602 0-18.602-.887m-4.429 4.43s7.085-.887 18.601-.887c12.402 0 18.602.887 18.602.887zm-1.77 5.312s7.086-.883 18.602-.883 17.714.883 17.714.883zm.883 5.316v-.886h36.32c0 .887-1.773.887-17.719.887zm2.66 4.43h37.203s-7.086.887-18.601.887c-12.403 0-18.602-.887-18.602-.887"/><path fill="#40bf40" d="m932.988-18.523-.886-.887c-.887-.883-1.774-5.313-2.657-7.973v-5.312c.883-2.657 1.77-6.203 2.657-7.973l.886-.887h-1.773c-1.77 0-1.77 0-2.656.887s-.887 1.77-1.774 4.43c-.887 1.77-.887 2.656-.887 6.199 0 4.43 0 4.43.887 7.086.887 1.773 1.774 2.66 2.66 3.543 0 .887.883.887 1.77.887z"/><path fill="#71cb71" d="M926.785-18.523c-2.656-5.313-2.656-7.973-2.656-13.286 0-3.543.887-5.316 2.656-7.972v-1.774h-1.769c-1.774 0-1.774 0-2.661.887-1.769 1.77-2.656 5.316-2.656 10.629 0 4.43.887 6.203 1.774 8.86.882 2.656 1.769 2.656 3.543 2.656z"/><path fill="#40bf40" d="M920.586-18.523s0-.887-.887-1.77c-.886-2.66-.886-5.316-.886-9.746s0-7.086 1.773-9.742v-1.774h-85.039l-.887.887s-.887.887-.887 1.77c-.882.886-1.769 6.203-1.769 8.859 0 4.43.887 9.746 2.656 11.516z"/><path fill="#71cb71" d="M832.891-18.523s-.887-.887-.887-1.77c-.887-1.773-1.774-7.09-1.774-9.746s.887-7.973 1.774-9.742c0-.887.887-1.774.887-1.774h-2.661c-1.769 0-2.656 0-2.656.887-2.656 1.77-3.543 5.316-3.543 10.629 0 5.316 1.77 8.86 3.543 10.629 0 .887.887.887 2.656.887z"/><path fill="#40bf40" d="M824.918-18.523s0-.887-.887-1.77c-.886-2.66-1.773-6.203-1.773-9.746 0-4.43.887-7.086 1.773-9.742.887-.887.887-1.774.887-1.774h-4.43c-2.66.887-4.429 6.203-4.429 11.516 0 5.316 1.769 10.629 4.429 11.516z"/><path fill="#d1d1d1" d="m935.645-44.785 45.175-1.774c-2.656 0-5.312-1.77-7.086-3.543-1.769-1.77-2.656-4.43-2.656-7.086q.001-5.313 2.656-7.972c1.774-2.656 4.43-4.43 7.086-4.43l-44.289-.883-5.316 13.285z"/><path d="M878.953-43.016h-61.125c-3.543-2.656-6.199-6.199-7.086-12.398-.887-5.316 1.774-13.29 4.43-15.945.887 0 1.773-.887 2.656-1.774h1.774l80.609-.886h80.609v4.43h-21.257c-19.489 0-20.375 0-21.262.886-3.543.887-5.313 7.086-4.426 13.289 0 3.543 1.77 7.086 3.543 7.973l.883.882 19.488-.882c13.289 0 19.488.882 19.488.882h3.543v3.544z"/><path d="M937.418-66.93h37.203s-6.199.883-18.601.883c-12.403 0-18.602-.883-18.602-.883m-2.66 5.313v-.887h18.601c15.946 0 17.719 0 17.719.887zm-.883 5.317c0-.888 6.199-.888 18.602-.888 11.515 0 17.714 0 17.714.887zm1.77 4.43h37.203s-6.2.887-18.602.887c-15.945 0-18.601 0-18.601-.887"/><path fill="#8080bf" d="m932.988-46.559-.886-.882c-.887-.887-1.774-5.317-2.657-7.973v-5.316c.883-2.657 1.77-6.2 2.657-7.973l.886-.887h-1.773c-1.77 0-1.77 0-2.656.887s-.887 1.773-1.774 4.43c-.887 1.77-.887 2.656-.887 6.199 0 4.43 0 4.43.887 7.09.887 1.77 1.774 2.656 2.66 3.543 0 .882.883.882 1.77.882z"/><path fill="#9e9ecb" d="M926.785-46.559c-2.656-5.312-2.656-7.972-2.656-13.285 0-3.543.887-5.316 2.656-7.972v-1.774h-1.769c-1.774 0-1.774 0-2.661.887q-2.655 2.66-2.656 10.629c0 4.43.887 6.203 1.774 8.86.882 2.655 1.769 2.655 3.543 2.655z"/><path fill="#8080bf" d="M920.586-46.559s0-.882-.887-1.77c-.886-2.655-.886-5.315-.886-9.745s0-7.086 1.773-9.742v-1.774h-85.039l-.887.887s-.887.887-.887 1.773c-.882.883-1.769 6.2-1.769 8.856 0 4.43.887 9.746 2.656 11.515z"/><path fill="#9e9ecb" d="M832.891-46.559s-.887-.882-.887-1.77c-.887-1.773-1.774-7.085-1.774-9.745 0-2.657.887-7.973 1.774-9.742 0-.887.887-1.774.887-1.774h-2.661c-1.769 0-2.656 0-2.656.887-2.656 1.773-3.543 5.316-3.543 10.629 0 5.316 1.77 8.86 3.543 10.633 0 .882.887.882 2.656.882z"/><path fill="#8080bf" d="M824.918-46.559s0-.882-.887-1.77c-.886-2.655-1.773-6.202-1.773-9.745 0-4.43.887-7.086 1.773-9.742.887-.887.887-1.774.887-1.774h-4.43c-2.66.887-4.429 6.203-4.429 11.516 0 5.316 1.769 10.633 4.429 11.515z"/><path fill="#d1d1d1" d="m935.645-72.82 45.175-1.774c-2.656 0-5.312-1.77-7.086-3.543-1.769-1.77-2.656-4.425-2.656-7.086q.001-5.314 2.656-7.972c1.774-2.657 4.43-4.426 7.086-4.426l-44.289-.887-5.316 13.285z"/><path d="M878.953-71.047h-61.125c-3.543-2.66-6.199-6.203-7.086-12.402-.887-5.317 1.774-13.29 4.43-15.945.887 0 1.773-.887 2.656-1.774h1.774l80.609-.883h80.609v4.43h-21.257c-19.489 0-20.375 0-21.262.883-3.543.886-5.313 7.086-4.426 13.289 0 3.543 1.77 7.086 3.543 7.972l.883.883 19.488-.883c13.289 0 19.488.883 19.488.883h3.543v3.547z"/><path d="M937.418-94.965h37.203s-6.199.883-18.601.883c-12.403 0-18.602-.883-18.602-.883m-2.66 5.313v-.883h18.601c15.946 0 17.719 0 17.719.883zm-.883 5.316c0-.887 6.199-.887 18.602-.887 11.515 0 17.714 0 17.714.887zm1.77 4.43h37.203s-6.2.887-18.602.887c-15.945 0-18.601 0-18.601-.887"/><path fill="#bf4040" d="m932.988-74.594-.886-.883c-.887-.886-1.774-5.316-2.657-7.972v-5.317c.883-2.656 1.77-6.199 2.657-7.972l.886-.883h-1.773c-1.77 0-1.77 0-2.656.883-.887.886-.887 1.773-1.774 4.43-.887 1.773-.887 2.656-.887 6.203 0 4.425 0 4.425.887 7.086.887 1.769 1.774 2.656 2.66 3.542 0 .883.883.883 1.77.883z"/><path fill="#cb7171" d="M926.785-74.594c-2.656-5.312-2.656-7.969-2.656-13.285 0-3.543.887-5.316 2.656-7.973v-1.77h-1.769c-1.774 0-1.774 0-2.661.884q-2.655 2.659-2.656 10.632c0 4.426.887 6.2 1.774 8.856.882 2.656 1.769 2.656 3.543 2.656z"/><path fill="#bf4040" d="M920.586-74.594s0-.883-.887-1.77c-.886-2.655-.886-5.316-.886-9.742 0-4.43 0-7.09 1.773-9.746v-1.77h-85.039l-.887.884s-.887.886-.887 1.773c-.882.883-1.769 6.2-1.769 8.86 0 4.425.887 9.742 2.656 11.511z"/><path fill="#cb7171" d="M832.891-74.594s-.887-.883-.887-1.77c-.887-1.773-1.774-7.085-1.774-9.742 0-2.66.887-7.976 1.774-9.746 0-.886.887-1.77.887-1.77h-2.661c-1.769 0-2.656 0-2.656.884-2.656 1.773-3.543 5.316-3.543 10.632 0 5.313 1.77 8.856 3.543 10.63 0 .882.887.882 2.656.882z"/><path fill="#bf4040" d="M824.918-74.594s0-.883-.887-1.77c-.886-2.655-1.773-6.198-1.773-9.742 0-4.43.887-7.09 1.773-9.746.887-.886.887-1.77.887-1.77h-4.43c-2.66.884-4.429 6.2-4.429 11.516 0 5.313 1.769 10.63 4.429 11.512z"/><path d="M56.516-30.078c.593-.324 1.254-.879 1.703-1.254 1.074-.934 1.468-1.219 2.148-1.488-.07.11-.09.25-.09.375 0 .484.414.574.59.574.574 0 .899-.535.899-.879 0-.105-.035-.57-.664-.57-1.075 0-2.133.914-2.922 1.574-1.04.914-1.555 1.308-2.29 1.543l.68-2.852c0-.285-.234-.445-.468-.445-.16 0-.555.055-.696.625l-1.668 6.648c-.05.215-.05.25-.05.36 0 .25.195.445.464.445.535 0 .645-.465.735-.84.105-.379.84-3.37.879-3.476 2.273.105 3.043.68 3.043 1.558 0 .125 0 .18-.055.375-.07.344-.07.54-.07.649 0 1.07.699 1.734 1.574 1.734.738 0 1.148-.52 1.418-.984.375-.7.61-1.684.61-1.758 0-.086-.075-.16-.18-.16-.16 0-.18.074-.25.36-.235.858-.63 2.183-1.544 2.183-.39 0-.59-.23-.59-.86 0-.34.071-.734.145-1 .035-.18.09-.394.09-.593 0-1.63-2.258-1.79-3.441-1.844m10.101 0c.59-.324 1.254-.879 1.7-1.254 1.074-.934 1.472-1.219 2.152-1.488a.67.67 0 0 0-.09.375c0 .484.41.574.59.574.574 0 .898-.535.898-.879 0-.105-.039-.57-.664-.57-1.078 0-2.133.914-2.922 1.574-1.039.914-1.558 1.308-2.293 1.543l.684-2.852c0-.285-.234-.445-.469-.445-.16 0-.555.055-.7.625l-1.663 6.648c-.055.215-.055.25-.055.36 0 .25.2.445.465.445.54 0 .644-.465.734-.84.11-.379.844-3.37.88-3.476 2.277.105 3.046.68 3.046 1.558 0 .125 0 .18-.054.375-.075.344-.075.54-.075.649 0 1.07.703 1.734 1.578 1.734.735 0 1.149-.52 1.414-.984.38-.7.61-1.684.61-1.758 0-.086-.07-.16-.18-.16-.16 0-.176.074-.25.36-.23.858-.625 2.183-1.539 2.183-.395 0-.594-.23-.594-.86 0-.34.075-.734.145-1 .035-.18.09-.394.09-.593 0-1.63-2.258-1.79-3.438-1.844m11.496.41c.27 0 .575 0 .575-.285 0-.235-.18-.235-.504-.235H75.28c.45-1.628 1.508-2.613 3.102-2.613h.52c.304 0 .574 0 .574-.289 0-.23-.2-.23-.524-.23h-.61c-2.202 0-4.62 1.754-4.62 4.566 0 1.988 1.343 3.332 3.117 3.332 1.148 0 2.277-.715 2.277-.894 0-.106-.055-.215-.164-.215-.05 0-.086.015-.176.09-.683.449-1.343.66-1.883.66-.949 0-1.953-.625-1.953-2.364 0-.34.036-.804.2-1.523zm6.527-2.684h2.024c-.484 2.004-.789 3.313-.789 4.746 0 .25 0 2.184.734 2.184.38 0 .7-.34.7-.644 0-.09 0-.125-.125-.395-.485-1.234-.485-2.773-.485-2.902 0-.106 0-1.38.38-2.989h2.003c.234 0 .824 0 .824-.574 0-.394-.34-.394-.664-.394h-5.89c-.415 0-1.024 0-1.848.875-.465.523-1.04 1.468-1.04 1.578s.09.144.2.144c.125 0 .14-.054.23-.16.934-1.469 1.864-1.469 2.313-1.469h1.02c-.391 1.34-.84 2.899-2.309 6.036-.145.285-.145.324-.145.43 0 .374.32.464.485.464.52 0 .664-.465.875-1.219.289-.914.289-.949.469-1.664zm9.344 5.875c-1.054-.414-1.664-1.218-1.664-2.562 0-2.453 1.809-5.734 4.012-7.004.324.305.734.305 1.074.305.45 0 1.543 0 1.543-.52 0-.43-.808-.449-1.379-.449-.36 0-.664 0-1.129.2a1.75 1.75 0 0 1-.16-.755c0-.324.07-.574.07-.629 0-.105-.09-.18-.18-.18-.288 0-.288.665-.288.81 0 .16 0 .534.219.913-2.079 1.075-4.696 4.426-4.696 7.774 0 2.457 1.63 3.027 2.563 3.351.234.07.804.27 1.039.356.734.254 1.433.484 1.433 1.344 0 .52-.379 1.218-1.039 1.218-.359 0-.843-.125-1.293-.57-.07-.074-.105-.11-.195-.11-.145 0-.18.145-.18.18 0 .18.77.86 1.668.86 1.145 0 1.934-1.2 1.934-2.133 0-1.254-1.04-1.61-1.703-1.828zm2.743-9.746c.27-.125.52-.125.824-.125.574 0 .629.016.984.106-.215.09-.355.144-1.11.144-.374 0-.503 0-.698-.125m8.117 3.871h2.972c.231 0 .825 0 .825-.574 0-.394-.344-.394-.664-.394h-4.926c-.414 0-1.02 0-1.848.875-.465.523-1.039 1.468-1.039 1.578s.09.144.199.144c.125 0 .145-.054.231-.16.933-1.469 1.867-1.469 2.312-1.469h1.489l-1.864 6.141c-.09.27-.09.305-.09.36 0 .199.125.449.485.449.554 0 .644-.485.695-.754zM72.281-56.164c0-.086-.074-.16-.18-.16-.144 0-.18.074-.234.234-.574 1.738-2.023 2.309-2.777 2.309-.215 0-.484-.035-.484-.59 0-.43.199-.965.288-1.219.895-2.433 1.575-5.32 1.575-5.465 0-.285-.235-.445-.465-.445a.69.69 0 0 0-.645.465c-.125.34-.304 1.2-.414 1.543-.015.07-.464 1.699-.535 1.914-.125.469-.11.324-.234.773-.16.625-.574 1.325-.574 1.934 0 .7.449 1.45 1.453 1.45 1.988 0 3.226-2.15 3.226-2.743m8.938-9.438c0-.02.074-.25.074-.27 0-.16-.145-.16-.2-.16-.16 0-.179.087-.25.356l-2.956 11.86c-1.485-.176-2.043-.93-2.043-2.004 0-.395 0-.809.844-3.028.234-.644.32-.879.32-1.203 0-.804-.57-1.449-1.414-1.449-1.649 0-2.309 2.598-2.309 2.742 0 .07.07.16.196.16.16 0 .18-.074.25-.324.43-1.559 1.148-2.219 1.808-2.219.164 0 .469.016.469.59 0 .07 0 .465-.305 1.254-.969 2.543-.969 2.938-.969 3.352 0 1.718 1.434 2.383 3.047 2.508-.144.554-.27 1.128-.414 1.683-.285 1.074-.41 1.574-.41 1.648 0 .16.145.16.195.16.035 0 .11 0 .145-.07.07-.074.805-3.082.879-3.406.66 0 2.078 0 3.691-1.664.59-.645 1.125-1.469 1.43-2.242.18-.465.61-2.059.61-2.973 0-1.074-.536-1.199-.716-1.199-.43 0-.824.43-.824.79 0 .214.125.339.195.41.165.16.645.644.645 1.577 0 .645-.355 1.97-1.504 3.262-1.504 1.68-2.883 1.68-3.422 1.68zm12.679 5.25c.235 0 .829 0 .829-.574 0-.394-.344-.394-.665-.394h-3.96c-2.688 0-4.621 2.992-4.621 5.105 0 1.524.984 2.793 2.597 2.793 2.113 0 4.426-2.273 4.426-4.96 0-.7-.16-1.38-.59-1.97zm-5.8 6.57c-.914 0-1.579-.695-1.579-1.933 0-1.074.645-4.637 3.278-4.637.773 0 1.633.375 1.633 1.754 0 .625-.29 2.133-.914 3.172-.645 1.055-1.614 1.645-2.418 1.645M69.086-82.477c-1.055-.414-1.664-1.218-1.664-2.562 0-2.453 1.809-5.734 4.012-7.004.32.305.734.305 1.074.305.449 0 1.539 0 1.539-.52 0-.43-.805-.449-1.379-.449-.356 0-.66 0-1.129.2a1.8 1.8 0 0 1-.16-.755c0-.324.07-.574.07-.629a.18.18 0 0 0-.176-.18c-.289 0-.289.665-.289.81 0 .16 0 .534.215.913-2.078 1.075-4.691 4.426-4.691 7.774 0 2.457 1.629 3.027 2.562 3.351.23.07.805.27 1.04.356.734.254 1.43.484 1.43 1.344 0 .52-.376 1.218-1.04 1.218-.36 0-.84-.125-1.29-.57-.07-.074-.108-.11-.194-.11-.145 0-.18.145-.18.18 0 .18.77.86 1.664.86 1.148 0 1.938-1.2 1.938-2.133 0-1.254-1.04-1.61-1.704-1.828zm2.742-9.746c.266-.125.52-.125.824-.125.57 0 .625.016.985.106-.215.09-.36.144-1.114.144-.375 0-.5 0-.695-.125m8.406-.539c-.445-1.27-1.863-1.27-2.093-1.27-.11 0-.305 0-.305.18 0 .141.105.16.195.176.27.035.485.074.774.594.175.34 2.023 5.695 2.023 5.73 0 .02-.02.04-.164.18l-4.656 4.711c-.215.215-.36.36-.36.594 0 .25.215.465.504.465.07 0 .27-.035.375-.145.285-.27 2.848-3.402 4.48-5.336.466 1.395 1.04 3.043 1.595 4.547.09.27.18.52.43.754.179.16.214.16.714.16h.34c.074 0 .2 0 .2-.14 0-.075-.02-.09-.09-.165-.16-.195-.29-.52-.36-.734zm13.063 6.629c0-1.738-.988-3.367-2.887-3.367-2.347 0-4.691 2.563-4.691 5.106 0 1.558.965 2.972 2.793 2.972 1.11 0 2.437-.43 3.707-1.504.25 1.004.808 1.504 1.578 1.504.969 0 1.45-1 1.45-1.234 0-.164-.126-.164-.177-.164-.144 0-.164.054-.218.199-.16.45-.57.84-1 .84-.555 0-.555-1.145-.555-2.238 1.824-2.184 2.254-4.442 2.254-4.462 0-.16-.145-.16-.195-.16-.16 0-.18.055-.25.375-.235.79-.7 2.188-1.81 3.657zm-1.133 2.777c-1.574 1.415-2.992 1.575-3.617 1.575-1.274 0-1.629-1.125-1.629-1.969 0-.77.394-2.598.95-3.582.734-1.254 1.738-1.809 2.542-1.809 1.738 0 1.738 2.274 1.738 3.778 0 .449-.02.914-.02 1.363 0 .36.02.445.036.644m174.539 45.485c0-.16-.125-.16-.18-.16-.16 0-.179.035-.25.34l-.968 3.851c-.051.23-.071.25-.086.27-.02.035-.145.05-.18.05-2.937.254-5.195 2.672-5.195 4.91 0 1.934 1.484 3.118 3.347 3.227-.144.555-.269 1.125-.41 1.68-.25.953-.394 1.543-.394 1.613 0 .035 0 .145.179.145.051 0 .125 0 .161-.07.035-.04.144-.47.214-.7l.664-2.668c3.063-.164 5.391-2.672 5.391-4.93 0-1.808-1.363-3.097-3.348-3.222zm-1.164 4.691c1.184.075 2.363.735 2.363 2.492 0 2.024-1.414 4.711-4.207 4.926zm-2.258 7.438c-.879-.055-2.347-.52-2.347-2.492 0-2.258 1.632-4.766 4.211-4.926zM278.57-32.3c0-1.09-.554-1.2-.715-1.2-.429 0-.824.43-.824.79 0 .214.125.339.215.41.16.16.625.644.625 1.577 0 1.2-1.449 4.942-3.742 4.942-.106 0-.824 0-1.289-.446-.324-.34-.449-.789-.449-1.308 0-.7.214-1.559.914-3.367.215-.59.304-.825.304-1.164 0-.754-.539-1.434-1.414-1.434-1.648 0-2.312 2.598-2.312 2.742 0 .07.07.16.199.16.16 0 .176-.074.25-.324.449-1.574 1.145-2.219 1.809-2.219.179 0 .464.016.464.59 0 .09 0 .465-.304 1.254-1.004 2.633-1.004 3.102-1.004 3.567 0 1.789 1.453 2.308 2.777 2.308 1.489 0 2.457-1.234 2.922-1.914 1.27-1.867 1.574-4.39 1.574-4.965m7.703 4.516c-.039-.88-.074-2.258-.753-3.871-.36-.895-.969-1.844-2.278-1.844-2.203 0-3.402 2.813-3.402 3.277 0 .16.125.16.18.16.16 0 .16-.035.25-.265.378-1.113 1.523-1.992 2.761-1.992 2.489 0 2.848 2.78 2.848 4.554 0 1.125-.125 1.504-.234 1.86-.34 1.113-.93 3.336-.93 3.836 0 .14.051.304.195.304.27 0 .43-.593.629-1.308.43-1.574.535-2.363.625-3.082.055-.43 1.074-3.383 2.492-6.196.125-.289.375-.773.375-.828 0-.015-.019-.14-.179-.14-.036 0-.125 0-.161.07-.035.035-.664 1.254-1.199 2.473-.269.609-.629 1.414-1.219 2.992m12.426-4.567c.235 0 .824 0 .824-.574 0-.394-.339-.394-.66-.394h-3.961c-2.687 0-4.621 2.992-4.621 5.105 0 1.524.985 2.793 2.598 2.793 2.113 0 4.426-2.273 4.426-4.96 0-.7-.164-1.38-.59-1.97zm-5.801 6.57c-.914 0-1.578-.695-1.578-1.933 0-1.074.645-4.637 3.278-4.637.769 0 1.629.375 1.629 1.754 0 .625-.286 2.133-.914 3.172-.641 1.055-1.61 1.645-2.415 1.645m-37.261-38.981c-.449-1.27-1.864-1.27-2.098-1.27-.105 0-.305 0-.305.18 0 .141.11.16.2.176.269.035.48.074.769.594.18.34 2.024 5.695 2.024 5.73 0 .02-.016.04-.161.18l-4.66 4.711c-.215.215-.355.36-.355.594 0 .25.215.465.5.465.07 0 .269-.035.375-.145.289-.27 2.847-3.402 4.48-5.336A159 159 0 0 0 258-54.336c.09.27.18.52.43.754.179.16.215.16.718.16h.34c.071 0 .196 0 .196-.14 0-.075-.016-.09-.09-.165-.16-.195-.285-.52-.36-.734zm13.836 4.462c0-1.09-.555-1.2-.715-1.2-.43 0-.828.43-.828.79 0 .214.129.339.218.41.161.16.625.644.625 1.577 0 1.2-1.453 4.942-3.742 4.942-.109 0-.828 0-1.293-.446-.32-.34-.445-.789-.445-1.308 0-.7.215-1.559.91-3.367.219-.59.305-.825.305-1.164 0-.754-.535-1.434-1.414-1.434-1.649 0-2.309 2.598-2.309 2.742 0 .07.07.16.195.16.161 0 .18-.074.25-.324.45-1.574 1.149-2.219 1.809-2.219.18 0 .469.016.469.59 0 .09 0 .465-.305 1.254-1.004 2.633-1.004 3.102-1.004 3.566 0 1.79 1.449 2.31 2.778 2.31 1.488 0 2.453-1.235 2.918-1.915 1.273-1.867 1.578-4.39 1.578-4.965m6.84 3.817c-.485-1.489-.375-1.344-.825-2.598-.554-1.54-.699-1.668-.949-1.918-.324-.285-.934-.5-1.559-.5-1.003 0-1.488.93-1.488 1.164 0 .11.09.16.199.16.141 0 .176-.09.196-.16.269-.7.824-.805.984-.805.52 0 1.024 1.29 1.344 2.149.43 1.094.644 1.844 1.129 3.582l-4.227 4.8c-.164.2-.164.27-.164.29 0 .14.094.18.164.18s.125-.04.18-.09c.5-.504 1.609-1.829 2.074-2.368l2.082-2.363c.875 2.758.875 2.793 1.145 3.457.285.68.664 1.559 2.187 1.559 1.02 0 1.485-.914 1.485-1.164 0-.125-.106-.16-.196-.16-.144 0-.16.07-.215.214-.195.5-.664.75-.949.75-.234 0-.519 0-1.308-1.988-.465-1.2-.879-2.633-1.184-3.742l4.246-4.84c.145-.16.164-.18.164-.25 0-.125-.09-.18-.18-.18-.054 0-.109 0-.289.2zm13.382-1.649c0-1.738-.984-3.367-2.882-3.367-2.348 0-4.696 2.563-4.696 5.105 0 1.56.969 2.973 2.793 2.973 1.113 0 2.438-.43 3.711-1.504.25 1.004.805 1.504 1.574 1.504.969 0 1.453-1 1.453-1.234 0-.164-.125-.164-.179-.164-.145 0-.164.054-.215.199-.16.45-.574.84-1.004.84-.555 0-.555-1.145-.555-2.239 1.828-2.183 2.258-4.44 2.258-4.46 0-.16-.144-.16-.199-.16-.16 0-.18.054-.25.374-.234.79-.699 2.188-1.809 3.657zm-1.129 2.778c-1.578 1.414-2.992 1.574-3.621 1.574-1.269 0-1.629-1.125-1.629-1.969 0-.77.395-2.598.95-3.582.738-1.254 1.738-1.809 2.547-1.809 1.734 0 1.734 2.274 1.734 3.778 0 .449-.016.914-.016 1.363 0 .36.016.445.035.645m9.813-.809c0-.086-.07-.16-.18-.16-.144 0-.179.074-.23.234-.574 1.738-2.028 2.309-2.778 2.309-.214 0-.484-.035-.484-.59 0-.43.195-.965.285-1.219.899-2.433 1.578-5.32 1.578-5.465 0-.285-.234-.445-.468-.445a.68.68 0 0 0-.641.465c-.129.34-.305 1.2-.414 1.543a80 80 0 0 1-.539 1.914c-.125.469-.106.324-.231.773-.16.625-.574 1.325-.574 1.934 0 .7.449 1.45 1.453 1.45 1.985 0 3.223-2.15 3.223-2.743m6.059-8.598c-.45-1.27-1.868-1.27-2.098-1.27-.106 0-.305 0-.305.18 0 .141.106.16.199.176.27.035.481.074.77.594.176.34 2.023 5.695 2.023 5.73 0 .02-.019.04-.16.18l-4.66 4.711c-.215.215-.355.36-.355.594 0 .25.211.465.5.465.07 0 .269-.035.375-.145.289-.27 2.847-3.402 4.48-5.336a159 159 0 0 0 1.594 4.547c.09.27.179.52.429.754.18.16.215.16.715.16h.344c.07 0 .195 0 .195-.14 0-.075-.015-.09-.089-.165-.161-.195-.286-.52-.36-.734zM258.273-88.3c0-1.09-.554-1.2-.718-1.2-.426 0-.825.43-.825.79 0 .214.129.339.215.41.164.16.629.644.629 1.577 0 1.2-1.453 4.942-3.746 4.942-.105 0-.824 0-1.289-.446-.32-.34-.445-.789-.445-1.308 0-.7.211-1.559.91-3.367.215-.59.305-.825.305-1.164 0-.754-.536-1.434-1.414-1.434-1.649 0-2.309 2.598-2.309 2.742 0 .07.07.16.195.16.16 0 .18-.074.25-.324.449-1.574 1.149-2.219 1.809-2.219.18 0 .465.016.465.59 0 .09 0 .465-.301 1.254-1.008 2.633-1.008 3.102-1.008 3.566 0 1.79 1.453 2.31 2.777 2.31 1.489 0 2.457-1.235 2.922-1.915 1.274-1.867 1.578-4.39 1.578-4.965m9.348-5.301c0-.02.07-.25.07-.27 0-.16-.144-.16-.195-.16-.164 0-.18.087-.254.356l-2.953 11.86c-1.488-.176-2.043-.93-2.043-2.004 0-.395 0-.809.844-3.028.23-.644.32-.879.32-1.203 0-.805-.574-1.449-1.414-1.449-1.648 0-2.312 2.598-2.312 2.742 0 .07.07.16.199.16.16 0 .176-.074.25-.324.43-1.559 1.144-2.219 1.808-2.219.161 0 .465.016.465.59 0 .07 0 .465-.304 1.254-.969 2.543-.969 2.938-.969 3.352 0 1.718 1.437 2.382 3.047 2.507-.141.555-.27 1.13-.41 1.684-.29 1.074-.415 1.574-.415 1.648 0 .16.145.16.2.16.035 0 .105 0 .14-.07.075-.074.809-3.082.879-3.406.664 0 2.078 0 3.692-1.664.589-.645 1.129-1.469 1.433-2.242.18-.465.61-2.059.61-2.973 0-1.074-.539-1.199-.719-1.199-.43 0-.824.43-.824.79 0 .214.125.339.199.41.16.16.644.644.644 1.577 0 .645-.359 1.97-1.507 3.262-1.504 1.68-2.883 1.68-3.422 1.68zm7.621 4.282c0-.07-.054-.18-.199-.18-.125 0-1.809.16-2.078.18-.195.015-.375.035-.375.36 0 .175.144.175.394.175.844 0 .895.129.895.324 0 .07-.035.285-.051.36l-1.578 6.32c0 .074.055.18.18.18h.375c.25 0 2.972-.645 5.07-2.793 2.313-2.383 2.633-4.587 2.633-4.66 0-.286-.235-.446-.465-.446-.52 0-.645.484-.684.61-1.054 3.742-3.507 5.964-5.89 6.753zm9.797 0c0-.07-.051-.18-.195-.18-.125 0-1.809.16-2.078.18-.196.015-.375.035-.375.36 0 .175.14.175.394.175.844 0 .895.129.895.324 0 .07-.035.285-.051.36l-1.578 6.32c0 .074.051.18.176.18h.378c.25 0 2.973-.645 5.071-2.793 2.308-2.383 2.633-4.587 2.633-4.66 0-.286-.235-.446-.465-.446-.52 0-.649.484-.684.61-1.055 3.742-3.512 5.964-5.894 6.753zm15.031 1.02c0-1.09-.554-1.2-.715-1.2-.429 0-.824.43-.824.79 0 .214.125.339.215.41.16.16.625.644.625 1.577 0 1.2-1.449 4.942-3.742 4.942-.106 0-.824 0-1.289-.446-.324-.34-.449-.789-.449-1.308 0-.7.214-1.559.914-3.367.215-.59.304-.825.304-1.164 0-.754-.539-1.434-1.414-1.434-1.648 0-2.312 2.598-2.312 2.742 0 .07.07.16.199.16.16 0 .176-.074.25-.324.449-1.574 1.145-2.219 1.809-2.219.179 0 .464.016.464.59 0 .09 0 .465-.304 1.254-1.004 2.633-1.004 3.102-1.004 3.566 0 1.79 1.453 2.31 2.777 2.31 1.489 0 2.457-1.235 2.922-1.915 1.27-1.867 1.574-4.39 1.574-4.965m1.485 9.801c-.016.09-.051.195-.051.305 0 .265.215.445.48.445.27 0 .52-.18.629-.43.071-.16.575-2.308 1.145-4.511.359.894 1.023 1.27 1.719 1.27 2.027 0 4.32-2.509 4.32-5.212 0-1.918-1.164-2.867-2.402-2.867-1.575 0-3.493 1.629-4.082 4.012zm3.906-3.281c-1.219 0-1.523-1.414-1.523-1.63 0-.105.449-1.808.5-2.077.914-3.567 2.671-3.653 2.941-3.653.805 0 1.254.735 1.254 1.79 0 .913-.485 2.687-.789 3.44-.539 1.235-1.469 2.13-2.383 2.13m-39.227-36.93c0-1.828-.57-3.602-2.039-3.602-2.507 0-5.179 5.25-5.179 9.192 0 .824.179 3.601 2.062 3.601 2.434 0 5.156-5.125 5.156-9.191m-5.425 2.527c.269-1.058.644-2.562 1.363-3.836.59-1.074 1.215-1.933 2.004-1.933.59 0 .984.5.984 2.219 0 .644-.051 1.543-.57 3.55zm3.656.536c-.449 1.757-.824 2.882-1.473 4.015-.519.91-1.144 1.754-1.898 1.754-.555 0-1-.43-1-2.203 0-1.164.285-2.383.57-3.566zm7.191-1.864c-2.293.555-3.937 2.938-3.937 5.035 0 1.918 1.289 2.993 2.719 2.993 2.117 0 3.55-2.903 3.55-5.286 0-1.613-.754-2.597-1.203-3.191-.664-.84-1.738-2.219-1.738-3.078 0-.305.234-.844 1.023-.844.555 0 .895.199 1.434.504.16.106.574.34.805.34.379 0 .644-.375.644-.664 0-.34-.265-.395-.894-.539-.84-.176-1.094-.176-1.399-.176s-2.058 0-2.058 1.824c0 .879.445 1.899 1.054 3.082m.199.34c.68 1.418.95 1.953.95 3.117 0 1.399-.754 4.211-2.348 4.211-.699 0-1.699-.465-1.699-2.133 0-1.164.66-4.546 3.097-5.195m7.032 6.594c-1.059-.414-1.668-1.219-1.668-2.563 0-2.453 1.812-5.73 4.015-7.004.321.305.735.305 1.075.305.449 0 1.539 0 1.539-.519 0-.43-.805-.45-1.379-.45-.36 0-.664 0-1.129.2a1.8 1.8 0 0 1-.16-.754c0-.321.07-.575.07-.625a.18.18 0 0 0-.18-.18c-.285 0-.285.66-.285.805 0 .16 0 .539.215.914-2.078 1.078-4.695 4.426-4.695 7.777 0 2.453 1.633 3.024 2.562 3.348.235.07.805.269 1.039.359.735.25 1.434.485 1.434 1.344 0 .519-.375 1.219-1.039 1.219-.36 0-.84-.129-1.289-.575-.074-.07-.11-.109-.199-.109-.141 0-.18.145-.18.18 0 .179.773.859 1.668.859 1.148 0 1.933-1.199 1.933-2.129 0-1.254-1.039-1.613-1.699-1.828zm2.742-9.746c.266-.125.519-.125.824-.125.57 0 .625.019.985.109-.215.086-.36.141-1.114.141-.375 0-.5 0-.695-.125m8.086 6.558c.265 0 .57 0 .57-.289 0-.23-.176-.23-.5-.23h-2.902c.449-1.633 1.504-2.617 3.097-2.617h.524c.301 0 .57 0 .57-.286 0-.234-.195-.234-.519-.234h-.61c-2.203 0-4.621 1.758-4.621 4.57 0 1.989 1.344 3.332 3.117 3.332 1.149 0 2.278-.718 2.278-.898 0-.105-.055-.215-.164-.215-.051 0-.09.02-.176.09-.684.449-1.348.664-1.883.664-.949 0-1.953-.629-1.953-2.363 0-.344.035-.809.195-1.524zm10.394-.898c.09-.356.145-.57.145-1.055 0-1.074-.625-1.883-1.988-1.883-1.594 0-2.438 1.129-2.762 1.579-.051-1.024-.785-1.579-1.574-1.579-.52 0-.934.25-1.274.934-.32.645-.57 1.738-.57 1.809s.07.16.195.16c.141 0 .16-.016.27-.43.269-1.055.605-2.113 1.324-2.113.414 0 .555.285.555.824 0 .395-.176 1.094-.301 1.648l-.504 1.934c-.07.34-.27 1.148-.359 1.469-.125.469-.321 1.308-.321 1.398 0 .25.196.449.465.449a.69.69 0 0 0 .61-.378c.035-.086.195-.715.285-1.075l.394-1.613.59-2.363c.039-.106.484-1.004 1.149-1.574a2.58 2.58 0 0 1 1.773-.719c.715 0 .969.539.969 1.254 0 .519-.075.808-.164 1.144l-2.078 8.242c-.016.09-.055.2-.055.305 0 .27.219.449.484.449.164 0 .539-.074.684-.609zm-31.375-34.195c-.445-1.274-1.863-1.274-2.093-1.274-.11 0-.305 0-.305.18 0 .14.105.16.195.18.27.035.485.07.774.589.175.34 2.023 5.7 2.023 5.735 0 .015-.019.035-.164.176l-4.656 4.714c-.215.215-.36.356-.36.59 0 .25.215.465.504.465.071 0 .27-.035.375-.144.286-.266 2.848-3.403 4.481-5.336a160 160 0 0 0 1.594 4.55c.089.27.179.52.429.75.18.164.215.164.715.164h.344c.07 0 .195 0 .195-.144 0-.07-.019-.09-.09-.16-.16-.199-.289-.52-.359-.735zm10.579 8.273c-.485-1.484-.375-1.344-.825-2.594-.554-1.543-.699-1.668-.949-1.918-.324-.289-.934-.504-1.559-.504-1.003 0-1.488.934-1.488 1.164 0 .11.09.165.199.165.141 0 .176-.09.196-.165.269-.695.824-.804.984-.804.52 0 1.024 1.289 1.344 2.148.43 1.094.644 1.848 1.129 3.586l-4.227 4.801c-.164.195-.164.269-.164.285 0 .145.094.18.164.18s.125-.035.18-.09c.5-.504 1.609-1.828 2.074-2.363l2.082-2.368c.875 2.758.875 2.797 1.145 3.458.285.683.664 1.558 2.187 1.558 1.02 0 1.485-.914 1.485-1.164 0-.125-.106-.16-.196-.16-.144 0-.16.07-.215.215-.195.5-.664.754-.949.754-.234 0-.519 0-1.308-1.989-.465-1.203-.879-2.632-1.184-3.746l4.246-4.836c.145-.16.164-.179.164-.25 0-.129-.09-.179-.18-.179-.054 0-.109 0-.289.195zm15.726-3.852c0-.519-.141-1.179-.769-1.179-.356 0-.77.445-.77.804 0 .161.07.27.215.43.269.305.609.789.609 1.629 0 .645-.394 1.668-.679 2.223-.504.984-1.325 1.828-2.258 1.828-1.129 0-1.559-.719-1.754-1.719.195-.469.609-1.633.609-2.098 0-.195-.074-.359-.304-.359a.45.45 0 0 0-.36.215c-.25.394-.484 1.812-.469 2.187-.336.664-1.304 1.774-2.453 1.774-1.199 0-1.523-1.059-1.523-2.078 0-1.864 1.164-3.492 1.488-3.942.18-.269.305-.449.305-.484 0-.125-.071-.32-.231-.32-.289 0-.379.23-.523.445-.914 1.418-1.555 3.406-1.555 5.125 0 1.109.41 2.437 1.754 2.437 1.488 0 2.418-1.273 2.793-1.953.145 1.004.68 1.953 1.988 1.953 1.364 0 2.223-1.203 2.868-2.652.464-1.039 1.019-3.277 1.019-4.266M459.973-27.785c-.035-.88-.075-2.258-.754-3.871-.36-.895-.965-1.844-2.274-1.844-2.203 0-3.402 2.813-3.402 3.277 0 .16.125.16.176.16.164 0 .164-.035.25-.265.379-1.113 1.523-1.992 2.761-1.992 2.489 0 2.848 2.78 2.848 4.554 0 1.125-.125 1.504-.234 1.86-.34 1.113-.93 3.336-.93 3.836 0 .14.055.304.195.304.27 0 .434-.593.629-1.308.43-1.574.535-2.363.625-3.082.055-.43 1.075-3.383 2.492-6.196.125-.289.375-.773.375-.828 0-.015-.015-.14-.179-.14-.035 0-.125 0-.16.07-.036.035-.664 1.254-1.2 2.473-.269.609-.628 1.414-1.218 2.992m5.906 1.793c.449.41 1.113.57 1.723.57 1.144 0 1.933-.77 2.343-1.324.18.95.934 1.324 1.559 1.324q.808.001 1.293-.965c.285-.61.535-1.703.535-1.777 0-.086-.07-.16-.18-.16-.16 0-.179.09-.25.36-.269 1.058-.609 2.183-1.343 2.183-.52 0-.555-.465-.555-.82 0-.415.16-1.06.289-1.594l.5-1.938c.07-.34.27-1.148.355-1.469.11-.43.305-1.199.305-1.273 0-.266-.215-.445-.484-.445-.16 0-.535.07-.676.61l-1.258 4.98c-.09.355-.09.394-.32.68-.219.304-.914 1.269-2.043 1.269-1.004 0-1.328-.735-1.328-1.575 0-.519.164-1.144.234-1.449l.805-3.226c.09-.34.234-.914.234-1.024 0-.285-.234-.445-.465-.445-.16 0-.554.055-.699.625L463.855-22.5c-.015.09-.054.195-.054.305 0 .265.215.445.484.445.52 0 .629-.41.754-.914zm13.457-10.77c-.449-1.27-1.863-1.27-2.098-1.27-.105 0-.304 0-.304.18 0 .141.109.16.199.176.269.035.484.074.769.594.18.34 2.024 5.695 2.024 5.73 0 .02-.016.04-.16.18l-4.657 4.711c-.218.215-.359.36-.359.594 0 .25.215.465.504.465.07 0 .266-.035.375-.145.285-.27 2.848-3.402 4.476-5.336.465 1.395 1.04 3.043 1.594 4.547.094.27.18.52.43.754.18.16.215.16.719.16h.34c.07 0 .195 0 .195-.14 0-.075-.016-.09-.086-.165-.164-.195-.289-.52-.359-.734zm13.863 4.41c.235 0 .824 0 .824-.574 0-.394-.339-.394-.66-.394h-3.961c-2.687 0-4.621 2.992-4.621 5.105 0 1.524.985 2.793 2.598 2.793 2.113 0 4.426-2.273 4.426-4.96 0-.7-.164-1.38-.59-1.97zm-5.801 6.57c-.914 0-1.578-.695-1.578-1.933 0-1.074.645-4.637 3.278-4.637.769 0 1.629.375 1.629 1.754 0 .625-.286 2.133-.914 3.172-.641 1.055-1.61 1.645-2.415 1.645m11.977.269-1.879-.75c-.465-.18-1.543-.61-1.543-1.683 0-1.543 1.883-3.102 2.258-3.102.035 0 .195.035.254.055.48.144.945.144 1.269.144.555 0 1.614 0 1.614-.52 0-.394-.645-.448-1.418-.448-.356 0-.84 0-1.485.214-.429-.359-.609-.93-.609-1.468 0-.985.644-2.383 2.059-3.047.324.379.753.379 1.128.379.45 0 1.54 0 1.54-.52 0-.449-.86-.449-1.43-.449-.36 0-.629 0-1.129.09-.09-.215-.109-.25-.109-.645 0-.324.074-.574.074-.629 0-.105-.09-.18-.18-.18-.285 0-.285.665-.285.81 0 .25.016.5.125.734-2.152.625-3.102 2.148-3.102 3.312 0 1.074.715 1.668 1.2 1.934-1.844 1.008-2.633 2.832-2.633 3.8 0 1.56 1.414 2.114 2.062 2.383l1.61.645c.449.16 1.183.465 1.308.539.18.125.324.34.324.625 0 .375-.289.984-.914.984-.269 0-.863-.07-1.507-.554-.125-.11-.141-.125-.211-.125-.094 0-.18.07-.18.18 0 .195.93.859 1.898.859 1.145 0 1.844-1.11 1.844-1.883 0-.555-.305-1-.879-1.254zm.914-10.746c.305-.09.629-.09.859-.09.594 0 .645.016 1.004.106-.214.09-.359.144-1.109.144-.34 0-.559 0-.754-.16m-1.418 4.906c.434-.105.828-.105 1.043-.105.59 0 .629.016 1.02.105-.196.09-.356.145-1.129.145-.43 0-.61 0-.934-.145M467.938-62.61c0-1.828-.575-3.6-2.043-3.6-2.508 0-5.176 5.25-5.176 9.187 0 .828.176 3.601 2.058 3.601 2.438 0 5.161-5.121 5.161-9.187m-5.43 2.524c.269-1.055.644-2.562 1.363-3.832.59-1.074 1.219-1.934 2.008-1.934.59 0 .98.5.98 2.22 0 .644-.05 1.538-.57 3.546zm3.656.54c-.449 1.753-.824 2.882-1.469 4.01-.523.915-1.148 1.755-1.898 1.755-.559 0-1.004-.43-1.004-2.203 0-1.164.285-2.383.57-3.563zm7.211 6.033-1.879-.75c-.465-.18-1.543-.61-1.543-1.683 0-1.543 1.883-3.102 2.258-3.102.035 0 .195.035.254.055.48.144.945.144 1.269.144.555 0 1.614 0 1.614-.52 0-.394-.645-.448-1.418-.448-.356 0-.84 0-1.485.214-.429-.359-.609-.93-.609-1.468 0-.985.644-2.383 2.059-3.047.324.379.753.379 1.128.379.45 0 1.54 0 1.54-.52 0-.449-.86-.449-1.43-.449-.36 0-.629 0-1.129.09-.09-.215-.109-.25-.109-.645 0-.324.074-.574.074-.629 0-.105-.09-.18-.18-.18-.285 0-.285.665-.285.81 0 .25.016.5.125.734-2.152.625-3.102 2.148-3.102 3.312 0 1.074.715 1.668 1.2 1.934-1.844 1.008-2.633 2.832-2.633 3.8 0 1.56 1.414 2.114 2.062 2.383l1.61.645c.449.16 1.183.465 1.308.539.18.125.324.34.324.625 0 .375-.289.984-.914.984-.269 0-.863-.07-1.507-.554-.125-.11-.141-.125-.211-.125-.094 0-.18.07-.18.18 0 .195.93.859 1.898.859 1.145 0 1.844-1.11 1.844-1.883 0-.555-.305-1-.879-1.254zm.914-10.746c.305-.09.629-.09.859-.09.594 0 .645.016 1.004.106-.214.09-.359.144-1.109.144-.34 0-.559 0-.754-.16m-1.418 4.906c.434-.105.828-.105 1.043-.105.59 0 .629.016 1.02.105-.196.09-.356.145-1.129.145-.43 0-.61 0-.934-.145m9.543 1.684c.266 0 .57 0 .57-.285 0-.234-.175-.234-.5-.234h-2.902c.449-1.63 1.508-2.614 3.098-2.614h.523c.305 0 .57 0 .57-.289 0-.23-.195-.23-.519-.23h-.609c-2.204 0-4.622 1.754-4.622 4.566 0 1.988 1.344 3.332 3.118 3.332 1.148 0 2.277-.715 2.277-.894 0-.106-.055-.215-.164-.215-.051 0-.086.015-.176.09-.683.449-1.344.66-1.883.66-.949 0-1.953-.625-1.953-2.364 0-.34.035-.804.196-1.523zm10.305-7.934c0-.02.074-.25.074-.27 0-.16-.145-.16-.199-.16-.16 0-.176.087-.25.356l-2.957 11.86c-1.485-.176-2.043-.93-2.043-2.004 0-.395 0-.809.844-3.028.234-.644.32-.879.32-1.203 0-.804-.57-1.449-1.414-1.449-1.649 0-2.309 2.598-2.309 2.742 0 .07.07.16.195.16.161 0 .18-.074.25-.324.43-1.559 1.149-2.219 1.813-2.219.16 0 .465.016.465.59 0 .07 0 .465-.305 1.254-.969 2.543-.969 2.938-.969 3.352 0 1.718 1.434 2.383 3.047 2.508-.144.554-.269 1.128-.414 1.683-.285 1.074-.41 1.574-.41 1.648 0 .16.145.16.195.16.036 0 .11 0 .145-.07.07-.074.805-3.082.879-3.406.664 0 2.078 0 3.691-1.664.59-.645 1.125-1.469 1.43-2.242.18-.465.609-2.059.609-2.973 0-1.074-.535-1.199-.715-1.199-.429 0-.824.43-.824.79 0 .214.125.339.196.41.164.16.644.644.644 1.577 0 .645-.355 1.97-1.504 3.262-1.504 1.68-2.883 1.68-3.422 1.68zm-27.305-20.066c.266 0 .57 0 .57-.285 0-.234-.175-.234-.5-.234h-2.902c.449-1.63 1.508-2.614 3.098-2.614h.523c.305 0 .57 0 .57-.289 0-.23-.195-.23-.519-.23h-.609c-2.204 0-4.622 1.754-4.622 4.566 0 1.988 1.344 3.332 3.118 3.332 1.148 0 2.277-.715 2.277-.894 0-.106-.055-.215-.164-.215-.051 0-.086.015-.176.09-.683.449-1.344.66-1.883.66-.949 0-1.953-.625-1.953-2.363 0-.34.035-.805.196-1.524zm6.563 4.156-1.883-.75c-.465-.18-1.539-.61-1.539-1.683 0-1.543 1.879-3.102 2.258-3.102.035 0 .195.035.25.055.484.144.949.144 1.273.144.555 0 1.609 0 1.609-.52 0-.394-.644-.448-1.414-.448-.359 0-.843 0-1.488.214-.43-.359-.609-.93-.609-1.468 0-.985.644-2.383 2.062-3.047.32.379.75.379 1.125.379.449 0 1.543 0 1.543-.52 0-.449-.859-.449-1.434-.449-.359 0-.625 0-1.128.09-.09-.215-.106-.25-.106-.645 0-.324.07-.574.07-.629a.18.18 0 0 0-.179-.18c-.285 0-.285.665-.285.81 0 .25.015.5.125.734-2.149.625-3.098 2.148-3.098 3.312 0 1.074.715 1.668 1.199 1.934-1.844 1.008-2.633 2.832-2.633 3.8 0 1.56 1.414 2.114 2.059 2.383l1.613.645c.446.16 1.18.465 1.309.539.176.125.32.34.32.625 0 .375-.285.984-.914.984-.269 0-.859-.07-1.504-.554-.125-.11-.144-.125-.215-.125-.09 0-.179.07-.179.18 0 .195.933.859 1.898.859 1.148 0 1.848-1.11 1.848-1.883 0-.555-.309-1-.879-1.254zm.914-10.746c.304-.09.625-.09.859-.09.59 0 .645.016 1.004.106-.215.09-.359.144-1.113.144-.34 0-.555 0-.75-.16m-1.418 4.906c.433-.105.824-.105 1.039-.105.593 0 .629.016 1.023.105-.195.09-.359.145-1.129.145-.429 0-.609 0-.933-.145m7.812 4.875c-1.055-.414-1.664-1.218-1.664-2.562 0-2.453 1.809-5.734 4.012-7.004.32.305.734.305 1.074.305.449 0 1.539 0 1.539-.52 0-.43-.805-.449-1.379-.449-.355 0-.66 0-1.125.2a1.8 1.8 0 0 1-.164-.755c0-.324.07-.574.07-.629a.18.18 0 0 0-.175-.18c-.289 0-.289.665-.289.81 0 .16 0 .534.214.913-2.078 1.075-4.691 4.426-4.691 7.774 0 2.457 1.629 3.027 2.563 3.351.234.07.804.27 1.039.356.734.254 1.433.484 1.433 1.344 0 .52-.379 1.218-1.039 1.218-.359 0-.844-.125-1.293-.57-.07-.074-.105-.11-.195-.11-.145 0-.18.145-.18.18 0 .18.77.86 1.668.86 1.145 0 1.934-1.2 1.934-2.133 0-1.254-1.039-1.61-1.703-1.828zm2.742-9.746c.27-.125.52-.125.825-.125.57 0 .625.016.984.106-.215.09-.359.144-1.109.144-.375 0-.504 0-.7-.125m11.168 6.09c0-1.738-.984-3.367-2.882-3.367-2.348 0-4.696 2.563-4.696 5.106 0 1.558.969 2.972 2.793 2.972 1.113 0 2.438-.43 3.711-1.504.25 1.004.805 1.504 1.574 1.504.969 0 1.453-1 1.453-1.234 0-.164-.125-.164-.179-.164-.145 0-.164.054-.215.199-.16.45-.574.84-1.004.84-.555 0-.555-1.145-.555-2.238 1.828-2.184 2.258-4.442 2.258-4.462 0-.16-.144-.16-.199-.16-.16 0-.18.055-.25.375-.234.79-.699 2.188-1.809 3.657zm-1.129 2.777c-1.578 1.415-2.992 1.575-3.621 1.575-1.269 0-1.629-1.125-1.629-1.969 0-.77.395-2.598.95-3.582.738-1.254 1.738-1.809 2.547-1.809 1.734 0 1.734 2.274 1.734 3.778 0 .449-.016.914-.016 1.363 0 .36.016.445.035.644m165.52 56.879c-1.055-.414-1.664-1.218-1.664-2.562 0-2.453 1.808-5.734 4.012-7.004.32.305.734.305 1.074.305.449 0 1.539 0 1.539-.52 0-.43-.805-.449-1.379-.449-.355 0-.66 0-1.125.2a1.8 1.8 0 0 1-.164-.755c0-.324.07-.574.07-.629 0-.105-.09-.18-.176-.18-.289 0-.289.665-.289.81 0 .16 0 .534.215.913-2.078 1.075-4.691 4.426-4.691 7.774 0 2.457 1.629 3.027 2.562 3.351.231.07.801.27 1.039.356.735.254 1.434.484 1.434 1.344 0 .52-.379 1.218-1.039 1.218-.363 0-.844-.125-1.293-.57-.07-.074-.109-.11-.195-.11-.145 0-.18.145-.18.18 0 .18.769.86 1.668.86 1.144 0 1.934-1.2 1.934-2.133 0-1.254-1.04-1.61-1.704-1.828zm2.742-9.746c.266-.125.52-.125.824-.125.571 0 .625.016.985.106-.215.09-.36.144-1.114.144-.375 0-.5 0-.695-.125m8.086 6.555c.266 0 .57 0 .57-.285 0-.235-.175-.235-.5-.235h-2.902c.449-1.628 1.508-2.613 3.098-2.613h.523c.305 0 .57 0 .57-.289 0-.23-.195-.23-.519-.23h-.609c-2.204 0-4.622 1.754-4.622 4.566 0 1.988 1.344 3.332 3.118 3.332 1.148 0 2.277-.715 2.277-.894 0-.106-.055-.215-.164-.215-.051 0-.086.015-.176.09-.683.449-1.344.66-1.883.66-.949 0-1.953-.625-1.953-2.364 0-.34.035-.804.196-1.523zm6.527-2.684h2.024c-.485 2.004-.789 3.313-.789 4.746 0 .25 0 2.184.734 2.184.379 0 .699-.34.699-.644 0-.09 0-.125-.125-.395-.484-1.234-.484-2.773-.484-2.902 0-.106 0-1.38.379-2.989h2.004c.234 0 .824 0 .824-.574 0-.394-.34-.394-.664-.394h-5.895c-.41 0-1.019 0-1.843.875-.465.523-1.039 1.468-1.039 1.578s.089.144.199.144c.125 0 .14-.054.23-.16.934-1.469 1.864-1.469 2.313-1.469h1.019c-.394 1.34-.839 2.899-2.308 6.036-.145.285-.145.324-.145.43 0 .374.321.464.485.464.519 0 .66-.465.875-1.219.289-.914.289-.949.468-1.664zm15.129.052c0-1.09-.554-1.2-.715-1.2-.429 0-.824.43-.824.79 0 .214.125.339.215.41.16.16.625.644.625 1.577 0 1.2-1.449 4.942-3.742 4.942-.106 0-.824 0-1.289-.446-.324-.34-.449-.789-.449-1.308 0-.7.214-1.559.914-3.367.215-.59.304-.825.304-1.164 0-.754-.539-1.434-1.414-1.434-1.648 0-2.312 2.598-2.312 2.742 0 .07.07.16.199.16.16 0 .176-.074.25-.324.449-1.574 1.145-2.219 1.809-2.219.179 0 .464.016.464.59 0 .09 0 .465-.304 1.254-1.004 2.633-1.004 3.102-1.004 3.567 0 1.789 1.453 2.308 2.777 2.308 1.489 0 2.457-1.234 2.922-1.914 1.27-1.867 1.574-4.39 1.574-4.965m5.586-1.109c-2.293.554-3.937 2.937-3.937 5.035 0 1.914 1.289 2.992 2.719 2.992 2.117 0 3.55-2.906 3.55-5.289 0-1.61-.754-2.594-1.203-3.187-.664-.84-1.738-2.22-1.738-3.082 0-.305.234-.84 1.023-.84.555 0 .895.195 1.434.5.16.11.574.34.805.34.379 0 .644-.375.644-.66 0-.344-.265-.395-.894-.54-.84-.18-1.094-.18-1.399-.18s-2.058 0-2.058 1.829c0 .879.445 1.898 1.054 3.082m.199.34c.68 1.414.95 1.953.95 3.117 0 1.398-.754 4.21-2.348 4.21-.699 0-1.699-.468-1.699-2.132 0-1.164.66-4.55 3.097-5.195m-44.996-28.34c-2.296.554-3.941 2.937-3.941 5.035 0 1.914 1.289 2.992 2.723 2.992 2.113 0 3.547-2.906 3.547-5.289 0-1.61-.754-2.594-1.204-3.187-.66-.84-1.738-2.22-1.738-3.082 0-.305.234-.84 1.024-.84.554 0 .898.195 1.433.5.16.11.574.34.805.34.379 0 .648-.375.648-.66 0-.344-.269-.395-.898-.54-.84-.18-1.09-.18-1.399-.18-.304 0-2.058 0-2.058 1.829 0 .879.445 1.898 1.058 3.082m.196.34c.679 1.414.949 1.953.949 3.117 0 1.398-.75 4.21-2.348 4.21-.695 0-1.699-.468-1.699-2.132 0-1.164.66-4.55 3.098-5.195m14.187.734c0-.52-.144-1.184-.773-1.184-.356 0-.77.45-.77.81 0 .16.074.265.219.429.266.304.605.789.605 1.629 0 .644-.39 1.668-.679 2.222-.5.985-1.324 1.828-2.254 1.828-1.133 0-1.563-.718-1.758-1.722.195-.465.609-1.63.609-2.094 0-.2-.074-.36-.304-.36a.44.44 0 0 0-.36.215c-.25.395-.484 1.81-.464 2.188-.34.66-1.309 1.773-2.454 1.773-1.203 0-1.523-1.058-1.523-2.078 0-1.863 1.16-3.496 1.484-3.941.18-.27.309-.45.309-.484 0-.126-.074-.325-.234-.325-.29 0-.379.235-.524.45-.91 1.414-1.555 3.402-1.555 5.12 0 1.114.411 2.438 1.754 2.438 1.489 0 2.418-1.27 2.797-1.953.141 1.004.68 1.953 1.985 1.953 1.363 0 2.222-1.2 2.867-2.648.469-1.04 1.023-3.282 1.023-4.266m5.617-1.074c-2.296.554-3.941 2.937-3.941 5.035 0 1.914 1.289 2.992 2.723 2.992 2.113 0 3.547-2.906 3.547-5.289 0-1.61-.754-2.594-1.204-3.187-.66-.84-1.738-2.22-1.738-3.082 0-.305.234-.84 1.024-.84.554 0 .898.195 1.433.5.16.11.574.34.805.34.379 0 .648-.375.648-.66 0-.344-.269-.395-.898-.54-.84-.18-1.09-.18-1.399-.18-.304 0-2.058 0-2.058 1.829 0 .879.445 1.898 1.058 3.082m.196.34c.679 1.414.949 1.953.949 3.117 0 1.398-.75 4.21-2.348 4.21-.695 0-1.699-.468-1.699-2.132 0-1.164.66-4.55 3.098-5.195m12.066-4.532c0-.02.07-.25.07-.27 0-.16-.144-.16-.195-.16-.164 0-.18.087-.254.356l-2.953 11.86c-1.488-.176-2.043-.93-2.043-2.004 0-.395 0-.809.844-3.028.23-.644.32-.879.32-1.203 0-.804-.574-1.449-1.414-1.449-1.648 0-2.312 2.598-2.312 2.742 0 .07.07.16.199.16.16 0 .176-.074.25-.324.43-1.559 1.144-2.219 1.808-2.219.161 0 .465.016.465.59 0 .07 0 .465-.304 1.254-.969 2.543-.969 2.938-.969 3.352 0 1.718 1.437 2.383 3.047 2.508-.141.554-.27 1.128-.41 1.683-.29 1.074-.415 1.574-.415 1.648 0 .16.145.16.2.16.035 0 .105 0 .14-.07.075-.074.809-3.082.879-3.406.664 0 2.078 0 3.692-1.664.589-.645 1.129-1.469 1.433-2.242.18-.465.61-2.059.61-2.973 0-1.074-.539-1.199-.719-1.199-.43 0-.824.43-.824.79 0 .214.125.339.199.41.16.16.644.644.644 1.577 0 .645-.359 1.97-1.507 3.262-1.504 1.68-2.883 1.68-3.422 1.68zm10.352 9.817c-.035-.88-.075-2.258-.754-3.871-.36-.895-.965-1.844-2.274-1.844-2.203 0-3.402 2.813-3.402 3.277 0 .16.125.16.176.16.164 0 .164-.035.25-.265.379-1.113 1.523-1.992 2.761-1.992 2.489 0 2.848 2.78 2.848 4.554 0 1.125-.125 1.504-.234 1.86-.34 1.113-.93 3.336-.93 3.836 0 .14.055.304.195.304.27 0 .434-.593.629-1.308.43-1.574.535-2.364.625-3.082.055-.43 1.075-3.383 2.492-6.196.125-.289.375-.773.375-.828 0-.015-.015-.14-.179-.14-.035 0-.125 0-.16.07-.036.035-.664 1.254-1.2 2.473-.269.609-.628 1.414-1.218 2.992m12.425-4.567c.235 0 .829 0 .829-.574 0-.394-.344-.394-.664-.394h-3.961c-2.684 0-4.622 2.992-4.622 5.105 0 1.524.985 2.793 2.598 2.793 2.113 0 4.426-2.273 4.426-4.96 0-.7-.16-1.38-.59-1.97zm-5.8 6.57c-.914 0-1.578-.695-1.578-1.933 0-1.074.644-4.637 3.277-4.637.773 0 1.633.375 1.633 1.754 0 .625-.289 2.133-.914 3.172-.645 1.055-1.614 1.645-2.418 1.645m-36.52-30.613c.449.41 1.113.574 1.723.574 1.144 0 1.933-.77 2.347-1.328.176.953.93 1.328 1.555 1.328q.808-.001 1.293-.97c.285-.608.535-1.702.535-1.772 0-.09-.07-.16-.179-.16-.161 0-.18.09-.25.359-.266 1.054-.61 2.183-1.344 2.183-.52 0-.555-.464-.555-.824 0-.41.16-1.058.289-1.594l.5-1.933c.071-.344.27-1.149.36-1.469.105-.43.304-1.203.304-1.273 0-.27-.218-.45-.484-.45-.164 0-.539.075-.68.61l-1.258 4.98c-.086.36-.086.395-.32.68-.215.305-.914 1.273-2.043 1.273-1.004 0-1.324-.734-1.324-1.578 0-.515.16-1.144.23-1.449l.809-3.223c.086-.343.23-.914.23-1.023 0-.285-.23-.445-.464-.445-.161 0-.555.05-.7.625l-2.597 10.375c-.016.085-.051.195-.051.3 0 .27.215.45.48.45.52 0 .629-.415.754-.915zm14.695-1.793c-.039-.876-.074-2.254-.753-3.868-.36-.898-.969-1.843-2.278-1.843-2.199 0-3.402 2.812-3.402 3.277 0 .16.125.16.18.16.16 0 .16-.035.25-.27.378-1.109 1.523-1.988 2.761-1.988 2.489 0 2.848 2.778 2.848 4.551 0 1.129-.125 1.504-.234 1.863-.34 1.11-.93 3.332-.93 3.836 0 .14.051.305.195.305.27 0 .43-.594.629-1.309.43-1.578.535-2.367.625-3.082.055-.43 1.074-3.386 2.492-6.199.125-.285.375-.77.375-.824 0-.016-.019-.145-.179-.145-.036 0-.125 0-.161.075-.035.035-.664 1.254-1.199 2.468-.269.61-.629 1.418-1.219 2.993m9.239-.696c-.485-1.488-.375-1.344-.824-2.598-.555-1.542-.7-1.667-.95-1.917-.32-.29-.933-.5-1.558-.5-1.004 0-1.489.93-1.489 1.164 0 .105.09.16.2.16.14 0 .179-.09.199-.16.265-.7.82-.809.98-.809.524 0 1.024 1.293 1.348 2.152.426 1.09.645 1.844 1.125 3.582l-4.227 4.801c-.16.195-.16.27-.16.285 0 .145.09.18.16.18s.125-.035.18-.09c.5-.5 1.613-1.828 2.078-2.363l2.078-2.363c.879 2.757.879 2.793 1.145 3.453.289.683.664 1.562 2.187 1.562 1.02 0 1.485-.914 1.485-1.164 0-.129-.106-.164-.196-.164-.14 0-.16.07-.214.215-.196.504-.661.754-.95.754-.23 0-.519 0-1.308-1.988-.465-1.2-.879-2.633-1.184-3.746l4.25-4.836c.141-.16.16-.18.16-.25 0-.125-.089-.18-.179-.18-.055 0-.11 0-.285.195zm-20.278-31.828c0-1.828-.57-3.602-2.039-3.602-2.507 0-5.179 5.25-5.179 9.192 0 .824.179 3.601 2.062 3.601 2.434 0 5.156-5.125 5.156-9.191m-5.425 2.527c.269-1.058.644-2.562 1.363-3.836.59-1.074 1.215-1.933 2.004-1.933.59 0 .984.5.984 2.219 0 .644-.051 1.543-.57 3.55zm3.656.536c-.449 1.757-.824 2.882-1.473 4.015-.519.91-1.144 1.754-1.898 1.754-.555 0-1-.43-1-2.203 0-1.164.285-2.383.57-3.566zm9.207 3.761c-.035-.879-.07-2.254-.754-3.867-.355-.898-.965-1.848-2.273-1.848-2.204 0-3.403 2.813-3.403 3.282 0 .16.125.16.176.16.164 0 .164-.035.254-.27.375-1.109 1.523-1.988 2.758-1.988 2.488 0 2.847 2.777 2.847 4.551 0 1.129-.125 1.504-.23 1.863-.344 1.109-.934 3.332-.934 3.832 0 .145.055.305.2.305.265 0 .429-.59.625-1.305.429-1.578.539-2.367.625-3.082.054-.434 1.078-3.387 2.492-6.199.125-.289.375-.77.375-.824 0-.02-.016-.145-.176-.145-.039 0-.125 0-.164.07-.035.039-.66 1.258-1.199 2.473-.27.609-.629 1.414-1.219 2.992m9.008-.375c0-.09-.071-.16-.18-.16-.145 0-.18.07-.234.231-.571 1.738-2.024 2.312-2.774 2.312-.219 0-.484-.035-.484-.59 0-.429.195-.969.285-1.219.895-2.437 1.578-5.32 1.578-5.464 0-.286-.234-.45-.469-.45-.285 0-.535.18-.644.469-.125.34-.305 1.199-.41 1.539-.02.071-.465 1.703-.539 1.918-.125.465-.106.321-.231.77-.16.625-.574 1.324-.574 1.933 0 .7.449 1.453 1.449 1.453 1.988 0 3.227-2.152 3.227-2.742m7.293.375c-.035-.879-.075-2.254-.754-3.867-.36-.898-.965-1.848-2.274-1.848-2.203 0-3.402 2.813-3.402 3.282 0 .16.125.16.176.16.164 0 .164-.035.25-.27.379-1.109 1.523-1.988 2.761-1.988 2.489 0 2.848 2.777 2.848 4.551 0 1.129-.125 1.504-.234 1.863-.34 1.109-.93 3.332-.93 3.832 0 .145.055.305.195.305.27 0 .434-.59.629-1.305.43-1.578.535-2.367.625-3.082.055-.434 1.075-3.387 2.492-6.199.125-.289.375-.77.375-.824 0-.02-.015-.145-.179-.145-.035 0-.125 0-.16.07-.036.039-.664 1.258-1.2 2.473-.269.609-.628 1.414-1.218 2.992m175.668 75.86c0-1.075-.914-2.203-2.547-2.203-2.309 0-3.778 2.832-4.242 4.695l-2.832 11.23c-.036.145.07.18.16.18.125 0 .215-.016.234-.105l1.254-5.02c.18 1.004 1.164 1.828 2.223 1.828 2.562 0 4.976-2.004 4.976-4.676 0-.68-.16-1.359-.535-1.933a3 3 0 0 0-.769-.805c1.289-.684 2.078-1.773 2.078-3.191m-3.118 3.172a2.6 2.6 0 0 1-.914.144c-.25 0-.484.016-.804-.09.175-.125.445-.16.824-.16.32 0 .644.035.894.105m2.184-3.333c0 .985-.48 2.419-1.648 3.083a3.8 3.8 0 0 0-1.2-.215c-.375 0-1.449-.04-1.449.535 0 .484.985.433 1.289.433.465 0 .879-.109 1.309-.234.57.465.82 1.074.82 1.969 0 1.039-.285 1.883-.625 2.652-.59 1.324-1.988 2.184-3.226 2.184-1.305 0-1.985-1.04-1.985-2.254 0-.16 0-.395.071-.664l1.164-4.711c.589-2.348 2.093-4.461 3.832-4.461 1.293 0 1.648.894 1.648 1.684m9.395-1.683c0-.16-.125-.16-.18-.16-.16 0-.176.035-.25.34l-.965 3.851c-.055.23-.074.25-.09.27-.019.035-.144.05-.179.05-2.938.254-5.196 2.672-5.196 4.91 0 1.934 1.488 3.118 3.352 3.227-.145.555-.27 1.125-.414 1.68-.25.953-.395 1.543-.395 1.613 0 .035 0 .145.18.145.055 0 .125 0 .164-.07.035-.04.141-.47.211-.7l.664-2.668c3.062-.164 5.394-2.672 5.394-4.93 0-1.808-1.363-3.097-3.351-3.222zm-1.164 4.691c1.183.075 2.367.735 2.367 2.492 0 2.024-1.414 4.711-4.211 4.926zm-2.258 7.438c-.875-.055-2.344-.52-2.344-2.492 0-2.258 1.629-4.766 4.211-4.926zm11.8-2.422c0-.086-.074-.16-.179-.16-.145 0-.18.074-.235.234-.574 1.738-2.023 2.309-2.773 2.309-.219 0-.488-.035-.488-.59 0-.43.199-.965.289-1.219.894-2.433 1.578-5.32 1.578-5.465 0-.285-.234-.445-.469-.445a.69.69 0 0 0-.644.465c-.125.34-.305 1.2-.411 1.543-.019.07-.468 1.699-.539 1.914-.125.469-.105.324-.23.773-.164.625-.574 1.325-.574 1.934 0 .7.449 1.45 1.449 1.45 1.988 0 3.226-2.15 3.226-2.743m6.055-8.598c-.445-1.27-1.863-1.27-2.097-1.27-.106 0-.305 0-.305.18 0 .141.109.16.199.176.27.035.484.074.77.594.179.34 2.027 5.695 2.027 5.73 0 .02-.02.04-.164.18l-4.656 4.711c-.215.215-.36.36-.36.594 0 .25.215.465.504.465.07 0 .266-.035.375-.145.285-.27 2.848-3.402 4.477-5.336a172 172 0 0 0 1.593 4.547c.094.27.18.52.43.754.18.16.219.16.719.16h.34c.074 0 .199 0 .199-.14 0-.075-.02-.09-.09-.165-.16-.195-.289-.52-.359-.734zM848.656-50.5c-.019.09-.054.195-.054.305 0 .265.214.445.484.445.269 0 .519-.18.629-.43.07-.16.57-2.308 1.144-4.511.36.894 1.02 1.27 1.719 1.27 2.024 0 4.32-2.509 4.32-5.212 0-1.918-1.168-2.867-2.402-2.867-1.578 0-3.492 1.629-4.086 4.012zm3.907-3.281c-1.219 0-1.524-1.414-1.524-1.63 0-.105.445-1.808.5-2.077.914-3.567 2.672-3.653 2.938-3.653.808 0 1.253.735 1.253 1.79 0 .913-.48 2.687-.785 3.44-.539 1.235-1.468 2.13-2.382 2.13m12.957-11.821c0-.02.074-.25.074-.27 0-.16-.145-.16-.199-.16-.161 0-.18.087-.25.356l-2.957 11.86c-1.485-.176-2.043-.93-2.043-2.004 0-.395 0-.809.843-3.028.231-.644.321-.879.321-1.203 0-.804-.575-1.449-1.414-1.449-1.649 0-2.309 2.598-2.309 2.742 0 .07.07.16.195.16.16 0 .18-.074.25-.324.43-1.559 1.149-2.219 1.809-2.219.164 0 .465.016.465.59 0 .07 0 .465-.301 1.254-.969 2.543-.969 2.938-.969 3.352 0 1.718 1.434 2.383 3.043 2.508-.14.554-.265 1.128-.41 1.683-.285 1.074-.41 1.574-.41 1.648 0 .16.14.16.195.16.035 0 .11 0 .145-.07.07-.074.804-3.082.879-3.406.66 0 2.078 0 3.691-1.664.59-.645 1.125-1.469 1.43-2.242.179-.465.609-2.059.609-2.973 0-1.074-.535-1.199-.715-1.199-.429 0-.824.43-.824.79 0 .214.125.339.195.41.16.16.645.644.645 1.577 0 .645-.36 1.97-1.504 3.262-1.504 1.68-2.887 1.68-3.422 1.68zm12.101 0c0-.02.07-.25.07-.27 0-.16-.144-.16-.195-.16-.164 0-.18.087-.254.356l-2.953 11.86c-1.488-.176-2.043-.93-2.043-2.004 0-.395 0-.809.844-3.028.23-.644.32-.879.32-1.203 0-.804-.574-1.449-1.414-1.449-1.648 0-2.312 2.598-2.312 2.742 0 .07.07.16.199.16.16 0 .176-.074.25-.324.43-1.559 1.144-2.219 1.808-2.219.161 0 .465.016.465.59 0 .07 0 .465-.304 1.254-.969 2.543-.969 2.938-.969 3.352 0 1.718 1.437 2.383 3.047 2.508-.141.554-.27 1.128-.41 1.683-.29 1.074-.415 1.574-.415 1.648 0 .16.145.16.2.16.035 0 .105 0 .14-.07.075-.074.809-3.082.879-3.406.664 0 2.078 0 3.692-1.664.589-.645 1.129-1.469 1.433-2.242.18-.465.61-2.059.61-2.973 0-1.074-.539-1.199-.719-1.199-.43 0-.824.43-.824.79 0 .214.125.339.199.41.16.16.644.644.644 1.577 0 .645-.359 1.97-1.507 3.262-1.504 1.68-2.883 1.68-3.422 1.68zm8.219 5.25h2.023c-.48 2.004-.785 3.313-.785 4.746 0 .25 0 2.184.735 2.184.375 0 .695-.34.695-.644 0-.09 0-.125-.125-.395-.485-1.234-.485-2.773-.485-2.902 0-.106 0-1.38.379-2.989h2.004c.235 0 .824 0 .824-.574 0-.394-.339-.394-.66-.394h-5.894c-.414 0-1.02 0-1.848.875-.465.523-1.035 1.468-1.035 1.578s.086.144.195.144c.125 0 .145-.054.231-.16.933-1.469 1.867-1.469 2.312-1.469h1.024c-.395 1.34-.844 2.899-2.313 6.036-.144.285-.144.324-.144.43 0 .374.324.464.484.464.52 0 .664-.465.879-1.219.285-.914.285-.949.465-1.664zm16.098-3.675c0-1.075-.911-2.204-2.543-2.204-2.309 0-3.778 2.833-4.247 4.696l-2.828 11.23c-.035.145.071.18.16.18.125 0 .215-.016.235-.105l1.254-5.02c.179 1.004 1.164 1.828 2.219 1.828 2.566 0 4.98-2.004 4.98-4.676 0-.68-.16-1.359-.535-1.933a3 3 0 0 0-.774-.805c1.293-.684 2.079-1.773 2.079-3.191m-3.118 3.172c-.285.105-.57.144-.91.144-.254 0-.484.016-.808-.09.179-.125.449-.16.824-.16.324 0 .644.035.894.105m2.188-3.333c0 .985-.485 2.419-1.649 3.083a3.7 3.7 0 0 0-1.199-.215c-.379 0-1.449-.04-1.449.535 0 .484.984.433 1.289.433.465 0 .879-.109 1.305-.234.574.465.824 1.074.824 1.969 0 1.039-.285 1.883-.625 2.652-.59 1.324-1.988 2.184-3.227 2.184-1.308 0-1.984-1.04-1.984-2.254 0-.16 0-.395.07-.664l1.164-4.711c.59-2.348 2.094-4.461 3.832-4.461 1.289 0 1.649.894 1.649 1.683m-33.035-19.596c-.035-.88-.075-2.258-.754-3.871-.36-.895-.965-1.844-2.274-1.844-2.203 0-3.402 2.813-3.402 3.277 0 .16.125.16.176.16.164 0 .164-.035.25-.265.379-1.113 1.523-1.992 2.761-1.992 2.489 0 2.848 2.78 2.848 4.554 0 1.125-.125 1.504-.234 1.86-.34 1.113-.93 3.336-.93 3.836 0 .14.055.304.195.304.27 0 .434-.593.629-1.308.43-1.574.535-2.364.625-3.082.055-.43 1.075-3.383 2.492-6.196.125-.289.375-.773.375-.828 0-.015-.015-.14-.179-.14-.035 0-.125 0-.16.07-.036.035-.664 1.254-1.2 2.473-.269.609-.628 1.414-1.218 2.992m8.468-4.567h2.977c.23 0 .82 0 .82-.574 0-.394-.34-.394-.66-.394h-4.93c-.41 0-1.019 0-1.843.875-.465.523-1.039 1.468-1.039 1.578s.089.144.199.144c.125 0 .14-.054.23-.16.934-1.469 1.864-1.469 2.313-1.469h1.484l-1.859 6.141c-.09.27-.09.305-.09.36 0 .199.125.449.48.449.555 0 .649-.485.7-.754zm12.395-2.258c0-1.828-.574-3.6-2.043-3.6-2.508 0-5.176 5.25-5.176 9.187 0 .828.18 3.601 2.059 3.601 2.437 0 5.16-5.121 5.16-9.187m-5.43 2.524c.27-1.055.649-2.562 1.364-3.832.589-1.074 1.218-1.934 2.007-1.934.59 0 .985.5.985 2.22 0 .644-.055 1.538-.574 3.546zm3.657.54c-.45 1.753-.825 2.882-1.469 4.01-.52.915-1.149 1.755-1.899 1.755-.554 0-1.004-.43-1.004-2.203 0-1.164.286-2.383.575-3.563z"/></g></svg>