<svg xmlns="http://www.w3.org/2000/svg" width="341pt" height="152" viewBox="0 -114 341 114"><g id="page1"><path fill="none" stroke="#000" stroke-linecap="round" stroke-linejoin="round" stroke-width=".5" d="M.25-.25v-113.219M56.86-.25v-113.219M113.469-.25v-113.219M170.078-.25v-113.219M226.688-.25v-113.219M283.297-.25v-113.219M339.906-.25v-113.219M.25-.25h339.656M.25-56.86h339.656M.25-113.469h339.656"/><path d="M32.336-81.797h-.36c-.199 1.418-.359 1.656-.437 1.778-.102.16-1.543.16-1.82.16h-3.84c.719-.782 2.121-2.2 3.816-3.84 1.223-1.16 2.64-2.52 2.64-4.496 0-2.36-1.878-3.72-3.976-3.72-2.199 0-3.539 1.938-3.539 3.74 0 .777.578.878.82.878.2 0 .797-.117.797-.82 0-.617-.519-.797-.796-.797a.8.8 0 0 0-.32.058c.378-1.699 1.538-2.538 2.757-2.538 1.738 0 2.879 1.378 2.879 3.199 0 1.738-1.02 3.238-2.16 4.539L24.82-79.16v.46h7.035zm52.684-3.699c1.777 0 2.558 1.539 2.558 3.316 0 2.399-1.281 3.32-2.441 3.32-1.059 0-2.778-.519-3.317-2.058.098.04.2.04.297.04.48 0 .844-.321.844-.84 0-.579-.442-.84-.844-.84-.336 0-.86.16-.86.898 0 1.84 1.802 3.281 3.923 3.281 2.218 0 3.918-1.738 3.918-3.777 0-1.942-1.602-3.34-3.5-3.563 1.52-.32 2.98-1.68 2.98-3.496 0-1.558-1.582-2.7-3.379-2.7-1.82 0-3.418 1.118-3.418 2.72 0 .699.52.82.778.82.422 0 .78-.262.78-.781 0-.52-.358-.781-.78-.781-.078 0-.18 0-.258.043.578-1.32 2.156-1.56 2.855-1.56.703 0 2.02.34 2.02 2.259 0 .558-.078 1.558-.758 2.437-.602.781-1.281.82-1.941.883-.098 0-.559.04-.637.04-.14.019-.223.038-.223.179s.024.16.422.16zm58.898-6.137c0-.422-.02-.441-.379-.441l-5.937 9.457v.52h5.156v1.956c0 .72-.039.922-1.438.922h-.382v.52c.64-.043 1.718-.043 2.402-.043.676 0 1.758 0 2.394.043v-.52h-.379c-1.398 0-1.437-.203-1.437-.922v-1.957h2.039v-.52h-2.039zm-1.102 1.317v7.699H138zm60-.84v-.438h-4.699c-2.336 0-2.379-.262-2.457-.64h-.359l-.582 3.738h.359c.063-.379.203-1.398.442-1.777.121-.16 1.597-.16 1.937-.16h4.398l-2.218 3.296c-1.481 2.219-2.496 5.219-2.496 7.836 0 .242 0 .922.718.922.719 0 .719-.68.719-.941v-.918c0-3.278.559-5.438 1.481-6.817zm53.024 5.258c1.258-.637 2.539-1.598 2.539-3.137 0-1.82-1.762-2.88-3.383-2.88-1.816 0-3.418 1.321-3.418 3.142 0 .496.121 1.359.902 2.117.2.199 1.04.8 1.579 1.18-.899.46-3 1.558-3 3.757 0 2.059 1.961 3.34 3.898 3.34 2.141 0 3.941-1.539 3.941-3.582 0-1.816-1.222-2.656-2.019-3.195zm-2.621-1.758c-.16-.102-.961-.719-.961-1.66 0-1.22 1.262-2.137 2.699-2.137 1.582 0 2.738 1.117 2.738 2.418 0 1.86-2.078 2.918-2.179 2.918-.02 0-.039 0-.2-.121zm3.679 4.097c.297.223 1.258.88 1.258 2.098 0 1.48-1.48 2.602-3.16 2.602-1.816 0-3.195-1.301-3.195-2.88 0-1.581 1.219-2.898 2.597-3.519zm50.821-7.918c0-.417-.02-.437-.301-.437-.781.937-1.957 1.238-3.078 1.281-.059 0-.16 0-.18.04-.019.038-.019.077-.019.5.617 0 1.656-.122 2.457-.602v10.535c0 .7-.039.941-1.758.941h-.602v.52c.961-.02 1.961-.043 2.918-.043.961 0 1.961.023 2.922.043v-.52h-.601c-1.719 0-1.758-.219-1.758-.941zm12.219 9.68h-.36c-.199 1.418-.359 1.656-.441 1.778-.098.16-1.539.16-1.821.16h-3.836c.719-.782 2.118-2.2 3.817-3.84 1.219-1.16 2.641-2.52 2.641-4.496 0-2.36-1.879-3.72-3.981-3.72-2.199 0-3.535 1.938-3.535 3.74 0 .777.578.878.816.878.2 0 .801-.117.801-.82 0-.617-.519-.797-.801-.797a.8.8 0 0 0-.32.058c.383-1.699 1.543-2.538 2.762-2.538 1.738 0 2.875 1.378 2.875 3.199 0 1.738-1.016 3.238-2.157 4.539l-3.976 4.496v.46h7.035zM29.316-34.875c0-.418-.02-.437-.3-.437-.778.937-1.957 1.238-3.078 1.277-.06 0-.157 0-.18.039-.02.043-.02.082-.02.5.621 0 1.66-.121 2.461-.598v10.535c0 .7-.043.938-1.762.938h-.597v.52c.957-.02 1.957-.04 2.918-.04.96 0 1.96.02 2.918.04v-.52h-.598c-1.719 0-1.762-.219-1.762-.938zm53.563 1.078c.2.082 1.02.344 1.86.344 1.859 0 2.878-1 3.456-1.582 0-.16 0-.258-.117-.258-.023 0-.062 0-.222.078-.7.3-1.52.54-2.52.54a6 6 0 0 1-2.477-.52c-.218-.098-.261-.098-.28-.098-.098 0-.118.02-.118.418v5.797c0 .36 0 .46.2.46.097 0 .136-.038.237-.179.641-.898 1.52-1.281 2.52-1.281.7 0 2.2.441 2.2 3.86 0 .64 0 1.8-.602 2.718-.5.82-1.278 1.242-2.137 1.242-1.32 0-2.66-.922-3.02-2.46.079.019.243.058.32.058.258 0 .758-.137.758-.758 0-.539-.378-.762-.757-.762-.461 0-.758.282-.758.84 0 1.738 1.375 3.559 3.496 3.559 2.059 0 4.02-1.778 4.02-4.356 0-2.402-1.563-4.261-3.5-4.261-1.02 0-1.88.382-2.56 1.101zm56.441 4.801c0-4.777 2.239-5.86 3.539-5.86.418 0 1.438.083 1.836.86-.316 0-.918 0-.918.7 0 .542.442.722.719.722.18 0 .723-.082.723-.762 0-1.258-1-1.977-2.379-1.977-2.379 0-4.879 2.477-4.879 6.895 0 5.438 2.258 6.637 3.859 6.637 1.938 0 3.778-1.739 3.778-4.418 0-2.496-1.621-4.317-3.66-4.317-1.219 0-2.118.797-2.618 2.2zm2.5 6.738c-2.461 0-2.461-3.68-2.461-4.422 0-1.437.68-3.515 2.539-3.515.34 0 1.321 0 1.981 1.379.359.777.359 1.597.359 2.597 0 1.078 0 1.88-.422 2.68-.437.82-1.078 1.281-1.996 1.281m59.02-5.758c0 4.399-1.824 5.758-3.32 5.758-.461 0-1.582-.062-2.04-.844.516.082.899-.199.899-.699 0-.539-.441-.719-.719-.719-.18 0-.722.082-.722.762 0 1.36 1.179 1.977 2.621 1.977 2.3 0 4.636-2.516 4.636-6.914 0-5.48-2.238-6.617-3.757-6.617-1.977 0-3.879 1.738-3.879 4.414 0 2.48 1.621 4.32 3.66 4.32 1.679 0 2.418-1.559 2.621-2.219zm-2.582 1.118c-.539 0-1.297-.102-1.918-1.297-.422-.782-.422-1.703-.422-2.68 0-1.18 0-2 .559-2.879.281-.422.8-1.102 1.961-1.102 2.359 0 2.359 3.622 2.359 4.419 0 1.421-.641 3.539-2.539 3.539m52.859-7.977c0-.418-.019-.437-.301-.437-.777.937-1.957 1.238-3.078 1.277-.058 0-.16 0-.179.039-.02.043-.02.082-.02.5.621 0 1.66-.121 2.457-.598v10.535c0 .7-.039.938-1.758.938h-.597v.52c.957-.02 1.957-.04 2.918-.04.957 0 1.957.02 2.918.04v-.52h-.598c-1.723 0-1.762-.219-1.762-.938zm9.199 0c0-.418-.019-.437-.3-.437-.778.937-1.957 1.238-3.078 1.277-.059 0-.157 0-.18.039-.02.043-.02.082-.02.5.621 0 1.66-.121 2.461-.598v10.535c0 .7-.043.938-1.761.938h-.598v.52c.957-.02 1.957-.04 2.918-.04s1.961.02 2.918.04v-.52h-.598c-1.719 0-1.762-.219-1.762-.938zm47.403 0c0-.418-.02-.437-.301-.437-.781.937-1.957 1.238-3.078 1.277-.059 0-.16 0-.18.039-.019.043-.019.082-.019.5.617 0 1.656-.121 2.457-.598v10.535c0 .7-.039.938-1.758.938h-.602v.52c.961-.02 1.961-.04 2.918-.04.961 0 1.961.02 2.922.04v-.52h-.601c-1.719 0-1.758-.219-1.758-.938zm12.277 6.359c0-1.218-.019-3.3-.859-4.898-.739-1.398-1.918-1.898-2.957-1.898-.961 0-2.184.437-2.942 1.878-.8 1.496-.879 3.356-.879 4.918 0 1.137.02 2.875.641 4.399.859 2.058 2.398 2.336 3.18 2.336.918 0 2.316-.38 3.136-2.278.602-1.378.68-3 .68-4.457m-3.816 6.414c-1.282 0-2.039-1.097-2.321-2.617-.218-1.18-.218-2.898-.218-4.02 0-1.538 0-2.816.257-4.034.379-1.704 1.5-2.22 2.282-2.22.816 0 1.879.54 2.258 2.177.257 1.14.281 2.48.281 4.078 0 1.3 0 2.898-.242 4.078-.418 2.18-1.598 2.558-2.297 2.558"/></g></svg>