<svg xmlns="http://www.w3.org/2000/svg" width="1076" height="598pt" viewBox="0 -598 807 598"><g id="page1"><path fill="#ffb2ff" d="M10.004-8.95h5.953c1.633 0 3.2.65 4.355 1.805l4.895 4.895a2.553 2.553 0 0 0 3.61 0l4.894-4.895a6.16 6.16 0 0 1 4.355-1.804h747.329a2.55 2.55 0 0 0 2.55-2.551v-419.934a2.553 2.553 0 0 0-2.55-2.55H38.066a6.16 6.16 0 0 0-4.355 1.804l-4.895 4.899a2.554 2.554 0 0 1-3.609 0l-4.895-4.899a6.16 6.16 0 0 0-4.355-1.804H4.051a2.55 2.55 0 0 0-2.551 2.55V-11.5c0 1.41 1.14 2.55 2.55 2.55z"/><path fill="none" stroke="#b200b2" stroke-linecap="round" stroke-linejoin="round" stroke-width="3" d="M10.004-8.95h5.953c1.633 0 3.2.65 4.355 1.805l4.895 4.895a2.553 2.553 0 0 0 3.61 0l4.894-4.895a6.16 6.16 0 0 1 4.355-1.804h747.329a2.55 2.55 0 0 0 2.55-2.551v-419.934a2.553 2.553 0 0 0-2.55-2.55H38.066a6.16 6.16 0 0 0-4.355 1.804l-4.895 4.899a2.554 2.554 0 0 1-3.609 0l-4.895-4.899a6.16 6.16 0 0 0-4.355-1.804H4.051a2.55 2.55 0 0 0-2.551 2.55V-11.5c0 1.41 1.14 2.55 2.55 2.55z"/><path fill="#ffd9b2" d="M35.516-25.957h5.953c1.633 0 3.199.648 4.355 1.805l4.895 4.894a2.553 2.553 0 0 0 3.61 0l4.894-4.894a6.16 6.16 0 0 1 4.355-1.805h730.317c1.41 0 2.554-1.14 2.554-2.55v-73.157a2.55 2.55 0 0 0-2.554-2.551H63.578a6.16 6.16 0 0 0-4.355 1.805l-4.895 4.894a2.553 2.553 0 0 1-3.61 0l-4.894-4.894a6.16 6.16 0 0 0-4.355-1.805H29.562a2.55 2.55 0 0 0-2.55 2.551v73.156c0 1.41 1.14 2.551 2.55 2.551z"/><path fill="none" stroke="#b25900" stroke-linecap="round" stroke-linejoin="round" stroke-width="3" d="M35.516-25.957h5.953c1.633 0 3.199.648 4.355 1.805l4.895 4.894a2.553 2.553 0 0 0 3.61 0l4.894-4.894a6.16 6.16 0 0 1 4.355-1.805h730.317c1.41 0 2.554-1.14 2.554-2.55v-73.157a2.55 2.55 0 0 0-2.554-2.551H63.578a6.16 6.16 0 0 0-4.355 1.805l-4.895 4.894a2.553 2.553 0 0 1-3.61 0l-4.894-4.894a6.16 6.16 0 0 0-4.355-1.805H29.562a2.55 2.55 0 0 0-2.55 2.551v73.156c0 1.41 1.14 2.551 2.55 2.551z"/><path fill="#c6c6ff" d="M152.543-38.715h12.195a2.55 2.55 0 0 0 2.551-2.55V-88.91a2.55 2.55 0 0 0-2.551-2.55h-24.39a2.55 2.55 0 0 0-2.551 2.55v47.644a2.55 2.55 0 0 0 2.551 2.551z"/><path fill="none" stroke="#2d2db2" stroke-linecap="round" stroke-linejoin="round" stroke-width="3" d="M152.543-38.715h12.195a2.55 2.55 0 0 0 2.551-2.55V-88.91a2.55 2.55 0 0 0-2.551-2.55h-24.39a2.55 2.55 0 0 0-2.551 2.55v47.644a2.55 2.55 0 0 0 2.551 2.551z"/><path fill="#d9b2b2" d="M209.789-65.086c0 13.172 5.684 26.371 17.348 26.371 11.668 0 17.347-13.2 17.347-26.37 0-13.177-5.679-26.376-17.347-26.376-11.664 0-17.348 13.2-17.348 26.375"/><path fill="none" stroke="#590000" stroke-linecap="round" stroke-linejoin="round" stroke-width="3" d="M209.789-65.086c0 13.172 5.684 26.371 17.348 26.371 11.668 0 17.347-13.2 17.347-26.37 0-13.177-5.679-26.376-17.347-26.376-11.664 0-17.348 13.2-17.348 26.375"/><path fill="#ffffb2" d="M35.516-107.16h5.953c1.633 0 3.199.648 4.355 1.801l4.895 4.898a2.553 2.553 0 0 0 3.61 0l4.894-4.898a6.17 6.17 0 0 1 4.355-1.801h730.317a2.556 2.556 0 0 0 2.554-2.555v-244.957a2.55 2.55 0 0 0-2.554-2.551H63.578a6.17 6.17 0 0 0-4.355 1.801l-4.895 4.899a2.553 2.553 0 0 1-3.61 0l-4.894-4.899a6.17 6.17 0 0 0-4.355-1.801H29.562a2.55 2.55 0 0 0-2.55 2.551v244.957c0 1.41 1.14 2.555 2.55 2.555z"/><path fill="none" stroke="#b2b200" stroke-linecap="round" stroke-linejoin="round" stroke-width="3" d="M35.516-107.16h5.953c1.633 0 3.199.648 4.355 1.801l4.895 4.898a2.553 2.553 0 0 0 3.61 0l4.894-4.898a6.17 6.17 0 0 1 4.355-1.801h730.317a2.556 2.556 0 0 0 2.554-2.555v-244.957a2.55 2.55 0 0 0-2.554-2.551H63.578a6.17 6.17 0 0 0-4.355 1.801l-4.895 4.899a2.553 2.553 0 0 1-3.61 0l-4.894-4.899a6.17 6.17 0 0 0-4.355-1.801H29.562a2.55 2.55 0 0 0-2.55 2.551v244.957c0 1.41 1.14 2.555 2.55 2.555z"/><path fill="#ffd9b2" d="M61.027-124.172h5.954c1.632 0 3.199.652 4.355 1.805l4.895 4.898a2.553 2.553 0 0 0 3.609 0l4.894-4.898a6.17 6.17 0 0 1 4.356-1.805h713.308a2.55 2.55 0 0 0 2.555-2.551v-73.156a2.555 2.555 0 0 0-2.555-2.551H89.09a6.16 6.16 0 0 0-4.356 1.805l-4.894 4.895a2.553 2.553 0 0 1-3.61 0l-4.894-4.895a6.16 6.16 0 0 0-4.355-1.805H55.074a2.55 2.55 0 0 0-2.55 2.551v73.156a2.55 2.55 0 0 0 2.55 2.551z"/><path fill="none" stroke="#b25900" stroke-linecap="round" stroke-linejoin="round" stroke-width="3" d="M61.027-124.172h5.954c1.632 0 3.199.652 4.355 1.805l4.895 4.898a2.553 2.553 0 0 0 3.609 0l4.894-4.898a6.17 6.17 0 0 1 4.356-1.805h713.308a2.55 2.55 0 0 0 2.555-2.551v-73.156a2.555 2.555 0 0 0-2.555-2.551H89.09a6.16 6.16 0 0 0-4.356 1.805l-4.894 4.895a2.553 2.553 0 0 1-3.61 0l-4.894-4.895a6.16 6.16 0 0 0-4.355-1.805H55.074a2.55 2.55 0 0 0-2.55 2.551v73.156a2.55 2.55 0 0 0 2.55 2.551z"/><path fill="#c6c6ff" d="M205.043-136.926h39.184c1.41 0 2.55-1.14 2.55-2.551v-47.644c0-1.41-1.14-2.551-2.55-2.551h-78.368a2.55 2.55 0 0 0-2.55 2.551v47.644a2.55 2.55 0 0 0 2.55 2.551z"/><path fill="none" stroke="#2d2db2" stroke-linecap="round" stroke-linejoin="round" stroke-width="3" d="M205.043-136.926h39.184c1.41 0 2.55-1.14 2.55-2.551v-47.644c0-1.41-1.14-2.551-2.55-2.551h-78.368a2.55 2.55 0 0 0-2.55 2.551v47.644a2.55 2.55 0 0 0 2.55 2.551z"/><path fill="#d9b2b2" d="M289.277-163.301c0 13.176 5.684 26.375 17.352 26.375 11.664 0 17.348-13.199 17.348-26.375 0-13.172-5.684-26.371-17.348-26.371-11.668 0-17.352 13.199-17.352 26.371"/><path fill="none" stroke="#590000" stroke-linecap="round" stroke-linejoin="round" stroke-width="3" d="M289.277-163.301c0 13.176 5.684 26.375 17.352 26.375 11.664 0 17.348-13.199 17.348-26.375 0-13.172-5.684-26.371-17.348-26.371-11.668 0-17.352 13.199-17.352 26.371"/><path fill="#b2ffb2" d="m76.727-244.754 11.613 26.481a9.77 9.77 0 0 0 8.941 5.839h663.024a9.76 9.76 0 0 0 8.941-5.839l23.223-52.957a14.56 14.56 0 0 0 0-11.688l-23.223-52.953a9.77 9.77 0 0 0-8.941-5.844H97.281a9.76 9.76 0 0 0-8.941 5.844l-23.223 52.953a14.56 14.56 0 0 0 0 11.688z"/><path fill="none" stroke="#00b200" stroke-linecap="round" stroke-linejoin="round" stroke-width="3" d="m76.727-244.754 11.613 26.481a9.77 9.77 0 0 0 8.941 5.839h663.024a9.76 9.76 0 0 0 8.941-5.839l23.223-52.957a14.56 14.56 0 0 0 0-11.688l-23.223-52.953a9.77 9.77 0 0 0-8.941-5.844H97.281a9.76 9.76 0 0 0-8.941 5.844l-23.223 52.953a14.56 14.56 0 0 0 0 11.688z"/><path fill="#d9b2b2" d="M78.145-277.074c0 19.515 8.261 39.129 25.511 39.129h180.481c17.254 0 25.511-19.614 25.511-39.129 0-19.516-8.257-39.129-25.511-39.129H103.656c-17.25 0-25.512 19.613-25.512 39.129"/><path fill="none" stroke="#590000" stroke-linecap="round" stroke-linejoin="round" stroke-width="3" d="M78.145-277.074c0 19.515 8.261 39.129 25.511 39.129h180.481c17.254 0 25.511-19.614 25.511-39.129 0-19.516-8.257-39.129-25.511-39.129H103.656c-17.25 0-25.512 19.613-25.512 39.129"/><path fill="#d9b2b2" d="M271.652-277.074c0 12.832 3.653 26.375 14.746 26.375 11.098 0 14.747-13.543 14.747-26.375s-3.649-26.375-14.747-26.375c-11.093 0-14.746 13.543-14.746 26.375"/><path fill="none" stroke="#590000" stroke-linecap="round" stroke-linejoin="round" stroke-width="3" d="M271.652-277.074c0 12.832 3.653 26.375 14.746 26.375 11.098 0 14.747-13.543 14.747-26.375s-3.649-26.375-14.747-26.375c-11.093 0-14.746 13.543-14.746 26.375"/><path fill="#d9b2b2" d="M455.031-277.074c0 24.785 4.231 51.886 25.512 51.886H753.93c21.281 0 25.511-27.101 25.511-51.886s-4.23-51.887-25.511-51.887H480.543c-21.281 0-25.512 27.102-25.512 51.887"/><path fill="none" stroke="#590000" stroke-linecap="round" stroke-linejoin="round" stroke-width="3" d="M455.031-277.074c0 24.785 4.231 51.886 25.512 51.886H753.93c21.281 0 25.511-27.101 25.511-51.886s-4.23-51.887-25.511-51.887H480.543c-21.281 0-25.512 27.102-25.512 51.887"/><path fill="#d9b2b2" d="M648.539-277.074c0 19.515 8.262 39.129 25.512 39.129h71.375c17.25 0 25.512-19.614 25.512-39.129 0-19.516-8.262-39.129-25.512-39.129h-71.375c-17.25 0-25.512 19.613-25.512 39.129"/><path fill="none" stroke="#590000" stroke-linecap="round" stroke-linejoin="round" stroke-width="3" d="M648.539-277.074c0 19.515 8.262 39.129 25.512 39.129h71.375c17.25 0 25.512-19.614 25.512-39.129 0-19.516-8.262-39.129-25.512-39.129h-71.375c-17.25 0-25.512 19.613-25.512 39.129"/><path fill="#d9b2b2" d="M657.043-277.074c0 12.832 3.648 26.375 14.746 26.375s14.746-13.543 14.746-26.375-3.648-26.375-14.746-26.375-14.746 13.543-14.746 26.375"/><path fill="none" stroke="#590000" stroke-linecap="round" stroke-linejoin="round" stroke-width="3" d="M657.043-277.074c0 12.832 3.648 26.375 14.746 26.375s14.746-13.543 14.746-26.375-3.648-26.375-14.746-26.375-14.746 13.543-14.746 26.375"/><path fill="#d9b2b2" d="M727.734-277.074c0 13.172 5.684 26.375 17.352 26.375 11.664 0 17.348-13.203 17.348-26.375s-5.684-26.375-17.348-26.375c-11.668 0-17.352 13.203-17.352 26.375"/><path fill="none" stroke="#590000" stroke-linecap="round" stroke-linejoin="round" stroke-width="3" d="M727.734-277.074c0 13.172 5.684 26.375 17.352 26.375 11.664 0 17.348-13.203 17.348-26.375s-5.684-26.375-17.348-26.375c-11.668 0-17.352 13.203-17.352 26.375"/><path fill="#d9b2b2" d="M79.77-393.602c0 14.024 9.77 26.375 23.199 26.375 13.433 0 23.203-12.351 23.203-26.375s-9.77-26.375-23.203-26.375c-13.43 0-23.2 12.352-23.2 26.375"/><path fill="none" stroke="#590000" stroke-linecap="round" stroke-linejoin="round" stroke-width="3" d="M79.77-393.602c0 14.024 9.77 26.375 23.199 26.375 13.433 0 23.203-12.351 23.203-26.375s-9.77-26.375-23.203-26.375c-13.43 0-23.2 12.352-23.2 26.375"/><path fill="#ffd9b2" d="M10.004-436.93h5.953c1.633 0 3.2.649 4.355 1.805l4.895 4.895c.996 1 2.613 1 3.61 0l4.894-4.895a6.16 6.16 0 0 1 4.355-1.805h747.329a2.55 2.55 0 0 0 2.55-2.55v-73.157a2.55 2.55 0 0 0-2.55-2.551H38.066a6.16 6.16 0 0 0-4.355 1.805l-4.895 4.895a2.554 2.554 0 0 1-3.609 0l-4.895-4.895a6.16 6.16 0 0 0-4.355-1.805H4.051a2.55 2.55 0 0 0-2.551 2.551v73.157c0 1.41 1.14 2.55 2.55 2.55z"/><path fill="none" stroke="#b25900" stroke-linecap="round" stroke-linejoin="round" stroke-width="3" d="M10.004-436.93h5.953c1.633 0 3.2.649 4.355 1.805l4.895 4.895c.996 1 2.613 1 3.61 0l4.894-4.895a6.16 6.16 0 0 1 4.355-1.805h747.329a2.55 2.55 0 0 0 2.55-2.55v-73.157a2.55 2.55 0 0 0-2.55-2.551H38.066a6.16 6.16 0 0 0-4.355 1.805l-4.895 4.895a2.554 2.554 0 0 1-3.609 0l-4.895-4.895a6.16 6.16 0 0 0-4.355-1.805H4.051a2.55 2.55 0 0 0-2.551 2.551v73.157c0 1.41 1.14 2.55 2.55 2.55z"/><path fill="#c6c6ff" d="M120.656-449.684h12.199a2.553 2.553 0 0 0 2.551-2.55v-47.649a2.554 2.554 0 0 0-2.551-2.551h-24.39a2.556 2.556 0 0 0-2.555 2.551v47.649a2.555 2.555 0 0 0 2.555 2.55z"/><path fill="none" stroke="#2d2db2" stroke-linecap="round" stroke-linejoin="round" stroke-width="3" d="M120.656-449.684h12.199a2.553 2.553 0 0 0 2.551-2.55v-47.649a2.554 2.554 0 0 0-2.551-2.551h-24.39a2.556 2.556 0 0 0-2.555 2.551v47.649a2.555 2.555 0 0 0 2.555 2.55z"/><path fill="#d9b2b2" d="M170.102-476.059c0 13.172 5.679 26.375 17.347 26.375 11.664 0 17.348-13.203 17.348-26.375 0-13.171-5.684-26.375-17.348-26.375-11.668 0-17.347 13.204-17.347 26.375"/><path fill="none" stroke="#590000" stroke-linecap="round" stroke-linejoin="round" stroke-width="3" d="M170.102-476.059c0 13.172 5.679 26.375 17.347 26.375 11.664 0 17.348-13.203 17.348-26.375 0-13.171-5.684-26.375-17.348-26.375-11.668 0-17.347 13.204-17.347 26.375"/><path fill="#ffd9b2" d="M10.004-518.133h5.953c1.633 0 3.2.649 4.355 1.805l4.895 4.894a2.554 2.554 0 0 0 3.61 0l4.894-4.894a6.16 6.16 0 0 1 4.355-1.805h747.329a2.553 2.553 0 0 0 2.55-2.551v-73.156a2.555 2.555 0 0 0-2.55-2.555H38.066a6.18 6.18 0 0 0-4.355 1.805l-4.895 4.899a2.554 2.554 0 0 1-3.609 0l-4.895-4.899a6.18 6.18 0 0 0-4.355-1.805H4.051A2.553 2.553 0 0 0 1.5-593.84v73.156a2.55 2.55 0 0 0 2.55 2.551z"/><path fill="none" stroke="#b25900" stroke-linecap="round" stroke-linejoin="round" stroke-width="3" d="M10.004-518.133h5.953c1.633 0 3.2.649 4.355 1.805l4.895 4.894a2.554 2.554 0 0 0 3.61 0l4.894-4.894a6.16 6.16 0 0 1 4.355-1.805h747.329a2.553 2.553 0 0 0 2.55-2.551v-73.156a2.555 2.555 0 0 0-2.55-2.555H38.066a6.18 6.18 0 0 0-4.355 1.805l-4.895 4.899a2.554 2.554 0 0 1-3.609 0l-4.895-4.899a6.18 6.18 0 0 0-4.355-1.805H4.051A2.553 2.553 0 0 0 1.5-593.84v73.156a2.55 2.55 0 0 0 2.55 2.551z"/><path fill="#c6c6ff" d="M147.648-530.891h39.184a2.55 2.55 0 0 0 2.551-2.55v-47.645a2.55 2.55 0 0 0-2.551-2.551h-78.367a2.553 2.553 0 0 0-2.555 2.551v47.645c0 1.41 1.145 2.55 2.555 2.55z"/><path fill="none" stroke="#2d2db2" stroke-linecap="round" stroke-linejoin="round" stroke-width="3" d="M147.648-530.891h39.184a2.55 2.55 0 0 0 2.551-2.55v-47.645a2.55 2.55 0 0 0-2.551-2.551h-78.367a2.553 2.553 0 0 0-2.555 2.551v47.645c0 1.41 1.145 2.55 2.555 2.55z"/><path fill="#d9b2b2" d="M224.078-557.262c0 13.172 5.684 26.371 17.348 26.371 11.668 0 17.347-13.199 17.347-26.371 0-13.176-5.679-26.375-17.347-26.375-11.664 0-17.348 13.199-17.348 26.375"/><path fill="none" stroke="#590000" stroke-linecap="round" stroke-linejoin="round" stroke-width="3" d="M224.078-557.262c0 13.172 5.684 26.371 17.348 26.371 11.668 0 17.347-13.199 17.347-26.371 0-13.176-5.679-26.375-17.347-26.375-11.664 0-17.348 13.199-17.348 26.375"/><path d="M47.723-65.48c0-1.29 0-2.247-1.051-3.18-.836-.762-1.91-1.098-2.961-1.098-1.961 0-3.469 1.29-3.469 2.844 0 .691.457 1.027 1.008 1.027.57 0 .977-.406.977-.98 0-.98-.86-.98-1.22-.98.552-1.005 1.7-1.434 2.653-1.434 1.102 0 2.512.91 2.512 3.058v.957c-4.805.07-6.621 2.079-6.621 3.918 0 1.891 2.199 2.489 3.656 2.489 1.578 0 2.652-.957 3.105-2.106.098 1.125.836 1.985 1.868 1.985.5 0 1.886-.336 1.886-2.247v-1.34h-.527v1.34c0 1.364-.57 1.555-.906 1.555-.91 0-.91-1.27-.91-1.625zm-1.551 3.011c0 2.34-1.746 3.13-2.774 3.13-1.171 0-2.148-.86-2.148-2.009 0-3.152 4.063-3.441 4.922-3.488zm11.293-6.906v.691c1.625 0 1.816.168 1.816 1.34v4.278c0 2.03-1.078 3.726-2.867 3.726-1.96 0-2.078-1.12-2.078-2.387v-7.914l-3.371.266v.691c1.816 0 1.816.075 1.816 2.2v3.586c0 1.48 0 2.34.719 3.129.57.62 1.55.91 2.77.91.406 0 1.171 0 1.984-.696.691-.547 1.074-1.457 1.074-1.457v2.153l3.32-.243v-.691c-1.625 0-1.812-.168-1.812-1.34v-8.508zm22.871 4.469c0-2.223 0-2.89-.55-3.656-.696-.934-1.817-1.079-2.63-1.079-1.984 0-2.988 1.438-3.37 2.368-.333-1.84-1.626-2.368-3.13-2.368-2.32 0-3.226 1.985-3.418 2.465h-.023v-2.465l-3.25.266v.691c1.625 0 1.816.168 1.816 1.34v6.477c0 1.074-.262 1.074-1.816 1.074v.691c.62-.046 1.91-.046 2.582-.046.691 0 1.984 0 2.601.046v-.691c-1.527 0-1.812 0-1.812-1.074v-4.446c0-2.507 1.648-3.847 3.129-3.847 1.48 0 1.816 1.219 1.816 2.676v5.617c0 1.074-.265 1.074-1.816 1.074v.691c.62-.046 1.91-.046 2.582-.046.691 0 1.98 0 2.601.046v-.691c-1.527 0-1.812 0-1.812-1.074v-4.446c0-2.507 1.648-3.847 3.129-3.847 1.48 0 1.816 1.219 1.816 2.676v5.617c0 1.074-.265 1.074-1.816 1.074v.691c.62-.046 1.91-.046 2.582-.046.691 0 1.98 0 2.601.046v-.691c-1.195 0-1.789 0-1.812-.715zm11.516.262c.527 0 .574 0 .574-.454 0-2.414-1.29-4.66-4.184-4.66-2.723 0-4.824 2.461-4.824 5.426 0 3.152 2.438 5.473 5.09 5.473 2.844 0 3.918-2.582 3.918-3.086 0-.14-.121-.239-.262-.239-.191 0-.242.121-.289.239-.621 2.008-2.219 2.558-3.227 2.558-1 0-3.414-.668-3.414-4.804v-.453zm-6.594-.454c.191-3.754 2.293-4.183 2.96-4.183 2.56 0 2.704 3.37 2.727 4.183zm18.476.192c0-2.223 0-2.89-.55-3.656-.692-.934-1.817-1.079-2.629-1.079-2.317 0-3.227 1.985-3.414 2.465h-.028v-2.465l-3.25.266v.691c1.625 0 1.817.168 1.817 1.34v6.477c0 1.074-.262 1.074-1.817 1.074v.691c.621-.046 1.914-.046 2.582-.046.696 0 1.985 0 2.606.046v-.691c-1.532 0-1.817 0-1.817-1.074v-4.446c0-2.507 1.649-3.847 3.129-3.847 1.485 0 1.817 1.219 1.817 2.676v5.617c0 1.074-.262 1.074-1.817 1.074v.691c.621-.046 1.914-.046 2.582-.046.696 0 1.985 0 2.606.046v-.691c-1.196 0-1.793 0-1.817-.715zm5.782-3.801h3.367v-.691h-3.367v-4.399h-.528c-.023 2.246-.883 4.54-3.058 4.613v.477h2.031v6.644c0 2.653 1.769 3.204 3.035 3.204 1.508 0 2.293-1.485 2.293-3.203v-1.364h-.523v1.317c0 1.718-.696 2.722-1.625 2.722-1.625 0-1.625-2.222-1.625-2.629zm14.308 3.227c0-1.29 0-2.247-1.051-3.18-.835-.762-1.914-1.098-2.964-1.098-1.957 0-3.465 1.29-3.465 2.844 0 .691.453 1.027 1.004 1.027.574 0 .98-.406.98-.98 0-.98-.859-.98-1.219-.98.551-1.005 1.696-1.434 2.653-1.434 1.097 0 2.508.91 2.508 3.058v.957c-4.801.07-6.618 2.079-6.618 3.918 0 1.891 2.2 2.489 3.657 2.489 1.574 0 2.652-.957 3.105-2.106.094 1.125.836 1.985 1.863 1.985.504 0 1.887-.336 1.887-2.247v-1.34h-.523v1.34c0 1.364-.575 1.555-.907 1.555-.91 0-.91-1.27-.91-1.625zm-1.554 3.011c0 2.34-1.743 3.13-2.774 3.13-1.168 0-2.148-.86-2.148-2.009 0-3.152 4.062-3.441 4.922-3.488zm31.187-11.351c0-.621-.5-1.172-1.168-1.172-.625 0-1.148.504-1.148 1.148 0 .715.574 1.172 1.148 1.172.738 0 1.168-.625 1.168-1.148m-3.297 4.445v.691c1.528 0 1.746.145 1.746 1.317v6.5c0 1.074-.265 1.074-1.816 1.074v.691c.668-.046 1.816-.046 2.508-.046.261 0 1.648 0 2.461.046v-.691c-1.551 0-1.649-.121-1.649-1.05v-8.798zm35.809-6.047v.695c1.625 0 1.816.165 1.816 1.336v5.282c-.504-.692-1.527-1.532-2.988-1.532-2.77 0-5.16 2.344-5.16 5.403 0 3.035 2.269 5.379 4.898 5.379 1.817 0 2.867-1.196 3.203-1.649v1.649l3.367-.243v-.691c-1.625 0-1.816-.168-1.816-1.34v-14.55zm1.769 13.527c0 .43 0 .5-.336 1.028-.574.836-1.55 1.527-2.746 1.527-.625 0-3.203-.238-3.203-4.875 0-1.719.285-2.676.813-3.465.476-.742 1.433-1.48 2.629-1.48 1.48 0 2.316 1.074 2.554 1.457.289.406.289.453.289.883zm8.219-11.925c0-.621-.5-1.172-1.168-1.172-.625 0-1.148.504-1.148 1.148 0 .715.574 1.172 1.148 1.172.738 0 1.168-.625 1.168-1.148m-3.297 4.445v.691c1.528 0 1.746.145 1.746 1.317v6.5c0 1.074-.265 1.074-1.816 1.074v.691c.668-.046 1.816-.046 2.508-.046.261 0 1.648 0 2.461.046v-.691c-1.551 0-1.649-.121-1.649-1.05v-8.798zm35.524-5.043c0-.55 0-.574-.481-.574-.57.648-1.765 1.531-4.226 1.531v.692c.546 0 1.742 0 3.054-.622v12.45c0 .863-.07 1.148-2.172 1.148h-.742v.691c.645-.046 2.965-.046 3.754-.046.785 0 3.082 0 3.727.046v-.691h-.743c-2.101 0-2.171-.285-2.171-1.148zM73.223-163.68c0-1.289 0-2.246-1.051-3.179-.836-.762-1.91-1.098-2.961-1.098-1.961 0-3.469 1.289-3.469 2.844 0 .691.457 1.027 1.008 1.027.57 0 .977-.406.977-.98 0-.981-.86-.981-1.22-.981.552-1.004 1.7-1.433 2.653-1.433 1.102 0 2.512.91 2.512 3.058v.957c-4.805.07-6.621 2.078-6.621 3.918 0 1.891 2.199 2.484 3.656 2.484 1.578 0 2.652-.953 3.106-2.101.097 1.125.835 1.984 1.867 1.984.5 0 1.886-.336 1.886-2.246v-1.34h-.527v1.34c0 1.363-.57 1.555-.906 1.555-.91 0-.91-1.27-.91-1.625zm-1.551 3.012c0 2.34-1.746 3.129-2.774 3.129-1.171 0-2.148-.859-2.148-2.008 0-3.152 4.063-3.441 4.922-3.488zm11.293-6.906v.691c1.625 0 1.816.168 1.816 1.34v4.277c0 2.032-1.078 3.727-2.867 3.727-1.96 0-2.078-1.125-2.078-2.391v-7.91l-3.371.266v.691c1.816 0 1.816.07 1.816 2.199v3.582c0 1.485 0 2.344.719 3.133.57.621 1.55.906 2.77.906.406 0 1.171 0 1.984-.691.691-.551 1.074-1.461 1.074-1.461v2.152l3.32-.238v-.691c-1.625 0-1.812-.168-1.812-1.34v-8.508zm22.871 4.469c0-2.223 0-2.891-.551-3.657-.695-.933-1.816-1.078-2.629-1.078-1.984 0-2.988 1.434-3.37 2.367-.333-1.84-1.626-2.367-3.13-2.367-2.32 0-3.226 1.985-3.418 2.461h-.023v-2.461l-3.25.266v.691c1.625 0 1.816.168 1.816 1.34v6.473c0 1.078-.262 1.078-1.816 1.078v.691c.62-.047 1.91-.047 2.582-.047.691 0 1.984 0 2.601.047v-.691c-1.527 0-1.812 0-1.812-1.078v-4.442c0-2.511 1.648-3.847 3.129-3.847 1.48 0 1.816 1.218 1.816 2.675v5.614c0 1.078-.265 1.078-1.816 1.078v.691c.62-.047 1.91-.047 2.582-.047.691 0 1.98 0 2.601.047v-.691c-1.527 0-1.812 0-1.812-1.078v-4.442c0-2.511 1.648-3.847 3.129-3.847 1.48 0 1.816 1.218 1.816 2.675v5.614c0 1.078-.265 1.078-1.816 1.078v.691c.621-.047 1.914-.047 2.582-.047.691 0 1.98 0 2.601.047v-.691c-1.195 0-1.789 0-1.812-.719zm11.516.261c.527 0 .574 0 .574-.453 0-2.414-1.289-4.66-4.184-4.66-2.722 0-4.824 2.461-4.824 5.426 0 3.152 2.437 5.468 5.09 5.468 2.844 0 3.918-2.578 3.918-3.082 0-.144-.121-.238-.262-.238-.191 0-.242.121-.285.238-.625 2.008-2.223 2.555-3.231 2.555-1 0-3.414-.668-3.414-4.801v-.453zm-6.594-.453c.191-3.754 2.293-4.183 2.961-4.183 2.558 0 2.703 3.371 2.726 4.183zm18.476.192c0-2.223 0-2.891-.55-3.657-.692-.933-1.817-1.078-2.629-1.078-2.317 0-3.227 1.985-3.414 2.461h-.028v-2.461l-3.25.266v.691c1.625 0 1.817.168 1.817 1.34v6.473c0 1.078-.262 1.078-1.817 1.078v.691c.621-.047 1.914-.047 2.582-.047.696 0 1.985 0 2.606.047v-.691c-1.531 0-1.817 0-1.817-1.078v-4.442c0-2.511 1.649-3.847 3.129-3.847 1.485 0 1.817 1.218 1.817 2.675v5.614c0 1.078-.262 1.078-1.817 1.078v.691c.621-.047 1.914-.047 2.582-.047.696 0 1.985 0 2.606.047v-.691c-1.196 0-1.793 0-1.817-.719zm5.782-3.801h3.367v-.696h-3.367v-4.394h-.528c-.023 2.246-.883 4.539-3.058 4.613v.477h2.031v6.644c0 2.653 1.769 3.199 3.035 3.199 1.508 0 2.293-1.48 2.293-3.199v-1.363h-.523v1.312c0 1.723-.696 2.723-1.625 2.723-1.625 0-1.625-2.219-1.625-2.625zm14.308 3.226c0-1.289 0-2.246-1.051-3.179-.835-.762-1.914-1.098-2.964-1.098-1.957 0-3.465 1.289-3.465 2.844 0 .691.453 1.027 1.004 1.027.574 0 .98-.406.98-.98 0-.981-.859-.981-1.219-.981.551-1.004 1.696-1.433 2.653-1.433 1.097 0 2.508.91 2.508 3.058v.957c-4.801.07-6.618 2.078-6.618 3.918 0 1.891 2.2 2.484 3.657 2.484 1.574 0 2.652-.953 3.105-2.101.094 1.125.836 1.984 1.863 1.984.504 0 1.887-.336 1.887-2.246v-1.34h-.523v1.34c0 1.363-.575 1.555-.907 1.555-.91 0-.91-1.27-.91-1.625zm-1.554 3.012c0 2.34-1.743 3.129-2.774 3.129-1.168 0-2.148-.859-2.148-2.008 0-3.152 4.062-3.441 4.922-3.488zm36.781-4.66c.215-.527.621-1.555 2.148-1.578v-.696c-.691.051-1.027.051-1.765.051-.504 0-.864 0-1.961-.051v.696c1.004.047 1.121.765 1.121 1.027 0 .215-.047.336-.164.621l-2.438 6.164-2.679-6.738c-.118-.332-.141-.332-.141-.453 0-.621.906-.621 1.336-.621v-.696c-.594.051-1.84.051-2.485.051-.789 0-.835 0-2.293-.051v.696c1.34 0 1.579.093 1.864.836l3.418 8.554c.121.336.168.453.453.453.168 0 .312-.046.48-.453zm10.57 1.648c0-1.289 0-2.246-1.047-3.179-.84-.762-1.914-1.098-2.965-1.098-1.961 0-3.464 1.289-3.464 2.844 0 .691.453 1.027 1.003 1.027.575 0 .981-.406.981-.98 0-.981-.863-.981-1.219-.981.551-1.004 1.695-1.433 2.653-1.433 1.097 0 2.507.91 2.507 3.058v.957c-4.804.07-6.617 2.078-6.617 3.918 0 1.891 2.195 2.484 3.656 2.484 1.575 0 2.653-.953 3.106-2.101.094 1.125.836 1.984 1.863 1.984.5 0 1.887-.336 1.887-2.246v-1.34h-.524v1.34c0 1.363-.574 1.555-.91 1.555-.91 0-.91-1.27-.91-1.625zm-1.551 3.012c0 2.34-1.742 3.129-2.773 3.129-1.168 0-2.149-.859-2.149-2.008 0-3.152 4.063-3.441 4.922-3.488zm8.141-13.215-3.32.262v.691c1.625 0 1.812.168 1.812 1.34v12.52c0 1.078-.262 1.078-1.812 1.078v.691c.668-.047 1.836-.047 2.554-.047.719 0 1.914 0 2.582.047v-.691c-1.531 0-1.816 0-1.816-1.078zm13.359 11.469c0-3.082-2.343-5.543-5.117-5.543-2.863 0-5.137 2.531-5.137 5.543 0 3.059 2.391 5.351 5.114 5.351 2.82 0 5.14-2.339 5.14-5.351m-5.117 4.824c-.883 0-1.957-.379-2.652-1.551-.645-1.074-.668-2.484-.668-3.488 0-.91 0-2.367.738-3.441a3.07 3.07 0 0 1 2.559-1.41c.933 0 1.937.429 2.582 1.363.742 1.097.742 2.605.742 3.488 0 .836 0 2.316-.621 3.441-.668 1.149-1.77 1.598-2.68 1.598m9.836-5.277c0-2.321.957-4.492 2.797-4.492.191 0 .238 0 .336.023-.192.094-.574.238-.574.883 0 .695.55.957.933.957.477 0 .953-.313.953-.957 0-.715-.644-1.387-1.671-1.387-2.032 0-2.723 2.199-2.868 2.652h-.023v-2.652l-3.203.266v.691c1.625 0 1.816.168 1.816 1.34v6.473c0 1.078-.262 1.078-1.816 1.078v.691c.668-.047 1.984-.047 2.699-.047.645 0 2.344 0 2.895.047v-.691h-.481c-1.742 0-1.793-.266-1.793-1.125zm14.266.023c.523 0 .574 0 .574-.453 0-2.414-1.293-4.66-4.184-4.66-2.726 0-4.828 2.461-4.828 5.426 0 3.152 2.438 5.468 5.09 5.468 2.844 0 3.922-2.578 3.922-3.082 0-.144-.121-.238-.266-.238-.191 0-.242.121-.285.238-.625 2.008-2.223 2.555-3.226 2.555s-3.418-.668-3.418-4.801v-.453zm-6.598-.453c.191-3.754 2.297-4.183 2.965-4.183 2.555 0 2.699 3.371 2.723 4.183zm38.012-10.324v.691c1.625 0 1.816.168 1.816 1.34v5.281c-.504-.695-1.527-1.531-2.988-1.531-2.77 0-5.16 2.344-5.16 5.402 0 3.036 2.269 5.375 4.898 5.375 1.817 0 2.867-1.195 3.203-1.648v1.648l3.367-.238v-.691c-1.625 0-1.816-.168-1.816-1.34v-14.551zm1.769 13.527c0 .43 0 .5-.336 1.024-.574.84-1.55 1.531-2.746 1.531-.625 0-3.203-.238-3.203-4.875 0-1.719.285-2.676.813-3.465.476-.742 1.433-1.48 2.629-1.48 1.48 0 2.316 1.074 2.554 1.457.289.406.289.453.289.882zm8.219-11.926c0-.621-.5-1.171-1.168-1.171-.625 0-1.148.503-1.148 1.148 0 .715.574 1.172 1.148 1.172.738 0 1.168-.625 1.168-1.149m-3.297 4.446v.691c1.528 0 1.746.145 1.746 1.313v6.5c0 1.078-.265 1.078-1.816 1.078v.691c.668-.047 1.816-.047 2.508-.047.261 0 1.648 0 2.461.047v-.691c-1.551 0-1.649-.121-1.649-1.051v-8.797zm35.524-5.043c0-.551 0-.574-.481-.574-.57.644-1.765 1.527-4.226 1.527v.695c.546 0 1.742 0 3.054-.621v12.449c0 .86-.07 1.149-2.172 1.149h-.742v.691c.645-.047 2.965-.047 3.754-.047.785 0 3.082 0 3.727.047v-.691h-.743c-2.101 0-2.171-.289-2.171-1.149zM46.336-281.207c0-.434 0-.551-.238-.551-.192 0-.645.524-.813.742-.738-.597-1.48-.742-2.246-.742-2.89 0-3.75 1.578-3.75 2.891 0 .265 0 1.101.906 1.937.766.668 1.578.836 2.68 1.051 1.313.262 1.625.332 2.219.813.43.359.742.882.742 1.55 0 1.032-.598 2.176-2.7 2.176-1.577 0-2.722-.906-3.25-3.297-.097-.429-.097-.453-.12-.476-.047-.098-.141-.098-.215-.098-.262 0-.262.121-.262.551v3.25c0 .43 0 .551.238.551.121 0 .145-.024.551-.528.117-.168.117-.215.477-.597.906 1.125 2.199 1.125 2.605 1.125 2.508 0 3.75-1.387 3.75-3.274 0-1.293-.785-2.058-1.004-2.273-.86-.739-1.504-.883-3.082-1.172-.715-.141-2.46-.477-2.46-1.91 0-.739.503-1.84 2.652-1.84 2.605 0 2.75 2.223 2.797 2.965.023.191.19.191.261.191.262 0 .262-.121.262-.551zm10.516 4.562c.527 0 .574 0 .574-.453 0-2.414-1.29-4.66-4.184-4.66-2.722 0-4.824 2.461-4.824 5.426 0 3.152 2.438 5.473 5.09 5.473 2.844 0 3.918-2.582 3.918-3.086 0-.145-.121-.239-.262-.239-.191 0-.242.121-.289.239-.621 2.007-2.219 2.558-3.227 2.558-1 0-3.414-.668-3.414-4.804v-.454zm-6.594-.453c.191-3.754 2.293-4.183 2.96-4.183 2.56 0 2.704 3.371 2.727 4.183zm47.992-2.843c-.285 0-1.172 0-1.172.976 0 .574.406.981.98.981.551 0 1.004-.332 1.004-1.024 0-1.601-1.671-2.75-3.609-2.75-2.793 0-5.016 2.485-5.016 5.496 0 3.059 2.294 5.403 4.993 5.403 3.156 0 3.87-2.868 3.87-3.086 0-.215-.167-.215-.237-.215-.215 0-.239.07-.31.359-.526 1.699-1.815 2.414-3.109 2.414-1.457 0-3.39-1.265-3.39-4.898 0-3.969 2.031-4.949 3.223-4.949.91 0 2.226.363 2.773 1.293m5.906-5.879c0-.621-.5-1.172-1.168-1.172a1.15 1.15 0 0 0-1.148 1.148c0 .715.574 1.172 1.148 1.172.739 0 1.168-.625 1.168-1.148m-3.297 4.445v.691c1.532 0 1.746.145 1.746 1.317v6.5c0 1.074-.261 1.074-1.816 1.074v.691c.668-.046 1.816-.046 2.508-.046.266 0 1.648 0 2.461.046v-.691c-1.551 0-1.649-.121-1.649-1.051v-8.797zm9.633-6.309-3.324.262v.695c1.625 0 1.816.164 1.816 1.336v14.289h.528c.093-.187.761-1.382.859-1.55.551.882 1.578 1.793 3.106 1.793 2.75 0 5.164-2.321 5.164-5.403 0-3.035-2.246-5.379-4.899-5.379-1.316 0-2.437.602-3.25 1.602zm.047 8.938c0-.43 0-.481.262-.863.574-.86 1.625-1.551 2.797-1.551.715 0 3.226.289 3.226 4.875 0 1.601-.238 2.605-.812 3.465-.481.742-1.434 1.48-2.629 1.48-1.289 0-2.129-.836-2.535-1.48-.309-.5-.309-.598-.309-1.004zm20.629 2.531c0-3.082-2.34-5.543-5.113-5.543-2.867 0-5.137 2.531-5.137 5.543 0 3.059 2.387 5.356 5.113 5.356 2.821 0 5.137-2.344 5.137-5.356m-5.113 4.828c-.883 0-1.961-.383-2.653-1.554-.644-1.075-.668-2.485-.668-3.489 0-.91 0-2.367.739-3.441a3.06 3.06 0 0 1 2.558-1.41c.934 0 1.938.429 2.578 1.363.743 1.098.743 2.605.743 3.488 0 .836 0 2.321-.622 3.442-.667 1.148-1.765 1.601-2.675 1.601m17.804-14.433c0-.621-.504-1.172-1.171-1.172a1.15 1.15 0 0 0-1.149 1.148c0 .715.574 1.172 1.149 1.172.742 0 1.171-.625 1.171-1.148m-3.296 4.445v.691c1.527 0 1.742.145 1.742 1.317v6.5c0 1.074-.262 1.074-1.817 1.074v.691c.668-.046 1.817-.046 2.508-.046.266 0 1.652 0 2.465.046v-.691c-1.555 0-1.648-.121-1.648-1.051v-8.797zm16.273 4.469c0-2.223 0-2.891-.551-3.657-.695-.933-1.816-1.078-2.629-1.078-2.316 0-3.226 1.985-3.418 2.465h-.023v-2.465l-3.25.266v.691c1.625 0 1.816.168 1.816 1.34v6.477c0 1.074-.261 1.074-1.816 1.074v.691c.621-.046 1.914-.046 2.582-.046.691 0 1.984 0 2.601.046v-.691c-1.527 0-1.812 0-1.812-1.074v-4.446c0-2.507 1.648-3.847 3.129-3.847 1.48 0 1.816 1.219 1.816 2.676v5.617c0 1.074-.265 1.074-1.816 1.074v.691c.621-.046 1.914-.046 2.582-.046.691 0 1.98 0 2.601.046v-.691c-1.195 0-1.789 0-1.812-.715zm16.019 9.75c-1.531 0-1.816 0-1.816-1.078v-4.157c.43.598 1.41 1.532 2.938 1.532 2.75 0 5.164-2.321 5.164-5.403 0-3.035-2.246-5.379-4.852-5.379-2.101 0-3.226 1.508-3.297 1.602v-1.602l-3.324.266v.691c1.676 0 1.816.168 1.816 1.219v11.231c0 1.078-.261 1.078-1.816 1.078v.691c.621-.047 1.914-.047 2.582-.047.691 0 1.984 0 2.605.047zm-1.816-11.567c0-.453 0-.48.262-.859.719-1.078 1.887-1.531 2.797-1.531 1.793 0 3.226 2.175 3.226 4.851 0 2.844-1.625 4.922-3.465 4.922a2.83 2.83 0 0 1-1.914-.762c-.547-.55-.906-1.031-.906-1.699zm20.629 2.508c0-3.082-2.34-5.543-5.113-5.543-2.867 0-5.137 2.531-5.137 5.543 0 3.059 2.387 5.356 5.113 5.356 2.821 0 5.137-2.344 5.137-5.356m-5.113 4.828c-.883 0-1.961-.383-2.653-1.554-.644-1.075-.668-2.485-.668-3.489 0-.91 0-2.367.739-3.441a3.06 3.06 0 0 1 2.558-1.41c.934 0 1.938.429 2.578 1.363.743 1.098.743 2.605.743 3.488 0 .836 0 2.321-.622 3.442-.667 1.148-1.765 1.601-2.675 1.601m13.683-9.82c0-.434 0-.551-.242-.551-.187 0-.641.524-.808.742-.743-.597-1.485-.742-2.247-.742-2.894 0-3.753 1.578-3.753 2.891 0 .265 0 1.101.91 1.937.761.668 1.574.836 2.675 1.051 1.317.262 1.625.332 2.223.813.43.359.738.882.738 1.55 0 1.032-.593 2.176-2.699 2.176-1.574 0-2.722-.906-3.25-3.297-.094-.429-.094-.453-.117-.476-.051-.098-.145-.098-.215-.098-.265 0-.265.121-.265.551v3.25c0 .43 0 .551.242.551.117 0 .14-.024.547-.528.121-.168.121-.215.476-.597.91 1.125 2.199 1.125 2.606 1.125 2.511 0 3.754-1.387 3.754-3.274 0-1.293-.79-2.058-1.004-2.273-.86-.739-1.504-.883-3.082-1.172-.719-.141-2.461-.477-2.461-1.91 0-.739.5-1.84 2.652-1.84 2.605 0 2.746 2.223 2.797 2.965.019.191.187.191.262.191.261 0 .261-.121.261-.551zm5.52-4.613c0-.621-.5-1.172-1.168-1.172-.625 0-1.149.504-1.149 1.148 0 .715.575 1.172 1.149 1.172.738 0 1.168-.625 1.168-1.148m-3.297 4.445v.691c1.527 0 1.742.145 1.742 1.317v6.5c0 1.074-.262 1.074-1.812 1.074v.691c.668-.046 1.812-.046 2.507-.046.262 0 1.649 0 2.461.046v-.691c-1.554 0-1.648-.121-1.648-1.051v-8.797zm14.742.645c.219-.262.219-.309.219-.407 0-.261-.168-.261-.574-.261h-7.504l-.266 3.796h.527c.141-2.437.598-3.32 3.204-3.32h2.769l-6.832 9.391c0 .429.047.429.574.429h7.789l.383-4.394h-.527c-.215 2.723-.621 3.871-3.465 3.871h-2.891zm5.453-5.09c0-.621-.5-1.172-1.168-1.172a1.15 1.15 0 0 0-1.148 1.148c0 .715.574 1.172 1.148 1.172.739 0 1.168-.625 1.168-1.148m-3.297 4.445v.691c1.532 0 1.746.145 1.746 1.317v6.5c0 1.074-.261 1.074-1.816 1.074v.691c.668-.046 1.816-.046 2.508-.046.266 0 1.648 0 2.461.046v-.691c-1.551 0-1.649-.121-1.649-1.051v-8.797zm16.61 5.16c0-3.082-2.34-5.543-5.114-5.543-2.867 0-5.136 2.531-5.136 5.543 0 3.059 2.386 5.356 5.113 5.356 2.816 0 5.137-2.344 5.137-5.356m-5.114 4.828c-.886 0-1.96-.383-2.652-1.554-.648-1.075-.672-2.485-.672-3.489 0-.91 0-2.367.742-3.441a3.06 3.06 0 0 1 2.559-1.41c.93 0 1.934.429 2.578 1.363.742 1.098.742 2.605.742 3.488 0 .836 0 2.321-.621 3.442-.668 1.148-1.769 1.601-2.676 1.601m16.481-5.519c0-2.223 0-2.891-.551-3.657-.695-.933-1.816-1.078-2.629-1.078-2.316 0-3.226 1.985-3.418 2.465h-.023v-2.465l-3.25.266v.691c1.625 0 1.816.168 1.816 1.34v6.477c0 1.074-.261 1.074-1.816 1.074v.691c.621-.046 1.914-.046 2.582-.046.691 0 1.984 0 2.601.046v-.691c-1.527 0-1.812 0-1.812-1.074v-4.446c0-2.507 1.648-3.847 3.129-3.847 1.48 0 1.816 1.219 1.816 2.676v5.617c0 1.074-.265 1.074-1.816 1.074v.691c.621-.046 1.914-.046 2.582-.046.691 0 1.98 0 2.601.046v-.691c-1.195 0-1.789 0-1.812-.715zm11.516.261c.527 0 .574 0 .574-.453 0-2.414-1.289-4.66-4.184-4.66-2.722 0-4.824 2.461-4.824 5.426 0 3.152 2.437 5.473 5.09 5.473 2.844 0 3.918-2.582 3.918-3.086 0-.145-.121-.239-.262-.239-.191 0-.242.121-.285.239-.625 2.007-2.223 2.558-3.231 2.558-1 0-3.414-.668-3.414-4.804v-.454zm-6.594-.453c.191-3.754 2.293-4.183 2.961-4.183 2.558 0 2.703 3.371 2.726 4.183zm35-8.722c0-.621-.5-1.172-1.168-1.172-.625 0-1.149.504-1.149 1.148 0 .715.575 1.172 1.149 1.172.738 0 1.168-.625 1.168-1.148m-3.297 4.445v.691c1.527 0 1.742.145 1.742 1.317v6.5c0 1.074-.262 1.074-1.812 1.074v.691c.668-.046 1.812-.046 2.507-.046.262 0 1.649 0 2.461.046v-.691c-1.554 0-1.648-.121-1.648-1.051v-8.797zm43.016-1.938.382-.359-2.843-3.68c-.121-.14-.336-.406-.672-.406-.406 0-.813.36-.813.789 0 .242.098.453.336.649zm3.277 6.668c.523 0 .574 0 .574-.453 0-2.414-1.293-4.66-4.183-4.66-2.723 0-4.829 2.461-4.829 5.426 0 3.152 2.438 5.473 5.09 5.473 2.844 0 3.922-2.582 3.922-3.086 0-.145-.121-.239-.265-.239-.192 0-.239.121-.286.239-.621 2.007-2.222 2.558-3.226 2.558s-3.418-.668-3.418-4.804v-.454zm-6.598-.453c.192-3.754 2.297-4.183 2.965-4.183 2.555 0 2.699 3.371 2.723 4.183zm22.914-10.324v.695c1.625 0 1.817.164 1.817 1.336v5.282c-.504-.692-1.532-1.532-2.989-1.532-2.769 0-5.164 2.344-5.164 5.403 0 3.035 2.274 5.379 4.903 5.379 1.816 0 2.867-1.196 3.203-1.649v1.649l3.367-.243v-.691c-1.625 0-1.816-.168-1.816-1.34v-14.551zm1.77 13.527c0 .43 0 .5-.336 1.028-.574.836-1.555 1.527-2.75 1.527-.621 0-3.199-.238-3.199-4.875 0-1.719.285-2.676.812-3.465.477-.742 1.43-1.48 2.625-1.48 1.485 0 2.321 1.074 2.559 1.457.289.406.289.457.289.883zm8.219-11.925c0-.621-.504-1.172-1.172-1.172-.621 0-1.145.504-1.145 1.148 0 .715.571 1.172 1.145 1.172.742 0 1.172-.625 1.172-1.148m-3.297 4.445v.691c1.527 0 1.742.145 1.742 1.317v6.5c0 1.074-.262 1.074-1.816 1.074v.691c.671-.046 1.816-.046 2.511-.046.262 0 1.649 0 2.461.046v-.691c-1.555 0-1.648-.121-1.648-1.051v-8.797zm15.386 2.246c.219-.527.625-1.555 2.153-1.578v-.691c-.692.046-1.028.046-1.77.046-.5 0-.859 0-1.957-.046v.691c1.004.047 1.121.766 1.121 1.027 0 .215-.047.336-.168.621l-2.437 6.168-2.676-6.742c-.117-.332-.141-.332-.141-.453 0-.621.907-.621 1.336-.621v-.691c-.597.046-1.839.046-2.484.046-.789 0-.836 0-2.297-.046v.691c1.34 0 1.578.098 1.867.836l3.414 8.555c.121.336.168.457.457.457.168 0 .313-.051.477-.457zm11.106 2.484c.523 0 .574 0 .574-.453 0-2.414-1.293-4.66-4.183-4.66-2.723 0-4.829 2.461-4.829 5.426 0 3.152 2.438 5.473 5.09 5.473 2.844 0 3.922-2.582 3.922-3.086 0-.145-.121-.239-.265-.239-.192 0-.239.121-.286.239-.621 2.007-2.222 2.558-3.226 2.558s-3.418-.668-3.418-4.804v-.454zm-6.598-.453c.192-3.754 2.297-4.183 2.965-4.183 2.555 0 2.699 3.371 2.723 4.183zm11.836.43c0-2.316.953-4.492 2.793-4.492.192 0 .238 0 .336.023-.191.098-.574.239-.574.883 0 .695.551.957.933.957.477 0 .958-.312.958-.957 0-.715-.649-1.387-1.676-1.387-2.032 0-2.723 2.2-2.867 2.657h-.024v-2.657l-3.203.266v.691c1.625 0 1.816.168 1.816 1.34v6.477c0 1.074-.261 1.074-1.816 1.074v.691c.672-.046 1.984-.046 2.699-.046.649 0 2.344 0 2.895.046v-.691h-.481c-1.742 0-1.789-.262-1.789-1.121zm12.946-4.539c0-.434 0-.551-.239-.551-.191 0-.644.524-.812.742-.742-.597-1.481-.742-2.246-.742-2.895 0-3.75 1.578-3.75 2.891 0 .265 0 1.101.906 1.937.766.668 1.574.836 2.676 1.051 1.316.262 1.625.332 2.222.813.43.359.743.882.743 1.55 0 1.032-.598 2.176-2.704 2.176-1.574 0-2.722-.906-3.25-3.297-.093-.429-.093-.453-.117-.476-.047-.098-.144-.098-.215-.098-.261 0-.261.121-.261.551v3.25c0 .43 0 .551.238.551.117 0 .141-.024.547-.528.121-.168.121-.215.48-.597.907 1.125 2.196 1.125 2.602 1.125 2.512 0 3.754-1.387 3.754-3.274 0-1.293-.789-2.058-1.004-2.273-.86-.739-1.504-.883-3.082-1.172-.719-.141-2.461-.477-2.461-1.91 0-.739.5-1.84 2.652-1.84 2.606 0 2.746 2.223 2.797 2.965.024.191.188.191.262.191.262 0 .262-.121.262-.551zm12.332 4.992c0-3.082-2.344-5.543-5.114-5.543-2.867 0-5.14 2.531-5.14 5.543 0 3.059 2.39 5.356 5.117 5.356 2.816 0 5.137-2.344 5.137-5.356m-5.114 4.828c-.886 0-1.961-.383-2.652-1.554-.649-1.075-.672-2.485-.672-3.489 0-.91 0-2.367.742-3.441a3.06 3.06 0 0 1 2.559-1.41c.93 0 1.933.429 2.578 1.363.742 1.098.742 2.605.742 3.488 0 .836 0 2.321-.621 3.442-.668 1.148-1.769 1.601-2.676 1.601m20.813-16.035v.695c1.625 0 1.816.164 1.816 1.336v5.282c-.504-.692-1.527-1.532-2.988-1.532-2.77 0-5.16 2.344-5.16 5.403 0 3.035 2.269 5.379 4.898 5.379 1.817 0 2.867-1.196 3.203-1.649v1.649l3.367-.243v-.691c-1.625 0-1.812-.168-1.812-1.34v-14.551zm1.769 13.527c0 .43 0 .5-.336 1.028-.574.836-1.55 1.527-2.746 1.527-.625 0-3.203-.238-3.203-4.875 0-1.719.285-2.676.813-3.465.476-.742 1.433-1.48 2.629-1.48 1.48 0 2.316 1.074 2.554 1.457.289.406.289.457.289.883zm13.285-3.585c0-1.29 0-2.247-1.05-3.18-.836-.762-1.91-1.098-2.965-1.098-1.957 0-3.465 1.289-3.465 2.844 0 .691.453 1.027 1.004 1.027.574 0 .98-.406.98-.98 0-.981-.859-.981-1.218-.981.55-1.004 1.699-1.433 2.652-1.433 1.102 0 2.508.91 2.508 3.058v.957c-4.801.071-6.617 2.078-6.617 3.918 0 1.891 2.199 2.489 3.656 2.489 1.578 0 2.652-.957 3.105-2.106.098 1.125.836 1.985 1.864 1.985.503 0 1.89-.336 1.89-2.247v-1.339h-.527v1.339c0 1.364-.574 1.555-.906 1.555-.911 0-.911-1.269-.911-1.625zm-1.554 3.011c0 2.34-1.742 3.129-2.77 3.129-1.172 0-2.152-.859-2.152-2.008 0-3.152 4.062-3.441 4.922-3.488zm35.679-5.472c-.285 0-1.168 0-1.168.976 0 .574.407.981.981.981.547 0 1.004-.332 1.004-1.024 0-1.601-1.672-2.75-3.61-2.75-2.796 0-5.019 2.485-5.019 5.496 0 3.059 2.293 5.403 4.996 5.403 3.152 0 3.871-2.868 3.871-3.086 0-.215-.168-.215-.238-.215-.219 0-.242.07-.313.359-.523 1.699-1.816 2.414-3.105 2.414-1.457 0-3.395-1.265-3.395-4.898 0-3.969 2.032-4.949 3.227-4.949.906 0 2.223.363 2.769 1.293m5.911-5.879c0-.621-.504-1.172-1.172-1.172-.621 0-1.145.504-1.145 1.148 0 .715.571 1.172 1.145 1.172.742 0 1.172-.625 1.172-1.148m-3.297 4.445v.691c1.527 0 1.742.145 1.742 1.317v6.5c0 1.074-.262 1.074-1.816 1.074v.691c.671-.046 1.816-.046 2.511-.046.262 0 1.649 0 2.461.046v-.691c-1.555 0-1.648-.121-1.648-1.051v-8.797zm9.629-6.309-3.321.262v.695c1.625 0 1.817.164 1.817 1.336v14.289h.523c.098-.187.766-1.382.863-1.55.547.882 1.575 1.793 3.106 1.793 2.75 0 5.16-2.321 5.16-5.403 0-3.035-2.246-5.379-4.898-5.379-1.313 0-2.438.602-3.25 1.602zm.047 8.938c0-.43 0-.481.265-.863.57-.86 1.625-1.551 2.793-1.551.719 0 3.227.289 3.227 4.875 0 1.601-.239 2.605-.813 3.465-.476.742-1.433 1.48-2.629 1.48-1.289 0-2.125-.836-2.535-1.48-.308-.5-.308-.598-.308-1.004zm20.632 2.531c0-3.082-2.343-5.543-5.117-5.543-2.863 0-5.137 2.531-5.137 5.543 0 3.059 2.391 5.356 5.114 5.356 2.82 0 5.14-2.344 5.14-5.356m-5.117 4.828c-.883 0-1.957-.383-2.652-1.554-.645-1.075-.668-2.485-.668-3.489 0-.91 0-2.367.738-3.441a3.07 3.07 0 0 1 2.559-1.41c.933 0 1.937.429 2.582 1.363.742 1.098.742 2.605.742 3.488 0 .836 0 2.321-.621 3.442-.668 1.148-1.77 1.601-2.68 1.601m17.805-14.433c0-.621-.5-1.172-1.168-1.172-.625 0-1.149.504-1.149 1.148 0 .715.575 1.172 1.149 1.172.738 0 1.168-.625 1.168-1.148m-3.297 4.445v.691c1.527 0 1.742.145 1.742 1.317v6.5c0 1.074-.262 1.074-1.812 1.074v.691c.668-.046 1.812-.046 2.507-.046.262 0 1.649 0 2.461.046v-.691c-1.554 0-1.648-.121-1.648-1.051v-8.797zm16.273 4.469c0-2.223 0-2.891-.55-3.657-.692-.933-1.817-1.078-2.629-1.078-2.317 0-3.227 1.985-3.414 2.465h-.028v-2.465l-3.25.266v.691c1.625 0 1.817.168 1.817 1.34v6.477c0 1.074-.262 1.074-1.817 1.074v.691c.621-.046 1.914-.046 2.582-.046.696 0 1.985 0 2.606.046v-.691c-1.531 0-1.817 0-1.817-1.074v-4.446c0-2.507 1.649-3.847 3.129-3.847 1.485 0 1.817 1.219 1.817 2.676v5.617c0 1.074-.262 1.074-1.817 1.074v.691c.621-.046 1.914-.046 2.582-.046.696 0 1.985 0 2.606.046v-.691c-1.196 0-1.793 0-1.817-.715zm16.02 9.75c-1.527 0-1.816 0-1.816-1.078v-4.157c.429.598 1.41 1.532 2.941 1.532 2.75 0 5.16-2.321 5.16-5.403 0-3.035-2.246-5.379-4.851-5.379-2.102 0-3.223 1.508-3.297 1.602v-1.602l-3.321.266v.691c1.672 0 1.817.168 1.817 1.219v11.231c0 1.078-.266 1.078-1.817 1.078v.691c.621-.047 1.91-.047 2.578-.047.696 0 1.985 0 2.606.047zm-1.816-11.567c0-.453 0-.48.265-.859a3.44 3.44 0 0 1 2.793-1.531c1.793 0 3.227 2.175 3.227 4.851 0 2.844-1.625 4.922-3.465 4.922a2.8 2.8 0 0 1-1.91-.762c-.551-.55-.91-1.031-.91-1.699zm20.632 2.508c0-3.082-2.343-5.543-5.117-5.543-2.863 0-5.137 2.531-5.137 5.543 0 3.059 2.391 5.356 5.114 5.356 2.82 0 5.14-2.344 5.14-5.356m-5.117 4.828c-.883 0-1.957-.383-2.652-1.554-.645-1.075-.668-2.485-.668-3.489 0-.91 0-2.367.738-3.441a3.07 3.07 0 0 1 2.559-1.41c.933 0 1.937.429 2.582 1.363.742 1.098.742 2.605.742 3.488 0 .836 0 2.321-.621 3.442-.668 1.148-1.77 1.601-2.68 1.601m13.684-9.82c0-.434 0-.551-.239-.551-.191 0-.644.524-.812.742-.742-.597-1.481-.742-2.246-.742-2.891 0-3.75 1.578-3.75 2.891 0 .265 0 1.101.906 1.937.766.668 1.578.836 2.676 1.051 1.316.262 1.625.332 2.223.813.429.359.742.882.742 1.55 0 1.032-.598 2.176-2.699 2.176-1.579 0-2.723-.906-3.25-3.297-.098-.429-.098-.453-.122-.476-.046-.098-.144-.098-.214-.098-.262 0-.262.121-.262.551v3.25c0 .43 0 .551.238.551.117 0 .141-.024.551-.528.117-.168.117-.215.476-.597.907 1.125 2.2 1.125 2.606 1.125 2.508 0 3.75-1.387 3.75-3.274 0-1.293-.789-2.058-1.004-2.273-.859-.739-1.504-.883-3.082-1.172-.719-.141-2.461-.477-2.461-1.91 0-.739.504-1.84 2.652-1.84 2.606 0 2.747 2.223 2.797 2.965.024.191.192.191.262.191.262 0 .262-.121.262-.551zm5.519-4.613c0-.621-.5-1.172-1.168-1.172a1.15 1.15 0 0 0-1.148 1.148c0 .715.574 1.172 1.148 1.172.739 0 1.168-.625 1.168-1.148m-3.297 4.445v.691c1.532 0 1.746.145 1.746 1.317v6.5c0 1.074-.261 1.074-1.816 1.074v.691c.668-.046 1.816-.046 2.508-.046.266 0 1.648 0 2.461.046v-.691c-1.551 0-1.649-.121-1.649-1.051v-8.797zm14.746.645c.215-.262.215-.309.215-.407 0-.261-.168-.261-.574-.261h-7.504l-.262 3.796h.528c.14-2.437.594-3.32 3.199-3.32h2.773l-6.835 9.391c0 .429.05.429.574.429h7.789l.383-4.394h-.524c-.219 2.723-.625 3.871-3.469 3.871h-2.89zm5.454-5.09c0-.621-.504-1.172-1.172-1.172-.621 0-1.145.504-1.145 1.148 0 .715.571 1.172 1.145 1.172.742 0 1.172-.625 1.172-1.148m-3.297 4.445v.691c1.527 0 1.742.145 1.742 1.317v6.5c0 1.074-.262 1.074-1.816 1.074v.691c.671-.046 1.816-.046 2.511-.046.262 0 1.649 0 2.461.046v-.691c-1.555 0-1.648-.121-1.648-1.051v-8.797zm16.605 5.16c0-3.082-2.34-5.543-5.113-5.543-2.867 0-5.137 2.531-5.137 5.543 0 3.059 2.391 5.356 5.113 5.356 2.821 0 5.137-2.344 5.137-5.356m-5.113 4.828c-.883 0-1.957-.383-2.652-1.554-.645-1.075-.668-2.485-.668-3.489 0-.91 0-2.367.738-3.441a3.07 3.07 0 0 1 2.558-1.41c.934 0 1.938.429 2.583 1.363.742 1.098.742 2.605.742 3.488 0 .836 0 2.321-.625 3.442-.668 1.148-1.766 1.601-2.676 1.601m16.48-5.519c0-2.223 0-2.891-.55-3.657-.692-.933-1.817-1.078-2.629-1.078-2.317 0-3.227 1.985-3.414 2.465h-.028v-2.465l-3.25.266v.691c1.625 0 1.817.168 1.817 1.34v6.477c0 1.074-.262 1.074-1.817 1.074v.691c.621-.046 1.914-.046 2.582-.046.696 0 1.985 0 2.606.046v-.691c-1.531 0-1.817 0-1.817-1.074v-4.446c0-2.507 1.649-3.847 3.129-3.847 1.485 0 1.817 1.219 1.817 2.676v5.617c0 1.074-.262 1.074-1.817 1.074v.691c.621-.046 1.914-.046 2.582-.046.696 0 1.985 0 2.606.046v-.691c-1.196 0-1.793 0-1.817-.715zm11.52.261c.523 0 .574 0 .574-.453 0-2.414-1.293-4.66-4.183-4.66-2.723 0-4.829 2.461-4.829 5.426 0 3.152 2.438 5.473 5.09 5.473 2.844 0 3.922-2.582 3.922-3.086 0-.145-.121-.239-.265-.239-.192 0-.239.121-.286.239-.621 2.007-2.222 2.558-3.226 2.558s-3.418-.668-3.418-4.804v-.454zm-6.598-.453c.192-3.754 2.297-4.183 2.965-4.183 2.555 0 2.699 3.371 2.723 4.183zm43.5-8.722c0-.621-.5-1.172-1.168-1.172a1.15 1.15 0 0 0-1.148 1.148c0 .715.574 1.172 1.148 1.172.739 0 1.168-.625 1.168-1.148m-3.297 4.445v.691c1.532 0 1.746.145 1.746 1.317v6.5c0 1.074-.261 1.074-1.816 1.074v.691c.668-.046 1.816-.046 2.508-.046.266 0 1.648 0 2.461.046v-.691c-1.551 0-1.649-.121-1.649-1.051v-8.797zm38.176 4.754h6.594c.336 0 .766 0 .766-.43 0-.453-.407-.453-.766-.453h-6.594v-6.598c0-.332 0-.761-.43-.761-.457 0-.457.406-.457.761v6.598h-6.593c-.336 0-.762 0-.762.43 0 .453.402.453.762.453h6.593v6.598c0 .332 0 .765.434.765.453 0 .453-.406.453-.765zm38.547-9.797c0-.551 0-.574-.477-.574-.574.648-1.769 1.527-4.23 1.527v.695c.551 0 1.742 0 3.059-.621v12.45c0 .863-.075 1.148-2.176 1.148h-.738v.691c.644-.046 2.96-.046 3.75-.046.789 0 3.082 0 3.726.046v-.691h-.738c-2.102 0-2.176-.285-2.176-1.148zm-729.09-106.75c0-2.316.953-4.492 2.793-4.492.192 0 .238 0 .336.023-.191.098-.574.239-.574.883 0 .695.55.957.933.957.477 0 .957-.312.957-.957 0-.715-.648-1.387-1.675-1.387-2.032 0-2.723 2.2-2.867 2.657h-.024v-2.657l-3.203.266v.691c1.625 0 1.816.168 1.816 1.34v6.477c0 1.074-.261 1.074-1.816 1.074v.691c.668-.046 1.984-.046 2.7-.046.648 0 2.343 0 2.894.046v-.691h-.48c-1.743 0-1.79-.262-1.79-1.121zm9.266-9.152c0-.621-.5-1.172-1.172-1.172-.621 0-1.145.504-1.145 1.148 0 .715.575 1.172 1.145 1.172.742 0 1.172-.625 1.172-1.148m-3.297 4.445v.691c1.527 0 1.742.145 1.742 1.317v6.5c0 1.074-.262 1.074-1.812 1.074v.691c.668-.046 1.812-.046 2.507-.046.262 0 1.649 0 2.461.046v-.691c-1.554 0-1.648-.121-1.648-1.051v-8.797zm11.492 14.219c-1.527 0-1.812 0-1.812-1.078v-4.157c.43.598 1.406 1.532 2.937 1.532 2.75 0 5.16-2.321 5.16-5.403 0-3.035-2.246-5.379-4.847-5.379-2.106 0-3.227 1.508-3.301 1.602v-1.602l-3.32.266v.691c1.671 0 1.816.168 1.816 1.219v11.231c0 1.078-.266 1.078-1.816 1.078v.691c.62-.047 1.91-.047 2.582-.047.691 0 1.98 0 2.601.047zm-1.812-11.567c0-.453 0-.48.261-.859a3.44 3.44 0 0 1 2.793-1.531c1.793 0 3.227 2.175 3.227 4.851 0 2.844-1.625 4.922-3.465 4.922a2.8 2.8 0 0 1-1.91-.762c-.55-.55-.906-1.031-.906-1.699zm18.812 2.078c.524 0 .574 0 .574-.453 0-2.414-1.293-4.66-4.183-4.66-2.723 0-4.828 2.461-4.828 5.426 0 3.152 2.437 5.473 5.09 5.473 2.843 0 3.921-2.582 3.921-3.086 0-.145-.12-.239-.265-.239-.192 0-.239.121-.285.239-.621 2.007-2.223 2.558-3.227 2.558s-3.418-.668-3.418-4.804v-.454zm-6.598-.453c.192-3.754 2.297-4.183 2.965-4.183 2.555 0 2.7 3.371 2.723 4.183zm11.86-3.609h3.37v-.691h-3.37v-4.399h-.528c-.023 2.246-.882 4.539-3.058 4.613v.477h2.031v6.644c0 2.653 1.77 3.204 3.035 3.204 1.508 0 2.297-1.485 2.297-3.204v-1.363h-.527v1.317c0 1.718-.692 2.722-1.625 2.722-1.625 0-1.625-2.222-1.625-2.629zm9.242-5.113c0-.621-.5-1.172-1.168-1.172-.625 0-1.148.504-1.148 1.148 0 .715.574 1.172 1.148 1.172.738 0 1.168-.625 1.168-1.148m-3.297 4.445v.691c1.528 0 1.746.145 1.746 1.317v6.5c0 1.074-.265 1.074-1.816 1.074v.691c.668-.046 1.816-.046 2.508-.046.261 0 1.648 0 2.46.046v-.691c-1.55 0-1.648-.121-1.648-1.051v-8.797zm39.153 6.262h-.524c-.07.406-.262 1.718-.5 2.101-.168.215-1.531.215-2.25.215h-4.418c.645-.551 2.102-2.078 2.723-2.652 3.633-3.348 4.969-4.59 4.969-6.953 0-2.75-2.172-4.59-4.946-4.59s-4.398 2.367-4.398 4.422c0 1.218 1.054 1.218 1.125 1.218.5 0 1.125-.359 1.125-1.125 0-.668-.457-1.121-1.125-1.121-.215 0-.262 0-.336.024.457-1.625 1.746-2.723 3.3-2.723 2.032 0 3.274 1.695 3.274 3.895 0 2.031-1.172 3.8-2.535 5.328l-4.828 5.402v.57h8.726zm9.816-11.543c0-.453 0-.574-.336-.574-.191 0-.262 0-.453.285l-7.195 11.16v.695h6.285v2.176c0 .883-.047 1.121-1.793 1.121h-.477v.691c.551-.046 2.438-.046 3.106-.046.672 0 2.582 0 3.132.046v-.691h-.48c-1.719 0-1.789-.238-1.789-1.121v-2.176h2.41v-.695h-2.41zm-1.578 1.863v9.008h-5.809zm37.398 5.664c.215-.527.621-1.555 2.153-1.578v-.691c-.696.046-1.028.046-1.77.046-.504 0-.859 0-1.961-.046v.691c1.008.047 1.125.766 1.125 1.027 0 .215-.047.336-.168.621l-2.437 6.168-2.676-6.742c-.121-.332-.145-.332-.145-.453 0-.621.91-.621 1.34-.621v-.691c-.597.046-1.84.046-2.484.046-.789 0-.836 0-2.297-.046v.691c1.34 0 1.578.098 1.863.836l3.418 8.555c.121.336.168.457.457.457.164 0 .309-.051.477-.457zm12.918 2.914c0-3.082-2.34-5.543-5.113-5.543-2.867 0-5.137 2.531-5.137 5.543 0 3.059 2.391 5.356 5.113 5.356 2.821 0 5.137-2.344 5.137-5.356m-5.113 4.828c-.883 0-1.957-.383-2.652-1.554-.645-1.075-.668-2.485-.668-3.489 0-.91 0-2.367.738-3.441a3.07 3.07 0 0 1 2.558-1.41c.934 0 1.938.429 2.583 1.363.742 1.098.742 2.605.742 3.488 0 .836 0 2.321-.625 3.442-.668 1.148-1.766 1.601-2.676 1.601m9.957-16.297-3.32.262v.695c1.625 0 1.812.164 1.812 1.336v12.524c0 1.074-.262 1.074-1.812 1.074v.691c.668-.046 1.836-.046 2.554-.046.719 0 1.914 0 2.582.046v-.691c-1.531 0-1.816 0-1.816-1.074zm6.402 6.977h3.371v-.691h-3.371v-4.399h-.523c-.024 2.246-.887 4.539-3.059 4.613v.477h2.032v6.644c0 2.653 1.765 3.204 3.035 3.204 1.504 0 2.293-1.485 2.293-3.204v-1.363h-.528v1.317c0 1.718-.691 2.722-1.625 2.722-1.625 0-1.625-2.222-1.625-2.629zm14.239 4.062c.527 0 .574 0 .574-.453 0-2.414-1.289-4.66-4.184-4.66-2.722 0-4.824 2.461-4.824 5.426 0 3.152 2.437 5.473 5.09 5.473 2.844 0 3.918-2.582 3.918-3.086 0-.145-.121-.239-.262-.239-.191 0-.242.121-.285.239-.625 2.007-2.223 2.558-3.231 2.558-1 0-3.414-.668-3.414-4.804v-.454zm-6.594-.453c.191-3.754 2.293-4.183 2.961-4.183 2.558 0 2.703 3.371 2.726 4.183zm12.238-3.156c0-.644-.551-1.144-1.144-1.144-.696 0-1.172.546-1.172 1.144 0 .719.597 1.172 1.148 1.172.645 0 1.168-.5 1.168-1.172m0 7.984c0-.644-.551-1.148-1.144-1.148-.696 0-1.172.551-1.172 1.148 0 .715.597 1.168 1.148 1.168.645 0 1.168-.5 1.168-1.168m-174.34-96.05c0-.621-.5-1.172-1.168-1.172a1.15 1.15 0 0 0-1.148 1.148c0 .715.574 1.172 1.148 1.172.739 0 1.168-.625 1.168-1.148m-3.297 4.445v.691c1.532 0 1.746.145 1.746 1.317v6.5c0 1.074-.261 1.074-1.816 1.074v.691c.668-.046 1.816-.046 2.508-.046.265 0 1.648 0 2.46.046v-.691c-1.55 0-1.648-.121-1.648-1.051v-8.797zm22.774 4.469c0-2.223 0-2.891-.547-3.657-.695-.933-1.816-1.078-2.629-1.078-1.984 0-2.988 1.438-3.371 2.368-.336-1.84-1.625-2.368-3.129-2.368-2.32 0-3.227 1.985-3.418 2.465h-.023v-2.465l-3.25.266v.691c1.625 0 1.816.168 1.816 1.34v6.477c0 1.074-.262 1.074-1.816 1.074v.691c.62-.046 1.91-.046 2.578-.046.695 0 1.984 0 2.605.046v-.691c-1.527 0-1.816 0-1.816-1.074v-4.446c0-2.507 1.648-3.847 3.133-3.847 1.48 0 1.816 1.219 1.816 2.676v5.617c0 1.074-.266 1.074-1.816 1.074v.691c.62-.046 1.91-.046 2.578-.046.695 0 1.984 0 2.605.046v-.691c-1.527 0-1.816 0-1.816-1.074v-4.446c0-2.507 1.648-3.847 3.133-3.847 1.48 0 1.816 1.219 1.816 2.676v5.617c0 1.074-.266 1.074-1.816 1.074v.691c.62-.046 1.91-.046 2.578-.046.695 0 1.984 0 2.605.046v-.691c-1.195 0-1.793 0-1.816-.715zm8.223 9.75c-1.532 0-1.817 0-1.817-1.078v-4.157c.43.598 1.41 1.532 2.938 1.532 2.75 0 5.164-2.321 5.164-5.403 0-3.035-2.246-5.379-4.852-5.379-2.102 0-3.227 1.508-3.297 1.602v-1.602l-3.324.266v.691c1.676 0 1.816.168 1.816 1.219v11.231c0 1.078-.261 1.078-1.816 1.078v.691c.621-.047 1.914-.047 2.582-.047.691 0 1.984 0 2.605.047zm-1.817-11.567c0-.453 0-.48.262-.859.718-1.078 1.886-1.531 2.797-1.531 1.793 0 3.226 2.175 3.226 4.851 0 2.844-1.625 4.922-3.465 4.922a2.82 2.82 0 0 1-1.914-.762c-.547-.55-.906-1.031-.906-1.699zm20.629 2.508c0-3.082-2.34-5.543-5.113-5.543-2.867 0-5.137 2.531-5.137 5.543 0 3.059 2.387 5.356 5.113 5.356 2.82 0 5.137-2.344 5.137-5.356m-5.113 4.828c-.883 0-1.961-.383-2.653-1.554-.644-1.075-.668-2.485-.668-3.489 0-.91 0-2.367.739-3.441a3.07 3.07 0 0 1 2.558-1.41c.93 0 1.938.429 2.578 1.363.743 1.098.743 2.605.743 3.488 0 .836 0 2.321-.621 3.442-.669 1.148-1.77 1.601-2.676 1.601m13.683-9.82c0-.434 0-.551-.238-.551-.191 0-.644.524-.812.742-.743-.597-1.485-.742-2.247-.742-2.894 0-3.754 1.578-3.754 2.891 0 .265 0 1.101.91 1.937.762.668 1.575.836 2.676 1.051 1.313.262 1.625.332 2.223.813.43.359.738.882.738 1.55 0 1.032-.593 2.176-2.699 2.176-1.574 0-2.722-.906-3.25-3.297-.094-.429-.094-.453-.117-.476-.05-.098-.145-.098-.215-.098-.266 0-.266.121-.266.551v3.25c0 .43 0 .551.243.551.117 0 .14-.024.547-.528.12-.168.12-.215.476-.597.91 1.125 2.2 1.125 2.606 1.125 2.511 0 3.754-1.387 3.754-3.274 0-1.293-.79-2.058-1.004-2.273-.86-.739-1.504-.883-3.082-1.172-.72-.141-2.461-.477-2.461-1.91 0-.739.5-1.84 2.652-1.84 2.605 0 2.746 2.223 2.793 2.965.023.191.191.191.266.191.261 0 .261-.121.261-.551zm5.375.5h3.371v-.691h-3.37v-4.399h-.524c-.024 2.246-.887 4.539-3.059 4.613v.477h2.031v6.644c0 2.653 1.766 3.204 3.036 3.204 1.504 0 2.293-1.485 2.293-3.204v-1.363h-.528v1.317c0 1.718-.691 2.722-1.625 2.722-1.625 0-1.625-2.222-1.625-2.629zm14.309 3.227c0-1.29 0-2.247-1.047-3.18-.84-.762-1.914-1.098-2.965-1.098-1.96 0-3.465 1.289-3.465 2.844 0 .691.453 1.027 1.004 1.027.574 0 .98-.406.98-.98 0-.981-.863-.981-1.218-.981.547-1.004 1.695-1.433 2.648-1.433 1.102 0 2.512.91 2.512 3.058v.957c-4.805.071-6.621 2.078-6.621 3.918 0 1.891 2.2 2.489 3.656 2.489 1.578 0 2.656-.957 3.11-2.106.093 1.125.836 1.985 1.863 1.985.5 0 1.887-.336 1.887-2.247v-1.339h-.524v1.339c0 1.364-.574 1.555-.91 1.555-.91 0-.91-1.269-.91-1.625zm-1.55 3.011c0 2.34-1.747 3.129-2.774 3.129-1.168 0-2.149-.859-2.149-2.008 0-3.152 4.063-3.441 4.922-3.488zm31.187-11.351c0-.621-.504-1.172-1.172-1.172-.621 0-1.145.504-1.145 1.148 0 .715.571 1.172 1.145 1.172.742 0 1.172-.625 1.172-1.148m-3.297 4.445v.691c1.527 0 1.742.145 1.742 1.317v6.5c0 1.074-.262 1.074-1.816 1.074v.691c.671-.046 1.816-.046 2.511-.046.262 0 1.649 0 2.461.046v-.691c-1.555 0-1.648-.121-1.648-1.051v-8.797zm37.859 3.895c0-1.29 0-2.247-1.047-3.18-.84-.762-1.914-1.098-2.965-1.098-1.961 0-3.464 1.289-3.464 2.844 0 .691.453 1.027 1.003 1.027.575 0 .981-.406.981-.98 0-.981-.863-.981-1.219-.981.551-1.004 1.695-1.433 2.653-1.433 1.097 0 2.507.91 2.507 3.058v.957c-4.804.071-6.617 2.078-6.617 3.918 0 1.891 2.195 2.489 3.656 2.489 1.575 0 2.653-.957 3.106-2.106.094 1.125.836 1.985 1.863 1.985.5 0 1.887-.336 1.887-2.247v-1.339h-.524v1.339c0 1.364-.574 1.555-.91 1.555-.91 0-.91-1.269-.91-1.625zm-1.551 3.011c0 2.34-1.742 3.129-2.773 3.129-1.168 0-2.149-.859-2.149-2.008 0-3.152 4.063-3.441 4.922-3.488zm33.914-11.949c0-.551 0-.574-.48-.574-.574.648-1.77 1.527-4.231 1.527v.695c.551 0 1.747 0 3.059-.621v12.45c0 .863-.07 1.148-2.172 1.148h-.742v.691c.645-.046 2.965-.046 3.754-.046.785 0 3.082 0 3.726.046v-.691h-.742c-2.101 0-2.172-.285-2.172-1.148zM17.156-566.02c0-.621-.5-1.171-1.168-1.171a1.15 1.15 0 0 0-1.148 1.148c0 .715.574 1.172 1.148 1.172.739 0 1.168-.625 1.168-1.149m-3.297 4.446v.691c1.532 0 1.746.145 1.746 1.313v6.5c0 1.078-.261 1.078-1.816 1.078v.691c.668-.047 1.816-.047 2.508-.047.265 0 1.648 0 2.46.047v-.691c-1.55 0-1.648-.121-1.648-1.051v-8.797zm22.774 4.469c0-2.223 0-2.891-.547-3.657-.695-.933-1.816-1.078-2.629-1.078-1.984 0-2.988 1.434-3.371 2.367-.336-1.84-1.625-2.367-3.129-2.367-2.32 0-3.227 1.985-3.418 2.461h-.023v-2.461l-3.25.266v.691c1.625 0 1.816.168 1.816 1.34v6.473c0 1.078-.262 1.078-1.816 1.078v.691c.62-.047 1.91-.047 2.578-.047.695 0 1.984 0 2.605.047v-.691c-1.527 0-1.816 0-1.816-1.078v-4.442c0-2.511 1.648-3.847 3.133-3.847 1.48 0 1.816 1.218 1.816 2.675v5.614c0 1.078-.266 1.078-1.816 1.078v.691c.62-.047 1.91-.047 2.578-.047.695 0 1.984 0 2.605.047v-.691c-1.527 0-1.816 0-1.816-1.078v-4.442c0-2.511 1.648-3.847 3.133-3.847 1.48 0 1.816 1.218 1.816 2.675v5.614c0 1.078-.266 1.078-1.816 1.078v.691c.62-.047 1.91-.047 2.578-.047.695 0 1.984 0 2.605.047v-.691c-1.195 0-1.793 0-1.816-.719zm8.223 9.746c-1.532 0-1.817 0-1.817-1.075v-4.156c.43.598 1.41 1.527 2.938 1.527 2.75 0 5.164-2.316 5.164-5.398 0-3.035-2.246-5.379-4.852-5.379-2.102 0-3.227 1.508-3.297 1.602v-1.602l-3.324.266v.691c1.676 0 1.816.168 1.816 1.219v11.23c0 1.075-.261 1.075-1.816 1.075v.695c.621-.051 1.914-.051 2.582-.051.691 0 1.984 0 2.605.051zm-1.817-11.563c0-.457 0-.48.262-.859.718-1.078 1.886-1.532 2.797-1.532 1.793 0 3.226 2.176 3.226 4.852 0 2.844-1.625 4.922-3.465 4.922a2.83 2.83 0 0 1-1.914-.766c-.547-.547-.906-1.027-.906-1.695zm20.629 2.508c0-3.082-2.34-5.543-5.113-5.543-2.867 0-5.137 2.531-5.137 5.543 0 3.059 2.387 5.351 5.113 5.351 2.82 0 5.137-2.339 5.137-5.351m-5.113 4.824c-.883 0-1.961-.379-2.653-1.551-.644-1.074-.668-2.484-.668-3.488 0-.91 0-2.367.739-3.441a3.06 3.06 0 0 1 2.558-1.41c.93 0 1.938.429 2.578 1.363.743 1.097.743 2.605.743 3.488 0 .836 0 2.316-.621 3.441-.669 1.145-1.77 1.598-2.676 1.598m13.683-9.816c0-.434 0-.551-.238-.551-.191 0-.644.523-.812.738-.743-.594-1.485-.738-2.247-.738-2.894 0-3.754 1.574-3.754 2.891 0 .261 0 1.097.91 1.933.762.672 1.575.84 2.676 1.055 1.313.262 1.625.332 2.223.812.43.36.738.883.738 1.551 0 1.027-.593 2.176-2.699 2.176-1.574 0-2.722-.906-3.25-3.297-.094-.43-.094-.457-.117-.477-.05-.097-.145-.097-.215-.097-.266 0-.266.117-.266.551v3.25c0 .429 0 .546.243.546.117 0 .14-.023.547-.527.12-.164.12-.211.476-.594.91 1.121 2.2 1.121 2.606 1.121 2.511 0 3.754-1.382 3.754-3.273 0-1.289-.79-2.055-1.004-2.269-.86-.739-1.504-.883-3.082-1.172-.72-.141-2.461-.477-2.461-1.911 0-.742.5-1.839 2.652-1.839 2.605 0 2.746 2.222 2.793 2.964.023.192.191.192.266.192.261 0 .261-.121.261-.551zm5.375.5h3.371v-.696h-3.37v-4.394h-.524c-.024 2.246-.887 4.539-3.059 4.613v.477h2.031v6.644c0 2.653 1.766 3.199 3.036 3.199 1.504 0 2.293-1.48 2.293-3.199v-1.363h-.528v1.312c0 1.723-.691 2.723-1.625 2.723-1.625 0-1.625-2.219-1.625-2.625zm14.309 3.226c0-1.289 0-2.246-1.047-3.179-.84-.762-1.914-1.098-2.965-1.098-1.96 0-3.465 1.289-3.465 2.844 0 .691.453 1.027 1.004 1.027.574 0 .98-.406.98-.98 0-.981-.863-.981-1.218-.981.547-1.004 1.695-1.433 2.648-1.433 1.102 0 2.512.91 2.512 3.058v.957c-4.805.07-6.621 2.078-6.621 3.918 0 1.891 2.2 2.484 3.656 2.484 1.578 0 2.656-.953 3.11-2.101.093 1.121.836 1.984 1.863 1.984.5 0 1.887-.336 1.887-2.246v-1.34h-.524v1.34c0 1.363-.574 1.555-.91 1.555-.91 0-.91-1.27-.91-1.625zm-1.55 3.012c0 2.34-1.747 3.129-2.774 3.129-1.168 0-2.149-.859-2.149-2.008 0-3.152 4.063-3.441 4.922-3.488zm36.776-4.66c.219-.527.625-1.555 2.153-1.578v-.696c-.692.051-1.028.051-1.77.051-.5 0-.859 0-1.957-.051v.696c1.004.047 1.121.765 1.121 1.027 0 .215-.047.336-.168.621l-2.437 6.164-2.676-6.738c-.117-.336-.141-.336-.141-.453 0-.621.907-.621 1.336-.621v-.696c-.597.051-1.839.051-2.484.051-.789 0-.836 0-2.297-.051v.696c1.34 0 1.578.093 1.867.836l3.414 8.554c.121.336.168.453.457.453.168 0 .313-.046.477-.453zm10.575 1.648c0-1.289 0-2.246-1.051-3.179-.836-.762-1.91-1.098-2.961-1.098-1.961 0-3.469 1.289-3.469 2.844 0 .691.457 1.027 1.004 1.027.574 0 .981-.406.981-.98 0-.981-.86-.981-1.219-.981.551-1.004 1.699-1.433 2.652-1.433 1.102 0 2.512.91 2.512 3.058v.957c-4.805.07-6.621 2.078-6.621 3.918 0 1.891 2.199 2.484 3.656 2.484 1.578 0 2.652-.953 3.106-2.101.097 1.121.835 1.984 1.867 1.984.5 0 1.886-.336 1.886-2.246v-1.34h-.527v1.34c0 1.363-.57 1.555-.906 1.555-.91 0-.91-1.27-.91-1.625zm-1.551 3.012c0 2.34-1.746 3.129-2.774 3.129-1.171 0-2.152-.859-2.152-2.008 0-3.152 4.067-3.441 4.926-3.488zm8.141-13.215-3.325.262v.691c1.625 0 1.817.168 1.817 1.34v12.52c0 1.078-.262 1.078-1.817 1.078v.691c.668-.047 1.84-.047 2.559-.047.715 0 1.91 0 2.582.047v-.691c-1.531 0-1.816 0-1.816-1.078zm13.355 11.469c0-3.082-2.34-5.543-5.113-5.543-2.867 0-5.137 2.531-5.137 5.543 0 3.059 2.387 5.351 5.113 5.351 2.821 0 5.137-2.339 5.137-5.351m-5.113 4.824c-.883 0-1.961-.379-2.653-1.551-.644-1.074-.668-2.484-.668-3.488 0-.91 0-2.367.739-3.441a3.06 3.06 0 0 1 2.558-1.41c.934 0 1.938.429 2.578 1.363.743 1.097.743 2.605.743 3.488 0 .836 0 2.316-.622 3.441-.667 1.145-1.765 1.598-2.675 1.598m9.836-5.277c0-2.321.957-4.492 2.797-4.492.191 0 .238 0 .335.023-.195.094-.574.238-.574.883 0 .695.547.957.93.957.48 0 .957-.313.957-.957 0-.715-.645-1.387-1.672-1.387-2.031 0-2.726 2.199-2.867 2.652h-.024v-2.652l-3.203.266v.691c1.625 0 1.817.168 1.817 1.34v6.473c0 1.078-.266 1.078-1.817 1.078v.691c.668-.047 1.985-.047 2.7-.047.644 0 2.339 0 2.89.047v-.691h-.476c-1.746 0-1.793-.266-1.793-1.125zm14.261.023c.528 0 .575 0 .575-.453 0-2.414-1.289-4.66-4.184-4.66-2.723 0-4.824 2.461-4.824 5.426 0 3.152 2.437 5.468 5.086 5.468 2.843 0 3.922-2.578 3.922-3.082 0-.144-.122-.238-.262-.238-.192 0-.242.121-.289.238-.621 2.008-2.223 2.555-3.227 2.555s-3.418-.668-3.418-4.801v-.453zm-6.597-.453c.191-3.754 2.297-4.183 2.965-4.183 2.558 0 2.699 3.371 2.722 4.183zm40.066-.383c0-1.289 0-2.246-1.047-3.179-.84-.762-1.914-1.098-2.965-1.098-1.961 0-3.464 1.289-3.464 2.844 0 .691.453 1.027 1.003 1.027.575 0 .981-.406.981-.98 0-.981-.863-.981-1.219-.981.551-1.004 1.695-1.433 2.653-1.433 1.097 0 2.507.91 2.507 3.058v.957c-4.804.07-6.617 2.078-6.617 3.918 0 1.891 2.195 2.484 3.656 2.484 1.575 0 2.653-.953 3.106-2.101.094 1.121.836 1.984 1.863 1.984.5 0 1.887-.336 1.887-2.246v-1.34h-.524v1.34c0 1.363-.574 1.555-.91 1.555-.91 0-.91-1.27-.91-1.625zm-1.551 3.012c0 2.34-1.742 3.129-2.773 3.129-1.168 0-2.149-.859-2.149-2.008 0-3.152 4.063-3.441 4.922-3.488zm33.914-11.949c0-.551 0-.574-.48-.574-.574.644-1.77 1.527-4.231 1.527v.695c.551 0 1.747 0 3.059-.621v12.449c0 .86-.07 1.149-2.172 1.149h-.742v.691c.645-.047 2.965-.047 3.754-.047.785 0 3.082 0 3.726.047v-.691h-.742c-2.101 0-2.172-.289-2.172-1.149z"/></g></svg>