<svg xmlns="http://www.w3.org/2000/svg" width="695pt" height="80" viewBox="0 -60 695 60"><g id="page1"><g fill-rule="evenodd"><path d="M161.32-57.332c-1.457.902-2.789 2.605-2.789 3.598 0 .59.528 1.425 1.645 2.605.898.961 1.984 2.418 2.387 3.254l.71 1.52-.867 1.738c-.496.96-1.211 2.789-1.582 4.09-4.058 13.207-8.215 18.047-22.414 25.984-4.433 2.45-5.984 3.656-7.008 5.27-.961 1.609-.961 3.253.094 4.773 3.039 4.496 15.317 3.938 25.516-1.148 7.472-3.688 12.929-8.989 15.75-15.282 3.222-7.101 4-14.511 2.14-20.183-.714-2.172-2.882-5.399-4.25-6.297-.929-.621-1.238-1.117-1.703-2.883-.871-3.191-2.668-6.57-3.812-7.16-1.274-.652-2.606-.621-3.817.121m3.535 2.793c-.371.68-.277 1.055.622 2.82 1.394 2.758 2.882 7.535 3.535 11.317C171.801-24 159.68-8.594 141.449-5.398c-1.582.277-3.629.496-4.527.496-1.242 0-1.676.156-1.922.652-.312.586-.219.68.898.992 1.829.528 7.223.434 10.325-.156 9.672-1.828 18.418-7.223 23.097-14.293 6.758-10.137 7.008-24.059.496-28.555-1.179-.804-1.425-1.242-2.203-3.718-.773-2.512-1.953-5.305-2.261-5.305-.032 0-.278.344-.497.746m-2.601 1.766-1.09.464 1.149 1.457c.589.809 1.367 2.141 1.675 2.977.59 1.488.59 1.488-.433 3.906-.528 1.336-1.457 3.938-2.047 5.739-2.324 7.285-4.496 11.035-8.742 15.285-3.289 3.285-5.489 4.836-12.309 8.773-5.488 3.129-7.41 4.434-7.66 5.113-.094.22.465 1.024 1.211 1.832l1.363 1.426 2.606-.219c7.656-.648 15.285-3.906 20.711-8.898 4.433-4.09 7.316-8.773 8.835-14.355.868-3.192 1.051-10.477.34-13.422-1.117-4.559-2.605-8.309-3.906-9.828-.59-.653-.715-.684-1.703-.25"/><path fill="#f5a701" d="M163.09-58.043c.246.094.527.063.648-.031.094-.125-.093-.188-.433-.188-.403.032-.465.094-.215.219m-3.442 1.828-.96 1.086 1.082-.96c.589-.56 1.054-1.024 1.054-1.087 0-.246-.246-.031-1.176.961m6.665-.062c.125.156.281.312.371.312.093 0 .062-.156-.032-.312-.121-.184-.277-.34-.371-.34s-.093.156.032.34m-1.458 1.738c-.371.68-.277 1.055.622 2.82 1.394 2.758 2.882 7.535 3.535 11.317C171.801-24 159.68-8.594 141.449-5.398c-1.582.277-3.629.496-4.527.496-1.242 0-1.676.156-1.922.652-.312.586-.219.68.898.992 1.829.528 7.223.434 10.325-.156 9.672-1.828 18.418-7.223 23.097-14.293 6.758-10.137 7.008-24.059.496-28.555-1.179-.804-1.425-1.242-2.203-3.718-.773-2.512-1.953-5.305-2.261-5.305-.032 0-.278.344-.497.746m-.527 3.098c.621 1.023 1.363 2.605 1.676 3.504.309.902.617 1.581.68 1.488.406-.371-2.387-6.2-3.161-6.696-.187-.093.188.653.805 1.704m3.813-1.207c0 .246.093.34.218.218a.3.3 0 0 0 0-.437c-.125-.121-.218-.031-.218.219m-6.789.308c-.094.156.093.496.402.746.527.403.527.371.156-.093s-.371-.59 0-.743c.278-.093.309-.156.031-.187-.218 0-.496.094-.589.277m-1.332 1.367c.71.711 1.363 1.301 1.457 1.301.093 0-.434-.59-1.149-1.3-.711-.747-1.363-1.337-1.457-1.337s.434.59 1.149 1.336m8.433-.683c0 .246.121.34.246.215a.3.3 0 0 0 0-.434c-.125-.121-.246-.031-.246.219m-5.797 1.332c.121.187.278.343.371.343.094 0 .094-.156-.031-.343-.125-.184-.281-.34-.375-.34-.09 0-.058.156.035.34m.867 1.336c.465 1.02.622 1.207.622.773 0-.187-.219-.62-.5-.96-.493-.622-.493-.59-.122.187m5.61-.344c0 .25.094.344.219.219s.125-.313 0-.434c-.125-.125-.219-.031-.219.215m1.148 1.676c.125.152.282.308.371.308.094 0 .094-.156-.031-.308-.125-.188-.277-.34-.371-.34s-.062.152.031.34m-6.136.308c0 .25.121.34.246.22a.37.37 0 0 0 0-.434c-.125-.126-.246-.032-.246.214m.246 1.305c-.125.555-.094.68.156.434a.9.9 0 0 0 .215-.778c-.09-.246-.246-.093-.371.344m2.48.371c0 .277.125.867.277 1.332.219.653.25.684.282.156 0-.37-.125-.96-.282-1.336-.183-.402-.277-.464-.277-.152m5.734.309c.125.187.282.34.375.34.09 0 .059-.153-.031-.34-.125-.157-.281-.309-.375-.309-.09 0-.058.152.031.309m-8.894.867c-.344.809-.25 1.023.152.375.188-.344.282-.684.188-.777-.063-.094-.25.093-.34.402m9.578.156c.094.156.277.309.34.309.094 0 .094-.153-.031-.309-.09-.187-.278-.34-.371-.34-.094 0-.063.153.062.34m-5.828 1.3c0 .25.125.345.246.22.094-.094.094-.309 0-.434-.121-.125-.246-.031-.246.215m-6.297.684c0 .25.094.34.219.22a.3.3 0 0 0 0-.438c-.125-.121-.219-.028-.219.218m1.676 0c0 .25.094.34.219.22a.3.3 0 0 0 0-.438c-.125-.121-.219-.028-.219.218m5.023.993c0 .465.063.652.157.402.089-.215.089-.59 0-.836-.094-.219-.157-.031-.157.434m-5.363 0c0 .25.094.34.215.215a.3.3 0 0 0 0-.434c-.121-.121-.215-.027-.215.219m-.34.992c0 .25.094.34.215.215a.297.297 0 0 0 0-.434c-.121-.12-.215-.027-.215.219m-1.984.992c0 .246.09.34.215.219a.3.3 0 0 0 0-.438c-.125-.12-.215-.03-.215.22m1.672 0c0 .246.093.34.218.219a.307.307 0 0 0 0-.438c-.125-.12-.218-.03-.218.22m6.418 2.82c0 1.832.031 2.512.125 1.551.062-.96.062-2.449 0-3.316-.094-.836-.125-.063-.125 1.765m7.195-2.293c0 .371.09.465.184.188.093-.219.093-.527 0-.621-.125-.125-.215.094-.184.433m-13.953.465c0 .246.094.34.215.219a.3.3 0 0 0 0-.437c-.121-.122-.215-.032-.215.218m-1.676.34c0 .25.125.344.25.219a.37.37 0 0 0 0-.434c-.125-.125-.25-.031-.25.215m1.363.836c.035.406.094.469.188.219.125-.246.094-.528 0-.653-.125-.09-.188.094-.188.434m-1.672.156c0 .25.094.34.215.22a.3.3 0 0 0 0-.434c-.121-.126-.215-.032-.215.214m16.309.496c0 .559.063.715.152.403.094-.309.094-.774 0-.992-.089-.215-.152.03-.152.59m-15.316 1.149c0 .246.093.34.214.215.125-.09.125-.309 0-.434-.121-.121-.214-.031-.214.219m-.34.992c0 .246.09.34.215.246a.335.335 0 0 0 0-.465c-.125-.12-.215 0-.215.219m-.621 1.52c-.528 1.207-.434 1.488.156.37.277-.527.465-.992.371-1.085-.062-.063-.312.25-.527.715m16.277.652c0 .555.063.71.152.402.094-.312.094-.777 0-.992-.089-.219-.152.031-.152.59m-7.969.152c0 .465.063.653.157.434.089-.246.089-.621 0-.836-.094-.219-.157-.031-.157.402m-10.324 0c0 .25.094.34.219.219a.304.304 0 0 0 0-.434c-.125-.125-.219-.03-.219.215m9.953 1.86c.031.375.094.465.215.187.094-.219.063-.527-.031-.621-.121-.121-.184.094-.184.434m-9.644.808c-.184.371-.278.649-.184.649s.34-.278.527-.649c.184-.37.278-.683.184-.683s-.309.312-.527.683m17.613-.156c0 .402.09.465.184.219.093-.25.093-.528 0-.653-.125-.093-.215.094-.184.434m-8.281.684c0 .37.093.464.187.183.094-.215.094-.527-.031-.62-.094-.122-.188.062-.156.437m-10.2.835c-.125.247-.062.31.157.157.215-.125.402-.313.402-.375 0-.278-.309-.153-.559.218m9.829.278c0 .25.093.344.218.219.121-.094.121-.309 0-.434-.125-.125-.218-.031-.218.215m-12.121.406c-.157.215-.094.277.125.121.402-.215.527-.527.246-.527-.094 0-.246.187-.371.406m1.64.309c-.152.246-.09.308.156.156.371-.25.496-.527.219-.527-.062 0-.25.183-.375.37m-2.82 1.21c-.403.524-.403.524.125.122.558-.434.711-.711.465-.711-.094 0-.34.246-.59.59m1.644.31c-.406.527-.406.558.125.152.559-.434.743-.711.465-.711-.062 0-.344.25-.59.558m10.883-.063c-.344.836-.25 1.054.153.37.187-.308.281-.648.187-.741-.094-.094-.246.093-.34.37m8.403.156c0 .246.089.34.214.215.125-.121.125-.309 0-.434s-.214-.031-.214.219m-.344.992c0 .246.094.34.219.215.125-.121.125-.309 0-.434s-.219-.03-.219.22m-21.391 1.735-1.644 1.765 1.738-1.672c1.609-1.52 1.891-1.828 1.641-1.828-.059 0-.836.805-1.735 1.735m11.938-.063c-.125.219-.157.434-.063.527s.246-.062.34-.34c.246-.59.062-.714-.277-.187m-15.286 1.023c-.125.25-.062.31.153.157.219-.125.402-.309.402-.371 0-.282-.308-.157-.555.215m14.602.344c-.156.246-.094.309.156.153.215-.125.371-.309.371-.372 0-.277-.281-.156-.527.22m-16.09.867c-.402.528-.402.528.121.125.559-.437.746-.714.465-.714-.09 0-.34.277-.586.59m1.828.497-.621.742.746-.621c.403-.372.743-.68.743-.743 0-.28-.278-.093-.868.622m13.61-.372c-.153.247-.09.309.125.153.402-.246.527-.528.25-.528-.094 0-.25.157-.375.375m-16.586.68c-.156.219-.094.281.152.125.188-.125.375-.281.375-.371 0-.281-.281-.156-.527.246m15.75.527c-.434.528-.403.528.125.125.527-.433.711-.714.433-.714-.062 0-.312.25-.558.59m-16.742.125c-.157.247-.094.278.156.153.183-.121.371-.309.371-.403 0-.277-.313-.12-.527.25m2.636 0c-.125.247-.093.278.153.153.218-.121.375-.309.375-.403 0-.277-.282-.12-.528.25m-1.304.993c-.153.246-.094.308.125.152.218-.121.402-.309.402-.402 0-.246-.309-.121-.527.25m12.433 2.199-2.14 2.234 2.234-2.14c1.238-1.176 2.262-2.2 2.262-2.262 0-.219-.34.094-2.356 2.168m11.098-1.207c-.152.246-.094.308.156.152.188-.12.371-.308.371-.37 0-.278-.277-.153-.527.218m-28.524.34c-.152.246-.089.28.157.156.218-.156.371-.313.371-.406 0-.278-.278-.121-.528.25m2.668.125c-.621.496-.621.496.094.156.434-.188.742-.438.742-.496 0-.281-.156-.188-.836.34m-1.644.992c-.617.496-.617.496.094.152.402-.183.746-.433.746-.496 0-.277-.188-.183-.84.344m25.672 1.055c-.434.527-.403.558.125.12.558-.433.711-.68.433-.68-.062 0-.308.247-.558.56m-27.996.277c-.621.496-.621.496.093.156.403-.187.743-.433.743-.527 0-.25-.153-.156-.836.37m15.562 1.238-.617.746.742-.652c.684-.59.899-.867.621-.867-.062 0-.402.34-.746.773m-17.887.094c-.621.496-.621.496.094.156.403-.215.742-.433.742-.527 0-.246-.156-.184-.836.37m16.555.871c-.125.215-.094.277.156.121.215-.121.371-.277.371-.371 0-.277-.277-.156-.527.25m-22.043.836c-.433.527-.402.559.125.125.559-.434.711-.684.434-.684-.063 0-.313.25-.559.559m2.82-.188c-.156.25-.093.282.157.157.183-.125.371-.309.371-.403 0-.28-.278-.125-.528.246m18.231 0c-.156.25-.094.282.156.157.219-.125.371-.309.371-.403 0-.28-.277-.125-.527.246m-19.223.653c-.152.246-.093.308.157.156.183-.125.371-.312.371-.375 0-.277-.309-.152-.528.219m15.285 1.332c-1.457.715-2.293 1.21-1.828 1.086.992-.278 4.649-2.078 4.649-2.293 0-.219.25-.313-2.821 1.207m14.387-.805c-.433.527-.402.559.125.156.559-.437.711-.714.434-.714-.063 0-.313.25-.559.558m-31.16.684-.805.898.899-.808c.867-.743 1.086-1.024.804-1.024-.058 0-.464.438-.898.934m-1.828-.219c-.156.246-.094.309.156.156.184-.125.371-.312.371-.375 0-.277-.277-.152-.527.219m31.5.684c-.156.246-.094.277.156.152.184-.152.371-.309.371-.402 0-.278-.277-.125-.527.25m-16.277 1.144a.297.297 0 0 0 .433 0c.125-.094.031-.215-.215-.215-.25 0-.343.121-.218.215m-12.868.465c.094.187.282.312.371.312.094 0 .063-.125-.031-.312-.121-.184-.308-.34-.371-.34-.094 0-.094.156.031.34m11.875-.125a.3.3 0 0 0 .434 0c.125-.121.031-.215-.215-.215-.25 0-.344.094-.219.215m-1.179.344c.25.093.527.093.652-.032.094-.093-.094-.187-.434-.156-.402 0-.464.094-.218.188m15.472.152c-.156.25-.093.313.125.156.215-.125.403-.308.403-.402 0-.25-.313-.125-.528.246m-16.773.188c.219.093.527.062.621-.032.125-.125-.094-.183-.434-.183-.375.027-.464.09-.187.215m-1.332.312c.246.09.527.09.621 0 .121-.125-.063-.219-.438-.187-.371 0-.464.093-.183.187m-6.945.555c.156.156 1.085.218 2.078.156l1.765-.094-2.047-.183c-1.144-.094-1.953-.032-1.796.12m4.773-.215c.309.094.777.094.992 0 .219-.094-.031-.156-.59-.156-.554 0-.742.062-.402.156m-8.555 1.766c.121.187.278.343.371.343.094 0 .094-.156-.031-.343-.125-.184-.281-.34-.375-.34-.09 0-.058.156.035.34m21.516.867a.297.297 0 0 0 .433 0c.125-.09.032-.215-.218-.215-.246 0-.34.125-.215.215m-.992.343c.093.122.308.122.433 0 .125-.125.032-.218-.218-.218-.247 0-.34.093-.215.218m-18.852.434c.094.188.281.34.371.34.094 0 .063-.152-.058-.34-.094-.156-.282-.312-.375-.312-.063 0-.063.156.062.312m17.828-.094c.125.125.34.125.465 0s0-.218-.219-.218c-.246 0-.339.093-.246.218m-3.968.992c.125.125.308.125.433 0s.031-.218-.215-.218c-.25 0-.343.093-.218.218m-10.946.34c.125.125.344.125.434 0 .125-.12.031-.215-.215-.215-.25 0-.344.094-.219.215m9.117 0c.246.094.528.094.649-.03.094-.122-.094-.185-.434-.185-.402.032-.465.094-.215.215m-7.164.344c.344.063.868.063 1.18 0 .309-.094.063-.156-.59-.156-.621 0-.898.062-.59.156m3.844 0c.406.063.992.063 1.305 0 .34-.094 0-.156-.746-.156-.711 0-.993.062-.559.156"/><path fill="#fcd900" d="m162.254-52.586-.746.371 1.18 1.582c.617.867 1.363 2.2 1.64 3.008.496 1.332.465 1.488-.277 3.098-.434.902-1.488 3.816-2.36 6.48-3.906 11.844-8.492 16.961-22.074 24.555-2.418 1.367-4.961 2.976-5.672 3.566l-1.3 1.117 1.332 1.332 1.363 1.364 2.883-.215c5.3-.402 12.527-2.914 16.836-5.89 2.355-1.614 6.355-5.52 7.937-7.75 1.828-2.637 3.567-6.36 4.34-9.458.93-3.66.867-11.535-.094-14.758-.992-3.289-1.89-5.582-2.914-7.285-.93-1.613-.961-1.644-2.074-1.117"/><path fill="#247040" d="M403.559-59c-.438-.203-.774.3-.606.672.168.504.641.035.977.101.504-.035 1.109.067 1.547-.304.406-.367-.336-.739-.707-.672-.403.035-.805.168-1.211.203m1.918.469c-.504.34-1.75.136-2.254.472-.336.305.203.91.269 1.246.203.473.27 1.008.168 1.516-.168 1.11-.738 2.086-1.211 3.094-1.179 2.527-2.527 4.95-3.636 7.543.707.27 1.378-.203 2.054-.406.539-.133.707-.739.84-1.211.102-.504.203-.977.473-1.414 1.008-2.254 2.187-4.442 3.199-6.7.402-1.144.637-2.355.605-3.53.27-.911-.238-.778-.507-.61m-16.09 9.527c-1.043.27-2.188.371-3.063 1.043 1.953.305 3.703 1.414 4.981 2.895.707 1.011 1.215 2.222 2.258 2.93.539.406 1.175.706 1.851.742.438 0 .707-.372 1.074-.575.641-.472.778-1.379 1.45-1.816.371-.774.066-1.684-.336-2.39-.473-.81-1.145-1.65-1.918-2.157-1.75-1.043-3.942-1.008-5.895-.738-.133.035-.266.035-.402.066m17.168 2.055c-1.953 1.312-4.309 1.785-6.532 2.488-.707.203-1.378.508-1.953 1.012-.84.707-1.445 1.851-1.211 2.996.168.672.844 1.277 1.551 1.043.367-.035.738-.473.875-.035.133.34.235.808.707.808 1.75.168 3.5-.57 4.711-1.816a5.8 5.8 0 0 0 1.719-3.399c.234-1.078.336-2.156.402-3.234-.066-.133-.234.035-.269.137m-17.336 1.21c-1.883.575-3.938.977-5.922.673-.168-.57-1.078.035-.406.27.839 1.144 2.121 1.886 3.398 2.39 1.145 0 2.156-.54 3.234-.739.504-.304 1.313-.238 1.883-.44.504-.235-.336-1.044-.504-1.345-.304-.37-.574-.672-1.043-.843-.203-.067-.437-.098-.64.035m20.027.403c-.84.203-1.781.371-2.32 1.113-.203.336-.305.774-.305 1.176 0 .54.641 0 .707.035-.301.371-.672.64-1.008.977-.371.707-.808 1.48-1.515 1.883-.336.37 0 .875.437.945.403.133.809-.035 1.211-.102 2.258-.406 4.074-2.02 6.328-2.492.371.239.809-.133.844-.504.102-.402-.102-.773-.437-1.011-.407-.438-.743-.942-1.247-1.313-.773-.57-1.75-.906-2.695-.707m11.176.473c-1.547 1.21-3.567 1.648-5.484 1.683-.336.067-.809-.136-.946.27-.133.437.238.875.035 1.277-.269.27-.707.137-1.078.203-.301-.066-.469.371-.097.27.199-.067.707 0 .3.203-.336.27.371.168.539.336.875.3 1.715.738 2.661.977 1.078-.07 1.953-.844 2.793-1.481 1.043-1.012 1.785-2.527 1.546-4.008-.132 0-.132.235-.269.27m-9.996 4.445c-.473.367-1.145.336-1.582.805-.403.406.707.168.504.437-.606-.27-.606-.27-1.176.203-.438.672.234 1.043.469 1.282.808.738 1.851 1.109 2.828 1.445 2.355.672 4.883 1.012 7.304.539a9.7 9.7 0 0 0 2.762-1.012c-.472-.535-1.246-.3-1.851-.504-.336-.168-.707-.402-1.114-.57-1.882-.977-3.703-2.289-5.855-2.727-.738-.167-1.547-.167-2.289.102"/><path fill="#d1242b" d="M383.867-40.555c-1.246 1.313-2.054 2.961-2.691 4.614-.946 2.757-1.113 5.722-.91 8.617.336 3.363 1.379 6.629 2.691 9.726 1.348 2.996 2.66 5.993 4.109 8.922.907 1.852 1.817 3.668 3.028 5.317 1.281 1.652 3.23 2.894 5.386 2.797 1.481 0 2.829-.743 4.075-1.485 1.984-1.11 3.902-2.32 5.89-3.5 4.778-3.465 8.817-7.875 12.489-12.453 1.144-1.516 2.019-3.266 2.254-5.184a20.7 20.7 0 0 0-.168-7.34c-.372-1.413-1.11-2.69-1.75-3.972-.54-.875-1.547-.469-2.391-.504-2.32-.137-4.68-.707-6.699-1.918-.606-.504-.91-1.246-1.379-1.852-.875-.64-2.055.235-2.93-.406-.738-.402-1.613.07-2.254.438-1.144.508-2.558.508-3.601-.2-.707-.269-1.582-.37-2.086-1.042.133-.778-.742-1.516-1.485-1.18-.672.203-1.414-.235-1.984-.606-.641-.37-1.109-1.113-1.852-1.347-2.457.203-6.093 1.414-7.742 2.558"/><path d="M403.324-59.336c-.875-.035-1.449 1.242-.539 1.648.875.942.672 2.356.305 3.47-.574 1.816-1.652 3.363-2.492 5.046-.641 1.246-1.313 2.524-1.821 3.805-.875-.137-.636-1.246-1.175-1.719-1.313-1.684-3.469-2.523-5.59-2.59-2.153-.066-4.309.371-6.192 1.414.102.774 1.008.57 1.547.774.539.472 1.481.437 1.887 1.11-.27.605-1.078.507-1.617.64-1.078.168-2.153.504-3.266.437-.84 0-1.648-.3-2.289-.84-.707.102.203.907.371 1.243.844 1.078 1.887 2.12 3.199 2.593-.507.91-1.75 1.043-2.289 1.918-2.258 2.325-3.332 5.52-3.672 8.684-.57 5.152.809 10.336 2.997 14.98 1.82 3.77 3.703 7.54 5.523 11.313 1.008 1.848 2.152 3.8 4.105 4.777 1.852.91 4.207.844 5.993-.27 2.39-1.21 4.644-2.558 6.933-3.902 5.285-3.535 9.594-8.316 13.328-13.433 1.282-1.95 1.953-4.274 2.289-6.598.407-3.297-.199-6.766-1.984-9.594-.57-.941.809-1.21 1.48-1.379.606-.234 2.055-.539 1.583-1.414-.708-.437-1.614-.168-2.321-.57-.91-.371-1.719-.91-2.558-1.348.168-.773 1.074-.707 1.613-1.109 1.144-1.043 2.223-2.36 2.426-3.941.269-.57-.035-1.68-.809-1.278-.336.606-1.012.875-1.617 1.078-1.582.637-3.297.707-4.945.977-.911-.945-1.821-2.055-3.2-2.223-1.113-.234-2.39 0-3.265.774-.742-.438-.133-1.313-.102-1.918.137-.473-.336-1.211-.707-.54-.84.774-1.984 1.012-2.996 1.45-.504.098-1.109.57-1.547.133-.203-.707.336-1.313.504-1.918 1.246-3.032 3.164-5.79 3.738-9.024.133-.707.403-1.48.102-2.152-.406-.742-1.383-.773-2.121-.676a7 7 0 0 0-.809.172m.199.27c-.839-.34-.773 1.41.071.773.636-.066 1.75.133 2.051-.504-.336-.844-1.481-.305-2.122-.27m1.618.84c-.539.37-1.715-.27-1.852.605.102.605.473 1.18.406 1.816-.035 1.078-.472 2.09-.879 3.067-1.211 2.726-2.824 5.25-4.003 8.011.808.266 1.582-.304 2.355-.539.676-.707.508-1.785 1.047-2.558 1.176-2.727 2.824-5.254 3.598-8.18.136-.742.171-1.516.171-2.289-.304 0-.574-.035-.843.066m-15.754 9.156c-.977.27-2.086.27-2.86.976 1.176.371 2.387.739 3.332 1.614 1.516 1.246 2.391 3.132 3.907 4.378.504.403 1.109.707 1.75.774.504-.809-1.012-.875-1.145-1.582-.777-1.012-1.18-2.223-1.887-3.266 1.11.809 1.313 2.324 2.325 3.266.437.437.972 1.11 1.679.84.707-.504.977-1.38 1.516-2.02.371-.808-.168-1.648-.539-2.355-.84-1.45-2.422-2.457-4.106-2.66-1.312-.2-2.66-.168-3.972.035m17.168 2.054c-2.223 1.547-4.981 1.883-7.438 2.86-1.215.539-2.39 1.648-2.289 3.062 0 .774.504 1.649 1.313 1.719.906-.102 1.144-1.18 1.75-1.684 1.277-1.144 2.996-1.617 4.375-2.625.504-.238-.403.54-.571.606-1.078.707-2.355 1.11-3.336 1.953a4.16 4.16 0 0 0-1.242 1.41c.367.34.199 1.113.977 1.012 1.344.168 2.691-.371 3.801-1.11a5.8 5.8 0 0 0 2.359-3.367c.336-1.144.367-2.355.637-3.535.035-.203-.102-.469-.336-.3m-17.336 1.278c-1.883.574-3.906.91-5.891.605-.168-.672-1.211.168-.437.336.945 1.043 2.156 1.852 3.468 2.39 1.313-.335 2.625-.84 3.969-.94-.098-.743-1.176-.169-1.715-.337-.84 0-1.683 0-2.523-.07 1.48-.27 3.027-.133 4.543-.066.472.605 1.246-.504.437-.672-.371-.64-.941-1.719-1.851-1.246m20.027.336c-.875.203-1.949.406-2.422 1.28-.136.403-.539 1.65.305 1.145 1.379-.875 3.195-.875 4.711-.238-.942 0-1.817-.402-2.727-.234-1.043.133-2.152.539-2.793 1.414-.371.707-.808 1.414-1.515 1.851-.539.809.742 1.145 1.312.875 2.422-.304 4.309-2.086 6.664-2.558.742.37 1.114-.809.672-1.278-.469-.34-.773-.91-1.211-1.28-.804-.708-1.918-1.212-2.996-.977m11.176.472c-1.715 1.38-4.004 1.75-6.16 1.684-.809.3.437 1.648-.606 1.715-.301.066-1.246-.067-1.008.304 1.852 0 3.668-.238 5.418-.808-1.277 1.008-2.996 1.008-4.507.941-.442-.199-.844.305-.204.305 1.008.3 1.954.809 2.997 1.074 1.078-.066 1.953-.84 2.757-1.48 1.079-1.008 1.821-2.489 1.582-4.004-.132 0-.132.234-.269.27m-29.418 1.918c-2.594.371-5.25 1.043-7.406 2.594-.743.84-1.145 1.883-1.785 2.793-1.583 2.996-1.68 6.496-1.583 9.793.27 4.613 2.055 8.988 4.008 13.129 1.715 3.77 3.297 7.574 5.586 11.008 1.246 1.953 3.535 3.3 5.891 3.133 1.551-.137 2.93-.946 4.242-1.684 1.984-1.246 4.008-2.36 5.926-3.672 4.004-2.96 7.437-6.598 10.668-10.367 1.617-1.918 3.164-4.07 3.57-6.63.473-2.491.371-5.085-.137-7.573-.437-1.617-1.277-3.098-2.086-4.547-3.062.238-6.261-.336-8.851-1.985-.641-.539-.809-1.414-1.516-1.886-.875-.371-1.918.336-2.726-.27-.742-.437-1.547.102-2.223.438-1.109.508-2.523.539-3.566-.2-.707-.304-1.582-.304-2.055-.976 0-.844-.809-1.684-1.613-1.18-1.078.067-1.989-.636-2.762-1.347-.402-.336-.977-.907-1.582-.57m-4.68 1.953c-.976-.203-.57 1.883.137.977.199-.238.637-1.45-.137-.977m5.489.168c-.708.168-.743 1.547.066 1.516.809-.07 1.008-1.684.066-1.582a.22.22 0 0 0-.132.066m.031.102c-1.008.133 0 1.953.508.906.234-.336.097-1.312-.508-.906m-5.723.066c-.976.336.809 1.246.539.168-.031-.27-.402-.472-.539-.168m24.305.235c-.504.37-1.617.437-1.684 1.043.946.238 1.918 0 2.863.27 1.715.405 3.333 1.245 5.083 1.581.468.203-.774.035-.977-.031-2.086-.371-3.973-1.48-6.125-1.516-.574-.27-1.953 0-1.449.84.707 1.012 1.918 1.485 3.031 1.887 2.152.672 4.406 1.008 6.629.773 1.312-.132 2.594-.504 3.738-1.144-.574-.672-1.617-.133-2.222-.707-2.391-1.078-4.512-2.895-7.204-3.196-.574-.035-1.144 0-1.683.2m-24.672 2.629c-.238.636-1.043 1.547-.305 2.117.742.203 1.313-.84.977-1.414.133.539-.473 1.617-1.043 1.011-.371-.808.504-1.378.875-1.953-.168-.035-.371.067-.504.239m8.816 2.254c-.707.27-.371 1.851.438 1.343.605-.3.508-1.816-.301-1.48l-.066.07zm.239-.102c-.844.035-.407 1.852.3 1.145.305-.336.371-1.247-.3-1.145m5.453.742c.468.942-1.215.57-.91.367-.036.875 1.582.438 1.007-.336 0-.066-.097-.234-.097-.03m6.16.168c-.875.27-.102 2.02.605 1.176.27-.2.235-1.078.2-1.008.437.64-1.043 1.445-1.043.504-.098-.102.675-.977.238-.672m5.449 1.074c.172.239 1.113.707.539.07a.62.62 0 0 0-.539-.07m-23.156.61c.504.636-1.145 1.043-.844.234-.773.84 1.449.941.875-.066 0-.035.035-.407-.031-.168m23.226.031c-.605.539-.742 1.719 0 2.188.84-.032 1.043-1.145.707-1.75-.136-.27-.406-.57-.707-.438m-.238.473c-.672.539.34 1.984.875 1.043.305-.473-.031-1.618-.738-1.247-.067.067-.102.137-.137.204m5.051 1.445c-.809.508.641 1.953.844.844-.102-.438-.371.672-.743.168-.234-.305-.203-.875-.101-1.012m-26.188 1.414c-.503.574.911-.168.204-.133-.071 0-.137.067-.204.133m-7.238.203c-.301.672 1.348.672.707 1.45-.101.57-1.078.468-1.008-.102-.437.637.809 1.008 1.043.336.571-.64-.472-1.282-.304-1.719.304-.437-.336-.066-.438.035m7.238.402c-.605.407-.406 1.75.438 1.684.641-.234.641-1.176.269-1.648-.136-.203-.539-.336-.707-.035m0 .137c-.574.371-.101 1.414.539 1.277.54-.3.336-1.581-.335-1.445-.071.031-.137.102-.204.168m13.836.067c-.91.304 0 1.953.672 1.18.504-.438.031-1.887-.672-1.18m.067.101c-1.012.438.808 1.617.707.438.101-.371-.473-1.043-.707-.438m-6.867.371c-.407.57-1.18 1.649-.372 2.153.672.168.977-.942.875-1.211.235.773-1.277 1.347-1.042.304 0-.472.839-1.047.671-1.246zm16.125 1.211c.199.168.636 1.211.605.438-.102-.235-.34-.438-.605-.438m-.34.809c-.707.437-1.176 1.48-.707 2.254.675.437 1.383-.403 1.414-1.008.07-.406-.102-.574-.102-.07 0 .875-1.48 1.18-1.344.101.067-.637.606-1.21 1.278-1.21-.133-.137-.403-.235-.539-.067m4.211 3.062c.031.27.875.739.504.168-.102-.133-.336-.27-.504-.168m-32.215.27c-.672.402.605 1.414.808.707-.472.605-.91-.27-.808-.707m16.629.101c-.707.235-.438 1.614.336 1.446.707-.235.742-1.715-.133-1.582l-.102.035zm.133 0c-1.008.168.07 1.918.503.875.204-.336.071-1.347-.503-.875m15.113.47c-.535.472-.57 1.683.238 1.82.84-.204 1.008-1.653.199-1.989a.45.45 0 0 0-.437.168m.101.034c-.875.301-.132 2.086.606 1.211.305-.437.168-1.582-.606-1.21m-26.828.977c.203.875-1.109.203-1.008.066-.101.942 1.649.606 1.145-.27-.102-.1-.137.137-.137.204m17.371-.137c-.066.406.707 1.043.336.27a1.4 1.4 0 0 0-.336-.27m-.742.879c-.738.266-.875 1.918.137 1.715.738-.203 1.144-1.48.367-1.887-.199-.066-.402.035-.504.172m.035.164c-.976.172-.203 1.988.539 1.113.438-.37.235-1.785-.539-1.113m-11.511.172c-.371.539-.844 1.445-.204 2.02.473.234 1.043-1.043.403-.305-.875.101-.805-1.11-.133-1.414.168-.133.473-.672 0-.371zm-8.821 2.32c-.203.676.91-.539.067-.031-.035 0-.035.031-.067.031m.133.504c-.57.508-.672 1.617.035 2.055.809.035 1.078-1.043.774-1.649-.133-.304-.469-.707-.809-.406m.137-.031c-.574.371-.707 1.547.066 1.715.672-.067.742-1.008.406-1.48a.6.6 0 0 0-.472-.235m24.91 1.277c.168.203.637 1.246.672.508-.102-.27-.336-.539-.672-.508m-.676 1.078c-.539.504-.804 1.547-.133 2.055.743.133 1.211-.707 1.246-1.383.168-.57-.707-1.445-1.113-.672m.102.036c-.774.335-.571 2.152.437 1.546.606-.335.672-1.851-.234-1.714l-.102.066zm-8.211 1.851c-.844.235-.574 2.05.371 1.414.469-.34.504-1.719-.371-1.414m-12.93.168c-.605.402-.234 1.785.61 1.48.57-.402.3-1.851-.54-1.55a.075.075 0 0 0-.07.07m12.93-.035c-1.043.203.133 1.988.539.844.168-.34 0-1.246-.539-.844m-12.86.035c-.843.402.372 1.953.672.906.102-.402-.168-1.144-.672-.906m7.606.367c-.906.305-.133 2.121.539 1.246.234-.437.035-.336-.168-.066-1.043.238-.738-1.648.234-1.211.305-.168-.707-.305-.605.031m5.086 4.344c.773.54-.742 1.953-.844.91.067-.234.336-.941-.133-.472-.508.675.703 1.582 1.043.707.168-.336.367-.907-.066-1.145m-9.496 1.246c-.805.234-.367 1.918.437 1.348.641-.34.438-2.02-.437-1.348m.172-.101c-.946.136-.137 1.988.433 1.011.203-.37.203-1.246-.433-1.011m4.07 2.863c-.875.27-.27 2.02.504 1.344.172-.235.437-1.008.172-.336-.574.574-1.383-.403-.676-.84.102-.07.234-.406 0-.168"/><path fill="#ffc13f" d="M391.844-40.723c-1.043.235.371 1.785.539.606.137-.336-.133-1.11-.539-.606m-5.957.203c-.371.876 1.347.032.472-.27a.9.9 0 0 0-.472.27m-.168 3.266c-.809.098-.305 1.715.371 1.145.371-.305.336-1.551-.371-1.145m8.988 1.68c-1.043.168.301 1.851.539.707.133-.336-.07-1.211-.539-.707m4.945.168c-1.007.37.743 1.652.539.441 0-.27-.269-.742-.539-.441m-17.23.472c-.777.438.805 1.114.469.235.035-.266-.403-.637-.469-.235m24.066.203c-.976.403.672 1.715.672.504.102-.336-.336-1.043-.672-.504m-18.379 1.415c-.91.203.504 1.48.504.504.235-.301-.3-1.11-.504-.504m23.696.539c-.438.402-.235 1.547.437 1.445.707-.27.406-1.75-.402-1.445zm5.05 1.648c-.839.606 1.11 1.277.606.27-.066-.235-.402-.606-.606-.27m-33.292 1.985c-.907.101-.235 1.953.371 1.046.168-.37.101-1.011-.371-1.047m7.003.101c-.64.371.133 1.648.672 1.113.336-.406-.035-1.582-.672-1.113m13.938.238c-1.012.47.875 1.48.637.301.07-.336-.504-.91-.637-.3m-7.141 1.043c-1.043.2.34 1.883.539.707.137-.34-.066-1.215-.539-.707m15.789 1.649c-.707.336-.504 2.086.438 1.449.574-.371.605-1.719-.27-1.586l-.066.035zm-27.535 2.726c-.808.473.809 1.516.641.403.031-.301-.406-.84-.641-.403m16.496.473c-1.011.234.438 1.75.571.637.203-.336-.168-1.246-.571-.637m15.414.3c-.57.204-.636 1.38.036 1.481.671-.066.742-1.48-.036-1.48m-27.632.505c-.911.507.875 1.48.601.406.035-.305-.402-.844-.601-.406m17.402 1.414c-.676.101-.641 1.246 0 1.347.637-.066.941-1.312.234-1.445a.3.3 0 0 0-.234.098m-11.715.875c-1.012.304.539 1.683.606.574.132-.336-.27-1.11-.606-.574m-8.617 2.39c-.809.407.066 2.055.672 1.145.269-.438 0-1.547-.672-1.145m24.504 2.188c-.774.336-.403 2.12.472 1.414.571-.371.571-1.75-.304-1.547l-.067.066zm-21.039 2.02c-.907.37.508 1.886.64.742.035-.336-.203-.942-.64-.743m12.758.034c-1.008.336.64 1.649.64.54.137-.336-.305-1.079-.64-.54m-4.915.204c-1.043.066-.101 2.02.336.84.137-.301.102-.84-.336-.84m4.243 4.746c-1.008.504.839 1.511.707.37.132-.437-.539-.976-.707-.37m-8.852 1.008c-1.047.238.469 1.75.57.605.102-.3-.234-1.176-.57-.605m4.274 2.793c-1.043.304.539 1.718.605.574.102-.305-.27-1.11-.605-.574"/><path fill="#88d055" d="M688.691-47.867c-.421.347.743.347.543.844.77 1.808 1.516 3.671 1.836 5.629 1.215 6.277-.32 13.046-4.215 18.132-3.917 5.356-9.871 9.301-16.445 10.39-6 1.044-12.324-.37-17.484-3.57a32 32 0 0 1-3.672-2.656c3.621 4.094 8.902 6.477 14.262 7.07 7.839.895 16.074-1.66 21.828-7.093 3.918-3.672 6.621-8.68 7.168-14.04.468-4.316.023-8.855-1.938-12.75a12.3 12.3 0 0 0-1.414-2.155c-.195-.075-.32.125-.469.199"/><path fill="#b9f88c" d="M688.566-47.719c-.519.2-1.363.621-1.089 1.34 1.66 3.324 2.355 7.094 2.281 10.813-.102 3.496-.918 7.07-2.879 10.023-2.281 3.496-5.727 6.148-9.574 7.711-5.504 2.383-11.782 3.176-17.633 1.71-3.649-.917-7.168-2.675-9.676-5.554-.445-.472-.793-1.015-1.09-1.613-.222-.691-.968-.719-1.488-.273-.77.324-.473 1.19-.051 1.687 1.094 2.133 2.903 3.844 4.988 5.059 3.473 2.21 7.442 3.746 11.559 4.144 4.238.473 8.606-.223 12.473-2.035 6.773-3.074 12.23-9.125 14.289-16.32 1.461-5.258.867-10.989-1.414-15.922-.125-.324-.274-.77-.696-.77"/><path d="M688.047-49.008c-2.852.942-5.234 2.828-7.938 4.067-11.211 6.078-22.05 12.75-32.691 19.718-.918.645-1.91 1.54-1.91 2.73.074 1.462 1.094 2.63 1.933 3.743 3.301 4.02 8.086 6.598 13.122 7.738 4.664 1.043 9.55.547 14.14-.644 5.309-1.438 10.344-4.34 13.863-8.606 4.34-5.308 6.352-12.425 5.434-19.222-.324-2.703-1.066-5.434-2.531-7.739-.668-.968-1.688-1.91-2.953-1.886-.149.027-.321.05-.469.101m.719 1.09c-.496.371-1.414.547-1.391 1.316.125.47.449.891.598 1.364 2.281 5.457 2.406 11.855.125 17.336-1.368 3.152-3.746 5.804-6.575 7.715-4.589 3.148-10.195 4.636-15.726 4.687-4.465.05-9.051-.941-12.797-3.45-1.859-1.26-3.449-2.972-4.414-5.007-.672-.023-1.441.297-1.664.969-.051.617.445 1.09.695 1.636 2.406 3.965 6.449 6.77 10.84 8.208 8.879 2.902 19.195.796 26.242-5.356 3.399-2.977 5.949-6.922 7.168-11.262.817-2.976.965-6.101.692-9.175-.297-2.731-1.039-5.458-2.481-7.84-.394-.371-.445-1.192-1.09-1.239-.097-.027-.148.075-.222.098m-2.68 1.563c-9.723 4.984-19 10.765-28.473 16.148-3.078 1.836-6.101 3.793-8.855 6.05 1.613 3.177 4.664 5.434 7.961 6.65 5.41 1.956 11.433 1.91 16.965.421 4.339-1.168 8.507-3.348 11.461-6.773 1.859-2.18 2.925-4.91 3.445-7.715.82-4.164.797-8.63-.719-12.649-.246-.695-.594-1.34-.965-1.984-.176-.273-.57-.422-.82-.148m-1.637 7.367c-.695.422-.023 1.66.719 1.414.598-.25.473-1.117-.074-1.34-.199-.098-.422-.148-.645-.074m-5.754 5.976c-.621.25-.347 1.168.2 1.364.621.199 1.14-.594.769-1.114-.176-.375-.644-.523-.969-.25m5.606.075c-.668.472-.172 1.562.547 1.664.644.12 1.238-.672.843-1.243-.3-.445-.918-.496-1.39-.422m-11.856 4.265c-.496.695.172 1.887 1.016 1.738.695-.25.547-1.214.023-1.562-.269-.223-.691-.348-1.039-.176m6.125 1.465c-.593.496-.148 1.316.2 1.785.398.547 1.363.422 1.511-.223.125-.593-.297-1.14-.742-1.464-.273-.196-.672-.246-.969-.098m-13.812 1.984c-.77.325-.598 1.739.246 1.785.918-.074 1.016-1.66.125-1.859a.5.5 0 0 0-.371.074m-7.293.895c-.746.246-.992 1.437-.274 1.86.645.245 1.192-.548 1.141-1.141.023-.422-.422-1.067-.867-.72m12.476 2.504c-.843.547-.199 2.11.793 1.91.696-.148.696-1.117.274-1.563-.227-.324-.695-.57-1.067-.347m-9.179 1.09c-.817.398-.668 1.91.273 2.035.844 0 1.164-1.164.719-1.762-.199-.32-.645-.52-.992-.273"/><path fill="#e96c92" d="M686.086-46.355c-9.723 4.984-19 10.765-28.473 16.148-3.078 1.836-6.101 3.793-8.855 6.05 1.613 3.177 4.664 5.434 7.961 6.65 5.41 1.956 11.433 1.91 16.965.421 4.339-1.168 8.507-3.348 11.461-6.773 1.859-2.18 2.925-4.91 3.445-7.715.82-4.164.797-8.63-.719-12.649-.246-.695-.594-1.34-.965-1.984-.176-.273-.57-.422-.82-.148m-1.637 7.367c-.695.422-.023 1.66.719 1.414.598-.25.473-1.117-.074-1.34-.199-.098-.422-.148-.645-.074m-5.754 5.976c-.621.25-.347 1.168.2 1.364.621.199 1.14-.594.769-1.114-.176-.375-.644-.523-.969-.25m5.606.075c-.668.472-.172 1.562.547 1.664.644.12 1.238-.672.843-1.243-.3-.445-.918-.496-1.39-.422m-11.856 4.265c-.496.695.172 1.887 1.016 1.738.695-.25.547-1.214.023-1.562-.269-.223-.691-.348-1.039-.176m6.125 1.465c-.593.496-.148 1.316.2 1.785.398.547 1.363.422 1.511-.223.125-.593-.297-1.14-.742-1.464-.273-.196-.672-.246-.969-.098m-13.812 1.984c-.77.325-.598 1.739.246 1.785.918-.074 1.016-1.66.125-1.859a.5.5 0 0 0-.371.074m-7.293.895c-.746.246-.992 1.437-.274 1.86.645.245 1.192-.548 1.141-1.141.023-.422-.422-1.067-.867-.72m12.476 2.504c-.843.547-.199 2.11.793 1.91.696-.148.696-1.117.274-1.563-.227-.324-.695-.57-1.067-.347m-9.179 1.09c-.817.398-.668 1.91.273 2.035.844 0 1.164-1.164.719-1.762-.199-.32-.645-.52-.992-.273"/></g><path d="M8.242-43.035h-2.21v20.734h2.21zm14.52 14.012c0-1.286-.121-3.106-1.078-4.692-1.223-2.058-3.317-2.3-4.184-2.3-3.227 0-5.914 3.109-5.914 6.992 0 3.945 2.867 7.023 6.336 7.023 1.375 0 3.015-.39 4.66-1.586 0-.117-.09-1.047-.09-1.105-.031-.028-.09-.688-.09-.805-1.761 1.492-3.527 1.703-4.422 1.703-2.3 0-4.273-2.062-4.332-5.23zm-8.934-1.614c.508-2 1.91-3.586 3.672-3.586.93 0 2.988.418 3.5 3.586zM33.79-34.07s.058.058.089.117c.629-.059 1.285-.149 2.39-.149.09 0 .778 0 1.524.059l-.328-1.824c-.57 0-2.602.031-4.574.988-.985-.836-2.18-.988-2.778-.988-2.597 0-4.691 2.183-4.691 4.812q0 1.616.984 2.957c-.683.957-.863 1.856-.863 2.57 0 1.106.418 1.852.746 2.243-1.523.984-1.883 2.27-1.883 3.105 0 2.184 2.84 4.004 6.485 4.004 3.644 0 6.515-1.762 6.515-4.031 0-4.184-4.843-4.184-6.066-4.184h-2.543c-.414 0-1.703 0-1.703-1.586 0-.656.12-.835.3-1.105.508.36 1.497.867 2.692.867 2.566 0 4.687-2.12 4.687-4.84a5 5 0 0 0-1.015-2.988zm-3.677 6.21c-1.316 0-2.629-.894-2.629-3.163 0-2.66 1.672-3.2 2.602-3.2 1.312 0 2.625.899 2.625 3.168 0 2.66-1.672 3.196-2.598 3.196m1.254 5.618c.656 0 3.945 0 3.945 2.062 0 1.375-2.062 2.36-4.39 2.36-2.332 0-4.422-.922-4.422-2.387 0-.09 0-2.035 2.27-2.035zM48.488-34.07s.059.058.09.117c.629-.059 1.285-.149 2.39-.149.09 0 .778 0 1.524.059l-.328-1.824c-.57 0-2.602.031-4.57.988-.989-.836-2.184-.988-2.782-.988-2.597 0-4.69 2.183-4.69 4.812q.002 1.616.987 2.957c-.687.957-.867 1.856-.867 2.57 0 1.106.418 1.852.746 2.243-1.523.984-1.883 2.27-1.883 3.105 0 2.184 2.84 4.004 6.485 4.004 3.644 0 6.515-1.762 6.515-4.031 0-4.184-4.84-4.184-6.066-4.184H43.5c-.418 0-1.703 0-1.703-1.586 0-.656.117-.835.297-1.105.508.36 1.496.867 2.691.867 2.567 0 4.692-2.12 4.692-4.84a5.03 5.03 0 0 0-1.016-2.988zm-3.675 6.21c-1.313 0-2.63-.894-2.63-3.163 0-2.66 1.676-3.2 2.602-3.2 1.313 0 2.63.899 2.63 3.168 0 2.66-1.677 3.196-2.602 3.196m1.257 5.618c.657 0 3.942 0 3.942 2.062 0 1.375-2.059 2.36-4.39 2.36s-4.423-.922-4.423-2.387c0-.09 0-2.035 2.27-2.035zm18.993-6.782c0-1.286-.122-3.106-1.079-4.692-1.226-2.058-3.316-2.3-4.183-2.3-3.227 0-5.914 3.109-5.914 6.992 0 3.945 2.867 7.023 6.332 7.023 1.375 0 3.02-.39 4.664-1.586 0-.117-.09-1.047-.09-1.105-.031-.028-.09-.688-.09-.805-1.766 1.492-3.527 1.703-4.422 1.703-2.3 0-4.273-2.062-4.336-5.23zm-8.938-1.614c.508-2 1.914-3.586 3.676-3.586.926 0 2.988.418 3.496 3.586zm14.316 1.793c0-3.015 2.27-4.988 4.961-5.02v-2.003c-2.718.031-4.304 1.617-5.109 2.781v-2.629h-2.062V-22.3h2.21zm19.075-.031c0-4.031-2.961-7.14-6.395-7.14-3.527 0-6.426 3.167-6.426 7.14 0 3.914 2.989 6.875 6.395 6.875 3.527 0 6.426-3.02 6.426-6.875m-6.395 5.023c-2.152 0-4.152-1.796-4.152-5.32 0-3.617 2.238-5.05 4.12-5.05 2.063 0 4.153 1.554 4.153 5.05 0 3.676-2.12 5.32-4.12 5.32m12.636-11.714H93.34v2.422h2.418zM93.34-24.72v2.418h2.418v-2.418zm194.183-6.573c0-2.062-.535-4.574-4.031-4.574-2.539 0-3.945 1.765-4.39 2.422-.539-1.883-2.184-2.422-3.739-2.422-2.449 0-3.734 1.586-4.242 2.215v-2.063H269V-22.3h2.273v-7.437c0-1.973.774-4.332 2.957-4.332 2.747 0 2.899 1.883 2.899 2.984v8.785h2.269v-7.437c0-1.973.778-4.332 2.957-4.332 2.75 0 2.899 1.883 2.899 2.984v8.785h2.269zm14.438 2.27c0-1.286-.121-3.106-1.078-4.692-1.223-2.058-3.313-2.3-4.18-2.3-3.226 0-5.918 3.109-5.918 6.992 0 3.945 2.871 7.023 6.336 7.023 1.375 0 3.016-.39 4.66-1.586 0-.117-.09-1.047-.09-1.105-.027-.028-.089-.688-.089-.805-1.762 1.492-3.524 1.703-4.422 1.703-2.301 0-4.274-2.062-4.332-5.23zm-8.934-1.614c.508-2 1.911-3.586 3.676-3.586.926 0 2.985.418 3.496 3.586zm22.411-12.398h-2.211v8.722c-1.375-1.132-2.926-1.554-4.211-1.554-2.84 0-5.172 3.05-5.172 6.933 0 3.856 2.211 6.934 5.051 6.934 1.105 0 2.777-.36 4.273-1.824v1.523h2.27zm-2.27 17.21c-.715 1.286-1.762 2.032-3.078 2.032-1.824 0-3.973-1.406-3.973-5.11 0-3.972 2.539-5.167 4.274-5.167 1.164 0 2.121.593 2.777 1.582zm9.352-16.761h-2.567v2.566h2.567zm-.176 7.02h-2.211v13.265h2.211zm16.07 6.691c0-4.031-2.957-7.14-6.394-7.14-3.524 0-6.422 3.167-6.422 7.14 0 3.914 2.988 6.875 6.394 6.875 3.524 0 6.422-3.02 6.422-6.875m-6.394 5.023c-2.153 0-4.153-1.796-4.153-5.32 0-3.617 2.242-5.05 4.125-5.05 2.059 0 4.153 1.554 4.153 5.05 0 3.676-2.122 5.32-4.125 5.32m12.64-11.714h-2.422v2.422h2.422zm-2.422 10.847v2.418h2.422v-2.418zm174.965 1.075c1.016.925 2.27 1.644 3.883 1.644 2.867 0 5.437-2.898 5.437-6.96 0-3.618-1.914-6.907-4.691-6.907-1.223 0-3.137.39-4.691 1.703v-1.402h-2.211v19.062h2.273zm0-8.696c.688-1.015 1.82-1.672 3.043-1.672 2.215 0 4.008 2.239 4.008 5.078 0 2.989-2.063 5.141-4.274 5.141-.835 0-1.406-.3-1.941-.719-.746-.656-.836-1.195-.836-1.672zm23.457 3.317c0-1.286-.117-3.106-1.074-4.692-1.227-2.058-3.316-2.3-4.184-2.3-3.226 0-5.918 3.109-5.918 6.992 0 3.945 2.871 7.023 6.336 7.023 1.375 0 3.02-.39 4.66-1.586 0-.117-.089-1.047-.089-1.105-.028-.028-.09-.688-.09-.805-1.762 1.492-3.524 1.703-4.422 1.703-2.301 0-4.27-2.062-4.332-5.23zm-8.933-1.614c.507-2 1.914-3.586 3.675-3.586.926 0 2.989.418 3.496 3.586zm19.812-4.449a9.64 9.64 0 0 0-4.211-.93c-.687 0-4.844 0-4.844 3.887 0 1.313.719 2.211 1.168 2.629 1.075.926 1.821 1.074 3.582 1.434.989.207 2.723.566 2.723 2.152 0 2.062-2.332 2.062-2.75 2.062a7.9 7.9 0 0 1-4.539-1.496l-.363 2.032c.152.09 2.183 1.316 4.929 1.316 3.856 0 4.782-2.332 4.782-4.094 0-1.523-.926-2.48-1.043-2.629-1.106-1.136-2.004-1.316-3.825-1.675-1.078-.207-2.601-.508-2.601-2 0-1.852 2.094-1.852 2.48-1.852 1.582 0 2.84.36 4.153 1.105zm12.844 4.031c0-2.867-2.063-4.96-4.84-4.96-1.793 0-3.137.421-4.602 1.257l.18 1.969c1.313-.953 2.688-1.492 4.422-1.492 1.375 0 2.57 1.105 2.57 3.285v1.226c-1.347.06-3.136.149-4.933.747-2 .687-3.164 1.793-3.164 3.289 0 1.312.777 3.734 3.316 3.734 1.645 0 3.734-.48 4.84-1.406v1.105h2.211zm-2.27 4.75c0 .598 0 1.317-.988 1.914-.805.508-1.82.598-2.27.598-1.613 0-2.718-.867-2.718-1.973 0-2.03 4.152-2.48 5.976-2.48zm17.254-4.988c0-1.824-.387-4.574-4.004-4.574-1.672 0-3.105.75-4.242 2.183v-2.03H569v13.413h2.273v-7.437c0-1.856.688-4.332 2.957-4.332 2.778 0 2.868 1.941 2.868 2.984v8.785h2.269zm7.442-2.539h4.125v-1.734h-4.125v-3.793h-2.063v3.793h-2.508v1.734h2.45v8.035c0 1.735.39 3.797 2.449 3.797 2.004 0 3.379-.687 4.304-1.168l-.449-1.73a4.05 4.05 0 0 1-2.687 1.046c-1.317 0-1.496-1.406-1.496-2.453zm17.652 4.809c0-1.286-.121-3.106-1.078-4.692-1.223-2.058-3.313-2.3-4.18-2.3-3.226 0-5.918 3.109-5.918 6.992 0 3.945 2.871 7.023 6.336 7.023 1.375 0 3.016-.39 4.66-1.586 0-.117-.09-1.047-.09-1.105-.027-.028-.089-.688-.089-.805-1.762 1.492-3.524 1.703-4.422 1.703-2.301 0-4.274-2.062-4.332-5.23zm-8.934-1.614c.508-2 1.911-3.586 3.676-3.586.926 0 2.985.418 3.496 3.586zm15.032-4.929h-2.418v2.422h2.418zm-2.418 10.847v2.418h2.418v-2.418z"/></g></svg>