<svg xmlns="http://www.w3.org/2000/svg" width="668" height="68pt" viewBox="0 -68 501 68"><g id="page1"><path fill="#ffffbf" d="M6.016-16.504c2.949.098 85.55.098 88.5 0 2.742-.09 4.957-2.273 5-5 .02-1.332.02-38.664 0-40-.043-2.727-2.258-4.91-5-5-2.95-.098-85.551-.098-88.5 0-2.739.09-4.957 2.273-5 5-.02 1.336-.02 38.668 0 40 .043 2.727 2.261 4.91 5 5"/><path fill="none" stroke="#0d0d0d" stroke-linecap="round" stroke-linejoin="round" stroke-width="2" d="M6.016-16.504c2.949.098 85.55.098 88.5 0 2.742-.09 4.957-2.273 5-5 .02-1.332.02-38.664 0-40-.043-2.727-2.258-4.91-5-5-2.95-.098-85.551-.098-88.5 0-2.739.09-4.957 2.273-5 5-.02 1.336-.02 38.668 0 40 .043 2.727 2.261 4.91 5 5"/><path fill="none" stroke="#0d0d0d" stroke-linecap="round" stroke-linejoin="round" stroke-width="3" d="M50.266-26.504v-30"/><path d="M17.766-29.004a5 5 0 1 0-10 0 5 5 0 0 0 10 0m0-25a5 5 0 1 0-10 0 5 5 0 0 0 10 0m25 25a5 5 0 1 0-10 0 5 5 0 0 0 10 0m0-25a5 5 0 1 0-10 0 5 5 0 0 0 10 0m25 25a5 5 0 1 0-10 0 5 5 0 0 0 10 0m12.5-12.5a5 5 0 1 0-10 0 5 5 0 0 0 10 0m12.5-12.5a5 5 0 1 0-10 0 5 5 0 0 0 10 0"/><path fill="#ffffbf" d="M106.016-16.504c2.949.098 85.55.098 88.5 0 2.742-.09 4.957-2.273 5-5 .019-1.332.019-38.664 0-40-.043-2.727-2.258-4.91-5-5-2.95-.098-85.551-.098-88.5 0-2.739.09-4.957 2.273-5 5-.02 1.336-.02 38.668 0 40 .043 2.727 2.261 4.91 5 5"/><path fill="none" stroke="#0d0d0d" stroke-linecap="round" stroke-linejoin="round" stroke-width="2" d="M106.016-16.504c2.949.098 85.55.098 88.5 0 2.742-.09 4.957-2.273 5-5 .019-1.332.019-38.664 0-40-.043-2.727-2.258-4.91-5-5-2.95-.098-85.551-.098-88.5 0-2.739.09-4.957 2.273-5 5-.02 1.336-.02 38.668 0 40 .043 2.727 2.261 4.91 5 5"/><path fill="none" stroke="#0d0d0d" stroke-linecap="round" stroke-linejoin="round" stroke-width="3" d="M150.266-26.504v-30"/><path d="M117.766-29.004a5 5 0 1 0-10 0 5 5 0 0 0 10 0m12.5-12.5a5 5 0 1 0-10 0 5 5 0 0 0 10 0m12.5-12.5a5 5 0 1 0-10 0 5 5 0 0 0 10 0m25 25a5 5 0 1 0-10 0 5 5 0 0 0 10 0m25-25a5 5 0 1 0-10 0 5 5 0 0 0 10 0"/><path fill="#ffffbf" d="M206.016-16.504c2.949.098 85.55.098 88.5 0 2.742-.09 4.957-2.273 5-5 .019-1.332.019-38.664 0-40-.043-2.727-2.258-4.91-5-5-2.95-.098-85.551-.098-88.5 0-2.739.09-4.957 2.273-5 5-.02 1.336-.02 38.668 0 40 .043 2.727 2.261 4.91 5 5"/><path fill="none" stroke="#0d0d0d" stroke-linecap="round" stroke-linejoin="round" stroke-width="2" d="M206.016-16.504c2.949.098 85.55.098 88.5 0 2.742-.09 4.957-2.273 5-5 .019-1.332.019-38.664 0-40-.043-2.727-2.258-4.91-5-5-2.95-.098-85.551-.098-88.5 0-2.739.09-4.957 2.273-5 5-.02 1.336-.02 38.668 0 40 .043 2.727 2.261 4.91 5 5"/><path fill="none" stroke="#0d0d0d" stroke-linecap="round" stroke-linejoin="round" stroke-width="3" d="M250.266-26.504v-30"/><path d="M217.766-29.004a5 5 0 1 0-10 0 5 5 0 0 0 10 0m25-25a5 5 0 1 0-10 0 5 5 0 0 0 10 0m25 25a5 5 0 1 0-10 0 5 5 0 0 0 10 0m0-25a5 5 0 1 0-10 0 5 5 0 0 0 10 0m25 25a5 5 0 1 0-10 0 5 5 0 0 0 10 0m0-25a5 5 0 1 0-10 0 5 5 0 0 0 10 0m-12.5 12.5a5 5 0 1 0-10 0 5 5 0 0 0 10 0"/><path fill="#ffffbf" d="M306.016-16.504c2.949.098 85.55.098 88.5 0 2.742-.09 4.957-2.273 5-5 .019-1.332.019-38.664 0-40-.043-2.727-2.258-4.91-5-5-2.95-.098-85.551-.098-88.5 0-2.739.09-4.957 2.273-5 5-.02 1.336-.02 38.668 0 40 .043 2.727 2.261 4.91 5 5"/><path fill="none" stroke="#0d0d0d" stroke-linecap="round" stroke-linejoin="round" stroke-width="2" d="M306.016-16.504c2.949.098 85.55.098 88.5 0 2.742-.09 4.957-2.273 5-5 .019-1.332.019-38.664 0-40-.043-2.727-2.258-4.91-5-5-2.95-.098-85.551-.098-88.5 0-2.739.09-4.957 2.273-5 5-.02 1.336-.02 38.668 0 40 .043 2.727 2.261 4.91 5 5"/><path fill="none" stroke="#0d0d0d" stroke-linecap="round" stroke-linejoin="round" stroke-width="3" d="M350.266-26.504v-30"/><path d="M317.766-29.004a5 5 0 1 0-10 0 5 5 0 0 0 10 0m0-25a5 5 0 1 0-10 0 5 5 0 0 0 10 0m25 25a5 5 0 1 0-10 0 5 5 0 0 0 10 0m0-25a5 5 0 1 0-10 0 5 5 0 0 0 10 0m-12.5 12.5a5 5 0 1 0-10 0 5 5 0 0 0 10 0m50 0a5 5 0 1 0-10 0 5 5 0 0 0 10 0"/><path fill="#ffffbf" d="M406.016-16.504c2.949.098 85.55.098 88.5 0 2.742-.09 4.957-2.273 5-5 .019-1.332.019-38.664 0-40-.043-2.727-2.258-4.91-5-5-2.95-.098-85.551-.098-88.5 0-2.739.09-4.957 2.273-5 5-.02 1.336-.02 38.668 0 40 .043 2.727 2.261 4.91 5 5"/><path fill="none" stroke="#0d0d0d" stroke-linecap="round" stroke-linejoin="round" stroke-width="2" d="M406.016-16.504c2.949.098 85.55.098 88.5 0 2.742-.09 4.957-2.273 5-5 .019-1.332.019-38.664 0-40-.043-2.727-2.258-4.91-5-5-2.95-.098-85.551-.098-88.5 0-2.739.09-4.957 2.273-5 5-.02 1.336-.02 38.668 0 40 .043 2.727 2.261 4.91 5 5"/><path fill="none" stroke="#0d0d0d" stroke-linecap="round" stroke-linejoin="round" stroke-width="3" d="M450.266-26.504v-30"/><path d="M430.266-41.504a5 5 0 1 0-10 0 5 5 0 0 0 10 0m37.5 12.5a5 5 0 1 0-10 0 5 5 0 0 0 10 0m0-25a5 5 0 1 0-10 0 5 5 0 0 0 10 0m25 25a5 5 0 1 0-10 0 5 5 0 0 0 10 0m0-25a5 5 0 1 0-10 0 5 5 0 0 0 10 0m-12.5 25a5 5 0 1 0-10 0 5 5 0 0 0 10 0m0-25a5 5 0 1 0-10 0 5 5 0 0 0 10 0"/><path fill="none" stroke="#e6e6e6" stroke-linecap="round" stroke-linejoin="round" stroke-width="3" d="M75.266-11.504v10h50v-10m50 0v10h50v-10m50 0v10h50v-10m50 0v10h50v-10"/></g></svg>