<?xml version="1.0" encoding="utf-8"?>
<svg version="1.1" id="Layer_1" height="500" width="2300" viewBox="0 0 2300 500" enable-background="new 0 0 640 640" style="" xmlns="http://www.w3.org/2000/svg" xmlns:bx="https://boxy-svg.com">
  <g transform="matrix(1, 0, 0, 1, -631.589478, -39.976475)">
    <title>O</title>
    <path d="M 804.964 338.624 m -159.99 0 a 159.99 178.814 0 1 0 319.98 0 a 159.99 178.814 0 1 0 -319.98 0 Z M 804.964 338.624 m -88.963 0 a 88.963 103.701 0 0 1 177.926 0 a 88.963 103.701 0 0 1 -177.926 0 Z" style="stroke: rgb(0, 0, 0); fill: rgb(50, 101, 31); stroke-width: 4px;" bx:shape="ring 804.964 338.624 88.963 103.701 159.99 178.814 1@23975c2f"/>
    <path style="fill: rgb(216, 216, 216); stroke-width: 6px; stroke: rgb(54, 165, 36);" d="M 690.389 316.812 L 852.487 205.633"/>
    <path style="fill: rgb(216, 216, 216); stroke-width: 6px; stroke: rgb(54, 165, 36);" d="M 704.25 432.388 L 688.109 323.018"/>
    <path style="fill: rgb(216, 216, 216); stroke-width: 6px; stroke: rgb(54, 165, 36);" d="M 859.332 477.659 L 707.864 438.13"/>
    <path style="fill: rgb(216, 216, 216); stroke-width: 6px; stroke: rgb(54, 165, 36);" d="M 688.484 315.63 L 748.386 208.513"/>
    <g transform="matrix(1, 0, 0, 1, 618.603149, -21.066687)">
      <ellipse style="fill: rgb(51, 171, 35); stroke: rgb(16, 80, 8); stroke-width: 4px;" cx="239.03" cy="496.451" rx="14.862" ry="14.862"/>
      <ellipse style="stroke: rgb(0, 0, 0); fill: rgb(16, 77, 7); stroke-width: 0px;" cx="239.03" cy="496.451" rx="3.207" ry="3.207"/>
    </g>
    <g transform="matrix(1, 0, 0, 1, 613.627197, -293.924683)">
      <ellipse style="fill: rgb(51, 171, 35); stroke: rgb(16, 80, 8); stroke-width: 4px;" cx="239.03" cy="496.451" rx="14.862" ry="14.862"/>
      <ellipse style="stroke: rgb(0, 0, 0); fill: rgb(16, 77, 7); stroke-width: 0px;" cx="239.03" cy="496.451" rx="3.207" ry="3.207"/>
    </g>
    <g transform="matrix(1, 0, 0, 1, 512.732178, -289.396667)">
      <ellipse style="fill: rgb(51, 171, 35); stroke: rgb(16, 80, 8); stroke-width: 4px;" cx="239.03" cy="496.451" rx="14.862" ry="14.862"/>
      <ellipse style="stroke: rgb(0, 0, 0); fill: rgb(16, 77, 7); stroke-width: 0px;" cx="239.03" cy="496.451" rx="3.207" ry="3.207"/>
    </g>
    <g transform="matrix(1, 0, 0, 1, 449.255157, -178.792267)">
      <ellipse style="fill: rgb(51, 171, 35); stroke: rgb(16, 80, 8); stroke-width: 4px;" cx="239.03" cy="496.451" rx="14.862" ry="14.862"/>
      <ellipse style="stroke: rgb(0, 0, 0); fill: rgb(16, 77, 7); stroke-width: 0px;" cx="239.03" cy="496.451" rx="3.207" ry="3.207"/>
    </g>
    <g transform="matrix(1, 0, 0, 1, 468.738403, -62.756512)">
      <ellipse style="fill: rgb(51, 171, 35); stroke: rgb(16, 80, 8); stroke-width: 4px;" cx="239.03" cy="496.451" rx="14.862" ry="14.862"/>
      <ellipse style="stroke: rgb(0, 0, 0); fill: rgb(16, 77, 7); stroke-width: 0px;" cx="239.03" cy="496.451" rx="3.207" ry="3.207"/>
    </g>
  </g>
  <g transform="matrix(1, 0, 0, 1, -631.589478, -22.034216)">
    <title>I</title>
    <rect x="977.003" y="147.833" width="97.934" height="345.951" style="stroke: rgb(0, 0, 0); fill: rgb(223, 225, 170); stroke-width: 4px;" rx="36.693" ry="36.693"/>
    <path style="fill: rgb(216, 216, 216); stroke: rgb(63, 76, 50); stroke-width: 7px;" d="M 1026.357 448.517 L 1025.92 195.312"/>
    <ellipse style="stroke: rgb(0, 0, 0); fill: rgb(54, 70, 44); stroke-width: 0px;" cx="1025.548" cy="193.227" rx="17.756" ry="17.598"/>
    <ellipse style="stroke: rgb(123, 130, 85); stroke-width: 3px; fill: rgb(220, 225, 170);" cx="1026.393" cy="315.51" rx="17.756" ry="17.598"/>
    <g transform="matrix(1, 0, 0, 1, 594.814697, -24.526834)">
      <ellipse style="stroke: rgb(123, 130, 85); stroke-width: 3px; fill: rgb(201, 210, 164);" cx="431.156" cy="472.917" rx="17.756" ry="17.598"/>
      <ellipse style="stroke: rgb(0, 0, 0); stroke-width: 0px; fill: rgb(57, 73, 46);" cx="431.156" cy="472.917" rx="11.747" ry="11.747"/>
    </g>
    <ellipse style="stroke: rgb(0, 0, 0); stroke-width: 5px; fill: rgb(223, 225, 170);" cx="1025.97" cy="88.053" rx="40.119" ry="40.119"/>
    <g transform="matrix(1, 0, 0, 1, 594.814026, -384.86438)">
      <ellipse style="stroke: rgb(123, 130, 85); stroke-width: 3px; fill: rgb(201, 210, 164);" cx="431.156" cy="472.917" rx="17.756" ry="17.598"/>
      <ellipse style="stroke: rgb(0, 0, 0); stroke-width: 0px; fill: rgb(57, 73, 46);" cx="431.156" cy="472.917" rx="11.747" ry="11.747"/>
    </g>
  </g>
  <g transform="matrix(1, 0, 0, 1, -631.589478, -16.492472)">
    <title>I</title>
    <rect x="1101.481" y="145.062" width="97.934" height="345.951" style="stroke: rgb(0, 0, 0); stroke-width: 4px; fill: rgb(240, 6, 7);" rx="36.693" ry="36.693"/>
    <path style="fill: rgb(216, 216, 216); stroke-width: 7px; stroke: rgb(222, 213, 160);" d="M 1150.835 445.746 L 1150.398 192.541"/>
    <ellipse style="stroke: rgb(0, 0, 0); stroke-width: 5px; fill: rgb(240, 6, 7);" cx="1150.448" cy="85.282" rx="40.119" ry="40.119"/>
    <g transform="matrix(1, 0, 0, 1, 606.889954, 58.501686)">
      <ellipse style="stroke-width: 3px; stroke: rgb(234, 149, 112); fill: rgb(150, 57, 35);" cx="543.558" cy="131.533" rx="17.756" ry="17.598"/>
      <ellipse style="fill: rgb(132, 58, 34); stroke: rgb(222, 213, 160); stroke-width: 9px;" cx="543.558" cy="131.533" rx="7.383" ry="7.383"/>
    </g>
    <g transform="matrix(1, 0, 0, 1, 606.889954, 314.269104)">
      <ellipse style="stroke-width: 3px; stroke: rgb(234, 149, 112); fill: rgb(150, 57, 35);" cx="543.558" cy="131.533" rx="17.756" ry="17.598"/>
      <ellipse style="fill: rgb(132, 58, 34); stroke: rgb(222, 213, 160); stroke-width: 9px;" cx="543.558" cy="131.533" rx="7.383" ry="7.383"/>
    </g>
    <g transform="matrix(1, 0, 0, 1, 606.889954, -46.251011)">
      <ellipse style="stroke-width: 3px; stroke: rgb(234, 149, 112); fill: rgb(150, 57, 35);" cx="543.558" cy="131.533" rx="17.756" ry="17.598"/>
      <ellipse style="fill: rgb(132, 58, 34); stroke: rgb(222, 213, 160); stroke-width: 9px;" cx="543.558" cy="131.533" rx="7.383" ry="7.383"/>
    </g>
  </g>
  <path d="M 708.329 36.559 Q 708.329 31.459 710.039 27.349 Q 711.749 23.239 714.779 20.359 Q 717.809 17.479 721.979 15.919 Q 726.149 14.359 731.069 14.359 Q 736.049 14.359 740.249 15.919 Q 744.449 17.479 747.509 20.359 Q 750.569 23.239 752.279 27.349 Q 753.989 31.459 753.989 36.559 Q 753.989 41.539 752.279 45.649 Q 750.569 49.759 747.509 52.729 Q 744.449 55.699 740.249 57.349 Q 736.049 58.999 731.069 58.999 Q 726.149 58.999 721.979 57.349 Q 717.809 55.699 714.779 52.729 Q 711.749 49.759 710.039 45.649 Q 708.329 41.539 708.329 36.559 Z M 716.549 36.559 Q 716.549 39.979 717.599 42.829 Q 718.649 45.679 720.599 47.779 Q 722.549 49.879 725.219 51.049 Q 727.889 52.219 731.129 52.219 Q 734.369 52.219 737.069 51.049 Q 739.769 49.879 741.719 47.779 Q 743.669 45.679 744.719 42.829 Q 745.769 39.979 745.769 36.559 Q 745.769 33.259 744.719 30.439 Q 743.669 27.619 741.749 25.519 Q 739.829 23.419 737.129 22.219 Q 734.429 21.019 731.129 21.019 Q 727.829 21.019 725.159 22.219 Q 722.489 23.419 720.569 25.519 Q 718.649 27.619 717.599 30.439 Q 716.549 33.259 716.549 36.559 Z M 761.064 12.559 L 768.264 12.559 L 768.264 57.919 L 761.064 57.919 Z M 777.147 29.119 L 784.347 29.119 L 784.347 57.919 L 777.147 57.919 Z M 776.127 19.339 Q 776.127 17.599 777.417 16.309 Q 778.707 15.019 780.687 15.019 Q 782.667 15.019 784.017 16.249 Q 785.367 17.479 785.367 19.339 Q 785.367 21.199 784.017 22.429 Q 782.667 23.659 780.687 23.659 Q 778.707 23.659 777.417 22.369 Q 776.127 21.079 776.127 19.339 Z M 827.485 28.279 Q 830.305 28.279 832.315 29.269 Q 834.325 30.259 835.615 31.879 Q 836.905 33.499 837.505 35.599 Q 838.105 37.699 838.105 39.919 L 838.105 57.919 L 830.905 57.919 L 830.905 41.959 Q 830.905 40.699 830.725 39.319 Q 830.545 37.939 829.945 36.829 Q 829.345 35.719 828.295 34.999 Q 827.245 34.279 825.505 34.279 Q 823.825 34.279 822.625 34.999 Q 821.425 35.719 820.645 36.859 Q 819.865 37.999 819.505 39.409 Q 819.145 40.819 819.145 42.199 L 819.145 57.919 L 811.945 57.919 L 811.945 40.519 Q 811.945 37.819 810.655 36.049 Q 809.365 34.279 806.605 34.279 Q 804.985 34.279 803.785 34.969 Q 802.585 35.659 801.835 36.739 Q 801.085 37.819 800.695 39.229 Q 800.305 40.639 800.305 42.079 L 800.305 57.919 L 793.105 57.919 L 793.105 29.119 L 799.945 29.119 L 799.945 33.739 L 800.065 33.739 Q 800.545 32.659 801.355 31.699 Q 802.165 30.739 803.275 29.959 Q 804.385 29.179 805.825 28.729 Q 807.265 28.279 809.005 28.279 Q 812.365 28.279 814.585 29.779 Q 816.805 31.279 818.005 33.739 Q 819.445 31.099 821.845 29.689 Q 824.245 28.279 827.485 28.279 Z M 853.403 29.119 L 853.403 33.139 L 853.583 33.139 Q 854.123 32.299 854.993 31.429 Q 855.863 30.559 857.123 29.869 Q 858.383 29.179 859.973 28.729 Q 861.563 28.279 863.543 28.279 Q 866.603 28.279 869.183 29.449 Q 871.763 30.619 873.623 32.659 Q 875.483 34.699 876.503 37.459 Q 877.523 40.219 877.523 43.399 Q 877.523 46.579 876.533 49.369 Q 875.543 52.159 873.713 54.229 Q 871.883 56.299 869.273 57.529 Q 866.663 58.759 863.363 58.759 Q 860.303 58.759 857.753 57.499 Q 855.203 56.239 853.823 54.079 L 853.703 54.079 L 853.703 72.319 L 846.503 72.319 L 846.503 29.119 Z M 870.203 43.399 Q 870.203 41.719 869.693 40.069 Q 869.183 38.419 868.163 37.099 Q 867.143 35.779 865.583 34.969 Q 864.023 34.159 861.923 34.159 Q 859.943 34.159 858.383 34.999 Q 856.823 35.839 855.713 37.159 Q 854.603 38.479 854.033 40.159 Q 853.463 41.839 853.463 43.519 Q 853.463 45.199 854.033 46.849 Q 854.603 48.499 855.713 49.819 Q 856.823 51.139 858.383 51.949 Q 859.943 52.759 861.923 52.759 Q 864.023 52.759 865.583 51.919 Q 867.143 51.079 868.163 49.759 Q 869.183 48.439 869.693 46.759 Q 870.203 45.079 870.203 43.399 Z M 884.608 29.119 L 891.808 29.119 L 891.808 57.919 L 884.608 57.919 Z M 883.588 19.339 Q 883.588 17.599 884.878 16.309 Q 886.168 15.019 888.148 15.019 Q 890.128 15.019 891.478 16.249 Q 892.828 17.479 892.828 19.339 Q 892.828 21.199 891.478 22.429 Q 890.128 23.659 888.148 23.659 Q 886.168 23.659 884.878 22.369 Q 883.588 21.079 883.588 19.339 Z M 918.445 54.259 L 918.265 54.259 Q 917.185 56.179 914.785 57.409 Q 912.385 58.639 909.325 58.639 Q 907.585 58.639 905.695 58.189 Q 903.805 57.739 902.215 56.689 Q 900.625 55.639 899.575 53.929 Q 898.525 52.219 898.525 49.699 Q 898.525 46.459 900.355 44.539 Q 902.185 42.619 905.065 41.599 Q 907.945 40.579 911.455 40.249 Q 914.965 39.919 918.325 39.919 L 918.325 39.199 Q 918.325 36.499 916.375 35.209 Q 914.425 33.919 911.725 33.919 Q 909.445 33.919 907.345 34.879 Q 905.245 35.839 903.865 37.219 L 900.145 32.839 Q 902.605 30.559 905.815 29.419 Q 909.025 28.279 912.325 28.279 Q 916.165 28.279 918.655 29.359 Q 921.145 30.439 922.585 32.179 Q 924.025 33.919 924.595 36.079 Q 925.165 38.239 925.165 40.399 L 925.165 57.919 L 918.445 57.919 Z M 918.325 44.779 L 916.705 44.779 Q 914.965 44.779 913.045 44.929 Q 911.125 45.079 909.505 45.589 Q 907.885 46.099 906.805 47.029 Q 905.725 47.959 905.725 49.579 Q 905.725 50.599 906.175 51.289 Q 906.625 51.979 907.345 52.399 Q 908.065 52.819 908.965 52.999 Q 909.865 53.179 910.765 53.179 Q 914.485 53.179 916.405 51.199 Q 918.325 49.219 918.325 45.799 Z M 962.845 57.919 L 956.005 57.919 L 956.005 53.599 L 955.885 53.599 Q 954.385 56.119 951.715 57.439 Q 949.045 58.759 945.985 58.759 Q 942.685 58.759 940.075 57.529 Q 937.465 56.299 935.635 54.229 Q 933.805 52.159 932.815 49.369 Q 931.825 46.579 931.825 43.399 Q 931.825 40.219 932.845 37.459 Q 933.865 34.699 935.725 32.659 Q 937.585 30.619 940.165 29.449 Q 942.745 28.279 945.805 28.279 Q 947.785 28.279 949.345 28.729 Q 950.905 29.179 952.075 29.839 Q 953.245 30.499 954.085 31.279 Q 954.925 32.059 955.465 32.779 L 955.645 32.779 L 955.645 12.559 L 962.845 12.559 Z M 939.145 43.399 Q 939.145 45.079 939.655 46.759 Q 940.165 48.439 941.185 49.759 Q 942.205 51.079 943.765 51.919 Q 945.325 52.759 947.425 52.759 Q 949.405 52.759 950.965 51.949 Q 952.525 51.139 953.635 49.819 Q 954.745 48.499 955.315 46.849 Q 955.885 45.199 955.885 43.519 Q 955.885 41.839 955.315 40.159 Q 954.745 38.479 953.635 37.159 Q 952.525 35.839 950.965 34.999 Q 949.405 34.159 947.425 34.159 Q 945.325 34.159 943.765 34.969 Q 942.205 35.779 941.185 37.099 Q 940.165 38.419 939.655 40.069 Q 939.145 41.719 939.145 43.399 Z M 971.728 29.119 L 978.928 29.119 L 978.928 57.919 L 971.728 57.919 Z M 970.708 19.339 Q 970.708 17.599 971.998 16.309 Q 973.288 15.019 975.268 15.019 Q 977.248 15.019 978.598 16.249 Q 979.948 17.479 979.948 19.339 Q 979.948 21.199 978.598 22.429 Q 977.248 23.659 975.268 23.659 Q 973.288 23.659 971.998 22.369 Q 970.708 21.079 970.708 19.339 Z M 1003.046 15.439 L 1010.606 15.439 L 1010.606 57.919 L 1003.046 57.919 Z M 1015.462 34.879 L 1015.462 29.119 L 1020.502 29.119 L 1020.502 20.779 L 1027.582 20.779 L 1027.582 29.119 L 1034.782 29.119 L 1034.782 34.879 L 1027.582 34.879 L 1027.582 48.259 Q 1027.582 50.179 1028.272 51.439 Q 1028.962 52.699 1031.362 52.699 Q 1032.082 52.699 1032.922 52.549 Q 1033.762 52.399 1034.422 52.099 L 1034.662 57.739 Q 1033.702 58.099 1032.382 58.309 Q 1031.062 58.519 1029.862 58.519 Q 1026.982 58.519 1025.182 57.709 Q 1023.382 56.899 1022.332 55.489 Q 1021.282 54.079 1020.892 52.249 Q 1020.502 50.419 1020.502 48.319 L 1020.502 34.879 Z M 1057.887 54.259 L 1057.707 54.259 Q 1056.627 56.179 1054.227 57.409 Q 1051.827 58.639 1048.767 58.639 Q 1047.027 58.639 1045.137 58.189 Q 1043.247 57.739 1041.657 56.689 Q 1040.067 55.639 1039.017 53.929 Q 1037.967 52.219 1037.967 49.699 Q 1037.967 46.459 1039.797 44.539 Q 1041.627 42.619 1044.507 41.599 Q 1047.387 40.579 1050.897 40.249 Q 1054.407 39.919 1057.767 39.919 L 1057.767 39.199 Q 1057.767 36.499 1055.817 35.209 Q 1053.867 33.919 1051.167 33.919 Q 1048.887 33.919 1046.787 34.879 Q 1044.687 35.839 1043.307 37.219 L 1039.587 32.839 Q 1042.047 30.559 1045.257 29.419 Q 1048.467 28.279 1051.767 28.279 Q 1055.607 28.279 1058.097 29.359 Q 1060.587 30.439 1062.027 32.179 Q 1063.467 33.919 1064.037 36.079 Q 1064.607 38.239 1064.607 40.399 L 1064.607 57.919 L 1057.887 57.919 Z M 1057.767 44.779 L 1056.147 44.779 Q 1054.407 44.779 1052.487 44.929 Q 1050.567 45.079 1048.947 45.589 Q 1047.327 46.099 1046.247 47.029 Q 1045.167 47.959 1045.167 49.579 Q 1045.167 50.599 1045.617 51.289 Q 1046.067 51.979 1046.787 52.399 Q 1047.507 52.819 1048.407 52.999 Q 1049.307 53.179 1050.207 53.179 Q 1053.927 53.179 1055.847 51.199 Q 1057.767 49.219 1057.767 45.799 Z M 1073.126 12.559 L 1080.326 12.559 L 1080.326 57.919 L 1073.126 57.919 Z M 1089.204 29.119 L 1096.404 29.119 L 1096.404 57.919 L 1089.204 57.919 Z M 1088.184 19.339 Q 1088.184 17.599 1089.474 16.309 Q 1090.764 15.019 1092.744 15.019 Q 1094.724 15.019 1096.074 16.249 Q 1097.424 17.479 1097.424 19.339 Q 1097.424 21.199 1096.074 22.429 Q 1094.724 23.659 1092.744 23.659 Q 1090.764 23.659 1089.474 22.369 Q 1088.184 21.079 1088.184 19.339 Z M 1123.048 54.259 L 1122.868 54.259 Q 1121.788 56.179 1119.388 57.409 Q 1116.988 58.639 1113.928 58.639 Q 1112.188 58.639 1110.298 58.189 Q 1108.408 57.739 1106.818 56.689 Q 1105.228 55.639 1104.178 53.929 Q 1103.128 52.219 1103.128 49.699 Q 1103.128 46.459 1104.958 44.539 Q 1106.788 42.619 1109.668 41.599 Q 1112.548 40.579 1116.058 40.249 Q 1119.568 39.919 1122.928 39.919 L 1122.928 39.199 Q 1122.928 36.499 1120.978 35.209 Q 1119.028 33.919 1116.328 33.919 Q 1114.048 33.919 1111.948 34.879 Q 1109.848 35.839 1108.468 37.219 L 1104.748 32.839 Q 1107.208 30.559 1110.418 29.419 Q 1113.628 28.279 1116.928 28.279 Q 1120.768 28.279 1123.258 29.359 Q 1125.748 30.439 1127.188 32.179 Q 1128.628 33.919 1129.198 36.079 Q 1129.768 38.239 1129.768 40.399 L 1129.768 57.919 L 1123.048 57.919 Z M 1122.928 44.779 L 1121.308 44.779 Q 1119.568 44.779 1117.648 44.929 Q 1115.728 45.079 1114.108 45.589 Q 1112.488 46.099 1111.408 47.029 Q 1110.328 47.959 1110.328 49.579 Q 1110.328 50.599 1110.778 51.289 Q 1111.228 51.979 1111.948 52.399 Q 1112.668 52.819 1113.568 52.999 Q 1114.468 53.179 1115.368 53.179 Q 1119.088 53.179 1121.008 51.199 Q 1122.928 49.219 1122.928 45.799 Z M 1138.167 29.119 L 1145.007 29.119 L 1145.007 33.739 L 1145.127 33.739 Q 1146.087 31.579 1148.457 29.929 Q 1150.827 28.279 1154.067 28.279 Q 1156.887 28.279 1158.897 29.269 Q 1160.907 30.259 1162.197 31.879 Q 1163.487 33.499 1164.087 35.599 Q 1164.687 37.699 1164.687 39.919 L 1164.687 57.919 L 1157.487 57.919 L 1157.487 41.959 Q 1157.487 40.699 1157.307 39.319 Q 1157.127 37.939 1156.527 36.829 Q 1155.927 35.719 1154.877 34.999 Q 1153.827 34.279 1152.087 34.279 Q 1150.347 34.279 1149.087 34.969 Q 1147.827 35.659 1147.017 36.739 Q 1146.207 37.819 1145.787 39.229 Q 1145.367 40.639 1145.367 42.079 L 1145.367 57.919 L 1138.167 57.919 Z M 1193.363 40.639 Q 1193.363 39.259 1192.973 37.999 Q 1192.583 36.739 1191.743 35.779 Q 1190.903 34.819 1189.613 34.249 Q 1188.323 33.679 1186.583 33.679 Q 1183.343 33.679 1181.093 35.629 Q 1178.843 37.579 1178.603 40.639 Z M 1200.563 43.879 Q 1200.563 44.359 1200.563 44.839 Q 1200.563 45.319 1200.503 45.799 L 1178.603 45.799 Q 1178.723 47.359 1179.413 48.649 Q 1180.103 49.939 1181.243 50.869 Q 1182.383 51.799 1183.823 52.339 Q 1185.263 52.879 1186.823 52.879 Q 1189.523 52.879 1191.383 51.889 Q 1193.243 50.899 1194.443 49.159 L 1199.243 52.999 Q 1194.983 58.759 1186.883 58.759 Q 1183.523 58.759 1180.703 57.709 Q 1177.883 56.659 1175.813 54.739 Q 1173.743 52.819 1172.573 50.029 Q 1171.403 47.239 1171.403 43.699 Q 1171.403 40.219 1172.573 37.369 Q 1173.743 34.519 1175.783 32.509 Q 1177.823 30.499 1180.613 29.389 Q 1183.403 28.279 1186.643 28.279 Q 1189.643 28.279 1192.193 29.269 Q 1194.743 30.259 1196.603 32.209 Q 1198.463 34.159 1199.513 37.069 Q 1200.563 39.979 1200.563 43.879 Z" transform="matrix(3.181346, 0, 0, 3.181346, -1588.940186, 51.132526)" style="fill: rgb(51, 51, 51);"/>
  <path d="M 739.289 123.919 L 732.449 123.919 L 732.449 119.599 L 732.329 119.599 Q 730.829 122.119 728.159 123.439 Q 725.489 124.759 722.429 124.759 Q 719.129 124.759 716.519 123.529 Q 713.909 122.299 712.079 120.229 Q 710.249 118.159 709.259 115.369 Q 708.269 112.579 708.269 109.399 Q 708.269 106.219 709.289 103.459 Q 710.309 100.699 712.169 98.659 Q 714.029 96.619 716.609 95.449 Q 719.189 94.279 722.249 94.279 Q 724.229 94.279 725.789 94.729 Q 727.349 95.179 728.519 95.839 Q 729.689 96.499 730.529 97.279 Q 731.369 98.059 731.909 98.779 L 732.089 98.779 L 732.089 78.559 L 739.289 78.559 Z M 715.589 109.399 Q 715.589 111.079 716.099 112.759 Q 716.609 114.439 717.629 115.759 Q 718.649 117.079 720.209 117.919 Q 721.769 118.759 723.869 118.759 Q 725.849 118.759 727.409 117.949 Q 728.969 117.139 730.079 115.819 Q 731.189 114.499 731.759 112.849 Q 732.329 111.199 732.329 109.519 Q 732.329 107.839 731.759 106.159 Q 731.189 104.479 730.079 103.159 Q 728.969 101.839 727.409 100.999 Q 725.849 100.159 723.869 100.159 Q 721.769 100.159 720.209 100.969 Q 718.649 101.779 717.629 103.099 Q 716.609 104.419 716.099 106.069 Q 715.589 107.719 715.589 109.399 Z M 748.165 95.119 L 755.365 95.119 L 755.365 123.919 L 748.165 123.919 Z M 747.145 85.339 Q 747.145 83.599 748.435 82.309 Q 749.725 81.019 751.705 81.019 Q 753.685 81.019 755.035 82.249 Q 756.385 83.479 756.385 85.339 Q 756.385 87.199 755.035 88.429 Q 753.685 89.659 751.705 89.659 Q 749.725 89.659 748.435 88.369 Q 747.145 87.079 747.145 85.339 Z M 779.483 81.439 L 787.043 81.439 L 787.043 123.919 L 779.483 123.919 Z M 796.046 95.119 L 802.886 95.119 L 802.886 99.739 L 803.006 99.739 Q 803.966 97.579 806.336 95.929 Q 808.706 94.279 811.946 94.279 Q 814.766 94.279 816.776 95.269 Q 818.786 96.259 820.076 97.879 Q 821.366 99.499 821.966 101.599 Q 822.566 103.699 822.566 105.919 L 822.566 123.919 L 815.366 123.919 L 815.366 107.959 Q 815.366 106.699 815.186 105.319 Q 815.006 103.939 814.406 102.829 Q 813.806 101.719 812.756 100.999 Q 811.706 100.279 809.966 100.279 Q 808.226 100.279 806.966 100.969 Q 805.706 101.659 804.896 102.739 Q 804.086 103.819 803.666 105.229 Q 803.246 106.639 803.246 108.079 L 803.246 123.919 L 796.046 123.919 Z M 832.107 100.879 L 826.647 100.879 L 826.647 95.119 L 832.107 95.119 L 832.107 90.859 Q 832.107 88.279 832.677 85.909 Q 833.247 83.539 834.597 81.739 Q 835.947 79.939 838.167 78.889 Q 840.387 77.839 843.747 77.839 Q 844.947 77.839 845.757 77.929 Q 846.567 78.019 847.407 78.259 L 846.927 84.379 Q 846.327 84.199 845.637 84.079 Q 844.947 83.959 844.167 83.959 Q 842.607 83.959 841.647 84.559 Q 840.687 85.159 840.177 86.119 Q 839.667 87.079 839.487 88.219 Q 839.307 89.359 839.307 90.439 L 839.307 95.119 L 845.967 95.119 L 845.967 100.879 L 839.307 100.879 L 839.307 123.919 L 832.107 123.919 Z M 848.725 109.399 Q 848.725 105.979 849.955 103.189 Q 851.185 100.399 853.285 98.419 Q 855.385 96.439 858.265 95.359 Q 861.145 94.279 864.385 94.279 Q 867.625 94.279 870.505 95.359 Q 873.385 96.439 875.485 98.419 Q 877.585 100.399 878.815 103.189 Q 880.045 105.979 880.045 109.399 Q 880.045 112.819 878.815 115.639 Q 877.585 118.459 875.485 120.469 Q 873.385 122.479 870.505 123.619 Q 867.625 124.759 864.385 124.759 Q 861.145 124.759 858.265 123.619 Q 855.385 122.479 853.285 120.469 Q 851.185 118.459 849.955 115.639 Q 848.725 112.819 848.725 109.399 Z M 856.045 109.399 Q 856.045 111.079 856.555 112.759 Q 857.065 114.439 858.085 115.759 Q 859.105 117.079 860.665 117.919 Q 862.225 118.759 864.385 118.759 Q 866.545 118.759 868.105 117.919 Q 869.665 117.079 870.685 115.759 Q 871.705 114.439 872.215 112.759 Q 872.725 111.079 872.725 109.399 Q 872.725 107.719 872.215 106.069 Q 871.705 104.419 870.685 103.099 Q 869.665 101.779 868.105 100.969 Q 866.545 100.159 864.385 100.159 Q 862.225 100.159 860.665 100.969 Q 859.105 101.779 858.085 103.099 Q 857.065 104.419 856.555 106.069 Q 856.045 107.719 856.045 109.399 Z M 887.003 95.119 L 893.903 95.119 L 893.903 99.919 L 894.023 99.919 Q 895.223 97.399 897.383 95.839 Q 899.543 94.279 902.423 94.279 Q 902.843 94.279 903.323 94.309 Q 903.803 94.339 904.163 94.459 L 904.163 101.059 Q 903.443 100.879 902.933 100.819 Q 902.423 100.759 901.943 100.759 Q 899.483 100.759 897.983 101.659 Q 896.483 102.559 895.643 103.819 Q 894.803 105.079 894.503 106.399 Q 894.203 107.719 894.203 108.499 L 894.203 123.919 L 887.003 123.919 Z M 943.226 94.279 Q 946.046 94.279 948.056 95.269 Q 950.066 96.259 951.356 97.879 Q 952.646 99.499 953.246 101.599 Q 953.846 103.699 953.846 105.919 L 953.846 123.919 L 946.646 123.919 L 946.646 107.959 Q 946.646 106.699 946.466 105.319 Q 946.286 103.939 945.686 102.829 Q 945.086 101.719 944.036 100.999 Q 942.986 100.279 941.246 100.279 Q 939.566 100.279 938.366 100.999 Q 937.166 101.719 936.386 102.859 Q 935.606 103.999 935.246 105.409 Q 934.886 106.819 934.886 108.199 L 934.886 123.919 L 927.686 123.919 L 927.686 106.519 Q 927.686 103.819 926.396 102.049 Q 925.106 100.279 922.346 100.279 Q 920.726 100.279 919.526 100.969 Q 918.326 101.659 917.576 102.739 Q 916.826 103.819 916.436 105.229 Q 916.046 106.639 916.046 108.079 L 916.046 123.919 L 908.846 123.919 L 908.846 95.119 L 915.686 95.119 L 915.686 99.739 L 915.806 99.739 Q 916.286 98.659 917.096 97.699 Q 917.906 96.739 919.016 95.959 Q 920.126 95.179 921.566 94.729 Q 923.006 94.279 924.746 94.279 Q 928.106 94.279 930.326 95.779 Q 932.546 97.279 933.746 99.739 Q 935.186 97.099 937.586 95.689 Q 939.986 94.279 943.226 94.279 Z M 980.124 120.259 L 979.944 120.259 Q 978.864 122.179 976.464 123.409 Q 974.064 124.639 971.004 124.639 Q 969.264 124.639 967.374 124.189 Q 965.484 123.739 963.894 122.689 Q 962.304 121.639 961.254 119.929 Q 960.204 118.219 960.204 115.699 Q 960.204 112.459 962.034 110.539 Q 963.864 108.619 966.744 107.599 Q 969.624 106.579 973.134 106.249 Q 976.644 105.919 980.004 105.919 L 980.004 105.199 Q 980.004 102.499 978.054 101.209 Q 976.104 99.919 973.404 99.919 Q 971.124 99.919 969.024 100.879 Q 966.924 101.839 965.544 103.219 L 961.824 98.839 Q 964.284 96.559 967.494 95.419 Q 970.704 94.279 974.004 94.279 Q 977.844 94.279 980.334 95.359 Q 982.824 96.439 984.264 98.179 Q 985.704 99.919 986.274 102.079 Q 986.844 104.239 986.844 106.399 L 986.844 123.919 L 980.124 123.919 Z M 980.004 110.779 L 978.384 110.779 Q 976.644 110.779 974.724 110.929 Q 972.804 111.079 971.184 111.589 Q 969.564 112.099 968.484 113.029 Q 967.404 113.959 967.404 115.579 Q 967.404 116.599 967.854 117.289 Q 968.304 117.979 969.024 118.399 Q 969.744 118.819 970.644 118.999 Q 971.544 119.179 972.444 119.179 Q 976.164 119.179 978.084 117.199 Q 980.004 115.219 980.004 111.799 Z M 990.504 100.879 L 990.504 95.119 L 995.544 95.119 L 995.544 86.779 L 1002.624 86.779 L 1002.624 95.119 L 1009.824 95.119 L 1009.824 100.879 L 1002.624 100.879 L 1002.624 114.259 Q 1002.624 116.179 1003.314 117.439 Q 1004.004 118.699 1006.404 118.699 Q 1007.124 118.699 1007.964 118.549 Q 1008.804 118.399 1009.464 118.099 L 1009.704 123.739 Q 1008.744 124.099 1007.424 124.309 Q 1006.104 124.519 1004.904 124.519 Q 1002.024 124.519 1000.224 123.709 Q 998.424 122.899 997.374 121.489 Q 996.324 120.079 995.934 118.249 Q 995.544 116.419 995.544 114.319 L 995.544 100.879 Z M 1015.162 95.119 L 1022.362 95.119 L 1022.362 123.919 L 1015.162 123.919 Z M 1014.142 85.339 Q 1014.142 83.599 1015.432 82.309 Q 1016.722 81.019 1018.702 81.019 Q 1020.682 81.019 1022.032 82.249 Q 1023.382 83.479 1023.382 85.339 Q 1023.382 87.199 1022.032 88.429 Q 1020.682 89.659 1018.702 89.659 Q 1016.722 89.659 1015.432 88.369 Q 1014.142 87.079 1014.142 85.339 Z M 1050.806 103.099 Q 1049.966 101.899 1048.286 101.089 Q 1046.606 100.279 1044.866 100.279 Q 1042.886 100.279 1041.386 101.089 Q 1039.886 101.899 1038.896 103.219 Q 1037.906 104.539 1037.426 106.189 Q 1036.946 107.839 1036.946 109.519 Q 1036.946 111.199 1037.456 112.849 Q 1037.966 114.499 1038.986 115.819 Q 1040.006 117.139 1041.536 117.949 Q 1043.066 118.759 1045.106 118.759 Q 1046.786 118.759 1048.466 118.099 Q 1050.146 117.439 1051.166 116.179 L 1055.666 120.739 Q 1053.866 122.659 1051.076 123.709 Q 1048.286 124.759 1045.046 124.759 Q 1041.866 124.759 1039.016 123.739 Q 1036.166 122.719 1034.036 120.739 Q 1031.906 118.759 1030.676 115.939 Q 1029.446 113.119 1029.446 109.519 Q 1029.446 106.039 1030.676 103.219 Q 1031.906 100.399 1034.006 98.419 Q 1036.106 96.439 1038.896 95.359 Q 1041.686 94.279 1044.866 94.279 Q 1048.046 94.279 1051.016 95.479 Q 1053.986 96.679 1055.726 98.779 Z M 1078.285 120.259 L 1078.105 120.259 Q 1077.025 122.179 1074.625 123.409 Q 1072.225 124.639 1069.165 124.639 Q 1067.425 124.639 1065.535 124.189 Q 1063.645 123.739 1062.055 122.689 Q 1060.465 121.639 1059.415 119.929 Q 1058.365 118.219 1058.365 115.699 Q 1058.365 112.459 1060.195 110.539 Q 1062.025 108.619 1064.905 107.599 Q 1067.785 106.579 1071.295 106.249 Q 1074.805 105.919 1078.165 105.919 L 1078.165 105.199 Q 1078.165 102.499 1076.215 101.209 Q 1074.265 99.919 1071.565 99.919 Q 1069.285 99.919 1067.185 100.879 Q 1065.085 101.839 1063.705 103.219 L 1059.985 98.839 Q 1062.445 96.559 1065.655 95.419 Q 1068.865 94.279 1072.165 94.279 Q 1076.005 94.279 1078.495 95.359 Q 1080.985 96.439 1082.425 98.179 Q 1083.865 99.919 1084.435 102.079 Q 1085.005 104.239 1085.005 106.399 L 1085.005 123.919 L 1078.285 123.919 Z M 1078.165 110.779 L 1076.545 110.779 Q 1074.805 110.779 1072.885 110.929 Q 1070.965 111.079 1069.345 111.589 Q 1067.725 112.099 1066.645 113.029 Q 1065.565 113.959 1065.565 115.579 Q 1065.565 116.599 1066.015 117.289 Q 1066.465 117.979 1067.185 118.399 Q 1067.905 118.819 1068.805 118.999 Q 1069.705 119.179 1070.605 119.179 Q 1074.325 119.179 1076.245 117.199 Q 1078.165 115.219 1078.165 111.799 Z" transform="matrix(3.181346, 0, 0, 3.181346, -1588.940186, 51.132526)" style="fill: rgb(51, 51, 51);"/>
</svg>